<svg id="Layer_1" data-name="Layer 1" xmlns="http://www.w3.org/2000/svg" viewBox="0 0 520.57 150.91"><defs><style>.cls-1{fill:none;stroke:#000;stroke-miterlimit:10;}.cls-2{fill:#ffe500;}.cls-3{fill:#fff;}.cls-4{fill:#003b7e;}</style></defs><line class="cls-1" y1="77.4" x2="520.57" y2="77.4"/><circle class="cls-2" cx="260.28" cy="75.46" r="75.46"/><circle class="cls-3" cx="260.28" cy="75.46" r="57.9"/><path class="cls-4" d="M281.6,105.44h-1.88a1.73,1.73,0,0,0-.32-.11,7.85,7.85,0,0,1-4.84-2.81l-.39-.49-.25.11a29.65,29.65,0,0,1-8.77,2.89c-1,.17-2,.28-3,.41H258.4c-.15,0-.3-.08-.45-.1-1.37-.2-2.75-.32-4.1-.6a30,30,0,0,1-23.1-24c-.19-1.17-.31-2.35-.47-3.53V69.48a1.47,1.47,0,0,1,1.36-.59c4.63,0,9.25,0,13.88,0h.66V65.15c-.2,0-.37,0-.54,0-.54,0-1-.05-1.24-.64s.15-.91.53-1.24c2.34-2,4.67-4.1,7-6.12a1.84,1.84,0,0,1,1.1-.41c2.3,0,4.6,0,6.91,0a1.56,1.56,0,0,1,1.23.53c1.32,1.33,2.65,2.65,4,4l2.2,2.2a1,1,0,0,1,.33,1.15,1,1,0,0,1-1,.59c-.24,0-.48,0-.72,0v3.71h9.31V65.14a10.26,10.26,0,0,1-1.58-.08,5.94,5.94,0,0,1-3.32-2.35,1.41,1.41,0,0,0-.69-.46,4.71,4.71,0,0,1-3.74-4.32,4.64,4.64,0,0,1,3.33-4.74.83.83,0,0,0,.63-.64,4.64,4.64,0,0,1,4.81-3.32,4.87,4.87,0,0,1,2.93,1.31c.2-.16.37-.3.54-.42a4.57,4.57,0,0,1,6.73,1.42A4.5,4.5,0,0,0,287,53.65a4.23,4.23,0,0,1,2.32,4.5,4.56,4.56,0,0,1-3.25,4c-.23.08-.53.23-.6.42a3.58,3.58,0,0,1-2.74,2.37c-.58.14-1.18.2-1.76.3V68.9h8.18c.81,0,1.14.34,1.14,1.14,0,1.4.05,2.81,0,4.21-.07,1.83-.11,3.67-.33,5.49a28.46,28.46,0,0,1-3.49,10.35,2.34,2.34,0,0,0,.24,2.33,7.91,7.91,0,0,1-4.07,12.78ZM232.19,72.65h.67c4.39,0,8.79,0,13.18,0a2.82,2.82,0,1,1,0,5.62h-5c-.89,0-1.34.32-1.33,1s.46.92,1.36.92h1.23a2.82,2.82,0,1,1,0,5.62h-8.13a26.8,26.8,0,0,0,3.31,6c.14.2.55.47.61.43a1.93,1.93,0,0,0,.64-.81,4,4,0,0,0,0-1.1,2.84,2.84,0,0,1,2.68-2.69c.37,0,.75,0,1.12,0a2.75,2.75,0,0,1,2.65,2.15,9.5,9.5,0,0,1,.11,1.51,1,1,0,0,0,.85,1c1.55.21,2-.14,2-1.67,0-.12,0-.24,0-.36a2.82,2.82,0,0,1,2.65-2.64,11.42,11.42,0,0,1,1.17,0,2.77,2.77,0,0,1,2.62,2.13,8.33,8.33,0,0,1,.11,1.51,1,1,0,0,0,.95,1,1,1,0,0,0,.92-1.06c0-.3,0-.59,0-.88a2.83,2.83,0,0,1,2.75-2.74c.59,0,1.19,0,1.81,0a1.35,1.35,0,0,0-1.35-1.87c-1.13,0-2.26,0-3.4,0a5.67,5.67,0,0,1,.38-11.34h18.51a1,1,0,0,0,.89-.39,3.85,3.85,0,0,1,2.93-1.38c1,0,2,0,3,0a4,4,0,0,1,3.25,1.47c.11.12.26.27.4.28.87,0,1.74,0,2.61,0V70.8H232.19Zm41.33,21.59c-2-.25-2.93-1.28-2.94-3.24,0-.22.08-.48,0-.64-.19-.31-.43-.71-.73-.8-1.43-.41-2.05.11-2.06,1.58v.29a2.76,2.76,0,0,1-2.2,2.68,8.07,8.07,0,0,1-1.63.08,2.73,2.73,0,0,1-2.62-2.12,9.5,9.5,0,0,1-.11-1.51,1,1,0,0,0-1.07-1h-.58c-.81,0-1.15.34-1.16,1.13,0,.28,0,.55,0,.82a2.81,2.81,0,0,1-5.62,0c0-.33,0-.67,0-1a.94.94,0,0,0-1-1c-1.56-.1-1.83.14-1.84,1.69a2.8,2.8,0,0,1,0,.29,2.69,2.69,0,0,1-2.08,2.58,6.8,6.8,0,0,1-2.38,0,2.47,2.47,0,0,1-2-2,7.52,7.52,0,0,1-.1-1.51,1,1,0,0,0-.78-1,3.19,3.19,0,0,0-.76,0c-1,0-1.31.3-1.27,1.3a3.05,3.05,0,0,1-1.52,3.06,27.9,27.9,0,0,0,34.21,6.43A7.87,7.87,0,0,1,273.52,94.24Zm1.59-17.91a1.86,1.86,0,0,0-.26,0c-6.13,0-12.26,0-18.39,0a3.79,3.79,0,0,0,.06,7.58c1.06,0,2.11,0,3.16,0a3.27,3.27,0,0,1,3.08,4.69c-.06.13-.14.33-.09.42a4.59,4.59,0,0,1,.43,2.39.92.92,0,0,0,.93.93c1.56.13,1.86-.14,1.87-1.7v-.29a2.84,2.84,0,0,1,2.5-2.67,10.1,10.1,0,0,1,1.23,0,2.84,2.84,0,0,1,2.83,2.84c0,1.8.11,1.86,1.9,1.85.53,0,.76-.22.75-.73Zm5.78-13c.45-.06.81-.08,1.17-.15a1.72,1.72,0,0,0,1.65-1.79c.07-.57.38-.85,1-.91a2.81,2.81,0,0,0,0-5.62c-.68-.05-1-.34-1-1a2.81,2.81,0,0,0-2.07-2.61,2.77,2.77,0,0,0-3.1,1.2,1,1,0,0,1-1.83,0,2.77,2.77,0,0,0-3.09-1.21,2.81,2.81,0,0,0-2.09,2.6c0,.72-.33,1-1.06,1.05a2.8,2.8,0,0,0,0,5.6,1.42,1.42,0,0,1,1.07.6,9.58,9.58,0,0,0,1.64,1.72,3.39,3.39,0,0,0,1.57.46c.38.05.64-.16.58-.64a8.22,8.22,0,0,1,0-1.11,2.81,2.81,0,1,1,5.62,0C280.9,62,280.89,62.62,280.89,63.31ZM277,84.39c0,2.5,0,5,0,7.49a1.91,1.91,0,0,1-.59,1.46,5.73,5.73,0,0,0-1.69,5,6,6,0,1,0,10.25-5,1.9,1.9,0,0,1-.59-1.45q0-7.47,0-14.93A2.19,2.19,0,0,0,282,74.52h-2.41c-1.81,0-2.58.77-2.58,2.61Zm-44.82-9.87a28,28,0,0,0,1.3,9.37h9a.93.93,0,0,0,0-1.85c-.67,0-1.33,0-2,0a2.81,2.81,0,0,1,0-5.61c.64,0,1.28,0,1.93,0,1.23,0,2.46,0,3.69,0a1.29,1.29,0,0,0,.89-.58,1,1,0,0,0-.15-.93,1.43,1.43,0,0,0-.94-.33c-2.61,0-5.23,0-7.85,0Zm16-5.66h8.36V65.18h-8.36Zm16.45-5.59c-1.58-1.57-3-3-4.52-4.49a.86.86,0,0,0-.57-.18c-1.43,0-2.85,0-4.28,0-.12,0-.24,0-.41.06,1.32,1.51,2.58,3,3.86,4.42a.62.62,0,0,0,.39.2Zm-6.14,5.59H264V65.18h-5.55ZM252.62,59l-4.79,4.2h8.46ZM279,68.87c0-2.52,0-5,0-7.42a.92.92,0,0,0-1.11-1,1,1,0,0,0-.76,1.1c0,2.31,0,4.63,0,7a1.86,1.86,0,0,0,0,.33Zm7.27,7.45v9.52a25.87,25.87,0,0,0,2.07-9.52Z"/><path class="cls-4" d="M238.72,54.84H234.1a2.8,2.8,0,0,1-2.86-3.28A3.77,3.77,0,0,1,235,48.29a.77.77,0,0,0,.72-.34,3.71,3.71,0,0,1,6,0,.82.82,0,0,0,.78.35,3.65,3.65,0,0,1,3.3,2.05,3.21,3.21,0,0,1-.27,3.58,2,2,0,0,1-1.78.93C242.07,54.83,240.4,54.84,238.72,54.84Zm0-1.87c1.6,0,3.2,0,4.79,0a.7.7,0,0,0,.72-.45,1.46,1.46,0,0,0-.26-1.64,1.81,1.81,0,0,0-1.88-.68c-1.06.22-1.16.17-1.64-.83a1.77,1.77,0,0,0-1.72-1.09A1.8,1.8,0,0,0,237,49.44c-.42.92-.61,1-1.56.78a1.89,1.89,0,0,0-2.33,1.55,1,1,0,0,0,1,1.2Z"/><path class="cls-4" d="M253.67,52H250.4a2.28,2.28,0,0,1-2.27-2.76,3,3,0,0,1,2.58-2.44,1.7,1.7,0,0,0,.87-.45,2.93,2.93,0,0,1,4.24,0,1.48,1.48,0,0,0,1,.48,2.81,2.81,0,0,1,2,4.41,1.69,1.69,0,0,1-1.49.76Zm.06-1.87c1,0,2,0,3,0,.21,0,.55-.08.59-.19a1.08,1.08,0,0,0-.09-.75,1,1,0,0,0-1.1-.49c-1,.13-1,.09-1.52-.74a1.33,1.33,0,0,0-1-.58,1.28,1.28,0,0,0-.91.57c-.54.86-.51.89-1.57.74a1.08,1.08,0,0,0-1.21.78c-.11.42.06.66.51.67Z"/><path class="cls-4" d="M234,62.83c0,.45,0,.9,0,1.35a1,1,0,0,1-1,1,.94.94,0,0,1-.91-1c0-.92,0-1.83,0-2.75a.94.94,0,1,1,1.87,0C234.05,61.89,234,62.36,234,62.83Z"/><path class="cls-4" d="M237.78,59c0,.47,0,.94,0,1.4a.94.94,0,1,1-1.87,0q0-1.38,0-2.76a.93.93,0,1,1,1.86,0C237.79,58.12,237.78,58.57,237.78,59Z"/><path class="cls-4" d="M243.41,58.52c0-.29,0-.58,0-.87a.94.94,0,0,1,.94-.93.92.92,0,0,1,.92.88,18.87,18.87,0,0,1,0,2,.9.9,0,0,1-.93.87.92.92,0,0,1-.92-.88c0-.35,0-.7,0-1.06Z"/><path class="cls-4" d="M241.53,58.6c0,.3,0,.59,0,.88a.94.94,0,1,1-1.87,0c0-.58,0-1.17,0-1.75a.93.93,0,0,1,1-1,1,1,0,0,1,.92,1C241.54,58,241.53,58.31,241.53,58.6Z"/><path class="cls-4" d="M241.53,63.3c0,.32,0,.63,0,.94a.94.94,0,0,1-1,.91.92.92,0,0,1-.89-.91c0-.64,0-1.29,0-1.93a.9.9,0,0,1,1-.9.92.92,0,0,1,.9.9C241.54,62.64,241.53,63,241.53,63.3Z"/><path class="cls-4" d="M237.78,63.8a3.53,3.53,0,0,1,0,.46.94.94,0,0,1-.92.89.92.92,0,0,1-.93-.87,6.68,6.68,0,0,1,0-1,.94.94,0,0,1,.93-.94,1,1,0,0,1,.94.93c0,.17,0,.35,0,.53Z"/><path class="cls-4" d="M234,58.14c0,.12,0,.23,0,.35a.94.94,0,1,1-1.87,0c0-.25,0-.5,0-.76a.94.94,0,1,1,1.87,0C234,57.87,234,58,234,58.14Z"/><path class="cls-4" d="M258.39,54.32a3.39,3.39,0,0,1,0,.64.93.93,0,0,1-1.84,0,6.53,6.53,0,0,1,0-1,.94.94,0,0,1,.94-1,1,1,0,0,1,.93,1v.35Z"/><path class="cls-4" d="M252.78,54.33c0-.15,0-.31,0-.46a1,1,0,0,1,.91-.9.93.93,0,0,1,.95.92,5.46,5.46,0,0,1,0,1,.93.93,0,0,1-1.86,0C252.77,54.69,252.78,54.51,252.78,54.33Z"/><path class="cls-4" d="M249,54.36v-.29c0-.68.38-1.1.95-1.1s.91.43.92,1.12c0,.24,0,.47,0,.71a.94.94,0,1,1-1.87,0C249,54.63,249,54.5,249,54.36Z"/><path class="cls-4" d="M283.16,86.34c0,2.18,0,4.36,0,6.55a.92.92,0,0,0,.4.83,4.79,4.79,0,1,1-7.66,4,4.54,4.54,0,0,1,1.82-3.87,1.19,1.19,0,0,0,.5-1.06c0-4.3,0-8.59,0-12.88a2.4,2.4,0,0,1,1.4-2.31,2.34,2.34,0,0,1,2.59.26,2.4,2.4,0,0,1,1,2Zm-1.88.56c0-2.21,0-4.41,0-6.62a1.45,1.45,0,0,0,0-.63c-.1-.19-.34-.44-.51-.44a1,1,0,0,0-.61.41c-.1.12,0,.37,0,.57,0,4.47,0,8.94,0,13.41a1.37,1.37,0,0,1-.8,1.4,2.87,2.87,0,0,0-1.42,3.34,3,3,0,0,0,2.83,2.14,2.93,2.93,0,0,0,2.82-2.22A2.88,2.88,0,0,0,282.07,95a1.33,1.33,0,0,1-.79-1.35C281.3,91.39,281.28,89.14,281.28,86.9Z"/></svg>