<svg id="Layer_1" data-name="Layer 1" xmlns="http://www.w3.org/2000/svg" viewBox="0 0 520.57 150.91"><defs><style>.cls-1{fill:none;stroke:#000;stroke-miterlimit:10;}.cls-2{fill:#ffe500;}.cls-3{fill:#fff;}.cls-4{fill:#003b7e;}</style></defs><line class="cls-1" y1="77.4" x2="520.57" y2="77.4"/><circle class="cls-2" cx="260.28" cy="75.46" r="75.46"/><circle class="cls-3" cx="260.28" cy="75.46" r="57.9"/><path class="cls-4" d="M290.28,77.22c-.15,1.06-.28,2.12-.45,3.17a29.82,29.82,0,0,1-22.55,24.2c-1.53.36-3.11.52-4.66.76l-.69.11h-3.28c-1.1-.14-2.2-.24-3.29-.44-1.26-.22-2.5-.52-3.78-.8a1.34,1.34,0,0,1-.9,1.24h-.58a8.07,8.07,0,0,1-.92-.93c-.49-.69-.92-1.41-1.36-2.12a1.25,1.25,0,0,1,.42-2c.79-.51,1.58-1,2.38-1.5a1.2,1.2,0,0,1,1.79.27,1.21,1.21,0,0,1-.52,1.7,3.33,3.33,0,0,0-.83.69c1.37.35,2.72.78,4.11,1A27.53,27.53,0,0,0,282.43,91.9a27.49,27.49,0,0,0,5.22-12.63,25.27,25.27,0,0,0,.1-7,3.44,3.44,0,0,1,0-.64,1.13,1.13,0,0,1,1-1.17,1.09,1.09,0,0,1,1.26.89c.12.53.13,1.08.2,1.62,0,.23.08.46.11.69Z"/><path class="cls-4" d="M290.28,60.46c-.07.32-.14.64-.22,1a8.86,8.86,0,0,1-17.42-.22,8.75,8.75,0,0,1,1.52-7c2-2.75,4.14-5.44,6.22-8.14a1.18,1.18,0,0,1,2.05,0q3,3.93,6,7.88a8.87,8.87,0,0,1,1.77,4.28,1.39,1.39,0,0,0,.1.26ZM281.43,48.6a1.92,1.92,0,0,0-.2.19c-1.66,2.16-3.33,4.32-5,6.5a6.6,6.6,0,0,0-1.33,5.23,6.35,6.35,0,0,0,4.65,5.4,6.06,6.06,0,0,0,6.7-2,6.36,6.36,0,0,0,1.07-7.1A15.59,15.59,0,0,0,285.5,54C284.17,52.18,282.8,50.41,281.43,48.6Z"/><path class="cls-4" d="M260.32,94a16.3,16.3,0,0,1-16-13.78A15.58,15.58,0,0,1,247.42,68c3.92-5.12,7.92-10.16,11.9-15.23a1.17,1.17,0,0,1,2.05,0c4.05,5.21,8.13,10.39,12.11,15.65a16.14,16.14,0,0,1-9.86,25.1A33.08,33.08,0,0,1,260.32,94Zm0-38.68c-.09.11-.15.16-.2.22-3.68,4.7-7.46,9.34-11,14.14a13,13,0,0,0-1.52,13.53,13.79,13.79,0,1,0,24.47-12.56c-1.35-2.13-3-4.07-4.56-6.08C265.16,61.47,262.77,58.41,260.35,55.3Z"/><path class="cls-4" d="M270.82,47.33c0-.18,0-.33.06-.48a1.1,1.1,0,0,1,.84-.89,1,1,0,0,1,1.19.4c.63,1,1.24,2.08,1.8,3.15a1,1,0,0,1-.49,1.4c-.94.59-1.91,1.14-2.89,1.67a1.09,1.09,0,0,1-1.48-.4,1.13,1.13,0,0,1,.29-1.56c.26-.2.55-.36.94-.61-.75-.29-1.4-.57-2.07-.78a27.46,27.46,0,0,0-14.55-.77,27.85,27.85,0,0,0-21.41,22.46,25.07,25.07,0,0,0-.32,6.53,3.88,3.88,0,0,1,0,.59,1.16,1.16,0,0,1-2.32.14c-.06-.46-.09-.93-.11-1.4a30,30,0,0,1,22.94-30.46,29.36,29.36,0,0,1,16.88.83l.5.17Z"/><path class="cls-4" d="M248.1,95.14a8.91,8.91,0,1,1-17.74-1.07,9.82,9.82,0,0,1,2-4.75l5.78-7.53c.74-1,1.51-1,2.23,0q3,4,6,7.93A9,9,0,0,1,248.1,95.14Zm-8.85-11-.29.36c-1.7,2.24-3.44,4.45-5.1,6.72a6.37,6.37,0,0,0-1.12,4.89,6.61,6.61,0,0,0,5,5.5,6.46,6.46,0,0,0,6.75-2.58,6.64,6.64,0,0,0,.28-7.45C243,89.11,241.13,86.7,239.25,84.18Z"/><path class="cls-4" d="M281.58,64.57a1.18,1.18,0,0,1-1.36-1.06,1.21,1.21,0,0,1,1.12-1.25c1.89-.35,2.45-.93,2.74-2.84a1.14,1.14,0,0,1,1.27-1.08,1.16,1.16,0,0,1,1.06,1.24A5.09,5.09,0,0,1,281.58,64.57Z"/><path class="cls-4" d="M271.81,80a27.17,27.17,0,0,1-1.11,2.8A11.13,11.13,0,0,1,265.18,88a1.21,1.21,0,0,1-1.72-.43,1.19,1.19,0,0,1,.71-1.67,9,9,0,0,0,4.36-4,16.22,16.22,0,0,0,.76-1.82c.09-.22.14-.45.24-.66a1.13,1.13,0,0,1,1.31-.63A1.39,1.39,0,0,1,271.81,80Z"/><path class="cls-4" d="M272,75.23a1.17,1.17,0,1,1-2.33-.08,1.16,1.16,0,0,1,1.2-1.1A1.18,1.18,0,0,1,272,75.23Z"/><path class="cls-4" d="M239.36,100.2a1.16,1.16,0,1,1-.26-2.3c.24-.05.5-.05.74-.12a2.74,2.74,0,0,0,2-2.55c.09-.9.57-1.35,1.33-1.26s1.08.66,1,1.51A5.06,5.06,0,0,1,239.36,100.2Z"/></svg>