<svg id="Layer_1" data-name="Layer 1" xmlns="http://www.w3.org/2000/svg" viewBox="0 0 50 50"><defs><style>.cls-1{fill:#003b7e;}</style></defs><path class="cls-1" d="M.83,50H12.5a.83.83,0,0,0,.83-.83v-20a.84.84,0,0,0-.83-.84H.83a.84.84,0,0,0-.83.84v20A.83.83,0,0,0,.83,50Zm.84-6.67h10V45h-10Zm0-3.33h10v1.67h-10Zm0-3.33h10v1.66h-10Zm10-1.67h-10V33.33h10Zm0,13.33h-10V46.67h10ZM1.67,30h10v1.67h-10Zm0,0"/><path class="cls-1" d="M27.5,50a.83.83,0,0,0,.83-.83V35.83A.83.83,0,0,0,27.5,35H15.83a.83.83,0,0,0-.83.83V49.17a.83.83,0,0,0,.83.83ZM16.67,43.33h10V45h-10Zm10-1.66h-10V40h10Zm0,6.66h-10V46.67h10Zm-10-11.66h10v1.66h-10Zm0,0"/><path class="cls-1" d="M49.17,17.5H45.83a5.77,5.77,0,0,0-4.16,1.76V15.83h1.66a5,5,0,0,0,5-5A.83.83,0,0,0,47.5,10H45a5,5,0,0,0-3.33,1.28v-3a5,5,0,0,0,4.16-4.93V.83A.83.83,0,0,0,45,0a5,5,0,0,0-5,5V9.62a5,5,0,0,0-3.33-1.29h-2.5a.85.85,0,0,0-.84.84,5,5,0,0,0,5,5H40v3.42a5.83,5.83,0,0,0-4.17-1.76H32.5a.84.84,0,0,0-.83.84A5.83,5.83,0,0,0,37.5,22.5H40V35.83a2.5,2.5,0,0,1-2.5,2.5H34.17a2.5,2.5,0,0,1-2.5-2.5,4.17,4.17,0,0,0-4.17-4.16H19.17a2.5,2.5,0,0,1-2.5-2.5A4.18,4.18,0,0,0,12.5,25H9.17a2.5,2.5,0,0,1-2.5-2.5V18.33H7.5a.83.83,0,0,0,.83-.83V14.92a4.19,4.19,0,0,0,3.34-4.09V4.17a.85.85,0,0,0-.84-.84H10V0H8.33V3.33H6.67V0H5V3.33H3.33V0H1.67V3.33H.83A.84.84,0,0,0,0,4.17v6.66a4.18,4.18,0,0,0,3.33,4.09V17.5a.84.84,0,0,0,.84.83H5V22.5a4.18,4.18,0,0,0,4.17,4.17H12.5a2.5,2.5,0,0,1,2.5,2.5,4.17,4.17,0,0,0,4.17,4.16H27.5a2.5,2.5,0,0,1,2.5,2.5A4.17,4.17,0,0,0,34.17,40H37.5a4.18,4.18,0,0,0,4.17-4.17V24.17h2.5A5.84,5.84,0,0,0,50,18.33a.83.83,0,0,0-.83-.83Zm-10.84-5A3.33,3.33,0,0,1,35.11,10h1.56a3.33,3.33,0,0,1,3.22,2.5Zm-.83,8.33a4.16,4.16,0,0,1-4.08-3.33h2.41a4.18,4.18,0,0,1,4.09,3.33ZM6.67,16.67H5V15H6.67ZM1.67,5H10V6.67H1.67Zm0,5.83V8.33H10v2.5a2.5,2.5,0,0,1-2.5,2.5H4.17a2.5,2.5,0,0,1-2.5-2.5ZM45,11.67h1.56a3.34,3.34,0,0,1-3.23,2.5H41.77A3.34,3.34,0,0,1,45,11.67ZM41.67,5a3.34,3.34,0,0,1,2.5-3.23V3.33a3.35,3.35,0,0,1-2.5,3.23Zm2.5,17.5H41.75a4.16,4.16,0,0,1,4.08-3.33h2.42a4.16,4.16,0,0,1-4.08,3.33Zm0,0"/><path class="cls-1" d="M42.5,41.67H30.83a.83.83,0,0,0-.83.83v6.67a.83.83,0,0,0,.83.83H42.5a.83.83,0,0,0,.83-.83V42.5a.83.83,0,0,0-.83-.83ZM31.67,43.33h10V45h-10Zm10,5h-10V46.67h10Zm0,0"/></svg>