<svg id="Layer_1" data-name="Layer 1" xmlns="http://www.w3.org/2000/svg" viewBox="0 0 271.34 320.18"><defs><style>.cls-1{fill:#f2f2f2;opacity:0.1;}.cls-2{opacity:0.15;}.cls-3{fill:#90aff4;}.cls-4{fill:#2b478b;}.cls-5{fill:#ffb93e;}.cls-6{fill:#4b65d7;}.cls-7{fill:#fff;}.cls-8{fill:#8d9cff;}.cls-9{fill:#7c8ef3;}.cls-10{fill:#95c38b;}.cls-11{fill:#5c7057;}.cls-12{fill:#86d1cd;}.cls-13{fill:#25468f;}.cls-14{fill:#100259;}.cls-15{fill:#cedfff;}.cls-16{fill:#f6fbff;}.cls-17{fill:#ed7d2b;}</style></defs><path class="cls-1" d="M134.17,0l6,5a14.88,14.88,0,0,0-3,.6Z"/><path class="cls-2" d="M271.34,191.8a129.52,129.52,0,0,1-2.07,23.12A128.43,128.43,0,0,1,25.53,243.77,126.26,126.26,0,0,1,19,225.31a129.09,129.09,0,0,1-1.51-60.83l.06-.31A128.73,128.73,0,0,1,67.66,87.8c2.63-1.92,5.36-3.74,8.14-5.45A127.7,127.7,0,0,1,143,63.4c3.26,0,6.5.13,9.7.37A124.33,124.33,0,0,1,166,65.47a127.49,127.49,0,0,1,50.25,20.9h0a128.73,128.73,0,0,1,35.22,36.77q3,4.67,5.51,9.58a127.89,127.89,0,0,1,14.36,59.08Z"/><path class="cls-3" d="M266,188.75a129.72,129.72,0,0,1-2.07,23.13A128.43,128.43,0,0,1,20.2,240.73a126.38,126.38,0,0,1-6.54-18.47,129.44,129.44,0,0,1-1.51-60.83l.06-.3A128.72,128.72,0,0,1,62.33,84.75C65,82.84,67.69,81,70.47,79.31a127.73,127.73,0,0,1,67.16-19c3.26,0,6.5.12,9.7.36a130.17,130.17,0,0,1,13.35,1.7,127.81,127.81,0,0,1,50.24,20.9h0a128.89,128.89,0,0,1,35.22,36.78q3,4.65,5.51,9.57A128,128,0,0,1,266,188.75Z"/><path class="cls-4" d="M94,131.28c-5.13,8.11,2.14,22.2-13.23,18.36s-24.77-5.55-25.62,3,11.53,8.55,11.53,17.51-5.55,11.93-14.09,7.68-11-10.46-20.92-6.61S16,172.48,13.74,164.79a11,11,0,0,0-1.59-3.36l.06-.3A128.72,128.72,0,0,1,62.33,84.75C65,82.84,67.69,81,70.47,79.31A16.88,16.88,0,0,1,83.34,86c9,11.11,14.94,5.55,12.81,18.36s1.28,14.52,8.53,14.09,15.8-.43,16.65,5.12S99.13,123.17,94,131.28Z"/><path class="cls-4" d="M94.9,190.57s-7.74,9-14.42,3.84S75.82,186,66,189.24,52,187.1,47,191.18s-1,4.58-4.41,13.22-10.63,10-5.1,18.65,15.84,4.18,21.27,8.75,3.65,9,10.43,10.88,13.24-4.74,13.38,3.44S80,262.29,88.46,269.9s20.72,1.94,20.5-3.93,5.71-5.39,3.33-12.94,4.27-11.63,2-16.52S99.27,230,100.76,225s13.07-.75,13.7-11.15-6.4-14.11-5.36-24.26S96.09,184.33,94.9,190.57Z"/><path class="cls-4" d="M266,188.75a129.72,129.72,0,0,1-2.07,23.13,127.56,127.56,0,0,1-20.27,49.25,14.63,14.63,0,0,1-10.26-.27c-16-6.41-4.16-23.7,2.24-32.35s-9.93-4.8-21.77-12.8,1.28-29.46-10.89-25.94-26.9,8-33.94-3.84,6.4-13.77.32-23.7,3.52-15.69,15.69-16.65,10.56-9.61,25.61-10.89,14.73,17.93,31.38,16.65S258,153.91,258,153.91a7.53,7.53,0,0,1,3.47.73A128.34,128.34,0,0,1,266,188.75Z"/><path class="cls-4" d="M251.65,129.67c-13.85,6.74-19.41-11.58-31.24-6.08s-9.85-5.12-19.23-12-28.18,5.55-27.33-5.13,14.94-7.68,17.93-16.22,16.65-6.4,16.65-6.4a9.23,9.23,0,0,1,2.49-.57h0a128.89,128.89,0,0,1,35.22,36.78Q249.1,124.75,251.65,129.67Z"/><path class="cls-4" d="M143.12,82.2s5.72-8.26-3.37-10.7-8.92.76-16,0-9.85,4.72-4.55,10.7,9.6,17.44,14.39,11.33S137.48,82.79,143.12,82.2Z"/><path class="cls-5" d="M62.87,207.48a19.37,19.37,0,0,1-.59,3.51h.19a13.91,13.91,0,0,0,.48-2.8C62.94,207.51,62.87,207.48,62.87,207.48Z"/><path class="cls-5" d="M62,211.47a.76.76,0,0,0,.15-.48c0-.3.32-.4.42-.13S62.19,211.44,62,211.47Z"/><path class="cls-5" d="M73.79,194.69c-.75,0-.88.45-.88.45h0s-.2-.94-.37-1,0,.48-.14.48-.23-.17-.23-.41-.18-.15-.25,0a6.39,6.39,0,0,0-.13.68l-.07.09a.81.81,0,0,0-.84-.36,1,1,0,0,0,.65.82.5.5,0,0,0,0,.17,3.14,3.14,0,0,0,.11.38h0c0,.07-.08.15-.12.24s-.14.25-.21.4l-.06.11-.51,1a1.17,1.17,0,0,1,0,.11l-.34.63c-.09.18-.19.36-.29.54l-.12.22h0l-.32.6c-.09.16-.18.33-.28.49l0,0-.59,1-.06.11c-.19.33-.38.65-.56.94A10.1,10.1,0,0,1,67,204.09c-1.06,1.06-3.55,1.72-3.87,2.68h0a1.25,1.25,0,0,0-.27.71h0a1.36,1.36,0,0,0,0,.2h0a6.9,6.9,0,0,0,0,1.18h0c.13,1.09.43,2.24.46,2.55a3.82,3.82,0,0,1-.26,1.4,30.08,30.08,0,0,0,.38,3.28h.58a11.62,11.62,0,0,1-.23-2.42,15.59,15.59,0,0,1,.44-2.52h0c0,.6,0,1.12,0,1.21,0,.24,0,.66,0,.78s.74,2.06,1.08,3h.57a13.75,13.75,0,0,1-1-3.21,11.2,11.2,0,0,1,.85-3.32h0a2.14,2.14,0,0,0,.63.14h.19a4.3,4.3,0,0,0,.61,0h0v.2l-.2,6.24h.45c0-.71.1-2.1.21-2.85.06-.41.31-1.45.59-2.55l-.17,5.4h.45c0-.71.1-2.1.21-2.85s1-4.17,1.27-5.19V208l0-.18v-.07h0a2.62,2.62,0,0,0,.09-.56,3.76,3.76,0,0,0-.07-1.14,6.62,6.62,0,0,1,.1-1.62,1.37,1.37,0,0,1,0-.29c0-.26.14-.66.27-1.14.06-.24.12-.5.19-.77l.15-.56.21-.75c.09-.34.18-.68.28-1,0-.14.07-.27.11-.4s.07-.24.1-.36h0l0-.09c.07-.27.15-.53.22-.78h0a1.21,1.21,0,0,1,0-.18h0l.16-.58a1.54,1.54,0,0,0,0-.17l0-.12a.52.52,0,0,0,.37,0c.4-.06.27-.5.31-.6s.46-1,.35-1.17h0A.94.94,0,0,0,73.79,194.69Z"/><path class="cls-5" d="M51.47,200.27a26.68,26.68,0,0,1-.81,4.84h.26a19.09,19.09,0,0,0,.66-3.86C51.56,200.32,51.47,200.27,51.47,200.27Z"/><path class="cls-5" d="M50.28,205.77a1,1,0,0,0,.2-.66c0-.42.45-.55.59-.18S50.53,205.72,50.28,205.77Z"/><path class="cls-5" d="M66.5,182.66c-1,0-1.2.62-1.2.62h0S65,182,64.78,182s0,.66-.19.66-.32-.24-.32-.56-.25-.22-.34,0a7.34,7.34,0,0,0-.18.93l-.09.13a1.15,1.15,0,0,0-1.16-.5s.09,1,.89,1.13a.61.61,0,0,0,0,.23,3.24,3.24,0,0,0,.15.53h0c-.05.09-.11.2-.17.33s-.18.35-.29.56c0,0,0,.09-.08.14l-.69,1.33-.09.15c-.14.28-.29.56-.45.86l-.41.75-.16.3h0l-.45.82-.37.68,0,.06c-.27.49-.54,1-.81,1.45a1,1,0,0,0-.08.14c-.27.46-.52.9-.77,1.3a13.83,13.83,0,0,1-1.51,2.18c-1.46,1.46-4.89,2.38-5.33,3.7h0a1.69,1.69,0,0,0-.36,1v0a2.46,2.46,0,0,0,0,.28h0a9.35,9.35,0,0,0,.07,1.64h0c.18,1.51.59,3.09.63,3.51a5.15,5.15,0,0,1-.36,1.93,43.39,43.39,0,0,0,.53,4.51h.8a16.44,16.44,0,0,1-.33-3.32,23.1,23.1,0,0,1,.61-3.48h0c0,.82,0,1.53,0,1.66,0,.33,0,.91,0,1.07s1,2.84,1.47,4.07h.79a18.14,18.14,0,0,1-1.37-4.4,15.63,15.63,0,0,1,1.16-4.58h0a2.81,2.81,0,0,0,.88.18h.25a6.07,6.07,0,0,0,.84-.07h0v.27l-.27,8.59h.62c0-1,.14-2.88.28-3.91.09-.57.43-2,.82-3.51l-.24,7.42h.62c0-1,.14-2.88.29-3.91.17-1.2,1.37-5.75,1.75-7.15l0-.07c0-.11.05-.19.06-.25l0-.06v0h0a3.9,3.9,0,0,0,.13-.76,5.07,5.07,0,0,0-.1-1.57,9.45,9.45,0,0,1,.13-2.24q0-.12.06-.39c.07-.37.2-.92.37-1.57.08-.33.17-.69.27-1.06s.13-.51.2-.77.19-.69.29-1,.25-.93.38-1.39c0-.18.1-.37.16-.55s.09-.33.14-.5h0l0-.12c.11-.37.21-.73.3-1.07h0c0-.09,0-.17.07-.25h0c.09-.29.16-.56.23-.8,0-.08,0-.16.07-.23l0-.17a.85.85,0,0,0,.51.05c.56-.09.37-.7.42-.83s.64-1.36.49-1.62h0A1.29,1.29,0,0,0,66.5,182.66Z"/><path class="cls-6" d="M80.32,132.38s-11-29.45-14.85-29.57-9,17.07-12.89,16.59-4.08-5.91-6.26-6.17-14.76,19.15-14.76,19.15Z"/><path class="cls-7" d="M63.89,107.77c1-.12.53,2.09,1.29,2.09s1.71-2.72,2.46-3c.57-.19.86.46,2.06,1.07-1.68-3-3.2-5.12-4.23-5.15-1.57,0-3.35,2.74-5.17,6,1.38-.1,2.72-1,3.59-1.09Z"/><path class="cls-8" d="M89.25,139.89s-7.33-19.67-9.92-19.75-6,11.4-8.61,11.08-2.72-4-4.18-4.12-9.86,12.79-9.86,12.79Z"/><path class="cls-7" d="M78.27,123.46c.69-.09.36,1.39.87,1.39s1.14-1.81,1.64-2,.58.31,1.37.71c-1.12-2-2.13-3.42-2.82-3.44-1,0-2.24,1.83-3.45,4a19.67,19.67,0,0,0,2.39-.72Z"/><path class="cls-9" d="M113.18,141.71c2.09.95,7.7,4.63,7.7,4.63A81.11,81.11,0,0,1,135,144.2c-.31-.84-.83-2.49-.22-2.49s2.71,1.5,3.9,2.36a52.09,52.09,0,0,1,10.77,1c2.45.52,6,3.71-.08,4.79-5.29,1-14.16,1.07-28.44-1.8h0l-5,2.38s.78-1.56,1.39-3.14S113.18,141.71,113.18,141.71Z"/><path class="cls-9" d="M95.59,159.41c2.1.94,7.7,4.62,7.7,4.62a82.1,82.1,0,0,1,14.07-2.14c-.3-.84-.83-2.48-.22-2.48s2.71,1.49,3.9,2.36a50.75,50.75,0,0,1,10.77,1c2.45.51,6,3.71-.08,4.78-5.29,1-14.16,1.07-28.44-1.8h0l-5,2.38s.78-1.56,1.39-3.14S95.59,159.41,95.59,159.41Z"/><path class="cls-10" d="M219.78,154.51c1-5.48,2.61-12-5.66-12-8.73-.07-9.55,5.75-8.81,9.21,1.09,5.13-3.92,8.53-3.23,14.23.81,6.69,16.7,5.94,18.91,3.23C225.59,163.47,219.29,157.28,219.78,154.51Z"/><rect class="cls-11" x="212.18" y="147.61" width="0.48" height="31.71"/><rect class="cls-11" x="210.26" y="160.34" width="0.48" height="7.17" transform="translate(-55.03 137.96) rotate(-32.32)"/><rect class="cls-11" x="211.13" y="154.18" width="5.65" height="0.48" transform="translate(-31.99 250) rotate(-57.06)"/><path class="cls-10" d="M115,188.76c.9-5,2.41-11-5.21-11.09-8-.06-8.8,5.29-8.12,8.49,1,4.72-3.61,7.85-3,13.1.74,6.17,15.39,5.48,17.42,3C120.38,197,114.57,191.31,115,188.76Z"/><rect class="cls-11" x="108.02" y="182.41" width="0.45" height="29.21"/><rect class="cls-11" x="106.25" y="194.13" width="0.45" height="6.61" transform="translate(-89.07 87.53) rotate(-32.32)"/><rect class="cls-11" x="107.06" y="188.46" width="5.21" height="0.45" transform="translate(-108.31 178.08) rotate(-57.05)"/><path class="cls-10" d="M95.8,210.4c.87-4.88,2.33-10.67-5-10.73-7.77,0-8.5,5.12-7.84,8.21,1,4.57-3.5,7.6-2.88,12.67.72,6,14.88,5.3,16.84,2.88C101,218.38,95.37,212.86,95.8,210.4Z"/><rect class="cls-11" x="89.03" y="204.26" width="0.43" height="28.25"/><rect class="cls-11" x="87.32" y="215.59" width="0.43" height="6.39" transform="translate(-103.42 80.71) rotate(-32.32)"/><rect class="cls-11" x="88.1" y="210.1" width="5.04" height="0.43" transform="translate(-135.16 171.98) rotate(-57.05)"/><path class="cls-10" d="M243,145.33c1-5.48,2.61-12-5.66-12-8.72-.07-9.54,5.75-8.8,9.21,1.09,5.13-3.93,8.53-3.24,14.23.81,6.69,16.71,5.94,18.91,3.23C248.84,154.29,242.53,148.1,243,145.33Z"/><rect class="cls-11" x="235.11" y="138.63" width="0.49" height="31.71"/><rect class="cls-11" x="233.19" y="151.36" width="0.48" height="7.17" transform="translate(-46.68 148.83) rotate(-32.32)"/><rect class="cls-11" x="234.06" y="145.2" width="5.65" height="0.48" transform="matrix(0.54, -0.84, 0.84, 0.54, -13.99, 265.13)"/><path class="cls-10" d="M196.3,141.56c1-5.48,2.61-12-5.65-12-8.73-.07-9.55,5.74-8.81,9.21,1.09,5.13-3.92,8.52-3.24,14.22.81,6.69,16.71,6,18.92,3.24C202.12,150.51,195.81,144.32,196.3,141.56Z"/><rect class="cls-11" x="188.7" y="134.66" width="0.48" height="31.71"/><rect class="cls-11" x="186.79" y="147.39" width="0.48" height="7.17" transform="translate(-51.74 123.4) rotate(-32.32)"/><rect class="cls-11" x="187.66" y="141.22" width="5.65" height="0.48" transform="translate(-31.84 224.35) rotate(-57.05)"/><path class="cls-12" d="M242.58,221.27c.92-1.33,2.09-6.51.35-8s-7.84,2.58-7.67,3.82S241.6,222.69,242.58,221.27Z"/><path class="cls-12" d="M239.81,210.09s-.2-2.75-2.61-2.92-2.15,3-1.07,4.16S240.05,212.31,239.81,210.09Z"/><path class="cls-12" d="M244.62,209.8s1-2.57-1.14-3.74-3.19,1.77-2.71,3.32S243.9,211.92,244.62,209.8Z"/><path class="cls-12" d="M247.17,213.9s2.75-.18,2.93-2.6-2.94-2.16-4.16-1.08S245,214.13,247.17,213.9Z"/><path class="cls-12" d="M247,218.65s2.57,1,3.74-1.14-1.77-3.19-3.33-2.71S244.91,217.94,247,218.65Z"/><path class="cls-12" d="M227.25,202.86c.2-1.61-1.15-6.74-3.41-7.29s-5.76,5.9-5,6.92S227,204.57,227.25,202.86Z"/><path class="cls-12" d="M219.62,194.22s-1.44-2.35-3.66-1.38-.54,3.6,1,4.18S220.86,196.07,219.62,194.22Z"/><path class="cls-12" d="M223.76,191.74S223.44,189,221,189s-2,3-.88,4.2S224.1,194,223.76,191.74Z"/><path class="cls-12" d="M227.91,194.2s2.35-1.43,1.4-3.66-3.61-.56-4.18,1S226.05,195.43,227.91,194.2Z"/><path class="cls-12" d="M230,198.48s2.74-.32,2.79-2.74-3-2-4.2-.87S227.78,198.83,230,198.48Z"/><path class="cls-12" d="M253.88,188.65c.19-1.6-1.15-6.73-3.41-7.29s-5.76,5.91-5,6.93S253.67,190.37,253.88,188.65Z"/><path class="cls-12" d="M246.25,180s-1.44-2.35-3.66-1.39-.54,3.61,1,4.18S247.49,181.87,246.25,180Z"/><path class="cls-12" d="M250.38,177.54s-.31-2.74-2.73-2.8-2,3-.88,4.21S250.73,179.75,250.38,177.54Z"/><path class="cls-12" d="M254.54,180s2.35-1.43,1.4-3.65-3.61-.56-4.19,1S252.68,181.23,254.54,180Z"/><path class="cls-12" d="M256.61,184.28s2.74-.32,2.79-2.74-3-2-4.2-.87S254.41,184.62,256.61,184.28Z"/><path class="cls-13" d="M144.89,228.37c.09-.05,10-7,15.77-6.15s6.36,12.9,6.36,12.9Z"/><path class="cls-13" d="M149.53,247s7.83,5.86,12,4.74,6.71-9.9,6.3-11.14-7.26,0-7.26,0Z"/><path class="cls-5" d="M176,234.26s-6.38,3.19-7.87,2.34-3.54-10.13-13.46-10.21-12.68,4-13.6,6-.63,4.53-4,5.73-4.25,2.91-1.7,3.62,6.37.49,8.5,2.83,11.9,4.39,15.86,2.41,5.53-6.87,8.08-6.31,4.67,6.31,6.87,5.39S179.43,233.9,176,234.26Z"/><path class="cls-14" d="M143,234.54a1.1,1.1,0,1,1,1.56,0A1.1,1.1,0,0,1,143,234.54Z"/><path class="cls-13" d="M177,257.55c.08-.05,9-6.34,14.26-5.57S197,263.65,197,263.65Z"/><path class="cls-13" d="M181.15,274.42s7.09,5.3,10.83,4.29,6.07-8.95,5.71-10.07-6.57,0-6.57,0Z"/><path class="cls-5" d="M205.05,262.87s-5.76,2.88-7.11,2.11-3.2-9.16-12.17-9.22-11.47,3.65-12.3,5.38-.58,4.1-3.59,5.19S166,269,168.34,269.6s5.77.44,7.69,2.56,10.76,4,14.35,2.18,5-6.22,7.31-5.7,4.22,5.7,6.21,4.86S208.19,262.55,205.05,262.87Z"/><path class="cls-14" d="M175.25,263.13a1,1,0,1,1,1.41,0A1,1,0,0,1,175.25,263.13Z"/><path class="cls-15" d="M82.15,116.41s4.6-11.12,15.6-9.88c0,0,16-18.53,33-2.47,0,0,18.09-4,31.49,3.44,8.93,5,11.88,10.15,11.88,10.15Z"/><path class="cls-16" d="M98.08,122.37s3.38-7.58,11.45-6.74c0,0,11.71-12.63,24.2-1.69,0,0,13.28-2.71,23.11,2.35,6.56,3.38,8.72,6.92,8.72,6.92Z"/><path class="cls-15" d="M44.3,260.89s3.4-8.23,11.55-7.32c0,0,11.82-13.72,24.43-1.83,0,0,13.4-2.94,23.33,2.56,6.62,3.66,8.8,7.51,8.8,7.51Z"/><path class="cls-16" d="M75.85,265.31s2.5-5.62,8.47-5c0,0,8.68-9.35,17.93-1.24,0,0,9.84-2,17.12,1.74,4.86,2.5,6.46,5.12,6.46,5.12Z"/><path class="cls-15" d="M142.74,92.93s3-8,10.14-7.12c0,0,10.39-13.36,21.46-1.78,0,0,11.77-2.87,20.48,2.48,5.82,3.57,7.74,7.31,7.74,7.31Z"/><path class="cls-16" d="M170.44,97.22s2.2-5.46,7.45-4.85c0,0,7.62-9.11,15.74-1.22,0,0,8.64-2,15,1.7,4.26,2.43,5.67,5,5.67,5Z"/><path class="cls-17" d="M89.05,74.43a46.74,46.74,0,0,0-26.58-6.8s17.58,1.55,26.16,14.22c0,0,9-9.92,21.28-10.58C109.91,71.27,101.19,68.81,89.05,74.43Z"/><path class="cls-17" d="M56.71,63.87a36.12,36.12,0,0,0-20.52-5.38s13.59,1.28,20.16,11.12c0,0,7-7.64,16.51-8.09C72.86,61.52,66.13,59.58,56.71,63.87Z"/><path class="cls-17" d="M28.07,55.21a33,33,0,0,0-18.88-4.1S21.6,51.75,28,60.44c0,0,6-7.21,14.71-8C42.67,52.45,36.47,51,28.07,55.21Z"/><path class="cls-17" d="M13,44.16A22.22,22.22,0,0,0,0,42.58s8.41-.35,13.25,5.11c0,0,3.62-5.25,9.41-6.32C22.66,41.37,18.38,40.75,13,44.16Z"/><path class="cls-17" d="M75,32.6a22.27,22.27,0,0,0-12.89-2.25s8.42.09,13,5.79c0,0,3.9-5.05,9.73-5.81C84.84,30.33,80.61,29.48,75,32.6Z"/><path class="cls-17" d="M100.49,57.17a32.51,32.51,0,0,0-18.37-5.08s12.19,1.32,18,10.23c0,0,6.35-6.77,14.92-7.06C115,55.26,109,53.43,100.49,57.17Z"/><path class="cls-17" d="M91.2,42.72a30,30,0,0,0-17.15-4.06s11.31.79,17,8.83c0,0,5.63-6.48,13.54-7.05C104.56,40.44,98.93,39,91.2,42.72Z"/></svg>