<svg id="Layer_1" data-name="Layer 1" xmlns="http://www.w3.org/2000/svg" viewBox="0 0 493.75 310.59"><defs><style>.cls-1{opacity:0.15;}.cls-17,.cls-2{opacity:0.07;}.cls-3{opacity:0.08;}.cls-20,.cls-4{opacity:0.47;}.cls-5{fill:#edd6cc;}.cls-6{fill:#ffa412;}.cls-7{fill:#2d231e;}.cls-8{fill:#333232;}.cls-9{fill:#e9c49e;}.cls-10{fill:#b35860;}.cls-11{fill:#3a2f24;}.cls-12{fill:#735f4f;}.cls-13{fill:#54443d;}.cls-14{fill:#249ede;}.cls-15{fill:#8bb72f;}.cls-16{fill:#9ac12a;}.cls-17,.cls-20{fill:#fff;}.cls-18{fill:#bed78f;}.cls-19{fill:#86d1cd;}.cls-21{fill:#8a5b26;}.cls-22{fill:#f4aea6;}.cls-23{fill:#e4dfdf;}.cls-24{fill:#f0ebeb;}.cls-25{fill:#ff8f00;}.cls-26{fill:#666464;}.cls-27{fill:#e8a070;}.cls-28{fill:none;}.cls-29{fill:#459485;}.cls-30{fill:#6cac8d;}.cls-31{fill:#c0e0e9;}.cls-32{fill:#1a1a1a;}.cls-33{fill:#e9c48f;}.cls-34{fill:#2c3a64;}.cls-35{fill:#73615d;}.cls-36{fill:#579f90;}.cls-37{fill:#628076;}</style></defs><g class="cls-1"><path d="M326.28,150.78c-1.49-1.12-2.92-2.31-4.31-3.3a60.49,60.49,0,0,1-9.75-8.25c-1.4-1.53-2.78-3.64-2.1-5.49a3.39,3.39,0,0,1,3.78-1.85,12.55,12.55,0,0,1,4.32,1.93c3.8,2.25,7.75,4.23,11.51,6.53,3.17,1.94,7.19,4,8.39,7.91a5,5,0,0,1-.63,4.43c-1.32,1.72-3.8,2-5.72,1.31A21.44,21.44,0,0,1,326.28,150.78Z"/><path d="M324.93,109.08a3.19,3.19,0,0,0,.26-.26,1.22,1.22,0,0,0,.28-1.36c-.8-1.33-3,1.24-2.52-1.12.12-.64,2.68-3.76,2.47-4.09-1.08-1.72-3.78-2.32-5.21-.6a9.87,9.87,0,0,0-1.7,4.23c-.37,1.72-.41,3.54-.82,5.23a18.59,18.59,0,0,1-1.8,3.94c-2.95,5.78-6.61,12.21-6.24,18.73.12,2,.55,2.81,2.26,3.31s3.59.61,5.07-.71,1.75-3.16,2-4.95c.47-2.7,1.15-5.47,1.45-8.15s-.12-5,.61-7.59a19.11,19.11,0,0,1,3-5.85C324.35,109.56,324.66,109.34,324.93,109.08Z"/><path d="M338,162.28a17.61,17.61,0,0,1-15.18-4.15c1.25-3.92,4.06-6.26,6.18-9.58.69-1.08,1.32-2.21,2-3.33,1-1.86,3.07-7.44,5.79-5.35,1.36,1,2,2.56,3.18,3.72,1.57,1.53,3.75,2.31,5.3,3.95a8.41,8.41,0,0,1,2.51,6.74c-.4,2.82-2.68,5-5.18,6.38A16.37,16.37,0,0,1,338,162.28Z"/><path d="M371.69,121.05a34.46,34.46,0,0,1,.06,3.52c0,1.29-.5,2.56-.24,3.86a13.56,13.56,0,0,0,.94,2.35,8,8,0,0,1-.95,7.72c-.55.75-1.24,1.4-1.72,2.2a12.56,12.56,0,0,0-1.23,4.39,32.25,32.25,0,0,1-1.53,4.2,13.24,13.24,0,0,0-.09,6.53,3.26,3.26,0,0,1,.07,1.52,1.57,1.57,0,0,1-1.64,1c-8.47.26-16.85-.94-25.2-2.13.66.09.7-6,.66-6.52a33.62,33.62,0,0,0-1.4-7.23,10.74,10.74,0,0,1-.76-3.72c.09-1.8,1.22-3.58.68-5.3-.47-1.54-1.83-2.73-1.89-4.43-.05-1.89,1.36-3.77,2.46-5.18a19.05,19.05,0,0,0,2.52-3.66c.53-1.15.54-2.24,1.21-3.33a17.14,17.14,0,0,1,5.62-5.49,10.44,10.44,0,0,1,2.65-1.22,10.65,10.65,0,0,1,3.47-.23,66.67,66.67,0,0,1,7.75,1.31,10.89,10.89,0,0,1,6.75,4.59A11.12,11.12,0,0,1,371.69,121.05Z"/><path d="M340,126.09a2.65,2.65,0,0,1,2.63-1.07,2.38,2.38,0,0,1,1.23.64,23.28,23.28,0,0,1,1.64-4.78,9.61,9.61,0,0,1,1.88-2.85,8.34,8.34,0,0,1,2.52-1.57,14.36,14.36,0,0,1,9.94-.45c4.53,1.47,7,4.33,7.93,8.21a16.8,16.8,0,0,1,.41,4.35v.19a2.78,2.78,0,0,1,1-.12,2.64,2.64,0,0,1,2.25,1.74,3.56,3.56,0,0,1-.28,2.92,5.6,5.6,0,0,1-2.13,2.08,3.5,3.5,0,0,1-1.73.53c-.9,3.54-2.6,6.84-5.71,8.58-2.14,1.2-2.21,1.77-2.53,4.34-.16,1.31-.6,2.77-1.77,3.39a4.32,4.32,0,0,1-2.05.36,19.59,19.59,0,0,1-2.86-.24,3.49,3.49,0,0,1-2-.83c-.79-.82-.69-2.12-.52-3.24.47-3.08.39-2.71-1.71-4.53a12.09,12.09,0,0,1-3.05-4.35,21.6,21.6,0,0,1-1.7-6.86,1.24,1.24,0,0,1-.47.06,3,3,0,0,1-1.92-1,5.52,5.52,0,0,1-1.49-2.58A3.57,3.57,0,0,1,340,126.09Z"/><path d="M349.45,121.19a7.21,7.21,0,0,1-1,1.88c-1.08,1.39-2.64,2.38-3.57,3.88-1.19,1.93-1.12,4.38-.88,6.64a53.37,53.37,0,0,0,1,5.9,4.09,4.09,0,0,1,.21,2.18c-.19.62-.78,1-1,1.59-.88,2.07,1.5,4.77,3.29,5.61a14.79,14.79,0,0,1-7.8,4.3c-1.26.25-2.46-4.58-2.68-5.33a10.16,10.16,0,0,1,.54-7.35c.69-1.4,1.7-2.63,2.46-4a12.9,12.9,0,0,0,1.6-6.68,24.79,24.79,0,0,1-.16-4.21,12.09,12.09,0,0,1,.83-2.81,24,24,0,0,1,4.23-7.64c1.85-2,4.93-4,7.75-3.18a7.65,7.65,0,0,1,4.05,2.64c.63.83,2.44,3.21.3,3.52a21.52,21.52,0,0,1-3.5.06,8.69,8.69,0,0,0-3.44.45A3.72,3.72,0,0,0,349.45,121.19Z"/><path d="M362.06,120c1.59.59,4.26,1.53,4.25,3.5s-1.27,3.76-.87,5.91a11.44,11.44,0,0,0,1.35,3,6,6,0,0,1,.41,5.29c-.83,1.69-2.77,2.66-3.46,4.41s.2,4-.21,6c-.34,1.68-.27,2.7,1.46,3.53a7.11,7.11,0,0,1,2.47,1.6c.18.21,1.28,2.69.64,2.74,1.86-.14,4-.48,4.91-2.14a3.66,3.66,0,0,0,.07-2.94,8.75,8.75,0,0,0-1.63-2.54,5.31,5.31,0,0,1-1-1.43,4,4,0,0,1,.55-3.34,13.25,13.25,0,0,0,1.59-3.11c.85-3.43-2.31-5.61-3.26-8.55-1.41-4.34,2.76-8.94,1.63-13.35a10.41,10.41,0,0,0-2.08-3.69c-1.35-1.71-3-3.41-5.09-3.91-2.73-.64-5.23,1.45-6.7,3.48a15.41,15.41,0,0,0-1.07,1.68c-.56,1-.72,1,.17,1.63,1.49,1,4,1.49,5.69,2.13Z"/><polygon points="357.38 241.5 358.23 255.99 366.52 290.22 372.77 288.68 369.16 254.74 372.94 239.78 357.38 241.5"/><path d="M365.82,289.43a4,4,0,0,1,.07,3c-.51.9-1.66,1.24-2,2.35a2.68,2.68,0,0,0,.08,1.43,2,2,0,0,0,.48,1,2.48,2.48,0,0,0,1.67.5,10.67,10.67,0,0,0,2.77-.13,8.6,8.6,0,0,0,4-2.47c.94-.93,1.95-1.69,1.76-3.2a5.67,5.67,0,0,0-.43-1.3,12.5,12.5,0,0,1-.89-3.46l-7.85,1.25C365.57,288.69,365.7,289.05,365.82,289.43Z"/><polygon points="342.23 242.8 342.28 257.31 348.68 291.95 355 290.75 353.27 256.67 357.86 241.94 342.23 242.8"/><path d="M348,291.13a4,4,0,0,1-.09,3c-.56.87-1.72,1.15-2.09,2.24a2.67,2.67,0,0,0,0,1.43,2.16,2.16,0,0,0,.43,1,2.43,2.43,0,0,0,1.65.58,10.7,10.7,0,0,0,2.77,0,8.63,8.63,0,0,0,4.08-2.25c1-.88,2.05-1.58,1.94-3.1a5.18,5.18,0,0,0-.36-1.32,12.65,12.65,0,0,1-.7-3.5l-7.9.81C347.82,290.37,347.93,290.73,348,291.13Z"/><path d="M363.71,150.24c6.68,32.45,17.15,60.26,30.51,83-3.15.3-5.3,3.72-7.67,6.09a20.7,20.7,0,0,1-7.94,4.77c-12.35,4.3-25.32-.52-37.9,1.45-3.09.48-6.15,1.38-9.26,1.33-6.23-.11-12.23-2.33-18-4.44-.38-.14-5.4-1.73-5.24-2.13L321.1,207.4c2.33-6,4.66-11.91,6.48-18a179.84,179.84,0,0,0,4.63-21.14c1-6.19,1.25-12.52,5.48-17.71a10.48,10.48,0,0,1,6.46-3.81c2.54-.34,5.57.66,8.11,1C353.49,147.9,363.49,148.63,363.71,150.24Z"/><path d="M266.82,147l2.76-3.42.14-2.56,2.29-2.84s1.82,1.11,1.64,1.33a2.28,2.28,0,0,0-.42,1.91,5.12,5.12,0,0,0,2.79-2.35c.29-.59.47-1.34,1.08-1.56s1.34.34,1.8.89a4.77,4.77,0,0,1,1.15,2.17,4.3,4.3,0,0,1-1,3.1c-1.56,2.11-3.6,2.95-5.87,4l-3.37,2.95Z"/><path d="M250.78,155.76c6.17-1.88,12-8.91,16.52-12.5a13.71,13.71,0,0,1,4.2,3.79c1.44,2,1.31,2.15-.06,4a70.56,70.56,0,0,1-7.94,8.46c-6.92,6.64-11.86,13.07-22.65,12.3a46.43,46.43,0,0,1-8.64-1.74l-11.18-3a11.37,11.37,0,0,1-2.74-1c-6.62-3.82.92-14.12,3.6-18.08s3-6,8-3.38c3.87,2,7,5.18,10.24,8a20.3,20.3,0,0,0,2.91,2.24A9.1,9.1,0,0,0,250.78,155.76Z"/><path d="M191.79,281.63c.53,2.11.92,4.24,1.32,6.38,1.6,1,3.18,2,4.8,3,.94-.32,2.37-.53,3.21-.87,1.43-.56,2.14-1.58,1.37-3.05a12.62,12.62,0,0,0-1-1.3c-.57-.8-1.9-2.4-2.81-3.49s-2.27-2.63-3.26-3.79C194.23,279.52,193,280.59,191.79,281.63Z"/><path d="M209.82,281.51c.45,2.16.91,4.33,1.36,6.49,1.61,1,3.2,2,4.83,3,1-.64,2.46-1.42,3.34-2,1.3-.9,1.46-2.07.43-3.1h0c-1-1.27-2-2.4-3-3.62s-2.1-2.51-3.12-3.76Q211.71,280,209.82,281.51Z"/><path d="M220.21,193.81c-14.59-3.11-29.35-5.07-44-8.08-.63,7.79-1.19,3.75-1.66,14.2a215.17,215.17,0,0,0,3.28,42.71,217,217,0,0,0,12.53,40.21c2.68-.53,5.35-1.1,8.07-1.86-2.52-11.85-4.38-26.25-3.5-37.83s1.83-19.66,4.73-30.31c5.93-2.26,11.92-4.56,18-6.44C218.45,202.2,219.26,198,220.21,193.81Z"/><path d="M217.78,206.37c-2.41,12.18-2.12,22.46-2.5,35.11a227.38,227.38,0,0,0,2.38,39.68c-2.81.83-5.38,1.59-8,2.21a331.89,331.89,0,0,1-10.94-42.15c-2.55-13.33-4.35-24.22-3.95-37.32C202.4,204.83,210,205.46,217.78,206.37Z"/><path d="M237,115.87a8.47,8.47,0,0,1,2.51-2.3A3,3,0,0,1,242,113a1.66,1.66,0,0,1,.92,1.58,6.59,6.59,0,0,1-.33,1.78c2.19.46,4.48-.72,6.63-.61a11.51,11.51,0,0,1,3.92,1.22,7,7,0,0,1,2.33,1.38c2.42,2.49,4.2,6.17,4,9.56-.45,6.29-6,12-12,13.67a18.41,18.41,0,0,1-2.65.48l-3.61.48a8,8,0,0,1-4.52-.28c-3.63-1.75-4.74-6.66-9.57-4.83a5.34,5.34,0,0,1-1.66.56,4.12,4.12,0,0,1-2.78-1.27c-.9-.83-2-1.66-1.8-3s1.65-2,2.5-3.1,1.55-2.54,2.51-3.7a47.45,47.45,0,0,1,4.77-5c1.49-1.33,3.67-2.25,5-3.56a2.35,2.35,0,0,0,.43-.92A6.73,6.73,0,0,1,237,115.87Z"/><path d="M250.51,109.14a20.18,20.18,0,0,1,6,2.94,10.71,10.71,0,0,1,3.71,3.9c1.66,3.42,1.15,10.78,5.79,11.81a2.56,2.56,0,0,1,2,3.48c-.16.5-.58.74-.74,1.22s-.32.93.12,1.36,1.14.05,1.71.48a1.33,1.33,0,0,1-.18,2c-.34.27-.86.3-1.15.52s-.27.44-.49.65c-.51.48-.89.84-1.62.76a7.7,7.7,0,0,0-.86-.19,3.79,3.79,0,0,0-1.57.6,5.24,5.24,0,0,1-3.62,0,9.46,9.46,0,0,1-3.17,2.09c-2.12.63-4.37.2-6.55.05a9.86,9.86,0,0,1,1.55-1.4,9.85,9.85,0,0,0,2.67-3.58c.3-.69.5-1.42.83-2.09l-.15-.21a5.28,5.28,0,0,1-.77-1.38,7.23,7.23,0,0,1-.08-2c0-3.2-.25-6.27-1.82-9.1-1.71-3.1-4.2-3.71-7.59-3.72-.8,0-2.31.59-3.05.11-1.11-.74.33-1.69,0-2.5-.81-2.15-2.9-.11-3.77.9-.8.79-1,2-1.71,2.8a18.73,18.73,0,0,1-3.71,2.67c-1.19.83-2.53,1.69-4,1.49-.12,0-.26-.06-.28-.18a.27.27,0,0,1,0-.15c2.49-6.25,5.87-9.59,11.77-12.6,2.31-1.18,4.91-2.39,7.4-1.67C248.37,108.48,249.45,108.79,250.51,109.14Z"/><path d="M222.08,192.3c.55-3.69,1.06-7.42,2-11.06s2.18-7.37,3.39-10.92c1.82-5.35,3.68-11,5.55-16.21,1.69-4.67,2.3-7-.78-11.07-1-1.28-3.81-2.34-4-4.14-.11-.86.79-1.28.16-2.2a10.77,10.77,0,0,0-.87-.92,9.91,9.91,0,0,1-1.5-3.24,9.16,9.16,0,0,0-1.91-3,1.73,1.73,0,0,0-.92-.59,1.93,1.93,0,0,0-.85.12,42.72,42.72,0,0,1-6.77,1.61c-2.12.28-4.3,0-6.4.47a16.83,16.83,0,0,0-6,2.68,39.68,39.68,0,0,0-8.42,7.25,53.6,53.6,0,0,0-6.38,9.12A117.2,117.2,0,0,0,175,186.44c-.43,2.28-1.09,4.54-.63,6.72s2.52,2.34,4.33,3a92.82,92.82,0,0,0,13.05,4,121.86,121.86,0,0,0,26.74,2.37,2.23,2.23,0,0,0,1.41-.33,2.07,2.07,0,0,0,.68-1.34C221.24,198,221.66,195.21,222.08,192.3Z"/><circle cx="268.99" cy="225.21" r="85.37"/><path d="M289.35,142.29c1.52.37,3,.78,4.52,1.24Z"/><path d="M291.82,149.61l1.09.35.33-.24A10.37,10.37,0,0,1,291.82,149.61Z"/><path d="M287.63,153.79c2.63,0,6.56,4.36,8.58,3,2.77-1.86,2.09-3.6,2.84-4.58-2-.84-4.05-1.59-6.14-2.26Z"/><path d="M291.82,149.61c-.83-.25-1.66-.49-2.51-.72A9.59,9.59,0,0,0,291.82,149.61Z"/><path class="cls-2" d="M337.32,185.9A79.59,79.59,0,0,0,323,167.74c-.07-.08-.15-.14-.22-.22-.57-.53-1.14-1.05-1.73-1.56l-.25-.22c-.58-.51-1.17-1-1.77-1.51l-.21-.17c-.62-.51-1.25-1-1.88-1.49l-.14-.11c-.67-.51-1.34-1-2-1.49l-.06-.05c-.71-.51-1.42-1-2.15-1.48h0Q310.3,158,308,156.62h0A78.9,78.9,0,0,0,280.43,147h0c-.58-.08-1.15-.17-1.73-.24l-1-.12-1.13-.13h0q-2.38-.22-4.8-.33h0l-1,0c-.72,0-1.44,0-2.16,0l-1.86,0-.69,0-1.13,0-.89.05-.86.05-1.06.08-.48,0q-3.08.27-6.07.77h0l-1.59.28h0c-.68.13-1.36.26-2,.41h-.08l-1.95.45-.11,0c-.64.15-1.28.32-1.91.49l-.11,0-1.92.54-.07,0c-.66.19-1.31.4-1.95.61h0a79,79,0,0,0-20.18,10h0a79.26,79.26,0,0,0-17.85,113.58,79.3,79.3,0,0,1,16.84-99.42L223,174l1-.86.58-.47.84-.67.64-.5.8-.61.67-.5.8-.59.69-.48.81-.56.69-.47.84-.55.69-.45.87-.54.69-.43.92-.54.65-.38,1.08-.6.52-.3,1.6-.84.49-.25,1.16-.57.66-.31,1-.47.73-.32,1-.43.75-.31,1-.39.76-.3,1-.37.77-.29,1-.35.76-.26,1-.33.74-.24,1.13-.33.66-.2,1.45-.39.36-.1,1.82-.44.56-.12,1.28-.28.72-.14,1.14-.22.78-.14,1.09-.18.81-.12,1.09-.15.82-.11,1.09-.12.82-.09,1.12-.1.81-.06,1.17-.08.76,0,1.3-.05.65,0,2,0h.5a78.87,78.87,0,0,1,33,7.41l.31.14,1.51.74.65.33,1.18.61.66.36,1.39.77.53.31c.5.28,1,.58,1.47.87l.68.42,1,.66.7.45,1.11.75.54.37h0A79.82,79.82,0,0,1,337.32,185.9Z"/><path d="M268.26,147.8h0Z"/><path d="M299,145.26a25.33,25.33,0,0,0-7.25.11,10.33,10.33,0,0,0,2.13-1.84c-1.49-.46-3-.87-4.52-1.24l-.33.11c-2.06.72-2.36.79-2,2.1a16.13,16.13,0,0,1-2.28-1.13h-9.88c6.26,6.92-5.88,6.47-10.31,6.48-.81,0-1-1.62-.54-2a27.78,27.78,0,0,1,4.27,0c4,0,3.53-.32,3.53-4.43-4,3-3.87,0-8.42,0-4.27,0-6.36.23-10.1,1.91l3.65,3.12c-1.53-.35-6.54-2.31-7.91-1.73-.63.27-.8,2-1.58,2-3.18,0-11.84,1.74-11.84-1.91,0,0-.05,0-.15,0A85.52,85.52,0,0,0,213.92,160a51.07,51.07,0,0,1,9.28-.44c.38,0,3,6.75,3,7.27.14,2.94-1.87,4.11-3.35,6.91a35.15,35.15,0,0,0-3.61,17.49c0,.21,3.42,3.27,3.42,4.48,0,5.08.53,5.16,4,8.9v-6.23c2.08,5.46,4.59,7.56,6.47,12.9,2.13,6.05,10.56,1.4,13.42,5.39,1.27,1.76,3.62.95,4.74,2.67l3,4.65c1.84,2.8,4.08,1.83,7.36,1.83s-2.87,10.9-2.87,11.82c0,3.78,5.16,12.38,5.13,13.89-.1,4.49,5.5,5.12,8.55,7.88,2.43,2.23.7,8.54.62,11.34a17.89,17.89,0,0,0,1.16,6.52h0c.66,1.87,1.5,3.67,2.26,5.53.13.32.26.65.38,1,.06.14.11.29.16.43s.2.55.29.83l.15.46c.09.29.18.58.26.88,0,.14.07.28.11.42.11.43.2.87.28,1.32.4,2.3-.48,4.77,0,7s2.47,3.67,2.44,6.17c-.05,3.86,10.8,4.58,12.91,4.58,0,0-7.93-4.1-7.93-3.61,0-3.67,1.89-3.41,1.89-5.64,0-2.66-2.41-4.84-.9-8.6,1.62-4.06,1.44-3.94,5.84-3.94a26.43,26.43,0,0,0-.85-5.51c3.93-6.12,13.07-12,15.5-13.67,3.28-2.25,1.44-8.32,2.87-11.55,1.25-2.84,5-5.46,5.22-9a4.42,4.42,0,0,0,0-.52.5.5,0,0,0,0-.12,2.2,2.2,0,0,0-.06-.37s0-.06,0-.09l-.12-.35,0,0a2,2,0,0,0-.19-.36h0c-.76-1.12-2.34-1.44-3.72-1.39-1.94.06-2.13-3.19-3.6-3.19-4.09,0-8.33-.69-11.87-3.31-.58-.44-1.24-5.65-2.24-6.94-1.43-1.85-6,1.4-7.8-1.12-.67-.95-2.27-4.68-3.35-4.68-1.48,0-9.64-1.59-11.36,0,.27-.23-2.78-1.16-3.21-1.16.18,0-10.48,5.53-10.48,2.66,0-3.72,1.81-8.53-2.6-8.53-7.09,0-1.06-1.84-1.06-5.09,0-4.17-6.87,1.14-10.49,1.14.1,0-4.07-6.83-2.07-6.83,1.43,0,1.66-2.93,2.72-4.17,2.8-3.28,7.59-3.62,11-3,1.37.25,6.31,6,6.32,7.16,0-.28,2-1.57,2.29-2,1-1.49.42-2.14.67-3.63.81-5,1-6,5-9.07,2.94-2.25,7.06-4.82,9.37-7.72a15.47,15.47,0,0,1,6-4.63c-.26.13,2.43,1.64,3,1.64,2.31,0,2.87-2,4.14-3.71h-4c4.54-3.47-3.68-5.27,5.42-5.27,4.47,0,4.89.06,7.62-3.12-4.35,0-3.29,0-3.29-4.45,0-.74-1.23-3.45-2.4-2.29-3.21,3.15-3.09-.58-4.5-2.68-1.81-2.71-3.77.08-4.53,1.73-.94,2-8.65,5.22-8.64,7.88,0,1.56-2.54,1.5-2.49-.24.07-2.61-8.95-5.1-9.1-6.12-.19-1.34,4.47-5,8.52-5,1.86,0,.95-2.16,1.52-2.16,3.87,0,8.42-1.2,10.53-4.31-.53,0-5.48,0-5.48,0,0-1.77-.76-2.85,1.27-2.85,4.76,0,6.17,3.72,11.4,3.72l-5.61,4.07c2.63,0,6.56,4.36,8.58,3,3.72-2.5,1.21-4.78,4.31-5.3a3.65,3.65,0,0,0,1.52.95c1,.34,4.45,1,5,1.85.72,1.07,2.53,7.38,1.2,7.93-2.16.89-8.5,7.76-3.65,9.47,3.74,1.33,4.7-.34,8-2.43,3.1-1.94,3.94-1.23,7.43,0a21.74,21.74,0,0,1,5,.35c2.94,1,2.72-.82,3-.71a8.1,8.1,0,0,0,5.14.08A85.48,85.48,0,0,0,299,145.26Z"/><path d="M263.56,204.7l-1.73,1.74c5.38,0,8.65,1.73,13.42,1.73C272.05,203.15,269.54,204.7,263.56,204.7Z"/><path d="M281.31,209.05c-4.32-.14-4.52.52-7.17,3.47H281C282.94,212.54,282.67,209.09,281.31,209.05Z"/><path d="M287.43,213.54c0-6-6.16,0,0,0Z"/><g class="cls-3"><path d="M313.66,152.35A85.39,85.39,0,0,1,197.05,271.1,85.38,85.38,0,1,0,313.66,152.35Z"/></g><path d="M331.45,3s-33.9,37.55-33.9,68.86,23.45,38.76,33.9,38.76,33.89-7.44,33.89-38.76S331.45,3,331.45,3Z"/><path class="cls-4" d="M309.81,84.21v-.07a21.71,21.71,0,0,1-.83-4.38q-.08-3.44.15-6.85a99.48,99.48,0,0,1,1.95-14,152.35,152.35,0,0,1,8.76-27.51q2.51-6,5.39-11.82,1.36-2.74,2.79-5.46c.25-.47,3-5,2.82-5.14l-.09-.09s-30.54,37.64-29,67.61a56.25,56.25,0,0,0,.61,5.79c.14.92.32,1.83.51,2.74a7.24,7.24,0,0,0,.48,2.27,4.23,4.23,0,0,0,3.35,2.06A2.47,2.47,0,0,0,309.44,88,6.6,6.6,0,0,0,309.81,84.21Z"/><path class="cls-4" d="M314.18,92.62a3.23,3.23,0,0,0-2.2-.92,3.32,3.32,0,0,0-1.84.61,3.17,3.17,0,0,0-1.5,3.53,3.3,3.3,0,1,0,5.54-3.22Z"/><path d="M345.52,179.36c-1.83.29-3.69.48-5.36.8a61,61,0,0,1-12.72,1.23c-2.07-.06-4.54-.54-5.39-2.32a3.37,3.37,0,0,1,1.3-4,12.82,12.82,0,0,1,4.4-1.76c4.26-1.15,8.43-2.59,12.71-3.69,3.59-.92,7.88-2.36,11.52-.5a5,5,0,0,1,2.73,3.54c.31,2.15-1.23,4.11-3,5A21.15,21.15,0,0,1,345.52,179.36Z"/><path d="M314.7,151.26c0-.13,0-.25,0-.37a1.24,1.24,0,0,0-.78-1.15c-1.52-.36-1.2,3-2.56,1-.38-.54-.83-4.54-1.22-4.62-2-.43-4.29,1.09-4.06,3.31a9.73,9.73,0,0,0,1.86,4.17c1,1.46,2.24,2.76,3.17,4.24a18.12,18.12,0,0,1,1.56,4c2.09,6.15,4.15,13.25,9.09,17.53,1.51,1.31,2.4,1.57,3.94.69s2.94-2.15,3-4.12c.08-1.82-1.05-3.47-2.12-4.93-1.61-2.22-3.11-4.64-4.83-6.72s-3.71-3.43-5-5.73a19.4,19.4,0,0,1-2.09-6.24A10.48,10.48,0,0,1,314.7,151.26Z"/><path d="M362,179a17.54,17.54,0,0,1-13.55,8c-1.94-3.62-1.66-7.27-2.56-11.1-.3-1.25-.67-2.49-1-3.72-.61-2-3.19-7.39.2-7.88,1.7-.25,3.24.35,4.89.31,2.19-.06,4.27-1.08,6.52-1a8.45,8.45,0,0,1,6.59,2.89c1.74,2.25,1.73,5.43,1,8.16A16.36,16.36,0,0,1,362,179Z"/><path d="M218.79,188.6l3.09,3.12,2.52.41,2.58,2.59s-1.3,1.69-1.5,1.49a2.54,2.54,0,0,0-1.88-.65,7.78,7.78,0,0,0,1.59,3.2c.63.82,1.84,1.75.32,2.48a2.69,2.69,0,0,1-1.32.21,5.41,5.41,0,0,1-3.12-1.22,8.27,8.27,0,0,0-2.11-1.65,1.14,1.14,0,0,1-.4-.19,9.59,9.59,0,0,1-.65-2.08,6.16,6.16,0,0,0-.53-1.51l-2.56-3.67Z"/><path d="M211.62,171.68c1.95,6.39,8.48,14.61,10.5,17.81a13.8,13.8,0,0,1-4.22,3.76c-2.13,1.22-2.29,1.07-4-.48A72.08,72.08,0,0,1,206.4,184c-5.84-7.61-11.69-13.22-9.75-23.87a47,47,0,0,1,2.67-8.39q2.12-5.38,4.21-10.78c1-2.46,1.9-2.81,4.56-2.91,4.14-.16,8.89.16,11.48,3.41a9.18,9.18,0,0,1,1.56,7.18,21.89,21.89,0,0,1-2.79,7C215.43,160.7,209.67,165.33,211.62,171.68Z"/><path d="M79.49,118.67a1.49,1.49,0,0,0-.24.32c-.55,1.1-.17,2-.39,3.21-.1.53-1.4,1.07-.57,1.85.3.29,1.15.89,1.81,1.5A8.07,8.07,0,0,1,82,129.61c1.14,5.71.68,11.58,0,17.37a2,2,0,0,1-.26,1,2.21,2.21,0,0,1-1.58.71,45.11,45.11,0,0,0-8,2,16.63,16.63,0,0,0-6.36,3.62A7.47,7.47,0,0,0,63.6,161,5.84,5.84,0,0,0,67,165c4.23,1.72,8.94-3,12.18-5.21A79.08,79.08,0,0,0,87.94,153,2.58,2.58,0,0,0,89,150.48a174,174,0,0,0-1.14-18.79c-.18-1.72-1.24-3.13-1.39-4.72-.09-1,.56-1.89.68-2.87a9.69,9.69,0,0,0-.21-3.22c-.49-1.86-2.33-2.59-3.88-3.4a2.12,2.12,0,0,0-1.06-.33,2.94,2.94,0,0,0-1.68.78A5.51,5.51,0,0,0,79.49,118.67Z"/><path d="M80.6,162.76a53,53,0,0,0,8.58-8.15,6.58,6.58,0,0,0,1.41-2.42,7.34,7.34,0,0,0,.1-2.34q-.45-6.81-.91-13.62c0-.42.06-1.84-.31-2.09-.19-.12-1,.09-1.19.11-.44,0-.87,0-1.3,0a19.51,19.51,0,0,0-5.18.23.46.46,0,0,0-.27.15.44.44,0,0,0-.09.27,75.3,75.3,0,0,1-1.65,9.89,4.61,4.61,0,0,1-.94,2.13,8.4,8.4,0,0,1-2.35,1.25A31.63,31.63,0,0,1,71.75,150c-3.32,1-6.75,1.63-10.14,2.37a19.17,19.17,0,0,0-4.27,1c-3.68,1-7.48,2.15-10.38,4.63-6.21,5.31-2.86,15.51,5.58,15.38a44.65,44.65,0,0,0,20.57-5.71A60.84,60.84,0,0,0,80.6,162.76Z"/><polygon points="59.12 290.37 52.99 290.56 52.45 261.73 51.38 242.31 65.8 242.31 63.88 262.21 59.12 290.37"/><path d="M60.34,289.62a5.8,5.8,0,0,0-.53,2.95c0,1.12.07,2.25.11,3.38a4.42,4.42,0,0,0,.37,2,8.49,8.49,0,0,0,1.09,1.32,1.92,1.92,0,0,1,.56,1.55,1.6,1.6,0,0,1-1.2,1.13A4.73,4.73,0,0,1,59,302L57,301.78a2,2,0,0,1-1.64-.73,2.46,2.46,0,0,1-.2-1c-.21-2.7-3.42-4.34-3.35-6.78a5.26,5.26,0,0,1,.31-1.39,13.27,13.27,0,0,0,.56-3.7c2.59.15,5.87-.15,8.31.55A5.22,5.22,0,0,0,60.34,289.62Z"/><polygon points="34.07 288.79 28.06 287.56 34.65 259.93 35.36 240.68 51.61 243.55 45.8 263.02 34.07 288.79"/><path d="M35.43,288.33a5.84,5.84,0,0,0-1.19,2.75c-.22,1.11-.45,2.21-.68,3.32a4.7,4.7,0,0,0-.1,2,8.39,8.39,0,0,0,.76,1.53,1.94,1.94,0,0,1,.19,1.65,1.61,1.61,0,0,1-1.42.82,4.86,4.86,0,0,1-1.68-.36l-2-.69c-.58-.21-1.25-.49-1.42-1.08a2.29,2.29,0,0,1,0-1c.41-2.67-2.33-5-1.71-7.36a5.22,5.22,0,0,1,.62-1.28,13.36,13.36,0,0,0,1.4-3.47c2.49.73,5.75,1.19,8,2.44A5.1,5.1,0,0,0,35.43,288.33Z"/><path d="M62.17,152.05c3,3.08,3.59,8.7,5,12.85,1.73,4.93,3.45,9.86,4.92,14.87.75,2.55,1.43,5.12,2,7.72.48,2.16.38,4.33.66,6.54,1.37,10.89,2.7,21.79,3.55,32.73.34,4.48.61,9,.76,13.47.07,2.17.09,4.46-1,6.34a75.09,75.09,0,0,0-11.51.39,178.25,178.25,0,0,1-32,0c-1.23-.12-13.88-1.56-13.85-2.3.66-18.43.25-36.7,2.8-55.07,1.36-9.8,2.16-20.41,7.21-28.91,2.49-4.19,7-7.4,11.44-9.45,4.91-2.27,10.49-2,15.72-1.29A7,7,0,0,1,62.17,152.05Z"/><path d="M51.23,171.54a10.37,10.37,0,0,0,4.14.46c.11,0,.27-8.3.29-9.07.05-1.56-.17-3.53,1.3-4.53s4.55-1.22,4-4a3.67,3.67,0,0,0-2.5-2.54,10.85,10.85,0,0,0-3.69-.39c-1.59,0-3.19,0-4.79.11-3.18.13-6.45.47-9.27,1.95-2.26,1.19-2.19,4-1.07,6a3.78,3.78,0,0,0,.9,1.16,5.1,5.1,0,0,0,3.87.71,12.7,12.7,0,0,0,3.29-1.79c.75-.42,2.37-.95,3-.12.48.6.16,2.44.19,3.14C50.94,163.56,50.75,171.38,51.23,171.54Z"/><path d="M53.51,162.84c.05-.42.12-2.41-.61-2.36a.54.54,0,0,0-.41.32,5.31,5.31,0,0,0-.22,1.69,1.51,1.51,0,0,0,.12.76.6.6,0,0,0,.64.34C53.34,163.51,53.46,163.15,53.51,162.84Z"/><path d="M53.51,168.58c.05-.42.12-2.41-.61-2.36a.54.54,0,0,0-.41.32,5.31,5.31,0,0,0-.22,1.69,1.51,1.51,0,0,0,.12.76.6.6,0,0,0,.64.34C53.34,169.25,53.46,168.89,53.51,168.58Z"/><path d="M69.08,127.66c.76.19,1.66,2.47,1.86,3.3a7.56,7.56,0,0,0,.73,2.52A3.47,3.47,0,0,0,72,131c-.09-.5-.52-.74-.67-1.25a11.48,11.48,0,0,1-.12-2,1.88,1.88,0,0,0-.29-1,1.84,1.84,0,0,0-.67-.51,3.88,3.88,0,0,1-1.46-1.82,3,3,0,0,0-.35-.75.91.91,0,0,0-.37-.28,2.17,2.17,0,0,0-.24-.29c-.57-.55-1.46-.62-1.78-1.42a3.49,3.49,0,0,1-.08-1.48c.31-6-4.69-5.81-7.75-6.7s-4.69-2.33-7,1.42-1,5.85.39,9.28c1.1,2.76.6,4.7,1.12,7.66.41,2.3,1.71,4.25,2.19,6.53.42,2,.24,4.2.71,6.22s2,4,3.61,3.51c-.24,1.54.71,3.23,1.95,3.49s2.53-1,2.64-2.53c1,.23,2.45.19,2.71-1.08a8.9,8.9,0,0,0,0-1.37c.13-1.93,2.1-2.5,3.65-2.59a6,6,0,0,1,1.5-5.86c-.56-.25-.72-1.16-.62-1.87a12,12,0,0,0,.35-2.13c-.06-2.06-2.27-3-2.85-5a5.51,5.51,0,0,1-.17-1.64A5.09,5.09,0,0,1,69.08,127.66Z"/><path d="M30.5,122.77a2.71,2.71,0,0,1,.13,1.48c-.31.83-1.49,1-2.16,1.61-1.63,1.47.46,4.12,0,6.2s-3.27,3.2-3,5.26a10.13,10.13,0,0,0,.81,2.09,1.51,1.51,0,0,1-.53,1.94A5.38,5.38,0,0,1,28.65,147c2.09-.08,4.83.29,5.3,2.2a7,7,0,0,0,.26,1.36c.55,1.25,2.45,1.13,3.81.79A3.41,3.41,0,0,0,42,153.64a2.9,2.9,0,0,0,2.06-3.7c2.24.32,4-1.83,4.28-3.9s-.28-4.21,0-6.29c.27-2.34,1.7-4.43,1.88-6.77.23-3-.75-4.89.28-7.77,1.29-3.58,2.67-5.93-1-9.31a6.78,6.78,0,0,0-4.09-2.09c-.6,0-1.18.14-1.76.08-.94-.09-1.76-.8-2.68-.15-.24.17-.42.42-.64.61-.84.71-2.16.57-3.3.39a2.37,2.37,0,0,0-1.27,0c-1.1.42-1,2.2-2.11,2.57-1.37.45-2,.51-2.78,1.85A4.9,4.9,0,0,0,30.5,122.77Z"/><path d="M61.1,133.72c0-.05,0-.1-.05-.14-.58-1.8-.51-3.74-.83-5.6-.91-5.35-7.09-6.49-11.74-5.37-6.33,1.52-8,6.2-8.38,12,0,.72-.29,1.66-1,1.7-.36,0-.69-.22-1-.28-.92-.16-1.62.86-1.74,1.78a4,4,0,0,0,1,3.22c.78.84,1.57.74,2.52,1.12,1.5.61.63-.16,1.46,1.27,1,1.83,1.84,3.53,3.68,4.75s1.87,1.75,2,4.09a3.85,3.85,0,0,0,1.37,3.19,3.94,3.94,0,0,0,1.82.47,17.35,17.35,0,0,0,2.6,0,3.12,3.12,0,0,0,1.87-.6,3.44,3.44,0,0,0,.69-2.9c-.2-2.81-.16-2.47,1.87-4,2.82-2.08,6.28-6.59,5.68-10.29C62.54,136.61,61.61,135.23,61.1,133.72Z"/><path d="M39.53,133.16c-.7.53-1.6.9-1.83,1.7a10.36,10.36,0,0,0-.05,1.48A2,2,0,0,1,36.1,138c-1.5.32-2.66-.95-3.31-2a5.86,5.86,0,0,0-5-2.69,30.36,30.36,0,0,0-3.14.43c-2,.22-4.77-.59-5.66-2.4a1.72,1.72,0,0,1-.22-.72.57.57,0,0,1,.41-.57c.32-.08.63.15.93.3a4.33,4.33,0,0,0,3.38-.54c.8-.62.45-1.82.32-2.8a5.15,5.15,0,0,1,4.28-5.48c.84-.15,1.71-.11,2.54-.28,1.92-.4,3.31-1.84,4.83-3s3.68-2,5.43-1.08c.51.26.94.65,1.47.86,2,.78,3.7-.14,5.67.83s4.56,3,4.42,5.1c0-.64-1-.91-1.59-.7s-1.25.66-1.94.57c-.9-.13-1.48-1.14-2.39-1.22a1.93,1.93,0,0,0-1.69,1.17,4.27,4.27,0,0,1-1.21,1.71c-.83.54-2.07.32-2.88.88s-.85,2-.59,3,.58,2.28-.06,3.18A2.45,2.45,0,0,1,39.53,133.16Z"/><path d="M59.62,125.14c1.44.29,2,2.07,2,3.54a2.32,2.32,0,0,0,.35,1.75,3.07,3.07,0,0,0,.85.48,3.07,3.07,0,0,1,1.45,3.64,2.92,2.92,0,0,0,1-3.66c-.21-.42-.52-.78-.74-1.19-.67-1.28-.38-2.82-.46-4.26a2.77,2.77,0,0,0-.53-1.64,4.26,4.26,0,0,0-1.37-.87,6.64,6.64,0,0,1-2.9-3.07,4.73,4.73,0,0,0-.68-1.25,3.11,3.11,0,0,0-2.12-.73,2.23,2.23,0,0,0-1.88.47,8.69,8.69,0,0,1-.55.76c-1.36,1.27-3-.39-2.75,2.38.15,1.73.27,1.47,1.69,1.46s2.24-.94,3.57.17c.63.53.4,1.37,1.15,1.82C58.21,125.25,59.06,125,59.62,125.14Z"/><path d="M91.6,151.18c.08-.46.28-1,.74-1.07s.8.72.83,1.3a4,4,0,0,0,1.57-4.59,3.05,3.05,0,0,1,3.72.43,4.83,4.83,0,0,1,1.35,3.7c0,2-1.32,3.87-2.56,5.38-.93,1.13-1.86,2.27-2.71,3.46-.24.34-.75,1.57-1.11,1.71-.84.33-3.28-1.45-4-1.9a.32.32,0,0,1-.14-.14c0-.13.06-.25.16-.35a4.6,4.6,0,0,0,1.39-2.18,11.78,11.78,0,0,0,0-2.59C90.93,153.31,91.42,152.21,91.6,151.18Z"/><path d="M82,174.22c5.11-3.92,10.19-8.09,13.33-13.69a1.43,1.43,0,0,0,.25-.88,1.41,1.41,0,0,0-.5-.75q-3-2.85-6.24-5.42c.19.15-8.07,7.48-9.35,8.12a36.51,36.51,0,0,1-13.07,3.87c-6,.56-11.88-.41-17.82-.67-4.11-.18-9.53-.71-11.57,3.81a9.36,9.36,0,0,0,.27,7.49c2.78,6.29,10.35,9.33,17.21,8.9,5-.31,9.7-2.08,14.19-4.15,4.08-1.88,8.36-2.86,12-5.6Z"/><path d="M102,55.75a36.05,36.05,0,0,1,1,11.54,35.41,35.41,0,0,1-4.6,14.5A37.82,37.82,0,0,1,73.91,99.62a31.74,31.74,0,0,1-8,.59A36,36,0,0,1,38.14,42.88,36,36,0,0,1,97.59,45.1,36.6,36.6,0,0,1,102,55.75Z"/><path d="M48,31.14A79.59,79.59,0,0,1,67.3,26.36a.72.72,0,0,0,.51-1.15L52.22,3.81a.73.73,0,0,0-1.31.32L47,30.35A.72.72,0,0,0,48,31.14Z"/><path d="M71.11,26.42A80.2,80.2,0,0,1,89.84,33.1a.72.72,0,0,0,1.06-.67L89.73,6a.73.73,0,0,0-1.27-.46L70.73,25.23A.72.72,0,0,0,71.11,26.42Z"/><path d="M93.45,35.78A80.2,80.2,0,0,1,104.2,52.51a.73.73,0,0,0,1.26.11L120.68,31a.73.73,0,0,0-.73-1.14L93.88,34.6A.72.72,0,0,0,93.45,35.78Z"/><path d="M104.77,56.81a80.11,80.11,0,0,1-.46,19.89.73.73,0,0,0,1,.79L130,68.06a.72.72,0,0,0,0-1.34L105.78,56.08A.72.72,0,0,0,104.77,56.81Z"/><path d="M101.22,81.87A79.53,79.53,0,0,1,87.77,96.52.73.73,0,0,0,88,97.76L112.8,107a.72.72,0,0,0,.91-1L102.47,82A.73.73,0,0,0,101.22,81.87Z"/><path d="M44,33.18A79.82,79.82,0,0,0,32.53,49.42a.73.73,0,0,1-1.26.06L17,27.17a.73.73,0,0,1,.78-1.1L43.63,32A.73.73,0,0,1,44,33.18Z"/><path d="M30.61,53.1a79.73,79.73,0,0,0-1.4,19.84.72.72,0,0,1-1,.7L4.41,62a.72.72,0,0,1,.09-1.34l25.16-8.34A.73.73,0,0,1,30.61,53.1Z"/><path d="M30,76.9A80.16,80.16,0,0,0,41.25,93.29a.72.72,0,0,1-.38,1.2L15,100.15A.73.73,0,0,1,14.24,99l14.49-22.2A.73.73,0,0,1,30,76.9Z"/><path d="M44.37,95.85a80.07,80.07,0,0,0,18.71,6.74.73.73,0,0,1,.39,1.2L45.75,123.47a.72.72,0,0,1-1.26-.46L43.32,96.53A.72.72,0,0,1,44.37,95.85Z"/><path d="M85.52,98.1a79.71,79.71,0,0,1-19.29,4.84.72.72,0,0,0-.51,1.15l15.65,21.36a.73.73,0,0,0,1.31-.33L86.5,98.89A.73.73,0,0,0,85.52,98.1Z"/><polygon points="419.36 234.48 419.36 294.35 428.39 294.35 434.04 258.2 439.13 230.53 419.36 234.48"/><polygon points="419.36 294.35 414.28 299.43 416.54 302.82 426.7 299.43 426.7 294.35 419.36 294.35"/><polygon points="454.83 295.36 452.95 302.79 446.74 305.05 443.35 303.36 448.61 294.97 454.83 295.36"/><polygon points="439.13 228.27 442.51 254.25 447.03 296.04 456.07 295.48 456.07 263.29 460.59 230.53 439.13 228.27"/><path d="M435.19,146.67c-9.2,2.11-15.39,9.57-17.06,19.69-1.87,11.34-4.68,22.61-6.74,34-2.32,12.77-3.71,25.62-4.92,38.52q17.19,1.56,34.45,1.79c8.91.12,17.95,0,26.49-2.73-1.73-7.35-1.08-14.87-1.18-22.37-.09-6.72-.39-13.45-1-20.15-.87-9.3-1.66-18.64-3.6-27.79-.94-4.42-2-9.13-4-13.21-1.54-3.14-6.13-5.23-9.21-7C446,146,443,146,440.2,146.07A23.86,23.86,0,0,0,435.19,146.67Z"/><path d="M426.42,124.48c1.47-13,17.57-11.92,22.9-1.92a19.19,19.19,0,0,1,1.6,12.73,10.41,10.41,0,0,1-2.89,5.43c-.68.61-2.07.93-2.6,1.55-.88,1-.52,3.14-.34,4.41-1.62,1.15-3.78,1-5.74.78a1.3,1.3,0,0,1-.75-.25,1.23,1.23,0,0,1-.31-.56c-.5-1.52-.34-1.93-1.73-2.53s-2.69-.65-4-1.46a13.3,13.3,0,0,1-5.19-6.58A24.74,24.74,0,0,1,426.42,124.48Z"/><path d="M433.52,118.25s10.47-1.66,12.15,2.28c2.53,5.93,4.62,9.74,5.72,13.43l5-6.82-.76-12.72s-4.65-8.74-10.06-8.3-15.93,3.06-15.93,3.06l-6.49,5.56-5.69,2,9,15.76S423.83,119.58,433.52,118.25Z"/><path d="M470.82,78.24a4.05,4.05,0,0,0-.41-1.14c-.2-.39-.82-1.53-1.63-3Z"/><path d="M440.11,38l7.7,2.29,9.94,3,7.69,2.29a4.82,4.82,0,0,0,6.11-3.69l1.77-8,2.29-10.33,1.77-8c.63-2.84-1.16-3.78-4-2.08l-4.82,2.91c-1.77-3.09-3.54-6.15-4.22-7.28C462.8,6.51,459.81,4.56,454,4.6l-23.25.13,9.71,17.44a3.65,3.65,0,0,1,.6.88c.46,1,2.22,4.25,4,7.51l-4.72,2.85C437.45,35.1,437.38,37.16,440.11,38Z"/><path d="M413.21,10.54c-2.49,3.88-8.82,14.19-8.82,14.19A4.88,4.88,0,0,0,406,31.45l15.51,9.3a4.89,4.89,0,0,0,6.7-1.72L437.76,23c.83-1.41,1.84-1.62,2.65-.79L430.7,4.73l-5.6,0C421.07,4.79,416.45,5.51,413.21,10.54Z"/><path d="M385.79,75.72c1.74,3.47,6.58,12.4,10.12,18.94l11-18.38c1.29-2.26,3.69-6.46,5.7-9.93l5.62,3.2c2.86,1.62,4.62.64,3.93-2.18l-2-8c-.7-2.82-1.84-7.44-2.54-10.27l-2-7.94a4.8,4.8,0,0,0-6.2-3.53l-7.63,2.49L392,43.38l-7.63,2.49c-2.71.88-2.6,2.93.26,4.55l4.14,2.36c-2.11,4.19-4.61,9.14-5.24,10.56C382.37,65.91,383.07,70.33,385.79,75.72Z"/><path d="M406.9,76.28l-11,18.38c2,3.64,3.55,6.54,4,7.35,1.16,2.26,2.82,6.67,13.3,6.61l15.25-.09a4.92,4.92,0,0,0,4.82-5l-.1-18.41a4.92,4.92,0,0,0-4.88-4.93l-20.82.12c-1.88,0-2.12-1.26-1.46-2.45Z"/><path d="M470.82,78.24l9.09,18.56c3.18-6,8.57-16.4,10.78-20.9,2.95-6,3.78-11.24,2.42-14S485,45.83,485,45.83A4.39,4.39,0,0,0,478.67,44l-15.4,9.69a5.32,5.32,0,0,0-1.77,6.94s4.68,8.61,7.28,13.43c.81,1.49,1.43,2.63,1.63,3A4.05,4.05,0,0,1,470.82,78.24Z"/><path d="M477.66,101c.36-.62,1.18-2.14,2.25-4.16l-9.09-18.56c.2,1.08-.34,1.81-1.64,1.82l-9.4.06,0-5.76c0-3.34-1.73-4.43-3.79-2.41l-5.78,5.67L442.68,85l-5.78,5.67a5,5,0,0,0,.06,7.26l5.88,5.56,7.61,7.19,5.88,5.57c2.09,2,3.78.86,3.75-2.48l-.05-5.47,7.19,0C473.76,108.16,476.23,103.43,477.66,101Z"/><path d="M407.73,117.18l1.34-4.19,2.06-1.52c.36-1.11,1.88-3.83.2-4.33-1.31-.39-1.49,1-2.58,1.17s-3-.57-4.06-.91a1.88,1.88,0,0,0-1.16-.12c-1.11.39-.18,2.68-.08,3.42a6.68,6.68,0,0,1,.21,1.59l-.61,4.43Z"/><path d="M409.41,135.3c-2.86-5.17.43-15.46.88-20.43a13.67,13.67,0,0,0-5.47-1.44c-2.44-.11-2.52.09-3.3,2.24a71.24,71.24,0,0,0-2.7,11.28c-1.75,9.43-4.41,17.09,2.16,25.69a47.54,47.54,0,0,0,6.19,6.26c2.47,2.19,4.93,4.41,7.41,6.6,1.07.94,3,3.38,4.41,3.47a3.19,3.19,0,0,0,2-.9c7-5.35,14.37-11.37,16.41-19.91a1.37,1.37,0,0,0-.08-1.14,1.39,1.39,0,0,0-1.05-.4,52,52,0,0,1-25.19-9.42A5.64,5.64,0,0,1,409.41,135.3Z"/><path d="M476.45,107.6a7.18,7.18,0,0,0-.14,1.59l.83,4.4-4.66.68-1.54-4.11-2.12-1.42-.89-2.37c-.22-.59-.39-.75-.06-1.18a2.38,2.38,0,0,1,1.88-.61c.4.16.59.6.79,1a2.11,2.11,0,0,0,1,1.09,2.32,2.32,0,0,0,1.75-.26,7.57,7.57,0,0,0,2.84-2.19c.07-.1.17-.22.29-.2s.15.09.2.17C477.4,105.35,476.55,106.39,476.45,107.6Z"/><path d="M470.59,131.9a14.67,14.67,0,0,0,1.4-4.19c.81-4.92-1.49-10.69-2.17-15.62a13.67,13.67,0,0,1,5.39-1.7c2.44-.23,2.52,0,3.41,2.07a71.74,71.74,0,0,1,3.24,11.14c2.2,9.34,5.23,16.86-.92,25.76a46.26,46.26,0,0,1-5.88,6.56c-5.22,5.07-9.54,10.2-15.32,14.65a4.65,4.65,0,0,1-2.82,1.27c-1.78-.07-2.78-2-3.41-3.67q-2.25-5.89-4.49-11.81c-.9-2.36-1.8-4.73-2.56-7.14a1.66,1.66,0,0,1,1-2.53c4.82-2.12,10.21-2.92,14.71-5.65A23.65,23.65,0,0,0,470.59,131.9Z"/><path d="M143.35,148.24c-1.86-.75-3.47-1.47-5.44-1.33a10.66,10.66,0,0,0-6.84,2.93,35.21,35.21,0,0,0-9.86,15.67c-2.45,7.68-3.65,15.91-4.51,24a121.48,121.48,0,0,0,.49,29.64,3,3,0,0,0,2.73,2.91,63,63,0,0,0,9,1.1c11.12.71,22.2,1,33.3,1.32a2.38,2.38,0,0,0,1.76-.36,2.76,2.76,0,0,0,.76-2.28,132,132,0,0,0-1.87-22.2c-1-6-2.46-12-3.6-17.92A98.77,98.77,0,0,1,157.7,168c-.16-2.94.42-6-.7-8.77C154.43,152.94,149.3,150.67,143.35,148.24Z"/><path d="M164.13,118.39a27.83,27.83,0,0,0-6.57-3.89,16.15,16.15,0,0,0-6.12-1.7,13.58,13.58,0,0,0-9.38,3.07c-3.21,2.75-4.88,6.41-6.6,10.23a54.8,54.8,0,0,0-3,9,16.92,16.92,0,0,0-.71,4.55,3.07,3.07,0,0,0,1.7,2.67,54.61,54.61,0,0,0,16.75,7.51,13.22,13.22,0,0,0,5.84.49c2.36-.4,4.59-.76,6.95-1.05a2.85,2.85,0,0,0,1.44-.46,3.27,3.27,0,0,0,1-1.37c1.85-4.32,3.77-8.28,4.28-13.08A20.35,20.35,0,0,0,166.67,121,10.82,10.82,0,0,0,164.13,118.39Z"/><path d="M163.45,137.25a5.94,5.94,0,0,0,.85-2.52c.14-1.31,0-3.09-1.73-2.92-.09,0-.16.12-.24.17l0-.53c.12-1.9.61-3.72.38-5.64a10.14,10.14,0,0,0-1.36-3.63,6.53,6.53,0,0,0-1.45-2.15c-2.71-2.13-5.26-3.32-8.84-3.13-2.31.12-3.78.9-5.93,2.51-.49.37-3.92,3.09-3.13,4.47a3,3,0,0,0-3.64,1.59,5.52,5.52,0,0,0-.79,2.52,2.58,2.58,0,0,0,.89,2.07c-.57,1.53-1.27,2.73-1.23,4.46A10.46,10.46,0,0,0,140,141.7a6.05,6.05,0,0,1,2.29,6.05,3.6,3.6,0,0,0,.08,1.76,5,5,0,0,0,5.71,1.85c1-.65,1-1.82,1.72-2.69,1.43-1.67,3.59-2.13,5.5-3a13.41,13.41,0,0,0,5.37-4.13,10,10,0,0,0,1.44-3.28A2.84,2.84,0,0,0,163.45,137.25Z"/><path d="M145.49,121.61s0,.08,0,.1c1-.43,1.66-1.21,2.82-1.34a8.26,8.26,0,0,1,3.33.38c4,1.12,7.43,2.49,10,6a22.12,22.12,0,0,0,2-4.1,2.07,2.07,0,0,0,.18-1.2,1.4,1.4,0,0,0-.54-.76,28,28,0,0,0-10.46-5.29c-1.88-.47-3.89-.55-5.41.85S146,119.74,145.49,121.61Z"/><path d="M161.86,135.25a5.72,5.72,0,0,1-.28,1.06,15.44,15.44,0,0,1-6.16,8.11c.79-.18,1.78.66,2.34.89a16.26,16.26,0,0,0,3.75.91.94.94,0,0,0,.62-.06,1.09,1.09,0,0,0,.47-.52c1.44-2.86,3.1-5.51,3.75-8.7.72-3.51.4-7,.09-10.6a5.1,5.1,0,0,0-4.82-5.48c.81.42,1.08,2.11,1.12,2.75a29,29,0,0,1-.06,3.53A57.43,57.43,0,0,1,161.86,135.25Z"/><path d="M141.36,126.4a6.4,6.4,0,0,0-.49,1,15.9,15.9,0,0,0-.68,10.45c-.48-.65-1.79-.69-2.38-.89a17.69,17.69,0,0,1-3.45-1.74,1,1,0,0,1-.43-.46,1.17,1.17,0,0,1,0-.74c.76-3.16,1.31-6.45,2.9-9.31,1.76-3.15,4.23-5.5,6.76-8a6,6,0,0,1,3.25-2,6.14,6.14,0,0,1,3.73,1c-.87-.17-2,1-2.43,1.41a31.4,31.4,0,0,0-2.15,2.66A62.43,62.43,0,0,0,141.36,126.4Z"/><path d="M159,239.32c-.18,8.28.74,15.83.35,24.28s-2.23,17.49-2.88,26.06c-2.36-.31-4.69-.5-7-1-.73-7.6-1.22-17.79-2.05-24.77s-1.92-10.48-2.69-16.81C149.45,244.59,154.16,241.88,159,239.32Z"/><path d="M157.06,288.79a4.41,4.41,0,0,0,.33,3.18c.65,1,1.83,1.3,2.35,2.36a2.6,2.6,0,0,1,.09,1.51,2,2,0,0,1-.42,1.11,2.69,2.69,0,0,1-1.76.74,10,10,0,0,1-3,.16,10.55,10.55,0,0,1-4.56-2.21,4.58,4.58,0,0,1-2.26-3.26,4.34,4.34,0,0,1,.29-1.43,17.94,17.94,0,0,0,.53-3.79c2.9.14,5.8.3,8.69.45C157.24,288,157.11,288.37,157.06,288.79Z"/><path d="M135.1,239.86c-1.63,8.52-1.73,16.24-4.35,24.82s-7.7,17.19-11.68,25.41a54.45,54.45,0,0,1-6.15-3.32c2.29-7.47,5.19-17.58,6.18-24.67s.44-10.59.74-17C125,243.54,130,241.67,135.1,239.86Z"/><path d="M120,289.43a4.71,4.71,0,0,0-.91,3.21c.27,1.17,1.28,1.92,1.44,3.12a2.84,2.84,0,0,1-.39,1.49,1.85,1.85,0,0,1-.75.93,2.5,2.5,0,0,1-1.88.12,10.19,10.19,0,0,1-2.92-.89,10.46,10.46,0,0,1-3.59-3.68,4.58,4.58,0,0,1-1-3.88,4.28,4.28,0,0,1,.78-1.28,19.76,19.76,0,0,0,1.95-3.48c2.63,1.14,5.29,2.21,8,3.25C120.48,288.71,120.21,289.05,120,289.43Z"/><path d="M167.38,218.74c0-2.25,0-4.5-.08-6.75a2.69,2.69,0,0,0-1.64-2.76c-3.25-2.14-5.12-3.94-6.72-7.53a54.48,54.48,0,0,1-3-9.28c-.71-2.74-1.93-10.78-3.29-14-.64-1.51-.37.07-.84-.76a82.37,82.37,0,0,1,2.23-23c.31-1.24.61-1,.22-2.29a10.7,10.7,0,0,0-2.66-1.57c-3.21,8.13-4.59,16.54-5.48,25.2-3.68-.86-7.42-1.68-11.09-2.54.37-9.14,2.33-17.94,3.91-26.93,0,0-2.79-.57-3.1-.31-1,.9-.7.87-1.1,2.18a194.29,194.29,0,0,0-5.41,24c-.15,0-.26-.06-.42-.06-.48,0-.84-.17-1.26.23a2.93,2.93,0,0,0-.69,1.59c-.92,4.3-1.58,8.66-2.34,13-.38,2.13-.67,4.31-1.25,6.42-1.49,5.4-3.36,10.21-6.87,14.63a8.55,8.55,0,0,0-1.26,1.72,6.59,6.59,0,0,0-.44,2.15c-.21,3-.22,6.23-.19,9.24.16,16.66,1.2,33-1.32,49.59-.26,1.7-.57,3.25-.85,5.11-.2,1.24-1,3.5-.24,4.8.39.71,1.64.84,2.26,1.11.88.4,1.68.66,2.53,1,1.69.61,3.36,1.16,5,1.86a208.23,208.23,0,0,0,20-32.62c1.07,10.46,2.72,20.81,4,31.27,0,.27,8.77.78,9.53.45,2.27-1,2-3.44,2.74-5.78,2.12-7.22,4-14.48,5.41-21.89A206,206,0,0,0,167.38,218.74Z"/><path d="M153.75,109.19a2.18,2.18,0,0,0,.38,0c.44-.06,1.05-.52.94-1-.35-1.39-2.69-1.28-1.51-2.92.32-.44,3.57-1.17,3.59-1.69.1-2.63-1.67-4.48-4.07-4.33-1.63.1-2.52,1.44-3.54,2.45-1.59,1.57-2.77,3.42-4.41,4.94a.8.8,0,0,0-.33.5,1.1,1.1,0,0,0,.15.64c.78,1.74,1.46,3.27,3.47,3.71.29.06.5-.15.72-.28.65-.38,1.26-.82,1.9-1.21a5,5,0,0,1,1.55-.72A7.55,7.55,0,0,1,153.75,109.19Z"/><path d="M128.13,118.42c.89-.81,1.93-1.32,3.32-2.33,1.68-1.22,12-10.11,12.25-10.12,4.92-.22,4,4.62,7.58,5.5-3.58,3.55-6.85,6-10.54,9.55-6.44,6.25-9,10.57-6.93,19.82.57,2.61,2.21,4.44.78,7.08-.53,1-1.59,1.52-2.31,2.45-4.68,5.94-6.65,13-9.72,19.86-.23.51-.69.83-1.21.52a1,1,0,0,1-.32-.63c-.59-2.28-.92-4.71-1.45-7s-1.72-4.07-1.78-6.45c-.13-4.82-.61-9.55,0-14.43C118.89,133.07,121.07,124.93,128.13,118.42Z"/><path d="M166.91,113.81a3.73,3.73,0,0,1-.28-.31c-.29-.36-.55-1.13-.18-1.44,1.2-1,3,1,2.82-1.4-.05-.66-2.79-3.57-2.52-4.13,1.37-2.85,3.93-2.54,5.92-.8,1.34,1.17,1.57,3.15,1.91,4.77.52,2.5.51,5,.92,7.46a.8.8,0,0,1-.56,1.07c-1.76.84-3.25,1.52-5.08.46-.25-.15-.31-.48-.41-.74-.3-.77-.53-1.56-.82-2.34a6.54,6.54,0,0,0-.83-1.7A9.45,9.45,0,0,0,166.91,113.81Z"/><path d="M180.31,139.2c-.08-1.09-.58-2.27-.76-4-.21-2.13-2.31-16.59-2.49-16.77-3.68-3.6-6.1.86-9.49-.93.69,5.05,1.55,9.63,1.86,14.72.53,8.89-.68,13.3-7.93,18.76-1.46,1.1-3.11,1.32-4.44,2.11-1.52.92-1.74.91-1.93,2.72-.3,2.87,0,6-.12,9a25.69,25.69,0,0,0,1.24,10,1.36,1.36,0,0,0,.63.73.53.53,0,0,0,.53-.07,50.06,50.06,0,0,0,8-6.31c2.81-2.58,5.69-3.85,8-7.46C177.84,154.83,180.91,147.78,180.31,139.2Z"/><path d="M179.89,69.28c-12.74,9.87-21.94,32.57-27.13,47l9.35,3.64c4.68-16.48,11.16-34.11,22.21-47.4Z"/><path d="M246.87,34.29C231.5,31,209.56,30,196.06,37.72s-16,21.08-16.5,34.92c12.15,6.66,24.89,11.28,38.45,3.63S241.87,49.2,246.87,34.29Z"/><path d="M179.75,72.54c1,.69,2.11,1.3,3.2,1.91l39.1-26L179.74,68.81C179.71,70.05,179.68,71.3,179.75,72.54Z"/><path d="M135.31,25.16c-2.85,13.8-3.68,33.24,3.25,45.31s18.83,14.24,31.17,14.62c5.89-10.86,10-22.24,3.07-34.3S148.66,29.64,135.31,25.16Z"/><path d="M169.64,84.94c.62-.92,1.16-1.89,1.7-2.86L148,47.26q9.17,18.85,18.32,37.7C167.43,85,168.54,85,169.64,84.94Z"/><path d="M179.75,72.54c20,3.76,42.87-1.07,56.76-16.58C224.93,80,202.68,87.21,179.75,72.54Z"/></g><path class="cls-5" d="M322.28,147.78c-1.49-1.12-2.92-2.31-4.31-3.3a60.49,60.49,0,0,1-9.75-8.25c-1.4-1.53-2.78-3.64-2.1-5.49a3.39,3.39,0,0,1,3.78-1.85,12.55,12.55,0,0,1,4.32,1.93c3.8,2.25,7.75,4.23,11.51,6.53,3.17,1.94,7.19,4,8.39,7.91a5,5,0,0,1-.63,4.43c-1.32,1.72-3.8,2-5.72,1.31A21.44,21.44,0,0,1,322.28,147.78Z"/><path class="cls-5" d="M320.93,106.08a3.19,3.19,0,0,0,.26-.26,1.22,1.22,0,0,0,.28-1.36c-.8-1.33-3,1.24-2.52-1.12.12-.64,2.68-3.76,2.47-4.09-1.08-1.72-3.78-2.32-5.21-.6a9.87,9.87,0,0,0-1.7,4.23c-.37,1.72-.41,3.54-.82,5.23a18.59,18.59,0,0,1-1.8,3.94c-2.95,5.78-6.61,12.21-6.24,18.73.12,2,.55,2.81,2.26,3.31s3.59.61,5.07-.71,1.75-3.16,2-4.95c.47-2.7,1.15-5.47,1.45-8.15s-.12-5,.61-7.59a19.11,19.11,0,0,1,3-5.85C320.35,106.56,320.66,106.34,320.93,106.08Z"/><path class="cls-6" d="M334,159.28a17.61,17.61,0,0,1-15.18-4.15c1.25-3.92,4.06-6.26,6.18-9.58.69-1.08,1.32-2.21,2-3.33,1-1.86,3.07-7.44,5.79-5.35,1.36,1,2,2.56,3.18,3.72,1.57,1.53,3.75,2.31,5.3,3.95a8.41,8.41,0,0,1,2.51,6.74c-.4,2.82-2.68,5-5.18,6.38A16.37,16.37,0,0,1,334,159.28Z"/><path class="cls-7" d="M367.69,118.05a34.46,34.46,0,0,1,.06,3.52c0,1.29-.5,2.56-.24,3.86a13.56,13.56,0,0,0,.94,2.35,8,8,0,0,1-.95,7.72c-.55.75-1.24,1.4-1.72,2.2a12.56,12.56,0,0,0-1.23,4.39,32.25,32.25,0,0,1-1.53,4.2,13.24,13.24,0,0,0-.09,6.53,3.26,3.26,0,0,1,.07,1.52,1.57,1.57,0,0,1-1.64,1c-8.47.26-16.85-.94-25.2-2.13.66.09.7-6,.66-6.52a33.62,33.62,0,0,0-1.4-7.23,10.74,10.74,0,0,1-.76-3.72c.09-1.8,1.22-3.58.68-5.3-.47-1.54-1.83-2.73-1.89-4.43-.05-1.89,1.36-3.77,2.46-5.18a19.05,19.05,0,0,0,2.52-3.66c.53-1.15.54-2.24,1.21-3.33a17.14,17.14,0,0,1,5.62-5.49,10.44,10.44,0,0,1,2.65-1.22,10.65,10.65,0,0,1,3.47-.23,66.67,66.67,0,0,1,7.75,1.31,10.89,10.89,0,0,1,6.75,4.59A11.12,11.12,0,0,1,367.69,118.05Z"/><path class="cls-5" d="M336,123.09a2.65,2.65,0,0,1,2.63-1.07,2.38,2.38,0,0,1,1.23.64,23.28,23.28,0,0,1,1.64-4.78,9.61,9.61,0,0,1,1.88-2.85,8.34,8.34,0,0,1,2.52-1.57,14.36,14.36,0,0,1,9.94-.45c4.53,1.47,7,4.33,7.93,8.21a16.8,16.8,0,0,1,.41,4.35v.19a2.78,2.78,0,0,1,1-.12,2.64,2.64,0,0,1,2.25,1.74,3.56,3.56,0,0,1-.28,2.92,5.6,5.6,0,0,1-2.13,2.08,3.5,3.5,0,0,1-1.73.53c-.9,3.54-2.6,6.84-5.71,8.58-2.14,1.2-2.21,1.77-2.53,4.34-.16,1.31-.6,2.77-1.77,3.39a4.32,4.32,0,0,1-2.05.36,19.59,19.59,0,0,1-2.86-.24,3.49,3.49,0,0,1-2-.83c-.79-.82-.69-2.12-.52-3.24.47-3.08.39-2.71-1.71-4.53a12.09,12.09,0,0,1-3.05-4.35,21.6,21.6,0,0,1-1.7-6.86,1.24,1.24,0,0,1-.47.06,3,3,0,0,1-1.92-1,5.52,5.52,0,0,1-1.49-2.58A3.57,3.57,0,0,1,336,123.09Z"/><path class="cls-7" d="M345.45,118.19a7.21,7.21,0,0,1-1,1.88c-1.08,1.39-2.64,2.38-3.57,3.88-1.19,1.93-1.12,4.38-.88,6.64a53.37,53.37,0,0,0,1,5.9,4.09,4.09,0,0,1,.21,2.18c-.19.62-.78,1-1,1.59-.88,2.07,1.5,4.77,3.29,5.61a14.79,14.79,0,0,1-7.8,4.3c-1.26.25-2.46-4.58-2.68-5.33a10.16,10.16,0,0,1,.54-7.35c.69-1.4,1.7-2.63,2.46-4a12.9,12.9,0,0,0,1.6-6.68,24.79,24.79,0,0,1-.16-4.21,12.09,12.09,0,0,1,.83-2.81,24,24,0,0,1,4.23-7.64c1.85-2,4.93-4,7.75-3.18a7.65,7.65,0,0,1,4.05,2.64c.63.83,2.44,3.21.3,3.52a21.52,21.52,0,0,1-3.5.06,8.69,8.69,0,0,0-3.44.45A3.72,3.72,0,0,0,345.45,118.19Z"/><path class="cls-7" d="M358.06,117c1.59.59,4.26,1.53,4.25,3.5s-1.27,3.76-.87,5.91a11.44,11.44,0,0,0,1.35,3,6,6,0,0,1,.41,5.29c-.83,1.69-2.77,2.66-3.46,4.41s.2,4-.21,6c-.34,1.68-.27,2.7,1.46,3.53a7.11,7.11,0,0,1,2.47,1.6c.18.21,1.28,2.69.64,2.74,1.86-.14,4-.48,4.91-2.14a3.66,3.66,0,0,0,.07-2.94,8.75,8.75,0,0,0-1.63-2.54,5.31,5.31,0,0,1-1-1.43,4,4,0,0,1,.55-3.34,13.25,13.25,0,0,0,1.59-3.11c.85-3.43-2.31-5.61-3.26-8.55-1.41-4.34,2.76-8.94,1.63-13.35a10.41,10.41,0,0,0-2.08-3.69c-1.35-1.71-3-3.41-5.09-3.91-2.73-.64-5.23,1.45-6.7,3.48a15.41,15.41,0,0,0-1.07,1.68c-.56,1-.72,1,.17,1.63,1.49,1,4,1.49,5.69,2.13Z"/><polygon class="cls-5" points="353.38 238.5 354.23 252.99 362.52 287.22 368.77 285.68 365.16 251.74 368.94 236.78 353.38 238.5"/><path class="cls-8" d="M361.82,286.43a4,4,0,0,1,.07,3c-.51.9-1.66,1.24-2,2.35a2.68,2.68,0,0,0,.08,1.43,2,2,0,0,0,.48,1,2.48,2.48,0,0,0,1.67.5,10.67,10.67,0,0,0,2.77-.13,8.6,8.6,0,0,0,4-2.47c.94-.93,1.95-1.69,1.76-3.2a5.67,5.67,0,0,0-.43-1.3,12.5,12.5,0,0,1-.89-3.46l-7.85,1.25C361.57,285.69,361.7,286.05,361.82,286.43Z"/><polygon class="cls-5" points="338.23 239.8 338.28 254.31 344.68 288.95 351 287.75 349.27 253.67 353.86 238.94 338.23 239.8"/><path class="cls-8" d="M344,288.13a4,4,0,0,1-.09,3c-.56.87-1.72,1.15-2.09,2.24a2.67,2.67,0,0,0,0,1.43,2.16,2.16,0,0,0,.43,1,2.43,2.43,0,0,0,1.65.58,10.7,10.7,0,0,0,2.77,0,8.63,8.63,0,0,0,4.08-2.25c1-.88,2.05-1.58,1.94-3.1a5.18,5.18,0,0,0-.36-1.32,12.65,12.65,0,0,1-.7-3.5l-7.9.81C343.82,287.37,343.93,287.73,344,288.13Z"/><path class="cls-6" d="M359.71,147.24c6.68,32.45,17.15,60.26,30.51,83-3.15.3-5.3,3.72-7.67,6.09a20.7,20.7,0,0,1-7.94,4.77c-12.35,4.3-25.32-.52-37.9,1.45-3.09.48-6.15,1.38-9.26,1.33-6.23-.11-12.23-2.33-18-4.44-.38-.14-5.4-1.73-5.24-2.13L317.1,204.4c2.33-6,4.66-11.91,6.48-18a179.84,179.84,0,0,0,4.63-21.14c1-6.19,1.25-12.52,5.48-17.71a10.48,10.48,0,0,1,6.46-3.81c2.54-.34,5.57.66,8.11,1C349.49,144.9,359.49,145.63,359.71,147.24Z"/><path class="cls-9" d="M262.82,144l2.76-3.42.14-2.56,2.29-2.84s1.82,1.11,1.64,1.33a2.28,2.28,0,0,0-.42,1.91,5.12,5.12,0,0,0,2.79-2.35c.29-.59.47-1.34,1.08-1.56s1.34.34,1.8.89a4.77,4.77,0,0,1,1.15,2.17,4.3,4.3,0,0,1-1,3.1c-1.56,2.11-3.6,2.95-5.87,4l-3.37,2.95Z"/><path class="cls-10" d="M246.78,152.76c6.17-1.88,12-8.91,16.52-12.5a13.71,13.71,0,0,1,4.2,3.79c1.44,2,1.31,2.15-.06,4a70.56,70.56,0,0,1-7.94,8.46c-6.92,6.64-11.86,13.07-22.65,12.3a46.43,46.43,0,0,1-8.64-1.74l-11.18-3a11.37,11.37,0,0,1-2.74-1c-6.62-3.82.92-14.12,3.6-18.08s3-6,8-3.38c3.87,2,7,5.18,10.24,8a20.3,20.3,0,0,0,2.91,2.24A9.1,9.1,0,0,0,246.78,152.76Z"/><path class="cls-11" d="M187.79,278.63c.53,2.11.92,4.24,1.32,6.38,1.6,1,3.18,2,4.8,3,.94-.32,2.37-.53,3.21-.87,1.43-.56,2.14-1.58,1.37-3.05a12.62,12.62,0,0,0-1-1.3c-.57-.8-1.9-2.4-2.81-3.49s-2.27-2.63-3.26-3.79C190.23,276.52,189,277.59,187.79,278.63Z"/><path class="cls-11" d="M205.82,278.51c.45,2.16.91,4.33,1.36,6.49,1.61,1,3.2,2,4.83,3,1-.64,2.46-1.42,3.34-2,1.3-.9,1.46-2.07.43-3.1h0c-1-1.27-2-2.4-3-3.62s-2.1-2.51-3.12-3.76Q207.71,277,205.82,278.51Z"/><path class="cls-12" d="M216.21,190.81c-14.59-3.11-29.35-5.07-44-8.08-.63,7.79-1.19,3.75-1.66,14.2a215.17,215.17,0,0,0,3.28,42.71,217,217,0,0,0,12.53,40.21c2.68-.53,5.35-1.1,8.07-1.86-2.52-11.85-4.38-26.25-3.5-37.83s1.83-19.66,4.73-30.31c5.93-2.26,11.92-4.56,18-6.44C214.45,199.2,215.26,195,216.21,190.81Z"/><path class="cls-12" d="M213.78,203.37c-2.41,12.18-2.12,22.46-2.5,35.11a227.38,227.38,0,0,0,2.38,39.68c-2.81.83-5.38,1.59-8,2.21a331.89,331.89,0,0,1-10.94-42.15c-2.55-13.33-4.35-24.22-3.95-37.32C198.4,201.83,206,202.46,213.78,203.37Z"/><path class="cls-9" d="M233,112.87a8.47,8.47,0,0,1,2.51-2.3A3,3,0,0,1,238,110a1.66,1.66,0,0,1,.92,1.58,6.59,6.59,0,0,1-.33,1.78c2.19.46,4.48-.72,6.63-.61a11.51,11.51,0,0,1,3.92,1.22,7,7,0,0,1,2.33,1.38c2.42,2.49,4.2,6.17,4,9.56-.45,6.29-6,12-12,13.67a18.41,18.41,0,0,1-2.65.48l-3.61.48a8,8,0,0,1-4.52-.28c-3.63-1.75-4.74-6.66-9.57-4.83a5.34,5.34,0,0,1-1.66.56,4.12,4.12,0,0,1-2.78-1.27c-.9-.83-2-1.66-1.8-3s1.65-2,2.5-3.1,1.55-2.54,2.51-3.7a47.45,47.45,0,0,1,4.77-5c1.49-1.33,3.67-2.25,5-3.56a2.35,2.35,0,0,0,.43-.92A6.73,6.73,0,0,1,233,112.87Z"/><path class="cls-13" d="M246.51,106.14a20.18,20.18,0,0,1,6,2.94,10.71,10.71,0,0,1,3.71,3.9c1.66,3.42,1.15,10.78,5.79,11.81a2.56,2.56,0,0,1,2,3.48c-.16.5-.58.74-.74,1.22s-.32.93.12,1.36,1.14.05,1.71.48a1.33,1.33,0,0,1-.18,2c-.34.27-.86.3-1.15.52s-.27.44-.49.65c-.51.48-.89.84-1.62.76a7.7,7.7,0,0,0-.86-.19,3.79,3.79,0,0,0-1.57.6,5.24,5.24,0,0,1-3.62,0,9.46,9.46,0,0,1-3.17,2.09c-2.12.63-4.37.2-6.55.05a9.86,9.86,0,0,1,1.55-1.4,9.85,9.85,0,0,0,2.67-3.58c.3-.69.5-1.42.83-2.09l-.15-.21a5.28,5.28,0,0,1-.77-1.38,7.23,7.23,0,0,1-.08-2c0-3.2-.25-6.27-1.82-9.1-1.71-3.1-4.2-3.71-7.59-3.72-.8,0-2.31.59-3.05.11-1.11-.74.33-1.69,0-2.5-.81-2.15-2.9-.11-3.77.9-.8.79-1,2-1.71,2.8a18.73,18.73,0,0,1-3.71,2.67c-1.19.83-2.53,1.69-4,1.49-.12,0-.26-.06-.28-.18a.27.27,0,0,1,0-.15c2.49-6.25,5.87-9.59,11.77-12.6,2.31-1.18,4.91-2.39,7.4-1.67C244.37,105.48,245.45,105.79,246.51,106.14Z"/><path class="cls-10" d="M218.08,189.3c.55-3.69,1.06-7.42,2-11.06s2.18-7.37,3.39-10.92c1.82-5.35,3.68-11,5.55-16.21,1.69-4.67,2.3-7-.78-11.07-1-1.28-3.81-2.34-4-4.14-.11-.86.79-1.28.16-2.2a10.77,10.77,0,0,0-.87-.92,9.91,9.91,0,0,1-1.5-3.24,9.16,9.16,0,0,0-1.91-3,1.73,1.73,0,0,0-.92-.59,1.93,1.93,0,0,0-.85.12,42.72,42.72,0,0,1-6.77,1.61c-2.12.28-4.3,0-6.4.47a16.83,16.83,0,0,0-6,2.68,39.68,39.68,0,0,0-8.42,7.25,53.6,53.6,0,0,0-6.38,9.12A117.2,117.2,0,0,0,171,183.44c-.43,2.28-1.09,4.54-.63,6.72s2.52,2.34,4.33,3a92.82,92.82,0,0,0,13.05,4,121.86,121.86,0,0,0,26.74,2.37,2.23,2.23,0,0,0,1.41-.33,2.07,2.07,0,0,0,.68-1.34C217.24,195,217.66,192.21,218.08,189.3Z"/><circle class="cls-14" cx="264.99" cy="222.21" r="85.37"/><path class="cls-15" d="M285.35,139.29c1.52.37,3,.78,4.52,1.24Z"/><path class="cls-16" d="M287.82,146.61l1.09.35.33-.24A10.37,10.37,0,0,1,287.82,146.61Z"/><path class="cls-16" d="M283.63,150.79c2.63,0,6.56,4.36,8.58,3,2.77-1.86,2.09-3.6,2.84-4.58-2-.84-4.05-1.59-6.14-2.26Z"/><path class="cls-16" d="M287.82,146.61c-.83-.25-1.66-.49-2.51-.72A9.59,9.59,0,0,0,287.82,146.61Z"/><path class="cls-17" d="M333.32,182.9A79.59,79.59,0,0,0,319,164.74c-.07-.08-.15-.14-.22-.22-.57-.53-1.14-1.05-1.73-1.56l-.25-.22c-.58-.51-1.17-1-1.77-1.51l-.21-.17c-.62-.51-1.25-1-1.88-1.49l-.14-.11c-.67-.51-1.34-1-2-1.49l-.06-.05c-.71-.51-1.42-1-2.15-1.48h0Q306.3,155,304,153.62h0A78.9,78.9,0,0,0,276.43,144h0c-.58-.08-1.15-.17-1.73-.24l-1-.12-1.13-.13h0q-2.38-.22-4.8-.33h0l-1,0c-.72,0-1.44,0-2.16,0l-1.86,0-.69,0-1.13,0-.89.05-.86.05-1.06.08-.48,0q-3.08.27-6.07.77h0l-1.59.28h0c-.68.13-1.36.26-2,.41h-.08l-1.95.45-.11,0c-.64.15-1.28.32-1.91.49l-.11,0-1.92.54-.07,0c-.66.19-1.31.4-1.95.61h0a79,79,0,0,0-20.18,10h0a79.26,79.26,0,0,0-17.85,113.58,79.3,79.3,0,0,1,16.84-99.42L219,171l1-.86.58-.47.84-.67.64-.5.8-.61.67-.5.8-.59.69-.48.81-.56.69-.47.84-.55.69-.45.87-.54.69-.43.92-.54.65-.38,1.08-.6.52-.3,1.6-.84.49-.25,1.16-.57.66-.31,1-.47.73-.32,1-.43.75-.31,1-.39.76-.3,1-.37.77-.29,1-.35.76-.26,1-.33.74-.24,1.13-.33.66-.2,1.45-.39.36-.1,1.82-.44.56-.12,1.28-.28.72-.14,1.14-.22.78-.14,1.09-.18.81-.12,1.09-.15.82-.11,1.09-.12.82-.09,1.12-.1.81-.06,1.17-.08.76,0,1.3-.05.65,0,2,0h.5a78.87,78.87,0,0,1,33,7.41l.31.14,1.51.74.65.33,1.18.61.66.36,1.39.77.53.31c.5.28,1,.58,1.47.87l.68.42,1,.66.7.45,1.11.75.54.37h0A79.82,79.82,0,0,1,333.32,182.9Z"/><path class="cls-18" d="M264.26,144.8h0Z"/><path class="cls-18" d="M295,142.26a25.33,25.33,0,0,0-7.25.11,10.33,10.33,0,0,0,2.13-1.84c-1.49-.46-3-.87-4.52-1.24l-.33.11c-2.06.72-2.36.79-2,2.1a16.13,16.13,0,0,1-2.28-1.13h-9.88c6.26,6.92-5.88,6.47-10.31,6.48-.81,0-1-1.62-.54-2a27.78,27.78,0,0,1,4.27,0c4,0,3.53-.32,3.53-4.43-4,3-3.87,0-8.42,0-4.27,0-6.36.23-10.1,1.91l3.65,3.12c-1.53-.35-6.54-2.31-7.91-1.73-.63.27-.8,2-1.58,2-3.18,0-11.84,1.74-11.84-1.91,0,0-.05,0-.15,0A85.52,85.52,0,0,0,209.92,157a51.07,51.07,0,0,1,9.28-.44c.38,0,3,6.75,3,7.27.14,2.94-1.87,4.11-3.35,6.91a35.15,35.15,0,0,0-3.61,17.49c0,.21,3.42,3.27,3.42,4.48,0,5.08.53,5.16,4,8.9v-6.23c2.08,5.46,4.59,7.56,6.47,12.9,2.13,6.05,10.56,1.4,13.42,5.39,1.27,1.76,3.62.95,4.74,2.67l3,4.65c1.84,2.8,4.08,1.83,7.36,1.83s-2.87,10.9-2.87,11.82c0,3.78,5.16,12.38,5.13,13.89-.1,4.49,5.5,5.12,8.55,7.88,2.43,2.23.7,8.54.62,11.34a17.89,17.89,0,0,0,1.16,6.52h0c.66,1.87,1.5,3.67,2.26,5.53.13.32.26.65.38,1,.06.14.11.29.16.43s.2.55.29.83l.15.46c.09.29.18.58.26.88,0,.14.07.28.11.42.11.43.2.87.28,1.32.4,2.3-.48,4.77,0,7s2.47,3.67,2.44,6.17c-.05,3.86,10.8,4.58,12.91,4.58,0,0-7.93-4.1-7.93-3.61,0-3.67,1.89-3.41,1.89-5.64,0-2.66-2.41-4.84-.9-8.6,1.62-4.06,1.44-3.94,5.84-3.94a26.43,26.43,0,0,0-.85-5.51c3.93-6.12,13.07-12,15.5-13.67,3.28-2.25,1.44-8.32,2.87-11.55,1.25-2.84,5-5.46,5.22-9a4.42,4.42,0,0,0,0-.52.5.5,0,0,0,0-.12,2.2,2.2,0,0,0-.06-.37s0-.06,0-.09l-.12-.35,0,0a2,2,0,0,0-.19-.36h0c-.76-1.12-2.34-1.44-3.72-1.39-1.94.06-2.13-3.19-3.6-3.19-4.09,0-8.33-.69-11.87-3.31-.58-.44-1.24-5.65-2.24-6.94-1.43-1.85-6,1.4-7.8-1.12-.67-.95-2.27-4.68-3.35-4.68-1.48,0-9.64-1.59-11.36,0,.27-.23-2.78-1.16-3.21-1.16.18,0-10.48,5.53-10.48,2.66,0-3.72,1.81-8.53-2.6-8.53-7.09,0-1.06-1.84-1.06-5.09,0-4.17-6.87,1.14-10.49,1.14.1,0-4.07-6.83-2.07-6.83,1.43,0,1.66-2.93,2.72-4.17,2.8-3.28,7.59-3.62,11-3,1.37.25,6.31,6,6.32,7.16,0-.28,2-1.57,2.29-2,1-1.49.42-2.14.67-3.63.81-5,1-6,5-9.07,2.94-2.25,7.06-4.82,9.37-7.72a15.47,15.47,0,0,1,6-4.63c-.26.13,2.43,1.64,3,1.64,2.31,0,2.87-2,4.14-3.71h-4c4.54-3.47-3.68-5.27,5.42-5.27,4.47,0,4.89.06,7.62-3.12-4.35,0-3.29,0-3.29-4.45,0-.74-1.23-3.45-2.4-2.29-3.21,3.15-3.09-.58-4.5-2.68-1.81-2.71-3.77.08-4.53,1.73-.94,2-8.65,5.22-8.64,7.88,0,1.56-2.54,1.5-2.49-.24.07-2.61-8.95-5.1-9.1-6.12-.19-1.34,4.47-5,8.52-5,1.86,0,.95-2.16,1.52-2.16,3.87,0,8.42-1.2,10.53-4.31-.53,0-5.48,0-5.48,0,0-1.77-.76-2.85,1.27-2.85,4.76,0,6.17,3.72,11.4,3.72l-5.61,4.07c2.63,0,6.56,4.36,8.58,3,3.72-2.5,1.21-4.78,4.31-5.3a3.65,3.65,0,0,0,1.52.95c1,.34,4.45,1,5,1.85.72,1.07,2.53,7.38,1.2,7.93-2.16.89-8.5,7.76-3.65,9.47,3.74,1.33,4.7-.34,8-2.43,3.1-1.94,3.94-1.23,7.43,0a21.74,21.74,0,0,1,5,.35c2.94,1,2.72-.82,3-.71a8.1,8.1,0,0,0,5.14.08A85.48,85.48,0,0,0,295,142.26Z"/><path class="cls-18" d="M259.56,201.7l-1.73,1.74c5.38,0,8.65,1.73,13.42,1.73C268.05,200.15,265.54,201.7,259.56,201.7Z"/><path class="cls-18" d="M277.31,206.05c-4.32-.14-4.52.52-7.17,3.47H277C278.94,209.54,278.67,206.09,277.31,206.05Z"/><path class="cls-18" d="M283.43,210.54c0-6-6.16,0,0,0Z"/><g class="cls-3"><path d="M309.66,149.35A85.39,85.39,0,0,1,193.05,268.1,85.38,85.38,0,1,0,309.66,149.35Z"/></g><path class="cls-19" d="M327.45,0s-33.9,37.55-33.9,68.86,23.45,38.76,33.9,38.76,33.89-7.44,33.89-38.76S327.45,0,327.45,0Z"/><path class="cls-20" d="M305.81,81.21v-.07a21.71,21.71,0,0,1-.83-4.38q-.08-3.44.15-6.85a99.48,99.48,0,0,1,1.95-14,152.35,152.35,0,0,1,8.76-27.51q2.51-6,5.39-11.82,1.36-2.75,2.79-5.46c.25-.47,3-5,2.82-5.14l-.09-.09s-30.54,37.64-29,67.61a56.25,56.25,0,0,0,.61,5.79c.14.92.32,1.83.51,2.74a7.24,7.24,0,0,0,.48,2.27,4.23,4.23,0,0,0,3.35,2.06A2.47,2.47,0,0,0,305.44,85,6.6,6.6,0,0,0,305.81,81.21Z"/><path class="cls-20" d="M310.18,89.62a3.23,3.23,0,0,0-2.2-.92,3.32,3.32,0,0,0-1.84.61,3.17,3.17,0,0,0-1.5,3.53,3.3,3.3,0,1,0,5.54-3.22Z"/><path class="cls-5" d="M341.52,176.36c-1.83.29-3.69.48-5.36.8a61,61,0,0,1-12.72,1.23c-2.07-.06-4.54-.54-5.39-2.32a3.37,3.37,0,0,1,1.3-4,12.82,12.82,0,0,1,4.4-1.76c4.26-1.15,8.43-2.59,12.71-3.69,3.59-.92,7.88-2.36,11.52-.5a5,5,0,0,1,2.73,3.54c.31,2.15-1.23,4.11-3,5A21.15,21.15,0,0,1,341.52,176.36Z"/><path class="cls-5" d="M310.7,148.26c0-.13,0-.25,0-.37a1.24,1.24,0,0,0-.78-1.15c-1.52-.36-1.2,3-2.56,1-.38-.54-.83-4.54-1.22-4.62-2-.43-4.29,1.09-4.06,3.31a9.73,9.73,0,0,0,1.86,4.17c1,1.46,2.24,2.76,3.17,4.24a18.12,18.12,0,0,1,1.56,4c2.09,6.15,4.15,13.25,9.09,17.53,1.51,1.31,2.4,1.57,3.94.69s2.94-2.15,3-4.12c.08-1.82-1.05-3.47-2.12-4.93-1.61-2.22-3.11-4.64-4.83-6.72s-3.71-3.43-5-5.73a19.4,19.4,0,0,1-2.09-6.24A10.48,10.48,0,0,1,310.7,148.26Z"/><path class="cls-6" d="M358,176a17.54,17.54,0,0,1-13.55,8c-1.94-3.62-1.66-7.27-2.56-11.1-.3-1.25-.67-2.49-1-3.72-.61-2-3.19-7.39.2-7.88,1.7-.25,3.24.35,4.89.31,2.19-.06,4.27-1.08,6.52-1a8.45,8.45,0,0,1,6.59,2.89c1.74,2.25,1.73,5.43,1,8.16A16.36,16.36,0,0,1,358,176Z"/><path class="cls-9" d="M214.79,185.6l3.09,3.12,2.52.41,2.58,2.59s-1.3,1.69-1.5,1.49a2.54,2.54,0,0,0-1.88-.65,7.78,7.78,0,0,0,1.59,3.2c.63.82,1.84,1.75.32,2.48a2.69,2.69,0,0,1-1.32.21,5.41,5.41,0,0,1-3.12-1.22,8.27,8.27,0,0,0-2.11-1.65,1.14,1.14,0,0,1-.4-.19,9.59,9.59,0,0,1-.65-2.08,6.16,6.16,0,0,0-.53-1.51l-2.56-3.67Z"/><path class="cls-10" d="M207.62,168.68c1.95,6.39,8.48,14.61,10.5,17.81a13.8,13.8,0,0,1-4.22,3.76c-2.13,1.22-2.29,1.07-4-.48A72.08,72.08,0,0,1,202.4,181c-5.84-7.61-11.69-13.22-9.75-23.87a47,47,0,0,1,2.67-8.39q2.12-5.38,4.21-10.78c1-2.46,1.9-2.81,4.56-2.91,4.14-.16,8.89.16,11.48,3.41a9.18,9.18,0,0,1,1.56,7.18,21.89,21.89,0,0,1-2.79,7C211.43,157.7,205.67,162.33,207.62,168.68Z"/><path class="cls-21" d="M75.49,115.67a1.49,1.49,0,0,0-.24.32c-.55,1.1-.17,2-.39,3.21-.1.53-1.4,1.07-.57,1.85.3.29,1.15.89,1.81,1.5A8.07,8.07,0,0,1,78,126.61c1.14,5.71.68,11.58,0,17.37a2,2,0,0,1-.26,1,2.21,2.21,0,0,1-1.58.71,45.11,45.11,0,0,0-8,2,16.63,16.63,0,0,0-6.36,3.62A7.47,7.47,0,0,0,59.6,158,5.84,5.84,0,0,0,63,162c4.23,1.72,8.94-3,12.18-5.21A79.08,79.08,0,0,0,83.94,150,2.58,2.58,0,0,0,85,147.48a174,174,0,0,0-1.14-18.79c-.18-1.72-1.24-3.13-1.39-4.72-.09-1,.56-1.89.68-2.87a9.69,9.69,0,0,0-.21-3.22c-.49-1.86-2.33-2.59-3.88-3.4a2.12,2.12,0,0,0-1.06-.33,2.94,2.94,0,0,0-1.68.78A5.51,5.51,0,0,0,75.49,115.67Z"/><path class="cls-22" d="M76.6,159.76a53,53,0,0,0,8.58-8.15,6.58,6.58,0,0,0,1.41-2.42,7.34,7.34,0,0,0,.1-2.34q-.45-6.81-.91-13.62c0-.42.06-1.84-.31-2.09-.19-.12-1,.09-1.19.11-.44,0-.87,0-1.3,0a19.51,19.51,0,0,0-5.18.23.46.46,0,0,0-.27.15.44.44,0,0,0-.09.27,75.3,75.3,0,0,1-1.65,9.89,4.61,4.61,0,0,1-.94,2.13,8.4,8.4,0,0,1-2.35,1.25A31.63,31.63,0,0,1,67.75,147c-3.32,1-6.75,1.63-10.14,2.37a19.17,19.17,0,0,0-4.27,1c-3.68,1-7.48,2.15-10.38,4.63-6.21,5.31-2.86,15.51,5.58,15.38a44.65,44.65,0,0,0,20.57-5.71A60.84,60.84,0,0,0,76.6,159.76Z"/><polygon class="cls-21" points="55.12 287.37 48.99 287.56 48.45 258.73 47.38 239.31 61.8 239.31 59.88 259.21 55.12 287.37"/><path class="cls-8" d="M56.34,286.62a5.8,5.8,0,0,0-.53,2.95c0,1.12.07,2.25.11,3.38a4.42,4.42,0,0,0,.37,2,8.49,8.49,0,0,0,1.09,1.32,1.92,1.92,0,0,1,.56,1.55,1.6,1.6,0,0,1-1.2,1.13A4.73,4.73,0,0,1,55,299L53,298.78a2,2,0,0,1-1.64-.73,2.46,2.46,0,0,1-.2-1c-.21-2.7-3.42-4.34-3.35-6.78a5.26,5.26,0,0,1,.31-1.39,13.27,13.27,0,0,0,.56-3.7c2.59.15,5.87-.15,8.31.55A5.22,5.22,0,0,0,56.34,286.62Z"/><polygon class="cls-21" points="30.07 285.79 24.06 284.56 30.65 256.93 31.36 237.68 47.61 240.55 41.8 260.02 30.07 285.79"/><path class="cls-8" d="M31.43,285.33a5.84,5.84,0,0,0-1.19,2.75c-.22,1.11-.45,2.21-.68,3.32a4.7,4.7,0,0,0-.1,2,8.39,8.39,0,0,0,.76,1.53,1.94,1.94,0,0,1,.19,1.65,1.61,1.61,0,0,1-1.42.82,4.86,4.86,0,0,1-1.68-.36l-2-.69c-.58-.21-1.25-.49-1.42-1.08a2.29,2.29,0,0,1,0-1c.41-2.67-2.33-5-1.71-7.36a5.22,5.22,0,0,1,.62-1.28,13.36,13.36,0,0,0,1.4-3.47c2.49.73,5.75,1.19,8,2.44A5.1,5.1,0,0,0,31.43,285.33Z"/><path class="cls-22" d="M58.17,149.05c2.95,3.08,3.59,8.7,5,12.85,1.73,4.93,3.45,9.86,4.92,14.87.75,2.55,1.43,5.12,2,7.72.48,2.16.38,4.33.66,6.54,1.37,10.89,2.7,21.79,3.55,32.73.34,4.48.61,9,.76,13.47.07,2.17.09,4.46-1,6.34a75.09,75.09,0,0,0-11.51.39,178.25,178.25,0,0,1-32,0c-1.23-.12-13.88-1.56-13.85-2.3.66-18.43.25-36.7,2.8-55.07,1.36-9.8,2.16-20.41,7.21-28.91,2.49-4.19,7-7.4,11.44-9.45,4.91-2.27,10.49-2,15.72-1.29A7,7,0,0,1,58.17,149.05Z"/><path class="cls-23" d="M47.23,168.54a10.37,10.37,0,0,0,4.14.46c.11,0,.27-8.3.29-9.07.05-1.56-.17-3.53,1.3-4.53s4.55-1.22,4-4a3.67,3.67,0,0,0-2.5-2.54,10.85,10.85,0,0,0-3.69-.39c-1.59,0-3.19,0-4.79.11-3.18.13-6.45.47-9.27,1.95-2.26,1.19-2.19,4-1.07,6a3.78,3.78,0,0,0,.9,1.16,5.1,5.1,0,0,0,3.87.71,12.7,12.7,0,0,0,3.29-1.79c.75-.42,2.37-.95,3-.12.48.6.16,2.44.19,3.14C46.94,160.56,46.75,168.38,47.23,168.54Z"/><path class="cls-24" d="M49.51,159.84c.05-.42.12-2.41-.61-2.36a.54.54,0,0,0-.41.32,5.31,5.31,0,0,0-.22,1.69,1.51,1.51,0,0,0,.12.76.6.6,0,0,0,.64.34C49.34,160.51,49.46,160.15,49.51,159.84Z"/><path class="cls-24" d="M49.51,165.58c.05-.42.12-2.41-.61-2.36a.54.54,0,0,0-.41.32,5.31,5.31,0,0,0-.22,1.69,1.51,1.51,0,0,0,.12.76.6.6,0,0,0,.64.34C49.34,166.25,49.46,165.89,49.51,165.58Z"/><path class="cls-8" d="M65.08,124.66c.76.19,1.66,2.47,1.86,3.3a7.56,7.56,0,0,0,.73,2.52A3.47,3.47,0,0,0,68,128c-.09-.5-.52-.74-.67-1.25a11.48,11.48,0,0,1-.12-2,1.88,1.88,0,0,0-.29-1,1.84,1.84,0,0,0-.67-.51,3.88,3.88,0,0,1-1.46-1.82,3,3,0,0,0-.35-.75.91.91,0,0,0-.37-.28,2.17,2.17,0,0,0-.24-.29c-.57-.55-1.46-.62-1.78-1.42a3.49,3.49,0,0,1-.08-1.48c.31-6-4.69-5.81-7.75-6.7s-4.69-2.33-7,1.42-1,5.85.39,9.28c1.1,2.76.6,4.7,1.12,7.66.41,2.3,1.71,4.25,2.19,6.53.42,2,.24,4.2.71,6.22s2,4,3.61,3.51c-.24,1.54.71,3.23,1.95,3.49s2.53-1,2.64-2.53c1,.23,2.45.19,2.71-1.08a8.9,8.9,0,0,0,0-1.37c.13-1.93,2.1-2.5,3.65-2.59a6,6,0,0,1,1.5-5.86c-.56-.25-.72-1.16-.62-1.87a12,12,0,0,0,.35-2.13c-.06-2.06-2.27-3-2.85-5a5.51,5.51,0,0,1-.17-1.64A5.09,5.09,0,0,1,65.08,124.66Z"/><path class="cls-8" d="M26.5,119.77a2.71,2.71,0,0,1,.13,1.48c-.31.83-1.49,1-2.16,1.61-1.63,1.47.46,4.12,0,6.2s-3.27,3.2-3,5.26a10.13,10.13,0,0,0,.81,2.09,1.51,1.51,0,0,1-.53,1.94A5.38,5.38,0,0,1,24.65,144c2.09-.08,4.83.29,5.3,2.2a7,7,0,0,0,.26,1.36c.55,1.25,2.45,1.13,3.81.79A3.41,3.41,0,0,0,38,150.64a2.9,2.9,0,0,0,2.06-3.7c2.24.32,4-1.83,4.28-3.9s-.28-4.21,0-6.29c.27-2.34,1.7-4.43,1.88-6.77.23-3-.75-4.89.28-7.77,1.29-3.58,2.67-5.93-1-9.31a6.78,6.78,0,0,0-4.09-2.09c-.6,0-1.18.14-1.76.08-.94-.09-1.76-.8-2.68-.15-.24.17-.42.42-.64.61-.84.71-2.16.57-3.3.39a2.37,2.37,0,0,0-1.27,0c-1.1.42-1,2.2-2.11,2.57-1.37.45-2,.51-2.78,1.85A4.9,4.9,0,0,0,26.5,119.77Z"/><path class="cls-21" d="M57.1,130.72c0-.05,0-.1-.05-.14-.58-1.8-.51-3.74-.83-5.6-.91-5.35-7.09-6.49-11.74-5.37-6.33,1.52-8,6.2-8.38,12,0,.72-.29,1.66-1,1.7-.36,0-.69-.22-1-.28-.92-.16-1.62.86-1.74,1.78a4,4,0,0,0,1,3.22c.78.84,1.57.74,2.52,1.12,1.5.61.63-.16,1.46,1.27,1,1.83,1.84,3.53,3.68,4.75s1.87,1.75,2,4.09a3.85,3.85,0,0,0,1.37,3.19,3.94,3.94,0,0,0,1.82.47,17.35,17.35,0,0,0,2.6,0,3.12,3.12,0,0,0,1.87-.6,3.44,3.44,0,0,0,.69-2.9c-.2-2.81-.16-2.47,1.87-4,2.82-2.08,6.28-6.59,5.68-10.29C58.54,133.61,57.61,132.23,57.1,130.72Z"/><path class="cls-8" d="M35.53,130.16c-.7.53-1.6.9-1.83,1.7a10.36,10.36,0,0,0-.05,1.48A2,2,0,0,1,32.1,135c-1.5.32-2.66-.95-3.31-2a5.86,5.86,0,0,0-5-2.69,30.36,30.36,0,0,0-3.14.43c-2,.22-4.77-.59-5.66-2.4a1.72,1.72,0,0,1-.22-.72.57.57,0,0,1,.41-.57c.32-.08.63.15.93.3a4.33,4.33,0,0,0,3.38-.54c.8-.62.45-1.82.32-2.8a5.15,5.15,0,0,1,4.28-5.48c.84-.15,1.71-.11,2.54-.28,1.92-.4,3.31-1.84,4.83-3s3.68-2,5.43-1.08c.51.26.94.65,1.47.86,2,.78,3.7-.14,5.67.83s4.56,3,4.42,5.1c0-.64-1-.91-1.59-.7s-1.25.66-1.94.57c-.9-.13-1.48-1.14-2.39-1.22a1.93,1.93,0,0,0-1.69,1.17,4.27,4.27,0,0,1-1.21,1.71c-.83.54-2.07.32-2.88.88s-.85,2-.59,3,.58,2.28-.06,3.18A2.45,2.45,0,0,1,35.53,130.16Z"/><path class="cls-8" d="M55.62,122.14c1.44.29,2,2.07,2,3.54a2.32,2.32,0,0,0,.35,1.75,3.07,3.07,0,0,0,.85.48,3.07,3.07,0,0,1,1.45,3.64,2.92,2.92,0,0,0,1.05-3.66c-.21-.42-.52-.78-.74-1.19-.67-1.28-.38-2.82-.46-4.26a2.77,2.77,0,0,0-.53-1.64,4.26,4.26,0,0,0-1.37-.87,6.64,6.64,0,0,1-2.9-3.07,4.73,4.73,0,0,0-.68-1.25,3.11,3.11,0,0,0-2.12-.73,2.23,2.23,0,0,0-1.88.47,8.69,8.69,0,0,1-.55.76c-1.36,1.27-3-.39-2.75,2.38.15,1.73.27,1.47,1.69,1.46s2.24-.94,3.57.17c.63.53.4,1.37,1.15,1.82C54.21,122.25,55.06,122,55.62,122.14Z"/><path class="cls-21" d="M87.6,148.18c.08-.46.28-1,.74-1.07s.8.72.83,1.3a4,4,0,0,0,1.57-4.59,3.05,3.05,0,0,1,3.72.43,4.83,4.83,0,0,1,1.35,3.7c0,2-1.32,3.87-2.56,5.38-.93,1.13-1.86,2.27-2.71,3.46-.24.34-.75,1.57-1.11,1.71-.84.33-3.28-1.45-4-1.9a.32.32,0,0,1-.14-.14c0-.13.06-.25.16-.35a4.6,4.6,0,0,0,1.39-2.18,11.78,11.78,0,0,0,0-2.59C86.93,150.31,87.42,149.21,87.6,148.18Z"/><path class="cls-22" d="M78,171.22c5.11-3.92,10.19-8.09,13.33-13.69a1.43,1.43,0,0,0,.25-.88,1.41,1.41,0,0,0-.5-.75q-3-2.85-6.24-5.42c.19.15-8.07,7.48-9.35,8.12a36.51,36.51,0,0,1-13.07,3.87c-5.95.56-11.88-.41-17.82-.67-4.11-.18-9.53-.71-11.57,3.81a9.36,9.36,0,0,0,.27,7.49c2.78,6.29,10.35,9.33,17.21,8.9,5-.31,9.7-2.08,14.19-4.15,4.08-1.88,8.36-2.86,12-5.6Z"/><path class="cls-25" d="M98,52.75a36.05,36.05,0,0,1,1,11.54,35.41,35.41,0,0,1-4.6,14.5A37.82,37.82,0,0,1,69.91,96.62a31.74,31.74,0,0,1-8,.59A36,36,0,0,1,34.14,39.88,36,36,0,0,1,93.59,42.1,36.6,36.6,0,0,1,98,52.75Z"/><path class="cls-25" d="M44,28.14A79.59,79.59,0,0,1,63.3,23.36a.72.72,0,0,0,.51-1.15L48.22.81a.73.73,0,0,0-1.31.32L43,27.35A.72.72,0,0,0,44,28.14Z"/><path class="cls-25" d="M67.11,23.42A80.2,80.2,0,0,1,85.84,30.1a.72.72,0,0,0,1.06-.67L85.73,3a.73.73,0,0,0-1.27-.46L66.73,22.23A.72.72,0,0,0,67.11,23.42Z"/><path class="cls-25" d="M89.45,32.78A80.2,80.2,0,0,1,100.2,49.51a.73.73,0,0,0,1.26.11L116.68,28a.73.73,0,0,0-.73-1.14L89.88,31.6A.72.72,0,0,0,89.45,32.78Z"/><path class="cls-25" d="M100.77,53.81a80.11,80.11,0,0,1-.46,19.89.73.73,0,0,0,1,.79L126,65.06a.72.72,0,0,0,0-1.34L101.78,53.08A.72.72,0,0,0,100.77,53.81Z"/><path class="cls-25" d="M97.22,78.87A79.53,79.53,0,0,1,83.77,93.52.73.73,0,0,0,84,94.76L108.8,104a.72.72,0,0,0,.91-1L98.47,79A.73.73,0,0,0,97.22,78.87Z"/><path class="cls-25" d="M40,30.18A79.82,79.82,0,0,0,28.53,46.42a.73.73,0,0,1-1.26.06L13,24.17a.73.73,0,0,1,.78-1.1L39.63,29A.73.73,0,0,1,40,30.18Z"/><path class="cls-25" d="M26.61,50.1a79.73,79.73,0,0,0-1.4,19.84.72.72,0,0,1-1,.7L.41,59A.72.72,0,0,1,.5,57.62l25.16-8.34A.73.73,0,0,1,26.61,50.1Z"/><path class="cls-25" d="M26,73.9A80.16,80.16,0,0,0,37.25,90.29a.72.72,0,0,1-.38,1.2L11,97.15A.73.73,0,0,1,10.24,96l14.49-22.2A.73.73,0,0,1,26,73.9Z"/><path class="cls-25" d="M40.37,92.85a80.07,80.07,0,0,0,18.71,6.74.73.73,0,0,1,.39,1.2L41.75,120.47a.72.72,0,0,1-1.26-.46L39.32,93.53A.72.72,0,0,1,40.37,92.85Z"/><path class="cls-25" d="M81.52,95.1a79.71,79.71,0,0,1-19.29,4.84.72.72,0,0,0-.51,1.15l15.65,21.36a.73.73,0,0,0,1.31-.33L82.5,95.89A.73.73,0,0,0,81.52,95.1Z"/><polygon class="cls-26" points="415.36 231.48 415.36 291.35 424.39 291.35 430.04 255.2 435.13 227.53 415.36 231.48"/><polygon class="cls-8" points="415.36 291.35 410.28 296.43 412.54 299.82 422.7 296.43 422.7 291.35 415.36 291.35"/><polygon class="cls-8" points="450.83 292.36 448.95 299.79 442.74 302.05 439.35 300.36 444.61 291.97 450.83 292.36"/><polygon class="cls-26" points="435.13 225.27 438.51 251.25 443.03 293.04 452.07 292.48 452.07 260.29 456.59 227.53 435.13 225.27"/><path class="cls-27" d="M431.19,143.67c-9.2,2.11-15.39,9.57-17.06,19.69-1.87,11.34-4.68,22.61-6.74,34-2.32,12.77-3.71,25.62-4.92,38.52q17.19,1.56,34.45,1.79c8.91.12,17.95,0,26.49-2.73-1.73-7.35-1.08-14.87-1.18-22.37-.09-6.72-.39-13.45-1-20.15-.87-9.3-1.66-18.64-3.6-27.79-.94-4.42-2-9.13-4-13.21-1.54-3.14-6.13-5.23-9.21-7C442,143,439,143,436.2,143.07A23.86,23.86,0,0,0,431.19,143.67Z"/><path class="cls-9" d="M422.42,121.48c1.47-13,17.57-11.92,22.9-1.92a19.19,19.19,0,0,1,1.6,12.73,10.41,10.41,0,0,1-2.89,5.43c-.68.61-2.07.93-2.6,1.55-.88,1-.52,3.14-.34,4.41-1.62,1.15-3.78,1-5.74.78a1.3,1.3,0,0,1-.75-.25,1.23,1.23,0,0,1-.31-.56c-.5-1.52-.34-1.93-1.73-2.53s-2.69-.65-4-1.46a13.3,13.3,0,0,1-5.19-6.58A24.74,24.74,0,0,1,422.42,121.48Z"/><path class="cls-7" d="M429.52,115.25s10.47-1.66,12.15,2.28c2.53,5.93,4.62,9.74,5.72,13.43l5-6.82-.76-12.72s-4.65-8.74-10.06-8.3-15.93,3.06-15.93,3.06l-6.49,5.56-5.69,2,9,15.76S419.83,116.58,429.52,115.25Z"/><path class="cls-28" d="M466.82,75.24a4.05,4.05,0,0,0-.41-1.14c-.2-.39-.82-1.53-1.63-3Z"/><path class="cls-29" d="M436.11,35l7.7,2.29,9.94,3,7.69,2.29a4.82,4.82,0,0,0,6.11-3.69l1.77-8,2.29-10.33,1.77-8c.63-2.84-1.16-3.78-4-2.08l-4.82,2.91c-1.77-3.09-3.54-6.15-4.22-7.28C458.8,3.51,455.81,1.56,450,1.6l-23.25.13,9.71,17.44a3.65,3.65,0,0,1,.6.88c.46,1,2.22,4.25,4,7.51l-4.72,2.85C433.45,32.1,433.38,34.16,436.11,35Z"/><path class="cls-30" d="M409.21,7.54c-2.49,3.88-8.82,14.19-8.82,14.19A4.88,4.88,0,0,0,402,28.45l15.51,9.3a4.89,4.89,0,0,0,6.7-1.72L433.76,20c.83-1.41,1.84-1.62,2.65-.79L426.7,1.73l-5.6,0C417.07,1.79,412.45,2.51,409.21,7.54Z"/><path class="cls-29" d="M381.79,72.72c1.74,3.47,6.58,12.4,10.12,18.94l11-18.38c1.29-2.26,3.69-6.46,5.7-9.93l5.62,3.2c2.86,1.62,4.62.64,3.93-2.18l-2-8c-.7-2.82-1.84-7.44-2.54-10.27l-2-7.94a4.8,4.8,0,0,0-6.2-3.53l-7.63,2.49L388,40.38l-7.63,2.49c-2.71.88-2.6,2.93.26,4.55l4.14,2.36c-2.11,4.19-4.61,9.14-5.24,10.56C378.37,62.91,379.07,67.33,381.79,72.72Z"/><path class="cls-30" d="M402.9,73.28l-11,18.38c2,3.64,3.55,6.54,4,7.35,1.16,2.26,2.82,6.67,13.3,6.61l15.25-.09a4.92,4.92,0,0,0,4.82-5l-.1-18.41a4.92,4.92,0,0,0-4.88-4.93l-20.82.12c-1.88,0-2.12-1.26-1.46-2.45Z"/><path class="cls-29" d="M466.82,75.24l9.09,18.56c3.18-6,8.57-16.4,10.78-20.9,2.95-6,3.78-11.24,2.42-14S481,42.83,481,42.83A4.39,4.39,0,0,0,474.67,41l-15.4,9.69a5.32,5.32,0,0,0-1.77,6.94s4.68,8.61,7.28,13.43c.81,1.49,1.43,2.63,1.63,3A4.05,4.05,0,0,1,466.82,75.24Z"/><path class="cls-30" d="M473.66,98c.36-.62,1.18-2.14,2.25-4.16l-9.09-18.56c.2,1.08-.34,1.81-1.64,1.82l-9.4.06,0-5.76c0-3.34-1.73-4.43-3.79-2.41l-5.78,5.67L438.68,82l-5.78,5.67a5,5,0,0,0,.06,7.26l5.88,5.56,7.61,7.19,5.88,5.57c2.09,2,3.78.86,3.75-2.48l-.05-5.47,7.19,0C469.76,105.16,472.23,100.43,473.66,98Z"/><path class="cls-9" d="M403.73,114.18l1.34-4.19,2.06-1.52c.36-1.11,1.88-3.83.2-4.33-1.31-.39-1.49,1-2.58,1.17s-3-.57-4.06-.91a1.88,1.88,0,0,0-1.16-.12c-1.11.39-.18,2.68-.08,3.42a6.68,6.68,0,0,1,.21,1.59l-.61,4.43Z"/><path class="cls-27" d="M405.41,132.3c-2.86-5.17.43-15.46.88-20.43a13.67,13.67,0,0,0-5.47-1.44c-2.44-.11-2.52.09-3.3,2.24a71.24,71.24,0,0,0-2.7,11.28c-1.75,9.43-4.41,17.09,2.16,25.69a47.54,47.54,0,0,0,6.19,6.26c2.47,2.19,4.93,4.41,7.41,6.6,1.07.94,3,3.38,4.41,3.47a3.19,3.19,0,0,0,2-.9c7-5.35,14.37-11.37,16.41-19.91a1.37,1.37,0,0,0-.08-1.14,1.39,1.39,0,0,0-1.05-.4,52,52,0,0,1-25.19-9.42A5.64,5.64,0,0,1,405.41,132.3Z"/><path class="cls-9" d="M472.45,104.6a7.18,7.18,0,0,0-.14,1.59l.83,4.4-4.66.68-1.54-4.11-2.12-1.42-.89-2.37c-.22-.59-.39-.75-.06-1.18a2.38,2.38,0,0,1,1.88-.61c.4.16.59.6.79,1a2.11,2.11,0,0,0,1,1.09,2.32,2.32,0,0,0,1.75-.26,7.57,7.57,0,0,0,2.84-2.19c.07-.1.17-.22.29-.2s.15.09.2.17C473.4,102.35,472.55,103.39,472.45,104.6Z"/><path class="cls-27" d="M466.59,128.9a14.67,14.67,0,0,0,1.4-4.19c.81-4.92-1.49-10.69-2.17-15.62a13.67,13.67,0,0,1,5.39-1.7c2.44-.23,2.52,0,3.41,2.07a71.74,71.74,0,0,1,3.24,11.14c2.2,9.34,5.23,16.86-.92,25.76a46.26,46.26,0,0,1-5.88,6.56c-5.22,5.07-9.54,10.2-15.32,14.65a4.65,4.65,0,0,1-2.82,1.27c-1.78-.07-2.78-2-3.41-3.67q-2.25-5.89-4.49-11.81c-.9-2.36-1.8-4.73-2.56-7.14a1.66,1.66,0,0,1,1-2.53c4.82-2.12,10.21-2.92,14.71-5.65A23.65,23.65,0,0,0,466.59,128.9Z"/><path class="cls-31" d="M139.35,145.24c-1.86-.75-3.47-1.47-5.44-1.33a10.66,10.66,0,0,0-6.84,2.93,35.21,35.21,0,0,0-9.86,15.67c-2.45,7.68-3.65,15.91-4.51,24a121.48,121.48,0,0,0,.49,29.64,3,3,0,0,0,2.73,2.91,63,63,0,0,0,9,1.1c11.12.71,22.2,1,33.3,1.32a2.38,2.38,0,0,0,1.76-.36,2.76,2.76,0,0,0,.76-2.28,132,132,0,0,0-1.87-22.2c-1-6-2.46-12-3.6-17.92A98.77,98.77,0,0,1,153.7,165c-.16-2.94.42-6-.7-8.77C150.43,149.94,145.3,147.67,139.35,145.24Z"/><path class="cls-32" d="M160.13,115.39a27.83,27.83,0,0,0-6.57-3.89,16.15,16.15,0,0,0-6.12-1.7,13.58,13.58,0,0,0-9.38,3.07c-3.21,2.75-4.88,6.41-6.6,10.23a54.8,54.8,0,0,0-3,9,16.92,16.92,0,0,0-.71,4.55,3.07,3.07,0,0,0,1.7,2.67,54.61,54.61,0,0,0,16.75,7.51,13.22,13.22,0,0,0,5.84.49c2.36-.4,4.59-.76,6.95-1.05a2.85,2.85,0,0,0,1.44-.46,3.27,3.27,0,0,0,1-1.37c1.85-4.32,3.77-8.28,4.28-13.08A20.35,20.35,0,0,0,162.67,118,10.82,10.82,0,0,0,160.13,115.39Z"/><path class="cls-33" d="M159.45,134.25a5.94,5.94,0,0,0,.85-2.52c.14-1.31,0-3.09-1.73-2.92-.09,0-.16.12-.24.17l0-.53c.12-1.9.61-3.72.38-5.64a10.14,10.14,0,0,0-1.36-3.63,6.53,6.53,0,0,0-1.45-2.15c-2.71-2.13-5.26-3.32-8.84-3.13-2.31.12-3.78.9-5.93,2.51-.49.37-3.92,3.09-3.13,4.47a3,3,0,0,0-3.64,1.59,5.52,5.52,0,0,0-.79,2.52,2.58,2.58,0,0,0,.89,2.07c-.57,1.53-1.27,2.73-1.23,4.46A10.46,10.46,0,0,0,136,138.7a6.05,6.05,0,0,1,2.29,6.05,3.6,3.6,0,0,0,.08,1.76,5,5,0,0,0,5.71,1.85c1-.65,1-1.82,1.72-2.69,1.43-1.67,3.59-2.13,5.5-3a13.41,13.41,0,0,0,5.37-4.13,10,10,0,0,0,1.44-3.28A2.84,2.84,0,0,0,159.45,134.25Z"/><path class="cls-32" d="M141.49,118.61s0,.08,0,.1c1-.43,1.66-1.21,2.82-1.34a8.26,8.26,0,0,1,3.33.38c4,1.12,7.43,2.49,10,6a22.12,22.12,0,0,0,2-4.1,2.07,2.07,0,0,0,.18-1.2,1.4,1.4,0,0,0-.54-.76,28,28,0,0,0-10.46-5.29c-1.88-.47-3.89-.55-5.41.85S142,116.74,141.49,118.61Z"/><path class="cls-32" d="M157.86,132.25a5.72,5.72,0,0,1-.28,1.06,15.44,15.44,0,0,1-6.16,8.11c.79-.18,1.78.66,2.34.89a16.26,16.26,0,0,0,3.75.91.94.94,0,0,0,.62-.06,1.09,1.09,0,0,0,.47-.52c1.44-2.86,3.1-5.51,3.75-8.7.72-3.51.4-7,.09-10.6a5.1,5.1,0,0,0-4.82-5.48c.81.42,1.08,2.11,1.12,2.75a29,29,0,0,1-.06,3.53A57.43,57.43,0,0,1,157.86,132.25Z"/><path class="cls-32" d="M137.36,123.4a6.4,6.4,0,0,0-.49,1,15.9,15.9,0,0,0-.68,10.45c-.48-.65-1.79-.69-2.38-.89a17.69,17.69,0,0,1-3.45-1.74,1,1,0,0,1-.43-.46,1.17,1.17,0,0,1,0-.74c.76-3.16,1.31-6.45,2.9-9.31,1.76-3.15,4.23-5.5,6.76-8a6,6,0,0,1,3.25-2,6.14,6.14,0,0,1,3.73,1c-.87-.17-2,1-2.43,1.41a31.4,31.4,0,0,0-2.15,2.66A62.43,62.43,0,0,0,137.36,123.4Z"/><path class="cls-33" d="M155,236.32c-.18,8.28.74,15.83.35,24.28s-2.23,17.49-2.88,26.06c-2.36-.31-4.69-.5-7-1-.73-7.6-1.22-17.79-2.05-24.77s-1.92-10.48-2.69-16.81C145.45,241.59,150.16,238.88,155,236.32Z"/><path class="cls-8" d="M153.06,285.79a4.41,4.41,0,0,0,.33,3.18c.65,1,1.83,1.3,2.35,2.36a2.6,2.6,0,0,1,.09,1.51,2,2,0,0,1-.42,1.11,2.69,2.69,0,0,1-1.76.74,10,10,0,0,1-3,.16,10.55,10.55,0,0,1-4.56-2.21,4.58,4.58,0,0,1-2.26-3.26,4.34,4.34,0,0,1,.29-1.43,17.94,17.94,0,0,0,.53-3.79c2.9.14,5.8.3,8.69.45C153.24,285,153.11,285.37,153.06,285.79Z"/><path class="cls-33" d="M131.1,236.86c-1.63,8.52-1.73,16.24-4.35,24.82s-7.7,17.19-11.68,25.41a54.45,54.45,0,0,1-6.15-3.32c2.29-7.47,5.19-17.58,6.18-24.67s.44-10.59.74-17C121,240.54,126,238.67,131.1,236.86Z"/><path class="cls-8" d="M116,286.43a4.71,4.71,0,0,0-.91,3.21c.27,1.17,1.28,1.92,1.44,3.12a2.84,2.84,0,0,1-.39,1.49,1.85,1.85,0,0,1-.75.93,2.5,2.5,0,0,1-1.88.12,10.19,10.19,0,0,1-2.92-.89,10.46,10.46,0,0,1-3.59-3.68,4.58,4.58,0,0,1-1-3.88,4.28,4.28,0,0,1,.78-1.28,19.76,19.76,0,0,0,1.95-3.48c2.63,1.14,5.29,2.21,8,3.25C116.48,285.71,116.21,286.05,116,286.43Z"/><path class="cls-34" d="M163.38,215.74c0-2.25,0-4.5-.08-6.75a2.69,2.69,0,0,0-1.64-2.76c-3.25-2.14-5.12-3.94-6.72-7.53a54.48,54.48,0,0,1-3-9.28c-.71-2.74-1.93-10.78-3.29-14-.64-1.51-.37.07-.84-.76a82.37,82.37,0,0,1,2.23-23c.31-1.24.61-1,.22-2.29a10.7,10.7,0,0,0-2.66-1.57c-3.21,8.13-4.59,16.54-5.48,25.2-3.68-.86-7.42-1.68-11.09-2.54.37-9.14,2.33-17.94,3.91-26.93,0,0-2.79-.57-3.1-.31-1,.9-.7.87-1.1,2.18a194.29,194.29,0,0,0-5.41,24c-.15,0-.26-.06-.42-.06-.48,0-.84-.17-1.26.23a2.93,2.93,0,0,0-.69,1.59c-.92,4.3-1.58,8.66-2.34,13-.38,2.13-.67,4.31-1.25,6.42-1.49,5.4-3.36,10.21-6.87,14.63a8.55,8.55,0,0,0-1.26,1.72,6.59,6.59,0,0,0-.44,2.15c-.21,3-.22,6.23-.19,9.24.16,16.66,1.2,33-1.32,49.59-.26,1.7-.57,3.25-.85,5.11-.2,1.24-1,3.5-.24,4.8.39.71,1.64.84,2.26,1.11.88.4,1.68.66,2.53,1,1.69.61,3.36,1.16,5,1.86a208.23,208.23,0,0,0,20-32.62c1.07,10.46,2.72,20.81,4,31.27,0,.27,8.77.78,9.53.45,2.27-1,2-3.44,2.74-5.78,2.12-7.22,4-14.48,5.41-21.89A206,206,0,0,0,163.38,215.74Z"/><path class="cls-33" d="M149.75,106.19a2.18,2.18,0,0,0,.38,0c.44-.06,1.05-.52.94-1-.35-1.39-2.69-1.28-1.51-2.92.32-.44,3.57-1.17,3.59-1.69.1-2.63-1.67-4.48-4.07-4.33-1.63.1-2.52,1.44-3.54,2.45-1.59,1.57-2.77,3.42-4.41,4.94a.8.8,0,0,0-.33.5,1.1,1.1,0,0,0,.15.64c.78,1.74,1.46,3.27,3.47,3.71.29.06.5-.15.72-.28.65-.38,1.26-.82,1.9-1.21a5,5,0,0,1,1.55-.72A7.55,7.55,0,0,1,149.75,106.19Z"/><path class="cls-31" d="M124.13,115.42c.89-.81,1.93-1.32,3.32-2.33,1.68-1.22,12-10.11,12.25-10.12,4.92-.22,4,4.62,7.58,5.5-3.58,3.55-6.85,6-10.54,9.55-6.44,6.25-9,10.57-6.93,19.82.57,2.61,2.21,4.44.78,7.08-.53,1-1.59,1.52-2.31,2.45-4.68,5.94-6.65,13-9.72,19.86-.23.51-.69.83-1.21.52a1,1,0,0,1-.32-.63c-.59-2.28-.92-4.71-1.45-7s-1.72-4.07-1.78-6.45c-.13-4.82-.61-9.55,0-14.43C114.89,130.07,117.07,121.93,124.13,115.42Z"/><path class="cls-33" d="M162.91,110.81a3.73,3.73,0,0,1-.28-.31c-.29-.36-.55-1.13-.18-1.44,1.2-1,3,1,2.82-1.4-.05-.66-2.79-3.57-2.52-4.13,1.37-2.85,3.93-2.54,5.92-.8,1.34,1.17,1.57,3.15,1.91,4.77.52,2.5.51,5,.92,7.46a.8.8,0,0,1-.56,1.07c-1.76.84-3.25,1.52-5.08.46-.25-.15-.31-.48-.41-.74-.3-.77-.53-1.56-.82-2.34a6.54,6.54,0,0,0-.83-1.7A9.45,9.45,0,0,0,162.91,110.81Z"/><path class="cls-31" d="M176.31,136.2c-.08-1.09-.58-2.27-.76-4-.21-2.13-2.31-16.59-2.49-16.77-3.68-3.6-6.1.86-9.49-.93.69,5.05,1.55,9.63,1.86,14.72.53,8.89-.68,13.3-7.93,18.76-1.46,1.1-3.11,1.32-4.44,2.11-1.52.92-1.74.91-1.93,2.72-.3,2.87,0,6-.12,9a25.69,25.69,0,0,0,1.24,10,1.36,1.36,0,0,0,.63.73.53.53,0,0,0,.53-.07,50.06,50.06,0,0,0,8-6.31c2.81-2.58,5.69-3.85,8-7.46C173.84,151.83,176.91,144.78,176.31,136.2Z"/><path class="cls-35" d="M175.89,66.28c-12.74,9.87-21.94,32.57-27.13,47l9.35,3.64c4.68-16.48,11.16-34.11,22.21-47.4Z"/><path class="cls-36" d="M242.87,31.29C227.5,28,205.56,27,192.06,34.72s-16,21.08-16.5,34.92c12.15,6.66,24.89,11.28,38.45,3.63S237.87,46.2,242.87,31.29Z"/><path class="cls-37" d="M175.75,69.54c1,.69,2.11,1.3,3.2,1.91l39.1-26L175.74,65.81C175.71,67.05,175.68,68.3,175.75,69.54Z"/><path class="cls-36" d="M131.31,22.16c-2.85,13.8-3.68,33.24,3.25,45.31s18.83,14.24,31.17,14.62c5.89-10.86,10-22.24,3.07-34.3S144.66,26.64,131.31,22.16Z"/><path class="cls-37" d="M165.64,81.94c.62-.92,1.16-1.89,1.7-2.86L144,44.26q9.17,18.85,18.32,37.7C163.43,82,164.54,82,165.64,81.94Z"/><path class="cls-29" d="M175.75,69.54c20,3.76,42.87-1.07,56.76-16.58C220.93,77,198.68,84.21,175.75,69.54Z"/></svg>