<svg xmlns="http://www.w3.org/2000/svg" viewBox="0 0 546.67 290.84"><defs><style>.cls-1{isolation:isolate;}.cls-2{opacity:0.15;}.cls-23,.cls-3,.cls-4,.cls-5,.cls-9{mix-blend-mode:overlay;}.cls-23,.cls-3{opacity:0.2;}.cls-4,.cls-9{opacity:0.5;}.cls-5{opacity:0.4;}.cls-6{fill:#8f9bf0;}.cls-7{fill:#6073c9;}.cls-8{fill:#6476dd;}.cls-9{fill:#fcf2d6;}.cls-10{fill:#7b8be2;}.cls-11{fill:#ce6c2f;}.cls-12{fill:#3caa26;}.cls-13{fill:#52c43e;}.cls-14{fill:#3a991f;}.cls-15{fill:#ffe350;}.cls-16{fill:#ffc02a;}.cls-17{fill:#e6a679;}.cls-18{fill:#ffca3e;}.cls-19{fill:#ffdb4d;}.cls-20{fill:#f4b69f;}.cls-21,.cls-23{fill:#fff;}.cls-22{fill:#ffebe5;}.cls-24{fill:#ffe0c5;}.cls-25{fill:#f7f0dd;}.cls-26{fill:#e4dbab;}.cls-27{fill:#eadcb2;}</style></defs><g class="cls-1"><g id="Layer_1" data-name="Layer 1"><g class="cls-2"><path d="M534.61,206.46a2.36,2.36,0,0,1-2.16,2.53h-5.76a2.37,2.37,0,0,1-2.16-2.53V202.1a2.36,2.36,0,0,1,2.16-2.52h5.76a2.36,2.36,0,0,1,2.16,2.52Z"/><path d="M535.45,205a1.09,1.09,0,0,1-1.09,1.1h-9.57a1.1,1.1,0,0,1-1.1-1.1h0a1.09,1.09,0,0,1,1.1-1.09h9.57a1.09,1.09,0,0,1,1.09,1.09Z"/><rect x="514.14" y="245.41" width="31.19" height="32.85" rx="4.54"/><path d="M514.15,248.9s-.58-29.35,11.51-41.76h4.24V248.9Z"/><path d="M545.33,248.9s.57-29.35-11.52-41.76h-4.24V248.9Z"/><path d="M546.67,245.53a2.45,2.45,0,0,1-2.45,2.44h-29.3a2.44,2.44,0,0,1-2.44-2.44v-.24a2.44,2.44,0,0,1,2.44-2.44h29.3a2.45,2.45,0,0,1,2.45,2.44Z"/><path d="M546.67,251.88a2.45,2.45,0,0,1-2.45,2.44h-29.3a2.44,2.44,0,0,1-2.44-2.44v-.24a2.44,2.44,0,0,1,2.44-2.44h29.3a2.45,2.45,0,0,1,2.45,2.44Z"/><path d="M514.92,255.55h29.3a2.45,2.45,0,0,1,2.45,2.45v.23a2.44,2.44,0,0,1-2.44,2.44h-29.3a2.44,2.44,0,0,1-2.44-2.44V258A2.44,2.44,0,0,1,514.92,255.55Z"/><path d="M546.67,264.58a2.45,2.45,0,0,1-2.45,2.44h-29.3a2.44,2.44,0,0,1-2.44-2.44v-.24a2.44,2.44,0,0,1,2.44-2.44h29.3a2.45,2.45,0,0,1,2.45,2.44Z"/><path d="M546.67,270.92a2.45,2.45,0,0,1-2.45,2.45h-29.3a2.45,2.45,0,0,1-2.44-2.45v-.23a2.44,2.44,0,0,1,2.44-2.44h29.3a2.45,2.45,0,0,1,2.45,2.44Z"/><path class="cls-3" d="M546.67,245.53v-.24a2.45,2.45,0,0,0-1.5-2.25c-.51-9.21-2.65-26.95-11.36-35.9h-8.15c-.08.09-.16.2-.25.29,8.78,3.92,15.16,15.81,15.16,29.86,0,17.25-9.62,31.23-21.49,31.23a15.3,15.3,0,0,1-4.94-.84v.71a2.44,2.44,0,0,0-1.66,2.3v.23a2.44,2.44,0,0,0,1.66,2.31v.49a4.54,4.54,0,0,0,4.54,4.54h22.11a4.54,4.54,0,0,0,4.54-4.54v-.63a2.45,2.45,0,0,0,1.34-2.17v-.23a2.43,2.43,0,0,0-1.34-2.16v-1.79a2.43,2.43,0,0,0,1.34-2.16v-.24a2.42,2.42,0,0,0-1.34-2.16v-1.79a2.42,2.42,0,0,0,1.34-2.16V258a2.43,2.43,0,0,0-1.34-2.16V254a2.42,2.42,0,0,0,1.34-2.16v-.24a2.42,2.42,0,0,0-1.39-2.19,4.85,4.85,0,0,0-.08-.55h.13s0-.43,0-1.21A2.42,2.42,0,0,0,546.67,245.53Z"/><path class="cls-4" d="M523.18,265.68a.88.88,0,0,1-.85.88h0a.87.87,0,0,1-.87-.85l-.6-40.57a.85.85,0,0,1,.85-.87h0a.86.86,0,0,1,.87.84Z"/><polygon points="256.89 45.91 222.79 46.39 222.39 17.61 256.48 17.13 256.89 45.91"/><path d="M264.41,13.91A11.06,11.06,0,0,1,253.5,25.14L226,25.52a11.06,11.06,0,0,1-11.23-10.91h0A11.08,11.08,0,0,1,225.73,3.39L253.18,3a11.07,11.07,0,0,1,11.23,10.91Z"/><path d="M299.2,84.28,298.89,63a17.68,17.68,0,0,0-11.73-16.41v0L256.67,30l-18.18.26h0l-15.92.23-29,17.47v0a17.69,17.69,0,0,0-11.26,16.73l.3,21.26a17.62,17.62,0,0,0,5.33,12.4h0s6.16,7.57-.42,14.18c0,0,0,0,0,0a13.74,13.74,0,0,0,.43,20.49,3.58,3.58,0,0,0,.26.29c2.67,2.21,2.1,5.62-.51,7.71a.39.39,0,0,1,0,.06,13.81,13.81,0,0,0,2,21.33l.05,0c4.81,4.08,8.31,16.21-.33,23.76v0a13.75,13.75,0,0,0,.58,21.94v0s8.1,7.38-.78,18.05c-.25.29-.5.58-.73.87a1,1,0,0,1-.12.16h0a17.62,17.62,0,0,0-3.57,10.89l.3,21.26A17.71,17.71,0,0,0,203,277l42.21-.6h0l39-.55a17.72,17.72,0,0,0,17.45-18l-.31-21.25a17.69,17.69,0,0,0-3.87-10.79h0l-.15-.17c-.23-.27-.47-.53-.71-.79-9.23-10.44-1.33-18.06-1.33-18.06v-.05a13.74,13.74,0,0,0,0-22v0c-8.85-7.29-5.7-19.51-1-23.73l0-.05a13.81,13.81,0,0,0,1.37-21.39v0c-2.67-2-3.33-5.42-.73-7.71a3.22,3.22,0,0,0,.24-.28,13.74,13.74,0,0,0-.14-20.5.42.42,0,0,0,0-.06c-6.68-6.34-.94-14-.81-14.15A17.69,17.69,0,0,0,299.2,84.28Z"/><path class="cls-4" d="M295.38,206.79v0a13.85,13.85,0,0,0,5.46-11.17,13.6,13.6,0,0,0-1.79-6.53,134.59,134.59,0,0,1-114,66.2l.05,4.27a17.72,17.72,0,0,0,18,17.46l42.21-.6,39-.55a17.71,17.71,0,0,0,17.45-18l-.3-21.25a17.64,17.64,0,0,0-3.88-10.79h0l-.15-.17c-.22-.28-.45-.53-.69-.79C287.48,214.42,295.38,206.79,295.38,206.79Z"/><path class="cls-4" d="M295.19,131.56a13.74,13.74,0,0,0-.14-20.5.42.42,0,0,0,0-.06,11.19,11.19,0,0,1-2.06-2.63L189.46,109.9a10.75,10.75,0,0,1-2,2.63s0,0,0,0a13.74,13.74,0,0,0,.43,20.49,3.58,3.58,0,0,0,.26.29,4.47,4.47,0,0,1,1.71,3.2L293.34,135a4.46,4.46,0,0,1,1.61-3.18A3.22,3.22,0,0,0,295.19,131.56Z"/><path class="cls-4" d="M295.31,206.8v-.05a13.74,13.74,0,0,0,0-22v0a15.24,15.24,0,0,1-3.15-3.53l-99.79,1.49a15.61,15.61,0,0,1-3,3.55v0a13.75,13.75,0,0,0,.58,21.94v0a11.71,11.71,0,0,1,2.85,4.77l99.83-1.49A11.87,11.87,0,0,1,295.31,206.8Z"/><path class="cls-4" d="M298.89,63a17.68,17.68,0,0,0-11.73-16.41v0l-2.05-1.11L195.4,46.82l-1.85,1.11v0a17.69,17.69,0,0,0-11.26,16.73l.3,21.26a17.54,17.54,0,0,0,2.83,9.31l111.26-1.64a17.61,17.61,0,0,0,2.52-9.33Z"/><path class="cls-4" d="M211.58,238.28A3.67,3.67,0,0,1,208,242h0a3.67,3.67,0,0,1-3.73-3.62L201.66,64.68A3.67,3.67,0,0,1,205.28,61h0A3.67,3.67,0,0,1,209,64.57Z"/><path d="M347.55,271.11a5.18,5.18,0,0,1-5.18,5.17h0a5.18,5.18,0,0,1-5.17-5.17v-6.23a5.17,5.17,0,0,1,5.17-5.17h0a5.17,5.17,0,0,1,5.18,5.17Z"/><path d="M440.5,271.11a5.17,5.17,0,0,1-5.17,5.17h0a5.17,5.17,0,0,1-5.17-5.17v-6.23a5.16,5.16,0,0,1,5.17-5.17h0a5.16,5.16,0,0,1,5.17,5.17Z"/><path d="M302.36,86.37h95.23c5.17,0,9.37,2.25,9.37,5l5.61,51.41H287.37L293,91.4C293,88.62,297.19,86.37,302.36,86.37Z"/><path d="M393.73,102.49A3.71,3.71,0,0,1,390,106.2H309.69a3.72,3.72,0,0,1-3.72-3.71h0a3.72,3.72,0,0,1,3.72-3.71H390a3.71,3.71,0,0,1,3.71,3.71Z"/><polygon points="290.46 114.59 287.37 142.81 412.57 142.81 409.49 114.59 290.46 114.59"/><path d="M298,273.13H402c5.65,0,10.23-5.19,10.23-11.59l6.14-118.73H281.57l6.14,118.73C287.71,267.94,292.3,273.13,298,273.13Z"/><path d="M401.11,202.73A10.23,10.23,0,0,1,390.88,213H310.62a10.23,10.23,0,0,1-10.23-10.24V191.15a10.23,10.23,0,0,1,10.23-10.23h80.26a10.23,10.23,0,0,1,10.23,10.23Z"/><path d="M374.21,232.2H325.52a10.24,10.24,0,0,0-10.24,10.23v30.7h69.17v-30.7A10.24,10.24,0,0,0,374.21,232.2Z"/><polygon class="cls-5" points="281.57 142.81 282.72 164.9 417.22 164.9 418.37 142.81 281.57 142.81"/><path class="cls-5" d="M298,273.13H402c5,0,9.09-4,10-9.31H287.92C288.86,269.13,293,273.13,298,273.13Z"/><path class="cls-3" d="M367.5,142.81a67.81,67.81,0,0,1-80.45,105.83l.66,12.9c0,6.4,4.59,11.59,10.24,11.59H402c5.65,0,10.23-5.19,10.23-11.59l6.14-118.73Z"/><path d="M417.9,120.12H280.09c-5.18,0-9.38,4.59-9.38,10.24v17.29H427.28V130.36C427.28,124.71,423.08,120.12,417.9,120.12Z"/><path d="M496.13,191.17c0,2.91-2,5.26-4.51,5.26h-12c-2.48,0-4.5-2.35-4.5-5.26v-9.1c0-2.89,2-5.24,4.5-5.24h12c2.49,0,4.51,2.35,4.51,5.24Z"/><path d="M519.05,215.86c0,16.14-14.89,29.22-33.25,29.22S452.54,232,452.54,215.86s14.89-29.23,33.26-29.23S519.05,199.71,519.05,215.86Z"/><path d="M519.05,275.54a5.25,5.25,0,0,1-5.25,5.25h-56a5.25,5.25,0,0,1-5.25-5.25V211.13a5.25,5.25,0,0,1,5.25-5.25h56a5.25,5.25,0,0,1,5.25,5.25Z"/><path d="M522.9,215.68a5.25,5.25,0,0,1-5.25,5.25h-63a5.25,5.25,0,0,1-5.25-5.25v-.5a5.25,5.25,0,0,1,5.25-5.25h63a5.25,5.25,0,0,1,5.25,5.25Z"/><path d="M522.9,229.33a5.25,5.25,0,0,1-5.25,5.26h-63a5.25,5.25,0,0,1-5.25-5.26v-.5a5.25,5.25,0,0,1,5.25-5.25h63a5.25,5.25,0,0,1,5.25,5.25Z"/><path d="M522.9,243a5.24,5.24,0,0,1-5.25,5.24h-63a5.24,5.24,0,0,1-5.25-5.24v-.51a5.25,5.25,0,0,1,5.25-5.25h63a5.25,5.25,0,0,1,5.25,5.25Z"/><path d="M522.9,256.63a5.25,5.25,0,0,1-5.25,5.26h-63a5.25,5.25,0,0,1-5.25-5.26v-.49a5.24,5.24,0,0,1,5.25-5.25h63a5.24,5.24,0,0,1,5.25,5.25Z"/><path d="M522.9,270.29a5.25,5.25,0,0,1-5.25,5.25h-63a5.25,5.25,0,0,1-5.25-5.25v-.5a5.25,5.25,0,0,1,5.25-5.25h63a5.25,5.25,0,0,1,5.25,5.25Z"/><path d="M497.88,188a2.29,2.29,0,0,1-2.28,2.28h-20a2.29,2.29,0,0,1-2.28-2.28h0a2.28,2.28,0,0,1,2.28-2.28h20a2.28,2.28,0,0,1,2.28,2.28Z"/><polygon points="474.56 189.41 470.64 189.41 459.53 162.95 462.81 164.07 471.9 187.78 474.43 187.72 474.56 189.41"/><polygon points="496.51 189.41 500.43 189.41 511.55 162.95 508.26 164.07 499.18 187.78 496.64 187.72 496.51 189.41"/><path d="M459.53,163s25.09-24.71,52,0l-3.29,1.13s-21.87-19.77-45.45,0C462.81,164.08,460.21,164.49,459.53,163Z"/><path class="cls-3" d="M522.9,215.68v-.5a5.23,5.23,0,0,0-3.95-5.07,5.11,5.11,0,0,0-1.23-2.44,29.88,29.88,0,0,0-13.5-16.13,43.05,43.05,0,0,1,13.43,30.91c0,25.2-22.73,45.62-50.76,45.62a56,56,0,0,1-15.69-2.23,5.2,5.2,0,0,0-1.81,4v.5a5.26,5.26,0,0,0,3.15,4.81v.44a5.25,5.25,0,0,0,5.25,5.25h56a5.25,5.25,0,0,0,5.25-5.25v-.21a5.23,5.23,0,0,0,3.85-5v-.5a5.24,5.24,0,0,0-3.85-5v-3.08a5.22,5.22,0,0,0,3.85-5v-.49a5.22,5.22,0,0,0-3.85-5V248a5.24,5.24,0,0,0,3.85-5v-.51a5.22,5.22,0,0,0-3.85-5v-3.07a5.25,5.25,0,0,0,3.85-5v-.5a5.24,5.24,0,0,0-3.85-5v-3.07A5.23,5.23,0,0,0,522.9,215.68Z"/><path class="cls-4" d="M467,260.72a1.15,1.15,0,0,1-1.13,1.17h0a1.15,1.15,0,0,1-1.17-1.13l-.8-54.3a1.16,1.16,0,0,1,1.13-1.17h0a1.17,1.17,0,0,1,1.17,1.13Z"/><path d="M425.2,168.94s-24.34-30.15-15.11-32.13,11.11,7.91,15.11,5.93-.17-13.84,4.88-13.84,1.76,15.16,5.06,15.82,7.25-6.6,10.54-2.63,1.32,11.85,6.59,11.85-.24,6.93-12.31,15S425.82,181.29,425.2,168.94Z"/><path d="M397.65,275.48s-26.1-14-16.12-41.93,28.17-56,36.94-60.9c18.83-10.47,44.92-4,56.9,40.93s13,66.89-20,66.89S407.44,283.51,397.65,275.48Z"/><path class="cls-3" d="M397.65,275.48c9.79,8,24.81,5,57.76,5s31.94-22,20-66.89c-9.09-34.08-26.29-46-42.29-45.22-.62,4.84-1.75,21.63,11.19,28.43,15.2,8,20.78,14.64,10,24.62S465,260,444.27,260c-19.09,0-36.39,14.62-63.39-4.29C385.36,268.89,397.65,275.48,397.65,275.48Z"/><path d="M422.29,165.19l.32,4.57a35.61,35.61,0,0,0,21.66,1.14v-5S437.29,169,422.29,165.19Z"/><path d="M98.11,278.67s-40.94-7.16-24.56-53.21S113.81,161,119.6,158.94c11.6-4.09,31.72-7.16,49.12,43s25.58,75.73,0,76.75S98.11,278.67,98.11,278.67Z"/><path class="cls-3" d="M98.11,278.67s45,1,70.61,0,17.39-26.6,0-76.75c-9.84-28.37-20.56-39.7-30.11-43.45a18.17,18.17,0,0,0-1.62,1,51.79,51.79,0,0,0,5,13.82c4,7.67,1.62,29.67-11.38,39.91s11.47,29.16,4.31,46.05S94,254.62,81.73,245.92c-5-3.53-8.94-4.17-11.91-3.71C67.62,273.3,98.11,278.67,98.11,278.67Z"/><path d="M122.27,158.08s-25.18-31.2-15.64-33.25,11.5,8.19,15.64,6.14-.17-14.33,5.06-14.33,1.82,15.69,5.22,16.38,7.51-6.83,10.93-2.73,1.35,12.28,6.82,12.28-.25,7.16-12.75,15.51S122.91,170.87,122.27,158.08Z"/><path d="M119.26,154.2l.34,4.74A36.85,36.85,0,0,0,142,160.12v-5.18S134.79,158.16,119.26,154.2Z"/><path d="M86.78,228.12s9.79,20.88,21,14.73-4.09-29.39,6.15-38.49,20.07-32.12,13.36-35.7-21,9.72-25.65,16.89S82.18,220.17,86.78,228.12Z"/><rect x="18.13" y="188.88" width="11.95" height="10.09" transform="matrix(1, -0.01, 0.01, 1, -2.78, 0.37)"/><path d="M32.79,187.67A3.9,3.9,0,0,1,29,191.61l-9.63.13a3.88,3.88,0,0,1-3.93-3.82h0A3.88,3.88,0,0,1,19.23,184l9.62-.14a3.89,3.89,0,0,1,3.94,3.83Z"/><path d="M45,212.34l-.1-7.45a6.19,6.19,0,0,0-4.11-5.75h0l-10.69-5.84-6.38.1h0l-5.58.08L8,199.6H8A6.22,6.22,0,0,0,4,205.47l.11,7.45A6.17,6.17,0,0,0,6,217.27H6s2.16,2.66-.14,5v0a4.86,4.86,0,0,0-1.53,3.6A4.81,4.81,0,0,0,6,229.44l.1.1a1.68,1.68,0,0,1-.18,2.71,0,0,0,0,0,0,0,4.85,4.85,0,0,0,.69,7.48h0c1.69,1.44,2.91,5.69-.12,8.33h0a4.82,4.82,0,0,0,.21,7.69v0s2.84,2.59-.27,6.33a3.88,3.88,0,0,0-.26.31.1.1,0,0,1,0,.05h0a6.13,6.13,0,0,0-1.26,3.82L5,273.77a6.2,6.2,0,0,0,6.29,6.12l14.8-.21h0l13.67-.19a6.2,6.2,0,0,0,6.11-6.3l-.1-7.45A6.18,6.18,0,0,0,44.38,262h0l0-.06a3.33,3.33,0,0,0-.25-.28c-3.24-3.66-.47-6.33-.47-6.33v0a4.81,4.81,0,0,0,0-7.7h0a5.75,5.75,0,0,1-.35-8.32l0,0a4.83,4.83,0,0,0,2-4,4.77,4.77,0,0,0-1.55-3.48v0a1.67,1.67,0,0,1-.26-2.7.43.43,0,0,0,.09-.1,4.82,4.82,0,0,0,0-7.18v0c-2.34-2.22-.33-4.9-.28-4.95A6.18,6.18,0,0,0,45,212.34Z"/><path class="cls-4" d="M43.65,255.29v0a4.88,4.88,0,0,0,1.91-3.92,4.67,4.67,0,0,0-.63-2.28,47.17,47.17,0,0,1-40,23.2l0,1.5a6.21,6.21,0,0,0,6.3,6.12l14.8-.21,13.66-.19a6.21,6.21,0,0,0,6.12-6.3l-.11-7.45A6.17,6.17,0,0,0,44.41,262h0l-.06-.06a2.09,2.09,0,0,0-.24-.28C40.88,258,43.65,255.29,43.65,255.29Z"/><path class="cls-4" d="M43.58,228.91a4.82,4.82,0,0,0,0-7.18v0a4,4,0,0,1-.72-.92l-36.29.54a3.69,3.69,0,0,1-.68.92v0a4.86,4.86,0,0,0-1.53,3.6A4.81,4.81,0,0,0,6,229.44l.1.1a1.58,1.58,0,0,1,.59,1.13l36.27-.54a1.58,1.58,0,0,1,.56-1.12A.43.43,0,0,0,43.58,228.91Z"/><path class="cls-4" d="M43.62,255.29v0a4.81,4.81,0,0,0,0-7.7h0a5.51,5.51,0,0,1-1.1-1.24l-35,.52a5.3,5.3,0,0,1-1.06,1.24h0a4.82,4.82,0,0,0,.21,7.69v0a4.16,4.16,0,0,1,1,1.67l35-.52A4.06,4.06,0,0,1,43.62,255.29Z"/><path class="cls-4" d="M44.88,204.89a6.19,6.19,0,0,0-4.11-5.75h0l-.72-.39-31.45.47L8,199.6H8A6.22,6.22,0,0,0,4,205.47l.11,7.45a6.11,6.11,0,0,0,1,3.27l39-.58a6.16,6.16,0,0,0,.88-3.27Z"/><path d="M80.09,186.5H94.23A2.53,2.53,0,0,1,96.75,189v12.29a2.53,2.53,0,0,1-2.53,2.53H80.08a2.52,2.52,0,0,1-2.52-2.52V189A2.53,2.53,0,0,1,80.09,186.5Z"/><path d="M94.19,279.89H48.47a10.32,10.32,0,0,1-10.31-10.31V224a10.31,10.31,0,0,1,4.37-8.42l29-20.48a10.29,10.29,0,0,1,6-1.89H94.19a10.32,10.32,0,0,1,10.31,10.31v66a10.32,10.32,0,0,1-10.31,10.31Z"/><path d="M94.19,279.89H48.47a10.32,10.32,0,0,1-10.31-10.31V224a10.31,10.31,0,0,1,4.37-8.42l29-20.48a10.29,10.29,0,0,1,6-1.89H94.19a10.32,10.32,0,0,1,10.31,10.31v66a10.32,10.32,0,0,1-10.31,10.31Z"/><path d="M52.26,215.14l15.33-10.86a2.39,2.39,0,0,1,3.78,2V217.1a2.4,2.4,0,0,1-2.4,2.4H53.65a2.4,2.4,0,0,1-1.39-4.36Z"/><path class="cls-5" d="M90.93,265.24a1.43,1.43,0,0,1,0,2.17h0a1.87,1.87,0,0,1-2.44,0L51.73,235a1.42,1.42,0,0,1,0-2.17h0a1.88,1.88,0,0,1,2.44,0Z"/><path class="cls-5" d="M88,232.43a1.87,1.87,0,0,1,2.43,0h0a1.42,1.42,0,0,1,0,2.17l-35.8,33.26a1.85,1.85,0,0,1-2.43.05h0a1.42,1.42,0,0,1-.05-2.17Z"/><path class="cls-5" d="M48.47,279.89H94.19a10.32,10.32,0,0,0,10.26-9.33H38.21A10.33,10.33,0,0,0,48.47,279.89Z"/><path class="cls-3" d="M94.19,193.23H92.31a53.92,53.92,0,0,1,6.33,25.69c0,25.75-17.13,46.62-38.26,46.62a33.73,33.73,0,0,1-22.22-8.66v12.7a10.32,10.32,0,0,0,10.31,10.31H94.19a10.32,10.32,0,0,0,10.31-10.31v-66A10.32,10.32,0,0,0,94.19,193.23Z"/><path d="M212.1,189.38h0l-10.42-49.24H185.24l-9.73,49.24h0c1.3,4.93-7.42,7.27-7.42,12.73v61.72a14.65,14.65,0,0,0,14.65,14.65h22.11a14.65,14.65,0,0,0,14.66-14.65V202.11c0-5.46-8.73-7.8-7.42-12.73Z"/><path d="M193.81,254.28c14.2,0,25.71-2.72,25.71-6.09V217.41c0,3.36-11.51,6.09-25.71,6.09-14,0-25.31-2.64-25.68-5.93l0,30.62C168.1,251.56,179.6,254.28,193.81,254.28Z"/><path class="cls-3" d="M179.91,267.19l-.66-59.39c-.09-7.71-5.41-8.09-5.33,0l.66,59.39C174.62,270.77,180,270.6,179.91,267.19Z"/><path class="cls-3" d="M204.86,278.48a14.65,14.65,0,0,0,14.66-14.65V202.11c0-5.46-8.73-7.8-7.42-12.73h0l-10.42-49.24H194c1.75,12.33,7.88,54.15,11.27,58.47,4,5.08,9.8,23.58,0,30.47s-12.15,22.45-2.63,24.83c8.63,2.15,5.27,21.83-22.16,24.37a14.69,14.69,0,0,0,2.31.2Z"/><path d="M202.6,140.26c0,.79-4.08,1.43-9.11,1.43s-9.11-.64-9.11-1.43,4.08-1.43,9.11-1.43,9.11.64,9.11,1.43Z"/><rect x="184.38" y="133.22" width="18.22" height="7.04"/><path d="M202.6,133.22c0,.79-4.08,1.43-9.11,1.43s-9.11-.64-9.11-1.43,4.08-1.43,9.11-1.43,9.11.64,9.11,1.43Z"/><rect x="436.95" y="267.21" width="10.09" height="8.51" transform="matrix(0.01, -1, 1, 0.01, 166.41, 710.9)"/><path d="M447.1,278.92a3.26,3.26,0,0,1-3.24-3.31l.07-8.12a3.28,3.28,0,0,1,3.31-3.25h0a3.28,3.28,0,0,1,3.25,3.31l-.07,8.13a3.29,3.29,0,0,1-3.32,3.24Z"/><path d="M426,288.73l6.3,0a5.22,5.22,0,0,0,4.93-3.36h0l5.15-8.9,0-5.38h0l0-4.71-5-8.71h0a5.23,5.23,0,0,0-4.87-3.45l-6.3-.06a5.24,5.24,0,0,0-3.7,1.49h0s-2.29,1.78-4.19-.22h0a4,4,0,0,0-6.07,0s-.07,0-.09.07a1.41,1.41,0,0,1-2.28-.2h0a4.1,4.1,0,0,0-6.34.43s0,0,0,0a4.87,4.87,0,0,1-7-.27h0a4.07,4.07,0,0,0-6.5,0h0s-2.25,2.34-5.34-.37l-.26-.21,0,0h0a5.18,5.18,0,0,0-3.2-1.12l-6.3-.06a5.23,5.23,0,0,0-5.28,5.19l-.12,12.5h0L369.44,283a5.25,5.25,0,0,0,5.19,5.3l6.3.06a5.2,5.2,0,0,0,3.21-1.08h0s0,0,.05,0a2.12,2.12,0,0,0,.24-.2c3.15-2.65,5.36-.26,5.36-.26h0a4,4,0,0,0,6.49.14h0a4.86,4.86,0,0,1,7-.12h0a4.08,4.08,0,0,0,3.36,1.8,4.15,4.15,0,0,0,3-1.24h0a1.41,1.41,0,0,1,2.28-.16.31.31,0,0,0,.09.07,4.07,4.07,0,0,0,6.06.11h0a3.14,3.14,0,0,1,4.19-.14A5.26,5.26,0,0,0,426,288.73Z"/><path class="cls-4" d="M389.8,286.75h0a4,4,0,0,0,3.27,1.68A3.88,3.88,0,0,0,395,288a39.86,39.86,0,0,1-18.8-34.2H375a5.23,5.23,0,0,0-5.29,5.19l-.13,12.5-.1,11.54a5.23,5.23,0,0,0,5.19,5.29l6.3.07a5.29,5.29,0,0,0,3.21-1.07h0s0,0,.06-.05.15-.12.23-.2C387.59,284.36,389.8,286.75,389.8,286.75Z"/><path class="cls-4" d="M412.07,287.21a4.07,4.07,0,0,0,6.06.11h0a3.56,3.56,0,0,1,.8-.6l.26-30.64a3.29,3.29,0,0,1-.75-.6h0a4,4,0,0,0-6.07,0s-.07,0-.09.07a1.33,1.33,0,0,1-1,.49l-.26,30.63a1.34,1.34,0,0,1,.92.5A.31.31,0,0,0,412.07,287.21Z"/><path class="cls-4" d="M389.8,286.73h0a4,4,0,0,0,6.49.14h0a4.37,4.37,0,0,1,1.06-.89l.26-29.56a4.16,4.16,0,0,1-1-.91h0a4.07,4.07,0,0,0-6.5,0h0a3.61,3.61,0,0,1-1.44.81l-.25,29.55A3.66,3.66,0,0,1,389.8,286.73Z"/><path class="cls-4" d="M432.33,288.78a5.22,5.22,0,0,0,4.93-3.36h0l.36-.58.22-26.57-.32-.55h0a5.23,5.23,0,0,0-4.87-3.45l-6.3-.06a5.17,5.17,0,0,0-2.77.78l-.28,32.94a5.18,5.18,0,0,0,2.73.81Z"/><path class="cls-4" d="M381.06,261.72a1.08,1.08,0,0,1-1.08-1.09h0a1.09,1.09,0,0,1,1.1-1.08l51.44.45a1.08,1.08,0,0,1,1.08,1.09h0a1.1,1.1,0,0,1-1.1,1.08Z"/><path d="M188.64,283.27c1.21-2.3,1.47-5.41-7.34-7.11-9.72-1.87-27.75-3.5-35.55-8.29-5.75-3.52-22.8-22.47-26.17-6.08-1.35,6.56,7.14,12.46,23.14,12,8.19-.22,24.34,4.41,31.75,7.92C177.69,283.26,185.26,289.67,188.64,283.27Z"/><path d="M142.43,271.45c1.06-.16,3.65-1.43-.39-3.76s-13.58-13.86-18-9.88-2.37,7.11-.37,8.71S134.28,272.68,142.43,271.45Z"/><path d="M174.47,281.74c-7.41-3.51-23.56-8.14-31.75-7.92-16,.43-24.49-5.47-23.14-12a15.23,15.23,0,0,1,.59-2.16h0c-1.78,10,10.62,13.69,16.27,13.25s11.44.36,21.5,1.77,19.09,6.58,24.68,8.93a5.81,5.81,0,0,0,6.36-1.06c-.1.26-.22.51-.34.75C185.26,289.67,177.69,283.26,174.47,281.74Z"/><path d="M106.16,271.49s-3.49,4,5.32,5.14,9.7,3.39,8.26,4.4-18.11-3.76-16.94-.9,18.21,3.21,17.1,6.19-18.23-2.38-17.66.44,26.79,7.47,35.07.21c1.92-1.69,4.1-3.33,11.71-1.77s35.63,6.37,36.75.87c2.62-12.86-31.19-2.44-45.37-6.88C132.39,276.68,123.66,266.1,106.16,271.49Z"/><path d="M106.16,271.49s-4,2.77,4.85,4,9.39,2.62,7.95,3.63-17.33-1.81-16.16,1.05,17.43,1.26,16.32,4.23-17.45-.42-16.88,2.4,25.8,5.05,34.07-2.2c1.93-1.69,4.32-2.87,11.93-1.32s35.62,6.38,36.74.88c2.63-12.86-31.18-2.44-45.36-6.88C131.61,274.73,123.66,266.1,106.16,271.49Z"/></g><path class="cls-6" d="M530.61,203.46a2.36,2.36,0,0,1-2.16,2.53h-5.76a2.37,2.37,0,0,1-2.16-2.53V199.1a2.36,2.36,0,0,1,2.16-2.52h5.76a2.36,2.36,0,0,1,2.16,2.52Z"/><path class="cls-7" d="M531.45,202a1.09,1.09,0,0,1-1.09,1.1h-9.57a1.1,1.1,0,0,1-1.1-1.1h0a1.09,1.09,0,0,1,1.1-1.09h9.57a1.09,1.09,0,0,1,1.09,1.09Z"/><rect class="cls-8" x="510.14" y="242.41" width="31.19" height="32.85" rx="4.54"/><path class="cls-8" d="M510.15,245.9s-.58-29.35,11.51-41.76h4.24V245.9Z"/><path class="cls-8" d="M541.33,245.9s.57-29.35-11.52-41.76h-4.24V245.9Z"/><path class="cls-6" d="M542.67,242.53a2.45,2.45,0,0,1-2.45,2.44h-29.3a2.44,2.44,0,0,1-2.44-2.44v-.24a2.44,2.44,0,0,1,2.44-2.44h29.3a2.45,2.45,0,0,1,2.45,2.44Z"/><path class="cls-6" d="M542.67,248.88a2.45,2.45,0,0,1-2.45,2.44h-29.3a2.44,2.44,0,0,1-2.44-2.44v-.24a2.44,2.44,0,0,1,2.44-2.44h29.3a2.45,2.45,0,0,1,2.45,2.44Z"/><path class="cls-6" d="M510.92,252.55h29.3a2.45,2.45,0,0,1,2.45,2.45v.23a2.44,2.44,0,0,1-2.44,2.44h-29.3a2.44,2.44,0,0,1-2.44-2.44V255A2.44,2.44,0,0,1,510.92,252.55Z"/><path class="cls-6" d="M542.67,261.58a2.45,2.45,0,0,1-2.45,2.44h-29.3a2.44,2.44,0,0,1-2.44-2.44v-.24a2.44,2.44,0,0,1,2.44-2.44h29.3a2.45,2.45,0,0,1,2.45,2.44Z"/><path class="cls-6" d="M542.67,267.92a2.45,2.45,0,0,1-2.45,2.45h-29.3a2.45,2.45,0,0,1-2.44-2.45v-.23a2.44,2.44,0,0,1,2.44-2.44h29.3a2.45,2.45,0,0,1,2.45,2.44Z"/><path class="cls-3" d="M542.67,242.53v-.24a2.45,2.45,0,0,0-1.5-2.25c-.51-9.21-2.65-26.95-11.36-35.9h-8.15c-.08.09-.16.2-.25.29,8.78,3.92,15.16,15.81,15.16,29.86,0,17.25-9.62,31.23-21.49,31.23a15.3,15.3,0,0,1-4.94-.84v.71a2.44,2.44,0,0,0-1.66,2.3v.23a2.44,2.44,0,0,0,1.66,2.31v.49a4.54,4.54,0,0,0,4.54,4.54h22.11a4.54,4.54,0,0,0,4.54-4.54v-.63a2.45,2.45,0,0,0,1.34-2.17v-.23a2.43,2.43,0,0,0-1.34-2.16v-1.79a2.43,2.43,0,0,0,1.34-2.16v-.24a2.42,2.42,0,0,0-1.34-2.16v-1.79a2.42,2.42,0,0,0,1.34-2.16V255a2.43,2.43,0,0,0-1.34-2.16V251a2.42,2.42,0,0,0,1.34-2.16v-.24a2.42,2.42,0,0,0-1.39-2.19,4.85,4.85,0,0,0-.08-.55h.13s0-.43,0-1.21A2.42,2.42,0,0,0,542.67,242.53Z"/><path class="cls-9" d="M519.18,262.68a.88.88,0,0,1-.85.88h0a.87.87,0,0,1-.87-.85l-.6-40.57a.85.85,0,0,1,.85-.87h0a.86.86,0,0,1,.87.84Z"/><polygon class="cls-10" points="252.89 42.91 218.79 43.39 218.39 14.61 252.48 14.13 252.89 42.91"/><path class="cls-6" d="M260.41,10.91A11.06,11.06,0,0,1,249.5,22.14L222,22.52a11.06,11.06,0,0,1-11.23-10.91h0A11.08,11.08,0,0,1,221.73.39L249.18,0a11.07,11.07,0,0,1,11.23,10.91Z"/><path class="cls-6" d="M295.2,81.28,294.89,60a17.68,17.68,0,0,0-11.73-16.41v0L252.67,27l-18.18.26h0l-15.92.23-29,17.47v0a17.69,17.69,0,0,0-11.26,16.73l.3,21.26a17.62,17.62,0,0,0,5.33,12.4h0s6.16,7.57-.42,14.18c0,0,0,0,0,0a13.74,13.74,0,0,0,.43,20.49,3.58,3.58,0,0,0,.26.29c2.67,2.21,2.1,5.62-.51,7.71a.39.39,0,0,1,0,.06,13.81,13.81,0,0,0,2,21.33l.05,0c4.81,4.08,8.31,16.21-.33,23.76v0a13.75,13.75,0,0,0,.58,21.94v0s8.1,7.38-.78,18.05c-.25.29-.5.58-.73.87a1,1,0,0,1-.12.16h0a17.62,17.62,0,0,0-3.57,10.89l.3,21.26A17.71,17.71,0,0,0,199,274l42.21-.6h0l39-.55a17.72,17.72,0,0,0,17.45-18l-.31-21.25a17.69,17.69,0,0,0-3.87-10.79h0l-.15-.17c-.23-.27-.47-.53-.71-.79-9.23-10.44-1.33-18.06-1.33-18.06v-.05a13.74,13.74,0,0,0,0-22v0c-8.85-7.29-5.7-19.51-1-23.73l0-.05a13.81,13.81,0,0,0,1.37-21.39v0c-2.67-2-3.33-5.42-.73-7.71a3.22,3.22,0,0,0,.24-.28,13.74,13.74,0,0,0-.14-20.5.42.42,0,0,0,0-.06c-6.68-6.34-.94-14-.81-14.15A17.69,17.69,0,0,0,295.2,81.28Z"/><path class="cls-4" d="M291.38,203.79v0a13.85,13.85,0,0,0,5.46-11.17,13.6,13.6,0,0,0-1.79-6.53,134.59,134.59,0,0,1-114,66.2l.05,4.27a17.72,17.72,0,0,0,18,17.46l42.21-.6,39-.55a17.71,17.71,0,0,0,17.45-18l-.3-21.25a17.64,17.64,0,0,0-3.88-10.79h0l-.15-.17c-.22-.28-.45-.53-.69-.79C283.48,211.42,291.38,203.79,291.38,203.79Z"/><path class="cls-4" d="M291.19,128.56a13.74,13.74,0,0,0-.14-20.5.42.42,0,0,0,0-.06,11.19,11.19,0,0,1-2.06-2.63L185.46,106.9a10.75,10.75,0,0,1-2,2.63s0,0,0,0a13.74,13.74,0,0,0,.43,20.49,3.58,3.58,0,0,0,.26.29,4.47,4.47,0,0,1,1.71,3.2L289.34,132a4.46,4.46,0,0,1,1.61-3.18A3.22,3.22,0,0,0,291.19,128.56Z"/><path class="cls-4" d="M291.31,203.8v-.05a13.74,13.74,0,0,0,0-22v0a15.24,15.24,0,0,1-3.15-3.53l-99.79,1.49a15.61,15.61,0,0,1-3,3.55v0a13.75,13.75,0,0,0,.58,21.94v0a11.71,11.71,0,0,1,2.85,4.77l99.83-1.49A11.87,11.87,0,0,1,291.31,203.8Z"/><path class="cls-4" d="M294.89,60a17.68,17.68,0,0,0-11.73-16.41v0l-2.05-1.11L191.4,43.82l-1.85,1.11v0a17.69,17.69,0,0,0-11.26,16.73l.3,21.26a17.54,17.54,0,0,0,2.83,9.31l111.26-1.64a17.61,17.61,0,0,0,2.52-9.33Z"/><path class="cls-9" d="M207.58,235.28A3.67,3.67,0,0,1,204,239h0a3.67,3.67,0,0,1-3.73-3.62L197.66,61.68A3.67,3.67,0,0,1,201.28,58h0A3.67,3.67,0,0,1,205,61.57Z"/><path class="cls-11" d="M343.55,268.11a5.18,5.18,0,0,1-5.18,5.17h0a5.18,5.18,0,0,1-5.17-5.17v-6.23a5.17,5.17,0,0,1,5.17-5.17h0a5.17,5.17,0,0,1,5.18,5.17Z"/><path class="cls-11" d="M436.5,268.11a5.17,5.17,0,0,1-5.17,5.17h0a5.17,5.17,0,0,1-5.17-5.17v-6.23a5.16,5.16,0,0,1,5.17-5.17h0a5.16,5.16,0,0,1,5.17,5.17Z"/><path class="cls-12" d="M298.36,83.37h95.23c5.17,0,9.37,2.25,9.37,5l5.61,51.41H283.37L289,88.4C289,85.62,293.19,83.37,298.36,83.37Z"/><path class="cls-13" d="M389.73,99.49A3.71,3.71,0,0,1,386,103.2H305.69A3.72,3.72,0,0,1,302,99.49h0a3.72,3.72,0,0,1,3.72-3.71H386a3.71,3.71,0,0,1,3.71,3.71Z"/><polygon class="cls-14" points="286.46 111.59 283.37 139.81 408.57 139.81 405.49 111.59 286.46 111.59"/><path class="cls-15" d="M294,270.13H398c5.65,0,10.23-5.19,10.23-11.59l6.14-118.73H277.57l6.14,118.73C283.71,264.94,288.3,270.13,294,270.13Z"/><path class="cls-16" d="M397.11,199.73A10.23,10.23,0,0,1,386.88,210H306.62a10.23,10.23,0,0,1-10.23-10.24V188.15a10.23,10.23,0,0,1,10.23-10.23h80.26a10.23,10.23,0,0,1,10.23,10.23Z"/><path class="cls-16" d="M370.21,229.2H321.52a10.24,10.24,0,0,0-10.24,10.23v30.7h69.17v-30.7A10.24,10.24,0,0,0,370.21,229.2Z"/><polygon class="cls-5" points="277.57 139.81 278.72 161.9 413.22 161.9 414.37 139.81 277.57 139.81"/><path class="cls-5" d="M294,270.13H398c5,0,9.09-4,10-9.31H283.92C284.86,266.13,289,270.13,294,270.13Z"/><path class="cls-3" d="M363.5,139.81a67.81,67.81,0,0,1-80.45,105.83l.66,12.9c0,6.4,4.59,11.59,10.24,11.59H398c5.65,0,10.23-5.19,10.23-11.59l6.14-118.73Z"/><path class="cls-13" d="M413.9,117.12H276.09c-5.18,0-9.38,4.59-9.38,10.24v17.29H423.28V127.36C423.28,121.71,419.08,117.12,413.9,117.12Z"/><path class="cls-6" d="M492.13,188.17c0,2.91-2,5.26-4.51,5.26h-12c-2.48,0-4.5-2.35-4.5-5.26v-9.1c0-2.89,2-5.24,4.5-5.24h12c2.49,0,4.51,2.35,4.51,5.24Z"/><path class="cls-8" d="M515.05,212.86c0,16.14-14.89,29.22-33.25,29.22S448.54,229,448.54,212.86s14.89-29.23,33.26-29.23S515.05,196.71,515.05,212.86Z"/><path class="cls-8" d="M515.05,272.54a5.25,5.25,0,0,1-5.25,5.25h-56a5.25,5.25,0,0,1-5.25-5.25V208.13a5.25,5.25,0,0,1,5.25-5.25h56a5.25,5.25,0,0,1,5.25,5.25Z"/><path class="cls-6" d="M518.9,212.68a5.25,5.25,0,0,1-5.25,5.25h-63a5.25,5.25,0,0,1-5.25-5.25v-.5a5.25,5.25,0,0,1,5.25-5.25h63a5.25,5.25,0,0,1,5.25,5.25Z"/><path class="cls-6" d="M518.9,226.33a5.25,5.25,0,0,1-5.25,5.26h-63a5.25,5.25,0,0,1-5.25-5.26v-.5a5.25,5.25,0,0,1,5.25-5.25h63a5.25,5.25,0,0,1,5.25,5.25Z"/><path class="cls-6" d="M518.9,240a5.24,5.24,0,0,1-5.25,5.24h-63a5.24,5.24,0,0,1-5.25-5.24v-.51a5.25,5.25,0,0,1,5.25-5.25h63a5.25,5.25,0,0,1,5.25,5.25Z"/><path class="cls-6" d="M518.9,253.63a5.25,5.25,0,0,1-5.25,5.26h-63a5.25,5.25,0,0,1-5.25-5.26v-.49a5.24,5.24,0,0,1,5.25-5.25h63a5.24,5.24,0,0,1,5.25,5.25Z"/><path class="cls-6" d="M518.9,267.29a5.25,5.25,0,0,1-5.25,5.25h-63a5.25,5.25,0,0,1-5.25-5.25v-.5a5.25,5.25,0,0,1,5.25-5.25h63a5.25,5.25,0,0,1,5.25,5.25Z"/><path class="cls-7" d="M493.88,185a2.29,2.29,0,0,1-2.28,2.28h-20a2.29,2.29,0,0,1-2.28-2.28h0a2.28,2.28,0,0,1,2.28-2.28h20a2.28,2.28,0,0,1,2.28,2.28Z"/><polygon class="cls-7" points="470.56 186.41 466.64 186.41 455.53 159.95 458.81 161.07 467.9 184.78 470.43 184.72 470.56 186.41"/><polygon class="cls-7" points="492.51 186.41 496.43 186.41 507.55 159.95 504.26 161.07 495.18 184.78 492.64 184.72 492.51 186.41"/><path class="cls-7" d="M455.53,160s25.09-24.71,52,0l-3.29,1.13s-21.87-19.77-45.45,0C458.81,161.08,456.21,161.49,455.53,160Z"/><path class="cls-3" d="M518.9,212.68v-.5a5.23,5.23,0,0,0-3.95-5.07,5.11,5.11,0,0,0-1.23-2.44,29.88,29.88,0,0,0-13.5-16.13,43.05,43.05,0,0,1,13.43,30.91c0,25.2-22.73,45.62-50.76,45.62a56,56,0,0,1-15.69-2.23,5.2,5.2,0,0,0-1.81,4v.5a5.26,5.26,0,0,0,3.15,4.81v.44a5.25,5.25,0,0,0,5.25,5.25h56a5.25,5.25,0,0,0,5.25-5.25v-.21a5.23,5.23,0,0,0,3.85-5v-.5a5.24,5.24,0,0,0-3.85-5v-3.08a5.22,5.22,0,0,0,3.85-5v-.49a5.22,5.22,0,0,0-3.85-5V245a5.24,5.24,0,0,0,3.85-5v-.51a5.22,5.22,0,0,0-3.85-5v-3.07a5.25,5.25,0,0,0,3.85-5v-.5a5.24,5.24,0,0,0-3.85-5v-3.07A5.23,5.23,0,0,0,518.9,212.68Z"/><path class="cls-9" d="M463,257.72a1.15,1.15,0,0,1-1.13,1.17h0a1.15,1.15,0,0,1-1.17-1.13l-.8-54.3a1.16,1.16,0,0,1,1.13-1.17h0a1.17,1.17,0,0,1,1.17,1.13Z"/><path class="cls-17" d="M421.2,165.94s-24.34-30.15-15.11-32.13,11.11,7.91,15.11,5.93-.17-13.84,4.88-13.84,1.76,15.16,5.06,15.82,7.25-6.6,10.54-2.63,1.32,11.85,6.59,11.85-.24,6.93-12.31,15S421.82,178.29,421.2,165.94Z"/><path class="cls-17" d="M393.65,272.48s-26.1-14-16.12-41.93,28.17-56,36.94-60.9c18.83-10.47,44.92-4,56.9,40.93s13,66.89-20,66.89S403.44,280.51,393.65,272.48Z"/><path class="cls-3" d="M393.65,272.48c9.79,8,24.81,5,57.76,5s31.94-22,20-66.89c-9.09-34.08-26.29-46-42.29-45.22-.62,4.84-1.75,21.63,11.19,28.43,15.2,8,20.78,14.64,10,24.62S461,257,440.27,257c-19.09,0-36.39,14.62-63.39-4.29C381.36,265.89,393.65,272.48,393.65,272.48Z"/><path class="cls-13" d="M418.29,162.19l.32,4.57a35.61,35.61,0,0,0,21.66,1.14v-5S433.29,166,418.29,162.19Z"/><path class="cls-18" d="M94.11,275.67s-40.94-7.16-24.56-53.21S109.81,158,115.6,155.94c11.6-4.09,31.72-7.16,49.12,43s25.58,75.73,0,76.75S94.11,275.67,94.11,275.67Z"/><path class="cls-3" d="M94.11,275.67s45,1,70.61,0,17.39-26.6,0-76.75c-9.84-28.37-20.56-39.7-30.11-43.45a18.17,18.17,0,0,0-1.62,1,51.79,51.79,0,0,0,5,13.82c4,7.67,1.62,29.67-11.38,39.91s11.47,29.16,4.31,46.05S90,251.62,77.73,242.92c-5-3.53-8.94-4.17-11.91-3.71C63.62,270.3,94.11,275.67,94.11,275.67Z"/><path class="cls-18" d="M118.27,155.08s-25.18-31.2-15.64-33.25,11.5,8.19,15.64,6.14-.17-14.33,5.06-14.33,1.82,15.69,5.22,16.38,7.51-6.83,10.93-2.73,1.35,12.28,6.82,12.28-.25,7.16-12.75,15.51S118.91,167.87,118.27,155.08Z"/><path class="cls-13" d="M115.26,151.2l.34,4.74A36.85,36.85,0,0,0,138,157.12v-5.18S130.79,155.16,115.26,151.2Z"/><path class="cls-19" d="M82.78,225.12s9.79,20.88,21,14.73-4.09-29.39,6.15-38.49,20.07-32.12,13.36-35.7-21,9.72-25.65,16.89S78.18,217.17,82.78,225.12Z"/><rect class="cls-10" x="14.13" y="185.88" width="11.95" height="10.09" transform="matrix(1, -0.01, 0.01, 1, -2.73, 0.31)"/><path class="cls-6" d="M28.79,184.67A3.9,3.9,0,0,1,25,188.61l-9.63.13a3.88,3.88,0,0,1-3.93-3.82h0A3.88,3.88,0,0,1,15.23,181l9.62-.14a3.89,3.89,0,0,1,3.94,3.83Z"/><path class="cls-6" d="M41,209.34l-.1-7.45a6.19,6.19,0,0,0-4.11-5.75h0l-10.69-5.84-6.38.1h0l-5.58.08L4,196.6H4A6.22,6.22,0,0,0,0,202.47l.11,7.45A6.17,6.17,0,0,0,2,214.27H2s2.16,2.66-.14,5v0a4.86,4.86,0,0,0-1.53,3.6A4.81,4.81,0,0,0,2,226.44l.1.1a1.68,1.68,0,0,1-.18,2.71,0,0,0,0,0,0,0,4.85,4.85,0,0,0,.69,7.48h0c1.69,1.44,2.91,5.69-.12,8.33h0a4.82,4.82,0,0,0,.21,7.69v0s2.84,2.59-.27,6.33a3.88,3.88,0,0,0-.26.31.1.1,0,0,1,0,.05h0a6.13,6.13,0,0,0-1.26,3.82L1,270.77a6.2,6.2,0,0,0,6.29,6.12l14.8-.21h0l13.67-.19a6.2,6.2,0,0,0,6.11-6.3l-.1-7.45A6.18,6.18,0,0,0,40.38,259h0l0-.06a3.33,3.33,0,0,0-.25-.28c-3.24-3.66-.47-6.33-.47-6.33v0a4.81,4.81,0,0,0,0-7.7h0a5.75,5.75,0,0,1-.35-8.32l0,0a4.83,4.83,0,0,0,2-4,4.77,4.77,0,0,0-1.55-3.48v0a1.67,1.67,0,0,1-.26-2.7.43.43,0,0,0,.09-.1,4.82,4.82,0,0,0,0-7.18v0c-2.34-2.22-.33-4.9-.28-4.95A6.18,6.18,0,0,0,41,209.34Z"/><path class="cls-4" d="M39.65,252.29v0a4.88,4.88,0,0,0,1.91-3.92,4.67,4.67,0,0,0-.63-2.28,47.17,47.17,0,0,1-40,23.2l0,1.5a6.21,6.21,0,0,0,6.3,6.12l14.8-.21,13.66-.19a6.21,6.21,0,0,0,6.12-6.3l-.11-7.45A6.17,6.17,0,0,0,40.41,259h0l-.06-.06a2.09,2.09,0,0,0-.24-.28C36.88,255,39.65,252.29,39.65,252.29Z"/><path class="cls-4" d="M39.58,225.91a4.82,4.82,0,0,0,0-7.18v0a4,4,0,0,1-.72-.92l-36.29.54a3.69,3.69,0,0,1-.68.92v0a4.86,4.86,0,0,0-1.53,3.6A4.81,4.81,0,0,0,2,226.44l.1.1a1.58,1.58,0,0,1,.59,1.13l36.27-.54a1.58,1.58,0,0,1,.56-1.12A.43.43,0,0,0,39.58,225.91Z"/><path class="cls-4" d="M39.62,252.29v0a4.81,4.81,0,0,0,0-7.7h0a5.51,5.51,0,0,1-1.1-1.24l-35,.52a5.3,5.3,0,0,1-1.06,1.24h0a4.82,4.82,0,0,0,.21,7.69v0a4.16,4.16,0,0,1,1,1.67l35-.52A4.06,4.06,0,0,1,39.62,252.29Z"/><path class="cls-4" d="M40.88,201.89a6.19,6.19,0,0,0-4.11-5.75h0l-.72-.39-31.45.47L4,196.6H4A6.22,6.22,0,0,0,0,202.47l.11,7.45a6.11,6.11,0,0,0,1,3.27l39-.58a6.16,6.16,0,0,0,.88-3.27Z"/><path class="cls-15" d="M76.08,183.5H90.23A2.52,2.52,0,0,1,92.75,186v12.29a2.53,2.53,0,0,1-2.53,2.53H76.09a2.53,2.53,0,0,1-2.53-2.53V186A2.52,2.52,0,0,1,76.08,183.5Z"/><path class="cls-13" d="M90.19,276.89H44.47a10.32,10.32,0,0,1-10.31-10.31V221a10.31,10.31,0,0,1,4.37-8.42l29-20.48a10.29,10.29,0,0,1,6-1.89H90.19a10.32,10.32,0,0,1,10.31,10.31v66a10.32,10.32,0,0,1-10.31,10.31Z"/><path class="cls-20" d="M90.19,276.89H44.47a10.32,10.32,0,0,1-10.31-10.31V221a10.31,10.31,0,0,1,4.37-8.42l29-20.48a10.29,10.29,0,0,1,6-1.89H90.19a10.32,10.32,0,0,1,10.31,10.31v66a10.32,10.32,0,0,1-10.31,10.31Z"/><path class="cls-21" d="M48.26,212.14l15.33-10.86a2.39,2.39,0,0,1,3.78,2V214.1a2.4,2.4,0,0,1-2.4,2.4H49.65a2.4,2.4,0,0,1-1.39-4.36Z"/><path class="cls-5" d="M86.93,262.24a1.43,1.43,0,0,1,0,2.17h0a1.87,1.87,0,0,1-2.44,0L47.73,232a1.42,1.42,0,0,1,0-2.17h0a1.88,1.88,0,0,1,2.44,0Z"/><path class="cls-5" d="M84,229.43a1.87,1.87,0,0,1,2.43,0h0a1.42,1.42,0,0,1,0,2.17l-35.8,33.26a1.85,1.85,0,0,1-2.43.05h0a1.42,1.42,0,0,1-.05-2.17Z"/><path class="cls-5" d="M44.47,276.89H90.19a10.32,10.32,0,0,0,10.26-9.33H34.21A10.33,10.33,0,0,0,44.47,276.89Z"/><path class="cls-3" d="M90.19,190.23H88.31a53.92,53.92,0,0,1,6.33,25.69c0,25.75-17.13,46.62-38.26,46.62a33.73,33.73,0,0,1-22.22-8.66v12.7a10.32,10.32,0,0,0,10.31,10.31H90.19a10.32,10.32,0,0,0,10.31-10.31v-66A10.32,10.32,0,0,0,90.19,190.23Z"/><path class="cls-13" d="M208.1,186.38h0l-10.42-49.24H181.24l-9.73,49.24h0c1.3,4.93-7.42,7.27-7.42,12.73v61.72a14.65,14.65,0,0,0,14.65,14.65h22.11a14.65,14.65,0,0,0,14.66-14.65V199.11c0-5.46-8.73-7.8-7.42-12.73Z"/><path class="cls-22" d="M189.81,251.28c14.2,0,25.71-2.72,25.71-6.09V214.41c0,3.36-11.51,6.09-25.71,6.09-14,0-25.31-2.64-25.68-5.93l0,30.62C164.1,248.56,175.6,251.28,189.81,251.28Z"/><path class="cls-23" d="M175.91,264.19l-.66-59.39c-.09-7.71-5.41-8.09-5.33,0l.66,59.39C170.62,267.77,176,267.6,175.91,264.19Z"/><path class="cls-3" d="M200.86,275.48a14.65,14.65,0,0,0,14.66-14.65V199.11c0-5.46-8.73-7.8-7.42-12.73h0l-10.42-49.24H190c1.75,12.33,7.88,54.15,11.27,58.47,4,5.08,9.8,23.58,0,30.47s-12.15,22.45-2.63,24.83c8.63,2.15,5.27,21.83-22.16,24.37a14.69,14.69,0,0,0,2.31.2Z"/><path class="cls-20" d="M198.6,137.26c0,.79-4.08,1.43-9.11,1.43s-9.11-.64-9.11-1.43,4.08-1.43,9.11-1.43,9.11.64,9.11,1.43Z"/><rect class="cls-20" x="180.38" y="130.22" width="18.22" height="7.04"/><path class="cls-24" d="M198.6,130.22c0,.79-4.08,1.43-9.11,1.43s-9.11-.64-9.11-1.43,4.08-1.43,9.11-1.43,9.11.64,9.11,1.43Z"/><rect class="cls-10" x="432.95" y="264.21" width="10.09" height="8.51" transform="matrix(0.01, -1, 1, 0.01, 165.44, 703.93)"/><path class="cls-6" d="M443.1,275.92a3.26,3.26,0,0,1-3.24-3.31l.07-8.12a3.28,3.28,0,0,1,3.31-3.25h0a3.28,3.28,0,0,1,3.25,3.31l-.07,8.13a3.29,3.29,0,0,1-3.32,3.24Z"/><path class="cls-6" d="M422,285.73l6.3,0a5.22,5.22,0,0,0,4.93-3.36h0l5.15-8.9,0-5.38h0l0-4.71-5-8.71h0a5.23,5.23,0,0,0-4.87-3.45l-6.3-.06a5.24,5.24,0,0,0-3.7,1.49h0s-2.29,1.78-4.19-.22h0a4,4,0,0,0-6.07,0s-.07,0-.09.07a1.41,1.41,0,0,1-2.28-.2h0a4.1,4.1,0,0,0-6.34.43s0,0,0,0a4.87,4.87,0,0,1-7-.27h0a4.07,4.07,0,0,0-6.5,0h0s-2.25,2.34-5.34-.37l-.26-.21,0,0h0a5.18,5.18,0,0,0-3.2-1.12l-6.3-.06a5.23,5.23,0,0,0-5.28,5.19l-.12,12.5h0L365.44,280a5.25,5.25,0,0,0,5.19,5.3l6.3.06a5.2,5.2,0,0,0,3.21-1.08h0s0,0,.05,0a2.12,2.12,0,0,0,.24-.2c3.15-2.65,5.36-.26,5.36-.26h0a4,4,0,0,0,6.49.14h0a4.86,4.86,0,0,1,7-.12h0a4.08,4.08,0,0,0,3.36,1.8,4.15,4.15,0,0,0,3-1.24h0a1.41,1.41,0,0,1,2.28-.16.31.31,0,0,0,.09.07,4.07,4.07,0,0,0,6.06.11h0a3.14,3.14,0,0,1,4.19-.14A5.26,5.26,0,0,0,422,285.73Z"/><path class="cls-4" d="M385.8,283.75h0a4,4,0,0,0,3.27,1.68A3.88,3.88,0,0,0,391,285a39.86,39.86,0,0,1-18.8-34.2H371a5.23,5.23,0,0,0-5.29,5.19l-.13,12.5-.1,11.54a5.23,5.23,0,0,0,5.19,5.29l6.3.07a5.29,5.29,0,0,0,3.21-1.07h0s0,0,.06-.05.15-.12.23-.2C383.59,281.36,385.8,283.75,385.8,283.75Z"/><path class="cls-4" d="M408.07,284.21a4.07,4.07,0,0,0,6.06.11h0a3.56,3.56,0,0,1,.8-.6l.26-30.64a3.29,3.29,0,0,1-.75-.6h0a4,4,0,0,0-6.07,0s-.07,0-.09.07a1.33,1.33,0,0,1-1,.49l-.26,30.63a1.34,1.34,0,0,1,.92.5A.31.31,0,0,0,408.07,284.21Z"/><path class="cls-4" d="M385.8,283.73h0a4,4,0,0,0,6.49.14h0a4.37,4.37,0,0,1,1.06-.89l.26-29.56a4.16,4.16,0,0,1-1-.91h0a4.07,4.07,0,0,0-6.5,0h0a3.61,3.61,0,0,1-1.44.81l-.25,29.55A3.66,3.66,0,0,1,385.8,283.73Z"/><path class="cls-4" d="M428.33,285.78a5.22,5.22,0,0,0,4.93-3.36h0l.36-.58.22-26.57-.32-.55h0a5.23,5.23,0,0,0-4.87-3.45l-6.3-.06a5.17,5.17,0,0,0-2.77.78l-.28,32.94a5.18,5.18,0,0,0,2.73.81Z"/><path class="cls-9" d="M377.06,258.72a1.08,1.08,0,0,1-1.08-1.09h0a1.09,1.09,0,0,1,1.1-1.08l51.44.45a1.08,1.08,0,0,1,1.08,1.09h0a1.1,1.1,0,0,1-1.1,1.08Z"/><path class="cls-25" d="M184.64,280.27c1.21-2.3,1.47-5.41-7.34-7.11-9.72-1.87-27.75-3.5-35.55-8.29-5.75-3.52-22.8-22.47-26.17-6.08-1.35,6.56,7.14,12.46,23.14,12,8.19-.22,24.34,4.41,31.75,7.92C173.69,280.26,181.26,286.67,184.64,280.27Z"/><path class="cls-26" d="M138.43,268.45c1.06-.16,3.65-1.43-.39-3.76s-13.58-13.86-18-9.88-2.37,7.11-.37,8.71S130.28,269.68,138.43,268.45Z"/><path class="cls-27" d="M170.47,278.74c-7.41-3.51-23.56-8.14-31.75-7.92-16,.43-24.49-5.47-23.14-12a15.23,15.23,0,0,1,.59-2.16h0c-1.78,10,10.62,13.69,16.27,13.25s11.44.36,21.5,1.77,19.09,6.58,24.68,8.93a5.81,5.81,0,0,0,6.36-1.06c-.1.26-.22.51-.34.75C181.26,286.67,173.69,280.26,170.47,278.74Z"/><path class="cls-26" d="M102.16,268.49s-3.49,4,5.32,5.14,9.7,3.39,8.26,4.4-18.11-3.76-16.94-.9,18.21,3.21,17.1,6.19-18.23-2.38-17.66.44,26.79,7.47,35.07.21c1.92-1.69,4.1-3.33,11.71-1.77s35.63,6.37,36.75.87c2.62-12.86-31.19-2.44-45.37-6.88C128.39,273.68,119.66,263.1,102.16,268.49Z"/><path class="cls-25" d="M102.16,268.49s-4,2.77,4.85,4,9.39,2.62,7.95,3.63-17.33-1.81-16.16,1.05,17.43,1.26,16.32,4.23-17.45-.42-16.88,2.4,25.8,5.05,34.07-2.2c1.93-1.69,4.32-2.87,11.93-1.32s35.62,6.38,36.74.88c2.63-12.86-31.18-2.44-45.36-6.88C127.61,271.73,119.66,263.1,102.16,268.49Z"/></g></g></svg>