<svg id="Layer_1" data-name="Layer 1" xmlns="http://www.w3.org/2000/svg" xmlns:xlink="http://www.w3.org/1999/xlink" viewBox="0 0 616 341"><defs><style>.cls-1{fill:none;}.cls-2{opacity:0.15;}.cls-3{clip-path:url(#clip-path);}.cls-4{fill:#5ac5d7;}.cls-5{fill:#5fcadc;}.cls-6{fill:#4fb7c7;}.cls-7{fill:#318295;}.cls-8{fill:#114d66;}.cls-9{fill:#00324c;}.cls-10{fill:#b3e5ff;}.cls-11{fill:#9fd1eb;}.cls-12{fill:#a9dbf5;}.cls-13{fill:#bdefff;}.cls-14{fill:#6897b3;}.cls-14,.cls-45{opacity:0.1;}.cls-15{fill:#002d47;}.cls-16{fill:#96c078;}.cls-17{fill:#a0ca82;}.cls-18{fill:#969a78;}.cls-19{fill:#82ac64;}.cls-20{fill:#243d3f;}.cls-21{fill:#10292b;}.cls-22{fill:#1a1a1a;}.cls-23{fill:#333;}.cls-24,.cls-50{fill:#ceefff;}.cls-24{opacity:0.5;}.cls-25{fill:#4177bd;}.cls-26{fill:#a1d1ec;}.cls-27{fill:#abdbf6;}.cls-28{fill:#376db3;}.cls-29{fill:#29abe2;}.cls-30{fill:#4ab8ba;}.cls-31{fill:#1f9fd3;}.cls-32{fill:#ff2310;}.cls-33{fill:#ccc;}.cls-34{fill:#f32310;}.cls-35{fill:#ff3428;}.cls-36{fill:#fff;opacity:0.03;}.cls-37{fill:#f1f1f1;}.cls-38{fill:red;}.cls-39{fill:#f1f1ea;}.cls-40{fill:#eef5fb;}.cls-41{fill:#e4ebf1;}.cls-42,.cls-54{fill:#f3faff;}.cls-43{fill:#b3b3b3;}.cls-44{fill:#eab066;}.cls-46{fill:#01aa33;}.cls-47{fill:#ff232f;}.cls-48{fill:#eb1e28;}.cls-49{fill:#fbb03b;}.cls-50{opacity:0.75;}.cls-51{fill:#1389c7;}.cls-52{fill:#33b5ec;}.cls-53{fill:#7ea6bb;}.cls-54{fill-rule:evenodd;}</style><clipPath id="clip-path"><rect class="cls-1" width="611" height="336" rx="168"/></clipPath></defs><rect class="cls-2" x="5" y="5" width="611" height="336" rx="168"/><g class="cls-3"><rect class="cls-4" x="-17.65" y="-106" width="635.79" height="445.05"/><path class="cls-5" d="M618.13-106H-17.65V97.53c96.26-12.7,167-38.92,337-19.15a1158.31,1158.31,0,0,0,298.82-3.84Z"/><path class="cls-6" d="M447.27,202.11c-85.21,12.41-157.65,5.89-216.62-1.88-.38-1.48-3.74-3.76-12.6-7.3-10.64-4.25-16.65,1.67-21.42-.44s-8.25-6.33-15.52-7.09-8.34,4.29-13.64,2.41-18.05-1.19-19.12,1.66h0c-15.76-1.45-29.78-1.89-42-.51-56,6.27-65.1,12.54-124,4.92V338.05H618.13V186.54C599.52,185.51,553.92,186.57,447.27,202.11Z"/><path class="cls-7" d="M596.8,229.83a18.07,18.07,0,0,1,2.85-4.85,6.59,6.59,0,0,0,1.09-7.07s-.56,6.22-3.29,7.54a8.13,8.13,0,0,0-2.35,2.14c-.05-4.93-1.82-7.09-1-11.93,1-5.76,7-5.68,8.28-12.19s-1.81-7.26-1.81-7.26.45,6.51-3.75,10.26c-2.18,2-4.84,6.61-7,11.65a23.92,23.92,0,0,1,1.23-6.72c2.5-6.51.68-17.52-1.13-24.62s-3.74-6.18-3.74-6.18a50.53,50.53,0,0,1,2.6,15.61c0,7.63-3.78,16.18-4.57,23.34a30.24,30.24,0,0,1-.85-8.55,12.54,12.54,0,0,0-6.55-12s6.37,10.06,3.77,15.25c-.82,1.64-1.12,4.4-1.11,7.45-2.84-4.69-5.06-12-3.86-16.86,1.56-6.27-4.11-9.55-4.11-9.55s3,8.25,1.23,14.47c-.92,3.24.14,10.71,1.89,17.42-1.76-1.2-3.32-2-4.9-4.21-2.65-3.78.75-7.09-2.2-11.41s-5.06-3-5.06-3,3.89,3.38,3.65,7.81c-.21,3.85,3,12.61,6.24,17.8-9.55,1.39-20.66,2.73-33.72,3.94-10.62,1-20.89,1.57-30.75,1.86a4.34,4.34,0,0,0-1.46-4.94c-2.84-2-7.41,3.06-10.77,3.08s-6-5.94-11.29-6.92-7.76,4.87-13.53,6.3-5.56-6.72-10.83-9.18-11.63,3-17,4.26-5.5-3.33-12.17-5.81-14.63,8.38-18.53,8.59h0c-12.24-1.15-20.46-1.7-23.64-.35-6,2.55-34.61,8.14-59,12.33a16.66,16.66,0,0,0,3.82-5l-1.94-.48,2.42-.57a21,21,0,0,0,1.13-3.57,31.39,31.39,0,0,0,.71-6.72h-2.33l2.3-.87a25.74,25.74,0,0,0-1.11-6.66l-1,.11.8-.61a19.48,19.48,0,0,0-3.27-6.21s.07,1.62,0,4l1,1-1-.25c-.09,1.42-.24,3-.51,4.71l1.39,1.56-1.61-.33a25.4,25.4,0,0,1-1.49,5.07l1,3s-.92-.6-1.87-1.25a9,9,0,0,1-2.5,2.81,30.35,30.35,0,0,0-5-8.19l-3.49,1.74,2.34-3a30.75,30.75,0,0,0-3.3-3.08,7.29,7.29,0,0,1-1.06-1L312,225.08l2.25-3a10.94,10.94,0,0,1-1.13-5.69l-2.3-.87,2.49-1.23a39.66,39.66,0,0,1,2-7.4l-1.44-.27,1.72-.52c.54-1.51.89-2.46.65-2.46s-2.56,1.32-5.27,3.79l.81,2.18-2.08-1a36.17,36.17,0,0,0-5.13,6.42l1.51,4.06-3.05-1.3a28.56,28.56,0,0,0-2.33,6.69l3.61,3.19-4-.15a26.32,26.32,0,0,0,.1,5.66l4.43,2.19h-4.06c.1.52.21,1,.35,1.56a35.14,35.14,0,0,0,1.68,4.89,36.15,36.15,0,0,1-3.28-3.49l-2.86,1.39,1.69-2.91a27.33,27.33,0,0,1-2.87-4.93h-2.47l1.49-2.6a25,25,0,0,1-.55-11l-.94-.34,1.2-1a26.62,26.62,0,0,1,1.54-5.1s-3.92,1-6,9.5l1.32,1.76-1.83.62a54,54,0,0,0-.76,7.25,25.59,25.59,0,0,0,.83,7.76l3.2,1.86-2,1.43a23,23,0,0,0,8.36,10.11c-1.88.22-3.36.36-4.31.39-10.59.4-53.13,1.52-56.84,2.51S188.45,225.27,172,219.83s-41.85,19.83-56.69,19-46.75,4.37-67.42,0S11.75,226.05,10.56,222s.4-9.92-4-11.66c-2.52-1-13.62-2.21-24.24-3.16V338H618.13V223.8A147,147,0,0,1,596.8,229.83Z"/><path class="cls-8" d="M611.78,247.71c-20.67,2.64-32.59,23.72-41.33,23.72-2.31,0-5.91-.07-10.05-.17.1-.8.2-1.73.3-2.75a3.76,3.76,0,0,0,2-1.15c1-.93,2-2.94,1.71-3.28s-2,1.1-2.93,2a7.14,7.14,0,0,0-.6.68c.08-1,.15-2.09.19-3.18a3.09,3.09,0,0,0,1.62-.73c.85-.65,1.91-2.15,1.68-2.46s-1.68.7-2.53,1.35a4.59,4.59,0,0,0-.74.71q0-1.35,0-2.7a2.7,2.7,0,0,0,1.39-.84c.66-.66,1.42-2.1,1.18-2.34s-1.39.8-2.06,1.47a3.53,3.53,0,0,0-.54.67c0-.92-.11-1.83-.21-2.69a.49.49,0,0,1,0-.12,2.5,2.5,0,0,0,1.12-.71c.58-.58,1.24-1.84,1-2.06s-1.21.71-1.8,1.29a4.2,4.2,0,0,0-.45.55c-.09-1-.14-2-.16-2.94a2,2,0,0,0,.92-.56c.5-.5,1.08-1.6.9-1.78s-1.06.61-1.57,1.12a2.63,2.63,0,0,0-.26.35c0-1.12,0-2.22.06-3.25a2.08,2.08,0,0,0,.78-.33c.53-.35,1.21-1.19,1.08-1.38s-1,.34-1.53.69a1.84,1.84,0,0,0-.29.26c.05-.94.11-1.81.17-2.58a1.63,1.63,0,0,0,.93-.32c.52-.35,1.2-1.19,1.08-1.38s-1,.35-1.54.69a2.25,2.25,0,0,0-.42.38c.06-.79.12-1.47.15-2a2.73,2.73,0,0,0,.51-1.16c.19-.82.07-2.28-.23-2.35s-.66,1.28-.85,2.11a2.39,2.39,0,0,0,0,1.4,20.07,20.07,0,0,0-.46,2,2.36,2.36,0,0,0-.33-.52c-.42-.47-1.14-1.21-1.31-1.06s.27,1.14.69,1.61a1.51,1.51,0,0,0,.85.55c-.14.81-.25,1.74-.34,2.71a2.53,2.53,0,0,0-.39-.43c-.49-.4-1.32-1-1.47-.84s.46,1.08.95,1.48a1.74,1.74,0,0,0,.86.41c-.08,1.06-.14,2.16-.13,3.3a2.46,2.46,0,0,0-.34-.29c-.57-.43-1.55-1.1-1.7-.9s.56,1.22,1.14,1.65a2.07,2.07,0,0,0,.94.43,28.27,28.27,0,0,0,.25,2.92,3.52,3.52,0,0,0-.54-.33c-.74-.36-2-.91-2.12-.64s.9,1.25,1.64,1.62a2.83,2.83,0,0,0,1.15.31c0,.06,0,.11,0,.17a22.89,22.89,0,0,1,.36,2.85,4.37,4.37,0,0,0-.79-.58c-.82-.46-2.2-1.16-2.37-.87s1,1.49,1.77,1.95a2.9,2.9,0,0,0,1.43.44c0,.83,0,1.65,0,2.47a5,5,0,0,0-.63-.55c-.86-.62-2.33-1.59-2.56-1.28s.88,1.79,1.74,2.42a3.66,3.66,0,0,0,1.38.65c-.08,1-.21,2-.37,2.92a7.1,7.1,0,0,0-.48-.74c-.81-1.05-2.21-2.73-2.59-2.44s.4,2.45,1.2,3.5a4.13,4.13,0,0,0,1.57,1.34c-.22,1.06-.48,2.07-.75,3-7-.19-15.2-.5-21.53-.85,0-1.38-.05-3.06-.13-4.93a5.85,5.85,0,0,0,2.79-2.2c1.27-1.63,2.53-5,1.94-5.43s-2.81,2.13-4.08,3.76a9.63,9.63,0,0,0-.79,1.17c-.09-1.59-.22-3.25-.38-5a4.82,4.82,0,0,0,2.34-1.47c1.17-1.18,2.49-3.72,2.06-4.15s-2.44,1.43-3.6,2.61a6.67,6.67,0,0,0-1,1.27c-.16-1.4-.35-2.79-.58-4.17a4.18,4.18,0,0,0,2-1.59c.88-1.17,1.74-3.55,1.32-3.87s-2,1.53-2.86,2.7a6.3,6.3,0,0,0-.69,1.16c-.26-1.42-.55-2.8-.9-4.12a.85.85,0,0,1,0-.17,3.86,3.86,0,0,0,1.57-1.34c.78-1,1.54-3.11,1.17-3.39s-1.73,1.35-2.51,2.37a5.36,5.36,0,0,0-.57.94c-.35-1.47-.63-3-.87-4.43a3.69,3.69,0,0,0,1.28-1.12c.68-.89,1.33-2.71,1-2.95s-1.5,1.17-2.18,2.06a5.13,5.13,0,0,0-.34.52c-.24-1.7-.43-3.36-.58-4.93a3.41,3.41,0,0,0,1.13-.7c.74-.65,1.61-2.09,1.38-2.36s-1.49.75-2.23,1.39c-.15.14-.27.27-.39.4-.12-1.4-.21-2.71-.28-3.88a3.06,3.06,0,0,0,1.36-.76c.73-.65,1.61-2.09,1.37-2.36s-1.49.75-2.22,1.4a3.61,3.61,0,0,0-.57.62c-.07-1.22-.13-2.26-.19-3a4.38,4.38,0,0,0,.55-1.9c.11-1.31-.38-3.53-.86-3.57s-.76,2.11-.87,3.43a3.91,3.91,0,0,0,.3,2.14c-.12.8-.22,1.87-.28,3.11a3.75,3.75,0,0,0-.62-.66c-.74-.64-2-1.64-2.24-1.37s.66,1.71,1.41,2.34a2.88,2.88,0,0,0,1.42.75c0,1.25,0,2.64,0,4.11a4.32,4.32,0,0,0-.68-.52c-.84-.51-2.25-1.28-2.44-1s.94,1.58,1.77,2.08a3.08,3.08,0,0,0,1.41.5c.1,1.63.26,3.34.51,5.07a4.48,4.48,0,0,0-.58-.38c-1-.54-2.62-1.37-2.82-1s1.13,1.75,2.11,2.29a3.7,3.7,0,0,0,1.53.51,41.92,41.92,0,0,0,1,4.37,5.57,5.57,0,0,0-.85-.35c-1.22-.4-3.26-1-3.41-.53s1.66,1.73,2.88,2.13a4.35,4.35,0,0,0,1.84.25c0,.08,0,.16.08.25a38.36,38.36,0,0,1,1.15,4.33,6.11,6.11,0,0,0-1.33-.73c-1.37-.54-3.65-1.33-3.85-.83s1.78,2.08,3.14,2.62a4.48,4.48,0,0,0,2.3.37c.23,1.28.4,2.55.51,3.82a6.63,6.63,0,0,0-1.09-.71c-1.46-.78-3.93-2-4.21-1.43s1.73,2.57,3.19,3.35a5.69,5.69,0,0,0,2.27.72c.09,1.55.09,3.08.05,4.58a10.35,10.35,0,0,0-.9-1c-1.47-1.46-4-3.75-4.52-3.22s1.14,3.69,2.61,5.14a6.39,6.39,0,0,0,2.7,1.74c-.12,1.76-.31,3.42-.53,5-2.72-.17-4.92-.35-6.23-.53a441.81,441.81,0,0,1-44.51-9.51c-19.07-5.11-27-1.91-38.14,0s-35.77.73-51.66,6.87c-7.27,2.81-12,1.89-16.33.88C380.35,252.3,390,237.5,399.75,237c10.38-.51,10.58-3.56,9.57-4.38s-20.46-4.27-28.3,15.17a87.88,87.88,0,0,0-5.29,19.66l-.64-.14a99.74,99.74,0,0,1,1.35-23.13c3.85-20.88,7.22-22.58,5.52-27.37s-10.65,11-9.81,38.87c.13,4.31.36,8,.65,11.24-.29,0-.58-.05-.86-.07a76.4,76.4,0,0,1-1.35-15.75c.46-18.94,3.51-20.92,1.07-24.89s-8.76,11.2-3.46,35.62c.31,1.46.63,2.83.95,4.14l-.31-.58c-7.86-14.51-18.76-17.52-18.48-14.17s3.11,2.35,12.06,10.74a34.43,34.43,0,0,1,4.53,5.23,22.8,22.8,0,0,0-6.84,2.91c-14.3,8.68-25.7,1.31-40.8-4s-15.89,1.75-37.35,5.27a145.11,145.11,0,0,0-20.4,5.06c-.12-2.25-.21-4.44-.28-6.45,1.73-.08,3.28-1.1,3.89-3.8,1.57-6.94-4-10-2.54-13s5.13-5.51,4.87-10-5.41-4.73-4.28-8.1.37-6.75-2.61-7.18c-2.55-.36-5.69,2.92-3.84,6.82s2.09,8.37-.2,9.43-4.86,7.8,1.07,11.34-3.56,7.61-2.7,10.6c.46,1.58,2.85,3.44,5.23,3.84,0,2.22,0,4.61.05,6.94-3.2,1-6.22,2-9.1,2.9-.41-2.16-.84-4.28-1.25-6.16a2.55,2.55,0,0,0,2-1.38c1.09-2.15-2.63-5-2.91-7.42s3.52-4.66,3.77-8.46-3.87-5.17-5.28-9.16,4.08-4.38,5.32-8.28-2.93-8-4.18-11.72,1.81-4.12,3-9-4.86-8-5.31-10.79-11.42,1.69-6,9.32,1.27,11.9,1.73,17.18,4.51,9.15,2.89,12.9-1.06,12.88.93,16.23-1.1,5.59,1.22,9.58a2.6,2.6,0,0,0,1.9,1c.33,1.93.69,4.17,1,6.52a78.6,78.6,0,0,1-7.94,2c-.39-2.57-.89-5.3-1.4-7.88,2-.34,3.25-4.63.69-6.95s-1.46-2.42-.71-7-1.41-7.22-3.4-9.13.92-4.37,1.92-7.39-.91-10.68-3.8-12.47-17.68-5.08-11.89,7.08S235,250,233.16,253s-4.31,4.25-1.95,6.66,6.3,4.44,5,6.5-2.77,8.54,3.14,8.27c.4,2.5.8,5.24,1.16,8a30.93,30.93,0,0,1-7.08.34c-12.71-1-46.89-36.78-61.19-23.65-7.9,7.25-18,10.68-30.53,11.7,0-1.58,0-4-.14-6.89a6,6,0,0,0,2.79-2.2c1.27-1.63,2.53-5,1.94-5.43s-2.81,2.13-4.08,3.75a9.71,9.71,0,0,0-.79,1.18c-.09-1.59-.22-3.25-.38-4.95a4.94,4.94,0,0,0,2.34-1.48c1.17-1.17,2.49-3.72,2.06-4.14s-2.44,1.43-3.6,2.61a6.33,6.33,0,0,0-1,1.26c-.16-1.39-.35-2.79-.58-4.17a4.12,4.12,0,0,0,2-1.59c.88-1.16,1.74-3.55,1.32-3.87s-2,1.54-2.86,2.71a6.3,6.3,0,0,0-.69,1.16c-.26-1.42-.55-2.81-.9-4.12a1.36,1.36,0,0,1,0-.17,4,4,0,0,0,1.57-1.34c.78-1,1.54-3.11,1.17-3.39s-1.73,1.35-2.51,2.37a4.82,4.82,0,0,0-.57.94c-.35-1.48-.63-3-.87-4.44a3.49,3.49,0,0,0,1.28-1.12c.68-.89,1.33-2.7,1-2.95s-1.5,1.17-2.18,2.06a5.24,5.24,0,0,0-.34.53c-.24-1.7-.43-3.36-.58-4.93a3.59,3.59,0,0,0,1.13-.7c.74-.65,1.61-2.1,1.38-2.36s-1.49.74-2.23,1.39a4.84,4.84,0,0,0-.39.4c-.12-1.4-.21-2.71-.28-3.89a3,3,0,0,0,1.36-.75c.73-.65,1.61-2.1,1.37-2.36s-1.49.75-2.22,1.39a4.53,4.53,0,0,0-.57.62c-.07-1.21-.13-2.26-.2-3A4.24,4.24,0,0,0,137,221c.11-1.31-.39-3.54-.86-3.58s-.76,2.12-.87,3.43a3.88,3.88,0,0,0,.3,2.14c-.12.81-.22,1.87-.28,3.12a3.79,3.79,0,0,0-.62-.67c-.74-.63-2-1.63-2.24-1.36s.66,1.7,1.41,2.34a3,3,0,0,0,1.42.75c0,1.24,0,2.63,0,4.11a3.79,3.79,0,0,0-.68-.52c-.84-.51-2.25-1.28-2.44-1s.94,1.57,1.77,2.08a3.2,3.2,0,0,0,1.41.5c.1,1.63.26,3.34.51,5.07a4.48,4.48,0,0,0-.58-.38c-1-.55-2.62-1.37-2.82-1s1.13,1.76,2.11,2.3a3.86,3.86,0,0,0,1.53.51,42.5,42.5,0,0,0,1,4.37,6,6,0,0,0-.85-.35c-1.22-.41-3.26-1-3.41-.54s1.66,1.74,2.88,2.14a4.32,4.32,0,0,0,1.84.24c0,.09,0,.17.08.25a38.52,38.52,0,0,1,1.15,4.34,5.71,5.71,0,0,0-1.33-.73c-1.37-.54-3.66-1.33-3.85-.84s1.77,2.09,3.14,2.63a4.59,4.59,0,0,0,2.3.37c.22,1.27.4,2.54.51,3.82a6.64,6.64,0,0,0-1.09-.72c-1.46-.78-3.93-2-4.21-1.42s1.73,2.57,3.19,3.35a5.82,5.82,0,0,0,2.27.71c.09,1.56.09,3.09,0,4.59a11.69,11.69,0,0,0-.9-1c-1.47-1.45-4-3.74-4.52-3.21s1.14,3.69,2.61,5.14a6.49,6.49,0,0,0,2.7,1.74,66.58,66.58,0,0,1-.91,7.31c-9.45.48-20.21-.27-32.41-1.73-11.4-1.36-19,.32-25.46,1.67,1.28-4.52,4.17-7,4.32-10.59.15-3.81-1.08-5.24-1.54-9s1.93-7.13,3-10.33a8.48,8.48,0,0,0,0-6.49,17.4,17.4,0,0,0-2.19-2.84s2.13,3.84,1.92,6-4.48,9.78-4,13.8,1.51,6.24.39,11.2c-.5,2.19-1.59,3.35-2.59,4.78.15-.86.29-1.78.38-2.81,1.06-11.65-2.11-14.7-.92-23.84s8.21-9,9.67-19.34-2.12-11.52-2.12-11.52.53,10.33-4.37,16.29c-3,3.68-6.84,13.39-9.55,23a40.37,40.37,0,0,1,1.2-7.23c2.92-10.33.8-27.8-1.32-39.07s-4.37-9.8-4.37-9.8a105.94,105.94,0,0,1,3,24.76c0,7.68-1.78,15.94-3.32,23.86a16.89,16.89,0,0,0-1-3.31c-3.57-7.82,2.79-24.64,2.79-24.64s-8,6.49-6.36,19.87A59.4,59.4,0,0,1,64,244.36c-1.31-9.24-3.3-18.09-5.41-21.61-4.77-7.95-5.36-21.86-5.36-21.86s-4.57,8.35,0,16.49c4.24,7.56,4.88,23.66,2.89,31.81-2.1-2-4-3.6-5.67-7.1-2.93-6.28,2.88-10.22-.34-17.39s-6.67-5.85-6.67-5.85,4.85,6,3.38,12.49c-.69,3-.25,8.46.82,14.16-2.93-6.61-7.07-13.58-10.53-20.67.47-1.56,1-3.16,1.43-5.06,1.39-5.86-3.48-18-3.38-21.16s4-8.45,4-8.45a25.39,25.39,0,0,0-3.78,3.78c-1,1.49-2.28,4.67-1.29,9.59s3.87,10.38,2.48,15.84a26.41,26.41,0,0,1-.79,2.57A68.11,68.11,0,0,1,32.64,214a105.88,105.88,0,0,1-4.35-24.57s-2.58-.73-1.3,10.66c.93,8.36,2.86,19.89,6.11,29a20.81,20.81,0,0,0-.55,3.26c-.5,5.67,3.87,10,4.57,17.79,0,.4,0,.73.05,1.1-14.16-10.75-25.3-10.51-54.82,3.66v84.12H618.13V248.84A10.7,10.7,0,0,0,611.78,247.71ZM53,262.73A24.62,24.62,0,0,1,54.49,266c-.78-.57-1.59-1.18-2.42-1.85a17.82,17.82,0,0,0-.13-3.69C52.3,261.27,52.66,262.05,53,262.73ZM35.81,236.26c0-.33,0-.6-.05-.91a28.18,28.18,0,0,0,1.42,2.5C40.57,243.1,43,251.52,45,257.93c-1.56-1.42-3.07-2.76-4.52-4C41.44,244,36.44,243,35.81,236.26Z"/><path class="cls-9" d="M572.52,297.07c.06-.42.12-.86.18-1.31a5.57,5.57,0,0,0,3-1.63c1.48-1.33,3.22-4.28,2.73-4.82s-3,1.56-4.48,2.89a9.51,9.51,0,0,0-.94,1c.18-1.52.33-3.12.45-4.76a4.66,4.66,0,0,0,2.47-1c1.3-.92,3-3.11,2.63-3.59s-2.54,1-3.85,1.88a6.89,6.89,0,0,0-1.14,1c.08-1.35.13-2.7.14-4a4.08,4.08,0,0,0,2.12-1.19c1-1,2.23-3.08,1.89-3.45s-2.12,1.13-3.16,2.09a5.67,5.67,0,0,0-.84,1c0-1.39-.07-2.75-.18-4.05a1.09,1.09,0,0,1,0-.18,3.67,3.67,0,0,0,1.71-1c.91-.84,2-2.7,1.66-3s-1.86,1-2.76,1.84a4.61,4.61,0,0,0-.7.8c-.08-1.46-.11-2.92-.1-4.35a3.65,3.65,0,0,0,1.41-.85c.78-.73,1.7-2.35,1.44-2.63s-1.62.86-2.41,1.59c-.15.15-.28.3-.41.44,0-1.65.15-3.25.26-4.76a3.61,3.61,0,0,0,1.19-.48c.81-.5,1.87-1.72,1.69-2s-1.53.46-2.33.95a3.12,3.12,0,0,0-.44.32c.12-1.35.25-2.61.38-3.73a2.89,2.89,0,0,0,1.4-.5c.81-.49,1.87-1.72,1.7-2s-1.54.47-2.34,1a4.41,4.41,0,0,0-.65.49c.14-1.16.25-2.16.32-2.9a4.19,4.19,0,0,0,.84-1.71c.32-1.23.22-3.42-.23-3.53s-1.06,1.88-1.39,3.1a3.92,3.92,0,0,0-.07,2.08c-.24.75-.51,1.74-.77,2.91a3.65,3.65,0,0,0-.48-.73c-.6-.73-1.64-1.88-1.9-1.67s.35,1.73,1,2.45a2.75,2.75,0,0,0,1.22.94c-.23,1.18-.45,2.5-.63,3.91a3.88,3.88,0,0,0-.56-.61c-.71-.61-1.93-1.58-2.15-1.32s.63,1.64,1.34,2.26a3,3,0,0,0,1.25.7c-.18,1.57-.31,3.21-.35,4.89a4.29,4.29,0,0,0-.49-.45c-.83-.68-2.26-1.73-2.51-1.43s.79,1.85,1.63,2.52a3.56,3.56,0,0,0,1.36.74c0,1.44.06,2.88.2,4.3a5.38,5.38,0,0,0-.75-.48c-1.09-.58-2.93-1.46-3.14-1.06s1.29,1.92,2.38,2.5a4.24,4.24,0,0,0,1.7.53l0,.25a36.52,36.52,0,0,1,.38,4.3,5.85,5.85,0,0,0-1.14-.92c-1.2-.73-3.24-1.85-3.51-1.42s1.34,2.27,2.54,3a4.47,4.47,0,0,0,2.13.73c0,1.24,0,2.48-.15,3.7a6.8,6.8,0,0,0-.91-.85c-1.26-1-3.41-2.51-3.76-2.05s1.21,2.72,2.47,3.7a5.43,5.43,0,0,0,2,1.05c-.18,1.49-.43,2.94-.71,4.36a9.27,9.27,0,0,0-.69-1.13c-1.15-1.62-3.16-4.21-3.75-3.79s.48,3.68,1.63,5.3a6.17,6.17,0,0,0,2.27,2.09c-.19.77-.39,1.52-.59,2.26-5.12.93-10.49,1.79-16.18,2.5,0-1.29-.08-2.71-.14-4.2a7.76,7.76,0,0,0,3.73-2.94c1.71-2.18,3.39-6.65,2.6-7.27s-3.75,2.85-5.46,5a11.93,11.93,0,0,0-1.05,1.57c-.13-2.13-.29-4.36-.52-6.63a6.64,6.64,0,0,0,3.14-2c1.57-1.58,3.34-5,2.76-5.56s-3.26,1.92-4.83,3.5A9.52,9.52,0,0,0,553,283.2c-.22-1.87-.47-3.73-.77-5.58a5.65,5.65,0,0,0,2.62-2.13c1.18-1.56,2.33-4.75,1.77-5.19s-2.64,2.07-3.83,3.63a8.61,8.61,0,0,0-.92,1.55c-.35-1.9-.75-3.75-1.21-5.51l-.06-.24a5.11,5.11,0,0,0,2.11-1.78c1-1.37,2.06-4.17,1.56-4.55s-2.32,1.81-3.36,3.18a7.24,7.24,0,0,0-.77,1.26c-.46-2-.84-4-1.16-5.94a4.84,4.84,0,0,0,1.72-1.51c.91-1.19,1.78-3.62,1.35-3.95s-2,1.57-2.92,2.76a7,7,0,0,0-.45.71c-.33-2.28-.58-4.51-.78-6.6a5,5,0,0,0,1.52-.95c1-.86,2.15-2.8,1.84-3.16s-2,1-3,1.87a6.69,6.69,0,0,0-.53.54c-.15-1.88-.27-3.63-.37-5.21a4.06,4.06,0,0,0,1.82-1c1-.87,2.15-2.8,1.84-3.16s-2,1-3,1.87a5.34,5.34,0,0,0-.77.83c-.09-1.63-.17-3-.25-4.07a5.73,5.73,0,0,0,.73-2.54c.15-1.76-.51-4.73-1.15-4.79s-1,2.84-1.16,4.6a5.33,5.33,0,0,0,.4,2.86c-.16,1.08-.29,2.51-.37,4.17a5.59,5.59,0,0,0-.83-.89c-1-.85-2.7-2.18-3-1.82s.9,2.28,1.89,3.13a3.89,3.89,0,0,0,1.9,1c0,1.67,0,3.53.07,5.51a5.83,5.83,0,0,0-.92-.7c-1.12-.68-3-1.72-3.26-1.31s1.25,2.11,2.37,2.78a4,4,0,0,0,1.88.67c.14,2.19.35,4.48.69,6.79a8.1,8.1,0,0,0-.78-.51c-1.3-.72-3.51-1.83-3.78-1.35s1.52,2.34,2.83,3.07a5,5,0,0,0,2,.68,59.06,59.06,0,0,0,1.3,5.85,9.15,9.15,0,0,0-1.13-.47c-1.64-.54-4.37-1.31-4.57-.71s2.23,2.32,3.86,2.86a5.82,5.82,0,0,0,2.46.33c0,.11.07.22.1.33a50.75,50.75,0,0,1,1.55,5.81,8.08,8.08,0,0,0-1.79-1c-1.82-.72-4.89-1.77-5.15-1.11s2.38,2.79,4.2,3.51a6,6,0,0,0,3.09.5c.3,1.71.53,3.41.68,5.11a10.4,10.4,0,0,0-1.45-1c-2-1-5.27-2.62-5.65-1.91s2.31,3.44,4.27,4.49a7.82,7.82,0,0,0,3,1c.11,2.08.11,4.12.06,6.13a14.58,14.58,0,0,0-1.2-1.38c-2-1.95-5.34-5-6-4.3s1.52,4.93,3.49,6.88a8.66,8.66,0,0,0,3.61,2.33c-.11,1.67-.27,3.29-.47,4.85a216.46,216.46,0,0,1-27.55,1.33c-10.26-.18-22.5-.86-35.76-1.8,2.24-1.54,4.84-3.14,7.4-5,6.7-5,7.87-15.46,4.37-29.15s-.58-25.64,6.12-35.84.88-34.39-4.37-39.93,7.58,20.4,3.79,30-13.6,27.38-10,45.75c2.44,12.43-6.65,25.38-12.33,33.81l-3.46-.26c.74-1.29,1.52-2.74,2.34-4.4,3.64-7.43,7.57-14.43,5.83-22.44s-5.1-10.06-5-19.09,4.66-16.61,4.66-23.76-.64-13.34-3.31-10.16,1.71,6.23.69,13.08-7.44,15.45-3.21,28.27,3.65,22.44-1.31,30.16c-1.85,2.9-3.6,5.66-4.85,8l-2.4-.19c3-3.25,7.59-9,7.81-14.09.32-7.73-2.89-11.81-3.62-21.42s-1-20.4-.29-25.36,1.72-8.74-1.33-8.74-.74,22.58,0,31.18,4.68,22,2.35,26.23c-1.37,2.5-5.35,6.16-7.44,9.37a24,24,0,0,1,.59-9.22c2.19-7.29-1.69-20.4-1.94-26.81s-1.58-9.33-2-4.09,2.54,15.66,2,23c-.39,5.4-2.47,10.06-3,14.54-.29-.72-.58-1.43-.88-2.11-3.93-9.18-5.82-19.68-3.08-36.73s-3.47-17.05-2.16-14,.73,21.43-2,26.38,2.77,20.4,5.1,26.08a42.37,42.37,0,0,1,1.63,5.11l-.79-.06c-5-7.19-14.54-21.24-11-42.21,4.37-26.23-7-37.3-6.21-30.31s4.17,17.49,3,30.61-6.12,24.19,0,32.93a44.16,44.16,0,0,0,8.31,8.48c-51.65-4.36-107.73-10-122.81-5.47-4.86,1.44-12.92,3.31-22.72,5.3,1.38-4.12,2.79-10.12,1.47-10.73-.86-.39-2.71,1.59-4.51,4.05.34-6.16.07-13.5-1.82-13.87-1.39-.27-3.39,3.3-5.14,7.54-1.33-7.68-3.69-16.4-6.1-16.33-2.61.08-4.55,10.42-5.3,18.53-2.39-4-5.05-7.52-6.38-7-1.95.71-.51,9.66,1,15.52-1.82-1.23-3.46-2-4-1.55-.95.89,2.11,5.78,4.38,8.74-32.3,5.48-68.79,10-78.06,6.93-2.73-.9-7.31-2.23-13.19-3.76,1.59-4.15,3.94-12.07,6.15-20,1.89-.09,5.12-1.34,8.83-1.63,5.73-.44,9.92-3.3,9.26-5.39s-3.09-7.39-5.29-5.63c-1.68,1.34-6.87,3.18-10.46,4,2.07-7.84,3.62-14.26,3.62-15,0-2-6.83-4.19-6.61-2.2s-4.63,18.95-7.05,26.45A117.27,117.27,0,0,0,189,304l-.49-.12c1.17-7,1.95-16.07,1.23-19.77-1.1-5.7-4.85-10.33-7.27-10.33s2.42,10.36,0,20.06c-.54,2.17-1,4.4-1.32,6.55-.85-5.05-2.27-13.31-2.65-14.37-.55-1.55-5.73-1.43-5.95-.66a57.82,57.82,0,0,0,1.44,7c-1.89-1.33-4.18-3.07-4.85-2-.78,1.22,1.74,3.42,3.4,4.85a8.43,8.43,0,0,0,2.49,1.37c.38,1.53.78,3,1.15,4.44l-3.48-.76c.73-.74,1.36-1.53,1.17-2-.33-.77-5.95-2.65-7-2.65-.85,0-1.3,1.72-1.42,3.07l-2.48-.49c2.14-2.09,5.18-5.7,4.78-6.65-.55-1.33-1.1-5-2.86-4.3-.74.28-2.13,2-3.55,3.9a26.92,26.92,0,0,1,2.56-6.32c1.65-2.21,2.86-12,3-13.45s-3.42-4.52-5.18-4.3c-.5.06-1.26,2.65-2.09,6.35-1.35-2.06-3.91-5.47-5.62-5.8a3.13,3.13,0,0,0-3.53,3c.16.62,5,5.1,8.16,7.6-.89,4.57-1.76,9.75-2.37,14-.55-3.91-1.29-8.77-1.82-9.44-.88-1.1-6.06-2.53-6.5-2-.18.22.1,2.65.66,5.68a19,19,0,0,0-4.85-1c-.39.19-2.36,6.33-2.57,8.92h0c0-4.72-.05-10.56,0-12.31a3.78,3.78,0,0,0-.9-2.23c1.75-2.16,3.76-5.48,1.45-5.54s-2.5,1.94-3.52,3.52a7.23,7.23,0,0,0-3.42-1.54c-1.35-.05-.17,7.53,1.17,13.62a3.56,3.56,0,0,0-2.49-.93,5.84,5.84,0,0,0-3.4,3.8l-1.91-.24a43.82,43.82,0,0,0,3-4.26c1.32-2.15.25-4.14-2.23-4.06-1.83.06-2.27,2.79-3.44,5.11,1-4.53,2.06-9.43,2.32-11.88.38-3.56,1.12-6.7.87-7.27s-4.3-1.24-4.79-1.24a13.64,13.64,0,0,0-.72,3.4c-2.61-2.91-6.94-7.32-8.15-8.36-1.55-1.33-3.31,1.87-3.75,2.53s7.66,7.74,11.15,11c-.45,3.33-.89,7-1.17,9.89-.48-2.59-1.15-5.25-3.18-5.46-3-.3-4,3.55-1.21,9.33-24.7-2.36-48.34-1.88-62.31,5.13-10.14,5.09-23.73,5.59-37.95,3.06.87-1.19,2.11-3,3.52-5.11a5.41,5.41,0,0,0,3.3-.14c1.84-.53,4.61-2.36,4.41-3s-3.27.08-5.11.61a7.69,7.69,0,0,0-1.23.46c.79-1.25,1.6-2.57,2.4-3.95a4.5,4.5,0,0,0,2.57.17c1.52-.25,3.89-1.45,3.8-2s-2.61-.24-4.14,0a6.17,6.17,0,0,0-1.43.42c.64-1.14,1.25-2.3,1.84-3.46a3.83,3.83,0,0,0,2.33-.13c1.31-.4,3.25-1.73,3.1-2.2s-2.32.09-3.62.48A6.51,6.51,0,0,0,27,282c.57-1.21,1.1-2.41,1.56-3.59l.06-.16a3.58,3.58,0,0,0,1.91-.15c1.15-.34,2.85-1.51,2.72-1.92s-2,.07-3.17.42a5.22,5.22,0,0,0-.95.4c.55-1.3,1.14-2.58,1.76-3.82a3.27,3.27,0,0,0,1.58-.14c1-.31,2.47-1.32,2.36-1.68s-1.77.07-2.76.37a5.54,5.54,0,0,0-.54.21c.74-1.41,1.5-2.77,2.24-4A3.54,3.54,0,0,0,35,268c.91-.09,2.36-.71,2.32-1s-1.53-.24-2.43-.15a2.82,2.82,0,0,0-.52.09c.68-1.13,1.32-2.16,1.91-3.09a2.7,2.7,0,0,0,1.43.17c.91-.09,2.35-.7,2.32-1s-1.53-.25-2.44-.16a4.07,4.07,0,0,0-.76.16c.6-1,1.13-1.78,1.5-2.39a4.21,4.21,0,0,0,1.45-1.13c.8-.93,1.63-2.88,1.3-3.17s-1.73,1.19-2.52,2.12a3.56,3.56,0,0,0-.94,1.77,28.44,28.44,0,0,0-1.9,2.2,3.88,3.88,0,0,0-.11-.84c-.21-.88-.63-2.32-.95-2.25s-.42,1.65-.21,2.53a2.73,2.73,0,0,0,.66,1.34c-.7.92-1.44,2-2.2,3.12a3.1,3.1,0,0,0-.23-.76c-.35-.84-1-2.19-1.3-2.06s-.15,1.69.2,2.53a3,3,0,0,0,.79,1.14c-.81,1.28-1.62,2.66-2.37,4.1a3.69,3.69,0,0,0-.23-.6c-.44-.94-1.23-2.46-1.58-2.3s-.09,1.94.35,2.88a3.6,3.6,0,0,0,.87,1.21,39.91,39.91,0,0,0-1.64,3.82,5.35,5.35,0,0,0-.45-.73c-.7-1-1.93-2.51-2.28-2.25s.31,2.21,1,3.18a4.2,4.2,0,0,0,1.25,1.18c0,.07-.05.15-.07.23a35.84,35.84,0,0,1-1.49,3.89,5.65,5.65,0,0,0-.61-1.28c-.73-1.14-2-3-2.45-2.71s.21,2.53.94,3.68a4.16,4.16,0,0,0,1.54,1.53c-.53,1.08-1.09,2.14-1.69,3.16a6.64,6.64,0,0,0-.43-1.13c-.68-1.38-1.91-3.62-2.41-3.37s-.09,2.88.59,4.26a5.2,5.2,0,0,0,1.32,1.78c-.78,1.22-1.61,2.37-2.45,3.48a9.86,9.86,0,0,0-.12-1.27c-.32-1.89-1-5-1.66-4.88s-1.14,3.4-.83,5.29A6,6,0,0,0,18.61,293a64.85,64.85,0,0,1-5.37,5.72c-1.59-.33-3.19-.7-4.79-1.1.51-2.5,1.12-5.72,1.73-9.41,1.27,0,3.39-1,5.41-2.69,2.69-2.26,5.95-7.38,5.13-8.36s-5.41,2.56-8.1,4.83a16.13,16.13,0,0,0-1.72,1.67c.4-2.68.77-5.49,1.09-8.37a8.33,8.33,0,0,0,4.42-1.63c2.36-1.56,5.44-5.33,4.88-6.19s-4.56,1.54-6.92,3.09a12,12,0,0,0-2.08,1.71c.22-2.37.38-4.74.49-7.09a7.12,7.12,0,0,0,3.81-2c1.88-1.63,4.15-5.3,3.55-6s-3.81,1.87-5.7,3.5a10.39,10.39,0,0,0-1.55,1.7c.06-2.46,0-4.87-.07-7.18,0-.1,0-.2,0-.3a6.8,6.8,0,0,0,3.1-1.67c1.65-1.44,3.63-4.65,3.11-5.25s-3.34,1.64-5,3.07a9.44,9.44,0,0,0-1.28,1.37c-.06-2.58,0-5.15.1-7.69a6.15,6.15,0,0,0,2.53-1.42c1.44-1.24,3.16-4,2.71-4.56s-2.91,1.43-4.34,2.67a7.78,7.78,0,0,0-.76.76c.19-2.92.45-5.75.76-8.41a6.07,6.07,0,0,0,2.13-.78c1.45-.82,3.41-2.92,3.11-3.45s-2.74.73-4.19,1.55a8.34,8.34,0,0,0-.79.53c.29-2.38.6-4.59.89-6.57a5.06,5.06,0,0,0,2.52-.79c1.45-.82,3.42-2.92,3.12-3.45s-2.75.73-4.2,1.55a7.2,7.2,0,0,0-1.16.83c.31-2.05.57-3.81.74-5.12a7.38,7.38,0,0,0,1.58-3c.64-2.15.6-6-.18-6.26s-2,3.26-2.64,5.41a6.69,6.69,0,0,0-.26,3.66c-.48,1.31-1,3-1.54,5.1a7.1,7.1,0,0,0-.8-1.33c-1-1.32-2.79-3.42-3.26-3.05s.51,3.07,1.53,4.39a4.89,4.89,0,0,0,2.1,1.73c-.49,2.07-.95,4.39-1.36,6.87a6.78,6.78,0,0,0-1-1.11c-1.21-1.13-3.3-2.92-3.71-2.48s1,2.95,2.22,4.08a5.37,5.37,0,0,0,2.17,1.33c-.41,2.75-.73,5.65-.92,8.61a8.12,8.12,0,0,0-.83-.83c-1.44-1.24-3.9-3.19-4.35-2.67s1.28,3.31,2.71,4.56a6.65,6.65,0,0,0,2.37,1.38,74.21,74.21,0,0,0,.09,7.61,11.15,11.15,0,0,0-1.29-.88c-1.89-1.1-5.09-2.77-5.49-2.08s2.16,3.47,4.05,4.57a7.46,7.46,0,0,0,3,1c0,.15,0,.3.05.44a64.9,64.9,0,0,1,.4,7.63,10.22,10.22,0,0,0-2-1.69C6.82,260,4,258.33,2.91,258.32c.18-.39.29-.73.19-.85-.31-.36-2,1-2.94,1.8a7.46,7.46,0,0,0-.56.57c-.13-2-.35-4-.62-5.83a3.59,3.59,0,0,0,1.46-.89c.83-.77,1.79-2.46,1.51-2.76S.26,251.27-.57,252a5.18,5.18,0,0,0-.64.74c-.28-1.67-.59-3.24-.92-4.63A3.32,3.32,0,0,0-.71,247c.69-.89,1.36-2.71,1-3s-1.52,1.17-2.21,2.06a4.37,4.37,0,0,0-.54.9c-.36-1.39-.72-2.57-1-3.45a4.67,4.67,0,0,0-.17-2.47c-.44-1.45-1.26-3.82-1.79-3.66s-.56,2.78-.12,4.23a4.93,4.93,0,0,0,1.07,2c.11.88.29,2.07.5,3.45a5.74,5.74,0,0,0-.79-.56c-1-.55-2.63-1.4-2.84-1s1.13,1.77,2.11,2.33a3.53,3.53,0,0,0,1.7.53c.2,1.34.41,2.83.61,4.44a4.22,4.22,0,0,0-.54-.36c-1-.56-2.63-1.4-2.83-1s1.12,1.78,2.1,2.34a4.09,4.09,0,0,0,1.44.52c.21,1.8.39,3.71.51,5.68A4.9,4.9,0,0,0-3,259.4c-1-.84-2.63-2.16-2.93-1.8s.86,2.24,1.83,3.08a4.24,4.24,0,0,0,1.71,1c.08,1.71.11,3.45.07,5.19a6.69,6.69,0,0,0-.87-.92c-1.12-1-3-2.48-3.38-2.08s1,2.58,2.11,3.55a4.57,4.57,0,0,0,2.09,1.13c0,.06,0,.13,0,.2-.08,1.56-.08,3.19,0,4.85a6.85,6.85,0,0,0-1-1.14c-1.28-1.11-3.46-2.84-3.86-2.37s1.13,2.94,2.41,4a4.77,4.77,0,0,0,2.57,1.33c.07,1.6.19,3.22.34,4.82a8.24,8.24,0,0,0-1.41-1.19C-5,278-7.73,276.39-8.11,277s1.71,3.13,3.3,4.18a5.65,5.65,0,0,0,3,1.1c.21,1.95.46,3.85.73,5.66a11.37,11.37,0,0,0-1.16-1.13c-1.82-1.53-4.92-3.92-5.48-3.26s1.65,4.11,3.47,5.64A6.67,6.67,0,0,0-.61,291c.26,1.56.52,3,.76,4.26a142.35,142.35,0,0,1-17.8-7.12v50.93H618.13V289.46C606.7,289.16,591.63,293.48,572.52,297.07ZM-.33,261.48a4.54,4.54,0,0,0,1.6-.93A7.64,7.64,0,0,0,2.51,259c.38,1.24,2.54,3.74,4.28,4.89a7.76,7.76,0,0,0,3.71,1.42q-.11,3.3-.48,6.53a12.19,12.19,0,0,0-1.57-1.56A27.73,27.73,0,0,0,3,266.51c.78-.77,1.38-1.6,1.22-1.89-.27-.46-2.43.67-3.71,1.41a6,6,0,0,0-.87.59C-.28,264.93-.27,263.2-.33,261.48Zm-.26,7.23a2.85,2.85,0,0,0,0-.29,5.24,5.24,0,0,0,2-.71,4.29,4.29,0,0,0,.5-.33,12.21,12.21,0,0,0,2,3.47,16.59,16.59,0,0,0-3.47,1.87,7.09,7.09,0,0,0-1.33,1.14A44.54,44.54,0,0,1-.59,268.71Zm-.23,6.83a3.43,3.43,0,0,0,1.06-.24A15.17,15.17,0,0,0,1,278.57l-.4.32a8.7,8.7,0,0,0-1,1.06Q-.75,277.76-.82,275.54Zm.6,6.62A6.42,6.42,0,0,0,1.89,281,15.13,15.13,0,0,0,3.1,283.3a2.2,2.2,0,0,0,.17.25c-.61.8-1.22,1.68-1.69,2.4a10.73,10.73,0,0,0-.77,1.38C.41,285.64.06,283.93-.22,282.16ZM4,296.4l-.43-.13c-.7-1.86-1.36-3.88-2-6a7.37,7.37,0,0,0,2.62-2.59,11.93,11.93,0,0,0,1-1.86A7.62,7.62,0,0,0,7,287.2C6,290.46,5,293.56,4,296.4Zm3-15.64c-.64-1-1.43-2.11-2.25-3.2.3-.59.43-1.08.27-1.27s-.57-.06-1.09.21a16.77,16.77,0,0,0-1.95-2.11,9.65,9.65,0,0,0,2.55-2.85,13.79,13.79,0,0,0,1.6,1.63,9.7,9.7,0,0,0,3.53,2c-.4,2.62-.93,5.16-1.52,7.64A16.83,16.83,0,0,0,7,280.76Zm128.42,12.66a8,8,0,0,0,1.1-.85c.09.36.17.7.26,1Zm12.94,2c.18-.46.79-2.08,1.33-3.79a41.36,41.36,0,0,0,1.32,4.25Z"/><path class="cls-10" d="M131,259.37a2.74,2.74,0,0,0-2.13-1.76l-2.93-.45a2.76,2.76,0,0,0-3.12,2.29,2.75,2.75,0,0,0-2.29-3.12l-2.93-.45a2.75,2.75,0,0,0-3.12,2.29,2.74,2.74,0,0,0-2.28-3.12l-2.93-.45a2.74,2.74,0,0,0-3.12,2.29,2.74,2.74,0,0,0-2.29-3.12l-2.93-.45a2.73,2.73,0,0,0-3.11,2.29,2.75,2.75,0,0,0-2.29-3.12L92.64,252a2.7,2.7,0,0,0-2.33.77c-1.36-.78-5.49-2.66-14.79-3.4-11.84-.95-15.52,11.74-20.95,16.32s-9.85,3.33-9.85,3.33l-.95,6.13-.94,6.13s4.59.13,8.4,6.14,3.5,19.21,15.08,21.86c9.09,2.09,13.6,1.54,15.12,1.2a2.76,2.76,0,0,0,2,1.44l2.93.45a2.74,2.74,0,0,0,3.11-2.29,2.76,2.76,0,0,0,2.29,3.12l2.93.45a2.74,2.74,0,0,0,3.12-2.29,2.74,2.74,0,0,0,2.29,3.12L103,315a2.74,2.74,0,0,0,3.12-2.29,2.74,2.74,0,0,0,2.29,3.12l2.93.45a2.74,2.74,0,0,0,3.12-2.29,2.74,2.74,0,0,0,2.28,3.12l2.93.45a2.72,2.72,0,0,0,2.91-1.61,5.42,5.42,0,0,0,3.54,2.14L138.76,320a5.49,5.49,0,0,0,6.24-4.57l7.55-49.11a5.49,5.49,0,0,0-4.58-6.23l-12.61-1.94A5.43,5.43,0,0,0,131,259.37Z"/><path class="cls-11" d="M81.11,309.35s1.65-7.64,4.73-27.69,3.68-27.33,3.68-27.33Z"/><path class="cls-11" d="M89.45,310.63s1.64-7.64,4.72-27.69,3.69-27.33,3.69-27.33Z"/><path class="cls-11" d="M97.78,311.92s1.64-7.65,4.73-27.7,3.68-27.33,3.68-27.33Z"/><path class="cls-11" d="M106.12,313.2s1.64-7.65,4.72-27.7,3.68-27.33,3.68-27.33Z"/><path class="cls-11" d="M114.45,314.48s1.64-7.65,4.72-27.69,3.69-27.34,3.69-27.34Z"/><path class="cls-11" d="M122.78,315.76s1.65-7.65,4.73-27.69,3.68-27.34,3.68-27.34Z"/><path class="cls-12" d="M43.39,268a.68.68,0,0,0-.81.47l-2,12.95a.67.67,0,0,0,.63.7l1.59.24a.67.67,0,0,0,.8-.47l2-12.95a.67.67,0,0,0-.62-.7Z"/><path class="cls-13" d="M58.45,267.07c1.54-1.43,11.24-11.63,15-12.41s14,1.83,14.35,1.13-11.6-3.28-15.44-2.72-14,13.26-14.31,13.94S58.45,267.07,58.45,267.07Z"/><path class="cls-13" d="M133.51,260.49s13.93,1.86,15.25,2.69,1.76,2.85,1.2,3.05-1.15-1.86-3.29-2.57-13-2.15-13.43-2.54S132.64,260.69,133.51,260.49Z"/><path class="cls-14" d="M151.11,275.65c-1.65,5.07-3.17,9.9-4.45,14.21-7.66,25.8-28.07,20.58-44.16,18.8-11-1.22-27.52-1.13-42-2.26a13.23,13.23,0,0,0,5.85,2.92c9.09,2.09,13.6,1.54,15.12,1.2a2.76,2.76,0,0,0,2,1.44l2.93.45a2.74,2.74,0,0,0,3.11-2.29,2.72,2.72,0,0,0,0,.49v0h0a2.75,2.75,0,0,0,2.31,2.62l2.93.45a2.74,2.74,0,0,0,3.12-2.29,2.8,2.8,0,0,0,0,.5v0a2.75,2.75,0,0,0,2.32,2.62L103,315a2.74,2.74,0,0,0,3.12-2.29,2.79,2.79,0,0,0,0,.5v0a2.73,2.73,0,0,0,2.31,2.62l2.93.45a2.74,2.74,0,0,0,3.12-2.29,2.85,2.85,0,0,0,0,.5v0h0a2.74,2.74,0,0,0,2.31,2.61l2.93.45a2.72,2.72,0,0,0,2.91-1.61,5.42,5.42,0,0,0,3.54,2.14L138.76,320a5.49,5.49,0,0,0,6.24-4.57Z"/><path class="cls-15" d="M50.34,304c5.54,1.82,31.08,5.56,47.38,6.26s40.88,7.25,52.48,6.16,7.93,4.47-11.25,5.36-53.63-9.93-71.47-10.33S45.54,302.41,50.34,304Z"/><path class="cls-16" d="M415.79,296.45h0l7.91-1.06-1-7.18-7.91,1.05-20.06-5-44.32,5.9s-3.35,1.09-1.95,11.57,4.91,10.66,4.91,10.66l44.32-5.9Z"/><path class="cls-17" d="M350.89,293.48l44.32-5.9,20.06,5,7.91-1.05-.28-2.13L415,290.43l-20.07-5-44.31,5.91s-3.35,1.09-1.95,11.57c0,.38.11.71.16,1.06C347.79,294.52,350.89,293.48,350.89,293.48Z"/><rect class="cls-18" x="364.71" y="283.83" width="22.43" height="28.53" transform="translate(621.75 -113.9) rotate(82.41)"/><rect class="cls-19" x="418.39" y="291.57" width="7.77" height="0.7" transform="matrix(0.13, 0.99, -0.99, 0.13, 655.87, -165.21)"/><rect class="cls-19" x="417.13" y="291.74" width="7.77" height="0.7" transform="translate(654.94 -163.82) rotate(82.41)"/><rect class="cls-19" x="415.87" y="291.91" width="7.77" height="0.7" transform="translate(654.01 -162.42) rotate(82.41)"/><rect class="cls-19" x="414.61" y="292.08" width="7.77" height="0.7" transform="matrix(0.13, 0.99, -0.99, 0.13, 653.09, -161.02)"/><path class="cls-15" d="M416.48,303.44c-3.92,1.09-21.86,2.9-33.26,2.87s-28.76,3.77-36.82,2.64-5.67,2.87,7.68,4.1,37.74-5.24,50.2-4.95S419.89,302.5,416.48,303.44Z"/><polygon class="cls-20" points="519.63 317.62 503.52 307.28 501.43 302.16 506.81 300.67 507.11 297.86 511.19 294.58 511.71 289.05 518.3 289.92 516 284.67 533.55 295.94 519.63 317.62"/><polygon class="cls-21" points="503.96 306.92 502.16 302.51 507.31 301.09 507.62 298.14 511.7 294.86 512.19 289.65 519.17 290.58 517.21 286.08 532.81 296.1 519.47 316.88 503.96 306.92"/><path class="cls-20" d="M527.76,292.27l-13.87,21.61c.16.12,6.15,4,6.15,4,2.07,1.33,4.63,1.06,5.69-.59l.87-1.36c1.07-1.66,3.63-1.93,5.7-.6l2.72,1.75,0,0a.86.86,0,0,0,.42.93l2.25,1.45a.83.83,0,0,0,1.14-.12l1.85-2.87.58-.91,1.81-2.82a.83.83,0,0,0-.36-1.09l-2.26-1.45a.88.88,0,0,0-1,0l0,0-2.73-1.75c-2.06-1.33-2.89-3.77-1.82-5.43l.87-1.36c1.06-1.65.24-4.1-1.83-5.42C534,296.2,527.94,292.36,527.76,292.27Z"/><polygon class="cls-20" points="515.4 314.9 507.5 309.83 513.35 311.83 511.9 308.51 515.68 308.13 510.97 302.71 515.68 302.75 516.43 298.45 521.69 298.42 517.65 293.44 524.36 293.79 523.18 289.28 529.32 293.22 515.4 314.9"/><path class="cls-15" d="M509.46,317.62c6.56-1.41,9.87-2.84,15.24-1.12s18.81.79,21.92-1.59,3.77,6.22-8.55,6.69-17.48-3.51-23.84-2.39S508.84,317.76,509.46,317.62Z"/><path class="cls-22" d="M323,286.14h-.05c2.89-16.45-13.89-33.68-37.93-38.72s-46.1,3.93-50.21,20v-.1l-.2,1v.07l-2.28,11c0,.14-.08.28-.11.42s-.07.43-.11.64l-.07.34v.06c-4,22.09,13.28,36.75,37.27,41.77,24.27,5.08,47.6-3.68,51.1-24.07ZM274.78,296.2c-12.13-2.54-21.26-10.11-23.22-18.33,5.1-6.74,16.5-10,28.62-7.47s21.26,10.11,23.23,18.33C298.3,295.47,286.9,298.74,274.78,296.2Z"/><path class="cls-23" d="M285,247.42c-24.36-5.1-46.94,4.26-50.43,20.92s13.44,34.28,37.81,39.39,46.94-4.26,50.43-20.91S309.36,252.53,285,247.42ZM274.78,296.2c-15-3.15-25.5-14.05-23.35-24.33s16.1-16.07,31.15-12.92,25.5,14.05,23.35,24.33S289.83,299.35,274.78,296.2Z"/><path class="cls-15" d="M251.59,321.66a105.1,105.1,0,0,1,38.86-1.89c15.69,2.09,25.83-2.28,25.83-2.28s.3,6.26-24.84,6.85S249.15,322.27,251.59,321.66Z"/><path class="cls-24" d="M449.77,226.38a19.58,19.58,0,0,1,.93,2,2.36,2.36,0,0,1,.63.4.62.62,0,0,1,.23.47,1.76,1.76,0,0,1-.24.79,11.85,11.85,0,0,1-3.77,3.48c-1.17.79-2.4,1.52-3.39,2.11a22.92,22.92,0,0,0-3.86,2.6c-1.92,1.86-2,2.66-2.87,5.36,0,0,.36-1.52,1.88-7.33s5.06-7.59,7-8.11l.22,0c-.09-.56-.16-1.08-.23-1.61-3.37.75-7,3.43-8.59,9.35a16.12,16.12,0,0,1-1.38,3.55,10.51,10.51,0,0,0-1.78-2.9,29.52,29.52,0,0,1-2.89-4.29c-.79-3.86,2.54-15.71,5.23-19.32s-9.32-7.33-9.19,3c.1,8.31-3.16,13.36-5.39,15.67-1.58,1.49-3.76,3.22-5.15,2.93-2.39-.49-15.12,2.4-16.95,5.35s-3.31,8.2,3.26,12.93,8.67,7.41,10.46,11.92,6.54,9.31,13.55,5.43,7.86-15.13,8.82-18.77q.17-.63.33-1.35h0c.12-.56,2.64-8.54,4.77-10.61,1.05-1,3.84-2.45,6.44-4.13a19.43,19.43,0,0,0,4-3.27,4.56,4.56,0,0,0,1.28-2.66C453.25,227.86,451.81,226.74,449.77,226.38Zm-20.42-10.53c.24-1.73.35-4,2.26-4.81a4,4,0,0,1,3.93.55.57.57,0,0,1,.15.2.71.71,0,0,1-.07.11C433,215.42,425.81,241.56,429.35,215.85Z"/><path class="cls-24" d="M175.45,46.8l.07-.06L152,23.85s-5.75,3.63-4.79,5.54,12.65,11.45,11.46,16.42v0A134.21,134.21,0,0,0,146.1,57.74h0c-5,.94-14-11.19-15.84-12.24s-5.77,4.5-5.77,4.5l21.64,24.58,14.45,16.47a2.44,2.44,0,0,0,3.16.36,134.78,134.78,0,0,0,27.59-26.27,2.45,2.45,0,0,0-.21-3.18Z"/><path class="cls-6" d="M484.62,115.27l0,0-15.35-14.91s-3.74,2.37-3.11,3.61,8.23,7.46,7.46,10.7h0a86.72,86.72,0,0,0-8.16,7.76h0c-3.27.62-9.1-7.28-10.31-8s-3.76,2.93-3.76,2.93l14.09,16,9.41,10.72a1.6,1.6,0,0,0,2.06.24,87.77,87.77,0,0,0,18-17.11,1.58,1.58,0,0,0-.14-2.07Z"/><rect class="cls-25" x="467.48" y="58.82" width="6.1" height="10.35" rx="0.98" transform="translate(32.73 247.9) rotate(-30.53)"/><path class="cls-26" d="M467.49,70.64h0L470,69.14,465.78,62l-2.53,1.5-23.48,3.72L395.47,93.3s-3.05,2.65,3.13,13.13,10,9.08,10,9.08l44.29-26.12Z"/><path class="cls-27" d="M396.84,95.61l44.29-26.13,23.49-3.72,2.53-1.49-.81-1.37-2.53,1.49-23.48,3.73L396,94.24s-3,2.66,3.13,13.13c.13.24.27.46.41.68C393.92,98.15,396.84,95.61,396.84,95.61Z"/><path class="cls-28" d="M467.27,61.37c-.23.13-.45.19-.5.11s.12-.24.35-.38l2.53-1.49c.23-.14.46-.19.5-.12s-.11.25-.35.38Z"/><path class="cls-28" d="M467.86,62.37c-.23.14-.45.19-.5.12s.12-.25.35-.38l2.53-1.5c.23-.13.46-.19.5-.11s-.11.24-.35.38Z"/><path class="cls-28" d="M468.45,63.37c-.23.14-.45.19-.49.12s.11-.25.34-.38l2.53-1.5c.23-.13.46-.19.5-.11s-.11.24-.34.38Z"/><path class="cls-28" d="M469.05,64.37c-.24.14-.46.19-.5.12s.11-.24.34-.38l2.53-1.49c.23-.14.46-.19.5-.12s-.11.24-.34.38Z"/><path class="cls-28" d="M469.64,65.37c-.24.14-.46.19-.5.12s.11-.24.34-.38L472,63.62c.23-.14.46-.19.5-.12s-.11.24-.34.38Z"/><path class="cls-28" d="M470.23,66.38c-.23.13-.46.19-.5.11s.11-.24.34-.38l2.53-1.49c.24-.14.46-.19.5-.12s-.11.25-.34.38Z"/><path class="cls-28" d="M470.82,67.38c-.23.14-.46.19-.5.12s.11-.25.34-.39l2.53-1.49c.24-.14.46-.19.5-.12s-.11.25-.34.39Z"/><path class="cls-28" d="M471.41,68.38c-.23.14-.46.19-.5.12s.11-.25.34-.38l2.54-1.5c.23-.13.45-.19.49-.11s-.11.24-.34.38Z"/><path class="cls-6" d="M376.56,106.82l-5.25,1.56a.64.64,0,0,0-.43.8l.77,2.59a.64.64,0,0,0,.8.43l.7-.21h0l-.69.21L373,114l-1.33,15.48,9.61,32.18s1.2,2.35,8.81.08l.46-.15.23-.06.49-.15-.25.06c6.64-2.2,6.4-4.6,6.4-4.6l-9.6-32.18-9.59-12.21h0l-.55-1.84-3.54,1h0l0,0,3.59-1.08a.64.64,0,0,0,.44-.79l-.78-2.59A.63.63,0,0,0,376.56,106.82Z"/><path class="cls-29" d="M206.67,169.67h0l-4,6.88,6.25,3.67,4-6.88,16.27-12.76L251.82,122s1.2-3.31-7.92-8.66-11.42-2.69-11.42-2.69l-22.62,38.57Z"/><rect class="cls-30" x="218.69" y="122.96" width="22.43" height="28.53" transform="translate(358.78 371.92) rotate(-149.61)"/><rect class="cls-31" x="202.36" y="177.22" width="7.77" height="0.7" transform="matrix(-0.86, -0.51, 0.51, -0.86, 294.29, 435.09)"/><rect class="cls-31" x="203" y="176.12" width="7.77" height="0.7" transform="translate(296.05 433.37) rotate(-149.6)"/><rect class="cls-31" x="203.65" y="175.02" width="7.77" height="0.7" transform="translate(297.8 431.65) rotate(-149.6)"/><rect class="cls-31" x="204.29" y="173.93" width="7.77" height="0.7" transform="translate(299.56 429.93) rotate(-149.6)"/><path class="cls-32" d="M365.54,90.9A71.9,71.9,0,0,0,373,84.74L354.77,53.86,333.6,69.27l23.77,26.85A70.32,70.32,0,0,0,365.54,90.9Z"/><path class="cls-33" d="M365.54,90.9A71.9,71.9,0,0,0,373,84.74l1,1.73a53.34,53.34,0,0,1-7.27,6.12,54.66,54.66,0,0,1-8.06,5l-1.34-1.51A70.32,70.32,0,0,0,365.54,90.9Z"/><path class="cls-34" d="M358.16,95.7,334.79,69.41l.2-.1.23-.13.06,0,0,0,.35-.19.14-.09.12-.07.14-.08.46-.27h0l.49-.3.14-.09.2-.12.21-.13.38-.25.11-.07.05,0,.47-.3.25-.16.07,0,.08,0,.38-.25.34-.22.05,0,.05,0,.22-.15.34-.23.32-.21,0,0h0l.38-.25.43-.3.23-.15.08-.06.34-.24.32-.22,0,0,21,27.93C361.39,93.8,359.19,95.12,358.16,95.7Z"/><path class="cls-35" d="M368.08,89,349.52,59.37h0L350,59l.09-.06.1-.08.28-.22.48-.37.06-.05.07,0,.35-.28c.14-.11.27-.21.39-.32l.06,0,.05,0,.51-.42.12-.09.2-.16.24-.21.17-.14.31-.26.16-.14.23-.2.12-.09.47-.42a.6.6,0,0,1,.08-.08l0,0,17.8,30.1C371.49,86.17,370.07,87.42,368.08,89Z"/><polygon class="cls-36" points="354.62 56.59 371.42 85.37 370.54 86.37 352.55 57.91 354.36 56.23 354.62 56.59"/><path class="cls-2" d="M333.78,69.34l.2-.09,0,0,0,0,.16-.07.24-.13h0l.24-.13.23-.12.06,0,0,0,.35-.2.14-.08.13-.07.13-.08.46-.28h0l.49-.31.14-.08.2-.12.21-.14.38-.24.11-.07,0,0,.47-.3.25-.17.07-.05.08,0,.38-.24.34-.23.05,0,0,0,.22-.14.34-.23.32-.22,0,0h0l.38-.25.43-.29.23-.16.08-.06.34-.23.32-.23.35-.23a.91.91,0,0,1,.16-.11l.34-.25.35-.24.07-.05.2-.14.25-.18.26-.18.24-.18.18-.12,0,0,0,0,.25-.17.24-.18.27-.19.28-.21.29-.2.31-.23.35-.26.12-.09.07,0,.16-.12.42-.31.41-.3,0,0h0l.42-.32.45-.34.08-.06.09-.07.3-.23.47-.36.09-.07.1-.08.28-.21.48-.38.06,0,.07-.06.35-.28c.14-.1.27-.21.39-.31l.06,0,0,0,.51-.42.12-.09.2-.17.24-.2.17-.14.31-.26.16-.14.23-.2.11-.1c.17-.14.33-.28.47-.42a.34.34,0,0,0,.09-.08l.33-.3.08-.09c.12-.11.22-.22.31-.31h0l.26.44-.27.28-.09.08-.32.31-.09.08-.47.42-.11.1-.23.2-.17.14-.3.25-.17.15-.25.2-.19.16-.12.1-.52.42,0,0-.06,0-.39.31-.36.28-.06.06-.06,0-.48.38-.28.21-.1.08L350,59l-.47.36-.3.23-.09.06-.08.07-.46.34-.41.31,0,0h0l-.42.31-.41.31-.16.12-.07.05-.12.09-.36.26-.31.23L346,62l-.29.21-.26.19-.25.18-.24.17,0,0,0,0-.17.12-.25.18a2.2,2.2,0,0,1-.25.17l-.25.18-.2.15-.07,0-.35.24-.35.24a.91.91,0,0,1-.16.11l-.34.24-.32.23-.34.23-.09.06-.22.15-.44.3-.37.25h0l0,0-.32.22-.34.22-.22.15-.06,0,0,0-.35.23-.37.24-.08.05-.07,0-.26.17-.47.3,0,0-.11.07-.38.24-.22.13a1,1,0,0,1-.19.12l-.14.09-.5.31h0l-.46.28-.13.07-.12.07-.14.09-.35.2h0l-.05,0-.23.13-.24.13h0l-.25.13-.15.07,0,0,0,0-.19.08-.34-.38Z"/><path class="cls-33" d="M332.36,68.57a.12.12,0,0,0,.09,0h0l.16,0h0l.24-.08,0,0,.33-.15,0,0,.42-.21h0l.47-.26.05,0,.52-.29.12-.08.6-.35h0l.64-.39.19-.13.6-.37.11-.07.77-.5.07,0,.84-.55.06,0,.88-.59,0,0,.81-.55.22-.15.75-.52.34-.23.93-.65,1.12-.8,0,0,1.09-.78,0,0,1-.76.07-.05,1-.75,0,0,.94-.71.11-.08.84-.65.11-.08.81-.63.07-.06.75-.59.06,0,.67-.55.2-.16.42-.34.3-.26.4-.34.11-.1.47-.42.09-.08.32-.31.09-.08.31-.31,0,0,.18-.22,0-.06a1.45,1.45,0,0,0,.12-.19c0-.06,0-.1,0-.13l.68,1a.14.14,0,0,1,0,.14.72.72,0,0,1-.12.19l0,0-.19.23,0,0-.3.31-.09.09-.33.31a.6.6,0,0,0-.08.08l-.48.42-.11.09-.23.2-.16.14-.31.26-.17.14-.24.21-.2.16-.12.09-.51.42-.05,0-.06,0c-.12.11-.25.21-.39.32l-.35.28-.07,0-.06,0-.48.37-.28.22-.1.08-.09.06-.47.37-.3.22-.09.07-.08.06-.45.35-.42.31,0,0h0l-.41.31-.42.31-.16.11-.06,0-.13.09-.35.26-.31.23-.29.21-.28.2-.27.2-.24.17-.25.18,0,0,0,0-.18.13-.24.17-.25.18-.26.18-.2.14-.07,0-.35.25-.34.24-.16.11-.35.24-.32.22-.34.24-.08.06-.23.15-.43.3-.38.25h0l0,0-.32.21-.34.23-.22.15-.05,0-.05,0-.34.22-.38.25-.08,0-.07,0-.25.16-.47.3-.05,0-.1.07-.39.25-.21.13-.2.12-.14.09-.49.3h0l-.46.27-.13.08-.13.07-.14.09-.35.19,0,0-.06,0-.23.13-.24.13h0l-.24.12-.15.08,0,0h0l-.2.09-.1,0h-.07l-.16.06-.06,0h-.07l-.1,0h-.09l-.05,0h0Z"/><path class="cls-37" d="M332.37,68.43c.4-.91,5.71-5.17,11.86-9.51S355,51.8,354.65,52.71s-5.71,5.18-11.86,9.52S332,69.35,332.37,68.43Z"/><path class="cls-33" d="M342.25,61.42c.1.14.72-.15,1.39-.64s1.14-1,1-1.13-.72.15-1.39.64S342.15,61.29,342.25,61.42Z"/><polygon class="cls-38" points="342.16 57.44 341.33 58.92 340.84 58.25 341.67 56.76 342.16 57.44"/><polygon class="cls-38" points="343.35 59.06 342.51 60.55 342.02 59.88 342.86 58.39 343.35 59.06"/><polygon class="cls-38" points="326.94 49.31 326.96 49.32 327.77 47.88 328.57 48 327.76 49.44 328.89 49.62 329.7 48.18 330.5 48.31 329.69 49.75 330.82 49.92 331.63 48.48 332.43 48.61 331.62 50.05 326.94 49.31"/><polygon class="cls-38" points="332.06 50.12 332.75 50.23 333.56 48.79 334.35 48.91 333.54 50.35 332.06 50.12"/><polygon class="cls-38" points="339.79 54.18 338.96 55.67 338.47 54.99 339.3 53.51 339.79 54.18"/><polygon class="cls-38" points="335.49 49.09 336.17 49.2 336.24 49.3 335.4 50.78 335.29 50.63 334.68 50.53 335.49 49.09"/><polygon class="cls-38" points="340.98 55.81 340.14 57.29 339.65 56.62 340.49 55.14 340.98 55.81"/><polygon class="cls-38" points="337.42 50.92 336.59 52.41 336.1 51.74 336.93 50.25 337.42 50.92"/><polygon class="cls-38" points="338.61 52.55 337.77 54.04 337.28 53.37 338.12 51.88 338.61 52.55"/><polygon class="cls-39" points="339.79 54.18 340.49 55.14 339.65 56.62 338.96 55.67 339.79 54.18"/><polygon class="cls-39" points="338.61 52.55 339.3 53.51 338.47 54.99 337.77 54.04 338.61 52.55"/><polygon class="cls-39" points="326.96 49.32 326.94 49.31 327.18 47.78 327.77 47.88 326.96 49.32"/><polygon class="cls-39" points="337.42 50.92 338.12 51.88 337.28 53.37 336.59 52.41 337.42 50.92"/><polygon class="cls-39" points="340.98 55.81 341.67 56.76 340.84 58.25 340.14 57.29 340.98 55.81"/><polygon class="cls-39" points="341.33 58.92 342.16 57.44 342.86 58.39 342.02 59.88 341.33 58.92"/><polygon class="cls-39" points="332.43 48.61 333.56 48.79 332.75 50.23 331.62 50.05 332.43 48.61"/><polygon class="cls-37" points="343.35 59.06 344.24 60.29 342.99 61.21 342.51 60.55 343.35 59.06"/><polygon class="cls-39" points="328.57 48 329.7 48.18 328.89 49.62 327.76 49.44 328.57 48"/><polygon class="cls-39" points="330.5 48.31 331.63 48.48 330.82 49.92 329.69 49.75 330.5 48.31"/><polygon class="cls-39" points="334.35 48.91 335.49 49.09 334.68 50.53 333.54 50.35 334.35 48.91"/><polygon class="cls-39" points="336.24 49.3 336.93 50.25 336.1 51.74 335.4 50.78 336.24 49.3"/><path class="cls-40" d="M471.65,162a41.83,41.83,0,0,0-4.74,3.23L476,184.44l13.32-7.92-12.54-17.13A42.54,42.54,0,0,0,471.65,162Z"/><path class="cls-33" d="M471.65,162a41.83,41.83,0,0,0-4.74,3.23l-.51-1.08a40.09,40.09,0,0,1,9.64-5.74l.71,1A42.54,42.54,0,0,0,471.65,162Z"/><path class="cls-41" d="M476.26,159.6l12.34,16.77-.12,0-.15.06,0,0h0l-.21.1-.09.05-.08,0-.08,0-.29.14h0l-.31.16-.09,0-.12.06-.13.07-.24.12-.07,0,0,0-.3.15-.16.09,0,0-.05,0-.23.12-.22.11,0,0,0,0-.14.07-.21.12-.21.11h0l-.23.13-.28.15-.14.08-.05,0-.21.12-.21.12h0L473,161.26C474.26,160.54,475.63,159.88,476.26,159.6Z"/><path class="cls-42" d="M470.05,163l9.32,18.46h0l-.3.19-.05,0-.07,0-.17.11-.31.19,0,0-.05,0-.22.14-.25.16,0,0,0,0-.33.22a.18.18,0,0,0-.07,0l-.13.08-.16.11-.1.07-.2.14-.1.07-.15.11-.07.05c-.11.07-.21.15-.3.22l-.06,0h0l-8.84-18.72C467.89,164.48,468.79,163.83,470.05,163Z"/><path class="cls-2" d="M489.19,176.47l-.12,0h0l-.1,0-.15.06h0l-.15.07-.14.06h-.05l-.22.1-.09,0-.07,0-.09,0-.28.13h0l-.31.15-.09.05-.12.06-.14.06-.23.13-.07,0,0,0c-.1,0-.19.1-.29.15l-.16.08-.05,0-.05,0-.23.13-.21.11,0,0,0,0-.14.07-.21.11-.2.12h0l-.23.13-.27.15-.14.08-.06,0-.21.12-.2.11-.22.12-.1.06-.21.12-.22.13-.05,0-.12.07-.16.09-.16.09-.16.09-.1.06,0,0h0l-.16.09-.15.09-.17.1-.18.11-.17.1-.2.12-.22.13-.08.05,0,0-.1.06-.27.16-.26.16h0l-.26.16-.29.18-.05,0-.06,0-.19.12-.29.18-.06,0-.07,0-.17.11-.3.19,0,0,0,0-.23.14-.25.17,0,0,0,0-.33.22-.07.05a.57.57,0,0,0-.13.08l-.15.11-.11.07-.19.14-.11.07-.15.11-.07,0c-.11.07-.21.15-.3.22l-.05,0-.21.16-.06,0-.2.17h0l-.13-.28.18-.15.06,0,.2-.17.06,0,.3-.22.07-.05.15-.11.1-.07.2-.13.1-.08.16-.11.12-.08.08-.05.33-.22,0,0,0,0,.25-.16.22-.15.05,0,0,0,.31-.2.17-.11.07,0,.05,0,.3-.19.19-.12,0,0,.06,0,.28-.17.27-.17h0l.26-.16.26-.16.1-.06.05,0,.07,0,.23-.14.19-.11.18-.11.18-.11.17-.09.15-.09.16-.09,0,0h0l.11-.07.16-.09.15-.09.16-.09.13-.07,0,0,.22-.12.22-.13.1-.05.22-.13.2-.11.21-.12.05,0,.15-.08.27-.15.23-.13h0l.2-.11.21-.12.14-.07,0,0,0,0a1.51,1.51,0,0,0,.22-.11l.23-.13,0,0,.05,0,.15-.09.3-.15,0,0,.06,0,.24-.12.14-.07.12-.06.08,0,.31-.16h0l.28-.14.08,0,.08,0,.09,0,.22-.1h0l0,0,.15-.06.15-.06h0l.15-.06.1,0h0l.11,0,.19.25Z"/><path class="cls-33" d="M490,177s0,0-.05,0h-.13l-.15,0h0l-.2.07h0l-.26.1h0l-.29.12,0,0-.32.14-.07,0-.38.18h0l-.4.2-.12.06-.37.19-.07,0-.48.25,0,0-.52.28,0,0-.55.3h0l-.5.28-.14.08-.47.26-.22.13-.58.33c-.24.13-.47.27-.7.41h0l-.69.4h0l-.65.39,0,0-.64.38h0l-.6.37-.06,0-.54.34-.07,0-.51.33,0,0-.48.31,0,0-.43.29-.13.08-.26.18-.19.14-.26.18-.07.05-.3.22-.05,0a1.93,1.93,0,0,0-.21.17l-.06,0-.2.17,0,0-.12.12,0,0-.08.1a.1.1,0,0,0,0,.09l-.35-.61s0,0,0-.08l.08-.1,0,0,.12-.12,0,0,.2-.17.06,0a1.93,1.93,0,0,1,.21-.17l0,0,.3-.22.07-.05.15-.11.1-.07.2-.14.11-.07.15-.11.13-.08.07,0,.33-.22,0,0,0,0,.25-.16.23-.15,0,0,0,0,.3-.2.17-.11.07,0,.06,0,.29-.18.19-.12.06,0,.05,0,.28-.18.27-.16h0l.26-.16.27-.16.1-.06,0,0,.08,0,.22-.14.19-.11.18-.11.18-.11.17-.1.15-.09.16-.09h0l.11-.07.16-.09.16-.09.15-.09.13-.07.05,0,.21-.12.22-.13.1,0,.22-.13.2-.11.21-.12.06,0,.14-.08.27-.15.23-.13h0l.2-.11.21-.12.14-.07,0,0,0,0,.22-.11.23-.13.05,0,.05,0,.16-.08.29-.15,0,0,.06,0,.24-.12.14-.07.12-.06.09,0,.3-.15h0L488,177l.09,0,.07,0,.09,0,.22-.1h0l0,0,.14-.06.15-.06h0l.15-.07.1,0h0l.12,0,.06,0h.05l.09,0h.19l0,0h0Z"/><path class="cls-43" d="M490,177.08c-.29.51-3.65,2.73-7.51,5s-6.76,3.6-6.48,3.08,3.65-2.73,7.51-5S490.25,176.56,490,177.08Z"/><path class="cls-44" d="M293.79,98.19a54.37,54.37,0,0,0,1-6.31L275.39,85.3l-3.71,16.9,20.41,2.17A52.38,52.38,0,0,0,293.79,98.19Z"/><path class="cls-40" d="M293.79,98.19a54.37,54.37,0,0,0,1-6.31l1.09.37a42,42,0,0,1-1,6.2,41.77,41.77,0,0,1-1.72,6l-1.15-.12A52.38,52.38,0,0,0,293.79,98.19Z"/><path class="cls-45" d="M271.79,102.15a1.12,1.12,0,0,1,0-.13v0a.42.42,0,0,1,0-.1l.06-.17v0h0l.06-.17s0-.11.05-.16l0,0v0a2.41,2.41,0,0,0,.08-.25.36.36,0,0,1,0-.11l0-.09,0-.1c0-.1.07-.22.11-.33h0c0-.12.07-.24.11-.37l0-.1,0-.15c0-.05,0-.1,0-.16a2.45,2.45,0,0,0,.08-.29l0-.08v0l.09-.36a1.33,1.33,0,0,0,.05-.19l0-.06,0-.06c0-.09.05-.19.07-.29s0-.17.07-.26V97.9l0-.17a2,2,0,0,0,.07-.26l.06-.25v0h0c0-.09.05-.19.07-.29l.09-.33c0-.06,0-.12,0-.18l0-.06.06-.27.06-.25.07-.27a.69.69,0,0,1,0-.13,2.68,2.68,0,0,0,.07-.27l.06-.27,0-.06,0-.16,0-.2c0-.06,0-.13,0-.19l.05-.2,0-.14v-.06c0-.06,0-.13.05-.19l0-.2.05-.21.05-.22c0-.08,0-.16,0-.23a2.21,2.21,0,0,0,.05-.25l.06-.28,0-.1v-.05a.69.69,0,0,0,0-.13c0-.11.05-.23.08-.34s0-.22.07-.33v0c0-.11.05-.22.07-.33s0-.25.08-.37v-.14a2,2,0,0,0,.05-.24c0-.13.05-.26.08-.39v-.07l0-.09c0-.07,0-.15,0-.22s.05-.27.08-.4v-.1c0-.1,0-.2.05-.3l.06-.32v-.09c0-.15.05-.29.07-.43l0-.1,0-.16,0-.21s0-.1,0-.15a2.34,2.34,0,0,0,0-.26.68.68,0,0,0,0-.14l0-.2,0-.1c0-.14,0-.28,0-.41V86l0-.29v-.08c0-.11,0-.2,0-.29h0l.28.1c0,.07,0,.16,0,.25v.08q0,.13,0,.3v.07c0,.13,0,.27-.05.42l0,.09a1.36,1.36,0,0,1,0,.2l0,.14a2,2,0,0,1,0,.26.77.77,0,0,1,0,.15l0,.21,0,.16,0,.1c0,.14-.05.29-.07.43v.09l-.06.32c0,.1,0,.2-.05.3v.1c0,.13-.05.27-.07.4s0,.15-.05.23l0,.08v.07c0,.13-.05.26-.07.39a2,2,0,0,0-.05.24.64.64,0,0,1,0,.07v.07c0,.12,0,.25-.08.37s0,.22-.07.34v0h0c0,.11-.05.22-.07.33s-.05.23-.07.34l0,.13v0l0,.1a2.86,2.86,0,0,1-.07.28,1.84,1.84,0,0,1-.05.25c0,.08,0,.15-.05.23s0,.15-.05.23l-.05.21c0,.06,0,.13,0,.19s0,.13,0,.2v0l0,.14,0,.2c0,.06,0,.13-.05.2l0,.19a1.24,1.24,0,0,0,0,.16v.06a2.68,2.68,0,0,0-.07.27l-.06.28,0,.12c0,.09-.05.18-.07.27l-.06.25-.06.27,0,.06c0,.06,0,.12,0,.18l-.09.34a2.86,2.86,0,0,1-.07.28h0v0l-.06.25-.06.26s0,.11-.05.16V98a2.68,2.68,0,0,1-.07.27c0,.09-.05.19-.07.28l0,.06v.06l-.06.19-.09.36v0l0,.08-.08.29c0,.06,0,.11-.05.16s0,.1,0,.15l0,.1c0,.13-.07.25-.11.37h0c0,.12-.07.24-.1.35a.16.16,0,0,0,0,.09l0,.09,0,.11a2.41,2.41,0,0,1-.08.25v0l0,0a1,1,0,0,1-.05.16l-.06.17v0h0l-.06.17a1,1,0,0,1,0,.1v0s0,.09-.05.13l-.3,0Z"/><path class="cls-40" d="M270.88,102.42l.05,0h0l.06-.08v0s.05-.1.08-.16v0l.09-.22v0c0-.09.07-.18.11-.29h0c0-.1.08-.22.12-.34v0l.12-.38,0-.09c0-.14.09-.29.13-.44h0c0-.15.09-.31.14-.47a.83.83,0,0,0,0-.15c0-.14.09-.29.13-.45l0-.08c.05-.19.11-.38.16-.58v-.06c.06-.21.12-.42.17-.64v0c.06-.22.12-.44.18-.68v0l.15-.62a1.16,1.16,0,0,0,0-.18l.15-.58.06-.27c.06-.24.11-.48.17-.73l.21-.89v0c.07-.29.13-.58.19-.87v0l.18-.83v0c.06-.28.12-.55.17-.82v0l.15-.76,0-.09c.05-.23.09-.46.14-.69v-.09c.05-.22.09-.45.13-.67v-.05c0-.22.08-.42.12-.62v0c0-.2.07-.39.1-.57l0-.16.06-.36a2.34,2.34,0,0,1,0-.26c0-.12,0-.23.05-.34s0-.06,0-.1l.06-.41v-.08c0-.1,0-.2,0-.29V85.5c0-.1,0-.2,0-.29v0a1.28,1.28,0,0,0,0-.19v0a.61.61,0,0,0,0-.14.1.1,0,0,0-.05-.07l.66.15s0,0,0,.07a.59.59,0,0,1,0,.14v.27c0,.09,0,.18,0,.29v.08l0,.29s0,0,0,.08,0,.27,0,.41l0,.1,0,.2a.68.68,0,0,1,0,.14,2.34,2.34,0,0,1,0,.26c0,.05,0,.1,0,.15a1.42,1.42,0,0,1,0,.2c0,.06,0,.11,0,.17l0,.1c0,.14-.05.28-.07.43v.09l-.06.32c0,.1,0,.2-.05.3v.1c0,.13-.05.26-.08.4s0,.15,0,.22l0,.09v.07c0,.13-.05.26-.08.39l-.05.24v.14c0,.12-.05.24-.08.37s-.05.22-.07.33v0c0,.11,0,.22-.07.33s0,.22-.07.34,0,.08,0,.12v.06l0,.1-.06.28c0,.08,0,.17-.05.25s0,.15,0,.23l-.05.22c0,.07,0,.14-.05.21s0,.13,0,.2l-.05.19V94l0,.14c0,.06,0,.13-.05.2s0,.13,0,.19l0,.2,0,.16,0,.06-.06.27a2.68,2.68,0,0,1-.07.27l0,.13-.06.27-.06.25a2.68,2.68,0,0,1-.07.27v.06a1.16,1.16,0,0,0,0,.18l-.09.33c0,.1-.05.2-.07.29h0v0l-.06.25c0,.09-.05.18-.07.26s0,.12,0,.17V98c0,.09-.05.18-.07.26s-.05.2-.08.29v.06l0,.06-.05.19-.09.36v0l0,.08a2.45,2.45,0,0,1-.08.29c0,.06,0,.11,0,.16l0,.14,0,.11c0,.13-.08.25-.11.37h0a2.75,2.75,0,0,1-.1.34l0,.1,0,.09,0,.11c0,.08-.05.17-.08.25h0l0,0a1.54,1.54,0,0,0-.05.17l-.06.17h0c0,.07,0,.12-.06.18a.42.42,0,0,0,0,.1v0l-.06.13a.64.64,0,0,0,0,.07l0,0v0a1,1,0,0,1,0,.1s0,0,0,0v0l0,0a.1.1,0,0,1,0,0h0v0h0Z"/><path class="cls-41" d="M270.83,102.35c-.16-.62.63-5,1.76-9.89s2.17-8.27,2.33-7.66-.63,5-1.76,9.89S271,103,270.83,102.35Z"/><path class="cls-46" d="M90,109.54l-1.36,0h-.06l-3.2,0-1.08,3-2.35,6.66-1.12,3.16,2.73,4.1,9.2,14.22a11.07,11.07,0,0,0,4.84,3.82l32.17,11.36a3.27,3.27,0,0,0,4.16-2l7.47-21.17a3.27,3.27,0,0,0-2-4.16l-24.94-8.81a18.11,18.11,0,0,1-5.36-3.21,18.46,18.46,0,0,0-5.36-3.21l-7.43-2.62A24.36,24.36,0,0,0,90,109.54Zm11.32,7.81c2.25.79,3.62,2.8,3,4.45s-2.91,2.36-5.16,1.56l-8.84-3.11c-2.25-.8-3.62-2.81-3-4.46s2.9-2.36,5.16-1.56Z"/><polygon class="cls-47" points="69.61 106.21 66.5 115 80.82 122.31 85.34 109.51 69.61 106.21"/><rect class="cls-48" x="73.28" y="112.86" width="15.3" height="4.57" transform="translate(-54.6 153.11) rotate(-70.55)"/><rect class="cls-49" x="104.65" y="128.22" width="22.76" height="21.45" transform="translate(-53.62 202.09) rotate(-70.55)"/><path class="cls-50" d="M552.17,49.36c0-.42-.11-.89-.18-1.38h0c-.09-.56-.65-8.88.57-11.58s8.59-9.64,7.26-13.62-13.45-.94-12,11.67a15.54,15.54,0,0,1,0,3.8,10.75,10.75,0,0,0-2.7-2,28.91,28.91,0,0,1-4.24-2.93h0c-2.14-3.3-3.35-15.52-2.17-19.85s-11.32-3.42-7.45,6.14c3.12,7.67,1.93,13.55.7,16.51-.93,2-2.33,4.35-3.72,4.59-2.4.41-13.17,7.73-13.81,11.13s-.09,8.82,7.74,10.82,10.74,3.74,14,7.27,9.46,6.27,14.56.12S552.6,53.09,552.17,49.36Zm-19-35.71a3.94,3.94,0,0,1,3.84-.92.89.89,0,0,1,.22.14.91.91,0,0,0,0,.12c-1.16,4.23,1.67,31.12-4.39,6C532.38,17.25,531.66,15.09,533.15,13.65ZM553,24.17c1.86-1.37,3.89-1.65,4.86-1.22.32.14.37.29.39.35.64,1.93-2.61,6.12-4.56,8.62a23,23,0,0,0-2.64,3.81c-1.1,2.43-.87,3.19-.71,6,0,0-.23-1.54-.92-7.49S551.4,25.38,553,24.17Z"/><path class="cls-24" d="M297.64,175.88c5.5,4,6.21-14,13.87-16.12s20.22-1.77,15.95,9.65-3.74,21.57,4.37,20.83,8.61-32.73,12.32-40.74,9.67-14.9-2.87-20.72c-6.16-2.86-8.62.45-15.59-2.67s-11.13-6.06-15.67-1.78-5.41,18.6-7.79,27.24S292.14,171.92,297.64,175.88Zm33-7.78c.84-1.8,10.09.81,3.49,16.44-.85,2-4.4,3.56-6.38.81S329.79,169.9,330.63,168.1Zm-28.44-9.93c3.53-4.54,5.46,0,3.56,2.57s-4.62,14.26-7.61,13.12C296.82,173.35,298.67,162.72,302.19,158.17Z"/><path class="cls-24" d="M120.8,179.71c-4-3.58-16.33-3.3-23.89-4.71s-18.16-7.18-21.16-2.19,12.48,4.31,14.81,10.72,3,17.19-7.13,14.36c-4.55-1.27-8.79-1.73-12-1.22.19.58.37,1.21.56,2,4-.31,11.49,1.41,12.77,1.89,1.51.55.21,7.74-11.44,4.85-.75-.18-1.54-.41-2.39-.68l-.3-.15c-1.65-.8-2.94-3.48-.85-5.26l.06,0c-.13-.74-.26-1.44-.38-2.08-2.67.95-4.12,2.88-3.58,6,.31,1.71,2.21,2.87,5,3.7a26.61,26.61,0,0,0,2.79.67c9,1.78,23.15,1.5,28,3.27,7.13,2.6,13.46,7.21,17.55-3.95,2-5.48-1-7.35,1.17-13.55S124.79,183.29,120.8,179.71Zm-31.5-1c-2.34-1.44-12.55-2.93-11.78-5.58.34-1.16,9.58-.35,13.72,2.35S91.64,180.11,89.3,178.67Z"/><path class="cls-29" d="M532.21,128.32a2.58,2.58,0,0,0-1.62,2l-.38,2.76A2.57,2.57,0,0,0,532.4,136a2.57,2.57,0,0,0-2.89,2.19l-.38,2.76a2.57,2.57,0,0,0,2.19,2.89,2.58,2.58,0,0,0-2.9,2.19l-.38,2.76a2.57,2.57,0,0,0,2.19,2.89,2.57,2.57,0,0,0-2.89,2.19l-.38,2.75a2.57,2.57,0,0,0,2.19,2.9,2.58,2.58,0,0,0-2.9,2.19l-.38,2.75a2.54,2.54,0,0,0,.75,2.18c-.71,1.29-2.41,5.19-3,13.93-.72,11.13,11.24,14.4,15.62,19.44s3.26,9.19,3.26,9.19l5.77.8,5.76.8s.06-4.31,5.64-8,18-3.55,20.31-14.46c1.83-8.56,1.25-12.78.91-14.21a2.55,2.55,0,0,0,1.32-1.89l.38-2.76a2.57,2.57,0,0,0-2.19-2.89,2.58,2.58,0,0,0,2.9-2.19l.38-2.76a2.57,2.57,0,0,0-2.19-2.89,2.57,2.57,0,0,0,2.89-2.19l.38-2.76a2.57,2.57,0,0,0-2.19-2.89,2.58,2.58,0,0,0,2.9-2.19l.38-2.76a2.57,2.57,0,0,0-2.19-2.89,2.57,2.57,0,0,0,2.89-2.19l.38-2.76a2.54,2.54,0,0,0-1.55-2.7,5.12,5.12,0,0,0,2-3.36L589,120.23a5.16,5.16,0,0,0-4.39-5.79L538.43,108a5.16,5.16,0,0,0-5.79,4.38L531,124.29A5.12,5.12,0,0,0,532.21,128.32Z"/><path class="cls-51" d="M579.82,174.48s-7.2-1.44-26.06-4-25.7-3.07-25.7-3.07Z"/><path class="cls-51" d="M580.91,166.64s-7.2-1.44-26.06-4-25.7-3.07-25.7-3.07Z"/><path class="cls-51" d="M582,158.8s-7.2-1.44-26-4.05-25.71-3.07-25.71-3.07Z"/><path class="cls-51" d="M583.08,151s-7.2-1.44-26.06-4.05-25.7-3.07-25.7-3.07Z"/><path class="cls-51" d="M584.16,143.12s-7.2-1.44-26-4.05S532.4,136,532.4,136Z"/><path class="cls-51" d="M585.25,135.28s-7.2-1.44-26.06-4.05-25.7-3.07-25.7-3.07Z"/><path class="cls-51" d="M541.49,210.46a.63.63,0,0,0,.46.75l12.18,1.69a.63.63,0,0,0,.64-.6l.21-1.49a.63.63,0,0,0-.46-.75l-12.18-1.69a.63.63,0,0,0-.64.6Z"/><path class="cls-52" d="M540.46,196.34c-1.36-1.43-11.08-10.39-11.86-13.9s1.52-13.18.86-13.48-2.92,10.93-2.34,14.52,12.65,13,13.29,13.24S540.46,196.34,540.46,196.34Z"/><path class="cls-52" d="M533.23,126s1.55-13.1,2.31-14.35,2.65-1.69,2.84-1.17-1.72,1.11-2.36,3.12-1.83,12.25-2.2,12.64S533.43,126.8,533.23,126Z"/><path class="cls-53" d="M383.5,189.85l.31.59-2,1.09,4.81,9,2-1.09.32.59a.66.66,0,0,0,.9.27l2.17-1.16a.67.67,0,0,0,.28-.9l-.32-.59-4.81-9-.32-.59a.66.66,0,0,0-.9-.27l-2.17,1.15A.67.67,0,0,0,383.5,189.85Z"/><path class="cls-13" d="M398.83,172.14l-11.71,12.05a5.58,5.58,0,0,0-1.43,3.19l6.63,12.41a7.58,7.58,0,0,0,3.26,1.23l9.43.87a15.76,15.76,0,0,0,7.55-1.53l28.2-15.06a4,4,0,0,0,1.65-5.44L432.31,161a4.53,4.53,0,0,0-5.61-2l-21.35,8.78A23.36,23.36,0,0,0,398.83,172.14Zm5.62,1.83a2.68,2.68,0,0,1,0,3.79l-9.81,9.71a2.68,2.68,0,0,1-3.77-3.81l9.82-9.71A2.67,2.67,0,0,1,404.45,174Z"/><path class="cls-6" d="M12.09,147.6l-.07,0,6.94,23s5-.28,5-1.84-4-11.8-1.49-14.55h0A97.46,97.46,0,0,0,34.72,151h0c3.55,1.18,5,12.1,5.78,13.44s5.28-.83,5.28-.83l-5.1-23.38-3.39-15.64a1.79,1.79,0,0,0-1.89-1.36,98.45,98.45,0,0,0-26.94,7,1.79,1.79,0,0,0-1,2.1Q9.76,139.92,12.09,147.6Z"/><path class="cls-51" d="M173.73,180.62l-.65.12-.43-2.26-10,1.89.43,2.27-.65.12a.67.67,0,0,0-.53.78l.46,2.4a.65.65,0,0,0,.77.53l.66-.12,10-1.9.66-.12a.67.67,0,0,0,.53-.78l-.46-2.4A.67.67,0,0,0,173.73,180.62Z"/><path class="cls-40" d="M186,200.44l-8-14.7a5.52,5.52,0,0,0-2.61-2.31l-13.75,2.62a7.51,7.51,0,0,0-2.14,2.73l-3.62,8.7a15.69,15.69,0,0,0-.8,7.62l5.94,31.26a4,4,0,0,0,4.67,3.18l21-4a4.51,4.51,0,0,0,3.57-4.73l-2-22.9A23.23,23.23,0,0,0,186,200.44Zm-3.41,4.8A2.67,2.67,0,0,1,179,204.1l-6.31-12.21a2.67,2.67,0,1,1,4.74-2.45l6.31,12.21A2.67,2.67,0,0,1,182.59,205.24Z"/><path class="cls-29" d="M160.27,232.29l29.62-5.63-1.64-18.72a17.39,17.39,0,0,0-.3-1.89l-31.52,6Z"/><path class="cls-6" d="M171.58,109.1h0s-3.9-.83-12.83,2.11-9.55,9.72-4,10.39,5.75-6.09,13.87-1.4-.6,17.39-7.05,17.54-11.06,2.83-10.8,6.18,11.82,5.74,24.42-4.44l.14-.13a12.27,12.27,0,0,0,2.43-.81c4-1.73,5.9-2,7.31-2s4.76.75,7.6.85,9.31.39,10-1.93.48-11.51-1.08-17-1.77-11.21-4.54-14.26-8.44-1.85-13.14-.94C179.91,104,173.91,107.21,171.58,109.1ZM156.4,120.32s-3.09,0-3.79-1.71,4.46-6.13,11.78-7.44,7.05,4.33,5.42,5.16-6.45-.49-9.17,1.38S159.23,119.29,156.4,120.32Zm9.23,22.34c-9.48,4.71-13,1.93-13,.38s5.61-3.19,9.08-3.47,7-3.28,7-3.28C171.5,136.55,175.12,138,165.63,142.66Z"/><path class="cls-54" d="M50.06,80.91a3.17,3.17,0,0,1,2.64-1c.78-1.08,1.62-2.13,2.43-3.19h0L60,69.79l-.15-.25L54.39,76l-.31-.24L58.86,69l-.15-.26-5.42,6.48L53,74.94l4.79-6.82-.15-.25h0l-5.41,6.46-.32-.24,4.79-6.82L56.51,67,51.09,73.5l-2.43,3.19a3.37,3.37,0,0,1,0,3.14c-.95,1.4-12,14.16-12.08,14.82a1.58,1.58,0,0,0,.25,1.09,2,2,0,0,0,.74.85,3.1,3.1,0,0,0,1.79.22S49.5,81.56,50.06,80.91Z"/><path class="cls-54" d="M510.25,102.36a3.19,3.19,0,0,1,2.75.72c1.26-.41,2.56-.77,3.84-1.15h0l8-2.71,0-.29-8.2,2-.11-.38,7.88-2.68,0-.3-8.19,2-.12-.38L524,96.57l0-.29h0l-8.18,2-.11-.38,7.88-2.69,0-.29-8.19,2-3.84,1.15a3.36,3.36,0,0,1-1.89,2.51c-1.59.57-18,4.38-18.5,4.85a1.65,1.65,0,0,0-.43,1,2,2,0,0,0,.09,1.13,3,3,0,0,0,1.32,1.23S509.41,102.56,510.25,102.36Z"/><path class="cls-54" d="M355.68,208.5c1.53-3.33,8.3-15.85,8.3-15.85a.92.92,0,0,0-.1-.7c-.09-.35-.45-.61-1.72.18-2.15,1.34-5.67,8.36-6.58,10a5.11,5.11,0,0,0-.34,3.39c-.09.07-6.45,11.31-6.89,12.77a2,2,0,0,0,0,1.51c.17.55.69.66,1.51-.1C351.17,218.55,354.15,211.84,355.68,208.5Z"/><path class="cls-54" d="M265,158.32c0-3.48-1.79-6.3-4-6.3s-4,2.82-4,6.3c0,3,1.34,5.52,3.12,6.14,0,3.27-1.09,20.42-.8,21a1.64,1.64,0,0,0,.84.71,2,2,0,0,0,1.08.23,3,3,0,0,0,1.55-.88s-.83-18-.89-21.06C263.66,163.77,265,161.3,265,158.32Z"/></g></svg>