<svg version="1.1" xmlns="http://www.w3.org/2000/svg" x="0" y="0" width="615" height="295" viewBox="0 0 615.1 294.8" xml:space="preserve">
  <style>
	.clipping{fill-rule:evenodd;clip-rule:evenodd}
	path.foreground {
      fill: white;
    }
    path.background {
      fill: #00AFAA;
    }
  </style>
	<path fill="transparent" class="background clipping" d="M609.4 258c0 17.1-14 31.1-31.1 31.1H36.8c-17.1 0-31.1-14-31.1-31.1V36.8c0-17.1 14-31.1 31.1-31.1h541.6c17.1 0 31.1 14 31.1 31.1V258z"/>
	<path fill="white" class="foreground" d="M578.3 294.8H36.8C16.5 294.8 0 278.3 0 258V36.8C0 16.5 16.5 0 36.8 0h541.6c20.3 0 36.8 16.5 36.8 36.8V258c-.1 20.3-16.6 36.8-36.9 36.8zM36.8 11.3c-14 0-25.4 11.4-25.4 25.5V258c0 14 11.4 25.5 25.4 25.5h541.6c14 0 25.4-11.4 25.4-25.5V36.8c0-14-11.4-25.5-25.4-25.5H36.8z"/>
	<path fill="white" class="foreground" d="M550.7 246.1h-5.8v15h-5.7v-15h-5.8v-3.9h17.3v3.9zm16.5 7.6 4.7-11.5h7.7v19h-5.4v-12.9h-.1l-5 12.9H565l-5-12.9v12.9h-5.4v-19h7.7l4.9 11.5z"/>
	<path fill="white" class="foreground clipping" d="M387.9 289.1H357l-79.1-83.8c-7.4-7.3.3-13.7 8.2-21.5 7.9-7.8 13.9-7.5 21.7-1.4 35 27.4 61.9 77.4 61.9 77.4C374.9 176 405.3 80.2 496.1 5.7h70.3c-7.2 4.6-21.5 16-26 19.4C416.1 119.5 405.1 228 397.2 269.4c-1.4 7.3-3 14.7-9.3 19.7z"/>
	<path fill="white" class="foreground" d="M548.3 97.4c-2.7-1.5-6-.4-7.4 2.5-1.4 2.9-.4 6.4 2.2 7.9 2.7 1.5 6 .4 7.4-2.5 1.5-2.9.5-6.4-2.2-7.9z"/>
	<path fill="white" class="foreground clipping" d="M578.9 70.1c-.4-1.3-1-2.5-2.4-2.9-.7-.2-1.5-.3-2.2-.2-38.9 5.5-74 32.1-85.1 70.4-1.7 5.8-3.2 11.7-4.1 17.6-.8 5.6-1.3 11.2-1.5 16.9-.2 5.2-.1 10.5.2 15.7.3 4.9.9 9.7 1 14.6.1 5.3.1 11.4-5 14.5-18 11.1-64 20.6-62.6 26.6 1.2 5.5 20.2 3.7 23.8 3.6 10.1-.3 20.1-3.7 30.2-2.3 5.2.8 9.5 2.8 13 6.8 2.9 3.3 6.4 12.2 12.3 9.8 8.5-3.4 2.7-25.4-1.9-39 32-10.8 56-20.8 71.5-50.1 8.3-15.7 13.4-33.7 15.1-51.3.4-3.9.6-7.9.6-11.8.2-10.4 0-21.4-1.5-31.8-.3-2.2-.7-4.3-1.2-6.5-.1-.3-.2-.5-.2-.6zm-87.6 134c1.6-20.3 7.4-51.7 19-75.3.8-1.6 1.6-3.1 2.4-4.7 1.3 4.5 4.4 8.5 9 10.6 6.9 3.2 14.9 1.1 19.5-4.5-1.2 7.2 2.5 14.5 9.4 17.7 4.4 2 9.2 1.9 13.3.2-1.7 4.6-3.7 9.2-6 13.4-12.9 24.3-37.3 47.9-64.1 58.8-.1 0-.9-2.5-1-2.7-1.9-7.3-1.5-13.5-1.5-13.5zm75.1-63.1c-3.9 1.4-8.3 1.3-12.3-.5-6.6-3-10.2-9.8-9.5-16.7.1-.4.2-.8.2-1.2l-.1.1v-.2c-.2.3-.5.6-.7.9-4.7 5-12.3 6.8-18.9 3.8-4.2-1.9-7.2-5.5-8.7-9.5 12-19.2 28.9-33.8 52.9-43.2 2-.8 5.7-2.5 6.3 4 .7 9.7-1.1 37.2-9.2 62.5z"/>
	<path fill="white" class="foreground" d="m103 120.6-1.7-9.5c-10 9.4-20.2 12.1-33.5 12.1C51 123.1 36 114.8 36 96.3c0-40.5 63.4-22.1 63.4-38.8 0-6.5-7.8-7.3-11.6-7.3-4.9 0-11.6 1-12.4 8.7h-34C41.5 40 54.9 29 90.1 29c42.2 0 44.7 15.6 44.7 36.9v41.6c0 5.1.2 7.7 4.8 11.4v1.7H103zm-3.6-39.4C87.9 86.8 72.6 84 72.6 95.6c0 4.4 4.2 7.5 11.2 7.5 12.4 0 16.5-9.7 15.6-21.9zm77.7 11.7c0 3.6 1.4 6.3 3.7 8.2 2.2 1.7 5.3 2.7 8.7 2.7 5.4 0 11.2-1.7 11.2-8 0-14.3-54.6-2.9-54.6-37.4 0-22.8 23.6-29.4 42.2-29.4 19.4 0 42.2 4.4 44.2 28h-32.1c-.3-2.9-1.5-4.9-3.4-6.5-1.9-1.5-4.4-2.2-7.1-2.2-6.1 0-10 1.9-10 6.3 0 12.4 56.3 4.1 56.3 37.4 0 18.5-15.3 31.1-47.9 31.1-20.4 0-42.8-6.3-44.7-30.3h33.5zm127.7-27.4c-.2-3.9-1.5-7-3.7-9.2-2.2-2.4-5.3-3.6-9.2-3.6-13.3 0-15.5 13.8-15.5 24.3 0 13.4 5.1 22.3 15.5 22.3 9.2 0 12.7-6.3 13.8-13.3h35.7c-1.5 13.4-7.7 22.8-16.7 28.7-8.8 5.8-20.4 8.3-32.8 8.3-28.7 0-50.8-16.1-50.8-46.2 0-30.4 21.4-47.9 50.8-47.9 23.8 0 46.2 10.2 48.8 36.5h-35.9zM40.6 166.2h-5l8.2-20.8h5.5l8.1 20.8h-5.2l-1.5-4.3h-8.5l-1.6 4.3zm2.8-7.9h5.8l-2.8-8.2h-.1l-2.9 8.2zm19.7 1.5c0 1.2.7 3.4 4.8 3.4 2.3 0 4.8-.5 4.8-2.7 0-1.6-1.7-2.1-4.1-2.6l-2.5-.5c-3.7-.8-7.3-1.5-7.3-6.1 0-2.3 1.4-6.4 8.8-6.4 7 0 8.9 4.2 8.9 6.7H72c-.1-.9-.5-3.1-4.7-3.1-1.8 0-4 .6-4 2.5 0 1.6 1.5 2 2.4 2.2l5.6 1.2c3.1.7 6 1.9 6 5.6 0 6.3-7 6.8-9 6.8-8.4 0-9.8-4.4-9.8-7h4.6zm32.2-7.6c-.4-1.2-1.1-3.6-5.1-3.6-2.3 0-5.7 1.4-5.7 7.3 0 3.7 1.6 7.1 5.7 7.1 2.6 0 4.5-1.4 5.1-3.9h4.8c-1 4.5-4.2 7.7-10 7.7-6.1 0-10.5-3.7-10.5-10.9 0-7.3 4.6-11 10.5-11 6.9 0 9.6 4.3 9.9 7.4h-4.7zm16.4 5.7h-8.9v-3.8h8.9v3.8zm6.3 8.3h-5l8.2-20.8h5.5l8.1 20.8h-5.2l-1.5-4.3h-8.5l-1.6 4.3zm2.9-7.9h5.8l-2.8-8.2h-.1l-2.9 8.2zm34.2 9.4-2.7-2.3c-2.2 1.2-4.5 1.4-5.9 1.4-3 0-11-1.2-11-11s8-11 11-11 11 1.2 11 11c0 3.4-1 5.8-2.4 7.4l2.5 2.1-2.5 2.4zm-5.8-9.5 2.4 2.1c.6-1.1 1.1-2.5 1.1-4.5 0-5.8-3.6-7.3-6.2-7.3s-6.2 1.5-6.2 7.3 3.6 7.3 6.2 7.3c.8 0 1.7-.1 2.6-.6l-2.3-2 2.4-2.3zm30.3.8c0 5.5-3.6 7.8-9.4 7.8-2.1 0-5.2-.5-7.3-2.5-1.2-1.3-1.7-3-1.8-5v-13.8h4.9V159c0 2.9 1.9 4.2 4.1 4.2 3.3 0 4.6-1.5 4.6-4v-13.7h4.9V159zm6.7 7.2h-5l8.2-20.8h5.5l8.1 20.8h-5.2l-1.5-4.3h-8.5l-1.6 4.3zm2.8-7.9h5.8l-2.8-8.2h-.1l-2.9 8.2zm21.9 7.9h-4.8V162h4.8v4.2zm13.5-21.3c3 0 11 1.2 11 11s-8 11-11 11-11-1.2-11-11c0-9.9 8-11 11-11zm0 18.2c2.6 0 6.2-1.5 6.2-7.3s-3.6-7.3-6.2-7.3-6.2 1.5-6.2 7.3 3.6 7.3 6.2 7.3zm14.6-17.7h11.6c6.1 0 7.2 4.1 7.2 5.9 0 2.3-1.3 4.3-3.5 5 1.9.8 2.9 1.4 2.9 5.3 0 3 0 3.8 1 4.1v.6H253c-.3-1-.5-2.1-.5-4.2 0-2.8-.2-3.9-3.7-3.9h-4.9v8.2h-4.7v-21zm10.3 9.2c2.5 0 3.7-.8 3.7-2.8 0-1.1-.5-2.7-3.4-2.7h-6v5.6h5.7zm23 .4h9.6v11.2h-3.2l-.5-2.6c-1.2 1.3-3 3.2-7.1 3.2-5.5 0-10.5-3.6-10.5-10.9 0-5.7 3.4-11 11.1-11h.1c7 0 9.8 4.1 10.1 7h-4.8c0-.8-1.6-3.4-5-3.4s-6.6 2.1-6.6 7.5c0 5.7 3.4 7.2 6.7 7.2 1.1 0 4.6-.4 5.6-4.6h-5.3V155z"/>
</svg>
