<?xml version="1.0" encoding="UTF-8" standalone="no"?>
<!-- Created with Inkscape (http://www.inkscape.org/) -->
<svg id="svg2" xmlns:rdf="http://www.w3.org/1999/02/22-rdf-syntax-ns#" xmlns="http://www.w3.org/2000/svg" xml:space="preserve" height="350" viewBox="0 0 200.16722 350" width="200.17" version="1.1" xmlns:cc="http://creativecommons.org/ns#" xmlns:dc="http://purl.org/dc/elements/1.1/"><metadata id="metadata8"><rdf:RDF><cc:Work rdf:about=""><dc:format>image/svg+xml</dc:format><dc:type rdf:resource="http://purl.org/dc/dcmitype/StillImage"/><dc:title/></cc:Work></rdf:RDF></metadata><g id="layer3" transform="translate(-381.19 141.56)"><path id="path2103" style="paint-order:stroke fill markers" d="m401.75-141.56h159.05c11.389 0 20.558 9.169 20.558 20.558v308.88c0 11.389-9.1691 20.558-20.558 20.558h-159.05c-11.389 0-20.558-9.1691-20.558-20.558v-308.88c0-11.389 9.1691-20.558 20.558-20.558z" fill="#4b8632"/></g><g id="layer2" transform="translate(-381.19 141.56)" fill="#ffffff"><g id="g2115" transform="matrix(2.9264 0 0 2.9264 -31.998 -401.55)"><path id="path2107" d="m152.41 187.36v7.8341h-3.1605v-19.351l5.6052 0.0988c0.72789 0.0128 1.4093 0.14244 2.044 0.42731 0.63467 0.26589 1.176 0.63623 1.624 1.111 0.46667 0.47479 0.88011 0.93616 1.1414 1.5819 0.28 0.64571 0.42 1.28 0.42 2.0017v0.85463c0 0.72168-0.14 1.4054-0.42 2.0511-0.26133 0.62673-0.62533 1.187-1.092 1.6808-0.448 0.47479-0.98933 0.84513-1.624 1.111-0.32438 0.18701-0.58746 0.22215-0.94434 0.34939l5.9736 8.0829h-3.7634l-5.5896-7.8141zm0-8.5714v5.8719h2.1319c1.1487 0 1.7835-0.54239 2.3078-1.2409 0.3945-0.52555 0.44696-1.2718 0.41169-1.928-0.0306-0.57028-0.1626-1.1948-0.53528-1.6276-0.51994-0.60377-0.93661-1.0754-2.1348-1.0754z"/><path id="path2109" d="m166.11 178.64h-4.3776v-2.8479h11.733v2.8479h-4.4336v16.552h-2.9216z"/><path id="path2111" d="m195.65 175.49c-1.116 0-1.9236 0.23226-2.8164 0.69727-0.89282 0.46501-1.5896 1.1074-2.0918 1.9258-0.50221 0.81842-0.60547 1.7581-0.60547 2.8184 0 1.3578 0.57044 2.0877 1.3145 2.9805 0.74401 0.89282 1.941 1.5031 3.6894 2.2285 0.47626 0.185 0.83256 0.35968 1.1543 0.53516 0.59336 0.15641 1.2493 0.60776 1.6905 0.98027 0.6088 0.54602 0.65058 0.80547 0.70938 1.911 0.0751 1.4121-1.213 3.1518-3.187 3.2045-2.285-0.17936-3.1119-1.6691-3.2718-3.6602l-3.1149 0.6875c0.16168 0.94604 1.1914 3.592 2.7715 4.6992 0.98582 0.46501 2.0895 1.1426 3.4102 1.1426 1.2834 0.00001 2.3101-0.20965 3.2773-0.73046 0.96722-0.52081 1.7116-1.237 2.2324-2.1484 0.52081-0.91142 0.78125-1.9357 0.78125-3.0703 0-1.0974-0.18659-2.0177-0.5586-2.7617-0.35341-0.74402-0.86554-1.3669-1.5352-1.8691-0.65101-0.50221-1.5149-0.97547-2.5938-1.4219-1.1904-0.48361-2.6425-1.039-3.0703-1.4668-0.42781-0.42782-0.64257-0.96814-0.64257-1.6192 0-0.66961 0.19532-1.1992 0.58593-1.5898 0.39061-0.40921 1.2674-0.74519 2.1836-0.71289 1.4004 0.0494 1.6772 0.4616 2.9043 1.7812l2.3281-1.3711c-0.77485-1.3436-1.5837-1.9972-2.4766-2.5547-0.83305-0.52021-1.9151-0.61524-3.0684-0.61524z"/><path id="path2113" d="m179.42 187.36v7.8341h-3.1605v-19.351l5.6052 0.0988c0.72789 0.0128 1.4093 0.14244 2.044 0.42731 0.63467 0.26589 1.176 0.63623 1.624 1.111 0.46667 0.47479 0.88011 0.93616 1.1414 1.5819 0.28 0.64571 0.42 1.28 0.42 2.0017v0.85463c0 0.72168-0.14 1.4054-0.42 2.0511-0.26133 0.62673-0.62533 1.187-1.092 1.6808-0.448 0.47479-0.98933 0.84513-1.624 1.111-0.32438 0.18701-0.58746 0.22215-0.94434 0.34939l5.9736 8.0829h-3.7634l-5.5896-7.8141zm0-8.5714v5.8719h2.1319c1.1487 0 1.7835-0.54239 2.3078-1.2409 0.3945-0.52555 0.44696-1.2718 0.41169-1.928-0.0306-0.57028-0.1626-1.1948-0.53528-1.6276-0.51994-0.60377-0.93661-1.0754-2.1348-1.0754z"/></g><path id="path2105" style="color-rendering:auto;text-decoration-color:#000000;color:#000000;font-variant-numeric:normal;text-orientation:mixed;shape-padding:0;shape-rendering:auto;font-variant-ligatures:normal;text-decoration-line:none;font-variant-position:normal;mix-blend-mode:normal;font-feature-settings:normal;font-variant-alternates:normal;text-indent:0;dominant-baseline:auto;font-variant-caps:normal;image-rendering:auto;white-space:normal;text-decoration-style:solid;solid-color:#000000;isolation:auto;text-transform:none" d="m461.88-119.59c-2.448 4.8328-4.3957 10.025-5.7842 15.415-1.1478 4.4556-1.4105 7.4331-1.4746 12.083-0.0781 5.6812 1.3422 12.873 3.0979 17.404 2.552 5.1503 3.6326 6.4073 6.8074 10.077 4.9582 4.5454 10.413 6.3493 18.553 8.4649l0.20572-0.17149c0.90491 2.2282 1.9125 4.6229 3.0122 7.0989-0.51204-0.53615-1.0333-1.0935-1.4975-1.5432-4.4483-2.6188-8.9664-2.8349-14.072-2.0748-3.7397 0.55678-5.7922 1.8086-10.282 4.0638-2.8833 1.9774-6.011 3.6829-8.705 6.6873-2.7646 3.1953-4.5836 5.5635-6.2986 8.6192-2.0748 3.6967-2.9785 7.5428-4.0981 11.631 6.0121 3.7984 10.499 5.6068 16.873 6.2701 5.1749 0.53843 9.412 0.18788 14.403-1.2803 3.8175-1.5577 7.9057-3.4333 10.814-6.3558 3.2568-3.2726 6.4132-7.8098 6.7502-12.414 0.27186-2.073-0.0146-4.4096-0.55441-6.5787l3.698-1.709c0.47505 0.37095 0.93953 0.75306 1.4175 1.1203 2.4616 1.8912 5.0212 3.7679 7.9791 4.7097 4.3994 1.4008 10.074 0.26748 14.323-1.5375 3.7949-1.6119 7.0559-4.7068 9.9224-7.6704 3.2201-4.0866 5.1241-7.8852 6.5502-12.889 1.7564-6.1631 1.8998-11.937 0.6116-18.93-4.2116-0.4823-8.4798-0.44719-12.683 0.10272-3.4745 0.45471-6.9015 1.2624-10.231 2.3549-3.9811 1.3062-7.8295 3.0238-11.46 5.1155-3.2882 1.8662-6.0706 4.6123-7.9791 7.8762-1.8872 3.3337-2.6522 7.1794-2.6349 12.106-1.2505-2.4219-2.378-4.7602-3.2808-6.8931l1.0688-0.88021c3.4743-4.5554 6.4003-11.754 6.5273-17.89 0.11326-5.4792 0.0512-10.261-2.372-16.227-2.6838-6.1433-6.2685-10.391-10.723-14.866-7.6564-5.8019-10.591-7.8474-18.484-11.288z"/><path id="path2117" d="m499.61 40.223a13.169 6.1455 33.169 0 1 -14.385 -2.0607 13.169 6.1455 33.169 0 1 -7.6609 -12.349 13.169 6.1455 33.169 0 1 14.385 2.0607 13.169 6.1455 33.169 0 1 7.661 12.349z" fill-rule="evenodd" stroke-width="3.3698"/><path id="path2080" fill-rule="evenodd" style="color-rendering:auto;text-decoration-color:#000000;color:#000000;font-variant-numeric:normal;text-orientation:mixed;shape-padding:0;shape-rendering:auto;font-variant-ligatures:normal;text-decoration-line:none;font-variant-position:normal;mix-blend-mode:normal;font-feature-settings:normal;font-variant-alternates:normal;text-indent:0;dominant-baseline:auto;font-variant-caps:normal;image-rendering:auto;white-space:normal;text-decoration-style:solid;solid-color:#000000;isolation:auto;text-transform:none" d="m344.87 82.213-3.2614 0.86986c1.1897 4.4756 2.965 8.728 5.1855 12.887 3.7765 8.2657 9.3776 16.23 14.798 23.067 6.0584 7.6411 11.922 13.912 14.587 17.328 8.4281 10.804 12.603 20.472 14.712 27.883 2.1096 7.4112 2.1438 12.444 2.2406 14.436v0.006c0.6245 10.525-3.7214 24.18-13.328 35.018-8.4962 9.5852-24.677 18.64-44.078 18.6-28.921-0.0614-49.979-27.83-48.169-52.347 1.6601-22.486 18.64-38.298 44.941-36.441 4.9142 0.34665 10.487 2.905 15.655 6.7599-5.6375-2.9338-8.6037-3.6885-16.037-4.1447h-0.0525l-0.0525-0.002c-18.464-0.88169-30.946 12.213-31.79 23.185-1.1835 15.382 8.3387 28.667 21.887 35.217 7.7004 3.7224 18.919 4.8699 29.055 2.2793s19.297-9.2064 21.723-20.945c2.4311-11.766-3.0296-23.824-11.319-33.089-8.2893-9.2632-19.443-15.91-29.392-16.622-29.602-2.1191-50.752 17.162-52.004 43.228-1.4852 31.022 22.241 60.528 55.199 60.599 21.557 0.0459 38.018-7.1119 48.881-18.339 10.855-11.22 16.049-26.692 15.437-43.557-0.003-13.813-6.4569-33.324-22.724-50.08-16.394-16.886-27.929-30.138-32.093-45.803zm-10.713 70.004c5.6335 0.39564 9.3908 0.47041 16.28 5.0732 10.589 7.435 17.278 15.72 15.213 27.712-2.6822 9.0787-9.4387 13.945-17.341 15.925-8.9032 1.8598-15.345 1.2442-23.284-2.1807-11.773-5.6119-18.838-15.168-17.835-28.015 3.1551-13.907 14.718-18.821 26.967-18.514z" transform="translate(141.19 -141.56)"/></g></svg>
