<?xml version="1.0" encoding="UTF-8"?>
<svg id="Layer_2" data-name="Layer 2" xmlns="http://www.w3.org/2000/svg" viewBox="0 0 96 96">
  <defs>
    <style>
      .cls-1 {
        fill: #003b7e;
      }

      .cls-2 {
        fill: #ffe500;
      }
    </style>
  </defs>
  <g id="Layer_1-2" data-name="Layer 1">
    <g>
      <circle class="cls-2" cx="48" cy="48" r="48"/>
      <g>
        <path class="cls-1" d="M61.03,78c4.92,0,8.91-4,8.91-8.91V26.91c0-4.92-4-8.91-8.91-8.91h-26.07c-4.92,0-8.91,4-8.91,8.91v42.17c0,4.92,4,8.91,8.91,8.91h26.07Zm-10.8-13.5c0,.21,.11,.4,.26,.54,.15,.14,.37,.21,.58,.2,.07,0,.14-.01,.2,0,1.83,0,3.33,1.5,3.33,3.33,0,.88-.34,1.71-.96,2.33-.62,.62-1.42,.94-2.33,.96-1.06,0-2.06-.52-2.69-1.39-.14-.19-.37-.31-.61-.31h0c-.24,0-.47,.12-.61,.31-.62,.85-1.61,1.36-2.66,1.36h-.01c-1.83,0-3.33-1.5-3.33-3.33,0-.88,.34-1.71,.96-2.33,.62-.62,1.44-.96,2.32-.96,.07,0,.14,0,.25,.01,.21,.01,.41-.06,.57-.2s.24-.34,.24-.55l-.02-5.44h4.5l.02,5.47Zm.72-6.97H27.55v-19.06h40.9v19.06h-17.49Zm-14.54-21.35s.02-3.1,1.49-6.11c1.92-3.93,5.31-5.93,10.1-5.93,11.43,0,11.59,11.55,11.59,12.04,0,.26-.02,.52-.04,.79h-23.1c-.02-.26-.04-.53-.04-.79h0Zm-1.45-16.68h26.07c4.09,0,7.41,3.33,7.41,7.41v10.06h-7.4c.01-.26,.04-.53,.04-.79,0-.14-.02-3.41-1.62-6.72-1.5-3.11-4.71-6.82-11.47-6.82s-9.97,3.71-11.47,6.82c-1.6,3.31-1.62,6.58-1.62,6.72,0,.26,.02,.53,.04,.79h-7.4v-10.06c0-4.09,3.33-7.41,7.41-7.41h0Zm-7.41,49.59v-10.06h16.66l.02,4.69c-1.11,.1-2.14,.58-2.93,1.38-.91,.91-1.4,2.11-1.4,3.4,.01,2.65,2.18,4.82,4.83,4.83,1.2,.02,2.4-.47,3.28-1.29,.89,.83,2.07,1.31,3.29,1.32h.02c1.28,0,2.48-.5,3.38-1.4,.91-.91,1.4-2.11,1.4-3.4-.01-2.5-1.93-4.56-4.37-4.8l-.02-4.72h16.74v10.06c0,4.09-3.33,7.41-7.41,7.41h-26.07c-4.09,0-7.41-3.33-7.41-7.41h0Z"/>
        <path class="cls-1" d="M49.23,42.98h-16.17c-.41,0-.75,.34-.75,.75v8.55c0,.41,.34,.75,.75,.75h16.17c.41,0,.75-.34,.75-.75v-8.55c0-.41-.34-.75-.75-.75h0Zm-.75,8.55h-14.67v-7.05h14.67v7.05Z"/>
        <path class="cls-1" d="M54.8,44.48h8.14c.41,0,.75-.34,.75-.75s-.34-.75-.75-.75h-8.14c-.41,0-.75,.34-.75,.75s.34,.75,.75,.75Z"/>
        <path class="cls-1" d="M62.94,47.25h-8.14c-.41,0-.75,.34-.75,.75s.34,.75,.75,.75h8.14c.41,0,.75-.34,.75-.75,0-.41-.34-.75-.75-.75Z"/>
        <path class="cls-1" d="M62.94,51.52h-8.14c-.41,0-.75,.34-.75,.75s.34,.75,.75,.75h8.14c.41,0,.75-.34,.75-.75,0-.41-.34-.75-.75-.75Z"/>
      </g>
    </g>
  </g>
</svg>