<?xml version="1.0" encoding="UTF-8"?>
<svg id="Layer_2" data-name="Layer 2" xmlns="http://www.w3.org/2000/svg" viewBox="0 0 96 96">
  <defs>
    <style>
      .cls-1 {
        fill: #003b7e;
      }

      .cls-2 {
        fill: #ffe500;
      }
    </style>
  </defs>
  <g id="Layer_1-2" data-name="Layer 1">
    <g>
      <circle class="cls-2" cx="48" cy="48" r="48"/>
      <g>
        <path class="cls-1" d="M30.47,73.71c.28,0,.51-.23,.51-.51V24.44c0-.28-.23-.51-.51-.51s-.51,.23-.51,.51v48.76c0,.28,.23,.51,.51,.51Z"/>
        <path class="cls-1" d="M65.53,72.69h-31.77c-.28,0-.51,.23-.51,.51s.23,.51,.51,.51h31.77c.28,0,.51-.23,.51-.51s-.23-.51-.51-.51Z"/>
        <path class="cls-1" d="M65.53,70.42c.28,0,.51-.23,.51-.51V26.09c0-.28-.23-.51-.51-.51s-.51,.23-.51,.51v43.82c0,.28,.23,.51,.51,.51Z"/>
        <path class="cls-1" d="M30.47,21.12H62.79c.28,0,.51-.23,.51-.51s-.23-.51-.51-.51H30.47c-.28,0-.51,.23-.51,.51s.23,.51,.51,.51Z"/>
        <path class="cls-1" d="M71.56,15.71H24.44c-.28,0-.51,.23-.51,.51v4.52c0,.18,.09,.34,.24,.43l2.59,1.62-2.59,1.62c-.15,.09-.24,.26-.24,.43v54.92c0,.28,.23,.51,.51,.51h47.11c.28,0,.51-.23,.51-.51V24.85c0-.18-.09-.34-.24-.43l-2.59-1.62,2.59-1.62c.15-.09,.24-.26,.24-.43v-4.52c0-.28-.23-.51-.51-.51h0Zm-.51,4.75l-3.05,1.9c-.15,.09-.24,.26-.24,.43s.09,.34,.24,.43l3.05,1.9v54.12H24.96V25.14l3.05-1.9c.15-.09,.24-.26,.24-.43s-.09-.34-.24-.43l-3.05-1.9v-3.72h46.09v3.72Z"/>
      </g>
    </g>
  </g>
</svg>