<?xml version="1.0" encoding="UTF-8"?>
<svg id="Layer_2" data-name="Layer 2" xmlns="http://www.w3.org/2000/svg" viewBox="0 0 96 96">
  <defs>
    <style>
      .cls-1 {
        fill: #003b7e;
      }

      .cls-2 {
        fill: #ffe500;
      }
    </style>
  </defs>
  <g id="Layer_1-2" data-name="Layer 1">
    <g>
      <circle class="cls-2" cx="48" cy="48" r="48"/>
      <g>
        <path class="cls-1" d="M39.22,78h17.56c2.02,0,3.66-1.64,3.66-3.66V30.44s0-.02,0-.04c0-.05-.02-.1-.03-.15-.01-.04-.02-.09-.04-.13-.02-.04-.05-.07-.07-.11-.03-.04-.06-.08-.1-.12-.01,0-.01-.02-.03-.03l-6.35-5.08c.47-.4,.78-.99,.78-1.66v-2.93c0-1.21-.98-2.2-2.2-2.2h-8.78c-1.21,0-2.2,.98-2.2,2.2v2.93c0,.67,.31,1.26,.78,1.66l-6.36,5.08s-.02,.02-.03,.03c-.04,.03-.07,.07-.1,.12-.03,.04-.05,.07-.07,.11-.02,.04-.03,.08-.04,.13-.01,.05-.03,.1-.03,.15,0,.01,0,.02,0,.04v43.9c0,2.02,1.64,3.66,3.66,3.66h0Zm3.66-57.81c0-.4,.33-.73,.73-.73h8.78c.4,0,.73,.33,.73,.73v2.93c0,.4-.33,.73-.73,.73h-8.78c-.4,0-.73-.33-.73-.73v-2.93Zm.99,5.12h8.27l5.49,4.39h-19.24l5.49-4.39Zm-6.84,5.85h21.95v10.24h-21.95v-10.24Zm0,11.71h21.95v21.95h-21.95v-21.95Zm0,23.41h21.95v8.05c0,1.21-.98,2.2-2.2,2.2h-17.56c-1.21,0-2.2-.98-2.2-2.2v-8.05Z"/>
        <path class="cls-1" d="M47.43,46.08c-.19,.23-4.55,5.79-4.55,9.23,0,3.25,1.87,5.12,5.12,5.12s5.12-1.87,5.12-5.12c0-3.45-4.36-9-4.55-9.23-.28-.35-.87-.35-1.15,0h0Zm.57,12.89c-2.43,0-3.66-1.23-3.66-3.66,0-2.11,2.28-5.67,3.66-7.57,1.38,1.89,3.66,5.46,3.66,7.57,0,2.43-1.23,3.66-3.66,3.66Z"/>
      </g>
    </g>
  </g>
</svg>