<?xml version="1.0" encoding="UTF-8"?>
<svg id="Layer_2" data-name="Layer 2" xmlns="http://www.w3.org/2000/svg" viewBox="0 0 96 96">
  <defs>
    <style>
      .cls-1 {
        fill: #003b7e;
      }

      .cls-2 {
        fill: #ffe500;
      }
    </style>
  </defs>
  <g id="Layer_1-2" data-name="Layer 1">
    <g>
      <circle class="cls-2" cx="48" cy="48" r="48"/>
      <g>
        <path class="cls-1" d="M71.62,45.35v-10.55h1.62c.32,0,.59-.26,.59-.59v-3.31c0-.32-.26-.59-.59-.59h-11.43v-6.59c0-2.05-.82-4.02-2.27-5.47-1.45-1.45-3.42-2.27-5.47-2.27h-12.16c-2.05,0-4.02,.82-5.47,2.27-1.45,1.45-2.27,3.42-2.27,5.47v6.59h-11.43c-.32,0-.59,.26-.59,.59v3.31c0,.32,.26,.59,.59,.59h1.62v10.55c0,1.9,.53,3.77,1.52,5.4,.99,1.63,2.41,2.95,4.1,3.83h-7.23c-.32,0-.59,.26-.59,.59v3.31c0,.32,.26,.59,.59,.59h1.62v10.55c0,2.76,1.1,5.4,3.05,7.35,1.95,1.95,4.59,3.05,7.35,3.05h26.45c2.76,0,5.4-1.1,7.35-3.05,1.95-1.95,3.05-4.59,3.05-7.35v-10.55h1.62c.32,0,.59-.26,.59-.59v-3.31c0-.32-.26-.59-.59-.59h-7.23c1.69-.88,3.11-2.2,4.1-3.83,.99-1.63,1.51-3.49,1.52-5.4h0Zm1.03-11.72h-10.84v-2.14h10.84v2.14Zm-37.3-2.14h25.28v47.33h-25.28V31.5Zm0-7.77c0-1.74,.69-3.41,1.92-4.64,1.23-1.23,2.9-1.92,4.64-1.92h12.16c1.74,0,3.41,.69,4.64,1.92,1.23,1.23,1.92,2.9,1.92,4.64v6.59h-25.28v-6.59Zm-12.02,7.77h10.84v2.14h-10.84v-2.14Zm2.2,13.85v-10.55h8.64v19.75c-2.34-.15-4.53-1.19-6.14-2.9-1.6-1.71-2.5-3.97-2.5-6.31h0Zm-2.2,10.4h10.84v2.14h-10.84v-2.14Zm2.2,13.85v-10.55h8.64v19.75c-2.34-.15-4.53-1.19-6.14-2.9-1.6-1.71-2.5-3.97-2.5-6.31h0Zm44.91,0c0,2.34-.9,4.6-2.5,6.31-1.6,1.71-3.8,2.74-6.14,2.9v-19.75h8.64v10.55Zm2.2-11.72h-10.84v-2.14h10.84v2.14Zm-10.84-3.33v-19.75h8.64v10.55c0,2.34-.9,4.6-2.5,6.31-1.6,1.71-3.8,2.74-6.14,2.9h0Z"/>
        <path class="cls-1" d="M57.4,50.2c0-1.33-.68-2.56-1.79-3.28-1.12-.72-2.52-.81-3.73-.26-.08-1.33-.84-2.53-2.01-3.18s-2.59-.65-3.76,0c-1.17,.65-1.93,1.84-2.01,3.18-1.02-.47-2.2-.48-3.23-.01-1.03,.46-1.8,1.35-2.13,2.43-.32,1.08-.16,2.25,.44,3.2,.6,.95,1.59,1.6,2.7,1.77v11.58c0,.32,.26,.59,.59,.59h11.02c.32,0,.59-.26,.59-.59v-11.58c.92-.14,1.76-.61,2.36-1.31,.61-.71,.94-1.61,.94-2.54h0Zm-14.33,14.85v-2.14h9.85v2.14h-9.85Zm10.44-12.12c-.32,0-.59,.26-.59,.59v8.23h-2.14v-7.13c0-.32-.26-.59-.59-.59s-.59,.26-.59,.59v7.13h-1.03v-7.13c0-.32-.26-.59-.59-.59s-.59,.26-.59,.59v7.13h-1.03v-7.13c0-.32-.26-.59-.59-.59s-.59,.26-.59,.59v7.13h-2.14v-8.23c0-.32-.26-.59-.59-.59-.91,0-1.76-.46-2.27-1.21-.5-.76-.6-1.72-.25-2.56,.35-.84,1.1-1.45,1.99-1.62,.89-.17,1.82,.11,2.45,.76,.19,.19,.49,.23,.72,.09,.23-.14,.34-.42,.25-.68h0c-.08-.26-.12-.54-.12-.81,0-.97,.52-1.87,1.36-2.36,.84-.49,1.88-.49,2.72,0s1.36,1.38,1.36,2.36c0,.27-.04,.55-.12,.81h0c-.08,.26,.02,.54,.25,.68,.23,.14,.53,.1,.72-.09,.64-.65,1.56-.93,2.45-.76,.89,.17,1.64,.78,1.99,1.62,.35,.84,.26,1.8-.24,2.56-.5,.76-1.35,1.21-2.26,1.21h0Z"/>
        <path class="cls-1" d="M54.06,19.31h-12.12c-1.59,0-3.05,.85-3.85,2.22-.79,1.37-.79,3.07,0,4.44,.79,1.37,2.26,2.22,3.85,2.22h12.12c1.59,0,3.05-.85,3.85-2.22,.79-1.37,.79-3.07,0-4.44-.79-1.37-2.26-2.22-3.85-2.22Zm0,7.72h-12.12c-1.17,0-2.25-.62-2.83-1.64-.58-1.01-.58-2.26,0-3.27,.58-1.01,1.66-1.64,2.83-1.64h12.12c1.17,0,2.25,.62,2.83,1.64,.58,1.01,.58,2.26,0,3.27-.58,1.01-1.66,1.64-2.83,1.64Z"/>
      </g>
    </g>
  </g>
</svg>