<?xml version="1.0" encoding="UTF-8"?>
<svg xmlns="http://www.w3.org/2000/svg" viewBox="0 0 452.03 156.43">
  <defs>
    <style>
      .cls-1 {
        fill: #2a4e96;
      }

      .cls-2 {
        fill: #f4b59d;
      }

      .cls-3 {
        fill: #405cc6;
      }

      .cls-4 {
        fill: #223466;
      }

      .cls-5, .cls-6 {
        fill: #f99746;
      }

      .cls-7 {
        opacity: .18;
      }

      .cls-7, .cls-8, .cls-9, .cls-10 {
        fill: #fff;
      }

      .cls-11, .cls-6, .cls-10 {
        opacity: .2;
      }

      .cls-11, .cls-10 {
        mix-blend-mode: overlay;
      }

      .cls-12 {
        fill: #db6412;
      }

      .cls-13 {
        isolation: isolate;
      }

      .cls-14 {
        fill: #d36c1e;
      }

      .cls-15 {
        fill: #85c2f9;
      }

      .cls-16 {
        fill: #304298;
      }

      .cls-17 {
        fill: #43bdbc;
      }

      .cls-8 {
        opacity: .8;
      }

      .cls-18 {
        fill: #f9f4d2;
      }

      .cls-19 {
        fill: #aadbfb;
      }

      .cls-20 {
        fill: #ffebe4;
      }

      .cls-21 {
        fill: #9ac8e2;
      }

      .cls-22 {
        fill: #ede7ca;
      }

      .cls-23 {
        fill: #50c43b;
      }

      .cls-24 {
        fill: #ccc6b0;
      }

      .cls-9 {
        opacity: .58;
      }

      .cls-25 {
        fill: #ffdfc4;
      }

      .cls-26 {
        fill: #359696;
      }

      .cls-27 {
        fill: #3b6cbc;
      }

      .cls-28 {
        fill: #49c9c8;
      }
    </style>
  </defs>
  <g class="cls-13">
    <g id="Layer_2" data-name="Layer 2">
      <g id="Layer_1-2" data-name="Layer 1">
        <g>
          <g>
            <path class="cls-19" d="M419.69,124.02c2.45,1.36,4.75,2.27,5.87,4.13,2.32,3.83,4.8,15.58,4.8,15.58l12.94-2.63s-2.31-11.78-1.67-16.21c.31-2.16,2.07-3.89,3.79-6.1,4-4.22,8.68-10.32,5.64-19.46-3.04-9.14-11.07-25.47-11.26-32.15-.15-5.22,.09-17.42,.09-17.42l-2.23-10.95s-1.54-7.57-7.36-6.17c-5.11,1.23-2.95,6.46-5.73,6.87s-2.31-1.82-4.47-3.24c-2.52-1.66-7.83-.58-9.5,1.93-1.43,2.15-.13,4.02-2.85,4.72-2.71,.7-2.78-4.96-7.96-4.09-5.9,.99-4.36,8.55-4.36,8.55l2.42,10.91c1.43,3.21,4.94,11.14,6.84,16.01,2.43,6.22,1.42,24.39,2.19,33.99,.77,9.61,7.46,13.39,12.8,15.71Z"/>
            <path class="cls-15" d="M419.68,123.99c2.45,1.36,4.75,2.27,5.87,4.13,2.32,3.83,4.8,15.58,4.8,15.58l4.36-.89s-2.47-11.74-4.8-15.58c-1.13-1.86-3.43-2.77-5.87-4.13-5.33-2.32-12.03-6.11-12.8-15.71-.77-9.61,.24-27.77-2.19-33.99-1.91-4.87-5.41-12.8-6.84-16.01l-2.42-10.91s-1.09-5.36,2.08-7.65c-.59-.13-1.27-.16-2.08-.02-5.9,.99-4.36,8.55-4.36,8.55l2.42,10.91c1.43,3.21,4.94,11.14,6.84,16.01,2.43,6.22,1.42,24.39,2.19,33.99,.77,9.61,7.46,13.39,12.8,15.71Z"/>
            <path class="cls-15" d="M400.52,42.36c5.18-.87,5.24,4.79,7.96,4.09,2.71-.7,1.42-2.58,2.85-4.72,1.68-2.51,6.98-3.59,9.5-1.93,2.16,1.42,1.7,3.65,4.47,3.24,2.77-.42,.62-5.65,5.73-6.87,5.82-1.4,7.36,6.17,7.36,6.17l-.71-3.51s-1.54-7.57-7.36-6.17c-5.11,1.23-2.95,6.46-5.73,6.87-2.77,.42-2.31-1.82-4.47-3.24-2.52-1.66-7.83-.58-9.5,1.93-1.43,2.15-.13,4.02-2.85,4.72-2.71,.7-2.78-4.96-7.96-4.09-5.9,.99-4.36,8.55-4.36,8.55l.72,3.51s-1.54-7.57,4.36-8.55Z"/>
            <g>
              <rect class="cls-16" x="427.22" y="133.24" width="17.7" height="10.93" rx="2.07" ry="2.07" transform="translate(891.04 187.7) rotate(168.5)"/>
              <rect class="cls-16" x="426.26" y="130.89" width="16.61" height="1.62" rx=".73" ry=".73" transform="translate(886.66 174.13) rotate(168.5)"/>
              <g>
                <rect class="cls-4" x="441.87" y="131.92" width="1.21" height="9.35" transform="translate(903.3 182.25) rotate(168.5)"/>
                <rect class="cls-4" x="439.31" y="132.44" width="1.21" height="9.35" transform="translate(898.34 183.79) rotate(168.5)"/>
                <rect class="cls-4" x="436.38" y="133.04" width="1.21" height="9.35" transform="translate(892.64 185.56) rotate(168.5)"/>
                <rect class="cls-4" x="433.53" y="133.62" width="1.21" height="9.35" transform="translate(887.13 187.27) rotate(168.5)"/>
                <rect class="cls-4" x="430.93" y="134.15" width="1.21" height="9.35" transform="translate(882.07 188.84) rotate(168.5)"/>
                <rect class="cls-4" x="428.84" y="134.57" width="1.21" height="9.35" transform="translate(878.03 190.09) rotate(168.5)"/>
              </g>
              <path class="cls-3" d="M429.88,144.48l14.24-2.9c.19-.04,.38,.09,.42,.28h0c.04,.19-.09,.38-.28,.42l-14.24,2.9c-.19,.04-.38-.09-.42-.28h0c-.04-.19,.09-.38,.28-.42Z"/>
            </g>
            <path class="cls-9" d="M447.28,109.54c.29-1.16,.35-2.62-.62-3.31-.76-.54-1.81-.34-2.72-.12-2.62,.63-5.23,1.27-7.85,1.9-.77,.19-1.62,.43-2.05,1.1-.26,.41-.32,.91-.34,1.4-.1,1.93,.14,3.88,.72,5.73,.23,.73,.55,1.5,1.22,1.86,.41,.22,.88,.26,1.34,.27,2.21,.07,5.59-.04,6.96-2.01,1.47-2.11,2.71-4.31,3.34-6.82Z"/>
            <path class="cls-9" d="M439.48,125.63c-.06-.52-.05-1.05-.02-1.58,.04-.64,.09-1.33-.28-1.85-.36-.5-1.07-.69-1.66-.5-.59,.19-1.03,.72-1.2,1.32-.1,.36-.11,.73-.11,1.1,0,.77,.07,1.54,.18,2.3,.15,1.07,.81,3.17,2.32,2.79,1.51-.38,.88-2.54,.76-3.58Z"/>
            <path class="cls-9" d="M437.15,48.58c-.43-2.45-.98-4.87-1.66-7.26-.16-.56-.33-1.13-.66-1.61-.33-.48-.84-.87-1.42-.91-.61-.04-1.21,.32-1.57,.82s-.51,1.12-.58,1.73c-.18,1.73,.3,3.45,.91,5.08,.54,1.46,1.34,4.44,2.74,5.3,2.03,1.25,2.46-1.85,2.23-3.14Z"/>
            <polygon class="cls-15" points="420.25 71.75 407.67 74.31 408.44 78.1 420.25 71.75"/>
          </g>
          <g>
            <path class="cls-1" d="M392.97,18.28c.44,.17,.67,.67,.5,1.11l-42.52,111.88-.09,.24-3.45-1.31,42.63-112.13c.17-.44,.65-.65,1.09-.49l.92,.35,.92,.35Z"/>
            <path class="cls-27" d="M393.47,19.38l-42.52,111.88-1.72-.66,42.82-112.68,.93,.35c.44,.17,.66,.66,.49,1.1Z"/>
            <polygon class="cls-6" points="404.21 72.76 383.68 145.88 337.19 135.37 348.79 60.24 404.21 72.76"/>
            <polygon class="cls-6" points="404.21 72.76 383.68 145.88 347.82 137.77 359.43 62.64 404.21 72.76"/>
            <path class="cls-6" d="M404.26,70.88l-54.7-12.36c3.14-13.91,16.12-23.05,29.95-21.74,0,.03,.01,.06,.02,.1,.3,1.47,1.43,2.69,2.98,3.04s3.17-.3,4.06-1.55c13.05,4.77,20.84,18.6,17.69,32.51Z"/>
            <path class="cls-6" d="M404.26,70.88l-44.67-10.09c2.62-11.58,10.47-20.43,19.94-23.91,.3,1.47,1.43,2.69,2.98,3.04s3.17-.3,4.06-1.55c13.05,4.77,20.84,18.6,17.69,32.51Z"/>
            <rect class="cls-5" x="346.91" y="64.67" width="59.45" height="2.5" rx="1" ry="1" transform="translate(23.79 -81.4) rotate(12.73)"/>
            <path class="cls-5" d="M395.08,95.62l-13.45,45.83-40.79-9.22,6.02-42.15s.02,0,.07,.03c1.07,.49,14.78,6.53,24.05,2.69,11.36-4.71,22.7,1.97,23.98,2.75t.02,.02c.06,.04,.1,.06,.1,.06Z"/>
            <g>
              <path class="cls-12" d="M343.47,127.08c.3-1.31,1.59-2.13,2.9-1.83s2.13,1.59,1.83,2.9-1.59,2.13-2.9,1.83-2.13-1.59-1.83-2.9Z"/>
              <circle class="cls-12" cx="352.97" cy="121.83" r="2.84" transform="translate(168.67 446.57) rotate(-79.47)"/>
              <circle class="cls-12" cx="361.33" cy="117.88" r="1.97"/>
              <path class="cls-12" d="M345.34,114.27c.35-1.53,1.87-2.49,3.4-2.15s2.49,1.87,2.15,3.4-1.87,2.49-3.4,2.15-2.49-1.87-2.15-3.4Z"/>
              <circle class="cls-12" cx="355.61" cy="110.15" r="1.72"/>
              <circle class="cls-12" cx="383.73" cy="116.5" r="1.72"/>
              <path class="cls-12" d="M365.96,120.53c.35-1.53,1.87-2.49,3.4-2.15s2.49,1.87,2.15,3.4-1.87,2.49-3.4,2.15-2.49-1.87-2.15-3.4Z"/>
              <path class="cls-12" d="M378.94,124.78c.35-1.53,1.87-2.49,3.4-2.15s2.49,1.87,2.15,3.4-1.87,2.49-3.4,2.15-2.49-1.87-2.15-3.4Z"/>
              <circle class="cls-12" cx="354.45" cy="130.48" r="2.84"/>
              <path class="cls-12" d="M359.36,125.44c.35-1.53,1.87-2.49,3.4-2.15s2.49,1.87,2.15,3.4c-.35,1.53-1.87,2.49-3.4,2.15s-2.49-1.87-2.15-3.4Z"/>
              <path class="cls-12" d="M363.58,132.54c.35-1.53,1.87-2.49,3.4-2.15s2.49,1.87,2.15,3.4-1.87,2.49-3.4,2.15-2.49-1.87-2.15-3.4Z"/>
              <path class="cls-12" d="M370.98,127.5c.35-1.53,1.87-2.49,3.4-2.15s2.49,1.87,2.15,3.4-1.87,2.49-3.4,2.15-2.49-1.87-2.15-3.4Z"/>
              <circle class="cls-12" cx="376.17" cy="117.46" r="2.01"/>
              <path class="cls-12" d="M374.84,135.08c.35-1.53,1.87-2.49,3.4-2.15s2.49,1.87,2.15,3.4c-.35,1.53-1.87,2.49-3.4,2.15s-2.49-1.87-2.15-3.4Z"/>
            </g>
            <path class="cls-14" d="M394.96,95.54c-1.31-.47-12.79-2.83-17.31-1.58-4.29,1.19-17.86,7.57-30.73-3.86,1.07,.49,14.78,6.53,24.05,2.69,11.36-4.71,22.7,1.97,23.98,2.75Z"/>
          </g>
          <g>
            <path class="cls-21" d="M57.08,8.73c-4.23,5.72-7.28,12.3-10.29,18.8-1.29,2.78-2.57,5.57-3.86,8.35-1.82,3.94-3.65,7.9-5.06,11.98,9-8.84,18-17.68,27.01-26.52,2.96-2.91,6.08-6.05,7.51-10.06,1.44-4.03,.95-11.59-3.42-11.27-4.45,.33-8.88,4.65-11.88,8.72Z"/>
            <path class="cls-21" d="M113.6,32.45c-4.66,3.34-8.56,8.08-12.32,12.79s-7.52,9.55-12.03,13.22c2.32,3.38,5.09,6.3,8.23,8.67,2.22-3.37,4.47-6.7,6.77-10,3.41-4.89,6.96-9.78,11.25-13.61,4.3-3.84,9.48-6.57,14.32-6.36,1.38,.06,2.76,.34,4.16-.18,.26-.1,.54-.24,.68-.52,.24-.45-.02-.91-.28-1.23-2.25-2.79-5.26-6.5-8.96-6.81-3.89-.32-8.16,1.4-11.83,4.03Z"/>
            <path class="cls-19" d="M49.22,26.55c-8.94,10.79-15.72,23.5-22.39,36.05C17.07,80.93,7.23,99.48,1.09,119.12c-.23,.75-.47,1.57-.27,2.23,.26,.88,1.15,1.16,1.95,1.37,25.45,6.66,44.88,27.17,70.38,33.71,15.72-15.66,28.59-35.36,36.96-56.55,3.68-9.33,6.53-18.99,11.2-27.91,6.43-12.28,16.4-23.55,18.33-36.83-3.55-2.83-7.58-4.95-11.91-6.26-4.37,14.51-12.63,28.27-23.22,38.67-12.24-14.54-32.22-17.35-48.08-26.81,5.2-5.57,10.43-11.18,14.81-17.59,4.38-6.41,7.89-13.74,9-21.2-.27,1.81-9.71-1.86-10.09-1.89,0,0-1.94,4.37-3.01,5.89-5.31,7.52-12.1,13.58-17.91,20.58Z"/>
            <path class="cls-21" d="M73.14,156.43c15.72-15.66,28.59-35.36,36.96-56.55,3.68-9.33,6.53-18.99,11.2-27.91,.93-1.78,1.94-3.54,2.98-5.29-4.07,3.71-7.55,8.39-10.01,13.55-1.38,2.9-2.45,5.93-3.81,8.84-1.76,3.76-3.99,7.27-6,10.9-4.32,7.79-7.68,16.16-12.62,23.53-3.59,5.36-7.92,10.04-12.23,14.69-1.89,2.05-3.9,4.17-6.24,5.09-4.18,1.64-7.89-.99-10.97-3.53,.96,2.77,2.69,5.04,4.93,6.45-1.19,1.22-2.79,.53-3.92-.24-16.87-11.4-33.35-24.18-53.26-29.15-2.64-.66-5.55-1.14-8.32,.36-.05,.03-.09,.06-.14,.09-.2,.62-.4,1.24-.59,1.86-.23,.75-.47,1.57-.27,2.23,.26,.88,1.15,1.16,1.95,1.37,25.45,6.66,44.88,27.17,70.38,33.71Z"/>
            <path class="cls-7" d="M47.43,47.04c-1.76,.02-3.75,.31-5.17,1.87-1.78,1.96-1.83,4.9-2.16,7.48-.69,5.51-3.27,10.89-6.12,15.89-2.85,5-6.05,9.83-8.29,15.12-.19,.46-.38,.94-.4,1.41-.04,1.26,1.21,1.83,2.32,1.59,2.32-.51,4.1-3.16,5.49-5.59,3.05-5.33,5.79-10.84,8.2-16.47,.89-2.08,1.8-4.28,3.35-5.85,2.28-2.31,5.4-2.68,7.99-2.15,2.59,.53,4.92,1.81,7.53,2.25,4.23,.72,8.92-.76,13.21-.27,2.61,.3,5,1.32,7.33,2.38,2.53,1.15,5.03,2.35,7.51,3.6-1.37-3.85-4.77-5.86-8-7.65-10.01-5.58-20.49-13.77-32.81-13.62Z"/>
          </g>
          <g>
            <g>
              <polygon class="cls-22" points="256.76 108.2 244.87 101.28 297.56 15.6 303.98 19.34 256.76 108.2"/>
              <polygon class="cls-18" points="254.83 106.81 242.93 99.89 295.63 14.21 302.05 17.95 254.83 106.81"/>
              <path class="cls-18" d="M235.14,89.78c-6.4,2.26-11.42,7.56-14.44,13.64-3.02,6.08-4.23,12.9-4.74,19.67-.67,8.78,.5,19.04,7.86,23.87,4.78,3.14,11.16,3.04,16.48,.94,5.32-2.1,9.74-5.96,13.73-10.07,4-4.12,7.68-8.56,10.98-13.26,2.68-3.82,5.2-8.09,5.18-12.75-.03-4.39-2.37-8.51-5.49-11.6-7.08-7.03-19.46-14-29.55-10.43Z"/>
              <path class="cls-22" d="M221.47,135.23c.52-6.77,1.72-13.59,4.75-19.67,3.02-6.08,8.04-11.38,14.44-13.64,10.07-3.56,22.42,3.38,29.51,10.4,0-.16,.01-.33,.01-.5-.03-4.39-2.37-8.51-5.49-11.6-7.08-7.03-19.46-14-29.55-10.43-6.4,2.26-11.42,7.56-14.44,13.64-3.02,6.08-4.23,12.9-4.74,19.67-.6,7.86,.28,16.9,5.75,22.18-.48-3.32-.49-6.78-.24-10.04Z"/>
              <path class="cls-8" d="M231.88,144.13c.39,1.27,1.75,2.05,3.07,2.15,1.32,.1,2.62-.36,3.84-.88,9.98-4.28,17.2-13.31,22.23-22.94-4.35,6.23-9.08,12.76-16.11,15.65-3.1,1.27-5.89,1.05-9.08,1.42-2.01,.24-4.71,2.15-3.95,4.6Z"/>
            </g>
            <g>
              <path class="cls-18" d="M287.03,59.68c.29,5.38,13.56,20.52,16.46,25.06,1.12,1.75,2.3,3.97,1.27,5.78-1.96-2.68-3.92-5.36-5.88-8.04-1.19-1.62-2.74-3.42-4.74-3.24-2.16,.19-3.43,2.78-3.03,4.92,.39,2.13,1.92,3.86,3.37,5.46-2.03,.16-4.07,.32-6.1,.48,1.69,2.68,.5,6.3-1.48,8.77s-4.66,4.35-6.46,6.96c-3.21,4.66-3.04,11.02-.87,16.24,2.18,5.22,6.1,9.49,10.15,13.44,3.66,3.57,7.54,7,12.05,9.42,2.78,1.5,6.15,2.59,9.06,1.35,2.32-.99,3.8-3.23,5.35-5.22,9.96-12.81,27.08-18.88,35.91-32.49,8.53-13.14,7.36-30.05,10.43-45.41-.37,1.86-36.67-10.47-39.92-11.4-3.28-.94-6.61-1.76-9.98-2.32-1.41-.23-3.87-1.03-5.26-.67-2.15,.56-1.17,.43-2.56,1.96-4.24,4.69-18.11,2.62-17.78,8.94Z"/>
              <path class="cls-22" d="M352.02,108.46c8.53-13.14,7.36-30.05,10.43-45.41-.32,1.61-27.52-7.4-36.96-10.46,7.43,7.96,14.52,16.84,16.93,27.46,.59,2.59,.58,5.91-1.74,7.21-1.86,1.05-4.17,.18-6.11-.7-7.17-3.23-14.34-6.46-21.51-9.7,5.35,4.6,10.69,9.21,16.04,13.81-3.3-1.96-7.49-2.34-11.09-1.03,2.68,2.71,5.35,5.42,8.03,8.14,1.08,1.09,2.18,2.23,2.69,3.68,1.03,2.94-.74,6.1-2.68,8.53-1.95,2.44-4.26,4.9-4.54,8.01-.18,2.02,.54,4.1-.03,6.05-.41,1.4-1.43,2.52-2.47,3.54-3.08,3.04-6.59,5.65-10.38,7.74-1.42,.78-2.92,1.5-4.54,1.62-2,.14-3.95-.66-5.69-1.65-6.09-3.49-10.44-9.47-13.23-15.9-1.99-4.58-3.26-9.43-4.32-14.32-.17,.21-.33,.43-.49,.65-3.21,4.66-3.04,11.02-.87,16.24,2.18,5.22,6.1,9.49,10.15,13.44,3.66,3.57,7.54,7,12.05,9.42,2.78,1.5,6.15,2.59,9.06,1.35,2.32-.99,3.8-3.23,5.35-5.22,9.96-12.81,27.08-18.88,35.91-32.49Z"/>
              <path class="cls-24" d="M344.64,52.24c-9.04-3.06-18.41-5.5-27.95-5.64-9.54-.14-19.35,2.2-26.97,7.94-1.07,.81-2.14,1.74-2.56,3.02-.36,1.09-.19,2.29,.18,3.37,1.48,4.37,5.84,7.17,10.27,8.45,7.96,2.3,16.45,.78,24.73,.56,6.22-.16,12.45,.43,18.6,1.42,3.81,.61,7.7,1.37,11.49,.69,3.69-.66,8.61-3.98,9.94-7.73,1.52-4.3-6.19-7.38-9.08-8.72-2.81-1.3-5.72-2.36-8.65-3.35Z"/>
            </g>
          </g>
          <g>
            <g>
              <path class="cls-28" d="M163.51,62.61l-5.6,22.26c-.9,3.6-2.29,7.07-4.1,10.31l-10.77,19.24-11.84,39.04-.03,.09-32.08-21.14,11.75-24.49-.04-.14-2.26-7.29-6-19.35-.04-.31-12.97-33.91c-.97-2.37,.08-5.08,2.37-6.2,.02-.02,.05-.03,.07-.04,2.37-1.1,5.16-.13,6.35,2.13,.07,.13,.13,.27,.19,.41l9.2,22.06c.16,.37,.72,.18,.61-.21l-10.32-36.75c-.58-2.05,.3-4.17,2.02-5.25,.34-.21,.71-.38,1.1-.51,2.2-.69,4.53,.32,5.57,2.29,.14,.27,.26,.56,.35,.87l9.93,31.84c.13,.43,.68,.4,.83,.07,.04-.07,.05-.17,.03-.27l-7.06-38.32c-.41-2.38,1.01-4.63,3.22-5.37h0c.25-.08,.52-.15,.79-.19,2.06-.31,4.02,.75,4.95,2.5,.22,.41,.38,.85,.47,1.33l7.81,34.84s0,.03,0,.04l.87,3.87s0,0,0,0l.08,.37c.1,.54,.88,.45,.89-.07h0v-.04l-2.87-32.12c-.15-2.79,2.12-5.1,4.91-5h0c1.74,.06,3.26,1.06,4.04,2.53,.26,.48,.43,1.02,.51,1.6l7.73,40.76,1.3,7.67c.25,1.45,2.24,1.69,2.82,.34l5.47-12.57c1.04-2.7,4.11-3.98,6.77-2.85,.07,.03,.14,.06,.2,.09,1.01,.49,1.8,1.27,2.3,2.21,.57,1.08,.76,2.37,.44,3.63Z"/>
              <path class="cls-17" d="M127.12,109.53s-7.61-.09-16.32-1.75l-8.26-26.64c2.55,6.33,7.41,17.26,24.58,28.39Z"/>
              <path class="cls-17" d="M113.85,98.93l-5.31,1.57-6-19.35-.04-.31-12.97-33.91c-.97-2.37,.08-5.08,2.37-6.2-.1,1.5,.14,3.88,1.35,7.6,2.64,8.08,20.6,50.6,20.6,50.6Z"/>
              <path class="cls-17" d="M163.51,62.61l-5.6,22.26c-.9,3.6-2.29,7.07-4.1,10.31l-10.77,19.24-11.84,39.04-5.14-5.14,8.33-37.47c3.95-.54,9.81-9.19,12.73-13.72,1.79-2.77,4.71-9.67,9.87-24.74,3.03-8.85,3.73-13.39,3.79-15.63,1.01,.49,1.8,1.27,2.3,2.21,.57,1.08,.76,2.37,.44,3.63Z"/>
              <path class="cls-26" d="M118.25,138.31c8.82,5.87,13.76,13.71,12.92,15.22-.78,1.4-10.5,.27-19.32-5.6-8.82-5.87-13.64-14.21-12.77-15.44,1.01-1.43,10.35-.05,19.17,5.81Z"/>
              <path class="cls-17" d="M108.32,65.07l-10.32-36.75c-.58-2.05,.3-4.17,2.02-5.25-.09,1.61,.24,4.35,1.68,8.99,3.31,10.67,8.58,33.58,6.62,33.02Z"/>
              <path class="cls-17" d="M118.23,58.14c-.11-.04-.25-.22-.41-.52,.04-.07,.05-.17,.03-.27l-7.06-38.32c-.41-2.38,1.01-4.63,3.22-5.37-.61,.66-1.55,2.98,.25,11.03,2.44,10.9,5.87,34.16,3.96,33.44Z"/>
              <path class="cls-17" d="M128.04,52.18l.87,3.87c-.28-.76-.58-2.12-.87-3.87Z"/>
              <path class="cls-17" d="M130.33,30.3c.75,9.77,.78,23.5-.44,26.05v-.04l-2.87-32.12c-.15-2.79,2.12-5.1,4.91-5-.56,.23-2.32,1.71-1.6,11.11Z"/>
            </g>
            <g>
              <path class="cls-28" d="M166.89,62.61l5.6,22.26c.9,3.6,2.29,7.07,4.1,10.31l10.77,19.24,11.84,39.04,.03,.09,32.08-21.14-11.75-24.49,.04-.14,2.26-7.29,6-19.35,.04-.31,12.97-33.91c.97-2.37-.08-5.08-2.37-6.2-.02-.02-.05-.03-.07-.04-2.37-1.1-5.16-.13-6.35,2.13-.07,.13-.13,.27-.19,.41l-9.2,22.06c-.16,.37-.72,.18-.61-.21l10.32-36.75c.58-2.05-.3-4.17-2.02-5.25-.34-.21-.71-.38-1.1-.51-2.2-.69-4.53,.32-5.57,2.29-.14,.27-.26,.56-.35,.87l-9.93,31.84c-.13,.43-.68,.4-.83,.07-.04-.07-.05-.17-.03-.27l7.06-38.32c.41-2.38-1.01-4.63-3.22-5.37h0c-.25-.08-.52-.15-.79-.19-2.06-.31-4.02,.75-4.95,2.5-.22,.41-.38,.85-.47,1.33l-7.81,34.84s0,.03,0,.04l-.87,3.87s0,0,0,0l-.08,.37c-.1,.54-.88,.45-.89-.07h0v-.04l2.87-32.12c.15-2.79-2.12-5.1-4.91-5h0c-1.74,.06-3.26,1.06-4.04,2.53-.26,.48-.43,1.02-.51,1.6l-7.73,40.76-1.3,7.67c-.25,1.45-2.24,1.69-2.82,.34l-5.47-12.57c-1.04-2.7-4.11-3.98-6.77-2.85-.07,.03-.14,.06-.2,.09-1.01,.49-1.8,1.27-2.3,2.21-.57,1.08-.76,2.37-.44,3.63Z"/>
              <path class="cls-17" d="M203.28,109.53s7.61-.09,16.32-1.75l8.26-26.64c-2.55,6.33-7.41,17.26-24.58,28.39Z"/>
              <path class="cls-17" d="M216.55,98.93l5.31,1.57,6-19.35,.04-.31,12.97-33.91c.97-2.37-.08-5.08-2.37-6.2,.1,1.5-.14,3.88-1.35,7.6-2.64,8.08-20.6,50.6-20.6,50.6Z"/>
              <path class="cls-17" d="M166.89,62.61l5.6,22.26c.9,3.6,2.29,7.07,4.1,10.31l10.77,19.24,11.84,39.04,5.14-5.14-8.33-37.47c-3.95-.54-9.81-9.19-12.73-13.72-1.79-2.77-4.71-9.67-9.87-24.74-3.03-8.85-3.73-13.39-3.79-15.63-1.01,.49-1.8,1.27-2.3,2.21-.57,1.08-.76,2.37-.44,3.63Z"/>
              <path class="cls-26" d="M212.15,138.31c-8.82,5.87-13.76,13.71-12.92,15.22,.78,1.4,10.5,.27,19.32-5.6,8.82-5.87,13.64-14.21,12.77-15.44-1.01-1.43-10.35-.05-19.17,5.81Z"/>
              <path class="cls-17" d="M222.08,65.07l10.32-36.75c.58-2.05-.3-4.17-2.02-5.25,.09,1.61-.24,4.35-1.68,8.99-3.31,10.67-8.58,33.58-6.62,33.02Z"/>
              <path class="cls-17" d="M212.18,58.14c.11-.04,.25-.22,.41-.52-.04-.07-.05-.17-.03-.27l7.06-38.32c.41-2.38-1.01-4.63-3.22-5.37,.61,.66,1.55,2.98-.25,11.03-2.44,10.9-5.87,34.16-3.96,33.44Z"/>
              <path class="cls-17" d="M202.36,52.18l-.87,3.87c.28-.76,.58-2.12,.87-3.87Z"/>
              <path class="cls-17" d="M200.07,30.3c-.75,9.77-.78,23.5,.44,26.05v-.04l2.87-32.12c.15-2.79-2.12-5.1-4.91-5,.56,.23,2.32,1.71,1.6,11.11Z"/>
            </g>
          </g>
          <g>
            <path class="cls-23" d="M34.72,81.21s.01,0,.01,0l-8.22-38.85H13.53l-7.68,38.85s.01,0,.01,0c1.03,3.89-5.86,5.74-5.86,10.05v48.7c0,6.39,5.18,11.56,11.56,11.56H29.01c6.39,0,11.57-5.18,11.57-11.56v-48.7c0-4.31-6.89-6.16-5.86-10.05h0Z"/>
            <path class="cls-20" d="M20.29,132.43c11.21,0,20.29-2.15,20.29-4.8v-24.29c0,2.65-9.08,4.81-20.29,4.81S.31,106.06,.03,103.46l-.03,24.17c0,2.66,9.08,4.8,20.29,4.8Z"/>
            <path class="cls-10" d="M9.32,142.61l-.52-46.86c-.07-6.08-4.27-6.38-4.2,0l.52,46.86c.03,2.83,4.23,2.7,4.2,0Z"/>
            <path class="cls-11" d="M29.01,151.52c6.39,0,11.57-5.18,11.57-11.56v-48.7c0-4.31-6.89-6.16-5.86-10.05,0,0,.01,0,.01,0l-8.22-38.85h-6.1c1.38,9.72,6.21,42.73,8.89,46.14,3.15,4.01,7.73,18.6,0,24.04-7.73,5.44-9.59,17.71-2.08,19.59,6.81,1.7,4.16,17.23-17.48,19.23,.6,.09,1.2,.16,1.82,.16H29.01Z"/>
            <path class="cls-2" d="M27.23,42.45c0,.62-3.22,1.13-7.19,1.13s-7.19-.51-7.19-1.13,3.22-1.13,7.19-1.13,7.19,.5,7.19,1.13h0Z"/>
            <rect class="cls-2" x="12.85" y="36.9" width="14.38" height="5.55"/>
            <path class="cls-25" d="M27.23,36.9c0,.62-3.22,1.13-7.19,1.13s-7.19-.51-7.19-1.13,3.22-1.13,7.19-1.13,7.19,.51,7.19,1.13h0Z"/>
          </g>
        </g>
      </g>
    </g>
  </g>
</svg>