<svg id="Layer_1" data-name="Layer 1" xmlns="http://www.w3.org/2000/svg" viewBox="0 0 373.78 387"><defs><style>.cls-1{fill:#d1d3d1;}.cls-2{fill:#d8d8d8;}.cls-3{fill:#375a64;}.cls-4{fill:#74966c;}.cls-5{fill:#7ead73;}.cls-6{fill:#a8d29f;}.cls-7{fill:#4e6349;}.cls-8{fill:#ffc19d;}.cls-9{fill:#ff735d;}.cls-10{fill:#1a2e35;}.cls-11{fill:#ff9843;}.cls-12{fill:#ed7d2b;}.cls-13{fill:#a8561e;}.cls-14{fill:#86d1cd;}.cls-15{fill:#fff;}.cls-16{opacity:0.3;}.cls-17{fill:#95c38b;}.cls-18{fill:#986a50;}.cls-19{fill:#79a86d;}.cls-20{fill:#5b3724;}</style></defs><ellipse class="cls-1" cx="178.48" cy="378.77" rx="110.94" ry="8.23"/><path class="cls-2" d="M27.28,249.14c2.71-4.53,5.89-9.17,10-12.32L5.39,218.44a12.87,12.87,0,0,1-4.48-3.57c-1.09-1.59-1.33-3.94,0-5.35s3.31-1.38,5.12-1.26a65.85,65.85,0,0,1,18.24,3.93l-7.65-11.94c-1.07-1.66-2.14-3.81-1.07-5.47s3.56-1.55,5.47-1a25,25,0,0,1,16.92,17.36,93.35,93.35,0,0,1,2.76-26.32c.62-2.43,1.57-5.12,3.85-6.15s5.13.16,6.7,2.13,2.17,4.53,2.61,7a87.27,87.27,0,0,1-4,45.11c6.39.45,12.68,3.93,18.15,7.62a180.3,180.3,0,0,1,50.74,52s26.49,44.69-6.86,69.82c-10.66,8-22.24,7-35.58,7.07s-27.48,3-40.35-.49c-10.29-2.81-21.2-6.1-28-14.28C-1,344-.31,328.5,2.28,314.89A201.83,201.83,0,0,1,27.28,249.14Z"/><path class="cls-2" d="M330.75,185.17c-4.28-7.15-9.3-14.46-15.78-19.45l50.31-29c2.63-1.52,5.36-3.12,7.07-5.63s2.09-6.22,0-8.45-5.22-2.18-8.09-2a103.54,103.54,0,0,0-28.77,6.2L347.59,108c1.68-2.61,3.37-6,1.69-8.63s-5.62-2.44-8.65-1.57A39.53,39.53,0,0,0,314,125.24a147,147,0,0,0-4.36-41.52c-1-3.83-2.47-8.08-6.08-9.7s-8.08.24-10.56,3.35-3.42,7.16-4.12,11.07a137.65,137.65,0,0,0,6.38,71.17c-10.07.7-20,6.19-28.63,12a284.48,284.48,0,0,0-80,82s-41.78,70.5,10.82,110.14c16.81,12.67,35.09,11,56.14,11.14s43.34,4.78,63.65-.77c16.22-4.43,33.44-9.62,44.22-22.52,14-16.77,12.91-41.29,8.83-62.76A318.45,318.45,0,0,0,330.75,185.17Z"/><path class="cls-3" d="M158.7,15.81A44,44,0,0,1,157.18,36c-5.8,19.06-15.35,27-18.28,35-.5,1.37-.15,2.11-1.31,2-.84-.11-.66-1.64-.65-2.5.06-5.19-6.95-23.39-6.87-36.56.05-7.44,1.08-14.87,4.75-21.42,2.79-5,9.42-13.2,15.24-12.41C156.2.9,158.3,13.48,158.7,15.81Z"/><path class="cls-4" d="M158.7,15.81A44,44,0,0,1,157.18,36c-5.8,19.06-15.35,27-18.28,35-.5,1.37-.15,2.11-1.31,2-.84-.11-.66-1.64-.65-2.5.06-5.19-6.95-23.39-6.87-36.56.05-7.44,1.08-14.87,4.75-21.42,2.79-5,9.42-13.2,15.24-12.41C156.2.9,158.3,13.48,158.7,15.81Z"/><path class="cls-3" d="M186.68,66.8a49.52,49.52,0,0,1-12.52,8.38c-3,1.44-14.67,7.4-20.29,12-1.46,1.19,4.73-22.06,9.53-33.08,3.3-7.58,11-18.74,21.95-21.1,5.08-1.1,9.62-1.33,12.64.89C201.7,36.61,201.94,52.43,186.68,66.8Z"/><path class="cls-4" d="M186.68,66.8a49.52,49.52,0,0,1-12.52,8.38c-3,1.44-14.67,7.4-20.29,12-1.46,1.19,4.73-22.06,9.53-33.08,3.3-7.58,11-18.74,21.95-21.1,5.08-1.1,9.62-1.33,12.64.89C201.7,36.61,201.94,52.43,186.68,66.8Z"/><path class="cls-5" d="M195.41,87.54c-4.69,4.77-13.68,8.9-21.29,9.81-13.1,1.58-17.78,6-17.78,6-.72-.68-.32-3.24-.93-2.5a54.12,54.12,0,0,0,7.37-13c2.69-7.3,5.34-17,21.05-25.32,2.57-1.36,17.16-6.08,21,.66C208.79,70.22,201.19,81.68,195.41,87.54Z"/><path class="cls-6" d="M109.43,27.44a49.29,49.29,0,0,0,6.15,30.86c3.82,6.66,13.21,17.54,13.21,17.54.59,1.7,6.23-12.09,8-31.92.72-8-.29-15.9-4.6-23.57-1.55-2.76-7.38-11.78-13.7-10.22C112,11.74,109.82,24.71,109.43,27.44Z"/><path class="cls-5" d="M92.64,73.47c3,8.23,8.79,13.47,12.82,16.53a103.05,103.05,0,0,0,14.71,9c.94-.25,2.09.51,1.85-.34s2.36-7.75-.83-21.54c-1.82-7.87-6.45-16.44-8.61-19.18-7.27-9.22-15.69-11-19.21-8.23C88.3,53.72,89.72,65.49,92.64,73.47Z"/><path class="cls-6" d="M162.29,21.22c-5,4.59-9.54,10.62-11.84,17-6.82,19-2.66,31.34-4.6,39.85-.45,2,.66,6.9,1.78,3.54,3.09-9.24,11.69-13.85,15.9-16.66a39.2,39.2,0,0,0,15.85-20.5c5.79-16.83,1.73-26.61-1.61-28.4C173.45,13.76,165.4,18.36,162.29,21.22Z"/><path class="cls-7" d="M159.62,97.08a81.3,81.3,0,0,0-16.68,18.8c1.91-7.39,6.74-22,18.66-38.27,12.44-17,28-34,28-34a232.57,232.57,0,0,0-31,34.32A224.47,224.47,0,0,0,144,100.16c.27-1.79.58-3.74.94-5.88,5.44-32.64,25.68-67.82,25.68-67.82s-22,35.58-27.23,61.18c-1.06,5.22-2.62,13.85-4.38,22.58-.94-3.22-3.47-14.28-1-32.48C140.63,57.7,148,9.3,148,8.91c0,0-9.29,46.38-12.64,70.81-1,7.19-2.12,16-2.87,23.86C132,95.94,131.09,85.7,130,72.27c-1.92-23.53-10.69-51.49-10.69-51.49s6.33,28.53,8.23,49.6a290.62,290.62,0,0,1,.82,40.17c-1.76-4.11-4.33-9.31-7.59-15.89A229.05,229.05,0,0,0,97.3,57.91s12.29,18,20.54,35.82c9.27,20.08,10,24,9.82,32.07-.26,11.57,13.09,12.48,15.59,1.66,1.81-7.86,5.19-17.87,19.42-29.95,16-13.57,35-26.36,35-26.36A242.3,242.3,0,0,0,159.62,97.08Z"/><path class="cls-7" d="M242.15,66.19a40.2,40.2,0,0,0-1.24-27.37,32.39,32.39,0,0,0,.78,27.67"/><path class="cls-7" d="M261.08,52.79c.09.44-5.43,1.15-10.76,5s-7.83,8.81-8.22,8.58c-.16-.07.22-1.42,1.38-3.35a22.67,22.67,0,0,1,14-10C259.66,52.54,261.06,52.61,261.08,52.79Z"/><path class="cls-8" d="M212.46,73.14s13.24,10.5,3.45,26.37-20.1,14.57-20.1,14.57l17.51,17.09L236,135.5l11.44-4.09s-9.61-12.39-4.32-26.71S255,91.56,258.5,90.29s-12-11.71-12-11.71L232.37,71Z"/><path class="cls-9" d="M209.81,73.06c7.65-9.83,22.48-11,33.21-6.78s20.42,15.24,18.84,26.14c-4.82-4.5-13.39-4-17.65,1a8.74,8.74,0,0,0-13.33-7.78,23.06,23.06,0,0,0-21.07-12.6"/><path class="cls-10" d="M221.43,106.73c-.28-.11.36-2.34,1.43-5s2.17-4.68,2.45-4.57-.37,2.34-1.44,5S221.7,106.84,221.43,106.73Z"/><path class="cls-10" d="M231.07,109.62c-.27-.12.29-2.14,1.26-4.53s2-4.24,2.26-4.12-.28,2.14-1.25,4.53S231.35,109.73,231.07,109.62Z"/><path class="cls-9" d="M195.6,111.2s-3.79,20.25,19.67,28.9,33.63-8.71,33.63-8.71-4.84,4.26-11.19-4.55c0,0-13.5,7.42-18.64-8.47C219.07,118.37,204.86,123.41,195.6,111.2Z"/><path class="cls-11" d="M103.72,77.12c-1.84-3.52-4.6-6.55-8.6-7.66s-9.52,2.19-9.52,2.19a21.25,21.25,0,0,0-5-2.11c-5.24-1.13-13.48,3-14.62,8-4.43-2.65-13.1.47-15.89,5a21.27,21.27,0,0,0-2,5.1S42,89.34,40,93.07s-1.67,7.75-.4,11.52c.54,1.58,1.15,3.17,1.83,4.75a90.4,90.4,0,0,0,19.84,28.38c.38.35.75.66,1.11.94,5,3.74,9.58.88,11.94-1.54,1.88,2,4.38,3.72,7.08,3.36,4.67-.61,7.34-3.28,9.74-4.16l0,0,0,0c2.3-1.12,6.07-1.21,9.73-4.16,2.13-1.71,2.6-4.72,2.46-7.45,3.38,0,8.62-1.38,9.35-7.57a11.18,11.18,0,0,0,.09-1.45,90.32,90.32,0,0,0-6.83-33.95Q104.9,79.36,103.72,77.12Z"/><path class="cls-12" d="M95.14,69.53c-4.07-1.12-9.51,2.18-9.51,2.18a21.41,21.41,0,0,0-5-2.1c-5.23-1.13-13.48,3-14.62,8-4.43-2.64-13.1.48-15.89,5a21.43,21.43,0,0,0-2,5.1S42,89.41,40,93.13c-.13.23-.21.46-.32.69,2.88-1.78,8.16-2.34,15.1,0,0,0,1.25-6.36,10.79-7.2a14.32,14.32,0,0,0,7.26-2.68c6.34-4.72,11.06-3.53,15-.24,3.4,2.83,12.28,23.76,15.46,41,3.63,0,9.41-1.58,9.44-9,.06-11.37-2.79-26.71-9-38.51C101.9,73.66,99.14,70.62,95.14,69.53Z"/><path class="cls-7" d="M62.43,76.89c1.7,5,1,8.45.44,10.14a18.2,18.2,0,0,1,2.69-.44,14.32,14.32,0,0,0,7.26-2.68,21.26,21.26,0,0,1,2.27-1.48,54.16,54.16,0,0,1-5.46-5.93,22.87,22.87,0,0,1-1.48-2.15,12.37,12.37,0,0,1-.6-12.22C61.72,55.93,57,61.58,57,61.58s.08,4,4.15,12.22A28.09,28.09,0,0,1,62.43,76.89Z"/><path class="cls-13" d="M54.77,93.79c.19,0,0,2.75.9,7s3.06,9.92,6.2,15.84a160.67,160.67,0,0,0,8.77,14.72c2.43,3.66,4,5.89,3.87,6a7,7,0,0,1-1.3-1.42c-.78-.95-1.87-2.37-3.17-4.15A119.93,119.93,0,0,1,61,117.12c-3.15-5.94-5.36-11.75-6-16.17a28.46,28.46,0,0,1-.39-5.24A6.1,6.1,0,0,1,54.77,93.79Z"/><path class="cls-13" d="M90.23,135.12c-.26.11-4.84-10-10.24-22.62s-9.56-22.92-9.3-23,4.84,10,10.24,22.63S90.49,135,90.23,135.12Z"/><path class="cls-13" d="M80.23,80.79a4.22,4.22,0,0,1,2.14-.2,9.08,9.08,0,0,1,5.24,2.61,22.27,22.27,0,0,1,4.93,7.14c1.45,2.89,2.93,6.14,4.31,9.62a119.11,119.11,0,0,1,5.62,18.3c.53,2.39.87,4.34,1.07,5.7a8.4,8.4,0,0,1,.19,2.12c-.16,0-.74-2.94-2-7.66a151.36,151.36,0,0,0-5.87-18.08c-1.37-3.45-2.81-6.69-4.2-9.59a22.83,22.83,0,0,0-4.59-7A9,9,0,0,0,82.31,81C81,80.76,80.23,80.89,80.23,80.79Z"/><path class="cls-13" d="M79.17,81.09a13.23,13.23,0,0,0-3.41,1.42c-1,.59-2.09,1.42-3.4,2.29a13.89,13.89,0,0,1-4.81,1.94c-1.77.41-3.53.54-5,.85A14.24,14.24,0,0,0,58.84,89,11.72,11.72,0,0,0,56,91.27c-.13,0,.38-1.62,2.49-2.94a13.36,13.36,0,0,1,3.89-1.66c1.58-.39,3.24-.52,5-.93A14.11,14.11,0,0,0,71.86,84c1.29-.8,2.47-1.6,3.55-2.13C77.57,80.72,79.22,80.94,79.17,81.09Z"/><path class="cls-13" d="M85,73.31c.09.29-2,1-3.81,2.89s-2.4,4-2.69,4-.1-2.52,2-4.66S85,73,85,73.31Z"/><path class="cls-13" d="M49.83,86.76c-.13-.22,2.4-1.67,5.92-1.9s6.22.83,6.12,1.07-2.75-.3-6-.06S50,87,49.83,86.76Z"/><path class="cls-9" d="M206.15,78.69,162.73,99.82a2.82,2.82,0,0,0-1.38,3.6,33.33,33.33,0,0,0,9,12.06c23.11,20.71,46-2.92,46-19.76,0-5.4-2.48-11.49-6.9-16.39A2.83,2.83,0,0,0,206.15,78.69Z"/><path class="cls-12" d="M206.15,78.69,162.73,99.82a2.82,2.82,0,0,0-1.38,3.6,33.33,33.33,0,0,0,9,12.06c23.11,20.71,46-2.92,46-19.76,0-5.4-2.48-11.49-6.9-16.39A2.83,2.83,0,0,0,206.15,78.69Z"/><path class="cls-11" d="M204.61,76.47,161.2,97.6a2.82,2.82,0,0,0-1.39,3.6,33.45,33.45,0,0,0,9,12.06c23.11,20.71,46-2.92,46-19.76,0-5.4-2.47-11.48-6.9-16.39A2.82,2.82,0,0,0,204.61,76.47Z"/><path class="cls-12" d="M200.72,79.29c1.26-1.15,12.22,5.88,9.89,15.83s-6.85,16.74-11.32,16-8.13-10.16-6.65-17.66A27.82,27.82,0,0,1,200.72,79.29Z"/><path class="cls-12" d="M165.13,98c.51-1.92,11.83-5.1,18.23-2.34S195,111.22,194,114.09s-13.81,1.73-19.55-1.8S164.37,100.8,165.13,98Z"/><path class="cls-11" d="M178,97.73c-.61-1-9.46,2.3-8.14,4.44S179.32,100,178,97.73Z"/><path class="cls-11" d="M187,104.11c1.15-.06,3.05,9,.21,8.51S185.89,104.17,187,104.11Z"/><path class="cls-11" d="M183,100.74c1.28.57-2.41,11.05-5.94,9.85S181.76,100.17,183,100.74Z"/><path class="cls-11" d="M197.54,91.07c-.18-2.19,10.26-2.36,10.06-.15S197.78,94,197.54,91.07Z"/><path class="cls-11" d="M198.37,87.09c.9,1.17,6.9-1.76,5.74-3.37S197.48,85.93,198.37,87.09Z"/><path class="cls-11" d="M196,95.1c-.28.8,8.13,4.88,8.25,3.07S196.7,93.11,196,95.1Z"/><path class="cls-11" d="M194.06,98.21c-1.34,1.33,2.65,8.51,4.31,7.56S196,96.31,194.06,98.21Z"/><path class="cls-10" d="M248.59,105.25c-3.65.66-7.11,2.66-12,7.08a3.11,3.11,0,0,0-1.2,2.29,3.42,3.42,0,0,0,1.64,2.3c1.52,1.18,3.08,2.29,4.68,3.35Z"/><path class="cls-10" d="M277.87,136.72a2.39,2.39,0,0,0,1.73.32c.72-.25,1-1.07,1.24-1.8,2.61-9.11,4.28-21.28,2.46-30.82l-13,28.85Z"/><path class="cls-10" d="M228,205.22c3.3-4.74,5.66-12,7.05-16.12,1.22-3.68,1.23-7.74,1.35-11.67.12-4.08-3.42-4.46-6.3-2.64a27.7,27.7,0,0,0-8.29,8.62c-1.45,2.33-3,4.17-4.19,7.44-.68,1.82-2.27,4.61-2.55,6.48,1.35-1.33,2.11-3.75,3.53-5-.4,1.31-2,3.86-1.51,5.08,1.13-1.94,2.09-4,3.26-5.91-.1,1.5-1.29,3.61-.82,5.11,1.1-1.86,2-3.89,3-5.82-.36,1.26-1.24,3.33-.69,4.57,1.1-1.83,2-3.78,3.11-5.6-.11,1.34-1,3.31-.45,4.73.63-1.05,1.16-2.2,1.71-3.31-.46,2.37-1.6,4.65-2.06,7a17.17,17.17,0,0,0,2.64-4.48c-.6,2.13-1.21,4.33-1.75,6.45a16.87,16.87,0,0,0,2.37-3.65,23.5,23.5,0,0,0-1.51,6.26c1.06-1.06,1.45-2.83,2.12-4.18a26.55,26.55,0,0,0-.69,5.12,11.56,11.56,0,0,0,1.89-5.3Z"/><path class="cls-14" d="M236.46,179.11a11.67,11.67,0,0,0,3.19-3.19c4.28-6.16,24.47-29.78,35.91-53C288.69,96.29,292.07,71,288.09,66.82c-1.89-2-28.67,9.88-43.91,47.27s-16.41,57.49-15.64,62C229.19,180,232.22,181.89,236.46,179.11Z"/><path class="cls-15" d="M280.2,85a4.48,4.48,0,1,1,6-2A4.48,4.48,0,0,1,280.2,85Z"/><path class="cls-10" d="M280.86,83.74a3,3,0,1,1,4.06-1.33A3,3,0,0,1,280.86,83.74Z"/><path class="cls-15" d="M282.25,83.38a.69.69,0,1,1,.93-.3A.69.69,0,0,1,282.25,83.38Z"/><path class="cls-10" d="M262.08,86.33c.16-.23,4.36,3.86,11.06,6s12.46,1.32,12.46,1.6a11.07,11.07,0,0,1-3.73.51,27.44,27.44,0,0,1-9-1.32,27.77,27.77,0,0,1-8.07-4.16A11.41,11.41,0,0,1,262.08,86.33Z"/><path class="cls-10" d="M261.1,96.15c.21-.1,3,5.15,6.26,11.73s5.72,12,5.52,12.09-3-5.14-6.27-11.72S260.89,96.26,261.1,96.15Z"/><path class="cls-10" d="M251.8,112.47a19.13,19.13,0,0,1,3.47-1.09c2.16-.6,5.14-1.43,8.39-2.46s6.17-2,8.28-2.8a17.21,17.21,0,0,1,3.47-1.09,14.54,14.54,0,0,1-3.25,1.64c-2.07.9-5,2-8.25,3s-6.29,1.78-8.5,2.24A14,14,0,0,1,251.8,112.47Z"/><path class="cls-10" d="M249.65,118.35c.2-.12,2.78,4.19,6.1,9.4s6.11,9.38,5.91,9.52a12.26,12.26,0,0,1-2.13-2.52c-1.22-1.62-2.82-3.93-4.49-6.55s-3.06-5.06-4-6.85A12.09,12.09,0,0,1,249.65,118.35Z"/><path class="cls-10" d="M243.53,134.23a21.08,21.08,0,0,1,3.67-1.49l8.93-3.28,8.89-3.41a19.48,19.48,0,0,1,3.74-1.29,17.3,17.3,0,0,1-3.51,1.84c-2.22,1-5.33,2.33-8.83,3.64s-6.7,2.37-9,3.06A17.58,17.58,0,0,1,243.53,134.23Z"/><path class="cls-10" d="M242.41,138.12c.2-.1,2.24,3.35,4.55,7.71s4,8,3.82,8.1-2.24-3.34-4.56-7.71S242.21,138.23,242.41,138.12Z"/><path class="cls-10" d="M238.35,150.31c-.06-.24,4.38-1.34,9.64-3.33s9.33-4.06,9.44-3.84-3.81,2.63-9.15,4.62S238.38,150.52,238.35,150.31Z"/><path class="cls-10" d="M235.17,153.92c.21-.1,1.81,2.94,3.57,6.79s3,7,2.8,7.13-1.8-2.94-3.56-6.79S235,154,235.17,153.92Z"/><path class="cls-10" d="M230.06,168.64c-.08-.24,3.74-1.68,8.1-4.12s7.61-4.91,7.77-4.71-2.91,3-7.37,5.44S230.12,168.84,230.06,168.64Z"/><path class="cls-3" d="M128.13,153.3s12.91,2,19.89,10.59,8.74,14.9,8.74,14.9,4.32.32,10.24-3.15a21.1,21.1,0,0,0,8.07-7.92s-3.54-3.32-9.37-13.26-.2-23.09-.2-23.09l-6.53-1.1s-3,10.31-3,17.39l-7.73-13.17-8.75,5.14,8.12,13.84c-6.67-5.15-16.15-6.41-16.15-6.41Z"/><g class="cls-16"><path d="M128.13,153.3s12.91,2,19.89,10.59,8.74,14.9,8.74,14.9,4.32.32,10.24-3.15a21.1,21.1,0,0,0,8.07-7.92s-3.54-3.32-9.37-13.26-.2-23.09-.2-23.09l-6.53-1.1s-3,10.31-3,17.39l-7.73-13.17-8.75,5.14,8.12,13.84c-6.67-5.15-16.15-6.41-16.15-6.41Z"/></g><path class="cls-17" d="M128.34,162.33c-7.82,5.83-16.82,2.69-19.86-4.81-3,1.24-12.84,0-15.65-8.94-2.39-7.61,3.51-14.5,9.66-16.5a15.14,15.14,0,0,1,15.72-23.92A18.6,18.6,0,0,1,151.51,97,11.82,11.82,0,1,1,173,106.73a12.64,12.64,0,0,1,8.15,22.6c-4.17,3.24-9.35,4.11-13.73,1.15-1.18,3.34-5.58,5.18-9.11,5.39a9.32,9.32,0,0,1-8.69-5c.39,4.55-2.53,8.61-6.17,11.37s-6.6,2.34-12.07.83C135.5,151.5,135,157.35,128.34,162.33Z"/><g class="cls-16"><path d="M153.38,112.18c-.08.06-.46-.44-1.29-1.16a10,10,0,0,0-4.13-2,8.72,8.72,0,0,0-11,7.44,8.86,8.86,0,0,0,.52,4.66l.66,1.61-1.4-1a7,7,0,0,0-6.15-.91,6.68,6.68,0,0,0-3.84,3.27,9.47,9.47,0,0,0-.91,4.65,2.71,2.71,0,0,1-.33-1.29,7.28,7.28,0,0,1,.67-3.65,7.15,7.15,0,0,1,4.14-3.8,7.82,7.82,0,0,1,7,.92l-.75.6a9.6,9.6,0,0,1-.62-5.2,10,10,0,0,1,4.95-7.3,9.73,9.73,0,0,1,7.2-.69,9.54,9.54,0,0,1,4.22,2.44A4,4,0,0,1,153.38,112.18Z"/></g><g class="cls-16"><path d="M107.73,153.55c-.1.06-.57-.48-.81-1.6a6.59,6.59,0,0,1,4-7.16c1.07-.38,1.78-.27,1.79-.15s-.62.31-1.48.81a7.31,7.31,0,0,0-3.57,6.42C107.67,152.86,107.88,153.48,107.73,153.55Z"/></g><polygon class="cls-18" points="328.33 117.56 327.74 154.26 21.54 154.26 21.54 117.56 328.33 117.56"/><path class="cls-18" d="M312.74,142l-32.4,226.1c-.82,5.24-7.33,9.21-15.1,9.21H83.89c-7.68,0-14-4.09-14.36-9.3L37.13,142Z"/><path class="cls-19" d="M236.87,267.4s8.18,8.14,4.42,16.86-16.1,25.37-16.1,25.37-1.84-13.35-13.08-28.16l-7.35,4,7.92-31,29.8,8.82Z"/><path class="cls-19" d="M221.54,316.14a17,17,0,0,1-11.78,7.93c-8.35,1.43-26.66.37-26.66.37l.33-27.63,32.08.39S221,304.21,221.54,316.14Z"/><path class="cls-19" d="M145.56,224.72s2.54-11.25,11.93-12.7,30,.14,30,.14-10.33,8.65-16.9,26.05l7.34,4.08-30.47,9.78-8.37-29.93Z"/><path class="cls-19" d="M195,211.79a17,17,0,0,1,13,5.76c5.65,6.31,14.5,22.38,14.5,22.38l-23.58,14.41L182.16,227S185.19,218.61,195,211.79Z"/><path class="cls-19" d="M149.66,324.2s-11.21,2.7-16.67-5.06-13.18-27-13.18-27,12.33,5.44,30.84,3.62l.4-8.39,22.27,23L150.2,331.1Z"/><path class="cls-19" d="M116.18,285.62a17,17,0,0,1-.59-14.19c3.16-7.86,13.65-22.92,13.65-22.92l23.36,14.76-17.13,27.12S126.64,291.38,116.18,285.62Z"/><g class="cls-16"><path d="M43.13,154.27c38,2.52,77.27,8.93,115.3,11.45,49.89,3.31,101.6,6.36,148.31-11.45Z"/></g><path class="cls-20" d="M21.21,154.27c0-.39,68.83-.7,153.72-.7s153.73.31,153.73.7-68.82.69-153.73.69S21.21,154.65,21.21,154.27Z"/><path class="cls-20" d="M327.76,117.13c0,.38-68.35.69-152.65.69s-152.67-.31-152.67-.69,68.34-.7,152.67-.7S327.76,116.74,327.76,117.13Z"/></svg>