<svg id="Layer_1" data-name="Layer 1" xmlns="http://www.w3.org/2000/svg" viewBox="0 0 381.63 241"><defs><style>.cls-1{fill:#cee2da;}.cls-2{fill:#80af53;}.cls-3{fill:#ef7200;}.cls-4{fill:#ce5c00;}.cls-22,.cls-5,.cls-9{fill:#fff;}.cls-5{opacity:0.29;}.cls-6{fill:#ffdb64;}.cls-7{fill:#efb600;}.cls-8{fill:#dba100;}.cls-9{opacity:0.34;}.cls-10{fill:#a58a49;}.cls-11{fill:#edc767;}.cls-12{fill:#8dcc31;}.cls-13{fill:#85b52f;}.cls-14{fill:#e1a12e;}.cls-15{fill:#ce912e;}.cls-16{fill:#f4ce64;}.cls-17{fill:#c25800;}.cls-18{fill:#cc6f00;}.cls-19{fill:#eaba66;}.cls-20{fill:#dd7300;}.cls-21{fill:#c66000;}.cls-22{opacity:0.23;}.cls-23{fill:#d14221;}.cls-24{fill:#509324;}.cls-25{fill:#97cc4a;}.cls-26{fill:#ccf47b;}.cls-27{fill:#f25227;}.cls-28{fill:#913933;}.cls-29{fill:#bae5be;}.cls-30{fill:#a3a3a3;}.cls-31{fill:#c5c5c5;}.cls-32{fill:#969696;}.cls-33{fill:#828282;}.cls-34{fill:#f2b800;}.cls-35{fill:#e5a900;}.cls-36{fill:#ef8800;}.cls-37{fill:#f7d007;}.cls-38{fill:#ffea23;}.cls-39{fill:#7db762;}.cls-40{fill:#99d679;}</style></defs><path class="cls-1" d="M54.72,34.14c-1.49,1.33-2.18,3.77-1,5.35A5.06,5.06,0,0,0,56.17,41c6,2.11,12.85.39,18.66,2.91,1.83.79,3.48,2,5.33,2.72,4.39,1.76,9.32.85,14,.47,10.92-.87,21.81,1.33,32.68,2.73s22.24,1.92,32.44-2.09c1.7-.67,3.66-2,3.38-3.78a3.48,3.48,0,0,0-1.21-2c-1.86-1.73-4.34-2.61-6.74-3.44l18.55-3.65c2.2-.43,4.88-1.37,5.1-3.6a4.16,4.16,0,0,0-.8-2.59c-1.83-2.88-5.06-4.62-8.38-5.43A47.42,47.42,0,0,0,159,22.45c-15.67-.37-31.3-2.87-47-1.89-12.41.78-23.31,4.5-35,7.84C70.58,30.22,59.83,29.57,54.72,34.14Z"/><path class="cls-2" d="M166.91,11.2c8,2.26,15.82,6.12,21.5,12.24a62.53,62.53,0,0,0-39-10.11A66.14,66.14,0,0,1,168.34,17a34.19,34.19,0,0,0-17.76-.39c7,4.38,15.85,4.3,24,2.87s16.06-4,24.29-4.26c-6.73,2.59-13.87,4-21,5.3-5.2,1-10.4,2-15.65,2.58a109.79,109.79,0,0,1-16.71.62,28.74,28.74,0,0,1,10.09,2.21c.68.28,1.48,1,1.06,1.59a28,28,0,0,1-14.46-4c-2.87-1.72-5.44-4-8.51-5.31-1.25-.55-2.67-1-3.35-2.21-1-1.72.18-3.92,1.68-5.24,3.85-3.4,10-3.36,14.82-2.93A109.88,109.88,0,0,1,166.91,11.2Z"/><path class="cls-3" d="M30.15,32c5-4.39,10-8.85,16.12-11.41,4-1.68,8.33-2.47,12.49-3.72,4.53-1.37,8.88-3.27,13.29-5A180.57,180.57,0,0,1,115,.68c5.86-.76,11.93-1.2,17.6.46S143.57,7,145,12.71c1.16,4.57-.2,9.4-2,13.75a10.84,10.84,0,0,1-3.3,4.83c-2.92,2.09-6.91,1.1-10.47.62-6.13-.83-12.34.1-18.52.14-12.21.1-24.18-3.25-36.36-4.16a146.27,146.27,0,0,0-20,.13,43.07,43.07,0,0,0-9.81,1.39C39.63,30.88,35.36,34,31.2,37c-3.44,2.48-6.26,5.62-9.33,8.54-7,6.69-.66,11.49-1.7,12-.69.44-1.76-1.73-2.29-2.82a8.48,8.48,0,0,1-.82-3.57,12.84,12.84,0,0,1,1.82-6.73C21.67,39.51,26,35.67,30.15,32Z"/><path class="cls-4" d="M142.85,8.56c.53,3.38-.53,7.11-3.43,8.83C135,20,128.85,17,124.48,19.62L126,20.7c-3.24,2.47-7.67,2.48-11.74,2.37L95,22.58a28.9,28.9,0,0,0,8.18,2.74c-8.4,2.47-17-3.06-25.77-3.41-6-.24-11.81,2-17.78,2.44-3.07.24-6.18,0-9.22.51A31,31,0,0,0,42,27.74a65.91,65.91,0,0,0-14.1,9.17c-1.62,1.37-6.39,7.87-8.42,7.57a1.45,1.45,0,0,1-.7-.32c0,.09-.11.18-.16.28a13,13,0,0,0-1.83,6.73,8.49,8.49,0,0,0,.83,3.57c.52,1.09,1.6,3.26,2.29,2.82,1-.54-5.35-5.34,1.69-12,3.08-2.92,5.9-6.06,9.33-8.54,4.16-3,8.43-6.09,13.36-7.56A43.63,43.63,0,0,1,54.05,28a146.42,146.42,0,0,1,20-.13c12.17.91,24.14,4.26,36.35,4.17,6.18,0,12.4-1,18.52-.15,3.57.48,7.55,1.47,10.48-.62a10.84,10.84,0,0,0,3.3-4.83c1.83-4.35,3.2-9.18,2-13.75A13.65,13.65,0,0,0,142.85,8.56Z"/><path class="cls-5" d="M76.69,13.6C72.5,14.82,68,15.32,64.2,17.41c10.73.35,20.53-6,31.13-7.68,4.91-.79,9.92-.57,14.87-1,1.08-.09,2.53-.77,2.14-1.78-.25-.65-1.1-.78-1.8-.8-5.41-.15-10.75-.75-16,.71C88.38,8.57,82.81,11.81,76.69,13.6Z"/><path class="cls-6" d="M81.41,68.39c2.29,3.92,6.5,6.3,10.68,8.09a71.84,71.84,0,0,0,38,5.14c4.14-.57,8.29-1.5,12.44-1.08.3,6.49-4.15,12.45-9.69,15.83s-12.07,4.67-18.45,5.9l-32.46,6.28c-.84.16-1.81.42-2.14,1.21a2.16,2.16,0,0,0,.69,2.19c1.75,1.83,4.49,2.23,7,2.4,28.69,2,57.27-12.12,75.83-34.09-3,6.15-.33,14,4.74,18.59s11.94,6.68,18.68,8c13.31,2.61,27.21,2.89,40.37-.39a4.44,4.44,0,0,0,2.05-.91c1.27-1.2.7-3.49-.67-4.58s-3.21-1.33-4.95-1.57a95.71,95.71,0,0,1-32.35-10.66c-5.84-3.18-11.76-7.52-13.48-13.95-.89-3.35-.52-6.91-1.23-10.3s-3.08-6.91-6.54-7.09a10.61,10.61,0,0,0-4.38,1.06C145.3,66.57,123.86,74,102.21,71.6a45.5,45.5,0,0,1-13.48-3.39c-1.75-.77-4.17-3.14-5.93-3.45C80.74,64.39,80.52,66.86,81.41,68.39Z"/><path class="cls-7" d="M228.63,97.61a12.44,12.44,0,0,0-5.49-2c-7.92-1.43-16.16-1.75-23.59-4.82s-14.14-9.94-13.8-18c.18-4.23,2.26-8.22,2.39-12.45a13.36,13.36,0,0,0-3.09-8.7,15.38,15.38,0,0,1,.26-1.91A9,9,0,0,1,189,43.8a5.58,5.58,0,0,1,6.68.37c.67.64,1.13,1.46,1.76,2.13a2.64,2.64,0,0,0,2.46,1c.94-.25,1.63-1.3,2.6-1.23a14.46,14.46,0,0,0-3-8.06,3.31,3.31,0,0,0-.91-.88,3.62,3.62,0,0,0-1.65-.37,24.26,24.26,0,0,0-14.8,4.17c-2.35,1.61-4.58,3.38-6.95,5l-.3.21a10.4,10.4,0,0,0-4.73.14,33.32,33.32,0,0,0-9.12,5c-3.27,2.35-6.34,5-9.65,7.25a55.41,55.41,0,0,1-34.3,9.6c-11.85-.68-23.58-5.19-35.32-3.38.07,2,1.79,3.5,3.43,4.63,8.8,6.1,19.4,9.26,30.06,10.2s16.11-1.17,26.6-3.25c-14.32,9.8-21.92,14.19-39.67,22-7.68,3.4-24.26,6.52-22.48,11.13,1.53,1.79,4.14,2.11,6.5,2.2,12.63.52,25.28-1.7,37.32-5.55,7.69-2.46,15.23-5.62,21.8-10.31,11.12-7.94,18.79-19.74,25.91-31.41-2.81,5-5.09,10.47-5.66,16.21s.72,11.81,4.4,16.25c4.8,5.8,12.7,7.91,20.15,9a122,122,0,0,0,34.4.12c2.31-.32,5-1,5.88-3.16C231.16,101,230.18,98.82,228.63,97.61Z"/><path class="cls-8" d="M230.46,100.22a5.52,5.52,0,0,0-1.83-2.61,12.44,12.44,0,0,0-5.49-2c-7.92-1.43-16.16-1.75-23.59-4.82s-14.14-9.94-13.8-18c.18-4.23,2.26-8.22,2.39-12.45a13.36,13.36,0,0,0-3.09-8.7,15.38,15.38,0,0,1,.26-1.91A9,9,0,0,1,189,43.8a5.58,5.58,0,0,1,6.68.37c.67.64,1.13,1.46,1.76,2.13a2.64,2.64,0,0,0,2.46,1c.94-.25,1.63-1.3,2.6-1.23a.49.49,0,0,0,0-.12c-1.71-.33-3.21-.9-3.71-2.44a14.85,14.85,0,0,0-.43-1.62c-.53-1.21-2-1.71-3.3-1.84a10.81,10.81,0,0,0-7.91,2.45c-1.55,1.3-2.71,3-4.22,4.36s-3.6,2.34-5.53,1.73A10.51,10.51,0,0,1,182,54.83c1.22,4.93-1.25,9.91-2.59,14.81a33.79,33.79,0,0,0-1.13,10.87,13.06,13.06,0,0,0,2.09,7.09c2.06,2.81,5.64,4,9,4.77,11.77,2.76,24,3,35.91,5a7.52,7.52,0,0,1,3.19,1.08,2.71,2.71,0,0,1,1.15,2.94C229.93,101,230.21,100.63,230.46,100.22Z"/><path class="cls-8" d="M164.67,57.48c-15.36,14.83-37.53,21.2-58.87,20.59,10.72,1.39,21.8,2.22,32.17-.79S157,64.86,164.67,57.48Z"/><path class="cls-8" d="M172.09,56.85a41.57,41.57,0,0,1-7.23,10.6,134.6,134.6,0,0,1-60.33,39.47c5.51-1.92,11.31-3.7,16.33-6.7,4.73-2.83,9.4-5.73,14-8.79a163,163,0,0,0,25.68-20.72c2.15-2.19,4.23-4.46,6.2-6.82C168.44,61.83,171,59.33,172.09,56.85Z"/><path class="cls-9" d="M166.87,48.79c-3.36,1.75-5.75,4.88-8.81,7.1-1.13.82-2.34,1.51-3.53,2.23-.2.12-.41.26-.43.48s.37.56.72.59a4.53,4.53,0,0,0,2.6-.73,46.12,46.12,0,0,0,5-3.62,11.84,11.84,0,0,1,5.54-2.53,16.41,16.41,0,0,0,2.72-.3,2.18,2.18,0,0,0,1.69-1.92C172.29,47.15,168.47,48,166.87,48.79Z"/><path class="cls-10" d="M317.87,21.08a4.37,4.37,0,0,1,2.88.59A2.39,2.39,0,0,1,321,25.1a.79.79,0,0,1-.6.28c-.27,0-.44-.29-.6-.51a6.4,6.4,0,0,0-4.36-2.39,14.62,14.62,0,0,0-5.05.4A40.35,40.35,0,0,0,294.94,30a22,22,0,0,1-3.17,2.37c-.81.4-.94.61-.84-.34.19-1.86,3.18-3.24,4.52-4.06a46.3,46.3,0,0,1,13.94-5.72A45.75,45.75,0,0,1,317.87,21.08Z"/><path class="cls-6" d="M264.72,39.72a37.87,37.87,0,0,1-9.44,11.65c-7.36,6.49-16.77,11.64-26.54,10.68a51,51,0,0,0,13.58,23.48,71.72,71.72,0,0,0,22.77,15c1.15.49,2.62.91,3.53.06a3.39,3.39,0,0,0,.79-1.75,142.24,142.24,0,0,0,2.63-16c.49-4.67.81-9.56,3.21-13.6a25.55,25.55,0,0,1,6-6.41c3.31-2.71,6.88-5.23,11-6.47s7.29-.06,10.8,2.37a55.43,55.43,0,0,0-18.9-27.65c-3.72-2.86-11.19-8.24-16.32-6.5-2.76.93-1,3-.91,5.52A20.56,20.56,0,0,1,264.72,39.72Z"/><path class="cls-11" d="M269.44,98.85a140.4,140.4,0,0,0,2.64-16c.49-4.68.8-9.56,3.2-13.6a25.42,25.42,0,0,1,6-6.41c3.3-2.71,6.88-5.23,11-6.48s7.28-.06,10.79,2.38c-.41-1.35-.88-2.69-1.39-4l-.39-.53-9.35-12.46c-2.9-3.87-5.85-7.78-9.6-10.82S273.85,25.71,269,26l-.71-.4a34.12,34.12,0,0,1,3.78,15.14,7.19,7.19,0,0,1,7.17,3.7c1,2,1.08,4.38,2.16,6.34a3.16,3.16,0,0,1,.43,1c.16,1.08-1,1.82-2,2.23-3.79,1.56-7.76,2.74-11.32,4.79s-6.75,5.12-7.8,9.09c-.79,3-.26,6.22.48,9.25.44,1.76.92,3.74,0,5.29a17.11,17.11,0,0,1-1.38,1.68c-1.7,2.16-1.48,5.21-1.18,7.94a11.72,11.72,0,0,0,1.08,4.39A9.49,9.49,0,0,0,263,99.6c.7.32,1.41.64,2.12.94,1.15.49,2.61.91,3.53.06A3.34,3.34,0,0,0,269.44,98.85Z"/><path class="cls-12" d="M279.51,20.61a16.84,16.84,0,0,1,11.93,7.89A12.16,12.16,0,0,0,293.09,31c1.05,1.06,2.53,1.52,3.82,2.25a13.64,13.64,0,0,1,6,8.12,40.9,40.9,0,0,1,1.31,10.24c.1,2.46.15,5.11-1.19,7.17a8.1,8.1,0,0,0-7.31-5,17.67,17.67,0,0,1-4.11,0c-2.07-.49-3.44-2.42-4.44-4.3-2.73-5.11-4.44-11.22-9.22-14.49a2.12,2.12,0,0,0-1.44-.51c-.7.1-1.22.8-1.92.84-1.13.07-1.55-1.41-1.8-2.52-.84-3.74-3.68-5.87-7-7.35C266.75,21.2,276.14,20.14,279.51,20.61Z"/><path class="cls-12" d="M235.57,68.41a13.7,13.7,0,0,0,1.86,6.78,22.44,22.44,0,0,0,3.44,5.3c1.72,1.87,3.91,3.25,5.62,5.12,1.42,1.56,2.51,3.45,4.24,4.64a7.07,7.07,0,0,0,8.09-.25c.14,2.39,1.82,4.44,3.72,5.9s4.09,2.52,6,4a.63.63,0,0,1,.25.33c.05.26-.23.46-.47.58L266,102a4.9,4.9,0,0,1-1.72.6,4.66,4.66,0,0,1-1.76-.33A39.07,39.07,0,0,1,245,90.32a4.65,4.65,0,0,0-1.16-1.14,6.36,6.36,0,0,0-1.72-.59,14.85,14.85,0,0,1-6-3.79A41.75,41.75,0,0,1,225.34,68a12.63,12.63,0,0,1-.84-4.15A5.36,5.36,0,0,1,226,60c.86.91,2,1.82,2.78,2.78.61.8.82,1.88,1.44,2.73a7.45,7.45,0,0,0,2.43,2.14C232.87,67.72,235.55,68.69,235.57,68.41Z"/><path class="cls-13" d="M295.71,53.72a8.1,8.1,0,0,1,7.31,5c1.34-2.06,1.29-4.71,1.19-7.17a40.9,40.9,0,0,0-1.31-10.24,13.64,13.64,0,0,0-6-8.12c-1.29-.73-2.77-1.19-3.82-2.25a12.16,12.16,0,0,1-1.65-2.46,16.12,16.12,0,0,0-2.36-3,11.63,11.63,0,0,0-7.72,2.33c-.31.24-.64.57-.58.95s.44.59.78.74c3.55,1.51,7.82,1.26,11,3.46a8.59,8.59,0,0,1,2.59,10.75,4.55,4.55,0,0,1-1.58,1.81,4.13,4.13,0,0,1-3.39.29,9.35,9.35,0,0,1-3-1.78,25.09,25.09,0,0,1-4.85-5.33c-1.19-1.77-2.35-3.85-4.4-4.44a1.49,1.49,0,0,0-1.08,0,1.08,1.08,0,0,0-.24.18,2.21,2.21,0,0,1,1.34.51c4.78,3.27,6.49,9.38,9.22,14.49,1,1.88,2.37,3.81,4.44,4.3A17.67,17.67,0,0,0,295.71,53.72Z"/><path class="cls-10" d="M262.57,54.79a15.67,15.67,0,0,0-2.44,1.42,9.94,9.94,0,0,0-3.67,7c2.34-1.81,5.48-2.67,7.21-5.07.48-.68,1.69-2.62,1.51-3.5C264.94,53.41,263.35,54.39,262.57,54.79Z"/><path class="cls-10" d="M269.75,61.38a15.67,15.67,0,0,0-2.44,1.42,9.94,9.94,0,0,0-3.67,7c2.34-1.81,5.48-2.67,7.21-5.07.48-.68,1.68-2.62,1.51-3.5C272.12,60,270.53,61,269.75,61.38Z"/><path class="cls-14" d="M36.75,125c0,6.17-4.75,11.7-4.3,17.85a28.41,28.41,0,0,0,30.28-3.13c3.56-2.9,6.45-6.85,7.25-11.37s-.81-9.6-4.6-12.2c-1.8-1.24-3.95-1.86-5.88-2.89s-3.77-2.69-4-4.86a13.42,13.42,0,0,1,.08-2.45,14,14,0,0,0-6.62-12.62c-1.13-.68,7.79-7.1,6.9-8.08-2.44-2.68-11.06-1.15-8.82-4-1.23-.86-2.91,0-4.16.79-9.21,6.15-24.22,16.43-28.91,26.82-2.6,5.74,9.88,3.63,13.45,4.57A12.16,12.16,0,0,1,36.75,125Z"/><path class="cls-15" d="M47,81.2c-1.23-.86-2.91,0-4.16.79-6.91,4.61-15.48,11.2-21.31,18.59.32,2.11,1.29,4.26,2.82,5.23s3.54.77,5.12,1.32a16.91,16.91,0,0,1,5.42,3.06,28.24,28.24,0,0,1-.34-7.79A21.75,21.75,0,0,0,38,106.6a2.48,2.48,0,0,0,1.15.71c1.2.24,2-1.17,2.33-2.37s.65-2.65,1.84-3a11.34,11.34,0,0,0,6.52,5.58,38,38,0,0,0-.38-5.54c.7,2.93,1.39,5.86,2.09,8.79A6,6,0,0,1,51.8,113a7.2,7.2,0,0,1-.74,2.13,20.2,20.2,0,0,0-1.58,5.81,2.25,2.25,0,0,0,.21,1.58,2.46,2.46,0,0,0,1,.69l18,9.15a16.25,16.25,0,0,0,1.23-3.68c0-1.51.07-3,.13-4.54a11.56,11.56,0,0,0-4.66-8c-1.8-1.24-3.95-1.86-5.88-2.89s-3.77-2.69-4-4.86a13.42,13.42,0,0,1,.08-2.45,14,14,0,0,0-6.62-12.62c-1.13-.68,7.79-7.1,6.9-8.08C53.38,82.52,44.76,84.05,47,81.2Z"/><path class="cls-6" d="M85,168.93a20.75,20.75,0,0,1,4.36,6.67c.84,2.52.72,5.34,1.94,7.71,2.38,4.6,9.56,5.27,13.29,1.67s3.75-10,.7-14.23c4.36,1.45,9.73-.05,12.16-3.95s1-9.87-3.17-11.74c-4.81-2.14-10.39,1.32-15.58.46-2.8-.46-5.24-2.14-7.46-3.9a71.56,71.56,0,0,1-11-10.83c-1.24-1.52-3.1-3.26-4.84-2.38a4.14,4.14,0,0,0-1.16,1l-8.74,9.73C66.66,147.91,83.44,167.11,85,168.93Z"/><path class="cls-16" d="M98.72,155.52c-2.8-.46-5.24-2.14-7.46-3.9a71.56,71.56,0,0,1-11-10.83c-1.24-1.52-3.1-3.26-4.84-2.38a4.14,4.14,0,0,0-1.16,1l-8.74,9.73c.28-.31,1.58.7,3.38,2.41.76-.3,1.49-.65,2.19-1,2.85-1.48,5.77-3.28,9-3.12,3.9.2,7,3.21,9.78,5.95s6.18,5.55,10.07,5.23c1.94-.17,3.74-1.11,5.68-1.31s4.28.82,4.44,2.76a3.92,3.92,0,0,1-.62,2.19,9.72,9.72,0,0,1-9.3,4.74c2.46,2.22,1.89,6.17,1,9.34-.84,2.86-1.93,5.85-4.33,7.61A6.05,6.05,0,0,1,92.6,185a9.06,9.06,0,0,0,12-.05c3.73-3.6,3.75-10,.7-14.23,4.36,1.45,9.73-.05,12.16-3.95s1-9.87-3.17-11.74C109.49,152.92,103.91,156.38,98.72,155.52Z"/><path class="cls-17" d="M40.06,147a47.58,47.58,0,0,0,13,4,27.75,27.75,0,0,0,17.38-3.55,26,26,0,0,0,11.26-13.65,13.18,13.18,0,0,0,.86-5.37,13.32,13.32,0,0,0-1.23-4.3,14.48,14.48,0,0,0-4.43-6c-3.65-2.66-8.58-2.45-13.08-2.13a25.78,25.78,0,0,1,2.56,6.44,9.65,9.65,0,0,0-4.28-.46c-2.41.48-4,2.66-5.44,4.67a5.88,5.88,0,0,0-1,1.9,6.05,6.05,0,0,0-.07,1.7l.33,6.12a22.54,22.54,0,0,1-9.1-8.75,129.16,129.16,0,0,1-5.25,12.57,12.53,12.53,0,0,0-1.29-6l-3.49,4.11c-.86,1-2.9,2.65-3.12,4C33.19,144.93,38.21,146.17,40.06,147Z"/><path class="cls-17" d="M6.91,101.37C3.66,96.57.46,91.41,0,85.63a20.37,20.37,0,0,1,5.59-15,28.15,28.15,0,0,1,14.14-7.92c6-1.44,12.63-1.17,17.91,2a30.82,30.82,0,0,1,6.5,5.62A109.06,109.06,0,0,1,55.82,85.2a20.59,20.59,0,0,0-14.14-.32,69.57,69.57,0,0,0,.9,15,14.78,14.78,0,0,0-9.22-3.45.64.64,0,0,0-.75.88c.15,1.28.3,2.57.44,3.85a4.18,4.18,0,0,0-3.92-1.51.87.87,0,0,0-.61.31,1,1,0,0,0-.06.63l.63,5a14.76,14.76,0,0,0-8.2,1.83,34.76,34.76,0,0,1,5.05,2.75c-3.3.1-11.11,1.87-11.11,1.87C11.22,109.9,9.2,104.75,6.91,101.37Z"/><path class="cls-18" d="M12.85,104.54c-.47-.9-.94-1.79-1.4-2.69a.36.36,0,0,0-.48-.13.37.37,0,0,0-.13.48l1.4,2.69a.36.36,0,0,0,.48.13.37.37,0,0,0,.13-.48Z"/><path class="cls-18" d="M16.85,103a16.51,16.51,0,0,1-2.55-4,.35.35,0,0,0-.48-.13.37.37,0,0,0-.12.48,17,17,0,0,0,2.65,4.19.35.35,0,0,0,.5-.5Z"/><path class="cls-18" d="M11.66,97.86a41,41,0,0,1-3.14-6.92.37.37,0,0,0-.43-.25.35.35,0,0,0-.25.43,43.6,43.6,0,0,0,3.21,7.1.35.35,0,0,0,.61-.36Z"/><path class="cls-18" d="M5.93,92.52a1.34,1.34,0,0,1-.2-.21l-.11-.12,0,0h0a4.45,4.45,0,0,1-.33-.51c0-.09-.08-.18-.13-.27s0,0,0,0l0-.06s0-.1,0-.15a4.18,4.18,0,0,1-.16-.58.35.35,0,1,0-.67.18A4.29,4.29,0,0,0,5.43,93a.35.35,0,0,0,.5-.5Z"/><path class="cls-18" d="M14.05,92.39a7,7,0,0,0-.79-2,.35.35,0,1,0-.6.35l.24.45a1.47,1.47,0,0,1,.1.22s.06.13,0,.07l.05.11a6.26,6.26,0,0,1,.29,1,.35.35,0,0,0,.43.24.36.36,0,0,0,.25-.43Z"/><path class="cls-18" d="M24.14,98.22l-3.38-5.54a.35.35,0,0,0-.61.36l3.39,5.53c.23.38.84,0,.6-.35Z"/><path class="cls-18" d="M7.15,84.45c0-1-.08-1.93-.13-2.89a.35.35,0,1,0-.7,0c0,1,.09,1.93.13,2.89a.36.36,0,0,0,.35.35.35.35,0,0,0,.35-.35Z"/><path class="cls-18" d="M3.81,81.15a7.75,7.75,0,0,1,1-3.54c.22-.39-.38-.75-.6-.35a8.58,8.58,0,0,0-1.12,3.89c0,.45.68.45.7,0Z"/><path class="cls-18" d="M41.55,142.73a42.76,42.76,0,0,0,6.53,3.17c.64.24,1.29.48,1.94.69.43.14.61-.53.19-.67a41.82,41.82,0,0,1-6.53-2.8c-.6-.32-1.19-.65-1.77-1a.35.35,0,0,0-.36.61Z"/><path class="cls-18" d="M47.35,137.81a8.17,8.17,0,0,0,2.11,1.73.35.35,0,1,0,.35-.6,6.37,6.37,0,0,1-.55-.35,2.48,2.48,0,0,1-.26-.19l0,0,0,0-.14-.11a7.28,7.28,0,0,1-.93-.91.36.36,0,0,0-.5,0,.37.37,0,0,0,0,.49Z"/><path class="cls-18" d="M56.24,145.91q2.41.69,4.89,1.14a.36.36,0,0,0,.43-.25.35.35,0,0,0-.24-.43,46.36,46.36,0,0,1-4.9-1.14.35.35,0,0,0-.18.68Z"/><path class="cls-18" d="M36.15,142.73a2.76,2.76,0,0,0,2.7,1.88.37.37,0,0,0,.35-.35.35.35,0,0,0-.35-.35h-.37c.05,0,0,0,0,0h-.08l-.18,0-.18-.06,0,0-.05,0a2,2,0,0,1-.32-.18l-.07-.05s-.06-.05,0,0l-.14-.12a2,2,0,0,1-.24-.26l0,0L37,143l-.09-.16a1,1,0,0,1-.07-.15c0,.06,0,0,0,0l0-.1a.36.36,0,0,0-.43-.24.36.36,0,0,0-.25.43Z"/><path class="cls-18" d="M46.81,142.25l1.9,1.08a.36.36,0,0,0,.48-.12.35.35,0,0,0-.12-.48l-1.9-1.08a.34.34,0,0,0-.48.12.35.35,0,0,0,.12.48Z"/><path class="cls-18" d="M52.64,147.8l1.47.57a.35.35,0,0,0,.43-.24.36.36,0,0,0-.25-.43l-1.47-.57a.35.35,0,0,0-.43.24.36.36,0,0,0,.25.43Z"/><path class="cls-18" d="M12.72,75.86A56.88,56.88,0,0,1,18,71a.34.34,0,0,0,0-.49.35.35,0,0,0-.49,0,56.77,56.77,0,0,0-5.23,4.82c-.31.33.18.82.49.5Z"/><path class="cls-18" d="M8.11,73.17l2.41-2.84a.35.35,0,0,0-.5-.49L7.61,72.67a.35.35,0,1,0,.5.5Z"/><path class="cls-18" d="M14.19,83.1l-1.94-3.32a.35.35,0,0,0-.61.35l1.95,3.32a.35.35,0,0,0,.6-.35Z"/><path class="cls-18" d="M22.77,85.93A9.34,9.34,0,0,0,20.83,84a.36.36,0,0,0-.48.13.37.37,0,0,0,.13.48l.13.09c.05,0,0,0,0,0l.06,0a2.43,2.43,0,0,1,.25.2,4.47,4.47,0,0,1,.45.42,6.14,6.14,0,0,1,.43.45l.2.24.09.11s0,0,0,0l.06.08a.37.37,0,0,0,.48.12.35.35,0,0,0,.12-.48Z"/><path class="cls-18" d="M36.14,84l-.47-.89a.35.35,0,0,0-.48-.13.37.37,0,0,0-.12.48l.47.9a.34.34,0,0,0,.47.12.35.35,0,0,0,.13-.48Z"/><path class="cls-18" d="M68.54,125.57a22.57,22.57,0,0,1,1.8,2.93.35.35,0,1,0,.6-.35,21.52,21.52,0,0,0-1.8-2.93.37.37,0,0,0-.48-.13.35.35,0,0,0-.12.48Z"/><path class="cls-19" d="M176.15,158.6q0-4.48,0-9l8.16-1.62-.81-12.86a17.47,17.47,0,0,0,11.09,3.74c-.07-2.69-.13-5.38-.2-8.07l4.06-1.29-7.44-7.74a13.94,13.94,0,0,0-2.33-2.09,10.94,10.94,0,0,0-3.39-1.35,35.35,35.35,0,0,0-10-.82c-9.06.38-18.41,3.09-24.79,9.53a15,15,0,0,0-3.59,5.25,13.46,13.46,0,0,0,.29,9.19,27.94,27.94,0,0,0,4.93,7.93,64.37,64.37,0,0,0,11,10.28c1.81,1.35,2.73,2.13,5,1.5C170.87,160.45,173.45,159.34,176.15,158.6Z"/><path class="cls-19" d="M184.3,150.26l4.38,1.72q5-5.35,10.2-10.52a2,2,0,0,1,1.05-.66,2,2,0,0,1,.9.17l11,4a2.91,2.91,0,0,0,1.32.26,3.06,3.06,0,0,0,1.27-.64,77,77,0,0,1,12.51-7.37q1.56,4.53,3.42,8.95a3.73,3.73,0,0,0,2.15-2A43,43,0,0,1,234,158.53c-.45,4.82-2.31,9.64-5.86,12.93-4.74,4.39-11.61,5.43-18,5.91a36.53,36.53,0,0,1-10.34-.31,14.23,14.23,0,0,1-8.68-5.24c-2.31-3.25-3-7.21-5.52-10.33a5.47,5.47,0,0,1-1.46-4C184.09,156.83,184.55,150.36,184.3,150.26Z"/><path class="cls-20" d="M137,139.57c-1.36-4.27-2.29-8.92-1-13.21,2-6.55,8.64-10.59,15.21-12.5a46,46,0,0,1,38.42,6.25l-7.69.59a41.43,41.43,0,0,0,5.38,7.75A281.51,281.51,0,0,0,158.61,136a110.06,110.06,0,0,1,9.57,17.88,49.67,49.67,0,0,0-7.31-.67,55.42,55.42,0,0,0,5,8.93c-.49-.71-3.88-1.2-4.77-1.49-1.71-.58-3.42-1.18-5.1-1.81-3.06-1.15-5.21-3.37-7.93-5.21A27.84,27.84,0,0,1,137,139.57Z"/><path class="cls-21" d="M150.78,142a24.92,24.92,0,0,1-15.39-9.32,33,33,0,0,0,1.52,6.86A27.79,27.79,0,0,0,148,153.66c2.71,1.84,4.86,4.06,7.92,5.21q2.53.94,5.1,1.81c.89.29,4.28.78,4.77,1.49a55.37,55.37,0,0,1-5-8.93,49.79,49.79,0,0,1,7.31.67,109.6,109.6,0,0,0-5.84-11.8A33.47,33.47,0,0,1,150.78,142Z"/><path class="cls-20" d="M193.63,178a29.22,29.22,0,0,0,18.62,7.68,21.81,21.81,0,0,0,7.94-1.09c5.95-2.12,10.35-7.49,12.49-13.43s2.28-12.43,1.76-18.72l-7.22,8.11a91.69,91.69,0,0,0-6.78-11.82,79.24,79.24,0,0,1-7.27,9.54,9.36,9.36,0,0,0-4.2-3.09,11.13,11.13,0,0,0-.48,3.63l-12.81-5.13q-1.53,7.8-3.7,15.46a13.21,13.21,0,0,1,.08-15.53c-.62.81-2.91,1.47-3.84,2-1.18.71-3,1.55-3.86,2.64-1.47,1.83.25,3.6.89,5.55C187,169.25,189.38,174.05,193.63,178Z"/><path class="cls-21" d="M227.22,160.54a91.33,91.33,0,0,0-4.62-8.47,22.33,22.33,0,0,1-.07,8.35,22.9,22.9,0,0,1-5.48,10.19c-3.87,4.35-9.14,7.66-14.93,8.3a17.6,17.6,0,0,1-9-1.36l.46.44a29.22,29.22,0,0,0,18.62,7.68,21.81,21.81,0,0,0,7.94-1.09c5.95-2.12,10.35-7.49,12.49-13.43s2.28-12.43,1.76-18.72Z"/><path class="cls-22" d="M160.66,118.72c1.43,0,3,.22,4.21-.45.59-.31,1.11-1,.88-1.6a1.6,1.6,0,0,0-1-.81c-2.29-.89-4.86-.51-7.26,0-1.77.39-16.16,3.7-12.43,7.54,1.77,1.82,6.24-1.18,7.88-2C155.36,120.14,157.87,118.82,160.66,118.72Z"/><path class="cls-23" d="M335.66,22.67c.1,2.85,1.2,5.55,2.14,8.24a97.84,97.84,0,0,1,4.28,18.43c-.81-1.29-2.88-1.26-4-.24a5.79,5.79,0,0,0-1.58,4.17,34.79,34.79,0,0,1-.14,4.57c-.46,2.67-2.3,4.92-2.93,7.55-1.17,4.89,2,10.15.44,14.93a1.6,1.6,0,0,1-.67,1,2.36,2.36,0,0,1-1.16.09c-3.18-.14-5.07,3.4-6.18,6.39q-2.64,7.17-5.3,14.35c5,1.32,10.43-.65,14.35-4s6.58-8,8.86-12.59a125.14,125.14,0,0,0,10.15-29.3c2.51-11.75,3-25-3.86-34.81C346,15.62,335.27,12.08,335.66,22.67Z"/><path class="cls-24" d="M372.58,29.41c-4.25-11.95-12.9-22.68-24.23-28.11-1.32,1-2.48,2.25-3.73,3.35l-.3.26c17.27,18,23.7,45.88,15.79,69.61a55,55,0,0,1-10.3,18.67c-5.92,6.83-13.72,11.73-21.45,16.42-21.85,13.24-45.22,25.91-70.72,27.47a41.58,41.58,0,0,1-14.94-1.39,15.7,15.7,0,0,1-1.89-.71,33.53,33.53,0,0,0-.9,5.14,12.4,12.4,0,0,1-.24,2.07c8.41,5.09,36.36,6.09,61.51.21a108.37,108.37,0,0,0,39.23-18c11.79-8.59,21.86-19.82,27.84-33.12A90.06,90.06,0,0,0,374,73.36C377.1,58.84,377.56,43.4,372.58,29.41Z"/><path class="cls-25" d="M366.84,27.2c-4.24-9.9-11.76-18.57-21.35-23.34-.29.27-.58.54-.87.79l-.39.34c13.79,17.5,16.21,43.4,5.51,63-3.43,6.28-5.74,14.57-10.55,19.86-6.57,7.21-15.94,11.27-24,16.81-9.77,6.76-20.73,11.57-31.62,16.34-11.63,5.1-27.43,13.16-40.57,10.76-.32-.05-.82-.2-1.43-.37-.24,1-.46,2-.68,3s-.47,2.08-.67,3.12c4.4,1.73,10.32,2.63,13.27,3.24,13.78,2.86,28.15,1.58,41.86-1.59,12.79-3,25.28-7.59,36.27-14.76a89.32,89.32,0,0,0,39.18-61.79C372.48,50.74,371.59,38.27,366.84,27.2Z"/><path class="cls-26" d="M344.64,4.64h0a18.5,18.5,0,0,1-2.36,1.85C343,16.16,347,25.43,349.2,35c4,17.18,1.76,36.33-8.71,50.52-6.74,9.13-16.39,15.7-26.33,21.17a188.22,188.22,0,0,1-67,21.78c-.95.12-3.07.16-5,.43-.39,1.62-.76,3.24-1.12,4.86,3.56,2,9.33,2.39,12.93,2.84,10.37,1.31,20.92.45,31.2-1.24,20.84-3.44,43.11-11.21,57.68-26.5C369.44,81,366.47,66.45,367.05,48.56,367.59,31.67,358.57,14.28,344.64,4.64Z"/><path class="cls-27" d="M258.05,132.62c15.45-1.32,31.06-2.66,45.78-7.52a90,90,0,0,0,38.89-24.95,75.15,75.15,0,0,0,19-41.88,69,69,0,0,0-3.9-31c-3.13-8.49-8.3-16.67-16.26-21,1.08,4.37-4.09,8.06-4.09,12.55,0,2.24,1.29,4.24,2.38,6.2a40.32,40.32,0,0,1,4.94,21.45l-7.16,3c1.72,2.74,2.32,6,2.89,9.2.77,4.38,1.48,9.21-.8,13-3,5-10.26,6.83-11.92,12.41a7.59,7.59,0,0,0,2.48,7.89c-.27,2.63-3.48,3.76-6.12,3.86s-5.65-.1-7.48,1.79c-1.42,1.47-1.66,3.79-3.09,5.25-2.47,2.5-6.81,1.1-10.06,2.46-2.4,1-3.88,3.39-5.86,5.08-4,3.41-9.6,3.87-14.48,5.74-3.66,1.39-7,3.62-10.72,4.74s-12.06,2-14.15,2.66S253.93,124,252,125a13.52,13.52,0,0,1-3,1.43c-1.22.24-2.48-.24-3.72-.13-3.55.33-3.24,4.17-3.24,4.17C245.77,132.23,254.09,133,258.05,132.62Z"/><path class="cls-28" d="M276.38,122.11a6.29,6.29,0,0,0,1.69,5.94c.72.69,1.86,1.2,2.69.64a2.08,2.08,0,0,0,.77-1.6,4.3,4.3,0,0,0-5.85-4.35Z"/><path class="cls-28" d="M324.44,107.31a3.55,3.55,0,0,0,3.08.36,5.48,5.48,0,0,0-1.39-3.75c-1-1.23-4.32-4.82-5.34-2.32C320,103.49,323.08,106.5,324.44,107.31Z"/><path class="cls-28" d="M344.88,82.11a3.57,3.57,0,0,0,2.72-1.51,5.55,5.55,0,0,0-3.32-2.23C342.73,78,338,77,338.58,79.6,339.06,81.59,343.31,82.25,344.88,82.11Z"/><path class="cls-28" d="M354,71.07a3.51,3.51,0,0,0,2.71-1.5,5.47,5.47,0,0,0-3.32-2.24c-1.54-.4-6.31-1.38-5.69,1.24C348.13,70.56,352.37,71.21,354,71.07Z"/><path class="cls-28" d="M353.62,34.12a3.56,3.56,0,0,0,1.88-2.48,5.56,5.56,0,0,0-3.94-.7c-1.57.26-6.34,1.29-4.71,3.43C348.09,36,352.24,34.88,353.62,34.12Z"/><path class="cls-29" d="M318.61,174.32a260.66,260.66,0,0,0-26.07.42c-8.2.4-17,.93-23.23,3.8-5,2.31-7.94,5.92-13.79,7.59s-13.78,1.22-17.74,4c-2.81,2-2.3,4.76-3.95,7.08-3.48,4.86-15.74,6.83-18.36,11.85-1.82,3.47,2.05,7.26,7.7,9.21s12.66,2.36,19.37,2.27c9.49-.12,18.88-1.15,28.36-1.29,16.62-.25,32.89,2.25,49.28,3.75s34.06,1.9,48.82-2.21a25.62,25.62,0,0,0,7.83-3.3,10.85,10.85,0,0,0,3.88-5.42c1.17-3.18,1.6-6.61-1.07-9.51-3-3.22-9.09-5.15-14.25-7.43-8.69-3.84-15-9-20.75-14.1C339.29,176.24,328.55,174.83,318.61,174.32Z"/><path class="cls-30" d="M312.07,172.16a59.21,59.21,0,0,0,6.58,5.05c1.81,1.14,3.74,2.08,5.49,3.3,7.1,4.93,10.44,13.74,16.73,19.67a6,6,0,0,0,3.44,1.9c1.95-4.55.46-9.82-1.62-14.3-3-6.45-7.28-12.44-13.13-16.49a26.91,26.91,0,0,0-13.38-4.81c-1.57-.11-4.89-.5-6.13.76C308.4,168.92,310.82,171.1,312.07,172.16Z"/><path class="cls-30" d="M355.6,165.72a19.17,19.17,0,0,1-20.25,2.81c-1.54-.73-3.13-1.89-3.32-3.58s1-3,2.13-4.12c4.23-3.94,9.77-6.14,15.29-7.85,2.87-.89,17.33-6.61,18-.45.23,2.16-4.24,4.61-5.62,6.17C359.75,161,358,163.65,355.6,165.72Z"/><path class="cls-31" d="M344.31,202a41.43,41.43,0,0,0,13.39-16.13,72.43,72.43,0,0,0,6-20.25c.59-3.69,1-7.46,2.61-10.84-7.9,1.07-15.12,5.09-21.61,9.72a44.14,44.14,0,0,1,23.7-13.26A8.67,8.67,0,0,0,363,147a20.69,20.69,0,0,0-7-.59,71.31,71.31,0,0,0-25.68,6.21A74.29,74.29,0,0,0,318.84,159c-2.42,1.67-9.11,5.46-9.28,8.7,13.53,1.88,25.15,10.85,31.18,23.18C341.29,192,345.43,201.19,344.31,202Z"/><path class="cls-30" d="M330.1,156.78a7.48,7.48,0,0,0-3.39,1,2.54,2.54,0,0,0-1,3.1,3.09,3.09,0,0,0,2.64,1.26,8.76,8.76,0,0,0,4.49-.95c.91-.47,1.85-1.41,1.49-2.37a2,2,0,0,0-1-1,6,6,0,0,0-3.58-.59Z"/><path class="cls-31" d="M293.72,197.85c-14.53,5.71-30.19,8.25-45.8,8.57-13.2.27-26.39-1-39.6-1.26a250.22,250.22,0,0,0-32.15,1.48c28.52-1.4,57.05,2.82,85.6,2.1a140.6,140.6,0,0,0,22.81-2.17,99,99,0,0,0,39.23-16.88c5.63-4.06,11.11-9.17,12.68-15.92a4.76,4.76,0,0,0,.13-2c-.73-3.5-4.24-1.6-5.51,0a68.58,68.58,0,0,1-7.5,7.84,93.66,93.66,0,0,1-18.23,12.87A102.71,102.71,0,0,1,293.72,197.85Z"/><path class="cls-31" d="M317.73,191.25a29.31,29.31,0,0,1,2.13,30.43,28,28,0,0,0,.94-14,27.58,27.58,0,0,0-4.53-11.48c-3.74-5.2-9.62-8.54-15.76-10.35s-12.59-2.27-19-2.7c2.78.19,15.35-1.35,18.52-1C309.56,183.1,313.63,185.64,317.73,191.25Z"/><path class="cls-31" d="M283.94,199.52a14.52,14.52,0,0,1,1.5,12.87,20.4,20.4,0,0,1-3.57,5.58c-2.59,3.08-6.07,6-10.09,5.76,2.17.92,4.6-.32,6.63-1.54a26.7,26.7,0,0,0,7.07-5.38c2.95-3.51,3.92-8.31,3.83-12.9a10.22,10.22,0,0,0-.95-4.64,11.35,11.35,0,0,0-4.22-3.85,32.23,32.23,0,0,0-8-3.83,14,14,0,0,0-8.66.08c3.2.19,5.63,0,8.72,1.35A17.89,17.89,0,0,1,283.94,199.52Z"/><path class="cls-31" d="M251.75,196.4a12,12,0,0,1,6.14,3.23c2.53,2.82,2.48,7.36.52,10.6s-5.5,5.28-9.16,6.25a44.55,44.55,0,0,1-11.3,1,34.37,34.37,0,0,0,11-3.2c3.76-1.83,7.5-4.89,7.86-9.05a5.25,5.25,0,0,0-.48-2.85,6.6,6.6,0,0,0-1.76-2,17.86,17.86,0,0,0-13.28-3.88C245.15,196,247.85,195.44,251.75,196.4Z"/><path class="cls-31" d="M225.34,199.48a15.72,15.72,0,0,1,4.28,1.3,5.22,5.22,0,0,1,2.78,3.35,5.87,5.87,0,0,1-1.42,4.59c-2.45,3.15-6.42,4.81-10.38,5.28s-7.95-.09-11.89-.65c3.91.63,7.86-.5,11.66-1.61,2.28-.67,4.69-1.42,6.27-3.2a4.72,4.72,0,0,0,1.19-4.23c-.69-2.52-3.7-3.5-6.28-3.9a57.69,57.69,0,0,0-8.09-.66A24.88,24.88,0,0,1,225.34,199.48Z"/><path class="cls-31" d="M141.07,206.8a249.55,249.55,0,0,0,27.86,5.67c-4.56,7.78-12.48,12.92-20.3,17.42,9.25.58,18.85,1.11,27.47-2.28a61.17,61.17,0,0,0,11-6.18c4.46-3,9.06-6.09,12.13-10.56,1.12-1.63,3.11-4.25.86-5.55-2-1.14-5-1.74-7.23-2.44a69.74,69.74,0,0,0-43,.27q-2.34.78-4.62,1.73C144.48,205.2,141.76,207,141.07,206.8Z"/><path class="cls-30" d="M148.17,206.4a79.44,79.44,0,0,1,8.83-1.09c2.95-.21,5.9-.26,8.86-.21s5.95.21,8.92.45,5.93.55,8.88.9,5.93.75,8.89,1.15l1.1.15a.37.37,0,0,0,.43-.25.35.35,0,0,0-.24-.43c-3-.4-6-.8-8.94-1.17s-6-.69-9-1-6-.45-9-.53-6,0-9,.13a83.32,83.32,0,0,0-8.89,1l-1.09.19c-.44.08-.26.76.18.68Z"/><path class="cls-30" d="M153.7,229.2a65.57,65.57,0,0,0,9-1.9A68.45,68.45,0,0,0,179.53,220a68.27,68.27,0,0,0,7.56-5.29,66.84,66.84,0,0,0,6.77-6.26c.25-.27.51-.54.76-.82s-.19-.83-.5-.49a66.79,66.79,0,0,1-6.6,6.32,68.07,68.07,0,0,1-7.39,5.35,69.3,69.3,0,0,1-8,4.33,67,67,0,0,1-8.54,3.21,66.19,66.19,0,0,1-8.92,2l-1.1.17a.35.35,0,1,0,.18.67Z"/><path class="cls-30" d="M162.59,223q5.88-3.08,11.79-6.07c3.92-2,7.86-4,11.8-5.88,2.24-1.1,4.47-2.19,6.71-3.27a.35.35,0,0,0,.13-.48.37.37,0,0,0-.48-.12q-6,2.88-11.91,5.83t-11.77,6c-2.21,1.13-4.42,2.28-6.62,3.43-.4.21-.05.81.35.6Z"/><path class="cls-30" d="M159.93,207.78a.35.35,0,0,0,0-.7.35.35,0,0,0,0,.7Z"/><path class="cls-30" d="M159.91,207.7c3.55.3,7.11.59,10.67.8s7.13.33,10.69.29c2,0,4-.11,6-.26a.35.35,0,0,0,0-.7c-3.55.27-7.12.31-10.68.23s-7.13-.31-10.68-.57c-2-.15-4-.32-6-.49a.35.35,0,0,0,0,.7Z"/><path class="cls-30" d="M167.42,202.11a.35.35,0,0,0,0-.7.35.35,0,0,0,0,.7Z"/><path class="cls-30" d="M167.44,202l12.12,1A106.31,106.31,0,0,1,191,204.39,48.2,48.2,0,0,1,197.2,206c.42.14.61-.54.18-.68a56.52,56.52,0,0,0-11.3-2.38c-3.91-.48-7.85-.75-11.78-1.06l-6.86-.55a.35.35,0,1,0,0,.69Z"/><path class="cls-30" d="M173.58,226.72c1.77-1,3.53-2,5.28-3s3.49-2.06,5.19-3.15,3.36-2.24,5-3.45a54.46,54.46,0,0,0,4.58-3.87,41.18,41.18,0,0,0,4.06-4.4l.49-.63a.34.34,0,0,0-.13-.47.36.36,0,0,0-.48.12,42.11,42.11,0,0,1-3.93,4.41,54.12,54.12,0,0,1-4.51,3.9c-1.56,1.21-3.19,2.35-4.85,3.43s-3.39,2.14-5.12,3.15-3.48,2-5.23,3l-.66.37a.35.35,0,0,0,.35.61Z"/><path class="cls-32" d="M331.18,173.14c6.62,5.57,12.52,12.41,15.17,20.65a33.06,33.06,0,0,0-9.5-20.3,28.84,28.84,0,0,0-20.66-8.29,23.88,23.88,0,0,1,3.19,1,18.38,18.38,0,0,1,4.28,1.76A41.81,41.81,0,0,1,331.18,173.14Z"/><path class="cls-33" d="M337,169.29a3,3,0,0,0,1.73-.67,1.72,1.72,0,0,0,.61-1.68,1.22,1.22,0,0,0-1.43-.9,1.52,1.52,0,0,1,1.28-.44,17.61,17.61,0,0,1,1.92.08,3.83,3.83,0,0,1,2.22.76,2.66,2.66,0,0,1,.29,3.31,4.7,4.7,0,0,1-3,1.91,8,8,0,0,1-4.29-.15,3.56,3.56,0,0,1-2-1.34,1.72,1.72,0,0,1,.19-2.21C334.3,169.34,335.94,169.4,337,169.29Z"/><path class="cls-34" d="M42.11,192.39c6.06-5.25,14.21-7.28,22.07-8.84,5.55-1.1,11.12-2,16.73-2.73,6.6-.81,13.48-1.24,19.76,1A47.51,47.51,0,0,1,111,187.4q7.43,4.93,14.72,10.09a31.06,31.06,0,0,1,7,6.16c2.67,3.51,3.76,8,4.37,12.33.82,5.77.89,11.87-1.54,17.17a7.11,7.11,0,0,1-2.71,3.39,8.72,8.72,0,0,1-3.15.85c-12.54,1.75-25.13,3.51-37.79,3.61a145.62,145.62,0,0,1-41.14-5.63C46.9,234.26,43,232.93,40,230.24c-3.36-3-5.13-7.49-5.75-12C32.91,208.62,34.45,199,42.11,192.39Z"/><path class="cls-35" d="M136.53,212.07a4.19,4.19,0,0,0-.46.16,6.75,6.75,0,0,0-2.58,2.56,2.28,2.28,0,0,0-.54,1.35,2.55,2.55,0,0,0,.59,1.24,9.56,9.56,0,0,1,.19,10.59,11.67,11.67,0,0,1-7.42,4.44,34.76,34.76,0,0,1-8.83.24l-7.18-.42c-1.62-.09-3.43-.12-4.64,1l1.67-1.69A48.28,48.28,0,0,0,98.44,234a16.27,16.27,0,0,0-7.22,5.6,7.19,7.19,0,0,0-.65,1.19H92c12.67-.1,25.25-1.85,37.79-3.6a8.88,8.88,0,0,0,3.15-.86,7.19,7.19,0,0,0,2.72-3.39c2.43-5.29,2.36-11.4,1.54-17.17C137,214.54,136.81,213.3,136.53,212.07Z"/><path class="cls-36" d="M42.84,202.8c14.7-2.36,29.89.53,43.72,6a41.64,41.64,0,0,1,9.51,5c3.27,2.43,6.13,5.76,10.09,6.68,4.9,1.12,9.69-1.77,14.51-3.16a24.57,24.57,0,0,1,8.44-.91c2.34.15,5,.52,6.72-1.14,1.82-1.81,1.18-4.88.23-7.27-5.47-13.68-17.34-24.41-31.15-29.57s-29.33-5-43.42-.64c-6.91,2.13-13.66,5.32-18.83,10.38s-8.46,12-8.12,19.34C32,205.09,41.5,203,42.84,202.8Z"/><path class="cls-37" d="M39.51,192.26c-2.41,2.48-3.67,5.84-4.62,9.16-1.65,5.75-2.56,11.84-1.52,17.73s4.21,11.6,9.32,14.72c4.77,2.91,10.59,3.32,16.15,3.93C73.75,239.42,89,243,103.5,239a2.18,2.18,0,0,0,1.38-.78,4,4,0,0,0,.26-1.74c.21-1.86,2.21-2.86,3.81-3.85a9.73,9.73,0,0,0,4.24-4.87,5.7,5.7,0,0,0-1.35-6.06,7,7,0,0,1-1.24-1.13c-.78-1.12-.2-2.63-.09-4,.32-3.88-3.25-6.94-4.3-10.68a5.21,5.21,0,0,0-.59-1.6c-1.1-1.59-3.52-.82-5.43-.47a9.31,9.31,0,0,1-8.57-3c-1-1.18-1.74-2.62-2.79-3.79a4.52,4.52,0,0,0-4.13-1.76,7.7,7.7,0,0,1-2.17.55,3.16,3.16,0,0,1-1.44-.63c-3.22-2.14-6.09-5-9.83-6s-7.66.2-11.15,1.79c-2.92,1.34-6.13,3-9.16,2-2.38-.84-4.2-3.32-6.72-3.23-1.89.06-3.38,1.56-4.65,3L37,195.48Z"/><path class="cls-38" d="M43.73,208.51c1.11-.61,2.2-1.28,3.25-2a1.11,1.11,0,0,0,.48-.63,1.09,1.09,0,0,0-.1-.81,1.07,1.07,0,0,0-1.44-.37c-1.05.71-2.13,1.37-3.25,2a1,1,0,0,0-.37,1.43,1.07,1.07,0,0,0,1.43.38Z"/><path class="cls-38" d="M44.23,217.13A7.73,7.73,0,0,0,47.61,219a1.05,1.05,0,0,0,.56-2,6.48,6.48,0,0,1-1-.32l.25.11a6.63,6.63,0,0,1-1.43-.84l.21.17c-.18-.14-.35-.29-.52-.45a1.05,1.05,0,0,0-1.48,1.49Z"/><path class="cls-38" d="M57.4,227l3.22.84a1.05,1.05,0,0,0,.56-2L58,225a1,1,0,0,0-.56,2Z"/><path class="cls-38" d="M59.73,213.45a10.61,10.61,0,0,0,5.82-.57,1.17,1.17,0,0,0,.63-.48A1.06,1.06,0,0,0,65,210.85a9.24,9.24,0,0,1-2.37.64l.28,0a9.59,9.59,0,0,1-2.51,0l.28,0-.38-.06a1.1,1.1,0,0,0-.81.11,1,1,0,0,0,.25,1.91Z"/><path class="cls-38" d="M59.41,201.62l4.68-1a1.06,1.06,0,0,0,.73-1.29,1.08,1.08,0,0,0-1.29-.74l-4.68,1a1.06,1.06,0,0,0-.73,1.29,1.08,1.08,0,0,0,1.29.74Z"/><path class="cls-38" d="M45.1,198.58a1.17,1.17,0,0,1-.05-.2l0,.28a2.16,2.16,0,0,1,0-.36l0,.28a1.61,1.61,0,0,1,.1-.36l-.11.25a1.92,1.92,0,0,1,.18-.31l-.16.21a1.52,1.52,0,0,1,.22-.22.87.87,0,0,0,.22-.34.93.93,0,0,0,0-.8.87.87,0,0,0-.22-.34,1,1,0,0,0-.74-.31l-.28,0a1.11,1.11,0,0,0-.47.27,2.28,2.28,0,0,0-.43.5,1.62,1.62,0,0,0-.1.18,3.38,3.38,0,0,0-.18.44,2.18,2.18,0,0,0-.1.67c0,.11,0,.22,0,.34a1.86,1.86,0,0,0,.07.34,1,1,0,0,0,.48.63.69.69,0,0,0,.39.12.75.75,0,0,0,.42,0,1,1,0,0,0,.62-.48,1.08,1.08,0,0,0,.11-.81Z"/><path class="cls-38" d="M37.57,218.26,39,221.93a1.16,1.16,0,0,0,.48.63,1,1,0,0,0,.81.1,1.06,1.06,0,0,0,.73-1.29l-1.41-3.67a1.1,1.1,0,0,0-.48-.62,1,1,0,0,0-1.54,1.18Z"/><path class="cls-38" d="M76.08,232.17a22.34,22.34,0,0,0,5.54-.27,1.05,1.05,0,0,0,.63-.48,1,1,0,0,0-.38-1.44,1.16,1.16,0,0,0-.8-.1l-.74.11.28,0a22.13,22.13,0,0,1-4.53.13,1,1,0,0,0-1,1,1.07,1.07,0,0,0,1,1Z"/><path class="cls-38" d="M79.44,214.67l2.92.16a1.06,1.06,0,0,0,1-1.05,1.08,1.08,0,0,0-1-1.05l-2.92-.16a1.06,1.06,0,0,0-1,1.05,1.07,1.07,0,0,0,1,1Z"/><path class="cls-38" d="M75.55,200.2l2.64,1.31a1.13,1.13,0,0,0,.81.1,1.06,1.06,0,0,0,.62-.48,1.05,1.05,0,0,0-.37-1.44l-2.64-1.3a1.14,1.14,0,0,0-.81-.1,1,1,0,0,0-.63.48,1.09,1.09,0,0,0-.1.81,1,1,0,0,0,.48.62Z"/><path class="cls-38" d="M92.91,209.06a23.19,23.19,0,0,1,1.27,5,1,1,0,0,0,.48.63,1.09,1.09,0,0,0,.81.11,1,1,0,0,0,.62-.49,1.19,1.19,0,0,0,.11-.81,23.77,23.77,0,0,0-1.26-5,1.06,1.06,0,0,0-1.29-.73,1.07,1.07,0,0,0-.74,1.29Z"/><path class="cls-38" d="M94.49,229.68l.26,3.65a1.17,1.17,0,0,0,.31.75,1.07,1.07,0,0,0,.74.3,1.06,1.06,0,0,0,1-1l-.26-3.65a1.12,1.12,0,0,0-.3-.74,1.05,1.05,0,0,0-1.8.74Z"/><path class="cls-38" d="M105.92,231.83l1.75-3.36a1,1,0,1,0-1.81-1.06l-1.75,3.36a1.06,1.06,0,0,0,.38,1.43,1.05,1.05,0,0,0,1.43-.37Z"/><path class="cls-39" d="M113.58,216.19a6.09,6.09,0,0,1-1.11,2.36,2.12,2.12,0,0,0,0,2.45c.71.73,2,.37,2.84.95,1.19.84.55,2.73,1,4.1a3.63,3.63,0,0,0,2.78,2,5.15,5.15,0,0,0,5.18-1.71c1.42-1.91.94-4.6,1.65-6.88.31-1,.85-1.91,1.24-2.88a4.53,4.53,0,0,0,.32-3.06A2.23,2.23,0,0,0,125.1,212c-.88.19-1.47,1-2.29,1.37a3.25,3.25,0,0,1-2.65-.23,24.24,24.24,0,0,1-2.31-1.46c-.67-.41-1.78-.9-2.47-.27s-.07,1.2-.41,1.61-1,.09-1.35.53C113.05,214.21,113.65,215.4,113.58,216.19Z"/><path class="cls-39" d="M66.41,186.64c1.15.91,2.8.25,4.26.27,2.12,0,3.9,1.5,5.74,2.55a15.09,15.09,0,0,0,7,1.92,4.38,4.38,0,0,0,2.87-.72c.38-.3.67-.7,1.06-1a3,3,0,0,1,2.56-.28,18.24,18.24,0,0,1,2.45,1.05,11.27,11.27,0,0,0,8.16.28,1.84,1.84,0,0,0,1.19-.87,1.63,1.63,0,0,0-.7-1.78c-2.42-1.9-6.11-.13-9-1.28-1.88-.76-3.07-2.67-4.89-3.56a10.29,10.29,0,0,0-3-.79,9.33,9.33,0,0,0-3.53-.09c-.74.18-1.43.53-2.17.67-1.74.31-3.42-.59-5-1.24s-3.67-1-5,.1c.12.73,1,1,1.73,1.14a2.84,2.84,0,0,1,2,.68c-.65,1-1.67.61-2.66.85C69.15,184.65,66.1,186.4,66.41,186.64Z"/><path class="cls-39" d="M39.55,203.81a4.53,4.53,0,0,0-1.24,1.53,2.6,2.6,0,0,0-.45,2.3c.25.53.8.84,1.18,1.28,1.06,1.24.56,3.12.1,4.68a9.59,9.59,0,0,0-.43,5.26c.48,1.72,2.1,3.23,3.87,3s3-2.19,4.68-3.15c2.43-1.4,5.8-.56,8-2.3,1.47-1.17,2-3.17,2.11-5,.11-1.28-.13-2.9-1.36-3.29-.95-.3-2.18.3-2.9-.38a1.86,1.86,0,0,1-.47-1.11,19.18,19.18,0,0,0-.42-2.5,2.62,2.62,0,0,0-1.6-1.82c-1.56-.48-2.88,1.16-4.34,1.9a1.29,1.29,0,0,1-.85.19,2.29,2.29,0,0,1-.77-.44C43.61,203.18,40.6,203.05,39.55,203.81Z"/><path class="cls-40" d="M74.7,184.41a1.1,1.1,0,0,0-.42.41.85.85,0,0,0,.2.9,2.09,2.09,0,0,0,.83.48,9.43,9.43,0,0,0,2.63.56,1.32,1.32,0,0,1,1,.33,4.09,4.09,0,0,1,.3.71c.28.56,1,.69,1.64.71,1.31.05,2.88-.23,3.41-1.43a2.1,2.1,0,0,1,.22-.42c.53-.64,1.81.23,2.35-.42a.82.82,0,0,0-.18-1.07,2.09,2.09,0,0,0-1.12-.41c-2-.29-4.12-.16-6.16-.58C77.77,183.85,76.22,183.42,74.7,184.41Z"/><path class="cls-40" d="M41.63,206.51C41.57,208,43.2,209.3,43,210.8a5.28,5.28,0,0,1-.71,1.57,6.32,6.32,0,0,0-.67,4c.11.69.46,1.47,1.15,1.59a1.92,1.92,0,0,0,.94-.17,2.75,2.75,0,0,0,1.4-.91c.55-.84.1-2.08.68-2.9a2.37,2.37,0,0,1,2.51-.52,5.76,5.76,0,0,0,2.66.43,2.08,2.08,0,0,0,.79-3.72c-1-.76-2.47-.43-3.75-.28a.94.94,0,0,1-.79-.16c-.39-.4.12-1,.23-1.57C47.86,205.86,41.69,205.13,41.63,206.51Z"/><path class="cls-40" d="M115.37,215.77c-.24.87,0,1.95-.66,2.6-.28.29-.74.65-.51,1a.74.74,0,0,0,.27.19c1,.42,2.46.22,3,1.2a2.65,2.65,0,0,1-.12,2,2,2,0,0,0,.16,2,1.5,1.5,0,0,0,2.15-.4,2.31,2.31,0,0,0,.3-2.11c-.39-1.09-1.57-1.79-1.82-2.91a2,2,0,0,1,.89-2.09,1.28,1.28,0,0,1,.73-.2c.69.06,1,.81,1.55,1.29a2.38,2.38,0,0,0,3.45-.31,1.41,1.41,0,0,0,.3-1.07,1.37,1.37,0,0,0-.94-1,4.16,4.16,0,0,0-1.41-.16c-1.36,0-3-.1-3.68-1.27a1.57,1.57,0,0,0-.43-.6C117.56,213.24,115.63,214.84,115.37,215.77Z"/><path class="cls-20" d="M100.84,178.89c2.1.9,4.21,1.8,6.26,2.81a50.6,50.6,0,0,1,17.67,14,37.17,37.17,0,0,1,8,20.9c2.59,0,4.48-2.8,4.51-5.39s-1.3-5-2.64-7.22c-4-6.53-8.54-12.86-14.74-17.31a66.75,66.75,0,0,0-10.55-6.52,93,93,0,0,0-15.3-4.62A61.85,61.85,0,0,0,100.84,178.89Z"/></svg>