<svg id="Layer_1" data-name="Layer 1" xmlns="http://www.w3.org/2000/svg" viewBox="0 0 539.71 780.03"><defs><style>.cls-1{font-size:35.76px;}.cls-1,.cls-9{fill:#003b7e;}.cls-1,.cls-10{font-family:Gotham-Bold, Gotham;font-weight:700;}.cls-2{letter-spacing:-0.01em;}.cls-3{letter-spacing:0em;}.cls-4{letter-spacing:-0.01em;}.cls-5{letter-spacing:-0.03em;}.cls-6{letter-spacing:-0.02em;}.cls-7{fill:#82ad0b;}.cls-8{font-size:26.63px;}.cls-11,.cls-18,.cls-8{fill:#fff;}.cls-18,.cls-8{font-family:GothamMedium, Gotham Medium;}.cls-10{font-size:18.42px;fill:#ffe500;letter-spacing:-0.01em;}.cls-12,.cls-13{fill:#b5ad14;}.cls-13{stroke:#b5ad14;}.cls-13,.cls-16,.cls-28{stroke-miterlimit:10;}.cls-14{fill:#e29f27;}.cls-15,.cls-16{fill:#f37826;}.cls-16{stroke:#f37826;}.cls-17{fill:#e75433;}.cls-18{font-size:25.11px;}.cls-19{font-size:20.54px;letter-spacing:-0.01em;}.cls-19,.cls-23{font-family:Gotham-Light, Gotham;font-weight:300;}.cls-20{letter-spacing:-0.02em;}.cls-21{letter-spacing:-0.01em;}.cls-22{letter-spacing:-0.03em;}.cls-23{font-size:20.54px;letter-spacing:-0.02em;}.cls-24{letter-spacing:-0.01em;}.cls-25{letter-spacing:-0.02em;}.cls-26{letter-spacing:-0.01em;}.cls-27{letter-spacing:-0.03em;}.cls-28{fill:none;stroke:#003b7e;stroke-width:2px;}</style></defs><text class="cls-1" transform="translate(61.91 30.39)"><tspan class="cls-2">F</tspan><tspan class="cls-3" x="22.92" y="0">ood </tspan><tspan class="cls-4" x="105.27" y="0">R</tspan><tspan x="130.76" y="0">e</tspan><tspan class="cls-2" x="152.68" y="0">c</tspan><tspan class="cls-5" x="172.56" y="0">ov</tspan><tspan x="215.61" y="0">ery Hie</tspan><tspan class="cls-6" x="344.56" y="0">r</tspan><tspan x="358.61" y="0">a</tspan><tspan class="cls-2" x="379.78" y="0">r</tspan><tspan x="394.19" y="0">c</tspan><tspan class="cls-2" x="414.6" y="0">h</tspan><tspan x="436.34" y="0">y</tspan></text><path class="cls-7" d="M523.88,89.89H60c-12.17,0-19.77,14.07-13.69,25.32l46.58,86.17a15.67,15.67,0,0,0,13.69,8.44H477.3A15.67,15.67,0,0,0,491,201.38l46.58-86.17C543.65,104,536.05,89.89,523.88,89.89Z"/><text class="cls-8" transform="translate(146.54 151.43)">Reduce Wasted Food</text><rect class="cls-9" x="220.82" y="167.87" width="142.59" height="27.29"/><text class="cls-10" transform="translate(233.84 187.97)">READ MORE</text><circle class="cls-11" cx="291.92" cy="89.72" r="31.78"/><path class="cls-7" d="M303.07,79.87l-.59-.4c-2.34-1.64-4.78-.88-7.13-.16a16.11,16.11,0,0,1-3.28.78c-.15-1.26-.14-4.57,2.75-9.65a.78.78,0,1,0-1.36-.78,23.54,23.54,0,0,0-2.78,7.11,13.45,13.45,0,0,0-11.75-7.54.78.78,0,0,0-.57.2.83.83,0,0,0-.25.55c-.12,3.88,1.21,6.73,4.16,8.74a5.1,5.1,0,0,0-1.9.86,14.09,14.09,0,0,0-2,1.8s0,0,0,0,0,0,0,0a.57.57,0,0,0-.08.13h0a1.34,1.34,0,0,0-.07.18v.05a.47.47,0,0,0,0,.17v0a.72.72,0,0,0,0,.19h0l0,0a.64.64,0,0,0,.08.14l0,0a.8.8,0,0,0,.13.13,17.47,17.47,0,0,1,4.49,6.28c2.31,5.41,1.69,11.3-1.83,17.49a.36.36,0,0,0,0,.09s0,0,0,0h0a1.06,1.06,0,0,0,0,.19v0a.76.76,0,0,0,0,.15.13.13,0,0,0,0,.06,1,1,0,0,0,.05.16h0a.54.54,0,0,0,.1.16v0c1.39,1.57,4.67,2.59,5.7,2.79a7.15,7.15,0,0,0,2.89.12,11.22,11.22,0,0,1,1.81-.13,10.54,10.54,0,0,1,1.82.12,6.18,6.18,0,0,0,1.63,0c.33,0,.73-.1,1.25-.2s1.89-.63,3-1c2.62-1,2.63-1,2.75-1.47a.78.78,0,0,0-.21-.78.87.87,0,0,0-.23-.16c-6.59-13.69,2-22,3.39-23.22a.92.92,0,0,0,.74-.63c.25-.81-.52-1.4-2.62-2.76Zm-23.4-9a12.38,12.38,0,0,1,10.72,9.2c-.78-.14-1.49-.31-2.16-.48l-.73-.22-.58-.17c-5.94-1.94-7.17-5.17-7.25-8.33Zm1.61,10c1.49-1.07,3.13-.76,5-.24.56.19,1.14.36,1.76.52a15.79,15.79,0,0,0,2.19.48l1.1.19a.67.67,0,0,0,.2,0,.69.69,0,0,0,.36-.13,16.29,16.29,0,0,0,3.94-.86c2.18-.68,4.06-1.26,5.77-.06l.64.43c.27.17.7.45,1.11.73a7.28,7.28,0,0,0-3.16,2.26c-.34.35-.88.94-1.09.94l0,0-.15-.09a6.58,6.58,0,0,0-4.21-1.27,6.66,6.66,0,0,0-2.29.72c-2.47,1.25-6.12.28-8.3-1.26a12.09,12.09,0,0,0-3.57-1.74c.25-.21.51-.42.76-.6ZM296,108.41a5.81,5.81,0,0,1-2.36.14,12.63,12.63,0,0,0-2-.13,12.08,12.08,0,0,0-1.39.07c-.25,0-.46.05-.64.08a5.74,5.74,0,0,1-2.37-.12,13.7,13.7,0,0,1-3.5-1.31,26.37,26.37,0,0,0,4.58-1.34,3.26,3.26,0,0,1,2.74.12,3.77,3.77,0,0,0,3.48-.06,9.52,9.52,0,0,1,3,1.23c.29.16.58.32.87.46-1.05.41-2.11.8-2.41.86Zm3.87-1.94a9.28,9.28,0,0,1-1.57-.75,10.52,10.52,0,0,0-3.85-1.45.78.78,0,0,0-.52.12,2.19,2.19,0,0,1-2.36.06,4.81,4.81,0,0,0-3.86-.1,26,26,0,0,1-4.47,1.29c5.43-10.81,1.14-18.61-1.74-22.17a11.24,11.24,0,0,1,1.73,1c2.62,1.85,6.86,2.92,9.9,1.38,2.26-1.14,3.53-.38,5,.5l.15.09a1.54,1.54,0,0,0,1,.24,3.22,3.22,0,0,0,1.8-1.14c-2.7,4-5.54,11.28-1.19,20.94Z"/><path class="cls-7" d="M289.64,93.14a.78.78,0,0,0-.78.78l0,3.21a.78.78,0,0,0,.78.78h.08a.77.77,0,0,0,.7-.78v-3.2a.79.79,0,0,0-.79-.78Z"/><path class="cls-7" d="M292.78,93.12a.79.79,0,0,0-.78.79l0,3.2a.78.78,0,0,0,.78.78h.08a.79.79,0,0,0,.7-.78l0-3.21a.78.78,0,0,0-.78-.78Z"/><path class="cls-12" d="M481.72,255.57H102.12c-10,0-16.18,10.42-11.2,18.77L129,338.23a13,13,0,0,0,11.2,6.25H443.6a13,13,0,0,0,11.2-6.25l38.12-63.89C497.9,266,491.68,255.57,481.72,255.57Z"/><text class="cls-8" transform="translate(154.25 321.76)">Donate Excess Food</text><circle class="cls-11" cx="291.92" cy="255.29" r="31.78"/><path class="cls-13" d="M312.58,266.47a4.65,4.65,0,0,0-3.55-1.66,4.71,4.71,0,0,0-1.49.25l-8.83,3a3.82,3.82,0,0,0-3.45-2.16h-2.37a2.27,2.27,0,0,0,.87-.42,2.4,2.4,0,0,0,.91-2.13,2.4,2.4,0,0,1,.63-2l1.29-1.29a6.58,6.58,0,0,0,2,.31,14.18,14.18,0,0,0,9.33-4.3,8.91,8.91,0,0,0,2.91-5.87,6.86,6.86,0,0,0-2.09-5.14c-2.74-2.73-6.53-2.79-9.85-.22a6.64,6.64,0,0,0-2.77-4,6.26,6.26,0,0,0-5.14-.72,6.1,6.1,0,0,1-.72.14,4.63,4.63,0,0,1,3.55-3.31.48.48,0,0,0,.32-.6.49.49,0,0,0-.6-.33,7.38,7.38,0,0,0-2.15,1,3.25,3.25,0,0,0-.9-2.51c-1.46-1.46-4.56-1.46-4.69-1.46a.48.48,0,0,0-.48.48c0,.13,0,3.23,1.46,4.69a3.26,3.26,0,0,0,2.35.9c.18,0,.35,0,.51,0a5.42,5.42,0,0,0-.37,1.18,5.63,5.63,0,0,1-1-.16,6.26,6.26,0,0,0-5.52,1,7.22,7.22,0,0,0-2.67,5.87,11.82,11.82,0,0,0,3.28,8.77A6.64,6.64,0,0,0,288,257.6a5.63,5.63,0,0,0,.58,0,13.71,13.71,0,0,1,2.22,0,6.52,6.52,0,0,0,3-.43l0,.09-1.29,1.28a2.37,2.37,0,0,1-2,.64,3.89,3.89,0,0,0,1.2,6.71h-.63a6,6,0,0,1-3-.8,7,7,0,0,0-3.48-.93h-5.68V264a2,2,0,0,0-2-2h-4.08a2,2,0,0,0-2,2v11a2,2,0,0,0,2,2h4.08a2,2,0,0,0,2-1.88l12.4,2.28a5.23,5.23,0,0,0,1,.09,5.44,5.44,0,0,0,2.2-.47L312,269.21a1.76,1.76,0,0,0,1-1.22,1.74,1.74,0,0,0-.37-1.52ZM278,275a1,1,0,0,1-1,1h-4.08a1,1,0,0,1-1-1V264a1,1,0,0,1,1-1h4.08a1,1,0,0,1,1,1Zm21-28.94c3.09-2.77,6.59-2.9,9.14-.35a5.82,5.82,0,0,1,1.81,4.42,8,8,0,0,1-2.62,5.23c-2.86,2.86-7.09,4.47-9.88,3.88l1-1a2.07,2.07,0,0,0,.17-2.74,2,2,0,0,0-1.45-.73,2,2,0,0,0-1.51.59l-1.09,1.08s0,0,0-.06c-.56-2.82,1.12-7,3.9-9.82.16-.17.33-.32.5-.47Zm-11.45-8.53a6,6,0,0,1-1.16-3.51,6,6,0,0,1,3.5,1.16,2.92,2.92,0,0,1,.45,2.8,3,3,0,0,1-2.79-.45Zm6,18.61a5.56,5.56,0,0,1-2.69.44,15.76,15.76,0,0,0-2.38,0,5.68,5.68,0,0,1-4.43-1.56c-1.89-1.75-3-4.68-3-8.06a6.3,6.3,0,0,1,2.29-5.1,5.26,5.26,0,0,1,4.68-.83,6.22,6.22,0,0,0,1.13.2,8.88,8.88,0,0,0,0,1.15.48.48,0,0,0,.48.45h0a.47.47,0,0,0,.45-.51,6.6,6.6,0,0,1,0-1.09,6.17,6.17,0,0,0,1.14-.19,5.33,5.33,0,0,1,4.36.6,5.86,5.86,0,0,1,2.46,3.9l-.33.31c-2.92,2.92-4.64,7.17-4.23,10.3Zm-2,8.54a1.42,1.42,0,0,1-.59-1.27.49.49,0,0,0-.14-.38.48.48,0,0,0-.34-.14h0a1.41,1.41,0,1,1,0-2.81,3.31,3.31,0,0,0,2.74-.91l1.5-1.49h0l1.66-1.66a1,1,0,0,1,.79-.3,1,1,0,0,1,.75.38,1.08,1.08,0,0,1-.12,1.43l-3.11,3.12a3.35,3.35,0,0,0-.91,2.74,1.41,1.41,0,0,1-2.22,1.3ZM312,267.78a.83.83,0,0,1-.45.55l-17.47,7.83a4.41,4.41,0,0,1-2.61.32l-12.56-2.3V265.1h5.68a5.9,5.9,0,0,1,3,.8,7.11,7.11,0,0,0,3.49.92h4.18a2.88,2.88,0,0,1,2.73,2,2.93,2.93,0,0,1,.16.93,1,1,0,0,1-.95,1h-9.95a.49.49,0,1,0,0,1h9.95a1.88,1.88,0,0,0,1.35-.56,1.9,1.9,0,0,0,.56-1.36,3.31,3.31,0,0,0-.09-.77l8.83-3a3.69,3.69,0,0,1,4,1.12.78.78,0,0,1,.16.69Z"/><path class="cls-13" d="M291.51,243.54a3.23,3.23,0,0,1-3.75,0,.48.48,0,0,0-.66.15.48.48,0,0,0,.15.67,4.18,4.18,0,0,0,4.78,0,.48.48,0,0,0,.15-.67.49.49,0,0,0-.67-.15Z"/><path class="cls-14" d="M452.43,389.57h-321c-10.36,0-16.84,9.4-11.66,16.92l45.73,66.36a14.13,14.13,0,0,0,11.66,5.64H406.7a14.13,14.13,0,0,0,11.66-5.64l45.73-66.36C469.27,399,462.79,389.57,452.43,389.57Z"/><text class="cls-8" transform="translate(181.91 457.29)">Feed to Animals</text><circle class="cls-11" cx="291.92" cy="389.95" r="31.78"/><path class="cls-14" d="M286.56,389.9a2.58,2.58,0,0,1-1.83-4.4,2.58,2.58,0,1,1,1.83,4.4Zm0-3.44a.87.87,0,0,0-.8.53.87.87,0,0,0,1.13,1.13.86.86,0,0,0-.33-1.66Z"/><path class="cls-14" d="M297.28,389.9a2.58,2.58,0,0,1-2.58-2.58,2.58,2.58,0,0,1,4.41-1.82,2.58,2.58,0,0,1-1.83,4.4Zm0-3.44a.86.86,0,0,0-.61,1.47.86.86,0,1,0,.61-1.47Z"/><path class="cls-14" d="M315.69,388c-.94-4.74-4.2-9.83-7.28-11.35-2.44-1.21-5.68-1.21-7.64-1.07-.21-.23-.43-.44-.67-.66-2.11-1.95-5.34-2-7.49-2.05l-.72,0-.64,0c-2.14,0-5.39.11-7.51,2.06-.23.21-.44.43-.65.65a15.75,15.75,0,0,0-7.66,1.07c-3.08,1.52-6.34,6.61-7.28,11.35-.6,3.05-.16,5.53,1.27,7.16,1,1.17,3,1.76,5.73,1.76l.74,0a10.26,10.26,0,0,0,3.18,6.93c2.9,2.79,7.8,3.34,11.21,3.34.54,0,1,0,1.48,0h.32c3.3.15,9.33-.09,12.7-3.31h0a10.29,10.29,0,0,0,3.17-6.92l.74,0c2.77,0,4.7-.59,5.73-1.76,1.43-1.63,1.87-4.11,1.27-7.16Zm-45,6c-1.34-1.53-1.21-3.94-.87-5.69.83-4.2,3.74-8.85,6.35-10.14h0a12.89,12.89,0,0,1,5.59-.95,35.5,35.5,0,0,0-3.18,7.09l-.13.35c-1.63,4.43-2.45,6.66-2.6,9.54q0,.48,0,1c-2.54.08-4.39-.33-5.13-1.16Zm21.22,1.59h0a2.06,2.06,0,0,1-1.11-.69,3.07,3.07,0,0,1-.61-1.14,3,3,0,0,1,1.73-.38,1,1,0,1,1,1.12,1.52,2,2,0,0,1-1.11.69Zm11.65,7c-2,2-5.95,3-10.8,2.84V397.1a3.89,3.89,0,0,0,1.57-1.11,4.84,4.84,0,0,0,1.1-2.51.83.83,0,0,0-.26-.71,5.28,5.28,0,0,0-6.54,0,.86.86,0,0,0-.27.72,4.89,4.89,0,0,0,1.11,2.51,3.89,3.89,0,0,0,1.57,1.11v8.26c-4.86.13-8.77-.88-10.8-2.83-2.59-2.48-2.82-5.44-2.67-8.27.13-2.62.92-4.77,2.5-9l.13-.35c2-5.43,2.88-7.06,4.69-8.73,1.64-1.52,4.38-1.57,6.38-1.61l.6,0,.69,0c2,0,4.73.09,6.36,1.59,1.81,1.68,2.69,3.31,4.69,8.73l.12.34c1.58,4.27,2.37,6.42,2.51,9.05.14,2.83-.08,5.78-2.68,8.27Zm9.55-8.55c-.74.83-2.58,1.24-5.12,1.16l0-1c-.15-2.89-1-5.12-2.61-9.56l-.13-.33h0a35.92,35.92,0,0,0-3.16-7.08,12.83,12.83,0,0,1,5.57.95c2.61,1.29,5.52,5.94,6.35,10.14.34,1.75.47,4.16-.87,5.69Z"/><path class="cls-15" d="M415.38,524.12H168.46c-9,0-14.65,7-10.15,12.55l58.35,72.19c2.1,2.59,6,4.18,10.15,4.18H357c4.19,0,8.05-1.59,10.15-4.18l58.35-72.19C430,531.09,424.4,524.12,415.38,524.12Z"/><text class="cls-8" transform="translate(230.73 590.31)">Compost</text><circle class="cls-11" cx="291.92" cy="523.96" r="31.78"/><path class="cls-16" d="M310.72,535.84c0-.32-.07-.65-.11-1h0a47.58,47.58,0,0,1-.21-5.34,4.11,4.11,0,0,0-1.18-3,4.06,4.06,0,0,0-2.29-1.16,7.74,7.74,0,0,0-1.68-4.43,7.82,7.82,0,0,0-4-2.61,3,3,0,0,1-1.51-1,7.48,7.48,0,0,0-7.41-2.8v-3.39a2.23,2.23,0,0,0,1.37.51h1.83a4.1,4.1,0,0,0,4.1-4.1v-1.83a2.28,2.28,0,0,0-.67-1.61,2.24,2.24,0,0,0-1.61-.67h-1.82a4.13,4.13,0,0,0-4.11,4.11v1.1a4.09,4.09,0,0,0-3.19-1.56h-1.82a2.24,2.24,0,0,0-1.61.67,2.28,2.28,0,0,0-.67,1.61v1.82a4.1,4.1,0,0,0,4.1,4.11h1.82c.06,0,.1,0,.15,0h0A7.87,7.87,0,0,0,288,517a3.11,3.11,0,0,1-1.62,1,.47.47,0,0,0-.29.2.44.44,0,0,0-.06.35.48.48,0,0,0,.21.29.5.5,0,0,0,.36,0,4.16,4.16,0,0,0,2.09-1.29,6.76,6.76,0,0,1,10.42.29,3.81,3.81,0,0,0,2,1.33,6.83,6.83,0,0,1,5,6.1H277.83a6.83,6.83,0,0,1,6.79-6.38.46.46,0,0,0,0-.92,7.76,7.76,0,0,0-7.71,7.36,4.07,4.07,0,0,0-3.47,4.13,45.33,45.33,0,0,1-.22,5.34c0,.33-.06.66-.1,1h0a7.73,7.73,0,0,0,7.69,8.64H303a7.79,7.79,0,0,0,6.72-3.87.46.46,0,1,0-.8-.46,6.85,6.85,0,0,1-5.92,3.42H280.81A6.81,6.81,0,0,1,274,536c0-.17,0-.34.05-.51a91.81,91.81,0,0,0,35.68,0c0,.17,0,.34.05.51a6.74,6.74,0,0,1-.16,2.49.46.46,0,0,0,.33.55.47.47,0,0,0,.56-.32,8,8,0,0,0,.18-2.83Zm-18.35-28.29a3.21,3.21,0,0,1,3.2-3.2h1.82a1.38,1.38,0,0,1,1.37,1.37v1.83a3.21,3.21,0,0,1-3.19,3.19h-1.83a1.3,1.3,0,0,1-.58-.14l2.73-2.73h0a.46.46,0,0,0,0-.65.48.48,0,0,0-.65,0L292.52,510a1.47,1.47,0,0,1-.15-.58Zm-4.1,6.84a3.15,3.15,0,0,1-2.25-.94,3.19,3.19,0,0,1-.94-2.26v-1.82a1.37,1.37,0,0,1,.4-1,1.4,1.4,0,0,1,1-.4h1.82a3.19,3.19,0,0,1,3.19,3.19V513a1.3,1.3,0,0,1-.14.58l-2.73-2.73a.45.45,0,0,0-.64,0,.46.46,0,0,0,0,.65l2.73,2.73h0a1.32,1.32,0,0,1-.59.15Zm-14.11,20.14c.09-.94.14-1.87.17-2.82h15.76a.45.45,0,0,0,.46-.45.46.46,0,0,0-.46-.46H274.34c0-.43,0-.86,0-1.3a3.18,3.18,0,0,1,.92-2.31,3.15,3.15,0,0,1,2.27-1H306.3a3.19,3.19,0,0,1,3.19,3.26c0,.44,0,.87,0,1.3H291.92a.47.47,0,0,0-.46.46.46.46,0,0,0,.46.45h17.59c0,.94.08,1.88.17,2.82a92.29,92.29,0,0,1-35.52,0Z"/><path class="cls-17" d="M375.36,658.45H208.48c-12.17,0-19.78,9.09-13.69,16.37l83.44,99.72c6.08,7.28,21.3,7.28,27.38,0l83.44-99.72C395.14,667.54,387.53,658.45,375.36,658.45Z"/><text class="cls-18" transform="translate(244.98 724.28)">Landfill</text><circle class="cls-11" cx="291.92" cy="658.51" r="31.78"/><path class="cls-17" d="M283.65,671.09a.68.68,0,0,0-.82-.48,2.79,2.79,0,0,1-2.11-.28,2.71,2.71,0,0,1-1.29-1.67.67.67,0,0,0-.63-.51.65.65,0,0,0-.55.26.63.63,0,0,0-.12.59,4.12,4.12,0,0,0,5.05,2.91.68.68,0,0,0,.49-.65A.5.5,0,0,0,283.65,671.09Zm7.62-.33a4.11,4.11,0,0,0-3.41-3c-.21,0-.41,0-.61,0a4.58,4.58,0,0,0-1,.15h0a.69.69,0,0,0-.41.32.65.65,0,0,0-.07.51.71.71,0,0,0,.31.41.73.73,0,0,0,.52.07,2.76,2.76,0,0,1,3.4,2,.63.63,0,0,0,.31.42.69.69,0,0,0,.52.08.65.65,0,0,0,.41-.33A.63.63,0,0,0,291.27,670.76Zm5.35-1.27a.63.63,0,0,0-.36-.39,2.13,2.13,0,0,1-1.2-1.44,2.46,2.46,0,0,1,.42-2,.67.67,0,0,0,.12-.39.7.7,0,0,0-.07-.31.66.66,0,0,0-.61-.36.67.67,0,0,0-.55.3,3.79,3.79,0,0,0-.62,3,3.54,3.54,0,0,0,1.93,2.36.63.63,0,0,0,.3.07.54.54,0,0,0,.22,0,.65.65,0,0,0,.4-.34A.67.67,0,0,0,296.62,669.49Zm8.43-.37a.65.65,0,0,0-.55-.33.71.71,0,0,0-.64.39,2.08,2.08,0,0,1-1.44,1.2,2.42,2.42,0,0,1-2-.41.7.7,0,0,0-.38-.13l-.13,0a.66.66,0,0,0-.44.28.68.68,0,0,0-.1.5.62.62,0,0,0,.29.44,3.82,3.82,0,0,0,3,.62,3.51,3.51,0,0,0,2.34-1.93.58.58,0,0,0,.08-.31A.61.61,0,0,0,305.05,669.12Zm0,0a.65.65,0,0,0-.55-.33.71.71,0,0,0-.64.39,2.08,2.08,0,0,1-1.44,1.2,2.42,2.42,0,0,1-2-.41.7.7,0,0,0-.38-.13l-.13,0a.66.66,0,0,0-.44.28.68.68,0,0,0-.1.5.62.62,0,0,0,.29.44,3.82,3.82,0,0,0,3,.62,3.51,3.51,0,0,0,2.34-1.93.58.58,0,0,0,.08-.31A.61.61,0,0,0,305.05,669.12Zm-8.79,0a2.13,2.13,0,0,1-1.2-1.44,2.46,2.46,0,0,1,.42-2,.67.67,0,0,0,.12-.39.7.7,0,0,0-.07-.31.66.66,0,0,0-.61-.36.67.67,0,0,0-.55.3,3.79,3.79,0,0,0-.62,3,3.54,3.54,0,0,0,1.93,2.36.63.63,0,0,0,.3.07.54.54,0,0,0,.22,0,.65.65,0,0,0,.4-.34.67.67,0,0,0,0-.52A.63.63,0,0,0,296.26,669.1Zm-6.91-.84a4.12,4.12,0,0,0-1.49-.51c-.21,0-.41,0-.61,0a4.58,4.58,0,0,0-1,.15h0a.69.69,0,0,0-.41.32.65.65,0,0,0-.07.51.71.71,0,0,0,.31.41.73.73,0,0,0,.52.07,2.76,2.76,0,0,1,3.4,2,.63.63,0,0,0,.31.42.69.69,0,0,0,.52.08.65.65,0,0,0,.41-.33.63.63,0,0,0,.06-.52A4.13,4.13,0,0,0,289.35,668.26Zm-6.52,2.35a2.79,2.79,0,0,1-2.11-.28,2.71,2.71,0,0,1-1.29-1.67.67.67,0,0,0-.63-.51.65.65,0,0,0-.55.26.63.63,0,0,0-.12.59,4.12,4.12,0,0,0,5.05,2.91.68.68,0,0,0,.49-.65.5.5,0,0,0,0-.17A.68.68,0,0,0,282.83,670.61Zm29.49,2.59h-3a5.63,5.63,0,0,0-4.82-8.48h-.13a6.44,6.44,0,0,0,.16-1.39,6.08,6.08,0,0,0-.12-1.19,6,6,0,0,0-.25-.92c.18-.12.35-.22.51-.35a5.35,5.35,0,0,0,1.9-2.85c.62-2,.51-4.07,1.88-5.74a.7.7,0,0,0,.16-.44.51.51,0,0,0,0-.17.67.67,0,0,0-.43-.45,5.84,5.84,0,0,0-1.75-.31H306a8.5,8.5,0,0,0-5.23,2,6.88,6.88,0,0,0-2.36,4.2h-.09c-.21,0-.42,0-.62,0a.2.2,0,0,0,0-.08,5.68,5.68,0,0,0-3.48-2.7,5.82,5.82,0,0,0-2.2-.16,5.61,5.61,0,0,0-2.16.74,5.79,5.79,0,0,0-2.61,3.31,7,7,0,0,0-1.83-.36,5,5,0,0,0-1.68-2.28c-1.52-1.22-3.23-1.79-4.16-3.46a.66.66,0,0,0-.59-.35h0a.68.68,0,0,0-.49.24,7.2,7.2,0,0,0-1,6.76,6.37,6.37,0,0,0,1.42,2.35,7.28,7.28,0,0,0-.66,1.23,7.91,7.91,0,0,0-.43,1.38c-.06.34-.1.67-.13,1a5.75,5.75,0,0,0-2.15,1.36,5.83,5.83,0,0,0-1.67,4.09,5.77,5.77,0,0,0,.8,3h-3.08a.68.68,0,0,0,0,1.35h40.8a.68.68,0,0,0,0-1.35Zm-10.67-19.26a7.44,7.44,0,0,1,4.69-1.66,2.33,2.33,0,0,1,.46.08c-1.06,1.84-1.11,3.8-1.56,5.27a4,4,0,0,1-1.44,2.18,7.6,7.6,0,0,1-2.93,1.16c.09-.13.18-.25.28-.37a15,15,0,0,0,3-5,.55.55,0,0,0,0-.18.66.66,0,0,0-.13-.4.63.63,0,0,0-.51-.28.67.67,0,0,0-.68.51,14.36,14.36,0,0,1-2.72,4.49l-.16.21A5.68,5.68,0,0,1,301.65,653.94Zm-23,4.45a6.51,6.51,0,0,1,.33-4.7c1.2,1.46,2.79,2.15,3.85,3a3.5,3.5,0,0,1,1.32,1.89,6.64,6.64,0,0,1,0,2.63l-.13-.19a13.2,13.2,0,0,0-3.18-4.14.68.68,0,0,0-.42-.14h0a.68.68,0,0,0-.35,1.22,13,13,0,0,1,2.83,3.75.22.22,0,0,0,.05.08A5,5,0,0,1,278.69,658.39Zm28.94,14.81H276.25a4.46,4.46,0,0,1,.19-6.09,4.33,4.33,0,0,1,3.09-1.3,4.38,4.38,0,0,1,3.11,1.3.65.65,0,0,0,.48.21.66.66,0,0,0,.48-.19.7.7,0,0,0,.2-.49.67.67,0,0,0-.2-.48,5.7,5.7,0,0,0-4.07-1.69,4.52,4.52,0,0,0-.52,0c0-.15,0-.3.07-.44a5.94,5.94,0,0,1,.35-1.13,6.62,6.62,0,0,1,.45-.88,8,8,0,0,0,4.08,1.25,5.54,5.54,0,0,0,2.39,2,.8.8,0,0,0,.26.05.86.86,0,0,0,.27-.05.68.68,0,0,0,0-1.26,3.91,3.91,0,0,1-1.54-1.23h0a11.26,11.26,0,0,0,.36-3.49,5.82,5.82,0,0,1,3.43,1.7,6,6,0,0,1,1.74,4.25,6.08,6.08,0,0,1-.12,1.22.41.41,0,0,0,0,.16.63.63,0,0,0,.11.35.7.7,0,0,0,.43.31.72.72,0,0,0,.52-.11.7.7,0,0,0,.28-.45,7.21,7.21,0,0,0,.15-1.48,7.36,7.36,0,0,0-2.13-5.2,7.06,7.06,0,0,0-1.6-1.22h0a4.31,4.31,0,0,1,2-2.69,4.24,4.24,0,0,1,2.28-.6h0a4.08,4.08,0,0,1,1,.15,4.28,4.28,0,0,1,2.49,1.79A6.14,6.14,0,0,0,294,659a.67.67,0,0,0-.21.48.7.7,0,0,0,.2.49.71.71,0,0,0,.49.19.66.66,0,0,0,.48-.22,4.75,4.75,0,0,1,3.4-1.42,9.53,9.53,0,0,0,.55,3,6.21,6.21,0,0,0-1.09,3.28h0a.63.63,0,0,0,.2.47.65.65,0,0,0,.47.2.64.64,0,0,0,.48-.2.67.67,0,0,0,.2-.48,4.34,4.34,0,0,1,.67-2.16h.06a13.8,13.8,0,0,0,3-.74,5.47,5.47,0,0,1,.15.58,4.87,4.87,0,0,1,.08.93,4.71,4.71,0,0,1-.27,1.62,5.52,5.52,0,0,0-2.37,1.42.73.73,0,0,0-.21.48.68.68,0,0,0,.2.49.7.7,0,0,0,.49.2.72.72,0,0,0,.48-.22,4.2,4.2,0,0,1,6,0,4.33,4.33,0,0,1,.17,5.88Zm-3.13-4.41a.71.71,0,0,0-.64.39,2.08,2.08,0,0,1-1.44,1.2,2.42,2.42,0,0,1-2-.41.7.7,0,0,0-.38-.13l-.13,0a.66.66,0,0,0-.44.28.68.68,0,0,0-.1.5.62.62,0,0,0,.29.44,3.82,3.82,0,0,0,3,.62,3.51,3.51,0,0,0,2.34-1.93.58.58,0,0,0,.08-.31.61.61,0,0,0-.1-.34A.65.65,0,0,0,304.5,668.79Zm-8.24.31a2.13,2.13,0,0,1-1.2-1.44,2.46,2.46,0,0,1,.42-2,.67.67,0,0,0,.12-.39.7.7,0,0,0-.07-.31.66.66,0,0,0-.61-.36.67.67,0,0,0-.55.3,3.79,3.79,0,0,0-.62,3,3.54,3.54,0,0,0,1.93,2.36.63.63,0,0,0,.3.07.54.54,0,0,0,.22,0,.65.65,0,0,0,.4-.34.67.67,0,0,0,0-.52A.63.63,0,0,0,296.26,669.1Zm-6.91-.84a4.12,4.12,0,0,0-1.49-.51c-.21,0-.41,0-.61,0a4.58,4.58,0,0,0-1,.15h0a.69.69,0,0,0-.41.32.65.65,0,0,0-.07.51.71.71,0,0,0,.31.41.73.73,0,0,0,.52.07,2.76,2.76,0,0,1,3.4,2,.63.63,0,0,0,.31.42.69.69,0,0,0,.52.08.65.65,0,0,0,.41-.33.63.63,0,0,0,.06-.52A4.13,4.13,0,0,0,289.35,668.26Zm-6.52,2.35a2.79,2.79,0,0,1-2.11-.28,2.71,2.71,0,0,1-1.29-1.67.67.67,0,0,0-.63-.51.65.65,0,0,0-.55.26.63.63,0,0,0-.12.59,4.12,4.12,0,0,0,5.05,2.91.68.68,0,0,0,.49-.65.5.5,0,0,0,0-.17A.68.68,0,0,0,282.83,670.61Zm.82.48a.68.68,0,0,0-.82-.48,2.79,2.79,0,0,1-2.11-.28,2.71,2.71,0,0,1-1.29-1.67.67.67,0,0,0-.63-.51.65.65,0,0,0-.55.26.63.63,0,0,0-.12.59,4.12,4.12,0,0,0,5.05,2.91.68.68,0,0,0,.49-.65A.5.5,0,0,0,283.65,671.09Zm7.62-.33a4.11,4.11,0,0,0-3.41-3c-.21,0-.41,0-.61,0a4.58,4.58,0,0,0-1,.15h0a.69.69,0,0,0-.41.32.65.65,0,0,0-.07.51.71.71,0,0,0,.31.41.73.73,0,0,0,.52.07,2.76,2.76,0,0,1,3.4,2,.63.63,0,0,0,.31.42.69.69,0,0,0,.52.08.65.65,0,0,0,.41-.33A.63.63,0,0,0,291.27,670.76Zm5.35-1.27a.63.63,0,0,0-.36-.39,2.13,2.13,0,0,1-1.2-1.44,2.46,2.46,0,0,1,.42-2,.67.67,0,0,0,.12-.39.7.7,0,0,0-.07-.31.66.66,0,0,0-.61-.36.67.67,0,0,0-.55.3,3.79,3.79,0,0,0-.62,3,3.54,3.54,0,0,0,1.93,2.36.63.63,0,0,0,.3.07.54.54,0,0,0,.22,0,.65.65,0,0,0,.4-.34A.67.67,0,0,0,296.62,669.49Zm8.43-.37a.65.65,0,0,0-.55-.33.71.71,0,0,0-.64.39,2.08,2.08,0,0,1-1.44,1.2,2.42,2.42,0,0,1-2-.41.7.7,0,0,0-.38-.13l-.13,0a.66.66,0,0,0-.44.28.68.68,0,0,0-.1.5.62.62,0,0,0,.29.44,3.82,3.82,0,0,0,3,.62,3.51,3.51,0,0,0,2.34-1.93.58.58,0,0,0,.08-.31A.61.61,0,0,0,305.05,669.12Zm-8.43.37a.63.63,0,0,0-.36-.39,2.13,2.13,0,0,1-1.2-1.44,2.46,2.46,0,0,1,.42-2,.67.67,0,0,0,.12-.39.7.7,0,0,0-.07-.31.66.66,0,0,0-.61-.36.67.67,0,0,0-.55.3,3.79,3.79,0,0,0-.62,3,3.54,3.54,0,0,0,1.93,2.36.63.63,0,0,0,.3.07.54.54,0,0,0,.22,0,.65.65,0,0,0,.4-.34A.67.67,0,0,0,296.62,669.49Zm-5.35,1.27a4.11,4.11,0,0,0-3.41-3c-.21,0-.41,0-.61,0a4.58,4.58,0,0,0-1,.15h0a.69.69,0,0,0-.41.32.65.65,0,0,0-.07.51.71.71,0,0,0,.31.41.73.73,0,0,0,.52.07,2.76,2.76,0,0,1,3.4,2,.63.63,0,0,0,.31.42.69.69,0,0,0,.52.08.65.65,0,0,0,.41-.33A.63.63,0,0,0,291.27,670.76Zm-7.62.33a.68.68,0,0,0-.82-.48,2.79,2.79,0,0,1-2.11-.28,2.71,2.71,0,0,1-1.29-1.67.67.67,0,0,0-.63-.51.65.65,0,0,0-.55.26.63.63,0,0,0-.12.59,4.12,4.12,0,0,0,5.05,2.91.68.68,0,0,0,.49-.65A.5.5,0,0,0,283.65,671.09Zm21.4-2a.65.65,0,0,0-.55-.33.71.71,0,0,0-.64.39,2.08,2.08,0,0,1-1.44,1.2,2.42,2.42,0,0,1-2-.41.7.7,0,0,0-.38-.13l-.13,0a.66.66,0,0,0-.44.28.68.68,0,0,0-.1.5.62.62,0,0,0,.29.44,3.82,3.82,0,0,0,3,.62,3.51,3.51,0,0,0,2.34-1.93.58.58,0,0,0,.08-.31A.61.61,0,0,0,305.05,669.12Z"/><text class="cls-19" transform="matrix(0.24, 0.97, -0.97, 0.24, 3.35, 151.45)">Mo<tspan class="cls-20" x="30.57" y="0">s</tspan><tspan class="cls-21" x="40.36" y="0">t P</tspan><tspan class="cls-22" x="67.85" y="0">r</tspan><tspan x="75.35" y="0">e</tspan><tspan class="cls-20" x="87.14" y="0">f</tspan><tspan class="cls-21" x="94.16" y="0">er</tspan><tspan class="cls-22" x="113.96" y="0">r</tspan><tspan class="cls-21" x="121.46" y="0">ed</tspan></text><text class="cls-23" transform="matrix(0.26, 0.97, -0.97, 0.26, 109.46, 581.71)">L<tspan class="cls-24" x="12.3" y="0">ea</tspan><tspan class="cls-25" x="35.68" y="0">s</tspan><tspan class="cls-26" x="45.48" y="0">t P</tspan><tspan class="cls-27" x="72.96" y="0">r</tspan><tspan class="cls-26" x="80.46" y="0">e</tspan><tspan class="cls-25" x="92.25" y="0">f</tspan><tspan class="cls-26" x="99.28" y="0">er</tspan><tspan class="cls-27" x="119.08" y="0">r</tspan><tspan class="cls-24" x="126.58" y="0">ed</tspan></text><line class="cls-28" x1="14.85" y1="82.58" x2="198.87" y2="777.68"/><path class="cls-9" d="M186.09,766.92a1,1,0,0,1,1.41-.06l11.25,10.37,4.64-14.57a1,1,0,0,1,1.91.6l-5.12,16.08a1,1,0,0,1-.7.66,1,1,0,0,1-.93-.23l-12.4-11.44a.9.9,0,0,1-.29-.48A1,1,0,0,1,186.09,766.92Z"/></svg>