<?xml version="1.0" encoding="UTF-8"?>
<svg id="Layer_2" data-name="Layer 2" xmlns="http://www.w3.org/2000/svg" viewBox="0 0 216 146">
  <defs>
    <style>
      .cls-1 {
        fill: #003b7e;
      }

      .cls-2 {
        fill: #ffe500;
      }

      .cls-3 {
        fill: #f2f2f2;
      }
    </style>
  </defs>
  <g id="Layer_1-2" data-name="Layer 1">
    <g>
      <rect class="cls-3" y="24.5" width="216" height="101"/>
      <circle class="cls-2" cx="108" cy="73" r="73"/>
      <g>
        <path class="cls-1" d="M146.79,104.49h-5.82V60.12h5.09c.73,0,1.21-.48,1.21-1.21,0-.48-.24-.97-.73-1.09l-37.94-24.61c-.36-.24-.97-.24-1.33,0l-38.06,24.73c-.48,.24-.61,.85-.48,1.33,.12,.48,.61,.85,1.21,.85h5.09v44.36h-5.82c-.73,0-1.21,.48-1.21,1.21v6.06c0,.73,.48,1.21,1.21,1.21h77.58c.73,0,1.21-.48,1.21-1.21v-6.06c0-.61-.48-1.21-1.21-1.21h0ZM107.88,35.64l34.06,22.06H73.94l33.94-22.06Zm-30.42,24.49h60.97v44.36s-6.18,0-6.18,0v-28.97c0-.73-.48-1.21-1.21-1.21h-8.24c-.73-1.45-1.7-2.79-2.91-4-5.94-5.94-15.76-6.06-21.82,0-.24,.24-.48,.48-.61,.73h-14.91c-.73,0-1.21,.48-1.21,1.21v16.12c0,.73,.48,1.21,1.21,1.21h13.21l-3.52,3.39c-.48-.48-1.21-.48-1.7,0l-9.09,9.09c-.61,.61-1.09,1.45-1.33,2.55h-2.67V60.12Zm14.67,44.36l4.97-4.97c.48-.48,.48-1.21,0-1.7l3.52-3.52,.12,.12c2.67,1.58,5.7,2.42,8.97,2.3v7.76h-17.58Zm-8.97-.73l8.24-8.24,3.15,3.15c-.12,.12-8.36,8.36-8.24,8.24-.85,.85-2.3,.85-3.15,0-.85-.85-.85-2.3,0-3.15Zm11.51-16.61h-10.91v-13.7h11.88c-2.42,4.12-2.79,9.21-.97,13.58v.12h0Zm23.52-15.15c4.97,4.97,5.21,13.21,0,18.42-4.73,4.73-11.88,4.97-16.97,1.33-6.55-4.85-7.03-14.18-1.45-19.76,5.09-5.09,13.33-5.09,18.42,0h0Zm-20.85,19.39c.36,.48,.85,.97,1.33,1.33l-3.27,3.27-1.33-1.33,3.27-3.27Zm14.91,4.85c2.67-.61,5.45-1.94,7.64-4.12,4-4,5.58-9.94,3.88-15.39h6.06v27.76h-17.58v-8.24Zm33.33,14.3H70.42v-3.64h10.06c.12,.48,.61,1.21,1.09,1.7,1.82,1.82,4.73,1.82,6.55,0l1.7-1.7h55.88v3.64h-.12Z"/>
        <path class="cls-1" d="M125.58,90.06c-1.09,0-1.94,.85-1.94,1.94s.85,1.94,1.94,1.94,1.94-.85,1.94-1.94c0-1.09-.85-1.94-1.94-1.94Zm0,2.42c-.24,0-.48-.24-.48-.48s.24-.48,.48-.48,.48,.24,.48,.48c0,.24-.24,.48-.48,.48Z"/>
      </g>
    </g>
  </g>
</svg>