<?xml version="1.0" encoding="UTF-8"?>
<svg id="Layer_2" data-name="Layer 2" xmlns="http://www.w3.org/2000/svg" viewBox="0 0 216 146">
  <defs>
    <style>
      .cls-1 {
        fill: #003b7e;
      }

      .cls-2 {
        fill: #ffe500;
      }

      .cls-3 {
        fill: #f2f2f2;
      }
    </style>
  </defs>
  <g id="Layer_1-2" data-name="Layer 1">
    <g>
      <rect class="cls-3" y="24.5" width="216" height="101"/>
      <circle class="cls-2" cx="108" cy="73" r="73"/>
      <path class="cls-1" d="M146.46,35.38c-7.8,.31-15.43,4.12-20.73,11.17-6.06,8.06-7.74,18.48-5.41,27.91-2.83,6.63-4.68,13.24-4.78,18.93-.58,.2-2.46,.87-2.55,.9l-16.89-4.23c1.02-.43,2.29-.8,3.68-1.1,2.8-.6,6.17-.9,9.49-.9,2.76,0,5.02-2.26,5.02-5.02s-2.26-5.02-5.02-5.02h-17.56c-4.27,0-6.73,1.35-8.54,2.63-1.49,1.05-2.47,1.91-4,2.23v-6.11c0-.69-.56-1.25-1.25-1.25h-12.54c-.08,0-.16,0-.24,0-.6,.11-1.03,.64-1.02,1.25v32.61c0,.69,.56,1.25,1.25,1.25h12.54c.69,0,1.25-.56,1.25-1.25v-6.11c1.53,.33,2.51,1.18,4,2.23,1.81,1.28,4.27,2.63,8.54,2.63h22.58c.15,0,.29-.03,.43-.08l24.1-9.64c.08-.02,.16-.04,.24-.08,1.69-1.12,2.82-3.08,2.82-5.25,0-3.45-2.82-6.27-6.27-6.27-.7,0-1.36,.1-2,.31-.15,.05-1.43,.53-3.41,1.22-1.98,.68-4.57,1.57-7.17,2.47-2.48,.86-3.11,1.09-4.94,1.72,.27-5,1.98-10.99,4.55-17.05,8.54,.35,17.06-3.47,22.85-11.17,6.06-8.06,7.74-18.48,5.41-27.91-.13-.51-.57-.89-1.1-.94-1.12-.1-2.22-.12-3.33-.08h0Zm.71,2.63c.49,0,.96-.02,1.45,0,1.81,8.47,.23,17.68-5.13,24.81-5.08,6.76-12.34,10.07-19.71,10.07,.84-1.81,1.73-3.64,2.7-5.41,4.99-9.06,11.58-17.23,17.36-21.05,.48-.3,.69-.89,.53-1.43-.16-.54-.67-.9-1.23-.89-.25,0-.5,.09-.71,.24-6.41,4.23-13.02,12.6-18.15,21.91-.75,1.35-1.44,2.73-2.12,4.12-1.03-7.75,.72-15.9,5.57-22.34,5.02-6.67,12.16-9.95,19.44-10.03h0Zm-80.54,40.02h10.03v30.1h-10.03v-30.1Zm25.08,2.51h17.56c1.4,0,2.51,1.11,2.51,2.51s-1.11,2.51-2.51,2.51c-3.47,0-7,.33-10.03,.98-3.03,.65-5.58,1.54-7.17,3.14-.33,.32-.45,.79-.33,1.23s.47,.78,.92,.88l20.07,5.02c.23,.05,.48,.04,.71-.04,0,0,5.18-1.8,10.39-3.61,2.6-.9,5.24-1.78,7.21-2.47,1.98-.69,3.39-1.18,3.37-1.18,.38-.13,.79-.2,1.22-.2,2.09,0,3.76,1.67,3.76,3.76,0,1.28-.67,2.38-1.65,3.06l-23.67,9.49h-22.34c-3.77,0-5.47-1.02-7.13-2.2-1.47-1.04-3.01-2.32-5.41-2.7v-15.29c2.4-.38,3.94-1.67,5.41-2.71,1.66-1.17,3.36-2.19,7.13-2.19h0Z"/>
    </g>
  </g>
</svg>