<?xml version="1.0" encoding="UTF-8"?>
<svg id="Layer_2" data-name="Layer 2" xmlns="http://www.w3.org/2000/svg" viewBox="0 0 96.99 96.99">
  <defs>
    <style>
      .cls-1 {
        fill: #003b7e;
      }

      .cls-2 {
        fill: #ffe500;
      }
    </style>
  </defs>
  <g id="Layer_1-2" data-name="Layer 1">
    <g>
      <circle class="cls-2" cx="48.49" cy="48.49" r="48.49"/>
      <path class="cls-1" d="M58.41,27.34c-.21,0-.4,.11-.52,.28-.12,.17-.16,.38-.1,.58l1.51,5.19c-.9,.35-1.54,1.22-1.54,2.23,0,.56,.2,1.08,.53,1.49-.12,.08-.24,.16-.35,.24-.61,.43-1.17,.91-1.69,1.45-2.07,2.14-3.36,5.08-3.63,8.31l-.3,3.64c-.29-.25-.61-.47-.95-.67-.8-.46-1.65-.74-2.51-.84-1.94-.24-3.91,.39-5.36,1.73-.36-3.1-2.43-6.59-7.15-9.66h0c-.11-.07-.25-.11-.38-.11-.24,0-.45,.14-.57,.34-.12,.21-.11,.46,0,.66,.79,1.35,.89,2.55,.68,3.8-.21,1.25-.77,2.53-1.32,3.86-.14,.35-.29,.7-.42,1.06-1.03-.51-2.19-.77-3.38-.7-.44,.04-.89,.1-1.33,.22-3.25,.87-5.29,4.02-4.89,7.28-.05,0-.1,0-.15,0-3.68,0-6.67,3-6.67,6.69,0,1.45,.46,2.8,1.25,3.9h-2.11c-.18,0-.36,.06-.49,.19-.13,.13-.2,.3-.2,.48s.07,.35,.2,.48c.13,.13,.31,.19,.49,.19h62.82c.18,0,.36-.06,.49-.19,.13-.13,.2-.3,.2-.48s-.07-.35-.2-.48c-.13-.13-.31-.19-.49-.19h-1.98l-1.69-21.19c-.26-3.23-1.56-6.17-3.63-8.32-.52-.54-1.08-1.02-1.69-1.45-.12-.08-.23-.16-.35-.24,.33-.41,.53-.93,.53-1.49,0-1.01-.64-1.88-1.54-2.23l1.51-5.19h0c.07-.26,0-.53-.21-.7-.2-.17-.49-.2-.73-.09,0,0-.46,.23-1.05,.46-.59,.23-1.33,.44-1.65,.44s-.71-.17-1.2-.42c-.49-.24-1.07-.56-1.8-.56s-1.31,.32-1.8,.56c-.49,.25-.88,.42-1.2,.42s-1.06-.21-1.65-.44c-.59-.23-1.05-.46-1.05-.46-.1-.05-.21-.07-.32-.07h0Zm6.02,1.33c.32,0,.71,.17,1.2,.42,.49,.24,1.07,.56,1.8,.56,.67,0,1.35-.24,1.96-.47l-1.18,4.05h-7.57l-1.18-4.05c.61,.24,1.29,.47,1.96,.47,.73,0,1.31-.32,1.8-.56,.49-.24,.88-.42,1.2-.42h0Zm-21.25,3.83c-1.56-.04-3.03,.6-3.88,1.83-.26-.09-.53-.16-.81-.19-1.45-.19-2.93,.46-3.71,1.77h0c-.1,.15-.13,.34-.08,.52,.04,.18,.15,.33,.31,.42,.16,.09,.34,.12,.52,.07,.17-.05,.32-.16,.41-.32,.6-1.02,1.9-1.42,3.02-.95,.23,1.37,.84,2.38,1.64,3.1,.87,.78,1.92,1.24,2.92,1.66,1.01,.42,1.97,.8,2.73,1.34,.76,.54,1.31,1.2,1.6,2.31h0c.08,.3,.36,.51,.67,.49s.57-.23,.63-.54c1.21-5.71-.62-9.28-3.19-10.75-.64-.36-1.33-.6-2.01-.71-.26-.04-.51-.06-.77-.07h0Zm.04,1.35c.18,0,.36,.04,.55,.05,.51,.08,1.04,.26,1.54,.55,1.71,.97,3.06,3.28,2.75,7.22-.32-.38-.65-.74-1.03-1.01-.94-.67-2.01-1.08-2.99-1.49-.99-.41-1.89-.82-2.54-1.41-.61-.55-1.03-1.28-1.2-2.41,.55-.97,1.67-1.53,2.92-1.5h0Zm16.93,.73h8.57c.59,0,1.05,.46,1.05,1.05s-.46,1.05-1.05,1.05h-8.57c-.59,0-1.05-.46-1.05-1.05s.46-1.05,1.05-1.05Zm-.61,3.36c.2,.05,.4,.08,.61,.08h8.57c.21,0,.42-.04,.61-.08,.28,.16,.56,.33,.83,.52,.54,.38,1.04,.81,1.5,1.28,1.84,1.9,3.02,4.55,3.26,7.49l1.68,21.08h-13c.17-1.1-.02-2.27-.62-3.31-.54-.92-1.32-1.61-2.22-2.03,.49-.56,.86-1.24,1.06-1.98,.83,.27,1.71,.42,2.63,.42,2.31,0,4.41-.94,5.93-2.46,1.52-1.52,2.45-3.63,2.45-5.94h0c0-.18-.07-.35-.2-.48-.13-.13-.3-.2-.48-.2-.37,0-.66,.31-.66,.68,0,1.96-.79,3.72-2.06,5-1.28,1.28-3.03,2.07-4.98,2.07-.86,0-1.69-.16-2.45-.44-.03-2.72-2.24-4.93-4.96-4.93-.85,0-1.65,.21-2.35,.59-.1-1.14-.48-2.24-1.12-3.19l.41-4.89c.25-2.94,1.42-5.59,3.26-7.5,.46-.48,.96-.91,1.5-1.28,.27-.19,.54-.36,.83-.52h0Zm-32.2,.13c-.24,0-.47,0-.7,.04-1.83,.14-3.28,.85-4.28,1.87-1.83,1.86-2.18,4.73-.68,6.5-.97,1.42-.87,3.37,.35,4.62h0c.12,.13,.29,.21,.47,.22,.18,0,.36-.06,.49-.19,.13-.13,.2-.3,.2-.48s-.08-.35-.21-.48c-.79-.8-.84-2.09-.14-3.02,1.33,.13,2.43-.19,3.29-.75,.95-.62,1.63-1.48,2.27-2.32,.64-.83,1.24-1.64,1.92-2.21,.69-.57,1.43-.92,2.53-.9h0c.31,0,.58-.21,.66-.51,.07-.3-.07-.61-.34-.75-2.2-1.12-4.16-1.6-5.84-1.61v-.02Zm-.16,1.31c1,0,2.18,.3,3.46,.75-.42,.2-.82,.41-1.16,.68-.86,.71-1.51,1.61-2.13,2.42-.63,.82-1.23,1.55-1.94,2.01-.66,.43-1.43,.63-2.51,.51-1.17-1.16-1.08-3.34,.41-4.86,.78-.79,1.92-1.39,3.45-1.5h.42Zm10.21,4.33c4.51,3.58,5.36,7.3,4.61,10.02-.82,2.97-3.53,4.71-5.86,4.01-.96-1.28-1.27-2.42-1.2-3.58,.07-1.22,.54-2.47,1.08-3.78,.54-1.31,1.15-2.67,1.4-4.15,.14-.81,.14-1.66-.03-2.52h0Zm27.05,.89c-2.31,0-4.41,.94-5.93,2.46-1.52,1.52-2.45,3.63-2.45,5.94h0c0,.18,.07,.35,.19,.48,.13,.13,.3,.2,.48,.2s.35-.07,.47-.2c.13-.13,.2-.3,.19-.48,0-1.96,.79-3.72,2.06-5,1.28-1.28,3.03-2.07,4.98-2.07s3.7,.79,4.98,2.07c0,0,0,0,0,0h-.77c-.18,0-.36,.06-.49,.19-.13,.13-.2,.3-.2,.48s.07,.35,.2,.48c.13,.13,.31,.19,.49,.19h2.05c.22,.05,.44-.02,.6-.17,.16-.15,.23-.37,.2-.59v-2.09c0-.18-.07-.35-.2-.48-.13-.13-.3-.2-.48-.2-.37,0-.66,.31-.66,.68v.37c-1.5-1.41-3.52-2.27-5.73-2.27h0Zm-.02,3.6h0c-.21,0-.41,.11-.53,.29,0,0-.54,.79-1.08,1.87-.54,1.08-1.1,2.46-1.1,3.8,0,2.69,2.51,3.64,2.51,3.64,.14,.05,.3,.05,.44,0,0,0,2.51-.95,2.51-3.64,0-1.35-.56-2.72-1.1-3.8-.54-1.08-1.08-1.87-1.08-1.87-.13-.19-.34-.3-.57-.29h0Zm.02,2.01c.17,.29,.21,.31,.43,.75,.49,.99,.96,2.26,.96,3.21,0,1.63-1.06,2.12-1.39,2.24-.33-.13-1.39-.61-1.39-2.24,0-.95,.47-2.22,.96-3.21,.22-.43,.26-.46,.43-.75h0Zm-16.51,.32c.94,0,1.9,.21,2.78,.72,.63,.37,1.16,.84,1.58,1.39h0s.06,.09,.09,.13c.76,1.07,1.11,2.38,.97,3.69h0c-.02,.08-.04,.16-.03,.24-.1,.64-.31,1.27-.65,1.86-.18,.32-.07,.72,.25,.9,.32,.18,.72,.08,.91-.24,.41-.71,.67-1.47,.8-2.25,.64-.57,1.48-.92,2.41-.92,2.01,0,3.62,1.62,3.62,3.64,0,1.01-.41,1.91-1.06,2.57h0c-.08,.08-.14,.18-.17,.29-.49-.08-.99-.1-1.48-.04-.66,.08-1.31,.29-1.91,.64-.16,.08-.28,.23-.33,.4-.05,.17-.03,.36,.06,.52,.09,.16,.24,.27,.42,.32,.18,.04,.36,.02,.52-.08,1.8-1.03,4.09-.42,5.13,1.36,.48,.83,.61,1.77,.42,2.63H20.93s-.06-.08-.09-.11c-.97-.97-1.56-2.3-1.56-3.78,0-2.96,2.38-5.35,5.33-5.35,.25,0,.49,0,.73,.05h0c.09,.04,.19,.05,.29,.05,1.06,.21,2.01,.73,2.75,1.47,.26,.26,.68,.26,.94,0,.26-.26,.26-.68,0-.94-.86-.86-1.96-1.49-3.19-1.78-.52-2.73,1.14-5.43,3.86-6.16,1.38-.37,2.77-.16,3.93,.47-.17,.6-.29,1.22-.33,1.87-.08,1.5,.34,3.1,1.6,4.68h0c.08,.1,.18,.17,.3,.21,3.23,1.16,6.77-1.23,7.78-4.9,.09-.32,.16-.65,.2-.99,.98-1.62,2.68-2.54,4.44-2.58h0Zm-1.13,7.67h0c-.37,0-.66,.32-.65,.68,.02,2.26,1.81,4.13,4.02,4.15h0c.18,0,.35-.07,.48-.19s.2-.29,.2-.47c0-.18-.07-.35-.19-.48-.12-.13-.3-.2-.47-.2-1.46,0-2.68-1.27-2.7-2.83,0-.18-.07-.35-.2-.48-.13-.13-.3-.2-.48-.19h0Zm-5.86,2.43h0c-.24,0-.47,.13-.59,.35-1.11,1.97-.49,4.48,1.41,5.61,.15,.1,.34,.13,.51,.09,.18-.04,.33-.15,.42-.31,.09-.16,.12-.34,.07-.52s-.16-.32-.32-.41c-1.26-.75-1.69-2.45-.93-3.8,.12-.21,.12-.46,0-.67-.12-.21-.34-.33-.58-.33h0Zm-8.33,.85h0c-.37,0-.67,.3-.67,.67-.01,1.47-1.26,2.7-2.82,2.71h0c-.18,0-.36,.06-.49,.19-.13,.13-.2,.3-.2,.48,0,.18,.08,.36,.21,.48,.13,.12,.31,.19,.49,.18,2.25-.04,4.12-1.82,4.14-4.03h0c0-.18-.06-.36-.19-.48-.13-.13-.3-.2-.48-.2h0Z"/>
    </g>
  </g>
</svg>