<?xml version="1.0" encoding="UTF-8"?>
<svg id="Layer_2" data-name="Layer 2" xmlns="http://www.w3.org/2000/svg" viewBox="0 0 216 146">
  <defs>
    <style>
      .cls-1 {
        fill: #003b7e;
      }

      .cls-2 {
        fill: #ffe500;
      }

      .cls-3 {
        fill: #f2f2f2;
      }
    </style>
  </defs>
  <g id="Layer_1-2" data-name="Layer 1">
    <g>
      <g>
        <rect class="cls-3" y="24.26" width="216" height="101"/>
        <circle class="cls-2" cx="108.5" cy="73" r="73"/>
      </g>
      <path class="cls-1" d="M159.46,60.26c-6.94,2.74-12.42,8.71-14.52,11.13-.48,.48-.97,.48-1.29,.48-.48,0-.81-.16-1.13-.48l-13.39-19.36c-.16-.16-.16-.48-.16-.81,.16-.48,.48-1.13,1.13-1.45,.48-.32,1.29-.65,2.26-1.13,1.29-.65,2.9-1.29,4.84-2.26l-1.13-2.1c-1.77,.97-3.39,1.61-4.68,2.26-1.13,.48-1.94,.97-2.58,1.29-1.13,.81-2.1,1.77-2.26,3.07v.97h-22.91s-14.36,0-14.36,0v-.97c-.32-1.13-1.13-2.26-2.26-3.07-.65-.32-1.45-.81-2.58-1.29-1.45-.65-3.23-1.45-5.48-2.58l-1.45,2.1c2.26,1.29,4.19,2.1,5.65,2.74,.97,.48,1.94,.81,2.26,1.13,.65,.32,1.13,.97,1.13,1.45,0,.32,0,.48-.16,.81l-13.39,19.36c-.16,.32-.65,.48-1.13,.48-.32,0-.81,0-1.29-.48-2.1-2.42-7.58-8.39-14.52-11.13l-.48,2.1c6.61,2.74,12.1,8.71,13.55,10.49,.81,.97,1.77,1.45,3.07,1.45h.16c1.13,0,2.1-.48,2.74-1.29,.81,.81,2.1,1.94,2.58,3.07,.16,.48,.32,.65,.48,.97,0,.16,.16,.32,.16,.48-.48,.32-.97,.65-1.29,1.13-1.77,2.26-1.29,5.65,1.13,7.26l.16,.16c.97,.65,1.94,.97,3.07,.97,.32,0,.65,0,.97-.16v.81c.16,1.45,.97,2.74,2.1,3.55,.97,.65,2.1,1.13,3.23,1.13,.48,0,.97,0,1.29-.16v.48c.16,1.45,.97,2.74,2.1,3.55,.97,.65,2.1,1.13,3.23,1.13,.48,0,.97-.16,1.45-.32,.16,1.29,.81,2.58,1.94,3.39,.81,.65,1.77,.97,2.9,.97,1.45,0,2.74-.65,3.71-1.77,.97,.48,1.94,.81,2.9,.81,.32,0,.65,0,.97-.16,1.45-.32,2.74-1.13,3.55-2.26,.65-.97,.97-2.1,.97-3.07l1.29,.97c.97,.65,2.1,.97,3.07,.97,1.77,0,3.55-.81,4.52-2.42,.65-.97,.97-2.1,.97-3.07l.32,.16c.97,.65,2.1,.97,3.07,.97,.32,0,.65,0,.97-.16,1.45-.32,2.74-1.13,3.55-2.26,.65-.97,.97-2.1,.97-3.23l.65,.48c.97,.65,2.1,.97,3.07,.97,1.77,0,3.55-.81,4.52-2.42,1.77-2.58,1.13-5.97-1.45-7.74l-18.07-12.26h-3.55c-5.81,0-6.61-4.36-6.61-4.84l.48-.97h-12.26l-.16,.97c-.48,2.9-1.45,4.84-2.9,5.65-.81,.48-1.61,.65-2.26,.65v-8.07l9.36-5.16h25.81l12.74,18.71c.65,.97,1.77,1.45,2.9,1.61h.16c1.13,0,2.26-.48,3.07-1.45,1.45-1.77,6.94-7.74,13.55-10.49l-.97-2.42Zm-79.69,24.04l-.16-.16c-.65-.48-.97-1.13-1.13-1.77-.16-.81,0-1.45,.48-2.1,.48-.65,1.29-1.13,2.26-1.13,.65,0,1.13,.16,1.61,.48l.16,.16c.65,.48,.97,1.13,1.13,1.77,0,.48,0,.97-.16,1.45l-.65,.81v.16c-.97,.97-2.42,.97-3.55,.32h0Zm6.13,5.16c-1.29-.97-1.61-2.74-.65-4.03,.16-.16,.32-.32,.32-.48,.16-.16,.32-.48,.48-.65l1.13-1.45c.48-.81,1.45-1.13,2.42-1.13,.65,0,1.29,.16,1.77,.65,1.29,.97,1.61,2.74,.65,4.03l-1.77,2.42c-1.13,1.29-3.06,1.61-4.36,.65h0Zm6.78,5c-.65-.48-.97-1.13-1.13-1.94-.16-.81,0-1.61,.48-2.1l1.77-2.42,1.61-2.26c.48-.81,1.45-1.13,2.42-1.13,.65,0,1.29,.16,1.77,.65,.65,.48,.97,1.13,1.13,1.94,.16,.81,0,1.61-.48,2.1l-3.39,4.68c-1.13,1.13-3.06,1.29-4.19,.48h0Zm10.32,3.06l-.48,.65c-.81,.97-2.26,1.29-3.39,.48-1.13-.81-1.29-2.26-.48-3.39l.48-.65c.48-.65,1.13-.97,1.94-.97,.48,0,.97,.16,1.45,.48,1.13,.81,1.29,2.26,.48,3.39h0Zm-12.74-39.52v11.45l.81,.32c.16,0,2.58,.81,5-.65,1.94-1.13,3.23-3.23,3.87-6.45h8.23c.81,2.42,3.23,5.97,8.87,5.97h2.74l17.42,11.78c1.45,.97,1.77,2.9,.81,4.36-.97,1.45-2.9,1.77-4.36,.81l-4.36-3.07-12.42-8.55-1.45,1.94,12.42,8.55c.65,.48,1.13,1.13,1.29,1.94,.16,.81,0,1.61-.48,2.26-.48,.65-1.13,1.13-1.94,1.29-.81,.16-1.61,0-2.42-.48l-3.71-2.42-.32-.32-6.13-4.19-1.13,2.26,6.45,4.36c1.13,.97,1.45,2.74,.48,4.03-.97,1.45-2.9,1.77-4.36,.81l-8.07-5.65-1.45,1.94,2.9,2.1v.16c.65,.48,1.13,1.13,1.29,1.94,.16,.81,0,1.61-.48,2.26-.48,.65-1.13,1.13-1.94,1.29-.81,.16-1.61,0-2.26-.48,.65-1.94,.16-4.19-1.61-5.48-.65-.48-1.61-.81-2.42-.81l.48-.65c.81-1.13,1.13-2.58,.97-4.03-.16-1.45-.97-2.74-2.1-3.55-.97-.65-2.1-1.13-3.23-1.13s-2.26,.32-3.23,1.13c-.32-1.13-.97-2.1-1.94-2.74-.97-.65-2.1-1.13-3.23-1.13s-2.26,.32-3.07,.97c-.32-.97-.97-1.94-1.77-2.58l-.16-.16c-1.13-.81-2.42-1.13-3.71-.97-.16-.16-.16-.32-.32-.65-.16-.32-.32-.65-.48-1.13-.81-1.61-2.42-3.07-3.39-3.87l11.62-16.62h9.03l-6.78,3.87Z"/>
    </g>
  </g>
</svg>