<?xml version="1.0" encoding="UTF-8"?>
<svg id="Layer_2" data-name="Layer 2" xmlns="http://www.w3.org/2000/svg" viewBox="0 0 722.58 336.94">
  <defs>
    <style>
      .cls-1 {
        fill: #ce732e;
      }

      .cls-2 {
        fill: #91cecf;
      }

      .cls-3 {
        fill: #fff;
      }

      .cls-4, .cls-5 {
        fill: #afcdfb;
      }

      .cls-6 {
        fill: #82b378;
      }

      .cls-7 {
        fill: #d67330;
      }

      .cls-5, .cls-8, .cls-9 {
        opacity: .4;
      }

      .cls-10, .cls-11, .cls-12, .cls-13, .cls-14 {
        opacity: .5;
      }

      .cls-15 {
        fill: #f99746;
      }

      .cls-11 {
        fill: #ffe2cc;
      }

      .cls-16 {
        fill: #a8d29f;
      }

      .cls-17, .cls-18 {
        opacity: .2;
      }

      .cls-19 {
        fill: #4a75cb;
      }

      .cls-20, .cls-21 {
        fill: #f1a34f;
      }

      .cls-22 {
        fill: #eb9342;
      }

      .cls-8, .cls-23 {
        fill: #e9f3fe;
      }

      .cls-24, .cls-21 {
        opacity: .8;
      }

      .cls-25 {
        fill: #507ed1;
      }

      .cls-26 {
        fill: #699ff0;
      }

      .cls-27 {
        fill: #c65447;
      }

      .cls-28 {
        opacity: .15;
      }

      .cls-12, .cls-29 {
        fill: #e58435;
      }

      .cls-30 {
        fill: #ffa766;
      }

      .cls-13 {
        fill: #efcbab;
      }

      .cls-31 {
        fill: #2c3a64;
      }

      .cls-32 {
        fill: #3358a0;
      }

      .cls-33 {
        fill: #ed985f;
      }

      .cls-34 {
        fill: #273f76;
      }

      .cls-18, .cls-14 {
        fill: #f5faff;
      }

      .cls-35 {
        fill: #ffb27d;
      }

      .cls-36 {
        fill-rule: evenodd;
      }

      .cls-36, .cls-37 {
        fill: #2b478b;
      }

      .cls-38 {
        fill: #b7591a;
      }

      .cls-39 {
        fill: #abddda;
      }

      .cls-40 {
        fill: #233862;
      }

      .cls-41 {
        fill: #91420c;
      }
    </style>
  </defs>
  <g id="Layer_1-2" data-name="Layer 1">
    <g>
      <g class="cls-28">
        <path class="cls-36" d="M421.62,49.22c.06,3.13,1.51,.96,.23-.04l-.23,.04h0Zm185.95,41.32c-1.35,2.2-1.94,2.54-3.19,5.28-2.31,5.06-5.04,9.01-5.41,.57-.3-6.97-2.42-5.43,1.98-12.02,2.53-3.31,11-8.2,10.96-11.52-.03-2.44-4.08-.13-5.6,.18-6.04,1.23-5.4-.71-9.3,5.47-2.21,3.6-2.03,3.03-6.28,1.09-3.17-1.43-5.97-.61-9.33-1.36-4.02-.9-5.07-.62-7.42,3.06-3.37,5.3-2.38,3.65-7.28,6.86-3.23,2.12-3.28,4.3-.34,6.95,3,2.71,9.4,.28,7.13,8.52-.99,3.6-8.37,18.02-13.12,17.29-4.85-.75-4.25-.35-5.41,4.43-.36,1.49-1.15,3.12-1.64,4.7-.65,2.31,1.3,8.28-.97,9.42-2.53,1.28-4.61-8.28-6.96-9.93-2.4-1.68-11.86-1.81-9.46,2.72,1.44,2.72,2.8,3.59,2.3,6.84-.74,4.9,3,6.49,3.17,8.09,.25,2.26-1.99,11.4-3.8,13.76-1.09,1.42-2.66,2.62-4.06,3.72-2.89,2.03-5.82,2.43-9.06,4.5-4.18,2.35-3.27-1.84-7.01,.41-4.45,2.68-2.07,6.42,.24,9.38,2.14,2.74,3.03,5.23,2.73,8.8-.96,4.37-2.14,3.63-4.79,7.01-2.09,2.66-2.65-.19-4.02-2.52-4.21-7.18-8.36-4.32-4.74,4.35,.55,1.31,6.7,12.12,3.26,11.67-2.54-.33-6.09-13.09-6.4-15.89-.49-4.53-.15-5.62-1.74-10.25-2.92-6.7-6.12,5.25-6.45-3.15-.19-4.82,2-2.4-1.92-7.75-2.67-3.65-1.58-7.71-5.15-3.55-2.15,2.5-4.02,1.17-4.4,3.31-.27,1.53-1.52,2.36-2.65,3.3-2.89,2.13-2.93,1.98-5.48,4.67-2.63,2.77-3.22,.58-3.76,6.18l-.18,1.84c-.34,4.15-.72,5.3,1.52,8.83,2.36,3.72-.57,7.21-2.01,1.9-1.05-3.87-.57-1.88-2.78-1.84-2.64,.05-4.44-7.48-5.14-9.65-1.32-4.11-4.03-9.36-3.56-13.33,.48-4.11,.44-3.24-2.38-3.6-4.62-1.41-2.29-9.49-11.09-9.22-9.18,.29-5.58,.53-13.94-2.93-4.45-1.85-4.05-.83-7.92-4.58-5.47-5.29-4.43,3.24,0,6.48,4.4,3.22,10.62,1.02,12.37,7.81,1.66,6.45-8.77,13.43-13.59,16.21-3.31,1.91-8.76,4.74-11.54,.74l-.36-.8c-1.41-3.88-.61-4.23-3.15-8.59-2-3.45-2.74-5.06-4.18-8.6-.44-1.1-5.02-12.11-7.04-9.38-1.34,1.81,4.28,13.63,5.3,16.33,1.09,2.87,2.23,2.51,2.85,6.22,.31,1.83,3.64,5.16,4.97,7.43,2.94,5.01,2.8,5.56,9.53,3.35,5.64-1.86,6.27-.96,4.25,4.7-2.51,7.02-4.21,9.33-9.85,13.95-2.67,2.19-3.87,3.52-5.14,6.79-2.07,6.12-5.35,5.13-4.16,12.37,.52,3.15,.96,6.35,1.48,9.54,.95,5.8,1.06,10.31-4.86,13.09-4.38,1.76-5.93,1.97-4.4,7.5,1.28,3.94,2.19,6.1-2.01,8.25-3.94,2.02,.78,3.71-3.01,8.59-1.95,2.51-1.41,2.21-2.72,4.59-2,3.66-6.8,5.18-10.74,5.42-1.67,.1-3.06,.16-4.73,.37-6.03,.91-4.06-2.25-5.25-7.26-1.58-6.69-4.81-5.16-5.28-12.3-.21-8.06-.78-8.67-3.43-16.03-2.66-7.39,1.43-5.98,3.11-11.17,1.04-3.23-.33-6.6-1.57-9.55-2.96-6.47-8.77-10.48-6.35-18.47,.72-2.36,4.03-3.79,1.03-5.72-4.38-2.82-6.44,2.8-9.03-1.29l-.57-.91c-1.79-2.98-2.56-2.87-5.79-1.23-4.38,2.22-6.91,2.84-11.86,3.21-4.71,.35-7.98-2.71-10.5-6.43-1.83-2.7-3-6.58-4.62-9.67-2.71-5.16-1.72-7.01-2.21-12.46-.8-7.09-.5-7.72,3.05-14.06,3.46-6.19,7.22-5.88,8.85-13.47,1.4-6.52,6.83-6.53,6.67-10.48-.13-3.42-5.85-2.27-6.19-9.5-.48-12.25,1.41-7.33,10.53-9.7,6.2-1.61,.2-7.39-1.8-9.79,5.06-2.98,5.89-2.04,10.96-6.64,5.88-5.35,6.5-5.47,14.03-7.86,5.88-1.87,5.91-4.2,2.78-9.44-4.27-7.14-5.75-.32-9.49-2.71-2.67-1.71-2.5-7.79-.28-10.29,2.05-2.3,17.82-14.77,14.06-16.89-1.52-.86-1.29-1.28,.54-2.36,2.32-1.36,4.67-2.03,7.15-3.57,9.35-5.79,7.83-5.41,18.71-1.5,2.12,.76,23.62,8.5,11.17,10.14-1.71,.23-6.29,.62-7.64,1.26-.07,1.9,4.68,6.29,6.27,7.46,2.15,1.12,3.92-2.09,5.55-3.62,2.8-2.62,4.06-2.29,6.54-5.66,2.36-3.2,2.59,.46,8.23-1.14,4.57-1.29,4.19-1.78,9.54-1.87,3.48-.06,8.04,.15,10.4-2.88,1.46-1.89,2.31-1.34,4.76-.35,6.19,2.51,6.91,4.38,6.89-3.96,0-3.52,.89-10.14,5.67-10.08,4.17,.05,6.5,7.59,9.95,6.92,1.6-.78,4.77-4.16,5.96-5.65,1.19-1.65,4.25-1.35,6.32-1.5,8.17-.57-.66-2.12,7.77-5.53,2.55-1.03,10.81-4.02,12.97-2.41,1.15,.86,.67,1.39,2.94,0,4.26-2.62,7.59-6.93,12.08-2.29,1.77,2.07,2.29,.46,5.16-.13,2.06-.42,4.66,1.16,5.58,3.01,1.99,3.99-6.82,6.55-1.3,8.07,3.11,.85,4.68-.85,9.96,1.39,5.69,2.41,2.81,1.02,8.24,1.71,6.43,.82,9.56,5.43,15.69,4.6,5.66-1.1,9.22,3.07,11.93-2.76,1.4-3,2.72-2.67,5.92-1.5,5.01,1.85,4.21,2.72,10.5,3.33,3.46,.34,6.93,.32,10.4,.49,8.01,.46,4.93,5.15,12.92,5.09,1.62-.01,2.45,.13,4.03,.47,1.72,.46,6.59,3.34,7.38,.57,.47-1.67-.18-3.08,2.57-3.43l1.52-.05c4.54,.3,11.3,5.58,15.36,8.14,2.28,1.44,3.99,3.45,6.56,3.68,1.75,.16,7.84,2.76,6.71,3.92-.18,.19-2.99,1.61-3.93,2.35-3.87,3.03-4,.22-8.02-1.75-2.78-1.36-3.42,.88-6.12,1.73-3.62,1.14-3.48,.52-1.63,3.34,1.91,2.9-3.68,1.94-6.25,3.49l-1.98,1.35c-.5,.38-4.86,4.02-4.9,4.03-1.1,.36-.98-2.29-4.73-.9-1.73,.64-4.94,1.28-5.84,2.62-.91,1.35-.68,1.92-2.57,2-2.03,.08,.74,2.13-.06,3.58-.78,1.42,2.57,1.83-.14,3.89-1.04,.79-1.21,.97-2,2.03h0Zm-194.5,158.58c-1.05,3.41,.46,3.53-1.87,7.13-1.87,2.89-1.08,3.58,.18,6.96,2.95,7.91,6.02,5.03,7.08-1.42,.92-5.6,.56-6.98,2.98-12.42,1.08-2.42,2.67-6.85,.61-9.2-1.5-1.7-3.03,4.53-6.3,6.43-1.56,.9-1.76,.84-2.68,2.53h0Zm144.83-104.1c-.38-2.99-3.09-3.92-2.68-1.16,.04,.3,.61,3.95,1.34,3.57,.7-.37,1.14-1.74,1.35-2.41h0Zm2.57-.81c1.1-.17,1.06-2.5,4.17-2.3,1.75,.11,1.23-1.38,4.11-1.69,1.55-.16,4.07-1.66,4.3-3.25,.3-2.09,.1-3.04,.69-5.4,1.26-7.03-1.98-7.71-2.44-2.92-.19,1.99-1.92,4.42-3.55,5.67-3.1,2.37-1.68,2.17-3.45,4-1.99,2.05-6.38-.5-4.68,4.62,.18,.54,.33,1.04,.85,1.28h0ZM432.09,46.77c.25-.03,2.47-.19,2.71-.62,.3-.54-4.56-4.76,.23-10.63,4.27-5.24,10.76-3.04,17.21-9.61-.55-.4-.95-.79-1.68-.65-.9,.17-2.93,1.96-5.36,2.58-6.59,1.68-5.68,.45-12.44,3.83-1.36,.68-4.94,1.73-3.84,3.83,1.01,1.92-.37,.6-2.54,3.45-1.04,1.36-2.81,2.93-.84,3.48,4.97,1.37,2.05,3.93,6.54,4.32h0Zm-32.9,70.44c1.31-1.95-5.17-2.57-3.47-.24,.83,1.15,2.39,.88,3.47,.24h0Zm-36.72-36.43c1.24-.33,1.13-3-.18-1.09-.28,.4-.49,.96,.18,1.09h0Zm29.27-5.84c2.35,3.31,3.73-1.53,.68-2.15-1.69-.34-1.11,1.29-.68,2.15h0Zm-22.27,17.38c7.56-2.73,2.47-4.69,9.28-7.56,1.5-.63,.95-3.93,7.26-6.55,6.74-2.81-3.64-2.08-5.8-2.6-9.52-2.28,4.45-14.62-.17-14.59-2.41,.02-5.15,3.87-7.14,5.52-4.91,4.06-4.9,3.68-2.54,9.54,1.59,3.93-.47,3.23-2.21,7.3-1.24,2.92-.69,1.93-2.38,4.51-1.74,2.66-2.61,5.85,1.99,4.89l1.71-.45h0Zm60.2,42.66c.01-2.28-.33-4.6-.88-6.81-.9-3.61,1.88-1.93,1.24-3.05,0-.02-2.5-2.4-2.88-2.84-.54-.61-3.67-4-3.15-4.81,.46-.73,2.68-2.1,3.98-1.54,1.65,.72,3.01,.94,1.62-1.58-.87-1.6-3.41-3.53-5.22-3.33-1.14,.12-6.64,3.5-6.82,4.97-.27,2.26,1.62,5.97,2.85,7.84,2.44,3.7,.47,3.88,1.9,7.87,1.53,4.27,6.98,5.4,7.37,3.27h0Zm-26.8-23.88c-2.65,.88-3.13,3.04-7.19,2.82-3.97-.21-3.44-4.39-8,4.27-2.96,5.62-1.18,8.1,4.96,6.02,6.32-2.15,7.6,2.17,12.47,1.23,3.92-.9,2.61-3.65,.06-5.86-4.98-4.32-1.09-4.63-.34-7.81,.34-1.43-1.21-.87-1.95-.68h0Zm-66.74,23.33c-8.54,5.9,5.48,1.86,7.69,1.44,2.97-.56,12.55-2.42,12.74,2.64l-.05,.87c-.6,4.16,2.45,3.2,5.9,5.72,1.93,1.41,8.65,8.48,9.75,3.09,.6-2.96,1.13-3.78,4.73-3.21,8.88,1.74,6.7,6.61,17.85,2.7,4.04-1.68,5.52-4.59,5.29-8.95-.23-4.48-3-.94-6.95-2.59-4.18-1.74-3.4,1.52-6.1,.04-3.18-1.74-2.75-13.34-7.84-8.91-2.71,2.36,1.2,3.12,.06,5.55l-.52,.81c-2.4,2.7-4.55-2.85-5.57-4.69-1.75-4.22,3.22-2.33-5.51-8.45-1.4-1.02-4.96-4.89-5.97-4.98-1.98-.18,1.58,6.75,2.85,7.97,3.26,3.15,6.06,2.48,3.06,8.29-1.24,2.16-3.39,2.55-5.68,1.8-4.28-1.41,9.08-.37,.86-7.74-2.9-2.64-2.56-2.94-4.74-5.55-2.53-3.02-4.79-.34-8.5,0-3.37,.31-4.32,1.27-6.57,3.85-5.5,6.3-.28,5.54-6.77,10.31Z"/>
        <path class="cls-36" d="M305.8,36.49c3.48-4.04-.1-5.43,.82-7.9,1.97-2.82,5.09-.82,1.2-5.82-2.71-3.49-.07-4.68,3.04-7.19,2.72-2.19,3.78-2.78,6.78-4.47,5.45-3.07-5.16-2.49-6.92-2.13-16.1,4.08-5.19-.26-5.04-2.64,.13-2.05-3.77-2.46-5.37-3.26-3.52-1.77-8.73-2.96-12.72-3.05-5.58-.13-9.96,.25-15.16,2.31-1.38,.55-9.84,2.22-9.32,4.01,1.39,2.98,3.68,5.01-1.62,1.32-4.95-3.45-2.37,.78-6.34,.85-4.15,.08-2.41-.06-6.04-1.2-4.19-.97-12.59,1.62-15.97,4.2-4.24,3.24,3.31,3.96-6.02,6.74-3.62,1.08-5.84,1.69-3.47,6.03,3.21,5.84,13.27-.25,19.41,4.92,1.97,1.66,6.19,6.21,5.6,9.05-.22,1.09-1.44,4.95,.83,4.43,2.41-.55,6.62-.79,6.48,2.7-.32,8.62-6.32,7.63-3.72,14.87,.94,2.61,3.49,5.04,3.81,6.35,.66,2.7,2.21,3.65,3.8,6.1,1.09,1.68,7.27,6.71,8.73,4.16,1.09-1.88,1.58-7.31,3.43-10.86,3.74-7.13,2.28-2.91,8.63-6.29,4.59-2.44,3.31-4.65,9.75-5.92,4.67-.92,14.09-4.06,13.9-9.75-.12-3.6-1.05-4.15,1.48-7.54Z"/>
        <path class="cls-36" d="M501.51,207.81c2.49,3.01,2.03,4.55,2.87,5.73,1.52,2.14,1.61,.55,2.94,4.42,1.01,2.93,6.63,10.66,7.69,4.39,.09-.5,1.98-6.95-.65-4.27-1.78,1.82-2.28-4.37-2.8-5.11-1.53-2.16-3.08-.42-6.32-6.39-1.5-2.77-4-5.29-7.3-5.69-3.37-.41,3.16,6.48,3.58,6.92Z"/>
        <path class="cls-36" d="M303.05,64.22c2.12,2.66,5.13,4.32,8.25,2.06,2.05-1.48,4.61-1.84,5.59-2.75,1.77-1.65-1.06-4.39-3.34-4.19-1.52,.13-5.08,.22-6.15,1.03-1.98,1.49-1.27,.71-2.96-1.05-1.13-1.17-4.72,.29-1.39,4.9Z"/>
        <path class="cls-36" d="M186.38,181.88c-2.34-3.25-5.31-1.9-9.22-2.29-6.6-.66-11.45-3.34-12.68-10.25-.87-6.67-.35-3.27-4.33-8.81-1.57-2.19-7.13-13.88-9.46-13.22-.3,3.68,6.54,14.94,5.62,16.72l-.55-.38-.88-.98c-1.88-2.37-1.48-3.69-3.29-5.82-2.04-2.39-2.71-5.17-4.26-8.05-1.75-3.28-1.79-6.2-4.94-8.16-4.64-2.89-6.41-8.05-7.94-13.15-1.33-4.43-.71-8.22-.61-12.77l.02-1.1c.04-5.52-2.07-7.63-5.03-12-2.78-4.15-1.79-4.97-6.08-9.46-3.14-3.13-4.86-4.48-7.75-8.11-5.03-6.31-5.74-6.31-13.49-8.41-5.72-1.55-2.73-4.11-11.92-2.69-5.75,.89-4.79,4.98-7.83,8.62-3.79,4.55-16.03,11.74-7.24,3.59,7.49-6.95-.48-5.04-5.77-8.25-3.24-2.39-6.17-5.71-1.65-8.53,1.45-.8,8.95-3.68,4.18-4.56l-1.61-.19c-1.95-.14-8.98-.08-7.85-3.57,1.16-3.56,11.85,1.49,8.53-2.29-1.3-1.48-7.05-3.7-5.86-5.73l.53-.58,1.01-.54c4.66-1.99,3.59-4.83,9.83-6.48,2.22-.59,3.95-.48,6.18-.16,1.86,.4,3.8,.99,5.66,1.45,1.65,.39,2.87,.63,4.55,.77h2.08c9.35-.57,12.14,2.19,20.38,3.13,6.83,.78,4.91,1.78,10.57-2.99,2.43-2.05,3.06-.41,5.98,1.01,4.47,2.18,4.78,.02,9.75,2.1,2.41,1.01,6.14,2.36,7.92,4.22,2.79,2.92,6.06-1.3,8.45,2.13,1.02,1.47,2.03,2.17,2.31-.12,1-8.22,6.61,1.1,13.81-.57,3.29-.76,1.95-1.14,5.02-.06,2.94,1.03,4.37-.79,4.9-3.57,.95-4.95-3.8-4.47-1.52-7.83,2.35-2,4.84,1.34,5.27,3.8,.67,3.93,.28,2.6,3.47,5.57,4.25,3.95,4.96,3.19,7.93-1.61,1.68-2.8,2.16-5.01,4.9-.34,5.45,9.28-4.86,7.46-6.51,8.83-.97,.81-.83,1.43-2.44,2.64-3.17,2.37-2.85,1.93-4.58,5.17-.79,1.48-2.57,1.16-4.52,3.4-1.61,1.86-4.58,5.91-2.8,8.08,.41,.5,4.09,3.83,4.57,4.09,2.1,1.13,3.19,.86,5.98,2.67,2.23,1.45,3.66,2.4,6.07,3.65,5.83,2.95,2.57,4.97,6.11,9.12,3.2,3.14,3.8-2.69,3.29-5.22-.72-3.52,1.27-2.72,3.28-6.25,2.32-4.75-1.09-5.1-2.46-8.56-.73-1.84,1.6-.8,1.55-4.62l-.12-1.6c-.64-3.72,.05-1.37,3.94-2.26l1.39-.4c1.78-.66,.71-.98,3.43,1.22,4.44,2.91,3.91-.65,4.23,4.82,.12,2.06,1.64,3.58,3.48,4.44,5.06,2.38,3.57-10.65,6.54-2.24,1.78,4.17,3.8,3.93,2.99,8.57-.36,2.06,2.11,2.04,4.19,3.38,3.76,2.42,2.2,1.03,5.01,4.74,1.79,2.37-1.93,2.13-4.49,4.47-5.42,4.36-6.6-.27-11.34,1.94-1.78,.83-4.27,2.79-4.31,4.9,3.23,.23,5.94-1.23,6.33,3.58-.47,5.28-4.48,5.98-8.16,9.34-2.79,2.54-10.4,8.78-11.22,12.15-1.18,4.84,.59,5.73-3.68,10.58-5.17,5.82-5.31,5.68-3.06,13.02,1.32,4.29,.11,5.01-1.98,1.03-2.09-3.98-5-7.31-9.99-6.95-3.07,.22-1.75,1.85-7.65,1.05-3.08-.79-5.8,.5-8.05,2.68-2.33,2.27-1.99,5.89-2.35,8.97-.53,4.52,1.73,12.16,6.49,13.83,6.12,1.44,5.19-5.76,8.72-6.34,2.89-.47,2.94,3.59,2.31,5.64-.59,1.92-3,7.16,1.34,6.22,2.93-.64,4.41-1.04,5.19,2.82,1.18,5.89-.8,7.63,6.14,9.94l1.18,.39c9.73,3.15,3.57-3.14,11.66-4.51,4.99-.37,6.88,3.16,14.52,1.98,2.98-.46,3.03,.9,5,3.21,7.13,7.75,10.85,3.85,13.96,7.08,3.81,3.97,1.27,10.81,7.56,12.54,3.85,1.06,5.46,.28,8.32,3.39,1.2,1.31,2.91,1.21,4.87,2.16,4.33,2.11,9.67,5.26,8.44,10.91-.75,3.42-7.54,6.13-7.74,13.62-.13,4.94,5.42,5.38-2.52,12.68-6.5,5.68-7.72,3.34-12.3,12.99-3.36,7.09-6.87,19.01-16.7,18.34,.36,.54,2.31,3.09,2.21,3.55-2.95,5.78-7.13,1.9-9.5,3.87-1.84,1.53,.66,4.11-1.43,6.47-3.75,4.23-1.47,3.71-2.64,6.39-1.68,3.85-6.28,.34-4.51,8.08,1.44,6.31-1.73,7.42-.93,11.4,.69,3.4,4.39,5.8,4.32,7.19-1.45,.81-5.49,1.7-7.07,1-3.11-1.37-2.83-3.23-3.92-3.87-4.04-2.39-5.21-5.4-5.29-10.22-.12-6.33,4.43-3.89,3.22-6.25-.6-1.17-3.46-.71-1.71-4.24,1.41-2.85,3.1-.65,1.88-5.18-1.03-3.82,.66-5.78,.78-9.6,.11-6.92-.23-2.67,2.07-9.03,1.8-4.99,1.43-14.71,2.31-20.84,.58-3.99,2.54-14.84-.79-17.72-3.02-2.62-6.3-1.25-8.47-7.5-2.06-5.96-1.73-7.89-5.77-13.5-3.78-5.25-2.14-4.63-1.75-10.55,.48-7.28,5.92-10.86,5.38-17.28-.66-7.85-11.89-2-14.75-12.24-1.39-4.98-4.7-.56-9.21-6.03l-.62-.76h0Zm6.15-75.78c-1.27,1-1.83,1.78-3.39,2.88-3.05,2.14,.33,1.72,2.25,.97,2.04-.68,1.32,.41,4.17,1.39,4.67,1.61-.87,1.57-1.27,3.68-.16,.8-.01,9.13,1.98,6.28,1.05-1.51-.88-4.72,2.05-6.7,2.75-1.86,1.28,5.95,6.94,1.79,3.96-2.9-3.09-3.15-4.48-4.38-2.4-2.13-3.83-8.5-8.25-5.92Z"/>
        <path class="cls-36" d="M531.81,201.35c-1.4,1.37,.64,.98-2.45,2.89-1.93,1.19,.36,1.9-2.79,3.27-4.01,1.74-.55,3.66-4.65,1.75-.86-.4-3.2,2.04-1.48,5.06,.92,1.61,1.23,4.7,3.86,5.32,1.88,.45,2.06-.5,5.38,.63,3.38,1.16,3.06-2.41,4.27-4.6,.97-1.75-.31-1.21,1.8-3.77,1.3-1.57-3.91-3.97-.74-6.66,1.26-1.07-.19-1.28,2.04-1.68,1.19-.21-.69-1.23-1.5-2.59-1.41-2.4-1.41-1.21-3.74,.4Z"/>
        <path class="cls-36" d="M543.57,210.88c-1.41,.07-4.39-.21-5.04,1.33-.99,2.34-1.68,.82-1.51,4.99,.11,2.69-1.71,1.72-.01,3.89,.54,.69-.09,5.96,2.16,3.61,.74-.78-.49-3.52,.97-3.6,.99-.05-.11,2.44,2.06,3.24,1.09,.4,2.33,2.24,2.59,.37,.19-1.34-1.65-1.87-2.16-4.08-.43-1.88-3.72-2.47-.19-2.96,2.18-.3,2.03-1.82-.92-1.76-2.42,.05-1.8-2.54-.36-2.56,2.57-.04,4.35,1.36,5.85-2.21,.42-1-.11-1.64-1.18-.94-.83,.55-1.28,.61-2.26,.67Z"/>
        <path class="cls-36" d="M583.37,229.49c.63-1.82,2.29-.85-1.26-4.19-4.71-4.43-4.76-4.79-11.33-7.01-7.1-2.4-4.92,1.42-6.94,1.97-1.57,.43-1.79-3.71-2.6-4.47-1.26-1.18-7.38,.04-5.59,1.09,2.32,1.35,2.03,.63,2.57,3.2,.24,1.12,2.35,.21,3.65,2.03,.8,1.12,2.45,1.09,4.1,2.13,1.99,1.27,1.89,.23,2.64,3.54,.8,3.53-1.68,1.97-1.3,2.95,.62,1.59,2.89-.35,4.65,1.34,1.28,1.22,1.84,1.02,3.54,.16,2.15-1.09,1.81-5.26,6.25,.4,1.41,1.8,3.37,3.9,5.95,3.07,1.74-.56-2.14-1.97-3.25-3.65-.51-.77-.88-1.68-1.06-2.58Z"/>
        <path class="cls-36" d="M533.66,231.53c-4.45-.38,3.23,3.96,3.03,.73-.11-1.87-2.1-.73-3.03-.73Z"/>
        <path class="cls-36" d="M538.47,231.85c.91,1.2,2.85,1.76,4.17,.46,1.5-1.48-4.45-1.35-4.25-.63l.08,.16Z"/>
        <path class="cls-36" d="M537.79,233.72s2.36,1.23,2.03,1.7c-1.01,1.44-3.42-1.19-2.03-1.7Z"/>
        <path class="cls-36" d="M545.15,235.22c1.06-.25,3.68-1.69,4.05-2.63,1.05-2.68-1.65-2.99-1.32-1.32,.12,.59-1.19,.75-2.09,1.58-.57,.53-2.77,2.46-.64,2.37Z"/>
        <path class="cls-36" d="M543.53,235.59s-1.77,.65-1.15,1.15c.61,.5,2.38-.29,1.15-1.15Z"/>
        <path class="cls-36" d="M552.02,280.31c-4.96,1.04-6.37,3.57-10.95,4.6-2.7,.61-4.15,1.49-6.42,2.09-6.77,1.79-2.63-5.89-4.04-9.84-1.22-3.4-3.54-5.71-2.66-9.32,1.15-4.77-1.88-7.24,2.14-8.98l2.3-1c3.29-1.43,8.79-2.77,9.91-6.57,1.23-4.17,2.43-1.85,4.74-6.09,2.12-3.88,1.53-2.21,4.74-.8,3.48,1.53,2.61-3.57,4.82-4.67,1.44-.72,10.15-2.22,8.84,1.06-1.35,3.38-1.48,4.2,1.75,6.94,3.24,2.76,6.05,7.66,6.78-1.34,.1-1.21,.2-8.37,.43-8.63,.81-.9,2.8,2.17,2.88,4.1,.14,3.19-.04,1.54,2.07,3.14,1.11,.84,1.65,4.07,2.07,5.64,.72,2.69-1.31,2.53,2.95,4.64,3.1,1.54,1.41,2.64,2.72,5.7,3.32,5.92,3.86,3.65,4.74,10.79,.14,1.13,.33,2.08,.56,3.19,.88,3.9-3.29,7.15-4.3,12.4-.73,3.79-.7,5.35-4.17,8.04-2.75,2.13-4.36,1.16-7.51,.85-6.62-.65-6.82-9.54-9.6-11.66-1.62-1.24-2.05,3.69-4.54-.19-3.06-4.78-4.64-5.14-10.26-4.07Z"/>
        <path class="cls-36" d="M203.65,165.62c.53,.05,3.26,1.69,3.79,2.2,2.11,2.04,4.09,3.95,7.29,3.26,3.34-.73-4.09-4.15-5.23-4.48-2.53-.74-.33-2.54-5.41-2.08-6.12,.55-4.17,3.55-1.62,1.73,.5-.36,.58-.46,1.18-.62Z"/>
        <path class="cls-36" d="M223.58,171.93c-6.23-1.28-4.18,2.42-2.58,2.87,.78,.22,7.77-.11,4.46-2.2-.57-.36-1.24-.5-1.88-.67Z"/>
        <path class="cls-36" d="M581.63,302.31c-2.24,.07-2.07-3.03-3.31-1.34-1.46,2,1,1.73,.83,2.89-.27,1.9,.5,1.44,1.78,3.21,.93,1.29,1.83,.84,2.99,.06,1.13-.76,.57-1.85,.85-3.41,.65-3.7-1.68-1.63-3.14-1.41Z"/>
        <path class="cls-36" d="M242.99,105.89c-1.94,2.73,5.14,1.99,5.32,2.09,.97,.51-.46,1.37,1.72,.97,1.23-.22,4.1,1.64,3.87-.35-.04-.4-2.77-4.63-3.27-4.84-.37-.15-3.39,.52-3.62-1.84-.05-.48,.95-2.61-1.47-1.91-1.5,.44-.22,3.7-1.47,4.95l-1.1,.92Z"/>
        <path class="cls-36" d="M237.07,113.42c-1.86,.56-2.59-.47-3.64,1.62-.53,1.05-4.68,3.04-2.86,3.86,.7,.31,4.97-2.19,6.1-2.7,2.27-1.02,.75-1.2,3.26-2.11,4.4-1.6,.67-3.54-.13-3.28-.14,.05-1.1,1.38-1.75,1.87-.33,.26-.63,.49-.98,.73Z"/>
      </g>
      <g class="cls-28">
        <g>
          <g>
            <path d="M636.7,88.01v118.46c0,7.27-5.95,13.22-13.22,13.22h-70.41c-1.88,0-3.68-.4-5.31-1.12-4.65-2.05-7.91-6.71-7.91-12.1V88.01c0-7.27,5.95-13.22,13.22-13.22h70.41c7.27,0,13.22,5.95,13.22,13.22Z"/>
            <path d="M605.51,119.34c-7.44-2.79-11.21-11.09-8.41-18.53,2.79-7.44,11.09-11.21,18.53-8.41,7.44,2.79,11.21,11.09,8.41,18.53-2.79,7.44-11.09,11.21-18.53,8.41Z"/>
            <path d="M624.04,110.92l-26.94-10.12c2.79-7.44,11.09-11.21,18.53-8.41,7.44,2.79,11.21,11.09,8.41,18.53Z"/>
            <path d="M556.89,117.01c-6.16-5.03-7.07-14.09-2.05-20.25,5.02-6.15,14.09-7.07,20.25-2.05,6.16,5.02,7.07,14.09,2.05,20.25-5.02,6.15-14.09,7.07-20.25,2.05Z"/>
            <path d="M577.13,114.97l-22.29-18.2c5.02-6.15,14.09-7.07,20.25-2.05,6.16,5.02,7.07,14.09,2.05,20.25Z"/>
          </g>
          <g>
            <path d="M568.06,104.89h70.41c7.3,0,13.22,5.92,13.22,13.22v118.46c0,7.3-5.92,13.22-13.22,13.22h-70.41c-7.3,0-13.22-5.92-13.22-13.22V118.1c0-7.3,5.92-13.22,13.22-13.22Z"/>
            <path d="M570.84,104.89h70.41c7.3,0,13.22,5.92,13.22,13.22v118.46c0,7.3-5.92,13.22-13.22,13.22h-70.41c-7.3,0-13.22-5.92-13.22-13.22V118.1c0-7.3,5.92-13.22,13.22-13.22Z"/>
            <path d="M623.28,149.43c-7.44-2.79-11.21-11.09-8.41-18.53,2.79-7.44,11.09-11.21,18.53-8.41,7.44,2.79,11.21,11.09,8.41,18.53-2.79,7.44-11.09,11.21-18.53,8.41Z"/>
            <path d="M641.81,141.02l-26.94-10.12c2.79-7.44,11.09-11.21,18.53-8.41,7.44,2.79,11.21,11.09,8.41,18.53Z"/>
            <path d="M574.66,147.11c-6.16-5.03-7.07-14.09-2.05-20.25,5.02-6.16,14.09-7.07,20.25-2.05,6.15,5.02,7.07,14.09,2.05,20.25-5.02,6.15-14.09,7.07-20.25,2.05Z"/>
            <path d="M594.9,145.06l-22.29-18.2c5.02-6.16,14.09-7.07,20.25-2.05,6.15,5.02,7.07,14.09,2.05,20.25Z"/>
          </g>
          <g>
            <rect x="532.98" y="152.14" width="110.59" height="165.04"/>
            <rect x="548.39" y="152.14" width="110.59" height="165.04"/>
            <polygon points="548.39 161.72 543.09 169.96 532.98 169.96 532.98 152.14 548.39 152.14 548.39 161.72"/>
            <polygon points="532.98 152.14 523.54 165.14 538.94 165.14 548.39 152.14 532.98 152.14"/>
            <polygon class="cls-10" points="548.39 159.66 548.39 317.71 605.43 317.71 605.43 165.14 548.39 159.66"/>
            <g>
              <polygon points="658.98 165.14 650 169.96 553.72 169.96 548.39 161.72 548.39 152.14 658.98 165.14"/>
              <polygon points="658.98 152.14 548.39 152.14 556.2 165.14 666.79 165.14 658.98 152.14"/>
            </g>
          </g>
          <g>
            <rect x="485.17" y="220.35" width="144.9" height="96.85" rx="13.22" ry="13.22"/>
            <path d="M529.72,251.55c-2.79,7.44-11.09,11.21-18.53,8.41-7.44-2.79-11.21-11.09-8.41-18.53,2.79-7.44,11.09-11.21,18.53-8.41,7.44,2.79,11.21,11.09,8.41,18.53Z"/>
            <path d="M521.31,233.02l-10.12,26.94c-7.44-2.79-11.21-11.09-8.41-18.53,2.79-7.44,11.09-11.21,18.53-8.41Z"/>
            <path d="M527.4,300.17c-5.03,6.16-14.09,7.07-20.25,2.05-6.16-5.02-7.07-14.09-2.05-20.25,5.02-6.15,14.09-7.07,20.25-2.05,6.15,5.02,7.07,14.09,2.05,20.25Z"/>
            <path d="M525.35,279.93l-18.2,22.29c-6.16-5.02-7.07-14.09-2.05-20.25,5.02-6.15,14.09-7.07,20.25-2.05Z"/>
            <path d="M617.49,251.55c-2.79,7.44-11.09,11.21-18.53,8.41-7.44-2.79-11.21-11.09-8.41-18.53,2.79-7.44,11.09-11.21,18.53-8.41,7.44,2.79,11.21,11.09,8.41,18.53Z"/>
            <path d="M609.08,233.02l-10.12,26.94c-7.44-2.79-11.21-11.09-8.41-18.53,2.79-7.44,11.09-11.21,18.53-8.41Z"/>
            <path d="M615.17,300.17c-4.85,5.95-13.47,7-19.6,2.54-.22-.15-.43-.32-.64-.49-6.16-5.02-7.07-14.09-2.05-20.24,5.02-6.16,14.09-7.07,20.24-2.05,.21,.17,.41,.35,.61,.53,5.6,5.11,6.29,13.77,1.44,19.72Z"/>
            <path d="M613.73,280.45l-18.17,22.25c-.22-.15-.43-.32-.64-.49-6.16-5.02-7.07-14.09-2.05-20.24,5.02-6.16,14.09-7.07,20.24-2.05,.21,.17,.41,.35,.61,.53Z"/>
            <g>
              <path d="M574.77,240.33c3.4,7.18,.34,15.76-6.84,19.16-7.18,3.4-15.76,.34-19.16-6.84-3.4-7.18-.34-15.76,6.84-19.16,7.18-3.4,15.76-.34,19.16,6.84Z"/>
              <path d="M555.61,233.49l12.32,26c-7.18,3.4-15.76,.34-19.16-6.84-3.4-7.18-.34-15.76,6.84-19.16Z"/>
            </g>
            <path d="M556.42,304.43c-7.38-2.95-10.96-11.33-8.01-18.7,2.95-7.38,11.32-10.97,18.71-8.01,7.38,2.95,10.96,11.33,8.01,18.7-2.95,7.38-11.33,10.96-18.7,8.01Z"/>
            <path d="M575.13,296.42l-26.72-10.69c2.95-7.38,11.32-10.97,18.71-8.01,7.38,2.95,10.96,11.33,8.01,18.7Z"/>
          </g>
          <g>
            <path d="M651.65,309.7c0,2.06-.84,3.93-2.2,5.28-1.36,1.36-3.23,2.2-5.28,2.2h-35.33c-4.11,0-7.48-3.37-7.48-7.48,0-2.06,.84-3.93,2.2-5.28,1.36-1.35,3.23-2.2,5.28-2.2h35.33c4.11,0,7.48,3.37,7.48,7.48Z"/>
            <path d="M633.43,309.7c0,2.06-.84,3.93-2.2,5.28-1.36,1.36-3.23,2.2-5.28,2.2h-17.11c-4.11,0-7.48-3.37-7.48-7.48,0-2.06,.84-3.93,2.2-5.28,1.36-1.35,3.23-2.2,5.28-2.2h17.11c4.11,0,7.48,3.37,7.48,7.48Z"/>
            <rect class="cls-9" x="610.01" y="303.88" width="35.82" height="2.36" rx="1.06" ry="1.06"/>
          </g>
          <g>
            <path d="M621.5,288.51c.98,1.95,1.07,4.12,.43,6.05-.64,1.93-2.01,3.62-3.96,4.59l-33.49,16.78c-3.9,1.95-8.69,.36-10.64-3.54-.98-1.95-1.07-4.12-.43-6.05,.64-1.93,2.01-3.61,3.96-4.59l33.49-16.78c3.9-1.95,8.69-.36,10.64,3.54Z"/>
            <path d="M604.23,297.16c.98,1.95,1.07,4.12,.43,6.05-.64,1.93-2.01,3.62-3.96,4.59l-16.22,8.13c-3.9,1.95-8.69,.36-10.64-3.54-.98-1.95-1.07-4.12-.43-6.05,.64-1.93,2.01-3.61,3.96-4.59l16.21-8.13c3.9-1.95,8.69-.36,10.64,3.54Z"/>
            <path class="cls-10" d="M613.84,286.99l-.11-.23c-.28-.55-.96-.78-1.51-.5l-31.94,16.01c-.55,.28-.78,.96-.5,1.51l.11,.23c.28,.55,.96,.78,1.51,.5l31.94-16.01c.55-.28,.78-.96,.5-1.51Z"/>
          </g>
        </g>
        <g>
          <path class="cls-24" d="M709.39,319.21l-30.51-.07-16.14-.04c-6.26-.02-11.38-5.15-11.36-11.42l.26-112.75c.01-6.26,5.15-11.38,11.41-11.36l14.31,.03,32.34,.07c6.26,.01,11.38,5.15,11.36,11.42l-.26,112.75c-.02,6.26-5.15,11.38-11.42,11.37Z"/>
          <path d="M715.93,287.26l-.8-5.94h0l-.8-5.94c-.2-1.51-1.01-2.81-2.14-3.67-1.13-.86-2.59-1.3-4.11-1.1-.17,.02-.33,.06-.49,.09,.56-.8,.87-1.71,.96-2.63,1.02,2.47,3.73,3.92,6.41,3.29,2.98-.71,4.83-3.72,4.13-6.69l-1.38-5.83h0l-1.38-5.83c-.35-1.49-1.28-2.69-2.5-3.44-1.21-.75-2.71-1.04-4.2-.68-2.98,.71-4.83,3.72-4.13,6.69l2.08,8.78c-.32-.46-.71-.88-1.17-1.23-.96-.74-2.08-1.1-3.21-1.14,.55-.71,.92-1.54,1.08-2.41,.21-1.13,.07-2.33-.45-3.41,.63-2.08,.01-4.44-1.76-5.91l-9.22-7.65c-2.35-1.95-5.88-1.63-7.83,.73-1.81,2.18-1.66,5.35,.24,7.36-.49,0-.99,.05-1.48,.19l-5.78,1.57h0l-5.78,1.57c-2.01,.55-3.47,2.15-3.94,4.04l-.6-1.45h0l-2.3-5.53c-1.17-2.83-4.44-4.18-7.27-3-2.83,1.17-4.18,4.44-3,7.27l2.3,5.53h0l1.47,3.54c-1.96,.78-3.4,2.64-3.52,4.88l-.31,5.98h0l-.31,5.98c-.08,1.53,.47,2.95,1.43,4.01,.95,1.06,2.31,1.76,3.83,1.84,.65,.03,1.28-.05,1.88-.23-.58,1.15-.74,2.49-.45,3.76-1.03,.59-1.88,1.5-2.36,2.67l-2.3,5.53h0l-2.3,5.53c-.59,1.41-.54,2.94,0,4.25,.54,1.32,1.59,2.43,3,3.02,2.2,.92,4.67,.29,6.21-1.37,.36,.86,.94,1.64,1.72,2.24,2.43,1.86,5.93,1.41,7.8-1.02l3.65-4.75h0l3.65-4.75c.5-.64,.82-1.37,1-2.12,1.27,.13,2.58-.17,3.71-.94l.96-.66-1.32,1.72h0l-3.65,4.75c-1.86,2.43-1.41,5.93,1.02,7.8,2.43,1.86,5.93,1.41,7.8-1.02l3.65-4.75h0l3.65-4.75c.05-.06,.09-.13,.13-.19,.29,.47,.65,.9,1.06,1.26l-1.3,1.69c-1.86,2.43-1.41,5.93,1.02,7.8,2.43,1.86,5.93,1.41,7.8-1.02l7.3-9.5c.93-1.21,1.28-2.7,1.1-4.11-.19-1.41-.9-2.76-2.12-3.69-.41-.32-.86-.56-1.33-.75,.07,0,.13,0,.2-.02,3.03-.41,5.18-3.22,4.77-6.25Zm-50.1-5.41l.11-2.04c.35,.59,.81,1.13,1.39,1.58,.22,.17,.44,.31,.68,.44l-2.55,1.75c.21-.54,.34-1.12,.38-1.73Zm37.48-4.99l1.07,7.98c-.47-.96-1.2-1.75-2.08-2.29-1.07-.66-2.37-.96-3.69-.78,.57-.35,1.09-.79,1.52-1.35l3.13-4.08c0,.17,.02,.34,.04,.52Zm-12.6-21.58l1.4,1.16-1.44,.99c.15-.69,.18-1.42,.05-2.15Zm1.17,17.63c-.14-.87-.48-1.67-.98-2.36,.41-.15,.82-.36,1.2-.62l4.39-3.01-4.61,5.99Zm3.62,10.41c-1.17-.98-2.7-1.43-4.19-1.27l.12-1.5c.26,.32,.56,.62,.91,.89,1.23,.94,2.74,1.29,4.17,1.09-.37,.23-.7,.49-1.01,.79Zm-11.16-21.07c-1.22,1.84-1.29,4.32,.03,6.24,.02,.04,.05,.07,.08,.1-.4,.15-.79,.35-1.14,.59,.25-.79,.33-1.62,.22-2.43-.19-1.41-.9-2.76-2.12-3.69,0,0-.01,0-.02-.01l2.95-.8Zm-5.56,13.36l2.15-2.8c-.03,.17-.06,.35-.07,.53l-.42,5.14c-.8-.73-1.79-1.19-2.82-1.37l1.16-1.51h0Zm-10.09,23.48l.63-1.52c.46-1.11,.53-2.29,.27-3.38,.13-.07,.25-.15,.38-.23l9.88-6.78c.06-.04,.12-.09,.18-.14,.13,.54,.34,1.05,.62,1.52l-1.76,1.21c-1.18,.81-1.95,2.01-2.25,3.31-1.85-.18-3.76,.56-4.97,2.13l-2.98,3.88Zm26.18-6.8l.31,1.29c-.5-.22-1.01-.37-1.54-.44l1.23-.85Zm11.74,1.32l-.42-1.79h0l-.08-.34c.6,.74,1.38,1.32,2.27,1.67-.61,.06-1.2,.21-1.76,.46Zm-33.62-28.71l-3.03,3.94h0l-3.65,4.75s-.03,.05-.05,.07l.2-3.77c0-.1,0-.19,0-.29,.17-.05,.34-.11,.51-.18,2.27-.94,3.58-3.23,3.41-5.56,.76,.56,1.66,.93,2.61,1.05Z"/>
          <path class="cls-10" d="M678.88,319.14l-16.14-.04c-6.26-.02-11.38-5.15-11.36-11.42l.26-112.75c.01-6.26,5.15-11.38,11.41-11.36l14.31,.03c1.18,2.03,1.86,4.45,1.85,7.05l-.3,127.35c0,.38-.02,.76-.05,1.14Z"/>
          <path d="M720.34,189.02l-43.34-.1-24.6-.06c-1.22,0-2.21-1-2.21-2.22l.02-10.62c0-1.22,1-2.21,2.22-2.21l24.56,.06s0,0,0,0l43.37,.1c1.22,0,2.21,1,2.21,2.22l-.02,10.62c0,1.22-1,2.21-2.22,2.21Z"/>
          <path d="M677,188.92l-24.6-.06c-1.22,0-2.21-1-2.21-2.22l.02-10.62c0-1.22,1-2.21,2.22-2.21l24.56,.06s0,0,0,0c1.21,0,2.21,1,2.2,2.22l-.02,10.62c0,1.21-.98,2.2-2.19,2.21Z"/>
        </g>
        <g>
          <g>
            <path d="M529.98,251.57l10.16,22.19h0s19.58,42.76,19.58,42.76c.33,.72,1.05,1.19,1.85,1.19h.16c1.44,0,2.48-1.37,2.09-2.76l-15.54-55.62-2.27-8.11-16.03,.35Z"/>
            <path d="M540.15,273.76c-.97-10.09,8.13-14.43,8.13-14.43l-2.27-8.11-16.03,.35,10.16,22.19Z"/>
          </g>
          <g>
            <path d="M634.95,251.57l10.16,22.19h0s19.58,42.76,19.58,42.76c.33,.72,1.05,1.19,1.85,1.19h.16c1.44,0,2.48-1.37,2.09-2.76l-15.54-55.62-2.27-8.11-16.03,.35Z"/>
            <path d="M645.11,273.76c-.97-10.09,8.13-14.43,8.13-14.43l-2.27-8.11-16.03,.35,10.16,22.19Z"/>
          </g>
          <rect x="196.77" y="207.85" width="472.1" height="45.46" rx="4.2" ry="4.2"/>
          <path d="M217.76,251.22l-2.27,8.11-15.54,55.62c-.38,1.38,.65,2.76,2.09,2.76h.16c.79,0,1.51-.46,1.85-1.19l19.58-42.76h0s10.16-22.2,10.16-22.2l-16.03-.35Z"/>
          <path d="M300.46,251.22l-2.27,8.11-15.54,55.62c-.38,1.38,.65,2.76,2.09,2.76h.16c.79,0,1.51-.46,1.85-1.19l19.58-42.76h0s10.16-22.2,10.16-22.2l-16.03-.35Z"/>
          <rect x="190.48" y="74.79" width="183.24" height="178.53" rx="4.82" ry="4.82"/>
          <path d="M380.02,79.53V222.9c0,2.61-1.89,4.74-4.2,4.74H200.97c-2.31,0-4.2-2.13-4.2-4.74V79.53c0-2.61,1.89-4.74,4.2-4.74h174.85c2.31,0,4.2,2.13,4.2,4.74Z"/>
          <path d="M230.09,219.98s-32.17-2.57-33.32-3.36v-29.53c6.78-6.42,20.1-13.72,20.1-13.72l13.21,46.61Z"/>
          <g>
            <path d="M239.27,109.27c0-1.7,1.18-3.08,2.64-3.08s2.64,1.38,2.64,3.08-1.18,3.08-2.64,3.08-2.64-1.38-2.64-3.08Z"/>
            <path d="M345.03,109.27c0-1.7,1.18-3.08,2.64-3.08s2.64,1.38,2.64,3.08-1.18,3.08-2.64,3.08-2.64-1.38-2.64-3.08Z"/>
            <path d="M239.27,167.42c0-1.7,1.18-3.08,2.64-3.08s2.64,1.38,2.64,3.08-1.18,3.08-2.64,3.08-2.64-1.38-2.64-3.08Z"/>
            <path d="M345.03,167.42c0-1.7,1.18-3.08,2.64-3.08s2.64,1.38,2.64,3.08-1.18,3.08-2.64,3.08-2.64-1.38-2.64-3.08Z"/>
          </g>
          <path d="M513.95,212.05v37.07c0,2.31-1.92,4.2-4.26,4.2H196.52c-2.34,0-4.26-1.89-4.26-4.2v-37.07c0-2.31,1.92-4.2,4.26-4.2H509.7c2.34,0,4.26,1.89,4.26,4.2Z"/>
        </g>
        <path d="M219.03,151.86s-11.77,34.21-5.6,56.29h20.35s7.51-40.27-14.75-56.29Z"/>
        <path d="M219.03,151.86s40.97-5.72,63.53,0l16.96,56.29h-65.74s7.51-33.69-14.75-56.29Z"/>
        <g>
          <path d="M161.89,157.53v160.18H50.12c-7.13-8.06-65.31-77.32-37.76-160.18H161.89Z"/>
          <path d="M76.65,157.53v160.18h-26.53c-7.13-8.06-65.31-77.32-37.76-160.18H76.65Z"/>
          <rect x="76.65" y="201.93" width="85.24" height=".57"/>
          <rect x="76.65" y="258.71" width="85.24" height=".57"/>
        </g>
        <path d="M298.84,85.99c-.14-.73-11.17,13.14-11.52,14.29-3.24,10.63,3.24,19.49,7.14,17.78,2.5-1.1,3.95,3.24,3.95,3.24l22.1-24.55s-12.37-17.8-21.67-10.76Z"/>
        <path d="M302.94,85.91s-4.04-11.2-16.03-5.58c0,0,4.1-.71,6.9,.38,0,0-9.75-.91-14.85,9.88-5.1,10.8,8.17,25.68,7.18,30.15s-10.55,9.74-4.37,19.8c6.18,10.06,42.49,9.3,44.67,18.99,0,0,3.68-22.85-8.45-26.81,0,0,5.92,1.95,8.49,6.35,0,0-3.09-9.5-10.15-9.7-6.25-.18-14.74-7.54-15.08-9.4-.34-1.87,1.69-34.06,1.69-34.06Z"/>
        <path d="M309.15,157.49c-16.78,3.61-17.06-22.21-16.01-22.25,1.9-1.41,4.79-7.25,5.54-16.39l.78,.22,13.13,3.81s-.67,4.18-1.02,8.14c-.28,3.1-.36,6.06,.22,6.79,1.02,.24,1.84,18.72-2.64,19.68Z"/>
        <path d="M312.6,122.89s-.67,4.18-1.02,8.14c-7.46-.86-10.81-8.02-12.11-11.94l13.13,3.81Z"/>
        <path d="M314.77,126.85s-17.71-1.25-16.77-12.26c.94-11.02-.7-18.6,10.64-18.27,11.35,.33,13.18,4.72,13.76,8.48,.58,3.75-3.01,22.1-7.64,22.06Z"/>
        <path d="M322.41,98.63c-2.45-3.55-4.57-3-5.82-2.11-9.2-6.15-22.75-1.17-22.75-1.17-1.87,7.8-1.33,14.16-1.33,14.16,0,0,3.05,2.27,10.65,1.01,2.32-.39,4.49-1.82,6.38-3.63-3.45,4.78-7.85,8.06-7.85,8.06,9.23-3.33,13.87-15.37,14.34-16.64,1,1.06,2.94,3.35,3.41,5.47,.64,2.88,.53,8.69,2.23,8.64,0,0,4.41-8.47,.74-13.79Z"/>
        <path d="M368.71,186.34l-16.08,9.06-24.77,13.96-13.72,7.73s-11.19,4.62-21.88-3.37c-3.87-2.9-6.97-9.95-10.16-16.98-11.97-26.41-6.94-59.16-6.94-59.16,.49-.16,6.32-2,12.43-2.43,8.91-.62,21.19-.89,29.27,1.03,2.25,.53,4.17,1.24,5.61,2.15,10.1,6.45,6.81,36.98,19.49,41.55,3.33,1.2,6.75,2.21,9.99,3.06,9.11,2.37,16.77,3.39,16.77,3.39Z"/>
        <path d="M316.86,136.19s37.77,25.82,40.35,30.36c0,0-20.19,4.3-34.74-5.79-14.55-10.09-5.61-24.56-5.61-24.56Z"/>
        <path d="M335.05,159.99c-1,1.77-2.14,2.83-2.67,3.26-.18,.15-.29,.22-.29,.22l-.03-.07-3.48-9.09-6.12-15.96c3.3,1.5,14.3,11.83,14.3,11.83,.53,4.45-.49,7.67-1.71,9.82Z"/>
        <path d="M352.63,195.4c-.33,.58-.76,1.04-1.32,1.34-7.73,4.26-8.54,12.23-23.46,12.61-3.17,.08-6.99-.18-11.64-.9-9.39-1.44-17.4,1.95-23.96,5.26-3.87-2.9-7.68-7.45-10.87-14.47-11.97-26.41-5.22-61.22-5.22-61.22,.49-.16,5.31-2.45,11.42-2.87,0,0,18.69,14.31,24.03,12.02,5.34-2.29,5.24-10.99,5.24-10.99,2.25,.53,4.17,1.24,5.61,2.15,10.1,6.45,6.81,36.98,19.49,41.55,3.33,1.2,6.75,2.21,9.99,3.06,1.54,5.53,2.03,10.07,.7,12.45Z"/>
        <path d="M335.05,159.99c-1,1.77-2.14,2.83-2.67,3.26l-.32,.15-2.38,1.13s-7.25-13.46-4.81-12.71c.75,.23,2.15,1.22,3.71,2.49,2.27,1.83,4.9,4.22,6.47,5.68Z"/>
        <path d="M350.32,163.46c1.76-.68,41.77,.94,41.77,.94h0l-32.71,7.01-9.06-7.95Z"/>
        <path d="M603.39,206.09s-18.96,23.42-24.89,24.9c-5.53,1.38-48-21.51-53.65-24.57h0c-.4-.22-.62-.34-.62-.34,0,0-223.94,57.79-229.37,56.8-4.7-.86-29.28-39.28-32.29-52.69-.2-.89-.31-1.67-.3-2.33v-.02c0-.86,.2-1.5,.62-1.86,5.43-4.75,54.39-49.11,72.93-41.73,18.54,7.38,90.56-12.79,109.33-9.97,18.77,2.82,158.25,51.8,158.25,51.8Z"/>
        <path d="M277.29,138.81s-14.89,3.41-5.03,19.03c9.86,15.61,42.29,40.26,44.03,38.85,1.74-1.41,2.8-6.69,2.44-9.86-.35-3.17-31.99-51.28-41.44-48.02Z"/>
        <path d="M381.6,178.31c-2.69-2.01-4.9-2.16-7.12-2.52-5.85-.95-7.48,.14-10.85,1.59,0,0-39.01,1.61-47.41,4.62l.07,14.68s28.93-6.78,46.81-14.52c1.11-.48,2.33-.62,3.52-.43,2.52,.41,7.01,.76,9.74,.42,6.22-.77,7.05-2.5,5.24-3.85Z"/>
        <path d="M360.96,180.39s2.8-2.12,3.74-3.23c.94-1.11,4.59-1.79,6.46-3.06,1.87-1.28,2.55-1.53,2.13,0-.43,1.53-2.23,2.6-1.63,3.2,.59,.6,1.75,3.22,1.75,3.22l-12.44-.12Z"/>
        <path d="M287.59,135.16s-11.41-.25-15.63,4.22c-6.37,6.75-2.68,19.05-.1,23.63,0,0,18.13,3.64,23.85-9.8l-8.12-18.05Z"/>
        <path d="M524.23,206.09s-223.94,57.79-229.37,56.8c-4.7-.86-29.28-39.28-32.29-52.69l-.3-2.33v-.03s0,0,0,0c.39,.15,26.75,10.68,51.88,9.24,25.32-1.45,194.61-15.4,210.09-11Z"/>
        <path d="M524.84,206.43c-.4-.22-.62-.34-.62-.34,.29,.08,.49,.19,.62,.34Z"/>
        <path d="M603.39,206.09s-18.96,23.42-24.89,24.9c-5.53,1.38-55.45-20.08-61.1-23.15,0,0,3.52-.91,3.52-.91,1.11-.29,3.31-.85,3.31-.85,0,0,38.64-1.49,49.23,.17,10.58,1.66,29.93-.17,29.93-.17Z"/>
        <g>
          <path d="M94.7,142.08v10.71c0,2.6-1.38,4.73-3.07,4.73h-5.45c-1.69,0-3.07-2.13-3.07-4.73v-10.71c0-1.9,.74-3.55,1.8-4.3,.75-.53,1.22-1.72,1.22-3v-1.79c0-1.27,.68-2.32,1.5-2.32h2.55c.83,0,1.5,1.05,1.5,2.32v1.6c0,1.4,.52,2.64,1.33,3.27,1,.78,1.69,2.38,1.69,4.22Z"/>
          <rect x="85.63" y="129.31" width="6.56" height="6.06" rx=".54" ry=".54"/>
          <rect x="83.11" y="143.65" width="11.59" height="7.32"/>
        </g>
        <g>
          <g>
            <path d="M143.48,143.94h9.14c4.91,0,8.9-3.99,8.9-8.9v-9.14c0-4.91-3.99-8.9-8.9-8.9h-9.14c-4.91,0-8.9,3.99-8.9,8.9v9.14c0,4.91,3.99,8.9,8.9,8.9Zm9.14-23.33c2.92,0,5.29,2.37,5.29,5.29v9.14c0,2.92-2.37,5.29-5.29,5.29h-9.14c-2.92,0-5.29-2.37-5.29-5.29v-9.14c0-2.92,2.37-5.29,5.29-5.29h9.14Z"/>
            <path d="M98.17,109.84v34.94c0,6.18,5.05,11.23,11.23,11.23h27.56c.91,0,1.8-.11,2.65-.32,4.91-1.2,8.57-5.65,8.57-10.91v-34.94c0-.09,0-.17,0-.25h-50.01c0,.09,0,.17,0,.25Z"/>
            <path d="M146.58,126.44c0,.05,0,.1,0,.16l-.34,19.57c0,3.77-4.39,8.6-10.17,8.6h-25.8c-5.78,0-10.22-4.66-10.22-8.43l-.29-19.74c0-.05,0-.1,0-.16,0,0,18.08-4.79,26.74-1.32,4.67,1.87,20.07,1.32,20.07,1.32Z"/>
            <path d="M109.25,155.92h28.24c.42,0,.76,.34,.76,.76s-.34,.76-.76,.76h-28.24c-.42,0-.76-.34-.76-.76s.34-.76,.76-.76Z"/>
            <g>
              <path d="M109.84,153.25c-6.6-3.2-9.9-9.84-7.11-16.85,.28-.71,.61-1.38,.97-2l21.98,14.65c-3.5,4.85-10.13,6.97-15.84,4.2Z"/>
              <path d="M109.95,153c-6.44-3.12-9.66-9.6-6.94-16.44,.28-.71,.6-1.37,.96-1.98l21.45,14.3c-3.41,4.75-9.9,6.83-15.48,4.13Z"/>
              <g>
                <path d="M114.48,142.94l-4.95,6.95c-.37,.52-.16,1.24,.42,1.49,.71,.3,1.72,.66,2.84,.9,1.3,.28,2.44,.38,3.24,.41,.62,.02,1.1-.55,.96-1.16l-1.88-8.45c-.07-.3-.46-.38-.64-.13Z"/>
                <path d="M113.48,140.91l-8.1-5.4c-.27,.5-.54,1.08-.79,1.7-.48,1.24-.76,2.35-.91,3.14-.12,.61,.37,1.17,.99,1.14l8.64-.52c.07,0,.12-.02,.17-.06Z"/>
                <path d="M113.49,141.8l-8.51,.51c-.63,.04-1.07,.65-.89,1.26,.22,.74,.57,1.75,1.08,2.77,.6,1.18,1.24,2.14,1.72,2.78,.37,.5,1.12,.51,1.51,.02l5.39-6.77c.19-.24,0-.6-.3-.58Z"/>
                <path d="M124.22,148.07l-8.23-5.48c-.1,.09-.15,.22-.1,.37l2.43,8.17c.18,.61,.88,.89,1.43,.58,.67-.38,1.58-.95,2.46-1.68,.84-.7,1.51-1.39,2.01-1.96Z"/>
              </g>
            </g>
            <g>
              <path d="M143.43,143.33c-4.23,4.19-10.19,4.92-14.81,.9-.47-.41-.89-.84-1.27-1.28l17.13-12.87c2.77,3.99,2.6,9.63-1.06,13.25Z"/>
              <path d="M143.27,143.18c-4.13,4.09-9.95,4.8-14.45,.88-.46-.41-.88-.83-1.26-1.27l16.72-12.56c2.72,3.89,2.56,9.42-1.02,12.96Z"/>
              <g>
                <path d="M136.79,137l3.98,5.66c.3,.42,.91,.46,1.25,.08,.42-.47,.97-1.14,1.45-1.93,.56-.92,.95-1.77,1.19-2.37,.19-.47-.12-.99-.63-1.05l-6.97-.84c-.25-.03-.42,.25-.27,.46Z"/>
                <path d="M134.97,137.22l-6.32,4.74c.31,.34,.68,.71,1.09,1.06,.82,.7,1.59,1.21,2.16,1.55,.44,.26,1,.03,1.14-.45l1.93-6.75c.01-.05,.02-.1,0-.15Z"/>
                <path d="M135.65,137.45l-1.9,6.65c-.14,.5,.21,.99,.73,1.02,.63,.03,1.49,.04,2.41-.08,1.07-.14,1.97-.37,2.59-.57,.48-.15,.69-.72,.42-1.15l-3.73-5.95c-.13-.21-.46-.17-.53,.07Z"/>
                <path d="M143.34,130.93l-6.41,4.82c.04,.1,.13,.17,.25,.18l6.91,.34c.51,.03,.92-.43,.83-.94-.11-.62-.3-1.46-.63-2.33-.31-.83-.66-1.53-.95-2.07Z"/>
              </g>
            </g>
            <g>
              <path d="M125.92,152.92c2.7,2.17,6.34-.63,7.78-1.08,1.44-.45,3.42-2.81,3.42-2.81,0,0-4.6-.98-7.94-.14-3.29,.83-3.25,3.94-3.25,4.02h0Z"/>
              <path d="M125.92,152.92c.03-.06,1.93-3.45,11.19-3.88,0,0-4.6-.98-7.94-.14-3.29,.83-3.25,3.94-3.25,4.02Z"/>
            </g>
            <g>
              <path d="M115.87,145.09c1.21,3.25,5.77,2.7,7.23,3.06,1.46,.35,4.37-.66,4.37-.66,0,0-3.45-3.2-6.75-4.18-3.25-.97-4.81,1.72-4.85,1.79h0Z"/>
              <path d="M115.87,145.09c.06-.03,3.43-1.97,11.6,2.39,0,0-3.45-3.2-6.75-4.18-3.25-.97-4.81,1.72-4.85,1.79Z"/>
            </g>
            <path class="cls-9" d="M98.17,109.84v34.94c0,6.18,5.05,11.23,11.23,11.23h9.27v-46.42h-20.49c0,.09,0,.17,0,.25Z"/>
            <path class="cls-10" d="M134.24,109.58v46.42h2.72c.91,0,1.8-.11,2.65-.32v-46.1h-5.37Z"/>
          </g>
          <path class="cls-17" d="M142.84,109.58s2.15-7.58-3.58-9.81c-12.44-4.86-4.63-11.13-13.37-14.06-8.74-2.93-18.36,6.73-11.69,13.41,3.35,3.36-13.35,5.96-14.13,10.46h42.77Z"/>
        </g>
      </g>
      <g>
        <g>
          <g>
            <path class="cls-39" d="M631.7,84.01v118.46c0,7.27-5.95,13.22-13.22,13.22h-70.41c-1.88,0-3.68-.4-5.31-1.12-4.65-2.05-7.91-6.71-7.91-12.1V84.01c0-7.27,5.95-13.22,13.22-13.22h70.41c7.27,0,13.22,5.95,13.22,13.22Z"/>
            <path class="cls-3" d="M600.51,115.34c-7.44-2.79-11.21-11.09-8.41-18.53,2.79-7.44,11.09-11.21,18.53-8.41,7.44,2.79,11.21,11.09,8.41,18.53-2.79,7.44-11.09,11.21-18.53,8.41Z"/>
            <path class="cls-2" d="M619.04,106.92l-26.94-10.12c2.79-7.44,11.09-11.21,18.53-8.41,7.44,2.79,11.21,11.09,8.41,18.53Z"/>
            <path class="cls-3" d="M551.89,113.01c-6.16-5.03-7.07-14.09-2.05-20.25,5.02-6.15,14.09-7.07,20.25-2.05,6.16,5.02,7.07,14.09,2.05,20.25-5.02,6.15-14.09,7.07-20.25,2.05Z"/>
            <path class="cls-2" d="M572.13,110.97l-22.29-18.2c5.02-6.15,14.09-7.07,20.25-2.05,6.16,5.02,7.07,14.09,2.05,20.25Z"/>
          </g>
          <g>
            <rect class="cls-2" x="549.84" y="100.89" width="96.85" height="144.9" rx="13.22" ry="13.22"/>
            <path class="cls-39" d="M565.84,100.89h70.41c7.3,0,13.22,5.92,13.22,13.22v118.46c0,7.3-5.92,13.22-13.22,13.22h-70.41c-7.3,0-13.22-5.92-13.22-13.22V114.1c0-7.3,5.92-13.22,13.22-13.22Z"/>
            <path class="cls-3" d="M618.28,145.43c-7.44-2.79-11.21-11.09-8.41-18.53,2.79-7.44,11.09-11.21,18.53-8.41,7.44,2.79,11.21,11.09,8.41,18.53-2.79,7.44-11.09,11.21-18.53,8.41Z"/>
            <path class="cls-2" d="M636.81,137.02l-26.94-10.12c2.79-7.44,11.09-11.21,18.53-8.41,7.44,2.79,11.21,11.09,8.41,18.53Z"/>
            <path class="cls-3" d="M569.66,143.11c-6.16-5.03-7.07-14.09-2.05-20.25,5.02-6.16,14.09-7.07,20.25-2.05,6.15,5.02,7.07,14.09,2.05,20.25-5.02,6.15-14.09,7.07-20.25,2.05Z"/>
            <path class="cls-2" d="M589.9,141.06l-22.29-18.2c5.02-6.16,14.09-7.07,20.25-2.05,6.15,5.02,7.07,14.09,2.05,20.25Z"/>
          </g>
          <g>
            <rect class="cls-29" x="527.98" y="148.14" width="110.59" height="165.04"/>
            <rect class="cls-20" x="543.39" y="148.14" width="110.59" height="165.04"/>
            <polygon class="cls-1" points="543.39 157.72 538.09 165.96 527.98 165.96 527.98 148.14 543.39 148.14 543.39 157.72"/>
            <polygon class="cls-20" points="527.98 148.14 518.54 161.14 533.94 161.14 543.39 148.14 527.98 148.14"/>
            <polygon class="cls-13" points="543.39 155.66 543.39 313.71 600.43 313.71 600.43 161.14 543.39 155.66"/>
            <g>
              <polygon class="cls-22" points="653.98 161.14 645 165.96 548.72 165.96 543.39 157.72 543.39 148.14 653.98 161.14"/>
              <polygon class="cls-20" points="653.98 148.14 543.39 148.14 551.2 161.14 661.79 161.14 653.98 148.14"/>
            </g>
          </g>
          <g>
            <rect class="cls-39" x="480.17" y="216.35" width="144.9" height="96.85" rx="13.22" ry="13.22"/>
            <path class="cls-3" d="M524.72,247.55c-2.79,7.44-11.09,11.21-18.53,8.41s-11.21-11.09-8.41-18.53c2.79-7.44,11.09-11.21,18.53-8.41,7.44,2.79,11.21,11.09,8.41,18.53Z"/>
            <path class="cls-2" d="M516.31,229.02l-10.12,26.94c-7.44-2.79-11.21-11.09-8.41-18.53,2.79-7.44,11.09-11.21,18.53-8.41Z"/>
            <path class="cls-3" d="M522.4,296.17c-5.03,6.16-14.09,7.07-20.25,2.05-6.16-5.02-7.07-14.09-2.05-20.25,5.02-6.15,14.09-7.07,20.25-2.05,6.15,5.02,7.07,14.09,2.05,20.25Z"/>
            <path class="cls-2" d="M520.35,275.93l-18.2,22.29c-6.16-5.02-7.07-14.09-2.05-20.25,5.02-6.15,14.09-7.07,20.25-2.05Z"/>
            <path class="cls-3" d="M612.49,247.55c-2.79,7.44-11.09,11.21-18.53,8.41-7.44-2.79-11.21-11.09-8.41-18.53,2.79-7.44,11.09-11.21,18.53-8.41,7.44,2.79,11.21,11.09,8.41,18.53Z"/>
            <path class="cls-2" d="M604.08,229.02l-10.12,26.94c-7.44-2.79-11.21-11.09-8.41-18.53,2.79-7.44,11.09-11.21,18.53-8.41Z"/>
            <path class="cls-3" d="M610.17,296.17c-4.85,5.95-13.47,7-19.6,2.54-.22-.15-.43-.32-.64-.49-6.16-5.02-7.07-14.09-2.05-20.24,5.02-6.16,14.09-7.07,20.24-2.05,.21,.17,.41,.35,.61,.53,5.6,5.11,6.29,13.77,1.44,19.72Z"/>
            <path class="cls-2" d="M608.73,276.45l-18.17,22.25c-.22-.15-.43-.32-.64-.49-6.16-5.02-7.07-14.09-2.05-20.24,5.02-6.16,14.09-7.07,20.24-2.05,.21,.17,.41,.35,.61,.53Z"/>
            <g>
              <path class="cls-3" d="M569.77,236.33c3.4,7.18,.34,15.76-6.84,19.16-7.18,3.4-15.76,.34-19.16-6.84-3.4-7.18-.34-15.76,6.84-19.16,7.18-3.4,15.76-.34,19.16,6.84Z"/>
              <path class="cls-2" d="M550.61,229.49l12.32,26c-7.18,3.4-15.76,.34-19.16-6.84-3.4-7.18-.34-15.76,6.84-19.16Z"/>
            </g>
            <path class="cls-3" d="M551.42,300.43c-7.38-2.95-10.96-11.33-8.01-18.7,2.95-7.38,11.32-10.97,18.71-8.01,7.38,2.95,10.96,11.33,8.01,18.7-2.95,7.38-11.33,10.96-18.7,8.01Z"/>
            <path class="cls-2" d="M570.13,292.42l-26.72-10.69c2.95-7.38,11.32-10.97,18.71-8.01,7.38,2.95,10.96,11.33,8.01,18.7Z"/>
          </g>
          <g>
            <path class="cls-37" d="M646.65,305.7c0,2.06-.84,3.93-2.2,5.28-1.36,1.36-3.23,2.2-5.28,2.2h-35.33c-4.11,0-7.48-3.37-7.48-7.48,0-2.06,.84-3.93,2.2-5.28,1.36-1.35,3.23-2.2,5.28-2.2h35.33c4.11,0,7.48,3.37,7.48,7.48Z"/>
            <path class="cls-26" d="M628.43,305.7c0,2.06-.84,3.93-2.2,5.28-1.36,1.36-3.23,2.2-5.28,2.2h-17.11c-4.11,0-7.48-3.37-7.48-7.48,0-2.06,.84-3.93,2.2-5.28,1.36-1.35,3.23-2.2,5.28-2.2h17.11c4.11,0,7.48,3.37,7.48,7.48Z"/>
            <rect class="cls-8" x="605.01" y="299.88" width="35.82" height="2.36" rx="1.06" ry="1.06"/>
          </g>
          <g>
            <path class="cls-29" d="M616.5,284.51c.98,1.95,1.07,4.12,.43,6.05-.64,1.93-2.01,3.62-3.96,4.59l-33.49,16.78c-3.9,1.95-8.69,.36-10.64-3.54-.98-1.95-1.07-4.12-.43-6.05,.64-1.93,2.01-3.61,3.96-4.59l33.49-16.78c3.9-1.95,8.69-.36,10.64,3.54Z"/>
            <path class="cls-20" d="M599.23,293.16c.98,1.95,1.07,4.12,.43,6.05-.64,1.93-2.01,3.62-3.96,4.59l-16.22,8.13c-3.9,1.95-8.69,.36-10.64-3.54-.98-1.95-1.07-4.12-.43-6.05,.64-1.93,2.01-3.61,3.96-4.59l16.21-8.13c3.9-1.95,8.69-.36,10.64,3.54Z"/>
            <path class="cls-11" d="M608.84,282.99l-.11-.23c-.28-.55-.96-.78-1.51-.5l-31.94,16.01c-.55,.28-.78,.96-.5,1.51l.11,.23c.28,.55,.96,.78,1.51,.5l31.94-16.01c.55-.28,.78-.96,.5-1.51Z"/>
          </g>
        </g>
        <g>
          <path class="cls-21" d="M704.39,315.21l-30.51-.07-16.14-.04c-6.26-.02-11.38-5.15-11.36-11.42l.26-112.75c.01-6.26,5.15-11.38,11.41-11.36l14.31,.03,32.34,.07c6.26,.01,11.38,5.15,11.36,11.42l-.26,112.75c-.02,6.26-5.15,11.38-11.42,11.37Z"/>
          <path class="cls-22" d="M710.93,283.26l-.8-5.94h0l-.8-5.94c-.2-1.51-1.01-2.81-2.14-3.67-1.13-.86-2.59-1.3-4.11-1.1-.17,.02-.33,.06-.49,.09,.56-.8,.87-1.71,.96-2.63,1.02,2.47,3.73,3.92,6.41,3.29,2.98-.71,4.83-3.72,4.13-6.69l-1.38-5.83h0l-1.38-5.83c-.35-1.49-1.28-2.69-2.5-3.44-1.21-.75-2.71-1.04-4.2-.68-2.98,.71-4.83,3.72-4.13,6.69l2.08,8.78c-.32-.46-.71-.88-1.17-1.23-.96-.74-2.08-1.1-3.21-1.14,.55-.71,.92-1.54,1.08-2.41,.21-1.13,.07-2.33-.45-3.41,.63-2.08,.01-4.44-1.76-5.91l-9.22-7.65c-2.35-1.95-5.88-1.63-7.83,.73-1.81,2.18-1.66,5.35,.24,7.36-.49,0-.99,.05-1.48,.19l-5.78,1.57h0l-5.78,1.57c-2.01,.55-3.47,2.15-3.94,4.04l-.6-1.45h0l-2.3-5.53c-1.17-2.83-4.44-4.18-7.27-3s-4.18,4.44-3,7.27l2.3,5.53h0l1.47,3.54c-1.96,.78-3.4,2.64-3.52,4.88l-.31,5.98h0l-.31,5.98c-.08,1.53,.47,2.95,1.43,4.01,.95,1.06,2.31,1.76,3.83,1.84,.65,.03,1.28-.05,1.88-.23-.58,1.15-.74,2.49-.45,3.76-1.03,.59-1.88,1.5-2.36,2.67l-2.3,5.53h0l-2.3,5.53c-.59,1.41-.54,2.94,0,4.25,.54,1.32,1.59,2.43,3,3.02,2.2,.92,4.67,.29,6.21-1.37,.36,.86,.94,1.64,1.72,2.24,2.43,1.86,5.93,1.41,7.8-1.02l3.65-4.75h0l3.65-4.75c.5-.64,.82-1.37,1-2.12,1.27,.13,2.58-.17,3.71-.94l.96-.66-1.32,1.72h0l-3.65,4.75c-1.86,2.43-1.41,5.93,1.02,7.8,2.43,1.86,5.93,1.41,7.8-1.02l3.65-4.75h0l3.65-4.75c.05-.06,.09-.13,.13-.19,.29,.47,.65,.9,1.06,1.26l-1.3,1.69c-1.86,2.43-1.41,5.93,1.02,7.8,2.43,1.86,5.93,1.41,7.8-1.02l7.3-9.5c.93-1.21,1.28-2.7,1.1-4.11-.19-1.41-.9-2.76-2.12-3.69-.41-.32-.86-.56-1.33-.75,.07,0,.13,0,.2-.02,3.03-.41,5.18-3.22,4.77-6.25Zm-50.1-5.41l.11-2.04c.35,.59,.81,1.13,1.39,1.58,.22,.17,.44,.31,.68,.44l-2.55,1.75c.21-.54,.34-1.12,.38-1.73Zm37.48-4.99l1.07,7.98c-.47-.96-1.2-1.75-2.08-2.29-1.07-.66-2.37-.96-3.69-.78,.57-.35,1.09-.79,1.52-1.35l3.13-4.08c0,.17,.02,.34,.04,.52Zm-12.6-21.58l1.4,1.16-1.44,.99c.15-.69,.18-1.42,.05-2.15Zm1.17,17.63c-.14-.87-.48-1.67-.98-2.36,.41-.15,.82-.36,1.2-.62l4.39-3.01-4.61,5.99Zm3.62,10.41c-1.17-.98-2.7-1.43-4.19-1.27l.12-1.5c.26,.32,.56,.62,.91,.89,1.23,.94,2.74,1.29,4.17,1.09-.37,.23-.7,.49-1.01,.79Zm-11.16-21.07c-1.22,1.84-1.29,4.32,.03,6.24,.02,.04,.05,.07,.08,.1-.4,.15-.79,.35-1.14,.59,.25-.79,.33-1.62,.22-2.43-.19-1.41-.9-2.76-2.12-3.69,0,0-.01,0-.02-.01l2.95-.8Zm-5.56,13.36l2.15-2.8c-.03,.17-.06,.35-.07,.53l-.42,5.14c-.8-.73-1.79-1.19-2.82-1.37l1.16-1.51h0Zm-10.09,23.48l.63-1.52c.46-1.11,.53-2.29,.27-3.38,.13-.07,.25-.15,.38-.23l9.88-6.78c.06-.04,.12-.09,.18-.14,.13,.54,.34,1.05,.62,1.52l-1.76,1.21c-1.18,.81-1.95,2.01-2.25,3.31-1.85-.18-3.76,.56-4.97,2.13l-2.98,3.88Zm26.18-6.8l.31,1.29c-.5-.22-1.01-.37-1.54-.44l1.23-.85Zm11.74,1.32l-.42-1.79h0l-.08-.34c.6,.74,1.38,1.32,2.27,1.67-.61,.06-1.2,.21-1.76,.46Zm-33.62-28.71l-3.03,3.94h0l-3.65,4.75s-.03,.05-.05,.07l.2-3.77c0-.1,0-.19,0-.29,.17-.05,.34-.11,.51-.18,2.27-.94,3.58-3.23,3.41-5.56,.76,.56,1.66,.93,2.61,1.05Z"/>
          <path class="cls-12" d="M673.88,315.14l-16.14-.04c-6.26-.02-11.38-5.15-11.36-11.42l.26-112.75c.01-6.26,5.15-11.38,11.41-11.36l14.31,.03c1.18,2.03,1.86,4.45,1.85,7.05l-.3,127.35c0,.38-.02,.76-.05,1.14Z"/>
          <path class="cls-39" d="M715.34,185.02l-43.34-.1-24.6-.06c-1.22,0-2.21-1-2.21-2.22l.02-10.62c0-1.22,1-2.21,2.22-2.21l24.56,.06s0,0,0,0l43.37,.1c1.22,0,2.21,1,2.21,2.22l-.02,10.62c0,1.22-1,2.21-2.22,2.21Z"/>
          <path class="cls-2" d="M672,184.92l-24.6-.06c-1.22,0-2.21-1-2.21-2.22l.02-10.62c0-1.22,1-2.21,2.22-2.21l24.56,.06s0,0,0,0c1.21,0,2.21,1,2.2,2.22l-.02,10.62c0,1.21-.98,2.2-2.19,2.21Z"/>
        </g>
        <g>
          <g>
            <path class="cls-32" d="M524.98,247.57l10.16,22.19h0s19.58,42.76,19.58,42.76c.33,.72,1.05,1.19,1.85,1.19h.16c1.44,0,2.48-1.37,2.09-2.76l-15.54-55.62-2.27-8.11-16.03,.35Z"/>
            <path class="cls-40" d="M535.15,269.76c-.97-10.09,8.13-14.43,8.13-14.43l-2.27-8.11-16.03,.35,10.16,22.19Z"/>
          </g>
          <g>
            <path class="cls-32" d="M629.95,247.57l10.16,22.19h0s19.58,42.76,19.58,42.76c.33,.72,1.05,1.19,1.85,1.19h.16c1.44,0,2.48-1.37,2.09-2.76l-15.54-55.62-2.27-8.11-16.03,.35Z"/>
            <path class="cls-40" d="M640.11,269.76c-.97-10.09,8.13-14.43,8.13-14.43l-2.27-8.11-16.03,.35,10.16,22.19Z"/>
          </g>
          <rect class="cls-32" x="191.77" y="203.85" width="472.1" height="45.46" rx="4.2" ry="4.2"/>
          <path class="cls-40" d="M212.76,247.22l-2.27,8.11-15.54,55.62c-.38,1.38,.65,2.76,2.09,2.76h.16c.79,0,1.51-.46,1.85-1.19l19.58-42.76h0s10.16-22.2,10.16-22.2l-16.03-.35Z"/>
          <path class="cls-40" d="M295.46,247.22l-2.27,8.11-15.54,55.62c-.38,1.38,.65,2.76,2.09,2.76h.16c.79,0,1.51-.46,1.85-1.19l19.58-42.76h0s10.16-22.2,10.16-22.2l-16.03-.35Z"/>
          <rect class="cls-40" x="185.48" y="70.79" width="183.24" height="178.53" rx="4.82" ry="4.82"/>
          <path class="cls-19" d="M375.02,75.53V218.9c0,2.61-1.89,4.74-4.2,4.74H195.97c-2.31,0-4.2-2.13-4.2-4.74V75.53c0-2.61,1.89-4.74,4.2-4.74h174.85c2.31,0,4.2,2.13,4.2,4.74Z"/>
          <path class="cls-34" d="M225.09,215.98s-32.17-2.57-33.32-3.36v-29.53c6.78-6.42,20.1-13.72,20.1-13.72l13.21,46.61Z"/>
          <g>
            <path class="cls-34" d="M234.27,105.27c0-1.7,1.18-3.08,2.64-3.08s2.64,1.38,2.64,3.08-1.18,3.08-2.64,3.08-2.64-1.38-2.64-3.08Z"/>
            <path class="cls-34" d="M340.03,105.27c0-1.7,1.18-3.08,2.64-3.08s2.64,1.38,2.64,3.08-1.18,3.08-2.64,3.08-2.64-1.38-2.64-3.08Z"/>
            <path class="cls-34" d="M234.27,163.42c0-1.7,1.18-3.08,2.64-3.08s2.64,1.38,2.64,3.08-1.18,3.08-2.64,3.08-2.64-1.38-2.64-3.08Z"/>
            <path class="cls-34" d="M340.03,163.42c0-1.7,1.18-3.08,2.64-3.08s2.64,1.38,2.64,3.08-1.18,3.08-2.64,3.08-2.64-1.38-2.64-3.08Z"/>
          </g>
          <path class="cls-40" d="M508.95,208.05v37.07c0,2.31-1.92,4.2-4.26,4.2H191.52c-2.34,0-4.26-1.89-4.26-4.2v-37.07c0-2.31,1.92-4.2,4.26-4.2H504.7c2.34,0,4.26,1.89,4.26,4.2Z"/>
        </g>
        <path class="cls-32" d="M214.03,147.86s-11.77,34.21-5.6,56.29h20.35s7.51-40.27-14.75-56.29Z"/>
        <path class="cls-25" d="M214.03,147.86s40.97-5.72,63.53,0l16.96,56.29h-65.74s7.51-33.69-14.75-56.29Z"/>
        <g>
          <path class="cls-19" d="M156.89,153.53v160.18H45.12c-7.13-8.06-65.31-77.32-37.76-160.18H156.89Z"/>
          <path class="cls-32" d="M71.65,153.53v160.18h-26.53c-7.13-8.06-65.31-77.32-37.76-160.18H71.65Z"/>
          <rect class="cls-40" x="71.65" y="197.93" width="85.24" height=".57"/>
          <rect class="cls-40" x="71.65" y="254.71" width="85.24" height=".57"/>
        </g>
        <path class="cls-31" d="M293.84,81.99c-.14-.73-11.17,13.14-11.52,14.29-3.24,10.63,3.24,19.49,7.14,17.78,2.5-1.1,3.95,3.24,3.95,3.24l22.1-24.55s-12.37-17.8-21.67-10.76Z"/>
        <path class="cls-31" d="M297.94,81.91s-4.04-11.2-16.03-5.58c0,0,4.1-.71,6.9,.38,0,0-9.75-.91-14.85,9.88-5.1,10.8,8.17,25.68,7.18,30.15s-10.55,9.74-4.37,19.8c6.18,10.06,42.49,9.3,44.67,18.99,0,0,3.68-22.85-8.45-26.81,0,0,5.92,1.95,8.49,6.35,0,0-3.09-9.5-10.15-9.7-6.25-.18-14.74-7.54-15.08-9.4-.34-1.87,1.69-34.06,1.69-34.06Z"/>
        <path class="cls-35" d="M304.15,153.49c-16.78,3.61-17.06-22.21-16.01-22.25,1.9-1.41,4.79-7.25,5.54-16.39l.78,.22,13.13,3.81s-.67,4.18-1.02,8.14c-.28,3.1-.36,6.06,.22,6.79,1.02,.24,1.84,18.72-2.64,19.68Z"/>
        <path class="cls-33" d="M307.6,118.89s-.67,4.18-1.02,8.14c-7.46-.86-10.81-8.02-12.11-11.94l13.13,3.81Z"/>
        <path class="cls-35" d="M309.77,122.85s-17.71-1.25-16.77-12.26c.94-11.02-.7-18.6,10.64-18.27,11.35,.33,13.18,4.72,13.76,8.48,.58,3.75-3.01,22.1-7.64,22.06Z"/>
        <path class="cls-31" d="M317.41,94.63c-2.45-3.55-4.57-3-5.82-2.11-9.2-6.15-22.75-1.17-22.75-1.17-1.87,7.8-1.33,14.16-1.33,14.16,0,0,3.05,2.27,10.65,1.01,2.32-.39,4.49-1.82,6.38-3.63-3.45,4.78-7.85,8.06-7.85,8.06,9.23-3.33,13.87-15.37,14.34-16.64,1,1.06,2.94,3.35,3.41,5.47,.64,2.88,.53,8.69,2.23,8.64,0,0,4.41-8.47,.74-13.79Z"/>
        <path class="cls-35" d="M363.71,182.34l-16.08,9.06-24.77,13.96-13.72,7.73s-11.19,4.62-21.88-3.37c-3.87-2.9-6.97-9.95-10.16-16.98-11.97-26.41-6.94-59.16-6.94-59.16,.49-.16,6.32-2,12.43-2.43,8.91-.62,21.19-.89,29.27,1.03,2.25,.53,4.17,1.24,5.61,2.15,10.1,6.45,6.81,36.98,19.49,41.55,3.33,1.2,6.75,2.21,9.99,3.06,9.11,2.37,16.77,3.39,16.77,3.39Z"/>
        <path class="cls-35" d="M311.86,132.19s37.77,25.82,40.35,30.36c0,0-20.19,4.3-34.74-5.79-14.55-10.09-5.61-24.56-5.61-24.56Z"/>
        <path class="cls-39" d="M330.05,155.99c-1,1.77-2.14,2.83-2.67,3.26-.18,.15-.29,.22-.29,.22l-.03-.07-3.48-9.09-6.12-15.96c3.3,1.5,14.3,11.83,14.3,11.83,.53,4.45-.49,7.67-1.71,9.82Z"/>
        <path class="cls-39" d="M347.63,191.4c-.33,.58-.76,1.04-1.32,1.34-7.73,4.26-8.54,12.23-23.46,12.61-3.17,.08-6.99-.18-11.64-.9-9.39-1.44-17.4,1.95-23.96,5.26-3.87-2.9-7.68-7.45-10.87-14.47-11.97-26.41-5.22-61.22-5.22-61.22,.49-.16,5.31-2.45,11.42-2.87,0,0,18.69,14.31,24.03,12.02,5.34-2.29,5.24-10.99,5.24-10.99,2.25,.53,4.17,1.24,5.61,2.15,10.1,6.45,6.81,36.98,19.49,41.55,3.33,1.2,6.75,2.21,9.99,3.06,1.54,5.53,2.03,10.07,.7,12.45Z"/>
        <path class="cls-2" d="M330.05,155.99c-1,1.77-2.14,2.83-2.67,3.26l-.32,.15-2.38,1.13s-7.25-13.46-4.81-12.71c.75,.23,2.15,1.22,3.71,2.49,2.27,1.83,4.9,4.22,6.47,5.68Z"/>
        <path class="cls-35" d="M345.32,159.46c1.76-.68,41.77,.94,41.77,.94h0l-32.71,7.01-9.06-7.95Z"/>
        <path class="cls-38" d="M598.39,202.09s-18.96,23.42-24.89,24.9c-5.53,1.38-48-21.51-53.65-24.57h0c-.4-.22-.62-.34-.62-.34,0,0-223.94,57.79-229.37,56.8-4.7-.86-29.28-39.28-32.29-52.69-.2-.89-.31-1.67-.3-2.33v-.02c0-.86,.2-1.5,.62-1.86,5.43-4.75,54.39-49.11,72.93-41.73,18.54,7.38,90.56-12.79,109.33-9.97,18.77,2.82,158.25,51.8,158.25,51.8Z"/>
        <path class="cls-35" d="M272.29,134.81s-14.89,3.41-5.03,19.03c9.86,15.61,42.29,40.26,44.03,38.85,1.74-1.41,2.8-6.69,2.44-9.86-.35-3.17-31.99-51.28-41.44-48.02Z"/>
        <path class="cls-35" d="M376.6,174.31c-2.69-2.01-4.9-2.16-7.12-2.52-5.85-.95-7.48,.14-10.85,1.59,0,0-39.01,1.61-47.41,4.62l.07,14.68s28.93-6.78,46.81-14.52c1.11-.48,2.33-.62,3.52-.43,2.52,.41,7.01,.76,9.74,.42,6.22-.77,7.05-2.5,5.24-3.85Z"/>
        <path class="cls-35" d="M355.96,176.39s2.8-2.12,3.74-3.23c.94-1.11,4.59-1.79,6.46-3.06,1.87-1.28,2.55-1.53,2.13,0-.43,1.53-2.23,2.6-1.63,3.2,.59,.6,1.75,3.22,1.75,3.22l-12.44-.12Z"/>
        <path class="cls-39" d="M282.59,131.16s-11.41-.25-15.63,4.22c-6.37,6.75-2.68,19.05-.1,23.63,0,0,18.13,3.64,23.85-9.8l-8.12-18.05Z"/>
        <path class="cls-7" d="M519.23,202.09s-223.94,57.79-229.37,56.8c-4.7-.86-29.28-39.28-32.29-52.69l-.3-2.33v-.03s0,0,0,0c.39,.15,26.75,10.68,51.88,9.24,25.32-1.45,194.61-15.4,210.09-11Z"/>
        <path class="cls-7" d="M519.84,202.43c-.4-.22-.62-.34-.62-.34,.29,.08,.49,.19,.62,.34Z"/>
        <path class="cls-41" d="M598.39,202.09s-18.96,23.42-24.89,24.9c-5.53,1.38-55.45-20.08-61.1-23.15,0,0,3.52-.91,3.52-.91,1.11-.29,3.31-.85,3.31-.85,0,0,38.64-1.49,49.23,.17,10.58,1.66,29.93-.17,29.93-.17Z"/>
        <g>
          <path class="cls-4" d="M89.7,138.08v10.71c0,2.6-1.38,4.73-3.07,4.73h-5.45c-1.69,0-3.07-2.13-3.07-4.73v-10.71c0-1.9,.74-3.55,1.8-4.3,.75-.53,1.22-1.72,1.22-3v-1.79c0-1.27,.68-2.32,1.5-2.32h2.55c.83,0,1.5,1.05,1.5,2.32v1.6c0,1.4,.52,2.64,1.33,3.27,1,.78,1.69,2.38,1.69,4.22Z"/>
          <rect class="cls-15" x="80.63" y="125.31" width="6.56" height="6.06" rx=".54" ry=".54"/>
          <rect class="cls-15" x="78.11" y="139.65" width="11.59" height="7.32"/>
        </g>
        <g>
          <g>
            <path class="cls-4" d="M138.48,139.94h9.14c4.91,0,8.9-3.99,8.9-8.9v-9.14c0-4.91-3.99-8.9-8.9-8.9h-9.14c-4.91,0-8.9,3.99-8.9,8.9v9.14c0,4.91,3.99,8.9,8.9,8.9Zm9.14-23.33c2.92,0,5.29,2.37,5.29,5.29v9.14c0,2.92-2.37,5.29-5.29,5.29h-9.14c-2.92,0-5.29-2.37-5.29-5.29v-9.14c0-2.92,2.37-5.29,5.29-5.29h9.14Z"/>
            <path class="cls-23" d="M93.17,105.84v34.94c0,6.18,5.05,11.23,11.23,11.23h27.56c.91,0,1.8-.11,2.65-.32,4.91-1.2,8.57-5.65,8.57-10.91v-34.94c0-.09,0-.17,0-.25h-50.01c0,.09,0,.17,0,.25Z"/>
            <path class="cls-27" d="M141.58,122.44c0,.05,0,.1,0,.16l-.34,19.57c0,3.77-4.39,8.6-10.17,8.6h-25.8c-5.78,0-10.22-4.66-10.22-8.43l-.29-19.74c0-.05,0-.1,0-.16,0,0,18.08-4.79,26.74-1.32,4.67,1.87,20.07,1.32,20.07,1.32Z"/>
            <path class="cls-4" d="M104.25,151.92h28.24c.42,0,.76,.34,.76,.76s-.34,.76-.76,.76h-28.24c-.42,0-.76-.34-.76-.76s.34-.76,.76-.76Z"/>
            <g>
              <path class="cls-15" d="M104.84,149.25c-6.6-3.2-9.9-9.84-7.11-16.85,.28-.71,.61-1.38,.97-2l21.98,14.65c-3.5,4.85-10.13,6.97-15.84,4.2Z"/>
              <path class="cls-30" d="M104.95,149c-6.44-3.12-9.66-9.6-6.94-16.44,.28-.71,.6-1.37,.96-1.98l21.45,14.3c-3.41,4.75-9.9,6.83-15.48,4.13Z"/>
              <g>
                <path class="cls-15" d="M109.48,138.94l-4.95,6.95c-.37,.52-.16,1.24,.42,1.49,.71,.3,1.72,.66,2.84,.9,1.3,.28,2.44,.38,3.24,.41,.62,.02,1.1-.55,.96-1.16l-1.88-8.45c-.07-.3-.46-.38-.64-.13Z"/>
                <path class="cls-15" d="M108.48,136.91l-8.1-5.4c-.27,.5-.54,1.08-.79,1.7-.48,1.24-.76,2.35-.91,3.14-.12,.61,.37,1.17,.99,1.14l8.64-.52c.07,0,.12-.02,.17-.06Z"/>
                <path class="cls-15" d="M108.49,137.8l-8.51,.51c-.63,.04-1.07,.65-.89,1.26,.22,.74,.57,1.75,1.08,2.77,.6,1.18,1.24,2.14,1.72,2.78,.37,.5,1.12,.51,1.51,.02l5.39-6.77c.19-.24,0-.6-.3-.58Z"/>
                <path class="cls-15" d="M119.22,144.07l-8.23-5.48c-.1,.09-.15,.22-.1,.37l2.43,8.17c.18,.61,.88,.89,1.43,.58,.67-.38,1.58-.95,2.46-1.68,.84-.7,1.51-1.39,2.01-1.96Z"/>
              </g>
            </g>
            <g>
              <path class="cls-15" d="M138.43,139.33c-4.23,4.19-10.19,4.92-14.81,.9-.47-.41-.89-.84-1.27-1.28l17.13-12.87c2.77,3.99,2.6,9.63-1.06,13.25Z"/>
              <path class="cls-30" d="M138.27,139.18c-4.13,4.09-9.95,4.8-14.45,.88-.46-.41-.88-.83-1.26-1.27l16.72-12.56c2.72,3.89,2.56,9.42-1.02,12.96Z"/>
              <g>
                <path class="cls-15" d="M131.79,133l3.98,5.66c.3,.42,.91,.46,1.25,.08,.42-.47,.97-1.14,1.45-1.93,.56-.92,.95-1.77,1.19-2.37,.19-.47-.12-.99-.63-1.05l-6.97-.84c-.25-.03-.42,.25-.27,.46Z"/>
                <path class="cls-15" d="M129.97,133.22l-6.32,4.74c.31,.34,.68,.71,1.09,1.06,.82,.7,1.59,1.21,2.16,1.55,.44,.26,1,.03,1.14-.45l1.93-6.75c.01-.05,.02-.1,0-.15Z"/>
                <path class="cls-15" d="M130.65,133.45l-1.9,6.65c-.14,.5,.21,.99,.73,1.02,.63,.03,1.49,.04,2.41-.08,1.07-.14,1.97-.37,2.59-.57,.48-.15,.69-.72,.42-1.15l-3.73-5.95c-.13-.21-.46-.17-.53,.07Z"/>
                <path class="cls-15" d="M138.34,126.93l-6.41,4.82c.04,.1,.13,.17,.25,.18l6.91,.34c.51,.03,.92-.43,.83-.94-.11-.62-.3-1.46-.63-2.33-.31-.83-.66-1.53-.95-2.07Z"/>
              </g>
            </g>
            <g>
              <path class="cls-16" d="M120.92,148.92c2.7,2.17,6.34-.63,7.78-1.08,1.44-.45,3.42-2.81,3.42-2.81,0,0-4.6-.98-7.94-.14-3.29,.83-3.25,3.94-3.25,4.02h0Z"/>
              <path class="cls-6" d="M120.92,148.92c.03-.06,1.93-3.45,11.19-3.88,0,0-4.6-.98-7.94-.14-3.29,.83-3.25,3.94-3.25,4.02Z"/>
            </g>
            <g>
              <path class="cls-16" d="M110.87,141.09c1.21,3.25,5.77,2.7,7.23,3.06,1.46,.35,4.37-.66,4.37-.66,0,0-3.45-3.2-6.75-4.18-3.25-.97-4.81,1.72-4.85,1.79h0Z"/>
              <path class="cls-6" d="M110.87,141.09c.06-.03,3.43-1.97,11.6,2.39,0,0-3.45-3.2-6.75-4.18-3.25-.97-4.81,1.72-4.85,1.79Z"/>
            </g>
            <path class="cls-5" d="M93.17,105.84v34.94c0,6.18,5.05,11.23,11.23,11.23h9.27v-46.42h-20.49c0,.09,0,.17,0,.25Z"/>
            <path class="cls-14" d="M129.24,105.58v46.42h2.72c.91,0,1.8-.11,2.65-.32v-46.1h-5.37Z"/>
          </g>
          <path class="cls-18" d="M137.84,105.58s2.15-7.58-3.58-9.81c-12.44-4.86-4.63-11.13-13.37-14.06-8.74-2.93-18.36,6.73-11.69,13.41,3.35,3.36-13.35,5.96-14.13,10.46h42.77Z"/>
        </g>
      </g>
    </g>
  </g>
</svg>