<?xml version="1.0" encoding="UTF-8"?>
<svg id="Layer_2" data-name="Layer 2" xmlns="http://www.w3.org/2000/svg" viewBox="0 0 232.45 165.94">
  <defs>
    <style>
      .cls-1 {
        fill: #ed6966;
      }

      .cls-2 {
        fill: #a83f3f;
      }

      .cls-3 {
        fill: #fff;
      }

      .cls-4 {
        fill: #76c0bf;
      }

      .cls-5 {
        fill: #a03732;
      }

      .cls-6 {
        fill: #fc9290;
      }

      .cls-7 {
        fill: #7e9bd7;
      }

      .cls-8 {
        fill: #ea8888;
      }

      .cls-9 {
        fill: #eb8d8d;
      }

      .cls-10 {
        fill: #ffb93e;
      }

      .cls-11 {
        fill: #dde8fd;
      }

      .cls-12 {
        fill: #9e332e;
      }

      .cls-13 {
        fill: #ffa412;
      }

      .cls-14 {
        fill: #6d89cf;
      }

      .cls-15 {
        fill: #120e59;
      }

      .cls-16 {
        fill: #3662c1;
      }

      .cls-17 {
        fill: #2c3a64;
      }

      .cls-18 {
        fill: #ed7d2b;
      }

      .cls-19 {
        fill: #bed2fa;
      }

      .cls-20 {
        fill: #93b3f4;
      }

      .cls-21 {
        fill: #d0defb;
      }

      .cls-22 {
        fill: #2b478b;
      }

      .cls-23 {
        fill: #e75755;
      }
    </style>
  </defs>
  <g id="Layer_1-2" data-name="Layer 1">
    <g>
      <g>
        <path class="cls-16" d="M191.94,165.13h.06c.32,0,.59-.27,.58-.59l-.88-37.98-2.58-.3,2.2,38.29c.02,.33,.29,.59,.62,.59Z"/>
        <path class="cls-19" d="M206.98,165.13h.06c.32,0,.59-.27,.58-.59l-.88-37.98-2.58-.3,2.2,38.29c.02,.33,.29,.59,.62,.59Z"/>
        <path class="cls-16" d="M165.47,165.13h-.06c-.32,0-.59-.27-.58-.59l.88-37.98,2.58-.3-2.2,38.29c-.02,.33-.29,.59-.62,.59Z"/>
        <path class="cls-16" d="M208.69,124.2v-26.03c0-4.58-3.71-8.29-8.29-8.29h-18.75c-4.58,0-8.29,3.71-8.29,8.29v27.02l35.34-.99Z"/>
        <path class="cls-19" d="M173.13,124.2h35.56v4.11h-38.7v-.97c0-1.73,1.4-3.13,3.13-3.13Z" transform="translate(378.69 252.51) rotate(180)"/>
        <rect class="cls-7" x="163.81" y="124.2" width="31.08" height="4.11" rx="1.9" ry="1.9" transform="translate(358.7 252.51) rotate(180)"/>
      </g>
      <g>
        <rect class="cls-20" x="90.57" width="26.57" height="25.78" rx="2.39" ry="2.39"/>
        <path class="cls-19" d="M93.91,1.12h19.9c1.21,0,2.19,.98,2.19,2.19V22.48c0,1.21-.98,2.19-2.19,2.19h-19.9c-1.21,0-2.19-.98-2.19-2.19V3.3c0-1.21,.98-2.19,2.19-2.19Z"/>
        <g>
          <g>
            <path class="cls-20" d="M103.31,3.47c0-.3,.25-.55,.55-.55s.55,.25,.55,.55-.25,.55-.55,.55-.55-.25-.55-.55Z"/>
            <path class="cls-20" d="M107.75,4.25c.15-.27,.48-.36,.75-.21,.27,.15,.36,.48,.21,.75s-.48,.36-.75,.21c-.27-.15-.36-.48-.21-.75Z"/>
            <path class="cls-20" d="M111.56,7.27c.26-.16,.6-.09,.76,.16,.16,.26,.09,.6-.16,.76-.26,.16-.6,.09-.76-.16-.16-.26-.09-.6,.16-.76Z"/>
            <path class="cls-20" d="M113.44,11.95c.3,0,.55,.25,.55,.55s-.25,.55-.55,.55-.55-.25-.55-.55,.25-.55,.55-.55Z"/>
            <path class="cls-20" d="M112.48,17.38c.21,.21,.21,.56,0,.78s-.56,.21-.78,0c-.21-.21-.21-.56,0-.78,.22-.21,.56-.21,.78,0Z"/>
            <path class="cls-20" d="M109.02,20.85c.21,.21,.21,.56,0,.78-.22,.21-.56,.21-.78,0-.21-.21-.21-.56,0-.78,.22-.21,.56-.21,.78,0Z"/>
            <path class="cls-20" d="M103.31,22.63c0-.3,.25-.55,.55-.55s.55,.25,.55,.55-.25,.55-.55,.55-.55-.25-.55-.55Z"/>
          </g>
          <g>
            <path class="cls-20" d="M99.95,4.25c-.15-.27-.48-.36-.75-.21-.27,.15-.36,.48-.21,.75,.15,.27,.48,.36,.75,.21,.27-.15,.36-.48,.21-.75Z"/>
            <path class="cls-20" d="M96.15,7.27c-.26-.16-.6-.09-.76,.16-.16,.26-.09,.6,.16,.76,.26,.16,.6,.09,.76-.16,.16-.26,.09-.6-.16-.76Z"/>
            <path class="cls-20" d="M94.26,11.95c-.3,0-.55,.25-.55,.55s.25,.55,.55,.55,.55-.25,.55-.55-.25-.55-.55-.55Z"/>
            <path class="cls-20" d="M95.22,17.38c-.22,.21-.22,.56,0,.78,.21,.21,.56,.21,.78,0,.21-.21,.21-.56,0-.78-.22-.21-.56-.21-.78,0Z"/>
            <path class="cls-20" d="M98.68,20.85c-.22,.21-.22,.56,0,.78,.21,.21,.56,.21,.78,0,.21-.21,.21-.56,0-.78-.21-.21-.56-.21-.78,0Z"/>
          </g>
        </g>
        <g>
          <path class="cls-20" d="M103.71,12.5c0-.3,.25-.55,.55-.55s.55,.25,.55,.55-.25,.55-.55,.55-.55-.25-.55-.55Z"/>
          <rect class="cls-20" x="104.19" y="5.62" width=".15" height="6.88"/>
          <rect class="cls-20" x="103.7" y="10.83" width="4.63" height=".45" transform="translate(15.82 67.86) rotate(-38.15)"/>
        </g>
      </g>
      <g>
        <g>
          <path class="cls-6" d="M145.61,163.77c-.11,1.48-2.19,1.49-4.56,1.22-2.37-.27-1.74,.32-5.05,.37-3.31,.05-4.46-1.05-4.62-1.52-.14-.42,1.45-.77,3.16-1.19,.21-.05,.43-.11,.65-.16,1.93-.49,3.2-1.93,4.85-3.19,1.56-1.19,3.57-5.51,3.57-5.51l4.53-.2s-1.91,3.87-2.62,5.54c-.42,.98-.24,2.19-.06,3.11,.1,.5,.2,1.02,.16,1.54Z"/>
          <path class="cls-17" d="M141.05,164.99c-2.37-.27-1.74,.32-5.05,.37-3.31,.05-4.46-1.05-4.62-1.52-.14-.42,1.45-.77,3.16-1.19l.02,.03s2.13,1.15,4.86,.87c2.23-.22,4.5-1.15,6.03-1.32,.1,.5,.2,1.02,.16,1.54-.11,1.48-2.19,1.49-4.56,1.22Z"/>
        </g>
        <g>
          <path class="cls-6" d="M176.89,164.08c-.11,1.48-2.19,1.5-4.56,1.22-2.37-.27-1.74,.33-5.05,.38-3.31,.05-4.46-1.04-4.62-1.52-.14-.42,1.45-.78,3.16-1.19,.21-.05,.43-.11,.65-.16,1.93-.49,3.2-1.93,4.85-3.19,1.56-1.19,0-8.26,0-8.26l4.98-.48s-.24,5.95-.24,8.66c0,1.07,.49,2.09,.68,3.02,.1,.5,.2,1.02,.16,1.54Z"/>
          <path class="cls-17" d="M172.33,165.3c-2.37-.27-1.74,.33-5.05,.38-3.31,.05-4.46-1.04-4.62-1.52-.14-.42,1.45-.78,3.16-1.19l.02,.03s2.14,1.14,4.87,.87c2.23-.23,4.49-1.16,6.03-1.32,.1,.5,.2,1.02,.16,1.54-.11,1.48-2.19,1.5-4.56,1.22Z"/>
        </g>
        <path class="cls-12" d="M162.35,41.92c-.86-3.53,.39-5.17,1.51-6.04,.53-1.3,1.14-2.23,1.76-2.59,1.13-.64,2.49-.71,3.44-.66-.24-.25-.72-.34-.72-.34,.59-.09,1.9,.5,1.9,.5,8.18-3.15,9.47,8.9,9.3,11.7-.17,2.8-.15,6.1,4.11,8.3,8.12,4.21-2.7,20.07-2.7,20.07,.21-2.26-10.23-14.2-15.68-17.78-1.33-1.95-1.8-5.4-1.83-5.67,.23,2.73,.7,4.27,1.11,5.13-2.48-2.28-2.85-7.77-2.19-12.62Z"/>
        <path class="cls-6" d="M165.58,55.25s2.63,1.39,4.63,.85c1.88-.51,3.11-2.95,3.08-2.96-.8-.16-1.03-1.25-1.01-5.95l-.36,.07-6.05,1.2s.14,1.9,.14,3.7c0,1.51-.09,2.94-.43,3.1Z"/>
        <path class="cls-9" d="M165.87,48.46s.14,1.9,.14,3.7c3.39-.1,5.18-3.18,5.91-4.9l-6.05,1.2Z"/>
        <path class="cls-20" d="M141.25,156.19c-.3,.93,.37,1.89,1.35,1.93l2.36,.11,2.5,.08c.63,.02,1.22-.25,1.62-.74,2-2.45,8.14-10.61,11.87-22.48,.11-.33,.22-.67,.33-1.01,2.46-7.18,7.57-16.19,10.26-24.35,.43-1.3,.81-2.52,1.16-3.68,.11-.37,.22-.73,.32-1.09,1.98-6.89,2.56-11.41,3.08-16.24l-19.42,.16s-4.09,31.78-15.43,67.31Z"/>
        <path class="cls-3" d="M159.4,77.72c.05,9.24-1.36,13.21-1.36,13.21,0,0,8.32,4.22,18.2,1.11,.12-.04,8.18-1.88,8.18-1.88-.17-.37-1.64-6.6-1.8-6.95-2.09-4.48-3.67-6.45-3.92-7.82-.46-2.57-.47-5.23-.24-7.74,.6-6.64,2.4-12.16,2.4-12.16-2.69-.61-5.22-1.69-8.02-2.74-.64,.8-2.62,1.64-4.33,1.6-1.97-.04-2.61-.89-2.5-1.81-2.1,1.17-3.77,2.27-3.77,2.27-1.78,3.1-5.4,6.11-5.66,10.86-.06,1.17,2.81,11.79,2.81,12.04Z"/>
        <path class="cls-14" d="M176.1,78.75c.85,1.2,2.48,8.51,6.53,9.42-2.09-5.21-3.67-7.49-3.92-9.09-.46-2.99-.47-6.08-.24-8.99-1.36-2.38-2.37-4-2.37-4-.11-.38-2.15-6.72-2.81-1.06-.65,5.66,1.86,12.38,2.81,13.72Z"/>
        <path class="cls-6" d="M164.74,50.16s8.01,.13,8.02-4.86c0-4.99,1.04-8.33-4.07-8.63-5.12-.3-6.11,1.61-6.52,3.27-.41,1.67,.49,10.05,2.57,10.22Z"/>
        <path class="cls-12" d="M165.04,36.55s2.19,5.85,5.56,6.72c3.37,.87,4.83-.04,4.83-.04,0,0-2.58-2.05-3.12-5.63,0,0-5.61-3.84-7.27-1.05Z"/>
        <path class="cls-12" d="M165.58,37.02s-1.64,1.31-2.04,2.58c-.4,1.27-.58,3.89-1.34,3.8,0,0-1.65-3.98,.2-6.23,1.97-2.39,3.17-.15,3.17-.15Z"/>
        <polygon class="cls-6" points="152.14 84.14 148.35 95.67 150.51 96.54 156.77 86.35 152.14 84.14"/>
        <path class="cls-1" d="M162.34,54.14s-4.46,1.77-5.75,4.53c-1.29,2.76-3.25,21.28-4.03,23.18-.78,1.9-1.36,3.41-1.36,3.41,0,0,2.25,1.9,4.51,2.04,2.26,.14,6.63-33.15,6.63-33.15Z"/>
        <path class="cls-1" d="M166.02,52.55s-4.64,11.45-4.77,13.77c-.14,2.32-.55,37.9-.55,37.9,0,0,.27,1.64-2.86,.95-3.14-.68-3.95-1.36-3.95-1.36,0,0,3-21.95,2.18-29.58-.82-7.63,6.27-20.09,6.27-20.09l3.68-1.59Z"/>
        <path class="cls-14" d="M144.96,158.23l2.72,.08c.49,.01,.95-.19,1.26-.57,1.83-2.21,8.19-10.49,12.02-22.65,.11-.33,.22-.67,.33-1.01,2.46-7.18,7.57-16.19,10.26-24.35,.43-1.3,.81-2.52,1.16-3.68,.11-.37,.22-.73,.32-1.09l-2.86-2.17s-8.59,13.91-11.25,26.99c-2.31,11.37-11.56,25.04-13.95,28.45Z"/>
        <path class="cls-20" d="M169.86,131.01c-.05,6.02,.24,19.44,.97,26,.07,.6,.57,1.05,1.18,1.05h2.03c.85,0,1.49,0,1.92-.01,.37,0,.68-.27,.75-.63,2.02-10.26,3.46-18.78,4.51-26.14,.88-6.16,1.67-11.44,2.27-15.99,.61-4.58,1.03-8.41,1.18-11.65,.02-.51,.04-1.01,.05-1.49,0-.48,.01-.95,0-1.41l-16.78-1.64c.21,11.15,1.94,28.2,1.91,31.9Z"/>
        <path class="cls-14" d="M174.04,158.06c.77,0,1.36,0,1.78-.01,.45,0,.83-.33,.91-.76,2-10.2,3.44-18.67,4.49-26,.88-6.16,1.67-11.44,2.27-15.99,.61-4.58,1.03-8.41,1.18-11.65l-6.16,3.62s3.93,1.39,2.43,11.88c-1.5,10.5-4.82,37.43-6.91,38.91Z"/>
        <path class="cls-1" d="M173.24,103.54s1.18,4.27,5.27,3.73c4.09-.55,9.91-3,9.91-3,0,0-1.75-5.52-3.92-12.78-2.63-8.78-5.89-20.11-7.42-27.25-.43-2-.73-3.67-.83-4.87l-3.39-6.58s-5.06,11.35-5.33,14.22c-.27,2.86,5.73,36.54,5.73,36.54Z"/>
        <path class="cls-6" d="M177.33,66.58l-4.48-13.79s5.66,1.68,8.5,3.11c0,0,1.77,2.29,2.87,7.57,0,0,1.16,12.67-1.43,17.31,0,0-8.18,1.64-21.27-2.86v-3s14.31,.75,17.25,1.09l-1.44-9.42Z"/>
        <path class="cls-23" d="M173.43,73c.18,4.64,1.27,13.63,11,18.45,.03,.01,.05,.03,.08,.04-2.63-8.78-5.89-20.11-7.42-27.25-1.79,2.67-3.75,6.21-3.65,8.76Z"/>
        <path class="cls-1" d="M172.85,52.78s8.3,.58,10.3,5.04c2,4.45,2.64,19.27,.09,23.63,0,0-3.5,1-9.7-.16-.08-.01-.15-.03-.23-.04,0,0-1.98-4.84-.2-5.79,0,0,5.23,.27,4.68-1.45-.55-1.73-4.94-21.22-4.94-21.22Z"/>
        <path class="cls-6" d="M148.89,95.36s-3.46,1.91-3.91,3.36c-.45,1.46-.14,4.5,.41,4.46,.55-.05,1.37-3.27,1.82-3.5s1.09-.91,1.09-.41-.45,1.41-.23,1.55c.23,.14,.95-1.27,1.45-1.55,.5-.27,.71-2.52,1.2-3.13,.49-.6-1.83-.79-1.83-.79Z"/>
        <path class="cls-6" d="M161.52,74.91s-3.09-1.9-4.39-1.61c-1.3,.29-4.6,2.69-3.01,3.2,1.59,.52,2.88-.03,3.49,.35,.61,.38,1.06,1.06,3.91,1.05,2.85,0,0-3,0-3Z"/>
      </g>
      <g>
        <path class="cls-17" d="M17.04,54.46c-.52-1,11.3-4.6,11.49,5.26,0,0,22.14-.54,11.57-12.89-3.66-4.27-3.28-7.81-3.17-11.09,.11-3.29-2.28-12.85-10.48-11.88,0,0-2.15-.87-4.82,.52-6.09,3.16-19.74,33.72-4.58,30.08Z"/>
        <path class="cls-6" d="M53.24,65.49s1.44-2.19,2.6-2.24c1.16-.04,3.31-.65,3.14-.22-.17,.43-1.51,.47-1.63,.73-.13,.26,1.98,.65,2.58,.69,.6,.04,2.02,0,1.98,.3-.04,.3-2.56,1.55-4.33,1.38-1.78-.17-3.97,.52-3.97,.52l-.37-1.16Z"/>
        <path class="cls-21" d="M32.4,66.19s.78,1.55,2.2,3.33c1.71,2.15,4.35,4.62,7.67,5.11,1.58,.23,3.13-.11,4.56-.74,0,0,0,0,0,0,4.03-1.79,7.05-5.9,7.05-5.9,.71-1.94-.45-3.25-.45-3.25,0,0-8.13,1.83-8.91,1.44-.77-.39-5.29-13.4-6.37-15.04-1.08-1.64-4.74-2.48-4.74-2.48l-1.02,17.52Z"/>
        <path class="cls-20" d="M34.6,69.53c1.71,2.15,4.35,4.62,7.67,5.11,1.58,.23,3.13-.11,4.56-.74-.16,.02-4.18,.52-5.78-2.35-1.64-2.93-3.4-7.57-5.83-6.02-1.05,.67-1,2.33-.61,4Z"/>
        <path class="cls-15" d="M2.06,153.97s-2.48,2.26-2,3.87,2.72,2.68,3.03,4.65c.3,1.97,1.51,3.04,2.6,3.04h5.19s.8-1.38-1.13-1.8c-1.94-.42-2.67-2.73-2.55-4.87,.12-2.14-.18-5.01-.18-5.01l-4.11-.95-.85,1.07Z"/>
        <path class="cls-15" d="M23.06,154.93s-.89,9.59,.2,10.13l13.94-.03s0-1.61-2.24-1.97c-2.24-.36-6.17-1.67-6.84-4.59-.67-2.92-5.06-3.55-5.06-3.55Z"/>
        <path class="cls-6" d="M13.13,86.11c2.87-6.43,4.62-8.28,4.29-10.28-.25-1.49,.76-27.71,.76-27.71,.34-.11,1.02-.2,1.4-.28,1.18-.26,2.15-1.09,2.56-2.22,.49-1.37,.88-3.39,.87-5.92l.37,.07,6.18,1.22s-.14,1.94-.14,3.78c0,.02,0,.03,0,.05,0,1.59,1.04,2.99,2.56,3.44,.78,.23,1.46,.42,1.46,.42,0,0,2.27,6.48,2.7,13.13,.43,6.65-4.13,9.55,.03,22.84,4.25,13.58-24.61,5.02-23.03,1.46Z"/>
        <path class="cls-8" d="M29.54,41s-.14,1.94-.14,3.78c-3.46-.1-5.29-3.25-6.03-5l6.18,1.22Z"/>
        <path class="cls-6" d="M30.69,42.73s-8.18,.13-8.19-4.96c0-5.1-1.07-8.51,4.16-8.81,5.22-.3,6.24,1.64,6.66,3.34,.42,1.7-.5,10.26-2.63,10.43Z"/>
        <path class="cls-17" d="M30.39,28.84s-2.24,5.98-5.68,6.86c-3.44,.88-4.93-.04-4.93-.04,0,0,2.64-2.09,3.18-5.75,0,0,5.73-3.92,7.42-1.07Z"/>
        <path class="cls-17" d="M29.84,29.32s1.66,.62,2.34,1.83c.67,1.18,1.24,2.75,1.11,4.68,0,0,1.69-4.06-.21-6.36-2.01-2.44-3.24-.15-3.24-.15Z"/>
        <path class="cls-11" d="M28.91,39.57s.56,.74,1.69,.69c.91-.04,1.26-.83,1.26-.83,0,0-1.67-.4-2.95,.14Z"/>
        <path class="cls-21" d="M12.34,59.72s-.21,2.93,0,6.44c.14,2.33,2.49,5.45,2.83,6.22,.84,1.94,1.78,2.25,1.78,2.25l7.32,1.79,2.57,.63,8.12-2.42s3.7-10.32,2.21-16.13-3.75-9.84-3.75-9.84c0,0-6.62,6.48-15.25-.55l-5.84,11.6Z"/>
        <path class="cls-2" d="M14.48,67.12c.14,2.33,.35,4.5,.69,5.27,.84,1.94,1.78,2.25,1.78,2.25l7.32,1.79,3.18-.93s-10.61-1.61-9.44-10.74l-3.53,2.36Z"/>
        <path class="cls-23" d="M34.44,76.21s4.02,12.51,4.28,16.77c.26,4.26-7.68,60.51-8,62.47-.3,1.85-2.6,3.03-2.6,3.03,0,0-1.06,.62-2.56,.2-2.09-.59-2.75-1.3-2.75-1.3,0,0-3.13-40.12-1.19-54.44,1.94-14.33,1.96-26.72,1.96-26.72h10.87Z"/>
        <path class="cls-1" d="M17.41,75.83s-6.13,8.23-6.7,13.79c-.57,5.56-.9,25.09-2.11,30.51-1.22,5.42-5.69,15.85-5.69,32.76,0,0,.46,.97,1.9,1.49,.46,.17,1.07,.33,1.67,.46,1.18,.27,2.4-.31,2.94-1.4,3.02-6.09,12.66-25.73,13.15-29.81,.35-2.89,3.39-21.98,10.03-33.19,1.59-2.69-.98-13.39-.98-13.39l-14.21-1.23Z"/>
        <path class="cls-3" d="M29.1,39.71s.14,.6,1.64,.51c0,0,1.25-.08,1.22-.74,0,0-1.22-.47-2.85,.23Z"/>
        <path class="cls-15" d="M35.09,74.28s-1.61,1.28-4.82,1.34c-3.83,.08-13.32-.98-13.32-.98,0,0-.42,1.18-.4,2.42,0,0,11.59,2.92,18.3,.43,0,0,.87-1.63,.24-3.21Z"/>
        <path class="cls-3" d="M29.44,76.94c0-1.09,.78-1.98,1.75-1.98s1.75,.89,1.75,1.98-.78,1.98-1.75,1.98-1.75-.89-1.75-1.98Zm.58,0c0,.77,.52,1.4,1.17,1.4s1.17-.63,1.17-1.4-.52-1.4-1.17-1.4-1.17,.63-1.17,1.4Z"/>
        <rect class="cls-5" x="9.62" y="62.81" width="15.74" height="21.55" transform="translate(-17.65 140.56) rotate(-138.95)"/>
        <path class="cls-6" d="M19.63,76.58s4.35,.51,4.34,1.54c-.01,1.03-1.08,3.15-1.62,3.25-.54,.09-3.54-2.87-3.54-2.87l.82-1.92Z"/>
        <path class="cls-21" d="M18.17,48.12s-5.81,.41-8.03,5.82c-2.23,5.41-6.45,14.5-6.45,16.02s2.36,6.24,15.03,8.95c0,0,1.31-1.38,1.23-2.47,0,0-7.91-6.79-7.89-7.59,.04-1.5,1.3-3.48,8.24-10.43,1.89-1.89-2.13-10.31-2.13-10.31Z"/>
      </g>
      <g>
        <g>
          <path class="cls-16" d="M82.33,165.23h-.06c-.32,0-.59-.27-.58-.59l.88-37.98,2.58-.3-2.2,38.29c-.02,.33-.29,.59-.62,.59Z"/>
          <path class="cls-19" d="M67.29,165.23h-.06c-.32,0-.59-.27-.58-.59l.88-37.98,2.58-.3-2.2,38.29c-.02,.33-.29,.59-.62,.59Z"/>
          <path class="cls-16" d="M108.8,165.23h.06c.32,0,.59-.27,.58-.59l-.88-37.98-2.58-.3,2.2,38.29c.02,.33,.29,.59,.62,.59Z"/>
          <path class="cls-16" d="M65.58,124.3v-26.03c0-4.58,3.71-8.29,8.29-8.29h18.75c4.58,0,8.29,3.71,8.29,8.29v27.02l-35.34-.99Z"/>
          <path class="cls-19" d="M65.58,124.3h38.7v4.11h-35.56c-1.73,0-3.13-1.4-3.13-3.13v-.97h0Z"/>
          <rect class="cls-16" x="79.38" y="124.3" width="31.07" height="4.11" rx="1.9" ry="1.9"/>
        </g>
        <g>
          <path class="cls-22" d="M107.55,117.82c-2.69,4.68-6.07,6.48-6.07,6.48h-14.06s22.17-10.05,20.12-6.48Z"/>
          <g>
            <path class="cls-6" d="M96.75,153.99c-.37,.42-.41,.89-.23,1.39,0,0,0,0,0,0,.34,.93,1.44,1.96,2.73,2.99,.16,.13,.31,.25,.44,.37,.03,.03,.07,.06,.1,.09,.03,.02,.05,.05,.08,.07,1.2,1.11,.75,1.36,2.9,3.6,2.46,2.56,4.15,2.6,4.63,2.37,.41-.2-.42-1.55-1.34-3.08-.04-.07-.09-.15-.13-.22-.12-.2-.24-.41-.36-.61-1.07-1.83-.8-2.7-.54-5.43,.21-2.22,3.45-12.4,3.45-12.4l-4.71-.81s-1.42,8.1-2.98,9.35c-.84,.67-1.77,.67-2.57,1.17-.06,.03-.11,.07-.17,.11-.46,.3-.92,.61-1.29,1.04Z"/>
            <path class="cls-17" d="M96.75,153.99c-.37,.42-.41,.89-.23,1.39,0,0,0,0,0,0,.41,.93,1.49,1.95,2.73,2.98,.16,.13,.31,.26,.43,.37,.03,.03,.07,.06,.1,.09,.03,.02,.05,.05,.08,.07,1.2,1.11,.75,1.36,2.9,3.6,2.46,2.56,4.15,2.6,4.63,2.37,.41-.2-.42-1.55-1.34-3.08-.48-.18-2.7-1.08-4.38-3.23-1.48-1.89-2.47-4.32-3.47-5.72-.06,.03-.11,.07-.17,.11-.46,.3-.92,.61-1.29,1.04Z"/>
            <path class="cls-6" d="M134.73,151.05c.29,1.45,2.36,1.21,4.68,.65,2.32-.57,1.77,.11,5.06-.26,3.3-.36,4.29-1.59,4.39-2.08,.09-.44-1.54-.59-3.28-.79-.22-.02-.44-.05-.66-.08-1.97-.25-3.42-1.52-5.21-2.56-1.7-.99-4.23-5.02-4.23-5.02l-4.52,.36s2.37,3.6,3.29,5.17c.54,.92,.51,2.14,.44,3.08-.04,.51-.07,1.03,.03,1.55Z"/>
            <path class="cls-17" d="M139.41,151.7c2.32-.57,1.77,.11,5.06-.26,3.3-.36,4.29-1.59,4.39-2.08,.09-.44-1.54-.59-3.28-.79l-.02,.03s-1.98,1.4-4.72,1.47c-2.24,.05-4.6-.59-6.15-.56-.04,.51-.07,1.03,.03,1.55,.29,1.45,2.36,1.21,4.68,.65Z"/>
            <path class="cls-17" d="M117.41,122.15l-4.22,11.37-5.52,14.84s-1.5,.14-2.93-.27c-1.32-.38-2.83-1.38-2.83-1.38,0,0,1.53-15.94,4.39-25.09,.73-2.35,1.55-4.25,2.46-5.32,4.43-5.23,8.66,5.84,8.66,5.84Z"/>
            <path class="cls-22" d="M113.12,104.1c-2.77-.89-10.66,.25-18.59,1.81l-1.66-2.74-17.13-1.34s-5.65,12.53-2.56,20.52c.45,1.17,1.36,1.93,2.9,1.95,0,0,.25,0,.25,0,0,0,10.19,0,13.5,0,8.52,0,18.03-5.85,19.26-6.1,2.01-.4,2.82,3.62,4.83,7.85,2.01,4.23,18.93,18.72,18.93,18.72,0,0,2.6,.03,3.67-.38,1.15-.43,1.58-1,1.58-1,0,0-18.74-37.28-24.98-39.3Z"/>
            <path class="cls-17" d="M92.19,53.29c-2.19-1.15-5.53-1.31-6.07-1.38-6.49-.87-10.4,8.56-10.63,11.42-.42,5.27-3.21,6.07-7.13,9.37-7.86,6.61-5.56,14.3-1.26,17.16,2.58,1.71,7.13,0,7.13,0,.06,.05,12.44-6.92,18.54-10.28,9.14-1.3,5.02-23.35-.57-26.29Z"/>
            <path class="cls-6" d="M87.66,76.72s-3,1.05-5.03,.15c-1.9-.84-3.35-3.98-3.32-3.98,.87-.04,1.82-.8,2.55-5.77l.37,.13,6.2,2.23s-.45,1.99-.74,3.89c-.24,1.59-.38,3.12-.04,3.34Z"/>
            <path class="cls-9" d="M88.43,69.5s-.45,1.99-.74,3.89c-3.56-.64-4.96-4.19-5.46-6.12l6.2,2.23Z"/>
            <path class="cls-6" d="M89.36,71.47s-8.49-1.14-7.7-6.41,.23-8.97,5.68-8.47c5.45,.5,6.2,2.67,6.37,4.5,.16,1.82-2.12,10.54-4.35,10.38Z"/>
            <path class="cls-17" d="M93.4,58.2s-5.43,4.68-9.13,5.06c-3.7,.38-5.09-.81-5.09-.81,0,0,2.18-1.81,3.49-4.73,.39-.86,1.2-1.45,2.14-1.53,2.64-.23,7.64-.33,8.59,2.01Z"/>
            <path class="cls-17" d="M90,57.78s1.82,1.76,2.39,3.06c.55,1.26,.72,4.27,.28,5.46,0,0,2.83-5.51,1.23-8.18-1.7-2.84-3.9-.34-3.9-.34Z"/>
            <path class="cls-4" d="M94.8,89.22c-.26,17.18-.07,13.59-1.95,15.22-.45,.39-1.73,.63-3.4,.74-5.27,.35-14.53-.52-14.88-1.49-1.22-3.37-.36-4.41-1.37-9.57-.11-.55-.24-1.14-.39-1.79-.85-3.54-1.67-4.75,1.33-10.44,2.72-5.15,5.54-9.34,5.8-9.19,7.17,4.26,7.75,.68,7.75,.68,0,0,7.24,7.46,7.11,15.84Z"/>
            <path class="cls-22" d="M113.19,133.52l-5.52,14.84s-1.5,.14-2.93-.27c-1.32-.38-2.83-1.38-2.83-1.38,0,0,1.53-15.94,4.39-25.09l6.89,11.89Z"/>
            <path class="cls-4" d="M87.69,73.38s7.38,1.25,8.25,4.43c.87,3.18,5.97,21.86,5.97,21.86,0,0-3.75,.67-5.49-1.06s-6.03-16.09-6.03-16.09l-2.7-9.15Z"/>
            <path class="cls-11" d="M89.45,105.18c-5.27,.35-14.53-.52-14.88-1.49-1.22-3.37-.36-4.41-1.37-9.57l2.54-7.15s-.42,7.97,1.93,10.06c2.35,2.1,9.62,4.05,10.76,5.8,.55,.84,.91,1.68,1.02,2.36Z"/>
            <path class="cls-6" d="M83.42,101.83s5.2-1.16,6.04-.7c.84,.46,2.89,2.14,3.14,2.73,.26,.58-1.87-.44-2.56-.63-.45-.12-1.62,.29-2.21,.48-2.45,.82-3.96,.4-3.96,.4l-.46-2.28Z"/>
            <path class="cls-4" d="M79.94,72.7s-6.98,.43-9.39,3.8c-3.4,4.74-10.15,24.96-6.28,27.65,4.35,3.04,19.82,.79,19.82,.79,0,0,.51-2.4-.2-3.57s-12.35-3.04-12.89-3.58c-.54-.54,6.71-10.47,6.71-12.08s2.24-13.02,2.24-13.02Z"/>
            <path class="cls-6" d="M89.7,102.58s1.09,1.4,1.45,1.57c.36,.17,.59,.13,.59,.13l-.73-1.32-1.3-.38Z"/>
            <path class="cls-6" d="M89.45,101.13l3.17,1.54s-.13,.22-.52,.2c-.39-.02-1.37-.38-1.37-.38l-1.27-1.36Z"/>
          </g>
        </g>
      </g>
      <g>
        <path class="cls-18" d="M226.17,165.36h.07c.43,0,.77-.4,.76-.88l-1.16-56.46-3.41-.45,2.91,56.91c.03,.49,.39,.88,.82,.88Z"/>
        <path class="cls-18" d="M87.76,165.36h-.07c-.43,0-.77-.4-.76-.88l1.16-56.46,3.41-.45-2.91,56.91c-.02,.49-.39,.88-.82,.88Z"/>
        <rect class="cls-18" x="82.06" y="102.25" width="150.39" height="6.81" rx="2.81" ry="2.81"/>
      </g>
      <g>
        <path class="cls-22" d="M215.61,165.87s.33-2.57,1.09-4.09c.76-1.53,5.62-.55,5.62-.55,0,0,.97,.83,1.18,4.71l-7.89-.07Z"/>
        <path class="cls-22" d="M199.07,165.83c1.14-.7,.49-5.89,.49-5.89,0,0-5.31-4.25-6.04-1-.73,3.25-5.05,4.72-7.51,5.11-1.7,.28-2.22,1.21-2.38,1.77h15.44Z"/>
        <path class="cls-22" d="M210.08,128.07c-.22,1.19-.35,2.17-.39,2.87-.49,9.64-8.11,31.67-9.47,32.18-2.11,.8-5.43-.9-7.16-1.45-.72-.23-1.21-.96-1.05-1.69,3.77-17.34,5.16-42.31,5.66-57.09,.26-7.45,1.53-12.59,1.53-12.59,0,0,18.58-4.96,18.69,1.31,.1,5.55-6.15,27.31-7.81,36.46Z"/>
        <path class="cls-17" d="M210.08,128.07l-12.41-25.18c.26-7.45,1.53-12.59,1.53-12.59,0,0,18.58-4.96,18.69,1.31,.1,5.55-6.15,27.31-7.81,36.46Z"/>
        <path class="cls-22" d="M205.95,91.63l9.82,71.18s4.31,1.04,7.67,.21c0,0,2.88-37.85,2.64-47.01-.24-9.15,2.06-24.49-.53-26.18-2.59-1.69-19.6,1.8-19.6,1.8Z"/>
        <path class="cls-13" d="M227.46,90.44c.05,.64-.36,1.23-.98,1.41-1.37,.4-2.95,.67-6,1.31-2.86,.59-6.71,1.12-11.44,1.15-7.52,.05-10.37-2.54-10.37-2.54-.32,0,.17-1.57,.62-9.05,.15-2.54,.3-5.75,.4-9.81,.09-3.66,.16-8,.16-13.15,0-6.2,9.6-12.86,9.78-12.86h0c0,.9,1.41,2.54,3.57,2.68,2.57,.17,5.72-1.11,5.72-2.59,0-.02,4.65,7.43,6.3,15.37,.83,4,.5,3.89,2.23,28.1Z"/>
        <path class="cls-13" d="M209.63,46.88s-8.92-.08-11.07,2.93c-2.15,3.01-6.85,19.21-4.4,24.6,2.46,5.39,7.05-2.23,9.6-5.53,2.55-3.3,5.86-22,5.86-22Z"/>
        <path class="cls-6" d="M209.54,45.52v.92s-.25,2.88,3.3,3.3c3.55,.42,6.19-.54,6.09-2.76-.32-1.72-.62-3.49-.64-4.92,0-.53,.03-1.09,.13-1.73l-6.88-.14-2.03,.33,.03,4.99Z"/>
        <path class="cls-8" d="M209.51,40.53l.03,4.99c.73,.34,1.56,.55,2.48,.55,3.16,0,5.21-2.32,6.27-4,0-.53,.03-1.09,.13-1.73l-6.88-.14-2.03,.33Z"/>
        <path class="cls-6" d="M218.95,39.23c-.8,4.3-6.34,4.16-8.74,3.89-.67-.08-1.1-.16-1.1-.16-.76-.2-1.18-1.4-1.38-2.97-.39-3.1,.1-7.66,.63-8.83,.79-1.75,2.28-3.65,7.86-2.28,5.58,1.37,3.76,4.85,2.73,10.35Z"/>
        <path class="cls-3" d="M200.51,58.95s-3.45,7.62-3.35,9.9c0,0,1.71-.06,3.35,.43,2.7,.8,0-10.33,0-10.33Z"/>
        <path class="cls-17" d="M206.65,27.07s2.46-.19,5.36-1.45c2.35-1.02,5.32,.1,6.28,.61-.03-.16-.09-.37-.24-.58,0,0,.43,.31,.5,.74,.04,.03,.06,.06,.05,.06,0,0,.49-.09,.81,.05,0,0-.22-.03-.3,.11,0,.01-.02,.03-.04,.04,3.67,1.77,4.01,7.57,2.83,8.91-1.42,1.61-3.57,5.27-3.57,5.27,0,0-.18-.88,.08-2.3,.26-1.42-.97-1.42-2.52-2.07-1.55-.65-.26-2.45-1.61-3.55-1.36-1.1-6.33-.45-6.26-1.29-1.85-.67-1.37-4.37-1.37-4.56Z"/>
        <path class="cls-10" d="M220.07,73.22c-1.46,5.85-17.21,8.87-20.79,9.48,.15-2.54,.3-5.75,.4-9.81l20.38,.33Z"/>
        <path class="cls-6" d="M216.62,75.12c.15,0,3.5-.5,4.1-.8,.6-.3,3.35-4.2,1.55-5.2-1.8-1-6.62,3-6.62,3l.97,3Z"/>
        <path class="cls-13" d="M196.23,76.28s12.96,.7,21.66-1.16c0,0,.22-2.51-2.51-3.63,0,0-13.56-2.87-16.81-2.07-3.26,.8-2.33,6.86-2.33,6.86Z"/>
        <path class="cls-13" d="M226,66.11c-2.69,3.24-6.21,5.89-10.08,6.51h0s-1.17-1.78-.96-4.33c.1-1.18,.49-2.53,1.41-3.97,.28-.44,.54-.96,.76-1.54,2.12-5.4,1.8-15.81,1.8-15.81,0,0,8.99,.94,11.79,4.94,1.72,2.45-.47,9.07-4.72,14.2Z"/>
        <path class="cls-8" d="M210.21,43.12c-.67-.08-1.1-.16-1.1-.16-.76-.2-1.18-1.4-1.38-2.97,1.43,.35,2.08,1.45,2.35,1.92,.12,.21,.15,.68,.13,1.21Z"/>
        <path class="cls-6" d="M206.59,45.55s-3.1-5.12-.69-5.35c2.41-.22,3.38,1.41,3.73,2.01,.35,.6-.09,3.31-.09,3.31l-2.95,.03Z"/>
        <path class="cls-13" d="M218.42,68.12c-.09,.65-.29,1.25-.53,1.78-.76,1.68-1.98,2.72-1.98,2.72h0c-8.06-3.64-9.69-16.14-9.97-23-.11-2.76,0-4.61,0-4.61,3.64-1.2,4.66,.89,4.66,.89,0,0,4.29,10.21,6.52,16.89,.85,2.55,1.4,4.59,1.29,5.34Z"/>
        <path class="cls-10" d="M226,66.11c-2.69,3.24-6.21,5.89-10.08,6.51h0c-8.06-3.64-9.69-16.14-9.97-23,0,0,3.82,13.84,9.01,18.67,.94,.88,1.92,1.46,2.94,1.61,0,0,6.55-1.85,7.92-3.59,.1-.12,.16-.19,.18-.2Z"/>
      </g>
    </g>
  </g>
</svg>