<?xml version="1.0" encoding="UTF-8"?>
<svg id="Layer_2" data-name="Layer 2" xmlns="http://www.w3.org/2000/svg" viewBox="0 0 96.99 96.99">
  <defs>
    <style>
      .cls-1 {
        fill: #003b7e;
        stroke: #003b7e;
        stroke-miterlimit: 10;
        stroke-width: .6px;
      }

      .cls-2 {
        fill: #ffe500;
      }
    </style>
  </defs>
  <g id="Layer_1-2" data-name="Layer 1">
    <g>
      <circle class="cls-2" cx="48.49" cy="48.49" r="48.49"/>
      <path class="cls-1" d="M55.18,40.69c0-.93-.37-1.82-1.02-2.49-.65-.67-1.53-1.06-2.46-1.1-.27-1.13-1.03-2.08-2.08-2.59s-2.27-.5-3.32,0-1.82,1.45-2.08,2.59c-.93,.04-1.81,.43-2.46,1.1-.65,.67-1.01,1.56-1.02,2.49-.99,.09-1.9,.56-2.56,1.3-.66,.74-1.01,1.71-.98,2.7-.02,.89,.26,1.76,.8,2.47,.53,.71,1.29,1.22,2.15,1.45,.2,.82,.66,1.55,1.31,2.08,.66,.53,1.47,.82,2.31,.84,.3,0,.6-.04,.88-.11,.7,.84,1.32,1.75,1.85,2.7-2.35,.41-4.4,1.82-5.64,3.85-.9,1.48-1.31,3.19-1.19,4.89h1.86c-.16-1.72,.38-3.44,1.52-4.77,1.3-1.52,3.23-2.35,5.23-2.25,2,.1,3.83,1.13,4.97,2.78,.86,1.25,1.25,2.76,1.11,4.25h1.86c.12-1.7-.28-3.41-1.18-4.89-1.24-2.03-3.29-3.44-5.64-3.85,.53-.96,1.15-1.86,1.85-2.7,.29,.08,.58,.11,.88,.11,.84-.02,1.66-.31,2.31-.84,.66-.53,1.12-1.26,1.31-2.08,.86-.23,1.62-.74,2.15-1.45,.53-.71,.82-1.58,.8-2.47,.03-.99-.32-1.96-.98-2.7-.66-.74-1.57-1.21-2.56-1.3Zm1.44,5c-.33,.63-.94,1.06-1.65,1.15-.48,0-.88,.37-.92,.85-.02,1.06-.85,1.92-1.91,1.98-.26,0-.52-.06-.75-.18-.36-.18-.8-.1-1.08,.2-.9,.98-1.69,2.06-2.35,3.22-.66-1.16-1.45-2.24-2.35-3.22-.18-.19-.42-.29-.68-.29-.14,0-.28,.03-.4,.09-.23,.12-.49,.18-.75,.18-1.05-.06-1.88-.93-1.91-1.98-.04-.48-.44-.85-.92-.85-.7-.09-1.32-.52-1.65-1.15-.33-.63-.33-1.38,0-2.01,.33-.63,.95-1.06,1.65-1.15,.19,0,.38,.04,.56,.11,.33,.12,.7,.04,.96-.21,.25-.25,.34-.62,.23-.95-.07-.21-.11-.43-.11-.66-.06-.97,.67-1.81,1.65-1.88,.15,0,.3,.03,.45,.08,.27,.09,.57,.05,.81-.12,.24-.16,.39-.43,.4-.72-.04-.57,.16-1.14,.55-1.56,.39-.42,.94-.66,1.51-.66s1.12,.24,1.51,.66c.39,.42,.59,.98,.55,1.56,.02,.29,.16,.55,.4,.72s.54,.21,.81,.12c.14-.05,.29-.08,.44-.08,.97,.07,1.71,.91,1.65,1.88,0,.22-.04,.45-.11,.66-.11,.34-.02,.71,.23,.95,.25,.25,.62,.33,.96,.21,.18-.07,.37-.11,.57-.11,.7,.09,1.32,.52,1.65,1.15,.33,.63,.33,1.38,0,2.01Zm25.56-5c0-.93-.37-1.82-1.02-2.49-.65-.67-1.53-1.06-2.46-1.1-.27-1.13-1.03-2.08-2.08-2.59s-2.27-.5-3.32,0-1.82,1.45-2.08,2.59c-.93,.04-1.81,.43-2.46,1.1-.65,.67-1.01,1.56-1.02,2.49-.99,.09-1.9,.56-2.56,1.3-.66,.74-1.01,1.71-.98,2.7-.02,.89,.26,1.76,.8,2.47,.53,.71,1.29,1.22,2.15,1.45,.2,.82,.66,1.55,1.31,2.08,.66,.53,1.47,.82,2.31,.84,.3,0,.6-.04,.88-.11,.7,.84,1.32,1.75,1.85,2.7-2.35,.41-4.4,1.82-5.64,3.85-.9,1.48-1.31,3.19-1.19,4.89h1.86c-.16-1.72,.38-3.44,1.52-4.77,1.3-1.52,3.23-2.35,5.23-2.25,2,.1,3.83,1.13,4.97,2.78,.86,1.25,1.25,2.76,1.11,4.25h1.86c.12-1.7-.28-3.41-1.18-4.89-1.24-2.03-3.29-3.44-5.64-3.85,.53-.96,1.15-1.86,1.85-2.7,.29,.08,.58,.11,.88,.11,.84-.02,1.66-.31,2.31-.84,.66-.53,1.12-1.26,1.31-2.08,.86-.23,1.62-.74,2.15-1.45,.53-.71,.82-1.58,.8-2.47,.03-.99-.32-1.96-.98-2.7-.66-.74-1.57-1.21-2.56-1.3Zm1.44,5c-.33,.63-.94,1.06-1.65,1.15-.48,0-.88,.37-.92,.85-.02,1.06-.85,1.92-1.91,1.98-.26,0-.52-.06-.75-.18-.36-.18-.8-.1-1.08,.2-.9,.98-1.69,2.06-2.35,3.22-.66-1.16-1.45-2.24-2.35-3.22-.18-.19-.42-.29-.68-.29-.14,0-.28,.03-.4,.09-.23,.12-.49,.18-.75,.18-1.05-.06-1.88-.93-1.91-1.98-.04-.48-.44-.85-.92-.85-.7-.09-1.32-.52-1.65-1.15-.33-.63-.33-1.38,0-2.01,.33-.63,.95-1.06,1.65-1.15,.19,0,.38,.04,.56,.11,.33,.12,.7,.04,.96-.21,.25-.25,.34-.62,.23-.95-.07-.21-.11-.43-.11-.66-.06-.97,.67-1.81,1.65-1.88,.15,0,.3,.03,.45,.08,.27,.09,.57,.05,.81-.12,.24-.16,.39-.43,.4-.72-.04-.57,.16-1.14,.55-1.56,.39-.42,.94-.66,1.51-.66s1.12,.24,1.51,.66c.39,.42,.59,.98,.55,1.56,.02,.29,.16,.55,.4,.72s.54,.21,.81,.12c.14-.05,.29-.08,.44-.08,.97,.07,1.71,.91,1.65,1.88,0,.22-.04,.45-.11,.66-.11,.34-.02,.71,.23,.95,.25,.25,.62,.33,.96,.21,.18-.07,.37-.11,.57-.11,.7,.09,1.32,.52,1.65,1.15,.33,.63,.33,1.38,0,2.01Zm-54.38-5c0-.93-.37-1.82-1.02-2.49-.65-.67-1.53-1.06-2.46-1.1-.22-.83-.7-1.57-1.37-2.11-.68-.53-1.51-.83-2.37-.85-.86,.02-1.69,.32-2.37,.86-.67,.53-1.16,1.27-1.37,2.11-.93,.04-1.81,.43-2.46,1.1-.65,.67-1.01,1.56-1.02,2.49-.99,.09-1.9,.56-2.56,1.3-.66,.74-1.01,1.71-.98,2.7-.02,.89,.26,1.76,.8,2.47,.53,.71,1.29,1.22,2.15,1.45,.2,.82,.66,1.55,1.31,2.08,.66,.53,1.47,.82,2.31,.84,.3,0,.6-.04,.88-.11,.7,.84,1.32,1.75,1.85,2.7-2.35,.41-4.4,1.82-5.64,3.85-.9,1.48-1.31,3.19-1.19,4.89h1.86c-.16-1.72,.38-3.44,1.52-4.77,1.3-1.52,3.23-2.35,5.23-2.25,2,.1,3.83,1.13,4.97,2.78,.87,1.25,1.25,2.76,1.11,4.25h1.86c.01-.2,.02-.39,.02-.58,0-1.5-.41-3-1.21-4.31-1.24-2.03-3.29-3.44-5.64-3.85,.53-.96,1.15-1.86,1.85-2.7,.29,.08,.58,.11,.88,.11,.84-.02,1.66-.31,2.31-.84s1.12-1.26,1.31-2.08c.86-.23,1.62-.74,2.15-1.45,.53-.71,.82-1.58,.8-2.47,.03-.99-.32-1.96-.98-2.7-.66-.74-1.57-1.21-2.56-1.3Zm1.44,5c-.33,.63-.94,1.06-1.65,1.15-.48,0-.88,.37-.92,.85-.02,1.06-.85,1.92-1.91,1.98-.26,0-.52-.06-.75-.18-.37-.18-.8-.1-1.08,.2-.9,.98-1.69,2.06-2.35,3.22-.66-1.16-1.45-2.24-2.35-3.22-.18-.19-.42-.29-.68-.29-.14,0-.28,.03-.4,.09-.23,.12-.49,.18-.75,.18-1.05-.06-1.88-.93-1.91-1.98-.04-.48-.44-.85-.92-.85-.7-.09-1.32-.52-1.65-1.15-.33-.63-.33-1.38,0-2.01,.33-.63,.95-1.06,1.65-1.15,.19,0,.38,.04,.57,.11,.33,.12,.7,.03,.96-.21s.34-.62,.23-.95c-.07-.21-.11-.43-.11-.66-.06-.97,.68-1.81,1.65-1.88,.15,0,.3,.03,.44,.08,.27,.09,.57,.05,.81-.12,.24-.16,.38-.43,.4-.72,0-.56,.21-1.1,.59-1.52,.38-.41,.91-.66,1.47-.7,.56,.04,1.09,.29,1.47,.7,.38,.41,.6,.95,.59,1.52,.02,.29,.16,.55,.4,.72,.24,.16,.54,.21,.81,.12,.14-.05,.29-.08,.45-.08,.97,.07,1.7,.91,1.65,1.88,0,.22-.04,.45-.11,.66-.11,.34-.02,.71,.23,.95,.25,.25,.63,.33,.96,.21,.18-.07,.37-.11,.57-.11,.7,.09,1.32,.52,1.65,1.15,.33,.63,.33,1.38,0,2.01Z"/>
    </g>
  </g>
</svg>