<?xml version="1.0" encoding="UTF-8"?>
<svg id="Layer_2" data-name="Layer 2" xmlns="http://www.w3.org/2000/svg" viewBox="0 0 226.92 197.1">
  <defs>
    <style>
      .cls-1 {
        fill: #4450e4;
      }

      .cls-2 {
        fill: #fff;
      }

      .cls-3 {
        fill: #3897e9;
      }

      .cls-4 {
        fill: #ff9a95;
      }

      .cls-5 {
        fill: #003b7e;
      }

      .cls-6 {
        opacity: .3;
      }

      .cls-7 {
        fill: #ffa412;
      }

      .cls-8 {
        fill: #838ee8;
      }

      .cls-9 {
        fill: #ffbd00;
      }

      .cls-10 {
        fill: #2c3a64;
      }

      .cls-11 {
        fill: #ffcec7;
      }

      .cls-12 {
        fill: #9fd3fb;
      }

      .cls-13 {
        fill: #dca000;
      }

      .cls-14 {
        fill: #5b71d8;
      }

      .cls-15 {
        fill: #2b478b;
      }

      .cls-16 {
        fill: #27191c;
      }
    </style>
  </defs>
  <g id="Layer_1-2" data-name="Layer 1">
    <g>
      <g>
        <g>
          <g>
            <rect class="cls-13" x="206.69" y="23.82" width="9.2" height="69.72" transform="translate(402.67 165.73) rotate(-166.3)"/>
            <rect class="cls-13" x="188" y="35.2" width="9.2" height="69.72" transform="translate(385.2 140.12) rotate(180)"/>
            <rect class="cls-13" x="173.86" y="31.75" width="9.2" height="69.72" transform="translate(364.17 109.05) rotate(172.4)"/>
            <rect class="cls-13" x="164.85" y="15.07" width="9.2" height="69.72" transform="translate(344.02 77.02) rotate(172.4)"/>
            <rect class="cls-13" x="162.11" y="23.46" width="9.2" height="69.72" transform="translate(331.39 122.15) rotate(-178.09)"/>
            <rect class="cls-13" x="152.55" y="19.4" width="9.2" height="69.72" transform="translate(320.09 87.27) rotate(172.4)"/>
            <rect class="cls-13" x="147.58" y="22.02" width="9.2" height="69.72" transform="translate(295.51 133.38) rotate(-172.4)"/>
            <rect class="cls-13" x="201.88" y="33.04" width="9.2" height="69.72" transform="translate(417.45 120.21) rotate(175.72)"/>
            <rect class="cls-13" x="135.99" y="22.02" width="9.2" height="69.72" transform="translate(269.88 136.17) rotate(-170.51)"/>
            <rect class="cls-13" x="128.84" y="25.3" width="9.2" height="69.72" transform="translate(271.01 110.19) rotate(175.72)"/>
            <rect class="cls-13" x="120.34" y="41.32" width="9.2" height="69.72" transform="translate(263.39 123.55) rotate(167.51)"/>
            <rect class="cls-13" x="111.28" y="31.75" width="9.2" height="69.72" transform="translate(236.41 124.4) rotate(175.72)"/>
          </g>
          <g>
            <path class="cls-16" d="M171.6,50.11c-.1,0-.19-.08-.19-.19h0c0-.1,.08-.19,.19-.19s.19,.08,.19,.19-.08,.19-.19,.19Z"/>
            <path class="cls-16" d="M170.33,93.5l-9.57-.32,.14-4.29c0-.1,.09-.18,.19-.18,.1,0,.18,.09,.18,.19l-.13,3.92,8.82,.29,.27-8.16,1.17-35.04,.5-15.01c0-.1,.09-.19,.19-.18,.1,0,.18,.08,.18,.18l-.5,15.02-1.17,35.05-.28,8.53Z"/>
            <path class="cls-16" d="M204.32,103.21l-.78-10.47c0-.1,.07-.19,.17-.2,.1,0,.19,.07,.2,.17l.76,10.1,8.81-.66-1.93-25.83c0-.1,.08-.19,.19-.19s.19,.08,.19,.19l1.96,26.17-9.55,.72Z"/>
            <path class="cls-16" d="M130.85,87.4c-.1,0-.19-.08-.19-.19h0c0-.1,.08-.19,.19-.19s.19,.08,.19,.19-.08,.19-.19,.19Z"/>
            <path class="cls-16" d="M133.84,95.27c-.1,0-.18-.07-.19-.17,0-.1,.07-.19,.17-.2l6.61-.49-.51-6.76c0-.1,.07-.19,.17-.2,.1,0,.19,.07,.2,.17l.53,7.14-6.98,.52s0,0-.01,0Z"/>
            <path class="cls-16" d="M127.84,111.43l-6.31-28.49c-.02-.08,.02-.17,.1-.21,.09-.05,.2-.01,.25,.08l.02,.05,6.23,28.13,8.62-1.91-3.09-13.95-.92-4.14c-.02-.1,.04-.2,.14-.22,.1-.02,.2,.04,.22,.14l.92,4.14,3.17,14.32-9.35,2.07Z"/>
          </g>
        </g>
        <g>
          <g>
            <rect class="cls-9" x="116.82" y="35.2" width="9.2" height="69.72" transform="translate(-13.14 30.75) rotate(-13.7)"/>
            <rect class="cls-9" x="138.41" y="35.2" width="9.2" height="69.72" transform="translate(10.52 -18.29) rotate(7.6)"/>
            <rect class="cls-9" x="152.55" y="31.75" width="9.2" height="69.72" transform="translate(43.14 -60.42) rotate(25.12)"/>
            <rect class="cls-9" x="164.85" y="23.82" width="9.2" height="69.72" transform="translate(9.24 -21.88) rotate(7.6)"/>
            <rect class="cls-9" x="123.3" y="31.75" width="9.2" height="69.72" transform="translate(9.93 -16.32) rotate(7.6)"/>
            <rect class="cls-9" x="181.06" y="29.17" width="9.2" height="69.72"/>
            <rect class="cls-9" x="196.4" y="31.05" width="9.2" height="69.72" transform="translate(19 -41.9) rotate(12.49)"/>
            <rect class="cls-9" x="204.42" y="50.23" width="9.2" height="69.72" transform="translate(23.34 -43.18) rotate(12.49)"/>
            <rect class="cls-9" x="215.13" y="31.75" width="9.2" height="69.72" transform="translate(5.58 -16.21) rotate(4.28)"/>
          </g>
          <path class="cls-16" d="M124.3,101.49h-.03s-5.75-.77-5.75-.77l1.93-14.46c.01-.1,.11-.17,.21-.16,.1,.01,.17,.11,.16,.21l-1.88,14.09,5.37,.72c.09,.01,.17,.09,.17,.18,0,.1-.08,.19-.19,.19Z"/>
        </g>
        <g>
          <polygon class="cls-10" points="138.74 197.1 118.8 197.1 111.13 77.18 134.14 77.18 138.74 197.1"/>
          <polygon class="cls-2" points="158.68 197.1 138.74 197.1 134.14 77.18 157.15 77.18 158.68 197.1"/>
          <polygon class="cls-10" points="178.62 197.1 158.68 197.1 157.15 77.18 180.16 77.18 178.62 197.1"/>
          <polygon class="cls-2" points="198.56 197.1 178.62 197.1 180.16 77.18 203.17 77.18 198.56 197.1"/>
          <polygon class="cls-10" points="218.5 197.1 198.56 197.1 203.17 77.18 226.17 77.18 218.5 197.1"/>
        </g>
      </g>
      <g>
        <g>
          <path class="cls-3" d="M100.24,34.89l-1.57-.33c0-1.91-.18-3.83-.55-5.7l2.22-.95c.49-.21,.72-.78,.51-1.28-.21-.49-.78-.72-1.28-.51l-1.89,.81c-.58-2.2-1.4-4.34-2.47-6.35l1.39-2.1c.3-.45,.18-1.05-.27-1.35-.45-.3-1.05-.18-1.35,.27l-.9,1.35c-.64-.89-1.44-1.76-2.33-2.41l.82-1.66c.24-.48,.04-1.06-.44-1.3-.48-.24-1.06-.04-1.3,.44l-.8,1.63c-.91-.28-1.88-.28-2.87,.16-.49,.22-.94,.54-1.34,.94l-.5-1.16c-.21-.49-.79-.72-1.28-.5-.49,.21-.72,.79-.5,1.28l.95,2.18c-.34,.6-.63,1.26-.88,1.92l-1.15-.93c-.42-.34-1.03-.27-1.37,.14-.34,.42-.27,1.03,.14,1.37l1.74,1.41c-.23,.84-.39,1.64-.52,2.31-.04,.24-.08,.48-.12,.73l-1.46-.46c-.51-.16-1.06,.13-1.22,.64-.16,.51,.13,1.06,.64,1.22l1.81,.56c-.14,1.63-.17,3.26-.18,4.9l-1.44-.48c-.51-.17-1.06,.11-1.23,.61-.17,.51,.11,1.06,.61,1.23l2.06,.68c0,1.38,.03,2.76,.17,4.13l-1.84,.81c-.49,.22-.71,.79-.5,1.28,.22,.49,.79,.71,1.28,.5l1.37-.6c.17,.82,.41,1.62,.73,2.4,.34,.84,.81,1.64,1.38,2.37l-.73,1.5c-.24,.48-.04,1.06,.45,1.3,.48,.24,1.06,.04,1.3-.45l.43-.88c1.12,.91,2.44,1.51,3.87,1.59l.06,1.28c.02,.54,.48,.95,1.01,.93,.54-.02,.95-.48,.93-1.01l-.06-1.39c1.08-.29,2.09-.86,2.95-1.6l.44,1.07c.2,.5,.77,.73,1.27,.53,.5-.2,.73-.77,.53-1.27l-.79-1.93s.06-.08,.08-.12c.22-.32,.42-.65,.6-1l2.03,.85c.49,.21,1.06-.02,1.27-.52,.21-.49-.02-1.06-.52-1.27l-2.02-.85c.46-1.33,.72-2.74,.87-4.14,.04-.39,.08-.78,.1-1.18l1.24,.26c.52,.11,1.04-.23,1.15-.75,.11-.52-.23-1.04-.75-1.15Z"/>
          <g>
            <path class="cls-12" d="M85.22,35.7c-.96,.85-1.45,2.2-1.21,3.46,.24,1.25,1.22,2.35,2.45,2.68,1.67,.45,3.57-.63,4.14-2.27,.55-1.6-.16-3.17-1.3-4.29-1.1-1.08-3.03-.51-4.08,.42Z"/>
            <path class="cls-12" d="M93.48,37.5c.02,.4,.23,.78,.54,1.02,.38,.31,.93,.41,1.39,.24,.46-.17,.8-.64,.79-1.13-.03-1.54-2.79-1.87-2.72-.14Z"/>
            <path class="cls-12" d="M93.19,30.4c-1.69-.65-3,1.61-1.04,2.23,1.69,.54,2.83-1.55,1.04-2.23Z"/>
            <path class="cls-12" d="M87.05,28.78c.28,.06,.57,.12,.86,.08,1.39-.21,.36-1.88-.62-1.87-.46,0-.91,.39-1.05,.82-.2,.61,.28,.86,.81,.97Z"/>
            <path class="cls-12" d="M91.77,27.18c.65,.47,1.58,.54,2.29,.16,.71-.38,1.18-1.18,1.16-1.99-.04-1.49-2.67-4.21-4.2-2.92-.55,.46-.57,1.28-.5,1.99,.11,1.03,.41,2.14,1.25,2.75Z"/>
          </g>
        </g>
        <g>
          <path class="cls-12" d="M75.2,39.76c-.97-.86-2.19-1.41-3.13-2.32-1.27-1.23-1.88-2.96-2.4-4.65-.52-1.68-1.01-3.44-2.11-4.81-1.1-1.38-3.01-2.29-4.66-1.67-2.91,1.09-2.48,4.73-2.31,7.17,.15,2.2,.47,4.39,.7,6.58,.19,1.89,.46,3.74,1.2,5.5,1.2,2.87,3.64,5.38,6.7,5.92,2.91,.51,6.09-1,7.47-3.62,1.37-2.62,.77-6.15-1.45-8.11Z"/>
          <g>
            <path class="cls-2" d="M63.72,35.51c-.12-.54-.95-.9-1.28-.33-.3,.53,.51,1.24,1.02,.97,.22-.12,.32-.4,.27-.64Z"/>
            <path class="cls-2" d="M66.47,36.02c.29,.17,.68,.16,.93-.06,1.06-.91-1.25-1.68-1.29-.51,0,.23,.16,.45,.36,.56Z"/>
            <path class="cls-2" d="M69.82,38.62c-.13,.25,.05,.56,.28,.71,.42,.27,1.19,0,.92-.59-.18-.39-.98-.55-1.2-.13Z"/>
            <path class="cls-2" d="M63.37,39.89c-.08,.19-.02,.41,.1,.58,.16,.21,.43,.34,.69,.32,.54-.05,.82-.76,.4-1.14-.31-.28-1.04-.14-1.19,.25Z"/>
            <path class="cls-2" d="M68.79,40.6c-.29-.14-1.32-.53-1.24,.14,.02,.15,.11,.28,.22,.37,.11,.09,.25,.15,.39,.2,.17,.06,.34,.11,.52,.09,.17-.02,.35-.14,.39-.31,.04-.2-.1-.4-.28-.48Z"/>
            <path class="cls-2" d="M72.4,43.64c.2,.16,.49,.25,.71,.12,.55-.33,0-1.13-.44-1.26-.73-.21-.68,.81-.28,1.14Z"/>
            <path class="cls-2" d="M73.94,46.52c-.57-1.08-1.84-.24-1.9,.72-.01,.19,.02,.39,.16,.51,.18,.16,.44,.13,.68,.1,.39-.06,.83-.14,1.05-.47,.17-.25,.15-.59,.01-.86Z"/>
            <path class="cls-2" d="M67.23,44.31c.76-.15-.03-1.16-.64-.95-.8,.28,.06,1.06,.64,.95Z"/>
            <path class="cls-2" d="M66.35,32.37c-.14-.22-.83-.53-.86-.09-.02,.24,.02,.51,.19,.67,.09,.08,.21,.13,.33,.13,.12,0,.24-.06,.32-.15,.13-.15,.12-.39,.02-.56Z"/>
            <path class="cls-2" d="M66.3,29.15c.06-.22-.04-.5-.24-.62-.07-.04-.15-.05-.23-.08-.14-.05-.27-.14-.41-.19-.18-.07-.4-.08-.54,.05-.14,.12-.15,.35-.07,.51,.07,.17,.22,.3,.36,.42,.16,.14,.34,.28,.55,.3,.25,.02,.51-.15,.58-.39Z"/>
            <path class="cls-2" d="M62.66,31.59c.25-.11,.37-.44,.28-.7-.09-.26-.32-.41-.56-.51-.28-.12-.45,.14-.53,.38-.07,.18-.13,.39-.04,.56,.06,.12,.19,.2,.32,.25,.17,.07,.37,.1,.54,.03Z"/>
            <path class="cls-2" d="M67.76,46.52c-.35-.09-.83-.02-.78,.47,.02,.22,.17,.4,.34,.53,.3,.24,.68,.36,1.06,.36,.14,0,.31-.04,.39-.16,.08-.13,.04-.29-.02-.43-.19-.4-.56-.67-.98-.78Z"/>
          </g>
        </g>
      </g>
      <g>
        <g>
          <path class="cls-15" d="M41.13,181.99s12.5,6.07,15.96,8.28c3.46,2.21,2.13,4.33,2.13,4.33h-25.27s-.36-9.84,.35-11.97c.71-2.13,6.83-.64,6.83-.64Z"/>
          <rect class="cls-5" x="33.95" y="193.18" width="25.52" height="1.42" transform="translate(93.43 387.79) rotate(-180)"/>
        </g>
        <g>
          <path class="cls-15" d="M7.27,181.99s12.5,6.07,15.96,8.28c3.46,2.21,2.13,4.33,2.13,4.33H.09s-.36-9.84,.35-11.97c.71-2.13,6.83-.64,6.83-.64Z"/>
          <rect class="cls-5" x=".09" y="193.18" width="25.52" height="1.42" transform="translate(25.7 387.79) rotate(-180)"/>
        </g>
        <g>
          <path class="cls-3" d="M31.99,63.94c-.2,2-.56,4.02-1.07,6.01-.15-.31-.3-.62-.45-.92-.62-1.27-1.25-2.59-1.91-3.87-.92-1.78-1.82-3.38-2.75-4.9-.5-.81-1.01-1.61-1.53-2.36-.24-.36-.49-.71-.74-1.05,1.89,1.42,3.6,2.14,5.08,2.14,.33,0,.64-.03,.95-.1,1.27-.29,2.03-1.11,2.4-1.65,.23,2.52,.02,6.68,.02,6.72Z"/>
          <path class="cls-15" d="M43.23,80.99c-.48-.2-.96-.42-1.45-.63-.68-.3-1.41-.63-2.18-.99-.6-.28-1.21-.57-1.82-.86,0,0-.01,0-.02-.01-.25-.12-.5-.24-.75-.36l-.18-.09c-.17-.08-.34-.17-.51-.25-.68-.33-1.41-.69-2.3-1.14-.48-.24-.94-.48-1.38-.7-.43-.22-.84-.43-1.23-.63-.02-.88-.16-3.36-.23-4.45l-.02-.38h0c.58-2.16,.99-4.36,1.2-6.54,0-.05,.22-4.34-.03-6.88,.23,.19,.45,.38,.65,.56,3.4,2.97,5.75,5.99,7.19,9.22,1.69,3.81,2.39,7.86,2.91,12.78l.03,.32c.04,.34,.07,.69,.1,1.03Z"/>
          <path class="cls-11" d="M34.59,41.98l-.15,5.79c-.05,1.85-1.34,3.77-3.07,4.57l-.13,.06h0s.32,1.99,.32,1.99l.35,2.21c-.13,.26-.85,1.54-2.41,1.89-1.8,.41-4.05-.5-6.66-2.71-.01-.01-.02-.03-.03-.04,2.71-3.85,1.59-6.51,1.51-6.7,0,0,0,0,0,0,0,0,0,0,0,0-.35-.73-.66-1.47-.92-2.09,0,0-.01-.03-.02-.06-.14-.36-.17-.44-.33-.4-.18,.04-.36,.06-.54,.06-.67,0-1.31-.22-1.79-.63-.47-.41-.74-.96-.74-1.54-.01-1.07,.84-1.99,2.03-2.19l.15-.03h0s.03,0,.04,0c0,0,.11-1.45,1.21-3.09,1.01-1.51,2.35-1.73,5.03-.55,1.92,.84,3.83,1.14,5.46,.52,.26,.68,.55,1.67,.72,2.95Z"/>
          <path class="cls-15" d="M59.29,88.08v.04s0,.01,0,.01c-.02,.24-.02,.37-.03,.44,0,.07,0,.08,0,.08l-.48,7.32c-.02,.38-.33,.68-.71,.7-2.98,.16-5.66,.26-8.2,.31-1.56,.03-3.25,.06-4.95,.06-.18,0-.37,0-.55,0h0c-.65,0-1.32,0-1.98-.02h0c-.12,0-.25,0-.37,0-.98-.02-1.94-.06-2.85-.11h-.02c-1.83-.1-3.52-.26-5.11-.48-.7-.11-1.4-.22-2.09-.34-.39-.07-.77-.14-1.14-.21,0,0,0,0,0,0-1.84-.38-3.53-.85-5.15-1.44h0s-.02,0-.02,0c-.35-.13-.69-.26-1-.38-1.18-.47-2.35-.99-3.48-1.55-4.28-2.11-11.91-6.69-14.89-13.71,0,0,0,0,0,0-.76-1.78-1.17-3.63-1.23-5.5-.2-6.01,2.59-11.63,7.11-14.32,2.01-1.2,4.21-2.05,6.52-2.54,1.28-.27,2.6-.36,3.83-.44,.03,.03,.06,.05,.09,.08,.15,.19,.39,.57,.48,.71,.06,.09,.11,.17,.13,.2,.27,.37,.53,.75,.8,1.14,.51,.75,1.02,1.54,1.52,2.35,.93,1.52,1.83,3.11,2.74,4.88,.66,1.28,1.29,2.59,1.91,3.86,.22,.45,.43,.9,.65,1.35l.02,.37c.06,1.01,.19,3.23,.22,4.23-.44-.23-.84-.44-1.19-.62h-.03c-.98-.53-1.61-.87-1.7-.92,0,0,0,0-.01,0-3.65-2.29-6.07-4.43-7.19-6.38-.05-.09-.17-.12-.25-.07-.09,.05-.12,.17-.07,.25,1.15,2,3.62,4.19,7.32,6.51,0,0,0,0,.01,0,0,0,0,0,0,0,0,0,0,0,0,0,.11,.06,.74,.4,1.69,.9h.03c.43,.24,.93,.5,1.48,.79,.42,.21,.86,.44,1.33,.68,.44,.23,.9,.46,1.39,.7,.89,.45,1.62,.81,2.3,1.14,.17,.08,.34,.17,.51,.25l.18,.09c.25,.12,.5,.24,.76,.37h.02c.6,.3,1.22,.59,1.82,.87,.77,.36,1.5,.69,2.18,.99,.59,.26,1.18,.51,1.75,.76,2.13,.91,4.13,1.72,6.09,2.46,3.23,1.21,6.24,2.27,9.19,3.23,.39,.13,.65,.51,.62,.92Z"/>
          <path class="cls-15" d="M65.64,68.93h0l-1.91,8.35c-6.16,1.7-12.39,2.46-18.51,2.25h-.01c-.67-13.67-9.62-20.55-11.81-22.03,2.65,1.32,5.37,2.63,8.19,3.63,3.71,1.32,7.56,1.91,10.49,2.27,3.08,.39,6.24,.58,9.43,.58,1.04,0,2.09-.02,3.14-.06l1.57,2.49-.58,2.52Z"/>
          <path class="cls-4" d="M31.38,52.51l.3,1.93c-.08-.02-.31-.11-.38-.13-.74-.21-1.47-.46-2.18-.76-.71-.3-1.42-.61-2.06-1.04-.14-.09-.27-.19-.37-.32-.12-.15-.22-.38-.12-.57,.11-.23,.38-.24,.6-.21,1.12,.14,2.16,.65,3.26,.89,.27,.06,.55,.1,.84,.12,.09,0,.19,0,.28,.01-.05,.03-.1,.06-.16,.09Z"/>
          <path class="cls-2" d="M48.54,179.43l-.51,3.18c-.01,.07-.04,.13-.07,.18,0,0-.01,.02-.02,.03,0,0-.02,.02-.03,.03-.08,.08-.19,.13-.31,.13h-12.57s-.03,0-.05,0c-.03,0-.06,0-.09-.02-.03,0-.06-.02-.09-.03-.03-.01-.05-.03-.08-.05-.11-.09-.18-.21-.19-.36l-.15-3.08h14.16Z"/>
          <path class="cls-2" d="M15.19,179.43l-1.07,3.11s-.02,.06-.04,.09c-.03,.06-.08,.12-.13,.16,0,0-.01,.01-.02,.02-.12,.1-.28,.16-.45,.16H1.01c-.11,0-.21-.04-.29-.11-.01-.01-.02-.02-.03-.03-.03-.03-.05-.06-.07-.1-.01-.02-.02-.05-.03-.08-.01-.05-.02-.11-.01-.16l.32-3.07H15.19Z"/>
          <rect class="cls-1" x="70.17" y="63.78" width="2.02" height="9.98" transform="translate(-11.73 122.84) rotate(-77.12)"/>
          <path class="cls-3" d="M25.3,148.55c-.37,2.07-.7,3.56-.98,4.42l-9,26.09H.94l3.06-29.3c.13,.06,.26,.1,.39,.12,1.68,.29,3.37,.41,5.08,.41,3.81,0,7.66-.6,11.42-1.18l.81-.13c1.18-.18,2.39-.33,3.6-.45Z"/>
          <path class="cls-3" d="M53.22,149.36c-.06,.83-.16,1.67-.29,2.5l-4.34,27.19h-14.24l-1.08-21.53c-.03-.68-.06-1.37-.08-2.05-.08-2.41-.16-4.91-.77-7.27,1.99,0,4.06,.06,6.13,.19,2.68,.17,5.51,.45,8.89,.88,.31,.04,.64,.09,.99,.15,1.57,.24,3.34,.52,4.78-.07Z"/>
          <path class="cls-11" d="M93.74,64.66c-.12,.17-.26,.27-.42,.28-.06,0-.13,0-.2,0,0,0-.02,0-.03,0-.41-.09-.88-.5-1.2-.78l-.09-.08c-.22-.19-.48-.42-.73-.67-.26-.25-.52-.52-.76-.8-.06-.07-.13-.15-.19-.23-.09-.12-.19-.27-.26-.43,0,0,0-.02-.01-.03h0c-.1-.22-.15-.47-.11-.67,.03-.16,.13-.28,.29-.36,.08-.04,.17-.06,.27-.06,.18,0,.39,.06,.65,.19,.2,.1,.39,.21,.58,.33v.18l.16-.06c.3,.21,.6,.45,.91,.74h0c.21,.24,.45,.48,.7,.72h0c.21,.24,.37,.46,.48,.71,.17,.39,.16,.77-.03,1.03Z"/>
          <path class="cls-11" d="M95.95,62.74c-.05,.43-.58,.6-.94,.59-.48-.01-.97-.23-1.37-.59-.03-.03-.06-.05-.08-.08-.04-.05-.08-.09-.12-.14-.19-.21-.39-.41-.58-.59,0,0,0,0,0,0-.07-.07-.13-.15-.19-.22-.12-.15-.24-.32-.38-.52-.05-.08-.11-.15-.16-.22l-.06-.08c-.05-.07-.12-.16-.16-.25-.1-.2-.13-.4-.09-.56,.06-.25,.27-.37,.61-.35,.54,.03,1.14,.23,1.68,.53,0,0,0,0,0,0h0s0,0,0,0c0,0,0,0,0,0,0,0,0,0,0,0,0,0,0,0,.01,0,.13,.09,.28,.18,.44,.28,.13,.09,.24,.18,.35,.28,.56,.5,1.1,1.28,1.03,1.91Z"/>
          <path class="cls-11" d="M97.71,60.59c-.27,.34-1.02,.3-1.24,.28-.53-.05-1.08-.25-1.7-.63-.15-.1-.3-.2-.45-.29,0,0,0,0,0,0,0,0,0,0-.01,0,0,0,0,0-.01,0-.09-.06-.18-.11-.27-.17-.26-.15-.52-.31-.71-.51-.09-.09-.23-.28-.13-.49,.05-.11,.13-.21,.24-.29,.11-.09,.24-.15,.37-.19,.09-.02,.18-.03,.27-.03,.15,0,.31,.02,.47,.05,.09,.01,.17,.03,.26,.04,.19,.02,.38,.06,.57,.11,.11,.04,.22,.08,.33,.11,0,0,0,0,.01,0,.25,.09,.49,.21,.73,.36,0,0,.02,0,.02,.01,.31,.19,.6,.42,.86,.68,.44,.43,.58,.76,.41,.97Z"/>
          <path class="cls-11" d="M98.7,57.74c-.06,.14-.2,.26-.39,.34-.38,.16-.9,.26-1.38,.27-.01,0-.03,0-.04,0-.3,0-.58-.02-.86-.09-.08-.02-.15-.04-.23-.06-.1-.04-.2-.07-.31-.11,0,0-.02,0-.02,0-.18-.07-.35-.14-.53-.23-.11-.05-.21-.11-.31-.17-.16-.09-.66-.42-.55-.74,.03-.11,.11-.21,.23-.32,.67-.58,1.63-.65,2.93-.23,.22,.07,.44,.16,.64,.26,.21,.11,.58,.33,.77,.63,0,0,0,.02,.01,.02,.01,.02,.02,.04,.03,.07,.06,.12,.07,.24,.02,.35Z"/>
          <path class="cls-8" d="M106.51,14.85c-4.5-7.17-11.53-12.16-19.79-14.05-17.04-3.9-34.08,6.8-37.98,23.85-1.36,5.96-.99,12.13,1.09,17.85,.75,2.07,1.72,4.07,2.88,5.94,1.25,2.02,2.74,3.9,4.41,5.59,.36,.36,.72,.71,1.07,1.04,.19,.18,.39,.36,.59,.53,.68,.6,1.39,1.17,2.11,1.69l.03,.02,5.67,9,9.79,2.24,8-5,1.02-.64h.03c1.34-.26,2.69-.6,4-1.02-.08-.24-.11-.49-.06-.71,.06-.27,.22-.48,.48-.62,.33-.17,.74-.13,1.25,.13,.2,.1,.4,.22,.6,.34-.05-.07-.1-.14-.14-.22-.1-.2-.2-.5-.12-.82,.1-.44,.47-.67,.99-.63,.17,.01,.34,.04,.52,.07-.2-.25-.25-.54-.13-.8,.07-.16,.19-.31,.36-.44,.15-.12,.33-.2,.5-.25,.19-.05,.37-.05,.55-.04-.45-.32-.63-.69-.52-1.04,.05-.17,.17-.33,.35-.49,.78-.67,1.85-.77,3.28-.31,.24,.08,.47,.17,.69,.28,.22,.11,.56,.32,.81,.62,5.91-4.48,10.07-10.93,11.72-18.18,1.89-8.26,.45-16.75-4.06-23.93Zm.5,23.12c-1.67,7.31-6.09,13.53-12.43,17.51-4.53,2.84-9.65,4.31-14.87,4.31-2.1,0-4.21-.24-6.31-.71-5.19-1.19-9.9-3.8-13.63-7.55-3.16-3.18-5.54-7.11-6.89-11.38-.11-.34-.21-.68-.3-1.03l-.02-.07h0c-.22-.79-.4-1.61-.54-2.42v-.05c-.29-1.6-.43-3.22-.43-4.83,0-2.1,.24-4.2,.71-6.28,.5-2.18,1.25-4.29,2.24-6.27,.31-.63,.65-1.25,1.02-1.86,.05-.08,.1-.17,.15-.25,.53-.88,1.12-1.73,1.74-2.53,.18-.23,.35-.44,.51-.64l.03-.04c.47-.57,.97-1.13,1.49-1.66,3.3-3.41,7.44-5.94,11.97-7.33,4.67-1.43,9.67-1.61,14.46-.52,7.31,1.67,13.53,6.09,17.51,12.43,3.99,6.35,5.26,13.87,3.59,21.18Z"/>
          <g class="cls-6">
            <path class="cls-12" d="M106.64,37.88c-2.93,12.82-14.37,21.52-26.99,21.52-2.04,0-4.1-.23-6.17-.7-2.56-.59-5-1.52-7.26-2.77-2.26-1.25-4.34-2.82-6.18-4.67-3.12-3.13-5.47-7.02-6.8-11.23-.1-.31-.19-.63-.28-.95h0s-.02-.07-.02-.07c-.22-.79-.4-1.59-.54-2.4h0s-.02-.09-.02-.09c-.64-3.64-.55-7.34,.28-10.98,.49-2.15,1.23-4.23,2.21-6.19,.31-.62,.65-1.24,1-1.84,.05-.08,.1-.16,.15-.24,.53-.86,1.11-1.71,1.72-2.5,.16-.21,.32-.41,.47-.59l.03-.04c.48-.58,.98-1.15,1.5-1.68,6.81-7.03,16.56-9.92,26.08-7.75,14.88,3.4,24.23,18.28,20.82,33.16Z"/>
          </g>
          <path class="cls-8" d="M70.19,95.48l-1.9,8.32c-.09,.4-.37,.73-.75,.88-.24,.1-.5,.12-.75,.06l-7.29-1.67c-.33-.07-.6-.27-.78-.55-.18-.28-.24-.62-.16-.94l1.3-5.68c1.04-.02,2.29-.06,3.54-.09,1.95-.05,3.97-.1,5.14-.13,.53,0,1.12-.02,1.66-.19Z"/>
          <path class="cls-11" d="M73.85,88.64c-.02,.22-.18,.51-.4,.7-.15,.13-.3,.19-.43,.18,0,0-.02,0-.02,0-.01,0-.02,0-.03,0,0,0-.02,0-.03,0-.01,0-.03,0-.04,.02,0,0-.01,0-.02,.02,0,0-.02,.02-.03,.03,0,0-.01,.02-.02,.02,0,.01,0,.02-.01,.03,0,0,0,0,0,0,0,0,0,.02,0,.03,0,0,0,.01,0,.02,0,.01,0,.02,0,.03,0,0,0,.02,0,.02,0,0,0,0,0,.01,0,.02,.02,.03,.03,.04,0,0,0,.01,.01,.02,.01,.01,.02,.02,.04,.03,0,0,0,0,0,0,.19,.1,.39,.38,.37,.56-.03,.29-.17,.39-.38,.55-.19,.14-.55,.24-.87,.24h0s-.02,0-.03,0c-.05,0-.09,.04-.12,.08,0,0,0,0,0,0,0,0,0,.01-.01,.02h0s0,.02-.01,.04c0,.01,0,.02,0,.04h0s0,.02,0,.03c0,0,0,0,0,.01,.01,.05,.04,.09,.08,.11,.24,.15,.45,.44,.5,.69,.02,.08,.03,.2-.03,.28-.16,.23-.52,.39-1.09,.46-.1,.01-.17,.11-.16,.21,0,.02,0,.04,.02,.06,0,0,0,0,0,.01h0s0,0,0,0c.32,.55-.06,1.3-.6,1.62-.06,.04-.13,.07-.19,.1,0,0-.01,0-.02,0-.56,.26-1.25,.27-1.85,.28-1.17,.02-3.19,.08-5.14,.13-1.17,.03-2.34,.06-3.34,.09-.11,0-.23,0-.34,0h-.23c-.11,0-.21,.01-.31,.01l.45-6.86s.02-.25,.03-.4h0c.28-.08,.58-.17,.88-.26,.36-.11,.74-.22,1.11-.34,0,0,0,0,0,0,1.51-.48,5.25-1.74,7.63-3.08,.3-.17,.56-.34,.79-.49,.61-.41,.91-.59,1.2-.4,.17,.11,.28,.3,.31,.56,.07,.47-.12,1.12-.45,1.5-.51,.6-1.35,.86-2.02,1.07,0,0,0,0,0,0,0,0-.01,0-.02,0,0,0-.01,0-.02,0,0,0,0,0,0,0,0,0-.02,0-.02,.02,0,0-.01,.01-.02,.02-.02,.02-.04,.05-.04,.09,0,.03,0,.06,0,.09,0,0,0,0,0,.01,0,0,0,.02,.01,.03,.01,.02,.03,.04,.06,.06,0,0,.01,0,.02,.01,0,0,.02,0,.03,.01,0,0,.02,0,.03,0,.02,0,.04,0,.07,0,.94-.18,1.89-.2,2.83-.04,.07,.01,.15,.03,.22,.04,0,0,0,0,0,0,0,0,0,0,.01,0,0,0,0,0,.01,0h0c.33,.07,.69,.18,.99,.4,.37,.26,.59,.67,.56,1.04Z"/>
          <path class="cls-8" d="M75.73,71.24l-2.01,8.8h0s-1.54,6.75-1.54,6.75c-.03,0-.06,0-.08-.01-.51-.08-1.02-.12-1.53-.11,.32-.17,.62-.38,.86-.67,.39-.46,.61-1.21,.53-1.79-.05-.36-.22-.65-.48-.82-.51-.34-1,0-1.61,.4-.22,.15-.48,.32-.76,.48-2.2,1.24-5.61,2.41-7.26,2.95l1.29-5.63s0-.02,0-.03l.93-4.07s0-.02,0-.03l1.93-8.45,9.73,2.22Z"/>
          <path class="cls-15" d="M86.47,67.42c-.02,.1-.09,.17-.17,.22-1.49,.79-6.55,3.47-10.57,5.3l.41-1.8v-.05s.5-2.14,.5-2.14h.04v-.15l7.74-4.84,1.84,2.91,.02,.03,.16,.25c.05,.08,.07,.18,.04,.28Z"/>
          <path class="cls-11" d="M92.5,65.08c-.33,.09-.65,.15-.96,.15-.71,0-1.2-.29-1.72-.69,0,0,0,0,0,0,0,0,0,0,0,0-.08-.06-.16-.13-.24-.2-.12-.1-.27-.22-.41-.35-.08-.07-.19-.06-.26,.01-.07,.08-.06,.19,.02,.26,.14,.13,.29,.25,.42,.36,.03,.02,.05,.04,.08,.06-.51,.41-1.23,.93-2.14,1.44-.24,.14-.5,.28-.77,.41l-1.76-2.78,.74-.46,.06-.04c1.36-.25,2.71-.6,4.04-1.03h0c.07,.14,.15,.27,.24,.37,.06,.08,.13,.16,.2,.24,.5,.58,1.08,1.11,1.54,1.5l.09,.08c.24,.21,.54,.47,.86,.66Z"/>
          <path class="cls-15" d="M54.36,148.08c-.28,.34-.62,.62-1.01,.82-1.38,.71-3.22,.42-4.85,.17-.35-.05-.68-.11-1-.15-3.39-.43-6.22-.71-8.91-.88-2.17-.14-4.32-.2-6.4-.19-.67,0-6.99,.26-7.58,.28,1.51-14.62,6.3-32.83,6-52-3.71-13.01,5.68-.74,8,0,1.08,.35,1.71,.04,3,0,.09,0,1.92,0,2,0,.41-.29,1,0,1,0,1.32,7.63,2.7,16.7,4.88,24.39,1.6,5.63,2.78,10.3,3.71,14.7,.13,.61,.33,1.36,.57,2.23,.92,3.39,2.3,8.52,.59,10.63Z"/>
          <path class="cls-15" d="M28.95,145.88c-1.5,.05-3,.14-4.44,.27-1.3,.12-2.6,.28-3.87,.47l-.81,.13c-5.42,.84-11.02,1.71-16.38,.77-.17-.03-.34-.1-.5-.2,0,0,0,0-.01,0,0,0-.01,0-.02-.01-.15-.11-.3-.24-.43-.41-.47-.57-1.24-2.01-1.14-5.27L5.61,76.12c5.37,9.43,15.36,17.36,25.15,18.78l.85-2.78c.3,19.19-1.16,39.14-2.67,53.77Z"/>
          <path class="cls-4" d="M87.26,66.13c-.24,.14-.5,.28-.77,.41l-1.76-2.78,.74-.46,1.79,2.83Z"/>
          <path class="cls-4" d="M60.53,88.02s0,.09,0,.14c0,0-.04,.57-.04,.59l-.45,6.77c-.11,0-.23,0-.34,0h-.23c-.11,0-.21,.01-.31,.01l.45-6.86s.02-.25,.03-.4h0c.28-.08,.58-.17,.88-.26Z"/>
        </g>
        <g>
          <g>
            <path class="cls-16" d="M42.38,97.39h0c-.1,0-.19-.08-.19-.19s.08-.19,.19-.19,.19,.08,.19,.19-.08,.19-.19,.19Z"/>
            <path class="cls-16" d="M25.5,94.77s0,0,0,0h0Zm.13-.35h0s0,0,0,0Zm-3.16-38.46h0Z"/>
          </g>
          <g>
            <path class="cls-10" d="M34.81,38.55c.34,2.69-.09,5.41-.09,5.41-.02-2.27-.47-3.93-.85-4.93-1.63,.61-3.54,.32-5.46-.52-2.68-1.18-4.02-.96-5.03,.55-1.1,1.65-1.21,3.09-1.21,3.09-2.75-.52-3.71,5.03,.89,4.52,.14-.02,.99,2.15,1.38,3.14,.25,.65-.16,2.08-.16,2.08,0,0-11.64-4.9-4.6-16.09,3.11-4.94,6.25-4.27,9.08-3.69,3.57,.73,5.54,1.83,6.86,1.45,.71-.2,1.3-.85,1.45-.45,.14,.4,.49,2.81-1.42,4.74-.27,.27-.55,.5-.85,.7Z"/>
            <path class="cls-10" d="M45.22,79.72c-.08,0-.15,0-.23,0-.1,0-.21,0-.31-.01-.45-.02-.94-.05-1.4-.08-.47-4.38-1.13-8.78-2.93-12.83-1.62-3.65-4.26-6.68-7.24-9.29l-.18-.31s11.61,6.81,12.3,22.52Z"/>
          </g>
        </g>
      </g>
      <g>
        <path class="cls-7" d="M204.39,184.55c-.5-2.66-2.84-4.59-5.55-4.59-46.65-1.94-94.18-4.1-116.98,0-2.31,0-4.33,1.54-4.94,3.77-1.52,5.56-1.24,10.09,1.24,13.36h125.09c1.88-3.55,2.02-7.83,1.13-12.54Z"/>
        <path class="cls-12" d="M199.95,177.05c0-1.59-1.31-2.86-2.9-2.86-17.24,0-115.18,0-115.26,0-.4,0-1.08,2.44-1.14,2.78-.24,1.27,.32,2.6,1.29,3.43,.54,.46,1.01,.57,1.69,.64,.64,.06,1.36,.07,1.8,.63,.84,1.08,1.22,2.45,2.03,3.56,.81,1.1,2.38,1.9,3.53,1.17,.85-.54,1.1-1.63,1.36-2.6,.27-.97,.78-2.05,1.77-2.24,1.22-.23,2.18,1.07,2.47,2.28,.29,1.21,.28,2.56,1.06,3.53,1.18,1.45,3.61,1.16,5.05-.04,1.44-1.2,2.18-3.01,3.05-4.67,1.37-2.64,3.33-4.38,6.48-3.9,1.78,.27,3.41,1.1,5.05,1.83,5.53,2.48,12.06,1.66,17.87,.77,10.76-1.65,21.44-1.61,32.29-1.37,9.86,.23,19.73-.01,29.59-.01,1.59,0,2.89-1.28,2.9-2.86,0-.02,0-.04,0-.06Z"/>
        <path class="cls-14" d="M199.63,166.1H81.8c-1.77,3.42-2.52,6.43,0,8.08,1.07,.7,4.73,.17,6.05,.21,2.25,.07,4.51,.14,6.76,.21,9.18,.29,18.59,.66,27.81,1.58,9.06,.9,18.25,1.78,27.3,.33,3.19-.51,6.35-1.27,9.6-1.35,3.25-.07,6.73,.66,8.84,2.65,1.29,1.22,1.93,2.9,3.07,4.25,1.49,1.76,4.09,3.42,6.42,2.17,2.27-1.22,1.52-4.03,2.63-5.94,1.02-1.76,3.62-2.29,4.78-.45,.86,1.36,.31,3.39,1.94,4.29,1.7,.94,3.89-.37,5.29-1.59,4.35-3.78,11.01-7.69,7.32-14.45Z"/>
        <path class="cls-7" d="M203.17,150.34c-.58-7.75-3.95-15.32-9.54-20.74-6.27-6.08-14.76-9.32-23.18-11.65-12.11-3.36-24.65-5.19-37.22-5.44-9.64-.19-19.43,.58-28.53,3.79-9.09,3.2-17.5,9.01-22.51,17.26-3.11,5.14-4.74,11.27-4.46,17.25,.1,2.1,1.82,3.75,3.92,3.75h117.61c2.28,0,4.08-1.94,3.91-4.21Z"/>
        <path class="cls-3" d="M199.63,160.32H81.8c-.5,0-.79,3.02-.77,3.43,.21,3.82,2.13,6.79,6.19,6.84,2.63,.03,5.1-.83,7.53-1.54,2.43-.71,5.18-1.29,7.66-.68,3.05,.75,5.38,3.2,8.57,2.85,3.52-.38,4.7-3.85,8.05-4.7,5.71-1.45,10.47,5.67,16.23,4.33,3.23-.75,4.54-3.88,7.87-4.39,4.88-.74,8.48,4.78,13.31,3.89,2.47-.46,3.76-2.43,6.05-3.22,3.94-1.37,8.19,1.21,12.41,2.09,3.41,.71,7.05,.27,10.55-.18,4.14-.53,9.03,.07,12.82-1.99,2.58-1.4,3.02-4.4,1.37-6.72Z"/>
        <path class="cls-12" d="M199.63,154.54H81.8c-.93,2.45-1.14,4.49,0,5.78h5.89c1.06,0,2.1,.24,3.05,.68,0,0,.01,0,.02,0,1.28,.59,2.76,.49,4.18,.42,1.41-.07,2.92-.07,4.12,.68,1.55,.97,2.15,2.91,2.42,4.72,.26,1.81,.32,3.71,1.23,5.3,.91,1.59,3.05,2.66,4.59,1.69,1.73-1.1,1.44-3.67,.89-5.64-.55-1.97-.97-4.49,.66-5.73,.91-.69,2.13-.68,3.26-.85,.41-.06,.84-.16,1.23-.33,1.58-.66,3.29-.95,5-.95h81.29c1.37-1.93,1.37-3.85,0-5.78Z"/>
        <g>
          <circle class="cls-13" cx="101.91" cy="128.04" r="1.62"/>
          <path class="cls-13" d="M129.25,126.41c-1.33,0-2.4,1.08-2.4,2.4s1.08,2.4,2.4,2.4,2.4-1.08,2.4-2.4-1.08-2.4-2.4-2.4Z"/>
          <ellipse class="cls-13" cx="157.08" cy="129.96" rx="2.68" ry="1.59"/>
          <path class="cls-13" d="M138.36,140.4c-.51,0-.92,.41-.92,.92s.41,.92,.92,.92,.92-.41,.92-.92-.41-.92-.92-.92Z"/>
          <path class="cls-13" d="M126.07,142.24c-.43,0-.78,.66-.78,1.48s.35,1.48,.78,1.48,.78-.66,.78-1.48-.35-1.48-.78-1.48Z"/>
          <path class="cls-13" d="M109.85,137.86c-.6,0-1.1,.49-1.1,1.1s.49,1.1,1.1,1.1,1.1-.49,1.1-1.1-.49-1.1-1.1-1.1Z"/>
          <path class="cls-13" d="M89.9,147.04c-1.29,0-2.33,.47-2.33,1.06s1.04,1.06,2.33,1.06,2.33-.47,2.33-1.06-1.04-1.06-2.33-1.06Z"/>
          <path class="cls-13" d="M172.41,148.1c-.74,0-1.34,.24-1.34,.53s.6,.53,1.34,.53,1.34-.24,1.34-.53-.6-.53-1.34-.53Z"/>
          <path class="cls-13" d="M174.64,138.28c-.49,0-.88,.4-.88,.88s.4,.88,.88,.88,.88-.4,.88-.88-.4-.88-.88-.88Z"/>
          <path class="cls-13" d="M157.97,122.88c.49,0,.88-.4,.88-.88s-.4-.88-.88-.88-.88,.4-.88,.88,.4,.88,.88,.88Z"/>
          <path class="cls-13" d="M166.69,136.73c-.31,0-.57,.55-.57,1.22s.25,1.22,.57,1.22,.57-.55,.57-1.22-.25-1.22-.57-1.22Z"/>
          <path class="cls-13" d="M145.18,149.16c-.53,0-.95,.43-.95,.95s.43,.95,.95,.95,.95-.43,.95-.95-.43-.95-.95-.95Z"/>
          <ellipse class="cls-13" cx="141.05" cy="128.04" rx="1.2" ry="1.62"/>
          <path class="cls-13" d="M173.33,126.41c.51,0,.92-.41,.92-.92s-.41-.92-.92-.92-.92,.41-.92,.92,.41,.92,.92,.92Z"/>
          <path class="cls-13" d="M181.74,132.35c-.43,0-.78,.35-.78,.78s.35,.78,.78,.78,.78-.35,.78-.78-.35-.78-.78-.78Z"/>
          <path class="cls-13" d="M191.83,142.8c-.54,0-.98,.44-.98,.98s.44,.98,.98,.98,.98-.44,.98-.98-.44-.98-.98-.98Z"/>
          <path class="cls-13" d="M185.43,146.15c-.54,0-.98,.44-.98,.98s.44,.98,.98,.98,.98-.44,.98-.98-.44-.98-.98-.98Z"/>
          <path class="cls-13" d="M115.44,122.88c-.8,0-1.45,.65-1.45,1.45s.65,1.45,1.45,1.45,1.45-.65,1.45-1.45-.65-1.45-1.45-1.45Z"/>
          <path class="cls-13" d="M92.44,134.89c-.82,0-1.48,.66-1.48,1.48s.66,1.48,1.48,1.48,1.48-.66,1.48-1.48-.66-1.48-1.48-1.48Z"/>
          <ellipse class="cls-13" cx="143.98" cy="118.71" rx="2.93" ry="1.91"/>
          <circle class="cls-13" cx="124.69" cy="119.03" r="1.1"/>
          <circle class="cls-13" cx="111.92" cy="148.54" r=".97"/>
          <circle class="cls-13" cx="155.18" cy="142.52" r="1.2"/>
        </g>
      </g>
    </g>
  </g>
</svg>