<?xml version="1.0" encoding="UTF-8"?>
<svg id="Layer_2" data-name="Layer 2" xmlns="http://www.w3.org/2000/svg" viewBox="0 0 425 425">
  <defs>
    <style>
      .cls-1 {
        fill: #c35e6c;
      }

      .cls-1, .cls-2, .cls-3, .cls-4, .cls-5, .cls-6, .cls-7, .cls-8, .cls-9, .cls-10, .cls-11, .cls-12, .cls-13, .cls-14, .cls-15, .cls-16, .cls-17, .cls-18, .cls-19, .cls-20, .cls-21, .cls-22, .cls-23, .cls-24, .cls-25, .cls-26, .cls-27, .cls-28, .cls-29, .cls-30, .cls-31, .cls-32, .cls-33, .cls-34, .cls-35, .cls-36, .cls-37, .cls-38, .cls-39, .cls-40, .cls-41, .cls-42, .cls-43, .cls-44, .cls-45, .cls-46, .cls-47, .cls-48, .cls-49 {
        fill-rule: evenodd;
      }

      .cls-2 {
        fill: #b3c875;
      }

      .cls-3 {
        fill: #face63;
      }

      .cls-4 {
        fill: #441c37;
      }

      .cls-5 {
        fill: #578d36;
      }

      .cls-6 {
        fill: #96b243;
      }

      .cls-7 {
        fill: #7385a0;
      }

      .cls-8 {
        fill: #fff;
      }

      .cls-9 {
        fill: #d53717;
      }

      .cls-10 {
        fill: #88c266;
      }

      .cls-11 {
        fill: #8ebbd9;
      }

      .cls-12 {
        fill: #8d4331;
      }

      .cls-13 {
        fill: #ac393d;
      }

      .cls-14 {
        fill: #007374;
      }

      .cls-15 {
        fill: #a4daf3;
      }

      .cls-16 {
        fill: #ea8e54;
      }

      .cls-50 {
        fill: #ffe500;
      }

      .cls-17 {
        fill: #d66e0f;
      }

      .cls-18 {
        fill: #d21b1a;
      }

      .cls-19 {
        fill: #f9c457;
      }

      .cls-20 {
        fill: #86234d;
      }

      .cls-21 {
        fill: #4d9b5d;
      }

      .cls-22 {
        fill: #c0566a;
      }

      .cls-23 {
        fill: #ffe57f;
      }

      .cls-24 {
        fill: #cfe8e5;
      }

      .cls-25 {
        fill: #b1c474;
      }

      .cls-26 {
        fill: #cb291d;
      }

      .cls-27 {
        fill: #f1a600;
      }

      .cls-28 {
        fill: #5a803a;
      }

      .cls-29 {
        fill: #dc4a33;
      }

      .cls-30 {
        fill: #62a739;
      }

      .cls-31 {
        fill: #d8bf05;
      }

      .cls-32 {
        fill: #658d33;
      }

      .cls-33 {
        fill: #6e3e5b;
      }

      .cls-34 {
        fill: #f7c8a4;
      }

      .cls-35 {
        fill: #5b2446;
      }

      .cls-36 {
        fill: #6c9841;
      }

      .cls-37 {
        fill: #cb7780;
      }

      .cls-38 {
        fill: #941f27;
      }

      .cls-39 {
        fill: #f09585;
      }

      .cls-40 {
        fill: #c37550;
      }

      .cls-41 {
        fill: #f1c18a;
      }

      .cls-42 {
        fill: #c8656f;
      }

      .cls-43 {
        fill: #437636;
      }

      .cls-44 {
        fill: #f8bd00;
      }

      .cls-45 {
        fill: #df3d1d;
      }

      .cls-46 {
        fill: #cae8f8;
      }

      .cls-47 {
        fill: #dba0a7;
      }

      .cls-48 {
        fill: #849b39;
      }

      .cls-49 {
        fill: #d3828b;
      }
    </style>
  </defs>
  <g id="Layer_1-2" data-name="Layer 1">
    <g>
      <circle class="cls-50" cx="212.5" cy="212.5" r="212.5"/>
      <g>
        <g>
          <g>
            <path class="cls-36" d="M212.5,77.49c5.88,0,10.65,4.77,10.65,10.65s-4.77,10.65-10.65,10.65-10.65-4.77-10.65-10.65,4.77-10.65,10.65-10.65Z"/>
            <path class="cls-28" d="M222.2,92.55c-1.68,3.68-5.39,6.24-9.7,6.24s-8.05-2.58-9.71-6.28c6.27-2.4,14.52-2.28,19.41,.04Z"/>
            <path class="cls-2" d="M212.91,80.9c-4.21,.03-5.71,1.93-8.13,5.03,1.38-6.87,9.17-8.78,9.22-6.16,.01,.62-.48,1.12-1.09,1.14Z"/>
          </g>
          <g>
            <path class="cls-15" d="M342.42,217.43h0c0-71.44-52.25-116.68-117.77-122.26-6.07-.52-12.17-.67-18.25-.47-69.26,2.3-123.83,48.45-123.82,122.74,0-22.14,58.17-40.08,129.92-40.08s129.92,17.95,129.92,40.08h0Z"/>
            <path class="cls-46" d="M235.11,101.24c-4.43-1.94-15.22-4.92-26.59-2.92-15,2.64-9.57,11.29-2.48,10.66,4.98-.44,11.19-2.85,27.84-1.09,7.39,.78,10.83-2.46,1.23-6.65Z"/>
            <path class="cls-46" d="M246.11,107.65c-1.29,4.45,9.1,6.22,9.3,1.44,.15-3.69-8.04-5.75-9.3-1.44Z"/>
            <path class="cls-11" d="M82.58,217.43h17.13c1-163.84,224.53-160.68,225.58,0h17.13c-.02-162.16-259.87-165.36-259.84,0Z"/>
          </g>
          <path class="cls-7" d="M212.5,257.52c71.56,0,129.92-18.01,129.92-40.09s-58.36-40.08-129.92-40.08-129.92,18.01-129.92,40.08,58.36,40.09,129.92,40.09Z"/>
          <path class="cls-35" d="M212.5,177.34c60.42,0,111.21,12.73,125.74,29.97-14.53,17.24-65.32,29.97-125.74,29.97s-111.21-12.73-125.74-29.97c14.53-17.24,65.32-29.97,125.74-29.97Z"/>
          <path class="cls-4" d="M100.2,197.26c22.52,11.91,64.38,19.92,112.3,19.92s89.78-8.01,112.3-19.92c-22.52-11.91-64.38-19.92-112.3-19.92s-89.78,8.01-112.3,19.92Z"/>
          <path class="cls-24" d="M84.12,217.43c0,.53-.43,.96-.96,.96s-.96-.43-.96-.96c0-11.54,14.74-21.88,38.56-29.26,23.5-7.28,55.93-11.79,91.74-11.79s68.24,4.5,91.74,11.79c23.83,7.38,38.56,17.72,38.56,29.26,0,.53-.43,.96-.96,.96s-.96-.43-.96-.96c0-10.6-14.22-20.31-37.2-27.43-23.32-7.23-55.55-11.7-91.18-11.7s-67.86,4.47-91.17,11.7c-22.99,7.12-37.2,16.83-37.2,27.43Z"/>
        </g>
        <g>
          <g>
            <path class="cls-44" d="M105.69,183.88c-27.6-8.34-41.58-40.93-41.58-85.78,12.5,0,31.7-1.52,41.58-16.21,9.88,14.7,29.08,16.21,41.58,16.21,0,44.85-13.98,77.44-41.58,85.78Z"/>
            <path class="cls-27" d="M140.59,103.44c-12.78-.8-27.18-3.98-36.56-12.7-9.38,8.71-22.12,11.89-34.9,12.7,.99,27.04,8.8,64.01,35.73,74,26.93-9.99,34.74-46.96,35.73-74Z"/>
            <path class="cls-35" d="M140.53,104.58c-12.78-.79-25.52-3.91-34.9-12.47-9.38,8.56-22.12,11.69-34.9,12.47,.99,26.57,7.98,62.74,34.9,72.56,26.93-9.82,33.91-45.99,34.9-72.56Z"/>
            <path class="cls-33" d="M82.38,103.1c-3.82,.77-7.73,1.23-11.65,1.48,.87,23.46,6.42,54.4,26.25,68.08-9.47-12.85-14.37-37.74-14.59-69.56Z"/>
            <path class="cls-35" d="M140.53,104.58c-3.92-.24-7.84-.7-11.65-1.48-.23,31.82-5.12,56.71-14.59,69.56,19.82-13.68,25.38-44.62,26.25-68.08Z"/>
            <polygon class="cls-44" points="128.88 125.19 128.88 139.15 112.61 139.15 112.61 155.43 98.64 155.43 98.64 139.15 82.37 139.15 82.37 125.19 98.64 125.19 98.64 108.91 112.61 108.91 112.61 125.19 128.88 125.19"/>
            <path class="cls-3" d="M66,100.14c-.24,0-.43-.22-.42-.46,.01-.24,.22-.43,.46-.42,3.4,.16,7.55-.07,11.41-.61,3.6-.5,6.94-1.27,9.17-2.25,.22-.1,.48,0,.58,.23,.1,.22,0,.48-.23,.58-2.31,1.01-5.73,1.8-9.4,2.32-3.91,.54-8.12,.77-11.57,.62Z"/>
            <path class="cls-35" d="M112.17,108.91c0-.24,.2-.44,.44-.44s.44,.2,.44,.44v15.83h15.83c.24,0,.44,.2,.44,.44v13.97c0,.24-.2,.44-.44,.44h-15.83v15.83c0,.24-.2,.44-.44,.44h-13.97c-.24,0-.44-.2-.44-.44s.2-.44,.44-.44h13.52v-15.83c0-.24,.2-.44,.44-.44h15.83v-13.08h-15.83c-.24,0-.44-.2-.44-.44v-16.28Z"/>
            <path class="cls-19" d="M108.56,178.13c-.22,.1-.48,0-.59-.21-.1-.22,0-.48,.21-.59,2.42-1.14,5.44-2.7,8.34-4.74,2.88-2.03,5.64-4.52,7.56-7.52,.13-.21,.4-.27,.61-.13,.2,.13,.27,.4,.13,.61-1.99,3.11-4.83,5.68-7.79,7.77-2.94,2.07-6.01,3.66-8.47,4.82Z"/>
          </g>
          <g>
            <path class="cls-35" d="M308.93,95.16c6.98-3,8.76-6.15,13.22-11.69,4.47,5.55,6.24,8.69,13.22,11.69,7.93,3.41,14.74,3.24,23.01,3.24v46.68c0,21.25-17.9,32.3-36.24,37.21-18.33-4.91-36.24-15.96-36.24-37.21v-46.68c8.28,0,15.08,.17,23.01-3.24Z"/>
            <path class="cls-24" d="M292.1,104.59v40.49c0,19.16,18.55,27.72,30.05,30.81,11.5-3.08,30.05-11.64,30.05-30.81v-40.49c-15.37,0-26-6.22-30.05-11.25-4.06,5.04-14.68,11.25-30.05,11.25Z"/>
            <path class="cls-24" d="M322.15,175.88c11.5-3.08,30.05-11.64,30.05-30.81v-40.49c-15.37,0-26-6.22-30.05-11.25v82.55Z"/>
            <path class="cls-11" d="M294.37,105.93v39.96c0,17.71,17.14,25.63,27.78,28.48,10.63-2.85,27.78-10.76,27.78-28.48v-39.96c-14.21,0-24.03-5.75-27.78-10.4-3.75,4.65-13.57,10.4-27.78,10.4Z"/>
            <path class="cls-44" d="M298.3,138.54c-1.88-1.85-1.9-4.86-.06-6.74,1.85-1.88,4.86-1.9,6.74-.06l14.8,14.54,33.04-31.69c1.9-1.83,4.92-1.77,6.74,.13,1.83,1.9,1.77,4.92-.13,6.74l-36.39,34.9c-1.85,1.78-4.8,1.78-6.65-.04l-18.1-17.78Z"/>
          </g>
        </g>
        <g>
          <g>
            <path class="cls-31" d="M212.5,262.1c75.2,0,136.16,18.82,136.16,42.04s-60.96,43.37-136.16,43.37-136.16-20.15-136.16-43.37,60.96-42.04,136.16-42.04Z"/>
            <path class="cls-8" d="M212.5,338.24c66.68,0,121.07-16.79,121.07-37.38s-54.39-37.38-121.07-37.38-121.07,16.79-121.07,37.38,54.39,37.38,121.07,37.38Z"/>
            <path class="cls-35" d="M333.02,300.86c0-.3,.25-.55,.55-.55s.55,.25,.55,.55c0,10.59-13.7,20.12-35.85,26.96-21.96,6.78-52.29,10.97-85.77,10.97-67.17,0-121.62-16.98-121.62-37.93,0-.3,.25-.55,.55-.55s.55,.25,.55,.55c0,20.34,53.96,36.83,120.52,36.83,33.38,0,63.59-4.17,85.45-10.92,21.67-6.69,35.07-15.85,35.07-25.91Z"/>
          </g>
          <g>
            <g>
              <g>
                <path class="cls-27" d="M191.42,233.97c4.1-14.57,24.32-13.96,28.61,2.06l-1.15,39.28-25.48,.2-1.97-41.54Z"/>
                <path class="cls-27" d="M181.01,234.74c2.29-9.93,15.53-12.31,22.29-.48,6.32,11.07,9.03,41.17-4.03,45.8-13.11,4.66-21.33-32.02-18.26-45.32Z"/>
                <path class="cls-27" d="M229.54,233.46c-2.43-12.86-22.24-10.87-25.85,1.71-4.51,15.72,3.72,45.44,12.13,43.47,10.1-2.37,18.67-18.95,13.71-45.18Z"/>
              </g>
              <g>
                <path class="cls-6" d="M215.83,237.89c.27,7.38-5.47,9.23-12.34,9.48-6.94,.26-11.2-.53-12.1-6.91-2.3-16.31,23.88-17.72,24.44-2.57Z"/>
                <path class="cls-48" d="M215.83,237.89c.04,.99-.04,1.89-.21,2.69-5.9,4.43-16.17,6.97-22.01,4.79-1.15-1.06-1.9-2.62-2.22-4.9-.81-5.73,1.9-9.62,5.78-11.6-3.34,2.59-2.58,3.51,.97,4.06,5.45,.85,16.06,.78,13.3-3.33,2.5,1.74,4.25,4.5,4.39,8.29Z"/>
                <path class="cls-6" d="M201.19,231.37c-.83-2.13-4.28-14.23,.02-20.03,5.46-7.36,12.18-3.18,8.5,1.8-2.55,3.45-6.06,6.52-3.95,16.59-.74,1.59-3.27,2.05-4.57,1.63Z"/>
                <path class="cls-48" d="M201.19,231.37c-.06-.14-.12-.33-.2-.56,5.93,1.18-.84-12.51,7.32-18.56,1.26-.94,2.02-1.72,2.42-2.37,.14,.95-.15,2.08-1.02,3.27-2.55,3.45-6.06,6.52-3.95,16.59-.74,1.59-3.27,2.05-4.57,1.63Z"/>
                <path class="cls-32" d="M204.96,227.53c-.03-.23,.13-.43,.35-.47,.23-.03,.43,.13,.47,.35,.02,.15,.07,.36,.12,.59,.18,.79,.42,1.78-.03,2.32-.47,.57-1.37,1.14-2.28,1.45-.45,.15-.91,.24-1.33,.24-.46,0-.88-.12-1.2-.38-.21-.17-.37-.4-.47-.69-.12-.37-.27-.85-.43-1.41-.13-.48-.28-1.02-.41-1.59-.05-.22,.09-.44,.31-.5,.22-.05,.44,.09,.5,.31,.14,.58,.27,1.1,.4,1.56,.15,.55,.3,1.01,.42,1.37,.05,.14,.12,.24,.21,.31,.16,.13,.4,.19,.68,.19,.32,0,.69-.07,1.06-.19,.77-.26,1.52-.73,1.9-1.19,.19-.23,0-1-.14-1.61-.06-.25-.11-.47-.14-.66Z"/>
                <path class="cls-25" d="M204.28,209.22c-2.91,3.1-5.84,7.51-3.21,17.19,.23-10.07,1-10.93,4.88-15.85,.37-.46,.3-1.14-.17-1.51-.46-.37-1.14-.3-1.51,.17Z"/>
              </g>
              <g>
                <path class="cls-44" d="M218.6,283.57c22.31,2.85,22.88-49.85,10.79-53.02-10.43-2.74-16.97,7.77-16.97,7.77-3.36,11.23-10.81,43.08,6.19,45.25Z"/>
                <path class="cls-27" d="M218.6,283.57c11.53,1.47,17.25-11.89,18.42-25.58-5.76,15.85-10.46-.14-12.53-10.29-2.07-10.14-9.46-12.11-9.46-12.11-7.24,10.24-13.56,45.79,3.57,47.98Z"/>
                <path class="cls-44" d="M178.11,232.92c-9.71,5.25-5.21,52.73,17.95,50.94,19.54-1.51,6.25-32.04,1.61-41.55-3.65-7.5-11.96-13.5-19.56-9.39Z"/>
                <path class="cls-27" d="M174.12,255.37c1.73,14.28,8.88,29.89,22.34,28.85,21.67-1.67,3.38-47.42-1.65-47.84-11.64-.07-8.08,15.32-7.79,24.28,.65,19.95-10.88,4.4-12.9-5.29Z"/>
                <path class="cls-44" d="M190.98,239.68c-3,15.26,.27,45.08,13.89,47.07,14.75,2.16,20.91-17.59,13.24-46.03-2.13-7.88-9.08-8.41-15.02-4.48-6.46-4.28-11.08-1.82-12.11,3.43Z"/>
                <path class="cls-27" d="M190.98,239.68c-3,15.26,.27,45.08,13.89,47.07,14.75,2.16,20.91-17.59,13.24-46.03-.54-2.02-1.41-3.55-2.48-4.66,3.28,14.89,3.16,29.88-3.64,27.28-7.26-2.77-9.73,9.5-14.65,.45-4.92-9.05-6.06-17.22-4.95-27.45-.67,.9-1.15,2.03-1.4,3.33Z"/>
                <path class="cls-17" d="M216.33,283.21c-.2,.23-.55,.25-.78,.05-.23-.2-.25-.55-.04-.78,2.32-2.61,3.72-6.17,4.5-10,1.04-5.13,.99-10.74,.59-15.25h0c-.15-.96-.3-1.99-.45-3.1-.87-6.25-2.08-14.89-5.78-18.43-.22-.21-.23-.56-.02-.78,.21-.22,.56-.23,.78-.02,3.97,3.8,5.21,12.66,6.1,19.07,.16,1.13,.3,2.18,.45,3.08,0,.03,.01,.06,.01,.08,.4,4.58,.46,10.3-.62,15.56-.82,4-2.29,7.74-4.75,10.52h0Zm-23.93-47.91c.2-.22,.55-.24,.78-.03,.22,.21,.24,.55,.03,.78-2.99,3.23-3.48,12.76-2.28,22.58,1.22,9.97,4.2,20.16,8.12,24.31,.21,.22,.2,.57-.02,.78-.22,.21-.57,.2-.78-.02-4.08-4.33-7.16-14.77-8.41-24.93-1.24-10.09-.66-19.98,2.57-23.45Z"/>
                <path class="cls-17" d="M193.22,235.32c.19,.23,.16,.58-.07,.77-.23,.19-.58,.16-.77-.08,0,0-2.34-2.93-6.81-3.64-.3-.05-.5-.33-.46-.63,.05-.3,.33-.51,.63-.46,4.89,.77,7.49,4.02,7.49,4.03Z"/>
                <path class="cls-17" d="M225.39,229.56c.3,0,.54,.26,.54,.56,0,.3-.26,.54-.56,.54-.01,0-4.68-.18-10.24,5.04-.22,.21-.57,.2-.78-.02-.21-.22-.2-.57,.02-.78,5.89-5.54,11.01-5.34,11.02-5.34Z"/>
                <path class="cls-23" d="M182.71,235.2c-4.84-.1-5.93,7.34-6.75,10.69l-.16-3.88c.31-4.29,2.34-8.7,7.05-8.95,.59,.04,1.04,.55,1.01,1.14-.04,.59-.55,1.04-1.14,1.01Z"/>
                <path class="cls-23" d="M202.75,238.32c2.39-2.05,4.33-2.97,7.42-2.17-2.73,1.18-3.73,1.18-5.8,3.58-.39,.45-1.07,.5-1.51,.11-.45-.39-.5-1.07-.11-1.51Z"/>
                <path class="cls-23" d="M229.25,234.57c-3.3-1.67-5.15-.71-8.67,.36,3.47-2.81,5.31-3.87,9.57-2.29,.51,.26,.73,.9,.48,1.44-.25,.53-.87,.75-1.38,.49Z"/>
              </g>
            </g>
            <g>
              <path class="cls-45" d="M315.27,278.6c2.55,3.53,1.76,8.47-1.78,11.02-3.53,2.55-8.47,1.76-11.02-1.78-.01-.02-4.27-6.13-18.62-4.96-4.33,.35-8.13-2.87-8.49-7.21-.35-4.33,2.87-8.13,7.21-8.49,23.34-1.91,32.67,11.38,32.69,11.42Z"/>
              <path class="cls-18" d="M313.5,289.62c-3.53,2.55-8.47,1.76-11.02-1.78-.01-.02-4.27-6.13-18.62-4.96-4.33,.35-8.13-2.87-8.49-7.21-.22-2.73,.97-5.24,2.97-6.82-1.16,1.38-1.76,3.18-1.52,5.06,.47,3.72,4.03,6.35,7.95,5.87,13-1.58,17.06,3.52,17.08,3.53,4.62,5.57,14.75,1.55,12.69-5.62,3.3,3.48,3.03,8.98-1.04,11.92Z"/>
              <path class="cls-39" d="M310.64,277.68c-6.07-4.97-8.88-5.79-16.26-8.14,7.29,.75,11.44,2.64,17.22,6.98,.32,.26,.37,.74,.1,1.06-.26,.32-.74,.37-1.06,.1Z"/>
            </g>
            <g>
              <path class="cls-45" d="M151.68,248.65c-29.97-3.21-35.78,44.52,5.63,42.62,46.58-2.13,30.56-62.1-5.63-42.62Z"/>
              <path class="cls-9" d="M151.68,248.65c-3.7-.4-7.03-.01-9.95,.95,.66,.49,3.84,1.72,6.28,1.95,2.44,.23-3.16,2.96-3.54,4.4-.59,2.22,9.17-2.6,10.39-3.27,0,0,4.54,1.03,7.5,.95,6.76-.18-3.99-6.53-5.53-7.28-1.66,.59-3.38,1.34-5.14,2.29Z"/>
              <path class="cls-18" d="M151.68,248.65c-3-.32-5.75-.12-8.24,.47,24.69-.06,30.29,12.61,28.1,23.22-2.19,10.6-15.02,19.99-34.01,14.66,4.73,2.94,11.25,4.67,19.79,4.27,46.58-2.13,30.56-62.1-5.63-42.62Z"/>
              <path class="cls-6" d="M154.08,246.67s-7.45-.18-12.88,1.44c-5.43,1.62,11.4,2.97,11.4,2.97,0,0,9.34-2.1,1.48-4.41Z"/>
              <path class="cls-6" d="M152.41,246.98c5.56-2.02,11.44-4.4,14.23-3.24,1.16,.48-5.58,4.39-11.22,6.47l-3.01-3.23Z"/>
              <path class="cls-6" d="M149.7,249.31c-2.51,2.01-8.57,5.88-7.07,6.75,1.49,.87,10.4-3.66,13.81-6.24l-6.74-.51Z"/>
              <path class="cls-6" d="M150.81,250.77c2.95,.41,13.16,3.1,14.13,1.39,.86-1.51-4.62-3.78-9.13-5.22l-5,3.83Z"/>
              <path class="cls-6" d="M150.41,247.98c-.48-.61-3.11-3.67-1.66-4.35,1.45-.67,5.17,1.54,6.78,3l-5.12,1.35Z"/>
              <path class="cls-32" d="M155.61,247.48c.23,.88-.29,1.79-1.18,2.02-.88,.23-1.78-.29-2.02-1.18-1.33-5.02-.53-12.6,4.78-14.54,2.04-.75,5.27,3.18,3.22,3.93-3.64,1.34-5.69,6.46-4.81,9.78Z"/>
              <path class="cls-39" d="M139.63,254.94c-6.74,3.96-7.39,10.66-7.61,17.57l-.68-2.37c-1.19-6.36,1.76-13.57,7.2-17.14,.54-.3,1.22-.11,1.52,.43,.3,.54,.11,1.22-.43,1.52Z"/>
            </g>
            <g>
              <g>
                <path class="cls-5" d="M272.28,238.38c-5.12-13.36-24.09-11.04-26.73,4.41l4.47,36.85,23.99-2.01-1.73-39.25Z"/>
                <path class="cls-5" d="M282.14,238.2c-3.01-9.14-15.67-10.24-21.01,1.48-4.99,10.96-4.94,39.51,7.74,42.74,12.74,3.25,17.3-31.96,13.27-44.22Z"/>
                <path class="cls-5" d="M236.37,241.18c1.18-12.31,19.98-12.14,24.46-.62,5.6,14.4,.43,43.07-7.66,41.94-9.71-1.36-19.2-16.21-16.8-41.32Z"/>
              </g>
              <g>
                <path class="cls-6" d="M271.66,244.17c-.38,6.97-5.94,8.21-12.42,7.86-6.55-.36-10.49-1.47-10.79-7.55-.76-15.55,24-14.61,23.21-.31Z"/>
                <path class="cls-48" d="M271.66,244.17c-.05,.94-.2,1.77-.43,2.51-5.93,3.66-15.81,5.16-21.12,2.6-.99-1.1-1.56-2.63-1.67-4.81-.27-5.46,2.62-8.89,6.43-10.42-3.37,2.14-2.73,3.08,.57,3.91,5.05,1.27,15.04,2.12,12.8-1.98,2.2,1.86,3.61,4.6,3.41,8.18Z"/>
                <path class="cls-6" d="M258.45,236.78c-.6-2.07-2.8-13.76,1.75-18.84,5.77-6.45,11.73-1.94,7.84,2.43-2.7,3.03-6.26,5.61-5.15,15.27-.84,1.43-3.25,1.64-4.44,1.14Z"/>
                <path class="cls-48" d="M258.45,236.78c-.04-.14-.09-.32-.14-.54,5.48,1.62,.29-11.84,8.49-16.83,1.27-.77,2.04-1.44,2.48-2.02,.05,.9-.32,1.95-1.24,2.98-2.7,3.03-6.26,5.61-5.15,15.27-.84,1.43-3.25,1.64-4.44,1.14Z"/>
                <path class="cls-43" d="M262.3,233.49c-.01-.23,.16-.42,.39-.43,.23-.01,.42,.16,.43,.39,0,.14,.03,.34,.07,.56,.11,.76,.24,1.72-.23,2.2-.5,.5-1.4,.96-2.28,1.17-.44,.1-.88,.15-1.27,.11-.44-.04-.83-.19-1.11-.47-.18-.18-.32-.41-.39-.7-.08-.35-.18-.81-.28-1.37-.08-.46-.17-.98-.25-1.53-.03-.23,.13-.43,.35-.47,.23-.03,.43,.13,.47,.35,.08,.55,.16,1.06,.24,1.5,.09,.52,.19,.97,.27,1.33,.03,.13,.09,.23,.16,.3,.14,.14,.35,.21,.61,.24,.3,.03,.65,0,1.01-.09,.74-.18,1.49-.55,1.88-.95,.19-.19,.08-.93,0-1.51-.03-.24-.06-.45-.07-.64Z"/>
                <path class="cls-25" d="M265.66,215.4c-5.73,1.83-7.86,7.49-7.41,13.14l.51,2.85c.37-5.62,.75-12.55,7.29-14.29,.47-.11,.77-.58,.66-1.05-.11-.47-.58-.77-1.05-.66Z"/>
              </g>
              <g>
                <path class="cls-30" d="M250.99,287.38c-20.74,4.61-25.83-44.92-14.73-48.95,9.58-3.48,16.64,5.84,16.64,5.84,4.13,10.27,13.89,39.59-1.91,43.11Z"/>
                <path class="cls-5" d="M250.99,287.38c-10.72,2.38-17.25-9.69-19.54-22.48,6.78,14.41,9.83-1.04,10.9-10.76,1.07-9.72,7.85-12.21,7.85-12.21,7.69,9,16.71,41.91,.79,45.45Z"/>
                <path class="cls-30" d="M284.71,236.23c9.59,4.1,9.46,49.15-12.49,49.47-18.51,.27-8.64-29.6-5.11-38.95,2.79-7.37,10.09-13.73,17.59-10.52Z"/>
                <path class="cls-5" d="M290.41,257.01c-.39,13.58-5.77,28.88-18.53,29.07-20.54,.3-7.27-44.32-2.58-45.15,10.95-1.07,8.93,13.71,9.43,22.16,1.12,18.82,10.62,3.2,11.68-6.09Z"/>
                <path class="cls-30" d="M273.19,243.71c4.14,14.1,3.64,42.43-9,45.48-13.69,3.31-21.19-14.74-16.43-42.16,1.32-7.6,7.81-8.7,13.74-5.51,5.7-4.59,10.26-2.67,11.69,2.18Z"/>
                <path class="cls-5" d="M273.19,243.71c4.14,14.1,3.64,42.43-9,45.48-13.69,3.31-21.19-14.74-16.43-42.16,.34-1.95,1.01-3.47,1.94-4.6-2.55,13.52-.39,28.38,5.78,25.35,6.59-3.24,9.97,8.1,13.82-.84,3.85-8.94,4.21-16.72,2.29-26.25,.71,.79,1.25,1.81,1.61,3.01Z"/>
                <path class="cls-43" d="M253.78,286.12c.19,.18,.2,.48,.02,.67-.18,.19-.48,.2-.67,.02-2.55-2.39-4.25-5.77-5.37-9.46-1.46-4.84-1.9-10.22-1.92-14.57v-.03s0,0,0,0c.06-.92,.11-1.91,.16-2.97,.29-6.1,.69-14.53,4.09-18.44,.17-.2,.47-.22,.67-.05,.2,.17,.22,.47,.05,.67-3.18,3.66-3.57,11.9-3.85,17.86-.05,1.1-.1,2.12-.16,2.99,.02,4.27,.45,9.54,1.88,14.27,1.07,3.54,2.69,6.78,5.11,9.04h0Zm17.03-45.67c-.19-.18-.21-.48-.03-.67,.18-.19,.48-.21,.67-.03,3.32,2.98,4.72,12.22,4.42,21.81-.29,9.66-2.29,19.74-5.75,24.16-.16,.21-.46,.24-.67,.08-.21-.16-.24-.46-.08-.67,3.33-4.26,5.26-14.11,5.55-23.6,.29-9.35-1.01-18.29-4.11-21.07Z"/>
                <path class="cls-43" d="M271.53,240.36c-.15,.22-.44,.28-.66,.13-.22-.15-.28-.44-.13-.66,0,0,2.16-3.28,6.68-4.42,.26-.06,.52,.09,.58,.35,.06,.25-.09,.51-.35,.58-4.16,1.05-6.11,4.02-6.12,4.03Z"/>
                <path class="cls-43" d="M240.05,238.15c-.26,.03-.5-.16-.53-.42-.03-.26,.16-.5,.42-.53,.01,0,4.79-.62,10.8,4.07,.21,.16,.24,.46,.08,.67-.16,.21-.46,.24-.67,.08-5.7-4.44-10.09-3.87-10.1-3.87Z"/>
                <path class="cls-10" d="M284.47,240.52c-2.3-3.73-6.54-1.69-9.58-.37l1.54-1.52c3.08-2.32,7.23-2.34,9.64,.92,.26,.44,.12,1.01-.32,1.28-.44,.27-1.01,.12-1.28-.32Z"/>
                <path class="cls-10" d="M261.79,243.97c-3.15-1.89-5.97-2.82-9.3-.91,3.55,0,5,.04,8.02,2.31,.39,.35,.99,.32,1.34-.06,.35-.39,.32-.98-.07-1.34Z"/>
                <path class="cls-10" d="M240.2,241.16c-5.85,.79-6.05,7.82-6.91,12.58-.82-5.88-.22-13.19,6.71-14.58,.55-.05,1.05,.35,1.1,.91,.05,.55-.35,1.05-.91,1.1Z"/>
                <path class="cls-43" d="M265.2,243.13c.17,.2,.15,.5-.05,.67-.2,.17-.5,.15-.67-.04-.36-.42-.84-.82-1.32-1.16-.52-.37-1.04-.65-1.43-.79-.08-.03-.19-.07-.33-.13-1.46-.59-6.77-2.74-10.72,.4-.21,.16-.51,.13-.67-.08-.16-.21-.13-.51,.08-.67,4.39-3.48,10.1-1.18,11.67-.54,.13,.05,.24,.1,.29,.11,.47,.16,1.08,.5,1.66,.91,.53,.38,1.06,.84,1.48,1.31Z"/>
              </g>
            </g>
            <g>
              <path class="cls-13" d="M175.35,277.87s-6.92,13.47,6.11,18.45c13.03,4.98,40.3,2.06,52.22,4.03,11.92,1.97,26.61,14.27,49.05,11.79,11.69-1.29,18.71-7.46,20.69-14.13,1.88-6.32-.53-12.78-2.81-17.47-3.52-7.23-58.89-28.08-125.26-2.69Z"/>
              <path class="cls-13" d="M272.99,312.34c3.08,.22,6.31,.19,9.73-.19,11.69-1.29,18.71-7.46,20.69-14.13,1.88-6.32-.53-12.78-2.81-17.47-8.12-16.67-32.12,6.14-25.65,18.82,2.59,5.08,.36,10.04-1.97,12.97Z"/>
              <path class="cls-34" d="M272.89,262.34s-26.93-8.42-69.33,1.85c-42.41,10.27-36.63,26.23,10.95,25.16,47.58-1.07,45.96,17.37,74.79,6.76,29.36-10.8-.97-30.02-16.4-33.77Z"/>
              <path class="cls-42" d="M189.1,271.16c-29.52,11.78,10.54,15.11,27.26,11.07,16.72-4.04,28.06-14.35,25.36-17.57-2.5-2.98-10.37-2.98-19.37-1.73-12.99,1.82-28.34,6.27-33.25,8.23Z"/>
              <path class="cls-49" d="M200.72,280.42c4.8-.01,10.19-.32,14.88-1.4,6.02-1.39,12.23-3.84,17.4-7.26,14.39-9.52-2.83-7.51-10.23-6.56-7.71,.99-15.51,2.71-23,4.73-18.38,4.94-27.47,10.54,.95,10.49Z"/>
              <path class="cls-35" d="M174.52,279.79c-.01-.26,.19-.49,.45-.5,.26-.01,.49,.19,.5,.45,.15,2.79,3.79,5.27,10.77,6.96,6.56,1.59,16.01,2.44,28.24,2.17,22.92-.51,34.47,3.48,43.48,6.6,9.63,3.33,16.32,5.65,31.16,.19,4.77-1.75,7.92-3.72,9.8-5.8,2.04-2.25,2.56-4.63,2-7.02-.06-.26,.1-.51,.36-.57,.26-.06,.51,.1,.57,.36,.63,2.68,.05,5.36-2.22,7.87-1.98,2.19-5.26,4.24-10.18,6.05-15.15,5.58-21.98,3.21-31.8-.18-8.94-3.09-20.4-7.06-43.15-6.55-12.32,.28-21.85-.59-28.49-2.2-7.44-1.8-11.32-4.6-11.5-7.83Z"/>
              <path class="cls-42" d="M233.88,282.39c-8.17,5.44,6.54,3.73,15.02,5.99,6.02,1.6,12.6,3.85,18.6,5.79,9.68,3.14,30.16-2.09,30.46-10.42,.2-5.79-6.37-10.53-12.18-12.15-12.23-3.39-40.45,4.31-51.89,10.78Z"/>
              <path class="cls-42" d="M253.51,261.33c-14.06,.24-4.5,1.1-7.08,6.52-1.18,2.49-16.49,12,6.02,4.56,6.21-2.05,12.67-3.47,19.19-4,4.94-.4,6.97-1.96,.34-4.09-6.16-1.99-12.77-3.09-18.48-2.99Z"/>
              <path class="cls-49" d="M249.77,265.6c.72,1.28-1.19,2.78-1.62,3.68-.47,.99,.43,2.35,3.66,1.18,4.64-1.53,9.38-2.85,14.24-3.45,12-1.48-19.82-7.73-16.27-1.41Z"/>
              <path class="cls-42" d="M249.8,265.59c.52,.93-.3,1.96-.98,2.8-.27,.34-.52,.65-.64,.91-.09,.19-.13,.4-.11,.59,.02,.23,.13,.44,.32,.62,.2,.17,.48,.3,.88,.35,.59,.08,1.42-.03,2.52-.43h0c2.32-.77,4.67-1.48,7.04-2.08,2.37-.6,4.78-1.08,7.2-1.38,1.96-.24,2.74-.6,2.69-1.01-.11-.87-3.81-1.97-7.94-2.6-4.14-.63-8.69-.79-10.48,.21-.77,.43-1.02,1.08-.5,2.01h0Zm-1.03,2.76c.66-.83,1.47-1.84,.97-2.73-.54-.97-.28-1.65,.53-2.1,1.81-1.02,6.38-.86,10.53-.22,4.15,.64,7.89,1.76,8,2.66,.05,.45-.74,.84-2.74,1.08-2.42,.3-4.82,.78-7.19,1.38-2.37,.6-4.72,1.31-7.04,2.08-1.11,.4-1.95,.51-2.56,.43-.41-.05-.71-.19-.91-.37-.21-.18-.32-.41-.34-.66-.02-.21,.02-.43,.11-.63,.13-.26,.38-.58,.65-.92Z"/>
              <path class="cls-49" d="M249.02,285.89c11.62,3.1,19.73,8.27,31.93,5.94,12.35-1.09,21.47-13.52,3.78-18.43-9.96-2.77-29.68,2.35-39.92,6.05-14.39,5.24-1.11,5.02,4.21,6.43Z"/>
            </g>
            <g>
              <path class="cls-17" d="M208.75,278.64c-.1,.25-.39,.37-.64,.27-.25-.1-.37-.38-.27-.63,.78-1.91,1.23-4.18,1.4-7,.17-2.85,.05-6.24-.31-10.35-.02-.27,.18-.5,.45-.53,.27-.02,.51,.18,.53,.44,.36,4.16,.48,7.6,.31,10.49-.17,2.92-.65,5.3-1.47,7.31Z"/>
              <path class="cls-21" d="M205.63,271.9c.85-5.45,.95-17.2-1.6-22.81,4.18,3.44,5.21,15.88,4.78,20.64-.02,1.24-1.36,2.34-3.18,2.17Z"/>
              <path class="cls-21" d="M210.8,270.5c-1.74-4.59-.99-9.75,1.05-14.46-5.28,4.6-5.16,10.95-4.08,15.84,1.65,.27,2.82,.49,3.03-1.37Z"/>
              <path class="cls-14" d="M211.61,255.76c.15-.13,.39-.12,.52,.04,.13,.15,.12,.39-.04,.52-2.57,2.24-3.82,4.9-4.3,7.6-.48,2.72-.19,5.48,.34,7.88,.04,.2-.08,.4-.28,.44-.2,.04-.4-.08-.44-.28-.55-2.49-.86-5.34-.35-8.17,.51-2.85,1.83-5.66,4.55-8.03Z"/>
              <path class="cls-21" d="M203.98,272.36c1.89-6.12,1.13-11.85-3.93-16.18,7.9,3.74,9.9,12.25,7.34,20.15l-3.41-3.97Z"/>
              <path class="cls-14" d="M199.9,256.52c-.18-.09-.26-.31-.18-.49,.09-.18,.31-.26,.49-.18,3.87,1.83,6.36,4.78,7.62,8.24,1.37,3.77,1.28,8.15-.09,12.36-.06,.19-.27,.3-.47,.24-.19-.06-.3-.27-.24-.46,1.32-4.05,1.41-8.26,.09-11.88-1.2-3.28-3.56-6.08-7.24-7.82Z"/>
              <path class="cls-37" d="M204.53,268.36c-1.12,2.47-2.36,8.11-14.69,15.54-12.32,7.44-10.62,31.15,15.68,28.45,23.42-4.71,1.06-41.36-.99-44Z"/>
              <path class="cls-1" d="M186.19,287.02c-7.78,9.43-3.75,27.46,19.42,25.08,23.42-4.71,1.06-41.36-.99-44-1.61,8.6-6.43,16.98-9.22,20.93-8.08,11.41-12.67,4.25-9.2-2.01Z"/>
              <path class="cls-37" d="M210.23,268.09c1.35,2.36,3.1,7.85,16.06,14.12,12.96,6.27,13.45,30.04-12.99,29.78-23.75-2.54-4.87-41.08-3.07-43.9Z"/>
              <path class="cls-22" d="M231.83,286.85c6.77,9.17,3.31,25.36-18.53,25.14-1.74-.18-3.24-.57-4.55-1.11-4.99-7.94-7.58-21.86,.71-41.39h0c5.34,8.28,10.39,18.07,16.34,21.51,5.47,3.17,7.54-1.59,6.03-4.15Z"/>
              <path class="cls-37" d="M195.82,301.6c-1.45-13.13,6.03-21.15,11.59-33.36,6.91,10.36,14.85,18.95,14.62,32.15-.32,18.16-24.21,19.26-26.21,1.21Z"/>
              <path class="cls-22" d="M195.82,301.6c-1.45-13.13,6.03-21.15,11.59-33.36,0,0-2.32,9.8-7.01,18.89-4.69,9.09,1.36,18.2,10.41,16.43,9.05-1.77,6.37-16.09,4.85-19.83-1.23-3.04-5.76-11.27-7.42-14.26,6.7,9.82,14.02,18.25,13.79,30.92-.32,18.16-24.21,19.26-26.21,1.21Z"/>
              <path class="cls-20" d="M206.38,269.1c.12-.25,.41-.35,.65-.23,.25,.12,.35,.41,.24,.66-.75,1.6-1.67,3.37-2.67,5.28-5.98,11.5-14.71,28.27-2.61,37.14,.22,.16,.27,.47,.11,.69-.16,.22-.47,.27-.69,.11-12.78-9.38-3.82-26.59,2.32-38.39,1-1.93,1.93-3.7,2.65-5.25Z"/>
              <path class="cls-20" d="M217.47,312.01c-.21,.17-.52,.15-.69-.06-.17-.21-.15-.52,.06-.69,1.42-1.19,2.63-2.75,3.46-4.68,.76-1.76,1.21-3.82,1.23-6.19,.07-9.25-4.24-15.95-10.08-25.04-1.35-2.1-2.77-4.32-4.26-6.74-.14-.23-.07-.53,.16-.68s.54-.07,.68,.16c1.47,2.4,2.9,4.62,4.25,6.72,5.93,9.23,10.3,16.03,10.23,25.57-.02,2.51-.5,4.7-1.31,6.58-.9,2.08-2.2,3.76-3.73,5.04Z"/>
              <path class="cls-20" d="M211.08,279.12c-.07-.19,.03-.4,.23-.47,.19-.07,.4,.03,.47,.23,.43,1.21,.88,2.44,1.34,3.68,3.21,8.68,6.59,17.79,2.32,26.83-.09,.18-.31,.26-.49,.18-.18-.09-.26-.31-.18-.49,4.14-8.76,.82-17.73-2.34-26.26-.46-1.24-.91-2.46-1.35-3.69Z"/>
              <path class="cls-20" d="M200.84,286.64c.04-.2,.24-.33,.44-.28,.2,.04,.33,.24,.28,.44-.84,3.93-1.78,8.63-1.5,13.16,.27,4.49,1.74,8.83,5.7,12.12,.16,.13,.18,.36,.05,.52-.13,.16-.36,.18-.52,.05-4.14-3.45-5.68-7.97-5.96-12.64-.28-4.63,.67-9.38,1.52-13.35Z"/>
              <path class="cls-47" d="M190.43,287.83c1.7-.82,2.96-2.51,2.41-3.23-.76-.99-2.67-.1-3.65,.68-1.6,1.29-1.08,3.68,1.24,2.55Z"/>
              <path class="cls-20" d="M203.16,272.46c.1-.18,.33-.24,.5-.14,.18,.1,.24,.33,.14,.5-2.07,3.63-5.03,6.93-7.87,10.09-3.84,4.28-7.46,8.32-8.29,12.53-.67,3.4-.21,6.88,.99,9.75,1.23,2.94,3.23,5.22,5.57,6.07,.19,.07,.29,.28,.22,.47-.07,.19-.28,.29-.47,.22-2.54-.93-4.69-3.36-6-6.48-1.25-2.99-1.73-6.63-1.03-10.17,.87-4.4,4.56-8.52,8.47-12.88,2.81-3.14,5.74-6.4,7.78-9.97Z"/>
              <path class="cls-47" d="M204.45,292.61c-.44-2.39,.35-4.98,1.52-4.95,1.6,.04,2.14,2.69,2.07,4.3-.12,2.64-2.98,3.92-3.58,.64Z"/>
              <path class="cls-20" d="M210.01,312.66c.03,.2-.11,.39-.31,.42-.2,.03-.39-.11-.42-.31-1.01-6.25-1.64-12.55-1.92-18.89-.28-6.34-.21-12.72,.17-19.13,.01-.2,.19-.36,.39-.35,.2,.01,.36,.19,.35,.39-.38,6.39-.45,12.75-.17,19.06,.28,6.31,.91,12.58,1.91,18.81Z"/>
              <path class="cls-47" d="M222.32,285.95c-1.8-1.13-3.01-3.17-2.3-3.91,.97-1.01,3.01,.21,4.01,1.21,1.64,1.64,.77,4.25-1.7,2.7Z"/>
              <path class="cls-20" d="M210.47,271.77c-.11-.17-.07-.4,.1-.51,.17-.11,.4-.07,.51,.1,1.73,2.55,3.54,4.72,5.57,6.65,2.02,1.92,4.27,3.6,6.84,5.15,2.89,1.74,4.91,4.1,6.15,6.75,1.17,2.5,1.64,5.24,1.47,7.94-.17,2.69-.98,5.33-2.36,7.63-1.5,2.49-3.67,4.57-6.44,5.87-.18,.09-.4,0-.49-.18-.09-.18,0-.4,.18-.49,2.63-1.23,4.69-3.21,6.12-5.58,1.32-2.19,2.09-4.72,2.26-7.29,.16-2.57-.28-5.19-1.4-7.58-1.18-2.52-3.11-4.77-5.86-6.43-2.62-1.58-4.9-3.28-6.97-5.24-2.06-1.96-3.91-4.17-5.67-6.77Z"/>
            </g>
            <g>
              <g>
                <path class="cls-45" d="M273.82,323.73c-4.08-1.5-6.17-6.02-4.67-10.1,1.5-4.08,6.02-6.17,10.1-4.67,6.75,2.48,14.1,2.03,20.27-.11,3.7-1.28,6.88-3.14,9.15-5.29,1.73-1.64,2.83-3.34,2.99-4.86,.08-.74-.12-1.52-.66-2.33-2.4-3.63-1.41-8.51,2.21-10.91,3.63-2.4,8.51-1.41,10.91,2.21,2.73,4.11,3.7,8.43,3.24,12.72-.58,5.38-3.44,10.41-7.85,14.6-3.88,3.68-9.04,6.75-14.86,8.77-9.24,3.21-20.39,3.82-30.84-.02Z"/>
                <path class="cls-18" d="M273.82,323.73c-4.08-1.5-6.17-6.02-4.67-10.1,.61-1.66,2.28-4.46,5.98-5.03-3.87,4.08-1.46,9.05,6.13,10.82,12.64,2.95,27.55-.45,36.93-9.66,6.65-6.52,9.02-14.2,4.88-23.38,3.3,3.24,4.77,9.52,4.29,14-.58,5.38-3.44,10.41-7.85,14.6-11.65,11.04-30.83,14.21-45.7,8.75Z"/>
                <path class="cls-39" d="M278.62,309.53c9.21,3.24,19.31,3.49,27.82-1.92,6.35-4.04,7.72-8.21,6.7-15.27l1.03,2.68c1.29,5.66-2.42,10.86-6.82,13.94-8.89,6.22-19.74,6.21-29.7,3-.67-.27-1-1.04-.73-1.71,.27-.67,1.04-1,1.71-.73Z"/>
                <path class="cls-38" d="M310.25,290.97c-.04,.26-.28,.44-.54,.4-.26-.04-.44-.28-.4-.54,.17-1.16,.57-2.28,1.21-3.29,.61-.97,1.43-1.82,2.44-2.49,.53-.35,1.1-.64,1.67-.86,.59-.22,1.2-.38,1.81-.46,.26-.03,.5,.15,.54,.41,.04,.26-.15,.5-.41,.54-.54,.07-1.08,.21-1.61,.41-.51,.19-1.01,.44-1.48,.76-.9,.6-1.62,1.35-2.16,2.21-.56,.89-.92,1.88-1.07,2.91Z"/>
                <path class="cls-38" d="M276.2,318.08c-.21-.12-.28-.4-.16-.61,.12-.21,.4-.28,.61-.16,.79,.47,1.64,.88,2.54,1.22,6.23,2.4,14.9,1.96,22.87-.52,7.96-2.47,15.21-6.97,18.6-12.69,.45-.76,.83-1.54,1.14-2.33,2.48-6.43,1.64-9.07,1.63-9.07-.07-.23,.06-.48,.29-.55,.23-.07,.48,.06,.55,.29,0,0,.93,2.93-1.65,9.65-.33,.85-.73,1.67-1.2,2.47-3.52,5.92-10.95,10.56-19.11,13.09-8.14,2.53-17.02,2.97-23.44,.5-.95-.37-1.85-.79-2.67-1.29Z"/>
              </g>
              <g>
                <path class="cls-45" d="M227.54,322.68c-3.32,2.83-8.3,2.44-11.13-.88-2.83-3.32-2.44-8.3,.88-11.13,.06-.05,21.3-18.61,51.02-5.33,3.97,1.78,5.75,6.44,3.97,10.41-1.78,3.97-6.44,5.75-10.41,3.97-20.49-9.15-34.29,2.92-34.33,2.95Z"/>
                <path class="cls-18" d="M227.54,322.68c-3.32,2.83-8.3,2.44-11.13-.88-3.04-3.56-2.27-8.15,.71-10.99-.94,7.87,8.61,6.02,13.18,3.37,4.88-2.82,15.5-7.54,28.81-1.56,4.21,1.89,11.33,1.4,12.51-4.5,1.47,2.18,1.81,5.05,.66,7.62-1.78,3.97-6.44,5.75-10.41,3.97-20.49-9.15-34.29,2.92-34.33,2.95Z"/>
                <path class="cls-29" d="M217.04,317.09c.94-.45,2.27,.35,2.97,1.8s.49,2.99-.46,3.44c-.94,.45-2.27-.35-2.97-1.8-.69-1.45-.49-2.99,.46-3.44Z"/>
                <path class="cls-26" d="M216.18,318.47c-3.11-.6-3.62,.67-.63,3,.14,2.06,1.07,5.48,2.58,.77,.65-2.02,.9-3.22-1.95-3.77Z"/>
                <path class="cls-38" d="M214.92,318.73c-.23,0-.41-.18-.42-.41,0-.23,.18-.41,.41-.42,1.89-.03,3.05,.36,3.6,1.23,.54,.86,.43,2.12-.2,3.85-.08,.21-.31,.32-.53,.25-.21-.08-.32-.31-.25-.53,.54-1.49,.67-2.52,.28-3.13-.38-.6-1.31-.87-2.89-.85Z"/>
                <path class="cls-39" d="M237.8,304.63c-.59,.12-1.18-.26-1.3-.86-.12-.6,.26-1.18,.86-1.3,2.59-.53,6.58-1.19,11.52-1.01,4.95,.19,10.84,1.23,17.22,4.11,.55,.25,.8,.9,.55,1.46-.25,.55-.9,.8-1.46,.55-6.09-2.75-11.69-3.74-16.39-3.92-4.71-.18-8.52,.46-11,.96Z"/>
                <path class="cls-38" d="M236.05,311.04c.23-.07,.48,.06,.55,.3,.07,.23-.06,.48-.3,.55-.96,.29-3.13,1.09-5.27,2.23-1.37,.73-2.73,1.6-3.74,2.56-.18,.17-.46,.16-.62-.02-.17-.18-.16-.46,.02-.62,1.07-1.02,2.5-1.94,3.93-2.7,2.21-1.18,4.44-2,5.43-2.3Z"/>
              </g>
              <path class="cls-38" d="M269.64,319c.09,.25-.03,.52-.27,.61-.24,.09-.52-.03-.61-.27-.71-1.84-.71-3.86-.11-5.67,.59-1.8,1.77-3.41,3.44-4.45,.22-.14,.52-.07,.66,.15,.14,.22,.07,.52-.15,.66-1.47,.92-2.51,2.34-3.04,3.94-.53,1.62-.53,3.41,.09,5.04Z"/>
            </g>
            <g>
              <g>
                <path class="cls-16" d="M217.68,320.81c-24.01-32.25-67.37-44.57-102.55-42.52-12.37,.72-35.14,4.65-19.92,21.04,14.65,15.78,64.88,31.83,94.51,37.44,10.92,2.07,41.71,2.51,27.95-15.97Z"/>
                <path class="cls-40" d="M96.67,281.99c-6.66,3.01-9.89,8.26-1.46,17.34,14.65,15.78,64.88,31.83,94.51,37.44,9.41,1.79,33.58,2.36,31.27-9.35-5.71,20.8-152.74-28.81-124.32-45.43Z"/>
                <path class="cls-41" d="M182.53,292c-12.87,1.14-20.34,4.46-29.07,13.77,1.46-16.54,16.69-20.69,29.07-13.77Z"/>
                <path class="cls-41" d="M164.4,284.52c-9.52-.05-21.38,3.47-27.48,14.15-1.72-17.09,13.49-19.23,27.48-14.15Z"/>
                <path class="cls-41" d="M143.39,279.68c-9.16,.27-15.56,4.84-20.62,12.25-3-14.13,10.81-13.72,20.62-12.25Z"/>
                <path class="cls-41" d="M122.81,278.08c-5.59,.26-12.46,4.29-13.93,8.46-2.53-2.28-1.96-9.33,13.93-8.46Z"/>
                <path class="cls-41" d="M211.52,313.41c-5.89,.03-12.48,4.36-17.74,8.77,.79-11.35,14.02-13.53,17.74-8.77Z"/>
                <path class="cls-41" d="M201.2,303.84c-8.61-1-22.76,2.32-29.41,11.54,3.93-14.93,17.95-20.76,29.41-11.54Z"/>
                <path class="cls-12" d="M193.76,323.02c-.17,.2-.47,.22-.67,.04-.2-.17-.22-.47-.04-.67,2.33-2.64,5.87-5.27,9.51-7.04,3.28-1.6,6.66-2.5,9.34-2.08,.26,.04,.44,.28,.4,.54-.04,.26-.28,.44-.54,.4-2.47-.38-5.66,.48-8.78,2-3.53,1.72-6.96,4.27-9.21,6.81Z"/>
                <path class="cls-12" d="M201.59,303.37c.26,.04,.44,.29,.39,.55-.04,.26-.29,.44-.55,.39-4.63-.78-11.12,.19-17.09,2.73-5.16,2.19-9.91,5.55-12.72,9.93-.14,.22-.43,.29-.66,.14-.22-.14-.29-.43-.15-.66,2.92-4.56,7.83-8.04,13.15-10.3,6.13-2.61,12.82-3.6,17.62-2.79Z"/>
                <path class="cls-12" d="M182.77,291.87c.26,.04,.44,.28,.4,.54-.04,.26-.28,.44-.54,.4-4.39-.65-10.69,.49-16.82,3.67-5.06,2.63-10,6.64-13.67,12.18-.15,.22-.44,.28-.66,.13-.22-.15-.28-.44-.13-.66,3.76-5.69,8.83-9.8,14.02-12.5,6.31-3.28,12.83-4.45,17.39-3.77Z"/>
                <path class="cls-12" d="M136.31,301.43c-.12,.23-.41,.32-.64,.2-.23-.12-.32-.41-.2-.64,3.58-6.68,8.01-10.89,12.89-13.47,4.87-2.58,10.18-3.51,15.53-3.64,.26,0,.48,.2,.49,.47,0,.26-.2,.48-.46,.49-5.22,.12-10.38,1.03-15.11,3.53-4.72,2.5-9.01,6.58-12.49,13.07Z"/>
                <path class="cls-12" d="M122.35,293.68c-.12,.23-.41,.32-.64,.2-.23-.12-.32-.41-.2-.64,2.21-4.13,5.46-7.58,9.19-10.02,3.78-2.47,8.06-3.91,12.29-3.99,.26,0,.48,.2,.48,.47,0,.26-.2,.48-.47,.49-4.05,.08-8.16,1.47-11.79,3.84-3.61,2.36-6.74,5.68-8.87,9.67Z"/>
                <path class="cls-12" d="M121.36,277.84c.26-.04,.5,.13,.55,.39,.04,.26-.13,.5-.39,.55-1.78,.29-4.52,1.25-7.38,3.23-2.1,1.45-4.27,3.45-6.17,6.14-.15,.22-.45,.27-.66,.12-.22-.15-.27-.45-.12-.66,1.97-2.79,4.22-4.87,6.41-6.38,3-2.07,5.89-3.07,7.77-3.38Z"/>
                <path class="cls-12" d="M93.63,290.55c-.15-.19-.11-.47,.09-.62,.2-.15,.47-.11,.62,.09,.02,.03,8.19,11.15,30.23,19.8,.23,.09,.34,.34,.25,.57-.09,.23-.35,.34-.57,.25-22.27-8.74-30.59-20.06-30.61-20.09Z"/>
              </g>
              <g>
                <path class="cls-40" d="M161.61,315.45c-1.15,.05-2.05,.84-2.01,1.77,.04,.93,1,1.64,2.15,1.6,1.15-.05,2.05-.84,2.01-1.77-.04-.93-1-1.64-2.15-1.6Z"/>
                <path class="cls-40" d="M164.37,308.99c-.88,.04-1.57,.64-1.55,1.36,.03,.71,.77,1.26,1.65,1.22,.88-.04,1.58-.64,1.55-1.36-.03-.71-.77-1.26-1.65-1.23Z"/>
                <path class="cls-40" d="M157.72,312.61c-.71,.03-1.27,.52-1.25,1.1,.02,.58,.62,1.02,1.34,.99,.71-.03,1.27-.52,1.25-1.1-.02-.58-.62-1.02-1.34-.99Z"/>
                <path class="cls-40" d="M113.55,294.2c-1.15,.05-2.05,.84-2.01,1.77,.04,.93,1,1.65,2.15,1.6,1.15-.05,2.05-.84,2.01-1.77-.04-.93-1-1.64-2.15-1.6Z"/>
                <path class="cls-40" d="M117.12,299.58c-.71,.03-1.28,.52-1.25,1.1,.02,.58,.62,1.02,1.34,.99,.71-.03,1.27-.52,1.25-1.1-.02-.58-.62-1.02-1.34-.99Z"/>
                <path class="cls-40" d="M122.68,296.17c-.71,.03-1.27,.52-1.25,1.1,.02,.58,.62,1.02,1.34,.99,.71-.03,1.27-.52,1.25-1.1-.02-.58-.62-1.02-1.34-.99Z"/>
              </g>
            </g>
          </g>
        </g>
      </g>
    </g>
  </g>
</svg>