<?xml version="1.0" encoding="UTF-8"?>
<svg id="Layer_2" data-name="Layer 2" xmlns="http://www.w3.org/2000/svg" viewBox="0 0 96.99 96.99">
  <defs>
    <style>
      .cls-1, .cls-2 {
        fill: #003b7e;
      }

      .cls-3 {
        fill: #ffe500;
      }

      .cls-2 {
        stroke: #003b7e;
        stroke-miterlimit: 10;
        stroke-width: .5px;
      }
    </style>
  </defs>
  <g id="Layer_1-2" data-name="Layer 1">
    <g>
      <circle class="cls-3" cx="48.49" cy="48.49" r="48.49"/>
      <g>
        <path class="cls-1" d="M53.03,35.22l-4.23-3.27h0c-.2-.15-.45-.22-.69-.19l-1.38,.17c-.52-1.61-1.16-3.17-1.93-4.68-2.28-4.45-5.53-8.18-9.42-10.78h0c-.32-.21-.73-.21-1.05,0-3.89,2.6-7.14,6.33-9.42,10.78-1.89,3.73-3.05,7.79-3.42,11.96l-5.05,8.82c-.17,.29-.17,.65,0,.94s.48,.47,.82,.47h4.81c.59,2.82,1.54,5.54,2.84,8.11,1.92,3.76,4.54,6.99,7.65,9.48-1.23,.62-2.34,1.43-3.3,2.42-2.41,2.48-3.8,5.9-4.14,10.16-.04,.49,.3,.92,.78,1.01,.23,.04,5.35,.88,8.97-3.98,2.64,3.56,6.09,4.06,7.84,4.06,.37,0,.75-.02,1.12-.08,.48-.08,.82-.52,.78-1.01-.34-4.26-1.73-7.68-4.14-10.16-.96-.99-2.07-1.8-3.3-2.42,2.95-2.38,5.4-5.32,7.21-8.65,1.98-.47,3.75-1.6,5.01-3.2,2.61-3.33,4.02-7.43,4.03-11.66v-7.54c0-.29-.14-.57-.37-.75h0Zm-34.16,12.34l2.47-4.31c.04,1.44,.16,2.88,.38,4.31h-2.85Zm15.98-29.16c4.05,2.86,7.22,7.01,9.23,11.83-2.66,1.49-5.89,2.3-9.23,2.3s-6.57-.81-9.23-2.3c2-4.82,5.18-8.97,9.23-11.83Zm-.94,56.26c-2.2,3.62-5.32,4.13-6.82,4.15,.86-6.93,4.76-9.47,6.82-10.33v6.18Zm8.71,4.15c-1.51-.02-4.63-.53-6.82-4.16v-6.17c2.06,.87,5.96,3.41,6.82,10.33Zm-7.76-12.4c-7.19-5.09-11.63-14.22-11.63-24,0-3.54,.58-7.05,1.73-10.39,2.89,1.56,6.35,2.41,9.9,2.41s7.01-.85,9.9-2.41c1.15,3.34,1.73,6.86,1.73,10.39,0,9.78-4.44,18.91-11.63,24h0Zm16.66-22.89c0,3.81-1.28,7.5-3.63,10.5-.63,.8-1.42,1.45-2.32,1.92,1.86-4.27,2.81-8.87,2.8-13.53,0-2.91-.37-5.82-1.1-8.64l.69-.08,3.56,2.75v7.08Z"/>
        <path class="cls-1" d="M37.08,28.69h1.01c.52,0,.94-.42,.94-.94s-.42-.94-.94-.94h-1.01c-.52,0-.94,.42-.94,.94s.42,.94,.94,.94h0Z"/>
        <path class="cls-1" d="M39.65,38.15l-4.8,1.2-4.8-1.2c-.36-.09-.74,.04-.97,.33-.23,.29-.26,.7-.09,1.02l5.03,9.43c.16,.31,.48,.5,.83,.5s.67-.19,.83-.5l5.03-9.43c.18-.33,.14-.73-.09-1.02-.23-.29-.61-.43-.97-.33h0Zm-4.8,8.34l-3.2-6,2.97,.74h0c.15,.04,.31,.04,.46,0l2.97-.74-3.2,6Z"/>
        <g>
          <path class="cls-2" d="M61.84,28.28c-10.04,12.8-4.19,19.72-1.22,22.1,4.13,3.31,4.01,12.12,4,12.55-.06,.81-.5,7.08,1.39,9.1,.56,.6,2.21,2.37,4.2,2.38,0,0,0,0,.01,0h5.14c1.4,0,2.63-.83,3.67-2.48,1.77-2.8,3.36-9.72,3.97-17.21,.18-2.27,.27-4.53,.27-6.76,0-7.03-.89-13.77-2.61-19.47-.55-1.82-2.52-5.27-6.06-5.27h-5c-2.47-.07-5.08,1.62-7.76,5.04h0Zm5.17,42.83c-1.13-1.21-1.22-5.6-1.02-8.08,0-.01,0-.02,0-.04,.01-.4,.23-9.88-4.51-13.68-1.7-1.36-3.75-3.75-3.9-7.45-.15-3.75,1.65-8.03,5.34-12.74,2.6-3.32,5.11-4.86,7.24-4.46,2.17,.41,3.61,2.76,4.06,4.23,5.08,16.84,1.47,37.65-1.48,42.31-.72,1.14-1.5,1.76-2.33,1.83-1.47,.14-2.92-1.42-3.4-1.94h0Zm12.34-42.21c5.08,16.84,1.47,37.65-1.48,42.31-.77,1.22-1.62,1.84-2.51,1.84h-2.31c.3-.32,.58-.69,.85-1.11,1.77-2.8,3.37-9.72,3.97-17.21,.18-2.27,.27-4.53,.27-6.76,0-7.03-.89-13.77-2.61-19.47-.31-1.02-1.14-2.71-2.53-3.9h1.61c2.53,0,4.23,2.57,4.75,4.3h0Z"/>
          <path class="cls-2" d="M68.9,37.73c0-2.84-1.53-5.06-3.48-5.06s-3.48,2.22-3.48,5.06,1.53,5.06,3.48,5.06c1.95,0,3.48-2.22,3.48-5.06h0Zm-5.58,0c0-2,.97-3.69,2.11-3.69,1.14,0,2.11,1.69,2.11,3.69s-.97,3.69-2.11,3.69c-1.14,0-2.11-1.69-2.11-3.69Z"/>
        </g>
      </g>
    </g>
  </g>
</svg>