<?xml version="1.0" encoding="UTF-8"?>
<svg id="Layer_2" data-name="Layer 2" xmlns="http://www.w3.org/2000/svg" viewBox="0 0 361.16 359.18">
  <defs>
    <style>
      .cls-1, .cls-2 {
        fill: #fff;
      }

      .cls-3 {
        fill: #ff6868;
      }

      .cls-4 {
        fill: #002e3d;
      }

      .cls-5 {
        fill: #38a4c5;
      }

      .cls-6 {
        fill: #ff9292;
      }

      .cls-7, .cls-8 {
        fill: #005178;
      }

      .cls-9, .cls-2, .cls-10, .cls-8 {
        opacity: .2;
      }

      .cls-11 {
        fill: #23304f;
      }

      .cls-12 {
        fill: #d5eceb;
      }

      .cls-13 {
        fill: #006d98;
      }

      .cls-14 {
        fill: #ffac95;
      }

      .cls-15 {
        fill: #d0e2e1;
      }

      .cls-16 {
        fill: #ffae92;
      }

      .cls-17 {
        opacity: .15;
      }

      .cls-18 {
        fill: #e9193f;
      }

      .cls-19 {
        opacity: .3;
      }

      .cls-20 {
        fill: #00a9a7;
      }

      .cls-21 {
        fill: #ff9d9a;
      }

      .cls-22 {
        fill: #0075a7;
      }

      .cls-23 {
        fill: #004f7b;
      }

      .cls-24 {
        fill: #2c3a64;
      }

      .cls-25 {
        fill: #ff9a8b;
      }

      .cls-26 {
        fill: #ffad2f;
      }

      .cls-27 {
        fill: #e48428;
      }

      .cls-28 {
        fill: #f6e8e2;
      }

      .cls-29 {
        fill: #003851;
      }

      .cls-10 {
        fill: #c97326;
      }

      .cls-30 {
        fill: #80cade;
      }

      .cls-31 {
        fill: #cecece;
      }

      .cls-32 {
        fill: #f28d8d;
      }

      .cls-33 {
        fill: #007094;
      }

      .cls-34 {
        fill: #ffc339;
      }

      .cls-35 {
        fill: #00959a;
      }

      .cls-36 {
        fill: #ffe09e;
      }

      .cls-37 {
        fill: #ffab31;
      }
    </style>
  </defs>
  <g id="Layer_1-2" data-name="Layer 1">
    <g>
      <ellipse class="cls-31" cx="213.59" cy="343.23" rx="86.17" ry="15.96"/>
      <g class="cls-17">
        <g>
          <rect x="100.04" y="209.33" width="246.39" height="4.41" transform="translate(-80.39 260.48) rotate(-52.61)"/>
          <g>
            <path d="M263.68,158.09l-12.17-9.3c-7.84-5.99-9.34-17.21-3.35-25.05h0l12.17,9.3c7.84,5.99,9.34,17.21,3.35,25.05h0Z"/>
            <path d="M274.53,143.89l-12.17-9.3c-7.84-5.99-9.34-17.21-3.35-25.05h0l12.17,9.3c7.84,5.99,9.34,17.21,3.35,25.05h0Z"/>
            <path d="M285.38,129.68l-12.17-9.3c-7.84-5.99-9.34-17.21-3.35-25.05h0l12.17,9.3c7.84,5.99,9.34,17.21,3.35,25.05h0Z"/>
          </g>
          <g>
            <path d="M263.7,158.1l12.17,9.3c7.84,5.99,19.06,4.49,25.05-3.35h0l-12.17-9.3c-7.84-5.99-19.06-4.49-25.05,3.35h0Z"/>
            <path d="M274.55,143.9l12.17,9.3c7.84,5.99,19.06,4.49,25.05-3.35h0s-12.17-9.3-12.17-9.3c-7.84-5.99-19.06-4.49-25.05,3.35h0Z"/>
            <path d="M285.4,129.7l12.17,9.3c7.84,5.99,19.06,4.49,25.05-3.35h0l-12.17-9.3c-7.84-5.99-19.06-4.49-25.05,3.35h0Z"/>
          </g>
          <path d="M253.14,171.92l12.17,9.3c7.84,5.99,19.06,4.49,25.05-3.35h0s-12.17-9.3-12.17-9.3c-7.84-5.99-19.06-4.49-25.05,3.35h0Z"/>
          <path d="M254.15,172.7l-12.17-9.3c-7.84-5.99-9.34-17.21-3.35-25.05h0l12.17,9.3c7.84,5.99,9.34,17.21,3.35,25.05h0Z"/>
          <rect x="277.65" y="95.13" width="22.34" height="1.26" transform="translate(37.37 267.11) rotate(-52.62)"/>
          <rect x="305.32" y="115.32" width="26.17" height="1.26" transform="translate(32.94 298.54) rotate(-52.61)"/>
          <rect x="314.78" y="125.55" width="14.04" height="1.26" transform="translate(26.15 305.26) rotate(-52.61)"/>
          <rect x="272.56" y="92.5" width="17.23" height="1.26" transform="translate(36.45 260) rotate(-52.61)"/>
        </g>
        <g>
          <g>
            <path d="M338.56,234.55l-9.72,76.39h-.12c-.88,.55-6.55,1.04-15.04,1.37-7.25,.29-16.56,.46-26.71,.46-22.04,0-40.1-.81-41.74-1.83h-.29l-12.34-75.82c-1.2-7.37,2.15-14.74,8.49-18.68l12.55-7.81h62.92l13,7.63c6.39,3.75,9.92,10.94,8.99,18.29Z"/>
            <path d="M333.45,275.22c0,1.23-21.03,2.22-46.98,2.22s-46.98-1-46.98-2.22,21.03-2.22,46.98-2.22,46.98,1,46.98,2.22Z"/>
            <path d="M338.05,238.53l-4.6,36.69h-93.96l-6.31-36.75h.24c1.47,1.2,24.35,2.14,52.36,2.14s50.05-.91,52.26-2.08Z"/>
            <circle cx="286.39" cy="259.78" r="17.14"/>
            <g>
              <path d="M286.87,261.31c-.99,3.41-5.33,6.02-8.9,3.77-.57-.36-1.11-.84-1.62-1.46-4.51-5.48,.98-12.15,.98-12.15,0,0,7.84,.39,9.6,7.25,.22,.87,.18,1.75-.06,2.59Z"/>
              <path d="M286.87,261.31c-.99,3.41-5.33,6.02-8.9,3.77,1.66-1.3,5.48-3.96,8.9-3.77Z"/>
              <path d="M301.04,260.88c-.38,1.22-1.21,2.54-2.3,3.56-2.12,1.96-5.24,2.78-8.13-.55-.18-.2-.36-.42-.53-.66-4.5-6.07,5.29-12.15,5.29-12.15,0,0,6.86,6.07,5.68,9.8Z"/>
              <path d="M298.73,264.44c-2.12,1.96-5.24,2.78-8.13-.55,2.03-.58,5.66-1.24,8.09,.51,.02,.01,.03,.02,.05,.03Z"/>
            </g>
            <path class="cls-9" d="M338.56,234.55l-9.72,76.39h-.12c-.88,.55-6.55,1.04-15.04,1.37,.06-.45,.12-.91,.18-1.37,2.91-22.07,8.33-67.76,4.87-78.14-3.43-10.27-13.64-19.91-18.65-24.17h16.48l13,7.63c6.39,3.75,9.92,10.94,8.99,18.29Z"/>
            <path d="M248.02,191.23v17.9h.26c2.18,.79,17.72,1.41,36.57,1.41s34.38-.61,36.57-1.41h.26v-17.9h-73.66Z"/>
            <ellipse cx="284.85" cy="191.55" rx="36.83" ry="1.6"/>
            <path class="cls-9" d="M255.98,230.34c-.22-7.02-9.1-9.98-13.57-4.58-2.29,2.76-4.18,6.52-3.85,11.25,.77,11.13,5.37,32.61,5.37,32.61h15.73s-4.6-21.87-4.22-30.69c.15-3.55,.62-6.23,.55-8.59Z"/>
          </g>
          <g>
            <path d="M118.38,100.11h0v200.43H57.74V160.75c0-33.47,27.17-60.64,60.64-60.64Z"/>
            <path d="M172.63,148.63v151.92h-60.64V100.12h12.13c1.16,0,2.31,.04,3.45,.12,25.18,1.77,45.07,22.76,45.07,48.39Z"/>
            <g>
              <rect x="56.14" y="252.67" width="118.09" height="54.89"/>
              <path d="M174.22,307.93c0,.56-1.88,1.1-5.25,1.58-5.17,.74-13.85,1.35-24.66,1.75-8.6,.32-18.54,.5-29.13,.5-32.61,0-59.05-1.72-59.05-3.83,0-.12,.09-.25,.27-.37,2.86-1.94,28.08-3.46,58.77-3.46,11,0,21.29,.2,30.11,.54,.5,.02,1,.04,1.49,.06,15.28,.62,25.88,1.49,27.36,2.72,.04,.03,.06,.08,.07,.14,.03,.13,.02,.3,.02,.37Z"/>
            </g>
            <path d="M172.31,227.13c.11-.1,.16-.21,.16-.31s-.05-.21-.16-.31v-67.19c-5.65,1.73-29.37,3.03-57.77,3.03s-50.5-1.21-57.13-2.86v67.65h.8c2.24,2.14,26.92,3.83,57.04,3.83s54.8-1.69,57.04-3.83h0Z"/>
            <path class="cls-9" d="M174.22,307.93c0-.1-.06-.2-.18-.3-.03-.02-.06-.04-.09-.07-1.76-1.21-12.18-2.25-27.18-2.87-.49-.02-.99-.04-1.49-.06,.26-1.89,.45-3.41,.47-4.09,.33-12.44,.74-29.46,1.07-47.87,.87-47.79,1.24-105.02-1.64-116.17-5.1-19.79-26.81-32.55-26.81-32.55l9.19-3.71c25.18,1.77,45.07,22.76,45.07,48.39v104.04h1.59v54.89h-.02c.03,.13,.02,.3,.02,.37Z"/>
            <path class="cls-9" d="M174.22,307.93c0,.56-1.88,1.1-5.25,1.58-5.17,.74-13.85,1.35-24.66,1.75,.34-2.27,.7-4.65,.98-6.63,16.08,.62,27.24,1.72,28.76,2.99,.12,.1,.18,.2,.18,.3Z"/>
            <path d="M145.34,103.75v-9.69h-61.28v9.63c-.07,.07-.11,.14-.11,.22,0,1.44,13.75,2.6,30.72,2.6s30.72-1.16,30.72-2.6c0-.05-.02-.1-.05-.15Z"/>
            <path d="M145.08,94.45c0,.9-13.75,1.62-30.72,1.62s-30.72-.73-30.72-1.62,13.75-1.62,30.72-1.62,30.72,.73,30.72,1.62Z"/>
            <path class="cls-9" d="M81.35,297.35h0c-5.29,0-9.57-4.29-9.57-9.57V142.24c0-5.29,4.29-9.57,9.57-9.57h0c5.29,0,9.57,4.29,9.57,9.57v145.54c0,5.29-4.29,9.57-9.57,9.57Z"/>
            <g>
              <path d="M87.34,199.18c.12,.3,.23,.6,.35,.9,.11-.32,.23-.62,.35-.9,.12-.29,.26-.58,.42-.87l8.19-14.88c.15-.26,.3-.42,.46-.47,.16-.06,.38-.08,.68-.08h2.41v24.2h-2.87v-17.78c0-.24,0-.49,.02-.76,.01-.27,.03-.55,.05-.83l-8.29,15.13c-.28,.51-.68,.76-1.18,.76h-.47c-.51,0-.9-.25-1.18-.76l-8.48-15.18c.03,.29,.06,.58,.08,.86,.02,.28,.03,.54,.03,.78v17.78h-2.87v-24.2h2.41c.29,0,.52,.03,.68,.08,.16,.06,.31,.21,.46,.47l8.36,14.89c.16,.27,.3,.55,.41,.85Z"/>
              <path d="M109.98,207.07h-3.28v-24.2h3.28v24.2Z"/>
              <path d="M119.74,204.32h10.47v2.75h-13.75v-24.2h3.28v21.45Z"/>
              <path d="M137.42,193.48h1.23c.43,0,.77-.05,1.02-.16,.25-.11,.49-.29,.72-.55l8.06-9.12c.25-.28,.49-.48,.72-.6,.23-.12,.53-.18,.89-.18h2.79l-9.22,10.42c-.24,.26-.46,.48-.67,.66-.21,.18-.43,.33-.67,.44,.32,.1,.59,.25,.83,.46,.24,.2,.48,.46,.74,.76l9.63,11.47h-2.84c-.21,0-.39-.02-.54-.05-.15-.03-.27-.08-.38-.14-.11-.06-.21-.13-.3-.22-.09-.09-.18-.19-.27-.29l-8.36-9.61c-.12-.14-.24-.25-.35-.35-.11-.1-.23-.18-.37-.24-.14-.07-.3-.12-.49-.14-.19-.03-.41-.04-.68-.04h-1.49v11.08h-3.26v-24.2h3.26v10.6Z"/>
            </g>
          </g>
          <g>
            <g>
              <path d="M244.55,320.27s-1.7-8.62-4.04-11.49c-2.34-2.87,6.7-4.79,7.77-6.06,1.06-1.28,4.85,7.41,6.7,9.89,5.32,7.13-10.43,7.66-10.43,7.66Z"/>
              <path d="M176.78,334.21s2.66-5.74,1.6-11.81c-1.06-6.06,9.36-3.83,10.96-3.3,1.6,.53,.53,11.81,1.17,15.11,.64,3.3-12.23,4.36-13.72,0Z"/>
              <path d="M192,343.25c-1.28,2.13-8.83,3.94-11.81,5.32-2.98,1.38-4.68,5.32-14.47,7.66-4.89,1.17-6.81-.37-7.5-2.21-.22-.58-.31-1.19-.28-1.79,.06-1.34,.7-2.64,1.77-3.53,8.96-7.54,14.8-14.98,15.9-15.98,1.17-1.06,7.77,.21,7.87,1.7,.01,.19,0,.36,0,.51-.08,1.08-.57,1.39,1.39,1.3,1.47-.07,3.31-1.89,4.61-2.77,.67-.45,1.2-.65,1.45-.21,.46,.79,1.23,3.58,1.47,6.11,.15,1.59,.08,3.07-.41,3.89Z"/>
              <path d="M192,343.25c-1.28,2.13-8.83,3.94-11.81,5.32-2.98,1.38-4.68,5.32-14.47,7.66-4.89,1.17-6.81-.37-7.5-2.21-.22-.58-.31-1.19-.28-1.79,.38,.77,1.44,1.66,4.27,1.66,5,0,13.72-6.81,16.6-7.98,2.67-1.09,11.2-3.64,13.6-6.56,.15,1.59,.08,3.07-.41,3.89Z"/>
              <path d="M189.48,333.46c-.86,1.32-3.35,4.98-5.04,6.15-2.08,1.44-5.83,2.63-6.23,1.2-.4-1.44,5.11-5.83,5.11-5.83l.15-.05c-.08,1.08-.57,1.39,1.39,1.3,1.47-.07,3.31-1.89,4.61-2.77Z"/>
              <path d="M259.12,327.93c0,2.77,.96,11.49-.74,15.11-1.7,3.62-10.96,7.76-12.98,4.15-.12-.21-.22-.44-.31-.69-1.55-4.08-.21-13.3,0-15.8,.21-2.66-.85-7.13-.85-7.13-.42-1.7-.11-2.66-.11-4.04s6.49-4.89,7.87-3.62c.35,.32,.57,.68,.73,1,.48,.96,.36,1.58,1.08-.25,.14-.36,.21-.72,.25-1.1,.2-2.21-1.1-4.56,.18-4.65,1.07-.08,2.57,1.27,3.85,2.67,.5,.55,.97,1.11,1.36,1.59,1.38,1.7-.32,10-.32,12.77Z"/>
              <path d="M259.12,327.93c0,2.77,.96,11.49-.74,15.11-1.7,3.62-10.96,7.76-12.98,4.15-.12-.21-.22-.44-.31-.69,.88,.21,4.29,.79,7.86-1.87,4.15-3.08,4.68-6.6,4.57-10.96-.11-4.36-.64-10.32,0-12.87,.42-1.69,.66-4.84,.55-7.23,.5,.55,.97,1.11,1.36,1.59,1.38,1.7-.32,10-.32,12.77Z"/>
              <path d="M253.49,322.82c-.85-1.38-.75-5.74-.75-5.74v-.17c.47,.96,.35,1.58,1.06-.25,.14-.36,.21-.72,.25-1.1,.59,1.1,1.21,2.43,1.56,3.75,.85,3.19-1.28,4.89-2.13,3.51Z"/>
            </g>
            <path d="M249.81,312.48c-4.14,2.88-11,2.14-12.38-.37-2.23-4.06-13.4-21.44-16.91-25.79-3.51-4.35-10.85-13.62-10.85-20.86s-3.51-44.91-3.83-40.86c-.32,4.06-4.15,26.37-7.34,37.09-3.19,10.72-3.83,11.59-3.19,18.25,.64,6.67,.96,37.67-1.91,44.04-1.3,2.88-4.94,3.81-8.54,3.67-4.37-.17-8.69-1.92-8.69-3.67,0-3.19,.96-4.93,0-10.14-.96-5.21-1.28-38.83-2.55-49.55-1.28-10.72,1.27-37.38,3.19-45.2,1.91-7.82,4.47-16.23,4.47-16.23,19.15,5.5,46.92,0,46.92,0,0,0,.68-.49,1.87,2.07,.63,1.36,1.4,3.58,2.28,7.2,2.55,10.43,.32,53.03,.32,53.03,10.85,10.43,19.79,37.38,19.79,37.38,1.46,4.99-.06,8.15-2.62,9.93Z"/>
            <path class="cls-9" d="M198.49,261.69c-3.19,10.72-3.83,11.59-3.19,18.25,.64,6.67,.96,37.67-1.91,44.04-1.3,2.88-4.94,3.81-8.54,3.67,.53-6.76,3.57-46.6,1.52-50.31-2.23-4.06-2.87-5.51,1.6-10.72,4.47-5.22,8.94-39.12,12.77-44.91,3.83-5.79,5.11-3.77,5.11,2.9-.32,4.06-4.15,26.37-7.34,37.09Z"/>
            <path class="cls-9" d="M249.81,312.48c-.09-.29-.17-.61-.25-.95-3.19-13.91-19.15-37.38-23.3-41.44-4.15-4.05-4.47-3.47-2.55-9.85,1.71-5.7-.15-40.39-.56-47.64,3.35-1.04,6.36-2.39,8.4-3.39,.25,.86,.51,1.83,.77,2.93,2.55,10.43,.32,53.03,.32,53.03,10.85,10.43,19.79,37.38,19.79,37.38,1.46,4.99-.06,8.15-2.62,9.93Z"/>
            <path d="M221.57,108.73c-7.02,5.74-16.06,27.45-13.19,36.38,2.87,8.94-2.56,38.94-2.56,48.19,0,6.72,1.68,14.62,2.61,18.44-7.23,1.99-16.62,0-21.33-1.27,1.49-6.74,1.49-30.57,1.49-37.91,0-7.98-2.87-15-1.91-29.68,.96-14.68,7.02-34.15,7.02-34.15,5.1-1.28,29.47-3.19,27.87,0Z"/>
            <path d="M146.89,192.88s-.53,5.21,9.79,6.17c0,0-.43-6.92-9.79-6.17Z"/>
            <path d="M233.27,148.63c-.32,7.02-5.11,26.49-3.51,36.06,1.6,9.57,4.79,23.3,4.79,23.3,0,0-1.01,.65-2.69,1.55-2.04,1.1-5.06,2.59-8.4,3.74-.32,.11-.65,.22-.99,.32-4.53,1.43-9.53,2.15-13.45,.44,0,0-.24-.86-.59-2.31-.92-3.82-2.61-11.72-2.61-18.44,0-9.26,5.43-39.26,2.56-48.19-2.87-8.94,5.43-31.92,12.45-37.66,0,0,11.81-.32,12.13,9.26,.1,2.87,1.89,7.91,1.66,13.86-.26,6.87-1.16,14.29-1.33,18.05Z"/>
            <path d="M155.72,192.19l-5.27-1.12s-1.92,3.99-3.03,7.5c-1.12,3.51-4.15,7.98-5.74,10.69-1.6,2.71-4.31,10.05-4.31,10.05,0,0-1.28,2.07,.32,2.39,.15,.03,.31-.02,.48-.14-.01,.43,.13,.93,.8,1.09,.22,.05,.56-.27,.98-.85,.68,.11,2.09-1.3,2.61-2.66,.43-1.12,2.41-4.81,3.68-7.16-.78,2.11-1.65,3.19-.25,3.81,1.44,.64,3.03-4.47,4.79-7.5,1.76-3.03,.16-4.31,1.44-6.86,1.28-2.55,3.51-9.26,3.51-9.26Z"/>
            <path d="M188.59,172.56c0,7.35,0,31.17-1.49,37.91-1.85-.5-2.98-.89-2.98-.89,0,0-.96-38.3-2.23-48.83-1.25-10.29,6.35-48.96,11.46-51.88,0,0,0,0,0,0,.11-.07,.23-.11,.34-.14,0,0-6.06,19.47-7.02,34.15-.96,14.68,1.91,21.7,1.91,29.68Z"/>
            <path d="M182.21,113.52l-.32,23.62s-.65,6.63-1.55,13.96c-.85,7.01-1.93,14.67-2.87,17.78-.02,.06-.03,.11-.05,.17-1.91,6.06-20.74,30-20.74,30-.47-1.7-1.28-2.94-2.25-3.84-3.02-2.81-7.54-2.33-7.54-2.33,2.23-6.7,16.81-35.96,19.68-41.7,2.87-5.74,4.47-15,7.02-25.21,2.51-10.05,8.43-12.37,8.61-12.44h0Z"/>
            <path d="M210.52,111.22c-3.8,1.84-9.35,2.86-12.36,.23l-.52-6.72-.12-1.58s1.07-.03,2.86-.59c2.7-.84,7.02-2.89,11.82-7.87,0,0,.03,.26,.08,.71,.25,2.29,1.09,9.47,2.16,11.74,.53,1.11-1.27,2.79-3.92,4.08Z"/>
            <path d="M212.85,94.21c-.01,.05-.03,.11-.05,.16-.11,.32-.28,.66-.51,1.03-1.55,2.39-5.72,5.57-9.97,7.61-1.59,.76-3.19,1.37-4.66,1.72-2.15,.5-4.03,.45-5.23-.46-4.63-3.51-6.06-13.25-6.38-20.9-.32-7.66,2.07-14.52,2.07-14.52,6.7-11.01,18.03-6.54,20.59-5.9,2.55,.64,6.7,4.94,7.5,14.2,.8,9.26-2.23,12.77-3.35,17.08Z"/>
            <path d="M188.59,76.07s-3.83,.85-4.26-2.98c-.43-3.83-1.7-.43-1.28-5.74,.43-5.32,2.13-4.47,5.11-7.45,2.98-2.98,3.62-4.68,8.09-3.62,4.47,1.06,9.79,1.7,14.47,4.04,4.68,2.34,4.47,4.47,6.38,8.3,1.91,3.83,1.06,10.43,.64,14.68-.43,4.26-4.26,10.85-5.53,12.77-1.28,1.91,.21-2.77,.21-7.23s2.55-5.74-.43-8.51c-2.98-2.77-4.26,2.34-4.04,5.32,.21,2.98-.64,4.47-2.13,4.47s-.43-2.34-1.06-6.6c-.64-4.26-.43-5.11-4.89-6.17-4.47-1.06-4.68,.64-11.28-1.28Z"/>
            <path d="M186.68,142.88c.96-14.68,7.02-34.15,7.02-34.15l-.34,.14s0,0,0,0l-11.14,4.64h0c-.07,.18-2.25,5.84-3.51,12.13-.73,3.64-1.25,15.24-1.38,26.45-.08,6.19-.03,12.26,.16,16.79,.07,1.67,.16,3.13,.27,4.32,.23,2.42,.09,5.38-.22,8.53-1,10.15-3.87,22.3-2.66,24.98,1.6,3.51,9.89,8.93,11.81,5.11,.15-.31,.29-.76,.42-1.35,1.49-6.74,1.49-30.57,1.49-37.91,0-7.98-2.87-15-1.91-29.68Z"/>
            <path class="cls-19" d="M180.34,151.1c-.85,7.01-1.93,14.67-2.87,17.78-.02,.06-.03,.11-.05,.17-1.91,6.06-20.74,30-20.74,30-.47-1.7-1.28-2.94-2.25-3.84,3.74-5.54,15.29-22.78,16.72-26.16,1.63-3.87,3.06-8.71,6.17-16.96,.14-.37,.28-.75,.43-1.13,.93-2.44,1.81-1.91,2.6,.14Z"/>
            <path d="M197.95,102.77c-1.49,2.87-12.66,10.64-13.62,14.89-.89,3.95-3.24,4.78-6.22,3.26-.23-.11-.46-.25-.7-.39-1.62-.99-3.52-.96-5.41-1.02-1.96-.06-3.92-.23-5.55-1.74-.68-.64-1.39-1.28-2.09-1.93-.97-.91-1.92-1.83-2.71-2.75-1.32-1.54-2.22-3.11-2.11-4.68,.21-3.19,6.91-2.87,11.17-2.98,4.26-.11,12.34-9.58,15.32-11.7,2.98-2.13,8.3-.53,8.3-.53,1.6,.85,5.1,6.7,3.62,9.58Z"/>
            <path d="M195.69,108.03c-.35-2.21-.18-4.95-.53-7.86-.35-2.91,.27-5.21-.88-5.65-1.15-.44-1.68,.27-1.94,3.09-.26,2.83,1.06,4.59-.26,5.12-1.32,.53-2.56-.62-3.36-2.83-.01-.04-.03-.07-.05-.1,0-.03,0-.05,0-.05,0,0-.99-3.31-.93-4.64,.07-1.32,.46-3.84,.33-4.5-.13-.65-.78-1.5-1.24,.82,.01-.27,0-.49-.02-.62-.13-.66-.79-1.52-1.26,.93-.06,.31-.11,.6-.16,.87-.18-.63-.79-1.26-1.23,1.05-.06,.33-.12,.63-.17,.92-.19-.62-.79-1.2-1.22,1.07-.46,2.45-.6,3.51-.73,5.23-.13,1.72,.86,5.96,.86,5.96,.04,0,.08,0,.13,0,.26,1.22,.82,3.65,1.53,5,.97,1.85,2.12,2.21,2.91,3.44,.79,1.24,1.06,3.36,1.06,3.36,0,0,5.74-3.09,6.62-3.27,.88-.18,.88-5.12,.53-7.33Z"/>
            <path d="M236.12,127.43c-2.4,5.39-6.1,11.2-8.8,15.62-1.11,1.81-2.05,3.39-2.66,4.61-3.51,7.02-3.51,13.41-11.81,15.32-4.35,1-7.39,.25-9.66-1.89-2.06-1.94-3.49-5.02-4.7-8.97-2.55-8.3-10.85-26.49-12.45-30-1.32-2.91,1.95-6.91,7.64-7.65,1.18-.16,2.47-.17,3.85,0,0,0,.45,1.15,.67,1.49,1.83,2.74,10.18,15.28,12.73,19.25,.29,.46,.6,.61,.92,.5,2.22-.75,4.95-14.01,7.28-22.73,.91-3.42,4.41-5.46,7.84-4.56,2.92,.77,6.34,2.15,8.91,4.61,.56,.53,1.08,1.12,1.55,1.76,2.05,2.82,.96,7.54-1.3,12.64Z"/>
            <path class="cls-19" d="M207.74,149.26c-.64-4.04-13.62-34.04-13.62-34.04l-.44-.74c1.18-.16,2.47-.17,3.85,0,0,0,.45,1.15,.67,1.49,1.83,2.74,10.18,15.28,12.73,19.25,.29,.46,.6,.61,.92,.5,.46,1.19,.87,2.37,1.21,3.54,3.89,13.51-4.68,14.04-5.32,10Z"/>
            <path class="cls-19" d="M224.66,147.67c-3.51,7.02-3.51,13.41-11.81,15.32-4.35,1-7.39,.25-9.66-1.89l-.13-.35s7.23,4.89,17.02-12.98c7.21-13.17,13.39-26.12,15.79-34.74,.56,.53,1.08,1.12,1.55,1.76,5.1,7.02-9.26,25.85-12.77,32.87Z"/>
            <path class="cls-19" d="M229.76,184.69c1.6,9.57,4.79,23.3,4.79,23.3,0,0-5.55,3.56-12.08,5.62-.26-5.3-.75-12.53-1.65-18.07-1.6-9.89,1.27-18.19,2.55-24.89,.88-4.61,2.81-19.04,3.94-27.59,2.18-3.57,5.02-8.05,7.29-12.48-.26,6.87-1.16,14.29-1.33,18.05-.32,7.02-5.11,26.49-3.51,36.06Z"/>
            <path d="M210.08,203.62c-1.52,0-1.52,2.36,0,2.36s1.52-2.36,0-2.36Z"/>
            <path d="M209.44,188.3c-1.52,0-1.52,2.36,0,2.36s1.52-2.36,0-2.36Z"/>
            <path d="M211.36,169.57c-1.52,0-1.52,2.36,0,2.36s1.52-2.36,0-2.36Z"/>
            <path d="M210.52,111.22c-.06-2.15-.44-9.85-2.78-9.03-1.49,.53-3.71,.74-5.43,.82,4.25-2.04,8.43-5.22,9.97-7.61,.25,2.29,1.09,9.47,2.16,11.74,.53,1.11-1.27,2.79-3.92,4.08Z"/>
            <path d="M178.12,120.93c-.23-.11-.46-.25-.7-.39-1.62-.99-3.52-.96-5.41-1.02,.3-.83,1-2.01,2.65-3.13,2.98-2.02,2.23-6.38,4.36-5.74,1.91,.57-.72,6.53-.9,10.29Z"/>
            <path d="M174.23,109.9c-3.41,2.45-6.38,2.13-9.57,5.64-.09,.1-.19,.21-.28,.31-.97-.91-1.92-1.83-2.71-2.75,1.02-.54,5.78-2.98,8.53-2.98,3.08,0,6.38-3.3,7.98-4.26s-.53,1.6-3.94,4.04Z"/>
          </g>
          <g>
            <polygon points="5 245.06 5 337.94 148.62 337.94 148.62 261.02 5 245.06"/>
            <polygon points="5 245.06 135.22 231.66 148.62 261.02 5 245.06"/>
            <circle cx="33.48" cy="278.34" r="16.52" transform="translate(-246.81 283.68) rotate(-84.23)"/>
            <circle cx="58.86" cy="315.2" r="12.21"/>
            <circle cx="93.33" cy="272.11" r="12.21"/>
            <circle cx="127.32" cy="316.16" r="12.21" transform="translate(-104.47 66.28) rotate(-20.92)"/>
            <path d="M141.04,269.88c3.61,3.61,3.61,9.47,0,13.09-3.61,3.61-9.47,3.61-13.09,0-3.61-3.61-3.61-9.47,0-13.09,3.61-3.61,9.47-3.61,13.09,0Z"/>
            <circle cx="17.37" cy="321.42" r="9.25"/>
          </g>
          <g>
            <path d="M337.53,289.23c19.29,11.01,28.65,30.92,20.92,44.47-7.74,13.55-29.64,15.6-48.93,4.59-19.29-11.01-40.53-37.15-32.79-50.7,7.74-13.55,41.52-9.37,60.81,1.64Z"/>
            <circle cx="331.07" cy="316.95" r="17.71" transform="translate(8.7 642.75) rotate(-89.05)"/>
          </g>
        </g>
      </g>
      <g>
        <g>
          <rect class="cls-36" x="95.04" y="207.33" width="246.39" height="4.41" transform="translate(-80.76 255.72) rotate(-52.61)"/>
          <g>
            <path class="cls-36" d="M258.68,156.09l-12.17-9.3c-7.84-5.99-9.34-17.21-3.35-25.05h0l12.17,9.3c7.84,5.99,9.34,17.21,3.35,25.05h0Z"/>
            <path class="cls-36" d="M269.53,141.89l-12.17-9.3c-7.84-5.99-9.34-17.21-3.35-25.05h0l12.17,9.3c7.84,5.99,9.34,17.21,3.35,25.05h0Z"/>
            <path class="cls-36" d="M280.38,127.68l-12.17-9.3c-7.84-5.99-9.34-17.21-3.35-25.05h0l12.17,9.3c7.84,5.99,9.34,17.21,3.35,25.05h0Z"/>
          </g>
          <g>
            <path class="cls-36" d="M258.7,156.1l12.17,9.3c7.84,5.99,19.06,4.49,25.05-3.35h0l-12.17-9.3c-7.84-5.99-19.06-4.49-25.05,3.35h0Z"/>
            <path class="cls-36" d="M269.55,141.9l12.17,9.3c7.84,5.99,19.06,4.49,25.05-3.35h0s-12.17-9.3-12.17-9.3c-7.84-5.99-19.06-4.49-25.05,3.35h0Z"/>
            <path class="cls-36" d="M280.4,127.7l12.17,9.3c7.84,5.99,19.06,4.49,25.05-3.35h0l-12.17-9.3c-7.84-5.99-19.06-4.49-25.05,3.35h0Z"/>
          </g>
          <path class="cls-36" d="M248.14,169.92l12.17,9.3c7.84,5.99,19.06,4.49,25.05-3.35h0s-12.17-9.3-12.17-9.3c-7.84-5.99-19.06-4.49-25.05,3.35h0Z"/>
          <path class="cls-36" d="M249.15,170.7l-12.17-9.3c-7.84-5.99-9.34-17.21-3.35-25.05h0l12.17,9.3c7.84,5.99,9.34,17.21,3.35,25.05h0Z"/>
          <rect class="cls-36" x="272.65" y="93.13" width="22.34" height="1.26" transform="translate(37 262.35) rotate(-52.62)"/>
          <rect class="cls-36" x="300.32" y="113.32" width="26.17" height="1.26" transform="translate(32.57 293.78) rotate(-52.61)"/>
          <rect class="cls-36" x="309.78" y="123.55" width="14.04" height="1.26" transform="translate(25.77 300.5) rotate(-52.61)"/>
          <rect class="cls-36" x="267.56" y="90.5" width="17.23" height="1.26" transform="translate(36.08 255.24) rotate(-52.61)"/>
        </g>
        <g>
          <g>
            <path class="cls-37" d="M333.56,232.55l-9.72,76.39h-.12c-.88,.55-6.55,1.04-15.04,1.37-7.25,.29-16.56,.46-26.71,.46-22.04,0-40.1-.81-41.74-1.83h-.29l-12.34-75.82c-1.2-7.37,2.15-14.74,8.49-18.68l12.55-7.81h62.92l13,7.63c6.39,3.75,9.92,10.94,8.99,18.29Z"/>
            <path class="cls-27" d="M328.45,273.22c0,1.23-21.03,2.22-46.98,2.22s-46.98-1-46.98-2.22,21.03-2.22,46.98-2.22,46.98,1,46.98,2.22Z"/>
            <path class="cls-27" d="M333.05,236.53l-4.6,36.69h-93.96l-6.31-36.75h.24c1.47,1.2,24.35,2.14,52.36,2.14s50.05-.91,52.26-2.08Z"/>
            <circle class="cls-1" cx="281.39" cy="257.78" r="17.14"/>
            <g>
              <path class="cls-27" d="M281.87,259.31c-.99,3.41-5.33,6.02-8.9,3.77-.57-.36-1.11-.84-1.62-1.46-4.51-5.48,.98-12.15,.98-12.15,0,0,7.84,.39,9.6,7.25,.22,.87,.18,1.75-.06,2.59Z"/>
              <path class="cls-37" d="M281.87,259.31c-.99,3.41-5.33,6.02-8.9,3.77,1.66-1.3,5.48-3.96,8.9-3.77Z"/>
              <path class="cls-27" d="M296.04,258.88c-.38,1.22-1.21,2.54-2.3,3.56-2.12,1.96-5.24,2.78-8.13-.55-.18-.2-.36-.42-.53-.66-4.5-6.07,5.29-12.15,5.29-12.15,0,0,6.86,6.07,5.68,9.8Z"/>
              <path class="cls-37" d="M293.73,262.44c-2.12,1.96-5.24,2.78-8.13-.55,2.03-.58,5.66-1.24,8.09,.51,.02,.01,.03,.02,.05,.03Z"/>
            </g>
            <path class="cls-10" d="M333.56,232.55l-9.72,76.39h-.12c-.88,.55-6.55,1.04-15.04,1.37,.06-.45,.12-.91,.18-1.37,2.91-22.07,8.33-67.76,4.87-78.14-3.43-10.27-13.64-19.91-18.65-24.17h16.48l13,7.63c6.39,3.75,9.92,10.94,8.99,18.29Z"/>
            <path class="cls-35" d="M243.02,189.23v17.9h.26c2.18,.79,17.72,1.41,36.57,1.41s34.38-.61,36.57-1.41h.26v-17.9h-73.66Z"/>
            <ellipse class="cls-20" cx="279.85" cy="189.55" rx="36.83" ry="1.6"/>
            <path class="cls-2" d="M250.98,228.34c-.22-7.02-9.1-9.98-13.57-4.58-2.29,2.76-4.18,6.52-3.85,11.25,.77,11.13,5.37,32.61,5.37,32.61h15.73s-4.6-21.87-4.22-30.69c.15-3.55,.62-6.23,.55-8.59Z"/>
          </g>
          <g>
            <path class="cls-12" d="M113.38,98.11h0v200.43H52.74V158.75c0-33.47,27.17-60.64,60.64-60.64Z"/>
            <path class="cls-12" d="M167.63,146.63v151.92h-60.64V98.12h12.13c1.16,0,2.31,.04,3.45,.12,25.18,1.77,45.07,22.76,45.07,48.39Z"/>
            <g>
              <rect class="cls-12" x="51.14" y="250.67" width="118.09" height="54.89"/>
              <path class="cls-12" d="M169.22,305.93c0,.56-1.88,1.1-5.25,1.58-5.17,.74-13.85,1.35-24.66,1.75-8.6,.32-18.54,.5-29.13,.5-32.61,0-59.05-1.72-59.05-3.83,0-.12,.09-.25,.27-.37,2.86-1.94,28.08-3.46,58.77-3.46,11,0,21.29,.2,30.11,.54,.5,.02,1,.04,1.49,.06,15.28,.62,25.88,1.49,27.36,2.72,.04,.03,.06,.08,.07,.14,.03,.13,.02,.3,.02,.37Z"/>
            </g>
            <path class="cls-30" d="M167.31,225.13c.11-.1,.16-.21,.16-.31s-.05-.21-.16-.31v-67.19c-5.65,1.73-29.37,3.03-57.77,3.03s-50.5-1.21-57.13-2.86v67.65h.8c2.24,2.14,26.92,3.83,57.04,3.83s54.8-1.69,57.04-3.83h0Z"/>
            <path class="cls-8" d="M169.22,305.93c0-.1-.06-.2-.18-.3-.03-.02-.06-.04-.09-.07-1.76-1.21-12.18-2.25-27.18-2.87-.49-.02-.99-.04-1.49-.06,.26-1.89,.45-3.41,.47-4.09,.33-12.44,.74-29.46,1.07-47.87,.87-47.79,1.24-105.02-1.64-116.17-5.1-19.79-26.81-32.55-26.81-32.55l9.19-3.71c25.18,1.77,45.07,22.76,45.07,48.39v104.04h1.59v54.89h-.02c.03,.13,.02,.3,.02,.37Z"/>
            <path class="cls-8" d="M169.22,305.93c0,.56-1.88,1.1-5.25,1.58-5.17,.74-13.85,1.35-24.66,1.75,.34-2.27,.7-4.65,.98-6.63,16.08,.62,27.24,1.72,28.76,2.99,.12,.1,.18,.2,.18,.3Z"/>
            <path class="cls-13" d="M140.34,101.75v-9.69h-61.28v9.63c-.07,.07-.11,.14-.11,.22,0,1.44,13.75,2.6,30.72,2.6s30.72-1.16,30.72-2.6c0-.05-.02-.1-.05-.15Z"/>
            <path class="cls-7" d="M140.08,92.45c0,.9-13.75,1.62-30.72,1.62s-30.72-.73-30.72-1.62,13.75-1.62,30.72-1.62,30.72,.73,30.72,1.62Z"/>
            <path class="cls-2" d="M76.35,295.35h0c-5.29,0-9.57-4.29-9.57-9.57V140.24c0-5.29,4.29-9.57,9.57-9.57h0c5.29,0,9.57,4.29,9.57,9.57v145.54c0,5.29-4.29,9.57-9.57,9.57Z"/>
            <g>
              <path class="cls-1" d="M82.34,197.18c.12,.3,.23,.6,.35,.9,.11-.32,.23-.62,.35-.9,.12-.29,.26-.58,.42-.87l8.19-14.88c.15-.26,.3-.42,.46-.47,.16-.06,.38-.08,.68-.08h2.41v24.2h-2.87v-17.78c0-.24,0-.49,.02-.76,.01-.27,.03-.55,.05-.83l-8.29,15.13c-.28,.51-.68,.76-1.18,.76h-.47c-.51,0-.9-.25-1.18-.76l-8.48-15.18c.03,.29,.06,.58,.08,.86,.02,.28,.03,.54,.03,.78v17.78h-2.87v-24.2h2.41c.29,0,.52,.03,.68,.08,.16,.06,.31,.21,.46,.47l8.36,14.89c.16,.27,.3,.55,.41,.85Z"/>
              <path class="cls-1" d="M104.98,205.07h-3.28v-24.2h3.28v24.2Z"/>
              <path class="cls-1" d="M114.74,202.32h10.47v2.75h-13.75v-24.2h3.28v21.45Z"/>
              <path class="cls-1" d="M132.42,191.48h1.23c.43,0,.77-.05,1.02-.16,.25-.11,.49-.29,.72-.55l8.06-9.12c.25-.28,.49-.48,.72-.6,.23-.12,.53-.18,.89-.18h2.79l-9.22,10.42c-.24,.26-.46,.48-.67,.66-.21,.18-.43,.33-.67,.44,.32,.1,.59,.25,.83,.46,.24,.2,.48,.46,.74,.76l9.63,11.47h-2.84c-.21,0-.39-.02-.54-.05-.15-.03-.27-.08-.38-.14-.11-.06-.21-.13-.3-.22-.09-.09-.18-.19-.27-.29l-8.36-9.61c-.12-.14-.24-.25-.35-.35-.11-.1-.23-.18-.37-.24-.14-.07-.3-.12-.49-.14-.19-.03-.41-.04-.68-.04h-1.49v11.08h-3.26v-24.2h3.26v10.6Z"/>
            </g>
          </g>
          <g>
            <g>
              <path class="cls-6" d="M239.55,318.27s-1.7-8.62-4.04-11.49c-2.34-2.87,6.7-4.79,7.77-6.06,1.06-1.28,4.85,7.41,6.7,9.89,5.32,7.13-10.43,7.66-10.43,7.66Z"/>
              <path class="cls-6" d="M171.78,332.21s2.66-5.74,1.6-11.81c-1.06-6.06,9.36-3.83,10.96-3.3,1.6,.53,.53,11.81,1.17,15.11,.64,3.3-12.23,4.36-13.72,0Z"/>
              <path class="cls-23" d="M187,341.25c-1.28,2.13-8.83,3.94-11.81,5.32-2.98,1.38-4.68,5.32-14.47,7.66-4.89,1.17-6.81-.37-7.5-2.21-.22-.58-.31-1.19-.28-1.79,.06-1.34,.7-2.64,1.77-3.53,8.96-7.54,14.8-14.98,15.9-15.98,1.17-1.06,7.77,.21,7.87,1.7,.01,.19,0,.36,0,.51-.08,1.08-.57,1.39,1.39,1.3,1.47-.07,3.31-1.89,4.61-2.77,.67-.45,1.2-.65,1.45-.21,.46,.79,1.23,3.58,1.47,6.11,.15,1.59,.08,3.07-.41,3.89Z"/>
              <path class="cls-5" d="M187,341.25c-1.28,2.13-8.83,3.94-11.81,5.32-2.98,1.38-4.68,5.32-14.47,7.66-4.89,1.17-6.81-.37-7.5-2.21-.22-.58-.31-1.19-.28-1.79,.38,.77,1.44,1.66,4.27,1.66,5,0,13.72-6.81,16.6-7.98,2.67-1.09,11.2-3.64,13.6-6.56,.15,1.59,.08,3.07-.41,3.89Z"/>
              <path class="cls-22" d="M184.48,331.46c-.86,1.32-3.35,4.98-5.04,6.15-2.08,1.44-5.83,2.63-6.23,1.2-.4-1.44,5.11-5.83,5.11-5.83l.15-.05c-.08,1.08-.57,1.39,1.39,1.3,1.47-.07,3.31-1.89,4.61-2.77Z"/>
              <path class="cls-23" d="M254.12,325.93c0,2.77,.96,11.49-.74,15.11-1.7,3.62-10.96,7.76-12.98,4.15-.12-.21-.22-.44-.31-.69-1.55-4.08-.21-13.3,0-15.8,.21-2.66-.85-7.13-.85-7.13-.42-1.7-.11-2.66-.11-4.04s6.49-4.89,7.87-3.62c.35,.32,.57,.68,.73,1,.48,.96,.36,1.58,1.08-.25,.14-.36,.21-.72,.25-1.1,.2-2.21-1.1-4.56,.18-4.65,1.07-.08,2.57,1.27,3.85,2.67,.5,.55,.97,1.11,1.36,1.59,1.38,1.7-.32,10-.32,12.77Z"/>
              <path class="cls-5" d="M254.12,325.93c0,2.77,.96,11.49-.74,15.11-1.7,3.62-10.96,7.76-12.98,4.15-.12-.21-.22-.44-.31-.69,.88,.21,4.29,.79,7.86-1.87,4.15-3.08,4.68-6.6,4.57-10.96-.11-4.36-.64-10.32,0-12.87,.42-1.69,.66-4.84,.55-7.23,.5,.55,.97,1.11,1.36,1.59,1.38,1.7-.32,10-.32,12.77Z"/>
              <path class="cls-22" d="M248.49,320.82c-.85-1.38-.75-5.74-.75-5.74v-.17c.47,.96,.35,1.58,1.06-.25,.14-.36,.21-.72,.25-1.1,.59,1.1,1.21,2.43,1.56,3.75,.85,3.19-1.28,4.89-2.13,3.51Z"/>
            </g>
            <path class="cls-5" d="M244.81,310.48c-4.14,2.88-11,2.14-12.38-.37-2.23-4.06-13.4-21.44-16.91-25.79-3.51-4.35-10.85-13.62-10.85-20.86s-3.51-44.91-3.83-40.86c-.32,4.06-4.15,26.37-7.34,37.09-3.19,10.72-3.83,11.59-3.19,18.25,.64,6.67,.96,37.67-1.91,44.04-1.3,2.88-4.94,3.81-8.54,3.67-4.37-.17-8.69-1.92-8.69-3.67,0-3.19,.96-4.93,0-10.14-.96-5.21-1.28-38.83-2.55-49.55-1.28-10.72,1.27-37.38,3.19-45.2,1.91-7.82,4.47-16.23,4.47-16.23,19.15,5.5,46.92,0,46.92,0,0,0,.68-.49,1.87,2.07,.63,1.36,1.4,3.58,2.28,7.2,2.55,10.43,.32,53.03,.32,53.03,10.85,10.43,19.79,37.38,19.79,37.38,1.46,4.99-.06,8.15-2.62,9.93Z"/>
            <path class="cls-8" d="M193.49,259.69c-3.19,10.72-3.83,11.59-3.19,18.25,.64,6.67,.96,37.67-1.91,44.04-1.3,2.88-4.94,3.81-8.54,3.67,.53-6.76,3.57-46.6,1.52-50.31-2.23-4.06-2.87-5.51,1.6-10.72,4.47-5.22,8.94-39.12,12.77-44.91,3.83-5.79,5.11-3.77,5.11,2.9-.32,4.06-4.15,26.37-7.34,37.09Z"/>
            <path class="cls-8" d="M244.81,310.48c-.09-.29-.17-.61-.25-.95-3.19-13.91-19.15-37.38-23.3-41.44-4.15-4.05-4.47-3.47-2.55-9.85,1.71-5.7-.15-40.39-.56-47.64,3.35-1.04,6.36-2.39,8.4-3.39,.25,.86,.51,1.83,.77,2.93,2.55,10.43,.32,53.03,.32,53.03,10.85,10.43,19.79,37.38,19.79,37.38,1.46,4.99-.06,8.15-2.62,9.93Z"/>
            <path class="cls-12" d="M216.57,106.73c-7.02,5.74-16.06,27.45-13.19,36.38,2.87,8.94-2.56,38.94-2.56,48.19,0,6.72,1.68,14.62,2.61,18.44-7.23,1.99-16.62,0-21.33-1.27,1.49-6.74,1.49-30.57,1.49-37.91,0-7.98-2.87-15-1.91-29.68,.96-14.68,7.02-34.15,7.02-34.15,5.1-1.28,29.47-3.19,27.87,0Z"/>
            <path class="cls-29" d="M141.89,190.88s-.53,5.21,9.79,6.17c0,0-.43-6.92-9.79-6.17Z"/>
            <path class="cls-24" d="M228.27,146.63c-.32,7.02-5.11,26.49-3.51,36.06,1.6,9.57,4.79,23.3,4.79,23.3,0,0-1.01,.65-2.69,1.55-2.04,1.1-5.06,2.59-8.4,3.74-.32,.11-.65,.22-.99,.32-4.53,1.43-9.53,2.15-13.45,.44,0,0-.24-.86-.59-2.31-.92-3.82-2.61-11.72-2.61-18.44,0-9.26,5.43-39.26,2.56-48.19-2.87-8.94,5.43-31.92,12.45-37.66,0,0,11.81-.32,12.13,9.26,.1,2.87,1.89,7.91,1.66,13.86-.26,6.87-1.16,14.29-1.33,18.05Z"/>
            <path class="cls-6" d="M150.72,190.19l-5.27-1.12s-1.92,3.99-3.03,7.5c-1.12,3.51-4.15,7.98-5.74,10.69-1.6,2.71-4.31,10.05-4.31,10.05,0,0-1.28,2.07,.32,2.39,.15,.03,.31-.02,.48-.14-.01,.43,.13,.93,.8,1.09,.22,.05,.56-.27,.98-.85,.68,.11,2.09-1.3,2.61-2.66,.43-1.12,2.41-4.81,3.68-7.16-.78,2.11-1.65,3.19-.25,3.81,1.44,.64,3.03-4.47,4.79-7.5,1.76-3.03,.16-4.31,1.44-6.86,1.28-2.55,3.51-9.26,3.51-9.26Z"/>
            <path class="cls-12" d="M183.59,170.56c0,7.35,0,31.17-1.49,37.91-1.85-.5-2.98-.89-2.98-.89,0,0-.96-38.3-2.23-48.83-1.25-10.29,6.35-48.96,11.46-51.88,0,0,0,0,0,0,.11-.07,.23-.11,.34-.14,0,0-6.06,19.47-7.02,34.15-.96,14.68,1.91,21.7,1.91,29.68Z"/>
            <path class="cls-24" d="M177.21,111.52l-.32,23.62s-.65,6.63-1.55,13.96c-.85,7.01-1.93,14.67-2.87,17.78-.02,.06-.03,.11-.05,.17-1.91,6.06-20.74,30-20.74,30-.47-1.7-1.28-2.94-2.25-3.84-3.02-2.81-7.54-2.33-7.54-2.33,2.23-6.7,16.81-35.96,19.68-41.7,2.87-5.74,4.47-15,7.02-25.21,2.51-10.05,8.43-12.37,8.61-12.44h0Z"/>
            <path class="cls-6" d="M205.52,109.22c-3.8,1.84-9.35,2.86-12.36,.23l-.52-6.72-.12-1.58s1.07-.03,2.86-.59c2.7-.84,7.02-2.89,11.82-7.87,0,0,.03,.26,.08,.71,.25,2.29,1.09,9.47,2.16,11.74,.53,1.11-1.27,2.79-3.92,4.08Z"/>
            <path class="cls-21" d="M207.85,92.21c-.01,.05-.03,.11-.05,.16-.11,.32-.28,.66-.51,1.03-1.55,2.39-5.72,5.57-9.97,7.61-1.59,.76-3.19,1.37-4.66,1.72-2.15,.5-4.03,.45-5.23-.46-4.63-3.51-6.06-13.25-6.38-20.9-.32-7.66,2.07-14.52,2.07-14.52,6.7-11.01,18.03-6.54,20.59-5.9,2.55,.64,6.7,4.94,7.5,14.2,.8,9.26-2.23,12.77-3.35,17.08Z"/>
            <path class="cls-24" d="M183.59,74.07s-3.83,.85-4.26-2.98c-.43-3.83-1.7-.43-1.28-5.74,.43-5.32,2.13-4.47,5.11-7.45,2.98-2.98,3.62-4.68,8.09-3.62,4.47,1.06,9.79,1.7,14.47,4.04,4.68,2.34,4.47,4.47,6.38,8.3,1.91,3.83,1.06,10.43,.64,14.68-.43,4.26-4.26,10.85-5.53,12.77-1.28,1.91,.21-2.77,.21-7.23s2.55-5.74-.43-8.51c-2.98-2.77-4.26,2.34-4.04,5.32,.21,2.98-.64,4.47-2.13,4.47s-.43-2.34-1.06-6.6c-.64-4.26-.43-5.11-4.89-6.17-4.47-1.06-4.68,.64-11.28-1.28Z"/>
            <path class="cls-24" d="M181.68,140.88c.96-14.68,7.02-34.15,7.02-34.15l-.34,.14s0,0,0,0l-11.14,4.64h0c-.07,.18-2.25,5.84-3.51,12.13-.73,3.64-1.25,15.24-1.38,26.45-.08,6.19-.03,12.26,.16,16.79,.07,1.67,.16,3.13,.27,4.32,.23,2.42,.09,5.38-.22,8.53-1,10.15-3.87,22.3-2.66,24.98,1.6,3.51,9.89,8.93,11.81,5.11,.15-.31,.29-.76,.42-1.35,1.49-6.74,1.49-30.57,1.49-37.91,0-7.98-2.87-15-1.91-29.68Z"/>
            <path class="cls-11" d="M175.34,149.1c-.85,7.01-1.93,14.67-2.87,17.78-.02,.06-.03,.11-.05,.17-1.91,6.06-20.74,30-20.74,30-.47-1.7-1.28-2.94-2.25-3.84,3.74-5.54,15.29-22.78,16.72-26.16,1.63-3.87,3.06-8.71,6.17-16.96,.14-.37,.28-.75,.43-1.13,.93-2.44,1.81-1.91,2.6,.14Z"/>
            <path class="cls-12" d="M192.95,100.77c-1.49,2.87-12.66,10.64-13.62,14.89-.89,3.95-3.24,4.78-6.22,3.26-.23-.11-.46-.25-.7-.39-1.62-.99-3.52-.96-5.41-1.02-1.96-.06-3.92-.23-5.55-1.74-.68-.64-1.39-1.28-2.09-1.93-.97-.91-1.92-1.83-2.71-2.75-1.32-1.54-2.22-3.11-2.11-4.68,.21-3.19,6.91-2.87,11.17-2.98,4.26-.11,12.34-9.58,15.32-11.7,2.98-2.13,8.3-.53,8.3-.53,1.6,.85,5.1,6.7,3.62,9.58Z"/>
            <path class="cls-6" d="M190.69,106.03c-.35-2.21-.18-4.95-.53-7.86-.35-2.91,.27-5.21-.88-5.65-1.15-.44-1.68,.27-1.94,3.09-.26,2.83,1.06,4.59-.26,5.12-1.32,.53-2.56-.62-3.36-2.83-.01-.04-.03-.07-.05-.1,0-.03,0-.05,0-.05,0,0-.99-3.31-.93-4.64,.07-1.32,.46-3.84,.33-4.5-.13-.65-.78-1.5-1.24,.82,.01-.27,0-.49-.02-.62-.13-.66-.79-1.52-1.26,.93-.06,.31-.11,.6-.16,.87-.18-.63-.79-1.26-1.23,1.05-.06,.33-.12,.63-.17,.92-.19-.62-.79-1.2-1.22,1.07-.46,2.45-.6,3.51-.73,5.23-.13,1.72,.86,5.96,.86,5.96,.04,0,.08,0,.13,0,.26,1.22,.82,3.65,1.53,5,.97,1.85,2.12,2.21,2.91,3.44,.79,1.24,1.06,3.36,1.06,3.36,0,0,5.74-3.09,6.62-3.27,.88-.18,.88-5.12,.53-7.33Z"/>
            <path class="cls-24" d="M231.12,125.43c-2.4,5.39-6.1,11.2-8.8,15.62-1.11,1.81-2.05,3.39-2.66,4.61-3.51,7.02-3.51,13.41-11.81,15.32-4.35,1-7.39,.25-9.66-1.89-2.06-1.94-3.49-5.02-4.7-8.97-2.55-8.3-10.85-26.49-12.45-30-1.32-2.91,1.95-6.91,7.64-7.65,1.18-.16,2.47-.17,3.85,0,0,0,.45,1.15,.67,1.49,1.83,2.74,10.18,15.28,12.73,19.25,.29,.46,.6,.61,.92,.5,2.22-.75,4.95-14.01,7.28-22.73,.91-3.42,4.41-5.46,7.84-4.56,2.92,.77,6.34,2.15,8.91,4.61,.56,.53,1.08,1.12,1.55,1.76,2.05,2.82,.96,7.54-1.3,12.64Z"/>
            <path class="cls-11" d="M202.74,147.26c-.64-4.04-13.62-34.04-13.62-34.04l-.44-.74c1.18-.16,2.47-.17,3.85,0,0,0,.45,1.15,.67,1.49,1.83,2.74,10.18,15.28,12.73,19.25,.29,.46,.6,.61,.92,.5,.46,1.19,.87,2.37,1.21,3.54,3.89,13.51-4.68,14.04-5.32,10Z"/>
            <path class="cls-11" d="M219.66,145.67c-3.51,7.02-3.51,13.41-11.81,15.32-4.35,1-7.39,.25-9.66-1.89l-.13-.35s7.23,4.89,17.02-12.98c7.21-13.17,13.39-26.12,15.79-34.74,.56,.53,1.08,1.12,1.55,1.76,5.1,7.02-9.26,25.85-12.77,32.87Z"/>
            <path class="cls-11" d="M224.76,182.69c1.6,9.57,4.79,23.3,4.79,23.3,0,0-5.55,3.56-12.08,5.62-.26-5.3-.75-12.53-1.65-18.07-1.6-9.89,1.27-18.19,2.55-24.89,.88-4.61,2.81-19.04,3.94-27.59,2.18-3.57,5.02-8.05,7.29-12.48-.26,6.87-1.16,14.29-1.33,18.05-.32,7.02-5.11,26.49-3.51,36.06Z"/>
            <path class="cls-12" d="M205.08,201.62c-1.52,0-1.52,2.36,0,2.36s1.52-2.36,0-2.36Z"/>
            <path class="cls-12" d="M204.44,186.3c-1.52,0-1.52,2.36,0,2.36s1.52-2.36,0-2.36Z"/>
            <path class="cls-12" d="M206.36,167.57c-1.52,0-1.52,2.36,0,2.36s1.52-2.36,0-2.36Z"/>
            <path class="cls-32" d="M205.52,109.22c-.06-2.15-.44-9.85-2.78-9.03-1.49,.53-3.71,.74-5.43,.82,4.25-2.04,8.43-5.22,9.97-7.61,.25,2.29,1.09,9.47,2.16,11.74,.53,1.11-1.27,2.79-3.92,4.08Z"/>
            <path class="cls-15" d="M173.12,118.93c-.23-.11-.46-.25-.7-.39-1.62-.99-3.52-.96-5.41-1.02,.3-.83,1-2.01,2.65-3.13,2.98-2.02,2.23-6.38,4.36-5.74,1.91,.57-.72,6.53-.9,10.29Z"/>
            <path class="cls-15" d="M169.23,107.9c-3.41,2.45-6.38,2.13-9.57,5.64-.09,.1-.19,.21-.28,.31-.97-.91-1.92-1.83-2.71-2.75,1.02-.54,5.78-2.98,8.53-2.98,3.08,0,6.38-3.3,7.98-4.26s-.53,1.6-3.94,4.04Z"/>
          </g>
          <g>
            <polygon class="cls-26" points="0 243.06 0 335.94 143.62 335.94 143.62 259.02 0 243.06"/>
            <polygon class="cls-34" points="0 243.06 130.22 229.66 143.62 259.02 0 243.06"/>
            <circle class="cls-34" cx="28.48" cy="276.34" r="16.52" transform="translate(-249.32 276.9) rotate(-84.23)"/>
            <circle class="cls-34" cx="53.86" cy="313.2" r="12.21"/>
            <circle class="cls-34" cx="88.33" cy="270.11" r="12.21"/>
            <circle class="cls-34" cx="122.32" cy="314.16" r="12.21" transform="translate(-104.09 64.37) rotate(-20.92)"/>
            <path class="cls-34" d="M136.04,267.88c3.61,3.61,3.61,9.47,0,13.09-3.61,3.61-9.47,3.61-13.09,0-3.61-3.61-3.61-9.47,0-13.09,3.61-3.61,9.47-3.61,13.09,0Z"/>
            <circle class="cls-34" cx="12.37" cy="319.42" r="9.25"/>
          </g>
          <g>
            <path class="cls-28" d="M332.53,287.23c19.29,11.01,28.65,30.92,20.92,44.47-7.74,13.55-29.64,15.6-48.93,4.59-19.29-11.01-40.53-37.15-32.79-50.7,7.74-13.55,41.52-9.37,60.81,1.64Z"/>
            <circle class="cls-37" cx="326.07" cy="314.95" r="17.71" transform="translate(5.78 635.78) rotate(-89.05)"/>
          </g>
        </g>
      </g>
      <g>
        <path class="cls-26" d="M147.4,116.07l-19.51-19.65c6.67-5.45,12.14-12.56,15.7-21.06,11.6-27.68-1.43-59.52-29.11-71.12-27.68-11.6-59.52,1.43-71.12,29.11-11.6,27.68,1.43,59.52,29.11,71.12,14.09,5.91,29.26,5.42,42.29-.12l32.64,11.72Z"/>
        <circle class="cls-1" cx="93.47" cy="54.35" r="48.3" transform="translate(-1.05 1.85) rotate(-1.13)"/>
        <g>
          <g>
            <path class="cls-14" d="M131.08,46.27s-22.13-6.67-30.26-6.32c-8.13,.35-23.57-2.6-24.45,7.36-.89,9.96-2.06,27.32,5.43,31.86,4.21,2.56,16.19,1.52,25.85,.13,7.5-1.08,20.62-5.69,20.62-5.69l.59-1.36c3.53-8.1,4.33-17.13,2.28-25.72l-.06-.26Z"/>
            <path class="cls-14" d="M88.46,50.91s-7.62,.03-13.33-.81c-2.81-.4-5.17-1.02-5.91-1.94-.16-.2-.35-.41-.58-.61-2.92-2.85-10.68-7-11.01-10.34-.06-.73,.08-1.39,.39-1.95,1.21-2.22,4.78-2.89,6.69-.4,2.39,3.13,7.45,4.98,7.45,4.98l15.52,.95,.63,8.34,.14,1.78Z"/>
            <path class="cls-14" d="M85.41,59.47s-.93,0-2.38-.03h-.02c-4.84-.11-15.47-.6-17.26-2.8-2.3-2.85-11.45-7.5-11.8-11.17-.06-.56,.02-1.1,.21-1.56,.94-2.59,4.92-3.53,7-.83,2.46,3.2,7.61,5.08,7.61,5.08l15.82,.96,.69,8.79,.11,1.25,.02,.3Z"/>
            <path class="cls-14" d="M87.84,71.04s-17.34,.05-19.66-2.81c-.4-.5-1.01-1.07-1.77-1.67-3.49-2.81-9.75-6.49-10.04-9.51-.06-.65,.05-1.26,.29-1.79,1.1-2.41,4.92-3.22,6.92-.6,2.46,3.18,7.61,5.08,7.61,5.08l15.83,.95,.81,10.34Z"/>
            <path class="cls-14" d="M93.34,80.87s-17.32,.04-19.64-2.82c-2.32-2.86-11.47-7.51-11.82-11.18-.06-.62,.02-1.16,.23-1.66,1.04-2.49,4.96-3.39,6.99-.72,2.46,3.2,7.61,5.08,7.61,5.08l15.82,.96,.76,9.93,.03,.4Z"/>
            <path class="cls-14" d="M119.38,43.27l-12.73-8.86s-17.26-7-22.09-6.68c-4.83,.32-5.87,2.24-.58,5.86,2.64,1.81,6.06,.66,8.77,4.85,2.71,4.19-4.53,6.32,3.25,7.94,7.78,1.62,23.38-3.12,23.38-3.12Z"/>
          </g>
          <path class="cls-25" d="M80.24,51.13c-1.73-.17-3.44-.54-5.11-1.03-2.26-.65-4.45-1.55-6.49-2.55-2.92-2.85-10.68-7-11.01-10.34-.06-.73,.08-1.39,.39-1.95,2.69,2.39,9.62,8.42,12.02,9.56,2.86,1.35,13.95,4.14,18.27,4.31,.22,.02,.42,.01,.59,0,2.97-.11,4.09,3.27-8.67,2Z"/>
          <path class="cls-25" d="M85.39,59.16c-.69,.1-1.5,.18-2.36,.27h-.02c-4.84-.11-15.47-.6-17.26-2.8-2.3-2.85-11.45-7.5-11.8-11.17-.06-.56,.02-1.1,.21-1.56,2.31,2.04,10.83,9.51,13.18,10.9,2.3,1.35,12.97,2.38,17.94,3.11,.93,.13,1.64,.24,2.09,.36,1.06,.26-.04,.59-1.99,.89Z"/>
          <path class="cls-25" d="M87.38,68.61c-.25,.15-2.55,1.54-7.24,1.89-3,.22-8.76-1.76-13.72-3.94-3.49-2.81-9.75-6.49-10.04-9.51-.06-.65,.05-1.26,.29-1.79,.85,1.34,2.95,4.44,5.39,6,3.14,2.02,10.11,6.11,13.84,6.75,3.6,.6,11.02,.58,11.48,.59Z"/>
          <path class="cls-25" d="M93.34,80.87s-17.32,.04-19.64-2.82c-2.32-2.86-11.47-7.51-11.82-11.18-.06-.62,.02-1.16,.23-1.66,.36,.52,3.31,4.74,6.84,7.64,3.74,3.09,5.57,3.5,8.27,4.88,2.72,1.38,9.78,1.64,13.64,2.2,.97,.15,1.78,.34,2.44,.54l.03,.4Z"/>
        </g>
        <path class="cls-3" d="M96.66,64.61c-2.52-1.06-4.17,2.86-1.64,3.92,2.52,1.06,4.17-2.86,1.64-3.92Z"/>
        <path class="cls-3" d="M115.57,64.11c-2.52-1.06-4.17,2.86-1.64,3.92,2.52,1.06,4.17-2.86,1.64-3.92Z"/>
        <path class="cls-3" d="M101.27,46.9c-2.52-1.06-4.17,2.86-1.64,3.92,2.52,1.06,4.17-2.86,1.64-3.92Z"/>
        <path class="cls-3" d="M127.14,52.13c-2.52-1.06-4.17,2.86-1.64,3.92,2.52,1.06,4.17-2.86,1.64-3.92Z"/>
        <path class="cls-3" d="M103.07,73.84c-2.52-1.06-4.17,2.86-1.64,3.92,2.52,1.06,4.17-2.86,1.64-3.92Z"/>
        <path class="cls-3" d="M111.69,46.59c-2.52-1.06-4.17,2.86-1.64,3.92,2.52,1.06,4.17-2.86,1.64-3.92Z"/>
      </g>
      <g>
        <path class="cls-18" d="M234.79,87.53l16.95-6.44c-4.26-5.58-6.79-12.56-6.79-20.13,0-18.34,14.87-33.21,33.21-33.21s33.21,14.87,33.21,33.21-14.87,33.21-33.21,33.21c-6.3,0-12.19-1.75-17.21-4.8l-26.16-1.84Z"/>
        <circle class="cls-1" cx="278.16" cy="60.97" r="29.3"/>
        <g>
          <circle class="cls-16" cx="278.08" cy="61.68" r="25.14" transform="translate(-6.71 66.67) rotate(-13.51)"/>
          <g>
            <path class="cls-1" d="M297.91,61.62s-18.23-27.35-40.11,0c0,0,19.01,24.09,39.07,1.43l1.04-1.43Z"/>
            <path class="cls-33" d="M268.9,61.19c0,5.08,4.12,9.2,9.2,9.2s9.2-4.12,9.2-9.2-4.12-9.2-9.2-9.2-9.2,4.12-9.2,9.2Z"/>
            <path class="cls-4" d="M273.72,61.19c0,2.42,1.96,4.39,4.39,4.39s4.39-1.96,4.39-4.39-1.96-4.39-4.39-4.39-4.39,1.96-4.39,4.39Z"/>
            <path class="cls-1" d="M284.65,57.64c.96,.62,1.62,1.62,1.75,2.74,.05,.19,.06,.37,.02,.55,0,.01,0,.03,0,.04-.04,.69-.57,1.28-1.28,1.28-.65,0-1.28-.55-1.28-1.22-.32-.54-.64-1.09-.97-1.63-.64-1.08,.66-2.46,1.76-1.76Z"/>
            <path class="cls-1" d="M280.98,54.47c1.65,0,1.66,2.57,0,2.57s-1.66-2.57,0-2.57Z"/>
            <path class="cls-12" d="M290.53,68.48s.69,2.08-.61,3.73c-1.3,1.65-3.3,1.04-4.25,2.6-.96,1.56,1.3,1.91-.78,4.6s-.09,2-.43,3.39c-.35,1.39-3.39,2.26-3.73-.09-.35-2.34,1.65-3.04,.52-4.6-1.13-1.56-.09-4.08-3.21-4.08s-7.73-3.13-10.25-2.08c-2.52,1.04-7.55-7.64-7.55-7.64,0,0,14.59,13.81,30.3,4.17Z"/>
            <path class="cls-1" d="M283.91,82.52s-1.11,2.15-2.6,.52c0,0,1.04,.72,2.6-.52Z"/>
            <path class="cls-1" d="M268.22,70.99s-2.93-.98-5.14-3.45c0,0,2.54,4.36,5.14,3.45Z"/>
            <polygon class="cls-18" points="287.36 58.7 290.04 57.71 289.96 57.69 292.77 59.65 292.77 59.66 292.78 59.66 295.48 59.97 292.79 59.58 292.81 59.59 290.06 57.55 290.03 57.53 289.98 57.54 287.28 58.46 287.36 58.7"/>
            <polygon class="cls-18" points="292.67 59.66 293.25 61.46 293.26 61.41 292.18 62.92 293.36 61.48 293.38 61.46 293.37 61.43 292.91 59.59 292.67 59.66"/>
            <g>
              <polygon class="cls-18" points="269.04 65.58 266.69 64.73 266.76 64.83 266.64 62.05 266.64 61.93 266.53 61.99 263.25 63.76 263.29 63.77 261.1 61.53 263.24 63.81 263.26 63.83 263.28 63.82 266.6 62.12 266.5 62.05 266.55 64.83 266.55 64.9 266.62 64.93 268.95 65.82 269.04 65.58"/>
              <polygon class="cls-18" points="265.3 62.79 263.79 58.75 265.06 62.87 265.3 62.79"/>
            </g>
          </g>
        </g>
      </g>
    </g>
  </g>
</svg>