<?xml version="1.0" encoding="UTF-8"?>
<svg id="Layer_2" data-name="Layer 2" xmlns="http://www.w3.org/2000/svg" viewBox="0 0 96.99 96.99">
  <defs>
    <style>
      .cls-1 {
        fill: #003b7e;
      }

      .cls-2 {
        fill: #ffe500;
      }
    </style>
  </defs>
  <g id="Layer_1-2" data-name="Layer 1">
    <g>
      <circle class="cls-2" cx="48.49" cy="48.49" r="48.49"/>
      <g>
        <path class="cls-1" d="M21.87,62.08c.02,.09,.06,.17,.11,.25,1.83,4.27,4.87,7.93,8.67,10.55h.01s.02,.02,.02,.02h0c3.83,2.57,8.47,4.08,13.46,4.08,13.29,0,24.1-10.82,24.11-24.14,0-.51-.41-.92-.92-.92s-.92,.41-.92,.92c0,1.94-.25,3.81-.71,5.6l-7.59-2.47c-.27-.09-.55-.05-.79,.1l-3.24,2.11-.12,.1c-.4,.37-.84,.51-1.28,.52-.43,0-.87-.15-1.21-.43-.34-.28-.59-.66-.69-1.16l-.85-4.98v-.06c-.26-1.06-.92-2.02-1.94-2.55l-.09-.04-1.58-.62c-.65-.37-.99-1-1-1.69,0-.25,.03-.44,.09-.62,.06-.18,.16-.36,.34-.56l.02-.02c.55-.68,.81-1.5,.81-2.31,0-1.2-.57-2.4-1.64-3.15l-1.7-1.21-.02-.02c-.66-.44-1.41-.65-2.14-.65-1.37,0-2.69,.72-3.39,1.98v.02s-1.23,2.31-1.23,2.31l-.02,.05c-.15,.32-.37,.56-.65,.73-.27,.16-.6,.26-.96,.27l-4.71-.95c-.07-.01-.12-.02-.18-.02-.47,0-.89-.15-1.22-.4-.32-.25-.55-.58-.64-1v-.03s-.87-3.29-.87-3.29c.38-.44,.77-.88,1.19-1.29,4.04-4.04,9.61-6.53,15.77-6.53,2.36,0,4.64,.37,6.78,1.06,.48,.16,1-.11,1.16-.59,.16-.48-.11-1-.59-1.16-2.32-.74-4.78-1.14-7.34-1.14-13.32,0-24.14,10.82-24.14,24.11,0,3.07,.56,5.98,1.64,8.68v.07c.08,.17,.16,.32,.22,.49h0Zm1.89-.25l1.55-3.43c.25-.53,.62-.93,1.06-1.21,.44-.28,.95-.42,1.45-.42,.77,0,1.47,.29,2.05,.94h0c.89,1.01,2.16,1.56,3.46,1.56h1.74c.78,0,1.46,.31,1.96,.82,.5,.5,.8,1.19,.81,1.94,0,.09,0,.19-.01,.29l-.22,2.19c-.19,1.84-1.23,3.48-2.82,4.43l-3.53,2.11c-3.25-2.36-5.87-5.53-7.49-9.21h0Zm2.01-21.59l.5,1.92h0c.19,.83,.67,1.54,1.31,2.03,.61,.47,1.37,.73,2.18,.76l4.8,.97c.07,.01,.12,.02,.18,.02,.71,0,1.39-.18,1.98-.54,.57-.34,1.05-.86,1.35-1.5h0s1.21-2.29,1.21-2.29c.36-.65,1.06-1.03,1.78-1.03,.38,0,.76,.11,1.11,.34l1.68,1.2h0c.57,.41,.87,1.04,.87,1.65,0,.42-.13,.82-.4,1.16h0c-.3,.35-.52,.74-.66,1.14-.14,.41-.19,.82-.19,1.22,0,1.33,.71,2.64,1.98,3.32l.1,.05,1.59,.62c.5,.28,.81,.7,.97,1.32l.84,4.94h0c.17,.95,.68,1.74,1.34,2.28,.67,.54,1.5,.83,2.36,.83,.84,0,1.7-.3,2.41-.91h0s2.88-1.87,2.88-1.87l7.2,2.34c-1.12,3.19-2.94,6.06-5.28,8.4-4.04,4.04-9.6,6.54-15.74,6.54-4.08,0-7.9-1.1-11.18-2.99l2.76-1.65c2.08-1.25,3.46-3.4,3.7-5.82l.22-2.19c.02-.16,.02-.31,.02-.47,0-1.25-.51-2.41-1.34-3.24-.83-.83-1.99-1.36-3.26-1.36h-1.74c-.79,0-1.55-.33-2.08-.94h0c-.91-1.04-2.17-1.57-3.43-1.56-.85,0-1.69,.24-2.43,.7-.73,.46-1.36,1.14-1.75,1.99h0s-.8,1.77-.8,1.77c-.65-2.07-1-4.25-1-6.56,0-4.68,1.46-9.02,3.93-12.6h0Z"/>
        <path class="cls-1" d="M44.93,40.61h0s0,0,0,0Z"/>
        <path class="cls-1" d="M75.85,20.73h0s0-.02,0-.02l-.02-.06-.03-.1-.04-.08-.05-.08-.06-.07-.06-.06-.07-.06-.07-.05-.08-.04-.08-.04-.09-.03-.08-.02h-.11s-.06-.02-.06-.02h-.01s-.02,0-.02,0c-1.46,.02-3.22,.31-5.09,.92-2.81,.93-5.85,2.58-8.21,5.19-2.36,2.6-4.03,6.17-4.02,10.75,0,1.82,.26,3.8,.83,5.95v.03s.05,.09,.05,.09l.03,.08,.05,.08,.05,.07,.06,.06,.07,.06,.07,.05,.08,.05c-1.07,1.09-2.12,2.1-3.13,3.05-.37,.35-.39,.93-.04,1.3,.35,.37,.93,.39,1.3,.04,1.17-1.09,2.4-2.27,3.65-3.58,2.4,1.01,4.51,1.49,6.37,1.49,1.86,0,3.48-.48,4.8-1.36,.99-.65,1.81-1.51,2.48-2.51,1-1.49,1.66-3.29,2.08-5.23,.42-1.94,.6-4.04,.6-6.16,0-3.37-.45-6.78-1.14-9.69h0Zm-2.56,19.18c-.65,1.23-1.47,2.2-2.48,2.87-1.02,.67-2.24,1.05-3.79,1.05-1.4,0-3.07-.33-5.03-1.09,2.11-2.34,4.24-5.09,6.18-8.44,.25-.44,.11-1-.33-1.26-.44-.25-1-.11-1.26,.33-2,3.44-4.19,6.22-6.37,8.59l-.1-.05c-.46-1.84-.67-3.53-.67-5.07,0-2.75,.65-5.03,1.7-6.93,1.57-2.85,4.06-4.87,6.67-6.18,2.27-1.15,4.63-1.73,6.42-1.87,.56,2.61,.93,5.62,.93,8.55,0,3.58-.55,7.04-1.85,9.49h0Z"/>
      </g>
    </g>
  </g>
</svg>