<?xml version="1.0" encoding="UTF-8"?>
<svg id="Layer_2" data-name="Layer 2" xmlns="http://www.w3.org/2000/svg" viewBox="0 0 96.99 96.99">
  <defs>
    <style>
      .cls-1 {
        fill: #ffe500;
      }

      .cls-2 {
        fill: #003b7e;
        stroke: #003b7e;
        stroke-miterlimit: 10;
        stroke-width: .5px;
      }
    </style>
  </defs>
  <g id="Layer_1-2" data-name="Layer 1">
    <g>
      <circle class="cls-1" cx="48.49" cy="48.49" r="48.49"/>
      <path class="cls-2" d="M48.63,19.13s-.05,0-.07,0c-.02,0-.04-.01-.06-.01s-.04,.01-.06,.01c-.02,0-.05,0-.07,0-.29,.05-29.25,5.57-29.25,30.94,0,11.82,6.25,22.44,16.3,27.72,.21,.11,.47,.11,.68,0,.21-.11,.36-.32,.39-.56,1.31-10.82,6.36-18.67,12-18.67s10.69,7.85,12,18.67c.03,.24,.17,.45,.39,.56,.11,.06,.22,.08,.34,.08s.23-.03,.34-.08c10.06-5.28,16.3-15.9,16.3-27.72,0-25.11-28.95-30.88-29.24-30.94h0Zm-13.45,56.85c-9.03-5.18-14.59-15-14.59-25.91,0-21.72,22.46-28.19,27.17-29.31v9.93c-10.67,1.47-15.26,9.39-15.45,9.73-.2,.35-.07,.8,.28,1,.11,.06,.24,.1,.36,.1,.26,0,.5-.13,.64-.37,.04-.08,4.38-7.52,14.17-8.97v12.71c-8.09,1.55-11.55,9.43-11.7,9.78-.16,.37,.01,.8,.39,.96,.09,.04,.19,.06,.29,.06,.29,0,.56-.17,.68-.45,.03-.08,3.22-7.31,10.34-8.85v10.75c-5.98,.57-11.02,8.11-12.58,18.85h0Zm26.64,0c-1.56-10.74-6.6-18.27-12.58-18.85v-10.79c7.27,1.45,10.52,8.82,10.55,8.9,.12,.28,.39,.45,.68,.45,.1,0,.19-.02,.29-.06,.37-.16,.55-.59,.39-.96-.15-.35-3.66-8.36-11.9-9.81v-12.7c9.93,1.38,14.33,8.92,14.38,9,.14,.24,.38,.37,.64,.37,.12,0,.25-.03,.36-.1,.35-.2,.48-.65,.28-1-.19-.35-4.84-8.36-15.66-9.76v-9.89c4.72,1.16,27.17,7.79,27.17,29.3,0,10.91-5.56,20.73-14.59,25.91h0Z"/>
    </g>
  </g>
</svg>