<?xml version="1.0" encoding="UTF-8"?>
<svg id="Layer_2" data-name="Layer 2" xmlns="http://www.w3.org/2000/svg" viewBox="0 0 216 146">
  <defs>
    <style>
      .cls-1 {
        fill: #003b7e;
      }

      .cls-2 {
        fill: #ffe500;
      }

      .cls-3 {
        fill: #f2f2f2;
      }
    </style>
  </defs>
  <g id="Layer_1-2" data-name="Layer 1">
    <g>
      <rect class="cls-3" y="24.5" width="216" height="101"/>
      <circle class="cls-2" cx="108" cy="73" r="73"/>
      <path class="cls-1" d="M148.92,64.14l-7-1.28c-.7-2.67-1.72-5.14-3.12-7.49l4.14-5.91c1.35-1.72,1.23-4.23-.35-6.03l-5.67-5.77c-1.65-1.5-4.25-1.63-5.87-.34l-6,4.4c-2.25-1.22-4.64-2.25-7.24-3.12l-1.26-7.2c-.34-2.27-2.24-3.86-4.62-3.86h-8.11c-2.31,0-4.25,1.61-4.61,3.82l-1.26,7.17c-2.56,.71-5.05,1.81-7.44,3.28l-5.83-4.14c-1.84-1.31-4.33-1.08-5.92,.54l-5.6,5.71c-1.39,1.41-1.86,4.21-.36,6.02l4.19,6.09c-1.35,2.55-2.36,5.04-3.01,7.41l-6.98,1.06-.12,.02c-2.24,.53-3.69,2.35-3.69,4.65v8.38c0,2.22,1.47,4.09,3.66,4.64l7.39,1.21c.86,2.94,1.82,5.32,2.98,7.35l-3.86,5.86c-1.22,1.78-1.08,4.26,.35,5.89l2.9,2.84,2.76,2.94c.84,.86,2.09,1.37,3.33,1.37h0c1.03,0,1.98-.36,2.68-1.02l5.88-4.21c2.28,1.32,4.73,2.34,7.29,3.05l1.25,7.13c.34,2.27,2.24,3.86,4.62,3.86h8.11c2.31,0,4.25-1.61,4.61-3.83l1.26-7.38c2.61-.67,4.97-1.82,7.01-2.96l5.83,4.32c1.92,1.24,4.38,1.05,5.86-.45l5.6-5.71c1.65-1.68,1.86-4.36,.48-6.02l-4.18-5.96c1.26-2.34,2.21-4.7,2.99-7.44l6.88-1.28c2.27-.36,3.92-2.32,3.92-4.67v-8.26c0-2.28-1.67-4.29-3.89-4.67h0Zm.82,12.93c0,.85-.54,1.52-1.37,1.65l-8.82,1.64-.25,.94c-.85,3.23-1.91,5.85-3.43,8.5l-.48,.84,5.33,7.6,.1,.13c.39,.44,.24,1.38-.3,1.93l-5.6,5.71c-.45,.46-1.33,.47-1.93,.09l-7.36-5.46-.87,.5c-2.28,1.32-5.02,2.74-8,3.35l-1.03,.21-1.61,9.43c-.12,.72-.8,1.26-1.59,1.26h-8.11c-.67,0-1.44-.33-1.59-1.28l-1.6-9.13-.97-.24c-2.94-.72-5.72-1.88-8.26-3.46l-.87-.54-7.63,5.46-.2,.17c-.14,.14-.34,.21-.6,.21-.41,0-.88-.19-1.12-.43l-2.79-2.96-2.81-2.74c-.47-.58-.52-1.49-.08-2.12l4.95-7.5-.52-.84c-1.35-2.16-2.43-4.81-3.4-8.34l-.26-.95-9.12-1.48c-.79-.22-1.29-.87-1.29-1.66v-8.38c0-.86,.45-1.44,1.27-1.65l8.94-1.36,.24-1.01c.63-2.66,1.78-5.51,3.43-8.48l.46-.83-5.31-7.71-.1-.14c-.37-.42-.27-1.47,.18-1.93l5.6-5.71c.53-.54,1.35-.62,1.95-.19l7.53,5.35,.88-.58c2.65-1.76,5.45-3,8.32-3.67l.98-.23,1.61-9.15c.12-.72,.8-1.27,1.59-1.27h8.11c.67,0,1.44,.33,1.59,1.28l1.59,9.06,.89,.28c3.09,.97,5.83,2.16,8.4,3.63l.87,.5,7.65-5.61c.48-.38,1.43-.3,1.89,.11l5.54,5.64c.46,.53,.68,1.43,.14,2.12l-5.36,7.65,.55,.87c1.66,2.59,2.8,5.34,3.49,8.38l.22,.99,8.98,1.64h.02c.65,.11,1.35,.77,1.35,1.65v8.26h0Zm-41.74-29.45c-14,0-25.38,11.39-25.38,25.38s11.39,25.38,25.38,25.38,25.38-11.39,25.38-25.38-11.39-25.38-25.38-25.38h0Zm16.82,40.03l-2.66-2.66-2.17,2.17,2.66,2.66c-3.56,3.11-8.11,5.1-13.11,5.44v-3.78h-3.07v3.78c-5-.34-9.55-2.34-13.11-5.44l2.66-2.66-2.17-2.17-2.66,2.66c-3.11-3.56-5.1-8.11-5.44-13.11h3.78v-3.07h-3.78c.34-5,2.34-9.55,5.44-13.11l2.66,2.66,2.17-2.17-2.66-2.66c3.56-3.11,8.11-5.1,13.11-5.44v3.78h3.07v-3.78c5,.34,9.55,2.34,13.11,5.44l-2.66,2.66,2.17,2.17,2.66-2.66c3.11,3.56,5.1,8.11,5.44,13.11h-3.78v3.07h3.78c-.34,5-2.34,9.55-5.44,13.11h0Zm-15.28-19.32v-10.06h-3.07v10.06c-1.97,.65-3.41,2.49-3.41,4.68,0,2.73,2.22,4.94,4.94,4.94,2.19,0,4.03-1.44,4.68-3.41h6.5v-3.07h-6.5c-.49-1.49-1.66-2.65-3.14-3.14h0Zm-1.53,6.56c-1.04,0-1.88-.84-1.88-1.88s.84-1.88,1.88-1.88,1.88,.84,1.88,1.88-.84,1.88-1.88,1.88Z"/>
    </g>
  </g>
</svg>