<?xml version="1.0" encoding="UTF-8"?>
<svg id="Layer_2" data-name="Layer 2" xmlns="http://www.w3.org/2000/svg" viewBox="0 0 96.99 96.99">
  <defs>
    <style>
      .cls-1 {
        fill: #ffe500;
      }

      .cls-2 {
        fill: #003b7e;
        stroke: #003b7e;
        stroke-miterlimit: 10;
        stroke-width: .5px;
      }
    </style>
  </defs>
  <g id="Layer_1-2" data-name="Layer 1">
    <g>
      <circle class="cls-1" cx="48.49" cy="48.49" r="48.49"/>
      <path class="cls-2" d="M76.27,29.71c-2.12-3.79-5.24-6.55-8.32-7.43-5.34-1.52-14.04,3.84-16.09,5.18-3.08-3.2-6.93-5.55-11.18-6.83-6.99-1.92-12.61-.47-17.67,4.6-4.75,4.75-2.56,13.1-2.1,14.65-5.66,10.46-1.3,21.78,.15,24.25,2.2,3.67,9.63,10.47,23.51,12.66,1.51,.25,3.03,.37,4.56,.38,13.2,0,17.77-10.28,18.79-13.15,1.86-1.72,9.26-13.45,10.65-20.71,.86-4.66,.04-9.48-2.3-13.6h0Zm-17.96,2.69c-13.76-2.01-20.22,4.43-21.45,5.81-3.08-.07-6.17,.04-9.24,.32,2.37-3.16,10.65-12.55,21.71-9.72,3.14,.78,6.16,1.99,8.98,3.58h0Zm-34.46-6.33c4.79-4.79,9.89-6.12,16.52-4.29h0c3.88,1.18,7.41,3.3,10.28,6.16-.34-.1-.68-.19-1.04-.28-5.98-1.53-11.15,.27-15.14,2.85l-1.36-4.1c-.04-.16-.14-.3-.29-.38-.14-.08-.32-.1-.47-.04s-.28,.17-.35,.32-.07,.32,0,.47l1.46,4.41c-2.87,2.08-5.38,4.62-7.44,7.51-1.9,.21-3.31,.43-4.05,.56-.51-1.94-2.1-9.2,1.88-13.18h0Zm28.33,49.6c-2.22-1-4.22-2.41-5.92-4.15,3.89-1.04,7.85-4,11.82-8.85,.22-.25,.19-.64-.06-.85-.25-.22-.64-.19-.85,.06-4.03,4.93-8,7.81-11.86,8.61-1.33-1.48-2.54-3.07-3.62-4.75,2.06-.79,7.34-3.45,7.34-10.89,0-.33-.27-.59-.59-.59s-.59,.27-.59,.59c0,7.17-5.25,9.38-6.8,9.87-3.46-5.85-6.12-12.13-7.91-18.68-.08-.32-.4-.51-.72-.43-.32,.08-.51,.4-.43,.72,1.21,4.44,2.8,8.78,4.75,12.95,.49,1.06,1,2.07,1.52,3.05-5.25-.55-8.49-5.13-8.52-5.18h0c-.19-.27-.56-.34-.83-.15-.27,.19-.34,.56-.15,.83,.16,.23,3.9,5.54,10.18,5.73,1.4,2.53,3.05,4.92,4.93,7.12h-.76c-2.85-.04-5.57-1.25-7.51-3.35-.21-.25-.59-.28-.84-.07-.25,.21-.28,.58-.08,.83,2.16,2.38,5.21,3.75,8.42,3.77,.58,0,1.15-.05,1.72-.13,1.51,1.6,3.23,2.97,5.13,4.07-1.74,.1-3.49,.02-5.22-.24-16.86-2.69-22.45-11.74-22.68-12.13-1.41-2.37-5.54-13.09-.15-23.05,2.37-.42,19.94-3.22,31.68,2.37,9.63,4.56,15.14,15.03,13.27,20.57-2.83,8.78-9.34,11.59-14.64,12.36h0Zm16.25-14.98c-.17-6.26-5.54-14.8-14.3-18.98-4.8-2.27-10.43-3.16-15.65-3.48,2.33-2.13,9.37-7.03,22.44-4.2h0c3.08,2.11,5.62,4.91,7.41,8.19,.06,.12,.13,.27,.24,.46,3.17,5.92,3.12,11.95-.13,18.02h0Zm8.98-17.54c-.79,4.36-3.71,9.97-6.22,14.15,1.29-3.93,1.22-8.18-.21-12.06,.48-5.1-.94-10.19-4-14.3-.21-.24-.58-.27-.82-.07-.25,.2-.29,.57-.09,.82,2.34,3.22,3.67,7.06,3.82,11.03-.09-.18-.17-.36-.27-.53-.09-.17-.17-.31-.21-.41-.47-.98-4.75-9.17-16.94-13.26,1.83-1.19,10.32-6.45,15.17-5.07,5.24,1.46,11.65,9.86,9.78,19.7h0Z"/>
    </g>
  </g>
</svg>