<?xml version="1.0" encoding="UTF-8"?>
<svg id="Layer_2" data-name="Layer 2" xmlns="http://www.w3.org/2000/svg" viewBox="0 0 96.99 96.99">
  <defs>
    <style>
      .cls-1 {
        fill: #ffe500;
      }

      .cls-2 {
        fill: #003b7e;
        stroke: #003b7e;
        stroke-miterlimit: 10;
        stroke-width: .5px;
      }
    </style>
  </defs>
  <g id="Layer_1-2" data-name="Layer 1">
    <g>
      <circle class="cls-1" cx="48.49" cy="48.49" r="48.49"/>
      <path class="cls-2" d="M53.09,18.95c-1.19-1.89-2.82-2.94-4.59-2.94s-3.4,1.04-4.59,2.94l-19.67,31.26c-1.2,1.91-1.42,3.76-.62,5.21,.8,1.45,2.48,2.25,4.74,2.25h15.31v21.6h-5.18v1.71h20.02v-1.71h-5.18v-21.6s15.31,0,15.31,0c2.26,0,3.94-.8,4.74-2.25,.8-1.45,.58-3.3-.62-5.21l-19.67-31.26Zm-1.47,60.32h-6.24v-21.6h6.24v21.6Zm20.27-24.68c-.48,.87-1.66,1.36-3.25,1.36H28.35c-1.58,0-2.77-.5-3.25-1.36-.48-.87-.27-2.13,.57-3.47l19.67-31.26c.87-1.38,1.98-2.14,3.14-2.14s2.28,.76,3.14,2.14l19.67,31.26c.84,1.34,1.05,2.61,.57,3.47h0Z"/>
    </g>
  </g>
</svg>