<?xml version="1.0" encoding="UTF-8"?>
<svg id="Layer_2" data-name="Layer 2" xmlns="http://www.w3.org/2000/svg" viewBox="0 0 216 146">
  <defs>
    <style>
      .cls-1 {
        fill: #003b7e;
      }

      .cls-2 {
        fill: #ffe500;
      }

      .cls-3 {
        fill: #f2f2f2;
      }
    </style>
  </defs>
  <g id="Layer_1-2" data-name="Layer 1">
    <g>
      <rect class="cls-3" y="24.5" width="216" height="101"/>
      <circle class="cls-2" cx="108" cy="73" r="73"/>
      <g>
        <path class="cls-1" d="M133.26,30.36c-.44-.44-1.1-.44-1.54,0l-18.68,18.68c-4.18,4.18-4.4,10.99-.44,15.38l-6.59,6.04-6.92-6.26c4.29-6.37,3.63-15.16-2.09-20.77-6.15-6.15-23.41-13.41-30-6.7-6.59,6.59,.66,23.96,6.7,30,3.19,3.19,7.47,4.84,11.65,4.84,3.19,0,6.37-.88,9.12-2.75l6.04,6.59-5.71,5.27-.77-.77c-.44-.44-1.1-.44-1.54,0l-24.94,24.94c-2.53,2.53-2.53,6.7,0,9.23,1.32,1.32,2.97,1.87,4.62,1.87s3.3-.66,4.62-1.87l25.05-25.05c.44-.44,.44-1.1,0-1.54l-.77-.77,5.06-5.49,4.94,5.38-.77,.77c-.22,.22-.33,.44-.33,.77s.11,.55,.33,.77l25.05,25.05c1.21,1.21,2.86,1.87,4.62,1.87s3.41-.66,4.62-1.87,1.87-2.86,1.87-4.62-.66-3.41-1.87-4.62l-25.27-25.06c-.44-.44-1.1-.44-1.54,0l-.77,.77-5.6-5.16,5.82-6.37c2.09,1.87,4.84,2.86,7.47,2.86,2.86,0,5.71-1.1,7.91-3.3l18.68-18.68c.44-.44,.44-1.1,0-1.54l-18.02-17.91Zm-38.24,35.27c-5.6,5.06-14.29,4.84-19.67-.55-5.49-5.49-12.2-21.54-6.7-26.92,1.43-1.43,3.63-1.98,6.04-1.98,7.03,0,16.81,4.72,20.88,8.79,5.38,5.38,5.49,14.07,.55,19.67l-1.1,.99Zm-19.78,46.92c-1.65,1.65-4.4,1.65-6.15,0-1.65-1.65-1.65-4.4,0-6.15l24.28-24.28,6.15,6.15-24.28,24.28Zm24.28-27.47l-2.97-2.97,5.6-5.16,2.31,2.53-4.94,5.6Zm19.01-2.97l24.28,24.28c.77,.77,1.32,1.87,1.32,3.08s-.44,2.2-1.32,3.08c-1.65,1.65-4.51,1.65-6.15,0l-24.18-24.39,6.04-6.04Zm-3.08,0l-2.97,2.97-5.6-6.15-3.74-4.07-6.7-7.25,.22-.22c.22-.22,.33-.33,.55-.55,.22-.22,.33-.33,.55-.55l.22-.22,7.47,6.81,3.74,3.52,6.26,5.71Zm-5.71-8.24l-2.09-1.87,6.37-5.93,1.43,1.43-5.71,6.37Zm21.32-6.81c-3.52,3.52-9.23,3.52-12.75,0l-3.63-3.63c-3.52-3.52-3.52-9.23,0-12.75l17.8-18.02,16.48,16.48-17.91,17.91Z"/>
        <path class="cls-1" d="M131.39,41.02l-13.3,13.41c-.44,.44-.44,1.1,0,1.54,.22,.22,.55,.33,.77,.33s.55-.11,.77-.33l13.41-13.41c.44-.44,.44-1.1,0-1.54-.44-.44-1.21-.44-1.65,0h0Z"/>
        <path class="cls-1" d="M121.83,59.7c.22,.22,.55,.33,.77,.33s.55-.11,.77-.33l13.41-13.41c.44-.44,.44-1.1,0-1.54-.44-.44-1.1-.44-1.54,0l-13.41,13.41c-.44,.44-.44,1.1,0,1.54Z"/>
        <path class="cls-1" d="M125.57,63.44c.22,.22,.55,.33,.77,.33s.55-.11,.77-.33l13.41-13.41c.44-.44,.44-1.1,0-1.54-.44-.44-1.1-.44-1.54,0l-13.41,13.41c-.44,.44-.44,1.1,0,1.54h0Z"/>
        <path class="cls-1" d="M74.03,107.69c.6,.6,.6,1.58,0,2.18-.6,.6-1.58,.6-2.18,0-.6-.6-.6-1.58,0-2.18,.6-.6,1.57-.6,2.18,0"/>
        <path class="cls-1" d="M140.18,107.6c.6,.6,.6,1.58,0,2.18s-1.57,.6-2.18,0-.6-1.58,0-2.18c.6-.6,1.57-.6,2.18,0"/>
        <path class="cls-1" d="M92.05,60.47c.6,.6,.6,1.58,0,2.18s-1.58,.6-2.18,0c-.6-.6-.6-1.58,0-2.18,.6-.6,1.58-.6,2.18,0"/>
        <path class="cls-1" d="M93.91,52.22c.6,.6,.6,1.57,0,2.18-.6,.6-1.58,.6-2.18,0-.6-.6-.6-1.58,0-2.18,.6-.6,1.58-.6,2.18,0"/>
        <path class="cls-1" d="M89.26,46.52c.6,.6,.6,1.57,0,2.18s-1.58,.6-2.18,0c-.6-.6-.6-1.57,0-2.18,.6-.6,1.57-.6,2.18,0"/>
        <path class="cls-1" d="M86.88,55.32c.6,.6,.6,1.57,0,2.18s-1.57,.6-2.18,0-.6-1.57,0-2.18,1.57-.6,2.18,0"/>
        <path class="cls-1" d="M81.84,50.22c.6,.6,.6,1.57,0,2.18s-1.58,.6-2.18,0c-.6-.6-.6-1.58,0-2.18,.6-.6,1.57-.6,2.18,0"/>
        <path class="cls-1" d="M81.36,42.72c.6,.6,.6,1.58,0,2.18-.6,.6-1.57,.6-2.18,0-.6-.6-.6-1.58,0-2.18s1.58-.6,2.18,0"/>
        <path class="cls-1" d="M85.35,62.02c.6,.6,.6,1.58,0,2.18-.6,.6-1.57,.6-2.18,0-.6-.6-.6-1.58,0-2.18s1.57-.6,2.18,0"/>
        <path class="cls-1" d="M79.09,57.71c.6,.6,.6,1.58,0,2.18-.6,.6-1.58,.6-2.18,0-.6-.6-.6-1.58,0-2.18,.6-.6,1.58-.6,2.18,0"/>
        <path class="cls-1" d="M75.44,50.67c.6,.6,.6,1.57,0,2.18-.6,.6-1.58,.6-2.18,0-.6-.6-.6-1.58,0-2.18,.6-.6,1.58-.6,2.18,0"/>
        <path class="cls-1" d="M73.87,41.89c.6,.6,.6,1.57,0,2.18s-1.58,.6-2.18,0c-.6-.6-.6-1.57,0-2.18,.6-.6,1.57-.6,2.18,0"/>
      </g>
    </g>
  </g>
</svg>