<?xml version="1.0" encoding="UTF-8"?>
<svg id="Layer_2" data-name="Layer 2" xmlns="http://www.w3.org/2000/svg" viewBox="0 0 385 136.18">
  <defs>
    <style>
      .cls-1 {
        fill: #fff;
      }

      .cls-2 {
        fill: #d8d8d8;
      }

      .cls-3 {
        fill: #fde875;
      }

      .cls-4 {
        fill: #ffa748;
      }

      .cls-5 {
        fill: #4ec4a5;
      }

      .cls-6 {
        fill: #dd7e00;
      }

      .cls-7 {
        fill: #e21a37;
      }

      .cls-8 {
        fill: #e25c27;
      }

      .cls-9 {
        fill: #ff6c81;
      }

      .cls-10 {
        fill: #2fa583;
      }

      .cls-11 {
        fill: #444;
      }

      .cls-12 {
        fill: #ce5119;
      }

      .cls-13 {
        fill: #8c2b00;
      }

      .cls-14 {
        fill: #a83800;
      }

      .cls-15 {
        fill: #ff9843;
      }

      .cls-16 {
        fill: #2c3a64;
      }

      .cls-17 {
        fill: #494949;
      }

      .cls-18 {
        fill: #ffa31d;
      }

      .cls-19 {
        fill: #c1c1c1;
      }

      .cls-20 {
        fill: #e8e8e8;
      }

      .cls-21 {
        fill: #2d2d2d;
      }

      .cls-22 {
        fill: #892a00;
      }

      .cls-23 {
        fill: #ed7d2b;
      }

      .cls-24 {
        fill: #606060;
      }

      .cls-25 {
        fill: #ff364a;
      }

      .cls-26 {
        fill: #ffb680;
      }

      .cls-27 {
        fill: #c6c6c6;
      }

      .cls-28 {
        fill: #ed8a40;
      }

      .cls-29 {
        fill: #3c3c3c;
      }
    </style>
  </defs>
  <g id="Layer_1-2" data-name="Layer 1">
    <g>
      <g>
        <g>
          <g>
            <g>
              <path class="cls-28" d="M56.17,33.01c.73-.15,2.22-1.35,2.47-2.03-.36-1.64-.12-4.29-.12-4.29l-5.46-.84s-.19,3.63-.49,5.22c.32,1.06,2.09,2.26,3.6,1.95Z"/>
              <g>
                <path class="cls-26" d="M62.62,20.56c-.18-.84-1.03-.72-1.33-.65-.4-3.56-2.45-6.21-5.24-6.31-2.85-.1-5.09,2.31-5.69,5.92-.28-.09-1.14-.29-1.38,.55-.29,1,.16,2.54,1.29,2.96,0,0,0,0,.01,0,.07,.64,.21,1.25,.43,1.79,1.11,2.65,3.23,4.68,4.76,4.74,1.57,.06,3.65-1.73,4.93-4.39,.25-.52,.48-1.12,.66-1.74,.02,0,.04,0,.06-.01,1.15-.34,1.72-1.84,1.5-2.86Z"/>
                <path class="cls-14" d="M57.04,15.95c-1.18,1.77-5.08,4.34-7.8,3.65-.33-2.52,1.24-5.05,2.13-6.05,2.48-2.8,7.04-2.4,8.43-.88,3,3.28,2.92,5.65,2.05,7.26-1.42,.64-4.11-2.28-4.8-3.98Z"/>
              </g>
            </g>
            <path class="cls-1" d="M73.92,51.28c-1.54-7.65-3.23-15.19-5.49-16.58-2.26-1.39-9.89-3.88-9.89-3.88l-2.94,2.18-2.94-2.18s-7.64,2.49-9.89,3.88c-2.26,1.39-3.95,8.93-5.49,16.58-.34,1.72-.75,3.64-1.18,5.56,3.72,0,6.64,1.57,6.64,1.57l2.86-12.92,1.91,12.92h16.17l1.91-12.92,2.86,12.92s2.92-1.57,6.64-1.57c-.42-1.93-.83-3.85-1.18-5.56Z"/>
            <path class="cls-2" d="M34.65,54.83l1.26,3.58s1.27-.14,2.79,.3c.84,.24,1.72,.33,2.55,1.05,1.28-.75,3.2-2.18,3.2-2.18,0,0-.93-2.86-4.16-3.67-3.23-.8-5.64,.92-5.64,.92Z"/>
            <path class="cls-2" d="M76.34,54.83l-1.26,3.58s-3.05-.34-5.37,1.69c-1.28-.75-3.17-2.52-3.17-2.52,0,0,1.28-2.63,4.52-3.43,3.23-.8,5.29,.68,5.29,.68Z"/>
            <rect class="cls-2" x="50.04" y="33.4" width="11.59" height="38.9"/>
            <rect class="cls-1" x="48.9" y="34.42" width="11.73" height="38.11"/>
            <g>
              <path class="cls-1" d="M45.67,128.03s-6.42,3.12-8.19,4.25c-1.77,1.13-1.09,2.22-1.09,2.22h12.97s.18-5.05-.18-6.14c-.36-1.09-3.5-.33-3.5-.33Z"/>
              <path class="cls-24" d="M44.52,90.3s-.26,11.8-.76,16.63c-.81,7.76-1.91,22.31-1.91,22.31h8.19s1.63-18.49,2.53-25.86c.63-5.17,1.9-13.08,1.9-13.08h-9.95Z"/>
              <rect class="cls-24" x="36.25" y="134.01" width="13.1" height=".99"/>
            </g>
            <g>
              <path class="cls-1" d="M66.22,128.03s6.42,3.12,8.19,4.25c1.77,1.13,1.09,2.22,1.09,2.22h-12.97s-.18-5.05,.18-6.14,3.5-.33,3.5-.33Z"/>
              <path class="cls-24" d="M67.37,90.3s.26,11.8,.76,16.63c.81,7.76,1.91,22.31,1.91,22.31h-8.19s-1.63-18.49-2.53-25.86c-.63-5.17-1.9-13.08-1.9-13.08h9.95Z"/>
              <rect class="cls-24" x="62.54" y="134.01" width="13.1" height=".99" transform="translate(138.18 269) rotate(180)"/>
            </g>
            <path class="cls-23" d="M68.6,78.17c-.56-9.8-4.73-19.75-4.73-19.75h-16.35s-4.17,9.95-4.73,19.75c-.56,9.8-1.51,20.34-1.51,20.34h28.82s-.94-10.54-1.51-20.34Z"/>
            <rect class="cls-15" x="49.19" y="13.59" width="13.18" height="4.91"/>
            <rect class="cls-15" x="47.35" y="57.26" width="16.71" height="1.63"/>
            <path class="cls-23" d="M51.37,16.38c-1.19,.18-3.67,.88-4.8-.34-1.13-1.21-1.82-5.21,2.62-6.41,4.44-1.2,9.7,.35,12.32,1.51,2.61,1.16,4.63,1.85,4.04,3.12s-3.18,1.27-6.49,1.06c-1.71-.11-5.99,.8-7.69,1.06Z"/>
            <path class="cls-2" d="M51.55,31.2v-2.28s4.17,1.05,4.06,4.09c-2.03-.73-4.06-1.81-4.06-1.81Z"/>
            <path class="cls-2" d="M59.66,31.2v-2.28s-4.17,1.05-4.06,4.09c2.03-.73,4.06-1.81,4.06-1.81Z"/>
            <g>
              <circle class="cls-25" cx="51.66" cy="36.18" r=".68"/>
              <path class="cls-25" d="M59.43,36.18c0,.37-.3,.68-.68,.68s-.68-.3-.68-.68,.3-.68,.68-.68,.68,.3,.68,.68Z"/>
            </g>
            <g>
              <circle class="cls-25" cx="51.66" cy="44.62" r=".68"/>
              <path class="cls-25" d="M59.43,44.62c0,.37-.3,.68-.68,.68s-.68-.3-.68-.68,.3-.68,.68-.68,.68,.3,.68,.68Z"/>
            </g>
            <g>
              <circle class="cls-25" cx="51.66" cy="54.16" r=".68"/>
              <path class="cls-25" d="M59.43,54.16c0,.37-.3,.68-.68,.68s-.68-.3-.68-.68,.3-.68,.68-.68,.68,.3,.68,.68Z"/>
            </g>
          </g>
          <circle class="cls-25" cx="17.14" cy="62.81" r="2.54"/>
          <circle class="cls-25" cx="25.67" cy="63.4" r="2.54"/>
          <g>
            <path class="cls-5" d="M24.54,69.7c2.56-2.13,6.57-7.18,7.42-9.32,.59-1.47,.25-2.36-1.12-1.98-.6,.16-1.31,1.49-1.65,1.91-.83,1.04-4.89,6.59-5.86,7.85-1.3,1.71,.32,2.28,1.21,1.54Z"/>
            <path class="cls-10" d="M30.17,60.45c.36,.14,.54-.37,.22-.55-.33-.18-.59,.4-.22,.55Z"/>
            <path class="cls-10" d="M24.22,68.34c.36,.14,.54-.37,.22-.55-.33-.18-.59,.4-.22,.55Z"/>
            <path class="cls-10" d="M28.23,63.32c.23-.31-.25-.68-.49-.36-.23,.31,.25,.68,.49,.36Z"/>
            <path class="cls-10" d="M30.34,62.38c.23-.31-.25-.68-.49-.36-.23,.31,.25,.68,.49,.36Z"/>
            <path class="cls-10" d="M28.25,65.14c.21-.29-.23-.62-.44-.33-.21,.29,.23,.62,.44,.33Z"/>
            <path class="cls-10" d="M26.54,65.76c.26-.35-.28-.75-.54-.4-.26,.35,.28,.75,.54,.4Z"/>
            <path class="cls-10" d="M25.6,68.23c.27-.36-.29-.78-.56-.42-.27,.36,.29,.78,.56,.42Z"/>
          </g>
          <g>
            <path class="cls-5" d="M18.48,57.49c-.27,3.32,.52,9.72,1.46,11.82,.64,1.45,1.51,1.83,2.2,.59,.3-.55-.15-1.98-.21-2.51-.16-1.32-1.27-8.11-1.5-9.68-.31-2.13-1.85-1.37-1.94-.22Z"/>
            <path class="cls-10" d="M21.14,67.98c-.35,.16-.11,.64,.23,.54,.36-.11,.12-.7-.23-.54Z"/>
            <path class="cls-10" d="M19.68,58.21c-.35,.16-.11,.64,.23,.54,.36-.11,.12-.7-.23-.54Z"/>
            <path class="cls-10" d="M20.45,64.59c.06,.39,.66,.29,.6-.09-.06-.39-.66-.29-.6,.09Z"/>
            <path class="cls-10" d="M19.65,66.75c.06,.39,.66,.29,.6-.09-.06-.39-.66-.29-.6,.09Z"/>
            <path class="cls-10" d="M19.14,63.32c.05,.35,.6,.27,.55-.09-.05-.35-.6-.27-.55,.09Z"/>
            <path class="cls-10" d="M19.89,61.67c.07,.43,.73,.32,.66-.1-.07-.43-.73-.32-.66,.1Z"/>
            <path class="cls-10" d="M18.79,59.27c.07,.45,.76,.34,.69-.11-.07-.45-.76-.34-.69,.11Z"/>
          </g>
          <g>
            <path class="cls-5" d="M5.41,56.04c.74-1.07,1.5-.17,1.88,.39,.09-.26,.42-.22,.57-.06,.49,.56,.87,1.11,1.18,1.75,.16-.08,.35-.09,.59-.02,.29,.08,.38,.31,.58,.53,.19,.22,.45,.91,.57,1.1,.51,.83,1.18,1.44,1.9,2.1,.06,.06,0,.16-.08,.13-.09-.03-.07,.07,.01,.16,0,0-.16,.88-.52,.64-1.94-1.35-3.48-2.59-5.97-2.47-.32,.01-.26-.27-.2-.42,.09-.2,.43-.57,.55-.68-.36,0-1.09,.04-1.45-.08-.16-.05-.36-.4,.16-.86-.83,.01-1.67-.06-2.17-.73-.27-.36-.24-.8-.07-1.01-.44-.32-.76-.78-.29-1.29,.66-.73,1.93,.17,2.75,.81Z"/>
            <path class="cls-6" d="M15.12,61.5c-.99-1.05-2.56-1.2-3.52-.3-.96,.9-.91,2.48,.07,3.53,.99,1.05,8.99,7.86,9.86,7.05,.86-.81-5.42-9.23-6.41-10.28Z"/>
          </g>
          <g>
            <path class="cls-1" d="M10.47,63.5c.22,5.07,4.96,9.12,10.79,9.12s10.57-4.05,10.79-9.12H10.47Z"/>
            <rect class="cls-2" x="17.13" y="71.9" width="8.25" height="1.06"/>
          </g>
          <g>
            <g>
              <path class="cls-15" d="M21.1,116.51c-6.51,3.66-12.77,7.74-18.67,12.29v7.38H110.76v-48.07c-31.14,4.44-62.3,13-89.66,28.4Z"/>
              <path class="cls-23" d="M2.43,75.99v52.81c5.91-4.55,12.17-8.63,18.67-12.29,27.36-15.4,58.51-23.96,89.66-28.4v-12.11H2.43Z"/>
            </g>
            <rect class="cls-8" y="73.02" width="113.19" height="2.97"/>
            <rect class="cls-13" x="2.43" y="75.99" width="108.33" height="9.68"/>
          </g>
          <g>
            <g>
              <path class="cls-19" d="M69.39,61.02s.94,2.32-3.78,3.93c-4.72,1.61-6.89,2.35-6.89,2.35l-.83-2.44,11.5-3.85Z"/>
              <path class="cls-29" d="M57.89,64.87l.83,2.44-.53,.15s-.52-1.1-1.04-1.21c-.51-.11-2.23,1.08-3.39,1.66-1.69,.85-4.31,1.75-5.81,.35,1.57-.54,7.26-2.5,9.93-3.39Z"/>
            </g>
            <path class="cls-26" d="M41.13,57.9c.48,.24,1.91,.87,4.4,2.2,2.83,1.51,6.23,3.2,7.59,3.86,2.35,1.15,2.49,1.54,3.17,2.93,.83,1.71-.56,3.43-3.17,2.37-2.6-1.06-3.5-3.51-4.39-4.06-2.14-1.31-10.11-2.51-11.03-3.15-2.13-1.49-2.03-3.64-2.03-3.64,0,0,1.82-2.33,5.46-.51Z"/>
          </g>
          <g>
            <path class="cls-26" d="M77.24,66.43s-.66,1.19-.9,1.73c-.24,.55-.63,1.86-.63,1.86h1.97s.31-2.71-.44-3.59Z"/>
            <path class="cls-5" d="M91.57,70.1c.1-1.3-1.06-1.08-1.7-.89,.1-.26-.18-.44-.4-.4-.73,.12-1.38,.31-2.02,.61-.07-.16-.21-.29-.45-.39-.27-.12-.49,0-.78,.04-.28,.05-.93,.42-1.14,.49-.92,.32-1.83,.37-2.8,.42-.09,0-.11,.13-.02,.15,.09,.03,.01,.1-.11,.12,0,0-.43,.79,0,.82,2.35,.18,4.33,.2,6.19,1.86,.24,.21,.37-.04,.42-.2,.06-.21,.02-.71,0-.88,.29,.23,.82,.72,1.18,.85,.16,.06,.53-.09,.42-.76,.63,.53,1.34,1.01,2.14,.81,.44-.11,.7-.46,.69-.74,.54,.04,1.08-.12,1.04-.82-.05-.98-1.6-1.09-2.65-1.11Z"/>
            <path class="cls-6" d="M80.6,68.19c1.43-.19,2.74,.69,2.92,2,.17,1.3-.86,2.5-2.29,2.69-1.43,.19-11.94,.4-12.09-.77-.16-1.17,10.04-3.72,11.47-3.91Z"/>
            <path class="cls-26" d="M74.49,57.55c2.23,2.52,5.64,8.27,6.6,9.76,.96,1.49,.82,3.5-.53,4.64-1.68,1.42-2.72,.39-3.02-.53-.48-1.49-.32-3.82-.79-4.9-.95-2.18-4.98-3.43-7.05-6.41-.74-1.07,.2-2.92,1.38-3.27,1.54-.45,2.84,.08,3.4,.7Z"/>
          </g>
          <rect class="cls-29" x="41.38" y="71.15" width="24.39" height="1.87"/>
          <g>
            <path class="cls-5" d="M36.16,71.13c-3.24-.78-9.68-.98-11.91-.38-1.53,.41-2.04,1.21-.92,2.08,.49,.39,1.98,.16,2.52,.18,1.33,.05,8.21,0,9.79,0,2.15,.02,1.64-1.62,.52-1.89Z"/>
            <path class="cls-10" d="M25.38,72.13c-.1-.37-.62-.21-.57,.15,.05,.38,.68,.23,.57-.15Z"/>
            <path class="cls-10" d="M35.26,72.2c-.1-.37-.62-.21-.57,.15,.05,.38,.68,.23,.57-.15Z"/>
            <path class="cls-10" d="M28.83,71.97c-.39,0-.39,.61,0,.61s.39-.61,0-.61Z"/>
            <path class="cls-10" d="M26.82,70.85c-.39,0-.39,.61,0,.61s.39-.61,0-.61Z"/>
            <path class="cls-10" d="M30.29,70.88c-.36,0-.36,.55,0,.55s.36-.55,0-.55Z"/>
            <path class="cls-10" d="M31.8,71.87c-.43,0-.43,.67,0,.67s.43-.67,0-.67Z"/>
            <path class="cls-10" d="M34.34,71.15c-.45,0-.45,.7,0,.7s.45-.7,0-.7Z"/>
          </g>
          <g>
            <g>
              <path class="cls-1" d="M102.8,69.33s-2.14,1.31-4.5-3.09c-2.36-4.39-3.45-6.41-3.45-6.41l2.27-1.22,5.68,10.72Z"/>
              <path class="cls-29" d="M97.12,58.61l-2.27,1.22-.23-.5s1-.69,1.02-1.22c.03-.53-1.43-2.02-2.2-3.07-1.12-1.52-2.43-3.96-1.3-5.67,.79,1.46,3.65,6.76,4.97,9.24Z"/>
            </g>
            <g>
              <path class="cls-1" d="M107.82,69.44s-2.59,1.58-5.44-3.73c-2.86-5.31-4.17-7.75-4.17-7.75l2.74-1.48,6.87,12.96Z"/>
              <path class="cls-29" d="M100.95,56.48l-2.74,1.48-.28-.6s1.21-.84,1.24-1.48c.03-.64-1.73-2.44-2.65-3.71-1.35-1.84-2.94-4.79-1.57-6.86,.95,1.77,4.42,8.17,6.01,11.17Z"/>
            </g>
            <polygon class="cls-14" points="97.51 68.02 97.51 73 102.8 73 98.82 67.31 97.51 68.02"/>
            <polygon class="cls-12" points="111.56 73 104 58.23 94.88 62.89 100.05 73 111.56 73"/>
          </g>
        </g>
        <path class="cls-4" d="M14.29,61.34c-.4,.01-.69,.17-.93,.49-.11,.16,.13,.32,.26,.2,.21-.2,.43-.36,.7-.47,.11-.04,.11-.22-.03-.22Z"/>
        <path class="cls-4" d="M11.74,62.27c-.11,.16-.2,.36-.22,.55-.02,.17,.21,.18,.29,.04,.32-.6,.27-1.07-.07-.59Z"/>
        <path class="cls-4" d="M14.41,62.57c-.44,.2-.61,.37-.84,.59-.14,.13,.05,.23,.21,.18,.32-.09,.54-.35,.78-.57,.11-.1-.02-.27-.16-.2Z"/>
        <path class="cls-4" d="M81.95,72.33c.23-.32,.29-.65,.18-1.04-.05-.19-.33-.1-.31,.08,.03,.29,.02,.56-.06,.84-.03,.11,.11,.22,.19,.11Z"/>
        <path class="cls-4" d="M76.23,70.66c.01-.4-.12-.7-.43-.96-.15-.12-.33,.11-.22,.24,.18,.22,.33,.46,.42,.73,.04,.11,.21,.12,.22-.01Z"/>
        <path class="cls-4" d="M73.96,71.64c.01-.4-.12-.7-.43-.96-.15-.12-.33,.11-.22,.24,.18,.23,.33,.46,.42,.73,.04,.11,.21,.12,.22-.01Z"/>
        <path class="cls-4" d="M82.78,69.74c-.06-.19-.16-.38-.3-.51-.12-.12-.28,.06-.21,.21,.28,.62,.68,.87,.51,.31Z"/>
        <path class="cls-4" d="M75.29,71.73c-.05,.19-.07,.4-.02,.59,.04,.16,.26,.1,.29-.06,.09-.67-.11-1.1-.27-.53Z"/>
        <path class="cls-4" d="M71.95,71.88c-.05,.19-.07,.4-.02,.59,.04,.16,.26,.1,.29-.06,.09-.67-.11-1.1-.27-.53Z"/>
        <path class="cls-4" d="M77.1,72.6c.11-.47,.08-.71,.04-1.02-.02-.19-.21-.1-.27,.06-.12,.31-.06,.64-.03,.97,.01,.15,.22,.15,.26,0Z"/>
      </g>
      <g>
        <g>
          <rect class="cls-29" x="116.09" y="3.52" width="70.81" height="132.66"/>
          <rect class="cls-24" x="116.09" y="103.75" width="70.81" height="1.77"/>
          <rect class="cls-24" x="116.09" y="52.07" width="70.81" height="1.77"/>
          <rect class="cls-24" x="136.53" y="61.04" width="41" height="34.22"/>
          <path class="cls-1" d="M181.99,73.83c-1.53,0-1.63,2.59-1.63,5.07s.43,8.3,.81,9.76c.38,1.46,1.25,1.46,1.63,0,.38-1.46,.81-7.28,.81-9.76s-.19-5.07-1.63-5.07Z"/>
          <rect class="cls-24" x="136.53" y="10.84" width="41" height="34.22"/>
          <path class="cls-1" d="M181.99,25c-1.53,0-1.63,2.59-1.63,5.07s.43,8.3,.81,9.76c.38,1.46,1.25,1.46,1.63,0,.38-1.46,.81-7.28,.81-9.76s-.19-5.07-1.63-5.07Z"/>
          <rect class="cls-11" x="136.53" y="87.57" width="41" height="1.06"/>
          <rect class="cls-11" x="136.53" y="37.58" width="41" height="1.06"/>
          <g>
            <path class="cls-18" d="M158.04,23.31c-3.29,.78-9.52,3.13-11.79,6.2-2.27,3.07-1.73,6.95,1.15,6.95h14.35c2.15,0,2.98-4.25,2.48-7.19-.49-2.95-2.31-6.88-6.2-5.96Z"/>
            <path class="cls-6" d="M152.12,34.54c-.85-.6-2.75-2.19-4.96-2.28-2.21-.09-1.33,2.38-.22,3.53,1.11,1.16,4.27,1.41,5.62,.88,1.35-.54,.11-1.73-.45-2.13Z"/>
            <path class="cls-6" d="M163.26,22.21s-4.61,2.39-6.63,4.85,1.78,7.18,4.54,6.94c2.76-.25,3.75-1.47,3.81-4.24,.05-2.21-.48-3.94-.11-4.89,.66-1.69,1.36-1.72,1.03-2.6-.31-.82-.59-1.25-2.64-.06Z"/>
            <path class="cls-3" d="M151.73,32.57c.69,.06,1.56,1.47,1.93,2.2,.37,.73,.64,1.96-1.24,1.97-1.88,0-2.38-.1-2.57-1-.23-1.09-.18-3.35,1.88-3.17Z"/>
            <path class="cls-3" d="M157.64,32.57c-.69,.06-1.56,1.47-1.93,2.2-.37,.73-.64,1.96,1.24,1.97,1.88,0,2.38-.1,2.57-1,.23-1.09,.18-3.35-1.88-3.17Z"/>
            <path class="cls-3" d="M143.55,33.83c.75-.31,2.22-.65,3.39-.36s2.43,1.47,1.97,1.99c-1.05,1.2-3.16,1.61-4.48,.99-2.04-.97-2.49-1.96-.88-2.62Z"/>
            <path class="cls-3" d="M160.86,34.86c.57-.58,1.79-1.47,2.98-1.65,1.19-.18,2.81,.4,2.59,1.07-.5,1.51-2.29,2.72-3.74,2.65-2.26-.1-3.06-.84-1.84-2.07Z"/>
            <path class="cls-21" d="M141.46,35.74c.12,1.03,.99,1.84,2.05,1.84h22.38c1.06,0,1.93-.81,2.05-1.84h-26.48Z"/>
            <path class="cls-1" d="M164.36,21.65l1.44,1.52,1.1-.85s2.09,.37,2.31-.71c.27-1.36-1.17-1.2-1.17-1.2,0,0,.8-1.41-.43-1.78-1.23-.37-1.59,.89-1.81,1.32-.3,.56-1.44,1.69-1.44,1.69h0Z"/>
          </g>
          <g>
            <rect class="cls-21" x="120" y="6.81" width="11.54" height="41.86"/>
            <rect class="cls-24" x="124.58" y="14.56" width="5.18" height="1.11"/>
            <rect class="cls-24" x="124.58" y="12.26" width="5.18" height="1.11"/>
            <rect class="cls-24" x="121.78" y="14.56" width="1.67" height="1.11"/>
            <rect class="cls-24" x="121.78" y="12.26" width="1.67" height="1.11"/>
            <rect class="cls-24" x="121.78" y="19.21" width="7.98" height="20.48"/>
            <rect class="cls-21" x="125.09" y="37.57" width="3.92" height=".35"/>
            <rect class="cls-21" x="125.09" y="35.33" width="3.92" height=".35"/>
            <rect class="cls-21" x="125.09" y="33.07" width="3.92" height=".35"/>
            <rect class="cls-21" x="122.77" y="30.69" width="6.24" height=".37"/>
            <rect class="cls-21" x="122.77" y="24.46" width="6.24" height=".37"/>
            <g>
              <rect class="cls-1" x="127.63" y="28.29" width="1.37" height="1.11"/>
              <rect class="cls-1" x="125.09" y="28.29" width="1.37" height="1.11"/>
              <rect class="cls-1" x="122.77" y="28.29" width="1.37" height="1.11"/>
              <rect class="cls-1" x="127.63" y="26.08" width="1.37" height="1.11"/>
              <rect class="cls-1" x="125.09" y="26.08" width="1.37" height="1.11"/>
              <rect class="cls-1" x="122.77" y="26.08" width="1.37" height="1.11"/>
            </g>
            <g>
              <rect class="cls-1" x="127.63" y="22.3" width="1.37" height="1.11"/>
              <rect class="cls-1" x="125.09" y="22.3" width="1.37" height="1.11"/>
              <rect class="cls-1" x="122.77" y="22.3" width="1.37" height="1.11"/>
              <rect class="cls-1" x="127.63" y="20.09" width="1.37" height="1.11"/>
              <rect class="cls-1" x="125.09" y="20.09" width="1.37" height="1.11"/>
              <rect class="cls-1" x="122.77" y="20.09" width="1.37" height="1.11"/>
            </g>
            <path class="cls-1" d="M124.04,37.75c0,.32-.26,.58-.58,.58s-.58-.26-.58-.58,.26-.58,.58-.58,.58,.26,.58,.58Z"/>
            <path class="cls-1" d="M124.04,35.51c0,.32-.26,.58-.58,.58s-.58-.26-.58-.58,.26-.58,.58-.58,.58,.26,.58,.58Z"/>
            <path class="cls-1" d="M124.04,33.25c0,.32-.26,.58-.58,.58s-.58-.26-.58-.58,.26-.58,.58-.58,.58,.26,.58,.58Z"/>
            <circle class="cls-1" cx="125.77" cy="44.28" r="1.85"/>
            <rect class="cls-9" x="121.78" y="8.56" width="7.98" height="1.27"/>
          </g>
          <g>
            <rect class="cls-21" x="120" y="57.22" width="11.54" height="41.86"/>
            <rect class="cls-24" x="124.58" y="64.97" width="5.18" height="1.11"/>
            <rect class="cls-24" x="124.58" y="62.66" width="5.18" height="1.11"/>
            <rect class="cls-24" x="121.78" y="64.97" width="1.67" height="1.11"/>
            <rect class="cls-24" x="121.78" y="62.66" width="1.67" height="1.11"/>
            <rect class="cls-24" x="121.78" y="69.62" width="7.98" height="20.48"/>
            <rect class="cls-21" x="125.09" y="87.98" width="3.92" height=".35"/>
            <rect class="cls-21" x="125.09" y="85.74" width="3.92" height=".35"/>
            <rect class="cls-21" x="125.09" y="83.48" width="3.92" height=".35"/>
            <rect class="cls-21" x="122.77" y="81.09" width="6.24" height=".37"/>
            <rect class="cls-21" x="122.77" y="74.87" width="6.24" height=".37"/>
            <g>
              <rect class="cls-1" x="127.63" y="78.7" width="1.37" height="1.11"/>
              <rect class="cls-1" x="125.09" y="78.7" width="1.37" height="1.11"/>
              <rect class="cls-1" x="122.77" y="78.7" width="1.37" height="1.11"/>
              <rect class="cls-1" x="127.63" y="76.49" width="1.37" height="1.11"/>
              <rect class="cls-1" x="125.09" y="76.49" width="1.37" height="1.11"/>
              <rect class="cls-1" x="122.77" y="76.49" width="1.37" height="1.11"/>
            </g>
            <g>
              <rect class="cls-1" x="127.63" y="72.71" width="1.37" height="1.11"/>
              <rect class="cls-1" x="125.09" y="72.71" width="1.37" height="1.11"/>
              <rect class="cls-1" x="122.77" y="72.71" width="1.37" height="1.11"/>
              <rect class="cls-1" x="127.63" y="70.5" width="1.37" height="1.11"/>
              <rect class="cls-1" x="125.09" y="70.5" width="1.37" height="1.11"/>
              <rect class="cls-1" x="122.77" y="70.5" width="1.37" height="1.11"/>
            </g>
            <path class="cls-1" d="M124.04,88.16c0,.32-.26,.58-.58,.58s-.58-.26-.58-.58,.26-.58,.58-.58,.58,.26,.58,.58Z"/>
            <path class="cls-1" d="M124.04,85.92c0,.32-.26,.58-.58,.58s-.58-.26-.58-.58,.26-.58,.58-.58,.58,.26,.58,.58Z"/>
            <path class="cls-1" d="M124.04,83.66c0,.32-.26,.58-.58,.58s-.58-.26-.58-.58,.26-.58,.58-.58,.58,.26,.58,.58Z"/>
            <path class="cls-1" d="M127.63,94.69c0,1.02-.83,1.85-1.85,1.85s-1.85-.83-1.85-1.85,.83-1.85,1.85-1.85,1.85,.83,1.85,1.85Z"/>
            <rect class="cls-9" x="121.78" y="58.96" width="7.98" height="1.27"/>
          </g>
          <rect class="cls-24" x="120.5" y="109.77" width="61.98" height="22.54"/>
          <path class="cls-21" d="M155.99,114.22h-10.12c-.57,0-1.03-.46-1.03-1.03h0c0-.57,.46-1.03,1.03-1.03h10.12c.57,0,1.03,.46,1.03,1.03h0c0,.57-.46,1.03-1.03,1.03Z"/>
        </g>
        <g>
          <path class="cls-26" d="M188.13,49.4s3.19,9.96,5.11,12.41c1.92,2.45,5.64,1.35,6.63-1.22,.99-2.57,.15-3.38,.15-3.38l-8.6-11.58-3.28,3.76Z"/>
          <path class="cls-26" d="M165.25,57.22c-1.49-.82-7.25-6.54-8.92-7.95-1.67-1.41-4.3-2.67-6.43-3.47-2.13-.8-2.48,1.46-1.15,3.34,1.89,2.68,4.78,2.19,6.06,4.35,1.43,2.41,6.96,13.05,12.06,9.72,1.79-1.17,1.96-7.17,1.96-7.17l-3.58,1.17Z"/>
          <g>
            <g>
              <g>
                <path class="cls-26" d="M181.92,34.19c.73-.15,2.22-1.35,2.47-2.03-.36-1.64-.12-4.29-.12-4.29l-5.46-.84s-.19,3.63-.49,5.22c.32,1.06,2.09,2.26,3.6,1.95Z"/>
                <g>
                  <path class="cls-26" d="M188.38,21.74c-.18-.84-1.03-.72-1.33-.65-.4-3.56-2.45-6.21-5.24-6.31-2.85-.1-5.09,2.31-5.69,5.92-.28-.09-1.14-.29-1.38,.55-.29,1,.16,2.54,1.29,2.96,0,0,0,0,.01,0,.07,.64,.21,1.25,.43,1.79,1.11,2.65,3.23,4.68,4.76,4.74,1.57,.06,3.65-1.73,4.93-4.39,.25-.52,.48-1.12,.66-1.74,.02,0,.04,0,.06-.01,1.15-.34,1.72-1.84,1.5-2.86Z"/>
                  <path class="cls-14" d="M174.99,20.78c-.33-2.52,1.24-5.05,2.13-6.05,2.48-2.8,7.04-2.4,8.43-.88,3,3.28,2.92,5.65,2.05,7.26-.66,2.51-1.49,6.66-6.06,6.66-2.88,0-5.6-4.13-6.55-7Z"/>
                </g>
              </g>
              <path class="cls-1" d="M199.68,52.46c-1.54-7.65-3.23-15.19-5.49-16.58-2.26-1.39-9.89-3.88-9.89-3.88h-5.87s-7.64,2.49-9.89,3.88c-2.26,1.39-3.95,8.93-5.49,16.58-.34,1.72-.75,3.64-1.18,5.56,2.86,4.64,6.64,1.57,6.64,1.57l2.86-12.92,1.91,12.92h16.17l1.91-12.92,1.73,11.76s4.63,4.73,7.25,.81c.56-2.46-.32-5.07-.66-6.79Z"/>
              <g>
                <path class="cls-14" d="M171.43,129.21s-6.42,3.12-8.19,4.25c-1.77,1.13-1.09,2.22-1.09,2.22h12.97s.18-5.05-.18-6.14-3.5-.33-3.5-.33Z"/>
                <path class="cls-16" d="M170.28,91.48s-.26,11.8-.76,16.63c-.81,7.76-1.91,22.31-1.91,22.31h8.19s1.63-18.49,2.53-25.86c.63-5.17,1.9-13.08,1.9-13.08h-9.95Z"/>
                <rect class="cls-22" x="162.01" y="135.19" width="13.1" height=".99"/>
              </g>
              <g>
                <path class="cls-14" d="M191.98,129.21s6.42,3.12,8.19,4.25c1.77,1.13,1.09,2.22,1.09,2.22h-12.97s-.18-5.05,.18-6.14c.36-1.09,3.5-.33,3.5-.33Z"/>
                <path class="cls-16" d="M193.13,91.48s.26,11.8,.76,16.63c.81,7.76,1.91,22.31,1.91,22.31h-8.19s-1.63-18.49-2.53-25.86c-.63-5.17-1.9-13.08-1.9-13.08h9.95Z"/>
                <rect class="cls-22" x="188.3" y="135.19" width="13.1" height=".99" transform="translate(389.69 271.36) rotate(180)"/>
              </g>
              <path class="cls-23" d="M194.36,79.35c-.56-9.8-4.73-19.75-4.73-19.75h-16.35s-4.17,9.95-4.73,19.75c-.56,9.8-1.5,20.34-1.5,20.34h28.82s-.94-10.54-1.51-20.34Z"/>
              <rect class="cls-15" x="174.95" y="14.77" width="13.18" height="4.91"/>
              <rect class="cls-15" x="173.11" y="58.44" width="16.71" height="1.63"/>
              <path class="cls-23" d="M177.13,17.56c-1.19,.18-3.67,.88-4.8-.34-1.13-1.21-1.82-5.21,2.62-6.41s9.7,.35,12.32,1.51c2.61,1.16,4.63,1.85,4.04,3.12-.59,1.27-3.18,1.27-6.49,1.06-1.71-.11-5.99,.8-7.69,1.06Z"/>
            </g>
            <path class="cls-2" d="M181.1,29.31c-2.84,0-5.73,3.79-5.73,3.79l11.78-.12s-3.21-3.67-6.05-3.67Z"/>
          </g>
        </g>
      </g>
      <g>
        <g>
          <rect class="cls-17" x="302.41" width="60.72" height="136.07"/>
          <rect class="cls-29" x="302.41" y="26.05" width="60.72" height="1.76"/>
          <rect class="cls-21" x="320.34" y="11.43" width="24.87" height="5.64"/>
          <rect class="cls-24" x="320.34" y="8.11" width="24.87" height="1.49"/>
          <rect class="cls-1" x="306.91" y="41.23" width="2.28" height="32.63" rx="1.09" ry="1.09"/>
          <g>
            <rect class="cls-29" x="203.61" y="65.56" width="98.8" height="70.62"/>
            <rect class="cls-24" x="252.42" y="65.56" width="1.36" height="69.61"/>
            <rect class="cls-24" x="203.61" y="65.25" width="98.8" height="3.36"/>
            <g>
              <path class="cls-26" d="M295.53,57.5s.83,5.38-4.04,6.55c-4.87,1.17-10.77,1.83-10.77,1.83v-4.39s8.81-4.24,9.86-4.37c1.05-.13,5.17,.84,5.17,.84l-.23-.45Z"/>
              <path class="cls-26" d="M256.88,57.95s.3,5.22,5.17,6.38c4.87,1.17,9.86,1.54,9.86,1.54v-4.39s-8.81-4.24-9.86-4.37c-1.05-.13-5.17,.84-5.17,.84h0Z"/>
              <g>
                <g>
                  <g>
                    <path class="cls-26" d="M276.94,34.11c.73-.15,2.22-1.35,2.47-2.03-.36-1.64-.12-4.29-.12-4.29l-5.46-.84s-.19,3.63-.49,5.22c.32,1.06,2.09,2.26,3.6,1.95Z"/>
                    <g>
                      <path class="cls-26" d="M283.39,21.66c-.18-.84-1.03-.72-1.33-.65-.4-3.56-2.45-6.21-5.24-6.31-2.85-.1-5.09,2.31-5.69,5.92-.28-.09-1.14-.29-1.38,.55-.29,1,.16,2.54,1.29,2.96,0,0,0,0,.01,0,.07,.64,.21,1.25,.43,1.79,1.11,2.65,3.23,4.68,4.76,4.74,1.57,.06,3.65-1.73,4.93-4.39,.25-.52,.48-1.12,.66-1.74,.02,0,.04,0,.06-.01,1.15-.34,1.72-1.84,1.5-2.86Z"/>
                      <path class="cls-29" d="M270.01,20.7c-.33-2.52,1.24-5.05,2.13-6.05,2.48-2.8,7.04-2.4,8.43-.88,3,3.28,2.92,5.65,2.05,7.26-.66,2.51-1.49,6.67-6.06,6.66-2.88,0-5.6-4.13-6.55-7Z"/>
                    </g>
                  </g>
                  <path class="cls-1" d="M294.69,52.39c-1.54-7.65-3.23-15.19-5.49-16.58-2.26-1.39-9.89-3.88-9.89-3.88h-5.87s-7.64,2.49-9.89,3.88c-2.26,1.39-3.95,8.93-5.49,16.58-.34,1.72-.75,3.64-1.18,5.56,2.86,4.64,6.64,1.57,6.64,1.57l2.86-12.92,1.91,12.92h16.17l1.91-12.92,1.73,11.76s4.63,4.73,7.25,.81c.56-2.46-.32-5.07-.66-6.79Z"/>
                  <g>
                    <path class="cls-1" d="M266.44,129.13s-6.42,3.12-8.19,4.25c-1.77,1.13-1.09,2.22-1.09,2.22h12.97s.18-5.05-.18-6.14c-.36-1.09-3.5-.33-3.5-.33Z"/>
                    <path class="cls-16" d="M265.29,91.4s-.26,11.8-.76,16.63c-.81,7.76-1.91,22.31-1.91,22.31h8.19s1.63-18.49,2.53-25.86c.63-5.17,1.9-13.08,1.9-13.08h-9.95Z"/>
                    <rect class="cls-24" x="257.02" y="135.11" width="13.1" height=".99"/>
                  </g>
                  <g>
                    <path class="cls-1" d="M286.99,129.13s6.42,3.12,8.19,4.25c1.77,1.13,1.09,2.22,1.09,2.22h-12.97s-.18-5.05,.18-6.14,3.5-.33,3.5-.33Z"/>
                    <path class="cls-16" d="M288.14,91.4s.26,11.8,.76,16.63c.81,7.76,1.91,22.31,1.91,22.31h-8.19s-1.63-18.49-2.53-25.86c-.63-5.17-1.9-13.08-1.9-13.08h9.95Z"/>
                    <rect class="cls-24" x="283.31" y="135.11" width="13.1" height=".99" transform="translate(579.72 271.21) rotate(180)"/>
                  </g>
                  <path class="cls-23" d="M289.37,79.27c-.56-9.8-4.73-19.75-4.73-19.75h-16.35s-4.17,9.95-4.73,19.75c-.56,9.8-1.51,20.34-1.51,20.34h28.82s-.94-10.54-1.51-20.34Z"/>
                  <rect class="cls-1" x="269.96" y="10.84" width="13.18" height="8.76"/>
                  <rect class="cls-15" x="268.12" y="58.36" width="16.71" height="1.63"/>
                </g>
                <path class="cls-2" d="M276.11,29.23c-2.84,0-5.73,3.79-5.73,3.79l11.78-.12s-3.21-3.67-6.05-3.67Z"/>
              </g>
            </g>
          </g>
          <g>
            <path class="cls-29" d="M208.04,46.23s-1.76-.69-2.73-.75-1.34,1.12,0,1.71c1.92,.85,3.43,1.12,3.43,1.12l-.7-2.08Z"/>
            <path class="cls-29" d="M225.67,46.23s1.76-.69,2.73-.75,1.34,1.12,0,1.71c-1.92,.85-3.43,1.12-3.43,1.12l.7-2.08Z"/>
            <rect class="cls-29" x="207.36" y="43.83" width="18.68" height="21.42"/>
            <path class="cls-24" d="M226.58,44.24h-19.64c-.29,0-.53-.24-.53-.53h0c0-.29,.24-.53,.53-.53h19.64c.29,0,.53,.24,.53,.53h0c0,.29-.24,.53-.53,.53Z"/>
          </g>
          <rect class="cls-24" x="207.29" y="107.66" width="42.58" height="25.32"/>
          <rect class="cls-24" x="207.29" y="79.56" width="42.58" height="25.32"/>
          <g>
            <g>
              <path class="cls-1" d="M248.37,73.81c0,1.12-.91,2.03-2.03,2.03s-2.03-.91-2.03-2.03,.91-2.03,2.03-2.03,2.03,.91,2.03,2.03Z"/>
              <path class="cls-24" d="M247.22,73.81c0,.49-.4,.88-.88,.88s-.88-.4-.88-.88,.4-.88,.88-.88,.88,.4,.88,.88Z"/>
            </g>
            <g>
              <path class="cls-1" d="M239.53,73.81c0,1.12-.91,2.03-2.03,2.03s-2.03-.91-2.03-2.03,.91-2.03,2.03-2.03,2.03,.91,2.03,2.03Z"/>
              <path class="cls-24" d="M238.38,73.81c0,.49-.4,.88-.88,.88s-.88-.4-.88-.88,.4-.88,.88-.88,.88,.4,.88,.88Z"/>
            </g>
            <g>
              <path class="cls-1" d="M230.1,73.81c0,1.12-.91,2.03-2.03,2.03s-2.03-.91-2.03-2.03,.91-2.03,2.03-2.03,2.03,.91,2.03,2.03Z"/>
              <path class="cls-24" d="M228.95,73.81c0,.49-.4,.88-.88,.88s-.88-.4-.88-.88,.4-.88,.88-.88,.88,.4,.88,.88Z"/>
            </g>
            <g>
              <path class="cls-1" d="M221.26,73.81c0,1.12-.91,2.03-2.03,2.03s-2.03-.91-2.03-2.03,.91-2.03,2.03-2.03,2.03,.91,2.03,2.03Z"/>
              <path class="cls-24" d="M220.11,73.81c0,.49-.4,.88-.88,.88s-.88-.4-.88-.88,.4-.88,.88-.88,.88,.4,.88,.88Z"/>
            </g>
            <g>
              <path class="cls-1" d="M212.85,73.81c0,1.12-.91,2.03-2.03,2.03s-2.03-.91-2.03-2.03,.91-2.03,2.03-2.03,2.03,.91,2.03,2.03Z"/>
              <path class="cls-24" d="M211.7,73.81c0,.49-.4,.88-.88,.88s-.88-.4-.88-.88,.4-.88,.88-.88,.88,.4,.88,.88Z"/>
            </g>
          </g>
          <path class="cls-20" d="M234.2,111.69h-11.26c-.45,0-.82-.37-.82-.82h0c0-.45,.37-.82,.82-.82h11.26c.45,0,.82,.37,.82,.82h0c0,.45-.37,.82-.82,.82Z"/>
          <g>
            <circle class="cls-1" cx="218.79" cy="94.85" r="9.86" transform="translate(76.38 286.11) rotate(-76.77)"/>
            <path class="cls-27" d="M223.57,94.85c0,2.64-2.14,4.78-4.78,4.78s-4.78-2.14-4.78-4.78,2.14-4.78,4.78-4.78,4.78,2.14,4.78,4.78Z"/>
          </g>
          <g>
            <circle class="cls-1" cx="229.94" cy="96.02" r="8.69" transform="translate(-.54 190.72) rotate(-45)"/>
            <path class="cls-27" d="M234.15,96.02c0,2.33-1.89,4.21-4.21,4.21s-4.21-1.89-4.21-4.21,1.89-4.21,4.21-4.21,4.21,1.89,4.21,4.21Z"/>
          </g>
          <g>
            <path class="cls-1" d="M248.38,97.12c0,4.19-3.4,7.58-7.58,7.58s-7.58-3.4-7.58-7.58,3.4-7.58,7.58-7.58,7.58,3.4,7.58,7.58Z"/>
            <path class="cls-27" d="M244.48,97.12c0,2.03-1.65,3.68-3.68,3.68s-3.68-1.65-3.68-3.68,1.65-3.68,3.68-3.68,3.68,1.65,3.68,3.68Z"/>
          </g>
          <g>
            <path class="cls-19" d="M221.41,51.92s-1.76-.69-2.73-.75c-.96-.07-1.34,1.12,0,1.71,1.92,.85,3.43,1.12,3.43,1.12l-.7-2.08Z"/>
            <path class="cls-19" d="M241.85,51.92s1.76-.69,2.73-.75c.96-.07,1.34,1.12,0,1.71-1.92,.85-3.43,1.12-3.43,1.12l.7-2.08Z"/>
            <rect class="cls-1" x="221.13" y="50.15" width="21.19" height="15.11"/>
            <path class="cls-19" d="M242.76,50.68h-22.18c-.29,0-.53-.24-.53-.53h0c0-.29,.24-.53,.53-.53h22.18c.29,0,.53,.24,.53,.53h0c0,.29-.24,.53-.53,.53Z"/>
          </g>
          <g>
            <g>
              <rect class="cls-1" x="240.93" y="91.84" width=".59" height="12.86"/>
              <rect class="cls-1" x="237.17" y="91.84" width=".59" height="12.86"/>
              <rect class="cls-1" x="233.41" y="91.84" width=".59" height="12.86"/>
              <rect class="cls-1" x="229.65" y="91.84" width=".59" height="12.86"/>
              <rect class="cls-1" x="225.9" y="91.84" width=".59" height="12.86"/>
              <rect class="cls-1" x="222.14" y="91.84" width=".59" height="12.86"/>
              <rect class="cls-1" x="218.38" y="91.84" width=".59" height="12.86"/>
              <rect class="cls-1" x="214.62" y="91.84" width=".59" height="12.86"/>
            </g>
            <path class="cls-1" d="M245.9,104.88h-35.66v-9.48c0-2.11,1.72-3.83,3.83-3.83h28c2.11,0,3.83,1.72,3.83,3.83v9.48Zm-35.07-.59h34.49v-8.89c0-1.79-1.45-3.24-3.24-3.24h-28c-1.79,0-3.24,1.45-3.24,3.24v8.89Z"/>
          </g>
          <g>
            <rect class="cls-24" x="206.89" y="31.35" width="51.99" height="1.89"/>
            <g>
              <path class="cls-18" d="M237.4,5.27h-1.06c-.13,0-.24,.11-.24,.24v2.18c0,.13,.11,.24,.24,.24h1.06c.13,0,.24-.11,.24-.24v-2.18c0-.13-.11-.24-.24-.24Z"/>
              <path class="cls-25" d="M237.75,13.06V6.89h-1.75v6.17c-1.3,.38-2.25,1.58-2.25,3,0,.06,0,.11,0,.17v14.7c0,.13,.1,.23,.23,.23h5.78c.13,0,.23-.1,.23-.23v-3.56h-3.12v-9.27h3.12v-1.87c0-.06,0-.11,0-.17,0-1.42-.95-2.62-2.25-3Z"/>
              <polygon class="cls-3" points="236.87 18.1 233.74 18.1 233.74 27.38 236.87 27.38 240 27.38 240 18.1 236.87 18.1"/>
              <path class="cls-25" d="M237.91,6.77v-.02c0-.17-.14-.3-.3-.3h-1.47c-.17,0-.3,.14-.3,.3v.02s-.08,.07-.08,.12,.03,.1,.08,.12c.02,0,.03,.01,.05,.01h0s-.03,0-.05-.01v.02c0,.17,.14,.3,.3,.3h1.47c.17,0,.3-.14,.3-.3v-.02s.08-.07,.08-.12-.03-.1-.08-.12Z"/>
              <path class="cls-1" d="M239.13,22.47c0-1.82-1-3.29-2.26-3.43v-.03s-.06,.01-.09,.01c-.03,0-.06-.01-.09-.01v.03c-1.26,.13-2.26,1.61-2.26,3.43s1,3.29,2.26,3.43v.03s.06-.01,.09-.01c.03,0,.06,.01,.09,.01v-.03c1.26-.13,2.26-1.61,2.26-3.43Z"/>
            </g>
            <g>
              <path class="cls-18" d="M229,5.27h-1.06c-.13,0-.24,.11-.24,.24v2.18c0,.13,.11,.24,.24,.24h1.06c.13,0,.24-.11,.24-.24v-2.18c0-.13-.11-.24-.24-.24Z"/>
              <path class="cls-3" d="M229.35,13.06V6.89h-1.75v6.17c-1.3,.38-2.25,1.58-2.25,3,0,.06,0,.11,0,.17v14.7c0,.13,.1,.23,.23,.23h5.78c.13,0,.23-.1,.23-.23v-3.56h-3.12v-9.27h3.12v-1.87c0-.06,0-.11,0-.17,0-1.42-.95-2.62-2.25-3Z"/>
              <polygon class="cls-12" points="228.47 18.1 225.34 18.1 225.34 27.38 228.47 27.38 231.6 27.38 231.6 18.1 228.47 18.1"/>
              <path class="cls-3" d="M229.51,6.77v-.02c0-.17-.14-.3-.3-.3h-1.47c-.17,0-.3,.14-.3,.3v.02s-.08,.07-.08,.12,.03,.1,.08,.12c.02,0,.03,.01,.05,.01h.99s-.99,0-.99,0c-.02,0-.03,0-.05-.01v.02c0,.17,.14,.3,.3,.3h1.47c.17,0,.3-.14,.3-.3v-.02s.08-.07,.08-.12-.03-.1-.08-.12Z"/>
              <path class="cls-1" d="M230.73,22.47c0-1.82-1-3.29-2.26-3.43v-.03s-.06,.01-.09,.01c-.03,0-.06-.01-.09-.01v.03c-1.26,.13-2.26,1.61-2.26,3.43s1,3.29,2.26,3.43v.03s.06-.01,.09-.01c.03,0,.06,.01,.09,.01v-.03c1.26-.13,2.26-1.61,2.26-3.43Z"/>
            </g>
            <g>
              <g>
                <path class="cls-1" d="M250.88,27.53h-8.06v3.31c0,.28,.23,.51,.51,.51h8.04c.28,0,.51-.23,.51-.51v-3.31h-1Z"/>
                <path class="cls-18" d="M250.88,21.37h-8.06v6.16h9.06v-6.16h-1Zm.37,5.5h-7.8v-4.88h7.8v4.88Z"/>
                <path class="cls-25" d="M250.88,22h-7.43v4.88h7.8v-4.88h-.37Zm-3.53,4.06c-1.44,0-2.61-.72-2.61-1.62s1.17-1.62,2.61-1.62,2.61,.72,2.61,1.62-1.17,1.62-2.61,1.62Z"/>
                <ellipse class="cls-1" cx="247.35" cy="24.44" rx="2.61" ry="1.62"/>
              </g>
              <path class="cls-1" d="M251.36,19c-.83-.27-2.47-.62-2.48-1.33-.01-.77,0-2.61,0-2.61h-3.07s0,1.9,0,2.61c0,.7-1.57,1.03-2.48,1.33-.27,.09-.51,.23-.51,.51v1.86h9.06v-1.86c0-.28-.24-.43-.51-.51Z"/>
              <path class="cls-25" d="M249.1,14.61h-3.51c-.12,0-.22,.1-.22,.22v1.13c0,.12,.1,.22,.22,.22h3.51c.12,0,.22-.1,.22-.22v-1.13c0-.12-.1-.22-.22-.22Z"/>
            </g>
            <g>
              <g>
                <path class="cls-1" d="M221.56,27.53h-8.06v3.31c0,.28,.23,.51,.51,.51h8.04c.28,0,.51-.23,.51-.51v-3.31h-1Z"/>
                <path class="cls-5" d="M221.56,21.37h-8.06v6.16h9.06v-6.16h-1Zm.37,5.5h-7.8v-4.88h7.8v4.88Z"/>
                <path class="cls-10" d="M221.56,22h-7.43v4.88h7.8v-4.88h-.37Zm-3.53,4.06c-1.44,0-2.61-.72-2.61-1.62s1.17-1.62,2.61-1.62,2.61,.72,2.61,1.62-1.17,1.62-2.61,1.62Z"/>
                <path class="cls-1" d="M218.03,22.82c-1.44,0-2.61,.72-2.61,1.62s1.17,1.62,2.61,1.62,2.61-.72,2.61-1.62-1.17-1.62-2.61-1.62Z"/>
              </g>
              <path class="cls-1" d="M222.05,19c-.83-.27-2.47-.62-2.48-1.33-.01-.77,0-2.61,0-2.61h-3.07s0,1.9,0,2.61c0,.7-1.57,1.03-2.48,1.33-.27,.09-.51,.23-.51,.51v1.86h9.06v-1.86c0-.28-.24-.43-.51-.51Z"/>
              <path class="cls-5" d="M219.79,14.61h-3.51c-.12,0-.22,.1-.22,.22v1.13c0,.12,.1,.22,.22,.22h3.51c.12,0,.22-.1,.22-.22v-1.13c0-.12-.1-.22-.22-.22Z"/>
            </g>
          </g>
          <rect class="cls-2" x="269.96" y="19.02" width="13.18" height="1.13"/>
          <g>
            <rect class="cls-1" x="335.13" y="66.87" width="11.95" height="16.87" transform="translate(10.07 -36.24) rotate(6.17)"/>
            <rect class="cls-25" x="340.26" y="65.25" width="3.57" height="2.71" transform="translate(9.15 -36.4) rotate(6.17)"/>
          </g>
          <g>
            <rect class="cls-1" x="313.94" y="34.67" width="11.95" height="7.09" transform="translate(3.37 98.28) rotate(-17.56)"/>
            <rect class="cls-3" x="316.97" y="33.18" width="3.57" height="2.71" transform="translate(4.43 97.76) rotate(-17.56)"/>
          </g>
        </g>
        <g>
          <path class="cls-10" d="M342.3,45.4c4.53,.59,5.57-4.17,8.29-6.62,.13-.12,1.07-1.28,.22-1.66-.03-.01-.83,.17-1.15,.37,0-.01-.01-.02-.02-.03-.54,.36-1.03,.91-1.49,1.53-.15,0-.31,.08-.45,.23-.92,.98-1.6,2.11-2.45,3.14-.88,1.07-1.9,1.44-3.06,2.05-.42,.22-.45,.91,.11,.99Z"/>
          <path class="cls-5" d="M345,43.31c.65-.87,2.74-3.42,2.79-3.47,.38-.36,.81-.29,1.2-.21,.27,.05,.41-.31,.21-.48-.19-.16-.36-.27-.53-.36,.14-.11,1.87-.98,2.57-1.62,.47-.43,.9-1.19,.57-1.81-.34-.64-1.1-.5-1.72-.35,.39-1.28,.06-3.04-1.49-3.21-1.41-.15-3.25,1.57-3.93,2.42-.18,.22-1.69,3.71-2.03,4.49-.64,1.49-2.55,4.85-1.36,6.46,1.04,1.41,3.02-.93,3.72-1.86Z"/>
          <path class="cls-10" d="M343.31,43.16c.46-.31,1.43-2.04,1.84-2.64,.53-.77,1.19-1.44,1.84-2.17,.6-.47,1.27-.84,2.02-1.15,.04-.02,.03-.08-.02-.08-.5,.04-.93,.18-1.32,.39,.44-.62,.7-1.29,.61-2.14-.03-.29-.18-.44-.24-.1-.16,.97-.55,1.81-1.04,2.52,.12-.49,.12-1.19,.12-1.72,0-.12,.07-.61-.13-.35-.25,.33-.11,1.33-.25,1.73-.18,.52-.11,.82-1.11,1.97-.65,.69-1.18,1.4-1.6,2.23,0-.06,.21-1.18,.31-1.73,.38-2.09,.66-4.63,2.61-5.62,.25-.12,.16-.22-.03-.16-1.4,.41-1.86,1.68-2.33,3-.37,1.07-.46,2.31-.65,3.48-.15-1.61-.19-2.94,.48-4.47,.03-.06-.06-.1-.1-.04-.5,.82-.65,1.52-.72,2.48-.05,.63,.03,1.35,.04,1.96,.01,.96-.26,1.58-.56,2.45-.1,.28-.07,.37,.21,.18Z"/>
        </g>
        <g>
          <path class="cls-10" d="M344.83,42.53c.07-4.56-4.77-5.06-7.51-7.49-.13-.12-1.39-.92-1.67-.03-.01,.03,.26,.81,.5,1.1,0,0-.02,.01-.03,.02,.42,.5,1.02,.92,1.68,1.31,.03,.15,.11,.3,.28,.42,1.08,.8,2.28,1.35,3.4,2.08,1.16,.76,1.64,1.72,2.39,2.81,.27,.39,.96,.35,.97-.22Z"/>
          <path class="cls-5" d="M342.45,40.08c-.94-.55-3.71-2.33-3.77-2.38-.4-.33-.38-.77-.35-1.16,.02-.27-.35-.37-.5-.16-.14,.2-.23,.39-.3,.57-.13-.12-1.19-1.74-1.9-2.37-.48-.42-1.28-.76-1.87-.36-.6,.41-.37,1.15-.15,1.75-1.31-.25-3.03,.29-3.02,1.84,0,1.42,1.93,3.05,2.84,3.63,.24,.15,3.87,1.26,4.69,1.51,1.55,.47,5.1,1.99,6.58,.62,1.28-1.19-1.26-2.9-2.27-3.49Z"/>
          <path class="cls-10" d="M342.48,41.79c-.36-.42-2.19-1.19-2.83-1.53-.83-.44-1.57-1.02-2.36-1.59-.53-.55-.98-1.17-1.37-1.88-.02-.04-.09-.02-.08,.03,.09,.49,.28,.9,.53,1.26-.67-.36-1.36-.55-2.2-.36-.29,.06-.42,.23-.08,.25,.98,.05,1.86,.34,2.63,.75-.5-.07-1.2,.02-1.73,.07-.12,.01-.62,0-.34,.17,.36,.21,1.33-.04,1.75,.05,.53,.12,.82,.02,2.08,.88,.75,.56,1.52,1.01,2.4,1.33-.06,0-1.2-.08-1.76-.11-2.12-.14-4.67-.13-5.88-1.96-.15-.23-.24-.13-.16,.05,.56,1.34,1.87,1.66,3.25,1.97,1.1,.25,2.34,.2,3.53,.25-1.59,.33-2.9,.52-4.5,.03-.07-.02-.09,.07-.03,.1,.87,.41,1.58,.48,2.54,.43,.63-.03,1.34-.18,1.94-.26,.95-.12,1.6,.08,2.5,.28,.29,.06,.37,.03,.16-.23Z"/>
        </g>
        <g>
          <g>
            <path class="cls-5" d="M358.2,35.8c-.49-1.21-1.43-.49-1.92-.03-.03-.28-.36-.31-.54-.18-.6,.44-1.09,.9-1.53,1.45-.13-.11-.32-.16-.58-.14-.3,.02-.44,.21-.68,.39-.23,.17-.64,.79-.8,.95-.68,.7-1.46,1.15-2.31,1.64-.08,.04-.04,.16,.05,.15,.09-.01,.05,.08-.05,.15,0,0-.03,.9,.37,.73,2.18-.9,3.96-1.77,6.36-1.11,.31,.08,.31-.21,.28-.37-.04-.21-.3-.65-.39-.78,.36,.07,1.05,.27,1.43,.23,.17-.02,.44-.32,.03-.87,.81,.19,1.65,.31,2.28-.24,.34-.29,.41-.73,.29-.97,.5-.21,.91-.59,.57-1.2-.48-.85-1.92-.25-2.87,.2Z"/>
            <path class="cls-18" d="M347.54,39.02c1.19-.81,2.76-.61,3.5,.48,.74,1.09,.35,2.62-.84,3.43-1.19,.81-10.49,5.71-11.15,4.73-.67-.98,7.3-7.83,8.49-8.64Z"/>
          </g>
          <path class="cls-4" d="M350.61,42.11c.06-.39-.03-.71-.3-1.01-.13-.14-.34,.06-.24,.22,.15,.25,.27,.49,.33,.78,.02,.11,.2,.15,.22,.01Z"/>
          <path class="cls-4" d="M348.16,41.49c-.17-.36-.42-.57-.81-.67-.19-.05-.25,.24-.08,.31,.26,.12,.5,.26,.71,.46,.08,.08,.25,.01,.19-.11Z"/>
          <path class="cls-4" d="M348.56,40.28c-.17-.36-.42-.57-.81-.67-.19-.05-.25,.24-.08,.31,.26,.12,.5,.26,.71,.46,.08,.08,.25,.01,.19-.11Z"/>
          <path class="cls-4" d="M343.16,45.08c-.17-.36-.42-.57-.81-.67-.19-.05-.25,.24-.08,.31,.27,.12,.5,.26,.71,.46,.08,.08,.25,.01,.19-.11Z"/>
          <path class="cls-4" d="M350.18,39.43c-.13-.14-.31-.26-.5-.32-.16-.05-.22,.17-.09,.28,.53,.43,1,.47,.59,.05Z"/>
          <path class="cls-4" d="M345.66,41.72c.15,.12,.34,.22,.53,.26,.17,.03,.2-.2,.06-.29-.57-.36-1.05-.35-.59,.03Z"/>
          <path class="cls-4" d="M347.7,42.57c.04,.19,.12,.39,.25,.54,.11,.13,.28-.03,.23-.18-.22-.64-.59-.93-.48-.35Z"/>
          <path class="cls-4" d="M341.47,46.19c.04,.19,.12,.39,.25,.54,.11,.13,.28-.03,.23-.18-.22-.64-.59-.93-.48-.35Z"/>
          <path class="cls-4" d="M349.71,42.53c-.11-.47-.25-.67-.42-.93-.1-.16-.23,0-.22,.18,.03,.33,.24,.6,.41,.88,.08,.13,.26,.03,.23-.12Z"/>
        </g>
        <g>
          <g>
            <path class="cls-26" d="M357.85,21.91c.33-1.26,.67-1.87,2-2.79,1.33-.93,6.54-1.85,9.07,.29,2.53,2.14,1.53,6.1,1.12,7.46-.47,1.54-1.31,3.44-1.6,5.57-.13,.96,.77,3.11,1.07,3.67,0,0,0,0,0,0-1.03,1.25-2.94,1.74-4.47,1.89-.86,.08-1.61,0-2.31-.16,.1-.13,.19-.26,.24-.42,.19-.54,.1-2.85-.38-3.38-.68-.76-1.47-.71-2.46-.5-1.31,.27-1.01-1.42-1.84-1.7-.54-.18-.19-.46-.05-.73-.09-.19-.5-.28-.59-.45-.21-.4,.25-.55,.19-.75-.16-.52-1.63-.54-1.5-1.1,.23-.96,1.92-2.84,1.69-3.47-.48-1.27-.49-2.23-.18-3.43Z"/>
            <path class="cls-14" d="M357.96,21.54s1.75-.67,4.12,1.13c1.52,1.15,1.57,2.51,3.6,3.07,1.74,.48,1.43,1.73,1.43,1.73l1.5,4.23s2.64-2.23,2.86-7.2c.22-4.78-1.22-5.35-1.22-5.35,0,0-2.57-2-7.71-1.6-2.89,.22-4.59,1.16-4.59,1.16,0,0,.33,1.44,0,2.84Z"/>
            <path class="cls-26" d="M365.25,25.89s.06-1.57,1.55-1.39c1.49,.18,1.66,2.29,.04,3.54-1.63,1.25-1.58-2.15-1.58-2.15Z"/>
          </g>
          <path class="cls-14" d="M359.59,128.69s-7.42,3.6-9.47,4.91c-2.05,1.31-1.27,2.57-1.27,2.57h15s.21-5.84-.21-7.11c-.42-1.26-4.05-.38-4.05-.38Z"/>
          <rect class="cls-1" x="357.66" y="11.44" width="13.83" height="11.65"/>
          <rect class="cls-23" x="357.66" y="19.88" width="13.83" height="1.61"/>
          <path class="cls-1" d="M362.73,37.84s-3.44,2.71-4.78,6.23c-1.62,4.25-1.22,9.54-1.45,10.72-.42,2.16-.05,15.13-.05,15.13l16.1-.55s0-8.64,1.02-17.35c1.01-8.63-4.07-15.93-4.07-15.93l-6.77,1.74Z"/>
          <path class="cls-23" d="M371.65,65.15c.97,.37,5.58,1.16,8.98,4.1,3.41,2.94,2.46,6.44-1.33,6.05-3.79-.38-8.48-7.26-8.48-7.26v-1.6s3.88,5.3,6.7,6.41c2.82,1.11,4.6,.15,2.67-1.89-1.93-2.04-8.54-4.52-8.54-4.52v-1.29Z"/>
          <path class="cls-23" d="M371.19,65.37c.88-.55,4.27-3.76,8.67-4.73,4.4-.96,6.62,1.9,4.04,4.7-2.58,2.8-10.9,2.43-10.9,2.43l-1.28-.96s6.57,.07,9.15-1.51,2.88-3.59,.09-3.27c-2.79,.32-8.74,4.12-8.74,4.12l-1.04-.78Z"/>
          <path class="cls-14" d="M370.05,128.69s-7.42,3.6-9.47,4.91c-2.05,1.31-1.27,2.57-1.27,2.57h15s.21-5.84-.21-7.11c-.42-1.26-4.05-.38-4.05-.38Z"/>
          <rect class="cls-22" x="359.16" y="135.33" width="15.15" height=".84"/>
          <g>
            <path class="cls-7" d="M332.85,43.79s-1.76-.69-2.73-.75c-.96-.07-1.34,1.12,0,1.71,1.92,.85,3.43,1.12,3.43,1.12l-.7-2.08Z"/>
            <path class="cls-7" d="M353.29,43.79s1.76-.69,2.73-.75c.96-.07,1.34,1.12,0,1.71-1.92,.85-3.43,1.12-3.43,1.12l.7-2.08Z"/>
            <path class="cls-25" d="M332.57,42.02h21.19v12.41c0,1.49-1.21,2.7-2.7,2.7h-15.8c-1.49,0-2.7-1.21-2.7-2.7v-12.41h0Z"/>
            <path class="cls-7" d="M354.2,42.56h-22.18c-.29,0-.53-.24-.53-.53h0c0-.29,.24-.53,.53-.53h22.18c.29,0,.53,.24,.53,.53h0c0,.29-.24,.53-.53,.53Z"/>
          </g>
          <path class="cls-1" d="M370.02,36.94c-2.56-.55-5.88,.72-7.86,3.11-.64,.77-3.65,10.3-5.88,11.12s-9.87,1.83-9.87,1.83l-1.34,7.11s6.71,1.3,9.3,1.68c2.59,.38,8.13-2.01,12.1-5.23,2.33-1.89,6.9-10.03,6.61-12.22-.29-2.18-3.05-7.39-3.05-7.39Z"/>
          <path class="cls-2" d="M359.74,40.96s1.73-4.63,4.84-5.81c2.58-.98,5.45-.98,5.45-.98v2.76s-2.44-.46-4.25,.12c-2.37,.77-6.04,3.9-6.04,3.9Z"/>
          <path class="cls-26" d="M349.02,54.23c-2.15-.14-4.38,.16-6.78-.27-3.41-.62-5.7-1.2-6.95-2.08-2.62-1.85-4.95-2.81-5.01-1.28-.13,3.04,1.03,5.07,4.82,5.41,1.2,.11,4.41,1.44,6.1,1.96,1.66,.51,4.58,1.2,6.75,1.58,.26-1.81,.51-3.68,1.08-5.32Z"/>
          <path class="cls-2" d="M345.43,52.6c-.99,2.69-.82,8.6-.82,8.6,0,0,1.43-.02,2.39,.36s2.27,1.65,2.27,1.65c0,0,.94-2.55,.96-6.18,.02-3.63-.23-5.13-.23-5.13,0,0-1.07-.11-2.45,.28-.83,.24-2.12,.42-2.12,.42Z"/>
          <path class="cls-2" d="M371.49,42.39s-.72,9.06-4.06,12.78c-3.35,3.73-11.08,6.48-11.08,6.48v1.53s8.23-1.82,12.78-7.64c4.71-6.02,2.37-13.16,2.37-13.16Z"/>
          <rect class="cls-23" x="356.3" y="63.78" width="16.55" height="1.91"/>
          <path class="cls-16" d="M363.9,130.01c.05-2.94-1.51-21.75-1.51-24.61,0-1.62,.29-4.63,.69-8.09l-9.48-1.14c-.32,5.72-.84,3.41,.01,12.69,.18,1.99,2.56,18.39,2.72,21.14h7.56Z"/>
          <polygon class="cls-16" points="374.69 130.01 373.62 97.31 364.88 97.31 367.4 130.01 374.69 130.01"/>
          <path class="cls-23" d="M356.3,65.7s-2.32,11.36-2.68,15.2c-1.06,11.19-2.07,21.13-2.07,21.13h26.39s-1.15-19.53-1.99-25.14c-1.1-7.29-3.39-11.19-3.39-11.19h-16.25Z"/>
          <rect class="cls-22" x="348.7" y="135.33" width="15.15" height=".84"/>
        </g>
      </g>
    </g>
  </g>
</svg>