<?xml version="1.0" encoding="UTF-8"?>
<svg xmlns="http://www.w3.org/2000/svg" viewBox="0 0 136.57 189.21">
  <defs>
    <style>
      .cls-1 {
        fill: #d16e54;
      }

      .cls-2 {
        fill: #9ab1b2;
        opacity: .34;
      }

      .cls-3 {
        fill: #ddd;
      }

      .cls-4 {
        opacity: .45;
      }

      .cls-4, .cls-5, .cls-6, .cls-7, .cls-8, .cls-9 {
        fill: #fff;
      }

      .cls-10, .cls-11, .cls-12, .cls-13, .cls-14, .cls-15 {
        fill: #282220;
      }

      .cls-16 {
        fill: #f4f4f4;
      }

      .cls-17 {
        fill: #d1d1d1;
      }

      .cls-18 {
        fill: #e5c028;
      }

      .cls-19 {
        fill: #edf2f2;
      }

      .cls-20 {
        fill: #ed8383;
      }

      .cls-21 {
        fill: #f46a58;
      }

      .cls-22 {
        fill: #e9eef2;
      }

      .cls-23, .cls-13, .cls-14, .cls-15 {
        mix-blend-mode: multiply;
      }

      .cls-23, .cls-15 {
        opacity: .2;
      }

      .cls-24 {
        fill: #df2a0c;
      }

      .cls-25 {
        fill: #e2b77f;
      }

      .cls-26 {
        fill: #69c642;
      }

      .cls-27 {
        fill: #f4b678;
      }

      .cls-28 {
        isolation: isolate;
      }

      .cls-29 {
        fill: #e37171;
      }

      .cls-30 {
        fill: #7f95ef;
      }

      .cls-6, .cls-11, .cls-13 {
        opacity: .1;
      }

      .cls-7 {
        opacity: .5;
      }

      .cls-31 {
        opacity: .29;
      }

      .cls-32 {
        fill: #5d929b;
      }

      .cls-12, .cls-33, .cls-14, .cls-9 {
        opacity: .15;
      }

      .cls-34 {
        fill: #daac6a;
      }

      .cls-35 {
        fill: #73b8c9;
      }

      .cls-36 {
        fill: #b8cacc;
      }

      .cls-37 {
        fill: #8ea8a8;
      }

      .cls-38 {
        fill: #ea3b24;
      }

      .cls-39 {
        fill: #75ba30;
      }

      .cls-40 {
        fill: #e4cbcf;
      }

      .cls-41 {
        fill: #fdfeff;
      }

      .cls-42 {
        fill: #eaeaea;
      }

      .cls-43 {
        fill: #f9d22d;
      }

      .cls-44 {
        fill: #4e62b7;
      }

      .cls-45 {
        fill: #ffd544;
      }

      .cls-46 {
        fill: #e5e5e5;
      }

      .cls-47 {
        fill: #10ace6;
      }

      .cls-48 {
        fill: #2c3a64;
      }

      .cls-8, .cls-49, .cls-50 {
        opacity: .25;
      }

      .cls-51, .cls-49 {
        fill: #d3d3d3;
      }

      .cls-52 {
        fill: #ffdf5a;
      }

      .cls-53 {
        fill: #57a839;
      }

      .cls-54 {
        fill: #f8b02f;
      }

      .cls-55 {
        fill: #efefef;
      }

      .cls-56 {
        opacity: .62;
      }

      .cls-57 {
        fill: #ed7f6e;
      }

      .cls-58 {
        fill: #ede6e6;
      }

      .cls-59 {
        fill: #6577df;
      }

      .cls-60 {
        fill: #ccb2b6;
      }

      .cls-61 {
        fill: #fcc490;
      }

      .cls-62 {
        fill: #ff3836;
      }

      .cls-63 {
        fill: #2b702c;
      }

      .cls-64 {
        fill: #95d6e8;
      }

      .cls-65 {
        fill: #a6bbdd;
      }

      .cls-66 {
        fill: #99a2a3;
      }

      .cls-67 {
        fill: #ba5d3e;
      }

      .cls-68 {
        fill: #2b478b;
      }

      .cls-69 {
        fill: #282f39;
      }

      .cls-70 {
        fill: #dfebeb;
      }
    </style>
  </defs>
  <g class="cls-28">
    <g id="Layer_2" data-name="Layer 2">
      <g id="Layer_1-2" data-name="Layer 1">
        <g>
          <ellipse class="cls-17" cx="44.08" cy="186.51" rx="44.08" ry="2.7"/>
          <g>
            <g>
              <path class="cls-68" d="M10.8,3.04H85.24V178.8H3.01V10.83c0-4.3,3.49-7.79,7.79-7.79Z"/>
              <rect class="cls-68" x="3.01" y="178.8" width="82.23" height="7.7"/>
            </g>
            <rect class="cls-5" x="7.23" y="9.63" width="73.79" height="169.12"/>
            <rect class="cls-37" x="9.74" y="12.47" width="68.77" height="163.43"/>
            <rect class="cls-68" x="3.01" y="130.17" width="82.23" height="3.8"/>
            <rect class="cls-5" x="7.23" y="133.97" width="73.79" height="2.79"/>
            <rect class="cls-5" x="7.23" y="127.39" width="73.79" height="2.79"/>
            <rect class="cls-5" x="7.23" y="35.6" width="73.79" height="2.79"/>
            <rect class="cls-5" x="7.23" y="58.11" width="73.79" height="2.79"/>
            <rect class="cls-5" x="7.23" y="84.54" width="73.79" height="2.79"/>
            <rect class="cls-5" x="7.23" y="156.27" width="73.79" height="2.79"/>
            <rect class="cls-5" x="39.11" y="135.6" width="10.03" height="3.7" rx="1.31" ry="1.31"/>
            <polygon class="cls-65" points="131.33 0 131.33 129.75 113.84 129.69 86.07 129.6 86.07 4.45 131.33 0"/>
            <polygon class="cls-68" points="136.57 1.17 136.57 127.9 131.33 129.75 131.33 0 136.57 1.17"/>
            <polygon class="cls-65" points="131.33 133.99 131.33 179.91 86.07 178.99 86.07 133.84 113.4 133.93 131.33 133.99"/>
            <polygon class="cls-68" points="136.57 132.2 136.57 178.28 131.33 180.07 131.33 133.99 136.57 132.2"/>
            <polygon class="cls-48" points="136.57 132.2 131.41 133.99 113.45 133.93 86.07 133.84 90.55 132.57 136.57 132.2"/>
            <rect class="cls-68" x="85.24" y="8.72" width=".83" height="118.64" rx=".29" ry=".29"/>
            <path class="cls-68" d="M85.65,177.23h0c-.23,0-.42-.19-.42-.42v-40.09c0-.23,.19-.42,.42-.42h0c.23,0,.42,.19,.42,.42v40.09c0,.23-.19,.42-.42,.42Z"/>
            <path class="cls-2" d="M136.57,132.2v46.08l-5.24,1.78v-.15l-46.09-.92v-2.41c13.04,2.35,24.68-17.45,27.83-42.64,.07-.57,.14-1.15,.2-1.73h23.3Z"/>
            <path class="cls-2" d="M136.57,1.17V127.9l-5.24,1.84-17.81-.05c.07-.77,.13-1.55,.18-2.33,.38-5.98,.58-16.38,.67-28.84h0c.03-3.5,.04-7.15,.05-10.92,0-.07,0-.13,0-.2,.02-6.62,.01-13.59-.01-20.6v-.05c-.01-3.64-.03-7.29-.05-10.92v-.19c-.04-7.02-.09-13.96-.15-20.52v-.15c-.04-3.78-.07-7.43-.1-10.89,0-.05-.21-22.3-.2-22.35l17.44-1.72,5.24,1.17Z"/>
            <g>
              <g>
                <path class="cls-22" d="M54.47,41.49l-.06,1.17-.07,1.41h0s-.05,1.03-.05,1.03l-.46,9.3v.02l-.03,.58-.02,.48v.02s0,.04,0,.06c-.06,1.28-1.03,2.32-2.29,2.49-.12,.02-.24,.03-.37,.03h-4.61c-.12,0-.25,0-.37-.03-1.25-.17-2.23-1.21-2.29-2.49,0-.02,0-.04,0-.06v-.02l-.22-4.51-.07-1.5-.02-.45-.09-1.92v-.02l-.15-3h0s-.07-1.41-.07-1.41l-.06-1.17h11.3Z"/>
                <path class="cls-21" d="M54.34,44.07l-.05,1.03-.46,9.25-.03,.63h0s-.02,.43-.02,.43v.07s0,.04,0,.06c-.06,1.28-1.03,2.32-2.29,2.49-.12,.02-.24,.02-.37,.02h-4.61c-.12,0-.25,0-.37-.02-1.25-.17-2.23-1.21-2.29-2.49,0-.02,0-.04,0-.06v-.07l-.22-4.47-.08-1.5-.02-.45-.1-1.92v-.02l-.15-3h11.05Z"/>
                <path class="cls-21" d="M54.46,42.66h-11.29c-.4,0-.73-.33-.73-.73h0c0-.4,.33-.73,.73-.73h11.29c.4,0,.73,.33,.73,.73h0c0,.4-.33,.73-.73,.73Z"/>
              </g>
              <rect class="cls-5" x="45.29" y="47.88" width="7.06" height="3.19" rx="1.13" ry="1.13"/>
            </g>
            <g>
              <path class="cls-67" d="M74.82,68.28c-.14,.61-.51,1.19-1.08,1.55-6.03,3.82-13.13,4.82-19.98,2.82-.03,0-.06-.02-.08-.03-1.17-.38-1.89-1.64-1.62-2.71,.09-.35,.26-.64,.48-.87,.48-.49,1.2-.68,1.91-.48,6,1.76,12.22,.87,17.51-2.47,.56-.35,1.22-.41,1.77-.17,.36,.15,.67,.42,.89,.8,.27,.46,.33,1.02,.21,1.56Z"/>
              <g class="cls-33">
                <path class="cls-5" d="M73.72,65.92c-.17,.22-.37,.41-.62,.56-6.03,3.82-13.13,4.82-19.98,2.82-.03,0-.06-.02-.08-.03-.18-.06-.35-.14-.51-.24,.48-.49,1.2-.68,1.91-.48,6,1.76,12.22,.87,17.51-2.47,.56-.35,1.22-.41,1.77-.17Z"/>
              </g>
              <path class="cls-67" d="M74.69,74.37c-.13,.36-.35,.68-.64,.95-.11,.1-.22,.19-.35,.27-.17,.11-.35,.22-.53,.32-1.4,.84-2.85,1.54-4.34,2.07-1.17,.42-2.35,.76-3.55,.99-2.43,.48-4.93,.58-7.43,.28-1.38-.16-2.75-.44-4.12-.84-.13-.04-.25-.08-.37-.14-.28-.13-.53-.32-.73-.53h0c-.06-.07-.12-.14-.18-.22,0,0,0,0,0,0-.25-.33-.4-.7-.45-1.09,0-.01,0-.03,0-.05,0-.04,0-.09-.01-.13,0-.08,0-.17,0-.26,0-.1,.02-.21,.05-.31,.02-.08,.04-.15,.07-.23,.35-.94,1.34-1.4,2.31-1.12,1.58,.46,3.17,.74,4.76,.84,.9,.06,1.8,.06,2.69,0,2.84-.18,5.61-.94,8.21-2.26,.55-.28,1.09-.58,1.62-.91,.07-.04,.15-.09,.22-.14,.92-.58,2.1-.35,2.67,.63,.32,.55,.35,1.26,.1,1.89Z"/>
              <g class="cls-23">
                <path class="cls-10" d="M71.69,71.98c-.18,.49-.54,.88-.99,1.23-1.04,.81-2.07,1.44-3.08,1.94-.6,.29-1.18,.53-1.77,.74-.66,.23-1.32,.42-1.97,.56-2.5,.56-4.91,.58-7.18,.71-.77,.04-1.52,.11-2.25,.21-.24,.03-.48,.07-.72,.11-.14,.02-.29,.05-.43,.08-.22,.04-.44,.09-.67,.15h0c-.06-.07-.12-.14-.18-.22,0,0,0,0,0,0-.25-.33-.4-.7-.45-1.09,0-.01,0-.03,0-.05,0-.04,0-.09-.01-.13,0-.08,0-.17,0-.26,0-.1,.02-.21,.05-.31,.02-.08,.04-.15,.07-.23,.35-.94,1.34-1.4,2.31-1.12,1.58,.46,3.17,.74,4.76,.84,.9,.06,1.8,.06,2.69,0,2.84-.18,5.61-.94,8.21-2.26,.55-.28,1.09-.58,1.62-.91Z"/>
              </g>
              <g class="cls-23">
                <path class="cls-10" d="M73.61,68.59c-2.58,1.63-5.38,2.67-8.28,3.11,.57,.37,1.15,.73,1.72,1.09,2.32-.63,4.57-1.62,6.69-2.96,.57-.36,.95-.94,1.08-1.55-.41-.03-.83,.07-1.21,.31Z"/>
              </g>
              <path class="cls-1" d="M71.41,71.13s0,0,0,0c-.12,.63-.5,1.22-1.09,1.59-.09,.05-.17,.11-.26,.16-1.51,.93-3.08,1.69-4.69,2.26-.82,.3-1.65,.54-2.49,.74-2.29,.56-4.65,.77-7.02,.62-1.06-.06-2.13-.19-3.19-.4-.08-.01-.16-.03-.25-.05-.15-.02-.3-.06-.45-.09-.21-.04-.43-.1-.65-.15-.33-.08-.66-.17-.99-.27-1.22-.36-1.97-1.64-1.7-2.74,.11-.46,.37-.82,.7-1.07,.46-.35,1.08-.45,1.69-.28,.51,.15,1.02,.28,1.53,.39,5.52,1.2,11.15,.21,15.98-2.86,.64-.4,1.41-.41,2-.04,.26,.15,.49,.39,.66,.68,.04,.07,.08,.15,.11,.23,.16,.39,.19,.84,.1,1.27Z"/>
              <g class="cls-33">
                <path class="cls-5" d="M70.54,68.95c-.13,.14-.28,.26-.45,.37-6.02,3.82-13.13,4.82-19.98,2.82-.28-.08-.55-.22-.77-.39,.46-.34,1.08-.46,1.69-.28,6,1.76,12.23,.88,17.51-2.47,.64-.4,1.41-.41,2-.05Z"/>
              </g>
            </g>
            <g>
              <path class="cls-12" d="M77.19,79.81h0c-.04,.57-.2,1.11-.45,1.59-.13,.26-.29,.51-.47,.74-.1,.13-.21,.26-.33,.38-.79,.78-1.87,1.27-3.05,1.27h-18.85c-.06,0-.12,0-.18,0h-.04c-.06,0-.12,0-.18,0-1.37,0-2.6-.64-3.4-1.65-.05-.07-.11-.14-.16-.22t0,0c-.11-.16-.21-.33-.3-.51-.24-.46-.39-.98-.43-1.53,.13-1.64,1.18-3.03,2.64-3.64,0-.08,0-.17,0-.26-.21-.04-.43-.1-.65-.15,.24-.15,.5-.28,.77-.39,.48-.18,.99-.28,1.54-.28,.06,0,.12,0,.18,0h.04c.06,0,.12,0,.18,0h18.85c.4,0,.79,.05,1.17,.16-.11,.1-.22,.19-.35,.27-.17,.11-.35,.22-.53,.32,2.11,.14,3.82,1.81,4.01,3.91Z"/>
              <g>
                <path class="cls-67" d="M77.21,80.21c0,.69-.17,1.35-.46,1.93-.21,.41-.48,.79-.8,1.12-.79,.78-1.87,1.27-3.05,1.27h-18.85c-.06,0-.12,0-.18,0h-.04c-1.58-.08-2.96-1.03-3.64-2.38-.04-.07-.07-.15-.1-.22t0,0c-.23-.52-.35-1.1-.35-1.7,0-1.19,.48-2.27,1.27-3.05,.3-.3,.63-.55,1-.75,.22-.12,.44-.22,.69-.3,0,0,0,0,0,0,.36-.12,.74-.2,1.14-.22h.04c.06,0,.12,0,.18,0h18.85c.1,0,.2,0,.29,0,2.11,.14,3.82,1.81,4.01,3.91h0c.01,.13,.02,.27,.02,.4Z"/>
                <path class="cls-3" d="M69.28,80.02c0,.76-.18,1.48-.49,2.13-.48,1-1.29,1.83-2.31,2.39h-3.89c1.02-.56,1.83-1.39,2.31-2.39,.32-.65,.49-1.37,.49-2.13,0-1.67-.85-3.16-2.18-4.12h3.89c1.32,.97,2.17,2.45,2.17,4.12Z"/>
                <path class="cls-15" d="M76.74,82.15c-.21,.41-.48,.79-.8,1.12-.79,.78-1.87,1.27-3.05,1.27h-18.85c-.06,0-.12,0-.18,0h-.04c-.06,0-.12,0-.18,0-1.69,0-3.15-.97-3.87-2.39h26.97Z"/>
                <path class="cls-1" d="M57.96,80.21c0,.7-.16,1.35-.45,1.93-.34,.67-.84,1.23-1.45,1.65-.63,.43-1.38,.69-2.19,.74h-.04c-.06,0-.12,0-.18,0-1.69,0-3.15-.97-3.87-2.39-.29-.58-.45-1.23-.45-1.93,0-.11,0-.23,.01-.34,.13-1.64,1.18-3.03,2.64-3.64,.15-.06,.3-.12,.46-.16,.39-.11,.79-.17,1.21-.17,.06,0,.12,0,.18,0h.04c.73,.04,1.41,.26,2,.62,.3,.18,.58,.4,.83,.65,.56,.56,.97,1.27,1.15,2.07,.07,.31,.11,.64,.11,.97Z"/>
              </g>
              <g>
                <path class="cls-57" d="M53.44,77.95c0,.33-.27,.6-.6,.6s-.6-.27-.6-.6,.27-.6,.6-.6,.6,.27,.6,.6Z"/>
                <circle class="cls-57" cx="51.22" cy="79.86" r=".94"/>
                <path class="cls-57" d="M56.01,80.48c0,.25-.2,.45-.45,.45s-.45-.2-.45-.45,.2-.45,.45-.45,.45,.2,.45,.45Z"/>
                <path class="cls-57" d="M52.11,81.64c0,.25-.2,.45-.45,.45s-.45-.2-.45-.45,.2-.45,.45-.45,.45,.2,.45,.45Z"/>
                <path class="cls-57" d="M54.57,77.69c0,.25-.2,.45-.45,.45s-.45-.2-.45-.45,.2-.45,.45-.45,.45,.2,.45,.45Z"/>
                <path class="cls-57" d="M54.21,79.1c0,.16-.13,.29-.29,.29s-.29-.13-.29-.29,.13-.29,.29-.29,.29,.13,.29,.29Z"/>
                <path class="cls-57" d="M55.57,82.08c0,.71-.58,1.29-1.29,1.29s-1.29-.58-1.29-1.29,.58-1.29,1.29-1.29,1.29,.58,1.29,1.29Z"/>
              </g>
            </g>
            <g>
              <g>
                <g>
                  <path class="cls-29" d="M61.08,175.17c-3.41,0-4.35-.15-5.66-1.61-.75-.83-1.13-2.62,.11-3.81,.47-.45,1.15-.83,1.88-1.23,1.03-.57,2.21-1.23,2.83-2.16,.26-.39,.47-1.01,.7-1.67,.69-1.99,1.64-4.72,4.98-4.72,.1,0,.21,0,.31,0,2.05,.1,4.12,1.61,5.67,4.12,1.5,2.43,2.06,5.06,1.4,6.55l-.13,.29c-1.22,2.77-2.15,4.22-8.49,4.22-.81,0-1.52,0-2.17,0-.52,0-1,0-1.43,0Z"/>
                  <path class="cls-40" d="M72.31,163.84c-.46-.75-.97-1.41-1.5-1.98-1.38-1.45-2.97-2.3-4.56-2.38-.12,0-.23,0-.34,0-1.84,0-3.02,.76-3.84,1.77-.81,1.01-1.25,2.28-1.6,3.28-.22,.63-.43,1.23-.65,1.56-.56,.83-1.62,1.43-2.66,2-.75,.42-1.46,.81-1.98,1.31-1.47,1.41-1.02,3.52-.13,4.5,.56,.61,1.07,1.02,1.66,1.28,1.03,.46,2.28,.49,4.37,.49,.43,0,.91,0,1.44,0,.64,0,1.36,0,2.16,0,6.63,0,7.67-1.63,8.94-4.51l.12-.29c.84-1.88-.12-4.88-1.43-7.01Zm.53,6.61c-1.17,2.65-1.61,4.21-8.16,4.21-1.46,0-2.64,0-3.6,0-1.85,0-2.91-.04-3.69-.3-.64-.21-1.09-.56-1.61-1.15-.52-.58-1-2.08,.09-3.13,1.08-1.04,3.65-1.78,4.77-3.47,1.1-1.66,1.21-6.17,5.27-6.17,.1,0,.19,0,.29,0,1.75,.09,3.36,1.3,4.58,2.88,1.81,2.35,2.76,5.53,2.06,7.11Z"/>
                </g>
                <g>
                  <g>
                    <path class="cls-20" d="M68.08,163.96c0,.83-.67,1.5-1.5,1.5s-1.5-.67-1.5-1.5,.67-1.5,1.5-1.5,1.5,.67,1.5,1.5Z"/>
                    <path class="cls-40" d="M67.69,163.96c0,.61-.49,1.1-1.1,1.1s-1.1-.49-1.1-1.1,.49-1.1,1.1-1.1,1.1,.49,1.1,1.1Z"/>
                  </g>
                  <path class="cls-60" d="M67.28,163.96c0,.38-.31,.7-.7,.7s-.7-.31-.7-.7,.31-.7,.7-.7,.7,.31,.7,.7Z"/>
                </g>
              </g>
              <path class="cls-11" d="M73.74,170.85l-.12,.29c-1.27,2.88-2.3,4.51-8.94,4.51-.8,0-1.52,0-2.16,0-.53,0-1,0-1.44,0-2.09,0-3.34-.03-4.37-.49,.1-.13,.21-.26,.32-.4,.11-.13,.23-.26,.36-.39,1.32-1.37,3.62-2.87,7.44-2.68,4.84,.23,5.78-5.15,5.95-8.35,.01-.27,.02-.52,.03-.75,0-.28,0-.52,0-.73,.54,.57,1.04,1.24,1.5,1.98,1.32,2.13,2.27,5.13,1.43,7.01Z"/>
            </g>
            <g>
              <g>
                <g>
                  <path class="cls-29" d="M41.35,175.17c-3.41,0-4.35-.15-5.66-1.61-.75-.83-1.13-2.62,.11-3.81,.47-.45,1.15-.83,1.88-1.23,1.03-.57,2.21-1.23,2.83-2.16,.26-.39,.47-1.01,.7-1.67,.69-1.99,1.64-4.72,4.98-4.72,.1,0,.21,0,.31,0,2.05,.1,4.12,1.61,5.67,4.12,1.5,2.43,2.06,5.06,1.4,6.55l-.13,.29c-1.22,2.77-2.15,4.22-8.49,4.22-.81,0-1.52,0-2.17,0-.52,0-1,0-1.43,0Z"/>
                  <path class="cls-40" d="M52.59,163.84c-.46-.75-.97-1.41-1.5-1.98-1.38-1.45-2.97-2.3-4.56-2.38-.12,0-.23,0-.34,0-1.84,0-3.02,.76-3.84,1.77-.81,1.01-1.25,2.28-1.6,3.28-.22,.63-.43,1.23-.65,1.56-.56,.83-1.62,1.43-2.66,2-.75,.42-1.46,.81-1.98,1.31-1.47,1.41-1.02,3.52-.13,4.5,.56,.61,1.07,1.02,1.66,1.28,1.03,.46,2.28,.49,4.37,.49,.43,0,.91,0,1.44,0,.64,0,1.36,0,2.16,0,6.63,0,7.67-1.63,8.94-4.51l.12-.29c.84-1.88-.12-4.88-1.43-7.01Zm.53,6.61c-1.17,2.65-1.61,4.21-8.16,4.21-1.46,0-2.64,0-3.6,0-1.85,0-2.91-.04-3.69-.3-.64-.21-1.09-.56-1.61-1.15-.52-.58-1-2.08,.09-3.13,1.08-1.04,3.65-1.78,4.77-3.47,1.1-1.66,1.21-6.17,5.27-6.17,.1,0,.19,0,.29,0,1.75,.09,3.36,1.3,4.58,2.88,1.81,2.35,2.76,5.53,2.06,7.11Z"/>
                </g>
                <g>
                  <g>
                    <path class="cls-20" d="M48.36,163.96c0,.83-.67,1.5-1.5,1.5s-1.5-.67-1.5-1.5,.67-1.5,1.5-1.5,1.5,.67,1.5,1.5Z"/>
                    <circle class="cls-40" cx="46.86" cy="163.96" r="1.1"/>
                  </g>
                  <path class="cls-60" d="M47.56,163.96c0,.38-.31,.7-.7,.7s-.7-.31-.7-.7,.31-.7,.7-.7,.7,.31,.7,.7Z"/>
                </g>
              </g>
              <path class="cls-11" d="M54.02,170.85l-.12,.29c-1.27,2.88-2.3,4.51-8.94,4.51-.8,0-1.52,0-2.16,0-.53,0-1,0-1.44,0-2.09,0-3.34-.03-4.37-.49,.1-.13,.21-.26,.32-.4,.11-.13,.23-.26,.36-.39,1.32-1.37,3.62-2.87,7.44-2.68,4.84,.23,5.78-5.15,5.95-8.35,.01-.27,.02-.52,.03-.75,0-.28,0-.52,0-.73,.54,.57,1.04,1.24,1.5,1.98,1.31,2.13,2.27,5.13,1.43,7.01Z"/>
            </g>
            <g>
              <g>
                <g>
                  <path class="cls-29" d="M21.63,175.17c-3.41,0-4.35-.15-5.66-1.61-.75-.83-1.13-2.62,.11-3.81,.47-.45,1.15-.83,1.88-1.23,1.03-.57,2.21-1.23,2.83-2.16,.26-.39,.47-1.01,.7-1.67,.69-1.99,1.64-4.72,4.98-4.72,.1,0,.21,0,.31,0,2.05,.1,4.12,1.61,5.67,4.12,1.5,2.43,2.06,5.06,1.4,6.55l-.13,.29c-1.22,2.77-2.15,4.22-8.49,4.22-.81,0-1.52,0-2.17,0-.52,0-1,0-1.43,0Z"/>
                  <path class="cls-40" d="M32.87,163.84c-.46-.75-.97-1.41-1.5-1.98-1.38-1.45-2.97-2.3-4.56-2.38-.12,0-.23,0-.34,0-1.84,0-3.02,.76-3.84,1.77-.81,1.01-1.25,2.28-1.6,3.28-.22,.63-.43,1.23-.65,1.56-.56,.83-1.62,1.43-2.66,2-.75,.42-1.46,.81-1.98,1.31-1.47,1.41-1.02,3.52-.13,4.5,.56,.61,1.07,1.02,1.66,1.28,1.03,.46,2.28,.49,4.37,.49,.43,0,.91,0,1.44,0,.64,0,1.36,0,2.16,0,6.63,0,7.67-1.63,8.94-4.51l.12-.29c.84-1.88-.12-4.88-1.43-7.01Zm.53,6.61c-1.17,2.65-1.61,4.21-8.16,4.21-1.46,0-2.64,0-3.6,0-1.85,0-2.91-.04-3.69-.3-.64-.21-1.09-.56-1.61-1.15-.52-.58-1-2.08,.09-3.13,1.08-1.04,3.65-1.78,4.77-3.47,1.1-1.66,1.21-6.17,5.27-6.17,.1,0,.19,0,.29,0,1.75,.09,3.36,1.3,4.58,2.88,1.81,2.35,2.76,5.53,2.06,7.11Z"/>
                </g>
                <g>
                  <g>
                    <circle class="cls-20" cx="27.14" cy="163.96" r="1.5"/>
                    <path class="cls-40" d="M28.24,163.96c0,.61-.49,1.1-1.1,1.1s-1.1-.49-1.1-1.1,.49-1.1,1.1-1.1,1.1,.49,1.1,1.1Z"/>
                  </g>
                  <circle class="cls-60" cx="27.14" cy="163.96" r=".7"/>
                </g>
              </g>
              <path class="cls-11" d="M34.3,170.85l-.12,.29c-1.27,2.88-2.3,4.51-8.94,4.51-.8,0-1.52,0-2.16,0-.53,0-1,0-1.44,0-2.09,0-3.34-.03-4.37-.49,.1-.13,.21-.26,.32-.4,.11-.13,.23-.26,.36-.39,1.32-1.37,3.62-2.87,7.44-2.68,4.84,.23,5.78-5.15,5.95-8.35,.01-.27,.02-.52,.03-.75,0-.28,0-.52,0-.73,.54,.57,1.04,1.24,1.5,1.98,1.31,2.13,2.27,5.13,1.43,7.01Z"/>
            </g>
            <g>
              <path class="cls-25" d="M40.18,82.56h-13.29l-13.28-.27c.01-.58,.06-1.16,.15-1.72,.97-6.37,6.53-11.29,13.13-11.29,2.02,0,3.94,.46,5.67,1.28,.91,.44,1.76,.97,2.54,1.59,.35,.27,.68,.57,1.01,.88,.68,.65,1.29,1.38,1.82,2.17,.24,.36,.46,.73,.67,1.11,0,0,.01,.02,.02,.03,.17,.32,.33,.65,.47,.98,.45,1.03,.77,2.12,.95,3.26,.1,.65,.15,1.32,.15,1.99Z"/>
              <path class="cls-34" d="M40.71,83.73h-13.29l-13.28-.27c.01-.58,.08-1.16,.15-1.72,.87-7.32,8.07-12.63,14.66-12.3,2.26,.11,6.31,2.62,7.08,3.24,.35,.27,.28,1.21,.6,1.52,.68,.65,1.29,1.38,1.82,2.17,.24,.36,.46,.73,.67,1.11,0,0,.01,.02,.02,.03,.17,.32,.33,.65,.47,.98,.45,1.03,.77,2.12,.95,3.26,.1,.65,.15,1.32,.15,1.99Z"/>
              <path class="cls-34" d="M45.53,82.36v.21h-15.47v-6.23h9.45c2.7,0,4.99,1.78,5.75,4.24,.18,.56,.27,1.17,.27,1.79Z"/>
              <g class="cls-33">
                <path class="cls-10" d="M47.1,68.97c0,.41-.17,.82-.48,1.11-.3-.12-.58-.32-.78-.59l-.11,.06-3.06,1.9-.09,.06c0,.48-.14,.95-.39,1.36l-3.08,1.91-.04,.03-.52,.33c-.72,.44-1.67,.22-2.12-.49-.17-.27-.24-.57-.22-.87,.02-.49,.27-.96,.72-1.24l.53-.33,.38-.24,3.29-2.04,.63-.39,2.74-1.7,.27-.16s.06-.04,.1-.05c.26-.14,.55-.2,.83-.17,.3,.02,.6,.13,.84,.33,.02,0,.03,.02,.05,.04,.1,.08,.18,.18,.25,.28,.02,.02,.03,.05,.05,.07,.1,.15,.16,.32,.19,.49,.03,.11,.04,.22,.04,.32Z"/>
                <g>
                  <path class="cls-10" d="M39.11,75.13c.04,.4,.03,.8-.01,1.2h-9.04v5.27c-.68-.46-1.28-1.06-1.74-1.81-.39-.63-.65-1.31-.79-1.99,0,0,0,0,0,0-.47-2.38,.54-4.9,2.72-6.26,.76-.47,1.59-.76,2.42-.86,.03,0,.07,0,.1,0,.95-.11,1.9,.02,2.78,.36,.35,.13,.68,.3,1,.49,.04,.02,.07,.04,.11,.06,.28,.18,.55,.39,.8,.62,.4,.36,.76,.79,1.05,1.27,.09,.14,.17,.28,.24,.43,.11,.2,.2,.41,.27,.62,.04,.09,.07,.18,.09,.27,.04,.1,.07,.19,.09,.29l-.09,.06Z"/>
                  <path class="cls-10" d="M39.41,76.33c.03,.49-.01,.99-.11,1.47t0,0c-.31,1.56-1.25,3-2.71,3.91-.73,.46-1.52,.73-2.32,.84-.55,.08-1.12,.08-1.66,0-.9-.12-1.77-.45-2.53-.97v-5.27h9.34Z"/>
                </g>
                <path class="cls-10" d="M49.15,68.32c.01,.63-.3,1.25-.87,1.6-.52,.32-1.13,.36-1.66,.15-.3-.12-.58-.32-.78-.59l-.11,.06c0-.08-.02-.15-.02-.23,0-.16,.02-.33,.05-.49,.1-.37,.3-.71,.61-.96,.05-.04,.09-.07,.14-.1,.03-.03,.05-.04,.07-.05,.06-.04,.12-.07,.18-.1,.1-.05,.2-.09,.31-.11,.29-.08,.6-.09,.88-.02,.48,.1,.91,.39,1.19,.83,0,0,0,0,0,0Z"/>
              </g>
              <g>
                <path class="cls-46" d="M46.83,68.02s0,.05,0,.07c0,.26-.08,.51-.22,.73-.12,.2-.29,.37-.5,.5l-.26,.16-.11,.06-2.73,1.7-.33,.2-.09,.06-3.74,2.32-.09,.05-.47,.3c-.69,.43-1.6,.24-2.07-.42-.02-.03-.03-.05-.05-.07-.25-.41-.29-.89-.14-1.31,.11-.32,.32-.61,.63-.8h0s.52-.33,.52-.33l2.28-1.41,1.39-.86,.33-.21,3.03-1.88,.11-.06,.16-.1c.46-.28,1.01-.3,1.47-.07,.1,.05,.2,.11,.29,.18,.14,.1,.25,.23,.35,.38,.08,.13,.14,.27,.18,.41,0,.03,.02,.05,.02,.08,.03,.11,.04,.21,.04,.32Z"/>
                <g>
                  <path class="cls-12" d="M43,71.25l-.33,.2-.09,.06-3.74,2.32-.09,.05-.47,.3c-.69,.43-1.6,.24-2.07-.42-.02-.03-.03-.05-.05-.07-.25-.41-.29-.89-.14-1.31,.11-.32,.32-.61,.63-.8h0s.52-.33,.52-.33l2.28-1.41,1.39-.86,.33-.21s.06,.02,.09,.03c.18,.07,.35,.15,.51,.26,.14,.08,.27,.19,.38,.3,.16,.15,.31,.33,.44,.53,.22,.36,.35,.76,.39,1.15,0,.07,.01,.14,.01,.21Z"/>
                  <path class="cls-25" d="M39.1,76.33c-.03,.25-.07,.49-.13,.73,0,.04-.02,.07-.03,.11-.37,1.45-1.28,2.76-2.64,3.6-1.97,1.22-4.38,1.17-6.24,.05-.79-.47-1.49-1.14-2.01-1.98-.21-.34-.38-.69-.52-1.05h0c-.05-.15-.1-.29-.14-.43-.74-2.52,.25-5.33,2.59-6.77,.39-.24,.8-.44,1.22-.57,0,0,.02,0,.03,0,1.7-.58,3.56-.35,5.06,.57,.32,.19,.63,.42,.9,.68,.1,.09,.2,.19,.3,.29,.12,.13,.24,.27,.36,.42,.14,.18,.27,.36,.4,.56,.26,.42,.46,.87,.61,1.32,.08,.22,.14,.45,.18,.68,.02,.1,.04,.2,.05,.3,.02,.11,.03,.22,.04,.33,.04,.4,.03,.8-.01,1.2Z"/>
                  <path class="cls-25" d="M42.59,71.47v.04c0,.48-.14,.95-.39,1.36-.21,.35-.51,.66-.88,.9l-2.11,1.31-.09,.06-.88,.54-.19,.11-.86,.54-.92,.57c-1.15,.71-2.64,.45-3.48-.57-.08-.09-.15-.19-.22-.3-.04-.07-.08-.14-.12-.22-.19-.39-.29-.8-.28-1.22,0-.89,.46-1.76,1.26-2.26l1.05-.65h.02s1.05-.66,1.05-.66l.72-.45,2.2-1.37c.73-.46,1.61-.52,2.37-.23,.2,.07,.39,.17,.56,.29,.12,.08,.23,.16,.33,.27,.16,.15,.31,.33,.44,.53,.22,.36,.35,.76,.39,1.15,0,.08,.01,.17,.01,.25Z"/>
                </g>
                <g>
                  <path class="cls-46" d="M47.69,66.54h0c-.11,.45-.4,.86-.82,1.12-.03,.02-.05,.03-.08,.05-.41,.22-.86,.28-1.28,.19h0c-.33-.07-.64-.23-.9-.47-.11-.11-.21-.23-.3-.36-.03-.05-.07-.11-.1-.17-.41-.84-.12-1.87,.7-2.38,.87-.54,2.01-.27,2.56,.6,.11,.17,.18,.35,.23,.54,.07,.3,.07,.6,0,.9Z"/>
                  <path class="cls-46" d="M49.15,68.32c.01,.63-.3,1.25-.87,1.6-.52,.32-1.13,.36-1.66,.15-.3-.12-.58-.32-.78-.59-.05-.05-.08-.11-.12-.16,0,0,0,0,0,0-.11-.18-.19-.38-.23-.57-.06-.29-.05-.58,.02-.86h0c.04-.16,.1-.31,.18-.45,.14-.24,.32-.45,.56-.61,.03-.02,.05-.04,.08-.05,.43-.26,.92-.33,1.37-.24h0c.1,.02,.19,.05,.29,.08,.36,.14,.68,.39,.9,.75,.19,.3,.27,.62,.28,.95Z"/>
                </g>
              </g>
              <path class="cls-12" d="M45.53,82.36v.21H26.9l-13.28-.27c.01-.58,.06-1.16,.15-1.72h31.5c.18,.56,.27,1.17,.27,1.79Z"/>
              <polygon class="cls-46" points="48.32 81.16 45.02 84.54 14.74 84.54 11.81 81.16 48.32 81.16"/>
              <path class="cls-9" d="M47.7,65.64s-1.35-.55-2.14,0c-.71,.48-.67,1.33-1,1.71l-2.77,1.71-.37,.21s-2.55,1.7-3.94,2.27c-1.38,.57-3.13-.96-5.95,.44-2.79,1.38-4.13,5.39-4.13,5.39-.74-2.52,.25-5.33,2.59-6.77,.39-.24,.8-.44,1.22-.57,0,0,.02,0,.03,0,1.7-.58,3.56-.35,5.06,.57l2.2-1.37c.73-.46,1.61-.52,2.37-.23l.33-.21,3.03-1.88c-.41-.84-.12-1.87,.7-2.38,.87-.54,2.01-.27,2.56,.6,.11,.17,.18,.35,.23,.54Z"/>
              <path class="cls-11" d="M48.32,81.16l-3.3,3.38h-15.43c2.58-.35,5.82-.9,8.21-1.69,1.36-.45,2.36-1.07,3.09-1.69h7.43Z"/>
            </g>
            <g>
              <g>
                <g>
                  <path class="cls-35" d="M30.95,154.98c.09,.54-.45,.96-.96,.75l-4.88-2.04-3.06-1.28,8.09-2.48,.4,2.51,.41,2.53Z"/>
                  <path class="cls-35" d="M21.97,142.88l7.88-3.46c.5-.22,1.05,.2,.97,.74l-.72,5.06-8.13-2.33Z"/>
                </g>
                <path class="cls-13" d="M30.55,152.45c-1.62,.73-3.33,1.25-4.88,1.26-.18,0-.37,0-.56-.02l-3.06-1.28,8.09-2.48,.4,2.51Z"/>
                <path class="cls-35" d="M40.46,151.24l-5.6-1.67-.04-4.11,5.57-1.76c.49-.16,1,.21,1,.73l.05,6.07c0,.52-.49,.89-.99,.75Z"/>
                <rect class="cls-32" x="34.23" y="146.63" width="7.2" height="1.72" transform="translate(-1.33 .35) rotate(-.52)"/>
                <path class="cls-64" d="M37.71,147.49s-6.88,5.72-12.04,5.77c-1.84,.02-3.91-.68-5.81-1.59-2.05-.97-3.9-2.19-5.06-3.01-.66-.46-.67-1.44-.02-1.91,2.22-1.63,6.98-4.76,10.79-4.8,2.41-.02,5.21,1.18,7.51,2.47,2.64,1.48,4.63,3.08,4.63,3.08Z"/>
                <path class="cls-35" d="M20.77,146.66c0,.42-.34,.77-.76,.77-.42,0-.77-.34-.77-.76,0-.42,.34-.77,.76-.77,.42,0,.77,.34,.77,.76Z"/>
                <path class="cls-11" d="M37.71,147.49s-6.88,5.72-12.04,5.77c-1.84,.02-3.91-.68-5.81-1.59,4.15-.02,10.32-.2,12.09-2.1,1.98-2.12,1.13-5.15,1.13-5.15,2.64,1.48,4.63,3.08,4.63,3.08Z"/>
              </g>
              <g>
                <g>
                  <path class="cls-35" d="M64.01,154.98c.09,.54-.45,.96-.96,.75l-4.88-2.04-3.06-1.28,8.09-2.48,.4,2.51,.41,2.53Z"/>
                  <path class="cls-35" d="M55.03,142.88l7.88-3.46c.5-.22,1.05,.2,.97,.74l-.72,5.06-8.13-2.33Z"/>
                </g>
                <path class="cls-13" d="M63.6,152.45c-1.62,.73-3.33,1.25-4.88,1.26-.18,0-.37,0-.56-.02l-3.06-1.28,8.09-2.48,.4,2.51Z"/>
                <path class="cls-35" d="M73.52,151.24l-5.6-1.67-.04-4.11,5.57-1.76c.49-.16,1,.21,1,.73l.05,6.07c0,.52-.49,.89-.99,.75Z"/>
                <rect class="cls-32" x="67.29" y="146.63" width="7.2" height="1.72" transform="translate(-1.33 .64) rotate(-.52)"/>
                <path class="cls-64" d="M70.77,147.49s-6.88,5.72-12.04,5.77c-1.84,.02-3.91-.68-5.81-1.59-2.05-.97-3.9-2.19-5.06-3.01-.66-.46-.67-1.44-.02-1.91,2.22-1.63,6.98-4.76,10.79-4.8,2.41-.02,5.21,1.18,7.51,2.47,2.64,1.48,4.63,3.08,4.63,3.08Z"/>
                <path class="cls-35" d="M53.82,146.66c0,.42-.34,.77-.76,.77-.42,0-.77-.34-.77-.76,0-.42,.34-.77,.76-.77,.42,0,.77,.34,.77,.76Z"/>
                <path class="cls-11" d="M70.77,147.49s-6.88,5.72-12.04,5.77c-1.84,.02-3.91-.68-5.81-1.59,4.15-.02,10.32-.2,12.09-2.1,1.98-2.12,1.13-5.15,1.13-5.15,2.64,1.48,4.63,3.08,4.63,3.08Z"/>
              </g>
            </g>
            <g>
              <g>
                <path class="cls-67" d="M74.68,54.23h0c0,.61-.49,1.1-1.08,1.1h-.28s-2.41,0-2.41,0l-10.55,.03c-.59,0-1.08-.48-1.09-1.07h0c0-.61,.49-1.1,1.08-1.1h.27s10.79-.03,10.79-.03h1.92s.02,0,.02,0h.25c.59,0,1.08,.48,1.09,1.07Z"/>
                <path class="cls-67" d="M74.67,49.38h0c0,.59-.46,1.07-1.03,1.1-.02,0-.04,0-.05,0h-2.23s-11.02,.03-11.02,.03c-.01,0-.03,0-.04,0-.57-.02-1.04-.49-1.05-1.07h0c0-.38,.18-.7,.46-.9,.18-.13,.39-.2,.62-.2l10.47-.03h2.78c.23,0,.45,.07,.63,.19,.28,.19,.46,.51,.46,.87Z"/>
                <path class="cls-54" d="M64.08,50.42c.87,0,1.33-.33,1.71-.6,.33-.24,.6-.43,1.17-.43,.57,0,.84,.19,1.17,.42,.37,.26,.84,.59,1.71,.59,.87,0,1.33-.33,1.7-.6,.33-.24,.6-.43,1.17-.43,.25,0,.46-.21,.46-.46,0-.25-.21-.46-.46-.46-.87,0-1.33,.33-1.7,.6-.33,.24-.6,.43-1.17,.43-.57,0-.84-.19-1.17-.42-.37-.26-.84-.59-1.71-.59-.87,0-1.33,.33-1.7,.6-.33,.24-.6,.43-1.17,.43-.57,0-.84-.19-1.17-.42-.37-.26-.84-.59-1.71-.59-.25,0-.46,.21-.46,.46,0,.25,.21,.46,.46,.46,.57,0,.84,.19,1.17,.42,.37,.26,.84,.59,1.71,.59Z"/>
                <path class="cls-54" d="M64.1,55.25c.87,0,1.33-.33,1.7-.6,.33-.24,.6-.43,1.17-.43,.57,0,.84,.19,1.17,.42,.37,.26,.84,.59,1.71,.59,.87,0,1.33-.33,1.7-.6,.33-.24,.6-.43,1.17-.43,.25,0,.46-.21,.46-.46,0-.25-.21-.46-.46-.46-.87,0-1.33,.33-1.7,.6-.33,.24-.6,.43-1.17,.43-.57,0-.84-.19-1.17-.42-.37-.26-.84-.59-1.71-.59-.87,0-1.33,.33-1.7,.6-.33,.24-.6,.43-1.17,.43-.57,0-.84-.19-1.17-.42-.37-.26-.84-.59-1.71-.59-.25,0-.46,.21-.46,.46,0,.25,.21,.46,.46,.46,.57,0,.84,.19,1.17,.42,.37,.26,.84,.59,1.71,.59Z"/>
                <path class="cls-45" d="M74.69,56.68v.02c0,.75-.61,1.37-1.36,1.37h-3.8s-8.89,.03-8.89,.03c-.74,0-1.36-.6-1.37-1.34v-.02c0-.75,.61-1.37,1.36-1.37l10.27-.03h0s2.41,0,2.41,0c.75,0,1.36,.6,1.37,1.34Z"/>
                <path class="cls-45" d="M74.68,51.78v.02c0,.74-.6,1.35-1.34,1.36h-.02s-1.92,0-1.92,0l-10.79,.03c-.74,0-1.35-.6-1.36-1.34v-.02c0-.64,.44-1.18,1.04-1.32,.1-.03,.21-.04,.31-.04l10.74-.03h1.96c.11,0,.22,0,.33,.03,.59,.14,1.02,.67,1.03,1.3Z"/>
                <path class="cls-45" d="M74.21,48.52s-.05,0-.08,0c-.17,0-.59,0-1.16,0-.28,0-.59,0-.93,0-.37,0-.77,0-1.17,0-1.22,0-2.48,0-3.25,0-.32,0-.55,0-.66,0-.11,0-.35,0-.68,0-1.02,0-2.9,0-4.39,.01-.34,0-.66,0-.95,0-.56,0-.99,0-1.16,0-.03,0-.05,0-.08,0-.68-.11-.86-1.75,.38-2.92,1.52-1.44,4.61-1.99,6.85-1.99,.36,0,.74,.01,1.14,.04,2.06,.15,4.44,.72,5.72,1.92,1.24,1.16,1.08,2.8,.4,2.92Z"/>
              </g>
              <path class="cls-11" d="M74.67,49.38h0c0,.59-.46,1.07-1.03,1.1,.59,.14,1.02,.67,1.03,1.3v.02c0,.74-.6,1.35-1.34,1.36h.25c.59,0,1.08,.48,1.09,1.07h0c0,.61-.49,1.1-1.08,1.1h-.28c.75,0,1.36,.6,1.37,1.34v.02c0,.75-.61,1.37-1.36,1.37h-3.8c.5-.73,1.01-1.65,1.38-2.73h0c.05-.13,.09-.26,.12-.38,.13-.41,.23-.84,.3-1.3,.03-.16,.05-.33,.07-.5,.05-.35,.07-.71,.07-1.08,0-.55-.04-1.08-.12-1.59,0-.01,0-.03,0-.04-.03-.16-.05-.31-.09-.46-.06-.33-.14-.65-.24-.95-.05-.17-.1-.34-.16-.51-.03-.07-.05-.14-.07-.21-.77-2.14-2.02-3.82-2.71-4.64,2.06,.15,4.44,.72,5.72,1.92,1.24,1.16,1.08,2.8,.4,2.92,.28,.19,.46,.51,.46,.87Z"/>
            </g>
            <g>
              <g>
                <path class="cls-61" d="M20.26,27.36c0,.14,0,.28-.02,.41-.01,.17-.04,.33-.06,.49,0,0,0,.01,0,.01-.05,.27-.13,.54-.22,.78-.22,.59-.57,1.09-.98,1.44-.42,.35-.91,.55-1.44,.55s-1.02-.2-1.44-.55c-.42-.35-.76-.85-.98-1.44-.05-.12-.1-.26-.13-.39h0c-.04-.13-.06-.26-.09-.39-.03-.15-.05-.3-.06-.45-.02-.15-.02-.31-.02-.47,0-.1,0-.2,.01-.3,.11-1.9,1.29-3.4,2.72-3.4s2.61,1.49,2.72,3.4c0,.1,.01,.2,.01,.3Z"/>
                <path class="cls-61" d="M27.01,27.36c0,.14,0,.28-.02,.41-.01,.17-.04,.33-.06,.49,0,0,0,.01,0,.01-.05,.27-.13,.54-.22,.78-.22,.59-.57,1.09-.98,1.44-.42,.35-.91,.55-1.44,.55s-1.02-.2-1.44-.55c-.42-.35-.76-.85-.98-1.44-.09-.23-.17-.48-.22-.74h0s0-.03,0-.04c-.03-.17-.05-.33-.07-.51-.01-.14-.02-.27-.02-.41,0-.1,0-.2,.01-.3,.11-1.9,1.29-3.4,2.72-3.4s2.61,1.49,2.72,3.4c0,.1,.01,.2,.01,.3Z"/>
                <path class="cls-61" d="M33.77,27.36c0,.14,0,.28-.02,.41-.01,.17-.04,.33-.06,.49,0,0,0,.01,0,.01-.05,.27-.13,.54-.22,.78-.22,.59-.57,1.09-.98,1.44-.42,.35-.91,.55-1.44,.55s-1.02-.2-1.44-.55c-.42-.35-.76-.85-.98-1.44-.1-.25-.17-.51-.22-.78,0,0,0-.01,0-.01-.03-.16-.05-.32-.06-.49-.01-.14-.02-.27-.02-.41,0-.1,0-.2,.01-.3,.11-1.9,1.29-3.4,2.72-3.4s2.61,1.49,2.72,3.4c0,.1,.01,.2,.01,.3Z"/>
                <path class="cls-61" d="M40.52,27.36c0,.14,0,.28-.02,.41-.01,.17-.04,.34-.07,.51,0,.01,0,.02,0,.04h0c-.05,.27-.12,.52-.22,.75-.22,.59-.57,1.09-.98,1.44-.42,.35-.91,.55-1.44,.55s-1.02-.2-1.44-.55c-.42-.35-.76-.85-.98-1.44-.1-.25-.17-.51-.22-.78,0,0,0-.01,0-.01-.03-.16-.05-.32-.06-.49-.01-.14-.02-.27-.02-.41,0-.1,0-.2,.01-.3,.11-1.9,1.29-3.4,2.72-3.4s2.61,1.49,2.72,3.4c0,.1,.01,.2,.01,.3Z"/>
                <path class="cls-61" d="M47.28,27.36c0,.16,0,.32-.02,.47-.01,.15-.03,.31-.06,.45-.02,.13-.05,.26-.09,.38h0c-.04,.14-.08,.28-.13,.4-.22,.59-.57,1.09-.98,1.44-.42,.35-.91,.55-1.44,.55s-1.02-.2-1.44-.55c-.42-.35-.76-.85-.98-1.44-.1-.25-.17-.51-.22-.78,0,0,0-.01,0-.01-.03-.16-.05-.32-.06-.49-.01-.14-.02-.27-.02-.41,0-.1,0-.2,.01-.3,.11-1.9,1.29-3.4,2.72-3.4s2.61,1.49,2.72,3.4c0,.1,.01,.2,.01,.3Z"/>
              </g>
              <g>
                <path class="cls-27" d="M20.26,28.02c0,.14,0,.28-.02,.41-.01,.17-.04,.33-.06,.49,0,0,0,.01,0,.01-.05,.27-.13,.54-.22,.78-.22,.59-.57,1.09-.98,1.44-.42,.35-.91,.55-1.44,.55s-1.02-.2-1.44-.55c-.42-.35-.76-.85-.98-1.44-.05-.12-.1-.26-.13-.39h0c-.04-.13-.06-.26-.09-.39-.03-.15-.05-.3-.06-.45-.02-.15-.02-.31-.02-.47,0-.1,0-.2,.01-.3,.11-1.9,1.29-3.4,2.72-3.4s2.61,1.49,2.72,3.4c0,.1,.01,.2,.01,.3Z"/>
                <path class="cls-27" d="M27.01,28.02c0,.14,0,.28-.02,.41-.01,.17-.04,.33-.06,.49,0,0,0,.01,0,.01-.05,.27-.13,.54-.22,.78-.22,.59-.57,1.09-.98,1.44-.42,.35-.91,.55-1.44,.55s-1.02-.2-1.44-.55c-.42-.35-.76-.85-.98-1.44-.09-.23-.17-.48-.22-.74h0s0-.03,0-.04c-.03-.17-.05-.33-.07-.51-.01-.14-.02-.27-.02-.41,0-.1,0-.2,.01-.3,.11-1.9,1.29-3.4,2.72-3.4s2.61,1.49,2.72,3.4c0,.1,.01,.2,.01,.3Z"/>
                <path class="cls-27" d="M33.77,28.02c0,.14,0,.28-.02,.41-.01,.17-.04,.33-.06,.49,0,0,0,.01,0,.01-.05,.27-.13,.54-.22,.78-.22,.59-.57,1.09-.98,1.44-.42,.35-.91,.55-1.44,.55s-1.02-.2-1.44-.55c-.42-.35-.76-.85-.98-1.44-.1-.25-.17-.51-.22-.78,0,0,0-.01,0-.01-.03-.16-.05-.32-.06-.49-.01-.14-.02-.27-.02-.41,0-.1,0-.2,.01-.3,.11-1.9,1.29-3.4,2.72-3.4s2.61,1.49,2.72,3.4c0,.1,.01,.2,.01,.3Z"/>
                <path class="cls-27" d="M40.52,28.02c0,.14,0,.28-.02,.41-.01,.17-.04,.34-.07,.51,0,.01,0,.02,0,.04h0c-.05,.27-.12,.52-.22,.75-.22,.59-.57,1.09-.98,1.44-.42,.35-.91,.55-1.44,.55s-1.02-.2-1.44-.55c-.42-.35-.76-.85-.98-1.44-.1-.25-.17-.51-.22-.78,0,0,0-.01,0-.01-.03-.16-.05-.32-.06-.49-.01-.14-.02-.27-.02-.41,0-.1,0-.2,.01-.3,.11-1.9,1.29-3.4,2.72-3.4s2.61,1.49,2.72,3.4c0,.1,.01,.2,.01,.3Z"/>
                <path class="cls-27" d="M47.28,28.02c0,.16,0,.32-.02,.47-.01,.15-.03,.31-.06,.45-.02,.13-.05,.26-.09,.38h0c-.04,.14-.08,.28-.13,.4-.22,.59-.57,1.09-.98,1.44-.42,.35-.91,.55-1.44,.55s-1.02-.2-1.44-.55c-.42-.35-.76-.85-.98-1.44-.1-.25-.17-.51-.22-.78,0,0,0-.01,0-.01-.03-.16-.05-.32-.06-.49-.01-.14-.02-.27-.02-.41,0-.1,0-.2,.01-.3,.11-1.9,1.29-3.4,2.72-3.4s2.61,1.49,2.72,3.4c0,.1,.01,.2,.01,.3Z"/>
              </g>
              <g>
                <g>
                  <polygon class="cls-46" points="20.3 28.92 20.3 28.94 20.06 31.16 19.95 32.24 19.59 35.6 15.63 35.6 15.27 32.24 15.16 31.16 14.92 28.94 14.92 28.92 20.3 28.92"/>
                  <polygon class="cls-46" points="27.01 28.92 27.01 28.94 26.77 31.16 26.66 32.24 26.3 35.6 22.34 35.6 21.98 32.24 21.87 31.16 21.63 28.94 21.63 28.92 27.01 28.92"/>
                  <polygon class="cls-46" points="33.72 28.92 33.72 28.94 33.48 31.16 33.37 32.24 33.01 35.6 29.06 35.6 28.7 32.24 28.58 31.16 28.34 28.94 28.34 28.92 33.72 28.92"/>
                  <polygon class="cls-46" points="40.43 28.92 40.43 28.94 40.2 31.16 40.08 32.24 39.72 35.6 35.76 35.6 35.41 32.24 35.29 31.16 35.05 28.94 35.05 28.92 40.43 28.92"/>
                  <polygon class="cls-46" points="47.14 28.92 47.14 28.94 46.9 31.16 46.79 32.24 46.43 35.6 42.48 35.6 42.12 32.24 42 31.16 41.77 28.94 41.77 28.92 47.14 28.92"/>
                </g>
                <polygon class="cls-36" points="47.33 28.94 46.9 31.16 46.79 32.24 42.12 32.24 42 31.16 40.2 31.16 40.08 32.24 35.41 32.24 35.29 31.16 33.48 31.16 33.37 32.24 28.7 32.24 28.58 31.16 26.77 31.16 26.66 32.24 21.98 32.24 21.87 31.16 20.06 31.16 19.95 32.24 15.27 32.24 15.16 31.16 14.74 28.94 47.33 28.94"/>
                <path class="cls-55" d="M48.22,29.8c0,.09,0,.17-.02,.26-.12,.62-.65,1.09-1.3,1.11-.01,0-.03,0-.05,0H15.21s-.03,0-.05,0c-.65-.02-1.18-.49-1.3-1.11-.01-.08-.02-.17-.02-.26,0-.02,0-.05,0-.08,.02-.35,.17-.66,.4-.89,.16-.16,.35-.28,.57-.34,.12-.04,.26-.06,.39-.06h31.65c.14,0,.27,.02,.39,.06,.11,.03,.2,.08,.3,.13,.41,.24,.68,.68,.68,1.18Z"/>
                <path class="cls-46" d="M48.2,30.05c-.12,.62-.65,1.09-1.3,1.11-.01,0-.03,0-.05,0H15.21s-.03,0-.05,0c-.65-.02-1.18-.49-1.3-1.11,.05-.28,.18-.54,.38-.73,.16-.16,.35-.28,.57-.34,.12-.04,.26-.06,.39-.06h31.65c.14,0,.27,.02,.39,.06,.11,.03,.2,.08,.3,.13,.34,.2,.59,.54,.65,.94Z"/>
              </g>
              <path class="cls-11" d="M20.26,28.02c0,.14,0,.28-.02,.41h-5.03c-.14,0-.27,.02-.39,.06-.02-.15-.02-.31-.02-.47,0-.1,0-.2,.01-.3h5.45c0,.1,.01,.2,.01,.3Z"/>
              <path class="cls-11" d="M27.01,28.02c0,.14,0,.28-.02,.41h-5.43c-.01-.14-.02-.27-.02-.41,0-.1,0-.2,.01-.3h5.45c0,.1,.01,.2,.01,.3Z"/>
              <path class="cls-11" d="M33.77,28.02c0,.14,0,.28-.02,.41h-5.43c-.01-.14-.02-.27-.02-.41,0-.1,0-.2,.01-.3h5.45c0,.1,.01,.2,.01,.3Z"/>
              <path class="cls-11" d="M40.52,28.02c0,.14,0,.28-.02,.41h-5.43c-.01-.14-.02-.27-.02-.41,0-.1,0-.2,.01-.3h5.45c0,.1,.01,.2,.01,.3Z"/>
              <path class="cls-11" d="M47.28,28.02c0,.16,0,.32-.02,.47-.12-.04-.26-.06-.39-.06h-5.03c-.01-.14-.02-.27-.02-.41,0-.1,0-.2,.01-.3h5.45c0,.1,.01,.2,.01,.3Z"/>
            </g>
            <g>
              <g>
                <g>
                  <g>
                    <path class="cls-39" d="M104.12,83.37v26.03c0,1.68-1.37,3.05-3.05,3.05h-8.07c-.1,0-.21,0-.31-.01-1.54-.15-2.75-1.45-2.75-3.04v-26.03h14.18Z"/>
                    <polygon class="cls-22" points="104.12 83.37 89.94 83.37 95.04 78.21 99.02 78.21 104.12 83.37"/>
                    <path class="cls-39" d="M99.02,75.95v2.26h-3.97v-2.26c0-.49,.34-.9,.79-1.01,.07-.02,.14-.03,.22-.03h1.92c.57,0,1.04,.46,1.04,1.04Z"/>
                    <g class="cls-31">
                      <polygon class="cls-41" points="91.49 83.37 96.06 78.21 95.04 78.21 89.94 83.37 91.49 83.37"/>
                    </g>
                    <g class="cls-31">
                      <path class="cls-41" d="M96.05,74.91v3.3h-1.01v-2.26c0-.49,.34-.9,.79-1.01,.07-.02,.14-.03,.22-.03Z"/>
                    </g>
                  </g>
                  <g class="cls-50">
                    <path class="cls-5" d="M91.49,83.37v29.06c-.87-.15-1.55-1.45-1.55-3.04v-26.03h1.55Z"/>
                  </g>
                </g>
                <path class="cls-15" d="M104.12,83.37v26.03c0,1.68-1.37,3.05-3.05,3.05h-2.93c1.08-.87,2.7-2.33,2.99-4.75,.53-4.52,0-16.42,.05-24.32h2.94Z"/>
              </g>
              <circle class="cls-7" cx="95.55" cy="94.35" r="3.7"/>
            </g>
            <g>
              <g>
                <g>
                  <g>
                    <polygon class="cls-36" points="30.4 98.74 17.29 98.74 17.29 95.29 28.63 95.29 30.4 98.74"/>
                    <rect class="cls-24" x="17.29" y="98.74" width="13.11" height="28.65"/>
                    <rect class="cls-21" x="13.74" y="98.74" width="12.93" height="28.65"/>
                    <polygon class="cls-19" points="26.67 98.74 13.74 98.74 16.14 95.29 28.63 95.29 26.67 98.74"/>
                    <path class="cls-19" d="M16.79,92.93h11.2c.35,0,.64,.29,.64,.64v1.71h-12.49v-1.71c0-.35,.29-.64,.64-.64Z"/>
                    <polygon class="cls-66" points="27.96 96.47 30.4 98.74 28.63 95.29 27.96 96.47"/>
                    <g>
                      <path class="cls-36" d="M17.89,95.29h-.93v-1.05c0-.26,.21-.46,.46-.46h0c.26,0,.46,.21,.46,.46v1.05Z"/>
                      <path class="cls-36" d="M19.87,95.29h-.93v-1.05c0-.26,.21-.46,.46-.46h0c.26,0,.46,.21,.46,.46v1.05Z"/>
                      <path class="cls-36" d="M21.86,95.29h-.93v-1.05c0-.26,.21-.46,.46-.46h0c.26,0,.46,.21,.46,.46v1.05Z"/>
                      <path class="cls-36" d="M23.85,95.29h-.93v-1.05c0-.26,.21-.46,.46-.46h0c.26,0,.46,.21,.46,.46v1.05Z"/>
                      <path class="cls-36" d="M25.83,95.29h-.93v-1.05c0-.26,.21-.46,.46-.46h0c.26,0,.46,.21,.46,.46v1.05Z"/>
                      <path class="cls-36" d="M27.22,93.77h.27c.18,0,.33,.15,.33,.33v1.18h-.93v-1.18c0-.18,.15-.33,.33-.33Z"/>
                    </g>
                  </g>
                  <rect class="cls-58" x="15.02" y="104.94" width="10.04" height="9.33" rx="1.91" ry="1.91"/>
                </g>
                <path class="cls-58" d="M23.3,118.17h-6.52c-.63,0-1.14-.51-1.14-1.14h0c0-.63,.51-1.14,1.14-1.14h6.52c.63,0,1.14,.51,1.14,1.14h0c0,.63-.51,1.14-1.14,1.14Z"/>
              </g>
              <path class="cls-9" d="M20.79,127.39h-7.05v-28.65h2.01s-1.58,23.36,.62,26.09c1.54,1.91,2.84,2.17,4.42,2.56Z"/>
            </g>
            <g>
              <g>
                <g>
                  <g>
                    <g>
                      <path class="cls-22" d="M62.74,20.84l-.03,.66-.04,.8h0s-.03,.58-.03,.58l-.26,3.18h0s-.02,.34-.02,.34v.27s-.01,.01-.01,.01c0,.01,0,.02,0,.03-.03,.72-.59,1.31-1.29,1.41-.07,0-.14,.01-.21,.01h-2.61c-.07,0-.14,0-.21-.01-.71-.1-1.42-1.93-1.42-1.93l-.04-.85v-.25s-.07-1.08-.07-1.08h0s-.08-1.71-.08-1.71h0s-.04-.8-.04-.8l-.03-.66h6.4Z"/>
                      <path class="cls-39" d="M62.66,22.3l-.03,.58-.26,3.16-.02,.36h0s0,.25,0,.25v.04s0,.02,0,.03c-.03,.72-.59,1.31-1.29,1.41-.07,0-.14,.01-.21,.01h-2.61c-.07,0-.14-.01-.21-.01-.53,0-.86-.28-1.07-.62-.34-.57-.36-1.31-.36-1.31l-.04-.85v-.25s-.07-1.08-.07-1.08h0s-.09-1.71-.09-1.71h6.26Z"/>
                      <rect class="cls-39" x="55.93" y="20.68" width="7.22" height=".82" rx=".29" ry=".29"/>
                    </g>
                    <rect class="cls-5" x="57.54" y="23.7" width="4" height="1.8" rx=".64" ry=".64"/>
                  </g>
                  <path class="cls-12" d="M62.66,22.3l-.03,.58-.26,3.16-.02,.36h0s0,.25,0,.25v.04s0,.02,0,.03c-.03,.72-.59,1.31-1.29,1.41-.07,0-.14,.01-.21,.01h-2.61c-.07,0-.14-.01-.21-.01-.53,0-.86-.28-1.07-.62,1.39,.27,5.78,1.1,4.81-5.21h.89Z"/>
                </g>
                <g>
                  <g>
                    <g>
                      <path class="cls-22" d="M69.98,20.84l-.03,.66-.04,.8h0s-.03,.58-.03,.58l-.26,3.18h0s-.02,.34-.02,.34v.27s-.01,.01-.01,.01c0,.01,0,.02,0,.03-.03,.72-.59,1.31-1.29,1.41-.07,0-.14,.01-.21,.01h-2.61c-.07,0-.14,0-.21-.01-.71-.1-1.42-1.93-1.42-1.93l-.04-.85v-.25s-.07-1.08-.07-1.08h0s-.08-1.71-.08-1.71h0s-.04-.8-.04-.8l-.03-.66h6.4Z"/>
                      <path class="cls-39" d="M69.91,22.3l-.03,.58-.26,3.16-.02,.36h0s0,.25,0,.25v.04s0,.02,0,.03c-.03,.72-.59,1.31-1.29,1.41-.07,0-.14,.01-.21,.01h-2.61c-.07,0-.14-.01-.21-.01-.53,0-.86-.28-1.07-.62-.34-.57-.36-1.31-.36-1.31l-.04-.85v-.25s-.07-1.08-.07-1.08h0s-.09-1.71-.09-1.71h6.26Z"/>
                      <rect class="cls-39" x="63.17" y="20.68" width="7.22" height=".82" rx=".29" ry=".29"/>
                    </g>
                    <rect class="cls-5" x="64.78" y="23.7" width="4" height="1.8" rx=".64" ry=".64"/>
                  </g>
                  <path class="cls-12" d="M69.91,22.3l-.03,.58-.26,3.16-.02,.36h0s0,.25,0,.25v.04s0,.02,0,.03c-.03,.72-.59,1.31-1.29,1.41-.07,0-.14,.01-.21,.01h-2.61c-.07,0-.14-.01-.21-.01-.53,0-.86-.28-1.07-.62,1.39,.27,5.78,1.1,4.81-5.21h.89Z"/>
                </g>
              </g>
              <g>
                <g>
                  <g>
                    <g>
                      <path class="cls-22" d="M62.74,28.3l-.03,.66-.04,.8h0s-.03,.58-.03,.58l-.26,3.18h0s-.02,.34-.02,.34v.27s-.01,.01-.01,.01c0,.01,0,.02,0,.03-.03,.72-.59,1.31-1.29,1.41-.07,0-.14,.01-.21,.01h-2.61c-.07,0-.14,0-.21-.01-.71-.1-1.42-1.93-1.42-1.93l-.04-.85v-.25s-.07-1.08-.07-1.08h0s-.08-1.71-.08-1.71h0s-.04-.8-.04-.8l-.03-.66h6.4Z"/>
                      <path class="cls-21" d="M62.66,29.76l-.03,.58-.26,3.16-.02,.36h0s0,.25,0,.25v.04s0,.02,0,.03c-.03,.72-.59,1.31-1.29,1.41-.07,0-.14,.01-.21,.01h-2.61c-.07,0-.14-.01-.21-.01-.53,0-.86-.28-1.07-.62-.34-.57-.36-1.31-.36-1.31l-.04-.85v-.25s-.07-1.08-.07-1.08h0s-.09-1.71-.09-1.71h6.26Z"/>
                      <path class="cls-21" d="M62.73,28.96h-6.4c-.23,0-.41-.18-.41-.41h0c0-.23,.18-.41,.41-.41h6.4c.23,0,.41,.18,.41,.41h0c0,.23-.18,.41-.41,.41Z"/>
                    </g>
                    <rect class="cls-5" x="57.54" y="31.16" width="4" height="1.8" rx=".64" ry=".64"/>
                  </g>
                  <path class="cls-12" d="M62.66,29.76l-.03,.58-.26,3.16-.02,.36h0s0,.25,0,.25v.04s0,.02,0,.03c-.03,.72-.59,1.31-1.29,1.41-.07,0-.14,.01-.21,.01h-2.61c-.07,0-.14-.01-.21-.01-.53,0-.86-.28-1.07-.62,1.39,.27,5.78,1.1,4.81-5.21h.89Z"/>
                </g>
                <g>
                  <g>
                    <g>
                      <path class="cls-22" d="M69.98,28.3l-.03,.66-.04,.8h0s-.03,.58-.03,.58l-.26,3.18h0s-.02,.34-.02,.34v.27s-.01,.01-.01,.01c0,.01,0,.02,0,.03-.03,.72-.59,1.31-1.29,1.41-.07,0-.14,.01-.21,.01h-2.61c-.07,0-.14,0-.21-.01-.71-.1-1.42-1.93-1.42-1.93l-.04-.85v-.25s-.07-1.08-.07-1.08h0s-.08-1.71-.08-1.71h0s-.04-.8-.04-.8l-.03-.66h6.4Z"/>
                      <path class="cls-21" d="M69.91,29.76l-.03,.58-.26,3.16-.02,.36h0s0,.25,0,.25v.04s0,.02,0,.03c-.03,.72-.59,1.31-1.29,1.41-.07,0-.14,.01-.21,.01h-2.61c-.07,0-.14-.01-.21-.01-.53,0-.86-.28-1.07-.62-.34-.57-.36-1.31-.36-1.31l-.04-.85v-.25s-.07-1.08-.07-1.08h0s-.09-1.71-.09-1.71h6.26Z"/>
                      <path class="cls-21" d="M69.98,28.96h-6.4c-.23,0-.41-.18-.41-.41h0c0-.23,.18-.41,.41-.41h6.4c.23,0,.41,.18,.41,.41h0c0,.23-.18,.41-.41,.41Z"/>
                    </g>
                    <rect class="cls-5" x="64.78" y="31.16" width="4" height="1.8" rx=".64" ry=".64"/>
                  </g>
                  <path class="cls-12" d="M69.91,29.76l-.03,.58-.26,3.16-.02,.36h0s0,.25,0,.25v.04s0,.02,0,.03c-.03,.72-.59,1.31-1.29,1.41-.07,0-.14,.01-.21,.01h-2.61c-.07,0-.14-.01-.21-.01-.53,0-.86-.28-1.07-.62,1.39,.27,5.78,1.1,4.81-5.21h.89Z"/>
                </g>
              </g>
            </g>
            <g>
              <g>
                <path class="cls-43" d="M36.29,46.12v11.99H15.12v-6.68c.25,.14,.54,.21,.85,.21,1,0,1.81-.81,1.81-1.81s-.81-1.81-1.81-1.81c-.31,0-.6,.08-.85,.21v-2.1h21.18Z"/>
                <polygon class="cls-52" points="15.12 46.11 15.37 46.09 28.96 44.48 36.3 46.11 15.12 46.11"/>
                <path class="cls-18" d="M22.05,54.31c0,1-.81,1.81-1.81,1.81s-1.81-.81-1.81-1.81,.81-1.81,1.81-1.81,1.81,.81,1.81,1.81Z"/>
                <path class="cls-18" d="M36.3,48.49v4.32c-.06,0-.12,0-.18,0-.37,0-.71-.09-1.02-.25-.69-.36-1.15-1.08-1.15-1.92s.47-1.55,1.15-1.92c.3-.16,.65-.25,1.02-.25,.06,0,.12,0,.18,0Z"/>
                <circle class="cls-18" cx="28.57" cy="55.32" r="1.39"/>
                <circle class="cls-18" cx="26.22" cy="49.49" r="2.37"/>
              </g>
              <path class="cls-11" d="M36.29,46.12v11.99H15.12v-1.06c3.16,.04,14.01,1.06,16.22-3.42,1.23-2.49,1.55-5.58,1.78-7.51h3.18Z"/>
            </g>
            <g>
              <g>
                <g>
                  <g>
                    <g>
                      <path class="cls-47" d="M113.08,93.58v9.14c0,.22,.18,.41,.41,.41h.1v5.35h-10.18v-5.35h.1c.22,0,.41-.18,.41-.41v-9.14c0-.22-.18-.41-.41-.41h-.1v-4.26c0-.35,.57-1.26,1.24-2.21,.95-1.35,2.11-2.79,2.17-2.86h0s3.35,0,3.35,0h0c.06,.08,1.22,1.52,2.17,2.87,.67,.95,1.24,1.86,1.24,2.21v4.26h-.1c-.23,0-.41,.18-.41,.41Z"/>
                      <g>
                        <g>
                          <path class="cls-47" d="M107.63,108.56c0,1.17-.95,2.11-2.11,2.11s-2.11-.95-2.11-2.11,.95-2.11,2.11-2.11,2.11,.95,2.11,2.11Z"/>
                          <path class="cls-47" d="M113.59,108.56c0,1.17-.95,2.11-2.11,2.11s-2.11-.95-2.11-2.11,.95-2.11,2.11-2.11,2.11,.95,2.11,2.11Z"/>
                          <path class="cls-47" d="M110.52,108.56c0,1.17-.95,2.11-2.11,2.11s-2.11-.95-2.11-2.11,.95-2.11,2.11-2.11,2.11,.95,2.11,2.11Z"/>
                        </g>
                        <rect class="cls-64" x="106.82" y="81.85" width="3.35" height="3.24" rx=".19" ry=".19"/>
                        <path class="cls-42" d="M110.38,82.94c0,.1-.08,.18-.18,.18h-3.41c-.1,0-.18-.08-.18-.18,0-.03,0-.06,.02-.08,.03-.05,.09-.09,.16-.09h3.41c.07,0,.12,.04,.16,.09,.01,.02,.02,.05,.02,.08Z"/>
                        <path class="cls-59" d="M106.57,80h3.86c.14,0,.25,.11,.25,.25v2.34c0,.14-.12,.26-.26,.26h-3.86c-.14,0-.25-.11-.25-.25v-2.34c0-.14,.11-.25,.25-.25Z"/>
                      </g>
                    </g>
                    <rect class="cls-59" x="103.91" y="93.48" width="9.17" height="9.32"/>
                  </g>
                  <path class="cls-42" d="M112.35,86.7h-7.7c.95-1.35,2.11-2.79,2.17-2.86v-.72h3.35v.72c.06,.07,1.22,1.51,2.17,2.86Z"/>
                  <rect class="cls-30" x="104.65" y="95.73" width="6.27" height="4.64" rx=".47" ry=".47"/>
                  <path class="cls-15" d="M113.09,93.48v9.32h-7.26c.92-.79,2.57-1.77,3.18-3.97,.79-2.88,.73-4.15-.25-5.36h4.33Z"/>
                </g>
                <path class="cls-30" d="M110.68,80.25v.38h-4.37v-.38c0-.14,.12-.25,.26-.25h3.86c.14,0,.25,.11,.25,.25Z"/>
                <rect class="cls-15" x="103.91" y="102.26" width="9.17" height=".54"/>
                <rect class="cls-15" x="103.91" y="93.48" width="9.17" height=".54"/>
              </g>
              <path class="cls-15" d="M110.68,80.25v2.34c0,.14-.11,.25-.25,.25h-1.37s.78-.22,.83-1.32c.01-.29-.02-.59-.1-.89-.05-.22-.11-.43-.18-.63h.82c.14,0,.25,.11,.25,.25Z"/>
            </g>
            <g>
              <rect class="cls-6" x="9.74" y="136.76" width="68.77" height="19.52"/>
              <polygon class="cls-8" points="40.85 136.76 31.43 156.28 23.67 156.28 33.08 136.76 40.85 136.76"/>
              <polygon class="cls-8" points="51.86 136.76 42.44 156.28 39.02 156.28 48.44 136.76 51.86 136.76"/>
              <polygon class="cls-8" points="67.96 136.76 58.53 156.28 55.12 156.28 64.53 136.76 67.96 136.76"/>
            </g>
            <g>
              <rect class="cls-6" x="9.74" y="156.27" width="68.77" height="19.52"/>
              <polygon class="cls-8" points="40.85 156.27 31.43 175.79 23.67 175.79 33.08 156.27 40.85 156.27"/>
              <polygon class="cls-8" points="51.86 156.27 42.44 175.79 39.02 175.79 48.44 156.27 51.86 156.27"/>
              <polygon class="cls-8" points="67.96 156.27 58.53 175.79 55.12 175.79 64.53 156.27 67.96 156.27"/>
            </g>
            <g>
              <g>
                <g>
                  <rect class="cls-53" x="39.94" y="100.93" width="1.14" height="3.38" rx=".33" ry=".33" transform="translate(-22.72 12.21) rotate(-13.43)"/>
                  <g>
                    <path class="cls-43" d="M45.49,119.91c-.24,.09-.49,.17-.75,.23-3.62,.86-7.26-1.37-8.12-4.99-.04-.16-.07-.32-.1-.49-.56-3.45,1.63-6.81,5.09-7.63,2.46-.58,4.92,.25,6.52,1.98,.65,.71,1.16,1.56,1.47,2.53,.05,.16,.1,.31,.14,.48,.8,3.36-1.07,6.74-4.24,7.9Z"/>
                    <path class="cls-43" d="M45.24,106.15c.55,2.31-.63,4.56-2.64,5.04-2.01,.48-4.08-1-4.63-3.31-.55-2.31,.63-4.56,2.64-5.04,2.01-.48,4.08,1,4.63,3.31Z"/>
                  </g>
                </g>
                <g>
                  <g class="cls-33">
                    <path class="cls-10" d="M45.49,119.91c-1.52-.72-2.74-2.21-3.17-4.11-.14-.59-.18-1.18-.16-1.75,.13-2.43,1.66-4.52,3.91-5.04,.69-.15,1.39-.15,2.05,0,.65,.71,1.16,1.56,1.47,2.53,.05,.16,.1,.31,.14,.48,.8,3.36-1.07,6.74-4.24,7.9Z"/>
                  </g>
                  <rect class="cls-63" x="49.42" y="107.16" width=".83" height="3.21" rx=".24" ry=".24"/>
                  <path class="cls-38" d="M56.29,115.8c-.68,2.98-3.31,4.95-5.98,4.55-.11-.02-.23-.04-.34-.07-.02,0-.04-.01-.07-.02-.02,0-.05,.01-.07,.02-2.78,.63-5.62-1.37-6.33-4.49-.14-.59-.18-1.18-.15-1.75,.13-2.43,1.66-4.52,3.91-5.04,.9-.2,1.8-.13,2.64,.17,.83-.3,1.74-.37,2.64-.17,.25,.06,.5,.14,.73,.23,1.85,.75,3.07,2.65,3.18,4.81,.03,.57-.02,1.16-.15,1.75Z"/>
                  <path class="cls-53" d="M49.78,105.74c.65,.52,.75,1.47,.24,2.12-.52,.65-1.47,.75-2.12,.24-.65-.52-.8-2.57-.8-2.57,0,0,2.04-.3,2.68,.22Z"/>
                </g>
                <path class="cls-12" d="M56.29,115.8c-.68,2.98-3.31,4.95-5.98,4.55,0,0,4.53-2.05,4.7-5.38,.16-3.14-1.74-5.74-1.74-5.74,1.85,.75,3.07,2.65,3.18,4.81,.03,.57-.02,1.16-.15,1.75Z"/>
              </g>
              <g>
                <path class="cls-46" d="M69.08,113.27c0,3.9-1.58,7.43-4.13,9.98-2.55,2.55-6.08,4.13-9.98,4.13h-8.01c-.2,0-.4,0-.6-.01-7.52-.31-13.51-6.5-13.51-14.1h36.23Z"/>
                <path class="cls-11" d="M69.08,113.27c0,3.9-1.58,7.43-4.13,9.98-2.55,2.55-6.08,4.13-9.98,4.13h-8.01c-.2,0-.4,0-.6-.01,3.8-1.84,9.43-4.99,10.91-8.11,1.03-2.18,.64-4.31-.09-5.99h11.9Z"/>
                <path class="cls-16" d="M68.49,115.28H33.45c-.8,0-1.44-.6-1.44-1.34h0c0-.74,.64-1.34,1.44-1.34h35.04c.8,0,1.44,.6,1.44,1.34h0c0,.74-.64,1.34-1.44,1.34Z"/>
              </g>
            </g>
            <g>
              <g>
                <g>
                  <path class="cls-63" d="M74.4,121.57c-.5,1.24-1.25,2.31-2.16,3.19-1.49,1.44-3.43,2.34-5.48,2.56-.45,.05-.91,.07-1.37,.05h0c-.87-.04-1.75-.2-2.61-.49-.03,0-.06-.02-.09-.03-.05-.01-.11-.04-.16-.06-.09-.03-.18-.07-.27-.11-.13-.05-.27-.11-.4-.17-.04-.01-.08-.03-.12-.05,0,0,0,0-.01,0-.09-.04-.18-.08-.26-.13-.11-.05-.21-.11-.31-.17t0,0c-.14-.08-.28-.16-.42-.25-.08-.05-.17-.11-.25-.17-.08-.05-.16-.11-.23-.16-.01,0-.02-.01-.03-.02-.08-.05-.15-.11-.22-.17-.37-.29-.72-.61-1.03-.95-.21-.22-.4-.44-.58-.68-.07-.09-.14-.18-.2-.28-.07-.09-.13-.19-.19-.28-.19-.29-.36-.58-.52-.89-.04-.08-.08-.16-.12-.24-.02-.03-.03-.07-.05-.1-.04-.09-.08-.18-.12-.27-.02-.04-.04-.08-.05-.12-.04-.09-.07-.18-.11-.28-.01-.04-.03-.08-.05-.13-.01-.04-.03-.08-.04-.11-.01-.03-.02-.05-.03-.08-.04-.12-.08-.24-.12-.37-.03-.09-.05-.18-.07-.27-.06-.22-.11-.45-.15-.68-.02-.09-.03-.17-.04-.26-.02-.11-.03-.23-.04-.34,0-.05-.01-.11-.02-.17,0-.05-.01-.11-.01-.16,0-.12-.01-.24-.02-.36,0-.12,0-.23,0-.35,0-.78,.1-1.56,.3-2.34,.1-.39,.23-.78,.39-1.17,.28-.68,.62-1.31,1.03-1.88,.14-.19,.28-.37,.43-.55,.15-.18,.3-.35,.46-.52,1.68-1.75,3.98-2.77,6.39-2.86,.12,0,.23,0,.35,0,.14,0,.28,0,.41,.01h.04c.14,0,.28,.02,.41,.03,.11,0,.23,.02,.34,.04,.05,0,.11,.01,.16,.02,.11,.01,.21,.03,.32,.05,.05,0,.11,.02,.16,.03,0,0,0,0,0,0h0s.04,0,.07,.01c.03,0,.05,0,.08,.01,.08,.02,.15,.03,.23,.05,.01,0,.02,0,.03,0,.12,.03,.25,.07,.37,.1,.07,.02,.15,.04,.21,.07,.09,.03,.18,.05,.28,.09,.13,.04,.25,.09,.38,.15,.11,.05,.23,.09,.33,.15,.06,.03,.12,.05,.18,.08,.09,.04,.19,.09,.28,.13,0,0,0,0,.01,0,.1,.05,.2,.11,.3,.16,.02,.01,.05,.03,.07,.04,.04,.02,.08,.05,.12,.07,.04,.02,.08,.05,.12,.07,.04,.02,.08,.05,.12,.08,0,0,0,0,0,0,.61,.39,1.17,.85,1.66,1.36,.16,.16,.31,.33,.46,.51,.37,.44,.69,.91,.96,1.41,.17,.29,.32,.6,.45,.91,.04,.11,.09,.21,.13,.32,.08,.21,.15,.43,.22,.64,.6,1.97,.55,4.16-.29,6.21Z"/>
                  <path class="cls-53" d="M70.81,110.21c-.39-.13-.77-.23-1.16-.31-.11-.03-.22-.04-.33-.06-.06-.01-.12-.02-.19-.03h0c-.08-.01-.16-.03-.24-.03-.46-.05-.91-.07-1.37-.05-2.86,.09-5.57,1.51-7.27,3.89-.42,.58-.77,1.22-1.05,1.92-.39,.96-.61,1.94-.67,2.92-.04,.58-.02,1.16,.05,1.73,.04,.29,.09,.58,.15,.87,0,.04,.02,.09,.03,.13,.24,1.01,.64,1.97,1.2,2.85,.6,.94,1.37,1.79,2.29,2.48,.02,.01,.04,.03,.05,.04,0,0,0,0,0,0s0,0,0,0h0s0,0,0,0c.15,.11,.31,.21,.46,.32,0,0,0,0,.01,0-.03-.01-.07-.02-.1-.03h0c-.05-.02-.11-.04-.16-.06-.09-.03-.18-.07-.27-.1-.11-.05-.23-.09-.33-.15-.02-.01-.04-.02-.07-.03-.04-.01-.08-.03-.12-.05,0,0,0,0-.01,0-.09-.04-.18-.08-.26-.13-.11-.05-.21-.11-.31-.17-.15-.08-.29-.17-.43-.26-.08-.05-.17-.11-.25-.17-.08-.05-.16-.11-.23-.16-.01,0-.02-.01-.03-.02-.08-.05-.15-.11-.22-.17-.37-.29-.72-.61-1.03-.95-.21-.22-.4-.44-.58-.68-.07-.09-.14-.18-.2-.28-.07-.09-.13-.19-.19-.28-.19-.29-.36-.58-.52-.89-.04-.08-.08-.16-.12-.24-.02-.03-.03-.07-.05-.1-.04-.09-.08-.18-.12-.27-.02-.04-.04-.08-.05-.12-.04-.09-.07-.18-.11-.28-.01-.04-.03-.08-.04-.13-.01-.04-.03-.08-.04-.11-.01-.03-.02-.05-.03-.08-.04-.12-.08-.24-.12-.37-.03-.09-.05-.18-.07-.27-.06-.22-.11-.45-.15-.68-.02-.09-.03-.17-.04-.26-.02-.11-.03-.23-.04-.34,0-.05-.01-.11-.02-.17,0-.05-.01-.11-.01-.16,0-.12-.01-.24-.02-.36,0-.12,0-.23,0-.35,0-.78,.1-1.56,.3-2.34,.1-.39,.23-.78,.39-1.17,.28-.68,.62-1.31,1.03-1.88,.14-.19,.28-.37,.43-.55,.15-.18,.3-.35,.46-.52,1.68-1.75,3.98-2.77,6.39-2.86,.12,0,.23,0,.35,0,.14,0,.28,0,.41,.01h.04c.14,0,.28,.02,.41,.03,.11,0,.23,.02,.34,.04,.05,0,.11,.01,.16,.02,.11,.01,.21,.03,.32,.05,.05,0,.11,.02,.16,.03,0,0,0,0,0,0h0s.04,0,.07,.01c.03,0,.05,0,.08,.01,.08,.02,.15,.03,.23,.05,.01,0,.02,0,.03,0,.12,.03,.25,.07,.37,.1,.07,.02,.15,.04,.21,.07,.09,.03,.18,.05,.28,.09,.13,.04,.25,.09,.38,.15,.11,.05,.23,.09,.33,.15,.06,.03,.12,.05,.18,.08,.09,.04,.19,.09,.28,.13,0,0,0,0,.01,0,.1,.05,.2,.11,.3,.16,.02,.01,.05,.03,.07,.04,.04,.02,.08,.05,.12,.07,.04,.02,.08,.05,.12,.07,.04,.02,.08,.05,.12,.08Z"/>
                </g>
                <path class="cls-53" d="M74.4,121.57c-.5,1.24-1.25,2.31-2.16,3.19-1.49,1.44-3.43,2.34-5.48,2.57-1.31,.14-2.66,0-3.98-.44-.03-.01-.07-.02-.1-.03-.05-.02-.11-.04-.16-.06-.09-.03-.18-.07-.27-.1-.11-.05-.23-.09-.33-.15-.02-.01-.04-.02-.07-.03-.04-.01-.08-.03-.12-.05,.17,.03,.33,.06,.51,.09,.01,0,.03,0,.05,0,0,0,0,0,0,0h.01s0,0,.01,0c2.06,.29,4.13-.13,5.89-1.13,1.76-1,3.2-2.57,4.02-4.59,1.61-3.96,.31-8.39-2.92-10.88-.06-.05-.13-.09-.19-.14,0,0,0,0,0,0-.05-.04-.1-.07-.15-.11-.41-.29-.86-.55-1.33-.78,.02,0,.04,0,.07,.01,.03,0,.05,0,.08,.01,.08,.02,.15,.03,.23,.05,.01,0,.02,0,.03,0,.12,.03,.24,.07,.37,.1,.07,.02,.15,.04,.21,.07,.09,.03,.18,.05,.28,.09,.13,.04,.25,.09,.38,.15,.11,.05,.23,.09,.33,.15,.06,.03,.12,.05,.18,.08,.09,.04,.19,.09,.28,.13,0,0,0,0,.01,0,.1,.05,.2,.11,.3,.16,.02,.01,.05,.03,.07,.04,.04,.02,.08,.04,.12,.07,.04,.02,.08,.05,.12,.07,.04,.02,.08,.05,.12,.08,0,0,0,0,0,0,.61,.39,1.17,.85,1.66,1.36,.16,.16,.31,.33,.46,.51,.37,.44,.69,.91,.96,1.41,.17,.29,.32,.6,.45,.91,.04,.11,.09,.21,.13,.32,.08,.21,.15,.43,.22,.64,.6,1.97,.55,4.16-.29,6.21Z"/>
                <path class="cls-53" d="M69.28,109.42c-.34,.26-4.52,4.26-6.02,7.95-1.5,3.69-1.01,9.33-1.01,9.33l7.03-17.28Z"/>
                <path class="cls-53" d="M69.28,109.42c.06,.43,.3,6.1-1.2,9.78-1.5,3.69-5.79,7.38-5.79,7.38l6.98-17.17Z"/>
              </g>
              <path class="cls-14" d="M69.33,119.22c0,1.54-.41,2.99-1.12,4.24-.4,.7-.89,1.34-1.45,1.9h0c-1.31,.15-2.66,.01-3.98-.44-.03-.01-.07-.02-.1-.03-.05-.02-.11-.04-.16-.06-.09-.03-.18-.07-.27-.1-.11-.05-.23-.09-.33-.15-.02-.01-.04-.02-.07-.03-.04-.01-.08-.03-.12-.05,0,0,0,0-.01,0-.09-.04-.18-.08-.26-.13-.25-.13-.5-.27-.74-.43-.08-.05-.17-.11-.25-.17-.08-.05-.16-.11-.23-.16-.01,0-.02-.01-.03-.02-.08-.05-.15-.11-.22-.17-.61-.48-1.15-1.02-1.61-1.62-.07-.09-.14-.18-.2-.28-.07-.09-.13-.19-.19-.28-.19-.29-.36-.58-.52-.89-.04-.08-.08-.16-.12-.24-.02-.03-.03-.07-.05-.1-.04-.09-.08-.18-.12-.27-.06-.13-.11-.26-.16-.4-.01-.04-.03-.08-.05-.13h3.59s8.76,0,8.76,0Z"/>
              <g>
                <g>
                  <path class="cls-26" d="M67.79,118.69c0,4.6-3.66,8.42-8.2,8.68-.17,.01-.33,.01-.5,.01-4.76,0-8.69-3.92-8.7-8.68h3.3s5.33-.01,5.33-.01h8.76Z"/>
                  <path class="cls-5" d="M67.18,118.69c0,4.47-3.68,8.15-8.15,8.15-.12,0-.23,0-.35-.01-4.31-.18-7.79-3.78-7.8-8.12h0s.51,0,.51,0h2.31s5.33,0,5.33,0h8.15Z"/>
                  <path class="cls-62" d="M66.67,118.69c0,4.19-3.45,7.64-7.64,7.64-.49,0-.96-.05-1.42-.13-3.52-.67-6.22-3.79-6.22-7.49h0s2.31,0,2.31,0h5.33s7.64,0,7.64,0Z"/>
                </g>
                <g>
                  <g>
                    <path class="cls-69" d="M59.61,122.76c0,.28-.23,.51-.51,.51s-.51-.23-.51-.51,.51-.63,.51-.63c0,0,.51,.34,.51,.63Z"/>
                    <path class="cls-69" d="M57.06,122.14c-.16,.23-.48,.28-.71,.12-.23-.16-.28-.48-.12-.71,.16-.23,.78-.22,.78-.22,0,0,.22,.57,.05,.8Z"/>
                    <path class="cls-69" d="M54.98,120.55c-.26,.09-.55-.04-.65-.31-.09-.26,.04-.55,.31-.65,.26-.09,.76,.27,.76,.27,0,0-.16,.59-.42,.69Z"/>
                  </g>
                  <g>
                    <path class="cls-69" d="M61.14,122.14c.16,.23,.48,.28,.71,.12,.23-.16,.28-.48,.12-.71-.16-.23-.78-.22-.78-.22,0,0-.22,.57-.05,.8Z"/>
                    <path class="cls-69" d="M63.21,120.55c.26,.09,.55-.04,.65-.31,.09-.26-.04-.55-.31-.65-.26-.09-.76,.27-.76,.27,0,0,.16,.59,.42,.69Z"/>
                  </g>
                </g>
              </g>
              <path class="cls-53" d="M69.13,109.91s-.07-.04-.1-.07c-.13-.13-.13-.34,0-.47,.01-.01,1.33-1.38,.83-2.39-.13-.26-.39-.33-.6-.33,.2,.31,.34,.64,.32,.94-.03,.44-.32,.8-.72,.93-.42,.14-.88-.01-1.19-.38-.29-.36-.36-.77-.17-1.16,.12-.26,.35-.5,.63-.67-.11-.11-.21-.21-.3-.29-.14-.12-.15-.33-.03-.47,.12-.14,.33-.15,.47-.03,.09,.07,.3,.27,.52,.52,.14-.03,.28-.05,.43-.05,.56,0,1.01,.25,1.24,.7,.71,1.43-.88,3.07-.95,3.14-.1,.1-.25,.13-.37,.07Zm-.56-3.08c-.22,.11-.4,.27-.48,.44-.07,.16-.05,.3,.08,.46,.13,.16,.31,.23,.48,.17,.15-.05,.25-.18,.27-.35,.01-.17-.14-.45-.35-.72Z"/>
              <path class="cls-9" d="M59.6,127.37c-.17,.01-.33,.01-.5,.01-4.76,0-8.69-3.92-8.7-8.68h.48s.51,0,.51,0h2.31s0,0,0,0c.03,1.38,.16,3.75,1.88,5.61,.96,1.04,3.74,2.9,4.01,3.07Z"/>
            </g>
            <rect class="cls-5" x="39.11" y="156.78" width="10.03" height="3.7" rx="1.31" ry="1.31"/>
            <g>
              <g>
                <g>
                  <g class="cls-56">
                    <path class="cls-51" d="M97.59,46.33v19.86c0,1.03-.83,1.86-1.86,1.86h-6.19c-.06,0-.11,0-.16,0-.01,0-.02,0-.03,0-.05,0-.1-.01-.15-.02,0,0-.01,0-.02,0-.05-.01-.11-.02-.16-.04-.05-.01-.11-.04-.16-.06-.05-.02-.11-.04-.16-.07-.05-.02-.09-.05-.14-.08-.01,0-.02-.01-.04-.02-.04-.02-.07-.05-.11-.08-.05-.04-.09-.08-.14-.12-.04-.03-.07-.07-.1-.11,0,0,0,0,0,0-.03-.04-.07-.08-.1-.12,0-.01-.01-.02-.02-.03-.03-.04-.06-.08-.09-.13-.06-.1-.11-.2-.15-.31,0,0,0-.01,0-.02,0-.01-.01-.03-.01-.04-.01-.04-.03-.09-.04-.13-.01-.05-.02-.1-.03-.15h0c-.01-.06-.02-.12-.02-.18,0-.03,0-.05,0-.08l1.01,.15s-.03-17.87-.03-19.7c0-1.58,1.53-4.67,1.53-4.67v-3.48h4.87v3.48c1.51,.85,2.52,2.46,2.52,4.32Z"/>
                  </g>
                  <path class="cls-59" d="M97.59,46.33v19.86c0,1.03-.83,1.86-1.86,1.86h-6.19c-.06,0-.11,0-.16,0-.01,0-.02,0-.03,0-.05,0-.1-.01-.15-.02,0,0-.01,0-.02,0-.05-.01-.11-.02-.16-.04-.05-.01-.11-.04-.16-.06-.05-.02-.11-.04-.16-.07-.05-.02-.09-.05-.14-.08-.01,0-.02-.01-.04-.02-.04-.02-.07-.05-.11-.08-.05-.04-.09-.08-.14-.12-.04-.03-.07-.07-.1-.11,0,0,0,0,0,0-.03-.04-.07-.08-.1-.12,0-.01-.01-.02-.02-.03-.03-.04-.06-.08-.09-.13-.06-.1-.11-.2-.15-.31,0,0,0-.01,0-.02,0-.01-.01-.03-.01-.04-.01-.04-.03-.09-.04-.13-.01-.05-.02-.1-.03-.15h0c-.01-.06-.02-.12-.02-.18,0-.03,0-.05,0-.08v-9.24c0-1.7,0-3.45,0-5.02v-.33c0-3.19,0-5.64,.01-5.68,0-.09,.01-.17,.02-.26,.07-.57,.24-1.11,.49-1.6,.05-.1,.1-.19,.16-.28,.1-.18,.22-.36,.35-.52,0,0,0,0,0-.01,.06-.08,.12-.16,.19-.23,0,0,0-.01,.01-.02,.05-.05,.1-.11,.16-.17,.09-.1,.19-.19,.29-.28,.08-.07,.16-.14,.25-.2,.09-.06,.17-.13,.26-.19,.09-.06,.18-.11,.27-.17h.65c.59,0,1.48-.01,2.3-.01,.23,0,.45,0,.66,0,.74,0,1.31-.01,1.31-.01,1.51,.85,2.52,2.46,2.52,4.32Z"/>
                  <g>
                    <rect class="cls-44" x="90.21" y="40.37" width="4.87" height=".74"/>
                    <rect class="cls-44" x="94.39" y="39.86" width=".42" height=".88"/>
                    <rect class="cls-44" x="93.4" y="39.86" width=".42" height=".88"/>
                    <rect class="cls-44" x="92.41" y="39.86" width=".42" height=".88"/>
                    <rect class="cls-44" x="91.41" y="39.86" width=".42" height=".88"/>
                    <rect class="cls-44" x="90.42" y="39.86" width=".42" height=".88"/>
                  </g>
                  <path class="cls-59" d="M95.57,39.17c0,.24-.1,.45-.25,.6-.07,.07-.16,.13-.25,.17-.08,.04-.17,.06-.26,.07-.04,0-.07,0-.1,0h-4.15s-.1,0-.14-.01c-.08-.01-.15-.04-.22-.06-.29-.14-.49-.43-.49-.78,0-.06,0-.12,.02-.18,.04-.16,.12-.31,.23-.42,.16-.15,.37-.25,.6-.25h4.15c.4,0,.75,.28,.83,.67,.01,.06,.02,.12,.02,.18Z"/>
                </g>
                <path class="cls-15" d="M97.59,46.33v19.86c0,1.03-.83,1.86-1.86,1.86h-6.19c-.06,0-.11,0-.16,0-.01,0-.02,0-.03,0-.05,0-.1-.01-.15-.02,0,0-.01,0-.02,0-.05-.01-.11-.02-.16-.04-.05-.01-.11-.04-.16-.06-.05-.02-.11-.04-.16-.07-.05-.02-.09-.05-.14-.08-.01,0-.02-.01-.04-.02-.04-.02-.07-.05-.11-.08-.05-.04-.09-.08-.14-.12-.04-.03-.07-.07-.1-.11,0,0,0,0,0,0-.03-.04-.07-.08-.1-.12,0-.01-.01-.02-.02-.03-.03-.04-.06-.08-.09-.13-.06-.1-.11-.2-.15-.31,0,0,0-.01,0-.02,0-.01-.01-.03-.01-.04-.01-.04-.03-.09-.04-.13-.01-.05-.02-.1-.03-.15h0c-.01-.06-.02-.12-.02-.18,0-.03,0-.06,0-.09,1.95,.35,6.12,.76,6.79-1.94,.88-3.55,.6-22.28,.6-22.28,1.51,.85,2.52,2.46,2.52,4.32Z"/>
                <path class="cls-15" d="M95.55,38.98h-5.81c.04-.16,.12-.31,.23-.42,.16-.15,.37-.25,.6-.25h4.15c.4,0,.75,.28,.83,.67Z"/>
                <path class="cls-49" d="M90.81,42.05c-.47,.64-2.14,3.05-2.14,4.64,0,1.83,.03,19.7,.03,19.7l-1.01-.15v-19.9c0-.13,0-.25,.01-.37,0-.09,.01-.17,.02-.26,.07-.57,.24-1.11,.49-1.6,.05-.1,.1-.19,.16-.28,.1-.18,.22-.36,.35-.52,0,0,0,0,0-.01,.06-.08,.12-.16,.19-.23,0,0,0-.01,.01-.02,.05-.05,.1-.11,.16-.17,.09-.1,.19-.19,.29-.28,.08-.07,.16-.14,.25-.2,.09-.06,.17-.13,.26-.19,.09-.06,.18-.11,.27-.17,.01-.01,.04-.02,.05-.03v-.75l.72,.63s-.04,.06-.11,.16Z"/>
              </g>
              <g>
                <g>
                  <g class="cls-56">
                    <path class="cls-51" d="M106.8,46.33v19.86c0,1.03-.83,1.86-1.86,1.86h-6.19c-.06,0-.11,0-.16,0-.01,0-.02,0-.03,0-.05,0-.1-.01-.15-.02,0,0-.01,0-.02,0-.05-.01-.11-.02-.16-.04-.05-.01-.11-.04-.16-.06-.05-.02-.11-.04-.16-.07-.05-.02-.09-.05-.14-.08-.01,0-.02-.01-.04-.02-.04-.02-.07-.05-.11-.08-.05-.04-.09-.08-.14-.12-.04-.03-.07-.07-.1-.11,0,0,0,0,0,0-.03-.04-.07-.08-.1-.12,0-.01-.01-.02-.02-.03-.03-.04-.06-.08-.09-.13-.06-.1-.11-.2-.15-.31,0,0,0-.01,0-.02,0-.01-.01-.03-.01-.04-.01-.04-.03-.09-.04-.13-.01-.05-.02-.1-.03-.15h0c-.01-.06-.02-.12-.02-.18,0-.03,0-.05,0-.08l1.01,.15s-.03-17.87-.03-19.7c0-1.58,1.53-4.67,1.53-4.67v-3.48h4.87v3.48c1.51,.85,2.52,2.46,2.52,4.32Z"/>
                  </g>
                  <path class="cls-59" d="M106.8,46.33v19.86c0,1.03-.83,1.86-1.86,1.86h-6.19c-.06,0-.11,0-.16,0-.01,0-.02,0-.03,0-.05,0-.1-.01-.15-.02,0,0-.01,0-.02,0-.05-.01-.11-.02-.16-.04-.05-.01-.11-.04-.16-.06-.05-.02-.11-.04-.16-.07-.05-.02-.09-.05-.14-.08-.01,0-.02-.01-.04-.02-.04-.02-.07-.05-.11-.08-.05-.04-.09-.08-.14-.12-.04-.03-.07-.07-.1-.11,0,0,0,0,0,0-.03-.04-.07-.08-.1-.12,0-.01-.01-.02-.02-.03-.03-.04-.06-.08-.09-.13-.06-.1-.11-.2-.15-.31,0,0,0-.01,0-.02,0-.01-.01-.03-.01-.04-.01-.04-.03-.09-.04-.13-.01-.05-.02-.1-.03-.15h0c-.01-.06-.02-.12-.02-.18,0-.03,0-.05,0-.08v-9.24c0-1.7,0-3.45,0-5.02v-.33c0-3.19,0-5.64,.01-5.68,0-.09,.01-.17,.02-.26,.07-.57,.24-1.11,.49-1.6,.05-.1,.1-.19,.16-.28,.1-.18,.22-.36,.35-.52,0,0,0,0,0-.01,.06-.08,.12-.16,.19-.23,0,0,0-.01,.01-.02,.05-.05,.1-.11,.16-.17,.09-.1,.19-.19,.29-.28,.08-.07,.16-.14,.25-.2,.09-.06,.17-.13,.26-.19,.09-.06,.18-.11,.27-.17h.65c.59,0,1.48-.01,2.3-.01,.23,0,.45,0,.66,0,.74,0,1.31-.01,1.31-.01,1.51,.85,2.52,2.46,2.52,4.32Z"/>
                  <g>
                    <rect class="cls-44" x="99.42" y="40.37" width="4.87" height=".74"/>
                    <rect class="cls-44" x="103.61" y="39.86" width=".42" height=".88"/>
                    <rect class="cls-44" x="102.61" y="39.86" width=".42" height=".88"/>
                    <rect class="cls-44" x="101.62" y="39.86" width=".42" height=".88"/>
                    <rect class="cls-44" x="100.63" y="39.86" width=".42" height=".88"/>
                    <rect class="cls-44" x="99.63" y="39.86" width=".42" height=".88"/>
                  </g>
                  <path class="cls-59" d="M104.78,39.17c0,.24-.1,.45-.25,.6-.07,.07-.16,.13-.25,.17-.08,.04-.17,.06-.26,.07-.04,0-.07,0-.1,0h-4.15s-.1,0-.14-.01c-.08-.01-.15-.04-.22-.06-.29-.14-.49-.43-.49-.78,0-.06,0-.12,.02-.18,.04-.16,.12-.31,.23-.42,.16-.15,.37-.25,.6-.25h4.15c.4,0,.75,.28,.83,.67,.01,.06,.02,.12,.02,.18Z"/>
                </g>
                <path class="cls-15" d="M106.8,46.33v19.86c0,1.03-.83,1.86-1.86,1.86h-6.19c-.06,0-.11,0-.16,0-.01,0-.02,0-.03,0-.05,0-.1-.01-.15-.02,0,0-.01,0-.02,0-.05-.01-.11-.02-.16-.04-.05-.01-.11-.04-.16-.06-.05-.02-.11-.04-.16-.07-.05-.02-.09-.05-.14-.08-.01,0-.02-.01-.04-.02-.04-.02-.07-.05-.11-.08-.05-.04-.09-.08-.14-.12-.04-.03-.07-.07-.1-.11,0,0,0,0,0,0-.03-.04-.07-.08-.1-.12,0-.01-.01-.02-.02-.03-.03-.04-.06-.08-.09-.13-.06-.1-.11-.2-.15-.31,0,0,0-.01,0-.02,0-.01-.01-.03-.01-.04-.01-.04-.03-.09-.04-.13-.01-.05-.02-.1-.03-.15h0c-.01-.06-.02-.12-.02-.18,0-.03,0-.06,0-.09,1.95,.35,6.12,.76,6.79-1.94,.88-3.55,.6-22.28,.6-22.28,1.51,.85,2.52,2.46,2.52,4.32Z"/>
                <path class="cls-15" d="M104.76,38.98h-5.81c.04-.16,.12-.31,.23-.42,.16-.15,.37-.25,.6-.25h4.15c.4,0,.75,.28,.83,.67Z"/>
                <path class="cls-49" d="M100.02,42.05c-.47,.64-2.14,3.05-2.14,4.64,0,1.83,.03,19.7,.03,19.7l-1.01-.15v-19.9c0-.13,0-.25,.01-.37,0-.09,.01-.17,.02-.26,.07-.57,.24-1.11,.49-1.6,.05-.1,.1-.19,.16-.28,.1-.18,.22-.36,.35-.52,0,0,0,0,0-.01,.06-.08,.12-.16,.19-.23,0,0,0-.01,.01-.02,.05-.05,.1-.11,.16-.17,.09-.1,.19-.19,.29-.28,.08-.07,.16-.14,.25-.2,.09-.06,.17-.13,.26-.19,.09-.06,.18-.11,.27-.17,.01-.01,.04-.02,.05-.03v-.75l.72,.63s-.04,.06-.11,.16Z"/>
              </g>
              <g>
                <g>
                  <g class="cls-56">
                    <path class="cls-51" d="M116.07,46.22v19.86c0,1.03-.83,1.86-1.86,1.86h-6.19c-.06,0-.11,0-.16,0-.01,0-.02,0-.03,0-.05,0-.1-.01-.15-.02,0,0-.01,0-.02,0-.05-.01-.11-.02-.16-.04-.05-.01-.11-.04-.16-.06s-.11-.04-.16-.07c-.05-.02-.09-.05-.14-.08-.01,0-.02-.01-.04-.02-.04-.02-.07-.05-.11-.08-.05-.04-.09-.08-.14-.12-.04-.03-.07-.07-.1-.11,0,0,0,0,0,0-.03-.04-.07-.08-.1-.12,0-.01-.01-.02-.02-.03-.03-.04-.06-.08-.09-.13-.06-.1-.11-.2-.15-.31,0,0,0-.01,0-.02,0-.01-.01-.03-.01-.04-.01-.04-.03-.09-.04-.13-.01-.05-.02-.1-.03-.15h0c-.01-.06-.02-.12-.02-.18,0-.03,0-.05,0-.08l1.01,.15s-.03-17.87-.03-19.7c0-1.58,1.53-4.67,1.53-4.67v-3.48h4.87v3.48c1.51,.85,2.52,2.46,2.52,4.32Z"/>
                  </g>
                  <path class="cls-59" d="M116.07,46.22v19.86c0,1.03-.83,1.86-1.86,1.86h-6.19c-.06,0-.11,0-.16,0-.01,0-.02,0-.03,0-.05,0-.1-.01-.15-.02,0,0-.01,0-.02,0-.05-.01-.11-.02-.16-.04-.05-.01-.11-.04-.16-.06s-.11-.04-.16-.07c-.05-.02-.09-.05-.14-.08-.01,0-.02-.01-.04-.02-.04-.02-.07-.05-.11-.08-.05-.04-.09-.08-.14-.12-.04-.03-.07-.07-.1-.11,0,0,0,0,0,0-.03-.04-.07-.08-.1-.12,0-.01-.01-.02-.02-.03-.03-.04-.06-.08-.09-.13-.06-.1-.11-.2-.15-.31,0,0,0-.01,0-.02,0-.01-.01-.03-.01-.04-.01-.04-.03-.09-.04-.13-.01-.05-.02-.1-.03-.15h0c-.01-.06-.02-.12-.02-.18,0-.03,0-.05,0-.08v-9.24c0-1.7,0-3.45,0-5.02v-.33c0-3.19,0-5.64,.01-5.68,0-.09,.01-.17,.02-.26,.07-.57,.24-1.11,.49-1.6,.05-.1,.1-.19,.16-.28,.1-.18,.22-.36,.35-.52,0,0,0,0,0-.01,.06-.08,.12-.16,.19-.23,0,0,0-.01,.01-.02,.05-.05,.1-.11,.16-.17,.09-.1,.19-.19,.29-.28,.08-.07,.16-.14,.25-.2,.09-.06,.17-.13,.26-.19,.09-.06,.18-.11,.27-.17h.65c.59,0,1.48-.01,2.3-.01,.23,0,.45,0,.66,0,.74,0,1.31-.01,1.31-.01,1.51,.85,2.52,2.46,2.52,4.32Z"/>
                  <g>
                    <rect class="cls-44" x="108.68" y="40.26" width="4.87" height=".74"/>
                    <rect class="cls-44" x="112.87" y="39.75" width=".42" height=".88"/>
                    <rect class="cls-44" x="111.88" y="39.75" width=".42" height=".88"/>
                    <rect class="cls-44" x="110.89" y="39.75" width=".42" height=".88"/>
                    <rect class="cls-44" x="109.89" y="39.75" width=".42" height=".88"/>
                    <rect class="cls-44" x="108.9" y="39.75" width=".42" height=".88"/>
                  </g>
                  <path class="cls-59" d="M114.05,39.06c0,.24-.1,.45-.25,.6-.07,.07-.16,.13-.25,.17-.08,.04-.17,.06-.26,.07-.04,0-.07,0-.1,0h-4.15s-.1,0-.14-.01c-.08-.01-.15-.04-.22-.06-.29-.14-.49-.43-.49-.78,0-.06,0-.12,.02-.18,.04-.16,.12-.31,.23-.42,.16-.15,.37-.25,.6-.25h4.15c.4,0,.75,.28,.83,.67,.01,.06,.02,.12,.02,.18Z"/>
                </g>
                <path class="cls-15" d="M116.07,46.22v19.86c0,1.03-.83,1.86-1.86,1.86h-6.19c-.06,0-.11,0-.16,0-.01,0-.02,0-.03,0-.05,0-.1-.01-.15-.02,0,0-.01,0-.02,0-.05-.01-.11-.02-.16-.04-.05-.01-.11-.04-.16-.06s-.11-.04-.16-.07c-.05-.02-.09-.05-.14-.08-.01,0-.02-.01-.04-.02-.04-.02-.07-.05-.11-.08-.05-.04-.09-.08-.14-.12-.04-.03-.07-.07-.1-.11,0,0,0,0,0,0-.03-.04-.07-.08-.1-.12,0-.01-.01-.02-.02-.03-.03-.04-.06-.08-.09-.13-.06-.1-.11-.2-.15-.31,0,0,0-.01,0-.02,0-.01-.01-.03-.01-.04-.01-.04-.03-.09-.04-.13-.01-.05-.02-.1-.03-.15h0c-.01-.06-.02-.12-.02-.18,0-.03,0-.06,0-.09,1.95,.35,6.12,.76,6.79-1.94,.88-3.55,.6-22.28,.6-22.28,1.51,.85,2.52,2.46,2.52,4.32Z"/>
                <path class="cls-15" d="M114.03,38.88h-5.81c.04-.16,.12-.31,.23-.42,.16-.15,.37-.25,.6-.25h4.15c.4,0,.75,.28,.83,.67Z"/>
                <path class="cls-49" d="M109.29,41.94c-.47,.64-2.14,3.05-2.14,4.64,0,1.83,.03,19.7,.03,19.7l-1.01-.15v-19.9c0-.13,0-.25,.01-.37,0-.09,.01-.17,.02-.26,.07-.57,.24-1.11,.49-1.6,.05-.1,.1-.19,.16-.28,.1-.18,.22-.36,.35-.52,0,0,0,0,0-.01,.06-.08,.12-.16,.19-.23,0,0,0-.01,.01-.02,.05-.05,.1-.11,.16-.17,.09-.1,.19-.19,.29-.28,.08-.07,.16-.14,.25-.2,.09-.06,.17-.13,.26-.19,.09-.06,.18-.11,.27-.17,.01-.01,.04-.02,.05-.03v-.75l.72,.63s-.04,.06-.11,.16Z"/>
              </g>
            </g>
            <g>
              <g>
                <polygon class="cls-37" points="126.4 33.48 116.97 34.28 84.36 34.05 84.36 26.06 126.4 22.92 126.4 33.48"/>
                <polygon class="cls-5" points="116.97 23.63 116.97 34.28 101.06 34.75 97.12 34.87 91.25 35.04 87.32 35.15 82.9 35.29 82.9 24.96 92.55 24.58 96.51 24.43 102.41 24.2 106.36 24.04 116.97 23.63"/>
                <polygon class="cls-70" points="116.97 24.77 116.97 34.38 101.03 34.8 97.1 34.91 91.24 35.06 87.31 35.17 82.9 35.29 82.9 25.97 92.03 25.65 95.97 25.51 101.86 25.3 105.81 25.16 116.97 24.77"/>
                <polygon class="cls-4" points="96.51 24.43 95.97 25.51 91.25 35.04 91.24 35.06 87.31 35.17 87.32 35.15 92.03 25.65 92.55 24.58 96.51 24.43"/>
                <polygon class="cls-4" points="106.36 24.04 105.81 25.16 101.06 34.75 101.03 34.8 97.1 34.91 97.12 34.87 101.86 25.3 102.41 24.2 106.36 24.04"/>
              </g>
              <g>
                <polygon class="cls-37" points="126.4 67.64 116.97 68.43 84.36 68.2 84.36 60.22 126.4 57.07 126.4 67.64"/>
                <polygon class="cls-5" points="116.97 57.78 116.97 68.43 101.06 68.9 97.12 69.02 91.25 69.19 87.32 69.31 82.9 69.44 82.9 59.11 92.55 58.74 96.51 58.58 102.41 58.35 106.36 58.19 116.97 57.78"/>
                <polygon class="cls-70" points="116.97 58.92 116.97 68.53 101.03 68.95 97.1 69.06 91.24 69.22 87.31 69.32 82.9 69.44 82.9 60.13 92.03 59.8 95.97 59.66 101.86 59.46 105.81 59.32 116.97 58.92"/>
                <polygon class="cls-4" points="96.51 58.58 95.97 59.66 91.25 69.19 91.24 69.22 87.31 69.32 87.32 69.31 92.03 59.8 92.55 58.74 96.51 58.58"/>
                <polygon class="cls-4" points="106.36 58.19 105.81 59.32 101.06 68.9 101.03 68.95 97.1 69.06 97.12 69.02 101.86 59.46 102.41 58.35 106.36 58.19"/>
              </g>
              <g>
                <polygon class="cls-37" points="126.4 111.47 116.97 112.26 84.36 112.04 84.36 104.05 126.4 100.9 126.4 111.47"/>
                <polygon class="cls-5" points="116.97 101.61 116.97 112.26 101.06 112.73 97.12 112.85 91.25 113.03 87.32 113.14 82.9 113.27 82.9 102.94 92.55 102.57 96.51 102.41 102.41 102.18 106.36 102.03 116.97 101.61"/>
                <polygon class="cls-70" points="116.97 102.75 116.97 112.36 101.03 112.79 97.1 112.89 91.24 113.05 87.31 113.15 82.9 113.27 82.9 103.96 92.03 103.63 95.97 103.5 101.86 103.29 105.81 103.15 116.97 102.75"/>
                <polygon class="cls-4" points="96.51 102.41 95.97 103.5 91.25 113.03 91.24 113.05 87.31 113.15 87.32 113.14 92.03 103.63 92.55 102.57 96.51 102.41"/>
                <polygon class="cls-4" points="106.36 102.03 105.81 103.15 101.06 112.73 101.03 112.79 97.1 112.89 97.12 112.85 101.86 103.29 102.41 102.18 106.36 102.03"/>
              </g>
            </g>
          </g>
        </g>
      </g>
    </g>
  </g>
</svg>