<?xml version="1.0" encoding="UTF-8"?>
<svg xmlns="http://www.w3.org/2000/svg" xmlns:xlink="http://www.w3.org/1999/xlink" viewBox="0 0 174.57 176.3">
  <defs>
    <style>
      .cls-1 {
        fill: #fff;
      }

      .cls-2 {
        fill: #a9aaaa;
      }

      .cls-3 {
        isolation: isolate;
      }

      .cls-4 {
        fill: url(#linear-gradient);
      }

      .cls-4, .cls-5, .cls-6, .cls-7 {
        mix-blend-mode: screen;
        opacity: .7;
      }

      .cls-8 {
        fill: #e30613;
      }

      .cls-9 {
        fill: #e7e7e7;
      }

      .cls-10 {
        mix-blend-mode: multiply;
        opacity: .5;
      }

      .cls-5 {
        fill: url(#linear-gradient-2);
      }

      .cls-6 {
        fill: url(#linear-gradient-3);
      }

      .cls-11 {
        fill: #ed7d2b;
      }

      .cls-12 {
        fill: #1d1d1b;
      }

      .cls-13 {
        fill: #2b478b;
      }

      .cls-14 {
        fill: #c6c6c5;
      }

      .cls-7 {
        fill: url(#linear-gradient-4);
      }
    </style>
    <linearGradient id="linear-gradient" x1="130.34" y1="13.68" x2="130.34" y2="84.71" gradientUnits="userSpaceOnUse">
      <stop offset="0" stop-color="#fff"/>
      <stop offset="1" stop-color="#0096d0"/>
    </linearGradient>
    <linearGradient id="linear-gradient-2" x1="102.07" y1="142.75" x2="122.01" y2="142.75" xlink:href="#linear-gradient"/>
    <linearGradient id="linear-gradient-3" x1="37.52" x2="37.52" xlink:href="#linear-gradient"/>
    <linearGradient id="linear-gradient-4" x1="8.58" y1="141.02" x2="27.34" y2="141.02" xlink:href="#linear-gradient"/>
  </defs>
  <g class="cls-3">
    <g id="Layer_2" data-name="Layer 2">
      <g id="Layer_1-2" data-name="Layer 1">
        <g>
          <g>
            <g>
              <g>
                <g>
                  <path class="cls-1" d="M133.69,176.01c-22.38,0-40.58-18.2-40.58-40.58,0-17.84,11.56-33.44,28.4-38.72V12.48c0-6.72,5.47-12.18,12.18-12.18s12.18,5.47,12.18,12.18V96.71c16.83,5.27,28.4,20.88,28.4,38.72,0,22.38-18.2,40.58-40.58,40.58Z"/>
                  <path class="cls-14" d="M133.69,176.3c-22.54,0-40.87-18.34-40.87-40.87,0-17.89,11.4-33.51,28.4-38.93V12.48c0-6.88,5.6-12.48,12.48-12.48s12.48,5.6,12.48,12.48V96.5c16.99,5.42,28.4,21.04,28.4,38.93,0,22.54-18.34,40.87-40.88,40.87Zm0-175.71c-6.56,0-11.89,5.33-11.89,11.89V96.93l-.21,.07c-16.86,5.28-28.19,20.73-28.19,38.43,0,22.21,18.07,40.28,40.28,40.28s40.29-18.07,40.29-40.28c0-17.7-11.33-33.15-28.19-38.43l-.21-.07V12.48c0-6.56-5.33-11.89-11.89-11.89Z"/>
                </g>
                <path class="cls-9" d="M142.92,98.95V12.48c0-5.1-4.13-9.23-9.23-9.23s-9.23,4.13-9.23,9.23V98.95c-16.32,4.11-28.4,18.89-28.4,36.48,0,20.78,16.84,37.62,37.62,37.62s37.63-16.84,37.63-37.62c0-17.6-12.08-32.37-28.4-36.48Z"/>
                <path class="cls-9" d="M142.92,15.52v-3.04c0-5.1-4.13-9.23-9.23-9.23s-9.23,4.13-9.23,9.23v3.04h18.46Z"/>
                <path class="cls-13" d="M142.92,98.95v-4.63h-18.46v4.63c-16.32,4.11-28.4,18.89-28.4,36.48,0,20.78,16.84,37.62,37.62,37.62s37.63-16.84,37.63-37.62c0-17.6-12.08-32.37-28.4-36.48Z"/>
                <g class="cls-10">
                  <path class="cls-2" d="M142.92,98.95V12.48c0-5.1-4.13-9.23-9.23-9.23s-9.23,4.13-9.23,9.23V98.95c-16.32,4.11-28.4,18.89-28.4,36.48,0,20.78,16.84,37.62,37.62,37.62s37.63-16.84,37.63-37.62c0-17.6-12.08-32.37-28.4-36.48Zm-9.23,71.03c-18.88,0-34.18-15.3-34.18-34.18,0-16.57,11.79-30.38,27.44-33.51V14.9c0-3.72,3.02-6.74,6.74-6.74s6.74,3.02,6.74,6.74V102.29c15.65,3.13,27.44,16.94,27.44,33.51,0,18.88-15.3,34.18-34.18,34.18Z"/>
                </g>
                <path class="cls-4" d="M131.26,92.68c0,.96-.41,1.73-.92,1.73h0c-.51,0-.92-.77-.92-1.73V14.73c0-.96,.41-1.73,.92-1.73h0c.51,0,.92,.77,.92,1.73V92.68Z"/>
                <g>
                  <path class="cls-12" d="M142.39,94.13h-4.32c-.33,0-.6,.15-.6,.33s.27,.33,.6,.33h4.32c.33,0,.61-.15,.61-.33s-.28-.33-.61-.33Z"/>
                  <path class="cls-12" d="M139.59,93.05h2.8c.18,0,.33-.08,.33-.17s-.15-.17-.33-.17h-2.8c-.18,0-.33,.07-.33,.17s.15,.17,.33,.17Z"/>
                  <path class="cls-12" d="M139.59,91.48h2.8c.18,0,.33-.08,.33-.17s-.15-.17-.33-.17h-2.8c-.18,0-.33,.07-.33,.17s.15,.17,.33,.17Z"/>
                  <path class="cls-12" d="M139.59,89.91h2.8c.18,0,.33-.07,.33-.17s-.15-.17-.33-.17h-2.8c-.18,0-.33,.07-.33,.17s.15,.17,.33,.17Z"/>
                  <path class="cls-12" d="M139.59,88.33h2.8c.18,0,.33-.08,.33-.17s-.15-.17-.33-.17h-2.8c-.18,0-.33,.07-.33,.17s.15,.17,.33,.17Z"/>
                  <path class="cls-12" d="M142.39,86.27h-4.32c-.33,0-.6,.15-.6,.33s.27,.33,.6,.33h4.32c.33,0,.61-.15,.61-.33s-.28-.33-.61-.33Z"/>
                  <path class="cls-12" d="M139.59,85.19h2.8c.18,0,.33-.08,.33-.17s-.15-.17-.33-.17h-2.8c-.18,0-.33,.07-.33,.17s.15,.17,.33,.17Z"/>
                  <path class="cls-12" d="M139.59,83.62h2.8c.18,0,.33-.08,.33-.17s-.15-.17-.33-.17h-2.8c-.18,0-.33,.08-.33,.17s.15,.17,.33,.17Z"/>
                  <path class="cls-12" d="M139.59,82.05h2.8c.18,0,.33-.08,.33-.17s-.15-.17-.33-.17h-2.8c-.18,0-.33,.07-.33,.17s.15,.17,.33,.17Z"/>
                  <path class="cls-12" d="M139.59,80.47h2.8c.18,0,.33-.07,.33-.17s-.15-.17-.33-.17h-2.8c-.18,0-.33,.08-.33,.17s.15,.17,.33,.17Z"/>
                  <path class="cls-12" d="M142.39,78.41h-4.32c-.33,0-.6,.15-.6,.33s.27,.33,.6,.33h4.32c.33,0,.61-.15,.61-.33s-.28-.33-.61-.33Z"/>
                  <path class="cls-12" d="M139.59,77.33h2.8c.18,0,.33-.08,.33-.17s-.15-.17-.33-.17h-2.8c-.18,0-.33,.08-.33,.17s.15,.17,.33,.17Z"/>
                  <path class="cls-12" d="M139.59,75.76h2.8c.18,0,.33-.08,.33-.17s-.15-.17-.33-.17h-2.8c-.18,0-.33,.07-.33,.17s.15,.17,.33,.17Z"/>
                  <path class="cls-12" d="M139.59,74.19h2.8c.18,0,.33-.07,.33-.17s-.15-.17-.33-.17h-2.8c-.18,0-.33,.07-.33,.17s.15,.17,.33,.17Z"/>
                  <path class="cls-12" d="M139.59,72.62h2.8c.18,0,.33-.07,.33-.17s-.15-.17-.33-.17h-2.8c-.18,0-.33,.07-.33,.17s.15,.17,.33,.17Z"/>
                  <path class="cls-12" d="M142.39,70.55h-4.32c-.33,0-.6,.15-.6,.33s.27,.33,.6,.33h4.32c.33,0,.61-.15,.61-.33s-.28-.33-.61-.33Z"/>
                  <path class="cls-12" d="M139.59,69.47h2.8c.18,0,.33-.07,.33-.17s-.15-.17-.33-.17h-2.8c-.18,0-.33,.08-.33,.17s.15,.17,.33,.17Z"/>
                  <path class="cls-12" d="M139.59,67.9h2.8c.18,0,.33-.08,.33-.17s-.15-.17-.33-.17h-2.8c-.18,0-.33,.08-.33,.17s.15,.17,.33,.17Z"/>
                  <path class="cls-12" d="M139.59,66.33h2.8c.18,0,.33-.08,.33-.17s-.15-.17-.33-.17h-2.8c-.18,0-.33,.07-.33,.17s.15,.17,.33,.17Z"/>
                  <path class="cls-12" d="M139.59,64.76h2.8c.18,0,.33-.07,.33-.17s-.15-.17-.33-.17h-2.8c-.18,0-.33,.08-.33,.17s.15,.17,.33,.17Z"/>
                  <path class="cls-12" d="M142.39,62.69h-4.32c-.33,0-.6,.15-.6,.33s.27,.33,.6,.33h4.32c.33,0,.61-.15,.61-.33s-.28-.33-.61-.33Z"/>
                  <path class="cls-12" d="M139.59,61.61h2.8c.18,0,.33-.07,.33-.17s-.15-.17-.33-.17h-2.8c-.18,0-.33,.08-.33,.17s.15,.17,.33,.17Z"/>
                  <path class="cls-12" d="M139.59,60.04h2.8c.18,0,.33-.08,.33-.17s-.15-.17-.33-.17h-2.8c-.18,0-.33,.07-.33,.17s.15,.17,.33,.17Z"/>
                  <path class="cls-12" d="M139.59,58.47h2.8c.18,0,.33-.07,.33-.17s-.15-.17-.33-.17h-2.8c-.18,0-.33,.07-.33,.17s.15,.17,.33,.17Z"/>
                  <path class="cls-12" d="M139.59,56.9h2.8c.18,0,.33-.08,.33-.17s-.15-.17-.33-.17h-2.8c-.18,0-.33,.08-.33,.17s.15,.17,.33,.17Z"/>
                  <path class="cls-12" d="M142.39,54.83h-4.32c-.33,0-.6,.15-.6,.33s.27,.33,.6,.33h4.32c.33,0,.61-.15,.61-.33s-.28-.33-.61-.33Z"/>
                  <path class="cls-12" d="M139.59,53.76h2.8c.18,0,.33-.07,.33-.17s-.15-.17-.33-.17h-2.8c-.18,0-.33,.07-.33,.17s.15,.17,.33,.17Z"/>
                  <path class="cls-12" d="M139.59,52.18h2.8c.18,0,.33-.08,.33-.17s-.15-.17-.33-.17h-2.8c-.18,0-.33,.08-.33,.17s.15,.17,.33,.17Z"/>
                  <path class="cls-12" d="M139.59,50.61h2.8c.18,0,.33-.07,.33-.17s-.15-.17-.33-.17h-2.8c-.18,0-.33,.07-.33,.17s.15,.17,.33,.17Z"/>
                  <path class="cls-12" d="M139.59,49.04h2.8c.18,0,.33-.07,.33-.17s-.15-.17-.33-.17h-2.8c-.18,0-.33,.07-.33,.17s.15,.17,.33,.17Z"/>
                  <path class="cls-12" d="M142.39,46.98h-4.32c-.33,0-.6,.15-.6,.33s.27,.33,.6,.33h4.32c.33,0,.61-.15,.61-.33s-.28-.33-.61-.33Z"/>
                  <path class="cls-12" d="M142.39,45.56h-2.8c-.18,0-.33,.07-.33,.17s.15,.17,.33,.17h2.8c.18,0,.33-.07,.33-.17s-.15-.17-.33-.17Z"/>
                  <path class="cls-12" d="M142.39,43.99h-2.8c-.18,0-.33,.08-.33,.17s.15,.17,.33,.17h2.8c.18,0,.33-.07,.33-.17s-.15-.17-.33-.17Z"/>
                  <path class="cls-12" d="M142.39,42.42h-2.8c-.18,0-.33,.07-.33,.17s.15,.17,.33,.17h2.8c.18,0,.33-.07,.33-.17s-.15-.17-.33-.17Z"/>
                  <path class="cls-12" d="M142.39,40.85h-2.8c-.18,0-.33,.07-.33,.17s.15,.17,.33,.17h2.8c.18,0,.33-.07,.33-.17s-.15-.17-.33-.17Z"/>
                  <path class="cls-12" d="M139.59,38.04h2.8c.18,0,.33-.08,.33-.17s-.15-.17-.33-.17h-2.8c-.18,0-.33,.07-.33,.17s.15,.17,.33,.17Z"/>
                  <path class="cls-12" d="M139.59,36.47h2.8c.18,0,.33-.07,.33-.17s-.15-.17-.33-.17h-2.8c-.18,0-.33,.08-.33,.17s.15,.17,.33,.17Z"/>
                  <path class="cls-12" d="M139.59,34.89h2.8c.18,0,.33-.08,.33-.17s-.15-.17-.33-.17h-2.8c-.18,0-.33,.07-.33,.17s.15,.17,.33,.17Z"/>
                  <path class="cls-12" d="M139.59,33.32h2.8c.18,0,.33-.07,.33-.17s-.15-.17-.33-.17h-2.8c-.18,0-.33,.07-.33,.17s.15,.17,.33,.17Z"/>
                  <path class="cls-12" d="M142.39,31.26h-4.32c-.33,0-.6,.14-.6,.32s.27,.33,.6,.33h4.32c.33,0,.61-.15,.61-.33s-.28-.32-.61-.32Z"/>
                  <path class="cls-12" d="M142.39,39.12h-4.32c-.33,0-.6,.15-.6,.33s.27,.33,.6,.33h4.32c.33,0,.61-.15,.61-.33s-.28-.33-.61-.33Z"/>
                  <path class="cls-12" d="M139.59,30.18h2.8c.18,0,.33-.07,.33-.17s-.15-.17-.33-.17h-2.8c-.18,0-.33,.08-.33,.17s.15,.17,.33,.17Z"/>
                  <path class="cls-12" d="M139.59,28.61h2.8c.18,0,.33-.07,.33-.17s-.15-.17-.33-.17h-2.8c-.18,0-.33,.08-.33,.17s.15,.17,.33,.17Z"/>
                  <path class="cls-12" d="M139.59,27.04h2.8c.18,0,.33-.08,.33-.17s-.15-.17-.33-.17h-2.8c-.18,0-.33,.08-.33,.17s.15,.17,.33,.17Z"/>
                  <path class="cls-12" d="M139.59,25.46h2.8c.18,0,.33-.07,.33-.17s-.15-.17-.33-.17h-2.8c-.18,0-.33,.08-.33,.17s.15,.17,.33,.17Z"/>
                  <path class="cls-12" d="M139.59,20.75h2.8c.18,0,.33-.08,.33-.17s-.15-.17-.33-.17h-2.8c-.18,0-.33,.08-.33,.17s.15,.17,.33,.17Z"/>
                  <path class="cls-12" d="M139.59,17.61h2.8c.18,0,.33-.07,.33-.17s-.15-.17-.33-.17h-2.8c-.18,0-.33,.08-.33,.17s.15,.17,.33,.17Z"/>
                  <path class="cls-12" d="M142.39,23.4h-4.32c-.33,0-.6,.15-.6,.33s.27,.33,.6,.33h4.32c.33,0,.61-.15,.61-.33s-.28-.33-.61-.33Z"/>
                  <path class="cls-12" d="M142.39,15.54h-4.32c-.33,0-.6,.15-.6,.33s.27,.33,.6,.33h4.32c.33,0,.61-.15,.61-.33s-.28-.33-.61-.33Z"/>
                  <path class="cls-12" d="M139.59,22.32h2.8c.18,0,.33-.07,.33-.17s-.15-.17-.33-.17h-2.8c-.18,0-.33,.07-.33,.17s.15,.17,.33,.17Z"/>
                  <path class="cls-12" d="M139.59,19.18h2.8c.18,0,.33-.07,.33-.17s-.15-.17-.33-.17h-2.8c-.18,0-.33,.08-.33,.17s.15,.17,.33,.17Z"/>
                </g>
              </g>
              <path class="cls-5" d="M116.18,162.67c-2.91-2.88-5.39-5.84-7.79-10.3-.44-.82-.79-1.63-1.09-2.43-4.95-9.8-4.12-21.88,.77-31.49,.09-.18-.14-.23-.23-.09-3.1,5.13-5.37,9.98-5.72,16.07-.34,5.93,.93,12.01,3.53,17.34,3.39,6.95,9.36,12.41,16.36,15.46-2.09-1.28-4.04-2.79-5.82-4.56Z"/>
            </g>
            <g>
              <path class="cls-1" d="M129.58,129.38l-.06-.09-2.18,3.77,.38,.66h5.29l-2.54-4.34h-.9Zm-.49,3.11l.89-1.53,.9,1.53h-1.78Z"/>
              <path class="cls-1" d="M133.96,133.3l2.56-4.35-.58-1,.04-.07h-3.96l.04,.07-.61,1.06,2.51,4.29Zm1.04-4.19l-1.04,1.77-1.03-1.77h2.07Z"/>
              <path class="cls-1" d="M131.23,126.52l.49,.85h4.55l.49-.85h1.18l3.35-5.7h-14.64l3.33,5.7h1.24Zm7.92-4.47l-1.91,3.24h-1.19l-.35,.61-.14,.24h-3.14l-.14-.24-.35-.61h-1.24l-1.9-3.24h10.35Z"/>
              <path class="cls-1" d="M133.96,135.32l-2.43,4.12,.53,.91-.12,.22h4.14l-.12-.22,.47-.82-2.46-4.21Zm-.94,4.02l.94-1.59,.93,1.59h-1.87Z"/>
              <path class="cls-1" d="M136.77,141.78l-.4-.7h-4.72l-.4,.7h-1.08l-3.44,5.84h14.44l-3.42-5.84h-.97Zm-7.9,4.62l1.99-3.39h1.08l.35-.62,.05-.09h3.31l.05,.09,.35,.62h.97l1.98,3.39h-10.15Z"/>
              <path class="cls-1" d="M138.77,127.13l.47,.81-.48,.83,2.36,4.09h1.13l.49,.85h6.43l-7.07-12.24-3.33,5.66Zm4.68,5.35l-.14-.23-.35-.61h-1.13l-1.65-2.86,.12-.21,.35-.62-.35-.61-.11-.2,1.9-3.23,4.95,8.58h-3.6Z"/>
              <path class="cls-1" d="M142.25,135.72h-1.21l-2.24,3.87,.43,.75-.58,1,3.37,5.75,7.14-12.37h-6.35l-.57,.99Zm1.06,.61l.22-.37h3.52l-5.02,8.7-1.94-3.32,.22-.38,.35-.61-.35-.61-.08-.14,1.53-2.65h1.21l.35-.61Z"/>
              <path class="cls-1" d="M158.55,134.33l.85-1.22c.55-.79,.36-1.87-.42-2.42-.3-.21-.64-.32-1-.32-.24,0-.47,.05-.68,.14,0-.06-.01-.12-.02-.19-.08-.46-.33-.86-.71-1.12-.29-.21-.64-.31-1-.31-.19,0-.37,.03-.55,.09-.08-.42-.32-.81-.7-1.08-.3-.21-.64-.32-1-.32-.56,0-1.1,.27-1.42,.73l-1.79,2.55-5.03-8.71,3.17-.07c.46,0,.89-.2,1.22-.53,.32-.34,.49-.78,.48-1.24-.01-.52-.25-.99-.61-1.29,.39-.33,.63-.82,.61-1.36-.02-.59-.33-1.11-.79-1.41,.46-.29,.77-.79,.8-1.37,.05-.95-.68-1.77-1.64-1.83l-1.6-.08-.54-1.25c-.27-.64-.9-1.05-1.6-1.05-.24,0-.47,.05-.69,.14-.57,.24-.94,.75-1.03,1.33-.25-.13-.52-.2-.82-.2-.24,0-.47,.05-.69,.15-.52,.22-.87,.67-1,1.18-.19-.07-.4-.11-.61-.11-.24,0-.47,.05-.69,.14-.88,.38-1.29,1.4-.91,2.28l1.29,3.02h-10.72l1.29-3.02c.38-.88-.03-1.9-.91-2.28-.22-.09-.45-.14-.68-.14-.21,0-.42,.04-.61,.11-.02-.08-.04-.16-.08-.24-.17-.43-.5-.77-.93-.95-.21-.09-.44-.14-.68-.14-.29,0-.57,.07-.81,.2-.02-.13-.06-.25-.11-.38-.17-.43-.5-.77-.93-.95-.21-.09-.44-.14-.68-.14-.7,0-1.32,.41-1.6,1.06l-.54,1.25-1.6,.08c-.96,.05-1.69,.87-1.64,1.83,.03,.58,.34,1.08,.8,1.37-.46,.3-.77,.82-.79,1.42-.01,.54,.23,1.03,.61,1.36-.37,.31-.6,.77-.61,1.3-.01,.46,.16,.9,.48,1.24,.32,.34,.75,.53,1.22,.53l2.94,.07-5.33,9.22-2.09-3c-.32-.47-.86-.74-1.42-.74-.36,0-.7,.11-.99,.31-.37,.26-.63,.64-.71,1.08-.17-.06-.36-.09-.55-.09-.36,0-.7,.11-.99,.31-.45,.31-.7,.8-.74,1.31-.21-.09-.44-.14-.68-.14-.35,0-.69,.1-.99,.31-.79,.56-.99,1.64-.44,2.43l.78,1.12-.77,1.4c-.46,.84-.16,1.9,.68,2.36,.27,.14,.55,.21,.84,.21,.26,0,.52-.06,.75-.17,0,.11,.02,.21,.04,.32,.09,.45,.36,.85,.75,1.1,.29,.19,.62,.28,.95,.28,.19,0,.37-.03,.54-.08,.07,.48,.33,.92,.77,1.2,.29,.19,.62,.28,.95,.28,.59,0,1.13-.29,1.45-.79l2.02-3.09,5.18,8.97-3.09,.26c-.95,.08-1.66,.92-1.58,1.87,.04,.47,.25,.87,.58,1.16-.39,.35-.62,.88-.58,1.44,.05,.55,.34,1.02,.76,1.3-.46,.35-.74,.92-.68,1.53,.08,.89,.83,1.59,1.72,1.59,.06,0,.11,0,.17,0l1.47-.13,.64,1.26c.3,.59,.89,.96,1.55,.96,.27,0,.55-.07,.8-.19,.55-.28,.89-.82,.94-1.4,.25,.14,.54,.21,.84,.21,.27,0,.54-.06,.78-.19,.49-.25,.81-.69,.91-1.19,.2,.08,.42,.12,.65,.12,.27,0,.54-.06,.78-.18,.42-.21,.73-.57,.87-1.01,.14-.44,.11-.91-.1-1.33l-1.27-2.51h10.04l-1.39,2.76c-.21,.41-.25,.88-.1,1.33,.15,.44,.45,.8,.87,1.01,.23,.12,.51,.19,.78,.19,.23,0,.45-.04,.65-.12,.11,.49,.43,.94,.92,1.18,.23,.12,.5,.19,.78,.19,.3,0,.59-.08,.84-.21,.01,.14,.04,.27,.08,.41,.15,.44,.46,.8,.87,1.01,.24,.12,.51,.18,.78,.18,.66,0,1.25-.36,1.55-.95l.64-1.27,1.48,.13s.1,0,.15,0c.89,0,1.65-.7,1.72-1.59,.05-.62-.23-1.19-.69-1.54,.42-.29,.72-.75,.76-1.29,.05-.57-.18-1.1-.58-1.45,.32-.29,.54-.69,.58-1.15,.04-.46-.1-.91-.4-1.27-.3-.35-.72-.57-1.18-.61l-3.23-.28,5.05-8.74,1.66,2.56c.32,.49,.86,.79,1.46,.79,.34,0,.66-.1,.95-.28,.38-.25,.65-.64,.75-1.09,0-.04,.01-.07,.02-.11,.17,.06,.35,.09,.54,.09,.34,0,.66-.1,.95-.28,.5-.32,.77-.86,.79-1.41,.23,.11,.49,.17,.75,.17,.34,0,.67-.1,.95-.28,.8-.52,1.03-1.6,.51-2.4l-.77-1.19Zm-.15-1.92l-1.33,1.9,1.23,1.88c.15,.24,.09,.55-.15,.71-.09,.06-.18,.08-.28,.08-.17,0-.33-.08-.43-.23l-1.31-2.01h-2.26l1.94,2.98c.15,.24,.09,.55-.15,.7-.09,.06-.18,.08-.28,.08-.17,0-.33-.08-.43-.23l-2.3-3.54h-1.95l2.85,4.38c.15,.24,.09,.55-.15,.7-.09,.06-.18,.08-.28,.08-.17,0-.33-.08-.43-.23l-2.76-4.23-7.01,12.14,5.16,.44c.28,.02,.49,.27,.46,.55-.02,.26-.24,.47-.5,.47-.02,0-.04,0-.05,0l-5.09-.43,.97,1.66,4.21,.36c.28,.03,.49,.27,.46,.55-.02,.27-.25,.47-.51,.47-.01,0-.03,0-.04,0l-3.49-.3,1.12,1.91,2.39,.2c.28,.02,.49,.27,.47,.55-.02,.26-.24,.47-.5,.47-.02,0-.03,0-.05,0l-2.31-.2-1.01,2c-.09,.18-.27,.28-.46,.28-.08,0-.16-.02-.23-.05-.25-.13-.35-.43-.23-.68l1.04-2.07-1.14-1.95-1.56,3.09c-.09,.18-.27,.28-.45,.28-.08,0-.15-.02-.23-.05-.25-.13-.35-.43-.23-.68l1.86-3.68-.98-1.68-2.31,4.57c-.09,.18-.27,.28-.46,.28-.08,0-.16-.02-.23-.05-.25-.13-.35-.43-.23-.69l2.29-4.54h-14.03l2.16,4.29c.13,.25,.03,.56-.22,.68-.08,.04-.15,.05-.23,.05-.19,0-.37-.1-.46-.28l-2.3-4.56-.99,1.67,1.85,3.67c.13,.25,.03,.56-.23,.69-.07,.04-.15,.05-.23,.05-.19,0-.37-.1-.46-.28l-1.56-3.08-1.14,1.94,1.04,2.07c.13,.25,.03,.56-.22,.68-.07,.04-.15,.06-.23,.06-.19,0-.37-.1-.46-.28l-1.01-2-2.31,.2s-.04,0-.05,0c-.26,0-.47-.21-.5-.47-.02-.28,.18-.53,.47-.55l2.39-.2,1.12-1.91-3.5,.3s-.03,0-.05,0c-.26,0-.48-.2-.5-.47-.02-.28,.19-.53,.47-.55l4.22-.36,.98-1.66-5.11,.44s-.03,0-.04,0c-.27,0-.49-.2-.51-.47-.02-.28,.19-.53,.47-.55l5.01-.43-7.14-12.38-3.11,4.76c-.1,.15-.26,.23-.43,.23-.1,0-.19-.03-.28-.08-.24-.15-.3-.47-.15-.71l2.9-4.43h-1.95l-2.35,3.59c-.1,.15-.26,.23-.43,.23-.1,0-.19-.03-.28-.08-.24-.15-.3-.47-.15-.71l1.98-3.03h-2.48l-1.12,2.03c-.09,.17-.27,.26-.45,.26-.08,0-.17-.02-.25-.06-.25-.14-.34-.45-.2-.69l1.14-2.07-1.22-1.74c-.16-.23-.1-.55,.13-.71,.09-.06,.19-.09,.29-.09,.16,0,.32,.08,.42,.22l1.29,1.84h2.2l-1.91-2.74c-.16-.23-.1-.55,.13-.71,.09-.06,.19-.09,.29-.09,.16,0,.32,.08,.42,.22l2.32,3.32h1.92l-2.82-4.04c-.16-.23-.11-.55,.13-.71,.09-.06,.19-.09,.29-.09,.16,0,.32,.08,.42,.22l3.2,4.58,7.32-12.69-5.02-.11c-.28,0-.5-.24-.5-.52,0-.27,.2-.5,.49-.5h.03l4.96,.11-.97-1.66-4.02-.09c-.28,0-.5-.24-.5-.52,0-.27,.22-.5,.5-.5h.02l3.39,.07-1.22-2.09-2.17,.12s-.02,0-.03,0c-.27,0-.49-.21-.51-.48-.02-.28,.2-.52,.48-.54l2.36-.13,.84-1.96c.08-.19,.27-.31,.47-.31,.07,0,.14,.01,.2,.04,.26,.11,.38,.41,.27,.67l-.95,2.21,1.14,1.94,1.4-3.29c.08-.19,.27-.31,.47-.31,.07,0,.14,.01,.2,.04,.26,.11,.38,.41,.27,.67l-1.7,3.98,.99,1.69,2.07-4.85c.08-.19,.27-.31,.47-.31,.07,0,.13,.01,.2,.04,.26,.11,.38,.41,.27,.67l-2.02,4.73h14.44l-2.02-4.73c-.11-.26,0-.56,.27-.67,.06-.03,.13-.04,.2-.04,.2,0,.39,.12,.47,.31l1.97,4.59,.99-1.68-1.6-3.73c-.11-.26,0-.56,.27-.67,.07-.03,.14-.04,.2-.04,.2,0,.39,.12,.47,.31l1.3,3.04,1.09-1.85s.04-.04,.05-.06l-.85-1.99c-.11-.26,0-.56,.27-.67,.07-.03,.13-.04,.2-.04,.2,0,.39,.12,.47,.31l.84,1.96,2.36,.13c.28,.02,.5,.26,.48,.54-.01,.27-.24,.48-.51,.48,0,0-.02,0-.03,0l-2.4-.13-1.24,2.11,3.64-.08h.02c.26,0,.49,.23,.5,.5,0,.28-.22,.51-.5,.52l-4.27,.09-.97,1.66,5.22-.12h.02c.28,0,.49,.23,.5,.5,0,.28-.22,.52-.5,.52l-5.24,.11,7.02,12.17,2.89-4.12c.1-.14,.26-.22,.42-.22,.1,0,.2,.03,.29,.09,.23,.16,.29,.48,.12,.71l-2.87,4.1h1.92l2.37-3.38c.1-.14,.26-.22,.42-.22,.1,0,.2,.03,.29,.09,.23,.16,.29,.48,.13,.71l-1.96,2.79h2.2l1.33-1.89c.1-.14,.26-.22,.42-.22,.1,0,.2,.03,.29,.09,.23,.16,.29,.48,.13,.71Z"/>
              <path class="cls-1" d="M138.42,138.92l.1,.17,2.02-3.49-.5-.86h-5.24l2.45,4.19h1.17Zm.48-2.96l-.98,1.69-.99-1.69h1.96Z"/>
              <path class="cls-1" d="M138.47,129.29l-.05,.09h-.96l-2.55,4.34h5.21l.46-.79-2.1-3.64Zm-1.42,3.2l.94-1.59,.92,1.59h-1.86Z"/>
              <path class="cls-1" d="M129.58,138.92h1.07l2.46-4.19h-5.31l-.42,.73,2.09,3.63,.1-.17Zm1.39-2.96l-.95,1.61-.93-1.61h1.88Z"/>
              <path class="cls-1" d="M128.76,140.35l.43-.75-2.24-3.88h-1.36l-.57-.99h-6.2l7.08,12.26,3.38-5.74-.52-.9Zm-2.85,4.21l-4.96-8.6h3.37l.22,.37,.35,.61h1.36l1.53,2.65-.08,.14-.35,.61,.35,.61,.16,.28-1.95,3.31Z"/>
              <path class="cls-1" d="M125.59,132.86h1.28l2.36-4.09-.47-.82,.44-.76-3.33-5.69-7.05,12.21h6.28l.49-.85Zm-1.06-.61l-.14,.23h-3.45l4.93-8.54,1.9,3.25-.08,.14-.35,.61,.35,.61,.12,.21-1.66,2.86h-1.28l-.35,.61Z"/>
            </g>
          </g>
          <g>
            <g>
              <g>
                <g>
                  <path class="cls-1" d="M40.88,176.01C18.5,176.01,.3,157.8,.3,135.43c0-17.84,11.56-33.44,28.4-38.72V12.48C28.69,5.76,34.16,.3,40.88,.3s12.18,5.47,12.18,12.18V96.71c16.83,5.27,28.4,20.88,28.4,38.72,0,22.38-18.2,40.58-40.58,40.58Z"/>
                  <path class="cls-14" d="M40.88,176.3c-22.54,0-40.88-18.34-40.88-40.87,0-17.89,11.4-33.51,28.4-38.93V12.48c0-6.88,5.6-12.48,12.48-12.48s12.48,5.6,12.48,12.48V96.5c16.99,5.42,28.4,21.04,28.4,38.93,0,22.54-18.34,40.87-40.88,40.87Zm0-175.71c-6.56,0-11.89,5.33-11.89,11.89V96.93l-.21,.07C11.92,102.28,.59,117.72,.59,135.43c0,22.21,18.07,40.28,40.28,40.28s40.29-18.07,40.29-40.28c0-17.7-11.33-33.15-28.19-38.43l-.21-.07V12.48c0-6.56-5.33-11.89-11.89-11.89Z"/>
                </g>
                <path class="cls-8" d="M50.1,98.95V12.48c0-5.1-4.13-9.23-9.23-9.23s-9.23,4.13-9.23,9.23V98.95c-16.32,4.11-28.4,18.89-28.4,36.48,0,20.78,16.84,37.62,37.62,37.62s37.63-16.84,37.63-37.62c0-17.6-12.08-32.37-28.4-36.48Z"/>
                <path class="cls-9" d="M50.1,15.52v-3.04c0-5.1-4.13-9.23-9.23-9.23s-9.23,4.13-9.23,9.23v3.04h18.46Z"/>
                <path class="cls-11" d="M50.1,98.95V16.11H31.65V98.95c-16.32,4.11-28.4,18.89-28.4,36.48,0,20.78,16.84,37.62,37.62,37.62s37.63-16.84,37.63-37.62c0-17.6-12.08-32.37-28.4-36.48Z"/>
                <g class="cls-10">
                  <path class="cls-2" d="M50.1,98.95V12.48c0-5.1-4.13-9.23-9.23-9.23s-9.23,4.13-9.23,9.23V98.95c-16.32,4.11-28.4,18.89-28.4,36.48,0,20.78,16.84,37.62,37.62,37.62s37.63-16.84,37.63-37.62c0-17.6-12.08-32.37-28.4-36.48Zm-9.23,71.03c-18.88,0-34.18-15.3-34.18-34.18,0-16.57,11.79-30.38,27.44-33.51V14.9c0-3.72,3.02-6.74,6.74-6.74s6.74,3.02,6.74,6.74V102.29c15.65,3.13,27.44,16.94,27.44,33.51,0,18.88-15.3,34.18-34.18,34.18Z"/>
                </g>
                <path class="cls-6" d="M38.44,92.68c0,.96-.41,1.73-.92,1.73h0c-.51,0-.92-.77-.92-1.73V14.73c0-.96,.41-1.73,.92-1.73h0c.51,0,.92,.77,.92,1.73V92.68Z"/>
                <g>
                  <path class="cls-12" d="M49.57,94.13h-4.32c-.33,0-.6,.15-.6,.33s.27,.33,.6,.33h4.32c.33,0,.61-.15,.61-.33s-.28-.33-.61-.33Z"/>
                  <path class="cls-12" d="M46.77,93.05h2.8c.18,0,.33-.08,.33-.17s-.15-.17-.33-.17h-2.8c-.18,0-.33,.07-.33,.17s.15,.17,.33,.17Z"/>
                  <path class="cls-12" d="M46.77,91.48h2.8c.18,0,.33-.08,.33-.17s-.15-.17-.33-.17h-2.8c-.18,0-.33,.07-.33,.17s.15,.17,.33,.17Z"/>
                  <path class="cls-12" d="M46.77,89.91h2.8c.18,0,.33-.07,.33-.17s-.15-.17-.33-.17h-2.8c-.18,0-.33,.07-.33,.17s.15,.17,.33,.17Z"/>
                  <path class="cls-12" d="M46.77,88.33h2.8c.18,0,.33-.08,.33-.17s-.15-.17-.33-.17h-2.8c-.18,0-.33,.07-.33,.17s.15,.17,.33,.17Z"/>
                  <path class="cls-12" d="M49.57,86.27h-4.32c-.33,0-.6,.15-.6,.33s.27,.33,.6,.33h4.32c.33,0,.61-.15,.61-.33s-.28-.33-.61-.33Z"/>
                  <path class="cls-12" d="M46.77,85.19h2.8c.18,0,.33-.08,.33-.17s-.15-.17-.33-.17h-2.8c-.18,0-.33,.07-.33,.17s.15,.17,.33,.17Z"/>
                  <path class="cls-12" d="M46.77,83.62h2.8c.18,0,.33-.08,.33-.17s-.15-.17-.33-.17h-2.8c-.18,0-.33,.08-.33,.17s.15,.17,.33,.17Z"/>
                  <path class="cls-12" d="M46.77,82.05h2.8c.18,0,.33-.08,.33-.17s-.15-.17-.33-.17h-2.8c-.18,0-.33,.07-.33,.17s.15,.17,.33,.17Z"/>
                  <path class="cls-12" d="M46.77,80.47h2.8c.18,0,.33-.07,.33-.17s-.15-.17-.33-.17h-2.8c-.18,0-.33,.08-.33,.17s.15,.17,.33,.17Z"/>
                  <path class="cls-12" d="M49.57,78.41h-4.32c-.33,0-.6,.15-.6,.33s.27,.33,.6,.33h4.32c.33,0,.61-.15,.61-.33s-.28-.33-.61-.33Z"/>
                  <path class="cls-12" d="M46.77,77.33h2.8c.18,0,.33-.08,.33-.17s-.15-.17-.33-.17h-2.8c-.18,0-.33,.08-.33,.17s.15,.17,.33,.17Z"/>
                  <path class="cls-12" d="M46.77,75.76h2.8c.18,0,.33-.08,.33-.17s-.15-.17-.33-.17h-2.8c-.18,0-.33,.07-.33,.17s.15,.17,.33,.17Z"/>
                  <path class="cls-12" d="M46.77,74.19h2.8c.18,0,.33-.07,.33-.17s-.15-.17-.33-.17h-2.8c-.18,0-.33,.07-.33,.17s.15,.17,.33,.17Z"/>
                  <path class="cls-12" d="M46.77,72.62h2.8c.18,0,.33-.07,.33-.17s-.15-.17-.33-.17h-2.8c-.18,0-.33,.07-.33,.17s.15,.17,.33,.17Z"/>
                  <path class="cls-12" d="M49.57,70.55h-4.32c-.33,0-.6,.15-.6,.33s.27,.33,.6,.33h4.32c.33,0,.61-.15,.61-.33s-.28-.33-.61-.33Z"/>
                  <path class="cls-12" d="M46.77,69.47h2.8c.18,0,.33-.07,.33-.17s-.15-.17-.33-.17h-2.8c-.18,0-.33,.08-.33,.17s.15,.17,.33,.17Z"/>
                  <path class="cls-12" d="M46.77,67.9h2.8c.18,0,.33-.08,.33-.17s-.15-.17-.33-.17h-2.8c-.18,0-.33,.08-.33,.17s.15,.17,.33,.17Z"/>
                  <path class="cls-12" d="M46.77,66.33h2.8c.18,0,.33-.08,.33-.17s-.15-.17-.33-.17h-2.8c-.18,0-.33,.07-.33,.17s.15,.17,.33,.17Z"/>
                  <path class="cls-12" d="M46.77,64.76h2.8c.18,0,.33-.07,.33-.17s-.15-.17-.33-.17h-2.8c-.18,0-.33,.08-.33,.17s.15,.17,.33,.17Z"/>
                  <path class="cls-12" d="M49.57,62.69h-4.32c-.33,0-.6,.15-.6,.33s.27,.33,.6,.33h4.32c.33,0,.61-.15,.61-.33s-.28-.33-.61-.33Z"/>
                  <path class="cls-12" d="M46.77,61.61h2.8c.18,0,.33-.07,.33-.17s-.15-.17-.33-.17h-2.8c-.18,0-.33,.08-.33,.17s.15,.17,.33,.17Z"/>
                  <path class="cls-12" d="M46.77,60.04h2.8c.18,0,.33-.08,.33-.17s-.15-.17-.33-.17h-2.8c-.18,0-.33,.07-.33,.17s.15,.17,.33,.17Z"/>
                  <path class="cls-12" d="M46.77,58.47h2.8c.18,0,.33-.07,.33-.17s-.15-.17-.33-.17h-2.8c-.18,0-.33,.07-.33,.17s.15,.17,.33,.17Z"/>
                  <path class="cls-12" d="M46.77,56.9h2.8c.18,0,.33-.08,.33-.17s-.15-.17-.33-.17h-2.8c-.18,0-.33,.08-.33,.17s.15,.17,.33,.17Z"/>
                  <path class="cls-12" d="M49.57,54.83h-4.32c-.33,0-.6,.15-.6,.33s.27,.33,.6,.33h4.32c.33,0,.61-.15,.61-.33s-.28-.33-.61-.33Z"/>
                  <path class="cls-12" d="M46.77,53.76h2.8c.18,0,.33-.07,.33-.17s-.15-.17-.33-.17h-2.8c-.18,0-.33,.07-.33,.17s.15,.17,.33,.17Z"/>
                  <path class="cls-12" d="M46.77,52.18h2.8c.18,0,.33-.08,.33-.17s-.15-.17-.33-.17h-2.8c-.18,0-.33,.08-.33,.17s.15,.17,.33,.17Z"/>
                  <path class="cls-12" d="M46.77,50.61h2.8c.18,0,.33-.07,.33-.17s-.15-.17-.33-.17h-2.8c-.18,0-.33,.07-.33,.17s.15,.17,.33,.17Z"/>
                  <path class="cls-12" d="M46.77,49.04h2.8c.18,0,.33-.07,.33-.17s-.15-.17-.33-.17h-2.8c-.18,0-.33,.07-.33,.17s.15,.17,.33,.17Z"/>
                  <path class="cls-12" d="M49.57,46.98h-4.32c-.33,0-.6,.15-.6,.33s.27,.33,.6,.33h4.32c.33,0,.61-.15,.61-.33s-.28-.33-.61-.33Z"/>
                  <path class="cls-12" d="M49.57,45.56h-2.8c-.18,0-.33,.07-.33,.17s.15,.17,.33,.17h2.8c.18,0,.33-.07,.33-.17s-.15-.17-.33-.17Z"/>
                  <path class="cls-12" d="M49.57,43.99h-2.8c-.18,0-.33,.08-.33,.17s.15,.17,.33,.17h2.8c.18,0,.33-.07,.33-.17s-.15-.17-.33-.17Z"/>
                  <path class="cls-12" d="M49.57,42.42h-2.8c-.18,0-.33,.07-.33,.17s.15,.17,.33,.17h2.8c.18,0,.33-.07,.33-.17s-.15-.17-.33-.17Z"/>
                  <path class="cls-12" d="M49.57,40.85h-2.8c-.18,0-.33,.07-.33,.17s.15,.17,.33,.17h2.8c.18,0,.33-.07,.33-.17s-.15-.17-.33-.17Z"/>
                  <path class="cls-12" d="M46.77,38.04h2.8c.18,0,.33-.08,.33-.17s-.15-.17-.33-.17h-2.8c-.18,0-.33,.07-.33,.17s.15,.17,.33,.17Z"/>
                  <path class="cls-12" d="M46.77,36.47h2.8c.18,0,.33-.07,.33-.17s-.15-.17-.33-.17h-2.8c-.18,0-.33,.08-.33,.17s.15,.17,.33,.17Z"/>
                  <path class="cls-12" d="M46.77,34.89h2.8c.18,0,.33-.08,.33-.17s-.15-.17-.33-.17h-2.8c-.18,0-.33,.07-.33,.17s.15,.17,.33,.17Z"/>
                  <path class="cls-12" d="M46.77,33.32h2.8c.18,0,.33-.07,.33-.17s-.15-.17-.33-.17h-2.8c-.18,0-.33,.07-.33,.17s.15,.17,.33,.17Z"/>
                  <path class="cls-12" d="M49.57,31.26h-4.32c-.33,0-.6,.14-.6,.32s.27,.33,.6,.33h4.32c.33,0,.61-.15,.61-.33s-.28-.32-.61-.32Z"/>
                  <path class="cls-12" d="M49.57,39.12h-4.32c-.33,0-.6,.15-.6,.33s.27,.33,.6,.33h4.32c.33,0,.61-.15,.61-.33s-.28-.33-.61-.33Z"/>
                  <path class="cls-12" d="M46.77,30.18h2.8c.18,0,.33-.07,.33-.17s-.15-.17-.33-.17h-2.8c-.18,0-.33,.08-.33,.17s.15,.17,.33,.17Z"/>
                  <path class="cls-12" d="M46.77,28.61h2.8c.18,0,.33-.07,.33-.17s-.15-.17-.33-.17h-2.8c-.18,0-.33,.08-.33,.17s.15,.17,.33,.17Z"/>
                  <path class="cls-12" d="M46.77,27.04h2.8c.18,0,.33-.08,.33-.17s-.15-.17-.33-.17h-2.8c-.18,0-.33,.08-.33,.17s.15,.17,.33,.17Z"/>
                  <path class="cls-12" d="M46.77,25.46h2.8c.18,0,.33-.07,.33-.17s-.15-.17-.33-.17h-2.8c-.18,0-.33,.08-.33,.17s.15,.17,.33,.17Z"/>
                  <path class="cls-12" d="M46.77,20.75h2.8c.18,0,.33-.08,.33-.17s-.15-.17-.33-.17h-2.8c-.18,0-.33,.08-.33,.17s.15,.17,.33,.17Z"/>
                  <path class="cls-12" d="M46.77,17.61h2.8c.18,0,.33-.07,.33-.17s-.15-.17-.33-.17h-2.8c-.18,0-.33,.08-.33,.17s.15,.17,.33,.17Z"/>
                  <path class="cls-12" d="M49.57,23.4h-4.32c-.33,0-.6,.15-.6,.33s.27,.33,.6,.33h4.32c.33,0,.61-.15,.61-.33s-.28-.33-.61-.33Z"/>
                  <path class="cls-12" d="M49.57,15.54h-4.32c-.33,0-.6,.15-.6,.33s.27,.33,.6,.33h4.32c.33,0,.61-.15,.61-.33s-.28-.33-.61-.33Z"/>
                  <path class="cls-12" d="M46.77,22.32h2.8c.18,0,.33-.07,.33-.17s-.15-.17-.33-.17h-2.8c-.18,0-.33,.07-.33,.17s.15,.17,.33,.17Z"/>
                  <path class="cls-12" d="M46.77,19.18h2.8c.18,0,.33-.07,.33-.17s-.15-.17-.33-.17h-2.8c-.18,0-.33,.08-.33,.17s.15,.17,.33,.17Z"/>
                </g>
              </g>
              <path class="cls-7" d="M21.86,159.77c-2.74-2.71-5.08-5.5-7.33-9.69-.41-.77-.75-1.53-1.03-2.29-4.66-9.23-3.88-20.6,.72-29.64,.08-.16-.14-.22-.22-.08-2.92,4.83-5.05,9.4-5.38,15.12-.32,5.58,.88,11.31,3.32,16.32,3.19,6.54,8.81,11.68,15.4,14.55-1.96-1.2-3.81-2.62-5.48-4.29Z"/>
            </g>
            <g>
              <path class="cls-1" d="M53.64,128.93c-3.53-7.32-12.23-10.23-19.42-6.49-7.19,3.74-10.15,12.7-6.62,20.02,3.53,7.32,12.23,10.23,19.42,6.49,7.19-3.74,10.15-12.7,6.62-20.03Z"/>
              <g>
                <path class="cls-1" d="M41.93,115.77c0,.54-.44,.97-.97,.97h0c-.54,0-.97-.44-.97-.97v-5.59c0-.54,.44-.97,.97-.97h0c.54,0,.97,.44,.97,.97v5.59Z"/>
                <path class="cls-1" d="M41.93,160.59c0,.54-.44,.97-.97,.97h0c-.54,0-.97-.44-.97-.97v-5.59c0-.54,.44-.97,.97-.97h0c.54,0,.97,.44,.97,.97v5.59Z"/>
              </g>
              <g>
                <path class="cls-1" d="M51.04,118.45c-.25,.48-.84,.66-1.31,.4h0c-.47-.25-.66-.84-.4-1.31l2.61-4.94c.25-.47,.84-.66,1.31-.41h0c.47,.25,.66,.84,.4,1.31l-2.61,4.94Z"/>
                <path class="cls-1" d="M30.08,158.06c-.25,.47-.84,.66-1.31,.4h0c-.47-.25-.66-.84-.4-1.31l2.61-4.94c.25-.47,.84-.66,1.31-.4h0c.47,.25,.66,.84,.4,1.31l-2.61,4.94Z"/>
              </g>
              <g>
                <path class="cls-1" d="M56.75,123.59c-.41,.34-1.03,.28-1.37-.13h0c-.34-.41-.28-1.03,.13-1.37l4.31-3.56c.41-.34,1.03-.28,1.37,.13h0c.34,.41,.28,1.03-.13,1.37l-4.31,3.56Z"/>
                <path class="cls-1" d="M22.19,152.13c-.41,.34-1.03,.28-1.37-.13h0c-.34-.41-.28-1.03,.13-1.37l4.31-3.56c.41-.34,1.03-.28,1.37,.13h0c.34,.41,.28,1.03-.13,1.37l-4.31,3.56Z"/>
              </g>
              <g>
                <path class="cls-1" d="M60.48,132.81c-.53,.1-1.03-.26-1.13-.79h0c-.09-.53,.26-1.03,.78-1.13l5.5-.99c.53-.1,1.03,.26,1.13,.78h0c.09,.53-.26,1.03-.78,1.13l-5.5,.99Z"/>
                <path class="cls-1" d="M16.37,140.76c-.53,.1-1.03-.26-1.13-.78h0c-.1-.53,.26-1.03,.78-1.13l5.5-.99c.53-.09,1.03,.26,1.13,.78h0c.1,.53-.26,1.03-.78,1.13l-5.5,.99Z"/>
              </g>
              <g>
                <path class="cls-1" d="M59.24,142.61c-.51-.17-.78-.73-.6-1.24h0c.17-.51,.73-.78,1.23-.6l5.29,1.81c.51,.17,.78,.73,.61,1.24h0c-.17,.51-.73,.78-1.23,.6l-5.29-1.81Z"/>
                <path class="cls-1" d="M16.85,128.09c-.51-.17-.78-.73-.6-1.24h0c.17-.51,.73-.78,1.23-.6l5.29,1.81c.51,.17,.78,.73,.6,1.24h0c-.17,.51-.73,.78-1.23,.6l-5.29-1.81Z"/>
              </g>
              <g>
                <path class="cls-1" d="M51.67,151.82c-.31-.44-.21-1.04,.22-1.36h0c.44-.31,1.04-.21,1.36,.22l3.26,4.54c.31,.44,.21,1.04-.22,1.36h0c-.44,.31-1.04,.21-1.36-.22l-3.26-4.54Z"/>
                <path class="cls-1" d="M25.5,115.44c-.31-.44-.21-1.04,.22-1.36h0c.44-.31,1.04-.21,1.36,.22l3.26,4.54c.31,.44,.21,1.04-.22,1.36h0c-.44,.31-1.04,.21-1.36-.22l-3.26-4.54Z"/>
              </g>
            </g>
          </g>
        </g>
      </g>
    </g>
  </g>
</svg>