<?xml version="1.0" encoding="UTF-8"?>
<svg id="Layer_2" data-name="Layer 2" xmlns="http://www.w3.org/2000/svg" viewBox="0 0 411.89 411.89">
  <defs>
    <style>
      .cls-1 {
        fill: #565c58;
      }

      .cls-2 {
        fill: #bbb8bd;
      }

      .cls-3 {
        fill: #edf6fc;
      }

      .cls-4 {
        fill: #c2d8e6;
      }

      .cls-5 {
        fill: #8d928f;
      }

      .cls-6 {
        fill: #2c3a64;
      }

      .cls-7 {
        fill: #d3d3d3;
      }

      .cls-8 {
        fill: #dedee2;
      }

      .cls-9 {
        fill: #bdd5e4;
      }

      .cls-10 {
        fill: #f2f3f4;
      }

      .cls-11 {
        fill: #595659;
      }

      .cls-12 {
        fill: #3c4641;
      }
    </style>
  </defs>
  <g id="Layer_1-2" data-name="Layer 1">
    <g>
      <circle class="cls-7" cx="208.95" cy="208.95" r="202.95"/>
      <circle class="cls-6" cx="202.95" cy="202.95" r="202.95"/>
      <g>
        <g>
          <path class="cls-9" d="M294.68,189.77c-4.98,0-9.16-3.44-10.29-8.08-1.36-.92-5.1-2.92-14.57-5.47-8.89-2.38-19.67-4.44-30.11-6.42-10.52-2-20.46-3.9-28.11-6.05-6.35-1.79-19.57-5.52-19.57-17.06,0-5.85,4.74-10.59,10.59-10.59,3.99,0,7.47,2.2,9.27,5.47,5.32,2.39,21.07,5.39,31.79,7.43,12.97,2.47,26.38,5.02,37.06,8.33,6.71,2.08,24.54,7.61,24.54,21.85,0,5.85-4.74,10.59-10.59,10.59Z"/>
          <path class="cls-9" d="M298.52,159.04c-4.93,0-9.07-3.37-10.25-7.94-1.42-.94-5.37-2.99-15.35-5.56-9.3-2.4-20.59-4.46-31.5-6.46-10.94-2-21.28-3.89-29.22-6.04-6.55-1.77-20.17-5.46-20.17-17.09,0-5.85,4.74-10.59,10.59-10.59,3.94,0,7.39,2.16,9.21,5.35,5.52,2.44,22.12,5.47,33.4,7.54,35.69,6.52,63.89,11.67,63.89,30.2,0,5.85-4.74,10.59-10.59,10.59Z"/>
          <path class="cls-9" d="M298.52,126.55c-4.42,0-8.21-2.71-9.79-6.56-1.65-.92-5.88-2.81-15.87-5.32-9.13-2.29-19.61-4.25-28.86-5.98-16.39-3.07-21.27-4.06-24.7-6.52-5.3-3.8-5.92-9.19-4.74-12.96,2.5-8.02,11.23-8.63,15.92-8.96,4.15-.29,9.53-.38,15.76-.48,15.22-.25,38.22-.64,48.16-4.85,5.39-2.28,11.6,.24,13.88,5.63,2.28,5.39-.25,11.6-5.63,13.88-3.41,1.45-7.42,2.56-11.82,3.41,8.62,3.01,18.28,8.14,18.28,18.13,0,5.85-4.74,10.59-10.59,10.59Z"/>
          <path class="cls-3" d="M309.11,148.45c.4,8.4-8.03,12.11-10.67,13.33-3.16,1.46-7.5,3-13.25,4.7-10.02,2.97-23.09,6.07-35.72,9.07-12.29,2.91-28.28,6.71-35.95,9.33,.16,1.04,.36,1.55,.51,1.79,.05,.03,.16,.08,.36,.15,3.38,1.16,7.33,2.08,10.8,2.9,4.8,1.13,7.97,1.88,10.51,3.29,10.8,6,10.8,19.93,10.8,28.25,0,5.85-4.74,10.59-10.59,10.59s-10.59-4.74-10.59-10.59c0-4.86-.24-8.18-.72-9.88-1.21-.32-2.91-.72-4.27-1.05-3.75-.88-8.42-1.99-12.79-3.48-15.51-5.3-15.51-20.98-15.51-27.68,0-10.23,11.33-13.51,21.33-16.39,8.5-2.46,19.53-5.08,31.22-7.85,15.56-3.69,38.6-9.16,45.19-12.44,10.48-5.12,18.94-2.68,19.35,5.95Z"/>
          <path class="cls-3" d="M192.03,146.69c0-10.23,11.33-13.51,21.33-16.39,8.5-2.46,19.53-5.08,31.22-7.85,15.56-3.69,38.6-9.16,45.19-12.44,1.9-2.8,5.11-4.64,8.76-4.64,5.85,0,10.59,4.74,10.59,10.59,0,8.4-8.03,12.11-10.67,13.33-3.16,1.46-7.5,3-13.25,4.7-10.02,2.97-23.09,6.07-35.72,9.07-14.04,3.33-32.9,7.81-38.68,10.37-10.37,3.29-18.76,2.56-18.76-6.74Z"/>
          <path class="cls-3" d="M192.03,115.68c0-10.23,11.33-13.5,21.33-16.39,8.5-2.46,19.53-5.07,31.22-7.85,15.56-3.69,38.6-9.16,45.19-12.44,.54-.8,1.19-1.52,1.92-2.14,1.84-1.56,4.23-2.5,6.83-2.5,5.85,0,10.59,4.74,10.59,10.59,0,8.4-8.03,12.11-10.67,13.33-3.16,1.46-7.5,3-13.25,4.7-10.02,2.96-23.09,6.06-35.72,9.07-14.04,3.33-32.9,7.8-38.68,10.37-13.14,4.39-18.76,.91-18.76-6.74Z"/>
          <path class="cls-3" d="M305.02,176.31c.81,2.26,.94,4.73,.39,7.21-1.47,6.7-7.59,13.95-32.59,27.51-.55,1.58-.83,5.01-.83,10.24,0,5.85-4.74,10.59-10.58,10.59s-10.59-4.74-10.59-10.59c0-8.33,0-22.26,10.8-28.25,.17-.1,.46-.25,.85-.46,13.81-7.48,19.47-11.9,21.65-13.92,6.09-7.15,17.54-11.72,20.91-2.33Z"/>
          <g>
            <path class="cls-12" d="M236.03,321.71l5.05,8.14h.07c0,1.09,3.78,1.97,8.45,1.97s8.45-.88,8.45-1.97l5.05-8.14h-27.07Z"/>
            <path class="cls-5" d="M228.84,312.01l7.74,12.46h.1c0,1.66,5.79,3.01,12.93,3.01s12.93-1.35,12.93-3.01l7.74-12.46h-41.44Z"/>
            <rect class="cls-5" x="228.84" y="271.21" width="41.44" height="40.81"/>
            <path class="cls-1" d="M273.48,291.68c0,1.38-1.12,2.63-2.5,2.78l-42.72,4.64c-1.39,.15-2.51-.85-2.51-2.23h0c0-1.38,1.13-2.63,2.51-2.78l42.72-4.64c1.39-.15,2.5,.85,2.5,2.23h0Z"/>
            <path class="cls-1" d="M273.48,300.51c0,1.39-1.12,2.63-2.5,2.78l-42.72,4.64c-1.39,.15-2.51-.85-2.51-2.23h0c0-1.39,1.13-2.63,2.51-2.78l42.72-4.64c1.39-.15,2.5,.85,2.5,2.23h0Z"/>
            <path class="cls-1" d="M273.48,309.34c0,1.38-1.12,2.63-2.5,2.77l-42.72,4.64c-1.39,.15-2.51-.85-2.51-2.23h0c0-1.38,1.13-2.62,2.51-2.77l42.72-4.64c1.39-.15,2.5,.85,2.5,2.23h0Z"/>
            <rect class="cls-11" x="209.99" y="230.81" width="77.27" height="5.91"/>
            <path class="cls-2" d="M209.99,247.72v15.95c0,13.68,11.09,24.77,24.77,24.77h27.56c13.68,0,24.77-11.09,24.77-24.77l.17-15.95h-77.27Z"/>
            <path class="cls-10" d="M290.33,235.65h-83.37c-.7,0-1.28,.57-1.28,1.27v11.62c0,2.68,2.17,4.85,4.85,4.85h76.23c2.67,0,4.85-2.17,4.85-4.85v-11.62c0-.71-.57-1.27-1.28-1.27Z"/>
            <path class="cls-8" d="M286.76,220.21h-76.23c-2.67,0-4.85,2.17-4.85,4.85v5.38c0,.7,.58,1.27,1.28,1.27h83.37c.7,0,1.28-.57,1.28-1.27v-5.38c0-2.67-2.17-4.85-4.85-4.85Z"/>
          </g>
        </g>
        <g>
          <path class="cls-12" d="M129,321.08l5.37,8.65h.07c0,1.16,4.02,2.09,8.98,2.09s8.98-.93,8.98-2.09l5.37-8.65h-28.77Z"/>
          <path class="cls-5" d="M121.37,310.78l8.22,13.24h.11c0,1.77,6.15,3.2,13.74,3.2s13.74-1.43,13.74-3.2l8.22-13.24h-44.04Z"/>
          <rect class="cls-5" x="121.37" y="267.42" width="44.04" height="43.36"/>
          <path class="cls-1" d="M168.8,289.17c0,1.47-1.19,2.79-2.66,2.95l-45.39,4.93c-1.47,.16-2.66-.9-2.66-2.37h0c0-1.47,1.19-2.79,2.66-2.95l45.39-4.93c1.47-.16,2.66,.9,2.66,2.37h0Z"/>
          <path class="cls-1" d="M168.8,298.55c0,1.47-1.19,2.79-2.66,2.95l-45.39,4.93c-1.47,.16-2.66-.9-2.66-2.37h0c0-1.47,1.19-2.79,2.66-2.95l45.39-4.94c1.47-.16,2.66,.91,2.66,2.38h0Z"/>
          <path class="cls-1" d="M168.8,307.93c0,1.47-1.19,2.79-2.66,2.95l-45.39,4.93c-1.47,.16-2.66-.9-2.66-2.37h0c0-1.47,1.19-2.79,2.66-2.95l45.39-4.93c1.47-.16,2.66,.9,2.66,2.37h0Z"/>
          <rect class="cls-11" x="101.35" y="224.49" width="82.1" height="6.28"/>
          <path class="cls-2" d="M101.35,242.47v16.94c0,14.54,11.78,26.32,26.32,26.32h29.28c14.53,0,26.32-11.78,26.32-26.32l.18-16.94H101.35Z"/>
          <g>
            <path class="cls-4" d="M183.41,103.31c0-16.11-13.11-29.23-29.22-29.23s-29.22,13.11-29.22,29.23v.06h0v112.7h16.36V103.36h0s0-.04,0-.06c0-7.09,5.77-12.86,12.86-12.86s12.86,5.77,12.86,12.86c0,.02,0,.04,0,.06h0v112.7h16.36V103.36h0s0-.04,0-.06Z"/>
            <path class="cls-3" d="M159.87,103.31c0-16.11-13.11-29.23-29.22-29.23s-29.22,13.11-29.22,29.23v.06h0v112.7h16.36V103.36h0s0-.04,0-.06c0-7.09,5.77-12.86,12.86-12.86s12.86,5.77,12.86,12.86c0,.02,0,.04,0,.06h0v112.7h16.37V103.36h0s0-.04,0-.06Z"/>
          </g>
          <path class="cls-10" d="M186.71,229.64H98.12c-.75,0-1.35,.6-1.35,1.35v12.35c0,2.84,2.3,5.15,5.15,5.15h80.99c2.85,0,5.15-2.31,5.15-5.15v-12.35c0-.75-.61-1.35-1.35-1.35Z"/>
          <path class="cls-8" d="M182.91,213.24H101.92c-2.85,0-5.15,2.3-5.15,5.15v5.71c0,.75,.61,1.35,1.35,1.35h88.59c.75,0,1.35-.61,1.35-1.35v-5.71c0-2.85-2.3-5.15-5.15-5.15Z"/>
        </g>
      </g>
    </g>
  </g>
</svg>