<?xml version="1.0" encoding="UTF-8"?>
<svg id="Layer_2" data-name="Layer 2" xmlns="http://www.w3.org/2000/svg" viewBox="0 0 146 146">
  <defs>
    <style>
      .cls-1 {
        fill: #003b7e;
      }

      .cls-2 {
        fill: #ffe500;
      }
    </style>
  </defs>
  <g id="Layer_1-2" data-name="Layer 1">
    <g>
      <circle class="cls-2" cx="73" cy="73" r="73"/>
      <g>
        <path class="cls-1" d="M97.38,98.38c-6.14,5.85-14.18,9.3-22.65,9.71v-3.3c-.08-.87-.8-1.53-1.67-1.53s-1.6,.67-1.67,1.53v3.3c-1.5-.05-2.99-.2-4.47-.45-7.86-1.38-15.02-5.4-20.29-11.4-5.27-6-8.34-13.61-8.7-21.58h3.3c.92,0,1.67-.75,1.67-1.67s-.75-1.67-1.67-1.67h-3.29c.05-1.49,.19-2.97,.41-4.44,1.39-7.86,5.41-15.02,11.41-20.29,6-5.27,13.61-8.34,21.59-8.7v3.3c.08,.87,.8,1.53,1.68,1.53s1.6-.67,1.67-1.53v-3.29c1.48,.05,2.96,.2,4.43,.44,5.25,.92,10.22,3.03,14.53,6.16h-2.21c-.92,0-1.67,.75-1.67,1.67s.75,1.67,1.67,1.67h6.69c.73,0,1.37-.47,1.58-1.17,.1-.27,.13-.55,.1-.83v-6.42c-.08-.87-.8-1.53-1.68-1.53s-1.6,.67-1.67,1.53v2.95c-4.91-3.75-10.66-6.25-16.75-7.29-2.16-.38-4.35-.58-6.54-.59h-.27c-9.03,.03-17.76,3.23-24.67,9.05-6.91,5.82-11.55,13.87-13.12,22.77-.38,2.16-.59,4.35-.6,6.54v.24c.01,9.04,3.21,17.79,9.04,24.7,5.82,6.91,13.9,11.56,22.8,13.11,2.2,.4,4.43,.59,6.66,.59h.12c9.9-.03,19.42-3.86,26.59-10.69,.67-.64,.69-1.7,.05-2.37-.64-.67-1.7-.69-2.37-.05h0Z"/>
        <path class="cls-1" d="M106.18,89.13c-.81-.44-1.83-.14-2.27,.67-.55,1-1.14,1.99-1.78,2.94h0c-.53,.75-.36,1.79,.38,2.32,.28,.18,.6,.28,.94,.28,.56,0,1.07-.27,1.39-.73,.71-1.04,1.36-2.12,1.96-3.21h0c.45-.8,.17-1.81-.62-2.27h0Z"/>
        <path class="cls-1" d="M109.57,77.75c-.91-.16-1.77,.45-1.92,1.36-.18,1.04-.41,2.09-.69,3.12h0c-.12,.43-.06,.89,.16,1.27s.59,.67,1.02,.78c.43,.12,.89,.07,1.28-.15,.39-.22,.67-.59,.78-1.03,.31-1.13,.56-2.27,.76-3.41h0c.08-.44-.02-.89-.28-1.26-.26-.36-.65-.61-1.09-.68h0Z"/>
        <path class="cls-1" d="M111.1,67.28c-.06-.44-.3-.84-.66-1.1-.36-.26-.8-.38-1.24-.31-.91,.14-1.54,1-1.41,1.91,.17,1.09,.28,2.21,.35,3.3,.04,.89,.78,1.59,1.67,1.59h.09c.45-.02,.87-.21,1.18-.55,.3-.33,.46-.77,.43-1.22-.09-1.21-.22-2.43-.4-3.62h0Z"/>
        <path class="cls-1" d="M73,49.57c-.89,.01-1.62,.72-1.66,1.62v17.11c-1.29,.47-2.33,1.44-2.88,2.69-.55,1.25-.57,2.68-.04,3.94,.53,1.26,1.55,2.26,2.83,2.75,1.28,.49,2.7,.43,3.94-.15l8.39,8.38c.31,.32,.74,.5,1.18,.49,.44,0,.87-.17,1.18-.49,.31-.31,.49-.74,.49-1.18s-.18-.87-.49-1.18l-8.38-8.38h0c.31-.68,.47-1.41,.47-2.16,0-1.04-.33-2.04-.93-2.89-.6-.84-1.45-1.48-2.42-1.82v-17.11c-.03-.91-.78-1.63-1.69-1.62h0Zm-1.66,23.43c0-.56,.27-1.09,.74-1.41,.47-.32,1.06-.38,1.58-.17,.52,.21,.9,.67,1.01,1.22,.11,.55-.06,1.12-.45,1.52-.48,.48-1.2,.63-1.83,.37-.63-.26-1.04-.86-1.05-1.54h0Z"/>
      </g>
    </g>
  </g>
</svg>