<svg xmlns="http://www.w3.org/2000/svg" viewBox="0 0 690.63 1039.34"><defs><style>.cls-1{fill:#82ad0b;}.cls-2{isolation:isolate;}.cls-3{fill:#fff;}.cls-4{fill:#b5ad14;}.cls-5{fill:#e29f27;}.cls-6{fill:#f37826;}.cls-7{fill:#e75433;}.cls-8{fill:#003b7e;}</style></defs><g id="Layer_2" data-name="Layer 2"><g id="Layer_1-2" data-name="Layer 1"><path class="cls-1" d="M669.82,42H60C44,42,34,60.5,42,75.3l61.2,113.3a20.64,20.64,0,0,0,18,11.1h487.3a20.64,20.64,0,0,0,18-11.1l61.3-113.3C695.82,60.5,685.82,42,669.82,42Z"/><g class="cls-2"><path class="cls-3" d="M132.92,101.9h3.7v17.7h11v3.3h-14.7Z"/><path class="cls-3" d="M158.32,123.3a8.66,8.66,0,0,1-3.2-.6,7.58,7.58,0,0,1-4.3-4.3,8.81,8.81,0,0,1-.6-3.3V115a8.66,8.66,0,0,1,.6-3.2,7.6,7.6,0,0,1,1.6-2.6,10.77,10.77,0,0,1,2.4-1.8,7.79,7.79,0,0,1,3.1-.6,6.71,6.71,0,0,1,3.3.7,8.76,8.76,0,0,1,2.4,1.9,7,7,0,0,1,1.4,2.7,11.42,11.42,0,0,1,.5,3.3v1h-11.7a4.79,4.79,0,0,0,1.5,3,4.36,4.36,0,0,0,3,1,5.21,5.21,0,0,0,2.3-.5,10.52,10.52,0,0,0,2-1.4l2.1,1.9a11.33,11.33,0,0,1-2.7,2.2A10.16,10.16,0,0,1,158.32,123.3Zm3.6-9.4a7.49,7.49,0,0,0-.4-1.6,5.67,5.67,0,0,0-.8-1.3,2.73,2.73,0,0,0-1.2-.9,4.15,4.15,0,0,0-1.6-.3,3.78,3.78,0,0,0-2.8,1.2,5.15,5.15,0,0,0-1.3,3h8.1Z"/><path class="cls-3" d="M178.12,123.2a6.06,6.06,0,0,1-3.2-.8,6.69,6.69,0,0,1-2.1-2v2.5h-3.7V101h3.7v8.7a8.83,8.83,0,0,1,2.2-2.1,5.49,5.49,0,0,1,3.2-.9,8.08,8.08,0,0,1,2.7.5,7.21,7.21,0,0,1,2.4,1.6,9.75,9.75,0,0,1,1.7,2.6,9.51,9.51,0,0,1,.6,3.5v.1a8.7,8.7,0,0,1-2.2,6.1,7.76,7.76,0,0,1-2.4,1.6A7.39,7.39,0,0,1,178.12,123.2Zm-.8-3.1a3.92,3.92,0,0,0,1.8-.4,4.51,4.51,0,0,0,1.4-1,6.24,6.24,0,0,0,1-1.6,6.54,6.54,0,0,0,.4-2.1v-.1a4.64,4.64,0,0,0-.4-2.1,4.35,4.35,0,0,0-1-1.6,4.51,4.51,0,0,0-1.4-1,5.26,5.26,0,0,0-1.8-.4,5,5,0,0,0-3.3,1.4,4.35,4.35,0,0,0-1,1.6,4.64,4.64,0,0,0-.4,2.1v.1a4.64,4.64,0,0,0,.4,2.1,4.35,4.35,0,0,0,1,1.6,5,5,0,0,0,3.3,1.4Z"/><path class="cls-3" d="M196.52,123.3a8.66,8.66,0,0,1-3.2-.6,7.58,7.58,0,0,1-4.3-4.3,8.81,8.81,0,0,1-.6-3.3V115a8.66,8.66,0,0,1,.6-3.2,7.6,7.6,0,0,1,1.6-2.6,10.77,10.77,0,0,1,2.4-1.8,7.79,7.79,0,0,1,3.1-.6,6.71,6.71,0,0,1,3.3.7,8.76,8.76,0,0,1,2.4,1.9,7,7,0,0,1,1.4,2.7,11.42,11.42,0,0,1,.5,3.3v1h-11.6a4.79,4.79,0,0,0,1.5,3,4.36,4.36,0,0,0,3,1,5.21,5.21,0,0,0,2.3-.5,10.52,10.52,0,0,0,2-1.4l2.1,1.9a11.33,11.33,0,0,1-2.7,2.2A11.18,11.18,0,0,1,196.52,123.3Zm3.6-9.4a7.49,7.49,0,0,0-.4-1.6,5.67,5.67,0,0,0-.8-1.3,2.73,2.73,0,0,0-1.2-.9,4.15,4.15,0,0,0-1.6-.3,3.78,3.78,0,0,0-2.8,1.2,5.15,5.15,0,0,0-1.3,3h8.1Z"/><path class="cls-3" d="M207.32,107.1H211v2.5a8.7,8.7,0,0,1,.9-1.1,10.63,10.63,0,0,1,1.1-.9,3.79,3.79,0,0,1,1.3-.6,4.42,4.42,0,0,1,1.7-.2,5.1,5.1,0,0,1,4.2,1.7,6.35,6.35,0,0,1,1.5,4.4V123H218v-9a4.37,4.37,0,0,0-.9-2.9,3,3,0,0,0-2.5-1,3.39,3.39,0,0,0-2.6,1,4,4,0,0,0-1,2.9v8.9h-3.7Z"/><path class="cls-3" d="M231.42,123.2a11.2,11.2,0,0,1-3.5-.6,10.62,10.62,0,0,1-3.3-1.8l1.6-2.5a17.36,17.36,0,0,0,2.6,1.5,8,8,0,0,0,2.6.5,3,3,0,0,0,1.8-.5,1.43,1.43,0,0,0,.6-1.2v-.1a1.14,1.14,0,0,0-.3-.8,5.55,5.55,0,0,0-.8-.6,3.58,3.58,0,0,0-1.1-.4c-.4-.1-.9-.3-1.3-.4a12.66,12.66,0,0,1-1.8-.6,5.07,5.07,0,0,1-1.6-.9,3.74,3.74,0,0,1-1.2-1.3,3.83,3.83,0,0,1-.5-1.9v-.1a4.48,4.48,0,0,1,.4-2,4.43,4.43,0,0,1,1.2-1.5,7.68,7.68,0,0,1,1.8-1,7.8,7.8,0,0,1,2.2-.3,10.47,10.47,0,0,1,3,.5,12,12,0,0,1,2.8,1.3l-1.4,2.6a12,12,0,0,0-2.3-1.1,6,6,0,0,0-2.2-.4,3.41,3.41,0,0,0-1.6.4,1.38,1.38,0,0,0-.6,1.1v.1a.91.91,0,0,0,.3.7,5.55,5.55,0,0,0,.8.6,11.73,11.73,0,0,0,1.1.5,6.47,6.47,0,0,0,1.3.4c.6.2,1.2.4,1.7.6a5.07,5.07,0,0,1,1.6.9,3.74,3.74,0,0,1,1.2,1.3,3.42,3.42,0,0,1,.4,1.8v.1a5.09,5.09,0,0,1-.4,2.2,4.43,4.43,0,0,1-1.2,1.5,5.57,5.57,0,0,1-1.9.9A3,3,0,0,1,231.42,123.2Z"/><path class="cls-3" d="M240.92,107.1h3.7v2.4a8.74,8.74,0,0,1,.8-1,9,9,0,0,1,1-.9,3.1,3.1,0,0,1,1.3-.6,4.14,4.14,0,0,1,1.6-.2,5.47,5.47,0,0,1,2.9.8,4.94,4.94,0,0,1,1.8,2,7.4,7.4,0,0,1,2.3-2,6.21,6.21,0,0,1,3.1-.8,5.28,5.28,0,0,1,4.1,1.6,6.27,6.27,0,0,1,1.5,4.5V123h-3.7v-9a4.77,4.77,0,0,0-.8-2.9,2.84,2.84,0,0,0-2.4-1,3,3,0,0,0-2.4,1,4.2,4.2,0,0,0-.9,2.9v8.9h-3.7v-9a4.45,4.45,0,0,0-.8-2.8,2.84,2.84,0,0,0-2.4-1,3,3,0,0,0-2.4,1,4.37,4.37,0,0,0-.9,2.9v8.9h-3.7V107.1Z"/><path class="cls-3" d="M269.52,101.2h3.9v3.5h-3.9Zm.1,5.9h3.7v15.8h-3.7Z"/><path class="cls-3" d="M283.42,123.2a9,9,0,0,1-1.8-.2,3.61,3.61,0,0,1-1.5-.8,5,5,0,0,1-1-1.4,6.87,6.87,0,0,1-.3-2.2v-8.3h-2v-3.1h2v-4.4h3.7v4.4h4.3v3.1h-4.3v7.8a2.07,2.07,0,0,0,.5,1.5,2,2,0,0,0,1.4.5,5.45,5.45,0,0,0,2.2-.5v3a4.71,4.71,0,0,1-1.5.6A9.63,9.63,0,0,1,283.42,123.2Z"/><path class="cls-3" d="M295.72,123.2a9,9,0,0,1-1.8-.2,3.61,3.61,0,0,1-1.5-.8,5,5,0,0,1-1-1.4,6.87,6.87,0,0,1-.3-2.2v-8.3h-2v-3.1h2v-4.4h3.7v4.4h4.3v3.1h-4.3v7.8a2.07,2.07,0,0,0,.5,1.5,2,2,0,0,0,1.4.5,5.45,5.45,0,0,0,2.2-.5v3a4.71,4.71,0,0,1-1.5.6A9.63,9.63,0,0,1,295.72,123.2Z"/><path class="cls-3" d="M309.92,123.3a8.66,8.66,0,0,1-3.2-.6,7.58,7.58,0,0,1-4.3-4.3,8.81,8.81,0,0,1-.6-3.3V115a8.66,8.66,0,0,1,.6-3.2,7.6,7.6,0,0,1,1.6-2.6,10.77,10.77,0,0,1,2.4-1.8,7.79,7.79,0,0,1,3.1-.6,6.71,6.71,0,0,1,3.3.7,8.76,8.76,0,0,1,2.4,1.9,7,7,0,0,1,1.4,2.7,11.42,11.42,0,0,1,.5,3.3v1h-11.6a4.79,4.79,0,0,0,1.5,3,4.36,4.36,0,0,0,3,1,5.21,5.21,0,0,0,2.3-.5,10.52,10.52,0,0,0,2-1.4l2.1,1.9a11.33,11.33,0,0,1-2.7,2.2A11.18,11.18,0,0,1,309.92,123.3Zm3.6-9.4a7.49,7.49,0,0,0-.4-1.6,5.67,5.67,0,0,0-.8-1.3,2.73,2.73,0,0,0-1.2-.9,4.15,4.15,0,0,0-1.6-.3,3.78,3.78,0,0,0-2.8,1.2,5.15,5.15,0,0,0-1.3,3h8.1Z"/><path class="cls-3" d="M320.92,101h3.7v21.9h-3.7Z"/><path class="cls-3" d="M339,122.9v-2a5.84,5.84,0,0,1-2.1,1.6,7.09,7.09,0,0,1-3.1.7,7.8,7.8,0,0,1-2.2-.3,5.08,5.08,0,0,1-1.8-.9,4.43,4.43,0,0,1-1.2-1.5,4.65,4.65,0,0,1-.5-2.1v-.1a5.56,5.56,0,0,1,.5-2.3,5.09,5.09,0,0,1,1.3-1.6,6.26,6.26,0,0,1,2-1,10.32,10.32,0,0,1,2.6-.3,14.36,14.36,0,0,1,2.4.2,10.55,10.55,0,0,1,1.9.5v-.3a3,3,0,0,0-1-2.5,4.2,4.2,0,0,0-2.9-.9,8.75,8.75,0,0,0-2.4.3,17.23,17.23,0,0,0-2.1.7l-1-2.9c.9-.4,1.8-.7,2.7-1a14.87,14.87,0,0,1,3.3-.4c2.4,0,4.1.6,5.2,1.8a6.94,6.94,0,0,1,1.7,4.9v9.4Zm.1-6.6c-.5-.2-1-.3-1.6-.5a12.31,12.31,0,0,0-2-.2,4.53,4.53,0,0,0-2.7.7,2.1,2.1,0,0,0-1,1.8v.1a1.85,1.85,0,0,0,.9,1.7,3.8,3.8,0,0,0,2.2.6,8.81,8.81,0,0,0,1.7-.2,4,4,0,0,0,1.3-.7,2.84,2.84,0,0,0,.9-1,3.19,3.19,0,0,0,.3-1.4v-.9Z"/><path class="cls-3" d="M355.92,123.2a6.06,6.06,0,0,1-3.2-.8,6.69,6.69,0,0,1-2.1-2v2.5h-3.7V101h3.7v8.7a8.83,8.83,0,0,1,2.2-2.1,5.49,5.49,0,0,1,3.2-.9,8.08,8.08,0,0,1,2.7.5,7.21,7.21,0,0,1,2.4,1.6,9.75,9.75,0,0,1,1.7,2.6,9.51,9.51,0,0,1,.6,3.5v.1a8.7,8.7,0,0,1-2.2,6.1,7.76,7.76,0,0,1-2.4,1.6A7.39,7.39,0,0,1,355.92,123.2Zm-.8-3.1a3.92,3.92,0,0,0,1.8-.4,4.51,4.51,0,0,0,1.4-1,6.24,6.24,0,0,0,1-1.6,6.54,6.54,0,0,0,.4-2.1v-.1a4.64,4.64,0,0,0-.4-2.1,4.35,4.35,0,0,0-1-1.6,4.51,4.51,0,0,0-1.4-1,5.26,5.26,0,0,0-1.8-.4,5,5,0,0,0-3.3,1.4,4.35,4.35,0,0,0-1,1.6,4.64,4.64,0,0,0-.4,2.1v.1a4.64,4.64,0,0,0,.4,2.1,4.35,4.35,0,0,0,1,1.6,5,5,0,0,0,3.3,1.4Z"/><path class="cls-3" d="M367.82,110.2h-2v-3h2v-1.1c0-1.8.4-3.1,1.3-3.9a4.92,4.92,0,0,1,3.6-1.3,9.15,9.15,0,0,1,1.7.1c.5.1.9.2,1.3.3v3.1c-.4-.1-.7-.2-1-.3a3.75,3.75,0,0,0-1.1-.1q-2.1,0-2.1,2.4v.9h4.2v3h-4.1V123h-3.8Z"/><path class="cls-3" d="M388,122.9v-2a5.84,5.84,0,0,1-2.1,1.6,7.45,7.45,0,0,1-3.1.7,7.8,7.8,0,0,1-2.2-.3,5.08,5.08,0,0,1-1.8-.9,4.43,4.43,0,0,1-1.2-1.5,4.65,4.65,0,0,1-.5-2.1v-.1a5.56,5.56,0,0,1,.5-2.3,5.09,5.09,0,0,1,1.3-1.6,6.26,6.26,0,0,1,2-1,10.32,10.32,0,0,1,2.6-.3,14.36,14.36,0,0,1,2.4.2,13.32,13.32,0,0,1,1.9.5v-.3a3,3,0,0,0-1-2.5,4.2,4.2,0,0,0-2.9-.9,8.75,8.75,0,0,0-2.4.3,17.23,17.23,0,0,0-2.1.7l-1-2.9c.9-.4,1.8-.7,2.7-1a14.87,14.87,0,0,1,3.3-.4c2.4,0,4.1.6,5.2,1.8a6.94,6.94,0,0,1,1.7,4.9v9.4Zm-8-21.4h3.7V105H380Zm8.1,14.8c-.5-.2-1-.3-1.6-.5a12.31,12.31,0,0,0-2-.2,4.53,4.53,0,0,0-2.7.7,2.1,2.1,0,0,0-1,1.8v.1a1.85,1.85,0,0,0,.9,1.7,3.8,3.8,0,0,0,2.2.6,8.81,8.81,0,0,0,1.7-.2,2.73,2.73,0,0,0,1.3-.7,2.84,2.84,0,0,0,.9-1,3.19,3.19,0,0,0,.3-1.4v-.9ZM386,101.5h3.7V105H386Z"/><path class="cls-3" d="M396.12,101h3.7v21.9h-3.7Z"/><path class="cls-3" d="M404.72,101h3.7v21.9h-3.7Z"/><path class="cls-3" d="M420.32,123.3a8.66,8.66,0,0,1-3.2-.6,7.58,7.58,0,0,1-4.3-4.3,8.81,8.81,0,0,1-.6-3.3V115a8.66,8.66,0,0,1,.6-3.2,7.6,7.6,0,0,1,1.6-2.6,8.4,8.4,0,0,1,2.4-1.8,7.79,7.79,0,0,1,3.1-.6,6.71,6.71,0,0,1,3.3.7,8.76,8.76,0,0,1,2.4,1.9,7,7,0,0,1,1.4,2.7,11.42,11.42,0,0,1,.5,3.3v1h-11.7a4.79,4.79,0,0,0,1.5,3,4.36,4.36,0,0,0,3,1,5.21,5.21,0,0,0,2.3-.5,10.52,10.52,0,0,0,2-1.4l2.1,1.9a11.33,11.33,0,0,1-2.7,2.2A7,7,0,0,1,420.32,123.3Zm3.6-9.4a7.49,7.49,0,0,0-.4-1.6,5.67,5.67,0,0,0-.8-1.3,2.73,2.73,0,0,0-1.2-.9,4.15,4.15,0,0,0-1.6-.3,3.78,3.78,0,0,0-2.8,1.2,5.15,5.15,0,0,0-1.3,3h8.1Z"/><path class="cls-3" d="M440.22,107.1h3.7v3.6a7,7,0,0,1,2.1-2.9,5.58,5.58,0,0,1,3.5-1v3.8h-.2a5.38,5.38,0,0,0-2.2.4,5.23,5.23,0,0,0-1.7,1.2,4.33,4.33,0,0,0-1.1,2,7.66,7.66,0,0,0-.4,2.7v6h-3.7V107.1Z"/><path class="cls-3" d="M459.82,123.3a8.66,8.66,0,0,1-3.2-.6,7.58,7.58,0,0,1-4.3-4.3,8.81,8.81,0,0,1-.6-3.3V115a8.66,8.66,0,0,1,.6-3.2,7.6,7.6,0,0,1,1.6-2.6,8.4,8.4,0,0,1,2.4-1.8,7.79,7.79,0,0,1,3.1-.6,6.71,6.71,0,0,1,3.3.7,7.49,7.49,0,0,1,2.4,1.9,7,7,0,0,1,1.4,2.7,11.42,11.42,0,0,1,.5,3.3v1h-11.6a4.79,4.79,0,0,0,1.5,3,4.36,4.36,0,0,0,3,1,5.21,5.21,0,0,0,2.3-.5,10.52,10.52,0,0,0,2-1.4l2.1,1.9a11.33,11.33,0,0,1-2.7,2.2A10.31,10.31,0,0,1,459.82,123.3Zm3.6-9.4a7.49,7.49,0,0,0-.4-1.6,5.67,5.67,0,0,0-.8-1.3,2.73,2.73,0,0,0-1.2-.9,4.15,4.15,0,0,0-1.6-.3,3.78,3.78,0,0,0-2.8,1.2,5.15,5.15,0,0,0-1.3,3h8.1Z"/><path class="cls-3" d="M477.22,123.2a8.57,8.57,0,0,1-2.7-.5,6.34,6.34,0,0,1-2.3-1.6,9.75,9.75,0,0,1-1.7-2.6,9.51,9.51,0,0,1-.6-3.5v-.1a8.7,8.7,0,0,1,2.2-6.1,8.68,8.68,0,0,1,2.3-1.6,6.46,6.46,0,0,1,2.7-.5,6.06,6.06,0,0,1,3.2.8,8.49,8.49,0,0,1,2.2,2V101h3.7v21.9h-3.7v-2.6a8.83,8.83,0,0,1-2.2,2.1A5.13,5.13,0,0,1,477.22,123.2Zm.9-3.1a3.29,3.29,0,0,0,1.7-.4,4.92,4.92,0,0,0,1.5-1,3.36,3.36,0,0,0,1-1.6,6.54,6.54,0,0,0,.4-2.1v-.1a4.64,4.64,0,0,0-.4-2.1,4.35,4.35,0,0,0-1-1.6,4,4,0,0,0-1.5-1,5.26,5.26,0,0,0-1.7-.4,4.67,4.67,0,0,0-1.7.3,6.53,6.53,0,0,0-1.5,1,6.24,6.24,0,0,0-1,1.6,6.54,6.54,0,0,0-.4,2.1v.1a4.64,4.64,0,0,0,.4,2.1,6.24,6.24,0,0,0,1,1.6,4,4,0,0,0,1.5,1A2.62,2.62,0,0,0,478.12,120.1Z"/><path class="cls-3" d="M496.22,123.2a5.1,5.1,0,0,1-4.2-1.7,6.35,6.35,0,0,1-1.5-4.4V107h3.7v9a4.37,4.37,0,0,0,.9,2.9,3,3,0,0,0,2.5,1,3.39,3.39,0,0,0,2.6-1,4,4,0,0,0,1-2.9v-8.9h3.7v15.8h-3.7v-2.5a9,9,0,0,1-1.9,2A4.94,4.94,0,0,1,496.22,123.2Z"/><path class="cls-3" d="M508.72,120.4l9.1-10.4H509v-3h13.4v2.5l-9.1,10.4h9.1v3h-13.8v-2.5Z"/><path class="cls-3" d="M526.32,101.2h3.9v3.5h-3.9Zm.1,5.9h3.7v15.8h-3.7Z"/><path class="cls-3" d="M542,123.3a8.66,8.66,0,0,1-3.2-.6,7.58,7.58,0,0,1-4.3-4.3,8.81,8.81,0,0,1-.6-3.3V115a8.66,8.66,0,0,1,.6-3.2,7.6,7.6,0,0,1,1.6-2.6,8.4,8.4,0,0,1,2.4-1.8,7.79,7.79,0,0,1,3.1-.6,6.71,6.71,0,0,1,3.3.7,7.49,7.49,0,0,1,2.4,1.9,7,7,0,0,1,1.4,2.7,11.42,11.42,0,0,1,.5,3.3v1h-11.6a4.79,4.79,0,0,0,1.5,3,4.36,4.36,0,0,0,3,1,5.21,5.21,0,0,0,2.3-.5,10.52,10.52,0,0,0,2-1.4l2.1,1.9a11.33,11.33,0,0,1-2.7,2.2A10.31,10.31,0,0,1,542,123.3Zm3.6-9.4a7.49,7.49,0,0,0-.4-1.6,5.67,5.67,0,0,0-.8-1.3,2.73,2.73,0,0,0-1.2-.9,4.15,4.15,0,0,0-1.6-.3,3.78,3.78,0,0,0-2.8,1.2,5.15,5.15,0,0,0-1.3,3h8.1Z"/><path class="cls-3" d="M552.92,107.1h3.7v3.6a7,7,0,0,1,2.1-2.9,5.58,5.58,0,0,1,3.5-1v3.8H562a5.38,5.38,0,0,0-2.2.4,5.23,5.23,0,0,0-1.7,1.2,5.47,5.47,0,0,0-1.1,2,7.66,7.66,0,0,0-.4,2.7v6h-3.7V107.1Z"/><path class="cls-3" d="M572.62,123.3a8.66,8.66,0,0,1-3.2-.6,7.58,7.58,0,0,1-4.3-4.3,8.81,8.81,0,0,1-.6-3.3V115a8.66,8.66,0,0,1,.6-3.2,7.6,7.6,0,0,1,1.6-2.6,8.4,8.4,0,0,1,2.4-1.8,7.79,7.79,0,0,1,3.1-.6,6.71,6.71,0,0,1,3.3.7,7.49,7.49,0,0,1,2.4,1.9,7,7,0,0,1,1.4,2.7,11.42,11.42,0,0,1,.5,3.3v1h-11.6a4.79,4.79,0,0,0,1.5,3,4.36,4.36,0,0,0,3,1,5.21,5.21,0,0,0,2.3-.5,10.52,10.52,0,0,0,2-1.4l2.1,1.9a11.33,11.33,0,0,1-2.7,2.2A11.18,11.18,0,0,1,572.62,123.3Zm3.6-9.4a7.49,7.49,0,0,0-.4-1.6,5.67,5.67,0,0,0-.8-1.3,2.73,2.73,0,0,0-1.2-.9,4.15,4.15,0,0,0-1.6-.3,3.78,3.78,0,0,0-2.8,1.2,5.15,5.15,0,0,0-1.3,3h8.1Z"/><path class="cls-3" d="M583.42,107.1h3.7v2.5a8.7,8.7,0,0,1,.9-1.1,10.63,10.63,0,0,1,1.1-.9,3.79,3.79,0,0,1,1.3-.6,4.42,4.42,0,0,1,1.7-.2,5.1,5.1,0,0,1,4.2,1.7,6.35,6.35,0,0,1,1.5,4.4V123h-3.7v-9a4.37,4.37,0,0,0-.9-2.9,3,3,0,0,0-2.5-1,3.39,3.39,0,0,0-2.6,1,4,4,0,0,0-1,2.9v8.9h-3.7Z"/></g><circle class="cls-3" cx="364.92" cy="41.8" r="41.8"/><path class="cls-1" d="M379.62,28.9a9.22,9.22,0,0,0-.8-.5c-3.1-2.2-6.3-1.2-9.4-.2a20.69,20.69,0,0,1-4.3,1c-.2-1.7-.2-6,3.6-12.7a1,1,0,0,0-1.8-1,28.55,28.55,0,0,0-3.6,9.3,17.87,17.87,0,0,0-15.5-9.9,1.09,1.09,0,0,0-1.1.9v.1c-.1,5.1,1.6,8.8,5.5,11.5a8,8,0,0,0-2.5,1.1,15.46,15.46,0,0,0-2.7,2.4h0c0,.1-.1.1-.1.2h0a.35.35,0,0,1-.1.2v.3h0c0,.1,0,.2.1.2h0l.1.2h0c0,.1.1.1.2.2a22.63,22.63,0,0,1,5.9,8.2c3,7.1,2.2,14.9-2.4,23v.1h0c0,.1,0,.2-.1.2h0V64c0,.1,0,.1.1.2h0c0,.1.1.1.1.2h0c1.8,2.1,6.1,3.4,7.5,3.7a9.66,9.66,0,0,0,3.8.2,19.29,19.29,0,0,1,4.8-.1,14.77,14.77,0,0,0,2.1.1,14.25,14.25,0,0,0,1.6-.3c1.3-.4,2.6-.9,3.9-1.4,3.5-1.4,3.5-1.4,3.6-1.9a1,1,0,0,0-.3-1c-.1-.1-.2-.2-.3-.2-8.7-18,2.7-29,4.5-30.5a1.21,1.21,0,0,0,1-.8c.3-1-.7-1.8-3.5-3.6ZM348.82,17c9.8,1,13.1,8.8,14.1,12.1-1-.2-2-.4-2.8-.6l-1-.3-.8-.2c-7.8-2.6-9.4-6.9-9.5-11ZM351,30.1c2-1.4,4.1-1,6.5-.3.7.2,1.5.5,2.3.7a13.56,13.56,0,0,0,2.9.6l1.5.2h.3c.2,0,.3-.1.5-.2a22.93,22.93,0,0,0,5.2-1.1c2.9-.9,5.3-1.6,7.6-.1l.8.6c.4.2.9.6,1.5,1a9.61,9.61,0,0,0-4.2,3,4.42,4.42,0,0,1-1.4,1.2h0l-.2-.1a8.38,8.38,0,0,0-5.5-1.7,8,8,0,0,0-3,.9c-3.2,1.6-8,.4-10.9-1.7a15.82,15.82,0,0,0-4.7-2.3,7.51,7.51,0,0,1,.8-.7Zm19.3,36.2a8.13,8.13,0,0,1-3.1.2,24.52,24.52,0,0,0-2.7-.2c-.8,0-1.4.1-1.8.1l-.8.1a8.1,8.1,0,0,1-3.1-.1,25.42,25.42,0,0,1-4.6-1.7,31.84,31.84,0,0,0,6-1.8,4.13,4.13,0,0,1,3.6.2,5,5,0,0,0,4.6-.1,14,14,0,0,1,4,1.6,10.91,10.91,0,0,1,1.1.6,30.79,30.79,0,0,1-3.2,1.1Zm5-2.5a20,20,0,0,1-2.1-1,13.12,13.12,0,0,0-5.1-1.9,1,1,0,0,0-.7.2c-1.2.8-1.9.5-3.1.1a6.06,6.06,0,0,0-5.1-.1,39.83,39.83,0,0,1-5.9,1.7c7.1-14.2,1.5-24.5-2.3-29.1a17.1,17.1,0,0,1,2.3,1.3c3.4,2.4,9,3.8,13,1.8,3-1.5,4.6-.5,6.6.6l.2.1a1.94,1.94,0,0,0,1.3.3,4.12,4.12,0,0,0,2.4-1.5c-3.4,5.3-7.2,14.8-1.5,27.5Z"/><path class="cls-1" d="M361.92,46.3a.94.94,0,0,0-1,1v4.2a.94.94,0,0,0,1,1h.1a1,1,0,0,0,.9-1V47.3c.1-.6-.4-1-1-1Z"/><path class="cls-1" d="M366.12,46.3a.94.94,0,0,0-1,1v4.2a.94.94,0,0,0,1,1h.1a1,1,0,0,0,.9-1V47.3a1,1,0,0,0-1-1Z"/><path class="cls-4" d="M614.42,267.3h-499c-13.1,0-21.3,13.7-14.7,24.7l50.1,114a17,17,0,0,0,14.7,8.2h398.8A17.2,17.2,0,0,0,579,406l50.1-114C635.72,281,627.52,267.3,614.42,267.3Z"/><path class="cls-3" d="M190,354.6a13.89,13.89,0,0,1-4.6-.8,13.29,13.29,0,0,1-4.1-2.5l2.2-2.6a12.65,12.65,0,0,0,3.1,2,8.42,8.42,0,0,0,3.5.7,4.23,4.23,0,0,0,2.7-.7,2.42,2.42,0,0,0,1-1.9v-.1a3.55,3.55,0,0,0-.2-1,2.7,2.7,0,0,0-.7-.8,6.11,6.11,0,0,0-1.4-.7,21.72,21.72,0,0,0-2.4-.7,17.1,17.1,0,0,1-3-.9,9.41,9.41,0,0,1-2.2-1.2,5.52,5.52,0,0,1-1.4-1.7,7,7,0,0,1-.5-2.5v-.1a5.71,5.71,0,0,1,2-4.4,6.78,6.78,0,0,1,2.2-1.2,9.29,9.29,0,0,1,2.9-.5,11.41,11.41,0,0,1,4.1.7,15.13,15.13,0,0,1,3.5,2l-2,2.8a10.24,10.24,0,0,0-2.9-1.6,7.17,7.17,0,0,0-2.9-.6,3.67,3.67,0,0,0-2.5.7,2.14,2.14,0,0,0-.9,1.8v.1a4.25,4.25,0,0,0,.2,1.1,2,2,0,0,0,.8.8,10.09,10.09,0,0,0,1.5.7,20.59,20.59,0,0,0,2.5.7,24.57,24.57,0,0,1,2.9.9,7.19,7.19,0,0,1,2.1,1.2,5.5,5.5,0,0,1,1.3,1.7,4.49,4.49,0,0,1,.4,2.3v.1a5.83,5.83,0,0,1-.6,2.6,6.18,6.18,0,0,1-1.5,2,5.45,5.45,0,0,1-2.4,1.2A7.32,7.32,0,0,1,190,354.6Z"/><path class="cls-3" d="M201.42,338.4h3.7V341a8.38,8.38,0,0,1,2.1-2.1,6.2,6.2,0,0,1,3.2-.9,8.08,8.08,0,0,1,2.7.5,7.76,7.76,0,0,1,2.4,1.6,9,9,0,0,1,1.7,2.6,8.34,8.34,0,0,1,.6,3.5v.1a10.3,10.3,0,0,1-.6,3.5,8.69,8.69,0,0,1-1.6,2.6,7.76,7.76,0,0,1-2.4,1.6,6.46,6.46,0,0,1-2.7.5,5.87,5.87,0,0,1-3.2-.8,8,8,0,0,1-2.1-2V359h-3.7Zm8.2,13a3.92,3.92,0,0,0,1.8-.4,4.51,4.51,0,0,0,1.4-1,5.37,5.37,0,0,0,1-1.6,7.79,7.79,0,0,0,.4-2.1v-.1a5.22,5.22,0,0,0-.4-2.1,5.37,5.37,0,0,0-1-1.6,4.31,4.31,0,0,0-3.2-1.4,5,5,0,0,0-3.3,1.4,5.37,5.37,0,0,0-1,1.6,5.22,5.22,0,0,0-.4,2.1v.1a5.22,5.22,0,0,0,.4,2.1,5.37,5.37,0,0,0,1,1.6,4.71,4.71,0,0,0,3.3,1.4Z"/><path class="cls-3" d="M228.82,354.6a8.66,8.66,0,0,1-3.2-.6,7.58,7.58,0,0,1-4.3-4.3,9.74,9.74,0,0,1-.6-3.4v-.1a8.66,8.66,0,0,1,.6-3.2,7.6,7.6,0,0,1,1.6-2.6,8.4,8.4,0,0,1,2.4-1.8,6.61,6.61,0,0,1,3.1-.6,7.54,7.54,0,0,1,3.3.7,7.21,7.21,0,0,1,2.4,1.9,8.67,8.67,0,0,1,1.4,2.7,12.57,12.57,0,0,1,.5,3.3v1h-11.7a4.42,4.42,0,0,0,4.6,4,4.56,4.56,0,0,0,2.3-.5,6.69,6.69,0,0,0,1.9-1.4l2.1,1.9a11.33,11.33,0,0,1-2.7,2.2A6.71,6.71,0,0,1,228.82,354.6Zm3.6-9.4a7.49,7.49,0,0,0-.4-1.6,5.67,5.67,0,0,0-.8-1.3,3.45,3.45,0,0,0-1.2-.9,4.15,4.15,0,0,0-1.6-.3,3.78,3.78,0,0,0-2.8,1.2,4.82,4.82,0,0,0-1.3,3Z"/><path class="cls-3" d="M239.62,338.4h3.7v2.5a8.7,8.7,0,0,1,.9-1.1,10.63,10.63,0,0,1,1.1-.9,3.79,3.79,0,0,1,1.3-.6,4.68,4.68,0,0,1,1.7-.2,5.43,5.43,0,0,1,4.2,1.6,6.37,6.37,0,0,1,1.5,4.4v10.1h-3.7v-9a4,4,0,0,0-.9-2.9,2.88,2.88,0,0,0-2.5-1,3.54,3.54,0,0,0-2.6,1,3.83,3.83,0,0,0-1,2.9v8.9h-3.7Z"/><path class="cls-3" d="M264.82,354.6a8.08,8.08,0,0,1-2.7-.5,7.17,7.17,0,0,1-3.9-4.2,8.34,8.34,0,0,1-.6-3.5v-.1a10.3,10.3,0,0,1,.6-3.5,8.69,8.69,0,0,1,1.6-2.6,7.76,7.76,0,0,1,2.4-1.6,6.46,6.46,0,0,1,2.7-.5,5.87,5.87,0,0,1,3.2.8,8.33,8.33,0,0,1,2.2,2v-8.5H274v21.9h-3.7v-2.6a8.83,8.83,0,0,1-2.2,2.1A5.77,5.77,0,0,1,264.82,354.6Zm.8-3.1a4.31,4.31,0,0,0,3.2-1.4,5.37,5.37,0,0,0,1-1.6,5.22,5.22,0,0,0,.4-2.1v-.1a5.22,5.22,0,0,0-.4-2.1,5.37,5.37,0,0,0-1-1.6,4,4,0,0,0-1.5-1,4.71,4.71,0,0,0-1.7-.4,3.92,3.92,0,0,0-1.8.4,4.92,4.92,0,0,0-1.5,1,5.37,5.37,0,0,0-1,1.6,7.79,7.79,0,0,0-.4,2.1v.1a5.22,5.22,0,0,0,.4,2.1,5.37,5.37,0,0,0,1,1.6,4,4,0,0,0,1.5,1A5.84,5.84,0,0,0,265.62,351.5Z"/><path class="cls-3" d="M285.62,354.6a8.66,8.66,0,0,1-3.2-.6,7.58,7.58,0,0,1-4.3-4.3,9.74,9.74,0,0,1-.6-3.4v-.1a8.66,8.66,0,0,1,.6-3.2,7.81,7.81,0,0,1,4.1-4.4,6.61,6.61,0,0,1,3.1-.6,7.54,7.54,0,0,1,3.3.7,6,6,0,0,1,2.3,1.9,8.67,8.67,0,0,1,1.4,2.7,12.57,12.57,0,0,1,.5,3.3v1h-11.7a4.42,4.42,0,0,0,4.6,4,4.56,4.56,0,0,0,2.3-.5,9,9,0,0,0,2-1.4l2.1,1.9a11.33,11.33,0,0,1-2.7,2.2A7.26,7.26,0,0,1,285.62,354.6Zm3.6-9.4a7.49,7.49,0,0,0-.4-1.6,5.67,5.67,0,0,0-.8-1.3,3.45,3.45,0,0,0-1.2-.9,4.15,4.15,0,0,0-1.6-.3,3.78,3.78,0,0,0-2.8,1.2,4.82,4.82,0,0,0-1.3,3Z"/><path class="cls-3" d="M296.42,338.4h3.7v2.5a8.7,8.7,0,0,1,.9-1.1,10.63,10.63,0,0,1,1.1-.9,3.79,3.79,0,0,1,1.3-.6,4.68,4.68,0,0,1,1.7-.2,5.43,5.43,0,0,1,4.2,1.6,6.37,6.37,0,0,1,1.5,4.4v10.1h-3.7v-9a4,4,0,0,0-.9-2.9,2.88,2.88,0,0,0-2.5-1,3.54,3.54,0,0,0-2.6,1,3.83,3.83,0,0,0-1,2.9v8.9h-3.7Z"/><path class="cls-3" d="M329.52,354.6a5.43,5.43,0,0,1-4.2-1.6,6.9,6.9,0,0,1-1.5-4.4V338.5h3.7v9a4,4,0,0,0,.9,2.9,3,3,0,0,0,2.5,1,3.54,3.54,0,0,0,2.6-1,3.83,3.83,0,0,0,1-2.9v-9h3.7v15.8h-3.7v-2.5a6.36,6.36,0,0,1-2,2A4.71,4.71,0,0,1,329.52,354.6Zm-3.3-21.7h3.6v3.5h-3.7Zm6,0h3.6v3.5h-3.7Z"/><path class="cls-3" d="M351.62,354.6a6.9,6.9,0,0,1-3.2-.8,8,8,0,0,1-2.1-2v2.5h-3.7V332.4h3.7v8.7a7.35,7.35,0,0,1,2.2-2.1,6.2,6.2,0,0,1,3.2-.9,8.08,8.08,0,0,1,2.7.5,7.47,7.47,0,0,1,4.1,4.2,8.34,8.34,0,0,1,.6,3.5v.1a10.3,10.3,0,0,1-.6,3.5,8.69,8.69,0,0,1-1.6,2.6,7.76,7.76,0,0,1-2.4,1.6A9.82,9.82,0,0,1,351.62,354.6Zm-.8-3.1a3.92,3.92,0,0,0,1.8-.4,4.51,4.51,0,0,0,1.4-1,5.37,5.37,0,0,0,1-1.6,7.79,7.79,0,0,0,.4-2.1v-.1a5.22,5.22,0,0,0-.4-2.1,5.37,5.37,0,0,0-1-1.6,4.31,4.31,0,0,0-3.2-1.4,5,5,0,0,0-3.3,1.4,5.37,5.37,0,0,0-1,1.6,5.22,5.22,0,0,0-.4,2.1v.1a5.22,5.22,0,0,0,.4,2.1,5.37,5.37,0,0,0,1,1.6A5.18,5.18,0,0,0,350.82,351.5Z"/><path class="cls-3" d="M370,354.6a8.66,8.66,0,0,1-3.2-.6,7.58,7.58,0,0,1-4.3-4.3,9.74,9.74,0,0,1-.6-3.4v-.1a8.66,8.66,0,0,1,.6-3.2,7.81,7.81,0,0,1,4.1-4.4,6.61,6.61,0,0,1,3.1-.6,7.54,7.54,0,0,1,3.3.7,7.21,7.21,0,0,1,2.4,1.9,8.67,8.67,0,0,1,1.4,2.7,12.57,12.57,0,0,1,.5,3.3v1h-11.7a4.42,4.42,0,0,0,4.6,4,4.56,4.56,0,0,0,2.3-.5,9,9,0,0,0,2-1.4l2.1,1.9a11.33,11.33,0,0,1-2.7,2.2A7.83,7.83,0,0,1,370,354.6Zm3.6-9.4a7.49,7.49,0,0,0-.4-1.6,5.67,5.67,0,0,0-.8-1.3,3.45,3.45,0,0,0-1.2-.9,4.15,4.15,0,0,0-1.6-.3,3.78,3.78,0,0,0-2.8,1.2,4.82,4.82,0,0,0-1.3,3Z"/><path class="cls-3" d="M380.82,338.4h3.7V342a7.46,7.46,0,0,1,2.1-2.9,5.34,5.34,0,0,1,3.5-1v3.8h-.2a5.7,5.7,0,0,0-2.2.4,5.23,5.23,0,0,0-1.7,1.2,5.64,5.64,0,0,0-1.1,2,8.63,8.63,0,0,0-.4,2.8v6h-3.7Z"/><path class="cls-3" d="M398.72,354.6a10.3,10.3,0,0,1-3.5-.6,9.16,9.16,0,0,1-3.2-1.8l1.6-2.5a13.5,13.5,0,0,0,2.6,1.5,7.51,7.51,0,0,0,2.6.5,2.9,2.9,0,0,0,1.8-.5,1.22,1.22,0,0,0,.6-1.2v-.1a1.14,1.14,0,0,0-.3-.8,5.55,5.55,0,0,0-.8-.6,11.73,11.73,0,0,1-1.1-.5l-1.3-.4-1.8-.6a5.07,5.07,0,0,1-1.6-.9,3.34,3.34,0,0,1-1.1-1.3,4.14,4.14,0,0,1-.5-1.9v-.1a4.47,4.47,0,0,1,1.6-3.5,5.24,5.24,0,0,1,1.8-1,8.33,8.33,0,0,1,2.2-.3,10.47,10.47,0,0,1,3,.5,14.25,14.25,0,0,1,2.8,1.3l-1.4,2.6a16.27,16.27,0,0,0-2.3-1.1,5.38,5.38,0,0,0-2.2-.4,2.2,2.2,0,0,0-1.6.5,1.38,1.38,0,0,0-.6,1.1v.1a.91.91,0,0,0,.3.7,5.55,5.55,0,0,0,.8.6c.4.2.7.3,1.1.5s.9.3,1.3.4a17.72,17.72,0,0,1,1.7.6,5.07,5.07,0,0,1,1.6.9,3.74,3.74,0,0,1,1.2,1.3,4.07,4.07,0,0,1,.5,1.8v.1a4.19,4.19,0,0,1-.5,2.2,4.43,4.43,0,0,1-1.2,1.5,6.63,6.63,0,0,1-1.9.9A5.45,5.45,0,0,1,398.72,354.6Z"/><path class="cls-3" d="M415.62,354.6a9.6,9.6,0,0,1-3.3-.6,6.77,6.77,0,0,1-2.6-1.8,7.82,7.82,0,0,1-1.7-2.6,8.66,8.66,0,0,1-.6-3.2v-.1a8.66,8.66,0,0,1,.6-3.2,7.82,7.82,0,0,1,1.7-2.6,7.61,7.61,0,0,1,2.6-1.8,9,9,0,0,1,7,.1,8.6,8.6,0,0,1,2.6,2l-2.2,2.4a6.23,6.23,0,0,0-1.8-1.4,4.65,4.65,0,0,0-2.3-.6,3.66,3.66,0,0,0-1.8.4,4.86,4.86,0,0,0-1.4,1.1,5.37,5.37,0,0,0-1,1.6,4.43,4.43,0,0,0-.3,2v.1a6.45,6.45,0,0,0,.3,2,4.35,4.35,0,0,0,1,1.6,4.18,4.18,0,0,0,1.5,1.1,4.33,4.33,0,0,0,1.9.4,5.93,5.93,0,0,0,2.3-.5,13.3,13.3,0,0,0,1.9-1.4l2.2,2.2a9,9,0,0,1-2.7,2.1A7.72,7.72,0,0,1,415.62,354.6Z"/><path class="cls-3" d="M425.42,332.4h3.7v8.5a7.63,7.63,0,0,1,.8-1.1,10.63,10.63,0,0,1,1.1-.9,3.79,3.79,0,0,1,1.3-.6,4.68,4.68,0,0,1,1.7-.2,5.43,5.43,0,0,1,4.2,1.6,6.37,6.37,0,0,1,1.5,4.4v10.1H436v-9a4,4,0,0,0-.9-2.9,3,3,0,0,0-2.5-1,3.17,3.17,0,0,0-2.5,1,3.83,3.83,0,0,0-1,2.9v8.9h-3.7Z"/><path class="cls-3" d="M449.42,354.6a5.43,5.43,0,0,1-4.2-1.6,6.9,6.9,0,0,1-1.5-4.4V338.5h3.7v9a4,4,0,0,0,.9,2.9,3,3,0,0,0,2.5,1,3.54,3.54,0,0,0,2.6-1,3.83,3.83,0,0,0,1-2.9v-9h3.7v15.8h-3.7v-2.5a6.36,6.36,0,0,1-2,2A4.55,4.55,0,0,1,449.42,354.6Zm-3.2-21.7h3.7v3.5h-3.7Zm6,0h3.7v3.5h-3.7Z"/><path class="cls-3" d="M468,354.6a10.3,10.3,0,0,1-3.5-.6,9.16,9.16,0,0,1-3.2-1.8l1.6-2.5a13.5,13.5,0,0,0,2.6,1.5,7.51,7.51,0,0,0,2.6.5,2.9,2.9,0,0,0,1.8-.5,1.22,1.22,0,0,0,.6-1.2v-.1a1.14,1.14,0,0,0-.3-.8,5.55,5.55,0,0,0-.8-.6,11.73,11.73,0,0,1-1.1-.5l-1.3-.4-1.8-.6a5.07,5.07,0,0,1-1.6-.9,3.34,3.34,0,0,1-1.1-1.3,4.14,4.14,0,0,1-.5-1.9v-.1a4.47,4.47,0,0,1,1.6-3.5,5.24,5.24,0,0,1,1.8-1,8.33,8.33,0,0,1,2.2-.3,10.47,10.47,0,0,1,3,.5,14.25,14.25,0,0,1,2.8,1.3l-1.4,2.6a16.27,16.27,0,0,0-2.3-1.1,5.38,5.38,0,0,0-2.2-.4,2.2,2.2,0,0,0-1.6.5,1.38,1.38,0,0,0-.6,1.1v.1a.91.91,0,0,0,.3.7,5.55,5.55,0,0,0,.8.6c.4.2.7.3,1.1.5s.9.3,1.3.4a17.72,17.72,0,0,1,1.7.6,5.07,5.07,0,0,1,1.6.9,3.74,3.74,0,0,1,1.2,1.3,4.07,4.07,0,0,1,.5,1.8v.1a4.19,4.19,0,0,1-.5,2.2,4.43,4.43,0,0,1-1.2,1.5,6.63,6.63,0,0,1-1.9.9A5.09,5.09,0,0,1,468,354.6Z"/><path class="cls-3" d="M483,354.6a10.3,10.3,0,0,1-3.5-.6,9.16,9.16,0,0,1-3.2-1.8l1.6-2.5a13.5,13.5,0,0,0,2.6,1.5,7.51,7.51,0,0,0,2.6.5,2.9,2.9,0,0,0,1.8-.5,1.22,1.22,0,0,0,.6-1.2v-.1a1.14,1.14,0,0,0-.3-.8,5.55,5.55,0,0,0-.8-.6,11.73,11.73,0,0,1-1.1-.5l-1.3-.4-1.8-.6a5.07,5.07,0,0,1-1.6-.9,3.34,3.34,0,0,1-1.1-1.3,4.14,4.14,0,0,1-.5-1.9v-.1a4.47,4.47,0,0,1,1.6-3.5,5.24,5.24,0,0,1,1.8-1,8.33,8.33,0,0,1,2.2-.3,10.47,10.47,0,0,1,3,.5,14.25,14.25,0,0,1,2.8,1.3l-1.4,2.6a16.27,16.27,0,0,0-2.3-1.1,5.38,5.38,0,0,0-2.2-.4,2.2,2.2,0,0,0-1.6.5,1.38,1.38,0,0,0-.6,1.1v.1a.91.91,0,0,0,.3.7,5.55,5.55,0,0,0,.8.6c.4.2.7.3,1.1.5s.9.3,1.3.4a17.72,17.72,0,0,1,1.7.6,5.07,5.07,0,0,1,1.6.9,3.74,3.74,0,0,1,1.2,1.3,4.07,4.07,0,0,1,.5,1.8v.1a4.19,4.19,0,0,1-.5,2.2,4.43,4.43,0,0,1-1.2,1.5,6.63,6.63,0,0,1-1.9.9A5.09,5.09,0,0,1,483,354.6Z"/><path class="cls-3" d="M492.62,332.6h3.9v3.5h-3.9Zm.2,5.8h3.7v15.8h-3.7Z"/><path class="cls-3" d="M508.22,359.1a13.75,13.75,0,0,1-7.1-1.9l1.4-2.7a12.27,12.27,0,0,0,2.6,1.2,10.47,10.47,0,0,0,3,.5,5.33,5.33,0,0,0,3.7-1.2,4.88,4.88,0,0,0,1.3-3.6v-1.2a9.3,9.3,0,0,1-2.3,2.1,6.22,6.22,0,0,1-3.3.8,7.2,7.2,0,0,1-5-2,8.68,8.68,0,0,1-1.6-2.3,8.15,8.15,0,0,1-.6-3.1v-.2a8.15,8.15,0,0,1,.6-3.1,6.34,6.34,0,0,1,1.6-2.3,11.35,11.35,0,0,1,2.3-1.5,8.57,8.57,0,0,1,2.7-.5,6.22,6.22,0,0,1,3.3.8,10,10,0,0,1,2.2,1.9v-2.4h3.6V351c0,2.7-.7,4.7-2,6a7.44,7.44,0,0,1-2.7,1.6A9,9,0,0,1,508.22,359.1Zm.3-9.1a5.66,5.66,0,0,0,1.8-.3,3.77,3.77,0,0,0,1.5-.9,4.51,4.51,0,0,0,1-1.4,3.42,3.42,0,0,0,.4-1.8v-.1a3.92,3.92,0,0,0-.4-1.8,4.51,4.51,0,0,0-1-1.4,3.77,3.77,0,0,0-1.5-.9,5.55,5.55,0,0,0-3.6,0,4.19,4.19,0,0,0-1.4.9,3.59,3.59,0,0,0-1,1.4,3.81,3.81,0,0,0-.3,1.8v.1a3.92,3.92,0,0,0,.4,1.8,4.51,4.51,0,0,0,1,1.4,4.19,4.19,0,0,0,1.4.9A4.67,4.67,0,0,0,508.52,350Z"/><path class="cls-3" d="M528.52,354.6a8.66,8.66,0,0,1-3.2-.6,9,9,0,0,1-2.6-1.7,7.82,7.82,0,0,1-1.7-2.6,9.74,9.74,0,0,1-.6-3.4v-.1a8.66,8.66,0,0,1,.6-3.2,7.6,7.6,0,0,1,1.6-2.6,6.42,6.42,0,0,1,2.5-1.8,6.61,6.61,0,0,1,3.1-.6,7.54,7.54,0,0,1,3.3.7,6.34,6.34,0,0,1,2.4,1.9,8.67,8.67,0,0,1,1.4,2.7,12.57,12.57,0,0,1,.5,3.3v1h-11.7a4.81,4.81,0,0,0,1.5,3,4.72,4.72,0,0,0,3,1,4.56,4.56,0,0,0,2.3-.5,9,9,0,0,0,2-1.4l2.1,1.9a11.33,11.33,0,0,1-2.7,2.2A7.26,7.26,0,0,1,528.52,354.6Zm3.6-9.4a7.49,7.49,0,0,0-.4-1.6,5.67,5.67,0,0,0-.8-1.3,3.45,3.45,0,0,0-1.2-.9,4.15,4.15,0,0,0-1.6-.3,3.63,3.63,0,0,0-2.8,1.2,4.82,4.82,0,0,0-1.3,3Z"/><path class="cls-3" d="M539.42,338.4h3.7V342a7.46,7.46,0,0,1,2.1-2.9,5.34,5.34,0,0,1,3.5-1v3.8h-.2a5.7,5.7,0,0,0-2.2.4,6.57,6.57,0,0,0-1.7,1.2,5.64,5.64,0,0,0-1.1,2,8.63,8.63,0,0,0-.4,2.8v6h-3.7Z"/><path class="cls-3" d="M269,369.3h3.7V387h11v3.3H269Z"/><path class="cls-3" d="M294.42,390.6a8.66,8.66,0,0,1-3.2-.6,7.58,7.58,0,0,1-4.3-4.3,9.74,9.74,0,0,1-.6-3.4v-.1a8.66,8.66,0,0,1,.6-3.2,7.81,7.81,0,0,1,4.1-4.4,6.61,6.61,0,0,1,3.1-.6,7.54,7.54,0,0,1,3.3.7,7.21,7.21,0,0,1,2.4,1.9,8.67,8.67,0,0,1,1.4,2.7,12.57,12.57,0,0,1,.5,3.3v1h-11.9a4.42,4.42,0,0,0,4.6,4,4.56,4.56,0,0,0,2.3-.5,9,9,0,0,0,2-1.4l2.1,1.9a11.33,11.33,0,0,1-2.7,2.2A6.9,6.9,0,0,1,294.42,390.6Zm3.6-9.3a7.49,7.49,0,0,0-.4-1.6,5.67,5.67,0,0,0-.8-1.3,3.45,3.45,0,0,0-1.2-.9,4.15,4.15,0,0,0-1.6-.3,3.78,3.78,0,0,0-2.8,1.2,4.82,4.82,0,0,0-1.3,3Z"/><path class="cls-3" d="M314.22,390.6a6.9,6.9,0,0,1-3.2-.8,10,10,0,0,1-2.2-1.9v2.5h-3.7V368.5h3.7v8.7a7.35,7.35,0,0,1,2.2-2.1,6.2,6.2,0,0,1,3.2-.9,8.08,8.08,0,0,1,2.7.5,7.47,7.47,0,0,1,4.1,4.2,8.34,8.34,0,0,1,.6,3.5v.1a10.3,10.3,0,0,1-.6,3.5,8.69,8.69,0,0,1-1.6,2.6,7.76,7.76,0,0,1-2.4,1.6A8.63,8.63,0,0,1,314.22,390.6Zm-.8-3.1a3.92,3.92,0,0,0,1.8-.4,4.51,4.51,0,0,0,1.4-1,5.37,5.37,0,0,0,1-1.6,7.79,7.79,0,0,0,.4-2.1v-.1a5.22,5.22,0,0,0-.4-2.1,5.37,5.37,0,0,0-1-1.6,4.31,4.31,0,0,0-3.2-1.4,5,5,0,0,0-3.3,1.4,5.37,5.37,0,0,0-1,1.6,5.22,5.22,0,0,0-.4,2.1v.1a5.22,5.22,0,0,0,.4,2.1,5.37,5.37,0,0,0,1,1.6,5.77,5.77,0,0,0,3.3,1.4Z"/><path class="cls-3" d="M332.62,390.6a8.66,8.66,0,0,1-3.2-.6,7.58,7.58,0,0,1-4.3-4.3,9.74,9.74,0,0,1-.6-3.4v-.1a8.66,8.66,0,0,1,.6-3.2,7.81,7.81,0,0,1,4.1-4.4,6.61,6.61,0,0,1,3.1-.6,7.54,7.54,0,0,1,3.3.7,6,6,0,0,1,2.3,1.9,8.67,8.67,0,0,1,1.4,2.7,12.57,12.57,0,0,1,.5,3.3v1h-11.7a4.42,4.42,0,0,0,4.6,4,4.56,4.56,0,0,0,2.3-.5,9,9,0,0,0,2-1.4l2.1,1.9a8.19,8.19,0,0,1-2.7,2.2A7.26,7.26,0,0,1,332.62,390.6Zm3.6-9.3a7.49,7.49,0,0,0-.4-1.6,5.67,5.67,0,0,0-.8-1.3,3.45,3.45,0,0,0-1.2-.9,4.15,4.15,0,0,0-1.6-.3,3.78,3.78,0,0,0-2.8,1.2,4.82,4.82,0,0,0-1.3,3Z"/><path class="cls-3" d="M343.42,374.4h3.7v2.5a8.7,8.7,0,0,1,.9-1.1,10.63,10.63,0,0,1,1.1-.9,3.79,3.79,0,0,1,1.3-.6,4.68,4.68,0,0,1,1.7-.2,5.43,5.43,0,0,1,4.2,1.6,6.37,6.37,0,0,1,1.5,4.4v10.1h-3.7v-9a4,4,0,0,0-.9-2.9,3,3,0,0,0-2.5-1,3.17,3.17,0,0,0-2.5,1,3.83,3.83,0,0,0-1,2.9v8.9h-3.6V374.4Z"/><path class="cls-3" d="M367.52,390.6a10.3,10.3,0,0,1-3.5-.6,9.16,9.16,0,0,1-3.2-1.8l1.6-2.5a9.39,9.39,0,0,0,2.6,1.4,7.51,7.51,0,0,0,2.6.5,2.9,2.9,0,0,0,1.8-.5,1.22,1.22,0,0,0,.6-1.2v-.1a1.14,1.14,0,0,0-.3-.8,5.55,5.55,0,0,0-.8-.6,11.73,11.73,0,0,1-1.1-.5l-1.3-.4-1.8-.6a5.07,5.07,0,0,1-1.6-.9,3.34,3.34,0,0,1-1.1-1.3,4.14,4.14,0,0,1-.5-1.9v-.1a4.47,4.47,0,0,1,1.6-3.5,5.24,5.24,0,0,1,1.8-1,8.33,8.33,0,0,1,2.2-.3,10.47,10.47,0,0,1,3,.5,14.25,14.25,0,0,1,2.8,1.3l-1.4,2.6a16.27,16.27,0,0,0-2.3-1.1,5.38,5.38,0,0,0-2.2-.4,2.2,2.2,0,0,0-1.6.5,1.38,1.38,0,0,0-.6,1.1v.1a.91.91,0,0,0,.3.7,5.55,5.55,0,0,0,.8.6c.4.2.7.3,1.1.5s.9.3,1.3.4a17.72,17.72,0,0,1,1.7.6,5.07,5.07,0,0,1,1.6.9,3.74,3.74,0,0,1,1.2,1.3,4.07,4.07,0,0,1,.5,1.8v.1a4.19,4.19,0,0,1-.5,2.2,4.43,4.43,0,0,1-1.2,1.5,6.63,6.63,0,0,1-1.9.9A4.28,4.28,0,0,1,367.52,390.6Z"/><path class="cls-3" d="M377,374.4h3.7v2.4a8.74,8.74,0,0,1,.8-1,9,9,0,0,1,1-.9,3.1,3.1,0,0,1,1.3-.6,4.4,4.4,0,0,1,1.6-.2,5,5,0,0,1,4.7,2.8,7.4,7.4,0,0,1,2.3-2,6.5,6.5,0,0,1,3.1-.8,5.35,5.35,0,0,1,4.1,1.6,6.17,6.17,0,0,1,1.5,4.5v10.1h-3.7v-9a4.43,4.43,0,0,0-.8-2.9,3.38,3.38,0,0,0-4.8,0,3.89,3.89,0,0,0-.9,2.9v8.9h-3.7v-9a4,4,0,0,0-.8-2.8,3.1,3.1,0,0,0-2.4-1,4,4,0,0,0-2.5,1,3.89,3.89,0,0,0-.9,2.9v8.9H377V374.4Z"/><path class="cls-3" d="M405.62,368.6h3.9v3.5h-3.9Zm.2,5.8h3.7v15.8h-3.7Z"/><path class="cls-3" d="M419.52,390.5a11,11,0,0,1-1.8-.2,3.68,3.68,0,0,1-1.5-.8,4.51,4.51,0,0,1-1-1.4,5.7,5.7,0,0,1-.4-2.2v-8.3h-2v-3.1h2v-4.4h3.7v4.4h4.3v3.1h-4.3v7.8a2,2,0,0,0,.5,1.5,2.39,2.39,0,0,0,1.4.5,5.09,5.09,0,0,0,2.2-.5v3a4.71,4.71,0,0,1-1.5.6A8.48,8.48,0,0,1,419.52,390.5Z"/><path class="cls-3" d="M431.82,390.5a11,11,0,0,1-1.8-.2,3.68,3.68,0,0,1-1.5-.8,4.51,4.51,0,0,1-1-1.4,5.58,5.58,0,0,1-.3-2.2v-8.3h-2v-3.1h2v-4.4h3.7v4.4h4.3v3.1h-4.4v7.8a2,2,0,0,0,.5,1.5,2.39,2.39,0,0,0,1.4.5,5.09,5.09,0,0,0,2.2-.5v3a4.71,4.71,0,0,1-1.5.6A8.48,8.48,0,0,1,431.82,390.5Z"/><path class="cls-3" d="M446,390.6a8.66,8.66,0,0,1-3.2-.6,7.58,7.58,0,0,1-4.3-4.3,9.74,9.74,0,0,1-.6-3.4v-.1a8.66,8.66,0,0,1,.6-3.2,7.6,7.6,0,0,1,1.6-2.6,8.4,8.4,0,0,1,2.4-1.8,7.92,7.92,0,0,1,6.4,0,7.21,7.21,0,0,1,2.4,1.9,8.67,8.67,0,0,1,1.4,2.7,12.57,12.57,0,0,1,.5,3.3v1h-11.7a4.42,4.42,0,0,0,4.6,4,4.56,4.56,0,0,0,2.3-.5,9,9,0,0,0,2-1.4l2.1,1.9a8.19,8.19,0,0,1-2.7,2.2A6.49,6.49,0,0,1,446,390.6Zm3.6-9.3a7.49,7.49,0,0,0-.4-1.6,5.67,5.67,0,0,0-.8-1.3,3.45,3.45,0,0,0-1.2-.9,4.15,4.15,0,0,0-1.6-.3,3.63,3.63,0,0,0-2.8,1.2,4.82,4.82,0,0,0-1.3,3Z"/><path class="cls-3" d="M457.12,368.4h3.7v21.9h-3.7Z"/><circle class="cls-3" cx="364.92" cy="266.9" r="41.8"/><path class="cls-4" d="M392.12,281.6a6.18,6.18,0,0,0-4.7-2.2,6.93,6.93,0,0,0-2,.3l-11.6,3.9a5.1,5.1,0,0,0-4.5-2.9h-3.1a3.7,3.7,0,0,0,1.1-.5,3.07,3.07,0,0,0,1.2-2.8,3.53,3.53,0,0,1,.8-2.6l1.7-1.7a8.42,8.42,0,0,0,2.7.4c3.9,0,8.8-2.1,12.3-5.6a11.41,11.41,0,0,0,3.8-7.7,8.92,8.92,0,0,0-2.8-6.8c-3.6-3.6-8.6-3.7-12.9-.3a8.73,8.73,0,0,0-3.6-5.2,8.55,8.55,0,0,0-6.8-1c-.3.1-.6.1-1,.2.5-2.1,2.1-3.6,4.7-4.4a.68.68,0,0,0,.4-.8.67.67,0,0,0-.7-.4,9,9,0,0,0-2.8,1.3,4.14,4.14,0,0,0-1.2-3.3c-1.9-1.9-6-1.9-6.2-1.9a.65.65,0,0,0-.6.6c0,.2,0,4.2,1.9,6.2a4.3,4.3,0,0,0,3.1,1.2h.7a7.49,7.49,0,0,0-.5,1.6,5.85,5.85,0,0,1-1.3-.2,8.29,8.29,0,0,0-7.3,1.3,9.53,9.53,0,0,0-3.5,7.7c0,4.8,1.6,9,4.3,11.5a8.92,8.92,0,0,0,6,2.4h.8a14.05,14.05,0,0,1,2.9,0,8.65,8.65,0,0,0,3.9-.6v.1l-1.7,1.7a2.78,2.78,0,0,1-2.6.8,3.13,3.13,0,1,0-.8,6.2,3,3,0,0,0,1.3,2.1,3.13,3.13,0,0,0,1,.5h-.7a8.68,8.68,0,0,1-3.9-1,9.29,9.29,0,0,0-4.6-1.2h-7.5v-.2a2.65,2.65,0,0,0-2.6-2.6h-5.4a2.65,2.65,0,0,0-2.6,2.6v14.4a2.65,2.65,0,0,0,2.6,2.6h5.4a2.63,2.63,0,0,0,2.6-2.5l16.3,3a5.28,5.28,0,0,0,1.3.1,7.17,7.17,0,0,0,2.9-.6l23-10.3a2.35,2.35,0,0,0,1.2-3.1c-.1.1-.2-.1-.4-.3Zm-45.5,11.3a1.43,1.43,0,0,1-1.4,1.4h-5.4a1.43,1.43,0,0,1-1.4-1.4V278.4a1.5,1.5,0,0,1,1.4-1.4h5.4a1.5,1.5,0,0,1,1.4,1.4Zm27.6-38c4.1-3.6,8.7-3.8,12-.5a7.49,7.49,0,0,1,2.4,5.8,10.51,10.51,0,0,1-3.5,6.9c-3.8,3.8-9.3,5.9-13,5.1l1.4-1.4a2.63,2.63,0,0,0,.2-3.6,3,3,0,0,0-1.9-1,2.57,2.57,0,0,0-2,.8l-1.4,1.4v-.1c-.7-3.7,1.5-9.2,5.1-12.9a1.79,1.79,0,0,1,.7-.5Zm-15.1-11.3c-1.1-1.1-1.4-3.5-1.5-4.6,1.1.1,3.5.4,4.6,1.5s.8,3,.6,3.7C362.12,244.4,360.32,244.8,359.12,243.6Zm8,24.5a7,7,0,0,1-3.5.6,16.05,16.05,0,0,0-3.1,0,7.67,7.67,0,0,1-5.8-2c-2.5-2.3-3.9-6.2-3.9-10.6a8.16,8.16,0,0,1,3-6.7,7,7,0,0,1,6.1-1.1l1.5.3v1.5a.65.65,0,0,0,.6.6h0a.67.67,0,0,0,.6-.7v-1.4a7.72,7.72,0,0,0,1.5-.2,6.77,6.77,0,0,1,5.7.8,7.57,7.57,0,0,1,3.2,5.1l-.4.4c-3.8,3.7-6.1,9.3-5.5,13.4Zm-2.7,11.2a2.14,2.14,0,0,1-.8-1.7c0-.2,0-.4-.2-.5a.76.76,0,0,0-.5-.2h-.1a1.69,1.69,0,0,1-1.7-.8,1.83,1.83,0,0,1,.5-2.6,1.38,1.38,0,0,1,1.2-.3,4.32,4.32,0,0,0,3.6-1.2l2-2h0l2.2-2.2a1.28,1.28,0,0,1,1-.4,1.23,1.23,0,0,1,1,.5,1.5,1.5,0,0,1-.1,1.9l-4.1,4.1a4.43,4.43,0,0,0-1.2,3.6,1.9,1.9,0,0,1-.7,1.7,1.81,1.81,0,0,1-2.1.1Zm27,4a1.06,1.06,0,0,1-.6.7l-23,10.3a5.75,5.75,0,0,1-3.4.4l-16.5-3v-12h7.5a7.65,7.65,0,0,1,3.9,1.1,9.29,9.29,0,0,0,4.6,1.2h5.5a3.75,3.75,0,0,1,3.6,2.6,5,5,0,0,1,.2,1.2A1.22,1.22,0,0,1,372,287H359c-.4,0-.7.2-.7.6s.2.7.6.7h13.2a2.87,2.87,0,0,0,1.8-.7,2.5,2.5,0,0,0,.8-1.8,3.4,3.4,0,0,0-.1-1l11.6-3.9a4.66,4.66,0,0,1,5.2,1.5,2.72,2.72,0,0,0,0,.9Z"/><path class="cls-4" d="M365.42,296.6a6.6,6.6,0,0,1-1.4-.1l-15.8-2.9a3.1,3.1,0,0,1-3,2.4h-5.4a3.12,3.12,0,0,1-3.1-3.1V278.5a3.12,3.12,0,0,1,3.1-3.1h5.4a3.13,3.13,0,0,1,3.1,2.8h7a8.88,8.88,0,0,1,4.8,1.3,10.64,10.64,0,0,0,2.5.9,3,3,0,0,1-.8-1.6,3.36,3.36,0,0,1-2-1.3,3.77,3.77,0,0,1-.8-2.7,3.61,3.61,0,0,1,4-3.2,2.93,2.93,0,0,0,2.2-.7l.5-.5a9.66,9.66,0,0,1-2.4.1,13.1,13.1,0,0,0-2.8,0h-.8a8.77,8.77,0,0,1-6.3-2.6c-2.8-2.6-4.5-6.9-4.5-11.9a10.19,10.19,0,0,1,3.7-8.1,8.54,8.54,0,0,1,7.7-1.4c.2.1.5.1.8.2a.76.76,0,0,1,.2-.5,4.84,4.84,0,0,1-3.4-1.3c-2-2-2.1-6.1-2.1-6.5a1.11,1.11,0,0,1,1.1-1.1h0c.5,0,4.5.1,6.5,2.1a4.86,4.86,0,0,1,1.3,2.8,8.49,8.49,0,0,1,2.2-.9,1.15,1.15,0,0,1,1.3.7,1.39,1.39,0,0,1,0,.9.9.9,0,0,1-.6.6,5.79,5.79,0,0,0-4.1,3.2h.1a9.15,9.15,0,0,1,7.2,1,10.27,10.27,0,0,1,3.7,4.8c4.5-3.1,9.4-2.8,13,.8a9.66,9.66,0,0,1,2.9,7.1,12.59,12.59,0,0,1-4,8.1c-3.5,3.5-8.4,5.8-12.6,5.8a10.07,10.07,0,0,1-2.5-.3l-1.5,1.5a2.93,2.93,0,0,0-.7,2.2,3.83,3.83,0,0,1-1,2.9h1.3a5.72,5.72,0,0,1,4.8,2.7l11.2-3.8a7.61,7.61,0,0,1,2.1-.3h0a6.6,6.6,0,0,1,4.9,2.2h0l.1.2a1.61,1.61,0,0,1,.4.7,3,3,0,0,1,.1,2.1,2.94,2.94,0,0,1-1.5,1.6l-23,10.3A29.62,29.62,0,0,1,365.42,296.6Zm-18-4.2,16.9,3.1a4.87,4.87,0,0,0,1.2.1,6.6,6.6,0,0,0,2.7-.6l23-10.3a2.41,2.41,0,0,0,1-1,1.71,1.71,0,0,0,0-1.4c0-.1-.1-.2-.2-.3l-.1-.1a5.5,5.5,0,0,0-4.3-2,5.66,5.66,0,0,0-1.8.3l-12,4-.2-.4a4.41,4.41,0,0,0-4.1-2.6h-1.1l.3.1h-4.9a4.1,4.1,0,0,1-1.1-.1h-1l.4-.1a7.71,7.71,0,0,1-2.5-1,9.26,9.26,0,0,0-4.3-1.2h-8v-.7a2.11,2.11,0,0,0-2.1-2.1h-5.4a2.11,2.11,0,0,0-2.1,2.1v14.4a2.11,2.11,0,0,0,2.1,2.1h5.4a2.16,2.16,0,0,0,2.1-2Zm15.2-19.9a2.68,2.68,0,0,0-2.6,2.3,2.51,2.51,0,0,0,.5,1.9,2.94,2.94,0,0,0,1.8,1h.4v.4a2.65,2.65,0,0,0,1.1,1.8,3,3,0,0,0,.8.4l.5.1.9-.2a2.35,2.35,0,0,0,1-.5,2.51,2.51,0,0,0,1-2.3,3.69,3.69,0,0,1,1-3l1.9-1.9.3.1a6.9,6.9,0,0,0,2.5.4c3.9,0,8.6-2.2,11.9-5.5a11.72,11.72,0,0,0,3.7-7.4,8.6,8.6,0,0,0-2.6-6.4c-3.4-3.4-8.1-3.5-12.3-.3l-.6.5-.2-.8a8.19,8.19,0,0,0-3.4-4.9,7.8,7.8,0,0,0-6.3-.9,4.4,4.4,0,0,1-1,.2l-.7.1.2-.7c.6-2.3,2.3-3.9,5-4.7V242c0-.1-.1-.1-.2-.1a12.27,12.27,0,0,0-2.6,1.2l-.9.6.1-1a3.83,3.83,0,0,0-1-2.9c-1.4-1.4-4.3-1.8-5.8-1.8h0a.1.1,0,0,0-.1.1c0,.2,0,4,1.8,5.8a3.39,3.39,0,0,0,2.7,1h.7l.8-.1-.3.8a7.84,7.84,0,0,0-.5,1.4l-.1.4h-.4a5.9,5.9,0,0,1-1.4-.2,7.84,7.84,0,0,0-6.8,1.2,9,9,0,0,0-3.3,7.3c0,4.7,1.5,8.8,4.1,11.2a7.93,7.93,0,0,0,5.7,2.3h.7a15,15,0,0,1,3,0,9.23,9.23,0,0,0,3.7-.5l.7-.3v1l-1.8,1.8a3.69,3.69,0,0,1-3,1C362.82,272.5,362.72,272.5,362.62,272.5Zm2.8,22.9a4.1,4.1,0,0,1-1.1-.1l-16.9-3.1V279.3h8a8.77,8.77,0,0,1,4.2,1.1,9.16,9.16,0,0,0,4.3,1.1h5.5a4.43,4.43,0,0,1,4.1,2.9,3.18,3.18,0,0,1,.2,1.4,1.69,1.69,0,0,1-1.7,1.7H359a.35.35,0,0,0-.2.1c0,.1,0,.1.1.2H372a2.05,2.05,0,0,0,2-2,2.77,2.77,0,0,0-.1-.9l-.1-.4,12-4.1a5.3,5.3,0,0,1,5.8,1.6,1.14,1.14,0,0,1,.3.8h.1v.5a1.44,1.44,0,0,1-.9,1.1l-23,10.3A5.44,5.44,0,0,1,365.42,295.4Zm-17.1-4,16.1,2.9a4.74,4.74,0,0,0,3.1-.4l23-10.3c.1,0,.1-.1.2-.1l.1-.2a.9.9,0,0,0-.1-.5,4.19,4.19,0,0,0-4.7-1.3l-11.2,3.8a2,2,0,0,0,.1.7,3.1,3.1,0,0,1-.9,2.2,2.88,2.88,0,0,1-2.1.9h-13.2a1.2,1.2,0,0,1-1-1.3,1.23,1.23,0,0,1,.4-.8.78.78,0,0,1,.8-.2h13c.4,0,.7-.3.8-.8a3,3,0,0,0-.2-1,3.34,3.34,0,0,0-3.1-2.2h-5.6a8.88,8.88,0,0,1-4.8-1.3,6.86,6.86,0,0,0-3.7-1h-7Zm-8.5,3.3a1.82,1.82,0,0,1-1.8-1.9V278.3a1.79,1.79,0,0,1,1.8-1.8h5.4a2,2,0,0,1,1.9,1.8v14.5a1.88,1.88,0,0,1-1.8,1.9Zm5.4-17.2h-5.4a.82.82,0,0,0-.8.9v14.5a.9.9,0,0,0,.9.9h5.4a.82.82,0,0,0,.8-.9V278.4A.9.9,0,0,0,345.22,277.5Zm20.3,2.6a2.2,2.2,0,0,1-.8-.1v.1l-.6-.3a2.51,2.51,0,0,1-1-2.1v-.1H363a2.28,2.28,0,0,1-2.1-1,2.23,2.23,0,0,1-.4-1.8,2.39,2.39,0,0,1,2.6-1.9,3.48,3.48,0,0,0,3.2-1.1l4.2-4.2a1.55,1.55,0,0,1,1.4-.5,2.1,2.1,0,0,1,1.4.7,2,2,0,0,1-.2,2.6l-4.1,4.1a4.07,4.07,0,0,0-1.1,3.2,2.2,2.2,0,0,1-.9,2.1A4,4,0,0,1,365.52,280.1Zm-1.1-1.5.3.2a1.22,1.22,0,0,0,1.6,0,1.15,1.15,0,0,0,.5-1.2,4.9,4.9,0,0,1,1.3-4l4.1-4.1a.92.92,0,0,0,.1-1.2.71.71,0,0,0-.6-.3h0a.86.86,0,0,0-.6.3l-4.2,4.2a4.9,4.9,0,0,1-4,1.3,2.92,2.92,0,0,0-.9.2,1.46,1.46,0,0,0-.6.9,1.16,1.16,0,0,0,.2,1,1.43,1.43,0,0,0,1.2.6h.1a1.14,1.14,0,0,1,.8.3,1,1,0,0,1,.3.9A2.47,2.47,0,0,0,364.42,278.6Zm9.3-5.8a8.81,8.81,0,0,1-1.7-.2l-.9-.2,2-2a2.16,2.16,0,0,0,.2-2.9,1.94,1.94,0,0,0-1.6-.8,2.27,2.27,0,0,0-1.6.6l-2.3,2.3v-1.3l-.6.2a8.22,8.22,0,0,1-3.8.6,15,15,0,0,0-3,0,8,8,0,0,1-6.2-2.2c-2.6-2.4-4.1-6.4-4.1-11a8.82,8.82,0,0,1,3.2-7.1,7.47,7.47,0,0,1,6.6-1.2,5.9,5.9,0,0,0,1.4.2h.5v1.9a.1.1,0,0,0,.1.1h0a.1.1,0,0,0,.1-.1v-1.9h.4a6.75,6.75,0,0,0,1.4-.2,7.29,7.29,0,0,1,6.1.9,8.2,8.2,0,0,1,3.5,5.5v.3l-.3.3-.3.3c-3.6,3.6-5.8,8.7-5.5,12.7h.2c-.3-3.8,1.9-9,5.4-12.5a4.35,4.35,0,0,1,.7-.6l.4-.3h0c4.2-3.5,8.9-3.6,12.3-.1a7.94,7.94,0,0,1,2.5,6.2,10.88,10.88,0,0,1-3.6,7.2A17.28,17.28,0,0,1,373.72,272.8Zm-.6-1c3.5.2,8.3-1.8,11.6-5.1a9.8,9.8,0,0,0,3.3-6.6,7,7,0,0,0-2.2-5.4c-3.1-3.2-7.5-3-11.3.5l-.4.3h0l-.3.3c-3.3,3.3-5.3,8-5.1,11.6l.7-.7a3,3,0,0,1,2.4-.9,3.47,3.47,0,0,1,2.3,1.2,3.23,3.23,0,0,1-.3,4.3Zm-11.2-3.7a8.6,8.6,0,0,1,1.6.1,5.71,5.71,0,0,0,2.9-.4c-.4-4.2,1.9-9.8,5.7-13.6.1-.1.2-.2.3-.2a7,7,0,0,0-3-4.5,6.21,6.21,0,0,0-5.3-.7,5,5,0,0,1-1.2.2v.9a1.13,1.13,0,0,1-1.1,1.2h0a1.13,1.13,0,0,1-1.2-1.1v-1.1c-.4-.1-.7-.1-1.1-.2a6.41,6.41,0,0,0-5.7,1A7.93,7.93,0,0,0,351,256c0,4.3,1.4,8,3.7,10.2a6.83,6.83,0,0,0,5.4,1.9A10.65,10.65,0,0,0,361.92,268.1Zm-.6-23.2a3.52,3.52,0,0,1-2.5-.9h0c-1.2-1.2-1.6-3.3-1.7-4.9v-.6h.6c1.3.1,3.7.4,4.9,1.7,1.4,1.4.8,3.7.7,4.2l-.1.3-.3.1C362.52,244.8,362,244.9,361.32,244.9Zm-1.8-1.6a3.15,3.15,0,0,0,2.9.5,3.57,3.57,0,0,0-.5-2.9,6.4,6.4,0,0,0-3.7-1.3,6.16,6.16,0,0,0,1.3,3.7Z"/><path class="cls-4" d="M364.42,251.5a4,4,0,0,1-4.9,0,.65.65,0,1,0-.7,1.1h0a5.58,5.58,0,0,0,6.3,0,.65.65,0,0,0-.7-1.1Z"/><path class="cls-4" d="M361.92,254a6,6,0,0,1-3.4-1.1,1.11,1.11,0,0,1-.3-1.6,1.23,1.23,0,0,1,1.6-.4,3.92,3.92,0,0,0,4.4,0h0a1,1,0,0,1,.9-.1,1.16,1.16,0,0,1,.7.5,1.25,1.25,0,0,1-.3,1.6A6.3,6.3,0,0,1,361.92,254Zm-2.8-2.1a.1.1,0,0,0-.1.1v.2a5,5,0,0,0,5.7,0c.1-.1.1-.1.1-.2s-.1-.1-.2,0a5,5,0,0,1-5.5-.1Z"/><path class="cls-5" d="M575.92,480.9h-422c-13.6,0-22.1,12.3-15.3,22.2l60.1,87.2c3.2,4.6,9,7.4,15.3,7.4h301.8c6.3,0,12.2-2.8,15.3-7.4l60.1-87.2C598,493.3,589.52,480.9,575.92,480.9Z"/><g class="cls-2"><path class="cls-3" d="M300.32,552.3h-6.7v-3.4h17v3.4h-6.7v17.6h-3.7V552.3Z"/><path class="cls-3" d="M314.22,548.2h3.9v3.5h-3.9Zm.2,5.9h3.7v15.8h-3.7Z"/><path class="cls-3" d="M330,570.3a8.66,8.66,0,0,1-3.2-.6,7.58,7.58,0,0,1-4.3-4.3,8.81,8.81,0,0,1-.6-3.3V562a8.66,8.66,0,0,1,.6-3.2,7.6,7.6,0,0,1,1.6-2.6,10.77,10.77,0,0,1,2.4-1.8,7.79,7.79,0,0,1,3.1-.6,6.71,6.71,0,0,1,3.3.7,8.76,8.76,0,0,1,2.4,1.9,7,7,0,0,1,1.4,2.7,11.42,11.42,0,0,1,.5,3.3v1h-11.6a4.79,4.79,0,0,0,1.5,3,4.36,4.36,0,0,0,3,1,5.21,5.21,0,0,0,2.3-.5,10.52,10.52,0,0,0,2-1.4l2.1,1.9a11.33,11.33,0,0,1-2.7,2.2A11.18,11.18,0,0,1,330,570.3Zm3.6-9.4a7.49,7.49,0,0,0-.4-1.6,5.67,5.67,0,0,0-.8-1.3,2.73,2.73,0,0,0-1.2-.9,4.15,4.15,0,0,0-1.6-.3,3.78,3.78,0,0,0-2.8,1.2,5.15,5.15,0,0,0-1.3,3h8.1Z"/><path class="cls-3" d="M340.82,554.1h3.7v3.6a7,7,0,0,1,2.1-2.9,5.58,5.58,0,0,1,3.5-1v3.8h-.2a5.38,5.38,0,0,0-2.2.4,5.23,5.23,0,0,0-1.7,1.2,4.33,4.33,0,0,0-1.1,2,7.66,7.66,0,0,0-.4,2.7v6h-3.7Z"/><path class="cls-3" d="M354,557.2h-2v-3h2v-1.1c0-1.8.4-3.1,1.3-3.9a4.92,4.92,0,0,1,3.6-1.3,7.59,7.59,0,0,1,1.6.1l1.3.3v3.1c-.4-.1-.7-.2-1-.3a3.75,3.75,0,0,0-1.1-.1q-2.1,0-2.1,2.4v.9h4.2v3h-4.1V570H354V557.2Z"/><path class="cls-3" d="M370,570.3a5.1,5.1,0,0,1-4.2-1.7,6.35,6.35,0,0,1-1.5-4.4V554.1H368v9a4.37,4.37,0,0,0,.9,2.9,3,3,0,0,0,2.5,1,3.54,3.54,0,0,0,2.6-1,4,4,0,0,0,1-2.9v-8.9h3.7V570H375v-2.5a9,9,0,0,1-1.9,2A6.21,6.21,0,0,1,370,570.3Z"/><path class="cls-3" d="M388.52,570.2a9,9,0,0,1-1.8-.2,3.61,3.61,0,0,1-1.5-.8,5,5,0,0,1-1-1.4,4.89,4.89,0,0,1-.3-2.2v-8.3h-2v-3.1h2v-4.4h3.7v4.4h4.3v3.1h-4.3v7.8a2.07,2.07,0,0,0,.5,1.5,2,2,0,0,0,1.4.5,5.45,5.45,0,0,0,2.2-.5v3a4.71,4.71,0,0,1-1.5.6A9.63,9.63,0,0,0,388.52,570.2Z"/><path class="cls-3" d="M400.82,570.2a9,9,0,0,1-1.8-.2,3.61,3.61,0,0,1-1.5-.8,5,5,0,0,1-1-1.4,4.89,4.89,0,0,1-.3-2.2v-8.3h-2v-3.1h2v-4.4h3.7v4.4h4.3v3.1h-4.4v7.8a2.07,2.07,0,0,0,.5,1.5,2,2,0,0,0,1.4.5,5.45,5.45,0,0,0,2.2-.5v3a4.71,4.71,0,0,1-1.5.6A8.48,8.48,0,0,0,400.82,570.2Z"/><path class="cls-3" d="M415,570.3a8.66,8.66,0,0,1-3.2-.6,7.58,7.58,0,0,1-4.3-4.3,8.81,8.81,0,0,1-.6-3.3V562a8.66,8.66,0,0,1,.6-3.2,7.6,7.6,0,0,1,1.6-2.6,8.4,8.4,0,0,1,2.4-1.8,7.79,7.79,0,0,1,3.1-.6,6.71,6.71,0,0,1,3.3.7,8.76,8.76,0,0,1,2.4,1.9,7,7,0,0,1,1.4,2.7,11.42,11.42,0,0,1,.5,3.3v1h-11.6a4.79,4.79,0,0,0,1.5,3,4.36,4.36,0,0,0,3,1,5.21,5.21,0,0,0,2.3-.5,10.52,10.52,0,0,0,2-1.4l2.1,1.9a11.33,11.33,0,0,1-2.7,2.2A7.61,7.61,0,0,1,415,570.3Zm3.6-9.4a7.49,7.49,0,0,0-.4-1.6,5.67,5.67,0,0,0-.8-1.3,2.73,2.73,0,0,0-1.2-.9,4.15,4.15,0,0,0-1.6-.3,3.78,3.78,0,0,0-2.8,1.2,5.15,5.15,0,0,0-1.3,3h8.1Z"/><path class="cls-3" d="M425.82,554.1h3.7v3.6a7,7,0,0,1,2.1-2.9,5.58,5.58,0,0,1,3.5-1v3.8h-.2a5.38,5.38,0,0,0-2.2.4,5.23,5.23,0,0,0-1.7,1.2,4.33,4.33,0,0,0-1.1,2,7.66,7.66,0,0,0-.4,2.7v6h-3.7Z"/></g><circle class="cls-3" cx="364.92" cy="481.4" r="41.8"/><path class="cls-5" d="M357.82,481.3a3.49,3.49,0,0,1-2.4-1,3.39,3.39,0,1,1,4.8,0A2.69,2.69,0,0,1,357.82,481.3Zm0-4.5a1.11,1.11,0,0,0-1.1,1.1,1.14,1.14,0,0,0,.3.8,1.06,1.06,0,0,0,1.2.2,1.08,1.08,0,0,0,.5-1.5c-.1-.3-.5-.5-.9-.6Z"/><path class="cls-5" d="M372,481.3a3.39,3.39,0,0,1-2.4-5.8,3.39,3.39,0,0,1,4.8,4.8,3.25,3.25,0,0,1-2.4,1Zm0-4.5a1.1,1.1,0,1,0,0,2.2.6.6,0,0,0,.4-.1,1.07,1.07,0,0,0,.6-1.5A1.05,1.05,0,0,0,372,476.8Z"/><path class="cls-5" d="M396.22,478.8c-1.2-6.2-5.5-12.9-9.6-14.9-3.2-1.6-7.5-1.6-10-1.4l-.9-.9c-2.8-2.6-7-2.6-9.9-2.7H364c-2.8,0-7.1.1-9.9,2.7a6.47,6.47,0,0,1-.9.8c-2.6-.2-6.9-.2-10.1,1.4-4,2-8.3,8.7-9.6,14.9-.8,4-.2,7.3,1.7,9.4,1.4,1.5,3.9,2.3,7.5,2.3h1a13.61,13.61,0,0,0,4.2,9.1c3.8,3.7,10.3,4.4,14.7,4.4H365c4.3.2,12.3-.1,16.7-4.3h0a13.61,13.61,0,0,0,4.2-9.1h1c3.6,0,6.2-.8,7.5-2.3,1.9-2.1,2.5-5.4,1.7-9.4Zm-59.1,7.9c-1.8-2-1.6-5.2-1.1-7.5,1.1-5.5,4.9-11.6,8.4-13.3h0a15.22,15.22,0,0,1,7.3-1.2,51.91,51.91,0,0,0-4.2,9.3l-.2.5c-2.1,5.8-3.2,8.8-3.4,12.5v1.3c-3.4,0-5.8-.5-6.8-1.6Zm27.9,2.1h0a2.9,2.9,0,0,1-1.5-.9,3.61,3.61,0,0,1-.8-1.5,5.08,5.08,0,0,1,4.5,0,4.35,4.35,0,0,1-.8,1.5,2.84,2.84,0,0,1-1.4.9Zm15.3,9.1c-2.7,2.6-7.8,3.9-14.2,3.7V490.8a5.11,5.11,0,0,0,2.1-1.5,6.66,6.66,0,0,0,1.5-3.3,1,1,0,0,0-.4-.9,6.91,6.91,0,0,0-8.6,0,1.09,1.09,0,0,0-.4.9,6.66,6.66,0,0,0,1.5,3.3,5.11,5.11,0,0,0,2.1,1.5v10.9c-6.4.2-11.5-1.2-14.2-3.7-3.4-3.3-3.7-7.2-3.5-10.9.2-3.5,1.2-6.3,3.3-11.9l.2-.5c2.6-7.1,3.8-9.3,6.2-11.5,2.2-2,5.8-2.1,8.4-2.1H366c2.6,0,6.2.1,8.4,2.1,2.4,2.2,3.5,4.3,6.2,11.5l.2.4c2.1,5.6,3.1,8.4,3.3,11.9-.1,3.8-.4,7.7-3.8,10.9Zm12.5-11.2c-1,1.1-3.4,1.6-6.7,1.5v-1.3c-.2-3.8-1.3-6.7-3.4-12.6l-.2-.4h0a40.87,40.87,0,0,0-4.2-9.3,18.09,18.09,0,0,1,7.3,1.2c3.4,1.7,7.3,7.8,8.4,13.3.5,2.4.7,5.6-1.2,7.6Z"/><path class="cls-6" d="M527.22,665.3H202.72c-11.9,0-19.3,9.2-13.3,16.5l76.7,94.9c2.8,3.4,7.8,5.5,13.3,5.5h171.2c5.5,0,10.6-2.1,13.3-5.5l76.7-94.9C546.52,674.4,539.12,665.3,527.22,665.3Z"/><g class="cls-2"><path class="cls-3" d="M298.92,731.3h3.7v10.6l10-10.6h4.5l-8.7,9,9.1,12H313l-7.2-9.4-3.3,3.4v6.1h-3.7V731.3Z"/><path class="cls-3" d="M327.72,752.6a8.81,8.81,0,0,1-3.3-.6,8,8,0,0,1-2.7-1.8,9.31,9.31,0,0,1-1.8-2.6,8.66,8.66,0,0,1-.6-3.2v-.1a8.66,8.66,0,0,1,.6-3.2,6.77,6.77,0,0,1,1.8-2.6,10.6,10.6,0,0,1,2.7-1.8,9.37,9.37,0,0,1,3.4-.7,9.74,9.74,0,0,1,3.4.6,8,8,0,0,1,2.7,1.8,9.31,9.31,0,0,1,1.8,2.6,7,7,0,0,1,.6,3.2v.1a8.66,8.66,0,0,1-.6,3.2,6.77,6.77,0,0,1-1.8,2.6,10.6,10.6,0,0,1-2.7,1.8A8.42,8.42,0,0,1,327.72,752.6Zm.1-3.1a4.48,4.48,0,0,0,2-.4,4.18,4.18,0,0,0,1.5-1.1,8.64,8.64,0,0,0,1-1.6,6.28,6.28,0,0,0,.3-1.9v-.1a4.48,4.48,0,0,0-.4-2,6.24,6.24,0,0,0-1-1.6,4.51,4.51,0,0,0-3.5-1.5,4.48,4.48,0,0,0-2,.4,4.18,4.18,0,0,0-1.5,1.1,6.24,6.24,0,0,0-1,1.6,6.45,6.45,0,0,0-.3,2v.1a4.48,4.48,0,0,0,.4,2,4.35,4.35,0,0,0,1,1.6,4.18,4.18,0,0,0,1.5,1.1A12,12,0,0,0,327.82,749.5Z"/><path class="cls-3" d="M339.92,736.4h3.7v2.4a8.74,8.74,0,0,1,.8-1,9,9,0,0,1,1-.9,3.1,3.1,0,0,1,1.3-.6,4.14,4.14,0,0,1,1.6-.2,5.47,5.47,0,0,1,2.9.8,4.94,4.94,0,0,1,1.8,2,7.4,7.4,0,0,1,2.3-2,6.21,6.21,0,0,1,3.1-.8,5.28,5.28,0,0,1,4.1,1.6,6.11,6.11,0,0,1,1.5,4.5v10.1h-3.7v-9a4.77,4.77,0,0,0-.8-2.9,2.84,2.84,0,0,0-2.4-1,3,3,0,0,0-2.4,1,4.2,4.2,0,0,0-.9,2.9v8.9h-3.7v-9a4.45,4.45,0,0,0-.8-2.8,2.84,2.84,0,0,0-2.4-1,3,3,0,0,0-2.4,1,4.37,4.37,0,0,0-.9,2.9v8.9h-3.7Z"/><path class="cls-3" d="M368.42,736.4h3.7V739a8.83,8.83,0,0,1,2.2-2.1,5.49,5.49,0,0,1,3.2-.9,8.57,8.57,0,0,1,2.7.5,6.34,6.34,0,0,1,2.3,1.6,9.75,9.75,0,0,1,1.7,2.6,9.51,9.51,0,0,1,.6,3.5v.1a8.7,8.7,0,0,1-2.2,6.1,7.76,7.76,0,0,1-2.4,1.6,6.46,6.46,0,0,1-2.7.5,6.06,6.06,0,0,1-3.2-.8,7.84,7.84,0,0,1-2.1-1.9v7.3h-3.7V736.4Zm8.2,13a3.92,3.92,0,0,0,1.8-.4,4.51,4.51,0,0,0,1.4-1,6.24,6.24,0,0,0,1-1.6,6.54,6.54,0,0,0,.4-2.1v-.1a4.64,4.64,0,0,0-.4-2.1,4.35,4.35,0,0,0-1-1.6,4.51,4.51,0,0,0-1.4-1,5.26,5.26,0,0,0-1.8-.4,3.92,3.92,0,0,0-1.8.4,4.92,4.92,0,0,0-1.5,1,5.37,5.37,0,0,0-1,1.6,4.64,4.64,0,0,0-.4,2.1v.1a4.64,4.64,0,0,0,.4,2.1,4.35,4.35,0,0,0,1,1.6,5,5,0,0,0,3.3,1.4Z"/><path class="cls-3" d="M396,752.6a8.81,8.81,0,0,1-3.3-.6,8,8,0,0,1-2.7-1.8,9.31,9.31,0,0,1-1.8-2.6,8.66,8.66,0,0,1-.6-3.2v-.1a8.66,8.66,0,0,1,.6-3.2,6.77,6.77,0,0,1,1.8-2.6,10.6,10.6,0,0,1,2.7-1.8,9.37,9.37,0,0,1,3.4-.7,9.74,9.74,0,0,1,3.4.6,8,8,0,0,1,2.7,1.8A9.31,9.31,0,0,1,404,741a7,7,0,0,1,.6,3.2v.1a8.66,8.66,0,0,1-.6,3.2,6.77,6.77,0,0,1-1.8,2.6,10.6,10.6,0,0,1-2.7,1.8A8.42,8.42,0,0,1,396,752.6Zm.1-3.1a4.48,4.48,0,0,0,2-.4,4.18,4.18,0,0,0,1.5-1.1,8.64,8.64,0,0,0,1-1.6,4.22,4.22,0,0,0,.3-1.9v-.1a4.48,4.48,0,0,0-.4-2,6.24,6.24,0,0,0-1-1.6,4.51,4.51,0,0,0-3.5-1.5,4.48,4.48,0,0,0-2,.4,4.18,4.18,0,0,0-1.5,1.1,6.24,6.24,0,0,0-1,1.6,6.45,6.45,0,0,0-.3,2v.1a4.48,4.48,0,0,0,.4,2,4.35,4.35,0,0,0,1,1.6,4.18,4.18,0,0,0,1.5,1.1A13.8,13.8,0,0,0,396.12,749.5Z"/><path class="cls-3" d="M413.62,752.6a11.2,11.2,0,0,1-3.5-.6,10.62,10.62,0,0,1-3.3-1.8l1.6-2.5a17.36,17.36,0,0,0,2.6,1.5,8,8,0,0,0,2.6.5,3,3,0,0,0,1.8-.5,1.43,1.43,0,0,0,.6-1.2v-.1a1.14,1.14,0,0,0-.3-.8,5.55,5.55,0,0,0-.8-.6,3.58,3.58,0,0,0-1.1-.4c-.4-.1-.9-.3-1.3-.4a12.66,12.66,0,0,1-1.8-.6,5.07,5.07,0,0,1-1.6-.9,3.74,3.74,0,0,1-1.2-1.3,3.83,3.83,0,0,1-.5-1.9v-.1a4.48,4.48,0,0,1,.4-2,4.43,4.43,0,0,1,1.2-1.5,7.68,7.68,0,0,1,1.8-1,7.8,7.8,0,0,1,2.2-.3,10.47,10.47,0,0,1,3,.5,12,12,0,0,1,2.8,1.3l-1.4,2.6a12,12,0,0,0-2.3-1.1,6,6,0,0,0-2.2-.4,3.41,3.41,0,0,0-1.6.4,1.38,1.38,0,0,0-.6,1.1v.1a.91.91,0,0,0,.3.7,5.55,5.55,0,0,0,.8.6,11.73,11.73,0,0,0,1.1.5,6.47,6.47,0,0,0,1.3.4c.6.2,1.2.4,1.7.6a5.07,5.07,0,0,1,1.6.9,4.89,4.89,0,0,1,1.2,1.3,3.45,3.45,0,0,1,.5,1.8v.1a5.09,5.09,0,0,1-.5,2.2,4.43,4.43,0,0,1-1.2,1.5,5.57,5.57,0,0,1-1.9.9A2.83,2.83,0,0,1,413.62,752.6Z"/><path class="cls-3" d="M428.62,752.5a9,9,0,0,1-1.8-.2,3.61,3.61,0,0,1-1.5-.8,5,5,0,0,1-1-1.4,4.89,4.89,0,0,1-.3-2.2v-8.3h-2v-3.1h2v-4.3h3.7v4.3H432v3.1h-4.3v7.8a2.07,2.07,0,0,0,.5,1.5,2,2,0,0,0,1.4.5,5.45,5.45,0,0,0,2.2-.5v3a4.71,4.71,0,0,1-1.5.6Z"/></g><circle class="cls-3" cx="364.92" cy="665.1" r="41.8"/><path class="cls-6" d="M389.62,680.7c0-.4-.1-.8-.1-1.3h0c-.2-2.3-.3-4.7-.3-7a5.44,5.44,0,0,0-1.5-3.9,5.07,5.07,0,0,0-3-1.5,9.93,9.93,0,0,0-7.4-9.2,3.9,3.9,0,0,1-2-1.3,9.9,9.9,0,0,0-9.7-3.7v-4.5a2.87,2.87,0,0,0,1.8.7h2.4a5.38,5.38,0,0,0,5.4-5.4h0v-2.4a3,3,0,0,0-3-3h-2.4a5.38,5.38,0,0,0-5.4,5.4h0v1.5a5.26,5.26,0,0,0-4.2-2.1h-2.4a3,3,0,0,0-3,3v2.4a5.38,5.38,0,0,0,5.4,5.4h2.6a10.93,10.93,0,0,0-3,2.3,4.65,4.65,0,0,1-2.1,1.3.57.57,0,0,0-.4.7c0,.2.1.3.3.4a.75.75,0,0,0,.5.1,6.24,6.24,0,0,0,2.8-1.7,8.89,8.89,0,0,1,12.6-.8,12,12,0,0,1,1.1,1.2,5.84,5.84,0,0,0,2.6,1.8,8.74,8.74,0,0,1,6.5,8h-37a9,9,0,0,1,8.9-8.4.6.6,0,0,0,0-1.2,10.13,10.13,0,0,0-10.1,9.7,5.72,5.72,0,0,0-3,1.5,5.05,5.05,0,0,0-1.5,3.9c0,2.3-.1,4.7-.3,7,0,.4-.1.9-.1,1.3h0a10.14,10.14,0,0,0,8.9,11.3c.4,0,.8.1,1.2.1h29.2a10.08,10.08,0,0,0,8.8-5.1.57.57,0,1,0-.8-.8.31.31,0,0,0-.1.2,9,9,0,0,1-7.8,4.5h-29.2a9,9,0,0,1-9-9,3.4,3.4,0,0,1,.1-1,2,2,0,0,1,.1-.7,119.42,119.42,0,0,0,46.9,0,2,2,0,0,0,.1.7,9.2,9.2,0,0,1-.2,3.3.57.57,0,1,0,1.1.3,24.15,24.15,0,0,0-.3-4Zm-24.1-37.2a4.23,4.23,0,0,1,4.2-4.2h2.4a1.79,1.79,0,0,1,1.8,1.8h0v2.4a4.23,4.23,0,0,1-4.2,4.2h-2.4a2.35,2.35,0,0,1-.8-.2l3.6-3.6h0a.57.57,0,1,0-.8-.8h0l-3.6,3.6a1.88,1.88,0,0,1-.2-.8Zm-5.4,9a4.23,4.23,0,0,1-4.2-4.2v-2.4a1.79,1.79,0,0,1,1.8-1.8h2.4a4.23,4.23,0,0,1,4.2,4.2h0v2.4a2.35,2.35,0,0,1-.2.8l-3.6-3.6a.57.57,0,1,0-.8.8h0l3.6,3.6h0a1.88,1.88,0,0,1-.8.2ZM341.62,679c.1-1.2.2-2.5.2-3.7h20.7a.6.6,0,1,0,0-1.2h-20.7v-1.7a4.23,4.23,0,0,1,1.2-3,3.85,3.85,0,0,1,3-1.2h37.8a4.1,4.1,0,0,1,4.2,4.2v1.7h-23.1a.6.6,0,1,0,0,1.2H388c0,1.2.1,2.5.2,3.7A121.77,121.77,0,0,1,341.62,679Z"/><path class="cls-6" d="M350.32,692.5a4.87,4.87,0,0,1-1.2-.1,10.66,10.66,0,0,1-9.3-11.8.6.6,0,0,1,.1-.4c0-.3.1-.6.1-.8.2-2.3.3-4.7.3-7a6.31,6.31,0,0,1,1.7-4.3,5.58,5.58,0,0,1,2.9-1.6,10.65,10.65,0,0,1,10.6-9.7,1.1,1.1,0,0,1,0,2.2,8.59,8.59,0,0,0-8.4,7.4H383a8.34,8.34,0,0,0-6.1-7,6.14,6.14,0,0,1-2.9-1.9,5.73,5.73,0,0,0-1.1-1.1,8.46,8.46,0,0,0-11.9.7,5.8,5.8,0,0,1-3,1.8,1.06,1.06,0,0,1-.8-.1c-.3-.2-.5-.4-.5-.7a1.07,1.07,0,0,1,.8-1.3,3.87,3.87,0,0,0,1.9-1.2c.5-.5,1-1,1.6-1.5h-.8a5.85,5.85,0,0,1-5.9-5.9v-2.4a3.54,3.54,0,0,1,3.5-3.5h2.4a5.49,5.49,0,0,1,3.7,1.4v-.2a5.85,5.85,0,0,1,5.9-5.9h2.4a3.54,3.54,0,0,1,3.5,3.5v2.4a5.85,5.85,0,0,1-5.9,5.9h-2.4a2.77,2.77,0,0,1-1.3-.3v3a10.18,10.18,0,0,1,9.6,4,3,3,0,0,0,1.7,1.2,10.68,10.68,0,0,1,7.8,9.3,5.58,5.58,0,0,1,2.9,1.6,6.13,6.13,0,0,1,1.7,4.3q0,3.45.3,6.9c0,.3.1.6.1.8h0l.1.4a8.64,8.64,0,0,1-.3,3.9,1.17,1.17,0,0,1-1.3.8,1.11,1.11,0,0,1-.8-1.3,8.13,8.13,0,0,0,.2-3.1v-.1a122.7,122.7,0,0,1-46,0v.1c0,.4-.1.7-.1,1a8.49,8.49,0,0,0,8.5,8.5h29.2a8.44,8.44,0,0,0,7.3-4.2c.1-.1.1-.3.2-.4a1.14,1.14,0,0,1,1.7,1.5,10.58,10.58,0,0,1-9.2,5.3h-29.4Zm5-34.7a9.52,9.52,0,0,0-9.6,9.2v.4l-.4.1a4.72,4.72,0,0,0-2.7,1.4,5,5,0,0,0-1.4,3.5c0,2.3-.1,4.7-.3,7.1a2.77,2.77,0,0,1-.1.9l-.1.4a9.67,9.67,0,0,0,8.5,10.7c.4,0,.8.1,1.1.1h29.2a9.79,9.79,0,0,0,8.4-4.8l.1-.1v-.1h-.1l-.1.1a9.49,9.49,0,0,1-8.2,4.7h-29.2a9.56,9.56,0,0,1-9.5-9.5,3.4,3.4,0,0,1,.1-1v-.6l.1-.6.5.1a118.41,118.41,0,0,0,46.7,0l.6-.1v1.1a8.68,8.68,0,0,1-.2,3.6.1.1,0,1,0,.2,0,10.88,10.88,0,0,0,.3-3.1l-.1-.4a5.7,5.7,0,0,1-.1-1.3c-.2-2.3-.3-4.7-.3-7.1a5,5,0,0,0-1.4-3.5,5.41,5.41,0,0,0-2.7-1.4l-.4-.1v-.4a9.71,9.71,0,0,0-7.1-8.8,5.13,5.13,0,0,1-2.3-1.5,9.35,9.35,0,0,0-9.2-3.5l-.6.1v-.2l-2.1,1a10.13,10.13,0,0,0-2.9,2.2,5.45,5.45,0,0,1-2.4,1.5.1.1,0,0,0-.1.1h0l.1.1a5,5,0,0,0,2.5-1.5,9.47,9.47,0,0,1,13.3-.9,15.38,15.38,0,0,1,1.2,1.3,4.61,4.61,0,0,0,2.3,1.6,9.63,9.63,0,0,1,6.9,8.4v.5h-38.1V667a9.65,9.65,0,0,1,9.4-8.9c.1,0,.1,0,.1-.1S355.42,657.8,355.32,657.8Zm4.8-14.4h-2.3a2.48,2.48,0,0,0-2.5,2.5v2.4a4.91,4.91,0,0,0,4.9,4.9h2.6l2.3-.2v-5.8l.8.7a4,4,0,0,0,1.5.6h2.4a4.91,4.91,0,0,0,4.9-4.9v-2.4a2.48,2.48,0,0,0-2.5-2.5h-2.4a4.91,4.91,0,0,0-4.9,4.9v2.9l-.9-1.2A5.08,5.08,0,0,0,360.12,643.4Zm4.8,38.3a122.93,122.93,0,0,1-23.4-2.3l-.4-.1v-.4c.1-1.2.2-2.4.2-3.7v-.5h21.2c.1,0,.1,0,.1-.1s0-.1-.1-.1h-21.2v-2.2a5.33,5.33,0,0,1,1.3-3.4,4.71,4.71,0,0,1,3.3-1.4h37.9a4.94,4.94,0,0,1,3.4,1.4,4.3,4.3,0,0,1,1.3,3.4v2.2h-23.6c-.1,0-.1,0-.1.1s0,.1.1.1h23.6v.5c0,1.2.1,2.5.2,3.7v.4l-.4.1A114.63,114.63,0,0,1,364.92,681.7Zm-22.8-3.1a120.59,120.59,0,0,0,45.6,0,26.35,26.35,0,0,1-.2-2.8h-22.6a1.1,1.1,0,0,1,0-2.2h22.6v-1.2a3.47,3.47,0,0,0-1.1-2.6,3.63,3.63,0,0,0-2.6-1.1H346a3.47,3.47,0,0,0-2.6,1.1,3.81,3.81,0,0,0-1.1,2.6v1.2h20.2a1.1,1.1,0,0,1,0,2.2h-20.2A26.35,26.35,0,0,1,342.12,678.6Zm20.4-25.6h-2.4a4.69,4.69,0,0,1-4.7-4.7v-2.4a2.26,2.26,0,0,1,2.3-2.3h2.4a4.69,4.69,0,0,1,4.7,4.7v2.4a3.55,3.55,0,0,1-.2,1l-.3.6-4.1-4h-.1v.1l4.1,4.1-.6.3A4.25,4.25,0,0,1,362.52,653Zm-2.4-1h2.1l-2.9-2.9a1.22,1.22,0,0,1,0-1.6,1.21,1.21,0,0,1,1.6,0l2.9,2.9v-2.1a3.76,3.76,0,0,0-3.7-3.7h-2.3a1.32,1.32,0,0,0-1.3,1.3v2.4A3.67,3.67,0,0,0,360.12,652Zm9.6-3.8h-2.4a3,3,0,0,1-1-.2l-.6-.3,4.1-4.1v-.1h-.1l-4.1,4.1-.3-.6a3,3,0,0,1-.2-1v-2.4a4.69,4.69,0,0,1,4.7-4.7h2.4a2,2,0,0,1,1.6.7,2.36,2.36,0,0,1,.7,1.6v2.4A4.83,4.83,0,0,1,369.72,648.2Zm0-5.8a1.14,1.14,0,0,1,.8.3,1.09,1.09,0,0,1,0,1.5l-2.9,2.9h2.1a3.76,3.76,0,0,0,3.7-3.7V641a1,1,0,0,0-.4-.9,1.49,1.49,0,0,0-.9-.4h-2.4a3.76,3.76,0,0,0-3.7,3.7v2.1l2.9-2.9A3.09,3.09,0,0,1,369.72,642.4Z"/><path class="cls-7" d="M474.62,849.3H255.32c-16,0-26,12-18,21.5L347,1031.9c8,9.6,28,9.6,36,0l109.7-161.1C500.62,861.3,490.62,849.3,474.62,849.3Z"/><path class="cls-3" d="M311.32,914.9h3.9l6.4,9.9,6.4-9.9h3.9v21h-3.7V920.8l-6.6,9.9h-.1l-6.6-9.8v15h-3.7v-21Z"/><path class="cls-3" d="M342.42,936.2a5.18,5.18,0,0,1-4.2-1.7,6.37,6.37,0,0,1-1.5-4.4V920h3.7v9a4.53,4.53,0,0,0,.9,2.9,3,3,0,0,0,2.5,1,3.54,3.54,0,0,0,2.6-1,3.83,3.83,0,0,0,1-2.9v-8.9h3.7v15.8h-3.7v-2.5a6.36,6.36,0,0,1-2,2A5,5,0,0,1,342.42,936.2Zm-3.2-21.7h3.7V918h-3.7Zm6,0h3.7V918h-3.7Z"/><path class="cls-3" d="M355.82,914h3.7v21.9h-3.7Z"/><path class="cls-3" d="M364.42,914h3.7v21.9h-3.7Z"/><path class="cls-3" d="M379.32,936.2a8.08,8.08,0,0,1-2.7-.5,7.17,7.17,0,0,1-3.9-4.2,8.34,8.34,0,0,1-.6-3.5v-.1a10.3,10.3,0,0,1,.6-3.5,8.69,8.69,0,0,1,1.6-2.6,7.76,7.76,0,0,1,2.4-1.6,6.46,6.46,0,0,1,2.7-.5,6.9,6.9,0,0,1,3.2.8,9.52,9.52,0,0,1,2.1,1.9v-8.5h3.7v21.9h-3.7v-2.6a8.83,8.83,0,0,1-2.2,2.1A6.2,6.2,0,0,1,379.32,936.2Zm.8-3.2a4.31,4.31,0,0,0,3.2-1.4,5.37,5.37,0,0,0,1-1.6,5.22,5.22,0,0,0,.4-2.1v-.1a5.22,5.22,0,0,0-.4-2.1,5.37,5.37,0,0,0-1-1.6,4,4,0,0,0-1.5-1,4.71,4.71,0,0,0-1.7-.4,5.66,5.66,0,0,0-1.8.3,6.53,6.53,0,0,0-1.5,1,5.37,5.37,0,0,0-1,1.6,7.79,7.79,0,0,0-.4,2.1v.1a5.22,5.22,0,0,0,.4,2.1,5.37,5.37,0,0,0,1,1.6,4,4,0,0,0,1.5,1,3.09,3.09,0,0,0,1.8.5Z"/><path class="cls-3" d="M400.12,936.2a8.66,8.66,0,0,1-3.2-.6,7.58,7.58,0,0,1-4.3-4.3,9.6,9.6,0,0,1-.6-3.3v-.1a8.66,8.66,0,0,1,.6-3.2,7.6,7.6,0,0,1,1.6-2.6,8.4,8.4,0,0,1,2.4-1.8,6.61,6.61,0,0,1,3.1-.6,7.54,7.54,0,0,1,3.3.7,7.21,7.21,0,0,1,2.4,1.9,8.67,8.67,0,0,1,1.4,2.7,12.57,12.57,0,0,1,.5,3.3v1h-11.7a4.81,4.81,0,0,0,1.5,3,5.21,5.21,0,0,0,5.3.5,9,9,0,0,0,2-1.4l2.1,1.9a11.33,11.33,0,0,1-2.7,2.2A9,9,0,0,1,400.12,936.2Zm3.6-9.4a7.49,7.49,0,0,0-.4-1.6,5.67,5.67,0,0,0-.8-1.3,3.45,3.45,0,0,0-1.2-.9,4.53,4.53,0,0,0-1.6-.3,3.78,3.78,0,0,0-2.8,1.2,4.82,4.82,0,0,0-1.3,3Z"/><path class="cls-3" d="M410.32,924.9h8.9v3.6h-8.9Z"/><path class="cls-3" d="M324.52,956h3.7v2.6a8.38,8.38,0,0,1,2.1-2.1,5.29,5.29,0,0,1,3.2-.8,8.08,8.08,0,0,1,2.7.5,7.47,7.47,0,0,1,4.1,4.2,8.34,8.34,0,0,1,.6,3.5v.1a10.3,10.3,0,0,1-.6,3.5,8.69,8.69,0,0,1-1.6,2.6,7.76,7.76,0,0,1-2.4,1.6,6.46,6.46,0,0,1-2.7.5,5.87,5.87,0,0,1-3.2-.8,8,8,0,0,1-2.1-2v7.3h-3.7Zm8.2,13a3.92,3.92,0,0,0,1.8-.4,4.51,4.51,0,0,0,1.4-1,5.37,5.37,0,0,0,1-1.6,7.79,7.79,0,0,0,.4-2.1v-.1a4.48,4.48,0,0,0-.4-2,5.37,5.37,0,0,0-1-1.6,4.31,4.31,0,0,0-3.2-1.4,5,5,0,0,0-3.3,1.4,5.37,5.37,0,0,0-1,1.6,5.22,5.22,0,0,0-.4,2.1v.1a5.22,5.22,0,0,0,.4,2.1,5.37,5.37,0,0,0,1,1.6,4.1,4.1,0,0,0,3.3,1.3Z"/><path class="cls-3" d="M352.12,972.2a8.29,8.29,0,0,1-3.4-.7,8.54,8.54,0,0,1-4.5-4.4,8.66,8.66,0,0,1-.6-3.2v-.1a8.66,8.66,0,0,1,.6-3.2,7.92,7.92,0,0,1,4.4-4.4,9.22,9.22,0,0,1,6.8-.1,8.26,8.26,0,0,1,5.1,7.6v.1a8.66,8.66,0,0,1-.6,3.2,7.8,7.8,0,0,1-4.5,4.4A6,6,0,0,1,352.12,972.2Zm.1-3.1a4.48,4.48,0,0,0,2-.4,4.18,4.18,0,0,0,1.5-1.1,5.37,5.37,0,0,0,1-1.6,6.28,6.28,0,0,0,.3-1.9V964a4.48,4.48,0,0,0-.4-2,5.37,5.37,0,0,0-1-1.6,4.18,4.18,0,0,0-1.5-1.1,5.26,5.26,0,0,0-3.9,0,4.18,4.18,0,0,0-1.5,1.1,8.64,8.64,0,0,0-1,1.6,6.45,6.45,0,0,0-.3,2v.1a4.48,4.48,0,0,0,.4,2,5.37,5.37,0,0,0,1,1.6,4.18,4.18,0,0,0,1.5,1.1A6.28,6.28,0,0,0,352.22,969.1Z"/><path class="cls-3" d="M364.32,956H368v2.5a8.7,8.7,0,0,1,.9-1.1,10.63,10.63,0,0,1,1.1-.9,3.51,3.51,0,0,1,1.4-.6,4.68,4.68,0,0,1,1.7-.2,4.86,4.86,0,0,1,4.1,1.7,6.37,6.37,0,0,1,1.5,4.4v10.1h-3.9v-9a4,4,0,0,0-.9-2.9,2.88,2.88,0,0,0-2.5-1,3.54,3.54,0,0,0-2.6,1,3.83,3.83,0,0,0-1,2.9v9h-3.7Z"/><path class="cls-3" d="M383,950.1h3.9v3.4H383Zm.1,5.9h3.7v15.8h-3.7Z"/><path class="cls-3" d="M398.82,972.2a8.66,8.66,0,0,1-3.2-.6,7.58,7.58,0,0,1-4.3-4.3,9.6,9.6,0,0,1-.6-3.3v-.1a8.66,8.66,0,0,1,.6-3.2,7.81,7.81,0,0,1,4.1-4.4,6.61,6.61,0,0,1,3.1-.6,7.54,7.54,0,0,1,3.3.7,7.21,7.21,0,0,1,2.4,1.9,8.67,8.67,0,0,1,1.4,2.7,12.57,12.57,0,0,1,.5,3.3v1h-11.7a4.42,4.42,0,0,0,4.6,4,4.56,4.56,0,0,0,2.3-.5,9,9,0,0,0,2-1.4l2.1,1.9a11.33,11.33,0,0,1-2.7,2.2A10.72,10.72,0,0,1,398.82,972.2Zm3.6-9.4a7.49,7.49,0,0,0-.4-1.6,5.67,5.67,0,0,0-.8-1.3,3.45,3.45,0,0,0-1.2-.9,4.15,4.15,0,0,0-1.6-.3,3.78,3.78,0,0,0-2.8,1.2,4.82,4.82,0,0,0-1.3,3Z"/><circle class="cls-3" cx="364.92" cy="849.4" r="41.8"/><path class="cls-7" d="M354.12,866a.8.8,0,0,0-1.1-.6,4,4,0,0,1-2.8-.4,4.14,4.14,0,0,1-1.7-2.2.85.85,0,0,0-.8-.7.78.78,0,0,0-.7.3,1.08,1.08,0,0,0-.2.8,5.34,5.34,0,0,0,6.6,3.8h0a.87.87,0,0,0,.6-.9A.1.1,0,0,0,354.12,866Zm10-.5a5.59,5.59,0,0,0-2.5-3.3,4.79,4.79,0,0,0-2-.7h-.8a6.75,6.75,0,0,0-1.4.2h0a1,1,0,0,0-.5.4.82.82,0,0,0-.1.7.8.8,0,0,0,1.1.6h0a3.51,3.51,0,0,1,2.8.4,3.72,3.72,0,0,1,1.7,2.2c0,.2.2.4.4.6a.88.88,0,0,0,.7.1,1,1,0,0,0,.5-.4,2.2,2.2,0,0,0,.1-.8Zm7-1.7a1.21,1.21,0,0,0-.5-.5,2.59,2.59,0,0,1-1.6-1.9,3.44,3.44,0,0,1,.5-2.6,1,1,0,0,0,.1-.9,1,1,0,0,0-1.2-.4l-.3.3a5.17,5.17,0,0,0-.8,4,4.62,4.62,0,0,0,2.5,3.1.6.6,0,0,0,.4.1h.3a.82.82,0,0,0,.5-.5c.2-.1.2-.4.1-.7Zm11-.4a.75.75,0,0,0-.7-.4.79.79,0,0,0-.8.5,3,3,0,0,1-1.9,1.6,3.44,3.44,0,0,1-2.6-.5.76.76,0,0,0-.5-.2h-.2c-.2,0-.4.2-.6.4a.82.82,0,0,0-.1.7c0,.2.2.4.4.6a5.17,5.17,0,0,0,4,.8,4.62,4.62,0,0,0,3.1-2.5c.1-.5.1-.8-.1-1Zm0,0a.75.75,0,0,0-.7-.4.79.79,0,0,0-.8.5,3,3,0,0,1-1.9,1.6,3.44,3.44,0,0,1-2.6-.5.76.76,0,0,0-.5-.2h-.2c-.2,0-.4.2-.6.4a.82.82,0,0,0-.1.7c0,.2.2.4.4.6a5.17,5.17,0,0,0,4,.8,4.62,4.62,0,0,0,3.1-2.5c.1-.5.1-.8-.1-1Zm-11.5,0a2.59,2.59,0,0,1-1.6-1.9,3.44,3.44,0,0,1,.5-2.6,1,1,0,0,0,.1-.9,1,1,0,0,0-1.2-.4l-.3.3a5.17,5.17,0,0,0-.8,4,4.62,4.62,0,0,0,2.5,3.1.6.6,0,0,0,.4.1h.3a.82.82,0,0,0,.5-.5.8.8,0,0,0-.4-1.2Zm-9.1-1.1a4.79,4.79,0,0,0-2-.7h-.8a6.75,6.75,0,0,0-1.4.2h0a1,1,0,0,0-.5.4.82.82,0,0,0-.1.7.8.8,0,0,0,1.1.6h0a3.51,3.51,0,0,1,2.8.4,3.72,3.72,0,0,1,1.7,2.2c0,.2.2.4.4.6a.88.88,0,0,0,.7.1,1,1,0,0,0,.5-.4,1.7,1.7,0,0,0,.1-.7,4.88,4.88,0,0,0-2.5-3.4Zm-8.6,3.1a4,4,0,0,1-2.8-.4,4.14,4.14,0,0,1-1.7-2.2.85.85,0,0,0-.8-.7.78.78,0,0,0-.7.3,1.08,1.08,0,0,0-.2.8,5.34,5.34,0,0,0,6.6,3.8h0a.87.87,0,0,0,.6-.9v-.2c0-.4-.4-.7-1-.5Zm38.8,3.4h-4a7.55,7.55,0,0,0-1.1-9,7.26,7.26,0,0,0-5.2-2.2h-.2a11,11,0,0,0,.2-1.8c0-.5-.1-1-.1-1.6L381,853c.2-.2.5-.3.7-.5a7.1,7.1,0,0,0,2.5-3.8c.8-2.7.7-5.3,2.5-7.5a1.42,1.42,0,0,0,.2-.6v-.2a.9.9,0,0,0-.6-.6,5.87,5.87,0,0,0-2.3-.4h-.5a11.77,11.77,0,0,0-6.9,2.6,8.79,8.79,0,0,0-3.1,5.5h-.9v-.1a7.83,7.83,0,0,0-7.5-3.8,6.72,6.72,0,0,0-2.8,1,7.15,7.15,0,0,0-3.4,4.4,10.27,10.27,0,0,0-2.4-.5,6.54,6.54,0,0,0-2.2-3c-2-1.6-4.2-2.3-5.5-4.5a.89.89,0,0,0-.8-.5h0a.71.71,0,0,0-.6.3,9.51,9.51,0,0,0-1.4,8.9,7.67,7.67,0,0,0,1.9,3.1,8.47,8.47,0,0,0-1.4,3.4c-.1.4-.1.9-.2,1.3a7.5,7.5,0,0,0-2.8,1.8,7.58,7.58,0,0,0-1.1,9.2h-4a.9.9,0,0,0,0,1.8H392a.9.9,0,0,0,.9-.9c0-.5-.7-.6-1.2-.6Zm-14-25.4a9.77,9.77,0,0,1,6.2-2.2,1.27,1.27,0,0,1,.6.1c-1.4,2.4-1.5,5-2,6.9a6.14,6.14,0,0,1-1.9,2.9,9.33,9.33,0,0,1-3.9,1.5l.4-.5c1.5-1.9,3.2-4,3.9-6.5v-.2a1.27,1.27,0,0,0-.1-.6,1,1,0,0,0-.7-.4,1,1,0,0,0-.9.7c-.5,2-2.1,3.9-3.6,5.9-.1.1-.1.2-.2.3-.9-3.7.3-6.2,2.2-7.9Zm-30.2,5.9a8.88,8.88,0,0,1,.4-6.2c1.6,1.9,3.7,2.8,5,3.9a4.36,4.36,0,0,1,1.7,2.5,10.28,10.28,0,0,1,0,3.5l-.2-.2a16.8,16.8,0,0,0-4.2-5.4,1.69,1.69,0,0,0-.5-.2h0a.87.87,0,0,0-.8.6.91.91,0,0,0,.3,1c1.5,1.1,2.6,3,3.7,4.9a.1.1,0,0,0,.1.1,7,7,0,0,1-5.5-4.5Zm38,19.5h-41.2a6,6,0,0,1,.2-8,5.7,5.7,0,0,1,8.1-.1.1.1,0,0,1,.1.1.86.86,0,0,0,.6.3,1.07,1.07,0,0,0,.6-.2.86.86,0,0,0,.3-.6.71.71,0,0,0-.3-.6,7.49,7.49,0,0,0-5.3-2.2h-.7a1.27,1.27,0,0,1,.1-.6,8.49,8.49,0,0,1,1.1-2.6,10.32,10.32,0,0,0,5.4,1.6,7,7,0,0,0,3.1,2.6.85.85,0,0,0,.7,0,1.21,1.21,0,0,0,.5-.5.85.85,0,0,0,0-.7,1.21,1.21,0,0,0-.5-.5,5.26,5.26,0,0,1-2-1.6h0a14.15,14.15,0,0,0,.5-4.6,7.69,7.69,0,0,1,4.5,2.2,7.87,7.87,0,0,1,2.3,5.6,8.75,8.75,0,0,1-.2,1.6v.2a.9.9,0,0,0,.1.5.92.92,0,0,0,.6.4,1.7,1.7,0,0,0,.7-.1c.2-.1.3-.4.4-.6a9.55,9.55,0,0,0-2.6-8.8,8.34,8.34,0,0,0-2.1-1.6h0a5.65,5.65,0,0,1,2.7-3.5,6.11,6.11,0,0,1,3-.8h0a6.75,6.75,0,0,1,1.4.2,6.43,6.43,0,0,1,3.3,2.3,7.89,7.89,0,0,0-3.1,2,.86.86,0,0,0-.3.6.9.9,0,0,0,.9.9h0a.71.71,0,0,0,.6-.3,6.36,6.36,0,0,1,4.5-1.9,12.8,12.8,0,0,0,.7,3.9,7.6,7.6,0,0,0-1.4,4.3h0a.71.71,0,0,0,.3.6.91.91,0,0,0,1.2,0h0a.86.86,0,0,0,.3-.6,4.68,4.68,0,0,1,.9-2.8h.1a18,18,0,0,0,4-1c.1.2.1.5.2.8a4.87,4.87,0,0,1,.1,1.2,5.22,5.22,0,0,1-.4,2.1,6.25,6.25,0,0,0-3.1,1.9.86.86,0,0,0-.3.6.71.71,0,0,0,.3.6.86.86,0,0,0,.6.3.71.71,0,0,0,.6-.3,5.52,5.52,0,0,1,7.8-.1l.1.1a5.59,5.59,0,0,1,.2,7.7Zm-4.1-5.8a.79.79,0,0,0-.8.5,3,3,0,0,1-1.9,1.6,3.44,3.44,0,0,1-2.6-.5.76.76,0,0,0-.5-.2h-.2c-.2,0-.4.2-.6.4a.82.82,0,0,0-.1.7c0,.2.2.4.4.6a5.17,5.17,0,0,0,4,.8,4.62,4.62,0,0,0,3.1-2.5.6.6,0,0,0,0-.8c-.2-.5-.4-.7-.8-.6Zm-10.8.4a2.59,2.59,0,0,1-1.6-1.9,3.44,3.44,0,0,1,.5-2.6,1,1,0,0,0,.1-.9,1,1,0,0,0-1.2-.4l-.3.3a5.17,5.17,0,0,0-.8,4,4.62,4.62,0,0,0,2.5,3.1.6.6,0,0,0,.4.1h.3a.82.82,0,0,0,.5-.5,1,1,0,0,0-.4-1.2Zm-9.1-1.1a4.79,4.79,0,0,0-2-.7h-.8a6.75,6.75,0,0,0-1.4.2h0a1,1,0,0,0-.5.4.82.82,0,0,0-.1.7.8.8,0,0,0,1.1.6h0a3.51,3.51,0,0,1,2.8.4,3.72,3.72,0,0,1,1.7,2.2c0,.2.2.4.4.6a.88.88,0,0,0,.7.1,1,1,0,0,0,.5-.4,1.7,1.7,0,0,0,.1-.7,5.17,5.17,0,0,0-2.5-3.4Zm-8.6,3.1a4,4,0,0,1-2.8-.4,4.14,4.14,0,0,1-1.7-2.2.85.85,0,0,0-.8-.7.78.78,0,0,0-.7.3,1.08,1.08,0,0,0-.2.8,5.34,5.34,0,0,0,6.6,3.8h0a.87.87,0,0,0,.6-.9v-.2c0-.4-.4-.7-1-.5Zm1.1.6a.8.8,0,0,0-1.1-.6,4,4,0,0,1-2.8-.4,4.14,4.14,0,0,1-1.7-2.2.85.85,0,0,0-.8-.7.78.78,0,0,0-.7.3,1.08,1.08,0,0,0-.2.8,5.34,5.34,0,0,0,6.6,3.8h0a.87.87,0,0,0,.6-.9c.2,0,.2-.1.1-.1Zm10-.4a5.59,5.59,0,0,0-2.5-3.3,4.79,4.79,0,0,0-2-.7h-.8a6.75,6.75,0,0,0-1.4.2h0a1,1,0,0,0-.5.4.82.82,0,0,0-.1.7.8.8,0,0,0,1.1.6h0a3.51,3.51,0,0,1,2.8.4,3.72,3.72,0,0,1,1.7,2.2c0,.2.2.4.4.6a.88.88,0,0,0,.7.1,1,1,0,0,0,.5-.4c.2-.4.2-.6.1-.8Zm7-1.7a1.21,1.21,0,0,0-.5-.5,2.59,2.59,0,0,1-1.6-1.9,3.44,3.44,0,0,1,.5-2.6,1,1,0,0,0,.1-.9,1,1,0,0,0-1.2-.4l-.3.3a5.17,5.17,0,0,0-.8,4,4.62,4.62,0,0,0,2.5,3.1.6.6,0,0,0,.4.1h.3a.82.82,0,0,0,.5-.5.75.75,0,0,0,.1-.8Zm11.1-.5a.75.75,0,0,0-.7-.4.79.79,0,0,0-.8.5,3,3,0,0,1-1.9,1.6,3.44,3.44,0,0,1-2.6-.5.76.76,0,0,0-.5-.2h-.2c-.2,0-.4.2-.6.4a.82.82,0,0,0-.1.7c0,.2.2.4.4.6a5.17,5.17,0,0,0,4,.8,4.62,4.62,0,0,0,3.1-2.5,1.1,1.1,0,0,0-.1-1Zm-11.1.5a1.21,1.21,0,0,0-.5-.5,2.59,2.59,0,0,1-1.6-1.9,3.44,3.44,0,0,1,.5-2.6,1,1,0,0,0,.1-.9,1,1,0,0,0-1.2-.4l-.3.3a5.17,5.17,0,0,0-.8,4,4.62,4.62,0,0,0,2.5,3.1.6.6,0,0,0,.4.1h.3a.82.82,0,0,0,.5-.5.75.75,0,0,0,.1-.8Zm-7,1.7a5.59,5.59,0,0,0-2.5-3.3,4.79,4.79,0,0,0-2-.7h-.8a6.75,6.75,0,0,0-1.4.2h0a1,1,0,0,0-.5.4.82.82,0,0,0-.1.7.8.8,0,0,0,1.1.6h0a3.51,3.51,0,0,1,2.8.4,3.72,3.72,0,0,1,1.7,2.2c0,.2.2.4.4.6a.88.88,0,0,0,.7.1,1,1,0,0,0,.5-.4c.2-.4.2-.6.1-.8Zm-10,.4a.8.8,0,0,0-1.1-.6,4,4,0,0,1-2.8-.4,4.14,4.14,0,0,1-1.7-2.2.85.85,0,0,0-.8-.7.78.78,0,0,0-.7.3,1.08,1.08,0,0,0-.2.8,5.34,5.34,0,0,0,6.6,3.8h0a.87.87,0,0,0,.6-.9c.2,0,.2-.1.1-.1Zm28.1-2.6a.75.75,0,0,0-.7-.4.79.79,0,0,0-.8.5,3,3,0,0,1-1.9,1.6,3.44,3.44,0,0,1-2.6-.5.76.76,0,0,0-.5-.2h-.2c-.2,0-.4.2-.6.4a.82.82,0,0,0-.1.7c0,.2.2.4.4.6a5.17,5.17,0,0,0,4,.8,4.62,4.62,0,0,0,3.1-2.5,1.1,1.1,0,0,0-.1-1Z"/><g class="cls-2"><path d="M58.82,339.2l1.9,7.6a7.37,7.37,0,0,1,.3,2.9,5.64,5.64,0,0,1-.7,2.3,4.18,4.18,0,0,1-2.6,1.9h-.1a3.34,3.34,0,0,1-1.7.1,5.73,5.73,0,0,1-1.4-.4,4.44,4.44,0,0,1-1.1-.8,9,9,0,0,1-.9-1,9.85,9.85,0,0,1-.2,1.7,3.39,3.39,0,0,1-.6,1.5,4,4,0,0,1-1,1.2,4.77,4.77,0,0,1-1.6.8H49a5.52,5.52,0,0,1-2.2.1,6.63,6.63,0,0,1-1.9-.9,6.55,6.55,0,0,1-1.5-1.8,8.82,8.82,0,0,1-1-2.6l-2-7.9Zm-15,12.3a6,6,0,0,0,2,3.5,3.17,3.17,0,0,0,3.1.7H49a3.24,3.24,0,0,0,2.3-2.1,8.26,8.26,0,0,0-.1-4.4l-1.6-6.2-7.4,1.9Zm8.4-2.7a7.51,7.51,0,0,0,.7,1.8,4.73,4.73,0,0,0,1.1,1.3,3.69,3.69,0,0,0,1.4.7,3.34,3.34,0,0,0,1.7-.1h.1a3.6,3.6,0,0,0,2.2-1.8,5.42,5.42,0,0,0,.1-3.6l-1.6-6.2-7.3,1.8Z"/></g><g class="cls-2"><path d="M46.22,367.9a6.89,6.89,0,0,1,.8-5.1,8.6,8.6,0,0,1,1.8-2,6.6,6.6,0,0,1,2.7-1.2h.1a9,9,0,0,1,2.8-.2,6.68,6.68,0,0,1,2.5.8,7.83,7.83,0,0,1,2,1.6,5,5,0,0,1,1.2,2.4,6.16,6.16,0,0,1,.1,2.7,6.71,6.71,0,0,1-1,2.3,6.56,6.56,0,0,1-1.9,1.8,8.08,8.08,0,0,1-2.7,1.1c-.1,0-.2.1-.3.1H54l-2.8-11.1a7,7,0,0,0-2.1,1.1,4.84,4.84,0,0,0-1.3,1.6,6,6,0,0,0-.6,1.9,6.73,6.73,0,0,0,.1,2,5.94,5.94,0,0,0,1.3,2.5,10.8,10.8,0,0,0,2,1.6l-.6,1.1a8.76,8.76,0,0,1-2.4-1.9A12.94,12.94,0,0,1,46.22,367.9Zm8.8,2.6a5.08,5.08,0,0,0,1.8-.9,5.84,5.84,0,0,0,1.4-1.3,5.31,5.31,0,0,0,.8-1.7,5,5,0,0,0-1-3.9,4.43,4.43,0,0,0-1.5-1.2,6,6,0,0,0-1.9-.6,8.09,8.09,0,0,0-2.2,0Z"/></g><g class="cls-2"><path d="M61.82,371.8l.4,1.5-10.6,8.1,13.2,2.1.4,1.4-15-2.6-.3-1.1Z"/></g><g class="cls-2"><path d="M53.52,396.7a5.74,5.74,0,0,1-.1-2.9,6.91,6.91,0,0,1,1-2.5,8.6,8.6,0,0,1,1.8-2,8.23,8.23,0,0,1,2.5-1.2h.1a8.83,8.83,0,0,1,2.8-.2,6.22,6.22,0,0,1,2.6.9,9.09,9.09,0,0,1,2.1,1.8,7.07,7.07,0,0,1,1.3,2.6,5.74,5.74,0,0,1,.1,2.9,6.91,6.91,0,0,1-1,2.5,11.23,11.23,0,0,1-1.8,2,8.23,8.23,0,0,1-2.5,1.2h-.1a8.83,8.83,0,0,1-2.8.2,6.22,6.22,0,0,1-2.6-.9,9.09,9.09,0,0,1-2.1-1.8A5.81,5.81,0,0,1,53.52,396.7Zm1.2-.2a5.12,5.12,0,0,0,1,2.1,4.57,4.57,0,0,0,1.7,1.4,7.42,7.42,0,0,0,2.1.7,8.88,8.88,0,0,0,2.3-.1h.1a5.12,5.12,0,0,0,2.1-1,7.52,7.52,0,0,0,1.5-1.6,4.85,4.85,0,0,0,.8-2.1,6,6,0,0,0-.1-2.3,5.12,5.12,0,0,0-1-2.1,4.57,4.57,0,0,0-1.7-1.4,4.76,4.76,0,0,0-2.1-.7,6,6,0,0,0-2.3.2H59a5.12,5.12,0,0,0-2.1,1,7.52,7.52,0,0,0-1.5,1.6,4.85,4.85,0,0,0-.8,2.1A5.59,5.59,0,0,0,54.72,396.5Z"/></g><g class="cls-2"><path d="M69.82,403.9l.3,1.3-3.8,1a6,6,0,0,1,1.9.6,6.24,6.24,0,0,1,1.6,1,4.43,4.43,0,0,1,1.2,1.5,6.7,6.7,0,0,1,.7,1.8l-1.4.4v-.1a5.12,5.12,0,0,0-1-2.1,5.47,5.47,0,0,0-4.1-2.2,10.56,10.56,0,0,0-3,.2l-5.4,1.2-.3-1.3Z"/></g><g class="cls-2"><path d="M59.52,416.1l13.9,6.7-2.3-9.3,1.2-.3,2.8,11.2-.7.2-13.9-6.7,2.3,9.6-1.2.3-2.9-11.5Z"/><path d="M63.52,436.6a6.52,6.52,0,0,1-.2-2.4,4.79,4.79,0,0,1,.7-2,5.36,5.36,0,0,1,1.5-1.5,6.67,6.67,0,0,1,2.1-.9l8.2-2.1.3,1.3-7.9,2a4.65,4.65,0,0,0-3,1.9,4.49,4.49,0,0,0-.5,3.5,5.31,5.31,0,0,0,.8,1.7,4.07,4.07,0,0,0,1.4,1.2,4.78,4.78,0,0,0,1.8.6,6.89,6.89,0,0,0,2-.1l7.7-1.9.3,1.3-13.4,3.4-.3-1.3,2.5-.6a8.53,8.53,0,0,1-2.5-1.3A6.19,6.19,0,0,1,63.52,436.6Z"/><path d="M63.82,454.2a10.29,10.29,0,0,1,.5-6.7l1.2.5a9.21,9.21,0,0,0-.5,5.9,6.11,6.11,0,0,0,.9,2,3.76,3.76,0,0,0,1.4,1.4,5,5,0,0,0,4.2.5l1.9-.5a6.11,6.11,0,0,1-1.4-.7,6.42,6.42,0,0,1-1.3-1,6.89,6.89,0,0,1-1.1-1.3,7.51,7.51,0,0,1-.7-1.8,5.24,5.24,0,0,1-.1-2.5,9.68,9.68,0,0,1,.8-2.4,7.42,7.42,0,0,1,1.6-2,5.32,5.32,0,0,1,2.5-1.2h.1a6.67,6.67,0,0,1,2.8-.1,8.54,8.54,0,0,1,2.4.9,7.28,7.28,0,0,1,1.8,1.7,6.25,6.25,0,0,1,1,2.2A6.48,6.48,0,0,1,82,451a4.67,4.67,0,0,1-.3,1.7l-.6,1.5a14.63,14.63,0,0,1-.9,1.3l2.7-.7.3,1.3-11.3,2.8a8.61,8.61,0,0,1-2.7.2,6.31,6.31,0,0,1-2.3-.8,6.4,6.4,0,0,1-1.9-1.8A3.63,3.63,0,0,1,63.82,454.2Zm6.4-1.8a7.22,7.22,0,0,0,.9,2,5.36,5.36,0,0,0,1.5,1.5,4.55,4.55,0,0,0,1.9.8,4.16,4.16,0,0,0,2.2-.1h.1a4.72,4.72,0,0,0,2-1,5.5,5.5,0,0,0,1.3-1.7,6.64,6.64,0,0,0,.6-2,5,5,0,0,0-.2-2.1,6.63,6.63,0,0,0-.9-1.9,6.2,6.2,0,0,0-1.4-1.4,4.38,4.38,0,0,0-1.9-.7,5.52,5.52,0,0,0-2.2.1H74a6.11,6.11,0,0,0-2,.9,3.74,3.74,0,0,0-1.3,1.5,6,6,0,0,0-.6,1.9A5.37,5.37,0,0,0,70.22,452.4Z"/></g><g class="cls-2"><path d="M71.72,468.7a7.72,7.72,0,0,1-.2-1.5,2.5,2.5,0,0,1,.4-1.4,2.59,2.59,0,0,1,1-1.1,4.79,4.79,0,0,1,1.6-.7l8.7-2.2-.5-1.9,1.2-.3.5,1.9,4.3-1.1.3,1.3-4.3,1.1,1.2,4.7-1.2.3-1.2-4.7-8.6,2.2a2.19,2.19,0,0,0-1.8,1.3,3,3,0,0,0-.1,2.1l.3.9a2.36,2.36,0,0,0,.6.9l-1.2.3-.6-.9A4.23,4.23,0,0,1,71.72,468.7Z"/></g><g class="cls-2"><path d="M74.42,479.8a6.89,6.89,0,0,1,.8-5.1,8.6,8.6,0,0,1,1.8-2,6.6,6.6,0,0,1,2.7-1.2h.1a9,9,0,0,1,2.8-.2,6.68,6.68,0,0,1,2.5.8,7.83,7.83,0,0,1,2,1.6,5,5,0,0,1,1.2,2.4,6.16,6.16,0,0,1,.1,2.7,6.71,6.71,0,0,1-1,2.3,6.56,6.56,0,0,1-1.9,1.8,8.08,8.08,0,0,1-2.7,1.1c-.1,0-.2.1-.3.1h-.3L79.42,473a7,7,0,0,0-2.1,1.1,4.84,4.84,0,0,0-1.3,1.6,6,6,0,0,0-.6,1.9,6.73,6.73,0,0,0,.1,2,5.94,5.94,0,0,0,1.3,2.5,10.8,10.8,0,0,0,2,1.6l-.6,1.1a8.76,8.76,0,0,1-2.4-1.9A8.1,8.1,0,0,1,74.42,479.8Zm8.8,2.6a5.08,5.08,0,0,0,1.8-.9,5.84,5.84,0,0,0,1.4-1.3,5.31,5.31,0,0,0,.8-1.7,5,5,0,0,0-1-3.9,4.43,4.43,0,0,0-1.5-1.2,6,6,0,0,0-1.9-.6,8.09,8.09,0,0,0-2.2,0Z"/></g><g class="cls-2"><path d="M97.42,492.4l1.9,7.7a8.58,8.58,0,0,1,.3,3.1,6.68,6.68,0,0,1-.8,2.5,5.71,5.71,0,0,1-1.3,1.4,3.7,3.7,0,0,1-1.8.8h-.1a5.52,5.52,0,0,1-2.2.1,4.84,4.84,0,0,1-1.8-.7,5,5,0,0,1-1.5-1.4,12.81,12.81,0,0,1-1.1-2l-6.3,8-.4-1.7,6.1-7.8v-.1l-1.5-5.9-7.6,1.9-.3-1.4Zm-7.6,9.9a10.23,10.23,0,0,0,.8,2.1,6.39,6.39,0,0,0,1.3,1.5,4.81,4.81,0,0,0,1.6.8,6,6,0,0,0,1.9,0h.1a3.7,3.7,0,0,0,2.6-2.1,6.54,6.54,0,0,0,.1-4.2l-1.6-6.3-8.3,2.1Z"/></g><g class="cls-2"><path d="M84.72,520.8a6.89,6.89,0,0,1,.8-5.1,8.6,8.6,0,0,1,1.8-2,6.6,6.6,0,0,1,2.7-1.2h.1a9,9,0,0,1,2.8-.2,6.68,6.68,0,0,1,2.5.8,7.83,7.83,0,0,1,2,1.6,5,5,0,0,1,1.2,2.4,6.16,6.16,0,0,1,.1,2.7,6.71,6.71,0,0,1-1,2.3,6.56,6.56,0,0,1-1.9,1.8,8.08,8.08,0,0,1-2.7,1.1c-.1,0-.2.1-.3.1h-.3L89.72,514a7,7,0,0,0-2.1,1.1,4.84,4.84,0,0,0-1.3,1.6,6,6,0,0,0-.6,1.9,6.73,6.73,0,0,0,.1,2,5.94,5.94,0,0,0,1.3,2.5,10.8,10.8,0,0,0,2,1.6l-.6,1.1a8.76,8.76,0,0,1-2.4-1.9A9.94,9.94,0,0,1,84.72,520.8Zm8.8,2.6a5.08,5.08,0,0,0,1.8-.9,5.84,5.84,0,0,0,1.4-1.3,5.31,5.31,0,0,0,.8-1.7,5,5,0,0,0-1-3.9,4.43,4.43,0,0,0-1.5-1.2,6,6,0,0,0-1.9-.6,8.09,8.09,0,0,0-2.2,0Z"/><path d="M100.82,527l.3,1.3-13.3,3.3-.3-1.3Zm5.2-1.5.4,1.6-1.8.4-.4-1.6Z"/><path d="M108.12,531.6l.3,1.3-8.2,2.1a8.53,8.53,0,0,1,2.5,1.3,5.47,5.47,0,0,1,1.6,2.8,6.52,6.52,0,0,1,.2,2.4,4.79,4.79,0,0,1-.7,2,5.36,5.36,0,0,1-1.5,1.5,6.67,6.67,0,0,1-2.1.9L92,548l-.3-1.3,7.9-2a4.65,4.65,0,0,0,3-1.9,4.74,4.74,0,0,0-.3-5.2,4.07,4.07,0,0,0-1.4-1.2,4.78,4.78,0,0,0-1.8-.6,6.89,6.89,0,0,0-2,.1l-7.7,1.9-.3-1.3Z"/><path d="M94.12,558a6.89,6.89,0,0,1,.8-5.1,8.6,8.6,0,0,1,1.8-2,6.6,6.6,0,0,1,2.7-1.2h.1a9,9,0,0,1,2.8-.2,6.68,6.68,0,0,1,2.5.8,7.83,7.83,0,0,1,2,1.6,5,5,0,0,1,1.2,2.4,6.16,6.16,0,0,1,.1,2.7,6.71,6.71,0,0,1-1,2.3,6.56,6.56,0,0,1-1.9,1.8,8.08,8.08,0,0,1-2.7,1.1c-.1,0-.2.1-.3.1h-.3l-2.8-11.1a7,7,0,0,0-2.1,1.1,4.84,4.84,0,0,0-1.3,1.6,6,6,0,0,0-.6,1.9,6.73,6.73,0,0,0,.1,2,5.94,5.94,0,0,0,1.3,2.5,10.8,10.8,0,0,0,2,1.6l-.6,1.1a8.76,8.76,0,0,1-2.4-1.9A9.78,9.78,0,0,1,94.12,558Zm8.7,2.6a5.08,5.08,0,0,0,1.8-.9,5.84,5.84,0,0,0,1.4-1.3,5.31,5.31,0,0,0,.8-1.7,5,5,0,0,0-.1-2.1,5.08,5.08,0,0,0-.9-1.8,4.43,4.43,0,0,0-1.5-1.2,6,6,0,0,0-1.9-.6,8.09,8.09,0,0,0-2.2,0Z"/><path d="M110.12,563.9l.3,1.3-2.5.6a8.53,8.53,0,0,1,2.5,1.3,5.47,5.47,0,0,1,1.6,2.8,6.52,6.52,0,0,1,.2,2.4,4.79,4.79,0,0,1-.7,2,5.36,5.36,0,0,1-1.5,1.5,6.67,6.67,0,0,1-2.1.9l-8.2,2.1-.3-1.3,7.9-2a4.65,4.65,0,0,0,3-1.9,4.74,4.74,0,0,0-.3-5.2,4.07,4.07,0,0,0-1.4-1.2,4.78,4.78,0,0,0-1.8-.6,6.89,6.89,0,0,0-2,.1l-7.7,1.9-.3-1.3Z"/></g><g class="cls-2"><path d="M113.12,580.7l-.5-1.9,1.2-.3.5,1.9,1.3-.3a4.84,4.84,0,0,1,3.8.3,3.93,3.93,0,0,1,1.8,2.5,5.16,5.16,0,0,1,.2,1.1v1l-1.2.3v-1.1a4.4,4.4,0,0,0-.2-1c-.5-1.8-1.8-2.4-4.1-1.8l-1.3.3,1.2,4.7-1.2.3-1.2-4.7-12.2,3.1-.3-1.3Z"/></g><g class="cls-2"><path d="M104.12,597.9a5.74,5.74,0,0,1-.1-2.9,6.91,6.91,0,0,1,1-2.5,8.6,8.6,0,0,1,1.8-2,8.23,8.23,0,0,1,2.5-1.2h.1a8.83,8.83,0,0,1,2.8-.2,6.22,6.22,0,0,1,2.6.9,9.09,9.09,0,0,1,2.1,1.8,7.07,7.07,0,0,1,1.3,2.6,5.74,5.74,0,0,1,.1,2.9,6.91,6.91,0,0,1-1,2.5,11.23,11.23,0,0,1-1.8,2A8.23,8.23,0,0,1,113,603h-.1a8.83,8.83,0,0,1-2.8.2,6.22,6.22,0,0,1-2.6-.9,9.09,9.09,0,0,1-2.1-1.8A7.07,7.07,0,0,1,104.12,597.9Zm1.3-.2a5.12,5.12,0,0,0,1,2.1,4.57,4.57,0,0,0,1.7,1.4,7.42,7.42,0,0,0,2.1.7,8.88,8.88,0,0,0,2.3-.1h.1a5.12,5.12,0,0,0,2.1-1,7.52,7.52,0,0,0,1.5-1.6,4.85,4.85,0,0,0,.8-2.1,6,6,0,0,0-.1-2.3,5.12,5.12,0,0,0-1-2.1,4.57,4.57,0,0,0-1.7-1.4,4.76,4.76,0,0,0-2.1-.7,6,6,0,0,0-2.3.2h-.1a5.12,5.12,0,0,0-2.1,1,7.52,7.52,0,0,0-1.5,1.6,4.85,4.85,0,0,0-.8,2.1A5.59,5.59,0,0,0,105.42,597.7Z"/><path d="M126.32,603.8l.3,1.3-19.1,4.8-.3-1.3Z"/><path d="M105.92,621.7a10.29,10.29,0,0,1,.5-6.7l1.2.5a9.21,9.21,0,0,0-.5,5.9,6.11,6.11,0,0,0,.9,2,3.76,3.76,0,0,0,1.4,1.4,4.38,4.38,0,0,0,1.9.7,6.17,6.17,0,0,0,2.3-.2l1.9-.5a6.11,6.11,0,0,1-1.4-.7,6.42,6.42,0,0,1-1.3-1,6.89,6.89,0,0,1-1.1-1.3,7.51,7.51,0,0,1-.7-1.8,5.24,5.24,0,0,1-.1-2.5,9.68,9.68,0,0,1,.8-2.4,7.42,7.42,0,0,1,1.6-2,5.32,5.32,0,0,1,2.5-1.2h.1a6.67,6.67,0,0,1,2.8-.1,8.54,8.54,0,0,1,2.4.9,7.28,7.28,0,0,1,1.8,1.7,6.25,6.25,0,0,1,1,2.2,6.48,6.48,0,0,1,.2,1.9,4.67,4.67,0,0,1-.3,1.7l-.6,1.5a14.63,14.63,0,0,1-.9,1.3l2.7-.7.3,1.3L114,626.4a8.61,8.61,0,0,1-2.7.2,6.31,6.31,0,0,1-2.3-.8,6.4,6.4,0,0,1-1.9-1.8A5.51,5.51,0,0,1,105.92,621.7Zm6.5-1.9a7.22,7.22,0,0,0,.9,2,5.36,5.36,0,0,0,1.5,1.5,4.55,4.55,0,0,0,1.9.8,4.16,4.16,0,0,0,2.2-.1h.1a4.72,4.72,0,0,0,2-1,5.5,5.5,0,0,0,1.3-1.7,7.62,7.62,0,0,0,.6-2,5,5,0,0,0-.2-2.1,6.63,6.63,0,0,0-.9-1.9,6.2,6.2,0,0,0-1.4-1.4,4.38,4.38,0,0,0-1.9-.7,5.52,5.52,0,0,0-2.2.1h-.1a6.11,6.11,0,0,0-2,.9,3.74,3.74,0,0,0-1.3,1.5,6,6,0,0,0-.6,1.9A4,4,0,0,0,112.42,619.8Z"/><path d="M114.12,637.5a6.89,6.89,0,0,1,.8-5.1,8.6,8.6,0,0,1,1.8-2,6.6,6.6,0,0,1,2.7-1.2h.1a9,9,0,0,1,2.8-.2,6.68,6.68,0,0,1,2.5.8,7.83,7.83,0,0,1,2,1.6,5,5,0,0,1,1.2,2.4,6.16,6.16,0,0,1,.1,2.7,6.71,6.71,0,0,1-1,2.3,6.56,6.56,0,0,1-1.9,1.8,8.08,8.08,0,0,1-2.7,1.1c-.1,0-.2.1-.3.1h-.3l-2.8-11.1a7,7,0,0,0-2.1,1.1,4.84,4.84,0,0,0-1.3,1.6,6,6,0,0,0-.6,1.9,6.73,6.73,0,0,0,.1,2,5.94,5.94,0,0,0,1.3,2.5,10.8,10.8,0,0,0,2,1.6l-.6,1.1a8.76,8.76,0,0,1-2.4-1.9A8.1,8.1,0,0,1,114.12,637.5Zm8.8,2.6a5.08,5.08,0,0,0,1.8-.9,5.84,5.84,0,0,0,1.4-1.3,5.31,5.31,0,0,0,.8-1.7,5,5,0,0,0-.1-2.1,5.08,5.08,0,0,0-.9-1.8,4.43,4.43,0,0,0-1.5-1.2,6,6,0,0,0-1.9-.6,8.09,8.09,0,0,0-2.2,0Z"/></g><rect class="cls-8" x="126.53" y="16.69" width="2" height="1035.73" transform="translate(-126.77 47.38) rotate(-14.15)"/><path class="cls-8" d="M241.42,1025.9a1,1,0,0,1,1.4,0l11.1,10.5,4.8-14.5a1,1,0,1,1,1.9.7l-5.3,16a1.21,1.21,0,0,1-.7.7,1,1,0,0,1-.9-.2l-12.3-11.6a2.19,2.19,0,0,1-.3-.5A1,1,0,0,1,241.42,1025.9Z"/></g></g></svg>