<?xml version="1.0" encoding="UTF-8"?>
<svg xmlns="http://www.w3.org/2000/svg" viewBox="0 0 542.2 314.51">
  <defs>
    <style>
      .cls-1, .cls-2 {
        opacity: .3;
      }

      .cls-1, .cls-3 {
        fill: #606060;
      }

      .cls-4, .cls-5, .cls-6 {
        fill: #fff;
      }

      .cls-7 {
        fill: #c4d4e3;
      }

      .cls-8 {
        fill: #f6f6f6;
      }

      .cls-9, .cls-5, .cls-10 {
        opacity: .5;
      }

      .cls-11 {
        isolation: isolate;
      }

      .cls-12, .cls-13, .cls-6 {
        opacity: .2;
      }

      .cls-14 {
        fill: #c25f2d;
      }

      .cls-15, .cls-16, .cls-10 {
        fill: #adbbc8;
      }

      .cls-17 {
        fill: #aa411a;
      }

      .cls-13 {
        fill: #1d1d1b;
      }

      .cls-18 {
        mix-blend-mode: multiply;
        opacity: .15;
      }

      .cls-19 {
        fill: #ea9623;
      }

      .cls-16 {
        opacity: .75;
      }

      .cls-20 {
        fill: #466785;
      }

      .cls-21 {
        fill: #a2afbc;
      }

      .cls-22 {
        fill: #f9b233;
      }

      .cls-23 {
        fill: #9da9b5;
      }

      .cls-24 {
        fill: #f9c484;
      }

      .cls-25 {
        fill: #c2d2e0;
      }

      .cls-26 {
        fill: #2e4865;
      }
    </style>
  </defs>
  <g class="cls-11">
    <g id="Layer_2" data-name="Layer 2">
      <g id="Layer_1-2" data-name="Layer 1">
        <g>
          <g class="cls-18">
            <polygon class="cls-2" points="444.63 168.28 445.79 165.96 446.54 164.47 447.69 162.17 450.83 160.66 451.98 160.1 450.81 155.53 450.93 155.15 452.49 150.3 453.34 147.7 447.5 149.36 444.11 146.99 441.75 145.34 440.5 149.87 435.21 149.61 435.68 154.07 429.34 158.13 433.71 160.53 432.61 165.04 437.64 164.39 436.68 166.92 444.63 168.28"/>
            <g>
              <g>
                <path d="M364.74,275.33l-16.47,9.35,.37,.66c.21,.36,.68,.48,1.07,.26l15.08-8.56c.39-.22,.53-.69,.32-1.05l-.37-.66Z"/>
                <path d="M349.62,240.16l.71,6.23,.51,4.46,4.5,11.7,6.85,7.03,3.01,3.08c.68,1.2,.26,2.72-.94,3.4l-15.12,8.58c-1.2,.68-2.72,.26-3.4-.94l-1.11-3.12-2.26-6.29-4.09-6.32-1.49-6-4.09-5.76-2.2-4.54-2.03-4.19c-.46-1.31,.24-2.73,1.54-3.18l16.44-5.69c1.3-.45,2.72,.24,3.18,1.54Z"/>
                <polygon class="cls-12" points="353.93 272.91 348.58 271.86 346.04 275.62 344.62 280.58 342.37 274.28 338.28 267.96 336.79 261.96 332.7 256.2 330.5 251.67 335.06 254.87 339.52 254.93 339.79 263.14 344.69 270.08 348.72 267.79 353.93 272.91"/>
                <polygon class="cls-12" points="355.34 262.54 362.19 269.57 359.96 269.23 352.68 263.63 346.43 264.71 349.43 259.38 347.7 251.53 345.01 248.93 338.55 248.36 343.86 246.17 348.72 249.44 350.33 246.38 350.84 250.84 355.34 262.54"/>
                <path d="M343.72,244.83c-1.09,.62-2.29,1.17-3.57,1.63-4.79,1.74-10.18,2.04-11.19-.76-.67-1.85,1.02-4.13,4.53-6.12,1.09-.62,2.29-1.17,3.57-1.63,4.79-1.74,10.18-2.04,11.19,.76,.67,1.85-1.02,4.13-4.53,6.12Z"/>
                <path d="M347.35,239.04c.67,1.86-2.7,4.78-7.53,6.54-4.83,1.75-9.3,1.67-9.97-.18-.67-1.86,2.7-4.78,7.53-6.54,4.83-1.75,9.3-1.67,9.97,.18Z"/>
                <path d="M339.82,240.54c-.35,.08-.75,.36-.92,.64l-.8,1.32c-.17,.28-.06,.48,.26,.45l3.63-.26c.37-.03,.86-.34,1.06-.66l1.21-2.01c.2-.33,.01-.53-.4-.43l-4.04,.95Z"/>
                <g>
                  <path d="M333.12,243.05l1.73-2.21c.26-.33,.8-.58,1.18-.56l3.62,.28c.31,.02,.42,.25,.26,.53l-.82,1.39c-.19,.31-.62,.59-1,.64l-4.62,.56c-.49,.06-.65-.24-.34-.64Z"/>
                  <path d="M336.13,240.87l2.65,.2c.26,.02,.35,.21,.2,.45l-.34,.54c-.15,.25-.5,.47-.81,.5l-3.23,.37c-.38,.04-.52-.19-.29-.49l.83-1.1c.21-.28,.66-.49,.97-.47Z"/>
                  <polygon points="335.61 243.07 337.15 240.85 338.03 240.84 336.57 243.04 335.61 243.07"/>
                  <path d="M338.55,242.14c-.23,0-.31-.15-.19-.34,.12-.19,.39-.34,.61-.35,.22,0,.3,.14,.19,.33-.11,.19-.39,.35-.61,.36Z"/>
                </g>
              </g>
              <g>
                <path d="M145.62,274.71c-.17,1.47-.85,2.85-1.92,3.88-1.99,1.92-3.19,4.52-3.36,7.29l-.74,12.65,17.51,12.78,1.43-24.37c.16-2.77-.73-5.49-2.48-7.63-.95-1.14-1.46-2.59-1.46-4.08v-1.55s.02-7.27,.02-7.27l.02-7.63v-.42s.63-.45,.63-.45h0s-.34-4.02-.34-4.02h-.02c.22-.13,.39-.37,.4-.66v-.02c.03-.45-.3-.84-.72-.86l-6.3-.37c-.43-.03-.79,.32-.82,.77v.02c-.02,.29,.12,.54,.32,.7h-.02s-.81,3.94-.81,3.94h0s.57,.53,.57,.53l-.04,.42-.87,7.58-.83,7.23-.18,1.54Z"/>
                <g class="cls-9">
                  <path d="M147.21,271.83c-.1,.72-.19,1.45-.29,2.22-.05,.38-.1,.77-.15,1.16-.07,.38-.1,.73-.21,1.09-.19,.71-.47,1.43-.88,2.08-.21,.33-.42,.65-.68,.95-.12,.16-.26,.3-.4,.44l-.45,.47c-1.36,1.36-2.31,3.22-2.64,5.23-.14,1.05-.15,1.92-.21,2.84-.05,.91-.1,1.81-.14,2.69-.09,1.76-.17,3.46-.25,5.08-.05,1.16-.1,2.22-.14,3.3l1.3,.95c.1-1.32,.21-2.7,.31-4.16,.11-1.62,.22-3.32,.34-5.08,.06-.88,.11-1.78,.17-2.69,.06-.9,.09-1.87,.21-2.68,.28-1.68,1.06-3.24,2.18-4.39l.45-.48c.17-.17,.33-.34,.47-.53,.3-.36,.56-.76,.8-1.15,.47-.8,.79-1.66,.99-2.51,.12-.42,.16-.87,.21-1.27,.04-.39,.08-.78,.12-1.16,.07-.76,.15-1.51,.21-2.23,.13-1.44,.25-2.77,.36-4,.41-4.89,.56-7.93,.34-7.95-.22-.03-.76,2.97-1.47,7.82-.17,1.22-.36,2.55-.55,3.98Z"/>
                </g>
              </g>
              <path d="M406.81,313.15c-1.32-4.5-2.79-8.16-4.24-9.09-4.51-2.88-15.59-21.05-21.77-24.71-6.18-3.65-33.36-12.85-31.69-18.02,2.53-7.8-32.84-18.93-39.29-21.76-5.72-2.51-28.5-37.59-30.83-39.59-2.33-2-21.85,14.77-20.49,17.43,1.36,2.66-19.14,26.8-19.14,26.8l-23.62,12.27-2.66,30.99s-17,16.82-18.11,19.73c-.28,.75,.94,3.01,2.89,5.95h208.96Z"/>
              <path d="M149.24,313.15h44.72l11.06-5.93,31.56-19.75s21.77,20.36,23.12,19.73c1.35-.63,48.53-3.14,48.53-3.14l-11.56-40.11s-31.36-19.95-33.79-21.73c-2.43-1.77-22.34-18.38-22.34-18.38l-8.1,29.9-24.22-3.59-23.8,7.13-19.59-3.55-5.74,15.96-12.04,9.2-10.05,25.15,10.05,8.19,2.18,.89Z"/>
              <path d="M440.43,313.15l-5.98-20.74s-31.36-19.95-33.79-21.73c-2.43-1.77-22.34-18.38-22.34-18.38l-8.1,29.9-24.22-3.59-23.8,7.13-19.59-3.55-5.74,15.96-12.04,9.2-2.31,5.78h157.9Z"/>
              <polygon points="272.6 313.15 273.94 311.22 237.98 301.09 195.69 279.31 174.6 261.34 150.14 301.09 131.6 292.76 102.5 313.15 272.6 313.15"/>
              <path d="M305.39,313.15c-3.4-6.79-8.64-14.4-8.64-14.4l-8.69-25.9-27.7,6.45-16.36-6.45v-23.69l-23.9-13.98-12.86,22.91-11.26,28.55,1.71,26.51h107.7Z"/>
              <g>
                <path d="M214.43,265.1c.81,1.42,1.09,3.08,.8,4.68-.52,2.99,.1,6.07,1.74,8.63l7.53,11.69h23.79l-14.51-22.52c-1.65-2.56-4.2-4.4-7.14-5.16-1.58-.4-2.97-1.35-3.93-2.67l-1-1.37-4.69-6.46-4.92-6.78-.27-.37,.26-.8h0s-2.9-3.34-2.9-3.34h-.02c.11-.25,.11-.56-.07-.83h-.01c-.27-.43-.8-.56-1.2-.31l-5.82,3.75c-.39,.25-.5,.8-.23,1.21v.02c.18,.27,.46,.4,.75,.41h-.02s1.84,4.03,1.84,4.03h.01s.84,.1,.84,.1l.23,.4,4.14,7.28,3.94,6.94,.84,1.48Z"/>
                <g class="cls-9">
                  <path d="M213.98,261.52c.38,.7,.77,1.41,1.17,2.15,.2,.37,.41,.75,.61,1.13,.19,.38,.38,.71,.52,1.1,.3,.75,.51,1.57,.57,2.41,.03,.42,.04,.85,0,1.28,0,.22-.04,.43-.07,.65l-.1,.71c-.33,2.08,.04,4.34,1.04,6.34,.55,1.02,1.11,1.8,1.65,2.66,.55,.84,1.08,1.66,1.61,2.48,1.06,1.62,2.09,3.18,3.07,4.67,.7,1.06,1.35,2.03,2.01,3.01h1.77c-.76-1.24-1.56-2.52-2.42-3.89-.95-1.51-1.95-3.08-2.98-4.72-.52-.82-1.05-1.65-1.59-2.49-.53-.84-1.13-1.72-1.55-2.51-.84-1.67-1.16-3.55-.9-5.3l.09-.72c.03-.26,.07-.52,.07-.78,.03-.52,0-1.03-.04-1.54-.1-1.01-.37-1.98-.75-2.87-.17-.45-.43-.88-.64-1.27-.22-.37-.44-.74-.65-1.11-.43-.73-.85-1.43-1.25-2.11-.81-1.36-1.57-2.62-2.27-3.77-2.8-4.6-4.64-7.39-4.85-7.27-.21,.12,1.24,3.12,3.76,7.88,.64,1.19,1.33,2.49,2.08,3.88Z"/>
                </g>
              </g>
              <g>
                <path d="M393.22,300.55l1.4-3.09c1.26-2.77,1.42-5.91,.47-8.8-.52-1.54-.48-3.23,.11-4.75l.61-1.58,2.89-7.44,3.03-7.81,.17-.43,.81-.22h.01s1.23-4.24,1.23-4.24h-.02c.28-.06,.54-.23,.67-.52v-.02c.21-.45,.03-.97-.39-1.17l-6.31-2.86c-.43-.19-.94,.02-1.14,.47v.02c-.14,.29-.1,.6,.05,.84h-.02s-2.38,3.71-2.38,3.71h0s.37,.76,.37,.76l-.21,.41-3.88,7.42-3.69,7.08-.79,1.5c-.75,1.45-2,2.59-3.5,3.21-2.8,1.18-5.05,3.37-6.31,6.15l-5.15,11.35h21.96Z"/>
                <g class="cls-9">
                  <path d="M374.43,300.55s0-.01,0-.02c.75-1.61,1.54-3.31,2.35-5.06,.4-.88,.81-1.78,1.23-2.68,.42-.89,.83-1.88,1.27-2.67,.95-1.61,2.36-2.9,3.97-3.63l.65-.32c.24-.11,.47-.22,.69-.36,.45-.25,.87-.55,1.27-.87,.8-.63,1.46-1.38,2.01-2.18,.28-.39,.5-.83,.72-1.22,.2-.39,.39-.77,.58-1.14,.38-.75,.74-1.49,1.1-2.19,.7-1.42,1.35-2.74,1.94-3.95,2.35-4.85,3.7-7.9,3.48-8.01-.22-.11-1.95,2.74-4.58,7.44-.65,1.18-1.37,2.47-2.13,3.85-.38,.69-.77,1.41-1.17,2.15-.2,.37-.41,.75-.61,1.13-.22,.36-.39,.71-.64,1.03-.47,.66-1.04,1.28-1.72,1.79-.34,.25-.69,.5-1.07,.7-.18,.11-.38,.2-.58,.29l-.65,.3c-1.93,.85-3.63,2.39-4.76,4.31-.56,1.02-.91,1.91-1.34,2.83-.41,.91-.81,1.81-1.21,2.7-.78,1.77-1.54,3.48-2.26,5.11-.11,.24-.2,.45-.3,.68h1.77Z"/>
                </g>
              </g>
              <g>
                <polygon points="361.38 294.29 356.8 291.99 357.01 301.61 348.72 298.63 343.34 306.4 336.93 293.64 328.42 293.64 329.97 283.7 321.67 280.44 325.26 276.32 330.4 270.39 328.42 259.06 333.16 261.17 341.99 265.07 342.69 265.38 351.54 264.07 352.37 266.35 354.6 272.58 358.71 275.21 361.38 276.93 365.52 279.57 361.38 294.29"/>
                <polygon points="361.38 294.29 356.8 291.99 357.01 301.61 348.72 298.63 343.34 306.4 336.93 293.64 328.42 293.64 329.97 283.7 321.67 280.44 325.26 276.32 331.05 280.14 337.22 277.45 333.68 288.04 340.47 289.43 340.47 294.25 347.53 294.25 343.6 284.48 347.53 278.79 348.37 286.39 353.48 289.43 354.87 284.48 360.81 284.48 361.38 276.93 365.52 279.57 361.38 294.29"/>
                <polygon points="341.99 265.07 342.9 271.45 337.78 275.8 337.78 269.85 333.16 266.85 333.16 261.17 341.99 265.07"/>
                <path d="M351.59,279.05l1.84-7.86-6.92,3.52v-4.86s3.95-2.28,5.86-3.5l2.24,6.23,4.1,2.63-7.12,3.84Z"/>
              </g>
              <g>
                <polygon points="198.83 306.36 197.44 302.01 191.46 308.15 188.18 301.02 179.88 302.44 184 290.41 178.69 285 185.98 279.77 182.88 272.47 187.73 272.17 194.71 271.75 200.69 263.43 202.3 267.75 205.33 275.81 205.57 276.44 211.92 281.26 210.98 283.2 208.42 288.51 209.3 292.76 209.88 295.53 210.78 299.82 198.83 306.36"/>
                <polygon points="198.83 306.36 197.44 302.01 191.46 308.15 188.18 301.02 179.88 302.44 184 290.41 178.69 285 185.98 279.77 182.88 272.47 187.73 272.17 188.92 278.24 194.48 280.49 185.53 284.84 188.89 290.03 185.82 293.04 190.22 297.52 193.99 288.93 200.05 287.88 195.75 293.16 197 298.3 201.01 296.1 204.72 299.88 209.88 295.53 210.78 299.82 198.83 306.36"/>
                <polygon points="205.33 275.81 201.84 280.37 195.88 279.82 199.66 276.11 198.68 271.3 202.3 267.75 205.33 275.81"/>
                <path d="M202.42,290.63l6.15-3.73-6.56-2.21,3.09-3.03s3.91,1.09,5.88,1.55l-2.57,5.31,.89,4.25-6.89-2.13Z"/>
              </g>
              <g>
                <polygon points="271.06 271.58 272.32 266.61 262.97 268.89 264.09 260.15 255.35 256.57 266.44 247.57 264.61 239.26 274.65 238.63 276.04 229.83 280.84 232.44 287.74 236.19 298.38 231.82 297.34 236.89 295.42 246.36 295.28 247.11 298.45 255.48 296.4 256.77 290.8 260.3 289.12 264.87 288.02 267.84 286.32 272.46 271.06 271.58"/>
                <polygon class="cls-12" points="271.06 271.58 272.32 266.61 262.97 268.89 264.09 260.15 255.35 256.57 266.44 247.57 264.61 239.26 274.65 238.63 276.04 229.83 280.84 232.44 278.36 238.92 282.31 244.36 271.2 243.18 271.31 250.12 266.6 251.16 268.12 258.05 276.82 252.11 283.21 254.72 275.98 257.18 274.11 262.82 279.24 263.11 280.52 268.92 288.02 267.84 286.32 272.46 271.06 271.58"/>
                <polygon class="cls-12" points="295.42 246.36 289.39 248.63 284.04 244.56 289.85 243.28 291.78 238.12 297.34 236.89 295.42 246.36"/>
                <path class="cls-12" d="M283.83,258.74l8.07,.11-4.92-6.01,4.75-1.05s3.08,3.37,4.67,4.97l-5.6,3.52-1.68,4.57-5.28-6.13Z"/>
              </g>
              <path d="M356.5,313.15c-13.93-16.72-28.58-34.24-28.58-34.24l-19.69-43.73-4.91,14.99-20.42,16-8.96,21.3-31.05,14.68v11h113.61Z"/>
              <g>
                <path d="M290.97,293.69l-1.95,15.67-.62-.08c-.35-.04-.59-.37-.54-.74l1.78-14.35c.05-.37,.36-.63,.71-.59l.62,.08Z"/>
                <path d="M322.89,294.11l-5.02,1.44-3.6,1.03-10.44,.27-7.6-3.03-3.33-1.34c-1.14-.14-2.18,.67-2.32,1.81l-1.79,14.39c-.14,1.14,.67,2.18,1.81,2.32l2.76-.14,5.57-.27,6.18,1.14,5.09-.77,5.74,1.31,4.2,.25,3.87,.22c1.15-.06,2.03-1.05,1.95-2.2l-.86-14.47c-.07-1.15-1.05-2.02-2.2-1.95Z"/>
                <polygon class="cls-12" points="296.28 301.25 298.8 305.04 296.71 308.19 293.35 310.86 298.91 310.59 305.09 311.73 310.18 310.96 315.92 312.27 320.12 312.52 314.6 309.36 315.77 303.26 308.32 309.02 301.41 307.47 301.89 303.62 296.28 301.25"/>
                <polygon class="cls-12" points="303.82 296.85 296.22 293.82 297.19 295.43 303.83 299.25 303.42 303.01 308.16 299.54 312 302.59 313.25 298.69 316.48 299.54 319.59 304.88 318.51 298.05 317.86 295.56 314.27 296.58 303.82 296.85"/>
                <path d="M321.17,300.16c-.13,1.04-.17,2.14-.12,3.27,.19,4.25,1.68,8.49,4.15,8.38,1.64-.07,2.86-2.11,3.27-5.44,.13-1.04,.17-2.14,.12-3.27-.19-4.25-1.68-8.49-4.15-8.38-1.64,.07-2.86,2.11-3.27,5.44Z"/>
                <path d="M324.48,295.51c-1.64,.07-2.82,3.6-2.63,7.89,.19,4.28,1.68,7.69,3.32,7.62,1.64-.07,2.82-3.6,2.63-7.89-.19-4.28-1.68-7.69-3.32-7.62Z"/>
                <path d="M325.72,301.79c.05,.3-.04,.69-.2,.91l-.76,1.04c-.16,.22-.35,.2-.43-.05l-.96-2.88c-.1-.29-.02-.77,.17-1.03l1.16-1.58c.19-.26,.4-.18,.46,.17l.56,3.42Z"/>
                <g>
                  <path d="M325.92,307.75l1.15-2.04c.17-.3,.19-.81,.05-1.09l-1.37-2.7c-.12-.23-.33-.25-.49-.03l-.81,1.08c-.18,.24-.26,.67-.17,.98l1.04,3.73c.11,.4,.39,.43,.6,.06Z"/>
                  <path d="M326.64,304.74l-1-1.98c-.1-.19-.27-.2-.41-.01l-.31,.43c-.14,.2-.2,.54-.13,.79l.74,2.6c.09,.31,.31,.34,.47,.06l.58-.99c.15-.25,.17-.67,.05-.9Z"/>
                  <polygon points="325.12 305.84 326.33 303.95 326.06 303.26 324.83 305.09 325.12 305.84"/>
                  <path d="M324.89,303.28c.07,.18,.21,.19,.32,.04,.11-.15,.14-.41,.07-.58-.07-.17-.21-.19-.31-.04-.11,.15-.15,.41-.08,.59Z"/>
                </g>
              </g>
            </g>
          </g>
          <g>
            <path class="cls-1" d="M40.22,201.74c-.36,0-.66-.3-.66-.66,0-1.78,.02-3.55,.06-5.3,.01-.36,.33-.66,.68-.64,.36,0,.65,.31,.64,.68-.04,1.74-.06,3.49-.06,5.27,0,.36-.3,.66-.66,.66Zm.27-10.56h-.04c-.36-.02-.64-.34-.62-.7,.11-1.83,.25-3.61,.43-5.3,.04-.36,.37-.64,.72-.59,.36,.04,.63,.36,.59,.73-.17,1.66-.31,3.42-.42,5.23-.02,.35-.31,.62-.66,.62Zm1.13-10.5s-.07,0-.11,0c-.36-.06-.6-.4-.54-.76,.3-1.82,.66-3.57,1.07-5.22,.09-.35,.44-.59,.8-.48,.35,.09,.57,.44,.48,.8-.4,1.61-.75,3.33-1.05,5.12-.05,.32-.33,.55-.65,.55Zm2.57-10.22c-.07,0-.15-.01-.22-.04-.34-.12-.52-.5-.4-.84,.61-1.73,1.3-3.39,2.05-4.94,.16-.33,.56-.46,.88-.3,.33,.16,.46,.55,.3,.88-.73,1.51-1.4,3.12-1.99,4.8-.1,.27-.35,.44-.62,.44Zm4.62-9.46c-.13,0-.25-.04-.36-.11-.3-.2-.39-.61-.19-.91,.98-1.49,2.07-2.93,3.23-4.27,.24-.27,.66-.31,.93-.07,.27,.24,.3,.66,.07,.93-1.13,1.3-2.18,2.69-3.13,4.13-.13,.19-.34,.3-.55,.3Zm6.9-7.94c-.18,0-.36-.08-.5-.22-.24-.27-.22-.69,.06-.93,1.31-1.15,2.73-2.26,4.23-3.28,.3-.2,.71-.13,.92,.17,.2,.3,.13,.71-.17,.92-1.45,.99-2.83,2.06-4.1,3.18-.12,.11-.28,.17-.44,.17Zm8.67-5.96c-.23,0-.46-.13-.58-.35-.17-.32-.05-.72,.27-.89,1.51-.81,3.13-1.59,4.81-2.3,.33-.14,.72,.01,.87,.35,.14,.34-.01,.72-.35,.87-1.64,.7-3.22,1.46-4.7,2.25-.1,.05-.21,.08-.31,.08Zm9.69-4.14c-.28,0-.53-.17-.63-.45-.12-.35,.07-.72,.42-.84,1.62-.55,3.33-1.06,5.09-1.53,.36-.09,.71,.12,.81,.47,.09,.35-.11,.71-.47,.81-1.73,.46-3.42,.97-5.01,1.51-.07,.02-.14,.03-.21,.03Z"/>
            <path class="cls-1" d="M123.97,104.62c-.1,0-.2-.02-.3-.07-.33-.17-.45-.56-.28-.89,.83-1.62,1.68-3.19,2.53-4.67,.18-.32,.58-.43,.9-.25,.32,.18,.43,.58,.25,.9-.84,1.47-1.68,3.02-2.5,4.62-.12,.23-.35,.36-.59,.36Zm5.23-9.17c-.12,0-.24-.03-.35-.1-.31-.2-.4-.6-.2-.91,.97-1.52,1.97-3,2.98-4.41,.21-.3,.63-.36,.92-.15,.3,.21,.36,.63,.15,.92-.99,1.38-1.98,2.85-2.93,4.35-.13,.2-.34,.31-.56,.31Zm6.16-8.57c-.15,0-.3-.05-.42-.15-.28-.23-.32-.65-.09-.93,1.14-1.39,2.32-2.74,3.51-4.01,.25-.27,.67-.28,.93-.03,.27,.25,.28,.67,.03,.93-1.17,1.25-2.33,2.57-3.45,3.94-.13,.16-.32,.24-.51,.24Zm7.24-7.68c-.18,0-.36-.07-.49-.22-.25-.27-.23-.69,.04-.93,1.32-1.2,2.69-2.36,4.08-3.43,.28-.22,.7-.17,.93,.12,.22,.29,.17,.7-.12,.93-1.36,1.05-2.71,2.18-4,3.36-.13,.12-.29,.17-.44,.17Zm8.35-6.45c-.22,0-.43-.11-.55-.3-.2-.31-.11-.72,.2-.91,1.49-.96,3.04-1.87,4.6-2.7,.32-.17,.72-.05,.89,.28,.17,.32,.05,.72-.28,.89-1.53,.81-3.05,1.7-4.5,2.64-.11,.07-.23,.11-.36,.11Zm9.32-4.92c-.26,0-.5-.15-.61-.4-.14-.34,.02-.72,.35-.87,1.61-.68,3.3-1.3,5-1.86,.35-.11,.72,.08,.83,.42,.11,.35-.08,.72-.42,.83-1.67,.54-3.31,1.15-4.89,1.82-.08,.03-.17,.05-.26,.05Zm10.03-3.26c-.3,0-.57-.2-.64-.51-.08-.35,.14-.71,.49-.79,1.7-.4,3.46-.75,5.23-1.02,.35-.06,.7,.19,.75,.55,.06,.36-.19,.7-.55,.75-1.74,.27-3.46,.61-5.13,1-.05,.01-.1,.02-.15,.02Zm36.69-.07s-.08,0-.12-.01c-1.76-.32-3.5-.61-5.18-.84-.36-.05-.61-.38-.56-.75,.05-.36,.39-.6,.75-.56,1.7,.24,3.46,.52,5.24,.85,.36,.07,.6,.41,.53,.77-.06,.32-.34,.54-.65,.54Zm-10.46-1.46s-.04,0-.06,0c-1.76-.16-3.52-.27-5.24-.34-.36-.01-.65-.32-.63-.69,.02-.36,.28-.61,.69-.63,1.73,.07,3.52,.18,5.3,.35,.36,.03,.63,.35,.6,.72-.03,.34-.32,.6-.66,.6Zm-15.82-.12c-.34,0-.63-.26-.66-.6-.03-.36,.24-.68,.6-.71,1.72-.15,3.51-.24,5.31-.28,.41,.04,.67,.28,.67,.65,0,.36-.28,.67-.65,.67-1.77,.04-3.53,.13-5.23,.27-.02,0-.04,0-.06,0Z"/>
            <path class="cls-1" d="M233.94,37.76c-.36,0-.66-.3-.66-.66,0-1.73,.27-3.54,.8-5.38,.1-.35,.45-.56,.82-.45,.35,.1,.55,.47,.45,.82-.49,1.73-.75,3.41-.75,5.02,0,.36-.3,.66-.66,.66Zm2.75-10.08c-.1,0-.21-.02-.31-.07-.32-.17-.45-.57-.28-.89,.79-1.52,1.75-3.05,2.85-4.56,.22-.29,.63-.36,.92-.14,.29,.22,.36,.63,.14,.92-1.06,1.45-1.99,2.93-2.75,4.39-.12,.23-.35,.35-.59,.35Zm83.64-7.59c-.19,0-.39-.09-.52-.25-.81-1.02-1.65-2.01-2.5-2.95-.24-.27-.23-.69,.05-.93,.27-.24,.69-.23,.93,.05,.87,.96,1.73,1.97,2.56,3.01,.23,.28,.18,.7-.11,.93-.12,.1-.27,.14-.41,.14Zm-77.46-.95c-.16,0-.32-.06-.45-.18-.27-.25-.28-.67-.03-.93,1.19-1.27,2.48-2.52,3.85-3.71,.28-.24,.69-.21,.93,.07,.24,.28,.21,.69-.07,.93-1.34,1.16-2.6,2.37-3.76,3.61-.13,.14-.31,.21-.48,.21Zm71.21-5.77c-.16,0-.32-.06-.44-.17-1.3-1.18-2.65-2.29-4.03-3.3-.29-.22-.36-.63-.14-.92,.22-.3,.63-.35,.92-.14,1.41,1.04,2.81,2.18,4.14,3.39,.27,.25,.29,.66,.05,.93-.13,.14-.31,.22-.49,.22Zm-63.25-1.16c-.21,0-.41-.1-.54-.28-.21-.3-.14-.71,.15-.92,1.43-1.03,2.94-2,4.48-2.91,.31-.18,.72-.08,.9,.23,.19,.31,.08,.72-.23,.9-1.51,.89-2.98,1.85-4.38,2.85-.12,.08-.25,.12-.38,.12Zm54.74-5.06c-.11,0-.22-.03-.33-.09-1.5-.86-3.07-1.64-4.66-2.31-.34-.14-.49-.53-.35-.87,.14-.34,.52-.49,.87-.35,1.63,.69,3.25,1.49,4.8,2.38,.32,.18,.43,.58,.25,.9-.12,.21-.34,.33-.57,.33Zm-45.66-.31c-.25,0-.48-.14-.6-.38-.16-.33-.02-.72,.31-.88,1.6-.77,3.26-1.47,4.91-2.08,.35-.13,.72,.05,.85,.39,.13,.34-.05,.72-.39,.85-1.62,.6-3.24,1.29-4.81,2.04-.09,.04-.19,.06-.28,.06Zm9.88-3.68c-.29,0-.56-.19-.64-.49-.1-.35,.11-.71,.46-.81,1.73-.47,3.48-.86,5.22-1.15,.36-.05,.7,.18,.76,.54,.06,.36-.18,.7-.54,.76-1.69,.29-3.4,.66-5.09,1.12-.06,.02-.12,.02-.17,.02Zm26.07-.12c-.06,0-.12,0-.18-.03-1.65-.47-3.36-.85-5.07-1.13-.36-.06-.6-.4-.55-.76,.06-.36,.41-.61,.76-.55,1.77,.28,3.53,.68,5.23,1.17,.35,.1,.55,.47,.45,.82-.08,.29-.35,.48-.63,.48Zm-15.68-1.63c-.34,0-.63-.27-.66-.62-.02-.36,.25-.68,.62-.7,1.77-.12,3.55-.13,5.35-.06,.36,.02,.65,.32,.63,.69-.02,.36-.34,.59-.69,.63-1.75-.08-3.48-.06-5.21,.06-.01,0-.03,0-.04,0Z"/>
            <path class="cls-1" d="M396.61,116.24s-.09,0-.13-.01c-.36-.07-.59-.42-.51-.78,.27-1.31,.52-2.6,.74-3.85,.06-.36,.4-.61,.76-.54,.36,.06,.6,.41,.54,.76-.22,1.27-.47,2.57-.74,3.89-.06,.31-.34,.53-.65,.53Zm1.54-9.09s-.06,0-.09,0c-.36-.05-.62-.38-.57-.74,.23-1.77,.42-3.53,.55-5.22,.03-.36,.39-.66,.71-.61,.36,.03,.64,.34,.61,.71-.13,1.71-.32,3.49-.55,5.29-.04,.33-.33,.58-.65,.58Zm.79-10.53h-.01c-.36,0-.65-.31-.65-.67,0-.38,0-.76,0-1.13,0-1.4-.04-2.78-.12-4.1-.02-.36,.26-.68,.62-.7,.41-.04,.68,.26,.7,.62,.08,1.34,.12,2.75,.12,4.18,0,.38,0,.76,0,1.15,0,.36-.3,.65-.66,.65Zm-.65-10.52c-.32,0-.6-.23-.65-.56-.26-1.76-.61-3.48-1.04-5.1-.09-.35,.12-.71,.47-.81,.35-.09,.71,.12,.81,.47,.44,1.67,.8,3.43,1.07,5.24,.05,.36-.19,.7-.55,.75-.03,0-.07,0-.1,0Zm-2.71-10.17c-.26,0-.51-.15-.61-.41-.66-1.63-1.44-3.19-2.3-4.63-.19-.31-.08-.72,.23-.91,.31-.19,.72-.09,.91,.23,.89,1.5,1.7,3.12,2.38,4.81,.14,.34-.02,.72-.36,.86-.08,.03-.17,.05-.25,.05Zm-5.4-9.02c-.19,0-.37-.08-.5-.23-1.11-1.31-2.34-2.53-3.66-3.63-.28-.23-.32-.65-.08-.93,.24-.28,.65-.31,.93-.08,1.37,1.15,2.66,2.43,3.82,3.79,.24,.28,.2,.69-.08,.93-.12,.11-.28,.16-.43,.16Zm-8.05-6.75c-.11,0-.23-.03-.34-.09-1.44-.85-3.01-1.63-4.64-2.29-.34-.14-.5-.52-.36-.86,.14-.34,.52-.5,.86-.36,1.7,.69,3.32,1.49,4.82,2.38,.31,.19,.42,.59,.23,.91-.12,.21-.34,.32-.57,.32Zm-56.53-.49c-.28,0-.54-.18-.63-.46-.11-.35,.08-.72,.43-.83,1.67-.53,3.37-1.04,5.09-1.51,.36-.09,.71,.11,.81,.46,.1,.35-.11,.72-.46,.81-1.7,.47-3.39,.97-5.04,1.5-.07,.02-.13,.03-.2,.03Zm10.18-2.79c-.3,0-.57-.21-.64-.51-.08-.36,.14-.71,.5-.79,1.73-.39,3.48-.75,5.2-1.06,.35-.06,.7,.17,.77,.53,.06,.36-.17,.7-.53,.77-1.7,.31-3.43,.66-5.14,1.05-.05,.01-.1,.02-.15,.02Zm36.62-.73c-.06,0-.11,0-.17-.02-1.63-.44-3.34-.8-5.1-1.08-.36-.06-.6-.4-.55-.76,.06-.36,.39-.6,.76-.55,1.8,.29,3.56,.66,5.23,1.11,.35,.09,.56,.46,.47,.81-.08,.3-.35,.49-.64,.49Zm-26.22-1.13c-.33,0-.61-.24-.65-.58-.05-.36,.21-.69,.57-.74,1.78-.23,3.56-.4,5.29-.53,.33-.03,.68,.25,.71,.61,.03,.36-.25,.68-.61,.71-1.71,.12-3.46,.29-5.22,.52-.03,0-.06,0-.09,0Zm15.81-.56s-.03,0-.05,0c-1.57-.11-3.19-.16-4.82-.16h-.4c-.35,.06-.66-.29-.67-.65,0-.36,.29-.66,.65-.67h.42c1.66,0,3.31,.06,4.91,.17,.36,.03,.64,.34,.61,.7-.02,.35-.31,.61-.66,.61Z"/>
            <path class="cls-1" d="M471.69,201.05s-.08,0-.12-.01c-.36-.07-.59-.41-.53-.77,.33-1.74,.61-3.49,.86-5.18,.05-.36,.38-.62,.75-.56,.36,.05,.61,.39,.56,.75-.25,1.71-.54,3.47-.87,5.23-.06,.32-.34,.54-.65,.54Zm1.5-10.45s-.04,0-.06,0c-.36-.04-.63-.36-.59-.72,.17-1.76,.29-3.52,.36-5.23,.02-.36,.3-.65,.69-.63,.36,.02,.65,.32,.63,.69-.07,1.73-.2,3.51-.37,5.3-.03,.34-.32,.6-.66,.6Zm.42-10.54c-.36,0-.65-.29-.66-.65-.04-1.77-.13-3.53-.29-5.22-.03-.36,.23-.69,.6-.72,.36-.05,.68,.23,.72,.6,.16,1.73,.26,3.51,.3,5.32,0,.36-.28,.67-.65,.67h-.01Zm-.99-10.49c-.31,0-.59-.22-.65-.54-.31-1.74-.69-3.45-1.14-5.08-.1-.35,.11-.71,.46-.81,.35-.09,.72,.11,.81,.46,.46,1.67,.85,3.42,1.17,5.2,.06,.36-.18,.7-.53,.77-.04,0-.08,.01-.12,.01Zm-2.81-10.14c-.26,0-.51-.16-.61-.42-.64-1.63-1.37-3.21-2.17-4.72-.17-.32-.05-.72,.27-.89,.32-.17,.72-.05,.89,.27,.83,1.55,1.58,3.18,2.23,4.85,.13,.34-.03,.72-.37,.85-.08,.03-.16,.05-.24,.05Zm-4.96-9.28c-.21,0-.41-.1-.54-.28-.99-1.41-2.08-2.77-3.24-4.05-.24-.27-.22-.69,.05-.93,.27-.24,.69-.22,.93,.05,1.2,1.32,2.32,2.73,3.34,4.18,.21,.3,.14,.71-.16,.92-.11,.08-.25,.12-.38,.12Zm-7.06-7.8c-.15,0-.31-.05-.43-.16-1.28-1.12-2.67-2.19-4.11-3.18-.3-.21-.38-.62-.17-.92,.21-.31,.62-.38,.92-.17,1.49,1.02,2.91,2.12,4.23,3.27,.27,.24,.3,.66,.07,.93-.13,.15-.31,.23-.5,.23Zm-8.66-5.99c-.11,0-.22-.03-.32-.08-1.49-.82-3.06-1.59-4.69-2.3-.33-.15-.49-.54-.34-.87,.15-.33,.54-.48,.87-.34,1.66,.72,3.27,1.51,4.79,2.35,.32,.18,.44,.58,.26,.9-.12,.22-.35,.34-.58,.34Zm-9.66-4.24c-.07,0-.14-.01-.22-.04-1.6-.56-3.29-1.07-5-1.54-.35-.1-.56-.46-.46-.81,.1-.35,.46-.55,.81-.46,1.75,.47,3.46,1,5.09,1.57,.34,.12,.53,.5,.41,.84-.1,.27-.35,.44-.62,.44Zm-10.18-2.78s-.09,0-.14-.01c-1.68-.35-3.41-.66-5.16-.93-.36-.06-.61-.39-.55-.75,.06-.36,.4-.6,.75-.55,1.77,.27,3.53,.59,5.23,.95,.36,.07,.59,.42,.51,.78-.06,.31-.34,.53-.64,.53Zm-10.44-1.63s-.05,0-.07,0c-1.73-.19-3.47-.34-5.23-.46-.36-.02-.64-.34-.61-.7,.03-.36,.34-.64,.7-.61,1.78,.12,3.54,.27,5.29,.47,.36,.04,.63,.36,.59,.73-.04,.34-.32,.59-.65,.59Zm-10.54-.72h-.02c-1.74-.06-3.5-.08-5.26-.08-.36,0-.66-.3-.66-.66s.3-.66,.66-.66c1.78,0,3.54,.03,5.3,.08,.36,.01,.65,.32,.64,.68-.01,.36-.31,.64-.66,.64Z"/>
            <path class="cls-1" d="M443.82,303.96h-.49c-1.61,0-3.25-.07-4.86-.22-.36-.03-.63-.35-.6-.72,.03-.37,.35-.66,.72-.6,1.57,.14,3.17,.21,4.75,.21h.45c.34,.02,.67,.29,.67,.65,0,.36-.29,.67-.65,.67Zm5.25-.31c-.33,0-.62-.25-.66-.59-.04-.36,.22-.69,.58-.73,1.71-.19,3.44-.47,5.14-.83,.35-.07,.71,.15,.78,.51,.08,.36-.15,.71-.51,.78-1.75,.37-3.52,.66-5.27,.85-.02,0-.05,0-.07,0Zm-15.77-.62s-.08,0-.12-.01c-1.74-.32-3.49-.73-5.2-1.21-.35-.1-.55-.46-.46-.81s.46-.57,.81-.46c1.67,.47,3.38,.87,5.08,1.18,.36,.07,.6,.41,.53,.77-.06,.32-.34,.54-.65,.54Zm26.08-1.58c-.28,0-.54-.18-.63-.46-.11-.35,.08-.72,.43-.83,1.64-.53,3.28-1.15,4.87-1.85,.34-.14,.72,0,.87,.34,.15,.34,0,.72-.34,.87-1.64,.71-3.32,1.35-5,1.89-.07,.02-.14,.03-.2,.03Zm-36.24-1.26c-.08,0-.15-.01-.23-.04-1.64-.61-3.29-1.3-4.92-2.06-.33-.15-.47-.55-.32-.88,.15-.33,.55-.47,.88-.32,1.59,.74,3.22,1.42,4.82,2.02,.34,.13,.52,.51,.39,.85-.1,.27-.35,.43-.62,.43Zm45.9-2.95c-.23,0-.46-.12-.58-.34-.18-.32-.06-.72,.25-.9,1.51-.85,3-1.78,4.42-2.77,.3-.21,.71-.13,.92,.17,.21,.3,.13,.71-.17,.92-1.46,1.01-2.98,1.97-4.53,2.83-.1,.06-.21,.09-.32,.09Zm8.66-6.02c-.19,0-.37-.08-.5-.23-.24-.28-.2-.7,.08-.93,1.32-1.12,2.6-2.32,3.81-3.56,.26-.26,.67-.27,.93-.02,.26,.26,.27,.67,.02,.93-1.24,1.27-2.55,2.5-3.9,3.65-.12,.11-.28,.16-.43,.16Zm7.34-7.57c-.14,0-.29-.05-.41-.14-.28-.23-.33-.64-.11-.93,1.09-1.37,2.1-2.8,3.02-4.25,.19-.31,.61-.4,.91-.2,.31,.2,.4,.6,.2,.91-.94,1.48-1.98,2.95-3.1,4.36-.13,.17-.32,.25-.52,.25Zm5.63-8.91c-.1,0-.2-.02-.29-.07-.33-.16-.46-.55-.31-.88,.77-1.59,1.44-3.2,1.98-4.8,.12-.35,.49-.53,.84-.42,.35,.12,.53,.49,.41,.84-.56,1.65-1.24,3.32-2.04,4.96-.11,.23-.35,.37-.59,.37Zm3.34-9.99s-.08,0-.12-.01c-.36-.06-.6-.41-.53-.77,.32-1.74,.48-3.47,.5-5.13,0-.36,.3-.65,.66-.65h0c.36,0,.66,.3,.65,.67-.02,1.75-.19,3.55-.52,5.36-.06,.32-.34,.54-.65,.54Zm.03-10.5c-.31,0-.58-.22-.65-.53-.34-1.7-.86-3.34-1.56-4.87-.15-.33,0-.72,.33-.87,.33-.15,.72,0,.87,.33,.74,1.62,1.29,3.36,1.65,5.16,.07,.36-.16,.7-.52,.77-.04,0-.09,.01-.13,.01Z"/>
            <path class="cls-4" d="M92.54,314.51h-.02c-1.81-.06-3.6-.23-5.33-.5-.36-.05-.61-.39-.55-.75,.06-.36,.39-.6,.75-.55,1.68,.26,3.42,.42,5.18,.48,.36,.01,.65,.32,.64,.68-.01,.36-.31,.64-.66,.64Zm5.27-.12c-.34,0-.63-.26-.66-.61-.03-.36,.25-.68,.61-.71,1.71-.13,3.45-.35,5.17-.66,.36-.07,.7,.18,.77,.53,.06,.36-.18,.7-.53,.77-1.77,.31-3.55,.54-5.3,.67-.02,0-.03,0-.05,0Zm-15.68-1.51c-.06,0-.12,0-.19-.03-1.75-.51-3.45-1.14-5.03-1.88-.33-.15-.47-.54-.32-.87,.15-.33,.55-.47,.88-.32,1.53,.71,3.16,1.31,4.85,1.81,.35,.1,.55,.47,.45,.82-.08,.29-.35,.47-.63,.47Zm26.07-.33c-.29,0-.55-.19-.64-.48-.1-.35,.11-.72,.46-.81,1.64-.46,3.31-1.01,4.95-1.63,.34-.14,.72,.04,.85,.38,.13,.34-.04,.72-.38,.85-1.68,.64-3.39,1.2-5.07,1.67-.06,.02-.12,.02-.18,.02Zm9.86-3.75c-.24,0-.48-.14-.59-.37-.16-.33-.02-.72,.3-.88,1.34-.65,2.67-1.36,3.95-2.11,.31-.19,.72-.08,.9,.24,.18,.31,.08,.72-.24,.9-1.32,.77-2.68,1.5-4.04,2.16-.09,.05-.19,.07-.29,.07Zm-45.46-.35c-.13,0-.26-.04-.37-.11-1.5-1.02-2.9-2.17-4.17-3.41-.26-.26-.26-.67,0-.93,.26-.26,.67-.27,.93-.01,1.21,1.19,2.55,2.28,3.99,3.26,.3,.21,.38,.62,.17,.92-.13,.19-.34,.29-.55,.29Zm-7.48-7.37c-.21,0-.41-.1-.54-.28-1.02-1.46-1.91-3.03-2.66-4.68-.15-.33,0-.72,.33-.87,.33-.15,.72,0,.87,.33,.72,1.57,1.57,3.08,2.54,4.48,.21,.3,.14,.71-.16,.92-.11,.08-.25,.12-.38,.12Zm-4.37-9.54c-.29,0-.56-.2-.64-.49-.45-1.68-.78-3.46-.99-5.28-.04-.36,.22-.69,.58-.73,.35-.03,.69,.22,.73,.58,.2,1.76,.52,3.47,.95,5.09,.09,.35-.12,.71-.47,.81-.06,.02-.11,.02-.17,.02Zm-1.23-10.45h0c-.36,0-.66-.3-.65-.67,.02-1.73,.14-3.52,.35-5.34,.04-.36,.38-.62,.73-.58,.36,.04,.62,.37,.58,.73-.21,1.77-.32,3.52-.34,5.2,0,.36-.3,.65-.66,.65Zm1.19-10.48s-.09,0-.14-.01c-.36-.07-.59-.43-.51-.78,.35-1.69,.78-3.43,1.28-5.17,.1-.35,.46-.56,.82-.45,.35,.1,.55,.46,.45,.81-.49,1.71-.91,3.41-1.25,5.08-.06,.31-.34,.53-.64,.53Z"/>
            <g>
              <g>
                <path class="cls-15" d="M453.93,223.49l-4.42,35.64-1.42-.18c-.78-.1-1.34-.85-1.23-1.68l4.05-32.63c.1-.83,.82-1.43,1.61-1.33l1.42,.18Z"/>
                <path class="cls-19" d="M526.51,224.46l-11.43,3.28-8.18,2.34-23.75,.6-17.28-6.9-7.58-3.04c-2.6-.32-4.96,1.52-5.28,4.12l-4.06,32.72c-.32,2.6,1.52,4.96,4.12,5.28l6.27-.31,12.66-.61,14.05,2.58,11.58-1.75,13.05,2.99,9.55,.57,8.81,.51c2.62-.15,4.61-2.4,4.45-5l-1.96-32.92c-.15-2.61-2.4-4.6-5-4.45Z"/>
                <polygon class="cls-13" points="465.99 240.68 471.74 249.3 466.99 256.47 459.33 262.55 471.99 261.93 486.04 264.52 497.62 262.77 510.68 265.75 520.22 266.32 507.67 259.14 510.32 245.27 493.38 258.36 477.66 254.82 478.75 246.09 465.99 240.68"/>
                <polygon class="cls-13" points="483.16 230.68 465.87 223.78 468.07 227.46 483.17 236.15 482.25 244.68 493.02 236.8 501.76 243.74 504.59 234.86 511.94 236.8 519.02 248.93 516.56 233.41 515.09 227.74 506.91 230.08 483.16 230.68"/>
                <path class="cls-15" d="M522.6,238.21c-.29,2.36-.38,4.87-.27,7.44,.43,9.66,3.81,19.31,9.44,19.06,3.72-.17,6.5-4.79,7.44-12.37,.29-2.36,.38-4.87,.27-7.44-.43-9.66-3.81-19.31-9.44-19.06-3.72,.17-6.5,4.79-7.44,12.37Z"/>
                <path class="cls-25" d="M530.13,227.64c-3.74,.17-6.42,8.2-5.99,17.93,.43,9.74,3.82,17.5,7.56,17.33,3.74-.17,6.42-8.2,5.99-17.93-.43-9.74-3.82-17.5-7.56-17.33Z"/>
                <path class="cls-26" d="M532.96,241.91c.11,.68-.09,1.58-.46,2.08l-1.74,2.36c-.37,.5-.79,.45-.98-.12l-2.17-6.54c-.22-.67-.04-1.76,.39-2.34l2.64-3.59c.43-.58,.92-.4,1.05,.39l1.27,7.77Z"/>
                <g>
                  <path class="cls-23" d="M533.42,255.47l2.62-4.63c.39-.69,.44-1.83,.12-2.47l-3.12-6.14c-.27-.53-.75-.56-1.12-.07l-1.84,2.45c-.42,.55-.59,1.52-.39,2.22l2.37,8.49c.25,.91,.9,.97,1.36,.14Z"/>
                  <path class="cls-25" d="M535.05,248.62l-2.28-4.5c-.22-.44-.62-.46-.93-.03l-.71,.98c-.32,.45-.45,1.22-.29,1.79l1.69,5.92c.2,.71,.71,.77,1.07,.14l1.33-2.26c.33-.57,.39-1.52,.12-2.04Z"/>
                  <polygon class="cls-23" points="531.58 251.13 534.34 246.82 533.73 245.27 530.94 249.43 531.58 251.13"/>
                  <path class="cls-15" d="M531.08,245.3c.15,.4,.48,.44,.73,.09,.24-.35,.32-.94,.17-1.32-.15-.39-.47-.43-.72-.1-.25,.34-.33,.94-.18,1.33Z"/>
                </g>
              </g>
              <g>
                <path class="cls-15" d="M479.22,263.97h-35.92v1.43c0,.79,.68,1.43,1.52,1.43h32.88c.84,0,1.52-.64,1.52-1.43v-1.43Z"/>
                <path class="cls-17" d="M487.2,191.82l-4.66,10.94-3.33,7.83-3.52,23.5,4.72,18,2.08,7.9c0,2.62-2.12,4.74-4.74,4.74h-32.97c-2.62,0-4.74-2.11-4.74-4.74l1.08-6.18,2.17-12.49-.83-14.26,3.16-11.28-1.36-13.32,.61-9.54,.58-8.8c.47-2.58,2.95-4.28,5.51-3.8l32.43,6c2.57,.47,4.27,2.95,3.8,5.51Z"/>
                <polygon class="cls-13" points="463.65 249.87 455.81 243.11 448.11 246.95 441.13 253.8 443.3 241.31 442.47 227.04 445.63 215.77 444.27 202.44 444.89 192.9 449.41 202.44 456.71 206.73 449.48 220.52 451.05 236.55 459.86 236.55 463.65 249.87"/>
                <polygon class="cls-13" points="475.69 234.08 480.41 252.08 477.03 249.44 470.27 233.39 458.95 229.32 468.89 223.34 473.39 208.77 471.39 201.97 461.27 194.98 472.07 196.33 477.03 206.28 482.54 202.75 479.21 210.58 475.69 234.08"/>
                <path class="cls-15" d="M473.08,194c-2.38,0-4.88-.22-7.42-.65-9.53-1.62-18.69-6.16-17.75-11.72,.62-3.67,5.56-5.86,13.2-5.86,2.38,0,4.88,.22,7.42,.65,9.53,1.62,18.69,6.16,17.75,11.72-.62,3.67-5.56,5.86-13.2,5.86Z"/>
                <ellipse class="cls-25" cx="467.1" cy="184.89" rx="6.78" ry="17.65" transform="translate(206.7 614.49) rotate(-80.37)"/>
                <path class="cls-26" d="M470.68,183.27c-.66-.19-1.58-.11-2.12,.2l-2.56,1.43c-.54,.31-.54,.73,0,.99l6.23,2.96c.63,.3,1.74,.25,2.37-.1l3.88-2.18c.63-.36,.51-.86-.26-1.09l-7.56-2.22Z"/>
                <g>
                  <path class="cls-23" d="M457.28,181.14l4.92-2.03c.73-.3,1.87-.21,2.47,.19l5.7,3.85c.49,.33,.47,.81-.07,1.12l-2.66,1.53c-.6,.35-1.58,.4-2.26,.11l-8.13-3.4c-.87-.36-.85-1.01,.03-1.37Z"/>
                  <path class="cls-25" d="M464.28,180.37l4.19,2.82c.41,.28,.38,.67-.08,.93l-1.06,.58c-.49,.27-1.27,.3-1.81,.07l-5.67-2.41c-.68-.29-.68-.8,0-1.08l2.41-1.04c.61-.26,1.55-.2,2.04,.13Z"/>
                  <polygon class="cls-23" points="461.37 183.5 465.98 181.29 467.44 182.09 462.97 184.35 461.37 183.5"/>
                  <path class="cls-15" d="M467.08,184.72c-.38-.2-.37-.53,0-.73,.37-.2,.97-.2,1.33,0,.36,.2,.37,.52,0,.72-.37,.21-.97,.21-1.35,.01Z"/>
                </g>
              </g>
            </g>
            <g class="cls-2">
              <path class="cls-3" d="M417.9,233.32l-2.38,1.17c-3.03,1.48-6.4,2.26-9.75,2.26-11.74,0-21.38-9.15-22.16-20.69h-8.65c.8,16.31,14.31,29.33,30.82,29.33,6.72,0,13.39-2.27,18.75-6.4l.87-.67,3.45,2.3,1.17-17.98-16.16,7.97,4.05,2.7Z"/>
              <path class="cls-3" d="M393.63,195.75l2.38-1.17c3.03-1.48,6.4-2.26,9.75-2.26,11.74,0,21.38,9.15,22.16,20.69h8.65c-.8-16.31-14.31-29.32-30.82-29.32-6.72,0-13.38,2.27-18.75,6.4l-.87,.67-3.45-2.3-1.17,17.98,16.16-7.97-4.05-2.71Z"/>
              <path class="cls-3" d="M396.34,214.54c0,5.2,4.23,9.43,9.43,9.43s9.43-4.23,9.43-9.43-4.23-9.43-9.43-9.43-9.43,4.23-9.43,9.43Z"/>
            </g>
            <g class="cls-2">
              <path class="cls-3" d="M120.42,260.65l-1.78,.87c-2.26,1.11-4.77,1.69-7.28,1.69-8.76,0-15.96-6.83-16.54-15.45h-6.46c.6,12.17,10.69,21.89,23,21.89,5.02,0,9.99-1.7,14-4.78l.65-.5,2.58,1.72,.87-13.42-12.06,5.95,3.03,2.02Z"/>
              <path class="cls-3" d="M102.31,232.6l1.78-.87c2.26-1.1,4.78-1.69,7.28-1.69,8.76,0,15.96,6.83,16.54,15.44h6.46c-.6-12.17-10.69-21.89-23-21.89-5.02,0-9.99,1.7-14,4.77l-.65,.5-2.57-1.72-.87,13.42,12.06-5.95-3.03-2.02Z"/>
              <circle class="cls-3" cx="111.36" cy="246.63" r="7.04"/>
            </g>
            <g class="cls-2">
              <path class="cls-3" d="M200.7,41.53l-1.43,.7c-1.81,.89-3.83,1.35-5.83,1.35-7.02,0-12.79-5.47-13.26-12.38h-5.17c.48,9.75,8.56,17.54,18.43,17.54,4.02,0,8.01-1.36,11.22-3.83l.52-.4,2.06,1.38,.7-10.76-9.67,4.77,2.42,1.62Z"/>
              <path class="cls-3" d="M186.18,19.06l1.42-.7c1.81-.89,3.83-1.35,5.83-1.35,7.02,0,12.79,5.47,13.26,12.37h5.17c-.48-9.75-8.56-17.54-18.43-17.54-4.02,0-8,1.36-11.22,3.83l-.52,.4-2.06-1.38-.7,10.76,9.66-4.77-2.42-1.62Z"/>
              <circle class="cls-3" cx="193.44" cy="30.3" r="5.64"/>
            </g>
            <g class="cls-2">
              <path class="cls-1" d="M441.84,106.12l-1.68,.82c-2.13,1.04-4.51,1.6-6.87,1.6-8.27,0-15.07-6.45-15.62-14.58h-6.1c.56,11.49,10.09,20.67,21.72,20.67,4.74,0,9.43-1.6,13.22-4.51l.61-.47,2.43,1.62,.82-12.67-11.39,5.62,2.86,1.9Z"/>
              <path class="cls-1" d="M424.74,79.65l1.68-.82c2.13-1.04,4.51-1.59,6.87-1.59,8.27,0,15.06,6.45,15.62,14.58h6.1c-.56-11.49-10.09-20.66-21.71-20.66-4.74,0-9.43,1.6-13.22,4.51l-.61,.47-2.43-1.62-.82,12.67,11.39-5.62-2.86-1.91Z"/>
              <path class="cls-1" d="M426.65,92.89c0,3.66,2.98,6.64,6.64,6.64s6.64-2.98,6.64-6.64-2.98-6.64-6.64-6.64-6.64,2.98-6.64,6.64Z"/>
            </g>
            <g class="cls-2">
              <path class="cls-1" d="M345.21,107.74l-1.04,.51c-1.32,.65-2.8,.99-4.26,.99-5.13,0-9.34-4-9.69-9.04h-3.78c.35,7.13,6.26,12.82,13.47,12.82,2.94,0,5.85-.99,8.2-2.8l.38-.29,1.51,1.01,.51-7.86-7.06,3.48,1.77,1.18Z"/>
              <path class="cls-1" d="M334.6,91.32l1.04-.51c1.32-.65,2.8-.99,4.26-.99,5.13,0,9.34,4,9.69,9.04h3.78c-.35-7.13-6.26-12.82-13.47-12.82-2.94,0-5.85,.99-8.2,2.8l-.38,.29-1.51-1.01-.51,7.86,7.06-3.48-1.77-1.18Z"/>
              <circle class="cls-1" cx="339.9" cy="99.53" r="4.12"/>
            </g>
            <path class="cls-1" d="M168.66,183.22c-1.68-1.14-2.91-2.84-3.47-4.79l-.59-2.03-2.75-9.56-2.88-10.03-.15-.55,.64-.83h0s-1.98-5.15-1.98-5.15h-.03c.24-.25,.37-.62,.28-1.01v-.02c-.14-.6-.72-.98-1.28-.85l-8.41,1.92c-.57,.13-.92,.72-.78,1.32v.02c.09,.39,.37,.66,.7,.79h-.03s.45,5.49,.45,5.49h.01s.94,.47,.94,.47l.1,.56,1.75,10.28,1.67,9.8,.35,2.09c.34,2-.03,4.07-1.05,5.83-1.89,3.29-2.47,7.16-1.62,10.85l8.19,35.88c.41,1.78,2.17,2.88,3.95,2.47l17.86-4.08c1.78-.41,2.89-2.16,2.48-3.94l-8.19-35.88c-.84-3.7-3.05-6.93-6.17-9.07Z"/>
            <path class="cls-1" d="M238.23,112.85c-.49-1.2-.53-2.54-.14-3.77l.41-1.29,1.94-6.04,2.03-6.34,.11-.35,.64-.21h0s.78-3.43,.78-3.43h-.02c.22-.06,.42-.21,.51-.44h0c.14-.38-.03-.79-.37-.92l-5.14-1.97c-.35-.13-.74,.06-.88,.42h0c-.09,.25-.04,.49,.09,.68h-.02s-1.71,3.06-1.71,3.06h0s.33,.59,.33,.59l-.15,.33-2.72,6.08-2.6,5.79-.55,1.23c-.53,1.18-1.46,2.15-2.62,2.72-2.17,1.07-3.85,2.92-4.72,5.18l-8.4,21.93c-.42,1.09,.13,2.3,1.21,2.71l10.92,4.18c1.09,.42,2.3-.12,2.72-1.21l8.4-21.93c.87-2.26,.85-4.76-.05-7Z"/>
            <path class="cls-1" d="M523.82,202.92c.6-.89,1.5-1.53,2.53-1.83l1.07-.31,5.04-1.45,5.29-1.52,.29-.08,.44,.34h0s2.71-1.04,2.71-1.04v-.02c.13,.13,.33,.19,.53,.15h.01c.32-.07,.52-.38,.45-.68l-1.01-4.44c-.07-.3-.38-.48-.7-.41h-.01c-.2,.05-.35,.19-.42,.37v-.02s-2.9,.24-2.9,.24h0s-.25,.5-.25,.5l-.3,.05-5.42,.92-5.17,.88-1.1,.19c-1.06,.18-2.15-.02-3.07-.55-1.73-.99-3.77-1.3-5.72-.86l-18.92,4.32c-.94,.21-1.52,1.14-1.3,2.08l2.15,9.42c.21,.94,1.14,1.52,2.08,1.31l18.92-4.32c1.95-.44,3.66-1.61,4.79-3.25Z"/>
            <path class="cls-1" d="M146.84,55.47c.6-.89,1.5-1.53,2.53-1.83l1.07-.31,5.04-1.45,5.29-1.52,.29-.08,.44,.34h0s2.71-1.04,2.71-1.04v-.02c.13,.13,.33,.19,.53,.15h.01c.32-.08,.52-.38,.45-.68l-1.01-4.44c-.07-.3-.38-.48-.7-.41h-.01c-.2,.05-.35,.19-.42,.37v-.02s-2.9,.24-2.9,.24h0s-.25,.5-.25,.5l-.3,.05-5.42,.92-5.17,.88-1.1,.19c-1.06,.18-2.15-.02-3.07-.55-1.73-.99-3.77-1.3-5.72-.86l-18.92,4.32c-.94,.21-1.52,1.14-1.3,2.08l2.15,9.42c.21,.94,1.14,1.52,2.08,1.31l18.92-4.32c1.95-.44,3.66-1.61,4.79-3.25Z"/>
            <polygon class="cls-1" points="331.63 157.73 328.21 155.55 326.02 154.14 322.64 151.97 320.8 146.84 320.12 144.97 312.82 146.04 312.25 145.79 304.98 142.57 301.08 140.84 302.71 150.17 298.47 155.05 295.52 158.45 302.35 161.13 301.08 169.32 308.09 169.32 313.36 179.83 317.79 173.43 324.62 175.88 324.44 167.96 328.21 169.85 331.63 157.73"/>
            <polygon class="cls-1" points="441.63 166.28 442.79 163.96 443.54 162.47 444.69 160.17 447.83 158.66 448.98 158.1 447.81 153.53 447.93 153.15 449.49 148.3 450.34 145.7 444.5 147.36 441.11 144.99 438.75 143.34 437.5 147.87 432.21 147.61 432.68 152.07 426.34 156.13 430.71 158.53 429.61 163.04 434.64 162.39 433.68 164.92 441.63 166.28"/>
            <polygon class="cls-1" points="60.04 133.21 61.2 130.89 61.95 129.4 63.1 127.1 66.25 125.58 67.4 125.03 66.22 120.45 66.34 120.07 67.91 115.23 68.75 112.63 62.92 114.29 59.53 111.92 57.17 110.27 55.92 114.8 50.62 114.54 51.09 119 44.75 123.06 49.12 125.45 48.02 129.97 53.05 129.32 52.1 131.85 60.04 133.21"/>
            <polygon class="cls-1" points="190.22 180.97 193.04 178.66 194.86 177.17 197.66 174.89 202.56 174.75 204.36 174.69 205.48 168.15 205.85 167.73 210.64 162.41 213.22 159.56 204.78 158.34 201.79 153.35 199.71 149.88 195.51 154.97 188.86 151.59 186.9 157.59 176.43 159.16 180.66 164.74 176.65 169.9 183.48 171.96 180.8 174.66 190.22 180.97"/>
            <path class="cls-1" d="M423.98,43.26c-.13-.13-.27-.26-.4-.39-2.71,.62-5.53-.63-7.74-2.32-2.21-1.69-4.05-3.84-6.32-5.46-5.25-3.73-12.21-4.22-17.69-7.6-1.41-.87-2.71-1.92-4.17-2.69,0,0,0,0-.01,0,0,0,0,0,.01,0-.67-.62-1.46-.83-2.31-.97-1.29-.21-2.71-.25-3.93-1.34-1.36-1.21-2.61-2.53-3.91-3.8-.33,.57-.67,1.14-1,1.71-.28,.48-.55,.94-.83,1.42,1.24,.06,2.52,.14,3.65,.62,1.12,.48,2.08,1.46,2.17,2.69,.04,.52-.08,1.04-.13,1.56-.12,1.2,.4,2.46,.91,3.51,0-.03,0-.05,0-.08,.97,2.26,2.74,4.23,4.73,5.76,2.88,2.21,6.22,3.74,9.16,5.87,2.94,2.13,5.57,5.1,6,8.7,.23,1.86-.15,3.74-.52,5.58-.22,1.06-.43,2.13-.65,3.19,3.49-1.21,5.64-5.04,5.6-8.74-.02-1.98-.57-3.88-1.45-5.66,.61,.63,1.22,1.27,1.82,1.91,1.83,1.97,3.74,3.94,6.12,5.18,2.39,1.24,5.37,1.63,7.74,.37-2.46-2.59-4.92-5.18-7.38-7.77,.47,.15,.93,.31,1.41,.41,3.12,.67,6.59,.27,9.12-1.67Z"/>
            <path class="cls-1" d="M268.61,71.24c.06-.18,.13-.36,.19-.54-1.72-2.27-1.74-5.43-1.08-8.2,.65-2.77,1.89-5.39,2.44-8.19,1.28-6.46-1.19-13.16-.33-19.7,.22-1.68,.66-3.33,.76-5.03,0,0,0,0,0-.01,0,0,0,0,0,.01,.3-.88,.16-1.71-.06-2.56-.35-1.29-.9-2.63-.39-4.23,.56-1.78,1.27-3.49,1.91-5.24-.67-.07-1.35-.15-2.01-.22-.56-.06-1.11-.12-1.67-.18,.46,1.19,.93,2.41,.95,3.67,.03,1.25-.49,2.55-1.6,3.16-.47,.25-1.01,.37-1.51,.53-1.17,.39-2.13,1.4-2.9,2.33,.02-.02,.05-.02,.07-.04-1.7,1.86-2.8,4.34-3.39,6.83-.85,3.61-.89,7.38-1.64,11.01-.76,3.64-2.43,7.34-5.61,9.26-1.64,.99-3.56,1.43-5.43,1.85-1.08,.24-2.17,.49-3.25,.73,2.59,2.75,7.07,3.15,10.51,1.56,1.84-.85,3.39-2.16,4.67-3.73-.33,.84-.67,1.67-1.02,2.5-1.07,2.54-2.11,5.14-2.27,7.89-.16,2.75,.73,5.7,2.91,7.38,1.39-3.38,2.77-6.77,4.16-10.15,.06,.5,.1,1,.2,1.49,.68,3.19,2.51,6.27,5.39,7.81Z"/>
            <path class="cls-1" d="M352.32,230.22c.04-.19,.07-.37,.11-.56-2.03-1.99-2.5-5.09-2.26-7.92,.24-2.83,1.07-5.58,1.21-8.42,.32-6.55-3.08-12.79-3.19-19.34-.03-1.69,.16-3.38,.02-5.06,0,0,0,0,0-.01,0,0,0,0,0,0,.17-.91-.09-1.71-.44-2.51-.53-1.22-1.27-2.46-1-4.11,.29-1.83,.74-3.62,1.11-5.44-.67,.03-1.35,.05-2.01,.08-.56,.02-1.11,.04-1.67,.07,.63,1.1,1.27,2.24,1.47,3.47,.21,1.23-.11,2.58-1.11,3.34-.42,.32-.94,.51-1.41,.75-1.1,.55-1.89,1.69-2.51,2.71,.02-.02,.04-.03,.06-.05-1.41,2.07-2.13,4.68-2.34,7.21-.32,3.68,.2,7.39-.01,11.08-.21,3.69-1.32,7.58-4.17,9.93-1.47,1.22-3.29,1.93-5.07,2.61-1.03,.4-2.06,.8-3.09,1.19,2.95,2.33,7.42,2.07,10.57,0,1.68-1.1,3.02-2.62,4.05-4.35-.2,.87-.42,1.74-.64,2.61-.68,2.65-1.33,5.37-1.08,8.1,.25,2.73,1.55,5.5,3.93,6.84,.87-3.53,1.75-7.06,2.62-10.6,.13,.48,.24,.97,.42,1.44,1.14,3.04,3.38,5.8,6.44,6.91Z"/>
            <g class="cls-2">
              <g>
                <path class="cls-3" d="M13.13,255.6c.03,9.22,5.11,17.49,9.71,25.13,2.83,4.69,5.65,9.37,8.47,14.06,.6,.99,1.19,1.97,1.79,2.96-.39,.24-1.51,1.29-1.8,.81-.41-.67-.81-1.35-1.22-2.02-1.53-2.54-3.06-5.08-4.6-7.63-3.01-4.99-6.17-9.93-8.9-15.08-2.98-5.62-5.4-11.78-5.42-18.23,.65,0,1.31,0,1.96,0Z"/>
                <path class="cls-3" d="M22.57,299.09c2.5-6.03,9.09-10.21,15.61-9.95-1.18,.62-2.43,1.15-3.64,1.71-1.6,.74-3.09,1.67-4.62,2.56-1.34,.91-2.78,1.77-4,2.84-1.08,.96-2.21,1.95-3.35,2.83Z"/>
                <path class="cls-3" d="M18.49,294.93c2.94-6.43,9.76-11.11,16.81-11.61-1.19,.73-2.44,1.35-3.66,2.02-1.77,.98-3.46,2.08-5.17,3.18-1.55,1.12-3.13,2.21-4.57,3.48-1.12,.98-2.24,2.01-3.42,2.93Z"/>
                <path class="cls-3" d="M15.2,290.33c3.07-6.39,9.88-11.1,16.94-11.78-1.18,.76-2.43,1.42-3.65,2.11-1.77,1.02-3.47,2.14-5.19,3.26-1.56,1.13-3.16,2.24-4.62,3.5-1.14,.98-2.29,2-3.48,2.91Z"/>
                <path class="cls-3" d="M13.65,284.24c2.36-5.42,8.08-9.65,13.95-10.36-2.24,1.8-4.73,3.39-7.1,5.01-2.29,1.75-4.48,3.7-6.85,5.35Z"/>
                <path class="cls-3" d="M12.4,276.94c1.72-3.99,6.48-6.95,10.83-6.69-1.62,1.32-3.56,2.38-5.35,3.44-1.76,1.12-3.57,2.38-5.48,3.24Z"/>
                <path class="cls-3" d="M10.81,272.07c.87-3.42,4.97-5.94,8.41-5.1-1.24,1.03-2.75,1.85-4.15,2.64-1.36,.85-2.78,1.83-4.26,2.46Z"/>
                <path class="cls-3" d="M9.13,265.98c1.34-2.58,4.84-4.09,7.62-3.15-.98,.93-2.34,1.62-3.6,2.07-1.19,.57-2.69,1.06-4.01,1.08Z"/>
                <path class="cls-3" d="M11.92,260.7c2.79-.58,4.28-4.17,5.14-6.55,1-2.73,1.43-5.67,1.26-8.58-3.81,6.2-12.3,8.02-18.32,3.96,1.06,2.79,2.72,5.35,4.81,7.47,1.72,1.74,4.41,4.26,7.1,3.71Z"/>
                <path class="cls-3" d="M26.8,301.78c1.06,4.46,4.33,7.19,8.81,7.83,.35,.05,2.27,.42,2.36,.04,.13-.57,0-1.26-.05-1.83-.02-.26-.36-3.22,.02-3.16,.33,.05,.7,.89,.84,1.13,.35,.58,.67,1.19,1.09,1.73,.42,.54,.69-1.14,.77-1.43,.27-.99,.41-2.01,.34-3.04-.12-1.95-1.01-3.73-2.05-5.35-.63-.98-1.33-1.92-2.03-2.85-1.28-.08-2.59-.03-3.84,.27-3.37,.79-5.4,3.43-6.27,6.67,1.34,5.62,1.49-5.56,0,0Zm7.66,1.97c.99,1.89-1.94,3.42-2.93,1.53-.99-1.89,1.94-3.42,2.93-1.53Z"/>
              </g>
              <g>
                <path class="cls-3" d="M13.13,255.6c.03,9.22,5.11,17.49,9.71,25.13,2.83,4.69,5.65,9.37,8.47,14.06,.6,.99,1.19,1.97,1.79,2.96-.39,.24-1.51,1.29-1.8,.81-.41-.67-.81-1.35-1.22-2.02-1.53-2.54-3.06-5.08-4.6-7.63-3.01-4.99-6.17-9.93-8.9-15.08-2.98-5.62-5.4-11.78-5.42-18.23,.65,0,1.31,0,1.96,0Z"/>
                <path class="cls-3" d="M22.57,299.09c2.5-6.03,9.09-10.21,15.61-9.95-1.18,.62-2.43,1.15-3.64,1.71-1.6,.74-3.09,1.67-4.62,2.56-1.34,.91-2.78,1.77-4,2.84-1.08,.96-2.21,1.95-3.35,2.83Z"/>
                <path class="cls-3" d="M18.49,294.93c2.94-6.43,9.76-11.11,16.81-11.61-1.19,.73-2.44,1.35-3.66,2.02-1.77,.98-3.46,2.08-5.17,3.18-1.55,1.12-3.13,2.21-4.57,3.48-1.12,.98-2.24,2.01-3.42,2.93Z"/>
                <path class="cls-3" d="M15.2,290.33c3.07-6.39,9.88-11.1,16.94-11.78-1.18,.76-2.43,1.42-3.65,2.11-1.77,1.02-3.47,2.14-5.19,3.26-1.56,1.13-3.16,2.24-4.62,3.5-1.14,.98-2.29,2-3.48,2.91Z"/>
                <path class="cls-3" d="M13.65,284.24c2.36-5.42,8.08-9.65,13.95-10.36-2.24,1.8-4.73,3.39-7.1,5.01-2.29,1.75-4.48,3.7-6.85,5.35Z"/>
                <path class="cls-3" d="M12.4,276.94c1.72-3.99,6.48-6.95,10.83-6.69-1.62,1.32-3.56,2.38-5.35,3.44-1.76,1.12-3.57,2.38-5.48,3.24Z"/>
                <path class="cls-3" d="M10.81,272.07c.87-3.42,4.97-5.94,8.41-5.1-1.24,1.03-2.75,1.85-4.15,2.64-1.36,.85-2.78,1.83-4.26,2.46Z"/>
                <path class="cls-3" d="M9.13,265.98c1.34-2.58,4.84-4.09,7.62-3.15-.98,.93-2.34,1.62-3.6,2.07-1.19,.57-2.69,1.06-4.01,1.08Z"/>
                <path class="cls-3" d="M11.92,260.7c2.79-.58,4.28-4.17,5.14-6.55,1-2.73,1.43-5.67,1.26-8.58-3.81,6.2-12.3,8.02-18.32,3.96,1.06,2.79,2.72,5.35,4.81,7.47,1.72,1.74,4.41,4.26,7.1,3.71Z"/>
                <path class="cls-3" d="M26.8,301.78c1.06,4.46,4.33,7.19,8.81,7.83,.35,.05,2.27,.42,2.36,.04,.13-.57,0-1.26-.05-1.83-.02-.26-.36-3.22,.02-3.16,.33,.05,.7,.89,.84,1.13,.35,.58,.67,1.19,1.09,1.73,.42,.54,.69-1.14,.77-1.43,.27-.99,.41-2.01,.34-3.04-.12-1.95-1.01-3.73-2.05-5.35-.63-.98-1.33-1.92-2.03-2.85-1.28-.08-2.59-.03-3.84,.27-3.37,.79-5.4,3.43-6.27,6.67,1.34,5.62,1.49-5.56,0,0Zm7.66,1.97c.99,1.89-1.94,3.42-2.93,1.53-.99-1.89,1.94-3.42,2.93-1.53Z"/>
              </g>
            </g>
            <g class="cls-2">
              <g>
                <path class="cls-3" d="M502.98,170.42c-.88-9.18-6.71-16.94-12-24.12-3.25-4.4-6.49-8.81-9.74-13.21-.68-.93-1.37-1.86-2.05-2.78,.37-.27,1.39-1.42,1.72-.97,.47,.63,.93,1.27,1.4,1.9,1.76,2.39,3.52,4.78,5.28,7.17,3.46,4.69,7.07,9.32,10.26,14.19,3.49,5.32,6.46,11.22,7.08,17.64-.65,.06-1.3,.13-1.95,.19Z"/>
                <path class="cls-3" d="M489.55,127.99c-1.93,6.23-8.1,11.01-14.62,11.35,1.12-.73,2.31-1.37,3.47-2.04,1.52-.89,2.93-1.95,4.36-2.97,1.25-1.03,2.6-2.02,3.72-3.2,.99-1.06,2.02-2.14,3.08-3.13Z"/>
                <path class="cls-3" d="M494,131.75c-2.33,6.68-8.69,11.97-15.66,13.12,1.11-.83,2.31-1.57,3.45-2.36,1.68-1.14,3.26-2.39,4.85-3.64,1.44-1.26,2.91-2.5,4.23-3.88,1.03-1.08,2.05-2.21,3.13-3.24Z"/>
                <path class="cls-3" d="M497.7,136.03c-2.47,6.65-8.81,11.97-15.78,13.3,1.1-.86,2.29-1.63,3.43-2.44,1.67-1.18,3.26-2.46,4.86-3.72,1.45-1.27,2.94-2.52,4.28-3.91,1.05-1.08,2.09-2.2,3.2-3.22Z"/>
                <path class="cls-3" d="M499.8,141.95c-1.85,5.62-7.15,10.36-12.93,11.6,2.06-2,4.4-3.82,6.61-5.65,2.12-1.95,4.12-4.1,6.32-5.96Z"/>
                <path class="cls-3" d="M501.73,149.1c-1.34,4.14-5.8,7.52-10.16,7.66,1.49-1.47,3.32-2.7,5.01-3.92,1.65-1.28,3.33-2.71,5.15-3.74Z"/>
                <path class="cls-3" d="M503.76,153.8c-.55,3.48-4.39,6.38-7.9,5.85,1.14-1.14,2.57-2.09,3.89-3.01,1.28-.98,2.59-2.08,4.01-2.84Z"/>
                <path class="cls-3" d="M506,159.71c-1.09,2.69-4.44,4.52-7.29,3.84,.89-1.01,2.18-1.83,3.39-2.39,1.13-.67,2.58-1.31,3.9-1.45Z"/>
                <path class="cls-3" d="M503.71,165.22c-2.72,.83-3.87,4.55-4.52,7-.74,2.82-.9,5.78-.46,8.66,3.22-6.52,11.5-9.13,17.88-5.64-1.31-2.68-3.2-5.07-5.48-6.99-1.87-1.57-4.79-3.84-7.42-3.03Z"/>
                <path class="cls-3" d="M485.09,125.71c-1.47-4.34-4.98-6.76-9.5-6.98-.35-.02-2.3-.21-2.36,.18-.08,.58,.11,1.25,.22,1.82,.04,.25,.66,3.17,.27,3.15-.33-.02-.77-.82-.94-1.05-.4-.54-.78-1.13-1.25-1.62-.47-.49-.58,1.19-.63,1.5-.17,1.01-.22,2.04-.06,3.06,.31,1.93,1.35,3.62,2.54,5.13,.72,.92,1.5,1.79,2.29,2.65,1.28-.04,2.58-.21,3.8-.62,3.28-1.1,5.06-3.92,5.63-7.22-1.86-5.47-.97,5.67,0,0Zm-7.81-1.25c-1.16-1.79,1.62-3.59,2.78-1.8,1.16,1.79-1.62,3.59-2.78,1.8Z"/>
              </g>
              <g>
                <path class="cls-3" d="M502.98,170.42c-.88-9.18-6.71-16.94-12-24.12-3.25-4.4-6.49-8.81-9.74-13.21-.68-.93-1.37-1.86-2.05-2.78,.37-.27,1.39-1.42,1.72-.97,.47,.63,.93,1.27,1.4,1.9,1.76,2.39,3.52,4.78,5.28,7.17,3.46,4.69,7.07,9.32,10.26,14.19,3.49,5.32,6.46,11.22,7.08,17.64-.65,.06-1.3,.13-1.95,.19Z"/>
                <path class="cls-3" d="M489.55,127.99c-1.93,6.23-8.1,11.01-14.62,11.35,1.12-.73,2.31-1.37,3.47-2.04,1.52-.89,2.93-1.95,4.36-2.97,1.25-1.03,2.6-2.02,3.72-3.2,.99-1.06,2.02-2.14,3.08-3.13Z"/>
                <path class="cls-3" d="M494,131.75c-2.33,6.68-8.69,11.97-15.66,13.12,1.11-.83,2.31-1.57,3.45-2.36,1.68-1.14,3.26-2.39,4.85-3.64,1.44-1.26,2.91-2.5,4.23-3.88,1.03-1.08,2.05-2.21,3.13-3.24Z"/>
                <path class="cls-3" d="M497.7,136.03c-2.47,6.65-8.81,11.97-15.78,13.3,1.1-.86,2.29-1.63,3.43-2.44,1.67-1.18,3.26-2.46,4.86-3.72,1.45-1.27,2.94-2.52,4.28-3.91,1.05-1.08,2.09-2.2,3.2-3.22Z"/>
                <path class="cls-3" d="M499.8,141.95c-1.85,5.62-7.15,10.36-12.93,11.6,2.06-2,4.4-3.82,6.61-5.65,2.12-1.95,4.12-4.1,6.32-5.96Z"/>
                <path class="cls-3" d="M501.73,149.1c-1.34,4.14-5.8,7.52-10.16,7.66,1.49-1.47,3.32-2.7,5.01-3.92,1.65-1.28,3.33-2.71,5.15-3.74Z"/>
                <path class="cls-3" d="M503.76,153.8c-.55,3.48-4.39,6.38-7.9,5.85,1.14-1.14,2.57-2.09,3.89-3.01,1.28-.98,2.59-2.08,4.01-2.84Z"/>
                <path class="cls-3" d="M506,159.71c-1.09,2.69-4.44,4.52-7.29,3.84,.89-1.01,2.18-1.83,3.39-2.39,1.13-.67,2.58-1.31,3.9-1.45Z"/>
                <path class="cls-3" d="M503.71,165.22c-2.72,.83-3.87,4.55-4.52,7-.74,2.82-.9,5.78-.46,8.66,3.22-6.52,11.5-9.13,17.88-5.64-1.31-2.68-3.2-5.07-5.48-6.99-1.87-1.57-4.79-3.84-7.42-3.03Z"/>
                <path class="cls-3" d="M485.09,125.71c-1.47-4.34-4.98-6.76-9.5-6.98-.35-.02-2.3-.21-2.36,.18-.08,.58,.11,1.25,.22,1.82,.04,.25,.66,3.17,.27,3.15-.33-.02-.77-.82-.94-1.05-.4-.54-.78-1.13-1.25-1.62-.47-.49-.58,1.19-.63,1.5-.17,1.01-.22,2.04-.06,3.06,.31,1.93,1.35,3.62,2.54,5.13,.72,.92,1.5,1.79,2.29,2.65,1.28-.04,2.58-.21,3.8-.62,3.28-1.1,5.06-3.92,5.63-7.22-1.86-5.47-.97,5.67,0,0Zm-7.81-1.25c-1.16-1.79,1.62-3.59,2.78-1.8,1.16,1.79-1.62,3.59-2.78,1.8Z"/>
              </g>
            </g>
            <g>
              <g>
                <path class="cls-15" d="M361.74,273.33l-16.47,9.35,.37,.66c.21,.36,.68,.48,1.07,.26l15.08-8.56c.39-.22,.53-.69,.32-1.05l-.37-.66Z"/>
                <path class="cls-17" d="M346.62,238.16l.71,6.23,.51,4.46,4.5,11.7,6.85,7.03,3.01,3.08c.68,1.2,.26,2.72-.94,3.4l-15.12,8.58c-1.2,.68-2.72,.26-3.4-.94l-1.11-3.12-2.26-6.29-4.09-6.32-1.49-6-4.09-5.76-2.2-4.54-2.03-4.19c-.46-1.31,.24-2.73,1.54-3.18l16.44-5.69c1.3-.45,2.72,.24,3.18,1.54Z"/>
                <polygon class="cls-13" points="350.93 270.91 345.58 269.86 343.04 273.62 341.62 278.58 339.37 272.28 335.28 265.96 333.79 259.96 329.7 254.2 327.5 249.67 332.06 252.87 336.52 252.93 336.79 261.14 341.69 268.08 345.72 265.79 350.93 270.91"/>
                <polygon class="cls-13" points="352.34 260.54 359.19 267.57 356.96 267.23 349.68 261.63 343.43 262.71 346.43 257.38 344.7 249.53 342.01 246.93 335.55 246.36 340.86 244.17 345.72 247.44 347.33 244.38 347.84 248.84 352.34 260.54"/>
                <path class="cls-15" d="M340.72,242.83c-1.09,.62-2.29,1.17-3.57,1.63-4.79,1.74-10.18,2.04-11.19-.76-.67-1.85,1.02-4.13,4.53-6.12,1.09-.62,2.29-1.17,3.57-1.63,4.79-1.74,10.18-2.04,11.19,.76,.67,1.85-1.02,4.13-4.53,6.12Z"/>
                <path class="cls-25" d="M344.35,237.04c.67,1.86-2.7,4.78-7.53,6.54-4.83,1.75-9.3,1.67-9.97-.18-.67-1.86,2.7-4.78,7.53-6.54,4.83-1.75,9.3-1.67,9.97,.18Z"/>
                <path class="cls-26" d="M336.82,238.54c-.35,.08-.75,.36-.92,.64l-.8,1.32c-.17,.28-.06,.48,.26,.45l3.63-.26c.37-.03,.86-.34,1.06-.66l1.21-2.01c.2-.33,.01-.53-.4-.43l-4.04,.95Z"/>
                <g>
                  <path class="cls-23" d="M330.12,241.05l1.73-2.21c.26-.33,.8-.58,1.18-.56l3.62,.28c.31,.02,.42,.25,.26,.53l-.82,1.39c-.19,.31-.62,.59-1,.64l-4.62,.56c-.49,.06-.65-.24-.34-.64Z"/>
                  <path class="cls-25" d="M333.13,238.87l2.65,.2c.26,.02,.35,.21,.2,.45l-.34,.54c-.15,.25-.5,.47-.81,.5l-3.23,.37c-.38,.04-.52-.19-.29-.49l.83-1.1c.21-.28,.66-.49,.97-.47Z"/>
                  <polygon class="cls-23" points="332.61 241.07 334.15 238.85 335.03 238.84 333.57 241.04 332.61 241.07"/>
                  <path class="cls-15" d="M335.55,240.14c-.23,0-.31-.15-.19-.34,.12-.19,.39-.34,.61-.35,.22,0,.3,.14,.19,.33-.11,.19-.39,.35-.61,.36Z"/>
                </g>
              </g>
              <g>
                <path class="cls-15" d="M142.62,272.71c-.17,1.47-.85,2.85-1.92,3.88-1.99,1.92-3.19,4.52-3.36,7.29l-.74,12.65,17.51,12.78,1.43-24.37c.16-2.77-.73-5.49-2.48-7.63-.95-1.14-1.46-2.59-1.46-4.08v-1.55s.02-7.27,.02-7.27l.02-7.63v-.42s.63-.45,.63-.45h0s-.34-4.02-.34-4.02h-.02c.22-.13,.39-.37,.4-.66v-.02c.03-.45-.3-.84-.72-.86l-6.3-.37c-.43-.03-.79,.32-.82,.77v.02c-.02,.29,.12,.54,.32,.7h-.02s-.81,3.94-.81,3.94h0s.57,.53,.57,.53l-.04,.42-.87,7.58-.83,7.23-.18,1.54Z"/>
                <g class="cls-9">
                  <path class="cls-8" d="M144.21,269.83c-.1,.72-.19,1.45-.29,2.22-.05,.38-.1,.77-.15,1.16-.07,.38-.1,.73-.21,1.09-.19,.71-.47,1.43-.88,2.08-.21,.33-.42,.65-.68,.95-.12,.16-.26,.3-.4,.44l-.45,.47c-1.36,1.36-2.31,3.22-2.64,5.23-.14,1.05-.15,1.92-.21,2.84-.05,.91-.1,1.81-.14,2.69-.09,1.76-.17,3.46-.25,5.08-.05,1.16-.1,2.22-.14,3.3l1.3,.95c.1-1.32,.21-2.7,.31-4.16,.11-1.62,.22-3.32,.34-5.08,.06-.88,.11-1.78,.17-2.69,.06-.9,.09-1.87,.21-2.68,.28-1.68,1.06-3.24,2.18-4.39l.45-.48c.17-.17,.33-.34,.47-.53,.3-.36,.56-.76,.8-1.15,.47-.8,.79-1.66,.99-2.51,.12-.42,.16-.87,.21-1.27,.04-.39,.08-.78,.12-1.16,.07-.76,.15-1.51,.21-2.23,.13-1.44,.25-2.77,.36-4,.41-4.89,.56-7.93,.34-7.95-.22-.03-.76,2.97-1.47,7.82-.17,1.22-.36,2.55-.55,3.98Z"/>
                </g>
              </g>
              <path class="cls-21" d="M403.81,311.15c-1.32-4.5-2.79-8.16-4.24-9.09-4.51-2.88-15.59-21.05-21.77-24.71-6.18-3.65-33.36-12.85-31.69-18.02,2.53-7.8-32.84-18.93-39.29-21.76-5.72-2.51-28.5-37.59-30.83-39.59-2.33-2-21.85,14.77-20.49,17.43,1.36,2.66-19.14,26.8-19.14,26.8l-23.62,12.27-2.66,30.99s-17,16.82-18.11,19.73c-.28,.75,.94,3.01,2.89,5.95h208.96Z"/>
              <path class="cls-22" d="M146.24,311.15h44.72l11.06-5.93,31.56-19.75s21.77,20.36,23.12,19.73c1.35-.63,48.53-3.14,48.53-3.14l-11.56-40.11s-31.36-19.95-33.79-21.73c-2.43-1.77-22.34-18.38-22.34-18.38l-8.1,29.9-24.22-3.59-23.8,7.13-19.59-3.55-5.74,15.96-12.04,9.2-10.05,25.15,10.05,8.19,2.18,.89Z"/>
              <path class="cls-22" d="M437.43,311.15l-5.98-20.74s-31.36-19.95-33.79-21.73c-2.43-1.77-22.34-18.38-22.34-18.38l-8.1,29.9-24.22-3.59-23.8,7.13-19.59-3.55-5.74,15.96-12.04,9.2-2.31,5.78h157.9Z"/>
              <polygon class="cls-20" points="269.6 311.15 270.94 309.22 234.98 299.09 192.69 277.31 171.6 259.34 147.14 299.09 128.6 290.76 99.5 311.15 269.6 311.15"/>
              <path class="cls-14" d="M302.39,311.15c-3.4-6.79-8.64-14.4-8.64-14.4l-8.69-25.9-27.7,6.45-16.36-6.45v-23.69l-23.9-13.98-12.86,22.91-11.26,28.55,1.71,26.51h107.7Z"/>
              <g>
                <path class="cls-15" d="M211.43,263.1c.81,1.42,1.09,3.08,.8,4.68-.52,2.99,.1,6.07,1.74,8.63l7.53,11.69h23.79l-14.51-22.52c-1.65-2.56-4.2-4.4-7.14-5.16-1.58-.4-2.97-1.35-3.93-2.67l-1-1.37-4.69-6.46-4.92-6.78-.27-.37,.26-.8h0s-2.9-3.34-2.9-3.34h-.02c.11-.25,.11-.56-.07-.83h-.01c-.27-.43-.8-.56-1.2-.31l-5.82,3.75c-.39,.25-.5,.8-.23,1.21v.02c.18,.27,.46,.4,.75,.41h-.02s1.84,4.03,1.84,4.03h.01s.84,.1,.84,.1l.23,.4,4.14,7.28,3.94,6.94,.84,1.48Z"/>
                <g class="cls-9">
                  <path class="cls-8" d="M210.98,259.52c.38,.7,.77,1.41,1.17,2.15,.2,.37,.41,.75,.61,1.13,.19,.38,.38,.71,.52,1.1,.3,.75,.51,1.57,.57,2.41,.03,.42,.04,.85,0,1.28,0,.22-.04,.43-.07,.65l-.1,.71c-.33,2.08,.04,4.34,1.04,6.34,.55,1.02,1.11,1.8,1.65,2.66,.55,.84,1.08,1.66,1.61,2.48,1.06,1.62,2.09,3.18,3.07,4.67,.7,1.06,1.35,2.03,2.01,3.01h1.77c-.76-1.24-1.56-2.52-2.42-3.89-.95-1.51-1.95-3.08-2.98-4.72-.52-.82-1.05-1.65-1.59-2.49-.53-.84-1.13-1.72-1.55-2.51-.84-1.67-1.16-3.55-.9-5.3l.09-.72c.03-.26,.07-.52,.07-.78,.03-.52,0-1.03-.04-1.54-.1-1.01-.37-1.98-.75-2.87-.17-.45-.43-.88-.64-1.27-.22-.37-.44-.74-.65-1.11-.43-.73-.85-1.43-1.25-2.11-.81-1.36-1.57-2.62-2.27-3.77-2.8-4.6-4.64-7.39-4.85-7.27-.21,.12,1.24,3.12,3.76,7.88,.64,1.19,1.33,2.49,2.08,3.88Z"/>
                </g>
              </g>
              <g>
                <path class="cls-21" d="M390.22,298.55l1.4-3.09c1.26-2.77,1.42-5.91,.47-8.8-.52-1.54-.48-3.23,.11-4.75l.61-1.58,2.89-7.44,3.03-7.81,.17-.43,.81-.22h.01s1.23-4.24,1.23-4.24h-.02c.28-.06,.54-.23,.67-.52v-.02c.21-.45,.03-.97-.39-1.17l-6.31-2.86c-.43-.19-.94,.02-1.14,.47v.02c-.14,.29-.1,.6,.05,.84h-.02s-2.38,3.71-2.38,3.71h0s.37,.76,.37,.76l-.21,.41-3.88,7.42-3.69,7.08-.79,1.5c-.75,1.45-2,2.59-3.5,3.21-2.8,1.18-5.05,3.37-6.31,6.15l-5.15,11.35h21.96Z"/>
                <g class="cls-9">
                  <path class="cls-8" d="M371.43,298.55s0-.01,0-.02c.75-1.61,1.54-3.31,2.35-5.06,.4-.88,.81-1.78,1.23-2.68,.42-.89,.83-1.88,1.27-2.67,.95-1.61,2.36-2.9,3.97-3.63l.65-.32c.24-.11,.47-.22,.69-.36,.45-.25,.87-.55,1.27-.87,.8-.63,1.46-1.38,2.01-2.18,.28-.39,.5-.83,.72-1.22,.2-.39,.39-.77,.58-1.14,.38-.75,.74-1.49,1.1-2.19,.7-1.42,1.35-2.74,1.94-3.95,2.35-4.85,3.7-7.9,3.48-8.01-.22-.11-1.95,2.74-4.58,7.44-.65,1.18-1.37,2.47-2.13,3.85-.38,.69-.77,1.41-1.17,2.15-.2,.37-.41,.75-.61,1.13-.22,.36-.39,.71-.64,1.03-.47,.66-1.04,1.28-1.72,1.79-.34,.25-.69,.5-1.07,.7-.18,.11-.38,.2-.58,.29l-.65,.3c-1.93,.85-3.63,2.39-4.76,4.31-.56,1.02-.91,1.91-1.34,2.83-.41,.91-.81,1.81-1.21,2.7-.78,1.77-1.54,3.48-2.26,5.11-.11,.24-.2,.45-.3,.68h1.77Z"/>
                </g>
              </g>
              <g>
                <polygon class="cls-7" points="358.38 292.29 353.8 289.99 354.01 299.61 345.72 296.63 340.34 304.4 333.93 291.64 325.42 291.64 326.97 281.7 318.67 278.44 322.26 274.32 327.4 268.39 325.42 257.06 330.16 259.17 338.99 263.07 339.69 263.38 348.54 262.07 349.37 264.35 351.6 270.58 355.71 273.21 358.38 274.93 362.52 277.57 358.38 292.29"/>
                <polygon class="cls-15" points="358.38 292.29 353.8 289.99 354.01 299.61 345.72 296.63 340.34 304.4 333.93 291.64 325.42 291.64 326.97 281.7 318.67 278.44 322.26 274.32 328.05 278.14 334.22 275.45 330.68 286.04 337.47 287.43 337.47 292.25 344.53 292.25 340.6 282.48 344.53 276.79 345.37 284.39 350.48 287.43 351.87 282.48 357.81 282.48 358.38 274.93 362.52 277.57 358.38 292.29"/>
                <polygon class="cls-15" points="338.99 263.07 339.9 269.45 334.78 273.8 334.78 267.85 330.16 264.85 330.16 259.17 338.99 263.07"/>
                <path class="cls-15" d="M348.59,277.05l1.84-7.86-6.92,3.52v-4.86s3.95-2.28,5.86-3.5l2.24,6.23,4.1,2.63-7.12,3.84Z"/>
              </g>
              <g>
                <polygon class="cls-14" points="195.83 304.36 194.44 300.01 188.46 306.15 185.18 299.02 176.88 300.44 181 288.41 175.69 283 182.98 277.77 179.88 270.47 184.73 270.17 191.71 269.75 197.69 261.43 199.3 265.75 202.33 273.81 202.57 274.44 208.92 279.26 207.98 281.2 205.42 286.51 206.3 290.76 206.88 293.53 207.78 297.82 195.83 304.36"/>
                <polygon class="cls-17" points="195.83 304.36 194.44 300.01 188.46 306.15 185.18 299.02 176.88 300.44 181 288.41 175.69 283 182.98 277.77 179.88 270.47 184.73 270.17 185.92 276.24 191.48 278.49 182.53 282.84 185.89 288.03 182.82 291.04 187.22 295.52 190.99 286.93 197.05 285.88 192.75 291.16 194 296.3 198.01 294.1 201.72 297.88 206.88 293.53 207.78 297.82 195.83 304.36"/>
                <polygon class="cls-17" points="202.33 273.81 198.84 278.37 192.88 277.82 196.66 274.11 195.68 269.3 199.3 265.75 202.33 273.81"/>
                <path class="cls-17" d="M199.42,288.63l6.15-3.73-6.56-2.21,3.09-3.03s3.91,1.09,5.88,1.55l-2.57,5.31,.89,4.25-6.89-2.13Z"/>
              </g>
              <g>
                <polygon class="cls-22" points="268.06 269.58 269.32 264.61 259.97 266.89 261.09 258.15 252.35 254.57 263.44 245.57 261.61 237.26 271.65 236.63 273.04 227.83 277.84 230.44 284.74 234.19 295.38 229.82 294.34 234.89 292.42 244.36 292.28 245.11 295.45 253.48 293.4 254.77 287.8 258.3 286.12 262.87 285.02 265.84 283.32 270.46 268.06 269.58"/>
                <polygon class="cls-13" points="268.06 269.58 269.32 264.61 259.97 266.89 261.09 258.15 252.35 254.57 263.44 245.57 261.61 237.26 271.65 236.63 273.04 227.83 277.84 230.44 275.36 236.92 279.31 242.36 268.2 241.18 268.31 248.12 263.6 249.16 265.12 256.05 273.82 250.11 280.21 252.72 272.98 255.18 271.11 260.82 276.24 261.11 277.52 266.92 285.02 265.84 283.32 270.46 268.06 269.58"/>
                <polygon class="cls-13" points="292.42 244.36 286.39 246.63 281.04 242.56 286.85 241.28 288.78 236.12 294.34 234.89 292.42 244.36"/>
                <path class="cls-13" d="M280.83,256.74l8.07,.11-4.92-6.01,4.75-1.05s3.08,3.37,4.67,4.97l-5.6,3.52-1.68,4.57-5.28-6.13Z"/>
              </g>
              <path class="cls-17" d="M353.5,311.15c-13.93-16.72-28.58-34.24-28.58-34.24l-19.69-43.73-4.91,14.99-20.42,16-8.96,21.3-31.05,14.68v11h113.61Z"/>
              <g>
                <path class="cls-15" d="M287.97,291.69l-1.95,15.67-.62-.08c-.35-.04-.59-.37-.54-.74l1.78-14.35c.05-.37,.36-.63,.71-.59l.62,.08Z"/>
                <path class="cls-19" d="M319.89,292.11l-5.02,1.44-3.6,1.03-10.44,.27-7.6-3.03-3.33-1.34c-1.14-.14-2.18,.67-2.32,1.81l-1.79,14.39c-.14,1.14,.67,2.18,1.81,2.32l2.76-.14,5.57-.27,6.18,1.14,5.09-.77,5.74,1.31,4.2,.25,3.87,.22c1.15-.06,2.03-1.05,1.95-2.2l-.86-14.47c-.07-1.15-1.05-2.02-2.2-1.95Z"/>
                <polygon class="cls-13" points="293.28 299.25 295.8 303.04 293.71 306.19 290.35 308.86 295.91 308.59 302.09 309.73 307.18 308.96 312.92 310.27 317.12 310.52 311.6 307.36 312.77 301.26 305.32 307.02 298.41 305.47 298.89 301.62 293.28 299.25"/>
                <polygon class="cls-13" points="300.82 294.85 293.22 291.82 294.19 293.43 300.83 297.25 300.42 301.01 305.16 297.54 309 300.59 310.25 296.69 313.48 297.54 316.59 302.88 315.51 296.05 314.86 293.56 311.27 294.58 300.82 294.85"/>
                <path class="cls-15" d="M318.17,298.16c-.13,1.04-.17,2.14-.12,3.27,.19,4.25,1.68,8.49,4.15,8.38,1.64-.07,2.86-2.11,3.27-5.44,.13-1.04,.17-2.14,.12-3.27-.19-4.25-1.68-8.49-4.15-8.38-1.64,.07-2.86,2.11-3.27,5.44Z"/>
                <path class="cls-25" d="M321.48,293.51c-1.64,.07-2.82,3.6-2.63,7.89,.19,4.28,1.68,7.69,3.32,7.62,1.64-.07,2.82-3.6,2.63-7.89-.19-4.28-1.68-7.69-3.32-7.62Z"/>
                <path class="cls-26" d="M322.72,299.79c.05,.3-.04,.69-.2,.91l-.76,1.04c-.16,.22-.35,.2-.43-.05l-.96-2.88c-.1-.29-.02-.77,.17-1.03l1.16-1.58c.19-.26,.4-.18,.46,.17l.56,3.42Z"/>
                <g>
                  <path class="cls-23" d="M322.92,305.75l1.15-2.04c.17-.3,.19-.81,.05-1.09l-1.37-2.7c-.12-.23-.33-.25-.49-.03l-.81,1.08c-.18,.24-.26,.67-.17,.98l1.04,3.73c.11,.4,.39,.43,.6,.06Z"/>
                  <path class="cls-25" d="M323.64,302.74l-1-1.98c-.1-.19-.27-.2-.41-.01l-.31,.43c-.14,.2-.2,.54-.13,.79l.74,2.6c.09,.31,.31,.34,.47,.06l.58-.99c.15-.25,.17-.67,.05-.9Z"/>
                  <polygon class="cls-23" points="322.12 303.84 323.33 301.95 323.06 301.26 321.83 303.09 322.12 303.84"/>
                  <path class="cls-15" d="M321.89,301.28c.07,.18,.21,.19,.32,.04,.11-.15,.14-.41,.07-.58-.07-.17-.21-.19-.31-.04-.11,.15-.15,.41-.08,.59Z"/>
                </g>
              </g>
              <g>
                <path class="cls-26" d="M210.06,193.41c.35,1.38,.2,2.61-.33,2.74-.53,.14-1.25-.87-1.6-2.25-.35-1.38-.2-2.61,.33-2.74,.53-.14,1.25,.87,1.6,2.25Z"/>
                <path class="cls-26" d="M209.99,190.77c.2,.77-.33,1.57-1.17,1.78-.84,.21-1.69-.23-1.88-1-.2-.77,.33-1.57,1.17-1.78,.84-.21,1.69,.23,1.88,1Z"/>
                <g>
                  <path class="cls-26" d="M208.74,193.63c.11,.42-.08,.63-.45,1.12-.87,1.14-3.79,2.7-4.45,.12-.66-2.58,2.66-2.61,3.97-2.02,.56,.25,.82,.35,.93,.77Z"/>
                  <path class="cls-26" d="M209.39,193.46c.11,.42,.37,.52,.93,.77,1.31,.59,4.63,.56,3.97-2.02-.66-2.58-3.59-1.02-4.45,.12-.37,.49-.56,.7-.45,1.12Z"/>
                </g>
              </g>
              <g>
                <path class="cls-26" d="M263.53,181.99c.92,1.09,1.32,2.26,.9,2.61-.42,.36-1.51-.24-2.43-1.33-.92-1.09-1.32-2.26-.9-2.61,.42-.36,1.51,.24,2.42,1.33Z"/>
                <path class="cls-26" d="M262.3,179.65c.51,.61,.39,1.55-.28,2.11-.66,.56-1.62,.53-2.13-.08s-.39-1.55,.28-2.11c.66-.56,1.62-.53,2.13,.08Z"/>
                <g>
                  <path class="cls-26" d="M262.43,182.76c.28,.33,.21,.6,.09,1.21-.28,1.4-2.23,4.09-3.95,2.06-1.72-2.03,1.26-3.51,2.69-3.55,.62-.02,.89-.05,1.18,.29Z"/>
                  <path class="cls-26" d="M262.95,182.33c.28,.33,.56,.31,1.18,.29,1.43-.04,4.4-1.52,2.69-3.55-1.72-2.03-3.67,.65-3.95,2.06-.12,.61-.19,.87,.09,1.21Z"/>
                </g>
              </g>
              <g>
                <path class="cls-26" d="M299.37,187.67c.14,1.42-.19,2.61-.74,2.66s-1.1-1.05-1.24-2.47c-.14-1.42,.19-2.61,.74-2.66,.55-.05,1.1,1.05,1.24,2.47Z"/>
                <path class="cls-26" d="M299.7,185.04c.08,.79-.56,1.5-1.43,1.58-.87,.08-1.63-.49-1.71-1.28-.08-.79,.56-1.5,1.43-1.58,.87-.08,1.63,.49,1.71,1.28Z"/>
                <g>
                  <path class="cls-26" d="M298.03,187.68c.04,.43-.17,.61-.61,1.04-1.03,1-4.16,2.09-4.42-.55-.26-2.65,3.03-2.17,4.23-1.39,.52,.34,.76,.47,.8,.9Z"/>
                  <path class="cls-26" d="M298.71,187.62c.04,.43,.28,.57,.8,.9,1.2,.78,4.49,1.25,4.23-1.39-.26-2.65-3.39-1.55-4.42-.55-.44,.43-.66,.61-.61,1.04Z"/>
                </g>
              </g>
              <g>
                <path class="cls-26" d="M268.47,149.86c-1.18,.8-2.38,1.08-2.69,.62-.31-.46,.4-1.47,1.57-2.27,1.18-.8,2.38-1.08,2.69-.62,.31,.46-.4,1.47-1.57,2.27Z"/>
                <path class="cls-26" d="M270.93,148.9c-.66,.44-1.58,.22-2.07-.5-.49-.72-.35-1.66,.3-2.11,.66-.44,1.58-.22,2.07,.5,.49,.72,.35,1.66-.3,2.11Z"/>
                <g>
                  <path class="cls-26" d="M267.82,148.69c-.36,.25-.62,.14-1.21-.04-1.37-.43-3.83-2.65-1.63-4.15,2.2-1.49,3.36,1.62,3.25,3.05-.05,.62-.05,.89-.41,1.14Z"/>
                  <path class="cls-26" d="M268.2,149.25c-.36,.25-.36,.52-.41,1.14-.11,1.43,1.05,4.54,3.25,3.05,2.2-1.49-.26-3.72-1.63-4.15-.59-.18-.85-.29-1.21-.04Z"/>
                </g>
              </g>
              <g>
                <path class="cls-26" d="M293.97,127.86c-.65,1.27-1.57,2.1-2.06,1.85-.49-.25-.37-1.48,.28-2.75,.65-1.27,1.57-2.1,2.06-1.85,.49,.25,.37,1.48-.28,2.75Z"/>
                <path class="cls-26" d="M295.65,125.83c-.36,.71-1.28,.96-2.05,.57-.78-.39-1.11-1.29-.75-1.99,.36-.71,1.28-.96,2.05-.57s1.11,1.29,.75,1.99Z"/>
                <g>
                  <path class="cls-26" d="M292.83,127.15c-.2,.39-.47,.43-1.08,.55-1.4,.29-4.63-.47-3.43-2.84,1.21-2.37,3.72-.21,4.32,1.1,.26,.56,.39,.81,.19,1.2Z"/>
                  <path class="cls-26" d="M293.43,127.46c-.2,.39-.07,.63,.19,1.2,.59,1.3,3.11,3.47,4.32,1.1,1.21-2.37-2.02-3.13-3.43-2.84-.61,.12-.88,.16-1.08,.55Z"/>
                </g>
              </g>
              <g>
                <path class="cls-26" d="M318,216.86c1.04-.97,2.19-1.43,2.57-1.02s-.17,1.52-1.21,2.48c-1.04,.97-2.19,1.43-2.57,1.02-.37-.4,.17-1.52,1.21-2.48Z"/>
                <path class="cls-26" d="M315.71,218.19c.58-.54,1.53-.46,2.12,.18,.59,.64,.6,1.59,.02,2.13-.58,.54-1.53,.46-2.12-.18-.59-.64-.6-1.59-.02-2.13Z"/>
                <g>
                  <path class="cls-26" d="M318.82,217.91c.32-.3,.59-.24,1.2-.14,1.42,.21,4.19,2.04,2.24,3.85-1.95,1.81-3.56-1.09-3.67-2.52-.05-.62-.09-.89,.23-1.19Z"/>
                  <path class="cls-26" d="M318.36,217.42c.32-.3,.28-.57,.23-1.19-.11-1.43-1.72-4.33-3.67-2.52-1.95,1.81,.82,3.64,2.24,3.85,.61,.09,.88,.15,1.2-.14Z"/>
                </g>
              </g>
              <g>
                <path class="cls-26" d="M237.62,208.66c-1.05,.96-2.21,1.4-2.58,.99-.37-.41,.18-1.51,1.24-2.47,1.05-.96,2.21-1.4,2.58-.99,.37,.41-.18,1.51-1.24,2.47Z"/>
                <path class="cls-26" d="M239.92,207.35c-.59,.53-1.54,.44-2.12-.2-.59-.64-.58-1.6,0-2.13,.59-.53,1.54-.44,2.12,.2,.58,.64,.58,1.6,0,2.13Z"/>
                <g>
                  <path class="cls-26" d="M236.81,207.59c-.32,.29-.59,.23-1.2,.13-1.41-.23-4.17-2.09-2.2-3.87,1.97-1.79,3.55,1.13,3.65,2.56,.04,.62,.08,.89-.25,1.19Z"/>
                  <path class="cls-26" d="M237.26,208.09c-.32,.29-.29,.57-.25,1.19,.09,1.43,1.68,4.35,3.65,2.56,1.97-1.79-.78-3.64-2.2-3.87-.61-.1-.88-.16-1.2,.13Z"/>
                </g>
              </g>
              <g>
                <path class="cls-26" d="M236.31,156.81c.55,1.31,.58,2.55,.07,2.76-.51,.21-1.36-.68-1.91-2-.55-1.31-.58-2.55-.07-2.76,.51-.21,1.36,.68,1.91,2Z"/>
                <path class="cls-26" d="M235.85,154.21c.3,.73-.1,1.6-.9,1.93s-1.7,.01-2.01-.72c-.3-.73,.1-1.6,.9-1.93,.8-.33,1.7-.01,2.01,.72Z"/>
                <g>
                  <path class="cls-26" d="M235.04,157.22c.17,.4,.02,.64-.28,1.18-.69,1.25-3.36,3.22-4.39,.77-1.02-2.45,2.26-2.97,3.63-2.57,.6,.17,.87,.23,1.03,.63Z"/>
                  <path class="cls-26" d="M235.66,156.96c.17,.4,.44,.46,1.03,.63,1.38,.39,4.66-.12,3.63-2.57-1.02-2.46-3.7-.49-4.39,.77-.3,.54-.45,.77-.28,1.18Z"/>
                </g>
              </g>
              <g>
                <path class="cls-26" d="M255.29,107.79c-1.4,.27-2.62,.06-2.72-.48-.11-.54,.94-1.2,2.34-1.47,1.4-.27,2.62-.06,2.72,.48,.11,.54-.94,1.2-2.34,1.47Z"/>
                <path class="cls-26" d="M257.93,107.86c-.78,.15-1.54-.42-1.71-1.27-.17-.85,.33-1.67,1.11-1.82,.78-.15,1.54,.42,1.71,1.27s-.33,1.67-1.11,1.82Z"/>
                <g>
                  <path class="cls-26" d="M255.14,106.46c-.43,.08-.63-.11-1.1-.51-1.09-.93-2.49-3.94,.12-4.45,2.61-.51,2.46,2.8,1.8,4.08-.29,.55-.4,.8-.82,.89Z"/>
                  <path class="cls-26" d="M255.27,107.12c-.43,.08-.54,.34-.82,.89-.66,1.27-.81,4.59,1.8,4.08,2.61-.51,1.22-3.52,.12-4.45-.47-.4-.67-.6-1.1-.51Z"/>
                </g>
              </g>
            </g>
            <g>
              <path class="cls-16" d="M132.85,137.59l.59-7.66c.13-1.73-.79-3.28-2.22-4.06l.27-3.51c.74-9.68-4.84-18.36-13.26-22.04l.83-10.86-14.56-1.12-.83,10.86c-8.88,2.35-15.73,10.08-16.48,19.76l-.27,3.51c-1.53,.55-2.68,1.95-2.81,3.67l-.59,7.66c-.13,1.73,.79,3.28,2.22,4.06l-.47,6.14c-1.53,.55-2.68,1.95-2.81,3.67l-.59,7.66c-.13,1.73,.79,3.28,2.22,4.06l-.47,6.14c-1.53,.55-2.68,1.95-2.81,3.67l-.59,7.66c-.13,1.73,.79,3.28,2.22,4.06l-.47,6.14c-1.53,.55-2.68,1.95-2.81,3.67l-.59,7.66c-.13,1.73,.79,3.28,2.22,4.06l-.43,5.66,44.3,3.41,.43-5.66c1.53-.55,2.68-1.95,2.81-3.67l.59-7.66c.13-1.73-.79-3.28-2.22-4.06l.47-6.14c1.53-.55,2.68-1.95,2.81-3.67l.59-7.66c.13-1.73-.79-3.28-2.22-4.06l.47-6.14c1.53-.55,2.68-1.95,2.81-3.67l.59-7.66c.13-1.73-.79-3.28-2.22-4.06l.47-6.14c1.53-.55,2.68-1.95,2.81-3.67Z"/>
              <path class="cls-5" d="M101.36,112.52c-1.57,2.59-4.38,3.77-6.28,2.62-1.9-1.15-2.17-4.18-.6-6.77,1.57-2.59,4.38-3.77,6.28-2.62s2.17,4.18,.6,6.77Z"/>
              <path class="cls-6" d="M128.28,141.5l-40.85-3.14c-2.34-.18-4.1-2.22-3.92-4.57l.59-7.66c.18-2.34,2.22-4.1,4.57-3.92l40.85,3.14c2.34,.18,4.1,2.23,3.92,4.57l-.59,7.66c-.18,2.34-2.22,4.1-4.57,3.92Z"/>
              <path class="cls-6" d="M126.63,163.03l-40.85-3.14c-2.34-.18-4.1-2.22-3.92-4.57l.59-7.66c.18-2.34,2.22-4.1,4.57-3.92l40.85,3.14c2.34,.18,4.1,2.23,3.92,4.57l-.59,7.66c-.18,2.34-2.22,4.1-4.57,3.92Z"/>
              <rect class="cls-6" x="97.07" y="150.19" width="16.19" height="49.47" rx="4.25" ry="4.25" transform="translate(-77.3 266.38) rotate(-85.6)"/>
              <rect class="cls-6" x="95.42" y="171.72" width="16.19" height="49.47" rx="4.25" ry="4.25" transform="translate(-100.3 284.61) rotate(-85.6)"/>
              <rect class="cls-10" x="109.66" y="84.9" width="3.41" height="17.79" transform="translate(9.31 197.64) rotate(-85.6)"/>
            </g>
            <g>
              <polygon class="cls-7" points="389.14 176.14 386.51 167.24 374.06 179.43 367.73 164.79 350.79 167.29 359.74 143.02 349.2 131.77 364.25 121.5 358.29 106.51 368.18 106.14 382.38 105.6 394.92 88.96 397.99 97.83 403.76 114.34 404.22 115.64 416.91 125.73 414.92 129.65 409.45 140.32 411.06 148.99 412.09 154.64 413.73 163.4 389.14 176.14"/>
              <polygon class="cls-15" points="389.14 176.14 386.51 167.24 374.06 179.43 367.73 164.79 350.79 167.29 359.74 143.02 349.2 131.77 364.25 121.5 358.29 106.51 368.18 106.14 370.3 118.53 381.49 123.35 363.11 131.79 369.68 142.49 363.31 148.45 372.05 157.78 380.1 140.49 392.48 138.65 383.48 149.17 385.78 159.68 394.04 155.39 401.41 163.25 412.09 154.64 413.73 163.4 389.14 176.14"/>
              <polygon class="cls-15" points="403.76 114.34 396.46 123.45 384.37 122.05 392.24 114.69 390.47 104.87 397.99 97.83 403.76 114.34"/>
              <path class="cls-15" d="M397.16,144.33l12.67-7.29-13.22-4.8,6.43-6.02s7.9,2.4,11.88,3.42l-5.47,10.67,1.61,8.68-13.89-4.66Z"/>
            </g>
            <g>
              <path class="cls-19" d="M177.08,93.87c-4.5,1.01-9.18,.56-13.77,.09-2.65-.27-5.31-.54-7.96-.8,3.81,8.25,13.72,12.54,22.75,11.55,9.03-.99,17.08-6.43,23.15-13.2,6.07-6.76,10.45-14.83,14.95-22.72,4.51-7.89,9.29-15.78,15.97-21.95,2.14-1.98,4.71-4.79,3.34-7.37-1.04-1.95-3.71-2.25-5.9-1.94-8.83,1.25-15.92,8.09-20.61,15.67-4.69,7.58-7.62,16.13-12.11,23.84s-11.11,14.87-19.81,16.83Z"/>
              <path class="cls-19" d="M237.16,40.16c1.36,3.84,.6,8.13-.93,11.91s-3.78,7.2-5.56,10.86c-6.91,14.23-6.39,31.37-14.22,45.12-3.39,5.95-8.19,10.98-11.79,16.8-3.6,5.82-5.96,13.02-3.77,19.5-.28,.36-.56,.72-.84,1.08-5.38-5.71-7.2-14.1-6.33-21.89,.87-7.79,4.16-15.11,7.92-21.99s8.03-13.51,11.13-20.71c3.22-7.47,5.14-15.47,8.48-22.89,3.34-7.42,8.45-14.52,15.9-17.8Z"/>
              <path class="cls-22" d="M219.34,83.24c1.72-5.45,2.44-11.19,4.34-16.58,1.88-5.32,4.9-10.24,8.81-14.31,1.91-1.99,4.1-3.88,5.12-6.45,1.02-2.57,.32-6.1-2.25-7.11-1.5-.58-3.19-.18-4.71,.33-10.98,3.65-20.14,12.4-24.29,23.2-3.28,8.54-3.54,18.09-7.38,26.39-2.78,5.99-7.27,11-11.62,15.96-4.36,4.97-8.72,10.11-11.16,16.25-2.44,6.14-2.67,13.53,1.01,19.02,7.19-8.34,14.38-16.69,21.57-25.04,8.28-9.61,16.76-19.57,20.58-31.67Z"/>
              <path class="cls-17" d="M236.24,52.06c.02-8.61-7.66-6.01-7.66-6.01,2.1-3.29-1.81-7.37-6.86-5.78,2.46-1.52,5.4-3.11,8.37-3.1,1.28,0,2.59,.16,3.85-.07,2.98-.53,5.14-3.11,6.03-5.98,.9-2.88,.77-6.01,.62-9.07,1.23,.56,2.44,1.11,3.67,1.67,1.47,.67,2.95,1.35,4.43,2.03-2.78,3.49-5.69,6.87-8.32,10.49-2.36,3.25-2.12,6.73-2.32,9.94-.13,2.11-.44,4.1-1.8,5.89Z"/>
              <path class="cls-14" d="M231.32,43.2c6.75-4.35,11.54-11.6,12.94-19.48,1.47,.67,2.95,1.35,4.43,2.03-2.78,3.49-5.69,6.87-8.32,10.49-2.36,3.25-2.12,6.73-2.32,9.94-1.78-1.74-4.21-2.87-6.73-2.98Z"/>
            </g>
            <g>
              <path class="cls-22" d="M52.82,280.79c-1.1-2.92-2.2-5.83-3.29-8.75-.85,.41-1.69,.81-2.54,1.22-.41-4.09-2.54-7.98-5.77-10.53,2.68-5.62,9.5-8.56,15.67-7.71,6.17,.85,11.56,4.95,15.09,10.08s5.39,11.23,6.63,17.33c.53,2.63,.96,5.34,.47,7.98-.5,2.63-1.51,3.35-3.06,6.42-1.03-2.3-3.56-4.82-4.59-7.12-.42,1.28-2.37,1.32-3.4,.45-1.04-.87-1.5-2.22-2.26-3.34-1.78-2.63-5.4-3.85-8.41-2.82-.09-1.37-.19-2.74-.28-4.11-1.42,.3-2.85,.6-4.27,.9Z"/>
              <path class="cls-24" d="M54.88,232.64c-4.89-10.52-9.78-21.04-14.66-31.56,3.52-1.05,5.31-5.69,3.64-8.97-1.66-3.28-6.14-4.65-9.49-3.12-3.35,1.52-5.26,5.52-4.66,9.15-1.67-3.3-6.21-4.77-9.49-3.06s-4.7,6.27-2.95,9.53,6.32,4.62,9.56,2.84c5.69,12.21,11.38,24.42,17.07,36.63,2.58,.02,5.23,.02,7.63-.92,2.4-.94,4.53-3.04,4.7-5.61,.11-1.71-.62-3.34-1.35-4.9Z"/>
              <path class="cls-14" d="M42.06,217.97c1.5,6.71,3.01,13.42,4.51,20.12-3.71-3.35-7.47-8.93-11.18-12.28,2,11.87,4.05,25.97,6.05,37.84,4.63-2.88,10.55-3.59,15.74-1.91-.39,1.04-1.43,6.04-1.82,7.08,2.53-.91,3.98-4.58,6.61-4,2.63,.58,.03,6.73-.87,9.27,1.31,1.73,6.46-2.9,7.77-1.17,.76,3.08,.06,4.88-1.02,6.47,3.25,3.15,8.35-3.49,7.66-1.53-5.41,15.33,2.64,4.99,2.4,7.06-.24,2.07-1.89,11.9-1.89,11.9,0,0,4.54-4.55,6.05-6.83,5.65-8.55,2.74-20.11-1.92-29.24-6.41-12.58-15.81-23.63-27.2-31.97,.43,2.52,.86,5.05,1.29,7.57-4.06-6.13-8.12-12.25-12.18-18.38Z"/>
              <path class="cls-17" d="M82.25,278.6c.02-.99,.04-1.97,.06-2.96-.72-.1-1.51,.16-1.96,.73-.45,.57-.5,1.46-.04,2.03,.46,.57,1.4,.69,1.94,.2Z"/>
              <path class="cls-17" d="M76.28,271.94c-.52-.2-1.17,.01-1.47,.48-.3,.47-.22,1.15,.18,1.53,.52,.5,1.49,.38,1.87-.22,.39-.61,.08-1.53-.59-1.79Z"/>
              <path class="cls-17" d="M66.23,258.05c-.52-.2-1.17,.01-1.47,.48-.3,.47-.22,1.15,.18,1.53,.52,.5,1.49,.38,1.87-.22,.39-.61,.08-1.53-.59-1.79Z"/>
              <path class="cls-17" d="M78.42,263.31c-.82,.46-1.67,.95-2.22,1.72-.54,.77-.69,1.91-.06,2.62,.86,.98,2.67,.43,3.18-.76,.51-1.2-.01-2.62-.9-3.58Z"/>
              <path class="cls-17" d="M70.44,268.4c.87-.47,1.17-1.76,.59-2.57-.58-.8-1.9-.92-2.62-.24-.61,.58-.7,1.61-.21,2.29s1.51,.91,2.24,.51Z"/>
              <path class="cls-17" d="M73.52,255.67c-.69-.46-1.73-.04-2.04,.73-.31,.77,.04,1.69,.68,2.21,.64,.52,1.52,.68,2.34,.61-.52-1.15,.06-2.84-.99-3.55Z"/>
              <path class="cls-17" d="M66.47,250.59c-.62,.18-.93,.92-.84,1.56,.09,.64,.47,1.19,.83,1.72,.62-.22,1.24-.45,1.86-.67-.02-.62-.04-1.26-.33-1.81s-.93-.97-1.52-.79Z"/>
              <path class="cls-17" d="M60.8,247.21c-.11-.65-.26-1.37-.81-1.73-.48-.33-1.15-.26-1.66,0s-.92,.7-1.31,1.13c-.46,.5-.94,1.03-1.11,1.69-.18,.66,.05,1.48,.68,1.74,.4,.17,.87,.08,1.26,.27,1.06,.49,.77,2.44,1.88,2.79,.59,.18,1.22-.27,1.45-.84s.17-1.21,.09-1.82c-.13-1.08-.29-2.16-.47-3.24Z"/>
              <path class="cls-17" d="M58.27,257.72c.36-.55,.22-1.31-.17-1.85s-.96-.89-1.53-1.23c-1.01,.18-1.74,1.29-1.51,2.28s1.38,1.67,2.36,1.38c.33-.1,.64-.3,.83-.59Z"/>
              <path class="cls-17" d="M65.9,244.82c-.05-.64-.1-1.31-.41-1.88s-.92-1.03-1.56-.93c-.97,.15-1.33,1.55-.72,2.32,.61,.76,1.79,.87,2.69,.49Z"/>
              <path class="cls-17" d="M46.42,250.16c-.62,1.31,.06,3.07,1.39,3.65s3.07-.12,3.65-1.45c.67-1.52-.39-3.55-2.03-3.79-.3-.04-.61-.03-.91,.02-.89,.16-1.71,.75-2.1,1.57Z"/>
              <path class="cls-17" d="M52.78,237.43c-1.2,1.83-1.16,4.39,.1,6.18,1.01-.22,2.03-.45,3.04-.67-1.05-1.84-2.09-3.67-3.14-5.51Z"/>
              <path class="cls-17" d="M45.34,242.15c-.27,.11-.51,.31-.67,.55-.53,.78-.22,2.01,.63,2.44,.76,.33,1.76-.31,1.79-1.14,.23-.49,.14-1.12-.24-1.52-.37-.4-1-.53-1.5-.33Z"/>
            </g>
            <g>
              <rect class="cls-14" x="326.24" y="38.64" width="69.74" height="4.27" transform="translate(253.38 387.84) rotate(-79.2)"/>
              <g>
                <polygon class="cls-14" points="344.98 40.24 335.84 58.18 333.64 62.52 325.04 79.41 322.82 83.74 309.83 109.26 271.4 96.19 276.66 68.04 277.55 63.25 281.03 44.62 281.94 39.84 285.63 20.05 344.98 40.24"/>
                <g>
                  <path class="cls-25" d="M337.61,12.3l-46.39,.89c-2.7,.05-5.02,1.91-5.68,4.52l-2.21,8.84,62.67-1.21-2.55-8.75c-.75-2.59-3.15-4.35-5.85-4.3Z"/>
                  <path class="cls-1" d="M347.3,19.58l-65.5,1.26c-1.32,.03-2.37,1.12-2.34,2.43l.06,3.36,70.27-1.35-.06-3.36c-.03-1.32-1.12-2.37-2.43-2.34Z"/>
                </g>
                <polygon class="cls-4" points="335.84 58.18 333.64 62.52 325.04 79.41 322.82 83.74 276.66 68.04 277.55 63.25 281.03 44.62 281.94 39.84 335.84 58.18"/>
                <polygon class="cls-22" points="333.64 62.52 325.04 79.41 277.55 63.25 281.03 44.62 333.64 62.52"/>
                <path class="cls-4" d="M322.67,68.69c-3.45,10.13-14.46,15.55-24.59,12.11-10.13-3.45-15.55-14.46-12.11-24.59,3.45-10.13,14.46-15.55,24.59-12.11,10.13,3.45,15.55,14.46,12.11,24.59Z"/>
                <path class="cls-22" d="M318.33,67.22c-2.63,7.74-11.04,11.88-18.78,9.25-7.74-2.63-11.88-11.04-9.25-18.78,2.63-7.74,11.04-11.88,18.78-9.25,7.74,2.63,11.88,11.04,9.25,18.78Z"/>
                <path class="cls-17" d="M313.08,65.43c-1.65,4.84-6.9,7.42-11.74,5.78-4.84-1.65-7.42-6.9-5.78-11.74s6.9-7.42,11.74-5.78c4.84,1.65,7.42,6.9,5.78,11.74Z"/>
              </g>
            </g>
          </g>
        </g>
      </g>
    </g>
  </g>
</svg>