<?xml version="1.0" encoding="utf-8"?>
<!-- Generator: Adobe Illustrator 26.0.1, SVG Export Plug-In . SVG Version: 6.00 Build 0)  -->
<svg version="1.1" id="Layer_2_00000032634144179457964010000015882179801933387955_"
	 xmlns="http://www.w3.org/2000/svg" xmlns:xlink="http://www.w3.org/1999/xlink" x="0px" y="0px" viewBox="0 0 709.4 949.1"
	 style="enable-background:new 0 0 709.4 949.1;" xml:space="preserve">
<style type="text/css">
	.st0{fill:#82AD0B;}
	.st1{enable-background:new    ;}
	.st2{fill:#FFFFFF;}
	.st3{fill:#B5AD14;}
	.st4{fill:#B5AD14;stroke:#B5AD14;stroke-miterlimit:10;}
	.st5{fill:#E29F27;}
	.st6{fill:#F37826;}
	.st7{fill:#F37826;stroke:#F37826;stroke-miterlimit:10;}
	.st8{fill:#E75433;}
	.st9{fill:none;stroke:#003B7E;stroke-width:2;stroke-miterlimit:10;}
	.st10{fill:#003B7E;}
</style>
<path class="st0" d="M688.6,42H78.8c-16,0-26,18.5-18,33.3l61.2,113.3c3.7,6.9,10.6,11.1,18,11.1h487.3c7.4,0,14.3-4.2,18-11.1
	l61.2-113.3C714.6,60.5,704.6,42,688.6,42L688.6,42z"/>
<g class="st1">
	<path class="st2" d="M207.5,98.4h10.9c1.5,0,2.9,0.2,4.1,0.6s2.2,1,3,1.8c0.7,0.7,1.2,1.5,1.5,2.3s0.5,1.9,0.5,2.9v0.1
		c0,1-0.1,1.9-0.4,2.7c-0.3,0.8-0.7,1.5-1.2,2.1c-0.5,0.6-1.1,1.1-1.8,1.6c-0.7,0.4-1.5,0.8-2.4,1l6.6,9.3h-5.1l-6-8.5h-0.1h-5.3
		v8.5h-4.3V98.4z M218.1,110.5c1.5,0,2.8-0.4,3.7-1.1c0.9-0.7,1.4-1.7,1.4-3v-0.1c0-1.3-0.4-2.3-1.3-3s-2.1-1-3.8-1h-6.3v8.3H218.1z
		"/>
	<path class="st2" d="M240.8,123.3c-1.3,0-2.6-0.2-3.7-0.7c-1.2-0.5-2.2-1.1-3-2c-0.9-0.8-1.5-1.8-2-3c-0.5-1.2-0.7-2.5-0.7-3.9
		v-0.1c0-1.3,0.2-2.6,0.7-3.7c0.4-1.2,1.1-2.2,1.9-3.1c0.8-0.9,1.8-1.6,2.9-2.1c1.1-0.5,2.3-0.8,3.6-0.8c1.5,0,2.8,0.3,3.9,0.8
		c1.1,0.5,2,1.3,2.8,2.2c0.7,0.9,1.3,2,1.7,3.2c0.4,1.2,0.6,2.5,0.6,3.8c0,0.2,0,0.4,0,0.6c0,0.2,0,0.4-0.1,0.6h-13.6
		c0.2,1.5,0.8,2.7,1.8,3.5c1,0.8,2.1,1.2,3.5,1.2c1,0,2-0.2,2.7-0.6c0.8-0.4,1.5-0.9,2.3-1.6l2.5,2.2c-0.9,1-1.9,1.9-3.2,2.5
		C244,123,242.5,123.3,240.8,123.3z M245,112.4c-0.1-0.7-0.2-1.3-0.5-1.9c-0.2-0.6-0.5-1.1-0.9-1.5c-0.4-0.4-0.9-0.8-1.4-1
		c-0.5-0.3-1.2-0.4-1.9-0.4c-1.3,0-2.4,0.5-3.2,1.3c-0.9,0.9-1.4,2.1-1.6,3.5H245z"/>
	<path class="st2" d="M261.1,123.3c-1.1,0-2.2-0.2-3.2-0.6c-1-0.4-1.9-1-2.7-1.9c-0.8-0.8-1.4-1.8-1.9-3c-0.5-1.2-0.7-2.6-0.7-4.1
		v-0.1c0-1.5,0.2-2.9,0.7-4.1c0.5-1.2,1.1-2.2,1.9-3c0.8-0.8,1.7-1.4,2.7-1.9c1-0.4,2.1-0.6,3.2-0.6c1.5,0,2.8,0.3,3.8,1
		c1,0.7,1.8,1.4,2.5,2.3v-9.9h4.3v25.5h-4.3l0-3.1c-0.7,1-1.5,1.8-2.5,2.5C263.8,122.9,262.6,123.3,261.1,123.3z M262.1,119.6
		c0.7,0,1.4-0.1,2-0.4c0.7-0.3,1.2-0.7,1.7-1.2c0.5-0.5,0.9-1.1,1.2-1.9c0.3-0.7,0.4-1.5,0.4-2.4v-0.1c0-0.9-0.1-1.7-0.4-2.4
		c-0.3-0.7-0.7-1.4-1.2-1.9c-0.5-0.5-1.1-0.9-1.7-1.2c-0.7-0.3-1.3-0.4-2-0.4c-0.7,0-1.4,0.1-2,0.4s-1.2,0.7-1.7,1.2
		c-0.5,0.5-0.9,1.1-1.2,1.9c-0.3,0.7-0.4,1.6-0.4,2.5v0.1c0,0.9,0.1,1.7,0.4,2.4s0.7,1.4,1.2,1.9c0.5,0.5,1.1,0.9,1.7,1.2
		S261.4,119.6,262.1,119.6z"/>
	<path class="st2" d="M283.3,123.3c-2.1,0-3.7-0.6-4.9-1.9c-1.1-1.3-1.7-3-1.7-5.2v-11.8h4.3v10.5c0,1.4,0.3,2.6,1,3.3
		c0.7,0.8,1.6,1.2,2.9,1.2c1.2,0,2.2-0.4,3-1.2c0.8-0.8,1.1-1.9,1.1-3.4v-10.4h4.3v18.5H289V120c-0.6,0.9-1.4,1.7-2.3,2.3
		C285.8,123,284.7,123.3,283.3,123.3z"/>
	<path class="st2" d="M307.2,123.3c-1.4,0-2.6-0.3-3.8-0.8c-1.2-0.5-2.2-1.2-3-2s-1.5-1.9-2-3s-0.7-2.4-0.7-3.7v-0.1
		c0-1.3,0.2-2.5,0.7-3.7c0.5-1.2,1.2-2.2,2-3.1s1.9-1.6,3.1-2.1c1.2-0.5,2.5-0.8,3.8-0.8c1.8,0,3.2,0.3,4.4,0.9
		c1.2,0.6,2.2,1.4,3,2.3L312,110c-0.7-0.7-1.3-1.2-2.1-1.7c-0.7-0.4-1.6-0.6-2.7-0.6c-0.8,0-1.5,0.2-2.1,0.5
		c-0.7,0.3-1.2,0.7-1.7,1.3c-0.5,0.5-0.8,1.1-1.1,1.9c-0.3,0.7-0.4,1.5-0.4,2.3v0.1c0,0.8,0.1,1.6,0.4,2.3c0.3,0.7,0.6,1.4,1.1,1.9
		c0.5,0.5,1.1,1,1.8,1.3c0.7,0.3,1.4,0.5,2.2,0.5c1,0,1.9-0.2,2.6-0.6s1.5-1,2.2-1.7l2.6,2.5c-0.9,1-1.9,1.9-3.1,2.5
		C310.5,123,309,123.3,307.2,123.3z"/>
	<path class="st2" d="M327.1,123.3c-1.3,0-2.6-0.2-3.7-0.7c-1.2-0.5-2.2-1.1-3-2c-0.9-0.8-1.5-1.8-2-3c-0.5-1.2-0.7-2.5-0.7-3.9
		v-0.1c0-1.3,0.2-2.6,0.7-3.7c0.4-1.2,1.1-2.2,1.9-3.1c0.8-0.9,1.8-1.6,2.9-2.1c1.1-0.5,2.3-0.8,3.6-0.8c1.5,0,2.8,0.3,3.9,0.8
		c1.1,0.5,2,1.3,2.8,2.2c0.7,0.9,1.3,2,1.7,3.2c0.4,1.2,0.6,2.5,0.6,3.8c0,0.2,0,0.4,0,0.6c0,0.2,0,0.4-0.1,0.6h-13.6
		c0.2,1.5,0.8,2.7,1.8,3.5c1,0.8,2.1,1.2,3.5,1.2c1,0,2-0.2,2.7-0.6c0.8-0.4,1.5-0.9,2.3-1.6l2.5,2.2c-0.9,1-1.9,1.9-3.2,2.5
		C330.2,123,328.8,123.3,327.1,123.3z M331.3,112.4c-0.1-0.7-0.2-1.3-0.5-1.9c-0.2-0.6-0.5-1.1-0.9-1.5c-0.4-0.4-0.9-0.8-1.4-1
		c-0.5-0.3-1.2-0.4-1.9-0.4c-1.3,0-2.4,0.5-3.2,1.3c-0.9,0.9-1.4,2.1-1.6,3.5H331.3z"/>
	<path class="st2" d="M350.7,98.4h18.2v3.9H355v6.8h12.4v3.9H355v10h-4.3V98.4z"/>
	<path class="st2" d="M382,123.3c-1.4,0-2.7-0.3-3.9-0.8c-1.2-0.5-2.2-1.2-3.1-2s-1.6-1.9-2-3c-0.5-1.2-0.7-2.4-0.7-3.7v-0.1
		c0-1.3,0.2-2.6,0.8-3.7c0.5-1.2,1.2-2.2,2.1-3.1s1.9-1.6,3.1-2.1c1.2-0.5,2.5-0.8,3.9-0.8c1.4,0,2.7,0.3,3.9,0.8
		c1.2,0.5,2.2,1.2,3.1,2.1s1.6,1.9,2,3c0.5,1.2,0.7,2.4,0.7,3.7v0.1c0,1.3-0.3,2.5-0.8,3.7c-0.5,1.2-1.2,2.2-2.1,3.1
		s-1.9,1.6-3.1,2.1C384.7,123.1,383.4,123.3,382,123.3z M382,119.6c0.9,0,1.6-0.2,2.3-0.5c0.7-0.3,1.3-0.7,1.8-1.3
		c0.5-0.5,0.9-1.2,1.1-1.9c0.3-0.7,0.4-1.5,0.4-2.3v-0.1c0-0.8-0.1-1.6-0.4-2.3c-0.3-0.7-0.7-1.4-1.2-1.9c-0.5-0.5-1.1-1-1.8-1.3
		c-0.7-0.3-1.4-0.5-2.3-0.5s-1.6,0.2-2.3,0.5c-0.7,0.3-1.3,0.7-1.8,1.3c-0.5,0.5-0.9,1.1-1.1,1.9s-0.4,1.5-0.4,2.3v0.1
		c0,0.8,0.1,1.6,0.4,2.3s0.7,1.3,1.2,1.9c0.5,0.5,1.1,1,1.8,1.3C380.5,119.5,381.2,119.6,382,119.6z"/>
	<path class="st2" d="M405,123.3c-1.4,0-2.7-0.3-3.9-0.8c-1.2-0.5-2.2-1.2-3.1-2s-1.6-1.9-2-3c-0.5-1.2-0.7-2.4-0.7-3.7v-0.1
		c0-1.3,0.2-2.6,0.8-3.7c0.5-1.2,1.2-2.2,2.1-3.1s1.9-1.6,3.1-2.1c1.2-0.5,2.5-0.8,3.9-0.8c1.4,0,2.7,0.3,3.9,0.8
		c1.2,0.5,2.2,1.2,3.1,2.1s1.6,1.9,2,3c0.5,1.2,0.7,2.4,0.7,3.7v0.1c0,1.3-0.3,2.5-0.8,3.7c-0.5,1.2-1.2,2.2-2.1,3.1
		s-1.9,1.6-3.1,2.1C407.7,123.1,406.4,123.3,405,123.3z M405,119.6c0.9,0,1.6-0.2,2.3-0.5c0.7-0.3,1.3-0.7,1.8-1.3
		c0.5-0.5,0.9-1.2,1.1-1.9c0.3-0.7,0.4-1.5,0.4-2.3v-0.1c0-0.8-0.1-1.6-0.4-2.3c-0.3-0.7-0.7-1.4-1.2-1.9c-0.5-0.5-1.1-1-1.8-1.3
		c-0.7-0.3-1.4-0.5-2.3-0.5s-1.6,0.2-2.3,0.5c-0.7,0.3-1.3,0.7-1.8,1.3c-0.5,0.5-0.9,1.1-1.1,1.9s-0.4,1.5-0.4,2.3v0.1
		c0,0.8,0.1,1.6,0.4,2.3s0.7,1.3,1.2,1.9c0.5,0.5,1.1,1,1.8,1.3C403.5,119.5,404.2,119.6,405,119.6z"/>
	<path class="st2" d="M426.8,123.3c-1.1,0-2.2-0.2-3.2-0.6c-1-0.4-1.9-1-2.7-1.9s-1.4-1.8-1.9-3c-0.5-1.2-0.7-2.6-0.7-4.1v-0.1
		c0-1.5,0.2-2.9,0.7-4.1c0.5-1.2,1.1-2.2,1.9-3c0.8-0.8,1.7-1.4,2.7-1.9s2.1-0.6,3.2-0.6c1.5,0,2.8,0.3,3.8,1c1,0.7,1.8,1.4,2.5,2.3
		v-9.9h4.3v25.5h-4.3l0-3.1c-0.7,1-1.5,1.8-2.5,2.5S428.3,123.3,426.8,123.3z M427.8,119.6c0.7,0,1.4-0.1,2-0.4
		c0.7-0.3,1.2-0.7,1.7-1.2c0.5-0.5,0.9-1.1,1.2-1.9c0.3-0.7,0.4-1.5,0.4-2.4v-0.1c0-0.9-0.1-1.7-0.4-2.4c-0.3-0.7-0.7-1.4-1.2-1.9
		c-0.5-0.5-1.1-0.9-1.7-1.2c-0.7-0.3-1.3-0.4-2-0.4c-0.7,0-1.4,0.1-2,0.4s-1.2,0.7-1.7,1.2c-0.5,0.5-0.9,1.1-1.2,1.9
		c-0.3,0.7-0.4,1.6-0.4,2.5v0.1c0,0.9,0.1,1.7,0.4,2.4c0.3,0.7,0.7,1.4,1.2,1.9c0.5,0.5,1.1,0.9,1.7,1.2S427.1,119.6,427.8,119.6z"
		/>
	<path class="st2" d="M451.7,98.4h4.7l5.8,18.2l6-18.2h3.6l6,18.2l5.8-18.2h4.5l-8.5,24.7H476l-6-17.6l-6,17.6h-3.7L451.7,98.4z"/>
	<path class="st2" d="M503.5,122.9v-2.3c-0.6,0.7-1.4,1.4-2.4,1.9c-1,0.5-2.2,0.8-3.6,0.8c-0.9,0-1.7-0.1-2.5-0.4
		c-0.8-0.2-1.5-0.6-2.1-1.1c-0.6-0.5-1.1-1.1-1.4-1.8c-0.4-0.7-0.5-1.5-0.5-2.5v-0.1c0-1,0.2-1.9,0.6-2.7c0.4-0.8,0.9-1.4,1.6-1.9
		s1.5-0.9,2.4-1.1c0.9-0.2,1.9-0.4,3-0.4c1.1,0,2.1,0.1,2.9,0.2c0.8,0.1,1.5,0.3,2.3,0.6v-0.4c0-1.3-0.4-2.3-1.2-2.9
		c-0.8-0.7-1.9-1-3.4-1c-1.1,0-2,0.1-2.8,0.3s-1.6,0.5-2.5,0.8l-1.2-3.4c1-0.5,2.1-0.8,3.2-1.1c1.1-0.3,2.4-0.4,3.9-0.4
		c2.8,0,4.8,0.7,6.1,2c1.3,1.4,2,3.3,2,5.8v11H503.5z M503.6,115.2c-0.5-0.2-1.2-0.4-1.9-0.5c-0.7-0.1-1.5-0.2-2.3-0.2
		c-1.3,0-2.4,0.3-3.1,0.8c-0.7,0.5-1.1,1.2-1.1,2.1v0.1c0,0.9,0.3,1.6,1,2s1.5,0.7,2.5,0.7c0.7,0,1.3-0.1,1.9-0.3
		c0.6-0.2,1.1-0.4,1.6-0.8c0.4-0.3,0.8-0.7,1-1.2c0.2-0.5,0.4-1,0.4-1.6V115.2z"/>
	<path class="st2" d="M519.1,123.2c-1.3,0-2.7-0.2-4-0.7c-1.4-0.5-2.6-1.2-3.8-2.1l1.9-2.9c1,0.7,2,1.3,3.1,1.7c1,0.4,2,0.6,3,0.6
		c0.9,0,1.6-0.2,2.1-0.5c0.5-0.4,0.8-0.8,0.8-1.4v-0.1c0-0.3-0.1-0.7-0.3-0.9s-0.5-0.5-0.9-0.7c-0.4-0.2-0.8-0.4-1.3-0.5
		c-0.5-0.2-1-0.3-1.6-0.5c-0.7-0.2-1.4-0.4-2-0.7c-0.7-0.3-1.3-0.6-1.9-1c-0.5-0.4-1-0.9-1.3-1.5c-0.3-0.6-0.5-1.4-0.5-2.2v-0.1
		c0-0.9,0.2-1.6,0.5-2.3c0.3-0.7,0.8-1.3,1.4-1.8c0.6-0.5,1.3-0.9,2.1-1.1c0.8-0.3,1.7-0.4,2.6-0.4c1.2,0,2.3,0.2,3.5,0.6
		c1.2,0.4,2.3,0.9,3.3,1.6l-1.7,3c-0.9-0.5-1.8-1-2.7-1.3c-0.9-0.3-1.8-0.5-2.5-0.5c-0.8,0-1.5,0.2-1.9,0.5
		c-0.5,0.3-0.7,0.8-0.7,1.3v0.1c0,0.3,0.1,0.6,0.3,0.9c0.2,0.2,0.5,0.5,0.9,0.7s0.8,0.4,1.3,0.6s1,0.3,1.6,0.5
		c0.7,0.2,1.4,0.5,2,0.7c0.7,0.3,1.3,0.6,1.8,1c0.5,0.4,1,0.9,1.3,1.5c0.4,0.6,0.5,1.3,0.5,2.1v0.1c0,1-0.2,1.8-0.5,2.5
		c-0.3,0.7-0.8,1.3-1.5,1.8c-0.6,0.5-1.3,0.8-2.2,1.1S520,123.2,519.1,123.2z"/>
	<path class="st2" d="M536.5,123.2c-0.8,0-1.5-0.1-2.1-0.3c-0.7-0.2-1.2-0.5-1.7-0.9s-0.9-1-1.1-1.7c-0.3-0.7-0.4-1.5-0.4-2.6v-9.7
		h-2.3v-3.6h2.3v-5.1h4.3v5.1h5v3.6h-5v9.1c0,0.8,0.2,1.4,0.6,1.8c0.4,0.4,1,0.5,1.7,0.5c0.9,0,1.8-0.2,2.6-0.6v3.5
		c-0.5,0.3-1.1,0.5-1.7,0.7C538,123.1,537.3,123.2,536.5,123.2z"/>
	<path class="st2" d="M553.1,123.3c-1.3,0-2.6-0.2-3.7-0.7c-1.2-0.5-2.2-1.1-3-2s-1.5-1.8-2-3c-0.5-1.2-0.7-2.5-0.7-3.9v-0.1
		c0-1.3,0.2-2.6,0.7-3.7c0.4-1.2,1.1-2.2,1.9-3.1s1.8-1.6,2.9-2.1s2.3-0.8,3.6-0.8c1.5,0,2.8,0.3,3.9,0.8c1.1,0.5,2,1.3,2.8,2.2
		c0.7,0.9,1.3,2,1.7,3.2c0.4,1.2,0.6,2.5,0.6,3.8c0,0.2,0,0.4,0,0.6s0,0.4-0.1,0.6h-13.6c0.2,1.5,0.8,2.7,1.8,3.5
		c1,0.8,2.1,1.2,3.5,1.2c1,0,2-0.2,2.7-0.6c0.8-0.4,1.5-0.9,2.3-1.6l2.5,2.2c-0.9,1-1.9,1.9-3.2,2.5
		C556.2,123,554.8,123.3,553.1,123.3z M557.3,112.4c-0.1-0.7-0.2-1.3-0.5-1.9s-0.5-1.1-0.9-1.5c-0.4-0.4-0.9-0.8-1.4-1
		c-0.5-0.3-1.2-0.4-1.9-0.4c-1.3,0-2.4,0.5-3.2,1.3c-0.9,0.9-1.4,2.1-1.6,3.5H557.3z"/>
</g>
<circle class="st2" cx="383.7" cy="41.8" r="41.8"/>
<g>
	<path class="st0" d="M398.4,28.8c-0.3-0.2-0.6-0.4-0.8-0.5c-3.1-2.2-6.3-1.2-9.4-0.2c-1.4,0.4-2.9,0.9-4.3,1
		c-0.2-1.7-0.2-6,3.6-12.7c0.3-0.5,0.1-1.1-0.4-1.4c-0.5-0.3-1.1-0.1-1.4,0.4c-2.1,3.8-3.2,6.9-3.6,9.3c-2.2-4.2-6.7-9.5-15.5-9.9
		c-0.3,0-0.5,0.1-0.8,0.3c-0.2,0.2-0.3,0.4-0.3,0.7c-0.1,5.1,1.6,8.8,5.5,11.5c-0.8,0.2-1.7,0.5-2.5,1.1c-0.9,0.7-1.8,1.5-2.7,2.4
		c0,0,0,0,0,0c0,0,0,0,0,0c0,0-0.1,0.1-0.1,0.2l0,0c0,0.1-0.1,0.2-0.1,0.2c0,0,0,0,0,0.1c0,0.1,0,0.1,0,0.2c0,0,0,0,0,0
		c0,0.1,0,0.2,0.1,0.2v0c0,0,0,0,0,0c0,0.1,0.1,0.1,0.1,0.2c0,0,0,0,0,0c0,0.1,0.1,0.1,0.2,0.2c0,0,3.6,3,5.9,8.2
		c3,7.1,2.2,14.9-2.4,23c0,0,0,0.1,0,0.1c0,0,0,0,0,0c0,0,0,0,0,0c0,0.1,0,0.2-0.1,0.2c0,0,0,0,0,0c0,0.1,0,0.1,0,0.2c0,0,0,0,0,0.1
		c0,0.1,0,0.2,0.1,0.2c0,0,0,0,0,0c0,0.1,0.1,0.1,0.1,0.2c0,0,0,0,0,0c1.8,2.1,6.1,3.4,7.5,3.7c2,0.4,2.7,0.3,3.8,0.2
		c0.6-0.1,1.2-0.2,2.4-0.2c1.2,0,1.8,0.1,2.4,0.2c0.7,0.1,1.2,0.2,2.1,0.1c0.4-0.1,1-0.1,1.6-0.3c0.6-0.1,2.5-0.8,3.9-1.4
		c3.5-1.3,3.5-1.4,3.6-1.9c0.1-0.4,0-0.8-0.3-1c-0.1-0.1-0.2-0.2-0.3-0.2c-8.7-18,2.7-29,4.5-30.5c0.7-0.1,0.9-0.6,1-0.8
		C402.1,31.4,401.1,30.6,398.4,28.8L398.4,28.8L398.4,28.8z M367.6,17c9.8,1,13.1,8.8,14.1,12.1c-1-0.2-2-0.4-2.8-0.6
		c-0.3-0.1-0.6-0.2-1-0.3c-0.2-0.1-0.5-0.1-0.8-0.2C369.3,25.4,367.7,21.1,367.6,17L367.6,17L367.6,17z M369.7,30.1
		c2-1.4,4.1-1,6.5-0.3c0.7,0.2,1.5,0.5,2.3,0.7c0.9,0.3,1.9,0.5,2.9,0.6c0.5,0.1,1,0.2,1.5,0.2c0.1,0,0.2,0,0.3,0
		c0.2,0,0.3-0.1,0.5-0.2c1.8-0.1,3.5-0.6,5.2-1.1c2.9-0.9,5.3-1.6,7.6-0.1c0.2,0.1,0.5,0.3,0.8,0.6c0.4,0.2,0.9,0.6,1.5,1
		c-1.9,0.5-3.1,1.9-4.1,3c-0.4,0.5-1.2,1.2-1.4,1.2c0,0,0,0-0.1,0l-0.2-0.1c-1.5-0.9-3.2-1.9-5.5-1.7c-0.9,0.1-1.9,0.4-3,0.9
		c-3.2,1.6-8,0.4-10.9-1.7c-1.8-1.2-3.5-1.9-4.7-2.3C369,30.6,369.4,30.4,369.7,30.1L369.7,30.1L369.7,30.1z M389,66.4
		c-1.8,0.4-2.3,0.3-3.1,0.2c-0.6-0.1-1.3-0.2-2.7-0.2c-0.8,0-1.4,0-1.8,0.1c-0.3,0-0.6,0.1-0.9,0.1c-0.8,0.1-1.3,0.2-3.1-0.2
		c-0.9-0.2-3-0.8-4.6-1.7c1.6-0.3,3.9-0.9,6-1.8c1.5-0.6,2.5-0.3,3.6,0.2c1.2,0.4,2.7,1,4.6-0.1c1.5,0.3,2.8,1,4,1.6
		c0.4,0.2,0.8,0.4,1.1,0.6C390.8,65.8,389.4,66.3,389,66.4C389,66.4,389,66.4,389,66.4z M394.1,63.8c-0.6-0.2-1.2-0.5-2.1-1
		c-1.4-0.8-3-1.7-5.1-1.9c-0.2,0-0.5,0-0.7,0.2c-1.2,0.8-1.9,0.5-3.1,0.1c-1.3-0.5-2.8-1-5.1-0.1c-2.1,0.8-4.3,1.4-5.9,1.7
		c7.1-14.2,1.5-24.5-2.3-29.1c0.7,0.3,1.5,0.8,2.3,1.3c3.4,2.4,9,3.8,13,1.8c3-1.5,4.6-0.5,6.6,0.7l0.2,0.1c0.5,0.3,0.9,0.4,1.3,0.3
		c0.9-0.1,1.7-0.8,2.4-1.5C392.1,41.6,388.4,51.1,394.1,63.8L394.1,63.8L394.1,63.8z"/>
	<path class="st0" d="M380.7,46.3c-0.6,0-1,0.5-1,1l0,4.2c0,0.6,0.5,1,1,1c0,0,0.1,0,0.1,0c0.5,0,0.9-0.5,0.9-1l0-4.2
		C381.7,46.7,381.3,46.3,380.7,46.3L380.7,46.3L380.7,46.3z"/>
	<path class="st0" d="M384.8,46.2c-0.6,0-1,0.5-1,1l0,4.2c0,0.6,0.5,1,1,1c0,0,0.1,0,0.1,0c0.5,0,0.9-0.5,0.9-1l0-4.2
		C385.9,46.7,385.4,46.2,384.8,46.2L384.8,46.2L384.8,46.2z"/>
</g>
<path class="st3" d="M633.2,259.8h-499c-13.1,0-21.3,13.7-14.7,24.7l50.1,84c3,5.1,8.6,8.2,14.7,8.2h398.8c6.1,0,11.7-3.1,14.7-8.2
	l50.1-84C654.4,273.5,646.2,259.8,633.2,259.8L633.2,259.8z"/>
<g class="st1">
	<path class="st2" d="M205.9,322.3h9.1c1.9,0,3.7,0.3,5.3,0.9c1.6,0.6,3,1.5,4.1,2.6c1.2,1.1,2,2.4,2.7,3.9c0.6,1.5,0.9,3.1,0.9,4.8
		v0.1c0,1.7-0.3,3.3-0.9,4.8c-0.6,1.5-1.5,2.8-2.7,3.9c-1.2,1.1-2.5,2-4.1,2.6c-1.6,0.6-3.4,0.9-5.3,0.9h-9.1V322.3z M215,342.9
		c1.3,0,2.5-0.2,3.5-0.6s1.9-1,2.7-1.7c0.7-0.7,1.3-1.6,1.7-2.6c0.4-1,0.6-2.1,0.6-3.3v-0.1c0-1.2-0.2-2.3-0.6-3.3
		c-0.4-1-1-1.9-1.7-2.7c-0.7-0.7-1.6-1.3-2.7-1.7s-2.2-0.6-3.5-0.6h-4.8v16.7H215z"/>
	<path class="st2" d="M241.6,347.2c-1.4,0-2.7-0.3-3.9-0.8c-1.2-0.5-2.2-1.2-3.1-2s-1.6-1.9-2-3c-0.5-1.2-0.7-2.4-0.7-3.7v-0.1
		c0-1.3,0.3-2.6,0.8-3.7c0.5-1.2,1.2-2.2,2.1-3.1s1.9-1.6,3.1-2.1c1.2-0.5,2.5-0.8,3.9-0.8c1.4,0,2.7,0.3,3.9,0.8
		c1.2,0.5,2.2,1.2,3.1,2.1s1.6,1.9,2,3c0.5,1.2,0.7,2.4,0.7,3.7v0.1c0,1.3-0.3,2.5-0.8,3.7c-0.5,1.2-1.2,2.2-2.1,3.1
		s-1.9,1.6-3.1,2.1C244.3,346.9,243,347.2,241.6,347.2z M241.6,343.5c0.9,0,1.6-0.2,2.3-0.5s1.3-0.7,1.8-1.3
		c0.5-0.5,0.9-1.2,1.1-1.9c0.3-0.7,0.4-1.5,0.4-2.3v-0.1c0-0.8-0.1-1.6-0.4-2.3c-0.3-0.7-0.7-1.4-1.2-1.9c-0.5-0.5-1.1-1-1.8-1.3
		c-0.7-0.3-1.4-0.5-2.3-0.5s-1.6,0.2-2.3,0.5c-0.7,0.3-1.3,0.7-1.8,1.3c-0.5,0.5-0.9,1.1-1.1,1.9s-0.4,1.5-0.4,2.3v0.1
		c0,0.8,0.1,1.6,0.4,2.3c0.3,0.7,0.7,1.3,1.2,1.9c0.5,0.5,1.1,1,1.8,1.3S240.8,343.5,241.6,343.5z"/>
	<path class="st2" d="M255.8,328.3h4.3v2.9c0.3-0.4,0.6-0.9,1-1.3c0.4-0.4,0.8-0.7,1.3-1c0.5-0.3,1-0.5,1.6-0.7s1.2-0.3,1.9-0.3
		c2.1,0,3.7,0.6,4.9,1.9c1.1,1.3,1.7,3,1.7,5.2v11.8h-4.3v-10.5c0-1.4-0.3-2.6-1-3.3c-0.7-0.8-1.6-1.2-2.9-1.2c-1.2,0-2.2,0.4-3,1.2
		c-0.8,0.8-1.1,1.9-1.1,3.4v10.4h-4.3V328.3z"/>
	<path class="st2" d="M288.8,346.8v-2.3c-0.6,0.7-1.4,1.4-2.4,1.9c-1,0.5-2.2,0.8-3.6,0.8c-0.9,0-1.7-0.1-2.5-0.4
		c-0.8-0.2-1.5-0.6-2.1-1.1c-0.6-0.5-1.1-1.1-1.4-1.8s-0.5-1.5-0.5-2.5v-0.1c0-1,0.2-1.9,0.6-2.7c0.4-0.8,0.9-1.4,1.6-1.9
		s1.5-0.9,2.4-1.1c0.9-0.2,1.9-0.4,3-0.4c1.1,0,2.1,0.1,2.9,0.2c0.8,0.1,1.5,0.3,2.3,0.6v-0.4c0-1.3-0.4-2.3-1.2-2.9
		c-0.8-0.7-1.9-1-3.4-1c-1.1,0-2,0.1-2.8,0.3c-0.8,0.2-1.6,0.5-2.5,0.8l-1.2-3.4c1-0.5,2.1-0.8,3.2-1.1c1.1-0.3,2.4-0.4,3.9-0.4
		c2.8,0,4.8,0.7,6.1,2c1.3,1.4,2,3.3,2,5.8v11H288.8z M288.9,339c-0.5-0.2-1.2-0.4-1.9-0.5c-0.7-0.1-1.5-0.2-2.3-0.2
		c-1.3,0-2.4,0.3-3.1,0.8c-0.7,0.5-1.1,1.2-1.1,2.1v0.1c0,0.9,0.3,1.6,1,2c0.7,0.5,1.5,0.7,2.5,0.7c0.7,0,1.3-0.1,1.9-0.3
		c0.6-0.2,1.1-0.4,1.6-0.8c0.4-0.3,0.8-0.7,1-1.2c0.2-0.5,0.4-1,0.4-1.6V339z"/>
	<path class="st2" d="M304.2,347.1c-0.8,0-1.5-0.1-2.1-0.3s-1.2-0.5-1.7-0.9s-0.9-1-1.1-1.7c-0.3-0.7-0.4-1.5-0.4-2.6v-9.7h-2.3
		v-3.6h2.3v-5.1h4.3v5.1h5v3.6h-5v9.1c0,0.8,0.2,1.4,0.6,1.8c0.4,0.4,1,0.5,1.7,0.5c0.9,0,1.8-0.2,2.6-0.6v3.5
		c-0.5,0.3-1.1,0.5-1.7,0.7C305.7,347,305,347.1,304.2,347.1z"/>
	<path class="st2" d="M320.8,347.2c-1.3,0-2.6-0.2-3.7-0.7c-1.2-0.5-2.2-1.1-3-2c-0.9-0.8-1.5-1.8-2-3c-0.5-1.2-0.7-2.5-0.7-3.9
		v-0.1c0-1.3,0.2-2.6,0.7-3.7c0.4-1.2,1.1-2.2,1.9-3.1c0.8-0.9,1.8-1.6,2.9-2.1c1.1-0.5,2.3-0.8,3.6-0.8c1.5,0,2.8,0.3,3.9,0.8
		c1.1,0.5,2,1.3,2.8,2.2c0.7,0.9,1.3,2,1.7,3.2c0.4,1.2,0.6,2.5,0.6,3.8c0,0.2,0,0.4,0,0.6c0,0.2,0,0.4-0.1,0.6h-13.6
		c0.2,1.5,0.8,2.7,1.8,3.5c1,0.8,2.1,1.2,3.5,1.2c1,0,2-0.2,2.7-0.6c0.8-0.4,1.5-0.9,2.3-1.6l2.5,2.2c-0.9,1-1.9,1.9-3.2,2.5
		C324,346.9,322.5,347.2,320.8,347.2z M325,336.2c-0.1-0.7-0.2-1.3-0.5-1.9c-0.2-0.6-0.5-1.1-0.9-1.5c-0.4-0.4-0.9-0.8-1.4-1
		c-0.5-0.3-1.2-0.4-1.9-0.4c-1.3,0-2.4,0.5-3.2,1.3c-0.9,0.9-1.4,2.1-1.6,3.5H325z"/>
	<path class="st2" d="M344.5,322.3h18.1v3.9h-13.9v6.3h12.3v3.9h-12.3v6.5h14v3.9h-18.3V322.3z"/>
	<path class="st2" d="M372.6,337.4l-6.5-9.1h4.6l4.3,6.1l4.3-6.1h4.5l-6.5,9l6.8,9.5h-4.6l-4.5-6.5l-4.5,6.5h-4.5L372.6,337.4z"/>
	<path class="st2" d="M396.3,347.2c-1.4,0-2.6-0.3-3.8-0.8c-1.2-0.5-2.2-1.2-3-2s-1.5-1.9-2-3s-0.7-2.4-0.7-3.7v-0.1
		c0-1.3,0.2-2.5,0.7-3.7c0.5-1.2,1.2-2.2,2-3.1s1.9-1.6,3.1-2.1s2.5-0.8,3.8-0.8c1.8,0,3.2,0.3,4.4,0.9c1.2,0.6,2.2,1.4,3,2.3
		l-2.6,2.8c-0.7-0.7-1.3-1.2-2.1-1.7c-0.7-0.4-1.6-0.6-2.7-0.6c-0.8,0-1.5,0.2-2.1,0.5c-0.7,0.3-1.2,0.7-1.7,1.3
		c-0.5,0.5-0.8,1.1-1.1,1.9s-0.4,1.5-0.4,2.3v0.1c0,0.8,0.1,1.6,0.4,2.3c0.3,0.7,0.6,1.4,1.1,1.9c0.5,0.5,1.1,1,1.8,1.3
		c0.7,0.3,1.4,0.5,2.2,0.5c1,0,1.9-0.2,2.6-0.6c0.8-0.4,1.5-1,2.2-1.7l2.6,2.5c-0.9,1-1.9,1.9-3.1,2.5
		C399.6,346.9,398.1,347.2,396.3,347.2z"/>
	<path class="st2" d="M416.2,347.2c-1.3,0-2.6-0.2-3.7-0.7c-1.2-0.5-2.2-1.1-3-2s-1.5-1.8-2-3c-0.5-1.2-0.7-2.5-0.7-3.9v-0.1
		c0-1.3,0.2-2.6,0.7-3.7c0.4-1.2,1.1-2.2,1.9-3.1c0.8-0.9,1.8-1.6,2.9-2.1s2.3-0.8,3.6-0.8c1.5,0,2.8,0.3,3.9,0.8
		c1.1,0.5,2,1.3,2.8,2.2c0.7,0.9,1.3,2,1.7,3.2c0.4,1.2,0.6,2.5,0.6,3.8c0,0.2,0,0.4,0,0.6c0,0.2,0,0.4-0.1,0.6H411
		c0.2,1.5,0.8,2.7,1.8,3.5c1,0.8,2.1,1.2,3.5,1.2c1,0,2-0.2,2.7-0.6c0.8-0.4,1.5-0.9,2.3-1.6l2.5,2.2c-0.9,1-1.9,1.9-3.2,2.5
		C419.4,346.9,417.9,347.2,416.2,347.2z M420.4,336.2c-0.1-0.7-0.2-1.3-0.5-1.9c-0.2-0.6-0.5-1.1-0.9-1.5c-0.4-0.4-0.9-0.8-1.4-1
		c-0.5-0.3-1.2-0.4-1.9-0.4c-1.3,0-2.4,0.5-3.2,1.3c-0.9,0.9-1.4,2.1-1.6,3.5H420.4z"/>
	<path class="st2" d="M435.2,347.1c-1.3,0-2.7-0.2-4-0.7c-1.4-0.5-2.6-1.2-3.8-2.1l1.9-2.9c1,0.7,2,1.3,3.1,1.7c1,0.4,2,0.6,3,0.6
		c0.9,0,1.6-0.2,2.1-0.5c0.5-0.4,0.8-0.8,0.8-1.4v-0.1c0-0.3-0.1-0.7-0.3-0.9s-0.5-0.5-0.9-0.7c-0.4-0.2-0.8-0.4-1.3-0.5
		c-0.5-0.2-1-0.3-1.6-0.5c-0.7-0.2-1.4-0.4-2-0.7c-0.7-0.3-1.3-0.6-1.9-1c-0.5-0.4-1-0.9-1.3-1.5s-0.5-1.4-0.5-2.2v-0.1
		c0-0.9,0.2-1.6,0.5-2.3c0.3-0.7,0.8-1.3,1.4-1.8c0.6-0.5,1.3-0.9,2.1-1.1s1.7-0.4,2.6-0.4c1.2,0,2.3,0.2,3.5,0.6
		c1.2,0.4,2.3,0.9,3.3,1.6l-1.7,3c-0.9-0.5-1.8-1-2.7-1.3c-0.9-0.3-1.8-0.5-2.5-0.5c-0.8,0-1.5,0.2-1.9,0.5
		c-0.5,0.3-0.7,0.8-0.7,1.3v0.1c0,0.3,0.1,0.6,0.3,0.9c0.2,0.2,0.5,0.5,0.9,0.7s0.8,0.4,1.3,0.6s1,0.3,1.6,0.5
		c0.7,0.2,1.4,0.5,2,0.7c0.7,0.3,1.3,0.6,1.8,1c0.5,0.4,1,0.9,1.3,1.5c0.3,0.6,0.5,1.3,0.5,2.1v0.1c0,1-0.2,1.8-0.5,2.5
		c-0.4,0.7-0.8,1.3-1.5,1.8c-0.6,0.5-1.3,0.8-2.2,1.1S436.2,347.1,435.2,347.1z"/>
	<path class="st2" d="M452.7,347.1c-1.3,0-2.7-0.2-4-0.7c-1.4-0.5-2.6-1.2-3.8-2.1l1.9-2.9c1,0.7,2,1.3,3.1,1.7c1,0.4,2,0.6,3,0.6
		c0.9,0,1.6-0.2,2.1-0.5c0.5-0.4,0.8-0.8,0.8-1.4v-0.1c0-0.3-0.1-0.7-0.3-0.9s-0.5-0.5-0.9-0.7c-0.4-0.2-0.8-0.4-1.3-0.5
		c-0.5-0.2-1-0.3-1.6-0.5c-0.7-0.2-1.4-0.4-2-0.7c-0.7-0.3-1.3-0.6-1.9-1c-0.5-0.4-1-0.9-1.3-1.5s-0.5-1.4-0.5-2.2v-0.1
		c0-0.9,0.2-1.6,0.5-2.3c0.3-0.7,0.8-1.3,1.4-1.8c0.6-0.5,1.3-0.9,2.1-1.1s1.7-0.4,2.6-0.4c1.2,0,2.3,0.2,3.5,0.6
		c1.2,0.4,2.3,0.9,3.3,1.6l-1.7,3c-0.9-0.5-1.8-1-2.7-1.3c-0.9-0.3-1.8-0.5-2.5-0.5c-0.8,0-1.5,0.2-1.9,0.5
		c-0.5,0.3-0.7,0.8-0.7,1.3v0.1c0,0.3,0.1,0.6,0.3,0.9c0.2,0.2,0.5,0.5,0.9,0.7s0.8,0.4,1.3,0.6s1,0.3,1.6,0.5
		c0.7,0.2,1.4,0.5,2,0.7c0.7,0.3,1.3,0.6,1.8,1c0.5,0.4,1,0.9,1.3,1.5c0.3,0.6,0.5,1.3,0.5,2.1v0.1c0,1-0.2,1.8-0.5,2.5
		c-0.4,0.7-0.8,1.3-1.5,1.8c-0.6,0.5-1.3,0.8-2.2,1.1S453.7,347.1,452.7,347.1z"/>
	<path class="st2" d="M474.9,322.3h18.2v3.9h-13.9v6.8h12.4v3.9h-12.4v10h-4.3V322.3z"/>
	<path class="st2" d="M506.1,347.2c-1.4,0-2.7-0.3-3.9-0.8c-1.2-0.5-2.2-1.2-3.1-2s-1.6-1.9-2-3c-0.5-1.2-0.7-2.4-0.7-3.7v-0.1
		c0-1.3,0.3-2.6,0.8-3.7c0.5-1.2,1.2-2.2,2.1-3.1s1.9-1.6,3.1-2.1c1.2-0.5,2.5-0.8,3.9-0.8c1.4,0,2.7,0.3,3.9,0.8
		c1.2,0.5,2.2,1.2,3.1,2.1s1.6,1.9,2,3c0.5,1.2,0.7,2.4,0.7,3.7v0.1c0,1.3-0.2,2.5-0.8,3.7c-0.5,1.2-1.2,2.2-2.1,3.1
		s-1.9,1.6-3.1,2.1C508.9,346.9,507.5,347.2,506.1,347.2z M506.2,343.5c0.9,0,1.6-0.2,2.3-0.5c0.7-0.3,1.3-0.7,1.8-1.3
		c0.5-0.5,0.9-1.2,1.1-1.9c0.3-0.7,0.4-1.5,0.4-2.3v-0.1c0-0.8-0.1-1.6-0.4-2.3c-0.3-0.7-0.7-1.4-1.2-1.9c-0.5-0.5-1.1-1-1.8-1.3
		c-0.7-0.3-1.4-0.5-2.3-0.5s-1.6,0.2-2.3,0.5c-0.7,0.3-1.3,0.7-1.8,1.3c-0.5,0.5-0.9,1.1-1.1,1.9c-0.3,0.7-0.4,1.5-0.4,2.3v0.1
		c0,0.8,0.1,1.6,0.4,2.3c0.3,0.7,0.7,1.3,1.2,1.9c0.5,0.5,1.1,1,1.8,1.3C504.6,343.4,505.4,343.5,506.2,343.5z"/>
	<path class="st2" d="M529.1,347.2c-1.4,0-2.7-0.3-3.9-0.8c-1.2-0.5-2.2-1.2-3.1-2s-1.6-1.9-2-3s-0.7-2.4-0.7-3.7v-0.1
		c0-1.3,0.3-2.6,0.8-3.7c0.5-1.2,1.2-2.2,2.1-3.1s1.9-1.6,3.1-2.1c1.2-0.5,2.5-0.8,3.9-0.8c1.4,0,2.7,0.3,3.9,0.8
		c1.2,0.5,2.2,1.2,3.1,2.1s1.6,1.9,2,3c0.5,1.2,0.7,2.4,0.7,3.7v0.1c0,1.3-0.3,2.5-0.8,3.7c-0.5,1.2-1.2,2.2-2.1,3.1
		s-1.9,1.6-3.1,2.1C531.9,346.9,530.5,347.2,529.1,347.2z M529.2,343.5c0.9,0,1.6-0.2,2.3-0.5s1.3-0.7,1.8-1.3
		c0.5-0.5,0.9-1.2,1.1-1.9c0.3-0.7,0.4-1.5,0.4-2.3v-0.1c0-0.8-0.1-1.6-0.4-2.3s-0.7-1.4-1.2-1.9c-0.5-0.5-1.1-1-1.8-1.3
		c-0.7-0.3-1.4-0.5-2.3-0.5c-0.8,0-1.6,0.2-2.3,0.5c-0.7,0.3-1.3,0.7-1.8,1.3c-0.5,0.5-0.9,1.1-1.1,1.9s-0.4,1.5-0.4,2.3v0.1
		c0,0.8,0.1,1.6,0.4,2.3c0.3,0.7,0.7,1.3,1.2,1.9c0.5,0.5,1.1,1,1.8,1.3S528.4,343.5,529.2,343.5z"/>
	<path class="st2" d="M551,347.2c-1.1,0-2.2-0.2-3.2-0.6s-1.9-1-2.7-1.9c-0.8-0.8-1.4-1.8-1.9-3c-0.5-1.2-0.7-2.6-0.7-4.1v-0.1
		c0-1.5,0.2-2.9,0.7-4.1c0.5-1.2,1.1-2.2,1.9-3c0.8-0.8,1.7-1.4,2.7-1.9c1-0.4,2.1-0.6,3.2-0.6c1.5,0,2.8,0.3,3.8,1s1.8,1.4,2.5,2.3
		v-9.9h4.3v25.5h-4.3l0-3.1c-0.7,1-1.5,1.8-2.5,2.5C553.7,346.8,552.5,347.2,551,347.2z M552,343.5c0.7,0,1.4-0.1,2-0.4
		c0.7-0.3,1.2-0.7,1.7-1.2c0.5-0.5,0.9-1.1,1.2-1.9c0.3-0.7,0.4-1.5,0.4-2.4v-0.1c0-0.9-0.1-1.7-0.4-2.4c-0.3-0.7-0.7-1.4-1.2-1.9
		c-0.5-0.5-1.1-0.9-1.7-1.2c-0.7-0.3-1.3-0.4-2-0.4c-0.7,0-1.4,0.1-2,0.4s-1.2,0.7-1.7,1.2c-0.5,0.5-0.9,1.1-1.2,1.9
		c-0.3,0.7-0.4,1.6-0.4,2.5v0.1c0,0.9,0.1,1.7,0.4,2.4c0.3,0.7,0.7,1.4,1.2,1.9c0.5,0.5,1.1,0.9,1.7,1.2S551.2,343.5,552,343.5z"/>
</g>
<circle class="st2" cx="383.7" cy="259.4" r="41.8"/>
<g>
	<path class="st4" d="M410.9,274.1c-1.2-1.4-2.9-2.2-4.7-2.2c-0.7,0-1.3,0.1-2,0.3l-11.6,3.9c-0.8-1.7-2.6-2.8-4.5-2.8H385
		c0.4-0.1,0.8-0.3,1.1-0.5c0.9-0.7,1.3-1.7,1.2-2.8c-0.1-1,0.2-1.9,0.8-2.6l1.7-1.7c0.8,0.3,1.7,0.4,2.7,0.4c3.9,0,8.8-2.1,12.3-5.6
		c2.4-2.4,3.7-5.1,3.8-7.7c0.1-2.5-0.9-4.9-2.8-6.8c-3.6-3.6-8.6-3.7-12.9-0.3c-0.6-2.2-1.9-4.1-3.6-5.2c-2-1.3-4.4-1.6-6.8-0.9
		c-0.3,0.1-0.6,0.1-1,0.2c0.5-2.1,2.1-3.6,4.7-4.4c0.3-0.1,0.5-0.4,0.4-0.8s-0.5-0.5-0.8-0.4c-1.1,0.3-2,0.8-2.8,1.3
		c0-1-0.2-2.3-1.2-3.3c-1.9-1.9-6-1.9-6.2-1.9c-0.4,0-0.6,0.3-0.6,0.6c0,0.2,0,4.2,1.9,6.2c0.9,0.9,2.1,1.2,3.1,1.2
		c0.2,0,0.5,0,0.7,0c-0.2,0.5-0.4,1-0.5,1.6c-0.4,0-0.9-0.1-1.3-0.2c-2.6-0.7-5.2-0.2-7.3,1.3c-2.2,1.7-3.5,4.5-3.5,7.7
		c0,4.8,1.6,9,4.3,11.5c1.7,1.6,3.8,2.4,6,2.4c0.2,0,0.5,0,0.8,0c1-0.1,1.9-0.1,2.9,0c1.4,0.1,2.7-0.1,3.9-0.6c0,0,0,0.1,0,0.1
		l-1.7,1.7c-0.6,0.6-1.6,0.9-2.6,0.8c-1.1-0.1-2.1,0.3-2.8,1.2c-0.8,1.1-0.9,2.6-0.1,3.7c0.5,0.7,1.3,1.2,2.1,1.3
		c0.1,0.9,0.6,1.6,1.3,2.1c0.3,0.2,0.7,0.4,1,0.5h-0.8c-1.4,0-2.8-0.4-3.9-1c-1.4-0.8-3-1.2-4.6-1.2h-7.5v-0.2
		c0-1.5-1.2-2.6-2.6-2.6h-5.4c-1.4,0-2.6,1.2-2.6,2.6v14.5c0,1.5,1.2,2.6,2.6,2.6h5.4c1.4,0,2.5-1.1,2.6-2.5l16.3,3
		c0.4,0.1,0.9,0.1,1.3,0.1c1,0,2-0.2,2.9-0.6l23-10.3c0.7-0.3,1.1-0.9,1.3-1.6C411.5,275.4,411.3,274.7,410.9,274.1L410.9,274.1
		L410.9,274.1z M365.3,285.4c0,0.8-0.6,1.4-1.4,1.4h-5.4c-0.7,0-1.4-0.6-1.4-1.4v-14.5c0-0.8,0.6-1.4,1.4-1.4h5.4
		c0.8,0,1.4,0.6,1.4,1.4V285.4z M392.9,247.3c4.1-3.6,8.7-3.8,12-0.4c1.6,1.6,2.5,3.6,2.4,5.8c-0.1,2.3-1.3,4.7-3.5,6.9
		c-3.8,3.8-9.3,5.9-13,5.1l1.4-1.4c1-1,1.1-2.6,0.2-3.6c-0.5-0.6-1.2-0.9-1.9-1c-0.7,0-1.5,0.2-2,0.8l-1.4,1.4c0,0,0,0,0-0.1
		c-0.7-3.7,1.5-9.3,5.1-12.9C392.5,247.7,392.7,247.5,392.9,247.3L392.9,247.3L392.9,247.3z M377.9,236.1c-1.1-1.1-1.4-3.5-1.5-4.6
		c1.1,0.1,3.5,0.4,4.6,1.5c1.1,1.1,0.8,3,0.6,3.7C380.8,236.9,379,237.2,377.9,236.1L377.9,236.1z M385.8,260.6
		c-1.1,0.5-2.3,0.7-3.5,0.6c-1-0.1-2.1-0.1-3.1,0c-2.2,0.2-4.2-0.5-5.8-2c-2.5-2.3-3.9-6.2-3.9-10.6c0-2.8,1.1-5.3,3-6.7
		c1.7-1.3,3.9-1.7,6.1-1.1c0.5,0.1,1,0.2,1.5,0.3c0,0.5,0,1,0,1.5c0,0.3,0.3,0.6,0.6,0.6c0,0,0,0,0,0c0.4,0,0.6-0.3,0.6-0.7
		c0-0.5,0-1,0-1.4c0.5,0,1-0.1,1.5-0.2c2-0.6,4.1-0.3,5.7,0.8c1.7,1.1,2.8,2.9,3.2,5.1c-0.1,0.1-0.3,0.3-0.4,0.4
		C387.5,250.9,385.3,256.5,385.8,260.6L385.8,260.6L385.8,260.6z M383.1,271.8c-0.5-0.4-0.8-1-0.8-1.7c0-0.2,0-0.4-0.2-0.5
		c-0.1-0.1-0.3-0.2-0.5-0.2c0,0,0,0,0,0c-0.7,0-1.3-0.2-1.7-0.8c-0.5-0.6-0.5-1.6,0-2.2c0.4-0.5,1-0.8,1.7-0.7
		c1.4,0.1,2.7-0.3,3.6-1.2l2-2l0,0l2.2-2.2c0.3-0.3,0.6-0.4,1-0.4c0.4,0,0.7,0.2,1,0.5c0.4,0.5,0.4,1.4-0.1,1.9l-4.1,4.1
		c-0.9,0.9-1.4,2.2-1.2,3.6c0.1,0.6-0.2,1.3-0.7,1.7C384.7,272.2,383.8,272.3,383.1,271.8L383.1,271.8L383.1,271.8z M410.1,275.8
		c-0.1,0.3-0.3,0.6-0.6,0.7l-23,10.3c-1.1,0.5-2.3,0.6-3.4,0.4l-16.5-3v-11.9h7.5c1.4,0,2.8,0.4,3.9,1c1.4,0.8,3,1.2,4.6,1.2h5.5
		c1.6,0,3.1,1,3.6,2.6c0.1,0.4,0.2,0.8,0.2,1.2c0,0.3-0.1,0.6-0.4,0.9c-0.2,0.2-0.5,0.4-0.9,0.4h-13.1c-0.4,0-0.6,0.3-0.6,0.6
		s0.3,0.6,0.6,0.6h13.1c0.7,0,1.3-0.3,1.8-0.7c0.5-0.5,0.7-1.1,0.7-1.8c0-0.4,0-0.7-0.1-1l11.6-3.9c0.5-0.2,1-0.2,1.5-0.2
		c1.4,0,2.8,0.6,3.7,1.7C410.1,275.2,410.2,275.5,410.1,275.8L410.1,275.8L410.1,275.8z"/>
	<path class="st4" d="M383.2,244c-1.7,1.1-3.3,1.1-4.9,0c-0.3-0.2-0.7-0.1-0.9,0.2s-0.1,0.7,0.2,0.9c1,0.7,2.1,1,3.1,1
		s2.1-0.3,3.1-1c0.3-0.2,0.4-0.6,0.2-0.9C383.9,243.9,383.5,243.8,383.2,244L383.2,244L383.2,244z"/>
</g>
<path class="st5" d="M594.7,435.9h-422c-13.6,0-22.1,12.4-15.3,22.2l60.1,87.2c3.2,4.6,9,7.4,15.3,7.4h301.7
	c6.3,0,12.2-2.8,15.3-7.4l60.1-87.2C616.8,448.3,608.3,435.9,594.7,435.9L594.7,435.9z"/>
<g class="st1">
	<path class="st2" d="M242.2,500.4h18.2v3.9h-13.9v6.8h12.4v3.9h-12.4v10h-4.3V500.4z"/>
	<path class="st2" d="M273.2,525.3c-1.3,0-2.6-0.2-3.7-0.7c-1.2-0.5-2.2-1.1-3-2c-0.9-0.8-1.5-1.8-2-3c-0.5-1.2-0.7-2.5-0.7-3.9
		v-0.1c0-1.3,0.2-2.6,0.7-3.7c0.4-1.2,1.1-2.2,1.9-3.1c0.8-0.9,1.8-1.6,2.9-2.1c1.1-0.5,2.3-0.8,3.6-0.8c1.5,0,2.8,0.3,3.9,0.8
		c1.1,0.5,2,1.3,2.8,2.2c0.7,0.9,1.3,2,1.7,3.2c0.4,1.2,0.6,2.5,0.6,3.8c0,0.2,0,0.4,0,0.6c0,0.2,0,0.4-0.1,0.6h-13.6
		c0.2,1.5,0.8,2.7,1.8,3.5c1,0.8,2.1,1.2,3.5,1.2c1,0,2-0.2,2.7-0.6c0.8-0.4,1.5-0.9,2.3-1.6l2.5,2.2c-0.9,1-1.9,1.9-3.2,2.5
		C276.4,525,274.9,525.3,273.2,525.3z M277.4,514.4c-0.1-0.7-0.2-1.3-0.5-1.9c-0.2-0.6-0.5-1.1-0.9-1.5c-0.4-0.4-0.9-0.8-1.4-1
		c-0.5-0.3-1.2-0.4-1.9-0.4c-1.3,0-2.4,0.5-3.2,1.3c-0.9,0.9-1.4,2.1-1.6,3.5H277.4z"/>
	<path class="st2" d="M294.3,525.3c-1.3,0-2.6-0.2-3.7-0.7c-1.2-0.5-2.2-1.1-3-2c-0.9-0.8-1.5-1.8-2-3c-0.5-1.2-0.7-2.5-0.7-3.9
		v-0.1c0-1.3,0.2-2.6,0.7-3.7c0.4-1.2,1.1-2.2,1.9-3.1c0.8-0.9,1.8-1.6,2.9-2.1c1.1-0.5,2.3-0.8,3.6-0.8c1.5,0,2.8,0.3,3.9,0.8
		c1.1,0.5,2,1.3,2.8,2.2c0.7,0.9,1.3,2,1.7,3.2c0.4,1.2,0.6,2.5,0.6,3.8c0,0.2,0,0.4,0,0.6c0,0.2,0,0.4-0.1,0.6h-13.6
		c0.2,1.5,0.8,2.7,1.8,3.5c1,0.8,2.1,1.2,3.5,1.2c1,0,2-0.2,2.7-0.6c0.8-0.4,1.5-0.9,2.3-1.6l2.5,2.2c-0.9,1-1.9,1.9-3.2,2.5
		C297.5,525,296,525.3,294.3,525.3z M298.5,514.4c-0.1-0.7-0.2-1.3-0.5-1.9c-0.2-0.6-0.5-1.1-0.9-1.5c-0.4-0.4-0.9-0.8-1.4-1
		c-0.5-0.3-1.2-0.4-1.9-0.4c-1.3,0-2.4,0.5-3.2,1.3c-0.9,0.9-1.4,2.1-1.6,3.5H298.5z"/>
	<path class="st2" d="M314.6,525.3c-1.1,0-2.2-0.2-3.2-0.6c-1-0.4-1.9-1-2.7-1.9c-0.8-0.8-1.4-1.8-1.9-3c-0.5-1.2-0.7-2.6-0.7-4.1
		v-0.1c0-1.5,0.2-2.9,0.7-4.1c0.5-1.2,1.1-2.2,1.9-3c0.8-0.8,1.7-1.4,2.7-1.9c1-0.4,2.1-0.6,3.2-0.6c1.5,0,2.8,0.3,3.8,1
		c1,0.7,1.8,1.4,2.5,2.3v-9.9h4.3v25.5h-4.3l0-3.1c-0.7,1-1.5,1.8-2.5,2.5C317.4,525,316.1,525.3,314.6,525.3z M315.6,521.6
		c0.7,0,1.4-0.1,2-0.4c0.7-0.3,1.2-0.7,1.7-1.2c0.5-0.5,0.9-1.1,1.2-1.9c0.3-0.7,0.4-1.5,0.4-2.4v-0.1c0-0.9-0.1-1.7-0.4-2.4
		c-0.3-0.7-0.7-1.4-1.2-1.9c-0.5-0.5-1.1-0.9-1.7-1.2c-0.7-0.3-1.3-0.4-2-0.4c-0.7,0-1.4,0.1-2,0.4s-1.2,0.7-1.7,1.2
		c-0.5,0.5-0.9,1.1-1.2,1.9c-0.3,0.7-0.4,1.6-0.4,2.5v0.1c0,0.9,0.1,1.7,0.4,2.4s0.7,1.4,1.2,1.9c0.5,0.5,1.1,0.9,1.7,1.2
		S314.9,521.6,315.6,521.6z"/>
	<path class="st2" d="M347.2,525.2c-0.8,0-1.5-0.1-2.1-0.3s-1.2-0.5-1.7-0.9s-0.9-1-1.1-1.7c-0.3-0.7-0.4-1.5-0.4-2.6v-9.7h-2.3
		v-3.6h2.3v-5.1h4.3v5.1h5v3.6h-5v9.1c0,0.8,0.2,1.4,0.6,1.8c0.4,0.4,1,0.5,1.7,0.5c0.9,0,1.8-0.2,2.6-0.6v3.5
		c-0.5,0.3-1.1,0.5-1.7,0.7C348.7,525.1,348,525.2,347.2,525.2z"/>
	<path class="st2" d="M364.1,525.3c-1.4,0-2.7-0.3-3.9-0.8c-1.2-0.5-2.2-1.2-3.1-2s-1.6-1.9-2-3c-0.5-1.2-0.7-2.4-0.7-3.7v-0.1
		c0-1.3,0.3-2.6,0.8-3.7c0.5-1.2,1.2-2.2,2.1-3.1s1.9-1.6,3.1-2.1c1.2-0.5,2.5-0.8,3.9-0.8c1.4,0,2.7,0.3,3.9,0.8
		c1.2,0.5,2.2,1.2,3.1,2.1s1.6,1.9,2,3c0.5,1.2,0.7,2.4,0.7,3.7v0.1c0,1.3-0.3,2.5-0.8,3.7c-0.5,1.2-1.2,2.2-2.1,3.1
		s-1.9,1.6-3.1,2.1C366.8,525.1,365.5,525.3,364.1,525.3z M364.2,521.7c0.9,0,1.6-0.2,2.3-0.5c0.7-0.3,1.3-0.7,1.8-1.3
		c0.5-0.5,0.9-1.2,1.1-1.9c0.3-0.7,0.4-1.5,0.4-2.3v-0.1c0-0.8-0.1-1.6-0.4-2.3c-0.3-0.7-0.7-1.4-1.2-1.9c-0.5-0.5-1.1-1-1.8-1.3
		c-0.7-0.3-1.4-0.5-2.3-0.5s-1.6,0.2-2.3,0.5c-0.7,0.3-1.3,0.7-1.8,1.3c-0.5,0.5-0.9,1.1-1.1,1.9s-0.4,1.5-0.4,2.3v0.1
		c0,0.8,0.1,1.6,0.4,2.3s0.7,1.3,1.2,1.9c0.5,0.5,1.1,1,1.8,1.3C362.6,521.5,363.3,521.7,364.2,521.7z"/>
	<path class="st2" d="M398,500.2h4l10.8,24.7h-4.6l-2.5-5.9h-11.6l-2.5,5.9h-4.4L398,500.2z M404.1,515.2l-4.2-9.8l-4.2,9.8H404.1z"
		/>
	<path class="st2" d="M416.4,506.4h4.3v2.9c0.3-0.4,0.6-0.9,1-1.3c0.4-0.4,0.8-0.7,1.3-1c0.5-0.3,1-0.5,1.6-0.7
		c0.6-0.2,1.2-0.3,1.9-0.3c2.1,0,3.7,0.6,4.9,1.9c1.1,1.3,1.7,3,1.7,5.2v11.8h-4.3v-10.5c0-1.4-0.3-2.6-1-3.3
		c-0.7-0.8-1.6-1.2-2.9-1.2c-1.2,0-2.2,0.4-3,1.2c-0.8,0.8-1.1,1.9-1.1,3.4v10.4h-4.3V506.4z"/>
	<path class="st2" d="M438.2,499.6h4.6v4h-4.6V499.6z M438.4,506.4h4.3v18.5h-4.3V506.4z"/>
	<path class="st2" d="M448.2,506.4h4.3v2.8c0.3-0.4,0.6-0.8,1-1.2c0.3-0.4,0.8-0.7,1.2-1c0.5-0.3,1-0.5,1.5-0.7
		c0.6-0.2,1.2-0.3,1.9-0.3c1.3,0,2.4,0.3,3.4,0.9c0.9,0.6,1.6,1.4,2.1,2.4c0.7-1,1.6-1.8,2.7-2.4c1-0.6,2.2-0.9,3.6-0.9
		c2,0,3.6,0.6,4.8,1.8c1.1,1.2,1.7,3,1.7,5.2v11.8H472v-10.5c0-1.5-0.3-2.6-1-3.4c-0.7-0.8-1.6-1.2-2.8-1.2c-1.2,0-2.1,0.4-2.8,1.2
		c-0.7,0.8-1.1,1.9-1.1,3.4v10.4h-4.3v-10.5c0-1.4-0.3-2.5-1-3.3c-0.7-0.8-1.6-1.2-2.8-1.2c-1.2,0-2.1,0.4-2.9,1.2s-1.1,1.9-1.1,3.4
		v10.4h-4.3V506.4z"/>
	<path class="st2" d="M492.7,524.9v-2.3c-0.6,0.7-1.4,1.4-2.4,1.9c-1,0.5-2.2,0.8-3.6,0.8c-0.9,0-1.7-0.1-2.5-0.4s-1.5-0.6-2.1-1.1
		s-1.1-1.1-1.4-1.8c-0.4-0.7-0.5-1.5-0.5-2.5v-0.1c0-1,0.2-1.9,0.6-2.7c0.4-0.8,0.9-1.4,1.6-1.9s1.5-0.9,2.4-1.1s1.9-0.4,3-0.4
		c1.1,0,2.1,0.1,2.9,0.2c0.8,0.1,1.5,0.3,2.3,0.6v-0.4c0-1.3-0.4-2.3-1.2-2.9c-0.8-0.7-1.9-1-3.4-1c-1,0-2,0.1-2.8,0.3
		c-0.8,0.2-1.6,0.5-2.5,0.8l-1.2-3.4c1-0.5,2.1-0.8,3.2-1.1s2.4-0.4,3.9-0.4c2.8,0,4.8,0.7,6.1,2c1.3,1.4,2,3.3,2,5.8v11H492.7z
		 M492.8,517.2c-0.5-0.2-1.2-0.4-1.9-0.5c-0.7-0.1-1.5-0.2-2.3-0.2c-1.3,0-2.4,0.3-3.1,0.8c-0.7,0.5-1.1,1.2-1.1,2.1v0.1
		c0,0.9,0.3,1.6,1,2c0.7,0.5,1.5,0.7,2.5,0.7c0.7,0,1.3-0.1,1.9-0.3c0.6-0.2,1.1-0.4,1.6-0.8s0.8-0.7,1-1.2c0.2-0.5,0.4-1,0.4-1.6
		V517.2z"/>
	<path class="st2" d="M502.2,499.4h4.3v25.5h-4.3V499.4z"/>
	<path class="st2" d="M518.3,525.3c-1.3,0-2.7-0.2-4-0.7c-1.4-0.5-2.6-1.2-3.8-2.1l1.9-2.9c1,0.7,2,1.3,3.1,1.7c1,0.4,2,0.6,3,0.6
		c0.9,0,1.6-0.2,2.1-0.5c0.5-0.4,0.8-0.8,0.8-1.4v-0.1c0-0.3-0.1-0.7-0.3-0.9s-0.5-0.5-0.9-0.7c-0.4-0.2-0.8-0.4-1.3-0.5
		c-0.5-0.2-1-0.3-1.6-0.5c-0.7-0.2-1.4-0.4-2-0.7c-0.7-0.3-1.3-0.6-1.9-1c-0.5-0.4-1-0.9-1.3-1.5c-0.3-0.6-0.5-1.4-0.5-2.2v-0.1
		c0-0.9,0.2-1.6,0.5-2.3c0.3-0.7,0.8-1.3,1.4-1.8c0.6-0.5,1.3-0.9,2.1-1.1c0.8-0.3,1.7-0.4,2.6-0.4c1.2,0,2.3,0.2,3.5,0.6
		c1.2,0.4,2.3,0.9,3.3,1.6l-1.7,3c-0.9-0.5-1.8-1-2.7-1.3c-0.9-0.3-1.8-0.5-2.5-0.5c-0.8,0-1.5,0.2-1.9,0.5
		c-0.5,0.3-0.7,0.8-0.7,1.3v0.1c0,0.3,0.1,0.6,0.3,0.9c0.2,0.2,0.5,0.5,0.9,0.7s0.8,0.4,1.3,0.6s1,0.3,1.6,0.5
		c0.7,0.2,1.4,0.5,2,0.7c0.7,0.3,1.3,0.6,1.8,1c0.5,0.4,1,0.9,1.3,1.5c0.4,0.6,0.5,1.3,0.5,2.1v0.1c0,1-0.2,1.8-0.5,2.5
		c-0.3,0.7-0.8,1.3-1.5,1.8c-0.6,0.5-1.3,0.8-2.2,1.1S519.2,525.3,518.3,525.3z"/>
</g>
<circle class="st2" cx="383.7" cy="436.4" r="41.8"/>
<g>
	<path class="st5" d="M376.6,436.3c-0.9,0-1.8-0.4-2.4-1c-0.6-0.6-1-1.5-1-2.4s0.4-1.8,1-2.4c0.6-0.6,1.5-1,2.4-1s1.8,0.4,2.4,1
		c0.6,0.6,1,1.5,1,2.4s-0.4,1.8-1,2.4S377.5,436.3,376.6,436.3L376.6,436.3z M376.6,431.8c-0.5,0-0.9,0.3-1,0.7
		c-0.2,0.4-0.1,0.9,0.2,1.2c0.3,0.3,0.8,0.4,1.2,0.2c0.4-0.2,0.7-0.6,0.7-1C377.8,432.3,377.3,431.8,376.6,431.8L376.6,431.8z"/>
	<path class="st5" d="M390.8,436.3c-0.9,0-1.8-0.4-2.4-1s-1-1.5-1-2.4s0.4-1.8,1-2.4c0.6-0.6,1.5-1,2.4-1s1.8,0.4,2.4,1
		c0.6,0.6,1,1.5,1,2.4s-0.4,1.8-1,2.4C392.5,436,391.6,436.3,390.8,436.3L390.8,436.3z M390.8,431.8c-0.5,0-0.9,0.3-1,0.7
		s-0.1,0.9,0.2,1.2c0.3,0.3,0.8,0.4,1.2,0.2c0.4-0.2,0.7-0.6,0.7-1C391.9,432.3,391.4,431.8,390.8,431.8L390.8,431.8z"/>
	<path class="st5" d="M414.9,433.8c-1.2-6.2-5.5-12.9-9.6-14.9c-3.2-1.6-7.5-1.6-10-1.4c-0.3-0.3-0.6-0.6-0.9-0.9
		c-2.8-2.6-7-2.6-9.9-2.7l-1,0l-0.8,0c-2.8,0.1-7.1,0.1-9.9,2.7c-0.3,0.3-0.6,0.6-0.9,0.9c-2.6-0.2-6.9-0.2-10.1,1.4
		c-4,2-8.3,8.7-9.6,14.9c-0.8,4-0.2,7.3,1.7,9.4c1.4,1.5,3.9,2.3,7.5,2.3c0.3,0,0.6,0,1,0c0.2,3.5,1.7,6.7,4.2,9.1
		c3.8,3.7,10.3,4.4,14.7,4.4c0.7,0,1.4,0,2,0h0.2h0.2c4.3,0.2,12.3-0.1,16.7-4.4l0,0c2.5-2.4,4-5.6,4.2-9.1c0.3,0,0.7,0,1,0
		c3.6,0,6.2-0.8,7.5-2.3C415.1,441,415.7,437.8,414.9,433.8L414.9,433.8L414.9,433.8z M355.8,441.7c-1.8-2-1.6-5.2-1.1-7.5
		c1.1-5.5,4.9-11.6,8.4-13.3l0,0c2.3-1,4.8-1.4,7.3-1.2c-1.7,3-3.1,6.1-4.2,9.3l-0.2,0.5c-2.1,5.8-3.2,8.8-3.4,12.5
		c0,0.4,0,0.8,0,1.2C359.2,443.3,356.8,442.8,355.8,441.7L355.8,441.7L355.8,441.7z M383.7,443.8L383.7,443.8L383.7,443.8
		c-0.6-0.1-1.1-0.5-1.5-0.9c-0.4-0.4-0.6-1-0.8-1.5c0.7-0.4,1.5-0.6,2.3-0.5c0.8-0.1,1.6,0.1,2.3,0.5c-0.2,0.5-0.4,1-0.8,1.5
		C384.8,443.3,384.3,443.6,383.7,443.8L383.7,443.8L383.7,443.8z M399,452.9c-2.7,2.6-7.8,3.9-14.2,3.7v-10.9
		c0.8-0.3,1.5-0.8,2.1-1.5c0.8-0.9,1.3-2.1,1.5-3.3c0-0.4-0.1-0.7-0.4-0.9c-1.2-1.1-2.7-1.6-4.3-1.5c-1.6-0.1-3.1,0.4-4.3,1.5
		c-0.2,0.2-0.4,0.6-0.4,0.9c0.2,1.2,0.7,2.4,1.5,3.3c0.5,0.6,1.3,1.1,2.1,1.5v10.9c-6.4,0.2-11.5-1.2-14.2-3.7
		c-3.4-3.3-3.7-7.2-3.5-10.9c0.2-3.5,1.2-6.3,3.3-11.9l0.2-0.5c2.6-7.1,3.8-9.3,6.2-11.5c2.2-2,5.8-2.1,8.4-2.1l0.8,0l0.9,0
		c2.6,0,6.2,0.1,8.4,2.1c2.4,2.2,3.5,4.3,6.2,11.5l0.2,0.4c2.1,5.6,3.1,8.4,3.3,11.9C402.7,445.8,402.4,449.7,399,452.9L399,452.9
		L399,452.9z M411.6,441.7c-1,1.1-3.4,1.6-6.7,1.5c0-0.4,0-0.9,0-1.3c-0.2-3.8-1.3-6.7-3.4-12.6l-0.2-0.4l0,0
		c-1-3.2-2.4-6.4-4.2-9.3c2.5-0.1,5,0.3,7.3,1.2c3.4,1.7,7.3,7.8,8.4,13.3C413.2,436.5,413.3,439.7,411.6,441.7L411.6,441.7z"/>
</g>
<path class="st6" d="M546,612.8H221.4c-11.9,0-19.3,9.2-13.3,16.5l76.7,94.9c2.8,3.4,7.8,5.5,13.3,5.5h171.2
	c5.5,0,10.6-2.1,13.3-5.5l76.7-94.9C565.2,621.9,557.8,612.8,546,612.8L546,612.8z"/>
<g class="st1">
	<path class="st2" d="M317.8,700.2c-1.8,0-3.5-0.3-5-1c-1.5-0.7-2.8-1.5-3.9-2.7s-2-2.5-2.6-4s-1-3.2-1-4.9v-0.1
		c0-1.8,0.3-3.4,0.9-4.9c0.6-1.5,1.5-2.9,2.6-4c1.1-1.2,2.5-2.1,4-2.7s3.2-1,5.1-1c1.1,0,2.1,0.1,3.1,0.3c0.9,0.2,1.8,0.4,2.5,0.8
		c0.8,0.3,1.5,0.7,2.1,1.2c0.7,0.5,1.3,1,1.9,1.5l-2.8,3.2c-1-0.9-2-1.6-3.1-2.2s-2.3-0.8-3.7-0.8c-1.2,0-2.2,0.2-3.2,0.7
		s-1.8,1.1-2.6,1.9c-0.7,0.8-1.3,1.7-1.7,2.7c-0.4,1-0.6,2.2-0.6,3.4v0.1c0,1.2,0.2,2.3,0.6,3.4c0.4,1.1,1,2,1.7,2.8
		c0.7,0.8,1.6,1.4,2.6,1.9s2.1,0.7,3.2,0.7c1.5,0,2.8-0.3,3.8-0.9c1.1-0.6,2.1-1.3,3.2-2.3l2.8,2.8c-0.6,0.7-1.3,1.3-2,1.8
		c-0.7,0.5-1.4,1-2.2,1.4c-0.8,0.4-1.7,0.7-2.6,0.9C320,700.1,319,700.2,317.8,700.2z"/>
	<path class="st2" d="M340.5,700.2c-1.4,0-2.7-0.3-3.9-0.8c-1.2-0.5-2.2-1.2-3.1-2s-1.6-1.9-2-3c-0.5-1.2-0.7-2.4-0.7-3.7v-0.1
		c0-1.3,0.3-2.6,0.8-3.7c0.5-1.2,1.2-2.2,2.1-3.1s1.9-1.6,3.1-2.1c1.2-0.5,2.5-0.8,3.9-0.8c1.4,0,2.7,0.3,3.9,0.8
		c1.2,0.5,2.2,1.2,3.1,2.1s1.6,1.9,2,3c0.5,1.2,0.7,2.4,0.7,3.7v0.1c0,1.3-0.3,2.5-0.8,3.7c-0.5,1.2-1.2,2.2-2.1,3.1
		s-1.9,1.6-3.1,2.1C343.3,699.9,342,700.2,340.5,700.2z M340.6,696.5c0.9,0,1.6-0.2,2.3-0.5s1.3-0.7,1.8-1.3
		c0.5-0.5,0.9-1.2,1.1-1.9c0.3-0.7,0.4-1.5,0.4-2.3v-0.1c0-0.8-0.1-1.6-0.4-2.3c-0.3-0.7-0.7-1.4-1.2-1.9c-0.5-0.5-1.1-1-1.8-1.3
		c-0.7-0.3-1.4-0.5-2.3-0.5s-1.6,0.2-2.3,0.5c-0.7,0.3-1.3,0.7-1.8,1.3c-0.5,0.5-0.9,1.1-1.1,1.9s-0.4,1.5-0.4,2.3v0.1
		c0,0.8,0.1,1.6,0.4,2.3c0.3,0.7,0.7,1.3,1.2,1.9c0.5,0.5,1.1,1,1.8,1.3S339.8,696.5,340.6,696.5z"/>
	<path class="st2" d="M354.8,681.3h4.3v2.8c0.3-0.4,0.6-0.8,1-1.2c0.3-0.4,0.8-0.7,1.2-1c0.5-0.3,1-0.5,1.5-0.7
		c0.6-0.2,1.2-0.3,1.9-0.3c1.3,0,2.4,0.3,3.4,0.9c0.9,0.6,1.6,1.4,2.1,2.4c0.7-1,1.6-1.8,2.7-2.4c1-0.6,2.2-0.9,3.6-0.9
		c2,0,3.6,0.6,4.8,1.8c1.1,1.2,1.7,3,1.7,5.2v11.8h-4.3v-10.5c0-1.5-0.3-2.6-1-3.4c-0.7-0.8-1.6-1.2-2.8-1.2c-1.2,0-2.1,0.4-2.8,1.2
		c-0.7,0.8-1.1,1.9-1.1,3.4v10.4h-4.3v-10.5c0-1.4-0.3-2.5-1-3.3c-0.7-0.8-1.6-1.2-2.8-1.2c-1.2,0-2.1,0.4-2.9,1.2s-1.1,1.9-1.1,3.4
		v10.4h-4.3V681.3z"/>
	<path class="st2" d="M388,681.3h4.3v3.1c0.7-1,1.5-1.8,2.5-2.5c1-0.7,2.2-1,3.7-1c1.1,0,2.2,0.2,3.2,0.6s1.9,1,2.7,1.9
		c0.8,0.8,1.4,1.8,1.9,3c0.5,1.2,0.7,2.6,0.7,4.1v0.1c0,1.5-0.2,2.9-0.7,4.1c-0.5,1.2-1.1,2.2-1.9,3c-0.8,0.8-1.7,1.4-2.8,1.9
		c-1,0.4-2.1,0.6-3.2,0.6c-1.5,0-2.8-0.3-3.8-1c-1-0.7-1.8-1.4-2.5-2.3v8.5H388V681.3z M397.6,696.5c0.7,0,1.4-0.1,2-0.4
		c0.6-0.3,1.2-0.7,1.7-1.2c0.5-0.5,0.9-1.1,1.1-1.9c0.3-0.7,0.4-1.6,0.4-2.5v-0.1c0-0.9-0.1-1.7-0.4-2.4c-0.3-0.7-0.7-1.4-1.1-1.9
		c-0.5-0.5-1-0.9-1.7-1.2c-0.6-0.3-1.3-0.4-2-0.4c-0.7,0-1.4,0.1-2.1,0.4c-0.7,0.3-1.2,0.7-1.7,1.2s-0.9,1.1-1.2,1.9
		c-0.3,0.7-0.4,1.5-0.4,2.4v0.1c0,0.9,0.1,1.7,0.4,2.4c0.3,0.7,0.7,1.4,1.2,1.9c0.5,0.5,1.1,0.9,1.7,1.2S396.8,696.5,397.6,696.5z"
		/>
	<path class="st2" d="M420.2,700.2c-1.4,0-2.7-0.3-3.9-0.8c-1.2-0.5-2.2-1.2-3.1-2s-1.6-1.9-2-3c-0.5-1.2-0.7-2.4-0.7-3.7v-0.1
		c0-1.3,0.2-2.6,0.8-3.7c0.5-1.2,1.2-2.2,2.1-3.1s1.9-1.6,3.1-2.1c1.2-0.5,2.5-0.8,3.9-0.8c1.4,0,2.7,0.3,3.9,0.8
		c1.2,0.5,2.2,1.2,3.1,2.1s1.6,1.9,2,3c0.5,1.2,0.7,2.4,0.7,3.7v0.1c0,1.3-0.3,2.5-0.8,3.7c-0.5,1.2-1.2,2.2-2.1,3.1
		s-1.9,1.6-3.1,2.1C423,699.9,421.7,700.2,420.2,700.2z M420.3,696.5c0.9,0,1.6-0.2,2.3-0.5c0.7-0.3,1.3-0.7,1.8-1.3
		c0.5-0.5,0.9-1.2,1.1-1.9c0.3-0.7,0.4-1.5,0.4-2.3v-0.1c0-0.8-0.1-1.6-0.4-2.3c-0.3-0.7-0.7-1.4-1.2-1.9c-0.5-0.5-1.1-1-1.8-1.3
		c-0.7-0.3-1.4-0.5-2.3-0.5s-1.6,0.2-2.3,0.5c-0.7,0.3-1.3,0.7-1.8,1.3c-0.5,0.5-0.9,1.1-1.1,1.9s-0.4,1.5-0.4,2.3v0.1
		c0,0.8,0.1,1.6,0.4,2.3s0.7,1.3,1.2,1.9c0.5,0.5,1.1,1,1.8,1.3C418.7,696.3,419.5,696.5,420.3,696.5z"/>
	<path class="st2" d="M440.8,700.1c-1.3,0-2.7-0.2-4-0.7c-1.4-0.5-2.6-1.2-3.8-2.1l1.9-2.9c1,0.7,2,1.3,3.1,1.7c1,0.4,2,0.6,3,0.6
		c0.9,0,1.6-0.2,2.1-0.5c0.5-0.4,0.8-0.8,0.8-1.4v-0.1c0-0.3-0.1-0.7-0.3-0.9s-0.5-0.5-0.9-0.7c-0.4-0.2-0.8-0.4-1.3-0.5
		c-0.5-0.2-1-0.3-1.6-0.5c-0.7-0.2-1.4-0.4-2-0.7c-0.7-0.3-1.3-0.6-1.9-1c-0.5-0.4-1-0.9-1.3-1.5c-0.3-0.6-0.5-1.4-0.5-2.2v-0.1
		c0-0.9,0.2-1.6,0.5-2.3c0.3-0.7,0.8-1.3,1.4-1.8c0.6-0.5,1.3-0.9,2.1-1.1c0.8-0.3,1.7-0.4,2.6-0.4c1.2,0,2.3,0.2,3.5,0.6
		c1.2,0.4,2.3,0.9,3.3,1.6l-1.7,3c-0.9-0.5-1.8-1-2.7-1.3c-0.9-0.3-1.8-0.5-2.5-0.5c-0.8,0-1.5,0.2-1.9,0.5
		c-0.5,0.3-0.7,0.8-0.7,1.3v0.1c0,0.3,0.1,0.6,0.3,0.9c0.2,0.2,0.5,0.5,0.9,0.7s0.8,0.4,1.3,0.6s1,0.3,1.6,0.5
		c0.7,0.2,1.4,0.5,2,0.7c0.7,0.3,1.3,0.6,1.8,1c0.5,0.4,1,0.9,1.3,1.5c0.4,0.6,0.5,1.3,0.5,2.1v0.1c0,1-0.2,1.8-0.5,2.5
		c-0.3,0.7-0.8,1.3-1.5,1.8c-0.6,0.5-1.3,0.8-2.2,1.1S441.7,700.1,440.8,700.1z"/>
	<path class="st2" d="M458.2,700.1c-0.8,0-1.5-0.1-2.1-0.3c-0.7-0.2-1.2-0.5-1.7-0.9s-0.9-1-1.1-1.7c-0.3-0.7-0.4-1.5-0.4-2.6v-9.7
		h-2.3v-3.6h2.3v-5.1h4.3v5.1h5v3.6h-5v9.1c0,0.8,0.2,1.4,0.6,1.8c0.4,0.4,1,0.5,1.7,0.5c0.9,0,1.8-0.2,2.6-0.6v3.5
		c-0.5,0.3-1.1,0.5-1.7,0.7C459.7,700,459,700.1,458.2,700.1z"/>
</g>
<circle class="st2" cx="383.7" cy="612.5" r="41.8"/>
<path class="st7" d="M408.4,628.2c0-0.4-0.1-0.8-0.1-1.3l0,0c-0.2-2.3-0.3-4.7-0.3-7c0-1.5-0.5-2.9-1.5-3.9c-0.8-0.8-1.9-1.4-3-1.5
	c-0.1-2.1-0.9-4.2-2.2-5.8c-1.3-1.7-3.1-2.9-5.2-3.4c-0.8-0.2-1.5-0.7-2-1.3c-1.1-1.5-2.6-2.6-4.3-3.2c-1.7-0.7-3.6-0.8-5.4-0.4
	c0,0,0-4.4,0-4.5c0.5,0.4,1.1,0.7,1.8,0.7h2.4c1.4,0,2.8-0.6,3.8-1.6s1.6-2.4,1.6-3.8v-2.4c0-0.8-0.3-1.6-0.9-2.1s-1.3-0.9-2.1-0.9
	h-2.4c-1.4,0-2.8,0.6-3.8,1.6s-1.6,2.4-1.6,3.8v1.5c-1-1.3-2.6-2-4.2-2h-2.4c-0.8,0-1.6,0.3-2.1,0.9s-0.9,1.3-0.9,2.1v2.4
	c0,1.4,0.6,2.8,1.6,3.8c1,1,2.4,1.6,3.8,1.6h2.4c0.1,0,0.1,0,0.2,0l0,0c-1.1,0.6-2.1,1.3-3,2.3c-0.6,0.7-1.3,1.1-2.1,1.3
	c-0.2,0-0.3,0.1-0.4,0.3c-0.1,0.1-0.1,0.3-0.1,0.5c0,0.2,0.1,0.3,0.3,0.4c0.1,0.1,0.3,0.1,0.5,0.1c1.1-0.3,2-0.9,2.8-1.7
	c1.8-2,4.3-3.1,6.9-3c2.6,0.1,5.1,1.3,6.8,3.4c0.7,0.8,1.6,1.5,2.6,1.8c1.8,0.5,3.4,1.5,4.5,3c1.2,1.4,1.9,3.2,2,5h-37
	c0.1-2.3,1.1-4.4,2.8-6s3.9-2.4,6.1-2.4c0.3,0,0.6-0.3,0.6-0.6s-0.3-0.6-0.6-0.6c-2.6,0-5.1,1-7,2.8s-3,4.2-3.1,6.9
	c-1.1,0.2-2.2,0.7-3,1.5c-1,1-1.6,2.4-1.5,3.9c0,2.3,0,4.7-0.3,7c0,0.4-0.1,0.9-0.1,1.3l0,0c-0.3,2.9,0.6,5.8,2.5,8
	c1.9,2.2,4.7,3.4,7.6,3.4h29.2c3.6,0,7-2,8.8-5.1c0.2-0.3,0.1-0.7-0.2-0.8s-0.6-0.1-0.8,0.2c-1.6,2.8-4.6,4.5-7.8,4.5h-29.2
	c-2.6,0-5-1.1-6.7-3c-1.7-1.9-2.5-4.5-2.2-7c0-0.2,0-0.4,0.1-0.7c7.7,1.5,15.6,2.3,23.5,2.3c7.9,0,15.7-0.8,23.5-2.3
	c0,0.2,0,0.5,0.1,0.7c0.1,1.1,0.1,2.2-0.2,3.3c-0.1,0.3,0.1,0.6,0.4,0.7c0.3,0.1,0.6-0.1,0.7-0.4
	C408.4,630.7,408.5,629.4,408.4,628.2L408.4,628.2L408.4,628.2z M384.3,591c0-1.1,0.4-2.2,1.2-3s1.9-1.2,3-1.2h2.4
	c0.5,0,0.9,0.2,1.3,0.5s0.5,0.8,0.5,1.3v2.4c0,1.1-0.4,2.2-1.2,3s-1.9,1.2-3,1.2h-2.4c-0.3,0-0.5-0.1-0.8-0.2l3.6-3.6l0,0
	c0.2-0.2,0.2-0.6,0-0.8c-0.2-0.2-0.6-0.2-0.9,0l-3.6,3.6c-0.1-0.2-0.2-0.5-0.2-0.8L384.3,591L384.3,591z M378.9,600
	c-1.1,0-2.2-0.4-3-1.2c-0.8-0.8-1.2-1.8-1.2-3v-2.4c0-0.5,0.2-0.9,0.5-1.3s0.8-0.5,1.3-0.5h2.4c1.1,0,2.2,0.4,3,1.2s1.2,1.8,1.2,3
	v2.4c0,0.3-0.1,0.5-0.2,0.8l-3.6-3.6c-0.2-0.2-0.6-0.2-0.9,0c-0.2,0.2-0.2,0.6,0,0.8l3.6,3.6l0,0c-0.2,0.1-0.5,0.2-0.8,0.2
	L378.9,600L378.9,600z M360.4,626.4c0.1-1.2,0.2-2.5,0.2-3.7h20.7c0.3,0,0.6-0.3,0.6-0.6s-0.3-0.6-0.6-0.6h-20.7c0-0.6,0-1.1,0-1.7
	c0-1.1,0.4-2.2,1.2-3c0.8-0.8,1.9-1.2,3-1.2h37.8c1.1,0,2.2,0.5,3,1.2c0.8,0.8,1.2,1.9,1.2,3c0,0.6,0,1.1,0,1.7h-23.1
	c-0.3,0-0.6,0.3-0.6,0.6s0.3,0.6,0.6,0.6h23.1c0,1.2,0.1,2.5,0.2,3.7C391.7,629.5,375.8,629.5,360.4,626.4L360.4,626.4L360.4,626.4z
	"/>
<path class="st8" d="M493.4,789.3H274c-16,0-26,12-18,21.5l109.7,131.1c8,9.6,28,9.6,36,0l109.7-131.1
	C519.4,801.3,509.4,789.3,493.4,789.3z"/>
<g class="st1">
	<path class="st2" d="M325,852.8h4v19.4h12.1v3.7H325V852.8z"/>
	<path class="st2" d="M355.6,875.8v-2.1c-0.6,0.7-1.4,1.3-2.3,1.8c-0.9,0.5-2,0.7-3.4,0.7c-0.8,0-1.6-0.1-2.4-0.3
		c-0.7-0.2-1.4-0.6-2-1c-0.6-0.5-1-1-1.4-1.7c-0.3-0.7-0.5-1.4-0.5-2.3v-0.1c0-1,0.2-1.8,0.5-2.5c0.4-0.7,0.8-1.3,1.5-1.8
		c0.6-0.5,1.4-0.8,2.2-1.1c0.9-0.2,1.8-0.3,2.8-0.3c1.1,0,2,0.1,2.7,0.2c0.7,0.1,1.4,0.3,2.1,0.5v-0.3c0-1.2-0.4-2.1-1.1-2.8
		c-0.7-0.6-1.8-1-3.2-1c-1,0-1.9,0.1-2.6,0.3c-0.8,0.2-1.6,0.5-2.3,0.8l-1.1-3.2c1-0.4,2-0.8,3-1.1c1-0.3,2.2-0.4,3.7-0.4
		c2.6,0,4.5,0.6,5.8,1.9s1.9,3.1,1.9,5.4v10.3H355.6z M355.7,868.6c-0.5-0.2-1.1-0.4-1.8-0.5c-0.7-0.1-1.4-0.2-2.2-0.2
		c-1.3,0-2.2,0.2-2.9,0.7s-1.1,1.1-1.1,2v0.1c0,0.8,0.3,1.5,1,1.9s1.4,0.7,2.4,0.7c0.7,0,1.3-0.1,1.8-0.3c0.6-0.2,1.1-0.4,1.5-0.7
		c0.4-0.3,0.7-0.7,1-1.2c0.2-0.5,0.3-1,0.3-1.5V868.6z"/>
	<path class="st2" d="M364.3,858.4h4v2.7c0.3-0.4,0.6-0.8,0.9-1.2s0.7-0.7,1.2-1c0.5-0.3,0.9-0.5,1.5-0.7c0.5-0.2,1.1-0.2,1.8-0.2
		c2,0,3.5,0.6,4.6,1.8s1.6,2.8,1.6,4.9v11.1h-4V866c0-1.4-0.3-2.4-1-3.1s-1.6-1.1-2.7-1.1c-1.2,0-2.1,0.4-2.8,1.1
		c-0.7,0.8-1.1,1.8-1.1,3.2v9.8h-4V858.4z"/>
	<path class="st2" d="M392,876.2c-1,0-2-0.2-3-0.6c-1-0.4-1.8-1-2.6-1.7c-0.7-0.8-1.4-1.7-1.8-2.8s-0.7-2.4-0.7-3.9v-0.1
		c0-1.5,0.2-2.7,0.7-3.9c0.5-1.1,1-2.1,1.8-2.8c0.7-0.8,1.6-1.4,2.6-1.7c1-0.4,2-0.6,3-0.6c1.4,0,2.6,0.3,3.6,0.9
		c0.9,0.6,1.7,1.3,2.4,2.1v-9.4h4v24.1h-4l0-2.9c-0.6,0.9-1.4,1.7-2.4,2.3S393.4,876.2,392,876.2z M392.9,872.7
		c0.7,0,1.3-0.1,1.9-0.4s1.2-0.6,1.6-1.1s0.8-1.1,1.1-1.8c0.3-0.7,0.4-1.4,0.4-2.3v-0.1c0-0.8-0.1-1.6-0.4-2.3
		c-0.3-0.7-0.6-1.3-1.1-1.8c-0.5-0.5-1-0.9-1.6-1.1c-0.6-0.3-1.2-0.4-1.9-0.4c-0.7,0-1.3,0.1-1.9,0.4c-0.6,0.3-1.1,0.6-1.6,1.1
		c-0.5,0.5-0.8,1.1-1.1,1.8c-0.3,0.7-0.4,1.5-0.4,2.3v0.1c0,0.8,0.1,1.6,0.4,2.3c0.3,0.7,0.6,1.3,1.1,1.8c0.5,0.5,1,0.9,1.6,1.1
		C391.6,872.6,392.2,872.7,392.9,872.7z"/>
	<path class="st2" d="M407.8,861.9h-2.2v-3.3h2.2v-1.3c0-1.9,0.5-3.4,1.4-4.3c0.9-0.9,2.2-1.4,3.9-1.4c0.7,0,1.3,0,1.8,0.1
		c0.5,0.1,1,0.2,1.4,0.3v3.4c-0.4-0.1-0.8-0.2-1.1-0.3c-0.4-0.1-0.8-0.1-1.2-0.1c-1.5,0-2.3,0.9-2.3,2.6v1h4.6v3.3h-4.6v14h-4V861.9
		z M419.3,852h4.3v3.8h-4.3V852z M419.5,858.4h4v17.4h-4V858.4z"/>
	<path class="st2" d="M429,851.8h4v24.1h-4V851.8z"/>
	<path class="st2" d="M438.4,851.8h4v24.1h-4V851.8z"/>
</g>
<circle class="st2" cx="383.7" cy="789.4" r="41.8"/>
<path class="st8" d="M372.8,805.9c-0.1-0.5-0.6-0.8-1.1-0.6c-1,0.3-2,0.1-2.8-0.4s-1.4-1.2-1.7-2.2c-0.1-0.4-0.4-0.7-0.8-0.7
	c-0.3,0-0.5,0.1-0.7,0.3c-0.2,0.2-0.2,0.5-0.2,0.8c0.4,1.4,1.3,2.6,2.5,3.3s2.7,0.9,4.1,0.5c0.4-0.1,0.6-0.5,0.6-0.9
	C372.9,806.1,372.9,806,372.8,805.9L372.8,805.9z M382.8,805.5c-0.4-1.4-1.3-2.6-2.5-3.3c-0.6-0.3-1.3-0.6-2-0.7c-0.3,0-0.5,0-0.8,0
	c-0.5,0-0.9,0.1-1.4,0.2l0,0c-0.2,0-0.4,0.2-0.5,0.4c-0.1,0.2-0.2,0.4-0.1,0.7c0.1,0.2,0.2,0.4,0.4,0.5c0.2,0.1,0.5,0.2,0.7,0.1
	c1-0.3,2-0.1,2.8,0.4s1.4,1.2,1.7,2.2c0,0.2,0.2,0.4,0.4,0.6c0.2,0.1,0.5,0.2,0.7,0.1s0.4-0.2,0.5-0.4
	C382.9,806,382.9,805.7,382.8,805.5z M389.9,803.8c-0.1-0.2-0.2-0.4-0.5-0.5c-0.9-0.4-1.4-1.1-1.6-1.9s0-1.7,0.5-2.6
	c0.1-0.2,0.2-0.3,0.2-0.5c0-0.1,0-0.3-0.1-0.4c-0.2-0.3-0.5-0.5-0.8-0.5c-0.3,0-0.6,0.2-0.7,0.4c-0.9,1.2-1.1,2.7-0.8,4
	s1.2,2.5,2.5,3.1c0.1,0.1,0.3,0.1,0.4,0.1c0.1,0,0.2,0,0.3,0c0.2-0.1,0.4-0.2,0.5-0.5C389.9,804.3,390,804.1,389.9,803.8z
	 M401,803.4c-0.1-0.3-0.4-0.4-0.7-0.4c-0.4,0-0.7,0.2-0.8,0.5c-0.4,0.9-1.1,1.4-1.9,1.6c-0.8,0.2-1.7,0-2.6-0.5
	c-0.1-0.1-0.3-0.2-0.5-0.2c-0.1,0-0.1,0-0.2,0c-0.2,0-0.4,0.2-0.6,0.4c-0.1,0.2-0.2,0.4-0.1,0.7c0,0.2,0.2,0.4,0.4,0.6
	c1.2,0.8,2.7,1.1,4,0.8s2.4-1.2,3.1-2.5c0.1-0.1,0.1-0.3,0.1-0.4C401.1,803.6,401,803.5,401,803.4L401,803.4z M401,803.4
	c-0.1-0.3-0.4-0.4-0.7-0.4c-0.4,0-0.7,0.2-0.8,0.5c-0.4,0.9-1.1,1.4-1.9,1.6c-0.8,0.2-1.7,0-2.6-0.5c-0.1-0.1-0.3-0.2-0.5-0.2
	c-0.1,0-0.1,0-0.2,0c-0.2,0-0.4,0.2-0.6,0.4c-0.1,0.2-0.2,0.4-0.1,0.7c0,0.2,0.2,0.4,0.4,0.6c1.2,0.8,2.7,1.1,4,0.8s2.4-1.2,3.1-2.5
	c0.1-0.1,0.1-0.3,0.1-0.4C401.1,803.6,401,803.5,401,803.4L401,803.4z M389.4,803.3c-0.9-0.4-1.4-1.1-1.6-1.9s0-1.7,0.5-2.6
	c0.1-0.2,0.2-0.3,0.2-0.5c0-0.1,0-0.3-0.1-0.4c-0.2-0.3-0.5-0.5-0.8-0.5c-0.3,0-0.6,0.2-0.7,0.4c-0.9,1.2-1.1,2.7-0.8,4
	s1.2,2.5,2.5,3.1c0.1,0.1,0.3,0.1,0.4,0.1c0.1,0,0.2,0,0.3,0c0.2-0.1,0.4-0.2,0.5-0.5c0.1-0.2,0.1-0.5,0-0.7
	C389.8,803.6,389.6,803.4,389.4,803.3z M380.3,802.2c-0.6-0.3-1.3-0.6-2-0.7c-0.3,0-0.5,0-0.8,0c-0.5,0-0.9,0.1-1.4,0.2l0,0
	c-0.2,0-0.4,0.2-0.5,0.4c-0.1,0.2-0.2,0.4-0.1,0.7c0.1,0.2,0.2,0.4,0.4,0.5c0.2,0.1,0.5,0.2,0.7,0.1c1-0.3,2-0.1,2.8,0.4
	s1.4,1.2,1.7,2.2c0,0.2,0.2,0.4,0.4,0.6c0.2,0.1,0.5,0.2,0.7,0.1s0.4-0.2,0.5-0.4c0.1-0.2,0.1-0.5,0.1-0.7
	C382.5,804.1,381.5,802.9,380.3,802.2z M371.7,805.3c-1,0.3-2,0.1-2.8-0.4s-1.4-1.2-1.7-2.2c-0.1-0.4-0.4-0.7-0.8-0.7
	c-0.3,0-0.5,0.1-0.7,0.3c-0.2,0.2-0.2,0.5-0.2,0.8c0.4,1.4,1.3,2.6,2.5,3.3s2.7,0.9,4.1,0.5c0.4-0.1,0.6-0.5,0.6-0.9
	c0-0.1,0-0.2,0-0.2C372.7,805.5,372.2,805.2,371.7,805.3L371.7,805.3z M410.5,808.7h-4c0.6-1.1,1-2.4,1-3.7c0-2-0.8-3.9-2.1-5.2
	c-1.3-1.3-3.2-2.2-5.2-2.2H400c0.1-0.6,0.2-1.2,0.2-1.8c0-0.5,0-1-0.1-1.6c-0.1-0.4-0.2-0.8-0.3-1.2c0.2-0.2,0.5-0.3,0.7-0.5
	c1.4-1,2.1-2.4,2.5-3.8c0.8-2.7,0.7-5.3,2.5-7.5c0.1-0.2,0.2-0.4,0.2-0.6c0-0.1,0-0.2,0-0.2c-0.1-0.3-0.3-0.5-0.6-0.6
	c-0.7-0.2-1.5-0.4-2.3-0.4h-0.5c-2.3,0-4.9,0.9-6.9,2.6c-1.6,1.3-2.7,3.2-3.1,5.5h-0.1c-0.3,0-0.5,0-0.8,0c0,0,0-0.1,0-0.1
	c-1-1.8-2.7-3-4.6-3.5c-0.9-0.2-1.9-0.3-2.9-0.2c-1,0.1-1.9,0.4-2.8,1c-1.7,1-2.9,2.6-3.4,4.4c-0.8-0.3-1.6-0.4-2.4-0.5
	c-0.5-1.3-1.3-2.3-2.2-3c-2-1.6-4.2-2.3-5.5-4.5c-0.2-0.3-0.5-0.5-0.8-0.5h0c-0.2,0-0.5,0.1-0.6,0.3c-1.8,2.1-2.5,5.7-1.4,8.9
	c0.4,1.1,1,2.2,1.9,3.1c-0.3,0.5-0.6,1-0.9,1.6c-0.2,0.6-0.4,1.2-0.6,1.8c-0.1,0.4-0.1,0.9-0.2,1.3c-1.1,0.4-2,1-2.8,1.8
	c-1.4,1.4-2.2,3.3-2.2,5.4c0,1.4,0.4,2.7,1,3.9h-4c-0.5,0-0.9,0.4-0.9,0.9s0.4,0.9,0.9,0.9h53.6c0.5,0,0.9-0.4,0.9-0.9
	S411,808.7,410.5,808.7L410.5,808.7z M396.5,783.4c1.8-1.5,4.2-2.2,6.2-2.2c0.2,0,0.4,0.1,0.6,0.1c-1.4,2.4-1.5,5-2,6.9
	c-0.4,1.1-0.8,2.1-1.9,2.9c-0.8,0.6-2.1,1.1-3.9,1.5c0.1-0.2,0.2-0.3,0.4-0.5c1.5-1.9,3.2-4,3.9-6.5c0-0.1,0-0.2,0-0.2
	c0-0.2-0.1-0.4-0.2-0.5c-0.1-0.2-0.4-0.4-0.7-0.4c-0.4,0-0.8,0.3-0.9,0.7c-0.5,2-2.1,3.9-3.6,5.9c-0.1,0.1-0.1,0.2-0.2,0.3
	C393.3,787.6,394.5,785.1,396.5,783.4z M366.3,789.2c-0.7-2.1-0.4-4.5,0.4-6.2c1.6,1.9,3.7,2.8,5,3.9c0.8,0.7,1.4,1.4,1.7,2.5
	c0.2,0.8,0.2,2,0,3.5c0-0.1-0.1-0.2-0.2-0.2c-1.1-1.9-2.3-4-4.2-5.4c-0.2-0.1-0.4-0.2-0.5-0.2h0c-0.4,0-0.7,0.3-0.8,0.6
	c-0.1,0.4,0,0.8,0.3,1c1.5,1.1,2.6,3,3.7,4.9c0,0,0,0.1,0.1,0.1C368.7,793.2,367,791.4,366.3,789.2L366.3,789.2z M404.4,808.7h-41.2
	c-0.9-1-1.5-2.4-1.5-3.9c0-1.6,0.6-3.1,1.7-4.1c1-1.1,2.5-1.7,4.1-1.7s3,0.7,4.1,1.7c0.2,0.2,0.4,0.3,0.6,0.3s0.5-0.1,0.6-0.2
	c0.2-0.2,0.3-0.4,0.3-0.6s-0.1-0.5-0.3-0.6c-1.4-1.4-3.3-2.2-5.3-2.2c-0.2,0-0.5,0-0.7,0c0-0.2,0-0.4,0.1-0.6c0.1-0.5,0.3-1,0.5-1.5
	c0.2-0.4,0.4-0.8,0.6-1.2c1.4,0.9,3.2,1.5,5.4,1.6c0.8,1.1,1.8,2.1,3.1,2.6c0.1,0,0.2,0.1,0.3,0.1c0.1,0,0.2,0,0.4-0.1
	c0.2-0.1,0.4-0.3,0.5-0.5c0.1-0.2,0.1-0.5,0-0.7c-0.1-0.2-0.3-0.4-0.5-0.5c-0.7-0.3-1.4-0.9-2-1.6c0,0,0,0,0,0
	c0.4-1.8,0.6-3.3,0.5-4.6c1.8,0.2,3.3,1,4.5,2.2c1.4,1.4,2.3,3.4,2.3,5.6c0,0.5,0,1.1-0.2,1.6c0,0.1,0,0.1,0,0.2
	c0,0.2,0,0.3,0.1,0.5c0.1,0.2,0.3,0.3,0.6,0.4c0.2,0,0.5,0,0.7-0.1c0.2-0.1,0.3-0.3,0.4-0.6c0.1-0.6,0.2-1.3,0.2-2
	c0-2.7-1.1-5.1-2.8-6.8c-0.6-0.6-1.3-1.2-2.1-1.6h0c0.4-1.5,1.3-2.7,2.7-3.5c1-0.6,2-0.8,3-0.8l0,0c0.5,0,0.9,0.1,1.4,0.2
	c1.3,0.3,2.5,1.2,3.3,2.3c-1.1,0.4-2.2,1-3.1,2c-0.2,0.2-0.3,0.4-0.3,0.6s0.1,0.5,0.3,0.6c0.2,0.2,0.4,0.3,0.6,0.3
	c0.2,0,0.5-0.1,0.6-0.3c1.2-1.2,2.8-1.9,4.5-1.9c0,1.2,0.2,2.5,0.7,3.9c-0.8,1.3-1.4,2.7-1.4,4.3l0,0c0,0.2,0.1,0.5,0.3,0.6
	c0.2,0.2,0.4,0.3,0.6,0.3s0.5-0.1,0.6-0.3c0.2-0.2,0.3-0.4,0.3-0.6c0-0.9,0.3-1.9,0.9-2.8c0,0,0,0,0.1,0c1.6-0.2,2.9-0.5,4-1
	c0.1,0.2,0.1,0.5,0.2,0.8c0.1,0.4,0.1,0.8,0.1,1.2c0,0.7-0.1,1.4-0.4,2.1c-1.2,0.3-2.3,1-3.1,1.9c-0.2,0.2-0.3,0.4-0.3,0.6
	c0,0.2,0.1,0.5,0.3,0.6c0.2,0.2,0.4,0.3,0.6,0.3c0.2,0,0.5-0.1,0.6-0.3c1-1,2.4-1.7,3.9-1.7s2.9,0.6,3.9,1.7s1.6,2.4,1.6,4
	C405.8,806.4,405.2,807.7,404.4,808.7L404.4,808.7z M400.2,802.9c-0.4,0-0.7,0.2-0.8,0.5c-0.4,0.9-1.1,1.4-1.9,1.6
	c-0.8,0.2-1.7,0-2.6-0.5c-0.1-0.1-0.3-0.2-0.5-0.2c-0.1,0-0.1,0-0.2,0c-0.2,0-0.4,0.2-0.6,0.4c-0.1,0.2-0.2,0.4-0.1,0.7
	c0,0.2,0.2,0.4,0.4,0.6c1.2,0.8,2.7,1.1,4,0.8s2.4-1.2,3.1-2.5c0.1-0.1,0.1-0.3,0.1-0.4c0-0.2,0-0.3-0.1-0.5
	C400.8,803.1,400.5,802.9,400.2,802.9L400.2,802.9z M389.4,803.3c-0.9-0.4-1.4-1.1-1.6-1.9s0-1.7,0.5-2.6c0.1-0.2,0.2-0.3,0.2-0.5
	c0-0.1,0-0.3-0.1-0.4c-0.2-0.3-0.5-0.5-0.8-0.5c-0.3,0-0.6,0.2-0.7,0.4c-0.9,1.2-1.1,2.7-0.8,4s1.2,2.5,2.5,3.1
	c0.1,0.1,0.3,0.1,0.4,0.1c0.1,0,0.2,0,0.3,0c0.2-0.1,0.4-0.2,0.5-0.5c0.1-0.2,0.1-0.5,0-0.7C389.8,803.6,389.6,803.4,389.4,803.3z
	 M380.3,802.2c-0.6-0.3-1.3-0.6-2-0.7c-0.3,0-0.5,0-0.8,0c-0.5,0-0.9,0.1-1.4,0.2l0,0c-0.2,0-0.4,0.2-0.5,0.4
	c-0.1,0.2-0.2,0.4-0.1,0.7c0.1,0.2,0.2,0.4,0.4,0.5c0.2,0.1,0.5,0.2,0.7,0.1c1-0.3,2-0.1,2.8,0.4s1.4,1.2,1.7,2.2
	c0,0.2,0.2,0.4,0.4,0.6c0.2,0.1,0.5,0.2,0.7,0.1s0.4-0.2,0.5-0.4c0.1-0.2,0.1-0.5,0.1-0.7C382.5,804.1,381.5,802.9,380.3,802.2z
	 M371.8,805.3c-1,0.3-2,0.1-2.8-0.4s-1.4-1.2-1.7-2.2c-0.1-0.4-0.4-0.7-0.8-0.7c-0.3,0-0.5,0.1-0.7,0.3c-0.2,0.2-0.2,0.5-0.2,0.8
	c0.4,1.4,1.3,2.6,2.5,3.3s2.7,0.9,4.1,0.5c0.4-0.1,0.6-0.5,0.6-0.9c0-0.1,0-0.2,0-0.2C372.7,805.5,372.2,805.2,371.8,805.3
	L371.8,805.3z M372.8,805.9c-0.1-0.5-0.6-0.8-1.1-0.6c-1,0.3-2,0.1-2.8-0.4s-1.4-1.2-1.7-2.2c-0.1-0.4-0.4-0.7-0.8-0.7
	c-0.3,0-0.5,0.1-0.7,0.3c-0.2,0.2-0.2,0.5-0.2,0.8c0.4,1.4,1.3,2.6,2.5,3.3s2.7,0.9,4.1,0.5c0.4-0.1,0.6-0.5,0.6-0.9
	C372.9,806.1,372.9,806,372.8,805.9L372.8,805.9z M382.8,805.5c-0.4-1.4-1.3-2.6-2.5-3.3c-0.6-0.3-1.3-0.6-2-0.7c-0.3,0-0.5,0-0.8,0
	c-0.5,0-0.9,0.1-1.4,0.2l0,0c-0.2,0-0.4,0.2-0.5,0.4c-0.1,0.2-0.2,0.4-0.1,0.7c0.1,0.2,0.2,0.4,0.4,0.5c0.2,0.1,0.5,0.2,0.7,0.1
	c1-0.3,2-0.1,2.8,0.4s1.4,1.2,1.7,2.2c0,0.2,0.2,0.4,0.4,0.6c0.2,0.1,0.5,0.2,0.7,0.1s0.4-0.2,0.5-0.4
	C382.9,806,382.9,805.7,382.8,805.5z M389.9,803.8c-0.1-0.2-0.2-0.4-0.5-0.5c-0.9-0.4-1.4-1.1-1.6-1.9s0-1.7,0.5-2.6
	c0.1-0.2,0.2-0.3,0.2-0.5c0-0.1,0-0.3-0.1-0.4c-0.2-0.3-0.5-0.5-0.8-0.5c-0.3,0-0.6,0.2-0.7,0.4c-0.9,1.2-1.1,2.7-0.8,4
	s1.2,2.5,2.5,3.1c0.1,0.1,0.3,0.1,0.4,0.1c0.1,0,0.2,0,0.3,0c0.2-0.1,0.4-0.2,0.5-0.5C389.9,804.3,390,804.1,389.9,803.8z
	 M401,803.4c-0.1-0.3-0.4-0.4-0.7-0.4c-0.4,0-0.7,0.2-0.8,0.5c-0.4,0.9-1.1,1.4-1.9,1.6c-0.8,0.2-1.7,0-2.6-0.5
	c-0.1-0.1-0.3-0.2-0.5-0.2c-0.1,0-0.1,0-0.2,0c-0.2,0-0.4,0.2-0.6,0.4c-0.1,0.2-0.2,0.4-0.1,0.7c0,0.2,0.2,0.4,0.4,0.6
	c1.2,0.8,2.7,1.1,4,0.8s2.4-1.2,3.1-2.5c0.1-0.1,0.1-0.3,0.1-0.4C401.1,803.6,401,803.5,401,803.4L401,803.4z M389.9,803.8
	c-0.1-0.2-0.2-0.4-0.5-0.5c-0.9-0.4-1.4-1.1-1.6-1.9s0-1.7,0.5-2.6c0.1-0.2,0.2-0.3,0.2-0.5c0-0.1,0-0.3-0.1-0.4
	c-0.2-0.3-0.5-0.5-0.8-0.5c-0.3,0-0.6,0.2-0.7,0.4c-0.9,1.2-1.1,2.7-0.8,4s1.2,2.5,2.5,3.1c0.1,0.1,0.3,0.1,0.4,0.1
	c0.1,0,0.2,0,0.3,0c0.2-0.1,0.4-0.2,0.5-0.5C389.9,804.3,390,804.1,389.9,803.8z M382.8,805.5c-0.4-1.4-1.3-2.6-2.5-3.3
	c-0.6-0.3-1.3-0.6-2-0.7c-0.3,0-0.5,0-0.8,0c-0.5,0-0.9,0.1-1.4,0.2l0,0c-0.2,0-0.4,0.2-0.5,0.4c-0.1,0.2-0.2,0.4-0.1,0.7
	c0.1,0.2,0.2,0.4,0.4,0.5c0.2,0.1,0.5,0.2,0.7,0.1c1-0.3,2-0.1,2.8,0.4s1.4,1.2,1.7,2.2c0,0.2,0.2,0.4,0.4,0.6
	c0.2,0.1,0.5,0.2,0.7,0.1s0.4-0.2,0.5-0.4C382.9,806,382.9,805.7,382.8,805.5z M372.8,805.9c-0.1-0.5-0.6-0.8-1.1-0.6
	c-1,0.3-2,0.1-2.8-0.4s-1.4-1.2-1.7-2.2c-0.1-0.4-0.4-0.7-0.8-0.7c-0.3,0-0.5,0.1-0.7,0.3c-0.2,0.2-0.2,0.5-0.2,0.8
	c0.4,1.4,1.3,2.6,2.5,3.3s2.7,0.9,4.1,0.5c0.4-0.1,0.6-0.5,0.6-0.9C372.9,806.1,372.9,806,372.8,805.9L372.8,805.9z M401,803.4
	c-0.1-0.3-0.4-0.4-0.7-0.4c-0.4,0-0.7,0.2-0.8,0.5c-0.4,0.9-1.1,1.4-1.9,1.6c-0.8,0.2-1.7,0-2.6-0.5c-0.1-0.1-0.3-0.2-0.5-0.2
	c-0.1,0-0.1,0-0.2,0c-0.2,0-0.4,0.2-0.6,0.4c-0.1,0.2-0.2,0.4-0.1,0.7c0,0.2,0.2,0.4,0.4,0.6c1.2,0.8,2.7,1.1,4,0.8s2.4-1.2,3.1-2.5
	c0.1-0.1,0.1-0.3,0.1-0.4C401.1,803.6,401,803.5,401,803.4L401,803.4z"/>
<g>
	<g class="st1">
		<path d="M23.4,121l0.3,1.3l-9,10.1l12.7,4.6l0.3,1.3l-18.3,4.6l-0.3-1.4l15.9-4L12.6,133l0-0.1l8.7-9.9l-15.9,4l-0.3-1.3L23.4,121
			z"/>
		<path d="M17.1,145.5L17.1,145.5c3.8-1,7.8,1.1,8.8,5.1c1,4-1.5,7.6-5.2,8.6l-0.1,0c-3.7,0.9-7.7-1.1-8.7-5.1
			C10.9,150.1,13.4,146.4,17.1,145.5z M20.2,157.8L20.2,157.8c3.3-0.8,5.2-3.9,4.5-7c-0.8-3.2-4-4.8-7.1-4l-0.1,0
			c-3.2,0.8-5.2,3.9-4.4,7C13.9,157,17.1,158.6,20.2,157.8z"/>
	</g>
	<g class="st1">
		<path d="M16.2,162.7l1.2,0.5c-0.8,1.7-1,3.5-0.5,5.2c0.5,1.8,1.8,3,3.3,2.6l0.1,0c1.6-0.4,1.7-2.2,1.8-4.2
			c0.1-2.3,0.1-4.9,2.5-5.5l0.1,0c2.1-0.5,4.1,0.9,4.8,3.5c0.4,1.6,0.3,3.5-0.3,5.1l-1.2-0.4c0.5-1.4,0.7-3,0.3-4.4
			c-0.5-1.8-1.8-2.8-3.1-2.5l-0.1,0c-1.5,0.4-1.6,2.3-1.7,4.4c-0.1,2.3-0.3,4.7-2.6,5.3l-0.1,0c-2.4,0.6-4.4-1.1-5.1-3.6
			C15.2,166.8,15.4,164.4,16.2,162.7z"/>
	</g>
	<g class="st1">
		<path d="M21.6,176.6l8.7-2.2l-0.5-1.9l1.2-0.3l0.5,1.9l4.3-1.1l0.3,1.3l-4.3,1.1l1.2,4.7l-1.2,0.3l-1.2-4.7l-8.6,2.2
			c-1.9,0.5-2.3,1.8-1.9,3.3c0.2,0.7,0.4,1.2,1,1.8l-1.2,0.3c-0.5-0.6-0.8-1.2-1-2.1C18.3,179.2,19,177.3,21.6,176.6z"/>
		<path d="M41,190.8l1.7,6.6c1,4-0.4,7.3-3.9,8.2l-0.1,0c-3.8,1-6.7-1.9-7.6-5.7l-1.2-4.9l-6.8,1.7l-0.3-1.4L41,190.8z M32.3,199.8
			c0.9,3.4,3.2,5.3,5.9,4.6l0.1,0c2.9-0.7,3.9-3.4,3-6.7l-1.3-5.2l-9,2.3L32.3,199.8z"/>
	</g>
	<g class="st1">
		<path d="M40.1,208.5l0.3,1.3l-3.8,1c2.6,0.4,4.9,2.2,5.5,4.9l-1.4,0.4l0-0.1c-0.8-3.1-3.8-5.2-8.1-4.1l-5.5,1.4l-0.3-1.3
			L40.1,208.5z"/>
	</g>
	<g class="st1">
		<path d="M35.6,218.8L35.6,218.8c3.9-1,7.7,1,8.6,4.6c0.9,3.7-1.5,6.9-5.4,7.9c-0.2,0.1-0.3,0.1-0.5,0.1l-2.8-11.1
			c-3.3,1.1-4.6,3.9-3.9,6.6c0.5,2.1,1.8,3.3,3.2,4.1l-0.6,1.1c-1.8-1-3.3-2.3-3.9-4.9C29.4,223.6,31.4,219.9,35.6,218.8z
			 M39.1,229.7c2.7-0.9,4.7-3,4-6.1c-0.7-2.6-3.4-4.1-6.4-3.6L39.1,229.7z"/>
	</g>
	<g class="st1">
		<path d="M45.3,234.1l-0.5-1.9l1.2-0.3l0.5,1.9l1.3-0.3c1.5-0.4,2.8-0.3,3.8,0.3c0.9,0.5,1.5,1.4,1.8,2.5c0.2,0.8,0.2,1.4,0.2,2.1
			l-1.2,0.3c0-0.8,0-1.4-0.2-2.1c-0.5-1.8-1.8-2.4-4.1-1.8l-1.3,0.3l1.2,4.7l-1.2,0.3l-1.2-4.7l-12.2,3.1l-0.3-1.3L45.3,234.1z"/>
	</g>
	<g class="st1">
		<path d="M41.6,242.8L41.6,242.8c3.9-1,7.7,1,8.6,4.6c0.9,3.7-1.5,6.9-5.4,7.9c-0.2,0.1-0.3,0.1-0.5,0.1l-2.8-11.1
			c-3.3,1.1-4.6,3.9-3.9,6.6c0.5,2.1,1.8,3.3,3.2,4.1l-0.6,1.1c-1.8-1-3.3-2.3-3.9-4.9C35.4,247.6,37.5,243.8,41.6,242.8z
			 M45.1,253.7c2.7-0.9,4.7-3,4-6.1c-0.7-2.6-3.4-4.1-6.4-3.6L45.1,253.7z"/>
		<path d="M52.4,257.3l0.3,1.3l-3.8,1c2.6,0.4,4.9,2.2,5.5,4.9l-1.4,0.4l0-0.1c-0.8-3.1-3.8-5.2-8.1-4.1l-5.5,1.4l-0.3-1.3
			L52.4,257.3z"/>
	</g>
	<g class="st1">
		<path d="M54.9,267.3l0.3,1.3l-3.8,1c2.6,0.4,4.9,2.2,5.5,4.9l-1.4,0.4l0-0.1c-0.8-3.1-3.8-5.2-8.1-4.1l-5.5,1.4l-0.3-1.3
			L54.9,267.3z"/>
	</g>
	<g class="st1">
		<path d="M50.4,277.6L50.4,277.6c3.9-1,7.7,1,8.6,4.6c0.9,3.7-1.5,6.9-5.4,7.9c-0.2,0.1-0.3,0.1-0.5,0.1l-2.8-11.1
			c-3.3,1.1-4.6,3.9-3.9,6.6c0.5,2.1,1.8,3.3,3.2,4.1l-0.6,1.1c-1.8-1-3.3-2.3-3.9-4.9C44.2,282.4,46.2,278.6,50.4,277.6z
			 M53.8,288.5c2.7-0.9,4.7-3,4-6.1c-0.7-2.6-3.4-4.1-6.4-3.6L53.8,288.5z"/>
		<path d="M54.2,292.9L54.2,292.9c4.4-1.1,7.9,1.5,8.7,4.7c0.7,2.7-0.4,4.8-1.8,6.3l8.6-2.2l0.3,1.3L51,307.9l-0.3-1.3l3-0.8
			c-2-0.7-4-2-4.7-4.7C48.1,298,49.9,294,54.2,292.9z M57.3,305L57.3,305c3.5-0.9,5.1-4.1,4.4-6.9c-0.7-2.9-3.4-4.7-7-3.8l-0.1,0
			c-3.5,0.9-5.1,3.9-4.4,6.7C50.9,303.8,53.9,305.9,57.3,305z"/>
	</g>
</g>
<g>
	<g class="st1">
		<path d="M162.9,686.2l0.4,1.4l-17,4.6l2.9,10.7l-1.3,0.3l-3.2-12.1L162.9,686.2z"/>
	</g>
	<g class="st1">
		<path d="M155.1,703.8L155.1,703.8c3.9-1.1,7.7,0.8,8.7,4.4c1,3.7-1.4,6.9-5.3,8c-0.2,0.1-0.3,0.1-0.5,0.1l-3-11
			c-3.2,1.1-4.5,4-3.8,6.6c0.6,2.1,1.8,3.2,3.3,4l-0.5,1.1c-1.8-1-3.3-2.3-4-4.8C149,708.7,151,704.9,155.1,703.8z M158.7,714.6
			c2.6-0.9,4.7-3.1,3.9-6.2c-0.7-2.6-3.5-4.1-6.5-3.5L158.7,714.6z"/>
		<path d="M156.4,719.6L156.4,719.6c2.8-0.8,5,1.2,5.9,4.6c0.5,1.9,0.6,3.2,0.6,4.6l0.6-0.2c2.7-0.7,3.6-2.7,2.9-5.5
			c-0.4-1.6-1.2-2.8-2.2-3.9l1-0.8c1.1,1.3,1.9,2.6,2.4,4.4c0.5,1.8,0.4,3.4-0.3,4.6c-0.6,1.1-1.7,1.9-3.4,2.4l-8.3,2.2l-0.3-1.3
			l2.2-0.6c-1.5-0.6-3.2-1.9-3.9-4.4C152.9,723.4,153.6,720.3,156.4,719.6z M160.3,729.5l1.5-0.4c0-1.2-0.1-2.8-0.6-4.7
			c-0.8-2.8-2.4-4-4.3-3.5l-0.1,0c-1.9,0.5-2.6,2.6-2,4.7C155.6,728.3,157.9,730.2,160.3,729.5z"/>
	</g>
	<g class="st1">
		<path d="M158.1,734.6l1.2,0.5c-0.7,1.8-0.9,3.5-0.5,5.2c0.5,1.8,1.9,2.9,3.4,2.5l0.1,0c1.6-0.4,1.7-2.2,1.7-4.2
			c0-2.3,0-4.9,2.4-5.5l0.1,0c2.1-0.6,4.2,0.8,4.9,3.4c0.4,1.6,0.3,3.5-0.2,5.1l-1.3-0.4c0.5-1.4,0.6-3,0.2-4.5
			c-0.5-1.8-1.8-2.8-3.1-2.4l-0.1,0c-1.5,0.4-1.5,2.3-1.6,4.4c0,2.3-0.2,4.8-2.5,5.4l-0.1,0c-2.4,0.6-4.4-1-5.1-3.5
			C157.1,738.6,157.3,736.3,158.1,734.6z"/>
	</g>
	<g class="st1">
		<path d="M163.7,748.4l8.7-2.3l-0.5-1.9l1.2-0.3l0.5,1.9l4.2-1.1l0.3,1.3l-4.2,1.1l1.3,4.7L174,752l-1.3-4.7l-8.6,2.3
			c-1.9,0.5-2.3,1.8-1.9,3.4c0.2,0.7,0.5,1.2,1,1.8l-1.2,0.3c-0.5-0.6-0.8-1.2-1.1-2C160.5,751,161.2,749.1,163.7,748.4z"/>
		<path d="M183.3,762.2l1.8,6.6c1.1,4-0.2,7.3-3.8,8.3l-0.1,0c-3.8,1-6.7-1.7-7.7-5.6l-1.3-4.9l-6.8,1.8l-0.4-1.4L183.3,762.2z
			 M174.8,771.3c0.9,3.4,3.3,5.2,6,4.5l0.1,0c2.9-0.8,3.8-3.4,2.9-6.7l-1.4-5.2l-8.9,2.4L174.8,771.3z"/>
	</g>
	<g class="st1">
		<path d="M182.8,779.9l0.3,1.3l-3.8,1c2.7,0.4,5,2.2,5.6,4.8l-1.4,0.4l0-0.1c-0.8-3.1-3.9-5.1-8.2-4l-5.4,1.5l-0.3-1.3L182.8,779.9
			z"/>
	</g>
	<g class="st1">
		<path d="M178.4,790.3L178.4,790.3c3.9-1.1,7.7,0.8,8.7,4.4c1,3.7-1.4,6.9-5.3,8c-0.2,0.1-0.3,0.1-0.5,0.1l-3-11
			c-3.2,1.1-4.5,4-3.8,6.6c0.6,2.1,1.8,3.2,3.3,4l-0.5,1.1c-1.8-1-3.3-2.3-4-4.8C172.3,795.2,174.3,791.4,178.4,790.3z M182,801.2
			c2.6-0.9,4.7-3.1,3.9-6.2c-0.7-2.6-3.5-4.1-6.5-3.5L182,801.2z"/>
	</g>
	<g class="st1">
		<path d="M188.4,805.5l-0.5-1.9l1.2-0.3l0.5,1.9l1.3-0.4c1.5-0.4,2.8-0.3,3.8,0.2c0.9,0.5,1.5,1.3,1.8,2.5c0.2,0.8,0.3,1.4,0.2,2.1
			l-1.2,0.3c0-0.8,0-1.4-0.2-2.1c-0.5-1.8-1.8-2.4-4.1-1.8l-1.3,0.3l1.2,4.6l-1.2,0.3l-1.2-4.6l-12.1,3.3l-0.3-1.3L188.4,805.5z"/>
	</g>
	<g class="st1">
		<path d="M184.8,814.2L184.8,814.2c3.9-1.1,7.7,0.8,8.7,4.4c1,3.7-1.4,6.9-5.3,8c-0.2,0.1-0.3,0.1-0.5,0.1l-3-11
			c-3.2,1.1-4.5,4-3.8,6.6c0.6,2.1,1.8,3.2,3.3,4l-0.5,1.1c-1.8-1-3.3-2.3-4-4.8C178.7,819.1,180.7,815.3,184.8,814.2z M188.5,825
			c2.6-0.9,4.7-3.1,3.9-6.2c-0.7-2.6-3.5-4.1-6.5-3.5L188.5,825z"/>
		<path d="M195.9,828.5l0.3,1.3l-3.8,1c2.7,0.4,5,2.2,5.6,4.8l-1.4,0.4l0-0.1c-0.8-3.1-3.9-5.1-8.2-4l-5.4,1.5l-0.3-1.3L195.9,828.5
			z"/>
	</g>
	<g class="st1">
		<path d="M198.5,838.4l0.3,1.3l-3.8,1c2.7,0.4,5,2.2,5.6,4.8l-1.4,0.4l0-0.1c-0.8-3.1-3.9-5.1-8.2-4l-5.4,1.5l-0.3-1.3L198.5,838.4
			z"/>
	</g>
	<g class="st1">
		<path d="M194.2,848.8L194.2,848.8c3.9-1.1,7.7,0.8,8.7,4.4c1,3.7-1.4,6.9-5.3,8c-0.2,0.1-0.3,0.1-0.5,0.1l-3-11
			c-3.2,1.1-4.5,4-3.8,6.6c0.6,2.1,1.8,3.2,3.3,4L193,862c-1.8-1-3.3-2.3-4-4.8C188,853.7,190,849.9,194.2,848.8z M197.8,859.7
			c2.6-0.9,4.7-3.1,3.9-6.2c-0.7-2.6-3.5-4.1-6.5-3.5L197.8,859.7z"/>
		<path d="M198.3,864.1L198.3,864.1c4.4-1.2,7.9,1.4,8.8,4.6c0.7,2.7-0.3,4.8-1.7,6.3l8.6-2.3l0.3,1.3l-19,5.1l-0.3-1.3l3-0.8
			c-2.1-0.7-4-2-4.8-4.6C192.2,869.2,193.9,865.3,198.3,864.1z M201.5,876.1L201.5,876.1c3.5-0.9,5-4.2,4.3-7
			c-0.8-2.9-3.5-4.6-7.1-3.7l-0.1,0c-3.5,0.9-5.1,4-4.3,6.8C195.1,875,198.1,877,201.5,876.1z"/>
	</g>
</g>
<line class="st9" x1="19.5" y1="32.4" x2="261.6" y2="946.8"/>
<path class="st10" d="M248.8,936c0.4-0.4,1-0.4,1.4-0.1l11.2,10.4l4.6-14.6c0.2-0.5,0.7-0.8,1.3-0.7s0.8,0.7,0.6,1.3l-5.1,16.1
	c-0.1,0.3-0.4,0.6-0.7,0.7s-0.7,0-0.9-0.2l-12.4-11.4c-0.1-0.1-0.2-0.3-0.3-0.5C248.5,936.6,248.6,936.3,248.8,936L248.8,936z"/>
</svg>
