<?xml version="1.0" encoding="UTF-8"?>
<svg id="Layer_2" data-name="Layer 2" xmlns="http://www.w3.org/2000/svg" viewBox="0 0 261.69 201.93">
  <defs>
    <style>
      .cls-1 {
        fill: #fff;
      }

      .cls-2 {
        fill: #2a3967;
      }

      .cls-3 {
        fill: #1e3865;
      }

      .cls-4 {
        fill: #ff912b;
      }

      .cls-5 {
        fill: #fff1e7;
      }

      .cls-6 {
        fill: #25468f;
      }

      .cls-7 {
        fill: #f99352;
      }

      .cls-8 {
        fill: #ffa166;
      }

      .cls-9 {
        fill: #ff9843;
      }

      .cls-10 {
        fill: #fc7600;
      }

      .cls-11 {
        fill: #f9ddbf;
      }

      .cls-12 {
        fill: #fddbba;
      }

      .cls-13 {
        fill: #ffae73;
      }

      .cls-14 {
        fill: #f9924f;
      }
    </style>
  </defs>
  <g id="Layer_1-2" data-name="Layer 1">
    <g>
      <g>
        <g id="man">
          <path class="cls-3" d="M37.19,55.88l13.93,26.43,7.14-2.6-2.32,7.05,13.96,42.06s7.72-53.45-32.71-72.94Z"/>
          <path class="cls-3" d="M60.43,79.25s15,41.49,10.07,112.47c0,0-5.96,2.95-26.03-.58-20.17-3.54,15.96-111.89,15.96-111.89Z"/>
          <g>
            <path class="cls-4" d="M64.54,172.32s-.06,.76-.18,2.17c-.25,3.21-.78,9.8-1.46,18.36-.23,2.83-.47,5.87-.72,9.08H20.47c-.15-2.73-.3-5.37-.44-7.88-.09-1.55-.18-3.06-.26-4.51h0c-.44-7.88-.78-14.07-.96-17.39-.01-.25-.03-.49-.04-.71-.07-1.27-.11-1.96-.11-1.96l1.82,.11,2.9,.18,11.54,.71,3.62,.23,5.42,.33h0l10.97,.68,9.6,.59Z"/>
            <path class="cls-10" d="M64.54,172.32s-.06,.76-.18,2.17c-.25,3.21-.78,9.8-1.46,18.36-.23,2.83-.47,5.87-.72,9.08H20.47c-.15-2.73-.3-5.37-.44-7.88-.09-1.55-.18-3.06-.26-4.51h0c-.44-7.88-.78-14.07-.96-17.39-.01-.25-.03-.49-.04-.71-.07-1.27-.11-1.96-.11-1.96l1.82,.11,2.9,.18,11.54,.71,3.62,.23,5.42,.33h0l10.97,.68,9.6,.59Z"/>
            <path class="cls-4" d="M57.04,174.76s-.05,.13-.15,.38c-.34,.86-1.25,3.11-2.6,6.43-.58,1.41-1.24,3.03-1.97,4.81-.71,1.72-1.48,3.61-2.32,5.63-.44,1.06-.9,2.17-1.37,3.31-.87,2.1-1.79,4.31-2.76,6.62H5.12c1.19-4.73,1.94-8.85,2.06-11.56,.02-.4,.04-.81,.06-1.24,.34-6.38,1.29-15.87,1.93-21.94,.37-3.47,.64-5.81,.64-5.81l13.16,3.73,10.63,3.01,5.03,1.42,5.33,1.51h0l10.84,3.07,2.24,.63Z"/>
          </g>
          <path class="cls-13" d="M49.67,66.6c-11.57,3.65-31.58-6.2-31.58-6.2,0,0,10.66-8,10.1-24.64l8.94,7.21,6.07,4.89s-.03,2.89-.69,7.94c-.12,.92-.26,1.92-.43,2.98-.13,.85,.24,1.71,.97,2.16,4.22,2.61,6.6,5.66,6.6,5.66Z"/>
          <path class="cls-1" d="M65.82,174.03c-.35,.29-.75,.46-1.22,.46-4.34-.06-17.01,2.35-27.72,1.25-9.03-.87-17.03-3.54-25.62-7.39-1.14-.51-3.76-1.91-3.71-3.19,.04-1.4,.18-3.42,.35-5.97,.61-8.86,1.67-24.11,.63-41.69-.19-3.27-.28-6.52-.3-9.72-.09-23.84,4.64-44.8,14.14-51.9,0,0,6.62,3.72,11.21,5.18,4.49,1.44,6.81,1.15,9.13-.4,0,0,4.54,2.25,6.47,4.37,4.49,4.89,7.99,11.39,10.31,20.71,1.97,7.93,3.82,19.5,4.45,34.33,.29,6.72,2.15,53.73,1.86,53.96Z"/>
          <path class="cls-6" d="M53.81,186.98c-.24,2.4-.5,4.78-.8,7.13,0,0-23.81,9.28-53.01-9.03l5.67-52.77,3.98-37.03,12.73-39.38s30.56,11.53,31.98,54.68c.51,9.15,2.59,44.63-.55,76.41Z"/>
          <path class="cls-3" d="M53.81,186.98c-.24,2.4-.5,4.78-.8,7.13,0,0-23.81,9.28-53.01-9.03l5.67-52.77,20.26-19.7s-.09,.68-.2,1.91c-.96,10.41-3.8,60.28,28.08,72.46Z"/>
          <path class="cls-14" d="M43.22,47.86s-.03,2.89-.69,7.94c-6.73-1.15-14.37-12.03-14.37-12.03,3.43-.99,6.43-1.17,8.98-.8l6.07,4.89Z"/>
          <path class="cls-13" d="M48.23,47.55s-20.83,3.46-22.79-9.54c-1.96-13.01-5.96-21.32,7.26-24.08,13.22-2.76,16.55,1.81,18.26,6,1.71,4.18,2.64,26.39-2.73,27.63Z"/>
          <path class="cls-13" d="M20.5,168.1s-.18,3.72,.41,4.75c4.02,7.01,7.7,5.86,2.32,14.92,0,0-2.5,3.57-4.33,.99-1.83-2.58,.54-4.24-2.38-7.61-3.37-3.88-3.34-3.95-2.07-8.04l-.22-4.28,6.27-.73Z"/>
          <path class="cls-6" d="M16.37,172.82c3.58-.76,7.05-2.54,7.05-2.54,0,0-3.05-34.48-2.96-37.79,.09-3.31,14.07-47.92,14.07-47.92l-12.15-28.69S5.28,65.54,3.4,80.61c-2.32,18.63-1.63,46.74-1.67,51.37-.1,13.85,9.27,40.82,9.27,40.82,0,0,2.55,.6,5.36,0Z"/>
          <path class="cls-6" d="M25.42,36.75s2.14-.36,1.79-3.3c-.34-2.94-.34-6.79,2.05-6.08,2.39,.72,2.51,2.63,3.5,1.51,.98-1.12,1-5.83,8.12-6.16,7.12-.33,10.02,2.15,13.33,.69,3.31-1.46,3.49-6.47,3.49-6.47,0,0-.94,1.79-2.37,2.36,0,0,5.53-7.56-.87-12.74-6.4-5.18-12.92-1.79-16.62-1.57-8.16,.49-13.43,.98-16.09,6.34-2.67,5.36-1.57,20.24,3.67,25.4Z"/>
          <path class="cls-13" d="M19.57,173.01s3.04,.65,3.67,1.35c2.04,2.23,3.59,2.74,3.36,3.3-.48,1.14-2.87,.08-4.53-1.19-1.66-1.28-2.51-3.45-2.51-3.45Z"/>
          <path class="cls-3" d="M22.38,55.88l13.93,26.43,7.14-2.6-2.32,7.05,13.96,42.06s7.72-53.45-32.71-72.94Z"/>
        </g>
        <path class="cls-1" d="M49.65,40.59s-.81,2.14-2.84,2.2c-2.03,.06-3.59-1.91-3.59-1.91,0,0,4.4-1.02,6.43-.29Z"/>
      </g>
      <g>
        <g>
          <path class="cls-8" d="M167.47,170.24l5.18,.96s14.17-21.84,14.57-28.5c.39-6.36,13.16-34.19-1.79-51.57-.67-.79-1.41-1.55-2.2-2.29-.03-.03-.06-.06-.09-.08,0,0-.03,.04-.07,.12-.3,.51-1.49,2.65-2.88,7.4-2.18,7.41-4.87,21.18-5.51,44.94,0,0-3.48,20.35-7.21,29.02Z"/>
          <path class="cls-8" d="M167.47,170.24s-5.55,6.26-5.72,8.8c-.17,2.54,2.02,5.73,4.49,6.28,2.47,.55,.93-3.37,1.3-4.94,.37-1.57,1.98-3.96,1.88-3.25-.1,.71-1.08,3.51-.78,3.95,.3,.45,1.1,.52,1.4-.97,.3-1.49,2.79-3.24,2.3-4.84-.49-1.6-.09-2.84,.58-4.99,.67-2.15,1.8-4.73,1.8-4.73l-4-.85-3.26,5.54Z"/>
        </g>
        <path class="cls-2" d="M204.91,57.2s.12,2.64-1.46,3.16c-1.58,.52,1.63,6.22,1.38,10.07-.25,3.85-1.96,5.4-1.96,5.4,0,0,.82-2.12,.36-3.43,0,0,.07,2.72-1.92,4.1-1.99,1.37-1.45,2.56-1.45,2.56,0,0-4.5-1.35-4.62-4.72,0,0-.19,1.52-.04,2.16,0,0-3.88-2.91-4.07-6.27-.19-3.36,3.06-6.19,4.53-6.24,1.48-.05,4.77-2.95,4.68-4.04-.09-1.1,4.56-2.73,4.56-2.73Z"/>
        <path class="cls-4" d="M215.27,179.87c-1.24,6.59-2.64,14.22-4.06,22.06h-34.95c.02-.29,.04-.57,.06-.86,.3-3.87,.7-7.43,1.14-10.66,1.51-15.57,3.13-23.39,4.11-27.03,.57-2.12,.93-2.82,.93-2.82l5.15,1.35s0,0,.01,0l6.77,1.78,1.68,5.34,1.63,5.18,16.03,5.17,1.48,.48Z"/>
        <path class="cls-9" d="M233.69,183.64c-.2,3.3-.47,10.15-.77,18.29h-37.18c-.39-2.58-.76-5.07-1.11-7.47-.3,0-3.12-19.04-10.01-29.89h0c-.62-.98-1.27-1.89-1.96-2.71-.63-.76,3.37-.19,5,.06,0,0,0,0,.01,0,.4,.06,.65,.11,.65,.11,3.95,1.05,10.5,.12,17-1.4h0c5.47-1.27,10.89-2.96,14.69-4.23,3.17-1.06,5.21-1.83,5.21-1.83,0,0,.39,.34,1.01,1.06,1.28,1.49,3.53,4.58,5.25,9.53,1.57,4.54,2.7,10.64,2.21,18.48Z"/>
        <path class="cls-2" d="M198.23,38.78l18.33,27.8s2.1-4.11,4.42-2.63c3.63,2.29,10.97-4.15,9.35-15.23-.08-.53-1.79-3.24-2.74-4.88-.66-1.14-1.5-2.16-2.52-3s-1.81-1.17-4.3-2.49c-6.48-3.45-14.22-3.66-20.84-.5-1.26,.6-1.7,.93-1.7,.93Z"/>
        <path class="cls-13" d="M190.18,94.94c2.56,2.35,5.89,4.45,10.21,6.09,16.18,6.13,24.51-7.12,28.23-16.48-2.1-1.61-4.21-2.19-5.42-2.51-1.19-.31-2.45-.57-3.49-.77-1.68-1.69-3.68-7.95-3.05-17.17l-.81,.1-13.66,1.81s.03,4.27-.21,8.26c-.19,3.13-.56,6.09-1.24,6.73-1.06,.08-1.69,.14-1.69,.14,0,0,0,0,0,.01-.22,.27-4.89,6.03-8.85,13.77Z"/>
        <path class="cls-12" d="M182.62,104.44c.02,.37,.05,.73,.1,1.11,1.32,10.31,3.23,43.59,3.23,43.59-3.22,6.34,44.69,21.04,46.76,14.98,3.1-4.73,0-13.79-2.67-20.74-.66-1.7-.8-3.5-1.39-4.81-.37-.84-.67-1.71-.89-2.59-.56-2.22-.62-4.55-.15-6.81,1.23-6.01,2.96-11.58,4.41-16.1,.7-2.19,1.34-4.14,1.83-5.75-.69-.96-1.37-1.86-2-2.71-.96-1.31-1.79-2.51-2.33-3.63-.6-1.23-.85-2.37-.57-3.47,.21-.84,.51-1.67,.86-2.49,.17-.39,.34-.76,.53-1.14,1.97-3.98,4.92-7.21,4.92-7.21-3.85-3.19-12.05-4.62-12.05-4.62,0,0-.13,.44-.36,1.16-.88,2.88-3.25,10.24-4.61,11.34-1.7,1.37-25.17,2.3-25.53-.41-.36-2.66,6.09-12.58,6.33-12.95,0,0,0-.01,0-.01-.25,.02-.5,.04-.74,.05-1.21,.1-2.3,.3-3.29,.34-6.39,.27-7.53,2.01-7.53,2.01,3.37,4.1-5.36,11.12-4.84,20.88Z"/>
        <path class="cls-7" d="M202.18,66.02s.04,4.26-.21,8.26c7.56,.27,11.99-6.36,13.87-10.08l-13.66,1.81Z"/>
        <path class="cls-13" d="M199.41,69.65s17.84,1.43,18.56-9.69c.72-11.12,3.51-18.43-7.85-19.81-11.36-1.38-13.85,2.72-14.99,6.37-1.14,3.65-.34,22.48,4.29,23.14Z"/>
        <path class="cls-2" d="M196.05,40.36c2.97-3.17,5.01-2.3,6.12-1.22,10.1-4.75,15.89,3.59,15.89,3.59,.69,8.06,6.15,13,6.15,13,0,0-3.38,1.8-10.76-.6-2.25-.74-4.2-2.49-5.81-4.58,2.71,5.28,6.61,9.21,6.61,9.21-8.7-4.71-11.51-17.41-11.78-18.75-1.15,.91-3.44,2.9-4.22,4.94-1.07,2.78-1.84,8.58-3.53,8.28,0,0-3.12-9.11,1.34-13.86Z"/>
        <path class="cls-9" d="M226.36,82.7s-11.14,7.12-13.99,22.14l-3.37-1.07s1.3-10.72,14.19-21.72l3.17,.66Z"/>
        <path class="cls-9" d="M187,105.21l3.53,.23c-.71-13.02,5.83-21.9,7.76-24.23-1.21,.1-2.31,.21-3.29,.34-9.24,13.37-7.99,23.66-7.99,23.66Z"/>
        <path class="cls-9" d="M212.03,113.16c.22-.93,2.38-9.94,2.38-9.94,0,0,.5-2.82-4.45-3.1-4.95-.28-22.52-1.2-22.52-1.2,0,0-2.39,1.44-2.43,4.41-.04,2.96-2.43,19.93-2.43,19.93l-1,40.13,52.11,20.26s3.67-18.85-.44-31.99c-2.4-7.66-5.49-15.67-5.49-15.67,0,0-19.06-8.65-15.73-22.82Z"/>
        <g>
          <g>
            <path class="cls-10" d="M212.51,103.52c.25-.78-.18-1.61-.96-1.86-.78-.25-1.61,.18-1.86,.96-.25,.78,.18,1.61,.96,1.86,.78,.25,1.61-.18,1.86-.96Z"/>
            <path class="cls-10" d="M212.25,103.44c.25-.78-.18-1.61-.96-1.86s-1.61,.18-1.86,.96c-.25,.78,.18,1.61,.96,1.86s1.61-.18,1.86-.96Z"/>
          </g>
          <path class="cls-10" d="M211.76,102.99c0-.12-.1-.21-.22-.21-.12,0-.21,.1-.21,.22,0,.12,.1,.21,.22,.21,.12,0,.21-.1,.21-.22Z"/>
          <path class="cls-10" d="M210.36,103c0-.12-.1-.21-.22-.21-.12,0-.21,.1-.21,.22,0,.12,.1,.21,.22,.21,.12,0,.21-.1,.21-.22Z"/>
        </g>
        <g>
          <g>
            <path class="cls-10" d="M190.72,101.64c.25-.78-.18-1.61-.96-1.86-.78-.25-1.61,.18-1.86,.96-.25,.78,.18,1.61,.96,1.86,.78,.25,1.61-.18,1.86-.96Z"/>
            <path class="cls-10" d="M190.47,101.56c.25-.78-.18-1.61-.96-1.86-.78-.25-1.61,.18-1.86,.96-.25,.78,.18,1.61,.96,1.86,.78,.25,1.61-.18,1.86-.96Z"/>
          </g>
          <path class="cls-10" d="M189.98,101.11c0-.12-.1-.21-.22-.21-.12,0-.21,.1-.21,.22,0,.12,.1,.21,.22,.21,.12,0,.21-.1,.21-.22Z"/>
          <path class="cls-10" d="M188.57,101.12c0-.12-.1-.21-.22-.21-.12,0-.21,.1-.21,.22,0,.12,.1,.21,.22,.21,.12,0,.21-.1,.21-.22Z"/>
        </g>
        <path class="cls-2" d="M228.7,59.32s.12,2.64-1.46,3.16c-1.58,.52,1.63,6.22,1.38,10.07-.25,3.85-1.96,5.4-1.96,5.4,0,0,.82-2.12,.36-3.43,0,0,.07,2.72-1.92,4.1-1.99,1.37-1.45,2.56-1.45,2.56,0,0-4.5-1.35-4.62-4.72,0,0-.19,1.52-.04,2.16,0,0-3.88-2.91-4.07-6.27-.19-3.36,3.06-6.19,4.53-6.24,1.48-.05,4.77-2.95,4.68-4.04-.09-1.1,4.56-2.73,4.56-2.73Z"/>
        <path class="cls-13" d="M228.68,147.8s-5.34,3.37-6.12,3.34c-1.83-.07-5.45-4.07-8.46-2.22-3.01,1.85-5.96,4.93-4.92,6.17,1.04,1.23,4.58-.22,6.27,.02,1.7,.25,5.88,2.33,8.83,1.35,2.84-.94,8.97-4.81,8.97-4.81l-4.57-3.85Z"/>
        <path class="cls-13" d="M235.24,86.66s19.88,23.47,26.45,36.7c0,0-7.91,17.22-33.55,31.21,0,0-1.14-.25-2.88-1.49-2.71-1.94,.29-3.36,.89-3.74,6.5-4.21,17.87-22.36,18.2-23.94,.33-1.57-14.24-15.7-18.67-20.92-4.43-5.22,2.67-20.51,9.56-17.82Z"/>
        <path class="cls-5" d="M204.91,63.43s-2.66,1.61-4.55,1.42c-1.87-.19-2.89-2.45-2.89-2.45,0,0,3.64-.54,7.44,1.02Z"/>
        <path class="cls-12" d="M235.24,86.66l8.93,8.72s.23,15.82-13.28,17.5c0,0-13.36-11.82-6.74-21.07,6.63-9.25,11.09-5.16,11.09-5.16Z"/>
        <path class="cls-12" d="M187.46,83.56s-6.88,3.18-9.1,14.29c0,0,.13,3.53,5.43,5.34,0,0,6.96-18.76,5.97-19.63-.99-.87-2.3,0-2.3,0Z"/>
        <path class="cls-13" d="M222.56,151.14s-.3-1.3-1.45-1.81c-1.15-.51-2.22-1.62-2.31-1.3-.09,.33-.16,.87,.43,1.52,.59,.66,1.6,1.76,3.33,1.58Z"/>
      </g>
      <path class="cls-11" d="M186.22,22.3c.62-15.44-12.32-22.3-25.54-22.3s-27.63,3.43-28.87,23.95c-.8,13.21,6.24,21.33,26.51,21.33,6.84,0,12.15-1.08,16.22-3l10.13,9-4.98-12.45c4.41-4.1,6.27-9.89,6.54-16.55Z"/>
      <path class="cls-11" d="M71.12,37.12c-.6-14.76,11.77-21.31,24.42-21.31s26.41,3.28,27.6,22.9c.77,12.62-5.96,20.39-25.34,20.39-6.54,0-11.61-1.03-15.5-2.87l-9.69,8.61,4.76-11.9c-4.22-3.92-5.99-9.45-6.25-15.82Z"/>
    </g>
  </g>
</svg>