<?xml version="1.0" encoding="UTF-8"?>
<svg id="Layer_2" data-name="Layer 2" xmlns="http://www.w3.org/2000/svg" viewBox="0 0 338.49 142.76">
  <defs>
    <style>
      .cls-1 {
        fill: #163054;
      }

      .cls-2 {
        fill: #fff;
      }

      .cls-3 {
        fill: #fcecdb;
      }

      .cls-4 {
        fill: #153d74;
      }

      .cls-5 {
        fill: #1e3865;
      }

      .cls-6 {
        fill: #f8caa4;
      }

      .cls-7 {
        fill: #ff912b;
      }

      .cls-8 {
        opacity: .6;
      }

      .cls-9 {
        fill: #25468f;
      }

      .cls-10 {
        fill: #0b3563;
      }

      .cls-11 {
        fill: #dceaff;
      }

      .cls-12 {
        fill: #b53c37;
      }

      .cls-13 {
        fill: #b8d0fc;
      }

      .cls-14 {
        fill: #153c6b;
      }

      .cls-15 {
        fill: #fc7600;
      }

      .cls-16 {
        fill: #214d9a;
      }

      .cls-17 {
        fill: #fddbba;
      }

      .cls-18 {
        fill: #4b9ba9;
      }

      .cls-19 {
        fill: #ffae73;
      }

      .cls-20 {
        fill: #6ca3ea;
      }

      .cls-21 {
        fill: #f9924f;
      }
    </style>
  </defs>
  <g id="Layer_1-2" data-name="Layer 1">
    <g>
      <g>
        <path class="cls-20" d="M296.76,141.58l-18.43-76.48,1.29-3.01,18.25,79.48c.05,.2-.11,.4-.32,.4h-.3c-.23,0-.44-.16-.49-.39Z"/>
        <g>
          <path class="cls-20" d="M213.6,141.97h0c-.38,0-.67-.34-.61-.71l5.43-32.89h2.33l-6.47,33.05c-.06,.32-.35,.56-.68,.56Z"/>
          <path class="cls-20" d="M265.66,141.97h0c-.38,0-.67-.34-.61-.71l5.43-32.89h2.33l-6.47,33.05c-.06,.32-.35,.56-.68,.56Z"/>
          <polygon class="cls-3" points="278.28 108.43 213.47 108.43 226.9 24.25 291.71 24.25 278.28 108.43"/>
          <rect class="cls-20" x="208.69" y="107.79" width="74.44" height="2.48"/>
          <g>
            <path class="cls-13" d="M252.56,41.86c-.05,.67-.15,1.32-.29,1.96-1.35,6.02-6.71,10.63-12.76,10.64-6.7,.01-11.71-5.61-11.2-12.55,.51-6.95,6.36-12.58,13.05-12.6,1.4,0,2.73,.24,3.95,.7,.55,.2,1.08,.45,1.58,.73,1.08,.62,2.05,1.41,2.86,2.35,.45,.52,.86,1.09,1.21,1.69,.21,.35,.39,.71,.56,1.09,.47,1.04,.8,2.17,.95,3.37,.08,.6,.11,1.21,.11,1.84,0,.26-.01,.53-.03,.79Z"/>
            <path class="cls-2" d="M251.54,35.86l-11.1,6.02s4.58-8.07,6.46-11.15c1.08,.62,2.05,1.41,2.86,2.35,.45,.52,.86,1.09,1.21,1.69,.21,.35,.39,.71,.56,1.09Z"/>
            <path class="cls-7" d="M252.69,34.34l-10.14,5.5s4.18-7.37,5.9-10.18c.99,.56,1.87,1.29,2.62,2.14,.41,.48,.79,.99,1.11,1.55,.19,.32,.36,.65,.51,.99Z"/>
          </g>
          <g>
            <path class="cls-13" d="M273.12,102.03h-53.35s5.4-30.78,5.4-30.78h53.35s-5.4,30.78-5.4,30.78Zm-52.92-.31h52.59s5.29-30.16,5.29-30.16h-52.59s-5.29,30.16-5.29,30.16Z"/>
            <g>
              <path class="cls-7" d="M269.94,97.81h-47.31s8.39-4.5,10.7-4.27c2.3,.24,5.61,2.06,7.74,2.13s4.43-6.32,6.8-6.02c2.37,.3,3.26,5.95,4.49,5.4,1.23-.55,4.91-.79,7.03,0,2.12,.79,5.21-2.51,7.08-2.41,1.86,.1,3.49,5.17,3.49,5.17Z"/>
              <g>
                <polygon class="cls-7" points="234 88.76 224.97 88.76 225.05 88.28 234.09 88.28 234 88.76"/>
                <polygon class="cls-7" points="233.82 89.79 224.79 89.79 224.87 89.31 233.91 89.31 233.82 89.79"/>
              </g>
            </g>
            <g>
              <path class="cls-13" d="M225.33,82.38h47.31s-6.81-4.5-9.2-4.26c-2.39,.24-6.33,2.06-8.49,2.13-2.15,.07-2.21-6.32-4.69-6.02-2.47,.3-5.35,5.95-6.38,5.4-1.03-.55-4.63-.79-7.03,0-2.4,.79-4.33-2.52-6.23-2.41-1.9,.1-5.3,5.17-5.3,5.17Z"/>
              <g>
                <polygon class="cls-13" points="236.56 74.21 227.52 74.21 227.6 73.73 236.64 73.73 236.56 74.21"/>
                <polygon class="cls-13" points="236.38 75.24 227.34 75.24 227.42 74.76 236.46 74.76 236.38 75.24"/>
              </g>
            </g>
          </g>
          <g>
            <polygon class="cls-13" points="228.4 66.95 226.33 66.95 228.13 57.23 230.2 57.23 228.4 66.95"/>
            <polygon class="cls-13" points="231.23 66.95 229.15 66.95 230.55 59.42 232.63 59.42 231.23 66.95"/>
            <polygon class="cls-13" points="234.06 66.95 231.98 66.95 233.44 59.1 235.51 59.1 234.06 66.95"/>
            <polygon class="cls-13" points="236.88 66.95 234.81 66.95 235.92 60.98 237.99 60.98 236.88 66.95"/>
            <polygon class="cls-13" points="239.71 66.95 237.63 66.95 238.82 60.54 240.9 60.54 239.71 66.95"/>
            <polygon class="cls-13" points="242.54 66.95 240.46 66.95 241.38 61.98 243.46 61.98 242.54 66.95"/>
          </g>
          <g>
            <polygon class="cls-7" points="256.16 66.95 254.09 66.95 255.89 57.23 257.97 57.23 256.16 66.95"/>
            <polygon class="cls-7" points="258.99 66.95 256.91 66.95 258.31 59.42 260.39 59.42 258.99 66.95"/>
            <polygon class="cls-7" points="261.82 66.95 259.74 66.95 261.2 59.1 263.27 59.1 261.82 66.95"/>
            <polygon class="cls-7" points="264.64 66.95 262.57 66.95 263.68 60.98 265.75 60.98 264.64 66.95"/>
            <polygon class="cls-7" points="267.47 66.95 265.39 66.95 266.58 60.54 268.66 60.54 267.47 66.95"/>
            <polygon class="cls-7" points="270.3 66.95 268.22 66.95 269.14 61.98 271.22 61.98 270.3 66.95"/>
          </g>
          <g>
            <g>
              <polygon class="cls-13" points="266.15 35.21 259.4 35.21 259.57 34.28 266.33 34.28 266.15 35.21"/>
              <polygon class="cls-13" points="274.44 35.21 266.98 35.21 267.15 34.28 274.61 34.28 274.44 35.21"/>
              <polygon class="cls-13" points="279.76 35.21 275 35.21 275.17 34.28 279.93 34.28 279.76 35.21"/>
              <polygon class="cls-13" points="284.2 35.21 280.53 35.21 280.7 34.28 284.37 34.28 284.2 35.21"/>
            </g>
            <g>
              <polygon class="cls-13" points="265.41 39.16 258.66 39.16 258.83 38.23 265.59 38.23 265.41 39.16"/>
              <polygon class="cls-13" points="273.7 39.16 266.24 39.16 266.41 38.23 273.87 38.23 273.7 39.16"/>
              <polygon class="cls-13" points="279.01 39.16 274.26 39.16 274.43 38.23 279.19 38.23 279.01 39.16"/>
              <polygon class="cls-13" points="283.45 39.16 279.79 39.16 279.96 38.23 283.63 38.23 283.45 39.16"/>
            </g>
            <g>
              <polygon class="cls-13" points="270.17 33.05 259.8 33.05 259.98 32.13 270.34 32.13 270.17 33.05"/>
              <polygon class="cls-13" points="277.13 33.05 271.15 33.05 271.33 32.13 277.3 32.13 277.13 33.05"/>
              <polygon class="cls-13" points="284.61 33.05 277.97 33.05 278.15 32.13 284.78 32.13 284.61 33.05"/>
            </g>
            <g>
              <polygon class="cls-13" points="269.38 37.25 259.02 37.25 259.19 36.32 269.55 36.32 269.38 37.25"/>
              <polygon class="cls-13" points="276.34 37.25 270.37 37.25 270.54 36.32 276.51 36.32 276.34 37.25"/>
              <polygon class="cls-13" points="283.82 37.25 277.18 37.25 277.36 36.32 283.99 36.32 283.82 37.25"/>
            </g>
            <g>
              <polygon class="cls-13" points="264.67 43.11 257.92 43.11 258.09 42.18 264.84 42.18 264.67 43.11"/>
              <polygon class="cls-13" points="272.96 43.11 265.5 43.11 265.67 42.18 273.13 42.18 272.96 43.11"/>
              <polygon class="cls-13" points="278.27 43.11 273.52 43.11 273.69 42.18 278.45 42.18 278.27 43.11"/>
              <polygon class="cls-13" points="282.71 43.11 279.04 43.11 279.22 42.18 282.89 42.18 282.71 43.11"/>
            </g>
            <g>
              <polygon class="cls-13" points="268.64 41.2 258.27 41.2 258.45 40.27 268.81 40.27 268.64 41.2"/>
              <polygon class="cls-13" points="275.6 41.2 269.63 41.2 269.8 40.27 275.77 40.27 275.6 41.2"/>
              <polygon class="cls-13" points="283.08 41.2 276.44 41.2 276.62 40.27 283.25 40.27 283.08 41.2"/>
            </g>
            <g>
              <polygon class="cls-13" points="263.98 46.81 257.22 46.81 257.39 45.88 264.15 45.88 263.98 46.81"/>
              <polygon class="cls-13" points="272.26 46.81 264.8 46.81 264.98 45.88 272.44 45.88 272.26 46.81"/>
              <polygon class="cls-13" points="277.58 46.81 272.82 46.81 273 45.88 277.75 45.88 277.58 46.81"/>
              <polygon class="cls-13" points="282.02 46.81 278.35 46.81 278.52 45.88 282.19 45.88 282.02 46.81"/>
            </g>
            <g>
              <polygon class="cls-13" points="267.94 44.9 257.58 44.9 257.75 43.97 268.12 43.97 267.94 44.9"/>
              <polygon class="cls-13" points="274.9 44.9 268.93 44.9 269.1 43.97 275.08 43.97 274.9 44.9"/>
              <polygon class="cls-13" points="282.38 44.9 275.75 44.9 275.92 43.97 282.56 43.97 282.38 44.9"/>
            </g>
          </g>
          <g>
            <polygon class="cls-13" points="248.6 58.68 245.3 58.68 245.38 58.22 248.69 58.22 248.6 58.68"/>
            <polygon class="cls-13" points="252.66 58.68 249.01 58.68 249.09 58.22 252.74 58.22 252.66 58.68"/>
            <polygon class="cls-13" points="248.24 60.61 244.93 60.61 245.02 60.16 248.32 60.16 248.24 60.61"/>
            <polygon class="cls-13" points="252.3 60.61 248.64 60.61 248.73 60.16 252.38 60.16 252.3 60.61"/>
            <polygon class="cls-13" points="250.57 57.62 245.49 57.62 245.58 57.17 250.65 57.17 250.57 57.62"/>
            <polygon class="cls-13" points="253.97 57.62 251.05 57.62 251.14 57.17 254.06 57.17 253.97 57.62"/>
            <polygon class="cls-13" points="250.18 59.67 245.11 59.67 245.19 59.22 250.27 59.22 250.18 59.67"/>
            <polygon class="cls-13" points="253.59 59.67 250.66 59.67 250.75 59.22 253.67 59.22 253.59 59.67"/>
          </g>
          <g>
            <polygon class="cls-13" points="275.09 58.68 271.78 58.68 271.87 58.22 275.17 58.22 275.09 58.68"/>
            <polygon class="cls-13" points="279.14 58.68 275.49 58.68 275.58 58.22 279.23 58.22 279.14 58.68"/>
            <polygon class="cls-13" points="274.73 60.61 271.42 60.61 271.5 60.16 274.81 60.16 274.73 60.61"/>
            <polygon class="cls-13" points="278.78 60.61 275.13 60.61 275.22 60.16 278.87 60.16 278.78 60.61"/>
            <polygon class="cls-13" points="277.05 57.62 271.98 57.62 272.07 57.17 277.14 57.17 277.05 57.62"/>
            <polygon class="cls-13" points="280.46 57.62 277.54 57.62 277.62 57.17 280.55 57.17 280.46 57.62"/>
            <polygon class="cls-13" points="276.67 59.67 271.59 59.67 271.68 59.22 276.75 59.22 276.67 59.67"/>
            <polygon class="cls-13" points="280.08 59.67 277.15 59.67 277.24 59.22 280.16 59.22 280.08 59.67"/>
          </g>
        </g>
      </g>
      <g>
        <g>
          <path class="cls-19" d="M292.68,140.72c-.12,1.58-2.35,1.6-4.88,1.31-2.53-.29-1.86,.35-5.41,.4-3.55,.05-4.77-1.12-4.94-1.63-.15-.45,1.56-.83,3.38-1.27,.23-.06,.46-.11,.69-.17,2.06-.52,3.43-2.07,5.19-3.41,1.67-1.28,3.82-5.89,3.82-5.89l4.85-.22s-2.04,4.14-2.81,5.92c-.45,1.05-.26,2.34-.06,3.33,.1,.54,.21,1.09,.17,1.65Z"/>
          <path class="cls-5" d="M287.8,142.03c-2.53-.29-1.86,.35-5.41,.4-3.55,.05-4.77-1.12-4.94-1.63-.15-.45,1.56-.83,3.38-1.27l.02,.03s2.28,1.23,5.21,.93c2.38-.24,4.81-1.23,6.45-1.41,.1,.54,.21,1.09,.17,1.65-.12,1.58-2.35,1.6-4.88,1.31Z"/>
        </g>
        <g>
          <path class="cls-19" d="M326.15,141.05c-.11,1.58-2.35,1.6-4.88,1.31-2.53-.29-1.86,.35-5.41,.4-3.55,.05-4.77-1.12-4.94-1.62-.15-.45,1.55-.83,3.38-1.28,.23-.06,.46-.11,.69-.17,2.06-.53,3.42-2.07,5.19-3.42,1.67-1.28,0-8.84,0-8.84l5.33-.52s-.26,6.37-.25,9.26c0,1.14,.53,2.24,.72,3.23,.11,.54,.21,1.09,.17,1.65Z"/>
          <path class="cls-5" d="M321.27,142.36c-2.53-.29-1.86,.35-5.41,.4-3.55,.05-4.77-1.12-4.94-1.62-.15-.45,1.55-.83,3.38-1.28l.02,.03s2.29,1.22,5.21,.93c2.38-.24,4.81-1.24,6.45-1.42,.11,.54,.21,1.09,.17,1.65-.11,1.58-2.35,1.6-4.88,1.31Z"/>
        </g>
        <path class="cls-12" d="M310.59,10.33c-.92-3.77,.41-5.53,1.61-6.47,.57-1.39,1.22-2.39,1.88-2.77,1.21-.69,2.66-.76,3.68-.7-.26-.27-.78-.37-.78-.37,.63-.09,2.03,.53,2.03,.53,8.76-3.37,10.13,9.52,9.95,12.52-.18,3-.16,6.52,4.4,8.88,8.69,4.5-2.89,21.48-2.89,21.48,.22-2.42-10.95-15.2-16.78-19.02-1.42-2.09-1.92-5.78-1.96-6.07,.24,2.93,.75,4.57,1.19,5.49-2.66-2.44-3.05-8.32-2.35-13.5Z"/>
        <path class="cls-19" d="M314.05,24.6s2.81,1.49,4.95,.9c2.01-.55,3.33-3.16,3.3-3.16-.85-.17-1.1-1.34-1.08-6.37l-.39,.08-6.48,1.28s.15,2.04,.15,3.96c0,1.61-.09,3.14-.46,3.31Z"/>
        <path class="cls-21" d="M314.36,17.33s.15,2.04,.15,3.96c3.62-.1,5.54-3.41,6.32-5.24l-6.48,1.28Z"/>
        <path class="cls-16" d="M288.02,132.61c-.32,1,.4,2.02,1.44,2.07l2.53,.12,2.68,.08c.67,.02,1.31-.27,1.73-.79,2.14-2.62,8.71-11.36,12.7-24.05,.11-.36,.23-.72,.36-1.08,2.63-7.68,8.1-17.32,10.97-26.05,.46-1.39,.87-2.7,1.24-3.94,.12-.4,.23-.79,.34-1.17,2.12-7.37,2.74-12.21,3.3-17.38l-20.78,.17s-4.38,34.01-16.51,72.02Z"/>
        <path class="cls-2" d="M307.44,48.64c.05,9.89-1.45,14.13-1.45,14.13,0,0,8.9,4.52,19.47,1.19,.12-.04,7.57-2.15,7.57-2.15-.18-.4-1.65-7.02-1.82-7.38-2.23-4.8-2.84-6.81-3.11-8.28-.49-2.75-.5-5.6-.26-8.29,.65-7.11,2.56-13.01,2.56-13.01-2.88-.66-5.58-1.81-8.58-2.93-.69,.86-2.8,1.76-4.63,1.72-2.11-.05-2.79-.95-2.68-1.93-2.24,1.25-4.04,2.43-4.04,2.43-1.91,3.31-5.78,6.53-6.06,11.62-.07,1.25,3.01,12.61,3.01,12.89Z"/>
        <path class="cls-18" d="M325.31,49.75c.91,1.29,2.65,9.1,6.98,10.08-2.23-5.57-3.93-8.01-4.19-9.72-.49-3.2-.5-6.5-.26-9.62-1.45-2.54-2.53-4.29-2.53-4.29-.11-.41-2.31-7.19-3.01-1.13-.7,6.06,1.99,13.24,3.01,14.68Z"/>
        <path class="cls-19" d="M313.15,19.15s8.57,.14,8.58-5.2c0-5.34,1.12-8.92-4.36-9.23-5.47-.32-6.54,1.72-6.97,3.5-.44,1.78,.52,10.76,2.75,10.93Z"/>
        <path class="cls-12" d="M313.47,4.59s2.35,6.27,5.95,7.19c3.6,.93,5.16-.04,5.16-.04,0,0-2.76-2.2-3.34-6.03,0,0-6.01-4.11-7.78-1.13Z"/>
        <path class="cls-12" d="M314.05,5.09s-1.75,1.4-2.18,2.76c-.43,1.36-.62,4.16-1.44,4.06,0,0-1.77-4.26,.22-6.67,2.11-2.55,3.4-.16,3.4-.16Z"/>
        <polygon class="cls-19" points="299.66 55.51 295.61 67.85 297.92 68.78 304.62 57.87 299.66 55.51"/>
        <path class="cls-7" d="M310.58,23.41s-4.77,1.89-6.16,4.85c-1.38,2.95-3.47,22.77-4.31,24.8-.83,2.03-1.46,3.65-1.46,3.65,0,0,2.41,2.03,4.83,2.18,2.42,.15,7.1-35.47,7.1-35.47Z"/>
        <path class="cls-7" d="M314.52,21.71s-4.96,12.25-5.11,14.73c-.15,2.48-.58,40.55-.58,40.55,0,0,.29,1.75-3.06,1.02-3.36-.73-4.23-1.46-4.23-1.46,0,0,3.21-23.49,2.33-31.65-.88-8.17,6.71-21.49,6.71-21.49l3.94-1.7Z"/>
        <path class="cls-4" d="M291.99,134.8l2.91,.09c.52,.02,1.02-.21,1.35-.61,1.95-2.37,8.77-11.22,12.86-24.24,.11-.36,.23-.72,.36-1.08,2.63-7.68,8.1-17.32,10.97-26.05,.46-1.39,.87-2.7,1.24-3.94,.12-.4,.23-.79,.34-1.17l-3.06-2.32s-9.19,14.88-12.03,28.88c-2.47,12.16-12.37,26.8-14.93,30.44Z"/>
        <path class="cls-16" d="M318.63,105.66c-.05,6.44,.26,20.8,1.04,27.82,.07,.64,.61,1.13,1.26,1.13h2.17c.91,0,1.6,0,2.05-.01,.39,0,.73-.29,.8-.67,2.16-10.97,3.7-20.09,4.83-27.97,.95-6.59,1.79-12.25,2.43-17.11,.65-4.9,1.1-9,1.26-12.46,.02-.55,.04-1.08,.05-1.59,.01-.52,.01-1.02,0-1.51l-17.96-1.75c.23,11.93,2.07,30.18,2.04,34.13Z"/>
        <path class="cls-4" d="M323.1,134.61c.82,0,1.46,0,1.91-.01,.48,0,.89-.35,.98-.82,2.14-10.91,3.68-19.98,4.8-27.83,.95-6.59,1.79-12.25,2.43-17.11,.65-4.9,1.1-9,1.26-12.46l-6.59,3.88s4.21,1.48,2.6,12.72c-1.6,11.23-5.16,40.05-7.39,41.64Z"/>
        <path class="cls-7" d="M322.25,76.27s1.26,4.57,5.64,3.99c4.38-.58,10.6-3.21,10.6-3.21,0,0-1.87-5.91-4.2-13.67-2.82-9.4-6.3-21.52-7.94-29.16-.46-2.14-.78-3.93-.89-5.21l-3.63-7.04s-5.41,12.15-5.71,15.21c-.29,3.06,6.13,39.09,6.13,39.09Z"/>
        <path class="cls-19" d="M326.62,36.72l-4.79-14.76s6.05,1.8,9.09,3.33c0,0,1.9,2.45,3.07,8.1,0,0,1.24,13.56-1.53,18.52,0,0-8.75,1.75-22.76-3.06v-3.21s15.32,.8,18.45,1.17l-1.54-10.08Z"/>
        <path class="cls-15" d="M322.44,43.59c.2,4.96,1.36,14.59,11.77,19.74,.03,.01,.06,.03,.08,.04-2.82-9.4-6.3-21.52-7.94-29.16-1.91,2.86-4.01,6.65-3.91,9.38Z"/>
        <path class="cls-7" d="M321.83,21.96s8.88,.63,11.02,5.39c2.14,4.77,2.82,20.62,.1,25.29,0,0-3.75,1.07-10.38-.17-.08-.02-.16-.03-.24-.05,0,0-2.12-5.18-.22-6.2,0,0,5.59,.29,5.01-1.56-.58-1.85-5.28-22.7-5.28-22.7Z"/>
        <g>
          <path class="cls-12" d="M299.56,47.62l.26,.84,14.58-4.53s.19-.22,.1-.52c-.11-.32-.36-.33-.36-.33l-14.58,4.53Z"/>
          <polygon class="cls-12" points="298.5 48.41 299.56 47.62 299.82 48.46 298.5 48.41"/>
        </g>
        <path class="cls-19" d="M296.19,67.52s-3.7,2.04-4.18,3.6c-.49,1.56-.15,4.82,.43,4.77,.59-.05,1.46-3.5,1.95-3.75,.49-.24,1.17-.97,1.17-.44s-.49,1.51-.24,1.65c.24,.15,1.02-1.36,1.56-1.65,.54-.29,.76-2.7,1.28-3.34,.52-.65-1.96-.84-1.96-.84Z"/>
        <path class="cls-19" d="M309.71,45.63s-3.31-2.04-4.69-1.72c-1.39,.31-4.92,2.87-3.22,3.43s3.08-.03,3.73,.38c.65,.4,1.14,1.14,4.18,1.13,3.05-.01,0-3.21,0-3.21Z"/>
      </g>
      <g>
        <g class="cls-8">
          <path class="cls-20" d="M149.56,141.96h-.05c-.32,0-.58-.26-.57-.59l.87-37.63,2.56-.3-2.18,37.93c-.02,.33-.29,.58-.62,.58Z"/>
          <path class="cls-20" d="M134.65,141.96h-.05c-.32,0-.58-.26-.57-.59l.87-37.63,2.56-.3-2.18,37.93c-.02,.33-.29,.58-.62,.58Z"/>
          <path class="cls-20" d="M175.78,141.96h.05c.32,0,.58-.26,.57-.59l-.87-37.63-2.56-.3,2.18,37.93c.02,.33,.29,.58,.62,.58Z"/>
          <path class="cls-20" d="M132.96,101.41v-25.79c0-4.54,3.68-8.22,8.22-8.22h18.58c4.54,0,8.22,3.68,8.22,8.22v26.77l-35.01-.99Z"/>
          <path class="cls-20" d="M132.96,101.41h38.34v4.07h-35.87c-1.36,0-2.47-1.11-2.47-2.47v-1.6h0Z"/>
          <rect class="cls-20" x="146.63" y="101.41" width="30.79" height="4.07" rx="1.82" ry="1.82"/>
        </g>
        <g>
          <path class="cls-19" d="M195.9,126.96c.26,1.3,2.11,1.08,4.17,.58,2.06-.5,1.57,.1,4.51-.23,2.94-.33,3.83-1.42,3.92-1.86,.08-.39-1.37-.52-2.93-.7-.2-.02-.39-.05-.59-.07-1.76-.22-3.05-1.35-4.64-2.29-1.51-.88-3.77-4.48-3.77-4.48l-4.03,.32s2.11,3.21,2.93,4.61c.48,.82,.46,1.91,.4,2.75-.03,.46-.06,.92,.03,1.38Z"/>
          <path class="cls-5" d="M200.07,127.53c2.06-.5,1.57,.1,4.51-.23,2.94-.33,3.83-1.42,3.92-1.86,.08-.39-1.37-.52-2.93-.7v.03s-1.78,1.25-4.22,1.31c-1.99,.05-4.1-.52-5.48-.5-.03,.46-.06,.92,.03,1.38,.26,1.3,2.11,1.08,4.17,.58Z"/>
          <path class="cls-19" d="M161.28,132.76c-.8,1.05,.58,2.29,2.33,3.51,1.74,1.21,.97,1.24,3.16,3.23,2.19,1.99,3.6,1.93,3.98,1.71,.34-.2-.51-1.38-1.41-2.66-.11-.16-.22-.32-.34-.49-1-1.46-1-3.18-1.36-4.99-.34-1.72,2.47-8.03,2.47-8.03l-4.51-.57s-.59,3.81-1.09,5.35c-.3,.9-1.55,1.5-2.22,2.01-.36,.28-.73,.56-1.01,.93Z"/>
          <path class="cls-5" d="M163.61,136.27c1.74,1.21,.97,1.24,3.16,3.23,2.19,1.99,3.6,1.93,3.98,1.71,.34-.2-.51-1.38-1.41-2.66h-.03s-2.1-.49-3.76-2.28c-1.35-1.46-2.32-3.42-3.25-4.44-.36,.28-.73,.56-1.01,.93-.8,1.05,.58,2.29,2.33,3.51Z"/>
          <path class="cls-10" d="M179.68,100.48l-4.12,11.08-5.37,14.46s-1.46,.14-2.85-.26c-1.29-.37-2.76-1.34-2.76-1.34,0,0,1.49-15.53,4.28-24.44,.71-2.29,1.51-4.14,2.4-5.18,4.32-5.1,8.44,5.69,8.44,5.69Z"/>
          <path class="cls-16" d="M175.5,82.89c-2.7-.87-10.82-.35-18.55,1.16l-1.18-2.07-16.69-1.3s-5.51,12.21-2.49,19.99c.44,1.14,1.32,1.88,2.82,1.9,0,0,.24,0,.24,0,0,0,9.93,0,13.16,0,8.3,0,17.56-5.71,18.76-5.94,1.96-.39,2.75,3.53,4.71,7.65,1.96,4.12,18.44,18.24,18.44,18.24,0,0,2.53,.03,3.58-.37,1.13-.42,1.54-.97,1.54-.97,0,0-18.26-36.33-24.34-38.29Z"/>
          <path class="cls-5" d="M149.92,31.47c-2.35-.56-5.54,.1-6.07,.16-6.34,.74-7.75,10.58-7.28,13.34,.87,5.07-1.57,6.5-4.48,10.56-5.83,8.14-1.8,14.84,2.94,16.5,2.85,1,6.73-1.72,6.73-1.72,.07,.03,10.08-9.53,15.03-14.16,8.32-3.43-.89-23.25-6.87-24.68Z"/>
          <path class="cls-19" d="M151.28,54.68s-2.58,1.71-4.71,1.36c-2-.34-4.12-2.95-4.09-2.96,.81-.25,1.52-1.19,1.02-6.06l.38,.04,6.39,.61s.05,1.99,.24,3.85c.15,1.56,.39,3.03,.77,3.16Z"/>
          <path class="cls-21" d="M150.27,47.67s.05,1.99,.24,3.85c-3.52,.25-5.69-2.76-6.63-4.46l6.39,.61Z"/>
          <path class="cls-19" d="M151.62,49.31s-8.29,.97-8.81-4.2c-.52-5.17-1.95-8.53,3.32-9.36,5.27-.84,6.5,1.03,7.09,2.71,.59,1.68,.54,10.47-1.61,10.85Z"/>
          <path class="cls-5" d="M152.24,35.8s-4,5.73-7.4,6.98c-3.4,1.25-5,.46-5,.46,0,0,1.62-2.23,2.16-5.3,.16-.91,.79-1.66,1.65-1.96,2.44-.85,7.13-2.15,8.6-.17Z"/>
          <path class="cls-5" d="M148.93,36.23s2.14,1.22,2.99,2.31c.82,1.05,1.71,3.85,1.58,5.09,0,0,1.35-5.88-.81-8.02-2.29-2.27-3.76,.62-3.76,.62Z"/>
          <path class="cls-2" d="M157.65,68.39c-.25,16.74-.07,13.24-1.9,14.83-.44,.38-1.68,.61-3.31,.72-5.13,.34-14.16-.5-14.5-1.45-1.18-3.28-.35-4.3-1.34-9.33-.1-.53-.23-1.11-.38-1.74-.82-3.45-1.63-4.63,1.3-10.17,2.65-5.02,5.51-9.03,5.76-8.89,6.99,4.15,7.45,.6,7.45,.6,0,0,7.05,7.27,6.93,15.43Z"/>
          <path class="cls-16" d="M175.57,111.56l-5.5,15.06s-1.97,.64-3.41,.43c-1.46-.21-2.27-1.01-2.27-1.01,0,0,1.68-17.16,4.46-26.07l6.71,11.58Z"/>
          <path class="cls-2" d="M150.73,52.96s7.19,1.22,8.04,4.32c.84,3.1,7.02,20.16,7.02,20.16,0,0-4.86,1.8-6.55,.11-1.69-1.69-5.88-15.67-5.88-15.67l-2.63-8.92Z"/>
          <path class="cls-11" d="M152.44,83.94c-5.13,.34-14.16-.5-14.5-1.45-1.18-3.28-.35-4.3-1.34-9.33l2.41-5.48s-.34,6.27,1.95,8.31c2.29,2.04,9.37,3.94,10.49,5.65,.54,.82,.89,1.64,.99,2.3Z"/>
          <g>
            <path class="cls-19" d="M152.86,80.37s1.53,1.32,1.96,1.43c.44,.11,.68,0,.68,0l-1.11-1.31-1.53-.13Z"/>
            <path class="cls-19" d="M152.25,78.82l3.87,1s-.1,.28-.54,.34c-.44,.07-1.61-.11-1.61-.11l-1.72-1.23Z"/>
            <path class="cls-19" d="M145.69,80.95s5.53-2.46,6.56-2.13c1.04,.32,3.7,1.73,4.11,2.33,.42,.59-2.18-.07-2.99-.12-.52-.03-1.74,.69-2.35,1.04-2.55,1.46-4.31,1.33-4.31,1.33l-1.02-2.44Z"/>
          </g>
          <path class="cls-2" d="M143.28,52.36s-7.82,1.47-9.27,3.63c-3.16,4.73-9.89,24.32-6.12,26.94,4.24,2.96,19.31,.77,19.31,.77,0,0,.5-2.34-.2-3.48-.7-1.13-12.03-2.96-12.56-3.49-.52-.52,5.17-8.09,4.56-9.54-1.94-4.64,4.27-14.85,4.27-14.85Z"/>
          <g>
            <path class="cls-19" d="M174.18,80.11s5.47,1.48,6.03,2.33c.56,.85,1.66,3.45,1.62,4.12-.05,.68-1.54-1.34-2.1-1.86-.36-.33-1.67-.53-2.32-.64-1.63-.26-2.41-1.01-3.02-1.38-.41-.25-.91-.2-.91-.2l.69-2.38Z"/>
            <path class="cls-19" d="M179.74,83.93s.33,1.86,.59,2.2c.25,.33,.49,.41,.49,.41l-.04-1.61-1.04-1Z"/>
            <path class="cls-19" d="M180.22,82.44l2.22,3.01s-.24,.14-.59-.07c-.36-.21-1.11-1.03-1.11-1.03l-.52-1.91Z"/>
            <path class="cls-19" d="M174.39,82.69s.51,1.23,1.52,1.67c1.01,.44,1.76,1.1,1.92,.87,.16-.24-.77-1.49-.77-1.49l-2.67-1.05Z"/>
          </g>
          <path class="cls-2" d="M164.33,73.4l11.51,7.27s-1.21,1.62-1.61,1.76c-2.13,.78-11.71,.03-14.99-4.89l5.1-4.14Z"/>
          <g>
            <path class="cls-17" d="M159.77,81.31c.68,0,7.43-.47,7.43-.47,0,0-.19,1.2,.22,1.84l-6.58,1.26-1.35-.4,.28-2.23Z"/>
            <g>
              <path class="cls-7" d="M148.51,82.39l11.26-1.09s-.4,2.08,1.07,2.63l-12.42,.91s-1-1.41,.08-2.45Z"/>
              <path class="cls-7" d="M167.19,80.99l-7.61,.59s.06-.26,.2-.27c.14,0,7.56-.54,7.56-.54l-.03,.21-.12,.02Z"/>
              <polygon class="cls-7" points="160.85 83.94 167.55 82.66 167.49 82.49 160.34 83.86 160.85 83.94"/>
            </g>
          </g>
        </g>
      </g>
      <g>
        <g>
          <path class="cls-20" d="M82.83,141.9h-.06c-.36,0-.64-.3-.64-.65l.96-42.02,2.84-.33-2.42,42.35c-.02,.37-.32,.65-.69,.65Z"/>
          <path class="cls-20" d="M66.29,141.9h-.06c-.36,0-.64-.3-.64-.65l.96-42.02,2.84-.33-2.42,42.35c-.02,.37-.32,.65-.69,.65Z"/>
          <path class="cls-20" d="M111.94,141.9h.06c.36,0,.64-.3,.64-.65l-.96-42.02-2.84-.33,2.42,42.35c.02,.37,.32,.65,.69,.65Z"/>
          <path class="cls-20" d="M64.41,96.63v-28.79c0-5.07,4.08-9.17,9.12-9.17h20.62c5.04,0,9.12,4.11,9.12,9.17v29.89l-38.86-1.1Z"/>
          <path class="cls-20" d="M64.41,96.63h42.56v4.55h-39.81c-1.52,0-2.75-1.23-2.75-2.75v-1.8h0Z"/>
          <rect class="cls-20" x="79.59" y="96.63" width="34.18" height="4.55" rx="2.03" ry="2.03"/>
        </g>
        <g>
          <path class="cls-17" d="M95.54,48.02s-1.73,1.47-2.1,5.28c-.28,2.89,1.72,25.34,3.23,27.13,4.25,5.02,9.57,2.9,11.66,3.66l1.97-1.77s-6.92-5.1-7.44-6.77c-2.03-6.41-.77-25.11-7.31-27.53Z"/>
          <path class="cls-10" d="M94.3,29.71s.12-4.12-5.31-4.93c-5.43-.81-6.93,.46-7.85,1.85-.92,1.38-2.65,7.04-2.48,9.29,.17,2.25,6.37,5.03,6.27,6.35-.1,1.31,9.38-12.56,9.38-12.56Z"/>
          <path class="cls-19" d="M119.48,138.35c-.18,1.39,1.72,1.8,3.93,1.99,2.21,.19,1.52,.63,4.53,1.3,3.01,.67,4.26-.13,4.49-.54,.21-.36-1.18-.99-2.66-1.7-.19-.09-.37-.18-.56-.27-1.66-.82-2.56-2.4-3.82-3.87-1.2-1.4-2.23-5.78-2.23-5.78l-4.09-1.05s1.02,3.95,1.36,5.63c.2,.99-.19,2.07-.52,2.89-.18,.45-.37,.91-.43,1.4Z"/>
          <path class="cls-5" d="M123.41,140.35c2.21,.19,1.52,.63,4.53,1.3,3.01,.67,4.26-.13,4.49-.54,.21-.36-1.18-.99-2.66-1.7l-.02,.03s-2.16,.66-4.59-.11c-1.99-.63-3.88-1.92-5.25-2.36-.18,.45-.37,.91-.43,1.4-.18,1.39,1.72,1.8,3.93,1.99Z"/>
          <path class="cls-15" d="M88.89,81.63s27.32,2.83,31.82,7.02c4.5,4.18,3.7,43.15,3.7,43.15-.7,.73-1.22,.71-2.33,.62-1.06-.08-3.23-1-3.23-1,0,0-5.85-19.13-5.92-23.56-.07-4.43-1-11.95-2.86-12.39-1.86-.44-23.98,2.04-26.4-4.95-2.42-6.99,1.6-12.73,1.6-12.73l3.61,3.85Z"/>
          <path class="cls-17" d="M76.12,88.65c1.18,.79,3.29,2.01,6.82,2.13,6.33,.23,14.23-.52,15.78-1.99,.4-.38,.6-1.01,.66-1.8,.17-2.43-.99-6.42-1.77-9.73-.51-2.15-.85-4-.57-4.95,.86-2.89,3.53-8.77,3.76-10.71,.23-1.93-2.08-12.29-5.27-13.58-3.19-1.28-15.51,0-15.51,0-4.81,.98-5.01,11.23-3.42,19.96,.04,.23,.08,.45,.13,.67,1.73,8.87-3.91,17.79-.62,20Z"/>
          <g>
            <path class="cls-19" d="M92.03,49.91c-.09,.56-1.63,1.47-4.92,.61-3.15-.83-3.53-1.86-3.53-2.54,0-.8,1.37-1.88,1.35-6.82l.38,.07,6.36,1.26s-.14,2-.15,3.89c0,1.58,.65,2.6,.51,3.53Z"/>
            <path class="cls-21" d="M91.67,42.49s-.14,2-.15,3.89c-3.56-.1-5.44-3.35-6.21-5.15l6.36,1.26Z"/>
            <path class="cls-19" d="M92.86,44.28s-8.42,.14-8.42-5.11c0-5.24-1.1-8.76,4.28-9.07,5.38-.31,6.42,1.69,6.85,3.44,.43,1.75-.51,10.56-2.7,10.73Z"/>
            <path class="cls-10" d="M92.55,29.97s-2.31,6.15-5.84,7.06c-3.54,.91-5.07-.04-5.07-.04,0,0,2.71-2.16,3.28-5.92,0,0,5.9-4.03,7.64-1.11Z"/>
            <path class="cls-10" d="M91.98,30.47s1.72,1.37,2.14,2.71c.42,1.34,.61,4.08,1.41,3.99,0,0,1.74-4.18-.22-6.55-2.07-2.51-3.34-.15-3.34-.15Z"/>
          </g>
          <path class="cls-19" d="M98.96,139.5c-.02,1.4,1.91,1.59,4.13,1.53,2.21-.06,1.58,.45,4.65,.77,3.07,.32,4.21-.62,4.4-1.05,.17-.38-1.28-.85-2.83-1.38-.19-.07-.39-.14-.59-.2-1.74-.62-2.81-2.09-4.23-3.41-1.35-1.25,1.63-7.32,1.63-7.32l-3.9-1.93s-.74,4.33-1.69,8.12c-.25,.98-1.05,2.59-1.29,3.45-.13,.47-.26,.94-.27,1.44Z"/>
          <path class="cls-6" d="M76.29,87.61c1.18,.79,3.12,3.05,6.66,3.17,5.84-1.33,12.48-2.87,16.44-3.8,.17-2.43-.99-6.42-1.77-9.73-4.61,1.41-11.47-3.39-13.78-5.28-2.42-1.99-2.35-8.62-2.35-8.62l-4.88,4.64c.04,.23,.08,.45,.13,.67,1.73,8.87-3.74,16.75-.45,18.95Z"/>
          <path class="cls-5" d="M103.09,141.02c2.21-.06,1.58,.45,4.65,.77,3.07,.32,4.21-.62,4.4-1.05,.17-.38-1.28-.85-2.83-1.38l-.02,.03s-2.07,.9-4.58,.42c-2.04-.39-4.07-1.46-5.48-1.74-.13,.47-.26,.94-.27,1.44-.02,1.4,1.91,1.59,4.13,1.53Z"/>
          <path class="cls-7" d="M82.99,83.29c6.94-.2,27.65,1.46,31.63,4.46,4.9,3.69-9.1,43.64-9.1,43.64,0,0-1.62,.16-2.14,.1-2.22-.25-3.13-.93-3.13-.93,0,0,.05-23.51,1.69-28.01,1.51-4.16,2.44-5.63,.54-5.87s-25.52,2.77-27.49-4.37c-1.54-5.57,.74-10.73,.74-10.73,0,0,.85,1.89,7.25,1.71Z"/>
          <path class="cls-17" d="M80.03,48.02s-4.82,.41-5.19,4.22c-.28,2.89-2.38,23.4-.87,25.19,4.25,5.02,18.41,6.08,20.49,6.85l.57-2.37s-15.12-7.62-14.89-9.35c.23-1.73,4.51-25.21-.12-24.53Z"/>
          <path class="cls-10" d="M83.75,26.86s.35-2.2-2.7-2.76c-3.05-.57-3.1,5.9-3.43,7.46-.33,1.56,.49,2.49,1.65,2.59,1.16,.09,4.48-7.29,4.48-7.29Z"/>
          <g>
            <path class="cls-19" d="M95.2,81.8s4.31-1.22,5.33-.93c1.03,.28,4.54,2.61,4.05,3.24-.49,.63-3.59-.38-5.01-.19-1.42,.19-2.53,.89-3.55,.74-1.03-.15-2.1-.56-2.1-.56l1.29-2.31Z"/>
            <path class="cls-19" d="M95.2,81.8s2.11-1.08,2.71-1.7c.08-.08,.2-.06,.26,.03,.16,.25,.31,.74-.43,1.23-1.06,.7-2.54,.44-2.54,.44Z"/>
          </g>
          <path class="cls-19" d="M110.29,82.32s4.47,.24,5.35,.85c.88,.6,3.45,3.94,2.77,4.38-.67,.44-3.27-1.52-4.68-1.8-1.41-.28-2.68,.03-3.6-.45-.92-.48-1.8-1.21-1.8-1.21l1.97-1.77Z"/>
        </g>
      </g>
      <g>
        <g>
          <path class="cls-1" d="M79.6,142.27h-18.18c-.87-1.07-.55-5-.42-6.29,.03-.26,.05-.41,.05-.41,0,0,6.21-4.97,7.06-1.16,.03,.12,.06,.24,.09,.35,1.07,3.56,5.89,5.17,8.68,5.62,1.81,.29,2.48,1.23,2.73,1.89Z"/>
          <path class="cls-5" d="M29.99,83.2c.66,0,31.14,5.72,36.18,11.97,2.52,3.12,2.89,39.13,2.89,39.13,0,0-3.12,3.86-9.85,1.62,0,0-4.93-24.64-4.57-32.11,.1-2.07-20.83-.3-24.66-1.29-3.83-.99-13.19-9.32-11.13-13.38,2.06-4.06,11.13-5.93,11.13-5.93Z"/>
          <path class="cls-19" d="M52.06,81.51s1.95,1.68,3.95,2.16c1.14,.27,2.25,.58,2.9,.88,1.81,.83,5.24,4.54,4.92,4.91-1.02,1.18-5.15-1.9-5.94-1.68-.79,.22,1.29,2.01,.47,2.49-.43,.25-1.24-1.29-2.01-1.51-1.03-.29-1.71-1.85-2.02-1.95-.6-.21-3.1-2.45-3.1-2.45l.82-2.85Z"/>
          <path class="cls-14" d="M87.63,142.27h-18.18c-.87-1.07-.55-5-.42-6.29,.03-.26,.05-.41,.05-.41,0,0,6.21-4.97,7.06-1.16,.03,.12,.06,.24,.09,.35,1.07,3.56,5.89,5.17,8.68,5.62,1.81,.29,2.48,1.23,2.73,1.89Z"/>
          <path class="cls-9" d="M38.97,83.2c.66,0,31.14,5.72,36.18,11.97,2.52,3.12,2.89,39.13,2.89,39.13,0,0-3.12,3.86-9.85,1.62,0,0-4.93-24.64-4.57-32.11,.1-2.07-20.83-.3-24.66-1.29-3.83-.99-13.19-9.32-11.13-13.38,2.06-4.06,11.13-5.93,11.13-5.93Z"/>
          <path class="cls-19" d="M37.07,46.15c-2.19-.18-4.49-.77-6.48-1.41-2.48-.81-4.49-1.98-3.2-4.25,1.19-2.09,3.11-6.77,2.98-10.64l4.62,3.73,3.14,2.53s-.01,1.49-.36,4.11c-.06,.48-.14,.99-.22,1.54-.07,.44,.13,.89,.52,1.12,.02,.01,.05,.03,.07,.04,1.56,.98,.76,3.39-1.08,3.23Z"/>
          <path class="cls-21" d="M38.14,35.49s.16,.54-.12,2.54c-2.8-.46-5.42-2.69-5.42-2.69,1.43-.39,1.94-1.93,3.01-1.79l2.53,1.94Z"/>
          <path class="cls-19" d="M40.73,35.95s-10.77,1.79-11.78-4.93c-1.01-6.72-3.08-11.02,3.75-12.45,6.83-1.43,8.56,.94,9.44,3.1,.88,2.16,1.36,13.64-1.41,14.28Z"/>
          <path class="cls-9" d="M43.72,18.69c.46,1.62-.78,3.59-2.85,4.24-3.08,.96-2.4,4.75-3.79,4.69-1.39-.05-1.95-2.17-3.19-.48-1.06,1.45,.88,3.16,.75,3.95-.23,1.36-2.36,4.15-4.28,4.01-1.92-.14-5.52-9.28-4.8-12.1,.72-2.83,3.6-5.81,6.32-6.22,2.72-.41,6.51,.76,7.38,.76s4.22,.26,4.47,1.14Z"/>
          <path class="cls-2" d="M46.39,81.18c-.18,1.55-.51,2.61-1.02,2.95-1.61,1.08-3.73,2.41-6.11,3.74-8.42,4.7-19.95,9.23-22.3,1.29-2.76-9.32-.95-26.83,1.76-37.7,1.56-6.26,5.86-12.84,8.77-12.83,4.96,0,12.08,1.32,14.96,8.41,1.11,2.75,2.75,12.27,3.59,21,.5,5.2,.71,10.11,.36,13.14Z"/>
          <path class="cls-11" d="M26.99,38.69l1.12-2.53s9.95,1.01,11.64,6.73c0,0-7.69-4.08-12.76-4.2Z"/>
          <path class="cls-11" d="M46.39,81.18c-.18,1.55-.51,2.61-1.02,2.95-1.61,1.08-3.73,2.41-6.11,3.74-2.48-1.51-7.57-5.1-8.76-9.34-1.56-5.54-.47-12.36-.47-12.36l16.35,15.01Z"/>
          <path class="cls-2" d="M29,47.22s.86,23.81,2.22,28.52c2.31,8.03,23.37,10.89,23.37,10.89,0,0,1.24-1.41,.69-3.74,0,0-12.59-9.92-12.96-11.81-.37-1.89,2.74-14.69-.81-19.35-3.56-4.66-10.11-8.69-12.5-4.51Z"/>
        </g>
        <g>
          <path class="cls-20" d="M2.6,142.05h-.07c-.57-.01-1.01-.48-.95-1.01l3.78-37.79,3.3,.29-5.43,37.99c-.04,.3-.31,.52-.63,.51Z"/>
          <path class="cls-20" d="M22.07,142.05h-.07c-.57-.01-1.01-.48-.95-1.01l3.78-37.79,3.3,.29-5.43,37.99c-.04,.3-.31,.52-.63,.51Z"/>
          <path class="cls-20" d="M58.63,142.05h.07c.57-.01,1.01-.48,.95-1.01l-3.78-37.79-3.3,.29,5.43,37.99c.04,.3,.31,.52,.63,.51Z"/>
          <path class="cls-20" d="M3.67,97.9L.08,66.34c-.47-4.55,1.05-9,7.61-9.35l11.55-.7c6.84-.28,9.93,5.41,10.8,9.8l6.85,34.69-33.22-2.88Z"/>
          <path class="cls-20" d="M5.6,97.75H56.84c1.03,0,1.87,.84,1.87,1.87v4.18H5.6c-1.03,0-1.87-.84-1.87-1.87v-2.3c0-1.03,.84-1.87,1.87-1.87Z" transform="translate(62.44 201.56) rotate(180)"/>
          <path class="cls-20" d="M5.18,97.75h30.26c.8,0,1.45,.65,1.45,1.45v4.6H5.18c-.8,0-1.45-.65-1.45-1.45v-3.14c0-.8,.65-1.45,1.45-1.45Z" transform="translate(40.62 201.56) rotate(180)"/>
        </g>
      </g>
    </g>
  </g>
</svg>