<?xml version="1.0" encoding="UTF-8"?>
<svg id="Layer_2" data-name="Layer 2" xmlns="http://www.w3.org/2000/svg" viewBox="0 0 252.41 181.07">
  <defs>
    <style>
      .cls-1 {
        fill: #db6b55;
      }

      .cls-2 {
        fill: #fff;
      }

      .cls-3 {
        fill: #5ba699;
      }

      .cls-4 {
        fill: #58a1c7;
      }

      .cls-5 {
        opacity: .5;
      }

      .cls-6 {
        fill: #92a5e6;
      }

      .cls-7 {
        fill: #a8d29f;
      }

      .cls-8 {
        fill: #020202;
      }

      .cls-9 {
        fill: #d86a54;
      }

      .cls-10 {
        fill: #fd8772;
      }

      .cls-11 {
        fill: #764678;
      }

      .cls-12 {
        fill: #331832;
      }

      .cls-13 {
        fill: #acc9c5;
      }

      .cls-14 {
        opacity: .4;
      }

      .cls-15 {
        fill: #ccd39c;
      }

      .cls-16 {
        fill: #b5b780;
      }

      .cls-17 {
        fill: #366f90;
      }

      .cls-18 {
        fill: #ff9843;
      }

      .cls-19 {
        fill: #2c3a64;
      }

      .cls-20 {
        fill: #e9633e;
      }

      .cls-21 {
        fill: #758cd0;
      }

      .cls-22 {
        fill: #7db8ae;
      }

      .cls-23 {
        fill: #ef8062;
      }

      .cls-24 {
        fill: #c2c68e;
      }

      .cls-25 {
        fill: #ec865c;
      }

      .cls-26 {
        fill: #ed7d2b;
      }

      .cls-27 {
        fill: #ffb27d;
      }

      .cls-28 {
        fill: #ecf8f6;
      }

      .cls-29 {
        fill: #daebe8;
      }

      .cls-30 {
        fill: #92bcb5;
      }

      .cls-31 {
        fill: #2b478b;
      }

      .cls-32 {
        fill: #e9845c;
      }

      .cls-33 {
        fill: #cad887;
      }

      .cls-34 {
        fill: #5e7ebf;
      }
    </style>
  </defs>
  <g id="Layer_1-2" data-name="Layer 1">
    <g>
      <polygon class="cls-12" points="21.33 87.44 106.56 78.75 200.48 78.75 125.7 90.38 21.33 87.44"/>
      <g>
        <path class="cls-6" d="M121.47,72.44c-.24,9.7-1.18,17.71-2.37,20.19-3.39,7.12-40.74,3.41-43.46,1.03-1.28-1.12-2.14-10.85-2.46-22.26-.31-11.16-.12-23.94,.68-31.85,.12-1.12,.24-2.15,.38-3.05,1.61-10.56,7.14-11.51,11.86-14.78h20.78c.99,1.02,2.71,1.93,5.68,3.67,5.38,3.14,7.31,8.05,8.04,14.17,.64,5.37,.36,11.67,.69,18.53,.24,4.89,.27,9.81,.16,14.36Z"/>
        <path class="cls-26" d="M77.24,22.15s-3.7,7.85-1.89,8.3c1.81,.45,42.88,1.64,44.08,.74,1.21-.89-1.81-8.71-3.62-9.05-1.81-.33-37.44-.78-38.57,0Z"/>
        <path class="cls-12" d="M78.61,28.94h0s-.06-.04-.05-.07l.76-5.2s.04-.06,.07-.05c.03,0,.06,.04,.05,.07l-.76,5.2s-.03,.05-.06,.05Z"/>
        <path class="cls-12" d="M83.61,29.06s-.06-.03-.06-.06v-5.45s.03-.06,.06-.06,.06,.03,.06,.06v5.45s-.03,.06-.06,.06Z"/>
        <path class="cls-12" d="M97.47,29.43s-.06-.03-.06-.06v-5.21s.03-.06,.06-.06,.06,.03,.06,.06v5.21s-.03,.06-.06,.06Z"/>
        <path class="cls-12" d="M92.36,29.1h0s-.06-.03-.06-.07l.44-4.84s.03-.06,.06-.06h0s.06,.03,.06,.07l-.44,4.84s-.03,.06-.06,.06Z"/>
        <path class="cls-12" d="M88.22,29.06s-.06-.03-.06-.06v-4.84s.03-.06,.06-.06,.06,.03,.06,.06v4.84s-.03,.06-.06,.06Z"/>
        <path class="cls-12" d="M104.2,29.43s-.06-.02-.06-.05l-1.07-5.21s.02-.07,.05-.07c.03-.02,.07,.01,.07,.05l1.07,5.21s-.02,.07-.05,.07c0,0,0,0-.01,0Z"/>
        <path class="cls-12" d="M109.06,29.06s-.05-.02-.06-.05l-1.06-4.83s.01-.07,.05-.08c0,0,0,0,.01,0,.03,0,.05,.02,.06,.05l1.06,4.83s-.01,.07-.05,.08c0,0,0,0-.01,0Z"/>
        <path class="cls-12" d="M114.15,29s-.05-.02-.06-.05l-1.2-4.65s.01-.07,.05-.08c0,0,.01,0,.02,0,.03,0,.05,.02,.06,.05l1.2,4.65s-.01,.07-.05,.08c0,0-.01,0-.02,0Z"/>
        <path class="cls-21" d="M92.09,80.39c-1.23-1.97-3.58-4.88-9.41-.41-4.81,3.69-1.89,9.37,.22,9.43s3.08-1.79,2.62-3.78c-.23-.99,.8-2.81,1.66-2.51s2.35,.67,3.32,.39c1.78-.5,2.3-1.98,1.59-3.11Z"/>
        <path class="cls-21" d="M106.74,77.79c-1.51,1.3-3.68,3.67,.86,8.04,3.75,3.61,8.2,.4,7.97-1.4-.22-1.8-1.92-2.38-3.54-1.74-.81,.32-2.49-.32-2.35-1.08,.14-.76,.26-2.08-.1-2.87-.66-1.44-1.98-1.7-2.85-.95Z"/>
        <g class="cls-14">
          <path class="cls-29" d="M116.54,68.45c-.97,.38-15.88,5.89-38.43-.76-.25-8.14-.09-17.45,.54-23.22h0s17.15,4.97,37.21,0c.51,3.92,.29,8.51,.55,13.5,.19,3.57,.22,7.15,.13,10.47Z"/>
        </g>
      </g>
      <g>
        <path class="cls-4" d="M178.06,36.77s16.53-12.23,20.65-28.05c0,0-16.38,7.82-23.32,21.64,0,0,7.49-13.63-.04-30.36,0,0-6.89,26.37-6.91,29.28-.02,2.91,.28,9.88,.28,9.88l6.39,2.06,2.95-4.45h0Z"/>
        <path class="cls-30" d="M178.2,40.61s12.58-13.02,24.4-16.04c0,0-15.82-9.68-27.45,13.3,0,0,13.32-16.83,7.41-28.82,0,0-10.66,20.48-11.24,29.34,0,0,8.87-23.47-6.8-31.37,0,0,1.92,16.98,0,30.79-1.92,13.81,13.68,2.81,13.68,2.81h0Z"/>
        <path class="cls-31" d="M187.92,87.97c-.33,.69-.67,1.33-1.02,1.95-2.51,4.39-5.58,7.07-8.7,8.62-.69,.34-1.39,.63-2.07,.87-4.96,1.74-9.74,.99-12.25,.18l-19.68-6.36c-2.55-.82-6.26-3.17-9.1-7.03-.44-.6-.86-1.23-1.25-1.91-1.87-3.2-3.1-7.23-2.88-12.1,.03-.7,.09-1.42,.19-2.16,.36-2.83,1.2-5.91,2.66-9.24,.36-.82,.73-1.62,1.12-2.4,.33-.66,.67-1.3,1.01-1.93,.13-.24,.27-.48,.4-.71,.46-.79,.93-1.56,1.42-2.31,1.93-2.95,4.09-5.51,6.38-7.7,.51-.49,1.03-.96,1.55-1.41,3.33-2.87,6.9-4.99,10.45-6.4,.73-.29,1.45-.55,2.17-.78,5.3-1.69,10.46-1.79,14.62-.45l.73,.24c4.56,1.47,8.62,4.95,11.79,9.37,.45,.62,.87,1.26,1.28,1.91,2.13,3.41,3.76,7.23,4.73,11.06,.17,.68,.32,1.36,.45,2.04,.49,2.57,.67,5.09,.49,7.46-.04,.52-.08,1.03-.13,1.53-.08,.9-.18,1.77-.29,2.62-.09,.73-.19,1.44-.3,2.14-.12,.74-.24,1.47-.38,2.17-.83,4.29-1.99,7.82-3.38,10.72Z"/>
        <path class="cls-12" d="M186.9,89.91c.35-.62,.69-1.26,1.02-1.95l-8.54-8.82,11.92-1.9c.14-.7,.26-1.42,.38-2.17l-14.06,2.24-11.09-11.46,15.39-2.74,10.06,9.83c.11-.85,.2-1.72,.29-2.62l-7.84-7.66,7.48-1.33c-.13-.68-.28-1.36-.45-2.04l-8.87,1.58-10.68-10.43,14.82-2.21c-.41-.65-.84-1.29-1.28-1.91l-15.41,2.3-11.74-11.46c-.72,.23-1.45,.49-2.17,.78l11.33,11.06-15.08,2.25-6.7-6.92c-.52,.45-1.04,.92-1.55,1.41l5.7,5.89-12.08,1.81c-.49,.75-.96,1.51-1.42,2.31l15.28-2.28,10.66,11.02-15.51,2.76-10.83-10.79c-.35,.63-.69,1.27-1.01,1.93l9.35,9.31-13.13,2.34c-.09,.74-.16,1.46-.19,2.16l15.12-2.7,11.12,11.07-23.36,3.72c.39,.67,.81,1.31,1.25,1.91l23.93-3.81,17.1,17.03c.69-.24,1.38-.53,2.07-.87l-16.63-16.56,15.29-2.43,10.04,10.37Zm-32.74-36.82l15.17-2.27,10.74,10.49-15.31,2.73-10.6-10.95Zm5.58,27.07l-11.16-11.11,15.45-2.75,11.06,11.42-15.35,2.45Z"/>
      </g>
      <g>
        <path class="cls-33" d="M168.52,109.76h-41.99s-10.86-11.47-9.61-30.86c1.37-21.42,9.61-30.86,9.61-30.86h41.99s7.65,10,8.76,31.68c1.18,22.89-8.76,30.04-8.76,30.04Z"/>
        <path class="cls-4" d="M169.8,50.99h-43.97c-1.55,0-2.7-1.42-2.39-2.94l.53-2.56c.31-2.39,1.6-3.91,2.76-3.91l42.49,1.96c1.14,0,2.13,.79,2.38,1.9l.58,2.56c.35,1.53-.81,2.99-2.38,2.99Z"/>
        <path class="cls-16" d="M125.45,104.57c-.13-.26-8.64-16.2-5.27-31.26,2.76-12.32,4.06-15.17,6.67-15.96,2.62-.78,3.84,4.44,13.02,.76,7.63-3.05,12.16,1.85,22.82,.28,3.37-.5,5.08-3.5,8-1.41,2.33,1.67,5.3,18.75,4.56,27.3-1.14,13.22-5.07,19.31-5.07,19.31l-44.74,.98Z"/>
        <path class="cls-17" d="M127.48,68.36c0-.43,.35-.79,.79-.79s.79,.35,.79,.79-.35,.79-.79,.79-.79-.35-.79-.79Z"/>
        <path class="cls-17" d="M139.87,63.67c0-.43,.35-.79,.79-.79s.79,.35,.79,.79-.35,.79-.79,.79-.79-.35-.79-.79Z"/>
        <path class="cls-17" d="M152.17,68.09c.15-.41,.6-.62,1.01-.46,.41,.15,.62,.6,.46,1.01-.15,.41-.6,.62-1.01,.46s-.62-.6-.46-1.01Z"/>
        <path class="cls-17" d="M136.66,76.51c.15-.41,.6-.62,1.01-.46,.41,.15,.62,.6,.46,1.01-.15,.41-.6,.62-1.01,.46s-.62-.6-.46-1.01Z"/>
        <path class="cls-17" d="M162.79,76.51c.15-.41,.6-.62,1.01-.46,.41,.15,.62,.6,.46,1.01-.15,.41-.6,.62-1.01,.46-.41-.15-.62-.6-.46-1.01Z"/>
        <path class="cls-17" d="M162.79,65.53c.15-.41,.6-.62,1.01-.46,.41,.15,.62,.6,.46,1.01-.15,.41-.6,.62-1.01,.46-.41-.15-.62-.6-.46-1.01Z"/>
        <path class="cls-17" d="M147.41,80.9c.15-.41,.6-.62,1.01-.46s.62,.6,.46,1.01c-.15,.41-.6,.62-1.01,.46s-.62-.6-.46-1.01Z"/>
        <path class="cls-17" d="M125.48,80.9c.15-.41,.6-.62,1.01-.46,.41,.15,.62,.6,.46,1.01-.15,.41-.6,.62-1.01,.46s-.62-.6-.46-1.01Z"/>
      </g>
      <g>
        <path class="cls-1" d="M233.56,89.31s1.67-1.42,3.14-1.2c1.47,.21,2.33,1.31,2.25,2.09-.08,.78-5.39-.88-5.39-.88Z"/>
        <path class="cls-23" d="M229.49,91.92c.24-2.48,2.5-3.28,6.55-2.54,3.43,.62,6.27,1.26,6.03,3.74-.24,2.48-3.25,4.23-6.72,3.9-3.47-.33-6.1-2.61-5.86-5.1Z"/>
        <path class="cls-27" d="M228.4,104.28c-.18,.11-7.3,5.19-7.31,10.23,0,2.31,1.82,4.8,3.79,5.79,3.07,1.53,7.11-4.9,7.11-4.9l-3.59-11.13Z"/>
        <path class="cls-4" d="M243.75,105.82s-1.74-4.9-7.95-4.68c-6.21,.22-9.15,8.63-12.39,25.99,0,0,7.15-2.48,22.48,2.27,0,0-.35-10.21,0-13.65,.51-4.97-.52-5.7-2.14-9.93Z"/>
        <path class="cls-4" d="M248.12,105.53l-4.4,2.82s-11.31,1.13-14.31,.59c-3-.54-3.47-2.75-3.47-2.75,0,0,2.86-3.92,8.29-4.89,.51-.09,1.03-.11,1.57-.15,.92-.07,1.84-.04,2.75,.06,5.37,.58,9.57,4.33,9.57,4.33Z"/>
        <path class="cls-12" d="M231.54,100.05s-.83-.2-1.07-.78c-.13-.3-.07-.65,.17-1.04,.11-.17,.2-.33,.29-.47,.62-.99,.83-1.33,.67-2.1h.07c.17,.79-.06,1.16-.68,2.14-.09,.14-.19,.3-.29,.47-.23,.37-.28,.69-.16,.97,.22,.54,1.01,.73,1.02,.73l-.02,.07Z"/>
        <path class="cls-12" d="M231.64,95.65s.28,1.25-.55,2.55,.07,2.26,1.19,1.75c1.12-.5,1.54,.92,2.97,.14,1.43-.79-3.61-4.44-3.61-4.44Z"/>
        <path class="cls-27" d="M238.24,101.16c-.62-.07-1.15-.45-1.4-1.02l-.77-1.79-.22-.52-1.31-3.05,.23,3.16,.14,1.9,.04,.54c.03,.44-.28,.83-.71,.91h0c-.23,.38-.56,1.15,.41,1.46,1.13,.36,2.97-.53,3.62-1.59,0,0,0,0,0,0Z"/>
        <g class="cls-5">
          <path class="cls-25" d="M236.08,98.29s0,.03,0,.05c-.08,1.02-1.17,1.49-1.17,1.49h0s-.14-1.9-.14-1.9c.33-.12,.81-.25,1.09-.11,.15,.07,.24,.21,.23,.47Z"/>
        </g>
        <ellipse class="cls-27" cx="234.39" cy="95.28" rx="2.97" ry="3.66"/>
        <path class="cls-27" d="M236.96,95.84c-.34,.32-.81,.35-1.05,.07-.24-.28-.17-.77,.17-1.09,.34-.32,.81-.35,1.05-.07,.24,.28,.17,.77-.17,1.09Z"/>
        <path class="cls-20" d="M232.79,97.65s1.01,.02,2.03-.33c0,0,.08,1-1.01,1.07-.64,.04-1.01-.73-1.01-.73Z"/>
        <path class="cls-2" d="M232.79,97.65s.25,.2,.82,.2c.57,0,1.21-.53,1.21-.53,0,0-1.22,.34-2.03,.33Z"/>
        <path class="cls-12" d="M233.13,92.28s.06,1.27,1.65,1.49c1.59,.22,2.68,.89,2.47,2.03-.21,1.14-2.77,3.52-.89,4.44,1.88,.92,1.48-.79,3.52-.4,2.04,.4,2.41-2.33,1-3.91-.56-.63-1.47-1.55-1.89-2.56-.64-1.53-1.03-3.13-4.21-3.02-5.26,.19-3.34,4.39-3.34,4.39,0,0,1.69-1.06,1.68-2.46Z"/>
        <path class="cls-2" d="M236.9,100.47c-.4-.16-.64-.4-.72-.71-.23-.85,.76-2.14,1.64-3.28,.23-.3,.45-.58,.64-.85,.54-.75,.58-1.61,.12-2.29-.5-.75-1.46-1.08-2.5-.83-1.99,.47-2.82-.74-2.83-.75l.04-.02s.83,1.19,2.78,.74c1.06-.25,2.03,.08,2.55,.85,.46,.69,.41,1.59-.12,2.34-.19,.27-.41,.55-.64,.85-.87,1.13-1.86,2.41-1.63,3.24,.08,.3,.31,.52,.7,.68l-.02,.04Z"/>
        <path class="cls-12" d="M248.18,105.62c.15,.44-1,1.27-2.57,1.85-1.57,.58-2.97,.69-3.12,.25-.15-.44,1-1.27,2.57-1.85,1.57-.58,2.97-.69,3.12-.25Z"/>
        <path class="cls-23" d="M231.63,91.51s4.46-1.64,7.36,1.86l.41-1.26-1.7-1.74-2.59-.4-2.24,.23-.75,.43-.48,.88Z"/>
        <path class="cls-12" d="M245.89,129.4s-16.06-5.13-22.48-2.27c0,0-.18,.32,.49,.7s23.48,3.07,21.99,1.57Z"/>
        <path class="cls-12" d="M233.29,171.34s-.04,1.74-1.22,2.23c-1.18,.49-4.59,.93-3.31,2.05,.73,.64,4.18,.23,5.15,.23,.97,0,1.89,.42,2.61-.23,.8-.72,0-4.28,0-4.28,0,0-.84,.44-1.6,.42-1.09-.03-1.63-.42-1.63-.42Z"/>
        <path class="cls-12" d="M246.81,171.34s-.04,1.74-1.22,2.23c-1.18,.49-4.59,.93-3.31,2.05,.73,.64,4.18,.23,5.15,.23,.97,0,1.89,.42,2.61-.23,.8-.72,0-4.28,0-4.28,0,0-.84,.44-1.59,.42-1.09-.03-1.63-.42-1.63-.42Z"/>
        <path class="cls-19" d="M224.54,127.38s-.21,3.55,2.11,17.52c1.68,10.09,3.66,20.25,4.63,25.12,.35,1.74,1.81,3.02,3.55,3.09l.93,.04c1.88,.08,3.4-1.54,3.27-3.46l-2.36-32.97s4.68-8.18,2.29-8.56c-13.39-2.16-14.43-.78-14.43-.78Z"/>
        <path class="cls-19" d="M231.59,128.84l13.1,42.09c.55,1.76,2.13,2.97,3.94,3h.79c1.86,.05,3.28-1.67,2.94-3.54l-7.39-40.84c-.1-.47-5-1.21-6.01-1.39-2.52-.42-7.62-1.06-7.38,.69Z"/>
        <path class="cls-8" d="M237.44,147.66l-2.82-8.56c-.63-1.93-1.94-3.54-3.67-4.53l.11-.19c1.78,1.02,3.12,2.67,3.77,4.65l2.82,8.56-.21,.07Z"/>
        <g>
          <g>
            <path class="cls-22" d="M225.89,109.7s-13.1-16.8-8.45-20.14c4.65-3.35,6.31,13.18,10.28,17.95l-1.82,2.19Z"/>
            <path class="cls-3" d="M225.88,109.13s-8.12-16.66-3.03-19.34c5.1-2.68,2.7,12.72,5.24,17.47l-2.21,1.86Z"/>
            <path class="cls-13" d="M227.13,108.1c-1.81-3.25-2.65-7.37-3.04-10.25-.42-3.12-.41-5.51-.41-5.53h-.15s0,2.42,.41,5.55c.39,2.89,1.24,7.03,3.06,10.3l.13-.07Z"/>
            <path class="cls-3" d="M225.71,109.93s-12.09-12.52-16.09-8.89c-4,3.64,10.36,6.47,13.74,10.24l2.36-1.35Z"/>
            <path class="cls-13" d="M224.39,110.69c-2.29-2.64-5.65-4.71-8.07-5.98-2.62-1.38-4.73-2.13-4.75-2.14l.05-.13s2.14,.77,4.77,2.15c2.43,1.27,5.81,3.35,8.11,6.01l-.1,.09Z"/>
          </g>
          <path class="cls-23" d="M243.35,128.61s-9.23-20.99-12.66-22.49c-3.43-1.49-8.98,3.89-9.29,6.56-.31,2.67,15.15,16.45,17.61,18.82,2.69,2.58,5.16-.84,4.34-2.9Z"/>
          <path class="cls-9" d="M228.56,112.61c-.05,0-.11-.03-.13-.09-.03-.07,0-.15,.08-.17,1.37-.51,2.74-2.19,2.75-2.21,.04-.06,.13-.07,.19-.02,.06,.05,.07,.13,.02,.19-.06,.07-1.43,1.75-2.86,2.29-.02,0-.03,0-.05,0Z"/>
          <path class="cls-9" d="M227.1,117.1c-.05,0-.11-.03-.13-.09-.03-.07,0-.15,.08-.17,1.37-.51,2.74-2.19,2.75-2.21,.05-.06,.13-.07,.19-.02,.06,.05,.07,.13,.02,.19-.06,.07-1.43,1.75-2.87,2.29-.02,0-.03,0-.05,0Z"/>
          <path class="cls-9" d="M223.36,113.64c-.05,0-.11-.03-.13-.09-.03-.07,0-.15,.08-.17,1.37-.51,2.74-2.19,2.75-2.21,.05-.06,.13-.07,.19-.02,.06,.05,.07,.13,.02,.19-.06,.07-1.43,1.75-2.87,2.29-.02,0-.03,0-.05,0Z"/>
          <path class="cls-9" d="M232.35,117.61c-.05,0-.11-.03-.13-.09-.03-.07,0-.15,.08-.17,1.37-.51,2.74-2.19,2.75-2.21,.04-.06,.13-.07,.19-.02,.06,.05,.07,.13,.02,.19-.06,.07-1.43,1.75-2.87,2.29-.02,0-.03,0-.05,0Z"/>
          <path class="cls-9" d="M231.32,121.18c-.06,0-.11-.04-.13-.09-.02-.07,.02-.15,.09-.17,.93-.29,1.8-1.44,1.81-1.46,.04-.06,.13-.07,.19-.03,.06,.04,.07,.13,.03,.19-.04,.05-.93,1.23-1.94,1.55-.01,0-.03,0-.04,0Z"/>
          <path class="cls-9" d="M234.71,120.56c-.06,0-.11-.04-.13-.09-.02-.07,.02-.15,.09-.17,.93-.29,1.8-1.44,1.81-1.46,.04-.06,.13-.07,.19-.03,.06,.04,.07,.13,.03,.19-.04,.05-.93,1.23-1.94,1.55-.01,0-.03,0-.04,0Z"/>
          <path class="cls-9" d="M234.21,123.78c-.06,0-.11-.04-.13-.09-.02-.07,.02-.15,.09-.17,.93-.29,1.8-1.44,1.81-1.46,.04-.06,.13-.07,.19-.03,.06,.04,.07,.13,.03,.19-.04,.05-.93,1.23-1.94,1.55-.01,0-.03,0-.04,0Z"/>
          <path class="cls-9" d="M237.58,124.14c-.06,0-.11-.04-.13-.09-.02-.07,.02-.15,.09-.17,.93-.29,1.8-1.44,1.81-1.46,.04-.06,.13-.07,.19-.03,.06,.04,.07,.13,.03,.19-.04,.05-.93,1.23-1.94,1.55-.01,0-.03,0-.04,0Z"/>
          <path class="cls-9" d="M236.45,127.11c-.06,0-.11-.04-.13-.09-.02-.07,.02-.15,.09-.17,.93-.29,1.8-1.44,1.81-1.46,.04-.06,.13-.07,.19-.03,.06,.04,.07,.13,.03,.19-.04,.05-.93,1.23-1.94,1.55-.01,0-.03,0-.04,0Z"/>
          <path class="cls-9" d="M239.18,128.35c-.06,0-.11-.03-.13-.09-.02-.07,.01-.15,.08-.17,.92-.32,1.81-1.45,1.81-1.46,.05-.06,.13-.07,.19-.02,.06,.04,.07,.13,.02,.19-.04,.05-.95,1.2-1.94,1.55-.01,0-.03,0-.04,0Z"/>
        </g>
        <g>
          <path class="cls-27" d="M237.39,120.95l-.05-3.21c0-.44,.33-.81,.77-.84,2.23-.16,3.79-.85,4.64-2.06,1.19-1.68,1.06-4.28,.73-6.09-.17-.93,.14-1.54,1.25-2.14,0,0,.96-.53,2.15-.73,.47-.08,.95,.11,1.07,.58,.19,.73,.44,1.86,.56,3.2,.28,3.17-.33,5.93-1.77,7.97-1.76,2.51-4.61,3.9-8.47,4.14-.47,.03-.88-.34-.88-.81Z"/>
          <path class="cls-32" d="M245.58,116.73c-.14,0-.27-.04-.38-.13-.12-.1-.2-.25-.22-.43-.03-.29,.08-.62,.31-.9,.18-.22,.41-.39,.65-.46,.24-.08,.47-.05,.63,.09,.33,.26,.29,.86-.09,1.33h0c-.18,.22-.41,.39-.65,.46-.09,.03-.17,.04-.25,.04Zm.62-1.85c-.07,0-.14,.01-.22,.03-.22,.07-.43,.22-.6,.43-.21,.26-.31,.56-.29,.82,.02,.15,.08,.27,.18,.35,.13,.11,.32,.13,.53,.07,.22-.06,.43-.22,.6-.43h0c.34-.42,.39-.95,.11-1.18-.08-.07-.19-.1-.31-.1Zm.24,1.32h0Z"/>
          <g>
            <path class="cls-27" d="M238.1,116.89s-3.11-1.31-4.56-1.13-3.16,1.51-2.24,1.59,2.13-.15,2.13-.15c0,0-2.55,.6-2.15,1.14,.4,.54,2.62,0,2.62,0,0,0-2.98,.96-2.44,1.34,.54,.38,2.8-.36,2.8-.36,0,0-2.74,1-2.1,1.43,.64,.43,2.26-.84,2.66-.31,.4,.54,2.66,2.17,4.29,1.24l-1-4.8Z"/>
            <path class="cls-32" d="M233.43,117.26s-.04-.01-.05-.03c-.01-.03,0-.06,.03-.07,.03-.01,.73-.29,1.13-.02,.02,.02,.03,.05,.01,.08-.02,.02-.05,.03-.08,.01-.35-.24-1.02,.03-1.03,.03,0,0-.01,0-.02,0Z"/>
            <path class="cls-32" d="M233.89,118.39s-.04-.01-.05-.03c-.01-.03,0-.06,.03-.07,.03-.01,.71-.29,1.33-.03,.03,.01,.04,.04,.03,.07-.01,.03-.05,.04-.07,.03-.59-.25-1.24,.03-1.25,.03,0,0-.01,0-.02,0Z"/>
            <path class="cls-32" d="M234.25,119.37s-.04-.01-.05-.03c-.01-.03,0-.06,.03-.07,.04-.01,.87-.34,1.26-.02,.02,.02,.03,.05,0,.08-.02,.02-.05,.03-.08,0-.35-.29-1.15,.03-1.16,.03,0,0-.01,0-.02,0Z"/>
          </g>
        </g>
        <g>
          <path class="cls-27" d="M225.69,121.07s.85,1.1,1.76,.37c1.17-.93,1.67-3.31,.92-2.73-.66,.51-1.42,1.49-1.42,1.49,0,0,1.88-2.5,1.21-2.77-.67-.26-2.26,1.92-2.26,1.92,0,0,1.6-2.63,.9-2.68-.7-.04-2.15,1.92-2.15,1.92,0,0,1.7-2.48,.89-2.51-.81-.03-1.42,1.45-1.83,2.01-.38,.53-.16,.97,.39,1.36,0,0,.36,.69,.77,.85,.16,.06,.2,.28,.29,.37,.17,.17,.52,.4,.52,.4Z"/>
          <path class="cls-32" d="M224.88,120.36h-.01c-.3-.08-.64-.36-.68-.67-.01-.08-.04-.09-.12-.11-.14-.04-.35-.11-.58-.53-.4-.7,.74-1.99,.79-2.04,.02-.02,.05-.02,.08,0,.02,.02,.02,.05,0,.08-.01,.01-1.14,1.29-.78,1.92,.22,.38,.4,.44,.52,.48,.09,.03,.18,.06,.2,.2,.03,.26,.34,.51,.6,.58,.03,0,.05,.04,.04,.06,0,.02-.03,.04-.05,.04Z"/>
        </g>
      </g>
      <g>
        <path class="cls-31" d="M71.46,38.95c-.26-.3-.55-.59-.86-.85h0s0,0-.02-.01c-.27-.23-.56-.44-.86-.64-1.01-.85-2.53-2.51-2.62-4.77-.13-3.4-.23-15.91-.23-15.91l-9.25,.29,.12,13.54s.09,4.37-2.65,6.88c-.36,.24-.71,.49-1.04,.77-5.03,4.25-6.4,13.23-6.4,13.23,0,0-8.86,39.67-6.38,57.84,1.48,10.81,14.61,11.67,21.64,11.61,7.03-.06,18.39-.16,20.75-7.26,6.53-19.64-6.42-62.83-6.42-62.83,0,0-2.29-7.79-5.77-11.88Z"/>
        <polygon class="cls-26" points="67.88 31.81 57.04 31.9 57.03 16.05 67.79 15.96 67.88 31.81"/>
        <rect class="cls-18" x="56.46" y="16" width="11.93" height="3.32" rx=".63" ry=".63" transform="translate(-.15 .55) rotate(-.51)"/>
        <path class="cls-34" d="M73.6,48.98s-2.07-8.11-5.65-9.14c-3.58-1.02-2.42,.4-.37,4.6,2.05,4.19,6.48,7.79,6.02,4.54Z"/>
      </g>
      <g>
        <path class="cls-27" d="M45.29,116.42c-.75,1.73-19.28-21.39-19.28-21.39,0,0-31.59-52.24-25.15-71.1C7.32,5.06,29.24,15.95,49.18,51.32c13.36,23.7,24.33,44.9,24.33,44.9l-28.22,20.2Z"/>
        <path class="cls-23" d="M19.1,27.4s-8.24,8.05-8.37,17.59c-.13,9.54,14.86-19.04,8.37-17.59Z"/>
        <path class="cls-23" d="M27.6,35s-12.22,10.39-12.85,22.25c-.63,11.86,22.25-24.35,12.85-22.25Z"/>
        <path class="cls-23" d="M35.56,44.19s-14.44,11.97-15.27,25.54c-.83,13.57,26.32-28.01,15.27-25.54Z"/>
        <path class="cls-23" d="M42.64,56.27s-14.44,11.97-15.27,25.54c-.83,13.57,26.32-28.01,15.27-25.54Z"/>
      </g>
      <g>
        <g>
          <path class="cls-24" d="M73.12,66.81s.71-5.3-3.42-5.46c-4.12-.16,.3,3.78,.3,3.78,0,0-3.65-1.71-4.46,.35s6.17,2.41,6.17,2.41l1.41-1.08Z"/>
          <g>
            <path class="cls-12" d="M74.58,65.81c3.53,1.3,7.69,16.61-2.99,25.36-15.12,12.4-32.29,11.72-35.48-.44-3.84-14.66,11.83-19.75,23.24-15.95,5.25,1.74,9.45-11.1,15.23-8.97h0Z"/>
            <path class="cls-12" d="M73.43,66.1c-.05,0-.11,0-.16-.03-.27-.09-.43-.38-.34-.65,1.01-3.18-2.49-8.32-2.53-8.37-.16-.24-.1-.56,.13-.73,.24-.17,.56-.11,.73,.13,.16,.23,3.83,5.61,2.66,9.28-.07,.22-.28,.36-.5,.36Z"/>
          </g>
        </g>
        <path class="cls-11" d="M40.09,83.56s.63-5,5.1-6.53c4.47-1.54,5.3,.6,3.71,2.78-1.59,2.18-10.06,7.12-8.81,3.75Z"/>
      </g>
      <g>
        <g>
          <polygon class="cls-18" points="121.62 177.85 29.78 172.48 21.33 87.44 125.7 90.38 121.62 177.85"/>
          <polygon class="cls-26" points="197.57 168.47 121.62 177.85 125.7 90.38 200.48 78.75 197.57 168.47"/>
        </g>
        <polygon class="cls-26" points="21.33 87.44 3.35 104.02 103.44 113.7 125.7 90.38 21.33 87.44"/>
        <polygon class="cls-26" points="125.7 90.38 140.7 113.7 214.56 97.38 200.48 78.75 125.7 90.38"/>
      </g>
      <g>
        <polygon class="cls-29" points="70.39 117 29.35 115.37 30.13 124.67 70.39 127.65 70.39 117"/>
        <g>
          <path class="cls-23" d="M33.66,120.38l-.88-.07c-.13,0-.23,.09-.23,.21v.95c0,.13-.1,.22-.23,.21h-.12c-.13-.02-.23-.13-.23-.26v-2.86c0-.13,.1-.22,.23-.21l1.65,.12c.13,0,.23,.12,.23,.25h0c0,.13-.1,.23-.23,.22l-1.07-.08c-.13,0-.23,.09-.23,.21v.53c0,.13,.1,.24,.23,.25l.88,.07c.13,0,.23,.12,.23,.25h0c0,.13-.1,.22-.23,.21Z"/>
          <path class="cls-23" d="M37.2,120.48c0,.25-.03,.48-.1,.67-.07,.2-.16,.36-.28,.49-.12,.13-.26,.23-.43,.29-.17,.06-.36,.09-.56,.07-.2-.02-.39-.07-.56-.15-.17-.09-.31-.2-.44-.35-.12-.15-.22-.33-.29-.53-.07-.21-.1-.43-.1-.69v-.17c0-.25,.03-.48,.1-.67,.07-.2,.16-.36,.28-.49,.12-.13,.27-.23,.43-.29,.17-.06,.36-.09,.56-.07,.21,.02,.39,.07,.56,.15,.17,.09,.31,.21,.44,.35,.12,.15,.21,.33,.28,.53,.07,.21,.1,.43,.1,.69v.17Zm-.58-.22c0-.19-.02-.35-.05-.5-.04-.14-.09-.27-.16-.37-.07-.1-.15-.18-.25-.24s-.21-.09-.34-.1c-.12,0-.23,0-.33,.05-.1,.04-.18,.11-.25,.2-.07,.09-.12,.21-.16,.35-.04,.14-.06,.3-.06,.49v.17c0,.19,.02,.35,.06,.5,.04,.15,.09,.27,.16,.37,.07,.1,.15,.18,.25,.24,.1,.06,.21,.09,.33,.1,.26,.02,.45-.06,.59-.25,.14-.18,.21-.46,.21-.84v-.17Z"/>
          <path class="cls-23" d="M40.43,120.72c0,.25-.03,.48-.1,.67-.07,.2-.16,.36-.28,.49-.12,.13-.26,.23-.43,.29-.17,.06-.36,.09-.56,.07-.2-.02-.39-.07-.56-.15-.17-.09-.31-.2-.44-.35-.12-.15-.22-.33-.29-.53-.07-.21-.1-.43-.1-.69v-.17c0-.25,.03-.48,.1-.67,.07-.2,.16-.36,.28-.49,.12-.13,.27-.23,.43-.29,.17-.06,.36-.09,.56-.07,.21,.02,.39,.07,.56,.15,.17,.09,.31,.21,.44,.35,.12,.15,.21,.33,.28,.53,.07,.21,.1,.43,.1,.69v.17Zm-.58-.22c0-.19-.02-.35-.05-.5-.04-.14-.09-.27-.16-.37-.07-.1-.15-.18-.25-.24-.1-.06-.21-.09-.34-.1-.12,0-.23,0-.33,.05-.1,.04-.18,.11-.25,.2-.07,.09-.12,.21-.16,.35s-.06,.3-.06,.49v.17c0,.19,.02,.35,.06,.5,.04,.15,.09,.27,.16,.37,.07,.1,.15,.18,.25,.24,.1,.06,.21,.09,.33,.1,.26,.02,.45-.06,.59-.25,.14-.18,.21-.46,.21-.84v-.17Z"/>
          <path class="cls-23" d="M41,122.11v-2.86c0-.13,.1-.22,.23-.21l.75,.06c.22,.02,.42,.07,.61,.16,.18,.09,.34,.21,.47,.35,.13,.15,.23,.32,.31,.52,.07,.2,.11,.42,.11,.66v.16c0,.24-.04,.45-.11,.64-.07,.19-.17,.35-.31,.47-.13,.13-.29,.22-.48,.28-.19,.06-.4,.08-.63,.07l-.72-.05c-.13,0-.23-.12-.23-.25Zm.58-2.35v1.94c0,.13,.1,.24,.23,.25h.15c.16,.02,.29,0,.41-.03,.12-.04,.22-.11,.3-.2,.08-.09,.14-.2,.18-.34,.04-.14,.06-.29,.06-.46v-.17c0-.36-.08-.64-.24-.84-.16-.2-.38-.31-.68-.34h-.17c-.13-.02-.23,.07-.23,.2Z"/>
          <path class="cls-23" d="M45.22,122.42v-2.86c0-.13,.1-.22,.23-.21l.75,.06c.22,.02,.42,.07,.61,.16,.18,.09,.34,.21,.47,.35,.13,.15,.23,.32,.31,.52,.07,.2,.11,.42,.11,.66v.16c0,.24-.04,.45-.11,.64-.07,.19-.17,.35-.31,.47-.13,.13-.29,.22-.48,.28-.19,.06-.4,.08-.63,.07l-.72-.05c-.13,0-.23-.12-.23-.25Zm.58-2.35v1.94c0,.13,.1,.24,.23,.25h.15c.16,.02,.29,0,.41-.03,.12-.04,.22-.11,.3-.2,.08-.09,.14-.2,.18-.34,.04-.14,.06-.29,.06-.46v-.17c0-.36-.08-.64-.24-.84-.16-.2-.38-.31-.68-.34h-.17c-.13-.02-.23,.07-.23,.2Z"/>
          <path class="cls-23" d="M50.92,121.5c0,.25-.03,.48-.1,.67-.07,.2-.16,.36-.28,.49-.12,.13-.26,.23-.43,.29-.17,.06-.36,.09-.56,.07-.2-.02-.39-.07-.56-.15-.17-.09-.31-.2-.44-.35-.12-.15-.22-.33-.29-.53-.07-.21-.1-.43-.1-.69v-.17c0-.25,.03-.48,.1-.67,.07-.2,.16-.36,.28-.49,.12-.13,.27-.23,.43-.29,.17-.06,.36-.09,.56-.07,.21,.02,.39,.07,.56,.15,.17,.09,.31,.21,.44,.35,.12,.15,.21,.33,.28,.53,.07,.21,.1,.43,.1,.69v.17Zm-.58-.22c0-.19-.02-.35-.05-.5-.04-.14-.09-.27-.16-.37-.07-.1-.15-.18-.25-.24-.1-.06-.21-.09-.34-.1-.12,0-.23,0-.33,.05-.1,.04-.18,.11-.25,.2-.07,.09-.12,.21-.16,.35-.04,.14-.06,.3-.06,.49v.17c0,.19,.02,.35,.06,.5,.04,.15,.09,.27,.16,.37,.07,.1,.15,.18,.25,.24,.1,.06,.21,.09,.33,.1,.26,.02,.45-.06,.59-.25,.14-.18,.21-.46,.21-.84v-.17Z"/>
          <path class="cls-23" d="M53.9,123.3l-.22-.02c-.08,0-.15-.05-.2-.12l-.99-1.65c-.12-.21-.43-.14-.43,.09v1.33c0,.13-.1,.22-.23,.21h-.12c-.13-.02-.23-.13-.23-.26v-2.86c0-.13,.1-.22,.23-.21l.22,.02c.08,0,.15,.05,.2,.12l.99,1.65c.12,.21,.43,.14,.43-.09v-1.34c0-.13,.1-.22,.23-.21h.11c.13,.02,.23,.13,.23,.26v2.86c0,.13-.1,.22-.23,.21Z"/>
          <path class="cls-23" d="M56.55,122.73l-.96-.07c-.1,0-.19,.05-.22,.14l-.16,.45c-.03,.09-.12,.15-.22,.14h-.1c-.16-.02-.27-.19-.22-.34l1.08-2.78c.03-.09,.12-.14,.22-.13h.2c.1,.02,.18,.09,.22,.18l1.08,2.94c.06,.16-.05,.31-.22,.3h-.11c-.1-.02-.19-.08-.22-.18l-.16-.48c-.03-.09-.12-.16-.22-.17Zm-.64-.51l.31,.02c.16,.01,.27-.14,.22-.29l-.16-.46c-.07-.21-.36-.23-.44-.03l-.16,.44c-.05,.15,.06,.31,.22,.32Z"/>
          <path class="cls-23" d="M59.86,120.89l-.58-.04c-.13,0-.23,.09-.23,.21v2.4c0,.13-.1,.22-.23,.21h-.11c-.13-.02-.23-.13-.23-.26v-2.4c0-.13-.1-.24-.23-.25l-.57-.04c-.13,0-.23-.12-.23-.25h0c0-.13,.1-.23,.23-.22l2.17,.16c.13,0,.23,.12,.23,.25h0c0,.13-.1,.23-.23,.22Z"/>
          <path class="cls-23" d="M60.91,123.82h-.11c-.13-.02-.23-.13-.23-.26v-2.86c0-.13,.1-.22,.23-.21h.11c.13,.02,.23,.13,.23,.26v2.86c0,.13-.1,.22-.23,.21Z"/>
          <path class="cls-23" d="M64.5,122.52c0,.25-.03,.48-.1,.67-.07,.2-.16,.36-.28,.49-.12,.13-.26,.23-.43,.29s-.36,.09-.56,.07c-.2-.02-.39-.07-.56-.15-.17-.09-.31-.2-.44-.35-.12-.15-.22-.33-.29-.53-.07-.21-.1-.43-.1-.69v-.17c0-.25,.03-.48,.1-.67,.07-.2,.16-.36,.28-.49,.12-.13,.27-.23,.43-.29,.17-.06,.36-.09,.56-.07,.21,.02,.39,.07,.56,.15,.17,.09,.31,.21,.44,.35,.12,.15,.21,.33,.28,.53,.07,.21,.1,.43,.1,.69v.17Zm-.58-.22c0-.19-.02-.35-.05-.5-.04-.14-.09-.27-.16-.37-.07-.1-.15-.18-.25-.24-.1-.06-.21-.09-.34-.1-.12,0-.23,0-.33,.05-.1,.04-.18,.11-.25,.2-.07,.09-.12,.21-.16,.35-.04,.14-.06,.3-.06,.49v.17c0,.19,.02,.35,.06,.5,.04,.15,.09,.27,.16,.37,.07,.1,.15,.18,.25,.24,.1,.06,.21,.09,.33,.1,.26,.02,.45-.06,.59-.25,.14-.18,.21-.46,.21-.84v-.17Z"/>
          <path class="cls-23" d="M67.48,124.32l-.22-.02c-.08,0-.15-.05-.2-.12l-.99-1.65c-.12-.21-.43-.14-.43,.09v1.33c0,.13-.1,.22-.23,.21h-.12c-.13-.02-.23-.13-.23-.26v-2.86c0-.13,.1-.22,.23-.21l.22,.02c.08,0,.15,.05,.2,.12l.99,1.65c.12,.21,.43,.14,.43-.09v-1.34c0-.13,.1-.22,.23-.21h.11c.13,.02,.23,.13,.23,.26v2.86c0,.13-.1,.22-.23,.21Z"/>
        </g>
      </g>
      <g>
        <path class="cls-7" d="M172.74,160.39c-.2,7.77-.95,14.18-1.89,16.16-2.72,5.7-32.61,2.73-34.78,.83-1.03-.9-1.71-8.68-1.97-17.82-.25-8.93-.09-19.16,.55-25.49,.09-.9,.19-1.72,.3-2.44,1.36-8.89,6.19-9.27,10.08-12.26,1.68-1.29,1.7-4,1.66-5.49-.07-2.37,.37-3.14,.06-4.99l13.5,1.13c.03,1.38-.13,3.81-.17,5.45-.09,4.33,.39,4.27,5.54,7.27,4.31,2.51,5.85,6.44,6.43,11.34,.51,4.3,.29,9.34,.56,14.83,.19,3.92,.22,7.85,.13,11.49Z"/>
        <path class="cls-31" d="M145.79,107.35s-1.37,7.95-.7,8.4,15.84,1.66,16.29,.75c.45-.9-.67-8.82-1.34-9.16-.67-.34-13.84-.79-14.25,0Z"/>
        <path class="cls-4" d="M172.74,160.39c-.98,.41-15.97,6.47-38.64-.83-.25-8.93-.09-19.16,.55-25.49h0s17.24,5.46,37.41,0c.51,4.3,.29,9.34,.56,14.83,.19,3.92,.22,7.85,.13,11.49Z"/>
      </g>
      <g>
        <path class="cls-19" d="M96.84,181.07s-.03,0-.04,0c-.2-.02-.35-.21-.32-.41l6.93-58.53c.02-.2,.19-.34,.41-.32,.2,.02,.35,.21,.32,.41l-6.93,58.53c-.02,.19-.18,.33-.37,.33Z"/>
        <path class="cls-19" d="M69.27,176.66s-.05,0-.07,0c-.2-.04-.33-.24-.29-.44l10.83-54.12c.04-.2,.23-.33,.43-.29,.2,.04,.33,.24,.29,.44l-10.83,54.12c-.03,.17-.19,.3-.36,.3Z"/>
        <rect class="cls-19" x="78.52" y="130.66" width="24.18" height=".86"/>
        <rect class="cls-19" x="87.22" y="136.44" width=".85" height="25.69" transform="translate(-66.67 227.74) rotate(-86.53)"/>
        <rect class="cls-19" x="84.29" y="154.27" width=".86" height="27.12" transform="translate(-90.45 236.09) rotate(-84.5)"/>
      </g>
      <g>
        <g>
          <path class="cls-15" d="M190.16,161.83c-2.25-.39-4.16-.27-8.66-3.18-3.98-2.58-8.56-1.64-10.68,2.94-2.03,4.37-.49,12.74,1.69,15.49,2.74,3.44,9.42,4.02,11.25,3.82,3.93-.44,9.2-3.38,11.49-11.07,1.33-4.46-1.88-7.42-5.1-7.98Z"/>
          <path class="cls-12" d="M186.09,164.78c-4.41,0-6.24-3.74-6.26-3.78-.04-.1,0-.21,.09-.25,.09-.05,.21,0,.25,.09,.09,.19,2.26,4.63,7.85,3.33,.1-.03,.2,.04,.23,.14,.02,.1-.04,.2-.14,.23-.72,.17-1.4,.24-2.02,.24Z"/>
          <path class="cls-12" d="M183.21,164.1c-.06,0-.13-.01-.19-.04-.21-.1-.3-.36-.2-.57,2.88-5.88,10.08-6.03,10.81-6.03,.02,0,.04,0,.05,0,.24,0,.42,.19,.42,.43,0,.23-.19,.42-.43,.42,0,0,0,0-.01,0-.3,0-7.38,.07-10.07,5.55-.07,.15-.23,.24-.38,.24Z"/>
        </g>
        <path class="cls-30" d="M188.57,156.83s2.69,.13,3.11-2.49c.41-2.62-1.2-2.45-1.34-4.56-.14-2.11-1.33-3.55-1.95-3.06-.62,.49-1.48,1.51-2.84,3.21-1.36,1.7-2.26,6.28,3.02,6.89Z"/>
        <path class="cls-12" d="M187.77,159.45s-.05,0-.08-.02c-.1-.04-.14-.15-.09-.25,1.5-3.34,.6-9.25,.59-9.3-.02-.1,.05-.2,.16-.22,.11-.03,.2,.05,.22,.16,.04,.25,.93,6.08-.62,9.52-.03,.07-.1,.11-.17,.11Z"/>
      </g>
      <g>
        <g>
          <path class="cls-10" d="M114.39,64.46c2.18-.69,4.08-.82,8.16-4.31,3.6-3.08,8.27-2.76,10.98,1.49,2.59,4.07,2.18,12.56,.38,15.57-2.26,3.78-8.8,5.24-10.64,5.28-3.95,.09-9.57-2.12-12.86-9.45-1.91-4.24,.88-7.6,3.99-8.59Z"/>
          <path class="cls-12" d="M117.71,66.9c-.29,0-.6-.01-.92-.04-.1-.01-.18-.1-.17-.21,.01-.1,.09-.17,.21-.17,5.68,.55,7.27-4.15,7.34-4.35,.03-.1,.14-.16,.24-.12,.1,.03,.15,.14,.12,.24-.02,.05-1.55,4.66-6.82,4.66Z"/>
          <path class="cls-12" d="M121.53,65.78c-.14,0-.27-.07-.35-.19-3.46-5.17-10.65-4.17-10.73-4.16-.22,.05-.45-.13-.48-.36-.03-.23,.13-.45,.36-.48,.31-.05,7.81-1.08,11.56,4.53,.13,.2,.08,.46-.12,.59-.07,.05-.16,.07-.24,.07Z"/>
        </g>
        <path class="cls-33" d="M115.3,59.28s-2.65,.49-3.41-2.06c-.76-2.55,.87-2.59,.72-4.69-.14-2.11,.85-3.69,1.52-3.29s1.67,1.3,3.24,2.8c1.57,1.51,3.07,5.93-2.08,7.23Z"/>
        <path class="cls-12" d="M116.43,61.77c-.06,0-.12-.03-.16-.09-1.99-3.21-1.88-9.1-1.88-9.35,0-.1,.09-.18,.19-.18h0c.11,0,.19,.09,.19,.19,0,.06-.12,6.03,1.82,9.14,.05,.09,.03,.2-.06,.26-.03,.02-.07,.03-.1,.03Z"/>
      </g>
      <g>
        <g>
          <g>
            <ellipse class="cls-31" cx="27.81" cy="175.83" rx="26.67" ry="4.61"/>
            <rect class="cls-31" x="1.14" y="166.62" width="53.35" height="9.21"/>
          </g>
          <path class="cls-29" d="M39.57,172.54v4.84c-.07,0-.14,.01-.21,.02-.04,0-.08,0-.13,.01-.18,.01-.37,.03-.56,.04-.08,0-.17,.01-.25,.02-.1,0-.19,.01-.29,.02-.11,0-.23,.02-.35,.02l-.32,.02c-.14,0-.27,.02-.41,.02-.08,0-.15,0-.23,.01-.18,.01-.37,.02-.56,.03-.05,0-.1,0-.15,0-.16,0-.31,.02-.47,.02-.07,0-.14,0-.21,.01-.19,0-.39,.02-.59,.03-.06,0-.12,0-.18,0-.16,0-.31,.01-.47,.02-.07,0-.15,0-.22,0-.2,0-.39,.01-.59,.02-.08,0-.16,0-.24,0-.14,0-.28,0-.42,.01-.09,0-.18,0-.27,0-.19,0-.38,0-.57,.01-.1,0-.21,0-.31,0-.12,0-.24,0-.36,0-.15,0-.3,0-.45,0-.14,0-.28,0-.42,0-.13,0-.25,0-.38,0-.09,0-.19,0-.28,0-.22,0-.44,0-.66,0-.08,0-.17,0-.25,0-.14,0-.28,0-.42,0h-.25c-.12,0-.24,0-.35,0-4.81,0-9.23-.19-12.75-.51v-4.84c.08,0,.16,.01,.23,.02,.01,0,.02,0,.04,0,3.47,.31,7.79,.49,12.47,.49,.82,0,1.63,0,2.43-.02h0c.52,0,1.04-.02,1.54-.03,.02,0,.03,0,.05,0,.25,0,.49-.01,.73-.02,.02,0,.05,0,.07,0,.22,0,.43-.01,.64-.02,.03,0,.07,0,.1,0,.22,0,.44-.02,.66-.02,.05,0,.1,0,.15,0,.18,0,.36-.01,.54-.02,.05,0,.09,0,.14,0,.2,0,.4-.02,.6-.03,.07,0,.13,0,.2,0,.17,0,.33-.02,.49-.02h.14c.19-.02,.38-.03,.57-.04,.07,0,.13,0,.2-.01,.18-.01,.35-.02,.53-.03,.03,0,.06,0,.1,0,.18-.01,.36-.02,.54-.04,.05,0,.1,0,.15-.01,.2-.01,.39-.03,.58-.04,0,0,0,0,.01,0,.2-.02,.4-.03,.6-.05,0,0,.02,0,.03,0Z"/>
          <ellipse class="cls-4" cx="27.81" cy="166.62" rx="26.67" ry="4.61"/>
          <path class="cls-29" d="M27.81,170.27c-13.4,0-23.9-1.6-23.9-3.65s10.5-3.65,23.9-3.65,23.9,1.6,23.9,3.65-10.5,3.65-23.9,3.65Zm0-7.16c-12.87,0-23.75,1.6-23.75,3.5s10.87,3.5,23.75,3.5,23.74-1.6,23.74-3.5-10.87-3.5-23.74-3.5Z"/>
          <g class="cls-14">
            <ellipse class="cls-29" cx="27.81" cy="166.62" rx="19.12" ry="2.87"/>
          </g>
        </g>
        <g>
          <g>
            <ellipse class="cls-17" cx="33.79" cy="163.87" rx="26.67" ry="4.61"/>
            <rect class="cls-17" x="7.11" y="154.66" width="53.35" height="9.21"/>
          </g>
          <path class="cls-29" d="M45.54,160.58v4.84c-.07,0-.14,.01-.21,.02-.04,0-.08,0-.13,.01-.18,.01-.37,.03-.56,.04-.08,0-.17,.01-.25,.02-.1,0-.19,.01-.29,.02-.11,0-.23,.02-.35,.02l-.32,.02c-.14,0-.27,.02-.41,.02-.08,0-.15,0-.23,.01-.18,.01-.37,.02-.56,.03-.05,0-.1,0-.15,0-.16,0-.31,.02-.47,.02-.07,0-.14,0-.21,.01-.19,0-.39,.02-.59,.03-.06,0-.12,0-.18,0-.16,0-.31,.01-.47,.02-.07,0-.15,0-.22,0-.2,0-.39,.01-.59,.02-.08,0-.16,0-.24,0-.14,0-.28,0-.42,.01-.09,0-.18,0-.27,0-.19,0-.38,0-.57,.01-.1,0-.21,0-.31,0-.12,0-.24,0-.36,0-.15,0-.3,0-.45,0-.14,0-.28,0-.42,0-.13,0-.25,0-.38,0h-.28c-.22,0-.44,0-.66,0-.08,0-.17,0-.25,0-.14,0-.28,0-.42,0h-.25c-.12,0-.24,0-.35,0-4.81,0-9.23-.19-12.75-.51v-4.84c.08,0,.16,.01,.23,.02,.01,0,.02,0,.04,0,3.47,.31,7.79,.49,12.47,.49,.82,0,1.63,0,2.43-.02h0c.52,0,1.04-.02,1.54-.03,.02,0,.03,0,.05,0,.25,0,.49-.01,.73-.02,.02,0,.05,0,.07,0,.22,0,.43-.01,.64-.02,.03,0,.07,0,.1,0,.22,0,.44-.02,.66-.02,.05,0,.1,0,.15,0,.18,0,.36-.01,.54-.02,.05,0,.09,0,.14,0,.2,0,.4-.02,.6-.03,.07,0,.13,0,.2,0,.17,0,.33-.02,.49-.02h.14c.19-.02,.38-.03,.57-.04,.07,0,.13,0,.2-.01,.18-.01,.35-.02,.53-.03,.03,0,.06,0,.1,0,.18-.01,.36-.02,.54-.04,.05,0,.1,0,.15-.01,.2-.01,.39-.03,.58-.04,0,0,0,0,.01,0,.2-.02,.4-.03,.6-.05,0,0,.02,0,.03,0Z"/>
          <ellipse class="cls-4" cx="33.79" cy="154.66" rx="26.67" ry="4.61"/>
          <path class="cls-29" d="M33.79,158.31c-13.4,0-23.9-1.6-23.9-3.65s10.5-3.65,23.9-3.65,23.9,1.6,23.9,3.65-10.5,3.65-23.9,3.65Zm0-7.16c-12.87,0-23.74,1.6-23.74,3.5s10.87,3.5,23.74,3.5,23.75-1.6,23.75-3.5-10.87-3.5-23.75-3.5Z"/>
          <g class="cls-14">
            <ellipse class="cls-29" cx="33.79" cy="154.66" rx="19.12" ry="2.87"/>
          </g>
        </g>
      </g>
      <g>
        <g>
          <rect class="cls-27" x="117.91" y="60.21" width=".9" height="3.13" rx=".42" ry=".42" transform="translate(179.18 180.63) rotate(-144.66)"/>
          <path class="cls-27" d="M117.61,58.88h.04c.24,0,.43,.19,.43,.43v3c0,.24-.19,.43-.43,.43h-.04c-.24,0-.43-.19-.43-.43v-3c0-.24,.19-.43,.43-.43Z" transform="translate(178.4 178.47) rotate(-144.65)"/>
          <rect class="cls-27" x="114.32" y="60.03" width="1.25" height="4" rx=".59" ry=".59" transform="translate(233.14 117.6) rotate(176.83)"/>
          <path class="cls-27" d="M115.58,61.72h0c.2,.14,.48,.1,.63-.11l1.99-2.81c.14-.2,.1-.48-.11-.63h0c-.2-.14-.48-.1-.63,.11l-1.99,2.81c-.14,.2-.1,.48,.11,.63Z"/>
          <path class="cls-27" d="M116.83,65.29s2.34-1.05,2.78-2.83c.15-.61-2.15-3.16-2.77-2.82-.62,.34-2.29,3.03-2.29,3.03l2.29,2.62Z"/>
          <rect class="cls-27" x="118.7" y="61.32" width=".9" height="2.63" rx=".4" ry=".4" transform="translate(180.11 182.66) rotate(-144.66)"/>
        </g>
        <path class="cls-27" d="M76.92,89.09c1.74-4.7,4.95-11.53,8.72-16.37,.87-1.12,1.22-1.54,1.83-2.11,.48-.47,.22-1.85-.57-2.69-.74-.79-2.14-1.07-2.43-.86-.5,.36-1.13,1.13-2.12,2.37-3.45,4.29-6.5,10.71-9.21,18.67l3.79,.99Z"/>
        <g class="cls-5">
          <path class="cls-25" d="M79.21,77.74c-.08,0-.15-.01-.22-.05-.36-.17-.46-.69-.23-1.2h0c.11-.24,.27-.43,.46-.55,.2-.12,.41-.15,.59-.07,.35,.16,.46,.7,.23,1.2-.11,.24-.27,.43-.46,.55-.12,.08-.25,.11-.37,.11Zm.38-1.72c-.09,0-.18,.03-.27,.09-.16,.1-.3,.26-.39,.47h0c-.18,.41-.12,.83,.14,.95,.12,.06,.27,.03,.42-.05,.16-.1,.3-.26,.39-.47,.19-.4,.12-.83-.14-.95-.04-.02-.09-.03-.14-.03Z"/>
        </g>
        <path class="cls-27" d="M95.32,65.05l.52-2.26,.15-.66,.89-3.87,.43,3.75,.26,2.25,.08,.71c.06,.48,.36,.56,.75,.96,.16,.16,1.17,1.13,.14,1.67-1.28,.68-3.81-.02-4.83-1.1,0,0,1.43-.72,1.6-1.45Z"/>
        <ellipse class="cls-27" cx="96.81" cy="59.68" rx="3.37" ry="4.06" transform="translate(-10.12 20.94) rotate(-11.74)"/>
        <path class="cls-12" d="M98.6,58.13c1.93-.07,2.78-1.25,2.72-2.28-.07-1.32-.99-2.42-1.91-1.86-.93,.56-.6-.67-1.54-.73-1.75-.11-1.99,1.15-3.4,1.31-1.87,.22-3.77,3.5-2.03,5.66,0,0,4.64-2.05,6.16-2.1Z"/>
        <path class="cls-12" d="M100.21,56.68s-1.91,2.13-1.55,3.22c.35,1.09,.32,1.53-.84,2.22-1.15,.68-.02,1.57-1.62,1.76-1.59,.19-3.69-1.55-3.92-4.66-.13-1.73,.78-2.94,.78-2.94l7.15,.4Z"/>
        <path class="cls-27" d="M99.69,59.77c-.26-.31-.69-.38-.97-.15-.28,.23-.3,.67-.04,.98,.26,.31,.69,.38,.97,.15s.3-.67,.04-.98Z"/>
        <path class="cls-12" d="M92.84,59.8s-.01,0-.02,0c-.03-.01-.04-.04-.03-.06,.17-.44,.62-.64,.64-.64,.02,0,.05,0,.06,.03,.01,.02,0,.05-.03,.06,0,0-.43,.18-.58,.59,0,.02-.03,.03-.05,.03Z"/>
        <path class="cls-12" d="M93.48,58.94h-.01s-.59-.13-.61-.61c0-.03,.02-.05,.05-.05,.03,0,.05,.02,.05,.05,.02,.41,.53,.52,.53,.52,.03,0,.04,.03,.04,.06,0,.02-.03,.04-.05,.04Z"/>
        <path class="cls-12" d="M99.08,53.94c-.05,0-.11-.01-.16-.04-.27-.15-.36-.69-.37-.71,0-.03,.01-.05,.04-.06h0s.04,.02,.05,.04c0,0,.09,.51,.32,.64,.06,.03,.12,.03,.2,.01,.14-.05,.25-.14,.35-.22,.2-.16,.41-.34,.87-.23,.03,0,.04,.03,.04,.06,0,.03-.04,.04-.06,.04-.41-.11-.58,.04-.79,.2-.11,.09-.22,.18-.38,.24-.04,.02-.09,.02-.13,.02Z"/>
        <path class="cls-12" d="M94.49,54.41s-.08,0-.12,0c-.03,0-.05-.03-.05-.05,0-.03,.02-.04,.05-.04h0s.07,0,.11,0c.69,0,1.22-.57,1.23-.58,.02-.02,.05-.02,.07,0,.02,.02,.02,.05,0,.07-.02,.03-.56,.61-1.3,.61Z"/>
        <path class="cls-12" d="M99.22,60.93c-.17,0-.43-.07-.65-.44,0-.01,0-.03,0-.03,.01,0,.03,0,.03,0,.34,.57,.76,.4,.76,.4,.01,0,.03,0,.03,.01,0,.01,0,.03-.01,.03,0,0-.07,.03-.17,.03Z"/>
        <path class="cls-27" d="M117.2,65.02c.39-.93-2.61-2.54-2.61-2.54-.33-.07-2.85,5.71-8.33,6.22-1.95,.18-5.6-1.82-5.97-2.2-.05-.05-3.26,2.92-3.26,2.92,.65,.68,2.1,3.09,4.67,4.01,5.32,1.91,13.97-2.16,15.5-8.42Z"/>
        <path class="cls-12" d="M93.47,127.65s.04,1.42,1,1.82c.96,.4,3.74,.76,2.7,1.67-.6,.52-3.41,.19-4.2,.19-.79,0-1.54,.35-2.13-.19-.65-.58,0-3.49,0-3.49,0,0,.69,.36,1.3,.34,.89-.02,1.33-.34,1.33-.34Z"/>
        <path class="cls-31" d="M101.75,84.8s.19,6.41-1.85,18.7c-1.48,8.87-3.22,17.81-4.07,22.1-.31,1.53-1.6,2.65-3.12,2.72l-.82,.03c-1.65,.07-2.99-1.35-2.87-3.04l2.07-29,.51-9.55,10.16-1.96Z"/>
        <path class="cls-12" d="M84.37,127.65s.04,1.42,1,1.82c.96,.4,3.74,.76,2.7,1.67-.6,.52-3.41,.19-4.2,.19-.79,0-1.54,.35-2.13-.19-.65-.58,0-3.49,0-3.49,0,0,.69,.36,1.3,.34,.89-.02,1.33-.34,1.33-.34Z"/>
        <path class="cls-31" d="M92.65,84.8s.19,6.41-1.85,18.7c-1.48,8.87-3.22,17.81-4.07,22.1-.31,1.53-1.6,2.65-3.12,2.72l-.82,.03c-1.65,.07-2.99-1.35-2.87-3.04l2.07-29,.51-9.55,10.16-1.96Z"/>
        <path class="cls-28" d="M86.29,68.04s1.58-3.87,9.05-2.86c10.78,1.46,8.39,11.21,7.27,26.39,0,0-10.4-2.99-20.75-2.25,0,0,1.23-15.48,4.43-21.29Z"/>
        <path class="cls-28" d="M82.13,67.87s1.28,4.22,4.65,5.46c3.2,1.18,14.32,3.01,16.82,1.53,3.54-2.1,3.12-6.66,3.12-6.66,0,0-7.06-3.19-12.99-3.4-7.97-.29-11.6,3.07-11.6,3.07Z"/>
        <path class="cls-28" d="M81.85,89.52c-.09,.77,4.5,1.72,10.25,2.35,5.75,.63,10.44,.48,10.52-.29s-4.46-1.87-10.21-2.49c-5.75-.63-10.48-.34-10.57,.43Z"/>
        <path class="cls-12" d="M90.38,106.24s0,0-.01,0c-.03,0-.06-.04-.05-.07,.94-5.2-.94-9.28-2.07-10.72-.02-.03-.02-.07,.01-.09,.03-.02,.07-.02,.09,.01,1.14,1.45,3.04,5.57,2.09,10.82,0,.03-.03,.05-.06,.05Z"/>
        <path class="cls-27" d="M76.7,87.95c.2,.65,.31,2.02,.5,2.68,.08,.28,.29,1.26,.03,1.38-.23,.11-.74-.59-.95-.94-.71,2.3-2.48,4.98-1.28,.31,0,0,0,0,0,0-.13,.39-1.02,3.31-1.6,2.92-.42-.29,.37-2.66,.59-3.31,0,0-.01,0-.02,0-.27,.64-.99,2.62-1.41,2.36-.55-.33,.45-2.85,.45-2.85,0,0-.78,2.11-1.24,1.51-.26-.34,.25-1.57,.57-2.33h0s0,0,0,0c.07-.16,.13-.3,.17-.41,.04-.09,.08-.16,.12-.22,.62-1.24,1.22-1.93,1.22-1.93,0,0,.56-.94,1.67-.54,.71,.26,1.1,1.12,1.19,1.4Z"/>
      </g>
    </g>
  </g>
</svg>