<?xml version="1.0" encoding="UTF-8"?>
<svg xmlns="http://www.w3.org/2000/svg" viewBox="0 0 524.97 305.12">
  <defs>
    <style>
      .cls-1 {
        fill: #c97547;
      }

      .cls-2 {
        fill: #b2c8c9;
      }

      .cls-3 {
        fill: #2d313d;
      }

      .cls-4 {
        fill: #bfd5d6;
      }

      .cls-5 {
        opacity: .4;
      }

      .cls-5, .cls-6, .cls-7, .cls-8, .cls-9 {
        mix-blend-mode: multiply;
      }

      .cls-5, .cls-7, .cls-10 {
        fill: #576287;
      }

      .cls-11 {
        fill: #8594c1;
      }

      .cls-12 {
        fill: #fff7ee;
      }

      .cls-13 {
        fill: #cf6b47;
      }

      .cls-14 {
        fill: #f4be84;
      }

      .cls-6, .cls-8, .cls-15, .cls-16 {
        opacity: .5;
      }

      .cls-6, .cls-17 {
        fill: #ffbb43;
      }

      .cls-18 {
        fill: #ffb346;
      }

      .cls-19 {
        opacity: .9;
      }

      .cls-20, .cls-21 {
        opacity: .2;
      }

      .cls-20, .cls-21, .cls-15, .cls-16 {
        mix-blend-mode: screen;
      }

      .cls-20, .cls-15 {
        fill: #f2f2f2;
      }

      .cls-22 {
        fill: #e2cec3;
      }

      .cls-23 {
        fill: #3d4359;
      }

      .cls-24 {
        fill: #323749;
      }

      .cls-7, .cls-9 {
        opacity: .3;
      }

      .cls-25 {
        isolation: isolate;
      }

      .cls-26 {
        fill: #3f3d3d;
      }

      .cls-27 {
        fill: #252935;
      }

      .cls-28 {
        fill: #e2a36a;
      }

      .cls-29 {
        fill: #73859b;
      }

      .cls-30 {
        fill: #95c0d8;
      }

      .cls-31 {
        fill: #b71a29;
      }

      .cls-32 {
        fill: #66739e;
      }

      .cls-33 {
        fill: #d38753;
      }

      .cls-34 {
        fill: #ff9b12;
      }

      .cls-35 {
        fill: #eadace;
      }

      .cls-36, .cls-9 {
        fill: #313547;
      }

      .cls-37 {
        fill: #722c00;
      }

      .cls-38 {
        fill: #d6b5a7;
      }

      .cls-39 {
        fill: #6d80ad;
      }

      .cls-40 {
        fill: #f7eee2;
      }

      .cls-21, .cls-16 {
        fill: #fff;
      }

      .cls-41 {
        fill: #de3041;
      }

      .cls-42 {
        fill: #6d8daf;
      }

      .cls-43 {
        fill: #ff9021;
      }

      .cls-44, .cls-8 {
        fill: #ffda71;
      }

      .cls-45 {
        fill: #ff9d2c;
      }

      .cls-46 {
        fill: #2a2e3d;
      }

      .cls-47 {
        fill: #ef780c;
      }

      .cls-48 {
        fill: #cc2a35;
      }

      .cls-49 {
        fill: #b74918;
      }

      .cls-50 {
        fill: #292d3a;
      }

      .cls-51 {
        fill: #aa4017;
      }

      .cls-52 {
        fill: #9e1025;
      }

      .cls-53 {
        fill: #a5482b;
      }

      .cls-54 {
        fill: #ffba40;
      }

      .cls-55 {
        fill: #242833;
      }

      .cls-56 {
        fill: #7f3500;
      }
    </style>
  </defs>
  <g class="cls-25">
    <g id="Layer_2" data-name="Layer 2">
      <g id="Layer_1-2" data-name="Layer 1">
        <g>
          <g>
            <path class="cls-28" d="M377.54,81.64c12.22-2.7,5.72,46.92-.14,49.97-3.52,1.84-17.81,.25-27.48-5.34l1.02-2.54s13.58-.74,19.08-1.53c3.56-.51,3.17-39.59,7.51-40.55Z"/>
            <path class="cls-39" d="M371.47,111.08l12.72,1.36s5.06-28.16-5.14-30.96c-6.42-2.29-7.58,29.6-7.58,29.6Z"/>
            <polygon class="cls-35" points="371.34 103.62 370.83 111.25 384.57 112.78 385.54 105.14 371.34 103.62"/>
            <g>
              <path class="cls-37" d="M375.54,44.5s.59,2.19,0,5.06c-.6,2.88-3.49,8.43,.87,13.11,0,0-1.19-1.69-1.18-6.65,.01-4.96,1.4-5.46,1.81-9.53,.33-3.3-1.49-1.99-1.49-1.99Z"/>
              <path class="cls-37" d="M403.03,26.64c-3.49,2.47-2.13,7.25,1.18,11.91,3.31,4.66,7.31,7.45,10.79,4.97,3.49-2.47,5.14-9.27,1.83-13.93-3.31-4.66-10.32-5.43-13.81-2.96Z"/>
              <path class="cls-56" d="M377.94,51.18s-6.28-11.81-3.97-16.41c6.39-12.71,36.03-13.57,32.77-3.51,9.34-3.56,13.45,29.81-8.01,34.14-20.26,4.33-20.79-14.21-20.79-14.21Z"/>
              <path class="cls-37" d="M413.22,36.39c-.28,7.19-8.03,8.66-11.57,5.58-3.77-3.28-9.42-4.48-14.19-5.49-4.76-1-4.96-3.68-4.96-3.68,0,0-3.09,4.96-6.96,5.75-.98,.2-1.62,.09-2.03-.18,.47,5.37,4.42,12.82,4.42,12.82,0,0,2.12,17.45,20.79,14.21,14.94-3.01,17.48-20.1,14.49-29Z"/>
              <g>
                <g>
                  <path class="cls-28" d="M382.43,198.52s.5,15.89,.48,24.37c-.02,8.47,1.32,13.25,3.4,33.38,2.08,20.13,1.15,33.12,1.15,33.12l2.75,.34s9.85-33.43,8.28-44.56c-1.57-11.13-6.58-22.79-6.58-22.79l5.34-24.36-14.83,.5Z"/>
                  <path class="cls-33" d="M382.43,198.52s.5,15.89,.48,24.37c0,2.04,.07,3.87,.22,5.75,3.25-.75,7.16,.17,11.51,1.01-1.46-4.34-2.72-7.28-2.72-7.28l5.34-24.36-14.83,.5Z"/>
                  <path class="cls-14" d="M390.75,198.53s.53,16.85,1.08,24.37c.62,8.45,2.6,11.81,5.17,31.94,2.57,20.13,3.86,35.12,3.86,35.12l2.74-.21s6.46-33.44,4.62-44.57c-1.84-11.13-7.4-22.79-7.4-22.79l4.75-24.36-14.82,.5Z"/>
                  <path class="cls-28" d="M400.82,222.39l4.75-24.36-14.82,.5s.53,16.85,1.08,24.37c.19,2.54,.5,4.62,.91,6.82,3.14-1.27,6.72-2.02,10.53-1.59-1.36-3.48-2.44-5.75-2.44-5.75Z"/>
                </g>
                <g>
                  <path class="cls-3" d="M384.46,301.76s-4.07,1.72-4.07,2.55c0,.83,5.16,.93,8.43,.61,1.5-.15,1.21-5.04,2.35-7.74,1.14-2.71,2.49-2.7-.96-7.45l-2.13,9.63-3.62,2.4Z"/>
                  <path class="cls-28" d="M387.46,289.38s-.8,3.7-1.37,6.32c-.65,3.03-.95,4.7-1.63,6.06,0,0,2.11,.91,3.61,.31,1.51-.6,1.29-4.21,3.55-8.28,.81-1.46-1.57-4.3-1.57-4.3l-2.6-.12Z"/>
                  <path class="cls-3" d="M390.21,289.72s.26,1.9,.03,3.61c-.23,1.68-.88,10.39-5.77,8.42,0,0,1.72,3.25,3.61,2.19s2.12-5.11,2.88-7.22c.76-2.11,2.79-2.48-.74-7.01Z"/>
                  <path class="cls-3" d="M392.31,294.76s-.79,4.29-.7,10.16h-.68s.01-4.4-.55-6.78l1.93-3.39Z"/>
                </g>
                <g>
                  <path class="cls-3" d="M397.97,301.78s-4.07,1.72-4.07,2.55c0,.83,5.16,.93,8.43,.61,1.5-.15,1.21-5.04,2.35-7.74,1.14-2.71,2.49-2.7-.96-7.45l-2.13,9.63-3.62,2.4Z"/>
                  <path class="cls-14" d="M400.97,289.4s-.8,3.7-1.37,6.32c-.65,3.03-.95,4.7-1.63,6.06,0,0,2.11,.91,3.61,.31,1.51-.6,1.29-4.21,3.55-8.28,.81-1.46-1.57-4.3-1.57-4.3l-2.6-.12Z"/>
                  <path class="cls-3" d="M403.72,289.75s.26,1.9,.03,3.61c-.23,1.68-.88,10.39-5.77,8.42,0,0,1.72,3.25,3.61,2.19,1.89-1.05,2.12-5.11,2.88-7.22,.76-2.11,2.79-2.48-.74-7.01Z"/>
                  <path class="cls-3" d="M405.81,294.79s-.8,4.29-.7,10.16h-.68s.01-4.41-.55-6.78l1.93-3.39Z"/>
                </g>
              </g>
              <path class="cls-29" d="M383.53,120.09c4.28-5.62-8.9-15.77-9.35-18.96s2.58-10.18,2.58-10.18l.78-9.32c15.03-6.11,22.45-4.74,35.63,1.2,0,0,1.58,5.46-2.08,15.92-3.59,10.26-13.57,16.07-10.65,21.36,0,0-15.56,8.5-16.91-.03Z"/>
              <path class="cls-11" d="M383.53,120.09c-6.16,9.66-9.93,19.09-12.18,26.59,14.03,4.82,28.84,4.42,44.24,.08-3.27-9.11-9.16-19.68-14.74-26.18-.04-.04-.09-.1-.12-.14-.07-.08-.12-.14-.17-.19-.05-.05-.12-.13-.12-.13-2.91-5.29,7.06-11.1,10.65-21.36,3.66-10.46,2.08-15.92,2.08-15.92-13.18-5.94-20.61-7.32-35.63-1.2l-.78,9.32s-3.03,6.99-2.58,10.18c.45,3.19,13.63,13.34,9.35,18.96Z"/>
              <path class="cls-39" d="M415.59,146.77c-3.27-9.11-9.16-19.68-14.74-26.18-.04-.04-.09-.1-.12-.14-.07-.08-.12-.14-.17-.19-.05-.05-.12-.13-.12-.13-2.91-5.3,7.06-11.1,10.65-21.36,.03-.08,.05-.15,.07-.22-.91,.23-6.98,5.53-23.06,5.15-9.93-.23-13.97-2.56-13.97-2.56,.45,3.19,13.47,13.34,9.2,18.96-6.16,9.66-9.57,19.09-11.82,26.59,8.57,2.94,28.55,2.28,41.98,.64,.7-.18,1.39-.36,2.09-.56Z"/>
              <path class="cls-32" d="M384.14,79.19s1.78,3.82,4.83,4.9l.89,10.62,5.6-10.43s5.98-.89,8.78-4.96c0,0-12.66-3.31-20.1-.13Z"/>
              <path class="cls-32" d="M394.91,81.77c-.34,.72-8.4,18.28-8.81,21.68-.24,1.99,1.78,5.73,3.74,9.34,1.37,2.53,2.79,5.15,2.78,6.2,0,.84-.7,3.44-1.57,6.74-1.62,6.08-3.97,14.96-5.1,23.74,.24,.03,.47,.05,.71,.08,1.13-8.74,3.47-17.59,5.08-23.64,.96-3.61,1.6-5.99,1.6-6.92,0-1.23-1.33-3.69-2.87-6.54-1.81-3.35-3.87-7.14-3.65-8.91,.39-3.28,8.66-21.28,8.74-21.46l-.65-.31Z"/>
              <path class="cls-33" d="M402.42,57s-3.61,13.45-.55,22.78l-9.47,1.62-5.32-1.52s1.8-5.16,1.33-12.99c-.34-5.74,14.01-9.88,14.01-9.88Z"/>
              <path class="cls-1" d="M401.7,79.35c-2.82-9.31,.67-22.35,.67-22.35,0,0-14.1,4.14-14.01,9.88,.02,1.54,.2,4.47,0,6.39,1.78,1.33,5.86,3.89,13.34,6.08Z"/>
              <path class="cls-11" d="M371.34,146.69s-8.87,22.74-8.19,74.4c0,0,29.51,6.7,62.76,.07-1.36-49.69-10.33-74.39-10.33-74.39-16.65,3.92-31.62,4.35-44.24-.08Z"/>
              <path class="cls-14" d="M385.11,71.41c-1.35-.27-3.2-2.93-4.42-4.34-2.6-2.98-4.93-6.54-2.55-13.68,0,0-4.04-19.24,11.51-19.55,15.55-.32,16.76,15.18,12.39,26.38-4.37,11.2-15.64,11.45-16.93,11.2Z"/>
              <g>
                <path class="cls-14" d="M406.67,58.15c-.08,1.82-1.62,3.22-3.43,3.14-1.81-.08-3.22-1.62-3.14-3.43,.08-1.82,1.62-3.22,3.43-3.14,1.81,.08,3.22,1.62,3.14,3.43Z"/>
                <path class="cls-33" d="M403.48,55.87c-.48-.02-.9,.15-1.27,.39,.18-.05,.37-.1,.57-.09,1.01,.05,1.79,.9,1.74,1.91-.05,1.01-.9,1.79-1.91,1.74-.16,0-.29-.07-.43-.11,.32,.23,.68,.4,1.11,.41,1.18,.05,2.17-.86,2.23-2.04,.05-1.18-.86-2.17-2.04-2.23Z"/>
              </g>
              <path class="cls-56" d="M396.46,35.91s4.2,1.7,4.87,7.53c.67,5.83-1.04,11.7,.28,12.03,.68,.17,2.4-1.02,2.4-1.02,0,0,6.54-18.15-4.42-20.56l-3.14,2.02Z"/>
              <path class="cls-56" d="M381.01,33.87s.52,3.09,5.07,4.3c10.52,2.8,13.8,3.2,16.46,12.14,0,0,2.29-9.84-3.36-15.07-3.34-3.09-9.6-5.67-18.16-1.38Z"/>
              <path class="cls-37" d="M387.47,36.48c-3.75-.79-4.66-2.6-4.88-3.34-.15,.06-.3,.14-.45,.21-.22,.31-.51,.7-.91,1.18,.42,.97,1.59,2.78,4.84,3.64,10.52,2.8,13.8,3.2,16.46,12.14,0,0,.83-3.6,.24-7.6-.4-.21-.78-.45-1.12-.74-3.77-3.28-9.42-4.48-14.19-5.49Z"/>
              <path class="cls-37" d="M401.66,41.97c-.23-.2-.5-.38-.75-.57,.19,.62,.33,1.29,.42,2.04,.67,5.83-1.04,11.7,.28,12.03,.68,.17,2.4-1.02,2.4-1.02,0,0,2-5.58,1.93-10.97-1.6-.02-3.16-.53-4.28-1.51Z"/>
              <path class="cls-37" d="M392.63,40.07s5.45,.41,6.74,6.46c1.29,6.06-1.32,11.92-1.77,16.12-.45,4.2,2.52,6.87,2.52,6.87,0,0-1.15-3.61-1.08-6.77,.11-4.7,1.01-8.27,2.41-12.14,2.99-5.78-.47-12.48-8.82-10.54Z"/>
              <polygon class="cls-33" points="389.87 83.6 390.38 91.91 394.96 83.6 396.06 79.87 389.45 78.94 389.87 83.6"/>
              <path class="cls-40" d="M394.96,83.6v-6.28c2.14-.67,4.26-1.81,6.36-3.31l2.54,5s-3.39,3.9-8.9,4.58Z"/>
              <path class="cls-39" d="M425.92,221.16c-1.36-49.69-10.33-74.39-10.33-74.39-4.18,.98-8.25,1.75-12.2,2.27,4.81,27.09,2.26,66.27,2.26,66.27-13.49,4.58-35.58,3.07-42.49,1.02v4.75s29.51,6.7,62.76,.07Z"/>
              <path class="cls-40" d="M389.87,83.6v-6.28c-.99-.99-1.83-2.04-2.12-3.31l-3.05,4.83s1.19,3.22,5.17,4.75Z"/>
              <path class="cls-32" d="M383.79,120.28s-8.31,12.52-12.54,27.23c-4.23,14.71-5.9,26.25-2.77,28.7,3.13,2.45,35.48,5.25,46.62,0,3.49-1.5,1.74-35.68-14.87-55.93h-16.44Z"/>
              <path class="cls-40" d="M383.36,120.28s-8.1,12.14-12.22,26.41c-4.12,14.26-5.75,25.46-2.7,27.83,3.05,2.37,34.57,5.09,45.42,0,3.4-1.46,1.7-34.6-14.48-54.24h-16.02Z"/>
              <path class="cls-35" d="M400.91,120.28c-6.01,.99-11.87,1.05-17.56,0v-4.83c5.74,.69,11.6,.67,17.56,0v4.83Z"/>
            </g>
            <path class="cls-14" d="M413.19,83.43c10.65,2.64,2.88,47.41-1.7,50.72-3.94,2.85-25.19,.25-43-7.89l1.02-2.54s33.08,1.78,35.11,0c1.62-1.42,3.08-41.65,8.57-40.29Z"/>
            <g>
              <path class="cls-18" d="M385.48,110.91c-.9-.62-41.35-.48-42.04,0-.69,.48-.83,4.76,0,5.59,.83,.83,41.28,.97,42.04,0,.76-.97,.9-4.97,0-5.59Z"/>
              <path class="cls-45" d="M342.89,114.41c.06,.93,.23,1.77,.55,2.09,.83,.83,41.28,.97,42.04,0,.29-.37,.49-1.17,.57-2.05-3.68,.82-40.11,.69-43.16-.04Z"/>
              <path class="cls-43" d="M385.81,110.91c-.42-.62-19.56-.48-19.89,0-.33,.48-.39,4.76,0,5.59,.39,.83,19.53,.97,19.89,0,.36-.97,.42-4.97,0-5.59Z"/>
              <path class="cls-47" d="M378.68,111.57c-1.2-.01-2.48-.02-3.85,0-1.37,.02-2.81,.03-4.32,.22-.76,.1-1.52,.23-2.32,.58-.2,.12-.4,.21-.6,.41-.19,.17-.38,.47-.39,.8v.06s0,.03,0,.03c0,.04-.01-.05,0,.1l.02,.07,.03,.14c.01,.09,.04,.19,.12,.34,.13,.3,.32,.47,.5,.63,.77,.58,1.61,.72,2.41,.84,.81,.11,1.61,.14,2.41,.15,1.59-.01,3.18-.02,4.74-.04,1.56,0,3.1,.05,4.6-.04,.38-.02,.75-.05,1.13-.12,.38-.07,.75-.13,1.15-.34,.1-.08,.21-.12,.3-.26,.1-.15,.17-.2,.16-.55l-.02-.06s-.05-.12-.1-.17c-.11-.14-.13-.12-.2-.17-.11-.06-.21-.11-.3-.14-.38-.13-.72-.19-1.07-.24-1.38-.2-2.67-.25-3.86-.28-2.39-.04-4.37,.04-5.76,.15-1.39,.1-2.17,.19-2.17,.19v.14s.8-.04,2.18-.04c1.38,0,3.36,0,5.72,.13,1.18,.06,2.46,.15,3.78,.37,.32,.06,.66,.13,.94,.24,.04,.01,.07,.03,.1,.05-.02,.01-.04,.03-.06,.04-.5,.26-1.28,.32-1.98,.41-1.46,.14-2.99,.21-4.55,.21-1.56,0-3.14,0-4.71-.13-.78-.06-1.56-.14-2.31-.29-.73-.16-1.5-.35-1.97-.74-.11-.1-.2-.21-.22-.27-.06,.03-.11-.45-.09-.37-.01-.1,.17-.29,.46-.44,.6-.28,1.34-.42,2.05-.55,1.43-.23,2.86-.34,4.21-.4,1.35-.05,2.64-.06,3.82-.02,2.36,.08,4.33,.25,5.7,.4,.79,.1,1.38,.18,1.74,.23,0-.29-.02-.56-.05-.81-.37-.04-.92-.08-1.62-.13-1.39-.11-3.37-.27-5.76-.31Zm5.4,3.12h0s0,0,0,0Z"/>
            </g>
            <g>
              <path class="cls-41" d="M390.28,117.1c-1.1-.76-50.8-.59-51.65,0-.85,.59-1.02,5.85,0,6.87,1.02,1.02,50.72,1.19,51.65,0s1.1-6.11,0-6.87Z"/>
              <path class="cls-48" d="M390.66,117.63c0,1.53-.27,3.17-.76,3.79-.93,1.19-50.63,1.02-51.65,0-.12-.12-.23-.31-.32-.54,.03,1.34,.25,2.63,.7,3.08,1.02,1.02,50.72,1.19,51.65,0,.81-1.03,1.04-4.83,.38-6.34Z"/>
              <path class="cls-31" d="M390.69,117.1c-.52-.76-24.03-.59-24.44,0-.4,.59-.48,5.85,0,6.87,.48,1.02,23.99,1.19,24.44,0,.44-1.19,.52-6.11,0-6.87Z"/>
              <path class="cls-52" d="M385.76,118.36c-1.19-.04-2.54-.08-4-.13-1.47-.02-3.06-.04-4.74-.06-1.69-.02-3.46-.08-5.33,.09-.94,.09-1.89,.21-2.9,.63-.25,.14-.51,.26-.76,.51-.13,.1-.24,.26-.34,.44-.12,.16-.15,.39-.18,.6v.08s-.01,.04-.01,.04c0,.06-.02-.07,.01,.14l.02,.09,.04,.18,.04,.18c.02,.07,.07,.18,.11,.26,.09,.17,.19,.38,.3,.49l.34,.34c.99,.75,2.04,.91,3.04,1.05,1.01,.13,2,.16,2.99,.16,1.98-.01,3.93-.09,5.85-.08,1.93,0,3.82,.11,5.68,.03,.47-.02,.93-.05,1.4-.12,.47-.07,.94-.14,1.47-.43,.15-.11,.28-.16,.42-.35,.07-.1,.14-.17,.18-.3,.02-.06,.04-.12,.05-.19l.02-.1v-.05c.02,.12-.01-.22-.01-.19l-.02-.08s-.08-.18-.14-.26c-.17-.21-.2-.18-.29-.26-.15-.09-.28-.15-.4-.19-.49-.17-.92-.24-1.35-.31-1.72-.25-3.31-.32-4.78-.37-2.95-.05-5.4,.05-7.11,.18-1.71,.12-2.69,.25-2.69,.25l.04,.51s.97-.01,2.68-.04c1.7,0,4.14,0,7.04,.16,1.45,.08,3.03,.17,4.64,.44,.31,.06,.63,.13,.91,.21-.24,.09-.54,.16-.83,.21-.41,.08-.85,.14-1.3,.2-1.79,.2-3.68,.32-5.6,.33-1.92,0-3.88-.02-5.81-.2-.96-.08-1.92-.19-2.83-.38-.89-.19-1.83-.45-2.37-.89-.05-.06-.11-.11-.17-.17-.06-.06-.04-.08-.08-.11-.01-.02-.04-.01-.05-.06l-.03-.18-.03-.17h0s0,0,0,0c-.03-.05,.15-.29,.5-.47,.72-.35,1.62-.57,2.48-.76,3.53-.69,7-.84,9.91-.74,1.46,.05,2.8,.12,3.98,.25,1.18,.12,2.21,.23,3.05,.36,1.07,.16,1.84,.3,2.26,.39,0-.34-.02-.66-.05-.96-.46-.02-1.18-.06-2.15-.1-.86-.04-1.9-.09-3.09-.14Z"/>
            </g>
            <path class="cls-28" d="M406.95,106.85c-.36,3.18-.68,6.25-.97,8.88l8.82,1.63s-2.29,13.74-4.83,15.27c-2.51,1.51-18.25,.41-40.02-5.71,17.49,7.63,37.71,10.01,41.54,7.24,2.28-1.65,5.35-13.59,6.54-25.48l-11.09-1.81Z"/>
            <path class="cls-11" d="M405.39,112.27l12.72,1.36s5.26-27.99-4.94-30.79c-6.93-2.46-7.78,29.43-7.78,29.43Z"/>
            <polygon class="cls-40" points="405.26 105.65 404.75 113.28 418.49 114.81 419.89 106.92 405.26 105.65"/>
            <g>
              <path class="cls-28" d="M352.21,126.35s-7.76-.51-8.78-1.78c-1.02-1.27,8.65-1.27,10.18,.38,1.53,1.65-1.4,1.4-1.4,1.4Z"/>
              <path class="cls-28" d="M349.71,124.14s-.17-1.36-.25-2.46c-.09-1.1,.25-2.71-.34-2.71s-1.02,1.44-1.02,2.63c0,1.19,.09,2.63,.09,2.63l1.53-.09Z"/>
              <path class="cls-28" d="M346.15,124.16s-.12-1.45-.16-2.63c-.05-1.18,.35-2.88-.24-2.9-.59-.02-1.07,1.5-1.11,2.77-.04,1.27-.01,2.8-.01,2.8l1.53-.04Z"/>
              <path class="cls-28" d="M344.43,124.42s-.08-1.12-.11-2.02c-.03-.91,.25-2.22-.16-2.23s-.73,1.16-.78,2.13c-.07,1.25-.01,2.16-.01,2.16l1.07-.03Z"/>
              <path class="cls-28" d="M347.85,124.14c-.08-.25-.17-1.44-.17-2.54,0-1.1,.51-3.39-.08-3.56-.59-.17-1.27,1.61-1.27,3.56v2.97l1.53-.42Z"/>
            </g>
            <g>
              <path class="cls-14" d="M368.5,126.35s-7.76-.51-8.78-1.78c-1.02-1.27,8.65-1.27,10.18,.38,1.53,1.65-1.4,1.4-1.4,1.4Z"/>
              <path class="cls-14" d="M366,124.14s-.17-1.36-.25-2.46c-.09-1.1,.25-2.71-.34-2.71s-1.02,1.44-1.02,2.63c0,1.19,.09,2.63,.09,2.63l1.53-.09Z"/>
              <path class="cls-14" d="M362.43,124.16s-.12-1.45-.16-2.63c-.04-1.18,.35-2.88-.24-2.9-.59-.02-1.07,1.5-1.11,2.77-.04,1.27-.01,2.8-.01,2.8l1.53-.04Z"/>
              <path class="cls-14" d="M360.71,124.42s-.08-1.12-.11-2.02c-.03-.91,.25-2.22-.16-2.23s-.73,1.16-.78,2.13c-.07,1.25-.01,2.16-.01,2.16l1.07-.03Z"/>
              <path class="cls-14" d="M364.13,124.14c-.08-.25-.17-1.44-.17-2.54,0-1.1,.51-3.39-.08-3.56-.59-.17-1.27,1.61-1.27,3.56v2.97l1.53-.42Z"/>
            </g>
          </g>
          <g>
            <path class="cls-51" d="M498.08,35.58s-2.24,14.69-6.87,16.61c-4.63,1.92,.16-21.4,.16-21.4l6.71,4.79Z"/>
            <g>
              <g id="wrist_right" data-name="wrist right">
                <path class="cls-28" d="M460.29,171.68s1.61,6.66,.9,10.02c0,0-.03,1.4,0,2.72,.04,1.35,.28,2.63-.45,2.81-.54,.12-.53-1.13-.72-2.4-.2-1.37,0-2.95-.24-2.94-.22,.02-.16,1.72-.15,3.43,0,1.71,.37,3.64-.39,3.64-.66,0-.86-1.8-.96-3.65-.1-1.75,.06-3.46-.11-3.41-.17,.04-.32,1.69-.38,3.47-.06,1.94,.12,3.86-.71,3.95-.55,.06-.73-2.03-.78-4.01-.04-1.75,.15-3.34,.04-3.39-.13-.06-.34,1.23-.5,2.73-.07,.65,.2,2.85-.62,2.82-.32-.01-.84-1.33-.75-3.25,.18-4.05,1.1-10.67,2.04-12.79,1.74-1.84,3.77,.25,3.77,.25Z"/>
                <path class="cls-14" d="M456.52,171.43s-1.56,3.41-2.16,5.24c-.6,1.83-.68,3.48-.81,4.27-.25,1.44,1.01,1.93,1.67-.82,.42-1.74,.6-1.94,1.03-2.41,.43-.46,4.72-2.07,3.41-5.99-.86-2.56-2.94-1.06-3.13-.3Z"/>
              </g>
              <path class="cls-14" d="M449.1,127.44c.07,23.96,7.16,44.7,7.16,44.7l4.14,.03c.48-6.03,3.7-19.44,3.38-28.41-.32-8.98-.85-12.29-.97-15.5-.13-3.21-13.71-.82-13.71-.82Z"/>
              <path class="cls-28" d="M452.78,159.77l1.26,4.64c.66-3.54,6.21-4.02,7.6-.82l.75-4.82-9.61,1Z"/>
              <path class="cls-35" d="M451.6,158.69l12.16-.36c.45-5.23,.78-10.68,.65-14.29-.32-8.98-1.49-12.57-1.62-15.78-.13-3.21,6.25-18.82,8.16-24.15,1.92-5.32-1.23-30.39-8.17-28.68-9.2,2.26-13.68,33.47-13.7,52.01-.01,12.69,1.21,23.4,2.51,31.25Z"/>
              <path class="cls-12" d="M451.65,160.07c.69,.52,12.57,.39,12.97-.18,.39-.58,1.22-10.37,.64-10.76s-14.91,.55-15.57,1.47c-.66,.92,1.26,8.95,1.95,9.48Z"/>
              <path class="cls-23" d="M465.47,150.54c-1.09-.34-14.94,.64-15.85,1.56,.02,.25,.05,.51,.09,.79,2.95-.74,13.14-1.38,15.75-1.26,0-.4,0-.76,0-1.09Z"/>
            </g>
            <path class="cls-3" d="M467.99,296.47s-2.24,3.11-6.98,4.97c-4.74,1.86-7.65,1.45-7.42,2.69,.22,1.24,18.03,.62,18.01-.83-.02-1.45-.87-3.52-.71-6.83,.16-3.31-2.9,0-2.9,0Z"/>
            <path class="cls-3" d="M495.14,296.47c-.22,4.28-1.44,6.42-1.56,7.66-.12,1.24,11.62,1.38,11.87,0,.36-1.93-6.17-3.39-6.65-7.66-.45-4-3.67,0-3.67,0Z"/>
            <path class="cls-23" d="M508.95,148.55s2.33,23.85-6.05,69.91c0,0,5.36,20.43,5.9,27.4,.64,8.11-6.74,51.93-6.74,51.93h-7.47c-4.28-78.91-10.77-122.02-10.77-122.02h-1.4s-5.12,38.51-5.12,42.69,2.79,22.27,2.79,28.78c0,6.51-6.76,50.55-6.76,50.55h-8.06c-2.72-110.23-3.21-110.23-3.78-149.24h47.44Z"/>
            <path class="cls-24" d="M473.34,297.79h-8.06c-2.72-110.23-3.21-110.23-3.78-149.24h15.71s.41,.17,.41,.17l1.48,23.81,4.71,3.23h-1.4s-5.12,38.51-5.12,42.69,3.98,22.27,4.07,28.78c.08,6.51-8.04,50.55-8.04,50.55Z"/>
            <path class="cls-36" d="M461.51,148.55h47.44s.07,.74,.14,2.17c-3.31,2.03-13.6,7.09-32.35,5.5-6.46-.55-11.37-1.42-15.16-2.38-.02-1.69-.05-3.45-.08-5.29Z"/>
            <path class="cls-40" d="M513.13,74.19l-18.7-6.85c-5.94,.39-12.2,.93-20.4,2.17l-13.17,6.77s0,16.38,.63,36.7c.64,20.32-.75,37.81-.75,37.81,15.68,3.15,33.16,3.55,48.19-2.25,0,0,1.16-1.09,.46-4.34-.7-3.26-4.25-23.02-4.25-23.02,0,0,3.32-24.67,7.97-47Z"/>
            <path class="cls-33" d="M492.49,43.62s-2.33,15.04,.49,24.46c0,0-10.95,5.27-14.14,4.95-3.19-.32-3.98-1.97-3.98-1.97,0,0,1.44-3.66,.97-11.33l16.66-16.11Z"/>
            <path class="cls-1" d="M485.91,71.16c-5.27-2.22-8.69-5.42-10.02-6.83,.02-.52,.03-1.05,.03-1.63l7.68-10.47,8.79-8.5,.07,.14c-.27,1.89-2.09,15.47,.53,24.23,0,0-3.47,1.67-7.07,3.07Z"/>
            <path class="cls-12" d="M478.44,73.11s-.21-4.45-1.12-6.39c-.56-1.2-1.6-3.19-2.08-3.11s-1.92,6.15-1.92,6.15c0,0,.48,3.83,5.11,3.35Z"/>
            <path class="cls-14" d="M490.9,47.46c-.46,3.09-.79,5.16-1.34,6.77-2.09,5.36-8.2,8.37-8.2,8.37-1.77,1.26-7.78,1.07-9.07,.1-1.22-.92-5.71-10.67-6.15-15.12-.27-2.73,.08-5.09,.07-7.03,0-3.74-.39-6.4-.11-10.66,.28-4.2,5.38-6.78,11.71-6.5,14.48,.63,14.23,6.7,13.08,24.09Z"/>
            <path class="cls-49" d="M491.37,41.63l-.51,3.71-1.49,.14s2.21-16.75-1.98-20.96c0,0,6.5-.56,3.98,17.11Z"/>
            <path class="cls-49" d="M491.71,26.6s-1.81,3.06-8.47,.06c-14.09-6.34-16.97,1.58-16.97,1.58,0,0,3.5-17.47,25.45-1.63Z"/>
            <g>
              <path class="cls-14" d="M489.49,45.85c.12,2.09,1.91,3.66,4,3.5,2.09-.16,3.69-1.98,3.57-4.07-.12-2.09-1.91-3.66-4-3.5-2.09,.16-3.69,1.98-3.57,4.07Z"/>
              <path class="cls-33" d="M492.52,47.43c.98-.12,1.68-1.02,1.58-2-.11-.95-.95-1.62-1.9-1.54,.25-.15,.52-.26,.83-.3,1.16-.15,2.2,.67,2.32,1.82,.13,1.15-.71,2.21-1.86,2.36-.55,.07-1.06-.09-1.48-.39,.17,.03,.33,.06,.51,.04Z"/>
            </g>
            <path class="cls-51" d="M491.19,45.32l-1.82,.16s1.44-10.93-.22-17.35c.33,.32,1.82,1.43,2.82,2.14,.34,3.92,.24,7.66-.78,15.05Z"/>
            <path class="cls-12" d="M479.24,73.27s.48-4.63,2.56-6.55c2.08-1.92,9.58-6.31,10.86-6.07,.65,.12,2.24,7.19,2.24,7.19,0,0-3.04,5.75-15.65,5.43Z"/>
            <path class="cls-23" d="M481.79,66.72c2.08-1.92,9.58-6.31,10.86-6.07,.13,.02,.29,.33,.47,.78-1.67,.75-9.65,4.42-10.93,6.56-.95,1.58-1.48,3.88-1.73,5.27-.41,0-.8,.02-1.23,0,0,0,.48-4.63,2.56-6.55Z"/>
            <path class="cls-22" d="M460.75,150.8s.02-.31,.06-.87c2.61,.43,8.9,1.31,18.5,1.67,12.94,.48,21.08-3.35,21.08-4.31,0-.96-3.11-23.24-2.87-27.07,.24-3.83,8.38-33.54,8.38-33.54l3.02,10.04c-2.32,13.72-3.77,24.47-3.77,24.47,0,0,3.55,19.76,4.25,23.02,.7,3.26-.46,4.34-.46,4.34-15.04,5.8-32.52,5.39-48.19,2.25Z"/>
            <path class="cls-23" d="M474.7,64.75c.22-.66,.42-1.12,.55-1.14,.48-.08,1.52,1.92,2.08,3.11,.91,1.94,1.19,6.34,1.23,6.33h1.13s-2.34,1.06-2.34,1.06c0,0-.17-4-.72-5.93-.36-1.26-1.43-2.77-1.93-3.43Z"/>
            <g>
              <path class="cls-23" d="M470.45,83.01c0,1.06,.86,1.92,1.92,1.92s1.92-.86,1.92-1.92c0-1.06-.86-1.92-1.92-1.92s-1.92,.86-1.92,1.92Z"/>
              <path class="cls-23" d="M485.94,83.01c0,1.06,.86,1.92,1.92,1.92s1.92-.86,1.92-1.92-.86-1.92-1.92-1.92-1.92,.86-1.92,1.92Z"/>
              <path class="cls-23" d="M468.86,102.5c0,1.06,.86,1.92,1.92,1.92s1.92-.86,1.92-1.92c0-1.06-.86-1.92-1.92-1.92-1.06,0-1.92,.86-1.92,1.92Z"/>
              <path class="cls-23" d="M484.35,102.5c0,1.06,.86,1.92,1.92,1.92,1.06,0,1.92-.86,1.92-1.92,0-1.06-.86-1.92-1.92-1.92s-1.92,.86-1.92,1.92Z"/>
              <path class="cls-23" d="M469.2,124.69c0,1.06,.86,1.92,1.92,1.92s1.92-.86,1.92-1.92c0-1.06-.86-1.92-1.92-1.92s-1.92,.86-1.92,1.92Z"/>
              <path class="cls-23" d="M484.69,124.69c0,1.06,.86,1.92,1.92,1.92s1.92-.86,1.92-1.92c0-1.06-.86-1.92-1.92-1.92-1.06,0-1.92,.86-1.92,1.92Z"/>
              <path class="cls-23" d="M470.22,144.65c0,1.06,.86,1.92,1.92,1.92,1.06,0,1.92-.86,1.92-1.92,0-1.06-.86-1.92-1.92-1.92s-1.92,.86-1.92,1.92Z"/>
              <path class="cls-23" d="M485.71,144.65c0,1.06,.86,1.92,1.92,1.92s1.92-.86,1.92-1.92-.86-1.92-1.92-1.92c-1.06,0-1.92,.86-1.92,1.92Z"/>
            </g>
            <path class="cls-23" d="M466,76.95l13.23-3.75,1.46-4.47c.27-.04,.43-.1,.55-.18,.25-.03,.5-.06,.74-.09-1.11,2.41-1.69,5.72-1.69,5.72l-13.12,3.41c-1.07,21.08,.08,42.8-.49,74.26-.39-.06-.79-.1-1.18-.16,1.12-23.48-.64-45.67,.5-74.74Z"/>
            <path class="cls-23" d="M461.58,153.85c3.79,.97,8.7,1.84,15.16,2.38,18.75,1.59,29.04-3.47,32.35-5.5,0,0,7.36,12.13,4.96,119.93,0,0-27.79,4.31-56.05,0-1.28-71.06,3.58-116.81,3.58-116.81Z"/>
            <path class="cls-9" d="M477.16,276.34c-.88-.51-2.99-1.53-6.34-1.97-2.68-.35-4.8,.12-6.1,.58-.05-1.87-.09-3.71-.14-5.5l13.53,1.35c-.31,1.85-.63,3.71-.94,5.54Z"/>
            <path class="cls-9" d="M499.68,274.49c-3.09,.12-5.38,1.3-6.35,1.89-.13-2.07-.27-4.12-.4-6.13l13.52-.81c-.3,2.13-.61,4.26-.92,6.36-.98-.56-2.99-1.43-5.85-1.32Z"/>
            <path class="cls-36" d="M458,270.65c-.02-1.22-.04-2.41-.06-3.61,29.17,1.1,39.98-2.29,39.98-2.29,.86-55.75-2.67-100.61-3.39-109.05,7.77-1.28,12.51-3.7,14.55-4.96,0,0,7.36,12.13,4.96,119.93,0,0-27.79,4.31-56.05,0Z"/>
            <g>
              <g id="wrist_left" data-name="wrist left">
                <path class="cls-28" d="M511.06,172.32s-1.14,1.82-1.56,3.39c-.41,1.53-1.03,4.58-1.37,5.69-.34,1.1-.46,1.43-.36,1.59,.18,.27,1.07,.5,1.61-1.17,.54-1.67,1.15-4.32,1.15-4.32l.53-5.17Z"/>
                <path class="cls-14" d="M514.93,173.2s1.18,5.39,1.13,10.15c-.04,4.76-.41,5.34-.88,5.27-.47-.07-.48-1.06-.37-2.54,0,0-.21-2.46-.37-2.48-.15-.02-.23,2.57-.22,3.04,0,.47-.09,3.72-.83,3.68-.71-.04-.63-2.36-.58-3.62,0,0-.17-3.14-.39-3.13-.22,0-.23,2.81-.25,3.28-.02,.47-.06,3.94-.75,3.92s-.88-.85-.76-3.8c0,0,.24-3.56,.02-3.54-.62-.06-.22,6.06-1.29,6.01-.54-.02-.55-1.4-.48-3.19,.07-1.83,.07-2.41,.22-3.7s1.72-9.72,1.72-9.72c0,0,2.22-1.65,4.09,.36Z"/>
              </g>
              <path class="cls-14" d="M524.77,129c-1.5,23.91-9.82,44.2-9.82,44.2l-4.13-.22c-.12-6.05-2.53-19.62-1.68-28.56,.85-8.94,1.58-12.22,1.9-15.41,.32-3.19,13.73,0,13.73,0Z"/>
              <path class="cls-28" d="M518.9,161.6l-1.29,4.04c-.51-3.56-5.99-3.71-7.45-.57l-.54-4.85,9.28,1.38Z"/>
              <path class="cls-40" d="M520.41,160.05l-12.12-1.09c-.13-5.24-.14-10.71,.2-14.31,.85-8.94,2.24-12.46,2.56-15.65,.32-3.19-6.9-24.43-8.5-29.86-1.6-5.43,3.79-27.07,10.61-24.95,9.05,2.8,12.7,36.31,11.62,54.81-.75,12.67-2.6,23.28-4.37,31.04Z"/>
              <path class="cls-35" d="M517.54,155.97c1.77-7.76,3.63-18.37,4.37-31.04,.86-14.65-1.26-38.7-6.67-49.47,7.52,6.85,10.54,36.53,9.54,53.54-.75,12.67-2.6,23.28-4.37,31.04l-12.12-1.09c-.03-1.27-.06-2.55-.07-3.82l9.31,.83Z"/>
              <path class="cls-12" d="M520.28,161.42c-.72,.48-12.58-.36-12.94-.96-.36-.6-.6-10.42,0-10.78,.6-.36,14.85,1.44,15.45,2.4,.6,.96-1.8,8.86-2.52,9.34Z"/>
              <path class="cls-23" d="M507.06,151.11c1.1-.28,14.88,1.47,15.74,2.44-.04,.24-.08,.51-.14,.79-2.9-.9-13.04-2.11-15.66-2.14,.01-.4,.03-.76,.06-1.09Z"/>
              <path class="cls-23" d="M519.5,155.73c0,.36,.3,.66,.66,.66s.66-.3,.66-.66c0-.36-.3-.66-.66-.66s-.66,.3-.66,.66Z"/>
              <path class="cls-23" d="M518.96,158.37c0,.36,.3,.66,.66,.66s.66-.3,.66-.66c0-.36-.3-.66-.66-.66s-.66,.3-.66,.66Z"/>
            </g>
            <g>
              <path class="cls-40" d="M497.64,38.3s-2.24-9.39-17.85-11.02c-11.5-1.2-13.81,3.67-13.81,3.67l1.28-26.35c5.78-8.56,30.39-4,34.1,3.99-.58,10.86-1.75,20.86-3.71,29.7Z"/>
              <path class="cls-12" d="M465.98,30.95l.28-5.83c2.51-2.16,7.21-4.42,15.21-3.23,11.22,1.67,16.1,7.43,17.4,10.09-.37,2.17-.78,4.28-1.23,6.32,0,0-2.24-9.39-17.85-11.02-11.5-1.2-13.81,3.67-13.81,3.67Z"/>
              <path class="cls-35" d="M491.24,1.81c4.83,1.54,8.8,3.94,10.12,6.79-.58,10.86-1.75,20.86-3.71,29.7,0,0-1.25-5.2-8.31-8.53,1.27-10.35,1.76-23.05,1.91-27.96Z"/>
              <path class="cls-40" d="M489.92,24.3c5.37,2.43,8.05,5.81,8.96,7.68-.37,2.17-.78,4.28-1.23,6.32,0,0-1.25-5.2-8.31-8.53,.22-1.77,.41-3.61,.59-5.47Z"/>
              <g>
                <path class="cls-35" d="M485.39,20.09c-.96,.14-.47-15.75-.29-19.7,.91,.13,1.82,.3,2.72,.49-.47,5.12-1.55,19.08-2.43,19.2Z"/>
                <path class="cls-35" d="M476.56,19.01c-.93,.13-.47-14.46-.39-18.79,.82-.1,1.66-.17,2.52-.2-.21,4.27-1.2,18.86-2.13,18.99Z"/>
                <path class="cls-35" d="M469.02,20.81c-.75,.12-.16-12.76-.08-17.93,0,0,1.12-.88,2.19-1.34-.17,4.04-1.27,19.13-2.11,19.27Z"/>
              </g>
            </g>
          </g>
          <g>
            <g>
              <polygon class="cls-14" points="119.37 85.76 116.82 78.42 114.74 79.53 115.54 87.68 119.37 85.76"/>
              <path class="cls-28" d="M102.92,78.43c0,.78,11.74,3.42,13.9,1.1,.57-.59,.13-1.29-1.21-2.25-1.34-.95-12.69,.37-12.69,1.15Z"/>
            </g>
            <path class="cls-35" d="M146.67,81.64c-4.4,2.66-11.88,31.4-13.56,31.64-1.68,.24-6.71-12.46-13.17-28.03l-5.51,2.87s5.99,38.81,19.64,38.81c8.63,0,19.16-27.07,19.16-27.07l-6.56-18.23Z"/>
            <path class="cls-37" d="M178.53,51.05c-3.78-1.99-7.43,1.39-10.08,6.45-2.66,5.06-3.33,9.89,.46,11.88,3.78,1.99,10.59,.38,13.25-4.68,2.66-5.06,.16-11.66-3.62-13.65Z"/>
            <path class="cls-56" d="M147.07,51.18s-6.28-11.81-3.97-16.41c6.39-12.71,36.03-13.57,32.77-3.51,9.34-3.56,13.45,29.81-8.01,34.14-20.26,4.33-20.79-14.21-20.79-14.21Z"/>
            <path class="cls-37" d="M182.35,36.39c-.28,7.19-8.03,8.66-11.57,5.58-3.77-3.28-9.42-4.48-14.19-5.49-4.76-1-4.96-3.68-4.96-3.68,0,0-3.09,4.96-6.96,5.75-.98,.2-1.62,.09-2.03-.18,.47,5.37,4.42,12.82,4.42,12.82,0,0,2.12,17.45,20.79,14.21,14.94-3.01,17.48-20.1,14.49-29Z"/>
            <g>
              <path class="cls-28" d="M150.98,198.52s.5,15.89,.48,24.37c-.02,8.47,1.32,13.25,3.4,33.38,2.08,20.13,1.15,33.12,1.15,33.12l2.75,.34s9.85-33.43,8.28-44.56c-1.57-11.13-6.58-22.79-6.58-22.79l5.34-24.36-14.83,.5Z"/>
              <path class="cls-14" d="M159.3,198.53s.53,16.85,1.08,24.37c.62,8.45,2.6,11.81,5.17,31.94,2.57,20.13,3.86,35.12,3.86,35.12l2.74-.21s6.46-33.44,4.62-44.57c-1.84-11.13-7.4-22.79-7.4-22.79l4.75-24.36-14.82,.5Z"/>
              <g>
                <path class="cls-3" d="M153.01,301.76s-4.07,1.72-4.07,2.55c0,.83,5.16,.93,8.43,.61,1.51-.15,1.21-5.04,2.35-7.74,1.14-2.71,2.49-2.7-.96-7.45l-2.13,9.63-3.62,2.4Z"/>
                <path class="cls-28" d="M156.01,289.38s-.8,3.7-1.37,6.32c-.65,3.03-.95,4.7-1.63,6.06,0,0,2.11,.91,3.61,.31,1.51-.6,1.29-4.21,3.55-8.28,.81-1.46-1.57-4.3-1.57-4.3l-2.6-.12Z"/>
                <path class="cls-3" d="M158.76,289.72s.26,1.9,.03,3.61c-.23,1.68-.88,10.39-5.77,8.42,0,0,1.72,3.25,3.61,2.19,1.89-1.05,2.12-5.11,2.88-7.22,.76-2.11,2.79-2.48-.74-7.01Z"/>
                <path class="cls-3" d="M160.86,294.76s-.8,4.29-.7,10.16h-.68s.01-4.41-.55-6.78l1.93-3.39Z"/>
              </g>
              <g>
                <path class="cls-3" d="M166.52,301.78s-4.07,1.72-4.07,2.55c0,.83,5.16,.93,8.43,.61,1.5-.15,1.21-5.04,2.35-7.74,1.14-2.71,2.49-2.7-.96-7.45l-2.13,9.63-3.62,2.4Z"/>
                <path class="cls-14" d="M169.52,289.4s-.8,3.7-1.37,6.32c-.65,3.03-.95,4.7-1.63,6.06,0,0,2.11,.91,3.61,.31,1.51-.6,1.29-4.21,3.55-8.28,.81-1.46-1.57-4.3-1.57-4.3l-2.6-.12Z"/>
                <path class="cls-3" d="M172.27,289.75s.26,1.9,.03,3.61c-.23,1.68-.88,10.39-5.77,8.42,0,0,1.72,3.25,3.61,2.19,1.89-1.05,2.12-5.11,2.88-7.22s2.79-2.48-.74-7.01Z"/>
                <path class="cls-3" d="M174.36,294.79s-.79,4.29-.7,10.17h-.68s0-4.41-.55-6.78l1.93-3.39Z"/>
              </g>
              <path class="cls-28" d="M167.06,267.28c1.53-.76,4.88-1.9,8.68-.03,.31-2.43,.59-4.88,.81-7.25l-10.15,1.76c.23,1.92,.45,3.75,.65,5.52Z"/>
              <path class="cls-33" d="M155.15,259.3c.25,2.75,.45,5.35,.6,7.78,1.01-.61,3.84-1.74,8.7,.23,.58-2.69,1.11-5.4,1.56-8h-10.86Z"/>
            </g>
            <path class="cls-40" d="M169.97,120.59s-.09-.11-.12-.14c-.07-.08-.12-.14-.17-.19-.05-.05-.12-.13-.12-.13-2.91-5.3,7.06-11.1,10.65-21.36,3.66-10.46,2.08-15.92,2.08-15.92-13.18-5.94-20.61-7.32-35.63-1.2l-.78,9.32s-3.03,6.99-2.58,10.18c.45,3.19,13.63,13.34,9.35,18.96l17.32,.5Z"/>
            <path class="cls-22" d="M169.97,120.59s-.09-.1-.12-.14c-.07-.08-.12-.14-.17-.19-.05-.05-.12-.13-.12-.13-2.91-5.29,7.06-11.1,10.65-21.36,.03-.08,.05-.15,.07-.22-.91,.23-6.98,5.53-23.06,5.15-9.93-.23-13.97-2.56-13.97-2.56,.45,3.19,13.47,13.34,9.2,18.96l17.51,.5Z"/>
            <path class="cls-38" d="M153.27,79.19s1.78,3.82,4.83,4.9l.89,10.62,5.6-10.43s5.98-.89,8.78-4.96c0,0-12.66-3.31-20.1-.13Z"/>
            <path class="cls-38" d="M164.03,81.77c-.34,.72-8.4,18.28-8.81,21.68-.24,1.99,1.78,5.73,3.74,9.34,1.37,2.53,2.79,5.15,2.79,6.2,0,.84,.71,.93,.72,0,0-1.23-1.33-3.69-2.87-6.54-1.81-3.35-3.87-7.14-3.65-8.91,.39-3.28,8.66-21.28,8.74-21.46l-.65-.31Z"/>
            <path class="cls-33" d="M171.54,57s-3.61,13.45-.55,22.78l-9.47,1.62-5.32-1.52s1.8-5.16,1.33-12.99c-.34-5.74,14.01-9.88,14.01-9.88Z"/>
            <path class="cls-1" d="M170.83,79.35c-2.82-9.31,.67-22.35,.67-22.35,0,0-14.1,4.14-14.01,9.88,.02,1.54,.2,4.47,0,6.39,1.78,1.33,5.86,3.89,13.34,6.08Z"/>
            <path class="cls-23" d="M169.97,120.59l-17.32-.5c-16.67,33.18-19.37,112.92-19.03,139.47,0,0,29.52,6.7,62.76,.07-.05-115.46-26.42-139.04-26.42-139.04Z"/>
            <path class="cls-14" d="M154.24,71.41c-1.35-.27-3.2-2.93-4.42-4.34-2.6-2.98-4.93-6.54-2.55-13.68,0,0-4.04-19.24,11.51-19.55,15.55-.32,16.76,15.18,12.39,26.38-4.37,11.2-15.64,11.46-16.93,11.2Z"/>
            <g>
              <path class="cls-14" d="M175.8,58.15c-.08,1.81-1.62,3.22-3.43,3.14-1.82-.08-3.22-1.62-3.14-3.43,.08-1.81,1.62-3.22,3.43-3.14,1.82,.08,3.22,1.62,3.14,3.43Z"/>
              <path class="cls-33" d="M172.61,55.87c-.48-.02-.9,.15-1.27,.39,.18-.05,.37-.1,.57-.09,1.01,.05,1.79,.9,1.74,1.91-.05,1.01-.9,1.79-1.91,1.74-.16,0-.29-.06-.43-.11,.32,.23,.68,.4,1.11,.41,1.18,.05,2.17-.86,2.23-2.04,.05-1.18-.86-2.17-2.04-2.23Z"/>
            </g>
            <path class="cls-56" d="M165.58,35.91s4.2,1.7,4.87,7.53c.67,5.83-1.04,11.7,.28,12.03,.68,.17,2.4-1.02,2.4-1.02,0,0,6.54-18.15-4.42-20.56l-3.14,2.02Z"/>
            <path class="cls-56" d="M150.13,33.87s.52,3.09,5.07,4.3c10.52,2.8,13.8,3.2,16.46,12.14,0,0,2.29-9.84-3.36-15.07-3.34-3.09-9.6-5.67-18.16-1.38Z"/>
            <path class="cls-37" d="M156.6,36.48c-3.75-.79-4.66-2.6-4.88-3.34-.15,.06-.3,.14-.45,.21-.22,.31-.51,.7-.91,1.18,.42,.97,1.59,2.78,4.84,3.64,10.52,2.8,13.8,3.2,16.46,12.14,0,0,.83-3.6,.24-7.6-.4-.21-.78-.45-1.12-.74-3.77-3.28-9.42-4.48-14.19-5.49Z"/>
            <path class="cls-37" d="M170.78,41.97c-.23-.2-.5-.38-.75-.57,.19,.62,.33,1.29,.42,2.04,.67,5.83-1.04,11.7,.28,12.03,.68,.17,2.4-1.02,2.4-1.02,0,0,2-5.58,1.93-10.97-1.6-.02-3.16-.53-4.28-1.51Z"/>
            <polygon class="cls-33" points="159 83.6 159.51 91.91 164.09 83.6 165.19 79.87 158.57 78.94 159 83.6"/>
            <path class="cls-40" d="M164.09,83.6v-6.28c2.14-.67,4.26-1.81,6.36-3.31l2.54,5s-3.39,3.9-8.91,4.58Z"/>
            <path class="cls-36" d="M196.39,259.63c-.53-116.9-26.54-139.18-26.54-139.18l-17.37-.17c.66,2.73,12.32,3.93,12.32,3.93,11.34,40.56,11.31,129.58,11.31,129.58-13.49,4.58-35.58,3.07-42.49,1.02v4.75s29.51,6.7,62.76,.07Z"/>
            <path class="cls-40" d="M159,83.6v-6.28c-.99-.99-1.83-2.04-2.12-3.31l-3.05,4.83s1.19,3.22,5.17,4.75Z"/>
            <path class="cls-23" d="M170.04,120.59c-6.01,.99-11.87,.73-17.56-.31v-4.83c5.74,.69,11.6,.67,17.56,0v5.15Z"/>
            <g>
              <g id="wrist_left-2" data-name="wrist left">
                <path class="cls-28" d="M180.49,166.75s-.97,1.54-1.32,2.88c-.35,1.3-.87,3.89-1.17,4.83-.29,.94-.39,1.21-.31,1.35,.15,.23,.91,.42,1.37-.99,.46-1.42,.98-3.67,.98-3.67l.45-4.39Z"/>
                <path class="cls-14" d="M183.78,167.5s1,4.58,.96,8.62c-.04,4.04-.35,4.54-.75,4.48s-.41-.9-.31-2.16c0,0-.18-2.09-.31-2.11-.13-.02-.19,2.18-.19,2.58,0,.4-.08,3.16-.71,3.13-.6-.03-.53-2-.49-3.08,0,0-.14-2.66-.33-2.66s-.2,2.39-.21,2.79c-.02,.4-.05,3.35-.64,3.33-.59-.02-.75-.72-.65-3.23,0,0,.2-3.02,.02-3-.52-.05-.18,5.14-1.1,5.11-.46-.02-.47-1.19-.41-2.71,.06-1.56,.06-2.05,.19-3.14,.49-4.25,1.46-8.26,1.46-8.26,0,0,1.89-1.4,3.47,.31Z"/>
                <polygon class="cls-14" points="180.3 167.19 180.45 162.41 184.69 162.89 183.81 168 180.3 167.19"/>
              </g>
              <path class="cls-40" d="M182.3,82.84c6.69,2.45,6.93,30.73,7.34,45.37,.48,17.25-4.47,37.87-4.47,37.87l-5.43-.32s-.98-30.65-1.38-38.34c-.87-16.61-7.16-48.64,3.95-44.59Z"/>
              <path class="cls-22" d="M189.64,128.21c-.38-13.77-.62-39.59-6.21-44.66,3.84,8.61,3.81,30.89,4.01,43.47,.27,16.96-4.43,37.06-4.87,38.92l2.6,.15s4.95-20.63,4.47-37.87Z"/>
            </g>
            <g>
              <g>
                <polygon class="cls-10" points="86.05 76.51 85.63 75.8 136.41 75.8 135.94 76.51 86.05 76.51"/>
                <ellipse class="cls-10" cx="110.99" cy="76.51" rx="24.94" ry="2.24"/>
                <path class="cls-42" d="M140.82,74.82c0,.59-13.35,2.68-29.83,2.68s-29.83-2.18-29.83-2.68,13.35-2.68,29.83-2.68,29.83,2.08,29.83,2.68Z"/>
                <path class="cls-10" d="M135.03,74.82c0,.45-10.76,2.03-24.03,2.03s-24.03-1.66-24.03-2.03,10.76-2.03,24.03-2.03,24.03,1.58,24.03,2.03Z"/>
                <path class="cls-30" d="M140.66,74.69c-1.56,.72-14.25,2.54-29.66,2.54s-27.89-1.88-29.62-2.54c-.13,.05-.21,.1-.21,.13,0,.5,13.35,2.68,29.83,2.68s29.83-2.08,29.83-2.68c0-.04-.06-.08-.16-.13Z"/>
              </g>
              <g>
                <g>
                  <g class="cls-19">
                    <path class="cls-17" d="M111.39,60.7s4.97-1.51,5.32-5.34c.14-1.56,.04-3.17-.18-4.7l-.06-.09h-10.39c-.24,1.52-.34,3.12-.15,4.6,.55,4.2,5.45,5.53,5.45,5.53Z"/>
                  </g>
                  <path class="cls-2" d="M114.92,43.35h-7.03s-3.25,7.14-2.13,12.36c.86,4.03,5.43,5.44,5.43,5.44v12.41l-3.54,1.37h7.76l-3.76-1.37v-12.41s4.67-1.6,5.33-5.27c.96-5.32-2.06-12.53-2.06-12.53Zm1.79,12.01c-.35,3.83-5.32,5.34-5.32,5.34,0,0-4.89-1.33-5.45-5.53-.66-5.02,2.06-11.41,2.06-11.41h6.77s2.43,6.2,1.94,11.59Z"/>
                  <path class="cls-20" d="M108.16,44.43h6.46s-3.33,4.02-6.46,0Z"/>
                  <path class="cls-6" d="M111.31,56.15c-1.92,0-3.6,.41-4.65,1.03,1.5,2.6,4.72,3.52,4.72,3.52,0,0,3.26-1.02,4.68-3.46-1.03-.66-2.78-1.09-4.76-1.09Z"/>
                  <path class="cls-34" d="M116.54,50.66l-.06-.09h-.11l.05,.09c.21,1.43,.16,3.17,.02,4.63-.35,3.6-5.05,4.79-5.05,4.79,0,0-4.59-1.05-5.13-4.99-.19-1.39-.29-3.09-.05-4.51h-.11c-.24,1.52-.34,3.12-.15,4.6,.55,4.2,5.45,5.53,5.45,5.53,0,0,4.97-1.51,5.32-5.34,.14-1.56,.04-3.17-.18-4.7Z"/>
                  <path class="cls-15" d="M108.37,44.43s-2.96,7.21-1.86,10.54c1.09,3.33,4.54,4.4,4.54,4.4,0,0-1.14-1.51-1.14-4.45,0-3.74,1.11-10.5,1.11-10.5h-2.65Z"/>
                  <path class="cls-15" d="M115.3,49.81s1.13,3.29,.74,5.75c-.39,2.46-3.14,3.56-3.14,3.56,0,0,2.14-2.54,2.4-9.31Z"/>
                </g>
                <g>
                  <g class="cls-19">
                    <path class="cls-44" d="M103.48,60.7s4.97-1.51,5.32-5.34c.14-1.56,.04-3.17-.18-4.7l-.06-.09h-10.39c-.24,1.52-.34,3.12-.15,4.6,.55,4.2,5.45,5.53,5.45,5.53Z"/>
                  </g>
                  <path class="cls-4" d="M107.02,43.35h-7.03s-3.25,7.14-2.13,12.36c.86,4.03,5.43,5.44,5.43,5.44v12.41l-3.54,1.37h7.76l-3.76-1.37v-12.41s4.67-1.6,5.33-5.27c.96-5.32-2.06-12.53-2.06-12.53Zm1.79,12.01c-.35,3.83-5.32,5.34-5.32,5.34,0,0-4.89-1.33-5.45-5.53-.66-5.02,2.06-11.41,2.06-11.41h6.77s2.43,6.2,1.94,11.59Z"/>
                  <path class="cls-21" d="M100.26,44.43h6.46s-3.33,4.02-6.46,0Z"/>
                  <path class="cls-8" d="M103.41,56.15c-1.92,0-3.6,.41-4.65,1.03,1.5,2.6,4.72,3.52,4.72,3.52,0,0,3.26-1.02,4.68-3.46-1.03-.66-2.78-1.09-4.76-1.09Z"/>
                  <path class="cls-54" d="M108.63,50.66l-.06-.09h-.11l.05,.09c.21,1.43,.16,3.17,.02,4.63-.35,3.6-5.05,4.79-5.05,4.79,0,0-4.59-1.05-5.13-4.99-.19-1.39-.29-3.09-.05-4.51h-.11c-.24,1.52-.34,3.12-.15,4.6,.55,4.2,5.45,5.53,5.45,5.53,0,0,4.97-1.51,5.32-5.34,.14-1.56,.04-3.17-.18-4.7Z"/>
                  <path class="cls-16" d="M100.47,44.43s-2.96,7.21-1.86,10.54c1.09,3.33,4.54,4.4,4.54,4.4,0,0-1.14-1.51-1.14-4.45,0-3.74,1.11-10.5,1.11-10.5h-2.65Z"/>
                  <path class="cls-16" d="M107.4,49.81s1.13,3.29,.74,5.75c-.39,2.46-3.14,3.56-3.14,3.56,0,0,2.14-2.54,2.4-9.31Z"/>
                </g>
                <g>
                  <g class="cls-19">
                    <path class="cls-44" d="M118.57,60.7s4.97-1.51,5.32-5.34c.14-1.56,.04-3.17-.18-4.7l-.06-.09h-10.39c-.24,1.52-.34,3.12-.15,4.6,.55,4.2,5.45,5.53,5.45,5.53Z"/>
                  </g>
                  <path class="cls-4" d="M122.11,43.35h-7.03s-3.25,7.14-2.13,12.36c.86,4.03,5.43,5.44,5.43,5.44v12.41l-3.54,1.37h7.76l-3.76-1.37v-12.41s4.67-1.6,5.33-5.27c.96-5.32-2.06-12.53-2.06-12.53Zm1.79,12.01c-.35,3.83-5.32,5.34-5.32,5.34,0,0-4.89-1.33-5.45-5.53-.66-5.02,2.06-11.41,2.06-11.41h6.77s2.43,6.2,1.94,11.59Z"/>
                  <path class="cls-21" d="M115.35,44.43h6.46s-3.33,4.02-6.46,0Z"/>
                  <path class="cls-8" d="M118.5,56.15c-1.92,0-3.6,.41-4.65,1.03,1.5,2.6,4.72,3.52,4.72,3.52,0,0,3.26-1.02,4.68-3.46-1.03-.66-2.78-1.09-4.76-1.09Z"/>
                  <path class="cls-54" d="M123.72,50.66l-.06-.09h-.11l.05,.09c.21,1.43,.16,3.17,.02,4.63-.35,3.6-5.05,4.79-5.05,4.79,0,0-4.59-1.05-5.13-4.99-.19-1.39-.29-3.09-.05-4.51h-.11c-.24,1.52-.34,3.12-.15,4.6,.55,4.2,5.45,5.53,5.45,5.53,0,0,4.97-1.51,5.32-5.34,.14-1.56,.04-3.17-.18-4.7Z"/>
                  <path class="cls-16" d="M115.56,44.43s-2.96,7.21-1.86,10.54c1.09,3.33,4.54,4.4,4.54,4.4,0,0-1.14-1.51-1.14-4.45,0-3.74,1.11-10.5,1.11-10.5h-2.65Z"/>
                  <path class="cls-16" d="M122.49,49.81s1.13,3.29,.74,5.75c-.39,2.46-3.14,3.56-3.14,3.56,0,0,2.14-2.54,2.4-9.31Z"/>
                </g>
              </g>
            </g>
            <path class="cls-37" d="M155.86,38.14c6.71,.32,8.86,9.74,20.12,7.35l.16,.31s-4.71,3.69-9.74,.28c-5.03-3.41-5.03-5.79-11.2-7.92l.66-.03Z"/>
          </g>
          <g>
            <g>
              <polygon class="cls-14" points="318.51 84.61 323.32 76.63 326.34 77.46 323.64 86.81 318.51 84.61"/>
              <path class="cls-28" d="M339.01,76.65c0,.78-13.23,3.42-15.67,1.1-.65-.59-.15-1.29,1.37-2.25,1.52-.95,14.3,.37,14.3,1.15Z"/>
            </g>
            <g>
              <path class="cls-10" d="M327.71,53.96s.84,.44,.84,.88-.88,.8-.88,.8h2.83s-.72-.44-.72-.8,.84-.88,.84-.88h-2.91Z"/>
              <polygon class="cls-10" points="354.09 74.72 354.51 74.01 303.73 74.01 304.2 74.72 354.09 74.72"/>
              <ellipse class="cls-42" cx="329.15" cy="53.08" rx="2.7" ry="1.08"/>
              <ellipse class="cls-10" cx="329.15" cy="74.72" rx="24.94" ry="2.24"/>
              <path class="cls-42" d="M299.32,73.04c0,.59,13.35,2.68,29.83,2.68s29.83-2.18,29.83-2.68-13.35-2.68-29.83-2.68-29.83,2.08-29.83,2.68Z"/>
              <ellipse class="cls-10" cx="329.15" cy="73.04" rx="24.03" ry="2.03"/>
              <path class="cls-30" d="M299.48,72.9c1.56,.72,14.25,2.54,29.66,2.54s27.89-1.88,29.62-2.54c.13,.05,.21,.1,.21,.13,0,.5-13.35,2.68-29.83,2.68s-29.83-2.08-29.83-2.68c0-.04,.06-.08,.16-.13Z"/>
              <path class="cls-42" d="M307.95,72.84c0,.4,9.49,1.79,21.2,1.79s21.2-1.46,21.2-1.79-2.34-17.25-21.2-17.25-21.2,16.85-21.2,17.25Z"/>
              <path class="cls-5" d="M329.75,52.03c.48,.14,.77,.34,.77,.55,0,.44-1.21,.79-2.7,.79-.49,0-.94-.04-1.33-.11,.23,.5,1.32,.89,2.65,.89,1.49,0,2.7-.48,2.7-1.08,0-.51-.89-.94-2.09-1.05Z"/>
              <path class="cls-30" d="M329.51,52.47c.02,.2-.5,.42-1.17,.49-.66,.07-1.22-.05-1.24-.25-.02-.2,.5-.42,1.17-.49,.66-.07,1.22,.05,1.24,.25Z"/>
              <path class="cls-7" d="M319.97,72.84c-4.01-.18-8.07-1.07-11.44-2.7-.46,1.51-.61,2.55-.61,2.65,0,.4,9.49,1.81,21.19,1.84,11.71,.03,21.2-1.41,21.2-1.74,0-.33-2.3-17.26-21.16-17.3,9.79,5.22,11.83,18.2-9.2,17.25Z"/>
              <path class="cls-30" d="M312.38,66.46c-.04-2.51,5.6-10,13.01-9.55,7.41,.45,1.45,10.44-4.67,12.56-4.11,1.42-8.29,.04-8.34-3.01Z"/>
              <path class="cls-30" d="M326.82,68.63c-.05-.86,2.23-4.97,3.86-5.07,1.62-.1,2.65,3.29,1.05,5.16-1.44,1.68-4.81,1.53-4.91-.09Z"/>
            </g>
            <path class="cls-35" d="M283.64,76.28c4.79,4.17,13.23,35.05,15.33,35.47,6.46-11.18,10.93-17.57,19.66-28.23l5.56,2.56c-3.59,21.92-16.51,45.77-28.51,45.15-9.34-.48-16.49-12.91-21.95-22.36-5.46-9.45,9.9-32.6,9.9-32.6Z"/>
            <path class="cls-26" d="M254.82,52.25c-2.28-.34-18.29-25.02-11.2-30.8,3.62-2.95,9.98,8.05,9.98,8.05,0,0,6.23,22.11,1.22,22.76Z"/>
            <path class="cls-26" d="M243.61,21.45c-6.69,5.46,2.83,32.45,10.77,30.6-.54-1.56-.9-3.54-1.32-6.42-.1-1.59-.2-3.07-.28-4.47l.32,2.35,1.49,.14s-1.44-10.93,.22-17.35c-1.13,1.09-7.33,6.52-11.24,1.55-2.58-3.27,.04-6.4,.04-6.4Z"/>
            <path class="cls-55" d="M271.49,296.47s2.15,3.11,6.84,4.97c4.69,1.86,7.6,1.45,7.34,2.69-.26,1.24-18.04,.62-17.99-.83,.06-1.45,.97-3.52,.9-6.83-.07-3.31,2.9,0,2.9,0Z"/>
            <path class="cls-55" d="M251.96,296.47c.33,4.28,1.6,6.42,1.75,7.66,.15,1.24-11.58,1.38-11.87,0-.41-1.93,6.09-3.39,6.46-7.66,.34-4,3.67,0,3.67,0Z"/>
            <path class="cls-36" d="M235.56,148.55s-2.6,23.85,6.94,69.91c0,0-3.22,20.43-3.59,27.4-.43,8.11,6.55,51.93,6.55,51.93h8.24c.55-19.08,2.92-36.06,3.66-50.85,.52-10.55-.61-19.99-.08-28.27,1.8-28.11,3.41-42.9,3.41-42.9h1.4s3.23,38.51,3.11,42.69c-.12,4.19-3.43,22.27-3.62,28.78-.19,6.51,4.54,50.55,4.54,50.55h8.83c5.89-110.23,7.24-110.06,7.81-149.06l-47.18-.17Z"/>
            <path class="cls-46" d="M266.11,297.79h8.83c6.99-82.76,7.7-100.64,7.89-149.22l-17.49-.08-1.44,24.05-3.91,3.23h2.09s3.23,38.51,3.11,42.69c-.12,4.19-4.62,22.27-4.9,28.78-.27,6.51,5.81,50.55,5.81,50.55Z"/>
            <path class="cls-46" d="M282.82,148.57h-47.26s-.07,.72-.14,2.16c3.31,2.03,13.6,7.09,32.35,5.5,6.46-.55,11.19-1.39,14.98-2.35,.02-1.69,.05-3.46,.08-5.31Z"/>
            <path class="cls-36" d="M231.37,74.19l18.7-6.85c5.94,.39,12.2,.93,20.4,2.17l13.17,6.77s.7,16.38,.06,36.7c-.64,20.32-.84,37.77-.84,37.77-15.68,3.15-32.27,3.59-47.3-2.21,0,0-1.16-1.09-.46-4.34,.7-3.26,4.25-23.02,4.25-23.02,0,0-3.32-24.67-7.97-47Z"/>
            <path class="cls-40" d="M270.47,69.52c-8.2-1.25-14.46-1.78-20.4-2.17l-6.6,2.42c1.9,3.26,12.05,20.22,24.35,30.58,0,0,6.71-12.94,9.02-27.55l-6.38-3.28Z"/>
            <path class="cls-13" d="M252.02,43.62s2.33,15.04-.49,24.46c0,0,10.95,5.27,14.14,4.95,3.19-.32,3.98-1.97,3.98-1.97,0,0-1.44-3.66-.97-11.33l-16.66-16.11Z"/>
            <path class="cls-53" d="M258.6,71.16c5.27-2.22,8.69-5.42,10.02-6.83-.02-.52-.03-1.05-.03-1.63l.28-8.61-16.75-10.36-.07,.14c.27,1.89,2.09,15.47-.53,24.23,0,0,3.47,1.67,7.07,3.07Z"/>
            <path class="cls-12" d="M266.07,73.27l1.12-6.55s1.6-3.19,2.08-3.11,1.92,6.15,1.92,6.15c0,0-1.44,3.55-5.11,3.51Z"/>
            <path class="cls-12" d="M265.27,73.27l-2.56-6.55s-9.58-6.31-10.86-6.07c-.65,.12-2.24,7.19-2.24,7.19,0,0,3.04,5.75,15.65,5.43Z"/>
            <path class="cls-46" d="M282.82,151.12v-1.16c-2.61,.43-8.04,1.28-17.63,1.64-12.94,.48-21.08-3.35-21.08-4.31s3.11-23.24,2.87-27.07c-.24-3.83-8.38-33.54-8.38-33.54l-3.02,10.04c2.32,13.72,3.77,24.47,3.77,24.47,0,0-3.55,19.76-4.25,23.02-.7,3.26,.46,4.34,.46,4.34,15.04,5.8,31.59,5.72,47.26,2.57Z"/>
            <g>
              <g id="wrist_left-3" data-name="wrist left">
                <path class="cls-13" d="M233.45,172.32s1.14,1.82,1.56,3.39c.41,1.53,1.03,4.58,1.37,5.68s.46,1.43,.36,1.59c-.18,.27-1.08,.5-1.61-1.17s-1.15-4.32-1.15-4.32l-.53-5.17Z"/>
                <path class="cls-13" d="M229.58,173.2s-1.18,5.39-1.13,10.15c.04,4.76,.41,5.34,.88,5.27,.47-.07,.48-1.06,.37-2.54,0,0,.21-2.46,.37-2.48,.15-.02,.23,2.57,.22,3.04,0,.47,.09,3.72,.83,3.68,.71-.04,.63-2.36,.58-3.62,0,0,.17-3.14,.39-3.13,.22,0,.23,2.81,.25,3.28,.02,.47,.06,3.94,.75,3.92,.69-.02,.88-.85,.76-3.8,0,0-.24-3.56-.02-3.54,.62-.06,.22,6.06,1.29,6.01,.54-.02,.55-1.4,.48-3.19-.07-1.83-.07-2.41-.22-3.7-.15-1.28-1.72-9.72-1.72-9.72,0,0-2.22-1.65-4.09,.36Z"/>
              </g>
              <path class="cls-13" d="M219.74,129c1.5,23.91,9.82,44.2,9.82,44.2l4.13-.22c.12-6.05,2.53-19.62,1.68-28.56-.85-8.94-1.58-12.22-1.9-15.41-.32-3.19-13.73,0-13.73,0Z"/>
              <path class="cls-40" d="M231.69,74.19c-9.05,2.8-13.04,36.31-11.96,54.81,1.6,27.15,8.03,40.08,8.03,40.08l6.32-.81s3.14-14.68,2.29-23.62c-.85-8.94-2.24-12.46-2.56-15.65-.32-3.19,5.11-19.16,6.71-24.59,1.6-5.43-2-32.34-8.82-30.22Z"/>
              <polygon class="cls-12" points="227.76 169.09 228.7 172.76 234.13 172.08 234.08 168.28 227.76 169.09"/>
              <path class="cls-35" d="M229.66,167.38c-2-1.33-6.36-13.07-7.81-40.37-.86-16.22,2.2-43.83,9-52.47-8.45,4.54-12.17,36.54-11.12,54.46,1.6,27.15,8.03,40.08,8.03,40.08l6.32-.81s.11-.53,.29-1.45c0,0-2.71,1.89-4.71,.56Z"/>
              <polygon class="cls-40" points="228.7 172.76 231 172.47 230.5 168.74 227.76 169.09 228.7 172.76"/>
            </g>
            <path class="cls-26" d="M277.5,35.87s4.82-6.98,3.33-15.36c-1.49-8.38-42.37-17.14-34.96,2.64,0,0,21.11,21.92,31.63,12.72Z"/>
            <path class="cls-13" d="M253.06,45.63c.46,3.09,.79,5.16,1.34,6.77,2.09,5.36,8.2,8.37,8.2,8.37,1.77,1.26,7.78,1.07,9.07,.1,1.22-.92,5.71-10.67,6.14-15.12,.27-2.73-.08-5.09-.07-7.03,0-3.74,.39-6.4,.11-10.66-.28-4.2-5.38-6.78-11.71-6.5-14.48,.63-14.23,6.7-13.08,24.09Z"/>
            <path class="cls-26" d="M252.6,39.8l.51,3.71,1.49,.14s-2.21-16.75,1.98-20.96c0,0-6.5-.56-3.98,17.11Z"/>
            <path class="cls-26" d="M252.26,24.77s1.81,3.06,8.47,.06c14.09-6.34,16.97,1.58,16.97,1.58,0,0-3.5-17.47-25.45-1.63Z"/>
            <path class="cls-26" d="M278.06,34.95c1.22-2.15,3.93-7.86,2.76-14.43-.09-.5-.32-1-.66-1.49-3.12-4.12-16.84,4.68-20.17,6.11,7.28-3.14,11.32-3.24,13.86-2.21,2.72,1.36,3.27,3.29,4.2,12.02Z"/>
            <path class="cls-38" d="M247.82,68.12s2.52,4.07,8.74,6.35c0,0,.36,2.87,1.44,2.99s6.23-2.87,6.23-2.87c0,0,.96,1.08,1.68,1.08s1.44-1.32,1.44-1.32c0,0,3.71,2.52,4.91,2.28,1.2-.24-.12-5.39-.12-5.39l-12.7,1.32-10.62-4.71-1,.28Z"/>
            <g>
              <path class="cls-13" d="M254.48,44.02c-.12,2.09-1.91,3.66-4,3.5-2.09-.16-3.69-1.98-3.57-4.07s1.91-3.66,4-3.5c2.09,.16,3.69,1.98,3.57,4.07Z"/>
              <path class="cls-53" d="M251.45,45.61c-.98-.12-1.68-1.02-1.58-2,.11-.95,.95-1.62,1.9-1.54-.25-.15-.52-.26-.83-.3-1.16-.15-2.2,.67-2.32,1.82-.13,1.15,.71,2.21,1.86,2.36,.55,.07,1.06-.09,1.48-.39-.17,.03-.33,.06-.51,.04Z"/>
            </g>
            <path class="cls-26" d="M252.78,43.49l1.82,.16s-1.44-10.93,.22-17.35c-.33,.32-1.82,1.43-2.82,2.14-.34,3.92-.24,7.66,.78,15.05Z"/>
            <path class="cls-26" d="M246.14,21.4s-2.32-2.55-1.73-5.09c.58-2.54,2.83-3.8,2.83-3.8,0,0-5.81,2.42-4.93,5.04,1.02,3.41,3.84,3.85,3.84,3.85Z"/>
            <path class="cls-38" d="M268.27,99.44c-.72-12.03-2.23-26.47-2.25-26.63l-.95,.1c.02,.17,1.56,14.92,2.27,27.01,.16,.14,.32,.29,.48,.43,0,0,.17-.34,.45-.9Z"/>
            <path class="cls-50" d="M248.82,67.84l1.12-1.28c3.51,4.87,17.41,8.86,21.16,2.79l.88,.88c-4.35,6.72-18.16,3.64-23.16-2.4Z"/>
            <g>
              <circle class="cls-50" cx="265.55" cy="72.85" r="1.76"/>
              <path class="cls-50" d="M264.41,71.98s-5.27-2.96-6.61-2.42c-1.23,.49-1.11,6.05,.27,6.47,1,.3,6.46-2.13,6.46-2.13l-.11-1.92Z"/>
              <path class="cls-50" d="M266.8,71.75s3.78-3.14,4.54-2.83c.76,.31,1.35,5.62,.66,5.99-.69,.38-5.09-1.33-5.09-1.33l-.11-1.83Z"/>
            </g>
            <polygon class="cls-40" points="318.63 83.52 321.19 79.5 325.38 81.42 324.18 86.09 318.63 83.52"/>
            <path class="cls-46" d="M267.82,100.34l3.58,3.75s-1.12,13.1-1.6,22.2-.32,26.03-.32,26.03l.96-.32s0-19.16,.48-25.55c.48-6.39,1.76-22.68,1.76-22.68l-4.41-4.34-.45,.9Z"/>
            <g>
              <path class="cls-27" d="M265.97,110.16c0,.97-.79,1.76-1.76,1.76s-1.76-.79-1.76-1.76,.79-1.76,1.76-1.76,1.76,.79,1.76,1.76Z"/>
              <path class="cls-27" d="M264.86,125.81c0,.97-.79,1.76-1.76,1.76s-1.76-.79-1.76-1.76,.79-1.76,1.76-1.76,1.76,.79,1.76,1.76Z"/>
              <path class="cls-27" d="M264.7,142.74c0,.97-.79,1.76-1.76,1.76s-1.76-.79-1.76-1.76,.79-1.76,1.76-1.76,1.76,.79,1.76,1.76Z"/>
            </g>
          </g>
          <g>
            <path class="cls-37" d="M59.56,23.11s2.61,1.81-.18,11.66c0,0-4.77-9.19,.18-11.66Z"/>
            <path class="cls-46" d="M66.4,76.28c6.29,4.16,15.52,40.67,13.39,53.99-2.12,13.25-20.54,23.19-20.54,23.19l-2.98-2.18s8.09-17.75,8.68-21.01c.59-3.26-12.19-59.24,1.46-53.99Z"/>
            <path class="cls-56" d="M36.34,52.25c-2.27-.34-18.29-25.02-11.2-30.8,3.62-2.95,9.98,8.05,9.98,8.05,0,0,6.23,22.11,1.22,22.76Z"/>
            <path class="cls-37" d="M25.14,21.45c-6.69,5.46,2.83,32.45,10.77,30.6-.54-1.56-.9-3.54-1.32-6.42-.11-1.59-.2-3.07-.28-4.47l.32,2.35,1.49,.14s-1.44-10.93,.22-17.35c-1.13,1.09-7.33,6.52-11.24,1.55-2.58-3.27,.04-6.4,.04-6.4Z"/>
            <path class="cls-55" d="M54.26,296.47s2.17,3.11,6.86,4.97,7.61,1.45,7.36,2.69c-.25,1.24-18.04,.62-17.99-.83,.05-1.45,.95-3.52,.87-6.83-.09-3.31,2.9,0,2.9,0Z"/>
            <path class="cls-55" d="M32.11,296.47c.28,4.28,1.52,6.42,1.66,7.66,.14,1.24-11.6,1.38-11.87,0-.39-1.93,6.13-3.39,6.55-7.66,.39-4,3.67,0,3.67,0Z"/>
            <path class="cls-36" d="M17.47,148.55s-2.88,23.85,6.11,69.91c0,0-3.47,20.43-3.92,27.4-.53,8.11,5.94,51.93,5.94,51.93h8.24c.78-19.08,3.35-36.06,4.26-50.85,.65-10.55,.31-19.29,.94-27.57,2.13-28.11,4.24-41.12,4.24-41.12,0,0,2,36.03,1.9,40.21-.1,4.19-2.16,22.27-2.31,28.78-.15,6.51,6.01,50.55,6.01,50.55h8.83c5.25-110.23,5.91-110.06,6.94-149.06l-47.18-.17Z"/>
            <path class="cls-46" d="M46.51,173.21s-10.27,1.5-10.44,1.59c-.98,.49,4.21,2.39,4.21,2.39,0,0-5.22,38.17-5.52,41.08-.3,2.92,.29,20.14-.35,29.16-.59,8.3-2.85,44.64-3.21,50.37h2.63c.78-19.08,3.35-36.06,4.26-50.85,.65-10.55,.31-19.29,.94-27.57,2.13-28.11,4.24-41.12,4.24-41.12,0,0,2,36.03,1.9,40.21-.1,4.19-2.16,22.27-2.31,28.78-.15,6.51,6.01,50.55,6.01,50.55h8.83c5.25-110.23,5.91-110.06,6.94-149.06l-16.3-.06-1.84,24.54Z"/>
            <path class="cls-36" d="M12.14,74.29c1.19-1.08,19.85-6.95,19.85-6.95,5.94,.39,12.2,.93,20.4,2.17l14.02,6.77s-1.62,15.91-2.25,36.23c-.64,20.32,.62,38.25,.62,38.25,0,0-2.42,9.33-12.89,1.89-20.94,12.74-34.41-4.1-34.41-4.1-1.71-1.6,.03-6.47,3.79-27.36,0,0-10.31-45.83-9.12-46.91Z"/>
            <path class="cls-46" d="M29.17,121.53c0-3.98-7.42-14.84-7.16-31.01l-3.18,15.11,2.43,15.57c-3.76,20.89-5.49,25.76-3.79,27.36,0,0,2.97,3.71,8.28,6.33,1.33-10.74,3.41-30.95,3.41-33.35Z"/>
            <path class="cls-40" d="M52.38,69.52c-8.2-1.25-14.46-1.78-20.4-2.17l-6.88,2.15c1.9,3.26,12.33,20.49,24.63,30.85,0,0,6.67-13.19,8.98-27.8l-6.34-3.02Z"/>
            <path class="cls-33" d="M32.69,43.62s2.33,15.04-.49,24.46c0,0,10.95,5.27,14.14,4.95,3.19-.32,3.98-1.97,3.98-1.97,0,0-1.44-3.66-.97-11.33l-16.66-16.11Z"/>
            <path class="cls-1" d="M37.4,70.64c6.36-1.46,11.87-8.04,11.87-8.61l.02-8.44-16.49-9.86-.07,.14c.27,1.89,2.09,15.47-.53,24.23,0,0,1.59,1.15,5.2,2.55Z"/>
            <path class="cls-14" d="M34.59,45.63c.46,3.09,.79,5.16,1.34,6.77,2.09,5.36,8.2,8.37,8.2,8.37,1.77,1.26,7.78,1.07,9.07,.1,1.22-.92,5.71-10.67,6.15-15.12,.27-2.73-.08-5.09-.07-7.03,0-3.74,.39-6.4,.11-10.66-.28-4.2-5.38-6.78-11.71-6.5-14.48,.63-14.23,6.7-13.08,24.09Z"/>
            <path class="cls-56" d="M34.12,39.8l.51,3.71,1.49,.14s-2.21-16.75,1.98-20.96c0,0-6.5-.56-3.98,17.11Z"/>
            <g>
              <path class="cls-14" d="M36,44.02c-.12,2.09-1.91,3.66-4,3.5-2.09-.16-3.69-1.98-3.57-4.07s1.91-3.66,4-3.5c2.09,.16,3.69,1.98,3.57,4.07Z"/>
              <path class="cls-33" d="M32.97,45.61c-.98-.12-1.68-1.02-1.58-2,.11-.95,.95-1.62,1.9-1.54-.25-.15-.52-.26-.83-.3-1.16-.15-2.2,.67-2.32,1.82-.13,1.15,.71,2.21,1.86,2.36,.55,.07,1.06-.09,1.48-.39-.17,.03-.33,.06-.51,.04Z"/>
            </g>
            <path class="cls-37" d="M34.3,43.49l1.82,.16s-.8-10.98,.86-17.4c-.33,.32-2.46,1.48-3.46,2.19-.34,3.92-.24,7.66,.78,15.05Z"/>
            <path class="cls-46" d="M49.73,100.34l3.58,3.75s-1.12,13.1-1.6,22.2-.32,28.82-.32,28.82l.96-.32s0-21.95,.48-28.34c.48-6.39,1.76-22.68,1.76-22.68l-4.41-4.34-.45,.9Z"/>
            <g>
              <path class="cls-27" d="M47.88,110.16c0,.97-.79,1.76-1.76,1.76s-1.76-.79-1.76-1.76,.79-1.76,1.76-1.76,1.76,.79,1.76,1.76Z"/>
              <path class="cls-27" d="M46.77,125.81c0,.97-.79,1.76-1.76,1.76s-1.76-.79-1.76-1.76,.79-1.76,1.76-1.76,1.76,.79,1.76,1.76Z"/>
              <path class="cls-27" d="M46.61,142.74c0,.97-.79,1.76-1.76,1.76s-1.76-.79-1.76-1.76,.79-1.76,1.76-1.76,1.76,.79,1.76,1.76Z"/>
            </g>
            <path class="cls-38" d="M53.46,70.08l-1.67-.96c-8.76-.85-15.35-1.38-21.28-1.38l-.92,.32c0,.33,3.41,7.67,11.5,11.19l3.07-5.57,4.33-.4,3.21,5.04s1.87-3.27,1.77-8.25Z"/>
            <path class="cls-46" d="M17.47,150.85s14.4,19.8,34.41,4.1c9,8.86,11.96,1.54,12.69-1.06,.01-.87,.03-1.76,.04-2.66-.66,1.78-3.69,7.84-12.73,1.42-20.94,12.74-34.41-4.1-34.41-4.1,0,0-.08,.71-.15,2.09,.09,.14,.15,.21,.15,.21Z"/>
            <path class="cls-50" d="M42.72,72.58s2.69,3.36,4,3.45c1.3,.09,2.51-3.62,2.51-3.62l-3.37-3.95-3.14,4.13Z"/>
            <path class="cls-12" d="M40.56,77.53l5.3-9.08c-8.61-3.11-12.79-9.41-12.79-9.41l-2.96,7.9c2.38,5.24,5.77,8.72,10.44,10.58Z"/>
            <path class="cls-12" d="M45.86,68.45l5.97,7.84s1.61-4.64,.98-7.21l-3.52-6.56s-.99,3.66-3.43,5.93Z"/>
            <g id="wrist_left-4" data-name="wrist left">
              <path class="cls-33" d="M57.84,151.46s-2.02,.49-3.38,1.3c-1.32,.79-3.82,2.48-4.81,3.02-.99,.53-1.29,.68-1.33,.86-.06,.3,.41,1.08,1.92,.28,1.51-.79,3.73-2.22,3.73-2.22l3.87-3.23Z"/>
              <path class="cls-28" d="M59.93,154.7s-2.84,4.54-6.1,7.82c-3.26,3.28-3.91,3.43-4.19,3.06-.28-.37,.39-1.06,1.47-2.02,0,0,1.52-1.85,1.43-1.97s-1.9,1.63-2.22,1.96c-.32,.33-2.59,2.52-3.08,1.99-.47-.51,1.17-2.06,2.06-2.91,0,0,2.01-2.29,1.86-2.44-.15-.15-2.07,1.8-2.4,2.11s-2.72,2.69-3.18,2.21c-.47-.48-.04-1.19,2.05-3.16,0,0,2.58-2.31,2.41-2.44-.39-.46-4.26,4.06-4.98,3.3-.36-.38,.57-1.35,1.83-2.54,1.29-1.22,1.69-1.63,2.66-2.42,.98-.79,7.79-5.59,7.79-5.59,0,0,2.66,.36,2.59,3.03Z"/>
            </g>
            <path class="cls-50" d="M45.51,74.08l-1.36,21.01c1.5,1.65,3.92,4.03,5.69,5.36,.93-1.69,1.73-3.82,2.62-6.05l-4.92-20.41-2.03,.09Z"/>
            <g>
              <g id="wrist_left-5" data-name="wrist left">
                <path class="cls-14" d="M42.48,154.94s3.78,4.41,7.73,7.51c3.14,2.47,4.07,2.5,4.32,2.06,.25-.43,.07-.47-1.24-1.34,0,0-1.91-1.77-1.83-1.91s2.29,1.47,2.68,1.78,1.43,1.06,1.94,.46c.37-.43,.11-.82-.98-1.59,0,0-2.5-2.16-2.36-2.35,.14-.18,2.5,1.62,2.9,1.91,.4,.29,1.58,1.11,2.01,.52,.43-.59-.09-1.04-.93-1.71,0,0-3.12-2.11-2.96-2.27,.35-.55,4.44,3.31,5.1,2.38,.33-.47-.06-.94-1.6-2.04-1.57-1.12-2.06-1.5-3.22-2.21-1.17-.7-9.21-4.85-9.21-4.85,0,0-2.81,.78-2.34,3.64Z"/>
              </g>
              <path class="cls-36" d="M12.14,74.29c-7.48,3.68-15.37,41.92-10.77,55.83,6.59,19.9,37.87,23.75,37.87,23.75l3.71-4.37s-22.67-19.23-24.38-22.4c-4.22-7.77,16.82-58-6.43-52.81Z"/>
              <polygon class="cls-40" points="42.86 156.03 46.26 151.74 42.95 149.49 39.24 153.86 42.86 156.03"/>
              <path class="cls-46" d="M2.83,128.79c-4.25-12.84,2.03-45.96,9.03-54.32-7.41,4.54-15.03,41.92-10.49,55.65,6.59,19.9,37.87,23.75,37.87,23.75l1.14-1.34c-3.28-.16-31.35-5-37.55-23.73Z"/>
            </g>
            <path class="cls-36" d="M79.79,130.27c-1.77,13.3-17.03,21.8-17.03,21.8l-3.45-3.31s3.91-10.93,5.63-18.49c2.07-9.07,16.43-11.93,14.84,0Z"/>
            <polygon class="cls-35" points="56.69 151.43 59.31 148.76 62.76 152.08 60.11 154.92 56.69 151.43"/>
            <path class="cls-46" d="M77.6,123.27c.88,1.31,1.31,3.2,.96,5.83-1.61,12.06-14.02,20.25-16.84,21.97l1.04,1s15.26-8.5,17.03-21.8c.48-3.63-.52-5.87-2.19-7Z"/>
            <rect class="cls-40" x="27.44" y="93.26" width="9.81" height="5.12"/>
            <path class="cls-56" d="M36.98,26.24s1.23-2.97,4.77-3.18c2.3-.14,4.44,1.39,10.4,1.59,3.18,.11,3.66-.98,4.9-.46,1.59,.66,2.32,3.45,2.32,3.45,0,0,3-8.95-.18-13.36-5.31-7.37-27.04-5.12-32.34,.88-3.1,3.52-.75,6.72-.75,6.72,0,0-1.85,13.96,10.87,4.37Z"/>
            <path class="cls-37" d="M45.87,9.64c2.99,.4,12.32,1.1,11.12,8.52-1.06,6.62-10.9,5.47-13.2,5.13,1.81,.41,4.11,1.22,8.37,1.36,3.18,.11,3.66-.98,4.9-.46,1.59,.66,2.32,3.45,2.32,3.45,0,0,3-8.95-.18-13.36-2.28-3.17-7.6-4.55-13.33-4.63Z"/>
            <path class="cls-37" d="M51.52,23.99s4.44-.91,4.48-6.36c.03-4.11-4.56-8.22-11.63-7.95,0,0,10.78,.79,10.5,7.95-.2,5.2-7.86,6.1-7.86,6.1l4.51,.27Z"/>
          </g>
        </g>
      </g>
    </g>
  </g>
</svg>