<?xml version="1.0" encoding="UTF-8"?>
<svg id="Layer_2" data-name="Layer 2" xmlns="http://www.w3.org/2000/svg" viewBox="0 0 146 146">
  <defs>
    <style>
      .cls-1 {
        fill: #003b7e;
      }

      .cls-2 {
        fill: #ffe500;
      }
    </style>
  </defs>
  <g id="Layer_1-2" data-name="Layer 1">
    <g>
      <circle class="cls-2" cx="73" cy="73" r="73"/>
      <g>
        <path class="cls-1" d="M106.64,89.34l-17.1-17.1s0,0,0,0c0,0,0,0,0,0l-3.89-3.89c2.18-2.56,3.93-4.98,4.91-6.41,.67,.45,1.57,.86,2.67,.86s2.22-.43,3.24-1.29c1.55-1.29,3.34-3.03,3.42-5.01,.03-.7-.15-1.76-1.16-2.78l-13.68-13.68c-.78-.78-1.66-1.17-2.62-1.17-2.04,0-3.83,1.83-5.16,3.43-1.22,1.47-1.36,2.83-1.26,3.73,.1,.89,.45,1.62,.83,2.19-2.05,1.41-6.19,4.42-9.79,8.02-3.59,3.59-6.6,7.74-8.02,9.79-.67-.45-1.57-.86-2.66-.86s-2.22,.43-3.25,1.29c-1.55,1.29-3.34,3.03-3.43,5.01-.03,.7,.15,1.75,1.16,2.78l13.68,13.68c.78,.78,1.66,1.17,2.62,1.17,2.04,0,3.83-1.83,5.16-3.43,1.22-1.47,1.36-2.84,1.26-3.73-.1-.89-.46-1.62-.83-2.19,1.42-.98,3.85-2.73,6.4-4.91l3.89,3.89s0,0,0,0c0,0,0,0,0,0l17.09,17.1c.87,.87,2.02,1.35,3.25,1.35s2.38-.48,3.25-1.35c.87-.87,1.35-2.02,1.35-3.25,0-1.23-.48-2.38-1.35-3.25h0Zm-27.34-45.32c1.7-2.04,2.63-2.47,3.11-2.47,.15,0,.39,.04,.74,.39l13.68,13.68c.36,.36,.39,.6,.39,.77-.02,.48-.47,1.41-2.47,3.08-.53,.44-1.05,.67-1.53,.67-1.05,0-1.87-1.01-1.98-1.14l-11.46-11.45s-.03-.02-.04-.03l-.08-.08s-.89-.72-1-1.68c-.06-.55,.15-1.12,.66-1.72h0Zm-10.39,14.1c3.61-3.61,7.92-6.68,9.74-7.93l9.91,9.91c-1.24,1.83-4.32,6.13-7.93,9.74-3.6,3.61-7.91,6.68-9.74,7.93l-9.91-9.91c1.25-1.83,4.32-6.13,7.93-9.74h0Zm1.34,25.83c-1.71,2.04-2.63,2.47-3.11,2.47-.15,0-.39-.04-.74-.39l-13.68-13.68c-.36-.36-.39-.6-.39-.77,.02-.48,.47-1.41,2.47-3.08,.53-.44,1.05-.67,1.54-.67,1.05,0,1.86,1,1.98,1.14h0s11.46,11.46,11.46,11.46c.01,.01,.03,.02,.04,.03l.09,.09s.89,.72,1,1.68c.06,.55-.16,1.12-.66,1.72h0Zm12.27-12.22c.46-.46,.9-.92,1.33-1.39l2.84,2.84-2.73,2.73-2.84-2.84c.47-.44,.93-.88,1.39-1.33Zm22.22,22.22c-.36,.36-.85,.57-1.37,.57s-1-.2-1.36-.57l-16.16-16.16,2.73-2.73,16.16,16.16c.36,.36,.56,.85,.56,1.36,0,.52-.2,1-.56,1.36h0Z"/>
        <path class="cls-1" d="M76.51,104.45h-3.05c-.65-4.52-4.51-8.02-9.21-8.02h-12.63c-4.7,0-8.57,3.5-9.22,8.02h-3.05c-.74,0-1.33,.6-1.33,1.33s.6,1.33,1.33,1.33h37.16c.74,0,1.33-.6,1.33-1.33s-.6-1.33-1.33-1.33h0Zm-31.45,0c.62-3.05,3.32-5.35,6.55-5.35h12.63c3.23,0,5.94,2.3,6.55,5.35h-25.74Z"/>
      </g>
    </g>
  </g>
</svg>