<?xml version="1.0" encoding="UTF-8"?>
<svg id="Layer_2" data-name="Layer 2" xmlns="http://www.w3.org/2000/svg" xmlns:xlink="http://www.w3.org/1999/xlink" viewBox="0 0 163.67 206.69">
  <defs>
    <style>
      .cls-1 {
        fill: url(#linear-gradient-2);
      }

      .cls-2 {
        fill: url(#linear-gradient-6);
      }

      .cls-3 {
        opacity: .11;
      }

      .cls-3, .cls-4, .cls-5 {
        fill: #fff;
      }

      .cls-6 {
        fill: url(#linear-gradient-11);
      }

      .cls-7 {
        fill: url(#linear-gradient-10);
      }

      .cls-8 {
        fill: url(#linear-gradient);
        opacity: .47;
      }

      .cls-9 {
        fill: #91b3fa;
      }

      .cls-10 {
        fill: #c15f1e;
      }

      .cls-11 {
        fill: #7d97f4;
      }

      .cls-4 {
        opacity: .14;
      }

      .cls-12 {
        fill: url(#linear-gradient-5);
      }

      .cls-13 {
        fill: #2c3a64;
      }

      .cls-14 {
        clip-path: url(#clippath);
      }

      .cls-15 {
        fill: none;
      }

      .cls-16 {
        fill: #1e3768;
      }

      .cls-17 {
        fill: url(#linear-gradient-7);
      }

      .cls-18 {
        fill: url(#linear-gradient-9);
      }

      .cls-19 {
        fill: #ed7d2b;
      }

      .cls-20 {
        fill: url(#linear-gradient-3);
      }

      .cls-5 {
        opacity: .06;
      }

      .cls-21 {
        fill: #bdd0fb;
      }

      .cls-22 {
        fill: #e58e53;
      }

      .cls-23 {
        fill: url(#linear-gradient-4);
      }

      .cls-24 {
        fill: #2b478b;
      }

      .cls-25 {
        fill: url(#linear-gradient-8);
      }

      .cls-26 {
        fill: url(#linear-gradient-12);
      }

      .cls-27 {
        fill: url(#linear-gradient-13);
      }
    </style>
    <linearGradient id="linear-gradient" x1="110.05" y1="225.18" x2="67.14" y2="175.54" gradientUnits="userSpaceOnUse">
      <stop offset="0" stop-color="#4f52ff"/>
      <stop offset="1" stop-color="#4042e2"/>
    </linearGradient>
    <clipPath id="clippath">
      <rect class="cls-15" x="10.31" y="152.01" width="58.04" height="40.4"/>
    </clipPath>
    <linearGradient id="linear-gradient-2" x1="-2632.19" y1="74.81" x2="-2637.47" y2="126.47" gradientTransform="translate(-2482.16) rotate(-180) scale(1 -1)" gradientUnits="userSpaceOnUse">
      <stop offset="0" stop-color="#febbba"/>
      <stop offset="1" stop-color="#ff928e"/>
    </linearGradient>
    <linearGradient id="linear-gradient-3" x1="-2591.72" y1="95.22" x2="-2597.44" y2="151.26" xlink:href="#linear-gradient-2"/>
    <linearGradient id="linear-gradient-4" x1="-3669.53" y1="24.69" x2="-3714.13" y2="81.75" gradientTransform="translate(-3586.53 -23.69) rotate(-178.92) scale(1 -1)" xlink:href="#linear-gradient-2"/>
    <linearGradient id="linear-gradient-5" x1="112.93" y1="83.44" x2="172.17" y2="50.61" gradientTransform="matrix(1, 0, 0, 1, 0, 0)" xlink:href="#linear-gradient-2"/>
    <linearGradient id="linear-gradient-6" x1="-2962.52" y1="133.38" x2="-2964.46" y2="150.31" gradientTransform="translate(-2818.89 -9.19) rotate(-178.92) scale(1 -1)" xlink:href="#linear-gradient-2"/>
    <linearGradient id="linear-gradient-7" x1="-2946.71" y1="135.19" x2="-2948.65" y2="152.12" gradientTransform="translate(-2818.89 -9.19) rotate(-178.92) scale(1 -1)" xlink:href="#linear-gradient-2"/>
    <linearGradient id="linear-gradient-8" x1="-2606.99" y1="86.05" x2="-2607.11" y2="87.29" gradientTransform="translate(-2482.16) rotate(-180) scale(1 -1)" gradientUnits="userSpaceOnUse">
      <stop offset="0" stop-color="#ff928e"/>
      <stop offset="1" stop-color="#fe7062"/>
    </linearGradient>
    <linearGradient id="linear-gradient-9" x1="-2958.23" y1="25.09" x2="-2965.64" y2="57.12" gradientTransform="translate(-2818.89 -9.19) rotate(-178.92) scale(1 -1)" xlink:href="#linear-gradient-2"/>
    <linearGradient id="linear-gradient-10" x1="-2623.61" y1="75.55" x2="-2617.91" y2="66.37" xlink:href="#linear-gradient-2"/>
    <linearGradient id="linear-gradient-11" x1="-2410.29" y1="-3212.83" x2="-2399.75" y2="-3223.65" gradientTransform="translate(-3856.56 460.78) rotate(-132.19) scale(1 -1)" xlink:href="#linear-gradient-2"/>
    <linearGradient id="linear-gradient-12" x1="152.3" y1="95.11" x2="154.3" y2="95.11" gradientUnits="userSpaceOnUse">
      <stop offset="0" stop-color="#e1473d"/>
      <stop offset="1" stop-color="#e9605a"/>
    </linearGradient>
    <linearGradient id="linear-gradient-13" x1="-2571.63" y1="71.73" x2="-2618.36" y2="131.16" gradientTransform="translate(-2482.16) rotate(-180) scale(1 -1)" gradientUnits="userSpaceOnUse">
      <stop offset="0" stop-color="#09005d"/>
      <stop offset="1" stop-color="#1a0f91"/>
    </linearGradient>
  </defs>
  <g id="Layer_1-2" data-name="Layer 1">
    <g>
      <g>
        <rect class="cls-11" x="56.1" y="0" width="93.33" height="188.43" rx="7.14" ry="7.14"/>
        <rect class="cls-9" x="47.29" width="93.33" height="188.43" rx="7.14" ry="7.14"/>
        <rect class="cls-21" x="50.73" y="1.87" width="87.09" height="106.34" rx="6.19" ry="6.19"/>
        <rect class="cls-21" x="50.51" y="109.37" width="87.09" height="77.19" rx="6.19" ry="6.19"/>
        <rect class="cls-11" x="55.68" y="31.72" width="5.6" height="50.37" rx="2.8" ry="2.8"/>
        <rect class="cls-11" x="55.22" y="116.37" width="5.6" height="32.88" rx="2.8" ry="2.8"/>
      </g>
      <g>
        <path class="cls-13" d="M9.56,145.95H86.56c.84,0,1.53,.68,1.53,1.53v48.85H7.95v-48.76c0-.89,.72-1.61,1.61-1.61Z"/>
        <rect class="cls-19" x="10.31" y="152.01" width="58.04" height="40.4" rx=".61" ry=".61"/>
        <path class="cls-13" d="M71.05,145.95h15.18c1.02,0,1.86,.83,1.86,1.86v48.52h-17.04v-50.37h0Z"/>
        <rect class="cls-22" x="65.82" y="159.85" width="2.53" height="26.49" rx=".38" ry=".38"/>
        <rect class="cls-24" x="72.23" y="150.74" width="13.5" height="7.59" rx=".65" ry=".65"/>
        <circle class="cls-8" cx="78.9" cy="189.14" r="5.03"/>
        <circle class="cls-24" cx="78.98" cy="189.14" r="4"/>
        <g>
          <circle class="cls-24" cx="76.45" cy="163.84" r="1.49"/>
          <circle class="cls-24" cx="81.08" cy="163.84" r="1.49"/>
          <circle class="cls-24" cx="76.45" cy="168.98" r="1.49"/>
          <circle class="cls-24" cx="81.08" cy="168.98" r="1.49"/>
          <circle class="cls-24" cx="76.54" cy="174.47" r="1.49"/>
          <circle class="cls-24" cx="81.17" cy="174.47" r="1.49"/>
          <circle class="cls-24" cx="76.79" cy="179.78" r="1.49"/>
          <circle class="cls-24" cx="81.42" cy="179.78" r="1.49"/>
        </g>
        <g class="cls-14">
          <rect class="cls-5" x="18.83" y="125.82" width="2.66" height="76.04" transform="translate(84.62 11.87) rotate(30)"/>
          <rect class="cls-3" x="45.59" y="135.08" width="2.66" height="76.04" transform="translate(92.83 -.27) rotate(30)"/>
          <rect class="cls-4" x="27.76" y="133.04" width="7.25" height="76.04" transform="translate(89.74 7.22) rotate(30)"/>
        </g>
      </g>
      <g>
        <path class="cls-1" d="M153.31,115.25c.87-2.31,1.24-5.05,.67-8.25,3.5-.61,6.77-1.86,9.64-3.85,.34,4.92-.97,10.36-5.5,15.75h0c-2.2,2.62-5.16,5.22-9.06,7.76l-1.15,2.45-3.45-4.3s6.4-3.03,8.86-9.57Z"/>
        <g>
          <path class="cls-20" d="M104.74,93.83c3.54,.62,6.64,.16,9.37-.86,.07,.61,.17,1.22,.32,1.83,.6,2.69,1.42,5.3,2.58,7.7-5.3,.78-10.09-.75-13.66-2.59-.05-2.49,.63-4.56,1.4-6.09Z"/>
          <path class="cls-19" d="M114.11,92.97c4.6-1.71,8.18-4.97,11.12-7.28,6.19-4.87,10.89-2.36,10.89-2.36l-6.75,12.76c-4.22,3.97-8.43,5.83-12.37,6.42-1.16-2.4-1.98-5.01-2.58-7.7-.14-.62-.24-1.23-.32-1.83Z"/>
          <path class="cls-23" d="M91.48,87.69l3.12,1.82c3.74,2.46,7.1,3.79,10.14,4.32-.76,1.53-1.44,3.6-1.4,6.09-3.96-2.04-6.42-4.44-6.42-4.44-7.06-4.56-5.44-7.79-5.44-7.79Z"/>
        </g>
        <g>
          <path class="cls-16" d="M126.86,175.98l-25.47-106.95-10.9,2.1,16.16,108.75c.04,.24,.08,.48,.12,.73l.7,3.64c1.2,6.24,5.59,10.64,9.8,9.83l5-.97c4.21-.81,6.64-6.53,5.44-12.77l-.7-3.64c-.05-.24-.1-.48-.15-.72Zm-8.38,10.9c-2.79,.54-5.79-2.83-6.7-7.53-.91-4.7,.62-8.95,3.41-9.49,2.79-.54,5.79,2.83,6.7,7.53,.91,4.7-.62,8.95-3.41,9.49Z"/>
          <path class="cls-16" d="M99.77,31.11l4.07,21.11c.29,1.5-.13,3.06-1.15,4.2l-5.2,5.88c-1.48,1.68-3.91,2.15-5.91,1.14l-7.01-3.52c-1.37-.69-2.34-1.97-2.63-3.47l-4.07-21.11c-.61-3.18-4.72-4.21-6.7-1.64-4.74,6.14-6.91,14.36-5.29,22.76,2.93,15.18,16.78,23.34,31.38,20.52,14.6-2.82,24.42-15.55,21.49-30.73-1.62-8.4-6.7-15.21-13.38-19.15-2.79-1.65-6.22,.83-5.61,4.02Z"/>
          <path class="cls-24" d="M97.78,31.49l4.07,21.11c.29,1.5-.13,3.06-1.15,4.2l-5.2,5.88c-1.48,1.68-3.91,2.15-5.91,1.14l-7.01-3.52c-1.37-.69-2.34-1.97-2.63-3.47l-4.07-21.11c-.61-3.18-4.72-4.21-6.7-1.64-4.74,6.14-6.91,14.36-5.29,22.76,2.93,15.18,16.78,23.34,31.38,20.52,14.6-2.82,24.42-15.55,21.49-30.73-1.62-8.4-6.7-15.21-13.38-19.15-2.79-1.65-6.22,.83-5.61,4.02Z"/>
          <path class="cls-24" d="M125.27,176.28l-25.47-106.95-10.9,2.1,16.16,108.75c.04,.24,.08,.48,.12,.73l.7,3.64c1.2,6.24,5.59,10.64,9.8,9.83l5-.97c4.21-.81,6.64-6.53,5.44-12.77l-.7-3.64c-.05-.24-.1-.48-.15-.72Zm-8.38,10.9c-2.79,.54-5.79-2.83-6.7-7.53-.91-4.7,.62-8.95,3.41-9.49,2.79-.54,5.79,2.83,6.7,7.53,.91,4.7-.62,8.95-3.41,9.49Z"/>
        </g>
        <path class="cls-12" d="M91.07,92.4c-.12-.68,.08-1.37,.54-1.9,.88-1.01,2.39-2.4,3.49-1.47,1.64,1.39-.16,6.16-.16,6.16l-1.81,2.77-.03,1.77c-.98-1.15-1.57-3.98-2.03-7.34Z"/>
        <path class="cls-19" d="M132.89,195.19c0-.08,0-.15,.03-.23,1.23-4.51,6.96-7.23,6.96-7.23l2.25,.22c1.22,4.02,1.01,6.47,.78,7.56,0,.03-.02,.06-.02,.09-1.86,.13-5.68,.17-9.99-.41Z"/>
        <path class="cls-10" d="M142.88,195.6c-.11,.36-.38,.64-.73,.71-2.65,.51-6.84-.02-8.6-.28-.39-.06-.67-.42-.66-.83,4.31,.57,8.13,.54,9.99,.41Z"/>
        <path class="cls-2" d="M143.09,184.61l-1.04,4.57c-.08,.33-.34,.58-.65,.61-.38,.03-.93,.04-1.48-.05-.49-.08-.82-.59-.73-1.12l.74-4.06,3.16,.06Z"/>
        <path class="cls-10" d="M123.14,195.18c2.49-.02,3.78-.29,4.45-.55,0,.25,0,.5-.02,.76-.01,.28-.22,.5-.48,.49l-13.64-.35c-.44-.01-.68-.52-.48-.92,1.79,.18,6.34,.6,10.18,.56Z"/>
        <path class="cls-19" d="M112.96,194.62s.03-.07,.06-.1c1.24-1.66,4.37-4.96,10.46-6.3l2.91-.04s1.25,2.28,1.2,6.45c-.67,.26-1.96,.53-4.45,.55-3.84,.03-8.39-.38-10.18-.56Z"/>
        <path class="cls-17" d="M127.01,183.78c-.04,.22-.5,3.5-.68,4.78-.04,.3-.27,.53-.54,.56-.5,.05-1.3,.09-2-.07-.38-.08-.64-.45-.64-.88l.1-5.17,3.76,.78Z"/>
        <path class="cls-13" d="M130.75,121.85s-8.09,33.57-8.59,67.14c0,.61,4.67,1.15,4.78,.59,1.09-5.75,8.3-43.22,11.61-48.43,0,0-.07,33.02-1.04,48.03-.02,.37,4.22,1.6,5.11,.64,0,0,5.98-36.54,6.23-59.47,.01-1.18-2.12-8.49-2.12-8.49h-15.98Z"/>
        <path class="cls-25" d="M124.76,86.13c.5-.64-.13,1.3,0,0h0Z"/>
        <path class="cls-19" d="M124.76,86.13c.01-.12,.03-.27,.06-.45,8.85-6.13,21.93-2.7,27-1.96,1.66,.24,3.17,1.09,4.25,2.38,2.58,3.11,7.02,9.47,7.55,17.06-2.87,1.99-6.13,3.24-9.64,3.85-.29-1.64-.83-3.39-1.68-5.27-.1,.43-.22,.86-.36,1.29-3.81,11.32-5.8,17.79-5.83,19.98,0,.3-17.46-.43-14.37-.52,1.29-.04-6.02-25.82-9.84-30.4-.23-.27,3.35-6.59,2.85-5.95Z"/>
        <path class="cls-18" d="M143.82,74.41l.74,9.34s-5.27,1.48-9.03-1.28l2.84-8.42,5.46,.37Z"/>
        <g>
          <path class="cls-7" d="M137.93,63.67c-.13,.12-5.52,10.23-5.52,10.23l5.84,2.96,6.53-8.82s-4.7-6.31-6.85-4.36Z"/>
          <path class="cls-13" d="M139.9,65.83c1.31,.19,2,1.64,2.28,2.39,.1,.27,.07,.58-.09,.82l-3.03,4.84c-.05,.07-.1,.14-.16,.2-.36,.32-1.57,1.24-2.47-.06-.77-1.11-1.49-2.13-2.27-2.55-.46-.25-1.03-.07-1.28,.39-.5,.95-1.48,2.89-2.1,4.73-.16,.46,.07,.97,.52,1.16,1.18,.51,3.53,1.42,5.61,1.75,.34,.05,.69-.08,.9-.36,.92-1.22,3.53-4.62,4.41-5.46,.82-.79,2.3-.46,2.96-.25,.25,.08,.52,.05,.75-.08,.69-.4,1.89-1.39,.84-3.14-.26-.43-.11-1,.32-1.27,.77-.48,1.61-1.4,.85-2.94-.95-1.93-3.66-1.75-5.17-3.17-.75-.7-1.48-1.48-2.45-1.81-.21-.07-.43-.12-.65-.11-.95,.02-2.4,1.59-2.46,2.54-.09,1.36,1.56,2.22,2.7,2.38Z"/>
          <path class="cls-6" d="M141.07,75.47s1.19-3.29,2.64-3.14c1.44,.15,2.56,1.61,.73,3.2-2.27,1.97-3.37-.06-3.37-.06Z"/>
        </g>
        <path class="cls-26" d="M152.79,100.89c2.01-5.18,1.43-11.5,1.43-11.56l-.53,.05c0,.06,.57,6.26-1.39,11.32l.49,.19Z"/>
        <path class="cls-27" d="M138.81,140.47c.12,0,.23-.07,.26-.19,.62-2.23,5.03-4.62,5.07-4.64,.13-.07,.18-.23,.11-.36-.07-.13-.23-.18-.36-.11-.19,.1-4.65,2.52-5.33,4.97-.04,.14,.04,.29,.18,.33,.02,0,.04,0,.07,0Z"/>
        <path class="cls-13" d="M151.37,105.03l-6.51-9.81c-.05-.07-.13-.11-.21-.11h-11.92c-.2,0-.38,.1-.48,.27l-5.67,9.59c-.1,.17-.13,.36-.1,.55,2.24,6.81,4.41,13.51,4.26,16.78,4.06,3.17,11.21,2.51,16.09,1.05,.25-4.26,2.34-10.95,4.62-17.89,.03-.15,0-.3-.08-.43Z"/>
        <path class="cls-13" d="M149.16,83.37l-4.38,12.58h-2.63l3.89-13.1c.04-.13,.17-.21,.3-.18l2.74,.57c.06,.01,.1,.08,.08,.13Z"/>
        <path class="cls-13" d="M134.17,82.49l1.07,13.11-2.43,.3-2.07-13.07c-.01-.09,.05-.18,.15-.19l3.11-.28c.08,0,.16,.05,.16,.14Z"/>
        <g>
          <path class="cls-13" d="M134.6,64.32c5.2-9.82,18.67-.9,12.4,7.37-4.66-3.1-9.93-7.71-12.4-7.37Z"/>
          <path class="cls-13" d="M134.94,63.26c-10.51-.53-1.86,3.36,7.71,5.44-2.38-2.53-4.76-4.41-7.71-5.44Z"/>
        </g>
      </g>
    </g>
  </g>
</svg>