<?xml version="1.0" encoding="UTF-8"?>
<svg xmlns="http://www.w3.org/2000/svg" viewBox="0 0 193.38 193.21">
  <defs>
    <style>
      .cls-1 {
        fill: #e87b50;
        mix-blend-mode: multiply;
        opacity: .3;
      }

      .cls-2 {
        fill: #fff;
      }

      .cls-3 {
        fill: #9e9da2;
      }

      .cls-4 {
        fill: #ffe5b6;
      }

      .cls-5 {
        isolation: isolate;
      }

      .cls-6 {
        fill: #333;
      }

      .cls-7 {
        fill: #282828;
      }

      .cls-8 {
        fill: #ffc0bb;
      }

      .cls-9 {
        fill: #daeef7;
      }

      .cls-10 {
        fill: #ff9843;
      }

      .cls-11 {
        fill: #2c3a64;
      }

      .cls-12 {
        fill: #283f56;
      }

      .cls-13 {
        fill: #ed7d2b;
      }

      .cls-14 {
        fill: #1a1a1a;
      }

      .cls-15 {
        fill: #f9b7b4;
      }

      .cls-16 {
        fill: #2b478b;
      }

      .cls-17 {
        fill: #f99893;
      }
    </style>
  </defs>
  <g class="cls-5">
    <g id="Layer_2" data-name="Layer 2">
      <g id="Layer_1-2" data-name="Layer 1">
        <g>
          <path class="cls-8" d="M100.62,34.01c-.28,.19-5.31,9.22-5.31,9.22l-6.77-5.95,6.57-10.96,5.51,3.09v4.6Z"/>
          <path class="cls-17" d="M91.31,32.66c.83,2.36,2.55,5.48,5.97,7.05,1.44-2.56,3.18-5.6,3.34-5.71v-4.6l-5.51-3.09-3.8,6.34Z"/>
          <path class="cls-2" d="M29.89,125.27s-1.91-1.35-3.74,2.97c-1.83,4.32,.63,6.04,.63,6.04,0,0,3.14-2.33,3.11-2.77-.03-.44-.14-6.02-.14-6.02l.14-.22Z"/>
          <path class="cls-13" d="M33.04,123.71s-1.55-.95-3.29,1.77c-.64,1.01-1.31,2.51-1.94,4.75-2.33,8.31,0,8.31,0,8.31l3.91-1.66s3.74-9.53,3.52-10.3c-.22-.78-2.2-2.87-2.2-2.87Z"/>
          <rect class="cls-12" y="102.32" width="66.81" height="2.55" rx=".92" ry=".92"/>
          <rect class="cls-12" x="49.77" y="103.59" width="4.49" height="11.88"/>
          <path class="cls-12" d="M14.79,101.26h5.4v9.02c0,1.08-.87,1.95-1.95,1.95h-1.5c-1.08,0-1.95-.87-1.95-1.95v-9.02h0Z"/>
          <path class="cls-12" d="M19.44,109.53c.65,.74,16.37,15.54,16.37,15.54l-1.33,1.83-16.62-16.39,1.58-.98Z"/>
          <path class="cls-4" d="M162.27,136.83h.88c1.84,0,3.32,1.49,3.32,3.32v4.27h-4.1s-1.83-3.16-2.49-2.49c-.66,.66,2.39-5.1,2.39-5.1Z"/>
          <circle class="cls-14" cx="55.1" cy="169.13" r="24.09"/>
          <path class="cls-3" d="M65.96,169.13c0,6-4.86,10.86-10.86,10.86s-10.86-4.86-10.86-10.86,4.86-10.86,10.86-10.86,10.86,4.86,10.86,10.86Z"/>
          <circle class="cls-14" cx="169.3" cy="169.13" r="24.09" transform="translate(-4.01 334.14) rotate(-88.57)"/>
          <path class="cls-3" d="M180.15,169.13c0,6-4.86,10.86-10.86,10.86s-10.86-4.86-10.86-10.86,4.86-10.86,10.86-10.86,10.86,4.86,10.86,10.86Z"/>
          <path class="cls-16" d="M26.95,150.4h56.91v15.18H26.95c-2.77,0-5.01-2.25-5.01-5.01v-5.15c0-2.77,2.25-5.01,5.01-5.01Z"/>
          <rect class="cls-13" x="44.1" y="112.95" width="53.93" height="9.05" rx="3.27" ry="3.27"/>
          <path class="cls-11" d="M96.13,121.15s-4.31,2.38-7.8,12.35c-3.49,9.97-2.74,25.01,18.95,26.18h33.32l3.32-5.84s-2.83-39.78-9.31-57.39h10.97s3.31,33.86,14.94,38.43c1.12,.44,1.84,1.53,1.84,2.74v6.7l-17.62,22.77h-58s-13.63,1.2-16.95-21.94l-39.32-.6c-2.16-.03-3.68-2.12-3.05-4.18,1.23-3.99,3.72-9.63,8.26-10.87,7.19-1.96,60.45-8.34,60.45-8.34Z"/>
          <path class="cls-16" d="M32.6,130.78c.05,.09,.11,.18,.17,.27h56.5l.58-1.33c3.11-6.81,6.29-8.57,6.29-8.57H38.19c-4.94,0-8.11,5.38-5.58,9.63Z"/>
          <path class="cls-13" d="M29.18,150.4h42.21c4.54,0,7.72-4.47,6.23-8.76-2.25-6.47-7.48-13.43-20.34-14.62-16.62-1.54-26.67,11.74-30.65,19.11-1.04,1.93,.36,4.26,2.55,4.26Z"/>
          <path class="cls-13" d="M144.75,167.08l12.96-20.94s6.65-5.15,19.78-2.49c8.15,1.65,12.98,7.09,15.46,10.98,1.15,1.8-.13,4.16-2.27,4.16h-19.96c-6.12,0-11.91,2.77-15.75,7.54l-.51,.64c-2.77,3.44-6.95,5.44-11.37,5.44h0c-2.99,0-5.86-1.14-8.03-3.19l-2.27-2.13h11.97Z"/>
          <path class="cls-13" d="M146.48,75.6c0-1.76-1.61-3.08-3.34-2.74-7.35,1.45-15.07,7.34-15.07,14.38s7.72,12.94,15.07,14.38c1.73,.34,3.34-.98,3.34-2.74v-23.28Z"/>
          <path class="cls-2" d="M146.48,75.66v23.16c4.91-1.56,8.47-6.15,8.47-11.58s-3.56-10.02-8.47-11.58Z"/>
          <rect class="cls-10" x="4.76" y="67.78" width="57.28" height="34.54"/>
          <rect class="cls-13" x="3.55" y="63.43" width="59.72" height="4.35"/>
          <path class="cls-7" d="M18.68,109.32c0,.65-.53,1.18-1.18,1.18s-1.18-.53-1.18-1.18,.53-1.18,1.18-1.18,1.18,.53,1.18,1.18Z"/>
          <rect class="cls-6" x="40.32" y="135.94" width="28.42" height="1.58" rx=".57" ry=".57"/>
          <rect class="cls-6" x="40.32" y="139.94" width="28.42" height="1.58" rx=".57" ry=".57"/>
          <polygon class="cls-8" points="117.59 138.76 115.5 161.13 113.71 164.35 110.5 162.03 110.56 138.19 117.59 138.76"/>
          <polygon class="cls-8" points="129.66 136.67 128.64 161.13 126.85 164.35 123.63 162.03 123.7 138.19 129.66 136.67"/>
          <g>
            <path class="cls-9" d="M122.94,164.46h13.89c.11,0,.2,.09,.2,.2v1.04c0,.11-.09,.2-.2,.2h-13.88c-.11,0-.2-.09-.2-.2v-1.04c0-.11,.09-.2,.2-.2Z" transform="translate(-.55 .43) rotate(-.19)"/>
            <path class="cls-13" d="M123.38,160.12l-.46,4c-.06,.49,.22,.94,.58,.94l12.58-.04c.33,0,.65-.21,.82-.59,.17-.39,.21-.99-.36-1.78-1.13-1.59-4.83-1.96-6.65-3.32l-5.86,.02c-.33,0-.61,.33-.66,.77Z"/>
            <path class="cls-9" d="M129.02,161.65h0c-.09-.06-.12-.21-.07-.33,.25-.55,1.01-1.88,2.58-1.62,.09,.02,.15,.14,.14,.26h0c-.01,.12-.1,.2-.18,.19-1.41-.24-2.06,.94-2.26,1.4-.04,.1-.13,.14-.21,.09Z"/>
            <path class="cls-9" d="M130.33,162.16h0c-.09-.06-.12-.21-.07-.33,.25-.55,1.01-1.88,2.58-1.62,.09,.02,.15,.14,.14,.26h0c-.01,.12-.1,.2-.18,.19-1.41-.24-2.06,.94-2.26,1.4-.04,.1-.13,.14-.21,.09Z"/>
            <path class="cls-9" d="M131.54,162.63h0c-.09-.06-.12-.21-.07-.33,.25-.55,1.01-1.88,2.58-1.62,.09,.02,.15,.14,.14,.26h0c-.01,.12-.1,.2-.18,.19-1.41-.24-2.06,.94-2.26,1.4-.04,.1-.13,.14-.21,.09Z"/>
            <path class="cls-1" d="M126.86,165.04c-1-3.22-2.71-3.58-3.64-3.5l-.3,2.57c-.06,.49,.22,.94,.58,.94h3.36Z"/>
          </g>
          <rect class="cls-6" x="40.32" y="143.93" width="28.42" height="1.58" rx=".57" ry=".57"/>
          <path class="cls-11" d="M120.85,105.85c1.65,.13,8.48,2.91,9.37,7.85,.89,4.94,0,43.28,0,43.28h-7.59s-6.07-30.37-6.07-31.26,4.3-19.87,4.3-19.87Z"/>
          <path class="cls-6" d="M68.71,94.84c.13,.38-1.67,17.34,15.62,18.73,17.29,1.39,27.28,3.67,27.28,3.67,0,0-2.4,38.35-2.28,40.24,0,0,5.95,1.01,8.48,.63,0,0,13.54-42.52,9.62-51.25-3.92-8.73-35.18-12.02-35.18-12.02h-23.54Z"/>
          <path class="cls-15" d="M97.49,64.35s.18,8.26,.73,9.02c.55,.76,26.75,10.77,26.75,10.77l-4.3,4.86-19.3-5.51s-13.82-4.96-13.68-5.32c.14-.36,.9-5.44,1.59-7.43,.68-1.99,3.26-6.49,3.26-6.49l4.96,.09Z"/>
          <path class="cls-16" d="M87.82,35.54s-17.5,6.36-19.5,40.91l-.85,19.65s19.93,8.54,31.32,1.14c0,0,1.15-35.07,2.35-47.89,.2-2.16-.68-4.28-2.35-5.67-3.82-3.16-10.33-8.44-10.98-8.14Z"/>
          <path class="cls-8" d="M81.75,60.09s-4.28,17.69,1.7,22.55c3.73,3.03,38.52,8.97,38.52,8.97l2.24-5.42s-27.7-9.89-29.35-11.03c-1.65-1.15,1.12-16.27,1.12-16.27l-14.23,1.2Z"/>
          <path class="cls-11" d="M95.28,41.94c-1.57-1.39-3.81-1.76-5.74-.94-2.67,1.13-6.5,4.34-8.57,13.36l-1.75,7.79s13,3.19,16.99,3.01l2.04-12.04s1.16-7.52-2.96-11.18Z"/>
          <path class="cls-6" d="M52.71,63.43h-10.65l-19.96,38.89h10.65l19.96-38.89h0Z"/>
          <path class="cls-4" d="M39.31,88.01l-7.15-3.67c-1.1-.56-1.53-1.91-.97-3.01l2.1-4.09c.56-1.1,1.91-1.53,3.01-.97l7.15,3.67c1.1,.56,1.53,1.91,.97,3.01l-2.1,4.09c-.56,1.1-1.91,1.53-3.01,.97Zm-3.6-10.57c-.45-.23-1.01-.05-1.24,.4l-2.1,4.09c-.23,.45-.05,1.01,.4,1.24l7.15,3.67c.45,.23,1.01,.05,1.24-.4l2.1-4.09c.23-.45,.05-1.01-.4-1.24l-7.15-3.67Z"/>
          <path class="cls-8" d="M93.49,22.53c.88,1.92,.17,4.07-1.6,4.8-1.76,.74-3.91-.22-4.79-2.14-.88-1.92-.17-4.07,1.6-4.8,1.76-.74,3.91,.22,4.79,2.14Z"/>
          <g>
            <path class="cls-9" d="M109.49,164.46h13.88c.11,0,.2,.09,.2,.2v1.04c0,.11-.09,.2-.2,.2h-13.88c-.11,0-.2-.09-.2-.2v-1.04c0-.11,.09-.2,.2-.2Z" transform="translate(-.55 .39) rotate(-.19)"/>
            <path class="cls-13" d="M109.93,160.12l-.46,4c-.06,.49,.22,.94,.58,.94l12.58-.04c.33,0,.65-.21,.82-.59,.17-.39,.21-.99-.36-1.78-1.13-1.59-4.83-1.96-6.65-3.32l-5.86,.02c-.33,0-.61,.33-.66,.77Z"/>
            <path class="cls-9" d="M115.57,161.65h0c-.09-.06-.12-.21-.07-.33,.25-.55,1.01-1.88,2.58-1.62,.09,.02,.15,.14,.14,.26h0c-.01,.12-.1,.2-.18,.19-1.41-.24-2.06,.94-2.26,1.4-.04,.1-.13,.14-.21,.09Z"/>
            <path class="cls-9" d="M116.88,162.16h0c-.09-.06-.12-.21-.07-.33,.25-.55,1.01-1.88,2.58-1.62,.09,.02,.15,.14,.14,.26h0c-.01,.12-.1,.2-.18,.19-1.41-.24-2.06,.94-2.26,1.4-.04,.1-.13,.14-.21,.09Z"/>
            <path class="cls-9" d="M118.1,162.63h0c-.09-.06-.12-.21-.07-.33,.25-.55,1.01-1.88,2.58-1.62,.09,.02,.15,.14,.14,.26h0c-.01,.12-.1,.2-.18,.19-1.41-.24-2.06,.94-2.26,1.4-.04,.1-.13,.14-.21,.09Z"/>
            <path class="cls-1" d="M113.42,165.04c-1-3.22-2.71-3.58-3.64-3.5l-.3,2.57c-.06,.49,.22,.94,.58,.94h3.36Z"/>
          </g>
          <rect class="cls-16" x="74.68" y="164.64" width="76.23" height="8.32" rx="3" ry="3"/>
          <path class="cls-2" d="M106.81,30.95l-.69,2.68s-6-4.86-5.96-4.96c.05-.09,1.09-1.83,1.54-1.68,.45,.14,4.2,1.59,4.2,1.68s.9,2.28,.9,2.28Z"/>
          <path class="cls-8" d="M102.61,29.11c1.83,1.78,3.62,2.15,4.42,2.22,.26-.92,.43-1.59,.43-1.59,0,0,2.02-.63,2.67-1.34,0,0-2.04-2.8-2.07-4.11-.03-1.31,2-9.16-3.65-13.61-5.65-4.45-9.01,3.53-9.01,3.53l-2.4,8.26-3.29,5s.79,4.52,5.28,7.7c4.49,3.18,9.44,1.96,10.28,1.57,.21-.1,.81-2.05,1.33-3.87-2.93-1.01-3.99-3.76-3.99-3.76Z"/>
          <path class="cls-6" d="M103.66,24.04c.24,.41,.78,.56,1.22,.33,.43-.23,.59-.75,.35-1.16-.24-.41-.78-.56-1.22-.33-.43,.23-.59,.75-.35,1.16Z"/>
          <path class="cls-6" d="M102.38,22.46c.31-.27,.62-.5,.94-.69,.32-.2,.65-.35,1-.45,.34-.09,.7-.16,1.07-.15h.14s.09,0,.14,0h.29c.19,.03,.38,.07,.59,.07-.16-.12-.33-.22-.51-.31-.19-.07-.38-.16-.59-.18-.41-.09-.86-.06-1.27,.06-.42,.12-.81,.35-1.11,.63-.3,.29-.55,.64-.68,1.02Z"/>
          <path class="cls-13" d="M96.32,18.07s-1.98,1.68-2.48,9.41c-.38,6-5.4,6.97-5.3,6.94,.1-.03,1.41-13.17,1.66-13.61,.25-.44,1.94-5.44,2.2-5.57,.26-.13,3.68,2.1,3.87,2.16,.19,.06,.04,.67,.04,.67Z"/>
          <path class="cls-10" d="M112.23,12.58S110.2-.69,93.18,.03c-17.02,.72-16.46,20.46-16.46,20.46,0,0-.68,14.3,9.5,14.3,0,0,6.9,.44,6.9-8.16s2.53-8.32,2.53-8.32l16.58-5.72Z"/>
          <path class="cls-13" d="M80.43,6.89c-3.93,5.95-3.72,13.58-3.72,13.58,0,0-.68,14.3,9.5,14.3,0,0,6.72,.43,6.89-7.83-9.35-3.31-12.37-11.53-12.68-20.06Z"/>
          <path class="cls-10" d="M87.89,29.41c0,1.07-.86,1.93-1.93,1.93s-1.93-.86-1.93-1.93,.86-1.93,1.93-1.93,1.93,.86,1.93,1.93Z"/>
          <path class="cls-11" d="M95.65,18.3c.52-.18,13.5-1.18,19.59-1.64,1.04-.08,1.41-1.42,.55-2.02l-3.57-2.49-16.58,6.15Z"/>
          <path class="cls-16" d="M95.65,18.3c.58-.2,13.26-4.4,16.9-5.6,.53-.17,.79-.76,.57-1.27l-.49-1.15c-.22-.51-.83-.73-1.32-.46l-15.66,8.49Z"/>
          <path class="cls-8" d="M121.03,85.63s4.3-2.62,6.17-2.62,5.8,1.12,5.8,2.99-1.12,2.99-1.12,2.99l-3.8,3.28s-1.81,1.4-2.56,.65-2.99,.19-6.69-1.86c-3.63-2.01-.22-3.19,.34-3.75,.56-.56,1.87-1.68,1.87-1.68Z"/>
          <path class="cls-11" d="M132.94,88.39c0,2.2-1.78,3.98-3.98,3.98s-3.98-1.78-3.98-3.98,1.78-3.98,3.98-3.98,3.98,1.78,3.98,3.98Z"/>
        </g>
      </g>
    </g>
  </g>
</svg>