<?xml version="1.0" encoding="UTF-8"?>
<svg id="Layer_2" data-name="Layer 2" xmlns="http://www.w3.org/2000/svg" viewBox="0 0 234.36 148">
  <defs>
    <style>
      .cls-1 {
        fill: #dba100;
      }

      .cls-2 {
        fill: #e1a12e;
      }

      .cls-3 {
        fill: #e5a900;
      }

      .cls-4 {
        fill: #f2b800;
      }

      .cls-5 {
        opacity: .34;
      }

      .cls-5, .cls-6, .cls-7 {
        fill: #fff;
      }

      .cls-8 {
        fill: #c5c5c5;
      }

      .cls-9 {
        fill: #85b52f;
      }

      .cls-10 {
        fill: #d14221;
      }

      .cls-11 {
        fill: #f4ce64;
      }

      .cls-6 {
        opacity: .23;
      }

      .cls-12 {
        fill: #97cc4a;
      }

      .cls-13 {
        fill: #f7d007;
      }

      .cls-14 {
        fill: #ccf47b;
      }

      .cls-15 {
        fill: #efb600;
      }

      .cls-16 {
        fill: #bae5be;
      }

      .cls-17 {
        fill: #913933;
      }

      .cls-18 {
        fill: #ef8800;
      }

      .cls-19 {
        fill: #dd7300;
      }

      .cls-20 {
        fill: #f25227;
      }

      .cls-21 {
        fill: #969696;
      }

      .cls-22 {
        fill: #509324;
      }

      .cls-23 {
        fill: #828282;
      }

      .cls-24 {
        fill: #ce912e;
      }

      .cls-25 {
        fill: #ef7200;
      }

      .cls-26 {
        fill: #eaba66;
      }

      .cls-27 {
        fill: #ffdb64;
      }

      .cls-28 {
        fill: #c25800;
      }

      .cls-29 {
        fill: #a3a3a3;
      }

      .cls-30 {
        fill: #7db762;
      }

      .cls-7 {
        opacity: .29;
      }

      .cls-31 {
        fill: #edc767;
      }

      .cls-32 {
        fill: #cee2da;
      }

      .cls-33 {
        fill: #ffea23;
      }

      .cls-34 {
        fill: #cc6f00;
      }

      .cls-35 {
        fill: #c66000;
      }

      .cls-36 {
        fill: #a58a49;
      }

      .cls-37 {
        fill: #80af53;
      }

      .cls-38 {
        fill: #ce5c00;
      }

      .cls-39 {
        fill: #99d679;
      }

      .cls-40 {
        fill: #8dcc31;
      }
    </style>
  </defs>
  <g id="Layer_1-2" data-name="Layer 1">
    <g>
      <g>
        <path class="cls-32" d="M33.6,20.97c-.91,.82-1.34,2.31-.6,3.28,.36,.47,.93,.74,1.49,.94,3.66,1.3,7.89,.24,11.46,1.79,1.13,.49,2.14,1.22,3.28,1.67,2.69,1.08,5.72,.52,8.62,.29,6.71-.53,13.4,.82,20.07,1.67,6.67,.86,13.66,1.18,19.92-1.28,1.05-.41,2.25-1.21,2.08-2.32-.07-.47-.39-.87-.74-1.2-1.14-1.06-2.66-1.6-4.14-2.11,3.8-.75,7.59-1.49,11.39-2.24,1.35-.27,3-.84,3.14-2.21,.06-.56-.19-1.11-.49-1.59-1.13-1.77-3.11-2.84-5.15-3.34-2.04-.5-4.16-.49-6.25-.54-9.63-.23-19.23-1.76-28.87-1.16-7.62,.48-14.31,2.76-21.52,4.81-3.93,1.12-10.53,.72-13.67,3.53Z"/>
        <path class="cls-37" d="M102.5,6.88c4.94,1.39,9.72,3.76,13.21,7.52-7.01-4.64-15.58-6.86-23.96-6.21,3.96,.17,7.89,.93,11.63,2.24-3.53-1.04-7.34-1.12-10.91-.24,4.28,2.69,9.74,2.64,14.71,1.76,4.98-.88,9.86-2.49,14.92-2.62-4.13,1.59-8.51,2.43-12.87,3.25-3.19,.61-6.38,1.21-9.61,1.58-3.4,.39-6.84,.52-10.26,.38,2.12,.07,4.24,.53,6.2,1.35,.42,.17,.91,.61,.65,.98-3.11,.01-6.21-.84-8.88-2.43-1.76-1.06-3.34-2.44-5.23-3.26-.77-.34-1.64-.63-2.06-1.36-.61-1.06,.11-2.41,1.03-3.22,2.37-2.09,6.12-2.06,9.1-1.8,4.14,.37,8.31,.93,12.32,2.06Z"/>
        <path class="cls-25" d="M18.52,19.63c3.04-2.69,6.15-5.43,9.9-7,2.46-1.03,5.11-1.52,7.67-2.29,2.78-.84,5.45-2.01,8.16-3.07C52.73,3.92,61.61,1.58,70.65,.41c3.6-.47,7.32-.74,10.81,.29,3.48,1.02,6.71,3.58,7.61,7.1,.71,2.81-.13,5.77-1.25,8.44-.47,1.12-1.04,2.26-2.02,2.97-1.8,1.28-4.25,.68-6.43,.38-3.76-.51-7.58,.06-11.38,.09-7.5,.06-14.85-2-22.32-2.56-4.08-.31-8.18-.17-12.27,.08-2.03,.12-4.07,.28-6.02,.86-3.02,.9-5.65,2.79-8.2,4.64-2.11,1.53-3.84,3.45-5.73,5.25-4.33,4.11-.41,7.05-1.04,7.39-.43,.27-1.08-1.07-1.41-1.74-.33-.68-.5-1.43-.5-2.19-.02-1.51,.38-2.83,1.12-4.14,1.71-3.02,4.36-5.37,6.92-7.64Z"/>
        <path class="cls-38" d="M87.73,5.26c.32,2.07-.33,4.37-2.1,5.42-2.7,1.61-6.49-.27-9.18,1.37,.31,.22,.62,.44,.94,.66-1.99,1.52-4.71,1.52-7.21,1.46-3.95-.1-7.9-.2-11.85-.3,1.58,.81,3.28,1.38,5.03,1.68-5.16,1.52-10.45-1.88-15.82-2.09-3.68-.15-7.25,1.21-10.92,1.5-1.88,.15-3.79,.01-5.66,.31-1.81,.29-3.53,.98-5.18,1.77-3.11,1.5-6.03,3.4-8.66,5.63-.99,.84-3.92,4.83-5.17,4.65-.16-.02-.3-.09-.43-.2-.03,.06-.07,.11-.1,.17-.74,1.31-1.14,2.62-1.12,4.14,0,.75,.18,1.51,.5,2.19,.32,.67,.98,2,1.41,1.74,.64-.34-3.28-3.28,1.04-7.39,1.89-1.79,3.62-3.72,5.73-5.25,2.56-1.85,5.18-3.74,8.2-4.64,1.95-.58,3.99-.73,6.02-.86,4.08-.25,8.19-.39,12.27-.08,7.48,.56,14.83,2.62,22.32,2.56,3.8-.03,7.61-.6,11.38-.09,2.19,.3,4.64,.9,6.43-.38,.99-.7,1.55-1.85,2.02-2.97,1.13-2.67,1.97-5.63,1.25-8.44-.23-.92-.63-1.78-1.15-2.56Z"/>
        <path class="cls-7" d="M47.1,8.35c-2.57,.75-5.32,1.06-7.67,2.34,6.59,.22,12.61-3.67,19.12-4.71,3.01-.48,6.09-.35,9.13-.61,.66-.06,1.55-.47,1.31-1.1-.15-.4-.68-.47-1.11-.49-3.32-.09-6.6-.47-9.83,.43-3.77,1.05-7.2,3.04-10.95,4.13Z"/>
      </g>
      <g>
        <path class="cls-27" d="M49.99,42c1.41,2.41,3.99,3.87,6.56,4.97,7.3,3.13,15.45,4.24,23.32,3.15,2.54-.35,5.09-.92,7.64-.66,.18,3.98-2.55,7.65-5.95,9.72-3.41,2.08-7.42,2.87-11.33,3.63-6.65,1.28-13.29,2.57-19.94,3.85-.52,.1-1.11,.26-1.31,.75-.19,.46,.08,.98,.42,1.34,1.07,1.12,2.76,1.37,4.31,1.48,17.62,1.22,35.17-7.45,46.57-20.94-1.87,3.78-.2,8.57,2.91,11.42,3.11,2.84,7.34,4.1,11.47,4.91,8.18,1.6,16.71,1.78,24.79-.24,.45-.11,.92-.24,1.25-.56,.78-.74,.43-2.14-.41-2.82-.84-.67-1.97-.81-3.04-.96-6.94-.97-13.71-3.2-19.87-6.55-3.59-1.95-7.23-4.62-8.28-8.57-.55-2.05-.32-4.24-.76-6.32-.44-2.08-1.89-4.24-4.02-4.35-.93-.05-1.83,.31-2.69,.65-12.42,4.98-25.58,9.55-38.88,8.07-2.83-.32-5.67-.92-8.28-2.08-1.07-.48-2.56-1.93-3.64-2.12-1.27-.23-1.4,1.29-.86,2.23Z"/>
        <path class="cls-15" d="M140.4,59.94c-.95-.74-2.18-1.02-3.37-1.23-4.86-.88-9.92-1.07-14.49-2.96-4.57-1.89-8.68-6.1-8.47-11.04,.11-2.6,1.39-5.04,1.46-7.64,.06-1.95-.68-3.84-1.9-5.35,.03-.39,.08-.78,.16-1.17,.3-1.45,1.04-2.86,2.29-3.65s3.04-.79,4.11,.23c.41,.39,.69,.9,1.08,1.31,.39,.41,.96,.73,1.51,.58,.58-.16,1-.8,1.6-.75-.1-1.79-.76-3.54-1.87-4.95-.16-.21-.34-.41-.56-.54-.3-.18-.66-.21-1.01-.23-3.2-.16-6.44,.75-9.08,2.56-1.45,.99-2.82,2.08-4.27,3.05-.06,.04-.13,.09-.18,.13-1.01-.17-2.03-.19-2.9,.09-2.03,.65-3.88,1.86-5.6,3.09-2,1.44-3.89,3.05-5.92,4.45-6.12,4.21-13.65,6.32-21.06,5.9-7.28-.42-14.48-3.18-21.69-2.07,.04,1.22,1.1,2.15,2.1,2.84,5.4,3.74,11.91,5.69,18.46,6.26,6.55,.57,9.89-.71,16.34-1.99-8.8,6.02-13.47,8.71-24.36,13.54-4.71,2.09-14.9,4-13.81,6.83,.94,1.1,2.54,1.3,3.99,1.36,7.76,.32,15.53-1.04,22.92-3.41,4.72-1.51,9.35-3.45,13.38-6.33,6.83-4.88,11.54-12.12,15.92-19.29-1.73,3.09-3.13,6.43-3.48,9.95-.35,3.52,.44,7.26,2.7,9.98,2.95,3.56,7.8,4.86,12.38,5.53,6.99,1.02,14.13,1.05,21.12,.08,1.42-.2,3.07-.61,3.61-1.94,.46-1.12-.14-2.45-1.1-3.19Z"/>
        <path class="cls-1" d="M141.53,61.54c-.2-.62-.61-1.2-1.13-1.6-.95-.74-2.18-1.02-3.37-1.23-4.86-.88-9.92-1.07-14.49-2.96-4.57-1.89-8.68-6.1-8.47-11.04,.11-2.6,1.39-5.04,1.46-7.64,.06-1.95-.68-3.84-1.9-5.35,.03-.39,.08-.78,.16-1.17,.3-1.45,1.04-2.86,2.29-3.65s3.04-.79,4.11,.23c.41,.39,.69,.9,1.08,1.31,.39,.41,.96,.73,1.51,.58,.58-.16,1-.8,1.6-.75,0-.03,0-.05,0-.08-1.05-.2-1.97-.56-2.28-1.5-.11-.33-.12-.68-.26-.99-.33-.74-1.22-1.05-2.03-1.13-1.73-.17-3.53,.39-4.86,1.51-.95,.8-1.66,1.85-2.59,2.68-.93,.83-2.21,1.44-3.4,1.06,1.38,.87,2.41,2.28,2.8,3.87,.75,3.03-.77,6.08-1.59,9.09-.59,2.17-.83,4.43-.7,6.68,.09,1.53,.38,3.12,1.28,4.36,1.26,1.72,3.46,2.44,5.54,2.93,7.23,1.7,14.74,1.82,22.06,3.08,.68,.12,1.39,.26,1.96,.66,.56,.4,.94,1.15,.71,1.81,.18-.23,.35-.48,.51-.73Z"/>
        <path class="cls-1" d="M101.12,35.3c-9.43,9.1-23.04,13.02-36.15,12.64,6.58,.86,13.38,1.36,19.76-.49,6.43-1.87,11.7-7.63,16.39-12.15Z"/>
        <path class="cls-1" d="M105.68,34.91c-1.04,2.42-2.7,4.52-4.44,6.51-9.84,11.25-22.8,19.73-37.05,24.24,3.39-1.18,6.95-2.27,10.03-4.12,2.9-1.74,5.77-3.52,8.58-5.4,5.62-3.76,11.01-7.9,15.77-12.73,1.32-1.34,2.6-2.74,3.81-4.19,1.06-1.27,2.64-2.8,3.3-4.32Z"/>
        <path class="cls-5" d="M102.47,29.96c-2.06,1.07-3.53,3-5.41,4.36-.69,.5-1.44,.93-2.17,1.37-.12,.07-.25,.16-.26,.3-.03,.21,.23,.34,.44,.36,.56,.05,1.11-.17,1.6-.45,1.1-.61,2.05-1.47,3.06-2.22,1.01-.75,2.14-1.42,3.4-1.56,.56-.06,1.13-.02,1.67-.18,.54-.16,1.05-.61,1.04-1.18-.04-1.81-2.38-1.32-3.37-.8Z"/>
      </g>
      <g>
        <path class="cls-36" d="M195.21,12.95c.61-.02,1.28-.01,1.77,.36,.63,.48,.7,1.54,.14,2.1-.1,.1-.23,.19-.37,.17-.17-.02-.27-.18-.37-.31-.61-.84-1.64-1.32-2.67-1.46-1.03-.14-2.09,.02-3.11,.24-3.42,.76-6.68,2.25-9.48,4.35-.62,.47-1.25,1.11-1.94,1.46-.5,.25-.58,.37-.52-.21,.12-1.14,1.95-1.99,2.77-2.5,2.64-1.63,5.54-2.82,8.56-3.51,1.71-.39,3.46-.63,5.21-.7Z"/>
        <path class="cls-27" d="M162.56,24.39c-1.34,2.79-3.48,5.11-5.79,7.16-4.52,3.98-10.3,7.15-16.3,6.56,1.34,5.46,4.38,10.43,8.34,14.42,3.96,3.99,8.82,7.02,13.98,9.23,.71,.3,1.61,.56,2.17,.04,.29-.27,.4-.69,.48-1.07,.73-3.25,1.27-6.53,1.62-9.84,.3-2.87,.5-5.87,1.97-8.35,.92-1.55,2.29-2.79,3.69-3.94,2.03-1.66,4.22-3.21,6.74-3.98,2.51-.76,4.48-.04,6.63,1.46-2.04-6.68-6.07-12.72-11.61-16.98-2.28-1.76-6.87-5.06-10.02-4-1.69,.57-.63,1.86-.56,3.39,.09,2.01-.47,4.1-1.33,5.9Z"/>
        <path class="cls-31" d="M165.47,60.7c.73-3.25,1.27-6.53,1.62-9.84,.3-2.87,.5-5.87,1.97-8.35,.92-1.55,2.29-2.79,3.69-3.94,2.03-1.66,4.22-3.21,6.74-3.98s4.48-.04,6.63,1.46c-.25-.83-.54-1.65-.85-2.46-.08-.11-.16-.22-.24-.33-1.91-2.55-3.83-5.1-5.74-7.65-1.78-2.37-3.59-4.78-5.9-6.65-2.31-1.87-5.2-3.19-8.17-3.02l-.43-.24c1.47,2.87,2.28,6.07,2.32,9.3,1.74-.24,3.59,.71,4.4,2.27,.64,1.22,.66,2.69,1.32,3.89,.11,.2,.23,.39,.27,.61,.1,.66-.63,1.12-1.25,1.37-2.33,.95-4.77,1.68-6.95,2.94-2.18,1.25-4.15,3.15-4.79,5.58-.49,1.85-.16,3.82,.29,5.68,.27,1.08,.56,2.29-.01,3.25-.23,.38-.58,.68-.85,1.03-1.04,1.33-.91,3.2-.72,4.87,.1,.93,.21,1.88,.67,2.7,.46,.83,1.23,1.43,2.04,1.95,.43,.2,.86,.39,1.3,.58,.71,.3,1.61,.56,2.17,.04,.29-.27,.4-.69,.48-1.07Z"/>
        <path class="cls-40" d="M171.65,12.66c3,.42,5.77,2.25,7.33,4.85,.31,.52,.59,1.08,1.02,1.52,.64,.65,1.55,.93,2.35,1.38,1.85,1.04,3.06,2.97,3.68,4.99,.62,2.03,.71,4.17,.8,6.29,.06,1.51,.1,3.14-.73,4.4-.7-1.8-2.56-3.07-4.48-3.08-.84,0-1.7,.21-2.52,.02-1.27-.3-2.12-1.49-2.73-2.64-1.67-3.14-2.72-6.89-5.66-8.9-.26-.18-.57-.35-.89-.31-.43,.06-.75,.49-1.18,.52-.69,.04-.95-.87-1.1-1.55-.51-2.3-2.26-3.61-4.28-4.52,.58-2.59,6.34-3.24,8.41-2.95Z"/>
        <path class="cls-40" d="M144.66,42.01c-.08,1.45,.49,2.86,1.14,4.16,.58,1.16,1.24,2.3,2.12,3.26,1.06,1.15,2.4,1.99,3.45,3.14,.87,.95,1.54,2.12,2.6,2.85,1.46,1,3.57,.93,4.97-.15,.09,1.47,1.12,2.73,2.28,3.62s2.51,1.55,3.66,2.47c.07,.05,.14,.12,.16,.2,.03,.16-.14,.29-.29,.36-.47,.23-.94,.47-1.41,.7-.34,.17-.68,.34-1.05,.37-.37,.03-.73-.08-1.08-.2-4.17-1.39-7.94-3.96-10.76-7.34-.21-.26-.43-.52-.71-.7-.32-.2-.7-.26-1.06-.36-1.41-.39-2.6-1.32-3.66-2.33-3-2.84-5.3-6.42-6.63-10.34-.28-.82-.52-1.68-.51-2.55s.29-1.77,.92-2.37c.53,.56,1.25,1.11,1.71,1.71,.38,.49,.5,1.15,.88,1.68,.39,.54,.91,1,1.5,1.31,.13,.07,1.78,.67,1.79,.5Z"/>
        <path class="cls-9" d="M181.6,32.99c1.93,0,3.79,1.29,4.48,3.08,.83-1.27,.79-2.89,.73-4.4-.09-2.12-.18-4.26-.8-6.29-.62-2.03-1.83-3.96-3.68-4.99-.79-.45-1.7-.73-2.35-1.38-.43-.43-.7-.99-1.02-1.52-.41-.68-.89-1.3-1.45-1.86-1.68-.11-3.4,.4-4.74,1.43-.19,.15-.39,.35-.36,.59,.03,.23,.27,.36,.48,.45,2.18,.93,4.8,.78,6.75,2.13,2.04,1.41,2.76,4.42,1.59,6.6-.24,.44-.55,.85-.97,1.11-.61,.38-1.4,.39-2.08,.17-.69-.22-1.29-.64-1.84-1.09-1.15-.94-2.15-2.04-2.98-3.27-.73-1.09-1.44-2.37-2.7-2.73-.22-.06-.46-.09-.67,.01-.06,.03-.11,.07-.15,.11,.3-.02,.58,.14,.82,.31,2.93,2.01,3.98,5.76,5.66,8.9,.61,1.15,1.46,2.34,2.73,2.64,.82,.19,1.68-.02,2.52-.02Z"/>
        <path class="cls-36" d="M161.24,33.65c-.51,.26-1.03,.52-1.49,.87-1.33,1-2.09,2.63-2.26,4.29,1.44-1.11,3.37-1.64,4.43-3.11,.3-.42,1.04-1.61,.93-2.15-.15-.74-1.12-.14-1.6,.1Z"/>
        <path class="cls-36" d="M165.65,37.69c-.51,.26-1.03,.52-1.49,.87-1.33,1-2.09,2.63-2.26,4.29,1.44-1.11,3.37-1.64,4.43-3.11,.3-.42,1.04-1.61,.93-2.15-.15-.74-1.12-.14-1.6,.1Z"/>
      </g>
      <g>
        <path class="cls-2" d="M22.57,76.73c0,3.79-2.92,7.18-2.65,10.96,5.86,3.04,13.48,2.25,18.6-1.92,2.19-1.78,3.96-4.21,4.45-6.98,.49-2.78-.5-5.89-2.82-7.49-1.11-.76-2.43-1.14-3.62-1.78s-2.31-1.65-2.48-2.98c-.06-.5,.02-1,.05-1.5,.2-3.06-1.43-6.18-4.06-7.75-.7-.42,4.78-4.36,4.24-4.96-1.5-1.65-6.79-.7-5.42-2.45-.76-.53-1.78-.03-2.55,.48-5.66,3.78-14.87,10.09-17.76,16.47-1.59,3.52,6.07,2.23,8.26,2.81,3.25,.85,5.75,3.64,5.76,7.1Z"/>
        <path class="cls-24" d="M28.86,49.87c-.76-.53-1.78-.03-2.55,.48-4.25,2.84-9.51,6.88-13.09,11.42,.19,1.3,.79,2.62,1.73,3.21,.87,.54,2.17,.48,3.14,.81,1.21,.42,2.35,1.05,3.33,1.88-.29-1.57-.36-3.19-.21-4.78,.59,.94,1.31,1.81,2.12,2.57,.2,.19,.43,.39,.71,.44,.74,.15,1.25-.72,1.43-1.45,.18-.73,.4-1.63,1.13-1.82,.82,1.61,2.29,2.87,4,3.43,0-1.14-.07-2.28-.23-3.41,.43,1.8,.85,3.6,1.28,5.4,.1,.43,.21,.88,.16,1.32-.05,.46-.27,.89-.45,1.31-.5,1.13-.83,2.34-.98,3.57-.04,.33-.06,.69,.13,.97,.14,.2,.36,.32,.58,.43,3.69,1.87,7.39,3.74,11.08,5.62,.34-.72,.6-1.47,.76-2.26,.01-.93,.04-1.86,.08-2.79-.28-1.96-1.25-3.8-2.86-4.91-1.11-.76-2.43-1.14-3.62-1.78-1.19-.63-2.31-1.65-2.48-2.98-.06-.5,.02-1,.05-1.5,.2-3.06-1.43-6.18-4.06-7.75-.7-.42,4.78-4.36,4.24-4.96-1.5-1.65-6.79-.7-5.42-2.45Z"/>
        <path class="cls-27" d="M52.21,103.74c1.07,1.24,2.16,2.54,2.68,4.1,.52,1.55,.45,3.28,1.19,4.73,1.46,2.83,5.87,3.24,8.16,1.03,2.29-2.21,2.31-6.17,.43-8.74,2.68,.89,5.97-.03,7.47-2.42,1.49-2.39,.63-6.06-1.95-7.21-2.95-1.31-6.38,.81-9.57,.28-1.72-.28-3.21-1.31-4.58-2.4-2.48-1.97-4.74-4.2-6.74-6.65-.76-.93-1.9-2-2.97-1.46-.28,.14-.5,.39-.72,.62-1.79,1.99-3.58,3.98-5.37,5.98,.68-.76,10.99,11.02,11.96,12.14Z"/>
        <path class="cls-11" d="M60.62,95.51c-1.72-.28-3.21-1.31-4.58-2.4-2.48-1.97-4.74-4.2-6.74-6.65-.76-.93-1.9-2-2.97-1.46-.28,.14-.5,.39-.72,.62-1.79,1.99-3.58,3.98-5.37,5.98,.17-.19,.97,.43,2.08,1.47,.46-.18,.91-.4,1.34-.62,1.75-.91,3.54-2.01,5.51-1.91,2.4,.12,4.29,1.97,6.01,3.65,1.72,1.68,3.79,3.41,6.18,3.21,1.19-.1,2.3-.68,3.48-.8s2.63,.5,2.73,1.69c.04,.47-.15,.93-.38,1.34-1.12,1.97-3.46,3.16-5.71,2.91,1.51,1.37,1.16,3.79,.59,5.74-.51,1.75-1.18,3.59-2.65,4.67-.72,.53-1.69,.76-2.57,.67,1.88,1.83,5.41,1.87,7.37-.03,2.29-2.21,2.31-6.17,.43-8.74,2.68,.89,5.97-.03,7.47-2.42,1.49-2.39,.63-6.06-1.95-7.21-2.95-1.31-6.38,.81-9.57,.28Z"/>
        <path class="cls-28" d="M24.6,90.26c2.55,1.11,5.19,2.11,7.96,2.45,3.67,.46,7.49-.3,10.67-2.18,3.18-1.88,5.7-4.89,6.92-8.38,.37-1.06,.62-2.18,.53-3.3-.08-.92-.38-1.8-.76-2.64-.62-1.41-1.47-2.77-2.72-3.68-2.24-1.63-5.27-1.51-8.04-1.31,.7,1.24,1.23,2.58,1.57,3.96-.86-.23-1.76-.45-2.63-.28-1.48,.29-2.48,1.63-3.34,2.87-.25,.36-.51,.74-.61,1.17-.08,.34-.06,.69-.04,1.04,.07,1.25,.14,2.51,.2,3.76-2.33-1.21-4.29-3.1-5.59-5.37-.93,2.63-2.01,5.21-3.22,7.72,.05-1.28-.22-2.57-.79-3.72-.71,.84-1.43,1.68-2.14,2.53-.53,.62-1.79,1.63-1.92,2.46-.27,1.66,2.82,2.42,3.95,2.91Z"/>
        <path class="cls-28" d="M4.24,62.25C2.25,59.31,.28,56.14,.03,52.59c-.24-3.36,1.14-6.73,3.43-9.2,2.29-2.47,5.41-4.08,8.69-4.87,3.68-.88,7.76-.72,11,1.23,1.51,.91,2.79,2.16,3.99,3.45,2.64,2.83,5.03,5.88,7.15,9.12-2.75-1.09-5.89-1.16-8.69-.19-.14,3.07,.04,6.16,.55,9.2-1.57-1.33-3.61-2.09-5.66-2.12-.13,0-.28,0-.38,.1-.11,.11-.1,.29-.08,.44,.09,.79,.18,1.58,.27,2.37-.56-.71-1.52-1.08-2.41-.93-.14,.02-.29,.07-.37,.19-.07,.11-.06,.26-.04,.39,.13,1.02,.26,2.05,.39,3.07-1.74-.12-3.52,.27-5.04,1.12,1.08,.48,2.12,1.04,3.11,1.69-2.03,.06-6.83,1.15-6.83,1.15-2.22-1.31-3.46-4.47-4.86-6.55Z"/>
        <path class="cls-34" d="M7.89,64.2c-.29-.55-.57-1.1-.86-1.65-.05-.1-.2-.13-.29-.08-.1,.06-.13,.19-.08,.29,.29,.55,.57,1.1,.86,1.65,.05,.1,.2,.13,.29,.08,.1-.06,.13-.19,.08-.29h0Z"/>
        <path class="cls-34" d="M10.35,63.28c-.64-.75-1.16-1.59-1.56-2.48-.05-.11-.2-.13-.29-.08-.11,.06-.12,.19-.08,.29,.42,.93,.97,1.8,1.63,2.57,.08,.09,.23,.08,.3,0,.09-.09,.08-.22,0-.3h0Z"/>
        <path class="cls-34" d="M7.16,60.1c-.77-1.36-1.42-2.78-1.93-4.25-.04-.11-.15-.18-.26-.15-.11,.03-.19,.15-.15,.26,.52,1.51,1.18,2.97,1.97,4.36,.14,.24,.51,.02,.37-.22h0Z"/>
        <path class="cls-34" d="M3.64,56.82s-.09-.09-.13-.13c-.02-.02-.04-.05-.06-.07,0-.01-.02-.02-.03-.03,0,0-.02-.03,0,0-.07-.1-.14-.2-.2-.31-.03-.05-.05-.11-.08-.16,0-.01-.01-.03,0,0,0-.01-.01-.03-.02-.04-.01-.03-.02-.06-.03-.09-.04-.12-.07-.24-.09-.36-.02-.11-.16-.18-.26-.15-.12,.04-.17,.15-.15,.26,.1,.53,.37,1.03,.76,1.4,.08,.08,.22,.09,.3,0,.08-.08,.09-.22,0-.3h0Z"/>
        <path class="cls-34" d="M8.63,56.74c-.1-.43-.26-.84-.48-1.21-.06-.1-.2-.14-.29-.08-.1,.06-.14,.19-.08,.29,.05,.09,.1,.18,.15,.27,.02,.04,.04,.09,.06,.13,0,0,.03,.08,.02,.04,0,.02,.02,.05,.03,.07,.08,.19,.14,.39,.18,.59,.02,.11,.16,.18,.26,.15,.12-.04,.18-.15,.15-.26h0Z"/>
        <path class="cls-34" d="M14.83,60.32c-.69-1.13-1.39-2.26-2.08-3.4-.14-.24-.52-.02-.37,.22,.69,1.13,1.39,2.26,2.08,3.4,.14,.24,.52,.02,.37-.22h0Z"/>
        <path class="cls-34" d="M4.39,51.86c-.03-.59-.05-1.18-.08-1.78,0-.12-.09-.21-.21-.21-.11,0-.22,.1-.21,.21,.03,.59,.05,1.18,.08,1.78,0,.12,.09,.21,.21,.21,.11,0,.22-.1,.21-.21h0Z"/>
        <path class="cls-34" d="M2.34,49.84c.03-.76,.25-1.51,.63-2.18,.14-.24-.23-.46-.37-.22-.42,.73-.65,1.55-.68,2.39-.01,.28,.42,.28,.43,0h0Z"/>
        <path class="cls-34" d="M25.52,87.65c1.28,.76,2.62,1.41,4,1.95,.39,.15,.79,.29,1.2,.43,.26,.09,.38-.33,.11-.41-1.38-.46-2.72-1.03-4.01-1.72-.37-.2-.73-.4-1.09-.61-.24-.14-.45,.23-.22,.37h0Z"/>
        <path class="cls-34" d="M29.08,84.63c.37,.42,.81,.78,1.29,1.06,.1,.06,.24,.03,.29-.08,.05-.1,.03-.23-.08-.29-.11-.07-.23-.14-.33-.21-.06-.04-.11-.08-.16-.12,0,0-.05-.03-.03-.02,.01,.01-.02-.01-.02-.02-.03-.02-.06-.04-.08-.07-.21-.17-.4-.36-.57-.56-.07-.09-.23-.08-.3,0-.08,.09-.08,.21,0,.3h0Z"/>
        <path class="cls-34" d="M34.54,89.6c.99,.29,1.99,.52,3.01,.7,.11,.02,.23-.03,.26-.15,.03-.1-.04-.24-.15-.26-1.01-.18-2.02-.42-3.01-.7-.27-.08-.38,.34-.11,.41h0Z"/>
        <path class="cls-34" d="M22.2,87.65c.22,.69,.92,1.19,1.65,1.15,.12,0,.21-.09,.21-.21,0-.11-.1-.22-.21-.21-.08,0-.15,0-.23,0,.03,0,0,0-.01,0-.02,0-.03,0-.05,0-.04,0-.07-.02-.11-.03-.04-.01-.07-.02-.11-.04,0,0-.05-.02-.03-.01,.02,0-.03-.01-.03-.01-.07-.03-.13-.07-.2-.11-.01,0-.03-.02-.04-.03,0,0-.04-.03-.01-.01-.03-.02-.06-.05-.09-.07-.05-.05-.1-.1-.15-.16,.02,.03-.02-.02-.02-.02,0-.01-.02-.03-.03-.04-.02-.03-.04-.06-.06-.1-.02-.03-.03-.06-.05-.09,.02,.04,0-.02,0-.03,0-.02-.01-.04-.02-.06-.04-.11-.15-.18-.26-.15-.11,.03-.19,.15-.15,.26h0Z"/>
        <path class="cls-34" d="M28.75,87.36c.39,.22,.78,.44,1.17,.66,.1,.06,.24,.03,.29-.08,.05-.1,.03-.23-.08-.29-.39-.22-.78-.44-1.17-.66-.1-.06-.24-.03-.29,.08-.05,.1-.03,.23,.08,.29h0Z"/>
        <path class="cls-34" d="M32.32,90.77c.3,.12,.6,.23,.9,.35,.1,.04,.24-.04,.26-.15,.03-.12-.04-.22-.15-.26-.3-.12-.6-.23-.9-.35-.1-.04-.24,.04-.26,.15-.03,.12,.04,.22,.15,.26h0Z"/>
        <path class="cls-34" d="M7.81,46.58c1.01-1.05,2.08-2.04,3.21-2.96,.09-.07,.08-.23,0-.3-.09-.09-.21-.07-.3,0-1.13,.92-2.2,1.91-3.21,2.96-.19,.2,.11,.5,.3,.3h0Z"/>
        <path class="cls-34" d="M4.98,44.93c.49-.58,.99-1.16,1.48-1.74,.08-.09,.09-.22,0-.3-.08-.08-.23-.09-.3,0l-1.48,1.74c-.08,.09-.09,.22,0,.3,.08,.08,.23,.09,.3,0h0Z"/>
        <path class="cls-34" d="M8.72,51.03c-.4-.68-.8-1.36-1.19-2.04-.14-.24-.51-.02-.37,.22,.4,.68,.8,1.36,1.19,2.04,.14,.24,.51,.02,.37-.22h0Z"/>
        <path class="cls-34" d="M13.99,52.77c-.34-.45-.74-.85-1.19-1.19-.09-.07-.24-.02-.29,.08-.06,.11-.02,.22,.08,.29,.03,.02,.05,.04,.08,.06,.03,.02,0,0,.01,0,.01,.01,.03,.02,.04,.03,.05,.04,.1,.08,.15,.12,.1,.08,.19,.17,.28,.26,.09,.09,.18,.18,.26,.28,.04,.05,.08,.1,.13,.15,.02,.02,.04,.05,.05,.07,.01,.02-.02-.02,0,.01,.01,.02,.02,.03,.04,.05,.07,.09,.19,.14,.29,.08,.09-.06,.15-.2,.08-.29h0Z"/>
        <path class="cls-34" d="M22.19,51.59c-.1-.18-.19-.37-.29-.55-.05-.1-.2-.14-.29-.08-.1,.07-.13,.19-.08,.29,.1,.18,.19,.37,.29,.55,.05,.1,.2,.14,.29,.08,.1-.07,.13-.19,.08-.29h0Z"/>
        <path class="cls-34" d="M42.09,77.11c.42,.57,.79,1.17,1.11,1.8,.05,.1,.2,.13,.29,.08,.11-.06,.13-.19,.08-.29-.32-.63-.69-1.23-1.11-1.8-.07-.09-.19-.14-.29-.08-.09,.05-.15,.2-.08,.29h0Z"/>
      </g>
      <g>
        <path class="cls-26" d="M108.18,97.4c0-1.84,.01-3.67,.02-5.51,1.67-.33,3.34-.66,5.01-.99l-.5-7.89c1.91,1.52,4.37,2.35,6.81,2.3-.04-1.65-.08-3.3-.12-4.96,.83-.26,1.66-.53,2.49-.79-1.52-1.58-3.05-3.17-4.57-4.75-.44-.46-.89-.93-1.43-1.28-.63-.41-1.35-.65-2.08-.83-2-.5-4.08-.59-6.14-.5-5.56,.23-11.31,1.9-15.23,5.85-.92,.93-1.75,2-2.2,3.23-.67,1.8-.49,3.84,.18,5.64,.67,1.8,1.8,3.4,3.03,4.87,1.99,2.39,4.28,4.46,6.77,6.31,1.11,.83,1.67,1.31,3.06,.92,1.65-.46,3.23-1.15,4.89-1.6Z"/>
        <path class="cls-26" d="M113.18,92.28c.9,.35,1.79,.7,2.69,1.05,2.05-2.19,4.14-4.35,6.27-6.46,.18-.18,.39-.37,.64-.41,.19-.02,.38,.04,.55,.11,2.24,.81,4.49,1.62,6.73,2.43,.26,.09,.53,.19,.81,.15,.29-.04,.54-.22,.78-.39,2.41-1.75,4.98-3.26,7.68-4.53,.64,1.86,1.34,3.69,2.1,5.5,.58-.2,1.07-.65,1.32-1.21,.72,2.88,1.24,5.86,.96,8.82-.28,2.96-1.42,5.92-3.6,7.94-2.91,2.69-7.13,3.33-11.08,3.63-2.12,.16-4.27,.25-6.35-.19-2.08-.45-4.1-1.49-5.33-3.22-1.42-1.99-1.82-4.42-3.39-6.34-.68-.83-.86-1.32-.9-2.44-.01-.43,.26-4.4,.11-4.46Z"/>
        <path class="cls-19" d="M84.13,85.71c-.84-2.62-1.41-5.48-.61-8.12,1.22-4.02,5.3-6.5,9.34-7.67,7.91-2.3,16.82-.85,23.59,3.84-1.57,.12-3.15,.24-4.72,.36,.92,1.7,2.03,3.3,3.31,4.76-5.96,1.24-11.85,2.8-17.64,4.65,2.29,3.47,4.26,7.15,5.88,10.98-1.48-.25-2.98-.38-4.49-.41,.85,1.92,1.88,3.76,3.07,5.49-.3-.44-2.38-.74-2.93-.92-1.05-.35-2.1-.72-3.13-1.11-1.88-.71-3.2-2.07-4.87-3.19-3.12-2.11-5.69-5.18-6.8-8.65Z"/>
        <path class="cls-35" d="M92.59,87.22c-3.7-.7-7.24-2.71-9.45-5.72,.14,1.42,.5,2.85,.93,4.21,1.11,3.47,3.67,6.54,6.8,8.65,1.67,1.13,2.99,2.49,4.87,3.19,1.04,.39,2.08,.76,3.13,1.11,.55,.18,2.63,.48,2.93,.92-1.19-1.73-2.22-3.57-3.07-5.49,1.5,.03,3.01,.16,4.49,.41-1.05-2.48-2.25-4.9-3.58-7.24-2.34,.37-4.72,.39-7.04-.05Z"/>
        <path class="cls-19" d="M118.91,109.3c3.09,2.86,7.22,4.57,11.43,4.72,1.65,.06,3.32-.12,4.88-.67,3.66-1.3,6.36-4.6,7.67-8.25,1.32-3.65,1.4-7.63,1.08-11.5-1.48,1.66-2.96,3.32-4.43,4.98-1.21-2.52-2.6-4.94-4.16-7.26-1.34,2.06-2.83,4.02-4.47,5.86-.65-.86-1.56-1.53-2.58-1.9-.22,.72-.32,1.48-.29,2.23-2.62-1.05-5.25-2.1-7.87-3.15-.63,3.2-1.38,6.36-2.27,9.5-2.05-2.73-2.03-6.83,.05-9.54-.38,.5-1.79,.91-2.36,1.25-.73,.44-1.83,.95-2.37,1.62-.9,1.12,.15,2.21,.54,3.41,1.08,3.33,2.54,6.28,5.15,8.7Z"/>
        <path class="cls-35" d="M139.54,98.59c-.85-1.78-1.8-3.52-2.84-5.2,.27,1.71,.32,3.42-.04,5.12-.5,2.34-1.78,4.47-3.37,6.26-2.38,2.67-5.61,4.7-9.17,5.1-1.86,.21-3.79-.09-5.5-.84,.09,.09,.19,.18,.28,.27,3.09,2.86,7.22,4.57,11.43,4.72,1.65,.06,3.32-.12,4.88-.67,3.66-1.3,6.36-4.6,7.67-8.25,1.32-3.65,1.4-7.63,1.08-11.5-1.48,1.66-2.96,3.32-4.43,4.98Z"/>
        <path class="cls-6" d="M98.66,72.91c.88-.03,1.81,.13,2.58-.28,.36-.19,.68-.6,.54-.98-.09-.26-.36-.4-.62-.5-1.41-.54-2.99-.31-4.46,.01-1.09,.24-9.93,2.27-7.64,4.63,1.09,1.12,3.83-.72,4.84-1.24,1.49-.77,3.03-1.58,4.75-1.64Z"/>
      </g>
      <g>
        <path class="cls-10" d="M206.13,13.92c.06,1.75,.74,3.41,1.32,5.06,1.27,3.66,2.08,7.48,2.63,11.31-.5-.79-1.77-.77-2.47-.15-.7,.62-.94,1.62-.97,2.56-.04,.94,.08,1.89-.08,2.81-.29,1.64-1.42,3.02-1.8,4.63-.72,3,1.23,6.23,.27,9.17-.08,.24-.19,.49-.41,.6-.21,.11-.47,.07-.71,.06-1.95-.09-3.12,2.09-3.79,3.92-1.09,2.94-2.17,5.88-3.26,8.81,3.07,.81,6.41-.4,8.82-2.47,2.41-2.07,4.04-4.89,5.44-7.73,2.81-5.71,4.91-11.77,6.24-17.99,1.54-7.22,1.86-15.33-2.37-21.38-2.49-3.56-9.07-5.73-8.84,.78Z"/>
        <path class="cls-22" d="M228.81,18.06c-2.61-7.34-7.92-13.93-14.88-17.26-.81,.63-1.53,1.38-2.3,2.06-.06,.05-.12,.11-.18,.16,10.6,11.08,14.55,28.17,9.7,42.74-1.39,4.17-3.45,8.15-6.33,11.47-3.63,4.2-8.42,7.21-13.17,10.08-13.42,8.13-27.77,15.91-43.43,16.87-3.06,.19-6.23,.07-9.18-.85-.4-.13-.79-.27-1.16-.44-.23,1.04-.48,2.09-.55,3.16-.03,.41-.05,.85-.15,1.27,5.16,3.13,22.33,3.74,37.77,.13,8.72-2.04,16.85-5.77,24.09-11.05,7.24-5.27,13.43-12.17,17.1-20.34,1.58-3.52,2.69-7.25,3.51-11.02,1.93-8.91,2.21-18.4-.85-26.99Z"/>
        <path class="cls-12" d="M225.28,16.7c-2.6-6.08-7.22-11.4-13.12-14.33-.18,.17-.35,.33-.54,.49-.08,.07-.16,.14-.24,.21,8.47,10.75,9.95,26.65,3.38,38.7-2.1,3.86-3.52,8.95-6.48,12.2-4.03,4.43-9.79,6.92-14.71,10.32-6.01,4.15-12.74,7.1-19.42,10.03-7.14,3.13-16.84,8.08-24.92,6.61-.19-.04-.5-.12-.88-.23-.14,.62-.28,1.24-.41,1.87-.14,.64-.29,1.28-.41,1.92,2.7,1.06,6.34,1.61,8.15,1.99,8.46,1.76,17.29,.97,25.71-.98,7.85-1.82,15.52-4.66,22.27-9.06,12.94-8.43,21.95-22.65,24.06-37.95,1.01-7.33,.46-14.98-2.45-21.78Z"/>
        <path class="cls-14" d="M211.64,2.85s0,0-.01,.01c-.45,.4-.92,.81-1.45,1.13,.46,5.94,2.91,11.63,4.26,17.47,2.45,10.55,1.08,22.31-5.35,31.02-4.14,5.61-10.06,9.64-16.17,13-12.7,6.99-26.74,11.55-41.13,13.37-.58,.07-1.88,.1-3.06,.27-.24,.99-.47,1.99-.69,2.99,2.18,1.21,5.73,1.46,7.94,1.74,6.37,.8,12.85,.28,19.16-.76,12.8-2.11,26.47-6.88,35.43-16.27,16.3-17.1,14.48-26.02,14.83-37,.34-10.37-5.21-21.06-13.76-26.98Z"/>
        <path class="cls-20" d="M158.47,81.44c9.49-.81,19.07-1.63,28.11-4.61,9.09-3,17.5-8.2,23.88-15.33,6.38-7.13,10.68-16.2,11.67-25.71,.67-6.41-.16-12.98-2.39-19.02-1.93-5.21-5.1-10.24-9.98-12.88,.66,2.68-2.51,4.95-2.51,7.71,0,1.38,.79,2.61,1.46,3.81,2.21,3.99,3.27,8.61,3.04,13.17-1.46,.62-2.93,1.23-4.39,1.85,1.06,1.68,1.42,3.69,1.77,5.65,.48,2.69,.91,5.66-.49,8.01-1.83,3.07-6.3,4.19-7.32,7.62-.51,1.72,.12,3.73,1.52,4.85-.17,1.61-2.14,2.31-3.76,2.37-1.62,.06-3.47-.06-4.6,1.1-.87,.9-1.02,2.33-1.9,3.22-1.52,1.54-4.18,.68-6.18,1.52-1.47,.62-2.39,2.08-3.6,3.12-2.44,2.09-5.89,2.37-8.9,3.52-2.24,.86-4.28,2.23-6.58,2.91-2.3,.69-7.4,1.26-8.69,1.63s-2.7,.24-3.91,.81c-.61,.29-1.16,.75-1.82,.88-.75,.15-1.52-.15-2.28-.08-2.18,.2-1.99,2.56-1.99,2.56,2.29,1.11,7.4,1.55,9.84,1.35Z"/>
        <path class="cls-17" d="M169.73,74.99c-.33,1.28,.08,2.73,1.04,3.64,.44,.42,1.14,.74,1.65,.4,.31-.21,.44-.61,.47-.98,.07-.89-.34-1.8-1.06-2.33-.71-.53-1.7-.67-2.53-.34l.43-.39Z"/>
        <path class="cls-17" d="M199.24,65.9c.57,.34,1.28,.47,1.89,.22,.05-.84-.32-1.66-.86-2.3-.62-.76-2.65-2.96-3.28-1.43-.48,1.16,1.41,3.01,2.24,3.51Z"/>
        <path class="cls-17" d="M211.79,50.42c.66-.06,1.32-.36,1.67-.92-.45-.71-1.23-1.16-2.04-1.37-.95-.25-3.88-.85-3.5,.76,.29,1.22,2.9,1.63,3.87,1.54Z"/>
        <path class="cls-17" d="M217.36,43.65c.66-.06,1.32-.36,1.67-.92-.45-.71-1.23-1.16-2.04-1.37-.95-.25-3.88-.85-3.5,.76,.29,1.22,2.9,1.63,3.87,1.54Z"/>
        <path class="cls-17" d="M217.16,20.95c.58-.32,1.06-.87,1.15-1.52-.69-.47-1.59-.56-2.42-.43-.97,.16-3.89,.79-2.89,2.1,.76,1,3.31,.31,4.16-.16Z"/>
      </g>
      <g>
        <path class="cls-16" d="M195.66,107.05c-5.32-.27-10.69,0-16.01,.26-5.03,.25-10.42,.57-14.27,2.33-3.1,1.42-4.88,3.64-8.47,4.66-3.54,1.01-8.46,.75-10.9,2.46-1.72,1.21-1.41,2.92-2.42,4.34-2.14,2.99-9.67,4.19-11.28,7.28-1.11,2.13,1.26,4.46,4.73,5.66,3.47,1.19,7.78,1.45,11.9,1.4,5.83-.08,11.59-.71,17.42-.8,10.21-.15,20.2,1.38,30.26,2.3,10.07,.92,20.91,1.17,29.98-1.36,1.82-.51,3.58-1.14,4.81-2.02,1.33-.96,1.95-2.16,2.38-3.33,.72-1.95,.98-4.06-.66-5.84-1.82-1.98-5.59-3.16-8.75-4.56-5.33-2.36-9.22-5.51-12.74-8.66-3.29-2.94-9.88-3.81-15.98-4.12Z"/>
        <g>
          <path class="cls-29" d="M191.65,105.73c1.3,1.1,2.6,2.2,4.04,3.1,1.11,.7,2.3,1.28,3.37,2.02,4.36,3.03,6.41,8.44,10.27,12.08,.6,.56,1.3,1.11,2.11,1.17,1.2-2.79,.28-6.03-.99-8.78-1.84-3.96-4.48-7.64-8.07-10.13-2.41-1.67-5.28-2.76-8.22-2.96-.96-.07-3.01-.31-3.77,.47-1.02,1.03,.48,2.37,1.24,3.02Z"/>
          <path class="cls-29" d="M218.38,101.77c-3.34,2.91-8.43,3.62-12.44,1.73-.94-.45-1.92-1.16-2.04-2.2-.11-.98,.59-1.86,1.31-2.53,2.6-2.42,6-3.77,9.39-4.82,1.76-.54,10.64-4.06,11.05-.27,.14,1.33-2.6,2.83-3.45,3.79-1.27,1.44-2.36,3.04-3.82,4.31Z"/>
          <path class="cls-8" d="M211.44,124.03c3.58-2.46,6.32-6.01,8.23-9.91,1.9-3.9,3-8.15,3.69-12.44,.36-2.26,.63-4.58,1.61-6.65-4.86,.66-9.29,3.13-13.28,5.97,3.84-4.15,9.01-7.05,14.56-8.15-.63-1.3-1.93-2.19-3.32-2.61-1.39-.42-2.86-.43-4.31-.36-5.44,.26-10.81,1.59-15.77,3.81-2.46,1.1-4.83,2.43-7.05,3.96-1.49,1.02-5.6,3.35-5.7,5.34,8.31,1.16,15.45,6.66,19.15,14.24,.34,.69,2.88,6.32,2.19,6.8Z"/>
          <path class="cls-29" d="M202.72,96.28c-.72,.09-1.48,.19-2.08,.61-.6,.42-.96,1.26-.61,1.9,.3,.55,.99,.74,1.62,.78,.95,.05,1.91-.15,2.76-.58,.56-.29,1.14-.87,.92-1.46-.11-.28-.37-.47-.64-.61-.67-.34-1.45-.47-2.2-.36l.24-.28Z"/>
          <path class="cls-8" d="M180.38,121.5c-8.92,3.5-18.54,5.07-28.13,5.26-8.11,.17-16.21-.63-24.32-.78-6.59-.12-13.19,.18-19.74,.91,17.51-.86,35.04,1.73,52.56,1.29,4.7-.12,9.4-.46,14.01-1.33,8.66-1.65,16.95-5.21,24.09-10.37,3.45-2.49,6.82-5.63,7.78-9.78,.09-.41,.16-.83,.08-1.24-.45-2.15-2.6-.98-3.38-.02-1.39,1.73-2.96,3.32-4.61,4.82-3.39,3.08-7.18,5.71-11.2,7.9-2.31,1.26-4.71,2.37-7.16,3.33Z"/>
          <path class="cls-8" d="M195.12,117.45c3.89,5.32,4.42,12.88,1.31,18.69,.98-2.74,1.06-5.75,.57-8.62-.43-2.51-1.3-4.98-2.78-7.05-2.29-3.19-5.91-5.24-9.68-6.36-3.77-1.12-7.73-1.39-11.65-1.66,1.71,.12,9.43-.83,11.38-.62,5.83,.61,8.33,2.17,10.85,5.62Z"/>
          <path class="cls-8" d="M174.37,122.53c1.49,2.32,1.92,5.34,.92,7.9-.5,1.27-1.31,2.39-2.19,3.43-1.59,1.89-3.73,3.71-6.2,3.54,1.33,.57,2.83-.2,4.07-.94,1.57-.94,3.17-1.9,4.35-3.3,1.81-2.16,2.4-5.11,2.35-7.92-.02-.98-.12-1.99-.58-2.85-.56-1.04-1.59-1.74-2.59-2.37-1.54-.96-3.15-1.85-4.9-2.35-1.72-.49-3.62-.59-5.32,.04,1.96,.12,3.46-.02,5.35,.83,1.91,.86,3.61,2.22,4.74,3.99Z"/>
          <path class="cls-8" d="M154.6,120.61c1.4,.35,2.81,.9,3.77,1.98,1.55,1.73,1.52,4.52,.32,6.51-1.21,1.99-3.38,3.24-5.63,3.84-2.25,.6-4.61,.61-6.93,.62,2.34-.27,4.63-.94,6.75-1.97,2.31-1.12,4.61-3,4.83-5.56,.05-.6-.02-1.21-.29-1.75-.25-.49-.66-.88-1.08-1.23-2.25-1.85-5.27-2.73-8.16-2.38,2.37-.28,4.03-.65,6.42-.06Z"/>
          <path class="cls-8" d="M138.38,122.5c.9,.18,1.82,.36,2.63,.8,.81,.43,1.52,1.15,1.71,2.05,.21,1-.25,2.02-.87,2.82-1.5,1.93-3.94,2.95-6.37,3.24-2.43,.29-4.88-.06-7.3-.41,2.4,.39,4.83-.3,7.16-.99,1.4-.41,2.88-.87,3.85-1.97,.62-.7,.98-1.69,.73-2.59-.42-1.55-2.27-2.15-3.86-2.39-1.64-.25-3.3-.39-4.97-.41,2.6-.66,4.69-.68,7.29-.16Z"/>
          <path class="cls-8" d="M86.63,127c5.63,1.48,11.35,2.65,17.11,3.48-2.8,4.78-7.66,7.94-12.47,10.7,5.68,.36,11.57,.68,16.87-1.4,2.41-.95,4.61-2.37,6.77-3.79,2.74-1.81,5.56-3.74,7.44-6.48,.69-1,1.91-2.61,.53-3.41-1.21-.7-3.09-1.06-4.44-1.5-6.67-2.14-13.88-2.56-20.76-1.29-1.92,.35-3.81,.84-5.66,1.46-.96,.32-1.91,.67-2.84,1.06-.46,.19-2.13,1.29-2.56,1.18Z"/>
          <path class="cls-29" d="M91,126.75c1.79-.33,3.6-.54,5.42-.67,1.81-.12,3.62-.16,5.44-.13,1.83,.03,3.66,.13,5.48,.28,1.82,.15,3.64,.34,5.45,.55,1.82,.22,3.64,.46,5.46,.7,.23,.03,.45,.06,.68,.09,.12,.02,.23-.03,.26-.15,.03-.1-.04-.25-.15-.26-1.83-.25-3.66-.49-5.49-.72-1.83-.22-3.67-.43-5.51-.59-1.83-.16-3.67-.27-5.51-.32-1.84-.05-3.68-.03-5.52,.08-1.83,.11-3.65,.3-5.46,.6-.22,.04-.45,.08-.67,.12-.27,.05-.16,.46,.11,.41h0Z"/>
          <path class="cls-29" d="M94.39,140.76c1.87-.26,3.72-.65,5.53-1.17,1.81-.52,3.59-1.16,5.32-1.91,1.72-.75,3.4-1.62,5.01-2.59,1.62-.98,3.17-2.07,4.65-3.25,1.47-1.18,2.86-2.47,4.15-3.84,.16-.17,.31-.34,.47-.5,.19-.2-.12-.51-.3-.3-1.26,1.39-2.62,2.68-4.06,3.88-1.44,1.2-2.95,2.29-4.54,3.29-1.59,1-3.24,1.88-4.95,2.66-1.7,.77-3.45,1.43-5.24,1.97-1.79,.54-3.62,.96-5.47,1.25-.23,.04-.45,.07-.68,.1-.12,.02-.18,.16-.15,.26,.03,.12,.15,.17,.26,.15h0Z"/>
          <path class="cls-29" d="M99.85,136.97c2.41-1.26,4.82-2.5,7.24-3.73,2.41-1.22,4.83-2.43,7.25-3.62,1.37-.67,2.74-1.34,4.12-2,.1-.05,.13-.2,.08-.29-.06-.11-.19-.13-.29-.08-2.45,1.18-4.88,2.37-7.31,3.58-2.42,1.2-4.83,2.42-7.23,3.66-1.36,.7-2.71,1.4-4.07,2.11-.25,.13-.03,.5,.22,.37h0Z"/>
          <path class="cls-29" d="M98.21,127.6c.28,0,.28-.43,0-.43s-.28,.43,0,.43h0Z"/>
          <path class="cls-29" d="M98.2,127.55c2.18,.18,4.37,.36,6.56,.49,2.19,.13,4.37,.2,6.56,.18,1.24-.02,2.47-.07,3.7-.16,.12,0,.21-.09,.21-.21,0-.11-.1-.22-.21-.21-2.18,.16-4.37,.19-6.56,.14-2.19-.05-4.38-.19-6.56-.35-1.23-.09-2.47-.19-3.7-.3-.12,0-.21,.11-.21,.21,0,.12,.1,.21,.21,.21h0Z"/>
          <path class="cls-29" d="M102.82,124.12c.28,0,.28-.43,0-.43s-.28,.43,0,.43h0Z"/>
          <path class="cls-29" d="M102.82,124.07c2.48,.2,4.96,.4,7.45,.6,2.34,.19,4.68,.41,6.99,.85,1.3,.25,2.58,.57,3.84,.99,.26,.09,.38-.33,.11-.41-2.25-.76-4.59-1.18-6.94-1.47-2.4-.29-4.82-.45-7.23-.65-1.41-.11-2.81-.23-4.22-.34-.12,0-.21,.11-.21,.21,0,.12,.1,.21,.21,.21h0Z"/>
          <path class="cls-29" d="M106.6,139.23c1.08-.6,2.17-1.21,3.24-1.83,1.08-.62,2.14-1.26,3.19-1.94,1.04-.67,2.06-1.37,3.04-2.12,.98-.74,1.92-1.53,2.82-2.37,.89-.84,1.73-1.74,2.49-2.7,.1-.13,.2-.25,.3-.38,.07-.09,.01-.24-.08-.29-.11-.06-.22-.02-.29,.08-.74,.96-1.55,1.86-2.41,2.7-.87,.85-1.8,1.65-2.77,2.4-.96,.75-1.96,1.44-2.98,2.11-1.03,.67-2.08,1.31-3.15,1.93-1.06,.62-2.13,1.22-3.21,1.82-.14,.08-.27,.15-.41,.23-.24,.13-.03,.51,.22,.37h0Z"/>
        </g>
        <path class="cls-21" d="M203.38,106.33c4.07,3.42,7.69,7.62,9.32,12.68-.45-4.66-2.49-9.19-5.83-12.47-3.35-3.28-8.01-5.23-12.69-5.09,.4-.01,1.48,.48,1.96,.58,.9,.2,1.81,.65,2.62,1.08,1.67,.87,3.18,2,4.62,3.21Z"/>
      </g>
      <path class="cls-23" d="M206.92,103.96c.38-.04,.77-.16,1.06-.41,.29-.25,.47-.66,.37-1.04s-.51-.66-.88-.55c.17-.23,.5-.27,.79-.27,.39,0,.79,.01,1.18,.05,.49,.05,1,.14,1.36,.46,.55,.49,.57,1.41,.18,2.04-.39,.63-1.1,1-1.82,1.17-.87,.21-1.79,.18-2.64-.1-.48-.15-.95-.4-1.22-.82-.25-.4-.28-1.04,.12-1.36-.13,.84,.88,.88,1.5,.82Z"/>
      <g>
        <path class="cls-4" d="M25.86,118.15c3.72-3.22,8.73-4.47,13.56-5.43,3.4-.67,6.83-1.26,10.27-1.68,4.06-.5,8.28-.76,12.13,.59,2.27,.8,4.32,2.12,6.32,3.45,3.04,2.02,6.06,4.09,9.04,6.2,1.57,1.11,3.15,2.25,4.31,3.78,1.64,2.16,2.31,4.89,2.69,7.57,.5,3.54,.55,7.29-.95,10.55-.38,.82-.88,1.63-1.67,2.08-.58,.33-1.27,.43-1.93,.53-7.7,1.08-15.43,2.15-23.21,2.21-8.53,.07-17.06-1.1-25.26-3.46-2.36-.68-4.77-1.5-6.6-3.15-2.06-1.86-3.15-4.6-3.53-7.35-.82-5.93,.13-11.83,4.83-15.9Z"/>
        <path class="cls-3" d="M83.85,130.24c-.1,.03-.19,.06-.28,.1-.69,.3-1.15,.95-1.58,1.57-.17,.25-.35,.52-.33,.83,.02,.28,.2,.53,.36,.76,1.31,1.9,1.42,4.6,.11,6.5-1.03,1.49-2.77,2.37-4.55,2.73-1.78,.36-3.61,.25-5.42,.15-1.47-.09-2.94-.17-4.41-.26-1-.06-2.11-.08-2.85,.59l1.03-1.04c-1.85,.4-3.72,.8-5.46,1.55-1.74,.74-3.38,1.86-4.43,3.44-.15,.23-.29,.47-.4,.73,.29,0,.59,0,.88,0,7.78-.06,15.5-1.14,23.21-2.21,.67-.09,1.35-.19,1.93-.53,.78-.45,1.29-1.26,1.67-2.08,1.49-3.25,1.45-7,.95-10.55-.11-.76-.24-1.52-.41-2.28Z"/>
        <path class="cls-18" d="M26.31,124.54c9.03-1.45,18.35,.33,26.85,3.72,2.05,.82,4.08,1.74,5.84,3.06,2,1.49,3.76,3.54,6.2,4.1,3,.69,5.95-1.08,8.91-1.94,1.68-.48,3.44-.67,5.18-.56,1.44,.09,3.1,.32,4.12-.7,1.12-1.12,.73-3,.14-4.46-3.36-8.41-10.65-14.99-19.13-18.16-8.48-3.17-18.01-3.06-26.67-.39-4.25,1.31-8.39,3.27-11.57,6.37-3.19,3.12-5.19,7.38-4.99,11.88-1.56-1.51,4.28-2.78,5.1-2.91Z"/>
        <path class="cls-13" d="M24.26,118.07c-1.48,1.52-2.25,3.58-2.84,5.62-1.01,3.53-1.57,7.27-.93,10.89,.64,3.62,2.59,7.12,5.73,9.04,2.93,1.79,6.51,2.04,9.92,2.41,9.16,1,18.54,3.16,27.43,.73,.32-.09,.67-.2,.84-.48,.19-.31,.12-.71,.16-1.07,.13-1.14,1.36-1.76,2.34-2.36,1.15-.71,2.17-1.72,2.6-2.99s.19-2.84-.83-3.72c-.26-.23-.56-.41-.76-.69-.48-.69-.13-1.62-.06-2.45,.2-2.38-2-4.26-2.64-6.56-.09-.34-.16-.69-.36-.98-.68-.98-2.17-.51-3.34-.29-1.91,.35-3.99-.37-5.26-1.84-.63-.73-1.07-1.61-1.71-2.33-.64-.72-1.6-1.29-2.54-1.08-.45,.1-.87,.37-1.33,.34-.32-.03-.61-.2-.88-.38-1.98-1.32-3.74-3.1-6.04-3.69-2.28-.59-4.7,.12-6.84,1.1-1.79,.82-3.77,1.86-5.62,1.2-1.46-.52-2.58-2.04-4.13-1.99-1.16,.04-2.07,.96-2.85,1.82-.52,.58-1.04,1.15-1.57,1.73l1.52-1.97Z"/>
        <path class="cls-33" d="M26.86,128.05c.68-.38,1.35-.78,1.99-1.22,.14-.1,.25-.22,.3-.39,.04-.15,.02-.36-.06-.5-.18-.28-.58-.43-.88-.23-.65,.44-1.31,.85-1.99,1.22-.3,.16-.42,.59-.23,.88,.19,.3,.57,.41,.88,.23h0Z"/>
        <path class="cls-33" d="M27.16,133.34c.58,.55,1.3,.95,2.08,1.15,.33,.08,.71-.1,.79-.45,.08-.33-.1-.71-.45-.79-.2-.05-.4-.12-.6-.2,.05,.02,.1,.04,.15,.06-.31-.13-.61-.3-.88-.51,.04,.03,.09,.07,.13,.1-.11-.09-.22-.18-.32-.27-.24-.23-.67-.26-.91,0-.23,.25-.26,.66,0,.91h0Z"/>
        <path class="cls-33" d="M35.25,139.42l1.98,.51c.33,.08,.71-.11,.79-.45,.08-.34-.1-.7-.45-.79l-1.98-.51c-.33-.08-.71,.11-.79,.45-.08,.34,.1,.7,.45,.79h0Z"/>
        <path class="cls-33" d="M36.68,131.08c1.2,.21,2.44,.11,3.57-.35,.16-.07,.29-.14,.39-.3,.08-.14,.12-.34,.06-.5-.05-.16-.15-.31-.3-.39-.14-.08-.34-.13-.5-.06-.47,.19-.96,.32-1.46,.39,.06,0,.11-.02,.17-.02-.51,.07-1.03,.07-1.54,0,.06,0,.11,.02,.17,.02-.08-.01-.15-.02-.23-.04-.17-.03-.34-.03-.5,.06-.13,.08-.26,.23-.3,.39-.07,.31,.09,.73,.45,.79h0Z"/>
        <path class="cls-33" d="M36.49,123.81c.96-.21,1.91-.42,2.87-.63,.33-.07,.55-.47,.45-.79-.11-.35-.44-.53-.79-.45-.96,.21-1.91,.42-2.87,.63-.33,.07-.55,.47-.45,.79,.11,.35,.44,.53,.79,.45h0Z"/>
        <path class="cls-33" d="M27.7,121.95s-.02-.08-.03-.13l.02,.17c0-.07,0-.15,0-.22l-.02,.17c.01-.08,.03-.15,.06-.22-.02,.05-.04,.1-.06,.15,.03-.07,.06-.13,.11-.19-.03,.04-.07,.09-.1,.13,.04-.05,.08-.1,.14-.14,.06-.06,.11-.13,.13-.21,.04-.08,.06-.16,.06-.25,0-.09-.02-.17-.06-.25-.03-.08-.07-.15-.13-.21-.12-.11-.28-.2-.46-.19l-.17,.02c-.11,.03-.2,.09-.28,.17-.11,.08-.19,.2-.27,.31-.02,.04-.05,.07-.06,.11-.04,.09-.08,.18-.11,.27-.04,.13-.06,.27-.06,.41,0,.07,0,.14,.02,.21,0,.07,.02,.14,.04,.21,.05,.16,.15,.3,.3,.39,.07,.05,.15,.07,.24,.08,.09,.02,.17,.02,.26-.01,.16-.05,.31-.15,.39-.3,.08-.15,.12-.33,.06-.5h0Z"/>
        <path class="cls-33" d="M23.07,134.04c.29,.75,.58,1.5,.87,2.25,.06,.16,.14,.3,.3,.39,.14,.08,.34,.12,.5,.06,.31-.1,.58-.46,.45-.79-.29-.75-.58-1.5-.87-2.25-.06-.16-.14-.3-.3-.39-.14-.08-.34-.12-.5-.06-.31,.1-.58,.46-.45,.79h0Z"/>
        <path class="cls-33" d="M46.72,142.58c1.14,.09,2.28,.02,3.4-.17,.15-.03,.31-.17,.39-.3,.08-.14,.12-.34,.06-.5-.05-.16-.15-.31-.3-.39-.16-.09-.32-.1-.5-.06-.15,.03-.3,.05-.45,.07l.17-.02c-.92,.12-1.85,.15-2.78,.08-.34-.03-.66,.31-.64,.64,.02,.37,.28,.62,.64,.64h0Z"/>
        <path class="cls-33" d="M48.78,131.83c.6,.03,1.2,.06,1.79,.1,.34,.02,.66-.31,.64-.64-.02-.36-.28-.62-.64-.64-.6-.03-1.2-.06-1.79-.1-.34-.02-.66,.31-.64,.64,.02,.36,.28,.62,.64,.64h0Z"/>
        <path class="cls-33" d="M46.4,122.95c.54,.27,1.08,.53,1.62,.8,.16,.08,.32,.11,.5,.06,.15-.04,.31-.16,.39-.3,.08-.15,.12-.33,.06-.5-.05-.15-.15-.31-.3-.39-.54-.27-1.08-.53-1.62-.8-.16-.08-.32-.11-.5-.06-.15,.04-.31,.16-.39,.3-.08,.15-.12,.33-.06,.5,.05,.15,.15,.31,.3,.39h0Z"/>
        <path class="cls-33" d="M57.06,128.39c.37,.99,.63,2.01,.77,3.06,.02,.15,.17,.31,.3,.39,.14,.08,.34,.12,.5,.06,.16-.05,.31-.15,.39-.3,.09-.16,.09-.31,.06-.5-.14-1.04-.4-2.07-.77-3.06-.06-.16-.14-.3-.3-.39-.14-.08-.34-.12-.5-.06-.31,.1-.58,.45-.45,.79h0Z"/>
        <path class="cls-33" d="M58.03,141.05c.05,.75,.11,1.5,.16,2.24,.01,.17,.06,.33,.19,.46,.11,.11,.3,.2,.46,.19,.33-.01,.67-.28,.64-.64-.05-.75-.11-1.5-.16-2.24-.01-.17-.06-.33-.19-.46-.11-.11-.3-.2-.46-.19-.33,.01-.67,.28-.64,.64h0Z"/>
        <path class="cls-33" d="M65.05,142.37c.36-.69,.72-1.38,1.08-2.06,.16-.3,.09-.71-.23-.88-.3-.16-.72-.09-.88,.23-.36,.69-.72,1.38-1.08,2.06-.16,.3-.09,.71,.23,.88,.3,.16,.72,.09,.88-.23h0Z"/>
        <path class="cls-30" d="M69.75,132.77c-.04,.54-.42,.98-.68,1.45-.26,.47-.4,1.12-.03,1.5,.43,.45,1.23,.23,1.74,.58,.73,.51,.34,1.67,.64,2.51,.25,.7,.98,1.11,1.71,1.26,1.16,.24,2.48-.1,3.18-1.05,.87-1.18,.58-2.83,1.01-4.22,.19-.61,.52-1.17,.76-1.77,.24-.6,.39-1.27,.19-1.88s-.83-1.12-1.46-.98c-.54,.11-.9,.63-1.41,.84-.52,.22-1.12,.1-1.63-.14-.51-.24-.94-.6-1.42-.9-.41-.25-1.09-.56-1.52-.17-.34,.31-.04,.74-.25,.99-.17,.21-.61,.06-.83,.32-.35,.43,.02,1.16-.02,1.65Z"/>
        <path class="cls-30" d="M40.78,114.62c.71,.55,1.72,.15,2.62,.16,1.3,.01,2.39,.93,3.52,1.57,1.31,.74,2.8,1.15,4.3,1.18,.62,.01,1.28-.05,1.76-.44,.23-.18,.41-.43,.65-.6,.45-.31,1.05-.32,1.58-.17,.53,.15,1,.43,1.5,.64,1.57,.68,3.4,.75,5.01,.17,.29-.1,.6-.25,.73-.53,.17-.39-.1-.83-.43-1.09-1.48-1.17-3.75-.08-5.5-.78-1.15-.47-1.89-1.64-3-2.19-.57-.28-1.22-.38-1.85-.48-.72-.11-1.46-.22-2.17-.05-.45,.11-.88,.32-1.33,.41-1.06,.19-2.1-.36-3.1-.76s-2.25-.64-3.08,.06c.08,.45,.61,.65,1.06,.7,.44,.05,.94,.06,1.24,.42-.4,.63-1.02,.37-1.63,.52-.2,.05-2.07,1.12-1.88,1.27Z"/>
        <path class="cls-30" d="M24.29,125.16c-.33,.24-.56,.59-.76,.94-.25,.43-.48,.96-.28,1.41,.15,.33,.49,.52,.72,.79,.65,.76,.35,1.91,.06,2.88-.31,1.05-.56,2.17-.26,3.23s1.29,1.99,2.37,1.85c1.16-.15,1.86-1.35,2.88-1.93,1.49-.86,3.56-.35,4.91-1.42,.9-.72,1.21-1.95,1.3-3.1,.06-.79-.08-1.78-.84-2.02-.59-.19-1.34,.19-1.78-.24-.18-.17-.25-.43-.29-.68-.08-.51-.1-1.04-.25-1.53-.15-.49-.49-.97-.98-1.12-.96-.29-1.77,.71-2.67,1.17-.16,.08-.34,.15-.52,.12-.18-.03-.32-.17-.47-.27-.64-.46-2.49-.54-3.14-.07Z"/>
        <path class="cls-39" d="M45.87,113.25c-.1,.07-.2,.14-.26,.25-.09,.18-.02,.4,.12,.55,.14,.15,.32,.23,.51,.3,.52,.19,1.06,.31,1.62,.34,.22,.01,.48,.03,.62,.2,.1,.12,.11,.3,.19,.44,.17,.34,.62,.42,1.01,.44,.81,.03,1.77-.15,2.1-.88,.04-.09,.07-.18,.13-.26,.33-.4,1.12,.14,1.44-.26,.16-.19,.08-.5-.11-.66-.19-.16-.44-.22-.68-.25-1.26-.18-2.53-.1-3.78-.35-1.01-.21-1.96-.47-2.89,.14Z"/>
        <path class="cls-39" d="M25.57,126.82c-.04,.93,.96,1.71,.82,2.64-.05,.35-.27,.65-.44,.96-.39,.74-.54,1.61-.41,2.43,.07,.42,.28,.9,.7,.97,.2,.03,.39-.04,.58-.1,.32-.12,.67-.27,.86-.56,.34-.52,.06-1.28,.42-1.78,.33-.45,1-.46,1.54-.32,.54,.14,1.09,.38,1.63,.26,.48-.1,.88-.51,.98-.99,.1-.48-.1-1.01-.5-1.3-.64-.47-1.52-.26-2.3-.17-.17,.02-.36,.02-.48-.1-.24-.25,.07-.63,.14-.96,.28-1.39-3.52-1.84-3.55-.99Z"/>
        <path class="cls-39" d="M70.85,132.5c-.15,.54-.02,1.2-.4,1.6-.17,.18-.46,.4-.31,.6,.04,.05,.1,.09,.16,.11,.63,.26,1.51,.14,1.84,.74,.21,.37,.06,.84-.07,1.24-.13,.41-.2,.91,.09,1.22,.36,.37,1.02,.17,1.32-.25,.27-.37,.34-.87,.18-1.3-.24-.67-.96-1.1-1.12-1.79-.11-.48,.12-1.02,.55-1.28,.13-.08,.29-.14,.45-.12,.42,.03,.65,.49,.95,.79,.58,.56,1.65,.47,2.12-.19,.14-.19,.23-.43,.18-.66-.05-.29-.3-.51-.58-.6-.27-.1-.57-.1-.87-.1-.84,0-1.83-.06-2.26-.78-.08-.13-.14-.28-.26-.37-.64-.42-1.82,.56-1.98,1.13Z"/>
        <path class="cls-19" d="M61.93,109.86c1.29,.55,2.58,1.1,3.84,1.72,4.18,2.06,7.99,4.93,10.85,8.6,2.86,3.68,4.72,8.18,4.92,12.83,1.59-.02,2.75-1.72,2.77-3.31,.01-1.59-.8-3.07-1.62-4.43-2.42-4.01-5.25-7.9-9.05-10.63-2.1-1.51-4.14-2.89-6.48-4-1.76-.83-6.91-2.39-9.39-2.84,1.14,.69,2.92,1.54,4.16,2.06Z"/>
      </g>
    </g>
  </g>
</svg>