<?xml version="1.0" encoding="UTF-8"?>
<svg xmlns="http://www.w3.org/2000/svg" xmlns:xlink="http://www.w3.org/1999/xlink" viewBox="0 0 425 425">
  <defs>
    <style>
      .cls-1 {
        fill: #a4d931;
      }

      .cls-2 {
        stroke: #ff8593;
        stroke-width: 3.52px;
      }

      .cls-2, .cls-3, .cls-4 {
        stroke-miterlimit: 10;
      }

      .cls-2, .cls-3, .cls-5, .cls-6, .cls-7 {
        fill: none;
      }

      .cls-3 {
        stroke: #a3b7f8;
      }

      .cls-3, .cls-5 {
        stroke-width: 5px;
      }

      .cls-8 {
        fill: #edf1fe;
      }

      .cls-9 {
        fill: #afe634;
      }

      .cls-10 {
        fill: #fff;
      }

      .cls-11 {
        fill: #002660;
      }

      .cls-12 {
        fill: #ccc;
        opacity: .3;
      }

      .cls-12, .cls-13, .cls-6 {
        mix-blend-mode: screen;
      }

      .cls-4 {
        fill: #ebf1ff;
        stroke: #002041;
        stroke-width: 8.77px;
      }

      .cls-14 {
        fill: #69a1fc;
      }

      .cls-15 {
        fill: #ff4f65;
      }

      .cls-16 {
        isolation: isolate;
      }

      .cls-17 {
        fill: #a3b7f8;
      }

      .cls-18 {
        fill: #ff720e;
      }

      .cls-19 {
        fill: #d8be03;
      }

      .cls-20, .cls-13 {
        fill: #ff2e25;
      }

      .cls-21 {
        fill: #ff1f3a;
      }

      .cls-22 {
        fill: #002041;
      }

      .cls-23 {
        fill: #3e4685;
      }

      .cls-24 {
        fill: #335e81;
      }

      .cls-5 {
        stroke: #3e4685;
      }

      .cls-5, .cls-6, .cls-7 {
        stroke-linecap: round;
        stroke-linejoin: round;
      }

      .cls-25 {
        fill: #ffe500;
      }

      .cls-26 {
        fill: #ff001f;
      }

      .cls-27 {
        fill: #535db2;
      }

      .cls-28 {
        fill: #004986;
      }

      .cls-29 {
        clip-path: url(#clippath);
      }

      .cls-6 {
        stroke: #ff2e25;
      }

      .cls-6, .cls-7 {
        stroke-width: 18.18px;
      }

      .cls-30 {
        fill: #b4cffb;
      }

      .cls-31 {
        fill: #ff9362;
      }

      .cls-32 {
        fill: #ff9365;
      }

      .cls-33 {
        fill: #001a4f;
      }

      .cls-7 {
        stroke: #ff001f;
      }

      .cls-7, .cls-34 {
        mix-blend-mode: multiply;
      }

      .cls-35 {
        fill: #ff8593;
      }

      .cls-36 {
        fill: #8f9927;
      }

      .cls-37 {
        fill: #aecc70;
      }

      .cls-38 {
        fill: #100a31;
      }

      .cls-39 {
        fill: #6d8d21;
      }

      .cls-40 {
        fill: #749a24;
      }
    </style>
    <clipPath id="clippath">
      <circle class="cls-25" cx="212.5" cy="212.5" r="212.5"/>
    </clipPath>
  </defs>
  <g class="cls-16">
    <g id="Layer_2" data-name="Layer 2">
      <g id="Layer_1-2" data-name="Layer 1">
        <g>
          <circle class="cls-25" cx="212.5" cy="212.5" r="212.5"/>
          <g class="cls-29">
            <ellipse class="cls-19" cx="231.5" cy="361.99" rx="193" ry="14"/>
            <g>
              <g>
                <path class="cls-40" d="M368.99,162.54c1.63-3.11,2.9-6.65,2.22-10.09s-3.94-6.57-7.4-5.99c2.18-6.41,1.09-13.77-2.61-19.44-3.69-5.67-9.85-9.6-16.5-10.87-2.47-.47-5.33-.78-6.77-2.84-.51-.73-.77-1.59-1.1-2.42-2.41-6.06-9.2-10.06-15.67-9.24-5.95,.75-11.51,5.07-17.38,3.84-5.11-1.07-8.39-5.94-12.74-8.81-6.71-4.44-15.9-3.77-22.95,.09-7.05,3.87-12.23,10.46-16.2,17.46-2.28,4.01-4.26,8.39-4.21,13,.08,6.83,4.73,12.96,10.49,16.64,5.76,3.68,12.53,5.36,19.17,6.98,13.67,3.33,27.33,6.66,41,9.99,10.41,2.54,20.85,5.08,30.95,8.72,3.34,1.2,8.11,4.57,11.62,3.22,3.39-1.3,6.52-7.25,8.08-10.22Z"/>
                <path class="cls-1" d="M388.04,276.26c-25.94,61.36-95.34,90.65-154.99,65.43-59.66-25.22-86.98-95.41-61.04-156.77,25.94-61.36,94.88-83.99,154.99-65.43,56.5,32.88,86.98,95.41,61.04,156.77Z"/>
                <path class="cls-40" d="M363.77,157.53c-19.37,3.02-25.24,15.44-34.78,31.13-10.32,16.96-20.92,33.79-30.54,51.16-16.3,29.46-39.39,74.7-22.19,108.32,5.73,11.2,80.17-29.72,106.04-71.2,5.64-9.04,17.2-63.14,14.73-73.57-2.08-8.76-1.98-14.14-2.84-23.12-.68-7.07-2.13-19.02-10.07-23.34-5.86-3.19-14.26-.33-20.34,.62Z"/>
                <path class="cls-1" d="M374.23,169.73c-1.53,12.73-4.51,25.31-8.75,37.49-2.13,6.09-4.62,12.07-7.36,17.91-1.39,2.91-2.82,5.78-4.26,8.64l-4.3,8.57c-2.87,5.71-5.64,11.48-8.44,17.23l-2.14,4.29c-.72,1.42-1.46,2.84-2.2,4.26-1.49,2.82-3.04,5.62-4.62,8.4-3.17,5.55-6.45,11.04-9.86,16.47-1.71,2.71-3.45,5.41-5.23,8.07-1.79,2.67-3.61,5.32-5.55,7.91l-.59-.31c1.06-3.05,2.24-6.05,3.45-9.02,1.21-2.97,2.47-5.92,3.76-8.86,2.59-5.86,5.3-11.65,8.13-17.39,1.42-2.87,2.87-5.71,4.37-8.53,.75-1.41,1.52-2.81,2.29-4.21l2.36-4.17c3.2-5.54,6.43-11.06,9.55-16.63l4.7-8.36c1.56-2.78,3.12-5.56,4.61-8.35,3.01-5.56,5.77-11.26,8.2-17.11,4.92-11.68,8.65-23.89,11.21-36.4l.66,.11Z"/>
                <path class="cls-1" d="M384.87,185.86c-.1,.53-.3,1.03-.51,1.52-.22,.47-.47,.94-.73,1.39-.52,.9-1.11,1.74-1.72,2.56-1.22,1.64-2.55,3.16-3.96,4.58-.35,.36-.69,.74-1.01,1.13-.33,.39-.65,.79-.99,1.17-.34,.37-.71,.72-1.11,1.02-.4,.3-.84,.54-1.31,.74-.93,.4-1.94,.71-3.04,.85-.55,.07-1.12,.11-1.72,.09-.3-.01-.61-.03-.93-.08-.16-.02-.32-.05-.48-.09-.17-.04-.33-.08-.5-.14l-.29-.6c.38-1.27,.84-2.25,1.37-3.16,.53-.9,1.13-1.68,1.79-2.37,.33-.35,.68-.66,1.07-.92,.39-.27,.81-.49,1.25-.68,.89-.38,1.81-.72,2.64-1.19,.83-.46,1.66-.93,2.49-1.41,.42-.23,.83-.47,1.25-.7,.42-.23,.83-.47,1.24-.72,.82-.48,1.63-.98,2.42-1.51,.4-.26,.78-.54,1.15-.83,.37-.29,.72-.59,1.03-.94l.61,.28Z"/>
                <path class="cls-1" d="M355.63,176.42c.18,.63,.34,1.26,.53,1.88,.17,.62,.35,1.25,.54,1.86,.37,1.24,.74,2.47,1.14,3.69,.19,.61,.39,1.22,.59,1.82,.2,.61,.4,1.21,.61,1.81,.2,.6,.41,1.2,.61,1.79,.21,.6,.42,1.19,.63,1.77,.42,1.18,1.02,2.3,1.58,3.4,.13,.28,.26,.56,.39,.83,.12,.28,.23,.56,.33,.84,.2,.57,.35,1.15,.47,1.74,.24,1.18,.42,2.38,.54,3.64,.02,.15,.03,.32,.04,.48,.01,.16,.03,.31,.04,.48l.07,.99c.01,.35,.04,.68,.05,1.04l.02,.55c0,.19,.01,.38,0,.59l-.52,.42c-.79-.21-1.5-.56-2.14-.97-.16-.1-.32-.21-.48-.32-.15-.11-.3-.23-.45-.34-.3-.23-.57-.48-.84-.74-1.06-1.03-1.91-2.2-2.59-3.42-.34-.61-.62-1.24-.83-1.9-.22-.65-.36-1.32-.46-2-.19-1.36-.26-2.73-.44-4.05-.09-.66-.17-1.32-.24-1.99-.07-.66-.12-1.32-.17-1.99-.04-.66-.08-1.32-.1-1.99-.02-.66-.04-1.32-.04-1.99,0-1.32,.01-2.64,.08-3.96,.04-.66,.08-1.32,.13-1.97,.06-.66,.12-1.31,.21-1.97l.67-.05Z"/>
                <path class="cls-1" d="M384.8,207.51c-.31,.61-.74,1.13-1.16,1.63-.22,.24-.44,.49-.68,.72l-.35,.35-.35,.33c-.95,.89-1.96,1.7-2.98,2.48-1.03,.77-2.07,1.52-3.14,2.22-.54,.34-1.08,.69-1.62,1.02-.54,.33-1.09,.65-1.64,.98-.55,.32-1.09,.66-1.64,1.01-.54,.35-1.08,.72-1.63,1.05-.55,.33-1.12,.63-1.72,.87-.6,.23-1.21,.41-1.85,.54-1.28,.25-2.6,.38-3.98,.3-.69-.04-1.4-.12-2.11-.28-.36-.09-.72-.18-1.08-.31-.18-.06-.36-.13-.54-.21-.18-.09-.36-.17-.53-.28l-.07-.66c.53-.56,1.01-1.04,1.5-1.5,.49-.46,.98-.87,1.47-1.27,.99-.79,2.01-1.47,3.07-2.06,1.05-.6,2.18-1.01,3.37-1.26,1.2-.25,2.42-.46,3.58-.82,.58-.18,1.17-.36,1.74-.55l1.74-.56c.58-.18,1.16-.37,1.74-.57,.58-.19,1.16-.38,1.74-.59,1.16-.4,2.3-.83,3.42-1.3l.42-.18,.41-.19c.28-.12,.54-.26,.81-.39,.53-.27,1.06-.57,1.51-.93l.53,.41Z"/>
                <path class="cls-1" d="M340.01,191.33c-.02,.32,.06,.72,.16,1.1,.1,.39,.22,.77,.35,1.16,.26,.77,.56,1.54,.88,2.3,.64,1.53,1.31,3.04,2.03,4.55,.35,.75,.71,1.5,1.07,2.25l1.08,2.25,1.09,2.24,1.09,2.24c.73,1.49,1.61,2.91,2.44,4.35,.41,.72,.79,1.45,1.12,2.2,.33,.75,.61,1.52,.86,2.31,.49,1.57,.9,3.18,1.2,4.83,.15,.83,.29,1.66,.4,2.51l.16,1.27c.06,.42,.1,.86,.18,1.22l-.36,.56c-.6-.13-1.04-.4-1.46-.66-.42-.27-.8-.56-1.16-.86-.72-.6-1.37-1.25-1.97-1.91-1.2-1.33-2.2-2.76-3.08-4.23-.88-1.48-1.54-3.05-1.99-4.7-.46-1.65-.82-3.33-1.32-4.95l-.71-2.44c-.23-.82-.45-1.64-.66-2.46-.21-.82-.41-1.65-.6-2.48-.19-.83-.37-1.66-.55-2.5-.33-1.67-.65-3.35-.88-5.06-.11-.85-.21-1.71-.25-2.58-.02-.43-.03-.88,0-1.32,.03-.45,.05-.9,.25-1.39l.64,.2Z"/>
                <path class="cls-40" d="M395.59,282.45c-4.3,8.49-9.9,16.24-15.82,23.69-13.78,17.34-29.87,33.56-49.96,42.87-4.96,2.3-10.2,4.12-15.57,5.38-16.39,3.86-33.96,2.56-48.26-6.02-1.51-.91-3-1.92-4.27-3.13-.96-.92-1.78-1.95-2.39-3.13-2.49-4.89-.51-10.8,1.79-15.77,8.3-17.95,20.38-33.72,33.32-48.78,4.35-5.06,8.79-10.04,13.22-15,5.26-5.89,10.75-11.96,17.99-15.12,6.89-3.02,14.65-3.1,22-4.68,8.75-1.88,17.03-5.95,23.85-11.73,2.04-1.73,4-3.68,5.11-6.11,2.78-6.11-.2-14.25,4.1-19.42,1.51-1.81,3.69-2.91,5.46-4.48,3.84-3.4,5.37-8.62,7.3-13.38,1.37-3.38,5.66-12.32,10.59-10.22,.25,.11,.49,.26,.72,.45,2.87,2.37,4.12,10.69,4.7,13.67,2.04,10.62,1.21,21.61,.13,32.28-2.03,20.11-4.86,40.6-13.99,58.64Z"/>
                <path class="cls-1" d="M400.05,240.02c-.45,1.74-.91,3.47-1.42,5.19-.5,1.72-1.02,3.44-1.56,5.15l-.83,2.56-.87,2.55c-.29,.85-.59,1.7-.9,2.54-.31,.84-.62,1.69-.94,2.53-.64,1.68-1.32,3.35-2.01,5.02-.36,.83-.71,1.66-1.08,2.49-.37,.83-.72,1.66-1.12,2.47-.78,1.64-1.55,3.28-2.4,4.89-.42,.81-.84,1.61-1.27,2.41l-1.35,2.38c-.89,1.6-1.9,3.13-2.88,4.68l-.37,.58-.4,.56-.79,1.13-.8,1.12c-.27,.37-.52,.75-.82,1.11-.56,.73-1.14,1.45-1.71,2.17l-.86,1.08-.92,1.04c-.61,.69-1.23,1.38-1.85,2.06-.3,.35-.64,.66-.96,1l-.98,.99-.99,.98-.49,.49c-.17,.16-.34,.31-.52,.46l-2.07,1.85c-.35,.3-.68,.62-1.04,.91l-1.08,.87-1.08,.87c-.36,.29-.74,.56-1.1,.84-2.95,2.23-6.01,4.28-9.18,6.12-6.33,3.71-13.04,6.67-19.93,8.94-3.45,1.12-6.94,2.1-10.47,2.92-3.53,.81-7.07,1.47-10.63,2.02-7.12,1.08-14.28,1.65-21.43,1.91-3.58,.13-7.15,.17-10.72,.16-3.57-.02-7.14-.09-10.7-.2v-.67c3.55-.14,7.11-.32,10.66-.55,3.55-.22,7.09-.48,10.62-.83,7.06-.7,14.08-1.64,20.98-3.1,3.45-.71,6.87-1.54,10.25-2.5,3.37-.97,6.69-2.08,9.96-3.33,6.54-2.46,12.81-5.56,18.62-9.3,.72-.48,1.44-.95,2.15-1.44l2.1-1.51c.69-.51,1.36-1.06,2.04-1.59l.51-.4,.49-.42,.98-.83c.32-.28,.66-.55,.97-.84l.94-.87,.94-.87c.31-.29,.6-.61,.91-.91l1.8-1.83c.15-.15,.3-.3,.45-.46l.43-.48,.85-.96,.86-.95c.28-.32,.58-.62,.85-.96,.54-.66,1.08-1.33,1.63-1.99l.82-.99,.78-1.03c.52-.68,1.04-1.36,1.57-2.04,.52-.68,1-1.4,1.52-2.09l.76-1.05,.38-.52,.37-.53,1.46-2.14c.24-.36,.5-.71,.73-1.07l.7-1.1,1.43-2.18,1.37-2.23c.46-.74,.93-1.47,1.36-2.24,.44-.76,.88-1.51,1.33-2.27,.46-.75,.88-1.52,1.31-2.28,.43-.77,.87-1.53,1.3-2.29l1.27-2.32c.43-.77,.86-1.54,1.27-2.32,.83-1.56,1.69-3.11,2.51-4.68l2.51-4.71c1.69-3.14,3.37-6.3,5.17-9.41l.62,.25Z"/>
                <path class="cls-1" d="M386.47,239.98c.24,4.39,.13,8.81-.21,13.23l-.31,3.31-.42,3.3-.53,3.29-.64,3.28c-.24,1.09-.45,2.18-.65,3.29l-.68,3.29c-.27,1.09-.57,2.17-.93,3.23-.39,1.05-.83,2.08-1.31,3.09-.51,1-1.05,1.99-1.61,2.96-.59,.96-1.21,1.9-1.87,2.82-.68,.91-1.39,1.8-2.15,2.66-.79,.84-1.6,1.67-2.53,2.42l-.59-.3c.04-1.2,.2-2.33,.37-3.43,.16-1.12,.37-2.2,.6-3.27,.21-1.08,.46-2.13,.73-3.17,.25-1.05,.53-2.08,.83-3.1,.28-1.03,.61-2.04,.98-3.03,.35-1,.76-1.98,1.2-2.95l1.3-2.93c.4-.99,.8-1.98,1.16-2.99l1.02-3.04,.96-3.07,.92-3.09,.86-3.12c1.12-4.17,2.02-8.42,2.83-12.72l.67,.04Z"/>
                <path class="cls-1" d="M361.35,264.22c.17,.52,.34,1.04,.51,1.57,.14,.53,.27,1.07,.41,1.6,.12,.54,.2,1.09,.31,1.63,.05,.27,.09,.55,.12,.82l.1,.83c.24,2.21,.25,4.44,.13,6.67-.25,4.46-1.16,8.84-2.39,13.1-.62,2.13-1.19,4.29-1.88,6.4-.17,.53-.37,1.05-.57,1.57-.2,.52-.42,1.03-.66,1.53-.23,.5-.49,1-.76,1.48-.14,.24-.27,.48-.41,.72l-.43,.71c-1.19,1.88-2.53,3.66-4.06,5.31-.77,.82-1.57,1.62-2.45,2.36-.87,.74-1.79,1.45-2.85,2.02l-.53-.4c.49-2.27,1.11-4.34,1.77-6.38,.66-2.04,1.4-4.01,2.18-5.95,.2-.48,.4-.97,.61-1.44,.21-.47,.43-.95,.65-1.41,.23-.47,.47-.93,.71-1.39,.24-.46,.5-.91,.75-1.37,1.03-1.81,2.08-3.64,2.91-5.55,.41-.96,.83-1.91,1.2-2.88l.29-.73,.27-.73c.18-.49,.37-.97,.53-1.47,.71-1.96,1.32-3.95,1.81-5.97,.51-2.02,.87-4.08,1.08-6.16l.07-.78c.02-.26,.05-.52,.05-.79,.01-.52,.04-1.05,.04-1.58-.01-.52-.01-1.05-.04-1.58l-.13-1.59,.65-.15Z"/>
                <path class="cls-1" d="M334.26,274.54c-.13,4.43-.7,8.86-1.49,13.26-.22,1.09-.42,2.19-.66,3.29l-.77,3.26c-.28,1.08-.59,2.16-.88,3.24-.29,1.08-.65,2.14-.98,3.21l-.98,3.22-.48,1.62c-.17,.54-.35,1.07-.52,1.61-.18,.53-.37,1.06-.57,1.59-.2,.53-.43,1.04-.66,1.55-.47,1.02-.99,2.02-1.58,2.98-.3,.48-.59,.96-.9,1.43-.31,.47-.64,.93-.97,1.39-.33,.46-.67,.92-1.02,1.36-.36,.45-.73,.88-1.1,1.32-.37,.43-.77,.86-1.17,1.27-.41,.41-.81,.82-1.25,1.21-.44,.39-.89,.77-1.35,1.13-.48,.36-.97,.7-1.49,1.01l-.54-.39c.47-2.31,1.04-4.45,1.69-6.55,.16-.53,.32-1.05,.5-1.56,.18-.51,.34-1.04,.52-1.55,.18-.51,.37-1.02,.55-1.52,.18-.51,.37-1.01,.56-1.51,.4-1,.8-1.99,1.26-2.96,.47-.96,.96-1.92,1.48-2.86l.8-1.41,.78-1.42,.77-1.43c.25-.48,.47-.97,.7-1.46,.45-.98,.92-1.95,1.34-2.95,.43-.99,.88-1.98,1.29-2.98l1.24-3c.41-1.01,.78-2.02,1.18-3.03,1.54-4.06,2.87-8.22,4.04-12.46l.66,.1Z"/>
                <path class="cls-1" d="M314.24,354.39c-16.39,3.86-33.96,2.56-48.26-6.02-1.51-.91-3-1.92-4.27-3.13-.96-.92-1.78-1.95-2.39-3.13-2.49-4.89-.51-10.8,1.79-15.77,8.3-17.95,20.38-33.72,33.32-48.78,1.66-.99,3.47-1.54,5.23-.88,2.42,.92,3.48,3.79,3.64,6.37,.65,10.08-1.91,20.04-3.59,29.97-.25,1.47-.49,3.02,.04,4.41,.63,1.66,2.23,2.75,3.85,3.49,3.77,1.73,8.15,2.12,12.17,1.08-5.42,2.77-10.85,5.54-16.27,8.32-1.15,.59-2.33,1.21-3.13,2.22-.84,1.08-1.14,2.51-1.14,3.88,.02,5.56,4.48,10.12,9.27,12.95,3.14,1.86,6.55,3.27,9.74,5.04Z"/>
                <path class="cls-39" d="M396.46,203.92c-.85,2.11-1.83,4.34-3.75,5.59-1.05,.68-2.29,1-3.4,1.58-5.84,3.05-5.74,11.19-6.83,17.69-2.05,12.21-11.7,22.8-23.66,25.98-10.71,2.85-23.14,.37-32.19,6.76-4.34,3.07-7.2,7.76-10.01,12.28-14.81,23.82-31.74,46.32-50.51,67.16-1.36,1.51-2.79,3.05-4.41,4.28-.96-.92-1.78-1.95-2.39-3.13-2.49-4.89-.51-10.8,1.79-15.77,11.09-23.98,28.94-44.07,46.54-63.78,5.26-5.89,10.75-11.96,17.99-15.12,6.89-3.02,14.65-3.1,22-4.68,8.75-1.88,17.03-5.95,23.85-11.73,2.04-1.73,4-3.68,5.11-6.11,2.78-6.11-.2-14.25,4.1-19.42,1.51-1.81,3.69-2.91,5.46-4.48,3.84-3.4,5.37-8.62,7.3-13.38,1.37-3.38,5.66-12.32,10.59-10.22,.25,.11,.49,.26,.72,.45,.23,8.52-6.07,20.56-8.3,26.06Z"/>
                <path class="cls-9" d="M326.22,140.68l-.72,.25c-.24,.08-.48,.15-.71,.27l-.71,.31c-.12,.05-.24,.1-.35,.16l-.35,.18c-.94,.46-1.87,1-2.78,1.58-1.82,1.14-3.57,2.47-5.27,3.86-.42,.35-.86,.68-1.27,1.05l-1.25,1.08c-.42,.36-.82,.74-1.23,1.11-.41,.37-.82,.74-1.22,1.12-.8,.77-1.61,1.52-2.4,2.3l-1.18,1.17-1.17,1.19c-3.09,3.2-6.09,6.5-8.98,9.91-2.89,3.4-5.7,6.88-8.42,10.43-2.73,3.54-5.38,7.14-7.95,10.8-2.58,3.65-5.1,7.34-7.54,11.09-2.46,3.73-4.83,7.52-7.13,11.34-2.31,3.82-4.54,7.68-6.67,11.6-.54,.98-1.05,1.96-1.57,2.95l-.78,1.48-.76,1.49c-1.02,1.98-1.98,3.99-2.94,5.99l-1.4,3.02c-.47,1.01-.9,2.03-1.36,3.04-.46,1.01-.89,2.03-1.33,3.05l-.65,1.53c-.22,.51-.42,1.02-.63,1.54-1.7,4.09-3.32,8.2-4.87,12.32-1.55,4.12-3.03,8.26-4.41,12.43-.32,1.05-.69,2.09-1.01,3.13l-.95,3.15c-.29,1.06-.6,2.11-.9,3.16-.28,1.06-.54,2.12-.82,3.18-1.08,4.25-1.95,8.54-2.61,12.87-1.3,8.67-1.61,17.51-.26,26.54h0c.03,.19-.1,.35-.28,.38-.14,.02-.28-.05-.34-.18-.26-.51-.51-1.03-.75-1.56-.24-.52-.51-1.05-.73-1.58l-.64-1.62c-.21-.54-.44-1.09-.61-1.64-.18-.55-.36-1.11-.54-1.67l-.27-.84c-.09-.28-.15-.56-.23-.84l-.44-1.7-.22-.85-.18-.86c-.98-4.59-1.46-9.3-1.55-14.01-.17-9.42,1.13-18.82,3.35-27.89,2.22-9.09,5.41-17.88,9.32-26.27,1.95-4.2,4.03-8.33,6.19-12.41l1.65-3.04c.54-1.02,1.12-2.01,1.67-3.03l.84-1.51,.86-1.5c.57-1,1.13-2,1.72-2.99,4.6-7.97,9.58-15.7,14.86-23.22,2.67-3.74,5.4-7.43,8.23-11.04,2.84-3.61,5.75-7.16,8.75-10.64,6.02-6.93,12.37-13.6,19.29-19.72,3.46-3.05,7.06-5.98,10.93-8.6,1.94-1.3,3.93-2.55,6.06-3.62,2.12-1.07,4.37-2.02,6.86-2.51,.92-.18,1.8,.42,1.98,1.34,.16,.83-.32,1.64-1.1,1.91l-.12,.04Z"/>
                <path class="cls-9" d="M297.86,122.36c-.15,.8-.24,1.6-.25,2.41-.02,.4,0,.82,0,1.22l.04,1.23c.09,1.64,.25,3.28,.46,4.92,.1,.82,.2,1.64,.33,2.46,.11,.82,.23,1.64,.35,2.46,.11,.82,.23,1.64,.35,2.46,.12,.82,.23,1.64,.36,2.46,.12,.82,.3,1.64,.5,2.46,.2,.82,.43,1.64,.63,2.45,.19,.82,.33,1.64,.38,2.46,.05,.82,.02,1.66-.09,2.49-.21,1.67-.58,3.36-1.19,5.08-.15,.43-.31,.86-.51,1.29-.18,.43-.39,.87-.61,1.31-.23,.44-.46,.88-.74,1.32-.27,.44-.57,.89-.93,1.33l-1.03,.05c-.41-.4-.76-.79-1.08-1.19-.33-.4-.62-.8-.9-1.2-.27-.4-.54-.81-.78-1.21-.25-.4-.47-.81-.68-1.22-.83-1.64-1.42-3.3-1.82-4.99-.2-.84-.32-1.69-.35-2.55-.03-.85,.03-1.71,.15-2.58,.12-.86,.29-1.73,.44-2.59,.15-.86,.28-1.72,.38-2.58,.09-.86,.2-1.72,.3-2.58,.11-.86,.24-1.72,.37-2.58,.07-.43,.15-.86,.23-1.29,.08-.43,.15-.86,.24-1.29,.17-.86,.36-1.72,.56-2.58,.41-1.71,.88-3.43,1.48-5.11,.16-.42,.32-.84,.48-1.26,.19-.42,.35-.83,.56-1.24,.21-.41,.41-.81,.66-1.2,.22-.39,.51-.77,.78-1.13l.92,.46Z"/>
                <path class="cls-9" d="M300.29,158.58c.27-.16,.53-.29,.78-.43,.26-.13,.51-.26,.77-.38,.25-.13,.51-.24,.76-.35,.25-.11,.5-.21,.75-.32,1-.41,1.98-.76,2.97-1.05,1.97-.59,3.91-.96,5.85-1.18,.97-.1,1.94-.15,2.9-.1,.96,.04,1.92,.17,2.89,.35,.96,.18,1.92,.4,2.89,.6,.96,.2,1.93,.36,2.9,.47l5.8,.67c.97,.12,1.94,.23,2.9,.34,.97,.12,1.94,.23,2.91,.32,1.94,.21,3.88,.39,5.81,.51,.48,.03,.97,.06,1.45,.07l.72,.03h.72c.95,0,1.92-.02,2.81-.2l.44,.93c-.22,.15-.45,.3-.69,.44l-.71,.36c-.24,.12-.48,.21-.72,.32l-.36,.16-.36,.14-.73,.27-.73,.24c-.49,.17-.98,.3-1.47,.45-1.97,.57-3.94,1.01-5.92,1.41-.99,.2-1.98,.38-2.97,.56-.99,.17-1.99,.32-2.98,.48-.99,.13-1.99,.27-2.98,.39-1,.12-1.99,.22-2.98,.33-.99,.1-1.99,.24-2.99,.4-1,.16-2,.34-3,.48-1,.13-2,.21-3,.18-1-.02-1.99-.14-2.98-.33-1.98-.39-3.95-.97-5.9-1.83-.49-.21-.97-.44-1.46-.7-.24-.13-.48-.25-.72-.39-.24-.14-.48-.28-.72-.43-.48-.3-.95-.62-1.42-.97-.24-.18-.47-.37-.7-.56-.23-.21-.46-.41-.67-.64l.17-1.01Z"/>
                <path class="cls-9" d="M268.34,137.28c1.08,3.4,2.26,6.69,3.56,9.9,.32,.8,.66,1.6,1,2.39,.34,.79,.68,1.57,1.04,2.35l.52,1.16,.54,1.15,.54,1.14,.56,1.13c.38,.75,.8,1.48,1.26,2.18,.46,.7,.95,1.38,1.42,2.06,.23,.34,.45,.68,.66,1.03,.21,.35,.4,.69,.58,1.05,.17,.36,.34,.72,.49,1.08,.07,.18,.14,.37,.21,.56,.07,.18,.13,.37,.2,.56,.49,1.52,.89,3.09,1.23,4.78,.17,.85,.32,1.73,.47,2.66l.05,.36c.02,.12,.04,.23,.06,.36,.03,.24,.07,.49,.1,.74,.07,.51,.14,1.02,.18,1.61l-.7,.75c-1.17-.07-2.23-.36-3.24-.75-.49-.2-.99-.41-1.45-.67-.47-.24-.92-.51-1.35-.8-1.72-1.15-3.17-2.57-4.36-4.12-.15-.2-.29-.39-.43-.59-.14-.2-.27-.4-.39-.61-.26-.41-.49-.83-.69-1.27-.21-.43-.39-.88-.54-1.33-.08-.23-.15-.46-.22-.68-.07-.23-.12-.46-.19-.69-.23-.93-.4-1.88-.57-2.81-.17-.93-.34-1.86-.55-2.76l-.29-1.36-.26-1.36-.22-1.37-.2-1.37c-.11-.91-.21-1.83-.29-2.74-.07-.92-.14-1.83-.18-2.74-.08-1.83-.1-3.65-.03-5.47,.06-1.82,.21-3.63,.47-5.43l1.02-.08Z"/>
                <path class="cls-9" d="M278.41,185.34c1.04-.84,2.06-1.44,3.08-2.04,1.02-.59,2.03-1.09,3.05-1.57,2.03-.93,4.06-1.67,6.11-2.26,2.05-.6,4.14-.89,6.29-.91,1.07-.03,2.15,0,3.23-.02,1.08-.02,2.15-.07,3.22-.15l6.41-.62c1.07-.09,2.14-.21,3.21-.31,1.08-.09,2.14-.22,3.22-.33,4.3-.45,8.59-.98,12.93-1.62l.33,.97c-.48,.27-.97,.53-1.46,.79-.49,.26-.98,.53-1.47,.77-.99,.48-1.98,.99-2.99,1.44-2.01,.93-4.05,1.8-6.1,2.62-1.03,.4-2.06,.82-3.09,1.2-1.04,.38-2.08,.76-3.12,1.13-1.05,.35-2.09,.7-3.15,1.04l-3.17,.97c-2.12,.61-4.21,1.44-6.34,2.13-1.06,.34-2.14,.61-3.23,.79-1.09,.19-2.21,.25-3.32,.26-2.24,0-4.5-.2-6.78-.69-2.28-.51-4.57-1.23-6.82-2.58l-.05-1.03Z"/>
                <path class="cls-9" d="M248.48,166.78c.23,.48,.45,.96,.67,1.45l.33,.73c.11,.24,.2,.49,.3,.74,.39,.99,.79,1.98,1.13,2.98,.36,1,.7,2.01,1.02,3.01,.32,1.01,.64,2.02,.94,3.02,.3,1.01,.6,2.02,.88,3.03l.83,3.03,.77,3.03,.74,3.03c.25,1.01,.54,2,.85,3,.32,.99,.66,1.97,.96,2.96,.29,.99,.56,1.97,.72,2.98,.16,1.01,.25,2.01,.27,3.02v.77s0,.77,0,.77c0,.51-.02,1.02-.05,1.53-.02,.51-.08,1.04-.12,1.55-.04,.51-.1,1.03-.17,1.55-.03,.26-.08,.53-.12,.79l-.13,.79c-.08,.52-.19,1.06-.3,1.61l-.19,.83c-.06,.27-.12,.55-.19,.83-.14,.56-.29,1.14-.51,1.76l-.97,.34c-.52-.37-.99-.78-1.44-1.2-.23-.21-.44-.43-.65-.65-.21-.22-.39-.45-.58-.67-.75-.91-1.45-1.87-2.01-2.84-.29-.49-.56-.98-.83-1.48-.26-.5-.49-.99-.71-1.5-.22-.5-.43-1.01-.62-1.52-.19-.51-.36-1.02-.52-1.53-.67-2.05-.95-4.14-.92-6.26,.03-2.12,.18-4.24,.11-6.32l-.08-3.12-.05-3.11-.03-6.22c-.02-4.14-.02-8.26-.31-12.41l.99-.28Z"/>
                <path class="cls-9" d="M248.25,229.77c.51-.24,1-.55,1.51-.86l1.52-.95c.51-.31,1.01-.62,1.52-.92,.51-.31,1.02-.6,1.53-.88,2.06-1.14,4.15-2.14,6.29-3,1.07-.43,2.16-.8,3.27-1.1,1.11-.3,2.25-.51,3.4-.69,1.15-.17,2.32-.31,3.48-.47,1.16-.17,2.32-.36,3.46-.61l13.72-3.02c2.29-.51,4.57-1.05,6.85-1.62,1.13-.29,2.27-.58,3.38-.91,.56-.16,1.11-.33,1.65-.52,.27-.1,.53-.2,.78-.3,.25-.1,.5-.22,.68-.34l.75,.7c-.46,.59-.94,.96-1.44,1.35-.49,.38-.99,.73-1.5,1.08-1.01,.68-2.04,1.31-3.08,1.92-2.08,1.23-4.19,2.36-6.32,3.46-1.07,.54-2.14,1.08-3.21,1.61-1.07,.53-2.16,1.03-3.24,1.54-1.09,.49-2.18,.99-3.27,1.47l-3.3,1.4c-1.1,.46-2.2,.96-3.28,1.47-1.09,.52-2.18,1.05-3.28,1.54-1.11,.48-2.23,.91-3.39,1.24-1.16,.33-2.34,.56-3.55,.72-2.42,.31-4.9,.41-7.46,.19-.64-.06-1.28-.13-1.94-.25-.32-.06-.65-.11-.98-.18-.33-.07-.66-.15-.99-.23-.66-.18-1.33-.38-2-.67-.33-.14-.67-.3-1.01-.49-.33-.2-.68-.42-.97-.75l.39-.95Z"/>
              </g>
              <g>
                <ellipse class="cls-20" cx="131.8" cy="308.38" rx="45.71" ry="56.26" transform="translate(-190.09 402.49) rotate(-83.15)"/>
                <path class="cls-26" d="M84.9,331.65c9,11.53,23.89,20.01,41.46,22.12,30.85,3.7,58.3-13.61,61.31-38.68,2.37-19.74-11.13-38.4-32.04-47.25,6.8,8.72,10.25,19.18,8.95,29.97-3.01,25.06-30.46,42.38-61.31,38.68-6.55-.79-12.73-2.46-18.37-4.84Z"/>
                <path class="cls-21" d="M75.94,301.68c-1.3,10.79,2.15,21.25,8.95,29.97,5.64,2.38,11.82,4.05,18.37,4.84,30.85,3.7,58.3-13.61,61.31-38.68,1.3-10.79-2.15-21.25-8.95-29.97-5.64-2.38-11.82-4.06-18.37-4.84-30.85-3.7-58.3,13.61-61.31,38.68Z"/>
                <path class="cls-13" d="M89.46,312.21c-.35,1.57,.64,3.13,2.21,3.48,1.57,.35,3.13-.64,3.48-2.21,.35-1.57-.64-3.13-2.21-3.48-1.57-.35-3.13,.64-3.48,2.21Z"/>
                <path class="cls-6" d="M107.6,276.9c-9.01,2.47-16.73,19.83-17.29,24.06"/>
                <path class="cls-7" d="M138.2,269.76c-7.03,3.94-24.45,3.38-24.45,3.38"/>
                <path class="cls-36" d="M95,272.96c-9.63,6.11-19.31-10.41-13.58-8.54,4.86,1.59,12.79-1.17,17.54-.32,8,1.43,8.8,.05,8.8,.05,0,0-10.68-3.58-15.26-7.65-5.26-4.68-9.83-9.39-7.5-11.66,1.97-1.91,11.69,.17,17.82,2.86,10.22,4.48,16.93,11.03,16.93,11.03,0,0-2.43-12.97-1.92-19.94,.2-2.74,2.34-2.68,5.13,1.98,3.82,6.38,4.73,11.2,4.73,11.2,0,0,10.59-9.44,15.5-10.92,4.37-1.32,4.66-5.95,7.76-6.42,2.23-.33-.55,4.33-1.17,9.3-.84,6.73-3.04,9.55-3.04,9.55,0,0,10.7-7.75,18.76-13.27,2.97-2.04-2.42,14.93-9,19.44-4.67,3.2-6.47,5.1-6.47,5.1,0,0,5.33-1.2,6.91,2.61,.87,2.09-17.36-1.23-31.66-.14-13.54,1.04-20.13-.71-30.28,5.73Z"/>
              </g>
              <g>
                <path class="cls-37" d="M111.73,143.28c-6.54-5.58-25.81-21.34-28.97-30.3-2.33-6.62,23.4,9.31,23.4,9.31,0,0-15.19-20.23-10.74-26.74,3.95-5.78,19.53,21.79,19.53,21.79,0,0-2.34-28.95,3.62-25.99,5.5,2.73,13,28.45,15.48,41.15"/>
                <path class="cls-18" d="M117.85,139.32l11.94-5.3c11.44-5.09,24.23,0,27.06,10.78l37.8,141.31c.79,2.96-3.16,4.76-4.88,2.22l-81.86-121.39c-6.39-9.31-1.66-22.46,9.94-27.61Z"/>
                <g class="cls-34">
                  <path class="cls-18" d="M155.06,142.2c-1.49,.49-2.94,.95-4.41,1.37-1.47,.42-2.94,.82-4.42,1.19-1.48,.37-2.97,.7-4.48,.99-1.51,.28-3.03,.53-4.6,.63,1.37-.78,2.8-1.37,4.25-1.9,1.45-.53,2.93-.97,4.43-1.34,1.5-.37,3.02-.67,4.56-.85,1.54-.18,3.11-.28,4.67-.09Z"/>
                </g>
                <g class="cls-34">
                  <path class="cls-18" d="M166.6,190.44c-1.4,.71-2.77,1.38-4.15,2.03-1.39,.64-2.78,1.26-4.18,1.85-1.41,.59-2.83,1.14-4.28,1.66-1.45,.51-2.91,.98-4.45,1.33,1.24-.98,2.56-1.78,3.91-2.53,1.35-.74,2.75-1.41,4.17-2,1.42-.59,2.88-1.12,4.37-1.54,1.49-.41,3.03-.75,4.6-.8Z"/>
                </g>
                <g class="cls-34">
                  <path class="cls-18" d="M115.65,157.6c-.75,.8-1.47,1.51-2.17,2.24-.7,.72-1.37,1.45-2,2.2-.65,.74-1.23,1.52-1.82,2.33-.14,.2-.29,.41-.44,.61-.13,.21-.27,.42-.42,.64l-.22,.32c-.07,.11-.13,.22-.21,.33-.14,.22-.29,.44-.46,.67,0-.27,0-.54,.02-.81,0-.14,.02-.27,.03-.41,.02-.13,.05-.27,.08-.4,.06-.27,.12-.53,.19-.8,.09-.26,.18-.51,.28-.77,.41-1.01,.98-1.97,1.7-2.79,.71-.83,1.54-1.55,2.45-2.13,.92-.57,1.91-1.03,3-1.22Z"/>
                </g>
                <g class="cls-34">
                  <path class="cls-18" d="M146.95,159.52c-1.8,.55-3.51,1.18-5.22,1.83-1.71,.65-3.4,1.33-5.1,2.03-1.69,.69-3.38,1.41-5.06,2.13-.84,.36-1.68,.74-2.51,1.12-.82,.4-1.67,.76-2.44,1.3,.14-.19,.28-.38,.43-.57l.5-.51c.17-.18,.35-.31,.53-.47,.18-.15,.36-.31,.55-.45,.75-.57,1.53-1.1,2.34-1.59,1.61-.97,3.29-1.81,5.03-2.51,1.74-.71,3.52-1.3,5.35-1.73,1.83-.42,3.72-.71,5.6-.58Z"/>
                </g>
                <g class="cls-34">
                  <path class="cls-18" d="M145.28,175.78c-1.72,.48-3.33,1.07-4.93,1.73-1.59,.65-3.15,1.37-4.67,2.15-1.52,.78-3,1.63-4.43,2.57-1.42,.95-2.78,1.97-4.02,3.26,.18-.4,.36-.82,.59-1.21,.12-.19,.24-.38,.37-.57l.19-.28c.07-.09,.14-.18,.21-.27,.56-.71,1.19-1.37,1.86-1.97,1.36-1.2,2.87-2.2,4.47-3.02,1.6-.82,3.28-1.47,5.02-1.91,1.74-.43,3.55-.69,5.33-.49Z"/>
                </g>
                <g class="cls-34">
                  <path class="cls-18" d="M165.26,210.68c-1.72,.76-3.35,1.57-4.98,2.42-1.62,.84-3.23,1.71-4.83,2.59-1.6,.88-3.19,1.78-4.78,2.7-.8,.46-1.58,.92-2.37,1.4-.77,.49-1.57,.95-2.28,1.57,.11-.2,.24-.41,.37-.61l.44-.56c.14-.19,.31-.35,.47-.53,.16-.17,.32-.35,.5-.51,.68-.66,1.4-1.27,2.14-1.84,1.49-1.14,3.06-2.17,4.71-3.07,1.64-.9,3.35-1.69,5.12-2.33,1.77-.63,3.61-1.13,5.5-1.22Z"/>
                </g>
                <g class="cls-34">
                  <path class="cls-18" d="M179.59,233c-1.74,.39-3.38,.89-5.01,1.46-1.62,.57-3.22,1.2-4.78,1.89-1.56,.7-3.09,1.46-4.56,2.32-1.47,.87-2.89,1.82-4.2,3.03,.2-.39,.4-.8,.66-1.18,.13-.19,.26-.37,.4-.55l.21-.27c.07-.09,.15-.17,.22-.25,.6-.68,1.26-1.3,1.97-1.86,1.42-1.12,2.99-2.04,4.63-2.77,1.64-.73,3.36-1.28,5.12-1.63,1.76-.34,3.58-.5,5.35-.19Z"/>
                </g>
              </g>
              <g>
                <polyline class="cls-10" points="320.91 85.19 320.91 356.05 138.31 356.05 138.31 85.19"/>
                <rect class="cls-14" x="155.25" y="155.1" width="68.98" height="5.88"/>
                <rect class="cls-14" x="155.25" y="164.66" width="37.9" height="5.88"/>
                <rect class="cls-14" x="196.98" y="164.66" width="27.32" height="5.88"/>
                <rect class="cls-14" x="155.25" y="174.22" width="68.98" height="5.88"/>
                <rect class="cls-14" x="155.25" y="183.78" width="27.32" height="5.88"/>
                <rect class="cls-14" x="155.25" y="193.34" width="68.98" height="5.88"/>
                <rect class="cls-14" x="155.25" y="202.89" width="59.76" height="5.88"/>
                <rect class="cls-14" x="155.28" y="266.19" width="148.94" height="67.45"/>
                <path class="cls-30" d="M262.19,76.87h-5.77c-1.76-9.89-3.68-17.37-26.81-17.37-20.64,0-24.31,7.48-26.07,17.37h-6.51c-3.17,0-5.74,2.7-5.74,6.04v3.78c0,3.34,2.57,6.04,5.74,6.04h65.16c3.17,0,5.74-2.7,5.74-6.04v-3.78c0-3.34-2.57-6.04-5.74-6.04Z"/>
                <rect class="cls-14" x="155.28" y="98.86" width="148.94" height="51.37"/>
                <rect class="cls-14" x="221.81" y="159.64" width="82.41" height="1.35"/>
                <rect class="cls-14" x="221.81" y="169.2" width="82.41" height="1.35"/>
                <rect class="cls-14" x="221.81" y="178.75" width="82.41" height="1.35"/>
                <rect class="cls-14" x="155.25" y="233.05" width="68.98" height="5.88"/>
                <rect class="cls-14" x="155.25" y="242.61" width="37.9" height="5.88"/>
                <rect class="cls-14" x="196.98" y="242.61" width="27.32" height="5.88"/>
                <rect class="cls-14" x="155.25" y="252.17" width="68.98" height="5.88"/>
                <rect class="cls-14" x="155.28" y="217.87" width="148.94" height="10.37"/>
                <rect class="cls-10" x="162.88" y="219.96" width="46.79" height="6.19"/>
                <rect class="cls-10" x="162.88" y="268.96" width="63.54" height="12.13"/>
                <rect class="cls-10" x="232.29" y="268.96" width="63.54" height="12.13"/>
                <rect class="cls-10" x="162.88" y="285.29" width="63.54" height="12.13"/>
                <rect class="cls-10" x="232.29" y="285.29" width="63.54" height="12.13"/>
                <rect class="cls-10" x="162.88" y="301.62" width="63.54" height="12.13"/>
                <rect class="cls-10" x="232.29" y="301.62" width="63.54" height="12.13"/>
                <rect class="cls-10" x="162.88" y="317.96" width="63.54" height="12.13"/>
                <rect class="cls-10" x="232.29" y="317.96" width="63.54" height="12.13"/>
                <rect class="cls-14" x="221.81" y="237.59" width="82.41" height="1.35"/>
                <rect class="cls-14" x="221.81" y="247.15" width="82.41" height="1.35"/>
                <rect class="cls-14" x="221.81" y="256.7" width="82.41" height="1.35"/>
                <rect class="cls-14" x="181.14" y="188.31" width="123.08" height="1.35"/>
                <rect class="cls-14" x="221.81" y="197.87" width="82.41" height="1.35"/>
                <rect class="cls-14" x="213.75" y="207.43" width="90.47" height="1.35"/>
                <g>
                  <path class="cls-10" d="M195.89,138.86h-5.58v-12.05h-8.33v12.05h-5.58v-29.09h5.58v12.51h8.33v-12.51h5.58v29.09Z"/>
                  <path class="cls-10" d="M212.92,132.65h-7.19l-1.42,6.21h-5.61l7.77-29.09h5.77l7.73,29.09h-5.6l-1.46-6.21Zm-6.15-4.54h5.12l-2.54-10.95h-.06l-2.52,10.95Z"/>
                  <path class="cls-10" d="M240.13,129.81c-.01,3.18-.81,5.56-2.38,7.12-1.57,1.57-3.85,2.35-6.83,2.35s-5.16-.9-6.72-2.69c-1.57-1.79-2.35-4.43-2.35-7.92v-8.69c0-3.45,.8-6.08,2.41-7.9,1.61-1.82,3.83-2.73,6.66-2.73,3.04,0,5.31,.79,6.82,2.37,1.51,1.58,2.31,4,2.41,7.26h-5.58c.07-1.84-.17-3.14-.71-3.92-.54-.77-1.52-1.16-2.95-1.16-1.21,0-2.1,.48-2.67,1.45-.57,.97-.85,2.49-.85,4.59v8.73c0,2.16,.27,3.71,.8,4.66,.53,.95,1.44,1.42,2.72,1.42s2.29-.37,2.87-1.11c.58-.74,.84-2.01,.77-3.83h5.58Z"/>
                  <path class="cls-10" d="M261.23,129.81c-.01,3.18-.81,5.56-2.38,7.12-1.57,1.57-3.85,2.35-6.83,2.35s-5.16-.9-6.72-2.69c-1.57-1.79-2.35-4.43-2.35-7.92v-8.69c0-3.45,.8-6.08,2.41-7.9,1.61-1.82,3.83-2.73,6.66-2.73,3.04,0,5.31,.79,6.82,2.37,1.51,1.58,2.31,4,2.41,7.26h-5.58c.07-1.84-.17-3.14-.71-3.92-.54-.77-1.52-1.16-2.95-1.16-1.21,0-2.1,.48-2.67,1.45-.57,.97-.85,2.49-.85,4.59v8.73c0,2.16,.27,3.71,.8,4.66,.53,.95,1.44,1.42,2.72,1.42s2.29-.37,2.87-1.11c.58-.74,.84-2.01,.77-3.83h5.58Z"/>
                  <path class="cls-10" d="M269.97,128.43v10.43h-5.58v-29.09h9.71c2.81,0,5.01,.85,6.6,2.54,1.59,1.69,2.39,3.96,2.39,6.79s-.8,5.12-2.39,6.8c-1.59,1.69-3.79,2.53-6.6,2.53h-4.14Zm0-4.56h4.14c1.13,0,1.98-.44,2.56-1.32,.57-.88,.86-2.02,.86-3.42s-.29-2.58-.86-3.48c-.57-.89-1.43-1.34-2.56-1.34h-4.14v9.55Z"/>
                </g>
              </g>
              <g>
                <path class="cls-15" d="M298.63,150.33v70.58c0,1.7-3.81,2.55-6.05,1.35l-13.72-7.3-13.72,7.3c-2.24,1.19-6.05,.34-6.05-1.35v-64.99c1.22-1.97,2.33-3.91,3.15-5.86,1.34-2.6,2.13-5.2,6.47-5.21,3.12-.71,9.77,1.39,14.64,3.23,.62,.24,1.22,.48,1.79,.71,2.86,.38,5.64,.69,8.23,.6,1.91,.08,3.71-.05,5.25,.94Z"/>
                <path class="cls-35" d="M308.69,179.07c-.81,3.09-5.76,8.02-9.64,11.49-.14,.13-.29,.25-.43,.38-.17,.15-.35,.3-.51,.44-1.42,2.26-2.74,4.48-3.68,6.71-1.34,2.6-2.12,5.2-6.47,5.21-3.12,.71-9.77-1.39-14.65-3.22-.62-.24-1.22-.48-1.79-.71-2.85-.38-5.63-.69-8.23-.6-1.49-.06-2.91,0-4.2-.44-1.24-.42-2.34-1.31-3.24-3.25-1.79-2.32-2.68-8.34-3.11-13.33-.99-1.62-2.02-3.16-3.14-4.52-1.69-2.39-3.63-4.29-1.62-8.15,.81-3.09,5.76-8.02,9.64-11.49,.32-.28,.64-.56,.94-.82,.18-.28,.35-.57,.53-.85,1.22-1.97,2.33-3.91,3.15-5.86,1.34-2.6,2.13-5.2,6.47-5.21,3.12-.71,9.77,1.39,14.64,3.23,.62,.24,1.22,.48,1.79,.71,2.86,.38,5.64,.69,8.23,.6,1.91,.08,3.71-.05,5.25,.94,.82,.53,1.56,1.38,2.19,2.75,1.79,2.32,2.68,8.34,3.12,13.33,.99,1.62,2.02,3.16,3.13,4.52,1.69,2.39,3.63,4.29,1.62,8.15Z"/>
                <circle class="cls-15" cx="278.34" cy="174.07" r="22.99" transform="translate(44.98 404.97) rotate(-76.72)"/>
                <circle class="cls-2" cx="278.34" cy="174.07" r="20.57"/>
                <g>
                  <path class="cls-2" d="M291.84,174.07c0,3.13-1.07,6.02-2.86,8.31-2.47,3.16-6.32,5.19-10.64,5.19s-8.17-2.03-10.64-5.19c-1.79-2.29-2.86-5.18-2.86-8.31s1.07-6.02,2.86-8.31c2.47-3.16,6.32-5.19,10.64-5.19s8.17,2.03,10.64,5.19c1.79,2.29,2.86,5.17,2.86,8.31Z"/>
                  <ellipse class="cls-2" cx="278.34" cy="174.07" rx="8.24" ry="13.5"/>
                  <path class="cls-2" d="M291.84,174.07c0,3.13-1.07,6.02-2.86,8.31h-21.28c-1.79-2.29-2.86-5.18-2.86-8.31s1.07-6.02,2.86-8.31h21.28c1.79,2.29,2.86,5.17,2.86,8.31Z"/>
                  <line class="cls-2" x1="264.84" y1="174.07" x2="291.84" y2="174.07"/>
                  <line class="cls-2" x1="278.34" y1="160.57" x2="278.34" y2="187.57"/>
                </g>
              </g>
              <g>
                <g>
                  <path class="cls-32" d="M73.91,245.64s-4.77,5.35-9.02,3.19c-5.79-2.94-16.19-21.37-16.19-21.37-1.14-2.58,8.19-6.72,9.34-4.14l15.87,22.33Z"/>
                  <path class="cls-10" d="M48,221.75c-2.19,5.2,1.7,11.58,4.94,16.16,.63,.89,13.63-5.14,11.99-8.69-.44-.96-5.29-8.21-5.63-9.36-.45-1.58-6.51-9.49-11.31,1.9Z"/>
                  <g>
                    <path class="cls-32" d="M65.93,249.21c-2.04-.34-2.25-8.39-.1-9.22,6.23-2.4,23.37-.7,23.37-.7l1.23,5.96s-19.4,4.82-24.51,3.97Z"/>
                    <path class="cls-32" d="M95.46,236.1c1.05-.28-.75,4.12,.05,4.33,.73,.2,4.06,.52,4.81,.57,1.78,.14,5.11,1.1,3.64,2.5-5.65,5.36-11.52,1.25-13.84,1.8-1.63,.39-6.27-6.52-1.75-6.11,.84,.08,4.59-2.44,7.1-3.1Z"/>
                  </g>
                </g>
                <g>
                  <path class="cls-10" d="M14.48,359.44c1.13,2.67,8.02,4.36,10.6,5.35,1.66,.64,12.08,2.25,10.68-3.26-.35-1.4-4.6-.78-5.92-.98-2.32-.35-4.63-.71-6.86-1.48-.95-.33-7.78-4.43-8.03-2.5-.09,.67-1.07,1.45-.47,2.86Z"/>
                  <path class="cls-32" d="M23.71,346.33c-1.06-.15-2.13-.31-3.19-.46-.12-.02-.25-.03-.36,.02-.16,.07-.25,.26-.32,.43-1.09,2.46-1.8,5.16-2.09,7.94-.04,.43-.06,.93,.19,1.25,.2,.25,.5,.32,.78,.38,1.52,.31,3.03,.62,4.55,.92,.18,.04,.37,.07,.53-.02,.12-.07,.21-.2,.28-.33,1.06-1.71,1.82-3.66,2.37-5.69,.19-.69,.35-1.42,.24-2.14-.24-1.52-1.87-2.16-2.98-2.32Z"/>
                  <path class="cls-38" d="M35.37,360.99c1.92,1.82-2.8,2.78-4.27,2.89-2.16,.17-4.23-.29-6.23-.97-2.15-.73-7.01-2.95-8.93-4.19-1.37-.88-1.48-1.48-.35-3.5,.23-.41,1.52-2.96,2.52-2.06,.81,.73,2.42,1.86,3.56,1.95,2.27,.18,2.88-.59,3.54-.05,4.25,3.47,8.73,4.58,10.15,5.93Z"/>
                  <path class="cls-10" d="M81.57,361.14c-1.06,2.2-13.4,1.32-15.82,1.36-1.45,.03-9.07,1.06-7.02-3.39,.69-1.5,5.92-.53,7.47-.56,2.44-.04,4.79-.29,7.21-.5,2.08-.17,7.44-2.22,8.42-.21,.26,.53,.23,2.26-.26,3.29Z"/>
                  <path class="cls-32" d="M60.39,353.84c-.47,4.3,.35,4.36,4.72,4.56,3.6,.16,3.43-.92,3.15-4.72-.27-3.6-.41-2.98-3.99-3.54-2.77-.43-3.5,.23-3.88,3.69Z"/>
                  <path class="cls-11" d="M61.29,270.69c2.54,7.42,7.57,30.31,8.14,36.19,.69,7.15,1.87,31.33,1.25,41.76-.2,3.44-11.92,3.41-12.1,.27-.49-8.44-3.62-28.29-3-37.08-2.12-3.96-9.69-24.89-13.78-31.62-3.66-6-7.82-3.8-7.73-10.8,.06-4.72,15.54-17.83,22.03-14.14,2.84,1.62,3.27,9.8,5.19,15.42Z"/>
                  <path class="cls-11" d="M27.31,270.07c-1.15,6-1.8,33.8-1.13,37.67-3.68,5.03-7.47,31.31-8.1,38.65-.38,4.37,10.96,8.31,11.79,.85,1.26-11.43,7.94-21,10.48-32.21,1.32-5.81,7.61-35.81,9.96-40.62,3.03-6.2,6.11-17.98,2.64-25.16-3.16-6.54-13.03-4.87-17.24,.05-5.05,5.92-6.61,11.33-8.41,20.78Z"/>
                  <path class="cls-38" d="M81.02,356.96c2.52,1.27-1.24,3.95-5.29,3.95-2.91,0-12.99,.41-15.33-.26-1.67-.48-1.96-1.07-1.41-3.49,.11-.49,.68-3.52,1.97-2.9,1.05,.5,3.04,1.13,4.24,.9,.89-.17,2.79-1.5,3.63-1.15,5.4,2.25,10.33,2.01,12.2,2.95Z"/>
                  <path class="cls-10" d="M58.05,220.29c1.13,16.22,.76,35.2,3.8,50.15-2.98,1.91-33.18,2.67-35.02-.27,5.12-24.25,0-33.27,.58-45.62,.28-6.04,5.22-9.34,13.44-11.12,5.07-1.1,16.8,.93,17.21,6.86Z"/>
                  <path class="cls-24" d="M71.79,349.93c-.3,.8-1.07,1.38-1.88,1.66-.81,.28-7.47,.92-9.92,.34-.68-.16-1.38-.4-1.79-.96-.36-.49-.22-4.37-.34-5.77,1.05,.42,1.66,.57,2.76,.8,1.02,.22,2.08,.35,3.12,.17,2.44-.43,4.01-1.51,6.13-2.81,.22-.13,.44-.26,.69-.29,.57-.07,1.09,.41,1.25,.96,.22,.75,.15,5.43-.03,5.9Z"/>
                  <path class="cls-24" d="M28.37,354.22c-.82,.32-9.05,.05-11.15-2.32-.8-.91-.1-5.26,.02-6.72,1,.63,1.61,.91,2.69,1.37,1.01,.42,2.06,.77,3.15,.78,2.55,.03,4.2-.29,5.78-.84,.24-.09,1.02-.25,1.27-.27,1.47-.1,.28,7.2-1.77,7.99Z"/>
                  <g>
                    <path class="cls-38" d="M50.59,184.14c7.25-2.52,2.81,12.25,2.17,17.5,.17-2.15-.48-5.73-2.39-8.53-.37-.55-.69-1.04-.97-1.48-1,.83-2.5,1.89-4.47,1.55-14.79-2.57-4.46,17.4-8.46,12.09-2.91-3.87-5.24-9.45-4.23-14.02,.95-4.3,3.05-6.77,6.28-5.64,2.67-4.11,8.04-.08,12.06-1.48Z"/>
                    <path class="cls-32" d="M38.74,215.27c-.16,2.33,9.31,3.43,9.29,.55-.03-3.21-.11-5.15,.09-8.23,.1-1.56-8.51-3.53-8.76-1.12-.24,2.34-.42,5.76-.62,8.8Z"/>
                    <path d="M40.81,209.23c0,.06,.01,.11,.02,.17,.19,1.37,2.25,2.69,4.48,3.12,1.27,.25,2.76-.75,2.86-2.37,.05-1.19,.04-.19-.08-.61-2.35-.48-6.38-.37-7.15-.33-.08,0-.13,0-.13,0Z"/>
                    <path class="cls-32" d="M36.53,200.53c.42,7.4,3.96,9.45,8.44,10.54,4.56,1.11,8.17-4.09,7.76-11.46-.41-7.27-1.05-11.2-5.07-11.08-4.1,.12-11.56,4.45-11.13,12Z"/>
                    <path class="cls-38" d="M52.63,192.2c-.14,2.12-5.95,1.84-7.85,1.24-14.26-4.54-.78,20.77-7.16,13.34-3.68-4.28-5.37-15.05-2.66-18.86,2.93-4.13,12.02-3.48,13.29-3.13,3.22,.87,4.47,6.09,4.38,7.41Z"/>
                    <path class="cls-32" d="M36.49,202.12c.62,2,1.95,3.37,2.97,3.05,1.02-.32,1.35-2.2,.73-4.2-.62-2-1.95-3.37-2.97-3.05-1.02,.32-1.35,2.2-.73,4.2Z"/>
                    <path class="cls-10" d="M43.91,205.23c1.65,4.13,5.68,1.87,5.12,.15-.77,.02-4.22,.49-5.12-.15Z"/>
                  </g>
                </g>
                <g>
                  <path class="cls-22" d="M208.32,197.4c.11-1.28,.17-2.55,.18-3.82,.04-2.85-.16-5.69-.6-8.49-.09-.57-.18-1.13-.29-1.69-1.02-5.44-2.93-10.75-5.69-15.75-1.6-2.89-3.45-5.61-5.51-8.12-6.04-7.35-13.96-12.99-23.12-16.41-1.46-.55-2.94-1.03-4.46-1.46-12.21-3.46-24.74-2.66-35.87,1.49-2.1,.78-4.14,1.68-6.12,2.69-13,6.63-23.39,18.09-27.99,32.71-3.67,11.68-3.23,23.88,1.16,35.01,.03,.09,.06,.16,.09,.24,.07,.18,.14,.35,.22,.53,.42,1.02,.87,2.02,1.35,3.02,.4,.83,.83,1.65,1.28,2.46,.08,.15,.16,.29,.25,.43,2.49,4.4,5.54,8.37,9.07,11.85,.23,.23,.47,.45,.7,.68,.01,.01,.02,.02,.04,.03,.85,.81,1.72,1.58,2.62,2.33,1.23,1.03,2.51,2,3.84,2.91,4.96,3.42,10.54,6.05,16.58,7.76,.14,.04,.28,.08,.43,.12,4.31,1.19,8.65,1.84,12.96,2.01,3.25,.12,6.47-.03,9.65-.44,10.2-1.32,19.84-5.34,27.85-11.49,6.11-4.69,11.28-10.61,15.03-17.53,.83-1.52,1.58-3.09,2.26-4.7,.67-1.58,1.27-3.2,1.79-4.87,.59-1.87,1.07-3.75,1.45-5.64,.39-1.96,.68-3.91,.84-5.87Zm-91,25.78s0,0,0,0c-2.15-2.42-4.03-5.08-5.63-7.96-.32-.57-.62-1.15-.91-1.73-.57-1.15-1.09-2.33-1.56-3.52-3.59-9.14-3.93-19.16-.92-28.74,.4-1.28,.86-2.52,1.36-3.74,.77-1.87,1.67-3.66,2.67-5.38,4.26-7.29,10.46-13.16,17.74-17.16,2.7-1.48,5.55-2.7,8.49-3.64,1.89-.6,3.83-1.1,5.79-1.46,.26-.05,.52-.1,.77-.14,3.2-.54,6.48-.76,9.78-.63,.57,.02,1.13,.05,1.7,.1,3.11,.23,6.23,.78,9.32,1.65,1.99,.56,3.91,1.25,5.77,2.04,6.17,2.65,11.59,6.56,15.93,11.49,2.11,2.39,3.98,5.03,5.55,7.88,.82,1.49,1.55,3.01,2.19,4.56,.82,2,1.49,4.05,2,6.12,.75,3.06,1.16,6.17,1.22,9.32,.04,1.96-.06,3.94-.29,5.91-.32,2.71-.9,5.42-1.74,8.09-1.64,5.23-4.19,9.97-7.42,14.1-.86,1.1-1.76,2.15-2.71,3.16-7.24,7.71-17.05,12.82-27.64,14.39-5.63,.85-11.47,.68-17.27-.61-.86-.2-1.73-.41-2.59-.66-5.33-1.51-10.22-3.89-14.52-7.01-2.6-1.89-4.98-4.04-7.11-6.44Z"/>
                  <path class="cls-22" d="M20.3,265.47c2.92,7.12,11.12,9.49,18.25,6.57,.91-.37,1.82-.87,2.6-1.4l26.84-14.14,47.03-24.79,2.95-1.55c3.09-2.12-1.26-8.08-3.38-11.17-1.2-1.75-2.97-4.93-4.86-6.6-1.02-.9-2.06-1.37-3.08-.96l-3.87,1.79L27.9,247.81c-7.13,2.92-10.52,10.55-7.6,17.66Z"/>
                  <path class="cls-28" d="M208.75,203.36c.11-.87,.2-1.74,.26-2.6,.09-1.28,.15-2.55,.15-3.82,.02-3.43-.29-6.84-.92-10.21-.1-.54-.21-1.09-.33-1.63-1.08-4.89-2.85-9.66-5.29-14.19-2.1-3.88-4.62-7.45-7.51-10.65-6-6.66-13.59-11.73-22.2-14.77-.84-.3-1.69-.57-2.55-.83-11.87-3.55-24.01-2.83-34.78,1.26-2.03,.77-4,1.66-5.92,2.66-12.56,6.56-22.56,17.98-26.93,32.59-2.81,9.41-3.03,19.18-.73,28.47,.29,1.17,.62,2.33,.98,3.48,.15,.48,.31,.95,.47,1.42,0,0,0,0,0,0,.2,.57,.41,1.14,.63,1.7,0,0,0,0,0,0,.03,.09,.06,.16,.09,.24,.11,.29,.23,.59,.35,.88,0,.03,.02,.06,.03,.08h0c.52,1.25,1.08,2.49,1.7,3.71,.06,.13,.13,.25,.19,.37,.17,.33,.34,.67,.52,1,.08,.15,.16,.29,.24,.44,1.87,3.39,4.06,6.53,6.54,9.39,.75,.87,1.53,1.71,2.33,2.53,.24,.24,.48,.48,.72,.72,.86,.84,1.75,1.66,2.66,2.44h0s0,0,0,0c0,0,0,0,0,0,5.68,4.86,12.37,8.52,19.74,10.72,.14,.04,.28,.08,.42,.12,4.18,1.22,8.41,1.9,12.58,2.1,3.15,.15,6.28,.02,9.35-.37,9.88-1.26,19.2-5.22,26.93-11.33,2.5-1.98,4.84-4.18,6.97-6.58,1.29-1.45,2.51-2.98,3.64-4.58,.12-.16,.23-.33,.35-.5,.96-1.38,1.85-2.81,2.69-4.29,.28-.5,.55-1,.82-1.51,.79-1.52,1.52-3.09,2.17-4.7,.64-1.58,1.21-3.2,1.7-4.86,.07-.25,.15-.49,.22-.74,.33-1.16,.62-2.34,.87-3.51,.1-.46,.19-.93,.28-1.39,.01-.05,.02-.1,.03-.15,.19-1.04,.36-2.08,.49-3.12Zm-11.36-20.44s0,0,0,0c1.34,4.09,2.06,8.33,2.17,12.6,.05,1.97-.03,3.94-.25,5.91,0,.02,0,.03,0,.05-.02,.19-.04,.37-.06,.56-.04,.34-.09,.68-.14,1.03-.08,.53-.16,1.06-.26,1.59-.05,.28-.11,.57-.16,.85-.04,.19-.08,.39-.12,.58,0,.02,0,.05-.01,.07,0,.02,0,.04-.02,.07-.05,.25-.11,.5-.17,.75-.06,.25-.12,.5-.19,.75-.04,.17-.09,.34-.14,.52-.01,.05-.03,.1-.04,.14-.04,.15-.08,.29-.12,.44-.07,.24-.13,.47-.2,.71-.02,.06-.04,.12-.06,.18-.06,.2-.13,.41-.19,.61-.03,.11-.07,.21-.1,.32-.08,.25-.16,.5-.25,.75-.08,.22-.16,.45-.24,.67,0,0,0,.02,0,.03-.08,.22-.16,.43-.24,.65-.1,.25-.19,.49-.29,.74-.06,.15-.12,.31-.19,.46-.21,.51-.43,1.02-.66,1.52-.1,.22-.2,.44-.31,.65-.15,.32-.31,.64-.47,.95-.07,.15-.15,.29-.23,.43-.07,.14-.15,.29-.23,.43-.06,.12-.13,.24-.2,.36-.02,.04-.04,.07-.06,.11-.07,.13-.14,.25-.21,.38-.08,.14-.16,.28-.24,.42-.06,.11-.12,.21-.18,.32-.1,.17-.2,.34-.31,.51-.15,.25-.3,.49-.45,.73-.11,.17-.21,.34-.32,.5-.03,.05-.06,.09-.09,.14-.02,.03-.03,.05-.05,.08-.09,.14-.18,.27-.28,.41-.28,.41-.56,.81-.85,1.2-.13,.18-.26,.35-.39,.53-.16,.21-.32,.43-.49,.64,0,.01-.02,.02-.02,.03-.12,.16-.25,.32-.38,.48-.07,.08-.13,.16-.2,.24-.1,.13-.21,.25-.31,.37-.07,.08-.13,.16-.2,.23-.15,.18-.3,.35-.45,.53-.18,.21-.37,.42-.55,.62-1.24,1.36-2.55,2.64-3.94,3.83-.24,.2-.47,.4-.71,.6-.07,.06-.14,.12-.21,.18-.18,.15-.37,.3-.57,.45-.03,.03-.07,.06-.1,.08-.23,.18-.47,.37-.71,.55-.02,.02-.04,.03-.06,.05-.17,.12-.33,.24-.5,.37-.08,.06-.17,.12-.25,.18-.11,.08-.22,.16-.33,.23-.15,.11-.31,.22-.47,.33-.06,.04-.12,.08-.18,.12-.17,.12-.35,.24-.52,.35-.13,.09-.26,.18-.4,.26-.49,.32-.99,.63-1.5,.93-.2,.12-.4,.23-.6,.34-.46,.26-.92,.51-1.39,.76-.23,.12-.47,.24-.7,.36-.22,.11-.43,.22-.65,.32-.26,.12-.52,.25-.78,.36-.41,.19-.83,.37-1.24,.55-.02,0-.04,.02-.06,.02-.11,.05-.22,.09-.33,.14-.36,.15-.71,.29-1.08,.43-.13,.05-.27,.1-.4,.15-.36,.13-.73,.26-1.1,.39-.18,.06-.37,.12-.55,.18-.18,.06-.37,.12-.55,.18-.49,.16-.98,.3-1.47,.44-.19,.05-.39,.11-.58,.16-.06,.02-.12,.03-.19,.05-.22,.06-.45,.11-.68,.17-.26,.06-.51,.12-.77,.18,0,0,0,0-.01,0-.2,.04-.4,.09-.59,.13-.13,.03-.26,.06-.4,.08-.19,.04-.37,.07-.56,.11,0,0-.02,0-.03,0-.2,.04-.41,.08-.61,.11-.12,.02-.24,.04-.36,.06-.2,.04-.39,.07-.59,.09-.37,.05-.74,.11-1.12,.15-.2,.03-.4,.05-.61,.07-.26,.03-.52,.05-.78,.08-.14,.01-.28,.02-.41,.03-.18,.02-.37,.03-.55,.04h0c-.43,.03-.86,.05-1.29,.07-.19,0-.38,.01-.57,.02-.42,.01-.85,.02-1.27,.01-.17,0-.35,0-.52,0-.07,0-.14,0-.21,0-.12,0-.25,0-.37,0-.13,0-.25,0-.38-.01-.56-.02-1.11-.05-1.67-.09-.21-.01-.42-.03-.63-.05-.64-.05-1.27-.13-1.9-.21-.21-.03-.43-.06-.63-.09-.37-.05-.75-.11-1.12-.18-.37-.06-.75-.13-1.12-.21-.53-.11-1.07-.22-1.6-.35-.84-.2-1.68-.42-2.52-.67-.28-.08-.56-.17-.83-.26-.02,0-.04-.01-.06-.02-.28-.09-.55-.18-.83-.27-.28-.1-.56-.19-.83-.29-.02,0-.03,0-.05-.02-.27-.1-.53-.2-.8-.3t0,0c-.18-.06-.35-.13-.52-.2-.17-.07-.35-.14-.52-.21-.51-.21-1.02-.43-1.53-.67-.11-.05-.22-.1-.33-.15-.23-.11-.46-.22-.68-.33-.16-.08-.32-.16-.48-.24-.23-.12-.46-.23-.69-.35-.43-.23-.85-.46-1.27-.7-.19-.11-.38-.22-.57-.33-.15-.09-.31-.18-.46-.28-.62-.37-1.23-.76-1.82-1.17-.16-.1-.31-.21-.46-.32-.03-.02-.05-.03-.08-.06-.19-.13-.38-.27-.57-.4-.19-.14-.38-.27-.57-.41-.03-.02-.05-.04-.08-.06-.19-.15-.39-.29-.58-.44-.02-.02-.04-.03-.06-.05-.38-.29-.75-.59-1.12-.9-.03-.03-.07-.06-.1-.09-.15-.12-.3-.25-.44-.37-.05-.04-.09-.07-.13-.11-.17-.15-.35-.3-.52-.45-.19-.17-.38-.34-.56-.51,0,0-.01,0-.02-.01,0,0,0,0,0,0-3.58-3.31-6.63-7.22-9.01-11.64-.93-1.72-1.74-3.48-2.42-5.27-3.54-9.18-3.94-19.22-1.07-28.8,.38-1.28,.81-2.52,1.3-3.74,.74-1.87,1.6-3.66,2.56-5.37,4.08-7.28,10.06-13.12,17.09-17.07,2.61-1.47,5.36-2.67,8.21-3.59,1.83-.59,3.7-1.07,5.6-1.42,.15-.03,.3-.05,.45-.08,.1-.02,.2-.04,.3-.05,3.1-.52,6.28-.72,9.48-.57,.55,.02,1.1,.06,1.65,.11,3.01,.26,6.04,.82,9.05,1.71,.29,.08,.57,.17,.85,.26,.25,.08,.49,.16,.74,.25,.1,.03,.19,.06,.29,.1,.16,.05,.32,.11,.47,.17,.15,.05,.3,.11,.46,.17,.16,.06,.31,.11,.46,.17,.15,.06,.31,.12,.46,.18,.19,.08,.38,.15,.57,.23,.01,0,.03,.01,.04,.02,.32,.13,.63,.26,.94,.4,.17,.08,.34,.15,.51,.23,0,0,0,0,.01,0,.26,.12,.52,.24,.77,.36,0,0,.01,0,.02,.01,.25,.12,.49,.24,.73,.36,.04,.02,.09,.05,.14,.07,.19,.1,.38,.19,.57,.29,.07,.03,.13,.07,.2,.1,.29,.15,.58,.31,.87,.47,.16,.09,.31,.17,.47,.26,.06,.04,.13,.07,.19,.11,.17,.1,.34,.2,.52,.31,.1,.06,.2,.12,.3,.18,.2,.12,.41,.25,.61,.38,.22,.14,.43,.27,.64,.42,.27,.18,.54,.36,.81,.54h0c.14,.1,.27,.19,.41,.29,.22,.15,.44,.31,.65,.47,.15,.11,.29,.22,.44,.33,.2,.15,.41,.31,.61,.47,.17,.13,.34,.26,.5,.4,.33,.26,.65,.53,.97,.8,.13,.11,.26,.22,.39,.34,.12,.11,.25,.22,.37,.33,.63,.56,1.23,1.13,1.83,1.73,.02,.03,.05,.05,.08,.08,.14,.14,.28,.28,.41,.42,.56,.57,1.1,1.16,1.62,1.77,.08,.09,.16,.18,.23,.27,.12,.14,.25,.29,.37,.44,.17,.21,.34,.42,.51,.63,.17,.21,.33,.42,.5,.63,.36,.47,.71,.94,1.06,1.43,.13,.18,.26,.37,.39,.55,.15,.22,.31,.45,.46,.68,.14,.21,.28,.42,.42,.64,.12,.19,.24,.38,.35,.57,.1,.16,.2,.32,.29,.48,.03,.05,.07,.11,.1,.16,.09,.15,.18,.31,.27,.46,.1,.17,.19,.34,.29,.51,.13,.23,.26,.47,.39,.71,.81,1.5,1.53,3.03,2.15,4.58,.38,.95,.73,1.91,1.05,2.88,0,0,0,0,0,0Z"/>
                  <path class="cls-12" d="M198.85,204.67c-.29,1.63-.68,3.25-1.17,4.87-.02,.06-.04,.12-.06,.18-1.56,5.15-3.98,9.82-7.05,13.9-.66,.87-1.34,1.71-2.05,2.53-.18,.21-.37,.42-.55,.62-1.24,1.36-2.55,2.64-3.94,3.83-6.42,5.52-14.33,9.16-22.77,10.41-5.45,.81-11.12,.61-16.75-.73-.84-.2-1.68-.42-2.52-.67-6.65-1.99-12.61-5.4-17.55-9.98,0,0,0,0,0,0-3.58-3.31-6.63-7.22-9.01-11.64-.93-1.72-1.74-3.48-2.42-5.27-3.54-9.18-3.94-19.22-1.07-28.8,.38-1.28,.81-2.52,1.3-3.74,.74-1.87,1.6-3.66,2.56-5.37,4.08-7.28,10.06-13.12,17.09-17.07,2.61-1.47,5.36-2.67,8.21-3.59,1.83-.59,3.7-1.07,5.6-1.42,.15-.03,.3-.05,.45-.08,.1-.02,.2-.04,.3-.05,3.1-.52,6.28-.72,9.48-.57,.55,.02,1.1,.06,1.65,.11,3.01,.26,6.04,.82,9.05,1.71,4.58,1.37,8.83,3.42,12.66,6.06,5.74,3.96,10.5,9.25,13.91,15.57,.81,1.5,1.53,3.03,2.15,4.58,.39,.95,.74,1.91,1.05,2.88,0,0,0,0,0,0,1.34,4.09,2.06,8.33,2.17,12.6,.05,1.97-.03,3.94-.25,5.91-.12,1.08-.27,2.15-.47,3.22Z"/>
                  <path class="cls-28" d="M20.97,268.9c2.93,7.14,11.13,9.53,18.27,6.6,.91-.37,1.82-.88,2.6-1.4l26.85-14.18,47.06-24.84,2.95-1.56c3.1-2.13-1.27-8.11-3.39-11.21-1.2-1.75-2.98-4.94-4.87-6.63-1.02-.91-2.07-1.38-3.08-.96l-3.88,1.79L28.58,251.19c-7.14,2.93-10.53,10.57-7.6,17.71Z"/>
                </g>
                <g>
                  <path class="cls-32" d="M52.67,252.7s-5.49,4.6-9.39,1.85c-5.3-3.74-12.94-23.49-12.94-23.49-.76-2.72,9.08-5.46,9.84-2.75l12.49,24.38Z"/>
                  <path class="cls-10" d="M30.47,225.32c-2.91,4.83,0,11.7,2.56,16.7,.5,.97,14.22-3.12,13.12-6.87-2.38-8.09-8.38-21.92-15.68-9.83Z"/>
                  <g>
                    <path class="cls-32" d="M44.25,255.08c-1.97-.63-1.01-8.63,1.23-9.14,6.51-1.48,23.23,2.68,23.23,2.68l.36,6.07s-19.89,1.97-24.83,.39Z"/>
                    <path class="cls-32" d="M75.37,246.37c1.08-.12-1.34,3.96-.57,4.29,.69,.3,3.95,1.1,4.67,1.26,1.74,.39,4.9,1.83,3.24,3-6.36,4.48-11.58-.43-13.96-.21-1.67,.15-5.27-7.36-.85-6.3,.82,.2,4.9-1.75,7.47-2.05Z"/>
                  </g>
                </g>
              </g>
              <g>
                <line class="cls-3" x1="389.5" y1="323.82" x2="398.69" y2="357.34"/>
                <line class="cls-3" x1="362.13" y1="324.56" x2="353.15" y2="357.34"/>
                <path class="cls-8" d="M381.63,318.31c-4.43,.41-28.63,.16-28.63-.07,0-5.26-4.77-16.7,19.46-18.15,26.74-1.6-1.92-23.22,9.29-28.03,4.22-1.81,10.82-3.02,10.81-2.99-.46,10.11,5.3,18.35,6.35,29.08,1.05,10.73-2.93,18.83-17.27,20.16Z"/>
                <line class="cls-5" x1="311.33" y1="280.57" x2="311.33" y2="357.59"/>
                <line class="cls-5" x1="275.13" y1="280.57" x2="275.13" y2="357.59"/>
                <polygon class="cls-4" points="331.86 272.76 289.63 272.76 286.59 244.81 328.82 244.81 331.86 272.76"/>
                <rect class="cls-27" x="270.41" y="275.03" width="103.63" height="5.54" transform="translate(644.45 555.6) rotate(180)"/>
                <g>
                  <path class="cls-31" d="M347.18,262.75c4.39,.42,11.22,5.76,7.44,10.54-3.12,3.94-23.82-3.93-27.73-4.48-4.06-.58-.41-7.11,2.22-6.92,5.76,.41,12.63,.34,18.08,.86Z"/>
                  <path class="cls-31" d="M316.83,259.6c-3.47-1.12-4.32,2.35-3.16,4.87,1.93,4.18,9.33,3.33,13.22,4.34,4.87,1.26,8.36-6.69,2.65-6.9-4.28-.16-2.82,.89-12.71-2.3Z"/>
                  <path class="cls-10" d="M355.37,249.36c-3.39,5.48-4.34,8.22-9.18,12.77-1.82,1.71,3.86,15.8,11.16,10.92,4.39-2.94,11.07-18.7,10.25-24.24-1.22-8.28-8.81-4.98-12.23,.56Z"/>
                </g>
                <path class="cls-31" d="M363.39,252.46c-3.12,1.24-6.45,4.81-9.4,6.39-.33-1.2-1.13-9.21-1.13-13.16,0-4.98,.86-7.47,3.01-6.77,2.6,.85,5.6,9.66,7.52,13.54Z"/>
                <path class="cls-31" d="M349.6,352.78c.04,.15-6.57,4.26-6.53-.06,0-1.01-.19-3.09-.25-4.87-.04-1.15,4.95-4.75,5.28-1.78,.37,3.28,.81,4.39,1.5,6.71Z"/>
                <path class="cls-11" d="M329.75,302.38c-4.79,5.05,4,38.97,6.48,45.38,1.53,3.95,4.79,2.72,8.75,2.26,7.84-.9,5.25-4.3,4.08-10.42-1.31-6.86-3.18-17.01-1.96-23.85,2.48-13.87,40.23-.4,35.82-15.54-4.31-14.79-47.74-3.57-53.18,2.16Z"/>
                <path class="cls-38" d="M333.31,358.99c2.15,2.27,10.37,.42,12.63-.07,2-.43,4.35,.15,5.08-1.66,.02-.06-.22-1.68-.3-2.11-.29-1.43-1.11-4.31-1.65-4.22-1.08,.53-1.9,1.43-3.41,1.35-.74-.04-2.3-.91-2.87-1.38-.62,.86-.84,1.4-1.24,1.92-.22,.29-.49,.58-.92,.91-.13,.1-.28,.21-.44,.31-.23,.16-.57,.33-.97,.52-.51,.24-1.13,.49-1.78,.76-.24,.1-.49,.2-.73,.3-.19,.08-.37,.15-.56,.21-.55,.2-1.07,.35-1.55,.5-1.84,.56-2.92,.93-1.29,2.65Z"/>
                <rect class="cls-22" x="288.52" y="269.85" width="54.29" height="4.51"/>
                <path class="cls-10" d="M351.38,359.06c.01,1.47-10.87,2.07-12.45,2.27-1.84,.24-5.19,.45-6.13-.04-1.19-.63-.47-3.65-.28-3.85-.04,.53-.05,1.43,2.42,1.62,2.51,.2,4.21,.03,6.74-.2,2.31-.21,5.43-.69,7.87-1.32,1.74-.45,1.8-.81,1.83,1.52Z"/>
                <path class="cls-10" d="M340.63,353.74c.59,.39,1.02,1.02,1.68,1.26,.13,.05,.29,.08,.42,.03,.23-.1,.28-.41,.23-.66-.08-.44-.34-.84-.71-1.09-.23-.16-.48-.29-.71-.44-.22,.29-.49,.58-.92,.91Z"/>
                <path class="cls-10" d="M337.45,355.33s.03,.05,.05,.07c.27,.4,.55,.8,.93,1.09,.39,.29,.91,.44,1.36,.27,.1-.04,.19-.09,.25-.17,.14-.19,.06-.45-.03-.66-.21-.48-.47-.93-.78-1.35-.51,.24-1.13,.49-1.78,.76Z"/>
                <path class="cls-10" d="M334.6,356.34s.05,.08,.07,.11c.24,.31,.57,.54,.88,.77,.17,.12,.34,.24,.53,.31,.28,.1,.6,.07,.86-.08,.05-.47-.23-.9-.52-1.27-.08-.09-.17-.21-.27-.34-.55,.2-1.07,.35-1.55,.5Z"/>
                <path class="cls-31" d="M327.66,352.05c-1.28,2.89-.79,5.2-4.31,4.32-3.21-.8-3.19-2.11-1.67-5.11,1.9-3.76,8.45-4.79,5.97,.78Z"/>
                <path class="cls-11" d="M394.52,301.85c-6.2,16.23-20.24,7.98-40.41,13.63-8.64,2.42-13.11,8.69-20.53,32.71-3.13,10.13-8.51,4.99-12.89,1.22,1.21-6.49,2.79-14.46,4.08-19.93,1.9-8.11,1.68-20.19,12.55-27.11,3.76-2.39,19.59-6.47,26.32-7.61,6.05-1.02-1.22-7.11,5.09-10,4.34-1.99,8.69-2.15,13.43-2.42,5.92-.33,14.44,14.06,12.37,19.5Z"/>
                <path d="M352.93,247.88s4.82-1.85,6.65-5.67-6.98-.76-6.98-.76l.33,6.44Z"/>
                <path class="cls-10" d="M352.29,256.13c-4.37,9.92,9.07,32.41,9.59,42.37,.15,2.87-.42-.67,10.45,7.48,4.91,3.68,24.95-1.41,23.13-6.73-3.66-10.71-15.52-37.86-23.16-46.12-11.17-12.08-16.35-5.31-20.01,3Z"/>
                <path class="cls-31" d="M347.53,242.2c.76,1.65,.96,3.29,2.6,4.1,1.51,.75,3.34,.66,4.95,.11,3.02-1.05,6.2-3.7,7.24-6.73,1.03-3.02,.85-6.37-.11-9.4-.92-2.91-2.65-5.7-5.32-7.18-4.21-2.34-9.49-.64-10.68,4-1.28,4.99-.82,10.44,1.33,15.1Z"/>
                <rect class="cls-23" x="270.41" y="275.03" width="44.3" height="5.54" transform="translate(585.11 555.6) rotate(180)"/>
                <path class="cls-38" d="M309.1,355.75c1.08,2.94,9.37,4.46,11.64,4.91,2,.39,3.94,1.86,5.32,.48,.05-.05,.46-1.63,.55-2.06,.29-1.43,.67-4.4,.15-4.53-1.2,.06-2.31,.56-3.67-.1-.67-.33-1.75-1.74-2.1-2.39-.91,.54-1.33,.96-1.9,1.28-.32,.18-.68,.34-1.2,.47-.16,.04-.33,.08-.52,.12-.27,.05-.65,.08-1.1,.1-.56,.02-1.23,0-1.93,0-.26,0-.53,0-.79-.01-.2,0-.4-.01-.6-.02-.58-.03-1.12-.1-1.62-.15-1.91-.21-3.05-.3-2.23,1.92Z"/>
                <path class="cls-10" d="M325.69,362.92c-.56,1.35-10.8-2.38-12.34-2.81-1.78-.5-4.95-1.63-5.61-2.45-.85-1.04,1-3.54,1.26-3.65-.25,.47-.61,1.3,1.59,2.45,2.23,1.17,3.86,1.68,6.27,2.46,2.21,.72,5.27,1.5,7.76,1.88,1.78,.27,1.98-.03,1.08,2.12Z"/>
                <path class="cls-10" d="M317.9,353.8c.38,.59,.54,1.34,1.05,1.83,.1,.1,.23,.19,.37,.19,.25,0,.42-.27,.47-.52,.1-.44,.02-.91-.22-1.28-.15-.24-.32-.45-.48-.68-.32,.18-.68,.34-1.2,.47Z"/>
                <g>
                  <path class="cls-31" d="M341.07,271.84c4.23,1.24,9.94,7.77,5.32,11.75-3.81,3.29-23.12-8.02-26.39-9.62-3.68-1.8,1.54-8.16,3.48-6.38,4.38,4.01,12.34,2.71,17.6,4.25Z"/>
                  <path class="cls-31" d="M311.85,263.03c-3.19-1.75-4.69,1.49-4.02,4.19,1.11,4.47,8.54,5.03,12.17,6.75,4.54,2.15,8.28-2.69,3.74-6.15-2.56-1.95-4.82-7.43-6.8-7.14-1.43,.57,4.03,7.35-5.08,2.35Z"/>
                  <path class="cls-10" d="M350.06,259.16c-4.36,4.75-4.24,8.33-9.85,11.88-2.11,1.34,.82,16.24,8.9,12.82,4.86-2.06,14.39-16.28,14.64-21.88,.37-8.36-9.28-7.62-13.68-2.83Z"/>
                </g>
                <path class="cls-10" d="M314.34,354.01s.01,.06,.02,.08c.09,.47,.19,.95,.43,1.37,.24,.42,.66,.76,1.14,.78,.1,0,.21,0,.3-.06,.2-.12,.23-.39,.24-.62,0-.52-.06-1.04-.19-1.55-.56,.02-1.23,0-1.93,0Z"/>
                <path class="cls-10" d="M311.33,353.82s.01,.09,.03,.13c.1,.38,.31,.72,.51,1.06,.11,.18,.21,.36,.37,.49,.22,.2,.53,.3,.82,.27,.23-.41,.15-.92,.02-1.37-.03-.12-.07-.26-.12-.42-.58-.03-1.12-.1-1.62-.15Z"/>
                <path class="cls-33" d="M358.7,219.53c15.1,2.46,9.4,10.02,16.58,19.65,1.93,2.59,5.79,6.03,7.41,9.74,1.49,3.42-.06,7.07,.79,10.53,1.8,7.29,8.17,13.72,4.23,21.47-3.53,6.94-18.56,3.29-24.55,.05-9.57-5.17-2.18-11.49-4.53-18.97-1.37-4.36-.97-4.81-2.49-8.66-2.33-5.93-.44-9.9,.44-15.49,.82-5.22-1-3.95-4.79-7.32-1.28-1.14-4.33-2.13-5.67-3.96-3.97-5.46,9.98-7.45,12.58-7.02Z"/>
                <path class="cls-31" d="M354.34,235.37c-.36,2.27,.33,4.27,1.54,4.46,1.22,.19,2.5-1.49,2.86-3.75,.36-2.27-.33-4.27-1.54-4.46-1.22-.19-2.5,1.49-2.86,3.75Z"/>
                <path class="cls-17" d="M395.83,321.54c-11.05,6.03-39.95,4.35-42.51-.4h0c-.12-.22-.18-.45-.18-.68,0-5.26-4.92-18.92,19.3-20.37,26.74-1.6-1.92-23.22,9.29-28.03,4.22-1.81,8.03-2.82,11.28-3.2,5.81-.68,9.81,.62,11.14,2.88,4.67,7.91,3.24,43.49-8.33,49.8Z"/>
              </g>
            </g>
          </g>
        </g>
      </g>
    </g>
  </g>
</svg>