<?xml version="1.0" encoding="UTF-8"?>
<svg id="Layer_2" data-name="Layer 2" xmlns="http://www.w3.org/2000/svg" viewBox="0 0 520.57 150.91">
  <defs>
    <style>
      .cls-1 {
        fill: #fff;
      }

      .cls-2 {
        fill: none;
        stroke: #000;
        stroke-miterlimit: 10;
      }

      .cls-3 {
        fill: #003b7e;
      }

      .cls-4 {
        fill: #ffe500;
      }
    </style>
  </defs>
  <g id="Layer_1-2" data-name="Layer 1">
    <g>
      <g>
        <line class="cls-2" y1="77.4" x2="520.57" y2="77.4"/>
        <circle class="cls-4" cx="260.28" cy="75.46" r="75.46"/>
      </g>
      <circle class="cls-1" cx="260.28" cy="75.46" r="57.9"/>
      <path class="cls-3" d="M297.48,80.8v-10.69c0-3.06-1.54-4.59-4.63-4.59h-2.1c-.41-1.3-.92-2.59-1.53-3.88-.09-.18-.18-.36-.29-.57l1.48-1.47c2.17-2.14,2.17-4.29,0-6.43l-7.63-7.57c-2.2-2.19-4.38-2.21-6.53-.05h-.05l-1.48,1.47c-1.41-.75-2.89-1.36-4.43-1.84v-2.03c0-3.06-1.54-4.59-4.63-4.59h-10.78c-3.08,0-4.63,1.53-4.63,4.59v2.03c-1.56,.49-3.05,1.1-4.48,1.84l-1.43-1.42c-2.16-2.15-4.32-2.15-6.49,0l-7.63,7.57c-2.21,2.18-2.22,4.34-.05,6.48l1.43,1.42c-.08,.18-.18,.35-.29,.52,0,.02,0,.04,0,.05-.61,1.29-1.13,2.58-1.57,3.88h-2.05c-3.08,0-4.63,1.53-4.63,4.59v10.69c0,3.06,1.54,4.59,4.63,4.59h2.05c.11,.31,.22,.61,.33,.9h-.05c.45,1.21,.98,2.39,1.57,3.55l-1.43,1.42c-2.18,2.14-2.16,4.3,.05,6.48l7.63,7.57c2.16,2.15,4.32,2.15,6.49,0l1.43-1.42c.21,.1,.41,.19,.62,.28,.02,0,.03,0,.05,0,1.24,.61,2.51,1.12,3.81,1.51v2.08c0,3.06,1.54,4.59,4.63,4.59h10.78c3.08,0,4.63-1.53,4.63-4.59v-2.08c1.36-.4,2.65-.91,3.86-1.51h-.05c.22-.08,.45-.18,.67-.28l1.48,1.47c2.16,2.16,4.33,2.14,6.53-.05l7.63-7.57c2.17-2.14,2.17-4.29,0-6.43l-1.48-1.47c.6-1.16,1.11-2.34,1.53-3.55,.11-.29,.22-.59,.33-.9h2.05c3.08,0,4.63-1.53,4.63-4.59m-2.86-10.69v10.69c0,1.17-.59,1.75-1.76,1.75h-3.1c-.32,0-.6,.1-.86,.28-.25,.19-.42,.42-.52,.71-.17,.61-.36,1.2-.57,1.75l-.05,.05c-.45,1.31-1.01,2.58-1.67,3.83-.22,.26-.33,.56-.33,.9,0,.39,.15,.72,.43,.99l2.24,2.22c.82,.82,.82,1.64,0,2.46l-7.63,7.57c-.85,.84-1.69,.85-2.53,.05l-2.24-2.22c-.23-.24-.52-.38-.86-.43-.31-.03-.61,.03-.91,.19-.41,.26-.84,.49-1.29,.66-.02,.02-.06,.04-.1,.05-1.1,.56-2.28,1.03-3.53,1.42-.29,.07-.62,.18-1,.33-.28,.11-.5,.28-.67,.52-.16,.24-.24,.51-.24,.8v3.08c0,1.17-.59,1.75-1.76,1.75h-10.78c-1.18,0-1.76-.58-1.76-1.75v-3.08c0-.28-.08-.55-.24-.8-.16-.22-.36-.39-.62-.52-.37-.15-.76-.28-1.14-.38l.14,.05c-1.24-.38-2.45-.85-3.62-1.42-.02,0-.03-.02-.05-.05-.45-.18-.9-.4-1.34-.66-.27-.16-.57-.22-.91-.19-.31,.05-.58,.19-.81,.43l-2.19,2.18c-.83,.81-1.65,.81-2.48,0l-7.63-7.57c-.84-.84-.86-1.68-.05-2.51l2.24-2.18c.28-.27,.43-.61,.43-.99,0-.36-.13-.68-.38-.95-.67-1.23-1.24-2.49-1.72-3.78v-.05c-.2-.54-.38-1.1-.52-1.7-.08-.29-.25-.55-.52-.76-.25-.19-.53-.28-.86-.28h-3.15c-1.18,0-1.76-.58-1.76-1.75v-10.69c0-1.17,.59-1.75,1.76-1.75h3.15c.32,0,.6-.09,.86-.28,.26-.2,.43-.45,.52-.76,.42-1.51,.98-3,1.67-4.49l-.05,.09c.27-.47,.52-.95,.76-1.42,.16-.28,.21-.58,.14-.9-.03-.29-.16-.54-.38-.76l-2.19-2.18c-.81-.83-.8-1.66,.05-2.51l7.63-7.57c.83-.81,1.65-.81,2.48,0l2.19,2.18c.21,.22,.47,.34,.76,.38,.28,.06,.55,.03,.81-.09,.02,.01,.04,.01,.05,0,.09-.02,.17-.05,.24-.09,1.52-.89,3.13-1.58,4.82-2.08,.03,0,.05-.02,.05-.05,.25-.06,.49-.12,.72-.19,.34-.06,.61-.21,.81-.47,.22-.26,.34-.56,.33-.9v-3.12c0-1.17,.59-1.75,1.76-1.75h10.78c1.18,0,1.76,.58,1.76,1.75v3.12c0,.34,.11,.64,.33,.9,.21,.26,.48,.42,.81,.47,.24,.06,.44,.12,.62,.19,.05,.02,.08,.03,.1,.05,1.72,.5,3.36,1.2,4.91,2.08,.09,.05,.18,.1,.29,.14,.27,.11,.54,.12,.81,.05,.29-.04,.53-.17,.72-.38l2.24-2.22c.83-.81,1.68-.79,2.53,.05l7.63,7.57c.82,.82,.82,1.64,0,2.46v-.05l-2.24,2.22c-.24,.24-.38,.53-.43,.85-.04,.33,.03,.63,.19,.9,.27,.44,.51,.87,.72,1.28,.7,1.5,1.27,3,1.72,4.49,.1,.32,.28,.57,.52,.76,.26,.19,.54,.28,.86,.28h3.1c1.18,0,1.76,.58,1.76,1.75m-20.41-8.52c-3.84-3.81-8.48-5.72-13.92-5.72-5.45,0-10.1,1.89-13.97,5.68l-.05,.05c-3.82,3.84-5.73,8.46-5.72,13.86,0,5.4,1.93,10.01,5.77,13.81,3.87,3.85,8.53,5.77,13.97,5.77,5.44,0,10.09-1.93,13.92-5.77,3.88-3.81,5.82-8.41,5.82-13.81,0-5.4-1.94-10.02-5.82-13.86m-13.92-2.89c4.66,0,8.64,1.62,11.92,4.87,3.31,3.29,4.96,7.25,4.96,11.87,0,4.62-1.65,8.54-4.96,11.78l-.05,.05c-3.26,3.28-7.22,4.92-11.87,4.92-4.66,0-8.65-1.64-11.97-4.92-3.28-3.26-4.92-7.2-4.91-11.83,0-4.62,1.64-8.57,4.91-11.87,3.33-3.24,7.32-4.87,11.97-4.87h0Z"/>
    </g>
  </g>
</svg>