<?xml version="1.0" encoding="UTF-8"?>
<svg id="Layer_2" data-name="Layer 2" xmlns="http://www.w3.org/2000/svg" viewBox="0 0 1149 497.75">
  <defs>
    <style>
      .cls-1 {
        fill: #a0a19f;
      }

      .cls-2 {
        fill: #fff;
      }

      .cls-3 {
        fill: #82b378;
      }

      .cls-4 {
        fill: #5fa09b;
      }

      .cls-5 {
        fill: #d9935c;
      }

      .cls-6 {
        fill: #dce7f9;
      }

      .cls-7 {
        fill: #f99746;
      }

      .cls-8 {
        fill: #86d1cd;
      }

      .cls-9 {
        fill: #d36e2a;
      }

      .cls-10 {
        fill: #ffb93e;
      }

      .cls-11 {
        fill: #a9453d;
      }

      .cls-12 {
        fill: #ffa412;
      }

      .cls-13 {
        fill: #ea8439;
      }

      .cls-14 {
        fill: #ff9843;
      }

      .cls-15 {
        fill: #2c3a64;
      }

      .cls-16 {
        fill: #aed3ff;
        opacity: .5;
      }

      .cls-17 {
        fill: #ced4ea;
        opacity: .3;
      }

      .cls-18 {
        fill: #ed975d;
      }

      .cls-19 {
        fill: #b65615;
      }

      .cls-20 {
        fill: #757575;
      }

      .cls-21 {
        fill: #ef8637;
      }

      .cls-22 {
        fill: #9fe28f;
      }

      .cls-23 {
        fill: #ed7d2b;
      }

      .cls-24 {
        fill: #ffb27d;
      }

      .cls-25 {
        fill: #233862;
      }

      .cls-26 {
        fill: #2b478b;
      }

      .cls-27 {
        fill: #993e00;
      }
    </style>
  </defs>
  <g id="Layer_1-2" data-name="Layer 1">
    <g>
      <g>
        <rect class="cls-19" x="58.87" y="371.57" width="125.96" height="55.87" rx="8.7" ry="8.7"/>
        <path class="cls-27" d="M480.68,445.89c0-27.89,22.61-50.49,50.49-50.49s50.49,22.61,50.49,50.49-22.61,50.49-50.49,50.49-50.49-22.61-50.49-50.49Z"/>
        <path class="cls-27" d="M673.89,445.89c0-27.89,22.61-50.49,50.49-50.49s50.49,22.61,50.49,50.49-22.61,50.49-50.49,50.49-50.49-22.61-50.49-50.49Z"/>
        <path class="cls-27" d="M76.07,445.89c0-27.89,22.61-50.49,50.49-50.49s50.49,22.61,50.49,50.49-22.61,50.49-50.49,50.49-50.49-22.61-50.49-50.49Z"/>
        <path class="cls-27" d="M219.53,445.89c0-27.89,22.61-50.49,50.49-50.49s50.49,22.61,50.49,50.49-22.61,50.49-50.49,50.49-50.49-22.61-50.49-50.49Z"/>
        <path class="cls-9" d="M126,173.25s27.4-41.33,59.07-41.67l-2.83,44.71-56.25-3.05Z"/>
        <path class="cls-23" d="M287.4,362.05H68.12l18.25-148.12c2.97-24.08,23.42-42.16,47.68-42.16h153.36v190.28Z"/>
        <path class="cls-9" d="M159.93,271.51h-61.49l8.15-58.49c1.68-12.04,11.98-21.01,24.14-21.01h31.11l-1.9,79.49Z"/>
        <path class="cls-6" d="M155.39,267.11h-40.49c-6.11,0-10.82-5.38-10.02-11.44l5.37-40.47c1.42-10.69,10.13-18.64,20.42-18.64h26.32l-1.61,70.55Z"/>
        <polygon class="cls-13" points="748.12 108.88 396.46 108.88 396.46 406.65 790.47 406.65 748.12 108.88"/>
        <polygon class="cls-9" points="685.83 108.88 334.17 108.88 334.17 406.65 728.18 406.65 685.83 108.88"/>
        <polygon class="cls-21" points="585.66 406.65 163.88 406.65 182.7 108.88 560.73 108.88 585.66 406.65"/>
        <polygon class="cls-7" points="569.66 395.36 179.88 395.36 197.27 120.18 546.62 120.18 565.3 343.23 569.66 395.36"/>
        <path class="cls-9" d="M201.92,362.05H68.12c-11.78,.78-12.92,6.61-12.92,6.61l-11.44,55.34c0,1.89,1.74,3.44,3.86,3.44h33.64c2.12,0,3.66-1.56,4.56-3.53,0,0,5.18-6.4,8.65-8.68,8.7-5.73,18.14-9.49,32.09-9.49,17.15,0,32.3,5.46,41.43,13.79h33.93c4.1,0,7.45-2.14,7.45-4.75v-47.97c0-2.61-3.35-4.75-7.45-4.75Z"/>
        <polygon class="cls-7" points="573.41 283.26 569.66 228.11 613.66 122.92 623.34 126.96 573.41 283.26"/>
        <path class="cls-9" d="M599.2,470.68h-42.4c-.98-5.14-2.82-9.66-5.31-13.65-12.82-20.55-42.8-26.83-59.88-28.75-7.48-.84-12.49-.85-12.49-.85h72.89c19.07,2.59,30.77,12.98,37.75,22.94,7.3,10.4,9.44,20.31,9.44,20.31Z"/>
        <path class="cls-9" d="M790.47,470.68h-42.4c-1.11-5.85-3.35-10.91-6.38-15.28-19.37-27.93-71.3-27.97-71.3-27.97h72.9c15.94,2.16,26.74,9.79,33.93,18.05,10.39,11.94,13.26,25.2,13.26,25.2Z"/>
        <polygon class="cls-13" points="767.38 283.26 763.63 228.11 807.63 122.92 817.3 126.96 767.38 283.26"/>
        <path class="cls-23" d="M849.35,197.29l-105.98-32.72-180.37-55.69,22.66-50.52L752.68,0l96.67,32.83c49.25,55.63,0,164.46,0,164.46Z"/>
        <path class="cls-19" d="M589.76,450.37s-27.91-5.89-38.28,6.66c-12.82-20.55-42.8-26.83-59.88-28.75-.35-.29-.69-.57-1.03-.85h61.43c19.07,2.59,30.77,12.98,37.75,22.94Z"/>
        <path class="cls-19" d="M777.21,445.48h0s-23.34-.52-35.52,9.92c-19.37-27.93-71.3-27.97-71.3-27.97h72.9c15.94,2.16,26.74,9.79,33.93,18.05Z"/>
        <path class="cls-14" d="M743.37,164.57l-180.37-55.69,22.66-50.52L752.68,0s26.26,74.44-9.31,164.57Z"/>
        <path class="cls-19" d="M177.43,406.65H791.28c5.33,0,9.66,4.33,9.66,9.66v9.56c0,5.33-4.33,9.66-9.66,9.66H177.43c-5.33,0-9.66-4.33-9.66-9.66v-9.56c0-5.33,4.33-9.66,9.66-9.66Z"/>
        <path class="cls-19" d="M203.87,413.91h107.34c5.14,0,9.31,4.17,9.31,9.31v45.34c0,5.14-4.17,9.31-9.31,9.31h-107.34c-5.14,0-9.31-4.17-9.31-9.31v-45.34c0-5.14,4.17-9.31,9.31-9.31Z"/>
        <path class="cls-14" d="M569.66,395.36H179.88l17.39-275.18h68.08c21.31,62.86,93.41,211.89,299.95,223.05l4.37,52.13Z"/>
        <g>
          <g>
            <polygon class="cls-22" points="346.38 214.65 370.98 228.41 397.83 187.46 364.62 187.46 346.38 214.65"/>
            <path class="cls-22" d="M394.34,226.43l-9.76,5.51,31.32,1.33,11.96-24.05-9.12,4.82-15.49-25.47s-16.52,24.61-16.69,25.12c0,0,7.79,12.73,8.35,13.12l-.56-.39Z"/>
          </g>
          <g>
            <polygon class="cls-22" points="434.3 238.72 409.94 252.91 431.56 296.84 448.44 268.24 434.3 238.72"/>
            <path class="cls-22" d="M399.83,270.78l.16-7.96-17.07,26.29,14.63,22.52-.21-10.61,30.5-.08s-14.91-29.75-15.27-30.16h-12.74Z"/>
          </g>
          <g>
            <polygon class="cls-22" points="369.58 301.02 369.32 271.86 323.8 270.78 338.74 301.02 369.58 301.02"/>
            <path class="cls-22" d="M357.66,251.52l9.11,6.53-12.02-28.95-26.85-.68,8.22,6.23-13.28,30.93s28,.47,28.54,.41c0,0,6.27-14.47,6.39-15.14l-.12,.67Z"/>
          </g>
        </g>
        <g>
          <path class="cls-19" d="M72.11,242.84s-5.48,29.46-5.21,34.26c.27,4.8,4.81,7.15,8.25,7.15l-3.04-41.41Z"/>
          <rect class="cls-9" x="71.89" y="240.38" width="20.41" height="43.87" rx="6.03" ry="6.03"/>
          <rect class="cls-6" x="74.15" y="242.84" width="16.6" height="39.28" rx="5.14" ry="5.14"/>
          <path class="cls-19" d="M82.09,241.18c-.38,0-.68-.36-.68-.8v-12.38s0-.07,0-.1c0-.07,.85-7.12,8.27-6.89,6.78,.21,9.71,0,9.73,0,.38-.03,.7,.31,.72,.75,.02,.44-.26,.82-.64,.85-.12,0-3.01,.21-9.86,0-5.97-.18-6.8,4.88-6.88,5.45v12.33c0,.44-.3,.8-.68,.8Z"/>
        </g>
        <path class="cls-9" d="M154.24,290.57h-12.41c-1.74,0-3.16-1.42-3.16-3.16h0c0-1.74,1.42-3.16,3.16-3.16h12.41c1.74,0,3.16,1.42,3.16,3.16h0c0,1.74-1.42,3.16-3.16,3.16Z"/>
      </g>
      <g>
        <g>
          <polygon class="cls-26" points="858.47 330.77 857.52 351.41 850.87 495.3 748.04 495.3 739.19 350.03 738.02 330.77 858.47 330.77"/>
          <g>
            <g>
              <polygon class="cls-22" points="781.01 390.5 791.81 396.54 803.59 378.56 789.02 378.56 781.01 390.5"/>
              <path class="cls-22" d="M802.06,395.67l-4.29,2.42,13.75,.59,5.25-10.56-4,2.12-6.8-11.18s-7.25,10.8-7.33,11.03c0,0,3.42,5.59,3.66,5.76l-.25-.17Z"/>
            </g>
            <g>
              <polygon class="cls-22" points="819.6 401.06 808.91 407.29 818.4 426.58 825.81 414.02 819.6 401.06"/>
              <path class="cls-22" d="M804.47,415.14l.07-3.49-7.49,11.54,6.42,9.89-.09-4.66,13.39-.04s-6.55-13.06-6.7-13.24h-5.59Z"/>
            </g>
            <g>
              <polygon class="cls-22" points="791.19 428.41 791.08 415.61 771.1 415.14 777.65 428.41 791.19 428.41"/>
              <path class="cls-22" d="M785.96,406.68l4,2.87-5.27-12.71-11.79-.3,3.61,2.74-5.83,13.58s12.29,.21,12.53,.18c0,0,2.75-6.35,2.8-6.65l-.05,.29Z"/>
            </g>
          </g>
          <path class="cls-15" d="M858.47,330.77l-.95,20.64c-10.23-3.46-37.39-13.3-57.45-13.3s-51.41,8.97-60.88,11.92l-1.17-19.26h120.45Z"/>
          <path class="cls-26" d="M738.9,318.11h118.68c4.69,0,8.5,3.81,8.5,8.5v3c0,4.69-3.81,8.5-8.5,8.5h-118.68c-4.69,0-8.5-3.81-8.5-8.5v-3c0-4.69,3.81-8.5,8.5-8.5Z"/>
        </g>
        <g>
          <path class="cls-2" d="M777.43,440.14h3.46c2.04,0,3.33,1.17,3.33,2.96,0,1.97-1.58,3-3.51,3h-1.74v2.82h-1.54v-8.77Zm3.33,4.56c1.17,0,1.89-.65,1.89-1.59,0-1.03-.74-1.57-1.89-1.57h-1.79v3.16h1.79Z"/>
          <path class="cls-2" d="M788.04,440.08h1.43l3.86,8.84h-1.63l-.89-2.12h-4.15l-.9,2.12h-1.58l3.86-8.84Zm2.21,5.35l-1.52-3.51-1.5,3.51h3.02Z"/>
          <path class="cls-2" d="M794.84,440.14h3.46c2.04,0,3.33,1.17,3.33,2.96,0,1.97-1.58,3-3.51,3h-1.74v2.82h-1.54v-8.77Zm3.33,4.56c1.17,0,1.89-.65,1.89-1.59,0-1.03-.74-1.57-1.89-1.57h-1.79v3.16h1.79Z"/>
          <path class="cls-2" d="M803.21,440.14h6.5v1.38h-4.96v2.28h4.4v1.38h-4.4v2.36h5.03v1.38h-6.57v-8.77Z"/>
          <path class="cls-2" d="M811.61,440.14h3.91c2.06,0,3.26,1.1,3.26,2.79,0,1.44-.86,2.31-2.09,2.66l2.37,3.32h-1.82l-2.18-3.06h-1.91v3.06h-1.54v-8.77Zm3.8,4.35c1.1,0,1.8-.58,1.8-1.49s-.68-1.45-1.82-1.45h-2.24v2.95h2.26Z"/>
        </g>
      </g>
      <g id="P297LW">
        <g>
          <path class="cls-25" d="M662.89,215.24s-4.88-10.28-1.06-16.6c3.82-6.32,18.97-6.72,18.97-6.72,0,0-1.32,.72-1.38,1.38-.07,.66,4.35-1.71,7.38,3.62,3.03,5.34,2.89,10.33-.34,17.71-3.22,7.38-23.57,.6-23.57,.6Z"/>
          <path class="cls-8" d="M739.04,317.85c-2.93,.68-16.16,.84-25.44-1.25-1.94-.43-3.71-.96-5.17-1.61-1.75-.77-3.07-1.7-3.74-2.83-1.05-1.75-2.97-7.74-5.23-15.59-6.22-21.63-14.97-57.36-14.97-57.36,0,0,17.58,3.59,21.29,6.65,3.72,3.06,7,51.64,10.5,52.95,.52,.19,1.4,.6,2.54,1.16,.06,.03,.11,.06,.17,.08,.68,.33,1.44,.72,2.27,1.15,7.26,3.73,19.27,10.45,20.51,11.94,1.64,1.97,1.53,3.72-2.73,4.7Z"/>
          <path class="cls-8" d="M705.31,266.87c0-.83-.08-1.65-.23-2.48-2.26-12.44-20.24-24.92-20.6-24.92h0c0,1.91-3,5.42-7.61,5.72-5.47,.36-12.19-2.37-12.19-5.52-.03,0-3.11,.01-4.15,.13-4.39,.5-13.15,2.87-16.9,5.7-3.57,2.69,1.47,19.69,4.59,31.72,1.32,5.09,2.3,9.29,2.14,11.15-.08,.91-.9,13.26-1.62,24.43-.6,9.22-1.15,17.63-1.17,18.16-.04,1.05,5.17,4.71,13.91,7.48,2.11,.67,4.43,1.29,6.93,1.8,4.49,.92,9.56,1.52,15.08,1.5,1.81,0,3.52-.1,5.13-.26,12.48-1.22,16.76-15.45,16.69-74.61Z"/>
          <path class="cls-5" d="M739.06,317.83c-.42,.11-1,.16-1.73,.26-2.37,.21-6.2,.26-10.46,.11-6.47-.32-13.88-1.21-18.45-3.21,2.21-8.41,6.83-12.72,10.57-14.93,3.21,1.58,8.31,4.26,12.88,6.89h.05c4.89,2.73,9.15,5.31,9.88,6.2,1.63,1.94,1.53,3.73-2.73,4.68Z"/>
          <path class="cls-5" d="M664.64,239.12c-.11-4.83-.03-10.6,.63-15.47l19.28,3.15s0,5.88-.08,12.41c.01,0,.02,0,.02,0,0,0,.53,6.06-6.93,6.94-7.46,.89-13.11-2.36-12.91-7.04Z"/>
          <path class="cls-25" d="M680.77,495.18c-2.42-1.49-1-12.55-1-12.55,0,0,11.35-9.01,12.88-2.07,1.53,6.94,10.72,10.09,15.95,10.96,3.61,.6,4.72,2.61,5.07,3.79l-32.9-.12Z"/>
          <path class="cls-4" d="M663.11,304.29c0,18.49-8.96,13.51-14.37,8.51,.73-11.17,1.55-23.52,1.62-24.43,.16-1.86-.81-6.06-2.14-11.15,.97-8.37,1.75-15.16,1.75-15.16,0,0,13.13,15.75,13.13,42.23Z"/>
          <path class="cls-4" d="M721.26,301.21c-.36,2.59-4.45,10.14-7.67,15.39-1.94-.43-3.71-.96-5.17-1.61-1.75-.77-3.07-1.7-3.74-2.83-1.05-1.75-2.97-7.74-5.23-15.59,1.67-9.66,3.26-19.2,3.26-19.2l.49-6.4c0,.49,7.49,28.61,10.89,29.27,2.05,.4,3.5-.08,4.73-.26,.06,.03,.11,.06,.17,.08,.68,.33,1.44,.72,2.27,1.15Z"/>
          <path class="cls-25" d="M645.98,495.18c-2.42-1.49-1-12.55-1-12.55,0,0,11.35-9.01,12.88-2.07,1.53,6.94,10.72,10.09,15.95,10.96,3.61,.6,4.72,2.61,5.07,3.79l-32.9-.12Z"/>
          <path class="cls-5" d="M683.97,228.68c-1.87,1.47-7.37,2.94-8.95,3.11,0,0-8.14-1.82-9.63-2.71-2.29-1.39-2.15-4.2-2.26-8.11-.14-4.63-.61-8.27-.09-10.93,.62-3.19,2.64-5.01,8.31-5.5,10.4-.9,14.74,1.7,14.92,5.19,.05,.94,.09,1.83,.12,2.68,.42,10.88-.44,14.73-2.41,16.29Z"/>
          <path class="cls-25" d="M686.48,215.96c-.1,6.3-1.8,10.03-3.03,10.5-1.42,.54-3.09,.99-4.83,1.29-.59,.07-1.15,.05-1.14-.28,.02-.99,1.35-2.22,.36-3.1-1.04-.92-6.59-1.23-7.04,.78-.22,.98,1.57,2.72,.35,2.76-.37-.06-.74-.14-1.09-.23-2.02-.53-3.61-1.48-4.28-1.89-2.29-1.39-2.14-3.52-2.65-7.4-.33-2.51-.33-1.15,0,2.58,.34,3.9-.33,6.4,2.26,8.11,1.44,.95,9.75,4.69,9.75,4.69-.12-1.98,6.96-3.61,8.83-5.09,1.74-1.37,2.61-4.53,2.51-12.72Z"/>
          <path class="cls-26" d="M647.58,330.96c-.04,1.05,5.17,4.71,13.91,7.48,.7,.22,1.43,.44,2.18,.65,0,0,.02,.01,.02,.02,.82,9.57,3.02,23.08,5.01,36.12h0c.52,3.38,1.01,6.73,1.47,9.97,1.21,8.57,2.12,16.38,2.22,22.01v.06c.04,2.58-2.13,9.02-2.3,10.5-.1,.91-.18,1.87-.24,2.88-.24,4.03-.14,8.79,.18,13.87,1.43,22.17,7.29,50.54,9.38,51.75,4.16,2.4,11.72,0,15.56-.56,1.59-.24,2.87-1.59,2.78-3.2-1.88-36.8,3.52-88.05,7.55-119.56,.11-.82,.21-1.62,.31-2.42,.48-3.72,.8-7.18,1-10.31,.18-2.74,.27-5.24,.31-7.4,.01-.67,.02-1.32,.02-1.92,0-1.97-1.56-14.88-1.63-74.04h0c0-1.37-1.12-2.48-2.49-2.48h-36.17c-3.5,0-6.31,2.86-6.26,6.36,.06,4.51-.11,10.81-1.09,16.83-1.33,8.21-4.19,15.89-10.1,17.73,0,0-.01,0-.01,.01-.03,.06-.19,.42-.45,1.02,0,0,0,0,0,0-.06,1.49-.12,3-.19,4.54-.01,.31-.03,.62-.04,.93,0,.18-.02,.37-.03,.55-.01,.31-.03,.63-.05,.94-.02,.52-.05,1.04-.08,1.57-.02,.41-.05,.83-.07,1.24-.04,.8-.09,1.61-.14,2.43-.01,.26-.03,.52-.05,.79-.07,1.06-.14,2.13-.22,3.21-.02,.33-.05,.66-.07,1-.01,.16-.02,.32-.04,.48-.03,.42-.07,.85-.1,1.27-.04,.45-.08,.9-.12,1.36-.14,1.66,.07,3.14,.03,4.31Z"/>
          <path class="cls-15" d="M670.04,434.52c1.43,22.17,7.29,50.54,9.38,51.75,4.16,2.4,11.72,0,15.56-.56,1.59-.24,2.87-1.59,2.78-3.2-1.88-36.8,3.52-88.05,7.55-119.56,.11-.82,.21-1.62,.31-2.42,.48-3.72,.8-7.18,1-10.31-1.92-12.49-12.73-13.16-22.54,12.68,1.21,8.57-11.68,38.52-11.68,44.31v.06c.04,2.58-2.13,9.02-2.3,10.5-.1,.91-.18,1.87-.24,2.88-.24,4.03-.14,8.79,.18,13.87Z"/>
          <path class="cls-26" d="M647.17,406.17c-.3,2.56-3.3,8.66-3.66,10.11-4.96,19.95-2.22,67.24,.24,69.13,3.8,2.93,11.62,1.54,15.5,1.48,1.61-.02,3.05-1.2,3.18-2.8,3.05-37.68,15.69-89.44,23.81-119.88,4.09-15.34,4.67-26.61,4.67-26.61,0,0-37.98-23.27-42.09-10.56-3.63,11.25,.63,59.45-1.66,79.13Z"/>
          <path class="cls-26" d="M659.23,239.97s11.19,13.04,11.85,24.42h-5.69s-1.45-12.37-9.87-23.64l3.71-.78Z"/>
          <path class="cls-26" d="M687.05,239.94c8.02,12.13,8.97,24.44,8.97,24.44h5.69c-.47-8.94-6.04-18.47-9.14-23.13h0c-2.11-.59-4.06-1.02-5.52-1.32Z"/>
          <path class="cls-8" d="M650.27,309.97c.28,13.35-1.38,39.94-1.38,39.94h-7.88c-3.72-18.71-5.03-30.74-5.03-37.31,0-1.29,0-2.5,.02-3.61,.05-5.61,.2-8.86,.2-8.86-1.48-33.97,5.31-52.13,7.44-54.63,2.13-2.5,11.88-4.75,11.88-4.75,0,0,3.22,9.38,4.53,16.93,1.31,7.55-10.33,39.27-9.85,50.11,.03,.68,.05,1.4,.07,2.18Z"/>
          <path class="cls-5" d="M649.79,332.08c-.37,9.62-.89,17.82-.89,17.82h-7.89c-1.37-6.68-2.37-12.51-3.15-17.51-1.37-9.09-1.89-15.56-1.89-19.77,0-1.31,0-2.52,.05-3.63,2.89-.63,7.94-1.05,14.25,1,.11,5.94-.16,14.46-.47,22.08Z"/>
          <path class="cls-5" d="M654.47,359.78c.11,2.16-9.31,7.1-12.14,5.78-2.84-1.31-2.94-8.78-1.31-15.67,1.63-6.89,7.89,0,7.89,0,0,0,5.47,7.68,5.57,9.88Z"/>
          <path class="cls-25" d="M662.89,215.24s-.86-9.29,4.61-9.29,12.84,6.98,16.14,2.5c3.29-4.48,2.83,6.19,2.83,6.19l.34-14.29-21.08-.79-4.41,3.29,1.58,12.38Z"/>
          <path class="cls-5" d="M757.35,318.09h-20.03l4.47-4.94s5.15,1.05,8.52,0c3.36-1.05,7.04,4.94,7.04,4.94Z"/>
          <path class="cls-10" d="M758.11,318.09h-20.79c-2.37,.21-6.2,.26-10.46,.11,4.42-3.78,4.99-11.25,4.99-11.25h.05c4.89,2.73,11.34,7.87,18.4,6.2,3.89-.92,7.8,4.94,7.8,4.94Z"/>
          <path class="cls-10" d="M654.47,359.78c.11,2.16-9.31,7.1-12.14,5.78-2.84-1.31-2.94-8.78-1.31-15.67-1.37-6.68-2.37-12.51-3.15-17.51,2.94,.47,7.2,.74,11.93-.31-.37,9.62-.89,17.82-.89,17.82,0,0,5.47,7.68,5.57,9.88Z"/>
        </g>
      </g>
      <path class="cls-3" d="M466.89,495.3h-34.7c-1.86-1.58,1.29-5.16,4.57-5.4,1.43-.11,3.23,.19,5.3,.63,.48-6.34,3.2-34.85,13.48-33.7,11.55,1.28,0,12.55-3.27,19.23-2.42,4.94-4.97,12.03-6.14,15.38,.94,.2,1.91,.4,2.9,.59,1.53-4.7,7.23-20.52,14.48-19.6,8.51,1.08,5.09,7.42-.94,11.19-4.42,2.77-9.86,6.7-12.44,8.6,2.19,.36,4.47,.6,6.79,.54,5.94-.14,8.84,1.61,9.97,2.55Z"/>
      <path class="cls-3" d="M22.13,493.3c-2.23-3.51-8.96-12.61-17.91-11.41-9.75,1.31,10.77,7.74,17.06,11.44-1.4,.02-2.6-.09-3.48-.41-4.2-1.5-11.4,1.37-13.7,2.38H44.11c-.28-.96-1-2.52-2.86-3.66-.66-.4-1.98-.46-3.68-.33,2.38-2.8,4.03-11.76-2.59-9.46-4.84,1.68-4.82,7.16-4.35,10.39-1.03,.16-2.07,.32-3.1,.47-1.99-10.15-9.04-39.89-23.31-40.69-14.47-.8,12.27,30.85,21.18,40.97-1.14,.14-2.24,.24-3.26,.29Z"/>
      <g>
        <g>
          <polygon class="cls-10" points="1002.86 330.77 1001.91 351.41 995.25 495.3 892.43 495.3 883.58 350.03 882.41 330.77 1002.86 330.77"/>
          <g>
            <g>
              <polygon class="cls-22" points="925.4 390.5 936.2 396.54 947.98 378.56 933.4 378.56 925.4 390.5"/>
              <path class="cls-22" d="M946.45,395.67l-4.29,2.42,13.75,.59,5.25-10.56-4,2.12-6.8-11.18s-7.25,10.8-7.33,11.03c0,0,3.42,5.59,3.66,5.76l-.25-.17Z"/>
            </g>
            <g>
              <polygon class="cls-22" points="963.99 401.06 953.3 407.29 962.79 426.58 970.2 414.02 963.99 401.06"/>
              <path class="cls-22" d="M948.86,415.14l.07-3.49-7.49,11.54,6.42,9.89-.09-4.66,13.39-.04s-6.54-13.06-6.7-13.24h-5.59Z"/>
            </g>
            <g>
              <polygon class="cls-22" points="935.58 428.41 935.47 415.61 915.49 415.14 922.04 428.41 935.58 428.41"/>
              <path class="cls-22" d="M930.35,406.68l4,2.87-5.27-12.71-11.79-.3,3.61,2.74-5.83,13.58s12.29,.21,12.53,.18c0,0,2.75-6.35,2.8-6.65l-.05,.29Z"/>
            </g>
          </g>
          <path class="cls-12" d="M1002.86,330.77l-.95,20.64c-10.23-3.46-37.39-13.3-57.45-13.3s-51.41,8.97-60.88,11.92l-1.17-19.26h120.45Z"/>
          <path class="cls-10" d="M883.29,318.11h118.68c4.69,0,8.5,3.81,8.5,8.5v3c0,4.69-3.81,8.5-8.5,8.5h-118.68c-4.69,0-8.5-3.81-8.5-8.5v-3c0-4.69,3.81-8.5,8.5-8.5Z"/>
        </g>
        <g>
          <path class="cls-2" d="M915.89,440.96h3.46c2.04,0,3.33,1.17,3.33,2.96,0,1.97-1.58,2.99-3.51,2.99h-1.74v2.82h-1.54v-8.77Zm3.33,4.56c1.17,0,1.89-.65,1.89-1.59,0-1.03-.74-1.57-1.89-1.57h-1.79v3.16h1.79Z"/>
          <path class="cls-2" d="M924.27,440.96h1.54v7.37h4.61v1.4h-6.15v-8.77Z"/>
          <path class="cls-2" d="M935.14,440.9h1.43l3.86,8.84h-1.63l-.89-2.12h-4.15l-.9,2.12h-1.58l3.86-8.84Zm2.21,5.35l-1.52-3.51-1.5,3.51h3.02Z"/>
          <path class="cls-2" d="M941.21,448.45l.93-1.1c.84,.73,1.68,1.14,2.77,1.14,.95,0,1.55-.44,1.55-1.13,0-.63-.35-.97-1.98-1.35-1.87-.44-2.92-.99-2.92-2.63,0-1.5,1.25-2.54,3-2.54,1.28,0,2.29,.39,3.18,1.1l-.83,1.17c-.79-.59-1.58-.9-2.38-.9-.9,0-1.43,.46-1.43,1.07,0,.68,.4,.98,2.08,1.38,1.86,.45,2.82,1.12,2.82,2.59,0,1.64-1.29,2.62-3.13,2.62-1.34,0-2.61-.47-3.66-1.41Z"/>
          <path class="cls-2" d="M951.79,442.39h-2.78v-1.43h7.12v1.43h-2.78v7.35h-1.55v-7.35Z"/>
          <path class="cls-2" d="M957.85,440.96h1.54v8.77h-1.54v-8.77Z"/>
          <path class="cls-2" d="M961.35,445.35c0-2.49,1.87-4.54,4.52-4.54,1.62,0,2.59,.56,3.43,1.37l-.99,1.14c-.7-.65-1.45-1.09-2.46-1.09-1.68,0-2.89,1.38-2.89,3.12s1.22,3.12,2.89,3.12c1.08,0,1.77-.44,2.52-1.14l.99,1c-.92,.95-1.92,1.55-3.56,1.55-2.56,0-4.46-1.99-4.46-4.54Z"/>
        </g>
      </g>
      <g>
        <g>
          <path class="cls-16" d="M1003.33,293.78l-16.07,19.69c-1.9,2.33-5.37,2.68-7.7,.78l-8.07-6.59c-2.46-2.01-2.83-5.67-.82-8.14l15.87-19.45c2.7-3.31,7.04-4.54,10.93-3.47,.51,.14,1.07-.05,1.34-.51,.08-.13,.17-.26,.27-.38l.85-1.04,6,4.89-.85,1.04c-.11,.14-.23,.26-.36,.38-.36,.32-.47,.84-.25,1.27,1.89,3.62,1.58,8.18-1.15,11.52Z"/>
          <path class="cls-17" d="M1003.33,293.78l-16.07,19.69c-1.9,2.33-5.37,2.68-7.7,.78l-5.07-4.14c-2.46-2.01-2.83-5.67-.82-8.14l15.87-19.45c2.7-3.31,7.04-4.54,10.93-3.47,.19,.05,.38,.06,.57,.02,.31-.06,.6-.24,.78-.53,.08-.13,.17-.26,.27-.38l.85-1.04,3,2.45-.85,1.04c-.11,.14-.23,.26-.36,.38-.36,.32-.47,.84-.25,1.27,1.89,3.62,1.58,8.18-1.15,11.52Z"/>
          <path class="cls-17" d="M1000,291.07l-16.07,19.69c-1.9,2.33-5.37,2.68-7.7,.78l-1.75-1.42c-2.46-2.01-2.83-5.67-.82-8.14l15.87-19.45c2.7-3.31,7.04-4.54,10.93-3.47,.19,.05,.38,.06,.57,.02,0,.16,.03,.32,.11,.47,1.89,3.62,1.58,8.18-1.15,11.52Z"/>
          <rect class="cls-23" x="999.33" y="275.24" width="8.61" height="2.04" transform="translate(399.02 -571.12) rotate(39.1)"/>
        </g>
        <g>
          <path class="cls-24" d="M1001.13,297.64c-1.47-1.04-4.79-3.31-4.97-2.81-.12,.37,.05,.99,.45,1.63-2.01-.75-4.06-1.24-8.89-.32-.97,.19-1.84,.74-2.38,1.56-.49,.77-.68,1.73,.56,2.49,2.47,1.53,1.75,.61,5.18,2.85,3.43,2.23,7.62,2.8,10.13,1.24l3.36-.56,.42-5.53s-1.92-.23-3.86-.55Z"/>
          <path class="cls-24" d="M1089.26,251.25s-7.93,9.41-18.03,5.47c0,0-2.17-5.25-2.2-9.13,0-.48,0-.94-.02-1.38-.05-4.36-.2-6.81-.2-6.81,0,0,0,0,.01,0,.46-.19,15.43-6.34,15.42-5.83-.26,11.79,5.01,17.67,5.01,17.67Z"/>
          <path class="cls-18" d="M1082.74,236.39c-1.44,2.68-6.4,7.91-13.73,9.83-.05-4.36-.2-6.81-.2-6.81,0,0,0,0,.01,0,.42-.11,14.35-3.81,13.92-3.02Z"/>
          <path class="cls-24" d="M1065.68,238.95s16.84,3.96,19.15-6.57c2.3-10.53,6.03-17.1-4.63-20.08-10.66-2.97-13.63,.58-15.25,3.91-1.62,3.33-3.59,21.43,.73,22.73Z"/>
          <path class="cls-11" d="M1084.25,235.26c.23,.15,3.85,1.26,10.72-12.41,1.08-2.15,1.81-6.79-.7-10.89-2.51-4.1-11.42-7.33-18.81-8.73-7.4-1.4-9.17,2.76-10.92,6.94-1.83,4.39-7.11,8.01-7.11,8.01,6.38,3.56,14.06-1.53,16.73-.69,2.66,.84,3.6,5.03,3.8,6.38,.2,1.35,.51,2.46,3.85,1.26,3.35-1.2,1.51,4.74,.98,5.88,0,0-.46,3.03,1.46,4.26Z"/>
          <g>
            <path class="cls-15" d="M1127.63,497.75h10.2c2.14,0,4.51-2.14,5.11-6.06,.59-3.92,4.99-6.06,5.94-9.27,.95-3.21-3.92-7.72-3.92-7.72l-.81-1.05-.85-1.09-8.08,1.9s-.2,1.92-.32,4.37c-.09,1.77-.13,3.81-.03,5.61,.24,4.28-1.2,8.88-5,9.72-3.8,.83-2.23,3.59-2.23,3.59Z"/>
            <path class="cls-15" d="M1056.64,497.75h27.03c.26-.05,.45-.11,.57-.17,1.8-.9,1.24-7.81,1.02-9.95-.04-.4-.07-.63-.07-.63,0,0-9.5-7.6-10.81-1.78-.04,.18-.09,.36-.14,.53h0c-1.65,5.45-9.03,7.92-13.29,8.61-3.26,.53-4.1,2.43-4.32,3.37Z"/>
            <path class="cls-26" d="M1062.09,341.87s1.44,18.01,3.14,39.66c2.31,29.41,5.08,65.53,5.35,72.38,.47,11.88,2.38,30.89,2.38,30.89,0,0,4.51,4.51,13.54,2.61,0,0,8.05-27.14,10.35-55.85,.04-.47,.07-.94,.11-1.42,2.14-29.23,5.46-90.77,5.46-90.77l-40.33,2.49Z"/>
            <path class="cls-15" d="M1062.09,341.87s1.44,18.01,3.14,39.66l31.62,50.04c.04-.47,.07-.94,.11-1.42,2.14-29.23,5.46-90.77,5.46-90.77l-40.33,2.49Z"/>
            <path class="cls-26" d="M1068.68,344s26.02,65.23,43.13,95.88c17.11,30.65,22.46,39.21,22.46,39.21,0,0,9.8-3.92,10.69-6.59,0,0-6.54-59.18-18-73.6-6.47-8.15-14.08-32.61-14.44-41.17-.36-8.55-2.32-25.49-2.32-25.49l-41.52,11.76Z"/>
          </g>
          <g>
            <path class="cls-24" d="M1128.02,332.15l.27,4.19s-2.77,7.45,4.98,11.27c0,0,3.32,1.34,3.45-1.24,.13-2.58-.29-1.61-.02-5.25,.27-3.64-1.16-7.08-3.57-8.23l-1.97-2.28-3.15,1.53Z"/>
            <path class="cls-15" d="M1131.05,335.21c-2.88,.92-3.34,.71-3.34,.71,0,0-14.02-25.52-15.44-27.86-1.42-2.34-29.76-28.62-29.76-28.62l7.28-27.16s32.24,41.74,35.72,47.73c5.75,9.9,9.12,32.89,9.12,32.89,0,0-1.32,1.57-3.58,2.3Z"/>
          </g>
          <path class="cls-26" d="M1056.6,290.11c.1,5.58,.43,11.85,.86,18.22,.03,.38,.05,.75,.08,1.13,.28,3.95,.58,7.9,.93,11.76,.14,1.55,.29,3.07,.44,4.58l.02,.2c.01,.56,.08,1.17,.14,1.73,1.42,14.44,2.91,25.85,3.19,26.03,.33,.22,.7,.33,1.11,.28,3.79-.48,15.09,.38,24.34-1.63,7.81-1.65,14.53-4.77,21.65-8.98,.94-.56,3.1-2.04,2.93-3.15-.17-1.22-.49-2.97-.89-5.18-1.4-7.68-3.83-20.9-4.65-36.36-.16-2.88-.4-5.73-.7-8.52-.79-7.29-2.07-14.21-3.77-20.36-3.17-11.42-7.83-20.17-13.68-23.59-.76-.43-4.88,2.19-8.65,4.61-3.49,2.24-7.16,2.85-10.73,2.54l-3.14,3.48c-3.81,4.42-7.86,10.31-8.96,18.69-.08,.62-.15,1.28-.21,1.97-.31,3.41-.38,7.73-.29,12.56Z"/>
          <path class="cls-15" d="M1056.6,290.11c.1,5.58,.43,11.85,.86,18.22,.03,.38,.05,.75,.08,1.13,21.64-13.54,24.97-38.32,24.97-38.32-10.64,.47-19.1,2.91-25.62,6.41-.31,3.41-.38,7.73-.29,12.56Z"/>
          <path class="cls-26" d="M1001.93,300.78c-.22-3.21,1.44-3.74,1.44-3.74,0,0,32.62-5.91,35.39-6.78,2.77-.87,26.48-25.54,26.48-25.54,0,0,9.09-10.25,16.53-7.99,6.47,1.97,9,7.01,9.86,11.82,1.03,5.73-1.61,11.49-6.57,14.53-11.13,6.83-33.42,20.28-38.67,21.82-11.68,3.42-43.07,.27-43.07,.27,0,0-1.22-1.87-1.39-4.39Z"/>
        </g>
      </g>
      <g>
        <g>
          <polygon class="cls-1" points="623.17 330.77 622.22 351.41 615.57 495.3 512.74 495.3 503.9 350.03 502.73 330.77 623.17 330.77"/>
          <g>
            <g>
              <polygon class="cls-22" points="545.71 390.5 556.51 396.54 568.3 378.56 553.72 378.56 545.71 390.5"/>
              <path class="cls-22" d="M566.77,395.67l-4.29,2.42,13.75,.59,5.25-10.56-4,2.12-6.8-11.18s-7.25,10.8-7.33,11.03c0,0,3.42,5.59,3.66,5.76l-.25-.17Z"/>
            </g>
            <g>
              <polygon class="cls-22" points="584.31 401.06 573.61 407.29 583.1 426.58 590.51 414.02 584.31 401.06"/>
              <path class="cls-22" d="M569.18,415.14l.07-3.49-7.49,11.54,6.42,9.89-.09-4.66,13.39-.04s-6.55-13.06-6.7-13.24h-5.59Z"/>
            </g>
            <g>
              <polygon class="cls-22" points="555.9 428.41 555.78 415.61 535.8 415.14 542.36 428.41 555.9 428.41"/>
              <path class="cls-22" d="M550.66,406.68l4,2.87-5.27-12.71-11.79-.3,3.61,2.74-5.83,13.58s12.29,.21,12.53,.18c0,0,2.75-6.35,2.8-6.65l-.05,.29Z"/>
            </g>
          </g>
          <path class="cls-20" d="M623.17,330.77l-.95,20.64c-10.23-3.46-37.39-13.3-57.45-13.3s-51.41,8.97-60.88,11.92l-1.17-19.26h120.45Z"/>
          <path class="cls-1" d="M503.61,318.11h118.68c4.69,0,8.5,3.81,8.5,8.5v3c0,4.69-3.81,8.5-8.5,8.5h-118.68c-4.69,0-8.5-3.81-8.5-8.5v-3c0-4.69,3.81-8.5,8.5-8.5Z"/>
        </g>
        <g>
          <path class="cls-2" d="M541.81,444.28c0-2.48,1.9-4.58,4.57-4.58,1.54,0,2.49,.43,3.41,1.2l-.99,1.18c-.68-.58-1.35-.95-2.48-.95-1.63,0-2.87,1.43-2.87,3.15,0,1.82,1.2,3.17,3.01,3.17,.84,0,1.6-.27,2.14-.67v-1.66h-2.27v-1.35h3.77v3.72c-.87,.75-2.13,1.38-3.7,1.38-2.77,0-4.6-1.98-4.6-4.58Z"/>
          <path class="cls-2" d="M552.13,439.85h1.56v7.45h4.66v1.42h-6.22v-8.86Z"/>
          <path class="cls-2" d="M563.11,439.78h1.44l3.9,8.93h-1.65l-.9-2.14h-4.19l-.91,2.14h-1.6l3.9-8.93Zm2.23,5.41l-1.53-3.55-1.52,3.55h3.05Z"/>
          <path class="cls-2" d="M569.24,447.42l.94-1.11c.85,.73,1.7,1.15,2.8,1.15,.96,0,1.57-.44,1.57-1.14,0-.63-.35-.97-2-1.37-1.89-.44-2.95-1-2.95-2.66,0-1.52,1.27-2.57,3.03-2.57,1.29,0,2.32,.39,3.22,1.11l-.84,1.18c-.8-.6-1.6-.91-2.41-.91-.91,0-1.44,.47-1.44,1.08,0,.68,.41,.99,2.1,1.39,1.88,.46,2.85,1.13,2.85,2.62,0,1.66-1.3,2.65-3.17,2.65-1.36,0-2.63-.47-3.7-1.42Z"/>
          <path class="cls-2" d="M577.22,447.42l.94-1.11c.85,.73,1.7,1.15,2.8,1.15,.96,0,1.57-.44,1.57-1.14,0-.63-.35-.97-2-1.37-1.89-.44-2.95-1-2.95-2.66,0-1.52,1.27-2.57,3.03-2.57,1.29,0,2.32,.39,3.22,1.11l-.84,1.18c-.8-.6-1.6-.91-2.41-.91-.91,0-1.44,.47-1.44,1.08,0,.68,.41,.99,2.1,1.39,1.87,.46,2.85,1.13,2.85,2.62,0,1.66-1.3,2.65-3.17,2.65-1.35,0-2.63-.47-3.7-1.42Z"/>
        </g>
      </g>
    </g>
  </g>
</svg>