<?xml version="1.0" encoding="UTF-8"?>
<svg id="Layer_2" data-name="Layer 2" xmlns="http://www.w3.org/2000/svg" viewBox="0 0 188 209.26">
  <defs>
    <style>
      .cls-1 {
        fill: #a1d7e5;
        opacity: .4;
      }

      .cls-2 {
        stroke: #95c38b;
        stroke-miterlimit: 10;
        stroke-width: 1.16px;
      }

      .cls-2, .cls-3, .cls-4, .cls-5 {
        fill: none;
      }

      .cls-6 {
        fill: #fff;
      }

      .cls-3 {
        stroke: #ffa829;
        stroke-width: 3.47px;
      }

      .cls-3, .cls-4, .cls-5 {
        stroke-linecap: round;
        stroke-linejoin: round;
      }

      .cls-7 {
        fill: #ffb93e;
      }

      .cls-8 {
        fill: #e5f8ff;
      }

      .cls-9 {
        opacity: .15;
      }

      .cls-10 {
        fill: #ffb392;
      }

      .cls-11 {
        fill: #ffa412;
      }

      .cls-12 {
        fill: #ffbe9d;
      }

      .cls-13 {
        fill: #ff9843;
      }

      .cls-14 {
        fill: #2c3a64;
      }

      .cls-15 {
        fill: #57c6f2;
      }

      .cls-4 {
        stroke: #a1d2f0;
        stroke-width: .57px;
      }

      .cls-16 {
        fill: #1b227a;
      }

      .cls-17 {
        fill: #e8a070;
      }

      .cls-18 {
        fill: #ed7d2b;
      }

      .cls-5 {
        stroke: #0964af;
        stroke-width: 3.12px;
      }

      .cls-19 {
        fill: #f9d0b4;
      }

      .cls-20 {
        fill: #f2a181;
      }

      .cls-21 {
        fill: #2b478b;
      }
    </style>
  </defs>
  <g id="Layer_1-2" data-name="Layer 1">
    <g>
      <g>
        <path class="cls-1" d="M188,205.79c0,1.63-31.65,2.95-70.7,2.95s-70.7-1.32-70.7-2.95,31.65-2.95,70.7-2.95,70.7,1.32,70.7,2.95Z"/>
        <path class="cls-13" d="M118.64,0c-3.92,0-7.1,3.18-7.1,7.1v9.09h14.19s0-7.22,0-9.09c0-3.92-3.18-7.1-7.1-7.1Zm0,11.17c-2.2,0-3.98-1.78-3.98-3.98s1.78-3.98,3.98-3.98,3.98,1.78,3.98,3.98-1.78,3.98-3.98,3.98Z"/>
        <path class="cls-18" d="M122.62,7.19c0-2.2-1.78-3.98-3.98-3.98-.2,0-.4,.03-.6,.06,.6-.23,.63-.39,1.62-.39,2.2,0,3.98,1.78,3.98,3.98,0,1.99-1.02,3.07-2.55,3.47,.85-.73,1.54-1.93,1.54-3.14Zm-8.91,8.09V6.19c0-2.47,1.07-4.64,2.98-5.91-2.97,.85-5.15,3.58-5.15,6.82v9.09h14.19v-.91h-12.02Z"/>
        <rect class="cls-17" x="50.43" y="16.67" width="133.74" height="189.09" rx="6.92" ry="6.92"/>
        <rect class="cls-19" x="58.18" y="24.08" width="118.24" height="174.26"/>
        <rect class="cls-6" x="62.72" y="29.41" width="109.14" height="163.61"/>
        <path class="cls-13" d="M160.31,19.8v7.11H74.28v-7.11c0-.52,.08-1.02,.23-1.49,.63-2.03,2.53-3.5,4.76-3.5h76.05c2.76,0,4.99,2.23,4.99,4.99Z"/>
        <path class="cls-18" d="M160.31,25.13v1.78H74.28v-5.15c0-1.38,.08-2.52,.23-3.45,.63-2.03,2.53-3.5,4.76-3.5h.61c-1.31,1.27-2.27,3.2-2.27,5.17v5.15h82.71Z"/>
        <g>
          <g class="cls-9">
            <line class="cls-5" x1="92.99" y1="46.8" x2="110.72" y2="46.8"/>
            <line class="cls-5" x1="150.51" y1="52.45" x2="163.99" y2="52.45"/>
            <line class="cls-5" x1="92.99" y1="52.45" x2="144.67" y2="52.45"/>
            <line class="cls-5" x1="92.99" y1="58.1" x2="163.99" y2="58.1"/>
            <line class="cls-5" x1="141.42" y1="63.76" x2="163.99" y2="63.76"/>
            <line class="cls-5" x1="92.99" y1="63.76" x2="135.8" y2="63.76"/>
            <line class="cls-5" x1="116.54" y1="46.8" x2="163.99" y2="46.8"/>
          </g>
          <g class="cls-9">
            <line class="cls-5" x1="92.99" y1="87.43" x2="110.72" y2="87.43"/>
            <line class="cls-5" x1="150.51" y1="93.08" x2="163.99" y2="93.08"/>
            <line class="cls-5" x1="92.99" y1="93.08" x2="144.67" y2="93.08"/>
            <line class="cls-5" x1="92.99" y1="98.74" x2="163.99" y2="98.74"/>
            <line class="cls-5" x1="141.42" y1="104.39" x2="163.99" y2="104.39"/>
            <line class="cls-5" x1="92.99" y1="104.39" x2="135.8" y2="104.39"/>
            <line class="cls-5" x1="116.54" y1="87.43" x2="163.99" y2="87.43"/>
          </g>
          <g class="cls-9">
            <line class="cls-5" x1="92.99" y1="126.64" x2="110.72" y2="126.64"/>
            <line class="cls-5" x1="150.51" y1="132.29" x2="163.99" y2="132.29"/>
            <line class="cls-5" x1="92.99" y1="132.29" x2="144.67" y2="132.29"/>
            <line class="cls-5" x1="92.99" y1="137.95" x2="163.99" y2="137.95"/>
            <line class="cls-5" x1="141.42" y1="143.6" x2="163.99" y2="143.6"/>
            <line class="cls-5" x1="92.99" y1="143.6" x2="135.8" y2="143.6"/>
            <line class="cls-5" x1="116.54" y1="126.64" x2="163.99" y2="126.64"/>
          </g>
          <g class="cls-9">
            <line class="cls-5" x1="92.99" y1="166.56" x2="110.72" y2="166.56"/>
            <line class="cls-5" x1="150.51" y1="172.22" x2="163.99" y2="172.22"/>
            <line class="cls-5" x1="92.99" y1="172.22" x2="144.67" y2="172.22"/>
            <line class="cls-5" x1="92.99" y1="177.87" x2="163.99" y2="177.87"/>
            <line class="cls-5" x1="141.42" y1="183.52" x2="163.99" y2="183.52"/>
            <line class="cls-5" x1="92.99" y1="183.52" x2="135.8" y2="183.52"/>
            <line class="cls-5" x1="116.54" y1="166.56" x2="163.99" y2="166.56"/>
          </g>
          <g>
            <rect class="cls-2" x="70.75" y="45.09" width="16.25" height="16.25" rx="1.49" ry="1.49"/>
            <rect class="cls-2" x="70.75" y="85.59" width="16.25" height="16.25" rx="1.49" ry="1.49"/>
            <rect class="cls-2" x="70.75" y="126.09" width="16.25" height="16.25" rx="1.49" ry="1.49"/>
            <rect class="cls-2" x="70.75" y="166.59" width="16.25" height="16.25" rx="1.49" ry="1.49"/>
            <polyline class="cls-3" points="72.75 50.36 78.88 57.76 90.67 39.16"/>
            <polyline class="cls-3" points="72.75 90.52 78.88 97.92 90.67 79.32"/>
          </g>
        </g>
      </g>
      <g>
        <path class="cls-10" d="M29.59,48.54s.47,3.1,.76,3.37c0,0-.3,.52-1.18,.57"/>
        <path class="cls-1" d="M52.82,206.92c0,1.29-11.6,2.33-25.91,2.33s-25.91-1.04-25.91-2.33,11.6-2.33,25.91-2.33,25.91,1.04,25.91,2.33Z"/>
        <g>
          <path class="cls-15" d="M38.74,63.01l-5.73,25.15c-.16,.69,.31,1.36,1,1.46l17.82,2.56c.62,.09,1.21-.31,1.34-.92l5.73-25.15c.16-.69-.31-1.36-1-1.46l-17.82-2.56c-.62-.09-1.21,.31-1.34,.92Z"/>
          <polygon class="cls-8" points="39.86 63.82 34.38 87.9 52.07 90.44 57.55 66.36 39.86 63.82"/>
          <g>
            <line class="cls-4" x1="55.68" y1="68.14" x2="40.64" y2="65.98"/>
            <line class="cls-4" x1="55.17" y1="70.41" x2="40.13" y2="68.25"/>
            <line class="cls-4" x1="48.91" y1="72.3" x2="39.51" y2="70.95"/>
            <line class="cls-4" x1="48.24" y1="74.25" x2="38.85" y2="72.91"/>
            <line class="cls-4" x1="47.58" y1="76.21" x2="38.18" y2="74.86"/>
            <line class="cls-4" x1="51.02" y1="87.02" x2="41.62" y2="85.67"/>
          </g>
        </g>
        <path class="cls-20" d="M31.88,88.46c1.01-.48,1.76-1.36,2.48-2.21,.71-.84,1.42-1.69,2.12-2.53,.28-.33,.57-.7,.6-1.13-1.19-.1-1.95,1.45-3.14,1.54,.55-1.95,1.35-3.84,2.36-5.6,.25-.43,.52-.93,.34-1.4-1.28,.49-2.36,1.4-3.3,2.41-.66,.71-1.26,1.47-1.79,2.27-1.57,2.37-2.54,5.09-3.2,7.86"/>
        <g>
          <path class="cls-12" d="M26.78,108.72l-12.73-10.74s-5.92,8.03-3.69,15.78c1.1,3.81,2.47,5.7,3.07,7.51,.56,1.69,4.39,25.6,4.1,27.35-.29,1.75-2.34,6.64-3.13,11.78-.94,6.19-.78,26.34-1.52,31.69-.73,5.34,4.2,6.25,4.47,4.44,2.32-15.45,8.45-39.54,9.3-47.26,.86-7.73,.51-21.87,.11-40.55Z"/>
          <path class="cls-20" d="M26.81,123.95l-5.53,12.7c2.33,3.94,3.68,8.59,3.86,13.31,.09,2.45-.12,4.9-.06,7.36,0,.17,.03,.36,.07,.53,.74-3.63,1.29-6.63,1.51-8.58,.61-5.46,.61-14.13,.42-25.34-.09,0-.18,0-.27,.01Z"/>
          <path class="cls-12" d="M18.22,191.57s-1.18,5.61-.87,6.32c.32,.71,1.47,2.79,2.64,3.54,1.23,.79,3.96,1.72,4.18,2.07,.22,.34,.23,.84-.16,1.15-1.01,.79-2.75,1.17-3.89,.99-3.7-.61-4.08-2.25-6.24-2.51-.37-.05-1.06,.5-2.09-.02-1.03-.53-1.53-1.48-1.44-2.37,.15-1.54,1.02-2.82,1.64-3.96,.62-1.14,1.05-6.37,1.05-6.37"/>
          <path class="cls-16" d="M24.31,204.91c.27-.46,.34-1.16,.09-1.33-.35-.24-1.59-1.06-2.3-1.39-.72-.33-1.86-.62-1.45-.4,.4,.22-.34,1.03-1.01,.98-2.32-.14-4.03-1.68-5.35-2.01-1.91-.48-2.7-2.73-2.79-3.09-.36,.23-1.2,2.04-1.37,2.61-.15,.52-.43,1.46-.28,1.99,.1,.37,.33,1.12,.21,1.9,0,0,.38,.29,1.37,.49,.63,.13,1.48,.02,1.48,.02l.16-1.2s.52-.02,1.18,.12c.66,.14,1.74,.76,1.8,.84,.26,.32,.48,.89,.83,1.07,.93,.47,1.86,.69,3.04,.76,2.49,.14,3.94-.58,4.4-1.37Z"/>
        </g>
        <g>
          <path class="cls-12" d="M44.15,204.68c-.27-.3-3.22-.78-4.6-1.36-1.32-.55-2.91-2.32-3.22-3.07-.31-.75-.24-4.56-.2-6.15,.28-11,2.31-37.9,2.6-44.33,.51-11.19-.94-22.75-5.25-40.72l-16.04-12.31s-4.49,8.35-2.99,16.33c.87,4.63,4.71,5.34,5.36,7.14,.65,1.8,10.35,30.82,10.35,30.82,0,0-1.89,6.27-2,13.15-.09,5.87,2.57,23.57,3.06,30.31,.06,1.32,.28,4.47-.1,5.48-.48,1.23-1.69,2.68-1.63,4.23,.04,.9,.69,1.76,1.82,2.11,1.14,.35,1.77-.3,2.16-.32,2.26-.09,2.89,1.46,6.79,1.46,1.2,0,2.95-.67,3.87-1.61,.36-.37,.27-.86,0-1.16Z"/>
          <path class="cls-16" d="M44.49,206.06c.21-.5,.19-1.2-.1-1.33-.39-.18-1.79-.78-2.57-.99-.79-.21-2-.31-1.56-.16,.44,.15-.2,1.07-.9,1.14-2.41,.24-4.39-1.01-5.8-1.12-2.03-.16-2.78-2.25-2.92-2.6-.34,.29-1.34,2.21-1.44,2.81-.09,.53-.24,1.51,0,2.02,.16,.35,.49,1.05,.49,1.84,0,0,.43,.22,1.48,.26,.67,.03,1.53-.22,1.53-.22v-1.21s.53-.1,1.23-.08c.7,.03,1.57,.38,1.99,.7,.33,.25,.68,.67,1.07,.77,1.13,.28,1.94,.36,3.17,.24,2.59-.26,3.98-1.21,4.34-2.07Z"/>
        </g>
        <path class="cls-21" d="M14.39,96.63c-1.09,1.2-4.97,7.66-5.01,12.92-.04,5.26,1.64,8.68,2,9.73,.99,2.87,2.84,5.45,2.84,5.97s2.89,.89,9.03,.5c11.33-.71,15.5-2.84,15.5-2.84,0,0,.37-4.71-.79-14.95-.55-4.86-4.69-12.55-4.69-12.55"/>
        <path class="cls-12" d="M4.04,75.61s1.83,9.07,2.3,10.68c.48,1.61,2.85,11.86,5.09,11.68,2.24-.18,14.54-10.44,14.54-10.44l-1.74-3.48-10.82,5.16s-.98-11.72-1.84-14.51"/>
        <path class="cls-20" d="M8.23,81.2c1.15,4.05,3.49,8.32,4.2,11.46,.14,.63,7.63-2.09,7.65-4.91"/>
        <path class="cls-7" d="M11.38,63.04s-3.59,.38-5.41,1.77c-4.64,3.55-1.05,16.44-1.05,16.44,0,0-.23,.69,2.89,.51,3.12-.17,5.61-1.06,5.61-1.06l-.9-10.56"/>
        <path class="cls-11" d="M7.27,70.34s-.39,7.58,.98,11.4c1.36-.03,2.54-.33,2.54-.33l-3.52-11.07Z"/>
        <path class="cls-12" d="M28.53,39.27c2.16,2.8,1.73,6.75,1.2,10.25-.27,1.77-.54,3.54-.81,5.31-.13,.84-.3,1.76-.95,2.3-.66,.55-1.6,.54-2.46,.5,0,1.46,.02,2.93,.03,4.39-2.51,.06-5.01,.07-7.52,.03,0-1.03-.22-2.05-.65-2.98-1.23-.02-2.05-1.25-2.53-2.38-.55-1.3-.96-2.66-1.35-4.02-.52-1.8-1.02-3.64-1.06-5.51-.05-1.88,.4-3.83,1.59-5.28,.81-.99,1.92-1.69,3.05-2.28,1.55-.81,3.42-1.45,5.02-.74"/>
        <path class="cls-14" d="M25.93,52.62c-.3-1.47-.28-2.3,.21-3.28,.16-.33,.37-.63,.66-.83,.39-.27,.91-.33,1.34-.14,.28,.12,.51,.35,.67,.63,.51-1.98,.62-4.09,.47-6.14-.23-3.26-2.2-5.78-5.06-6.95-5.31-2.18-12.93-.03-15.09,5.18-1.63,3.94-.8,9.62,2.31,12.91,2.76,2.92,6.73,3.35,10.39,2.75,1.87-.31,4.77-.12,5.74-2.67,.07-.2-.09-.39-.29-.38-.76,.06-1.29-.8-1.34-1.08Z"/>
        <path class="cls-14" d="M26.34,45.69c.2,.31,.15,.72,.34,1.04,.31,.53,.72,.72,1.28,.98,.9,.42,.69,1.73,.66,2.32,.68-.45,.79-1.68,.95-2.31,.18-.7,.3-1.42,.51-2.12,.2-.68,.54-1.32,.61-2.03,.22-2.46-1.32-5.35-3.19-6.74-1.36-1.01-3.43-.96-4.97,.06-.65,.43-1.13,1.08-1.42,1.8-.12,.31-.21,.67-.06,.97"/>
        <path class="cls-11" d="M14.28,63.07c.13-.86,.36-1.86,1.16-2.2,.22-.09,.47-.12,.7-.15,2.44-.27,4.91-.39,7.37-.35,1.02,.02,2.07,.07,2.98,.52,1.43,.71,2.21,2.25,2.9,3.69"/>
        <path class="cls-7" d="M34.99,94.52c-.34-.51-1.13-1.11-1.41-1.67-.68-1.34-1.27-6.96-1.04-8.39,.25-1.54,1.61-2.37,2.23-5.79,.79-4.41-1.02-7.84-2.03-9.31-1.43-2.08-.58-2.07-1.07-4.61-.09-.46-.19-.95-.51-1.27-.31-.32-2.44-1.29-2.86-1.35-3.98-.62-6.31-.14-10.33,.04-1.99,.09-3.97,.32-5.93,.75-2.16,.48-4.04,1.05-4.49,3.98-.69,4.53-.11,9.12,1.27,13.42,.91,2.85,6.37,12.71,5.02,14.62-.31,.44-1.08,1.26-1.18,1.81-.34,1.99,4.16,2.69,6.09,2.85,2.94,.24,6.31,.08,9.25-.06,2.23-.1,7.11-.88,7.45-3.64,.07-.54-.2-.98-.47-1.37Z"/>
        <path class="cls-11" d="M34.14,79.52c0,.8-.45,1.88-.59,2.3-.56,.29-2.78,.77-4.05,.18-.28-2.65-1.83-7.75-1.83-7.75,0,0,6.47,4.53,6.47,5.27Z"/>
        <g>
          <path class="cls-12" d="M31.29,77.67s7.34,17.75,10.53,17.75c2.32,0,8-16.38,8-16.38l-3.59-1.7-4,6.86-4.05-12.8"/>
          <path class="cls-12" d="M45.52,78.56s1.19-1.87,1.1-3.2c-.03-.51-.33-2.92-.08-3.39,.25-.47,.86-2.03,1.2-2.33,.34-.3,1.62-.79,1.93-.57,.31,.22,.7-.78,1.22-.69,.52,.09,.95,.52,.95,.99s.69,.56,.78,.91,.04,.65,.17,.91c.13,.26,.51,.13,.65,.78,.12,.59-.04,.65,0,.95,.04,.3,.3,.27,.22,.85-.09,.57-.48,1.32-.82,1.97-.34,.65-1.06,1.46-2,2.03-.47,.28-.72,.78-1.17,1.61"/>
          <path class="cls-16" d="M47.49,64.85c-.09-.14-.34-.38-.63-.17-.29,.21-.2,.56-.14,.7,.06,.14,2.17,4.91,2.17,4.91,0,0,.18,.2,.51-.09,.36-.32,.25-.48,.25-.48,0,0-2.07-4.73-2.16-4.87Z"/>
          <path class="cls-20" d="M49.78,69.4c-.41,.74-.89,.97-1.32,1.38-.34,.32-.3,.52-.67,.85,.65-.05,.54-.43,1.39-1.04,.39-.28,.8-.59,.87-1.07,.03-.17-.17-.26-.27-.11h0Z"/>
        </g>
        <path class="cls-7" d="M24.54,61.85c1.91,.1,7.48-.88,10.57,2.36,2.59,2.71,4.08,9.82,5.12,12.7-2.6,2.65-5.1,4.78-9.03,3.92-.15-.11-2.1-6.25-3.52-6.8"/>
        <path class="cls-21" d="M38.75,118.2s1.26,30.36,1.03,32.58c-.23,2.21-2.69,44.13-2.69,44.13,0,0-5.06,.89-8.09,0,0,0-3.91-32.65,0-42.82l-1.74-9.75s.26,7.25,0,8.73c-.26,1.48-8.08,42.81-8.08,42.81,0,0-5.17-.14-7.53-2.21,0,0-.74-28.71,4.65-40.79l-4.93-31.6,2.84-8.04,24.53,6.96Z"/>
        <path class="cls-14" d="M27.26,142.35c-.72-4.67-5.18-21.23-5.37-21.63-2.44-1.89-4.66-3.55-5.47-5.13,1.33,3.99,3.89,4.2,4.85,6.27,2.37,5.1,.56,3.98,6.09,21.07"/>
        <path class="cls-14" d="M5.51,61.65c-.11,1.62,.22,3.23,.24,4.85,.03,1.62-.32,3.37-1.51,4.47-1.19,1.1-3.4,1.14-4.24-.24,.86,1.79,2.7,2.99,4.64,3.34,1.95,.35,3.98-.07,5.78-.89,4.78-2.19,7.97-7.2,7.82-12.48-.12-4.33-3.41-8.52-8.01-6.25-2.7,1.34-4.51,4.22-4.72,7.2Z"/>
      </g>
    </g>
  </g>
</svg>