<?xml version="1.0" encoding="UTF-8"?>
<svg xmlns="http://www.w3.org/2000/svg" viewBox="0 0 242.41 178.48">
  <defs>
    <style>
      .cls-1 {
        fill: #2a4e96;
      }

      .cls-2 {
        fill: #0a8c37;
      }

      .cls-3 {
        fill: #f6e8a6;
      }

      .cls-4, .cls-5 {
        fill: #fff;
      }

      .cls-6 {
        fill: #82b378;
      }

      .cls-7 {
        fill: #fc7963;
      }

      .cls-8 {
        fill: #ffd6a2;
      }

      .cls-9 {
        fill: #27812e;
      }

      .cls-10, .cls-11 {
        fill: #e2ee90;
      }

      .cls-12 {
        fill: #f8ede9;
      }

      .cls-13 {
        fill: #fbb1a9;
      }

      .cls-14, .cls-15 {
        fill: #49af50;
      }

      .cls-16, .cls-17, .cls-18, .cls-19, .cls-20 {
        opacity: .2;
      }

      .cls-16, .cls-21 {
        fill: #ffeed0;
      }

      .cls-22 {
        fill: #accd3d;
      }

      .cls-23, .cls-19 {
        fill: #f99746;
      }

      .cls-24 {
        fill: #ffd118;
      }

      .cls-25 {
        fill: #db6412;
      }

      .cls-26 {
        isolation: isolate;
      }

      .cls-27 {
        fill: #ab5111;
      }

      .cls-28 {
        fill: #d36c1e;
      }

      .cls-11 {
        stroke: #27812e;
        stroke-width: 1.44px;
      }

      .cls-11, .cls-29, .cls-30 {
        stroke-miterlimit: 10;
      }

      .cls-31 {
        fill: #d38e48;
      }

      .cls-31, .cls-32 {
        opacity: .55;
      }

      .cls-31, .cls-33 {
        mix-blend-mode: multiply;
      }

      .cls-32, .cls-34, .cls-35 {
        fill: #f6c461;
      }

      .cls-32, .cls-35 {
        mix-blend-mode: screen;
      }

      .cls-36 {
        fill: #6cbe6b;
      }

      .cls-36, .cls-37, .cls-38, .cls-39, .cls-15, .cls-40 {
        fill-rule: evenodd;
      }

      .cls-41 {
        fill: #ffca12;
      }

      .cls-33 {
        fill: #daad5f;
      }

      .cls-42, .cls-40 {
        fill: #3a903c;
      }

      .cls-18 {
        fill: #5c780d;
      }

      .cls-43 {
        fill: #1e3d70;
      }

      .cls-44 {
        fill: #ffc012;
      }

      .cls-45 {
        fill: #f1ad11;
      }

      .cls-37 {
        fill: #64ac61;
      }

      .cls-46 {
        fill: #ff8912;
      }

      .cls-47 {
        fill: #ffa852;
      }

      .cls-48 {
        fill: #9e332e;
      }

      .cls-49 {
        fill: #a9453d;
      }

      .cls-50 {
        fill: #d72d31;
      }

      .cls-51 {
        fill: #fd911c;
      }

      .cls-52 {
        fill: #b5453c;
      }

      .cls-5 {
        opacity: .64;
      }

      .cls-53 {
        fill: #a44539;
      }

      .cls-54 {
        fill: #2c3a64;
      }

      .cls-55 {
        fill: #ff3b27;
      }

      .cls-29 {
        fill: #ff4d14;
        stroke: #d72d31;
        stroke-width: 1.24px;
      }

      .cls-56 {
        fill: #ed985f;
      }

      .cls-57 {
        fill: #273f76;
      }

      .cls-58 {
        fill: #943b31;
      }

      .cls-38 {
        fill: #595756;
        opacity: .15;
      }

      .cls-59 {
        fill: #ed975d;
      }

      .cls-60 {
        fill: #f77e11;
        opacity: .6;
      }

      .cls-61 {
        fill: #3f9e43;
      }

      .cls-62 {
        fill: #ec3021;
      }

      .cls-20, .cls-63 {
        fill: #fdf6e6;
      }

      .cls-64 {
        fill: #e9cd10;
      }

      .cls-65 {
        fill: #054505;
      }

      .cls-66 {
        fill: #f93422;
      }

      .cls-67 {
        fill: #28712b;
      }

      .cls-68 {
        fill: #ffb27d;
      }

      .cls-39 {
        fill: #358436;
      }

      .cls-69 {
        fill: #ffb234;
      }

      .cls-30 {
        fill: #e6d76a;
        stroke: #2c6e2a;
        stroke-width: 2.13px;
      }

      .cls-70 {
        fill: #0b9a3d;
      }

      .cls-71 {
        fill: #3b6cbc;
      }

      .cls-63 {
        opacity: .4;
      }

      .cls-72 {
        fill: #233862;
      }

      .cls-73 {
        fill: none;
        stroke: #ffa852;
        stroke-linecap: round;
        stroke-linejoin: round;
        stroke-width: 2.4px;
      }

      .cls-74 {
        fill: #2d7d32;
      }

      .cls-75 {
        fill: #2b478b;
      }

      .cls-76 {
        fill: #f5be11;
      }
    </style>
  </defs>
  <g class="cls-26">
    <g id="Layer_2" data-name="Layer 2">
      <g id="Layer_1-2" data-name="Layer 1">
        <g>
          <path class="cls-6" d="M6.48,177.42c-.65-1.03-2.62-3.69-5.24-3.34-2.86,.38,3.15,2.27,4.99,3.35-.41,0-.76-.03-1.02-.12-1.23-.44-3.34,.4-4.01,.7H12.91c-.08-.28-.29-.74-.84-1.07-.19-.12-.58-.13-1.08-.1,.7-.82,1.18-3.44-.76-2.77-1.42,.49-1.41,2.09-1.27,3.04-.3,.05-.61,.09-.91,.14-.58-2.97-2.65-11.68-6.82-11.91-4.24-.24,3.59,9.03,6.2,11.99-.33,.04-.66,.07-.95,.08Z"/>
          <g>
            <path class="cls-69" d="M88.49,146.13c-2.31-3.6-4.54-7.24-6.75-10.88-4.4-7.31-8.67-14.68-12.8-22.13-4.12-7.45-8.17-14.94-12.08-22.5-.99-1.88-1.97-3.77-2.85-5.72-.88-1.94-1.69-3.92-2.4-5.95-.71-2.02-1.33-4.1-1.83-6.24-.49-2.14-.91-4.32-1.02-6.66-.12-2.23-1.16-4.43-3.05-5.92-3.48-2.73-8.51-2.13-11.25,1.35-2.73,3.48-2.12,8.52,1.35,11.25,1.84,1.45,3.38,3.05,4.83,4.69,1.46,1.64,2.79,3.35,4.02,5.11,1.24,1.76,2.38,3.56,3.46,5.4,1.07,1.84,2.04,3.74,3,5.63,3.9,7.57,7.66,15.21,11.34,22.89,3.68,7.68,7.22,15.43,10.62,23.26,1.68,3.92,3.36,7.85,4.96,11.81,1.6,3.96,3.17,7.94,4.61,11.99,.22,.61,.53,1.22,.92,1.77,2.33,3.32,6.92,4.12,10.24,1.79,3.32-2.34,4.12-6.92,1.79-10.24-2.47-3.51-4.8-7.1-7.1-10.7Zm1.93,16.57c-1.17,.6-3.33-1.25-4.82-4.14-1.49-2.89-1.76-5.73-.59-6.33,1.17-.6,3.33,1.25,4.82,4.15,1.49,2.89,1.75,5.72,.58,6.32Z"/>
            <path class="cls-69" d="M52.13,50.64c6.38,12.36,4.64,25.94-3.88,30.33-8.52,4.4-20.59-2.06-26.97-14.41-1.5-2.91-2.56-5.9-3.17-8.81-2-9.44,.54-18.16,7.05-21.52,5.85-3.02,13.39-.92,19.6,4.71t0,0c.29,.26,.57,.53,.86,.81,2.47,2.42,4.71,5.42,6.5,8.88Z"/>
            <path class="cls-51" d="M48.58,46.93c6.38,12.36,5.12,25.69-2.8,29.77-7.92,4.09-19.51-2.61-25.89-14.97-.68-1.32-1.28-2.65-1.78-3.98-2-9.44,.54-18.16,7.05-21.52,5.85-3.02,13.39-.92,19.6,4.71t0,0c.64,.83,1.26,1.69,1.85,2.6h0c.7,1.08,1.35,2.2,1.96,3.38Z"/>
            <path class="cls-69" d="M46.62,43.55h0c6.58,12.77,4.41,26.99-2.25,30.42-6.66,3.44-19.68-3.46-26.26-16.22-2-9.44,.54-18.16,7.05-21.52,5.85-3.02,13.39-.92,19.6,4.71t0,0c.29,.26,.57,.53,.86,.81,.34,.58,.68,1.18,.99,1.79Z"/>
            <path class="cls-8" d="M78.23,144.79c.61,1.95,1.47,4.21,3.44,4.74,.55,.15,1.22,.1,1.58-.33,.21-.25,.29-.59,.33-.91,.3-2.34-.91-4.59-2.09-6.64-5.65-9.9-11.31-19.81-16.96-29.71-.37-.66-1.22-1.39-1.74-.84,.83,2.88,2.41,5.02,3.9,7.52,1.65,2.76,3.14,5.64,4.54,8.53,2.76,5.7,5.1,11.59,7,17.63Z"/>
          </g>
          <g>
            <path class="cls-1" d="M116.63,.4c.66,.1,1.12,.71,1.03,1.37l-23.67,166.8-.05,.35-5.14-.73L112.54,1.02c.09-.65,.69-1.1,1.34-1.01l1.38,.19,1.37,.2Z"/>
            <path class="cls-71" d="M117.66,1.76l-23.67,166.81-2.57-.37L115.26,.2l1.38,.2c.66,.1,1.11,.7,1.02,1.36Z"/>
            <polygon class="cls-19" points="148.97 71.72 143.47 178.48 76.37 178.48 68.99 71.72 148.97 71.72"/>
            <polygon class="cls-19" points="148.97 71.72 143.47 178.48 91.72 178.48 84.34 71.72 148.97 71.72"/>
            <path class="cls-19" d="M148.45,69.12H69.51c0-20.07,14.98-36.64,34.38-39.14,.02,.04,.04,.08,.06,.13,.87,1.92,2.79,3.25,5.04,3.25s4.26-1.39,5.09-3.38c19.39,2.5,34.38,19.07,34.38,39.14Z"/>
            <path class="cls-19" d="M148.45,69.12H83.99c0-16.71,8.04-31.29,19.95-39.02,.87,1.92,2.79,3.25,5.04,3.25s4.26-1.39,5.09-3.38c19.39,2.5,34.38,19.07,34.38,39.14Z"/>
            <path class="cls-23" d="M68.55,69.12h80.86c.78,0,1.41,.63,1.41,1.41v.69c0,.78-.63,1.41-1.41,1.41H68.55c-.78,0-1.41-.63-1.41-1.41v-.69c0-.78,.63-1.41,1.41-1.41Z"/>
            <path class="cls-23" d="M143.52,105.94l-4.24,67.09h-58.86l-4.82-59.74s.03,0,.1,.02c1.62,.34,22.31,4.38,33.86-3.77,14.13-9.99,31.78-4.34,33.78-3.67t.03,.02c.1,.03,.15,.05,.15,.05Z"/>
            <g>
              <path class="cls-25" d="M82.42,165.15c0-1.89,1.53-3.42,3.42-3.42s3.42,1.53,3.42,3.42-1.53,3.42-3.42,3.42-3.42-1.53-3.42-3.42Z"/>
              <circle class="cls-25" cx="93.84" cy="154.99" r="4" transform="translate(-5.88 3.72) rotate(-2.2)"/>
              <circle class="cls-25" cx="104.08" cy="146.98" r="2.77"/>
              <path class="cls-25" d="M81.01,146.98c0-2.21,1.79-4,4-4s4,1.79,4,4-1.79,4-4,4-4-1.79-4-4Z"/>
              <circle class="cls-25" cx="93.84" cy="138.13" r="2.41"/>
              <circle class="cls-25" cx="134.42" cy="138.13" r="2.41"/>
              <path class="cls-25" d="M111.26,149.18c0-2.21,1.79-4,4-4s4,1.79,4,4-1.79,4-4,4-4-1.79-4-4Z"/>
              <path class="cls-25" d="M130.41,150.98c0-2.21,1.79-4,4-4s4,1.79,4,4-1.79,4-4,4-4-1.79-4-4Z"/>
              <circle class="cls-25" cx="98.55" cy="166.4" r="4"/>
              <path class="cls-25" d="M103.73,157.97c0-2.21,1.79-4,4-4s4,1.79,4,4-1.79,4-4,4-4-1.79-4-4Z"/>
              <path class="cls-25" d="M111.73,166.4c0-2.21,1.79-4,4-4s4,1.79,4,4-1.79,4-4,4-4-1.79-4-4Z"/>
              <path class="cls-25" d="M120.33,157.18c0-2.21,1.79-4,4-4s4,1.79,4,4-1.79,4-4,4-4-1.79-4-4Z"/>
              <circle class="cls-25" cx="124.33" cy="141.8" r="2.83"/>
              <path class="cls-25" d="M127.98,166.4c0-2.21,1.79-4,4-4s4,1.79,4,4-1.79,4-4,4-4-1.79-4-4Z"/>
            </g>
            <path class="cls-28" d="M143.34,105.87c-1.94-.24-18.44,.09-24.25,3.21-5.52,2.96-22.17,15.93-43.39,4.23,1.62,.34,22.31,4.38,33.86-3.77,14.13-9.99,31.78-4.34,33.78-3.67Z"/>
          </g>
          <g>
            <path class="cls-69" d="M241.76,32.54c-2.77,21.87-13.51,38.53-23.99,37.21-10.49-1.33-16.75-20.14-13.98-42.01,.42-3.31,1.02-6.5,1.77-9.53,.2-.82,.98-1.36,1.81-1.25l.71,.09c.91,.11,1.55,.94,1.43,1.85l-2.74,21.7c-.11,.91,.53,1.73,1.43,1.85l.49,.06c.91,.11,1.73-.53,1.85-1.43l2.74-21.7c.11-.91,.94-1.55,1.85-1.43l5.66,.72c.91,.11,1.55,.94,1.43,1.85l-2.74,21.7c-.11,.91,.53,1.73,1.43,1.85l.5,.06c.91,.11,1.73-.53,1.85-1.43l2.74-21.7c.11-.91,.94-1.55,1.85-1.43l5.66,.72c.91,.11,1.55,.94,1.43,1.85l-2.74,21.7c-.11,.91,.53,1.73,1.43,1.85l.49,.06c.91,.11,1.73-.53,1.85-1.43l2.74-21.7c.11-.91,.94-1.55,1.85-1.43l.42,.05c.83,.11,1.45,.82,1.45,1.66-.02,3.12-.23,6.36-.65,9.67Z"/>
            <path class="cls-69" d="M214.26,146.27c.14-4.27,.36-8.54,.6-12.8,.51-8.52,1.17-17.01,1.99-25.49,.82-8.47,1.73-16.94,2.79-25.39,.25-2.11,.51-4.22,.89-6.32,.38-2.09,.83-4.18,1.39-6.26,.56-2.07,1.22-4.13,2.02-6.18,.81-2.04,1.7-4.07,2.93-6.07,1.16-1.9,1.55-4.31,.84-6.61-1.32-4.22-5.81-6.57-10.03-5.26-4.22,1.32-6.57,5.82-5.26,10.03,.7,2.23,1.06,4.43,1.32,6.6,.27,2.18,.4,4.34,.42,6.49,.03,2.15-.05,4.29-.21,6.41-.16,2.13-.43,4.24-.72,6.35-1.07,8.45-2.3,16.87-3.62,25.29-1.32,8.41-2.79,16.81-4.42,25.18-.83,4.18-1.67,8.37-2.6,12.54-.93,4.17-1.88,8.34-3,12.49-.17,.62-.26,1.31-.25,1.98,.04,4.06,3.37,7.32,7.43,7.28,4.06-.04,7.32-3.37,7.28-7.43-.04-4.29,.06-8.57,.21-12.84Zm-7.79,14.74c-1.31-.17-2.03-2.91-1.63-6.14,.41-3.23,1.8-5.72,3.1-5.55,1.31,.17,2.03,2.92,1.62,6.15-.41,3.23-1.8,5.71-3.1,5.54Z"/>
            <path class="cls-8" d="M205.94,142.35c-.08,.58-.14,1.22,.19,1.7,.52,.73,1.59,.65,2.49,.61,.89-.04,2.05,.3,2.09,1.19,.28-1.29,.21-2.62,.17-3.94-.22-6.16,.04-12.34,.76-18.46,.1-.8,.77-2.81-.44-3.17-1.19-.35-1.18,1.67-1.37,2.48-.7,3.02-1.4,6.04-2.03,9.08-.73,3.48-1.38,6.98-1.87,10.51Z"/>
          </g>
          <g>
            <path class="cls-27" d="M120.75,90.89s27.43-7.27,67.24-7.27c39.81,0,49.54,4.17,49.54,4.17,0,0-25.34,17.64-48.63,16.78-23.29-.86-60.45-1.17-68.16-13.69Z"/>
            <g>
              <g>
                <path class="cls-29" d="M162.95,63.89s-5.69-4.8-8.58,2.41c-2.69,6.71,1.79,13.43,3.86,14.66,2.07,1.23,8.77-3.56,10.54-8.11,1.4-3.62,1.95-9.96-5.81-8.96Z"/>
                <path class="cls-13" d="M160.92,62.44s-4.85,8.4-2.64,16.92c0,0,.42,1.43,1.57,.16,1.42-1.58,6.4-10.41,5.76-15.93,0,0-1.61-.28-2.57,.02-1.07-.91-2.12-1.17-2.12-1.17Z"/>
                <path class="cls-7" d="M161.24,73.48c-.29,.39-.91,.38-1.01-.22-.32-1.85-.5-4.65,.31-6.04,.63-1.08,1.52-.78,1.89-.13,.65-.29,1.39-.05,1.49,.6,.21,1.38-1.24,3.86-2.68,5.79Z"/>
                <g>
                  <path class="cls-13" d="M157.29,64.97c-.05-.02-.1-.05-.13-.1-.08-.12-.04-.28,.08-.36,.05-.03,1.19-.74,3.15-.18,.12,.04,.22,.19,.18,.32-.04,.14-.19,.22-.32,.18-1.71-.5-2.68,.09-2.72,.12-.07,.05-.16,.05-.23,.02Z"/>
                  <path class="cls-13" d="M156.91,67.42s-.08-.04-.11-.08c-.09-.11-.07-.28,.04-.37,.05-.04,1.26-1,3.19-.99,.14,0,.26,.12,.26,.26,0,.14-.12,.26-.26,.26-1.73,0-2.85,.86-2.86,.87-.08,.06-.17,.07-.26,.04Z"/>
                  <path class="cls-13" d="M156.71,69.92s-.09-.05-.12-.1c-.08-.12-.05-.28,.07-.36,.78-.52,1.62-1,2.57-.96,.14,0,.26,.13,.25,.27,0,.14-.13,.26-.27,.25-.79-.03-1.55,.4-2.25,.87-.07,.05-.16,.06-.24,.03Z"/>
                  <path class="cls-13" d="M156.54,72.54c-.05-.02-.1-.06-.13-.11-.08-.12-.04-.28,.08-.36,.29-.18,1.75-1.05,2.43-.79,0,0,.01,0,.02,0,.13,.06,.2,.21,.14,.34-.06,.13-.2,.21-.34,.14,0,0,0,0,0,0-.29-.11-1.24,.3-1.96,.74-.07,.05-.16,.05-.23,.02Z"/>
                  <path class="cls-13" d="M156.54,75.21s-.09-.05-.12-.09c-.09-.12-.06-.28,.06-.37,.45-.33,1.55-1.06,2.05-.77,.12,.07,.16,.24,.09,.36-.07,.12-.23,.17-.36,.09-.16-.06-.86,.29-1.47,.74-.07,.06-.17,.06-.25,.03Z"/>
                  <path class="cls-13" d="M156.86,77.44s-.06-.03-.09-.06c-.1-.1-.11-.27,0-.37,.38-.4,1.34-1.32,1.89-1.1,.14,.05,.2,.2,.15,.34-.05,.14-.2,.2-.34,.15-.17-.03-.8,.43-1.32,.98-.08,.08-.19,.1-.28,.06Z"/>
                  <path class="cls-13" d="M167.17,67.29s-.08-.04-.11-.08c-.84-1.07-2.66-1.46-2.67-1.46-.14-.03-.23-.17-.2-.31,.03-.14,.17-.23,.31-.2,.08,.02,2.02,.43,2.98,1.65,.09,.11,.07,.28-.04,.37-.08,.06-.17,.07-.26,.04Z"/>
                  <path class="cls-13" d="M166.56,69.75c-.05-.02-.1-.06-.13-.11-.66-1.15-2.2-2.26-2.21-2.28-.12-.08-.14-.25-.06-.37,.08-.12,.25-.15,.37-.06,.07,.05,1.65,1.19,2.37,2.44,.07,.13,.03,.29-.1,.36-.07,.04-.15,.04-.22,.02Z"/>
                  <path class="cls-13" d="M165.75,72.11c-.07-.03-.13-.08-.15-.16-.34-.93-1.64-2.02-1.65-2.03-.11-.09-.13-.26-.03-.37,.09-.11,.26-.13,.37-.03,.06,.05,1.42,1.19,1.81,2.26,.05,.14-.02,.29-.16,.34-.06,.02-.13,.02-.18,0Z"/>
                  <path class="cls-13" d="M164.57,74.21c-.07-.03-.13-.08-.15-.16-.29-.85-1.31-1.59-1.32-1.6-.12-.08-.14-.25-.06-.37,.08-.12,.25-.14,.37-.06,.05,.03,1.17,.85,1.51,1.86,.05,.14-.03,.29-.16,.33-.06,.02-.12,.02-.18,0Z"/>
                  <path class="cls-13" d="M163.17,76.55c-.08-.03-.15-.11-.16-.2-.08-.49-.75-1.65-1-2.05-.08-.12-.04-.28,.08-.36,.12-.08,.28-.04,.36,.08,.1,.16,.97,1.56,1.07,2.25,.02,.14-.07,.28-.22,.3-.05,0-.09,0-.13-.01Z"/>
                  <path class="cls-13" d="M161.7,78.62c-.08-.03-.15-.11-.16-.2-.08-.49-.75-1.65-1-2.05-.08-.12-.04-.28,.08-.36,.12-.08,.28-.04,.36,.08,.1,.16,.97,1.56,1.07,2.25,.02,.14-.07,.28-.22,.3-.05,0-.09,0-.13-.01Z"/>
                </g>
              </g>
              <g>
                <g>
                  <g>
                    <path class="cls-15" d="M190.57,68.8c3.08,.69,4.34,6.78,3.37,11.14-.97,4.35-3.81,5.31-6.89,4.62-3.08-.69-5.24-2.76-4.27-7.11,.97-4.35,4.7-9.34,7.78-8.65h0Z"/>
                    <path class="cls-40" d="M193.41,79.87c-.13-.19-.39-.23-.58-.1l-4.7,3.3c.23-1.15,.47-2.3,.7-3.44l5.08-3.5c.19-.13,.24-.39,.11-.57-.13-.19-.39-.23-.57-.11l-4.37,3.01,.66-3.22,3.49-2.29c.19-.13,.24-.38,.12-.57-.12-.19-.38-.24-.57-.12l-2.81,1.84,.18-.9,.48-2.3,.33-1.53c-.05-.25-.05-.48-.34-.57-.27-.09-.6,.07-.67,.35-.02,.07-.35,1.53-.35,1.53l-.54,2.28-.21,.89-1.76-2.86c-.12-.19-.37-.26-.57-.14-.19,.12-.25,.37-.14,.57l2.19,3.56-.77,3.2-2.68-4.59c-.11-.2-.37-.26-.57-.15-.2,.12-.26,.37-.15,.56l3.11,5.33c-.28,1.14-.55,2.28-.83,3.41l-2.85-4.99c-.11-.2-.37-.27-.56-.15-.2,.11-.27,.37-.15,.56l3.29,5.75c-.09,.36-.18,.73-.26,1.09-.11,.47-.39,1.08,0,1.49,.21,.22,.54,.3,.83,.21,.05-.02,.09-.04,.13-.06,.34-.19,.4-.59,.47-.95,.1-.48,.2-.97,.3-1.45l5.42-3.8c.19-.13,.23-.39,.1-.58Z"/>
                  </g>
                  <path class="cls-38" d="M186.54,86.72c.15,.04,.31,.04,.45-.01,.05-.02,.09-.04,.13-.06,.34-.19,.4-.59,.47-.95,.07-.33,.14-.67,.2-1,2.78,.37,5.25-.76,6.14-4.75,.95-4.26-.24-10.17-3.18-11.07-.04-.03-.07-.05-.13-.07"/>
                </g>
                <g>
                  <g>
                    <path class="cls-15" d="M179.05,73.54c3.44-1.07,8.14,4.25,9.65,9.11,1.51,4.86-.76,7.41-4.19,8.48-3.44,1.07-6.75,.24-8.25-4.62-1.51-4.86-.64-11.9,2.8-12.97h0Z"/>
                    <path class="cls-40" d="M188.13,82.88c-.24-.11-.52,0-.63,.23l-2.78,5.93c-.42-1.27-.84-2.54-1.26-3.8l3.04-6.34c.11-.23,.01-.52-.22-.63-.23-.11-.52-.01-.63,.22l-2.62,5.46-1.17-3.57,2.16-4.24c.12-.23,.03-.52-.21-.63-.23-.12-.52-.03-.63,.21l-1.73,3.41-.32-.99-.83-2.54-.54-1.7c-.19-.23-.32-.45-.66-.38-.31,.07-.55,.41-.46,.73,.02,.08,.52,1.71,.52,1.71l.76,2.56,.29,1-3.36-1.83c-.23-.13-.51-.04-.64,.19-.12,.23-.04,.51,.19,.64l4.18,2.28,1.05,3.6-5.25-3.02c-.23-.13-.51-.05-.64,.17-.13,.23-.05,.51,.17,.64l6.1,3.51c.37,1.28,.74,2.57,1.12,3.85l-5.65-3.32c-.22-.13-.51-.06-.64,.17-.13,.22-.06,.51,.17,.64l6.51,3.82c.12,.41,.24,.82,.36,1.23,.16,.53,.23,1.29,.85,1.47,.33,.1,.71,0,.94-.26,.04-.04,.07-.09,.1-.13,.23-.38,.06-.81-.08-1.21-.18-.53-.35-1.07-.53-1.6l3.2-6.83c.11-.24,0-.52-.23-.63Z"/>
                  </g>
                  <path class="cls-38" d="M185.22,93.55c.17-.04,.32-.14,.44-.27,.04-.04,.07-.09,.1-.13,.23-.38,.06-.81-.08-1.21-.12-.37-.24-.74-.37-1.11,2.96-1.21,4.76-3.72,3.38-8.18-1.47-4.75-6-9.93-9.42-9.15-.05,0-.1-.01-.17,0"/>
                </g>
                <g>
                  <g>
                    <path class="cls-15" d="M159.51,76.8c2.91,1.22,3.08,7.44,1.36,11.56-1.72,4.11-4.68,4.56-7.59,3.34-2.91-1.22-4.67-3.64-2.95-7.75,1.72-4.11,6.27-8.36,9.18-7.15h0Z"/>
                    <path class="cls-40" d="M160.37,88.19c-.1-.21-.34-.3-.55-.2l-5.21,2.42c.43-1.09,.86-2.18,1.3-3.27l5.62-2.55c.21-.09,.3-.34,.2-.55-.09-.21-.34-.3-.55-.2l-4.83,2.2,1.22-3.06,3.84-1.64c.21-.09,.31-.33,.22-.54-.09-.21-.33-.31-.54-.22l-3.08,1.32,.34-.85,.88-2.18,.59-1.45c0-.26,.04-.48-.23-.62-.25-.13-.6-.04-.72,.23-.03,.06-.62,1.44-.62,1.44l-.93,2.15-.37,.84-1.23-3.12c-.08-.21-.32-.32-.54-.23-.21,.08-.32,.32-.23,.54l1.53,3.89-1.32,3.02-1.83-4.99c-.08-.21-.32-.32-.53-.25-.21,.08-.32,.32-.25,.53l2.13,5.79c-.47,1.07-.94,2.14-1.41,3.22l-1.93-5.41c-.08-.21-.31-.33-.53-.25-.21,.08-.33,.31-.25,.53l2.22,6.24c-.15,.34-.3,.68-.45,1.02-.2,.45-.57,.99-.26,1.47,.16,.25,.48,.39,.78,.35,.05,0,.1-.02,.14-.03,.37-.13,.49-.51,.63-.86,.18-.46,.36-.92,.55-1.38l6-2.79c.21-.1,.3-.34,.2-.55Z"/>
                  </g>
                  <path class="cls-38" d="M152.4,93.73c.14,.06,.29,.09,.45,.07,.05,0,.1-.02,.14-.03,.37-.13,.49-.51,.63-.86,.13-.32,.25-.64,.38-.95,2.67,.86,5.3,.18,6.88-3.6,1.68-4.02,1.55-10.06-1.18-11.46-.03-.03-.06-.07-.12-.09"/>
                </g>
                <g>
                  <g>
                    <path class="cls-15" d="M178.89,76.91c2.91,1.22,3.08,7.44,1.36,11.56-1.72,4.11-4.68,4.56-7.59,3.34-2.91-1.22-4.67-3.64-2.95-7.75,1.72-4.11,6.27-8.36,9.18-7.15h0Z"/>
                    <path class="cls-40" d="M179.74,88.3c-.1-.21-.34-.3-.55-.2l-5.21,2.42c.43-1.09,.86-2.18,1.3-3.27l5.62-2.55c.21-.09,.3-.34,.2-.55-.09-.21-.34-.3-.55-.2l-4.83,2.2,1.22-3.06,3.84-1.64c.21-.09,.31-.33,.22-.54-.09-.21-.33-.31-.54-.22l-3.08,1.32,.34-.85,.88-2.18,.59-1.45c0-.26,.04-.48-.23-.62-.25-.13-.6-.04-.72,.23-.03,.06-.62,1.44-.62,1.44l-.93,2.15-.37,.84-1.23-3.12c-.08-.21-.32-.32-.54-.23-.21,.08-.32,.32-.23,.54l1.53,3.89-1.32,3.02-1.83-4.99c-.08-.21-.32-.32-.53-.25-.21,.08-.32,.32-.25,.53l2.13,5.79c-.47,1.07-.94,2.14-1.41,3.22l-1.93-5.41c-.08-.21-.31-.33-.53-.25-.21,.08-.33,.31-.25,.53l2.22,6.24c-.15,.34-.3,.68-.45,1.02-.2,.45-.57,.99-.26,1.47,.16,.25,.48,.39,.78,.35,.05,0,.1-.02,.14-.03,.37-.13,.49-.51,.63-.86,.18-.46,.36-.92,.55-1.38l6-2.79c.21-.1,.3-.34,.2-.55Z"/>
                  </g>
                  <path class="cls-38" d="M171.78,93.84c.14,.06,.29,.09,.45,.07,.05,0,.1-.02,.14-.03,.37-.13,.49-.51,.63-.86,.13-.32,.25-.64,.38-.95,2.67,.86,5.3,.18,6.88-3.6,1.68-4.02,1.55-10.06-1.18-11.46-.03-.03-.06-.07-.12-.09"/>
                </g>
                <g>
                  <g>
                    <path class="cls-15" d="M141.06,67.86c3.93-.57,8.15,6.03,8.95,11.59,.81,5.55-2.1,7.95-6.03,8.52-3.93,.57-7.4-.9-8.21-6.45-.81-5.55,1.35-13.09,5.28-13.66h0Z"/>
                    <path class="cls-40" d="M149.36,79.6c-.24-.16-.56-.1-.72,.14l-4.05,5.99c-.24-1.45-.48-2.91-.72-4.36l4.41-6.39c.16-.24,.1-.56-.13-.72-.24-.16-.56-.1-.72,.13l-3.79,5.5-.66-4.09,3.08-4.26c.17-.23,.12-.56-.12-.73-.23-.17-.56-.12-.73,.12l-2.48,3.42-.18-1.14-.46-2.92-.3-1.95c-.17-.28-.27-.54-.65-.52-.35,.02-.67,.35-.62,.71,.01,.09,.27,1.95,.27,1.95l.39,2.93,.15,1.14-3.35-2.57c-.23-.18-.55-.13-.73,.1-.18,.23-.13,.55,.1,.73l4.17,3.2,.53,4.11-5.2-4.19c-.22-.18-.55-.14-.73,.08-.18,.22-.14,.55,.08,.73l6.05,4.87c.19,1.46,.37,2.92,.56,4.39l-5.59-4.59c-.22-.18-.55-.15-.73,.07-.18,.22-.15,.55,.07,.73l6.44,5.29c.06,.47,.12,.93,.18,1.4,.08,.61,.03,1.44,.67,1.75,.34,.16,.77,.11,1.07-.12,.05-.04,.09-.08,.13-.13,.32-.38,.2-.87,.12-1.33-.1-.61-.2-1.23-.3-1.84l4.66-6.9c.16-.24,.1-.56-.14-.72Z"/>
                  </g>
                  <path class="cls-38" d="M144.36,90.74c.19-.02,.38-.09,.53-.21,.05-.04,.09-.08,.13-.13,.32-.38,.2-.87,.12-1.33-.07-.42-.14-.85-.21-1.27,3.44-.81,5.83-3.24,5.09-8.34-.79-5.43-4.84-11.85-8.7-11.6-.06-.02-.11-.03-.18-.03"/>
                </g>
                <g>
                  <g>
                    <path class="cls-15" d="M164.04,70.92c3.93-.57,8.15,6.03,8.95,11.59,.81,5.55-2.1,7.95-6.03,8.52-3.93,.57-7.4-.9-8.21-6.45-.81-5.55,1.35-13.09,5.28-13.66h0Z"/>
                    <path class="cls-40" d="M172.34,82.67c-.24-.16-.56-.1-.72,.14l-4.05,5.99c-.24-1.45-.48-2.91-.72-4.36l4.41-6.39c.16-.24,.1-.56-.13-.72-.24-.16-.56-.1-.72,.13l-3.79,5.5-.66-4.09,3.08-4.26c.17-.23,.12-.56-.12-.73-.23-.17-.56-.12-.73,.12l-2.48,3.42-.18-1.14-.46-2.92-.3-1.95c-.17-.28-.27-.54-.65-.52-.35,.02-.67,.35-.62,.71,.01,.09,.27,1.95,.27,1.95l.39,2.93,.15,1.14-3.35-2.57c-.23-.18-.55-.13-.73,.1-.18,.23-.13,.55,.1,.73l4.17,3.2,.53,4.11-5.2-4.19c-.22-.18-.55-.14-.73,.08-.18,.22-.14,.55,.08,.73l6.05,4.87c.19,1.46,.37,2.92,.56,4.39l-5.59-4.59c-.22-.18-.55-.15-.73,.07-.18,.22-.15,.55,.07,.73l6.44,5.29c.06,.47,.12,.93,.18,1.4,.08,.61,.03,1.44,.67,1.75,.34,.16,.77,.11,1.07-.12,.05-.04,.09-.08,.13-.13,.32-.38,.2-.87,.12-1.33-.1-.61-.2-1.23-.3-1.84l4.66-6.9c.16-.24,.1-.56-.14-.72Z"/>
                  </g>
                  <path class="cls-38" d="M167.33,93.8c.19-.02,.38-.09,.53-.21,.05-.04,.09-.08,.13-.13,.32-.38,.2-.87,.12-1.33-.07-.42-.14-.85-.21-1.27,3.44-.81,5.83-3.24,5.09-8.34-.79-5.43-4.84-11.85-8.7-11.6-.06-.02-.11-.03-.18-.03"/>
                </g>
                <g>
                  <g>
                    <path class="cls-15" d="M197.68,73.24c3.72,1.4,4.2,9.23,2.22,14.48-1.98,5.25-5.69,5.94-9.4,4.54-3.72-1.4-6.04-4.37-4.05-9.62,1.98-5.25,7.52-10.8,11.24-9.39h0Z"/>
                    <path class="cls-40" d="M199.25,87.53c-.13-.26-.44-.36-.7-.23l-6.44,3.28c.5-1.39,.99-2.78,1.49-4.16l6.95-3.46c.26-.13,.36-.44,.23-.7-.13-.26-.44-.36-.7-.23l-5.98,2.98,1.4-3.9,4.76-2.23c.26-.12,.37-.43,.25-.69-.12-.26-.43-.37-.69-.25l-3.82,1.79,.39-1.08,1.01-2.78,.68-1.85c-.01-.33,.02-.61-.32-.77-.32-.15-.76-.02-.89,.32-.03,.08-.71,1.84-.71,1.84l-1.08,2.75-.42,1.07-1.68-3.87c-.11-.26-.42-.38-.68-.27-.26,.11-.38,.42-.27,.68l2.1,4.82-1.53,3.85-2.52-6.19c-.11-.27-.41-.39-.68-.28-.27,.11-.39,.41-.29,.68l2.93,7.19c-.55,1.37-1.09,2.74-1.64,4.11l-2.67-6.72c-.11-.27-.41-.4-.67-.29-.27,.11-.4,.41-.29,.67l3.07,7.74c-.17,.44-.35,.87-.52,1.31-.23,.57-.67,1.28-.26,1.86,.22,.31,.62,.48,.99,.41,.06-.01,.12-.03,.18-.05,.46-.18,.6-.66,.75-1.11,.21-.58,.42-1.17,.63-1.75l7.42-3.78c.26-.13,.36-.44,.23-.7Z"/>
                  </g>
                  <path class="cls-38" d="M189.48,94.85c.18,.08,.37,.1,.56,.07,.06-.01,.12-.03,.18-.05,.46-.18,.6-.66,.75-1.11,.14-.41,.29-.81,.43-1.22,3.4,.96,6.67-.01,8.49-4.83,1.94-5.14,1.51-12.72-1.99-14.36-.04-.04-.08-.08-.15-.11"/>
                </g>
                <g>
                  <g>
                    <path class="cls-15" d="M131.11,79.56c2.69-1.33,7.27,2.44,9.15,6.24,1.88,3.81,.35,6.21-2.34,7.54-2.69,1.33-5.53,1.08-7.41-2.72-1.88-3.81-2.09-9.73,.6-11.06h0Z"/>
                    <path class="cls-40" d="M139.83,86.06c-.21-.06-.43,.06-.49,.27l-1.51,5.26c-.51-.99-1.02-1.98-1.54-2.97l1.67-5.63c.06-.21-.06-.43-.27-.49-.21-.06-.43,.06-.49,.27l-1.44,4.85-1.43-2.79,1.22-3.78c.07-.21-.05-.43-.25-.5-.21-.07-.43,.05-.5,.25l-.98,3.04-.4-.77-1.02-1.99-.67-1.33c-.19-.16-.32-.33-.59-.22-.25,.1-.4,.41-.28,.66,.03,.06,.65,1.34,.65,1.34l.96,2.02,.37,.79-3.01-1.07c-.2-.07-.43,.03-.5,.24-.07,.2,.03,.43,.24,.5l3.75,1.33,1.34,2.83-4.73-1.8c-.2-.08-.43,.03-.51,.23-.08,.2,.02,.43,.23,.51l5.49,2.09c.48,1.01,.95,2.02,1.43,3.03l-5.1-1.99c-.2-.08-.43,.02-.51,.22-.08,.2,.02,.43,.22,.51l5.87,2.3c.15,.32,.3,.64,.45,.96,.2,.42,.36,1.03,.89,1.1,.28,.04,.58-.1,.74-.34,.03-.04,.05-.08,.06-.12,.14-.35-.06-.67-.22-.99-.22-.42-.43-.83-.65-1.25l1.74-6.06c.06-.21-.06-.43-.27-.49Z"/>
                  </g>
                  <path class="cls-38" d="M138.84,95.25c.13-.06,.25-.15,.33-.28,.03-.04,.05-.08,.06-.12,.14-.35-.06-.67-.22-.99-.15-.29-.3-.58-.45-.87,2.29-1.39,3.44-3.7,1.71-7.19-1.84-3.72-6.26-7.4-8.97-6.31-.04,0-.09,0-.14,.02"/>
                </g>
              </g>
              <g>
                <path class="cls-11" d="M180.93,70.15c3.2,2.74,3.58,7.55,.84,10.75-2.73,3.2-7.55,3.57-10.75,.84-3.2-2.74-3.58-7.55-.84-10.75,2.74-3.2,7.55-3.57,10.75-.84Z"/>
                <g>
                  <path class="cls-4" d="M173.98,73.44c.11-.1,.1-.26,.02-.53-.08-.27-.49-.8-.84-.56-.33,.23-.24,.53-.02,.79,.2,.23,.62,.49,.84,.3Z"/>
                  <path class="cls-4" d="M173.13,74.73c.06-.13,0-.28-.19-.5-.18-.22-.75-.56-.99-.2-.22,.34-.02,.58,.28,.74,.27,.14,.76,.22,.89-.04Z"/>
                  <path class="cls-4" d="M173.23,76.13c-.02-.14-.16-.23-.43-.31-.27-.08-.94-.05-.93,.38,0,.4,.3,.5,.64,.46,.3-.03,.76-.23,.72-.52Z"/>
                  <path class="cls-4" d="M173.59,77.39c-.09-.11-.26-.11-.53-.03-.27,.07-.82,.46-.58,.82,.22,.33,.52,.26,.79,.04,.24-.19,.51-.6,.32-.83Z"/>
                  <path class="cls-4" d="M174.66,78.45c-.13-.07-.28,0-.5,.17-.22,.17-.58,.74-.23,.98,.33,.22,.58,.04,.74-.26,.15-.27,.25-.75-.02-.89Z"/>
                  <path class="cls-4" d="M176.1,78.94c-.14-.02-.26,.09-.42,.33-.15,.24-.3,.89,.11,1,.38,.1,.56-.16,.61-.5,.05-.3-.02-.79-.31-.83Z"/>
                  <path class="cls-4" d="M177.47,78.82c-.13,.06-.16,.22-.15,.51,0,.28,.26,.9,.66,.76,.37-.14,.37-.45,.22-.76-.13-.27-.47-.64-.73-.5Z"/>
                  <path class="cls-4" d="M178.45,78.16c-.06,.13,0,.28,.18,.5,.18,.22,.75,.56,.99,.2,.22-.33,.03-.58-.28-.74-.27-.14-.76-.23-.89,.04Z"/>
                  <path class="cls-4" d="M179,76.64c-.03,.14,.07,.27,.3,.43,.23,.17,.87,.36,1-.05,.13-.38-.12-.57-.46-.64-.3-.07-.79-.03-.85,.26Z"/>
                  <path class="cls-4" d="M179.04,75.28c.04,.14,.19,.2,.47,.24,.28,.04,.93-.1,.86-.52-.07-.39-.38-.44-.71-.35-.29,.08-.71,.35-.62,.63Z"/>
                  <path class="cls-4" d="M178.12,74.22c.1,.1,.26,.09,.53,0,.27-.09,.79-.51,.53-.86-.24-.32-.54-.22-.79,0-.22,.21-.47,.63-.27,.85Z"/>
                  <path class="cls-4" d="M176.92,73.23c.13,.06,.28-.02,.49-.2,.21-.19,.54-.77,.17-.99-.34-.2-.58,0-.73,.31-.13,.28-.2,.76,.07,.89Z"/>
                  <path class="cls-4" d="M175.34,72.92c.14,0,.25-.13,.36-.39,.12-.26,.16-.93-.26-.97-.4-.04-.53,.24-.53,.58,0,.31,.14,.78,.43,.78Z"/>
                </g>
                <path class="cls-5" d="M177.49,74.17c.98,.83,1.09,2.3,.26,3.28-.83,.98-2.3,1.09-3.28,.25-.98-.83-1.09-2.3-.26-3.28,.83-.98,2.3-1.09,3.28-.25Z"/>
              </g>
              <g>
                <path class="cls-11" d="M200.84,82c3.2,2.74,3.58,7.55,.84,10.75-2.73,3.2-7.55,3.57-10.75,.84-3.2-2.74-3.58-7.55-.84-10.75,2.74-3.2,7.55-3.57,10.75-.84Z"/>
                <g>
                  <path class="cls-4" d="M193.88,85.3c.11-.1,.1-.26,.02-.53-.08-.27-.49-.8-.84-.56-.33,.23-.24,.53-.02,.79,.2,.23,.62,.49,.84,.3Z"/>
                  <path class="cls-4" d="M193.03,86.58c.06-.13,0-.28-.19-.5-.18-.22-.75-.56-.99-.2-.22,.34-.02,.58,.28,.74,.27,.14,.76,.22,.89-.04Z"/>
                  <path class="cls-4" d="M193.13,87.98c-.02-.14-.16-.23-.43-.31-.27-.08-.94-.05-.93,.38,0,.4,.3,.5,.64,.46,.3-.03,.76-.23,.72-.52Z"/>
                  <path class="cls-4" d="M193.49,89.25c-.09-.11-.26-.11-.53-.03-.27,.07-.82,.46-.58,.82,.22,.33,.52,.26,.79,.04,.24-.19,.51-.6,.32-.83Z"/>
                  <path class="cls-4" d="M194.56,90.3c-.13-.07-.28,0-.5,.17-.22,.17-.58,.74-.23,.98,.33,.22,.58,.04,.74-.26,.15-.27,.25-.75-.02-.89Z"/>
                  <path class="cls-4" d="M196.01,90.79c-.14-.02-.26,.09-.42,.33-.15,.24-.3,.89,.11,1,.38,.1,.56-.16,.61-.5,.05-.3-.02-.79-.31-.83Z"/>
                  <path class="cls-4" d="M197.37,90.68c-.13,.06-.16,.22-.15,.51,0,.28,.26,.9,.66,.76,.37-.14,.37-.45,.22-.76-.13-.27-.47-.64-.73-.5Z"/>
                  <path class="cls-4" d="M198.35,90.01c-.06,.13,0,.28,.18,.5,.18,.22,.75,.56,.99,.2,.22-.33,.03-.58-.28-.74-.27-.14-.76-.23-.89,.04Z"/>
                  <path class="cls-4" d="M198.9,88.49c-.03,.14,.07,.27,.3,.43,.23,.17,.87,.36,1-.05,.13-.38-.12-.57-.46-.64-.3-.07-.79-.03-.85,.26Z"/>
                  <path class="cls-4" d="M198.95,87.14c.04,.14,.19,.2,.47,.24,.28,.04,.93-.1,.86-.52-.07-.39-.38-.44-.71-.35-.29,.08-.71,.35-.62,.63Z"/>
                  <path class="cls-4" d="M198.02,86.08c.1,.1,.26,.09,.53,0,.27-.09,.79-.51,.53-.86-.24-.32-.54-.22-.79,0-.22,.21-.47,.63-.27,.85Z"/>
                  <path class="cls-4" d="M196.83,85.09c.13,.06,.28-.02,.49-.2,.21-.19,.54-.77,.17-.99-.34-.2-.58,0-.73,.31-.13,.28-.2,.76,.07,.89Z"/>
                  <path class="cls-4" d="M195.24,84.78c.14,0,.25-.13,.36-.39,.12-.26,.16-.93-.26-.97-.4-.04-.53,.24-.53,.58,0,.31,.14,.78,.43,.78Z"/>
                </g>
                <path class="cls-5" d="M197.39,86.03c.98,.83,1.09,2.3,.26,3.28-.83,.98-2.3,1.09-3.28,.25-.98-.83-1.09-2.3-.26-3.28,.83-.98,2.3-1.09,3.28-.25Z"/>
              </g>
              <g>
                <path class="cls-11" d="M144.57,80.29c3.2,2.74,3.58,7.55,.84,10.75-2.73,3.2-7.55,3.57-10.75,.84-3.2-2.74-3.58-7.55-.84-10.75,2.74-3.2,7.55-3.57,10.75-.84Z"/>
                <g>
                  <path class="cls-4" d="M137.61,83.59c.11-.1,.1-.26,.02-.53-.08-.27-.49-.8-.84-.56-.33,.23-.24,.53-.02,.79,.2,.23,.62,.49,.84,.3Z"/>
                  <path class="cls-4" d="M136.77,84.88c.06-.13,0-.28-.19-.5-.18-.22-.75-.56-.99-.2-.22,.34-.02,.58,.28,.74,.27,.14,.76,.22,.89-.04Z"/>
                  <path class="cls-4" d="M136.87,86.27c-.02-.14-.16-.23-.43-.31-.27-.08-.94-.05-.93,.38,0,.4,.3,.5,.64,.46,.3-.03,.76-.23,.72-.52Z"/>
                  <path class="cls-4" d="M137.23,87.54c-.09-.11-.26-.11-.53-.03-.27,.07-.82,.46-.58,.82,.22,.33,.52,.26,.79,.04,.24-.19,.51-.6,.32-.83Z"/>
                  <path class="cls-4" d="M138.29,88.59c-.13-.07-.28,0-.5,.17-.22,.17-.58,.74-.23,.98,.33,.22,.58,.04,.74-.26,.15-.27,.25-.75-.02-.89Z"/>
                  <path class="cls-4" d="M139.74,89.08c-.14-.02-.26,.09-.42,.33-.15,.24-.3,.89,.11,1,.38,.1,.56-.16,.61-.5,.05-.3-.02-.79-.31-.83Z"/>
                  <path class="cls-4" d="M141.1,88.97c-.13,.06-.16,.22-.15,.51,0,.28,.26,.9,.66,.76,.37-.14,.37-.45,.22-.76-.13-.27-.47-.64-.73-.5Z"/>
                  <path class="cls-4" d="M142.09,88.31c-.06,.13,0,.28,.18,.5,.18,.22,.75,.56,.99,.2,.22-.33,.03-.58-.28-.74-.27-.14-.76-.23-.89,.04Z"/>
                  <path class="cls-4" d="M142.63,86.79c-.03,.14,.07,.27,.3,.43,.23,.17,.87,.36,1-.05,.13-.38-.12-.57-.46-.64-.3-.07-.79-.03-.85,.26Z"/>
                  <path class="cls-4" d="M142.68,85.43c.04,.14,.19,.2,.47,.24,.28,.04,.93-.1,.86-.52-.07-.39-.38-.44-.71-.35-.29,.08-.71,.35-.62,.63Z"/>
                  <path class="cls-4" d="M141.76,84.37c.1,.1,.26,.09,.53,0,.27-.09,.79-.51,.53-.86-.24-.32-.54-.22-.79,0-.22,.21-.47,.63-.27,.85Z"/>
                  <path class="cls-4" d="M140.56,83.38c.13,.06,.28-.02,.49-.2,.21-.19,.54-.77,.17-.99-.34-.2-.58,0-.73,.31-.13,.28-.2,.76,.07,.89Z"/>
                  <path class="cls-4" d="M138.97,83.07c.14,0,.25-.13,.36-.39,.12-.26,.16-.93-.26-.97-.4-.04-.53,.24-.53,.58,0,.31,.14,.78,.43,.78Z"/>
                </g>
                <path class="cls-5" d="M141.13,84.32c.98,.83,1.09,2.3,.26,3.28s-2.3,1.09-3.28,.25c-.98-.83-1.09-2.3-.26-3.28,.83-.98,2.3-1.09,3.28-.25Z"/>
              </g>
              <g>
                <g>
                  <path class="cls-14" d="M150.01,70.22s-1-2.98-1-3.82c0-.84,.79-1.54,1.68-1.55,.89-.01,1.54,.44,1.71,.93,.17,.49-.34,1.91-.14,2.83,.2,.92,.23,1.84,.23,1.84l-2.04,.54-.43-.77Z"/>
                  <path class="cls-61" d="M151.54,70.7l.94-.25s-.03-.91-.23-1.84c-.2-.92,.32-2.35,.14-2.83-.17-.49-.82-.94-1.71-.93,0,0-.19,3.06,.85,5.85"/>
                </g>
                <path class="cls-45" d="M151.4,71.35c-2.01,3.45,.74,16.45,4.27,18.85,3.53,2.4,8.66,.97,9.84-1.11,2.48-4.35,2.88-18.85-4.47-20.47-3.22-.71-7.62-.72-9.64,2.73Z"/>
                <path class="cls-44" d="M149.87,71.88c-2.3,3.26,.1,16.53,3.53,19.07,3.43,2.54,8.61,1.31,9.88-.72,2.65-4.25,2.57-18.94-3.63-20.85-4.06-1.24-7.93-.13-9.78,2.49Z"/>
                <path class="cls-45" d="M151.7,71.27c3.45,2.02,7.43,14.69,5.54,18.52-1.89,3.82-7.07,5.09-9.12,3.86-4.29-2.57-11.76-15.01-6.15-20.03,2.45-2.2,6.29-4.37,9.73-2.35Z"/>
                <path class="cls-44" d="M153.29,70.99c3.61,1.71,8.03,14.45,6.28,18.34-1.74,3.9-6.86,5.37-8.96,4.22-4.39-2.4-11.68-15.54-7.22-20.24,2.92-3.07,6.99-3.7,9.89-2.32Z"/>
                <path class="cls-24" d="M145.98,73.7c-1.41,4.57,3.91,18.12,7.52,19.35,3.62,1.23,6.95-.27,7.67-2.43,1.5-4.52,.46-21.32-6.66-21.19-2.86,.05-7.32,.32-8.53,4.28Z"/>
                <path class="cls-63" d="M148.34,71.79s-1.32,1.15-1.52,2.18c-.2,1.03,.42,1.4,.88,1.28,.85-.22,1.45-2.04,2.11-2.46,1.01-.64-.4-2.2-1.47-.99Z"/>
              </g>
              <g>
                <path class="cls-29" d="M181.24,78.58s-7.03-2.43-7.14,5.34c-.1,7.23,6.5,11.89,8.87,12.29,2.37,.4,6.9-6.47,6.92-11.36,.01-3.88-1.76-10-8.65-6.27Z"/>
                <path class="cls-13" d="M178.82,77.96s-1.5,9.58,3.62,16.74c0,0,.91,1.19,1.52-.41,.76-1.99,2.23-12.01-.35-16.94,0,0-1.6,.32-2.39,.94-1.33-.46-2.4-.33-2.4-.33Z"/>
                <path class="cls-7" d="M183.08,88.15c-.13,.47-.71,.68-1.02,.16-.96-1.61-2.14-4.16-1.88-5.75,.2-1.24,1.14-1.28,1.72-.8,.5-.5,1.28-.55,1.6,.02,.69,1.21,.23,4.04-.42,6.37Z"/>
                <g>
                  <path class="cls-13" d="M176.35,81.63c-.05,0-.11-.02-.16-.05-.12-.09-.14-.25-.06-.36,.03-.05,.85-1.12,2.87-1.3,.13,0,.27,.09,.28,.24,.01,.14-.09,.27-.24,.28-1.77,.15-2.47,1.05-2.5,1.08-.05,.07-.13,.1-.21,.1Z"/>
                  <path class="cls-13" d="M176.87,84.05s-.09-.01-.13-.04c-.12-.07-.17-.23-.09-.36,.03-.06,.82-1.38,2.62-2.07,.14-.05,.29,.02,.34,.15,.05,.14-.02,.29-.15,.34-1.62,.61-2.35,1.83-2.35,1.84-.05,.08-.14,.13-.23,.13Z"/>
                  <path class="cls-13" d="M177.58,86.45c-.05,0-.1-.02-.15-.05-.12-.08-.15-.25-.06-.36,.54-.77,1.16-1.52,2.05-1.82,.14-.05,.29,.03,.33,.16,.05,.14-.03,.29-.16,.33-.75,.25-1.3,.93-1.79,1.62-.05,.07-.13,.11-.21,.11Z"/>
                  <path class="cls-13" d="M178.36,88.96c-.06,0-.11-.02-.16-.05-.12-.09-.14-.25-.05-.37,.2-.27,1.25-1.61,1.99-1.61h.02c.14,0,.26,.13,.25,.27,0,.14-.12,.27-.27,.25,0,0,0,0,0,0-.31,0-1.05,.72-1.57,1.4-.05,.07-.13,.1-.21,.1Z"/>
                  <path class="cls-13" d="M179.32,91.45s-.1-.01-.14-.04c-.12-.08-.16-.24-.08-.36,.3-.47,1.07-1.54,1.64-1.45,.14,.02,.24,.16,.21,.3-.02,.14-.16,.24-.3,.21-.17,0-.7,.58-1.11,1.22-.05,.08-.13,.12-.22,.12Z"/>
                  <path class="cls-13" d="M180.43,93.42s-.07,0-.1-.02c-.13-.06-.2-.21-.14-.34,.21-.51,.78-1.71,1.37-1.71,.14,0,.26,.12,.26,.26s-.12,.26-.26,.26c-.17,.03-.59,.69-.89,1.39-.04,.1-.14,.16-.24,.16Z"/>
                  <path class="cls-13" d="M186.4,80.24s-.09-.01-.13-.04c-1.17-.7-3-.41-3.02-.4-.14,.03-.28-.07-.3-.22s.07-.28,.22-.3c.08-.01,2.04-.32,3.37,.47,.12,.07,.17,.23,.09,.36-.05,.08-.14,.13-.23,.13Z"/>
                  <path class="cls-13" d="M186.71,82.75c-.06,0-.12-.02-.17-.06-1.03-.84-2.87-1.32-2.88-1.33-.14-.04-.22-.18-.19-.32,.04-.14,.18-.23,.32-.19,.08,.02,1.97,.52,3.08,1.43,.11,.09,.13,.26,.04,.37-.05,.06-.13,.1-.2,.1Z"/>
                  <path class="cls-13" d="M186.8,85.25c-.07,0-.15-.03-.2-.09-.65-.75-2.25-1.3-2.27-1.3-.14-.05-.21-.19-.16-.33,.05-.14,.19-.21,.33-.16,.07,.02,1.76,.6,2.5,1.46,.09,.11,.08,.27-.03,.37-.05,.04-.11,.06-.17,.06Z"/>
                  <path class="cls-13" d="M186.46,87.64c-.07,0-.15-.03-.2-.09-.58-.69-1.79-1.02-1.81-1.02-.14-.04-.22-.18-.19-.32,.04-.14,.18-.22,.32-.19,.06,.01,1.39,.37,2.08,1.19,.09,.11,.08,.28-.03,.37-.05,.04-.11,.06-.17,.06Z"/>
                  <path class="cls-13" d="M185.99,90.32c-.09,0-.18-.05-.23-.13-.25-.43-1.29-1.27-1.67-1.55-.12-.09-.14-.25-.05-.37,.09-.11,.25-.14,.37-.05,.15,.11,1.46,1.11,1.81,1.71,.07,.13,.03,.29-.1,.36-.04,.02-.09,.04-.13,.04Z"/>
                  <path class="cls-13" d="M185.36,92.78c-.09,0-.18-.05-.23-.13-.25-.43-1.29-1.27-1.67-1.55-.12-.09-.14-.25-.05-.37,.09-.12,.25-.14,.37-.05,.15,.11,1.46,1.11,1.81,1.71,.07,.13,.03,.29-.1,.36-.04,.02-.09,.04-.13,.04Z"/>
                </g>
              </g>
            </g>
            <g>
              <g>
                <path class="cls-36" d="M138.74,92.96s2.29,.96,3.35,3.8c0,0,1.4,.71,3.57-1.12,0,0-1.13-2.65-.67-4.29,.02-.08,.39-.7,.43-.76,0,0-.87-.18-1.06,.11-.21,.34-.12,.96-.56,1.62-.44,.66-.71-.34-.81-1.11-.08-.59-.34-1.12-.34-1.12l-.62,.15s.52,1.53,.31,2.04c-.21,.51-.96-.57-1.51-1.27-.32-.41-.81,.36-.81,.36,0,0,1.41,1.22,1.21,1.66-.2,.44-1.45-.71-1.45-.71l-1.04,.64Z"/>
                <path class="cls-40" d="M137.56,93.74s.48,.66,1.09,.45c.43-.15,.69-.34,.68-.84-.01-.45-.18-.6-.18-.6,0,0,.57,.26,1.08-.22,.51-.48,.07-1.13,.07-1.13,0,0,1.02-.47,.87-1.26-.13-.65-1.19-.93-1.19-.93,0,0,.69-.58,.17-1.36-.68-1.03-1.75,0-1.75,0,0,0-.46-1.11-1.1-.99-1.25,.23-.93,1.29-.93,1.29,0,0-.42-.53-1.01-.13-.78,.53-.3,1.24,.12,1.65,0,0-1.7-.14-1.56,1.08,.14,1.19,1.32,.9,1.32,.9,0,0-1.66,.91-.47,1.87,.47,.38,1.27-.47,1.27-.47,0,0-.6,1.29,.41,1.53,1.07,.25,1.11-.84,1.11-.84Z"/>
                <path class="cls-40" d="M143.31,89.9s-.35,.83,.12,1.27c.47,.44,.73,.4,1.14,.11,.38-.26,.44-.58,.44-.58,0,0,.05,.82,.73,.99,.68,.17,1.02-.75,1.02-.75,0,0,.95,.6,1.53,.05,.48-.46,.13-1.5,.13-1.5,0,0,.86,.26,1.23-.59,.49-1.13-.95-1.47-.95-1.47,0,0,.69-.85,.24-1.46-.69-.93-1.59-.08-1.59-.08,0,0,.04-.65-.43-.82-.88-.34-1.22,.33-1.33,.9,0,0-.8-1.51-1.75-.73-.93,.76-.04,1.6-.04,1.6,0,0-1.66-.9-1.83,.62-.07,.61,1.09,.81,1.09,.81,0,0-1.41,.2-1.06,1.17,.37,1.04,1.31,.47,1.31,.47Z"/>
                <path class="cls-39" d="M138.99,87.73s-.35,.83,.12,1.27c.47,.44,.73,.4,1.14,.11,.38-.26,.44-.58,.44-.58,0,0,.05,.82,.73,.99,.68,.17,1.02-.75,1.02-.75,0,0,.95,.6,1.53,.05,.48-.46,.13-1.5,.13-1.5,0,0,.86,.26,1.23-.59,.49-1.13-.95-1.47-.95-1.47,0,0,.69-.85,.24-1.46-.69-.93-1.59-.08-1.59-.08,0,0,.04-.65-.43-.82-.88-.34-1.22,.33-1.33,.9,0,0-.8-1.51-1.75-.73-.93,.76-.04,1.6-.04,1.6,0,0-1.66-.9-1.83,.62-.07,.61,1.09,.81,1.09,.81,0,0-1.41,.2-1.06,1.17,.37,1.04,1.31,.47,1.31,.47Z"/>
                <path class="cls-15" d="M138.07,88.71s-.6,.75-.26,1.34c.35,.59,.62,.62,1.13,.45,.46-.15,.62-.46,.62-.46,0,0-.21,1.13,.44,1.5,.65,.37,1.29-.73,1.29-.73,0,0,.79,.9,1.55,.5,.62-.32,.58-1.5,.58-1.5,0,0,.8,.52,1.43-.24,.84-1.01-.53-1.78-.53-1.78,0,0,1.08-.55,.68-1.42-.51-1.12-1.6-.56-1.6-.56,0,0,.23-.65-.19-.97-.8-.61-1.35-.03-1.63,.52,0,0-.37-1.78-1.57-1.27-1.17,.5-.51,1.62-.51,1.62,0,0-1.35-1.23-1.94,.21-.25,.6,.76,1.04,.76,1.04,0,0-1.5-.22-1.43,.88,.07,1.17,1.2,.87,1.2,.87Z"/>
                <path class="cls-37" d="M145.01,91.27s.08,1.8-1.07,3.45c-1.15,1.64-1.85,2.04-1.85,2.04,0,0,1.4,.71,3.57-1.12,0,0-1.13-2.65-.67-4.29"/>
              </g>
              <g>
                <g>
                  <path class="cls-2" d="M127.96,87.12s-.65-1.16-1.89-.93c-.57,.1-2.13,1.17-3.7,.33-1.58-.84-.64-2.03,.55-2.08l1.19-.05s-4.05,.71-4.19-1.12c-.11-1.47,1.64-1.31,1.64-1.31,0,0-3.38-.24-2.62-2.19,.55-1.4,2.88,.32,2.88,.32,0,0-1.72-1.7,.04-2.41,2-.82,2,3.18,2,3.18,0,0-.05-3.37,1.78-2.35,1.73,.96,.04,3.49,.04,3.49,0,0,.9-2.54,2.13-1.25,1.23,1.29,.15,3.44-.23,3.81-.38,.37,1.82,2.56,1.96,3.88,.14,1.32-1.55-1.31-1.55-1.31Z"/>
                  <path class="cls-70" d="M121.92,78.31c-.15,.06-.22,.22-.16,.37,0,.02,.5,1.3,.84,2.59-1.72-1.06-3.05-1.62-3.12-1.65-.15-.06-.31,0-.37,.15-.06,.15,0,.31,.15,.37,.04,.02,1.81,.77,3.86,2.15-1.01,.17-2.3,.61-2.48,.67-.15,.05-.23,.21-.18,.36,.05,.15,.21,.23,.36,.18,.63-.22,2.34-.75,3.03-.7,.67,.49,1.35,1.04,2,1.66-1.26,.06-2.97,.63-3.2,.71-.15,.05-.23,.21-.18,.36,.05,.15,.21,.23,.36,.18,.73-.25,2.77-.85,3.62-.65,1.02,1.07,1.9,2.31,2.43,3.69,.06,.15,.22,.22,.37,.17,.1-.04,.17-.13,.18-.23,0-.05,0-.09-.02-.14-.56-1.48-1.51-2.79-2.56-3.9-.42-.85,.21-2.68,.49-3.31,.01-.03,.02-.05,.02-.08,.02-.12-.05-.25-.17-.3-.14-.06-.31,0-.38,.15-.04,.08-.69,1.59-.67,2.84-.35-.33-.7-.64-1.06-.92-.43-.76,.07-2.84,.3-3.59,.05-.15-.04-.31-.19-.36-.15-.05-.31,.04-.36,.19-.07,.24-.59,1.94-.48,3.2-.09-.06-.17-.13-.25-.19,0,0,0,0,0,0-.17-.12-.33-.24-.49-.35-.11-.07-.22-.15-.32-.22-.34-1.49-.97-3.17-1-3.24-.06-.15-.22-.22-.37-.16Z"/>
                </g>
                <g>
                  <path class="cls-70" d="M129.2,86.75s.07-1.33-1.11-1.8c-.54-.21-2.42-.13-3.32-1.68-.89-1.55,.53-2.06,1.57-1.48l1.04,.58s-3.81-1.55-2.96-3.17c.68-1.3,2.08-.25,2.08-.25,0,0-2.74-2-1.06-3.25,1.2-.9,2.27,1.8,2.27,1.8,0,0-.56-2.35,1.31-2.03,2.13,.37,0,3.75,0,3.75,0,0,1.75-2.88,2.76-1.05,.96,1.73-1.82,2.98-1.82,2.98,0,0,2.11-1.68,2.46,.07,.36,1.75-1.7,3-2.22,3.11-.52,.11,.18,3.14-.4,4.33-.58,1.2-.62-1.94-.62-1.94Z"/>
                  <path class="cls-2" d="M128.75,76.08c-.15-.03-.3,.07-.34,.23,0,.02-.27,1.37-.66,2.64-.89-1.81-1.73-3-1.77-3.05-.09-.13-.27-.16-.4-.07-.13,.09-.16,.27-.07,.4,.02,.03,1.13,1.61,2.13,3.87-.94-.39-2.27-.7-2.46-.75-.15-.04-.31,.06-.34,.21-.03,.15,.06,.31,.22,.34,.65,.15,2.38,.61,2.94,1.01,.31,.77,.6,1.6,.82,2.47-1.1-.62-2.85-1.04-3.09-1.09-.15-.04-.31,.06-.34,.21-.04,.15,.06,.31,.21,.34,.76,.17,2.8,.75,3.42,1.37,.29,1.45,.39,2.97,.1,4.42-.03,.15,.07,.31,.22,.34,.11,.02,.21-.02,.28-.1,.03-.03,.05-.08,.06-.13,.31-1.55,.2-3.16-.1-4.66,.09-.95,1.6-2.16,2.17-2.55,.02-.02,.04-.03,.06-.05,.08-.1,.09-.23,.02-.34-.09-.13-.27-.17-.4-.08-.07,.05-1.43,.98-2.08,2.05-.12-.46-.26-.91-.41-1.34,.03-.87,1.57-2.37,2.16-2.88,.12-.1,.13-.28,.03-.4-.1-.12-.28-.13-.4-.03-.19,.16-1.53,1.34-2.1,2.46-.04-.1-.08-.2-.12-.29,0,0,0,0,0,0-.08-.19-.15-.38-.23-.55-.05-.12-.11-.24-.16-.36,.5-1.44,.86-3.21,.87-3.28,.03-.15-.07-.3-.23-.34Z"/>
                </g>
                <g>
                  <path class="cls-46" d="M128.07,88.35s-3.98,1.71-2.94,7.07c1.1,5.65,8.99,15.53,13.98,15.64,6.13,.14,1.4-14.72-1.28-20.39-2.14-4.53-7.52-4.19-9.75-2.32Z"/>
                  <path class="cls-73" d="M127.07,93.33s1.32-1.31,2.95-1.71"/>
                  <path class="cls-73" d="M132.96,93.85s.97-.68,1.8-.73"/>
                  <path class="cls-73" d="M129.35,99.83s1.58-1.35,2.69-1.68"/>
                  <path class="cls-73" d="M134.72,94.58s1.8-1.05,2.95-1.18"/>
                  <path class="cls-73" d="M134.37,99.16s1.38-.82,1.9-.84"/>
                  <path class="cls-73" d="M132.87,104.07s1.4-1.21,2.2-1.4"/>
                  <path class="cls-73" d="M136.15,108.48s.71-.64,1.45-.98"/>
                  <path class="cls-73" d="M137.95,105.73s1.15-1.1,2.43-1.32"/>
                  <path class="cls-73" d="M130.03,89.75s1.07-1.07,2.68-1.26"/>
                  <path class="cls-73" d="M126.4,95.66s.71-.78,1.8-1.06"/>
                  <path class="cls-60" d="M139.1,111.06c6.13,.14,1.4-14.72-1.28-20.39,0,0,2.35,9.3,1.93,13.91-.4,4.42-2.38,6.11-2.38,6.11l1.73,.37Z"/>
                  <path class="cls-47" d="M134.17,97.19c.17,.22,.12,.54-.1,.71-.22,.17-.54,.12-.71-.1-.17-.22-.12-.54,.1-.71,.22-.17,.54-.12,.71,.1Z"/>
                  <path class="cls-47" d="M139.16,98.71c.17,.22,.12,.54-.1,.71-.22,.17-.54,.12-.71-.1-.17-.22-.12-.54,.1-.71,.22-.17,.54-.12,.71,.1Z"/>
                  <path class="cls-47" d="M134.63,106.18c.17,.22,.12,.54-.1,.71-.22,.17-.54,.12-.71-.1-.17-.22-.12-.54,.1-.71,.22-.17,.54-.12,.71,.1Z"/>
                  <path class="cls-47" d="M132.04,90.74c.17,.22,.12,.54-.1,.71-.22,.17-.54,.12-.71-.1-.17-.22-.12-.54,.1-.71,.22-.17,.54-.12,.71,.1Z"/>
                </g>
                <path class="cls-20" d="M126.59,91.71s-.76,2.77-.1,4.35c.67,1.58,1.84,1.54,2.37,.95,.96-1.08,.12-4.11,.64-5.28,.8-1.79-2.54-2.64-2.91-.02Z"/>
              </g>
              <g>
                <path class="cls-36" d="M167.2,92.74s2.29,.96,3.35,3.8c0,0,1.4,.71,3.57-1.12,0,0-1.13-2.65-.67-4.29,.02-.08,.39-.7,.43-.76,0,0-.87-.18-1.06,.11-.21,.34-.12,.96-.56,1.62-.44,.66-.71-.34-.81-1.11-.08-.59-.34-1.12-.34-1.12l-.62,.15s.52,1.53,.31,2.04c-.21,.51-.96-.57-1.51-1.27-.32-.41-.81,.36-.81,.36,0,0,1.41,1.22,1.21,1.66-.2,.44-1.45-.71-1.45-.71l-1.04,.64Z"/>
                <path class="cls-40" d="M166.02,93.52s.48,.66,1.09,.45c.43-.15,.69-.34,.68-.84-.01-.45-.18-.6-.18-.6,0,0,.57,.26,1.08-.22,.51-.48,.07-1.13,.07-1.13,0,0,1.02-.47,.87-1.26-.13-.65-1.19-.93-1.19-.93,0,0,.69-.58,.17-1.36-.68-1.03-1.75,0-1.75,0,0,0-.46-1.11-1.1-.99-1.25,.23-.93,1.29-.93,1.29,0,0-.42-.53-1.01-.13-.78,.53-.3,1.24,.12,1.65,0,0-1.7-.14-1.56,1.08,.14,1.19,1.32,.9,1.32,.9,0,0-1.66,.91-.47,1.87,.47,.38,1.27-.47,1.27-.47,0,0-.6,1.29,.41,1.53,1.07,.25,1.11-.84,1.11-.84Z"/>
                <path class="cls-40" d="M171.77,89.68s-.35,.83,.12,1.27c.47,.44,.73,.4,1.14,.11,.38-.26,.44-.58,.44-.58,0,0,.05,.82,.73,.99,.68,.17,1.02-.75,1.02-.75,0,0,.95,.6,1.53,.05,.48-.46,.13-1.5,.13-1.5,0,0,.86,.26,1.23-.59,.49-1.13-.95-1.47-.95-1.47,0,0,.69-.85,.24-1.46-.69-.93-1.59-.08-1.59-.08,0,0,.04-.65-.43-.82-.88-.34-1.22,.33-1.33,.9,0,0-.8-1.51-1.75-.73-.93,.76-.04,1.6-.04,1.6,0,0-1.66-.9-1.83,.62-.07,.61,1.09,.81,1.09,.81,0,0-1.41,.2-1.06,1.17,.37,1.04,1.31,.47,1.31,.47Z"/>
                <path class="cls-39" d="M167.45,87.51s-.35,.83,.12,1.27c.47,.44,.73,.4,1.14,.11,.38-.26,.44-.58,.44-.58,0,0,.05,.82,.73,.99,.68,.17,1.02-.75,1.02-.75,0,0,.95,.6,1.53,.05,.48-.46,.13-1.5,.13-1.5,0,0,.86,.26,1.23-.59,.49-1.13-.95-1.47-.95-1.47,0,0,.69-.85,.24-1.46-.69-.93-1.59-.08-1.59-.08,0,0,.04-.65-.43-.82-.88-.34-1.22,.33-1.33,.9,0,0-.8-1.51-1.75-.73-.93,.76-.04,1.6-.04,1.6,0,0-1.66-.9-1.83,.62-.07,.61,1.09,.81,1.09,.81,0,0-1.41,.2-1.06,1.17,.37,1.04,1.31,.47,1.31,.47Z"/>
                <path class="cls-15" d="M166.53,88.49s-.6,.75-.26,1.34c.35,.59,.62,.62,1.13,.45,.46-.15,.62-.46,.62-.46,0,0-.21,1.13,.44,1.5,.65,.37,1.29-.73,1.29-.73,0,0,.79,.9,1.55,.5,.62-.32,.58-1.5,.58-1.5,0,0,.8,.52,1.43-.24,.84-1.01-.53-1.78-.53-1.78,0,0,1.08-.55,.68-1.42-.51-1.12-1.6-.56-1.6-.56,0,0,.23-.65-.19-.97-.8-.61-1.35-.03-1.63,.52,0,0-.37-1.78-1.57-1.27-1.17,.5-.51,1.62-.51,1.62,0,0-1.35-1.23-1.94,.21-.25,.6,.76,1.04,.76,1.04,0,0-1.5-.22-1.43,.88,.07,1.17,1.2,.87,1.2,.87Z"/>
                <path class="cls-37" d="M173.47,91.05s.08,1.8-1.07,3.45c-1.15,1.64-1.85,2.04-1.85,2.04,0,0,1.4,.71,3.57-1.12,0,0-1.13-2.65-.67-4.29"/>
              </g>
              <g>
                <path class="cls-36" d="M175.49,93.27s-.15,2.48-2.49,4.41c0,0-.21,1.56,2.23,3,0,0,2.13-1.94,3.83-2.04,.08,0,.79,.14,.86,.15,0,0-.12-.88-.45-.96-.39-.09-.95,.2-1.71,0-.76-.2,.08-.78,.78-1.13,.53-.27,.94-.69,.94-.69l-.34-.54s-1.27,.99-1.82,.96c-.55-.03,.22-1.1,.7-1.84,.29-.44-.61-.64-.61-.64,0,0-.69,1.74-1.17,1.69-.48-.04,.19-1.6,.19-1.6l-.95-.78Z"/>
                <path class="cls-40" d="M174.36,92.41s-.46,.67-.07,1.18c.28,.36,.55,.54,1.02,.37,.43-.16,.51-.36,.51-.36,0,0-.06,.63,.56,.95,.62,.32,1.09-.31,1.09-.31,0,0,.78,.81,1.47,.41,.57-.33,.49-1.43,.49-1.43,0,0,.77,.46,1.34-.29,.75-.98-.58-1.65-.58-1.65,0,0,.9-.8,.58-1.36-.62-1.1-1.53-.46-1.53-.46,0,0,.36-.57-.21-1-.76-.56-1.27,.13-1.52,.66,0,0-.42-1.66-1.53-1.12-1.08,.52-.41,1.54-.41,1.54,0,0-1.4-1.27-1.92,.17-.21,.57,.86,1.05,.86,1.05,0,0-1.42-.14-1.31,.89,.12,1.1,1.16,.77,1.16,.77Z"/>
                <path class="cls-40" d="M179.88,96.57s-.9-.06-1.16,.53c-.26,.59-.13,.82,.27,1.12,.36,.27,.69,.22,.69,.22,0,0-.76,.32-.69,1.02,.07,.7,1.04,.72,1.04,.72,0,0-.26,1.1,.46,1.46,.59,.3,1.47-.37,1.47-.37,0,0,.03,.9,.97,.97,1.23,.09,1.07-1.38,1.07-1.38,0,0,1.03,.38,1.46-.25,.65-.95-.44-1.53-.44-1.53,0,0,.62-.18,.64-.67,.03-.94-.71-1.04-1.29-.96,0,0,1.16-1.26,.11-1.89-1.03-.62-1.52,.49-1.52,.49,0,0,.31-1.87-1.19-1.52-.59,.14-.41,1.29-.41,1.29,0,0-.65-1.27-1.46-.62-.86,.69-.02,1.39-.02,1.39Z"/>
                <path class="cls-39" d="M180.5,91.79s-.9-.06-1.16,.53c-.26,.59-.13,.82,.27,1.12,.36,.27,.69,.22,.69,.22,0,0-.76,.32-.69,1.02,.07,.7,1.04,.72,1.04,.72,0,0-.26,1.1,.46,1.46,.59,.3,1.47-.37,1.47-.37,0,0,.03,.9,.97,.97,1.23,.09,1.07-1.38,1.07-1.38,0,0,1.03,.38,1.46-.25,.65-.95-.44-1.53-.44-1.53,0,0,.62-.18,.64-.67,.03-.94-.71-1.04-1.29-.96,0,0,1.16-1.26,.11-1.89-1.03-.62-1.52,.49-1.52,.49,0,0,.31-1.87-1.19-1.52-.59,.14-.41,1.29-.41,1.29,0,0-.65-1.27-1.46-.62-.86,.69-.02,1.39-.02,1.39Z"/>
                <path class="cls-15" d="M179.28,91.24s-.9-.33-1.35,.2c-.44,.52-.38,.79-.06,1.22,.29,.39,.64,.43,.64,.43,0,0-1.13,.17-1.27,.9-.14,.73,1.12,.97,1.12,.97,0,0-.59,1.04,.03,1.63,.51,.48,1.61,.06,1.61,.06,0,0-.23,.92,.7,1.27,1.23,.46,1.51-1.09,1.51-1.09,0,0,.87,.84,1.56,.17,.89-.85,0-1.7,0-1.7,0,0,.69,0,.85-.5,.31-.96-.42-1.28-1.03-1.37,0,0,1.56-.94,.68-1.9-.86-.94-1.7,.05-1.7,.05,0,0,.72-1.67-.83-1.77-.65-.04-.73,1.06-.73,1.06,0,0-.29-1.49-1.3-1.07-1.08,.45-.43,1.42-.43,1.42Z"/>
                <path class="cls-37" d="M179.14,98.63s-1.68,.66-3.61,.12c-1.93-.55-2.54-1.07-2.54-1.07,0,0-.21,1.56,2.23,3,0,0,2.13-1.94,3.83-2.04"/>
              </g>
              <g>
                <path class="cls-36" d="M150.78,89.66s1.29,2.12,.47,5.05c0,0,.71,1.4,3.54,1.2,0,0,.65-2.81,1.99-3.86,.07-.05,.72-.33,.8-.37,0,0-.6-.66-.92-.53-.37,.15-.66,.71-1.4,.98-.74,.27-.37-.69,0-1.37,.28-.53,.38-1.11,.38-1.11l-.59-.25s-.48,1.54-.95,1.82c-.47,.29-.44-1.03-.47-1.92-.02-.52-.87-.18-.87-.18,0,0,.42,1.82,0,2.06-.42,.24-.75-1.42-.75-1.42l-1.22-.1Z"/>
                <path class="cls-40" d="M149.37,89.59s0,.82,.62,1.01c.44,.14,.76,.14,1.05-.28,.26-.37,.21-.59,.21-.59,0,0,.31,.55,1,.46,.69-.09,.72-.87,.72-.87,0,0,1.1,.22,1.44-.5,.28-.6-.42-1.45-.42-1.45,0,0,.89-.06,.93-1,.05-1.23-1.41-1.03-1.41-1.03,0,0,.29-1.17-.3-1.45-1.14-.55-1.52,.49-1.52,.49,0,0-.03-.67-.74-.7-.94-.03-.97,.83-.87,1.4,0,0-1.29-1.12-1.9-.05-.59,1.05,.54,1.5,.54,1.5,0,0-1.88-.25-1.49,1.24,.15,.59,1.31,.37,1.31,.37,0,0-1.25,.69-.57,1.47,.72,.83,1.39-.03,1.39-.03Z"/>
                <path class="cls-40" d="M156.28,89.88s-.77,.47-.65,1.1c.12,.63,.35,.75,.86,.76,.46,.02,.7-.21,.7-.21,0,0-.44,.7,.01,1.23,.45,.53,1.27,0,1.27,0,0,0,.41,1.05,1.2,.94,.65-.09,1-1.14,1-1.14,0,0,.54,.72,1.34,.24,1.07-.62,.1-1.74,.1-1.74,0,0,1.06-.27,1.05-1.04,0-1.15-1.24-1.01-1.24-1.01,0,0,.41-.5,.14-.92-.51-.79-1.18-.45-1.61-.06,0,0,.24-1.69-.98-1.62-1.2,.07-.97,1.27-.97,1.27,0,0-.81-1.71-1.84-.58-.41,.45,.4,1.3,.4,1.3,0,0-1.26-.67-1.55,.32-.31,1.06,.78,1.15,.78,1.15Z"/>
                <path class="cls-39" d="M154.07,85.58s-.77,.47-.65,1.1c.12,.63,.35,.75,.86,.76,.46,.02,.7-.21,.7-.21,0,0-.44,.7,.01,1.23,.45,.53,1.27,0,1.27,0,0,0,.41,1.05,1.2,.94,.65-.09,1-1.14,1-1.14,0,0,.54,.72,1.34,.24,1.07-.62,.1-1.74,.1-1.74,0,0,1.06-.27,1.05-1.04,0-1.15-1.24-1.01-1.24-1.01,0,0,.41-.5,.14-.92-.51-.79-1.18-.45-1.61-.06,0,0,.24-1.69-.98-1.62-1.2,.07-.97,1.27-.97,1.27,0,0-.81-1.71-1.84-.58-.41,.45,.4,1.3,.4,1.3,0,0-1.26-.67-1.55,.32-.31,1.06,.78,1.15,.78,1.15Z"/>
                <path class="cls-15" d="M152.75,85.83s-.93,.25-.99,.93c-.07,.68,.14,.87,.65,1.04,.46,.15,.77,0,.77,0,0,0-.83,.79-.53,1.47,.3,.68,1.47,.17,1.47,.17,0,0,.11,1.19,.95,1.32,.69,.1,1.35-.87,1.35-.87,0,0,.33,.89,1.3,.65,1.27-.32,.62-1.75,.62-1.75,0,0,1.19,.19,1.39-.75,.24-1.2-.96-1.4-.96-1.4,0,0,.57-.39,.42-.9-.29-.96-1.07-.81-1.63-.54,0,0,.75-1.66-.52-1.95-1.25-.28-1.37,1.01-1.37,1.01,0,0-.36-1.78-1.69-.98-.55,.34,0,1.29,0,1.29,0,0-1.09-1.06-1.68-.14-.63,.99,.45,1.41,.45,1.41Z"/>
                <path class="cls-37" d="M156.84,91.99s-1,1.5-2.9,2.15c-1.9,.65-2.69,.56-2.69,.56,0,0,.71,1.4,3.54,1.2,0,0,.65-2.81,1.99-3.86"/>
              </g>
              <g>
                <path class="cls-30" d="M176.91,85.02c-1.32-.41-3.24-.67-4.7,1.42-1.77,2.55-3.14,4.84-4.95,6.3-1.81,1.46-5.04,5.88-2.53,10.69,2.51,4.81,8.28,5.07,10.58,4.52,4.4-1.05,6.49-5.37,5.22-11.31-.89-4.18-.58-5.18-.41-6.67,.21-1.82-.51-4.12-3.21-4.96Z"/>
                <g>
                  <path class="cls-53" d="M176.89,100.91c-.77,2.52-3.43,3.93-5.95,3.17-2.52-.77-3.93-3.43-3.17-5.95,.77-2.52,3.43-3.93,5.95-3.17,2.52,.77,3.93,3.43,3.17,5.95Z"/>
                  <path class="cls-58" d="M176.54,97.28c.12,.7,.08,1.44-.14,2.16-.77,2.52-3.43,3.93-5.95,3.17-1.26-.38-2.24-1.24-2.81-2.31,.29,1.73,1.52,3.24,3.31,3.78,2.52,.77,5.18-.65,5.95-3.17,.38-1.26,.22-2.56-.35-3.63Z"/>
                  <path class="cls-16" d="M171.21,97.55c-.44,.34-1.01,.32-1.28-.03-.27-.35-.14-.91,.3-1.25,.44-.34,1.01-.32,1.28,.03,.27,.35,.14,.91-.3,1.25Z"/>
                </g>
                <path class="cls-18" d="M164.3,103.44c2.51,4.81,8.73,5.38,11.03,4.83,4.4-1.05,6.79-5.75,5.52-11.68,0,0-2.22,6.48-5.54,8.08-5.4,2.6-11.09-1.28-11.09-1.28"/>
                <g class="cls-17">
                  <path class="cls-21" d="M169.29,93.62c-.1-.03-.2-.09-.27-.19-.19-.24-.16-.59,.09-.79,1.06-.85,1.93-2.13,2.94-3.62,.25-.36,.5-.73,.76-1.11,.77-1.1,1.79-1.62,3.03-1.55,.31,.02,.54,.28,.53,.59-.02,.31-.28,.54-.59,.53-.85-.05-1.5,.29-2.05,1.07-.26,.37-.51,.74-.75,1.1-1.06,1.56-1.97,2.91-3.16,3.86-.15,.12-.34,.15-.52,.1Z"/>
                </g>
              </g>
              <g>
                <path class="cls-36" d="M154.41,97.47s.54,2.42-1.17,4.93c0,0,.23,1.55,2.97,2.27,0,0,1.51-2.45,3.12-3.02,.08-.03,.79-.09,.87-.09,0,0-.36-.82-.7-.8-.39,.02-.85,.46-1.64,.48-.79,.02-.13-.77,.43-1.3,.44-.41,.72-.93,.72-.93l-.48-.42s-.95,1.3-1.49,1.42c-.54,.12-.09-1.12,.17-1.97,.15-.5-.76-.45-.76-.45,0,0-.18,1.86-.66,1.95-.48,.09-.25-1.59-.25-1.59l-1.12-.48Z"/>
                <path class="cls-40" d="M153.09,96.96s-.26,.77,.26,1.15c.37,.27,.68,.37,1.08,.07,.37-.27,.39-.49,.39-.49,0,0,.12,.62,.8,.76,.69,.14,.96-.59,.96-.59,0,0,.97,.56,1.53-.01,.46-.48,.07-1.51,.07-1.51,0,0,.87,.23,1.2-.65,.45-1.15-1.01-1.43-1.01-1.43,0,0,.64-1.01,.18-1.47-.9-.89-1.59-.02-1.59-.02,0,0,.19-.65-.48-.9-.88-.33-1.19,.47-1.28,1.05,0,0-.87-1.48-1.78-.66-.89,.8,.03,1.6,.03,1.6,0,0-1.7-.83-1.8,.7-.04,.61,1.12,.77,1.12,.77,0,0-1.4,.26-1.01,1.21,.41,1.02,1.33,.42,1.33,.42Z"/>
                <path class="cls-40" d="M159.55,99.44s-.88,.19-.97,.83c-.09,.64,.1,.82,.57,1,.43,.16,.73,.02,.73,.02,0,0-.64,.52-.38,1.17,.26,.65,1.2,.4,1.2,.4,0,0,.06,1.12,.84,1.28,.65,.13,1.31-.76,1.31-.76,0,0,.28,.85,1.2,.66,1.21-.25,.65-1.62,.65-1.62,0,0,1.09,.08,1.33-.65,.36-1.09-.85-1.35-.85-1.35,0,0,.55-.34,.43-.82-.23-.91-.97-.81-1.51-.57,0,0,.77-1.53-.41-1.85-1.16-.32-1.32,.89-1.32,.89,0,0-.22-1.88-1.56-1.14-.53,.29-.04,1.36-.04,1.36,0,0-.98-1.04-1.57-.19-.63,.9,.37,1.34,.37,1.34Z"/>
                <path class="cls-39" d="M158.82,94.66s-.88,.19-.97,.83c-.09,.64,.1,.82,.57,1,.43,.16,.73,.02,.73,.02,0,0-.64,.52-.38,1.17,.26,.65,1.2,.4,1.2,.4,0,0,.06,1.12,.84,1.28,.65,.13,1.31-.76,1.31-.76,0,0,.28,.85,1.2,.66,1.21-.25,.65-1.62,.65-1.62,0,0,1.09,.08,1.33-.65,.36-1.09-.85-1.35-.85-1.35,0,0,.55-.34,.43-.82-.23-.91-.97-.81-1.51-.57,0,0,.77-1.53-.41-1.85-1.16-.32-1.32,.89-1.32,.89,0,0-.22-1.88-1.56-1.14-.53,.29-.04,1.36-.04,1.36,0,0-.98-1.04-1.57-.19-.63,.9,.37,1.34,.37,1.34Z"/>
                <path class="cls-15" d="M157.49,94.48s-.96-.06-1.24,.56c-.28,.63-.15,.87,.28,1.19,.39,.29,.73,.24,.73,.24,0,0-1.04,.48-.97,1.22,.07,.74,1.34,.63,1.34,.63,0,0-.28,1.17,.48,1.55,.62,.32,1.56-.39,1.56-.39,0,0,.03,.95,1.02,1.03,1.31,.1,1.15-1.46,1.15-1.46,0,0,1.07,.57,1.55-.27,.62-1.06-.47-1.63-.47-1.63,0,0,.66-.19,.68-.72,.03-1-.75-1.11-1.37-1.03,0,0,1.24-1.33,.13-2.01-1.09-.67-1.62,.52-1.62,.52,0,0,.23-1.81-1.29-1.47-.63,.14-.41,1.22-.41,1.22,0,0-.69-1.35-1.55-.66-.91,.73-.02,1.48-.02,1.48Z"/>
                <path class="cls-37" d="M159.4,101.62s-1.43,1.1-3.44,1.11c-2.01,0-2.73-.33-2.73-.33,0,0,.23,1.55,2.97,2.27,0,0,1.51-2.45,3.12-3.02"/>
              </g>
              <g>
                <path class="cls-53" d="M139.54,93.48s-6.23,8.91-.44,13.78c7.63,6.42,13.95-4.34,13.95-4.34l-13.5-9.45"/>
                <path class="cls-22" d="M150.77,92.94c3.47,2.97,4.31,7.67,1.89,10.51-2.43,2.84-7.2,2.73-10.67-.23-3.47-2.97-4.31-7.67-1.89-10.51,2.43-2.84,7.2-2.73,10.67,.23Z"/>
                <g>
                  <path class="cls-10" d="M147.87,96.33c1.18,1.01,1.47,2.61,.64,3.57-.83,.97-2.45,.93-3.63-.08-1.18-1.01-1.47-2.61-.64-3.57,.83-.96,2.45-.93,3.63,.08Z"/>
                  <path class="cls-65" d="M144.13,95.37c.12-.1,.11-.28,.02-.57-.09-.29-.53-.87-.91-.6-.35,.25-.26,.57-.02,.86,.22,.25,.67,.53,.91,.32Z"/>
                  <path class="cls-65" d="M143.21,96.76c.07-.14,0-.3-.2-.54-.19-.24-.82-.61-1.07-.22-.23,.36-.03,.63,.31,.8,.3,.15,.82,.24,.96-.05Z"/>
                  <path class="cls-65" d="M143.32,98.28c-.02-.15-.17-.25-.46-.34-.29-.09-1.02-.06-1.01,.41,0,.43,.33,.54,.7,.5,.33-.04,.82-.25,.78-.57Z"/>
                  <path class="cls-65" d="M143.71,99.65c-.1-.12-.28-.12-.57-.03-.29,.08-.89,.5-.63,.89,.24,.36,.57,.28,.85,.04,.26-.21,.55-.65,.35-.9Z"/>
                  <path class="cls-65" d="M144.87,100.79c-.14-.07-.3,0-.54,.18-.24,.19-.63,.8-.25,1.06,.36,.24,.63,.04,.81-.28,.16-.29,.27-.81-.02-.96Z"/>
                  <path class="cls-65" d="M146.44,101.32c-.15-.02-.28,.1-.45,.36-.17,.26-.33,.96,.12,1.08,.42,.11,.61-.17,.67-.54,.05-.33-.02-.86-.34-.9Z"/>
                  <path class="cls-65" d="M147.91,101.2c-.14,.07-.18,.24-.17,.55,.01,.31,.28,.98,.72,.82,.4-.15,.4-.49,.24-.82-.14-.3-.51-.69-.79-.55Z"/>
                  <path class="cls-65" d="M148.98,100.48c-.07,.14,0,.3,.2,.54,.19,.24,.81,.61,1.07,.22,.23-.36,.03-.63-.3-.8-.29-.15-.82-.25-.96,.04Z"/>
                  <path class="cls-65" d="M149.57,98.83c-.03,.15,.08,.29,.33,.47,.25,.18,.94,.39,1.09-.05,.14-.41-.13-.62-.49-.7-.32-.07-.85-.03-.92,.28Z"/>
                  <path class="cls-65" d="M149.62,97.37c.04,.15,.21,.22,.51,.26,.3,.04,1.01-.11,.93-.57-.08-.42-.41-.48-.77-.38-.32,.09-.77,.38-.68,.69Z"/>
                  <path class="cls-65" d="M148.62,96.22c.11,.11,.28,.1,.57,0,.29-.1,.85-.56,.57-.93-.26-.34-.58-.24-.86,.01-.24,.22-.51,.69-.29,.92Z"/>
                  <path class="cls-65" d="M147.32,95.15c.14,.06,.3-.02,.53-.22,.23-.2,.58-.84,.18-1.08-.37-.22-.63,0-.79,.33-.14,.3-.22,.83,.08,.96Z"/>
                  <path class="cls-65" d="M145.6,94.8c.16,0,.27-.14,.39-.42,.13-.28,.18-1-.28-1.05-.43-.05-.57,.26-.58,.63,0,.33,.15,.84,.47,.84Z"/>
                </g>
              </g>
            </g>
            <g>
              <g>
                <g>
                  <path class="cls-42" d="M217.14,73.97c.63-1.64,1.79-3.94,.14-4.71-.97-.45-1.9,.76-2.41,1.82-.25-1.72-.98-5.33-3.19-3.32-.54,.49-.28,1.67-.08,2.32,.06,.21,.77,2.03,.26,1.71-.51-.32-1.54-1.01-2.15-1.1-.98-.15-2,1.08-1.04,2.66,.91,1.5,3.33,2.84,2.05,2.5-1.92-.51-2.7,.23-2.85,.95-.51,2.45,2.86,3.14,2.59,3.15,.31-.02,1.67,1.4-.53,.43-.7-.31-1.63-.38-2.18,.41-1.68,2.42,4.89,4.97,4.3,4.83-1.63-.38-2.63-.2-2.92,.42-.82,1.78,2.72,5.64,7.27,6.64,2.24,.1,3.27-1.13,5.25-2.93,1.07-.98,3.08-3.85,.3-4.31-.61-.1-2.75,.19-3.21,.63,1.02-.97,2.8-.84,3.96-1.68,.68-.49,1.02-1.69,.63-2.43-.34-.65-1.24-.59-1.84-.52-.49,.06-.98,.21-1.47,.34-.23,.06-.46,.11-.69,.16-.54,.1-.24,.04-.01-.18,.72-.67,1.6-1.15,2.35-1.79,.63-.54,.64-1.63,.13-2.26-.7-.87-1.6-.78-2.45-.25-.19,.14-.39,.27-.59,.39-.46,.3-.77,.04-.4-.41,.46-.57,1.16-.97,1.68-1.49,.7-.7,.92-1.5,.53-2.41-.6-1.39-2.24-.41-3.42,.43Z"/>
                  <path class="cls-14" d="M221.81,86.49c-.09-.2-.34-.29-.54-.2-.14,.07-2.92,1.37-4.42,2.87-.06-.96-.16-1.97-.28-3.01,.62-1.31,3.51-2.46,4.6-2.8,.21-.07,.33-.29,.27-.51-.07-.21-.29-.33-.51-.27-.37,.11-3.11,1.01-4.49,2.41-.05-.38-.1-.77-.15-1.16,.02-.03,.04-.05,.05-.08,.93-2.46,4.22-4.96,4.25-4.99,.18-.13,.21-.39,.08-.57-.13-.18-.39-.22-.57-.08-.12,.09-2.68,2.04-4.02,4.3-.04-.26-.08-.52-.12-.78,.06-2.9,3.03-6.23,3.06-6.26,.15-.17,.14-.42-.03-.57-.17-.15-.42-.14-.57,.03-.1,.11-1.94,2.18-2.82,4.59-.15-.89-.31-1.75-.46-2.59,.2-2.59,2.2-5.54,2.22-5.57,.13-.18,.08-.44-.11-.56-.18-.13-.44-.08-.56,.11-.07,.1-1.27,1.88-1.94,3.97-.63-3.23-1.17-5.58-1.23-5.85-.05-.22-.27-.35-.49-.3-.22,.05-.35,.27-.3,.49,.02,.07,.58,2.54,1.25,5.97-1.53-1.67-3.88-3.27-4.02-3.36-.19-.12-.44-.08-.56,.11-.12,.19-.08,.44,.11,.56,.04,.03,4.04,2.73,4.83,4.59,.16,.87,.32,1.79,.48,2.72-1.86-1.42-5.13-2.59-5.3-2.65-.21-.07-.44,.04-.52,.25-.07,.21,.04,.44,.25,.52,1.3,.46,4.76,1.89,5.79,3.19,.13,.79,.25,1.58,.36,2.37-1.95-1.38-5.69-2.04-6.19-2.12-.23-.04-.43,.11-.47,.33-.04,.22,.11,.43,.33,.47,1.5,.25,5.53,1.19,6.5,2.6,.22,1.68,.39,3.32,.49,4.81-1.52-1.21-4.56-2.71-4.97-2.91-.2-.1-.44-.02-.54,.19-.1,.2-.02,.44,.19,.54,1.26,.62,4.69,2.42,5.36,3.33,0,0,.01,0,.02,.01,0,0,0,0,0,0,.06,1.77-.02,3.26-.3,4.27-.06,.22,.07,.44,.28,.5,.02,0,.03,0,.05,.01,.2,.03,.39-.09,.45-.29,.32-1.14,.4-2.82,.32-4.8,.82-1.3,3.63-2.82,4.7-3.32,.2-.09,.29-.34,.2-.54Z"/>
                </g>
                <g>
                  <path class="cls-14" d="M180.8,74.52c0-1.76,.27-4.32-1.55-4.45-1.06-.07-1.5,1.39-1.6,2.56-.85-1.52-2.81-4.63-4.16-1.97-.33,.65,.34,1.66,.75,2.19,.13,.17,1.45,1.63,.85,1.5-.59-.12-1.8-.39-2.4-.26-.97,.21-1.48,1.72-.03,2.86,1.38,1.08,4.12,1.47,2.81,1.61-1.98,.21-2.44,1.18-2.33,1.91,.4,2.47,3.79,1.91,3.54,2.02,.28-.12,2.06,.72-.34,.59-.76-.04-1.66,.22-1.89,1.16-.7,2.86,6.34,2.9,5.74,2.98-1.66,.23-2.53,.75-2.58,1.44-.13,1.95,4.55,4.3,9.16,3.61,2.13-.7,2.66-2.22,3.86-4.61,.65-1.3,1.5-4.7-1.26-4.14-.61,.12-2.5,1.16-2.77,1.74,.61-1.27,2.32-1.79,3.1-2.98,.46-.7,.35-1.94-.28-2.5-.55-.49-1.36-.11-1.9,.17-.44,.23-.84,.55-1.25,.84-.19,.14-.38,.27-.59,.39-.47,.28-.21,.12-.07-.16,.43-.89,1.09-1.65,1.55-2.51,.39-.73,.01-1.75-.68-2.16-.97-.56-1.77-.16-2.38,.64-.13,.2-.27,.39-.41,.58-.32,.44-.7,.31-.52-.24,.23-.7,.74-1.32,1.04-1.99,.4-.9,.33-1.73-.36-2.44-1.06-1.08-2.24,.41-3.04,1.63Z"/>
                  <path class="cls-42" d="M189.63,84.55c-.16-.16-.42-.15-.57,0-.11,.11-2.24,2.32-3.11,4.26-.4-.87-.85-1.78-1.33-2.71,.11-1.44,2.4-3.55,3.3-4.25,.18-.14,.21-.39,.07-.57-.14-.18-.39-.21-.57-.07-.3,.24-2.55,2.05-3.34,3.85-.18-.34-.37-.68-.55-1.03,0-.03,.02-.06,.02-.09-.01-2.63,2.17-6.14,2.2-6.18,.12-.19,.06-.44-.13-.56-.19-.12-.44-.06-.56,.13-.08,.13-1.78,2.86-2.22,5.45-.13-.23-.26-.46-.39-.68-.98-2.73,.61-6.9,.63-6.94,.08-.21-.02-.44-.23-.52-.21-.08-.44,.02-.52,.23-.05,.14-1.04,2.73-1,5.3-.46-.77-.91-1.53-1.35-2.25-.73-2.49,.07-5.96,.08-6,.05-.22-.08-.44-.3-.49-.22-.05-.44,.08-.49,.3-.03,.12-.52,2.21-.4,4.4-1.74-2.79-3.08-4.79-3.24-5.03-.12-.19-.38-.23-.56-.11-.19,.12-.24,.38-.11,.56,.04,.06,1.45,2.17,3.3,5.14-2.02-1.02-4.79-1.67-4.95-1.7-.22-.05-.44,.09-.49,.3-.05,.22,.09,.44,.3,.49,.05,.01,4.74,1.11,6.15,2.57,.46,.76,.94,1.56,1.42,2.37-2.25-.67-5.72-.59-5.89-.58-.22,0-.4,.19-.4,.42,0,.22,.19,.4,.42,.4,1.38-.03,5.12,.07,6.54,.92,.4,.69,.8,1.39,1.18,2.09-2.31-.6-6.04,.13-6.54,.23-.23,.04-.36,.26-.32,.48,.04,.22,.26,.36,.48,.32,1.49-.3,5.59-.86,6.99,.11,.8,1.49,1.55,2.96,2.17,4.32-1.85-.59-5.23-.91-5.68-.95-.22-.02-.42,.14-.44,.37-.02,.22,.14,.42,.37,.44,1.4,.13,5.25,.59,6.2,1.2,0,0,.01,0,.02,0,0,0,0,0,0,0,.69,1.63,1.15,3.05,1.24,4.09,.02,.22,.22,.39,.44,.37,.02,0,.03,0,.05,0,.2-.04,.34-.23,.32-.43-.11-1.18-.64-2.78-1.42-4.6,.3-1.51,2.39-3.93,3.21-4.78,.16-.16,.15-.42,0-.57Z"/>
                </g>
                <g>
                  <path class="cls-14" d="M233.25,77.38c1.4-1.06,3.6-2.41,2.6-3.93-.59-.89-2.02-.35-3,.28,.69-1.6,1.97-5.04-.96-4.5-.71,.13-1.11,1.27-1.28,1.93-.06,.21-.41,2.14-.68,1.59-.26-.54-.78-1.67-1.25-2.07-.75-.64-2.27-.13-2.29,1.71-.02,1.75,1.33,4.17,.43,3.21-1.37-1.44-2.42-1.23-2.93-.69-1.72,1.81,.78,4.17,.54,4.04,.27,.15,.68,2.07-.68,.09-.43-.63-1.18-1.18-2.06-.8-2.7,1.17,1.55,6.8,1.11,6.37-1.19-1.18-2.13-1.56-2.71-1.18-1.63,1.08-.65,6.23,2.69,9.47,1.85,1.26,3.38,.76,6.01,.27,1.42-.27,4.64-1.66,2.53-3.51-.47-.41-2.44-1.28-3.06-1.15,1.38-.29,2.83,.76,4.25,.65,.84-.06,1.76-.9,1.82-1.74,.05-.73-.74-1.15-1.29-1.41-.45-.21-.95-.34-1.42-.48-.23-.07-.45-.14-.67-.23-.51-.2-.23-.09,.08-.16,.97-.19,1.97-.13,2.94-.29,.82-.13,1.4-1.05,1.3-1.86-.14-1.11-.95-1.5-1.95-1.5-.24,.01-.47,.02-.7,.03-.54,.01-.68-.37-.13-.56,.69-.24,1.49-.22,2.21-.38,.96-.23,1.58-.79,1.72-1.77,.22-1.5-1.68-1.53-3.14-1.43Z"/>
                  <path class="cls-42" d="M230.63,90.48c.03-.22-.13-.42-.36-.45-.16-.02-3.21-.37-5.27,.12,.45-.85,.9-1.76,1.35-2.7,1.22-.78,4.28-.24,5.38,.04,.22,.06,.44-.07,.49-.29,.06-.22-.07-.44-.29-.49-.37-.1-3.18-.78-5.09-.32,.16-.35,.32-.71,.48-1.06,.03-.01,.06-.02,.08-.04,2.09-1.61,6.2-2,6.24-2,.22-.02,.39-.22,.37-.44-.02-.22-.22-.39-.44-.37-.15,.01-3.35,.32-5.68,1.55,.1-.24,.21-.48,.31-.72,1.58-2.43,5.85-3.7,5.9-3.72,.22-.06,.34-.29,.28-.5-.06-.21-.29-.34-.5-.28-.15,.04-2.8,.83-4.81,2.42,.34-.83,.66-1.65,.97-2.44,1.53-2.09,4.78-3.56,4.82-3.57,.2-.09,.3-.33,.21-.53-.09-.2-.33-.3-.53-.21-.11,.05-2.07,.93-3.74,2.35,1.16-3.08,1.94-5.36,2.03-5.63,.07-.21-.04-.44-.25-.51-.21-.07-.44,.04-.51,.25-.02,.07-.84,2.47-2.08,5.74-.42-2.23-1.58-4.82-1.65-4.97-.09-.2-.33-.29-.54-.2-.2,.09-.29,.33-.2,.54,.02,.04,2,4.45,1.69,6.44-.32,.83-.67,1.69-1.02,2.57-.83-2.19-3-4.9-3.11-5.04-.14-.17-.4-.2-.57-.06-.17,.14-.2,.4-.06,.57,.86,1.07,3.05,4.12,3.24,5.76-.31,.74-.62,1.48-.94,2.21-.93-2.2-3.77-4.73-4.15-5.06-.17-.16-.42-.13-.57,.04-.15,.17-.13,.42,.04,.57,1.14,1,4.08,3.92,4.16,5.63-.7,1.54-1.41,3.03-2.12,4.35-.66-1.83-2.45-4.71-2.69-5.09-.12-.19-.37-.25-.56-.13-.19,.12-.25,.37-.13,.56,.75,1.19,2.71,4.53,2.81,5.65,0,0,0,.01,0,.02,0,0,0,0,0,0-.88,1.53-1.73,2.76-2.5,3.47-.16,.15-.18,.41-.02,.57,.01,.01,.02,.02,.04,.04,.15,.13,.38,.13,.54-.01,.87-.8,1.82-2.19,2.79-3.92,1.38-.67,4.57-.49,5.75-.35,.22,.03,.42-.13,.45-.36Z"/>
                </g>
                <g>
                  <path class="cls-14" d="M202.08,75.16c-.39-1.71-1.19-4.16,.55-4.68,1.02-.3,1.77,1.03,2.12,2.15,.5-1.67,1.74-5.13,3.64-2.82,.46,.56,.03,1.69-.26,2.3-.09,.2-1.06,1.9-.51,1.65,.55-.25,1.68-.77,2.29-.77,.99,0,1.82,1.36,.64,2.79-1.12,1.35-3.71,2.32-2.4,2.18,1.98-.22,2.64,.62,2.68,1.36,.14,2.49-3.28,2.68-3.02,2.74-.3-.06-1.85,1.14,.46,.5,.73-.2,1.67-.14,2.09,.72,1.31,2.64-5.57,4.2-4.96,4.15,1.67-.13,2.64,.18,2.83,.84,.55,1.88-3.52,5.18-8.16,5.5-2.23-.23-3.07-1.59-4.76-3.67-.91-1.12-2.48-4.26,.33-4.31,.62,0,2.69,.59,3.08,1.1-.87-1.11-2.65-1.24-3.67-2.24-.6-.59-.76-1.82-.27-2.5,.43-.59,1.31-.4,1.89-.24,.48,.13,.94,.35,1.4,.55,.22,.09,.43,.18,.66,.25,.52,.18,.24,.07,.04-.17-.61-.77-1.42-1.37-2.06-2.12-.54-.63-.39-1.71,.2-2.26,.82-.76,1.69-.54,2.46,.11,.17,.16,.34,.32,.52,.47,.41,.36,.76,.15,.46-.35-.38-.63-1-1.13-1.44-1.72-.59-.79-.69-1.62-.17-2.46,.8-1.29,2.27-.08,3.32,.93Z"/>
                  <path class="cls-42" d="M195.64,86.86c.12-.19,.37-.24,.56-.12,.13,.09,2.69,1.79,3.96,3.49,.2-.94,.44-1.93,.71-2.94-.42-1.38-3.11-2.94-4.14-3.44-.2-.1-.29-.34-.19-.54,.1-.2,.34-.29,.54-.19,.35,.17,2.93,1.45,4.09,3.04,.1-.37,.21-.75,.32-1.12-.01-.03-.03-.05-.03-.08-.56-2.57-3.45-5.53-3.48-5.56-.16-.16-.16-.42,0-.57,.16-.16,.42-.16,.57,0,.11,.11,2.36,2.41,3.34,4.84,.08-.25,.15-.5,.23-.75,.36-2.88-2.09-6.61-2.11-6.64-.12-.19-.07-.44,.11-.56,.19-.12,.44-.07,.56,.11,.08,.13,1.6,2.44,2.12,4.96,.28-.86,.56-1.69,.83-2.49,.18-2.59-1.36-5.81-1.38-5.84-.1-.2-.01-.44,.19-.54,.2-.1,.44-.01,.54,.19,.05,.11,.98,2.05,1.34,4.21,1.1-3.1,1.97-5.35,2.08-5.61,.08-.21,.32-.31,.53-.23,.21,.08,.31,.32,.23,.53-.03,.07-.95,2.43-2.11,5.73,1.75-1.43,4.32-2.67,4.46-2.73,.2-.1,.44-.01,.54,.19,.1,.2,.01,.44-.19,.54-.04,.02-4.39,2.11-5.45,3.83-.29,.84-.58,1.72-.88,2.62,2.05-1.13,5.45-1.81,5.63-1.84,.22-.04,.43,.1,.48,.32,.04,.22-.1,.43-.32,.48-1.35,.26-4.99,1.18-6.19,2.31-.24,.76-.48,1.53-.7,2.3,2.13-1.09,5.93-1.18,6.43-1.19,.24-.01,.41,.17,.41,.4,0,.22-.17,.41-.4,.41-1.52,.02-5.65,.37-6.81,1.62-.46,1.63-.87,3.22-1.19,4.69,1.68-.97,4.91-2.02,5.34-2.15,.21-.07,.44,.05,.51,.26,.07,.21-.05,.44-.26,.51-1.34,.43-4.99,1.71-5.79,2.51,0,0-.01,0-.02,.01,0,0,0,0,0,0-.32,1.74-.46,3.23-.33,4.26,.03,.22-.13,.43-.35,.45-.02,0-.03,0-.05,0-.2,0-.38-.15-.4-.35-.15-1.17,.02-2.85,.39-4.79-.62-1.41-3.18-3.32-4.17-3.97-.19-.12-.24-.37-.11-.56Z"/>
                </g>
                <g>
                  <path class="cls-42" d="M197.75,74.82c1.18-1.3,3.09-3.04,1.83-4.34-.74-.77-2.05,.03-2.9,.83,.38-1.7,1.01-5.32-1.78-4.25-.68,.26-.86,1.46-.91,2.13-.02,.22-.01,2.18-.37,1.69-.36-.49-1.08-1.49-1.62-1.8-.86-.49-2.25,.29-1.93,2.11,.31,1.73,2.08,3.85,1.01,3.07-1.61-1.17-2.61-.76-3-.14-1.35,2.1,1.54,3.95,1.28,3.87,.29,.1,1.05,1.91-.65,.21-.54-.54-1.38-.94-2.18-.4-2.44,1.65,2.78,6.4,2.27,6.05-1.39-.94-2.38-1.14-2.88-.66-1.41,1.36,.51,6.24,4.39,8.81,2.05,.9,3.46,.13,5.95-.85,1.35-.53,4.26-2.49,1.83-3.91-.53-.31-2.63-.81-3.22-.56,1.31-.54,2.92,.22,4.3-.15,.81-.22,1.56-1.2,1.47-2.04-.08-.73-.94-.99-1.53-1.14-.48-.12-1-.16-1.49-.21-.24-.03-.47-.06-.7-.1-.54-.1-.24-.05,.05-.17,.91-.37,1.91-.5,2.83-.83,.78-.28,1.18-1.29,.94-2.06-.34-1.06-1.21-1.3-2.19-1.11-.23,.06-.46,.11-.69,.16-.53,.11-.73-.24-.23-.53,.64-.36,1.43-.49,2.1-.79,.9-.4,1.4-1.07,1.36-2.05-.06-1.51-1.94-1.19-3.35-.83Z"/>
                  <path class="cls-14" d="M197.6,88.18c-.02-.22-.21-.39-.43-.38-.16,.01-3.22,.23-5.16,1.09,.29-.92,.56-1.9,.82-2.91,1.05-1,4.16-1.03,5.29-.95,.22,.01,.42-.15,.43-.38,.01-.22-.15-.42-.38-.43-.39-.03-3.27-.18-5.06,.63,.09-.38,.18-.75,.27-1.13,.02-.02,.05-.03,.07-.06,1.75-1.97,5.72-3.11,5.76-3.12,.22-.06,.34-.29,.28-.5-.06-.22-.29-.34-.5-.28-.15,.04-3.24,.93-5.3,2.57,.06-.26,.11-.51,.17-.77,1.1-2.68,5.07-4.72,5.11-4.74,.2-.1,.28-.35,.18-.54-.1-.2-.34-.28-.54-.18-.13,.07-2.6,1.34-4.28,3.27,.18-.88,.35-1.75,.5-2.58,1.12-2.34,4.04-4.38,4.07-4.4,.18-.13,.23-.38,.1-.56-.13-.18-.38-.23-.56-.1-.1,.07-1.86,1.3-3.24,3.01,.57-3.24,.91-5.62,.95-5.9,.03-.22-.12-.43-.34-.46-.22-.03-.43,.12-.46,.34-.01,.07-.37,2.58-.98,6.02-.82-2.11-2.45-4.45-2.54-4.58-.13-.18-.38-.23-.56-.1-.18,.13-.23,.38-.1,.56,.03,.04,2.78,4,2.86,6.02-.16,.87-.34,1.79-.53,2.71-1.22-2-3.86-4.26-3.99-4.38-.17-.14-.43-.13-.57,.04-.15,.17-.13,.43,.04,.57,1.05,.9,3.76,3.48,4.25,5.06-.16,.78-.34,1.57-.52,2.35-1.32-1.99-4.58-3.95-5.01-4.2-.2-.13-.44-.05-.55,.14-.11,.19-.05,.44,.14,.55,1.31,.77,4.74,3.1,5.13,4.76-.4,1.65-.83,3.24-1.28,4.66-.98-1.67-3.28-4.17-3.59-4.5-.15-.16-.41-.17-.57-.02-.16,.15-.17,.41-.02,.57,.96,1.03,3.51,3.95,3.8,5.04,0,0,0,.01,0,.02,0,0,0,0,0,0-.58,1.67-1.19,3.03-1.81,3.87-.13,.18-.1,.43,.08,.57,.01,.01,.03,.02,.04,.03,.18,.1,.4,.06,.52-.11,.71-.95,1.39-2.49,2.02-4.36,1.23-.92,4.4-1.33,5.58-1.41,.22-.02,.39-.21,.38-.43Z"/>
                </g>
              </g>
              <g>
                <g>
                  <path class="cls-74" d="M198.94,78.01s-1.02-2.99-1.02-3.84c0-.85,.79-1.55,1.68-1.57,.89-.01,1.55,.44,1.72,.93,.17,.49-.34,1.92-.13,2.85,.2,.93,.23,1.85,.23,1.85l-2.05,.55-.44-.77Z"/>
                  <path class="cls-67" d="M200.48,78.49l.95-.25s-.03-.92-.23-1.85c-.2-.93,.31-2.36,.13-2.85-.18-.49-.83-.94-1.72-.93,0,0-.18,3.08,.88,5.88"/>
                </g>
                <path class="cls-62" d="M200.34,79.15c-2.01,3.48,.81,16.55,4.37,18.96,3.56,2.4,8.72,.94,9.9-1.15,2.47-4.38,2.82-18.98-4.58-20.59-3.24-.7-7.67-.7-9.69,2.78Z"/>
                <path class="cls-66" d="M198.81,79.68c-2.3,3.29,.16,16.63,3.63,19.18,3.46,2.54,8.67,1.28,9.94-.76,2.65-4.28,2.51-19.08-3.73-20.97-4.09-1.24-7.98-.09-9.83,2.55Z"/>
                <path class="cls-62" d="M200.64,79.06c3.48,2.01,7.54,14.76,5.65,18.62-1.89,3.86-7.09,5.15-9.16,3.93-4.33-2.57-11.9-15.06-6.27-20.13,2.46-2.22,6.31-4.42,9.79-2.41Z"/>
                <path class="cls-66" d="M202.24,78.77c3.64,1.71,8.14,14.51,6.4,18.44-1.74,3.93-6.88,5.43-9,4.29-4.43-2.4-11.82-15.6-7.35-20.34,2.93-3.11,7.02-3.75,9.95-2.38Z"/>
                <path class="cls-55" d="M194.9,81.53c-1.4,4.61,4,18.22,7.65,19.44,3.65,1.22,7-.3,7.71-2.48,1.49-4.55,.38-21.46-6.79-21.3-2.88,.06-7.36,.35-8.57,4.34Z"/>
                <path class="cls-63" d="M197.27,79.6s-1.32,1.16-1.52,2.2c-.19,1.04,.42,1.41,.89,1.28,.86-.23,1.45-2.06,2.11-2.49,1.01-.65-.41-2.21-1.49-.99Z"/>
              </g>
              <g>
                <path class="cls-3" d="M189.02,99.48c1.7,2.9,6.26,9.31,16.81,8.51,13.68-1.04,24.53-7.81,28.64-19.67,1.63-4.71-.2-12.33-1.13-15.61-.28-.99-.95-.91-1.19-.57-10.49,14.61-35.49,23.28-42.15,25.38-.09,.03-.18,.06-.27,.08,0,0-1.3,.87-.71,1.88Z"/>
                <g>
                  <path class="cls-64" d="M197.96,95.7c-.29,.15-.35,.52-.31,1.15,.04,.63,.65,2.01,1.55,1.65,.83-.33,.8-1.03,.44-1.72-.32-.61-1.09-1.4-1.68-1.08Z"/>
                  <path class="cls-64" d="M195.65,96.91c-.31,.09-.45,.43-.55,1.06-.1,.63,.21,2.1,1.16,1.94,.88-.15,1-.84,.8-1.59-.18-.66-.77-1.6-1.41-1.42Z"/>
                  <path class="cls-64" d="M193,97.83c-.32,.02-.53,.32-.76,.92-.23,.59-.25,2.1,.71,2.15,.89,.05,1.16-.6,1.12-1.38-.03-.69-.41-1.73-1.08-1.69Z"/>
                  <path class="cls-64" d="M201.01,94.4c-.29,.15-.35,.52-.31,1.15,.04,.63,.65,2.01,1.55,1.65,.83-.33,.8-1.03,.44-1.72-.32-.61-1.09-1.4-1.68-1.08Z"/>
                  <path class="cls-64" d="M203.72,93.47c-.29,.15-.35,.52-.31,1.15,.04,.63,.65,2.01,1.55,1.65,.83-.33,.8-1.03,.44-1.72-.32-.61-1.1-1.4-1.68-1.08Z"/>
                  <path class="cls-64" d="M209.1,90.82c-.29,.15-.35,.52-.31,1.15,.04,.63,.65,2.01,1.55,1.65,.83-.33,.8-1.03,.44-1.72-.32-.61-1.1-1.4-1.68-1.08Z"/>
                  <path class="cls-64" d="M211.86,89.25c-.29,.15-.35,.52-.31,1.15,.04,.63,.65,2.01,1.55,1.65,.83-.33,.8-1.03,.44-1.72-.32-.61-1.09-1.4-1.68-1.08Z"/>
                  <path class="cls-64" d="M217.13,86.42c-.24,.22-.21,.59,0,1.19,.2,.6,1.14,1.78,1.92,1.21,.72-.53,.51-1.2,0-1.78-.46-.51-1.41-1.08-1.9-.62Z"/>
                  <path class="cls-64" d="M219.24,84.78c-.24,.22-.21,.59,0,1.19,.2,.6,1.14,1.78,1.92,1.21,.72-.53,.51-1.2,0-1.78-.46-.51-1.41-1.08-1.9-.62Z"/>
                  <path class="cls-64" d="M221.91,83.24c-.24,.22-.21,.59,0,1.19,.2,.6,1.14,1.78,1.92,1.21,.72-.53,.51-1.2,0-1.78-.46-.51-1.41-1.08-1.9-.62Z"/>
                  <path class="cls-64" d="M224.07,81.49c-.24,.22-.21,.59,0,1.19,.2,.6,1.14,1.78,1.92,1.21,.72-.53,.51-1.2,0-1.78-.46-.51-1.41-1.08-1.9-.62Z"/>
                  <path class="cls-64" d="M226.77,79.46c-.24,.22-.21,.59,0,1.19,.2,.6,1.14,1.78,1.92,1.21,.72-.53,.51-1.2,0-1.78-.46-.51-1.41-1.08-1.9-.62Z"/>
                  <path class="cls-64" d="M228.75,77.49c-.19,.26-.09,.62,.22,1.17,.31,.55,1.46,1.53,2.11,.82,.61-.66,.28-1.28-.34-1.74-.55-.41-1.59-.79-1.99-.25Z"/>
                  <path class="cls-64" d="M214.63,88.15c-.24,.22-.21,.59,0,1.19,.2,.6,1.14,1.78,1.92,1.21,.72-.53,.51-1.2,0-1.78-.46-.51-1.41-1.08-1.9-.62Z"/>
                  <path class="cls-64" d="M206.23,92.14c-.29,.16-.35,.52-.31,1.15,.04,.63,.65,2.01,1.55,1.65,.83-.33,.8-1.03,.44-1.72-.32-.61-1.1-1.4-1.68-1.08Z"/>
                </g>
                <path class="cls-24" d="M204.05,109.06c-6.93,0-12.4-3.11-15.89-9.07-.28-.47-.12-1.09,.36-1.36,.47-.28,1.09-.12,1.36,.36,3.39,5.78,8.88,8.55,15.87,8.02,13.83-1.05,23.96-7.98,27.78-19.01,1.52-4.4,1.03-11.58-1.06-15.38-.26-.48-.09-1.09,.39-1.35,.48-.26,1.09-.09,1.35,.39,2.35,4.29,2.9,12.07,1.19,16.99-4.09,11.81-14.85,19.23-29.51,20.34-.63,.05-1.24,.07-1.85,.07Z"/>
              </g>
              <g>
                <path class="cls-4" d="M221.4,80.77s-3.45-1.3-7.68,3.08c-4.04,4.19-3.04,7.07-1.76,9.05,1.71,2.66,7.57,4.71,10.76-.81,2.55-4.41,2.38-10.18-1.32-11.32Z"/>
                <path class="cls-12" d="M224.37,87.2c-.19,1.63-.75,3.35-1.65,4.9-3.18,5.52-9.05,3.47-10.76,.81,0,0,4.61,1.79,9.28-2.53,3.27-3.03,3.12-3.18,3.12-3.18"/>
                <g>
                  <circle class="cls-41" cx="217.22" cy="89.48" r="3.75" transform="translate(78.75 279.26) rotate(-76.27)"/>
                  <path class="cls-76" d="M217.22,91.3c-1.74,0-3.19-1.18-3.62-2.78-.08,.31-.13,.63-.13,.96,0,2.07,1.68,3.75,3.75,3.75s3.75-1.68,3.75-3.75c0-.33-.05-.66-.13-.96-.43,1.6-1.88,2.78-3.62,2.78Z"/>
                </g>
              </g>
              <g>
                <path class="cls-62" d="M222.07,93.05s-1.91-4.98,1.75-7.3c3.66-2.32,9.83,.51,10.18,3.4,.35,2.89-2.09,6.5-3.97,8.25-1.88,1.75-3.62,3.27-5.45,1.03-1.48-1.81-2.51-5.39-2.51-5.39Z"/>
                <path class="cls-9" d="M224.69,86.41c.55,.08,1.65,.14,2.34-.56,0,0-.31,1.32,.72,1.78,1.03,.46,1.37-1.57,1.37-1.57,0,0-.22,1.16,.75,1.54,.98,.38,1.04-1.24,1.04-1.24,0,0,1.2,1.54,1.72,.6,.38-.69-.36-1.18-1.68-1.59,0,0,1.24-.65,.92-1.41-.41-.96-1.8-.57-2.33,.48h0s.8-1.94-.39-2.36c-.81-.29-.9,1.84-.9,1.84,0,0-.25-2.5-1.52-1.67-.91,.6,.65,2.3,.65,2.3,0,0-1.75-1.71-2.39-.78-.75,1.08,1.19,1.35,1.19,1.35,0,0-1.85-.38-1.87,.91,0,.09,.16,.34,.37,.38Z"/>
                <path class="cls-24" d="M224.63,88.29c.03-.12-.05-.23-.24-.38-.19-.15-.72-.33-.85,0-.12,.31,.08,.48,.36,.56,.25,.07,.67,.05,.73-.19Z"/>
                <path class="cls-24" d="M224.27,91.53c-.1-.07-.23-.04-.44,.07-.21,.11-.59,.53-.33,.78,.24,.23,.48,.12,.66-.11,.16-.2,.31-.59,.11-.74Z"/>
                <path class="cls-24" d="M230.09,94.76c-.1-.07-.23-.02-.44,.1-.2,.13-.55,.58-.27,.81,.26,.21,.49,.08,.65-.16,.14-.21,.27-.61,.06-.75Z"/>
                <path class="cls-24" d="M226.27,97.95c.06,.1,.2,.12,.44,.09,.24-.03,.74-.29,.58-.62-.14-.3-.41-.28-.66-.12-.22,.13-.5,.44-.37,.66Z"/>
                <path class="cls-24" d="M229.98,93.03c.06,.1,.2,.12,.44,.09,.24-.03,.74-.29,.58-.62-.15-.3-.41-.28-.66-.12-.22,.13-.5,.44-.37,.66Z"/>
                <path class="cls-24" d="M231.75,89.34c.06,.1,.2,.12,.44,.09,.24-.03,.74-.29,.58-.62-.14-.3-.41-.28-.66-.12-.22,.13-.5,.44-.37,.66Z"/>
                <path class="cls-24" d="M227.57,88.95c-.04,.11,.03,.23,.19,.4,.17,.17,.68,.42,.85,.1,.16-.3-.02-.49-.29-.6-.24-.1-.65-.13-.75,.1Z"/>
                <path class="cls-24" d="M226.67,91.88c-.1,.07-.1,.21-.05,.44,.05,.23,.35,.71,.67,.53,.29-.17,.24-.43,.07-.66-.15-.21-.49-.46-.69-.31Z"/>
                <path class="cls-24" d="M225.45,94.12c-.1,.07-.1,.21-.05,.44,.05,.23,.35,.71,.67,.53,.29-.17,.24-.43,.07-.66-.15-.21-.49-.46-.69-.31Z"/>
                <path class="cls-20" d="M222.46,90.71c-.41-.69-.32-1.49,0-2.25,.39-.93,.95-1.27,1.5-1.21,.55,.06,.39,.56,.17,1.46-.22,.89,0,1.63-.12,2.02-.12,.39-1.05,.8-1.54-.01Z"/>
                <path class="cls-50" d="M224.58,98.44c1.84,2.24,3.57,.72,5.45-1.03,1.88-1.75,4.32-5.36,3.97-8.25,0,0-1.96,5.34-4.89,7.69-3,2.41-4.54,1.6-4.54,1.6Z"/>
              </g>
              <g>
                <path class="cls-62" d="M187.12,92.64s1.91-4.98-1.75-7.3c-3.66-2.32-9.83,.51-10.18,3.4-.35,2.89,2.09,6.5,3.97,8.25,1.88,1.75,3.62,3.27,5.45,1.03,1.48-1.81,2.51-5.39,2.51-5.39Z"/>
                <path class="cls-9" d="M184.51,86c-.55,.08-1.65,.14-2.34-.56,0,0,.31,1.32-.72,1.78-1.03,.46-1.37-1.57-1.37-1.57,0,0,.22,1.16-.75,1.54-.98,.38-1.04-1.23-1.04-1.23,0,0-1.2,1.54-1.72,.6-.38-.69,.36-1.18,1.68-1.59,0,0-1.24-.65-.92-1.41,.41-.96,1.81-.57,2.33,.48h0s-.8-1.94,.39-2.36c.81-.29,.9,1.84,.9,1.84,0,0,.25-2.5,1.52-1.67,.91,.6-.65,2.3-.65,2.3,0,0,1.75-1.71,2.39-.78,.75,1.08-1.19,1.35-1.19,1.35,0,0,1.85-.38,1.87,.91,0,.09-.16,.34-.37,.38Z"/>
                <path class="cls-24" d="M184.57,87.88c-.03-.12,.05-.23,.24-.38,.19-.15,.72-.33,.85,0,.12,.31-.08,.48-.36,.56-.25,.07-.67,.05-.73-.19Z"/>
                <path class="cls-24" d="M184.92,91.12c.1-.07,.23-.04,.44,.07,.21,.11,.59,.53,.33,.78-.24,.23-.48,.12-.66-.11-.16-.2-.31-.59-.11-.74Z"/>
                <path class="cls-24" d="M179.11,94.35c.1-.07,.23-.02,.44,.1,.2,.13,.55,.58,.27,.81-.26,.21-.49,.08-.65-.16-.14-.21-.27-.61-.06-.75Z"/>
                <path class="cls-24" d="M182.92,97.54c-.06,.1-.2,.12-.44,.09-.24-.03-.74-.29-.58-.62,.14-.3,.41-.28,.66-.12,.22,.13,.5,.44,.37,.66Z"/>
                <path class="cls-24" d="M179.21,92.62c-.06,.1-.2,.12-.44,.09-.24-.03-.74-.29-.58-.62,.15-.3,.41-.28,.66-.12,.22,.13,.5,.44,.37,.66Z"/>
                <path class="cls-24" d="M177.44,88.92c-.06,.1-.2,.12-.44,.09-.24-.03-.74-.29-.58-.62,.14-.3,.41-.28,.66-.12,.22,.13,.5,.44,.37,.66Z"/>
                <path class="cls-24" d="M181.63,88.54c.04,.11-.03,.23-.19,.4-.17,.17-.68,.42-.85,.1-.16-.3,.02-.49,.29-.6,.24-.1,.65-.13,.75,.1Z"/>
                <path class="cls-24" d="M182.52,91.47c.1,.07,.1,.21,.05,.44-.05,.23-.35,.71-.67,.53-.29-.17-.24-.43-.07-.66,.15-.21,.49-.46,.69-.31Z"/>
                <path class="cls-24" d="M183.75,93.71c.1,.07,.1,.21,.05,.44-.05,.23-.35,.71-.67,.53-.29-.17-.24-.43-.07-.66,.15-.21,.49-.46,.69-.31Z"/>
                <path class="cls-20" d="M186.73,90.3c.41-.69,.32-1.49,0-2.25-.39-.93-.95-1.27-1.5-1.21-.55,.06-.39,.56-.17,1.46,.22,.89,0,1.63,.12,2.02,.12,.39,1.05,.8,1.54-.01Z"/>
                <path class="cls-50" d="M184.61,98.03c-1.84,2.24-3.57,.72-5.45-1.03-1.88-1.75-4.32-5.36-3.97-8.25,0,0,1.96,5.34,4.89,7.69,3,2.41,4.54,1.6,4.54,1.6Z"/>
              </g>
            </g>
            <path class="cls-34" d="M232.48,93.1s-16.43,63.45-17.69,79.88c0,0-42.26,12.39-68.3,0,0,0-11.64-58.01-20.17-74.7,0,0,54.03,18.77,106.17-5.18Z"/>
            <path class="cls-32" d="M196.15,176.71c2.23-.33,4.31-.68,6.24-1.03,0,0,10.1-60.49,12.61-70.38,.51-2.01,.9-4.03,1.24-6.06-5.92,1.79-11.79,3.13-17.53,4.07-.57,13.43-1.26,62.44-2.56,73.41Z"/>
            <path class="cls-31" d="M145.92,106.53c-9.79-1.81-15.82-4.01-15.82-4.01,7.37,15.19,17.81,68.03,17.81,68.03,4.2,2.1,14.12,5.09,21.07,5.09-2.38-11.62-20.68-58.09-23.06-69.1Z"/>
            <path class="cls-33" d="M181.76,115.9c9.41-.9,19.78-3.49,28.84-6.18,6.66-1.98,13.11-4.44,19.47-7.14,1.46-5.8,2.41-9.48,2.41-9.48-52.14,23.95-106.17,5.18-106.17,5.18,1.56,3.05,3.13,7.48,4.65,12.68,15.93,5.39,34.63,6.48,50.79,4.94Z"/>
            <path class="cls-34" d="M237.53,87.79l-2.59,10.59s-33.94,10.81-51.28,11.85c-17.35,1.04-42.47,1.23-60.86-9.86l-2.05-9.48s36.47,14.84,60.03,11.63c29.86-4.07,56.21-14.12,56.75-14.73Z"/>
            <path class="cls-35" d="M208.36,123.3c-.02-1.01-.97-1.78-1.96-1.6-1.08,.19-2.04,.66-2.78,1.61-1.26,1.61-.97,3.43,1.42,3.18,2.8-.29,3.35-1.9,3.33-3.19Z"/>
          </g>
          <g id="girl_2" data-name="girl 2">
            <path class="cls-72" d="M65.03,110.16c.1-.28,1.25-3.27,5.95-2.01,0,0-2.37-.42-3.07,.46,0,0,1.94-.77,3.08,.02,1.15,.79,1.22,3.24,1,3.97-.22,.73-1.64,2.88-2.5,2.83-.33-.02-.67-.14-.98-.3,.11,.4,.21,.83,.29,1.31,.7,4.38-2.35,7.52-3.8,6.63-.93-.57-1.74,1.06-1.74,1.06l-8.65-11.34s1.35-4.95,10.42-2.63Z"/>
            <path class="cls-56" d="M52.44,132.38s-5.4,4.65-5.87,4.49c-6.64-2.29-13.12-7.8-13.12-7.8l-1.17,2.21s10.45,11.92,13.94,11.88c6.89-.08,13.14-6.22,14.45-7.05,1.31-.83-4.42-2.89-8.23-3.73Z"/>
            <path class="cls-56" d="M33.45,129.07s-.92-1.8-1.85-1.85c-.92-.05-.75,1.13-3.06,.93-.55-.05-1.41-.25-.95,.7,.46,.95,1.91,2.19,2.83,1.98,.92-.21,2.09,.47,2.09,.47l.92-2.21Z"/>
            <path class="cls-68" d="M54.26,136.29c1.17,.81,2.65,1.49,4.49,1.91,6.93,1.6,9.58-4.25,10.58-8.27-.94-.54-1.83-.66-2.35-.72-.5-.06-1.03-.1-1.46-.12-.78-.6-1.94-3.03-2.19-6.82l-.33,.09-5.46,1.49s.25,1.74,.37,3.38c.09,1.28,.11,2.51-.13,2.81-.43,.09-.68,.15-.68,.15,0,0,0,0,0,0-.07,.12-1.66,2.73-2.84,6.1Z"/>
            <path class="cls-56" d="M57.54,123.85s.25,1.73,.37,3.38c3.09-.31,4.53-3.25,5.09-4.87l-5.46,1.49Z"/>
            <path class="cls-68" d="M56.62,125.48s7.34-.41,7.02-4.97c-.32-4.57,.41-7.7-4.29-7.63-4.7,.07-5.49,1.87-5.75,3.42-.26,1.55,1.11,9.17,3.03,9.18Z"/>
            <path class="cls-72" d="M53.63,113.74c1.04-1.46,1.91-1.22,2.42-.84,3.85-2.49,6.67,.58,6.67,.58,.73,3.24,3.22,4.95,3.22,4.95,0,0-1.28,.92-4.42,.35-.96-.17-1.85-.78-2.62-1.54,1.4,2,3.2,3.39,3.2,3.39-3.8-1.44-5.65-6.45-5.83-6.98-.42,.43-1.24,1.37-1.45,2.25-.28,1.19-1.5,3.05-2.2,3.02,0,0-.55-2.99,1-5.17Z"/>
            <path class="cls-52" d="M71.42,151.22c.66-3.39,2.83-16.93,.66-21.29-.78-1.57-3.82-1.71-7.17-1.57-1.04,.67-5,3.21-6.63,2.89-.02,0-.05-.01-.09-.02-.77-.19-1.06-.73-.42-1.19,0,0-1.66-.16-3.71,.23-1.16,.22-3.73,3.22-3.73,3.22,0,0,1.19,2.75,3.34,2.46-.4,3.54,.19,5.1,3.86,13.27,3.1,6.91-.42,13.13-.42,13.13,0,0,18.26,14.68,18.36,7.21,.08-5.63-4.91-13.99-4.06-18.32Z"/>
            <path class="cls-72" d="M56.22,178.29c-.99-.11-1.89-.66-2.44-1.49-.09-.13-.18-.27-.28-.43-2.08-3.15-2.89-12.78-7.56-23.04-1.14-2.5-5.23-2.95-6.34-5.77,0,0-2.74-9.16,5.25-9.43,7.99-.27,21.41,25.48,21.62,28.18,.21,2.62,5.28,13.73-10.24,11.98Z"/>
            <path class="cls-48" d="M24.45,178.08h11.38s.43-1.81-.32-3.05c-.66-1.09-.41-1.71,.08-2.62-.52,.21-1.18,.4-1.92,.36-.57-.03-1.17-.29-1.69-.6-.49,.56-2.59,2.93-3.24,3.41-.74,.53-4.06,.34-4.29,2.5Z"/>
            <path class="cls-48" d="M70.23,133.48s1.48,13.47-8.12,16.29c-9.6,2.82-12.33-12.4-4.58-13.49,7.75-1.09,12.7-2.8,12.7-2.8Z"/>
            <path class="cls-72" d="M39.33,140.78c-.69,5.14-3.36,21.35-8.08,29.25-1.52,2.55,3.83,3.98,3.86,3.97,.72-.19,1.91-1.33,2.47-1.83,3.83-3.45,11.61-13.23,11.61-21.07,0-3.82,.07-11.12-2.71-12.98-1.71-1.14-6.87,.61-7.15,2.65Z"/>
            <path class="cls-75" d="M63,178.08s-.42-.59-1.16-1.7c-.87-1.33-1.84-3.93-3.02-7.28-1.23-3.51-2.7-7.83-4.53-12.32-.56-1.39-1.16-2.79-1.8-4.19-1.14-2.5-4.27-2.15-5.39-4.98,0,0-4.35-9.79,3.64-10.06,7.99-.27,23.18,26.2,24.05,28.76,.96,2.81,5.62,14.46-11.81,11.77Z"/>
            <path class="cls-52" d="M32.8,178.08h11.38s.43-1.81-.32-3.05c-.66-1.09-.41-1.71,.08-2.62-.52,.21-1.18,.4-1.92,.36-.57-.03-1.17-.29-1.69-.6-.49,.56-2.59,2.93-3.24,3.41-.74,.53-4.06,.34-4.29,2.5Z"/>
            <path class="cls-57" d="M58.83,169.01c-1.23-3.51-2.7-7.83-4.53-12.32,.48-3.4,1.51-6.38,3.24-7.58,0,0,4.2,13.02,1.29,19.9Z"/>
            <path class="cls-75" d="M45.98,140.42c-.69,5.14-1.65,21.71-6.37,29.62-1.52,2.55,3.83,3.98,3.86,3.97,.72-.19,1.91-1.33,2.47-1.83,3.83-3.45,11.61-13.23,11.61-21.07,0-3.82-4.49-10.81-7.26-12.67-1.71-1.14-4.03-.06-4.3,1.98Z"/>
            <path class="cls-68" d="M69.33,129.93s-16.15,5.95-18.57,5.82c-1.57-.08-14.6-4.66-14.6-4.66l-1.17,2.21s12.69,8.15,16.17,8.11c6.89-.08,18.51-4.31,19.82-5.14,1.31-.83,2.17-5.51-1.64-6.35Z"/>
            <path class="cls-4" d="M55.24,122.85s.69-.27,2.65-.12c0,0-.1,.76-1.54,.84-.82,.04-1.1-.72-1.1-.72Z"/>
            <path class="cls-52" d="M61.01,132.86s1.44,4.57,6.4,5.61c0,0,8.19-2.52,4.11-8.1,0,0-4.03-3-10.52,2.49Z"/>
            <g>
              <rect class="cls-1" x="22.33" y="125.26" width="16.93" height=".52" transform="translate(-97.8 138.37) rotate(-81.92)"/>
              <polygon class="cls-19" points="35.34 124.26 34.8 134.88 28.12 134.88 27.38 124.26 35.34 124.26"/>
              <polygon class="cls-19" points="35.34 124.26 34.8 134.88 29.64 134.88 28.91 124.26 35.34 124.26"/>
              <path class="cls-19" d="M35.29,124h-7.86c0-2,1.49-3.65,3.42-3.9,0,0,0,0,0,.01,.09,.19,.28,.32,.5,.32s.42-.14,.51-.34c1.93,.25,3.42,1.9,3.42,3.9Z"/>
              <path class="cls-19" d="M35.29,124h-6.42c0-1.66,.8-3.12,1.99-3.88,.09,.19,.28,.32,.5,.32s.42-.14,.51-.34c1.93,.25,3.42,1.9,3.42,3.9Z"/>
              <rect class="cls-23" x="27.2" y="124" width="8.33" height=".35" rx=".14" ry=".14"/>
              <path class="cls-23" d="M28.04,128.39l.48,5.95h5.86l.42-6.68s-1.89-.7-3.38,.36c-1.2,.84-3.38,.37-3.38,.37Z"/>
              <g>
                <circle class="cls-28" cx="29.12" cy="133.5" r=".4"/>
                <circle class="cls-28" cx="30.01" cy="132.54" r=".4"/>
                <circle class="cls-28" cx="28.98" cy="131.97" r=".4"/>
                <circle class="cls-28" cx="31.99" cy="131.97" r=".4"/>
                <path class="cls-28" d="M33.5,132.15c0-.22,.18-.4,.4-.4s.4,.18,.4,.4-.18,.4-.4,.4-.4-.18-.4-.4Z"/>
                <path class="cls-28" d="M29.93,133.68c0-.22,.18-.4,.4-.4s.4,.18,.4,.4-.18,.4-.4,.4-.4-.18-.4-.4Z"/>
                <circle class="cls-28" cx="31.24" cy="132.84" r=".4"/>
                <path class="cls-28" d="M31.64,133.68c0-.22,.18-.4,.4-.4s.4,.18,.4,.4-.18,.4-.4,.4-.4-.18-.4-.4Z"/>
                <circle class="cls-28" cx="32.89" cy="132.76" r=".4"/>
                <circle class="cls-28" cx="33.65" cy="133.68" r=".4"/>
              </g>
            </g>
            <path class="cls-68" d="M36.16,131.09s-1.17-1.8-2.34-1.85c-1.17-.05-.95,1.13-3.87,.93-.7-.05-1.79-.25-1.2,.7,.58,.95,2.42,2.19,3.59,1.98,1.17-.21,2.65,.47,2.65,.47l1.17-2.21Z"/>
            <path class="cls-68" d="M34.14,129.29s-1.85-.85-2.38-1.01c-.53-.16-.42,0-.26,.5,.16,.5,1.11,.98,1.11,1.14s1.54-.63,1.54-.63Z"/>
          </g>
          <g>
            <g>
              <path class="cls-68" d="M169.65,88.16l-.95-1.14s-.75-2.7-3.76-2.19c0,0-1.23,.3-.73,1.07,.5,.77,.42,.4,1.09,1.5,.68,1.1,1.8,1.78,2.72,1.62l1.04,.24,.58-1.09Z"/>
              <path class="cls-43" d="M168.16,87.91c.63-.86,.81-.9,.81-.9,0,0,9.33,4.31,10.18,4.77,2.23,1.22,14.96,.6,14.96,.6l1.76,7.2s-15.86-1.14-18.85-2.76c-3.55-1.92-9.42-7.51-9.42-7.51,0,0,.05-.72,.55-1.4Z"/>
            </g>
            <path class="cls-68" d="M201.07,91.01s-2.8,3.32-6.36,1.93c0,0-.77-1.85-.78-3.22,0-.17,0-.33,0-.49-.02-1.54-.07-2.4-.07-2.4,0,0,0,0,0,0,.16-.07,5.45-2.24,5.44-2.06-.09,4.16,1.77,6.24,1.77,6.24Z"/>
            <path class="cls-59" d="M198.77,85.76c-.51,.94-2.26,2.79-4.85,3.47-.02-1.54-.07-2.4-.07-2.4,0,0,0,0,0,0,.15-.04,5.06-1.34,4.91-1.06Z"/>
            <path class="cls-68" d="M192.75,86.67s5.94,1.4,6.76-2.32c.81-3.71,2.13-6.04-1.63-7.09-3.76-1.05-4.81,.21-5.38,1.38-.57,1.17-1.27,7.56,.26,8.02Z"/>
            <path class="cls-49" d="M199.3,85.36c.08,.05,1.36,.44,3.78-4.38,.38-.76,.64-2.4-.25-3.84-.89-1.45-4.03-2.59-6.64-3.08-2.61-.5-3.24,.97-3.85,2.45-.65,1.55-2.51,2.83-2.51,2.83,2.25,1.26,4.96-.54,5.9-.25,.94,.3,1.27,1.78,1.34,2.25,.07,.47,.18,.87,1.36,.45,1.18-.42,.53,1.67,.34,2.08,0,0-.16,1.07,.52,1.5Z"/>
            <g>
              <path class="cls-54" d="M214.61,178.01h3.6c.75,0,1.59-.76,1.8-2.14,.21-1.38,1.76-2.14,2.1-3.27,.34-1.13-1.38-2.73-1.38-2.73l-.29-.37-.3-.39-2.85,.67s-.07,.68-.11,1.54c-.03,.62-.05,1.35-.01,1.98,.08,1.51-.42,3.14-1.76,3.43-1.34,.29-.79,1.27-.79,1.27Z"/>
              <path class="cls-54" d="M189.56,178.01h9.54c.09-.02,.16-.04,.2-.06,.64-.32,.44-2.76,.36-3.51-.01-.14-.03-.22-.03-.22,0,0-3.35-2.68-3.82-.63-.01,.06-.03,.13-.05,.19h0c-.58,1.92-3.19,2.8-4.69,3.04-1.15,.19-1.45,.86-1.52,1.19Z"/>
              <path class="cls-75" d="M191.48,122.99s.51,6.36,1.11,14c.81,10.38,1.79,23.13,1.89,25.54,.17,4.19,.84,10.9,.84,10.9,0,0,1.59,1.59,4.78,.92,0,0,2.84-9.58,3.65-19.71,.01-.17,.03-.33,.04-.5,.75-10.32,1.93-32.04,1.93-32.04l-14.24,.88Z"/>
              <path class="cls-72" d="M191.48,122.99s.51,6.36,1.11,14l11.16,17.66c.01-.17,.03-.33,.04-.5,.75-10.32,1.93-32.04,1.93-32.04l-14.24,.88Z"/>
              <path class="cls-75" d="M193.8,123.75s9.18,23.02,15.22,33.84c6.04,10.82,7.93,13.84,7.93,13.84,0,0,3.46-1.38,3.77-2.33,0,0-2.31-20.89-6.35-25.98-2.28-2.88-4.97-11.51-5.09-14.53-.13-3.02-.82-8.99-.82-8.99l-14.66,4.15Z"/>
            </g>
            <path class="cls-1" d="M189.54,104.72c.04,1.97,.15,4.18,.3,6.43,0,.13,.02,.27,.03,.4,.1,1.39,.21,2.79,.33,4.15,.05,.55,.1,1.08,.16,1.61v.07c.01,.2,.04,.41,.06,.61,.5,5.1,1.03,9.12,1.12,9.19,.12,.08,.25,.12,.39,.1,1.34-.17,5.33,.14,8.59-.58,2.76-.58,5.13-1.68,7.64-3.17,.33-.2,1.09-.72,1.03-1.11-.06-.43-.17-1.05-.32-1.83-.5-2.71-1.35-7.38-1.64-12.83-.06-1.02-.14-2.02-.25-3.01-.28-2.57-.73-5.01-1.33-7.18-1.12-4.03-3.37-7.04-5.44-8.25-.27-.15-1.13,.47-2.47,1.33-1.23,.79-2.4,.84-3.65,.38l-1.22,1.97c-1.34,1.56-2.77,3.64-3.16,6.59-.03,.22-.05,.45-.08,.7-.11,1.2-.13,2.73-.1,4.43Z"/>
            <path class="cls-43" d="M189.54,104.72c.04,1.97,.15,4.18,.3,6.43,0,.13,.02,.27,.03,.4,7.64-4.78,8.81-13.53,8.81-13.53-3.76,.16-6.74,1.03-9.04,2.26-.11,1.2-.13,2.73-.1,4.43Z"/>
            <path class="cls-68" d="M165.8,95.48c-.12-.24-.1-.5-.21-.95-.11-.46-.18-1.39-.36-1.37-.17,.02-.33,.33-.29,.58,.02,.16-.03,.48-.1,.71-.42-.25-1.09-.81-1.34-1.16-1.01-1.43-1.59-1.69-1.86-.32-.15,.76-.07,1.68,.43,2.77,.62,1.38,1.77,1.56,2.88,1.71,.3,.04,1.08,.58,1.08,.58l1.23-1.71s-1.3-.48-1.47-.83Z"/>
            <path class="cls-1" d="M165.62,96.69c.39-1.06,1.01-1,1.01-1,0,0,11.35,2.83,12.37,2.95,1.02,.12,12.23-4.38,12.23-4.38,0,0,4.41-1.98,6.48-.17,1.8,1.57,1.88,3.56,1.46,5.23-.5,1.99-2.19,3.46-4.22,3.72-4.57,.58-13.69,1.68-15.61,1.41-4.26-.59-13.9-6.16-13.9-6.16,0,0-.12-.78,.19-1.61Z"/>
          </g>
          <path class="cls-6" d="M216.44,178.01h-10.69c-.57-.49,.4-1.59,1.41-1.66,.44-.03,1,.06,1.63,.19,.15-1.95,.99-10.74,4.15-10.39,3.56,.4,0,3.87-1.01,5.93-.75,1.52-1.53,3.71-1.89,4.74,.29,.06,.59,.12,.89,.18,.47-1.45,2.23-6.32,4.46-6.04,2.62,.33,1.57,2.29-.29,3.45-1.36,.85-3.04,2.07-3.83,2.65,.67,.11,1.38,.18,2.09,.17,1.83-.04,2.73,.5,3.07,.79Z"/>
        </g>
      </g>
    </g>
  </g>
</svg>