<?xml version="1.0" encoding="UTF-8"?>
<svg id="Layer_2" data-name="Layer 2" xmlns="http://www.w3.org/2000/svg" viewBox="0 0 1586.05 421.12">
  <defs>
    <style>
      .cls-1 {
        fill: #fff;
      }

      .cls-2, .cls-3, .cls-4, .cls-5, .cls-6 {
        stroke: #000;
        stroke-miterlimit: 10;
      }

      .cls-7 {
        fill: #ffe500;
      }

      .cls-3, .cls-4, .cls-6 {
        fill: none;
        stroke-linecap: round;
        stroke-width: 5.12px;
      }

      .cls-4 {
        stroke-dasharray: 0 0 0 13;
      }

      .cls-5 {
        stroke-width: 2px;
      }

      .cls-6 {
        stroke-dasharray: 0 0 0 6.93;
      }
    </style>
  </defs>
  <g id="Layer_1-2" data-name="Layer 1">
    <g>
      <path class="cls-7" d="M1586.05,140.87c-.98,37.8-17.19,71.81-42.71,96.13-1.94,1.32-3.83,2.76-5.63,4.31-24.03,20.67-55.27,33.18-89.38,33.18s-68.1-13.64-92.51-35.96c-1.6-1.46-3.26-2.8-4.99-4.01-15.33-10.82-35.68-12.46-53.13-4.66l-7.29,3.27c-19.85,8.88-32.62,28.59-32.62,50.33,.16,55.69-32.98,103.78-80.61,125.43-.1,.05-.21,.09-.31,.14-1.86,.84-3.76,1.63-5.65,2.39-.36,.14-.72,.29-1.06,.43-1.73,.67-3.48,1.29-5.24,1.9-.55,.19-1.11,.39-1.68,.58-1.61,.53-3.25,1.01-4.89,1.48-.73,.21-1.44,.43-2.17,.62-1.53,.42-3.07,.77-4.61,1.13-.88,.2-1.75,.42-2.62,.6-1.44,.3-2.9,.57-4.36,.82-1.01,.17-2,.36-3.01,.52-1.38,.21-2.76,.38-4.15,.55-1.12,.14-2.24,.28-3.36,.39-1.31,.13-2.62,.21-3.94,.3-1.23,.09-2.45,.17-3.69,.23-1.25,.05-2.51,.07-3.76,.08-1.33,.02-2.65,.05-3.99,.02-1.19-.01-2.39-.06-3.58-.1-1.42-.06-2.83-.13-4.27-.22-.46-.03-.91-.03-1.38-.08-.87-.06-1.72-.17-2.58-.25-.7-.07-1.4-.1-2.1-.19-.24-.02-.47-.08-.71-.1-3.05-.37-6.06-.86-9.04-1.42-1.1-.2-2.17-.4-3.26-.64-2.53-.54-5.05-1.17-7.54-1.86-1.5-.4-2.99-.84-4.49-1.31-1.83-.58-3.63-1.19-5.42-1.84-2.13-.76-4.21-1.57-6.29-2.44-.19-.08-.37-.16-.55-.24-38.67-16.3-68.5-49.92-79.47-91.02-.08-.31-.16-.64-.24-.96-.82-3.14-1.53-6.31-2.12-9.54-.24-1.32-.46-2.65-.67-3.99-.17-1.17-.44-2.3-.59-3.48-.6-4.85-.96-9.66-1.06-14.43-.53-23.95-14.25-45.62-36.13-55.42-3.11-1.39-6.31-2.49-9.56-3.33-19.28-4.98-40.01-.22-55.46,13.07-6.46,5.56-13.47,10.51-20.9,14.81-.01,.01-.02,.01-.03,.02-1.84,1.05-3.7,2.07-5.58,3.05-.17,.08-.35,.17-.51,.27-1.75,.89-3.5,1.75-5.28,2.55-.27,.13-.52,.24-.77,.36-1.73,.77-3.48,1.53-5.25,2.23-.28,.12-.57,.23-.86,.35-1.78,.7-3.58,1.38-5.41,2-.25,.09-.51,.18-.76,.28-1.97,.66-3.94,1.29-5.95,1.87-.1,.02-.21,.06-.31,.09-6.37,1.83-12.92,3.2-19.63,4.09-.55,.07-1.12,.13-1.69,.18-1.61,.2-3.23,.37-4.84,.51-.79,.07-1.57,.12-2.36,.16-1.41,.1-2.83,.18-4.27,.23-.9,.03-1.81,.05-2.73,.07-.74,.01-1.48,.05-2.23,.05-.55,0-1.11-.03-1.66-.03-1.08-.02-2.15-.05-3.24-.08-1.17-.05-2.34-.09-3.49-.17-.65-.03-1.29-.05-1.95-.09-.64-.05-1.25-.13-1.88-.17-.67-.07-1.34-.13-2.01-.2-1.55-.16-3.09-.35-4.62-.55-.53-.08-1.05-.15-1.57-.23-1.61-.24-3.2-.51-4.8-.81-.5-.09-1.01-.18-1.5-.28-1.55-.31-3.09-.65-4.62-1.01-.55-.14-1.12-.27-1.68-.4-1.4-.35-2.79-.73-4.17-1.12-.71-.2-1.4-.39-2.1-.6-1.17-.35-2.33-.73-3.49-1.11-.9-.3-1.79-.59-2.68-.9-.88-.31-1.76-.65-2.64-.98-1.16-.43-2.3-.87-3.43-1.33-.53-.21-1.06-.45-1.6-.67-1.44-.61-2.88-1.24-4.3-1.9-.14-.06-.28-.13-.42-.2-12.72-5.94-24.4-13.74-34.64-23.12-15.69-14.35-38.71-17.35-58.12-8.67l-7.29,3.27c-19.87,8.89-32.66,28.63-32.62,50.41v.35c0,80.87-70.32,145.62-153.01,136.35-62.28-6.98-112.63-56.65-120.38-118.83-.6-4.85-.96-9.66-1.06-14.43-.53-23.95-14.25-45.62-36.13-55.42-21.48-9.61-46.73-6.21-64.49,9.24-26.49,23.05-61.87,36.12-100.24,33.3C60.12,269.2,5.76,215.23,.45,148.43-6.28,63.99,63.93-6.25,148.36,.45c66.95,5.29,121.01,59.85,125.77,126.85,.16,2.29,.27,4.58,.32,6.84,.53,23.96,14.25,45.64,36.33,55.51l1.01,.45c21,9.4,45.57,5.77,62.87-9.41,24.15-21.19,55.79-34.04,90.37-34.04s68.08,13.63,92.5,35.95c15.7,14.36,38.72,17.35,58.13,8.67l7.28-3.26c19.86-8.88,32.63-28.6,32.63-50.34-.1-34.56,12.61-66.19,33.68-90.39,.01-.01,.02-.02,.03-.05,1.43-1.64,2.9-3.25,4.42-4.82,.1-.1,.21-.22,.32-.34,1.43-1.49,2.91-2.95,4.42-4.38,.18-.17,.38-.36,.57-.53,1.46-1.36,2.95-2.7,4.46-4,.25-.22,.51-.44,.77-.66,1.48-1.26,2.98-2.47,4.51-3.66,.31-.24,.64-.49,.95-.73,1.5-1.14,3.03-2.27,4.58-3.35,.37-.25,.74-.5,1.1-.75,1.54-1.05,3.09-2.08,4.67-3.06,.39-.25,.81-.51,1.21-.75,1.57-.96,3.14-1.9,4.75-2.8,.44-.24,.88-.47,1.32-.72,1.61-.88,3.23-1.73,4.87-2.54,.45-.22,.91-.43,1.36-.65,1.65-.8,3.32-1.57,5.01-2.3,.46-.2,.92-.38,1.39-.57,1.71-.72,3.42-1.42,5.17-2.07,.42-.15,.84-.29,1.26-.44,1.8-.65,3.62-1.28,5.47-1.86,.22-.07,.45-.13,.67-.2,6.01-1.85,12.18-3.28,18.51-4.29,.54-.09,1.08-.21,1.62-.28,1.33-.2,2.68-.34,4.02-.5,1.13-.13,2.24-.29,3.38-.39,1.18-.1,2.38-.16,3.57-.24,1.32-.09,2.64-.18,3.95-.24,1.11-.03,2.23-.03,3.34-.05,1.43-.02,2.86-.05,4.3-.02,1.06,.02,2.13,.08,3.2,.12,1.11,.05,2.22,.06,3.33,.13,.44,.02,.87,.08,1.31,.12,.28,.02,.55,.02,.83,.05,.66,.05,1.29,.14,1.94,.2,1.1,.1,2.2,.21,3.29,.34,1.03,.13,2.06,.27,3.09,.42,1.02,.14,2.02,.29,3.02,.45,1.1,.18,2.18,.39,3.27,.6,.92,.17,1.85,.35,2.77,.54,1.13,.24,2.27,.51,3.39,.77,.86,.21,1.71,.42,2.57,.64,1.17,.3,2.32,.64,3.48,.97,.8,.23,1.61,.45,2.39,.7,1.18,.36,2.34,.75,3.49,1.14,.77,.27,1.54,.52,2.3,.79,1.16,.42,2.3,.87,3.46,1.32,.74,.29,1.49,.58,2.23,.88,1.12,.46,2.23,.95,3.34,1.44,.75,.32,1.5,.66,2.25,1.01,1.05,.49,2.09,1.01,3.14,1.53,.77,.38,1.56,.77,2.34,1.17,.97,.51,1.93,1.04,2.9,1.57,.82,.45,1.64,.9,2.45,1.38,.88,.5,1.73,1.03,2.6,1.55,.88,.54,1.76,1.07,2.64,1.63,.75,.49,1.49,.98,2.24,1.48,.95,.64,1.91,1.27,2.84,1.93,.62,.44,1.23,.89,1.84,1.33,1.04,.76,2.08,1.53,3.11,2.31,.46,.37,.94,.74,1.4,1.11,1.13,.9,2.27,1.81,3.38,2.75,.32,.27,.64,.55,.95,.82,1.24,1.06,2.46,2.14,3.66,3.25,.17,.15,.34,.31,.5,.47,1.33,1.24,2.65,2.5,3.93,3.79,.01,.02,.03,.05,.06,.06,22.27,22.47,36.96,52.49,39.51,85.69,.2,2.57,.32,5.13,.38,7.68,.27,11.98,3.83,23.4,10.06,33.03,6.23,9.64,15.13,17.5,26.07,22.39,20.46,9.16,44.32,6.48,61.88-7.12,.73-.57,1.44-1.13,2.15-1.75,5.09-4.46,10.53-8.53,16.24-12.22,.02-.01,.06-.03,.08-.05,1.78-1.14,3.58-2.24,5.41-3.31,.13-.08,.27-.15,.39-.23,1.75-1.01,3.5-1.97,5.29-2.89,.18-.1,.38-.2,.57-.3,1.76-.9,3.54-1.76,5.33-2.59,.21-.09,.42-.19,.62-.29,1.84-.82,3.69-1.62,5.56-2.37,.16-.07,.32-.13,.49-.2,2.01-.8,4.03-1.55,6.09-2.25,.02-.01,.05-.01,.07-.02,6.31-2.16,12.83-3.87,19.52-5.1,.28-.05,.54-.08,.82-.13,1.87-.34,3.76-.64,5.65-.89,.64-.08,1.27-.14,1.92-.22,1.54-.19,3.09-.36,4.65-.49,.82-.07,1.64-.12,2.46-.17,1.39-.09,2.77-.17,4.17-.22,.94-.03,1.88-.06,2.83-.07,.73-.01,1.46-.05,2.2-.05,.55,0,1.1,.03,1.64,.03,1.09,.01,2.16,.05,3.25,.08,1.17,.03,2.32,.09,3.48,.16,.66,.05,1.31,.05,1.95,.09,.64,.05,1.27,.13,1.9,.18,.67,.06,1.34,.13,2.01,.2,1.55,.16,3.09,.35,4.62,.55,.53,.07,1.05,.15,1.58,.22,1.61,.24,3.2,.52,4.8,.81,.5,.09,.99,.18,1.48,.29,1.56,.31,3.11,.65,4.65,1.01,.55,.13,1.11,.27,1.65,.39,1.41,.36,2.81,.73,4.21,1.13,.68,.18,1.38,.38,2.07,.59,1.18,.36,2.35,.73,3.51,1.12,.89,.29,1.78,.59,2.67,.89,.89,.32,1.77,.66,2.66,.99,1.13,.43,2.27,.86,3.4,1.31,.54,.23,1.09,.46,1.63,.69,1.43,.61,2.87,1.23,4.28,1.88,.14,.06,.27,.13,.4,.19,12.73,5.95,24.41,13.77,34.65,23.13,15.7,14.36,38.72,17.35,58.13,8.67l7.28-3.26c18.06-8.07,30.25-25.11,32.31-44.47,.22-1.95,.32-3.94,.32-5.94v-.36c0-78.63,66.47-142.03,146.17-136.96,67.53,4.3,122.71,58.71,127.9,126.18,.2,2.57,.32,5.13,.38,7.68,.05,2.27,.22,4.51,.51,6.73Z"/>
      <circle class="cls-1" cx="137.24" cy="137.24" r="101.42" transform="translate(-10.68 262.9) rotate(-85.35)"/>
      <g>
        <line class="cls-3" x1="465.03" y1="115" x2="465.03" y2="115"/>
        <line class="cls-3" x1="465.03" y1="102.3" x2="465.03" y2="102.3"/>
      </g>
      <line class="cls-4" x1="1120.6" y1="115" x2="1120.6" y2="98.84"/>
      <g>
        <line class="cls-3" x1="137.24" y1="306.12" x2="137.24" y2="306.12"/>
        <line class="cls-6" x1="137.24" y1="313.05" x2="137.24" y2="316.51"/>
        <line class="cls-3" x1="137.24" y1="319.98" x2="137.24" y2="319.98"/>
      </g>
      <g>
        <line class="cls-3" x1="792.81" y1="306.12" x2="792.81" y2="306.12"/>
        <line class="cls-6" x1="792.81" y1="313.05" x2="792.81" y2="316.51"/>
        <line class="cls-3" x1="792.81" y1="319.98" x2="792.81" y2="319.98"/>
      </g>
      <g>
        <line class="cls-3" x1="1448.39" y1="306.12" x2="1448.39" y2="306.12"/>
        <line class="cls-3" x1="1448.39" y1="318.82" x2="1448.39" y2="318.82"/>
      </g>
      <circle class="cls-1" cx="465.03" cy="283.88" r="101.42"/>
      <circle class="cls-1" cx="792.81" cy="137.24" r="101.42" transform="translate(529.02 897.38) rotate(-80.68)"/>
      <circle class="cls-1" cx="1448.36" cy="137.24" r="101.42" transform="translate(1078.42 1544.27) rotate(-80.68)"/>
      <circle class="cls-1" cx="1120.6" cy="283.88" r="101.42"/>
      <g>
        <path d="M176.72,198.9l3.96-84.27h5.72c.87,0,1.58-.71,1.58-1.58v-20.51c0-.87-.71-1.58-1.58-1.58h-8.59l-5.73-15.85c-.23-.63-.82-1.04-1.48-1.04H103.9c-.67,0-1.26,.42-1.48,1.04l-5.73,15.85h-8.59c-.87,0-1.58,.71-1.58,1.58v20.51c0,.87,.71,1.58,1.58,1.58h5.72l3.96,84.27c.04,.84,.73,1.5,1.58,1.5h75.8c.84,0,1.54-.66,1.58-1.5h0ZM89.67,111.47v-17.35h8.12c.67,0,1.26-.42,1.48-1.04l5.73-15.85h64.47l5.73,15.85c.23,.63,.82,1.04,1.48,1.04h8.12v17.35H89.67Zm11.18,85.77l-3.88-82.61h80.55l-3.88,82.61H100.85Z"/>
        <path d="M154.98,85.16h-35.72c-3.26,0-5.91,2.65-5.91,5.91v6.57c0,3.26,2.65,5.91,5.91,5.91h35.72c3.26,0,5.91-2.65,5.91-5.91v-6.57c0-3.26-2.65-5.91-5.91-5.91Zm2.75,12.48c0,1.52-1.23,2.75-2.75,2.75h-35.72c-1.52,0-2.75-1.23-2.75-2.75v-6.57c0-1.52,1.23-2.75,2.75-2.75h35.72c1.52,0,2.75,1.23,2.75,2.75v6.57Z"/>
        <path d="M154.41,153.85c-.44-.75-1.4-1.01-2.16-.57-.75,.44-1.01,1.4-.57,2.16l10.54,18.19h-17.25s2.62-2.62,2.62-2.62c.62-.62,.62-1.62,0-2.23s-1.62-.62-2.23,0l-5.32,5.32c-.3,.3-.46,.7-.46,1.12s.17,.82,.46,1.12l5.32,5.31c.31,.31,.71,.46,1.12,.46s.81-.15,1.12-.46c.62-.62,.62-1.62,0-2.23l-2.62-2.62h19.99c.56,0,1.09-.3,1.37-.79,.28-.49,.28-1.09,0-1.58l-11.91-20.56Z"/>
        <path d="M132.51,173.62h-20.41l9.7-16.75,.97,3.61c.19,.71,.83,1.17,1.52,1.17,.13,0,.27-.02,.41-.05,.84-.22,1.34-1.09,1.12-1.93l-1.95-7.26c-.11-.4-.37-.75-.74-.96-.36-.21-.8-.26-1.2-.16l-7.26,1.95c-.84,.22-1.34,1.09-1.12,1.93,.22,.84,1.09,1.34,1.93,1.12l3.55-.95-11.05,19.08c-.28,.49-.28,1.09,0,1.58,.28,.49,.8,.79,1.37,.79h23.15c.87,0,1.58-.71,1.58-1.58,0-.87-.71-1.58-1.58-1.58h0Z"/>
        <path d="M139.15,143.78c-.23,.84,.27,1.71,1.12,1.93l7.26,1.94c.14,.04,.27,.05,.41,.05,.7,0,1.34-.46,1.52-1.17l1.95-7.26c.23-.84-.27-1.71-1.12-1.93-.85-.23-1.71,.27-1.93,1.12l-.91,3.38-8.93-15.42c-.56-.97-2.17-.97-2.73,0l-10.5,18.14c-.44,.75-.18,1.72,.57,2.16,.76,.44,1.72,.18,2.16-.57l9.14-15.78,7.71,13.31-3.78-1.01c-.85-.23-1.71,.27-1.93,1.12h0Z"/>
      </g>
      <path class="cls-5" d="M489.73,218.41c-.03-2.02-.4-3.55-2.72-3.69l-7.08-.56c-1.97-.08-2.7,1.31-3.12,3,4.34-.62,8.78-.19,12.93,1.25h0Zm-59.59,75.91c6.52-1.87,15.46-3.03,25.27-3.04,2.72,0,5.44,.08,8.15,.26l4.53-2.61,.84-4.03c-13.18-5.8-20.12-20.54-19.41-34.46,.77-15.04,10.41-29.91,25.77-33.01,.51-2.62,1.73-4.84,4.74-4.7l7.09,.56c3.44,.21,4.12,2.7,4.06,5.67,13.53,5.56,20.69,20.32,20.06,34.49-.67,14.98-10.14,29.86-25.37,33.17l-.64,4.19c-.1,.65-.03,1.48-.67,1.84l-2.69,2.06c2.87,.94,9.29,3.53,9.09,7.29-.05,.99,0,2.67-.16,3.82-.24,1.87-1.54,3.16-3.04,4.2l-6.53,36.1c-1.32,7.27-20.64,8.87-26.34,8.93-5.26,.05-23.27-1.04-25.46-7.67-.15-.46-.27-1.27-.36-1.75-.3-1.59-.97-5.15-1.78-9.42-1.81-9.61-4.3-22.77-4.77-25.42-2.08-1.27-3.36-2.7-3.64-4.25-.2-1.06,.03-2.83,.08-3.9,.22-4.92,7.32-7.2,11.19-8.31h0Zm59.15,11.72l.03-.71c-1.84,1.83-5.17,3.44-9.55,4.69-6.52,1.87-15.46,3.03-25.27,3.04-8.06,.01-27.42-1.11-33.8-7.27-.59-.57-.52-.22-.42,.47,1.04,7.43,29.93,8.87,34.07,8.86,9.67-.01,18.47-1.16,24.88-2.99,5.78-1.65,9.54-3.8,10.07-6.1h0Zm.17-3.59l.04-.72c-.22-2.06-3.14-4.02-7.87-5.6-8.06-2.7-17.68-3.43-26.21-3.42-9.67,.01-18.47,1.16-24.88,2.99-2.53,.72-10.4,3.19-10.13,6.83,1.84-1.84,5.18-3.45,9.58-4.71,6.52-1.87,15.46-3.03,25.27-3.04,8.61-.01,18.54,.77,26.67,3.49,3.47,1.16,6.08,2.58,7.54,4.19h0Zm-3.36,8.55c-1.75,.94-3.94,1.79-6.49,2.52-6.52,1.87-15.46,3.03-25.27,3.04-9.11,.01-21.92-.88-30.23-4.92,.72,3.84,2.93,15.54,4.58,24.28,.62,3.31,1.17,6.19,1.52,8.08,1.14-1.77,3.72-3.35,7.28-4.57,4.69-1.62,11.1-2.65,18.14-2.72,6.15-.06,13.34,.58,19.06,2.78,2.68,1.03,4.62,2.31,5.58,3.75l5.83-32.24h0Zm-30.85-14.79c-9.67,.01-18.47,1.16-24.88,2.99-4.66,1.34-8.01,2.99-9.41,4.78,4.47,6.4,26.38,7.65,33.53,7.64,9.67-.01,18.47-1.16,24.88-2.99,4.66-1.34,8.01-2.99,9.41-4.78-1.08-1.55-3.66-2.99-7.32-4.22-7.97-2.67-17.76-3.43-26.21-3.42h0Zm24.81,48.19c-.56-1.6-2.59-3.06-5.63-4.23-5.63-2.17-12.74-2.79-18.79-2.73-6.95,.07-13.29,1.09-17.91,2.68-3.97,1.37-6.64,3.13-7.29,5.04,.1,.51,.24,1.55,.45,2.04,2.31,5.39,19.69,6.43,23.97,6.39,4.79-.05,23.83-1.61,24.94-7.74l.26-1.45Zm-13.97-52.67c5.37,.48,10.17,1.33,14.07,2.44l2.21-1.69-13.52-2.34-2.76,1.59Zm43.7-38.36c.63-14.08-6.97-28.77-20.09-33.5-4.19-1.51-8.84-1.93-13.24-1.23-14.8,2.34-24.72,16.95-25.51,31.79-.74,13.87,6.66,28.69,19.65,33.64,4.41,1.68,9.33,2.14,13.98,1.34,14.5-2.5,24.54-16.9,25.21-32.04h0Zm-40.21,35.43l13.43,2.33c.74,.14,.68,.02,.77-.54l.57-3.69c-4.74,.76-9.59,.26-14.07-1.44l-.7,3.35h0Zm11.67-38.16c.67,.84,.61,2.13-.13,2.91-.77,.8-1.98,.75-2.67-.12-.67-.84-.61-2.13,.13-2.91,.77-.8,1.98-.75,2.67,.12Zm-.56,.45c-.42-.53-1.12-.56-1.59-.07-.49,.52-.53,1.4-.09,1.96,.42,.53,1.12,.56,1.59,.07,.49-.51,.53-1.4,.09-1.96Z"/>
      <g>
        <path d="M765.65,78.37c0-.46-.18-.9-.51-1.22s-.76-.51-1.22-.51c-1.38,0-2.7-.55-3.67-1.52s-1.52-2.29-1.52-3.67c0-.96-.77-1.73-1.73-1.73s-1.73,.77-1.73,1.73c0,1.38-.55,2.7-1.52,3.67s-2.29,1.52-3.67,1.52c-.96,0-1.73,.77-1.73,1.73s.77,1.73,1.73,1.73c1.38,0,2.7,.55,3.67,1.52,.97,.97,1.52,2.29,1.52,3.67,0,.96,.77,1.73,1.73,1.73s1.73-.77,1.73-1.73c0-1.38,.55-2.7,1.52-3.67s2.29-1.52,3.67-1.52c.46,0,.9-.18,1.22-.51s.51-.76,.51-1.22Zm-8.65,1.73c-.49-.65-1.07-1.24-1.73-1.73,.65-.49,1.24-1.07,1.73-1.73,.49,.65,1.07,1.24,1.73,1.73-.65,.49-1.24,1.07-1.73,1.73Z"/>
        <g>
          <path d="M836.78,92.89h-25.28v-4.7c0-4.62-3.76-8.37-8.38-8.37h-20.6c-4.62,0-8.38,3.75-8.38,8.37v4.7h-25.29c-1.02,0-1.85,.83-1.85,1.85v13.06c0,1.02,.83,1.85,1.85,1.85h8.72v86.11c0,4.97,4.05,9.01,9.03,9.01h52.44c4.98,0,9.02-4.04,9.02-9.01V109.64h8.72c1.02,0,1.85-.83,1.85-1.85v-13.06c0-1.02-.83-1.85-1.85-1.85h0Zm-54.26-9.37h20.6c2.58,0,4.69,2.1,4.69,4.68v4.7h-29.97v-4.7c0-2.58,2.1-4.68,4.69-4.68h0Zm41.85,112.23c0,2.93-2.39,5.31-5.33,5.31h-52.44c-2.94,0-5.34-2.38-5.34-5.31V109.64s63.1,0,63.1,0v86.11Zm10.57-89.81h-84.23v-9.36h84.23v9.36Z"/>
          <path d="M775.64,194.78c1.02,0,1.85-.83,1.85-1.85V117.8c0-1.02-.83-1.85-1.85-1.85s-1.85,.83-1.85,1.85v75.13c0,1.02,.83,1.85,1.85,1.85Z"/>
          <path d="M792.81,194.78c1.02,0,1.85-.83,1.85-1.85V117.8c0-1.02-.83-1.85-1.85-1.85s-1.85,.83-1.85,1.85v75.13c0,1.02,.83,1.85,1.85,1.85Z"/>
          <path d="M809.99,194.78c1.02,0,1.85-.83,1.85-1.85V117.8c0-1.02-.83-1.85-1.85-1.85s-1.85,.83-1.85,1.85v75.13c0,1.02,.83,1.85,1.85,1.85Z"/>
        </g>
        <path d="M851.29,131.68c0-.46-.18-.9-.51-1.22s-.76-.51-1.22-.51c-1.38,0-2.7-.55-3.67-1.52-.97-.97-1.52-2.29-1.52-3.67,0-.96-.77-1.73-1.73-1.73s-1.73,.77-1.73,1.73c0,1.38-.55,2.7-1.52,3.67s-2.29,1.52-3.67,1.52c-.96,0-1.73,.77-1.73,1.73s.77,1.73,1.73,1.73c1.38,0,2.7,.55,3.67,1.52,.97,.97,1.52,2.29,1.52,3.67,0,.96,.77,1.73,1.73,1.73s1.73-.77,1.73-1.73c0-1.38,.55-2.7,1.52-3.67s2.29-1.52,3.67-1.52c.46,0,.9-.18,1.22-.51s.51-.76,.51-1.22Zm-8.65,1.73c-.49-.65-1.07-1.24-1.73-1.73,.65-.49,1.24-1.07,1.73-1.73,.49,.65,1.07,1.24,1.73,1.73-.65,.49-1.24,1.07-1.73,1.73Z"/>
        <path d="M754.29,178.68c0-.46-.18-.9-.51-1.22s-.76-.51-1.22-.51c-1.38,0-2.7-.55-3.67-1.52s-1.52-2.29-1.52-3.67c0-.96-.77-1.73-1.73-1.73s-1.73,.77-1.73,1.73c0,1.38-.55,2.7-1.52,3.67s-2.29,1.52-3.67,1.52c-.96,0-1.73,.77-1.73,1.73s.77,1.73,1.73,1.73c1.38,0,2.7,.55,3.67,1.52,.97,.97,1.52,2.29,1.52,3.67,0,.96,.77,1.73,1.73,1.73s1.73-.77,1.73-1.73c0-1.38,.55-2.7,1.52-3.67s2.29-1.52,3.67-1.52c.46,0,.9-.18,1.22-.51s.51-.76,.51-1.22Zm-8.65,1.73c-.49-.65-1.07-1.24-1.73-1.73,.65-.49,1.24-1.07,1.73-1.73,.49,.65,1.07,1.24,1.73,1.73-.65,.49-1.24,1.07-1.73,1.73Z"/>
      </g>
      <g>
        <path d="M1092.92,259.13h1.85c2.79,.02,5.5,.92,7.74,2.57,2.28,1.58,4.91,2.59,7.66,2.95l23.01,3.13c.39,.06,.79,.09,1.18,.09,.88,.05,1.74-.24,2.41-.81,.95-1.11,1.34-2.59,1.06-4.03-.46-4.03-3.19-7.44-7.02-8.79l-4.23-1.33c-2.75-.87-3.07-1.62-3.08-1.62l2.02-2.75c.81-1.01,.87-1.09,4.23,.31l20.35,8.48c3.38,1.78,7.55,.48,9.33-2.9,0,0,0,0,0,0,1.43-3.17,.03-6.9-3.14-8.33-.06-.03-.12-.05-.18-.08l-24.59-12.95c-.06-.04-.13-.07-.19-.1-5.43-1.89-11.38-1.62-16.62,.75-1.04,.35-2.02,.68-2.9,.92-4.6,.93-9.29,1.33-13.98,1.21h-4.92c-.73-1.24-2.06-2-3.5-2h-17.99c-1.13-.05-2.08,.82-2.13,1.95-.05,1.13,.82,2.08,1.95,2.13,.06,0,.13,0,.19,0h17.96v19.15h-17.96c-1.13-.05-2.08,.82-2.13,1.95-.05,1.13,.82,2.08,1.95,2.13,.06,0,.13,0,.19,0h17.99c1.44,0,2.76-.77,3.48-2.01h.02Zm19.94-20.55c1.03-.27,2.07-.62,3.18-1,4.3-2.01,9.2-2.32,13.72-.87l24.47,12.92c1.74,.92,1.94,2.18,1.53,3.05-.5,1.07-1.96,1.74-4.07,.87l-20.35-8.48c-3.32-1.38-6.19-2.58-8.98,.91l-1.6,2.01c-1.13,1.19-1.56,2.88-1.14,4.47,.57,1.88,2.46,3.3,5.76,4.35l4.23,1.33c2.18,.82,3.76,2.73,4.16,5.03v.57h-.04l-23.05-3.13h-.04c-2.16-.3-4.22-1.12-6-2.39-2.89-2.03-6.32-3.13-9.86-3.14h-1.31v-15.14h4.35c5.04,.14,10.08-.3,15.02-1.34h0Z"/>
        <path d="M1115.72,290.98h3.83l14.08-14.08c.71-.71,.71-1.85,0-2.56l-5.14-5.12c-.71-.71-1.85-.71-2.56,0l-1.41,1.41c-3.6-2.37-8.36-1.89-11.4,1.15l-22.03,22.04c-3.04,3.05-3.53,7.81-1.15,11.4l-1.41,1.41c-.71,.71-.71,1.85,0,2.56l5.15,5.13c.34,.34,.8,.53,1.28,.53s.94-.19,1.28-.53l17.7-17.7v-3.83c0-.99,.8-1.8,1.79-1.81h0Zm-20.79,19.5l-2.57-2.56,1.28-1.28c.71-.71,.71-1.85,0-2.56-2.12-2.12-2.12-5.56,0-7.69h0s22.05-22.06,22.05-22.06c2.12-2.12,5.56-2.12,7.69,0,.71,.71,1.85,.71,2.56,0l1.28-1.28,2.56,2.56-34.86,34.88Z"/>
        <path d="M1115.72,290.98c-1,0-1.81,.81-1.81,1.81v3.83l5.66-5.66-3.85,.02Z"/>
        <path d="M1113.91,334.32c.05,1,.9,1.77,1.9,1.72,.93-.04,1.68-.79,1.72-1.72v-2.93h-3.63v2.93Z"/>
        <path d="M1168.29,334.32c.05,1,.9,1.77,1.9,1.72,.93-.04,1.68-.79,1.72-1.72v-2.93h-3.63v2.93Z"/>
        <path d="M1122.24,294.61c1,0,1.81-.81,1.81-1.81,.01-.62,.14-1.23,.37-1.81h-3.81c-.12,.6-.18,1.2-.18,1.81,0,1,.81,1.81,1.81,1.81h0Z"/>
        <path d="M1126.6,294.61c-1,0-1.81-.81-1.81-1.81,0-.61,.06-1.21,.18-1.81h-5.42l-5.66,5.66v35.14s3.63,0,3.63,0v-37.17h9.08Z"/>
        <path d="M1164.66,292.79c-.02-.62-.14-1.23-.37-1.81h-35.52c-.23,.58-.36,1.19-.37,1.81,0,1-.81,1.81-1.81,1.81h39.88c-1,0-1.81-.81-1.82-1.81h0Z"/>
        <path d="M1170.1,290.98h-2.01c.12,.6,.18,1.2,.18,1.81,0,1-.81,1.81-1.81,1.81h1.81v37.17h3.63v-38.98c0-1-.81-1.81-1.8-1.81h0Z"/>
        <path d="M1142.91,301.86c-1,0-1.81,.81-1.81,1.82v24.48c0,1,.81,1.81,1.81,1.81s1.81-.81,1.81-1.81v-24.48c0-1-.81-1.81-1.81-1.82Z"/>
        <path d="M1129.39,301.86c-1,0-1.82,.81-1.82,1.82v24.48c-.05,1,.72,1.85,1.72,1.9,1,.05,1.85-.72,1.9-1.72,0-.06,0-.12,0-.18v-24.48c0-1-.81-1.81-1.81-1.82h0Z"/>
        <path d="M1156.43,301.86c-1,0-1.81,.81-1.81,1.82v24.48c-.05,1,.72,1.85,1.72,1.9,1,.05,1.85-.72,1.9-1.72,0-.06,0-.12,0-.18v-24.48c0-1-.81-1.82-1.81-1.82h0Z"/>
        <path d="M1164.66,292.79c.05,1,.9,1.77,1.9,1.72,.93-.05,1.68-.79,1.72-1.72,0-.61-.06-1.21-.18-1.81h-3.81c.23,.58,.35,1.19,.37,1.81h0Z"/>
        <path d="M1123.16,290.98h12.53v3.63h-12.53v-3.63Z"/>
        <path d="M1134.81,287.38l5.95,.77c.61,.07,1.22-.14,1.66-.57l6.09-5.84,8.82-4.76,3.71,5.99-6.17,3.4c-.81,.44-1.22,1.38-1,2.27l1.46,5.97h4.2l-1.31-5.42,6.68-3.68c.98-.54,1.35-1.78,.81-2.77-.02-.03-.03-.06-.06-.09l-5.83-9.45c-.57-.92-1.75-1.24-2.7-.72l-10.79,5.81c-.16,.09-.3,.2-.44,.32l-5.6,5.36-6.77-.87c-1.02-.13-1.99,.52-2.24,1.52l-2.52,10.01h4.2l1.84-7.25Z"/>
      </g>
      <path class="cls-2" d="M1503.51,95.55c-.09-.25-.28-.45-.53-.55l-44.31-17.18c-.42-.17-.9,0-1.13,.4l-9.18,16.24-9.18-16.24c-.22-.4-.7-.57-1.13-.4l-44.31,17.18c-.25,.1-.44,.29-.53,.55-.09,.25-.07,.53,.07,.76l9.72,17.2-9.72,17.2c-.13,.23-.15,.51-.07,.76s.28,.45,.53,.55l7.27,2.82v47.09c0,.4,.27,.76,.65,.88l46.44,13.89c.09,.03,.18,.04,.26,.04s.18-.01,.26-.04l46.44-13.89c.39-.12,.65-.47,.65-.88v-47.09l7.27-2.82c.25-.1,.44-.29,.53-.55,.09-.25,.07-.53-.07-.76l-9.72-17.2,9.72-17.2c.13-.23,.15-.51,.07-.76h0Zm-55.15,34.15l-41.78-16.19,41.78-16.19,41.78,16.19-41.78,16.19Zm-10.38-49.88l9.07,16.04-42.59,16.51-9.07-16.04,42.59-16.51Zm-33.52,34.82l42.59,16.51-9.07,16.04-42.59-16.51,9.07-16.04Zm-1.61,20.89l35.21,13.65c.11,.04,.22,.06,.33,.06,.32,0,.63-.17,.8-.46l8.27-14.62v60.42l-44.61-13.34v-45.7Zm91.04,45.7l-44.61,13.34v-60.42l8.26,14.62c.17,.29,.48,.46,.8,.46,.11,0,.22-.02,.33-.06l35.21-13.65v45.7Zm-35.14-34.05l-9.07-16.04,42.59-16.51,9.07,16.04-42.59,16.51Zm33.52-34.82l-42.59-16.51,9.07-16.04,42.59,16.51-9.07,16.04Z"/>
    </g>
  </g>
</svg>