<?xml version="1.0" encoding="UTF-8"?>
<svg id="Layer_2" data-name="Layer 2" xmlns="http://www.w3.org/2000/svg" viewBox="0 0 541.97 272.65">
  <defs>
    <style>
      .cls-1 {
        fill: #a0a19f;
      }

      .cls-2 {
        fill: #c44162;
      }

      .cls-3 {
        fill: #fff;
      }

      .cls-4 {
        fill: #8b4614;
      }

      .cls-5 {
        opacity: .5;
      }

      .cls-6 {
        fill: #1a192b;
      }

      .cls-7 {
        fill: #ea6161;
      }

      .cls-8 {
        fill: #e9eeff;
      }

      .cls-9 {
        fill: #f5b3c3;
      }

      .cls-10 {
        fill: #ffb07b;
      }

      .cls-11 {
        fill: #824f2f;
      }

      .cls-12 {
        fill: #ffb93e;
      }

      .cls-13 {
        fill: #faa858;
      }

      .cls-14 {
        fill: #60b36f;
      }

      .cls-15 {
        fill: #ffd459;
      }

      .cls-16 {
        fill: #e6d4a2;
      }

      .cls-17 {
        fill: #50965d;
      }

      .cls-18 {
        fill: #769ae2;
      }

      .cls-19 {
        fill: #e64c70;
      }

      .cls-20 {
        fill: #cedaff;
      }

      .cls-21 {
        fill: #ffa412;
      }

      .cls-22 {
        fill: #fadc8a;
      }

      .cls-23 {
        fill: #fac458;
      }

      .cls-24 {
        fill: #ff9843;
      }

      .cls-25 {
        fill: #c6d4ff;
      }

      .cls-26 {
        fill: #454c60;
      }

      .cls-27 {
        fill: #e59e6e;
      }

      .cls-28 {
        fill: #2c3a64;
      }

      .cls-29 {
        fill: #c47a2f;
      }

      .cls-30 {
        fill: #de7b5c;
      }

      .cls-31 {
        fill: #b8873e;
      }

      .cls-32 {
        fill: #876130;
      }

      .cls-33 {
        fill: #353258;
      }

      .cls-34 {
        fill: #757575;
      }

      .cls-35 {
        fill: #e66482;
      }

      .cls-36 {
        fill: #212447;
      }

      .cls-37 {
        fill: #ed7d2b;
      }

      .cls-38 {
        fill: #606060;
      }

      .cls-39 {
        fill: #f39271;
      }

      .cls-40 {
        fill: #fac98a;
      }

      .cls-41 {
        fill: #d4a13b;
      }

      .cls-42 {
        fill: #445172;
      }

      .cls-43 {
        fill: #723206;
      }

      .cls-44 {
        fill: #2b478b;
      }

      .cls-45 {
        fill: #b84c4c;
      }

      .cls-46 {
        fill: #206a49;
      }

      .cls-47 {
        fill: #5b606d;
      }
    </style>
  </defs>
  <g id="Layer_1-2" data-name="Layer 1">
    <g>
      <g>
        <g>
          <path class="cls-2" d="M222.96,70.48s6.87,2.41,14.95,14.6h-12.31l-2.64-14.6Z"/>
          <g>
            <path class="cls-32" d="M229.5,83.12s5.71,.28,9.59,.72c3.88,.44,23.87,4.38,30.45,9.06-3.02,2.47-19.43,.87-23.24,0-11.59-2.63-16.79-9.78-16.79-9.78Z"/>
            <path class="cls-17" d="M238.14,71.13l-3.53-.09c-.32,0-.58,.24-.59,.56l-.02,.75c0,.17,.06,.32,.17,.42l-.19,7.02c-.04,1.49-.55,2.93-1.46,4.11l-.05,.06c-1.06,1.38-1.66,3.05-1.7,4.79l-.37,14.05c-.03,1.03,.78,1.88,1.81,1.91l6.59,.17c1.03,.03,1.88-.78,1.91-1.81l.37-13.98c.05-1.78-.49-3.53-1.52-4.99-.89-1.25-1.35-2.75-1.31-4.28l.18-6.93c.14-.1,.23-.26,.24-.44l.02-.75c0-.32-.24-.58-.56-.59Z"/>
            <path class="cls-28" d="M267.47,78.97l-3.37-1.05c-.3-.09-.62,.07-.72,.37l-.22,.71c-.05,.16-.03,.32,.05,.45l-2.1,6.71c-.45,1.42-1.33,2.67-2.53,3.56l-.06,.05c-1.4,1.03-2.43,2.49-2.95,4.15l-4.19,13.41c-.31,.98,.24,2.02,1.22,2.33l6.29,1.97c.98,.31,2.02-.24,2.33-1.22l4.17-13.34c.53-1.7,.5-3.53-.11-5.21-.52-1.44-.55-3.01-.09-4.47l2.07-6.61c.16-.06,.29-.19,.35-.36l.22-.71c.09-.3-.07-.62-.37-.72Z"/>
            <path class="cls-14" d="M256.63,81.58v-2.02h-5.3v2.02c0,1.07-.41,2.11-1.19,2.84-1.06,1.01-1.72,2.44-1.72,4.02v15.18h11.12v-15.18c0-1.58-.66-3.01-1.72-4.02-.77-.74-1.19-1.77-1.19-2.84Z"/>
            <path class="cls-44" d="M248.6,74.25l.74-1.88-4.92-1.95-.74,1.88c-.39,.99-1.16,1.8-2.15,2.2-1.36,.55-2.5,1.63-3.09,3.1l-5.6,14.11,10.33,4.1,5.6-14.11c.58-1.47,.5-3.04-.12-4.38-.45-.97-.45-2.09-.05-3.08Z"/>
            <path class="cls-2" d="M253.64,76.5l-3.23-1.42c-.29-.13-.63,0-.75,.29l-.3,.69c-.07,.15-.06,.32,0,.46l-2.83,6.43c-.6,1.36-1.62,2.5-2.91,3.25l-.07,.04c-1.5,.87-2.69,2.2-3.39,3.79l-5.66,12.86c-.41,.94,.01,2.04,.95,2.45l6.04,2.66c.94,.41,2.04-.01,2.45-.95l5.63-12.8c.72-1.63,.89-3.45,.48-5.19-.35-1.49-.21-3.05,.41-4.45l2.79-6.34c.17-.04,.31-.15,.39-.32l.3-.69c.13-.29,0-.63-.29-.75Z"/>
            <path class="cls-22" d="M229.5,83.12s5.2,5.54,20.12,8.53c14.72,2.95,19.92,1.25,19.92,1.25,0,0-2.28,12.09-6.17,24.33-2.74,8.6-7.78,14.87-7.96,20.64-5.89,3.96-32.98-5.71-32.98-5.71l7.07-49.04Z"/>
            <path class="cls-10" d="M264.16,103.97c-1.03,.7-1.24,2.6-.45,4.08,.08,0,.07,.09,.07,.09-.16,0-.25,.1-.42,.2-.78,.69-1.05,2.12-.47,3.14,.58,1.02,1.69,1.45,2.56,.76,.69-.5,1.01-1.64,.75-2.58,.25,0,.58-.12,.84-.31,.69-.5,1.01-1.64,.85-2.77,.17-.1,.34-.2,.51-.3,.86-.69,1.14-2.31,.59-3.71,.33-.01,.58-.12,.84-.31,.95-.79,1.23-2.41,.59-3.71-.64-1.3-2-1.73-3.03-.93-.86,.69-1.19,1.84-.94,2.97-.33,.01-.66,.12-.92,.32-.69,.5-1.01,1.64-.85,2.77-.17,.1-.34,.2-.51,.3Z"/>
            <path class="cls-40" d="M249.35,96.81s-7.75,.91-14.38-4.26c.78,4.04,4.59,7.3,6.73,13.3-.35-4.31-.86-6.57-1.95-8.02,2.69,.44,9.6-1.02,9.6-1.02Z"/>
            <path class="cls-40" d="M259.54,118.78l-5.56,10.9s-2.18-6.52,5.56-10.9Z"/>
          </g>
          <g>
            <path class="cls-6" d="M221.53,130.86l-27.55,18.66s17.73,47.72,29.62,63.3c2.07,2.71,16.9,1.1,17.75-2.15,3.11-11.84-19.81-79.81-19.81-79.81Z"/>
            <path class="cls-6" d="M241.64,272.65h-17.78c-1.99-11.39-5.53-35.35-3.58-52.67,.07-.65,.15-1.29,.24-1.92,.37-2.64,.89-5.1,1.58-7.31h0c1.31-4.61,3.81-7.93,6.6-9.83,4.05-2.75,8.73-2.56,11.41,.89,.48,.61,.89,1.33,1.23,2.16,.11,1.32,.2,2.7,.28,4.15,0,0,0,0,0,.01v.02c.22,3.93,.32,8.39,.36,13.52,0,.59,0,1.18,.01,1.79,.05,12.09-.22,27.85-.36,49.19Z"/>
            <path class="cls-33" d="M214.39,137.12s-17.63-25.53-28.82-8.03c-11.19,17.5-3.47,65.14,.24,86.47,.65,3.71,11.33,7.91,13.39,5.74,7.5-7.93,15.2-84.18,15.2-84.18Z"/>
            <path class="cls-33" d="M200.39,272.65h-22.92c.37-12.63,1.86-43.83,7.7-60.78,.59-1.73,1.24-3.32,1.93-4.72,1.5-2.99,3.4-4.82,5.37-5.69,5.35-2.36,11.15,2.49,10.42,10.97h0c0,.05,0,.11-.01,.16-2.44,11.84,4.58,27.27-2.48,60.06Z"/>
            <path class="cls-6" d="M214.91,16.78c-5.82-10.18-27.85-7.36-29.36,5.02-1.51,12.38-.18,20.46-15.53,19.58-12.22-.7-23.96,11.01-22.81,28.11,1.46,21.88,16.06,12.35,13.26,23.39-2.79,11.04-4.32,22.16,11.34,21.47,15.66-.69,29.07-14.66,26.05-32.32-3.02-17.66,10.92-16.05,13.65-25.07,3.88-12.82,3.39-40.18,3.39-40.18Z"/>
            <path class="cls-27" d="M215.34,71.94s-.6,6.66-4.52,6.66-10.72-8.23-10.72-8.23c.65-1.79,.9-4.19,.92-6.8,0-.72,0-1.46-.03-2.2-.27-7.37-2.01-15.39-2.01-15.39l14.78,7.4s.45,6.2,.91,11.59c.06,.66,.11,1.32,.17,1.95,.19,2.15,.37,4.01,.5,5.02Z"/>
            <path class="cls-9" d="M225.04,119.81c.54-8.24,9.48-20.69,6.59-29.23-2.06-6.85-5.06-18.43-10.33-19.8-2.14-.55-3.36-2.06-6.3-2.13,0,0,.69,7.22-2.85,7.27-6.82,.1-11.32-8.89-11.32-8.89-3.64-.59-15.94,2.52-16.72,5.63-.66,10.8,3.09,24.18,5.2,36.04,.15,5.98-1.54,10.69-2.35,14.02-1.31,3.43-3.34,7.19-3.4,7.94,0,0,24.48,9.36,41.05,1.59,0,0,.07-6.88,.43-12.45Z"/>
            <path class="cls-19" d="M215,68.66s10.7,11.55,11.54,25.09c.84,13.54-3.26,33.27-3.26,33.27l4.26-1.53s5.37-20.33,5.35-35c-6.43-18.27-9.93-20.01-9.93-20.01l-7.97-1.82Z"/>
            <g>
              <path class="cls-10" d="M198.94,40.87c-.55,12.11,6.72,22.27,16.23,22.7,9.51,.43,17.66-9.04,18.21-21.14,.55-12.11-6.72-22.27-16.23-22.7-9.51-.43-17.66,9.04-18.21,21.14Z"/>
              <path class="cls-6" d="M198.3,44.28c7,1.04,14.82-6.78,19.83-10.08,5.49-.36,10.91-4.4,11.94-6.29-.14-7.26-4.19-11.3-19.02-11.23-9.14,.05-24.67,11.73-12.74,27.6Z"/>
              <path class="cls-6" d="M213.1,33.11s14.22,3.04,20.28,9.32c7.18-5.47,2.38-12.43-3.6-16.46-5.18,.4-16.67,7.14-16.67,7.14Z"/>
              <path class="cls-10" d="M203.2,42.18c1.68,2.3,1.51,5.28-.38,6.66-1.89,1.37-4.77,.62-6.45-1.69-1.68-2.3-1.51-5.28,.38-6.66,1.89-1.37,4.77-.62,6.45,1.68Z"/>
            </g>
            <path class="cls-19" d="M188.35,69.39s9.05-3.28,12.53-2.96c3.24,7.92,6.69,13.33,7.45,25.81,.76,12.48-2.33,17.38,.34,35.73-7.35,1.57-20.71,1.41-28.19-4.26,3.74-7.48,4.13-8.71,4.01-20.45-.12-11.74,3.86-33.87,3.86-33.87Z"/>
            <path class="cls-2" d="M183.03,72.89c-6.69,10.45-8.3,43.64-.23,54.89,8.02,.15,15.92-7.13,15.92-7.13,0,0-2.53-27.72-1.3-35.49,.49-3.13,2.56-11.46-1.37-13.89-5.96-3.69-11.35-.98-13.02,1.62Z"/>
            <g>
              <g>
                <path class="cls-17" d="M248.49,124.83h0c-.35-1.67-.16-3.41,.57-4.96l3.73-7.98-4.31-2.01-3.76,8.04c-.7,1.51-1.87,2.75-3.33,3.55l-.07,.04c-1.7,.94-3.06,2.39-3.88,4.14l-8.18,17.23c-.48,1.04-.04,2.27,1,2.75l6.66,3.11c1.04,.48,2.27,.04,2.75-1l8.15-17.16c.84-1.8,1.07-3.83,.66-5.78Z"/>
                <rect class="cls-17" x="249.53" y="108.44" width="2.11" height="5.21" rx=".64" ry=".64" transform="translate(43.9 291.05) rotate(-64.95)"/>
              </g>
              <path class="cls-10" d="M227.83,131.4s-27.75-8.68-32.88-10.81c-5.37-2.22-9.59,5.28-10.85,10.7,15.54,5.57,28.7,6.48,42.77,5.85,.2-3.2,.95-5.75,.95-5.75Z"/>
              <path class="cls-10" d="M226.29,137.02c.64-2.02-.1-4.16,.91-5.45,.61-.78,2.45-.77,3.9-1.58,1.41-.79,1.75-2.51,3.47-3.45,1.49-.82,2.23-.86,2.64-.37l-1.76,3.7c-.2,1.1,.76,2.55,5.11,4.12,3.32,1.2,6.22,.81,6.03,2.74-.12,1.27-1.88,.64-4.2-.09,2.58,1.62,3.29,.62,3.31,2.21,.03,1.93-4.4,.45-6.42-.59,2.36,2.43,5.07,1.38,5.08,2.63-.06,1.41-2.69,2.11-5.75-.15,2.38,2.46,4.04,1.56,3.78,2.73-.28,1.22-5.32,1.24-9.76-1.52-1.14-.71-6.34-4.91-6.34-4.91Z"/>
            </g>
            <path class="cls-35" d="M198.43,117.27c.95-.35,.06,1.8,.72,2.77,.65,.97,1.85,1.25,.87,2.14-.98,.89-8.46,9.59-16.95,8.74-1.25-1.16-4.9-5.88-3.99-9.99,4.26,1.25,19.35-3.66,19.35-3.66Z"/>
            <path class="cls-2" d="M201.02,63.75l-5.32,3.22,5.17,10.46,5.91,4.31s-2.69-10.03-5.76-17.99Z"/>
            <polygon class="cls-2" points="214.78 66.29 220.13 69.42 224.04 76.3 223.28 81.46 215 68.66 214.78 66.29"/>
          </g>
        </g>
        <g>
          <path class="cls-34" d="M280.93,153.71l-.31,3.92-8.85,113.52c0,.58-.28,1.1-.75,1.5h-72.91c-.47-.4-.75-.93-.75-1.5l-3.5-49.84-1.39-19.84-3.08-43.84-.38-5.44c0-1.25,4.73-6.1,6.37-6.1l3.64,.02h0l14.4,.07,13.11,.07,5.07,.02h0l8.78,.04,34.59,.17c3.58-1.19,5.97,5.97,5.97,7.22Z"/>
          <path class="cls-1" d="M285.11,146.09h-101.47c-1.64,0-2.98,.97-2.98,2.16v7.21c0,1.19,1.34,2.16,2.98,2.16h101.47c1.64,0,2.98-.97,2.98-2.16v-7.21c0-1.19-1.34-2.16-2.98-2.16Z"/>
          <g class="cls-5">
            <path class="cls-3" d="M234.97,171.19c-.33,0-.65,0-.97,.02-10.92,.4-20.19,7.4-23.9,17.13-1.12,2.94-1.74,6.13-1.74,9.46,0,9.25,4.74,17.41,11.93,22.18,4.21,2.8,9.26,4.43,14.68,4.43,2.43,0,4.79-.33,7.03-.94,11.27-3.09,19.58-13.43,19.58-25.66,0-14.67-11.94-26.61-26.61-26.61Zm7.02,50.49c-2.23,.66-4.59,1.01-7.02,1.01-5.38,0-10.36-1.71-14.44-4.63-6.32-4.52-10.45-11.91-10.45-20.26,0-2.51,.37-4.93,1.07-7.22,3.06-10.06,12.33-17.45,23.32-17.67,.17,0,.33,0,.5,0,13.72,0,24.89,11.16,24.89,24.89,0,11.28-7.55,20.84-17.86,23.88Z"/>
            <g>
              <path class="cls-3" d="M240.17,192.93c-.85-.85-1.58-2.6-1.6-3.81l-.04-3.03c.26-.07,.45-.31,.45-.59,0-.34-.28-.62-.63-.62h-6.77c-.34,0-.62,.28-.62,.62,0,.28,.19,.51,.45,.59l-.04,3.03c-.01,1.21-.74,2.96-1.6,3.81l-.89,.88c-1.08,1.09-1.93,3.15-1.93,4.69v14.1c0,1.71,1.39,3.11,3.1,3.11h9.82c1.71,0,3.11-1.39,3.11-3.11v-14.1c0-1.54-.85-3.59-1.93-4.68l-.88-.89Z"/>
              <path class="cls-3" d="M231.93,184.4h6.08c.34,0,.63-.28,.63-.63v-3.25c0-.34-.28-.62-.63-.62h-6.08c-.34,0-.62,.28-.62,.62v3.25c0,.35,.28,.63,.62,.63Z"/>
            </g>
          </g>
        </g>
      </g>
      <g>
        <g id="c">
          <path class="cls-37" d="M467.83,60.74s-23.47,11.41-28.58,32.89c4.63,8.88,27.81,7.94,27.81,7.94l.77-40.83Z"/>
          <path class="cls-47" d="M473.26,131.98l32.7,17.18s-26.68,50.33-42.01,65.91c-2.67,2.71-17.96-1.51-19.06-4.76-4.01-11.84,28.36-78.33,28.36-78.33Z"/>
          <path class="cls-33" d="M466.61,272.65h-20.2c-.21-24.31-1.41-40.19-1.83-52.14-.02-.71-.05-1.41-.07-2.09-.11-3.82-.12-7.23,.03-10.41h0c.05-1.1,.12-2.16,.22-3.2,0,0,0,0,0-.01,0,0,0,0,0-.01,0,0,0,0,0-.01,.03-.39,.07-.77,.11-1.16,.03-.06,.06-.11,.09-.17,0,0,0,0,0,0h0s.05-.09,.07-.14c.8-1.42,1.82-2.57,2.98-3.41,.38-.28,.78-.53,1.19-.74,2.78-1.47,6.13-1.49,9.25,0,.95,.45,1.88,1.05,2.76,1.79,.84,.7,1.63,1.54,2.37,2.5,.42,.55,.82,1.15,1.2,1.79,.45,.77,.87,1.61,1.24,2.5,.13,.3,.24,.6,.36,.92,.08,.29,.15,.58,.23,.87,.17,.67,.32,1.35,.47,2.06h0c.02,.12,.05,.23,.07,.35,.55,2.69,.95,5.64,1.24,8.75,.06,.6,.11,1.2,.15,1.8,1.35,17.57-.73,39.62-1.94,50.16Z"/>
          <path class="cls-26" d="M480.47,139.75l39.14-9.48s1.65,63.6-3.12,84.93c-.83,3.71-14.61,7.91-17.26,5.74-9.66-7.93-18.76-81.19-18.76-81.19Z"/>
          <path class="cls-26" d="M527.9,272.65h-17.51c-6.5-20.16-9.7-33.01-11.86-42.63-1.61-7.17-2.65-12.54-4.04-17.78,0-.03,0-.05,0-.08h0c-.65-5.53,2.28-9.53,6.3-11.01,4.45-1.64,10.25-.2,14.03,5.65,.86,1.34,1.66,2.85,2.41,4.49h0c8.12,17.72,10.21,50.77,10.68,61.36Z"/>
          <g>
            <polygon id="v-2" class="cls-27" points="495.07 42.29 495.06 42.29 487.76 42.32 486.1 59.57 494.63 64.07 503.72 59.62 503.72 39.86 495.07 42.29"/>
            <g>
              <path class="cls-6" d="M494.78,43.12c6.62,.84,10.16-7.6,10.16-7.6,4.07-.64,3.41-4.69,3.41-4.69,1.93-.57,4.52-2.62,3.72-6.31-.67-3.12-3.73-3-4.09-6.65-.29-2.93,1.87-10.08-7.47-10.71,0,0-.19-5.44-5.78-6.78-6.86-1.65-8.6,2.47-11.62,3.19-3.37,.8-10.59-2.35-11.59,5.43,0,0-4.81,.07-7.04,3.55-2.08,3.24-.91,7.42,.46,8.96,0,0-3.86,1.28-4.78,4.93-.61,2.44,.32,5.61,2.74,7.17,1.54,.99,3.02,1.09,3.02,1.09,1.57,.27,1.64,4.49,3.02,5.31,2.22,1.33,4.63,2.27,7.08,3.02l18.77,.08Z"/>
              <path class="cls-10" d="M505.13,31.29c1.36,12.02-6.48,23.72-15.93,24.79-9.44,1.07-16.91-8.9-18.27-20.93-1.36-12.02,5.19-22.64,14.64-23.7,9.44-1.07,18.2,7.81,19.56,19.84Z"/>
              <path class="cls-6" d="M466.21,23.66l18.14-16.17,23.03,11.8-2.88,16.62c-.57-7.68-5.28-5.21-7.71-7.47-2.46-2.28-3.53-5.84-9.33-2.71,0,0-4.7-3.25-7.12,1.31-1.87,3.53-4.41,2.84-6.94,3.02-2.98,.21-2.28,3.11-4.1,3.01l-3.09-9.43Z"/>
              <path class="cls-10" d="M502.35,30.74c-1.53,2.4-1.17,5.36,.8,6.61,1.97,1.25,4.8,.31,6.32-2.09,1.53-2.4,1.17-5.36-.8-6.61-1.97-1.25-4.8-.31-6.32,2.09Z"/>
            </g>
          </g>
          <g id="v">
            <path class="cls-24" d="M524.58,140.68s-15.29,1.58-29.61,1.67c-14.32-.11-29.61-2.88-29.61-2.88,0,0,1.92-26.31,1.73-36.41-.28-11.6,.74-26.98,.74-42.31,0,0,10.16-1.64,15.89-2.34,.93-.12,1.75-.2,2.38-.26,0,0,3.27,6.85,17.49,0,.75-.07,1.67-.07,2.71-.01,5.98,.36,15.61,2.61,15.61,2.61,0,15.29,.62,30.27,.41,41.87,.64,10.35,2.26,38.06,2.26,38.06Z"/>
          </g>
          <g>
            <rect class="cls-17" x="466.1" y="66.07" width="38.14" height="32.37" transform="translate(5.83 -29.07) rotate(3.45)"/>
            <rect class="cls-3" x="483.13" y="70.62" width="22.73" height="11.89" transform="translate(54.75 -162.21) rotate(19.7)"/>
            <polygon class="cls-25" points="480.65 99.06 461.86 100.94 458.8 70.31 480.6 72.5 480.65 99.06"/>
            <rect class="cls-14" x="457.2" y="74.63" width="19.09" height="30.45" transform="translate(-6.63 46.96) rotate(-5.72)"/>
            <polygon class="cls-44" points="503.68 120.58 465.85 132.97 453.39 82.57 491.21 70.18 503.68 120.58"/>
            <rect class="cls-25" x="462.81" y="76.29" width="41.02" height="51.92" transform="translate(-10.27 122.76) rotate(-14.32)"/>
            <rect class="cls-3" x="465.12" y="80.63" width="42.01" height="52.23" transform="translate(-1.44 6.76) rotate(-.8)"/>
            <rect class="cls-42" x="457.42" y="78.79" width="41.02" height="51.92" transform="translate(-10.77 80.99) rotate(-9.58)"/>
            <polygon class="cls-3" points="469.72 78.89 481.73 70.71 483.66 75.55 469.72 78.89"/>
            <polygon class="cls-8" points="474.79 131.61 476.92 137.06 491.45 128.8 474.79 131.61"/>
          </g>
          <path class="cls-37" d="M506.3,58.13h0c-.99,1.65-2.39,2.9-4.36,3.9-3.13,1.58-7.38,2.25-9.99,2.04-2.07-.16-4.37-1.01-5.84-2.18-1.56-1.24-2.24-2.82-2.38-3.49,.93-.12,1.89-.26,2.52-.32,0,0,3.12,6.91,17.35,.06,.75-.07,1.67-.07,2.71-.01Z"/>
          <g id="c-2" data-name="c">
            <g>
              <path class="cls-10" d="M482.42,100.77c1.4-3.22,2.7-3.55,2.7-8.14,0-2.12-1.91-4.54-2.71-6.41-1.22-2.88-2.72-5.13-3.38-5.03-1.49,.24-1.66,1.17-1.24,2.99,.32,1.4,1.75,2.9,1.09,4.02-.59,.99-1.63,1.88-5.82-.44-5.34-2.96-6.71-4.92-7.87-3.29-.76,1.07,1.78,2.76,6.76,5.66-3.11-.49-8.7-5.97-9.95-3.53-.91,1.77,7.45,5.71,9.73,6.26-4.39-.08-9.18-4.69-10.03-3.72-1.69,2.12,4.94,5.8,8.87,6.11-3.84,.71-6.3-2.21-6.98-1.16-1.27,1.95,6.09,5.54,10.77,5.96,1.39,.12,8.06,.73,8.06,.73Z"/>
              <polygon class="cls-10" points="489.29 102.51 482.45 100.77 484.47 91.79 491.44 93.94 489.29 102.51"/>
            </g>
            <path id="c-3" data-name="c" class="cls-37" d="M518.98,99.14c-13.07-4.04-30.69-8.01-30.69-8.01-3.33,4.74-2.68,11.21-2.68,11.21,18.77,15.17,44.7,20.36,53.02,16.56,7.59-3.47,2.34-47.57-16.72-58.16l-.66,.06c-6.53,11.05-2.27,38.33-2.27,38.33Z"/>
          </g>
          <g>
            <path class="cls-10" d="M463.66,120.19c1.44-3.2,.81-4.38,4.22-7.47,1.57-1.42,4.65-1.64,6.57-2.31,2.96-1.03,5.63-1.44,5.99-.88,.83,1.26,.25,2.02-1.38,2.93-1.26,.7-3.33,.65-3.71,1.9-.34,1.11-.29,2.47,4.24,4.01,5.78,1.97,8.16,1.66,7.73,3.62-.28,1.29-3.24,.54-8.73-1.2,2.45,1.98,10.27,2.43,9.31,5-.7,1.87-9.23-1.68-11.18-2.99,3.01,3.2,9.64,3.64,9.5,4.93-.43,2.67-7.62,.24-10.49-2.46,2.06,3.32,5.87,3.18,5.55,4.38-.59,2.25-8.19-.78-11.65-3.97-1.02-.94-5.96-5.48-5.96-5.48Z"/>
            <polygon class="cls-10" points="457.75 116.27 463.64 120.16 468.93 112.64 462.65 108.93 457.75 116.27"/>
          </g>
          <path class="cls-37" d="M439.25,93.63s6.75,19.39,22.18,27.51c1.09-3.31,4.78-11.87,4.78-11.87,0,0-6.47-7.7-10.67-13.96-2.54-.44-16.29-1.68-16.29-1.68Z"/>
        </g>
        <g>
          <path class="cls-28" d="M494.63,272.65c.43-.39,.69-.9,.69-1.45l3.21-41.18,.71-9.08,1.54-19.8,3.39-43.47,.31-3.92c0-.25-.09-.73-.27-1.34-.72-2.43-2.83-6.84-5.7-5.88l-17.15-.09-14.86-.07h0l-47.57-.24c-1.64,0-6.37,4.85-6.37,6.1l.38,5.44,7.97,113.52c0,.55,.26,1.06,.69,1.45h73.03Z"/>
          <path class="cls-44" d="M508.66,146.15h-101.47c-1.64,0-2.98,.97-2.98,2.16v7.21c0,1.19,1.34,2.16,2.98,2.16h101.47c1.64,0,2.98-.97,2.98-2.16v-7.21c0-1.19-1.34-2.16-2.98-2.16Z"/>
          <g class="cls-5">
            <path class="cls-3" d="M483.37,188.35c-3.84-9.99-13.53-17.1-24.85-17.1-.98,0-1.94,.05-2.89,.16-13.32,1.44-23.72,12.76-23.72,26.45,0,9.57,5.08,17.97,12.67,22.66,4.05,2.5,8.83,3.95,13.93,3.95,3.55,0,6.94-.7,10.04-1.96,9.71-3.97,16.57-13.52,16.57-24.64,0-3.35-.62-6.55-1.76-9.51Zm-14.97,32.35c-3.03,1.32-6.37,2.05-9.88,2.05-5.19,0-10.01-1.6-14-4.32-6.57-4.49-10.88-12.03-10.88-20.57,0-12.49,9.25-22.86,21.26-24.62,1.18-.17,2.4-.26,3.63-.26,11.05,0,20.45,7.24,23.68,17.24,.78,2.41,1.2,4.98,1.2,7.65,0,10.21-6.18,19.01-15,22.84Z"/>
          </g>
          <g class="cls-5">
            <polygon class="cls-3" points="471.99 211.94 445.05 211.94 445.05 188.06 450.86 181.33 471.99 181.33 471.99 211.94"/>
            <polygon class="cls-3" points="445.05 188.06 450.86 181.33 451.85 188.06 445.05 188.06"/>
            <g>
              <rect class="cls-18" x="452.81" y="186.27" width="16.19" height="1.79"/>
              <rect class="cls-18" x="448.03" y="199.15" width="20.97" height="1.79"/>
              <rect class="cls-18" x="452.81" y="207.74" width="16.19" height="1.79"/>
              <rect class="cls-18" x="448.03" y="194.86" width="6.9" height="1.79"/>
              <rect class="cls-18" x="448.03" y="203.45" width="10.66" height="1.79"/>
              <rect class="cls-18" x="459.54" y="203.45" width="9.36" height="1.79"/>
              <rect class="cls-18" x="455.67" y="194.86" width="13.33" height="1.79"/>
              <rect class="cls-18" x="448.03" y="190.56" width="12.41" height="1.79"/>
              <rect class="cls-18" x="461.34" y="190.56" width="7.66" height="1.79"/>
            </g>
          </g>
        </g>
      </g>
      <g>
        <g>
          <polygon class="cls-10" points="118.26 126.28 114.67 125.08 116.48 117.04 122.26 119.05 118.26 126.28"/>
          <path class="cls-28" d="M116.07,126.03c-6.27-.12-34.55-4.09-41.39-10.8,2.91-5.12,5.29-11.29,10.98-10.64,9.44,.85,33.25,12.28,33.25,12.28l-2.84,9.15Z"/>
          <path class="cls-28" d="M85.63,67.81s-13.96,7.05-14.84,19.85c-.56,8.14-.69,20.88,3.69,26.67,2.51,3.32,9.71-4.3,13.01-4.33,4.92-22.58,1.53-35.51-1.86-42.19Z"/>
          <g>
            <path class="cls-10" d="M129.78,120.56c-1.42-.44-5.69-2.36-8.26-1.54-1.54,.49-2.58,2.73-2.98,4.43-2.6,2.13,1.12,8.97,1.12,8.97l9.57-7.13,.55-4.74Z"/>
            <g>
              <path class="cls-17" d="M148.83,118.14l1.94,4.18c.16,.34,0,.74-.33,.9l-3.31,1.53-2.51-5.41,3.31-1.53c.34-.16,.74,0,.9,.33Z"/>
              <path class="cls-3" d="M110.47,130.84s23.25-11.3,25.18-11.47c.68-.06,1.3-.07,2.05-.01h6.92s2.51,5.4,2.51,5.4l-4.48,5.27c-.44,.6-.84,1.07-1.33,1.55-1.38,1.36-25.01,11.83-25.01,11.83-.91,.42-1.98,.03-2.4-.88,0,0-1.21-3.68-1.74-4.84-.54-1.16-2.56-4.46-2.56-4.46-.42-.91-.03-1.98,.88-2.4Z"/>
            </g>
            <path class="cls-10" d="M128.74,133.85c-1.2-.34-2.79,.72-3.41,2.29,.06,.06-.02,.12-.02,.12-.11-.12-.24-.13-.43-.19-1.03-.15-2.29,.57-2.7,1.67-.4,1.1-.02,2.23,1.07,2.44,.82,.2,1.91-.29,2.46-1.09,.16,.18,.46,.37,.78,.44,.82,.2,1.91-.29,2.67-1.14,.19,.07,.37,.13,.56,.2,1.09,.21,2.5-.62,3.22-1.94,.22,.24,.46,.37,.78,.44,1.22,.22,2.63-.61,3.22-1.94,.58-1.33,.03-2.64-1.24-2.92-1.09-.21-2.17,.28-2.88,1.19-.22-.24-.52-.43-.84-.5-.82-.2-1.91,.29-2.67,1.14-.19-.07-.37-.13-.56-.2Z"/>
            <path class="cls-10" d="M129.86,120.58c-1.14-.22-2.34,1.07-2.68,2.86-.34,1.8,.31,3.43,1.45,3.64,1.14,.22,2.34-1.07,2.68-2.86,.34-1.8-.31-3.43-1.45-3.64Z"/>
          </g>
          <path class="cls-44" d="M64.94,138.14l-32.7,17.18s26.68,50.33,42.01,65.91c2.67,2.71,17.96-1.51,19.06-4.76,4.01-11.84-28.36-78.33-28.36-78.33Z"/>
          <path class="cls-44" d="M91.86,272.65h-20.93c-1.46-14.72-3.09-39.3,.17-54.91h0c.21-1.02,.45-2,.7-2.93,1.26-3.41,3.09-5.98,5.2-7.74,5.53-4.62,12.88-3.6,16.22,2.53,.03,.06,.06,.11,.09,.17,.04,.4,.08,.8,.12,1.2,0,.01,0,.02,0,.03,.09,1.03,.16,2.08,.21,3.16h0c.6,12.49-1.31,28.65-1.79,58.49Z"/>
          <path class="cls-44" d="M57.73,145.91l-39.14-9.48s-1.65,63.6,3.12,84.93c.83,3.71,14.61,7.91,17.26,5.74,9.66-7.93,18.76-81.19,18.76-81.19Z"/>
          <path class="cls-44" d="M43.72,218.32s0,.05,0,.08c-3.06,11.52-4.4,23.65-13.95,54.26H10.63c.9-14.01,3.45-40.15,10.34-55.21,.75-1.64,1.55-3.14,2.41-4.49,7.2-11.14,21.7-6.29,20.34,5.36Z"/>
          <g id="v-2" data-name="v">
            <path id="h-5" class="cls-28" d="M44.83,59.02l29.88,4.35,10.93,4.43c.61,17.3-12.74,79.03-12.74,79.03,0,0-19.33,7.2-30.77,7.31-15.7,.15-27.7-8.38-27.7-8.38-.58-18.31,3.88-40.96,11.61-63.95,2.95-8.78,10.75-19.64,18.79-22.8Z"/>
          </g>
          <g>
            <path id="v-2-2" data-name="v-2" class="cls-27" d="M64.03,47.09h0s7.21,.6,7.21,.6l.27,17.17s-.1,4.07-7.49,4.65c-6.35,.5-9.91-5.99-9.91-5.99l2.82-16.97,7.1,.54Z"/>
            <g>
              <path class="cls-10" d="M55.42,33.85c-.74,12.47,5.19,22.94,14.99,23.52,9.8,.58,18.34-9.05,19.09-21.53,.74-12.47-6.6-23.06-16.39-23.65-9.8-.58-16.94,9.18-17.69,21.65Z"/>
              <path class="cls-36" d="M51.97,23.19c1.21-11.79,12.6-13.53,12.6-13.53,0,0-2.22-1.3-.97-4.69,1.48,1.36,3.45,2.24,5.45,2.43,13.5,1.26,21.42,5.05,19.09,9.99-.83,1.76,7.58,4.37,1.38,15.89-.54-1.61-.22-7.18-2.56-8.88-2.35-1.7-1.64,2.84-7.36,1.04-5.77-1.81-9.14-5.01-13.9-3.51-3.85,1.45-10.89,14.72-10.88,15.72-.02-2.3-3.39-9.28-2.86-14.46Z"/>
              <path class="cls-36" d="M88.3,42.5s-2.41,6.39-4.2,7.88c.24-2.91-6.35-2.33-9.11-2.61-4.99-.52-9.13-5.85-12.04,.28-8.42-.76-5.93-15.06-5.93-15.06-3.37,10.66-2.47,25.75,13.73,28.8,10.44,1.96,17.4-8.89,17.54-19.28Z"/>
              <path class="cls-10" d="M56.86,33.01c1.7,2.39,1.5,5.47-.46,6.86-1.96,1.39-4.93,.59-6.63-1.81-1.7-2.39-1.5-5.47,.46-6.86,1.96-1.39,4.93-.59,6.63,1.81Z"/>
            </g>
          </g>
          <g>
            <g>
              <g>
                <path class="cls-19" d="M62.87,98.72l3.33,3.18c.27,.26,.28,.69,.02,.96l-2.52,2.64-4.31-4.12,2.52-2.64c.26-.27,.69-.28,.96-.02Z"/>
                <path class="cls-3" d="M31.82,124.57s17.51-19.02,19.24-19.89c.61-.31,1.19-.54,1.9-.76l6.44-2.54,4.31,4.12-2.24,6.55c-.19,.72-.39,1.3-.67,1.93-.78,1.77-18.95,20.17-18.95,20.17-.69,.72-1.83,.75-2.56,.06,0,0-2.47-2.98-3.39-3.86-.93-.88-4.02-3.21-4.02-3.21-.72-.69-.75-1.83-.06-2.56Z"/>
              </g>
              <path class="cls-8" d="M59.39,113.94s-.06,0-.09,0c-6.5-1.1-8-7.17-8.02-7.23-.07-.28,.11-.56,.39-.63,.28-.07,.56,.11,.63,.39h0c.05,.22,1.37,5.46,7.17,6.44,.28,.05,.47,.32,.43,.6-.04,.25-.26,.43-.51,.43Z"/>
            </g>
            <path class="cls-10" d="M31.8,117.55c1.35-2.1,1.17-4.77,2.72-5.93,.93-.7,3.02-.12,4.93-.59,1.85-.46,2.67-2.24,4.82-3.09,1.76-.69,2.62-.36,2.94,.33l-2.88,3.87c-.56,1.19,.2,3.24,4.66,6.36,3.41,2.39,6.83,2.84,6.01,4.98-.53,1.4-2.34,.14-4.76-1.4,2.43,2.64,3.55,1.72,3.09,3.54-.56,2.2-5.15-.86-7.13-2.66,1.93,3.5,5.35,3.14,4.97,4.56-.51,1.58-3.71,1.57-6.5-1.95,1.95,3.54,4.12,3.02,3.45,4.28-.69,1.3-6.44-.24-10.63-4.75-1.08-1.16-5.7-7.55-5.7-7.55Z"/>
            <path class="cls-28" d="M44.56,59.05S18.17,66.26,0,92.87c6.34,12.58,16.07,7.15,16.07,7.15l25.76-14.48s6.66-6.8,6.74-15.54c.07-8.48-4-10.95-4-10.95Z"/>
            <path class="cls-28" d="M38.46,110.18l-22.37-17.92s-4.81-8.17-16.09,.61c1.64,7.07,7.9,19.48,31.27,26.34,3.41-2.49,7.18-9.03,7.18-9.03Z"/>
          </g>
          <path class="cls-10" d="M75.3,52.97c1.95,0,3.36-.55,3.42-.58,.45-.18,.67-.69,.49-1.14-.18-.45-.68-.67-1.13-.49-.21,.08-5.02,1.89-8.7-2.25-.32-.36-.87-.39-1.23-.07-.36,.32-.39,.87-.07,1.23,2.36,2.65,5.12,3.25,7.03,3.28,.07,0,.13,0,.2,0Z"/>
          <path class="cls-8" d="M122.02,136.71c-.1,0-.2-.03-.28-.08-3.32-2.16-3.73-7.45-3.75-7.68-.02-.29,.2-.54,.48-.56,.29-.02,.54,.2,.56,.48h0s.39,5,3.28,6.88c.24,.16,.31,.48,.15,.72-.1,.15-.27,.24-.44,.24Z"/>
          <path class="cls-8" d="M140.74,130.54c-.12,0-.23-.04-.33-.12-4.4-3.57-4.91-9.25-4.93-9.49-.02-.29,.19-.54,.48-.56,.29-.02,.54,.19,.56,.48h0c0,.05,.5,5.47,4.55,8.76,.22,.18,.26,.51,.08,.73-.1,.13-.25,.19-.4,.19Z"/>
        </g>
        <g>
          <path class="cls-21" d="M165.06,153.71l-.31,3.92-8.85,113.52c0,.58-.28,1.1-.75,1.5H82.25c-.47-.4-.75-.93-.75-1.5l-3.45-49.06-1.05-15.02-3.47-49.44-.09-1.26h0s-.29-4.18-.29-4.18c0-1.25,4.72-6.1,6.37-6.1l79.58,.4c3.58-1.19,5.97,5.97,5.97,7.22Z"/>
          <path class="cls-12" d="M169.24,146.09H67.77c-1.64,0-2.98,.97-2.98,2.16v7.21c0,1.19,1.34,2.16,2.98,2.16h101.47c1.64,0,2.98-.97,2.98-2.16v-7.21c0-1.19-1.34-2.16-2.98-2.16Z"/>
          <g class="cls-5">
            <path class="cls-3" d="M119.1,171.19c-14.67,0-26.61,11.94-26.61,26.61s11.94,26.61,26.61,26.61,26.61-11.94,26.61-26.61-11.94-26.61-26.61-26.61Zm0,51.49c-13.72,0-24.89-11.16-24.89-24.89s11.16-24.89,24.89-24.89,24.89,11.16,24.89,24.89-11.17,24.89-24.89,24.89Z"/>
          </g>
          <g class="cls-5">
            <g>
              <path class="cls-3" d="M120.8,178.05h-4.6c-.37,0-.68,.3-.68,.68v3.64h5.95v-3.64c0-.37-.3-.68-.68-.68Z"/>
              <path class="cls-3" d="M124.96,209.81h-12.94c-.25,0-.45,.2-.45,.45v7.86c0,1,.81,1.81,1.81,1.81h10.23c1,0,1.81-.81,1.81-1.81v-7.86c0-.25-.2-.45-.45-.45Z"/>
              <rect class="cls-3" x="111.7" y="195.11" width="13.64" height="13.58" rx=".45" ry=".45"/>
              <path class="cls-3" d="M125.23,190.5c-.23-.65-.49-1.21-.85-1.86h-11.75c-.36,.65-.61,1.21-.85,1.86-.65,1.82,.31,3.48,.31,3.48h12.82s.96-1.66,.31-3.48Z"/>
              <polygon class="cls-3" points="112.63 188.64 115.53 182.36 116.31 182.36 113.57 188.77 112.63 188.64"/>
              <polygon class="cls-3" points="124.38 188.64 121.48 182.36 120.61 182.36 123.35 188.77 124.38 188.64"/>
            </g>
          </g>
        </g>
      </g>
      <g>
        <g>
          <path class="cls-30" d="M373.47,73.62c9.43,3.39,15.33,22.24,12.46,45.65-7.36,4.72-10.79-8.11-10.79-8.11,0,0-3.99-14.84-6.03-20.51-4.88-13.63-.19-18.66,4.36-17.03Z"/>
          <path class="cls-28" d="M317.62,80.71c-6.24-9.22-11.34-23.62-1.65-27.49,9.69-3.87,8.11-11.38,5.91-18.63-2.19-7.25,5.66-21.64,21.6-22.56,17.67-1.03,30.37,11.58,29.19,18.91-1.18,7.32-.22,11.96,5.23,14.49,5.45,2.53,11.36,12.74,4.47,21.2-6.89,8.45,.43,3.97-.05,12.27-.48,8.3-58.08,11.62-64.72,1.82Z"/>
          <polygon class="cls-6" points="352.21 168.8 377.75 153.85 370.04 128.68 328.88 129.4 322.83 155.11 349.03 168.87 352.21 168.8"/>
          <path class="cls-46" d="M385.81,88.41c-2.75-10.64-14.16-17.01-16.71-17.69l-2-.42-3.54,15.98s4.7,6.29,7.94,11.93l14.31-9.8Z"/>
          <path class="cls-30" d="M322.73,74.56c-9.27,3.83-14.78,27.89-15.84,42.48,7.57,4.38,11.21-4.32,11.21-4.32,0,0,8.01-15.59,9.78-21.36,4.25-13.84-.67-18.65-5.14-16.81Z"/>
          <path class="cls-46" d="M311.47,89.67c2.13-11.26,12.83-17.18,15.35-17.98l1.98-.51,4.27,15.8s-5.16,6.18-8.14,11.96l-13.46-9.27Z"/>
          <path class="cls-17" d="M370.26,95.32c-.05-2.37-1.43-6.45-3-9.04-1.32-2.18-.88-5.17-.94-7.83-.07-2.9-.01-5.51,.78-8.15,0,0-5.73-1.97-12.26-2.52l-14.24,.53c-7.16,.86-12.43,2.89-12.43,2.89,.91,2.6,1.44,5.38,1.51,8.28,.06,2.75,.19,5.6-1.01,7.94-1.36,2.65-2.42,6.63-2.37,8.91,.05,2.04,1.11,3.55,2.76,7.28l-.85,26.86,42.17-.74-2.71-26.47c1.2-2.81,2.64-5.87,2.59-7.95Z"/>
          <g>
            <path class="cls-3" d="M332.76,91.64l6.61,10.42c-2.15,2.5-12.6,13.15-17.35,21.12-6.78,11.36-5.03,39.12,21.13,39.12s24.63-21.69,23.05-32.63c-1.91-13.25-23.8-25.29-21.39-28.3,2.41-3.01,5.17-12.65,5.17-12.65l-8.19,3.09-6.27-3.09-2.76,2.91Z"/>
            <path class="cls-20" d="M341.98,103.35s4.95,16.35,8.92,19.97c3.97,3.61-6.21-14.43-8.92-19.97Z"/>
            <path class="cls-20" d="M345.25,105.06s7.33,15.24,10.93,14.16c3.59-1.08-10.93-14.16-10.93-14.16Z"/>
            <path class="cls-20" d="M340.56,102.03s-2-2.39-3.19-7.07c1.94,2.11,3.48,3.36,3.99,5.3,1.31-2.62,3.25-5.02,3.36-4.79-.11,2.62-2.26,6.9-2.26,6.9l-1.9-.34Z"/>
            <path class="cls-17" d="M347.18,144.81c1.34-1.08,3.27-.89,3.27-.89,0,0-.23,1.93-1.57,3.01-1.34,1.08-3.27,.89-3.27,.89,0,0,.23-1.93,1.57-3.01Z"/>
            <path class="cls-16" d="M331.4,129.41s.53,2.64-.81,4.2c-1.33,1.55-3.14,2.19-4.03,1.42-.89-.77-.53-2.64,.81-4.2,1.33-1.55,4.03-1.42,4.03-1.42Z"/>
            <path class="cls-16" d="M340.05,136.82s-2.22,1.53-4.17,.92c-1.95-.61-2.9-3.13-2.9-3.13,0,0,2.22-1.53,4.17-.92,1.95,.61,2.9,3.13,2.9,3.13Z"/>
            <g>
              <path class="cls-45" d="M340.61,140.17s.98,3.26-1.13,4.33c-.78-.05-.69-2.19-.69-2.19l-.3-1.94,2.12-.2Z"/>
              <path class="cls-29" d="M338.79,142.31s-.18,1.34,3.21,2.95c-1,.62-3.66,.82-3.66,.82l-1.3-2.46,1.75-1.31Z"/>
              <path class="cls-13" d="M338.79,142.31c-.05,.31-.04,.63,.04,.96,.1,.43,.29,.81,.56,1.13-5.02-.85-9.72-2.78-12.6-6.62-.29-.55-.47-1.08-.57-1.58-.33-1.82,.6-3.18,1.99-3.64,.48-.16,1.01-.21,1.56-.14,1.27,.16,2.67,.97,3.81,2.62,1.33,1.92,2.94,2.98,4.72,3.3,.32,.63,.83,1.14,1.43,1.48,.27,.16,.56,.27,.87,.35-.99,.31-1.68,1.16-1.82,2.14Z"/>
              <path class="cls-13" d="M330.39,133.47s0,0,0,0h0Z"/>
              <g>
                <path class="cls-7" d="M329.9,134.24s0,0,0,0c0,0,0,0,0,0Z"/>
                <path class="cls-7" d="M342.04,145.52s0,.02,0,.03c-6.98-.59-13.96-2.91-17.02-9.07-.1-.19-.19-.39-.28-.59-.78-2.35,1.63-3.86,3.47-3.34,.74,.21,1.38,.75,1.68,1.69h0c2.02,3.16,4.88,4.81,9.84,5.57,.27,.16,.56,.27,.87,.35-.99,.31-1.68,1.16-1.82,2.14-.05,.31-.04,.63,.04,.96,.1,.43,.29,.81,.56,1.13,.62,.73,1.6,1.1,2.6,.87,0,0,0,0,.01,0,.01,.09,.03,.17,.04,.26Z"/>
              </g>
              <path class="cls-13" d="M344.42,147.58c-.9,.56-2.19,.97-3.9,1.11-1.24,.1-2.57,.11-3.87,.03-2.38-.16-4.67-.64-6.22-1.45-.79-.42-1.51-.84-2.15-1.26-6.41-4.18-5.79-8.39-3.25-9.53,.36-.16,.77-.26,1.2-.29,1.46-.1,3.2,.64,4.64,2.57,2.1,2.82,5.03,3.57,7.92,3.55-.05,.31-.04,.63,.04,.96,.1,.43,.29,.81,.56,1.13,.62,.73,1.6,1.1,2.6,.87,0,0,0,0,.01,0,.01,.09,.03,.17,.04,.26,0,.01,0,.02,0,.03,.27,1.14,1.25,1.94,2.37,2.03Z"/>
              <path class="cls-22" d="M339.56,146.53c.05,.24,.5,.34,.99,.23,.49-.11,.85-.39,.8-.63-.05-.24-.5-.34-.99-.23-.49,.11-.85,.39-.8,.63Z"/>
              <path class="cls-22" d="M337.53,147.18c-.07,.23,.26,.54,.74,.69s.93,.08,1-.15c.07-.23-.26-.54-.74-.69-.48-.15-.93-.08-1,.15Z"/>
              <path class="cls-22" d="M326.38,143.01c-.18,.09-.17,.47,.03,.85,.2,.37,.5,.6,.68,.5,.18-.09,.17-.47-.03-.85-.2-.37-.5-.6-.68-.5Z"/>
              <path class="cls-22" d="M324.51,140.72c-.18,.09-.17,.47,.03,.85,.2,.37,.5,.6,.68,.5,.18-.09,.17-.47-.03-.85-.2-.37-.5-.6-.68-.5Z"/>
              <path class="cls-22" d="M336.82,145.86c0,.19,.34,.34,.73,.32,.4-.02,.71-.18,.71-.38s-.34-.34-.73-.32c-.4,.02-.71,.18-.71,.38Z"/>
              <path class="cls-22" d="M326.05,142.15c.08,.17,.44,.17,.8,0,.36-.17,.58-.45,.5-.62-.08-.17-.44-.17-.8,0-.36,.17-.58,.45-.5,.62Z"/>
            </g>
            <g>
              <path class="cls-11" d="M357.07,122.62s.81-.56,1.39-1.32c.62-.81,.57-1.52,.57-1.52-.17-.61-.96-.64-1.25-.23,0,0,1.06,.81-.89,2.63l.18,.44Z"/>
              <path class="cls-22" d="M354.12,120s.85,1.37,.27,3.41c-.38,.24-2.8,1.73-2.8,1.73l-.21,1.9s-1.29,1.7-2.68,1.88c.69,.43,1.65,.73,2.25,.61,.16,.49,1.06,1.19,1.57,1.12,.25,.61,.72,1.56,1.36,1.83-.08-.28-.36-2.08-.24-2.71,.47-.28,3.11-2.19,3.11-2.19l1.02-2.94s.98-.59,1.46-.54c.48,.06,1.05,.18,1.05,.18,0,0-1.07-1.05-2.33-.72-.09-.24-1.24-1.44-2.09-1.37-.14-.32-.85-2.03-1.74-2.21Z"/>
              <g id="Layer0_40_MEMBER_4_FILL" data-name="Layer0 40 MEMBER 4 FILL">
                <path class="cls-7" d="M355.66,120.59c-.47-.32-.98-.51-1.54-.58,.76,.45,1.28,1.22,1.57,2.31,.43,0,.81,.12,1.13,.35,.34,.22,.58,.53,.74,.94,1.12-.12,2.02,.09,2.71,.64-.27-.5-.65-.92-1.14-1.26-.51-.35-1.14-.62-1.88-.79-.07-.02-.14-.03-.21-.05-.06-.1-.12-.19-.18-.29-.36-.54-.76-.96-1.21-1.27Z"/>
              </g>
              <g id="Layer0_40_MEMBER_6_MEMBER_0_FILL" data-name="Layer0 40 MEMBER 6 MEMBER 0 FILL">
                <path class="cls-7" d="M348.71,128.93c.27,.41,.6,.75,1.01,1.03,.3,.21,.66,.39,1.07,.54,.17,.06,.34,.12,.53,.17,.13,.19,.27,.36,.41,.52,.24,.27,.51,.51,.8,.7,.42,.29,.88,.49,1.36,.6-.64-.39-1.09-1-1.36-1.83-.36-.03-.68-.15-.96-.34-.28-.19-.51-.45-.66-.77-.88,.04-1.61-.16-2.2-.62Z"/>
              </g>
            </g>
            <g>
              <path class="cls-29" d="M343.85,140.37s.94,.93,.32,2.09c.33,.32,1.96,1,1.96,1l.62-2.3-2.02-1.51-.89,.72Z"/>
              <g>
                <path class="cls-45" d="M354.48,143.99c-.61,.71,0,2.24,1.36,3.41,1.36,1.17,2.96,1.55,3.57,.83,.61-.71,0-2.24-1.36-3.41-1.36-1.17-2.96-1.55-3.57-.83Z"/>
                <path class="cls-7" d="M354.59,143.49c-.61,.71,0,2.24,1.36,3.41,1.36,1.17,2.96,1.55,3.57,.83,.61-.71,0-2.24-1.36-3.41-1.36-1.17-2.96-1.55-3.57-.83Z"/>
              </g>
              <g>
                <path class="cls-23" d="M343.64,140.39c.06,.03,.13,.07,.2,.1,0-.03,0-.05,0-.08,0-.02,0-.03,0-.05-.03,0-.06,0-.09,0-.04,0-.08,.01-.12,.02Z"/>
                <path class="cls-13" d="M343.85,140.37c.26-.02,.52,0,.79,.07,.43,.12,.79,.34,1.07,.65,.1,.11,.19,.23,.27,.36,.31,.51,.42,1.14,.25,1.76-.02,.09-.05,.17-.08,.25,.84,.32,1.77,.62,2.79,.9,5.45,1.48,9.06,1.03,9.39-.18,.11-.41,.15-.94,.06-1.43h0c-.02-.09-.04-.18-.06-.26-.11-.39-.32-.71-.65-.85-.03-.01-.07-.03-.11-.04l-13.45-3.65c-.16,.38-.43,.7-.75,.93,.34,.41,.52,.94,.5,1.49Z"/>
                <path class="cls-41" d="M343.64,140.39c.06,.03,.13,.07,.2,.1,0-.03,0-.05,0-.08,0-.02,0-.03,0-.05-.03,0-.06,0-.09,0-.04,0-.08,.01-.12,.02Z"/>
                <path class="cls-29" d="M343.85,140.37c.26-.02,.52,0,.79,.07,.43,.12,.79,.34,1.07,.65,.1,.11,.19,.23,.27,.36,1.18,.47,2.41,.88,3.43,1.16,3.13,.85,8.61,1.61,8.95,.34,.02-.07,.03-.14,.02-.21h0c0-.09-.02-.17-.06-.26-.1-.26-.34-.54-.68-.82-.03-.02-.05-.04-.08-.07-1.28-1.01-3.93-2.1-7.08-2.95-2.4-.65-4.61-1.03-6.25-1.08,0,.03-.01,.05-.02,.08-.03,.11-.07,.21-.11,.31-.16,.38-.43,.7-.75,.93,.34,.41,.52,.94,.5,1.49Z"/>
              </g>
              <path class="cls-11" d="M343.84,140.41s0-.03,0-.05c-.03,0-.06,0-.09,0,.03,.01,.06,.02,.09,.04Z"/>
              <path class="cls-11" d="M344.09,137.95c-.16,.38-.43,.7-.75,.93,.34,.41,.52,.94,.5,1.49,.26-.02,.52,0,.79,.07,.43,.12,.79,.34,1.07,.65,1.03,.32,2.19,.61,3.43,.84,4.04,.74,7.55,.6,8.5-.26,.01,0,.02-.02,.03-.03,.12-.11,.19-.24,.22-.38l.17-.9c.22-1.22-3.57-1.6-8.17-2.45-2.15-.4-4.1-.82-5.59-1.04,.02,.23,0,.47-.05,.7,0,.03-.01,.05-.02,.08-.03,.11-.07,.21-.11,.31Z"/>
              <path class="cls-15" d="M344.64,135.81l.96,2.48s9.73,3.32,9.79,3.81c.06,.49-.3,3.51-.3,3.51l3.98-1.39-.23-3.52-4.26-4.13-9.93-.76Z"/>
              <g>
                <path class="cls-45" d="M351.97,139.1c-.1,.94,1.4,1.88,3.36,2.09,1.96,.21,3.5-.46,3.73-1.33,0,0,.17-.49,.15-.59-.21-.83-1.76-1.3-3.5-1.49-1.96-.21-3.62,.38-3.73,1.33Z"/>
                <path class="cls-7" d="M352.11,138.51c-.1,.94,1.4,1.88,3.36,2.09,1.96,.21,3.62-.38,3.73-1.33,.1-.94-1.4-1.88-3.36-2.09-1.96-.21-3.62,.38-3.73,1.33Z"/>
              </g>
              <g>
                <path class="cls-45" d="M345.78,137.14c-.5,.88,.45,2.37,2.13,3.34,1.68,.97,3.45,1.04,3.96,.16s-.45-2.37-2.13-3.34c-1.68-.97-3.45-1.04-3.96-.16Z"/>
                <path class="cls-7" d="M345.68,136.45c-.5,.88,.45,2.37,2.13,3.34,1.68,.97,3.45,1.04,3.96,.16,.5-.88-.45-2.37-2.13-3.34-1.68-.97-3.45-1.04-3.96-.16Z"/>
              </g>
              <path class="cls-17" d="M358.55,135.99c1.2,.43,1.1,1.47,0,1.47-1.1,0-1.91,.58-2.83,.91-.92,.33-3.49-1.02-4.51-1.07-1.02-.05-1.9,.45-2.45-.17-.55-.62-2.19-1.25-3.24-1.22-1.05,.03-1.9-.41-2.03-.93-.13-.52-.33-.4-1.31-.37-2.02,.07-1.77-1.35-1.15-1.45,2.91-.45,3.41-1.48,6.67-.86,1.1,.21,10.83,3.7,10.83,3.7Z"/>
              <g>
                <path class="cls-13" d="M361.44,139.16c.7-1.23,1.13-4.31-5.33-7.97-6.59-3.73-8.87-1.7-9.57-.47v.02s-.02,.01-.02,.02c-.3,.77,2.65,3.23,6.7,5.53,4.05,2.29,7.68,3.55,8.19,2.9,0,0,0-.01,.01-.02v-.02s.02,0,.02,0Z"/>
                <path class="cls-41" d="M357.39,135.53c-.07,.14,.14,.37,.46,.53,.32,.15,.63,.17,.7,.03,.07-.14-.14-.37-.46-.52-.32-.15-.63-.17-.7-.03Z"/>
                <path class="cls-41" d="M349.22,131.75c-.01,.15,.26,.3,.61,.34,.35,.03,.65-.06,.67-.21,.01-.15-.26-.3-.61-.34-.35-.03-.65,.06-.67,.21Z"/>
                <path class="cls-31" d="M353.87,132.25c-.01,.15,.26,.3,.61,.34,.35,.03,.65-.06,.67-.21,.01-.15-.26-.3-.62-.34-.35-.03-.65,.06-.67,.21Z"/>
              </g>
              <path class="cls-38" d="M343.64,140.39c.06,.03,.13,.07,.2,.1,0-.03,0-.05,0-.08,0-.02,0-.03,0-.05-.03,0-.06,0-.09,0-.04,0-.08,.01-.12,.02Z"/>
              <path class="cls-38" d="M343.64,140.39c.06,.03,.13,.07,.2,.1,0-.03,0-.05,0-.08,0-.02,0-.03,0-.05-.03,0-.06,0-.09,0-.04,0-.08,.01-.12,.02Z"/>
            </g>
            <g>
              <path class="cls-11" d="M333.31,120.35s-.4-1.13-1.1-2.05c-.75-.99-1.6-1.15-1.6-1.15-.77,0-1.06,.92-.67,1.39,0,0,1.28-.98,2.78,1.88l.57-.07Z"/>
              <path class="cls-22" d="M329.31,122.95s1.87-.56,4.07,.77c.16,.52,1.13,3.83,1.13,3.83l2.16,.85s1.58,2.05,1.34,3.74c.72-.67,1.38-1.69,1.44-2.43,.62-.03,1.73-.86,1.81-1.47,.79-.1,2.05-.34,2.58-1-.35,0-2.55-.24-3.24-.59-.18-.64-1.57-4.34-1.57-4.34l-3.11-2.13s-.38-1.33-.16-1.88c.22-.55,.55-1.17,.55-1.17,0,0-1.57,.92-1.58,2.5-.31,.03-2.08,.98-2.27,2-.42,.06-2.64,.35-3.15,1.32Z"/>
              <g id="Layer0_40_MEMBER_4_FILL-2" data-name="Layer0 40 MEMBER 4 FILL">
                <path class="cls-7" d="M330.5,121.34c-.52,.44-.91,.98-1.18,1.61,.77-.74,1.83-1.11,3.2-1.1,.14-.5,.4-.91,.77-1.21,.36-.33,.8-.51,1.33-.57,.22-1.35,.75-2.33,1.62-2.97-.67,.15-1.28,.46-1.84,.93-.57,.48-1.08,1.13-1.52,1.94-.04,.08-.08,.15-.12,.23-.14,.04-.26,.08-.39,.12-.74,.24-1.36,.58-1.87,1.01Z"/>
              </g>
              <g id="Layer0_40_MEMBER_6_MEMBER_0_FILL-2" data-name="Layer0 40 MEMBER 6 MEMBER 0 FILL">
                <path class="cls-7" d="M338.01,132.14c.56-.18,1.07-.47,1.53-.85,.34-.29,.67-.64,.98-1.08,.12-.18,.25-.36,.37-.57,.26-.1,.5-.2,.74-.32,.4-.2,.75-.43,1.08-.71,.48-.4,.86-.87,1.13-1.4-.66,.62-1.52,.95-2.58,1-.16,.41-.39,.75-.71,1.01-.31,.27-.68,.45-1.11,.53-.23,1.04-.7,1.83-1.42,2.37Z"/>
              </g>
              <path class="cls-11" d="M336.67,124.64c.08,.27-.04,.55-.28,.62-.23,.07-.49-.1-.56-.37-.08-.27-.1-.83,.13-.89,.23-.07,.63,.38,.71,.65Z"/>
              <path class="cls-11" d="M337.74,123.38c.24,.16,.32,.45,.19,.65-.13,.2-.43,.24-.67,.08-.24-.16-.61-.57-.48-.77,.13-.2,.73-.12,.96,.04Z"/>
            </g>
            <path class="cls-17" d="M325.9,126.1c1.12,1.3,.99,3.24,.99,3.24,0,0-1.94-.17-3.05-1.47-1.12-1.3-.99-3.24-.99-3.24,0,0,1.94,.17,3.05,1.47Z"/>
            <path class="cls-17" d="M359.73,126.47c1.34-1.08,3.27-.89,3.27-.89,0,0-.23,1.93-1.57,3.01s-3.27,.89-3.27,.89c0,0,.23-1.93,1.57-3.01Z"/>
            <path class="cls-20" d="M338.45,107.5s-10.48,5.21-10.3,11c.18,5.79,10.3-11,10.3-11Z"/>
          </g>
          <path class="cls-39" d="M351.3,103.71l24.78,3.96s12.74,.13,9.8,11.97c-5.31,3.1-12.12,2.07-35.46-9.95l.88-5.98Z"/>
          <path class="cls-30" d="M342.92,102.05l-26.48,6.64s-12.7,1.05-8.9,12.65c5.52,2.71,12.89,.02,35.29-13.66,5.09-2.6,.09-5.64,.09-5.64Z"/>
          <path class="cls-30" d="M340.24,59.47l14.39-.33,.25,10.71s-2.69,1.3-7.65,1.38c-4.95,.08-6.75-1.05-6.75-1.05l-.25-10.71Z"/>
          <path class="cls-30" d="M360.75,42.33c-1.02,2.95-.13,5.91,1.99,6.62,2.12,.71,4.66-1.11,5.68-4.06,1.02-2.95,.13-5.91-1.99-6.62-2.12-.71-4.66,1.11-5.68,4.06Z"/>
          <path class="cls-39" d="M363.73,38.9c-.94-10.31-.86-20.93-17.2-20.55-16.34,.38-15.81,9.32-16.13,21.32-.34,12.57,8.82,22.58,17.2,22.9,8.04,.3,17.27-11.14,16.13-23.67Z"/>
          <path class="cls-3" d="M351.36,54.92c.22-.35-.05-.83-.44-.76-.99,.17-2.63,.41-4.2,.47-1.57,.06-3.22-.05-4.22-.14-.39-.04-.63,.46-.38,.79,.76,1.03,2.32,2.58,4.73,2.49,2.41-.09,3.84-1.76,4.52-2.85Z"/>
          <path class="cls-28" d="M328.41,37.31s14.47,.99,25.27-7.23c1.59,2.68,6.64,6.34,9.81,7.93,3.17,1.59,.4-14.96-2.38-17.64-2.77-2.68-21.41-4.86-25.47-2.87-4.06,1.98-7.23,19.82-7.23,19.82Z"/>
          <path class="cls-39" d="M350.42,109.69c.33-1.97,1.86-3.45,1.57-4.96-.18-.91-1.72-1.69-2.6-2.99-.85-1.26-.39-2.85-1.44-4.38-.91-1.32-1.32-1.58-1.88-1.35l-.16,3.77c-.3,1.01-1.85,1.81-6.16,1.27-3.3-.41-5.56-1.97-6.23-.28-.44,1.12,1.31,1.34,3.57,1.72-2.85,.26-3.02-.89-3.72,.44-.85,1.6,3.5,2.25,5.64,2.24-3.01,1.04-4.84-1.01-5.38,.03-.55,1.21,1.35,2.92,4.89,2.33-3.05,1.05-4.06-.42-4.33,.68-.29,1.14,3.94,3.31,8.83,2.89,1.26-.11,7.42-1.41,7.42-1.41Z"/>
          <path class="cls-46" d="M359.04,81.59c1.56-1.81,3-.11,2.66,1.17-.27,1.42-2.66,3.32-2.71,3.13-5.12-3.78-1.36-6.44,.05-4.3Z"/>
        </g>
        <g>
          <path class="cls-43" d="M392.7,153.71l-.31,3.92-8.85,113.52c0,.58-.28,1.1-.75,1.5h-72.91c-.47-.4-.75-.93-.75-1.5l-7.97-113.52-.38-5.44c0-1.25,4.73-6.1,6.37-6.1l12.8,.06,4.98,.02,3.64,.02h0l11.09,.06h1.67s0,0,0,0h1s3.74,.02,3.74,.02l3.41,.02,5.38,.03h.51s0,0,0,0l3.93,.02h.33s6.41,.03,6.41,.03l9.43,.05h0l11.26,.06c3.58-1.19,5.97,5.97,5.97,7.22Z"/>
          <path class="cls-4" d="M396.88,146.09h-101.47c-1.64,0-2.98,.97-2.98,2.16v7.21c0,1.19,1.34,2.16,2.98,2.16h101.47c1.64,0,2.98-.97,2.98-2.16v-7.21c0-1.19-1.34-2.16-2.98-2.16Z"/>
          <g class="cls-5">
            <path class="cls-3" d="M346.74,171.19c-14.67,0-26.61,11.94-26.61,26.61s11.94,26.61,26.61,26.61,26.61-11.94,26.61-26.61-11.94-26.61-26.61-26.61Zm0,51.49c-13.72,0-24.89-11.16-24.89-24.89s11.16-24.89,24.89-24.89,24.89,11.16,24.89,24.89-11.16,24.89-24.89,24.89Z"/>
          </g>
          <g class="cls-5">
            <path class="cls-3" d="M357.37,204.05c-1.61,.75-4.18,1.07-6.04,.05,1.6-4.09,5.23-7.84,5.35-7.96-.11,.07-4.36,2.7-6.26,7.28-.05-.05-.1-.1-.15-.16-1.87-2.03-1.28-5.44-.32-7,1.75-2.83,5.55-5.4,11.91-5.41,1.13,6.17-.84,11.51-4.48,13.19Z"/>
            <path class="cls-3" d="M335.22,187.83c.22,.19,5.9,5.2,10.5,11.55-2.77,1.95-6.84,1.11-9.18-.23-4.26-2.44-6.29-8.56-4.67-15.11,7.85-1.03,14.34,1.93,16.02,6.56,.85,2.33,.79,5.96-1.42,8.15-4.87-6.22-11.01-10.75-11.26-10.92Z"/>
            <path class="cls-3" d="M346.43,211.65c-3.01,2.34-8.46,1.61-13.34-2.15,2.81-5.45,7.37-8.47,11.11-7.68,1.37,.29,3.3,1.24,4.24,2.91-4.06-.61-8.37,2.03-8.58,2.16,.24-.1,5.14-2.06,9.04-.96,.51,2.36-1.1,4.65-2.47,5.72Z"/>
          </g>
        </g>
      </g>
    </g>
  </g>
</svg>