<?xml version="1.0" encoding="UTF-8"?>
<svg id="Layer_2" data-name="Layer 2" xmlns="http://www.w3.org/2000/svg" viewBox="0 0 146 146">
  <defs>
    <style>
      .cls-1 {
        fill: #003b7e;
      }

      .cls-2 {
        fill: #ffe500;
      }
    </style>
  </defs>
  <g id="Layer_1-2" data-name="Layer 1">
    <g>
      <g>
        <circle class="cls-2" cx="73" cy="73" r="73"/>
        <g>
          <path class="cls-1" d="M105.92,55.13c0,1.38-1.27,2.46-2.71,2.13-.79-.18-1.43-.82-1.62-1.62-.33-1.43,.75-2.71,2.13-2.71,1.21,0,2.19,.98,2.19,2.19"/>
          <path class="cls-1" d="M73.46,72.51c0,1.21-.98,2.19-2.19,2.19s-2.19-.98-2.19-2.19,.98-2.19,2.19-2.19,2.19,.98,2.19,2.19"/>
          <path class="cls-1" d="M59.29,68.84c0,1.21-.98,2.19-2.19,2.19s-2.19-.98-2.19-2.19,.98-2.19,2.19-2.19,2.19,.98,2.19,2.19"/>
          <path class="cls-1" d="M45.75,68.16c0,1.21-.98,2.19-2.19,2.19s-2.19-.98-2.19-2.19,.98-2.19,2.19-2.19,2.19,.98,2.19,2.19"/>
          <path class="cls-1" d="M50.73,49.65c0,1.38-1.27,2.46-2.71,2.13-.79-.18-1.43-.82-1.62-1.62-.33-1.43,.75-2.71,2.13-2.71,1.21,0,2.19,.98,2.19,2.19"/>
          <path class="cls-1" d="M84.28,30.13c0,1.21-.98,2.19-2.19,2.19s-2.19-.98-2.19-2.19,.98-2.19,2.19-2.19,2.19,.98,2.19,2.19"/>
          <path class="cls-1" d="M91.61,60.97c0,1.21-.98,2.19-2.19,2.19s-2.19-.98-2.19-2.19,.98-2.19,2.19-2.19,2.19,.98,2.19,2.19"/>
          <path class="cls-1" d="M115.63,67.75c0,1.21-.98,2.19-2.19,2.19s-2.19-.98-2.19-2.19,.98-2.19,2.19-2.19,2.19,.98,2.19,2.19"/>
          <path class="cls-1" d="M93.61,95.3c0,1.21-.98,2.19-2.19,2.19s-2.19-.98-2.19-2.19,.98-2.19,2.19-2.19,2.19,.98,2.19,2.19"/>
          <path class="cls-1" d="M81.46,90.87c0,1.21-.98,2.19-2.19,2.19s-2.19-.98-2.19-2.19,.98-2.19,2.19-2.19,2.19,.98,2.19,2.19"/>
          <path class="cls-1" d="M42.36,97.03c0,1.21-.98,2.19-2.19,2.19s-2.19-.98-2.19-2.19,.98-2.19,2.19-2.19,2.19,.98,2.19,2.19"/>
        </g>
      </g>
      <path class="cls-1" d="M76.69,35.94c-.93-.01-1.89,.08-2.86,.25-3.85,.71-7.86,2.85-11.27,6.29-3.41,3.44-5.54,7.55-6.24,11.45-.7,3.9,.04,7.67,2.6,10.26,2.56,2.59,6.28,3.34,10.13,2.63,3.85-.71,7.91-2.87,11.32-6.32,3.4-3.44,5.51-7.52,6.22-11.42,.7-3.9-.04-7.67-2.6-10.26-1.92-1.94-4.51-2.85-7.3-2.88h0Zm.15,1.59c2.45,.02,4.57,.81,6.09,2.35,2.03,2.06,2.73,5.2,2.1,8.74-.64,3.54-2.61,7.4-5.84,10.66-3.23,3.26-7.09,5.29-10.59,5.94-3.13,.58-5.92,.04-7.93-1.54,3.2-.89,5.39-2.25,6.92-3.89,1.72-1.84,2.6-4.01,3.34-6.14,1.47-4.26,2.31-8.35,7.71-11.07,.43-.15,.65-.61,.51-1.04-.15-.43-.61-.65-1.04-.51-.07,.02-.14,.04-.2,.08-5.94,2.99-7.08,7.87-8.51,12-.72,2.07-1.5,3.98-2.98,5.56-1.44,1.54-3.57,2.82-7.05,3.64-1.53-2.03-2.05-4.81-1.49-7.93,.64-3.54,2.66-7.45,5.89-10.71,3.23-3.26,7.04-5.27,10.54-5.91,.88-.16,1.74-.23,2.55-.23h0Zm17.79,28.1c-4.82,0-9.14,1.36-12.36,3.61-3.22,2.25-5.33,5.46-5.33,9.12s2.11,6.84,5.33,9.1c3.22,2.25,7.54,3.64,12.36,3.64s9.21-1.38,12.43-3.64c3.22-2.25,5.33-5.44,5.33-9.1,0-.11,0-.22,0-.33,0-.08,0-.15-.03-.23-.2-3.43-2.25-6.43-5.31-8.57-3.22-2.25-7.62-3.61-12.43-3.61h0Zm0,1.67c4.56,0,8.72,1.34,11.65,3.39,2.63,1.84,4.22,4.22,4.52,6.8-2.99,1.87-5.35,2.47-7.43,2.43-2.13-.05-4.01-.8-5.94-1.74-2.9-1.41-5.95-3.27-9.88-3.31-1.31-.01-2.71,.16-4.25,.63-.21,.06-.38,.2-.49,.39-.1,.19-.13,.41-.07,.62,.06,.21,.2,.38,.39,.49,.19,.1,.41,.13,.62,.07,5.53-1.7,8.97,.61,12.96,2.55,2,.97,4.11,1.86,6.59,1.92,2.19,.05,4.64-.53,7.45-2.12-.35,2.51-1.93,4.85-4.5,6.65-2.93,2.05-7.09,3.36-11.65,3.36s-8.65-1.31-11.57-3.36c-2.93-2.05-4.65-4.77-4.65-7.68s1.72-5.63,4.65-7.68c2.93-2.05,7.01-3.39,11.57-3.39h0Zm-41.54,5.41c-2.8,.03-5.38,.94-7.3,2.88-2.56,2.59-3.3,6.36-2.6,10.26,.7,3.9,2.81,7.95,6.22,11.4,3.4,3.44,7.47,5.63,11.32,6.34,3.85,.71,7.57-.07,10.13-2.65s3.3-6.36,2.6-10.26c-.7-3.9-2.84-7.98-6.24-11.42s-7.44-5.58-11.29-6.29c-.96-.18-1.9-.26-2.83-.25h0Zm-.15,1.59c.82,0,1.68,.07,2.55,.23,3.5,.64,7.31,2.65,10.54,5.91,3.23,3.26,5.23,7.15,5.86,10.69,.56,3.14,.07,5.96-1.47,7.98-3.54-.81-5.68-2.1-7.13-3.64-1.47-1.56-2.26-3.44-2.96-5.48-1.39-4.09-2.46-8.92-8.19-11.95-.14-.08-.3-.11-.45-.1-.37,.02-.68,.29-.76,.65-.07,.37,.12,.73,.45,.89,5.19,2.74,5.97,6.82,7.4,11.04,.72,2.11,1.6,4.24,3.31,6.06,1.53,1.63,3.74,2.98,6.95,3.87-2.01,1.58-4.76,2.11-7.88,1.54-3.5-.64-7.36-2.68-10.59-5.94-3.23-3.26-5.2-7.12-5.84-10.66-.64-3.54,.06-6.69,2.1-8.74,1.52-1.54,3.64-2.33,6.09-2.35h0Z"/>
    </g>
  </g>
</svg>