<svg version="1.2" xmlns="http://www.w3.org/2000/svg" viewBox="0 0 82 94" width="82" height="94">
	<title>New Project</title>
	<style>
		.s0 { fill: #f4d242 } 
		.s1 { fill: #59595b } 
		.s2 { fill: #808183 } 
		.s3 { fill: #ffffff } 
	</style>
	<g id="&lt;Group&gt;">
		<g id="&lt;Group&gt;">
			<g id="&lt;Group&gt;">
				<path id="&lt;Path&gt;" class="s0" d="m59.9 62.9c-3.8 3.8-6.7 8.5-8.1 13.7l-2 7.5h-17.5l-2.1-7.9c-1.4-5.1-4.2-9.7-7.9-13.5-4.8-4.8-7.7-11.4-7.8-18.7 0-14.7 12-26.8 26.7-26.8 14.7 0 26.7 12 26.7 26.7 0 7.4-3.1 14.2-8 19z"/>
				<path id="&lt;Path&gt;" class="s1" d="m45.2 93.5h-8.5c-2.4 0-4.5-1.8-4.6-4.1l-0.7-8.7 19.3-0.2-0.8 8.9c-0.2 2.3-2.2 4.1-4.7 4.1z"/>
			</g>
			<path id="&lt;Path&gt;" class="s2" d="m49 85.3c-5.4-0.2-10.8 0.2-16.2 0-0.5 0-0.5-0.7-0.1-0.8 5.4-0.2 10.9 0.1 16.2-0.1 0.7-0.1 0.7 0.9 0.1 0.9z"/>
			<path id="&lt;Path&gt;" class="s2" d="m49 87.6c-5.4-0.1-10.8 0.2-16.2 0-0.5 0-0.5-0.7-0.1-0.7 5.4-0.2 10.9 0 16.2-0.2 0.7 0 0.7 1 0.1 0.9z"/>
		</g>
		<g id="&lt;Group&gt;">
			<path id="&lt;Path&gt;" class="s0" d="m43.4 3.7c0 1.7-0.9 7.9-2.1 7.9-1.1 0-2-6.2-2-7.9 0-1.8 0.9-3.2 2-3.2 1.2 0 2.1 1.4 2.1 3.2z"/>
			<path id="&lt;Path&gt;" class="s0" d="m72.5 12.7c0.7 0.8 0.3 2.4-1 3.5-1.3 1.2-6.6 4.5-7.4 3.6-0.7-0.8 3.4-5.5 4.7-6.6 1.3-1.2 3-1.4 3.7-0.5z"/>
			<path id="&lt;Path&gt;" class="s0" d="m78.7 40.7c-1.7 0.2-7.9 0.1-8.1-1-0.1-1.1 5.9-2.8 7.6-3 1.7-0.2 3.2 0.5 3.4 1.6 0.1 1.1-1.2 2.2-2.9 2.4z"/>
			<path id="&lt;Path&gt;" class="s0" d="m16.2 11.1c1.3 1.1 5.6 5.6 5 6.5-0.7 0.9-6.2-2.2-7.5-3.3-1.4-1-1.9-2.6-1.2-3.5 0.7-0.9 2.3-0.8 3.7 0.3z"/>
			<path id="&lt;Path&gt;" class="s0" d="m0.4 33.9c0.2-1.1 1.7-1.9 3.4-1.6 1.7 0.2 7.7 1.9 7.6 3-0.2 1.1-6.4 1.2-8.1 1-1.7-0.2-3-1.3-2.9-2.4z"/>
		</g>
		<g id="&lt;Group&gt;">
			<path id="&lt;Compound Path&gt;" fill-rule="evenodd" class="s3" d="m51.6 58.9c-0.9-0.7-1.6-1.6-2.2-2.6-1 0.6-2.2 1-3.4 0.8-1.3-0.1-2.3-1-3-2.1q-0.4 0.9-0.9 1.6c-0.7 1-1.9 2.1-3.2 2.1-1.5-0.1-2.5-1.2-3.3-2.3q-0.5-0.6-0.9-1.3-1.2 2.4-3.1 4.3c-0.6 0.7-1.6-0.3-1-1 1.4-1.5 2.6-3.3 3.3-5.3q0-0.1 0-0.2c-0.7-2.6-0.5-5.3 0.6-7.7 0.2-0.5 0.7-0.5 1.1-0.3 1.2 0.5 1.2 2.1 1.1 3.3-0.1 1.3-0.3 2.7-0.8 4q-0.1 0.5-0.3 1 0.3 0.9 0.8 1.8c0.5 0.7 1.3 2 2.3 2.1 1 0.2 1.9-1 2.4-1.8q0.6-1.1 1.1-2.2c-1-2.9-1.1-6.2 0.7-8.7 0.2-0.3 0.7-0.5 1.1-0.3 1.2 0.8 1.2 2.3 1.1 3.6-0.2 1.5-0.4 3.1-0.9 4.6q-0.2 0.4-0.4 0.9 0.2 0.3 0.4 0.6c0.6 1.3 1.7 2.1 3.2 1.6q0.7-0.2 1.3-0.6-0.3-0.8-0.5-1.6c-0.3-1.6-0.3-3.2 0.2-4.7 0.2-0.7 0.5-1.6 1.1-2.2 0.5-0.5 1.4-0.9 2.1-0.4 0.7 0.5 0.8 1.3 0.8 2.2q0 1.3-0.1 2.7c-0.2 1.5-0.6 3.1-1.6 4.3 0.5 0.9 1.2 1.7 2 2.4 1.1 0.7-0.1 2.2-1.1 1.4zm-8.6-8.6q0.3-1.1 0.4-2.1c0-0.4 0.2-1.2 0.1-1.8-0.5 1.1-0.6 2.5-0.5 3.9zm7 2.8q0.1-0.2 0.2-0.5c0.5-1.6 0.6-3.3 0.5-4.9q0-0.2 0-0.2c0 0-0.1 0.1-0.1 0.1q-0.2 0.4-0.4 0.8c-0.2 0.7-0.4 1.3-0.4 2q-0.1 1.4 0.2 2.7z"/>
			<path id="&lt;Path&gt;" class="s3" d="m55.6 54.1c-2.7 8.7-5.6 17.3-8.8 25.9-0.4 1-2 0.4-1.6-0.7 3.2-8.5 6.2-17.1 9-25.7 0.3-1 1.7-0.4 1.4 0.5z"/>
			<path id="&lt;Path&gt;" class="s3" d="m29.9 52.7c2.4 8.8 4.6 17.7 6.5 26.6 0.2 1.1-1.5 1.4-1.7 0.3-1.9-8.9-4-17.8-6.3-26.6-0.2-0.9 1.2-1.2 1.5-0.3z"/>
		</g>
	</g>
</svg>