<svg version="1.2" xmlns="http://www.w3.org/2000/svg" viewBox="0 0 252 46" width="252" height="46">
	<title>New Project</title>
	<style>
		.s0 { fill: #003b7e } 
	</style>
	<path id="&lt;Compound Path&gt;" fill-rule="evenodd" class="s0" d="m24.2 46l-9.8-28.9v28.9h-14.4v-46h19.5l9.3 23 9.4-23h19.5v46h-14.4v-28.9l-9.7 28.9zm162.2-17.9l11.2 17.9h-16.6l-9.4-17.9h-5.7v17.9h-14.4v-46h37.1c4.6 0.4 8.5 3.2 9 8.4v11.3c0 5-4.5 8.1-9 8.4zm-1.8-16.9c0-0.8 0.1-2.2-2-2.2h-16.7v9.1h16.7c1.8 0 2-0.9 2-1.9zm-106.6-2.1v9h23v9h-23v9.8h23.5v9.1h-38v-46h37.5v9.1zm41.1 0h-13.7v-9.1h41.8v9.1h-13.7v36.9h-14.4zm133-1.2v29.8c-0.5 5.2-4.4 7.9-9 8.3h-30.7c-4.6-0.4-8.5-3.1-9-8.3v-29.8c0.5-5.2 4.4-7.5 9-7.9h30.7c4.6 0.4 8.5 2.7 9 7.9zm-14.4 3c-0.1-0.5-0.3-1.6-2.1-1.8h-15.7c-1.8 0.2-2 1.3-2.1 1.8v24c0.1 0.5 0.4 1.9 2.2 2h15.6c1.8-0.1 2-1.5 2.1-2z"/>
</svg>