<svg id="Layer_1" data-name="Layer 1" xmlns="http://www.w3.org/2000/svg" viewBox="0 0 1920 1080"><defs><style>.cls-1{fill:#939393;}</style></defs><path class="cls-1" d="M1314.58,518.21c-2.59,17.75-4,35.76-8,53.2-35.42,156.41-130,259.29-282,309.54-10,3.32-20.59,5.12-30.79,8a31.4,31.4,0,0,0-10.76,5.1c-59.43,47.09-137,49.31-198.81,5.5-1.1-.78-2.23-1.53-3.81-2.6-3.53,2.9-7,5.9-10.59,8.67-31.33,24-66,31-104,20a57.47,57.47,0,0,0-32.87.17c-31.91,9.06-62,4.07-90.19-13-8.46-5.13-10.65-11.59-6.6-18.25,3.93-6.47,11-7.55,19.23-2.6,23.47,14.16,48.19,17.65,74.5,9.41,13.08-4.1,26.53-4.63,39.41,0,35,12.62,80.31,1.27,106.94-38.61,33-49.43,32.32-128.81-2.36-177.1-23.06-32.12-54.21-45-93.35-37.72-5.86,1.09-11.73,2.14-18.53,3.37.35,6.85.82,13.54,1,20.24.27,9.6-4.16,15.13-12,15.27-7.56.14-11.74-4.57-12.44-14,0-.55,0-1.09-.09-1.64-1.4-21.73-1.4-21.73-23.54-23.79-43.88-4.08-77.37,14.05-96.64,54.45C495.9,749,496.18,797,515.53,845.22c.71,1.77,1.72,3.41,2.41,5.18,2.79,7.15.54,13.6-5.72,16.58s-13.5.9-16.22-6.32c-5.65-15-12-30-14.89-45.6-8.54-45.44-3.7-89.43,18.42-130.83a12.11,12.11,0,0,0,.55-8.32C484,622.56,478.3,568.13,483.93,512.73c6.51-64.09,26.23-122.91,72.09-170.38,8.1-8.38,17.36-15.72,26.58-22.89,3.91-3,4.86-5.78,3.69-10.31a136,136,0,0,0-21.65-46.32c-5.29-7.27-10.69-14.47-15.57-22-6.73-10.42-5.87-21.57,1.84-31.08,7.84-9.67,19.38-13.13,30.75-8.47,10.56,4.34,20.84,9.38,31.26,14.07,2.42,1.09,4.92,2,8.05,3.27,1.17-28.35-6.21-53.36-21.8-76.06-2.15-3.14-4.49-6.18-6.4-9.47a22.32,22.32,0,0,1,2.05-25.91c6.19-7.35,16-10.38,25.14-6.43,33.89,14.68,67.78,29.52,87.15,65.42,18.67-35.57,52.24-50,85.39-64.85,10.23-4.59,20.79-1.79,27.26,6.38s6.74,18.85-.57,28.68C802.06,159.43,792.76,185,793,213.84c0,1.34.15,2.68.3,5.08,11.81-5.37,23.11-10.52,34.43-15.63,14.91-6.73,26.37-4.7,35.3,6.2s8.74,22.56-1,35.86c-14,19.17-28,38.22-33.72,62-1.39,5.77-.22,8.64,4.48,12.05,35.44,25.69,60.08,59.6,75.31,100.48,3.53,9.48,1.08,16.2-6.59,18.86-7,2.45-12.75-1.23-16.46-10.48-25.9-64.56-72-106.55-140.37-120.91C660.35,289.62,583,327.49,542.92,404c-27.76,53-37.77,110-34.8,169.16,1.28,25.42,6.54,50.64,10.07,75.94.3,2.09,1.23,4.1,2.12,6.94,31-29,66.92-40.53,109.39-32.48-7.58-20.43-19.11-36.46-35.62-48.89-1.31-1-2.75-1.78-4.06-2.75-6.37-4.75-7.95-11.11-4.26-17,3.8-6.1,11.49-8.26,17.75-3.06,10.82,9,22.28,18,30.41,29.19,9.92,13.67,16.67,29.62,25.23,45.4,10.35-1.22,22.44-2.86,34.57-4,18.25-1.75,36,.59,52.48,8.83,5.79,2.89,7.87-.89,10.79-3.8q124-124,248-248,85-85,170-170c9.77-9.77,14.93-9.82,24.59.25,63.16,65.81,101,143.72,111.94,234.48.94,7.78,2,15.54,3,23.32ZM1160.07,260.58a21.22,21.22,0,0,0,1.4,1.95c46.32,51,75.09,110.45,85.16,178.59,2.62,17.72,3.29,35.79,3.69,53.73.09,4.08-3.77,9.79-7.45,11.94-2.89,1.69-9.74.47-12.25-2-2.94-2.93-4.2-8.65-4.26-13.19-.56-43.56-8.91-85.44-26.31-125.42a310.58,310.58,0,0,0-57.83-88.35Q963.38,455.33,785.17,632.27c.58.7,1.15,1.4,1.73,2.09,56.21-34.77,114.34-40.14,172.29-6.85,57.61,33.09,84.17,85.21,83.66,151.36.62,0,1.21.26,1.63.08,1.52-.6,3-1.33,4.45-2a305.93,305.93,0,0,0,77-53.21q72.85-68.76,93.77-166.79c1.9-8.85,7.5-12.85,14.91-11.29s11.14,8,8.88,16.44c-4.35,16.28-8.09,32.84-14,48.54-34.5,90.83-96.5,155.88-185.21,195.54-2.78,1.24-6.25,3.11-7.33,5.59-6.46,14.87-12.31,30-18.08,44.34,94.64-22.91,214-112.78,255.78-255.56,42.89-146.45-8.94-289.83-87.64-366.94ZM789.84,664.64c45.51,58.29,44.76,156.05,6.89,212.73,43,36.79,126.36,44.68,182.56-13.25,53.21-54.85,51.58-141.9-3.91-195.37C919.33,614.74,835.14,621.75,789.84,664.64Zm3.51-536.7c-4.34,2-8.73,4-13,6.14C745.69,151.62,719.22,175,719,217.93c0,6.74-5.06,10.85-12.07,10.79s-10.89-4.3-12-11a64.12,64.12,0,0,1-.31-6.52c-1-15.89-5.8-30.43-15.75-43-15.31-19.35-36.36-30.3-57.37-39.92,5.85,13.67,14.16,27,17.12,41.45,4.35,21.16,5.42,43.06,6.83,64.71.94,14.44-8.05,19.52-21.09,13.34-15.73-7.45-31.56-14.68-47.4-21.9-2.15-1-4.61-1.27-6.93-1.88l-1.78,2.11c17.4,23.35,34.94,46.64,41.24,76.16,65.21-30.9,129.78-31.24,195.5-.59,5.68-29.92,24.73-52.2,39.59-77.08a17.2,17.2,0,0,0-8.26,1.65c-16.06,7.37-32.09,14.83-48.14,22.23-10.66,4.91-19.5.3-19.64-10.88C768.09,199.36,770.15,161.66,793.35,127.94Z"/></svg>