<svg id="Layer_1" data-name="Layer 1" xmlns="http://www.w3.org/2000/svg" viewBox="0 0 1920 1080"><defs><style>.cls-1{fill:#939393;}</style></defs><path class="cls-1" d="M659.07,347.26c0-9.3-.13-18.08,0-26.86.27-15,10.53-25.21,25.56-25.37,16-.16,32,0,48.42,0V270.16c-6.94,0-13.6,0-20.25,0-12.31,0-16.47-4.06-16.51-16.07q-.08-21.33,0-42.67c0-11.55,4.3-15.73,16-15.74q135.75,0,271.52,0h10.36c0-7.75,0-15.13,0-22.51.11-17,10-27,27-27.15,5.88,0,11.76,0,18.17,0-2.43-11.17-4.69-21.49-6.93-31.81-2.46-11.32,2.36-17.79,13.7-17.82q59.73-.14,119.47,0c11.41,0,16.35,6.45,13.92,17.65-2.24,10.33-4.52,20.64-7,32,6.89,0,13.23-.1,19.58,0,14.92.28,25.23,10.54,25.55,25.44.13,5.95,0,11.9,0,17.85,0,19.82-5.55,27.09-24.83,32v58c0,20.18.1,40.35,0,60.53a27.47,27.47,0,0,0,8.1,20.25c45.69,47.12,67,103.64,66.56,169.15-.54,85.86-.12,171.73-.14,257.6,0,34.22-20.28,54.54-54.45,54.54q-263,0-526,0c-83.76,0-146.64-52.23-162-134.64A152.39,152.39,0,0,1,532.75,622c19-48.59,28.26-99.1,33.65-150.74a225.73,225.73,0,0,1,13.26-55.51c13-34.54,38.69-56.64,74.35-66.81C655.5,348.53,657,348,659.07,347.26ZM1043.9,320c0,6.34-.17,12,0,17.61.6,16.18-5.21,29.58-16.41,41.2-38.79,40.22-58,88.47-58.09,144.3q-.13,80.67,0,161.36v7.4c30.65,3.15,48.47,20.66,57.6,47.92,9,26.86,4.58,52.31-11,76.69h197.45c19.6,0,29.07-9.42,29.07-29q0-131.88,0-263.77c0-56.11-19.19-104.62-58.2-145-11.21-11.63-16.94-25-16.31-41.23.22-5.8,0-11.62,0-17.48ZM825.17,678.92l2-.42c-3.32-15.31-4.57-31.45-10.34-45.77-19.53-48.48-31.29-98.8-40.06-150.08-3.83-22.35-7.87-44.8-18.26-65.41-15.16-30.08-39.1-46.92-73.12-47.64-42.34-.89-77.22,26.23-87.74,69.93-5.35,22.24-7.7,45.27-10.47,68.06-5.14,42.3-16.44,82.9-31,122.84-16,43.86-11.38,86.43,14.09,125.36,31.9,48.74,78.74,66.12,135.38,59A136.86,136.86,0,0,0,825.17,678.92Zm56.46-309.6c-35.84.9-67.13,14.45-91.79,42.33-2,2.23-3.35,6.49-2.71,9.3,4.59,20.35,10.76,40.39,14.57,60.87,7.52,40.39,15.58,80.56,29.6,119.31,1.76,4.86,4.39,7.54,9.24,9.18,33.18,11.22,65.46,9.16,97.16-5.62,5.11-2.39,7.13-5.24,7-11.08-.36-23.51-.1-47-.16-70.56-.1-37.9,8.33-73.76,26.09-107.24,2.87-5.39,1.48-8.17-2.34-11.76C944.27,381.45,915.74,370.1,881.63,369.32ZM772.78,392.53c56.1-59.72,151.62-65.84,214.75-5.18,6.12-7.31,11.35-15.68,18.54-21.72,15-12.61,13.76-28.67,12.52-45.31H684.41v24.25C722.08,345.6,751.49,361.08,772.78,392.53Zm271.12-98.08H1168v-8.21q0-36.06,0-72.12c0-15,3.26-18.31,18-18.48,2.2,0,4.4-.3,6.42-.44V171.35h-25.54c-3.74,16.6-7.32,32.72-11,48.82-2.3,10-5.74,12.71-16.17,12.73q-33.73.06-67.46,0c-10.71,0-13.9-2.62-16.38-13.44-3.68-16-7.26-32.1-10.85-48h-26v24c2.27.12,3.77.24,5.26.27,17,.31,19.57,2.92,19.57,20ZM944.59,629.31c-32.78,14.12-65.53,17-100.29,8.37,7.75,30.22,6.86,59-1.32,88.89,25.73-12.07,50.27-12.27,72.95-2.7,9.3-8.49,17.68-16,25.82-23.71a9,9,0,0,0,2.72-5.7C944.66,673.27,944.59,652.09,944.59,629.31ZM721.5,244.8h297V220.89h-297Zm297.22,25.9H759v23.89h259.71Zm-86.6,495.44c.11,14.51,4,26.87,12.48,37.58,12.65,16,33,17,47.32,2.51,19.54-19.8,19.65-58.63.22-78.62-13.63-14-32.41-14-45.76.34C936.14,738.92,932.47,752.39,932.12,766.14Zm-16,39.1c-7.76-16.92-10.89-34.66-7.59-53.35.27-1.53-1.46-4.31-3-5.13-19.33-10.43-51.66-3.8-65.44,13.19-9.45,11.66-9.68,26-.61,37.81C855.9,819,895.1,823,916.16,805.24Zm154.34-634.1,8.12,36.52h54.75c2.69-12.29,5.31-24.24,8-36.52Zm-5.73-25.7h82.43c1.77-8.22,3.44-15.93,5.14-23.79h-92.79C1061.32,129.75,1063,137.28,1064.77,145.44ZM775.44,815.88h45.38c-4.43-9.1-8.74-17.93-12.81-26.28Z"/><path class="cls-1" d="M1217.69,694.66c0,19.38.1,38.76,0,58.14-.14,23.08-15.92,38.69-39.14,38.84-11.11.06-22.22.1-33.32,0-9-.1-14.55-5.15-14.35-12.7.19-7.27,5.56-12,14.19-12.07,10.33-.13,20.67,0,31,0,12.74,0,16.79-4,16.8-16.54,0-38.76-.07-77.52.14-116.28,0-3.9.66-9.21,3.16-11.34a18.26,18.26,0,0,1,13-3.75c5.91.82,8.55,6.13,8.56,12.19Q1217.71,662.88,1217.69,694.66Z"/><path class="cls-1" d="M1088.05,766.94c2.32,0,4.71-.34,7,.06,6.69,1.2,10.75,5.3,10.79,12.15s-4,11.23-10.65,12.23a69.67,69.67,0,0,1-13.93.18c-7.4-.4-12.38-5.5-12.43-12.26s4.92-11.86,12.28-12.42c2.31-.18,4.65,0,7,0Z"/><path class="cls-1" d="M609.12,668.53c-.08-21.07,5.2-39.18,16.3-55.42,29.43-43.05,86.61-43.6,115.56-.28,22.55,33.75,23.5,69.79,3,104.66-29.77,50.59-94.57,48.7-123-2.8A92.21,92.21,0,0,1,609.12,668.53Zm124-.14c0-20.2-7.51-38.74-20.1-50.58-17.13-16.11-40.59-16.53-58.19-1-28,24.58-27.94,76.91,0,101.44,17.69,15.51,41.08,15.12,58.15-1.1C727.24,703.63,732.44,686.43,733.15,668.39Z"/><path class="cls-1" d="M835.9,518.87c2.82-13.6,4.2-27.71,8.77-40.68,7.52-21.35,16.62-42.19,26-62.8,5.09-11.15,18-11.07,23.65-.23,15.25,29.15,28.33,59.22,32.39,92.23a97,97,0,0,1-1,29.2c-3.49,18.61-19.92,31.1-38.87,31.63-11.32.32-22.14-.69-31.74-7.56C840.78,550.39,837,535.7,835.9,518.87Zm47.63-69.49-2.12,0c-3.35,8.88-6.94,17.67-10,26.64-5.51,16.13-10.47,32.44-9.13,49.83.89,11.43,6.45,16.82,17.67,17.45,16.23.91,23-5.14,23-21.54C902.92,495.87,893,472.67,883.53,449.38Z"/></svg>