<?xml version="1.0" encoding="UTF-8" standalone="no"?>
<svg
   xmlns:dc="http://purl.org/dc/elements/1.1/"
   xmlns:cc="http://creativecommons.org/ns#"
   xmlns:rdf="http://www.w3.org/1999/02/22-rdf-syntax-ns#"
   xmlns:svg="http://www.w3.org/2000/svg"
   xmlns="http://www.w3.org/2000/svg"
   xmlns:sodipodi="http://sodipodi.sourceforge.net/DTD/sodipodi-0.dtd"
   xmlns:inkscape="http://www.inkscape.org/namespaces/inkscape"
   version="1.1"
   id="svg2"
   xml:space="preserve"
   width="400"
   height="400"
   viewBox="0 0 400 400"
   sodipodi:docname="L2-07.ai"><metadata
     id="metadata8"><rdf:RDF><cc:Work
         rdf:about=""><dc:format>image/svg+xml</dc:format><dc:type
           rdf:resource="http://purl.org/dc/dcmitype/StillImage" /></cc:Work></rdf:RDF></metadata><defs
     id="defs6"><clipPath
       clipPathUnits="userSpaceOnUse"
       id="clipPath50"><path
         d="M 0,300 H 300 V 0 H 0 Z"
         id="path48" /></clipPath><clipPath
       clipPathUnits="userSpaceOnUse"
       id="clipPath78"><path
         d="M 98.3676,76.4521 H 277 V 23 H 98.3676 Z"
         id="path76" /></clipPath></defs><sodipodi:namedview
     pagecolor="#ffffff"
     bordercolor="#666666"
     borderopacity="1"
     objecttolerance="10"
     gridtolerance="10"
     guidetolerance="10"
     inkscape:pageopacity="0"
     inkscape:pageshadow="2"
     inkscape:window-width="640"
     inkscape:window-height="480"
     id="namedview4" /><g
     id="g10"
     inkscape:groupmode="layer"
     inkscape:label="L2-07"
     transform="matrix(1.3333333,0,0,-1.3333333,0,400)"><g
       id="g12"
       transform="translate(24.0457,224.9352)"><path
         d="M 0,0 55.64,21.777 V -71.138 L 43.427,-74.041 Z"
         style="fill:#ffe69b;fill-opacity:1;fill-rule:nonzero;stroke:none"
         id="path14" /></g><g
       id="g16"
       transform="translate(15.9031,226.387)"><path
         d="m 0,0 58.355,-36.295 v -92.914 L 0,-94.366 Z"
         style="fill:#f7ad1a;fill-opacity:1;fill-rule:nonzero;stroke:none"
         id="path18" /></g><g
       id="g20"
       transform="translate(15.9031,226.387)"><path
         d="m 0,0 58.355,-36.295 2.714,1.452 L 5.428,0 59.712,21.777 h -2.714 z"
         style="fill:#fdca54;fill-opacity:1;fill-rule:nonzero;stroke:none"
         id="path22" /></g><g
       id="g24"
       transform="translate(76.972,98.6293)"><path
         d="M 0,0 -2.714,-1.452 V 91.463 L 0,92.915 Z"
         style="fill:#f08e20;fill-opacity:1;fill-rule:nonzero;stroke:none"
         id="path26" /></g><g
       id="g28"
       transform="translate(75.6149,248.1638)"><path
         d="m 0,0 4.071,-1.452 -55.64,-21.777 -2.714,1.452 z"
         style="fill:#ffe07c;fill-opacity:1;fill-rule:nonzero;stroke:none"
         id="path30" /></g><g
       id="g32"
       transform="translate(21.3315,182.8332)"><path
         d="M 0,0 40.034,-25.406"
         style="fill:none;stroke:#ffffff;stroke-width:0.987;stroke-linecap:round;stroke-linejoin:miter;stroke-miterlimit:10;stroke-dasharray:none;stroke-opacity:1"
         id="path34" /></g><g
       id="g36"
       transform="translate(43.8506,195.3095)"><path
         d="M 0,0 4.071,-2.904"
         style="fill:none;stroke:#ffffff;stroke-width:0.987;stroke-linecap:round;stroke-linejoin:miter;stroke-miterlimit:10;stroke-dasharray:none;stroke-opacity:1"
         id="path38" /></g><g
       id="g40"
       transform="translate(45.0805,193.7216)"><path
         d="M 0,0 V -5.807"
         style="fill:none;stroke:#ffffff;stroke-width:0.658;stroke-linecap:round;stroke-linejoin:miter;stroke-miterlimit:10;stroke-dasharray:none;stroke-opacity:1"
         id="path42" /></g><g
       id="g44"><g
         id="g46"
         clip-path="url(#clipPath50)"><g
           id="g52"
           transform="translate(21.3315,187.1886)"><path
             d="m 0,0 40.713,-26.132 c 0,0 -1.358,24.68 -24.428,34.843 C 13.571,10.163 1.357,14.518 0,0"
             style="fill:#ffffff;fill-opacity:1;fill-rule:nonzero;stroke:none"
             id="path54" /></g><g
           id="g56"
           transform="translate(22.943,172.1096)"><path
             d="m 0,0 1.666,-1.021 2.709,-7.427 2.708,4.1 1.666,-1.021 10e-4,-12.192 -1.566,0.957 -0.002,8.746 -2.805,-4.024 -0.051,0.032 -2.786,7.423 10e-4,-8.71 -1.539,0.942 z"
             style="fill:#ffffff;fill-opacity:1;fill-rule:nonzero;stroke:none"
             id="path58" /></g><g
           id="g60"
           transform="translate(33.971,165.3414)"><path
             d="m 0,0 6.599,-4.053 v -1.913 l -5.032,3.089 v -3.172 l 4.46,-2.737 0.002,-1.917 -4.461,2.737 v -3.272 l 5.097,-3.129 v -1.917 l -6.663,4.089 z"
             style="fill:#ffffff;fill-opacity:1;fill-rule:nonzero;stroke:none"
             id="path62" /></g><g
           id="g64"
           transform="translate(42.4828,160.116)"><path
             d="m 0,0 1.449,-0.888 4.77,-11.361 -0.002,8.433 1.54,-0.945 0.002,-12.192 -1.31,0.806 -4.909,11.684 10e-4,-8.674 -1.539,0.946 z"
             style="fill:#ffffff;fill-opacity:1;fill-rule:nonzero;stroke:none"
             id="path66" /></g><g
           id="g68"
           transform="translate(52.3813,147.022)"><path
             d="M 0,0 -0.002,7.02 1.563,6.06 V -0.874 C 1.565,-3.14 2.417,-4.862 3.814,-5.722 5.199,-6.57 6.049,-5.959 6.049,-3.715 L 6.048,3.305 7.614,2.348 V -4.571 C 7.616,-8.21 6.115,-9.117 3.787,-7.692 1.476,-6.268 0,-3.535 0,0"
             style="fill:#ffffff;fill-opacity:1;fill-rule:nonzero;stroke:none"
             id="path70" /></g><g
           id="g72"><g
             id="g74" /><g
             id="g86"><g
               clip-path="url(#clipPath78)"
               opacity="0.699997"
               id="g84"><g
                 transform="translate(251.7839,65.5497)"
                 id="g82"><path
                   d="m 0,0 c -34.351,11.893 -90.896,14.452 -126.298,5.713 -35.401,-8.74 -36.253,-25.466 -1.902,-37.359 34.35,-11.895 90.895,-14.453 126.298,-5.714 C 33.499,-28.621 34.351,-11.895 0,0"
                   style="fill:#cbcbca;fill-opacity:1;fill-rule:nonzero;stroke:none"
                   id="path80" /></g></g></g></g><g
           id="g88"
           transform="translate(137.9456,277)"><path
             d="m 0,0 26.779,-249.134 5.568,1.551 L 6.726,-0.652 Z"
             style="fill:#ef8e21;fill-opacity:1;fill-rule:nonzero;stroke:none"
             id="path90" /></g><g
           id="g92"
           transform="translate(208.8159,91.7947)"><path
             d="m 0,0 -3.39,-26.249 5.321,1.003 2.873,25.907 z"
             style="fill:#ef8e21;fill-opacity:1;fill-rule:nonzero;stroke:none"
             id="path94" /></g><g
           id="g96"
           transform="translate(206.105,90.9807)"><path
             d="m 0,0 -2.579,-24.272 1.9,-1.163 3.39,26.249 z"
             style="fill:#905323;fill-opacity:1;fill-rule:nonzero;stroke:none"
             id="path98" /></g><g
           id="g100"
           transform="translate(164.7643,83.4929)"><path
             d="M 0,0 83.812,15.018 83.019,23.29 -0.949,9.287 Z"
             style="fill:#905323;fill-opacity:1;fill-rule:nonzero;stroke:none"
             id="path102" /></g><g
           id="g104"
           transform="translate(123.8031,93.6687)"><path
             d="M 0,0 30.68,4.914 30.414,13.186 -0.319,9.287 Z"
             style="fill:#905323;fill-opacity:1;fill-rule:nonzero;stroke:none"
             id="path106" /></g><g
           id="g108"
           transform="translate(145.5851,267.5993)"><path
             d="M 0,0 87.91,-3.851 87.48,5.737 -0.914,8.749 Z"
             style="fill:#905323;fill-opacity:1;fill-rule:nonzero;stroke:none"
             id="path110" /></g><g
           id="g112"
           transform="translate(133.3384,276.2563)"><path
             d="m 0,0 -20.302,-229.025 2.254,-1.387 19.517,229.95 z"
             style="fill:#ef8e21;fill-opacity:1;fill-rule:nonzero;stroke:none"
             id="path114" /></g><g
           id="g116"
           transform="translate(134.8077,275.7942)"><path
             d="m 0,0 -19.828,-229.872 6.222,1.942 17.395,190.798 z"
             style="fill:#905323;fill-opacity:1;fill-rule:nonzero;stroke:none"
             id="path118" /></g><g
           id="g120"
           transform="translate(134.7752,275.8002)"><path
             d="M 0,0 25.798,-247.386 29.95,-247.934 3.17,1.2 Z"
             style="fill:#905323;fill-opacity:1;fill-rule:nonzero;stroke:none"
             id="path122" /></g><g
           id="g124"
           transform="translate(233.0654,273.3367)"><path
             d="m 0,0 23.735,-223.084 5.568,1.551 L 6.726,-0.652 Z"
             style="fill:#ef8e21;fill-opacity:1;fill-rule:nonzero;stroke:none"
             id="path126" /></g><g
           id="g128"
           transform="translate(229.895,272.1369)"><path
             d="m 0,0 22.754,-221.336 4.152,-0.548 L 3.17,1.2 Z"
             style="fill:#905323;fill-opacity:1;fill-rule:nonzero;stroke:none"
             id="path130" /></g><g
           id="g132"
           transform="translate(249.948,107.1971)"><path
             d="m 0,0 -86.133,-14.418 -18.23,174.82 87.91,-3.85 z"
             style="fill:#000000;fill-opacity:1;fill-rule:nonzero;stroke:none"
             id="path134" /></g><g
           id="g136"
           transform="translate(152.6953,106.8549)"><path
             d="M 0,0 -27.014,-4.477 -14.098,131.807 -7.8,72.859 Z"
             style="fill:#000000;fill-opacity:1;fill-rule:nonzero;stroke:none"
             id="path138" /></g></g></g></g></svg>
