<?xml version="1.0" encoding="UTF-8" standalone="no"?>
<svg
   xmlns:dc="http://purl.org/dc/elements/1.1/"
   xmlns:cc="http://creativecommons.org/ns#"
   xmlns:rdf="http://www.w3.org/1999/02/22-rdf-syntax-ns#"
   xmlns:svg="http://www.w3.org/2000/svg"
   xmlns="http://www.w3.org/2000/svg"
   xmlns:sodipodi="http://sodipodi.sourceforge.net/DTD/sodipodi-0.dtd"
   xmlns:inkscape="http://www.inkscape.org/namespaces/inkscape"
   version="1.1"
   id="svg2"
   xml:space="preserve"
   width="400"
   height="400"
   viewBox="0 0 400 400"
   sodipodi:docname="L2-04.ai"><metadata
     id="metadata8"><rdf:RDF><cc:Work
         rdf:about=""><dc:format>image/svg+xml</dc:format><dc:type
           rdf:resource="http://purl.org/dc/dcmitype/StillImage" /></cc:Work></rdf:RDF></metadata><defs
     id="defs6"><clipPath
       clipPathUnits="userSpaceOnUse"
       id="clipPath18"><path
         d="M 0,300 H 300 V 0 H 0 Z"
         id="path16" /></clipPath><clipPath
       clipPathUnits="userSpaceOnUse"
       id="clipPath34"><path
         d="M 90.0141,87.6361 H 233.144 V 5 H 90.0141 Z"
         id="path32" /></clipPath><linearGradient
       x1="0"
       y1="0"
       x2="1"
       y2="0"
       gradientUnits="userSpaceOnUse"
       gradientTransform="matrix(-113.21498,0,0,113.21498,206.36682,96.177864)"
       spreadMethod="pad"
       id="linearGradient86"><stop
         style="stop-opacity:1;stop-color:#808080"
         offset="0"
         id="stop68" /><stop
         style="stop-opacity:1;stop-color:#808080"
         offset="0.309182"
         id="stop70" /><stop
         style="stop-opacity:1;stop-color:#808080"
         offset="0.39506392"
         id="stop72" /><stop
         style="stop-opacity:1;stop-color:#808080"
         offset="0.416657"
         id="stop74" /><stop
         style="stop-opacity:1;stop-color:#666667"
         offset="0.47299804"
         id="stop76" /><stop
         style="stop-opacity:1;stop-color:#666667"
         offset="0.526193"
         id="stop78" /><stop
         style="stop-opacity:1;stop-color:#333333"
         offset="0.889574"
         id="stop80" /><stop
         style="stop-opacity:1;stop-color:#333333"
         offset="0.9162475"
         id="stop82" /><stop
         style="stop-opacity:1;stop-color:#231f20"
         offset="1"
         id="stop84" /></linearGradient><clipPath
       clipPathUnits="userSpaceOnUse"
       id="clipPath96"><path
         d="M 0,300 H 300 V 0 H 0 Z"
         id="path94" /></clipPath><linearGradient
       x1="0"
       y1="0"
       x2="1"
       y2="0"
       gradientUnits="userSpaceOnUse"
       gradientTransform="matrix(-137.57993,0,0,-137.57993,216.71353,165.89702)"
       spreadMethod="pad"
       id="linearGradient134"><stop
         style="stop-opacity:1;stop-color:#4d4e4e"
         offset="0"
         id="stop114" /><stop
         style="stop-opacity:1;stop-color:#4d4e4e"
         offset="0.309182"
         id="stop116" /><stop
         style="stop-opacity:1;stop-color:#4d4e4e"
         offset="0.39506392"
         id="stop118" /><stop
         style="stop-opacity:1;stop-color:#808080"
         offset="0.416657"
         id="stop120" /><stop
         style="stop-opacity:1;stop-color:#808080"
         offset="0.4706469"
         id="stop122" /><stop
         style="stop-opacity:1;stop-color:#808080"
         offset="0.521622"
         id="stop124" /><stop
         style="stop-opacity:1;stop-color:#666667"
         offset="0.875175"
         id="stop126" /><stop
         style="stop-opacity:1;stop-color:#666667"
         offset="0.89924772"
         id="stop128" /><stop
         style="stop-opacity:1;stop-color:#666667"
         offset="0.974834"
         id="stop130" /><stop
         style="stop-opacity:1;stop-color:#666667"
         offset="1"
         id="stop132" /></linearGradient><clipPath
       clipPathUnits="userSpaceOnUse"
       id="clipPath144"><path
         d="M 0,300 H 300 V 0 H 0 Z"
         id="path142" /></clipPath><linearGradient
       x1="0"
       y1="0"
       x2="1"
       y2="0"
       gradientUnits="userSpaceOnUse"
       gradientTransform="matrix(125.54014,0,0,-125.54014,109.48351,177.25752)"
       spreadMethod="pad"
       id="linearGradient182"><stop
         style="stop-opacity:1;stop-color:#4d4e4e"
         offset="0"
         id="stop166" /><stop
         style="stop-opacity:1;stop-color:#4d4e4e"
         offset="0.309182"
         id="stop168" /><stop
         style="stop-opacity:1;stop-color:#4d4e4e"
         offset="0.39506392"
         id="stop170" /><stop
         style="stop-opacity:1;stop-color:#333333"
         offset="0.416657"
         id="stop172" /><stop
         style="stop-opacity:1;stop-color:#333333"
         offset="0.47764015"
         id="stop174" /><stop
         style="stop-opacity:1;stop-color:#333333"
         offset="0.535218"
         id="stop176" /><stop
         style="stop-opacity:1;stop-color:#4d4e4e"
         offset="0.957929"
         id="stop178" /><stop
         style="stop-opacity:1;stop-color:#4d4e4e"
         offset="1"
         id="stop180" /></linearGradient><clipPath
       clipPathUnits="userSpaceOnUse"
       id="clipPath192"><path
         d="M 0,300 H 300 V 0 H 0 Z"
         id="path190" /></clipPath><linearGradient
       x1="0"
       y1="0"
       x2="1"
       y2="0"
       gradientUnits="userSpaceOnUse"
       gradientTransform="matrix(-29.399088,9.4907522,-9.4907522,-29.399088,187.54024,195.54987)"
       spreadMethod="pad"
       id="linearGradient330"><stop
         style="stop-opacity:1;stop-color:#c5c7d1"
         offset="0"
         id="stop314" /><stop
         style="stop-opacity:1;stop-color:#c5c7d1"
         offset="0.242644"
         id="stop316" /><stop
         style="stop-opacity:1;stop-color:#c5c7d1"
         offset="0.379513"
         id="stop318" /><stop
         style="stop-opacity:1;stop-color:#c5c7d1"
         offset="0.44441718"
         id="stop320" /><stop
         style="stop-opacity:1;stop-color:#d3d3dc"
         offset="0.472187"
         id="stop322" /><stop
         style="stop-opacity:1;stop-color:#d3d3dc"
         offset="0.732432"
         id="stop324" /><stop
         style="stop-opacity:1;stop-color:#d3d3dc"
         offset="0.889189"
         id="stop326" /><stop
         style="stop-opacity:1;stop-color:#d3d3dc"
         offset="1"
         id="stop328" /></linearGradient><clipPath
       clipPathUnits="userSpaceOnUse"
       id="clipPath340"><path
         d="M 0,300 H 300 V 0 H 0 Z"
         id="path338" /></clipPath><clipPath
       clipPathUnits="userSpaceOnUse"
       id="clipPath360"><path
         d="m 143.151,194.787 h 14.538 v -39.446 h -14.538 z"
         id="path358" /></clipPath><clipPath
       clipPathUnits="userSpaceOnUse"
       id="clipPath388"><path
         d="m 168.647,204.358 h 9.694 v -7.516 h -9.694 z"
         id="path386" /></clipPath><clipPath
       clipPathUnits="userSpaceOnUse"
       id="clipPath448"><path
         d="m 214.231,261.956 h 10.101 v -24.087 h -10.101 z"
         id="path446" /></clipPath><clipPath
       clipPathUnits="userSpaceOnUse"
       id="clipPath464"><path
         d="m 212.253,235.78 h 3.385 v -5.486 h -3.385 z"
         id="path462" /></clipPath><clipPath
       clipPathUnits="userSpaceOnUse"
       id="clipPath504"><path
         d="m 184.51,278.032 h 22.521 V 265 H 184.51 Z"
         id="path502" /></clipPath><clipPath
       clipPathUnits="userSpaceOnUse"
       id="clipPath520"><path
         d="m 208.595,281.683 h 5.317 v -3.68 h -5.317 z"
         id="path518" /></clipPath></defs><sodipodi:namedview
     pagecolor="#ffffff"
     bordercolor="#666666"
     borderopacity="1"
     objecttolerance="10"
     gridtolerance="10"
     guidetolerance="10"
     inkscape:pageopacity="0"
     inkscape:pageshadow="2"
     inkscape:window-width="640"
     inkscape:window-height="480"
     id="namedview4" /><g
     id="g10"
     inkscape:groupmode="layer"
     inkscape:label="L2-04"
     transform="matrix(1.3333333,0,0,-1.3333333,0,400)"><g
       id="g12"><g
         id="g14"
         clip-path="url(#clipPath18)"><g
           id="g20"
           transform="translate(133.4696,292.9729)"><path
             d="m 0,0 -61.073,-35 c -0.241,-0.138 -0.758,-0.635 -1.176,-1.614 -0.479,-1.122 -0.629,-2.451 -0.392,-3.47 l 16.971,-73.418 c 0.3,-1.298 2.294,-6.659 3.425,-6.01 l 60.87,39.548 c 0.238,0.14 0.757,0.631 1.174,1.611 0.479,1.122 0.628,2.456 0.392,3.475 L 3.219,-1.46 C 2.919,-0.163 1.131,0.649 0,0"
             style="fill:#333333;fill-opacity:1;fill-rule:nonzero;stroke:none"
             id="path22" /></g><g
           id="g24"
           transform="translate(136.9202,292.9729)"><path
             d="m 0,0 -61.073,-35 c -0.241,-0.138 -0.758,-0.635 -1.176,-1.614 -0.479,-1.122 -0.629,-2.451 -0.392,-3.47 l 16.971,-73.418 c 0.3,-1.298 2.089,-2.109 3.219,-1.46 l 61.076,34.998 c 0.238,0.14 0.756,0.631 1.174,1.611 0.479,1.122 0.628,2.456 0.392,3.475 L 3.219,-1.46 C 2.919,-0.163 1.131,0.649 0,0"
             style="fill:#4d4e4e;fill-opacity:1;fill-rule:nonzero;stroke:none"
             id="path26" /></g><g
           id="g28"><g
             id="g30" /><g
             id="g42"><g
               clip-path="url(#clipPath34)"
               id="g40"><g
                 transform="translate(164.2481,6.2487)"
                 id="g38"><path
                   d="m 0,0 66.733,38.528 c 3.206,1.851 2.8,5.115 -0.902,7.252 L 7.222,79.618 C 3.52,81.756 -2.132,81.99 -5.338,80.139 L -72.071,41.61 c -3.206,-1.851 -2.8,-5.114 0.902,-7.251 L -12.56,0.521 C -8.858,-1.617 -3.206,-1.851 0,0"
                   style="fill:#e2e3ed;fill-opacity:1;fill-rule:nonzero;stroke:none"
                   id="path36" /></g></g></g></g><g
           id="g44"
           transform="translate(115.8596,38.3808)"><path
             d="M 0,0 4.272,0.895 1.752,59.611 0,59.391 Z"
             style="fill:#333333;fill-opacity:1;fill-rule:nonzero;stroke:none"
             id="path46" /></g><g
           id="g48"
           transform="translate(152.443,77.882)"><path
             d="m 0,0 -34.831,20.11 2.52,-58.716 34.831,-20.11 z"
             style="fill:#808080;fill-opacity:1;fill-rule:nonzero;stroke:none"
             id="path50" /></g><g
           id="g52"
           transform="translate(103.5253,46.4248)"><path
             d="M 0,0 V -0.054 C 0,-0.589 0.375,-1.126 1.18,-1.609 L 12.334,-8.044 V 7.831 L 0.804,1.18 C 0.268,0.859 0,0.429 0,0"
             style="fill:#808080;fill-opacity:1;fill-rule:nonzero;stroke:none"
             id="path54" /></g></g></g><g
       id="g56"><g
         id="g58"><g
           id="g64"><g
             id="g66"><path
               d="m 98.216,174.457 5.309,-128.032 v -0.054 l 12.335,0.376 V 97.771 L 138.865,84.472 V 67.555 47.389 25.082 l 17.053,-9.814 c 1.448,-0.858 3.647,-0.912 4.88,-0.214 v 0 l 58.024,33.516 c 0.536,0.323 0.803,0.751 0.803,1.18 v 0 l 5.309,128.032 z"
               style="fill:url(#linearGradient86);stroke:none"
               id="path88" /></g></g></g></g><g
       id="g90"><g
         id="g92"
         clip-path="url(#clipPath96)"><g
           id="g98"
           transform="translate(98.7257,163.0562)"><path
             d="m 0,0 20.742,11.976 86.626,2.261 18.359,-10.6 -0.649,-14.644 -59.555,-34.384 c -3.206,-1.851 -8.858,-1.617 -12.561,0.521 l -52.309,30.2 z"
             style="fill:#333333;fill-opacity:1;fill-rule:nonzero;stroke:none"
             id="path100" /></g></g></g><g
       id="g102"><g
         id="g104"><g
           id="g110"><g
             id="g112"><path
               d="m 158.91,205.967 -61.591,-31.21 -7.3,-0.162 v -5.53 h 0.036 c -0.032,-1.447 0.967,-2.977 3.024,-4.165 v 0 l 46.613,-26.912 3.091,-6.498 8.905,-5.142 c 3.702,-2.137 9.354,-2.371 12.56,-0.52 v 0 l 66.733,38.528 c 1.448,0.836 2.12,1.963 2.124,3.14 v 0 h 0.039 v 10.29 l -13.253,-0.295 -48.421,27.955 c -2.026,1.169 -4.636,1.769 -7.109,1.769 v 0 c -2.046,0 -3.999,-0.41 -5.451,-1.248"
               style="fill:url(#linearGradient134);stroke:none"
               id="path136" /></g></g></g></g><g
       id="g138"><g
         id="g140"
         clip-path="url(#clipPath144)"><g
           id="g146"
           transform="translate(230.9875,174.6068)"><path
             d="m 0,0 -66.739,-38.524 c -3.211,-1.85 -8.855,-1.612 -12.555,0.516 l -58.611,33.845 c -3.701,2.141 -4.11,5.392 -0.912,7.255 l 0.33,0.198 66.039,38.114 0.37,0.212 c 3.211,1.85 8.854,1.612 12.555,-0.529 L -0.912,7.255 C 2.789,5.114 3.198,1.85 0,0"
             style="fill:#333333;fill-opacity:1;fill-rule:nonzero;stroke:none"
             id="path148" /></g><g
           id="g150"
           transform="translate(229.5327,175.5052)"><path
             d="m 0,0 -65.34,-37.716 c -3.144,-1.812 -8.669,-1.579 -12.292,0.504 l -57.383,33.136 c -3.623,2.096 -4.024,5.279 -0.893,7.103 l 0.324,0.194 64.654,37.316 0.362,0.206 c 3.145,1.812 8.669,1.579 12.292,-0.517 L -0.893,7.103 C 2.73,5.007 3.131,1.811 0,0"
             style="fill:#989898;fill-opacity:1;fill-rule:nonzero;stroke:none"
             id="path152" /></g></g></g><g
       id="g154"><g
         id="g156"><g
           id="g162"><g
             id="g164"><path
               d="M 159.286,212.677 99.185,177.989 c -1.246,-0.719 -1.246,-2.516 0,-3.236 v 0 l 56.826,-32.816 c 1.006,-0.581 2.551,-0.938 4.018,-0.938 v 0 c 1.296,0 2.101,0.265 2.38,0.423 v 0 l 60.421,34.89 c 0.7,0.409 1.018,1.136 0.951,1.837 v 0 c -0.045,0.514 -45.749,27.235 -58.239,34.52 v 0 c -0.97,0.565 -2.051,0.847 -3.132,0.847 v 0 c -1.078,0 -2.156,-0.28 -3.124,-0.839"
               style="fill:url(#linearGradient182);stroke:none"
               id="path184" /></g></g></g></g><g
       id="g186"><g
         id="g188"
         clip-path="url(#clipPath192)"><g
           id="g194"
           transform="translate(99.1845,176.4201)"><path
             d="m 0,0 60.102,34.688 c 1.94,1.119 4.32,1.12 6.255,-0.008 11.868,-6.922 53.691,-31.375 57.873,-34.237 0.276,0.381 0.41,0.834 0.367,1.285 -0.046,0.514 -45.75,27.236 -58.24,34.521 -1.935,1.128 -4.315,1.127 -6.255,0.008 L 0,1.569 C -0.89,1.056 -1.132,-0.005 -0.75,-0.833 -0.598,-0.503 -0.356,-0.205 0,0"
             style="fill:#333333;fill-opacity:1;fill-rule:nonzero;stroke:none"
             id="path196" /></g><g
           id="g198"
           transform="translate(192.1647,152.2002)"><path
             d="m 0,0 12.676,7.318 c 3.127,1.806 3.494,4.521 0.819,6.065 l -0.977,0.565 -24,-13.857 0.977,-0.564 C -7.83,-2.017 -3.127,-1.805 0,0"
             style="fill:#333333;fill-opacity:1;fill-rule:nonzero;stroke:none"
             id="path200" /></g><g
           id="g202"
           transform="translate(202.2308,88.8896)"><path
             d="m 0,0 c 0.133,-0.22 0.114,-0.57 -0.016,-0.941 -0.042,-0.109 -0.082,-0.174 -0.12,-0.196 l -8.794,-5.077 0.406,7.302 5.496,3.173 z"
             style="fill:#e6e6e5;fill-opacity:1;fill-rule:nonzero;stroke:none"
             id="path204" /></g><g
           id="g206"
           transform="translate(184.3658,85.3464)"><path
             d="m 0,0 -6.035,-3.484 c -0.45,-0.26 -0.815,-0.301 -1.096,-0.124 l 3.802,8.331 5.066,-0.884 z"
             style="fill:#e6e6e5;fill-opacity:1;fill-rule:nonzero;stroke:none"
             id="path208" /></g><g
           id="g210"
           transform="translate(191.9573,97.3881)"><path
             d="m 0,0 -7.757,-6.403 -1.192,7.951 1.937,-0.335 3.478,7.603 c 0.638,1.396 1.678,2.618 2.757,3.241 L 4.941,15.359 -1.932,0.334 Z"
             style="fill:#e6e6e5;fill-opacity:1;fill-rule:nonzero;stroke:none"
             id="path212" /></g><g
           id="g214"
           transform="translate(193.0858,103.205)"><path
             d="M 0,0 3.228,7.154 C 3.477,7.722 3.864,8.156 4.239,8.372 L 4.276,8.394 C 4.351,8.437 4.426,8.48 4.461,8.459 L 8.432,2.879 2.928,-4.108 Z"
             style="fill:#e6e6e5;fill-opacity:1;fill-rule:nonzero;stroke:none"
             id="path216" /></g><g
           id="g218"
           transform="translate(196.9619,92.1713)"><path
             d="M 0,0 2.184,9.899 9.72,12.326 7.618,9.66 9.538,6.987 C 10.096,6.211 10.056,4.796 9.435,3.294 L 6.585,-3.59 2.103,2.667 Z"
             style="fill:#e6e6e5;fill-opacity:1;fill-rule:nonzero;stroke:none"
             id="path220" /></g><g
           id="g222"
           transform="translate(187.1514,86.2066)"><path
             d="m 0,0 0.155,2.791 5.187,-3.254 -5.905,-9.657 0.156,2.796 -5.506,-3.179 c -1.078,-0.622 -2.031,-0.51 -2.489,0.291 l -2.301,4.033 z"
             style="fill:#e6e6e5;fill-opacity:1;fill-rule:nonzero;stroke:none"
             id="path224" /></g><g
           id="g226"
           transform="translate(103.2752,159.0133)"><path
             d="m 0,0 5.792,-7.549 2.951,2.501 z"
             style="fill:#191919;fill-opacity:1;fill-rule:nonzero;stroke:none"
             id="path228" /></g><g
           id="g230"
           transform="translate(119.7227,149.5173)"><path
             d="m 0,0 5.792,-7.549 2.951,2.501 z"
             style="fill:#191919;fill-opacity:1;fill-rule:nonzero;stroke:none"
             id="path232" /></g><g
           id="g234"
           transform="translate(100.8446,160.4166)"><path
             d="M 0,0 5.792,-7.549 8.223,-8.952 2.431,-1.403 Z"
             style="fill:#4d4e4e;fill-opacity:1;fill-rule:nonzero;stroke:none"
             id="path236" /></g><g
           id="g238"
           transform="translate(117.2921,150.9206)"><path
             d="M 0,0 5.792,-7.549 8.223,-8.952 2.431,-1.403 Z"
             style="fill:#4d4e4e;fill-opacity:1;fill-rule:nonzero;stroke:none"
             id="path240" /></g><g
           id="g242"
           transform="translate(110.6999,44.7118)"><path
             d="m 0,0 c 0,5.444 -3.846,12.077 -8.59,14.815 -2.388,1.38 -4.546,1.504 -6.103,0.598 l -0.002,0.003 -3.731,-2.387 12.649,-20.628 3.259,2.081 v 10e-4 C -0.962,-4.632 0,-2.723 0,0"
             style="fill:#25242f;fill-opacity:1;fill-rule:nonzero;stroke:none"
             id="path244" /></g><g
           id="g246"
           transform="translate(107.1934,42.4724)"><path
             d="m 0,0 c 0,-5.443 -3.846,-7.636 -8.59,-4.898 -4.744,2.74 -8.589,9.373 -8.589,14.816 0,5.445 3.845,7.637 8.589,4.898 C -3.846,12.077 0,5.443 0,0"
             style="fill:#393943;fill-opacity:1;fill-rule:nonzero;stroke:none"
             id="path248" /></g><g
           id="g250"
           transform="translate(104.7636,43.8754)"><path
             d="m 0,0 c 0,-3.903 -2.758,-5.476 -6.16,-3.512 -3.402,1.964 -6.159,6.721 -6.159,10.624 0,3.904 2.757,5.476 6.159,3.512 C -2.758,8.66 0,3.904 0,0"
             style="fill:#ccc5bb;fill-opacity:1;fill-rule:nonzero;stroke:none"
             id="path252" /></g><g
           id="g254"
           transform="translate(97.235,183.6198)"><path
             d="m 0,0 0.061,-0.108 0.27,-0.464 c 0.086,-0.485 0.38,-0.994 0.757,-1.312 0.002,0 0.004,-0.001 0.005,-0.003 l 0.134,-0.232 0.172,-0.294 0.023,-0.04 h 0.002 l 0.104,0.06 14.596,8.218 0.316,0.177 c 0.187,0.094 0.304,0.309 0.316,0.615 V 6.68 c -0.007,0.647 -0.465,1.422 -1.023,1.732 -0.251,0.14 -0.479,0.162 -0.654,0.084 L 15.075,8.494 C 15.047,8.481 15.021,8.466 14.994,8.448 L 0.121,0.068 Z"
             style="fill:#989898;fill-opacity:1;fill-rule:nonzero;stroke:none"
             id="path256" /></g><g
           id="g258"
           transform="translate(97.2292,182.9879)"><path
             d="M 0,0 C 0,-0.007 0,-0.013 0.002,-0.02 V -0.028 C 0.017,-0.584 0.36,-1.227 0.81,-1.588 l 0.002,-10e-4 c 0.068,-0.055 0.137,-0.103 0.21,-0.143 0.136,-0.076 0.265,-0.117 0.384,-0.127 h 0.003 c 0.093,-0.007 0.179,0.007 0.255,0.038 h 0.001 l 0.105,0.06 c 0.157,0.117 0.251,0.337 0.248,0.636 C 2.016,-1.03 2.006,-0.933 1.985,-0.835 1.874,-0.263 1.47,0.342 0.994,0.607 0.752,0.741 0.534,0.767 0.362,0.7 0.319,0.683 0.278,0.662 0.241,0.632 0.088,0.513 -0.003,0.296 0,0"
             style="fill:#2e657e;fill-opacity:1;fill-rule:nonzero;stroke:none"
             id="path260" /></g><g
           id="g262"
           transform="translate(97.2292,182.8723)"><path
             d="m 0,0 c 0.007,-0.582 0.405,-1.279 0.9,-1.588 0.001,-10e-4 0.001,-0.003 0.003,-0.003 0.018,-0.012 0.038,-0.023 0.056,-0.033 0.162,-0.091 0.314,-0.128 0.447,-0.119 h 0.003 c 0.086,0.006 0.165,0.033 0.232,0.078 0.158,0.107 0.254,0.317 0.251,0.61 C 1.89,-0.971 1.88,-0.883 1.862,-0.796 1.761,-0.253 1.383,0.319 0.933,0.569 0.69,0.705 0.468,0.721 0.303,0.64 0.132,0.556 0.02,0.367 0.002,0.096 V 0.088 C 0,0.06 0,0.03 0,0"
             style="fill:#333333;fill-opacity:1;fill-rule:nonzero;stroke:none"
             id="path264" /></g><g
           id="g266"
           transform="translate(129.4743,203.159)"><path
             d="m 0,0 0.061,-0.108 0.27,-0.464 c 0.086,-0.485 0.38,-0.994 0.757,-1.312 0.002,0 0.004,-0.001 0.005,-0.003 l 0.134,-0.232 0.172,-0.294 0.023,-0.04 h 0.002 l 0.104,0.06 14.596,8.218 0.316,0.177 c 0.187,0.094 0.304,0.309 0.316,0.615 V 6.68 c -0.007,0.647 -0.465,1.422 -1.023,1.732 -0.251,0.14 -0.479,0.162 -0.654,0.084 L 15.075,8.494 C 15.047,8.481 15.021,8.466 14.994,8.448 L 0.121,0.068 Z"
             style="fill:#989898;fill-opacity:1;fill-rule:nonzero;stroke:none"
             id="path268" /></g><g
           id="g270"
           transform="translate(129.4686,202.5271)"><path
             d="M 0,0 C 0,-0.007 0,-0.013 0.002,-0.02 V -0.028 C 0.017,-0.584 0.36,-1.227 0.81,-1.588 l 0.002,-10e-4 c 0.068,-0.055 0.137,-0.103 0.21,-0.143 0.136,-0.076 0.265,-0.117 0.384,-0.127 h 0.003 c 0.093,-0.007 0.179,0.007 0.255,0.038 h 0.001 l 0.105,0.06 c 0.157,0.117 0.251,0.337 0.248,0.636 C 2.016,-1.03 2.006,-0.933 1.985,-0.835 1.874,-0.263 1.47,0.342 0.994,0.607 0.752,0.741 0.534,0.767 0.362,0.7 0.319,0.683 0.278,0.662 0.241,0.632 0.088,0.513 -0.003,0.296 0,0"
             style="fill:#2e657e;fill-opacity:1;fill-rule:nonzero;stroke:none"
             id="path272" /></g><g
           id="g274"
           transform="translate(129.4686,202.4115)"><path
             d="m 0,0 c 0.007,-0.582 0.405,-1.279 0.9,-1.588 0.001,-10e-4 0.001,-0.003 0.003,-0.003 0.018,-0.012 0.038,-0.023 0.056,-0.033 0.162,-0.091 0.314,-0.128 0.447,-0.119 h 0.003 c 0.086,0.006 0.165,0.033 0.232,0.078 0.158,0.107 0.254,0.317 0.251,0.61 C 1.89,-0.971 1.88,-0.883 1.862,-0.796 1.761,-0.253 1.383,0.319 0.933,0.569 0.69,0.705 0.468,0.721 0.303,0.64 0.132,0.556 0.02,0.367 0.002,0.096 V 0.088 C 0,0.06 0,0.03 0,0"
             style="fill:#333333;fill-opacity:1;fill-rule:nonzero;stroke:none"
             id="path276" /></g><g
           id="g278"
           transform="translate(145.8495,152.3542)"><path
             d="M 0,0 C -4.656,5.151 -2.892,10.515 3.94,11.981 10.772,13.446 20.084,10.458 24.74,5.307 29.396,0.156 27.632,-5.208 20.8,-6.674 13.968,-8.139 4.656,-5.151 0,0"
             style="fill:#d6d6d5;fill-opacity:1;fill-rule:nonzero;stroke:none"
             id="path280" /></g><g
           id="g282"
           transform="translate(145.4409,153.5462)"><path
             d="M 0,0 C -4.977,5.506 -3.091,11.24 4.211,12.807 11.514,14.373 21.468,11.179 26.445,5.673 31.422,0.166 29.536,-5.567 22.234,-7.134 14.931,-8.7 4.977,-5.506 0,0"
             style="fill:#d4982a;fill-opacity:1;fill-rule:nonzero;stroke:none"
             id="path284" /></g><g
           id="g286"
           transform="translate(145.0376,155.905)"><path
             d="M 0,0 C -5.448,6.027 -3.384,12.304 4.61,14.019 12.604,15.734 23.5,12.237 28.948,6.21 34.396,0.182 32.332,-6.094 24.338,-7.809 16.344,-9.524 5.448,-6.028 0,0"
             style="fill:#f3b835;fill-opacity:1;fill-rule:nonzero;stroke:none"
             id="path288" /></g><g
           id="g290"
           transform="translate(188.4578,189.8408)"><path
             d="m 0,0 -11.747,-36.384 -34.399,11.106 11.747,36.384 z"
             style="fill:#f3b835;fill-opacity:1;fill-rule:nonzero;stroke:none"
             id="path292" /></g><g
           id="g294"
           transform="translate(156.7842,192.2888)"><path
             d="M 0,0 C -5.448,6.027 -3.384,12.304 4.61,14.019 12.604,15.734 23.5,12.237 28.948,6.21 34.396,0.182 32.332,-6.094 24.338,-7.809 16.344,-9.524 5.448,-6.028 0,0"
             style="fill:#ffd043;fill-opacity:1;fill-rule:nonzero;stroke:none"
             id="path296" /></g><g
           id="g298"
           transform="translate(158.9168,195.2862)"><path
             d="M 0,0 C -4.977,5.506 -3.091,11.24 4.211,12.807 11.514,14.373 21.468,11.179 26.445,5.673 31.422,0.166 29.536,-5.567 22.234,-7.134 14.931,-8.7 4.977,-5.506 0,0"
             style="fill:#fde76b;fill-opacity:1;fill-rule:nonzero;stroke:none"
             id="path300" /></g></g></g><g
       id="g302"><g
         id="g304"><g
           id="g310"><g
             id="g312"><path
               d="m 164.41,209.623 c -6.831,-1.466 -8.595,-6.83 -3.939,-11.981 v 0 c 4.656,-5.152 13.968,-8.14 20.8,-6.675 v 0 c 6.832,1.467 8.596,6.831 3.94,11.982 v 0 c -3.854,4.264 -10.901,7.046 -17.089,7.046 v 0 c -1.286,0 -2.536,-0.12 -3.712,-0.372"
               style="fill:url(#linearGradient330);stroke:none"
               id="path332" /></g></g></g></g><g
       id="g334"><g
         id="g336"
         clip-path="url(#clipPath340)"><g
           id="g342"
           transform="translate(160.8863,198.9291)"><path
             d="M 0,0 C -4.656,5.151 -2.892,10.515 3.94,11.981 10.772,13.447 20.084,10.458 24.74,5.307 29.396,0.156 27.632,-5.208 20.8,-6.674 13.968,-8.139 4.656,-5.151 0,0"
             style="fill:#f0f0f5;fill-opacity:1;fill-rule:nonzero;stroke:none"
             id="path344" /></g><g
           id="g346"
           transform="translate(159.98,201.7604)"><path
             d="m 0,0 c 0.408,-0.88 0.986,-1.759 1.788,-2.636 4.331,-4.785 12.98,-7.558 19.314,-6.198 1.146,0.248 2.145,0.618 2.985,1.076 3.743,2.085 4.206,6.128 0.677,10.037 C 20.433,7.064 11.785,9.838 5.45,8.477 0.28,7.358 -1.771,3.847 0,0"
             style="fill:#d3d3dc;fill-opacity:1;fill-rule:nonzero;stroke:none"
             id="path348" /></g><g
           id="g350"
           transform="translate(159.9244,204.6603)"><path
             d="m 0,0 c -0.29,-0.898 -0.269,-1.878 0.056,-2.9 0.408,-0.88 0.985,-1.759 1.787,-2.636 4.332,-4.785 12.98,-7.558 19.314,-6.198 1.147,0.248 2.146,0.618 2.986,1.076 0.918,0.64 1.535,1.451 1.836,2.383 0.591,1.83 -0.145,4.014 -2.029,6.119 C 21.952,0.061 18.916,1.902 15.408,3.035 11.849,4.184 8.27,4.46 5.314,3.824 2.498,3.217 0.602,1.864 0,0"
             style="fill:#ebeaf4;fill-opacity:1;fill-rule:nonzero;stroke:none"
             id="path352" /></g><g
           id="g354"><g
             id="g356" /><g
             id="g368"><g
               clip-path="url(#clipPath360)"
               id="g366"><g
                 transform="translate(146.4698,155.3408)"
                 id="g364"><path
                   d="m 0,0 11.219,34.751 c 0,0 -2.949,2.454 -3.314,4.696 C 5.568,32.207 -3.319,4.682 -3.319,4.682 -3.319,4.682 -2.583,2.433 0,0"
                   style="fill:#723f19;fill-opacity:1;fill-rule:nonzero;stroke:none"
                   id="path362" /></g></g></g></g><g
           id="g370"
           transform="translate(174.6488,201.3341)"><path
             d="m 0,0 c 2.735,0.063 6.119,-1.046 9.127,-2.978 0.972,-0.625 1.392,-1.494 0.975,-2.097 C 9.224,-6.343 7.639,-7.319 5.405,-7.799 3.17,-8.278 0.621,-8.188 -1.891,-7.647 c -1.194,0.256 -2.227,0.995 -2.516,1.766 -0.894,2.385 -0.288,4.35 1.653,5.29 0.38,0.173 0.804,0.312 1.272,0.412 C -1.015,-0.078 -0.519,-0.02 0,0"
             style="fill:#f0f0f5;fill-opacity:1;fill-rule:nonzero;stroke:none"
             id="path372" /></g><g
           id="g374"
           transform="translate(174.9561,201.2673)"><path
             d="M 0,0 C 2.445,0.056 5.469,-0.935 8.157,-2.662 9.026,-3.22 9.402,-3.997 9.029,-4.536 8.245,-5.669 6.828,-6.542 4.831,-6.97 2.833,-7.399 0.555,-7.318 -1.69,-6.835 c -1.067,0.229 -1.991,0.889 -2.249,1.578 -0.799,2.132 -0.258,3.888 1.478,4.729 0.339,0.155 0.718,0.279 1.136,0.368 C -0.907,-0.07 -0.463,-0.018 0,0"
             style="fill:#ebeaf4;fill-opacity:1;fill-rule:nonzero;stroke:none"
             id="path376" /></g><g
           id="g378"
           transform="translate(177.5727,198.2728)"><path
             d="M 0,0 -3.017,-0.647 C -4.1,-0.88 -4.285,-1.846 -3.427,-2.795 -2.569,-3.744 -0.981,-4.33 0.102,-4.098 l 3.017,0.647 c 1.083,0.233 1.267,1.199 0.41,2.148 C 2.671,-0.354 1.083,0.232 0,0"
             style="fill:#565352;fill-opacity:1;fill-rule:nonzero;stroke:none"
             id="path380" /></g><g
           id="g382"><g
             id="g384" /><g
             id="g396"><g
               clip-path="url(#clipPath388)"
               id="g394"><g
                 transform="translate(175.5053,199.0732)"
                 id="g392"><path
                   d="m 0,0 -0.734,-0.15 c -0.226,-0.05 -0.481,-0.02 -0.735,0.062 -0.318,0.103 -0.626,0.29 -0.835,0.516 -0.128,0.147 -0.203,0.294 -0.231,0.426 0.057,0.069 0.163,0.123 0.294,0.15 l 0.734,0.15 C -1.28,1.204 -1.026,1.175 -0.756,1.087 -0.438,0.984 -0.145,0.802 0.063,0.577 0.191,0.43 0.267,0.283 0.294,0.151 0.237,0.082 0.132,0.028 0,0 m -2.858,2.03 c -0.528,-0.111 -1.265,0.109 -1.66,0.518 l -0.517,0.518 c -0.144,0.152 -0.22,0.299 -0.243,0.447 0.1,0.091 0.242,0.15 0.411,0.184 l 1.039,0.226 c 0.586,0.127 1.376,-0.145 1.745,-0.58 L -1.644,2.797 C -1.543,2.676 -1.478,2.55 -1.477,2.445 -1.561,2.348 -1.703,2.289 -1.877,2.24 Z m -4,1.976 C -6.861,3.778 -6.726,3.489 -6.443,3.222 l 4.472,-4.483 c 0.721,-0.707 1.941,-1.118 2.795,-0.92 l 1.208,0.26 c 0.322,0.072 0.543,0.211 0.668,0.382 0.021,0.011 0.026,0.026 0.016,0.048 0.208,0.319 0.151,0.741 -0.213,1.192 L -1.252,4.339 C -1.776,5 -2.874,5.407 -3.644,5.252 L -6.214,4.694 C -6.646,4.605 -6.871,4.344 -6.858,4.006"
                   style="fill:#d6d6d5;fill-opacity:1;fill-rule:nonzero;stroke:none"
                   id="path390" /></g></g></g></g><g
           id="g398"
           transform="translate(171.9011,203.6891)"><path
             d="M 0,0 C 0.586,0.127 1.376,-0.146 1.745,-0.581 L 2.184,-1.127 C 2.285,-1.247 2.35,-1.374 2.351,-1.479 2.267,-1.575 2.125,-1.635 1.951,-1.684 L 0.97,-1.894 c -0.528,-0.111 -1.265,0.11 -1.66,0.518 l -0.518,0.519 c -0.144,0.152 -0.219,0.299 -0.242,0.447 0.1,0.091 0.242,0.15 0.411,0.183 z M 1.293,-3.07 C 1.35,-3 1.455,-2.947 1.587,-2.919 l 0.734,0.15 C 2.547,-2.72 2.802,-2.749 3.072,-2.836 3.39,-2.939 3.683,-3.121 3.891,-3.346 4.019,-3.493 4.095,-3.641 4.122,-3.773 4.065,-3.842 3.96,-3.896 3.828,-3.923 L 3.094,-4.073 C 2.868,-4.123 2.613,-4.094 2.359,-4.012 2.041,-3.909 1.733,-3.721 1.524,-3.496 1.396,-3.349 1.32,-3.202 1.293,-3.07 m -4.032,1.987 4.473,-4.483 c 0.72,-0.707 1.94,-1.118 2.789,-0.936 l 1.209,0.26 c 0.511,0.116 0.783,0.414 0.796,0.779 0.021,0.011 0.026,0.027 0.015,0.048 -0.007,0.248 -0.111,0.528 -0.335,0.811 L 2.453,0.034 C 2.34,0.176 2.191,0.312 2.031,0.416 1.547,0.765 0.9,0.992 0.35,0.976 L 0.334,0.981 C 0.229,0.98 0.134,0.958 0.06,0.947 L -2.509,0.389 C -2.752,0.344 -2.931,0.226 -3.03,0.082 -3.265,-0.211 -3.181,-0.659 -2.739,-1.083"
             style="fill:#d3d3dc;fill-opacity:1;fill-rule:nonzero;stroke:none"
             id="path400" /></g><g
           id="g402"
           transform="translate(175.729,199.7656)"><path
             d="m 0,0 -0.734,-0.15 c -0.226,-0.05 -0.481,-0.02 -0.735,0.062 -0.318,0.103 -0.626,0.29 -0.835,0.516 -0.128,0.147 -0.203,0.294 -0.231,0.426 0.057,0.069 0.163,0.123 0.294,0.15 l 0.734,0.15 C -1.28,1.204 -1.026,1.175 -0.756,1.087 -0.438,0.984 -0.145,0.802 0.063,0.577 0.191,0.43 0.267,0.283 0.294,0.151 0.237,0.082 0.132,0.028 0,0 m -2.858,2.03 c -0.528,-0.111 -1.265,0.109 -1.66,0.518 l -0.517,0.518 c -0.145,0.152 -0.22,0.299 -0.243,0.447 0.1,0.091 0.242,0.15 0.411,0.184 l 1.039,0.226 c 0.586,0.127 1.376,-0.145 1.745,-0.58 L -1.644,2.797 C -1.543,2.676 -1.478,2.55 -1.477,2.445 -1.561,2.348 -1.703,2.289 -1.877,2.24 Z m -4,1.976 C -6.861,3.778 -6.726,3.489 -6.443,3.222 l 4.472,-4.483 c 0.721,-0.707 1.94,-1.118 2.795,-0.92 l 1.208,0.26 c 0.322,0.072 0.543,0.211 0.668,0.382 0.021,0.011 0.026,0.026 0.016,0.048 0.208,0.319 0.151,0.741 -0.213,1.192 L -1.252,4.339 C -1.776,5 -2.874,5.408 -3.645,5.252 L -6.214,4.694 C -6.647,4.605 -6.871,4.344 -6.858,4.006"
             style="fill:#f0f0f5;fill-opacity:1;fill-rule:nonzero;stroke:none"
             id="path404" /></g><g
           id="g406"
           transform="translate(170.4513,203.2789)"><path
             d="M 0,0 C 0.1,0.091 0.242,0.15 0.411,0.184 L 1.45,0.41 C 2.036,0.537 2.826,0.264 3.195,-0.171 L 3.633,-0.716 C 3.735,-0.837 3.8,-0.963 3.801,-1.069 3.717,-1.165 3.575,-1.224 3.401,-1.274 L 2.42,-1.484 C 1.892,-1.595 1.155,-1.374 0.76,-0.965 L 0.242,-0.447 C 0.098,-0.295 0.023,-0.148 0,0 m 2.743,-2.66 c 0.057,0.07 0.162,0.124 0.294,0.151 l 0.734,0.15 c 0.226,0.049 0.48,0.02 0.751,-0.067 C 4.84,-2.529 5.133,-2.711 5.341,-2.936 5.469,-3.083 5.544,-3.231 5.572,-3.363 5.515,-3.432 5.41,-3.486 5.278,-3.513 L 4.544,-3.663 C 4.317,-3.713 4.063,-3.683 3.809,-3.601 3.491,-3.499 3.182,-3.311 2.974,-3.086 2.846,-2.939 2.77,-2.792 2.743,-2.66 M -1.083,0.508 C -1.119,0.344 -1.027,0.139 -0.84,-0.045 L 2.874,-3.668 C 3.37,-4.145 4.208,-4.433 4.793,-4.306 l 1.282,0.272 c 0.586,0.127 0.729,0.625 0.328,1.124 L 3.481,0.826 3.444,0.873 C 3.278,1.067 3.049,1.229 2.768,1.337 2.487,1.446 2.217,1.48 1.99,1.43 L 1.8,1.386 1.784,1.392 -0.711,0.844 C -0.938,0.795 -1.064,0.677 -1.083,0.508"
             style="fill:#ebeaf4;fill-opacity:1;fill-rule:nonzero;stroke:none"
             id="path408" /></g><g
           id="g410"
           transform="translate(170.4513,203.2789)"><path
             d="M 0,0 C 0.1,0.091 0.242,0.15 0.411,0.184 L 1.45,0.41 C 2.036,0.537 2.826,0.264 3.195,-0.171 L 3.633,-0.716 C 3.735,-0.837 3.8,-0.963 3.801,-1.069 3.984,-0.882 3.987,-0.602 3.757,-0.334 L 3.318,0.211 C 2.949,0.647 2.159,0.919 1.573,0.792 L 0.534,0.565 C 0.159,0.493 -0.039,0.259 0,0"
             style="fill:#d3d3dc;fill-opacity:1;fill-rule:nonzero;stroke:none"
             id="path412" /></g><g
           id="g414"
           transform="translate(173.1938,200.6193)"><path
             d="m 0,0 c 0.057,0.069 0.163,0.123 0.294,0.151 l 0.734,0.15 C 1.255,0.35 1.509,0.321 1.779,0.233 2.097,0.131 2.39,-0.052 2.598,-0.277 2.727,-0.424 2.802,-0.571 2.83,-0.703 3.029,-0.521 2.989,-0.21 2.722,0.105 2.514,0.331 2.221,0.513 1.903,0.615 1.632,0.703 1.378,0.732 1.151,0.682 L 0.418,0.533 C 0.096,0.461 -0.039,0.258 0,0"
             style="fill:#d3d3dc;fill-opacity:1;fill-rule:nonzero;stroke:none"
             id="path416" /></g><g
           id="g418"
           transform="translate(176.0367,198.2882)"><path
             d="M 0,0 C 0.188,-0.208 0.563,-0.328 0.839,-0.269 1.114,-0.21 1.185,0.006 0.997,0.214 0.81,0.422 0.434,0.542 0.159,0.483 -0.117,0.424 -0.188,0.208 0,0"
             style="fill:#d3d3dc;fill-opacity:1;fill-rule:nonzero;stroke:none"
             id="path420" /></g><g
           id="g422"
           transform="translate(222.5337,218.5252)"><path
             d="m 0,0 -12.727,4.054 c -1.533,0.488 -2.38,2.127 -1.892,3.66 l 11.705,36.747 c 0.488,1.533 2.127,2.38 3.66,1.892 l 12.727,-4.054 c 1.534,-0.489 2.38,-2.127 1.892,-3.66 L 3.66,1.892 C 3.172,0.359 1.533,-0.488 0,0"
             style="fill:#8d8c8a;fill-opacity:1;fill-rule:nonzero;stroke:none"
             id="path424" /></g><g
           id="g426"
           transform="translate(236.4129,260.6868)"><path
             d="m 0,0 c 0.208,-0.561 0.24,-1.192 0.045,-1.806 l -11.79,-37.012 c -0.465,-1.46 -2.025,-2.266 -3.485,-1.801 l -12.992,4.138 c -0.093,0.03 -0.184,0.064 -0.271,0.102 0.287,-0.772 0.911,-1.41 1.757,-1.679 l 12.991,-4.138 c 1.46,-0.466 3.021,0.341 3.486,1.801 L 1.53,-3.383 C 1.966,-2.017 1.286,-0.562 0,0"
             style="fill:#7c7c7b;fill-opacity:1;fill-rule:nonzero;stroke:none"
             id="path428" /></g><g
           id="g430"
           transform="translate(232.6373,260.5206)"><path
             d="m 0,0 -6.784,2.161 0.948,2.974 c 0.18,0.568 0.787,0.882 1.355,0.701 L 0.247,4.33 C 0.815,4.149 1.128,3.542 0.947,2.974 Z"
             style="fill:#8d8c8a;fill-opacity:1;fill-rule:nonzero;stroke:none"
             id="path432" /></g><g
           id="g434"
           transform="translate(227.3268,223.9737)"><path
             d="M 0,0 -18.279,5.822 -8.289,37.185 9.99,31.363 Z"
             style="fill:#e83a25;fill-opacity:1;fill-rule:nonzero;stroke:none"
             id="path436" /></g><g
           id="g438"
           transform="translate(220.7359,243.9025)"><path
             d="m 0,0 c 1.201,-0.421 2.371,-0.931 3.497,-1.525 -2.059,-2.55 -4.007,-5.189 -5.838,-7.907 3.076,2.798 6.156,5.599 9.448,8.139 -1.178,0.484 -2.356,0.967 -3.534,1.451 1.95,1.476 3.899,2.952 5.848,4.428 -1.424,0.36 -4.234,1.349 -4.234,1.349 0,0 -2.212,-2.58 -2.951,-3.414 C 2.004,2.259 0.21,-0.067 0,0"
             style="fill:#ffffff;fill-opacity:1;fill-rule:nonzero;stroke:none"
             id="path440" /></g><g
           id="g442"><g
             id="g444" /><g
             id="g456"><g
               clip-path="url(#clipPath448)"
               opacity="0.369995"
               id="g454"><g
                 transform="translate(219.481,255.8388)"
                 id="g452"><path
                   d="m 0,0 c -1.06,-5.097 -2.658,-10.081 -4.76,-14.844 -0.241,-0.548 -0.495,-1.114 -0.489,-1.713 0.005,-0.599 0.348,-1.241 0.93,-1.384 0.52,-0.128 1.068,0.182 1.384,0.615 0.316,0.433 0.45,0.968 0.582,1.487 1.467,5.759 3.581,11.353 6.289,16.643 C 4.393,1.697 4.879,2.633 4.85,3.635 4.816,4.815 3.132,6.828 1.877,5.864 0.508,4.812 0.327,1.573 0,0"
                   style="fill:#ffffff;fill-opacity:1;fill-rule:nonzero;stroke:none"
                   id="path450" /></g></g></g></g><g
           id="g458"><g
             id="g460" /><g
             id="g472"><g
               clip-path="url(#clipPath464)"
               opacity="0.369995"
               id="g470"><g
                 transform="translate(213.3345,235.3136)"
                 id="g468"><path
                   d="m 0,0 c -0.406,-0.405 -0.624,-0.96 -0.776,-1.513 -0.183,-0.669 -0.285,-1.36 -0.303,-2.053 -0.008,-0.298 10e-4,-0.604 0.113,-0.88 0.112,-0.276 0.347,-0.519 0.641,-0.565 0.35,-0.055 0.68,0.17 0.934,0.416 0.679,0.659 1.104,1.536 1.432,2.424 0.155,0.421 0.293,0.864 0.256,1.311 C 2.189,0.424 0.909,0.905 0,0"
                   style="fill:#ffffff;fill-opacity:1;fill-rule:nonzero;stroke:none"
                   id="path466" /></g></g></g></g><g
           id="g474"
           transform="translate(227.3268,223.9737)"><path
             d="M 0,0 -1.805,0.575 8.185,31.938 9.99,31.363 Z"
             style="fill:#d52f27;fill-opacity:1;fill-rule:nonzero;stroke:none"
             id="path476" /></g><g
           id="g478"
           transform="translate(215.3688,296.379)"><path
             d="m 0,0 6.133,-11.866 c 0.739,-1.43 0.179,-3.187 -1.25,-3.926 l -34.261,-17.707 c -1.43,-0.739 -3.187,-0.179 -3.926,1.25 l -6.133,11.866 c -0.739,1.43 -0.179,3.187 1.25,3.926 L -3.926,1.25 C -2.496,1.989 -0.739,1.429 0,0"
             style="fill:#8d8c8a;fill-opacity:1;fill-rule:nonzero;stroke:none"
             id="path480" /></g><g
           id="g482"
           transform="translate(175.742,276.3803)"><path
             d="m 0,0 c 0.249,0.544 0.673,1.013 1.246,1.309 l 34.507,17.834 c 1.361,0.704 3.035,0.171 3.739,-1.19 L 45.752,5.84 c 0.045,-0.087 0.085,-0.175 0.119,-0.264 0.344,0.749 0.353,1.641 -0.054,2.43 l -6.261,12.112 c -0.703,1.362 -2.377,1.895 -3.738,1.191 L 1.31,3.475 C 0.036,2.816 -0.512,1.307 0,0"
             style="fill:#7c7c7b;fill-opacity:1;fill-rule:nonzero;stroke:none"
             id="path484" /></g><g
           id="g486"
           transform="translate(178.5293,273.828)"><path
             d="M 0,0 3.269,-6.325 0.496,-7.758 c -0.53,-0.274 -1.18,-0.066 -1.454,0.463 l -2.278,4.408 c -0.274,0.529 -0.067,1.18 0.463,1.454 z"
             style="fill:#8d8c8a;fill-opacity:1;fill-rule:nonzero;stroke:none"
             id="path488" /></g><g
           id="g490"
           transform="translate(208.1269,295.9155)"><path
             d="m 0,0 8.808,-17.042 -29.241,-15.113 -8.808,17.042 z"
             style="fill:#f7ad1a;fill-opacity:1;fill-rule:nonzero;stroke:none"
             id="path492" /></g><g
           id="g494"
           transform="translate(198.6955,277.1633)"><path
             d="M 0,0 C -0.552,1.147 -1.018,2.335 -1.394,3.551 1.864,3.899 5.108,4.387 8.324,5.014 4.171,5.211 0.013,5.409 -4.111,5.94 -3.62,4.765 -3.129,3.59 -2.638,2.415 -5.06,2.75 -7.482,3.085 -9.905,3.419 c 0.753,-1.262 2.041,-3.948 2.041,-3.948 0,0 3.388,0.261 4.5,0.327 C -3.015,-0.181 -0.101,0.195 0,0"
             style="fill:#ffffff;fill-opacity:1;fill-rule:nonzero;stroke:none"
             id="path496" /></g><g
           id="g498"><g
             id="g500" /><g
             id="g512"><g
               clip-path="url(#clipPath504)"
               opacity="0.369995"
               id="g510"><g
                 transform="translate(191.1427,267.8358)"
                 id="g508"><path
                   d="M 0,0 C 4.353,2.855 9.008,5.249 13.862,7.131 14.42,7.347 15,7.569 15.42,7.996 c 0.419,0.427 0.63,1.123 0.32,1.636 -0.277,0.458 -0.884,0.627 -1.413,0.544 C 13.797,10.093 13.324,9.809 12.864,9.536 7.754,6.501 2.304,4.04 -3.352,2.214 -4.306,1.906 -5.312,1.589 -6,0.859 -6.81,0.001 -7.043,-2.614 -5.474,-2.819 -3.762,-3.044 -1.343,-0.881 0,0"
                   style="fill:#ffffff;fill-opacity:1;fill-rule:nonzero;stroke:none"
                   id="path506" /></g></g></g></g><g
           id="g514"><g
             id="g516" /><g
             id="g528"><g
               clip-path="url(#clipPath520)"
               opacity="0.369995"
               id="g526"><g
                 transform="translate(210.0024,278.003)"
                 id="g524"><path
                   d="M 0,0 C 0.573,-0.001 1.12,0.238 1.619,0.522 2.221,0.865 2.782,1.281 3.285,1.759 3.501,1.964 3.711,2.187 3.827,2.461 3.943,2.735 3.949,3.073 3.773,3.314 3.565,3.6 3.172,3.675 2.818,3.68 1.872,3.694 0.951,3.374 0.092,2.978 -0.316,2.79 -0.726,2.575 -1.016,2.232 -1.848,1.247 -1.283,0.003 0,0"
                   style="fill:#ffffff;fill-opacity:1;fill-rule:nonzero;stroke:none"
                   id="path522" /></g></g></g></g><g
           id="g530"
           transform="translate(208.1269,295.9155)"><path
             d="m 0,0 0.87,-1.683 -29.241,-15.113 -0.87,1.683 z"
             style="fill:#f08e20;fill-opacity:1;fill-rule:nonzero;stroke:none"
             id="path532" /></g></g></g></g></svg>
