<svg xmlns="http://www.w3.org/2000/svg" xmlns:xlink="http://www.w3.org/1999/xlink" viewBox="0 0 1920 1504"><defs><style>.cls-1{fill:#dae0f4;}.cls-2{fill:none;}.cls-3{isolation:isolate;}.cls-4{font-size:28.22px;font-family:Gotham-Light, Gotham Light;}.cls-5{letter-spacing:-0.03em;}.cls-6{letter-spacing:0em;}.cls-7{letter-spacing:-0.01em;}.cls-8{fill:#25192e;}.cls-9{fill:#3d2d4a;}.cls-10{fill:#483558;}.cls-11,.cls-13,.cls-26{fill:#bdc4df;}.cls-11{opacity:0.7;}.cls-11,.cls-12,.cls-15,.cls-22,.cls-26{mix-blend-mode:multiply;}.cls-14{fill:#ffb806;}.cls-15{fill:#d8a118;}.cls-15,.cls-16{opacity:0.3;}.cls-16,.cls-32{fill:#efbb35;}.cls-16,.cls-31{mix-blend-mode:screen;}.cls-17{fill:#cf8c0f;}.cls-18{fill:#3477b9;}.cls-19{fill:#1f5d9c;}.cls-20{fill:#c8d0ec;}.cls-21{fill:#f2f4fe;}.cls-22,.cls-31{opacity:0.2;}.cls-23{fill:#15508c;}.cls-24{fill:#b2bde8;}.cls-25{fill:#715f7f;}.cls-27{clip-path:url(#clip-path);}.cls-28{clip-path:url(#clip-path-2);}.cls-29{fill:#b7bedb;}.cls-30{fill:#aab1cb;}</style><clipPath id="clip-path"><path class="cls-1" d="M850.88,663.22l.64-.37a1.32,1.32,0,0,1,1.33.13l-.64.37A1.32,1.32,0,0,0,850.88,663.22Z"/></clipPath><clipPath id="clip-path-2"><path class="cls-2" d="M854.17,667.42l-.64.37a1.31,1.31,0,0,0,.55-1.2,4.12,4.12,0,0,0-1.87-3.24l.64-.37a4.12,4.12,0,0,1,1.87,3.24A1.31,1.31,0,0,1,854.17,667.42Z"/></clipPath></defs><title>L2</title><g class="cls-3"><g id="Layer_1" data-name="Layer 1"><text class="cls-4" transform="translate(817.63 802.8)"><tspan class="cls-5">W</tspan><tspan class="cls-6" x="22.95" y="0">a</tspan><tspan class="cls-7" x="36.44" y="0">t</tspan><tspan x="45.61" y="0">er</tspan></text><g class="cls-3"><polygon class="cls-8" points="937.02 695.89 937.02 700.7 862.5 744 862.51 739.2 937.02 695.89"/><polygon class="cls-9" points="862.51 739.2 862.5 744 802 709.07 802.01 704.26 862.51 739.2"/><polygon class="cls-10" points="937.02 695.89 862.51 739.2 802.01 704.26 876.52 660.96 937.02 695.89"/></g><rect class="cls-11" x="834.79" y="707" width="10.5" height="2.28"/><g class="cls-12"><path class="cls-13" d="M906,679.84c15.25,8.81,15.33,23.08.18,31.89s-39.8,8.81-55.05,0-15.33-23.09-.18-31.89S890.75,671,906,679.84Z"/></g><path class="cls-14" d="M818.22,697.41l-.05,0h0a1.15,1.15,0,0,0-1.07.14,3.51,3.51,0,0,0-1.59,2.75,1.11,1.11,0,0,0,.48,1h0l43.22,25.07,2.24-3.87Z"/><path class="cls-15" d="M859.93,725.06l-.75,1.29L816,701.28h0a1.11,1.11,0,0,1-.47-1,2.8,2.8,0,0,1,.15-.87Z"/><path class="cls-16" d="M861.42,722.48l-1,1.67-44.33-25.73a3.07,3.07,0,0,1,1-.92,1.15,1.15,0,0,1,1.07-.14h0l.05,0Z"/><path class="cls-17" d="M858.69,725.31c0,1,.71,1.42,1.59.92a3.51,3.51,0,0,0,1.59-2.75c0-1-.71-1.42-1.59-.92A3.51,3.51,0,0,0,858.69,725.31Z"/><path class="cls-14" d="M858.94,725.17a1.25,1.25,0,0,0,.11.56c.21.43.68.54,1.23.22a3,3,0,0,0,1.34-2.33c0-.86-.6-1.2-1.34-.77A3,3,0,0,0,858.94,725.17Z"/><path class="cls-18" d="M858.94,725.17a1.25,1.25,0,0,0,.11.56c.55.23,1,.34,1.23.22.74-.43,1.34-2.33,1.34-2.33l-1.34-.77A3,3,0,0,0,858.94,725.17Z"/><path class="cls-19" d="M858.94,725.17c0,.86.6,1.2,1.34.78a3,3,0,0,0,1.34-2.33Z"/><g class="cls-3"><g class="cls-3"><path class="cls-13" d="M910.73,689.88v6.75c0,5.37-3.54,10.73-10.59,14.82A47.11,47.11,0,0,1,883.65,717V710.2a47.1,47.1,0,0,0,16.48-5.49c7-4.1,10.58-9.46,10.59-14.82Z"/><path class="cls-20" d="M883.65,710.2V717a62.56,62.56,0,0,1-18.33,0v-6.75a62.56,62.56,0,0,0,18.33,0Z"/><path class="cls-1" d="M865.32,710.23V717a47.68,47.68,0,0,1-16.72-5.52,32.16,32.16,0,0,1-2.73-1.76V703a32.11,32.11,0,0,0,2.73,1.76,47.68,47.68,0,0,0,16.72,5.52Z"/><path class="cls-13" d="M845.87,703v6.75l-.58-.43a24.91,24.91,0,0,1-2.65-2.31,16.55,16.55,0,0,1-4.33-7.1,12.61,12.61,0,0,1-.47-3.43v-6.72a12.58,12.58,0,0,0,.47,3.4,16.55,16.55,0,0,0,4.33,7.1,24.9,24.9,0,0,0,2.65,2.31Z"/></g><path class="cls-21" d="M900,674.86c14.28,8.24,14.35,21.61.16,29.85s-37.26,8.25-51.54,0-14.35-21.61-.17-29.86S885.69,666.61,900,674.86Z"/></g><g class="cls-3"><path class="cls-13" d="M908.94,645.93l-.27,43c0,3.45-1.55,6.89-4.62,10a26.32,26.32,0,0,1-5.41,4.08l-.13.07A44.73,44.73,0,0,1,883,708.14l.27-43a45,45,0,0,0,15.21-5l.4-.23.13-.08a27.22,27.22,0,0,0,4.48-3.25l.53-.49C907.3,653,908.93,649.47,908.94,645.93Z"/><path class="cls-1" d="M883.29,665.17l-.27,43a59.25,59.25,0,0,1-17.36,0l.27-43a59.25,59.25,0,0,0,17.36,0Z"/><path class="cls-1" d="M865.93,665.2l-.27,43a45.16,45.16,0,0,1-15.84-5.23,30.42,30.42,0,0,1-2.58-1.66l.27-43a30.46,30.46,0,0,0,2.58,1.66,45.16,45.16,0,0,0,15.84,5.23Z"/><path class="cls-13" d="M840.35,649a11.9,11.9,0,0,1-.45-3.25l-.27,43a11.92,11.92,0,0,0,.45,3.25c.93,3.33,3.32,6.56,7.16,9.33l.27-43C843.66,655.54,841.28,652.31,840.35,649Z"/><path class="cls-21" d="M899.29,659.74l-.39.23a36.43,36.43,0,0,1-4.26,2.11c-13.46,5.63-32.38,4.92-44.55-2.1-13.53-7.81-13.59-20.47-.16-28.28q1.29-.75,2.68-1.4a41.48,41.48,0,0,1,4.92-1.94c13.11-4.24,30-3.13,41.22,3.34C912.14,639.43,912.34,651.92,899.29,659.74Z"/><path class="cls-13" d="M899.29,659.74h0c-7.66,3.59-17.22,5-26.35,4.22h0a47.24,47.24,0,0,1-19.46-5.64,24.47,24.47,0,0,1-6.92-5.7v0h0a13.17,13.17,0,0,1-3.14-8.26c0-5.23,3.51-10.16,9.91-13.88a36.13,36.13,0,0,1,4.24-2.1,41.48,41.48,0,0,0-4.92,1.94,26.2,26.2,0,0,0-5.1,3.93v-.06H846v.48h1.14a15.35,15.35,0,0,0-3.8,6.58H841v.48h2.21a12,12,0,0,0-.07,4.86h-2.92v.48h3a14.2,14.2,0,0,0,2.28,5l.42.57h-3.44v.48h3.82a23.29,23.29,0,0,0,5,4.49h-3.95V658h4.69q.55.35,1.13.69a36.3,36.3,0,0,0,3.35,1.7h-4.22v.48h5.24v0a45,45,0,0,0,4.81,1.67h-5.17V663h7c1.53.38,3.11.69,4.72.93h-6.75v.48h10.77v0q1.53.12,3.08.17l1.75,0a55.32,55.32,0,0,0,16.88-2.54,41.63,41.63,0,0,0,4.85-1.9Z"/><path class="cls-19" d="M893.15,656.65c-.5.29-1,.57-1.55.83s-1,.49-1.56.72c-9.23,3.91-21.9,3.9-31.16,0-.53-.22-1.05-.46-1.56-.71s-1-.53-1.5-.81c-9.35-5.4-10.29-13.84-2.78-19.82.39-.31.79-.61,1.22-.9s.94-.61,1.44-.91c10.28-6,27-6,37.34,0,.53.31,1,.62,1.51.94s.84.6,1.23.9C903.28,642.85,902.41,651.26,893.15,656.65Z"/><g class="cls-22"><path class="cls-23" d="M898.54,643.44q-.19-.59-.4-1.18l-.21-.55-.08-.2h0a12.62,12.62,0,0,0-1-1.87l-.17-.23h0l-.34-.39q-.21-.22-.43-.43l-.17-.16-.18-.15c-.16-.13-.35-.27-.57-.41a1.64,1.64,0,0,1-.34,1,1.61,1.61,0,0,1-1.7.58A40.56,40.56,0,0,1,887,636a16.18,16.18,0,0,0-5.32-2.06l-.84-.15-.34-.05-.14,0c-.5-.07-1-.12-1.49-.16-1-.09-2-.13-3-.17l-.47,0c-2.21.16-4.44.22-6.65.35a46.14,46.14,0,0,0-7.49.9,21.64,21.64,0,0,0-7,2.73,12.31,12.31,0,0,0-2.47,2.1,12.89,12.89,0,0,0-1.8,2.68,17,17,0,0,0-1.27,3.25,12.52,12.52,0,0,1-.55,1.52,11.65,11.65,0,0,0,3.93,7,12.5,12.5,0,0,1,4.85-7.27c.39-.31.79-.61,1.22-.9s.94-.61,1.44-.91c10.28-6,27-6,37.34,0,.53.31,1,.62,1.51.94s.72.51,1.06.77C899.13,645.5,898.87,644.46,898.54,643.44Z"/></g><path class="cls-20" d="M900.12,649.38a13.79,13.79,0,0,0-4.36-5.51c-.39-.31-.8-.61-1.23-.9s-1-.64-1.51-.94c-10.35-6-27.06-6-37.34,0q-.75.44-1.44.91c-.43.29-.84.59-1.22.9a17,17,0,0,0-1.9,1.75,12.25,12.25,0,0,0-2.41,3.71h0c-.08-.19-.15-.38-.21-.57l-.09-.29,0-.15,0-.14-.07-.29,0-.14v0l-.05-.27,0-.14q-.06-.37-.09-.74v-.14c0-.06,0-.11,0-.17s0-.14,0-.21h0c0-.07,0-.14,0-.22h0c0-.06,0-.12,0-.18s0-.12,0-.18,0-.09,0-.14,0-.05,0-.08,0-.24,0-.37v-.12s0-.09,0-.13l0-.13c0-.1,0-.2,0-.29v0l.05-.26v0l0-.13,0-.19.07-.25c0-.15.09-.29.14-.44s.14-.39.22-.58l.19-.43.07-.14.07-.14a14.25,14.25,0,0,1,4-4.72l.29-.23.3-.23.63-.44.88-.57.37-.22.19-.11,1-.54h0l.75-.38q.79-.39,1.63-.73l1-.38c.85-.32,1.72-.61,2.62-.86l.46-.13.42-.11.59-.15.3-.07.53-.12.13,0,1.09-.22.13,0a45,45,0,0,1,16.19,0l1.21.25q.9.2,1.78.43l.87.25,1.15.36q.71.23,1.4.5l.55.21q1.22.49,2.36,1.07h0q.63.32,1.24.67l.2.12h0c.45.27.88.54,1.29.82s.84.6,1.23.9.71.59,1,.89l.05,0,.15.14.27.27C900.68,641.62,901.63,645.63,900.12,649.38Z"/><path class="cls-24" d="M880.24,630.93a45.15,45.15,0,0,0-14,.34l-.13,0-1.09.22-.13,0-.53.12-.3.07-.59.15-.42.11-.46.13c-.89.26-1.77.54-2.62.86l-1,.38q-.83.34-1.63.73l-.75.38h0l-1,.54-.19.11-.37.22-.88.57-.63.44-.3.23-.29.23a14.25,14.25,0,0,0-4,4.72l-.07.14-.07.14-.19.43c-.08.19-.15.39-.22.58s-.09.29-.14.44l-.07.25,0,.19,0,.13v0l-.05.26v0c0,.1,0,.2,0,.29l0,.13s0,.09,0,.13v.12q0,.18,0,.37s0,.05,0,.08,0,.09,0,.14,0,.12,0,.18,0,.12,0,.18h0c0,.07,0,.14,0,.22h0c0,.07,0,.14,0,.21s0,.11,0,.17v.14q0,.37.09.74l0,.14.05.27v0l0,.14.07.29,0,.14,0,.15.09.29c.06.19.13.38.21.57h0a12.24,12.24,0,0,1,2.41-3.71,17,17,0,0,1,1.9-1.75c.39-.31.79-.61,1.22-.9s.94-.61,1.44-.91c6.65-3.86,16-5.23,24.55-4.09Z"/><path class="cls-25" d="M874.53,663.48l-1.75,0c-8.6-.25-16.7-2.33-22.82-5.86a23.79,23.79,0,0,1-7.71-6.71,13.27,13.27,0,0,1-2.6-7.69c0-5.41,3.6-10.49,10.15-14.3S865,623,874.31,623s18,2.09,24.56,5.89c6.43,3.71,10.08,8.65,10.3,13.92.2,4.94-2.67,9.72-8.09,13.47l-.27-.4c5.28-3.65,8.08-8.29,7.88-13.05-.21-5.1-3.78-9.9-10.06-13.53-13.44-7.76-35.23-7.76-48.58,0-6.4,3.72-9.92,8.65-9.91,13.88s3.58,10.23,10.07,14c12.49,7.21,32.2,7.82,45.84,1.42l.2.44A52.07,52.07,0,0,1,874.53,663.48Z"/></g><path class="cls-26" d="M842.64,671v36a24.91,24.91,0,0,0,2.65,2.31V671Z"/><path class="cls-11" d="M903.52,664.22v1.63L899,668.44v-1.63Zm-4.48,2v-1.63l4.48-2.59v1.63Zm4.48.26v1.63L899,670.67V669Zm0,2.24v1.63L899,672.91v-1.63Zm0,2.24v1.63L899,675.15v-1.63Zm0,2.24v1.63L899,677.39v-1.63Zm0,2.24V677L899,679.63V678Zm0,2.24v1.63L899,681.86v-1.63Zm0,2.24v1.63L899,684.1v-1.63Zm0,2.24v1.63L899,686.34v-1.63Zm0,2.24V686L899,688.58v-1.63Zm0,2.24v1.63L899,690.81v-1.63Zm0,2.24v1.63L899,693.05v-1.63Zm0,2.24v1.63L899,695.29v-1.63Zm0,2.24v1.63L899,697.53V695.9Zm0,2.24v1.63L899,699.77v-1.63Zm0,2.24v1.63L899,702v-1.63Zm0,2.24v1.63L899,704.24v-1.63Zm0,2.24v1.63L899,706.48v-1.63Zm0-42.52v1.63L899,664v-1.63Zm-4.48,49v-1.63l4.48-2.59v1.63Zm5-52.57-.53.49v2.49L899,661.72v-1.83l-.13.08-.4.23v51.69l.53-.31v-2.26l4.48-2.59V709l.53-.31V656.15Z"/><path class="cls-25" d="M891.62,663.13a.24.24,0,0,1-.24-.24v-2.27a.24.24,0,0,1,.48,0v2.27A.24.24,0,0,1,891.62,663.13Z"/><path class="cls-25" d="M886.7,664.49a.24.24,0,0,1-.24-.24V662a.24.24,0,1,1,.48,0v2.27A.24.24,0,0,1,886.7,664.49Z"/><path class="cls-25" d="M842.47,653.07a.24.24,0,0,1-.24-.24v-1.95a.24.24,0,1,1,.48,0v1.95A.24.24,0,0,1,842.47,653.07Z"/><path class="cls-25" d="M881.79,665.34a.24.24,0,0,1-.24-.24V663a.24.24,0,1,1,.48,0v2.11A.24.24,0,0,1,881.79,665.34Z"/><path class="cls-25" d="M908.27,649.19a.24.24,0,0,1-.24-.24v-1.63a.24.24,0,1,1,.48,0v1.63A.24.24,0,0,1,908.27,649.19Z"/><path class="cls-25" d="M905.59,654.29a.24.24,0,0,1-.24-.24v-2.11a.24.24,0,0,1,.48,0V654A.24.24,0,0,1,905.59,654.29Z"/><path class="cls-25" d="M876.87,665.73a.24.24,0,0,1-.24-.24v-2.11a.24.24,0,0,1,.48,0v2.11A.24.24,0,0,1,876.87,665.73Z"/><path class="cls-25" d="M872,665.72a.24.24,0,0,1-.24-.24v-2.11a.24.24,0,1,1,.48,0v2.11A.24.24,0,0,1,872,665.72Z"/><path class="cls-25" d="M867.05,665.34a.24.24,0,0,1-.24-.24V663a.24.24,0,1,1,.48,0v2.11A.24.24,0,0,1,867.05,665.34Z"/><path class="cls-25" d="M862.13,664.44a.24.24,0,0,1-.24-.24v-2.11a.24.24,0,0,1,.48,0v2.11A.24.24,0,0,1,862.13,664.44Z"/><path class="cls-25" d="M857.22,663a.24.24,0,0,1-.24-.24v-2.11a.24.24,0,1,1,.48,0v2.11A.24.24,0,0,1,857.22,663Z"/><path class="cls-25" d="M852.3,660.91a.24.24,0,0,1-.24-.24v-2.11a.24.24,0,0,1,.48,0v2.11A.24.24,0,0,1,852.3,660.91Z"/><path class="cls-25" d="M847.39,658a.24.24,0,0,1-.24-.24V655.7a.24.24,0,0,1,.48,0v2.11A.24.24,0,0,1,847.39,658Z"/><path class="cls-25" d="M840.19,647.05a.24.24,0,0,1-.24-.24v-1a.24.24,0,0,1,.48,0v1A.24.24,0,0,1,840.19,647.05Z"/><path class="cls-25" d="M841,641.71a.24.24,0,0,1-.24-.24V638a.24.24,0,0,1,.48,0v3.42A.24.24,0,0,1,841,641.71Z"/><path class="cls-25" d="M846,634.51a.24.24,0,0,1-.24-.24V632a.24.24,0,1,1,.48,0v2.27A.24.24,0,0,1,846,634.51Z"/><path class="cls-25" d="M890.19,628.51a.24.24,0,0,1-.24-.24v-2.64a.24.24,0,0,1,.48,0v2.64A.24.24,0,0,1,890.19,628.51Z"/><path class="cls-25" d="M850.87,631.6a.24.24,0,0,1-.24-.24V628.9a.24.24,0,1,1,.48,0v2.46A.24.24,0,0,1,850.87,631.6Z"/><path class="cls-25" d="M855.79,629.42a.24.24,0,0,1-.24-.24v-2.71a.24.24,0,1,1,.48,0v2.71A.24.24,0,0,1,855.79,629.42Z"/><path class="cls-25" d="M860.69,627.85a.24.24,0,0,1-.24-.24V624.9a.24.24,0,1,1,.48,0v2.71A.24.24,0,0,1,860.69,627.85Z"/><path class="cls-25" d="M865.61,627a.24.24,0,0,1-.24-.24V624a.24.24,0,0,1,.48,0v2.71A.24.24,0,0,1,865.61,627Z"/><path class="cls-25" d="M870.52,626.43a.24.24,0,0,1-.24-.24v-2.71a.24.24,0,0,1,.48,0v2.71A.24.24,0,0,1,870.52,626.43Z"/><path class="cls-25" d="M875.44,626.29a.24.24,0,0,1-.24-.24v-2.71a.24.24,0,1,1,.48,0V626A.24.24,0,0,1,875.44,626.29Z"/><path class="cls-25" d="M880.35,626.77a.24.24,0,0,1-.24-.24v-2.8a.24.24,0,0,1,.48,0v2.8A.24.24,0,0,1,880.35,626.77Z"/><path class="cls-25" d="M885.27,627.43a.24.24,0,0,1-.24-.24v-2.8a.24.24,0,0,1,.48,0v2.8A.24.24,0,0,1,885.27,627.43Z"/><path class="cls-25" d="M908.43,643a.24.24,0,0,1-.24-.24v-2.94a.24.24,0,0,1,.48,0v2.94A.24.24,0,0,1,908.43,643Z"/><path class="cls-25" d="M895.1,630.46a.24.24,0,0,1-.24-.24V627.5a.24.24,0,0,1,.48,0v2.71A.24.24,0,0,1,895.1,630.46Z"/><path class="cls-25" d="M900,633.08a.24.24,0,0,1-.24-.24V630a.24.24,0,1,1,.48,0v2.8A.24.24,0,0,1,900,633.08Z"/><path class="cls-25" d="M904.94,637.07a.24.24,0,0,1-.24-.24V634a.24.24,0,0,1,.48,0v2.8A.24.24,0,0,1,904.94,637.07Z"/><g class="cls-3"><path class="cls-1" d="M850.88,663.22l.64-.37a1.32,1.32,0,0,1,1.33.13l-.64.37A1.32,1.32,0,0,0,850.88,663.22Z"/><g class="cls-27"><path class="cls-21" d="M850.88,663.22l.64-.37a1,1,0,0,1,.47-.13l-.64.37a1,1,0,0,0-.47.13Z"/><path class="cls-21" d="M851.35,663.1l.64-.37a1.69,1.69,0,0,1,.86.26l-.64.37a1.69,1.69,0,0,0-.86-.26Z"/></g><g class="cls-3"><g class="cls-28"><path class="cls-21" d="M852.21,663.35l.64-.37a3.33,3.33,0,0,1,.83.7l-.64.37a3.33,3.33,0,0,0-.83-.7Z"/><path class="cls-1" d="M853,664.05l.64-.37a4.49,4.49,0,0,1,.61.91l-.64.37a4.49,4.49,0,0,0-.61-.91Z"/><path class="cls-1" d="M853.65,665l.64-.37a3.67,3.67,0,0,1,.43,1.62,1.31,1.31,0,0,1-.55,1.2l-.64.37a1.31,1.31,0,0,0,.55-1.2,3.67,3.67,0,0,0-.43-1.62Z"/></g></g><path class="cls-29" d="M852.21,663.35a4.12,4.12,0,0,1,1.87,3.24c0,1.19-.85,1.67-1.88,1.07a4.12,4.12,0,0,1-1.87-3.24C850.33,663.24,851.18,662.76,852.21,663.35Z"/><path class="cls-30" d="M852.21,663.87a3.13,3.13,0,0,1,1.42,2.46c0,.91-.64,1.27-1.43.82a3.14,3.14,0,0,1-1.42-2.46C850.78,663.78,851.42,663.41,852.21,663.87Z"/></g><path class="cls-14" d="M836.62,708.64V678.26a3.66,3.66,0,0,1,1.65-2.86l14.69-9-1.24-2.18L838.28,672c-2.29,1.32-4.16,2.37-4.16,7.2v29.45Z"/><path class="cls-15" d="M853.22,665.84a.84.84,0,0,1-.07.35.49.49,0,0,1-.19.22h0l-14.68,9a3.66,3.66,0,0,0-1.65,2.86v30.38a.62.62,0,0,1-.37.51,1.73,1.73,0,0,1-.73.2V678.46a3.38,3.38,0,0,1,1.65-3.39l16-9.68A1.52,1.52,0,0,1,853.22,665.84Z"/><path class="cls-14" d="M836.62,708.6v0a.62.62,0,0,1-.37.51,1.73,1.73,0,0,1-.73.2,2.08,2.08,0,0,1-.74-.08,1.47,1.47,0,0,1-.31-.13.67.67,0,0,1-.36-.44.42.42,0,0,1,0-.14.67.67,0,0,1,.36-.44,1.48,1.48,0,0,1,.31-.13,2.08,2.08,0,0,1,.74-.08,1.73,1.73,0,0,1,.73.21A.64.64,0,0,1,836.62,708.6Z"/><g class="cls-31"><path class="cls-32" d="M852.15,665l-.61.34-12.59,7.1c-2.29,1.32-4.16,2.37-4.16,7.2v29.66a1.47,1.47,0,0,1-.31-.13.67.67,0,0,1-.36-.44V679.18c0-4.83,1.86-5.88,4.16-7.2l13.4-7.73,0,0Z"/></g><path class="cls-14" d="M851.45,664.81a2,2,0,0,0,.89,1.53c.49.28.89.05.89-.51a2,2,0,0,0-.89-1.53C851.84,664,851.45,664.25,851.45,664.81Z"/><polygon class="cls-25" points="900.75 709.75 901.28 709.44 901.28 655.62 900.75 655.93 900.75 709.75"/><polygon class="cls-25" points="895.74 712.64 896.26 712.34 896.26 658.48 895.74 658.78 895.74 712.64"/><polygon class="cls-25" points="901.01 660.35 901.01 659.74 896 662.63 896 663.24 901.01 660.35"/><polygon class="cls-25" points="901.01 662.58 901.01 661.97 896 664.87 896 665.48 901.01 662.58"/><polygon class="cls-25" points="901.01 664.82 901.01 664.21 896 667.1 896 667.71 901.01 664.82"/><polygon class="cls-25" points="901.01 667.06 901.01 666.45 896 669.34 896 669.95 901.01 667.06"/><polygon class="cls-25" points="901.01 669.3 901.01 668.69 896 671.58 896 672.19 901.01 669.3"/><polygon class="cls-25" points="901.01 671.53 901.01 670.92 896 673.82 896 674.43 901.01 671.53"/><polygon class="cls-25" points="901.01 676.01 901.01 675.4 896 678.29 896 678.9 901.01 676.01"/><polygon class="cls-25" points="901.01 680.49 901.01 679.88 896 682.77 896 683.38 901.01 680.49"/><polygon class="cls-25" points="901.01 673.77 901.01 673.16 896 676.05 896 676.67 901.01 673.77"/><polygon class="cls-25" points="901.01 678.25 901.01 677.64 896 680.53 896 681.14 901.01 678.25"/><polygon class="cls-25" points="901.01 682.72 901.01 682.11 896 685.01 896 685.62 901.01 682.72"/><polygon class="cls-25" points="901.01 687.2 901.01 686.59 896 689.48 896 690.09 901.01 687.2"/><polygon class="cls-25" points="901.01 691.67 901.01 691.07 896 693.96 896 694.57 901.01 691.67"/><polygon class="cls-25" points="901.01 696.15 901.01 695.54 896 698.43 896 699.04 901.01 696.15"/><polygon class="cls-25" points="901.01 700.63 901.01 700.02 896 702.91 896 703.52 901.01 700.63"/><polygon class="cls-25" points="901.01 684.96 901.01 684.35 896 687.25 896 687.86 901.01 684.96"/><polygon class="cls-25" points="901.01 689.44 901.01 688.83 896 691.72 896 692.33 901.01 689.44"/><polygon class="cls-25" points="901.01 693.91 901.01 693.3 896 696.2 896 696.81 901.01 693.91"/><polygon class="cls-25" points="901.01 698.39 901.01 697.78 896 700.67 896 701.28 901.01 698.39"/><polygon class="cls-25" points="901.01 702.87 901.01 702.25 896 705.15 896 705.76 901.01 702.87"/><polygon class="cls-25" points="901.01 705.1 901.01 704.49 896 707.39 896 708 901.01 705.1"/><polygon class="cls-25" points="901.01 707.34 901.01 706.73 896 709.62 896 710.23 901.01 707.34"/></g></g></svg>