<?xml version="1.0" encoding="utf-8"?>
<!-- Generator: Adobe Illustrator 22.1.0, SVG Export Plug-In . SVG Version: 6.00 Build 0)  -->
<svg version="1.1" id="Layer_1" xmlns="http://www.w3.org/2000/svg" xmlns:xlink="http://www.w3.org/1999/xlink" x="0px" y="0px"
	 viewBox="0 0 128 23.4" enable-background="new 0 0 128 23.4" xml:space="preserve">
<path fill="#FFE500" d="M17.3,23.3l4.9-14.6v14.6h7.3V0.1h-9.8l-4.7,11.6L10.2,0.1H0.4v23.2h7.3V8.8l4.9,14.6H17.3z M95.6,14.3
	c2.3-0.2,4.5-1.7,4.5-4.3V4.3c-0.3-2.6-2.2-4-4.6-4.2H76.8l0,23.2h7.3v-9H87l4.7,9h8.4l-5.6-9H95.6z M93.6,8.3c0,0.5-0.1,0.9-1,0.9
	h-8.4V4.7h8.4c1,0,1,0.7,1,1.1V8.3z M51.3,4.7V0.1H32.4v23.2l19.2,0l0-4.6H39.7l0-5h11.6V9.2H39.7V4.7H51.3z M60.4,4.7h-6.9V0.1
	h21.1v4.6h-6.9v18.6h-7.3V4.7z M123.1,0.1h-15.5c-2.3,0.2-4.3,1.4-4.6,4v15c0.3,2.6,2.2,4,4.6,4.2h15.5c2.3-0.2,4.3-1.6,4.6-4.2v-15
	C127.4,1.5,125.4,0.3,123.1,0.1 M120.4,17.7c0,0.3-0.1,0.9-1,1h-7.9c-0.9-0.1-1.1-0.8-1.1-1V5.6c0-0.3,0.2-0.8,1.1-0.9h7.9
	c0.9,0.1,1,0.6,1,0.9V17.7z"/>
</svg>
