<svg version="1.2" xmlns="http://www.w3.org/2000/svg" viewBox="0 0 1653 981" width="1653" height="981">
	<title>page3banner-svg</title>
	<style>
		.s0 { fill: #2c3a64 } 
		.s1 { fill: #ffb27d } 
		.s2 { fill: #a8d29f } 
		.s3 { fill: #f7b284 } 
		.s4 { fill: #e8a070 } 
		.s5 { fill: #efa97a } 
		.s6 { fill: #82b378 } 
		.s7 { fill: #ed7d2b } 
		.s8 { fill: #ffb93e } 
		.s9 { fill: #ffa412 } 
		.s10 { fill: #d1f2c9 } 
		.s11 { fill: #95c38b } 
		.s12 { fill: #db6f26 } 
		.s13 { fill: #fcecdb } 
		.s14 { fill: #f9ddbf } 
		.s15 { fill: #2b478b } 
		.s16 { fill: #233862 } 
		.s17 { fill: #ed985f } 
		.s18 { fill: #ff9843 } 
		.s19 { fill: #ffffff } 
		.s20 { fill: #f99746 } 
		.s21 { fill: #efcbab } 
		.s22 { fill: #cca07f } 
		.s23 { fill: #1e3d70 } 
		.s24 { fill: #86d1cd } 
		.s25 { fill: #76c0bf } 
		.s26 { opacity: .4;fill: #86d1cd } 
		.s27 { fill: #67b7b1 } 
		.s28 { fill: #60aaaf } 
		.s29 { fill: #599dad } 
		.s30 { fill: #ed975d } 
		.s31 { fill: #a9453d } 
		.s32 { fill: #2a4e96 } 
		.s33 { opacity: .7;fill: #b1caef } 
		.s34 { opacity: .7;fill: #c8ddfd } 
		.s35 { fill: #699ff0 } 
		.s36 { fill: #578ddd } 
	</style>
	<path id="Layer" class="s0" d="m332.6 106.1l-43.7 47.3c0 0-2.7-8.5-7.6-6.4-7.6 3.2-20-14.2-13.5-34.9q0.3-0.7 0.6-1.5 0.2-0.8 0.5-1.5 0.3-0.8 0.6-1.6 0.3-0.7 0.7-1.5-0.6 0.3-1.2 0.4-0.6 0.2-1.2 0.2-0.7 0.1-1.3 0.2-0.6 0-1.2 0c-4.3-0.5-9.5-11.9-10-15.6-0.5-3.7 1.6-15.4 7.7-18.4 6.1-2.9 14.9 2.2 14.9 2.2-2.7-4.8-14.5-4.5-14.5-4.5 23.6-2.6 27 12.7 27.3 14.1 18.3-13.5 41.9 21.5 41.9 21.5z"/>
	<path id="Layer" class="s1" d="m464.8 313.2c-4.3 2.1-10.1 8.9-20.1 5.5q-2.3-0.7-4.6-1.3-2.3-0.6-4.6-1.2-2.3-0.6-4.6-1-2.4-0.5-4.7-0.9l-1.2-0.2c-4.2-0.3-10-0.8-16.1-1.4-14.7-1.5-32-4.1-38.9-8.4-10.6-6.5-27.8-26.2-39-45.9q-0.2-0.2-0.3-0.4-0.1-0.2-0.2-0.4-0.1-0.1-0.2-0.3-0.1-0.2-0.1-0.4c-5.9-10.4-10-20.8-10.3-29.1q-0.1-1.7 0-3.3 0-1.7 0.2-3.4 0.2-1.6 0.5-3.3 0.3-1.6 0.7-3.2 0.5-1.6 1.1-3.2 0.6-1.5 1.3-3 0.8-1.5 1.7-3 0.9-1.4 1.9-2.7 0.1-0.2 0.3-0.4 0.1-0.1 0.2-0.3 0.2-0.2 0.3-0.3 0.2-0.2 0.3-0.3 1.1-1.2 2-2.2 0.7-0.6 1.3-1.2 0.7-0.6 1.4-1.2 0.7-0.5 1.5-1 0.7-0.5 1.5-0.9c1.9-0.8 4 0.1 6.2 2.5q0.8 0.9 1.5 2 0.7 1 1.4 2 0.7 1 1.3 2.1 0.7 1.1 1.3 2.2c0.1 0 0.2 0.1 0.2 0.2 0.4 0.7 0.8 1.5 1.3 2.4q0 0.1 0.1 0.1 0 0.1 0 0.2 0.1 0 0.1 0.1 0.1 0.1 0.1 0.2 0.5 1.2 1.1 2.4 0.8 1.6 1.5 3.4c9.8 21.6 20.3 54.2 29 64 3.8 4.2 21.1 12.4 34.8 18.6 4.8 2.1 9.1 3.9 12.3 5.3 1.1 0.1 2.7 0.3 4.6 0.6 0 0 3.4-0.7 4.3-2.1 0.9-1.4 1.9-2.2 5.7-2.9 3.8-0.7 6.4-2.8 6.7-2 0.3 0.8-2.3 3.4-3.3 4.3-0.8 0.7 2.2 1.9 3.6 2.4 6.8-1.2 17.7 5.7 17.7 5.7 0 0 1.5 2.5-2.8 4.6z"/>
	<path id="Layer" class="s2" d="m527.8 978.2l-301.2-1.4c0 0 7.6-37.2 52.2-60.3-12.9-9.7-34.3-27.4-23.6-30.8 10.6-3.3 22.4 16.4 28.4 28.4q2.2-1 4.6-2c-3-11.7-7.3-31.8-1-30.3 5.9 1.4 5.3 18 4.3 28.9q3.1-1.2 6.4-2.3c61.6-21.1 35.3-67 122.4-77.2 87.1-10.1 107.5 147 107.5 147z"/>
	<path id="Layer" class="s2" d="m1221.6 980.7h-369l43-298c0 0 34-2.8 68.8 2.2-8.1-26.2-19.6-69.5-6.1-68.1 13.6 1.3 14.3 44 13.5 69.3 3.8 0.7 7.7 1.5 11.5 2.4 12.6-41.8 38.8-120 54.7-109.3 15.9 10.8-24.3 75.8-47.2 111.3q3.3 1 6.6 2.1 3.3 1.2 6.6 2.6 3.2 1.3 6.3 2.9 3.1 1.6 6.1 3.4c40.3 25.5 113.8-19.1 150.5-9.2 36.7 9.8 54.7 288.4 54.7 288.4z"/>
	<path id="Layer" class="s2" d="m40.2 973.2c-14.1-16-56.3-66-33.5-64.8 22.6 1.3 33.7 48.3 36.9 64.3q2.4-0.3 4.9-0.7c-0.8-5.1-0.8-13.8 6.8-16.4 10.5-3.7 7.9 10.5 4.1 14.9 2.7-0.2 4.8-0.1 5.8 0.5q0.9 0.5 1.6 1.1 0.7 0.6 1.3 1.4 0.5 0.7 1 1.5 0.4 0.9 0.7 1.8h-63.2c3.6-1.6 15-6.1 21.6-3.8q0.7 0.2 1.4 0.4 0.6 0.1 1.3 0.2 0.7 0.1 1.4 0.1 0.7 0 1.4 0c-10-5.9-42.4-16-27-18.1 14.1-1.9 24.8 12.5 28.3 18 1.6-0.1 3.4-0.3 5.2-0.4z"/>
	<path id="Layer" class="s3" d="m693.5 150.2l-19.2 204.1-22.1 235.4c-4.6 48.9-48.4 85.1-97.2 80.5-48.9-4.6-85.1-48.4-80.6-97.2l12.8-135.7 28.6-303.8c4.6-48.9 50.5-107.5 99.3-102.9 0 0 80.9 17 78.4 119.6z"/>
	<path id="Layer" class="s4" d="m536.1 196c0 0 31-43.1 132-53.4 0 0-38.9 59-132 53.4z"/>
	<path id="Layer" class="s4" d="m517.3 276.2c0 0 36.6-50.7 155.3-62.8 0 0-45.7 69.4-155.3 62.8z"/>
	<path id="Layer" class="s4" d="m510.1 353c0 0 36.5-50.7 155.3-62.9 0 0.1-45.8 69.5-155.3 62.9z"/>
	<path id="Layer" class="s4" d="m557.3 121.8c0 0 21.7-30.2 92.5-37.5 0 0-27.2 41.4-92.5 37.5z"/>
	<path id="Layer" class="s5" d="m674.3 354.3l-22.1 235.4c-4.6 48.9-48.4 85.1-97.2 80.5-48.9-4.6-85.1-48.4-80.6-97.2l12.8-135.7c12.8-11.4 27.6-18.4 44.5-17.8 60.3 2.4 118.6-43.9 142.6-65.2z"/>
	<path id="Layer" class="s2" d="m750.7 302.4c0 1 0 1.4 0 1.4q0 0-0.5-1.3c-2.4-7.4-14.1-43.8-24.7-84.4-14.7-56.1-27.4-120.1-10.7-126 31.6-11.2 37.5 78.4 37.6 144.6 0 32.6-1.3 59.4-1.7 65.7z"/>
	<path id="Layer" class="s2" d="m781.7 229.6c-11.4 25.4-21.4 46.7-27.1 59.5-2.4 5.6-4.1 9.5-4.8 11.5 0.6-3.2 2-11.6 4.2-23.7 3.2-18.1 7.9-44.2 13-72.5 12.3-68.9 27.4-151 30.9-162.8 6.2-20.7 34.8-64.8 54-26.4 12.5 24.9-35.7 137.9-70.2 214.4z"/>
	<path id="Layer" class="s2" d="m784 265.8c-11.8 12.5-21.8 22.6-27.3 28.2-3 3.1-4.8 4.8-4.8 4.8 0 0 3-6.5 8.2-16.8 4.9-9.7 11.7-22.9 19.6-37.3 25.9-47.3 64.1-107.8 87.8-104.3 27 3.9-40.6 80.2-83.5 125.4z"/>
	<path id="Layer" class="s6" d="m750.7 302.4h-0.5c-2.4-7.3-14.1-43.8-24.7-84.3 5 7.4 13.9 17.4 26.9 18.5 0 32.7-1.3 59.5-1.7 65.8z"/>
	<path id="Layer" class="s6" d="m781.7 229.6c-11.4 25.4-21.4 46.7-27.1 59.5q-0.1-1.5-0.2-3-0.2-1.6-0.2-3.1-0.1-1.5-0.1-3-0.1-1.6-0.1-3.1c3.2-18.1 7.9-44.2 13-72.5 2 9.8 6.1 20.8 14.7 25.2z"/>
	<path id="Layer" class="s6" d="m784 265.8c-11.8 12.5-21.8 22.6-27.3 28.2q0.3-1.5 0.7-3 0.3-1.6 0.8-3.1 0.4-1.5 0.9-2.9 0.5-1.5 1-3c4.9-9.7 11.7-22.9 19.6-37.3 0.2 6 1 15 4.3 21.1z"/>
	<path id="Layer" class="s2" d="m749.8 300.6q-0.2 1.3-0.2 1.4c0 0 0-0.6 0.2-1.4z"/>
	<path id="Layer" class="s7" d="m765.7 391.7c-19.8 56.2-44.5 117.5-44.5 117.5l-55.8-16.7c0 0 6.5-41.6 16.1-88 11.2-54 26.5-114.4 40.5-122.6q2.3-1.4 4.7-2.4 2.4-1.1 4.9-1.9 2.5-0.8 5-1.3 2.6-0.5 5.2-0.6 1.3-0.1 2.5-0.2 1.3 0 2.5 0 1.3 0.1 2.5 0.2 1.3 0.1 2.5 0.3 1.2 0.1 2.3 0.3 0.8 0.1 1.5 0.3 0.7 0.1 1.4 0.3 0.7 0.2 1.4 0.4 0.7 0.2 1.4 0.4 1.1 0.3 2.2 0.7 0.9 0.3 1.8 0.6 0.9 0.3 1.8 0.7 0.9 0.4 1.8 0.8 0.9 0.4 1.7 0.9c9.7 4.9 17.3 12.3 20.5 20.2 3.3 8.1-8.9 47.7-23.9 90.1z"/>
	<path id="Layer" class="s8" d="m810.6 329.7q6.8-9.9 14.3-19.2 7.5-9.4 15.6-18.2 8.1-8.9 16.8-17.1 8.7-8.2 17.9-15.8c2.9-2.4 6.1-4.4 9.4-6 3.4-1.6 7-2.8 10.6-3.6 3.7-0.7 7.4-1 11.2-0.9 3.7 0.2 7.4 0.8 11 1.8 0 0 50.5 11.6 75.5-8 25.1-19.6 32.9-28.7 32.9-28.7 0 0 12.7 9.5 4.7 20.8 0 0-84.3 82-88 84.8-38.1 29.4-63.4 67.7-81.8 99.4-17.9 31-27.7 88-30.8 134.6q-0.2 2.2-0.5 4.5-0.3 2.2-0.7 4.5-0.4 2.2-1 4.4-0.6 2.1-1.3 4.3c-6.7 20.9-21.2 38.6-29.6 39.9-3-0.2-6-0.8-8.8-1.9-2.9-1.1-5.5-2.6-7.9-4.5-2.3-1.9-4.4-4.2-6-6.7-1.7-2.6-2.9-5.4-3.7-8.3-13.2-50.1-15.7-98.5-7.6-144.1 7.3-41.2 23.5-80.3 47.8-116z"/>
	<path id="Layer" class="s9" d="m829.9 553.6c3.1-46.6 12.9-103.6 30.9-134.6 18.3-31.7 43.6-70 81.7-99.4 0.7-0.6 25.8-25.3-8-39.6-33.1-14-137.8 140.4-108.1 291.3q0.7-2.2 1.3-4.3 0.6-2.2 1-4.4 0.4-2.3 0.7-4.5 0.3-2.3 0.5-4.5z"/>
	<path id="Layer" class="s2" d="m534 408.9q-1.5 2.4-3.2 4.8-1.7 2.3-3.5 4.5-1.8 2.2-3.8 4.4-1.9 2.1-3.9 4.1c-21.6 21.2-55.4 37-98.9 36.5 0 0-18.3-17.4-27.2-39.6-6.1-15.3-10.6-38 0-54.8q2.1-3.4 4.7-6.3 2.7-3 5.8-5.4 3.2-2.3 6.7-4.1 3.6-1.8 7.4-2.9c15.2-4.6 30.7-2.2 37.4-9q2.9-2.7 6-5 3.1-2.4 6.4-4.4 3.4-2 7-3.5 3.6-1.6 7.3-2.8c1.7-0.5 3.4-1 5.2-1.4q1.1-0.3 2.2-0.5c16.1-3.1 33.3 0 45.3 14.3q1.1 1.4 2.1 2.9 1.1 1.4 2 2.9 0.9 1.6 1.7 3.2 0.9 1.6 1.6 3.2c7.6 17.2 4.3 39.1-8.3 58.9z"/>
	<path id="Layer" class="s10" d="m416.6 388.1c-3.5 8.7-14.9 14.4-19.3 2-4.3-12.5 10-23.8 10-23.8 9.5-4.2 12.9 13.2 9.3 21.8z"/>
	<path id="Layer" class="s11" d="m534.8 337.8q1.2 1.4 2.2 2.8 1 1.5 2 3 0.9 1.6 1.7 3.2 0.9 1.6 1.6 3.2c7.6 17.2 18.1 62.9 5.5 82.8l-17 15.5c-21.6 21.3-66.7 15.4-110.2 14.9 0 0-18.3-17.4-27.1-39.6 0 0 53.8 21.3 104.6-23.1 23-20.3 32.9-43.4 36.7-62.7z"/>
	<path id="Layer" class="s2" d="m452.7 315.1c-8.9-5.3-17.9 2.1-28.4 6.2-10.4 4.1-30.5 4-30.5 4q2.4-3.2 5-6.4 2.5-3.1 5.3-6.1 2.7-2.9 5.6-5.7 2.9-2.9 5.9-5.5c13.6-11.8 37.1 13.5 37.1 13.5z"/>
	<path id="Layer" class="s6" d="m452.7 315.1c-8.4-6.9-23.8-10.8-31.4-7.7-7.5 3.1-27.5 17.9-27.5 17.9q2.4-3.2 5-6.4 2.5-3.1 5.3-6 2.7-3 5.6-5.8 2.9-2.8 5.9-5.5c13.6-11.8 37.1 13.5 37.1 13.5z"/>
	<path id="Layer" class="s11" d="m455.5 341.1q2.8-2.7 5.9-5 3.2-2.4 6.5-4.4 3.4-2 6.9-3.5 3.6-1.6 7.3-2.8c-17.7 6.7-27.5 29.2-34.2 26.6-7.3-2.8-29-1.9-29.8-1.9 15.1-4.6 30.6-2.2 37.4-9z"/>
	<path id="Layer" class="s11" d="m489.5 323.5q-0.8 0.3-2.1 0.5 1-0.3 2.1-0.5z"/>
	<path id="Layer" class="s6" d="m449.1 351.5c-5.7-12.6-2.6-28.2 1-39.1 2.9-8.6 8.3-20.3 11-25.8q0.2-0.4 0.6-0.7 0.4-0.2 0.8-0.2 0.5 0.1 0.8 0.3 0.4 0.3 0.5 0.7l1.1 3.3q0.4 1.2 0.5 2.5 0.1 1.3 0 2.6-0.1 1.2-0.6 2.4-0.4 1.3-1 2.4c-5.5 9.1-16.6 30.3-11.6 47.8 0.5 2-2.1 6.1-3.1 3.8z"/>
	<path id="Layer" class="s12" d="m765.7 391.7c-19.8 56.2-44.5 117.5-44.5 117.5l-55.8-16.7c0 0 6.5-41.6 16.1-88 0 0 11.3 25.5 38.2 25 15.3-0.4 33.3-20.5 46-37.8z"/>
	<path id="Layer" class="s13" d="m881.1 426.3l62.5 445.8c1.9 13 0.9 26.3-2.9 38.9-3.7 12.6-10.1 24.2-18.7 34.2-8.7 9.9-19.3 17.8-31.3 23.3-11.9 5.4-24.9 8.3-38.1 8.3h-94.2c-11.3 0-22.4-2.4-32.6-7-10.3-4.6-19.5-11.3-27-19.6-7.5-8.4-13.1-18.3-16.6-28.9-3.4-10.7-4.5-22-3.3-33.2l53-414.7z"/>
	<path id="Layer" class="s13" d="m552.4 426.3c0 0 151.7 51.8 328.7 0l-52.2 551.9h-330.2z"/>
	<path id="Layer" class="s14" d="m552.4 426.3l62.6 445.8c1.8 13 0.8 26.3-2.9 38.9-3.7 12.6-10.1 24.2-18.8 34.2-8.6 9.9-19.2 17.8-31.2 23.3-12 5.4-25 8.3-38.1 8.3h-94.3c-11.2 0-22.3-2.4-32.6-7-10.2-4.6-19.4-11.3-26.9-19.6-7.5-8.4-13.2-18.3-16.6-28.9-3.4-10.7-4.6-22-3.4-33.2l44.9-461.8c0 0 21 15.2 74.6 15.2 53.3 0 82.7-15.2 82.7-15.2z"/>
	<path id="Layer" class="s14" d="m736.3 612.4q-2.9 0-5.9-0.1-3-0.2-6-0.4-2.9-0.3-5.9-0.6-2.9-0.4-5.9-0.9c-66.7-10.8-87.3-128.5-88.1-133.5l13.2-2.2q1.5 7.6 3.3 15 1.8 7.5 4 14.9 2.1 7.4 4.7 14.6 2.5 7.3 5.5 14.4c11 26.4 30.3 58.8 59.6 63.5 33.3 5.4 60.3-1.3 78.2-19.3 21.1-21.3 28.6-57.1 21.1-100.9l13.2-2.2c8.3 48.1-0.5 88.1-24.8 112.6-16.4 16.6-39 25.1-66.2 25.1z"/>
	<path id="Layer" class="s14" d="m620.4 476c0-4.8 2.8-9 7.2-10.9 4.4-1.8 9.5-0.8 12.8 2.6 3.4 3.4 4.4 8.4 2.6 12.8-1.8 4.4-6.1 7.3-10.9 7.3-1.5-0.1-3-0.4-4.5-0.9-1.4-0.6-2.7-1.5-3.8-2.6-1.1-1.1-1.9-2.4-2.5-3.8-0.6-1.4-0.9-3-0.9-4.5z"/>
	<path id="Layer" class="s14" d="m809.6 476c0-4.8 2.8-9 7.2-10.9 4.4-1.8 9.5-0.8 12.8 2.6 3.4 3.4 4.4 8.4 2.6 12.8-1.8 4.4-6.1 7.3-10.9 7.3-1.5-0.1-3-0.4-4.5-0.9-1.4-0.6-2.7-1.5-3.8-2.6-1.1-1.1-1.9-2.4-2.5-3.8-0.6-1.4-0.9-3-0.9-4.5z"/>
	<path id="Layer" class="s14" d="m739.3 670l16.9-25.1h30.7l-24.8 37.8-22.8-12.7z"/>
	<path id="Layer" class="s14" d="m784.2 681.3c-0.6-0.4-7.8-12.2-7.8-12.2 0.2-0.4 15.5-23.2 15.5-23.2l14.3 23.6 8.4-4.5-11 22.2-29-1.2 9-5.1z"/>
	<path id="Layer" class="s14" d="m820.6 692.3l13.1 27.3-15.6 26.4-20-40.6 22.5-13.1z"/>
	<path id="Layer" class="s14" d="m800.5 721.9c0.4 0.4 14.1 27.9 14.1 27.9l-28.2 0.1 0.2 9.8-13.5-20.8 15.8-24.3-0.2 7.3z"/>
	<path id="Layer" class="s14" d="m760.8 749.9h-28.6l-13.8-28 42.1 1 0.3 27z"/>
	<path id="Layer" class="s14" d="m749.8 703.5c-0.1 0.6-5.9 14-5.9 14-0.5 0-26.4-0.4-26.4-0.4l12.3-28.6-7.6-5.8 24.8 0.6 11.2 26.8-8.5-6z"/>
	<path id="Layer" class="s15" d="m347.6 653.8l-10.7 4c0 0-46.1-64-51.8-120.3q-0.4-3.6-0.5-7.2-0.1-3.7 0.1-7.3 0.1-3.6 0.6-7.2 0.5-3.6 1.3-7.1l-1.2-7.1c-0.4-2.2-0.8-4.7-1.3-7.7-1.5-8.6-3.6-20.3-6-33.7-5.4-30.8-12.4-70.2-17.9-99.2l2.9-0.9 31-10 6.4-20.3 23-6.1c0 0 5.2 10.1 9.8 57.7 0.8 6.2 1.6 13.1 2.2 20.6q0.8 10.4 1.1 20.8 0.2 10.5-0.1 20.9-0.2 10.5-1 20.9-0.9 10.4-2.2 20.8c-1 8.3-2.4 16.8-4 25.6-1.2 6.4-1.4 15.2-0.9 25.3 2.3 46 19.2 117.5 19.2 117.5z"/>
	<path id="Layer" class="s16" d="m335.5 401.9l-50.1 99.6c-0.4-2.1-0.8-4.7-1.3-7.6-1.5-8.6-3.6-20.4-6-33.7-5.4-30.9-12.4-70.3-17.9-99.2l2.9-1 31-10 6.4-20.3 23-6.1c0 0 5.2 10.1 9.8 57.7 0.8 6.3 1.6 13.2 2.2 20.6z"/>
	<path id="Layer" class="s15" d="m300.1 389.2c-4.5 31.2-11.2 71.6-19.5 102.6-4.4 16.5-9.3 30.3-14.6 38.8-1.8 2.9-3.8 7.7-5.8 13.9-12 36.4-26.8 118.9-26.8 118.9l-6.8 2.7c0 0-26.1-74.1-3.4-134.3q0.8-2.3 1.8-4.6 1-2.3 2-4.5 1.1-2.2 2.2-4.4 1.2-2.2 2.5-4.4 0.1-0.2 0.2-0.5 0.1-0.2 0.2-0.5 0.1-0.3 0.1-0.5 0-0.3 0-0.6c-0.3-2.5-1-8.8-1.8-17.6-2.3-24.3-4.5-106.6-5.8-125.9-2.4-39.7 16.4-56.2 16.4-56.2 0 0 51.9 19.5 71.3 14.4l1.1 9.9c0 0-12.7 52.8-13.3 52.8z"/>
	<path id="Layer" class="s1" d="m330.3 215.8q-2.4 1.5-5 2.8-2.6 1.3-5.3 2.4-2.7 1-5.5 1.8-2.7 0.8-5.6 1.3c-32.8 6.6-44.5-21.2-48.6-40.3q1.3-0.6 2.6-1.2 1.4-0.5 2.8-0.9 1.4-0.4 2.8-0.6 1.4-0.3 2.9-0.3c2.4-0.3 4.9-0.4 6.9-0.4 3.7-2.7 9.5-14 11.2-31.8l1.5 0.5 25.5 7.7c0 0-1.4 8.1-2.2 15.8-0.6 6-0.8 11.8 0.3 13.3 2 0.5 3.1 0.8 3.1 0.8q2 3.5 3.7 7 1.8 3.6 3.3 7.2 1.6 3.7 3 7.4 1.4 3.7 2.6 7.4z"/>
	<path id="Layer" class="s17" d="m316.5 156.8c0 0-1.4 8.1-2.2 15.8-14.5-1.8-20.9-15.9-23.3-23.5z"/>
	<path id="Layer" class="s1" d="m320.6 164.6c0 0-34.4-2.9-32.3-24.3 2.1-21.5-0.9-36.3 21.2-35.3 22.1 1 25.5 9.5 26.6 16.9 1 7.3-6.4 42.9-15.5 42.7z"/>
	<path id="Layer" class="s0" d="m334.5 136.7c-3.4 0.1-3-11.3-4.2-16.9-0.8-4.1-4.6-8.6-6.5-10.7-0.9 2.4-10.3 25.7-28.3 32q2.2-1.7 4.2-3.5 2.1-1.8 4-3.7 2-2 3.8-4.1 1.8-2 3.5-4.2c-3.8 3.4-8 6.2-12.5 6.9-14.9 2.3-22.7-0.9-20.8-2.2q2.9-2.1 5.4-4.6 2.5-2.6 4.5-5.5 2-2.9 3.5-6.1 1.5-3.3 2.5-6.7c0 0 13.6-14.1 31.4-1.8 2.4-1.8 6.6-2.8 11.3 4.2 7 10.5-1.9 26.9-1.8 26.9z"/>
	<path id="Layer" class="s18" d="m340.5 216.8c1.6 5.9 2.7 12.5 1.2 19.3-0.1 0.7-0.3 1.4-0.5 2.1-5.8 19.2-10.4 96.2-10.4 96.2 3.1 9.8-55.4 11.7-85.7 6.8-10.1-1.6-17.2-4-17.7-7-5.4-12.4 8-35.7 15.8-47.5q0.4-0.5 0.7-1.1 0.4-0.6 0.7-1.1 0.3-0.6 0.6-1.2 0.3-0.6 0.5-1.2 0.7-1.5 1.2-3.1 0.4-1.6 0.8-3.2 0.3-1.7 0.4-3.3 0.1-1.7 0.1-3.4-0.2-3.8-0.5-7.7-0.3-3.9-0.7-7.8-0.4-3.9-0.9-7.7-0.5-3.9-1.1-7.7c-0.7-4.9-1.4-9.1-1.8-12.6 1.6-1.6 3.2-3.1 4.6-4.6q0.8-0.7 1.5-1.4 0.8-0.8 1.5-1.6 0.7-0.7 1.3-1.5 0.7-0.8 1.3-1.7 0.6-0.7 1-1.4 0.4-0.8 0.7-1.6 0.3-0.8 0.4-1.7 0.1-0.9 0.1-1.7c-0.1-1.7-0.5-3.4-0.8-5-0.3-0.8-0.4-1.5-0.7-2.4q-0.6-2-1.4-4-0.8-1.9-1.7-3.8-0.9-2-1.9-3.8-1-1.9-2.1-3.7c8.4-4.8 24.4-5 24.4-5 0 0 0.1 1 0.3 2.4 0.8 5.7 3 20.5 5.2 23.1 2.9 3.1 47.4 12.1 48.9 7.2 1.5-5-7.7-25.9-8-26.7 14.9 3.4 20.6 7.4 20.6 7.4q0.6 0.3 1.1 0.7 0.5 0.3 1 0.7 0.5 0.5 0.9 0.9 0.4 0.4 0.9 0.9 0.7 1 1.4 2 0.8 1 1.5 2.1 0.7 1 1.3 2.1 0.7 1 1.3 2.1c0.1 0.1 0.1 0.2 0.1 0.3 0.4 0.7 0.8 1.5 1.3 2.4q0.1 0 0.1 0.1 0.1 0.1 0.1 0.1 0 0.1 0.1 0.2 0 0.1 0 0.1 0.6 1.2 1.1 2.4c-2.7 1-7.2 2.9-10.1 5.6z"/>
	<path id="Layer" class="s7" d="m263.7 291c-4.1 9.8-8.5 34.2-18.6 50.3-10.1-1.6-17.2-4-17.7-7-5.4-12.5 8-35.7 15.8-47.5q0.4-0.6 0.7-1.1 0.4-0.6 0.7-1.2 0.3-0.6 0.6-1.1 0.3-0.6 0.5-1.3 0.7-1.5 1.2-3.1 0.4-1.5 0.7-3.2 0.4-1.6 0.5-3.3 0.1-1.6 0-3.3-0.1-3.9-0.4-7.8-0.3-3.8-0.7-7.7-0.4-3.9-0.9-7.8-0.5-3.8-1.1-7.7c1.7-3.7 2.7-5.8 2.7-5.8 0 0 22.5 42.8 16 58.6z"/>
	<path id="Layer" class="s16" d="m265.9 671.6h-53.5c0 0-1.3-8.1 1.5-14.3 2.7-5.9 6.9-8.6 5.9-15.8 3.4 3.5 8.9 7.4 16.7 6.4 0.9 1.5 6.1 9.7 9.3 12 3.5 2.5 19 1.6 20.1 11.7z"/>
	<path id="Layer" class="s16" d="m380.8 671.6h-53.5c0 0-2-8.5 1.5-14.3 3.1-5.1 1.9-8.1-0.4-12.3q1.1 0.4 2.2 0.8 1.1 0.3 2.2 0.5 1.2 0.2 2.3 0.3 1.2 0.1 2.3 0.1 1.1-0.1 2.1-0.4 1.1-0.2 2.1-0.6 1-0.3 2-0.8 0.9-0.5 1.8-1c2.3 2.6 12.2 13.8 15.3 16 3.4 2.5 19 1.6 20.1 11.7z"/>
	<path id="Layer" class="s19" d="m325.8 152c0 3-5.9 3-5.9 3-7 0-7.5-2.8-7.5-2.8 7.8-2.8 13.4-0.2 13.4-0.2z"/>
	<path id="Layer" class="s1" d="m237.1 353.8c-6.2-8.3-34.4-46.5-36.1-56.2-2.9-11.2-0.2-23.4 6.7-45.6 0.9-3.1 2-6.1 2.9-9q1.3-3.8 2.7-7.5 1.4-3.8 2.9-7.4 1.5-3.7 3.2-7.4 1.7-3.6 3.5-7.2 0.8-1.6 1.7-3.2 0.8-1.6 1.8-3.2 0.9-1.6 1.9-3.2 1-1.5 2.1-3 0.3-0.4 0.6-0.8 0.3-0.4 0.6-0.8 0.4-0.4 0.7-0.8 0.3-0.4 0.7-0.8 0.7-0.9 1.4-1.7c5.3 0.3 16.6 2.1 25.2 11.4-0.2 0.5-0.3 1-0.4 1.6-3 10.9-32.4 76.6-33 80.6-0.5 2.5 14 45.7 18.5 57.3 1.9 4.8-7.6 6.9-7.6 6.9z"/>
	<path id="Layer" class="s18" d="m252.3 232.4c-7.6-19.4-28-24.5-28-24.5 20.6-30.7 34.5-23.3 34.5-23.3 4.9 1.5 10.6 39.6-6.5 47.8z"/>
	<rect id="Layer" class="s20" x="155.7" y="671.6" width="253.3" height="30.2" rx="7.4"></rect>
	<path id="Layer" class="s21" d="m217.1 701.8l-3 17.7-43.6 255.7q-0.1 0.4-0.3 0.7-0.2 0.3-0.5 0.5-0.3 0.2-0.7 0.3-0.4 0.1-0.7 0.1c-2.3 0-4-1.5-3.8-3.2l34.6-261.9 1.3-9.9z"/>
	<path id="Layer" class="s22" d="m217.1 701.8l-3 17.7c-2.1-7-15-7.8-15-7.8l1.3-9.9z"/>
	<path id="Layer" class="s21" d="m396.5 976.8q-0.4 0-0.8-0.1-0.4-0.1-0.7-0.3-0.3-0.2-0.5-0.5-0.2-0.3-0.3-0.7l-43.6-255.7-1.9-11-1.1-6.6h16.7l1.4 9.8 1 7.8 33.5 254.1c0.2 1.7-1.5 3.2-3.7 3.2z"/>
	<path id="Layer" class="s22" d="m366.7 719.5c-4.3-8.4-17.9-11-17.9-11l-1.2-6.7h16.8l1.3 9.9z"/>
	<path id="Layer" class="s1" d="m1272.5 520.7l-5.3-1.2c-4.8 0.8-10.6-2.7-14-8.3-3.5-5.7-3.1-3.8-5.7-7.7-2.5-4 3.8-5.5 3.8-5.5 15.4-2.6 19.3 11.2 19.3 11.2l4.9 5.9z"/>
	<path id="Layer" class="s23" d="m1267.8 513.9c3.2-4.5 4.1-4.7 4.1-4.7 0 0 48 22.2 52.3 24.5 11.5 6.3 76.9 3.1 76.9 3.1l9.1 37c0 0-81.5-5.8-96.9-14.2-18.2-9.8-48.3-38.6-48.3-38.6q0.1-1 0.3-1.9 0.3-0.9 0.6-1.9 0.4-0.9 0.8-1.7 0.5-0.9 1.1-1.6z"/>
	<path id="Layer" class="s24" d="m1331.3 407.6l-25.5 559.2h-222.5l-23.4-559.2q0-0.9 0.2-1.7 0.2-0.9 0.5-1.8 0.4-0.8 0.9-1.5 0.5-0.8 1.2-1.4 0.8-0.8 1.8-1.4 0.9-0.6 2-1 1-0.5 2.1-0.7 1.2-0.2 2.3-0.2h249.4c6 0 11 4.4 11 9.7z"/>
	<path id="Layer" class="s25" d="m1206.1 966.8h-122.8l-23.4-559.1q0-1 0.2-1.8 0.2-0.9 0.5-1.8 0.4-0.8 0.9-1.5 0.5-0.8 1.2-1.4l125.1 11z"/>
	<path id="Layer" class="s26" d="m1331.8 396h-272.4c0.3-35.9 14.8-70.2 40.3-95.5 25.5-25.3 60-39.5 95.9-39.5 35.9 0 70.4 14.2 95.9 39.5 25.5 25.3 39.9 59.6 40.3 95.5z"/>
	<path id="Layer" class="s27" d="m1272.2 350.5v33.4c0 1.8-0.4 3.6-1.1 5.3-0.7 1.7-1.7 3.2-3 4.5-1.3 1.3-2.8 2.3-4.5 3-1.7 0.7-3.5 1.1-5.3 1.1h-125.4c-1.8 0-3.6-0.4-5.3-1.1-1.7-0.7-3.2-1.7-4.5-3-1.3-1.3-2.3-2.8-3-4.5-0.7-1.7-1.1-3.5-1.1-5.3v-33.4c0-1.8 0.4-3.6 1.1-5.3 0.7-1.7 1.7-3.2 3-4.5 1.3-1.3 2.8-2.3 4.5-3 1.7-0.7 3.5-1.1 5.3-1.1h125.4c1.8 0 3.6 0.4 5.3 1.1 1.7 0.7 3.2 1.7 4.5 3 1.3 1.3 2.3 2.8 3 4.5 0.7 1.7 1.1 3.5 1.1 5.3z"/>
	<path id="Layer" class="s28" d="m1251 397.8h-118.1c-1.8 0-3.6-0.4-5.3-1.1-1.7-0.7-3.2-1.7-4.5-3-1.3-1.3-2.3-2.8-3-4.5-0.7-1.7-1.1-3.5-1.1-5.3v-33.4c0-1.8 0.4-3.6 1.1-5.3 0.7-1.7 1.7-3.2 3-4.5 1.3-1.3 2.8-2.3 4.5-3 1.7-0.7 3.5-1.1 5.3-1.1h73.3c0 0 8.3 50.8 41.3 59.1 2.8 0.7 3.9 1.4 3.5 2.1z"/>
	<path id="Layer" class="s29" d="m1335 412.2h-278.8c-1.4 0-2.7-0.3-4-0.8-1.3-0.6-2.5-1.3-3.4-2.3-1-1-1.8-2.2-2.3-3.4-0.6-1.3-0.8-2.7-0.8-4.1 0-1.3 0.2-2.7 0.8-4 0.5-1.3 1.3-2.4 2.3-3.4 0.9-1 2.1-1.8 3.4-2.3 1.3-0.5 2.6-0.8 4-0.8h278.8c1.4 0 2.8 0.3 4 0.8 1.3 0.5 2.5 1.3 3.4 2.3 1 1 1.8 2.1 2.3 3.4 0.6 1.3 0.8 2.7 0.8 4 0 1.4-0.2 2.8-0.8 4.1-0.5 1.2-1.3 2.4-2.3 3.4-0.9 1-2.1 1.7-3.4 2.3-1.2 0.5-2.6 0.8-4 0.8z"/>
	<path id="Layer" class="s29" d="m1306.6 930l6.5 46.8h-237.8l6.5-46.8h224.8z"/>
	<path id="Layer" class="s1" d="m1436.9 529.8c0 0-14.4 17-32.7 9.9 0 0-4-9.5-4-16.6q0-1.3 0-2.5c-0.1-7.9-0.4-12.3-0.4-12.3 0.9-0.4 28-11.5 28-10.6-0.5 21.4 9.1 32.1 9.1 32.1z"/>
	<path id="Layer" class="s30" d="m1425.1 502.8c-2.7 4.9-11.6 14.4-24.9 17.8-0.1-7.9-0.4-12.3-0.4-12.3 0.8-0.2 26-6.9 25.3-5.5z"/>
	<path id="Layer" class="s1" d="m1392.8 466.2c2.9-6 8.3-12.5 27.6-7 19.4 5.4 12.6 17.3 8.4 36.4-4.2 19-34.7 11.9-34.7 11.9-7.8-2.4-4.3-35.2-1.3-41.3z"/>
	<path id="Layer" class="s31" d="m1425.2 493c1-2 4.3-12.8-1.8-10.6-6.1 2.1-6.6 0.1-7-2.3-0.4-2.5-2.1-10.1-6.9-11.6-4.8-1.5-18.7 7.7-30.3 1.3 0 0 9.6-6.5 12.9-14.5 3.1-7.6 6.4-15.2 19.8-12.6 13.4 2.5 29.5 8.4 34.1 15.8q1.3 2.2 2.1 4.7 0.7 2.5 0.9 5 0.2 2.6-0.3 5.1-0.4 2.6-1.5 4.9c-12.4 24.8-19 22.8-19.4 22.6-3.5-2.3-2.7-7.8-2.6-7.8z"/>
	<path id="Layer" class="s0" d="m1510.6 970.2c6.8-1.5 9.4-9.9 9-17.6q0-1.3-0.1-2.5 0-1.3 0-2.6 0-1.3 0.1-2.5 0-1.3 0.1-2.6c0.2-4.4 0.6-7.9 0.6-7.9l14.6-3.4 1.5 2 1.5 1.9c0 0 8.9 8.1 7.1 14-1.7 5.8-9.7 9.6-10.7 16.8-1.1 7.1-5.4 11-9.3 11h-18.5c0 0-2.8-5.1 4.1-6.6z"/>
	<path id="Layer" class="s0" d="m1385.5 970.7c7.7-1.3 21.1-5.7 24.1-15.6q0.1-0.5 0.2-1c2.4-10.6 19.6 3.2 19.6 3.2 0 0 0.1 0.4 0.2 1.1 0.4 3.9 1.4 16.4-1.9 18.1q-0.1 0-0.2 0.1-0.1 0-0.3 0-0.1 0.1-0.2 0.1-0.2 0-0.3 0.1h-49c0.4-1.8 1.9-5.2 7.8-6.1z"/>
	<path id="Layer" class="s15" d="m1460.7 689.5c0 0-6 111.6-9.9 164.6q-0.1 1.3-0.2 2.6c-4.1 52.1-18.7 101.3-18.7 101.3-16.4 3.4-24.6-4.7-24.6-4.7 0 0-3.4-34.5-4.3-56-0.5-12.5-5.5-78-9.7-131.3-3.1-39.3-5.7-71.9-5.7-71.9z"/>
	<path id="Layer" class="s16" d="m1460.7 689.6c0 0-6 111.6-9.9 164.6q-0.1 1.3-0.2 2.5l-57.3-90.7c-3.1-39.3-5.7-71.9-5.7-71.9z"/>
	<path id="Layer" class="s15" d="m1474.8 676.6c0 0 3.6 30.7 4.3 46.3 0.6 15.5 14.4 59.8 26.1 74.6 20.8 26.2 32.7 133.5 32.7 133.5-1.6 4.9-19.4 12-19.4 12 0 0-9.7-15.5-40.7-71.1-31.1-55.6-78.3-173.9-78.3-173.9z"/>
	<path id="Layer" class="s32" d="m1377.6 594.5q-0.1-2.8 0-5.7 0.1-2.8 0.2-5.6 0.2-2.9 0.4-5.7 0.1-1.9 0.4-3.6c2-15.2 9.3-25.9 16.2-33.9l6.3-10.2c6.4 2.4 12.4 2.1 18.7-2 6.9-4.4 11.3-7.6 12.7-6.8 10.6 6.2 22.2 21.7 27.9 42.4q1.2 4.6 2.3 9.1 1 4.6 1.9 9.2 0.8 4.7 1.5 9.3 0.7 4.7 1.2 9.3 0.8 7.6 1.2 15.5c1.5 28 5.9 52 8.5 65.9 0.7 4 1.3 7.2 1.6 9.4 0.3 2-3.6 4.7-5.3 5.7-12.9 7.7-25.1 13.3-39.3 16.3-16.8 3.7-37.2 2.1-44.1 3q-0.3 0-0.5 0-0.3 0-0.6-0.1-0.2 0-0.5-0.1-0.2-0.2-0.4-0.3c-0.5-0.3-3.2-21-5.8-47.2-0.1-1-0.3-2.1-0.3-3.1v-0.4q-0.4-4.1-0.8-8.3c-0.6-7-1.1-14.2-1.6-21.3l-0.2-2.1c-0.8-11.5-1.4-22.8-1.6-33q0-2.8 0-5.7z"/>
	<path id="Layer" class="s23" d="m1377.6 594.5q-0.1-2.8 0-5.7 0.1-2.8 0.2-5.7 0.2-2.8 0.4-5.7c11.8-6.3 27.1-10.8 46.4-11.6 0 0-6 44.9-45.2 69.5l-0.2-2.1c-0.8-11.5-1.4-22.8-1.6-33q0-2.8 0-5.7z"/>
	<path id="Layer" class="s1" d="m1263.2 557.1l-6.3 8.8c0 0-4-2.8-5.5-3-5.7-0.8-11.7-1.7-14.8-8.8-2.6-5.6-3-10.4-2.2-14.3 1.3-7 4.3-5.7 9.5 1.7q0.7 0.9 1.5 1.7 0.8 0.8 1.7 1.6 0.9 0.7 1.8 1.4 0.9 0.7 1.9 1.3 0.1-0.4 0.2-0.9 0.1-0.5 0.2-0.9 0-0.5 0.1-0.9 0-0.5 0-0.9c-0.2-1.4 0.6-2.9 1.4-3 0.9-0.2 1.3 4.6 1.9 7 0.6 2.3 0.5 3.6 1.1 4.9 0.8 1.8 7.5 4.3 7.5 4.3z"/>
	<path id="Layer" class="s32" d="m1254.7 559c2-5.5 5.2-5.1 5.2-5.1 0 0 58.3 14.5 63.6 15.1 5.2 0.7 62.8-22.4 62.8-22.4 0 0 22.6-10.2 33.2-0.9 9.3 8 9.7 18.3 7.5 26.9-0.6 2.4-1.6 4.8-2.9 7-1.4 2.2-3 4.2-5 5.9-1.9 1.7-4.1 3.1-6.4 4.1-2.3 1.1-4.8 1.8-7.4 2.1-23.5 3-70.3 8.6-80.1 7.2-21.9-3-71.5-31.6-71.5-31.6q-0.1-1-0.1-2.1 0-1.1 0.2-2.1 0.1-1.1 0.3-2.1 0.3-1 0.6-2z"/>
	<path id="Layer" class="s33" d="m1060.9 811.2l160.8-10.3-33.5 178.4h-144.6l17.3-168.1z"/>
	<path id="Layer" class="s34" d="m708.8 800.9h353.1l-18.3 178.4h-312.9l-21.9-178.4z"/>
	<path id="Layer" class="s7" d="m1227.5 787v15.1c0 5.1-3.1 9.2-6.8 9.2h-41.5l-2.5 12.8c-1.1 5.8-5 9.8-9.4 9.8h-45c-5.3 0-9.2-6.4-8.3-13.3l1.3-9.3h-414.8c-3.8 0-6.9-4.1-6.9-9.2v-15.1c0-5.1 3.1-9.3 6.9-9.3h520.2c3.7 0 6.8 4.2 6.8 9.3z"/>
	<path id="Layer" class="s20" d="m1065.3 787v15.1c0 5.1-3 9.2-6.8 9.2h-358c-3.8 0-6.9-4.1-6.9-9.2v-15.1c0-5.1 3.1-9.3 6.9-9.3h358c3.8 0 6.8 4.2 6.8 9.3z"/>
	<path id="Layer" class="s20" d="m698.6 811l-0.5-0.2c-2.6-1.3-4.5-4.8-4.5-8.7v-15.1q0-0.4 0-0.9 0-0.4 0.1-0.8 0.1-0.5 0.2-0.9 0.1-0.4 0.2-0.9 0.3 0.3 0.6 0.7 0.3 0.4 0.5 0.8 0.2 0.4 0.3 0.8 0.1 0.5 0.1 0.9z"/>
	<path id="Layer" class="s2" d="m1650.4 976.9h-41.3c-2.2-1.9 1.5-6.2 5.4-6.5q0.8 0 1.6 0.1 0.8 0 1.6 0.1 0.8 0.1 1.6 0.2 0.7 0.2 1.5 0.4c0.6-7.6 3.8-41.5 16-40.2 13.8 1.6 0 15-3.9 22.9q-1 2.3-2 4.5-0.9 2.3-1.9 4.6-0.9 2.3-1.7 4.6-0.9 2.3-1.7 4.6 1.7 0.4 3.5 0.7c1.8-5.6 8.6-24.4 17.2-23.3 10.2 1.3 6.1 8.8-1.1 13.3-5.3 3.3-11.7 8-14.8 10.3q1 0.1 2 0.3 1 0.1 2 0.2 1 0.1 2 0.1 1 0 2.1 0c7.1-0.2 10.5 1.9 11.9 3.1z"/>
	<path id="Layer" class="s0" d="m647.8 614.6c-0.8 2.9 6.4 18.9 15.1 23.3 9.9 4.9 7.9 20.4 7.9 20.4-0.7-7.9-7.8-14.6-7.8-14.6 14.6 13.7-5.8 43.5-5.8 43.5 3.4-15.1-48.5-38.1-50.6-56.4-2.1-18.3 14.9-19.4 19.3-25.1 4.4-5.7-4.6-35.5 9.8-47.4 14.4-11.9 27.6-4.2 27.6-4.2-3.3-3.4-9.6-5.1-9.6-5.1 20.7 0 19 18.6 19 18.6 0 0-24.1 44.2-24.9 47z"/>
	<path id="Layer" class="s17" d="m716.5 777.7h-16.1q-0.2 0-0.5 0-0.3 0.1-0.5 0.1-0.3 0.1-0.6 0.2-0.2 0.1-0.5 0.2c-8.3-3.5-20.6-8.9-31.1-14.4-9.1-4.9-16.9-9.8-19.3-13.8-2.1-3.4-10.7-24.3-18.1-46-3.6-10.4-6.9-21-9-30-2-8.1-3.1-14.9-2.6-18.9q0.1-0.7 0.2-1.4 0.2-0.7 0.4-1.3 0.2-0.7 0.5-1.4 0.2-0.6 0.5-1.3 0.1-0.1 0.1-0.1 0.1-0.1 0.1-0.2 0-0.1 0.1-0.1 0-0.1 0.1-0.2 0.1-0.2 0.3-0.5 0.1-0.3 0.3-0.5 0.1-0.3 0.3-0.5 0.2-0.3 0.4-0.5 0.8-1.1 1.7-2 0.9-1 2-1.8 1.1-0.7 2.2-1.4 1.2-0.6 2.5-1 0.7-0.3 1.5-0.5 0.9-0.2 1.7-0.3 0.8-0.2 1.6-0.2 0.8-0.1 1.7 0 1.7 0 3.4 0.4 1.7 0.4 3.3 1.1 1.6 0.6 3.1 1.6 1.4 1 2.7 2.2 0.3 0.3 0.6 0.6 0.3 0.3 0.5 0.6 0.3 0.3 0.5 0.6 0.3 0.3 0.5 0.7 0.1 0 0.1 0.1 0.1 0.1 0.1 0.1 0 0.1 0.1 0.2 0 0 0.1 0.1 0.4 0.7 0.9 1.5 0.4 0.8 0.7 1.6 0.3 0.8 0.6 1.6 0.2 0.9 0.4 1.7c0.6 3 1.3 6.3 1.9 9.8 1.1 6.2 2.2 13 3.3 19.8 4 25.8 7.8 52.7 11.6 56.6 4.7 4.8 45.7 36.9 45.7 36.9z"/>
	<path id="Layer" class="s7" d="m649.4 645.1c0 0 6 6.3 8.8 13.9 0 0-9.7 27.7-32.3 31.2 0 0 17.9-45.1 23.5-45.1z"/>
	<path id="Layer" class="s0" d="m690.4 594.6l-47.5 20.1c0 0 0.8-7.1-3.4-7.2-6.7-0.2-10-17 1.6-29.9 1.3-1.4 26.1-13.7 25.8-12.6 17.8-3.8 23.5 29.6 23.5 29.6z"/>
	<path id="Layer" class="s15" d="m614.6 967.8l-10.2-1.5c0 0-34.6-27.5-39.8-78.8q-0.2-2-0.3-3.9-0.1-2-0.1-4 0-2 0-4 0.1-2 0.2-3.9 0-0.3 0-0.5 0-0.2 0-0.4-0.1-0.3-0.2-0.5 0-0.2-0.1-0.4h-0.1c-1.1-1.7-3.8-5.9-7.5-12-3.8-6-10-17.2-16.9-29.8-12.5-22.8-27-50-32-58.6-15.8-27.7-8.2-46.2-8.2-46.2 0 0 44.2-4.4 56.4-15l4.3 6.7c0 0 9.6 42.4 9.2 42.6 0.4 1.5 1 3 1.4 4.5 7.6 23.3 16.3 52.5 21 76.2 2.7 13.4 4.1 25 3.3 33q0 1.6 0 3.1 0 1.5 0.1 3 0.1 1.5 0.3 3 0.2 1.5 0.4 3c4.3 30.5 18.8 84.4 18.8 84.4z"/>
	<path id="Layer" class="s16" d="m636.2 980.8h-42.9c0 0-1-6.6 1.2-11.5 2.2-4.8 5.2-4.9 0.4-12.4 2.8 2.8 11.5 4 17.7 3.1 0.8 1.3 4.9 9.5 7.5 11.4 2.8 2 15.3 1.3 16.1 9.4z"/>
	<path id="Layer" class="s16" d="m570.7 762.1c-3.7 20.6-12.6 55-31.1 66-12.5-22.8-27-50-32-58.6-15.9-27.7-8.2-46.2-8.2-46.2 0 0 44.2-4.4 56.4-15l4.3 6.7c0 0 9.6 42.4 9.2 42.6q0.7 2.2 1.4 4.5z"/>
	<path id="Layer" class="s15" d="m524.4 766.9c-6.9 24.3-16.6 55.7-26.6 79.4-5.2 12.6-10.6 23.1-15.6 29.2q-0.9 1.3-1.8 2.5-0.8 1.3-1.6 2.6-0.7 1.3-1.4 2.7-0.7 1.3-1.4 2.7c-13.4 27.6-34.1 91.6-34.1 91.6l-5.6 1.4c0 0-12.8-61.6 11.6-107q1-1.7 2-3.5 1-1.7 2.1-3.3 1-1.7 2.2-3.3 1.1-1.6 2.4-3.2 0.1-0.2 0.2-0.3 0.1-0.2 0.2-0.4 0.1-0.3 0.2-0.5 0-0.2 0-0.4c0.1-2.1 0.2-7.1 0.5-14.2 0.8-19.6 7.8-85.1 9-100.7 2.2-31.7 19-42.8 19-42.8 0 0 39.1 21.1 55.1 19.1l-0.2 8c0 0-15.8 40.5-16.2 40.4z"/>
	<path id="Layer" class="s1" d="m634.2 672.9c-26.2-6-9.5-42.7-8-42.1 3.7-0.7 11.6-7.1 18.7-19.5l1 0.9 16 14c0 0-3.7 5.5-6.8 10.9-2.5 4.2-4.5 8.3-4.2 9.7 1.3 1-9.8 27.7-16.7 26.1z"/>
	<path id="Layer" class="s17" d="m661.9 626.3c0 0-3.7 5.4-6.8 10.8-10-6.2-10-18.5-9.2-24.9z"/>
	<path id="Layer" class="s1" d="m662.4 633.3c0 0-24.3-13.5-15.6-28.5 8.6-14.9 11.3-26.7 27.1-18.7 15.9 7.9 15.5 15.4 13.9 21.1-1.7 5.6-18.9 29.2-25.4 26.1z"/>
	<path id="Layer" class="s0" d="m681.7 617.4c-2.5-1 1.5-9.2 2.5-13.7 0.8-3.3-0.5-7.8-1.2-10-1.5 1.5-16 15.5-31.3 14.1q2.2-0.5 4.3-1.2 2.1-0.6 4.2-1.4 2-0.8 4.1-1.7 2-0.9 3.9-1.9c-3.9 1.3-7.9 1.9-11.4 0.9-11.6-3.3-16.3-8.1-14.4-8.5q2.8-0.6 5.4-1.6 2.7-1 5.1-2.4 2.5-1.5 4.6-3.4 2.2-1.8 4-4c0 0 14.6-5.8 23.5 9 2.4-0.5 5.8 0.2 6.9 6.8 1.6 10-10.2 19.1-10.2 19z"/>
	<path id="Layer" class="s16" d="m470.4 980.8h-42.9c0 0-1-6.6 1.2-11.5 2.2-4.8 5.5-6.9 4.7-12.7 2.8 2.8 7.2 5.9 13.4 5.1 0.8 1.2 4.9 7.8 7.4 9.7 2.8 2 15.3 1.3 16.2 9.4z"/>
	<path id="Layer" class="s18" d="m637.2 702c-5.5 2-13.2 3-21.2 3.9-11.3 1.2-22.9 2-29 4.5-2.2 0.9-3.7 2-4.2 3.4-2.6 8-14.3 20.2-14.3 20.2-74.7-3.4-82.9-34.7-82.9-34.7 50.3-58.4 135.4-75.3 135.4-75.3 0 0 6.1-2.6 21.4 9.6 10.2 8.1 8.8 11.2 8.8 11.2 0 0 2.3 51.6-14 57.2z"/>
	<path id="Layer" class="s7" d="m616 705.9c-11.3 1.2-22.9 2-29 4.5-2.5-37.3 15.1-65.3 15.1-65.3 0 0 11.5 46.7 13.9 60.8z"/>
	<path id="Layer" class="s1" d="m652.5 749.4c5 5.1 33.6 32.7 33.6 32.7v12.5c0 0-50-23.2-57.7-35.5-4.2-6.9-33.5-81.7-31.3-100 2.3-18.4 30.5-21.2 30.5-21.2 9.6 6.4 17.2 103.5 24.9 111.5z"/>
	<path id="Layer" class="s18" d="m592 651.6c0.5-9.6 12.4-15.9 32.4-18 20-2.1 16.4 36.5 16.4 36.5-16.8 8.5-42.8 0.4-42.9 0 0 0-6.4-8.9-5.9-18.5z"/>
	<path id="Layer" class="s1" d="m695.5 808.7c-2.9 0-6.4-2.2-9.4-7.4q-0.4-0.8-0.7-1.8-0.3-0.9-0.5-1.8-0.2-1-0.3-2-0.1-0.9 0-1.9 0-1.5 0.1-3 0.1-1.4 0.3-2.9 0.2-1.5 0.5-2.9 0.2-1.5 0.6-2.9c3.6 0.2 6.4 0.1 8 1.4q0.3 0.3 0.6 0.7 0.3 0.3 0.5 0.8 0.2 0.4 0.3 0.8 0.1 0.4 0.1 0.9c0 0.3-1.3 11-0.7 14.7 0.5 2.8 1 7.3 0.6 7.3z"/>
	<path id="Layer" class="s35" d="m1282 774c-14 2.9-37.1 3.7-55.6 3.7-13.9 0-29.5-0.5-45.9-1.4-60.7-3-132.1-10.7-167.3-14.9q-4.2-0.4-8.3-0.3-4.2 0.1-8.3 0.8-4 0.7-8 2-4 1.2-7.7 3c-12.6 6-32.1 11.3-55.7 11.3-23.6 0-44.5-7-58.2-18q-2.2-1.7-4.2-3.6-2-2-3.8-4.2-1.7-2.1-3.2-4.5-1.5-2.4-2.6-4.9c-0.6-1.3-0.8-2.8-0.6-4.2 0.1-1.5 0.7-2.8 1.6-4 0.9-1.1 2.1-2 3.4-2.5 1.4-0.5 2.8-0.7 4.3-0.5l91.6 15.2 42.9 7.1c1.9 0.3 44.1 12.4 162.3 13.2 34.1 0.2 74.6-0.5 122.3-2.8q0.3 0 0.6 0 0.4 0.1 0.7 0.1 0.4 0.1 0.7 0.3 0.3 0.1 0.6 0.3c0.8 0.5 1.4 1.2 1.8 2.1 0.4 0.9 0.5 1.9 0.4 2.8-0.2 1-0.7 1.8-1.3 2.5-0.7 0.7-1.6 1.2-2.5 1.4z"/>
	<path id="Layer" class="s36" d="m1180.5 776.3c-60.7-3.1-132.1-10.7-167.4-14.9q-4.1-0.5-8.3-0.3-4.1 0.1-8.2 0.8-4.1 0.7-8 1.9-4 1.3-7.7 3.1c-12.6 6-32.1 11.3-55.7 11.3-23.7 0-44.5-7-58.3-18 55.1 10.5 77.7-3.2 86.6-13.3l42.9 7.1c1.9 0.3 44.1 12.5 162.3 13.2q2.6 1.4 5.3 2.6 2.7 1.3 5.4 2.4 2.7 1.1 5.5 2.2 2.8 1 5.6 1.9z"/>
	<path id="Layer" class="s1" d="m244.7 346.9c0 0 4.3 2 6.4 2.7 2.1 0.6 4.3 4.2 6.8 5.9 2.5 1.7 2 2.7 0.6 2.6-1.3-0.1-5.2-2.4-6.3-2.2-1.1 0.1 5 7.3 9.2 9.4 4.2 2.1 4 2.9 0.6 4.1-3.5 1.2-13.2 0.4-16.6-3.3-3.4-3.7-8.3-12.3-8.3-12.3z"/>
	<path id="Layer" class="s1" d="m694.9 784.5c0 0 5.1 7.9 6.4 9.3 0 0-2.3 1.2-3.8 0q-0.7-0.7-1.4-1.4-0.7-0.7-1.4-1.4-0.7-0.7-1.4-1.4-0.7-0.7-1.3-1.5z"/>
</svg>