<svg version="1.2" xmlns="http://www.w3.org/2000/svg" viewBox="0 0 148 194" width="148" height="194">
	<title>Protrace_Logo-ai</title>
	<style>
		.s0 { fill: #024080 } 
		.s1 { fill: #ffffff } 
		.s2 { fill: #ffe23b } 
	</style>
	<g id="Ebene 1">
		<path id="&lt;Path&gt;" class="s0" d="m147.9 187.1c0 3.3-2.9 6-6.5 6h-134.7c-3.6 0-6.5-2.7-6.5-6v-180.3c0-3.3 2.9-6 6.5-6h134.7c3.6 0 6.5 2.7 6.5 6z"/>
		<g id="&lt;Group&gt;">
			<g id="&lt;Group&gt;">
				<path id="&lt;Compound Path&gt;" class="s1" d="m29.7 156.8v21h-6.6v-21h-6.6v-5.8h19.8v5.8z"/>
				<path id="&lt;Compound Path&gt;" fill-rule="evenodd" class="s1" d="m54.1 177.8l-4.8-10h-2.2v10h-6.6v-26.8h10.6c6 0 9.2 4.2 9.2 8.6 0 3.6-2.3 5.9-4.4 7l5.8 11.2zm-3.2-20.9h-3.7v5.4h3.7c1.8 0 2.8-1.3 2.8-2.7 0-1.4-1-2.7-2.8-2.7z"/>
				<path id="&lt;Compound Path&gt;" fill-rule="evenodd" class="s1" d="m82.7 177.8l-1.3-4h-8.2l-1.3 4h-6.9l9.7-26.8h5.1l9.8 26.8zm-5.3-16.7l-2.4 7.2h4.7z"/>
				<path id="&lt;Compound Path&gt;" class="s1" d="m101.2 178c-3.1 0-5.5-1.1-7.5-3-2.8-2.8-2.7-6.6-2.7-10.6 0-4.1-0.1-7.8 2.7-10.6 2-2 4.4-3.1 7.5-3.1 5.1 0 9.2 2.9 10.2 8.8h-6.7c-0.5-1.5-1.3-2.9-3.5-2.9-1.2 0-2.1 0.5-2.6 1.1-0.6 0.8-1 1.8-1 6.7 0 4.9 0.4 5.8 1 6.6 0.5 0.6 1.4 1.1 2.6 1.1 2.2 0 3-1.3 3.5-2.8h6.7c-1 5.9-5.1 8.7-10.2 8.7z"/>
				<path id="&lt;Compound Path&gt;" class="s1" d="m114.4 177.8v-26.8h18.3v5.8h-11.7v4.5h10v5.9h-10v4.7h11.7v5.9z"/>
			</g>
			<g id="&lt;Group&gt;">
				<path id="&lt;Compound Path&gt;" fill-rule="evenodd" class="s1" d="m35.8 121.8h-9.4v18.4h-9.5v-48.8h18.9c10 0 16.1 6.9 16.1 15.2 0 8.3-6.1 15.2-16.1 15.2zm-0.5-21.9h-8.9v13.4h8.9c4.3 0 7-2.7 7-6.7 0-4-2.7-6.7-7-6.7z"/>
				<path id="&lt;Compound Path&gt;" fill-rule="evenodd" class="s1" d="m82.3 140.2l-9.5-19.5h-6.8v19.5h-9.5v-48.8h19.1c9.9 0 15.8 6.8 15.8 14.9 0 6.9-4.2 11.1-8.9 12.8l10.9 21.1zm-7.4-40.3h-9v12.9h9c4.1 0 6.9-2.7 6.9-6.5 0-3.7-2.8-6.4-6.9-6.4z"/>
				<path id="&lt;Compound Path&gt;" fill-rule="evenodd" class="s1" d="m127.3 135.2c-3.4 3.5-7.6 5.4-13.1 5.4-5.6 0-9.8-1.9-13.2-5.4-5-4.9-4.8-11-4.8-19.4 0-8.4-0.2-14.5 4.8-19.5 3.4-3.4 7.6-5.3 13.2-5.3 5.5 0 9.7 1.9 13.1 5.3 4.9 5 4.9 11.1 4.9 19.5 0 8.4 0 14.5-4.9 19.4zm-7-33.1c-1.4-1.6-3.5-2.6-6.1-2.6-2.6 0-4.8 1-6.2 2.6-1.8 2-2.3 4.3-2.3 13.7 0 9.4 0.5 11.6 2.3 13.7 1.4 1.6 3.6 2.6 6.2 2.6 2.6 0 4.7-1 6.1-2.6 1.8-2.1 2.4-4.3 2.4-13.7 0-9.4-0.6-11.7-2.4-13.7z"/>
			</g>
		</g>
		<g id="&lt;Group&gt;">
			<path id="&lt;Path&gt;" class="s2" d="m24.4 76.2h-7.3v-55.5h7.3z"/>
			<path id="&lt;Path&gt;" class="s2" d="m47.2 76.2h-12.3v-55.5h12.3z"/>
			<path id="&lt;Path&gt;" class="s2" d="m69.8 76.2h-12.4v-55.5h12.4z"/>
			<path id="&lt;Path&gt;" class="s2" d="m118.4 76.2h-16.4v-55.5h16.4z"/>
			<path id="&lt;Path&gt;" class="s2" d="m86.9 76.2h-6.1v-55.5h6.1z"/>
			<path id="&lt;Path&gt;" class="s2" d="m131.6 76.2h-6.2v-55.5h6.2z"/>
		</g>
		<g id="&lt;Group&gt;">
			<path id="&lt;Path&gt;" class="s2" d="m24.4 76.2h-7.3v-55.5h7.3z"/>
			<path id="&lt;Path&gt;" class="s2" d="m47.2 76.2h-12.3v-55.5h12.3z"/>
			<path id="&lt;Path&gt;" class="s2" d="m69.8 76.2h-12.4v-55.5h12.4z"/>
			<path id="&lt;Path&gt;" class="s2" d="m118.4 76.2h-16.4v-55.5h16.4z"/>
			<path id="&lt;Path&gt;" class="s2" d="m86.9 76.2h-6.1v-55.5h6.1z"/>
			<path id="&lt;Path&gt;" class="s2" d="m131.6 76.2h-6.2v-55.5h6.2z"/>
		</g>
	</g>
</svg>