<svg id="Layer_1" data-name="Layer 1" xmlns="http://www.w3.org/2000/svg" xmlns:xlink="http://www.w3.org/1999/xlink" viewBox="0 0 385.8 372.59"><defs><style>.cls-1{fill:#d3d3d3;}.cls-2{fill:none;}.cls-3{clip-path:url(#clip-path);}.cls-4{fill:#fcb45e;}.cls-5{fill:#ffdfa6;}.cls-6{fill:#292935;}.cls-7{fill:#119dae;}.cls-8{fill:#b6e9f2;}.cls-9{fill:#fd6f6d;}.cls-10{fill:#f2a7a7;}.cls-11{clip-path:url(#clip-path-2);}.cls-12{fill:#188ba0;}.cls-13{fill:#fff0d7;}.cls-14{fill:#e87777;}</style><clipPath id="clip-path"><ellipse class="cls-1" cx="192.02" cy="187.17" rx="117.13" ry="110.26"/></clipPath><clipPath id="clip-path-2"><ellipse class="cls-2" cx="187.02" cy="181.17" rx="117.13" ry="110.26"/></clipPath></defs><path class="cls-1" d="M317.84,306s11.59,15.31,0,26.8-135.76,25.47-135.76,25.47l-7.43-22.83,67.73-11.09q33-5.39,65.93-10.79C314.4,312.5,317.87,309.75,317.84,306Z"/><path class="cls-1" d="M174.65,335.39l7.43,22.83s-5.52,14.9-32.44,14.36-82.71-33.74-87.19-52.75,3.24-28,3.24-28c-1,3.75-.13,8.09,2.49,11.92,2.29,3.37,5.58,6,8.21,8.08,19.62,15.63,41.2,30.88,66.07,36.61a49.84,49.84,0,0,0,11.22,1.47,26.71,26.71,0,0,0,9.58-1.63C169.09,346,173.6,340.87,174.65,335.39Z"/><path class="cls-1" d="M317.84,305.94c0,3.8-3.43,6.56-9.53,7.56q-33,5.42-65.93,10.8l-67.73,11.09c-1.05,5.47-5.56,10.64-11.38,12.86a26.8,26.8,0,0,1-9.59,1.63,50.62,50.62,0,0,1-11.22-1.46c-24.87-5.73-46.45-21-66.07-36.61-2.63-2.1-5.92-4.72-8.21-8.08-2.62-3.83-3.53-8.18-2.49-11.92,1.61-5.71,7.66-9.78,16.18-10.89a51,51,0,0,1,29.4,5l80.59-14.23c13.19-2.33,28.15-5,42.45-2.36,9.5,1.74,18.42,5.73,27,9.57,4.27,1.91,8.69,3.88,13.09,5.55,4.13,1.55,8.45,2.9,12.63,4.21,8.65,2.72,17.59,5.53,25.56,10.29C313.9,299.72,317.81,302.05,317.84,305.94Z"/><path class="cls-1" d="M178.79,337.62c-.19-1.21-2-.7-1.85.51q1.35,8.79,2.71,17.57c.18,1.22,2,.7,1.84-.5Z"/><path class="cls-1" d="M156.58,358.37a1,1,0,0,0-.25-.42l-.19-.15a1,1,0,0,0-.49-.13h-.53a.8.8,0,0,0-.37.08.75.75,0,0,0-.3.2.69.69,0,0,0-.2.31.67.67,0,0,0-.08.37l0,.25a.94.94,0,0,0,.25.42l.19.15a.91.91,0,0,0,.48.13h.53a.65.65,0,0,0,.37-.08,1,1,0,0,0,.59-.87Z"/><path class="cls-1" d="M164.69,353.42a1,1,0,0,0,0,1.91A1,1,0,0,0,164.69,353.42Z"/><path class="cls-1" d="M160.3,362.63a.94.94,0,0,0-.25-.42l-.19-.15a.91.91,0,0,0-.48-.13h-.27a1,1,0,0,0-.68.28.6.6,0,0,0-.19.3.81.81,0,0,0-.09.37c0,.09,0,.17,0,.26a.89.89,0,0,0,.24.42l.2.15a1,1,0,0,0,.48.13h.27a.73.73,0,0,0,.36-.08.87.87,0,0,0,.51-.51.67.67,0,0,0,.08-.37Z"/><path class="cls-1" d="M166.55,363a1,1,0,0,0,0,1.91A1,1,0,0,0,166.55,363Z"/><path class="cls-1" d="M170.27,360.06a1,1,0,0,0,0,1.92A1,1,0,0,0,170.27,360.06Z"/><path class="cls-1" d="M282.52,338.32a.66.66,0,0,0-.2-.3.61.61,0,0,0-.3-.2.69.69,0,0,0-.37-.08l-.26,0a1,1,0,0,0-.42.25l-.15.19a1,1,0,0,0-.13.48V339a.8.8,0,0,0,.08.37.9.9,0,0,0,.51.5.67.67,0,0,0,.37.08l.25,0a.94.94,0,0,0,.42-.25l.15-.19a.91.91,0,0,0,.13-.48v-.27A.69.69,0,0,0,282.52,338.32Z"/><path class="cls-1" d="M296.27,333.22a1,1,0,0,0,0,1.91A1,1,0,0,0,296.27,333.22Z"/><path class="cls-1" d="M292,327.86l-.27-.53a.72.72,0,0,0-.25-.27.67.67,0,0,0-.32-.17.71.71,0,0,0-.38,0,.76.76,0,0,0-.36.11l-.19.15a1,1,0,0,0-.25.42l0,.26a.91.91,0,0,0,.13.48l.27.53a.78.78,0,0,0,.24.27.8.8,0,0,0,.33.17.7.7,0,0,0,.38,0,.77.77,0,0,0,.36-.12l.19-.15a.85.85,0,0,0,.24-.42l0-.25A1,1,0,0,0,292,327.86Z"/><path class="cls-1" d="M306,320.63a1,1,0,0,0-.24-.42l-.2-.15a.91.91,0,0,0-.48-.13h-.27a1,1,0,0,0-.67.28.66.66,0,0,0-.2.3.69.69,0,0,0-.08.37l0,.26a1,1,0,0,0,.25.42l.19.15a.91.91,0,0,0,.48.13H305a.8.8,0,0,0,.37-.08.79.79,0,0,0,.31-.2.67.67,0,0,0,.19-.31.78.78,0,0,0,.09-.37Z"/><path class="cls-1" d="M311.69,324.71a1,1,0,0,0,0,1.91A1,1,0,0,0,311.69,324.71Z"/><path class="cls-1" d="M81.49,329.5a1,1,0,0,0,0,1.91A1,1,0,0,0,81.49,329.5Z"/><path class="cls-1" d="M88.77,341.41a1.73,1.73,0,0,0-.1-.24h0a.78.78,0,0,0-.24-.27.7.7,0,0,0-.33-.17.81.81,0,0,0-.31,0,.86.86,0,0,0-.39,0l-.23.1a1,1,0,0,0-.34.34h0a.43.43,0,0,1,0,.12.51.51,0,0,1-.05.12h0a1.09,1.09,0,0,0,0,.26,1,1,0,0,0,.13.51h0l.15.2h0a1.46,1.46,0,0,0,.21.16l.24.1h0l.25,0h.05l.27,0h0l.23-.09h0l.2-.15h0l.15-.19h0a1.6,1.6,0,0,0,.1-.23h0s0-.08,0-.13l0-.12h0A.8.8,0,0,0,88.77,341.41Z"/><path class="cls-1" d="M93.72,332.15a1,1,0,0,0,0,1.92A1,1,0,0,0,93.72,332.15Z"/><path class="cls-1" d="M79.37,303.45a1,1,0,0,0,0,1.91A1,1,0,0,0,79.37,303.45Z"/><path class="cls-1" d="M86.28,292.81a1,1,0,0,0,0,1.92A1,1,0,0,0,86.28,292.81Z"/><path class="cls-1" d="M90,306.9a1,1,0,0,0,0,1.91A1,1,0,0,0,90,306.9Z"/><path class="cls-1" d="M101.16,317a1,1,0,0,0,0,1.92A1,1,0,0,0,101.16,317Z"/><path class="cls-1" d="M224,319.72a.67.67,0,0,0-.19-.31l-.2-.15a.91.91,0,0,0-.48-.13l-.25,0a1,1,0,0,0-.43.25l-.26.27a.61.61,0,0,0-.2.3.69.69,0,0,0-.08.37.67.67,0,0,0,.08.37.69.69,0,0,0,.2.31l.19.15a1,1,0,0,0,.48.13l.26,0a.89.89,0,0,0,.42-.24l.27-.27a.63.63,0,0,0,.19-.31.74.74,0,0,0,.09-.36A.75.75,0,0,0,224,319.72Z"/><path class="cls-1" d="M240.18,315.41a1,1,0,0,0,0,1.91A1,1,0,0,0,240.18,315.41Z"/><path class="cls-1" d="M233.13,308.93a1,1,0,0,0-.25-.42,3.19,3.19,0,0,0-.26-.26.69.69,0,0,0-.31-.2.67.67,0,0,0-.37-.08.69.69,0,0,0-.37.08.61.61,0,0,0-.3.2l-.15.19a.91.91,0,0,0-.13.48l0,.26a1,1,0,0,0,.25.42l.26.26a.69.69,0,0,0,.31.2.67.67,0,0,0,.37.08.69.69,0,0,0,.37-.08.66.66,0,0,0,.3-.2l.15-.19a.91.91,0,0,0,.13-.48Z"/><path class="cls-1" d="M252.41,305.31a1,1,0,0,0,0,1.91A1,1,0,0,0,252.41,305.31Z"/><path class="cls-1" d="M259.85,312.75a1,1,0,0,0,0,1.91A1,1,0,0,0,259.85,312.75Z"/><path class="cls-1" d="M275,308.23a1,1,0,0,0,0,1.91A1,1,0,0,0,275,308.23Z"/><path class="cls-1" d="M281.38,298.93a1,1,0,0,0,0,1.91A1,1,0,0,0,281.38,298.93Z"/><path class="cls-1" d="M147.22,338.25c-8.16,3.32-18,.45-22.94-6.48-4.14,5-10.21,8.18-17.17,6-7.81-2.47-10.36-10.19-9.62-17.52-8,2.43-17.26,3.27-22.46-4.36-4.55-6.68-.79-13.64,4.74-18.2a75.32,75.32,0,0,1-18.35-12c-6.73-6.13-13.84-15.52-14-25-.16-10.93,9.66-15.45,18.93-11.58,10.27,4.3,40.49,13.72,49.75,20,1.9-.13,32.12,12.87,38.77,16.26,6,3.05-1.64,21.47,3.51,25.95C168.14,319.73,156.05,334.67,147.22,338.25Z"/><path class="cls-1" d="M328.91,286.7a49,49,0,0,1-36,17.57,57.69,57.69,0,0,1-18.7-3.17c5.45,7.1,7.52,15.54.84,23.65-9.3,11.29-25,11.72-35.67,3.6a26.66,26.66,0,0,1-.54,5.67,13.68,13.68,0,0,1-5.21,7.54c-5.54,4.08-13,3.55-19.43,2.21-21.78-4.51-22.89-33.91-18.94-47.72,1.22-4.28,38.9-24.62,50-17,16.9-1.94,38.3-12.32,50.77-22.33,9.72-7.81,25.35-15,35.42-3.51C340.26,263.27,336.67,277.28,328.91,286.7Z"/><path class="cls-1" d="M120.9,284.71q-4.74-1.29-9.45-2.69a7.59,7.59,0,0,0-.76-2.06c-.38-.9-.75-1.81-1.13-2.72l-2.25-5.45a1,1,0,0,0-1.17-.67,1,1,0,0,0-.67,1.18q1,2.46,2,4.93l1,2.46.48,1.17s.09.25.18.49q-6.39-1.92-12.71-4a6.66,6.66,0,0,0-.74-2.31c-.38-1-.77-2.05-1.15-3.08l-2.31-6.16c-.43-1.14-2.28-.65-1.85.51.67,1.77,1.33,3.55,2,5.32.33.89.66,1.78,1,2.66.15.42.31.84.47,1.26s.21.7.35,1q-6.78-2.3-13.48-4.82a5,5,0,0,0-.43-1.49l-1.14-2.89c-.74-1.84-1.47-3.69-2.2-5.53a1,1,0,0,0-1.18-.67,1,1,0,0,0-.67,1.17c.64,1.61,1.28,3.21,1.91,4.82l1,2.41.48,1.2a1.47,1.47,0,0,0,.06.14c-1.65-.63-3.29-1.27-4.94-1.92q-6.67-2.66-13.28-5.54c-1.12-.48-2.09,1.16-1,1.65q8.75,3.82,17.65,7.26l-.09,0-2.31.66q-2.5.69-5,1.26c-1.2.28-.69,2.12.51,1.85,1.88-.44,3.76-.91,5.63-1.43.93-.26,1.86-.54,2.78-.82a6.53,6.53,0,0,0,1.3-.48c4,1.51,8,3,12,4.35l-1.68.54-5.53,1.77c-1.17.37-.67,2.22.5,1.84l6.25-2,3-1,.54-.16q5.8,2,11.65,3.77l.39.12c-.38.16-.76.3-1.13.47a40.69,40.69,0,0,0-4.41,2.38c-1,.64-.08,2.3,1,1.65a38.57,38.57,0,0,1,4.75-2.53q1.18-.52,2.4-1l.4-.13q5.22,1.56,10.48,3A1,1,0,0,0,120.9,284.71Z"/><path class="cls-1" d="M124.69,295.5c-1.65,1-3.33,1.91-5,2.82a2,2,0,0,0-1.16-.41c-1.77-.1-3.53-.16-5.29-.42a42.18,42.18,0,0,1-5.44-1.18,1,1,0,0,0-.51,1.85,42.29,42.29,0,0,0,5.77,1.22c1,.14,1.94.25,2.92.32.3,0,.6,0,.91.06-3.66,1.83-7.38,3.51-11.19,5a1,1,0,0,0-.67-.33l-13.35-1.54a1,1,0,0,0-1,1,1,1,0,0,0,1,.95L102.26,306a129.83,129.83,0,0,1-15.91,4.59c-1.2.26-.69,2.1.51,1.84a129.39,129.39,0,0,0,14.23-4c-1.2,1.49-2.35,3-3.43,4.61-.7,1,1,2,1.65,1a68.86,68.86,0,0,1,5.39-6.88,133.55,133.55,0,0,0,12.41-5.38l-.39,1c-.47,1.24-.9,2.49-1.29,3.76s1.48,1.68,1.84.51q.8-2.6,1.83-5.09c.18-.44.37-.87.56-1.29l.09-.18c2-1.05,4-2.14,5.91-3.29A1,1,0,0,0,124.69,295.5Z"/><path class="cls-1" d="M152.54,313a1,1,0,0,0,0,1.91A1,1,0,0,0,152.54,313Z"/><path class="cls-1" d="M155.8,319.45a.78.78,0,0,0-.5-.5.78.78,0,0,0-.37-.09l-.25,0a1,1,0,0,0-.43.24l-.14.2a1,1,0,0,0-.14.48v.4a.81.81,0,0,0,.09.37.67.67,0,0,0,.19.3,1,1,0,0,0,.68.28l.26,0a.91.91,0,0,0,.42-.25l.15-.19a1,1,0,0,0,.13-.48v-.4A.81.81,0,0,0,155.8,319.45Z"/><path class="cls-1" d="M152.3,325.05l-.15-.19a1,1,0,0,0-.42-.25l-.25,0a.92.92,0,0,0-.49.13l-.26.13a.72.72,0,0,0-.27.25.67.67,0,0,0-.17.32.71.71,0,0,0,0,.38.76.76,0,0,0,.11.36l.15.19a1,1,0,0,0,.43.25l.25,0a.91.91,0,0,0,.48-.13l.27-.13a.72.72,0,0,0,.27-.25.76.76,0,0,0,.17-.32.7.7,0,0,0,0-.38A.66.66,0,0,0,152.3,325.05Z"/><path class="cls-1" d="M147.89,318.33a1,1,0,0,0,0,1.91A1,1,0,0,0,147.89,318.33Z"/><path class="cls-1" d="M145.09,327.41a.94.94,0,0,0-.25-.42l-.19-.15a.91.91,0,0,0-.48-.13H144a.69.69,0,0,0-.37.08.66.66,0,0,0-.3.2.61.61,0,0,0-.2.3.69.69,0,0,0-.08.37l0,.26a1,1,0,0,0,.25.42l.19.15a1,1,0,0,0,.48.13h.14a.73.73,0,0,0,.36-.08.72.72,0,0,0,.31-.2.79.79,0,0,0,.2-.31.67.67,0,0,0,.08-.37Z"/><path class="cls-1" d="M113.35,333.06l-.15-.2a.89.89,0,0,0-.42-.24l-.4-.14a.7.7,0,0,0-.38,0,.66.66,0,0,0-.36.11.72.72,0,0,0-.27.25.76.76,0,0,0-.17.32l0,.26a.91.91,0,0,0,.13.48l.15.19a1,1,0,0,0,.42.25l.4.13a.7.7,0,0,0,.38,0,.76.76,0,0,0,.36-.11.69.69,0,0,0,.26-.25.67.67,0,0,0,.18-.33l0-.25A.91.91,0,0,0,113.35,333.06Z"/><path class="cls-1" d="M118.78,330.56a1,1,0,0,0,0,1.91A1,1,0,0,0,118.78,330.56Z"/><path class="cls-1" d="M113.86,327a1,1,0,0,0,0,1.91A1,1,0,0,0,113.86,327Z"/><path class="cls-1" d="M152.13,289.79a1,1,0,0,0-.24-.42l-.2-.15a1,1,0,0,0-.48-.13h-.13a.75.75,0,0,0-.37.09.67.67,0,0,0-.31.19.79.79,0,0,0-.2.31.77.77,0,0,0-.08.37l0,.25a1,1,0,0,0,.25.43l.19.14a1,1,0,0,0,.49.14h.13a.81.81,0,0,0,.37-.09.78.78,0,0,0,.5-.5.81.81,0,0,0,.09-.37Z"/><path class="cls-1" d="M151.63,296.61l0-.07a1.06,1.06,0,0,0-.06-.19.81.81,0,0,0-.25-.27.74.74,0,0,0-.33-.17l-.25,0a.91.91,0,0,0-.48.13l-.2.15a1,1,0,0,0-.24.42.06.06,0,0,0,0,0,1.26,1.26,0,0,0,0,.27v0h0c0,.05,0,.09,0,.13s0,.09,0,.13v0a1.86,1.86,0,0,0,.1.25l0,0,.16.21h0a.92.92,0,0,0,.22.17h0l.12.06.13,0a.81.81,0,0,0,.38,0,.77.77,0,0,0,.35-.12.78.78,0,0,0,.27-.24.8.8,0,0,0,.17-.33,2.17,2.17,0,0,1,0-.25A.93.93,0,0,0,151.63,296.61Z"/><path class="cls-1" d="M154.74,293.14a.69.69,0,0,0-.2-.31l-.19-.15a.91.91,0,0,0-.48-.13l-.26,0a1,1,0,0,0-.42.25l-.13.13a.79.79,0,0,0-.2.31.67.67,0,0,0-.08.37.69.69,0,0,0,.08.37.75.75,0,0,0,.2.3l.19.15a.91.91,0,0,0,.48.13l.26,0a1,1,0,0,0,.42-.25l.13-.13a.69.69,0,0,0,.2-.31.65.65,0,0,0,.08-.37A.64.64,0,0,0,154.74,293.14Z"/><path class="cls-1" d="M75.66,289.15a.9.9,0,0,0-.5-.51.8.8,0,0,0-.37-.08l-.26,0a.89.89,0,0,0-.42.24L74,289a1,1,0,0,0-.13.49v.13a.8.8,0,0,0,.08.37.79.79,0,0,0,.2.31.67.67,0,0,0,.31.19.78.78,0,0,0,.37.09l.25,0a.93.93,0,0,0,.42-.24l.15-.2a.91.91,0,0,0,.13-.48v-.13A.67.67,0,0,0,75.66,289.15Z"/><path class="cls-1" d="M81.17,286.57a1,1,0,0,0,0,1.91A1,1,0,0,0,81.17,286.57Z"/><path class="cls-1" d="M74.66,282.31a1,1,0,0,0,0,1.92A1,1,0,0,0,74.66,282.31Z"/><path class="cls-1" d="M69.77,284.38l-.15-.19a1,1,0,0,0-.42-.25l-.26,0a.91.91,0,0,0-.48.13l-.27.13a.81.81,0,0,0-.27.25.76.76,0,0,0-.17.32.74.74,0,0,0,0,.39.66.66,0,0,0,.11.35l.15.19a.91.91,0,0,0,.42.25l.26,0a.91.91,0,0,0,.48-.13l.26-.13a.78.78,0,0,0,.27-.24.75.75,0,0,0,.17-.33.7.7,0,0,0,0-.38A.76.76,0,0,0,69.77,284.38Z"/><path class="cls-1" d="M319.21,273.72q-5.54,1.72-11.17,3.15a68.37,68.37,0,0,0,4.62-9.7c.44-1.15-1.4-1.65-1.84-.51a64.69,64.69,0,0,1-5.41,10.86c-6.31,1.5-12.7,2.69-19.12,3.59,2.64-3.63,5.43-7.16,8.38-10.55.81-.92-.54-2.28-1.35-1.35q-5.11,5.88-9.63,12.25c-6.4.81-12.84,1.33-19.29,1.52-2.56.08-5.12.12-7.68.09a19.29,19.29,0,0,1-7.26-1.22c-1.13-.47-1.63,1.38-.51,1.85,4,1.67,8.67,1.33,12.93,1.26q7.2-.13,14.38-.77c2.33-.21,4.66-.45,7-.74l5.83,4.6a58.39,58.39,0,0,0,5.4,4c1,.65,2-1,1-1.65a55.52,55.52,0,0,1-5.34-4l-4.22-3.32q9.17-1.25,18.18-3.3l.72-.17a1.07,1.07,0,0,0,.3.3q4.21,2.61,8.26,5.46c1,.71,2-.95,1-1.65-2.32-1.63-4.68-3.19-7.08-4.7q6.3-1.55,12.5-3.49C320.89,275.2,320.39,273.35,319.21,273.72Z"/><path class="cls-1" d="M261.58,313l-7.45-1.8-3.58-.87c-.49-.11-1.12-.35-1.73-.47q-2.92-3.6-5.5-7.48c1.59.33,3.17.81,4.68,1.28a55.5,55.5,0,0,1,6.37,2.4c1.11.5,2.09-1.15,1-1.65a60,60,0,0,0-7.13-2.69c-1.22-.37-2.46-.7-3.71-1a16,16,0,0,0-2.59-.56,96.26,96.26,0,0,1-5.84-10.76c-.51-1.12-2.16-.15-1.65,1a99.27,99.27,0,0,0,5.69,10.56,5.83,5.83,0,0,0-.59,1.78c-.32,1.34-.64,2.68-1,4-.64,2.68-1.28,5.35-1.93,8-.29,1.2,1.56,1.71,1.85.51l1.69-7c.27-1.11.53-2.23.8-3.34.14-.56.27-1.12.4-1.68l.07-.23q2.54,3.86,5.41,7.48a5.46,5.46,0,0,0-.27,2.27c0,1.21-.09,2.43-.13,3.64-.1,2.52-.19,5-.29,7.57,0,1.05,1.73,1.33,1.88.25l0-.25h0v-.05a84.85,84.85,0,0,0,.76-11,96.74,96.74,0,0,0,7.22,7.66c.89.85,2.24-.5,1.35-1.35q-3.4-3.24-6.47-6.78l.5.12,3.17.77,6.48,1.57C262.27,315.14,262.78,313.29,261.58,313Z"/><path class="cls-1" d="M219.75,328.91c-1.24-1.47-2.55-2.88-3.92-4.21-.69-.67-1.39-1.33-2.11-2a16.37,16.37,0,0,0-2.19-1.8,1.23,1.23,0,0,0-.25-.14c0-.1-.05-.2-.08-.3a44,44,0,0,1-1.58-12.91c.06-1.23-1.85-1.22-1.91,0a44.71,44.71,0,0,0,1.54,13c0,.1.05.2.07.3l-.16.11a8.6,8.6,0,0,0-1.58,2.51L204.49,329a1,1,0,0,0,1.65,1l2.62-4.67c.39-.69.77-1.38,1.16-2.06.89,3.46,1.86,6.9,2.79,10.35a1,1,0,0,0,1.84-.51c-.82-3.07-1.66-6.13-2.47-9.21a59.77,59.77,0,0,1,6.32,6.41C219.19,331.2,220.54,329.84,219.75,328.91Z"/><path class="cls-1" d="M199.06,320.46a1,1,0,0,0,0,1.91A1,1,0,0,0,199.06,320.46Z"/><path class="cls-1" d="M203.31,314.61a1,1,0,0,0,0,1.91A1,1,0,0,0,203.31,314.61Z"/><path class="cls-1" d="M197.73,310.09a1,1,0,0,0,0,1.91A1,1,0,0,0,197.73,310.09Z"/><path class="cls-1" d="M233.42,322.91a.69.69,0,0,0-.2-.31l-.19-.15a.91.91,0,0,0-.48-.13l-.26,0a1,1,0,0,0-.42.25l-.26.27a.61.61,0,0,0-.2.3.69.69,0,0,0-.08.37.67.67,0,0,0,.08.37.69.69,0,0,0,.2.31l.19.15a1,1,0,0,0,.48.13l.26,0a.89.89,0,0,0,.42-.24l.26-.27a.69.69,0,0,0,.2-.31.64.64,0,0,0,.08-.36A.65.65,0,0,0,233.42,322.91Z"/><path class="cls-1" d="M230.16,333.48a1,1,0,0,0,0,1.92A1,1,0,0,0,230.16,333.48Z"/><path class="cls-1" d="M225.9,324.71a1,1,0,0,0,0,1.91A1,1,0,0,0,225.9,324.71Z"/><path class="cls-1" d="M262.85,299.73a1,1,0,0,0,0,1.91A1,1,0,0,0,262.85,299.73Z"/><path class="cls-1" d="M268.29,310.52a.68.68,0,0,0-.18-.32.53.53,0,0,0-.22-.2l-.07-.1a.89.89,0,0,0-.42-.24l-.26,0a1,1,0,0,0-.48.13h0l-.19.15h0l-.15.19h0a1.12,1.12,0,0,0-.11.25h0s0,.23,0,.26h0c0,.08.05.34,0,.27v0a2.72,2.72,0,0,0,.11.25v0l.16.21,0,0,0,0s.14.12.21.16h0l.23.09h0l.26,0h0l.13,0,.13,0h0l.23-.1h0a1.49,1.49,0,0,0,.2-.15h0l.15-.19h0v0a.66.66,0,0,0,.11-.35A.74.74,0,0,0,268.29,310.52Z"/><path class="cls-1" d="M270.56,298.66a1,1,0,0,0,0,1.91A1,1,0,0,0,270.56,298.66Z"/><path class="cls-1" d="M304.44,263a1,1,0,0,0-.24-.42l-.2-.15a.91.91,0,0,0-.48-.13h-.27a1,1,0,0,0-.67.28.66.66,0,0,0-.2.3.69.69,0,0,0-.08.37l0,.26a1,1,0,0,0,.25.42l.19.15a1,1,0,0,0,.48.13h.27a.8.8,0,0,0,.37-.08.79.79,0,0,0,.31-.2.77.77,0,0,0,.19-.31.78.78,0,0,0,.09-.37Z"/><path class="cls-1" d="M311.88,255.24a.89.89,0,0,0-.24-.42l-.2-.15a.89.89,0,0,0-.48-.13h-.26a.65.65,0,0,0-.37.08.69.69,0,0,0-.31.2.72.72,0,0,0-.2.31.73.73,0,0,0-.08.36l0,.26a1,1,0,0,0,.25.42l.19.15a.92.92,0,0,0,.49.13H311a.77.77,0,0,0,.37-.08.87.87,0,0,0,.51-.51.75.75,0,0,0,.08-.37Z"/><path class="cls-1" d="M315.22,260.92a1,1,0,0,0,0,1.91A1,1,0,0,0,315.22,260.92Z"/><path class="cls-1" d="M323.46,258a1,1,0,0,0,0,1.92A1,1,0,0,0,323.46,258Z"/><path class="cls-1" d="M301.66,294.41a1,1,0,0,0,0,1.91A1,1,0,0,0,301.66,294.41Z"/><path class="cls-1" d="M308.57,294.14a1,1,0,0,0,0,1.92A1,1,0,0,0,308.57,294.14Z"/><path class="cls-1" d="M318.4,286.43a1,1,0,0,0,0,1.92A1,1,0,0,0,318.4,286.43Z"/><path class="cls-1" d="M305.38,286.43a1,1,0,0,0,0,1.92A1,1,0,0,0,305.38,286.43Z"/><path class="cls-1" d="M294.48,298.13a1,1,0,0,0,0,1.91A1,1,0,0,0,294.48,298.13Z"/><path class="cls-1" d="M241.85,284.57a1,1,0,0,0,0,1.92A1,1,0,0,0,241.85,284.57Z"/><path class="cls-1" d="M194.11,295.08a1.14,1.14,0,0,0-1-.75c0-.08-5.79-4.25-9-5.44-8.39-3.08-17.62-4.84-26.78-6.08l-1.05-.15c-.21-.18-12.18-1.63-17.82-1.89-4.41-.31-8.83-.47-13.21-.4a128.91,128.91,0,0,0-16.34,1.34,62,62,0,0,0-10.68,1.83c-.72.21-1.49.48-2.23.78l-.82.2a1,1,0,0,0-.71.55A6,6,0,0,0,93,286.19a.76.76,0,0,0-.49.45,20.51,20.51,0,0,0-1.32,9.45c.29,2.8.65,6,4.76,7.68a63,63,0,0,0,13.69,3.48c5.1.87,10.25,1.61,15.39,2.29,10.35,1.39,20.78,2.46,31.19,2.89,9.35.39,19.45.7,28.33-.87,4.61-.82,9.06-2.11,9.92-5.5A23.36,23.36,0,0,0,194.11,295.08Zm-4.12.85c-1,.9-3.13,1.22-4.73,1.51-2,.38-4.16.65-6.3.84a112.48,112.48,0,0,1-12.75.41c-8.66-.16-17.39-.85-26-1.57-9-.73-17.92-1.69-26.75-3.27-4.48-.8-8.92-1.78-13.26-3a13.29,13.29,0,0,1-4.34-1.73c-1.71-1.29,0-2.45,1.57-3.13a116.1,116.1,0,0,1,12.07-2.45l1.06-.11c4.88-.54,9.86-.87,14.86-1q5.44-.15,10.93.06c3.4.2,6.8.5,10.22.86a210.2,210.2,0,0,1,25,3.8C174.72,287.93,193.81,292.57,190,295.93Z"/><path class="cls-1" d="M190,295.93c-1,.9-3.13,1.22-4.73,1.51-2,.38-4.16.65-6.3.84a112.48,112.48,0,0,1-12.75.41c-8.66-.16-17.39-.85-26-1.57-9-.73-17.92-1.69-26.75-3.27-4.48-.8-8.92-1.78-13.26-3a13.29,13.29,0,0,1-4.34-1.73c-1.71-1.29,0-2.45,1.57-3.13a116.1,116.1,0,0,1,12.07-2.45l1.06-.11c4.88-.54,9.86-.87,14.86-1q5.44-.15,10.93.06c3.4.2,6.8.5,10.22.86a210.2,210.2,0,0,1,25,3.8C174.72,287.93,193.81,292.57,190,295.93Z"/><path class="cls-1" d="M135.8,288c0-.45-.37-1-1.23-1.11a99.6,99.6,0,0,0-22.51-1.41c-1.86.1-3.7.25-5.51.46a18.33,18.33,0,0,0-4.81.82c-3,1.35,1.07,3.22,3.23,3.64a75.48,75.48,0,0,0,10.42.85,103.87,103.87,0,0,0,10.73.07c1.78-.09,3.55-.26,5.28-.51,1.41-.21,3.29-.36,4.25-1.1S136.41,288.41,135.8,288Z"/><path class="cls-1" d="M155.82,292.48c-2.6-1.18-5.4-2.19-8.09-3.27a13.11,13.11,0,0,0-4-1.21,5.82,5.82,0,0,0-3.25.81l-.42.24-.1,0c-1.36.51-2.69,1-4,1.62-1,.47-2.46,1-3.06,1.73s-.17,1.64.83,2.2c1.23.68,3,.72,4.45.89A165.28,165.28,0,0,0,158.38,297c.56,0,1.15-.41,1.13-.78C159.4,294.56,157.83,293.39,155.82,292.48Z"/><path class="cls-1" d="M184.81,292.65a28.39,28.39,0,0,0-6.93-2.11c-2.6-.57-5.24-1-7.88-1.44-3.19-.49-6.39-.89-9.59-1.28a42.09,42.09,0,0,0-8.81-.43,1.45,1.45,0,0,0-.92.4c-1.09.12-1.74,1.08-.52,1.6a87.69,87.69,0,0,0,14.56,4.48c4.89,1.13,10.21,2.58,15.32,2.8,2,.08,4.27,0,5.77-.92S186.38,293.47,184.81,292.65Z"/><path class="cls-1" d="M290.75,281.79a1,1,0,0,0-1-.5c0-.06-5.84-2.79-8.91-3.29a115.39,115.39,0,0,0-24.72-.89l-1,.05c-.21-.13-11,.6-16.08,1.32-4,.46-7.89,1.06-11.76,1.86a116.82,116.82,0,0,0-14.23,3.92,57.32,57.32,0,0,0-9.15,3.42c-.6.31-1.23.67-1.84,1.06l-.69.32a.87.87,0,0,0-.54.6,6,6,0,0,0-1.11,1.24.73.73,0,0,0-.36.48,18.57,18.57,0,0,0,.42,8.58c.73,2.44,1.58,5.17,5.51,6a57.29,57.29,0,0,0,12.7.78c4.65-.09,9.34-.3,14-.56,9.4-.51,18.8-1.32,28.09-2.68,8.34-1.22,17.33-2.64,24.92-5.53,3.95-1.5,7.67-3.38,7.86-6.53A21,21,0,0,0,290.75,281.79Zm-3.5,1.45c-.76,1-2.56,1.6-3.93,2.13-1.75.68-3.57,1.27-5.43,1.8a103.51,103.51,0,0,1-11.21,2.51c-7.69,1.31-15.54,2.16-23.31,3-8.05.85-16.15,1.51-24.22,1.6-4.1,0-8.2-.09-12.24-.4a12,12,0,0,1-4.13-.8c-1.72-.86-.4-2.17.87-3a105.48,105.48,0,0,1,10.27-4.19l.92-.28c4.23-1.29,8.58-2.42,13-3.37q4.78-1,9.69-1.78c3-.39,6.1-.7,9.18-.95a190.45,190.45,0,0,1,22.75-.84C272.4,278.72,290.07,279.62,287.25,283.24Z"/><path class="cls-1" d="M287.25,283.24c-.76,1-2.56,1.6-3.93,2.13-1.75.68-3.57,1.27-5.43,1.8a103.51,103.51,0,0,1-11.21,2.51c-7.69,1.31-15.54,2.16-23.31,3-8.05.85-16.15,1.51-24.22,1.6-4.1,0-8.2-.09-12.24-.4a12,12,0,0,1-4.13-.8c-1.72-.86-.4-2.17.87-3a105.48,105.48,0,0,1,10.27-4.19l.92-.28c4.23-1.29,8.58-2.42,13-3.37q4.78-1,9.69-1.78c3-.39,6.1-.7,9.18-.95a190.45,190.45,0,0,1,22.75-.84C272.4,278.72,290.07,279.62,287.25,283.24Z"/><path class="cls-1" d="M238,285.28c-.07-.4-.5-.79-1.28-.78A89.55,89.55,0,0,0,216.53,287q-2.43.6-4.8,1.33a17.14,17.14,0,0,0-4.11,1.53c-2.45,1.7,1.49,2.67,3.47,2.68a67.25,67.25,0,0,0,9.36-1,96.34,96.34,0,0,0,9.5-1.74c1.57-.38,3.11-.83,4.6-1.34,1.21-.43,2.84-.87,3.57-1.69S238.58,285.58,238,285.28Z"/><path class="cls-1" d="M256.44,285.92c-2.5-.61-5.15-1-7.71-1.53A11.47,11.47,0,0,0,245,284a5.21,5.21,0,0,0-2.74,1.26l-.33.28-.08,0c-1.12.68-2.21,1.37-3.25,2.1a8.13,8.13,0,0,0-2.42,2.05c-.38.73.13,1.47,1.11,1.8a11.38,11.38,0,0,0,4.08.05,152.25,152.25,0,0,0,18.13-2.13c.49-.09,1-.56.86-.88C260,287.16,258.37,286.39,256.44,285.92Z"/><path class="cls-1" d="M282.13,281.21a25.56,25.56,0,0,0-6.5-.71c-2.39-.06-4.8,0-7.21.05-2.9.1-5.8.29-8.7.48a38.08,38.08,0,0,0-7.87,1.09,1.38,1.38,0,0,0-.75.51c-.94.3-1.35,1.26-.19,1.51a79.87,79.87,0,0,0,13.64,1.52c4.52.18,9.47.57,14-.1a10.06,10.06,0,0,0,4.95-1.78C284.79,282.67,283.65,281.67,282.13,281.21Z"/><path class="cls-1" d="M188.78,299.05a212.4,212.4,0,0,1-74.84-.88c-3.39-.65-6.78-1.37-10.13-2.21a35.85,35.85,0,0,1-9.31-3.45,1,1,0,0,0-1,1.65c5.24,3,11.38,4.12,17.22,5.32q9.28,1.9,18.72,3a214.28,214.28,0,0,0,38.49.92c7.15-.47,14.26-1.32,21.32-2.5C190.49,300.69,190,298.85,188.78,299.05Z"/><path class="cls-1" d="M287.31,286.8c-20.39,8.54-42.65,11-64.6,10.87q-4.59,0-9.18-.21c-3.2-.12-6.42-.21-9.46-1.34-1.15-.43-1.65,1.42-.51,1.85a26.27,26.27,0,0,0,8,1.32c2.83.13,5.67.21,8.5.26,5.54.09,11.09,0,16.63-.26a170.73,170.73,0,0,0,33-4.65,126.93,126.93,0,0,0,18.12-6C288.94,288.17,288.45,286.32,287.31,286.8Z"/><ellipse class="cls-1" cx="192.02" cy="187.17" rx="117.13" ry="110.26"/><g class="cls-3"><ellipse class="cls-1" cx="192.02" cy="187.17" rx="117.13" ry="110.26"/><path class="cls-1" d="M292.34,240.25a2,2,0,0,1-1.2-.39,2.16,2.16,0,0,1-.78-2.23c.33-2,1.62-3.53,2.88-5a12.66,12.66,0,0,0,2.12-3l.05-.11a10.16,10.16,0,0,0,.56-2.91,1.21,1.21,0,0,1,.22-.58,6.26,6.26,0,0,1,1.86-1.87,1.35,1.35,0,0,1,.73-.21,1.31,1.31,0,0,1,.44.07,1.26,1.26,0,0,1,.8.82,11,11,0,0,1-.95,7.88,32.71,32.71,0,0,1-4.41,6.25A3.26,3.26,0,0,1,292.34,240.25Z"/><path class="cls-1" d="M215.27,99.84l-.41,0a3.14,3.14,0,0,1-2.59-2.64,1.05,1.05,0,0,1,0-.58,4.68,4.68,0,0,1,4.28-3h.26A2.34,2.34,0,0,1,219,95a2.24,2.24,0,0,1-.12,1.72C217.82,99.3,216.33,99.84,215.27,99.84Z"/><path class="cls-1" d="M211.43,106.85a1.39,1.39,0,0,1-.6-.14,1.21,1.21,0,0,1-.63-.72,18.78,18.78,0,0,1-.65-2.61,1.19,1.19,0,0,1,.08-.67,3.34,3.34,0,0,1,1.36-1.52,2.31,2.31,0,0,1,1.23-.35,2.73,2.73,0,0,1,2,.94,2.5,2.5,0,0,1,.68,2.09,4,4,0,0,1-3.1,2.93A1.74,1.74,0,0,1,211.43,106.85Z"/><path class="cls-1" d="M220.94,106.72a3.31,3.31,0,0,1-3.33-2.29,3.65,3.65,0,0,1,.07-1.61l.18-.89a1.07,1.07,0,0,1,.09-.27,6.57,6.57,0,0,1,5.72-3.74h0a4.12,4.12,0,0,1,3.75,1.85,3.43,3.43,0,0,1-.48,3.73,8.48,8.48,0,0,1-2.49,2,7.53,7.53,0,0,1-3.2,1.25Z"/><path class="cls-1" d="M254.31,266.12h-.25a5,5,0,0,1-3.77-2.05,8.69,8.69,0,0,1-1.23-7.27,30.88,30.88,0,0,1,1.07-3.07c.8-2.08,1.56-4,1.22-6a12.14,12.14,0,0,0-.6-1.93,10,10,0,0,1-.79-3.32c0-2.1,1-3.83,2.1-5.51.92-1.47,1.78-2.85,1.75-4.28a8.19,8.19,0,0,0-.45-2,11.61,11.61,0,0,1-.53-2.29c-.24-2.72,1.23-4.93,2.65-7.08a15.38,15.38,0,0,0,2.2-4.16c.78-2.91-.55-6-2-9.24-1.68-3.9-3.42-7.93-1.35-11.85.19-.36.41-.74.64-1.13,1-1.72,1.72-3.09,1-3.6a1.17,1.17,0,0,0-.75-.19,9,9,0,0,0-1.76.27,11.1,11.1,0,0,1-2.3.33,3.58,3.58,0,0,1-2.5-.88c-1.29-1.17-1.11-2.76-1-4a6.43,6.43,0,0,0,.07-1.55c-.21-1.51-2.13-2.41-3.87-2.41a5.07,5.07,0,0,0-.55,0,15.09,15.09,0,0,0-5.42,2.21l-1,.58a45,45,0,0,1-11,4.21,18.57,18.57,0,0,1-4.3.55c-3.18,0-5.56-1-6.89-3a9.53,9.53,0,0,1-1.31-3.74,14.81,14.81,0,0,0-.42-1.77,7.45,7.45,0,0,0-6.31-4.76l-.28,0a4.21,4.21,0,0,1-2.8-.93,3.62,3.62,0,0,1-1-2.29,27.19,27.19,0,0,1,2.42-14.82c.12-.27.25-.53.38-.8.8-1.63,1.55-3.18,1.31-4.66a9.27,9.27,0,0,0-.25-1,6.21,6.21,0,0,1-.36-2.3,6.5,6.5,0,0,1,1.52-3.29L215.87,136a22,22,0,0,1,4.37-4.85c3-2.28,6.88-3,10.28-3.64a64.27,64.27,0,0,1,11.38-1.29c5.63,0,9.93,1.35,13.15,4.11a27.6,27.6,0,0,1,2.23,2.23,15.78,15.78,0,0,0,3.06,2.81,5.41,5.41,0,0,0,2.78.8,2.65,2.65,0,0,0,2.28-1,3.75,3.75,0,0,0,.24-.44,4,4,0,0,1,1.17-1.52,2.89,2.89,0,0,1,1.7-.54c1.59,0,3,1.22,4.06,2.21l.15.13a6.24,6.24,0,0,0,4,1.53,4.68,4.68,0,0,0,2.11-.47,3.78,3.78,0,0,0,1.92-2.44,2.83,2.83,0,0,0-.39-2.42c-1.23-1.65-4-1.75-6.59-1.86l-1.3-.05c-2.29-.13-5.28-1.13-6.79-3.08a4.06,4.06,0,0,1-.41-4.43,4.71,4.71,0,0,1-2,.46l-.4,0a11.17,11.17,0,0,0,1,2.88,1.17,1.17,0,0,1-.42,1.51,1.36,1.36,0,0,1-.75.22,1.35,1.35,0,0,1-.91-.35l-10-9.39a6.47,6.47,0,0,0-3.69-1.81.74.74,0,0,0-.77.4.71.71,0,0,0,0,.65,5.22,5.22,0,0,0,2.95,2.1c3.81,1.29,5.67,3.43,5,5.71a4,4,0,0,1-4,2.53,5.15,5.15,0,0,1-1.53-.23,9.7,9.7,0,0,1-4.15-3.14l-.18-.19-3.8-4.2a4.38,4.38,0,0,0-2-1.54,1.84,1.84,0,0,0-.33,0c-1.34,0-2.72,1.84-3.63,3.06-3.13,4.2-8,6.91-12.29,6.91a9.73,9.73,0,0,1-4.34-1,8.75,8.75,0,0,1-4.92-8.39c.22-2.54,2.22-5.27,5.08-5.27a5.25,5.25,0,0,1,.56,0,9.47,9.47,0,0,1,2.24.7l.51.21a7.07,7.07,0,0,1-.75-5,3.6,3.6,0,0,1,2.16-2.32,6.52,6.52,0,0,1,2.19-.4,3.71,3.71,0,0,0,1.41-.25c.59-.35.7-1.29.8-2.68.12-1.63.27-3.66,2.21-4.6a3.37,3.37,0,0,1,1.05-.33,8.86,8.86,0,0,1-2.58-.94c-2.52-1.41-4.15-3.72-5.59-5.75a6.74,6.74,0,0,1-1.58-3.84c0-2,1.52-3.42,2.85-4.64a13.84,13.84,0,0,0,1.57-1.62,1.34,1.34,0,0,1,1.06-.52,1.32,1.32,0,0,1,.39.06A120,120,0,0,1,279.45,112a1.16,1.16,0,0,1,.29,1.13c-.64,2.31.68,5.24,3.2,7.14a11.14,11.14,0,0,0,5,2.09,1.4,1.4,0,0,1,.86.5,110.74,110.74,0,0,1,10,15.82,1.17,1.17,0,0,1-.26,1.4,1.33,1.33,0,0,1-.9.34,1.26,1.26,0,0,1-.6-.14l-2.18-1-.74-.36a2.51,2.51,0,0,0-.59-.22.72.72,0,0,0-.13.41,2.25,2.25,0,0,0,.91,1.24,16.66,16.66,0,0,0,5.4,2.55l.81.27a1.28,1.28,0,0,1,.75.67,106.1,106.1,0,0,1,5.11,13.75,1.12,1.12,0,0,1,0,.32A24.44,24.44,0,0,1,303.72,169c-.12.25-.26.5-.39.76a8.68,8.68,0,0,0-1.23,3.35,2.53,2.53,0,0,0,.67,1.82,1.26,1.26,0,0,0,.86.42h0a3.1,3.1,0,0,0,.57-.05,7.3,7.3,0,0,1,.87-.07h.12a4.33,4.33,0,0,1,4,4.22,4.84,4.84,0,0,1-.23,1.92,12,12,0,0,1-2.77,4.11c-.35.38-.7.77-1,1.16-2,2.47-3.12,5.54-4.2,8.51-2.57,7.07-5.22,14.38-5.1,21.92,0,.88.06,1.77.11,2.66.16,2.91.32,5.92-.63,8.69a10.72,10.72,0,0,1-1.13,2.33c-1.59,2.46-4.1,4-6.52,5.49a23.23,23.23,0,0,0-4.83,3.53,21.94,21.94,0,0,0-2.34,3.18c-.34.53-.69,1.05-1.05,1.57-3.23,4.64-7.78,8.17-12.19,11.58-2.78,2.15-5.57,4.09-9,4.1h-.95c-.69,0-1.08.07-1.19.22s.09.83.25,1.3l.18.56a3.4,3.4,0,0,1-.51,3A2.25,2.25,0,0,1,254.31,266.12Zm41.3-104a6.63,6.63,0,0,1,.36.87,11.31,11.31,0,0,1,.38,1.61,8.15,8.15,0,0,0,.27,1.24,1.72,1.72,0,0,0,1,1.24h.1a.94.94,0,0,0,.65-.39,1.67,1.67,0,0,0,.37-1.42c-.32-1.19-1.59-2.12-2.87-3Zm-11.05-16.87c0,1.73.44,2.86,1.32,3.56a7.68,7.68,0,0,0,.89.56,11.84,11.84,0,0,1,1.07.68,9.52,9.52,0,0,1,3,4.67c.24.64.48,1.27.76,1.84a10.91,10.91,0,0,1,.6-3.53,7.31,7.31,0,0,0,.48-3.79,2,2,0,0,0-1.6-1.41.84.84,0,0,0-.27,0,3.61,3.61,0,0,0-.75.44,4.15,4.15,0,0,1-2.28.86l-.41,0c-1.89-.27-2.3-2-2.57-3.18C284.7,145.72,284.64,145.47,284.56,145.23Zm-14.7-33a1.45,1.45,0,0,0-.3,0c-1.06.24-1.54,1.75-1.64,3,0,.31,0,.62-.05.93a9.36,9.36,0,0,1-.68,3.71,20,20,0,0,1,1.83-1,9.52,9.52,0,0,0,2.55-1.71,3.14,3.14,0,0,0-.24-4.24A2.25,2.25,0,0,0,269.86,112.2Zm-36.53-14a10.44,10.44,0,0,1,2.56,1.39,11.34,11.34,0,0,0,1.71,1,3,3,0,0,0,1.17.23,3.47,3.47,0,0,0,3.21-2,2.8,2.8,0,0,0-.28-2.4,3.16,3.16,0,0,0-2-1.55q-.34-.08-.69-.12a7,7,0,0,1-1.59-.38l.43.6a1.16,1.16,0,0,1-.14,1.52A6.32,6.32,0,0,1,233.33,98.25Zm1.79-7a7.91,7.91,0,0,1,0-1.54,3.22,3.22,0,0,0-.92.25Z"/><path class="cls-1" d="M134,282.86a7.8,7.8,0,0,1-3.81-1,7.34,7.34,0,0,1-3.71-5,13.24,13.24,0,0,1-.11-2.15,10.62,10.62,0,0,0,0-1.61c-.26-1.92-1.65-3.68-3-5.38l-.34-.43a70.6,70.6,0,0,1-12.41-24.15c-.51-1.75-1-3.56-1.39-5.3-1.51-6.09-3.07-12.38-7.21-17.08a40.77,40.77,0,0,0-3.9-3.72,36.88,36.88,0,0,1-4.79-4.73c-3.53-4.47-5.07-10.79-4.33-17.79a75.62,75.62,0,0,1,3.32-14c.35-1.14.7-2.29,1-3.44.53-1.81.48-3.71-.12-4.62a1.27,1.27,0,0,0-.91-.59,2.21,2.21,0,0,0-.39,0c-.3,0-.6,0-.9.06a10.39,10.39,0,0,1-1.13.07,3.41,3.41,0,0,1-2.34-.77c-1.26-1.09-1-2.61-.8-3.73a3.76,3.76,0,0,0,.08-1.64,3.31,3.31,0,0,0-1.12-1.15,5.83,5.83,0,0,1-1.79-2,5.19,5.19,0,0,1-.13-3.38,6.27,6.27,0,0,0,.18-1.53c-.09-1.21-1.19-2.27-2.34-3.38-.31-.3-.62-.6-.91-.9a8.5,8.5,0,0,1-1-1.21,1.18,1.18,0,0,1-.12-1c13.4-36.88,46.83-64.87,87.25-73.05a1.24,1.24,0,0,1,.27,0,1.31,1.31,0,0,1,1.09.56c.67,1,1.34,2,2,2.92a1.16,1.16,0,0,1,0,1.36,1.31,1.31,0,0,1-1.06.52,1.33,1.33,0,0,1-.28,0,.86.86,0,0,0-.22,0c-.75,0-1.62,1-2.61,3-.86,1.71-2.75,3.44-4.71,3.44a3.08,3.08,0,0,1-2.1-.82,4.31,4.31,0,0,1-1.09-1.82,2.88,2.88,0,0,0-.4-.86c-.08-.09-.33-.38-1.15-.38a6.79,6.79,0,0,0-2,.38c-1.16.38-2.31.81-3.43,1.28a5.36,5.36,0,0,1,1-.09,4.91,4.91,0,0,1,2.07.45,1.19,1.19,0,0,1,.68.79,1.13,1.13,0,0,1-.19,1,5.47,5.47,0,0,0-.65,1.15,7.92,7.92,0,0,0,2.06-1.89,1.31,1.31,0,0,1,1.44-.46,5.34,5.34,0,0,1,3.72,4.63,5.19,5.19,0,0,1-2.54,5.29,11.67,11.67,0,0,1-1.21.55,3.45,3.45,0,0,0-1.43.81c-.35.48-.2,1.22.11,2.38a5.73,5.73,0,0,1,.06,3.92,3.61,3.61,0,0,1-3.41,2,3.71,3.71,0,0,1-3.78-2.56,5.52,5.52,0,0,1-.09-1.54,4.09,4.09,0,0,0,0-.88c-.18-.82-1.3-1.31-2.27-1.31l-.35,0a7.48,7.48,0,0,0-2.93,1.22,8.94,8.94,0,0,0,2.3,1.8,1.22,1.22,0,0,1,.64,1,4,4,0,0,1-1.29,2.91,4.93,4.93,0,0,1-3.37,1.37,4.09,4.09,0,0,1-1.26-.19,7.53,7.53,0,0,1-1.61-.77,5.84,5.84,0,0,0-1.1-.54,2,2,0,0,0-.55-.08,4.78,4.78,0,0,0-3.33,2.15c-.31.42-.6.86-.89,1.3a11.42,11.42,0,0,1-3.35,3.7,16.27,16.27,0,0,1-3.31,1.42c-2.33.81-3.43,1.31-3.47,2.35A5,5,0,0,0,124,122c1,1.41,2.12,3.16.83,5a3.28,3.28,0,0,1-2.77,1.35,10.72,10.72,0,0,1-3.85-1c-.54-.22-1-.43-1.51-.58a4.75,4.75,0,0,0-1.43-.23c-3.52,0-6.62,4-7.21,7.65l-.07.48A7.43,7.43,0,0,1,106.8,138a4.06,4.06,0,0,1-3.16,1.58,3,3,0,0,1-2.06-.78,1.16,1.16,0,0,1-.33-1.22c.4-1.2,1.52-5.22-.8-6.52a2.48,2.48,0,0,0-1.23-.32,5.83,5.83,0,0,0-4.47,3.1A21.52,21.52,0,0,0,93.42,137a16.63,16.63,0,0,1-2.54,5c-.36.45-.76.85-1.14,1.24a7.68,7.68,0,0,0-1.58,2,1.83,1.83,0,0,0,0,1.57h0a6.41,6.41,0,0,1,3.85-1.69,3.15,3.15,0,0,1,2.27.92c2,2,.12,4.41-1.25,6.17-1.26,1.6-1.78,2.42-1.36,2.74a3,3,0,0,0,1.13.27,5.38,5.38,0,0,1,2.1.55,3.16,3.16,0,0,1,1.55,2c.53,2-.71,4.1-1.1,4.7-.92,1.42-1.76,3-1.11,3.78a1,1,0,0,0,.9.41,7.7,7.7,0,0,0,4.09-2,8.89,8.89,0,0,1,5.27-2.05,3.38,3.38,0,0,1,3.47,2.24,5.57,5.57,0,0,1,.14,2.24c0,.39-.09,1.12,0,1.21a.29.29,0,0,0,.12,0,4.46,4.46,0,0,0,1.22-.34l.22-.08a9,9,0,0,1,3.07-.52c5,0,9.62,3.75,10.08,8.2,0,.16,0,.32,0,.49a2.69,2.69,0,0,0,.29,1.32c.13.18.34.36,1.08.36a12.24,12.24,0,0,0,1.59-.15,14.72,14.72,0,0,1,2-.18h.23c4.23.13,6.15,3.91,7.84,7.25.33.63.64,1.25,1,1.84,2.85,5.09,8.72,8.44,13.43,11.13a7.32,7.32,0,0,0,3.3,1.26h.12a7.62,7.62,0,0,0,1.14-.18,8.23,8.23,0,0,1,1.8-.25,4.4,4.4,0,0,1,.62,0c2,.27,3.18,1.8,4.15,3l.4.51a3.5,3.5,0,0,0,2.19,1.37.66.66,0,0,0,.39-.11,1.42,1.42,0,0,1,.72-.2,1.33,1.33,0,0,1,.72.2,3.81,3.81,0,0,1,1.72,2.55,5.84,5.84,0,0,1-1.16,4.5,16.36,16.36,0,0,1-2.39,2.39,15.82,15.82,0,0,0-2,1.93c-1.67,2.14-1.83,5-2,8,0,.53-.06,1.06-.1,1.58-.38,5.17-2.32,8.64-5.6,10a15.13,15.13,0,0,1-4.54.9c-2,.19-3.68.35-4.63,1.46s-.79,2.91-.62,4.8c.22,2.36.47,5-1.68,6.83a9.54,9.54,0,0,1-2.09,1.23c-1,.47-1.65.8-1.77,1.28a3.21,3.21,0,0,0,.1,1.18,3.54,3.54,0,0,1-.37,3,4.09,4.09,0,0,1-3,1.31,4.55,4.55,0,0,0-1.17.23c-.79.36-1,1.5-1.22,3.09l-.09.64a5.33,5.33,0,0,1-2.83,4,60.57,60.57,0,0,1,5.08,17.23,1.19,1.19,0,0,1-.29.93,1.3,1.3,0,0,1-.91.44ZM147.64,89.3a45.22,45.22,0,0,0-6.48,4.11,7.71,7.71,0,0,0,4.17-2.17A25.48,25.48,0,0,1,147.64,89.3Z"/></g><path class="cls-1" d="M87.54,221.48a.89.89,0,0,0-.24-.42l-.4-.4a.79.79,0,0,0-.31-.2.77.77,0,0,0-.37-.08.8.8,0,0,0-.37.08.75.75,0,0,0-.3.2l-.15.19a.92.92,0,0,0-.13.49l0,.25a1,1,0,0,0,.25.42l.39.4a.79.79,0,0,0,.31.2.69.69,0,0,0,.37.08.67.67,0,0,0,.37-.08.79.79,0,0,0,.31-.2l.15-.19a1,1,0,0,0,.13-.48C87.57,221.65,87.55,221.57,87.54,221.48Z"/><path class="cls-1" d="M91.83,234l-.15-.19-.1-.08a.48.48,0,0,0,0-.17.66.66,0,0,0-.11-.35.72.72,0,0,0-.25-.27.76.76,0,0,0-.32-.17l-.26,0a.91.91,0,0,0-.48.13L90,233a.94.94,0,0,0-.25.42l0,.12a1.5,1.5,0,0,0,0,.37c0,.11,0,.21,0,.31s0,0,0,.06a1.73,1.73,0,0,0,.14.34l.06.12a2.83,2.83,0,0,0,.23.28,2.09,2.09,0,0,0,.28.22l0,0,.29.12a.82.82,0,0,0,.38,0,.7.7,0,0,0,.35-.12.64.64,0,0,0,.27-.24.75.75,0,0,0,.17-.33l0-.25A1,1,0,0,0,91.83,234Z"/><path class="cls-1" d="M95.47,223.36a.79.79,0,0,0-.2-.31.67.67,0,0,0-.31-.19.74.74,0,0,0-.36-.09l-.26,0a.89.89,0,0,0-.42.24l-.15.2a.91.91,0,0,0-.13.48v.4a.69.69,0,0,0,.08.37.75.75,0,0,0,.2.3.69.69,0,0,0,.31.2.65.65,0,0,0,.37.08l.25,0a1,1,0,0,0,.42-.25l.15-.19a.91.91,0,0,0,.13-.48v-.4A.67.67,0,0,0,95.47,223.36Z"/><path class="cls-1" d="M108.15,153.79a1,1,0,0,0,0,1.92A1,1,0,0,0,108.15,153.79Z"/><path class="cls-1" d="M113.33,142.23a1,1,0,0,0,0,1.91A1,1,0,0,0,113.33,142.23Z"/><path class="cls-1" d="M117.72,154.59a1,1,0,0,0,0,1.91A1,1,0,0,0,117.72,154.59Z"/><path class="cls-1" d="M243.2,255a.79.79,0,0,0-.31-.2.8.8,0,0,0-.37-.08,1,1,0,0,0-.68.28,1,1,0,0,0-.28.68v1.19a1,1,0,0,0,.28.68.79.79,0,0,0,.31.2.77.77,0,0,0,.37.08,1,1,0,0,0,.68-.28,1,1,0,0,0,.28-.68v-1.19A1,1,0,0,0,243.2,255Z"/><path class="cls-1" d="M242.92,266.23a1,1,0,0,0,0,1.92A1,1,0,0,0,242.92,266.23Z"/><path class="cls-1" d="M235.74,262.64a1,1,0,0,0,0,1.92A1,1,0,0,0,235.74,262.64Z"/><path class="cls-1" d="M245.31,245.1a1,1,0,0,0,0,1.91A1,1,0,0,0,245.31,245.1Z"/><path class="cls-1" d="M299.14,208.42a1,1,0,0,0,0,1.91A1,1,0,0,0,299.14,208.42Z"/><path class="cls-1" d="M303.92,198.05a1,1,0,0,0,0,1.91A1,1,0,0,0,303.92,198.05Z"/><path class="cls-1" d="M302.33,208a1,1,0,0,0,0,1.91A1,1,0,0,0,302.33,208Z"/><path class="cls-1" d="M264.17,263.35A.65.65,0,0,0,264,263a.67.67,0,0,0-.26-.24l-.23-.1a.89.89,0,0,0-.51,0l-.23.1a.86.86,0,0,0-.34.34c-.14.26-.27.53-.4.8a.73.73,0,0,0-.12.35.81.81,0,0,0,0,.38.74.74,0,0,0,.17.33.78.78,0,0,0,.27.24l.23.1a.89.89,0,0,0,.51,0l.23-.1a1,1,0,0,0,.34-.34c.13-.26.27-.53.4-.8a.63.63,0,0,0,.11-.35A.7.7,0,0,0,264.17,263.35Z"/><path class="cls-1" d="M270.83,253.87a1,1,0,0,0,0,1.92A1,1,0,0,0,270.83,253.87Z"/><path class="cls-1" d="M292.23,194.77q-1.77,7.77-3.52,15.56c-.28,1.2,1.57,1.71,1.84.51q1.76-7.78,3.52-15.57C294.34,194.08,292.5,193.56,292.23,194.77Z"/><path class="cls-1" d="M286.93,197.52q-2.12,6.4-4.24,12.81c-.39,1.17,1.46,1.67,1.85.5q2.11-6.39,4.24-12.8C289.17,196.86,287.32,196.35,286.93,197.52Z"/><path class="cls-1" d="M118.07,245.62a52.14,52.14,0,0,1-5.78-19.5c-.11-1.21-2-1.23-1.91,0a54.4,54.4,0,0,0,6,20.46C117,247.67,118.64,246.71,118.07,245.62Z"/><path class="cls-1" d="M80.79,178a32.54,32.54,0,0,0-.63,11,1,1,0,1,0,1.91,0,31.33,31.33,0,0,1,.56-10.53C82.9,177.3,81.06,176.79,80.79,178Z"/><path class="cls-1" d="M215.54,150.53a62.16,62.16,0,0,0-4.76,9.16c-.66,1.58-1.26,3.18-1.77,4.81a7.56,7.56,0,0,0-.2,4.9c.42,1.15,2.27.65,1.84-.5-.56-1.53-.08-3,.41-4.52s1.08-3.07,1.73-4.56a59,59,0,0,1,4.4-8.32C217.85,150.46,216.2,149.5,215.54,150.53Z"/><path class="cls-1" d="M218.45,154.19A40,40,0,0,0,212,170.84c-.17,1.2,1.67,1.72,1.85.5a38.75,38.75,0,0,1,6.22-16.19C220.79,154.13,219.13,153.17,218.45,154.19Z"/><path class="cls-1" d="M122.24,241.54a29.47,29.47,0,0,1-2.61-13.44c.05-1.23-1.86-1.22-1.91,0a31.46,31.46,0,0,0,2.87,14.4C121.1,243.62,122.75,242.65,122.24,241.54Z"/><path class="cls-1" d="M319.75,93.91c-.14,3.62-2.6,7.08-6.43,9-3.22,1.65-6.85,2.08-10.05,2.47Q239.85,113,176.44,120.57a15.37,15.37,0,0,1-8,10.08,24.67,24.67,0,0,1-11.35,2.41,51.21,51.21,0,0,1-6-.39c-22.8-2.64-45.6-13.77-67.74-33.07A79.42,79.42,0,0,1,70.21,85.71a36.26,36.26,0,0,1-6.89-18.17A20,20,0,0,1,63.69,62v0a12.61,12.61,0,0,1,2.48-5.28c2.44-3,6.47-4.67,12.29-5.18a56.79,56.79,0,0,1,26.92,4.22c16.49,2.14,32.67-1.76,49.8-5.89,13.44-3.24,27.33-6.59,41.28-6.68H197c25.51,0,49.93,10.83,71.49,20.4L308,81.06c2.75,1.23,10.65,4.72,11.62,11.18A8.38,8.38,0,0,1,319.75,93.91Z"/><path class="cls-1" d="M181.56,142.62s3.71,24.39-51.43,6S62.19,93.33,62.19,93.33c-2.69-22.65,1.31-31,1.5-31.36a20,20,0,0,0-.37,5.57,36.29,36.29,0,0,0,6.89,18.18A79.77,79.77,0,0,0,83.33,99.61c22.14,19.3,44.94,30.43,67.74,33.07a53.45,53.45,0,0,0,6,.39,24.8,24.8,0,0,0,11.35-2.41,15.35,15.35,0,0,0,8-10.08Z"/><path class="cls-1" d="M319.65,92.24c2.19,7.68,7.83,31.5-5.08,35.3-15.43,4.55-133,15.08-133,15.08l-5.13-22,126.83-15.16c3.2-.38,6.84-.81,10.06-2.47,3.82-2,6.29-5.42,6.42-9A8.44,8.44,0,0,0,319.65,92.24Z"/><path class="cls-1" d="M181.55,122.06c-.12-1.22-2-1.23-1.92,0,.62,6.61,1.44,13.28.91,19.92-.09,1.23,1.82,1.23,1.92,0C183,135.34,182.16,128.67,181.55,122.06Z"/><path class="cls-1" d="M161.91,148.21a1,1,0,0,0,0,1.92A1,1,0,0,0,161.91,148.21Z"/><path class="cls-1" d="M170.15,146.62a1,1,0,0,0,0,1.91A1,1,0,0,0,170.15,146.62Z"/><path class="cls-1" d="M165.63,139.71a1,1,0,0,0,0,1.91A1,1,0,0,0,165.63,139.71Z"/><path class="cls-1" d="M77.77,107.71a1,1,0,0,0-.25-.42l-.19-.15a1,1,0,0,0-.48-.13h-.27a.8.8,0,0,0-.37.08.9.9,0,0,0-.5.51.67.67,0,0,0-.08.37l0,.25a.94.94,0,0,0,.25.42l.19.15a.91.91,0,0,0,.48.13h.27a.69.69,0,0,0,.37-.08.66.66,0,0,0,.3-.2.61.61,0,0,0,.2-.3.69.69,0,0,0,.08-.37Z"/><path class="cls-1" d="M85.62,107.54a1,1,0,0,0,0,1.92A1,1,0,0,0,85.62,107.54Z"/><path class="cls-1" d="M87.07,118.08a.89.89,0,0,0-.24-.42l-.2-.15a.91.91,0,0,0-.48-.13h-.26a.65.65,0,0,0-.37.08A.87.87,0,0,0,85,118a.64.64,0,0,0-.08.36l0,.26a1,1,0,0,0,.25.42l.19.15a.92.92,0,0,0,.49.13h.26a.67.67,0,0,0,.37-.08.79.79,0,0,0,.31-.2.67.67,0,0,0,.19-.31.75.75,0,0,0,.09-.37Z"/><path class="cls-1" d="M108.77,103.5l-.15-.2a1,1,0,0,0-.42-.24l-.25,0a1,1,0,0,0-.49.14l-.53.26a.63.63,0,0,0-.26.25.68.68,0,0,0-.18.32.7.7,0,0,0,0,.38.66.66,0,0,0,.11.36l.15.19a1,1,0,0,0,.42.25l.26,0a.91.91,0,0,0,.48-.13l.53-.26a.81.81,0,0,0,.27-.25.76.76,0,0,0,.17-.32.74.74,0,0,0,0-.39A.77.77,0,0,0,108.77,103.5Z"/><path class="cls-1" d="M124.43,117.91a1,1,0,0,0,0,1.91A1,1,0,0,0,124.43,117.91Z"/><path class="cls-1" d="M134.34,113.18a.79.79,0,0,0-.2-.31.67.67,0,0,0-.31-.19.74.74,0,0,0-.36-.09l-.26,0a1,1,0,0,0-.42.24l-.15.2a.91.91,0,0,0-.13.48v.27a.64.64,0,0,0,.08.36.72.72,0,0,0,.2.31.69.69,0,0,0,.31.2.65.65,0,0,0,.37.08l.25,0a1,1,0,0,0,.42-.25l.15-.19a.91.91,0,0,0,.13-.48v-.27A.69.69,0,0,0,134.34,113.18Z"/><path class="cls-1" d="M118.58,108.61a1,1,0,0,0,0,1.91A1,1,0,0,0,118.58,108.61Z"/><path class="cls-1" d="M111.67,110.2a1,1,0,0,0,0,1.91A1,1,0,0,0,111.67,110.2Z"/><path class="cls-1" d="M107.81,67.31a1,1,0,0,0-.25-.42l-.27-.27a.6.6,0,0,0-.3-.19.81.81,0,0,0-.37-.09.78.78,0,0,0-.37.09.67.67,0,0,0-.31.19l-.15.2a1,1,0,0,0-.13.48c0,.08,0,.17,0,.25a.88.88,0,0,0,.24.43l.27.26a.72.72,0,0,0,.31.2.64.64,0,0,0,.36.08.65.65,0,0,0,.37-.08.79.79,0,0,0,.31-.2l.15-.19a.92.92,0,0,0,.13-.49Z"/><path class="cls-1" d="M119.38,62.89a1,1,0,0,0,0,1.91A1,1,0,0,0,119.38,62.89Z"/><path class="cls-1" d="M118.31,74.32a1,1,0,0,0,0,1.91A1,1,0,0,0,118.31,74.32Z"/><path class="cls-1" d="M131.34,65.55a1,1,0,0,0,0,1.91A1,1,0,0,0,131.34,65.55Z"/><path class="cls-1" d="M207.63,87.87a1,1,0,0,0,0,1.92A1,1,0,0,0,207.63,87.87Z"/><path class="cls-1" d="M220.41,80.64l-.15-.19a.86.86,0,0,0-.42-.25l-.25,0a.89.89,0,0,0-.48.13l-.54.26a.63.63,0,0,0-.26.25.68.68,0,0,0-.18.32.7.7,0,0,0,0,.38.66.66,0,0,0,.11.36l.15.19a1,1,0,0,0,.42.25l.26,0a.91.91,0,0,0,.48-.13l.53-.26a.81.81,0,0,0,.27-.25.76.76,0,0,0,.17-.32.74.74,0,0,0,0-.39A.77.77,0,0,0,220.41,80.64Z"/><path class="cls-1" d="M224.37,87.08a1,1,0,0,0,0,1.91A1,1,0,0,0,224.37,87.08Z"/><path class="cls-1" d="M214.27,95.05a1,1,0,0,0,0,1.91A1,1,0,0,0,214.27,95.05Z"/><path class="cls-1" d="M257.07,99a1,1,0,0,0,0,1.91A1,1,0,0,0,257.07,99Z"/><path class="cls-1" d="M280.85,95.75a1,1,0,0,0-.25-.42l-.19-.15a.91.91,0,0,0-.48-.13h-.8a.8.8,0,0,0-.37.08.79.79,0,0,0-.31.2.67.67,0,0,0-.19.31.78.78,0,0,0-.09.37l0,.25a1,1,0,0,0,.24.42l.2.15a.91.91,0,0,0,.48.13h.8a.69.69,0,0,0,.37-.08.92.92,0,0,0,.5-.5.69.69,0,0,0,.08-.37Z"/><path class="cls-1" d="M269.3,88.67a1,1,0,0,0,0,1.91A1,1,0,0,0,269.3,88.67Z"/><path class="cls-1" d="M287.9,84.42a1,1,0,0,0,0,1.91A1,1,0,0,0,287.9,84.42Z"/><path class="cls-1" d="M294,95.32a1,1,0,0,0,0,1.91A1,1,0,0,0,294,95.32Z"/><path class="cls-1" d="M315.79,109a1,1,0,0,0-1-1,1,1,0,0,0-1,1,113.61,113.61,0,0,1,.74,12.5,1,1,0,0,0,1.91,0A116.12,116.12,0,0,0,315.79,109Z"/><path class="cls-1" d="M310.63,114.08a1,1,0,0,0-1.92,0,52.35,52.35,0,0,1-.14,7.72,1,1,0,1,0,1.92,0A53.76,53.76,0,0,0,310.63,114.08Z"/><path class="cls-1" d="M190.09,134a45.7,45.7,0,0,1-.81-9.55,1,1,0,0,0-1.91,0,49.26,49.26,0,0,0,.87,10.06,1,1,0,0,0,1.18.67A1,1,0,0,0,190.09,134Z"/><path class="cls-1" d="M194.43,126.31a1,1,0,0,0-1.91,0l.27,5.32a1,1,0,0,0,1.91,0Z"/><path class="cls-1" d="M302.14,82.1a191.47,191.47,0,0,0-17.41-8.16c-6.13-2.63-12.33-5.08-18.56-7.45-12.6-4.77-25.29-9.31-38-13.94-6.44-2.35-12.84-4.84-19.34-7a50.5,50.5,0,0,0-9.61-2.35,38.91,38.91,0,0,0-9.94.13c-6.61.85-13.15,2.39-19.65,3.85s-13.05,3-19.58,4.45c-12.79,2.82-25.71,5.3-38.81,5.92a157.14,157.14,0,0,1-18.16-.43c-5.34-1.06-10.89-1.72-15.94.8a14,14,0,0,0-2.91,2c-1.09.69-3.91,9.69-3.51,12.12,1.8,10.92,9.62,19.83,17.55,27a138.93,138.93,0,0,0,28.07,19.67A141.75,141.75,0,0,0,132,125.71a88.37,88.37,0,0,0,16.82,5c6.31,1.06,13.15.76,18.43-3.25,3.93-3,6.64-7.52,6.46-12.43l80.58-8.24,20.82-2.12c6.34-.65,12.78-1,19.05-2.2a35.47,35.47,0,0,0,8.61-2.64c2.49-1.14,5.19-2.73,6.36-5.33C311.54,89.14,306.41,84.45,302.14,82.1Zm3,11.37c-1.49,2-4.42,3-6.66,3.81-5.59,1.88-11.6,2.19-17.42,2.79L261,102.12l-79.58,8.14-9.91,1a2,2,0,0,0-1.93,2.53c.92,4.12-1.54,8.17-4.78,10.55-4.07,3-9.37,3.33-14.22,2.62A78.87,78.87,0,0,1,135,122.6a131.82,131.82,0,0,1-14-6A134.52,134.52,0,0,1,95.5,99.91C88,93.72,80.37,86.6,76.54,77.48c-1.86-4.42-3.65-10.66.19-14.42,3-1.74,6.52-2.19,10-2.23,1.89,0,3.79.07,5.68.19l1.47.3a1.9,1.9,0,0,0,1.26-.12c2.71.2,5.42.41,8.13.45,12.64.19,25.24-1.6,37.62-4,12.57-2.47,25-5.65,37.54-8.28,6.36-1.33,12.9-2.89,19.44-2.31,6.26.55,12.26,3.16,18.11,5.3l37.1,13.56c12,4.41,24,8.89,35.71,14.19q4.33,2,8.58,4.07a23.65,23.65,0,0,1,6.55,4.18C305.28,89.69,306.49,91.67,305.12,93.47Z"/><path class="cls-1" d="M174.31,53.82c.53,3.7,1.07,7.4,1.58,11.09q1.35,9.77,2.63,19.53a1.35,1.35,0,0,0,1.3,1.29,1.3,1.3,0,0,0,1.29-1.29q-2-15.45-4.25-30.88C176,53.68,175.17,53.77,174.31,53.82Z"/><path class="cls-1" d="M206.48,44.36c-2.95,6.36-8.67,11.38-14.78,14.63a50.9,50.9,0,0,1-19.8,5.55c-7.68.61-16-.11-22.65-4.37-5.82-3.75-9.79-10-9.46-17A22.19,22.19,0,0,1,142,34.63c.05-.13.08-.27.13-.41,2.78-7.42,10.57-11.43,17.42-14.39,7.31-3.17,15.35-5.2,23.37-4.38a31.49,31.49,0,0,1,18.8,8.28,21.59,21.59,0,0,1,5.9,9.42A15.89,15.89,0,0,1,206.48,44.36Z"/><path class="cls-1" d="M165,52.59a11.06,11.06,0,0,1-8.46,5.59c-3.61.32-7-1.77-9.21-4.44-.21-.24-.39-.5-.58-.74A13.33,13.33,0,0,1,144,48.91,16.85,16.85,0,0,1,144.09,36a9.8,9.8,0,0,1,7.58-6.22,11.71,11.71,0,0,1,9.38,2.69C166.55,37,168.57,46.3,165,52.59Z"/><path class="cls-1" d="M171.42,23l-.54-3.5c-1-6.6-.85-6-1.95-12.57-.27-1.63-2.76-.94-2.49.69,1.28,7.69,1.25,8.16,2.45,15.86C169.73,23.31,170.58,23.15,171.42,23Z"/><path class="cls-1" d="M194.07,22.89a1.44,1.44,0,0,0,0,2.87A1.44,1.44,0,0,0,194.07,22.89Z"/><path class="cls-1" d="M201.23,31.75a1.33,1.33,0,0,0-.76-.76,1,1,0,0,0-.55-.12l-.38.05a1.42,1.42,0,0,0-.64.37l-.22.29a1.39,1.39,0,0,0-.2.72v.27a1.17,1.17,0,0,0,.13.55,1.06,1.06,0,0,0,.29.46,1.12,1.12,0,0,0,.47.3,1,1,0,0,0,.55.12l.38,0a1.44,1.44,0,0,0,.63-.37l.23-.29a1.39,1.39,0,0,0,.19-.72V32.3A1,1,0,0,0,201.23,31.75Z"/><path class="cls-1" d="M195.4,40.7a1.44,1.44,0,0,0,0,2.87A1.44,1.44,0,0,0,195.4,40.7Z"/><path class="cls-1" d="M191.15,31.93a1.44,1.44,0,0,0,0,2.87A1.44,1.44,0,0,0,191.15,31.93Z"/><path class="cls-1" d="M184.77,37a1.44,1.44,0,0,0,0,2.87A1.44,1.44,0,0,0,184.77,37Z"/><path class="cls-1" d="M188.22,46.55a1.44,1.44,0,0,0,0,2.87A1.44,1.44,0,0,0,188.22,46.55Z"/><path class="cls-1" d="M195.67,48.68a1.43,1.43,0,0,0,0,2.86A1.43,1.43,0,0,0,195.67,48.68Z"/><path class="cls-1" d="M202.84,38.84a1.44,1.44,0,0,0,0,2.87A1.44,1.44,0,0,0,202.84,38.84Z"/><path class="cls-1" d="M161.32,43a22.88,22.88,0,0,0-2.71-6.18A8.64,8.64,0,0,0,154,32.94a5.41,5.41,0,0,0-6,2,7.22,7.22,0,0,0-1.3,3.71,15.09,15.09,0,0,0,1.08,9.85c1.64,3.65,5.85,6.52,9.86,4.73S162.28,46.71,161.32,43ZM157,50.25c-2.47,1.81-5.41-.5-6.54-2.72a12.83,12.83,0,0,1-1.18-4.19,1.14,1.14,0,0,0,.39-1,17.75,17.75,0,0,1-.12-3.38,6.23,6.23,0,0,1,.58-1.19,1.23,1.23,0,0,0,.11-1.23,2.27,2.27,0,0,1,2.49-1,5.23,5.23,0,0,1,3.34,2.55,21.62,21.62,0,0,1,2.14,4.44C159.05,45.05,159.41,48.48,157,50.25Z"/><path class="cls-4" d="M312.84,300s11.59,15.31,0,26.8-135.76,25.47-135.76,25.47l-7.43-22.83,67.73-11.09q33-5.39,65.93-10.79C309.4,306.5,312.87,303.75,312.84,300Z"/><path class="cls-4" d="M169.65,329.39l7.43,22.83s-5.52,14.9-32.44,14.36-82.71-33.74-87.19-52.75,3.24-28,3.24-28c-1,3.75-.13,8.09,2.49,11.92,2.29,3.37,5.58,6,8.21,8.08,19.62,15.63,41.2,30.88,66.07,36.61a49.84,49.84,0,0,0,11.22,1.47,26.71,26.71,0,0,0,9.58-1.63C164.09,340,168.6,334.87,169.65,329.39Z"/><path class="cls-5" d="M312.84,299.94c0,3.8-3.43,6.56-9.53,7.56q-33,5.42-65.93,10.8l-67.73,11.09c-1.05,5.47-5.56,10.64-11.38,12.86a26.8,26.8,0,0,1-9.59,1.63,50.62,50.62,0,0,1-11.22-1.46c-24.87-5.73-46.45-21-66.07-36.61-2.63-2.1-5.92-4.72-8.21-8.08-2.62-3.83-3.53-8.18-2.49-11.92,1.61-5.71,7.66-9.78,16.18-10.89a51,51,0,0,1,29.4,5l80.59-14.23c13.19-2.33,28.15-5,42.45-2.36,9.5,1.74,18.42,5.73,27,9.57,4.27,1.91,8.69,3.88,13.09,5.55,4.13,1.55,8.45,2.9,12.63,4.21,8.65,2.72,17.59,5.53,25.56,10.29C308.9,293.72,312.81,296.05,312.84,299.94Z"/><path class="cls-6" d="M173.79,331.62c-.19-1.21-2-.7-1.85.51q1.35,8.79,2.71,17.57c.18,1.22,2,.7,1.84-.5Z"/><path class="cls-6" d="M151.58,352.37a1,1,0,0,0-.25-.42l-.19-.15a1,1,0,0,0-.49-.13h-.53a.8.8,0,0,0-.37.08.75.75,0,0,0-.3.2.69.69,0,0,0-.2.31.67.67,0,0,0-.08.37l0,.25a.94.94,0,0,0,.25.42l.19.15a.91.91,0,0,0,.48.13h.53a.65.65,0,0,0,.37-.08,1,1,0,0,0,.59-.87Z"/><path class="cls-6" d="M159.69,347.42a1,1,0,0,0,0,1.91A1,1,0,0,0,159.69,347.42Z"/><path class="cls-6" d="M155.3,356.63a.94.94,0,0,0-.25-.42l-.19-.15a.91.91,0,0,0-.48-.13h-.27a1,1,0,0,0-.68.28.6.6,0,0,0-.19.3.81.81,0,0,0-.09.37c0,.09,0,.17,0,.26a.89.89,0,0,0,.24.42l.2.15a1,1,0,0,0,.48.13h.27a.73.73,0,0,0,.36-.08.87.87,0,0,0,.51-.51.67.67,0,0,0,.08-.37Z"/><path class="cls-6" d="M161.55,357a1,1,0,0,0,0,1.91A1,1,0,0,0,161.55,357Z"/><path class="cls-6" d="M165.27,354.06a1,1,0,0,0,0,1.92A1,1,0,0,0,165.27,354.06Z"/><path class="cls-6" d="M277.52,332.32a.66.66,0,0,0-.2-.3.61.61,0,0,0-.3-.2.69.69,0,0,0-.37-.08l-.26,0a1,1,0,0,0-.42.25l-.15.19a1,1,0,0,0-.13.48V333a.8.8,0,0,0,.08.37.9.9,0,0,0,.51.5.67.67,0,0,0,.37.08l.25,0a.94.94,0,0,0,.42-.25l.15-.19a.91.91,0,0,0,.13-.48v-.27A.69.69,0,0,0,277.52,332.32Z"/><path class="cls-6" d="M291.27,327.22a1,1,0,0,0,0,1.91A1,1,0,0,0,291.27,327.22Z"/><path class="cls-6" d="M287,321.86l-.27-.53a.72.72,0,0,0-.25-.27.67.67,0,0,0-.32-.17.71.71,0,0,0-.38,0,.76.76,0,0,0-.36.11l-.19.15a1,1,0,0,0-.25.42l0,.26a.91.91,0,0,0,.13.48l.27.53a.78.78,0,0,0,.24.27.8.8,0,0,0,.33.17.7.7,0,0,0,.38,0,.77.77,0,0,0,.36-.12l.19-.15a.85.85,0,0,0,.24-.42l0-.25A1,1,0,0,0,287,321.86Z"/><path class="cls-6" d="M301,314.63a1,1,0,0,0-.24-.42l-.2-.15a.91.91,0,0,0-.48-.13h-.27a1,1,0,0,0-.67.28.66.66,0,0,0-.2.3.69.69,0,0,0-.08.37l0,.26a1,1,0,0,0,.25.42l.19.15a.91.91,0,0,0,.48.13H300a.8.8,0,0,0,.37-.08.79.79,0,0,0,.31-.2.67.67,0,0,0,.19-.31.78.78,0,0,0,.09-.37Z"/><path class="cls-6" d="M306.69,318.71a1,1,0,0,0,0,1.91A1,1,0,0,0,306.69,318.71Z"/><path class="cls-6" d="M76.49,323.5a1,1,0,0,0,0,1.91A1,1,0,0,0,76.49,323.5Z"/><path class="cls-6" d="M83.77,335.41a1.73,1.73,0,0,0-.1-.24h0a.78.78,0,0,0-.24-.27.7.7,0,0,0-.33-.17.81.81,0,0,0-.31,0,.86.86,0,0,0-.39,0l-.23.1a1,1,0,0,0-.34.34h0a.43.43,0,0,1,0,.12.51.51,0,0,1-.05.12h0a1.09,1.09,0,0,0,0,.26,1,1,0,0,0,.13.51h0l.15.2h0a1.46,1.46,0,0,0,.21.16l.24.1h0l.25,0h.05l.27,0h0l.23-.09h0l.2-.15h0l.15-.19h0a1.6,1.6,0,0,0,.1-.23h0s0-.08,0-.13l0-.12h0A.8.8,0,0,0,83.77,335.41Z"/><path class="cls-6" d="M88.72,326.15a1,1,0,0,0,0,1.92A1,1,0,0,0,88.72,326.15Z"/><path class="cls-6" d="M74.37,297.45a1,1,0,0,0,0,1.91A1,1,0,0,0,74.37,297.45Z"/><path class="cls-6" d="M81.28,286.81a1,1,0,0,0,0,1.92A1,1,0,0,0,81.28,286.81Z"/><path class="cls-6" d="M85,300.9a1,1,0,0,0,0,1.91A1,1,0,0,0,85,300.9Z"/><path class="cls-6" d="M96.16,311a1,1,0,0,0,0,1.92A1,1,0,0,0,96.16,311Z"/><path class="cls-6" d="M219,313.72a.67.67,0,0,0-.19-.31l-.2-.15a.91.91,0,0,0-.48-.13l-.25,0a1,1,0,0,0-.43.25l-.26.27a.61.61,0,0,0-.2.3.69.69,0,0,0-.08.37.67.67,0,0,0,.08.37.69.69,0,0,0,.2.31l.19.15a1,1,0,0,0,.48.13l.26,0a.89.89,0,0,0,.42-.24l.27-.27a.63.63,0,0,0,.19-.31.74.74,0,0,0,.09-.36A.75.75,0,0,0,219,313.72Z"/><path class="cls-6" d="M235.18,309.41a1,1,0,0,0,0,1.91A1,1,0,0,0,235.18,309.41Z"/><path class="cls-6" d="M228.13,302.93a1,1,0,0,0-.25-.42,3.19,3.19,0,0,0-.26-.26.69.69,0,0,0-.31-.2.67.67,0,0,0-.37-.08.69.69,0,0,0-.37.08.61.61,0,0,0-.3.2l-.15.19a.91.91,0,0,0-.13.48l0,.26a1,1,0,0,0,.25.42l.26.26a.69.69,0,0,0,.31.2.67.67,0,0,0,.37.08.69.69,0,0,0,.37-.08.66.66,0,0,0,.3-.2l.15-.19a.91.91,0,0,0,.13-.48Z"/><path class="cls-6" d="M247.41,299.31a1,1,0,0,0,0,1.91A1,1,0,0,0,247.41,299.31Z"/><path class="cls-6" d="M254.85,306.75a1,1,0,0,0,0,1.91A1,1,0,0,0,254.85,306.75Z"/><path class="cls-6" d="M270,302.23a1,1,0,0,0,0,1.91A1,1,0,0,0,270,302.23Z"/><path class="cls-6" d="M276.38,292.93a1,1,0,0,0,0,1.91A1,1,0,0,0,276.38,292.93Z"/><path class="cls-7" d="M142.22,332.25c-8.16,3.32-18,.45-22.94-6.48-4.14,5-10.21,8.18-17.17,6-7.81-2.47-10.36-10.19-9.62-17.52-8,2.43-17.26,3.27-22.46-4.36-4.55-6.68-.79-13.64,4.74-18.2a75.32,75.32,0,0,1-18.35-12c-6.73-6.13-13.84-15.52-14-25-.16-10.93,9.66-15.45,18.93-11.58,10.27,4.3,40.49,13.72,49.75,20,1.9-.13,32.12,12.87,38.77,16.26,6,3.05-1.64,21.47,3.51,25.95C163.14,313.73,151.05,328.67,142.22,332.25Z"/><path class="cls-7" d="M323.91,280.7a49,49,0,0,1-36,17.57,57.69,57.69,0,0,1-18.7-3.17c5.45,7.1,7.52,15.54.84,23.65-9.3,11.29-25,11.72-35.67,3.6a26.66,26.66,0,0,1-.54,5.67,13.68,13.68,0,0,1-5.21,7.54c-5.54,4.08-13,3.55-19.43,2.21-21.78-4.51-22.89-33.91-18.94-47.72,1.22-4.28,38.9-24.62,50-17,16.9-1.94,38.3-12.32,50.77-22.33,9.72-7.81,25.35-15.05,35.42-3.51C335.26,257.27,331.67,271.28,323.91,280.7Z"/><path class="cls-8" d="M115.9,278.71q-4.74-1.29-9.45-2.69a7.59,7.59,0,0,0-.76-2.06c-.38-.9-.75-1.81-1.13-2.72l-2.25-5.45a1,1,0,0,0-1.17-.67,1,1,0,0,0-.67,1.18q1,2.46,2,4.93l1,2.46.48,1.17s.09.25.18.49q-6.39-1.92-12.71-4a6.66,6.66,0,0,0-.74-2.31c-.38-1-.77-2.05-1.15-3.08l-2.31-6.16c-.43-1.14-2.28-.65-1.85.51.67,1.77,1.33,3.55,2,5.32.33.89.66,1.78,1,2.66.15.42.31.84.47,1.26s.21.7.35,1q-6.78-2.3-13.48-4.82a5,5,0,0,0-.43-1.49l-1.14-2.89c-.74-1.84-1.47-3.69-2.2-5.53a1,1,0,0,0-1.18-.67,1,1,0,0,0-.67,1.17c.64,1.61,1.28,3.21,1.91,4.82l1,2.41.48,1.2a1.47,1.47,0,0,0,.06.14c-1.65-.63-3.29-1.27-4.94-1.92q-6.68-2.66-13.28-5.54c-1.12-.48-2.09,1.16-1,1.65q8.75,3.82,17.65,7.26l-.09,0-2.31.66q-2.5.69-5,1.26c-1.2.28-.69,2.12.51,1.85,1.88-.44,3.76-.91,5.63-1.43.93-.26,1.86-.54,2.78-.82a6.53,6.53,0,0,0,1.3-.48c4,1.51,8,3,12,4.35l-1.68.54-5.53,1.77c-1.17.37-.67,2.22.5,1.84l6.25-2,3-1,.54-.16q5.8,2,11.65,3.77l.39.12c-.38.16-.76.3-1.13.47a40.69,40.69,0,0,0-4.41,2.38c-1,.64-.08,2.3,1,1.65a38.57,38.57,0,0,1,4.75-2.53q1.18-.52,2.4-1l.4-.13q5.22,1.56,10.48,3A1,1,0,0,0,115.9,278.71Z"/><path class="cls-8" d="M119.69,289.5c-1.65,1-3.33,1.91-5,2.82a2,2,0,0,0-1.16-.41c-1.77-.1-3.53-.16-5.29-.42a42.18,42.18,0,0,1-5.44-1.18,1,1,0,0,0-.51,1.85,42.29,42.29,0,0,0,5.77,1.22c1,.14,1.94.25,2.92.32.3,0,.6,0,.91.06-3.66,1.83-7.38,3.51-11.19,5a1,1,0,0,0-.67-.33l-13.35-1.54a1,1,0,0,0-1,1,1,1,0,0,0,1,.95L97.26,300a129.83,129.83,0,0,1-15.91,4.59c-1.2.26-.69,2.1.51,1.84a129.39,129.39,0,0,0,14.23-4c-1.2,1.49-2.35,3-3.43,4.61-.7,1,1,2,1.65,1a68.86,68.86,0,0,1,5.39-6.88,133.55,133.55,0,0,0,12.41-5.38l-.39,1c-.47,1.24-.9,2.49-1.29,3.76s1.48,1.68,1.84.51q.8-2.6,1.83-5.09c.18-.44.37-.87.56-1.29l.09-.18c2-1.05,4-2.14,5.91-3.29A1,1,0,0,0,119.69,289.5Z"/><path class="cls-6" d="M147.54,307a1,1,0,0,0,0,1.91A1,1,0,0,0,147.54,307Z"/><path class="cls-6" d="M150.8,313.45a.78.78,0,0,0-.5-.5.78.78,0,0,0-.37-.09l-.25,0a1,1,0,0,0-.43.24l-.14.2a1,1,0,0,0-.14.48v.4a.81.81,0,0,0,.09.37.67.67,0,0,0,.19.3,1,1,0,0,0,.68.28l.26,0a.91.91,0,0,0,.42-.25l.15-.19a1,1,0,0,0,.13-.48v-.4A.81.81,0,0,0,150.8,313.45Z"/><path class="cls-6" d="M147.3,319.05l-.15-.19a1,1,0,0,0-.42-.25l-.25,0a.92.92,0,0,0-.49.13l-.26.13a.72.72,0,0,0-.27.25.67.67,0,0,0-.17.32.71.71,0,0,0,0,.38.76.76,0,0,0,.11.36l.15.19a1,1,0,0,0,.43.25l.25,0a.91.91,0,0,0,.48-.13l.27-.13a.72.72,0,0,0,.27-.25.76.76,0,0,0,.17-.32.7.7,0,0,0,0-.38A.66.66,0,0,0,147.3,319.05Z"/><path class="cls-6" d="M142.89,312.33a1,1,0,0,0,0,1.91A1,1,0,0,0,142.89,312.33Z"/><path class="cls-6" d="M140.09,321.41a.94.94,0,0,0-.25-.42l-.19-.15a.91.91,0,0,0-.48-.13H139a.69.69,0,0,0-.37.08.66.66,0,0,0-.3.2.61.61,0,0,0-.2.3.69.69,0,0,0-.08.37l0,.26a1,1,0,0,0,.25.42l.19.15a1,1,0,0,0,.48.13h.14a.73.73,0,0,0,.36-.08.72.72,0,0,0,.31-.2.79.79,0,0,0,.2-.31.67.67,0,0,0,.08-.37Z"/><path class="cls-6" d="M108.35,327.06l-.15-.2a.89.89,0,0,0-.42-.24l-.4-.14a.7.7,0,0,0-.38,0,.66.66,0,0,0-.36.11.72.72,0,0,0-.27.25.76.76,0,0,0-.17.32l0,.26a.91.91,0,0,0,.13.48l.15.19a1,1,0,0,0,.42.25l.4.13a.7.7,0,0,0,.38,0,.76.76,0,0,0,.36-.11.69.69,0,0,0,.26-.25.67.67,0,0,0,.18-.33l0-.25A.91.91,0,0,0,108.35,327.06Z"/><path class="cls-6" d="M113.78,324.56a1,1,0,0,0,0,1.91A1,1,0,0,0,113.78,324.56Z"/><path class="cls-6" d="M108.86,321a1,1,0,0,0,0,1.91A1,1,0,0,0,108.86,321Z"/><path class="cls-6" d="M147.13,283.79a1,1,0,0,0-.24-.42l-.2-.15a1,1,0,0,0-.48-.13h-.13a.75.75,0,0,0-.37.09.67.67,0,0,0-.31.19.79.79,0,0,0-.2.31.77.77,0,0,0-.08.37l0,.25a1,1,0,0,0,.25.43l.19.14a1,1,0,0,0,.49.14h.13a.81.81,0,0,0,.37-.09.78.78,0,0,0,.5-.5.81.81,0,0,0,.09-.37Z"/><path class="cls-6" d="M146.63,290.61l0-.07a1.06,1.06,0,0,0-.06-.19.81.81,0,0,0-.25-.27.74.74,0,0,0-.33-.17l-.25,0a.91.91,0,0,0-.48.13l-.2.15a1,1,0,0,0-.24.42.06.06,0,0,0,0,0,1.26,1.26,0,0,0,0,.27v0h0c0,.05,0,.09,0,.13s0,.09,0,.13v0a1.86,1.86,0,0,0,.1.25l0,0,.16.21h0a.92.92,0,0,0,.22.17h0l.12.06.13,0a.81.81,0,0,0,.38,0,.77.77,0,0,0,.35-.12.78.78,0,0,0,.27-.24.8.8,0,0,0,.17-.33,2.17,2.17,0,0,1,0-.25A.93.93,0,0,0,146.63,290.61Z"/><path class="cls-6" d="M149.74,287.14a.69.69,0,0,0-.2-.31l-.19-.15a.91.91,0,0,0-.48-.13l-.26,0a1,1,0,0,0-.42.25l-.13.13a.79.79,0,0,0-.2.31.67.67,0,0,0-.08.37.69.69,0,0,0,.08.37.75.75,0,0,0,.2.3l.19.15a.91.91,0,0,0,.48.13l.26,0a1,1,0,0,0,.42-.25l.13-.13a.69.69,0,0,0,.2-.31.65.65,0,0,0,.08-.37A.64.64,0,0,0,149.74,287.14Z"/><path class="cls-6" d="M70.66,283.15a.9.9,0,0,0-.5-.51.8.8,0,0,0-.37-.08l-.26,0a.89.89,0,0,0-.42.24L69,283a1,1,0,0,0-.13.49v.13a.8.8,0,0,0,.08.37.79.79,0,0,0,.2.31.67.67,0,0,0,.31.19.78.78,0,0,0,.37.09l.25,0a.93.93,0,0,0,.42-.24l.15-.2a.91.91,0,0,0,.13-.48v-.13A.67.67,0,0,0,70.66,283.15Z"/><path class="cls-6" d="M76.17,280.57a1,1,0,0,0,0,1.91A1,1,0,0,0,76.17,280.57Z"/><path class="cls-6" d="M69.66,276.31a1,1,0,0,0,0,1.92A1,1,0,0,0,69.66,276.31Z"/><path class="cls-6" d="M64.77,278.38l-.15-.19a1,1,0,0,0-.42-.25l-.26,0a.91.91,0,0,0-.48.13l-.27.13a.81.81,0,0,0-.27.25.76.76,0,0,0-.17.32.74.74,0,0,0,0,.39.66.66,0,0,0,.11.35l.15.19a.91.91,0,0,0,.42.25l.26,0a.91.91,0,0,0,.48-.13l.26-.13a.78.78,0,0,0,.27-.24.75.75,0,0,0,.17-.33.7.7,0,0,0,0-.38A.76.76,0,0,0,64.77,278.38Z"/><path class="cls-8" d="M314.21,267.72q-5.54,1.72-11.17,3.15a68.37,68.37,0,0,0,4.62-9.7c.44-1.15-1.4-1.65-1.84-.51a64.69,64.69,0,0,1-5.41,10.86c-6.31,1.5-12.7,2.69-19.12,3.59,2.64-3.63,5.43-7.16,8.38-10.55.81-.92-.54-2.28-1.35-1.35q-5.11,5.88-9.63,12.25c-6.4.81-12.84,1.33-19.29,1.52-2.56.08-5.12.12-7.68.09a19.29,19.29,0,0,1-7.26-1.22c-1.13-.47-1.63,1.38-.51,1.85,4,1.67,8.67,1.33,12.93,1.26q7.2-.13,14.38-.77c2.33-.21,4.66-.45,7-.74l5.83,4.6a58.39,58.39,0,0,0,5.4,4c1,.65,2-1,1-1.65a55.52,55.52,0,0,1-5.34-4l-4.22-3.32q9.17-1.25,18.18-3.3l.72-.17a1.07,1.07,0,0,0,.3.3q4.21,2.61,8.26,5.46c1,.71,2-.95,1-1.65-2.32-1.63-4.68-3.19-7.08-4.7q6.3-1.55,12.5-3.49C315.89,269.2,315.39,267.35,314.21,267.72Z"/><path class="cls-8" d="M256.58,307l-7.45-1.8-3.58-.87c-.49-.11-1.12-.35-1.73-.47q-2.92-3.6-5.5-7.48c1.59.33,3.17.81,4.68,1.28a55.5,55.5,0,0,1,6.37,2.4c1.11.5,2.09-1.15,1-1.65a60,60,0,0,0-7.13-2.69c-1.22-.37-2.46-.7-3.71-1a16,16,0,0,0-2.59-.56,96.26,96.26,0,0,1-5.84-10.76c-.51-1.12-2.16-.15-1.65,1a99.27,99.27,0,0,0,5.69,10.56,5.83,5.83,0,0,0-.59,1.78c-.32,1.34-.64,2.68-1,4-.64,2.68-1.28,5.35-1.93,8-.29,1.2,1.56,1.71,1.85.51l1.69-7c.27-1.11.53-2.23.8-3.34.14-.56.27-1.12.4-1.68l.07-.23q2.54,3.86,5.41,7.48a5.46,5.46,0,0,0-.27,2.27c0,1.21-.09,2.43-.13,3.64-.1,2.52-.19,5-.29,7.57,0,1.05,1.73,1.33,1.88.25l0-.25h0v-.05a84.85,84.85,0,0,0,.76-11,96.74,96.74,0,0,0,7.22,7.66c.89.85,2.24-.5,1.35-1.35q-3.4-3.24-6.47-6.78l.5.12,3.17.77,6.48,1.57C257.27,309.14,257.78,307.29,256.58,307Z"/><path class="cls-8" d="M214.75,322.91c-1.24-1.47-2.55-2.88-3.92-4.21-.69-.67-1.39-1.33-2.11-2a16.37,16.37,0,0,0-2.19-1.8,1.23,1.23,0,0,0-.25-.14c0-.1-.05-.2-.08-.3a44,44,0,0,1-1.58-12.91c.06-1.23-1.85-1.22-1.91,0a44.71,44.71,0,0,0,1.54,13c0,.1.05.2.07.3l-.16.11a8.6,8.6,0,0,0-1.58,2.51L199.49,323a1,1,0,0,0,1.65,1l2.62-4.67c.39-.69.77-1.38,1.16-2.06.89,3.46,1.86,6.9,2.79,10.35a1,1,0,0,0,1.84-.51c-.82-3.07-1.66-6.13-2.47-9.21a59.77,59.77,0,0,1,6.32,6.41C214.19,325.2,215.54,323.84,214.75,322.91Z"/><path class="cls-6" d="M194.06,314.46a1,1,0,0,0,0,1.91A1,1,0,0,0,194.06,314.46Z"/><path class="cls-6" d="M198.31,308.61a1,1,0,0,0,0,1.91A1,1,0,0,0,198.31,308.61Z"/><path class="cls-6" d="M192.73,304.09a1,1,0,0,0,0,1.91A1,1,0,0,0,192.73,304.09Z"/><path class="cls-6" d="M228.42,316.91a.69.69,0,0,0-.2-.31l-.19-.15a.91.91,0,0,0-.48-.13l-.26,0a1,1,0,0,0-.42.25l-.26.27a.61.61,0,0,0-.2.3.69.69,0,0,0-.08.37.67.67,0,0,0,.08.37.69.69,0,0,0,.2.31l.19.15a1,1,0,0,0,.48.13l.26,0a.89.89,0,0,0,.42-.24l.26-.27a.69.69,0,0,0,.2-.31.64.64,0,0,0,.08-.36A.65.65,0,0,0,228.42,316.91Z"/><path class="cls-6" d="M225.16,327.48a1,1,0,0,0,0,1.92A1,1,0,0,0,225.16,327.48Z"/><path class="cls-6" d="M220.9,318.71a1,1,0,0,0,0,1.91A1,1,0,0,0,220.9,318.71Z"/><path class="cls-6" d="M257.85,293.73a1,1,0,0,0,0,1.91A1,1,0,0,0,257.85,293.73Z"/><path class="cls-6" d="M263.29,304.52a.68.68,0,0,0-.18-.32.53.53,0,0,0-.22-.2l-.07-.1a.89.89,0,0,0-.42-.24l-.26,0a1,1,0,0,0-.48.13h0l-.19.15h0l-.15.19h0a1.12,1.12,0,0,0-.11.25h0s0,.23,0,.26h0c0,.08.05.34,0,.27v0a2.72,2.72,0,0,0,.11.25v0l.16.21,0,0,0,0s.14.12.21.16h0l.23.09h0l.26,0h0l.13,0,.13,0h0l.23-.1h0a1.49,1.49,0,0,0,.2-.15h0l.15-.19h0v0a.66.66,0,0,0,.11-.35A.74.74,0,0,0,263.29,304.52Z"/><path class="cls-6" d="M265.56,292.66a1,1,0,0,0,0,1.91A1,1,0,0,0,265.56,292.66Z"/><path class="cls-6" d="M299.44,257a1,1,0,0,0-.24-.42l-.2-.15a.91.91,0,0,0-.48-.13h-.27a1,1,0,0,0-.67.28.66.66,0,0,0-.2.3.69.69,0,0,0-.08.37l0,.26a1,1,0,0,0,.25.42l.19.15a1,1,0,0,0,.48.13h.27a.8.8,0,0,0,.37-.08.79.79,0,0,0,.31-.2.77.77,0,0,0,.19-.31.78.78,0,0,0,.09-.37Z"/><path class="cls-6" d="M306.88,249.24a.89.89,0,0,0-.24-.42l-.2-.15a.89.89,0,0,0-.48-.13h-.26a.65.65,0,0,0-.37.08.69.69,0,0,0-.31.2.72.72,0,0,0-.2.31.73.73,0,0,0-.08.36l0,.26a1,1,0,0,0,.25.42l.19.15a.92.92,0,0,0,.49.13H306a.77.77,0,0,0,.37-.08.87.87,0,0,0,.51-.51.75.75,0,0,0,.08-.37Z"/><path class="cls-6" d="M310.22,254.92a1,1,0,0,0,0,1.91A1,1,0,0,0,310.22,254.92Z"/><path class="cls-6" d="M318.46,252a1,1,0,0,0,0,1.92A1,1,0,0,0,318.46,252Z"/><path class="cls-6" d="M296.66,288.41a1,1,0,0,0,0,1.91A1,1,0,0,0,296.66,288.41Z"/><path class="cls-6" d="M303.57,288.14a1,1,0,0,0,0,1.92A1,1,0,0,0,303.57,288.14Z"/><path class="cls-6" d="M313.4,280.43a1,1,0,0,0,0,1.92A1,1,0,0,0,313.4,280.43Z"/><path class="cls-6" d="M300.38,280.43a1,1,0,0,0,0,1.92A1,1,0,0,0,300.38,280.43Z"/><path class="cls-6" d="M289.48,292.13a1,1,0,0,0,0,1.91A1,1,0,0,0,289.48,292.13Z"/><path class="cls-6" d="M236.85,278.57a1,1,0,0,0,0,1.92A1,1,0,0,0,236.85,278.57Z"/><path class="cls-9" d="M189.11,289.08a1.14,1.14,0,0,0-1-.75c0-.08-5.79-4.25-9-5.44-8.39-3.08-17.62-4.84-26.78-6.08l-1.05-.15c-.21-.18-12.18-1.63-17.82-1.89-4.41-.31-8.83-.47-13.21-.4a128.91,128.91,0,0,0-16.34,1.34,62,62,0,0,0-10.68,1.83c-.72.21-1.49.48-2.23.78l-.82.2a1,1,0,0,0-.71.55A6,6,0,0,0,88,280.19a.76.76,0,0,0-.49.45,20.51,20.51,0,0,0-1.32,9.45c.29,2.8.65,6,4.76,7.68a63,63,0,0,0,13.69,3.48c5.1.87,10.25,1.61,15.39,2.29,10.35,1.39,20.78,2.46,31.19,2.89,9.35.39,19.45.7,28.33-.87,4.61-.82,9.06-2.11,9.92-5.5A23.36,23.36,0,0,0,189.11,289.08Zm-4.12.85c-1,.9-3.13,1.22-4.73,1.51-2,.38-4.16.65-6.3.84a112.48,112.48,0,0,1-12.75.41c-8.66-.16-17.39-.85-26-1.57-9-.73-17.92-1.69-26.75-3.27-4.48-.8-8.92-1.78-13.26-3a13.29,13.29,0,0,1-4.34-1.73c-1.71-1.29,0-2.45,1.57-3.13a116.1,116.1,0,0,1,12.07-2.45l1.06-.11c4.88-.54,9.86-.87,14.86-1q5.45-.15,10.93.06c3.4.2,6.8.5,10.22.86a210.2,210.2,0,0,1,25,3.8C169.72,281.93,188.81,286.57,185,289.93Z"/><path class="cls-10" d="M185,289.93c-1,.9-3.13,1.22-4.73,1.51-2,.38-4.16.65-6.3.84a112.48,112.48,0,0,1-12.75.41c-8.66-.16-17.39-.85-26-1.57-9-.73-17.92-1.69-26.75-3.27-4.48-.8-8.92-1.78-13.26-3a13.29,13.29,0,0,1-4.34-1.73c-1.71-1.29,0-2.45,1.57-3.13a116.1,116.1,0,0,1,12.07-2.45l1.06-.11c4.88-.54,9.86-.87,14.86-1q5.45-.15,10.93.06c3.4.2,6.8.5,10.22.86a210.2,210.2,0,0,1,25,3.8C169.72,281.93,188.81,286.57,185,289.93Z"/><path class="cls-9" d="M130.8,282c0-.45-.37-1-1.23-1.11a99.6,99.6,0,0,0-22.51-1.41c-1.86.1-3.7.25-5.51.46a18.33,18.33,0,0,0-4.81.82c-3,1.35,1.07,3.22,3.23,3.64a75.48,75.48,0,0,0,10.42.85,103.87,103.87,0,0,0,10.73.07c1.78-.09,3.55-.26,5.28-.51,1.41-.21,3.29-.36,4.25-1.1S131.41,282.41,130.8,282Z"/><path class="cls-9" d="M150.82,286.48c-2.6-1.18-5.4-2.19-8.09-3.27a13.11,13.11,0,0,0-4-1.21,5.82,5.82,0,0,0-3.25.81l-.42.24-.1,0c-1.36.51-2.69,1-4,1.62-1,.47-2.46,1-3.06,1.73s-.17,1.64.83,2.2c1.23.68,3,.72,4.45.89A165.28,165.28,0,0,0,153.38,291c.56,0,1.15-.41,1.13-.78C154.4,288.56,152.83,287.39,150.82,286.48Z"/><path class="cls-9" d="M179.81,286.65a28.39,28.39,0,0,0-6.93-2.11c-2.6-.57-5.24-1-7.88-1.44-3.19-.49-6.39-.89-9.59-1.28a42.09,42.09,0,0,0-8.81-.43,1.45,1.45,0,0,0-.92.4c-1.09.12-1.74,1.08-.52,1.6a87.69,87.69,0,0,0,14.56,4.48c4.89,1.13,10.21,2.58,15.32,2.8,2,.08,4.27,0,5.77-.92S181.38,287.47,179.81,286.65Z"/><path class="cls-9" d="M285.75,275.79a1,1,0,0,0-1-.5c0-.06-5.84-2.79-8.91-3.29a115.39,115.39,0,0,0-24.72-.89l-1,.05c-.21-.13-11,.6-16.08,1.32-4,.46-7.89,1.06-11.76,1.86a116.82,116.82,0,0,0-14.23,3.92,57.32,57.32,0,0,0-9.15,3.42c-.6.31-1.23.67-1.84,1.06l-.69.32a.87.87,0,0,0-.54.6,6,6,0,0,0-1.11,1.24.73.73,0,0,0-.36.48,18.57,18.57,0,0,0,.42,8.58c.73,2.44,1.58,5.17,5.51,6a57.29,57.29,0,0,0,12.7.78c4.65-.09,9.34-.3,14-.56,9.4-.51,18.8-1.32,28.09-2.68,8.34-1.22,17.33-2.64,24.92-5.53,3.95-1.5,7.67-3.38,7.86-6.53A21,21,0,0,0,285.75,275.79Zm-3.5,1.45c-.76,1-2.56,1.6-3.93,2.13-1.75.68-3.57,1.27-5.43,1.8a103.51,103.51,0,0,1-11.21,2.51c-7.69,1.31-15.54,2.16-23.31,3-8.05.85-16.15,1.51-24.22,1.6-4.1,0-8.2-.09-12.24-.4a12,12,0,0,1-4.13-.8c-1.72-.86-.4-2.17.87-3a105.48,105.48,0,0,1,10.27-4.19l.92-.28c4.23-1.29,8.58-2.42,13-3.37q4.78-1,9.69-1.78c3-.39,6.1-.7,9.18-.95a190.45,190.45,0,0,1,22.75-.84C267.4,272.72,285.07,273.62,282.25,277.24Z"/><path class="cls-10" d="M282.25,277.24c-.76,1-2.56,1.6-3.93,2.13-1.75.68-3.57,1.27-5.43,1.8a103.51,103.51,0,0,1-11.21,2.51c-7.69,1.31-15.54,2.16-23.31,3-8.05.85-16.15,1.51-24.22,1.6-4.1,0-8.2-.09-12.24-.4a12,12,0,0,1-4.13-.8c-1.72-.86-.4-2.17.87-3a105.48,105.48,0,0,1,10.27-4.19l.92-.28c4.23-1.29,8.58-2.42,13-3.37q4.78-1,9.69-1.78c3-.39,6.1-.7,9.18-.95a190.45,190.45,0,0,1,22.75-.84C267.4,272.72,285.07,273.62,282.25,277.24Z"/><path class="cls-9" d="M233,279.28c-.07-.4-.5-.79-1.28-.78A89.55,89.55,0,0,0,211.53,281q-2.43.6-4.8,1.33a17.14,17.14,0,0,0-4.11,1.53c-2.45,1.7,1.49,2.67,3.47,2.68a67.25,67.25,0,0,0,9.36-1,96.34,96.34,0,0,0,9.5-1.74c1.57-.38,3.11-.83,4.6-1.34,1.21-.43,2.84-.87,3.57-1.69S233.58,279.58,233,279.28Z"/><path class="cls-9" d="M251.44,279.92c-2.5-.61-5.15-1-7.71-1.53A11.47,11.47,0,0,0,240,278a5.21,5.21,0,0,0-2.74,1.26l-.33.28-.08,0c-1.12.68-2.21,1.37-3.25,2.1a8.13,8.13,0,0,0-2.42,2.05c-.38.73.13,1.47,1.11,1.8a11.38,11.38,0,0,0,4.08.05,152.25,152.25,0,0,0,18.13-2.13c.49-.09.95-.56.86-.88C255,281.16,253.37,280.39,251.44,279.92Z"/><path class="cls-9" d="M277.13,275.21a25.56,25.56,0,0,0-6.5-.71c-2.39-.06-4.8,0-7.21.05-2.9.1-5.8.29-8.7.48a38.08,38.08,0,0,0-7.87,1.09,1.38,1.38,0,0,0-.75.51c-.94.3-1.35,1.26-.19,1.51a79.87,79.87,0,0,0,13.64,1.52c4.52.18,9.47.57,14-.1a10.06,10.06,0,0,0,4.95-1.78C279.79,276.67,278.65,275.67,277.13,275.21Z"/><path class="cls-6" d="M183.78,293.05a212.4,212.4,0,0,1-74.84-.88c-3.39-.65-6.78-1.37-10.13-2.21a35.85,35.85,0,0,1-9.31-3.45,1,1,0,0,0-1,1.65c5.24,3,11.38,4.12,17.22,5.32q9.28,1.9,18.72,3a214.28,214.28,0,0,0,38.49.92c7.15-.47,14.26-1.32,21.32-2.5C185.49,294.69,185,292.85,183.78,293.05Z"/><path class="cls-6" d="M282.31,280.8c-20.39,8.54-42.65,11-64.6,10.87q-4.59,0-9.18-.21c-3.2-.12-6.42-.21-9.46-1.34-1.15-.43-1.65,1.42-.51,1.85a26.27,26.27,0,0,0,8,1.32c2.83.13,5.67.21,8.5.26,5.54.09,11.09,0,16.63-.26a170.73,170.73,0,0,0,33-4.65,126.93,126.93,0,0,0,18.12-6C283.94,282.17,283.45,280.32,282.31,280.8Z"/><g class="cls-11"><ellipse class="cls-8" cx="187.02" cy="181.17" rx="117.13" ry="110.26"/><path class="cls-12" d="M287.34,234.25a2,2,0,0,1-1.2-.39,2.16,2.16,0,0,1-.78-2.23c.33-2,1.62-3.53,2.88-5a12.66,12.66,0,0,0,2.12-3l.05-.11a10.16,10.16,0,0,0,.56-2.91,1.21,1.21,0,0,1,.22-.58,6.26,6.26,0,0,1,1.86-1.87,1.35,1.35,0,0,1,.73-.21,1.31,1.31,0,0,1,.44.07,1.26,1.26,0,0,1,.8.82,11,11,0,0,1-.95,7.88,32.71,32.71,0,0,1-4.41,6.25A3.26,3.26,0,0,1,287.34,234.25Z"/><path class="cls-12" d="M210.27,93.84l-.41,0a3.14,3.14,0,0,1-2.59-2.64,1.05,1.05,0,0,1,0-.58,4.68,4.68,0,0,1,4.28-3h.26A2.34,2.34,0,0,1,214,89a2.24,2.24,0,0,1-.12,1.72C212.82,93.3,211.33,93.84,210.27,93.84Z"/><path class="cls-12" d="M206.43,100.85a1.39,1.39,0,0,1-.6-.14,1.21,1.21,0,0,1-.63-.72,18.78,18.78,0,0,1-.65-2.61,1.19,1.19,0,0,1,.08-.67A3.34,3.34,0,0,1,206,95.19a2.31,2.31,0,0,1,1.23-.35,2.73,2.73,0,0,1,2,.94,2.5,2.5,0,0,1,.68,2.09,4,4,0,0,1-3.1,2.93A1.74,1.74,0,0,1,206.43,100.85Z"/><path class="cls-12" d="M215.94,100.72a3.31,3.31,0,0,1-3.33-2.29,3.65,3.65,0,0,1,.07-1.61l.18-.89a1.07,1.07,0,0,1,.09-.27,6.57,6.57,0,0,1,5.72-3.74h0a4.12,4.12,0,0,1,3.75,1.85,3.43,3.43,0,0,1-.48,3.73,8.48,8.48,0,0,1-2.49,2,7.53,7.53,0,0,1-3.2,1.25Z"/><path class="cls-12" d="M249.31,260.12h-.25a5,5,0,0,1-3.77-2.05,8.69,8.69,0,0,1-1.23-7.27,30.88,30.88,0,0,1,1.07-3.07c.8-2.08,1.56-4,1.22-6a12.14,12.14,0,0,0-.6-1.93,10,10,0,0,1-.79-3.32c0-2.1,1-3.83,2.1-5.51.92-1.47,1.78-2.85,1.75-4.28a8.19,8.19,0,0,0-.45-2,11.61,11.61,0,0,1-.53-2.29c-.24-2.72,1.23-4.93,2.65-7.08a15.38,15.38,0,0,0,2.2-4.16c.78-2.91-.55-6-2-9.24-1.68-3.9-3.42-7.93-1.35-11.85.19-.36.41-.74.64-1.13,1-1.72,1.72-3.09,1-3.6a1.17,1.17,0,0,0-.75-.19,9,9,0,0,0-1.76.27,11.1,11.1,0,0,1-2.3.33,3.58,3.58,0,0,1-2.5-.88c-1.29-1.17-1.11-2.76-1-4a6.43,6.43,0,0,0,.07-1.55c-.21-1.51-2.13-2.41-3.87-2.41a5.07,5.07,0,0,0-.55,0,15.09,15.09,0,0,0-5.42,2.21l-1,.58a45,45,0,0,1-11,4.21,18.57,18.57,0,0,1-4.3.55c-3.18,0-5.56-1-6.89-3a9.53,9.53,0,0,1-1.31-3.74,14.81,14.81,0,0,0-.42-1.77,7.45,7.45,0,0,0-6.31-4.76l-.28,0a4.21,4.21,0,0,1-2.8-.93,3.62,3.62,0,0,1-1-2.29,27.19,27.19,0,0,1,2.42-14.82c.12-.27.25-.53.38-.8.8-1.63,1.55-3.18,1.31-4.66a9.27,9.27,0,0,0-.25-1,6.21,6.21,0,0,1-.36-2.3,6.5,6.5,0,0,1,1.52-3.29L210.87,130a22,22,0,0,1,4.37-4.85c3-2.28,6.88-3,10.28-3.64a64.27,64.27,0,0,1,11.38-1.29c5.63,0,9.93,1.35,13.15,4.11a27.6,27.6,0,0,1,2.23,2.23,15.78,15.78,0,0,0,3.06,2.81,5.41,5.41,0,0,0,2.78.8,2.65,2.65,0,0,0,2.28-1,3.75,3.75,0,0,0,.24-.44,4,4,0,0,1,1.17-1.52,2.89,2.89,0,0,1,1.7-.54c1.59,0,3,1.22,4.06,2.21l.15.13a6.24,6.24,0,0,0,4,1.53,4.68,4.68,0,0,0,2.11-.47,3.78,3.78,0,0,0,1.92-2.44,2.83,2.83,0,0,0-.39-2.42c-1.23-1.65-4-1.75-6.59-1.86l-1.3,0c-2.29-.13-5.28-1.13-6.79-3.08a4.06,4.06,0,0,1-.41-4.43,4.71,4.71,0,0,1-2,.46l-.4,0a11.17,11.17,0,0,0,1,2.88,1.17,1.17,0,0,1-.42,1.51,1.36,1.36,0,0,1-.75.22,1.35,1.35,0,0,1-.91-.35l-10-9.39a6.47,6.47,0,0,0-3.69-1.81.74.74,0,0,0-.77.4.71.71,0,0,0,0,.65,5.22,5.22,0,0,0,2.95,2.1c3.81,1.29,5.67,3.43,5,5.71a4,4,0,0,1-4,2.53,5.15,5.15,0,0,1-1.53-.23,9.7,9.7,0,0,1-4.15-3.14l-.18-.19-3.8-4.2a4.38,4.38,0,0,0-2-1.54,1.84,1.84,0,0,0-.33,0c-1.34,0-2.72,1.84-3.63,3.06-3.13,4.2-8,6.91-12.29,6.91a9.73,9.73,0,0,1-4.34-1,8.75,8.75,0,0,1-4.92-8.39c.22-2.54,2.22-5.27,5.08-5.27a5.25,5.25,0,0,1,.56,0,9.47,9.47,0,0,1,2.24.7l.51.21a7.07,7.07,0,0,1-.75-5,3.6,3.6,0,0,1,2.16-2.32,6.52,6.52,0,0,1,2.19-.4,3.71,3.71,0,0,0,1.41-.25c.59-.35.7-1.29.8-2.68.12-1.63.27-3.66,2.21-4.6a3.37,3.37,0,0,1,1.05-.33,8.86,8.86,0,0,1-2.58-.94c-2.52-1.41-4.15-3.72-5.59-5.75a6.74,6.74,0,0,1-1.58-3.84c0-2,1.52-3.42,2.85-4.64a13.84,13.84,0,0,0,1.57-1.62,1.34,1.34,0,0,1,1.06-.52,1.32,1.32,0,0,1,.39.06A120,120,0,0,1,274.45,106a1.16,1.16,0,0,1,.29,1.13c-.64,2.31.68,5.24,3.2,7.14a11.14,11.14,0,0,0,5,2.09,1.4,1.4,0,0,1,.86.5,110.74,110.74,0,0,1,10,15.82,1.17,1.17,0,0,1-.26,1.4,1.33,1.33,0,0,1-.9.34,1.26,1.26,0,0,1-.6-.14l-2.18-1-.74-.36a2.51,2.51,0,0,0-.59-.22.72.72,0,0,0-.13.41,2.25,2.25,0,0,0,.91,1.24,16.66,16.66,0,0,0,5.4,2.55l.81.27a1.28,1.28,0,0,1,.75.67,106.1,106.1,0,0,1,5.11,13.75,1.12,1.12,0,0,1,0,.32A24.44,24.44,0,0,1,298.72,163c-.12.25-.26.5-.39.76a8.68,8.68,0,0,0-1.23,3.35,2.53,2.53,0,0,0,.67,1.82,1.26,1.26,0,0,0,.86.42h0a3.1,3.1,0,0,0,.57-.05,7.3,7.3,0,0,1,.87-.07h.12a4.33,4.33,0,0,1,4,4.22,4.84,4.84,0,0,1-.23,1.92,12,12,0,0,1-2.77,4.11c-.35.38-.7.77-1,1.16-2,2.47-3.12,5.54-4.2,8.51-2.57,7.07-5.22,14.38-5.1,21.92,0,.88.06,1.77.11,2.66.16,2.91.32,5.92-.63,8.69a10.72,10.72,0,0,1-1.13,2.33c-1.59,2.46-4.1,4-6.52,5.49a23.23,23.23,0,0,0-4.83,3.53,21.94,21.94,0,0,0-2.34,3.18c-.34.53-.69,1.05-1.05,1.57-3.23,4.64-7.78,8.17-12.19,11.58-2.78,2.15-5.57,4.09-9,4.1h-.95c-.69,0-1.08.07-1.19.22s.09.83.25,1.3l.18.56a3.4,3.4,0,0,1-.51,3A2.25,2.25,0,0,1,249.31,260.12Zm41.3-104a6.63,6.63,0,0,1,.36.87,11.31,11.31,0,0,1,.38,1.61,8.15,8.15,0,0,0,.27,1.24,1.72,1.72,0,0,0,1,1.24h.1a.94.94,0,0,0,.65-.39,1.67,1.67,0,0,0,.37-1.42c-.32-1.19-1.59-2.12-2.87-3Zm-11.05-16.87c0,1.73.44,2.86,1.32,3.56a7.68,7.68,0,0,0,.89.56,11.84,11.84,0,0,1,1.07.68,9.52,9.52,0,0,1,3,4.67c.24.64.48,1.27.76,1.84a10.91,10.91,0,0,1,.6-3.53,7.31,7.31,0,0,0,.48-3.79,2,2,0,0,0-1.6-1.41.84.84,0,0,0-.27,0,3.61,3.61,0,0,0-.75.44,4.15,4.15,0,0,1-2.28.86l-.41,0c-1.89-.27-2.3-2-2.57-3.18C279.7,139.72,279.64,139.47,279.56,139.23Zm-14.7-33a1.45,1.45,0,0,0-.3,0c-1.06.24-1.54,1.75-1.64,3,0,.31,0,.62-.05.93a9.36,9.36,0,0,1-.68,3.71,20,20,0,0,1,1.83-1,9.52,9.52,0,0,0,2.55-1.71,3.14,3.14,0,0,0-.24-4.24A2.25,2.25,0,0,0,264.86,106.2Zm-36.53-14a10.44,10.44,0,0,1,2.56,1.39,11.34,11.34,0,0,0,1.71,1,3,3,0,0,0,1.17.23,3.47,3.47,0,0,0,3.21-2,2.8,2.8,0,0,0-.28-2.4,3.16,3.16,0,0,0-2-1.55q-.34-.08-.69-.12a7,7,0,0,1-1.59-.38l.43.6a1.16,1.16,0,0,1-.14,1.52A6.32,6.32,0,0,1,228.33,92.25Zm1.79-7a7.91,7.91,0,0,1,0-1.54,3.22,3.22,0,0,0-.92.25Z"/><path class="cls-12" d="M129,276.86a7.8,7.8,0,0,1-3.81-1,7.34,7.34,0,0,1-3.71-5,13.24,13.24,0,0,1-.11-2.15,10.62,10.62,0,0,0,0-1.61c-.26-1.92-1.65-3.68-3-5.38l-.34-.43a70.6,70.6,0,0,1-12.41-24.15c-.51-1.75-1-3.56-1.39-5.3-1.51-6.09-3.07-12.38-7.21-17.08a40.77,40.77,0,0,0-3.9-3.72,36.88,36.88,0,0,1-4.79-4.73c-3.53-4.47-5.07-10.79-4.33-17.79a75.62,75.62,0,0,1,3.32-14c.35-1.14.7-2.29,1-3.44.53-1.81.48-3.71-.12-4.62a1.27,1.27,0,0,0-.91-.59,2.21,2.21,0,0,0-.39,0c-.3,0-.6,0-.9.06a10.39,10.39,0,0,1-1.13.07,3.41,3.41,0,0,1-2.34-.77c-1.26-1.09-1-2.61-.8-3.73a3.76,3.76,0,0,0,.08-1.64,3.31,3.31,0,0,0-1.12-1.15,5.83,5.83,0,0,1-1.79-2,5.19,5.19,0,0,1-.13-3.38,6.27,6.27,0,0,0,.18-1.53c-.09-1.21-1.19-2.27-2.34-3.38-.31-.3-.62-.6-.91-.9a8.5,8.5,0,0,1-1-1.21,1.18,1.18,0,0,1-.12-1c13.4-36.88,46.83-64.87,87.25-73.05a1.24,1.24,0,0,1,.27,0,1.31,1.31,0,0,1,1.09.56c.67,1,1.34,2,2,2.92a1.16,1.16,0,0,1,0,1.36,1.31,1.31,0,0,1-1.06.52,1.33,1.33,0,0,1-.28,0,.86.86,0,0,0-.22,0c-.75,0-1.62,1-2.61,3-.86,1.71-2.75,3.44-4.71,3.44a3.08,3.08,0,0,1-2.1-.82,4.31,4.31,0,0,1-1.09-1.82,2.88,2.88,0,0,0-.4-.86c-.08-.09-.33-.38-1.15-.38a6.79,6.79,0,0,0-2,.38c-1.16.38-2.31.81-3.43,1.28a5.36,5.36,0,0,1,1-.09,4.91,4.91,0,0,1,2.07.45,1.19,1.19,0,0,1,.68.79,1.13,1.13,0,0,1-.19,1,5.47,5.47,0,0,0-.65,1.15,7.92,7.92,0,0,0,2.06-1.89,1.31,1.31,0,0,1,1.44-.46,5.34,5.34,0,0,1,3.72,4.63,5.19,5.19,0,0,1-2.54,5.29,11.67,11.67,0,0,1-1.21.55,3.45,3.45,0,0,0-1.43.81c-.35.48-.2,1.22.11,2.38a5.73,5.73,0,0,1,.06,3.92,3.61,3.61,0,0,1-3.41,2,3.71,3.71,0,0,1-3.78-2.56,5.52,5.52,0,0,1-.09-1.54,4.09,4.09,0,0,0,0-.88c-.18-.82-1.3-1.31-2.27-1.31l-.35,0a7.48,7.48,0,0,0-2.93,1.22,8.94,8.94,0,0,0,2.3,1.8,1.22,1.22,0,0,1,.64,1,4,4,0,0,1-1.29,2.91,4.93,4.93,0,0,1-3.37,1.37,4.09,4.09,0,0,1-1.26-.19,7.53,7.53,0,0,1-1.61-.77,5.84,5.84,0,0,0-1.1-.54,2,2,0,0,0-.55-.08,4.78,4.78,0,0,0-3.33,2.15c-.31.42-.6.86-.89,1.3a11.42,11.42,0,0,1-3.35,3.7,16.27,16.27,0,0,1-3.31,1.42c-2.33.81-3.43,1.31-3.47,2.35A5,5,0,0,0,119,116c1,1.41,2.12,3.16.83,5a3.28,3.28,0,0,1-2.77,1.35,10.72,10.72,0,0,1-3.85-1c-.54-.22-1-.43-1.51-.58a4.75,4.75,0,0,0-1.43-.23c-3.52,0-6.62,4-7.21,7.65l-.07.48A7.43,7.43,0,0,1,101.8,132a4.06,4.06,0,0,1-3.16,1.58,3,3,0,0,1-2.06-.78,1.16,1.16,0,0,1-.33-1.22c.4-1.2,1.52-5.22-.8-6.52a2.48,2.48,0,0,0-1.23-.32,5.83,5.83,0,0,0-4.47,3.1A21.52,21.52,0,0,0,88.42,131a16.63,16.63,0,0,1-2.54,5c-.36.45-.76.85-1.14,1.24a7.68,7.68,0,0,0-1.58,2,1.83,1.83,0,0,0,0,1.57h0a6.41,6.41,0,0,1,3.85-1.69,3.15,3.15,0,0,1,2.27.92c2,2,.12,4.41-1.25,6.17-1.26,1.6-1.78,2.42-1.36,2.74a3,3,0,0,0,1.13.27,5.38,5.38,0,0,1,2.1.55,3.16,3.16,0,0,1,1.55,2c.53,2-.71,4.1-1.1,4.7-.92,1.42-1.76,3-1.11,3.78a1,1,0,0,0,.9.41,7.7,7.7,0,0,0,4.09-2,8.89,8.89,0,0,1,5.27-2.05,3.38,3.38,0,0,1,3.47,2.24,5.57,5.57,0,0,1,.14,2.24c0,.39-.09,1.12,0,1.21a.29.29,0,0,0,.12,0,4.46,4.46,0,0,0,1.22-.34l.22-.08a9,9,0,0,1,3.07-.52c5,0,9.62,3.75,10.08,8.2,0,.16,0,.32,0,.49a2.69,2.69,0,0,0,.29,1.32c.13.18.34.36,1.08.36a12.24,12.24,0,0,0,1.59-.15,14.72,14.72,0,0,1,2-.18h.23c4.23.13,6.15,3.91,7.84,7.25.33.63.64,1.25,1,1.84,2.85,5.09,8.72,8.44,13.43,11.13a7.32,7.32,0,0,0,3.3,1.26h.12a7.62,7.62,0,0,0,1.14-.18,8.23,8.23,0,0,1,1.8-.25,4.4,4.4,0,0,1,.62,0c2,.27,3.18,1.8,4.15,3l.4.51a3.5,3.5,0,0,0,2.19,1.37.66.66,0,0,0,.39-.11,1.42,1.42,0,0,1,.72-.2,1.33,1.33,0,0,1,.72.2,3.81,3.81,0,0,1,1.72,2.55,5.84,5.84,0,0,1-1.16,4.5,16.36,16.36,0,0,1-2.39,2.39,15.82,15.82,0,0,0-2,1.93c-1.67,2.14-1.83,5-2,8,0,.53-.06,1.06-.1,1.58-.38,5.17-2.32,8.64-5.6,10a15.13,15.13,0,0,1-4.54.9c-2,.19-3.68.35-4.63,1.46s-.79,2.91-.62,4.8c.22,2.36.47,5-1.68,6.83a9.54,9.54,0,0,1-2.09,1.23c-1,.47-1.65.8-1.77,1.28a3.21,3.21,0,0,0,.1,1.18,3.54,3.54,0,0,1-.37,3,4.09,4.09,0,0,1-3,1.31,4.55,4.55,0,0,0-1.17.23c-.79.36-1,1.5-1.22,3.09l-.09.64a5.33,5.33,0,0,1-2.83,4,60.57,60.57,0,0,1,5.08,17.23,1.19,1.19,0,0,1-.29.93,1.3,1.3,0,0,1-.91.44ZM142.64,83.3a45.22,45.22,0,0,0-6.48,4.11,7.71,7.71,0,0,0,4.17-2.17A25.48,25.48,0,0,1,142.64,83.3Z"/></g><path class="cls-6" d="M82.54,215.48a.89.89,0,0,0-.24-.42l-.4-.4a.79.79,0,0,0-.31-.2.77.77,0,0,0-.37-.08.8.8,0,0,0-.37.08.75.75,0,0,0-.3.2l-.15.19a.92.92,0,0,0-.13.49l0,.25a1,1,0,0,0,.25.42l.39.4a.79.79,0,0,0,.31.2.69.69,0,0,0,.37.08.67.67,0,0,0,.37-.08.79.79,0,0,0,.31-.2l.15-.19a1,1,0,0,0,.13-.48C82.57,215.65,82.55,215.57,82.54,215.48Z"/><path class="cls-6" d="M86.83,228l-.15-.19-.1-.08a.48.48,0,0,0,0-.17.66.66,0,0,0-.11-.35.72.72,0,0,0-.25-.27.76.76,0,0,0-.32-.17l-.26,0a.91.91,0,0,0-.48.13L85,227a.94.94,0,0,0-.25.42l0,.12a1.5,1.5,0,0,0,0,.37c0,.11,0,.21,0,.31s0,0,0,.06a1.73,1.73,0,0,0,.14.34l.06.12a2.83,2.83,0,0,0,.23.28,2.09,2.09,0,0,0,.28.22l0,0,.29.12a.82.82,0,0,0,.38,0,.7.7,0,0,0,.35-.12.64.64,0,0,0,.27-.24.75.75,0,0,0,.17-.33l0-.25A1,1,0,0,0,86.83,228Z"/><path class="cls-6" d="M90.47,217.36a.79.79,0,0,0-.2-.31.67.67,0,0,0-.31-.19.74.74,0,0,0-.36-.09l-.26,0a.89.89,0,0,0-.42.24l-.15.2a.91.91,0,0,0-.13.48v.4a.69.69,0,0,0,.08.37.75.75,0,0,0,.2.3.69.69,0,0,0,.31.2.65.65,0,0,0,.37.08l.25,0a1,1,0,0,0,.42-.25l.15-.19a.91.91,0,0,0,.13-.48v-.4A.67.67,0,0,0,90.47,217.36Z"/><path class="cls-6" d="M103.15,147.79a1,1,0,0,0,0,1.92A1,1,0,0,0,103.15,147.79Z"/><path class="cls-6" d="M108.33,136.23a1,1,0,0,0,0,1.91A1,1,0,0,0,108.33,136.23Z"/><path class="cls-6" d="M112.72,148.59a1,1,0,0,0,0,1.91A1,1,0,0,0,112.72,148.59Z"/><path class="cls-6" d="M238.2,249a.79.79,0,0,0-.31-.2.8.8,0,0,0-.37-.08,1,1,0,0,0-.68.28,1,1,0,0,0-.28.68v1.19a1,1,0,0,0,.28.68.79.79,0,0,0,.31.2.77.77,0,0,0,.37.08,1,1,0,0,0,.68-.28,1,1,0,0,0,.28-.68v-1.19A1,1,0,0,0,238.2,249Z"/><path class="cls-6" d="M237.92,260.23a1,1,0,0,0,0,1.92A1,1,0,0,0,237.92,260.23Z"/><path class="cls-6" d="M230.74,256.64a1,1,0,0,0,0,1.92A1,1,0,0,0,230.74,256.64Z"/><path class="cls-6" d="M240.31,239.1a1,1,0,0,0,0,1.91A1,1,0,0,0,240.31,239.1Z"/><path class="cls-6" d="M294.14,202.42a1,1,0,0,0,0,1.91A1,1,0,0,0,294.14,202.42Z"/><path class="cls-6" d="M298.92,192.05a1,1,0,0,0,0,1.91A1,1,0,0,0,298.92,192.05Z"/><path class="cls-6" d="M297.33,202a1,1,0,0,0,0,1.91A1,1,0,0,0,297.33,202Z"/><path class="cls-6" d="M259.17,257.35A.65.65,0,0,0,259,257a.67.67,0,0,0-.26-.24l-.23-.1a.89.89,0,0,0-.51,0l-.23.1a.86.86,0,0,0-.34.34c-.14.26-.27.53-.4.8a.73.73,0,0,0-.12.35.81.81,0,0,0,0,.38.74.74,0,0,0,.17.33.78.78,0,0,0,.27.24l.23.1a.89.89,0,0,0,.51,0l.23-.1a1,1,0,0,0,.34-.34c.13-.26.27-.53.4-.8a.63.63,0,0,0,.11-.35A.7.7,0,0,0,259.17,257.35Z"/><path class="cls-6" d="M265.83,247.87a1,1,0,0,0,0,1.92A1,1,0,0,0,265.83,247.87Z"/><path class="cls-6" d="M287.23,188.77q-1.77,7.77-3.52,15.56c-.28,1.2,1.57,1.71,1.84.51q1.76-7.78,3.52-15.57C289.34,188.08,287.5,187.56,287.23,188.77Z"/><path class="cls-6" d="M281.93,191.52q-2.12,6.4-4.24,12.81c-.39,1.17,1.46,1.67,1.85.5q2.11-6.39,4.24-12.8C284.17,190.86,282.32,190.35,281.93,191.52Z"/><path class="cls-6" d="M113.07,239.62a52.14,52.14,0,0,1-5.78-19.5c-.11-1.21-2-1.23-1.91,0a54.4,54.4,0,0,0,6,20.46C112,241.67,113.64,240.71,113.07,239.62Z"/><path class="cls-6" d="M75.79,172a32.54,32.54,0,0,0-.63,11,1,1,0,1,0,1.91,0,31.33,31.33,0,0,1,.56-10.53C77.9,171.3,76.06,170.79,75.79,172Z"/><path class="cls-6" d="M210.54,144.53a62.16,62.16,0,0,0-4.76,9.16c-.66,1.58-1.26,3.18-1.77,4.81a7.56,7.56,0,0,0-.2,4.9c.42,1.15,2.27.65,1.84-.5-.56-1.53-.08-3,.41-4.52s1.08-3.07,1.73-4.56a59,59,0,0,1,4.4-8.32C212.85,144.46,211.2,143.5,210.54,144.53Z"/><path class="cls-6" d="M213.45,148.19A40,40,0,0,0,207,164.84c-.17,1.2,1.67,1.72,1.85.5a38.75,38.75,0,0,1,6.22-16.19C215.79,148.13,214.13,147.17,213.45,148.19Z"/><path class="cls-6" d="M117.24,235.54a29.47,29.47,0,0,1-2.61-13.44c.05-1.23-1.86-1.22-1.91,0a31.46,31.46,0,0,0,2.87,14.4C116.1,237.62,117.75,236.65,117.24,235.54Z"/><path class="cls-5" d="M314.75,87.91c-.14,3.62-2.6,7.08-6.43,9-3.22,1.65-6.85,2.08-10.05,2.47Q234.85,107,171.44,114.57a15.37,15.37,0,0,1-8,10.08,24.67,24.67,0,0,1-11.35,2.41,51.21,51.21,0,0,1-6-.39c-22.8-2.64-45.6-13.77-67.74-33.07A79.42,79.42,0,0,1,65.21,79.71a36.26,36.26,0,0,1-6.89-18.17A20,20,0,0,1,58.69,56v0a12.61,12.61,0,0,1,2.48-5.28c2.44-3,6.47-4.67,12.29-5.18a56.79,56.79,0,0,1,26.92,4.22c16.49,2.14,32.67-1.76,49.8-5.89,13.44-3.24,27.33-6.59,41.28-6.68H192c25.51,0,49.93,10.83,71.49,20.4L303,75.06c2.75,1.23,10.65,4.72,11.62,11.18A8.38,8.38,0,0,1,314.75,87.91Z"/><path class="cls-4" d="M176.56,136.62s3.71,24.39-51.43,6S57.19,87.33,57.19,87.33c-2.69-22.65,1.31-31,1.5-31.36a20,20,0,0,0-.37,5.57,36.29,36.29,0,0,0,6.89,18.18A79.77,79.77,0,0,0,78.33,93.61c22.14,19.3,44.94,30.43,67.74,33.07a53.45,53.45,0,0,0,6,.39,24.8,24.8,0,0,0,11.35-2.41,15.35,15.35,0,0,0,8-10.08Z"/><path class="cls-4" d="M314.65,86.24c2.19,7.68,7.83,31.5-5.08,35.3-15.43,4.55-133,15.08-133,15.08l-5.13-22L298.26,99.42c3.2-.38,6.84-.81,10.06-2.47,3.82-2,6.29-5.42,6.42-9A8.44,8.44,0,0,0,314.65,86.24Z"/><path class="cls-6" d="M176.55,116.06c-.12-1.22-2-1.23-1.92,0,.62,6.61,1.44,13.28.91,19.92-.09,1.23,1.82,1.23,1.92,0C178,129.34,177.16,122.67,176.55,116.06Z"/><path class="cls-6" d="M156.91,142.21a1,1,0,0,0,0,1.92A1,1,0,0,0,156.91,142.21Z"/><path class="cls-6" d="M165.15,140.62a1,1,0,0,0,0,1.91A1,1,0,0,0,165.15,140.62Z"/><path class="cls-6" d="M160.63,133.71a1,1,0,0,0,0,1.91A1,1,0,0,0,160.63,133.71Z"/><path class="cls-6" d="M72.77,101.71a1,1,0,0,0-.25-.42l-.19-.15a1,1,0,0,0-.48-.13h-.27a.8.8,0,0,0-.37.08.9.9,0,0,0-.5.51.67.67,0,0,0-.08.37l0,.25a.94.94,0,0,0,.25.42l.19.15a.91.91,0,0,0,.48.13h.27a.69.69,0,0,0,.37-.08.66.66,0,0,0,.3-.2.61.61,0,0,0,.2-.3.69.69,0,0,0,.08-.37Z"/><path class="cls-6" d="M80.62,101.54a1,1,0,0,0,0,1.92A1,1,0,0,0,80.62,101.54Z"/><path class="cls-6" d="M82.07,112.08a.89.89,0,0,0-.24-.42l-.2-.15a.91.91,0,0,0-.48-.13h-.26a.65.65,0,0,0-.37.08A.87.87,0,0,0,80,112a.64.64,0,0,0-.08.36l0,.26a1,1,0,0,0,.25.42l.19.15a.92.92,0,0,0,.49.13h.26a.67.67,0,0,0,.37-.08.79.79,0,0,0,.31-.2.67.67,0,0,0,.19-.31.75.75,0,0,0,.09-.37Z"/><path class="cls-6" d="M103.77,97.5l-.15-.2a1,1,0,0,0-.42-.24L103,97a1,1,0,0,0-.49.14l-.53.26a.63.63,0,0,0-.26.25.68.68,0,0,0-.18.32.7.7,0,0,0,0,.38.66.66,0,0,0,.11.36l.15.19a1,1,0,0,0,.42.25l.26,0a.91.91,0,0,0,.48-.13l.53-.26a.81.81,0,0,0,.27-.25.76.76,0,0,0,.17-.32.74.74,0,0,0,0-.39A.77.77,0,0,0,103.77,97.5Z"/><path class="cls-6" d="M119.43,111.91a1,1,0,0,0,0,1.91A1,1,0,0,0,119.43,111.91Z"/><path class="cls-6" d="M129.34,107.18a.79.79,0,0,0-.2-.31.67.67,0,0,0-.31-.19.74.74,0,0,0-.36-.09l-.26,0a1,1,0,0,0-.42.24l-.15.2a.91.91,0,0,0-.13.48v.27a.64.64,0,0,0,.08.36.72.72,0,0,0,.2.31.69.69,0,0,0,.31.2.65.65,0,0,0,.37.08l.25,0a1,1,0,0,0,.42-.25l.15-.19a.91.91,0,0,0,.13-.48v-.27A.69.69,0,0,0,129.34,107.18Z"/><path class="cls-6" d="M113.58,102.61a1,1,0,0,0,0,1.91A1,1,0,0,0,113.58,102.61Z"/><path class="cls-6" d="M106.67,104.2a1,1,0,0,0,0,1.91A1,1,0,0,0,106.67,104.2Z"/><path class="cls-6" d="M102.81,61.31a1,1,0,0,0-.25-.42l-.27-.27a.6.6,0,0,0-.3-.19.81.81,0,0,0-.37-.09.78.78,0,0,0-.37.09.67.67,0,0,0-.31.19l-.15.2a1,1,0,0,0-.13.48c0,.08,0,.17,0,.25a.88.88,0,0,0,.24.43l.27.26a.72.72,0,0,0,.31.2.64.64,0,0,0,.36.08.65.65,0,0,0,.37-.08.79.79,0,0,0,.31-.2l.15-.19a.92.92,0,0,0,.13-.49Z"/><path class="cls-6" d="M114.38,56.89a1,1,0,0,0,0,1.91A1,1,0,0,0,114.38,56.89Z"/><path class="cls-6" d="M113.31,68.32a1,1,0,0,0,0,1.91A1,1,0,0,0,113.31,68.32Z"/><path class="cls-6" d="M126.34,59.55a1,1,0,0,0,0,1.91A1,1,0,0,0,126.34,59.55Z"/><path class="cls-6" d="M202.63,81.87a1,1,0,0,0,0,1.92A1,1,0,0,0,202.63,81.87Z"/><path class="cls-6" d="M215.41,74.64l-.15-.19a.86.86,0,0,0-.42-.25l-.25,0a.89.89,0,0,0-.48.13l-.54.26a.63.63,0,0,0-.26.25.68.68,0,0,0-.18.32.7.7,0,0,0,0,.38.66.66,0,0,0,.11.36l.15.19a1,1,0,0,0,.42.25l.26,0a.91.91,0,0,0,.48-.13l.53-.26a.81.81,0,0,0,.27-.25.76.76,0,0,0,.17-.32.74.74,0,0,0,0-.39A.77.77,0,0,0,215.41,74.64Z"/><path class="cls-6" d="M219.37,81.08a1,1,0,0,0,0,1.91A1,1,0,0,0,219.37,81.08Z"/><path class="cls-6" d="M209.27,89.05a1,1,0,0,0,0,1.91A1,1,0,0,0,209.27,89.05Z"/><path class="cls-6" d="M252.07,93a1,1,0,0,0,0,1.91A1,1,0,0,0,252.07,93Z"/><path class="cls-6" d="M275.85,89.75a1,1,0,0,0-.25-.42l-.19-.15a.91.91,0,0,0-.48-.13h-.8a.8.8,0,0,0-.37.08.79.79,0,0,0-.31.2.67.67,0,0,0-.19.31.78.78,0,0,0-.09.37l0,.25a1,1,0,0,0,.24.42l.2.15a.91.91,0,0,0,.48.13h.8a.69.69,0,0,0,.37-.08.92.92,0,0,0,.5-.5.69.69,0,0,0,.08-.37Z"/><path class="cls-6" d="M264.3,82.67a1,1,0,0,0,0,1.91A1,1,0,0,0,264.3,82.67Z"/><path class="cls-6" d="M282.9,78.42a1,1,0,0,0,0,1.91A1,1,0,0,0,282.9,78.42Z"/><path class="cls-6" d="M289,89.32a1,1,0,0,0,0,1.91A1,1,0,0,0,289,89.32Z"/><path class="cls-6" d="M310.79,103a1,1,0,0,0-1-1,1,1,0,0,0-1,1,113.61,113.61,0,0,1,.74,12.5,1,1,0,0,0,1.91,0A116.12,116.12,0,0,0,310.79,103Z"/><path class="cls-6" d="M305.63,108.08a1,1,0,0,0-1.92,0,52.35,52.35,0,0,1-.14,7.72,1,1,0,1,0,1.92,0A53.76,53.76,0,0,0,305.63,108.08Z"/><path class="cls-6" d="M185.09,128a45.7,45.7,0,0,1-.81-9.55,1,1,0,0,0-1.91,0,49.26,49.26,0,0,0,.87,10.06,1,1,0,0,0,1.18.67A1,1,0,0,0,185.09,128Z"/><path class="cls-6" d="M189.43,120.31a1,1,0,0,0-1.91,0l.27,5.32a1,1,0,0,0,1.91,0Z"/><path class="cls-13" d="M297.14,76.1a191.47,191.47,0,0,0-17.41-8.16c-6.13-2.63-12.33-5.08-18.56-7.45-12.6-4.77-25.29-9.31-38-13.94-6.44-2.35-12.84-4.84-19.34-7a50.5,50.5,0,0,0-9.61-2.35,38.91,38.91,0,0,0-9.94.13c-6.61.85-13.15,2.39-19.65,3.85s-13.05,3-19.58,4.45c-12.79,2.82-25.71,5.3-38.81,5.92a157.14,157.14,0,0,1-18.16-.43c-5.34-1.06-10.89-1.72-15.94.8a14,14,0,0,0-2.91,2c-1.09.69-3.91,9.69-3.51,12.12,1.8,10.92,9.62,19.83,17.55,27a138.93,138.93,0,0,0,28.07,19.67A141.75,141.75,0,0,0,127,119.71a88.37,88.37,0,0,0,16.82,5c6.31,1.06,13.15.76,18.43-3.25,3.93-3,6.64-7.52,6.46-12.43l80.58-8.24,20.82-2.12c6.34-.65,12.78-1,19.05-2.2a35.47,35.47,0,0,0,8.61-2.64c2.49-1.14,5.19-2.73,6.36-5.33C306.54,83.14,301.41,78.45,297.14,76.1Zm3,11.37c-1.49,2-4.42,3-6.66,3.81-5.59,1.88-11.6,2.19-17.42,2.79L256,96.12l-79.58,8.14-9.91,1a2,2,0,0,0-1.93,2.53c.92,4.12-1.54,8.17-4.78,10.55-4.07,3-9.37,3.33-14.22,2.62A78.87,78.87,0,0,1,130,116.6a131.82,131.82,0,0,1-14-6A134.52,134.52,0,0,1,90.5,93.91C83,87.72,75.37,80.6,71.54,71.48c-1.86-4.42-3.65-10.66.19-14.42,3-1.74,6.52-2.19,10-2.23,1.89,0,3.79.07,5.68.19l1.47.3a1.9,1.9,0,0,0,1.26-.12c2.71.2,5.42.41,8.13.45,12.64.19,25.24-1.6,37.62-4,12.57-2.47,25-5.65,37.54-8.28,6.36-1.33,12.9-2.89,19.44-2.31,6.26.55,12.26,3.16,18.11,5.3l37.1,13.56c12,4.41,24,8.89,35.71,14.19q4.33,2,8.58,4.07a23.65,23.65,0,0,1,6.55,4.18C300.28,83.69,301.49,85.67,300.12,87.47Z"/><path class="cls-6" d="M169.31,47.82c.53,3.7,1.07,7.4,1.58,11.09q1.35,9.77,2.63,19.53a1.35,1.35,0,0,0,1.3,1.29,1.3,1.3,0,0,0,1.29-1.29q-2-15.45-4.25-30.88C171,47.68,170.17,47.77,169.31,47.82Z"/><path class="cls-7" d="M201.48,38.36c-2.95,6.36-8.67,11.38-14.78,14.63a50.9,50.9,0,0,1-19.8,5.55c-7.68.61-16-.11-22.65-4.37-5.82-3.75-9.79-10-9.46-17A22.19,22.19,0,0,1,137,28.63c.05-.13.08-.27.13-.41,2.78-7.42,10.57-11.43,17.42-14.39,7.31-3.17,15.35-5.2,23.37-4.38a31.49,31.49,0,0,1,18.8,8.28,21.59,21.59,0,0,1,5.9,9.42A15.89,15.89,0,0,1,201.48,38.36Z"/><path class="cls-9" d="M160,46.59a11.06,11.06,0,0,1-8.46,5.59c-3.61.32-7-1.77-9.21-4.44-.21-.24-.39-.5-.58-.74A13.33,13.33,0,0,1,139,42.91,16.85,16.85,0,0,1,139.09,30a9.8,9.8,0,0,1,7.58-6.22,11.71,11.71,0,0,1,9.38,2.69C161.55,31,163.57,40.3,160,46.59Z"/><path class="cls-6" d="M166.42,17l-.54-3.5c-1-6.6-.85-6-1.95-12.57-.27-1.63-2.76-.94-2.49.69,1.28,7.69,1.25,8.16,2.45,15.86C164.73,17.31,165.58,17.15,166.42,17Z"/><path class="cls-6" d="M189.07,16.89a1.44,1.44,0,0,0,0,2.87A1.44,1.44,0,0,0,189.07,16.89Z"/><path class="cls-6" d="M196.23,25.75a1.33,1.33,0,0,0-.76-.76,1,1,0,0,0-.55-.12l-.38.05a1.42,1.42,0,0,0-.64.37l-.22.29a1.39,1.39,0,0,0-.2.72v.27a1.17,1.17,0,0,0,.13.55,1.06,1.06,0,0,0,.29.46,1.12,1.12,0,0,0,.47.3,1,1,0,0,0,.55.12l.38-.05a1.44,1.44,0,0,0,.63-.37l.23-.29a1.39,1.39,0,0,0,.19-.72V26.3A1,1,0,0,0,196.23,25.75Z"/><path class="cls-6" d="M190.4,34.7a1.44,1.44,0,0,0,0,2.87A1.44,1.44,0,0,0,190.4,34.7Z"/><path class="cls-6" d="M186.15,25.93a1.44,1.44,0,0,0,0,2.87A1.44,1.44,0,0,0,186.15,25.93Z"/><path class="cls-6" d="M179.77,31a1.44,1.44,0,0,0,0,2.87A1.44,1.44,0,0,0,179.77,31Z"/><path class="cls-6" d="M183.22,40.55a1.44,1.44,0,0,0,0,2.87A1.44,1.44,0,0,0,183.22,40.55Z"/><path class="cls-6" d="M190.67,42.68a1.43,1.43,0,0,0,0,2.86A1.43,1.43,0,0,0,190.67,42.68Z"/><path class="cls-6" d="M197.84,32.84a1.44,1.44,0,0,0,0,2.87A1.44,1.44,0,0,0,197.84,32.84Z"/><path class="cls-6" d="M156.32,37a22.88,22.88,0,0,0-2.71-6.18A8.64,8.64,0,0,0,149,26.94a5.41,5.41,0,0,0-6,2,7.22,7.22,0,0,0-1.3,3.71,15.09,15.09,0,0,0,1.08,9.85c1.64,3.65,5.85,6.52,9.86,4.73S157.28,40.71,156.32,37ZM152,44.25c-2.47,1.81-5.41-.5-6.54-2.72a12.83,12.83,0,0,1-1.18-4.19,1.14,1.14,0,0,0,.39-1,17.75,17.75,0,0,1-.12-3.38,6.23,6.23,0,0,1,.58-1.19,1.23,1.23,0,0,0,.11-1.23,2.27,2.27,0,0,1,2.49-1,5.23,5.23,0,0,1,3.34,2.55,21.62,21.62,0,0,1,2.14,4.44C154.05,39.05,154.41,42.48,152,44.25Z"/><path class="cls-7" d="M31.56,207.33a3.12,3.12,0,0,0-2.12-.88H28.33a3.1,3.1,0,0,0-2.12.88,3,3,0,0,0-.88,2.12,3,3,0,0,0,.88,2.12,3.08,3.08,0,0,0,2.12.88h1.11a3,3,0,0,0,2.12-5.12Z"/><path class="cls-7" d="M57.79,187.55c-3.86,0-3.86,6,0,6S61.66,187.55,57.79,187.55Z"/><path class="cls-7" d="M38.89,135.29c-3.86,0-3.87,6,0,6S42.76,135.29,38.89,135.29Z"/><path class="cls-7" d="M16.1,116.94c-3.87,0-3.87,6,0,6S20,116.94,16.1,116.94Z"/><path class="cls-7" d="M21.66,256.49c-3.87,0-3.87,6,0,6S25.52,256.49,21.66,256.49Z"/><path class="cls-7" d="M326.39,151.36a3,3,0,0,0-3.69-2.09,3,3,0,0,0-1.79,1.38l-.56,1.11a3.2,3.2,0,0,0-.3,2.31,3.05,3.05,0,0,0,1.38,1.79,3,3,0,0,0,2.31.3,3,3,0,0,0,1.79-1.38c.19-.37.38-.74.56-1.11A3.1,3.1,0,0,0,326.39,151.36Z"/><path class="cls-7" d="M323.52,201.07a2.68,2.68,0,0,0-1.59-1.59,2.4,2.4,0,0,0-1.15-.26l-.8.11a3,3,0,0,0-1.33.77l-.47.61a3,3,0,0,0-.4,1.51v.56a2.32,2.32,0,0,0,.25,1.16,2.25,2.25,0,0,0,.62,1,2.34,2.34,0,0,0,1,.62,2.2,2.2,0,0,0,1.16.26l.79-.11a3,3,0,0,0,1.33-.77l.47-.61a3.05,3.05,0,0,0,.41-1.51v-.56A2.4,2.4,0,0,0,323.52,201.07Z"/><path class="cls-7" d="M354.13,188.1c-3.86,0-3.86,6,0,6S358,188.1,354.13,188.1Z"/><path class="cls-7" d="M346.35,115.27c-3.86,0-3.87,6,0,6S350.22,115.27,346.35,115.27Z"/><path class="cls-7" d="M357.47,257.05c-3.86,0-3.87,6,0,6S361.34,257.05,357.47,257.05Z"/><path class="cls-14" d="M3.86,223.24c-5.14,0-5.15,8,0,8S9,223.24,3.86,223.24Z"/><path class="cls-14" d="M49.45,164.31c-5.14,0-5.15,8,0,8S54.61,164.31,49.45,164.31Z"/><path class="cls-14" d="M7.76,164.87c-5.15,0-5.16,8,0,8S12.91,164.87,7.76,164.87Z"/><path class="cls-14" d="M51.06,111.67a4,4,0,0,0-1-1.77,4.56,4.56,0,0,0-3.36-1.41,7.53,7.53,0,0,0-1.2.15,3.92,3.92,0,0,0-.63.25,3.8,3.8,0,0,0-1.54,1,4.17,4.17,0,0,0-1.17,2.83,3,3,0,0,0,.34,1.54,3,3,0,0,0,.83,1.29,4,4,0,0,0,2.83,1.17l.36,0a3.35,3.35,0,0,0,.71.06,3,3,0,0,0,1.54-.34,3,3,0,0,0,1.29-.83,4,4,0,0,0,1.17-2.83C51.16,112.38,51.11,112,51.06,111.67Z"/><path class="cls-14" d="M378.36,134.52a3.08,3.08,0,0,0-.83-1.29l-.81-.62a3.94,3.94,0,0,0-2-.55l-1.07.15a4,4,0,0,0-1.76,1l-.56.56a3.06,3.06,0,0,0-.83,1.29,3.66,3.66,0,0,0,0,3.08,3.12,3.12,0,0,0,.83,1.29l.81.62a4,4,0,0,0,2,.55l1.06-.14a4.06,4.06,0,0,0,1.77-1l.55-.56a3,3,0,0,0,.83-1.29,3.56,3.56,0,0,0,0-3.08Z"/><path class="cls-14" d="M338,170.43c-5.15,0-5.16,8,0,8S343.17,170.43,338,170.43Z"/><path class="cls-14" d="M381.93,208.23c-5.14,0-5.15,8,0,8S387.09,208.23,381.93,208.23Z"/><path class="cls-14" d="M345.24,227.14c-5.15,0-5.16,8,0,8S350.39,227.14,345.24,227.14Z"/><path class="cls-14" d="M349.7,281.71l-1.11-1.11a3,3,0,0,0-1.28-.83,3.68,3.68,0,0,0-3.09,0,3,3,0,0,0-1.28.83,4.06,4.06,0,0,0-1.18,2.83,4.18,4.18,0,0,0,1.18,2.83l1.11,1.11a3,3,0,0,0,1.28.83,3.66,3.66,0,0,0,3.08,0,3,3,0,0,0,1.29-.83,4,4,0,0,0,1.17-2.83A4.13,4.13,0,0,0,349.7,281.71Z"/></svg>