<svg xmlns="http://www.w3.org/2000/svg" xmlns:cc="http://creativecommons.org/ns#" xmlns:dc="http://purl.org/dc/elements/1.1/" xmlns:inkscape="http://www.inkscape.org/namespaces/inkscape" xmlns:rdf="http://www.w3.org/1999/02/22-rdf-syntax-ns#" xmlns:sodipodi="http://sodipodi.sourceforge.net/DTD/sodipodi-0.dtd" xmlns:svg="http://www.w3.org/2000/svg" version="1.1" id="Layer_1" x="0px" y="0px" viewBox="0 0 30.2 65.2" enable-background="new 0 0 30.2 65.2" xml:space="preserve" sodipodi:docname="waiter-1.svg" inkscape:version="1.0.2-2 (e86c870879, 2021-01-15)"><metadata id="metadata163"><rdf:rdf><cc:work rdf:about=""><dc:format>image/svg+xml</dc:format><dc:type rdf:resource="http://purl.org/dc/dcmitype/StillImage"></dc:type>
  <dc:title></dc:title></cc:work></rdf:rdf></metadata><defs id="defs161"></defs><sodipodi:namedview pagecolor="#ffffff" bordercolor="#666666" borderopacity="1" objecttolerance="10" gridtolerance="10" guidetolerance="10" inkscape:pageopacity="0" inkscape:pageshadow="2" inkscape:window-width="1366" inkscape:window-height="705" id="namedview159" showgrid="false" inkscape:zoom="8.2515341" inkscape:cx="15.1" inkscape:cy="32.599998" inkscape:window-x="-8" inkscape:window-y="-8" inkscape:window-maximized="1" inkscape:current-layer="Layer_1">

</sodipodi:namedview>
<g id="g156">
<g opacity="0.5" id="g4">
  <path fill="#9C8BAF" d="M19.7,64c-4.8,0-8.7-2-9.2-4.5C11,57,14.9,55,19.7,55s8.7,2,9.2,4.5C28.4,62.1,24.5,64,19.7,64z" id="path2"></path>
</g>
<g id="g154">
  
  <path fill="#F79F8E" d="M15.7,37.5c0,0,0.4,2.7,0.4,3.9s0,1.7,0.3,3.2c0.2,1.4,0.6,7,0.6,8.9c0,1.9-1.1,3.6-1.6,4.2    c-0.4,0.7,0.9,1.7,1.9,0.7s1.1-1.2,1.7-1.5s1-1.6,0.5-3.1s-0.2-4.3,0.3-6.9c0.5-2.5-0.2-5.7,0.1-6.5    C20.3,39.8,15.7,37.5,15.7,37.5z" id="path10"></path>
  <path fill="#362D4F" d="M15.5,57.7c0,0-1.3,1-1.7,1.6c-0.4,0.5,0.9,1.3,2.1,0.8c1.2-0.4,2.3-1.6,3.2-2.5c1-0.9,1.2-1.2,1.2-2.2    c0-0.5-0.5-1-0.5-1s-0.3,2-1.7,2.8C16.8,58.1,16.2,58.2,15.5,57.7z" id="path12"></path>
  <path fill="#FBC0A6" d="M19.6,39.7c0,0,0.2,2.7,0.2,3.9s0.2,1.6,0.6,3s0.6,7.2,0.6,9.1s-1.1,3.6-1.6,4.2c-0.4,0.7,0.9,1.7,1.9,0.7    s1.1-1.2,1.7-1.5s1-1.6,0.5-3.1s-0.2-4.3,0.3-6.9c0.5-2.5-0.3-5.8-0.1-6.5c0.4-1.9,1.5-4.9,0.4-5.6C23,36.4,19.6,39.7,19.6,39.7z" id="path14"></path>
  <path fill="#362D4F" d="M19.4,59.9c0,0-1.3,1-1.7,1.6c-0.4,0.5,0.9,1.3,2.1,0.8c1.2-0.4,2.3-1.6,3.2-2.5c1-0.9,1.2-1.2,1.2-2.2    c0-0.5-0.5-1-0.5-1s-0.3,2-1.7,2.8C20.7,60.3,20.1,60.4,19.4,59.9z" id="path16"></path>
  <path fill="#F3C6DD" d="M25.6,17c-0.2-0.9-3.1-2.9-3.1-2.9s-1.6,1.3-2.2,1.7c-0.5,0.4-1.4,0-0.9-1.6c0.2-0.5-0.1-1.9-0.1-1.9    s-0.2-0.1-0.6-0.1c-0.5,0.5-1.5,2-2,2.6c-0.5,0.6-2.5,2.4-1.9,4.3c0.2,0.6,0.4,1,0.7,1.7c0.3,0.8,0.3,2.2,0.3,3    c0,0.9-0.9,3.3-0.9,3.3s2.1,2.4,4.4,2.3c2.6-0.1,4.5-2,4.5-2s-0.6-4-0.5-5.6C23.2,22,26.4,20.2,25.6,17z" id="path18"></path>
  <path fill="#E96D64" d="M15.1,34.7c0,0,0.4,5,0.7,8.8c0.1,1.2,0.4,3.4,0.4,5.5c0,1.4-0.3,7.6-0.3,7.6s1.4,1,3,0.5    c0.7-0.2,1.4-1.7,1.4-1.7s0.8-10.3,0.6-10.8c-0.2-0.5,0-11.6-0.3-13.7C20.4,29,15.1,34.7,15.1,34.7z" id="path20"></path>
  <path fill="#F69381" d="M19.3,33.4c0,0-0.1,10.6,0.2,12.6c0.3,2,0.4,5.9,0.3,8.5s-0.2,4.8-0.2,4.8s1.9,1.1,3.5-0.1    C24.5,58.1,25,57,25,57s-0.6-2.8-0.4-5.6s-0.2-6,0-7.9c0.2-1.3,1.2-5.8,1.1-9.8c0-1.8-0.3-3.1-1.1-4.7    C23.1,26.4,19.3,33.4,19.3,33.4z" id="path22"></path>


  
  <g id="tray-hand">
  
  <path fill="#ED1F31" d="M20,18.8c0,0,1.5-2.6,1.9-3.3c0.3-0.7,0.6-1.5,0.6-1.5s0.4,0,0.5,0c0,0,0.4,0.3,0.1,1.1     c-0.3,1.1-2.1,4-2.1,4L20,18.8z" id="path32"></path>
      
  <path fill="#F3C6DD" d="M10.8,21.4c0.3,0.3,0.6,0.5,0.9,1.3c0.3,0.7,0.2,1.3,0.6,1.1c0.4-0.2,1-0.5,1-1c0.1-0.5-0.5-2.1-1.3-2.5    c-0.4-0.2-0.7,0.1-1,0.4C10.7,20.8,10.4,21.1,10.8,21.4z" id="path152"></path>

  <path fill="#FBC0A6" d="M11.5,21c-0.8,0.5-3.6,2.2-5.3,3.2c-1.5,0.9-1.5,2-1.5,2s5.6-1.7,7.4-2.8L11.5,21z" id="path6"></path>
      
  
  <path fill="#D6A4C0" d="M16.9,13.1c-1.4,0.7-4,5.9-4.4,6.5c-0.3,0.4-0.7,0.7-1.1,1.1c0.7,0.6,1.2,1.5,1.5,2.3    c1.3-1.1,2.8-2.9,2.8-2.9l3.6-7.1C19.2,13.1,18.3,12.5,16.9,13.1z" id="path8"></path>
  
  
    <path fill="#ED1F31" d="M14.6,20c0.2,1.1,0.3,2.5,0.5,4.3c0.3,2.9-0.7,12.3-0.7,13.4c-0.1,3,0,6.6,0,6.6s2.7,3.1,7.1,2.2    c4.4-0.9,5.1-3.3,5.1-3.3s-0.2-10.7-0.3-12.6c-0.1-1.9-2.1-5.8-2.1-5.8s-0.6,0.3-1.1,0.2c-1-0.2-1.7-0.6-1.9-2.7    c-0.1-1-0.2-2.3-0.1-3.3c-2.2-0.8-3.8-1.3-5.1-2.2C14.9,18.3,14.4,18.8,14.6,20z" id="path26"></path>
  
  <path fill="#FBC0A6" d="M5.8,25c0,0-0.3,1-0.3,1.5c-0.1,0.5,0.9,0.4,1.1-0.7s0.5-1.2,0.5-1.2L5.8,25z" id="path128"></path>
  
  <g id="g60">
    <polygon fill="#F4F4F4" points="24.6,31.8 15.4,37.1 1.2,28.9 10.3,23.6    " id="polygon46"></polygon>
    <polygon fill="#646464" points="10.3,23.9 23.1,31.3 15.4,35.8 2.5,28.4    " id="polygon48"></polygon>
    <path fill="#9B9B9B" d="M10.3,22.9l14.2,8.2l-9.2,5.3L1.2,28.3L10.3,22.9z M23.1,31.3l-12.8-7.4l-7.8,4.5l12.8,7.4L23.1,31.3z" id="path50"></path>
    <polygon fill="#646464" points="15.4,36.4 15.4,37.1 24.6,31.8 24.6,31.1    " id="polygon52"></polygon>
    <polygon fill="#7D7D7D" points="15.4,36.4 15.4,37.1 1.2,28.9 1.2,28.3    " id="polygon54"></polygon>
    <polygon fill="#7D7D7D" points="23.6,31.1 23.1,31.3 10.3,23.9 10.3,23.4    " id="polygon56"></polygon>
    <polygon fill="#7D7D7D" points="2.1,28.2 10.3,23.4 10.3,23.9 2.5,28.4    " id="polygon58"></polygon>
  </g>
  <g id="g68">
    <path fill="#F47C48" d="M6.8,26.9c-1.3,0.3-2.2,1.6-1.3,2.4c0.8,0.8,2.4,0,2.9-0.7C9,27.9,8.2,26.5,6.8,26.9z" id="path62"></path>
    <path fill="#EA642E" d="M5.6,27.6c0,0,0.5,0,0.9,0.4c0.3,0.3,0.6,0.7,0.6,0.7S7,28,6.5,27.7c-0.3-0.3-0.8-0.2-0.8-0.2L5.6,27.6z" id="path64"></path>
    <path fill="#EA642E" d="M6.2,27.1c0,0,0.6,0.1,1,0.4c0.3,0.3,0.6,0.7,0.6,0.7s-0.1-0.6-0.5-1C6.9,27,6.4,27,6.4,27L6.2,27.1z" id="path66"></path>
  </g>
  <g id="g76">
    <path fill="#F47C48" d="M10.2,24.7C8.9,25,8,26.3,8.9,27.1c0.8,0.8,2.4,0,2.9-0.7C12.4,25.8,11.7,24.4,10.2,24.7z" id="path70"></path>
    <path fill="#EA642E" d="M9,25.4c0,0,0.5,0,0.9,0.4c0.3,0.3,0.6,0.7,0.6,0.7s-0.1-0.6-0.5-1c-0.3-0.3-0.8-0.2-0.8-0.2L9,25.4z" id="path72"></path>
    <path fill="#EA642E" d="M9.6,25c0,0,0.6,0.1,1,0.4c0.3,0.3,0.6,0.7,0.6,0.7s-0.1-0.6-0.5-1c-0.3-0.3-0.8-0.2-0.8-0.2L9.6,25z" id="path74"></path>
  </g>
  <g id="g84">
    <path fill="#F47C48" d="M9.6,28.7c-1.3,0.3-2.2,1.6-1.3,2.4c0.8,0.8,2.4,0,2.9-0.7C11.8,29.7,11,28.3,9.6,28.7z" id="path78"></path>
    <path fill="#EA642E" d="M8.4,29.3c0,0,0.5,0,0.9,0.4c0.3,0.3,0.6,0.7,0.6,0.7s-0.1-0.6-0.5-1c-0.3-0.3-0.8-0.2-0.8-0.2L8.4,29.3z     " id="path80"></path>
    <path fill="#EA642E" d="M9,28.9c0,0,0.6,0.1,1,0.4c0.3,0.3,0.6,0.7,0.6,0.7s-0.1-0.6-0.5-1c-0.3-0.3-0.8-0.2-0.8-0.2L9,28.9z" id="path82"></path>
  </g>
  <g id="g92">
    <path fill="#F47C48" d="M13.1,26.5c-1.3,0.3-2.2,1.6-1.3,2.4c0.8,0.8,2.4,0,2.9-0.7C15.2,27.5,14.5,26.2,13.1,26.5z" id="path86"></path>
      <path fill="#ED1F31" d="M15.8,16.9l2.5-3.7l0.8,0.2c0,0-0.8,1.2-1.5,2.4c-0.3,0.5-0.9,1.7-0.9,1.7L15.8,16.9z" id="path24"></path>
    <path fill="#EA642E" d="M11.8,27.2c0,0,0.5,0,0.9,0.4c0.3,0.3,0.6,0.7,0.6,0.7s-0.1-0.6-0.5-1C12.5,27,12,27,12,27L11.8,27.2z" id="path88"></path>
    <path fill="#EA642E" d="M12.5,26.7c0,0,0.6,0.1,1,0.4c0.3,0.3,0.6,0.7,0.6,0.7s-0.1-0.6-0.5-1c-0.3-0.3-0.8-0.2-0.8-0.2     L12.5,26.7z" id="path90"></path>
  </g>
  <g id="g100">
    <path fill="#F47C48" d="M12.6,30.4c-1.3,0.3-2.2,1.6-1.3,2.4c0.8,0.8,2.4,0,2.9-0.7C14.8,31.5,14,30.1,12.6,30.4z" id="path94"></path>
    <path fill="#EA642E" d="M11.4,31.1c0,0,0.5,0,0.9,0.4c0.3,0.3,0.6,0.7,0.6,0.7s-0.1-0.6-0.5-1C12,30.9,11.6,31,11.6,31L11.4,31.1     z" id="path96"></path>
    <path fill="#EA642E" d="M12,30.7c0,0,0.6,0.1,1,0.4c0.3,0.3,0.6,0.7,0.6,0.7s-0.1-0.6-0.5-1c-0.3-0.3-0.8-0.2-0.8-0.2L12,30.7z" id="path98"></path>
  </g>
  <g id="g108">
    <path fill="#F47C48" d="M16,28.3c-1.3,0.3-2.2,1.6-1.3,2.4c0.8,0.8,2.4,0,2.9-0.7C18.2,29.3,17.5,27.9,16,28.3z" id="path102"></path>
    <path fill="#EA642E" d="M14.8,29c0,0,0.5,0,0.9,0.4c0.3,0.3,0.6,0.7,0.6,0.7s-0.1-0.6-0.5-1c-0.3-0.3-0.8-0.2-0.8-0.2L14.8,29z" id="path104"></path>
    <path fill="#EA642E" d="M15.4,28.5c0,0,0.6,0.1,1,0.4c0.3,0.3,0.6,0.7,0.6,0.7s-0.1-0.6-0.5-1c-0.3-0.3-0.8-0.2-0.8-0.2     L15.4,28.5z" id="path106"></path>
  </g>
  <g id="g116">
    <path fill="#F47C48" d="M15.5,32.1c-1.3,0.3-2.2,1.6-1.3,2.4c0.8,0.8,2.4,0,2.9-0.7C17.7,33.2,17,31.8,15.5,32.1z" id="path110"></path>
    <path fill="#EA642E" d="M14.3,32.8c0,0,0.5,0,0.9,0.4c0.3,0.3,0.6,0.7,0.6,0.7s-0.1-0.6-0.5-1c-0.3-0.3-0.8-0.2-0.8-0.2     L14.3,32.8z" id="path112"></path>
    <path fill="#EA642E" d="M14.9,32.4c0,0,0.6,0.1,1,0.4c0.3,0.3,0.6,0.7,0.6,0.7s-0.1-0.6-0.5-1c-0.3-0.3-0.8-0.2-0.8-0.2     L14.9,32.4z" id="path114"></path>
  </g>
  <g id="g124">
    <path fill="#F47C48" d="M19,30c-1.3,0.3-2.2,1.6-1.3,2.4c0.8,0.8,2.4,0,2.9-0.7C21.2,31,20.4,29.6,19,30z" id="path118"></path>
    <path fill="#EA642E" d="M17.8,30.7c0,0,0.5,0,0.9,0.4c0.3,0.3,0.6,0.7,0.6,0.7s-0.1-0.6-0.5-1c-0.3-0.3-0.8-0.2-0.8-0.2     L17.8,30.7z" id="path120"></path>
    <path fill="#EA642E" d="M18.4,30.2c0,0,0.6,0.1,1,0.4c0.3,0.3,0.6,0.7,0.6,0.7s-0.1-0.6-0.5-1c-0.3-0.3-0.8-0.2-0.8-0.2     L18.4,30.2z" id="path122"></path>
  </g>
  <path fill="#FBC0A6" d="M22.5,27.8c-0.4,0.7-1.8,4.2-2.1,4.4c-0.9,0.9-2.1,1.1-2.6,1.5s-0.4,0.9,0,0.6c0.4-0.2,1.3-0.4,1.3-0.4    s-1,1-1.1,1.8c-0.1,0.5,0.4,1,1.8,0.2c1-0.5,2-2.7,2.5-3.2c0.2-0.2,2.3-2.7,2.9-3.5C25.3,29.3,23.3,28.1,22.5,27.8z" id="path126"></path>
    <path fill="#F3C6DD" d="M22.5,26.5c-0.2,0.4-0.4,1-0.6,1.6c-0.2,0.5-0.4,0.6,0.5,1.3c0.9,0.7,1.9,1.7,2.3,1.4    c0.6-0.4,1-1.4,1.3-1.9C26.4,28.2,22.9,25.6,22.5,26.5z" id="path150"></path>
      <path fill="#D6A4C0" d="M23.1,25.2c-0.1,0.7-0.4,1.7-0.7,2.7c0.4,0.7,1.4,1.4,2.1,1.8c0.2,0.1,0.4,0.2,0.5,0.3    c0.6-0.9,1-1.7,1.2-2.2c0.4-1.4,0.8-6.4,0.2-9.5c-0.3-1.7-1.4-2.5-2.1-2.8c-0.6-0.2-1.4,1.2-1.5,2.3C22.3,20,23.4,23.4,23.1,25.2z    " id="path130"></path>
      
  </g>
  

  
  
        
  
  <path fill="#D6A4C0" d="M18.6,14c0,0-0.2,1.2,0,1.6c0.2,0.6,0.6,1,0.6,1s1.6-0.2,2.5-0.8c0.9-0.6,1-1,1-1l-0.1-1.1     c0,0-1.9,0.8-2.4,1.3c-0.9,1.1-1,1.6-1,1.6L19,14.5L18.6,14z" id="path30"></path>

      <g id="head-down">
      <path fill="#FBC0A6" d="M20.7,11.2c0,0,0.1-0.7,0.6-1c0.6-0.3,0.6,0.9,0.3,1.3C21.2,12,20.7,11.2,20.7,11.2z" id="path132"></path>
      <g id="g44">
    <path fill="#F79F8E" d="M19.2,12.6c0,0-0.2,0.4-0.3,1c0,0.5,0.1,1.1,0,1.5c-0.1,0.2,0,1.2,0.2,1.5c0.3-0.2,1.1-0.3,1.4-0.6     c0.6-0.6,1.9-1.6,1.9-1.6S22.1,13,22,12.2c-0.1-1.4,0.1-3,0.1-3L19.2,12.6z" id="path28"></path>
    

    <path fill="#362D4F" d="M19.1,16.6c0,0,0.2-1.4,0.9-2c0.9-0.7,2.3-1.4,2.3-1.4l0.1,0.4c0,0-1.4,0.7-2.2,1.2     C19.8,15.1,19.1,16.6,19.1,16.6z" id="path34"></path>
    <path fill="#362D4F" d="M18.5,13.9c0,0,0.1,0.7,0.2,1.2c0,0.3,0.3,1.5,0.3,1.5s0-2.3-0.2-2.5C18.7,14,18.5,13.9,18.5,13.9z" id="path36"></path>
    <g id="g40">
      <path fill="#FBC0A6" d="M20.8,6.8c-1.1-0.8-3.6-0.9-4.4,1.8c-0.8,2.8,1.8,6.1,3.1,5.4c0.7-0.4,2.3-1.7,2.7-3.2      C22.6,9.2,21.7,7.4,20.8,6.8z" id="path38"></path>
    </g>
    <path fill="#362D4F" d="M22.4,7.4c-0.2-0.9-0.9-1.9-1.7-2.2c-1.6-0.6-1.8,0.3-3.2,1.7c-0.8,0.8-1.7,1.1-1.6,2.6     c0,0,0.9,1.2,3.2,1.3c1.1,0.1,2.4-0.9,2.9,0.5C22.8,10,22.7,8.4,22.4,7.4z" id="path42"></path>
  </g>
      <ellipse fill="#D6A4C0" cx="19.3" cy="8.4" rx="3.3" ry="1.7" id="ellipse136"></ellipse>
      <polygon fill="#D6A4C0" points="16.1,7.4 16.1,8.4 22.6,8.4 22.6,7.4   " id="polygon138"></polygon>
      <path fill="#F3C6DD" d="M22.6,7.4c0,0.9-1.4,1.7-3.2,1.7c-1.8,0-3.2-0.7-3.2-1.7c0-0.9,1.4-1.7,3.2-1.7    C21.2,5.8,22.6,6.5,22.6,7.4z" id="path140"></path>
      <path fill="#F3C6DD" d="M16.1,8.2c0,0,0.5,1.1,2.8,1.4c2,0.2,3.7-1.2,3.7-1.2L22.5,4h-6.3L16.1,8.2z" id="path134"></path>
<g id="g144">
    <path fill="#D6A4C0" d="M22.4,3.7c-0.5-1.7-3-1.5-4.4-1.3c-0.6,0.1-0.9,0.4-1.3,0.9s-0.3,1.2-0.4,2.1c0.3,0.2,0.7,0.2,1,0.2     c0.1,0,0.2,0,0.3,0c0.3,1.3,2.1,1.9,3.3,1.8c0.9-0.1,1.8-0.8,1.8-1.9C22.6,4.9,22.6,4.2,22.4,3.7z" id="path142"></path>
  </g>
  <g id="g148">
    <path fill="#FCE2ED" d="M23.5,4.6c0.6-0.5,0.8-1.5,0.2-2.2c-0.8-1.1-2.4-1.1-3.7-0.5c-0.5-0.8-1-1.1-2.2-1     c-0.8,0.1-1,0.9-0.7,1.7c-0.9-0.3-2-0.1-2.1,1c-0.1,1.6,1.4,1.8,2.6,1.5c0.1,0.4,0.3,0.6,0.7,1c0.6,0.5,1.4,0.8,2.1,0.7     c1.1-0.1,1.7-0.9,1.4-1.7C22.5,5.2,23.1,5,23.5,4.6z" id="path146"></path>
  </g>
</g>
</g>
</g>
</svg>