<svg id="Layer_1" data-name="Layer 1" xmlns="http://www.w3.org/2000/svg" viewBox="0 0 1586.03 421.17"><defs><style>.cls-1,.cls-4{fill:none;stroke-linecap:round;stroke-width:5.12px;}.cls-1,.cls-4,.cls-5{stroke:#000;stroke-miterlimit:10;}.cls-2{fill:#ffe500;}.cls-3{fill:#fff;}.cls-4{stroke-dasharray:0 13;}</style></defs><line class="cls-1" x1="137.24" y1="306.14" x2="137.24" y2="306.14"/><line class="cls-1" x1="137.24" y1="318" x2="137.24" y2="318"/><line class="cls-1" x1="792.81" y1="306.14" x2="792.81" y2="306.14"/><line class="cls-1" x1="792.81" y1="319" x2="792.81" y2="319"/><line class="cls-1" x1="1448.39" y1="306.14" x2="1448.39" y2="306.14"/><line class="cls-1" x1="1448.39" y1="318.84" x2="1448.39" y2="318.84"/><path class="cls-2" d="M1586,140.89A137.47,137.47,0,0,1,1543.32,237a58.65,58.65,0,0,0-5.63,4.31,137,137,0,0,1-181.86-2.75,49.21,49.21,0,0,0-5-4c-15.33-10.82-35.69-12.46-53.13-4.66l-7.3,3.27a55.13,55.13,0,0,0-32.62,50.33A137.37,137.37,0,0,1,1177.17,409l-.31.14c-1.86.85-3.76,1.63-5.65,2.4-.36.13-.72.28-1.07.42-1.73.67-3.48,1.3-5.23,1.9-.56.18-1.11.39-1.68.58-1.61.53-3.25,1-4.89,1.48l-2.17.62c-1.53.42-3.08.78-4.62,1.13-.87.2-1.74.42-2.62.6-1.44.31-2.9.57-4.36.83l-3,.52c-1.38.2-2.77.38-4.15.55-1.12.14-2.25.28-3.37.39-1.3.13-2.62.21-3.94.3s-2.45.18-3.69.24-2.5.06-3.75.08-2.65,0-4,0-2.39-.06-3.58-.1c-1.43-.06-2.84-.13-4.27-.22a7.17,7.17,0,0,1-1.38-.09c-.86-.05-1.72-.17-2.57-.25s-1.4-.1-2.11-.18c-.24,0-.47-.09-.7-.11-3-.37-6.06-.85-9-1.42-1.1-.2-2.17-.41-3.26-.64-2.53-.54-5-1.16-7.54-1.86-1.5-.4-3-.84-4.48-1.3-1.83-.58-3.63-1.19-5.42-1.84-2.13-.76-4.21-1.57-6.29-2.44l-.56-.24a137.91,137.91,0,0,1-79.47-91c-.08-.31-.16-.64-.24-1-.82-3.15-1.53-6.31-2.12-9.54-.24-1.32-.46-2.64-.67-4-.17-1.16-.44-2.3-.59-3.47A142.11,142.11,0,0,1,983.36,287c-.53-23.95-14.25-45.63-36.13-55.42a62.18,62.18,0,0,0-9.56-3.33,61.44,61.44,0,0,0-55.46,13.08,138.84,138.84,0,0,1-20.9,14.81h0q-2.76,1.56-5.58,3.05a3.1,3.1,0,0,0-.51.27c-1.75.89-3.5,1.74-5.28,2.55l-.78.36c-1.73.77-3.48,1.53-5.25,2.23l-.85.35-5.41,2-.76.27c-2,.66-3.95,1.3-6,1.88l-.31.09A137.14,137.14,0,0,1,811,273.28l-1.68.19c-1.61.19-3.23.37-4.85.5-.78.07-1.57.12-2.36.17-1.41.1-2.83.18-4.26.23l-2.73.07h-3.89l-3.24-.08c-1.17-.05-2.34-.09-3.49-.18a15.25,15.25,0,0,1-2-.09c-.7-.09-1.24-.13-1.88-.17l-2-.2c-1.55-.16-3.09-.34-4.63-.55l-1.57-.23c-1.6-.25-3.2-.51-4.79-.81l-1.51-.28c-1.55-.31-3.08-.65-4.62-1l-1.68-.4c-1.4-.35-2.78-.73-4.17-1.12l-2.1-.6c-1.17-.35-2.34-.73-3.49-1.11-.91-.3-1.8-.59-2.69-.9l-2.63-1c-1.16-.42-2.3-.86-3.43-1.33-.54-.2-1.07-.45-1.6-.67-1.44-.61-2.88-1.23-4.3-1.89l-.42-.2a137.35,137.35,0,0,1-34.63-23c-15.69-14.34-38.71-17.35-58.12-8.67l-7.29,3.27a55.12,55.12,0,0,0-32.62,50.4v.35c0,80.87-70.32,145.63-153,136.36-62.25-7-112.65-56.71-120.39-118.86A142.27,142.27,0,0,1,327.82,287c-.53-23.95-14.25-45.63-36.13-55.42a60.61,60.61,0,0,0-64.49,9.24A136.71,136.71,0,0,1,127,274.12C60.12,269.22,5.77,215.25.45,148.45-6.28,64,63.93-6.23,148.36.47c66.95,5.29,121,59.85,125.77,126.85.16,2.29.26,4.58.32,6.84.53,24,14.26,45.64,36.33,55.51l1,.45a58.86,58.86,0,0,0,62.87-9.41,137,137,0,0,1,182.88,1.87c15.7,14.35,38.72,17.35,58.13,8.67l7.28-3.26a55.18,55.18,0,0,0,32.64-50.34,136.53,136.53,0,0,1,33.68-90.4h0q2.16-2.46,4.42-4.82l.32-.34c1.44-1.49,2.92-3,4.42-4.38l.57-.53c1.45-1.37,2.94-2.71,4.46-4l.77-.66c1.48-1.26,3-2.47,4.51-3.66.31-.25.64-.49.95-.73,1.5-1.15,3-2.27,4.58-3.35.37-.26.74-.5,1.09-.76,1.54-1,3.09-2.08,4.67-3.06.4-.25.81-.51,1.22-.75,1.57-1,3.14-1.9,4.75-2.8l1.32-.71c1.6-.88,3.22-1.74,4.86-2.55l1.37-.64c1.65-.8,3.31-1.58,5-2.31l1.39-.56c1.71-.72,3.42-1.42,5.17-2.07l1.26-.44c1.8-.65,3.61-1.28,5.46-1.86l.67-.2A133.6,133.6,0,0,1,771,1.78c.54-.09,1.08-.2,1.62-.27,1.33-.2,2.68-.34,4-.5,1.13-.13,2.24-.29,3.38-.39s2.38-.17,3.57-.25,2.63-.18,3.95-.24h7.64c1.07,0,2.13.08,3.2.12s2.22,0,3.33.12c.44,0,.87.09,1.31.12h.83c.66,0,1.3.13,1.94.19,1.1.11,2.2.21,3.3.34s2.06.26,3.08.41,2,.29,3,.45,2.19.4,3.27.61c.93.17,1.85.34,2.78.54,1.13.24,2.26.51,3.38.77l2.57.64c1.17.3,2.32.64,3.48,1,.8.23,1.61.45,2.39.71,1.18.35,2.34.75,3.49,1.14l2.3.79c1.16.41,2.3.86,3.46,1.31l2.23.88c1.12.46,2.23,1,3.34,1.45.75.32,1.5.66,2.26,1,1,.49,2.09,1,3.14,1.53.77.38,1.56.77,2.33,1.17,1,.5,1.94,1,2.91,1.57s1.64.9,2.45,1.37,1.73,1,2.6,1.55l2.63,1.63L868.44,23c.94.64,1.9,1.27,2.84,1.93l1.84,1.33c1,.76,2.08,1.53,3.11,2.31l1.4,1.11c1.13.91,2.26,1.82,3.37,2.75l1,.83c1.24,1.06,2.46,2.13,3.66,3.24.18.15.34.32.5.48,1.33,1.23,2.65,2.49,3.93,3.79a.17.17,0,0,0,.06.06,136.76,136.76,0,0,1,39.51,85.69c.19,2.56.32,5.13.38,7.67a63.41,63.41,0,0,0,10.06,33,60.79,60.79,0,0,0,84.07,18c1.32-.85,2.61-1.76,3.86-2.71.73-.57,1.44-1.14,2.15-1.75a137.88,137.88,0,0,1,16.24-12.22h.08q2.67-1.73,5.41-3.31l.39-.23c1.75-1,3.51-2,5.3-2.89l.56-.3c1.76-.9,3.53-1.77,5.33-2.59l.63-.29c1.84-.82,3.69-1.62,5.56-2.37l.48-.2q3-1.2,6.09-2.25h.07a134.14,134.14,0,0,1,19.53-5.1l.82-.13c1.87-.33,3.76-.63,5.65-.89l1.92-.22c1.54-.18,3.09-.36,4.65-.48l2.46-.18c1.39-.09,2.77-.17,4.17-.22l2.83-.07h3.84c1.09,0,2.16,0,3.25.08s2.32.1,3.48.17a14,14,0,0,1,1.95.09c.64.09,1.27.13,1.9.18l2,.2c1.55.16,3.09.35,4.62.55.54.07,1.06.16,1.59.22,1.6.25,3.2.52,4.79.81l1.48.29c1.56.31,3.11.65,4.65,1l1.65.39c1.41.36,2.81.73,4.21,1.13l2.07.59c1.18.36,2.35.73,3.51,1.12l2.68.89,2.65,1c1.14.43,2.27.85,3.4,1.31l1.63.69c1.44.61,2.87,1.22,4.28,1.88l.4.19a137.93,137.93,0,0,1,34.65,23c15.7,14.35,38.72,17.35,58.13,8.67l7.28-3.26a55.13,55.13,0,0,0,32.33-44.41,56.29,56.29,0,0,0,.32-5.94v-.36c0-78.63,66.47-142,146.17-137C1524.79,4.58,1580,59,1585.17,126.47c.19,2.56.32,5.13.38,7.67A58.75,58.75,0,0,0,1586,140.89Z"/><circle class="cls-3" cx="137.23" cy="137.26" r="101.42"/><line class="cls-1" x1="465.03" y1="115.02" x2="465.03" y2="115.02"/><line class="cls-1" x1="465.03" y1="102.32" x2="465.03" y2="102.32"/><line class="cls-4" x1="1120.6" y1="115.02" x2="1120.6" y2="98.86"/><circle class="cls-3" cx="458.88" cy="283.52" r="101.42"/><circle class="cls-3" cx="792.84" cy="137.28" r="101.42"/><circle class="cls-3" cx="1448.41" cy="137.28" r="101.42" transform="translate(327.16 1064.39) rotate(-45)"/><circle class="cls-3" cx="1120.6" cy="283.9" r="101.42" transform="translate(127.47 875.53) rotate(-45)"/><path d="M176.72,198.92l4-84.27h5.72a1.58,1.58,0,0,0,1.58-1.58h0V92.58A1.58,1.58,0,0,0,186.44,91h-8.59L172,75.14a1.57,1.57,0,0,0-1.48-1H103.9a1.57,1.57,0,0,0-1.49,1L96.68,91H88.09a1.57,1.57,0,0,0-1.58,1.58h0v20.5a1.58,1.58,0,0,0,1.58,1.58h5.72l4,84.27a1.57,1.57,0,0,0,1.57,1.51h75.8a1.59,1.59,0,0,0,1.58-1.51Zm-87-87.43V94.15h8.12a1.61,1.61,0,0,0,1.49-1L105,77.26H169.5l5.73,15.84a1.59,1.59,0,0,0,1.49,1h8.12v17.34Zm11.18,85.78L97,114.65h80.55l-3.88,82.62Z"/><path d="M155,85.18H119.26a5.92,5.92,0,0,0-5.91,5.91v6.57a5.92,5.92,0,0,0,5.91,5.91H155a5.93,5.93,0,0,0,5.91-5.91V91.09A5.92,5.92,0,0,0,155,85.18Zm2.75,12.48a2.75,2.75,0,0,1-2.75,2.75H119.26a2.75,2.75,0,0,1-2.75-2.75V91.09a2.75,2.75,0,0,1,2.75-2.75H155a2.75,2.75,0,0,1,2.75,2.75Z"/><path d="M154.41,153.87a1.58,1.58,0,0,0-2.83,1.41l.1.17,10.53,18.19H145l2.62-2.62a1.58,1.58,0,1,0-2.24-2.23h0L140,174.1a1.57,1.57,0,0,0,0,2.22l0,0,5.31,5.31a1.58,1.58,0,0,0,2.24-2.23h0L145,176.8h20a1.58,1.58,0,0,0,1.37-2.37Z"/><path d="M132.51,173.64H112.1l9.7-16.75,1,3.61a1.58,1.58,0,0,0,1.53,1.17,1.92,1.92,0,0,0,.41,0,1.58,1.58,0,0,0,1.11-1.94h0l-1.94-7.26A1.58,1.58,0,0,0,122,151.3l-7.26,1.95a1.58,1.58,0,1,0,.72,3.07l.1,0,3.55-1-11,19.08a1.54,1.54,0,0,0,0,1.58,1.58,1.58,0,0,0,1.36.79h23.15a1.58,1.58,0,0,0,0-3.16Z"/><path d="M139.15,143.8a1.58,1.58,0,0,0,1.12,1.93l7.26,2a1.84,1.84,0,0,0,.41,0,1.59,1.59,0,0,0,1.53-1.17l1.94-7.26a1.6,1.6,0,0,0-1.44-1.72,1.57,1.57,0,0,0-1.56.9l-.9,3.38-8.94-15.42a1.63,1.63,0,0,0-2.73,0l-10.55,18.14a1.58,1.58,0,0,0,.7,2.12,1.6,1.6,0,0,0,2-.54l9.14-15.78,7.71,13.32-3.78-1a1.58,1.58,0,0,0-1.94,1.11h0Z"/><path d="M765.66,78.39a1.74,1.74,0,0,0-1.73-1.73,5.19,5.19,0,0,1-5.19-5.19h0a1.73,1.73,0,0,0-3.46,0h0a5.2,5.2,0,0,1-5.19,5.19h0a1.73,1.73,0,0,0,0,3.46,5.19,5.19,0,0,1,5.19,5.19h0a1.73,1.73,0,1,0,3.46,0,5.19,5.19,0,0,1,5.19-5.19h0a1.75,1.75,0,0,0,1.73-1.73ZM757,80.12a8.34,8.34,0,0,0-1.73-1.73A8.86,8.86,0,0,0,757,76.66a8.86,8.86,0,0,0,1.73,1.73A8.34,8.34,0,0,0,757,80.12Z"/><path d="M836.78,92.91H811.5V88.22a8.38,8.38,0,0,0-8.38-8.37h-20.6a8.37,8.37,0,0,0-8.38,8.37v4.69H748.85A1.85,1.85,0,0,0,747,94.76v13.06a1.84,1.84,0,0,0,1.84,1.84h8.73v86.11a9,9,0,0,0,9,9H819a9,9,0,0,0,9-9V109.66h8.72a1.85,1.85,0,0,0,1.85-1.83h0V94.76a1.85,1.85,0,0,0-1.85-1.85Zm-54.26-9.33h20.6a4.69,4.69,0,0,1,4.68,4.68V93h-30V88.26a4.68,4.68,0,0,1,4.69-4.68Zm41.85,112.2a5.34,5.34,0,0,1-5.33,5.31H766.6a5.32,5.32,0,0,1-5.33-5.31h0V109.66h63.1ZM834.93,106H750.7V96.58h84.23Z"/><path d="M775.64,194.8a1.85,1.85,0,0,0,1.85-1.85V117.82a1.85,1.85,0,0,0-3.7,0V193a1.85,1.85,0,0,0,1.85,1.85Z"/><path d="M792.81,194.8a1.85,1.85,0,0,0,1.85-1.85V117.82a1.85,1.85,0,1,0-3.69-.27,1.22,1.22,0,0,0,0,.27V193a1.84,1.84,0,0,0,1.83,1.85Z"/><path d="M810,194.8a1.85,1.85,0,0,0,1.85-1.85V117.82a1.85,1.85,0,0,0-3.69-.27,1.22,1.22,0,0,0,0,.27V193A1.84,1.84,0,0,0,810,194.8Z"/><path d="M851.29,131.7A1.71,1.71,0,0,0,849.6,130h0a5.19,5.19,0,0,1-5.18-5.19,1.73,1.73,0,1,0-3.46,0,5.2,5.2,0,0,1-5.19,5.19h0a1.73,1.73,0,0,0,0,3.46,5.19,5.19,0,0,1,5.19,5.19h0a1.73,1.73,0,0,0,3.46,0,5.18,5.18,0,0,1,5.18-5.19,1.73,1.73,0,0,0,1.73-1.71v0Zm-8.64,1.73a8.86,8.86,0,0,0-1.73-1.73,9.45,9.45,0,0,0,1.73-1.73,8.59,8.59,0,0,0,1.73,1.73,8.34,8.34,0,0,0-1.73,1.73Z"/><path d="M754.29,178.7A1.71,1.71,0,0,0,752.6,177h0a5.19,5.19,0,0,1-5.18-5.19,1.73,1.73,0,0,0-3.46,0h0a5.2,5.2,0,0,1-5.19,5.19h0a1.73,1.73,0,0,0,0,3.46,5.19,5.19,0,0,1,5.19,5.19h0a1.73,1.73,0,0,0,3.46,0,5.18,5.18,0,0,1,5.18-5.19,1.73,1.73,0,0,0,1.73-1.71v0Zm-8.64,1.73a8.86,8.86,0,0,0-1.73-1.73,9.45,9.45,0,0,0,1.73-1.73,8.59,8.59,0,0,0,1.73,1.73A8.34,8.34,0,0,0,745.65,180.43Z"/><path d="M1092.92,259.15h1.85a13.26,13.26,0,0,1,7.75,2.57,17.38,17.38,0,0,0,7.65,2.95l23,3.13a11.49,11.49,0,0,0,1.18.09,3.53,3.53,0,0,0,2.41-.81,4.8,4.8,0,0,0,1.06-4,10.6,10.6,0,0,0-7-8.79l-4.23-1.32c-2.75-.88-3.07-1.63-3.07-1.63l2-2.74c.81-1,.87-1.09,4.22.3l20.35,8.48a6.91,6.91,0,0,0,9.32-2.89h0a6.3,6.3,0,0,0-3.13-8.33h0l-.18-.08-24.59-12.95-.19-.1a22.43,22.43,0,0,0-16.62.74c-1,.36-2,.69-2.91.92a62.12,62.12,0,0,1-14,1.21h-4.92a4.06,4.06,0,0,0-3.5-2h-18a2,2,0,1,0-.19,4.08h18.15v19.15h-18a2,2,0,1,0-.19,4.08h18.18a4.08,4.08,0,0,0,3.48-2Zm19.94-20.57c1-.27,2.07-.63,3.17-1a18.92,18.92,0,0,1,13.72-.87l24.47,12.93c1.74.92,1.94,2.17,1.54,3-.51,1.07-2,1.75-4.08.88L1131.34,245c-3.32-1.38-6.19-2.58-9,.91l-1.6,2a4.73,4.73,0,0,0-1.14,4.47c.57,1.88,2.46,3.3,5.76,4.35l4.23,1.33a6.61,6.61,0,0,1,4.16,5v.58h0l-23-3.14h0a13.45,13.45,0,0,1-6-2.39,17.23,17.23,0,0,0-9.85-3.14h-1.31V240h4.35a64.6,64.6,0,0,0,15-1.34Z"/><path d="M1115.72,291h3.83l14.08-14.08a1.82,1.82,0,0,0,0-2.56l-5.14-5.13a1.8,1.8,0,0,0-2.55,0v0l-1.42,1.41a9.05,9.05,0,0,0-11.4,1.16l-22,22a9.07,9.07,0,0,0-1.16,11.41l-1.41,1.41a1.82,1.82,0,0,0,0,2.56l5.15,5.13a1.82,1.82,0,0,0,2.57,0L1114,296.6v-3.83a1.81,1.81,0,0,1,1.79-1.81Zm-20.79,19.5-2.57-2.56,1.28-1.28a1.82,1.82,0,0,0,0-2.57,5.43,5.43,0,0,1,0-7.68h0l22-22.06a5.43,5.43,0,0,1,7.69,0,1.8,1.8,0,0,0,2.54,0h0l1.28-1.28,2.56,2.56Z"/><path d="M1115.72,291a1.81,1.81,0,0,0-1.81,1.81h0v3.84l5.66-5.66Z"/><path d="M1113.91,334.34a1.82,1.82,0,0,0,3.63,0v-2.93h-3.63Z"/><path d="M1168.29,334.34a1.82,1.82,0,0,0,3.63,0v-2.93h-3.63Z"/><path d="M1122.25,294.58a1.81,1.81,0,0,0,1.81-1.81h0a5.09,5.09,0,0,1,.37-1.81h-3.81a8.43,8.43,0,0,0-.19,1.81,1.81,1.81,0,0,0,1.81,1.81Z"/><path d="M1126.6,294.58a1.81,1.81,0,0,1-1.81-1.81h0A9.11,9.11,0,0,1,1125,291h-5.42l-5.66,5.66v35.14h3.63V294.58Z"/><path d="M1164.66,292.81a5.08,5.08,0,0,0-.36-1.81h-35.52a5.09,5.09,0,0,0-.37,1.81,1.81,1.81,0,0,1-1.81,1.81h39.88A1.82,1.82,0,0,1,1164.66,292.81Z"/><path d="M1170.11,291h-2a9.11,9.11,0,0,1,.18,1.81,1.82,1.82,0,0,1-1.8,1.82h1.8V331.8h3.63v-39a1.82,1.82,0,0,0-1.8-1.82Z"/><path d="M1142.91,301.88a1.81,1.81,0,0,0-1.81,1.81h0v24.48a1.81,1.81,0,1,0,3.62,0h0V303.69A1.81,1.81,0,0,0,1142.91,301.88Z"/><path d="M1129.39,301.88a1.81,1.81,0,0,0-1.81,1.81h0v24.48a1.81,1.81,0,1,0,3.62.18.54.54,0,0,0,0-.18V303.69a1.81,1.81,0,0,0-1.81-1.81Z"/><path d="M1156.43,301.88a1.81,1.81,0,0,0-1.81,1.81h0v24.48a1.82,1.82,0,0,0,3.63.18V303.69A1.82,1.82,0,0,0,1156.43,301.88Z"/><path d="M1164.66,292.81a1.82,1.82,0,0,0,3.63,0,9.11,9.11,0,0,0-.18-1.81h-3.81a5.08,5.08,0,0,1,.36,1.81Z"/><path d="M1123.16,291h12.53v3.63h-12.53Z"/><path d="M1134.81,287.4l6,.77a2,2,0,0,0,1.66-.57l6.09-5.84,8.82-4.76,3.71,6-6.17,3.39a2,2,0,0,0-1,2.28l1.47,6h4.2l-1.31-5.42,6.68-3.67a2,2,0,0,0,.85-2.7l0-.07-.06-.09-5.83-9.45a2,2,0,0,0-2.7-.73l-10.8,5.81a1.92,1.92,0,0,0-.43.32l-5.6,5.36-6.77-.87a2,2,0,0,0-2.24,1.52l-2.52,10h4.2Z"/><path class="cls-5" d="M1503.52,95.58A1,1,0,0,0,1503,95l-44.32-17.17a.9.9,0,0,0-1.13.4l-9.18,16.24-9.18-16.24a.88.88,0,0,0-1.12-.4L1393.74,95a.93.93,0,0,0-.53.55.88.88,0,0,0,.07.76l9.72,17.19-9.72,17.2a.88.88,0,0,0-.07.76,1,1,0,0,0,.53.55l7.27,2.81V182a.92.92,0,0,0,.65.88l46.44,13.88h.53l46.4-13.89a.94.94,0,0,0,.66-.88v-47.1L1503,132a1,1,0,0,0,.54-.55,1,1,0,0,0-.07-.76l-9.72-17.2,9.72-17.19a1,1,0,0,0,.07-.76Zm-55.16,34.15-41.78-16.2,41.78-16.19,41.78,16.19ZM1438,79.84l9.07,16-42.59,16.51-9.07-16Zm-33.52,34.82L1447,131.17l-9.07,16-42.59-16.51Zm-1.67,20.92L1438,149.2a.88.88,0,0,0,.33.06.92.92,0,0,0,.79-.46l8.27-14.62v60.4l-44.61-13.34Zm91,45.71-44.56,13.29v-60.4l8.26,14.62a.92.92,0,0,0,.8.47,1,1,0,0,0,.33-.07l35.21-13.62Zm-35.14-34-9.07-16,42.59-16.5,9.07,16Zm33.52-34.82-42.59-16.51,9.07-16,42.59,16.51Z"/><polygon points="482.35 345.72 481.03 343.02 491.98 337.65 484.52 330.66 486.58 328.47 497.2 338.44 482.35 345.72"/><rect x="483.25" y="334.18" width="7.4" height="3" transform="translate(-101.55 276.83) rotate(-28.87)"/><polygon class="cls-3" points="431.41 346.39 421.11 302.24 492.41 301.24 481.11 345.74 431.41 346.39"/><path d="M430.23,347.91l-11-47.14,75.12-1.06-12.06,47.52Zm-7.2-44.2,9.6,41.16,47.35-.61,10.53-41.49Z"/><ellipse class="cls-3" cx="456.36" cy="345.74" rx="26" ry="9"/><path d="M456.37,356.24c-13.33,0-27.5-3.68-27.5-10.5s14.17-10.5,27.5-10.5,27.5,3.68,27.5,10.5S469.7,356.24,456.37,356.24Zm0-18c-15.18,0-24.5,4.37-24.5,7.5s9.32,7.5,24.5,7.5,24.5-4.37,24.5-7.5S471.55,338.24,456.37,338.24Z"/><polyline class="cls-3" points="482.11 294.74 484.97 292.19 484.97 284.74"/><polygon points="483.12 295.86 481.11 293.63 483.47 291.52 483.47 284.74 486.47 284.74 486.47 292.86 483.12 295.86"/><polyline class="cls-3" points="465.26 291.43 468.11 288.88 468.11 282.74"/><polygon points="466.26 292.55 464.26 290.32 466.61 288.21 466.61 282.74 469.61 282.74 469.61 289.55 466.26 292.55"/><rect class="cls-3" x="479.14" y="209.71" width="7" height="17" transform="translate(227.23 682.24) rotate(-85.5)"/><path d="M492.19,224l-19.93-1.57.78-10,20,1.6Zm-16.71-4.33,14,1.1.31-4-14-1.1Z"/><ellipse class="cls-3" cx="479.61" cy="252.24" rx="30.5" ry="33.5"/><path d="M479.62,287.24c-17.65,0-32-15.7-32-35s14.35-35,32-35,32,15.7,32,35S497.26,287.24,479.62,287.24Zm0-67c-16,0-29,14.36-29,32s13,32,29,32,29-14.35,29-32S495.61,220.24,479.62,220.24Z"/><ellipse class="cls-3" cx="456.36" cy="302.24" rx="37.5" ry="11.5"/><path d="M456.37,315.24c-18.91,0-39-4.56-39-13s20.09-13,39-13,39,4.56,39,13S475.27,315.24,456.37,315.24Zm0-23c-20.61,0-36,5.28-36,10s15.39,10,36,10,36-5.28,36-10S477,292.24,456.37,292.24Z"/><circle class="cls-3" cx="479.11" cy="250.74" r="2"/><path d="M479.12,254.24a3.5,3.5,0,1,1,3.5-3.5A3.5,3.5,0,0,1,479.12,254.24Zm0-4a.5.5,0,0,0-.5.5.5.5,0,0,0,.5.5.5.5,0,0,0,0-1Z"/></svg>