<?xml version="1.0" encoding="UTF-8"?>
<svg xmlns="http://www.w3.org/2000/svg" xmlns:xlink="http://www.w3.org/1999/xlink" viewBox="0 0 467.09 306.89">
  <defs>
    <style>
      .cls-1 {
        fill: #006668;
      }

      .cls-2, .cls-3, .cls-4, .cls-5, .cls-6 {
        mix-blend-mode: multiply;
      }

      .cls-2, .cls-5 {
        opacity: .75;
      }

      .cls-7 {
        fill: #548e8b;
      }

      .cls-3 {
        opacity: .51;
      }

      .cls-3, .cls-8 {
        fill: #618e8b;
      }

      .cls-9 {
        fill: #4e8787;
      }

      .cls-10 {
        fill: #34cfde;
      }

      .cls-11 {
        fill: #547576;
      }

      .cls-12 {
        isolation: isolate;
      }

      .cls-13 {
        fill: #36e5ea;
      }

      .cls-14 {
        fill: #5a9094;
      }

      .cls-15 {
        fill: #129373;
      }

      .cls-16 {
        fill: #c4f3f2;
      }

      .cls-17 {
        fill: #00b7c7;
      }

      .cls-18 {
        fill: url(#_Áåçûìÿííûé_ãðàäèåíò_20);
        opacity: .31;
      }

      .cls-18, .cls-19 {
        mix-blend-mode: overlay;
      }

      .cls-4 {
        opacity: .83;
      }

      .cls-4, .cls-5, .cls-20 {
        fill: #009391;
      }

      .cls-21 {
        fill: #45716f;
      }

      .cls-22 {
        fill: #527d7b;
      }

      .cls-23 {
        fill: #91bec2;
      }

      .cls-24 {
        fill: #6aaba6;
      }

      .cls-25 {
        fill: #244e46;
      }

      .cls-26 {
        fill: #63b7bd;
      }

      .cls-27 {
        fill: #345050;
      }

      .cls-28 {
        fill: #63a09c;
      }

      .cls-29 {
        fill: #63a09d;
      }

      .cls-30 {
        clip-path: url(#clippath);
      }

      .cls-31 {
        fill: #4c8e8e;
      }

      .cls-32 {
        fill: none;
      }

      .cls-33 {
        fill: #2f5553;
      }

      .cls-34 {
        fill: #7cadb0;
      }

      .cls-6 {
        fill: url(#_Áåçûìÿííûé_ãðàäèåíò_3);
      }

      .cls-35 {
        fill: #447576;
      }

      .cls-36 {
        filter: url(#luminosity-noclip-2);
      }

      .cls-37 {
        mask: url(#mask-1);
      }

      .cls-38 {
        mask: url(#mask);
      }

      .cls-19, .cls-39 {
        fill: #d1fbff;
      }

      .cls-40 {
        fill: #386361;
      }

      .cls-41 {
        fill: #3a5555;
      }

      .cls-42 {
        fill: #6fa0a6;
      }

      .cls-43 {
        fill: #5e9094;
      }

      .cls-44 {
        fill: #648482;
      }

      .cls-45 {
        fill: #577877;
      }
    </style>
    <clipPath id="clippath">
      <rect class="cls-32" x="3.59" y="13.95" width="459.9" height="279" rx="139.5" ry="139.5"/>
    </clipPath>
    <filter id="luminosity-noclip-2" data-name="luminosity-noclip" y="61.02" width="467.09" height="245.88" color-interpolation-filters="sRGB" filterUnits="userSpaceOnUse">
      <feFlood flood-color="#fff" result="bg"/>
      <feBlend in="SourceGraphic" in2="bg"/>
    </filter>
    <filter id="luminosity-noclip-3" x="9029.79" y="-11189.2" width="-32766" height="32766" color-interpolation-filters="sRGB" filterUnits="userSpaceOnUse">
      <feFlood flood-color="#fff" result="bg"/>
      <feBlend in="SourceGraphic" in2="bg"/>
    </filter>
    <mask id="mask-1" x="9029.79" y="-11189.2" width="-32766" height="32766" maskUnits="userSpaceOnUse"/>
    <linearGradient id="_Áåçûìÿííûé_ãðàäèåíò_3" data-name="Áåçûìÿííûé ãðàäèåíò 3" x1="217.37" y1="317.64" x2="247.24" y2="84.71" gradientUnits="userSpaceOnUse">
      <stop offset="0" stop-color="#fff"/>
      <stop offset="1" stop-color="#000"/>
    </linearGradient>
    <mask id="mask" y="61.02" width="467.09" height="245.88" maskUnits="userSpaceOnUse">
      <g class="cls-36">
        <g class="cls-37">
          <path class="cls-6" d="M0,76.79l.15,230.1,466.94-.68-.17-242.93c-71.22-8.1-145.43,8.29-222.75,6.63-95.28-2.04-196.54-2.6-244.17,6.88Z"/>
        </g>
      </g>
    </mask>
    <linearGradient id="_Áåçûìÿííûé_ãðàäèåíò_20" data-name="Áåçûìÿííûé ãðàäèåíò 20" x1="217.37" y1="317.64" x2="247.24" y2="84.71" gradientUnits="userSpaceOnUse">
      <stop offset="0" stop-color="#000105"/>
      <stop offset="1" stop-color="#eee"/>
    </linearGradient>
  </defs>
  <g class="cls-12">
    <g id="Layer_2" data-name="Layer 2">
      <g id="Layer_1-2" data-name="Layer 1">
        <g class="cls-30">
          <g>
            <path class="cls-41" d="M243.65,19.75c-16.34-11.68-38.79-11.31-50.13,.84-11.34,12.14-7.29,31.45,9.05,43.13,16.34,11.68,38.79,11.31,50.13-.84,11.34-12.14,7.29-31.45-9.05-43.13Zm-11.14,30.87c-3.76,4.03-11.2,4.15-16.62,.28-5.42-3.87-6.76-10.28-3-14.3,3.76-4.03,11.2-4.15,16.62-.28s6.76,10.28,3,14.3Z"/>
            <g>
              <path class="cls-11" d="M193.73,25.17c11.34-12.14,33.79-12.52,50.13-.84,8.86,6.34,14.1,14.92,15.24,23.38,.44-9.86-4.97-20.48-15.45-27.97-16.34-11.68-38.79-11.31-50.13,.84-5.19,5.56-7.15,12.61-6.19,19.75,.25-5.52,2.33-10.81,6.4-15.17Z"/>
              <path class="cls-11" d="M216.09,55.49c5.42,3.87,12.86,3.75,16.62-.28,2.1-2.25,2.61-5.24,1.7-8.12-.31,1.28-.93,2.49-1.91,3.53-3.76,4.03-11.2,4.15-16.62,.28-2.39-1.71-3.99-3.91-4.7-6.18-.87,3.65,.9,7.9,4.91,10.77Z"/>
            </g>
            <polygon class="cls-11" points="79.22 42.76 75.49 37.56 94.51 25.98 96.2 38.18 79.22 42.76"/>
            <polygon class="cls-11" points="114 24.79 108.68 18.84 119.81 11.11 126.11 18.56 114 24.79"/>
            <polygon class="cls-23" points="385.08 34.14 370.24 37.44 371.67 47.37 386.22 47.57 392.5 41.35 385.08 34.14"/>
            <path class="cls-10" d="M0,76.79l.15,230.1,466.94-.68-.17-242.93c-71.22-8.1-145.43,8.29-222.75,6.63-95.28-2.04-196.54-2.6-244.17,6.88Z"/>
            <g>
              <path class="cls-17" d="M323.72,66.88l-74.35,239.65,169.27-.32,36.26-242.93c-46.45-5.28-131.19,3.6-131.19,3.6Z"/>
              <g>
                <path class="cls-17" d="M15.77,306.87L68.8,70.09s-51.79,3.32-68.8,6.7l.15,230.1,15.62-.02Z"/>
                <path class="cls-17" d="M244.17,69.91c-49.11-1.05-108.2-.8-108.2-.8l-53.22,237.72,141.72-.26,52.53-236.93s-21.82,.51-32.82,.28Z"/>
              </g>
              <g class="cls-2">
                <path class="cls-20" d="M236.14,150.73c-.67-5.05-1.97-8.57-1.97-8.57,0,0,1.02,3.59,1.97,8.57Z"/>
              </g>
            </g>
            <g>
              <path class="cls-35" d="M410.18,88.18l.09-2.97c.04-1.14,1.08-1.55,2-.8l2.03,1.68c.51,.42,.84,1.12,.83,1.77l-.09,5.55c-.01,.92-.66,1.47-1.44,1.22l-6.36-1.98c-1.07-.33-1.75-1.79-1.3-2.78l.14-.3c.26-.56,.82-.8,1.43-.6l1.16,.38c.81,.26,1.48-.26,1.51-1.17Z"/>
              <path class="cls-35" d="M390.28,158.3l-.04-5.23c-.01-1.96,1.62-3.4,3.15-2.78l3.59,1.45c.94,.38,1.61,1.41,1.67,2.6l.55,10.7c.1,1.84-1.04,3.34-2.52,3.3l-10.86-.25c-1.65-.04-2.7-2.28-2.05-4.26l.19-.59c.37-1.13,1.21-1.87,2.14-1.89l1.82-.03c1.29-.02,2.35-1.39,2.34-3.03Z"/>
              <path class="cls-35" d="M340.06,65.71s-.01,.08-.02,.12c-.16,3.9,2.55,6.97,6.15,6.8,2.62-.12,4.96-1.94,6.14-4.47l4.32,.86c-1.1,4.91-5.15,8.68-9.79,8.8-5.16,.13-8.98-4.34-8.74-9.9,.04-.87,.2-1.7,.42-2.52l1.51,.3Z"/>
              <path class="cls-35" d="M318.94,141.32s.02-.08,.02-.12c.46-3.85-2.06-6.72-5.74-6.35-2.68,.27-5.2,2.19-6.6,4.74l-4.33-.61c1.49-4.89,5.92-8.84,10.65-9.22,5.26-.42,8.81,3.77,8.14,9.26-.11,.86-.34,1.69-.62,2.5l-1.52-.21Z"/>
              <polygon class="cls-35" points="424.11 143.35 428.65 148.32 425.52 149.81 419.31 147.14 424.11 143.35"/>
              <polygon class="cls-35" points="357.65 86.92 363.76 84.75 365.64 87.44 363.72 89.38 357.65 86.92"/>
              <polygon class="cls-35" points="340.04 95.28 342.29 90.61 347.23 93.48 346.42 96.73 340.04 95.28"/>
              <polygon class="cls-35" points="357.76 150.61 359.75 144.8 364.87 147.59 364.25 151.53 357.76 150.61"/>
              <polygon class="cls-35" points="299.45 77.81 300.45 70.48 303.74 70.85 304.55 74.14 299.45 77.81"/>
              <polygon class="cls-35" points="276.49 91.08 273.41 85.34 278.35 83.04 280.84 86.33 276.49 91.08"/>
              <polygon class="cls-35" points="281.91 75.16 278.37 73.44 279.98 70.07 282.36 70.74 281.91 75.16"/>
              <polygon class="cls-35" points="318.01 93.38 313.8 86.98 318.75 84.46 321.95 88.11 318.01 93.38"/>
              <polygon class="cls-35" points="373.9 110.47 367.48 108.79 365.63 104.33 369.53 105.02 373.9 110.47"/>
            </g>
            <polygon class="cls-43" points="55.93 32.56 53.53 34.46 57.39 48.61 70.25 46.07 55.93 32.56"/>
            <polygon class="cls-43" points="33.1 55.85 15.82 60.81 12.31 66.81 26.69 69.3 33.1 55.85"/>
            <rect class="cls-43" x="44.05" y="41.1" width="14.38" height="11.46"/>
            <path class="cls-43" d="M167.46,7.96l-1.35,.04c-1.22,.03-2.42-.33-3.41-1.04l-6.37-4.56-1.77-2.39-2.36,2.55,2.73,1.6,6.03,4.71c1.23,.96,2,2.39,2.13,3.94h0c.13,1.59,.94,3.04,2.21,4l12.39,9.34,6.26-6.17-12.76-10.7c-1.05-.88-2.38-1.34-3.74-1.3Z"/>
            <path class="cls-11" d="M48.02,51.66l1.14-.72c1.03-.65,2.25-.95,3.46-.85l7.81,.65,2.75,1.15,.72-3.39-3.17,.03-7.59-.96c-1.55-.2-2.94-1.03-3.85-2.29h0c-.93-1.29-2.36-2.13-3.95-2.3l-15.43-1.67-2.22,8.5,16.45,2.65c1.35,.22,2.73-.07,3.89-.8Z"/>
            <path class="cls-43" d="M99.21,24.39l-.83-1.06c-.75-.96-1.17-2.14-1.18-3.36l-.11-7.83,.88-2.84-3.45-.38,.34,3.15-.21,7.64c-.04,1.56-.73,3.02-1.91,4.05h0c-1.2,1.05-1.89,2.56-1.91,4.15l-.15,15.51,8.68,1.38,1.03-16.61c.08-1.36-.33-2.71-1.17-3.79Z"/>
            <polygon class="cls-43" points="109.71 16.92 103.25 24.22 105.75 36.31 124.72 27.76 109.71 16.92"/>
            <g>
              <path class="cls-27" d="M337.99,39.71c4.68-.62,16.6,5.17,26.49,13.94l14.13-6.71c-27.72-23.35-44.61-27.31-55.87-24.81-11.26,2.5-16.05,21.68,18.97,42.32l11.86-5.63c-14.87-7.1-20.48-18.46-15.58-19.11Z"/>
              <g>
                <path class="cls-11" d="M337.22,44.9c-.23,0-.47,0-.68,.03-4.37,.58-.34,9.69,11.15,16.69l5.89-2.8c-8.77-4.19-14.29-9.85-16.36-13.93Z"/>
                <path class="cls-11" d="M321.29,27.35c10.78-2.39,26.72,1.15,52.39,21.94l4.94-2.34c-27.72-23.35-44.61-27.31-55.87-24.81-4.54,1.01-8.03,4.74-8.27,10.17,1.47-2.58,3.93-4.32,6.81-4.96Z"/>
              </g>
              <path class="cls-11" d="M341.07,50.07c-.22-.23-.43-.46-.64-.69-.18-.19-.35-.39-.51-.58-.36-.42-.7-.84-1.01-1.25-.07-.09-.14-.18-.2-.27-.61-.84-1.11-1.64-1.49-2.39-.98-1.94-1.18-3.5-.57-4.4-1.22,1.22-2.04,3.12-2.04,5.35,0,3.84,2.27,6.96,5.08,6.96,1.08,0,2.08-.47,2.91-1.26-.16-.15-.32-.3-.48-.44-.37-.35-.72-.69-1.05-1.04Z"/>
              <path class="cls-27" d="M341.39,50.88c-.96,5.85-6.06,4.34-6.06,4.34,2.75-.28,4.93-1.54,6.06-4.34Z"/>
            </g>
            <polygon class="cls-14" points="3.41 73.72 14.65 76.12 26.33 81.54 38.42 98.22 71.77 118.23 82.61 102.81 113.46 102.39 174.33 79.04 188.09 80.29 203.1 77.79 223.94 78.63 238.95 71.96 253.54 73.62 266.47 70.7 280.22 71.96 293.99 67.61 279.81 60.7 263.96 61.12 256.88 57.78 241.03 57.36 232.7 51.11 217.27 48.19 208.52 31.52 196.43 24.85 186.42 25.68 172.66 19.01 163.49 8.59 151.82 10.25 138.89 10.67 130.55 8.59 113.04 20.68 105.96 31.1 76.36 36.94 49.26 46.52 41.34 46.52 27.16 56.11 21.74 63.2 9.23 67.37 3.41 73.72"/>
            <polygon class="cls-34" points="150.45 49.37 151.13 49.72 165.42 39.85 173.76 41.94 186.68 41.52 198.35 39.85 205.74 48.25 214.58 43.06 208.52 31.52 196.43 24.85 186.42 25.68 172.66 19.01 163.49 8.59 151.82 10.25 138.89 10.67 130.55 8.59 113.04 20.68 105.96 31.1 92.91 33.67 96 33.75 108.65 44.35 123.19 47.73 134.08 46.16 150.45 49.37"/>
            <path class="cls-14" d="M241.03,57.36l-8.34-6.25-15.43-2.92-8.76-16.68-12.09-6.67-3.99,.33c2.54,18.84,19.31,34.11,35.47,38.44,11.56,3.09,21.52,2.46,27.57-5.87l-14.44-.38Z"/>
            <g>
              <path class="cls-14" d="M208.29,191.8c.55,1.24,.04,2.85-1.11,3.56-.2,.12-.43,.24-.5,.47-.07,.24,.07,.48,.16,.71,.23,.59,.12,1.3-.29,1.78-.41,.48-1.09,.72-1.7,.59-.62-.13-1.33-.58-1.82-.17-.33,.28-.31,.8-.19,1.21,.13,.42,.34,.83,.28,1.26-.07,.55-.54,.96-1.03,1.23-.48,.27-1.02,.49-1.39,.9-.65,.73-.57,1.84-.87,2.77-.41,1.28-1.65,2.26-3,2.36,4.44,3.03,8.52,5.87,12.43,8.93,1.51-.04,2.72-1.7,2.34-3.18-.22-.87-.9-1.71-.65-2.57,.25-.88,1.32-1.23,1.91-1.93,.76-.89,.67-2.2,.53-3.36,.92,.38,2.1-.4,2.12-1.4,0-.48-.2-1,.05-1.42,.21-.36,.67-.47,1.05-.64,.78-.34,1.38-1.06,1.57-1.89,.2-.83-.02-1.74-.47-2.41-2-3.26-5.19-5.77-9.45-6.81Z"/>
              <path class="cls-14" d="M187.53,216.77c1.26,2.46,3.97,4.1,6.74,4.06,2.76-.04,5.44-1.75,6.72-4.38-3.76-2.18-8.7-2.13-13.46,.32Z"/>
              <path class="cls-14" d="M195.11,224.01c2.89-1.59,5.06-4.44,5.83-7.64"/>
              <path class="cls-14" d="M195.74,206.3c-1.43,1.92-1.55,4.73-.3,6.77,1.26,2.04,3.81,3.2,6.14,2.6,.9,2.47,3.4,4.28,6.03,4.35,2.63,.07,5.22-1.61,6.17-4.19-1.07,.19-2.22-.17-2.98-.94-.76-.77-1.12-1.92-.93-2.98-.81,.78-2.16,.92-3.12,.32-.96-.59-1.43-1.87-1.13-3.21-.8,.78-2.09,1.01-3.11,.55-1.02-.46-1.7-1.58-1.75-3.14-.77,.53-1.76,.75-2.69,.61-.93-.15-1.79-.67-2.35-.72Z"/>
              <path class="cls-14" d="M205.33,191.95c.64-.01,1.28,.32,1.64,.86,.36,.53,.42,1.25,.17,1.84,1.32-.22,2.45-.44,3.42,0,.97,.43,1.59,1.75,.97,2.61,.69-.12,1.38-.23,2.07-.14,.69,.09,1.38,.41,1.77,.99,.39,.57,.41,1.43-.07,1.93,1.19-.43,2.61-.16,3.56,.68,.95,.84,1.4,2.21,1.35,3.37,1.41-1.76,2.06-4.1,1.76-6.33-.1-.73-.31-1.48-.82-2.01-.57-.59-1.43-.81-2.25-.78-.82,.03-1.61,.3-2.55,.69,.16-2.14-.64-4.5-2.51-5.55-1.3-.73-2.91-.73-4.35-.32-1.44,.41-2.73,1.19-4.17,2.18Z"/>
              <path class="cls-14" d="M211.34,216.69c-.72,.86-1.84,1.36-2.96,1.33"/>
              <path class="cls-14" d="M206.61,217.71c-.52,.07-1.08-.17-1.39-.59"/>
              <path class="cls-14" d="M220.35,195.31c-.87-.89-2.42-.92-3.67-.06"/>
              <path class="cls-14" d="M211.6,197.19c.23-.99-.45-2.03-1.37-2.45-.92-.42-2.02-.3-2.96,.07,.24-.69,.1-1.5-.34-2.09-.45-.58-1.19-.92-1.94-1.03,1.69-1.48,3.91-2.34,6.15-2.39"/>
              <path class="cls-14" d="M208.98,191.93c.91-.81,2.3-1.03,3.42-.53"/>
              <path class="cls-14" d="M204.81,205.77c.7,.22,1.54-.24,1.72-.96,.17-.68-.16-1.52,.32-2.03,.27-.29,.7-.34,1.07-.47,1.13-.41,1.78-1.83,1.35-2.95"/>
              <path class="cls-14" d="M208.51,211.29l-.53-1.51c.73-.26,1.54-.6,1.81-1.32,.2-.51,.07-1.1,.25-1.61,.15-.45,.51-.79,.87-1.09,.36-.3,.74-.6,.97-1.01,.23-.41,.27-.97-.05-1.32"/>
              <path class="cls-14" d="M200.87,215.55c-2.87,1.83-6.18,2.58-9.22,2.08"/>
              <path class="cls-14" d="M201.42,215.44c-1.52,.39-3.26,.1-4.6-.79-1.35-.88-2.27-2.33-2.46-3.84-.19-1.51,.37-3.05,1.48-4.07"/>
            </g>
            <polygon class="cls-14" points="286.11 67.67 275.13 65.1 235.36 65.67 192.99 61.77 172.56 53.19 158.17 57.57 143.17 55.85 132.07 68.79 103.61 68.99 66.56 69.45 62.34 56.63 57.65 49.76 49.26 46.52 41.34 46.52 27.16 56.11 21.74 63.2 9.24 67.37 3.41 73.72 14.65 76.12 26.33 81.54 38.42 98.22 71.77 118.23 82.61 102.81 113.46 102.39 174.33 79.04 188.09 80.29 203.1 77.79 223.94 78.63 238.95 71.96 253.54 73.62 266.47 70.7 280.22 71.96 293.99 67.61 291.64 66.47 286.11 67.67"/>
            <path class="cls-35" d="M244.17,68.48c-93.06-1.67-191.83-2.16-240.76,5.24l11.24,2.41,11.67,5.42,12.09,16.68,33.35,20.01,10.84-15.43,30.85-.42,60.87-23.35,13.76,1.25,15.01-2.5,20.85,.83,15.01-6.67,14.59,1.67,12.92-2.92,13.76,1.25,13.77-4.34h0c-16.46,.76-33.07,1.17-49.82,.87Z"/>
            <path class="cls-31" d="M132.97,67.47c-25.81,.1-50.21,.54-71.84,1.46-1.09,15.23,5.91,22.2,18.64,25.61,17.83,4.78,41.54,1.4,53.2-27.07Z"/>
            <g>
              <path class="cls-35" d="M67.16,78.64l-.65-4.67c-.25-1.8-2.21-2.8-3.75-1.93l-3.42,1.93c-.86,.49-1.35,1.46-1.22,2.47l1.05,8.7c.17,1.44,1.43,2.51,2.82,2.4l11.24-.91c1.89-.15,2.89-2.2,1.91-3.9l-.29-.51c-.56-.97-1.62-1.53-2.69-1.43l-2.05,.19c-1.43,.14-2.74-.92-2.93-2.35Z"/>
              <path class="cls-35" d="M118.54,70.36s0,.05,0,.08c-.04,2.71-2.24,4.6-4.99,4.2-2.01-.3-3.72-1.74-4.52-3.58l-3.35,.25c.64,3.48,3.59,6.41,7.14,6.87,3.95,.51,7.06-2.27,7.1-6.13,0-.6-.08-1.19-.22-1.77l-1.17,.09Z"/>
              <path class="cls-35" d="M69.64,91.79s.03-.05,.04-.07c1.63-2.16,4.53-2.39,6.51-.44,1.44,1.42,1.97,3.6,1.53,5.55l2.84,1.78c1.54-3.18,.89-7.29-1.7-9.75-2.88-2.74-7.04-2.33-9.35,.75-.36,.48-.64,1.01-.87,1.56l1,.62Z"/>
              <polygon class="cls-9" points="67.05 94.93 57.54 97.91 61.03 102.22 71.45 103.5 67.05 94.93"/>
              <polygon class="cls-35" points="89.19 80.27 84.59 78.28 83.04 79.98 84.43 81.48 89.19 80.27"/>
              <polygon class="cls-35" points="102.35 87.47 100.81 84.05 96.91 85.64 97.39 87.95 102.35 87.47"/>
              <polygon class="cls-35" points="85.31 89.78 84.02 85.61 79.98 87.12 80.29 89.89 85.31 89.78"/>
              <polygon class="cls-35" points="128.97 81.6 128.5 76.45 125.96 76.45 125.21 78.65 128.97 81.6"/>
              <polygon class="cls-35" points="96.68 81.02 103.2 71.68 93.93 66.68 88.78 71.88 96.68 81.02"/>
              <polygon class="cls-35" points="67.41 71.04 70.22 78.83 77.03 75.52 76.1 70.29 67.41 71.04"/>
              <polygon class="cls-31" points="120.83 97.46 122.1 84.05 111.43 85.01 109.36 93.43 120.83 97.46"/>
              <polygon class="cls-35" points="114.68 100.4 112.86 87.52 98.66 90.8 98.07 99.17 114.68 100.4"/>
              <polygon class="cls-35" points="67.7 85.08 72.69 84.44 74.29 81.5 71.28 81.67 67.7 85.08"/>
            </g>
            <polygon class="cls-42" points="313.77 66.56 324 62.78 338.38 60.7 341.09 55.49 358.39 51.11 364.02 52.15 365.9 47.98 379.66 42.15 384.03 42.56 385.28 36.94 398.83 36.1 408.01 37.77 417.8 43.19 428.43 44.44 442.4 50.48 460.54 56.53 464.88 62.73 446.99 65.08 435.94 70.7 425.31 73.41 396.54 85.92 383.83 83.42 366.94 74.25 356.31 72.58 346.93 68.62 326.29 70.29 313.77 66.56"/>
            <path class="cls-14" d="M371.22,45.72l-5.32,2.26-1.88,4.17-5.63-1.04-17.3,4.38-2.71,5.21-14.38,2.08-10.23,3.77,12.52,3.73,20.64-1.67,1.77,.75c7.75-5.78,15.59-13.85,22.52-23.64Z"/>
            <polygon class="cls-14" points="443.49 53.04 433.18 55.23 426.77 52.41 417.39 49.6 407.9 51.9 392.37 45.53 389.24 51.32 385.02 57.1 374.08 55.07 355.67 58.15 351.87 55.14 341.4 63.51 319.1 66.71 317.1 65.33 313.77 66.56 326.29 70.29 346.93 68.62 356.31 72.58 366.94 74.25 383.83 83.42 396.54 85.92 425.31 73.41 435.94 70.7 446.99 65.08 464.88 62.73 460.54 56.53 443.49 53.04"/>
            <path class="cls-35" d="M346.93,68.62l9.38,3.96,10.63,1.67,16.88,9.17,12.72,2.5,28.77-12.51,10.63-2.71,11.05-5.63,17.84-2.34c-48.92-4.39-99.26,.72-151.04,3.82h0s12.52,3.74,12.52,3.74l20.64-1.67Z"/>
            <g>
              <path class="cls-35" d="M272.82,126.67l-38.36,9.17c18.55,30.85,27.1,33.98,27.1,33.98l36.06-15.22s-19.39-15.84-24.81-27.93Z"/>
              <path class="cls-35" d="M240.35,137.18l2.06-.3s-7.6-16.76-10.07-15.24c-2.48,1.53-4.5,5.29,4.25,17.44l1.65-.97c-4.42-5.53-7.35-12.04-5.04-13.42s7.15,12.49,7.15,12.49Z"/>
              <path class="cls-35" d="M272.35,129.73l1.57-.25s-4.8-13.4-6.75-12.16c-1.94,1.23-3.67,4.25,2.25,13.95l1.29-.78c-3.02-4.41-4.87-9.61-3.06-10.73,1.81-1.12,4.7,9.98,4.7,9.98Z"/>
            </g>
            <path class="cls-35" d="M315.3,102.75c3.66-.71,7.02-1.05,9.73-.58,.71-.31,1.56-.5,2.55-.5,3.19,.01,6.4,1.87,7.18,4.15,.78,2.28-1.18,4.12-4.36,4.1-1.36,0-2.71-.36-3.89-.93,1.77,3.15,10.42,3.68,13.19-1.4,2.81-5.16-8.13-12.66-24.39-4.85Z"/>
            <path class="cls-35" d="M380.92,122.43l10.6,6.28s5.67-13.93,8.79-16.55l-12.55-6.91c-.62,7.56-2.45,13.77-6.84,17.18Z"/>
            <path class="cls-35" d="M234,96.34c-16.54,4.19-17.35,6.41-12.98,8.13,4.38,1.72,17.04-3.6,19.39-5.94,2.35-2.35-3.18-3.01-6.41-2.19Z"/>
            <path class="cls-35" d="M135.97,136.52c-.47-16.88,7.97-17.2,7.97-17.2,0,0,10.63,10.01,17.82,11.41,7.19,1.41-4.3,16.84-6.57,13.29-6.93-5.71-10.32-8.6-19.23-7.5Z"/>
            <g>
              <path class="cls-11" d="M238.44,69.19s0-.08,0-.12c-.62-3.85-3.89-6.32-7.38-5.43-2.55,.64-4.47,2.89-5.12,5.6l-4.4,.02c.09-5.03,3.32-9.54,7.83-10.58,5.03-1.16,9.66,2.47,10.53,7.96,.14,.86,.14,1.71,.09,2.55h-1.54Z"/>
              <path class="cls-11" d="M40.76,67.78c-1.84-5.33-7.48-7.61-12.19-5.55-3.7,1.62-5.87,5.53-5.65,9.44l3.48-.24c.36-2.31,1.85-4.39,4.15-5.28,3.44-1.32,7.41,.49,8.68,4.27,.01,.04,.01,.08,.03,.12l1.99-.14c-.05-.88-.18-1.77-.48-2.63Z"/>
              <polygon class="cls-11" points="157.31 62.17 163.12 59.29 165.3 61.75 163.62 63.9 157.31 62.17"/>
              <polygon class="cls-11" points="135.13 67.26 134.59 62.34 142.98 62.46 143.48 68.48 135.13 67.26"/>
              <polygon class="cls-11" points="99.79 61.95 87.55 66.7 98.37 70.61 102.58 66.77 99.79 61.95"/>
              <polygon class="cls-11" points="73.28 71.16 68.19 63.78 78.28 64.23 82.65 68.85 73.28 71.16"/>
              <polygon class="cls-11" points="57.95 70.37 50.49 69.57 51.19 62.5 55.9 62.15 57.95 70.37"/>
              <polygon class="cls-11" points="114.09 69.61 109.23 66.92 113.85 63.83 117.46 67.08 114.09 69.61"/>
              <path class="cls-11" d="M183.99,67.89l.31-1.84c.16-.96-.18-1.99-.89-2.61l-3.2-2.78c-1.67-1.45-3.77-.55-3.82,1.69l-.12,5.06c0,.17-.03,.33-.06,.48h7.79Z"/>
            </g>
            <g>
              <path class="cls-9" d="M54.85,121.55l-.76-2.89c-.29-1.11-1.54-1.31-2.38-.39l-1.87,2.05c-.47,.52-.68,1.26-.52,1.9l1.33,5.42c.22,.89,1.05,1.31,1.86,.91l6.57-3.2c1.1-.54,1.53-2.1,.81-2.98l-.22-.26c-.41-.5-1.09-.62-1.71-.31l-1.2,.6c-.83,.42-1.69,.04-1.93-.85Z"/>
              <path class="cls-35" d="M149.4,84.19s.03,.07,.04,.11c1.04,3.79-1.26,7.33-5.26,7.88-2.92,.4-5.9-.92-7.76-3.16l-4.57,1.7c2.3,4.59,7.61,7.49,12.75,6.69,5.71-.89,8.93-6.03,7.43-11.43-.23-.84-.6-1.63-1.02-2.38l-1.6,.6Z"/>
              <path class="cls-35" d="M179.17,151.49s.02-.08,.03-.12c1.4-3.67,5.35-5.17,8.9-3.25,2.59,1.4,4.21,4.22,4.39,7.13l4.69,1.32c.86-5.06-1.71-10.53-6.32-12.91-5.13-2.65-10.77-.4-12.75,4.83-.31,.82-.48,1.67-.59,2.52l1.64,.46Z"/>
              <polygon class="cls-35" points="46.35 173 42.45 178.77 46.24 179.61 52.49 175.77 46.35 173"/>
              <polygon class="cls-35" points="112.46 109.92 105.24 109 103.77 112 106.31 113.52 112.46 109.92"/>
              <polygon class="cls-35" points="133.74 114.62 130.21 110.48 125.41 114.28 127.02 117.3 133.74 114.62"/>
              <polygon class="cls-35" points="102.62 150.82 99.12 145.51 94.1 149.27 95.66 153.01 102.62 150.82"/>
              <polygon class="cls-35" points="174.58 89.47 171.85 82.47 168.3 83.49 168.15 86.88 174.58 89.47"/>
              <polygon class="cls-35" points="202.84 97.93 204.96 91.69 199.01 90.41 196.98 94.13 202.84 97.93"/>
              <polygon class="cls-35" points="193.33 83.4 196.84 81 194.32 78.02 191.84 79.15 193.33 83.4"/>
              <polygon class="cls-35" points="157.59 108.4 160.8 101.3 154.79 99.8 152.07 104.02 157.59 108.4"/>
              <polygon class="cls-9" points="84.43 125.33 91.13 122.41 92.18 117.67 88.03 119.13 84.43 125.33"/>
            </g>
            <g>
              <path class="cls-9" d="M326.57,228.51v2.99c0,1.15,1.16,1.66,2.2,.98l2.33-1.51c.59-.38,.98-1.05,.99-1.7l.1-5.59c.02-.92-.68-1.53-1.57-1.36l-7.17,1.42c-1.21,.24-2.01,1.64-1.54,2.68l.14,.31c.27,.59,.89,.88,1.58,.73l1.31-.28c.91-.19,1.65,.4,1.65,1.31Z"/>
              <path class="cls-35" d="M225.62,240.5s-.01-.08-.01-.12c-.04-3.93,3.09-6.77,7.1-6.28,2.93,.36,5.47,2.4,6.7,5.04l4.85-.48c-1.05-5.03-5.45-9.19-10.62-9.72-5.75-.59-10.17,3.56-10.1,9.16,.01,.88,.17,1.73,.38,2.57l1.7-.17Z"/>
              <path class="cls-35" d="M214.01,167.83s-.04,.07-.06,.1c-2.29,3.19-6.49,3.63-9.44,.87-2.15-2.02-2.99-5.16-2.42-8.01l-4.2-2.48c-2.13,4.67-1.04,10.62,2.82,14.1,4.29,3.87,10.31,3.14,13.56-1.42,.51-.71,.89-1.49,1.21-2.29l-1.47-.87Z"/>
              <polygon class="cls-35" points="347.92 180.93 353.16 176.34 349.71 174.56 342.69 176.69 347.92 180.93"/>
              <polygon class="cls-35" points="267.9 225.05 274.65 227.79 276.84 225.25 274.76 223.13 267.9 225.05"/>
              <polygon class="cls-35" points="248.53 215.07 250.88 219.97 256.5 217.53 255.71 214.2 248.53 215.07"/>
              <polygon class="cls-35" points="287.86 188.02 289.88 194.04 295.69 191.69 295.14 187.68 287.86 188.02"/>
              <polygon class="cls-35" points="202.61 228.97 203.47 236.43 207.16 236.35 208.18 233.12 202.61 228.97"/>
              <polygon class="cls-35" points="177.45 213.58 173.82 219.07 179.24 221.82 182.14 218.75 177.45 213.58"/>
              <polygon class="cls-35" points="182.94 230.05 178.93 231.47 180.61 235 183.3 234.54 182.94 230.05"/>
              <polygon class="cls-35" points="223.88 215 218.96 221.05 224.39 224.03 228.09 220.65 223.88 215"/>
              <polygon class="cls-9" points="298.94 217.3 291.71 218.41 289.49 222.73 293.87 222.38 298.94 217.3"/>
            </g>
            <g>
              <path class="cls-14" d="M62.53,49.24l2.05,2.63c.96,1.22,2.88,1.21,3.5-.08l1.26-2.59c.29-.6,.07-1.31-.52-1.8l-3.97-3.27c-.51-.42-1.4-.44-2.03-.05l-5.31,3.24c-.93,.57-1.21,1.75-.46,2.29l.24,.17c.47,.33,1.18,.3,1.78-.09l1.13-.73c.77-.5,1.79-.39,2.32,.29Z"/>
              <path class="cls-42" d="M71.17,40.88s-.02-.07-.03-.1c-.69-3.37,1.52-6.33,5.05-6.57,2.57-.18,5.09,1.14,6.59,3.21l4.08-1.22c-1.74-4.14-6.21-6.98-10.74-6.57-5.04,.45-8.14,4.75-7.14,9.55,.16,.75,.43,1.46,.75,2.14l1.43-.43Z"/>
              <path class="cls-14" d="M172.21,55.89s.02-.07,.03-.1c1.23-3.21,4.68-4.52,7.79-2.84,2.27,1.23,3.68,3.69,3.84,6.23l4.1,1.16c.75-4.42-1.49-9.21-5.53-11.29-4.49-2.32-9.42-.35-11.15,4.23-.27,.72-.42,1.46-.51,2.21l1.44,.41Z"/>
              <polygon class="cls-14" points="138.44 49.66 135.04 54.71 138.35 55.45 143.81 52.08 138.44 49.66"/>
              <polygon class="cls-14" points="100.32 36.62 94 35.81 92.72 38.44 94.94 39.77 100.32 36.62"/>
              <polygon class="cls-14" points="118.93 40.73 115.85 37.11 111.64 40.44 113.05 43.08 118.93 40.73"/>
              <polygon class="cls-14" points="125.8 55.57 122.74 50.93 118.35 54.22 119.71 57.49 125.8 55.57"/>
              <polygon class="cls-14" points="154.65 18.73 152.26 12.62 149.16 13.51 149.02 16.47 154.65 18.73"/>
              <polygon class="cls-14" points="192.71 33.85 194.56 28.39 189.36 27.27 187.59 30.52 192.71 33.85"/>
              <polygon class="cls-14" points="165.21 31.35 168.29 29.26 166.08 26.65 163.91 27.64 165.21 31.35"/>
              <polygon class="cls-14" points="140.41 38.83 143.23 32.62 137.97 31.31 135.59 35 140.41 38.83"/>
              <polygon class="cls-14" points="85.8 52.15 91.67 51.41 92.75 45.8 88.12 47.19 85.8 52.15"/>
            </g>
            <g>
              <path class="cls-14" d="M336.8,58l2.05,2.63c.96,1.22,2.88,1.21,3.5-.08l1.26-2.59c.29-.6,.07-1.31-.52-1.8l-3.97-3.27c-.51-.42-1.4-.44-2.03-.05l-5.31,3.24c-.93,.57-1.21,1.75-.46,2.29l.24,.17c.47,.33,1.18,.3,1.78-.09l1.13-.73c.77-.5,1.79-.39,2.32,.29Z"/>
              <path class="cls-14" d="M350.76,55.88s-.02-.07-.02-.1c-.43-3.41,2-6.19,5.53-6.17,2.58,.02,4.99,1.53,6.33,3.7l4.17-.91c-1.42-4.26-5.66-7.43-10.21-7.37-5.06,.07-8.48,4.12-7.85,8.98,.1,.76,.32,1.48,.59,2.19l1.46-.32Z"/>
              <path class="cls-42" d="M429.76,48.38s.02-.07,.03-.1c1.23-3.21,4.68-4.52,7.79-2.84,2.27,1.23,3.68,3.69,3.84,6.23l4.1,1.16c.75-4.42-1.49-9.21-5.53-11.29-4.49-2.32-9.42-.35-11.15,4.23-.27,.72-.42,1.46-.51,2.21l1.44,.41Z"/>
              <polygon class="cls-14" points="404.9 43.1 401.49 48.15 404.8 48.88 410.27 45.52 404.9 43.1"/>
              <polygon class="cls-14" points="404.45 38.81 398.14 38 396.85 40.63 399.08 41.96 404.45 38.81"/>
              <polygon class="cls-14" points="392.73 39.01 389.65 35.39 385.45 38.72 386.85 41.36 392.73 39.01"/>
              <polygon class="cls-14" points="383.34 48.07 380.28 43.43 375.89 46.71 377.26 49.98 383.34 48.07"/>
              <polygon class="cls-14" points="394.06 51.72 391.67 45.6 388.57 46.5 388.43 49.46 394.06 51.72"/>
              <polygon class="cls-14" points="423.09 54.76 424.94 49.31 419.73 48.19 417.97 51.44 423.09 54.76"/>
              <polygon class="cls-14" points="417.28 46.05 420.36 43.95 418.15 41.35 415.98 42.33 417.28 46.05"/>
              <polygon class="cls-42" points="372.28 58.89 378.53 56.15 375.5 51.66 371.26 52.81 372.28 58.89"/>
              <polygon class="cls-14" points="351.5 58.69 357.29 60.04 360.2 55.1 355.35 54.8 351.5 58.69"/>
            </g>
            <path class="cls-35" d="M424.34,99.42l7.64,5.95-14.12,3.31-4.6-4.84s5.7,13.59,24.92,21.42l14.29-11.39c-10-6.86-28.13-14.45-28.13-14.45Z"/>
            <path class="cls-9" d="M267.17,117.31c-1.7,1.08-3.24,3.53,.37,10.62l-16.35,3.91-7.35,18.58c12.06,17.31,17.71,19.4,17.71,19.4l5.51-2.32,15.39-27.32c-3.86-4.26-7.48-8.9-9.46-13.13-1.49-3.8-4.42-10.64-5.83-9.74Zm1.79,10.28c-1.89-3.56-2.74-6.97-1.32-7.84,1.22-.75,2.92,4.02,3.91,7.22l-2.6,.62Z"/>
            <path class="cls-9" d="M452.46,113.87c-2.76-1.89-6.14-3.84-9.58-5.67l-4.71,17.05s0,0,0,0l14.29-11.39Z"/>
            <path class="cls-11" d="M240.93,37.98c11.15-.42,10.42-10.21,10.42-10.21-1.77,5.24-5.03,8.88-10.42,10.21Z"/>
            <path class="cls-11" d="M248.26,43.84c8.26-.34,7.72-8.23,7.72-8.23-1.31,4.22-3.72,7.16-7.72,8.23Z"/>
            <path class="cls-27" d="M319.44,23.93c-4.52,6.92,2.23,11.06,2.23,11.06-2.68-3.52-3.67-7.18-2.23-11.06Z"/>
            <path class="cls-27" d="M327.71,21.93c-5.97,5.66-.21,10.63-.21,10.63-1.84-3.52-2.11-7.11,.21-10.63Z"/>
            <path class="cls-27" d="M336.2,22.55c-6.71,4.75-1.72,10.49-1.72,10.49-1.32-3.75-1.08-7.34,1.72-10.49Z"/>
            <path class="cls-27" d="M349.76,27.83c-8.17,1.21-6.22,8.62-6.22,8.62,.48-3.96,2.3-7.07,6.22-8.62Z"/>
            <path class="cls-27" d="M359.77,33.45c-8.17,1.21-6.22,8.62-6.22,8.62,.48-3.96,2.3-7.07,6.22-8.62Z"/>
            <path class="cls-27" d="M338.18,47.1c-.96,5.85-6.06,4.34-6.06,4.34,2.75-.28,4.93-1.54,6.06-4.34Z"/>
            <path class="cls-27" d="M336.72,42.91c-.96,5.85-6.06,4.34-6.06,4.34,2.75-.28,4.93-1.54,6.06-4.34Z"/>
            <path class="cls-11" d="M238.95,31.91c8.02-1.98,5.91-9.61,5.91-9.61-.44,4.4-2.22,7.76-5.91,9.61Z"/>
            <path class="cls-11" d="M228.49,25.52c7.48-3.52,3.91-10.59,3.91-10.59,.43,4.4-.65,8.04-3.91,10.59Z"/>
            <path class="cls-11" d="M206.17,26.85c-5.33-5.07-2.31-12.38-2.31-12.38-.72,4.62-.28,8.66,2.31,12.38Z"/>
            <path class="cls-11" d="M215.46,25.45c-4.72-7.3,2.16-13.7,2.16-13.7-2.83,4.5-3.93,8.85-2.16,13.7Z"/>
            <g>
              <path class="cls-25" d="M76.7,212.93c6.96-20.27-1.74-35.89-10.72-41.64,5.8,9.59,14.2,22.74,3.77,44.65-10.43,21.92-5.8,58.44,11.59,83.01l6.67-.55c-22.12-48.49-18.26-65.2-11.3-85.47Z"/>
              <polygon class="cls-40" points="68.58 297.68 58.54 286.07 46.83 285 97.54 257.01 108.35 248.22 115.31 250.85 129.54 267.04 125.89 292.7 68.58 297.68"/>
              <path class="cls-21" d="M115.31,250.85l-6.96-2.63-10.81,8.79-50.71,27.99,11.71,1.08,10.04,11.61,10.23-.89c22.92-13.85,38.07-31.67,38.43-43.75l-1.93-2.2Z"/>
              <polygon class="cls-40" points="58.45 285.66 105.1 257.31 61.61 289.62 58.45 285.66"/>
              <path class="cls-15" d="M357.42,195.67s-22.3,46.45-13.28,100.65l4.2,.53c-8.6-52.59,9.08-101.18,9.08-101.18Z"/>
              <path class="cls-15" d="M334.82,226.71s-17.77,31.78-3.48,68.85l4.25,.37c-13.72-35.98-.77-69.22-.77-69.22Z"/>
              <path class="cls-15" d="M348.63,183.16c-1.27,28.47-25.79,78.08-11.3,119.72l4.35-4.66c-13.62-51.23,13.04-83.56,6.96-115.06Z"/>
              <path class="cls-33" d="M364.91,273.09c19.76,9.92,11.16,24.71,11.16,24.71l12.8-.18c7.62-22.75-3.69-27.82-23.96-24.53Z"/>
              <path class="cls-33" d="M382.25,275.22c-23.2,4.05-19.07,20.55-19.07,20.55l-12.97-3.69c-.65-23.83,12.45-25.56,32.04-16.86Z"/>
              <path class="cls-45" d="M381.38,254.84c-28.79-4.75-55.83,13.7-45.6,45.29l26.28,1.05c-2.9-18,6.07-25.44,15.84-23.69,11.21,2.01,12.46,14.33,8.38,24.66l18.28,.73c16.04-17.53,5.6-43.28-23.18-48.03Z"/>
              <path class="cls-44" d="M377.73,267.85c11.57,0,22.28,1.59,31.08,4.3-4.63-8.35-14.04-15.11-27.43-17.31-20.73-3.42-40.56,5.19-46.21,22.08,9.91-5.52,25.28-9.07,42.56-9.07Z"/>
              <path class="cls-21" d="M257.35,226.9l6.18,34.34,1.55,29.95h55.83l.77-20.46-15.84-50.41v-5.66c-2.32-5.11-46.18-4.57-48.49,12.24Z"/>
              <path class="cls-40" d="M319.73,272.06c-11.7,6.05-32.25-8.16-45.9-31.74-4.43-7.66-7.58-15.36-9.43-22.48-3.84,2.26-6.53,5.24-7.06,9.06l6.18,34.34,1.55,29.95h55.84l.77-20.4c-.6,.48-1.25,.91-1.94,1.27Z"/>
              <path class="cls-29" d="M294.67,214.64c3.82,0,7.55,.38,11.17,1.1v-1.08c-2.32-5.11-46.17-4.57-48.49,12.24l.24,1.36c10.01-8.49,22.94-13.61,37.08-13.61Z"/>
              <path class="cls-22" d="M291.71,269.46c-10.41-4.17-46.67-22.93-58.27-25.99l-14.93,42.78,47.04,6.01c.52,1.64,1.37,3.31,2.61,5.02,2.74,3.77,20.92,6.18,29.68-12.68,3.84-8.27-.34-13.33-6.13-15.14Z"/>
              <path class="cls-21" d="M262.68,271.03c-13.37-6.63-24.58-14.06-31.68-20.56l-12.49,35.78,47.04,6.01c.52,1.64,1.37,3.31,2.61,5.02,2.74,3.77,20.92,6.18,29.68-12.68,.11-.25,.2-.48,.3-.72-9.64-1.87-22.3-6.33-35.46-12.85Z"/>
              <path class="cls-3" d="M271.16,283.51l-5.27-8.36c2.43-.88,5.75-1.32,8.84-.41l-3.57,8.77Z"/>
              <path class="cls-3" d="M274.54,270.64c-16.62-2.65-35.03,16.8-12.75,22.65,27.82,7.31,29.37-20,12.75-22.65Zm-11.59,21.01c-18.35-4.82-3.18-20.83,10.5-18.65,13.68,2.18,12.41,24.67-10.5,18.65Z"/>
              <path class="cls-7" d="M202.28,291.73c-21.5-17.88-4.25-41.09,12.36-48.03,16.62-6.94,40.19,5.66,27.82,29.59-12.36,23.93-35.36,22.46-40.19,18.45Z"/>
              <path class="cls-28" d="M220.04,242.17c-1.84,.31-3.65,.81-5.39,1.53-2.82,1.18-5.65,2.83-8.31,4.83,16.83,.88-9.37,26.85,20.66,41.42,3.3-1.84,6.57-4.42,9.58-7.9-28.89-5.71-14.5-28.49-16.55-39.88Z"/>
              <path class="cls-22" d="M215.01,249.29c-15.43,6.17-31.35,25.53-11.23,39.28,4.52,3.09,25.94,3.5,37.31-16.27,11.37-19.78-10.65-29.19-26.08-23.01Zm24.6,22.77c-10.6,18.43-30.56,18.05-34.78,15.17-18.76-12.82-3.92-30.87,10.47-36.62,14.38-5.75,34.91,3.02,24.31,21.45Z"/>
              <path class="cls-25" d="M398,231.39c-7.64-11.12,4.49-53.54,4.49-53.54-14.15,41.88-11.13,50.62-4.8,59.81,10.04,14.59-.42,47.66,1.93,63.57l5.07,1.16c-4.78-37.62,9.27-47.78-6.68-71Z"/>
              <polygon class="cls-3" points="115.31 250.85 111.06 249.24 111.13 294.55 125.89 292.7 129.54 267.04 115.31 250.85"/>
              <path class="cls-25" d="M97.4,129.03c-22.2,33.2-15.39,51.37-3.46,71.78,15.1,25.85,2.55,70.29,7.44,93.79l7.32-1.01c-9.46-52.9,7.49-61.73-14.66-101.29-14.53-25.95,3.36-63.27,3.36-63.27Z"/>
              <path class="cls-15" d="M93.94,200.81c1.82,3.12,3.24,6.52,4.33,10.12,.85-1.47,1.65-3.16,2.4-5.03-1.68-4.15-3.84-8.64-6.63-13.61-14.53-25.95,3.36-63.27,3.36-63.27-22.2,33.2-15.39,51.37-3.46,71.78Z"/>
              <path class="cls-25" d="M107.69,207.31c1.04,15.62-29.04,38.39-19.51,90.69l8.33-1.26c-7.97-59.5,19.82-73.69,15.54-89.55-8.28-30.63-2.38-33.02,.67-53.4-12.73,20-6.11,37.3-5.03,53.52Z"/>
              <path class="cls-22" d="M183.93,218.86c-9.66-5.11-61.82-6.57-61.82-6.57,0,0-1.16,46.75-6.57,83.65l66.07-1.46c-9.27-23.38,2.32-75.61,2.32-75.61Z"/>
              <g>
                <path class="cls-21" d="M183.93,218.86c-.43-.22-.94-.44-1.52-.65,.23,1.79,.42,3.61,.54,5.47,.58-3.04,.98-4.82,.98-4.82Z"/>
                <path class="cls-21" d="M178.45,257.34c-5.01,13.36-13.05,32.74-22.73,32.74-15.42,0-28.4-32.92-28.4-60.45,0-6.01,.6-11.77,1.69-17.1-4.23-.17-6.9-.25-6.9-.25,0,0-1.16,46.75-6.57,83.65l66.07-1.46c-3.75-9.45-4.09-23.61-3.16-37.13Z"/>
              </g>
              <path class="cls-13" d="M466.27,305.06H.37s26.51-13.15,74.95-16.07c48.43-2.92,116.6,0,145.3-5.84,28.7-5.84,102.25-2.94,122.87,7.29,20.63,10.23,81.53-2.91,122.79,14.63Z"/>
              <path class="cls-1" d="M466.27,306.89H.37s26.51-13.15,74.95-16.07c48.43-2.92,116.6,0,145.3-5.84,28.7-5.84,108.97-3.65,129.6,6.57,20.63,10.23,74.81-2.19,116.06,15.34Z"/>
              <path class="cls-26" d="M265.56,297.03c60.33,0,114.7,2.36,154.8-.04-29.32-1.45-62.77-.39-75.54-6.72-20.63-10.23-96.92-9.27-124.33-6.94-28.7,5.84-96.75,4.57-145.18,7.49-5.81,.35-11.39,.85-16.71,1.46,28.78,4.4,94.32-.56,172.77-.54,11.29,0,22.42,5.3,34.19,5.3Z"/>
              <path class="cls-5" d="M158.84,202.91c2.14,.3,4.25-1.04,4.72-3.01,.46-1.96-.9-3.8-3.04-4.1-2.14-.3-4.25,1.04-4.72,3.01-.46,1.96,.9,3.8,3.04,4.1Z"/>
              <path class="cls-26" d="M94.38,288.81c-33.52,2.35-55.73,13.3-64.09,16.73,36.27-9.79,55.64-1.16,85.18-5.16,24.26-3.29,43.54-7.62,53.49-11.47-24.28,.46-52.21-1.66-74.58-.1Z"/>
              <path class="cls-1" d="M78.25,288.61c11.24,1.91,26.45,.84,42.8,.84,22.07,0,41.13,.39,52.47-2.83-25.19-.84-61.97-1.74-95.27,1.99Z"/>
              <path class="cls-26" d="M321.67,303.79h56.79c8.48-2.57-2.07-7.17-2.07-7.17,0,0,2.19,3.43-25.22,4.89-27.41,1.46-29.09-2.18-66.93-6.13-37.84-3.95-36.03,1.78-100.73,3.74-47.93,1.46-49.61-4.89-49.61-4.89l-16.48,1.98s3.2,4.14,12,7.59h65.53c55.02-12.37,76.59-4.05,126.73,0Z"/>
              <path class="cls-19" d="M153.12,217.84c10.37,1.28,20.39,3.07,29.94,5.27,.52-2.69,.87-4.24,.87-4.24-9.66-5.11-61.82-6.57-61.82-6.57,0,0-.03,1.19-.1,3.34,10.06,.17,20.48,.89,31.12,2.21Z"/>
              <path class="cls-24" d="M214.26,246.26c13.93-5.82,32.74,2.11,31.17,18.92,3.83-18.56-16.16-27.59-30.78-21.48-10.48,4.38-21.2,15.23-22.3,27.14,2.26-10.88,12.19-20.52,21.92-24.58Z"/>
              <path class="cls-40" d="M237.55,264.16c1.88-2.11,2.37-4.65,1.09-5.68-1.28-1.03-3.85-.15-5.74,1.96-1.88,2.11-2.37,4.65-1.09,5.68,1.28,1.03,3.85,.15,5.74-1.96Z"/>
              <path class="cls-22" d="M316.08,262.92c-13.36-18.66-13.77-32.46-11.16-32.87,2.61-.41,12.62,34.92,11.16,32.87Z"/>
              <path class="cls-22" d="M304.61,223.02c-.44-2.19-1.41-3.86-2.16-3.72-.75,.14-.99,2.02-.55,4.21s1.41,3.86,2.16,3.72,.99-2.02,.55-4.21Z"/>
              <path class="cls-4" d="M302.91,205.49c.79-2.18,.46-4.27-.76-4.66s-2.84,1.06-3.63,3.24c-.79,2.18-.46,4.27,.76,4.66,1.21,.39,2.84-1.06,3.63-3.24Z"/>
              <path class="cls-22" d="M237.55,264.16c1.88-2.11,2.37-4.65,1.09-5.68-1.28-1.03-3.85-.15-5.74,1.96-1.88,2.11-2.37,4.65-1.09,5.68,1.28,1.03,3.85,.15,5.74-1.96Z"/>
              <path class="cls-40" d="M237.15,263.54c1.44-1.61,1.82-3.55,.83-4.34s-2.95-.11-4.39,1.5c-1.44,1.61-1.82,3.55-.83,4.34s2.95,.11,4.39-1.5Z"/>
              <path class="cls-39" d="M183.82,219.35c.07-.31,.11-.49,.11-.49-9.66-5.11-61.82-6.57-61.82-6.57,0,0,0,.27-.02,.77,7.13,.28,49.18,2.08,61.74,6.29Z"/>
              <path class="cls-15" d="M107.5,210.56c1.65,.52,3.28,1.15,4.88,1.89,.22-1.78,.14-3.51-.33-5.26-8.27-30.63-2.38-33.02,.67-53.4-12.73,20-6.11,37.3-5.03,53.52,.07,1.05,0,2.13-.19,3.25Z"/>
              <path class="cls-24" d="M236.22,263.17c.97-1.36,1.09-2.89,.26-3.42s-2.29,.15-3.27,1.51c-.97,1.36-1.09,2.89-.26,3.42,.83,.53,2.29-.15,3.27-1.51Z"/>
              <path class="cls-4" d="M233.98,135.52c-.31-1.54-1.16-2.67-1.9-2.54-.74,.13-1.08,1.49-.77,3.02,.31,1.54,1.16,2.67,1.9,2.54s1.08-1.49,.77-3.02Z"/>
              <path class="cls-4" d="M233.11,166.32c.31-1.54-.03-2.89-.77-3.02-.74-.13-1.59,1-1.9,2.54-.31,1.54,.03,2.89,.77,3.02,.74,.13,1.59-1,1.9-2.54Z"/>
              <path class="cls-45" d="M388.84,257.56c10.04,12.41,4.6,19.19,4.6,19.19-.23-6.35-1.88-12.75-4.6-19.19Z"/>
              <path class="cls-45" d="M377.38,257.09c11.92,10.82,7.64,18.31,7.64,18.31-1.25-6.24-3.91-12.33-7.64-18.31Z"/>
              <path class="cls-45" d="M364.6,257.76c14.03,8.26,11.47,16.43,11.47,16.43-2.58-5.87-6.52-11.31-11.47-16.43Z"/>
              <path class="cls-45" d="M349.51,260.93c15.7,4.88,15.27,13.39,15.27,13.39-3.98-5.12-9.17-9.52-15.27-13.39Z"/>
              <path class="cls-45" d="M338.79,270.87c16.09,3.57,16.44,12.08,16.44,12.08-4.44-4.77-10.01-8.73-16.44-12.08Z"/>
              <path class="cls-8" d="M273.42,263.95c-2.4,.09-11.24-3.51-16.21-6.03-3.02-1.53-4.56-2.65-4.35-2.98,.22-.36,2.52,.11,6.51,1.56,7.28,2.66,16.98,7.35,14.06,7.45Z"/>
              <path class="cls-8" d="M284.98,269.36c-1.42,.34-4.93-1.58-6.68-3.06-1.06-.9-1.46-1.64-1.2-1.93,.28-.31,1.41-.2,3.06,.53,3.03,1.33,6.54,4.05,4.81,4.46Z"/>
              <path class="cls-3" d="M148.5,233.39c-11.5-.59-20.83,7.86-20.83,18.88s9.33,20.41,20.83,21,20.83-7.86,20.83-18.88-9.33-20.41-20.83-21Zm-1.72,36.25c-8.85-.48-15.26-8.17-14.32-17.18,.95-9.01,8.89-15.92,17.75-15.44,8.85,.48,15.26,8.17,14.32,17.18-.95,9.01-8.89,15.92-17.75,15.44Z"/>
              <path class="cls-3" d="M162.6,257.39l-12.61-3.21c.11-.14,.21-.28,.28-.45,.49-1.07,.01-2.3-1.07-2.83l5.25-10.6c-4.06-.82-8.06-1.01-11.94-.24l5.26,10.61c-.77,.11-1.46,.58-1.79,1.3-.25,.54-.25,1.12-.05,1.64l-12.91,.65c.54,4.09,2.31,7.47,5.4,10.06l7.93-10.04c.22,.25,.5,.46,.84,.59,.71,.29,1.48,.22,2.1-.12l5.41,11.1c3.69-1.89,6.42-4.62,7.9-8.47Z"/>
              <path class="cls-21" d="M173.79,227.86c-14.49-1.78-48.83-1.92-48.83-1.92,0,0,38.54-4.25,48.83,1.92Z"/>
              <path class="cls-21" d="M124.48,221.52c10.82-.5,36.46,.77,36.46,.77,0,0-28.78-4.06-36.46-.77Z"/>
              <path class="cls-21" d="M132.4,278.59c10.82-.5,36.46,.77,36.46,.77,0,0-28.78-4.06-36.46-.77Z"/>
              <path class="cls-45" d="M381.38,254.84c-18-2.97-35.32,3.14-43.26,15.86,.46,.12,.92,.23,1.39,.34,8.33-11.7,24.97-17.22,42.26-14.37,7.41,1.22,13.59,3.84,18.42,7.35,.35-.24,.69-.49,1.02-.74-5.02-4.05-11.67-7.09-19.82-8.44Z"/>
              <path class="cls-40" d="M263.34,231.42c18.35-6.85,27.53-9.18,27.53-9.18l-26.5,12.65-1.04-3.47Z"/>
              <polygon class="cls-1" points=".15 298.62 .15 306.89 27.95 306.89 .15 298.62"/>
              <polygon class="cls-1" points="467.08 298.62 467.08 306.89 439.28 306.89 467.08 298.62"/>
            </g>
            <g class="cls-38">
              <path class="cls-18" d="M0,76.79l.15,230.1,466.94-.68-.17-242.93c-71.22-8.1-145.43,8.29-222.75,6.63-95.28-2.04-196.54-2.6-244.17,6.88Z"/>
            </g>
            <path class="cls-16" d="M243.74,70.08c77.56,1.35,151.59-10.31,223.18-4.76v-7.12c-71.22-6.8-145.43,11.67-222.76,10.28-95.28-1.71-196.54-4.8-244.17,3.16v8.44c51.98-6.68,150.86-11.62,243.74-10.01Z"/>
            <g>
              <path class="cls-11" d="M359.66,135.86c-6.89,8.46-13.79,16.92-20.68,25.38-1.24,1.52-2.51,3.07-4.11,4.21-2.87,2.04-6.52,2.56-10.39,3.18-1.82,2.58-3.65,5.16-5.66,7.98,.37,.53,.6,1.16,.66,2-1.89-.21-3.73-.93-5.26-2.06l-.69-.37c-1.53-1.13-2.76-2.68-3.51-4.42,.81-.19,1.48-.15,2.1,.04,2.11-2.75,4.04-5.25,5.97-7.75-.54-3.88-1.11-7.52,0-10.86,.62-1.87,1.72-3.53,2.81-5.16,6.07-9.07,12.13-18.14,17.8-27.26,4.71-1.27,9.97-.34,13.96,2.46,3.99,2.8,6.65,7.43,7,12.64Z"/>
              <path class="cls-11" d="M347.11,124.48c-.42,1.79-.75,3.6-.98,5.43-.09,.67-.12,1.45,.38,1.9,.5,.45,1.28,.34,1.92,.14,1.59-.49,3.05-1.33,4.49-2.16"/>
              <path class="cls-11" d="M356.83,134c-2.42-.25-4.79-1.02-6.91-2.23"/>
              <path class="cls-11" d="M346,127.82c-1.87-1.25-3.5-2.86-4.79-4.7"/>
              <path class="cls-11" d="M337.9,126.95c-2.82,4.58-5.65,9.16-8.47,13.74"/>
              <path class="cls-11" d="M328.12,143.01c-.86,1.37-1.72,2.74-2.58,4.11"/>
              <path class="cls-11" d="M320.79,159.09c.6,1.66,.38,3.52-.24,5.17-.62,1.65-1.61,3.13-2.6,4.59"/>
              <path class="cls-11" d="M316.42,170.82c-.29,.55-.58,1.09-.87,1.64"/>
              <path class="cls-11" d="M359.51,135.76c-6.3,8.3-12.78,16.47-19.43,24.49"/>
              <path class="cls-11" d="M329.05,168.1c-1.63,.41-3.31,.62-4.83,.65-1.42,2.44-3.46,5.43-5.26,7.72,.31,.63,.5,1.33,.57,2.15-1.27-.04-2.53-.36-3.66-.93"/>
              <path class="cls-11" d="M317.94,177.09c-2.06-2.31-4.69-4.09-7.8-5.18,1.07,1.93,2.65,3.57,4.54,4.72"/>
            </g>
            <g>
              <path class="cls-11" d="M134.36,179.86c-3.19-.73-6.43-4.29-6.99-7.73,1.74,.03,3.9,.96,5.11,2.21s2.11,3.54,1.87,5.52Z"/>
              <path class="cls-11" d="M134.36,179.86c2.96-3.03,5.93-6.05,8.89-9.08,.41-.41,.83-.84,1.38-1.02,.39-.13,.82-.12,1.23-.11,2.65,.07,5.29,.14,7.65,.19,.64,0,1.25-.34,1.68-.82,.42-.48,.67-1.1,.83-1.72,.39-1.58,.18-3.33-.7-4.7-.88-1.37-2.45-2.3-3.93-2.2-3.39-.31-6.8-.26-10.44,.14-1.92,1.19-3.78,2.47-5.56,3.86-.07,.05-.14,.12-.17,.2-.02,.1,.03,.2,.09,.29,.46,.75,.91,1.49,1.37,2.24-1.29,.48-2.83-.06-4.07,.54-.47,.23-.85,.6-1.22,.96-1.23,1.2-2.46,2.4-3.99,3.62,.34,.08,3.54,.33,5.28,2.29,1.91,2.15,1.52,4.99,1.68,5.32Z"/>
              <path class="cls-11" d="M151.4,160.4c-3.39-.31-6.8-.26-10.44,.14-1.55,.96-3.06,1.99-4.53,3.08,1.35,.61,2.6,1.46,3.66,2.51,1.35,1.35,2.37,3.02,2.99,4.83,.06-.06,.12-.12,.18-.18,.41-.41,.83-.84,1.38-1.02,.39-.13,.82-.12,1.23-.11,2.65,.07,5.29,.14,7.65,.19,.64,0,1.25-.34,1.68-.82,.42-.48,.67-1.1,.83-1.72,.39-1.58,.18-3.33-.7-4.7-.88-1.37-2.45-2.3-3.93-2.2Z"/>
              <path class="cls-11" d="M142.41,171.23c-2.71,2.4-5.05,5.32-7.65,7.85"/>
              <path class="cls-11" d="M151.97,162.48c-3.1-.07-6.2,.06-9.28,.39"/>
              <g>
                <path class="cls-11" d="M136.69,170.29c-1.05,.21-.75,1.78,.3,1.6,1.05-.21,.75-1.78-.3-1.6Z"/>
                <path class="cls-11" d="M138.76,170.42c-1.05,.21-.75,1.78,.3,1.6,1.05-.21,.75-1.78-.3-1.6Z"/>
                <path class="cls-11" d="M137.22,172.67c-1.05,.21-.75,1.78,.3,1.6,1.05-.21,.75-1.78-.3-1.6Z"/>
                <path class="cls-11" d="M134.13,172.81c-1.05,.21-.75,1.78,.3,1.6,1.05-.21,.75-1.78-.3-1.6Z"/>
                <path class="cls-11" d="M133.73,169.76c-1.05,.21-.75,1.78,.3,1.6,1.05-.21,.75-1.78-.3-1.6Z"/>
                <path class="cls-11" d="M135.69,174.91c-1.05,.21-.75,1.78,.3,1.6,1.05-.21,.75-1.78-.3-1.6Z"/>
              </g>
            </g>
            <g>
              <g>
                <path class="cls-14" d="M390.78,181.8c-4.84-1.01-9.77-1.58-14.71-1.69,0,0-.02,.02-.03,.03-.05-.06-.11-.11-.18-.14-.16-.06-.36-.02-.46,.13-.06,.09-.07,.22-.02,.33-.11-.11-.24-.21-.39-.26-.2-.07-.46-.02-.58,.16-.15,.22-.05,.52,.07,.76-.19-.15-.45-.25-.69-.2-.24,.05-.45,.29-.41,.53,.02,.17,.15,.31,.28,.43-.25-.1-.55-.08-.75,.1-.2,.18-.24,.52-.06,.72,.1,.11,.27,.19,.27,.33-.23-.08-.51,.01-.66,.21-.15,.2-.15,.49-.02,.7,.07,.11,.17,.19,.28,.25,.46,12.14,1,23.02,2.11,33.66,.39,.61,1.08,1.02,1.8,1.06,.72,.04,1.46-.3,1.91-.87l-2.54-33c0-.6,.29-.95,.64-1.05,4.18,.23,9.36,.83,13.3,1.62,.66-.37,1.21-.99,1.38-1.72,.17-.73-.03-1.53-.53-2.08Z"/>
                <path class="cls-14" d="M390.31,182.62c-.53,.43-.79,1.17-.63,1.84"/>
                <g>
                  <path class="cls-14" d="M385.49,181.27c.64,1.12,1.28,2.24,1.93,3.36"/>
                  <path class="cls-14" d="M381.47,181c.64,1.05,1.29,2.11,1.93,3.16"/>
                  <path class="cls-14" d="M377.57,180.7c.65,1.04,1.3,2.08,1.95,3.12"/>
                  <path class="cls-14" d="M375.84,186.31c-.95,1-1.9,1.99-2.84,2.99"/>
                  <path class="cls-14" d="M376.07,190.07c-.98,1.15-1.95,2.31-2.93,3.46"/>
                  <path class="cls-14" d="M376.35,194.94c-1.03,1.05-2.08,2.34-2.5,2.69"/>
                  <path class="cls-14" d="M376.9,199.9c-.97,1.15-1.83,1.77-2.9,2.83"/>
                  <path class="cls-14" d="M377.02,204.75c-1.01,1.08-1.8,1.68-2.91,2.66"/>
                  <path class="cls-14" d="M377.74,209.78c-1,1.02-2.06,1.98-3.15,2.9"/>
                  <path class="cls-14" d="M375.1,217.57c.96-.85,1.92-1.7,2.88-2.55"/>
                </g>
                <path class="cls-14" d="M372.75,184.94c.16,10.51,1.34,22.28,2.39,33.42,.43,.5,1.07,.81,1.72,.84,.66,.03,1.32-.22,1.79-.68"/>
                <g>
                  <path class="cls-14" d="M374.04,182.76c.51,.45,1.02,.9,1.53,1.36"/>
                  <path class="cls-14" d="M375.09,181.38c.44,.64,.78,1.35,1,2.09"/>
                </g>
              </g>
              <g>
                <path class="cls-14" d="M388.68,212.43c-.11,.02-.38-.11-.43-.21,.03,.16,.03,.32-.02,.47-.07,.2-.26,.38-.47,.37-.27,0-.45-.27-.57-.5,0,.25-.07,.51-.25,.67s-.5,.19-.67,.02c-.13-.12-.16-.31-.18-.48-.07,.26-.27,.49-.53,.55-.26,.05-.56-.11-.61-.38-.03-.14,0-.33-.11-.41-.08,.24-.32,.4-.56,.4-.25,0-.48-.17-.57-.4-.04-.12-.05-.25-.03-.37-9.5-7.57-17.94-14.46-25.85-21.65-.27-.67-.18-1.48,.22-2.08s1.1-1,1.83-1.02l25.06,21.62c.48,.35,.94,.33,1.36,.05-.03-.38-4.06-11.5-3.86-11.73,.77-.85,2.14-1.33,3.02-.77,1.64,4.99,2.5,8.37,4.29,13.82,.05,.15,.55,.26,.4,.73s-.79,.79-1.14,.45c.12,.07,.27,.76-.32,.87Z"/>
                <path class="cls-14" d="M385.18,197.28c-.45,.51-1.2,.74-1.86,.56"/>
                <g>
                  <path class="cls-14" d="M386.31,200.41c-1.01-.48-2.02-.96-3.03-1.44"/>
                  <path class="cls-14" d="M387.39,203.98c-.96-.49-1.92-.98-2.88-1.47"/>
                  <path class="cls-14" d="M388.46,207.44c-.95-.49-1.9-.99-2.85-1.48"/>
                  <path class="cls-14" d="M383.8,208.38c-1.36,.17-2.73,.35-4.09,.52"/>
                  <path class="cls-14" d="M380.92,205.97c-1.51,.1-3.02,.21-4.52,.31"/>
                  <path class="cls-14" d="M377.16,202.85c-1.46,.21-3.12,.29-3.65,.42"/>
                  <path class="cls-14" d="M373.5,199.46c-1.5,.1-2.51,.43-4,.66"/>
                  <path class="cls-14" d="M369.66,196.49c-1.47,.17-2.42,.46-3.87,.76"/>
                  <path class="cls-14" d="M366.04,192.93c-1.41,.21-2.82,.48-4.21,.82"/>
                  <path class="cls-14" d="M358.2,190.44c1.25-.27,2.51-.54,3.76-.81"/>
                </g>
                <path class="cls-14" d="M383.07,211.68c-8.37-6.37-17.15-14.29-25.49-21.74-.15-.64-.02-1.34,.35-1.88s.96-.93,1.61-1.04"/>
                <g>
                  <path class="cls-14" d="M385.6,211.94c-.06-.68-.12-1.36-.19-2.03"/>
                  <path class="cls-14" d="M387.33,211.91c-.25-.73-.62-1.43-1.09-2.05"/>
                </g>
              </g>
            </g>
            <g>
              <path class="cls-11" d="M200.73,132.14c-2.71,.04-5.42-.65-7.78-1.98-.57-.32-1.18-.77-1.26-1.42-.07-.56,.28-1.07,.64-1.49,.96-1.1,2.27-1.97,3.72-2.13,1.46-.16,3.04,.52,3.7,1.82,.79,1.55,.16,3.56,.96,5.2Z"/>
              <path class="cls-11" d="M207.78,108.11c-.14-3.47-.99-6.91-.83-10.38,.07-1.61,.36-3.21,.25-4.81-.1-1.6-.67-3.28-1.95-4.25-1.28-.97-3.94,.19-4.3,.4-1.15-1.86-3.91-3.46-6.75-3.7s-5.7,.81-7.96,2.54c-2.26,1.73-3.96,4.11-5.21,6.68-.45,.92-.85,1.88-1.56,2.62-.57,.59-1.3,1-1.91,1.53-.99,.86-1.66,2.08-1.88,3.37-.1,.62-.1,1.27-.33,1.87-.29,.77-.9,1.35-1.4,2-1.15,1.5-1.68,3.42-1.75,5.31-.08,1.89,.27,3.77,.73,5.61-1.65,1.03-3.19,1.96-4.73,2.88,7.11,6.09,15.78,10.34,24.96,12.21,1.45-1.91,2.88-3.26,4.43-4.43,.45,1.62,1.62,3.25,3.15,4.39,1.82-3.77,3.65-7.55,5-11.52,1.35-3.97,2.21-8.14,2.04-12.33Zm-17.96-9.92c-.63-.28-1.24-.61-1.71-1.12-.46-.5-.76-1.22-.59-1.88,.14-.55,.56-.98,.97-1.37,1.29-1.24,2.64-2.42,4.12-3.42,.52-.35,1.08-.68,1.7-.69,1.07-.01,1.88,.92,2.52,1.78-2.77,1.59-5.19,3.95-7.01,6.7Zm7.71,.83c-.12,.48-.3,.97-.68,1.27-.35,.27-.81,.34-1.25,.29-.44-.05-.85-.21-1.26-.37,.8-1.81,1.97-3.19,3.41-4.2,.12,1.11,.02,2.08-.21,3.01Zm6.04,.86c-.38-1.86-.79-3.99-1.19-6.12,.9,.67,1.36,1.76,1.48,2.86,.12,1.09-.07,2.19-.29,3.26Z"/>
              <path class="cls-11" d="M191.84,90.9c.68-.54,1.77-1.41,3.18-1.06,1.41,.35,2.27,1.78,2.51,2.77,.53,2.24,.51,4.6-.05,6.82-.12,.46-.33,.99-.79,1.1"/>
              <path class="cls-11" d="M187.94,94.41c-.44,.45-.46,1.19-.2,1.77,.26,.57,.74,1.01,1.23,1.41,1.3,1.03,2.77,1.83,4.34,2.36"/>
              <path class="cls-11" d="M186.24,87.91c-2.26,1.88-3.78,4.01-4.88,6.3-.52,1.09-.97,2.25-1.81,3.11-.85,.87-2.04,1.36-2.9,2.23-1.15,1.16-1.57,2.99-1.06,4.54"/>
              <path class="cls-11" d="M207.31,94.46c-1.12,5.08-.11,9.28,.25,12.08,.58,4.4-.1,8.9-1.43,13.13-1.33,4.23-3.3,8.24-5.38,12.16"/>
              <path class="cls-11" d="M174.05,108.74c-.68,2.04-.42,4.38,.69,6.22"/>
              <path class="cls-11" d="M182.06,124.24c-3.25-1.34-6.16-3.5-8.48-6.41,4.31,2.73,9.2,4.55,14.26,5.29"/>
              <path class="cls-11" d="M180.95,114.45c7.64-1,14.95-4.34,20.72-9.44"/>
              <path class="cls-11" d="M197.47,104.93c-6.1,3.17-13.27,4.26-20.04,3.05"/>
              <path class="cls-11" d="M196.68,86.08c.67,.19,3.03,1.24,3.87,2.62s1.2,3.01,1.48,4.6c.34,1.93,.6,3.89,1.12,5.78,.52,1.89,1.33,3.75,2.65,5.2"/>
            </g>
            <g>
              <path class="cls-14" d="M179.45,160.36c-.27,.51,.17,3.91,1.64,4.65,.8,.4,1.76,.45,2.53,.91,1.11,.65,1.62,1.98,1.97,3.22,.9,3.23,1.25,6.62,1.02,9.97-.02,.36-.06,.73-.25,1.04-.19,.31-.69,.91-.84,.84,.2,1.8,.28,2.72,.31,4.6,.21,.08,1.2,.41,1.55,.86,.35,.44,.49,1.02,.6,1.57,1.2,5.73,1.49,11.64,1.14,17.48-.04,.63-.09,1.28-.33,1.87-.25,.59-.83,1.3-1.45,1.42,0,0-5.29,2.65-14.57,.7l-.29-.04c-.63-.04-1.18-.5-1.51-1.05-.32-.55-.45-1.18-.57-1.81-1.1-5.75-1.58-11.64-1.13-17.48,.04-.56,.1-1.15,.39-1.64,.29-.49,1.23-.95,1.42-1.05-.21-1.87-.25-2.79-.28-4.6-.14,.09-.72-.44-.94-.72-.22-.28-.31-.64-.38-.99-.65-3.29-.75-6.7-.27-10.02,.18-1.28,.51-2.66,1.54-3.45,.71-.55,1.65-.72,2.39-1.23,1.36-.92,1.36-4.35,1.02-4.82l5.28-.22Z"/>
              <path class="cls-14" d="M172.86,157.86c.02,1.1,.11,2.19,.2,3.43,1.02,.81,2.31,1.27,3.62,1.3,1.3,.03,2.61-.37,3.78-1.08-.38-1.39-.57-2.78-.95-4.17-2.07,.03-4.32,.17-6.65,.52Z"/>
              <path class="cls-14" d="M178.84,156.51c-1.79-.33-3.72-.26-5.3,.64-.3,.17-.61,.42-.61,.77,0,.41,.44,.67,.82,.79,1.36,.43,2.84,.23,4.23-.08,.31-.07,.62-.15,.89-.3,.28-.15,.51-.4,.6-.7,.13-.48-.21-1.03-.64-1.11Z"/>
              <path class="cls-14" d="M172.93,158.86c.05,1.07,.07,1.57,.05,2.59,.94,.86,1.97,1.31,3.23,1.43,1.26,.13,3.03-.47,4.12-1.13"/>
              <g>
                <path class="cls-14" d="M174.52,159.47c.07,.66,.14,1.31,.2,1.97"/>
                <path class="cls-14" d="M175.77,159.61c.07,.76,.22,1.51,.45,2.24"/>
                <path class="cls-14" d="M177.1,159.57c.1,.7,.25,1.38,.46,2.05"/>
                <path class="cls-14" d="M178.45,159.23c.18,.66,.35,1.32,.53,1.98"/>
              </g>
              <path class="cls-14" d="M175.51,164.88c-.04,.61-.38,1.16-.8,1.6-.42,.44-.92,.8-1.36,1.23-1.54,1.5-2.25,3.81-1.79,5.92"/>
              <path class="cls-14" d="M172.8,187.03c-.9,.76-1.39,1.91-1.58,3.07-.19,1.16-.1,2.35-.02,3.52"/>
              <path class="cls-14" d="M170.99,195.3c.05,.92,.11,1.85,.16,2.77"/>
              <path class="cls-14" d="M187.36,196.56c.04,2.27,.07,4.53,.11,6.8"/>
              <path class="cls-14" d="M172.79,208.15c4.22-2.77,9.8-3.36,14.51-1.53"/>
              <path class="cls-14" d="M185.46,181.06c.12,1.56,.23,3.11,.39,4.75,1.02,.37,1.76,1.31,2.14,2.33,.38,1.02,.46,2.12,.53,3.21,.23,3.35,.46,6.71,.69,10.06"/>
              <path class="cls-14" d="M173.2,165.17c-1.34,.52-2.51,1.48-3.25,2.71-1.35,2.23-1.17,5.03-.96,7.63"/>
              <path class="cls-14" d="M170.76,181.8c.1,1.43,.2,2.86,.29,4.29"/>
              <path class="cls-14" d="M178.93,158.23c-.94,.49-2,.76-3.06,.78"/>
            </g>
          </g>
        </g>
      </g>
    </g>
  </g>
</svg>