<?xml version="1.0" encoding="UTF-8"?>
<svg id="Layer_2" data-name="Layer 2" xmlns="http://www.w3.org/2000/svg" viewBox="0 0 96 96">
  <defs>
    <style>
      .cls-1 {
        fill: #003b7e;
      }

      .cls-2 {
        fill: #ffe500;
      }
    </style>
  </defs>
  <g id="Layer_1-2" data-name="Layer 1">
    <g>
      <circle class="cls-2" cx="48" cy="48" r="48"/>
      <path class="cls-1" d="M84.01,51.11c-1.19-.78-2.75-.62-3.79,.34-.24-.39-.55-.72-.94-.97-.14-.09-.29-.17-.44-.24l3.36-4.92c1-1.46,.62-3.46-.83-4.46-.77-.52-1.58-.68-2.44-.53-.55,.1-1.05,.35-1.47,.7-.22-.29-.51-.57-.86-.83-.71-.48-1.56-.66-2.4-.5-.21,.04-.41,.1-.6,.18l1.23-2.93c.35-.83,.34-1.72-.01-2.53-.35-.79-1.01-1.39-1.84-1.68-.83-.36-1.75-.38-2.6-.04-.26,.1-.5,.24-.72,.39-.36-.44-.85-.79-1.41-.98-.83-.36-1.75-.38-2.6-.04-.7,.28-1.27,.77-1.64,1.4-.39-.75-1.05-1.35-1.91-1.65-.89-.31-1.87-.23-2.7,.21-.16,.08-.31,.18-.45,.29-.4-.52-.94-.91-1.57-1.13-.89-.31-1.87-.23-2.7,.21-.83,.45-1.45,1.23-1.69,2.14l-3.34,12.82-.12-.68c-.31-1.68-1.87-2.82-3.56-2.6-.71,.09-1.26,.34-1.68,.72-.79-.95-1.83-1.38-3.1-1.34-.85,.11-1.61,.55-2.13,1.24-.52,.69-.74,1.54-.61,2.4l.92,6.27c.42,2.87,.46,5.93,.12,9.07-.21,1.95-.11,3.88,.31,5.72,.22,.96,.59,2.14,1.22,3.4l-2.08,6.04c-.52,1.5-.11,3.16,1.04,4.23,1.97,1.83,4.23,3.23,6.72,4.15,2.13,.79,4.37,1.2,6.66,1.24,1.63,.42,3.29,.63,4.99,.63,.56,0,1.13-.02,1.7-.07,1.58-.13,2.93-1.19,3.45-2.69l2.01-5.85c1.57-.77,3.19-1.83,4.81-3.16l1.57-1.36c4.89-4.49,9.46-10.95,13.22-18.7,.67-1.39,.21-3.08-1.08-3.93h0Zm-4.42,1.05l-6.26,7.46c-.12,.15-.33,.19-.48,.11-.09-.05-.16-.14-.18-.24-.02-.1,0-.21,.06-.29l5.6-8.19c.16,.06,.32,.13,.47,.23,.35,.23,.63,.55,.8,.94h0Zm-5.22-11.59c.61-.12,1.22,.01,1.73,.36,.3,.25,.55,.52,.75,.79l-8.68,12.83c-.05,.08-.13,.13-.22,.14-.09,.02-.18,0-.26-.06-.13-.09-.17-.28-.11-.45l5.33-12.68c.35-.5,.86-.83,1.46-.95h0Zm-10.08-4.73c.08-.35,.11-.71,.09-1.05l.22-.53c.26-.63,.75-1.11,1.38-1.36,.63-.25,1.31-.24,1.93,.04,.45,.2,.81,.47,1.1,.77-.2,.25-.37,.53-.5,.84l-7.61,18.31c-.07,.17-.26,.26-.44,.2-.17-.06-.27-.24-.23-.42l4.05-16.8Zm-10.45-2.07c.18-.69,.62-1.25,1.25-1.58,.62-.33,1.33-.39,1.99-.16,.5,.17,.92,.5,1.23,.93-.28,.36-.48,.78-.6,1.22l-4.38,16.8c-.49-.09-.97-.25-1.41-.49-.93-.49-1.5-1.19-1.84-1.71l-.06-.35,3.82-14.66Zm-.73,18.07l-.85,3.27c-.07,.27-.33,.43-.6,.38-.21-.04-.38-.22-.42-.45l-.83-4.54c.31,.27,.67,.54,1.1,.77,.5,.27,1.04,.46,1.6,.57h0Zm-12.75,9.7c.35-3.22,.31-6.35-.12-9.29l-.92-6.27c-.09-.62,.07-1.24,.45-1.74,.38-.48,.93-.77,1.59-.9,.94-.12,1.85,.35,2.31,1.16-.44,.66-.62,1.45-.5,2.24l.92,6.27c.42,2.87,.46,5.93,.12,9.07-.16,1.47-.14,2.92,.05,4.33-1.37-.84-2.71-1.74-4-2.69-.01-.72,.02-1.44,.1-2.17h0Zm.29,5.42c-.16-.69-.27-1.4-.33-2.11,1.34,.96,2.72,1.87,4.14,2.71l1.27,3.64-1.09,2.86c-2.53-2.47-3.56-5.22-3.98-7.09h0Zm6.34,17.2c-2.38-.88-4.54-2.22-6.42-3.97-.89-.83-1.21-2.13-.81-3.3l1.82-5.28c.74,1.28,1.71,2.4,2.83,3.42l-.76,2.2c-.52,1.5-.11,3.16,1.04,4.23,1.55,1.45,3.28,2.62,5.17,3.5-.97-.2-1.93-.47-2.87-.81h0Zm15.65-.34c-.4,1.17-1.46,1.99-2.68,2.09-2.83,.23-5.61-.14-8.24-1.12-2.38-.88-4.54-2.22-6.42-3.97-.89-.83-1.21-2.13-.81-3.3l1.82-5.28c.61,1.02,1.41,2.07,2.43,3.07h0c.15,.15,3.77,3.63,9.64,4.42,.39,.05,.79,.08,1.2,.08,1.51,0,3.13-.36,4.81-1.05l-1.74,5.06Zm-4.15-4.97c-5.56-.74-9.1-4.13-9.13-4.17h0c-2.53-2.47-3.56-5.22-3.98-7.09-.16-.69-.26-1.4-.33-2.11,3.79,2.73,7.91,4.95,12.26,6.61,3.74,1.42,7.64,2.42,11.61,2.97-3.76,2.86-7.4,4.2-10.43,3.79h0Zm12.79-5.77c-.46,.43-.93,.83-1.39,1.21-4.2-.51-8.32-1.53-12.27-3.03-4.5-1.71-8.75-4.04-12.63-6.93-.01-.72,.02-1.44,.1-2.17,.35-3.22,.31-6.35-.12-9.29l-.92-6.27c-.09-.62,.07-1.24,.45-1.74,.43-.48,.96-.79,1.59-.9,1.22-.16,2.35,.66,2.57,1.88l1.71,9.36c.11,.59,.56,1.05,1.13,1.16,.65,.12,1.29-.23,1.55-.81,2.77,1.79,5.69,3.37,8.69,4.7,5.23,2.33,10.77,3.94,16.47,4.82-2.19,3.1-4.52,5.81-6.93,8.01h0Zm13.02-18.43c-1.69,3.49-3.55,6.71-5.53,9.6-5.78-.84-11.39-2.46-16.67-4.81-3.04-1.35-6-2.96-8.8-4.78l5.28-20.26c.18-.69,.62-1.25,1.25-1.58,.62-.33,1.33-.39,2-.16,1.23,.43,1.92,1.7,1.62,2.97l-4.05,16.8c-.15,.62,.19,1.25,.8,1.46,.62,.21,1.29-.09,1.55-.7l7.61-18.31c.26-.63,.75-1.11,1.38-1.36,.63-.25,1.31-.24,1.93,.04,.51,.27,.96,.71,1.37,1.23,.26,.57,.26,1.22,0,1.82l-1.9,4.51s0,0,0,.01l-5.34,12.72c-.23,.55-.06,1.19,.42,1.52,.27,.19,.6,.26,.93,.2,.33-.06,.61-.25,.79-.52l8.71-12.88c.35-.51,.87-.86,1.48-.98,.67-.02,1.26,.12,1.78,.39,1.05,.72,1.33,2.17,.6,3.23l-9.47,13.87c-.2,.29-.27,.65-.19,.99,.08,.34,.3,.64,.6,.81,.52,.3,1.2,.17,1.6-.31l6.6-7.87c.73-.88,1.98-1.08,2.91-.47,.92,.61,1.25,1.81,.77,2.8h0Z"/>
      <g>
        <path class="cls-1" d="M34.5,42.78c-.58,0-1.2-.03-1.85-.1-1.42-.15-3.05-.43-4.35-1.4-2.28-1.69-2.63-4.73-2.63-6.4,0-1.03,.1-2.06,.2-3.05,.04-.41,.08-.82,.11-1.23,.02-.23,.01-.51,0-.81-.02-.72-.04-1.54,.29-2.14,1.04-1.86,4.57-2.53,6.5-2.64,2.21-.12,4.63,.31,7.38,1.32,.61,.22,1.29,.51,1.69,1.12,.32,.49,.39,1.04,.44,1.62,.12,1.45,.18,2.93,.19,4.39,.02,2.52-.21,5.36-2.05,7.25-1.32,1.36-3.31,2.05-5.93,2.05h0Zm-.99-16.88c-.23,0-.46,0-.69,.02-1.89,.1-4.98,.77-5.76,2.18-.22,.39-.2,1.07-.18,1.68,0,.32,.02,.63,0,.9-.03,.41-.07,.83-.12,1.24-.1,.97-.2,1.98-.19,2.96,0,1.49,.31,4.22,2.27,5.68,1.13,.84,2.61,1.09,3.91,1.23,3.25,.34,5.62-.22,7.04-1.68,1.62-1.66,1.82-4.28,1.8-6.62-.01-1.44-.08-2.9-.19-4.33-.04-.47-.09-.89-.29-1.19-.26-.38-.76-.59-1.26-.78-2.35-.86-4.43-1.29-6.33-1.29h0Z"/>
        <path class="cls-1" d="M41.33,38.8c-.22,0-.41-.16-.44-.39-.03-.25,.14-.47,.38-.51,1.78-.25,3.48-1.18,4.66-2.53,1.18-1.36,1.86-3.17,1.87-4.97,0-.77-.17-1.3-.5-1.58-.36-.3-.95-.34-1.51-.35-1.38-.02-2.78,0-4.16,.06-.25,0-.46-.18-.47-.43-.01-.25,.18-.46,.43-.47,1.4-.06,2.82-.09,4.22-.06,.73,.01,1.49,.06,2.07,.56,.55,.46,.83,1.23,.83,2.28,0,2.01-.77,4.04-2.09,5.56-1.32,1.52-3.22,2.55-5.22,2.83-.02,0-.04,0-.06,0h0Z"/>
        <path class="cls-1" d="M26.4,38.8s-.04,0-.06,0c-1.99-.28-3.9-1.31-5.22-2.83-1.32-1.52-2.08-3.54-2.09-5.56,0-1.05,.28-1.81,.83-2.28,.59-.49,1.35-.54,2.07-.56,1.4-.02,2.82,0,4.22,.06,.25,.01,.44,.22,.43,.47-.01,.25-.22,.44-.47,.43-1.38-.06-2.78-.08-4.16-.06-.57,0-1.15,.04-1.51,.35-.34,.28-.51,.81-.51,1.58,0,1.8,.68,3.61,1.87,4.97,1.18,1.36,2.88,2.28,4.66,2.53,.25,.03,.42,.26,.38,.51-.03,.22-.22,.39-.44,.39h0Z"/>
        <path class="cls-1" d="M36.87,34.77c-.35,0-.69-.01-1.01-.03l-3.89-.17c-1.04-.04-2.21-.09-3.24-.64-.22-.12-.3-.39-.19-.61,.12-.22,.39-.31,.61-.19,.85,.45,1.92,.49,2.86,.53l3.89,.17c1.09,.05,2.44,.1,3.45-.51,.21-.13,.49-.06,.62,.15,.13,.21,.06,.49-.15,.62-.91,.56-1.97,.67-2.95,.67h0Z"/>
        <path class="cls-1" d="M34.8,31.96c-.44,0-.88,0-1.3-.02-1.48-.03-3.32-.07-4.74-1.1-.2-.15-.25-.43-.1-.63,.15-.2,.43-.25,.63-.1,1.1,.8,2.57,.89,4.23,.93,1.9,.04,4.05,.08,5.86-.75,.23-.1,.49,0,.6,.22,.1,.23,0,.49-.22,.6-1.57,.72-3.31,.85-4.95,.85h0Z"/>
        <path class="cls-1" d="M34.8,37.84c-.44,0-.88,0-1.3-.02-1.48-.03-3.32-.07-4.74-1.1-.2-.15-.25-.43-.1-.63,.15-.2,.43-.25,.63-.1,1.1,.8,2.57,.89,4.23,.93,1.9,.04,4.05,.08,5.86-.75,.23-.1,.49,0,.6,.22,.1,.23,0,.49-.22,.6-1.57,.72-3.31,.85-4.95,.85h0Z"/>
      </g>
    </g>
  </g>
</svg>