<?xml version="1.0" encoding="UTF-8"?>
<svg id="Layer_2" data-name="Layer 2" xmlns="http://www.w3.org/2000/svg" viewBox="0 0 332.46 296.3">
  <defs>
    <style>
      .cls-1, .cls-2 {
        opacity: .3;
      }

      .cls-1, .cls-3 {
        fill: #001d40;
      }

      .cls-4 {
        fill: #76c0bf;
      }

      .cls-5 {
        stroke-width: 1.11px;
      }

      .cls-5, .cls-6 {
        fill: #fff;
        stroke: #ffb93e;
        stroke-miterlimit: 10;
      }

      .cls-7 {
        fill: #ffb93e;
      }

      .cls-8 {
        fill: #301902;
      }

      .cls-9 {
        fill: #d66243;
      }

      .cls-10 {
        fill: #ffb58c;
      }

      .cls-11 {
        fill: #c1c1c1;
      }

      .cls-12 {
        opacity: .5;
      }

      .cls-12, .cls-13 {
        fill: #b25900;
      }

      .cls-14 {
        fill: #ed7d2b;
      }

      .cls-15 {
        fill: #ffe6cc;
      }

      .cls-16 {
        fill: #2b478b;
      }
    </style>
  </defs>
  <g id="Layer_1-2" data-name="Layer 1">
    <g>
      <g>
        <path class="cls-8" d="M277.63,139.88c-.72,2.82-5.4,6.36-12.73,9.5l1.16-16.86-3.31-17.35-24.38-31.95-16.39,.83-12.22,7.44v4.93c.57,1.45,28.4,62.74,28.4,63.28-.56,.77-1.17,1.47-1.81,2.12-8.42,8.48-25.14,6.89-29.7,6.27-.69-.09-1.02-.71-1.29-1.35-12.02-28.45-15.79-83.63,21.89-88.73,40.77-5.51,51.76,56.47,50.38,61.9Z"/>
        <path class="cls-4" d="M289.44,162.35c-.06,.35-.12,.72-.18,1.1-.04,.26-.08,.53-.13,.8-.06,.34-.11,.68-.17,1.04-.06,.36-.12,.73-.18,1.11-.04,.28-.09,.57-.13,.86-.15,.93-.3,1.91-.46,2.95-.08,.52-.17,1.04-.25,1.58-.04,.27-.09,.55-.13,.82-.09,.56-.18,1.12-.27,1.71-.04,.28-.08,.56-.13,.84-.09,.58-.18,1.18-.28,1.78-.17,1.08-.34,2.19-.51,3.33-.12,.8-.25,1.62-.37,2.45-.08,.55-.17,1.11-.25,1.68-.04,.28-.08,.56-.13,.85-.12,.77-.24,1.54-.35,2.33-.28,1.84-.56,3.73-.84,5.65-.09,.61-.18,1.22-.27,1.84-.04,.31-.09,.62-.14,.93-.18,1.2-.35,2.42-.53,3.65-.33,2.25-.66,4.53-.98,6.83-.19,1.28-.37,2.58-.55,3.87-.04,.33-.09,.65-.14,.98-.09,.65-.18,1.3-.27,1.95-.13,.98-.26,1.95-.4,2.93-.08,.61-.17,1.22-.24,1.83-.31,2.31-.62,4.61-.91,6.89-.29,2.27-.58,4.52-.85,6.72-.08,.58-.15,1.17-.21,1.75-.07,.56-.14,1.11-.2,1.65-.23,1.89-.44,3.74-.64,5.54-.08,.73-.17,1.45-.24,2.16-.05,.42-.09,.85-.14,1.27,0,.04-.01,.08-.01,.11-.05,.45-.1,.9-.14,1.35-.01,.07-.02,.14-.02,.21-.04,.37-.08,.75-.12,1.12-.07,.71-.14,1.41-.21,2.1-.05,.53-.1,1.05-.15,1.56-.08,.9-.16,1.78-.23,2.64-.03,.36-.06,.71-.09,1.06,0,.03,0,.06,0,.09-.01,.08-.02,.15-.02,.23-.02,.26-.04,.52-.06,.78,0,.1-.01,.2-.02,.31-.04,.46-.07,.91-.1,1.35-.02,.25-.03,.48-.05,.73-.02,.33-.04,.66-.06,.98-.02,.29-.03,.57-.05,.85-.01,.2-.02,.41-.03,.61-.06,1.05-.09,2.03-.12,2.95,0,.13-.01,.26-.01,.39-.03,1.47-.02,2.74,.04,3.8,.34,5.91-1.77,16.09-2.57,21.77-5.59,.48-9.3,0-16.5,0l-54.79,.21-3.68-14.13-23.47-9.6c1.48-8.82,12.13-85.6,17.64-92.57,5.51-6.96,28.32-13.73,36.93-17.7,7.98-3.67,20.16-1.38,28.52-.5,9.12,.97,18.09,2.88,26.8,5.76,1.53,.51,2.86,1.13,4.04,1.88Z"/>
        <path class="cls-10" d="M212.81,91.74c-.75,5.88-10.65,13.18-8.1,31.48,2.56,18.3,10.58,35.8,38.43,20.17,27.85-15.64,2.07-42.53,2.07-42.53l-9.27-13.24-13.95-1.17-9.18,5.29Z"/>
        <path class="cls-10" d="M251.18,163.23c-2.43,10.82-22.81,17.8-24.94,3.21-.46-3.12,.24-6.22,.49-9.31,.1-1.25,.17-2.49,.2-3.74,.04-1.42,.03-2.85-.05-4.27-.02-.45-.06-.9-.09-1.36-.06-.68-1.17-8.07-.71-8.28,0,0,25.1-6.66,25.1-6.66,0,0,2.23,20.5,0,30.4Z"/>
        <path class="cls-4" d="M291.49,282.62c-1.59-7.92-3.89-19.43-6.15-31.03-1.84-9.45-3.66-18.96-5.07-26.66,.3-2.28,.6-4.58,.91-6.89,.08-.61,.16-1.22,.24-1.83,.14-.98,.27-1.95,.4-2.93,.09-.65,.18-1.3,.27-1.95,.05-.33,.09-.65,.14-.98,.18-1.29,.36-2.58,.55-3.87,.33-2.3,.65-4.58,.98-6.83,.18-1.23,.35-2.44,.53-3.65,.05-.31,.09-.62,.14-.93,.09-.62,.18-1.23,.27-1.84,.29-1.92,.57-3.81,.84-5.65,.12-.79,.24-1.56,.35-2.33,.04-.29,.08-.57,.13-.85,.09-.57,.17-1.13,.25-1.68,.13-.83,.25-1.65,.37-2.45,.18-1.14,.35-2.25,.51-3.33,.09-.6,.18-1.2,.28-1.78,.04-.28,.09-.57,.13-.84,.09-.58,.18-1.15,.27-1.71,.04-.28,.08-.55,.13-.82,.08-.54,.17-1.06,.25-1.58,.16-1.03,.31-2.02,.46-2.95,.04-.29,.09-.58,.13-.86,.06-.38,.12-.75,.18-1.11,.06-.36,.11-.71,.17-1.04,.04-.28,.09-.54,.13-.8,.06-.38,.12-.74,.18-1.1,4.24,2.69,6.43,6.91,8.02,12.38,4.01,13.72,15.61,66.92,18.24,82.52,.26,1.55,.43,2.73,.5,3.46,.54,5.94-.98,16.67-24.71,21.92Z"/>
        <path class="cls-3" d="M200.77,179.95l-.1,1.23c-.02,.41,0,.82-.01,1.23-.02,.82,.01,1.64,.04,2.46,.02,.82,.06,1.64,.11,2.46,.04,.82,.08,1.64,.14,2.45,.19,3.27,.45,6.54,.7,9.81,.53,6.54,1.1,13.07,1.77,19.59,.33,3.26,.67,6.53,1.16,9.74,.24,1.66,.36,3.34,.33,4.99,.01,1.66-.07,3.3-.17,4.95-.42,6.57-1.31,13.09-2.42,19.56,.34-3.27,.68-6.53,.93-9.8,.28-3.27,.5-6.54,.63-9.8,.09-3.26,.19-6.55-.34-9.71-.54-3.27-.88-6.53-1.23-9.8-.65-6.54-1.17-13.09-1.53-19.65-.17-3.28-.32-6.56-.38-9.85-.02-.82-.02-1.64-.02-2.46,0-.82,0-1.64,.02-2.47,.02-.82,.02-1.64,.09-2.46,.03-.41,.04-.82,.1-1.23l.18-1.22Z"/>
        <path class="cls-3" d="M289.44,162.35c-.73,2.22-1.17,4.52-1.61,6.8-.42,2.29-.78,4.6-1.13,6.9-.67,4.62-1.29,9.24-1.86,13.87-1.11,9.27-2.17,18.54-3.17,27.82-.51,4.64-.98,9.28-1.52,13.92l-.81,6.96-.44,3.48c-.15,1.16-.35,2.34-.53,3.47-.33,2.29-.5,4.61-.69,6.93-.18,2.32-.32,4.65-.45,6.98l-.34,6.99-.3,7c-.07-2.33-.09-4.67-.09-7.01-.02-2.34,.01-4.67,.07-7.01,.12-4.67,.23-9.34,.84-14.02,.17-1.19,.36-2.3,.5-3.46l.42-3.47,.77-6.96c.49-4.64,1.03-9.28,1.55-13.92,1.07-9.28,2.13-18.55,3.46-27.8,.66-4.62,1.32-9.25,2.15-13.85,.41-2.3,.84-4.6,1.34-6.88,.5-2.28,1.04-4.56,1.86-6.75Z"/>
        <g>
          <path class="cls-7" d="M196.93,275.9c-4.46,0-8.09-3.63-8.09-8.09s3.63-8.09,8.09-8.09,8.09,3.63,8.09,8.09-3.63,8.09-8.09,8.09Zm0-13.33c-2.89,0-5.25,2.35-5.25,5.25s2.35,5.25,5.25,5.25,5.25-2.35,5.25-5.25-2.35-5.25-5.25-5.25Z"/>
          <path class="cls-5" d="M200.48,253.4h25.19c1.96,0,3.55,1.59,3.55,3.55v16.21c0,6.6-5.36,11.96-11.96,11.96h-8.37c-6.6,0-11.96-5.36-11.96-11.96v-16.21c0-1.96,1.59-3.55,3.55-3.55Z"/>
          <path class="cls-7" d="M213.07,279.58h-20.24c-1.56,0-2.57,1.55-1.84,2.84l1.83,3.26h40.5l1.83-3.26c.72-1.29-.28-2.84-1.84-2.84h-20.24Z"/>
        </g>
        <path class="cls-10" d="M259.17,279.21s-.25-.09-.84-.2c-.75-.14-2.05-.29-4.09-.29-.9,0-1.96,.04-3.18,.12-3.66,.24-8.79,.91-15.83,2.44-6.09,1.32-9.53,2.48-9.67,.41-.14-2.07,10.74-6.2,10.61-8.13-.13-1.83-14.16,.06-17.94-1.74-.37-.18-.42-.7-.09-.94,2.5-1.85,15.35-2.42,19.41-2.55-3.99-2.48-26.03,.24-20.94-3.4,2.76-1.97,20.74-1.97,20.94-1.97,0,0-2.06-1.56-7.85-2.8-11.71,1.1-13.08-1.75-13.08-1.75,0,0-.55-.69,8.13-2.89,6.42-1.63,19.56,3,27.63,6.19,.17,.07,.33,.13,.49,.19,1.74,.69,3.22,1.31,4.31,1.76,.53,.22,.98,.4,1.31,.53l.3,6.57,.37,8.07,.02,.37Z"/>
        <path class="cls-10" d="M172.01,275.62c-1.69-4.45,0-10.99,1.62-14.83,1.07-2.54,2.96-5.58,6.07-5.61,7.3-.08,23,8.19,24.1,10.94,1.1,2.75-8.08,.21-10.84-.09,1.52,2.59,.64,11.94-2.66,13.87-4.87,2.84-13.39,2.35-17.12-2.22-.5-.61-.88-1.31-1.17-2.06Z"/>
        <path class="cls-8" d="M266.06,132.52l-1.16,16.86c-5.32,2.29-15.32,4.74-22.9,6.18-.51,.1-.99-.2-.99-.72,.03-4.58-1.94-20.1-6.36-36.47-4.78-17.71-17.22-4.92-26.81-16.25l1.91-10.66,12.22-7.44,16.39-.83,24.38,31.95,3.31,17.35Z"/>
        <path class="cls-4" d="M291.49,282.62c-4.47,.99-10.84,2.53-17.01,3.06-5.59,.48-10.82,0-18.03,0v-23.32c2.31,0,11.18-4.28,20.54-7.87h0c2.79-1.07,5.63-2.08,8.34-2.9,5.06-1.53,9.71-2.38,12.94-1.72,4.96,1.01,11.66,4.22,17.43,7.38,.26,1.55,.43,2.73,.5,3.46,.54,5.94-.98,16.67-24.71,21.92Z"/>
        <g class="cls-2">
          <path class="cls-3" d="M223.06,176.32c.38,.62,.81,1.19,1.3,1.7,.5,.49,1.02,.96,1.61,1.33,1.14,.79,2.44,1.32,3.76,1.71,1.33,.37,2.7,.62,4.08,.68,1.38,.09,2.78,.05,4.16-.11,1.39-.13,2.76-.4,4.12-.76,1.36-.33,2.69-.8,4.02-1.28,1.31-.52,2.61-1.1,3.88-1.75,1.28-.63,2.51-1.37,3.77-2.09-2.08,2.02-4.5,3.72-7.14,5.01-2.64,1.28-5.51,2.17-8.47,2.5-2.95,.29-6.02,.1-8.83-1-1.4-.54-2.73-1.28-3.84-2.3-.56-.49-1.04-1.08-1.47-1.68-.41-.62-.72-1.29-.94-1.98Z"/>
        </g>
        <g>
          <path class="cls-1" d="M252.82,195.6s14.47-1.93,16.82-2.34c1.95,.78,1.06,6.34,.65,6.61s-17.03,1.24-17.47,1.24-1.21-3.44,0-5.51Z"/>
          <path class="cls-16" d="M252.17,194.64s15.13-.96,17.47-1.38c.96,2.2,.41,5.37,0,5.65s-17.03,1.24-17.47,1.24-1.21-3.44,0-5.51Z"/>
        </g>
        <path class="cls-9" d="M235.48,145.1c-1.45,3.79-5.61,6.31-8.55,8.29,.04-1.42,.03-2.65-.05-4.08,.71-.23,1.43-.42,2.22-.76,2.15-.93,4.41-2.02,6.37-3.45Z"/>
      </g>
      <g>
        <path class="cls-3" d="M23.64,187.89c-3.61-1.13-7.01-2.18-8.8-5.83-3.14-6.41-3.07-15.65-1.41-22.43,1.4-5.73,6.39-9.62,8.98-14.76,2.72-5.4-.31-11.46,1.43-17.12,1.17-3.77,3.63-7.11,6.74-9.53,3.39-2.63,6.6-4.21,8.46-8.26,2.03-4.43,2.57-9.38,4.57-13.82,10.09-22.37,41.77-21.84,53.35-1.12,3.64,6.5,5.27,16.88,.33,23.17-3.26,4.15-4.1,1.86-3.12,7.1,1.13,6.08,10.9,10.38,13.23,15.97,1.58,3.78,1.7,7.79,.55,11.7-1.4,4.79-5.25,8.21-1.35,12.98,1.68,2.06,4.09,3.96,4.38,6.78,1.34,13.28-9.5,15.2-20.01,17.28-11.21,2.22-22.52,3.93-33.82,5.55-2.07,.3-4.15,.59-6.22,.87,0,0-27.06-8.47-27.28-8.54Z"/>
        <g>
          <path class="cls-14" d="M99.23,171.77c11.04,7.2,16.81,26.04,20.12,36.23,1.65,5.23-9.15,16.8-9.15,16.8l-10.96-53.03Z"/>
          <g>
            <g>
              <path class="cls-10" d="M146.82,188.49s-10.13,30.74-29.34,55.28c-1.04,1.32-2.1,2.62-3.19,3.9-.27,.32-.54,.64-.82,.96-2.65,3.07-5.46,5.98-8.43,8.67-.09,.09-.19,.17-.28,.26-.71,.04-1.37,.03-2-.03-.16-.01-.32-.04-.47-.06-6.92-.99-8.96-8.28-7.86-15.69,.32-2.18,1.02-3.67,1.92-5.11,.69-1.09,1.5-2.15,2.35-3.46,1.67-2.53,4.85-6.67,8.56-11.45,.47-.61,.94-1.22,1.42-1.84,11.48-14.93,23.84-32.93,23.84-32.93l14.29,1.49Z"/>
              <path class="cls-10" d="M134.41,183.37c.77-2.46,.9-2.81,.12-5.08-.76-2.23-5.4-20.09-7.76-21.75-.04-.03-.04-.08,0-.1,1.98-.76,6.75,1.86,9.03,8.3,1.37,1.8,3.63,1.15,5.35-1.41s11.41-17.56,12.62-18.71c1.21-1.15,2.5-.88,3.2-.63s-7.33,14.7-7.34,15.41c-.02,.71,1.04,.97,2.26-.54,1.64-2.03,3.02-4.3,4.55-6.41,1.03-1.42,2.07-2.82,3.18-4.17,.82-.98,1.55-2.29,2.84-2.71,.51-.17,3.51-.24,2.84,.87-.49,.81-10.43,16.04-10.91,16.27,1.31-.32,9.97-11.69,12.33-11.63,2.36,.06,1.97,1.35,1.97,1.35-1.7,2.09-3.4,4.19-5.1,6.28-1.27,1.56-2.54,3.13-3.8,4.69-.41,.51-2.56,2.53-2.46,3.18,.24,1.46,2.37,.91,3.09,.52,1.91-1.02,7.2-4.67,9.2-4.38,2,.28,1.85,1.48,1.85,1.48,0,0-11.65,7.38-12,7.72-2.06,1.96-7.2,9.51-11.01,13.43-2.41,4.19-2.68,5.72-2.68,5.72l-15.58,.38,4.19-8.1Z"/>
            </g>
            <path class="cls-9" d="M140.16,167.43c.83,.1,1.65,.41,2.35,.93,.69,.52,1.28,1.21,1.66,2.01,.39,.79,.57,1.68,.53,2.55,0,.44-.11,.87-.25,1.28-.17,.4-.39,.81-.76,1.04,.32-.77,.24-1.54,.15-2.28-.12-.74-.35-1.45-.66-2.11-.32-.66-.73-1.28-1.23-1.84-.51-.56-1.12-1.04-1.78-1.57Z"/>
          </g>
        </g>
        <path class="cls-14" d="M117.86,291.87c-.55,.55-71.23,0-71.23,0l-9.76-137.31s13.56-4.4,26.58-8.62c.04-.02,.09-.03,.13-.04,.28-.09,.56-.18,.84-.27,.58-.19,1.17-.38,1.75-.57,10.77-3.49,20.46-6.64,20.82-6.75-.91,.34-2.46,6.22-2.79,7.12-.34,.9-.67,1.82-.99,2.75,0,.01,0,.03-.01,.04,0,.01-.01,.02-.01,.03-.27,.78-.53,1.57-.77,2.36-.12,.41-.24,.82-.35,1.23-.23,.86-.43,1.72-.59,2.59-.1,.58-.2,1.17-.26,1.75-.01,.1-.02,.2-.03,.31-.45,4.44,1.76,5.4,5.25,7.36,1.27,.71,2.6,1.45,3.96,2.24,5.8,3.34,12.12,7.4,15.88,12.43,2.75,3.68,11.02,58.25,11.57,113.35Z"/>
        <path class="cls-10" d="M97.75,120.67c-.02,3.85-.58,7.69-1.4,11.23-1.82,7.97-5.64,14.47-13.27,16.3-.07,.02-.14,.04-.22,.06-2.35,.54-5.06,.63-8.17,.2-2.93-.41-6.22-1.28-9.92-2.7-1.09-.42-2.22-.88-3.38-1.4-.02-.01-.04-.02-.06-.03-29.11-12.96-6-42.12-6-42.12l7.99-14.05,13.77-2.48,9.64,4.41c4.5,8.36,11.08,14.78,11.02,30.58Z"/>
        <path class="cls-10" d="M90.4,166.09c.02,17.71-3.14,32.69-7.08,38.6-33.33-28.65-24.7-35.54-20.29-42.7,2.81-4.56,2.59-9.95,.75-15.16,0,0,0,0,0,0-.1-.3-.21-.6-.33-.89,.04-.02,.09-.03,.13-.04,.28-.09,.56-.18,.84-.27,.58-.19,1.17-.38,1.75-.57,10.77-3.49,20.46-6.64,20.82-6.75-.91,.34-2.46,6.22-2.79,7.12-.34,.9-.67,1.82-.99,2.75,0,.01,0,.03-.01,.04,0,.01-.01,.02-.01,.03-.27,.78-.53,1.57-.77,2.36-.12,.41-.24,.82-.35,1.23-.23,.86-.43,1.72-.59,2.59-.1,.58-.2,1.17-.26,1.75-.01,.1-.02,.2-.03,.31-.45,4.44,1.76,5.4,5.25,7.36,1.27,.71,2.6,1.45,3.96,2.24Z"/>
        <path class="cls-10" d="M56.23,288.41l-16.61,1.92c-1.99,.03-3.73-1.36-4.14-3.32l-8.84-46.4-.07-.34-.99-5.21-1.34-7.03,.83-.29,21.04-7.37,.89,5.98,.49,3.28,.03,.18,.53,3.58,8.18,55.03Z"/>
        <path class="cls-14" d="M54.47,227.86c-1,.31-2.02,.61-3.04,.9-1.54,.44-3.1,.84-4.67,1.24-2.66,.66-5.32,1.28-7.97,1.91-4.4,1.05-8.82,2.1-13.22,3.16-.03,0-.06,.02-.09,.02-3.1,.74-6.29,2.61-7.41-.5-.12-.32-.21-.69-.28-1.13-.46-2.87-.84-5.76-1.25-8.64-.82-5.76-1.59-11.53-2.31-17.31-.73-5.82-2.14-12.24-1.9-18.13,.54-13.46,16.8-22.35,27.37-27.62,.68-.34,5.48-1.98,5.59-2.51,0,0-.88,4.18-.66,5.26,1.6,7.83,3.2,15.67,4.8,23.51,2.2,10.74,4.39,21.48,6.59,32.22,.3,1.46,.94,3.19,.95,4.68,.02,2.31-.09,2.17-2.51,2.93Z"/>
        <path class="cls-3" d="M94.68,104.24c-.03-.12-2.98-.36-3.33-.43-.88-.17-1.75-.39-2.6-.69-1.19-.43-2.31-1.03-3.27-1.86-1.38-1.2-2.33-2.87-4.02-3.7-2.85-1.4-7.2-1.57-10.21-.71-2.37,.68-3.97,1.96-4.99,3.59-2.89,4.63-1.17,12.08,.63,16.78,2.48,6.49,2.09,12-3.09,16.96-3.87,3.71-3.15,7.43,.69,11.49,1.29,1.36,2.94,2.76,4.88,4.21,.65,.73,1.17,1.44,1.56,2.14,2.46,4.33,.27,8.19-3.76,12.46-4.68,4.96-8.57,4.41-5.93,9.09,1.43,2.55,4.13,6.51,2.77,9.56-2.46,5.5-13.28,4.02-17.38,2.46-5.66-2.15-10.88-5.72-14.91-10.26-4.24-4.78-3.67-10.7-3.22-16.73,.3-3.93,.78-7.88,1.48-11.76l13.77-45.45,17.63-17.35,17.08-1.93,11.85,6.89s4.37,15.23,4.38,15.24Z"/>
        <path class="cls-13" d="M106.34,178.5c.1,.35,.21,.71,.31,1.06l.26,1.07c.18,.71,.32,1.43,.48,2.15,.32,1.44,.6,2.88,.89,4.32,.57,2.88,1.12,5.77,1.64,8.66,1.02,5.79,1.98,11.58,2.84,17.4,.86,5.81,1.74,11.63,2.29,17.48,.52,5.86,.96,11.73,.98,17.61h-.11c-.65-5.84-1.25-11.67-1.97-17.49-.69-5.82-1.32-11.66-2.07-17.48-.75-5.82-1.6-11.63-2.51-17.43-.45-2.9-.92-5.8-1.42-8.69-.26-1.44-.51-2.89-.78-4.33-.14-.72-.27-1.44-.43-2.16l-.23-1.08c-.09-.36-.19-.71-.28-1.06l.1-.04Z"/>
        <path class="cls-13" d="M47.51,229.81c1.8-.64,3.65-1.12,5.47-1.69,.9-.28,1.83-.55,2.6-.98,.4-.21,.7-.49,.88-.81,.17-.32,.21-.71,.12-1.14l-1.21-5.56-1.17-5.6c-.75-3.74-1.49-7.47-2.17-11.23-.69-3.75-1.32-7.51-1.87-11.29,.97,3.69,1.88,7.4,2.71,11.12,.85,3.72,1.64,7.45,2.41,11.19,.75,3.75,1.51,7.46,2.16,11.26,.08,.51,.02,1.12-.28,1.63-.3,.5-.77,.85-1.23,1.06-.92,.44-1.87,.65-2.8,.87l-5.61,1.17Z"/>
        <path class="cls-9" d="M48.05,233.38c-4.6,2.1-14.24,5.58-21.41,7.23l-.07-.34-.99-5.21c4.41-1.05,8.82-2.1,13.22-3.16,2.64-.63,5.31-1.25,7.97-1.91,.25-.07,.5-.13,.75-.19l.53,3.58Z"/>
        <path class="cls-9" d="M83.19,148.25c-.27,.78-.53,1.57-.77,2.36-.12,.41-.24,.82-.35,1.23-.04,.16-.09,.33-.13,.48-3.09-.79-7.45-2.37-10.16-5.36h.03c4.2,1.12,8.22,1.49,11.37,1.28Z"/>
        <g>
          <circle class="cls-12" cx="85.95" cy="213.55" r="3.39"/>
          <circle class="cls-15" cx="84.87" cy="212.66" r="3.39"/>
        </g>
        <g>
          <path class="cls-7" d="M93.14,275.35c-4.46,0-8.09-3.63-8.09-8.09s3.63-8.09,8.09-8.09,8.09,3.63,8.09,8.09-3.63,8.09-8.09,8.09Zm0-13.33c-2.89,0-5.25,2.35-5.25,5.25s2.35,5.25,5.25,5.25,5.25-2.35,5.25-5.25-2.35-5.25-5.25-5.25Z"/>
          <path class="cls-6" d="M96.69,253.4h25.19c1.96,0,3.55,1.59,3.55,3.55v16.21c0,6.6-5.36,11.96-11.96,11.96h-8.37c-6.6,0-11.96-5.36-11.96-11.96v-16.21c0-1.96,1.59-3.55,3.55-3.55Z"/>
          <path class="cls-7" d="M109.28,279.58h-20.24c-1.56,0-2.57,1.55-1.84,2.84l1.83,3.26h40.5l1.83-3.26c.72-1.29-.28-2.84-1.84-2.84h-20.24Z"/>
        </g>
      </g>
      <rect class="cls-11" y="285.68" width="332.46" height="10.62"/>
      <path class="cls-16" d="M109.38,4.04c-19.23,0-34.81,15.59-34.81,34.81,0,15.73,10.44,29.02,24.76,33.33-.35,2.83-.89,6.09-1.61,7.5-.99,1.92,4.83-2.84,7.96-6.22,1.22,.13,2.45,.2,3.7,.2,19.23,0,34.81-15.59,34.81-34.81S128.6,4.04,109.38,4.04Z"/>
      <path class="cls-16" d="M207.2,1.1c-18.62-4.78-37.6,6.43-42.38,25.06-4.78,18.62,6.43,37.6,25.06,42.38,1.21,.31,2.42,.55,3.63,.73,2.19,4.05,6.64,10.11,6.16,8.01-.35-1.55-.06-4.84,.3-7.67,14.95-.61,28.37-10.89,32.28-26.12,4.78-18.62-6.43-37.6-25.06-42.38Z"/>
      <path class="cls-3" d="M303.85,251.59c-2.03-.81-4.19-1.24-6.35-1.34-2.16-.11-4.33,.1-6.45,.48-2.13,.34-4.26,.85-6.32,1.47-2.05,.68-4.1,1.46-6.14,2.23l-12.23,4.71c-2.04,.78-4.08,1.56-6.14,2.31-1.03,.38-2.06,.75-3.09,1.11l-.19,.07s-.03,.01-.04,.02c-.02,.02-.04,.05-.04,.08v.78s0,1.64,0,1.64v20.07c0,.1,0,.05,0,.06,0,0,0,0,0,0-.11,0,.32,.02,.56,.03l1.63,.08c1.09,.05,2.18,.07,3.26,.09,4.35,.05,8.72-.08,13.05-.47,4.35-.25,8.68-.79,12.95-1.73-4.19,1.26-8.53,2.02-12.88,2.55-4.37,.4-8.75,.53-13.14,.47-1.1-.02-2.19-.04-3.29-.09l-1.64-.08-.41-.02c-.08,0-.42,0-.63-.2-.11-.09-.19-.2-.24-.34-.05-.12-.05-.31-.05-.35v-22.32c0-.08,0-.1,0-.24,.02-.24,.14-.47,.32-.63,.09-.08,.2-.14,.31-.18l.19-.07c1.03-.36,2.05-.73,3.08-1.1,2.05-.75,4.09-1.53,6.13-2.31l12.23-4.71c2.05-.77,4.08-1.55,6.18-2.25,2.12-.63,4.25-1.17,6.44-1.51,2.19-.27,4.42-.35,6.61-.1,2.19,.23,4.35,.82,6.31,1.78Z"/>
    </g>
  </g>
</svg>