<svg version="1.2" xmlns="http://www.w3.org/2000/svg" viewBox="0 0 1656 365" width="1656" height="365">
	<title>New Project</title>
	<style>
		tspan { white-space:pre } 
		.s0 { fill: #ffe500 } 
		.s1 { fill: #ffffff } 
		.s2 { fill: none;stroke: #2c2c2c;stroke-linecap: round;stroke-width: 5.1 } 
		.s3 { fill: none;stroke: #2c2c2c;stroke-linecap: round;stroke-width: 5.1;stroke-dasharray: 0,10 } 
	</style>
	<g id="&lt;Group&gt;">
		<g id="&lt;Group&gt;">
			<path id="&lt;Path&gt;" class="s0" d="m1527.4 364.3c-57.6-4.6-104.2-51.4-108.7-109q-0.2-3.4-0.3-6.7c-0.5-20.7-12.3-39.5-31.3-47.9-18.8-8.4-40.6-5-56.3 8.4-20.8 17.9-47.8 28.7-77.3 28.7-30.8 0-58.9-11.8-80-31.1-13.6-12.4-33.5-15-50.3-7.5l-6.3 2.8c-17.2 7.7-28.2 24.8-28.2 43.6 0.1 48.1-28.5 89.7-69.8 108.5q-0.1 0-0.2 0.1-2.5 1.1-4.9 2.1-0.5 0.1-0.9 0.3-2.3 0.9-4.6 1.7-0.7 0.2-1.4 0.5-2.1 0.6-4.3 1.2-0.9 0.3-1.8 0.6-2 0.5-4 1-1.2 0.2-2.3 0.5-1.9 0.4-3.8 0.7-1.3 0.2-2.6 0.4-1.8 0.3-3.6 0.5-1.4 0.2-2.9 0.4-1.7 0.1-3.4 0.2-1.6 0.1-3.2 0.2-1.6 0.1-3.2 0.1-1.7 0-3.5 0-1.5 0-3.1-0.1-1.8 0-3.6-0.2-0.6 0-1.2 0-1.2-0.1-2.3-0.3c-0.6 0-1.2 0-1.8-0.1q-0.3-0.1-0.6-0.1-4-0.5-7.8-1.2-1.4-0.3-2.8-0.6-3.3-0.7-6.6-1.6-1.9-0.5-3.8-1.1-2.4-0.8-4.7-1.6-2.8-1-5.5-2.1-0.2-0.1-0.5-0.2c-33.4-14.1-59.2-43.2-68.7-78.8q-0.1-0.4-0.2-0.8-1.1-4.1-1.8-8.2-0.4-1.8-0.6-3.5c-0.2-1-0.4-2-0.5-3q-0.8-6.3-0.9-12.5c-0.5-20.7-12.4-39.5-31.3-47.9-2.7-1.2-5.5-2.2-8.3-2.9-16.7-4.3-34.6-0.2-48 11.3-5.6 4.8-11.6 9.1-18 12.8q-0.1 0-0.1 0-2.4 1.4-4.8 2.7-0.2 0.1-0.4 0.2-2.3 1.2-4.6 2.2-0.4 0.2-0.7 0.3-2.2 1-4.5 2-0.4 0.1-0.8 0.3-2.3 0.9-4.6 1.7-0.4 0.1-0.7 0.2-2.6 0.9-5.2 1.6-0.1 0.1-0.2 0.1-8.3 2.4-17 3.6-0.7 0-1.5 0.1-2 0.3-4.2 0.5-1 0-2 0.1-1.8 0.1-3.7 0.2-1.2 0-2.3 0.1-1 0-2 0-0.7 0-1.4 0-1.4-0.1-2.8-0.1-1.5-0.1-3-0.1c-0.6-0.1-1.2-0.1-1.7-0.1q-0.8-0.1-1.6-0.2-0.9-0.1-1.8-0.2-2-0.2-4-0.4-0.7-0.1-1.4-0.2-2-0.3-4.1-0.7-0.7-0.1-1.3-0.3-2-0.4-4-0.8-0.7-0.2-1.5-0.4-1.8-0.4-3.6-1-0.9-0.2-1.8-0.5-1.5-0.4-3-0.9-1.2-0.4-2.3-0.8-1.2-0.4-2.3-0.9-1.5-0.5-3-1.1-0.7-0.3-1.4-0.6-1.8-0.8-3.7-1.6-0.2-0.1-0.3-0.2c-11-5.1-21.1-11.9-30-20-13.6-12.4-33.5-15-50.3-7.5l-6.3 2.8c-17.2 7.7-28.2 24.8-28.2 43.6v0.3c0 70-60.8 126-132.4 118-53.9-6-97.4-49-104.1-102.8q-0.8-6.3-0.9-12.5c-0.5-20.7-12.4-39.5-31.3-47.9-18.6-8.3-40.4-5.4-55.8 8-22.9 19.9-53.5 31.2-86.7 28.8-57.8-4.3-104.8-51-109.5-108.7-5.8-73.1 55-133.9 128-128.1 57.9 4.6 104.7 51.8 108.8 109.8q0.2 2.9 0.3 5.9c0.4 20.7 12.3 39.5 31.4 48l0.9 0.4c18.2 8.1 39.4 5 54.4-8.1 20.9-18.4 48.2-29.5 78.2-29.5 30.8 0 58.9 11.8 80 31.1 13.6 12.4 33.5 15 50.3 7.5l6.3-2.8c17.1-7.7 28.2-24.8 28.2-43.6-0.1-29.9 10.9-57.2 29.1-78.2q0.1 0 0.1 0 1.8-2.1 3.8-4.2 0.1-0.1 0.3-0.3 1.8-1.9 3.8-3.7 0.2-0.3 0.5-0.5 1.9-1.8 3.8-3.5 0.4-0.3 0.7-0.5 1.9-1.7 3.9-3.2 0.4-0.3 0.8-0.6 2-1.5 4-2.9 0.5-0.4 0.9-0.7 2-1.4 4.1-2.6 0.5-0.4 1-0.7 2.1-1.2 4.1-2.4 0.6-0.3 1.2-0.6 2.1-1.2 4.2-2.2 0.6-0.3 1.2-0.6 2.1-1 4.3-2 0.6-0.2 1.2-0.5 2.2-0.9 4.5-1.8 0.5-0.2 1.1-0.3 2.3-0.9 4.7-1.7 0.3 0 0.6-0.1 7.8-2.4 16-3.7 0.7-0.2 1.4-0.3c1.1-0.1 2.3-0.3 3.5-0.4 0.9-0.1 1.9-0.2 2.9-0.3 1-0.1 2-0.2 3.1-0.3q1.7-0.1 3.4-0.2 1.4 0 2.9 0 1.8 0 3.7 0 1.4 0 2.8 0.1c0.9 0 1.9 0 2.8 0.1q0.6 0 1.2 0.1 0.3 0 0.7 0 0.8 0.1 1.7 0.2 1.4 0.1 2.8 0.3 1.4 0.2 2.7 0.3 1.3 0.2 2.6 0.4 1.4 0.3 2.8 0.6 1.2 0.2 2.4 0.4 1.5 0.3 3 0.7 1.1 0.3 2.2 0.5 1.5 0.4 3 0.9 1 0.3 2.1 0.6 1.5 0.5 3 1 1 0.3 2 0.7 1.5 0.5 3 1.1 0.9 0.4 1.9 0.8 1.5 0.6 2.9 1.2 1 0.4 1.9 0.9 1.4 0.6 2.8 1.3 1 0.5 2 1 1.2 0.7 2.5 1.4 1.1 0.6 2.1 1.2 1.1 0.6 2.3 1.3 1.1 0.7 2.2 1.4 1 0.6 2 1.3 1.2 0.8 2.4 1.7 0.8 0.5 1.6 1.1 1.4 1 2.7 2 0.6 0.5 1.2 1 1.5 1.1 3 2.4 0.4 0.3 0.8 0.7 1.6 1.3 3.1 2.8 0.3 0.2 0.5 0.4 1.7 1.6 3.4 3.3 0 0 0 0c19.3 19.5 32 45.4 34.2 74.1q0.3 3.4 0.3 6.7c0.5 20.7 12.4 39.5 31.3 47.9 17.7 7.9 38.3 5.6 53.5-6.1q1-0.8 1.9-1.5c4.4-3.9 9.1-7.4 14-10.6q0.1 0 0.1-0.1 2.3-1.4 4.7-2.8 0.1-0.1 0.3-0.2 2.3-1.3 4.6-2.5 0.2-0.1 0.5-0.3 2.3-1.1 4.6-2.2 0.3-0.1 0.5-0.3 2.4-1 4.8-2 0.2-0.1 0.5-0.2 2.6-1 5.2-1.9 0.1 0 0.1-0.1 8.2-2.8 16.9-4.4 0.3 0 0.7-0.1 2.4-0.4 4.9-0.7 0.8-0.1 1.6-0.2 2-0.3 4.1-0.5 1 0 2.1-0.1 1.8-0.1 3.6-0.2 1.2 0 2.4-0.1 1 0 1.9 0 0.8 0 1.5 0 1.4 0.1 2.8 0.1 1.5 0.1 3 0.2c0.6 0 1.1 0 1.7 0q0.8 0.1 1.6 0.2 0.9 0.1 1.8 0.2 2 0.2 4 0.4 0.6 0.1 1.3 0.2 2.1 0.3 4.2 0.7 0.6 0.2 1.3 0.3 2 0.4 4 0.9 0.7 0.1 1.4 0.3 1.8 0.5 3.6 1 0.9 0.2 1.8 0.5 1.6 0.4 3.1 0.9 1.1 0.4 2.3 0.8 1.1 0.4 2.3 0.9 1.5 0.5 2.9 1.1 0.7 0.3 1.4 0.6 1.9 0.8 3.7 1.6 0.2 0.1 0.4 0.2c11 5.1 21.1 11.9 30 20 13.5 12.4 33.5 15 50.3 7.5l6.3-2.8c17.2-7.7 28.2-24.8 28.2-43.6v-0.3c0-68.1 57.5-122.9 126.4-118.5 58.5 3.7 106.2 50.8 110.7 109.1q0.2 3.4 0.3 6.7c0.5 20.7 12.3 39.5 31.3 47.9 18.6 8.3 40.4 5.4 55.8-8 22.9-19.9 53.5-31.2 86.7-28.8 57.8 4.3 104.8 51 109.4 108.7 5.9 73.1-54.9 133.9-128 128.1z"/>
			<g id="&lt;Group&gt;">
				<circle id="&lt;Path&gt;" class="s1" cx="119.3" cy="119.1" r="87.7"/>
			</g>
			<g id="&lt;Group&gt;">
				<g id="&lt;Group&gt;">
					<path id="&lt;Path&gt;" class="s2" d=""/>
					<path id="&lt;Path&gt;" class="s3" d="m402.9 88.5v-17"/>
					<path id="&lt;Path&gt;" class="s2" d=""/>
				</g>
			</g>
			<g id="&lt;Group&gt;">
				<g id="&lt;Group&gt;">
					<path id="&lt;Path&gt;" class="s2" d=""/>
					<path id="&lt;Path&gt;" class="s3" d="m970 88.5v-17"/>
					<path id="&lt;Path&gt;" class="s2" d=""/>
				</g>
			</g>
			<g id="&lt;Group&gt;">
				<g id="&lt;Group&gt;">
					<path id="&lt;Path&gt;" class="s2" d=""/>
					<path id="&lt;Path&gt;" class="s3" d="m1537 88.5v-17"/>
					<path id="&lt;Path&gt;" class="s2" d=""/>
				</g>
			</g>
			<g id="&lt;Group&gt;">
				<g id="&lt;Group&gt;">
					<path id="&lt;Path&gt;" class="s2" d=""/>
					<path id="&lt;Path&gt;" class="s3" d="m119.3 276.5v17"/>
					<path id="&lt;Path&gt;" class="s2" d=""/>
				</g>
			</g>
			<g id="&lt;Group&gt;">
				<g id="&lt;Group&gt;">
					<path id="&lt;Path&gt;" class="s2" d=""/>
					<path id="&lt;Path&gt;" class="s3" d="m686.4 276.5v17"/>
					<path id="&lt;Path&gt;" class="s2" d=""/>
				</g>
			</g>
			<g id="&lt;Group&gt;">
				<g id="&lt;Group&gt;">
					<path id="&lt;Path&gt;" class="s2" d=""/>
					<path id="&lt;Path&gt;" class="s3" d="m1253.6 276.5v17"/>
					<path id="&lt;Path&gt;" class="s2" d=""/>
				</g>
			</g>
			<circle id="&lt;Path&gt;" class="s1" cx="406.9" cy="245.9" r="87.7"/>
			<circle id="&lt;Path&gt;" class="s1" cx="686.4" cy="119.1" r="87.7"/>
			<circle id="&lt;Path&gt;" class="s1" cx="1253.5" cy="119.1" r="87.7"/>
			<circle id="&lt;Path&gt;" class="s1" cx="970" cy="245.9" r="87.7"/>
			<circle id="&lt;Path&gt;" class="s1" cx="1537.1" cy="245.9" r="87.7"/>
		</g>
	</g>
</svg>