<svg id="Layer_1" data-name="Layer 1" xmlns="http://www.w3.org/2000/svg" viewBox="0 0 1920 1080"><defs><style>.cls-1{fill:#fff;}</style></defs><path class="cls-1" d="M1370,539.66c-4.61,11.14-11,20.56-23.72,23.34a55,55,0,0,1-11.32,1c-24.52.08-49,0-73.57,0h-8.08c0,6.32,1,12.37-.28,17.87s-3.66,11.92-7.7,15.55c-26.38,23.67-52.88,47.27-80.31,69.71-18,14.74-39.53,23.88-62,29.64-25.5,6.54-51.18,12.65-77.08,17.34-22.27,4-44.52-1-66.72-3.62-25.81-3.06-51.71-5.16-77.07,3.24-11,3.66-20.34,10.05-28.91,19.94,2.35,1.86,4.89,3.31,6.69,5.4,8.8,10.18,9.57,23.52,1.84,35.73-5.73,9-11.88,17.82-18,26.64-11.81,17.14-28.25,20.33-45.64,8.6q-46.46-31.33-92.72-63c-12.79-8.7-25.63-17.33-38.37-26.1-17.33-11.91-20.5-28.15-8.93-45.53,5.14-7.72,10.39-15.38,15.62-23,11.49-16.84,23.44-20.45,42.63-12.7,23-24,40.17-53.4,67.67-75.71H775.9q-51.06,0-102.14,0c-22.88,0-35.22-12.43-35.27-35.31,0-2.14,0-4.29,0-6.43.2-20.51,12.78-33.28,33.44-33.75,7.55-.17,15.11,0,21.6,0,22-158.59,110.21-254.3,264.87-288.32-1.84-6.82-4.64-14.19-5.68-21.8-1.74-12.78,2.85-21.37,15.09-25.9,9.64-3.57,20.18-6.29,30.37-6.45a134.47,134.47,0,0,1,37.93,4.51c17.66,4.95,23.31,17,18.64,34.87-1.36,5.21-3.64,10.19-5.61,15.59,12.36,2.83,24.94,5.16,37.21,8.59q106.73,29.88,171.12,120.23c1.5,2.1,3.91,4.8,3.51,6.75-.81,4-2.28,8.84-5.19,11.31-4.39,3.71-9.65,1.76-13.2-2.55-5-6.05-9.34-12.63-14.35-18.66-52.32-62.94-119-100-200.79-105.48-113-7.54-201.71,37.39-265.33,130.92-26.46,38.9-40.29,82.67-44.86,129.4-.19,1.89-.19,3.79-.33,7,8.11,0,16.06,0,24,0,3.57,0,7.17-.19,10.71.17,6.65.69,11.09,5.36,10.86,11-.24,5.87-4.68,10-11.58,10.13-11.91.2-23.81.08-35.72.09q-20,0-40,0c-12.42,0-15.28,2.84-15.31,15,0,2.61-.15,5.25.09,7.85.58,6.08,3.9,9.52,10.14,9.81,2.14.1,4.28,0,6.42,0H1332.3c5.64,0,13.09,1.35,14.66-5.52,1.6-7,.62-14.87-.35-22.21-.24-1.88-4.56-3.75-7.33-4.6-2.62-.82-5.65-.36-8.51-.36l-521.45,0c-3.09,0-6.82.88-9.12-.51-3.47-2.09-7.3-5.38-8.49-9-1.64-5,1.53-9.36,6.79-10.83a40.19,40.19,0,0,1,10.58-1q236.45-.06,472.88,0h11.24c-3.82-19.77-6.57-38.55-11.28-56.82-3.72-14.42-10.12-28.13-14.7-42.37a20.33,20.33,0,0,1,.09-12.72c.93-2.39,6.16-5.13,8.57-4.47,3.79,1.05,8.67,4.17,9.87,7.56,7.63,21.44,15.16,43,21.13,64.92,3.77,13.88,4.76,28.51,7.17,43.9,5.23,0,10.87.29,16.47-.06,19.48-1.2,33.23,6.25,39.48,25.45ZM836.19,721.5c1.67-2.11,3-4.11,4.63-5.81a86.05,86.05,0,0,1,37.18-23c27-8.38,54.6-6.94,82.08-3.57,23.63,2.9,47.26,7.89,71,3.2,23-4.56,45.81-10.54,68.47-16.74,27.55-7.55,51.46-21.81,72.55-41.1,17.57-16.07,35.6-31.62,53.44-47.39,7.63-6.74,9.33-13,5.14-19.11-3.46-5-9.29-4.76-18.42,1.16-11.78,7.63-23.87,14.89-35,23.33-20.66,15.58-43.35,26.28-68.67,31.49a11.15,11.15,0,0,0-2.06.54c-24.9,10.29-51.14,9.64-77.32,9.64-5.66,0-9.81-2.27-11.43-7.75s.94-9.71,5.73-12.52c2.87-1.69,5.86-3.16,8.78-4.75,7.93-4.32,16.08-8.29,23.69-13.11,6-3.82,8-9.83,5.63-16.84-2.32-6.74-7.43-9.55-14.27-9.54a35,35,0,0,0-7.07.73c-27.93,5.81-55.81,11.85-83.79,17.41a34.54,34.54,0,0,1-14.73-.46c-22.8-5.8-45.72-11.31-68.12-18.44-29-9.23-54.56-2.65-78,14.47-8.32,6.06-15.36,14.12-22.14,22-13.15,15.25-25.7,31-38.9,47.06Zm-18.21,75c2.61-2.17,5.74-3.91,7.65-6.53,6-8.26,11.65-16.8,17.26-25.34,4.36-6.63,3.62-10.21-3.18-14.84q-66-45-132.12-89.77c-6.89-4.67-10.24-4-14.92,2.71q-8.55,12.28-16.81,24.78c-4.88,7.35-4.2,10.81,3.31,15.91q65.45,44.52,131,88.93A86.12,86.12,0,0,0,818,796.51Zm359.73-231.85h-99c8.94,17.11,6.24,32.21-6.44,46.69C1111.3,602.33,1148.66,592.5,1177.71,564.66ZM1003.8,198.35c2.85,0,5.7,0,8.55,0,12.38.19,21.77-8.65,21.94-21.2,0-2-1.79-5.18-3.47-5.79a77.34,77.34,0,0,0-53-.1,7,7,0,0,0-3.73,5c-.75,11.79,9.59,22.35,21.15,22.09C998.09,198.3,1001,198.35,1003.8,198.35Z"/></svg>