<svg version="1.2" xmlns="http://www.w3.org/2000/svg" viewBox="0 0 1138 1058" width="1138" height="1058">
	<title>flag-p-svg</title>
	<style>
		.s0 { fill: #f7cc7f } 
		.s1 { fill: #f79c8d } 
		.s2 { fill: #355389 } 
		.s3 { fill: #f48c7f } 
		.s4 { fill: #13375b } 
		.s5 { fill: #86b1f2 } 
		.s6 { fill: #f7a491 } 
		.s7 { fill: #f47458 } 
		.s8 { fill: #ffffff } 
		.s9 { fill: #3c8f7c } 
		.s10 { fill: #184655 } 
		.s11 { fill: #b75742 } 
		.s12 { fill: #6394db } 
		.s13 { fill: #e5b05c } 
		.s14 { opacity: .2;fill: #f47458 } 
		.s15 { fill: #f8a492 } 
		.s16 { fill: #50bfa5 } 
		.s17 { fill: #0e2e35 } 
		.s18 { fill: #dd513a } 
		.s19 { fill: #fe875e } 
		.s20 { fill: #466eb6 } 
		.s21 { fill: #cae1f9 } 
		.s22 { fill: #9bc1f9 } 
		.s23 { opacity: .2;fill: #9bc1f9 } 
		.s24 { fill: #96d9c9 } 
		.s25 { fill: #e25a44 } 
		.s26 { fill: #66ccb2 } 
		.s27 { fill: #07345a } 
	</style>
	<path id="Layer" class="s0" d="m1099.3 369.8l-26.7-32.3-125.3 267.1-322.7 191.7-161.1 258.6-316.1 0.1 401.3-427.9 339.1-97.6 170.1-200.6-41.2-7.8c27.7-9.2 61.4-30.6 85.1-49.8-5.4 30-7.9 69.8-2.5 98.5z"/>
	<path id="Layer" class="s1" d="m78 730.7c0 0-15.1-25.7-21.9-37.3-6.8-11.6-8.8-34.9-10.2-41.3-1.3-6.3-4.5-7.8-6.4-11.3-1.9-3.6-8.2-5.3-7.5-6.6 0.6-1.2 6.7 3.2 8 2.6 1.4-0.7-5.5-7.6-4.8-8.7 1.2-1.9 7.9 7.2 8.6 6.4 0.6-0.9-5.9-10.6-3.7-10.9 2.3-0.3 5.7 10.6 6.9 10 1.2-0.6-4.2-10-2-11.6 1.1-0.9 7 16.9 9 17.8 2 0.9 4.1-6.5 6-6.1 1.8 0.5-6.6 13.6-6.2 14.7 0.4 1.1 12.1 28.9 16.6 36 4.4 7 22.8 39.9 22.8 39.9z"/>
	<path id="Layer" class="s2" d="m88.1 713.6c0 0 20.4 21.9 23.4 30.8 3 8.8-3 21.4-11.2 22-8.2 0.5-26.6-38.9-26.6-38.9z"/>
	<path id="Layer" class="s3" d="m181.5 872.5h-16.6q-0.3 0-0.5-0.1-0.2 0-0.4-0.2-0.1-0.1-0.3-0.4-0.1-0.2-0.1-0.4c-0.3-2.2-15.7-35.2-17-45.5-1.7-13-7.4-38.5-8.3-42.6q-0.1-0.1 0-0.2 0-0.1 0-0.2 0.1-0.1 0.2-0.2 0.1-0.1 0.2-0.1l14.9-4.2q0.1 0 0.2 0 0.2 0 0.3 0.1 0.1 0.1 0.2 0.2 0 0.1 0.1 0.2c0.7 5.2 5.9 39.4 6.7 47.4 0.8 7.9 7.6 35.2 9.2 41.1q0 0.1 0 0.2 0.1 0 0.1 0.1 0.1 0 0.2 0.1 0 0 0.1 0 0.6 0.2 1.2 0.3 0.6 0.2 1.2 0.3 0.6 0.2 1.2 0.4 0.6 0.2 1.2 0.5c5.1 2.3 6.9 1.7 8.4 3 0.5 0.3-1.7 0.2-2.4 0.2z"/>
	<path id="Layer" class="s4" d="m152.4 769.5q0.9 2.8 1.7 5.5 0.7 2.7 1.5 5.5 0.7 2.7 1.3 5.5c-4.9 1.4-11.3 4.4-16.2 5.7l-6.9-50.6c0 0 8.9-1.1 16.9 23q0.9 2.7 1.7 5.4z"/>
	<path id="Layer" class="s0" d="m148.9 709q0.1 3.8 0 7.6-0.2 3.8-0.7 7.6-0.5 3.7-1.4 7.4c-19.4 0.2-33.6-3.8-43.7-8.6l1.4-6.8-4 5.4q-1.1-0.6-2.3-1.2-1.1-0.7-2.2-1.4-1.1-0.7-2.1-1.4-1.1-0.7-2.1-1.5c6.5-7.9 8.1-17.8 14.4-25.9q1.1-1.3 2.3-2.4 1.1-1.2 2.4-2.2 1.3-1 2.7-2 1.4-0.9 2.9-1.6c14.9-7.7 29.3 3.7 31.7 19.5q0.5 3.8 0.7 7.5z"/>
	<path id="Layer" class="s3" d="m153.7 1054.8l-31.9-0.5q-0.4-0.2-0.8-0.6-0.4-0.3-0.7-0.6-0.3-0.4-0.6-0.8-0.3-0.4-0.5-0.9c-1.2-2.3 1.5-7.3 1.9-9.8q0.1-0.7 0.2-1.4 0.1-0.7 0.1-1.4 0.1-0.7 0.1-1.5 0-0.7 0-1.4c0 0-6.5-65.3-6-73.4 0.5-8 4.7-21.5 4.7-21.5l-1.4-46.7 17.7-61.4 9.3 3.5c0 0 4 22.8 1.4 37.8-2.6 14.4-14.6 148.2-15.4 156.5 0.3 3.8 0.9 8.4 2.2 9.9q0.5 0.6 1.1 1.1 0.5 0.5 1.1 1 0.6 0.6 1.2 1 0.6 0.5 1.2 0.9c0.6 0.4 2.4 1.5 2.8 1.7 7.3 3.6 9.2 4.7 11.5 6.4 1.4 1 2.5 2.1 0.8 2.1z"/>
	<path id="Layer" class="s1" d="m144 826.4l-6.5 38.5-25.6 74.8-35.3 86.6q-0.4 1.4-0.7 2.8-0.3 1.4-0.5 2.8-0.2 1.4-0.3 2.8-0.2 1.4-0.2 2.8-0.1 1.4-0.3 2.8-0.1 1.3-0.4 2.7-0.3 1.3-0.8 2.6-0.4 1.3-0.9 2.5-0.8 1.8-2.1 3.1-1.3 1.4-3 2.2-1.7 0.8-3.5 0.9-1.9 0.2-3.7-0.4c-1.7-0.5-0.9-0.5-1.6-2.1-1.5-3.1-2.5-8.7-0.6-12.5 1.2-2.5 3.2-4.2 4.2-5.5 1.7-2.2 3-7 3.8-10.8 0 0 5.5-36.5 7.1-49.1 1.6-12.7 11.9-27.8 14.7-37.6 5-18 0.5-60.4 3.1-74.2 2.6-13.8 13.7-30.5 13.7-30.5z"/>
	<path id="Layer" class="s5" d="m73 1046.9q-0.2 0.6-0.5 1.2-0.2 0.5-0.5 1.1-0.3 0.6-0.6 1.1c-1.6 2.7-3.9 4.4-7 4.3-2.9-0.1-6.6 0-7.8-2.8-1.5-3.1-0.6-8.8 1.4-12.6 2.7 3.4 7.8 7.9 15.4 6.5q-0.2 0.6-0.4 1.2z"/>
	<path id="Layer" class="s5" d="m156.6 1053.2q0.2 0.3 0.2 0.5 0 0.3-0.1 0.5-0.1 0.3-0.3 0.4-0.3 0.2-0.5 0.2c-5.9-0.1-26.3-0.3-34-0.5-1-0.1-2.1-0.6-2.9-2.8-0.6-1.9 0.6-5.1 1.5-7.6 3.5 1.4 9.7 2.8 18.1 0.7 0.6 0.4 16.6 6.9 18 8.6z"/>
	<path id="Layer" class="s0" d="m86.5 937.1c5.2-18.1 0.5-60.5 3.2-74.3 2.7-13.8 14.2-30.4 14.2-30.4l41-5.2-1.5 8.7 2.4 0.5c0 0 5.2 23.6 2.4 38.5-1.1 6.2-2.2 34-5.3 64.5-6 1-15.3 1.1-22.8 0.9l-2-0.1h-0.1c-0.7 0-1.4-0.1-2-0.1h-0.1l-2-0.1h-0.1l-2-0.1c-13.7-1-25.4-2.8-25.3-2.8z"/>
	<path id="Layer" class="s2" d="m133.9 741.4c2.1 2.3 10.9 25.6 11.9 31.4 1.1 5.7 0 63.6 0 63.6-9.8 6.5-44.2-0.4-44.2-0.4 0 0 6.4-21.4 5.4-29.5-1-8-19.7-58-13.9-64.4 5.8-6.3 20.4-5.3 20.4-5.3 0 0 18.3 2.3 20.4 4.6z"/>
	<path id="Layer" class="s6" d="m131.4 716.8c0 0-0.7 3.9-1.7 8.6-0.3 1.7-0.6 3.5-1 5.2-0.6 3.1-1.2 6.2-1.6 8.4-0.2 1.1 4.6 12.1 2 12.5-8.8 1.5-17.8-10.9-15.8-14.7 1.7-3.3 4.2-15 4.9-18.5 0.1-0.7 0.2-1.1 0.2-1.1z"/>
	<path id="Layer" class="s7" d="m118.2 718.3c0.1-0.7 0.2-1.1 0.2-1.1l13.1-0.4c0 0-0.8 3.9-1.7 8.6-0.3 1.7-0.7 3.5-1 5.2q-0.9-0.1-1.7-0.4-0.9-0.3-1.7-0.7-0.8-0.4-1.5-0.9-0.7-0.5-1.4-1.1-0.8-0.7-1.5-1.5-0.7-0.9-1.3-1.8-0.6-0.8-1.1-1.8-0.5-1-0.8-2c0.2-0.8 0.3-1.5 0.4-2.1z"/>
	<path id="Layer" class="s6" d="m139.3 709.4c-1.4 10.1-11 19.6-20.5 11.2-9.6-8.4-5.5-23.9-1.6-28.9q0.9-1.2 2-2 1.2-0.9 2.5-1.4 1.3-0.6 2.7-0.8 1.4-0.3 2.8-0.1c14-0.4 13.5 11.8 12.1 22z"/>
	<path id="Layer" class="s6" d="m142.1 709.2c-1.2 2.2-3.1 3.5-4.3 2.8-1.2-0.7-1.3-3.1-0.2-5.4 1.2-2.2 3.1-3.4 4.3-2.7 1.3 0.7 1.3 3.1 0.2 5.3z"/>
	<path id="Layer" class="s0" d="m127.9 685.7c0 0-8.3 14.7-14.1 15.4-5.9 0.7-6.7 8.5-6.7 8.5 0 0 2.1-18 7.9-21.5 5.9-3.5 12.9-2.4 12.9-2.4z"/>
	<path id="Layer" class="s6" d="m115.3 704.8c0.5 2.6-0.5 5-2.2 5.4-1.6 0.3-3.4-1.5-3.8-4.1-0.5-2.7 0.5-5 2.1-5.4 1.7-0.4 3.4 1.5 3.9 4.1z"/>
	<path id="Layer" class="s8" d="m122.6 714.3l8.9 1.8q-0.2 0.7-0.7 1.3-0.5 0.6-1.2 1-0.7 0.3-1.4 0.5-0.8 0-1.5-0.1c-4.8-0.8-4.1-4.5-4.1-4.5z"/>
	<path id="Layer" class="s9" d="m860.6 1055.3l-3.6 0.7-15.9-83.8 3.6-0.7z"/>
	<path id="Layer" class="s9" d="m687.9 1056.3h-4.4l16.4-84.9 3.6 0.7-15.6 84.2z"/>
	<path id="Layer" class="s9" d="m816.2 1056.3h-4.4l16.4-84.9 3.7 0.7-15.7 84.2z"/>
	<path id="Layer" class="s10" d="m728 1056.3l-15.8-83.8 3.6-0.7 15.7 84.5h-3.5z"/>
	<path id="Layer" class="s7" d="m791.2 787.5c19.5 2.1 44.8 4.3 70.1 47.4 27.8 47 13.2 117.2-8.7 136.8-21.9 19.5-93.3 43.6-153.4 7.5 0 0-36.2-21.9-17.6-58.2 28.6-55.8 24.6-67.5 37.4-89.3 12.8-21.9 30.8-48.6 72.2-44.2z"/>
	<path id="Layer" class="s11" d="m852.6 971.6c-21.9 19.6-93.4 43.7-153.4 7.6q-1.5-1-3-2.1-1.5-1.1-2.9-2.3-1.4-1.2-2.7-2.5-1.3-1.3-2.6-2.7c54.9 20.7 113.3-0.2 132.6-17.6 21.9-19.5 36.5-89.8 8.8-136.8q-1.9-3.3-4-6.4-2-3.2-4.3-6.3-2.3-3-4.7-5.9-2.5-3-5.1-5.7c15.5 4.3 32.7 14.6 50 44 27.7 47 13.1 117.2-8.7 136.7z"/>
	<path id="Layer" class="s1" d="m728.6 859l10.2 9.1-15.3 6 5.1-15.1z"/>
	<path id="Layer" class="s12" d="m754.1 817l-4.8 47.7-3 6.2-22.7-8.5c0 0 7.6-29.7 12.8-39.5 4.1-7.7 6.9-8.7 7.9-8.7 0.3 0 9.8 2.8 9.8 2.8z"/>
	<path id="Layer" class="s5" d="m780.2 810.2q3 0.1 5.9 0.3 2.9 0.3 5.8 0.7 2.9 0.3 5.8 0.8c14.7 2.5 15.1 2.6 15.1 2.6 0 0-0.1 34.2-3.1 44-3 9.9 5 70.7 5 70.7l-67.4 0.9c0 0 4.3-25.2 2-33.2-10.5-35.7-5-82.7-5-82.7 7.5-2.4 23.6-4.3 30.1-4.3q2.9 0 5.8 0.2z"/>
	<path id="Layer" class="s6" d="m798.1 1023.3c0 0-3.1 11.4-2.8 14.6 0.3 3.2 5.1 7.4 5.8 10.8 0.7 3.3 0.9 5.3-8.1 6.3-8.9 0.9-14.6-0.6-14.7-1.7-0.1-1.2-3-9.2-0.3-14 2.8-4.7 4.2-21.9 4.2-21.9z"/>
	<path id="Layer" class="s13" d="m814.7 916.6c2.8 3.3 1.5 43.2-13.5 42.3-63.4-3.6-101.3-20-101.3-20 0 0-12.3-12.9-1.9-19.2 10.4-6.3 56.9-3.7 56.9-3.7 0 0 57-2.8 59.8 0.6z"/>
	<path id="Layer" class="s7" d="m775.9 1052.5q0-1.5 0-3 0.1-1.5 0.2-3 0.2-1.5 0.4-2.9 0.3-1.5 0.6-3c3.7 1.5 9.5 3.9 13.5 2.7 4-1.2 5.4-2.3 6.2-3 1.6 2.4 4.2 5 4.7 7.1 0.7 3.4 1.9 7.9-7.4 8.9-9.2 1-18-2.7-18.2-3.8z"/>
	<path id="Layer" class="s0" d="m813.1 915.5c0 0 9.8 1.1 11.2 15.1 1.3 13.9-25 105-25 105l-21.3-2.6c0 0 9.2-69.8 11-83.8 5-37.2 24.1-33.7 24.1-33.7z"/>
	<path id="Layer" class="s6" d="m810.9 916.5c-5.5 0-11.4-2-29.4-6.4-3.1-0.8-7.1-1.3-9.6-1.8-2.1-0.5-2.1-1.7-4.2-1.9l-6.2 1.7c-1.1 0.4-3 0-4.2-0.2-1.7-0.2-3.8-2.3-5.8-1.6-5.7 2.1-10.9 9.1-12 8.2-1-0.9 3.6-7 7.4-10.4-4.4 3.2-10.5 7.9-11.5 6.2-1-1.7 5.8-6.2 9.4-9.7l-2.9 1.6c0 0-5.8 5.4-6.4 3.9-0.6-1.4 2.8-4.6 4-5.9 1-1.1 12.6-5.8 13-5.9q0.7 0 1.4 0 0.7 0 1.4 0 0.7 0 1.4 0.1 0.7 0.1 1.4 0.2c2.2 0.3 7.5 2.2 9.8 2.4 4.8 0.3 24.3 1.4 35.4 0.3 0.9-23.3 4-79.9 10.3-77.5 14.9 5.6 13.9 96.7-2.7 96.7z"/>
	<path id="Layer" class="s5" d="m800.1 873.4c-1.6-48.8 7.7-60.8 13-58.8 13.4 5 13.6 34.5 12.4 58.3-7.6 1.6-18.2 1.1-25.4 0.5z"/>
	<path id="Layer" class="s6" d="m734.3 1034.7l1.8 8.4 0.4 11.7-38.9 1.1q0-0.6 0.2-1.1 0.1-0.6 0.3-1.1 0.2-0.5 0.5-0.9 0.3-0.5 0.7-0.9c1.8-2.1 15.7-6 19-9.9 3.3-3.9 1.5-9.9 1.5-9.9z"/>
	<path id="Layer" class="s7" d="m715.9 1043.9c0 0 10 4 14.8 1.7 4.8-2.4 4.7-3 6.1-2.2 1.4 0.9 1.9 12.9 1.9 12.9l-43.8 0.3c-3-0.1-4.5-2.3-2.1-4.2q0.6-0.4 1.2-0.8 0.6-0.4 1.2-0.7 0.6-0.4 1.2-0.7 0.6-0.4 1.2-0.7c3.4-1.9 18.3-5.6 18.3-5.6z"/>
	<path id="Layer" class="s0" d="m731.4 968.4c0.9 13.4 4.3 68.6 4.3 68.6l-19-0.1c-0.8-9.6-24.7-79.4-28.3-91.3-3.6-11.9-0.5-23.4 11-28.2 12-4.9 18.9 3.3 21.9 9.6 5.2 10.9 9.4 28.5 10.1 41.4z"/>
	<path id="Layer" class="s2" d="m690.3 862.7h63.7q0.6 0 1.2 0.2 0.6 0.1 1.1 0.5 0.5 0.3 0.9 0.8 0.4 0.5 0.6 1l19.6 47.8h35.1q0.4 0.1 0.7 0.2 0.3 0.1 0.6 0.4 0.2 0.2 0.4 0.5 0.1 0.4 0.1 0.7 0 0.4-0.1 0.7-0.2 0.3-0.4 0.6-0.3 0.2-0.6 0.4-0.3 0.1-0.7 0.1h-99.8q-1 0-2-0.3-1-0.3-1.8-0.8-0.9-0.6-1.5-1.3-0.7-0.8-1.1-1.7l-19.7-44q-0.5-1-0.4-2 0.1-1.1 0.7-1.9 0.6-0.9 1.5-1.4 0.9-0.5 1.9-0.5z"/>
	<path id="Layer" class="s8" d="m724.5 889.1q0.1-0.8 0.5-1.4 0.4-0.7 0.9-1.1 0.6-0.5 1.3-0.7c1.4-0.2 2.8 0.3 3.6 1.4 0.8 1.1 0.8 2.6 0.2 3.8-0.7 1.2-2 1.9-3.4 1.8-1.4-0.2-2.5-1.1-3-2.4q-0.2-0.7-0.1-1.4z"/>
	<path id="Layer" class="s6" d="m782.1 789.8l3.1 20.5c0 0-11.3 24.5-18.1 22.4-5.7-1.8-2.2-23.4-2.2-23.4 0 0 3.1-11.7 2.2-17.5-1-5.8 15-2 15-2z"/>
	<path id="Layer" class="s14" d="m767.1 791.8c-1-5.8 15-2 15-2l0.3 1.7q-0.2 0.4-0.3 0.8-0.2 0.4-0.5 0.7-0.2 0.4-0.4 0.7-0.3 0.4-0.6 0.7-1.3 1.4-2.9 2.5-1.7 1.2-3.5 2-1.8 0.8-3.7 1.3-1.9 0.4-3.9 0.5 0.3-1.1 0.4-2.2 0.1-1.1 0.2-2.2 0-1.1 0-2.2 0-1.2-0.1-2.3z"/>
	<path id="Layer" class="s6" d="m784.8 760.8c0.4-0.2 3.6 23.4-2.4 29.8-6.1 6.5-17.8 8.6-22 3.5-4.7-5.6-4.5-31 4.9-37.6 9.4-6.6 19.5 4.3 19.5 4.3z"/>
	<path id="Layer" class="s0" d="m768.9 743.9q2 0.4 3.8 1.2 1.9 0.7 3.6 1.7 1.8 0.9 3.3 2.2 1.6 1.2 2.9 2.7c3.3 0.4 7.8 2.2 12.4 9.8 5.7 9.4 1.5 19.8-5.1 24.9-6.6 5.1-6.5 11-6.5 11l-1-3q-0.3-0.8-0.5-1.7-0.2-0.9-0.3-1.8-0.1-0.9-0.1-1.8 0-0.9 0.1-1.9 0-0.5 0.1-1.1 0.1-0.5 0.2-1 0.1-0.6 0.3-1.1 0.2-0.5 0.4-1.1c1.6-3.4-3.4-5.6-4.8-8.5-1.1-2.1-1.1-7.1-2.8-10.7l-2-2.8c0 0-4.7-3.6-9.3-2.6-4.6 1-4-16.3 5.3-14.4z"/>
	<ellipse id="Layer" class="s6" cx="781" cy="778.6" rx="3" ry="5.2"/>
	<path id="Layer" class="s8" d="m764.8 789.8q-0.8 0-1.5-0.3-0.7-0.2-1.3-0.8-0.5-0.5-0.9-1.2-0.3-0.7-0.3-1.4l9 0.4c0 0-0.1 3.7-5 3.3z"/>
	<path id="Layer" class="s15" d="m950.4 662.7q0-1.1 0-2.3 0.1-1.1 0.2-2.2 0.1-1.2 0.3-2.3 0.2-1.1 0.5-2.2c1-4.2 2 0.3 2 0.3 0 0-0.3 8.1 0.2 8.1 0.5 0 0.5-4.5 1.5-9.1 0.3-1.2 0.6-2.4 0.8-3.5 0.7-2.7 2.6-3 2.4 0q0 0.6-0.1 1.1 0 0.5-0.1 1-0.1 0.5-0.2 1.1 0 0.5-0.1 1-0.1 0.5-0.2 1 0 0.5-0.1 0.9 0 0.5 0 1-0.1 0.5 0 1-0.1 0.5-0.2 1 0 0.5-0.1 1 0 0.6 0 1.1 0 0.5 0 1c0.1-0.1 0.4 0.4 0.7-0.8 0.4-1.5 0.5-4.9 1.3-7.1 0.4-1.2 1.1-3.8 1.1-3.8 0 0 1.9-3.7 2.1-3.7 1.4 0.2 0.9 3.2 0.1 4.8q-0.1 0.5-0.1 1-0.1 0.5-0.2 1-0.1 0.5-0.2 1-0.2 0.5-0.3 1c0 0-0.5 5.9 0.4 6 0.3 0.1 1-3.5 2.3-6.9 1.2-3.2 2.9-6.2 3.6-6 1.1 0.3 0.2 3.9 0.2 3.9 0 0-0.8 2.4-1 3.4-0.3 1-0.7 4.1-0.7 4.1 0 0-0.9 10.9-0.1 10.9 0.8 0 2.7-0.7 3-1.4 0.3-0.6 0.2-2.1 0.5-2.7q0.2-0.3 0.4-0.5 0.2-0.2 0.5-0.3 0.3-0.1 0.6-0.2 0.3 0 0.6 0.1c0.8 0.3 0.6 3.6 0.6 4q-0.1 0.6-0.2 1.2-0.1 0.7-0.3 1.2-0.1 0.6-0.4 1.2-0.2 0.6-0.5 1.1c-4.1 5.8-4.8 4.7-5.4 5.6-0.6 0.9-0.4 15.6-0.4 15.6l-13.3 5.3c0.6-9 1.1-16.4 1.3-18.1 0 0-1.8-6.4-2.8-10.5-1-4.1-0.1-8.3-0.2-9.4z"/>
	<path id="Layer" class="s15" d="m1091.3 661.4c-1 4-2.8 10.5-2.8 10.5 0.1 1.7 0.6 9.1 1.3 18.1l-13.3-5.3c0 0 0.2-14.7-0.4-15.6-0.6-0.9-1.4 0.2-5.4-5.6q-0.3-0.5-0.6-1.1-0.2-0.6-0.4-1.2-0.2-0.6-0.3-1.2-0.1-0.6-0.1-1.2c0-0.4-0.3-3.7 0.6-4q0.3-0.1 0.6-0.1 0.3 0 0.6 0.2 0.3 0.1 0.5 0.3 0.2 0.2 0.3 0.5c0.3 0.6 0.3 2.1 0.6 2.7 0.3 0.7 2.2 1.4 3 1.4 0.7 0-0.1-10.9-0.1-10.9 0 0-0.5-3.1-0.7-4.1-0.2-1-1-3.4-1-3.4 0 0-0.9-3.7 0.2-3.9 0.7-0.2 2.4 2.8 3.5 6 1.3 3.4 2 7 2.4 7 0.8-0.2 0.4-6.1 0.4-6.1q-0.2-0.5-0.3-1-0.1-0.5-0.2-1-0.1-0.5-0.2-1-0.1-0.5-0.1-1c-0.8-1.6-1.4-4.5 0-4.8 0.3 0 2.1 3.7 2.1 3.7 0 0 0.8 2.6 1.2 3.8 0.7 2.2 0.9 5.6 1.2 7.1 0.4 1.3 0.7 0.8 0.8 0.8q0-0.5 0-1 0-0.5-0.1-1 0-0.5-0.1-1 0-0.5-0.1-1 0-0.5 0-1 0-0.5-0.1-1 0-0.5-0.1-1 0-0.5-0.1-1-0.1-0.5-0.2-1-0.1-0.5-0.2-1 0-0.6-0.1-1.1 0-0.5-0.1-1c-0.2-3.1 1.8-2.8 2.4 0 0.3 1.1 0.5 2.2 0.8 3.4 1 4.6 1 9.1 1.5 9.1 0.7 0 0.2-8 0.2-8 0 0 1-4.5 2-0.4q0.3 1.1 0.5 2.2 0.2 1.2 0.3 2.3 0.2 1.1 0.2 2.2 0.1 1.2 0 2.3c0 1.1 0.8 5.3-0.1 9.4z"/>
	<path id="Layer" class="s6" d="m1055 1007c0 0 7.3 9.1 9.2 10.2 1.8 1.2-0.8 14.4-5.8 15.3-2.8 0.5-4.4-2.6-4.4-2.6l0.8-3.9-10.5-10.8z"/>
	<path id="Layer" class="s6" d="m1017.2 1009.2c0 0 6.1 10 7.8 11.4 1.6 1.3-2.7 14.1-7.7 14.3-2.9 0.1-4-3.1-4-3.1l1.2-3.7-9-12.1z"/>
	<path id="Layer" class="s4" d="m1036 1031.4c-2.3 4.5-20.4 21.1-27.5 23.3-1.7 0.5-3.8-0.5-3.9-1.4-0.3-2.8 2.1-8.5 4.3-13.5 1-2.3 4.1-8.5 4.6-8.8q0.7-0.5 1.5-1.1 0.7-0.5 1.4-1.1 0.7-0.6 1.4-1.2 0.7-0.6 1.3-1.2 0.8-0.7 1.5-1.5 0.7-0.7 1.4-1.5 0.6-0.8 1.3-1.6 0.7-0.8 1.3-1.6c0 0 14.1 6.1 11.4 11.2z"/>
	<path id="Layer" class="s9" d="m972.8 868.3q1-2.8 1.9-5.2c7.5 1.7 16.1 3.5 24.8 5.3l1.1 32.2c0-2.5-6.6 51.3-6.6 51.3 0 0 17 37.7 28.7 59.7-4.8 6-7 7.9-14 12-18.1-21.7-41.8-61.4-42.7-68-0.6-3.8-1.1-65.2 6.8-87.3z"/>
	<path id="Layer" class="s16" d="m1040.2 877.6c-2.3 25-7.5 72.9-7 76.7 1.2 4.8 24 49.2 28.2 55.6-3.3 4.9-8.3 10.2-13.8 11.7-1 0.3-38.7-53.3-40.7-57.5-2.4-4.8-6.2-31-6.3-63.5l-1.1-32.2c14.7 3.1 28.1 6.2 40.7 9.2z"/>
	<path id="Layer" class="s2" d="m992.2 763.4l17.2 2.4c0 0 13.7 0.2 15.4 0.2 1.7 0 12.6 62.8 15.7 86.4 3.1 23.7 0.7 27.8 0.7 27.8 0 0-21.8 4.9-37.9 3.5-16.8-1.5-35.7-10.5-35.7-10.5 0 0 14.4-45.4 17.2-59.6 2.8-14.1 7.4-50.2 7.4-50.2z"/>
	<path id="Layer" class="s5" d="m967.9 685.6c0 3.4 4.4 43.8 4.4 43.8l36.3 36.4-4.7 6.7q-2.1 2.9-3.8 6-1.8 3-3.2 6.2-1.5 3.2-2.7 6.5-1.1 3.3-2 6.7c-6.8 26.9-17.4 81.8-18.7 82-1.5 0.2-13.7-3.3-13.7-6.1 0-1.3 2.6-14.3 3.2-16.3 5.8-19.9 19.6-77.6 19.6-77.6 0-0.1-28.9-37-31.5-42.2-1.7-3.5-0.6-50.3-0.6-50.3 1.7-3.3 17.3-2.7 17.4-1.8z"/>
	<path id="Layer" class="s5" d="m1024.3 766l45.2-46.1c0 0 6.3-43.6 6.8-45.2 0.4-1.7 11.6-2.5 16.2-3 1.4-0.1-0.8 46.5-3 54.3-2.5 9.2-36.7 51.2-36.7 51.2 0 0-6.2 22.8-4.7 39.5 2.5 27.7 9.1 65.9 7.9 67.1-7.4 4.6-35.6 5.1-37.4 2.2-19.7-31.8 5.7-120 5.7-120z"/>
	<path id="Layer" class="s4" d="m1076.6 1026.6c-1.7 4.7-18.3 23.7-24.6 27.7-1.6 1.1-3.5-0.6-3.8-1.5-0.7-2.8 1-9.2 2.6-14.5 0.7-2.3 2.9-8.9 3.4-9.3q0.6-0.6 1.3-1.2 0.6-0.7 1.3-1.3 0.6-0.7 1.2-1.3 0.6-0.7 1.2-1.4 0.6-0.8 1.2-1.7 0.6-0.8 1.2-1.7 0.5-0.9 1.1-1.8 0.5-0.8 1.1-1.7c0 0 14.7 4.3 12.8 9.7z"/>
	<path id="Layer" class="s17" d="m1010.7 705.9q0.7 0.1 1.4 0.1 0.7 0 1.4 0 0.8 0 1.5-0.1 0.7 0 1.4-0.1 0.8-0.1 1.6-0.1 0.9-0.1 1.7-0.1 0.8 0 1.6 0.1 0.8 0 1.6 0.1c3.4 0.7 8.7 3.1 10.5 7.5 2.2 5.5 10.1 4.6 0.7 25.4-10.6 23.4-22.9 15.7-23.1 15.2-0.2-0.5-6.1-19.9-6.1-19.9 0 0-7.4 7.4-7.3 7 0.1-0.3-10.1-35.9 13.1-35.1z"/>
	<path id="Layer" class="s6" d="m1023.1 742.7l1.2 23.3c0 0-11.6 18.7-15.1 16.2-3.6-2.6-0.8-15.8-0.8-15.8l1.2-9.2z"/>
	<path id="Layer" class="s7" d="m1023.5 750.3c-3 7.9-10 12.8-14.9 14.7l1-7.8 13.4-14.4z"/>
	<path id="Layer" class="s6" d="m1026.8 738.9c-3.3 14.8-17.8 19.1-22.5 18.2-4.8-0.9-8.3-12.2-6-22.7q0.3-1.4 0.6-2.8 0.4-1.5 0.8-2.9 0.4-1.4 0.8-2.8 0.5-1.4 0.9-2.8c0.6-1.7 1.6-3.3 2.8-4.5 1.3-1.3 2.8-2.3 4.5-2.9 1.7-0.7 3.4-0.9 5.2-0.8 1.8 0.2 3.5 0.7 5.1 1.6 7 4 10 13.2 7.8 22.4z"/>
	<path id="Layer" class="s6" d="m1027.4 735.8c1.9 0.4 3.1 2.6 2.6 4.9-0.4 2.3-2.3 3.9-4.2 3.6-1.9-0.4-3.1-2.6-2.6-4.9 0.4-2.3 2.3-3.9 4.2-3.6z"/>
	<path id="Layer" class="s17" d="m1027.4 735.8c0 0-5.9-0.6-6.6-4.9-0.7-4.2-5-14.4-15.3-14.8-10.4-0.3 10.8-4.5 11.6-4.2l9.5 3.5c0 0 4.6 8.1 4.6 8.8 0.1 0.7-0.5 8.1-0.5 8.1z"/>
	<path id="Layer" class="s8" d="m1005.6 749.8c-4.6-1-4.1-5-4.1-5l10.5 1.8c0 0-0.7 4.3-6.4 3.2z"/>
	<path id="Layer" class="s15" d="m494.1 783.5c1.6 5.9 2.6 10 2.6 10l-5.9 13.2c0 0-7.5-8.5-10.8-14.4q-0.2-0.3-0.3-0.7-0.2-0.3-0.3-0.6-0.2-0.4-0.3-0.7-0.1-0.4-0.2-0.8c4.2-3.7 9.5-4.6 15.2-6z"/>
	<path id="Layer" class="s4" d="m512.5 778.1c0 0-32.7 14.1-33.8 13.8-0.6-0.2-13.3-21.5-13.5-41.5 0-9.2 9.5-20.3 20.3-18.1 5.4 1.1 5.3 2.6 13.2 14.2 8 11.6 13.8 31.6 13.8 31.6z"/>
	<path id="Layer" class="s6" d="m554.1 1030.4c0 0 0.7 5.9 1 8.8 0.2 1.9 3 3.6 3.5 3.8 6 2.5-20.5 12.7-20.5 7.2 0-1.5 1.2-5.5 1.5-7.1 0-0.1 0.7-12.9 0.7-12.9z"/>
	<path id="Layer" class="s18" d="m579.8 1053.5c-9.4 2.8-42.6 0.1-42.6 0.1 0 0-0.1-9.6 2.4-10.7 2.2-0.9 6.4 2.7 9.6 2.2 3.2-0.4 9.4-2.1 9.4-2.1 12.6 3.9 24.9 9.3 21.2 10.5z"/>
	<path id="Layer" class="s6" d="m500.1 1030.4c0 0-0.1 4.6 0.2 7.5 0.1 1.9 3.8 4.9 4.3 5.1 5.9 2.5-20.5 12.7-20.5 7.2 0-1.5 1.2-5.5 1.4-7.1 0-0.1 0.8-12.9 0.8-12.9z"/>
	<path id="Layer" class="s18" d="m525.8 1053.5c-9.4 3.3-42.8 0.1-42.8 0.1 0 0 0.1-9.6 2.6-10.7 2.2-0.9 6.4 2.7 9.6 2.2 3.1-0.4 9.3-2.1 9.3-2.1 12.7 3.9 24.9 9.2 21.3 10.5z"/>
	<path id="Layer" class="s6" d="m494.4 796.7l23.2-32.6 0.7-1.8c1.1-3.2 3.6-10 5.7-16.6v-0.1c0.7-2.3 2.1-6.4 3.4-10.4 1.6-4.4 3.5-9.8 3.5-10.7l-0.3-0.9q-0.4-1.1-0.7-2.4-0.4-1.2-0.7-2.4-0.3-1.2-0.5-2.4-0.3-1.3-0.5-2.5c-0.3-1.5-0.5-5 1.2-5 2.7 0 1.4 3.5 2.7 5.7q0.3-0.9 0.6-1.8 0.2-0.9 0.5-1.8 0.2-0.9 0.4-1.9 0.2-0.9 0.4-1.9l0.4-6.9c0.1-0.5-0.4-4.3 1.5-4.3h0.1c1.7 0.1 1.7 4.2 2.4 11 0.2-0.7 0.5-1.7 0.6-2.6q0.1-0.4 0.1-0.9 0.1-0.4 0.1-0.9 0.1-0.4 0.2-0.9 0.1-0.5 0.2-0.9c-0.3-1.9-0.1-4.9 1.9-4.7 1 0.2 0.9 4.4 0.9 4.4 0 0.6 0 5 0 5.9 0.2-1.5 1-7.9 2.7-7.9 1.3 0 1.4 1.8 1.4 3.1 0 0.8-0.9 7.7-0.9 8.5 0.6-1 1.3-7.1 2-7.1 2.6 0 1.6 8.7 0.7 10.9q-0.1 0.2-0.1 0.3-0.1 0.2-0.1 0.3 0 0.2-0.1 0.3 0 0.2 0 0.3-0.2 0.9-0.4 1.7-0.2 0.8-0.5 1.6-0.2 0.8-0.6 1.6-0.3 0.8-0.7 1.6c-1.7 2.7-3.9 7.2-4.2 7.8-0.3 1.4-1 6.4-2 12.6-0.5 2.7-0.9 5.6-1.4 8.6-0.1 0.7-0.6 2.8-2.4 10.6-2.5 10.7-2.8 11.2-2.9 11.4-1.1 1.9-26.2 36-27.2 37.4l-0.7 0.9z"/>
	<path id="Layer" class="s7" d="m537.6 720.7c0 0-1.9-4.8-5.2-4.9q0.4-0.1 0.9-0.1 0.5-0.1 0.9 0 0.5 0.1 0.9 0.3 0.4 0.2 0.8 0.4c1.6 1.3 1.7 4.3 1.7 4.3z"/>
	<path id="Layer" class="s6" d="m503.5 713.2c-0.9 5.3 2.1 15.4 2.1 15.4 0 0 3.8 7.3-1.8 8.9-6.6 1.9-18-7.2-18-7.2l3-18.9c0 0 15.7-3.5 14.7 1.8z"/>
	<path id="Layer" class="s19" d="m490.2 716.7q-0.4-0.3-0.7-0.5-0.4-0.3-0.7-0.6-0.3-0.3-0.6-0.6l0.6-3.6c0 0 4-0.8 8.6-1.1 3.4-0.1 6.5 0.4 6.1 2.9q-0.1 0.9-0.1 1.9 0 0.9 0 1.9 0 0.9 0.1 1.9 0.1 0.9 0.3 1.8-1.6-0.2-3.3-0.5-1.6-0.4-3.3-0.8-1.6-0.5-3.2-1.1-1.5-0.5-3.1-1.2-0.4-0.2-0.7-0.4z"/>
	<path id="Layer" class="s6" d="m490.8 679.7c10.8 2.7 19.5 24.3 17.1 30.6-2.1 5.7-13.6 7.6-21.3 4-7.7-3.6-12.7-24.8-12.2-24.8 0 0 5.6-12.5 16.4-9.8z"/>
	<path id="Layer" class="s4" d="m493 680.7c-4.3 1.6-8.6 8.1-8.6 8.1-0.3 3.6 1.3 7.9 1 10.1-0.3 2.9-4.2 6.4-1.5 8.8 2.6 2.5 4.3 7.3 4.3 7.3l-0.9 5.5c0 0-1.3-5.1-9-7.4-7.7-2.3-15.1-9.9-13-19.7 1.7-8 5.2-10.9 8.1-12.3q0.7-1.7 1.8-3.3 1-1.6 2.3-3 1.2-1.4 2.7-2.6 1.5-1.2 3.1-2.1c7.9-4.6 17 7.8 9.7 10.6z"/>
	<path id="Layer" class="s6" d="m486.6 702.6c1 2.4 0.6 4.9-0.9 5.4-1.6 0.6-3.6-1-4.6-3.4-1-2.4-0.6-4.9 0.9-5.4 1.5-0.6 3.6 0.9 4.6 3.4z"/>
	<path id="Layer" class="s15" d="m516.7 796.1l2.6-5.1c0 0 32.1-14 33.9-14 1.8 0 6.9 12.9 6.9 12.9l-44.8 7.3z"/>
	<path id="Layer" class="s10" d="m503.6 825.9l23.3 51.9c0 0-6.9 68-6.5 65.6 0.3-2.4-19.3 90.8-19.3 90.8l-16.5-0.4 7-93.2c0 0-0.1-58.3-2-74.7-1.8-16.3 2.7-38 2.7-38z"/>
	<path id="Layer" class="s4" d="m544.8 819.7l8.4 26.7 8.7 105.5-4.1 84-19.2 0.6c0 0-9.2-75.6-9.6-82.4-0.3-6.8-28-90.7-31.6-99.2-3.6-8.5-0.7-28-0.7-28z"/>
	<path id="Layer" class="s6" d="m493 724.2c0.3-0.2 11.7 1.5 11.7 1.5l0.9 2.9c0 0-6.3 4.1-10.7 4.4-4.4 0.4-9.1-2.7-9.1-2.7 0 0 6.9-5.9 7.2-6.1z"/>
	<path id="Layer" class="s15" d="m553 763.9c18.7 13.7 15.5 23 7.9 25.8-7.7 2.7-24.7-13.3-24.7-13.3 0 0 0.1-24.7 16.8-12.5z"/>
	<path id="Layer" class="s2" d="m553.6 846.4c-17.9 15.1-65.7 5.1-65.7 5.1 0 0 1-21.5 0-37.9-0.6-4.2-1.1-7.8-1.6-11.5-2.7-10.9-8.1-19.1-12.5-34.1-5.6-19-4.6-29-0.7-32.7 3.9-3.6 12.6-5 12.6-5 0 0 9.9-1.3 19.8-1.8 9.4-0.5 19.3-0.4 20 3.4 1.4 7.9 19.7 50.5 22.2 64.3 2.6 14 5.9 50.2 5.9 50.2z"/>
	<path id="Layer" class="s20" d="m559.9 766.7c0 0-18.7 15.4-19.8 15.4-0.7 0-26.8-19.1-32.8-34.9-3.3-8.7 3.6-18.4 11.6-18.4 5.5 0 8 1.5 18.9 10.7 10.9 9.2 22.1 27.2 22.1 27.2z"/>
	<path id="Layer" fill-rule="evenodd" class="s21" d="m642.1 430.9l-13.1 24.5c-1.3 0.9-2.5 0.3-5.7-1.1-5.6-2.4-11.3-4.8-17-7.1q-0.4-0.1-0.8-0.1-0.5 0-0.9 0.1-0.4 0.1-0.8 0.2-0.4 0.2-0.8 0.4c-4.7 3.8-9.1 7.9-13.8 11.6-1.5 1.1-2.1 1.9-1.6 3.9 1.7 7.6 3.2 15.3 4.8 22.9-6.1 3.8-22.9 9-29.1 9-2.8-6.9-5.8-13.9-8.5-21-0.8-2.3-1.7-2.9-4.2-3q-2.2 0-4.4-0.2-2.2-0.1-4.3-0.3-2.2-0.2-4.4-0.5-2.1-0.2-4.3-0.5c-2.3-0.4-3.8-0.3-5.2 2-3.6 5.8-7.5 11.4-11.3 17.1-0.9 1.6-2 2.1-3.6 1.3q-11.6-6.1-23.2-12.3c-1.9-1-0.9-2.4-0.4-3.6 2.5-6.2 4.9-12.3 7.6-18.4 1-2.3 0.7-3.7-1-5.5-4.6-4.9-8.8-10.1-13.6-15.5l-24.5 5q-1.7-3.4-3.1-7-1.4-3.5-2.5-7.2-1.1-3.6-1.9-7.3-0.7-3.7-1.2-7.5l22.7-9.4c0.9-7.9 1.6-15.3 2.8-22.6 0.3-2.1-0.2-3.1-1.8-4.1-5.7-3.6-11.3-7.4-16.9-11.1-1.3-0.8-2-1.5-1.4-3.1 2.9-8.2 6.5-16 11.8-23 1.2-1.5 2.2-1.6 3.8-0.9 6.4 2.6 12.9 5.2 19.3 7.9q0.4 0.2 1 0.3 0.5 0.1 1 0.1 0.6-0.1 1.1-0.4 0.4-0.2 0.8-0.6c5-4.3 10.2-8.4 15.5-12.4q0.4-0.2 0.7-0.6 0.3-0.4 0.5-0.8 0.1-0.4 0.1-0.9 0-0.5-0.1-0.9c-1.6-7.7-3.1-15.4-4.7-23.3q3.4-1.7 6.9-3.1 3.5-1.4 7.1-2.5 3.6-1.1 7.2-2 3.7-0.8 7.4-1.3l9.8 23.6 25 2.4c3.3-5 7.1-10.8 11-16.5 3.2-4.7 2.1-4.8 7.7-2.5q0.2 0.1 0.5 0.1 0.2 0.1 0.4 0.1 0.2 0.1 0.4 0.1 0.2 0 0.5 0.1l13.8 7.4q0.3 0.3 0.7 0.6 0.3 0.3 0.6 0.6 0.4 0.2 0.7 0.5 0.4 0.2 0.8 0.5c2.7 1.4 3.3 3 2 6-2.9 6.2-5.3 12.6-7.8 19q-0.1 0.4-0.1 0.8 0 0.3 0 0.7 0.1 0.4 0.2 0.8 0.2 0.4 0.4 0.7c3.6 4.7 7.6 9 11 13.9 1.6 2.3 3 2.6 5.6 2.1 7.2-1.7 14.6-3 22.6-4.6 3 9.7 5.9 19.2 8.9 28.7-1.7 0.8-2.7 1.3-3.7 1.7-6.3 2.5-12.5 5.2-18.8 7.6-1.8 0.7-2.2 1.7-2.3 3.5-0.6 6.4-1.5 12.8-2.1 19.1q0 0.5 0.1 0.9 0.1 0.4 0.3 0.8 0.1 0.4 0.4 0.8 0.3 0.3 0.6 0.6c4.6 3.2 9.2 6.1 13.8 9.2 3.7 2.5 5.1 3.5 5 5.5zm-54-14.1c2.8-5.2 4.5-10.9 5.1-16.8 0.6-5.9 0-11.9-1.7-17.5-1.7-5.7-4.5-11-8.2-15.6-3.8-4.6-8.4-8.4-13.6-11.2-5.2-2.8-10.9-4.5-16.8-5.1-5.9-0.6-11.9 0-17.5 1.7-5.7 1.7-11 4.5-15.6 8.2-4.6 3.8-8.4 8.4-11.2 13.6-2.8 5.2-4.5 10.9-5.1 16.8-0.6 5.9 0 11.9 1.7 17.5 1.7 5.7 4.5 11 8.2 15.6 3.8 4.6 8.4 8.4 13.6 11.2 5.2 2.8 10.9 4.5 16.8 5.1 5.9 0.6 11.9 0 17.5-1.7 5.7-1.7 11-4.5 15.6-8.2 4.6-3.8 8.4-8.4 11.2-13.6z"/>
	<path id="Layer" fill-rule="evenodd" class="s22" d="m417.4 531.8l7.4 36.8c-0.5 1.9-2.3 2.4-6.8 3.7-7.9 2.3-15.9 4.6-23.7 7.2q-0.5 0.2-1 0.6-0.5 0.3-0.8 0.8-0.4 0.4-0.7 1-0.2 0.5-0.4 1.1c-1.6 7.9-2.8 15.9-4.5 23.8-0.5 2.4-0.4 3.8 1.7 5.4 8.4 6.5 16.5 13.1 24.7 19.7-3.1 9.1-16 29-22.4 34.4-8.9-4.8-18-9.5-27-14.6-2.8-1.6-4.3-1.5-6.9 0.6q-2.3 1.8-4.7 3.5-2.4 1.7-4.8 3.4-2.4 1.6-4.8 3.2-2.5 1.6-5 3.1c-2.7 1.7-4.2 3.1-3.7 6.6 1.3 9.1 2 18.3 3.1 27.5 0.2 2.4-0.3 3.9-2.8 4.4l-34.5 7.1c-2.9 0.6-3.1-1.7-3.6-3.4-2.7-8.6-5.4-17.1-7.8-25.7-0.9-3.2-2.5-4.4-5.8-4.8-9-1.2-17.9-2.9-27.4-4.5l-21.2 26.3q-4.7-2.1-9.2-4.6-4.5-2.4-8.8-5.3-4.2-2.8-8.2-6-4.1-3.2-7.8-6.8c5.4-10.1 10.8-20.2 15.6-29.2-5.9-9-11.5-17.3-16.6-25.8-1.4-2.5-2.7-3-5.3-2.7-9 1.1-18.1 2-27.1 3-2 0.2-3.4 0.2-4.2-2-3.9-11-6.9-22.2-7.4-34-0.1-2.6 0.9-3.6 3.2-4.3 8.9-2.7 17.8-5.6 26.8-8.3 2.1-0.7 3.1-1.5 3.5-4 1.5-8.8 3.4-17.5 5.5-26.1 0.5-2.2-0.1-3.2-1.6-4.4-8.2-6.6-16.4-13.3-24.8-20.1 5.8-12.4 12.7-23.7 22.1-33.8l30.4 16.2 27.9-19c-0.8-8.1-1.8-17.3-2.7-26.6-0.7-7.6-1.9-6.8 6-9.2q0.2-0.1 0.5-0.2 0.3-0.2 0.5-0.3 0.3-0.1 0.6-0.3 0.2-0.1 0.5-0.3l20.7-4.2q0.6 0.1 1.2 0.1 0.6 0 1.2 0 0.6 0 1.2-0.1 0.6 0 1.2-0.1c3.9-0.8 6 0.2 7.2 4.5 2.3 8.9 5.3 17.6 8.2 26.4q0.2 0.5 0.5 0.9 0.3 0.4 0.7 0.8 0.4 0.3 0.9 0.6 0.4 0.2 0.9 0.4c7.8 1.8 15.8 2.8 23.4 5 3.8 1 5.5 0.2 7.6-2.6 6.1-8 12.6-15.6 19.6-24.2l33.9 22.2c-1.2 2.3-1.8 3.6-2.5 4.9-4.3 8-8.5 16.1-12.9 24-1.2 2.3-0.8 3.6 0.6 5.7 4.9 7.1 9.3 14.5 14.2 21.6q0.4 0.5 0.9 0.9 0.4 0.3 1 0.6 0.5 0.2 1.1 0.3 0.6 0.2 1.2 0.2c7.4-0.6 14.8-1.6 22.2-2.3 6-0.6 8.2-0.8 9.8 1.3zm-68.1 31.9c-1.6-7.9-4.7-15.3-9.1-21.9-4.5-6.7-10.2-12.3-16.8-16.8-6.6-4.4-14.1-7.5-21.9-9-7.8-1.6-15.9-1.6-23.7 0-7.8 1.6-15.3 4.7-21.9 9.1-6.6 4.4-12.3 10.1-16.7 16.8-4.5 6.6-7.5 14-9.1 21.9-1.5 7.8-1.5 15.8 0 23.7 1.6 7.8 4.7 15.2 9.1 21.9 4.5 6.6 10.2 12.3 16.8 16.7 6.6 4.4 14.1 7.5 21.9 9 7.8 1.6 15.9 1.6 23.7 0 7.8-1.5 15.3-4.6 21.9-9.1 6.6-4.4 12.3-10.1 16.8-16.7 4.4-6.7 7.5-14.1 9-22 1.6-7.8 1.5-15.8 0-23.7z"/>
	<path id="Layer" fill-rule="evenodd" class="s23" d="m395.7 342l-5.6 15.6c-0.6 0.6-1.4 0.3-3.4-0.2-3.5-0.9-7-1.8-10.6-2.6q-0.3-0.1-0.5 0-0.3 0-0.5 0.1-0.3 0.1-0.5 0.2-0.2 0.1-0.4 0.3c-2.4 2.6-4.6 5.4-7.1 8q-0.3 0.2-0.5 0.5-0.2 0.3-0.2 0.6-0.1 0.4-0.1 0.7 0.1 0.3 0.2 0.6c1.7 4.4 3.3 8.8 4.9 13.1-3.2 2.8-12.7 7.4-16.3 7.9-2.3-3.8-4.6-7.7-6.9-11.6q-0.1-0.4-0.4-0.7-0.3-0.3-0.7-0.5-0.4-0.2-0.8-0.2-0.4-0.1-0.8 0-1.3 0.2-2.6 0.3-1.3 0.1-2.6 0.2-1.3 0.1-2.6 0.1-1.3 0.1-2.6 0.1c-1.4 0-2.2 0.2-2.9 1.6-1.6 3.8-3.4 7.4-5 11.1-0.5 1-1.1 1.4-2.1 1.1q-7.3-2.6-14.7-5.2c-1.2-0.4-0.8-1.3-0.6-2.1q1.4-5.7 2.9-11.5 0.1-0.4 0.1-0.8 0.1-0.5-0.1-0.9-0.1-0.5-0.4-0.8-0.3-0.4-0.7-0.6c-3.2-2.5-6.1-5.1-9.4-7.9l-14 5.1q-1.3-1.8-2.4-3.8-1.2-1.9-2.1-4-1-2-1.8-4.2-0.8-2.1-1.4-4.3l12.5-7.5c-0.1-4.7-0.4-9.1-0.4-13.5q0.1-0.4 0-0.7-0.1-0.4-0.3-0.7-0.2-0.3-0.5-0.5-0.2-0.2-0.6-0.4c-3.7-1.5-7.3-3.3-10.9-5-0.8-0.3-1.3-0.7-1.1-1.7q0.3-1.9 0.8-3.7 0.5-1.9 1.1-3.7 0.6-1.9 1.3-3.6 0.8-1.8 1.7-3.5 0.1-0.3 0.3-0.6 0.3-0.2 0.6-0.3 0.3-0.2 0.6-0.2 0.3 0.1 0.6 0.2c4 1 8 1.9 12 2.9q0.3 0.1 0.7 0.1 0.3 0.1 0.6 0 0.3-0.1 0.6-0.3 0.2-0.2 0.4-0.5c2.5-3 5.3-5.8 8-8.6q0.2-0.2 0.4-0.5 0.1-0.2 0.2-0.5 0-0.2 0-0.5-0.1-0.3-0.2-0.5c-1.6-4.4-3.2-8.8-4.8-13.3q1.8-1.3 3.7-2.4 1.9-1.1 4-2.1 2-1 4-1.8 2.1-0.8 4.3-1.5l7.8 13 14.9-0.8c1.5-3.3 3.2-7 5-10.7 1.5-3.1 0.8-3 4.3-2.2q0.2 0.1 0.3 0.1 0.1 0 0.3 0 0.1 0 0.2 0 0.2 0 0.3 0l8.8 3.1q0.2 0.2 0.4 0.3 0.3 0.2 0.5 0.3 0.2 0.1 0.4 0.2 0.3 0.1 0.5 0.2c1.7 0.6 2.3 1.5 1.7 3.4-1.1 3.9-2 7.8-2.9 11.8q0 0.3 0 0.5 0.1 0.2 0.1 0.4 0.1 0.3 0.2 0.5 0.1 0.2 0.3 0.3c2.5 2.5 5.3 4.7 7.7 7.2q0.3 0.4 0.7 0.7 0.4 0.3 0.9 0.4 0.5 0.1 1 0 0.5-0.1 0.9-0.3c4.1-1.6 8.3-3.1 12.9-4.7l7.8 16.1c-1 0.6-1.5 0.9-2.1 1.2-3.4 2.1-6.8 4.2-10.3 6.2q-0.3 0.2-0.6 0.4-0.2 0.3-0.3 0.6-0.2 0.3-0.2 0.6-0.1 0.4 0 0.7c0.3 3.8 0.3 7.6 0.5 11.4q0 0.3 0.1 0.5 0.1 0.3 0.3 0.5 0.1 0.2 0.3 0.4 0.2 0.2 0.4 0.3c3 1.5 6 2.8 9 4.2 2.4 1.1 3.3 1.5 3.5 2.8zm-33.2-3.5c1.2-3.3 1.7-6.8 1.5-10.4-0.1-3.5-1-6.9-2.5-10.1-1.5-3.2-3.6-6-6.3-8.4-2.6-2.4-5.6-4.2-8.9-5.4-3.3-1.2-6.9-1.7-10.4-1.5-3.5 0.2-6.9 1-10.1 2.5-3.2 1.5-6.1 3.7-8.4 6.3-2.4 2.6-4.2 5.6-5.4 9-1.2 3.3-1.7 6.8-1.5 10.3 0.2 3.5 1 7 2.5 10.2 1.5 3.2 3.7 6 6.3 8.4 2.6 2.3 5.7 4.2 9 5.3 3.3 1.2 6.8 1.7 10.3 1.6 3.6-0.2 7-1.1 10.2-2.6 3.2-1.5 6-3.6 8.4-6.2 2.3-2.6 4.2-5.7 5.4-9z"/>
	<path id="Layer" class="s2" d="m344.9 1049.3h-8.8c1.2-38.5 2.2-97 0.3-100.3q0 0.1 0.1 0.2 0.1 0.1 0.1 0.1 0.1 0.1 0.2 0.1 0.1 0.1 0.1 0.1l7.2-1.9c1.2 0.6 1.9 0.9 2.1 17.3 0.1 8.5 0.1 20.1-0.1 34.6-0.4 24.7-1.1 49.6-1.2 49.8z"/>
	<path id="Layer" class="s2" d="m372.7 1049.3q0.9 0.4 1.6 1.1 0.7 0.7 1.1 1.6 0.4 0.9 0.4 1.9 0 0.2-0.1 0.3-0.1 0.2-0.2 0.3-0.1 0.1-0.3 0.2-0.1 0-0.3 0.1h-67.8q-0.2-0.1-0.3-0.1-0.2-0.1-0.3-0.2-0.1-0.1-0.2-0.3 0-0.1 0-0.3 0-1 0.3-1.9 0.4-1 1.1-1.7 0.7-0.7 1.6-1 1-0.4 2-0.4h59.5q1 0 1.9 0.4z"/>
	<path id="Layer" class="s2" d="m345.5 1044.3q0.7 0.3 1.3 0.8 0.5 0.6 0.8 1.3 0.3 0.7 0.3 1.5 0 0.8-0.3 1.5-0.3 0.7-0.8 1.3-0.6 0.5-1.3 0.8-0.7 0.3-1.5 0.3h-7.3q-0.8 0-1.5-0.3-0.7-0.3-1.3-0.8-0.5-0.6-0.8-1.3-0.3-0.7-0.3-1.5 0-0.8 0.3-1.5 0.3-0.7 0.8-1.3 0.6-0.5 1.3-0.8 0.7-0.3 1.5-0.3h7.3q0.8 0 1.5 0.3z"/>
	<path id="Layer" class="s4" d="m129.3 879h3.5v175.6h-3.5z"/>
	<path id="Layer" class="s4" d="m310.4 781.9q-0.1-2.9 0-5.9 0.2-2.9 0.8-5.8 0.5-2.9 1.4-5.7 0.9-2.7 2.2-5.4c3-6.2 10.4-9.8 17.2-9.8 21.5 0 24.2 28.4 38 39.4 4.2 3.3 8.8 6.1 12.8 9.7 14.6 13.3 8 38-5.4 49.7-9.3 8.1-24 12.8-35.4 6.4-6-3.3-10.6-8.8-13.8-14.8-4.6-8.6-7.6-18.5-10.9-27.6-3.5-9.7-6.4-19.8-6.9-30.2z"/>
	<path id="Layer" class="s3" d="m251.1 863.6l46.8-13c0 0 9.9-13.3 22.6-31 4.1 4.1 6.4 10.4 10.6 14.5l-31 34.3q-0.4 0.4-0.9 0.8-0.5 0.3-1.1 0.6-0.5 0.2-1.1 0.4-0.7 0.1-1.3 0.1l-43 0.2-14.7 1.1v-9.4z"/>
	<path id="Layer" class="s24" d="m302.9 837.4c0 0 10.4-14.7 18.8-23.1 5.1-5.1 4.4 10.7 7.1 11.4 7.1 1.9 14-2.8 9.9 4.4-4.1 7.1-20.2 23.6-20.2 23.6z"/>
	<path id="Layer" class="s16" d="m341.3 807.1c0 0 14.5-2.9 21 2.6 6.6 5.5-1.4 54.4-1.4 62.5 0 8.2 4.6 31 4.6 31 0 0-43.8 7.7-50.7-4.5 0 0-2-46.3-1.7-52.2 0.3-5.8 6.8-29.6 8.6-32.2 1.8-2.5 19.6-7.2 19.6-7.2z"/>
	<path id="Layer" class="s6" d="m341.4 784.8c0 0 0.1 0.4 0.2 1.1 0.7 3.6 3.2 15.3 4.9 18.5 2.1 3.8-7 16.2-15.8 14.7-2.6-0.5 2.2-11.4 2-12.5-0.4-2.2-1-5.3-1.6-8.4-0.4-1.7-0.7-3.5-1-5.1-1-4.8-1.7-8.7-1.7-8.7z"/>
	<path id="Layer" class="s7" d="m342 788q-0.3 1-0.8 2-0.5 1-1.1 1.9-0.6 0.9-1.3 1.7-0.7 0.8-1.5 1.5-0.7 0.6-1.4 1.1-0.7 0.6-1.5 0.9-0.8 0.4-1.7 0.7-0.8 0.3-1.7 0.5c-0.3-1.8-0.7-3.5-1-5.2-0.9-4.7-1.7-8.6-1.7-8.6l13.1 0.3c0 0 0.1 0.5 0.2 1.2 0.1 0.5 0.3 1.2 0.4 2z"/>
	<path id="Layer" class="s6" d="m332.6 755c0 0 6.2-0.7 10.1 4.3 3.8 5 8 20.5-1.6 28.9-9.7 8.4-19.2-1.1-20.6-11.2-1.4-10.1-1.9-22.4 12.1-22z"/>
	<path id="Layer" class="s6" d="m317.8 771.5c1.2-0.7 3.2 0.5 4.3 2.8 1.2 2.2 1.1 4.6-0.1 5.3-1.2 0.7-3.2-0.5-4.3-2.8-1.2-2.2-1.1-4.6 0.1-5.3z"/>
	<path id="Layer" class="s4" d="m344.8 755.8c5.8 3.5 8 21.5 8 21.5 0 0-0.8-7.9-6.7-8.5-5.9-0.7-14.2-15.4-14.2-15.4 0 0 7-1.1 12.9 2.4z"/>
	<path id="Layer" class="s6" d="m348.4 768.3c1.7 0.4 2.7 2.8 2.2 5.4-0.5 2.6-2.2 4.5-3.9 4.1-1.7-0.3-2.7-2.7-2.2-5.3 0.5-2.7 2.3-4.5 3.9-4.2z"/>
	<path id="Layer" class="s3" d="m297.9 1004.9c0 0 11.7 16.3 14.6 18.1 2.9 1.8 4.9 3.8 5.4 4.8 0.8 2-1.5 8.5-2.5 11.3-0.6 2-2.7 15.4-4.4 15.4-5.8 0.4-14.4 0.6-15.6-0.6-1.4-1.5 3.2-2.5 4.8-3.9 1.6-1.4 2.2-16.5 2.1-17.9-0.1-1.4-13.4-17.3-13.4-17.3z"/>
	<path id="Layer" class="s11" d="m319.9 1026c0.6 1.1-4.3 13-4.3 13-1 4.8-3.3 15.9-3.3 15.9h-18.6q0-0.3-0.1-0.7 0-0.3 0-0.6 0-0.3 0-0.6 0.1-0.4 0.1-0.7c0.9-1.9 5.3-2.8 6.2-3.1 3.5-1.2 12.4-26.3 12.4-26.3 0 0 7.1 1.9 7.6 3.1z"/>
	<path id="Layer" class="s6" d="m209.4 1022.5c0 0-10.8 15.2-9.9 20 0.6 2.6 2.8 6 1.5 8.5q-0.2 0.4-0.5 0.9-0.3 0.4-0.6 0.8-0.4 0.4-0.8 0.7-0.4 0.3-0.9 0.6l-33.8 0.5c-1.8 0-0.6-1.2 0.9-2.2 2.4-1.8 4.4-3 12.1-6.8 0.6-0.2 2.4-1.4 3-1.8q0.7-0.4 1.4-0.9 0.6-0.5 1.2-1 0.6-0.6 1.2-1.1 0.6-0.6 1.1-1.2c2.4-2.7 13.1-24.7 13.1-24.7z"/>
	<path id="Layer" class="s11" d="m180.5 1043.8c8.9 2.3 15.5 0.7 19.2-0.8 1 2.7 2.2 6.1 1.6 8-0.9 2.4-2 2.9-3 3-8.2 0.2-30 0.5-36.2 0.6q-0.3 0-0.6-0.1-0.2-0.2-0.3-0.5-0.2-0.2-0.1-0.5 0-0.3 0.2-0.6c1.5-1.8 18.5-8.7 19.2-9.1z"/>
	<path id="Layer" class="s11" d="m248.6 928.4c0 0 13.4 15.3 16.9 17.7 3.4 2.4 36.2 62.9 36.2 62.9l-11.7 8.5c0 0-29.3-36.6-43.1-56.1-11.7-16.6-7.4-15.5-14.2-25.6-0.9-1.3-1.6-2.8-2-4.4-0.4-1.6-0.5-3.2-0.3-4.8 0.2-1.6 0.7-3.1 1.4-4.6 0.8-1.4 1.7-2.7 2.9-3.8q1-0.8 2-1.7c10.2-8.5 79.7-18 79.7-18l44.5 4.3c0 0-36.3 25.6-37.7 26.2-1.3 0.7-50.2 7.8-51.2 7.8-1 0-23.4-8.4-23.4-8.4z"/>
	<path id="Layer" class="s7" d="m365.5 903.3c0 0 7.6 22.8-3.8 33.5-11.5 10.7-79.5 9.5-101.9 9.5 0 0-9.1 25.1-10.2 29.2-1 4.1-45.4 56.6-45.4 56.6l-12.2-7.8c0 0 47.8-92.9 51.5-97 3.8-4 57-20.3 70.2-24 13.2-3.8 51.8 0 51.8 0z"/>
	<path id="Layer" class="s6" d="m277 862.1l40.6-9c0 0 14.7-18.9 28.8-35.1 4.1 4.1 6.5 10.4 10.6 14.5l-31 34.2q-0.4 0.5-0.9 0.9-0.5 0.3-1 0.6-0.6 0.3-1.2 0.4-0.6 0.1-1.2 0.1l-43 0.2-14.8 1.1v-9.4z"/>
	<path id="Layer" class="s24" d="m328.8 835.9c0 0 22.8-30.3 29.8-28.4 7.1 1.8 10.2 13.8 6 21-4.1 7.1-20.2 23.6-20.2 23.6z"/>
	<path id="Layer" class="s11" d="m193.6 815.9h67q0.6 0 1.2 0.1 0.6 0.2 1.2 0.6 0.5 0.4 0.9 0.9 0.4 0.5 0.7 1.1l20.6 50.3h36.9q0.4-0.1 0.7 0.1 0.4 0.1 0.6 0.4 0.3 0.3 0.4 0.6 0.2 0.3 0.2 0.7 0 0.4-0.2 0.7-0.1 0.4-0.4 0.6-0.2 0.3-0.6 0.4-0.3 0.2-0.7 0.2h-105.1q-1.1 0-2.1-0.3-1-0.3-1.9-0.9-0.9-0.6-1.6-1.4-0.7-0.8-1.1-1.8l-20.7-46.2c-0.3-0.7-0.4-1.4-0.4-2.1 0.1-0.7 0.3-1.4 0.7-2.1 0.4-0.6 0.9-1.1 1.6-1.4 0.6-0.4 1.3-0.6 2.1-0.5z"/>
	<path id="Layer" class="s8" d="m229.5 843.6q0.1-0.8 0.5-1.4 0.4-0.7 1-1.2 0.6-0.5 1.4-0.7c1.4-0.3 2.8 0.3 3.7 1.5 0.8 1.2 0.9 2.7 0.2 4-0.7 1.2-2.1 1.9-3.5 1.8-1.5-0.1-2.7-1.1-3.2-2.5q-0.2-0.7-0.1-1.5z"/>
	<path id="Layer" class="s10" d="m329.2 881.1h-200.1q-0.9 0-1.6-0.4-0.8-0.3-1.4-0.9-0.6-0.6-0.9-1.4-0.4-0.7-0.3-1.6 0-0.8 0.3-1.6 0.3-0.8 0.9-1.4 0.6-0.6 1.4-0.9 0.7-0.3 1.6-0.3h200.1q0.8 0 1.6 0.3 0.8 0.3 1.4 0.9 0.6 0.6 0.9 1.4 0.3 0.8 0.3 1.6 0 0.9-0.3 1.6-0.3 0.8-0.9 1.4-0.6 0.6-1.4 0.9-0.8 0.4-1.6 0.4z"/>
	<path id="Layer" class="s8" d="m328.9 782.6l9.1-0.4q-0.1 0.7-0.4 1.4-0.3 0.7-0.9 1.3-0.6 0.5-1.3 0.8-0.7 0.2-1.4 0.2c-4.9 0.4-5.1-3.3-5.1-3.3z"/>
	<path id="Layer" class="s2" d="m295.2 948.5l4.3-18.1c0.9-3.4 2.2-6.7 4.1-9.7 1.9-3 4.3-5.7 7-8 2.7-2.2 5.8-4 9.1-5.3 3.3-1.2 6.8-1.9 10.4-2.1l53.7-2.2-1.6 5.3-51.9 2.1c-3 0.1-5.9 0.7-8.7 1.8-2.8 1.1-5.4 2.6-7.7 4.5-2.3 1.9-4.3 4.1-5.9 6.6-1.5 2.6-2.7 5.3-3.4 8.2l-4.1 17.1q-3.1-0.1-5.3-0.2z"/>
	<path id="Layer" class="s10" d="m398.2 846.8c0.4-1.3 1.1-2.6 2-3.7 0.9-1.1 2-1.9 3.2-2.6 1.2-0.7 2.6-1.1 4-1.2 1.3-0.2 2.7-0.1 4.1 0.3 1.3 0.4 2.6 1.1 3.7 2 1.1 0.8 2 1.9 2.7 3.2 0.6 1.2 1.1 2.5 1.2 3.9 0.2 1.4 0 2.8-0.4 4.2-8.2 28.3-30.9 105.8-32.6 107.5-2.1 2-76.9-0.1-85.9-0.6-8.9-0.4-15.1-2.3-17.3-7.2-2.2-4.9 1-14.2 8.5-13 7.4 1.2 78.7 0 78.7 0z"/>
	<path id="Layer" class="s4" d="m325.7 879h3.5v175.6h-3.5z"/>
	<path id="Layer" class="s4" d="m129.3 890.4h199v1.9h-199z"/>
	<path id="Layer" class="s25" d="m859 34.2c0 0 25.8 16.7 89.6 14.4 0 0-68.3 25.8-95 29.8l-11-43.4z"/>
	<path id="Layer" class="s11" d="m871.2 56q-1.6 3.2-3.5 6.3-1.9 3-4.1 5.9-2.2 2.8-4.7 5.3-2.6 2.6-5.3 4.9l-5.8-22.6 0.4-11z"/>
	<path id="Layer" class="s7" d="m772.9 9.4c0 0 74.7-5 86.3-0.8l12 47.4c0 0-42.5-3.6-83.9 10.2z"/>
	<path id="Layer" class="s3" d="m727.9 537.7c0 0-3.5 5.9-3.2 7.6 0.3 1.8 4.6 20.2 7 21.4 2.3 1.2 8.4 1 7 3.4-1 1.8-11.8 4.2-19 5.6-2.1 0.4-8.8-15.5-10.3-17.7-2.1-3.2-7-10.4-6.5-13.2 0.2-1.3 2.1-4.4 5.1-7.6 3.1-3.4 5.3-9.7 5.3-9.7z"/>
	<path id="Layer" class="s6" d="m796.9 531.5c0 0-1.7 5-0.5 8.4q0.3 0.6 0.7 1.2 0.3 0.6 0.8 1.1 0.5 0.5 1.1 0.9 0.6 0.4 1.2 0.7c7.4 1.2-19 20.7-20.7 14.2-0.4-1.8-0.4-6.8-0.5-8.8 0 0 1.2-13.2 1.2-13.2z"/>
	<path id="Layer" class="s9" d="m769.5 299.5c0 0 7.6 21.1 7.7 21.4 8.8 35 33.1 101.7 33.5 108.6 0.8 16.9-13.1 107.6-13.1 107.6l-19.3 2.5-0.4-104.3-19-37.2-32.5-74.8z"/>
	<path id="Layer" class="s16" d="m763.6 304.2l7.3 23.8-8.7 117.6-36.9 99.5c-8 0.3-16.2-10.5-16.2-10.5l15.7-91.7-11.7-86.9-1.7-21.4z"/>
	<path id="Layer" class="s4" d="m708.2 537c0 0 18.9 28.2 23.6 28.6 1.2 0.1 7-0.3 8.6 1.9q0.2 0.5 0.4 1 0.3 0.4 0.5 0.9 0.1 0.5 0.3 1 0.2 0.5 0.3 1l-23.6 6.8c0 0-6.4-14.6-9.1-20.3 0 0-9.8-13.2-9.4-14.7 0.3-1.5 8.4-6.2 8.4-6.2z"/>
	<path id="Layer" class="s4" d="m778.3 561.4l0.8-12.3c0 0 7.8 1.2 11.2-0.2 3.4-1.4 9.8-5.2 9.8-5.2 15.4 1.1 27.5 0.4 26.4 4.7z"/>
	<path id="Layer" class="s3" d="m817.2 226c0.3-1.5 1.9-11.1 3.2-14.5 0.4-1.2 0.8-5.1 1.8-4.8 1 0.3 2.9 1.9 2.6 2.7-0.3 0.8-0.5 1.8-0.8 2.6q0 0.2-0.1 0.4 0 0.2 0 0.4-0.1 0.2-0.1 0.4 0 0.2 0 0.4 0 0.3 0 0.7 0.1 0.3 0.2 0.6 0.2 0.3 0.4 0.6 0.2 0.3 0.5 0.5l9.3 10.2c-2.7 2-7 8.4-9 9.9l-10.2-7.8z"/>
	<path id="Layer" class="s4" d="m773.4 285.1c-3.4 1.6-21.2-5.3-32.8-19.7q-3.2-4-6.3-8.1-3.1-4.2-6-8.4-3-4.2-5.8-8.6-2.8-4.3-5.4-8.7c19-14.7 54 26.7 54 26.7l45.2-31.2c3 3.2 7.1 4.9 10 8-1.1 1.2-49 48.2-52.9 50z"/>
	<path id="Layer" class="s15" d="m626.9 122q-0.2-1.1-0.3-2.3 0-1.1-0.1-2.3 0-1.1 0.1-2.3 0.1-1.1 0.2-2.3c0.4-4.3 2 0.1 2 0.1 0 0 0.5 8.2 1.2 8.1 0.5-0.1-0.1-4.6 0.4-9.4 0.1-1.2 0.3-2.4 0.4-3.5 0.3-3 2.2-3.5 2.4-0.4q0 0.6 0 1.1 0 0.5 0 1.1 0 0.5 0 1 0 0.6-0.1 1.1 0 0.5 0 1 0 0.5 0 1 0.1 0.5 0.1 1 0 0.5 0.1 1 0 0.5 0 1 0 0.5 0 1.1 0.1 0.5 0.1 1 0.1 0.5 0.1 1c0.1-0.1 0.5 0.4 0.7-0.9 0.2-1.5-0.1-5 0.4-7.3 0.2-1.2 0.7-4 0.7-4 0 0 1.4-4 1.6-4 1.5 0.1 1.3 3.1 0.7 4.8q0 0.5 0 1.1 0 0.5-0.1 1 0 0.5-0.1 1.1 0 0.5-0.1 1c0 0 0.2 6.1 1.1 6.1 0.4 0 0.7-3.8 1.5-7.3 0.8-3.4 2.2-6.6 2.9-6.5 1.1 0.1 0.7 4 0.7 4 0 0-0.5 2.5-0.6 3.5-0.1 1-0.2 4.2-0.2 4.2 0 0 0.4 11.1 1.2 11 0.9-0.1 2.7-1.1 2.9-1.7 0.2-0.7 0-2.2 0.2-2.9q0.1-0.3 0.3-0.5 0.2-0.3 0.5-0.4 0.3-0.2 0.6-0.2 0.3-0.1 0.6 0c0.9 0.2 1.1 3.6 1.1 4q0 0.6 0 1.2 0 0.7-0.1 1.3-0.2 0.6-0.3 1.2-0.2 0.6-0.4 1.2c-3.4 6.3-4.4 5.5-4.8 6.3-0.5 1 1.5 15.8 1.5 15.8l-12.8 7c-0.4-9.1-0.8-16.6-0.9-18.4 0-0.1-2.6-6.3-4.1-10.3-1.5-4-1.1-8.4-1.3-9.5z"/>
	<path id="Layer" class="s7" d="m730.5 172.6c7.4 4.5 5.1 14 5.1 14 5.4 5.2 0.6 10.7 0.6 10.7 4.3 10-5.3 15.7-5.3 15.7 0 0-8.9 2.5-12.6 1.6-3.6-0.9-7.1 2.5-10.2 3.2-3.1 0.6-4.4-2.6-4.4-2.6 0 0-3.6 1.3-6.5-0.2-2.8-1.5-3.9-7.5-4.4-7.6q-0.7-0.1-1.4-0.4-0.7-0.3-1.3-0.8-0.6-0.5-1-1.1-0.4-0.7-0.7-1.4c-1.5-4.2 1-5.6 0.5-6.1q-0.7-0.8-1.2-1.7-0.5-0.9-0.9-1.8-0.3-1-0.5-2-0.2-1-0.2-2c0-4.8 4-4.5 4-4.5 0.5-11.6 8.1-9.6 8.4-10.3q0.5-0.9 1.2-1.6 0.8-0.7 1.8-1.1 0.9-0.4 2-0.4 1 0 2 0.4c4.4-9.3 12.1-3 12.1-3 0 0 5.5-1.6 12.9 3z"/>
	<path id="Layer" class="s0" d="m754.4 272.4c4.6 13.9 24.6 58 24.6 58 0 0-17.9 11.5-34.7 15-16.1 3.5-38.8 1.2-38.8 1.2 0 0-2.9-4-2.7-28.2 0.3-24.2 3.6-88.9 5.3-89.2 1.7-0.2 15.6-2.2 15.6-2.2l15.6 8c0 0 10.4 23.4 15.1 37.4z"/>
	<path id="Layer" class="s4" d="m729 349.6c-1.4 3.1-30 6-38 2.3-1.3-1.1 0.7-40.4-0.2-68.8-0.5-17-9.5-39.3-9.5-39.3 0 0-39.7-38.2-43.4-47.2-3.2-7.7-11.1-54.5-9.6-54.5 4.6-0.1 16.1-0.6 16.7 1 0.7 1.6 12.4 44.9 12.4 44.9l51.3 41c0 0 36.4 86 20.3 120.6z"/>
	<path id="Layer" class="s6" d="m722.3 218.5l2.4 9c0 0 4.3 12.9 1.1 15.9-3.3 2.9-17.1-14.3-17.1-14.3l-1.6-23.4z"/>
	<path id="Layer" class="s7" d="m707.1 205.7l15.2 12.8 2 7.7c-5.2-1.3-12.7-5.3-16.6-12.9z"/>
	<path id="Layer" class="s7" d="m690 185.3c2.5-0.3 4.9 2.3 5.3 5.9 0.4 3.5-1.2 6.6-3.7 6.9-2.5 0.3-4.8-2.3-5.3-5.8-0.4-3.6 1.3-6.7 3.7-7z"/>
	<path id="Layer" class="s7" d="m703.1 172.6c3-0.4 5.7 0.9 5.9 3 0.3 2-2 3.9-5 4.3-3 0.4-5.6-1-5.9-3-0.2-2 2-4 5-4.3z"/>
	<path id="Layer" class="s6" d="m712.4 180.4c1.6-0.8 3.4-1.2 5.2-1.2 1.8 0 3.6 0.3 5.2 1.1 1.7 0.7 3.1 1.8 4.3 3.2 1.2 1.4 2 3 2.5 4.7q0.4 1.4 0.7 2.9 0.4 1.4 0.7 2.9 0.3 1.4 0.6 2.9 0.2 1.4 0.4 2.9c1.5 10.7-2.8 21.8-7.6 22.3-4.9 0.6-19.1-4.7-21.4-19.8-1.5-9.3 2.2-18.4 9.4-21.9z"/>
	<path id="Layer" class="s6" d="m706.7 203.1c0.3 2.3-1 4.4-3 4.7-2 0.2-3.8-1.5-4-3.9-0.3-2.3 1-4.4 3-4.7 2-0.2 3.7 1.5 4 3.9z"/>
	<path id="Layer" class="s7" d="m732.8 172.5c5.5 3.4 8 9.2 5.6 13-2.5 3.8-8.9 4.2-14.4 0.8-5.5-3.3-8-9.1-5.5-13 2.4-3.8 8.8-4.1 14.3-0.8z"/>
	<path id="Layer" class="s7" d="m720.1 177.4c0.2 1.7-1.7 3.3-4.3 3.7-2.6 0.3-4.8-0.9-5-2.6-0.2-1.7 1.7-3.4 4.3-3.7 2.6-0.3 4.8 0.8 5 2.6z"/>
	<path id="Layer" class="s7" d="m735.5 189c0.2 1.6-0.6 3.2-2 3.9-1.4 0.8-3.2 0.7-4.4-0.3-1.3-1-1.8-2.7-1.4-4.3 0.5-1.5 1.8-2.6 3.4-2.8q0.8-0.1 1.6 0.1 0.7 0.2 1.4 0.7 0.6 0.5 1 1.2 0.4 0.7 0.4 1.5z"/>
	<path id="Layer" class="s4" d="m752.4 244.6c0 0 21.7 51.3 29.4 69.4 0.8 2 5 14.7 5.2 16 0.3 2.8-11.6 7.9-13 7.9-1.3 0-18.8-54.2-29-80.6q-1.3-3.3-2.9-6.5-1.6-3.2-3.4-6.3-1.9-3-4.1-5.9-2.1-2.8-4.5-5.5l-4.9-4.1-0.5-1.5c0 0 22 2 27.7 17.1z"/>
	<path id="Layer" class="s4" d="m768.7 1l3.9-1 88.5 349.4-3.9 1z"/>
	<path id="Layer" class="s6" d="m832.1 228.4c-1.4 0.5-3.7 0.6-4.4-0.9-0.5-1.2-2.8-3.7-4.7-6-2.1-2.9 3.2-8.7 4.3-10.6 0.2-0.3 0.7-0.3 1.4 0q0.2 0.1 0.4 0.2 0.2 0.2 0.5 0.4 0.2 0.2 0.3 0.4 0.2 0.2 0.4 0.4 0.1 0.2 0.3 0.4 0.1 0.2 0.3 0.4 0.2 0.2 0.4 0.4 0.2 0.2 0.4 0.4 0.2 0.1 0.4 0.2 0.2 0.2 0.3 0.3 0.2 0.2 0.4 0.4 0.1 0.2 0.2 0.3 0.1 0.1 0.1 0.2 0.1 0 0.1 0.1 0.1 0.1 0.1 0.2 0 0 0.1 0.1 0 0.2 0.1 0.4 0 0.2 0.1 0.4 0.1 0.1 0.2 0.3 0.1 0.2 0.2 0.3 0.3 0.3 0.5 0.5 0.2 0.3 0.3 0.5 0.2 0.3 0.3 0.6 0.2 0.3 0.3 0.6 0.1 0.3 0.2 0.6 0.1 0.3 0.2 0.5 0.1 0.3 0.2 0.6 0 0.3 0.1 0.6c0.7 4-1.3 5.7-4 6.8z"/>
	<path id="Layer" class="s10" d="m0.9 1053.2h1136.6v4h-1136.6z"/>
	<path id="Layer" class="s7" d="m756.5 153.9q0.1-0.2 0.2-0.3 0.2-0.1 0.4-0.2 0.1 0 0.3 0.1 0.2 0 0.3 0.2 0.9 0.8 1.8 1.7c1.2 1.3 1.2 1.4 1.4 1.3 0.5 0 0.5-0.8 0.5-1.1q-0.1-0.3-0.1-0.5-0.1-0.3-0.1-0.5 0-0.3 0-0.5 0-0.3 0-0.5 0-0.5 0.2-0.9 0.2-0.3 0.6-0.5 0.4-0.2 0.9-0.1 0.4 0.1 0.7 0.4c1 0.8 2 1.6 2.9 2.5 0.1-1.4 0.1-2.9 0.2-4.3q0-0.2 0.1-0.3 0.1-0.2 0.2-0.3 0.2 0 0.4 0 0.2 0 0.3 0.2l4.3 3.4c0.3 0.2 1.2 1.1 1.5 0.9 0.2-0.2 0.2-1.1 0.2-1.4 0.1-1.2 0.2-1.6 0.7-5.6q0.1-0.2 0.2-0.3 0.1-0.1 0.3-0.2 0.2 0 0.3 0 0.2 0.1 0.3 0.2c3.1 3.6 3.5 3.3 3.8 4.4q0.1 0 0 0.1 0 0.1 0 0.2-0.1 0-0.2 0-0.1 0.1-0.1 0c-0.6 0-0.8-0.1-2.3-1.5q-0.6-0.6-1.1-1.2c-0.6 4.8-0.6 6.1-1.8 6.4-0.9 0.3-1 0-5.9-3.9 0 1.5-0.1 3-0.2 4.5q0 0.2-0.1 0.4-0.1 0.2-0.3 0.2-0.1 0.1-0.3 0.1-0.2-0.1-0.3-0.2c-3.6-2.9-3.6-3.1-3.9-3.3 0 0 0-0.2-0.1 0.1-0.1 0.7 0.5 2 0 3.2q-0.1 0.4-0.4 0.7-0.2 0.3-0.6 0.5-0.4 0.2-0.8 0.2-0.4 0-0.8-0.1c-0.6-0.3-0.8-0.6-2.6-2.5q-0.3 0.5-0.5 0.9-0.2 0.5-0.5 0.9-0.3 0.4-0.6 0.8-0.3 0.4-0.6 0.8-0.1 0.1-0.2 0.3-0.2 0.1-0.3 0.2-0.2 0.2-0.4 0.2-0.1 0.1-0.3 0.2-0.2 0-0.4 0-0.2 0-0.3-0.2-0.1-0.1-0.2-0.3 0-0.1 0-0.3c0.5-1.4 1.7-1.7 3.3-5.2z"/>
	<path id="Layer" class="s26" d="m740.3 136.1q0.5 0.1 1 0.2 0.5 0 1 0.1 0.5 0 1 0 0.5 0.1 1 0.1c0.2 0 0.7 0 0.9-0.2 0.4-0.7-0.7-1.7-1.1-4.2-0.3-1-0.8-3.2 0.7-3.7q0.3 0 0.6 0 0.3-0.1 0.6-0.1 0.3 0 0.6 0.1 0.3 0 0.6 0h1.7c-1-4-1.2-3.8-0.8-4.7q0-0.1 0.1-0.1 0.1-0.1 0.2-0.1 0.1-0.1 0.2 0 0.1 0 0.2 0c0.8 0.5 0.6 0.4 1.9 5.5q0.1 0.2 0 0.4 0 0.1-0.1 0.3-0.1 0.1-0.3 0.2-0.1 0.1-0.3 0.1c-0.8 0-4.4-0.3-4.8-0.3 0 0.1 0 0.3 0 0.3q0 0.6 0.1 1.2 0.1 0.6 0.3 1.2 0.1 0.6 0.3 1.1 0.2 0.6 0.5 1.1c0.5 1.3 0.4 3-1.2 3.4q-0.5 0-1 0-0.5 0.1-1 0-0.5 0-1 0-0.5-0.1-1-0.1 1.1 3.7 2.2 7.3c0.1 0.5-0.2 1.2-0.8 1.2q-2.4-0.2-4.8-0.4 0.2 0.6 0.4 1.1 0.2 0.6 0.5 1.1 0.2 0.5 0.5 1 0.3 0.5 0.6 0.9c0.7 0.9-0.6 2-2.1-0.4q-0.3-0.5-0.6-1-0.2-0.5-0.5-1.1-0.2-0.5-0.4-1.1-0.2-0.5-0.3-1.1 0-0.2 0-0.4 0-0.2 0.1-0.4 0.2-0.1 0.3-0.2 0.2-0.1 0.4-0.1c1.6 0 3.2 0.1 4.7 0.2q-1-3.7-2-7.4 0-0.2 0-0.3 0.1-0.2 0.2-0.4 0.1-0.1 0.3-0.2 0.2-0.1 0.4-0.1z"/>
	<path id="Layer" class="s27" d="m703.4 122.4q-0.2 0-0.3 0-0.2-0.1-0.3-0.2-0.1-0.1-0.2-0.2 0-0.2 0-0.3-0.2-0.8-0.3-1.7 0-0.8 0-1.6 0-0.8 0-1.6 0.1-0.8 0.3-1.6c0.2-1.1 1.8-0.7 1.7 0.4q-0.1 0.6-0.2 1.3-0.1 0.7-0.1 1.3 0 0.7 0 1.3 0 0.7 0 1.4 0.5-0.1 1-0.1 0.5 0 0.9-0.1 0.5 0 1-0.1 0.5-0.1 0.9-0.2 0.2-0.1 0.4-0.1 0.2 0.1 0.3 0.2 0.2 0.1 0.3 0.3 0.1 0.1 0.1 0.3c-0.1 1.4-0.6 6.7-0.6 6.7q0 0 0 0 0 0 0 0 0.1 0 0.1 0 0 0 0 0c0.6 0.1 2.5-0.2 3.3-0.2 0.8 0.1 1.3 1.4 1.3 2.1 0.1 1.6-1.1 3.4-0.5 5 0.5 1.5 2.9-0.2 4.6 1 1.4 1 0.9 2.6 0.4 5.1q0 0.2-0.1 0.4-0.1 0.3-0.2 0.5-0.1 0.2-0.3 0.3-0.1 0.2-0.3 0.3-0.1 0-0.1 0.1-0.1 0-0.2 0 0 0-0.1-0.1-0.1 0-0.1 0c-0.7-0.8-0.3-1.7 0.1-4 0.1-0.3 0.3-0.8 0-1-0.7-0.9-2.7 0.3-4.3-0.7-1.2-0.8-1.4-2.4-1.2-3.8 0.2-1.1 0.8-2.4 0.5-3.5-1 0.1-1.9 0.2-2.8 0.1q-0.3 0.1-0.6 0-0.3-0.2-0.6-0.4-0.2-0.2-0.4-0.5-0.1-0.3-0.1-0.6 0-0.5 0-0.9 0-0.4 0.1-0.9 0-0.4 0-0.8 0.1-0.4 0.1-0.9l0.2-2.2q-0.5 0-0.9 0.1-0.5 0.1-1 0.1-0.4 0-0.9 0-0.5 0-0.9 0z"/>
	<path id="Layer" class="s9" d="m769.3 177.7c3.8 4.8 0.2 7.2-1.4 5.8q-0.2-0.2-0.4-0.5-0.1-0.3-0.1-0.6 0-0.3 0.2-0.6 0.2-0.3 0.4-0.5 0.2-0.1 0.3-0.1 0.2 0 0.3 0.1 0.1 0.1 0.2 0.3 0.1 0.1 0 0.3c-0.1 0.4 0.3 0.5 0.5 0.1 0.2-0.4-0.2-1.2-0.4-1.7-0.5-1.1-1.2-2.5-2.6-2.7-2-0.3-4.1 1.7-3 4.7 1.6 4.4 8.7 4.4 10-0.2q0.2-1 0.2-1.9-0.1-1-0.4-1.9-0.3-0.9-0.8-1.7-0.6-0.8-1.3-1.3c-0.4-0.3 0-0.9 0.4-0.7 3 1.3 4.2 5.2 3 8.2q-0.4 1.1-1.2 1.9-0.8 0.9-1.8 1.4-1 0.6-2.1 0.8-1.2 0.1-2.3-0.1-1.2-0.2-2.3-0.8-1.1-0.6-1.8-1.5-0.8-1-1.1-2.1-0.4-1.2-0.3-2.4c0.5-3.8 5.1-5.8 7.8-2.3z"/>
	<path id="Layer" class="s0" d="m690.8 136.9c0.5 0.8 0.8 2.4-0.3 2.9q-0.2 0.1-0.4 0.2-0.2 0-0.3-0.1-0.2-0.1-0.4-0.2-0.1-0.2-0.2-0.4c-0.1-0.5 0.2-1.1-0.3-1.5q-0.2-0.1-0.4-0.1-0.2-0.1-0.4-0.1-0.2 0-0.4 0.1-0.2 0.1-0.3 0.3c-1.2 1-0.9 3.2-0.3 4.4q0.4 0.8 1 1.2 0.7 0.5 1.5 0.5 0.8 0.1 1.6-0.3 0.7-0.4 1.1-1.1 0.2-0.2 0.3-0.5 0.1-0.2 0.2-0.5 0.1-0.3 0.2-0.6 0-0.2 0.1-0.5c0.1-0.4 0.7-0.6 1-0.2 0.8 1.7-0.4 3.8-1.8 4.7q-0.6 0.4-1.3 0.6-0.6 0.2-1.3 0.2-0.7 0-1.3-0.2-0.7-0.3-1.3-0.6-0.6-0.5-1-1.1-0.5-0.6-0.8-1.3-0.4-0.7-0.5-1.4-0.1-0.8-0.1-1.5c0.1-4.1 4.4-5.5 6.1-2.9z"/>
	<path id="Layer" class="s8" d="m505.8 703.3c0 0 1.7 3.3-2.7 5.4q-0.6 0.4-1.4 0.6-0.7 0.1-1.5-0.1-0.7-0.1-1.4-0.6-0.6-0.4-1-1z"/>
	<path id="Layer" class="s8" d="m727.8 209.8c0 0 0.2 3.7-4.7 3.7q-0.8 0.1-1.5-0.1-0.8-0.2-1.4-0.7-0.6-0.5-1-1.1-0.4-0.7-0.5-1.4z"/>
</svg>