<svg version="1.2" xmlns="http://www.w3.org/2000/svg" viewBox="0 0 889 888" width="889" height="888">
	<title>i1-svg</title>
	<style>
		.s0 { fill: #ffffff } 
	</style>
	<path id="Layer" fill-rule="evenodd" class="s0" d="m472.4 887.5h-55.5q-0.9-0.2-1.9-0.4-0.9-0.2-1.9-0.4-0.9-0.2-1.9-0.4-0.9-0.1-1.9-0.2c-71.2-5.5-137.5-26.8-197.8-64.9-24.3-15.4-46.8-33.6-70.6-50.9 0.6-0.4-0.1 0-0.7 0.6-19.4 19.2-41.8 24.8-63.8 15-23.6-10.6-34.2-29.6-34-55.3 0.2-30.9 0.1-61.8-0.1-92.7q0-1.6-0.2-3.2-0.2-1.6-0.5-3.2-0.3-1.5-0.8-3.1-0.5-1.5-1.2-3c-42-95.1-49.5-193-24.8-293.7 1.1-4.4 0.4-9.5-0.6-14-3.7-16.9-10.5-33.5-11.3-50.4-2-43.6-1.8-87.2-1.9-130.8 0-17.8 13-33.2 30.2-38 14.5-4.1 27.3-0.2 39 8.6 18.5-13.7 37-13.6 55.1-0.3 16.8-9.8 16.8-9.7 37.8-8.8 2.4 0 5.3-1.8 7.4-3.4 96.7-74 205.5-105.1 326.5-91.5 87.2 9.9 164.4 43.9 231.9 99.9 4.1 3.4 7 4 12 1.8 27.8-12.1 55.2-10.6 81.5 4.2 29.3 16.3 46.9 42.2 57.2 73.3 3.9 11.7 5.9 24 8.8 36v34.6c-6.1 19.6-12.4 39.3-18.3 59-0.6 2.2 0.1 5 0.6 7.4 3.8 17.2 8.3 34.2 11.4 51.5 2.8 15.5 4.2 31.2 6.3 46.8v52q-0.3 1-0.5 1.9-0.2 1-0.4 1.9-0.1 0.9-0.3 1.9-0.1 0.9-0.3 1.9c-4.6 62.2-22 120.7-50.8 175.8q-0.8 1.5-1.3 3-0.6 1.4-0.9 3-0.4 1.5-0.6 3.1-0.2 1.6-0.2 3.2c-0.3 23.7 0.2 47.4-0.3 71.1-0.7 35-33.4 60.5-67.4 52.3-9.1-2.2-17.6-7.4-27.4-11.7-1.3 0.9-2.5 1.9-3.6 2.9-62.8 53.5-134.5 87.7-215.9 101.3-15.3 2.5-30.8 4.2-46.1 6.3zm265.6-110.5q0.2-0.2 0.4-0.4 0 0 0 0-0.1 0.1-0.7 0.2 0.1 0.1 0.3 0.2zm-2.2-320.1c0-22.8 0.5-44.7-0.3-66.6-0.3-8.8-3.5-17.5-5.7-26.1q-0.3-0.9-0.8-1.8-0.4-0.8-0.9-1.6-0.6-0.8-1.3-1.5-0.7-0.7-1.4-1.2c-32.9-23-49-55.8-56.7-93.9-1-5.1-3.3-10.6-6.7-14.3-68.5-73.9-153.3-107.1-253.2-95-162.3 19.5-275.1 168.2-252.3 329.5 19.5 138.1 134.5 245.1 273.4 249.7 122.6 4.1 214.2-50.2 273.8-157.6 12.9-23.2 21.9-47.6 18.5-75.1-1-8.3 0.1-16.8-0.3-25.1-0.5-10.1 3-16.9 13.9-19.4zm-581.7 119.5q-0.1 0.3-0.2 0.7-0.1 0.4-0.2 0.7-0.1 0.4-0.1 0.8-0.1 0.3-0.2 0.7c0 52.3-0.1 104.6 0.2 156.8 0 3.2 2.3 7 4.7 9.3 75.7 70.9 165.5 109.6 269.1 113.8 107.4 4.4 202.7-29 285.7-97.5 7.3-6 13.3-11.5 9.2-22.2-1.1-3-0.3-6.9-0.3-10.4q0-58 0-116.1c0-2.7-0.2-5.4-0.4-9.2-131.1 222.9-457 207.7-567.5-27.4zm40.9-331.9c61.1-72.5 137-113.3 229.8-119.1 93.2-5.9 173.8 25.5 242.8 89.4 5-35.6 18.6-65.8 43.2-90.5-161.5-136.4-389.9-118.5-519.7-9.3 1.4 11.4 3.5 21.5 3.7 31.7 0.6 22.2 0.2 44.5 0.2 66.7zm596.3 212.8c0-20.6 0.2-40.5-0.1-60.3-0.2-15.9 2.5-31.2 9.5-45.4 3.1-6.3 8.8-11.6 13.9-16.8 6.4-6.6 14.2-11.9 20-19 34.6-43.1 34.7-116.6 0.6-160.1-33.2-42.3-85.4-41.5-116.9 2.3-22.8 31.7-28.3 67.5-21.1 105.5 5.4 28.4 17.8 53.2 42.1 70.1 8.1 5.6 13.5 12.3 16.5 21.2 2.5 7.4 5.7 14.9 6 22.5 1.3 23.3 1.3 46.6 1.8 70 0.1 3.3 0 6.6 0 10zm-735-222.1c0-31.5 0-62.1 0-92.7 0-11.5-5.3-18-14.2-17.9-8.6 0.2-13.5 6.5-13.5 17.6 0 32.1-0.4 64.1 0.1 96.2q0.1 5.2 0.4 10.4 0.2 5.2 0.6 10.4 0.5 5.1 1.1 10.3 0.6 5.1 1.4 10.3c3.1 20 8.9 39.8 26 52.1 13 9.3 18.9 21.5 22.1 35.7q0.8 3.8 1.5 7.6 0.6 3.8 1.1 7.7 0.4 3.9 0.7 7.7 0.3 3.9 0.3 7.8c0.6 19.5 0.2 39 0.2 58.4h27.6c0-22-0.9-43.5 0.3-64.8 1.3-23.5 4.7-46.5 27.2-61.3q2.2-1.5 4-3.3 1.9-1.8 3.5-3.9 1.6-2 2.9-4.3 1.2-2.3 2.2-4.7c5.4-15.3 12.3-31.1 13.1-47 2.4-41.8 1.8-83.7 2.3-125.6 0.1-10.9-5.2-17.3-13.8-17.3-8.7 0-13.8 6.4-13.9 17.3q0 42 0 84.1v9.1h-27.7c0-28 0-65.7 0-93.8 0-10.3-5.2-16.5-13.6-16.7-8.6-0.1-14.1 6.2-14.1 17q-0.1 42 0 84.1v9.5zm14.6 250.5q-0.1 0.3-0.2 0.6-0.1 0.4-0.2 0.7-0.1 0.4-0.2 0.7 0 0.4-0.1 0.7c0 82.3-0.1 164.7 0.2 247 0 5.4 2.5 11.4 5.6 16 6.7 10.1 19.3 13.6 30.6 9.8 12-4 19-14.2 19-28q0.1-120.9 0-241.8 0-0.7-0.1-1.4 0-0.7-0.1-1.5-0.1-0.7-0.2-1.4-0.1-0.7-0.2-1.4zm734.3 0h-55.5c0 79.5 0 166.9 0 246.3q0 0.8 0 1.5 0 0.8 0 1.6 0 0.7 0.1 1.5 0 0.7 0.1 1.5c0.4 3.1 1.3 6.1 2.6 8.9 1.4 2.7 3.2 5.3 5.4 7.5 2.2 2.2 4.8 4 7.6 5.4 2.7 1.3 5.7 2.2 8.8 2.6 12.3 1.4 24.8-5.9 28.8-17.6q0.6-1.7 1-3.5 0.4-1.8 0.6-3.6 0.3-1.8 0.4-3.7 0.1-1.8 0-3.6 0.2-117.9 0.1-235.7zm27.8 104.9c29.4-60.1 37.1-202 14.8-245.8-18.5 8.8-28.2 23.8-28.5 44.4-0.2 22.5 0 45 0 67.4 12 5 13.7 7.4 13.7 20.1 0 37.2 0 74.4 0 113.9zm-790.6-45.6c0-22.2 0.3-44.3-0.1-66.4-0.2-10.8 1.5-19.6 14-21.6 0-9.9 0.2-18.8 0-27.7-0.5-17-0.4-34.1-2.1-51-1-9.7-3.2-20.3-15.7-24.6-14 64.1-13.3 127.8 3.9 191.3z"/>
	<path id="Layer" fill-rule="evenodd" class="s0" d="m508.5 596.6c-21.5 0.1-40.7-6.8-58.3-19-3.3-2.2-8.6-3.6-12.4-2.7-15.1 3.8-30.1 8-44.7 13.1q-5.6 1.9-10.8 4.5-5.3 2.6-10.2 5.8-4.9 3.1-9.4 6.9-4.5 3.7-8.5 8c-10.5 11.1-21.5 21.8-32.4 32.5-8.3 8.2-15 8.3-23.2 0.1q-28.3-28-56.4-56.3c-7.8-7.9-7.7-14.6 0-22.6 7.7-8 15-16.1 23.4-23.2 23.7-20.1 36.4-46.5 43.9-75.9 0.9-3.6 1.7-7.3 2.9-10.8 2.9-8.5 1.1-15.2-4.1-23-20.8-31.3-23.2-65-6.3-98.6 17.3-34.4 46.5-51.8 84.7-54 5.6-0.3 8.6-1.8 11.6-6.6 6.2-9.9 14.4-18.5 24.1-25 9.8-6.5 20.8-11 32.3-13 11.6-2 23.4-1.5 34.8 1.3 11.3 2.9 22 8.2 31.2 15.4 4.2 3.3 7.6 4.4 13.2 3.4 13.3-2.4 27-1.5 39.9 2.5 13 4.1 24.7 11.2 34.3 20.8 9.6 9.6 16.7 21.3 20.8 34.3 4 12.9 4.8 26.6 2.4 40-0.9 5-0.3 8.4 2.9 12.5 31.3 39.6 21.7 96.1-20.8 123.1-4.4 2.7-6.3 5.5-6.5 10.8-2.5 55.1-44.5 95.7-98.4 95.7zm-4.7-27.6c47.2 0 79.6-36.2 74.8-78.1-1.3-11.6 0.7-15 11.8-20 38.2-17.2 46.5-64.9 16-93.1-5.9-5.5-7.3-11.2-4.9-18.6 7.3-22.2 3.6-42.5-12.9-59.2-16.9-16.9-37.3-20.6-59.9-13.1-6.6 2.2-12.2 1.2-17.3-4.1-30.7-31.8-76.4-24-94.4 16-4.4 9.7-8.4 12-19 10.9-35-3.7-66.7 17.4-76 50.6-2.3 8-3.1 16.3-2.5 24.6 0.7 8.3 2.8 16.4 6.3 24 3.5 7.5 8.3 14.4 14.2 20.2 6 5.9 12.9 10.7 20.5 14.1 8.7 4 12.6 9.5 13 19.1 0.2 6.8 1.8 13.5 4.5 19.7 2.7 6.2 6.6 11.9 11.4 16.7 4.7 4.8 10.4 8.7 16.6 11.5 6.2 2.7 12.9 4.3 19.7 4.6 9.5 0.4 15.1 4 19.2 12.8 12.6 26.9 34.4 40.2 58.9 41.4zm-162.5-105.2h-2.8c-7.7 47.1-31.7 84.4-67.9 112.8l41.3 41.2c28.1-36.7 65.8-59.9 112.5-69.6-2.7-3.1-5.2-5.4-8.1-6-38.9-8.2-62.2-31.7-70.3-70.6-0.5-2.8-3.1-5.2-4.7-7.8z"/>
</svg>