<svg id="Layer_1" data-name="Layer 1" xmlns="http://www.w3.org/2000/svg" viewBox="0 0 1920 1080"><defs><style>.cls-1{fill:#939393;}</style></defs><path class="cls-1" d="M908.37,958.51H852.89a68.36,68.36,0,0,0-7.58-1.44c-71.22-5.51-137.47-26.74-197.8-64.89-24.3-15.36-46.79-33.57-70.61-50.85.64-.46-.13-.05-.72.54-19.35,19.2-41.82,24.87-63.74,15-23.63-10.59-34.25-29.59-34.06-55.28.23-30.91.15-61.82-.07-92.73a32,32,0,0,0-2.67-12.42c-42.07-95.09-49.52-193-24.8-293.77,1.08-4.38.35-9.5-.64-14-3.67-16.84-10.45-33.46-11.25-50.39-2.06-43.53-1.86-87.17-1.92-130.77,0-17.84,13-33.18,30.15-38,14.5-4.11,27.28-.2,39,8.55,18.57-13.69,37-13.58,55.15-.26,16.74-9.81,16.74-9.68,37.74-8.84,2.44.09,5.29-1.73,7.42-3.36C703.16,91.55,812,60.49,933,74.13,1020.21,84,1097.41,118,1164.9,174c4.12,3.42,7,4,12,1.81,27.75-12.08,55.2-10.62,81.54,4.16,29.21,16.38,46.9,42.22,57.19,73.36,3.85,11.66,5.89,23.93,8.75,35.93V323.9c-6.13,19.64-12.34,39.27-18.26,59-.67,2.23.06,5,.6,7.45,3.78,17.14,8.23,34.16,11.37,51.42,2.83,15.49,4.25,31.24,6.29,46.88v52a63.59,63.59,0,0,0-1.45,7.55c-4.58,62.2-22,120.67-50.87,175.84a28,28,0,0,0-3,12.24c-.29,23.69.22,47.4-.27,71.08-.73,35-33.37,60.56-67.37,52.33-9.25-2.24-17.77-7.5-27.74-11.86,1.21-.35.89-.35.68-.19-1.36,1.06-2.72,2.13-4,3.25-62.72,53.46-134.47,87.74-215.88,101.29C939.17,954.72,923.74,956.42,908.37,958.51Zm263.41-430.6c0-22.77.54-44.74-.27-66.66-.33-8.76-3.47-17.46-5.76-26.07a11.87,11.87,0,0,0-4.39-6.1c-32.81-22.93-49-55.74-56.67-93.88-1-5.06-3.29-10.63-6.73-14.34-68.49-73.87-153.24-107.08-253.16-95C682.55,245.38,569.74,394.08,592.49,555.36,612,693.5,727,800.53,865.88,805.13c122.59,4.07,214.22-50.23,273.86-157.6,12.89-23.2,21.85-47.64,18.42-75.15-1-8.25.18-16.75-.24-25.11C1157.4,537.24,1160.88,530.37,1171.78,527.91ZM590.11,647.37a20.12,20.12,0,0,0-.68,2.93c0,52.28-.14,104.57.13,156.85,0,3.14,2.34,7,4.77,9.28C670,887.31,759.83,926,863.36,930.2c107.42,4.35,202.75-29,285.72-97.54,7.29-6,13.35-11.51,9.25-22.18-1.16-3-.32-6.87-.32-10.34q0-58,0-116.12c0-2.69-.25-5.39-.44-9.25C1026.49,897.66,700.59,882.55,590.11,647.37ZM631,315.53C692.07,243,768,202.23,860.82,196.4c93.18-5.86,173.81,25.55,242.82,89.44,4.95-35.66,18.51-65.87,43.17-90.54C985.28,58.87,756.9,76.84,627.09,186c1.41,11.43,3.48,21.54,3.73,31.7.55,22.23.17,44.48.17,66.73Zm596.29,212.79c0-20.64.17-40.5-.06-60.35-.18-15.85,2.44-31.21,9.44-45.32,3.16-6.36,8.81-11.63,13.89-16.85,6.41-6.59,14.26-11.93,20-19,34.66-43.06,34.75-116.61.64-160.06-33.21-42.31-85.41-41.57-116.85,2.23-22.82,31.77-28.37,67.58-21.17,105.51,5.39,28.43,17.82,53.2,42.12,70.09,8.13,5.64,13.53,12.36,16.55,21.25,2.49,7.34,5.65,14.87,6,22.44,1.22,23.31,1.27,46.68,1.75,70,.07,3.31,0,6.63,0,10.05Zm-735-222.08c0-31.54,0-62.14,0-92.74,0-11.52-5.27-18-14.16-17.84-8.6.19-13.54,6.48-13.55,17.56,0,32.07-.35,64.14.15,96.21a298.29,298.29,0,0,0,3.48,41.36c3.11,20,8.84,39.82,26,52.13,12.94,9.29,18.85,21.52,22.11,35.66a157.71,157.71,0,0,1,3.6,30.82c.55,19.51.16,39.05.16,58.42h27.65c0-22.05-.91-43.47.24-64.77,1.28-23.54,4.77-46.55,27.26-61.36a34.48,34.48,0,0,0,12.52-16.18c5.49-15.33,12.31-31.11,13.19-47,2.31-41.77,1.79-83.71,2.27-125.58.13-10.93-5.19-17.27-13.83-17.28s-13.83,6.33-13.85,17.27q-.07,42,0,84.08v9.13H547.78v-9.7c0-28,0-56.05,0-84.08,0-10.31-5.21-16.51-13.56-16.7-8.67-.18-14.1,6.21-14.13,17q-.09,42,0,84.07v9.53Zm14.61,250.42a13.53,13.53,0,0,0-.67,2.76c0,82.32-.15,164.65.19,247,0,5.36,2.49,11.37,5.54,15.94,6.74,10.13,19.35,13.64,30.68,9.8,11.92-4,19-14.19,19-28q.07-120.89,0-241.77a46.81,46.81,0,0,0-.66-5.68Zm734.31,0h-55.48v8q0,119.16,0,238.31a53.2,53.2,0,0,0,.17,6.06,28.24,28.24,0,0,0,24.44,24.46c12.25,1.41,24.76-5.9,28.8-17.63a45.42,45.42,0,0,0,2-14.44q.16-117.84.08-235.7ZM1269,661.59c29.4-60.15,37.12-202,14.77-245.77-18.51,8.8-28.17,23.8-28.43,44.33-.28,22.5-.06,45-.06,67.39,12.06,5,13.71,7.42,13.72,20.11C1269,584.88,1269,622.11,1269,661.59ZM478.43,615.94c0-22.11.31-44.23-.13-66.33-.21-10.85,1.53-19.67,14-21.63,0-9.85.2-18.8,0-27.74-.46-17-.4-34.05-2.09-50.92-1-9.77-3.22-20.31-15.74-24.66C460.47,488.8,461.16,552.47,478.43,615.94Z"/><path class="cls-1" d="M944.46,667.63c-21.51.06-40.67-6.78-58.26-19-3.26-2.27-8.65-3.63-12.39-2.7-15.08,3.73-30.09,8-44.75,13.09a97,97,0,0,0-38.86,25.19c-10.52,11.12-21.51,21.79-32.43,32.51-8.31,8.17-15,8.25-23.18.12q-28.32-28-56.37-56.37c-7.81-7.9-7.7-14.58,0-22.56s15-16.13,23.34-23.2c23.75-20.14,36.4-46.46,43.91-75.87.93-3.63,1.71-7.31,2.92-10.85,2.9-8.5,1.12-15.15-4.1-23-20.8-31.34-23.2-64.95-6.3-98.6,17.26-34.37,46.49-51.83,84.67-54,5.59-.32,8.6-1.81,11.6-6.59a83.48,83.48,0,0,1,122.43-21.29c4.17,3.27,7.65,4.38,13.16,3.41a83.9,83.9,0,0,1,97.48,97.54c-.88,5-.35,8.42,2.86,12.49,31.27,39.61,21.7,96.12-20.83,123.12-4.35,2.77-6.21,5.49-6.46,10.83C1040.36,627,998.42,667.61,944.46,667.63ZM939.78,640c47.21,0,79.64-36.19,74.87-78.1-1.32-11.58.68-15,11.79-20,38.13-17.22,46.41-64.93,16-93.1-5.9-5.46-7.37-11.19-4.94-18.59,7.31-22.23,3.64-42.48-12.94-59.17-16.85-16.95-37.3-20.65-59.87-13.13-6.6,2.19-12.2,1.2-17.3-4.09C916.72,322,871,329.79,853,369.76c-4.36,9.73-8.37,12-18.95,10.93C799,377,767.32,398.06,758,431.27a69.92,69.92,0,0,0,38.45,82.91c8.77,4,12.63,9.54,13,19.13a54.7,54.7,0,0,0,52.25,52.46c9.5.41,15.13,4.08,19.24,12.88C893.5,625.47,915.32,638.79,939.78,640ZM777.33,534.77l-2.85,0c-7.71,47.13-31.67,84.42-67.85,112.81l41.23,41.24c28.17-36.71,65.85-59.94,112.56-69.64-2.73-3.1-5.23-5.41-8.09-6C813.44,605,790.11,581.5,782,542.58,781.46,539.77,778.94,537.36,777.33,534.77Z"/></svg>