<svg version="1.2" xmlns="http://www.w3.org/2000/svg" viewBox="0 0 838 832" width="838" height="832">
	<title>i2-svg</title>
	<style>
		.s0 { fill: #ffffff } 
	</style>
	<path id="Layer" fill-rule="evenodd" class="s0" d="m837.6 419.2c-2.6 17.8-4 35.8-8 53.2-35.4 156.4-130 259.3-282 309.6-10 3.3-20.6 5.1-30.8 8q-1.5 0.3-2.9 0.8-1.4 0.5-2.7 1.2-1.4 0.6-2.7 1.4-1.3 0.8-2.5 1.6c-59.4 47.1-137 49.4-198.8 5.6-1.1-0.8-2.2-1.6-3.8-2.6-3.5 2.9-7 5.9-10.6 8.6-31.3 24-66 31-104 20q-4-1.2-8.1-1.7-4.2-0.6-8.3-0.6-4.2 0-8.3 0.7-4.2 0.6-8.1 1.8c-32 9-62 4.1-90.2-13-8.5-5.1-10.7-11.6-6.6-18.3 3.9-6.4 11-7.5 19.2-2.6 23.5 14.2 48.2 17.7 74.5 9.4 13.1-4.1 26.5-4.6 39.4 0 35 12.7 80.3 1.3 106.9-38.6 33-49.4 32.4-128.8-2.3-177.1-23.1-32.1-54.2-45-93.4-37.7-5.8 1.1-11.7 2.2-18.5 3.4 0.4 6.8 0.8 13.5 1 20.2 0.3 9.6-4.2 15.2-12 15.3-7.6 0.1-11.7-4.6-12.4-14 0-0.6 0-1.1-0.1-1.6-1.4-21.8-1.4-21.8-23.6-23.8-43.9-4.1-77.3 14-96.6 54.4-22.4 47.2-22.1 95.2-2.8 143.4 0.7 1.8 1.7 3.4 2.4 5.2 2.8 7.1 0.6 13.6-5.7 16.6-6.2 3-13.5 0.9-16.2-6.3-5.7-15-12-30-14.9-45.6-8.5-45.5-3.7-89.5 18.4-130.9q0.5-0.9 0.7-2 0.3-1 0.3-2.1 0.1-1 0-2.1-0.1-1.1-0.4-2.1c-16.1-53.3-21.8-107.8-16.2-163.2 6.5-64.1 26.3-122.9 72.1-170.3 8.1-8.4 17.4-15.8 26.6-22.9 3.9-3 4.9-5.8 3.7-10.3q-1.6-6.3-3.8-12.3-2.1-6.1-4.8-11.9-2.8-5.9-6-11.4-3.3-5.6-7.1-10.8c-5.2-7.2-10.6-14.4-15.5-22-6.8-10.4-5.9-21.5 1.8-31 7.9-9.7 19.4-13.2 30.8-8.5 10.5 4.3 20.8 9.4 31.2 14.1 2.4 1 4.9 2 8.1 3.2 1.1-28.3-6.2-53.3-21.8-76-2.2-3.2-4.5-6.2-6.4-9.5-1.2-2-2.1-4.2-2.6-6.4-0.6-2.3-0.7-4.6-0.6-6.9 0.2-2.3 0.8-4.6 1.6-6.7 0.9-2.2 2.1-4.1 3.6-5.9 6.2-7.4 16-10.4 25.2-6.4 33.9 14.6 67.7 29.5 87.1 65.4 18.7-35.6 52.3-50 85.4-64.9 10.2-4.6 20.8-1.8 27.3 6.4 6.4 8.2 6.7 18.9-0.6 28.7-17.1 23-26.4 48.6-26.2 77.4 0 1.4 0.1 2.7 0.3 5.1 11.8-5.4 23.1-10.5 34.4-15.6 14.9-6.7 26.4-4.7 35.3 6.2 9 10.9 8.8 22.5-1 35.9-14 19.1-28 38.2-33.7 62-1.4 5.7-0.2 8.6 4.5 12 35.4 25.7 60.1 59.6 75.3 100.5 3.5 9.5 1.1 16.2-6.6 18.8-7 2.5-12.7-1.2-16.5-10.4-25.9-64.6-72-106.6-140.3-120.9-84.3-17.8-161.7 20.1-201.8 96.6-27.7 53-37.7 110-34.8 169.2 1.3 25.4 6.6 50.6 10.1 75.9 0.3 2.1 1.2 4.1 2.1 6.9 31-29 66.9-40.5 109.4-32.4-7.6-20.5-19.1-36.5-35.6-48.9-1.3-1-2.8-1.8-4.1-2.8-6.4-4.7-7.9-11.1-4.2-17 3.8-6.1 11.5-8.2 17.7-3 10.8 9 22.3 18 30.4 29.2 9.9 13.6 16.7 29.6 25.3 45.4 10.3-1.3 22.4-2.9 34.5-4 18.3-1.8 36 0.5 52.5 8.8 5.8 2.9 7.9-0.9 10.8-3.8q124-124 248-248 85-85 170-170c9.8-9.8 14.9-9.8 24.6 0.2 63.1 65.8 101 143.8 111.9 234.5 1 7.8 2 15.6 3 23.3zm-154.5-257.6q0.2 0.3 0.3 0.5 0.2 0.3 0.4 0.5 0.2 0.2 0.3 0.5 0.2 0.2 0.4 0.5c46.3 51 75.1 110.4 85.2 178.5 2.6 17.8 3.3 35.8 3.7 53.8 0.1 4.1-3.8 9.8-7.5 11.9-2.9 1.7-9.7 0.5-12.2-2-3-2.9-4.2-8.6-4.3-13.2-0.6-43.5-8.9-85.4-26.3-125.4q-5.3-12.2-11.6-23.9-6.3-11.6-13.5-22.8-7.3-11.1-15.5-21.5-8.2-10.4-17.2-20.2-178.9 177.6-357.1 354.5 0.9 1 1.7 2.1c56.3-34.8 114.4-40.2 172.3-6.9 57.6 33.1 84.2 85.2 83.7 151.4 0.6 0 1.2 0.3 1.6 0.1 1.5-0.6 3-1.4 4.5-2q10.5-5.2 20.7-11.1 10.1-5.9 19.8-12.6 9.7-6.7 18.8-14.1 9.1-7.4 17.7-15.4 72.8-68.8 93.7-166.8c1.9-8.9 7.5-12.9 15-11.3 7.4 1.5 11.1 8 8.8 16.4-4.3 16.3-8.1 32.9-14 48.6-34.5 90.8-96.5 155.8-185.2 195.5-2.8 1.2-6.2 3.1-7.3 5.6-6.5 14.9-12.3 30-18.1 44.3 94.7-22.9 214-112.7 255.8-255.5 42.9-146.5-8.9-289.9-87.6-367zm-370.3 404.1c45.5 58.3 44.8 156 6.9 212.7 43 36.8 126.4 44.7 182.6-13.2 53.2-54.9 51.6-141.9-3.9-195.4-56.1-54-140.3-47-185.6-4.1zm3.5-536.7c-4.3 2-8.7 4-13 6.1-34.6 17.6-61.1 41-61.3 83.9 0 6.7-5.1 10.8-12.1 10.8-7-0.1-10.9-4.3-12-11q-0.1-0.8-0.1-1.7-0.1-0.8-0.1-1.6-0.1-0.8-0.1-1.6 0-0.8 0-1.6c-1-15.9-5.8-30.5-15.7-43-15.4-19.4-36.4-30.3-57.4-40 5.8 13.7 14.1 27 17.1 41.5 4.4 21.1 5.4 43 6.8 64.7 1 14.4-8 19.5-21.1 13.3-15.7-7.4-31.5-14.6-47.4-21.9-2.1-1-4.6-1.2-6.9-1.8l-1.8 2.1c17.4 23.3 35 46.6 41.3 76.1 65.2-30.9 129.8-31.2 195.5-0.6 5.7-29.9 24.7-52.2 39.6-77q-1.1-0.1-2.2 0-1 0.1-2.1 0.3-1 0.2-2 0.5-1 0.3-2 0.8c-16.1 7.4-32.1 14.8-48.1 22.2-10.7 4.9-19.5 0.3-19.7-10.8-0.4-38.3 1.6-76 24.8-109.7z"/>
</svg>