<svg version="1.2" xmlns="http://www.w3.org/2000/svg" viewBox="0 0 868 852" width="868" height="852">
	<title>i3-svg</title>
	<style>
		.s0 { fill: #ffffff } 
	</style>
	<path id="Layer" fill-rule="evenodd" class="s0" d="m771.4 530.7q6-17.4 10.1-35.3 4.2-17.9 6.5-36.1 2.4-18.3 2.8-36.7 0.5-18.3-0.9-36.7c-7.2-96-45-178.5-114-246-36-35.3-77.8-61.6-124.6-80.2-3.7-1.5-7.5-2.8-11.2-4.4-10.3-4.4-14.4-12.6-11-21.7 3.4-8.9 12.3-12.7 22.7-8.9 48 17.3 91.7 42.2 129.7 76.3 106.7 95.8 153.2 215.7 139 358.3-2.8 28.2-10.7 55.8-16 82.9 14.2 10.7 29.9 20.8 43.6 33.1 30.7 27.6 24.8 70.1-12 88.9-16.9 8.6-34.5 15.7-52.1 23-11.8 4.8-18.8 12.9-22.3 25.1-5.3 17.8-11.1 35.5-17.1 53.2-12.9 38-54.2 50.7-85.7 25.7-10.8-8.5-20-19-29.4-28-23.7 11-47.1 23.1-71.3 32.9-36.5 14.7-74.7 22.8-114 26q-2.8 0.2-5.6 0.7-2.8 0.5-5.6 1.2-2.8 0.7-5.5 1.7-2.7 0.9-5.3 2.1c-70.2 30.7-140.8 32.5-212 3.7-14.2-5.9-19.1-14.4-14.6-24.5q6.4-14.6 27.2-6c90.3 37.4 193.1 14.8 259.3-57 3.4-3.7 6.6-7.7 10.7-12.4l-29-16.1c-37.2 42.8-84.3 65.9-140.4 70-40.6 3-78-7.4-113.3-27.5-60.8-34.7-117.8-125.5-87.3-229.3l-28.2-15.6c-10.5 30-14.8 59.7-12.5 90.3q6.8 89 70.6 151.5c10 9.8 11.6 18 5.4 25.9-6.5 8.2-17.5 8.1-26.8-0.7-42-40.2-69-88.8-78.3-146.2q-1.1-7.1-2.8-14.1-1.6-7-3.7-13.9-2.1-6.9-4.6-13.7-2.5-6.7-5.4-13.3c-49.5-114.3-48.2-228.5 3-342.2q1-2.4 1.7-5 0.7-2.5 1-5.1 0.4-2.7 0.4-5.3 0-2.7-0.4-5.3c-5.4-36.4-7.9-72.6 1.4-108.9 8.8-33.8 29.5-56.4 62-68.4 39.5-14.5 80.3-15.7 121.3-10.7 17.8 2.2 33.8 1.2 51-5 61.6-22 125.2-28.1 190.1-18.9 13 1.8 18.9 8.7 17.5 19.1-1.4 10.1-9.7 14.8-22.5 13.2q-18.5-2.5-37.1-3.1-18.6-0.7-37.3 0.5-18.6 1.2-37 4.2-18.4 3-36.4 7.8c4.3 2.1 6.6 3.3 8.9 4.4 26 11.7 52 23.2 77.7 35.3 5.7 2.7 9.3 2.6 14.7-0.8 32-20.6 65.3-22.3 98.5-3.4q55.7 31.7 110.6 64.9c34.7 20.8 48.7 59.3 36.6 97.7-4.6 14.7-14.5 25.4-26.7 33.9-11 7.7-22.6 14.7-34.4 22.3q10.4 27.1 20.6 54c1.7 4.4 3.3 8.9 4.5 13.5 2.6 9.4-1.3 17.7-9.3 20.7-8.7 3.3-17.7-0.6-21.5-10-4.8-12.2-8.9-24.7-13.5-37q-58.3-155.7-205.8-232.6c-2-1-4-1.9-7.2-3.5-40.6 118.2-117.4 203.8-232.9 257.2 14.1 18.2 27.3 36.1 41.4 53.2 63.8 77.3 148.6 119 244.5 140 37.4 8.2 75.7 12.4 113.3 20.1 35.3 7.2 66.3 24.1 94.5 46.6 8.9 7.1 11.2 14.9 8.6 25.9-11.2 47.6 4.2 86.3 41 117.1 12.9 10.8 28.6 6.2 34.1-9.9 6.4-18.2 12.1-36.7 17.8-55.2 6.2-20.2 18.7-34.3 38.3-42.4 16.5-6.8 32.9-14 49.2-21.3 18.4-8.2 21.5-24.3 6.6-38.2-33.2-30.6-71.5-41.8-115.3-27.2-12 4-20.6 2.2-29.5-6.7-31.2-31.2-53-67.7-64.3-110.5-3-11.1 1.4-19.9 11.2-22.5 8.9-2.4 17.3 2.8 20.3 13.6 8.9 32.3 24.1 61 46.4 86 4.8 5.4 8.9 7 16.8 5.7 19.2-3.3 38.9-4.1 60.5-6zm-158.6 201.1c-10.3-26.5-13.8-53.9-9.2-82.4 0.5-2.9-3.2-7.7-6.3-9.9-22.7-16.6-48-28-75.6-33.1-34.9-6.5-70.1-10.8-104.8-18-151.6-31.6-263.2-116.3-333.8-254.4-9.1-17.8-16.5-36.5-25.2-55.9-31.1 84.9-32.3 169-4.5 254.9 5.3-15.7 9.8-30.3 15.3-44.6 6.1-16.1 14.6-18.9 29.9-10.6q211 115.6 421.8 231.3c15.2 8.3 17.5 17 7 30.8-10.8 14.1-22.4 27.4-33.6 41 35.8-5.8 92.4-29.1 119-49.1zm-274-640.9c-63.2-25-126.3-39.4-193-29-51.3 8-73.9 32.4-74.8 84.5-0.5 24.6 2.1 49.7 6.4 73.9 7.2 39.7 22.4 76.9 42.7 113 108.5-48.9 180.8-129.1 218.7-242.4zm246.6 179.4c10-5.9 18.4-10.9 26.9-15.9 32.8-19.1 24.1-62.8 0.4-77.1q-58.9-35.8-119-69.7c-16.7-9.4-34.7-8.4-53.5 1.5 62.5 41.6 110.8 94.3 145.2 161.2zm-415 402.2l99.5-63.3-116.7-63.9c-11.7 46-5 87.1 17.2 127.2zm149.9 80.4c45.7-3.5 82.4-21.1 113.6-53.8l-113.6-62.2zm-129.8-54.1c25 28.5 62.9 48.6 95.2 51.6v-112.1z"/>
</svg>