<svg id="Layer_1" data-name="Layer 1" xmlns="http://www.w3.org/2000/svg" viewBox="0 0 1920 1080"><defs><style>.cls-1{fill:#939393;}</style></defs><path class="cls-1" d="M1506.38,601.69a359.43,359.43,0,0,0,18.48-144.77c-7.18-96.07-44.93-178.49-113.93-246.07-36-35.22-77.82-61.6-124.59-80.2-3.73-1.48-7.53-2.79-11.23-4.36-10.33-4.38-14.44-12.61-11-21.74,3.38-8.89,12.24-12.65,22.7-8.86,48,17.34,91.72,42.2,129.66,76.26,106.76,95.85,153.24,215.7,139,358.36-2.8,28.15-10.64,55.81-16,82.89,14.24,10.7,29.93,20.82,43.64,33.13,30.67,27.55,24.82,70.08-12,88.83-16.88,8.61-34.55,15.75-52.1,23-11.78,4.83-18.78,12.94-22.35,25.1-5.24,17.86-11.11,35.55-17.08,53.19-12.88,38.07-54.2,50.72-85.73,25.78-10.8-8.54-20-19.07-29.32-28.06-23.76,11.05-47.12,23.09-71.38,32.91-36.46,14.75-74.66,22.8-113.92,26a70,70,0,0,0-22,5.69c-70.19,30.77-140.81,32.49-212,3.72C931,896.56,926.08,888.09,930.56,878q6.47-14.58,27.19-6c90.35,37.39,193.18,14.8,259.33-57,3.42-3.71,6.59-7.65,10.68-12.42l-28.91-16.08c-37.24,42.82-84.37,65.93-140.48,70-40.53,3-78-7.35-113.31-27.51-60.72-34.65-117.72-125.52-87.22-229.3l-28.28-15.6c-10.43,30-14.77,59.73-12.45,90.28q6.75,89,70.55,151.55c10,9.77,11.6,18,5.44,25.86-6.48,8.24-17.53,8.09-26.76-.73-42.07-40.15-69-88.73-78.29-146.17a229.65,229.65,0,0,0-16.58-55c-49.46-114.33-48.13-228.47,3-342.15A39,39,0,0,0,777.19,287c-5.42-36.42-7.93-72.6,1.43-108.86,8.74-33.85,29.48-56.4,62-68.42C880.08,95.2,920.9,94,961.88,99c17.79,2.17,33.79,1.18,51-5,61.61-22,125.24-28.14,190.15-18.93,13,1.84,18.89,8.69,17.44,19.13-1.4,10.11-9.64,14.85-22.45,13.18a379.68,379.68,0,0,0-147.82,9.38c4.27,2.13,6.57,3.37,8.93,4.44,25.92,11.73,52,23.19,77.69,35.35,5.7,2.69,9.26,2.59,14.67-.88,32-20.52,65.26-22.23,98.48-3.33q55.76,31.71,110.67,64.87c34.67,20.83,48.69,59.32,36.54,97.74-4.63,14.66-14.48,25.31-26.65,33.85-11,7.74-22.61,14.68-34.43,22.29q10.35,27.08,20.61,54c1.68,4.44,3.27,8.94,4.52,13.51,2.56,9.38-1.31,17.73-9.35,20.74-8.7,3.27-17.73-.61-21.45-10-4.83-12.21-8.93-24.72-13.54-37q-58.34-155.73-205.83-232.62c-1.94-1-3.93-1.91-7.2-3.51C1063.29,294.39,986.47,380,871,433.44c14.14,18.21,27.28,36.07,41.38,53.15,63.86,77.36,148.57,119,244.53,140,37.41,8.21,75.69,12.45,113.24,20.12,35.31,7.21,66.37,24.1,94.54,46.56,8.91,7.11,11.25,14.92,8.65,25.9-11.27,47.63,4.11,86.33,41,117.16,12.88,10.78,28.52,6.18,34.08-9.89,6.33-18.28,12.12-36.76,17.77-55.27,6.17-20.19,18.71-34.26,38.27-42.35,16.53-6.84,32.94-14,49.28-21.29,18.4-8.21,21.5-24.36,6.55-38.19-33.15-30.68-71.51-41.88-115.31-27.2-12,4-20.57,2.2-29.51-6.74-31.22-31.23-53-67.73-64.32-110.46-2.95-11.15,1.48-19.94,11.21-22.53,8.91-2.38,17.31,2.81,20.29,13.63,8.9,32.28,24.13,61,46.49,86,4.76,5.32,8.9,7,16.78,5.64C1465.1,604.45,1484.75,603.65,1506.38,601.69ZM1347.79,802.78c-10.31-26.44-13.84-53.9-9.15-82.4.48-2.93-3.28-7.68-6.32-9.89-22.74-16.57-48-28-75.66-33.13-34.83-6.43-70.07-10.75-104.72-18C1000.32,627.76,888.67,543.1,818.13,405c-9.08-17.8-16.5-36.45-25.22-55.9-31.16,84.86-32.34,169-4.47,254.9,5.3-15.69,9.77-30.33,15.21-44.61,6.14-16.09,14.69-18.91,29.91-10.57q211,115.59,421.87,231.26c15.21,8.34,17.44,17,6.93,30.82-10.72,14.07-22.39,27.43-33.53,41C1264.58,846.06,1321.23,822.84,1347.79,802.78Zm-274-640.91c-63.22-24.93-126.29-39.34-193-28.92-51.32,8-73.84,32.37-74.82,84.48-.46,24.61,2.09,49.65,6.45,73.92,7.15,39.69,22.36,76.81,42.67,113C963.62,355.45,1035.89,275.18,1073.79,161.87Zm246.65,179.41c10-5.89,18.38-10.92,26.85-15.86,32.79-19.1,24.07-62.81.45-77.16q-58.93-35.77-119-69.64c-16.74-9.4-34.73-8.45-53.51,1.49C1237.69,221.69,1286,274.43,1320.44,341.28ZM905.37,743.52l99.57-63.27-116.71-63.9C876.49,662.32,883.21,703.43,905.37,743.52Zm149.95,80.37c45.71-3.5,82.36-21.09,113.62-53.76l-113.62-62.2ZM925.53,769.78c24.92,28.44,62.83,48.54,95.2,51.6V709.27Z"/></svg>