<svg version="1.2" xmlns="http://www.w3.org/2000/svg" viewBox="0 0 1136 846" width="1136" height="846">
	<title>i4-svg</title>
	<style>
		.s0 { fill: #ffffff } 
	</style>
	<path id="Layer" fill-rule="evenodd" class="s0" d="m0.6 540.5c7.4-11.6 12.8-25.4 22.7-34.3 9.5-8.5 23.6-11.9 35.9-17.6q-0.4-0.6-0.8-1.1-0.5-0.5-0.9-1-0.5-0.5-0.9-1-0.5-0.6-1-1c-23.1-23.7-30-51.2-18.3-82.4 11.9-31.5 36.9-45.7 68.9-49.3 26.8-3.1 53 1.4 78.9 7.7 2.8 0.7 5.7 1.3 9.1 2.2 0.4-13.8 1.2-26-5.7-38.9-33.7-63.3-20.9-140.6 30.2-190.6 12.3-12 26.5-22 41.9-29.6 15.4-7.6 32-12.6 49-15 17-2.4 34.3-2.1 51.2 1 17 3 33.3 8.7 48.4 16.9 3.2 1.7 6.4 3.5 10.4 5.7 2.7-14 4.3-27.4 7.9-40.4 10.1-36.3 30.4-63 69.9-70 8.6-1.5 17.7-1.3 26.5-0.7 9.6 0.7 15.4 8.2 15 17.3-0.4 9.1-7 15.1-16.8 15.6-41.5 2-55.8 14.2-64.5 55-7.2 33.8-4.6 67.6 0.9 101.3 1.4 8.8 2.7 17.1-5.7 23-7.8 5.6-15 1.9-22.7-1.5-12-5.4-24.4-10.9-37.2-13.5-30-6.2-49.3 14-40.3 43 6.4 20.9 16.6 40.7 25 60.6 4.1-0.3 5.6-0.1 6.8-0.6 30-11.3 56.7-4.3 78.4 17.5 15.2 15.4 27.4 33.7 40.8 50.8 2.2 2.8 4 6 6.3 9.7l146.4-64.3c-5-23.9-12-46.6-13.8-69.8-1.8-23.1 1.8-46.8 3.1-71.7-8.7 6-18.4 12-27.2 19.1-6.8 5.5-13.4 9.7-22 5.7-8.2-3.8-9.7-11.4-10-19.5-1.2-37.2-6.7-73.4-22.4-107.6-4.7-10.4-1.2-19.4 7.7-23.4 9-3.9 17.3-0.4 22.5 10.1 13.2 26.8 19.2 55.7 23.1 85 0.3 2.1 0.6 4.2 0.8 5.8 15-4.8 29.6-9.2 44-14.3 2.6-0.9 4-4.8 6-7.4 14.3-17.7 27.9-36.1 43.2-53 10.6-11.7 20.8-9.7 30 3.6 24.3 35.2 48.5 70.5 72.9 106 66.8-54.5 137.3-63.6 209.6-14.3 60.4 41.3 77.6 104.7 56.5 191.4 48.3 43.3 44.9 88.6-11.6 137.1 4 0.4 6.9 0.9 9.9 1.1 33.3 2 57.5 29.4 56.8 64.2-0.7 33.1-26.4 59.5-58.8 60.1-16.6 0.3-33.3-0.3-49.9 0-3.7 0.1-8.3 1.2-10.8 3.7q-64.6 61.5-128.7 123.6c-0.5 0.4-0.5 1.2-1 2.3 11.3 14.4 17 30.6 13.1 49.3-1.2 5.8-3.3 11.4-6.3 16.5-2.9 5.1-6.7 9.7-11.2 13.6-4.4 3.9-9.5 7.1-14.9 9.3-5.5 2.3-11.3 3.7-17.2 4.1-4.8 0.3-9.6 0.3-14.4 0.3q-269.3-1.8-538.6-3.7c-8-0.1-16.4-0.4-24.1-2.5-36.2-10.1-51.6-50.6-31.6-82.5 1.9-3.1 4.2-6 6.9-9.9-5.8-5.7-11.6-11.3-17.3-17-36-35.5-71.9-71.2-108.2-106.5-4-3.8-10.6-6.4-16.2-6.8-14.3-1-28.8-0.4-43.2-0.6-30.4-0.4-51.3-16.2-60.5-45.6q-0.2-0.5-0.5-0.9-0.2-0.5-0.4-1-0.3-0.5-0.6-0.9-0.2-0.5-0.5-0.9zm964.4 82h3.6l-2.5-1.2q-0.6 0.6-1.1 1.2zm-8.4-0.1l-628.5-4.2c-3.7 0-7.4 0.2-11.1-0.2-8.9-0.9-14.3-6.1-15.1-14.9-0.9-9.4 4.3-15.5 13.3-17.6 4.2-1 8.8-0.6 13.2-0.5q367.5 2.4 734.9 4.9c4.1 0 8.1 0.2 12.2 0 15.6-0.8 26.4-12.2 26.7-28.2 0.3-16.7-10.3-28.6-26.4-29.6-4-0.3-8.2-0.2-12.2-0.3q-495.5-3.3-990.9-6.6c-4.4 0-8.9-0.2-13.3 0.1-3.2 0.2-6.4 1-9.3 2.3-3 1.3-5.7 3.1-8 5.3-2.3 2.3-4.2 4.9-5.6 7.8-1.4 2.9-2.3 6.1-2.6 9.3-2.1 19.4 9.7 32.9 29.4 33.1 61.7 0.5 123.4 0.8 185.1 1.4 12.6 0.1 20.3 7.1 19.9 17.4-0.4 9.8-7.9 15.7-20.1 15.7-24.8 0-49.5-0.3-74.3-0.4-2.6 0-5.3 0.5-9.6 0.9 35.2 34.8 69.2 68.1 102.8 101.9 7.2 7.3 14.4 10.6 25 10.7q256 1.2 512 3.1c17.4 0.2 36.5 4.3 51.5-1.6 14.7-5.8 25.6-21.7 37.4-33.9 24.2-25 48-50.5 72-75.8zm-277.9-126.5l11 0.1c89.4 0.6 178.9 0.8 268.3 2 39.3 0.6 72.4-14.5 102.7-37.3 16-12 23.8-28.1 17.6-48.6-6-19.9-20.9-28.5-40.2-31.2-35.1-4.8-68.2 4.4-100.8 15.6-7.8 2.7-15.2 4.1-21.7-2.1-6.6-6.2-4.6-13.5-3.2-21.5 2.8-14.3 5.6-29.1 4.6-43.4-1.2-17.1-17.1-25.6-33.3-19.8q-2.8 1.1-5.6 2.3-2.8 1.2-5.5 2.6-2.7 1.4-5.3 2.9-2.6 1.6-5.2 3.3c-31.3 20.8-57.4 47.4-81.6 76-8.4 9.9-16.8 12.1-24.9 6.7-7.9-5.3-8.3-12.8-4.4-24.7q1.6-4.8 2.9-9.7 1.4-4.9 2.5-9.8 1.2-4.9 2.1-9.9 0.9-5 1.7-10c1.3-8.8-4.6-15.7-13-16.7q-3.5-0.4-7-0.5-3.5-0.1-7 0.1-3.5 0.3-6.9 0.9-3.5 0.5-6.9 1.4c-10.6 3-14.8 10.2-12.1 22.8q2.2 9.8 3.1 19.7 0.9 10 0.5 20-0.4 10-2 19.9-1.6 9.8-4.4 19.4c-7 23.4-17 45.9-26 69.5zm-351.7-2.3c-12.7-24.7-11-29.2 12.4-39.4q58.2-25.6 116.4-51.2c7.4-3.2 14.7-6.6 22.7-10.2-12.4-20.9-25.2-40.1-44-54.5-9.2-7-19.3-10.4-31.1-8.1-12.4 2.6-19 8.9-17.7 21.3 1.4 12.3 5 24.5 8.9 36.3 3.9 11.6 3.1 19.5-4.6 24.5-8 5.2-16.4 2.7-24.8-7-8.4-9.7-16.7-19.8-25.7-29.1-21-21.8-42.5-43.3-70.1-56.9-22.6-11.2-41.2 0.1-41.1 25.5 0 12.3 4.5 24.5 5.4 36.9 0.5 6.3-0.1 15.1-4 18.8-4 3.7-12.6 2.6-19.1 3.1-2 0.1-4.1-1.5-6.2-2.2-31.3-10.8-62.9-19.3-96.4-15.5-32.7 3.7-52.8 33.1-39 59.7 14.2 27.5 39.2 44.7 69.7 46.1 58.6 2.6 117.4 1.4 176.1 1.8zm239.3 317.1q133.6 0.9 267.1 1.8c4.5 0 8.9 0.1 13.3-0.3 12.2-1.1 20.4-9.4 20.7-20.6 0.4-11.2-8.1-21.8-19.3-23.7q-1.3-0.2-2.7-0.3-1.4-0.1-2.8-0.2-1.3 0-2.7-0.1-1.4 0-2.8 0.1-270.4-1.9-540.8-3.7-1.4 0-2.8 0-1.4 0-2.8 0-1.4 0.1-2.7 0.2-1.4 0.1-2.8 0.2c-11.2 1.7-19.8 12.1-19.6 23.4 0.2 11.4 8.2 19.6 20.4 20.9q1.6 0.2 3.3 0.3 1.6 0.1 3.3 0.1 1.7 0.1 3.3 0.1 1.7 0 3.3 0zm4.3-315.5c17.9 0.1 37.8 0.5 57.7 0.1 3.3 0 7.3-3 9.5-5.7 20.2-24.5 32.4-52.7 37.2-84 3.2-20.3 3.7-40.7-2-61.7l-311.8 137c3.9 11.5 11.4 13.8 21.3 13.2 11-0.7 22.3-1.2 33.2 0.3 22 3.1 37-1.9 42-26.5 2.1-10.6 12.9-14.2 21.9-10.6 8.4 3.5 11.8 12.1 8.6 22.4-1.5 4.7-3.2 9.3-4.8 14l50.8 0.3c-4.8-11.3-9.5-21.2-13.4-31.5-3.3-9.1 0.5-17.6 8.9-21.1 8.3-3.6 16.2-1.3 20.1 6.3 7.4 14.8 13.3 30.2 20.8 47.5zm276.1-205.9q-61.6-89.6-123.7-179.8c-52.1 51.5-61.6 139.6-31.1 191.9 45.3-30.6 95.7-8.8 102.4 30.5zm171.2 56.3c7 0.6 14.1 0.6 20.9 2.1 8 1.7 11.1-1.7 13.2-8.9 8.4-29 7.7-57.5-3.1-85.7-33.6-87.8-154.1-110.8-214.3-40.2l17.1 25c37.2-41.3 87.8-44.6 124.8-24.1 44.8 24.8 57.8 65.8 41.4 131.8zm-779.3-64c-0.6-2.6-1.2-5.1-1.8-7.6-17.8-70.3 41.8-135 113-121.4 24 4.5 47.2 12.5 71.1 19.1 2.5-10.7-0.4-17.5-8.2-23.3-42.1-31.4-87.9-37.9-135.3-15.6-47.5 22.4-72 61.9-74 114.3-0.7 17.1 1.7 34.1 9.5 49.5zm714.3 75.8c6.4-2.7 13.5-3.8 18.1-7.8 20.4-17.4 27.5-40.1 20.9-65.8-6.7-26.2-24.3-42.7-51.1-47.8-26.4-5-47.9 4.5-64.3 25.3-1.8 2.3-3 7.6-1.6 9.5 1.8 2.5 6.5 4.6 9.6 4.2 31.4-3.5 57.1 13.4 64.5 44.2 2.8 11.6 2.6 23.9 3.9 38.2zm-600.5-17c4.4-12.8 4.1-12.6-1.3-22.2-7.4-13.2-15.1-26.3-21.1-40.1-13.8-31.3-22.7-63 2.7-93.7-30.2-1.2-57.5 20.3-64.1 49.8-6.3 27.8 1.9 46.6 26 60.8q2.5 1.4 5 2.9 2.5 1.6 4.9 3.2 2.4 1.6 4.7 3.3 2.4 1.7 4.7 3.5c12.8 10.4 25.2 21.3 38.5 32.5z"/>
	<path id="Layer" class="s0" d="m640.7 430.7c0 14.3-9.7 22.6-20.1 19.3q-4.9-1.5-9.7-3.2-4.8-1.7-9.6-3.6-4.7-1.8-9.4-3.8-4.7-2-9.3-4.2c-7.7-3.6-10.7-11-7.6-19.5 3.3-9 10.5-13.1 19.2-10.5q4.9 1.5 9.7 3.2 4.8 1.7 9.5 3.5 4.8 1.9 9.4 3.9 4.7 2.1 9.2 4.3c4.5 2.2 7 8.4 8.7 10.6z"/>
	<path id="Layer" class="s0" d="m747 257.5c-7.6-0.1-12.8 0.2-17.9-0.2-9-0.7-14.3-5.8-15.1-14.8-0.8-8.9 3.5-16.1 12.2-17.1 13.1-1.5 26.6-2.2 39.6-0.4 4.7 0.6 10.5 9 11.7 14.8 1.7 7.7-3.8 14.3-12 16-6.9 1.3-14 1.3-18.5 1.7z"/>
</svg>