<svg id="Layer_1" data-name="Layer 1" xmlns="http://www.w3.org/2000/svg" viewBox="0 0 1920 1080"><defs><style>.cls-1{fill:#939393;}</style></defs><path class="cls-1" d="M918.18,61c5.46,4.68,11.92,8.59,16.21,14.17,41.82,54.4,36.56,132.61-11.83,181.33s-126.41,54.36-181.33,13.07c-2.25-1.69-4.46-3.45-6.54-5.34-10.27-9.26-11.2-22.08-1.43-32,27.65-28.06,55.59-55.85,83.54-83.63,6.19-6.16,13.4-6.47,18.73-1.45,5.51,5.17,5.38,13-1,19.4Q798,203.43,761.13,240c-2.17,2.17-4.9,3.78-7.42,5.69,33.45,31.39,101.65,39.34,148.73-5,41.37-38.93,46.71-110.28,10-151.8Q903.28,98,894.17,107c-5.6,5.54-11,11.34-16.91,16.51-5.43,4.74-11.53,4.47-16.72-.55-4.88-4.72-6-11.41-1.4-16C875,91.26,891.69,76.28,908.05,61Z"/><path class="cls-1" d="M1127.63,61c3.43,1.09,6.87,2.13,10.28,3.27,36.3,12.18,58.1,37,64.54,74.8,2,11.56-3.59,20.89-14.86,24.07-27.81,7.86-55.67,15.56-83.73,22.46-16.23,4-29.3-9.49-25.24-25.83,6.9-27.77,14.66-55.33,22-83,2.15-8.11,8.28-12.29,15.18-15.78Zm-22.88,98.35L1176.59,140c-2.62-24.29-28.33-51.35-52.79-51.81C1117.63,111.22,1111.42,134.41,1104.75,159.35Z"/><path class="cls-1" d="M1084,235.41c15.42-14.93,32.87-25.85,53.33-31.51,29.41-8.14,57.92-5.52,85.45,7.53,9.36,4.44,12.56,11.44,8.93,18.74-3.46,6.94-10.44,8.38-19.74,4.2-36.83-16.55-71.12-12.23-102.85,12.63-2.37,1.87-4.42,4.15-6.95,6.56,2,2.21,3.67,4.07,5.41,5.82,2.16,2.16,4.42,4.22,7,6.67,23.11-21.4,49.7-29,79.58-19.21s46.62,31.9,52.68,62.92h17.54c-.53-12-4.28-22.63-9.35-32.91-5.87-11.9-5.17-18.81,2.51-22.63s15.47-.59,19.82,11.18c5.31,14.36,8.47,29.5,12.74,44.26.86,2.95,1.77,7.21,3.93,8.27,32.93,16.13,47.09,56.51,34.6,96.31a141.15,141.15,0,0,1-11,25.46c-4.3,7.83-10,14.88-15.36,22.59,5.4,4.54,11.5,8.94,16.74,14.19,22.07,22.06,22.09,52,.31,74.46-12.08,12.44-27.07,19.91-43.35,25.12-3.14,1-6.31,1.93-9.47,2.89l-.76,2.41c2.17,1.08,4.28,3,6.52,3.11,6.44.43,12.94.1,19.41.17,19.22.21,31.89,13.29,30.74,32.29-5.26,87.51-38.58,162.82-99.18,226a336.3,336.3,0,0,1-114.07,78.15,61.52,61.52,0,0,1-22.83,4.56c-76.56.32-153.13.45-229.7-.12a72.62,72.62,0,0,1-29.86-7c-114.9-54.9-183.61-145-204.37-271a247.49,247.49,0,0,1-3.13-32.72c-.51-17.15,12.22-29.83,29.49-30.16,9-.17,18,0,28.38,0-10.2-19.6-12.15-39-2.09-59l-8-6.25A120.25,120.25,0,0,1,806.8,323.93c4.47,3,7.83,3.16,13,1.52,36.58-11.74,68.55-1.06,97.91,21.18,2.2,1.67,4.33,3.45,6.53,5.21,5.55-6.37,10.32-13.07,16.32-18.38s13.25-9.25,20.17-13.95c-1.25-11.08-3.35-23-3.8-34.91-1.47-39,10.68-73.62,35.62-103.66,10.49-12.63,23.08-13.3,34.82-1.73,16.84,16.61,33.46,33.42,50.19,50.13C1079.47,231.29,1081.54,233.13,1084,235.41ZM658.37,689.35a12.47,12.47,0,0,0-.26,2.67c.31,1.37.7,2.72,1.14,4.05Q706.61,838.23,843.8,898.45a29.25,29.25,0,0,0,11.46,2q115.69.17,231.39,0a31.13,31.13,0,0,0,12.23-2.32q136.35-60.6,183.71-202.17a50.82,50.82,0,0,0,1.24-6.55h-10c-33.22,0-66.44,0-99.66,0-10.43,0-16.44-6-14.83-14.73,1.5-8.14,7.27-10.61,14.87-10.6q53.63.09,107.25,0h10.17c1.73-14.3,3.72-27.89,4.93-41.54,1.11-12.47.75-12.51-11.78-12.51H656.49c-2,0-4.36-.69-5.81.17-2.38,1.42-6,4-5.86,5.85,1.25,15.89,3.23,31.71,5,48h454.07c13.19,0,19,3.77,19.25,12.36.21,9-5.8,13-19.45,13H658.37Zm582.34-105-3.22-6.9c-5.38-11.41-1.32-19.16,11.14-21.28,3.87-.66,7.8-1.13,11.6-2.08,15.17-3.79,29.58-9.28,40.82-20.71,12-12.18,12.71-26.22.65-38-6.68-6.51-15.16-11.55-23.56-15.8-14.16-7.16-15.75-15.65-3.88-26.25,15.25-13.63,26.23-30,31.38-49.94,11.13-43.15-17.28-74.52-61.1-67.07-21.94,3.74-39.56,15.5-54.31,31.74-11.85,13-19.31,11.44-27.53-4.44A95,95,0,0,0,1145,339.42c-9.43-9.16-21.35-9.24-31.32-.58-6.41,5.57-12.5,12.61-15.93,20.25-5,11.13-8,23.26-10.86,35.21-2.91,12.39-10,16.5-21.44,11.22a84.57,84.57,0,0,0-12.47-5c-18.46-5.15-30.88,2.13-35.31,20.82-3.86,16.3-1.19,32.09,4.16,47.85,7.91-12.13,14.9-24.24,23.26-35.32,11.3-15,24.54-15.46,37.81-2.3,16.38,16.24,32.64,32.61,49,48.91,2.08,2.08,4.28,4,6.71,6.33,12.13-12.23,23.59-23.83,35.1-35.39s23-23.14,34.64-34.6c6.76-6.68,13.75-7.28,19.34-2,5.8,5.5,5.33,12.94-1.62,19.95q-23.46,23.67-47.13,47.17c-7.49,7.47-15.06,14.87-22.51,22.22C1175.75,527.45,1233.77,583.15,1240.71,584.32Zm-239.42-95.06c-2.85-10-5.91-18.36-7.6-27-5.54-28.28-5.87-55.57,17.22-77.63,1.05-1,1.68-3.95,1-5-6.41-10.07-11.9-21.16-20.12-29.53-9.42-9.59-22.27-9.16-31.85.31-7.21,7.13-13.16,16-17.86,25.1-7.45,14.38-15.83,16-26.78,3.79-14.67-16.38-32.37-27.75-54.16-32.1-38.72-7.73-67.3,17.51-63.35,55.89,2.6,25.15,15.21,44.86,33.52,61.43,11.4,10.32,9.64,18.64-3.93,25.79a116.58,116.58,0,0,0-25.84,18.26c-7.44,7.05-9,16.83-3.93,26.44,7,13.14,18.9,19.89,32.7,25.13,14.45-40.76,42.1-67,83.24-80.51-11.88-11.74-22.73-22.35-33.46-33.08-7.42-7.43-8.41-15-2.91-20.61s13.29-4.76,20.61,2.53c14.16,14.09,28.21,28.3,42.43,42.32,2.1,2.07,4.89,4.76,7.44,4.85C966.1,476.25,983.56,480.68,1001.29,489.26Zm8.2-289.48c-26,34.6-34,73.2-22.41,115.69.53,1.92,2,4.46,3.66,5.06,23.1,8.43,35.41,26.61,44.34,48.07.81,2,2.92,4.43,4.74,4.72,7.93,1.27,16,1.82,24.24,2.65,8.84-30.13,21.65-57.33,54.15-67.62C1082.22,272.42,1046.28,236.52,1009.49,199.78ZM803.74,473c-13.19-15.05-22.82-31.33-28.23-50-.52-1.81-4.47-3.84-6.74-3.74-13.48.55-25.5,10.77-29.58,25.05-4.65,16.28-1.32,31.68,5.81,46.61,5.45,11.42,2,17.84-10,21.34-7.49,2.18-15.16,4.73-21.75,8.77-22.18,13.58-25.72,37.89-9.24,57.72a15.06,15.06,0,0,0,12.94,6c31.52-.29,63.05-.13,94.58-.16,2.28,0,4.57-.29,8.39-.55C760.72,558.66,752.41,505.78,803.74,473Zm-13-129c-41.95-28.54-102.72-14.42-130.44,29.88-28.09,44.89-13.78,105.8,30.92,131.18l16.18-10.6c-46.87-26.26-50.53-73.79-36.09-103.14,8.42-17.09,21.09-29.81,38.51-37.35,24.23-10.46,48.07-8.24,70.89,4.17Zm248.74,240.32c-6-48.17-47.29-83.91-95-83.15s-89,37.41-92.73,83h17.1c13.47-42.73,39.37-64.89,76.11-65A75.2,75.2,0,0,1,990,533.44c17.48,12.56,27.71,29.78,31.81,50.89ZM1064.3,450.4c-13.88,17-22.12,36.31-26.27,57.65-1.28,6.54-.17,11.56,4.17,16.9a74.44,74.44,0,0,1,11.65,19.42c5.07,12.91,8.93,26.3,13.33,39.62h27.71c-23.64-35.37-24-70.33-1.75-104.81C1083.53,469.6,1074.23,460.31,1064.3,450.4Zm130.42,133-83.83-83.82c-17.12,26.41-8.59,64.93,19.49,82.26a19.21,19.21,0,0,0,9.38,2.69c16,.27,32,.2,48.07,0A33.69,33.69,0,0,0,1194.72,583.37ZM1134,283.75l51.7,52c10.74-5.87,21.84-11.77,32.68-18.09,1.53-.89,2.71-4,2.55-5.91-1.51-17.86-16.69-35.4-35.28-41.22C1166.47,264.49,1145.55,270.06,1134,283.75ZM711.77,467c-1.57-45.69,23.7-70.93,59.2-73.85,3.67-6.69,1.18-10.78-5.2-14.06-13.48-6.95-27.53-8.56-41.63-3.45-20.62,7.47-32.7,22.58-34.61,44.57C687.88,439.14,695.24,454.47,711.77,467ZM995.14,584.23c-4.78-23.47-26.82-40.56-50.92-39.82-23.64.73-45.08,18.32-48.12,39.82Z"/><path class="cls-1" d="M892.4,174.28c-3.08,0-6.17.22-9.23,0-7.24-.61-11.08-5-11.78-11.94-.65-6.42,4.58-12.4,11.63-13a115.84,115.84,0,0,1,18.44-.05c7.73.56,12.45,6.14,12.06,13.35-.38,6.92-5,11.29-12.74,11.74-2.78.16-5.59,0-8.38,0Z"/><path class="cls-1" d="M837.06,227.24c-.46,4.15-.37,8.44-1.51,12.39-1.77,6.12-6.6,9.14-12.81,8.51s-10.54-4.25-11.06-10.7a157,157,0,0,1-.18-19.28c.31-7.13,4.27-11.38,11.47-12,7-.63,12.28,3.71,13.36,11,.49,3.28.09,6.69.09,10Z"/><path class="cls-1" d="M864.54,188.62c4.07,2,7.4,3,9.82,5.07a123.8,123.8,0,0,1,12.48,12.4c4.86,5.52,4.62,12.57-.1,17.41a12.47,12.47,0,0,1-17.41.45c-4.61-4-9.7-8.06-12.76-13.18A18.71,18.71,0,0,1,854.93,197C856,193.59,861.06,191.47,864.54,188.62Z"/><path class="cls-1" d="M1045.17,352.65c-2.29-1.87-7.11-3.95-8.41-7.36-1.44-3.76-1.16-9.8,1-13a57,57,0,0,1,15.92-15.82c3.59-2.26,11-2.4,14.25-.08s6.25,10.81,4.55,13.24c-5.62,8-13.34,14.65-20.46,21.59C1051.07,352.2,1048.87,351.94,1045.17,352.65Z"/><path class="cls-1" d="M1033.38,266.83c3.63,0,7.28-.25,10.89.05,6.83.57,10.8,4.59,11.34,11.28.57,7.13-3.1,12.34-10.08,13.2a103.94,103.94,0,0,1-23.39.12c-6.95-.73-11-5.8-10.64-12.84s4.56-11.29,11.82-11.8c3.34-.24,6.71,0,10.06,0Z"/></svg>