<svg id="Layer_1" data-name="Layer 1" xmlns="http://www.w3.org/2000/svg" viewBox="0 0 1920 1080"><defs><style>.cls-1{fill:#939393;}</style></defs><path class="cls-1" d="M1526.56,850.14c-2.44,9.51-4.16,19.29-7.46,28.49-17.92,50-67.14,72.94-117.11,54.94-1.67-.6-3.35-1.16-5.52-1.91-15,27.58-38.6,43.51-68.77,48.88-47.14,8.39-90.32-2-127.33-32.52-11.42-9.42-19.4-23-29.1-34.85-20.64,10-42.87,21.76-65.88,31.72C1046.92,970.2,986,985,921.89,983.29c-49.92-1.36-98-10.56-139.78-40.09-35.34-25-55.09-58.26-53.77-102.92.91-30.57.18-61.18.18-91.23-12.58-6.14-26.93-11.18-39.07-19.46-40.56-27.67-58.66-66.67-55.37-115.8.31-4.73-1.71-10.47-4.51-14.41-30.31-42.71-35.09-88-9.91-133.81,25-45.51,65.58-65.81,117.58-62.63,7,.43,13.72,2.2,20.46-3,4.76-3.7,7.89-7.13,9.63-13,14.55-49.29,55.94-82.25,108.82-87.12,46.77-4.3,94.77,23.34,117.41,67.16,2.1,4.06,6,8.5,10.08,10,88.33,33.48,110.36,145.51,41,209.87-1.31,1.21-2.59,2.45-4.56,4.32,3,4.7,6,9.41,9.05,14.09,13.09,20.12,26.39,40.11,39.14,60.45,3.33,5.31,6.45,6.84,12.34,4.61,10.91-4.13,22-7.87,33.11-11.42,6.88-2.2,9.31-6,9.26-13.58-.4-56.75,1-113.54-.61-170.24-1.29-45,8.72-86.64,26.71-127.3,13.33-30.12,25.78-60.69,37.1-91.61,11-30,6.32-61.59,7-92.37-25.79-7.58-32.52-16.66-32.52-42.94,0-5.41.42-10.85-.08-16.21-1.91-20.6,5.72-35.5,25.23-43.63h91.89c6.2,4.79,9.62,10.79,6.82,18.66-2.87,8.07-9.83,8.46-17.08,8.42-22.8-.14-45.62.21-68.42-.19-8.74-.15-11.91,3.27-11.43,11.72.44,7.78.08,15.6.1,23.41,0,11.63,1.16,12.83,12.9,12.85q56.71.06,113.43,0c11.71,0,23.41,0,35.11,0,12.71,0,13.45-.77,13.48-13q0-11.26,0-22.51c-.05-11.57-.74-12.38-12.28-12.26-8.17.08-16-.15-18.55-10.06-1.92-7.42,2-12.54,7.18-17h25.22c19.35,7.57,27.29,21.81,25.58,42.32-.77,9.24,0,18.6-.27,27.89-.38,11.71-6,20.71-16,26.55-4.77,2.82-10.43,4.11-16.47,6.38,0,12.47.26,25.32,0,38.16a189.89,189.89,0,0,0,17.48,84.63c11.7,25.61,22.38,51.68,33.94,77.35a217.28,217.28,0,0,1,19.26,91.59c-.37,76.5.22,153-.44,229.52-.12,13.85,1.9,21.57,16.63,27.69,25.32,10.53,39.76,33.33,49.34,58.15,6,15.5,9,32.15,13.28,48.29Zm-223.25-123.2c-2.63,2.89-5,5.51-7.38,8.09-2.66,2.86-5.3,5.74-8,8.5-43.06,43.32-94.2,75.12-148.13,102.6-59.93,30.53-123.21,50.1-190.78,54-10.94.63-16.57-3.53-17.13-12.49-.58-9.22,4.11-13.39,15.17-14.5,16.12-1.62,32.4-2.58,48.24-5.72,102.4-20.32,190.77-68.51,267.75-138,14.48-13,26.66-29.34,37.21-45.86,9.84-15.41,4.41-27.4-12.22-34.73-14.62-6.44-29.89-5.7-45.14-3.13-26.32,4.44-50,16.26-74.29,26.51-23.66,10-47.63,20.28-72.47,26.08-42.15,9.86-84.81,3.6-127.11-2.33-34.78-4.88-69.56-10.12-104.86-7.86-30.49,2-59.28,9.38-83.73,28.84-17.62,14-26.66,32.28-24.57,55.07,1.49,16.21,7.69,30.78,17.7,43.62,14.65,18.77,34,31.26,55.93,39.49,14.52,5.46,29.8,8.95,44.78,13.15,8.79,2.46,12.76,8.26,11,16.64-1.56,7.29-7.51,11.58-15.56,10-40.7-8-78.55-22-108.49-52.3a61.51,61.51,0,0,0-5.1-4.07c-2.28,23.35,3.46,43.28,17.08,60.89s31.77,29.1,52.11,37.25c52.16,20.89,106.13,23.79,161.08,15.2,63.41-9.91,121.51-34.13,176.67-66.18,5.38-3.13,8.78-6.76,11-13a85.64,85.64,0,0,1,13.25-23.25c20.83-26.4,49.16-40.46,81.38-47.77,3.06-.69,6.66-1.77,8.66-3.93C1295.56,778.17,1311,757.28,1303.31,726.94Zm-563-5.09C759.56,692.54,787.64,677.08,820,668c25.78-7.22,52.09-7.86,78.57-7,3,.1,6.08,0,10.4,0-11.27-17.34-21.54-33.11-32-49.22-3,1.23-5.42,2.22-7.85,3.24a126.46,126.46,0,0,1-75.78,7.63c-4.34-.89-9.93-5.65-11-9.68s1.24-11.09,4.55-14c3.06-2.67,9.52-2.58,14.26-2,20.93,2.74,41,1.19,60.59-8.67-13.62-21-26.92-41.32-40-61.79-5.18-8.11-3.85-14.86,3.18-19.5s13.86-3.22,19.18,4.71c9.34,14,18.37,28.12,27.56,42.19,4.19,6.4,8.45,12.77,13,19.68,3-2.78,5.24-4.7,7.28-6.83,13-13.53,21.12-29.63,25.64-47.77,2.36-9.46,9-13.36,17.3-11,7.67,2.19,10.88,8.74,8.63,17.92-1,4.07-2.12,8.12-3.43,12.1-7.72,23.4-21.62,42.62-40.55,58.66,9.87,15.25,19.46,30.08,29.08,44.9,2.44,3.76,5,7.46,7.78,11.65,9-8.37,13.21-18.65,16.43-29.69,3-10.26,12.76-13.79,21.07-8.11,6.4,4.37,6.65,10.87,4.34,16.91-4.53,11.89-10,23.4-15.11,34.95,29.57,6.57,82.39,10.49,98.41,7-1.62-2.65-3.08-5.17-4.66-7.6q-21.56-33.22-43.15-66.41c-8.55-13.18-7.74-17.85,4.55-27,44.71-33.28,53.57-95.7,19.73-138.92s-97.82-50-140.54-14.73c-10.18,8.4-12.64,8.62-23.93,2-21.6-12.7-44.83-17-69.31-11.94-50.46,10.43-81.88,53.55-77.62,106.41.8,10-.64,17-10.72,22-38.72,18.83-59.5,58.92-54.06,102.72C666.76,680.22,698.2,712.94,740.29,721.85ZM1342.79,806c7.83-18.57,14.28-37.26,23.37-54.56,10.09-19.21,25.21-34.49,46.3-42,6.59-2.33,8.34-5.38,8.32-12.13-.26-81.33-.13-162.67-.23-244a179.76,179.76,0,0,0-1.37-23.32c-4.19-32-17.86-60.78-31-89.69-1-2.14-5-4.12-7.58-4.13-56.72-.23-113.45-.11-170.17-.29-5.09,0-7.47,1.91-9.28,6.39q-5.87,14.58-12.55,28.84c-12.56,26.74-19.18,54.65-18.86,84.35.64,58.22.73,116.45,1.07,174.67,0,3.4.29,6.79.41,9.3,20.76-6.57,40.41-14,60.68-18.89,25.55-6.12,51.21-6.42,75,7.77,16.6,9.9,25.07,24.38,24.93,43.84-.11,14.7,0,29.41-.06,44.11-.07,13.5,1.82,27.46-1,40.38-3.23,14.85-10.67,28.79-16.33,43.24ZM1215.35,308.43h159.71c-24.6-46.31-27.21-95.35-24.55-145.16H1239.8C1242.51,213.32,1240.31,262.2,1215.35,308.43Zm284.81,533c-2.17-40.16-10.33-71-34.85-95.15-19.17-18.89-41.2-19-60.53-.41-19.86,19.06-29.51,43.28-33.12,70.08-.37,2.78,1.64,6.85,3.87,8.87,22,19.92,31.47,44.76,29.24,74-.42,5.5,1.71,7.33,6,9.15,30,12.72,65.24.14,79-30.12C1495.82,864.56,1498,849.46,1500.16,841.43ZM1302.51,956.61c4.29-.48,11.49-.94,18.56-2.15,33.81-5.74,55.75-29.21,57.19-60.87,1.41-30.79-18.68-56-52.47-63.64-36.78-8.36-71.1-.7-101.86,20.59-34.89,24.14-34.79,57.3-.39,82C1246.19,948.8,1272,955.62,1302.51,956.61ZM797,383.41c29.89-5,56.49-2.14,81.9,10.34,2.4,1.17,7,.4,9.33-1.21a130.73,130.73,0,0,1,51.12-21.12c7.45-1.33,15.06-1.78,24-2.78-23.55-31-53.1-45.47-90.57-41.1C837.94,331.6,813.46,350.73,797,383.41Zm-72.64,45.88c-37.59,2.55-64.64,18.7-81.48,49.72s-15.64,62.36,2,94.62c12.19-24.61,29.24-43,51.7-56.45,1.61-1,2.14-4.49,2.35-6.89.74-8.35.6-16.79,1.72-25.07C703.32,465.3,711.7,447.55,724.37,429.29Z"/><path class="cls-1" d="M880.82,817.47c-15.16-.65-31.84-3.54-46.22-14.1-20.93-15.38-20.9-40.43,0-55.82,25.23-18.6,71.44-18.72,96.81-.26,21.37,15.54,21.38,40.74,0,56.37C919.41,812.42,901.56,817.51,880.82,817.47Zm2.58-24.85c10.77-3.66,21.73-6.45,31.82-11.12,6.86-3.18,6.35-7.69.28-12.31-14.64-11.12-49.06-11.25-64.18-.23-7,5.1-7.32,9.5.75,13.22C861.65,786.59,872.16,789,883.4,792.62Z"/><path class="cls-1" d="M1393.35,441.07c.46,16.21-2.63,21.36-11.63,22.17-8.26.75-14.82-3.61-14.81-12,0-24.14-8.41-45.71-18.21-67.1-3.85-8.41-1.07-15.4,6.53-18.64,7.15-3,13.43-1.44,16.85,5.53C1383.33,394,1393,417.54,1393.35,441.07Z"/><path class="cls-1" d="M1359.58,888.53c.22,10.67-4.07,16.06-11.91,16.84s-13.76-3.82-14.53-12.42c-.9-9.92-5.41-16.5-14-21.37-7.35-4.14-8.55-11.63-4.21-18.54,4.07-6.49,10.51-8.23,17.94-4.34C1349.59,857.48,1358.76,871.26,1359.58,888.53Z"/></svg>