<svg id="Layer_1" data-name="Layer 1" xmlns="http://www.w3.org/2000/svg" viewBox="0 0 1920 1080"><defs><style>.cls-1{fill:none;stroke:#fff;stroke-miterlimit:10;stroke-width:1.8px;}.cls-2{fill:#fff;}</style></defs><path class="cls-1" d="M1535.46,404.87a727.59,727.59,0,0,1,156.07,451.42"/><path d="M1691.53,859.86a3.57,3.57,0,0,1-3.57-3.57c0-164.72-53.7-320-155.31-449.21a3.57,3.57,0,1,1,5.61-4.41C1640.87,533.1,1695.1,690,1695.1,856.29A3.57,3.57,0,0,1,1691.53,859.86Z"/><path class="cls-2" d="M1345.75,235.06q28.18,17.5,54.61,37.44"/><path d="M1400.36,276.07a3.61,3.61,0,0,1-2.15-.72c-17.48-13.18-35.76-25.71-54.34-37.25a3.57,3.57,0,0,1,3.76-6.07c18.77,11.66,37.23,24.31,54.88,37.62a3.57,3.57,0,0,1-2.15,6.42Z"/><path class="cls-1" d="M610.7,214.74a732.23,732.23,0,0,1,661.09-19.89"/><path d="M610.71,218.31a3.57,3.57,0,0,1-1.72-6.7A735.21,735.21,0,0,1,960.81,122c109.26,0,214.41,23.43,312.5,69.62a3.57,3.57,0,0,1-3,6.46c-97.14-45.75-201.25-69-309.46-69a728,728,0,0,0-348.39,88.74A3.54,3.54,0,0,1,610.71,218.31Z"/><path class="cls-1" d="M230.08,856.29c0-250.44,126-471.45,318-603.11"/><path d="M230.08,859.86a3.56,3.56,0,0,1-3.56-3.57A734.68,734.68,0,0,1,546.1,250.23a3.57,3.57,0,1,1,4,5.89A727.51,727.51,0,0,0,233.65,856.29,3.57,3.57,0,0,1,230.08,859.86Z"/><path class="cls-1" d="M1319.14,404.88c134.49,104.55,221,267.87,221,451.41"/><path d="M1540.16,859.86a3.56,3.56,0,0,1-3.56-3.57c0-176.58-80.06-340.08-219.65-448.59a3.57,3.57,0,0,1,4.38-5.63c141.34,109.86,222.4,275.42,222.4,454.22A3.57,3.57,0,0,1,1540.16,859.86Z"/><path class="cls-2" d="M1159.31,317.42q13,4.6,25.7,9.8"/><path d="M1185,330.79a3.57,3.57,0,0,1-1.35-.27c-8.39-3.43-17-6.71-25.54-9.73a3.57,3.57,0,0,1,2.38-6.73c8.66,3.06,17.36,6.38,25.86,9.86a3.57,3.57,0,0,1-1.35,6.87Z"/><path class="cls-1" d="M659.72,375.57a568,568,0,0,1,215-83"/><path d="M659.72,379.14a3.57,3.57,0,0,1-1.93-6.57,568.89,568.89,0,0,1,216.36-83.51,3.57,3.57,0,1,1,1.16,7,561.66,561.66,0,0,0-213.66,82.47A3.5,3.5,0,0,1,659.72,379.14Z"/><path class="cls-1" d="M397.34,856.29c0-186.63,89.47-352.36,227.86-456.64"/><path d="M397.34,859.86a3.57,3.57,0,0,1-3.57-3.57c0-91.83,21-179.58,62.43-260.82A580.37,580.37,0,0,1,623.06,396.79a3.57,3.57,0,0,1,4.29,5.7C483.44,510.93,400.91,676.33,400.91,856.29A3.57,3.57,0,0,1,397.34,859.86Z"/><path class="cls-1" d="M1038.49,344.58c249,37.48,439.81,252.31,439.81,511.71"/><path d="M1478.3,859.86a3.56,3.56,0,0,1-3.56-3.57c0-252.23-187.78-470.7-436.78-508.18a3.56,3.56,0,1,1,1.06-7.05,521.16,521.16,0,0,1,442.85,515.23A3.57,3.57,0,0,1,1478.3,859.86Z"/><path class="cls-1" d="M443.31,856.29c0-150.79,64.49-286.51,167.39-381.1"/><path d="M443.31,859.86a3.57,3.57,0,0,1-3.57-3.57A522.52,522.52,0,0,1,608.29,472.57a3.57,3.57,0,1,1,4.83,5.25A515.41,515.41,0,0,0,446.87,856.29,3.56,3.56,0,0,1,443.31,859.86Z"/><path class="cls-1" d="M686.82,856.29c0-151.32,122.67-274,274-274A273.07,273.07,0,0,1,1150,658.11"/><path d="M686.82,859.86a3.57,3.57,0,0,1-3.57-3.57c0-153,124.51-277.55,277.56-277.55a276.3,276.3,0,0,1,191.65,76.79,3.56,3.56,0,1,1-4.92,5.16,269.24,269.24,0,0,0-186.73-74.82c-149.11,0-270.42,121.31-270.42,270.42A3.57,3.57,0,0,1,686.82,859.86Z"/><path d="M1234.79,859.86a3.57,3.57,0,0,1-3.57-3.57,268,268,0,0,0-25.89-115.62,3.57,3.57,0,0,1,6.45-3,275.17,275.17,0,0,1,26.58,118.67A3.57,3.57,0,0,1,1234.79,859.86Z"/><path class="cls-2" d="M1196.26,716.1q6.67,11.19,12.3,23"/><path d="M1208.56,742.71a3.56,3.56,0,0,1-3.23-2c-3.67-7.74-7.75-15.39-12.14-22.74a3.57,3.57,0,0,1,6.13-3.66c4.5,7.54,8.69,15.4,12.46,23.35a3.56,3.56,0,0,1-3.22,5.09Z"/><path d="M1113,690a3.54,3.54,0,0,1,.83,3.66l-2.87,8.25a3.49,3.49,0,0,1-.83,1.34l-48,48c-9,9-19.85,14-31.4,19.24-13.2,6-26.81,12.25-39.74,25.16-5.41,5.4-10.28,10.57-18,19.09a3.58,3.58,0,0,1-2.46,1.14h-.15a3.57,3.57,0,0,1-2.41-.95c-5.63-5.33-9.64-9.4-12-12.08a3.51,3.51,0,0,1,.32-4.87l6.5-5.89c5.12-4.6,9-8.09,12.76-11.86A95.75,95.75,0,0,0,989.23,763l5.91,3.7a102,102,0,0,1-14.61,18.51c-3.85,3.85-7.79,7.4-13,12.13l-3.87,3.48c1.7,1.8,3.9,4,6.55,6.55,6.48-7.09,10.94-11.79,15.83-16.68,13.81-13.81,28.67-20.61,41.79-26.6,10.94-5,21.29-9.74,29.35-17.8l47.66-48.08-.66.25-40.72,40.72a7.49,7.49,0,0,1-5.28,2.17,7.3,7.3,0,0,1-5.26-2.2,7.44,7.44,0,0,1-.78-9.64l-4.07-5.72,41.28-41.28a3.56,3.56,0,0,1,1.19-.78l8-3.17a3.46,3.46,0,0,1,3.77.78,3.55,3.55,0,0,1,.78,3.78l-3.17,8a3.22,3.22,0,0,1-.77,1.2l-41.28,41.3.29.73,41.59-41.42a3.44,3.44,0,0,1,1.34-.83l8.26-2.88A3.55,3.55,0,0,1,1113,690Z"/><path d="M1091.88,668.92a3.5,3.5,0,0,1,.78,3.77l-3.17,8a3.5,3.5,0,0,1-.78,1.2l-41.28,41.28.61.61,4.07,5.72a7.44,7.44,0,0,1-10.4-10.4,7.47,7.47,0,0,1-9.67-11.32l41-41.38-.65.24-47.42,47.42c-8.06,8.06-12.81,18.41-17.8,29.35a193.1,193.1,0,0,1-12,23.28l-5.91-3.7a199.73,199.73,0,0,0,11.51-22.51C1006,729,1011,718.06,1020,709.1l48-48a3.78,3.78,0,0,1,1.34-.85l8.28-2.87a3.5,3.5,0,0,1,4.45,4.48l-2.87,8.28a3.41,3.41,0,0,1-.83,1.31L1037,712.75l.63.64,41.28-41.31a3.24,3.24,0,0,1,1.2-.78l8-3.16A3.55,3.55,0,0,1,1091.88,668.92Z"/><path d="M1060.22,899.28c14.07,14.08,17.92,28.42,9.79,36.58a14.45,14.45,0,0,1-10.52,4.22c-7.6,0-16.9-4.83-26.06-14-6.65-6.62-22.55-25.47-36.58-42.11-10.06-11.93-19.56-23.21-22.31-26-1.73-1.73-5-5.4-9.08-9.86-8.43-9.35-26-28.84-30-30.25-4.6.07-11.13.34-11.13.34a2.91,2.91,0,0,1-1.05-.1c-9.59-2.55-73.47-71.52-74.11-72.21L848,744.61c-17.64-19.09-54.31-58.82-36-77.13,2.77-2.78,8.62-4.34,27.25,14.3L946.65,789.2a3.84,3.84,0,0,1,.73,1.07l4.44,10.13a4.93,4.93,0,0,1,.27,1c1.72,4.22,20.94,21.56,30.22,29.93,4.46,4,8.11,7.34,9.84,9.06,2.75,2.76,14,12.25,26,22.34C1034.74,876.76,1053.59,892.66,1060.22,899.28Zm4.82,31.61c5.82-5.84-.71-17.58-9.77-26.64-6.45-6.43-25.15-22.21-41.69-36.16-12.57-10.6-23.43-19.78-26.4-22.73-1.68-1.68-5.26-4.89-9.57-8.81-23.94-21.61-31.44-29.33-32.42-33.76l-4-9.08-106.94-107c-10.47-10.47-16-13.42-17.78-13.8-12.25,14,23.19,52.33,36.63,66.9l1.22,1.31c30.68,33.32,64.29,66.66,70.48,70,1.92-.07,7-.26,11.15-.26s11.4,6.69,34.73,32.51c3.92,4.33,7.11,7.89,8.82,9.59,2.94,3,12.1,13.81,22.72,26.38,13.93,16.54,29.74,35.26,36.17,41.69,5.43,5.46,11.15,9.38,16.07,11.06C1059.05,933.72,1062.6,933.31,1065,930.89Z"/><path d="M948.89,835.33a3.54,3.54,0,0,1,.08,4.75C938,852.35,927.15,865,917.26,876.39c-14.2,16.41-26.45,30.61-33.61,37.75C870,927.83,856,941.85,844.17,941.85a14.13,14.13,0,0,1-10.28-4.5c-6-6-6-14,.13-23.62,4.87-7.75,13-16.08,23.06-26.16,11.15-11.16,38-35.07,66.46-60.4l6.5-5.8a3.53,3.53,0,0,1,4.51-.14C937.33,823.4,942,828,948.89,835.33Zm-7.33,2.48c-3.84-4.06-6.91-7.11-9.13-9.15l-4.24,3.77c-27.1,24.14-55.13,49.1-66.14,60.08C852.6,902,844.42,910.34,840,917.45c-5.46,8.67-3.63,12.4-1.1,14.93,7.72,7.72,21.39-4.75,39.82-23.21,7-7,19.17-21,33.27-37.38C921.2,861.1,931.34,849.36,941.56,837.81Z"/><path d="M1148.44,204.08a6.85,6.85,0,0,1,2,5.07,7,7,0,0,1-2.32,5l-30.8,27.39a6.89,6.89,0,0,1-9.45-.25l-5.87-5.87-39,39.05a6.89,6.89,0,0,1-9.75-9.75l39-39.05-5.87-5.87a6.9,6.9,0,0,1-.27-9.45l27.41-30.81a7,7,0,0,1,5-2.31,7.06,7.06,0,0,1,5.07,2Zm-.72,5V209a4.17,4.17,0,0,0-1.21-2.92l-24.88-24.88a4.1,4.1,0,0,0-2.92-1.22h-.11a4.23,4.23,0,0,0-3,1.38l-27.42,30.84a4.14,4.14,0,0,0,.17,5.67l6.83,6.84a1.32,1.32,0,0,1,0,1.92l-40,40a4.13,4.13,0,0,0,5.84,5.84l40-40a1.37,1.37,0,0,1,2,0l6.83,6.84a4.15,4.15,0,0,0,5.68.16l30.81-27.41A4.25,4.25,0,0,0,1147.72,209.07Z"/><path d="M1142.71,206.75a4.07,4.07,0,0,1,1.07,3,4.27,4.27,0,0,1-1.37,2.87l-25.69,23.09a4.14,4.14,0,0,1-5.7-.14,4.23,4.23,0,0,1,.16-6l25.69-23.09A4.12,4.12,0,0,1,1142.71,206.75Zm-1.68,2.84a1.41,1.41,0,0,0-1.38-1.46,1.39,1.39,0,0,0-.94.36L1113,231.58a1.42,1.42,0,0,0-.11,2,1.4,1.4,0,0,0,2,.11l25.68-23.12A1.44,1.44,0,0,0,1141,209.59Z"/><path d="M1135.41,199.42a4.28,4.28,0,0,1,1.21,3,4.12,4.12,0,0,1-1.27,2.89l-24.83,24a4.14,4.14,0,0,1-5.76-6l24.86-24A4.16,4.16,0,0,1,1135.41,199.42Zm-1.55,3a1.5,1.5,0,0,0-.38-1,1.41,1.41,0,0,0-2,0l-24.83,24a1.3,1.3,0,0,0-.41,1,1.23,1.23,0,0,0,.39,1,1.37,1.37,0,0,0,1.92,0l24.83-24A1.31,1.31,0,0,0,1133.86,202.37Z"/><path d="M1128.19,192.21a4.19,4.19,0,0,1,.11,5.84l-24,24.82a4.12,4.12,0,0,1-2.89,1.27h-.08a4.09,4.09,0,0,1-2.87-1.16l0,0a4.12,4.12,0,0,1-.06-5.79l24-24.82A4.13,4.13,0,0,1,1128.19,192.21Zm-1.88,3.94a1.38,1.38,0,0,0,0-1.93,1.41,1.41,0,0,0-1-.42,1.27,1.27,0,0,0-1,.42l-24,24.82a1.37,1.37,0,0,0,0,1.93l-.94,1,1-1a1.45,1.45,0,0,0,1,.39,1.41,1.41,0,0,0,1-.42Z"/><path d="M1120.91,185a4.12,4.12,0,0,1,.3,5.81l-23.09,25.71a4.11,4.11,0,0,1-3.08,1.35,4,4,0,0,1-2.76-1.05l-.16-.16a4.11,4.11,0,0,1-.14-5.68l23.09-25.68a4.12,4.12,0,0,1,2.87-1.38A4,4,0,0,1,1120.91,185Zm-1.73,4a1.4,1.4,0,0,0-.11-1.95,1.27,1.27,0,0,0-.91-.36h-.09a1.34,1.34,0,0,0-.93.47L1094,212.79a1.37,1.37,0,0,0,0,1.9l-.88,1.08.94-1.05a1.36,1.36,0,0,0,1.93-.08Z"/><path d="M1064.81,262.86a3.41,3.41,0,0,1,0,4.85l-4.27,4.27a3.38,3.38,0,0,1-2.43,1,3.34,3.34,0,0,1-2.42-1,3.47,3.47,0,0,1,0-4.88l4.27-4.24A3.48,3.48,0,0,1,1064.81,262.86Zm-2,2.92a.69.69,0,0,0,0-1,.65.65,0,0,0-.47-.2.68.68,0,0,0-.49.2l-4.27,4.27a.75.75,0,0,0,0,1,.62.62,0,0,0,1,0Z"/><path d="M1606,545.33a1.38,1.38,0,0,1-.33,1.4,18.85,18.85,0,0,1-11.79,5.49,4.07,4.07,0,0,0,.24-.47,2.26,2.26,0,0,0-.41-2.29,16.51,16.51,0,0,0,9.31-4,4.43,4.43,0,0,0-3.19-2.32,1.31,1.31,0,0,1-1-.72,1.32,1.32,0,0,1,0-1.24,2.83,2.83,0,0,0-.14-2.14c-.58-1.27-2.09-2.32-4.38-3.09-1,2-3.44,6.78-3.64,11.08a14.89,14.89,0,0,0-1.49-.75,1.74,1.74,0,0,0-1,.17h0a.29.29,0,0,0-.2-.08c.53-6.15,4.36-12.49,4.55-12.79A1.4,1.4,0,0,1,1594,533c3.78,1,6.18,2.73,7.2,5a5.8,5.8,0,0,1,.49,2.87A7.86,7.86,0,0,1,1606,545.33Z"/><path d="M1593.77,552.3a15.29,15.29,0,0,1-3.5,19.07,75,75,0,0,1-47.86,18.1H1542c-18.57,0-35.13-7.44-46.62-21a15.32,15.32,0,0,1-3.59-11.19,15,15,0,0,1,1.82-6.09c.72.06,1.33.09,1.79.09a11.05,11.05,0,0,0,1.13-.06,1.09,1.09,0,0,0,.42-.11,12.1,12.1,0,0,0-2.43,6.39,12.49,12.49,0,0,0,3,9.18c11,12.9,26.76,20,44.53,20h.44a72.23,72.23,0,0,0,46.07-17.45,12.56,12.56,0,0,0,1.74-17.33,1.26,1.26,0,0,0,.72.33c.08,0,.46,0,1.07,0a5.3,5.3,0,0,1,.36.58A1.51,1.51,0,0,0,1593.77,552.3Z"/><path d="M1593.69,549.46a2.26,2.26,0,0,1,.41,2.29,4.07,4.07,0,0,1-.24.47h-.14a14.68,14.68,0,0,0-1.68-2.46,2.19,2.19,0,0,0-.2-.22A17,17,0,0,0,1593.69,549.46Z"/><path d="M1593.83,552.22s0,0-.06.08,0-.06,0-.08Z"/><path d="M1593.75,552.22s0,0,0,.08a1.51,1.51,0,0,1-1.4.58,5.3,5.3,0,0,0-.36-.58h.08c.44,0,1,0,1.63-.08Z"/><path d="M1593.72,552.22c-.64,0-1.19.08-1.63.08H1592a14.6,14.6,0,0,0-4.13-4.33,5.7,5.7,0,0,1,0-1.37.78.78,0,0,1,.2-.14h0a14.44,14.44,0,0,1,2.51,1.84v.17l1,1.07h.16a2.19,2.19,0,0,1,.2.22A14.68,14.68,0,0,1,1593.72,552.22Z"/><path d="M1593.69,549.46a17,17,0,0,1-1.85.08,15.76,15.76,0,0,0-1.21-1.24,8.83,8.83,0,0,1,0-1.26A9.88,9.88,0,0,1,1593.69,549.46Z"/><path d="M1592,552.3c-.61,0-1,0-1.07,0a1.26,1.26,0,0,1-.72-.33,2.63,2.63,0,0,0-.3-.38,13,13,0,0,0-1.71-1.69,1.73,1.73,0,0,1-.28-.6,7,7,0,0,1,0-1.3A14.6,14.6,0,0,1,1592,552.3Z"/><path d="M1591.84,549.54h-.16l-1-1.07v-.17A15.76,15.76,0,0,1,1591.84,549.54Z"/><path d="M1590.63,547a8.83,8.83,0,0,0,0,1.26,14.44,14.44,0,0,0-2.51-1.84,1.74,1.74,0,0,1,1-.17A14.89,14.89,0,0,1,1590.63,547Z"/><path d="M1589.92,551.56a2.63,2.63,0,0,1,.3.38.35.35,0,0,1-.11-.08l-1.79-1.82a.55.55,0,0,1-.11-.17A13,13,0,0,1,1589.92,551.56Z"/><path d="M1587.9,546.38a.29.29,0,0,1,.2.08.78.78,0,0,0-.2.14Z"/><path d="M1587.93,549.27a1.73,1.73,0,0,0,.28.6,11.91,11.91,0,0,0-2.32-1.46A5.67,5.67,0,0,1,1587,554a5.37,5.37,0,0,1-2.87,3.05,6.48,6.48,0,0,1-8.49-3.11,5.52,5.52,0,0,1-.22-4.22,5,5,0,0,1,1.52-2.17,12.34,12.34,0,0,0-4.74,2.5,47.53,47.53,0,0,1-30,11.47c-7.53,0-17.81-1.93-25.63-11.13a12.48,12.48,0,0,0-8.57-4.39c-.33,0-.69,0-1,0a12.39,12.39,0,0,0-7.58,2.59.68.68,0,0,0,.09-.33,12.79,12.79,0,0,0,0-3,15.25,15.25,0,0,1,19.18,3.44c7.14,8.38,16.59,10.14,23.26,10.14a44.94,44.94,0,0,0,28.44-10.8,15.29,15.29,0,0,1,17.49-1.62v.22c-.49.46-.16,1.29-.16,1.29a.64.64,0,0,0,.14.08A7,7,0,0,0,1587.93,549.27Zm-3.53,3.8a2.44,2.44,0,0,0,.17-.91,3.36,3.36,0,0,0-2.34-3,3.56,3.56,0,0,0-1.32-.25,3.51,3.51,0,0,0-1.44.31,2.85,2.85,0,0,0-1.46,1.54,2.77,2.77,0,0,0,.11,2.09,3.6,3.6,0,0,0,2.07,1.85,3.56,3.56,0,0,0,2.78-.06A2.69,2.69,0,0,0,1584.4,553.07Z"/><path d="M1587.9,546.6a5.7,5.7,0,0,0,0,1.37.64.64,0,0,1-.14-.08S1587.41,547.06,1587.9,546.6Z"/><path d="M1554.84,535.41v18.07a3.46,3.46,0,0,1-6.92,0V540.15h-.8v13.33a3.45,3.45,0,1,1-6.89,0V540.15h-.77v13.33a3.46,3.46,0,0,1-6.91,0V535.41c0-4,2.5-7,7.13-8.49L1537.06,486a39.06,39.06,0,0,1-.27-4.22c0-7.71,2.37-15.54,6.89-15.54s6.89,7.83,6.89,15.54a35.28,35.28,0,0,1-.28,4.3l-2.59,40.81C1552.3,528.38,1554.84,531.36,1554.84,535.41Zm-2.76,18.07V535.41c0-3.8-3.36-5.43-6.17-6.12a1.43,1.43,0,0,1-1.05-1.43l2.7-42a36.21,36.21,0,0,0,.25-4.05c0-7.8-2.45-12.78-4.13-12.78s-4.14,5-4.14,12.78a30,30,0,0,0,.28,4l2.67,42.08a1.36,1.36,0,0,1-1,1.43c-2.81.69-6.17,2.32-6.17,6.12v18.07c0,.75,1.41.75,1.41,0V538.77a1.38,1.38,0,0,1,1.37-1.38h3.53a1.39,1.39,0,0,1,1.38,1.38v14.71c0,.75,1.38.75,1.38,0V538.77a1.4,1.4,0,0,1,1.37-1.38h3.56a1.39,1.39,0,0,1,1.38,1.38v14.71C1550.68,554.23,1552.08,554.23,1552.08,553.48Z"/><path d="M1499.53,545.22a12.79,12.79,0,0,1,0,3,.68.68,0,0,1-.09.33l-.52.41a13.68,13.68,0,0,0-2,2.12v0a1.09,1.09,0,0,1-.42.11,11.05,11.05,0,0,1-1.13.06c-.46,0-1.07,0-1.79-.09.09-.13.17-.3.28-.44a.87.87,0,0,0,.93.28,15.34,15.34,0,0,1,4.63-5,1,1,0,0,0-.27-.63A1.37,1.37,0,0,1,1499.53,545.22Z"/><path d="M1498.9,549l.52-.41a.94.94,0,0,1-.3.44l-1.76,1.82a.72.72,0,0,1-.44.27A13.68,13.68,0,0,1,1498.9,549Z"/><path d="M1499.53,545.22a1.37,1.37,0,0,0-.38.22,1.26,1.26,0,0,0-1.05-.39,13.89,13.89,0,0,0-1.29.86c-.22-4.3-2.57-9-3.61-11-2.35.8-3.86,1.87-4.41,3.11a2.86,2.86,0,0,0-.11,2.15,1.33,1.33,0,0,1,0,1.24,1.38,1.38,0,0,1-1,.72,4.42,4.42,0,0,0-3.17,2.29,16.84,16.84,0,0,0,9.59,4,2.5,2.5,0,0,0-.5,1.46,1.27,1.27,0,0,0,.31.85c-.11.14-.19.31-.28.44a19,19,0,0,1-11.76-5.51,1.3,1.3,0,0,1-.33-1.4,7.91,7.91,0,0,1,4.29-4.52,5.5,5.5,0,0,1,.5-2.87c1-2.23,3.42-3.88,7.19-5a1.42,1.42,0,0,1,1.55.61C1495.21,532.87,1499,539.13,1499.53,545.22Z"/><path d="M1499.15,545.44a1,1,0,0,1,.27.63,15.34,15.34,0,0,0-4.63,5,.87.87,0,0,1-.93-.28,11.65,11.65,0,0,1,1.65-2.26h.25l1-1.07a1.31,1.31,0,0,0,0-.28,2.7,2.7,0,0,1,.3-.27A12.65,12.65,0,0,1,1499.15,545.44Z"/><path d="M1498.1,545.05a1.26,1.26,0,0,1,1.05.39,12.65,12.65,0,0,0-2,1.46,2.7,2.7,0,0,0-.3.27,7.57,7.57,0,0,0,0-1.26A13.89,13.89,0,0,1,1498.1,545.05Z"/><path d="M1496.81,545.91a7.57,7.57,0,0,1,0,1.26,9.12,9.12,0,0,0-1.3,1.35c-.36,0-.85,0-1.46,0A11.34,11.34,0,0,1,1496.81,545.91Z"/><path d="M1496.81,547.17a1.31,1.31,0,0,1,0,.28l-1,1.07h-.25A9.12,9.12,0,0,1,1496.81,547.17Z"/><path d="M1494.05,548.47c.61,0,1.1,0,1.46,0a11.65,11.65,0,0,0-1.65,2.26,1.27,1.27,0,0,1-.31-.85A2.5,2.5,0,0,1,1494.05,548.47Z"/><path d="M1496.26,401.84v14.3a1.37,1.37,0,0,1-1.38,1.38h-3.75l.17-1.19a1.41,1.41,0,0,0-.33-1.1,1.47,1.47,0,0,0-1-.47h3.58V403.22h-18.82a1.37,1.37,0,0,0,1.38-1.38v-1.38h18.82A1.39,1.39,0,0,1,1496.26,401.84Z"/><path d="M1492.81,359.35a1.35,1.35,0,0,1,0,2l-16.75,16.75v22.4h-2.75V377.51a1.31,1.31,0,0,1,.41-1l16.17-16.21-2.17-2.17-17.5,17.5v24.82h-2.76V375.17a1.19,1.19,0,0,1,.09-.47,1.06,1.06,0,0,1,.33-.61l18.87-18.87a1.3,1.3,0,0,1,1-.42,1.27,1.27,0,0,1,1,.42Z"/><path d="M1491,415.23a1.41,1.41,0,0,1,.33,1.1l-.17,1.19h-56l-.17-1.19a1.41,1.41,0,0,1,.33-1.1,1.46,1.46,0,0,1,1-.47h53.65A1.47,1.47,0,0,1,1491,415.23Z"/><path d="M1491.13,417.52l-10.05,74.62a1.38,1.38,0,0,1-1.35,1.18h-33.24a1.41,1.41,0,0,1-1.37-1.18l-10-74.62h2.78l3.88,28.77,6,44.28h30.8l5.76-42.74,4.08-30.31Z"/><path d="M1470.25,430.2c7.33,3.27,11.65,10.41,10.69,17.19a12.94,12.94,0,0,1-.39,1.85,1.28,1.28,0,0,1-.63.82,10.65,10.65,0,0,1-3.5,1.22l-.61.08a8.88,8.88,0,0,1-1.21.08c-2.7,0-6.78-1-10.39-5.76-4.85-6.45-9.31-9.62-13.14-9.51a1.27,1.27,0,0,1-1.27-.74,1.39,1.39,0,0,1,.14-1.49c4.38-5.51,12.92-7.08,20.31-3.77Zm7.82,17.71c1.33-5.81-2.42-12.29-9-15.21-5.29-2.39-11.22-1.87-15.1,1.1,3.94,1.08,8.1,4.5,12.4,10.23,3.39,4.49,7.16,4.82,9.09,4.6A7.93,7.93,0,0,0,1478.07,447.91Z"/><path d="M1476.06,400.46v1.38a1.37,1.37,0,0,1-1.38,1.38h-5.84a1.37,1.37,0,0,1-1.38-1.38v-1.38h8.6Z"/><path d="M1468.84,403.22h-36.15v11.54h3.58a1.46,1.46,0,0,0-1,.47,1.41,1.41,0,0,0-.33,1.1l.17,1.19h-3.78a1.37,1.37,0,0,1-1.38-1.38v-14.3a1.39,1.39,0,0,1,1.38-1.38h36.15v1.38A1.37,1.37,0,0,0,1468.84,403.22Z"/><path d="M1299.1,261.81c.14,1.79-1.35,3.28-3.66,3.69-1.82.33-3.7.58-5.68.8a8,8,0,0,0-.72-1.84,1.31,1.31,0,0,0-1.18-.72c2.51-.25,4.85-.55,7.08-1,1-.16,1.41-.57,1.41-.74,0-.55-2.26-2.75-11.85-3a1.54,1.54,0,0,0,.88-.44,1.47,1.47,0,0,0,.36-1.07,9.28,9.28,0,0,0-.17-1.21C1294,256.68,1298.85,258.64,1299.1,261.81Z"/><path d="M1289.76,266.3a8.69,8.69,0,0,1,.3,2.23c0,3.86-2.23,6.89-5.09,6.89h-1.38a8.55,8.55,0,0,0,.36-.93,1.34,1.34,0,0,0-.2-1.24,1.27,1.27,0,0,0-1.1-.58H1285c1.1,0,2.34-1.71,2.34-4.14a5.88,5.88,0,0,0-.33-2l1-.08Z"/><path d="M1289.76,266.3l-1.79.17-1,.08c-1.27.11-2.51.17-3.72.22-.69,0-1.38.06-2.07.06-4.9.11-9.34-.14-13.39-.36-5.15-.31-9.59-.55-13.39,0-6,.91-11.41.34-16.62-.22l-3.11-.33a37.11,37.11,0,0,0-11.91.39c-7,1.65-13,.8-17.36.16-2.53-.38-4.71-.68-5.65-.24a16.68,16.68,0,0,1-6.88,1.15,49.77,49.77,0,0,1-13-1.95l-.94-.25-.71-.17a20.45,20.45,0,0,0-2.12-.41,5.39,5.39,0,0,1,1.57-2,1.32,1.32,0,0,1,1.15-.25c.56.11,1.13.28,1.8.44,8.21,2.32,15.4,2.23,18,1,1.71-.8,4-.47,7.25,0,4.16.6,9.84,1.4,16.34-.14a39.21,39.21,0,0,1,12.78-.41q1.57.12,3.15.33c5,.52,10.27,1.07,15.92.22,4.08-.64,8.66-.36,14-.06a130.72,130.72,0,0,0,19.76,0h.14a1.31,1.31,0,0,1,1.18.72A8,8,0,0,1,1289.76,266.3Z"/><path d="M1285.74,257.54a1.47,1.47,0,0,1-.36,1.07,1.54,1.54,0,0,1-.88.44h-.09a.5.5,0,0,0-.16,0l-5.62-.09c-.55,0-1.13,0-1.74,0-1.21,0-2.53,0-3.91,0-9-.06-21.83-.08-38.19-.06-22.38.06-44.23.17-49.52.2l-1.19,0a1.26,1.26,0,0,1-1-.46,1.23,1.23,0,0,1-.36-1c0-.33.08-.69.11-1,.33-.08.66-.14,1-.19l1.46-.06h.36c5.84,0,27.28-.14,49.16-.19,16.14,0,28.85,0,37.91.05l7.61.09c1.54,0,2.92,0,4.08.08h.19l1,0A9.28,9.28,0,0,1,1285.74,257.54Z"/><path d="M1285.57,256.33l-1,0h-.19c-1.16,0-2.54-.06-4.08-.08l2.51,0a33.54,33.54,0,0,0-33.35-28.87H1219a33.53,33.53,0,0,0-33.34,28.9h-.36l-1.46.06c-.33.05-.66.11-1,.19A36.27,36.27,0,0,1,1219,224.61h30.5A36.23,36.23,0,0,1,1285.57,256.33Z"/><path d="M1284.41,259.05h-.08c-1.54,0-3.44-.08-5.7-.11l5.62.09A.5.5,0,0,1,1284.41,259.05Z"/><path d="M1283.75,273.25a1.34,1.34,0,0,1,.2,1.24,8.55,8.55,0,0,1-.36.93h-98.73a8.55,8.55,0,0,1-.36-.93,1.5,1.5,0,0,1,.16-1.27,1.41,1.41,0,0,1,1.13-.55h96.86A1.27,1.27,0,0,1,1283.75,273.25Z"/><path d="M1280.67,275.42h2.92a36.4,36.4,0,0,1-34.12,23.7H1219a36.36,36.36,0,0,1-34.11-23.7h2.92A33.7,33.7,0,0,0,1219,296.36h30.5A33.72,33.72,0,0,0,1280.67,275.42Z"/><path d="M1281.19,266.83c.69,0,1.38,0,2.07-.06C1282.54,266.8,1281.88,266.83,1281.19,266.83Z"/><path d="M1276.89,258.92c-1.21,0-2.53,0-3.91,0C1274.36,258.89,1275.68,258.89,1276.89,258.92Z"/><path d="M1272.7,256.13c-9.06-.05-21.77-.08-37.91-.05C1251,256.05,1263.64,256.05,1272.7,256.13Z"/><path d="M1262.23,231.75a1.73,1.73,0,0,1,1.74,1.73,1.75,1.75,0,0,1-1.74,1.77h-1.82a1.78,1.78,0,0,1-1.76-1.77,1.75,1.75,0,0,1,1.76-1.73Z"/><path d="M1251.79,237.84a.94.94,0,0,1,.91.93.93.93,0,0,1-.91.94h-1a.93.93,0,0,1-.94-.94.94.94,0,0,1,.94-.93Z"/><path d="M1248.92,229.87a.93.93,0,0,1,.94.91,1,1,0,0,1-.94,1h-1a1,1,0,0,1-.94-1,.93.93,0,0,1,.94-.91Z"/><path d="M1235.28,238.77a1,1,0,0,1,.94.94.93.93,0,0,1-.94.94h-1a1,1,0,0,1-.94-.94,1,1,0,0,1,.94-.94Z"/><path d="M1232.47,229.05a1.75,1.75,0,0,1,0,3.5h-1.82a1.75,1.75,0,1,1,0-3.5Z"/><path d="M1212.77,237.84a1,1,0,0,1,.94.93.93.93,0,0,1-.94.94h-1a.93.93,0,0,1-.94-.94.94.94,0,0,1,.94-.93Z"/><path d="M1211.34,229.87a.92.92,0,0,1,.93.91,1,1,0,0,1-.93,1h-1a1,1,0,0,1-1-1,1,1,0,0,1,1-.91Z"/><path d="M1180.2,272.67h5.59a1.41,1.41,0,0,0-1.13.55,1.5,1.5,0,0,0-.16,1.27,8.55,8.55,0,0,0,.36.93h-4.66c-2.84,0-5.07-3-5.07-6.89a8.33,8.33,0,0,1,.94-3.91,20.45,20.45,0,0,1,2.12.41l.71.17a5.54,5.54,0,0,0-1,3.33C1177.88,271,1179.1,272.67,1180.2,272.67Z"/><path d="M1183.07,258.59a1.26,1.26,0,0,0,1,.46,53.9,53.9,0,0,0-9.39,2.59,34.86,34.86,0,0,1,4.1.72,1.32,1.32,0,0,0-1.15.25,5.39,5.39,0,0,0-1.57,2,22.82,22.82,0,0,0-3.28-.3,1.85,1.85,0,0,1-1.93-3c.88-2.2,6.8-3.83,12-4.82,0,.33-.09.69-.11,1A1.23,1.23,0,0,0,1183.07,258.59Z"/><path d="M1430.12,322.26v22.26a13.77,13.77,0,0,1-13.75,13.75h-4.44l3.89,13.72a1.31,1.31,0,0,1-.5,1.46c-.3.25-7.74,5.79-13.83,5.79H1336.4c-6.11,0-13.55-5.54-13.86-5.79a1.34,1.34,0,0,1-.49-1.46l6-21.24H1318c-4.3,0-4.71-6.17-5.21-13.34-.38-5.51-.82-11.71-3-14.38s-8.24-3-10.42-3a1.5,1.5,0,0,1-1-.41,1.3,1.3,0,0,1-.42-1V308.45a1.33,1.33,0,0,1,1-1.32c.69-.2,17-4.3,25.63,4.68a26.57,26.57,0,0,1,6.2,10.72c1,3,1.49,4.3,4,4.46l6.34-22.26a1.36,1.36,0,0,1,1.32-1h52.94a1.32,1.32,0,0,1,1.32,1l1.08,3.77h18.57A13.76,13.76,0,0,1,1430.12,322.26Zm-2.76,22.26V322.26a11,11,0,0,0-11-11h-19.62a1.37,1.37,0,0,1-1.32-1l-1.08-3.75h-50.84l-6.34,22.3a1.39,1.39,0,0,1-1.32,1h-.41c-5.07,0-6.09-2.95-7.28-6.37a24.25,24.25,0,0,0-5.56-9.7c-6.34-6.64-18.33-4.87-21.91-4.16v7.75c2.7.13,8.52.74,11.19,4s3.25,9.76,3.66,16c.33,4.54.77,10.77,2.48,10.77h11.88a1.43,1.43,0,0,1,1.1.55,1.47,1.47,0,0,1,.22,1.22l-6.25,22c2,1.32,7.24,4.68,11.43,4.68h65.09c4.16,0,9.48-3.33,11.41-4.68l-4.11-14.52a1.27,1.27,0,0,1,.22-1.21,1.32,1.32,0,0,1,1.1-.56h6.26A11,11,0,0,0,1427.36,344.52Z"/><path d="M1422.73,322.26v22.26a6.37,6.37,0,0,1-6.36,6.37H1408a1.36,1.36,0,0,1-1.32-1l-9.18-32.26a1.39,1.39,0,0,1,.25-1.22,1.36,1.36,0,0,1,1.07-.52h17.53A6.35,6.35,0,0,1,1422.73,322.26ZM1420,344.52V322.26a3.58,3.58,0,0,0-3.61-3.61h-15.68l8.35,29.48h7.33A3.61,3.61,0,0,0,1420,344.52Z"/><path d="M1395.7,300.07a1.34,1.34,0,0,1,.25,1.49,1.39,1.39,0,0,1-1.27.83h-51.5a1.38,1.38,0,0,1-1-2.32,44.52,44.52,0,0,1,20.64-12.23,7.71,7.71,0,0,1-1.76-4.91,7.9,7.9,0,1,1,14,4.91A44.54,44.54,0,0,1,1395.7,300.07Zm-49.16-.44h44.78a43,43,0,0,0-19.43-9.72,1.38,1.38,0,0,1-.41-2.54,5.07,5.07,0,0,0,2.59-4.44,5.14,5.14,0,0,0-10.28,0,5.09,5.09,0,0,0,2.59,4.44,1.35,1.35,0,0,1,.66,1.41,1.41,1.41,0,0,1-1.07,1.13A43.28,43.28,0,0,0,1346.54,299.63Z"/><path d="M1342.08,269.35c13.23,13.2,1.62,25.76.27,27.17a1.2,1.2,0,0,1-.88.38,17.15,17.15,0,0,0-1.6-4.87c0-.06,0-.09,0-.14a12.11,12.11,0,0,0-.5-1.9c-.08-.25-.16-.44-.22-.64L1339,289c-.12-.28-.25-.58-.42-.89l-.14-.27c-.11-.19-.22-.39-.33-.55l-.19-.31c-.11-.19-.22-.35-.36-.55l-.22-.27c-.14-.17-.25-.36-.38-.53l-.2-.19c-.16-.19-.33-.38-.49-.55l-1.55-1.41-.8-.55a1.35,1.35,0,0,1-.6-1.21c.33-7.11,6.69-12.23,7-12.45A1.35,1.35,0,0,1,1342.08,269.35Zm.55,22.46c2.73-4.05,5.68-11.52-1.6-19.54-1.51,1.49-4.43,4.79-4.93,8.84l.3.23.91.74.08.08.8.77.61.69.19.22c.2.22.36.44.53.66l.22.28c.16.25.33.5.49.72l.17.27c.16.28.3.5.44.75l.16.3c.2.41.36.77.53,1.13l.14.38a8.32,8.32,0,0,1,.3.78,20.63,20.63,0,0,1,.6,2.26A1.87,1.87,0,0,1,1342.63,291.81Z"/><path d="M1341.47,296.9a12.8,12.8,0,0,1,.25,3,1.36,1.36,0,0,1-1.13,1.27,28.66,28.66,0,0,1-5.18.49,19,19,0,0,1-11.63-3.63c-7.55-5.6-8.73-15.54-8.79-16a1.29,1.29,0,0,1,.36-1.07,1.37,1.37,0,0,1,1-.47c9.34.19,16.28,2.67,20.67,7.41a17.42,17.42,0,0,1,2.83,4.11,13.62,13.62,0,0,1,.2,1.79,9.92,9.92,0,0,1-.06,1.54,1.38,1.38,0,0,0,.75,1.43,1.46,1.46,0,0,0,.6.14A.15.15,0,0,0,1341.47,296.9Zm-16-1.1c3.55,2.65,8.1,3.58,13.5,2.81a15.24,15.24,0,0,0-3.94-8.87c-3.61-3.86-9.32-6-17-6.42C1318.66,286.19,1320.53,292.19,1325.44,295.8Z"/><path d="M1341.47,296.9a.15.15,0,0,1-.11,0,1.46,1.46,0,0,1-.6-.14,1.38,1.38,0,0,1-.75-1.43,9.92,9.92,0,0,0,.06-1.54,13.62,13.62,0,0,0-.2-1.79A17.15,17.15,0,0,1,1341.47,296.9Z"/><path d="M457.84,479.57c10.87,17.52,7.23,42.43-8.8,60.58a1.51,1.51,0,0,1-1.58.48,1.5,1.5,0,0,1-1.14-1.17,46,46,0,0,0-3-7.8c-2.62-5.68-5.08-11.08-2-13.89a6,6,0,0,1,1.27-.85c.75-.41,2-.6,4.54-.92,3.13-.38,6.35-.79,8.18-2.46s1.89-4.2,0-7.33c-1.17-1.89-3.25-3-5.08-4a26.53,26.53,0,0,1-2.31-1.35,1.66,1.66,0,0,1-.38-2.12,14,14,0,0,1,2.18-2.37l1.2-1.07A13.47,13.47,0,0,0,455,481a1.49,1.49,0,0,1,0-1.17,1.39,1.39,0,0,0,1-.35,1.61,1.61,0,0,0,.47-.69A1.73,1.73,0,0,1,457.84,479.57ZM460,511.49a43.88,43.88,0,0,0-1.48-23.3s0,.09,0,.12a15.38,15.38,0,0,1-2.15,5.72,18.39,18.39,0,0,1-3.28,3.63l-1.2,1c-.19.19-.38.35-.54.51a1.76,1.76,0,0,0,.35.15c2,1.11,4.76,2.59,6.34,5.21,1.71,2.81,2.09,5.09,1.83,6.88a7.41,7.41,0,0,1-2.4,4.46c-2.58,2.3-6.28,2.77-9.88,3.22a21.77,21.77,0,0,0-3.5.6,2.56,2.56,0,0,0-.6.38c-1.39,1.26,1.07,6.66,2.71,10.26.82,1.83,1.68,3.66,2.34,5.49A56.1,56.1,0,0,0,460,511.49Z"/><path d="M456.36,477.36a1.49,1.49,0,0,1,.19,1.45,1.76,1.76,0,0,0-.79.19,1.43,1.43,0,0,0-.72.85,1.79,1.79,0,0,1-1.08-.47,5.58,5.58,0,0,0-2.21-1.36,7.91,7.91,0,0,0-2.52-.41c-2.59,0-5.21,1.2-7.74,2.4-2.37,1.1-4.64,2.18-6.69,2.18a4,4,0,0,1-1.08-.13c-4-.79-5-5.11-5.93-9.66a32.09,32.09,0,0,0-1.36-5.08A13.6,13.6,0,0,0,424,463a1.54,1.54,0,0,1-.32-1.76,1.63,1.63,0,0,1,1.58-.92c11.43.95,21.28,5.68,28.42,13.67A41.31,41.31,0,0,1,456.36,477.36Zm-16.19-.22c2.77-1.3,6.06-2.78,9.59-2.69a38.28,38.28,0,0,0-21.4-10.57c.44.82.76,1.64,1,2.3a39.34,39.34,0,0,1,1.48,5.5c1.05,4.89,1.77,7,3.48,7.29C435.68,479.25,438,478.18,440.17,477.14Z"/><path d="M455.76,479a1.76,1.76,0,0,1,.79-.19,1.61,1.61,0,0,1-.47.69,1.39,1.39,0,0,1-1,.35A1.43,1.43,0,0,1,455.76,479Z"/><path d="M444.4,489a2.11,2.11,0,0,1-.16,3l-.25.25a2.17,2.17,0,0,1-3-.19,2.12,2.12,0,0,1,.19-3l.25-.22A2.1,2.1,0,0,1,444.4,489Z"/><path d="M436.76,549.78a1.56,1.56,0,0,1-.7,1.64,58.58,58.58,0,0,1-32.17,10.14,44.21,44.21,0,0,1-27.53-9.09,1.28,1.28,0,0,1-.41-.54,1.68,1.68,0,0,0,.41.06,1.74,1.74,0,0,0,1.17-.5,1.54,1.54,0,0,0,.19-1.8,1,1,0,0,1,.5.22,4.67,4.67,0,0,0,1.36.63c3.06.88,6.35-1.58,8.84-3.82.54-.47,1.11-1,1.64-1.55a24.18,24.18,0,0,0,1.71-1.86,28.17,28.17,0,0,1,2.65-2.81,6,6,0,0,1,2.15-1.36l.69-.12a.85.85,0,0,1,.32,0,1.56,1.56,0,0,1,1.1.42c.57.53.95,1.48,1.55,3.44l.31,1c.16.47.29,1,.45,1.45.72,2.62,1.54,5.53,3.5,7.29,3.28,2.91,5.46,1.83,6.47.92,1.2-1,2-2.91,2.31-5.49.12-1,.19-2.28.25-3.6.13-2.84.31-6,.91-7.52a1.58,1.58,0,0,1,.92-.94,1.76,1.76,0,0,1,1.33.12,10.78,10.78,0,0,1,1.83,1.39l1.29,1.17a72.33,72.33,0,0,0,7.17,6,21,21,0,0,0,8.49,3.85A1.64,1.64,0,0,1,436.76,549.78Zm-5.47.89c-5.33-2-10-6.35-13.63-9.66l-.7-.67c-.16,1.52-.25,3.25-.28,4.23-.07,1.42-.13,2.78-.29,3.85-.44,3.38-1.54,5.91-3.31,7.49a6.86,6.86,0,0,1-3.89,1.73c-2,.19-4.35-.47-6.82-2.68-2.62-2.34-3.63-5.9-4.35-8.49-.19-.73-.35-1.17-.48-1.61l-.25-.82c-.12-.41-.31-1-.47-1.46-.1.07-.19.16-.32.26-.69.63-1.45,1.54-2.21,2.4s-1.39,1.61-2,2.21-1.17,1.1-1.77,1.64a19.63,19.63,0,0,1-6.88,4.39,43.45,43.45,0,0,0,25.61,4.61A55.89,55.89,0,0,0,431.29,550.67Z"/><path d="M436,530.3a2.17,2.17,0,0,1-.51,2.53,1.8,1.8,0,0,1-.75.44c-.6.32-1.11.92-1.8,1a2.11,2.11,0,0,1-1.8-3.66,1.81,1.81,0,0,1,.72-.41c.6-.35,1.11-.92,1.8-1A2.2,2.2,0,0,1,436,530.3Z"/><path d="M434,505.39a2.12,2.12,0,0,1-.16,3l-.12.13s0,.09,0,.12a2.06,2.06,0,0,1-2.21,2,2.1,2.1,0,0,1-2-2.21,4.69,4.69,0,0,1,.56-2.05,7.35,7.35,0,0,1,1-1.11A2.14,2.14,0,0,1,434,505.39Z"/><path d="M430.91,490.27a2.17,2.17,0,0,1-.18,3,2.13,2.13,0,0,1-3-.19,4.52,4.52,0,0,1-1.45-3.06,2.14,2.14,0,0,1,2.24-2,2.11,2.11,0,0,1,1.92,1.7s0,.07,0,.07C430.63,490,430.76,490.11,430.91,490.27Z"/><path d="M422.93,496.58c5.33,5.94,3.88,16-3.22,22.33a18.81,18.81,0,0,1-11.81,5,3.88,3.88,0,0,1-.7,0,9.39,9.39,0,0,1-1.07,0,13.17,13.17,0,0,1-9-4.23,13.36,13.36,0,0,1-3-11.17,19.84,19.84,0,0,1,18.06-16.17A13.41,13.41,0,0,1,422.93,496.58Zm.09,8.75a9.81,9.81,0,0,0-2.43-6.66,10.17,10.17,0,0,0-7.73-3.22l-.57,0A16.64,16.64,0,0,0,397.23,509a9.79,9.79,0,0,0,10.54,11.81,15.92,15.92,0,0,0,9.82-4.2A15.51,15.51,0,0,0,423,505.33Z"/><path d="M423.24,525.44a2.1,2.1,0,0,1-.19,3,2.12,2.12,0,0,1-3-.16l-.95-1a2.17,2.17,0,0,1,.19-3,2.11,2.11,0,0,1,3,.19Z"/><path d="M419,461.29a1.56,1.56,0,0,1-.47,1.8,24.9,24.9,0,0,0-3.19,3.85c-.47.63-.91,1.26-1.39,1.86a11.61,11.61,0,0,1-1.54,1.71c-1.42,1.26-2.72,1.64-4,1.1a5.3,5.3,0,0,1-2.12-1.54c-1.33-1.36-2.62-2.37-5.78-1.68a8.44,8.44,0,0,0-3.88,1.8,10.84,10.84,0,0,0-2.81,5.49c-.09.45-.22.95-.32,1.49a12.86,12.86,0,0,1-.91,3.28,1.74,1.74,0,0,1-1,.79,1.93,1.93,0,0,1-.41.06,1.54,1.54,0,0,1-.82-.25,5.35,5.35,0,0,1-.76-.47,8.51,8.51,0,0,0-2.52-1.26,11.78,11.78,0,0,0-5,0,1.53,1.53,0,0,1-1.46-.44,1.3,1.3,0,0,1-.25-.35,1.52,1.52,0,0,1,.32-1.89l.6-.57a60.93,60.93,0,0,1,36.15-15.75A1.69,1.69,0,0,1,419,461.29Zm-6.22,3.82.89-1.26a56,56,0,0,0-8,1.83,10.38,10.38,0,0,1,2.93,2.18.93.93,0,0,0,1.77.28,12.56,12.56,0,0,0,1.14-1.26C411.94,466.28,412.38,465.68,412.82,465.11Zm-22,9.75a23.38,23.38,0,0,1,.85-2.71,60.92,60.92,0,0,0-5.36,3.82,11.71,11.71,0,0,1,1.54.28h0a8.22,8.22,0,0,1,2.4,1c.07-.22.1-.44.16-.69C390.57,475.94,390.69,475.34,390.82,474.86Z"/><path d="M416.58,479.54a2.12,2.12,0,0,1-.19,3,2.34,2.34,0,0,1-3.47-.19,2.11,2.11,0,0,1,1.93-3.47A2.18,2.18,0,0,1,416.58,479.54Z"/><path d="M407,531.5a2.1,2.1,0,0,1-.19,3l-.75.69A2.11,2.11,0,1,1,403.2,532l.78-.7a2.32,2.32,0,0,1,1.87-.5A2.19,2.19,0,0,1,407,531.5Z"/><path d="M396,487.46a2.18,2.18,0,0,1,2,2.24,2.87,2.87,0,0,1-1,2.18,2.21,2.21,0,0,1-1.42.54,2.11,2.11,0,0,1-1.55-.7,1.68,1.68,0,0,1-.44-.88,2.07,2.07,0,0,1,.38-2,2.24,2.24,0,0,1,.78-1A1.94,1.94,0,0,1,396,487.46Z"/><path d="M391.64,516.47a3.61,3.61,0,0,1,1,2.53,2.14,2.14,0,0,1-2.24,2,3.17,3.17,0,0,1-1.74-4.67A2.14,2.14,0,0,1,391.64,516.47Z"/><path d="M387.09,530.9a2.09,2.09,0,0,1-.15,3,2.06,2.06,0,0,1-1.27.54,2.08,2.08,0,0,1-2.46-.51,2.1,2.1,0,0,1,.16-3,3.7,3.7,0,0,1,1.48-.82A2.49,2.49,0,0,1,387.09,530.9Z"/><path d="M381.85,504.35a2.12,2.12,0,0,1-.22,4.23,3,3,0,0,0-.5,0,2.12,2.12,0,0,1,.22-4.23A2.85,2.85,0,0,0,381.85,504.35Z"/><path d="M377.5,492.54c.85,1.52,1.51,2.69,1.07,4.3-.28,1-1.29,2.37-3.09,4-.73.63-1.49,1.26-2.12,1.76s-1.36,1.08-2,1.52c-1,.79-2.14,1.61-3.12,2.49-1.58,1.42-3.38,3.38-3.13,5.81.19,1.77,1.55,3.38,4,4.77a11.19,11.19,0,0,0,4.48,1A6.49,6.49,0,0,1,377,519c1.93,1.42,1.26,3.22,0,6.25-2.78,6.5-4.42,11.34-2.15,19.07a11.39,11.39,0,0,0,2.63,5,.81.81,0,0,1,.25.41,1.56,1.56,0,0,0-1.8,2.21,1,1,0,0,1-.57-.29,36.27,36.27,0,0,1-4.07-3.91c-14.68-16.42-14-42.21,1.77-62.73a1.55,1.55,0,0,1,1.26-.6,1.88,1.88,0,0,1,.57.09,1.58,1.58,0,0,1,1,1.61,11.46,11.46,0,0,0,.13,2.75A10.6,10.6,0,0,0,377.5,492.54Zm-2,3.48c.06-.26,0-.51-.79-1.93a15.79,15.79,0,0,1-1.67-3.72,57.56,57.56,0,0,0-6.54,13.54c.95-.82,2-1.58,2.91-2.27.63-.51,1.2-.92,1.67-1.3.85-.69,1.58-1.26,2.24-1.89A8.19,8.19,0,0,0,375.54,496Zm-1.45,28a23.82,23.82,0,0,0,.91-2.46,10.46,10.46,0,0,0-1.54-.19,12.6,12.6,0,0,1-9.35-4.14,40.16,40.16,0,0,0,7,25.26C369.7,535.23,371.53,530,374.09,524Z"/><path d="M377.72,549.69a1.54,1.54,0,0,1-.19,1.8,1.74,1.74,0,0,1-1.17.5,1.68,1.68,0,0,1-.41-.06l0,0a1.56,1.56,0,0,1,1.8-2.21Z"/><path d="M1037.18,170.33a1.76,1.76,0,0,1,1.78,1.78,87.06,87.06,0,0,1-174.12,0,1.77,1.77,0,0,1,1.79-1.78h7a1.77,1.77,0,0,1,1.79,1.78,76.54,76.54,0,0,0,153.07,0,1.77,1.77,0,0,1,1.79-1.78Zm-1.78,3.56H1032a80.08,80.08,0,0,1-160.13,0h-3.39a83.49,83.49,0,0,0,167,0Z"/><path d="M1020.34,170.33a1.79,1.79,0,0,1,1.79,1.78,70.29,70.29,0,0,1-70.21,70.2h0a70.29,70.29,0,0,1-70.21-70.2,1.79,1.79,0,0,1,1.79-1.78Zm-1.82,3.56H885.28a66.64,66.64,0,0,0,133.24,0Z"/><path d="M1008.39,189.66c0,4-2.1,8.38-5.49,8.38s-5.53-4.35-5.53-8.38c0-5.21,3.85-11.31,4-11.56a1.89,1.89,0,0,1,1.53-.82,1.79,1.79,0,0,1,1.5.82C1004.54,178.35,1008.39,184.45,1008.39,189.66Zm-3.56,0a17.73,17.73,0,0,0-1.93-6.85,16.79,16.79,0,0,0-2,6.85c0,2.89,1.39,4.82,2,4.82S1004.83,192.55,1004.83,189.66Z"/><path d="M991.38,209.53c0,3.32-1.79,6.89-4.68,6.89s-4.71-3.57-4.71-6.89c0-4.17,3.07-9,3.18-9.2a1.81,1.81,0,0,1,1.53-.82,1.79,1.79,0,0,1,1.5.82C988.31,200.54,991.38,205.36,991.38,209.53Zm-3.57,0a12.68,12.68,0,0,0-1.11-4.39,12.11,12.11,0,0,0-1.14,4.39,4.3,4.3,0,0,0,1.18,3.32A4.81,4.81,0,0,0,987.81,209.53Z"/><path d="M977.32,189.55c0,4-2.1,8.39-5.53,8.39s-5.49-4.35-5.49-8.39c0-5.2,3.85-11.27,4-11.55a1.87,1.87,0,0,1,3,0C973.47,178.28,977.32,184.35,977.32,189.55Zm-3.57,0a17.65,17.65,0,0,0-2-6.85,17.6,17.6,0,0,0-1.92,6.85c0,2.89,1.39,4.82,1.92,4.82S973.75,192.44,973.75,189.55Z"/><path d="M973.58,226.05c0,3.32-1.79,6.92-4.68,6.92s-4.67-3.6-4.67-6.92c0-4.18,3-9,3.17-9.21a1.82,1.82,0,0,1,1.5-.82,1.79,1.79,0,0,1,1.5.82C970.54,217.06,973.58,221.87,973.58,226.05Zm-3.57,0a11.61,11.61,0,0,0-1.11-4.35,11.78,11.78,0,0,0-1.1,4.35A4.35,4.35,0,0,0,969,229.4,5.13,5.13,0,0,0,970,226.05Z"/><path d="M960.27,209.6c0,3.32-1.78,6.92-4.67,6.92s-4.71-3.6-4.71-6.92c0-4.14,3.07-9,3.21-9.17a1.73,1.73,0,0,1,1.5-.82,1.75,1.75,0,0,1,1.5.82C957.24,200.61,960.27,205.46,960.27,209.6Zm-3.57,0a11.83,11.83,0,0,0-1.1-4.35,11.72,11.72,0,0,0-1.14,4.35,4.25,4.25,0,0,0,1.21,3.36A5.17,5.17,0,0,0,956.7,209.6Z"/><path d="M944.18,226.05c0,3.32-1.78,6.92-4.67,6.92s-4.68-3.6-4.68-6.92c0-4.18,3-9,3.18-9.21a1.84,1.84,0,0,1,3,0C941.15,217.06,944.18,221.87,944.18,226.05Zm-3.57,0a11.78,11.78,0,0,0-1.1-4.35,11.61,11.61,0,0,0-1.11,4.35,1.84,1.84,0,1,0,2.21,0Z"/><path d="M944.18,189.66c0,4-2.1,8.38-5.49,8.38s-5.53-4.35-5.53-8.38c0-5.21,3.85-11.31,4-11.56a1.79,1.79,0,0,1,1.5-.82,1.82,1.82,0,0,1,1.5.82C940.33,178.35,944.18,184.45,944.18,189.66Zm-3.57,0a17.23,17.23,0,0,0-1.92-6.85,17.27,17.27,0,0,0-2,6.85c0,2.89,1.39,4.82,2,4.82S940.61,192.55,940.61,189.66Z"/><path d="M924.2,209.6c0,3.32-1.78,6.92-4.67,6.92s-4.67-3.6-4.67-6.92c0-4.14,3-9,3.17-9.17a1.84,1.84,0,0,1,3,0C921.17,200.61,924.2,205.46,924.2,209.6Zm-3.56,0a11.66,11.66,0,0,0-1.11-4.35,11.64,11.64,0,0,0-1.1,4.35A4.32,4.32,0,0,0,919.6,213,5.09,5.09,0,0,0,920.64,209.6Z"/><path d="M907.22,189.66c0,4-2.1,8.38-5.49,8.38s-5.53-4.35-5.53-8.38c0-5.21,3.85-11.31,4-11.56a1.85,1.85,0,0,1,1.53-.82,1.79,1.79,0,0,1,1.5.82C903.37,178.35,907.22,184.45,907.22,189.66Zm-3.56,0a16.65,16.65,0,0,0-2-6.85,17.39,17.39,0,0,0-1.92,6.85c0,2.89,1.39,4.82,2,4.82S903.66,192.55,903.66,189.66Z"/><path d="M572.42,346.91c2.15,2.89,2.26,6.86.36,11.79-4.41,11.33-20.09,12-25.24,12.24a15.77,15.77,0,0,0-11.46,6.2,1.4,1.4,0,0,1-1.13.58.86.86,0,0,1-.28,0,1.32,1.32,0,0,1-1.07-1.05c-.09-.38-2-9.61,2.83-15.79,2.62-3.33,6.65-5.09,12-5.23,8.77-.25,13-3.61,13.37-6.81.19-1.9-1.1-3.47-3.31-4a1.37,1.37,0,0,1-1.05-1.46,1.39,1.39,0,0,1,1.27-1.24C559.08,342.06,568.45,341.51,572.42,346.91Zm-2.2,10.77c1.54-4,1.54-7.05,0-9.14s-4.13-3-6.61-3.39a6,6,0,0,1,.91,4c-.42,4.08-4.88,8.93-16,9.26-4.47.11-7.8,1.52-9.87,4.16-2.56,3.26-2.81,7.72-2.67,10.64a18,18,0,0,1,11.49-5C555.59,367.82,566.86,366.36,570.22,357.68Z"/><path d="M565.23,387.5a6.18,6.18,0,0,1-.52,2.59,5.81,5.81,0,0,1-3.7,3.09,9.68,9.68,0,0,1-1.84.46c-6.59.91-14,2.32-19.59,5.68a38.69,38.69,0,0,1-14.47,18,25.93,25.93,0,0,0,12-8.84,1.36,1.36,0,0,1,1.59-.47,1.33,1.33,0,0,1,.89,1.43c-1.44,13.26-11.69,19.7-31.36,19.73h-.86c-20,0-33.56-1.4-39.57-17.88a1.34,1.34,0,0,1,.39-1.52l39.05-33.59a1.37,1.37,0,0,1,1.29-.27A58.84,58.84,0,0,1,520,380.69a1.39,1.39,0,0,1,.66,1.57,1.33,1.33,0,0,1-1.38,1c-7.27-.24-12.4,2.35-15.62,5.73.25-.13.47-.24.72-.35a1.26,1.26,0,0,1,.46-.2,2.71,2.71,0,0,1,.61-.24,38.6,38.6,0,0,1,29.76.66c6.28-1.66,12.45-6,17.69-10a9.6,9.6,0,0,1,2.73-1.52c2-.66,5.81-.85,8.49,5.51A12.5,12.5,0,0,1,565.23,387.5Zm-3,1.46c.36-.8.55-2.31-.58-5-2.09-5-4.33-4.22-5.07-4a7.21,7.21,0,0,0-1.9,1.07c-5.65,4.36-12.32,9-19.29,10.67a1.36,1.36,0,0,1-1.21-.31,36.55,36.55,0,0,0-27.59-.6,1.57,1.57,0,0,0-.35.11,2.47,2.47,0,0,0-.33.14c-.06,0-.09.05-.14.05a17.06,17.06,0,0,0-5.93,4.33,1.38,1.38,0,0,1-2.34-1.35c1.82-5.54,7.17-11.74,16.56-13.23a54.1,54.1,0,0,0-5.56-2l-37.76,32.46c5.65,14.22,18.05,15.21,37.48,15.19,15.43,0,24.33-3.95,27.47-12.24-9.12,8.27-21.66,8.21-22.29,8.21a1.38,1.38,0,0,1-1.16-2.09,1.79,1.79,0,0,1,1.08-.83,17.34,17.34,0,0,0,3.77-1l.28-.09.11,0a14.59,14.59,0,0,0,1.54-.75,36.5,36.5,0,0,0,18-19.45,1.43,1.43,0,0,1,.61-1c6.09-3.83,14.11-5.34,21.13-6.33a8.61,8.61,0,0,0,1.38-.36A3,3,0,0,0,562.2,389Z"/><path d="M552.17,429.41a3.49,3.49,0,1,1,0,7H455.31a3.49,3.49,0,0,1,0-7Zm.74,3.5a.74.74,0,0,0-.74-.74H455.31a.72.72,0,0,0-.72.74.74.74,0,0,0,.72.72h96.86A.73.73,0,0,0,552.91,432.91Z"/><path d="M546.16,346c.69,3.69-2.51,8.49-8.51,12.81-3.86,2.76-5.82,5.74-5.82,8.88A9.09,9.09,0,0,0,533,372a1.34,1.34,0,0,1-.41,1.76,1.32,1.32,0,0,1-.8.28,1.38,1.38,0,0,1-1-.44c-1.35-1.44-4.41-5.27-3.94-10.09.35-3.69,2.67-7.11,6.88-10.11,6.92-5,7.44-8.6,7.44-9.59a1.33,1.33,0,0,1,.55-1.1,1.41,1.41,0,0,1,1.19-.25A4.4,4.4,0,0,1,546.16,346ZM536,356.58c6.06-4.35,7.8-8.15,7.44-10.11,0,0,0-.06,0-.08-.82,2.34-3,5.54-8.1,9.2-3.55,2.54-5.48,5.29-5.76,8.16,0,.3,0,.63,0,.93C530.32,362.09,532.22,359.31,536,356.58Z"/><path d="M524.5,357.38a1.3,1.3,0,0,1,.33,1,1.4,1.4,0,0,1-.46,1l-70.88,61a1.35,1.35,0,0,1-1.93-.17,48.25,48.25,0,0,1-2.26-59.93,11.26,11.26,0,0,1-2.61-8.07,10.47,10.47,0,0,1,10.47-9.76,11.19,11.19,0,0,1,8.43,3.83,48.19,48.19,0,0,1,58.91,11.19Zm-71.72,59.91,68.72-59.14a45.35,45.35,0,0,0-55.58-9,1.37,1.37,0,0,1-1.79-.41,8.06,8.06,0,0,0-.52-.64,8.54,8.54,0,0,0-6.45-3,7.58,7.58,0,0,0-5.05,1.85,7.68,7.68,0,0,0-2.67,5.34,8.42,8.42,0,0,0,2.07,6.23,6,6,0,0,0,.55.58,1.39,1.39,0,0,1,.14,1.84A45.45,45.45,0,0,0,452.78,417.29Z"/><path d="M463.85,348.51a1.76,1.76,0,0,1,.25,1.13,1.62,1.62,0,0,1-.55,1,44.6,44.6,0,0,0-5.1,3.78,49.66,49.66,0,0,0-4.49,4.46,1.47,1.47,0,0,1-1,.47h0a1.46,1.46,0,0,1-1-.41c-.19-.2-.3-.28-.41-.42a8.08,8.08,0,0,1,.69-11.38,8.28,8.28,0,0,1,11.35,1A2,2,0,0,0,463.85,348.51Zm-7.19,3.77a46.33,46.33,0,0,1,4-3.08A5.35,5.35,0,0,0,457.3,348,5.07,5.07,0,0,0,454,349.2a5.26,5.26,0,0,0-1,6.61A43.29,43.29,0,0,1,456.66,352.28Z"/><path d="M399.79,594.87a29.43,29.43,0,0,1,0,41.7L358,678.44a1.62,1.62,0,0,1-2.16,0l-15.12-15.12a8.33,8.33,0,0,0-11.82,0L305,687.19a7.27,7.27,0,1,1-10.29-10.26l92.53-92.53a1.56,1.56,0,0,1,2.16,0Zm5.62,20.84A26.4,26.4,0,0,0,397.67,597l-9.42-9.38-65.56,65.56a4.4,4.4,0,0,1,5.43,6.77,11.48,11.48,0,0,1,6.63-2.13,11.3,11.3,0,0,1,8.07,3.35l14,14.06,40.82-40.82A26.34,26.34,0,0,0,405.41,615.71ZM326.7,661.17l.36-.37a4.38,4.38,0,0,1-5.31-.7,4.35,4.35,0,0,1-.7-5.25l-7,6.95a4.51,4.51,0,0,1,2.18-.57,4.29,4.29,0,0,1,3.1,1.3,4.37,4.37,0,0,1,1.3,3.1,4.46,4.46,0,0,1-.57,2.16Zm-.85-3.19a1.38,1.38,0,0,0-2-2,1.41,1.41,0,0,0,0,2A1.43,1.43,0,0,0,325.85,658Zm-14.4,18.46,7-7a4.45,4.45,0,0,1-5.29-.73,4.37,4.37,0,0,1-1.27-3.1,4.22,4.22,0,0,1,.58-2.16l-7,7a4.57,4.57,0,0,1,2.19-.58,4.27,4.27,0,0,1,3.09,1.31A4.42,4.42,0,0,1,311.45,676.44Zm5.74-9.84a1.35,1.35,0,0,0,0-1.94,1.36,1.36,0,0,0-1.91,0,1.46,1.46,0,0,0-.4,1,1.48,1.48,0,0,0,.4,1A1.36,1.36,0,0,0,317.19,666.6ZM302.8,685.06l7-7a4.38,4.38,0,0,1-6-6l-7,6.95a4.24,4.24,0,0,0,6,6Zm5.77-9.83a1.36,1.36,0,0,0,0-2,1.4,1.4,0,0,0-.94-.39,1.45,1.45,0,0,0-1,.39,1.41,1.41,0,0,0,0,2A1.38,1.38,0,0,0,308.57,675.23Z"/><path d="M403.31,612.85a24.46,24.46,0,0,1-7,20.23L358,671.46a1.69,1.69,0,0,1-1.1.43,1.53,1.53,0,0,1-1.06-.43l-6.2-6.2a1.51,1.51,0,0,1,0-2.15l51.14-51.17a1.51,1.51,0,0,1,1.58-.33A1.46,1.46,0,0,1,403.31,612.85Zm-2.88,3.71-47.62,47.61,4,4.07,37.32-37.32A21.31,21.31,0,0,0,400.43,616.56Z"/><path d="M390.32,593.9a4.81,4.81,0,0,1-6.81,6.8,4.8,4.8,0,0,1,0-6.8A4.93,4.93,0,0,1,390.32,593.9Zm-1.64,3.4a1.76,1.76,0,0,0-.52-1.27,1.74,1.74,0,0,0-1.24-.52,1.77,1.77,0,0,0-1.28.52,1.83,1.83,0,0,0,0,2.52,1.78,1.78,0,0,0,3-1.25Z"/><path d="M363.92,769.15v28a11.58,11.58,0,0,1-11.58,11.57H339V829H282.54V774.08l-1.15.14a1.29,1.29,0,0,1-.36.06,2.18,2.18,0,0,1-.39.05c-3.06,0-6.66-2.2-7.66-8.43-1.1-6.89-.16-25.19-.05-27.25l0-.44.13-.44c1.41-4.8,6-13.12,14.11-13.95,6.56-.69,9.65-2.23,10-2.39l.19-.09.11-.13c2-2.29,6.81-4.74,11.49-4.88.3,0,1-.17,2.29-.42a60.2,60.2,0,0,1,11.85-1.43c14.71,0,22.78,8.87,22.78,25l0,10.16A19.23,19.23,0,0,1,344,756l-.86,1.55h9.23A11.57,11.57,0,0,1,363.92,769.15Zm-5.38,23.62V772.54c0-5.57-4.19-10.11-9.37-10.11H339v40.48h10.16C354.35,802.91,358.54,798.36,358.54,792.77Zm-15.46-43.1V739.45c0-14.5-6.91-22.16-20-22.16a57.63,57.63,0,0,0-11.3,1.38,19.75,19.75,0,0,1-2.76.47c-4.38.14-8.9,2.84-9.64,4.19-.47.58-4.27,2.5-11.93,3.3-8.32.86-11.55,11.49-11.69,11.94l0,.11v.13c-.06.8-1.08,20,0,26.65.88,5.45,3.69,6.06,4.87,6.06a3.74,3.74,0,0,0,3.17-1.71c1.38-2.26.91-6.11.44-9.83a29.9,29.9,0,0,1-.33-5.65h.31a14.6,14.6,0,0,1,1.68.13,16.8,16.8,0,0,0,2.34.2,3.66,3.66,0,0,0,2.56-.77c1-.94,1.32-2.68,1.68-4.88a17.85,17.85,0,0,1,1.82-6.15c1.08-1.68,3.64-2.28,5.68-2.28,2.26,0,3.8.69,4.27,1.29s.36,1.74.3,3a15.11,15.11,0,0,0,.19,4.1c.14.52.25,1,.39,1.38.44,1.6.74,2.56,0,7.58-.3,2.12,0,3.74.91,4.79a3.66,3.66,0,0,0,2.87,1.24,6.57,6.57,0,0,0,4.51-2c1.19-1.27.78-2.9.45-4.3-.53-2.15-.72-3.42,1.43-4.58,4-2.15,3.75-5,3.61-6.88a4.12,4.12,0,0,1,.08-1.71c.66-1.41,3.83-2.37,7.74-2.37,4.27,0,8.3,1.15,10,2.86a2.74,2.74,0,0,1,.88,2c0,.56-.08,1.27-.16,2-.23,2.17-.45,4.68.41,6.14a1.93,1.93,0,0,0,1.62,1.08C342,756.26,343.08,750.08,343.08,749.67Zm-6.88,76.55V815.94H285.36v10.28H336.2Zm0-13.09V757.58l-.25-.28-.14-.16a3.73,3.73,0,0,1-.39-.5c-1.35-2.29-1-5.26-.8-7.88l0-.33c0-.3.06-.58.08-.85l.06-.58-.5-.33c-1.21-.86-4-1.68-7.55-1.68a15.45,15.45,0,0,0-4.24.52l-.77.22,0,.8A8.69,8.69,0,0,1,317,755.4l-.66.39.16.74.09.3,0,.17c.39,1.6,1.13,4.55-1.1,6.92a9.28,9.28,0,0,1-6.58,2.86,6.41,6.41,0,0,1-5-2.2c-1.49-1.68-2-4.08-1.57-7.06.6-4.21.47-5,.05-6.39a14,14,0,0,1-.38-1.49,17.85,17.85,0,0,1-.31-5l0-.11v0l0-.94-.94-.11a7.59,7.59,0,0,0-.85,0,6,6,0,0,0-3,.69l-.14.11-.11.17a15.62,15.62,0,0,0-1.43,5.1c-.42,2.53-.83,4.9-2.57,6.5a6.3,6.3,0,0,1-4.46,1.52H288l-1.15,0,.13,1.16.09.66,0,.35c.53,4.19,1.05,8.55-.82,11.66a2.7,2.7,0,0,1-.44.52l-.2.22-.24.28v40.81H336.2Z"/><path d="M321,788.16a2.43,2.43,0,1,1-2.45,2.43A2.43,2.43,0,0,1,321,788.16Z"/><path d="M314.4,774.61a1.66,1.66,0,0,1,1.68,1.68,1.67,1.67,0,1,1-3.33,0A1.66,1.66,0,0,1,314.4,774.61Z"/><path d="M312.44,799a2,2,0,1,1-2,2A2,2,0,0,1,312.44,799Z"/><path d="M300.59,774.61a1.67,1.67,0,0,1,1.66,1.68,1.67,1.67,0,1,1-1.66-1.68Z"/><path d="M300.29,791.55a1.67,1.67,0,1,1-1.68,1.66A1.66,1.66,0,0,1,300.29,791.55Z"/><path d="M1678.32,804.55a1.38,1.38,0,0,1-.69,1.54l-11.16,6.12a1.31,1.31,0,0,1-.66.19H1561.16a1.4,1.4,0,0,1-.66-.19l-11.16-6.12a1.39,1.39,0,0,1,.66-2.59h127A1.4,1.4,0,0,1,1678.32,804.55Zm-12.84,5.1,6.12-3.39H1555.37l6.15,3.39Z"/><path d="M1660.66,800.67a1.38,1.38,0,0,1-1.38,1.37h-91.56a1.37,1.37,0,0,1-1.38-1.37,47.33,47.33,0,0,1,36.54-46c.08-6.18,4.82-11.19,10.61-11.19s10.52,5,10.6,11.19A47.33,47.33,0,0,1,1660.66,800.67Zm-91.57-1.38h88.79a44.56,44.56,0,0,0-35.47-42.16,1.39,1.39,0,0,1-1.1-1.46,7.22,7.22,0,0,0,0-.8c0-4.77-3.53-8.63-7.85-8.63s-7.86,3.86-7.86,8.63c0,.27,0,.52,0,.8a1.36,1.36,0,0,1-1.07,1.46A44.58,44.58,0,0,0,1569.09,799.29Z"/><path d="M1621,754.87s0,.33,0,.41a1.59,1.59,0,0,1-.55,1,1.47,1.47,0,0,1-1,.39,43,43,0,0,0-11.88,0h-.19a1.48,1.48,0,0,1-.88-.3,1.51,1.51,0,0,1-.5-1,3.16,3.16,0,0,1,0-.49c0-4.58,3.37-8.32,7.53-8.32S1621,750.29,1621,754.87Zm-7.55-1.38a44.4,44.4,0,0,1,4.68.25,5,5,0,0,0-4.68-4.44,5.06,5.06,0,0,0-4.69,4.44A44.45,44.45,0,0,1,1613.49,753.49Z"/><path d="M1610.51,757.76a1.33,1.33,0,0,1-.55,1.74c-24.72,14.77-22.07,36.7-22,36.92a1.28,1.28,0,0,1-.33,1.08,1.32,1.32,0,0,1-1,.47h-10.38a1.39,1.39,0,0,1-1.38-1.52c0-.3,3.53-30.45,34.06-39.43A1.33,1.33,0,0,1,1610.51,757.76Zm-25.41,37.45c-.13-4.63.72-18.68,13.92-31-16,9.5-20.28,25.93-21.25,31Z"/><path d="M1642.59,658.5a1.45,1.45,0,0,1,.11,1.31c-.07.14-6.31,14.84-7.62,18.63,1.31,3.79,7.55,18.49,7.62,18.63a1.43,1.43,0,0,1-1.24,2c-9.86.49-22.88-6.36-30.33-10.89-8.11,7.67-18.82,15.24-36.18,15.24-.59,0-9.31-3.32-16.32-11.06a24.08,24.08,0,0,0,5,7.67,1.41,1.41,0,0,1,.23,1.66,1.36,1.36,0,0,1-1.51.7c-15.69-3.3-29.94-14.51-29.94-23.54,0-6,11.21-17.1,25.28-22,1.17-2.68,6.62-12.71,23-12.71a1.39,1.39,0,0,1,1.14.58,1.42,1.42,0,0,1,.19,1.27c0,.07-2.45,7.64,1.68,10.44,11.74,3.67,21.79,10.61,25.6,13.47,6.61-4.19,21.34-12.51,32.06-12A1.43,1.43,0,0,1,1642.59,658.5ZM1632.26,678c.77-2.45,5.16-12.93,7-17.34-10.26.56-23.68,8.46-29.22,12a1.4,1.4,0,0,1-1.61-.07c-6-4.63-15.91-10.63-25.71-13.65a1.29,1.29,0,0,1-.49-.26c-4.37-2.94-3.88-8.78-3.27-11.8-13.65.7-18,9.4-18.72,11.1a1.31,1.31,0,0,1-.91,1.17c-13.75,4.61-24.1,15.08-24.1,19.63,0,6.15,10.19,15.64,23.56,19.73a29.27,29.27,0,0,1-4.91-13,1.4,1.4,0,0,1,1-1.47,3,3,0,0,1,.42,0,1.42,1.42,0,0,1,1.22.7c6.07,10.59,17.17,15.27,18.67,15.87,16.81-.09,27-7.71,34.78-15.19a1.46,1.46,0,0,1,1.73-.19c6.49,4,18.32,10.52,27.6,11-1.87-4.41-6.26-14.89-7-17.34A1.5,1.5,0,0,1,1632.26,678Z"/><path d="M1597.64,619.12c2.36,2.92,2.06,8-.89,15-1.87,4.44.59,9,.61,9a1.4,1.4,0,0,1-1.21,2.08,1.59,1.59,0,0,1-.71-.18c-.32-.19-8-4.7-6-11.62,1.57-5.47,3.51-12.17.35-14.09a1.4,1.4,0,0,1,.47-2.57C1590.49,616.76,1595.07,615.94,1597.64,619.12Zm-3.48,14c2.45-5.89,2.92-10.22,1.31-12.2a3.71,3.71,0,0,0-1.8-1.17c1.61,3.79-.07,9.58-1.47,14.44a5.93,5.93,0,0,0,1.16,5.31A12.54,12.54,0,0,1,1594.16,633.1Z"/><path d="M1578.83,611.32c2.36,2.89,2.05,7.94-.92,15-1.84,4.44.61,9,.64,9a1.36,1.36,0,0,1-.24,1.65,1.39,1.39,0,0,1-1,.43,1.49,1.49,0,0,1-.7-.19c-.33-.19-8-4.7-6-11.62,1.59-5.47,3.53-12.17.35-14.09a1.43,1.43,0,0,1-.66-1.45,1.42,1.42,0,0,1,1.12-1.12C1571.65,608.93,1576.26,608.11,1578.83,611.32Zm-3.49,13.95c2.43-5.89,2.9-10.22,1.31-12.2a3.49,3.49,0,0,0-1.8-1.15c1.59,3.77-.07,9.56-1.49,14.42a6,6,0,0,0,1.19,5.33A12.18,12.18,0,0,1,1575.34,625.27Z"/><path d="M1561.32,619.12c2.36,2.92,2.06,8-.89,15-1.87,4.44.59,9,.61,9a1.4,1.4,0,0,1-1.22,2.08,1.58,1.58,0,0,1-.7-.18c-.32-.19-8-4.7-6-11.62,1.57-5.47,3.51-12.2.35-14.09a1.39,1.39,0,0,1,.45-2.57C1554.17,616.76,1558.75,615.94,1561.32,619.12Zm-3.48,14c2.45-5.89,2.92-10.22,1.31-12.2a3.62,3.62,0,0,0-1.8-1.17c1.61,3.79-.07,9.56-1.48,14.44a6,6,0,0,0,1.17,5.31A12.54,12.54,0,0,1,1557.84,633.1Z"/><path d="M1547.27,666.8a5,5,0,1,1-5,5A5,5,0,0,1,1547.27,666.8Zm2.2,5a2.19,2.19,0,1,0-2.2,2.18A2.19,2.19,0,0,0,1549.47,671.8Z"/><path d="M828.08,218.37a83.39,83.39,0,0,1,3.31,20.25c0,12.57-6.53,21-13.37,23.4V282.9c5.3.58,10.81,2.46,10.81,6.2,0,4.38-7.61,6.37-14.64,6.37s-14.65-2-14.65-6.37c0-3.74,5.51-5.62,10.8-6.2V262c-6.84-2.37-13.37-10.86-13.37-23.4a83.39,83.39,0,0,1,3.31-20.25c1-2.9,10.88-3.12,13.91-3.12S827.06,215.47,828.08,218.37Zm0,20.25a81.09,81.09,0,0,0-3-18.79c-1.13-.5-5.35-1.27-10.89-1.27s-9.78.77-10.91,1.27a81.09,81.09,0,0,0-3,18.79c0,11.6,6.09,19.12,12.1,20.56a1.64,1.64,0,0,1,1.26,1.6v23.64a1.63,1.63,0,0,1-1.54,1.65c-6.48.41-9.26,2.43-9.26,3,0,.77,3.91,3.06,11.35,3.06s11.33-2.29,11.33-3.06c0-.6-2.78-2.62-9.26-3a1.63,1.63,0,0,1-1.54-1.65V260.8a1.67,1.67,0,0,1,1.27-1.62C822,257.77,828.08,250.25,828.08,238.62Z"/><path d="M825.33,238.26a1.66,1.66,0,0,1,1.65,1.66c0,6.64-2.7,17.88-12.79,17.88s-12.78-11.24-12.78-17.88a1.65,1.65,0,0,1,1.65-1.66Zm-1.74,3.31H804.77c.33,3.83,1.85,12.92,9.42,12.92S823.26,245.4,823.59,241.57Z"/><path d="M793.45,216.14v70.4c0,4.27-3.06,8.16-3.2,8.32a1.65,1.65,0,0,1-1.3.61h-25a1.65,1.65,0,0,1-1.29-.61c-.14-.16-3.2-4.05-3.2-8.32v-70.4a17.83,17.83,0,0,1,6.75-14l1.79-1.43a4,4,0,0,0,1.49-3.09V169.37a1.62,1.62,0,0,1,.47-1.15c1.93-1.93,4-2.32,6.5-2.32s4.58.39,6.48,2.32a1.53,1.53,0,0,1,.5,1.15v28.22a4,4,0,0,0,1.48,3.09l1.79,1.43A17.84,17.84,0,0,1,793.45,216.14Zm-3.31,70.4v-70.4a14.51,14.51,0,0,0-5.51-11.44l-1.79-1.46a7.14,7.14,0,0,1-2.73-5.65V170.12c-.88-.69-1.87-.91-3.67-.91a5.4,5.4,0,0,0-3.66.91v27.47a7.14,7.14,0,0,1-2.73,5.65l-1.79,1.43a14.62,14.62,0,0,0-5.51,11.47v70.4a11.08,11.08,0,0,0,2,5.62H788.1A11,11,0,0,0,790.14,286.54Z"/><path d="M721.89,221.28a8.11,8.11,0,0,1-2.37,5.79l-43,43.53a44.06,44.06,0,0,1-36.21,69.14c-.77,0-1.54,0-2.34-.05a44.07,44.07,0,0,1,4.63-88,44.2,44.2,0,0,1,22.29,7.44l43-43.53a8.18,8.18,0,0,1,6.22-2.43,8.25,8.25,0,0,1,7.77,8.13Zm-7,1.19a1.62,1.62,0,0,0,0-2.29,1.67,1.67,0,0,0-1.05-.47h-.08a1.57,1.57,0,0,0-1.16.5l-5.09,5.18a1.59,1.59,0,0,0,0,2.28,1.54,1.54,0,0,0,1.13.44,1.61,1.61,0,0,0,1.15-.46ZM673.2,269.28l38.39-38.88a4.82,4.82,0,0,1-3,1,5,5,0,0,1-3.47-1.4,4.9,4.9,0,0,1-.47-6.45l-38.41,38.88a1.59,1.59,0,0,1-2.12.16A40.81,40.81,0,0,0,642.42,255c-.71,0-1.43,0-2.14,0a40.72,40.72,0,1,0,32.79,16.5A1.64,1.64,0,0,1,673.2,269.28Z"/><path d="M674.47,293.17a33.2,33.2,0,0,1,.06,4.3A34.26,34.26,0,0,1,640.33,330c-.61,0-1.21,0-1.82-.06a34.3,34.3,0,0,1-32.43-36,31.4,31.4,0,0,1,.5-4.27,1.68,1.68,0,0,1,1.73-1.35,1.62,1.62,0,0,1,1.54,1.54,31,31,0,0,0,61.34,3.2,1.66,1.66,0,0,1,3.28.16ZM661,318.69a30.55,30.55,0,0,0,8.41-12.46,34.23,34.23,0,0,1-59.19-3.05A30.95,30.95,0,0,0,661,318.69Z"/><path d="M673.36,710.74v37a35.7,35.7,0,0,1-22.82,33.15,35.22,35.22,0,0,1-25.3,0,35.68,35.68,0,0,1-22.87-33.15v-37a35.5,35.5,0,1,1,71,0Zm-5.09,37v-37a30.4,30.4,0,1,0-60.8,0v37a30.4,30.4,0,1,0,60.8,0Z"/><path d="M650,789.46v34.32a12.17,12.17,0,1,1-24.34,0V789.46a2.59,2.59,0,0,1,3.46-2.4,24.41,24.41,0,0,0,17.41,0,2.54,2.54,0,0,1,2.4.31A2.52,2.52,0,0,1,650,789.46Zm-5.1,34.32V792.92a29,29,0,0,1-14.15,0v30.86a7.08,7.08,0,1,0,14.15,0Z"/><path d="M573.86,696.43a25.75,25.75,0,0,1,17.36,24.08c0,14.21-11.81,25.77-26.37,25.77A26.81,26.81,0,0,1,547.64,740a26.71,26.71,0,0,1-18.54,7.39c-14.56,0-26.43-11.51-26.43-25.67a25.85,25.85,0,0,1,18.84-24.64,29.1,29.1,0,0,1-.25-3.57c0-14.15,11.86-25.66,26.38-25.66s26.42,11.51,26.42,25.66A19,19,0,0,1,573.86,696.43Zm12.27,24.08a20.77,20.77,0,0,0-15.73-19.86,2.58,2.58,0,0,1-1.89-3,18.09,18.09,0,0,0,.46-4.13c0-11.35-9.57-20.57-21.28-20.57s-21.34,9.22-21.34,20.57a19.88,19.88,0,0,0,.61,4.84,2.71,2.71,0,0,1-.3,2,2.52,2.52,0,0,1-1.68,1.12,20.83,20.83,0,0,0-17.21,20.26c0,11.36,9.57,20.58,21.33,20.58a21.56,21.56,0,0,0,16.45-7.54,2.68,2.68,0,0,1,1.88-.92,2.45,2.45,0,0,1,1.89.77,21.69,21.69,0,0,0,15.53,6.57C576.61,741.19,586.13,731.92,586.13,720.51Z"/><path d="M573.86,751.78v1.78c0,6.16-2.85,11.76-7.18,14.46l-11.36,58.91a7.65,7.65,0,0,1-7.07,6h-.36a7.57,7.57,0,0,1-7.43-6L529.1,768c-4.33-2.65-7.18-8.3-7.18-14.46a2.9,2.9,0,0,1,.87-2.09,2.57,2.57,0,0,1,2-.81,30.79,30.79,0,0,0,21.59-5,2.56,2.56,0,0,1,2.75-.11,30.1,30.1,0,0,0,15.69,4.33,32.86,32.86,0,0,0,5.95-.56,2.5,2.5,0,0,1,2.14.51A2.63,2.63,0,0,1,573.86,751.78Zm-5.14,3a33.56,33.56,0,0,1-3.87.2,35.86,35.86,0,0,1-16.91-4.22,35.49,35.49,0,0,1-18.89,5.39c-.56,0-1.17,0-1.78-.05.61,3.77,2.59,6.78,5.14,8a2.49,2.49,0,0,1,1.48,1.83L545.5,826a2.33,2.33,0,0,0,2.24,1.88H548a2.39,2.39,0,0,0,2.29-1.88l11.61-60.09a2.49,2.49,0,0,1,1.48-1.83C566.32,762.67,568.41,759,568.72,754.73Z"/><path d="M1023.56,394.89c-14.42-7-32.39-8.3-49.44-3.56A77,77,0,0,0,950,402.87c-19.62-15.3-38.78-13.19-48.61-10.51-27.76,7.62-49.49,37.23-49.49,67.36,0,26.32,11.79,50.83,33.37,69.11a111.8,111.8,0,0,0,15.14,10.61l.62.36c1.59.93,3.19,1.8,4.84,2.63l.67.3a98,98,0,0,0,11.33,4.9l1.08.41c1.54.51,3.09,1,4.68,1.54l1.5.41c1.65.52,3.29.93,5.3,1.45l.67.15c2,.46,4,.93,6.08,1.29l1.23.15c1.6.31,3.25.52,4.9.72l2,.26c1.5.16,3,.26,4.48.36l1.91.16c2.11.1,4.22.2,6.33.2s4.33-.1,6.44-.2l1.9-.16c1.55-.1,3-.2,4.59-.41h.36l1.6-.21c1.75-.2,3.45-.46,5.61-.82,0,0,.51-.1.57-.1,2-.36,4-.78,6-1.29l1.54-.36c1.5-.36,3-.77,4.49-1.24l1.75-.51c1.54-.47,3.09-1,5-1.7l.77-.26c1.91-.72,3.81-1.49,5.67-2.26l.77-.36c1.6-.73,3.14-1.45,4.69-2.22l1.34-.72c1.44-.72,2.88-1.55,4.63-2.52l.62-.36a108.76,108.76,0,0,0,10-6.7l.88-.67c1.33-1,2.62-2.11,4.27-3.5a2.64,2.64,0,0,0,.41-.36,95,95,0,0,0,8.55-8.34l.41-.47c1.19-1.34,2.32-2.67,3.56-4.22l.41-.51c12.61-16.07,19.31-34.92,19.31-54.54A72.53,72.53,0,0,0,1023.56,394.89Zm16.32,115.56-.46.61c-1,1.29-2.11,2.58-3.24,3.81l-.36.42a90.56,90.56,0,0,1-8,7.87l-.72.62c-1.18,1-2.42,2-3.86,3.14l-.62.47a96.36,96.36,0,0,1-9.42,6.28l-.93.57c-1.34.77-2.68,1.49-4.17,2.26l-1.13.57c-1.45.77-2.94,1.44-4.43,2.11l-.72.36c-1.75.72-3.56,1.44-5.36,2.16l-.57.21c-.05,0-.51.15-.51.15-1.44.52-2.88,1-4.38,1.45l-1.65.51c-1.39.41-2.83.83-4.27,1.19l-1.39.36c-1.91.41-3.81.82-6.13,1.23,0,0-.51.11-.51.11-1.65.25-3.3.51-5,.72l-1.49.15-.41.05c-1.39.16-2.83.31-4.28.41l-1.85.11c-4,.2-8.09.2-12,0l-1.8-.11c-1.45-.1-2.89-.25-4.28-.41l-1.85-.2c-1.6-.16-3.14-.42-4.64-.67l-1.18-.16c-2-.36-3.86-.77-5.77-1.23l-.93-.21c-1.59-.41-3.14-.82-4.68-1.29l-1.44-.41c-1.5-.46-2.94-.93-4.74-1.6l-.72-.25a115,115,0,0,1-10.71-4.59l-.57-.31c-1.6-.77-3.09-1.59-4.58-2.47l-.62-.36A101,101,0,0,1,889.1,524c-20-17-31.05-39.81-31.05-64.27,0-27.5,19.72-54.48,45-61.38,9-2.48,26.77-4.38,44.9,10.81a3.15,3.15,0,0,0,3.91.05,69.78,69.78,0,0,1,23.95-11.89c15.6-4.33,32-3.2,45.06,3.14a66.37,66.37,0,0,1,37.08,59.27C1057.91,478,1051.68,495.46,1039.88,510.45Z"/><path d="M1033.76,433.61a49.58,49.58,0,0,0-20.14-18.23c-14.47-7.05-33.73-4-49.13,7.88a3,3,0,0,0-.67,4.12c.93,1.44,1.86,2.88,2.73,4.43,1.86,3,11.69,28.94,1.86,53.35a1.65,1.65,0,0,0-.16.52l-.26.56a3.06,3.06,0,0,0,1,3.71c10.2,7.31,23.9,12.67,37.24,12.67a40.76,40.76,0,0,0,20-4.89l1.34-.78c.87-.56,1.8-1.13,2.68-1.75a3,3,0,0,0,.77-.82,67.27,67.27,0,0,0,8.6-20.34c.1-.57.2-1.19.41-2.17.16-.61.26-1.28.36-1.9s.21-1.34.31-2.06.21-1.6.31-2.73l.1-1.29c.11-1.34.16-2.73.16-4.17A49.21,49.21,0,0,0,1033.76,433.61Zm1.23,29.87-.15,1.49c0,.72-.11,1.45-.21,2.17s-.15,1.23-.26,1.85-.2,1.13-.41,2.11c-.1.52-.2,1-.31,1.55a59.94,59.94,0,0,1-7.46,17.92c-.57.41-1.24.77-2,1.23l-.93.52c-14.88,8.24-35.22,2.83-48.71-6,10-26.42-.36-53.66-2.73-57.67-.42-.73-.88-1.45-1.29-2.17,8.24-5.66,17.46-8.65,26.11-8.65a32.24,32.24,0,0,1,14.21,3.14,43.34,43.34,0,0,1,24.26,38.78C1035.15,461,1035.1,462.24,1035,463.48Z"/><path d="M994.93,518.22a86,86,0,0,1-35.12-14.47,3,3,0,0,0-3.92.31c-7.1,7.05-16.48,12.62-28.06,16.74l-.47.15v0a3.1,3.1,0,0,0-2.21,2.89,3.15,3.15,0,0,0,2.11,3A94.19,94.19,0,0,0,958,532a92.86,92.86,0,0,0,37.75-7.88,3.09,3.09,0,0,0-.77-5.87Zm-57.16,5.25a78,78,0,0,0,20.59-13.23A92.45,92.45,0,0,0,983.65,522,89.31,89.31,0,0,1,937.77,523.47Z"/><path d="M953,468.73a1.44,1.44,0,0,0,.46-.05,3.09,3.09,0,0,0,2.63-2.83c.1-1.19.15-2.32.15-3.92,0-1.08-.05-2.11-.1-3.14a65.21,65.21,0,0,0-1.8-12,3,3,0,0,0-3.09-2.31,3,3,0,0,0-2.94,2.47,24.43,24.43,0,0,0-.41,2.68c-.1.82-.15,1.59-.21,2.42a36,36,0,0,0,2.42,14.73A3.19,3.19,0,0,0,953,468.73Z"/><path d="M943.64,488.76c-17.15-20.23-19.11-40.88-5.82-61.38a2.18,2.18,0,0,0,.82-.88,3.13,3.13,0,0,0-.62-4c-9.57-8.29-20.13-11.12-30.64-8.24a32.12,32.12,0,0,0-3.29,1.13l-1.19.47c-.67.31-1.34.61-1.95.92-.31.16-.62.31-1.34.72s-1.14.67-1.75,1l-.93.67-.47.31a15.73,15.73,0,0,0-1.49,1l-1.29,1c-.51.41-1,.82-1.49,1.24s-.72.66-1.24,1.13-.92.87-1.39,1.39a13.71,13.71,0,0,0-1.18,1.23c-.46.47-.88.93-1.29,1.39s-.77.93-1.13,1.4-.77,1-1.13,1.44l-1.08,1.54a13.81,13.81,0,0,0-1,1.5,17.31,17.31,0,0,0-1,1.59c-.31.52-.57,1-.88,1.55l-.93,1.7-.72,1.49c-.25.62-.56,1.24-.82,1.91l-.62,1.49c-.2.67-.46,1.29-.67,1.9l-.31,1-.2.57c-.16.67-.36,1.29-.57,2l-.21.92-.1.52c-.15.72-.31,1.44-.46,2.16l-.11.93c-.15.87-.25,1.75-.36,2.63v.05c-.1,1.18-.15,2.37-.15,3.55,0,17.35,7.21,34.09,20.34,47.22.88.88,1.75,1.75,2.68,2.58a3.07,3.07,0,0,0,2.11.82,1.3,1.3,0,0,0,.41,0c19.31-2.68,33.84-8.44,43.21-17.25A3.18,3.18,0,0,0,943.64,488.76ZM900.79,504c-.51-.47-1-.93-1.44-1.44-12-11.95-18.54-27.14-18.54-42.85,0-1,.05-2,.15-3a18.09,18.09,0,0,1,.31-2.26l.11-.83c.1-.62.2-1.18.36-1.8l.15-.62.16-.67c.1-.56.3-1.13.46-1.7l.2-.61.21-.78c.21-.56.41-1.13.83-2.11l.36-.93c.2-.56.46-1.08.82-1.85l.51-1.13c.31-.52.57-1,.83-1.55l.77-1.28c.31-.52.62-1,.93-1.45a13.36,13.36,0,0,1,.87-1.34c.31-.46.62-.87.93-1.33s.67-.88,1-1.29.67-.83,1-1.24.72-.82,1.13-1.23l1-1.09c.41-.41.83-.77,1.39-1.33l.93-.83c.41-.36.82-.72,1.6-1.34l.77-.62c.41-.3.87-.56,1.29-.87l.46-.31.77-.51,1.44-.83.52-.26.62-.36c.51-.25,1.08-.51,1.75-.77,0,0,.82-.36.87-.41.88-.31,1.75-.62,2.68-.88,7.73-2.11,15.4-.36,22.71,5.15-13.23,21.48-11.43,43.88,5.25,65C928.75,497.06,916.6,501.64,900.79,504Z"/><path d="M795,601.4a15.82,15.82,0,0,1,.43,3.51,11.92,11.92,0,0,1-1.28,5.48c-3.74,12.23-44.91,18.79-83.57,18.79s-79.82-6.56-83.68-19.1a12.23,12.23,0,0,1-.73-8.68L645,523.73a2,2,0,0,1,1.16-1.31,1.88,1.88,0,0,1,1.74.15,7.46,7.46,0,0,0,4,1.2c2.74,0,5.13-1.43,7.44-2.78a20.28,20.28,0,0,1,3.55-1.85,1.91,1.91,0,0,1,2.36,1.08c.81,1.81,1.19,5.36,1.54,8.84a29.26,29.26,0,0,0,1.31,7.71c.12.35.27.73.39,1.12,1.12,3.16,2.66,7.56,7.29,8.49a6.67,6.67,0,0,0,1.47.15c4.32,0,8.1-3.86,9.8-7.41a34.37,34.37,0,0,0,1.58-4.47c1.27-4.17,2.58-8.49,5.79-8.49l.5,0c2.54.23,3.39,3.63,4.13,10.19a33.49,33.49,0,0,0,.73,4.74l.38,1.58c2.24,9,5.64,22.73,14.55,26.2,6.64,2.62,12.31-.62,15.78-8.95,2-4.86,1.62-9.07,1.27-13.12a38.75,38.75,0,0,1-.23-6.33,25.22,25.22,0,0,1,3.51-9.83,1.92,1.92,0,0,1,1.78-.85,1.88,1.88,0,0,1,1.58,1.12c.23.54.58,1.46.89,2.31l.15.39c2.28,6.29,4.52,11.49,9.07,11.49,2.16,0,4.17-1.31,6-3.93,1.23-1.78,1.66-4.36,2.08-7.1.19-1,.43-2.43.66-3.55a1.88,1.88,0,0,1,1.23-1.35,1.91,1.91,0,0,1,1.82.27,18.35,18.35,0,0,1,3.08,3.51c1.89,2.55,4.25,5.71,8,5.71a8.52,8.52,0,0,0,5.13-2,2,2,0,0,1,1.81-.31,2,2,0,0,1,1.24,1.39Zm-4.4,7.56a9.49,9.49,0,0,0,.66-6.68l-14.82-61a11.33,11.33,0,0,1-5,1.24c-5.67,0-8.91-4.32-11-7.22-.46,2.86-1,5.75-2.66,8.11-2.58,3.66-5.67,5.55-9.14,5.55-6.87,0-10-6.9-12.08-12.34a16.49,16.49,0,0,0-1,4.12,35.52,35.52,0,0,0,.23,5.71c.35,4.13.81,9.23-1.58,14.94-4.21,10.1-10.46,12.23-15,12.23a15.85,15.85,0,0,1-5.79-1.16c-10.72-4.21-14.43-19.06-16.86-28.86l-.38-1.58a33,33,0,0,1-.81-5.13,39.74,39.74,0,0,0-1.08-6.33,41,41,0,0,0-1.82,5.17,33.7,33.7,0,0,1-1.81,5c-2.28,4.79-7.25,9.61-13.27,9.61a11.28,11.28,0,0,1-2.24-.23c-6.79-1.39-8.91-7.45-10.07-10.73-.19-.61-.31-.92-.43-1.23-1-2.43-1.23-5.36-1.58-8.76-.11-1.31-.34-3.82-.69-5.67a7.31,7.31,0,0,0-.81.46c-2.59,1.55-5.71,3.4-9.53,3.4a10.43,10.43,0,0,1-3.74-.66L629.9,602.28a8.92,8.92,0,0,0,.54,6.33c2.54,8.26,35.26,16.71,80.13,16.71S788.16,616.87,790.59,609Z"/><path d="M781.26,595v.39a5.79,5.79,0,1,1-11.58,0V595a5.79,5.79,0,0,1,11.58,0Zm-3.86.39V595a2,2,0,0,0-1.93-1.93,2,2,0,0,0-1.93,1.93v.39a1.93,1.93,0,1,0,3.86,0Z"/><path d="M698.73,519.56c3.93,2.63,4.67,8.92,5.17,13.39a36.39,36.39,0,0,0,.58,4.09l.42,1.58c1.89,7.6,5.06,20.34,11.61,22.88,2.55,1,6.29,1.47,9.53-6.29,1.55-3.78,1.24-7.06.93-10.84a42.69,42.69,0,0,1-.23-7.06c.23-3.36,3.32-14.54,8.87-16a5.64,5.64,0,0,1,1.82-.12c1.46.2,3.16,1.16,4.86,3.71a25.93,25.93,0,0,1,1.73,4.16c.81,2.2,2.94,8.11,4.48,8.3.23,0,1-.31,2-1.85.62-.85,1-3.13,1.28-5.1.65-4,1.31-8.1,4.36-9.41,1.81-.81,3.93-.39,6.48,1.27a20.82,20.82,0,0,1,4.63,4.9c1.39,1.89,2.7,3.67,4,3.75.77.07,1.82-.47,3-1.55l-3.12-12.81a15,15,0,0,0-5.67-8.29c-1.59,1.7-9.07,9.1-19.72,11a25.75,25.75,0,0,1-5.44.47c-.93,0-1.85-.12-2.7-.2-10.38-1.08-15.94-5.48-18.4-8A29.43,29.43,0,0,1,698.73,519.56Zm79.56,10a2,2,0,0,1-.51,1.81c-2.43,2.43-4.59,3.59-6.79,3.39-3-.19-4.94-2.77-6.79-5.28a16,16,0,0,0-3.66-4c-1.89-1.23-2.63-1.08-2.82-1-1.12.5-1.7,4.13-2.08,6.52-.43,2.62-.81,5.13-1.93,6.71-1.82,2.55-3.74,3.71-5.71,3.44-3.86-.5-5.94-6.21-7.6-10.8a28.41,28.41,0,0,0-1.35-3.4c-.54-.81-1.55-2.16-2.47-1.93-2.55.66-5.75,8.57-6,12.46a44.58,44.58,0,0,0,.19,6.48c.35,3.94.73,8-1.2,12.66-3,7.14-6.86,9.26-10.45,9.26a10.86,10.86,0,0,1-4-.85c-8.41-3.28-11.89-17.21-13.93-25.5l-.39-1.62a33.79,33.79,0,0,1-.73-4.59c-.66-5.83-1.47-10.73-5-11.08-4.16-.42-5.63,3.55-7.33,9.15a32.33,32.33,0,0,1-1.54,4.32c-1.54,3.24-5.52,7.68-10.15,6.75-4.13-.85-5.48-4.75-6.48-7.56-.19-.5-.35-1-.5-1.43-.73-1.81-1-4.44-1.27-7.48-.39-4.21-1-10.54-3.28-10.92-1.59-.31-3.55.88-5.64,2.12-3.35,2-8,4.71-12.15.15a1.84,1.84,0,0,1-.46-1.77c1.85-7.64,9.37-13.85,16.74-13.85h11.85a1.92,1.92,0,0,1,1.73,1c3.94,7.83,12.62,12.89,22.15,12.89a25.38,25.38,0,0,0,19.14-8.34,1.87,1.87,0,0,1,1.62-.65,1.84,1.84,0,0,1,1.46.88c.19.31,5.06,7.68,19.52,8.3a21.82,21.82,0,0,0,4.63-.43c10.46-1.85,17.71-10,17.79-10.07l.81-.92a1.94,1.94,0,0,1,2.43-.35,19.05,19.05,0,0,1,8.76,11.54Zm-94.26.73c1.23-4.13,3.05-10,7.83-11.54a28,28,0,0,1-18.17-13.15H663c-5.28,0-10.84,4.39-12.69,9.83,1.62,1.16,3.28.43,6.6-1.54,2.16-1.27,4.55-2.7,7.09-2.7a5.61,5.61,0,0,1,1.16.08c5.17.92,5.87,8.06,6.48,14.39a31.52,31.52,0,0,0,1,6.44c.19.5.34,1,.54,1.54,1,2.82,1.77,4.67,3.62,5.06,2.05.42,4.67-2,5.91-4.63A30.5,30.5,0,0,0,684,530.33Z"/><path d="M763.93,565.94v.42a5.79,5.79,0,1,1-11.57,0v-.42a5.79,5.79,0,1,1,11.57,0Zm-3.86.42v-.42a1.93,1.93,0,1,0-3.85,0v.42a1.93,1.93,0,1,0,3.85,0Z"/><path d="M762.62,500.47a1.84,1.84,0,0,1-.46,1.58c-.27.34-7.18,8-17.25,9.76a23.15,23.15,0,0,1-4.55.42,34.83,34.83,0,0,1-15-3.66,2,2,0,0,1-1-1.39,1.9,1.9,0,0,1,.46-1.62s.08-.08.19-.19a2.82,2.82,0,0,1-.58.23,1.8,1.8,0,0,1-1.54,0,1.86,1.86,0,0,1-1-1.12,48.68,48.68,0,0,1-1.28-5.9c-3.35,7.87-11.88,13.5-21.87,13.5-12.85,0-23.31-9.3-23.31-20.76,0-9.87,5-16.2,15-18.83a11.44,11.44,0,0,1,5.21,0,52.25,52.25,0,0,1,3.86-17.09,1.31,1.31,0,0,1,.16-.34c2.5-5.91,6.48-12,12.46-19v-.15a3.34,3.34,0,0,1-.7-1.43,4,4,0,0,1,.12-1.73,6.83,6.83,0,0,0-.16-1,3.68,3.68,0,0,1-.07-1,7.56,7.56,0,0,1-.58-1.81,5.24,5.24,0,0,1,.15-1.85,2.39,2.39,0,0,1,1.35-1.74,10.06,10.06,0,0,1,3-.89l.43-.07a6.12,6.12,0,0,1,2.2-.16,2.31,2.31,0,0,1,2,2.59,1.92,1.92,0,0,1,.47,1.35,2.31,2.31,0,0,0,.15.73,5.26,5.26,0,0,1,.23,3.32l-.11.5a1.62,1.62,0,0,1,.11.54c.19,1.7.5,4.55-1.23,6.33a4.46,4.46,0,0,1-2.94,1.23,86.61,86.61,0,0,0-11,16.82,46.15,46.15,0,0,0-3.43,14.86,8.88,8.88,0,0,1,4.24-.35c7.29,1.12,12.5,5.56,14.66,12.08a32.83,32.83,0,0,1,1.93-5.68c5.56-11.92,18.64-17.32,19.18-17.55a2.15,2.15,0,0,1,1.54,0,2,2,0,0,1,1,1.16c.19.57,4.52,14.08-1,26a31.36,31.36,0,0,1-6.72,9.22,23.67,23.67,0,0,1,5.17-1.46c10.08-1.82,19.18,3,19.57,3.24A2.1,2.1,0,0,1,762.62,500.47Zm-5.32.92c-3.09-1.19-8.72-2.82-14.55-1.77a28.15,28.15,0,0,0-13,6.63A28.5,28.5,0,0,0,744.26,508,28.21,28.21,0,0,0,757.3,501.39Zm-17.17-15c3.66-7.91,2.31-16.94,1.39-21-3.67,1.93-11.46,6.72-15.13,14.63s-2.31,17-1.39,21C728.67,499.15,736.46,494.37,740.13,486.42Zm-21.92,5v-.31c-.07-8.49-4.63-14-12.5-15.24a4.61,4.61,0,0,0-2.7.27,13.23,13.23,0,0,1-2.74.66,2,2,0,0,1-1.46-.47s0,0-.08,0a1.83,1.83,0,0,1-1.24.47c-.11,0-.23,0-.34,0l-1-.23a17.9,17.9,0,0,0-3.27-.47,5.86,5.86,0,0,0-1.47.2c-8.26,2.16-12.08,6.94-12.08,15.08,0,9.34,8.72,16.9,19.45,16.9S718.14,500.66,718.21,491.4Zm-1.35-60c.16-.65.16-.88.08-1a5.56,5.56,0,0,1-.46-2c-.08,0-.12-.16-.2-.27l-.42.07c-.39.08-.89.16-1.31.27a4.09,4.09,0,0,1,.58,2v.5a3.64,3.64,0,0,1,.27,1,3.74,3.74,0,0,1-.16,1.7,2.31,2.31,0,0,1,.54,1.08,2.91,2.91,0,0,1,.12.85,1.78,1.78,0,0,1,.11,1.27,1.4,1.4,0,0,0,.7-.07c.46-.47.19-2.51.11-3.21a5.39,5.39,0,0,1,0-1.54Z"/><path d="M738,602.86a5.79,5.79,0,0,1,0,11.58h-.39a5.79,5.79,0,1,1,0-11.58Zm1.92,5.79a2,2,0,0,0-1.92-1.93h-.39a1.93,1.93,0,1,0,0,3.86H738A2,2,0,0,0,739.93,608.65Z"/><path d="M739.24,580.83a6,6,0,0,1-1.39,3.94,5.7,5.7,0,0,1-9.91-3.94,6,6,0,0,1,1.38-3.89,5.71,5.71,0,0,1,9.92,3.89Zm-3.86,0a1.8,1.8,0,1,0-1.81,1.93A1.75,1.75,0,0,0,735.38,580.83Z"/><path d="M703.36,593.18a5.79,5.79,0,1,1,0,11.57H703a5.79,5.79,0,0,1,0-11.57Zm1.93,5.79a2,2,0,0,0-1.93-1.93H703a1.93,1.93,0,0,0,0,3.86h.39A2,2,0,0,0,705.29,599Z"/><path d="M683.64,571.84a5.79,5.79,0,1,1-5.67,5.79A5.54,5.54,0,0,1,683.64,571.84Zm1.78,5.79a1.77,1.77,0,0,0-1.78-1.93,1.93,1.93,0,0,0,0,3.86A1.77,1.77,0,0,0,685.42,577.63Z"/><path d="M664.85,559.5v.42a5.79,5.79,0,1,1-11.57,0v-.42a5.79,5.79,0,1,1,11.57,0Zm-3.86.42v-.42a1.93,1.93,0,1,0-3.85,0v.42a1.93,1.93,0,1,0,3.85,0Z"/><path d="M661.23,593v.38a5.79,5.79,0,1,1-11.58,0V593a5.79,5.79,0,1,1,11.58,0Zm-3.86.38V593a1.93,1.93,0,1,0-3.86,0v.38a1.93,1.93,0,1,0,3.86,0Z"/><path d="M1260.76,563.51a79.47,79.47,0,0,1-.88,11.76c-4.94,32.36-31.16,62.69-53.22,62.69a25.23,25.23,0,0,1-2.92-.21,39.28,39.28,0,0,1-8.16-1.77,19.49,19.49,0,0,0-6.4-1l-.58-2.65v2.6a38,38,0,0,0-9.93,1.72,27.53,27.53,0,0,1-7,1.3c-21.65,0-50-32.2-54.26-61.55-3-20.91.57-38.34,10-49.11,7.64-8.68,18.73-13,33.08-12.79a51.59,51.59,0,0,1,15.19,2.49,41,41,0,0,0,13.37,2.08c5.83-.1,10.05-1.56,14.1-3,6.3-2.13,12.75-4.37,23.93-1.56C1252.23,520.65,1260.76,542.76,1260.76,563.51Zm-6,11c3.43-22.26-2.34-48.43-28.82-54.94a35,35,0,0,0-8.59-1.19c-4.78,0-8.43,1.3-12.43,2.65a48.41,48.41,0,0,1-15.66,3.23,47.08,47.08,0,0,1-14.88-2.29,47.13,47.13,0,0,0-13.89-2.29c-12.69-.31-22.47,3.54-29.08,11.08-8.43,9.57-11.6,25.49-8.79,44.84,3.79,26.69,30,57.13,49.11,57.13a24.84,24.84,0,0,0,5.56-1.1,41,41,0,0,1,11.34-1.92l.63,0a22.73,22.73,0,0,1,7.91,1.3,37.52,37.52,0,0,0,7.28,1.56C1222.32,634.84,1249.63,607.94,1254.73,574.49Z"/><path d="M1239.64,441.05c3.17,8.74,9.47,30.9-1.87,48.38-8.85,13.63-26.22,21.44-51.71,23.15h-.16a2.62,2.62,0,0,1-2.45-1.66c-.41-1.15-10.5-27.78-.1-46.46,4.79-8.58,13.11-14,24.66-16.18,21.17-4,26.17-7.07,27.36-8.22a2.67,2.67,0,0,1,4.27,1Zm-6.24,45.52c8.95-13.79,5.36-31.27,2.39-40.58-4.84,2.5-13.73,4.94-26.84,7.39-9.94,1.87-17,6.45-21,13.58-7.81,14-2.24,34.18-.26,40.26C1210.35,505.35,1225.75,498.43,1233.4,486.57Z"/><path d="M1157.44,530.17c1,4.47-.67,10.87-4.42,16.7s-8.79,10-13.32,11.08a9.59,9.59,0,0,1-2,.21,7.27,7.27,0,0,1-4-1.1c-5.15-3.27-4.68-12.69,1.09-21.79s14.15-13.48,19.3-10.2A7.74,7.74,0,0,1,1157.44,530.17Zm-4.94,2.7a7,7,0,0,0-.16-1.61,2.68,2.68,0,0,0-1-1.82,2.47,2.47,0,0,0-1.15-.26c-2.5,0-7.18,2.91-11,8.9-4.52,7.07-4.63,13.36-2.7,14.61a2.65,2.65,0,0,0,2.08.16c2.6-.57,6.71-3.49,10-8.79C1151.36,539.74,1152.5,535.63,1152.5,532.87Z"/><path d="M1424.59,734.31c0,.51,0,1,0,1.43a37,37,0,0,1-10.64,24c-9.81,10.08-24.5,14.18-37.12,9.12-13.12,19.29-31.73,30.34-51.3,30.48h0c-38.77,0-70-41.49-70-92.47a2.29,2.29,0,0,1,2.3-2.31h134.8a2.12,2.12,0,0,1,.56,0c.64,0,1.19,0,1.75,0a29.2,29.2,0,0,1,29.75,29.8Zm-4.65,1.2a24.64,24.64,0,0,0-25-26.39c-.69,0-1.33,0-2,.09a5.62,5.62,0,0,1-.92-.09H1260c.92,47.39,29.75,85.61,65.07,85.61,18.88-.18,36.57-11.1,48.86-30a2.33,2.33,0,0,1,3-.83c11.33,5.34,24.73,1.79,33.71-7.42A32.27,32.27,0,0,0,1419.94,735.51Z"/><path d="M1407.13,721.65a18.74,18.74,0,0,1,5.53,14.64,23.55,23.55,0,0,1-6.91,15.48,23.82,23.82,0,0,1-16.81,7.32,19.32,19.32,0,0,1-8-1.75,2.17,2.17,0,0,1-1.24-1.29,2.48,2.48,0,0,1,.09-1.8,107.39,107.39,0,0,0,9.72-35.6,2.25,2.25,0,0,1,2.07-2l.6-.1a10.32,10.32,0,0,1,1.66-.13A18.63,18.63,0,0,1,1407.13,721.65Zm.92,14.41A13.85,13.85,0,0,0,1393.92,721a110.47,110.47,0,0,1-8.89,32.93c6,1.7,12.75-.6,17.45-5.39A19,19,0,0,0,1408.05,736.06Z"/><path d="M1393,799.34a2.34,2.34,0,0,1,2.3,2.3c0,7.78-27.22,19.07-69.77,19.11-43.15,0-70.46-11.33-70.46-19.11a2.31,2.31,0,0,1,2.3-2.3Zm-5,4.6H1262.11c6.63,4.38,26.57,12.21,63,12.21C1361.36,816.1,1381.2,808.46,1388,803.94Z"/><path d="M1360.43,741.36a2.21,2.21,0,0,1-.41,1.7,22.11,22.11,0,0,1-6.45,5.8,23.36,23.36,0,0,1-11.83,3.23,30,30,0,0,1-14.46-4.05c-14.88-8.2-26.12-10.46-33.49-6.82a2.32,2.32,0,0,1-2.48-.28,2.38,2.38,0,0,1-.79-2.35c3.55-13.9,18.1-24,34.68-24C1343.12,714.55,1358.22,726.11,1360.43,741.36Zm-9.21,3.54a17.8,17.8,0,0,0,4.52-3.82c-2.4-12.57-15.29-21.92-30.54-21.92-12.66,0-24,6.63-28.64,16.3a22.39,22.39,0,0,1,5.06-.5c7.6,0,17,3,27.87,9C1340,749.74,1347.59,747,1351.22,744.9Z"/><path d="M1352.37,640.73c0,8.84-3.36,14-6.3,18.51-4.15,6.36-7.42,11.38-.7,25.93a2.31,2.31,0,0,1-.59,2.72,2.27,2.27,0,0,1-1.48.55A2.42,2.42,0,0,1,1342,688c-.65-.42-15.62-10.87-17-23.9-.6-5.48,1.24-10.55,5.48-15.11,14.92-16-1.06-42.09-1.2-42.37a2.18,2.18,0,0,1,.32-2.81,2.24,2.24,0,0,1,2.86-.32C1333.22,604,1352.37,616.37,1352.37,640.73Zm-4.6,0a39.6,39.6,0,0,0-9.53-25.61c3.68,10.14,6.35,25.47-4.47,37.08-3.32,3.54-4.74,7.27-4.28,11.42.64,5.76,4.74,11.14,8.52,15-3-10.92.69-16.44,4.19-21.88C1345.05,652.34,1347.77,648.19,1347.77,640.73Z"/><path d="M1325.2,640.73c0,8.84-3.36,14-6.31,18.51-4.14,6.36-7.41,11.38-.69,25.93a2.2,2.2,0,0,1-.6,2.72,2.15,2.15,0,0,1-1.47.55,2.2,2.2,0,0,1-1.29-.41c-.64-.42-15.66-10.87-17.08-23.9-.6-5.48,1.24-10.55,5.48-15.11,15-16-1.06-42.09-1.2-42.37a2.18,2.18,0,0,1,.32-2.81,2.24,2.24,0,0,1,2.86-.32C1306,604,1325.2,616.37,1325.2,640.73Zm-4.6,0a39.53,39.53,0,0,0-9.49-25.56c3.69,10.18,6.31,25.42-4.51,37-3.32,3.54-4.7,7.27-4.29,11.42.65,5.76,4.79,11.14,8.57,15-3-10.92.65-16.49,4.15-21.88C1317.88,652.34,1320.6,648.19,1320.6,640.73Z"/></svg>