<?xml version="1.0" encoding="UTF-8" standalone="no"?>
<svg
   xmlns:dc="http://purl.org/dc/elements/1.1/"
   xmlns:cc="http://creativecommons.org/ns#"
   xmlns:rdf="http://www.w3.org/1999/02/22-rdf-syntax-ns#"
   xmlns:svg="http://www.w3.org/2000/svg"
   xmlns="http://www.w3.org/2000/svg"
   xmlns:sodipodi="http://sodipodi.sourceforge.net/DTD/sodipodi-0.dtd"
   xmlns:inkscape="http://www.inkscape.org/namespaces/inkscape"
   version="1.1"
   id="svg2"
   xml:space="preserve"
   width="400"
   height="400"
   viewBox="0 0 400 400"
   sodipodi:docname="L2-09.ai"><metadata
     id="metadata8"><rdf:RDF><cc:Work
         rdf:about=""><dc:format>image/svg+xml</dc:format><dc:type
           rdf:resource="http://purl.org/dc/dcmitype/StillImage" /></cc:Work></rdf:RDF></metadata><defs
     id="defs6"><clipPath
       clipPathUnits="userSpaceOnUse"
       id="clipPath18"><path
         d="M 0,300 H 300 V 0 H 0 Z"
         id="path16" /></clipPath><clipPath
       clipPathUnits="userSpaceOnUse"
       id="clipPath26"><path
         d="m 176.736,84.0421 h 55.517 V 51.9297 h -55.517 z"
         id="path24" /></clipPath><clipPath
       clipPathUnits="userSpaceOnUse"
       id="clipPath42"><path
         d="M 41.86,47.1123 H 97.3765 V 15 H 41.86 Z"
         id="path40" /></clipPath><clipPath
       clipPathUnits="userSpaceOnUse"
       id="clipPath94"><path
         d="m 203.197,178.206 h 7.498 V 86.2186 h -7.498 z"
         id="path92" /></clipPath><linearGradient
       x1="0"
       y1="0"
       x2="1"
       y2="0"
       gradientUnits="userSpaceOnUse"
       gradientTransform="matrix(-19.019665,-1.3147073,-1.3147073,19.019665,209.5006,264.39188)"
       spreadMethod="pad"
       id="linearGradient172"><stop
         style="stop-opacity:1;stop-color:#f9c5c6"
         offset="0"
         id="stop164" /><stop
         style="stop-opacity:1;stop-color:#f9c5c6"
         offset="0.122396"
         id="stop166" /><stop
         style="stop-opacity:1;stop-color:#f6aab5"
         offset="0.969444"
         id="stop168" /><stop
         style="stop-opacity:1;stop-color:#f6aab5"
         offset="1"
         id="stop170" /></linearGradient><clipPath
       clipPathUnits="userSpaceOnUse"
       id="clipPath182"><path
         d="M 0,300 H 300 V 0 H 0 Z"
         id="path180" /></clipPath><linearGradient
       x1="0"
       y1="0"
       x2="1"
       y2="0"
       gradientUnits="userSpaceOnUse"
       gradientTransform="matrix(-19.019691,-1.3147092,-1.3147092,19.019691,209.55873,263.5499)"
       spreadMethod="pad"
       id="linearGradient208"><stop
         style="stop-opacity:1;stop-color:#f9c5c6"
         offset="0"
         id="stop200" /><stop
         style="stop-opacity:1;stop-color:#f9c5c6"
         offset="0.122396"
         id="stop202" /><stop
         style="stop-opacity:1;stop-color:#f6aab5"
         offset="0.969444"
         id="stop204" /><stop
         style="stop-opacity:1;stop-color:#f6aab5"
         offset="1"
         id="stop206" /></linearGradient><linearGradient
       x1="0"
       y1="0"
       x2="1"
       y2="0"
       gradientUnits="userSpaceOnUse"
       gradientTransform="matrix(-19.019728,-1.3147117,-1.3147117,19.019728,208.98849,271.80112)"
       spreadMethod="pad"
       id="linearGradient232"><stop
         style="stop-opacity:1;stop-color:#f9c5c6"
         offset="0"
         id="stop224" /><stop
         style="stop-opacity:1;stop-color:#f9c5c6"
         offset="0.122396"
         id="stop226" /><stop
         style="stop-opacity:1;stop-color:#f6aab5"
         offset="0.969444"
         id="stop228" /><stop
         style="stop-opacity:1;stop-color:#f6aab5"
         offset="1"
         id="stop230" /></linearGradient><linearGradient
       x1="0"
       y1="0"
       x2="1"
       y2="0"
       gradientUnits="userSpaceOnUse"
       gradientTransform="matrix(10.868376,1.7529644,1.7529644,-10.868376,190.52963,258.84036)"
       spreadMethod="pad"
       id="linearGradient256"><stop
         style="stop-opacity:1;stop-color:#f5a2b3"
         offset="0"
         id="stop248" /><stop
         style="stop-opacity:1;stop-color:#f5a2b3"
         offset="0.122396"
         id="stop250" /><stop
         style="stop-opacity:1;stop-color:#f6aab5"
         offset="0.989583"
         id="stop252" /><stop
         style="stop-opacity:1;stop-color:#f6aab5"
         offset="1"
         id="stop254" /></linearGradient><clipPath
       clipPathUnits="userSpaceOnUse"
       id="clipPath266"><path
         d="M 0,300 H 300 V 0 H 0 Z"
         id="path264" /></clipPath><linearGradient
       x1="0"
       y1="0"
       x2="1"
       y2="0"
       gradientUnits="userSpaceOnUse"
       gradientTransform="matrix(1.2562884,1.343937,1.343937,-1.2562884,198.57048,275.06821)"
       spreadMethod="pad"
       id="linearGradient294"><stop
         style="stop-opacity:1;stop-color:#f9c5c6"
         offset="0"
         id="stop288" /><stop
         style="stop-opacity:1;stop-color:#f9c5c6"
         offset="0.122396"
         id="stop290" /><stop
         style="stop-opacity:1;stop-color:#fbdcdc"
         offset="1"
         id="stop292" /></linearGradient><linearGradient
       x1="0"
       y1="0"
       x2="1"
       y2="0"
       gradientUnits="userSpaceOnUse"
       gradientTransform="matrix(3.1435134,0,0,-3.1435134,196.10271,274.93494)"
       spreadMethod="pad"
       id="linearGradient318"><stop
         style="stop-opacity:1;stop-color:#f5a2b3"
         offset="0"
         id="stop310" /><stop
         style="stop-opacity:1;stop-color:#f5a2b3"
         offset="0.122396"
         id="stop312" /><stop
         style="stop-opacity:1;stop-color:#f6aab5"
         offset="0.989583"
         id="stop314" /><stop
         style="stop-opacity:1;stop-color:#f6aab5"
         offset="1"
         id="stop316" /></linearGradient><clipPath
       clipPathUnits="userSpaceOnUse"
       id="clipPath328"><path
         d="M 0,300 H 300 V 0 H 0 Z"
         id="path326" /></clipPath></defs><sodipodi:namedview
     pagecolor="#ffffff"
     bordercolor="#666666"
     borderopacity="1"
     objecttolerance="10"
     gridtolerance="10"
     guidetolerance="10"
     inkscape:pageopacity="0"
     inkscape:pageshadow="2"
     inkscape:window-width="640"
     inkscape:window-height="480"
     id="namedview4" /><g
     id="g10"
     inkscape:groupmode="layer"
     inkscape:label="L2-09"
     transform="matrix(1.3333333,0,0,-1.3333333,0,400)"><g
       id="g12"><g
         id="g14"
         clip-path="url(#clipPath18)"><g
           id="g20"><g
             id="g22" /><g
             id="g34"><g
               clip-path="url(#clipPath26)"
               opacity="0.699997"
               id="g32"><g
                 transform="translate(224.6652,78.4993)"
                 id="g30"><path
                   d="m 0,0 c -10.532,6.702 -28.101,7.428 -39.241,1.622 -11.139,-5.807 -11.632,-15.947 -1.1,-22.648 10.532,-6.703 28.101,-7.429 39.241,-1.623 C 10.04,-16.842 10.532,-6.702 0,0"
                   style="fill:#cbcbca;fill-opacity:1;fill-rule:nonzero;stroke:none"
                   id="path28" /></g></g></g></g><g
           id="g36"><g
             id="g38" /><g
             id="g50"><g
               clip-path="url(#clipPath42)"
               opacity="0.699997"
               id="g48"><g
                 transform="translate(89.7886,41.5696)"
                 id="g46"><path
                   d="m 0,0 c -10.532,6.702 -28.101,7.428 -39.241,1.622 -11.139,-5.807 -11.632,-15.947 -1.1,-22.648 10.532,-6.703 28.101,-7.429 39.241,-1.623 C 10.04,-16.842 10.532,-6.702 0,0"
                   style="fill:#cbcbca;fill-opacity:1;fill-rule:nonzero;stroke:none"
                   id="path44" /></g></g></g></g><g
           id="g52"
           transform="translate(248.9788,179.9035)"><path
             d="m 0,0 c -0.728,-5.271 1.51,-13.071 -0.709,-15.013 -2.291,-2.005 -7.296,-4.921 -8.637,-2.752 -1.077,1.742 0.065,10.966 0.065,10.966 0,0 -1.958,-4.361 -3.197,-4.361 -1.911,0 0.541,3.53 1.912,7.645 3.077,2.889 2.834,5.161 3.61,7.897 C -3.682,5.896 0.679,4.916 0,0"
             style="fill:#f9c5c6;fill-opacity:1;fill-rule:nonzero;stroke:none"
             id="path54" /></g><g
           id="g56"
           transform="translate(146.9023,198.5837)"><path
             d="m 0,0 c -4.257,-3.192 -8.223,-10.272 -11.164,-10.062 -3.037,0.217 -8.632,1.721 -8.034,4.2 0.48,1.991 7.836,7.671 7.836,7.671 0,0 -4.476,-1.678 -5.348,-0.798 -1.345,1.357 2.889,2.1 6.777,4.022 4.218,-0.153 5.661,1.619 8.151,2.993 C 1.598,6.765 3.971,2.977 0,0"
             style="fill:#f9c5c6;fill-opacity:1;fill-rule:nonzero;stroke:none"
             id="path58" /></g><g
           id="g60"
           transform="translate(179.2129,261.9417)"><path
             d="m 0,0 c 0,0 -5.697,1.04 -8.677,-6.404 -2.98,-7.444 -6.661,-15.596 -8.59,-21.468 -1.928,-5.872 -4.733,-9.554 -5.784,-11.131 -1.052,-1.578 5.609,-13.849 10.868,-10.781 5.259,3.068 9.641,9.203 10.956,14.374 1.315,5.171 6.486,12.972 7.275,19.195 C 6.837,-9.992 8.852,-1.402 0,0"
             style="fill:#68c3c7;fill-opacity:1;fill-rule:nonzero;stroke:none"
             id="path62" /></g><g
           id="g64"
           transform="translate(165.8029,223.7564)"><path
             d="M 0,0 C 0,0 -4.616,1.344 -5.668,1.811 -6.72,2.279 -7.237,1.344 -8.527,0.818 c -1.29,-0.526 -3.101,-2.571 -4.562,-5.317 -1.461,-2.747 -4.733,-5.435 -5.551,-6.077 -0.818,-0.643 -2.746,-1.344 -3.506,-2.279 -0.76,-0.935 -0.818,-2.571 -0.818,-2.571 0,0 -1.052,-0.935 -1.402,-1.753 -0.351,-0.818 -1.169,-6.019 1.694,-7.655 2.863,-1.636 3.214,-0.584 4.616,0.526 1.403,1.11 5.61,1.753 7.655,2.571 2.045,0.818 1.987,2.162 4.382,3.681 2.396,1.52 5.96,4.032 5.96,4.032 0,0 5.072,3.694 5.487,5.675 C 5.843,-6.369 4.441,-2.396 0,0"
             style="fill:#68c3c7;fill-opacity:1;fill-rule:nonzero;stroke:none"
             id="path66" /></g><g
           id="g68"
           transform="translate(203.7049,76.0357)"><path
             d="m 0,0 c -3.457,-1.704 -4.382,-1.227 -4.382,-1.227 l -0.028,0.701 c -2.09,-0.526 -3.212,-1.837 -4.397,-3.373 -1.185,-1.535 -3.989,-4.817 -9.508,-5.434 -5.525,-0.61 -6.486,1.844 -6.486,2.721 0,0.876 -0.526,1.136 0,3.681 0.526,2.538 2.454,4.992 4.908,6.661 2.454,1.662 6.571,3.857 7.587,4.733 1.01,0.877 2.84,5.168 2.84,5.168 l 7.762,2.847 c 0,0 4.425,-0.701 4.291,-2.321 C 2.454,12.537 3.071,7.587 3.38,6.619 3.681,5.658 3.857,3.464 3.906,3.071 3.948,2.678 3.464,1.711 0,0"
             style="fill:#504f60;fill-opacity:1;fill-rule:nonzero;stroke:none"
             id="path70" /></g><g
           id="g72"
           transform="translate(229.6209,67.8179)"><path
             d="m 0,0 c -0.351,-0.877 -4.733,-4.502 -4.733,-4.502 0,0 -0.175,0.295 -0.582,0.701 -0.933,-0.82 -3.681,-8.119 -11.1,-9.816 -7.425,-1.697 -10.931,1.521 -11.107,2.278 -0.126,0.547 -0.189,1.01 -0.035,2.244 0.056,0.47 0.148,1.052 0.274,1.788 0.462,2.686 5.139,6.543 7.362,8.821 2.216,2.279 4.319,5.498 4.558,7.482 0.231,1.984 0.757,7.187 0.757,7.187 2.223,5.96 14.136,2.244 14.374,0.526 0.239,-1.725 -0.757,-9.76 -0.35,-11.163 0.154,-0.54 0.33,-1.346 0.463,-2.194 V 3.338 C 0.098,1.984 0.217,0.54 0,0"
             style="fill:#504f60;fill-opacity:1;fill-rule:nonzero;stroke:none"
             id="path74" /></g><g
           id="g76"
           transform="translate(229.6209,67.8179)"><path
             d="m 0,0 c -0.351,-0.877 -4.733,-4.502 -4.733,-4.502 0,0 -0.175,0.295 -0.582,0.701 -0.933,-0.82 -3.681,-8.119 -11.1,-9.816 -7.425,-1.697 -10.931,1.521 -11.107,2.278 -0.126,0.547 -0.189,1.01 -0.035,2.244 -0.063,-0.469 0.155,-4.073 6.858,-3.982 6.703,0.084 11.177,4.193 12.754,6.121 1.578,1.928 1.985,3.562 2.925,4.383 0.932,0.82 4.305,3.786 4.901,5.911 C 0.098,1.984 0.217,0.54 0,0"
             style="fill:#636170;fill-opacity:1;fill-rule:nonzero;stroke:none"
             id="path78" /></g><g
           id="g80"
           transform="translate(203.7049,76.0357)"><path
             d="m 0,0 c -3.457,-1.704 -4.382,-1.227 -4.382,-1.227 l -0.028,0.701 c -2.09,-0.526 -3.212,-1.837 -4.397,-3.373 -1.185,-1.535 -3.989,-4.817 -9.508,-5.434 -5.525,-0.61 -6.486,1.844 -6.486,2.721 3.198,-3.071 7.096,-1.887 10.777,0.175 3.681,2.054 5.61,4.382 7.145,5.694 1.536,1.318 5.393,2.847 8.106,3.814 C 3.948,4.032 2.111,5.925 3.38,6.619 3.681,5.658 3.857,3.464 3.906,3.071 3.948,2.678 3.464,1.711 0,0"
             style="fill:#636170;fill-opacity:1;fill-rule:nonzero;stroke:none"
             id="path82" /></g><g
           id="g84"
           transform="translate(210.6946,178.2064)"><path
             d="m 0,0 c -0.089,-10.234 -2.083,-32.16 -1.547,-38.646 0.595,-7.467 -1.279,-48.047 -1.547,-49.356 -0.208,-1.16 -1.934,-3.242 -4.225,-3.986 -0.297,-0.119 -0.594,-0.179 -0.892,-0.238 -2.707,-0.417 -6.635,-0.536 -10.056,2.35 0.179,2.201 -3.094,49.892 -3.718,57.418 -0.595,7.557 -0.952,43.793 -0.774,51.944 L -3.391,20.2 c 0,0 2.707,-9.401 3.331,-16.481 C 0.03,2.796 0.059,1.517 0,0"
             style="fill:#989898;fill-opacity:1;fill-rule:nonzero;stroke:none"
             id="path86" /></g><g
           id="g88"><g
             id="g90" /><g
             id="g102"><g
               clip-path="url(#clipPath94)"
               id="g100"><g
                 transform="translate(209.1475,139.5607)"
                 id="g98"><path
                   d="m 0,0 c 0.595,-7.468 -1.279,-48.047 -1.547,-49.356 -0.208,-1.161 -1.934,-3.243 -4.225,-3.986 0.714,6.544 2.113,25.882 2.113,44.893 0,20.646 -2.291,43.108 -2.291,43.108 2.708,2.41 5.206,3.719 7.497,3.987 C 1.458,28.412 -0.535,6.485 0,0"
                   style="fill:#e2e3ed;fill-opacity:1;fill-rule:nonzero;stroke:none"
                   id="path96" /></g></g></g></g><g
           id="g104"
           transform="translate(202.4806,191.3848)"><path
             d="m 0,0 c 0,0 -1.665,-12.601 0,-15.81 1.665,-3.21 3.886,-6.921 4.324,-11.39 0.439,-4.471 0.368,-23.107 1.61,-33.537 1.243,-10.431 5.197,-34.494 5.373,-38.526 0.175,-4.031 0.526,-11.569 0.613,-14.461 3.243,-2.893 15.335,-1.421 15.335,3.925 0,5.347 3.896,32.931 2.319,42.046 -1.578,9.116 -3.455,10.202 -3.718,13.269 -0.263,3.068 2.805,28.667 3.594,32.888 2.542,6.588 0.906,27.317 -1.636,27.493 C 25.272,6.072 0,0 0,0"
             style="fill:#cccbcb;fill-opacity:1;fill-rule:nonzero;stroke:none"
             id="path106" /></g><g
           id="g108"
           transform="translate(200.8592,187.0426)"><path
             d="m 0,0 -0.138,-0.323 z m 0.198,-14.582 c -0.234,-0.019 -0.494,0.025 -0.767,0.132 -1.304,0.514 -2.866,2.436 -3.215,5.44 -0.19,1.635 -0.633,8.145 -0.609,8.93 l 0.752,-0.02 c -0.022,-0.673 0.406,-7.116 0.603,-8.825 0.336,-2.89 1.829,-4.48 2.75,-4.843 0.266,-0.104 0.487,-0.111 0.616,-0.012 0.182,0.148 0.229,0.555 0.125,1.089 -0.727,3.732 -1.294,12.518 -0.704,12.989 L -0.078,0.437 0.151,0.357 0.003,0.01 0.006,0.017 0.011,0.007 0.314,-0.152 C 0.117,-0.764 0.31,-8.036 1.191,-12.55 1.399,-13.61 1.095,-14.112 0.803,-14.347 0.632,-14.485 0.427,-14.563 0.198,-14.582"
             style="fill:#666667;fill-opacity:1;fill-rule:nonzero;stroke:none"
             id="path110" /></g><g
           id="g112"
           transform="translate(220.1878,174.3037)"><path
             d="m 0,0 c -4.298,-0.354 -7.702,0.355 -10.155,2.119 -3.184,2.291 -3.517,5.504 -3.53,5.639 l 0.748,0.07 c 0.002,-0.03 0.326,-3.037 3.241,-5.126 C -6.649,0.521 -1.987,0.07 4.165,1.37 L 4.32,0.65 C 2.793,0.328 1.352,0.111 0,0"
             style="fill:#666667;fill-opacity:1;fill-rule:nonzero;stroke:none"
             id="path114" /></g><g
           id="g116"
           transform="translate(232.7619,189.3277)"><path
             d="m 0,0 c 0,0 -6.745,-3.863 -18.038,-4.405 -11.293,-0.543 -15.697,0.413 -19.68,2.189 -3.982,1.777 -6.578,4.314 -6.578,4.314 l 0.236,4.309 c 0,0 2.503,-3.267 8.095,-5.084 5.591,-1.818 17.166,-1.438 21.857,-1.087 4.692,0.351 13.336,3.044 13.336,3.044 z"
             style="fill:#a76478;fill-opacity:1;fill-rule:nonzero;stroke:none"
             id="path118" /></g><g
           id="g120"
           transform="translate(208.6732,189.0293)"><path
             d="m 0,0 c 0,0 -0.176,-1.242 -0.068,-2.681 0.107,-1.44 0.444,-4.072 0.444,-4.072 l -1.727,0.089 c 0,0 -0.577,2.513 -0.649,3.794 -0.071,1.282 0.13,3.087 0.13,3.087 z"
             style="fill:#4058a2;fill-opacity:1;fill-rule:nonzero;stroke:none"
             id="path122" /></g><g
           id="g124"
           transform="translate(224.9235,190.689)"><path
             d="M 0,0 C 0,0 0.432,-1.179 0.628,-2.609 0.825,-4.04 1.047,-6.684 1.047,-6.684 l 1.67,0.443 c 0,0 0.039,2.577 -0.16,3.845 -0.199,1.268 -0.773,2.993 -0.773,2.993 z"
             style="fill:#4058a2;fill-opacity:1;fill-rule:nonzero;stroke:none"
             id="path126" /></g><g
           id="g128"
           transform="translate(192.4993,192.7227)"><path
             d="m 0,0 c 0,0 -0.254,-1.542 -0.186,-2.77 0.069,-1.228 0.523,-3.289 0.523,-3.289 l -1.284,1.245 c 0,0 -0.401,2.091 -0.438,2.758 -0.037,0.667 0.382,2.674 0.382,2.674 z"
             style="fill:#4058a2;fill-opacity:1;fill-rule:nonzero;stroke:none"
             id="path130" /></g><g
           id="g132"
           transform="translate(187.8666,185.2595)"><path
             d="m 0,0 c -0.116,-0.01 -0.238,-0.004 -0.363,0.02 l 0.147,0.722 c 0.92,-0.19 1.861,2.212 2.144,3.4 L 2.66,3.978 C 2.56,3.563 1.692,0.14 0,0"
             style="fill:#666667;fill-opacity:1;fill-rule:nonzero;stroke:none"
             id="path134" /></g><g
           id="g136"
           transform="translate(196.1366,189.9446)"><path
             d="m 0,0 c -0.218,0.001 -0.403,-0.057 -0.53,-0.169 -0.131,-0.115 -0.186,-0.278 -0.167,-0.485 l 0.121,-1.226 c 0.059,-0.604 0.746,-1.276 1.471,-1.441 l 3.282,-0.743 c 0.351,-0.079 0.66,-0.031 0.845,0.131 0.13,0.116 0.186,0.279 0.166,0.484 l -0.12,1.227 c -0.06,0.603 -0.747,1.276 -1.47,1.441 L 0.315,-0.038 C 0.205,-0.013 0.099,0 0,0 M 4.669,-5.507 C 4.47,-5.506 4.264,-5.482 4.054,-5.434 l -3.282,0.743 c -1.399,0.317 -2.594,1.573 -2.72,2.859 l -0.12,1.227 c -0.062,0.626 0.136,1.176 0.558,1.549 0.476,0.42 1.185,0.563 1.948,0.389 L 3.72,0.589 C 5.118,0.272 6.313,-0.984 6.439,-2.27 L 6.56,-3.497 C 6.621,-4.123 6.423,-4.673 6.002,-5.046 5.658,-5.35 5.191,-5.509 4.669,-5.507"
             style="fill:#cddcf0;fill-opacity:1;fill-rule:nonzero;stroke:none"
             id="path138" /></g><g
           id="g140"
           transform="translate(233.3038,237.254)"><path
             d="m 0,0 c 0,0 0.818,18.582 -6.661,22.906 -7.48,4.323 -14.258,9.933 -26.762,10.634 -12.505,0.702 -23.023,-2.22 -24.776,-7.947 -1.753,-5.726 -1.636,-17.179 1.636,-26.762 3.273,-9.582 6.808,-16.653 7.158,-18.844 0.351,-2.191 0.088,-4.908 1.49,-7.888 1.403,-2.98 0.351,-5.697 0.702,-7.626 0.35,-1.928 1.227,-3.33 1.139,-4.119 -0.087,-0.789 -0.164,-2.747 0.274,-3.799 0.438,-1.051 5.95,-5.445 18.133,-6.948 7.332,-0.905 27.082,1.719 26.469,6.277 l -0.614,4.558 c 0,0 1.403,0.788 0.614,7.011 -0.789,6.223 -2.717,16.128 -2.717,16.829 C -3.915,-15.017 0,0 0,0"
             style="fill:#0288c9;fill-opacity:1;fill-rule:nonzero;stroke:none"
             id="path142" /></g><g
           id="g144"
           transform="translate(220.8816,193.8454)"><path
             d="m 0,0 c -5.512,-1.39 -15.313,-0.36 -22.503,0.959 -6.806,1.246 -11.767,6.278 -12.295,6.926 -0.79,0.982 -1.317,4.889 -1.869,8.507 -0.311,2.133 -0.647,4.17 -1.006,5.488 -0.216,0.719 -0.479,1.606 -0.743,2.588 -0.384,1.247 -0.815,2.685 -1.27,4.218 -0.983,3.212 -2.109,6.807 -3.14,9.85 -0.072,0.216 -0.144,0.456 -0.239,0.743 -0.503,1.797 -1.031,4.65 -1.438,7.98 -0.575,4.746 -0.911,10.449 -0.623,15.482 v 0.048 c 0.215,3.931 0.838,7.477 2.037,9.826 3.906,7.812 21.209,6.326 32.712,2.3 11.527,-4.05 13.085,-6.758 13.085,-6.758 0,0 -8.268,-1.534 -8.076,-12.965 0.048,-3.187 0.24,-6.183 0.599,-8.915 0.264,-2.301 0.671,-4.458 1.222,-6.399 0.911,-3.475 2.253,-6.327 4.002,-8.459 0.24,-0.312 0.504,-0.599 0.767,-0.887 2.373,-2.445 4.673,-1.39 6.303,0.12 1.438,1.341 2.349,3.019 2.349,3.019 0,0 -0.528,-4.697 -0.384,-8.411 0.024,-1.271 0.144,-2.445 0.384,-3.26 0.311,-1.126 0.695,-2.684 1.054,-4.29 0.671,-2.996 1.271,-6.206 1.391,-7.357 C 12.51,8.604 9.946,2.493 0,0"
             style="fill:#68c3c7;fill-opacity:1;fill-rule:nonzero;stroke:none"
             id="path146" /></g><g
           id="g148"
           transform="translate(210.3111,268.0769)"><path
             d="m 0,0 c 0,0 1.351,-0.526 -1.194,-5.084 -2.546,-4.558 -5.012,-7.375 -7.76,-10.328 -3.032,-3.257 -3.033,-5.998 -6.091,-5.741 -1.022,0.086 -9.355,11.186 -9.238,15.761 C -24.166,-0.818 -9.817,6.311 0,0"
             style="fill:#0288c9;fill-opacity:1;fill-rule:nonzero;stroke:none"
             id="path150" /></g></g></g><g
       id="g152"><g
         id="g154"><g
           id="g160"><g
             id="g162"><path
               d="m 188.019,266.017 c -0.789,-2.629 -1.885,-7.801 7.099,-9.553 v 0 c 8.984,-1.753 13.794,8.204 13.98,9.992 v 0 c 0.22,2.103 -1.402,3.856 -9.218,4.339 v 0 c -0.63,0.039 -1.23,0.057 -1.802,0.057 v 0 c -6.521,0 -9.334,-2.418 -10.059,-4.835"
               style="fill:url(#linearGradient172);stroke:none"
               id="path174" /></g></g></g></g><g
       id="g176"><g
         id="g178"
         clip-path="url(#clipPath182)"><g
           id="g184"
           transform="translate(220.9744,255.0759)"><path
             d="m 0,0 c -3.286,-4.732 -2.432,-12.368 -0.066,-19.818 2.367,-7.451 7.721,-17.286 11.11,-21.61 2.571,-7.363 5.843,-23.432 7.245,-25.185 1.403,-1.753 1.87,-6.193 2.338,-6.953 0.467,-0.76 8.472,-0.922 8.998,0.416 -0.584,6.654 -0.584,7.18 -0.292,8.29 0.292,1.111 1.286,5.61 1.519,8.473 0.234,2.863 -4.148,17.705 -5.668,21.503 -1.519,3.798 -6.427,15.835 -10.167,23.841 C 11.278,-3.038 10.416,-0.305 8.119,2.832 6.042,5.669 1.461,2.104 0,0"
             style="fill:#68c3c7;fill-opacity:1;fill-rule:nonzero;stroke:none"
             id="path186" /></g></g></g><g
       id="g188"><g
         id="g190"><g
           id="g196"><g
             id="g198"><path
               d="m 194.042,269.511 c -7.419,-0.939 -7.362,-6.605 -6.016,-9.704 v 0 c 0.238,-0.554 0.645,-1.116 1.177,-1.641 v 0 c 2.447,-2.44 7.713,-4.137 13.141,-0.638 v 0 c 1.304,0.841 2.342,1.725 3.156,2.587 v 0 c 0.006,0.007 0.013,0.015 0.013,0.015 v 0 c 3.303,3.505 3.078,6.807 3.078,6.807 v 0 c 0.291,1.786 -4.051,2.895 -9.441,2.894 v 0 c -1.639,0 -3.376,-0.102 -5.108,-0.32"
               style="fill:url(#linearGradient208);stroke:none"
               id="path210" /></g></g></g></g><g
       id="g212"><g
         id="g214"><g
           id="g220"><g
             id="g222"><path
               d="m 184.578,272.723 c 1.636,-6.37 6.311,-14.024 7.012,-14.667 v 0 c 0.701,-0.643 0.877,-1.987 4.499,-2.162 v 0 c 3.624,-0.175 11.978,4.9 12.505,10.747 v 0 c -0.584,0.998 -1.753,1.699 -1.753,1.699 v 0 c 0,0 -2.002,1.089 -2.922,2.279 v 0 c 0,0 -2.688,3.156 -3.798,6.486 v 0 c -1.11,3.33 -0.642,8.239 -6.018,8.648 v 0 c -0.149,0.011 -0.299,0.017 -0.449,0.017 v 0 c -5.243,0 -10.666,-6.855 -9.076,-13.047"
               style="fill:url(#linearGradient232);stroke:none"
               id="path234" /></g></g></g></g><g
       id="g236"><g
         id="g238"><g
           id="g244"><g
             id="g246"><path
               d="m 188.902,259.618 0.301,-1.452 c 2.447,-2.44 7.713,-4.137 13.141,-0.638 v 0 c 1.304,0.841 2.342,1.725 3.156,2.587 v 0 c -0.008,-0.007 -0.022,-0.014 -0.029,-0.021 v 0 c -3.148,-2.777 -5.784,-3.337 -7.503,-2.664 v 0 c -1.718,0.666 -2.271,1.97 -1.002,3.155 v 0 c 1.269,1.178 0.708,3.723 0.708,3.723 v 0 z"
               style="fill:url(#linearGradient256);stroke:none"
               id="path258" /></g></g></g></g><g
       id="g260"><g
         id="g262"
         clip-path="url(#clipPath266)"><g
           id="g268"
           transform="translate(195.5634,279.5005)"><path
             d="m 0,0 c 0,0 -1.636,-2.629 0,-5.902 1.636,-3.272 2.586,-5.827 2.586,-7.274 0,-4.295 -6.831,-8.33 -9.51,-9.16 -2.454,-0.759 -7.801,6.209 -9.495,8.955 -1.695,2.747 -3.565,2.63 -4.85,7.83 -1.286,5.2 0.876,8.473 2.863,10.284 C -16.419,6.544 -2.854,14.014 0,0"
             style="fill:#f9c5c6;fill-opacity:1;fill-rule:nonzero;stroke:none"
             id="path270" /></g><g
           id="g272"
           transform="translate(195.4467,271.2617)"><path
             d="m 0,0 -1.286,-1.052 c 0,0 -0.876,1.169 -1.986,1.695 -1.111,0.526 -3.378,0.292 -4.844,1.987 -1.467,1.694 -2.402,3.622 -5.207,3.798 -2.804,0.175 -5.432,-3.043 -8.121,-2.194 l 0.168,-0.998 c 0,0 -2.097,0.095 -2.389,2.198 -0.292,2.104 -0.292,11.745 6.661,15.426 6.953,3.682 11.336,3.039 12.505,2.338 3.914,0.409 7.888,-2.805 8.881,-5.434 0.994,-2.63 1.344,-6.077 2.162,-7.363 C 7.362,9.115 5.898,3.051 6.417,2.241 L 6.937,1.43 c 0,0 -2.029,2.018 -2.847,3.595 C 3.272,6.603 0.25,7.88 -0.576,4.67 -1.402,1.461 0,0 0,0"
             style="fill:#754655;fill-opacity:1;fill-rule:nonzero;stroke:none"
             id="path274" /></g></g></g><g
       id="g276"><g
         id="g278"><g
           id="g284"><g
             id="g286"><path
               d="m 197.346,278.361 c -2.133,-0.38 -2.016,-2.6 -2.016,-2.6 v 0 c 0,0 0.058,-0.321 0.145,-1.315 v 0 c 0.089,-0.993 1.759,-3.673 2.493,-4.09 v 0 c 0.736,-0.417 1.802,-0.146 1.784,1.753 v 0 c -0.011,1.145 0.389,2.474 0.214,4.383 v 0 c -0.124,1.35 -0.363,1.982 -1.556,1.982 v 0 c -0.293,0 -0.644,-0.038 -1.064,-0.113"
               style="fill:url(#linearGradient294);stroke:none"
               id="path296" /></g></g></g></g><g
       id="g298"><g
         id="g300"><g
           id="g306"><g
             id="g308"><path
               d="m 196.879,277.163 c -1.44,-0.352 -0.434,-2.366 -0.434,-2.366 v 0 c 0.266,-0.753 1.222,-2.659 2.04,-2.321 v 0 c 0.818,0.337 0.497,1.357 0.73,3.372 v 0 c 0.144,1.241 -0.228,1.586 -0.872,1.586 v 0 c -0.402,0 -0.91,-0.136 -1.464,-0.271"
               style="fill:url(#linearGradient318);stroke:none"
               id="path320" /></g></g></g></g><g
       id="g322"><g
         id="g324"
         clip-path="url(#clipPath328)"><g
           id="g330"
           transform="translate(63.177,39.9118)"><path
             d="M 0,0 C 3.674,1.837 7.163,4.083 6.047,6.179 5.543,7.126 4.374,7.544 3.242,7.734 -0.146,6.618 -1.837,5.86 -1.837,5.86 c 0,0 0.356,37.311 1.804,45.46 0.478,2.687 -12.366,2.786 -12.366,2.786 -0.459,-1.877 -0.864,-36.056 0,-46.12 0.29,-3.374 0.105,-5.58 -0.142,-7.211 0.876,-0.379 2.68,-1.165 4.025,-1.777 C -6.679,-1.836 -3.673,-1.836 0,0"
             style="fill:#fabfa4;fill-opacity:1;fill-rule:nonzero;stroke:none"
             id="path332" /></g><g
           id="g334"
           transform="translate(50.4863,35.3362)"><path
             d="m 0,0 c 1.227,-2.923 4.059,-2.652 9.782,-0.592 5.08,1.828 9.269,3.895 12.88,6.567 3.611,2.671 3.648,3.026 4.125,4.834 0.668,2.53 -3.024,3.948 -9.165,2.041 -0.607,-0.189 -1.164,-0.369 -1.689,-0.541 1.131,-0.189 2.301,-0.608 2.805,-1.555 C 19.854,8.659 16.365,6.413 12.691,4.576 9.017,2.739 6.011,2.739 4.174,3.574 2.83,4.185 1.026,4.971 0.15,5.351 -0.222,2.895 -0.738,1.756 0,0"
             style="fill:#442e23;fill-opacity:1;fill-rule:nonzero;stroke:none"
             id="path336" /></g><g
           id="g338"
           transform="translate(81.0448,29.5429)"><path
             d="M 0,0 C 3.673,1.837 7.163,4.084 6.047,6.179 5.542,7.126 4.373,7.544 3.242,7.733 -0.146,6.618 -1.837,5.86 -1.837,5.86 c 0,0 0.942,48.507 2.391,56.656 0.478,2.687 -12.41,-1.351 -12.41,-1.351 -0.46,-1.878 -1.407,-43.115 -0.543,-53.179 0.29,-3.374 0.105,-5.58 -0.142,-7.211 0.876,-0.38 2.68,-1.165 4.024,-1.777 C -6.68,-1.836 -3.674,-1.836 0,0"
             style="fill:#fabfa4;fill-opacity:1;fill-rule:nonzero;stroke:none"
             id="path340" /></g><g
           id="g342"
           transform="translate(68.3537,24.9673)"><path
             d="m 0,0 c 1.228,-2.923 4.059,-2.651 9.782,-0.592 5.08,1.828 9.269,3.895 12.88,6.567 3.611,2.671 3.648,3.026 4.125,4.834 0.668,2.53 -3.024,3.948 -9.165,2.041 -0.606,-0.189 -1.164,-0.369 -1.689,-0.541 1.131,-0.189 2.301,-0.608 2.805,-1.555 C 19.854,8.659 16.365,6.413 12.691,4.576 9.017,2.739 6.011,2.739 4.174,3.574 2.83,4.185 1.026,4.971 0.15,5.351 -0.222,2.895 -0.738,1.756 0,0"
             style="fill:#442e23;fill-opacity:1;fill-rule:nonzero;stroke:none"
             id="path344" /></g><g
           id="g346"
           transform="translate(67.6049,253.3277)"><path
             d="M 0,0 C 1.518,-1.054 7.184,-2.356 8.767,-14.838 10.169,-25.895 7.734,-28.775 5.487,-29.712 4.248,-30.229 -0.17,-30.213 -0.17,-30.213 L 0,-39.554 c 0,0 -5.476,-2.165 -10.729,0 l -5.253,2.166 c 0,0 2.052,3.537 1.709,9.66 -0.425,7.595 -3.115,18.41 -1.212,22.431 C -12.046,1.968 -4.121,2.861 0,0"
             style="fill:#fabfa4;fill-opacity:1;fill-rule:nonzero;stroke:none"
             id="path348" /></g><g
           id="g350"
           transform="translate(48.8222,221.7912)"><path
             d="m 0,0 c 0,0 14.956,-4.311 18.775,-5.604 3.607,-1.221 6.489,-3.701 10.256,-11.263 3.766,-7.561 0.989,-19.018 0.989,-19.018 l -1.137,-20.653 c 0,0 -7.815,-9.474 -14.78,-10.141 -9.506,-0.91 -10.542,4.303 -10.542,4.303 0,0 -12.088,26.491 -10.122,39.132 C -4.775,-11.762 0,0 0,0"
             style="fill:#f9e3a7;fill-opacity:1;fill-rule:nonzero;stroke:none"
             id="path352" /></g><g
           id="g354"
           transform="translate(76.7727,242.7775)"><path
             d="m 0,0 c -0.401,-4.287 -3.917,-5.562 -7.05,-8.838 -3.134,-3.275 -3.449,-7.663 -4.399,-10.581 -0.949,-2.918 0.372,-15.947 -4.398,-25.766 -5.083,-10.466 -11.604,-12.734 -11.604,-12.734 0,0 -9.071,13.951 -12.3,30.863 -3.23,16.911 8.433,38.925 21.02,41.584 C -5.363,17.352 0.823,8.797 0,0"
             style="fill:#442e23;fill-opacity:1;fill-rule:nonzero;stroke:none"
             id="path356" /></g><g
           id="g358"
           transform="translate(74.411,209.2312)"><path
             d="m 0,0 c -3.091,0.295 -6.303,-5.328 -5.987,-12.354 0.404,-8.993 19.151,-24.327 19.151,-24.327 6.309,-3.73 25.412,2.294 30.009,2.345 4.929,0.055 11.837,-2.836 13.879,-1.067 2.109,1.827 5.371,5.984 3.533,7.432 -1.476,1.162 -10.085,1.185 -10.085,1.185 0,0 1.566,3.6 1.598,4.718 0.124,4.26 -1.967,-0.492 -4.673,-2.676 -3.012,-2.431 -4.866,-2.474 -7.471,-2.859 -11.673,-1.724 -22.642,0.817 -22.642,0.817 0,0 -11.387,26.222 -17.312,26.786"
             style="fill:#fabfa4;fill-opacity:1;fill-rule:nonzero;stroke:none"
             id="path360" /></g><g
           id="g362"
           transform="translate(59.4183,257.5662)"><path
             d="m 0,0 c 0,0 12.15,-1.012 11.21,-11.533 -0.939,-10.52 -0.906,-12.093 -0.906,-12.093 0,0 2.263,6.266 3.37,11.058 C 14.78,-7.775 13.289,3.224 0,0"
             style="fill:#d8b055;fill-opacity:1;fill-rule:nonzero;stroke:none"
             id="path364" /></g><g
           id="g366"
           transform="translate(73.0918,236.6426)"><path
             d="m 0,0 c 0,0 -3.28,5.619 -4.689,0 -1.31,-5.222 3.241,-6.976 3.241,-6.976 z"
             style="fill:#fabfa4;fill-opacity:1;fill-rule:nonzero;stroke:none"
             id="path368" /></g><g
           id="g370"
           transform="translate(51.4464,169.6597)"><path
             d="m 0,0 c 0,0 -4.214,-12.477 -5.496,-19.878 -3.195,-18.455 -2.144,-59.157 -2.144,-59.157 0,0 16.655,-9.511 28.15,-8.739 16.77,1.126 21.779,8.739 21.779,8.739 0,0 -6.788,39.355 -7.93,47.745 -2.258,16.576 -9.411,32.398 -9.411,32.398 z"
             style="fill:#f9e3a7;fill-opacity:1;fill-rule:nonzero;stroke:none"
             id="path372" /></g><g
           id="g374"
           transform="translate(48.8973,161.5486)"><path
             d="M 0,0 C 0,0 11.227,-3.902 19.268,-1.197 27.31,1.509 29.927,3.212 29.927,3.212 L 28.942,7.84 c 0,0 -5.444,-2.518 -13.881,-3.748 C 7.3,2.961 0.057,6.15 0.057,6.15 Z"
             style="fill:#d8b055;fill-opacity:1;fill-rule:nonzero;stroke:none"
             id="path376" /></g></g></g></g></svg>
