<?xml version="1.0" encoding="UTF-8" standalone="no"?>
<svg
   xmlns:dc="http://purl.org/dc/elements/1.1/"
   xmlns:cc="http://creativecommons.org/ns#"
   xmlns:rdf="http://www.w3.org/1999/02/22-rdf-syntax-ns#"
   xmlns:svg="http://www.w3.org/2000/svg"
   xmlns="http://www.w3.org/2000/svg"
   xmlns:sodipodi="http://sodipodi.sourceforge.net/DTD/sodipodi-0.dtd"
   xmlns:inkscape="http://www.inkscape.org/namespaces/inkscape"
   version="1.1"
   id="svg2"
   xml:space="preserve"
   width="400"
   height="400"
   viewBox="0 0 400 400"
   sodipodi:docname="L2-06.ai"><metadata
     id="metadata8"><rdf:RDF><cc:Work
         rdf:about=""><dc:format>image/svg+xml</dc:format><dc:type
           rdf:resource="http://purl.org/dc/dcmitype/StillImage" /></cc:Work></rdf:RDF></metadata><defs
     id="defs6"><clipPath
       clipPathUnits="userSpaceOnUse"
       id="clipPath18"><path
         d="M 0,300 H 300 V 0 H 0 Z"
         id="path16" /></clipPath><clipPath
       clipPathUnits="userSpaceOnUse"
       id="clipPath26"><path
         d="M 16.7794,176.931 H 274.918 V 24 H 16.7794 Z"
         id="path24" /></clipPath><clipPath
       clipPathUnits="userSpaceOnUse"
       id="clipPath86"><path
         d="m 27.629,197.22 72.82,-36.033 57.293,-33.316 85.015,72.762 -120.71,78.249 z"
         id="path84" /></clipPath><clipPath
       clipPathUnits="userSpaceOnUse"
       id="clipPath386"><path
         d="M 0,300 H 300 V 0 H 0 Z"
         id="path384" /></clipPath><clipPath
       clipPathUnits="userSpaceOnUse"
       id="clipPath430"><path
         d="M 0,300 H 300 V 0 H 0 Z"
         id="path428" /></clipPath><clipPath
       clipPathUnits="userSpaceOnUse"
       id="clipPath438"><path
         d="m 201.68,87.0517 h 9.102 V 75.2983 h -9.102 z"
         id="path436" /></clipPath></defs><sodipodi:namedview
     pagecolor="#ffffff"
     bordercolor="#666666"
     borderopacity="1"
     objecttolerance="10"
     gridtolerance="10"
     guidetolerance="10"
     inkscape:pageopacity="0"
     inkscape:pageshadow="2"
     inkscape:window-width="640"
     inkscape:window-height="480"
     id="namedview4" /><g
     id="g10"
     inkscape:groupmode="layer"
     inkscape:label="L2-06"
     transform="matrix(1.3333333,0,0,-1.3333333,0,400)"><g
       id="g12"><g
         id="g14"
         clip-path="url(#clipPath18)"><g
           id="g20"><g
             id="g22" /><g
             id="g34"><g
               clip-path="url(#clipPath26)"
               opacity="0.699997"
               id="g32"><g
                 transform="translate(274.9178,80.4637)"
                 id="g30"><path
                   d="m 0,0 -175.924,96.467 -67.668,-39.068 c -19.631,-11.334 -19.332,-39.77 0.532,-50.689 l 26.155,-14.376 v -7.906 h 14.382 l 38.641,-21.007 h -0.886 v -9.953 h 18.993 l 5.244,-2.883 c 17.473,-9.604 38.694,-9.381 55.961,0.588 z"
                   style="fill:#cbcbca;fill-opacity:1;fill-rule:nonzero;stroke:none"
                   id="path28" /></g></g></g></g></g></g><g
       id="g36"
       transform="translate(27.6293,197.2199)"><path
         d="m 0,0 0.001,-83.506 13.53,7.811 v 5.866 L 75.48,-75.435 140.874,-100.927 225.81,5.803 94.418,81.662 Z"
         style="fill:#d57028;fill-opacity:1;fill-rule:nonzero;stroke:none"
         id="path38" /></g><g
       id="g40"
       transform="translate(159.0214,121.3606)"><path
         d="m 0,0 0.001,-83.506 13.53,7.811 v 5.866 l 67.358,38.888 v -5.866 l 13.53,7.812 -10e-4,110.657 z"
         style="fill:#f4831f;fill-opacity:1;fill-rule:nonzero;stroke:none"
         id="path42" /></g><g
       id="g44"
       transform="translate(41.5472,110.7781)"><path
         d="m 0,0 102.318,-59.073 v -5.099 l 15.157,-8.752 -10e-4,83.506 L -13.918,86.442 -13.917,2.936 0,-5.099 Z"
         style="fill:#fddb00;fill-opacity:1;fill-rule:nonzero;stroke:none"
         id="path46" /></g><g
       id="g48"
       transform="translate(159.0227,121.4745)"><path
         d="M 0,0 -13.663,7.888 -4.1,-85.987 0,-83.62 Z"
         style="fill:#f4831f;fill-opacity:1;fill-rule:nonzero;stroke:none"
         id="path50" /></g><g
       id="g52"
       transform="translate(154.9226,119.0666)"><path
         d="M 0,0 -13.918,8.035 -13.917,-75.544 0,-83.579 Z"
         style="fill:#fde758;fill-opacity:1;fill-rule:nonzero;stroke:none"
         id="path54" /></g><g
       id="g56"
       transform="translate(27.8844,187.8883)"><path
         d="m 0,0 9.563,-84.576 4.1,2.367 v 74.321 z"
         style="fill:#fdbe10;fill-opacity:1;fill-rule:nonzero;stroke:none"
         id="path58" /></g><g
       id="g60"
       transform="translate(23.5295,194.9265)"><path
         d="m 0,0 0.001,-83.58 13.917,-8.035 v 83.58 z"
         style="fill:#fde758;fill-opacity:1;fill-rule:nonzero;stroke:none"
         id="path62" /></g><g
       id="g64"
       transform="translate(68.4965,164.4409)"><path
         d="m 0,0 2.603,-75.546 4.1,2.367 V -3.87 Z"
         style="fill:#fdbe10;fill-opacity:1;fill-rule:nonzero;stroke:none"
         id="path66" /></g><g
       id="g68"
       transform="translate(64.1401,171.48)"><path
         d="m 0,0 0.001,-78.568 6.958,-4.017 v 78.567 z"
         style="fill:#fde758;fill-opacity:1;fill-rule:nonzero;stroke:none"
         id="path70" /></g><g
       id="g72"
       transform="translate(103.3717,153.7757)"><path
         d="m 0,0 2.596,-84.838 4.101,2.368 v 78.604 z"
         style="fill:#fdbe10;fill-opacity:1;fill-rule:nonzero;stroke:none"
         id="path74" /></g><g
       id="g76"
       transform="translate(99.0088,151.3484)"><path
         d="M 0,0 0.001,-78.393 6.959,-82.41 V -4.018 Z"
         style="fill:#fde758;fill-opacity:1;fill-rule:nonzero;stroke:none"
         id="path78" /></g><g
       id="g80"><g
         id="g82"
         clip-path="url(#clipPath86)"><g
           id="g88"
           transform="translate(175.2474,138.7018)"><path
             d="m 0,0 c 0,1.455 -11.635,3.879 -11.635,3.879 l -2.909,7.757 -5.818,2.818 v 6.878 l -12.605,3.394 -2.949,15.029 -0.93,10.181 V 62.541 H -50.05 v 9.212 l -1.098,8.103 -3.151,7.411 -7.757,3.393 v 11.151 c -1.939,0 -5.818,-10.666 -5.818,-10.666 l -5.818,-7.757 -16.146,-9.297 -23.608,-10.095 -7.757,-14.06 -2.425,-3.394 -12.605,-4.848 v -9.979 l -5.818,-4.565 0.485,-5.333 7.927,-5.333 -2.109,-12.605 16.211,1.04 11.908,1.384 -1.589,-8.628 15.649,-4.462 9.872,-5.596 10.975,-6.04 c 0,0 6.673,1.319 7.643,2.773 0.97,1.455 9.81,-6.651 9.81,-6.651 h 9.212 l 12.605,5.875 0.485,4.306 4.848,0.969 5.818,-5.275 12.605,6.73 H 8.727 C 8.727,-9.696 0,-1.454 0,0"
             style="fill:#6d2f13;fill-opacity:1;fill-rule:nonzero;stroke:none"
             id="path90" /></g><g
           id="g92"
           transform="translate(212.0936,185.244)"><path
             d="m 0,0 -6.303,2.909 c 0,0 -6.787,8.242 -8.242,9.212 -1.454,0.969 -13.602,7.092 -13.602,7.092 l -18.88,9.876 -0.97,10.666 -11.151,-4.364 -9.696,8.727 c 0,0 -15.999,6.303 -18.052,6.788 -2.054,0.484 -10.067,4.363 -12.006,4.363 V 44.118 l 7.757,-3.393 3.151,-7.411 1.098,-8.103 v -9.212 h 13.204 V 3.394 l 0.929,-10.181 2.95,-15.029 12.605,-3.394 v -6.879 l 5.818,-2.817 2.908,-7.758 c 0,0 11.636,-2.424 11.636,-3.878 0,-1.454 8.727,-9.696 8.727,-9.696 l 8.18,12.876 7.854,7.525 8.36,1.9 6.634,18.989 z"
             style="fill:#5a280d;fill-opacity:1;fill-rule:nonzero;stroke:none"
             id="path94" /></g><g
           id="g96"
           transform="translate(34.8017,142.5971)"><path
             d="M 0,0 -1.605,6.422 -10.817,1.69 -7.943,0 Z"
             style="fill:#6d2f13;fill-opacity:1;fill-rule:nonzero;stroke:none"
             id="path98" /></g><g
           id="g100"
           transform="translate(51.8717,140.907)"><path
             d="m 0,0 7.986,-0.551 2.493,-4.35 -1.955,-3.124 z"
             style="fill:#6d2f13;fill-opacity:1;fill-rule:nonzero;stroke:none"
             id="path102" /></g><g
           id="g104"
           transform="translate(31.0836,158.653)"><path
             d="M 0,0 -3.38,-2.704 2.113,-3.718 Z"
             style="fill:#6d2f13;fill-opacity:1;fill-rule:nonzero;stroke:none"
             id="path106" /></g><g
           id="g108"
           transform="translate(70.2936,129.0058)"><path
             d="M 0,0 12.587,-0.153 26.027,-10.07 3.38,-6.73 0,-0.944 Z"
             style="fill:#6d2f13;fill-opacity:1;fill-rule:nonzero;stroke:none"
             id="path110" /></g><g
           id="g112"
           transform="translate(108.5854,118.9358)"><path
             d="M 0,0 2.439,2.028 7.172,-1.014 Z"
             style="fill:#6d2f13;fill-opacity:1;fill-rule:nonzero;stroke:none"
             id="path114" /></g><g
           id="g116"
           transform="translate(67.4205,122.2762)"><path
             d="M 0,0 -6.929,-3.34 -6.084,0 -1.352,3.927 Z"
             style="fill:#6d2f13;fill-opacity:1;fill-rule:nonzero;stroke:none"
             id="path118" /></g><g
           id="g120"
           transform="translate(149.39,122.2762)"><path
             d="m 0,0 11.662,-5.876 -4.057,-2.028 -11.661,3.55 v 3.718 z"
             style="fill:#6d2f13;fill-opacity:1;fill-rule:nonzero;stroke:none"
             id="path122" /></g><g
           id="g124"
           transform="translate(165.1079,119.4428)"><path
             d="M 0,0 12.845,-1.521 13.69,-5.915 1.352,-7.098 -1.69,-4.225 Z"
             style="fill:#6d2f13;fill-opacity:1;fill-rule:nonzero;stroke:none"
             id="path126" /></g><g
           id="g128"
           transform="translate(142.9677,113.5275)"><path
             d="m 0,0 -8.112,-6.591 9.295,1.521 1.183,3.887 z"
             style="fill:#6d2f13;fill-opacity:1;fill-rule:nonzero;stroke:none"
             id="path130" /></g><g
           id="g132"
           transform="translate(206.5152,146.1463)"><path
             d="m 0,0 23.154,-1.521 1.521,-5.577 -31.266,-6.166 v 8.025 z"
             style="fill:#6d2f13;fill-opacity:1;fill-rule:nonzero;stroke:none"
             id="path134" /></g><g
           id="g136"
           transform="translate(197.3886,134.3156)"><path
             d="m 0,0 0.676,-5.31 -4.563,-5.035 h -3.549 l 2.704,5.173 z"
             style="fill:#6d2f13;fill-opacity:1;fill-rule:nonzero;stroke:none"
             id="path138" /></g><g
           id="g140"
           transform="translate(217.6698,132.8819)"><path
             d="M 0,0 H 16.394 L 10.31,-8.911 0,-4.456 -1.352,-0.763 Z"
             style="fill:#6d2f13;fill-opacity:1;fill-rule:nonzero;stroke:none"
             id="path142" /></g><g
           id="g144"
           transform="translate(206.0082,128.4264)"><path
             d="M 0,0 V -6.15 L 4.901,-3.075 2.36,-0.871 Z"
             style="fill:#6d2f13;fill-opacity:1;fill-rule:nonzero;stroke:none"
             id="path146" /></g><g
           id="g148"
           transform="translate(218.5149,151.7236)"><path
             d="m 0,0 7.943,-3.211 c 0,0 1.014,2.704 0,2.704 C 6.929,-0.507 0,7.098 0,7.098 L -3.512,3.887 Z"
             style="fill:#6d2f13;fill-opacity:1;fill-rule:nonzero;stroke:none"
             id="path150" /></g><g
           id="g152"
           transform="translate(220.9556,160.8501)"><path
             d="m 0,0 2.629,0.845 -5.07,1.859 z"
             style="fill:#6d2f13;fill-opacity:1;fill-rule:nonzero;stroke:none"
             id="path154" /></g><g
           id="g156"
           transform="translate(68.0907,196.1777)"><path
             d="m 0,0 -6.534,-12.066 11.728,-5.362 v 8.714 l -5.026,1.171 4.356,2.666 -1.173,7.189 z"
             style="fill:#f19b1f;fill-opacity:1;fill-rule:nonzero;stroke:none"
             id="path158" /></g><g
           id="g160"
           transform="translate(136.2184,160.2301)"><path
             d="m 0,0 3.695,1.391 c 0,0 2.896,-4.302 2.896,-3.895 V 0.399 L 8.888,-1.897 6.89,-5.193 -0.799,-4.234 Z"
             style="fill:#4eb96f;fill-opacity:1;fill-rule:nonzero;stroke:none"
             id="path162" /></g><g
           id="g164"
           transform="translate(80.9633,204.0591)"><path
             d="m 0,0 -4.021,-9.795 18.765,-1.759 z"
             style="fill:#eceff0;fill-opacity:1;fill-rule:nonzero;stroke:none"
             id="path166" /></g><g
           id="g168"
           transform="translate(78.9559,150.3225)"><path
             d="m 0,0 c 0.584,-0.85 0.368,-2.012 -0.481,-2.596 -0.85,-0.584 -2.013,-0.369 -2.597,0.481 -0.584,0.85 -0.368,2.012 0.482,2.596 C -1.746,1.065 -0.584,0.85 0,0 M -3.881,4.306 C -6.41,1.312 -9.17,-6.304 -7.936,-7.272 -5.802,-8.945 6.083,-5.802 7.27,-3.73 8.456,-1.659 -1.351,7.301 -3.881,4.306"
             style="fill:#eceff0;fill-opacity:1;fill-rule:nonzero;stroke:none"
             id="path170" /></g><g
           id="g172"
           transform="translate(106.6583,170.5407)"><path
             d="m 0,0 c 0.283,-0.955 0.565,-1.91 0.848,-2.864 -10.481,-3.104 -19.71,-9.446 -26.365,-18.118 -0.789,0.607 -1.579,1.213 -2.369,1.819 C -20.847,-9.991 -11.086,-3.283 0,0"
             style="fill:#eceff0;fill-opacity:1;fill-rule:nonzero;stroke:none"
             id="path174" /></g><g
           id="g176"
           transform="translate(104.7299,168.6599)"><path
             d="M 0,0 C -0.076,-1.579 12.274,-7.871 13.141,-8.133 14.008,-8.396 10.171,2.183 7.614,2.657 10.128,5.243 10.311,11.72 9.743,13.046 9.176,14.372 0.212,4.437 0,0"
             style="fill:#eceff0;fill-opacity:1;fill-rule:nonzero;stroke:none"
             id="path178" /></g><g
           id="g180"
           transform="translate(88.7773,151.6344)"><path
             d="m 0,0 c 0,0 -0.797,-0.341 -2.073,-0.336 -1.259,-0.025 -3.009,0.343 -4.479,1.36 -0.36,0.258 -0.7,0.544 -1.008,0.858 -0.338,0.281 -0.55,0.678 -0.811,0.994 -0.445,0.706 -0.73,1.428 -0.864,2.061 -0.132,0.636 -0.159,1.164 -0.119,1.538 0.022,0.371 0.054,0.576 0.054,0.576 0,0 0.124,-0.182 0.306,-0.49 C -8.833,6.245 -8.552,5.828 -8.248,5.349 -7.92,4.88 -7.523,4.38 -7.077,3.884 -6.584,3.431 -6.1,2.926 -5.49,2.554 -4.338,1.737 -2.972,1.137 -1.886,0.713 -0.755,0.285 0,0 0,0"
             style="fill:#eceff0;fill-opacity:1;fill-rule:nonzero;stroke:none"
             id="path182" /></g><g
           id="g184"
           transform="translate(93.5435,153.4246)"><path
             d="m 0,0 c 0,0 -1.169,-0.115 -2.867,0.334 -1.684,0.41 -3.899,1.448 -5.572,3.216 -0.412,0.444 -0.789,0.916 -1.114,1.419 -0.374,0.468 -0.56,1.046 -0.831,1.538 -0.417,1.057 -0.632,2.092 -0.68,2.976 -0.039,0.888 0.021,1.611 0.141,2.111 0.094,0.498 0.166,0.773 0.166,0.773 0,0 0.074,-0.277 0.205,-0.764 0.088,-0.483 0.298,-1.149 0.539,-1.918 C -9.896,9.3 -9.687,8.91 -9.542,8.486 -9.369,8.069 -9.107,7.668 -8.91,7.229 -8.632,6.829 -8.399,6.39 -8.077,5.998 -7.788,5.583 -7.45,5.197 -7.087,4.831 -5.683,3.324 -3.892,2.136 -2.469,1.322 -1.051,0.504 0,0 0,0"
             style="fill:#eceff0;fill-opacity:1;fill-rule:nonzero;stroke:none"
             id="path186" /></g><g
           id="g188"
           transform="translate(100.8881,155.7338)"><path
             d="m 0,0 c 0,0 -0.362,-0.079 -0.987,-0.141 -0.635,-0.036 -1.561,-0.052 -2.623,0.15 -2.142,0.311 -4.975,1.519 -7.09,3.756 -0.52,0.56 -1.008,1.151 -1.398,1.805 -0.448,0.608 -0.696,1.334 -1.003,1.973 -0.479,1.36 -0.679,2.68 -0.64,3.796 0.032,1.117 0.213,2.01 0.44,2.618 0.199,0.608 0.347,0.936 0.347,0.936 0,0 0.166,-0.346 0.395,-0.917 0.105,-0.278 0.233,-0.617 0.38,-1.005 0.177,-0.374 0.373,-0.786 0.539,-1.228 0.183,-0.441 0.478,-0.877 0.688,-1.35 0.237,-0.466 0.561,-0.913 0.819,-1.395 0.355,-0.435 0.612,-0.933 1.001,-1.361 0.35,-0.451 0.724,-0.894 1.136,-1.31 1.59,-1.706 3.581,-3.18 5.181,-4.342 C -1.126,0.794 0,0 0,0"
             style="fill:#eceff0;fill-opacity:1;fill-rule:nonzero;stroke:none"
             id="path190" /></g><g
           id="g192"
           transform="translate(102.1727,158.4695)"><path
             d="m 0,0 c 0,0 -1.171,0.106 -2.755,0.864 -1.579,0.718 -3.562,2.152 -4.877,4.203 -0.321,0.513 -0.604,1.048 -0.829,1.603 -0.28,0.53 -0.356,1.132 -0.53,1.666 -0.213,1.117 -0.231,2.175 -0.112,3.053 0.126,0.88 0.321,1.579 0.532,2.048 0.186,0.473 0.308,0.73 0.308,0.73 0,0 0.021,-0.287 0.058,-0.789 -0.004,-0.492 0.079,-1.186 0.171,-1.987 0.043,-0.401 0.176,-0.822 0.24,-1.267 0.091,-0.442 0.274,-0.885 0.385,-1.353 0.2,-0.446 0.347,-0.92 0.59,-1.366 C -6.613,6.943 -6.352,6.501 -6.064,6.072 -4.966,4.329 -3.427,2.826 -2.18,1.761 -0.939,0.692 0,0 0,0"
             style="fill:#eceff0;fill-opacity:1;fill-rule:nonzero;stroke:none"
             id="path194" /></g><g
           id="g196"
           transform="translate(103.608,161.6378)"><path
             d="m 0,0 c 0,0 -0.842,0.21 -1.857,0.986 -1.019,0.742 -2.193,2.093 -2.75,3.793 -0.131,0.424 -0.23,0.857 -0.285,1.294 -0.1,0.429 -0.029,0.873 -0.047,1.284 0.072,0.832 0.281,1.58 0.557,2.166 0.279,0.587 0.577,1.025 0.835,1.3 0.241,0.282 0.391,0.426 0.391,0.426 0,0 -0.011,-0.22 -0.052,-0.576 C -3.271,10.324 -3.3,9.821 -3.346,9.256 -3.369,8.683 -3.354,8.043 -3.298,7.379 -3.179,6.719 -3.098,6.023 -2.837,5.357 -2.411,4.009 -1.684,2.703 -1.075,1.709 -0.43,0.683 0,0 0,0"
             style="fill:#eceff0;fill-opacity:1;fill-rule:nonzero;stroke:none"
             id="path198" /></g><g
           id="g200"
           transform="translate(106.1037,164.588)"><path
             d="m 0,0 c 0,0 -0.625,0.056 -1.371,0.54 -0.75,0.454 -1.608,1.365 -2.003,2.56 -0.09,0.299 -0.155,0.604 -0.191,0.912 -0.07,0.301 -0.006,0.616 -0.01,0.904 0.07,0.584 0.247,1.102 0.473,1.496 0.225,0.397 0.469,0.679 0.674,0.85 0.195,0.176 0.318,0.261 0.318,0.261 0,0 0.015,-0.16 0.021,-0.411 -0.01,-0.245 0.015,-0.592 0.023,-0.967 0.026,-0.381 0.074,-0.79 0.132,-1.207 0.106,-0.413 0.159,-0.844 0.33,-1.26 C -1.341,2.835 -0.929,1.969 -0.589,1.262 -0.252,0.565 0,0 0,0"
             style="fill:#eceff0;fill-opacity:1;fill-rule:nonzero;stroke:none"
             id="path202" /></g><g
           id="g204"
           transform="translate(166.5393,180.5976)"><path
             d="M 0,0 C -0.341,0.824 -0.896,1.572 -1.662,2.146 -2.516,2.785 -3.504,3.118 -4.496,3.165 -4.423,2.921 -4.358,2.673 -4.31,2.419 -4.025,0.902 -4.563,-0.638 -5.407,-1.877 -5.861,-2.534 -6.44,-3.03 -7.144,-3.365 -7.762,-3.8 -8.454,-4.059 -9.221,-4.14 c -0.057,-0.008 -0.116,-0.009 -0.173,-0.016 0.346,-0.738 0.872,-1.405 1.57,-1.928 0.83,-0.622 1.787,-0.951 2.75,-1.013 C -5.708,-3.912 -3.198,-0.458 0,0"
             style="fill:#f0e2aa;fill-opacity:1;fill-rule:nonzero;stroke:none"
             id="path206" /></g><g
           id="g208"
           transform="translate(166.2561,180.8)"><path
             d="m 0,0 c 0.09,-0.067 0.157,-0.142 0.233,-0.214 0.017,0.003 0.033,0.009 0.05,0.012 C -0.058,0.622 -0.613,1.37 -1.379,1.943 -2.224,2.576 -3.2,2.907 -4.181,2.959 -3.707,2.592 -3.434,2.153 -3.313,1.696 -2.93,1.647 -2.537,1.504 -2.153,1.216 -1.867,1.002 -1.666,0.758 -1.512,0.504 -1.021,0.521 -0.503,0.377 0,0"
             style="fill:#bf3b2b;fill-opacity:1;fill-rule:nonzero;stroke:none"
             id="path210" /></g><g
           id="g212"
           transform="translate(161.4603,173.5334)"><path
             d="M 0,0 C -0.305,0.319 -0.503,0.702 -0.601,1.108 -1.059,1.115 -1.539,1.265 -2.005,1.614 -2.34,1.864 -2.57,2.151 -2.727,2.454 -3.274,2.443 -3.824,2.591 -4.264,2.913 -4.281,2.912 -4.298,2.91 -4.315,2.909 -3.969,2.17 -3.443,1.503 -2.745,0.98 -1.915,0.358 -0.958,0.029 0.005,-0.032 0.003,-0.022 0.002,-0.011 0,0"
             style="fill:#bf3b2b;fill-opacity:1;fill-rule:nonzero;stroke:none"
             id="path214" /></g><g
           id="g216"
           transform="translate(162.6507,178.3043)"><path
             d="m 0,0 c -0.236,-0.268 -0.518,-0.405 -0.63,-0.306 -0.112,0.098 -0.011,0.395 0.225,0.663 0.236,0.268 0.517,0.405 0.629,0.306 C 0.336,0.565 0.236,0.268 0,0"
             style="fill:#83371b;fill-opacity:1;fill-rule:nonzero;stroke:none"
             id="path218" /></g><g
           id="g220"
           transform="translate(161.8639,178.8885)"><path
             d="m 0,0 c -0.132,-0.26 -0.327,-0.425 -0.435,-0.37 -0.109,0.055 -0.09,0.31 0.042,0.57 0.132,0.259 0.327,0.425 0.435,0.37 C 0.151,0.515 0.132,0.26 0,0"
             style="fill:#83371b;fill-opacity:1;fill-rule:nonzero;stroke:none"
             id="path222" /></g><g
           id="g224"
           transform="translate(159.3213,174.0705)"><path
             d="M 0,0 C -0.058,-0.078 -0.297,0.002 -0.534,0.179 -0.77,0.356 -0.914,0.563 -0.856,0.641 -0.797,0.719 -0.559,0.639 -0.322,0.462 -0.086,0.285 0.058,0.078 0,0"
             style="fill:#57270d;fill-opacity:1;fill-rule:nonzero;stroke:none"
             id="path226" /></g><g
           id="g228"
           transform="translate(164.4802,182.7455)"><path
             d="M 0,0 C 0.274,0.691 1.149,2.006 1.438,2.313 1.726,2.62 2.184,2.195 1.826,1.967 1.469,1.738 0.257,0.056 0.161,-0.121 0.066,-0.297 -0.085,-0.213 0,0"
             style="fill:#57270d;fill-opacity:1;fill-rule:nonzero;stroke:none"
             id="path230" /></g><g
           id="g232"
           transform="translate(164.6143,182.5883)"><path
             d="M 0,0 C 0.945,0.547 2.094,-0.798 2.805,-0.406 2.021,-2.217 -0.113,-0.817 0,0"
             style="fill:#25ad5f;fill-opacity:1;fill-rule:nonzero;stroke:none"
             id="path234" /></g><g
           id="g236"
           transform="translate(164.4539,182.7439)"><path
             d="M 0,0 C 0.357,1.173 -0.127,1.998 -1.196,2.594 -0.883,1.688 -1.907,0.622 0,0"
             style="fill:#25ad5f;fill-opacity:1;fill-rule:nonzero;stroke:none"
             id="path238" /></g><g
           id="g240"
           transform="translate(47.1676,162.9758)"><path
             d="m 0,0 c 0,-0.926 -0.751,-1.677 -1.677,-1.677 -0.926,0 -1.677,0.751 -1.677,1.677 0,0.926 0.751,1.677 1.677,1.677 C -0.751,1.677 0,0.926 0,0"
             style="fill:#efc319;fill-opacity:1;fill-rule:nonzero;stroke:none"
             id="path242" /></g><g
           id="g244"
           transform="translate(52.0299,162.9758)"><path
             d="m 0,0 c 0,-0.926 -0.751,-1.677 -1.677,-1.677 -0.926,0 -1.677,0.751 -1.677,1.677 0,0.926 0.751,1.677 1.677,1.677 C -0.751,1.677 0,0.926 0,0"
             style="fill:#efc319;fill-opacity:1;fill-rule:nonzero;stroke:none"
             id="path246" /></g><g
           id="g248"
           transform="translate(49.2285,158.3047)"><path
             d="m 0,0 c 0,-0.926 -0.751,-1.677 -1.677,-1.677 -0.926,0 -1.677,0.751 -1.677,1.677 0,0.926 0.751,1.677 1.677,1.677 C -0.751,1.677 0,0.926 0,0"
             style="fill:#efc319;fill-opacity:1;fill-rule:nonzero;stroke:none"
             id="path250" /></g><g
           id="g252"
           transform="translate(54.9316,157.6998)"><path
             d="m 0,0 c 0,-0.926 -0.751,-1.677 -1.677,-1.677 -0.926,0 -1.677,0.751 -1.677,1.677 0,0.926 0.751,1.677 1.677,1.677 C -0.751,1.677 0,0.926 0,0"
             style="fill:#efc319;fill-opacity:1;fill-rule:nonzero;stroke:none"
             id="path254" /></g><g
           id="g256"
           transform="translate(131.9338,132.2193)"><path
             d="m 0,0 c 0,-0.926 -0.751,-1.677 -1.677,-1.677 -0.926,0 -1.677,0.751 -1.677,1.677 0,0.926 0.751,1.677 1.677,1.677 C -0.751,1.677 0,0.926 0,0"
             style="fill:#efc319;fill-opacity:1;fill-rule:nonzero;stroke:none"
             id="path258" /></g><g
           id="g260"
           transform="translate(45.8749,153.9633)"><path
             d="m 0,0 c 0,-0.926 -0.751,-1.677 -1.677,-1.677 -0.926,0 -1.677,0.751 -1.677,1.677 0,0.926 0.751,1.677 1.677,1.677 C -0.751,1.677 0,0.926 0,0"
             style="fill:#efc319;fill-opacity:1;fill-rule:nonzero;stroke:none"
             id="path262" /></g><g
           id="g264"
           transform="translate(203.3209,172.0024)"><path
             d="M 0,0 C -1.134,0.57 -1.592,1.952 -1.022,3.086 -0.452,4.22 0.93,4.678 2.064,4.108 3.199,3.538 3.656,2.156 3.086,1.022 2.516,-0.113 1.134,-0.57 0,0"
             style="fill:#efc319;fill-opacity:1;fill-rule:nonzero;stroke:none"
             id="path266" /></g><g
           id="g268"
           transform="translate(200.3281,166.0466)"><path
             d="M 0,0 C -1.134,0.57 -1.592,1.952 -1.022,3.086 -0.452,4.22 0.93,4.678 2.064,4.108 3.198,3.538 3.656,2.156 3.086,1.022 2.516,-0.113 1.134,-0.57 0,0"
             style="fill:#efc319;fill-opacity:1;fill-rule:nonzero;stroke:none"
             id="path270" /></g><g
           id="g272"
           transform="translate(196.3307,172.3531)"><path
             d="M 0,0 C -1.134,0.57 -1.592,1.952 -1.022,3.086 -0.452,4.22 0.93,4.678 2.064,4.108 3.198,3.538 3.656,2.156 3.086,1.022 2.516,-0.113 1.134,-0.57 0,0"
             style="fill:#efc319;fill-opacity:1;fill-rule:nonzero;stroke:none"
             id="path274" /></g><g
           id="g276"
           transform="translate(131.524,185.573)"><path
             d="M 0,0 C -1.134,0.57 -1.592,1.952 -1.022,3.086 -0.452,4.22 0.93,4.678 2.064,4.108 3.198,3.538 3.656,2.156 3.086,1.022 2.516,-0.113 1.134,-0.57 0,0"
             style="fill:#efc319;fill-opacity:1;fill-rule:nonzero;stroke:none"
             id="path278" /></g><g
           id="g280"
           transform="translate(192.0795,165.7398)"><path
             d="M 0,0 C -1.134,0.57 -1.592,1.952 -1.022,3.086 -0.452,4.22 0.93,4.678 2.064,4.108 3.198,3.538 3.656,2.156 3.086,1.022 2.516,-0.113 1.134,-0.57 0,0"
             style="fill:#efc319;fill-opacity:1;fill-rule:nonzero;stroke:none"
             id="path282" /></g><g
           id="g284"
           transform="translate(125.2239,189.148)"><path
             d="M 0,0 C -1.134,0.57 -1.592,1.952 -1.022,3.086 -0.452,4.22 0.93,4.678 2.064,4.108 3.198,3.538 3.656,2.156 3.086,1.022 2.516,-0.113 1.134,-0.57 0,0"
             style="fill:#efc319;fill-opacity:1;fill-rule:nonzero;stroke:none"
             id="path286" /></g><g
           id="g288"
           transform="translate(193.0773,179.1331)"><path
             d="M 0,0 C -1.134,0.57 -1.592,1.952 -1.022,3.086 -0.452,4.22 0.93,4.678 2.064,4.108 3.198,3.538 3.656,2.156 3.086,1.022 2.516,-0.113 1.134,-0.57 0,0"
             style="fill:#efc319;fill-opacity:1;fill-rule:nonzero;stroke:none"
             id="path290" /></g><g
           id="g292"
           transform="translate(115.1602,217.1919)"><path
             d="M 0,0 C 0.472,-0.226 0.928,-0.458 1.371,-0.694 0.928,-0.457 0.473,-0.226 0,0"
             style="fill:#149f84;fill-opacity:1;fill-rule:nonzero;stroke:none"
             id="path294" /></g><g
           id="g296"
           transform="translate(117.5603,215.9221)"><path
             d="M 0,0 C 0.403,-0.234 0.811,-0.466 1.189,-0.707 0.811,-0.466 0.403,-0.234 0,0"
             style="fill:#149f84;fill-opacity:1;fill-rule:nonzero;stroke:none"
             id="path298" /></g><g
           id="g300"
           transform="translate(104.0023,212.191)"><path
             d="M 0,0 C 0.04,0.053 0.066,0.111 0.107,0.164 2.436,3.192 5.457,5.218 8.514,6.15 9.04,5.947 9.525,5.727 10.02,5.511 8.63,6.118 7.165,6.695 5.525,7.191 c -13.547,4.097 -21.759,9.067 -21.759,9.067 l 0.613,0.798 -4.334,3.332 -2.318,-3.014 -2.318,-3.014 2.199,2.859 z"
             style="fill:#149f84;fill-opacity:1;fill-rule:nonzero;stroke:none"
             id="path302" /></g><g
           id="g304"
           transform="translate(120.111,214.281)"><path
             d="M 0,0 C 0.408,-0.292 0.794,-0.589 1.169,-0.888 0.795,-0.588 0.407,-0.293 0,0"
             style="fill:#149f84;fill-opacity:1;fill-rule:nonzero;stroke:none"
             id="path306" /></g><g
           id="g308"
           transform="translate(122.3313,212.5224)"><path
             d="M 0,0 C 0.231,-0.203 0.449,-0.408 0.667,-0.613 0.449,-0.408 0.231,-0.204 0,0"
             style="fill:#149f84;fill-opacity:1;fill-rule:nonzero;stroke:none"
             id="path310" /></g><g
           id="g312"
           transform="translate(103.2914,199.2892)"><path
             d="M 0,0 C -0.339,0.365 -0.678,0.743 -1.015,1.138 -0.678,0.743 -0.34,0.365 0,0"
             style="fill:#27b899;fill-opacity:1;fill-rule:nonzero;stroke:none"
             id="path314" /></g><g
           id="g316"
           transform="translate(101.474,201.4182)"><path
             d="M 0,0 C -0.331,0.417 -0.664,0.824 -0.99,1.273 -0.663,0.823 -0.331,0.417 0,0"
             style="fill:#27b899;fill-opacity:1;fill-rule:nonzero;stroke:none"
             id="path318" /></g><g
           id="g320"
           transform="translate(104.1226,198.4318)"><path
             d="M 0,0 C 0.048,-0.048 0.097,-0.102 0.145,-0.15 H 0.153 C 0.102,-0.099 0.051,-0.051 0,0"
             style="fill:#27b899;fill-opacity:1;fill-rule:nonzero;stroke:none"
             id="path322" /></g><g
           id="g324"
           transform="translate(81.6105,229.4104)"><path
             d="m 0,0 -2.199,-2.86 4.334,-3.333 0.613,0.798 c 0,0 6.912,-6.661 14.351,-18.701 0.58,-0.939 1.174,-1.798 1.773,-2.622 0.114,3.139 1.272,6.51 3.52,9.499 z"
             style="fill:#27b899;fill-opacity:1;fill-rule:nonzero;stroke:none"
             id="path326" /></g><g
           id="g328"
           transform="translate(102.2765,200.4274)"><path
             d="M 0,0 C -0.269,0.316 -0.536,0.655 -0.802,0.991 -0.535,0.654 -0.269,0.316 0,0"
             style="fill:#f0e2aa;fill-opacity:1;fill-rule:nonzero;stroke:none"
             id="path330" /></g><g
           id="g332"
           transform="translate(104.1226,198.4318)"><path
             d="M 0,0 C -0.278,0.277 -0.555,0.561 -0.831,0.857 -0.555,0.56 -0.278,0.278 0,0"
             style="fill:#f0e2aa;fill-opacity:1;fill-rule:nonzero;stroke:none"
             id="path334" /></g><g
           id="g336"
           transform="translate(118.7489,215.215)"><path
             d="M 0,0 C 0.477,-0.306 0.924,-0.619 1.362,-0.934 0.923,-0.619 0.478,-0.305 0,0"
             style="fill:#f0e2aa;fill-opacity:1;fill-rule:nonzero;stroke:none"
             id="path338" /></g><g
           id="g340"
           transform="translate(116.5311,216.4981)"><path
             d="M 0,0 C 0.354,-0.189 0.694,-0.382 1.029,-0.576 0.693,-0.382 0.354,-0.189 0,0"
             style="fill:#f0e2aa;fill-opacity:1;fill-rule:nonzero;stroke:none"
             id="path342" /></g><g
           id="g344"
           transform="translate(123.8598,211.0603)"><path
             d="m 0,0 c -0.275,0.284 -0.562,0.566 -0.862,0.849 0.299,-0.283 0.583,-0.566 0.857,-0.85 z"
             style="fill:#f0e2aa;fill-opacity:1;fill-rule:nonzero;stroke:none"
             id="path346" /></g><g
           id="g348"
           transform="translate(121.2802,213.3933)"><path
             d="M 0,0 C 0.361,-0.289 0.719,-0.578 1.051,-0.871 0.718,-0.577 0.362,-0.289 0,0"
             style="fill:#f0e2aa;fill-opacity:1;fill-rule:nonzero;stroke:none"
             id="path350" /></g><g
           id="g352"
           transform="translate(123.9569,210.9581)"><path
             d="M 0,0 C -0.033,0.034 -0.064,0.068 -0.097,0.102 L -0.102,0.101 C -0.069,0.067 -0.032,0.034 0,0"
             style="fill:#f0e2aa;fill-opacity:1;fill-rule:nonzero;stroke:none"
             id="path354" /></g><g
           id="g356"
           transform="translate(100.4826,202.6922)"><path
             d="M 0,0 C 0,0 0.001,-0.001 0.001,-0.001 0.001,-0.001 0,0 0,0 Z"
             style="fill:#f0e2aa;fill-opacity:1;fill-rule:nonzero;stroke:none"
             id="path358" /></g><g
           id="g360"
           transform="translate(114.022,217.7017)"><path
             d="M 0,0 C 0.384,-0.168 0.772,-0.335 1.138,-0.51 0.771,-0.335 0.385,-0.168 0,0"
             style="fill:#f0e2aa;fill-opacity:1;fill-rule:nonzero;stroke:none"
             id="path362" /></g><g
           id="g364"
           transform="translate(104.1096,212.3546)"><path
             d="m 0,0 c -0.041,-0.053 -0.067,-0.11 -0.107,-0.164 l 12.899,-9.919 h 1.7 l 0.523,5.121 -5.226,5.539 5.958,-2.962 3.999,1.089 c -0.275,0.284 -0.559,0.568 -0.858,0.851 -0.217,0.205 -0.435,0.409 -0.666,0.613 C 17.89,0.461 17.531,0.75 17.171,1.039 16.796,1.338 16.409,1.634 16.001,1.926 15.564,2.242 15.117,2.555 14.639,2.86 14.261,3.101 13.854,3.334 13.451,3.567 13.116,3.762 12.775,3.955 12.422,4.143 11.978,4.38 11.523,4.612 11.051,4.837 10.684,5.013 10.297,5.179 9.912,5.347 9.418,5.563 8.932,5.783 8.407,5.986 5.349,5.054 2.328,3.028 0,0"
             style="fill:#f0e2aa;fill-opacity:1;fill-rule:nonzero;stroke:none"
             id="path366" /></g><g
           id="g368"
           transform="translate(109.1956,198.282)"><path
             d="m 0,0 v 3.99 h 7.706 l -12.899,9.919 c -2.249,-2.989 -3.406,-6.36 -3.52,-9.499 0,0 10e-4,0 10e-4,0 0.327,-0.45 0.659,-0.857 0.99,-1.274 C -7.455,2.8 -7.189,2.461 -6.919,2.145 -6.582,1.75 -6.244,1.372 -5.904,1.007 -5.628,0.71 -5.351,0.427 -5.073,0.15 -5.022,0.099 -4.971,0.05 -4.92,0 Z"
             style="fill:#f0e2aa;fill-opacity:1;fill-rule:nonzero;stroke:none"
             id="path370" /></g></g></g><g
       id="g372"
       transform="translate(21.812,191.0056)"><path
         d="M 0,0 -0.998,5.611 97.564,84.383 164.399,50.831 165.397,45.22 67.832,-39.163 Z"
         style="fill:#181f26;fill-opacity:1;fill-rule:nonzero;stroke:none"
         id="path374" /></g><g
       id="g376"
       transform="translate(20.8145,196.6167)"><path
         d="M 0,0 47.036,40.682 97.564,84.383 165.397,45.22 67.832,-39.163 Z"
         style="fill:#627894;fill-opacity:1;fill-rule:nonzero;stroke:none"
         id="path378" /></g><g
       id="g380"><g
         id="g382"
         clip-path="url(#clipPath386)"><g
           id="g388"
           transform="translate(39.8495,193.3031)"><path
             d="M 0,0 C -0.451,0.26 -0.865,0.598 -1.225,1.015 -2.951,3.011 -2.734,6.03 -0.737,7.757 L 78.528,76.31 c 1.998,1.728 5.014,1.509 6.745,-0.488 1.726,-1.996 1.508,-5.016 -0.489,-6.743 L 5.519,0.525 C 3.936,-0.843 1.714,-0.99 0,0"
             style="fill:#445266;fill-opacity:1;fill-rule:nonzero;stroke:none"
             id="path390" /></g><g
           id="g392"
           transform="translate(53.9231,185.1777)"><path
             d="M 0,0 C -0.451,0.26 -0.865,0.598 -1.225,1.015 -2.952,3.01 -2.734,6.03 -0.737,7.757 l 79.263,68.555 c 1.998,1.728 5.01,1.51 6.745,-0.489 1.726,-1.996 1.508,-5.016 -0.489,-6.743 L 5.519,0.525 C 3.936,-0.843 1.714,-0.99 0,0"
             style="fill:#445266;fill-opacity:1;fill-rule:nonzero;stroke:none"
             id="path394" /></g><g
           id="g396"
           transform="translate(67.9946,177.0535)"><path
             d="M 0,0 C -0.451,0.26 -0.865,0.598 -1.225,1.015 -2.952,3.01 -2.734,6.03 -0.737,7.757 l 79.263,68.555 c 2,1.726 5.01,1.51 6.745,-0.489 1.726,-1.996 1.508,-5.016 -0.489,-6.743 L 5.519,0.525 C 3.936,-0.843 1.714,-0.99 0,0"
             style="fill:#445266;fill-opacity:1;fill-rule:nonzero;stroke:none"
             id="path398" /></g><g
           id="g400"
           transform="translate(82.0682,168.9281)"><path
             d="M 0,0 C -0.451,0.26 -0.865,0.598 -1.225,1.015 -2.952,3.01 -2.734,6.03 -0.737,7.757 l 79.263,68.555 c 1.998,1.728 5.01,1.51 6.745,-0.489 1.726,-1.996 1.508,-5.016 -0.489,-6.743 L 5.519,0.525 C 3.936,-0.843 1.714,-0.99 0,0"
             style="fill:#445266;fill-opacity:1;fill-rule:nonzero;stroke:none"
             id="path402" /></g></g></g><g
       id="g404"
       transform="translate(88.6468,157.4536)"><path
         d="M 0,0 -67.832,39.163 -66.835,33.552 0.997,-5.611 Z"
         style="fill:#445266;fill-opacity:1;fill-rule:nonzero;stroke:none"
         id="path406" /></g><g
       id="g408"
       transform="translate(175.9456,72.5104)"><path
         d="M 0,0 14.048,-8.11 71.657,25.15 57.609,33.26 Z"
         style="fill:#ffcc05;fill-opacity:1;fill-rule:nonzero;stroke:none"
         id="path410" /></g><g
       id="g412"
       transform="translate(175.9456,106.5401)"><path
         d="M 0,0 V -5.176 L 9.567,-10.699 9.566,-39.54 0,-34.017 v -5.175 l 14.047,-8.111 10e-4,39.193 z"
         style="fill:#fde758;fill-opacity:1;fill-rule:nonzero;stroke:none"
         id="path414" /></g><g
       id="g416"
       transform="translate(247.6018,92.4975)"><path
         d="M 0,0 -57.609,-33.26 -57.608,5.932 0,39.192 Z"
         style="fill:#ffcc05;fill-opacity:1;fill-rule:nonzero;stroke:none"
         id="path418" /></g><g
       id="g420"
       transform="translate(175.9456,106.5401)"><path
         d="M 0,0 14.048,-8.11 71.657,25.15 57.609,33.26 Z"
         style="fill:#fddb00;fill-opacity:1;fill-rule:nonzero;stroke:none"
         id="path422" /></g><g
       id="g424"><g
         id="g426"
         clip-path="url(#clipPath430)"><g
           id="g432"><g
             id="g434" /><g
             id="g446"><g
               clip-path="url(#clipPath438)"
               opacity="0.5"
               id="g444"><g
                 transform="translate(201.6797,78.5474)"
                 id="g442"><path
                   d="m 0,0 c 0,-2.902 2.038,-4.079 4.551,-2.628 2.514,1.452 4.551,4.981 4.551,7.883 0,2.902 -2.037,4.079 -4.551,2.628 C 2.038,6.432 0,2.902 0,0"
                   style="fill:#f4831f;fill-opacity:1;fill-rule:nonzero;stroke:none"
                   id="path440" /></g></g></g></g><g
           id="g448"
           transform="translate(198.0809,81.6902)"><path
             d="m 0,0 c 0,-2.902 2.038,-4.079 4.551,-2.628 2.514,1.452 4.551,4.981 4.551,7.883 0,2.902 -2.037,4.079 -4.551,2.628 C 2.038,6.432 0,2.902 0,0"
             style="fill:#5b6f89;fill-opacity:1;fill-rule:nonzero;stroke:none"
             id="path450" /></g><g
           id="g452"
           transform="translate(199.7214,80.7431)"><path
             d="m 0,0 c 0,-2.902 2.038,-4.079 4.551,-2.628 2.514,1.451 4.551,4.981 4.551,7.883 0,2.902 -2.037,4.079 -4.551,2.628 C 2.038,6.431 0,2.902 0,0"
             style="fill:#445266;fill-opacity:1;fill-rule:nonzero;stroke:none"
             id="path454" /></g><g
           id="g456"
           transform="translate(201.0544,81.5127)"><path
             d="M 0,0 C 0,-2.052 1.441,-2.884 3.218,-1.858 4.995,-0.832 6.436,1.664 6.436,3.716 6.436,5.768 4.995,6.6 3.218,5.574 1.441,4.548 0,2.052 0,0"
             style="fill:#252d38;fill-opacity:1;fill-rule:nonzero;stroke:none"
             id="path458" /></g><g
           id="g460"
           transform="translate(202.5721,82.3889)"><path
             d="M 0,0 C 0,-1.084 0.761,-1.524 1.7,-0.982 2.639,-0.44 3.401,0.879 3.401,1.963 3.401,3.048 2.639,3.487 1.7,2.945 0.761,2.403 0,1.084 0,0"
             style="fill:#fdbe10;fill-opacity:1;fill-rule:nonzero;stroke:none"
             id="path462" /></g><g
           id="g464"
           transform="translate(44.2876,133.176)"><path
             d="m 0,0 1.236,-4.537 3.311,-0.484 -0.986,1.089 c 0.873,1.534 2.691,1.885 4.793,0.672 2.754,-1.591 5.022,-5.306 5.313,-8.565 l 2.814,-1.625 C 16.18,-8.395 12.658,-2.508 8.354,-0.023 5.119,1.845 2.327,1.278 1.012,-1.118 Z M 15.695,-17.737 C 14.38,-20.133 11.589,-20.7 8.354,-18.832 4.049,-16.347 0.527,-10.46 0.227,-5.405 L 3.04,-7.029 c 0.292,-3.26 2.559,-6.975 5.314,-8.565 2.102,-1.214 3.919,-0.862 4.793,0.671 l -0.987,1.089 3.311,-0.484 1.237,-4.537 z"
             style="fill:#fafbfb;fill-opacity:1;fill-rule:nonzero;stroke:none"
             id="path466" /></g><g
           id="g468"
           transform="translate(159.0227,121.4745)"><path
             d="m 0,0 -4.1,-2.408 -13.918,8.035 4.355,2.261 -35.291,20.547 -4.1,-2.579 -6.96,4.018 4.363,2.427 -7.426,4.002 4.503,3.41 57.293,-33.317 91.144,78.008 4.554,-2.856 z"
             style="fill:#eb9539;fill-opacity:1;fill-rule:nonzero;stroke:none"
             id="path470" /></g><g
           id="g472"
           transform="translate(260.4807,205.1841)"><path
             d="M 0,0 -2.464,-5.662 -72.661,7.9 l 2.463,5.662 z"
             style="fill:#313c4a;fill-opacity:1;fill-rule:nonzero;stroke:none"
             id="path474" /></g><g
           id="g476"
           transform="translate(190.2831,218.7464)"><path
             d="m 0,0 -2.464,-5.662 -70.997,40.99 2.463,5.662 z"
             style="fill:#3f4b5e;fill-opacity:1;fill-rule:nonzero;stroke:none"
             id="path478" /></g><g
           id="g480"
           transform="translate(260.4807,205.1841)"><path
             d="M 0,0 -70.198,13.562 -141.195,54.553 -70.997,40.99 Z"
             style="fill:#4d5e75;fill-opacity:1;fill-rule:nonzero;stroke:none"
             id="path482" /></g><g
           id="g484"
           transform="translate(190.1439,157.5479)"><path
             d="M 0,0 C 0,0.709 -5.675,1.892 -5.675,1.892 L -7.094,5.675 -9.932,7.05 v 3.355 l -6.148,1.655 -1.439,7.331 -0.453,4.966 v 6.148 h -6.44 v 4.493 l -0.536,3.952 -1.537,3.615 -3.783,1.655 v 5.439 c -0.946,0 -2.838,-5.202 -2.838,-5.202 l -2.838,-3.784 -7.875,-4.535 -11.515,-4.924 -3.784,-6.857 -1.182,-1.656 -6.148,-2.364 v -4.868 l -2.838,-2.227 0.236,-2.601 3.867,-2.601 -1.029,-6.148 7.907,0.507 5.808,0.675 -0.775,-4.208 7.633,-2.177 4.815,-2.729 5.353,-2.946 c 0,0 3.255,0.643 3.728,1.353 0.473,0.709 4.785,-3.245 4.785,-3.245 h 4.493 l 6.149,2.866 0.236,2.1 2.365,0.473 2.837,-2.573 6.149,3.283 H 4.257 C 4.257,-4.729 0,-0.709 0,0"
             style="fill:#6d2f13;fill-opacity:1;fill-rule:nonzero;stroke:none"
             id="path486" /></g><g
           id="g488"
           transform="translate(208.1158,180.2492)"><path
             d="m 0,0 -3.074,1.419 c 0,0 -3.311,4.02 -4.02,4.493 -0.71,0.473 -6.635,3.46 -6.635,3.46 l -9.209,4.816 -0.473,5.203 -5.439,-2.129 -4.729,4.257 c 0,0 -7.804,3.074 -8.805,3.311 -1.002,0.236 -4.91,2.128 -5.856,2.128 v -5.439 l 3.783,-1.655 1.537,-3.615 0.536,-3.952 V 7.804 h 6.44 V 1.655 l 0.454,-4.966 1.438,-7.33 6.148,-1.656 v -3.354 l 2.838,-1.375 1.419,-3.784 c 0,0 5.675,-1.182 5.675,-1.891 0,-0.71 4.257,-4.73 4.257,-4.73 l 3.99,6.281 3.83,3.67 4.078,0.927 3.236,9.262 z"
             style="fill:#5a280d;fill-opacity:1;fill-rule:nonzero;stroke:none"
             id="path490" /></g><g
           id="g492"
           transform="translate(121.6405,159.4479)"><path
             d="M 0,0 -0.783,3.133 -5.276,0.824 -3.874,0 Z"
             style="fill:#6d2f13;fill-opacity:1;fill-rule:nonzero;stroke:none"
             id="path494" /></g><g
           id="g496"
           transform="translate(129.9664,158.6235)"><path
             d="M 0,0 3.895,-0.269 5.111,-2.391 4.158,-3.914 Z"
             style="fill:#6d2f13;fill-opacity:1;fill-rule:nonzero;stroke:none"
             id="path498" /></g><g
           id="g500"
           transform="translate(119.8269,167.2793)"><path
             d="m 0,0 -1.649,-1.319 2.68,-0.495 z"
             style="fill:#6d2f13;fill-opacity:1;fill-rule:nonzero;stroke:none"
             id="path502" /></g><g
           id="g504"
           transform="translate(138.9519,152.8186)"><path
             d="M 0,0 6.139,-0.075 12.695,-4.912 1.649,-3.282 0,-0.46 Z"
             style="fill:#6d2f13;fill-opacity:1;fill-rule:nonzero;stroke:none"
             id="path506" /></g><g
           id="g508"
           transform="translate(157.629,147.9069)"><path
             d="M 0,0 1.19,0.989 3.498,-0.495 Z"
             style="fill:#6d2f13;fill-opacity:1;fill-rule:nonzero;stroke:none"
             id="path510" /></g><g
           id="g512"
           transform="translate(137.5506,149.5362)"><path
             d="M 0,0 -3.38,-1.629 -2.968,0 -0.66,1.915 Z"
             style="fill:#6d2f13;fill-opacity:1;fill-rule:nonzero;stroke:none"
             id="path514" /></g><g
           id="g516"
           transform="translate(174.3992,145.269)"><path
             d="m 0,0 -3.957,-3.215 4.534,0.742 0.577,1.896 z"
             style="fill:#6d2f13;fill-opacity:1;fill-rule:nonzero;stroke:none"
             id="path518" /></g><g
           id="g520"
           transform="translate(137.8775,185.5822)"><path
             d="m 0,0 -3.187,-5.885 5.72,-2.616 v 4.251 l -2.451,0.571 2.124,1.3 -0.572,3.507 z"
             style="fill:#f19b1f;fill-opacity:1;fill-rule:nonzero;stroke:none"
             id="path522" /></g><g
           id="g524"
           transform="translate(160.8954,166.4503)"><path
             d="m 0,0 6.048,2.277 c 0,0 4.739,-7.042 4.739,-6.376 v 4.753 l 3.76,-3.76 -3.269,-5.393 -12.586,1.569 z"
             style="fill:#4eb96f;fill-opacity:1;fill-rule:nonzero;stroke:none"
             id="path526" /></g><g
           id="g528"
           transform="translate(144.1561,189.4264)"><path
             d="M 0,0 -1.961,-4.778 7.192,-5.636 Z"
             style="fill:#eceff0;fill-opacity:1;fill-rule:nonzero;stroke:none"
             id="path530" /></g><g
           id="g532"
           transform="translate(143.177,163.216)"><path
             d="m 0,0 c 0.285,-0.415 0.18,-0.981 -0.235,-1.266 -0.414,-0.285 -0.981,-0.18 -1.266,0.234 -0.285,0.415 -0.18,0.982 0.235,1.267 C -0.852,0.52 -0.285,0.415 0,0 m -1.893,2.1 c -1.234,-1.46 -2.58,-5.175 -1.978,-5.647 1.041,-0.816 6.838,0.717 7.417,1.727 0.579,1.011 -4.205,5.381 -5.439,3.92"
             style="fill:#eceff0;fill-opacity:1;fill-rule:nonzero;stroke:none"
             id="path534" /></g><g
           id="g536"
           transform="translate(156.689,173.0776)"><path
             d="m 0,0 c 0.138,-0.466 0.276,-0.931 0.414,-1.397 -5.112,-1.514 -9.614,-4.607 -12.86,-8.837 -0.385,0.296 -0.77,0.591 -1.156,0.887 C -10.169,-4.873 -5.407,-1.601 0,0"
             style="fill:#eceff0;fill-opacity:1;fill-rule:nonzero;stroke:none"
             id="path538" /></g><g
           id="g540"
           transform="translate(155.7484,172.1601)"><path
             d="M 0,0 C -0.037,-0.77 5.987,-3.839 6.41,-3.967 6.833,-4.095 4.961,1.065 3.714,1.296 4.94,2.557 5.029,5.717 4.752,6.363 4.475,7.01 0.104,2.164 0,0"
             style="fill:#eceff0;fill-opacity:1;fill-rule:nonzero;stroke:none"
             id="path542" /></g><g
           id="g544"
           transform="translate(147.9675,163.8559)"><path
             d="m 0,0 c 0,0 -0.389,-0.166 -1.011,-0.164 -0.614,-0.012 -1.468,0.167 -2.185,0.663 -0.175,0.126 -0.341,0.266 -0.491,0.419 -0.165,0.137 -0.269,0.33 -0.396,0.485 -0.217,0.344 -0.356,0.696 -0.421,1.005 -0.065,0.31 -0.078,0.568 -0.059,0.75 0.011,0.181 0.027,0.281 0.027,0.281 0,0 0.06,-0.089 0.149,-0.239 C -4.308,3.046 -4.171,2.843 -4.023,2.609 -3.863,2.38 -3.669,2.136 -3.452,1.895 -3.211,1.674 -2.975,1.427 -2.678,1.246 -2.116,0.847 -1.45,0.554 -0.92,0.347 -0.368,0.139 0,0 0,0"
             style="fill:#eceff0;fill-opacity:1;fill-rule:nonzero;stroke:none"
             id="path546" /></g><g
           id="g548"
           transform="translate(150.2922,164.7291)"><path
             d="m 0,0 c 0,0 -0.57,-0.056 -1.398,0.163 -0.822,0.2 -1.902,0.706 -2.718,1.569 -0.201,0.216 -0.385,0.446 -0.543,0.692 -0.183,0.228 -0.274,0.51 -0.406,0.75 -0.203,0.515 -0.308,1.02 -0.331,1.451 -0.02,0.433 0.01,0.786 0.068,1.03 0.046,0.243 0.081,0.377 0.081,0.377 0,0 0.036,-0.135 0.1,-0.372 0.043,-0.236 0.146,-0.561 0.263,-0.936 0.057,-0.188 0.159,-0.378 0.23,-0.585 C -4.57,3.936 -4.442,3.74 -4.346,3.526 -4.21,3.331 -4.097,3.117 -3.94,2.926 -3.799,2.723 -3.634,2.535 -3.457,2.356 -2.772,1.621 -1.898,1.042 -1.204,0.645 -0.513,0.246 0,0 0,0"
             style="fill:#eceff0;fill-opacity:1;fill-rule:nonzero;stroke:none"
             id="path550" /></g><g
           id="g552"
           transform="translate(153.8746,165.8554)"><path
             d="m 0,0 c 0,0 -0.177,-0.039 -0.482,-0.069 -0.309,-0.017 -0.761,-0.025 -1.279,0.074 -1.044,0.151 -2.426,0.74 -3.458,1.832 -0.254,0.272 -0.492,0.561 -0.682,0.88 -0.218,0.296 -0.339,0.65 -0.489,0.962 -0.233,0.663 -0.331,1.308 -0.312,1.852 0.015,0.544 0.104,0.98 0.215,1.277 0.096,0.296 0.169,0.456 0.169,0.456 0,0 0.081,-0.169 0.192,-0.447 0.051,-0.136 0.114,-0.301 0.185,-0.49 0.087,-0.183 0.183,-0.383 0.264,-0.599 0.089,-0.215 0.232,-0.428 0.335,-0.659 0.116,-0.227 0.274,-0.445 0.4,-0.68 C -4.769,4.177 -4.644,3.934 -4.454,3.725 -4.283,3.505 -4.101,3.289 -3.9,3.086 -3.124,2.254 -2.154,1.535 -1.373,0.968 -0.549,0.387 0,0 0,0"
             style="fill:#eceff0;fill-opacity:1;fill-rule:nonzero;stroke:none"
             id="path554" /></g><g
           id="g556"
           transform="translate(154.5012,167.1898)"><path
             d="m 0,0 c 0,0 -0.571,0.052 -1.344,0.422 -0.77,0.349 -1.737,1.049 -2.378,2.049 -0.157,0.251 -0.295,0.511 -0.405,0.782 -0.137,0.259 -0.173,0.553 -0.258,0.813 -0.104,0.545 -0.113,1.061 -0.055,1.489 0.062,0.429 0.157,0.77 0.26,0.999 0.09,0.231 0.149,0.356 0.149,0.356 0,0 0.011,-0.14 0.029,-0.385 -0.002,-0.24 0.038,-0.578 0.084,-0.969 0.021,-0.195 0.085,-0.401 0.116,-0.618 0.045,-0.215 0.134,-0.432 0.188,-0.66 0.098,-0.217 0.169,-0.449 0.288,-0.666 0.101,-0.225 0.228,-0.441 0.368,-0.65 C -2.422,2.111 -1.672,1.378 -1.063,0.859 -0.458,0.337 0,0 0,0"
             style="fill:#eceff0;fill-opacity:1;fill-rule:nonzero;stroke:none"
             id="path558" /></g><g
           id="g560"
           transform="translate(155.2012,168.7351)"><path
             d="m 0,0 c 0,0 -0.411,0.102 -0.906,0.481 -0.497,0.362 -1.069,1.021 -1.341,1.85 -0.064,0.207 -0.112,0.418 -0.139,0.631 -0.049,0.209 -0.015,0.426 -0.023,0.626 0.035,0.406 0.137,0.771 0.272,1.057 0.135,0.286 0.281,0.5 0.407,0.634 0.118,0.137 0.191,0.208 0.191,0.208 0,0 -0.006,-0.107 -0.026,-0.281 C -1.596,5.035 -1.61,4.79 -1.632,4.514 -1.643,4.235 -1.636,3.923 -1.609,3.599 -1.551,3.277 -1.511,2.938 -1.384,2.613 -1.176,1.955 -0.822,1.319 -0.524,0.833 -0.21,0.333 0,0 0,0"
             style="fill:#eceff0;fill-opacity:1;fill-rule:nonzero;stroke:none"
             id="path562" /></g><g
           id="g564"
           transform="translate(156.4185,170.1741)"><path
             d="m 0,0 c 0,0 -0.305,0.027 -0.669,0.263 -0.365,0.222 -0.784,0.666 -0.977,1.249 -0.043,0.146 -0.075,0.295 -0.093,0.445 -0.034,0.147 -0.003,0.3 -0.005,0.441 0.034,0.285 0.121,0.538 0.231,0.73 0.11,0.193 0.229,0.331 0.329,0.414 0.095,0.086 0.155,0.127 0.155,0.127 0,0 0.007,-0.078 0.01,-0.2 C -1.024,3.349 -1.011,3.18 -1.008,2.997 -0.995,2.812 -0.972,2.612 -0.943,2.409 -0.892,2.207 -0.866,1.997 -0.782,1.794 -0.654,1.383 -0.453,0.961 -0.287,0.616 -0.123,0.275 0,0 0,0"
             style="fill:#eceff0;fill-opacity:1;fill-rule:nonzero;stroke:none"
             id="path566" /></g><g
           id="g568"
           transform="translate(187.9536,178.5521)"><path
             d="m 0,0 c -0.331,0.8 -0.87,1.527 -1.614,2.083 -0.829,0.621 -1.789,0.945 -2.751,0.991 0.071,-0.238 0.133,-0.478 0.18,-0.725 0.276,-1.474 -0.245,-2.968 -1.065,-4.172 -0.441,-0.637 -1.003,-1.119 -1.687,-1.445 -0.6,-0.422 -1.272,-0.673 -2.016,-0.752 -0.056,-0.008 -0.113,-0.009 -0.169,-0.015 0.336,-0.717 0.847,-1.365 1.525,-1.873 0.806,-0.603 1.735,-0.923 2.67,-0.983 C -5.542,-3.798 -3.106,-0.445 0,0"
             style="fill:#f0e2aa;fill-opacity:1;fill-rule:nonzero;stroke:none"
             id="path570" /></g><g
           id="g572"
           transform="translate(187.6785,178.7486)"><path
             d="m 0,0 c 0.087,-0.065 0.152,-0.138 0.227,-0.207 0.016,0.002 0.032,0.008 0.048,0.01 -0.331,0.801 -0.87,1.527 -1.614,2.084 -0.82,0.614 -1.768,0.935 -2.72,0.986 C -3.599,2.516 -3.334,2.09 -3.217,1.647 -2.845,1.599 -2.464,1.461 -2.09,1.181 -1.812,0.973 -1.618,0.736 -1.468,0.489 -0.992,0.506 -0.488,0.366 0,0"
             style="fill:#bf3b2b;fill-opacity:1;fill-rule:nonzero;stroke:none"
             id="path574" /></g><g
           id="g576"
           transform="translate(183.0219,171.6928)"><path
             d="M 0,0 C -0.296,0.31 -0.489,0.682 -0.583,1.076 -1.029,1.083 -1.494,1.228 -1.947,1.567 -2.272,1.81 -2.495,2.089 -2.647,2.383 -3.179,2.373 -3.713,2.516 -4.141,2.829 -4.157,2.827 -4.174,2.826 -4.19,2.824 -3.854,2.107 -3.343,1.459 -2.665,0.951 -1.859,0.348 -0.93,0.028 0.005,-0.031 0.002,-0.021 0.002,-0.01 0,0"
             style="fill:#bf3b2b;fill-opacity:1;fill-rule:nonzero;stroke:none"
             id="path578" /></g><g
           id="g580"
           transform="translate(184.1777,176.3253)"><path
             d="M 0,0 C -0.229,-0.26 -0.503,-0.393 -0.611,-0.297 -0.72,-0.202 -0.623,0.087 -0.394,0.347 -0.165,0.607 0.109,0.74 0.218,0.644 0.327,0.548 0.229,0.26 0,0"
             style="fill:#83371b;fill-opacity:1;fill-rule:nonzero;stroke:none"
             id="path582" /></g><g
           id="g584"
           transform="translate(183.4138,176.8926)"><path
             d="m 0,0 c -0.128,-0.252 -0.317,-0.413 -0.422,-0.36 -0.106,0.054 -0.088,0.302 0.04,0.554 0.128,0.252 0.318,0.413 0.423,0.359 C 0.146,0.5 0.128,0.252 0,0"
             style="fill:#83371b;fill-opacity:1;fill-rule:nonzero;stroke:none"
             id="path586" /></g><g
           id="g588"
           transform="translate(180.9449,172.2144)"><path
             d="M 0,0 C -0.057,-0.076 -0.289,0.002 -0.518,0.174 -0.748,0.346 -0.888,0.546 -0.831,0.622 -0.774,0.698 -0.542,0.62 -0.313,0.448 -0.083,0.276 0.057,0.076 0,0"
             style="fill:#57270d;fill-opacity:1;fill-rule:nonzero;stroke:none"
             id="path590" /></g><g
           id="g592"
           transform="translate(185.9542,180.6376)"><path
             d="M 0,0 C 0.266,0.671 1.115,1.947 1.396,2.246 1.676,2.544 2.12,2.132 1.773,1.91 1.426,1.688 0.249,0.054 0.157,-0.117 0.064,-0.289 -0.082,-0.207 0,0"
             style="fill:#57270d;fill-opacity:1;fill-rule:nonzero;stroke:none"
             id="path594" /></g><g
           id="g596"
           transform="translate(186.0844,180.485)"><path
             d="M 0,0 C 0.917,0.531 2.033,-0.775 2.724,-0.394 1.963,-2.153 -0.11,-0.794 0,0"
             style="fill:#25ad5f;fill-opacity:1;fill-rule:nonzero;stroke:none"
             id="path598" /></g><g
           id="g600"
           transform="translate(185.9286,180.6362)"><path
             d="M 0,0 C 0.347,1.138 -0.124,1.94 -1.162,2.519 -0.857,1.639 -1.852,0.604 0,0"
             style="fill:#25ad5f;fill-opacity:1;fill-rule:nonzero;stroke:none"
             id="path602" /></g><g
           id="g604"
           transform="translate(127.6721,169.3877)"><path
             d="m 0,0 c 0,-0.452 -0.366,-0.818 -0.818,-0.818 -0.452,0 -0.818,0.366 -0.818,0.818 0,0.452 0.366,0.818 0.818,0.818 C -0.366,0.818 0,0.452 0,0"
             style="fill:#efc319;fill-opacity:1;fill-rule:nonzero;stroke:none"
             id="path606" /></g><g
           id="g608"
           transform="translate(130.0437,169.3877)"><path
             d="m 0,0 c 0,-0.452 -0.366,-0.818 -0.818,-0.818 -0.452,0 -0.818,0.366 -0.818,0.818 0,0.452 0.366,0.818 0.818,0.818 C -0.366,0.818 0,0.452 0,0"
             style="fill:#efc319;fill-opacity:1;fill-rule:nonzero;stroke:none"
             id="path610" /></g><g
           id="g612"
           transform="translate(128.6772,167.1093)"><path
             d="m 0,0 c 0,-0.452 -0.366,-0.818 -0.818,-0.818 -0.452,0 -0.818,0.366 -0.818,0.818 0,0.452 0.366,0.818 0.818,0.818 C -0.366,0.818 0,0.452 0,0"
             style="fill:#efc319;fill-opacity:1;fill-rule:nonzero;stroke:none"
             id="path614" /></g><g
           id="g616"
           transform="translate(131.4589,166.8143)"><path
             d="m 0,0 c 0,-0.452 -0.366,-0.818 -0.818,-0.818 -0.452,0 -0.818,0.366 -0.818,0.818 0,0.452 0.366,0.818 0.818,0.818 C -0.366,0.818 0,0.452 0,0"
             style="fill:#efc319;fill-opacity:1;fill-rule:nonzero;stroke:none"
             id="path618" /></g><g
           id="g620"
           transform="translate(169.0173,154.386)"><path
             d="m 0,0 c 0,-0.452 -0.366,-0.818 -0.818,-0.818 -0.452,0 -0.818,0.366 -0.818,0.818 0,0.452 0.366,0.818 0.818,0.818 C -0.366,0.818 0,0.452 0,0"
             style="fill:#efc319;fill-opacity:1;fill-rule:nonzero;stroke:none"
             id="path622" /></g><g
           id="g624"
           transform="translate(127.0415,164.9918)"><path
             d="m 0,0 c 0,-0.452 -0.366,-0.818 -0.818,-0.818 -0.452,0 -0.818,0.366 -0.818,0.818 0,0.452 0.366,0.818 0.818,0.818 C -0.366,0.818 0,0.452 0,0"
             style="fill:#efc319;fill-opacity:1;fill-rule:nonzero;stroke:none"
             id="path626" /></g><g
           id="g628"
           transform="translate(203.8369,173.7905)"><path
             d="M 0,0 C -0.553,0.278 -0.776,0.952 -0.498,1.505 -0.22,2.058 0.454,2.282 1.007,2.004 1.56,1.726 1.783,1.052 1.505,0.498 1.227,-0.055 0.553,-0.278 0,0"
             style="fill:#efc319;fill-opacity:1;fill-rule:nonzero;stroke:none"
             id="path630" /></g><g
           id="g632"
           transform="translate(202.3771,170.8855)"><path
             d="M 0,0 C -0.553,0.278 -0.776,0.952 -0.498,1.505 -0.22,2.058 0.454,2.282 1.007,2.004 1.56,1.726 1.783,1.052 1.505,0.498 1.227,-0.055 0.553,-0.278 0,0"
             style="fill:#efc319;fill-opacity:1;fill-rule:nonzero;stroke:none"
             id="path634" /></g><g
           id="g636"
           transform="translate(200.4274,173.9616)"><path
             d="M 0,0 C -0.553,0.278 -0.776,0.952 -0.498,1.505 -0.22,2.058 0.453,2.282 1.007,2.004 1.56,1.726 1.783,1.052 1.505,0.498 1.227,-0.055 0.553,-0.278 0,0"
             style="fill:#efc319;fill-opacity:1;fill-rule:nonzero;stroke:none"
             id="path638" /></g><g
           id="g640"
           transform="translate(168.8175,180.4097)"><path
             d="M 0,0 C -0.553,0.278 -0.776,0.952 -0.498,1.505 -0.22,2.058 0.453,2.282 1.007,2.004 1.56,1.726 1.783,1.052 1.505,0.498 1.227,-0.055 0.553,-0.278 0,0"
             style="fill:#efc319;fill-opacity:1;fill-rule:nonzero;stroke:none"
             id="path642" /></g><g
           id="g644"
           transform="translate(198.3538,170.7359)"><path
             d="M 0,0 C -0.553,0.278 -0.776,0.952 -0.498,1.505 -0.22,2.058 0.453,2.282 1.007,2.004 1.56,1.726 1.783,1.052 1.505,0.498 1.227,-0.055 0.553,-0.278 0,0"
             style="fill:#efc319;fill-opacity:1;fill-rule:nonzero;stroke:none"
             id="path646" /></g><g
           id="g648"
           transform="translate(165.7445,182.1534)"><path
             d="M 0,0 C -0.553,0.278 -0.776,0.952 -0.498,1.505 -0.22,2.058 0.454,2.282 1.007,2.004 1.56,1.726 1.783,1.052 1.505,0.498 1.227,-0.055 0.553,-0.278 0,0"
             style="fill:#efc319;fill-opacity:1;fill-rule:nonzero;stroke:none"
             id="path650" /></g><g
           id="g652"
           transform="translate(198.8405,177.2685)"><path
             d="M 0,0 C -0.553,0.278 -0.776,0.952 -0.498,1.505 -0.22,2.058 0.454,2.282 1.007,2.004 1.56,1.726 1.783,1.052 1.505,0.498 1.227,-0.055 0.553,-0.278 0,0"
             style="fill:#efc319;fill-opacity:1;fill-rule:nonzero;stroke:none"
             id="path654" /></g><g
           id="g656"
           transform="translate(169.5944,195.832)"><path
             d="M 0,0 C 0.23,-0.11 0.452,-0.223 0.669,-0.338 0.453,-0.223 0.231,-0.11 0,0"
             style="fill:#149f84;fill-opacity:1;fill-rule:nonzero;stroke:none"
             id="path658" /></g><g
           id="g660"
           transform="translate(170.765,195.2126)"><path
             d="M 0,0 C 0.197,-0.114 0.395,-0.227 0.58,-0.345 0.396,-0.227 0.197,-0.114 0,0"
             style="fill:#149f84;fill-opacity:1;fill-rule:nonzero;stroke:none"
             id="path662" /></g><g
           id="g664"
           transform="translate(164.152,193.3928)"><path
             d="M 0,0 C 0.019,0.026 0.032,0.054 0.052,0.08 1.188,1.557 2.661,2.545 4.153,3 4.409,2.9 4.646,2.793 4.887,2.688 4.21,2.984 3.495,3.265 2.695,3.507 -3.913,5.506 -7.918,7.93 -7.918,7.93 l 0.299,0.389 -2.114,1.626 -1.131,-1.471 -1.13,-1.47 1.072,1.395 z"
             style="fill:#149f84;fill-opacity:1;fill-rule:nonzero;stroke:none"
             id="path666" /></g><g
           id="g668"
           transform="translate(172.0091,194.4122)"><path
             d="M 0,0 C 0.199,-0.143 0.387,-0.287 0.57,-0.433 0.388,-0.287 0.198,-0.143 0,0"
             style="fill:#149f84;fill-opacity:1;fill-rule:nonzero;stroke:none"
             id="path670" /></g><g
           id="g672"
           transform="translate(173.0921,193.5544)"><path
             d="M 0,0 C 0.113,-0.099 0.219,-0.199 0.325,-0.299 0.219,-0.199 0.113,-0.099 0,0"
             style="fill:#149f84;fill-opacity:1;fill-rule:nonzero;stroke:none"
             id="path674" /></g><g
           id="g676"
           transform="translate(163.8052,187.0998)"><path
             d="M 0,0 C -0.166,0.178 -0.331,0.362 -0.495,0.555 -0.331,0.362 -0.166,0.178 0,0"
             style="fill:#27b899;fill-opacity:1;fill-rule:nonzero;stroke:none"
             id="path678" /></g><g
           id="g680"
           transform="translate(162.9188,188.1382)"><path
             d="M 0,0 C -0.161,0.203 -0.324,0.402 -0.483,0.621 -0.324,0.402 -0.162,0.204 0,0"
             style="fill:#27b899;fill-opacity:1;fill-rule:nonzero;stroke:none"
             id="path682" /></g><g
           id="g684"
           transform="translate(164.2107,186.6816)"><path
             d="M 0,0 C 0.024,-0.024 0.047,-0.05 0.071,-0.073 H 0.075 C 0.05,-0.048 0.025,-0.025 0,0"
             style="fill:#27b899;fill-opacity:1;fill-rule:nonzero;stroke:none"
             id="path686" /></g><g
           id="g688"
           transform="translate(153.2302,201.7916)"><path
             d="M 0,0 -1.073,-1.395 1.041,-3.02 1.34,-2.632 c 0,0 3.372,-3.248 7,-9.121 0.283,-0.458 0.573,-0.877 0.865,-1.279 0.055,1.531 0.62,3.175 1.717,4.633 z"
             style="fill:#27b899;fill-opacity:1;fill-rule:nonzero;stroke:none"
             id="path690" /></g><g
           id="g692"
           transform="translate(163.3103,187.655)"><path
             d="M 0,0 C -0.131,0.154 -0.261,0.319 -0.391,0.483 -0.261,0.319 -0.131,0.154 0,0"
             style="fill:#f0e2aa;fill-opacity:1;fill-rule:nonzero;stroke:none"
             id="path694" /></g><g
           id="g696"
           transform="translate(164.2107,186.6816)"><path
             d="M 0,0 C -0.135,0.135 -0.271,0.273 -0.405,0.418 -0.271,0.273 -0.135,0.136 0,0"
             style="fill:#f0e2aa;fill-opacity:1;fill-rule:nonzero;stroke:none"
             id="path698" /></g><g
           id="g700"
           transform="translate(171.3447,194.8677)"><path
             d="M 0,0 C 0.233,-0.149 0.451,-0.302 0.664,-0.456 0.45,-0.302 0.233,-0.149 0,0"
             style="fill:#f0e2aa;fill-opacity:1;fill-rule:nonzero;stroke:none"
             id="path702" /></g><g
           id="g704"
           transform="translate(170.263,195.4936)"><path
             d="M 0,0 C 0.172,-0.092 0.338,-0.186 0.502,-0.281 0.338,-0.186 0.173,-0.092 0,0"
             style="fill:#f0e2aa;fill-opacity:1;fill-rule:nonzero;stroke:none"
             id="path706" /></g><g
           id="g708"
           transform="translate(173.8377,192.8413)"><path
             d="m 0,0 c -0.134,0.139 -0.274,0.276 -0.42,0.414 0.145,-0.138 0.284,-0.276 0.418,-0.415 z"
             style="fill:#f0e2aa;fill-opacity:1;fill-rule:nonzero;stroke:none"
             id="path710" /></g><g
           id="g712"
           transform="translate(172.5794,193.9791)"><path
             d="M 0,0 C 0.176,-0.141 0.351,-0.282 0.513,-0.425 0.35,-0.282 0.176,-0.141 0,0"
             style="fill:#f0e2aa;fill-opacity:1;fill-rule:nonzero;stroke:none"
             id="path714" /></g><g
           id="g716"
           transform="translate(173.885,192.7914)"><path
             d="M 0,0 C -0.016,0.017 -0.031,0.033 -0.047,0.05 L -0.05,0.049 C -0.034,0.033 -0.016,0.017 0,0"
             style="fill:#f0e2aa;fill-opacity:1;fill-rule:nonzero;stroke:none"
             id="path718" /></g><g
           id="g720"
           transform="translate(162.4352,188.7597)"><path
             d="M 0,0 C 0,0 0,0 0,0 0,0 0,0 0,0 Z"
             style="fill:#f0e2aa;fill-opacity:1;fill-rule:nonzero;stroke:none"
             id="path722" /></g><g
           id="g724"
           transform="translate(169.0391,196.0807)"><path
             d="M 0,0 C 0.188,-0.082 0.377,-0.163 0.555,-0.249 0.376,-0.163 0.188,-0.082 0,0"
             style="fill:#f0e2aa;fill-opacity:1;fill-rule:nonzero;stroke:none"
             id="path726" /></g><g
           id="g728"
           transform="translate(164.2043,193.4725)"><path
             d="m 0,0 c -0.02,-0.026 -0.033,-0.054 -0.052,-0.08 l 6.291,-4.838 h 0.83 L 7.324,-2.42 4.775,0.282 7.68,-1.163 9.631,-0.632 C 9.497,-0.493 9.359,-0.355 9.213,-0.217 9.107,-0.117 9,-0.017 8.888,0.082 8.726,0.225 8.551,0.366 8.375,0.507 8.192,0.653 8.004,0.797 7.805,0.94 7.591,1.093 7.373,1.246 7.14,1.395 6.956,1.513 6.757,1.626 6.561,1.74 6.397,1.835 6.231,1.929 6.059,2.021 5.842,2.136 5.62,2.249 5.39,2.359 5.211,2.445 5.022,2.526 4.835,2.608 4.594,2.713 4.357,2.821 4.101,2.92 2.609,2.465 1.136,1.477 0,0"
             style="fill:#f0e2aa;fill-opacity:1;fill-rule:nonzero;stroke:none"
             id="path730" /></g><g
           id="g732"
           transform="translate(166.685,186.6085)"><path
             d="M 0,0 V 1.946 H 3.758 L -2.533,6.784 C -3.63,5.326 -4.194,3.682 -4.25,2.151 c 0,0 0.001,0 0.001,0 C -4.09,1.931 -3.928,1.733 -3.766,1.53 -3.636,1.366 -3.506,1.2 -3.375,1.046 -3.21,0.854 -3.045,0.669 -2.88,0.491 -2.745,0.346 -2.61,0.208 -2.474,0.073 -2.45,0.048 -2.425,0.025 -2.4,0 Z"
             style="fill:#f0e2aa;fill-opacity:1;fill-rule:nonzero;stroke:none"
             id="path734" /></g></g></g></g></svg>
