<svg version="1.2" xmlns="http://www.w3.org/2000/svg" viewBox="0 0 1873 150" width="1873" height="150">
	<title>Logo_Dish_Menukit_CMYK-ai</title>
	<style>
		.s0 { fill: #ff6b3e } 
		.s1 { fill: #384044 } 
	</style>
	<g id="Ebene 2">
	</g>
	<g id="Ebene 3">
		<g id="&lt;Group&gt;">
			<path id="&lt;Compound Path&gt;" fill-rule="evenodd" class="s0" d="m0.9 3.9h54.6q14.5 0 27.2 5.8 12.7 5.9 22.2 15.6 9.5 9.6 15 22.5 5.4 12.9 5.4 27 0 13.9-5.3 26.8-5.4 12.9-14.9 22.6-9.5 9.8-22.2 15.6-12.7 5.9-27.4 5.9h-54.6zm36.9 110.5h8.5q9.6 0 17.1-3 7.5-3 12.7-8.3 5.2-5.2 7.9-12.5 2.8-7.2 2.8-15.9 0-8.4-2.9-15.7-2.8-7.4-8-12.6-5.1-5.3-12.7-8.3-7.5-3-16.9-3h-8.5z"/>
			<path id="&lt;Compound Path&gt;" class="s0" d="m279.9 3.9v141.8h-36.9v-141.8z"/>
			<path id="&lt;Compound Path&gt;" class="s0" d="m481.6 40.2q-6-4.9-12-7.2-6-2.4-11.7-2.4-7.1 0-11.7 3.4-4.5 3.4-4.5 8.8 0 3.8 2.3 6.2 2.2 2.5 5.9 4.3 3.7 1.8 8.3 3.1 4.6 1.3 9.1 2.8 18.1 6 26.5 16.1 8.3 10 8.3 26.2 0 10.9-3.6 19.7-3.7 8.9-10.8 15.2-7 6.3-17.3 9.7-10.2 3.5-23.2 3.5-26.9 0-49.9-16l15.8-29.7q8.3 7.4 16.4 10.9 8.1 3.6 16 3.6 9 0 13.4-4.1 4.5-4.2 4.5-9.4 0-3.2-1.2-5.6-1.1-2.3-3.7-4.3-2.7-2-6.9-3.7-4.2-1.7-10.3-3.7-7.1-2.3-14-5-6.8-2.7-12.2-7.2-5.4-4.6-8.7-11.4-3.3-6.9-3.3-17.4 0-10.5 3.5-19.1 3.5-8.5 9.8-14.7 6.3-6.1 15.4-9.4 9.2-3.4 20.5-3.4 10.5 0 22 2.9 11.5 2.9 22 8.5z"/>
			<path id="&lt;Compound Path&gt;" class="s0" d="m656.3 58.6h53.3v-54.7h36.8v141.8h-36.8v-58.5h-53.3v58.5h-36.9v-141.8h36.9z"/>
		</g>
		<g id="&lt;Group&gt;">
			<path id="&lt;Compound Path&gt;" class="s1" d="m945.5 103.6l-36.1-62.8q-1.8-3-4.8-9.1l-0.8 0.2q0.4 3.6 0.4 11.1v98.6q0 4.5-8.1 4.5h-1.4q-8.1 0-8.1-4.5v-133.6q0-4.5 8.1-4.5h7.2q6.5 0 8.5 3.7l38.3 66.4q3.7 6.3 5.3 12.7 1.6-5 6.3-13.3l37.2-65.8q2-3.7 8.5-3.7h6.7q8.1 0 8.1 4.5v133.6q0 4.5-8.1 4.5h-1.4q-8.1 0-8.1-4.5v-97.4q0-7.5 0.4-11.1l-0.8-0.2q-3.1 6.1-4.9 9.1l-35.4 61.6q-1.4 2.6-4.5 2.6h-8.1q-3 0-4.4-2.6z"/>
			<path id="&lt;Compound Path&gt;" class="s1" d="m1085.4 144.3q-1.4-1.5-1.4-4.7v-129.6q0-3.2 1.4-4.6 1.4-1.5 4.6-1.5h70.7q2.2 0 3.1 1.5 0.9 1.4 0.9 4.6v3.3q0 3.2-0.9 4.6-0.9 1.4-3.1 1.4h-58.9v46.2h52.8q2.2 0 3.2 1.4 0.9 1.4 0.9 4.7v3.2q0 3.2-0.9 4.7-1 1.4-3.2 1.4h-52.8v49.4h59.1q2.2 0 3.1 1.4 0.9 1.4 0.9 4.7v3.2q0 3.2-0.9 4.7-0.9 1.4-3.1 1.4h-70.9q-3.2 0-4.6-1.4z"/>
			<path id="&lt;Compound Path&gt;" class="s1" d="m1218.4 141.6v-133.6q0-4.5 8.1-4.5h4.2q3.3 0 5.2 0.8 1.9 0.9 3.4 3.1l63.5 96q3.5 5 6.7 12.1l0.8-0.2q-0.4-4.7-0.4-13.8v-93.5q0-4.5 8.1-4.5h1.4q8.1 0 8.1 4.5v133.6q0 4.5-8.1 4.5h-4q-5.3 0-7.1-2.9l-65.2-98.4q-3.4-5-6.7-12.1l-0.8 0.2q0.4 4.7 0.4 13.8v94.9q0 4.5-8.1 4.5h-1.4q-8.1 0-8.1-4.5z"/>
			<path id="&lt;Compound Path&gt;" class="s1" d="m1402.1 134.6q-14.2-12.2-14.2-34.3v-92.3q0-4.5 8.1-4.5h1.6q8.1 0 8.1 4.5v92.9q0 8.9 4.8 15.9 4.9 7 13.4 10.8 8.5 3.9 19.2 3.9 10.8 0 19.3-4 8.5-3.9 13.3-10.9 4.9-7 4.9-15.7v-92.9q0-4.5 8.1-4.5h1.6q8.1 0 8.1 4.5v92.3q0 22.1-14.4 34.3-14.3 12.3-40.9 12.3-26.7 0-41-12.3z"/>
			<path id="&lt;Compound Path&gt;" class="s1" d="m1560.2 141.6v-133.6q0-4.5 8.1-4.5h1.6q8.1 0 8.1 4.5v61.9h0.8l49.8-63.5q2.2-2.9 10.9-2.9h2.1q3.4 0 5.2 0.7 1.8 0.8 1.8 2 0 1.8-2 4l-50.6 63.2 61.3 66.6q1.9 2 1.9 3.2 0 1.7-2.1 2.3-2 0.6-6.8 0.6h-2.5q-4.4 0-7-0.4-2.5-0.4-4.1-2.3l-57.9-65.2h-0.8v63.4q0 4.5-8.1 4.5h-1.6q-8.1 0-8.1-4.5z"/>
			<path id="&lt;Compound Path&gt;" class="s1" d="m1702.1 141.6v-133.6q0-4.5 8.1-4.5h1.6q8.1 0 8.1 4.5v133.6q0 4.5-8.1 4.5h-1.6q-8.1 0-8.1-4.5z"/>
			<path id="&lt;Compound Path&gt;" class="s1" d="m1812 141.6v-122.3h-38.8q-2.1 0-3.1-1.4-1-1.4-1-4.6v-3.3q0-3.2 1-4.6 1-1.5 3.1-1.5h94.9q2.2 0 3.2 1.5 0.9 1.4 0.9 4.6v3.3q0 3.2-0.9 4.6-1 1.4-3.2 1.4h-38.3v122.3q0 4.5-8.1 4.5h-1.6q-8.1 0-8.1-4.5z"/>
		</g>
	</g>
</svg>