<svg version="1.2" xmlns="http://www.w3.org/2000/svg" viewBox="0 0 626 717" width="626" height="717">
	<title>menu-svg</title>
	<style>
		.s0 { fill: #ffffff } 
	</style>
	<path id="Layer" fill-rule="evenodd" class="s0" d="m602.6 0l5.4 2.7c10.2 5 16.2 13 17.1 24.5 0.3 3 0.3 6 0.3 9.1q0 322.1 0 644.1c0 4.7 0 9.4-1 13.9-2.9 12.1-13.4 20.8-26 21.9-2.6 0.2-5.1 0.1-7.7 0.1h-403q-1 0.1-2 0.1-0.9 0-1.9 0-0.9-0.1-1.9-0.1-1-0.1-1.9-0.2c-6.2-0.9-10.3-5.7-9.9-11.6 0.5-6.2 4-9.7 10.2-10.5q1-0.1 1.9-0.1 1-0.1 2-0.1 0.9 0 1.9 0 0.9 0 1.9 0h374.8v-56.7h-539.6c0 16.9-0.2 33.4 0 49.9 0.1 5.3 4 6.8 8.8 6.8q17.1 0 34.2 0c25.5 0 50.9-0.1 76.3 0 9.4 0 14.8 6.2 12.6 14-1.6 5.8-5.8 8.4-11.4 8.4-38.5 0.1-77 0.3-115.5-0.2-15.2-0.2-26.5-12.2-27.5-27.3-0.3-3.2-0.3-6.5-0.3-9.8q0-320.3-0.2-640.6c0-18.4 5.2-31.7 23-38.4zm-513.2 614.2h499.9c12.8 0 13.5-0.6 13.5-13.3v-565.1c0-12.2-1-13.3-13-13.3h-500.3zm-23.3-591.6c-10.7 0-20.7 0-30.7 0-11.1 0-12.4 1.2-12.4 12.5v578.8h43.1zm520 671.2c3.4 0 6.5 0.9 8.8-0.2 2.9-1.3 7.2-4.1 7.3-6.4 0.6-16.7 0.3-33.4 0.3-50h-16.4z"/>
	<path id="Layer" class="s0" d="m294 676.6q-116.1 0-232.2 0-1.2 0.1-2.4 0-1.3 0-2.5-0.1-1.2-0.1-2.4-0.3-1.2-0.1-2.4-0.4c-5.1-1.1-7.9-4.7-8.1-10-0.2-5.5 2.4-9.4 7.8-11q1-0.2 2-0.4 1.1-0.2 2.1-0.3 1-0.1 2.1-0.2 1 0 2.1 0 234 0 468 0 1 0 2.1 0 1 0.1 2.1 0.2 1 0.1 2 0.3 1.1 0.2 2.1 0.4c5.3 1.5 8 5.5 7.7 11-0.2 5.2-2.9 8.9-8.1 10q-1.2 0.2-2.4 0.4-1.2 0.2-2.4 0.3-1.2 0.1-2.4 0.1-1.3 0.1-2.5 0-116.1 0.1-232.3 0z"/>
	<path id="Layer" class="s0" d="m240.1 260c-11.9 0-23.8 0.1-35.6-0.1-6-0.1-11-2.4-12.4-9-1.1-5.2 0.5-9.5 5.2-11.7q1.2-0.5 2.5-0.9 1.2-0.3 2.5-0.5 1.3-0.3 2.5-0.4 1.3-0.1 2.6 0c21.7-0.2 43.4-0.1 65-0.1 9.2 0 17.6-2 24.4-8.6 8.1-7.8 9.1-20.6 2.3-29.2-5.4-6.8-13.6-8.4-20.5-4.1-6 3.7-7.3 8.7-3.8 14.8 0.6 1 1.3 1.9 1.9 2.9 3.2 5.7 2.4 11.4-2.2 15-5 3.9-10.8 3.3-15.7-1.7-14.4-14.7-10.5-39.4 7.9-50.5 24-14.5 55.2 1.2 58.9 29.7 3.4 26.8-15.1 50.9-42.2 53.2-14.3 1.3-28.9 0.3-43.3 0.3z"/>
	<path id="Layer" class="s0" d="m241 422.3c14.7 0 29.5-1.6 43.9 0.3 33.8 4.3 51.6 40.5 34.9 68.7-8.4 14.2-24.2 21.7-39.7 19-15.1-2.6-26.9-13.7-29.5-28-1.8-10.6 1.1-19.9 8.4-27.7 4.6-4.9 10.2-5.4 15.1-1.9 5 3.7 6 9.5 2.5 15.5-5 8.4-4.7 12.8 1 17 6.6 4.7 15 3.7 20.7-2.6 7.6-8.4 6.8-22.4-1.6-30.3-6.7-6.3-14.8-8.6-23.7-8.6q-33.9 0-67.8 0c-5.3 0-9.8-1.2-12.3-6.3-3.9-7.7 1.6-16 11.1-16.2 12.4-0.3 24.7 0 37 0z"/>
	<path id="Layer" class="s0" d="m436.1 421.2c12.1 0 24.2-0.2 36.3 0 8.3 0.1 13 4.6 12.9 11.6-0.1 6.6-4.7 10.6-12.7 10.9-1.8 0.1-3.7 0-5.6 0h-62.9c-9.2 0-17.5 2.4-24.2 9-1.9 1.9-3.5 4.1-4.6 6.6-1.1 2.4-1.7 5-1.9 7.7-0.1 2.7 0.2 5.4 1.1 7.9 0.8 2.6 2.1 5 3.8 7 5.2 6.2 12.9 7.9 19.4 4.4 6.6-3.6 8.2-9.4 4.3-15.8-0.3-0.6-0.8-1.2-1.1-1.8-3.9-6.4-3.1-12.2 2.1-16 5.2-3.7 11.1-2.7 16.1 2.9 13.4 15.2 9 39.3-9 49.9-13.5 7.8-30.2 7-42.1-2.2-3.4-2.7-6.5-5.9-9-9.5-2.5-3.6-4.5-7.5-5.8-11.6-1.4-4.2-2.2-8.5-2.3-12.9-0.1-4.3 0.5-8.7 1.6-12.9 5.9-20.7 25.6-34.7 50-35.2 11.2-0.2 22.4 0 33.6 0z"/>
	<path id="Layer" class="s0" d="m436.7 258.9c-14.7 0-29.4 1.3-44-0.2-33.8-3.4-52.5-40.4-35.3-68.9 8.8-14.6 22-21.4 38.9-18.9 14.2 2 24.6 9.9 29 24 3.6 11.5 1.2 22.1-6.8 31.2-4.7 5.2-10.5 6-15.6 2.2-5.1-3.7-6-9.4-2.4-15.4 4.8-8.2 4.6-12.5-0.5-16.6-6-4.7-13.9-4.3-19.9 0.9-9.1 8-9 22.9 0.3 31.7 6.9 6.6 15.3 8.4 24.5 8.4q31.4 0 62.9 0c2.3 0 4.7 0 7 0.2 6.1 0.7 9.8 4 10.4 10.2 0.6 6.3-2.9 10.8-9.4 11.8-4.8 0.7-9.8 0.5-14.7 0.5-8.1 0.1-16.3 0-24.4 0z"/>
	<path id="Layer" class="s0" d="m175.5 328.9v56.8h-17.4v-91.5c5.4 0 11-0.4 16.4 0.3 1.8 0.2 3.8 2.9 4.9 5 8.1 15.1 15.9 30.4 24.5 47 4-7.4 7.4-13.8 10.8-20.2 4.4-8.4 9.1-16.8 13.1-25.4 2.4-5.2 5.6-7.5 11.3-6.7 3.4 0.4 6.9 0 10.8 0v91.6h-17.4v-57l-1.5-0.3c-6.4 12.3-12.9 24.6-19.2 36.9-1.7 3.1-3 5.7-7.6 5.6-4.4-0.1-6-2.1-7.8-5.5-6.3-12.4-12.8-24.6-19.3-36.9z"/>
	<path id="Layer" class="s0" d="m365.5 327.8v57.9h-17.6v-90.8c7.9-1.9 13.9-0.8 19.3 6.5 13 17.5 27 34.3 41.9 53.1v-59.7h17.3v90.8c-8 1.3-14.5 1.1-20.2-6.9-10.9-15.1-23.1-29.2-34.8-43.8-1.5-1.9-3.2-3.8-5.9-7.1z"/>
	<path id="Layer" class="s0" d="m270 385.6v-91h62v15h-44v22.2h37.5v14.8h-37.5v24h45.1v15z"/>
	<path id="Layer" class="s0" d="m462.7 294.6c0 14.5-0.1 28.2 0 41.9q0 2 0.1 3.9 0.1 1.9 0.3 3.8 0.1 1.9 0.3 3.8 0.2 1.9 0.5 3.8c1.8 11.7 9.7 18.9 20.6 19 11.3 0.2 20.4-6.7 21.5-18.6 1.3-15.2 1-30.6 1.4-46 0.1-3.7 0-7.4 0-11.5h17.9c0 2.8 0 5.6 0 8.3-0.3 16 0.2 32.1-1.2 48.1-1.3 16-8.9 28.7-25.3 33.4-15.8 4.5-31.3 3.4-42.9-10-4.4-5-8.4-12-9-18.4-1.9-20.3-2.2-40.7-3.1-61.6z"/>
	<path id="Layer" class="s0" d="m163.8 443.8q-0.8 0-1.6 0-0.8 0-1.6-0.1-0.7 0-1.5-0.1-0.8 0-1.6-0.1c-5.8-1-9.1-4.8-9.4-10.5-0.3-5.4 2.5-9.9 8-10.9q1.9-0.3 3.9-0.5 2-0.2 4-0.2 2 0 4 0.2 2 0.2 3.9 0.5c5.7 1 8.6 5.5 8 11.4-0.5 5.9-4.1 9.3-9.8 10q-0.8 0.1-1.6 0.1-0.8 0.1-1.6 0.1-0.8 0-1.5 0-0.8-0.1-1.6-0.1z"/>
	<path id="Layer" class="s0" d="m513.4 443.8c-1.9-0.1-3.7 0-5.5-0.3-6.2-0.8-9.7-4.7-10-10.6-0.3-5.7 2.9-9.9 8.6-11q1.5-0.3 3-0.4 1.6-0.2 3.1-0.3 1.6 0 3.2 0 1.5 0 3.1 0.2c7 0.5 11.3 5.5 11 11.9-0.4 6-4.7 10-11.6 10.4-1.7 0.1-3.3 0-4.9 0z"/>
	<path id="Layer" class="s0" d="m164.3 237.2q0.8 0 1.7 0.1 0.8 0 1.6 0.1 0.9 0.1 1.7 0.1 0.8 0.1 1.6 0.3c5.5 1 8.6 4.4 9 9.9 0.5 5.4-2 10-7.3 11.1q-2 0.3-4.1 0.5-2 0.2-4.1 0.3-2 0-4.1-0.2-2-0.1-4.1-0.4c-5.7-0.9-8.5-5.6-8.1-11.3 0.5-5.6 3.7-9.3 9.7-10 2.1-0.3 4.2-0.3 6.5-0.5z"/>
	<path id="Layer" class="s0" d="m514.2 237.2q0.8 0 1.7 0.1 0.9 0 1.8 0.1 0.8 0.1 1.7 0.2 0.9 0.1 1.8 0.2c5.1 1.1 8 4.4 8.6 9.6 0.5 5.5-1.9 10.1-7.1 11.3q-2 0.4-4.1 0.6-2 0.2-4.1 0.3-2 0-4.1-0.1-2-0.1-4.1-0.4c-5.8-0.8-8.7-5.4-8.4-11 0.4-5.9 3.8-9.8 10.1-10.5 1.9-0.2 3.7-0.3 6.2-0.4z"/>
</svg>