<svg xmlns="http://www.w3.org/2000/svg" xmlns:xlink="http://www.w3.org/1999/xlink" version="1.1" id="Layer_1" x="0px" y="0px" width="612px" height="792px" viewBox="0 0 612 792" enable-background="new 0 0 612 792" xml:space="preserve">
<g id="XMLID_20424_">
	<g id="XMLID_20545_">
		<g id="XMLID_2341_">
			<g id="XMLID_2342_" enable-background="new    ">
				<g id="XMLID_2356_">
					<polygon id="XMLID_2357_" fill="#515151" points="475.612,304.713 475.563,320.732 471.924,322.854 471.975,306.81      "/>
				</g>
				<g id="XMLID_2354_">
					<polygon id="XMLID_2355_" fill="#4D4D4D" points="473.945,306.481 477.583,304.359 476.725,305.218 473.086,307.341      "/>
				</g>
				<g id="XMLID_2352_">
					<polygon id="XMLID_2353_" fill="#8C8C8C" points="477.962,303.551 474.324,305.673 474.147,305.572 474.324,305.446        474.476,305.37 477.785,303.45      "/>
				</g>
				<g id="XMLID_2350_">
					<polygon id="XMLID_2351_" fill="#515151" points="475.233,306.204 478.872,304.081 478.872,305.117 475.233,307.214      "/>
				</g>
				<g id="XMLID_2347_">
					<polygon id="XMLID_2349_" fill="#686969" points="470.181,307.846 471.975,306.81 471.924,322.854 470.13,321.818      "/>
					<polygon id="XMLID_2348_" fill="#686969" points="475.233,305.825 475.233,306.204 475.233,307.214 473.945,306.481        473.086,307.341 472.075,306.759 474.147,305.572 474.324,305.673 474.324,305.446 474.324,305.294 474.476,305.37      "/>
				</g>
				<g id="XMLID_2345_">
					<polygon id="XMLID_2346_" fill="#515151" points="475.233,305.825 478.872,303.702 478.872,304.081 475.233,306.204      "/>
				</g>
				<g id="XMLID_2343_">
					<polygon id="XMLID_2344_" fill="#8C8C8C" points="474.324,305.294 477.962,303.172 478.872,303.702 475.233,305.825      "/>
				</g>
			</g>
		</g>
		<polygon id="XMLID_2340_" opacity="0.2" fill="#9A5A96" enable-background="new    " points="480.413,323.637 476.977,325.633     471.924,322.728 475.461,320.782   "/>
		<g id="XMLID_2377_">
			<g id="XMLID_2378_" enable-background="new    ">
				<g id="XMLID_2392_">
					<polygon id="XMLID_2393_" fill="#515151" points="341.954,382.659 341.903,398.679 338.265,400.801 338.315,384.756      "/>
				</g>
				<g id="XMLID_2390_">
					<polygon id="XMLID_2391_" fill="#4D4D4D" points="340.286,384.428 343.925,382.306 343.065,383.165 339.428,385.287      "/>
				</g>
				<g id="XMLID_2388_">
					<polygon id="XMLID_2389_" fill="#8C8C8C" points="344.304,381.497 340.665,383.62 340.488,383.519 340.665,383.392        340.792,383.316 344.127,381.396      "/>
				</g>
				<g id="XMLID_2386_">
					<polygon id="XMLID_2387_" fill="#515151" points="341.575,384.15 345.213,382.028 345.213,383.063 341.575,385.161      "/>
				</g>
				<g id="XMLID_2383_">
					<polygon id="XMLID_2385_" fill="#686969" points="336.496,385.792 338.315,384.756 338.265,400.801 336.471,399.765      "/>
					<polygon id="XMLID_2384_" fill="#686969" points="341.575,383.771 341.575,384.15 341.575,385.161 340.286,384.428        339.428,385.287 338.417,384.706 340.488,383.519 340.665,383.62 340.665,383.392 340.665,383.241 340.792,383.316      "/>
				</g>
				<g id="XMLID_2381_">
					<polygon id="XMLID_2382_" fill="#515151" points="341.575,383.771 345.213,381.649 345.213,382.028 341.575,384.15      "/>
				</g>
				<g id="XMLID_2379_">
					<polygon id="XMLID_2380_" fill="#8C8C8C" points="340.665,383.241 344.304,381.118 345.213,381.649 341.575,383.771      "/>
				</g>
			</g>
		</g>
		<polygon id="XMLID_2376_" opacity="0.2" fill="#9A5A96" enable-background="new    " points="346.755,401.584 343.318,403.58     338.265,400.674 341.803,398.729   "/>
		<g id="XMLID_2395_">
			<g id="XMLID_2396_" enable-background="new    ">
				<g id="XMLID_2410_">
					<polygon id="XMLID_2411_" fill="#515151" points="291.876,411.816 291.826,427.836 288.188,429.958 288.238,413.914      "/>
				</g>
				<g id="XMLID_2408_">
					<polygon id="XMLID_2409_" fill="#4D4D4D" points="290.208,413.585 293.847,411.463 292.988,412.322 289.35,414.444      "/>
				</g>
				<g id="XMLID_2406_">
					<polygon id="XMLID_2407_" fill="#8C8C8C" points="294.226,410.654 290.587,412.776 290.411,412.676 290.587,412.55        290.739,412.474 294.074,410.554      "/>
				</g>
				<g id="XMLID_2404_">
					<polygon id="XMLID_2405_" fill="#515151" points="291.522,413.308 295.161,411.186 295.161,412.221 291.522,414.318      "/>
				</g>
				<g id="XMLID_2401_">
					<polygon id="XMLID_2403_" fill="#686969" points="286.444,414.95 288.238,413.914 288.188,429.958 286.394,428.922      "/>
					<polygon id="XMLID_2402_" fill="#686969" points="291.522,412.929 291.522,413.308 291.522,414.318 290.208,413.585        289.35,414.444 288.364,413.863 290.411,412.676 290.587,412.776 290.587,412.55 290.587,412.397 290.739,412.474      "/>
				</g>
				<g id="XMLID_2399_">
					<polygon id="XMLID_2400_" fill="#515151" points="291.522,412.929 295.161,410.806 295.161,411.186 291.522,413.308      "/>
				</g>
				<g id="XMLID_2397_">
					<polygon id="XMLID_2398_" fill="#8C8C8C" points="290.587,412.397 294.226,410.275 295.161,410.806 291.522,412.929      "/>
				</g>
			</g>
		</g>
		<polygon id="XMLID_2394_" opacity="0.2" fill="#9A5A96" enable-background="new    " points="296.702,430.741 293.241,432.737     288.188,429.832 291.75,427.886   "/>
		<g id="XMLID_2413_">
			<g id="XMLID_2414_" enable-background="new    ">
				<g id="XMLID_2428_">
					<polygon id="XMLID_2429_" fill="#515151" points="239.499,441.479 239.449,457.523 235.81,459.62 235.861,443.602      "/>
				</g>
				<g id="XMLID_2426_">
					<polygon id="XMLID_2427_" fill="#4D4D4D" points="237.832,443.248 241.47,441.126 240.611,441.984 236.973,444.107      "/>
				</g>
				<g id="XMLID_2424_">
					<polygon id="XMLID_2425_" fill="#8C8C8C" points="241.849,440.317 238.21,442.439 238.034,442.338 238.21,442.237        238.362,442.161 241.697,440.241      "/>
				</g>
				<g id="XMLID_2422_">
					<polygon id="XMLID_2423_" fill="#515151" points="239.146,442.97 242.784,440.873 242.784,441.884 239.12,444.006      "/>
				</g>
				<g id="XMLID_2419_">
					<polygon id="XMLID_2421_" fill="#686969" points="234.067,444.638 235.861,443.602 235.81,459.62 234.017,458.585      "/>
					<polygon id="XMLID_2420_" fill="#686969" points="239.146,442.616 239.146,442.97 239.12,444.006 237.832,443.248        236.973,444.107 235.987,443.526 238.034,442.338 238.21,442.439 238.21,442.237 238.21,442.086 238.362,442.161      "/>
				</g>
				<g id="XMLID_2417_">
					<polygon id="XMLID_2418_" fill="#515151" points="239.146,442.616 242.784,440.494 242.784,440.873 239.146,442.97      "/>
				</g>
				<g id="XMLID_2415_">
					<polygon id="XMLID_2416_" fill="#8C8C8C" points="238.21,442.086 241.849,439.963 242.784,440.494 239.146,442.616      "/>
				</g>
			</g>
		</g>
		<polygon id="XMLID_2412_" opacity="0.2" fill="#9A5A96" enable-background="new    " points="244.3,460.403 240.863,462.399     235.81,459.494 239.348,457.549   "/>
		<g id="XMLID_2431_">
			<g id="XMLID_2432_" enable-background="new    ">
				<g id="XMLID_2446_">
					<polygon id="XMLID_2447_" fill="#515151" points="186.086,472.229 186.036,488.247 182.397,490.369 182.448,474.325      "/>
				</g>
				<g id="XMLID_2444_">
					<polygon id="XMLID_2445_" fill="#4D4D4D" points="184.418,473.997 188.057,471.875 187.198,472.733 183.56,474.856      "/>
				</g>
				<g id="XMLID_2442_">
					<polygon id="XMLID_2443_" fill="#8C8C8C" points="188.436,471.066 184.798,473.188 184.621,473.088 184.798,472.961        184.949,472.886 188.259,470.965      "/>
				</g>
				<g id="XMLID_2440_">
					<polygon id="XMLID_2441_" fill="#515151" points="185.732,473.719 189.371,471.597 189.346,472.633 185.707,474.729      "/>
				</g>
				<g id="XMLID_2437_">
					<polygon id="XMLID_2439_" fill="#686969" points="180.654,475.361 182.448,474.325 182.397,490.369 180.604,489.334      "/>
					<polygon id="XMLID_2438_" fill="#686969" points="185.732,473.34 185.732,473.719 185.707,474.729 184.418,473.997        183.56,474.856 182.549,474.275 184.621,473.088 184.798,473.188 184.798,472.961 184.798,472.81 184.949,472.886      "/>
				</g>
				<g id="XMLID_2435_">
					<polygon id="XMLID_2436_" fill="#515151" points="185.732,473.34 189.371,471.218 189.371,471.597 185.732,473.719      "/>
				</g>
				<g id="XMLID_2433_">
					<polygon id="XMLID_2434_" fill="#8C8C8C" points="184.798,472.81 188.436,470.688 189.371,471.218 185.732,473.34      "/>
				</g>
			</g>
		</g>
		<polygon id="XMLID_2430_" opacity="0.2" fill="#9A5A96" enable-background="new    " points="190.887,491.153 187.451,493.148     182.397,490.243 185.935,488.298   "/>
		<g id="XMLID_2449_">
			<g id="XMLID_2450_" enable-background="new    ">
				<g id="XMLID_2464_">
					<polygon id="XMLID_2465_" fill="#515151" points="134.214,502.674 134.164,518.693 130.525,520.815 130.576,504.771      "/>
				</g>
				<g id="XMLID_2462_">
					<polygon id="XMLID_2463_" fill="#4D4D4D" points="132.547,504.443 136.185,502.32 135.326,503.18 131.688,505.302      "/>
				</g>
				<g id="XMLID_2460_">
					<polygon id="XMLID_2461_" fill="#8C8C8C" points="136.564,501.512 132.926,503.635 132.749,503.533 132.926,503.433        133.078,503.331 136.413,501.411      "/>
				</g>
				<g id="XMLID_2458_">
					<polygon id="XMLID_2459_" fill="#515151" points="133.861,504.165 137.499,502.043 137.499,503.078 133.861,505.201      "/>
				</g>
				<g id="XMLID_2455_">
					<polygon id="XMLID_2457_" fill="#686969" points="128.782,505.833 130.576,504.771 130.525,520.815 128.732,519.779      "/>
					<polygon id="XMLID_2456_" fill="#686969" points="133.861,503.786 133.861,504.165 133.861,505.201 132.547,504.443        131.688,505.302 130.703,504.721 132.749,503.533 132.926,503.635 132.926,503.433 132.926,503.256 133.078,503.331      "/>
				</g>
				<g id="XMLID_2453_">
					<polygon id="XMLID_2454_" fill="#515151" points="133.861,503.786 137.499,501.664 137.499,502.043 133.861,504.165      "/>
				</g>
				<g id="XMLID_2451_">
					<polygon id="XMLID_2452_" fill="#8C8C8C" points="132.926,503.256 136.564,501.133 137.499,501.664 133.861,503.786      "/>
				</g>
			</g>
		</g>
		<polygon id="XMLID_2448_" opacity="0.2" fill="#9A5A96" enable-background="new    " points="139.041,521.599 135.579,523.595     130.525,520.689 134.088,518.743   "/>
		<g id="XMLID_2467_">
			<g id="XMLID_2468_" enable-background="new    ">
				<g id="XMLID_2482_">
					<polygon id="XMLID_2483_" fill="#515151" points="80.296,534.384 80.246,550.402 76.607,552.524 76.658,536.48      "/>
				</g>
				<g id="XMLID_2480_">
					<polygon id="XMLID_2481_" fill="#4D4D4D" points="78.629,536.127 82.267,534.029 81.408,534.889 77.77,536.986      "/>
				</g>
				<g id="XMLID_2478_">
					<polygon id="XMLID_2479_" fill="#8C8C8C" points="82.646,533.222 79.008,535.318 78.831,535.217 79.008,535.116 79.134,535.04        82.469,533.12      "/>
				</g>
				<g id="XMLID_2476_">
					<polygon id="XMLID_2477_" fill="#515151" points="79.917,535.849 83.556,533.752 83.556,534.763 79.917,536.885      "/>
				</g>
				<g id="XMLID_2473_">
					<polygon id="XMLID_2475_" fill="#686969" points="74.839,537.517 76.658,536.48 76.607,552.524 74.813,551.488      "/>
					<polygon id="XMLID_2474_" fill="#686969" points="79.917,535.495 79.917,535.849 79.917,536.885 78.629,536.127 77.77,536.986        76.759,536.404 78.831,535.217 79.008,535.318 79.008,535.116 79.008,534.965 79.134,535.04      "/>
				</g>
				<g id="XMLID_2471_">
					<polygon id="XMLID_2472_" fill="#515151" points="79.917,535.495 83.556,533.373 83.556,533.752 79.917,535.849      "/>
				</g>
				<g id="XMLID_2469_">
					<polygon id="XMLID_2470_" fill="#8C8C8C" points="79.008,534.965 82.646,532.842 83.556,533.373 79.917,535.495      "/>
				</g>
			</g>
		</g>
		<polygon id="XMLID_2466_" opacity="0.2" fill="#9A5A96" enable-background="new    " points="85.097,553.282 81.661,555.304     76.607,552.373 80.145,550.428   "/>
		<g id="XMLID_2485_">
			<g id="XMLID_2486_" enable-background="new    ">
				<g id="XMLID_2500_">
					<polygon id="XMLID_2501_" fill="#515151" points="34.868,561.141 34.842,577.159 31.204,579.281 31.229,563.263      "/>
				</g>
				<g id="XMLID_2498_">
					<polygon id="XMLID_2499_" fill="#4D4D4D" points="33.2,562.909 36.838,560.787 36.004,561.646 32.366,563.769      "/>
				</g>
				<g id="XMLID_2496_">
					<polygon id="XMLID_2497_" fill="#8C8C8C" points="37.243,559.979 33.579,562.101 33.402,562 33.604,561.898 33.73,561.822        37.065,559.877      "/>
				</g>
				<g id="XMLID_2494_">
					<polygon id="XMLID_2495_" fill="#515151" points="34.514,562.631 38.152,560.509 38.152,561.545 34.514,563.667      "/>
				</g>
				<g id="XMLID_2491_">
					<polygon id="XMLID_2493_" fill="#686969" points="29.435,564.299 31.229,563.263 31.204,579.281 29.385,578.246      "/>
					<polygon id="XMLID_2492_" fill="#686969" points="34.514,562.252 34.514,562.631 34.514,563.667 33.2,562.909 32.366,563.769        31.355,563.188 33.402,562 33.579,562.101 33.604,561.898 33.604,561.722 33.73,561.822      "/>
				</g>
				<g id="XMLID_2489_">
					<polygon id="XMLID_2490_" fill="#515151" points="34.514,562.252 38.152,560.155 38.152,560.509 34.514,562.631      "/>
				</g>
				<g id="XMLID_2487_">
					<polygon id="XMLID_2488_" fill="#8C8C8C" points="33.604,561.722 37.243,559.624 38.152,560.155 34.514,562.252      "/>
				</g>
			</g>
		</g>
		<polygon id="XMLID_2484_" opacity="0.2" fill="#9A5A96" enable-background="new    " points="39.693,580.064 36.232,582.061     31.204,579.155 34.741,577.21   "/>
		<g id="XMLID_2359_">
			<g id="XMLID_2360_" enable-background="new    ">
				<g id="XMLID_2374_">
					<polygon id="XMLID_2375_" fill="#515151" points="417.298,338.747 417.272,354.766 413.635,356.888 413.659,340.844      "/>
				</g>
				<g id="XMLID_2372_">
					<polygon id="XMLID_2373_" fill="#4D4D4D" points="415.631,340.515 419.269,338.393 418.435,339.252 414.797,341.375      "/>
				</g>
				<g id="XMLID_2370_">
					<polygon id="XMLID_2371_" fill="#8C8C8C" points="419.673,337.584 416.035,339.707 415.833,339.605 416.035,339.504        416.161,339.403 419.496,337.483      "/>
				</g>
				<g id="XMLID_2368_">
					<polygon id="XMLID_2369_" fill="#515151" points="416.944,340.237 420.583,338.115 420.583,339.151 416.944,341.273      "/>
				</g>
				<g id="XMLID_2365_">
					<polygon id="XMLID_2367_" fill="#686969" points="411.865,341.905 413.659,340.844 413.635,356.888 411.815,355.852      "/>
					<polygon id="XMLID_2366_" fill="#686969" points="416.944,339.858 416.944,340.237 416.944,341.273 415.631,340.515        414.797,341.375 413.786,340.793 415.833,339.605 416.035,339.707 416.035,339.504 416.035,339.328 416.161,339.403      "/>
				</g>
				<g id="XMLID_2363_">
					<polygon id="XMLID_2364_" fill="#515151" points="416.944,339.858 420.583,337.736 420.583,338.115 416.944,340.237      "/>
				</g>
				<g id="XMLID_2361_">
					<polygon id="XMLID_2362_" fill="#8C8C8C" points="416.035,339.328 419.673,337.206 420.583,337.736 416.944,339.858      "/>
				</g>
			</g>
		</g>
		<polygon id="XMLID_2358_" opacity="0.2" fill="#9A5A96" enable-background="new    " points="422.124,357.671 418.662,359.667     413.635,356.762 417.172,354.816   "/>
		<polygon id="XMLID_22097_" opacity="0.5" fill="#9FDAE6" enable-background="new    " points="588.073,216.028 588.073,224.467     575.541,231.668 575.541,223.254 585.092,217.746 587.163,216.534   "/>
		<polygon id="XMLID_22096_" opacity="0.5" fill="#FFFFFF" enable-background="new    " points="587.088,216.483 575.439,228.131     575.439,227.247 585.016,217.696   "/>
		<polygon id="XMLID_22095_" opacity="0.5" fill="#FFFFFF" enable-background="new    " points="575.439,230.986 587.997,218.429     587.997,218.959 575.439,231.491   "/>
		<polygon id="XMLID_22083_" opacity="0.4" fill="#5F7485" enable-background="new    " points="576.35,262.089 587.593,261.104     589.008,260.219 576.729,261.331   "/>
		<path id="XMLID_22058_" fill="#424242" d="M572.23,221.284l-0.05,13.542l18.242-10.612l0.05-13.542L572.23,221.284z     M588.073,224.467l-12.532,7.175v-8.388l9.551-5.533l2.071-1.213l0.91-0.531V224.467z"/>
		<g id="XMLID_22061_">
			<g id="XMLID_22062_" enable-background="new    ">
				<g id="XMLID_22081_">
					<polygon id="XMLID_22082_" fill="#8B8A8B" points="2.224,573.369 604.143,222.85 604.9,222.699 2.981,573.218      "/>
				</g>
				<g id="XMLID_22079_">
					<polygon id="XMLID_22080_" fill="#B3B3B3" points="2.981,572.763 604.9,222.244 605.532,222.623 3.613,573.117      "/>
				</g>
				<g id="XMLID_22077_">
					<polygon id="XMLID_22078_" fill="#717171" points="6.494,574.279 608.412,223.76 608.412,224.265 6.494,574.784      "/>
				</g>
				<g id="XMLID_22075_">
					<polygon id="XMLID_22076_" fill="#717171" points="7.883,576.629 609.802,226.109 609.802,226.589 7.883,577.108      "/>
				</g>
				<g id="XMLID_22073_">
					<polygon id="XMLID_22074_" fill="#A9A8A8" points="7.125,575.593 609.044,225.099 609.802,226.109 7.883,576.629      "/>
				</g>
				<g id="XMLID_22071_">
					<polygon id="XMLID_22072_" fill="#B3B3B3" points="6.494,574.784 608.412,224.265 609.044,224.644 7.125,575.163      "/>
				</g>
				<g id="XMLID_22069_">
					<polygon id="XMLID_22070_" fill="#717171" points="7.125,575.163 609.044,224.644 609.044,225.099 7.125,575.593      "/>
				</g>
				<g id="XMLID_22067_">
					<polygon id="XMLID_22068_" fill="#717171" points="7.277,574.127 609.195,223.608 609.195,224.214 7.277,574.733      "/>
				</g>
				<g id="XMLID_22065_">
					<polygon id="XMLID_22066_" fill="#979797" points="7.277,574.127 7.277,574.733 6.494,574.279 6.494,574.784 7.125,575.163        7.125,575.593 7.883,576.629 7.883,577.108 2.224,573.85 2.224,573.369 2.981,573.218 2.981,572.763 3.613,573.117        3.613,572.611 2.855,572.182 2.855,571.575      "/>
				</g>
				<g id="XMLID_22063_">
					<polygon id="XMLID_22064_" fill="#C2C1C1" points="2.855,571.575 604.749,221.056 609.195,223.608 7.277,574.127      "/>
				</g>
			</g>
		</g>
		<polygon id="XMLID_22057_" opacity="0.5" fill="#9FDAE6" enable-background="new    " points="575.212,222.749 575.086,222.673     574.379,222.269 574,222.042 573.469,221.738 572.458,221.157 572.433,221.157 572.433,234.7 572.635,235.054 575.389,236.595     575.439,223.962 575.439,223.962 575.439,222.875   "/>
		<polygon id="XMLID_22056_" opacity="0.5" fill="#FFFFFF" enable-background="new    " points="575.212,222.749 575.439,222.875     575.439,223.962 575.439,223.962 572.433,233.462 572.433,233.462 572.433,231.112 575.086,222.673   "/>
		<polygon id="XMLID_22055_" opacity="0.5" fill="#FFFFFF" enable-background="new    " points="574.379,222.269 572.433,228.434     572.433,227.07 574,222.042   "/>
		<path id="XMLID_22054_" fill="#4E4E4D" d="M572.23,220.425l-0.53,0.303l-0.051,14.023l0.076,0.126    c0.151,0.252,0.228,0.379,0.354,0.632l0.076,0.126l3.941,2.274v-0.581l-3.714-2.147c-0.076-0.126-0.152-0.253-0.228-0.379    l0.051-13.543l0.227-0.126l8.515,4.927l0.506-0.303L572.23,220.425z"/>
		<g id="XMLID_20608_">
			<g id="XMLID_20609_" enable-background="new    ">
				<g id="XMLID_20623_">
					<polygon id="XMLID_20624_" fill="#515151" points="518.97,279.169 518.919,295.188 515.28,297.31 515.331,281.266      "/>
				</g>
				<g id="XMLID_20621_">
					<polygon id="XMLID_20622_" fill="#4D4D4D" points="517.302,280.938 520.94,278.815 520.081,279.674 516.443,281.796      "/>
				</g>
				<g id="XMLID_20619_">
					<polygon id="XMLID_20620_" fill="#8C8C8C" points="521.319,278.006 517.681,280.129 517.504,280.028 517.681,279.927        517.832,279.826 521.143,277.905      "/>
				</g>
				<g id="XMLID_20617_">
					<polygon id="XMLID_20618_" fill="#515151" points="518.591,280.659 522.254,278.537 522.229,279.573 518.591,281.695      "/>
				</g>
				<g id="XMLID_20614_">
					<polygon id="XMLID_20616_" fill="#686969" points="513.537,282.327 515.331,281.266 515.28,297.31 513.486,296.274      "/>
					<polygon id="XMLID_20615_" fill="#686969" points="518.591,280.28 518.591,280.659 518.591,281.695 517.302,280.938        516.443,281.796 515.433,281.215 517.504,280.028 517.681,280.129 517.681,279.927 517.681,279.75 517.832,279.826      "/>
				</g>
				<g id="XMLID_20612_">
					<polygon id="XMLID_20613_" fill="#515151" points="518.616,280.28 522.254,278.158 522.254,278.537 518.591,280.659      "/>
				</g>
				<g id="XMLID_20610_">
					<polygon id="XMLID_20611_" fill="#8C8C8C" points="517.681,279.75 521.319,277.627 522.254,278.158 518.616,280.28      "/>
				</g>
			</g>
		</g>
		<g id="XMLID_20591_">
			<g id="XMLID_20592_" enable-background="new    ">
				<g id="XMLID_20606_">
					<polygon id="XMLID_20607_" fill="#515151" points="555.984,257.819 555.935,273.837 552.296,275.935 552.347,259.916      "/>
				</g>
				<g id="XMLID_20604_">
					<polygon id="XMLID_20605_" fill="#4D4D4D" points="554.292,259.562 557.955,257.465 557.097,258.299 553.458,260.421      "/>
				</g>
				<g id="XMLID_20602_">
					<polygon id="XMLID_20603_" fill="#8C8C8C" points="558.334,256.656 554.696,258.753 554.494,258.652 554.696,258.551        554.822,258.476 558.157,256.555      "/>
				</g>
				<g id="XMLID_20600_">
					<polygon id="XMLID_20601_" fill="#515151" points="555.605,259.284 559.244,257.187 559.244,258.198 555.605,260.32      "/>
				</g>
				<g id="XMLID_20597_">
					<polygon id="XMLID_20599_" fill="#686969" points="550.527,260.952 552.347,259.916 552.296,275.935 550.502,274.898      "/>
					<polygon id="XMLID_20598_" fill="#686969" points="555.605,258.931 555.605,259.284 555.605,260.32 554.292,259.562        553.458,260.421 552.447,259.84 554.494,258.652 554.696,258.753 554.696,258.551 554.696,258.4 554.822,258.476      "/>
				</g>
				<g id="XMLID_20595_">
					<polygon id="XMLID_20596_" fill="#515151" points="555.605,258.931 559.244,256.808 559.244,257.187 555.605,259.284      "/>
				</g>
				<g id="XMLID_20593_">
					<polygon id="XMLID_20594_" fill="#8C8C8C" points="554.696,258.4 558.334,256.277 559.244,256.808 555.605,258.931      "/>
				</g>
			</g>
		</g>
		<g id="XMLID_20574_">
			<g id="XMLID_20575_" enable-background="new    ">
				<g id="XMLID_20589_">
					<polygon id="XMLID_20590_" fill="#515151" points="592.975,236.443 592.924,252.462 589.285,254.584 589.336,238.541      "/>
				</g>
				<g id="XMLID_20587_">
					<polygon id="XMLID_20588_" fill="#4D4D4D" points="591.307,238.212 594.945,236.09 594.086,236.949 590.448,239.071      "/>
				</g>
				<g id="XMLID_20585_">
					<polygon id="XMLID_20586_" fill="#8C8C8C" points="595.324,235.281 591.686,237.403 591.509,237.303 591.686,237.176        591.838,237.101 595.173,235.18      "/>
				</g>
				<g id="XMLID_20583_">
					<polygon id="XMLID_20584_" fill="#515151" points="592.621,237.934 596.259,235.812 596.259,236.848 592.621,238.945      "/>
				</g>
				<g id="XMLID_20580_">
					<polygon id="XMLID_20582_" fill="#686969" points="587.542,239.576 589.336,238.541 589.285,254.584 587.492,253.549      "/>
					<polygon id="XMLID_20581_" fill="#686969" points="592.621,237.555 592.621,237.934 592.621,238.945 591.307,238.212        590.448,239.071 589.463,238.49 591.509,237.303 591.686,237.403 591.686,237.176 591.686,237.024 591.838,237.101      "/>
				</g>
				<g id="XMLID_20578_">
					<polygon id="XMLID_20579_" fill="#515151" points="592.621,237.555 596.259,235.433 596.259,235.812 592.621,237.934      "/>
				</g>
				<g id="XMLID_20576_">
					<polygon id="XMLID_20577_" fill="#8C8C8C" points="591.686,237.024 595.324,234.902 596.259,235.433 592.621,237.555      "/>
				</g>
			</g>
		</g>
		<polygon id="XMLID_20428_" opacity="0.2" fill="#9A5A96" enable-background="new    " points="523.771,298.093 520.334,300.089     515.28,297.184 518.818,295.238   "/>
	</g>
	<polygon id="XMLID_20544_" fill="#424242" points="586.481,245.261 587.669,244.579 587.669,243.973 586.077,244.099    575.465,261.104 576.299,262.089 577.057,261.634  "/>
	<g id="XMLID_20443_">
		<g id="XMLID_20444_" enable-background="new    ">
			<g id="XMLID_20542_">
				<path id="XMLID_20543_" fill="#676868" d="M576.299,262.063l-2.502-1.465L576.299,262.063z"/>
			</g>
			<g id="XMLID_20540_">
				<polygon id="XMLID_20541_" fill="#676868" points="577.563,259.891 575.035,258.45 574.682,258.652 577.183,260.118     "/>
			</g>
			<g id="XMLID_20538_">
				<polygon id="XMLID_20539_" fill="#353635" points="577.183,260.118 574.682,258.652 574.631,259.158 577.158,260.598     "/>
			</g>
			<g id="XMLID_20536_">
				<polygon id="XMLID_20537_" fill="#676868" points="578.8,257.743 576.299,256.277 575.945,256.479 578.446,257.945     "/>
			</g>
			<g id="XMLID_20534_">
				<polygon id="XMLID_20535_" fill="#353635" points="578.446,257.945 575.945,256.479 575.895,256.985 578.396,258.45     "/>
			</g>
			<g id="XMLID_20532_">
				<polygon id="XMLID_20533_" fill="#676868" points="580.063,255.57 577.537,254.104 577.183,254.307 579.71,255.772     "/>
			</g>
			<g id="XMLID_20530_">
				<polygon id="XMLID_20531_" fill="#353635" points="579.71,255.772 577.183,254.307 577.158,254.812 579.659,256.277     "/>
			</g>
			<g id="XMLID_20528_">
				<polygon id="XMLID_20529_" fill="#353635" points="580.947,253.599 578.446,252.134 578.396,252.639 580.897,254.104     "/>
			</g>
			<g id="XMLID_20526_">
				<polygon id="XMLID_20527_" fill="#676868" points="581.302,253.397 578.8,251.932 578.446,252.134 580.947,253.599     "/>
			</g>
			<g id="XMLID_20524_">
				<polygon id="XMLID_20525_" fill="#353635" points="582.211,251.426 579.71,249.961 579.659,250.466 582.16,251.932     "/>
			</g>
			<g id="XMLID_20522_">
				<polygon id="XMLID_20523_" fill="#676868" points="582.564,251.224 580.063,249.759 579.71,249.961 582.211,251.426     "/>
			</g>
			<g id="XMLID_20520_">
				<polygon id="XMLID_20521_" fill="#676868" points="577.158,260.598 574.631,259.158 574.201,259.411 576.729,260.851     "/>
			</g>
			<g id="XMLID_20518_">
				<polygon id="XMLID_20519_" fill="#313131" points="576.729,260.851 574.201,259.411 574.201,259.891 576.729,261.331     "/>
			</g>
			<g id="XMLID_20516_">
				<polygon id="XMLID_20517_" fill="#676868" points="583.828,249.051 581.302,247.586 580.947,247.788 583.475,249.253     "/>
			</g>
			<g id="XMLID_20514_">
				<polygon id="XMLID_20515_" fill="#353635" points="583.475,249.253 580.947,247.788 580.897,248.293 583.424,249.759     "/>
			</g>
			<g id="XMLID_20512_">
				<polygon id="XMLID_20513_" fill="#313131" points="576.299,261.583 573.797,260.118 573.797,260.623 576.299,262.063     "/>
			</g>
			<g id="XMLID_20510_">
				<polygon id="XMLID_20511_" fill="#676868" points="576.729,261.331 574.201,259.891 573.797,260.118 576.299,261.583     "/>
			</g>
			<g id="XMLID_20508_">
				<polygon id="XMLID_20509_" fill="#313131" points="577.967,258.678 575.465,257.237 575.465,257.718 577.967,259.158     "/>
			</g>
			<g id="XMLID_20506_">
				<polygon id="XMLID_20507_" fill="#676868" points="578.396,258.45 575.895,256.985 575.465,257.237 577.967,258.678     "/>
			</g>
			<g id="XMLID_20504_">
				<polygon id="XMLID_20505_" fill="#353635" points="584.713,247.081 582.211,245.615 582.16,246.121 584.662,247.586     "/>
			</g>
			<g id="XMLID_20502_">
				<polygon id="XMLID_20503_" fill="#676868" points="585.066,246.878 582.564,245.413 582.211,245.615 584.713,247.081     "/>
			</g>
			<g id="XMLID_20500_">
				<polygon id="XMLID_20501_" fill="#676868" points="577.967,259.158 575.465,257.718 575.035,257.945 577.537,259.411     "/>
			</g>
			<g id="XMLID_20498_">
				<polygon id="XMLID_20499_" fill="#313131" points="577.537,259.411 575.035,257.945 575.035,258.45 577.563,259.891     "/>
			</g>
			<g id="XMLID_20496_">
				<polygon id="XMLID_20497_" fill="#676868" points="579.659,256.277 577.158,254.812 576.729,255.064 579.229,256.505     "/>
			</g>
			<g id="XMLID_20494_">
				<polygon id="XMLID_20495_" fill="#313131" points="579.229,256.505 576.729,255.064 576.729,255.545 579.229,256.985     "/>
			</g>
			<g id="XMLID_20492_">
				<polygon id="XMLID_20493_" fill="#676868" points="579.229,256.985 576.729,255.545 576.299,255.797 578.8,257.237     "/>
			</g>
			<g id="XMLID_20490_">
				<polygon id="XMLID_20491_" fill="#313131" points="578.8,257.237 576.299,255.797 576.299,256.277 578.8,257.743     "/>
			</g>
			<g id="XMLID_20488_">
				<polygon id="XMLID_20489_" fill="#676868" points="580.897,254.104 578.396,252.639 577.967,252.892 580.493,254.332     "/>
			</g>
			<g id="XMLID_20486_">
				<polygon id="XMLID_20487_" fill="#313131" points="580.493,254.332 577.967,252.892 577.967,253.372 580.493,254.812     "/>
			</g>
			<g id="XMLID_20484_">
				<polygon id="XMLID_20485_" fill="#676868" points="580.493,254.812 577.967,253.372 577.537,253.625 580.063,255.064     "/>
			</g>
			<g id="XMLID_20482_">
				<polygon id="XMLID_20483_" fill="#313131" points="580.063,255.064 577.537,253.625 577.537,254.104 580.063,255.57     "/>
			</g>
			<g id="XMLID_20480_">
				<polygon id="XMLID_20481_" fill="#676868" points="582.16,251.932 579.659,250.466 579.229,250.719 581.73,252.159     "/>
			</g>
			<g id="XMLID_20478_">
				<polygon id="XMLID_20479_" fill="#313131" points="581.73,252.159 579.229,250.719 579.229,251.199 581.73,252.639     "/>
			</g>
			<g id="XMLID_20476_">
				<polygon id="XMLID_20477_" fill="#313131" points="581.302,252.892 578.8,251.452 578.8,251.932 581.302,253.397     "/>
			</g>
			<g id="XMLID_20474_">
				<polygon id="XMLID_20475_" fill="#676868" points="581.73,252.639 579.229,251.199 578.8,251.452 581.302,252.892     "/>
			</g>
			<g id="XMLID_20472_">
				<polygon id="XMLID_20473_" fill="#676868" points="583.424,249.759 580.897,248.293 580.468,248.546 582.994,250.011     "/>
			</g>
			<g id="XMLID_20470_">
				<polygon id="XMLID_20471_" fill="#313131" points="582.994,250.011 580.468,248.546 580.493,249.026 582.994,250.466     "/>
			</g>
			<g id="XMLID_20468_">
				<polygon id="XMLID_20469_" fill="#313131" points="582.564,250.719 580.063,249.279 580.063,249.759 582.564,251.224     "/>
			</g>
			<g id="XMLID_20466_">
				<polygon id="XMLID_20467_" fill="#676868" points="582.994,250.466 580.493,249.026 580.063,249.279 582.564,250.719     "/>
			</g>
			<g id="XMLID_20464_">
				<polygon id="XMLID_20465_" fill="#676868" points="584.662,247.586 582.16,246.121 581.73,246.373 584.232,247.838     "/>
			</g>
			<g id="XMLID_20462_">
				<polygon id="XMLID_20463_" fill="#313131" points="584.232,247.838 581.73,246.373 581.73,246.853 584.232,248.318     "/>
			</g>
			<g id="XMLID_20460_">
				<polygon id="XMLID_20461_" fill="#676868" points="587.896,243.847 585.395,242.381 583.424,243.467 585.925,244.933     "/>
			</g>
			<g id="XMLID_20458_">
				<polygon id="XMLID_20459_" fill="#313131" points="585.925,244.933 583.424,243.467 583.424,243.947 585.925,245.413     "/>
			</g>
			<g id="XMLID_20456_">
				<polygon id="XMLID_20457_" fill="#676868" points="584.232,248.318 581.73,246.853 581.302,247.106 583.828,248.546     "/>
			</g>
			<g id="XMLID_20454_">
				<polygon id="XMLID_20455_" fill="#313131" points="583.828,248.546 581.302,247.106 581.302,247.586 583.828,249.051     "/>
			</g>
			<g id="XMLID_20452_">
				<polygon id="XMLID_20453_" fill="#313131" points="585.496,245.666 582.994,244.2 582.994,244.68 585.496,246.146     "/>
			</g>
			<g id="XMLID_20450_">
				<polygon id="XMLID_20451_" fill="#676868" points="585.925,245.413 583.424,243.947 582.994,244.2 585.496,245.666     "/>
			</g>
			<g id="XMLID_20448_">
				<polygon id="XMLID_20449_" fill="#676868" points="585.496,246.146 582.994,244.68 582.564,244.933 585.066,246.373     "/>
			</g>
			<polygon id="XMLID_20447_" fill="#464646" points="585.976,244.958 587.896,243.847 585.925,244.933 585.925,245.413      585.496,245.666 585.496,246.146 585.066,246.373 585.066,246.878 584.713,247.081 584.662,247.586 584.232,247.838      584.232,248.318 583.828,248.546 583.828,249.051 583.475,249.253 583.424,249.759 582.994,250.011 582.994,250.466      582.564,250.719 582.564,251.224 582.211,251.426 582.16,251.932 581.73,252.159 581.73,252.639 581.302,252.892      581.302,253.397 580.947,253.599 580.897,254.104 580.493,254.332 580.493,254.812 580.063,255.064 580.063,255.57      579.71,255.772 579.659,256.277 579.229,256.505 579.229,256.985 578.8,257.237 578.8,257.743 578.446,257.945 578.396,258.45      577.967,258.678 577.967,259.158 577.537,259.411 577.563,259.891 577.183,260.118 577.158,260.598 576.729,260.851      576.729,261.331 576.299,261.583 576.299,262.063 576.299,262.089 576.35,262.089 576.35,261.608 576.779,261.356      576.779,260.876 577.183,260.623 577.183,260.168 577.587,259.916 577.587,259.436 578.017,259.183 578.017,258.703      578.446,258.476 578.446,257.996 578.851,257.768 578.851,257.263 579.28,257.01 579.28,256.53 579.71,256.303 579.71,255.823      580.114,255.595 580.114,255.09 580.519,254.837 580.519,254.357 580.947,254.13 580.947,253.65 581.352,253.422      581.352,252.917 581.781,252.665 581.781,252.209 582.211,251.957 582.211,251.477 582.615,251.25 582.615,250.744      583.045,250.517 583.045,250.037 583.475,249.784 583.475,249.304 583.854,249.077 583.854,248.571 584.283,248.344      584.283,247.864 584.713,247.611 584.713,247.131 585.117,246.904 585.117,246.398 585.546,246.171 585.546,245.691      585.976,245.438    "/>
			<g id="XMLID_20445_">
				<polygon id="XMLID_20446_" fill="#313131" points="585.066,246.373 582.564,244.933 582.564,245.413 585.066,246.878     "/>
			</g>
		</g>
	</g>
	<g id="XMLID_20439_">
		<path id="XMLID_20440_" fill="#4E4E4D" d="M587.618,243.695l-1.845-1.061v-8.136l1.845,1.061V243.695z M585.85,242.608l1.692,0.96    v-7.959l-1.692-0.985V242.608z"/>
	</g>
	<g id="XMLID_20434_">
		<g id="XMLID_20437_">
			<path id="XMLID_20438_" fill="#939393" d="M576.122,262.165c-0.051,0-0.076-0.025-0.076-0.076v-4.194c0-0.025,0-0.025,0-0.025     l9.804-17.307c0.025-0.025,0.051-0.051,0.075-0.025c0.025,0,0.051,0.025,0.051,0.076v4.194c0,0.05-0.025,0.076-0.075,0.076     c-0.051,0-0.076-0.025-0.076-0.076v-3.917l-9.652,17.03v4.169C576.197,262.139,576.147,262.165,576.122,262.165z"/>
		</g>
		<g id="XMLID_20435_">
			<path id="XMLID_20436_" fill="#939393" d="M585.925,240.663c-0.024,0-0.05-0.025-0.075-0.025c-0.025-0.025,0-0.076,0.025-0.101     l1.895-1.112c0.025-0.025,0.076,0,0.102,0.025c0.024,0.025,0,0.076-0.025,0.101l-1.896,1.112H585.925z"/>
		</g>
	</g>
	<g id="XMLID_20429_">
		<g id="XMLID_20432_">
			<path id="XMLID_20433_" fill="#939393" d="M573.848,260.876c-0.051,0-0.075-0.025-0.075-0.076v-4.194c0-0.025,0-0.025,0-0.025     l9.803-17.307c0.025-0.025,0.051-0.051,0.076-0.025s0.051,0.025,0.051,0.076v4.194c0,0.05-0.025,0.076-0.076,0.076     s-0.076-0.025-0.076-0.076v-3.917l-9.651,17.03v4.169C573.924,260.825,573.898,260.876,573.848,260.876z"/>
		</g>
		<g id="XMLID_20430_">
			<path id="XMLID_20431_" fill="#939393" d="M583.651,239.375c-0.025,0-0.051-0.025-0.076-0.025c-0.025-0.025,0-0.076,0.025-0.101     l1.896-1.112c0.025-0.025,0.075,0,0.101,0.025c0.025,0.025,0,0.076-0.025,0.101l-1.895,1.112     C583.677,239.375,583.677,239.375,583.651,239.375z"/>
		</g>
	</g>
	<polygon id="XMLID_20427_" opacity="0.2" fill="#9A5A96" enable-background="new    " points="560.709,276.642 557.248,278.638    552.347,275.808 555.884,273.863  "/>
	<polygon id="XMLID_20426_" opacity="0.2" fill="#9A5A96" enable-background="new    " points="597.599,255.216 594.162,257.212    589.336,254.433 592.873,252.487  "/>
</g>
</svg>