<svg xmlns="http://www.w3.org/2000/svg" xmlns:xlink="http://www.w3.org/1999/xlink" viewBox="0 0 589 491.55"><defs><style>.cls-1{isolation:isolate;}.cls-2{fill:#fff;}.cls-3{fill:url(#linear-gradient);}.cls-4{fill:#95c38b;}.cls-5{fill:#238782;}.cls-6{fill:#1b948b;}.cls-7{fill:#00bcc5;}.cls-8{fill:#00afb6;}.cls-9{fill:#008e95;}.cls-10,.cls-12,.cls-13{mix-blend-mode:multiply;}.cls-10{opacity:0.15;}.cls-11{fill:#19746b;}.cls-12{opacity:0.05;}.cls-13{opacity:0.3;}.cls-14{fill:none;}.cls-15{fill:#7bff7b;}.cls-16{fill:#54e249;}.cls-17{fill:url(#linear-gradient-2);}.cls-18{fill:url(#linear-gradient-3);}.cls-19{fill:url(#linear-gradient-4);}</style><linearGradient id="linear-gradient" x1="-9320.57" y1="429.93" x2="-9142.44" y2="429.93" gradientTransform="matrix(-1, 0, 0, 1, -9142.44, 0)" gradientUnits="userSpaceOnUse"><stop offset="0" stop-color="#d1eeff"/><stop offset="1" stop-color="#e3e3e3"/></linearGradient><linearGradient id="linear-gradient-2" x1="-9731.44" y1="294.2" x2="-9507.21" y2="294.2" xlink:href="#linear-gradient"/><linearGradient id="linear-gradient-3" x1="-9350.04" y1="207.72" x2="-9208.31" y2="207.72" xlink:href="#linear-gradient"/><linearGradient id="linear-gradient-4" x1="-9595.31" y1="449.2" x2="-9504.08" y2="449.2" xlink:href="#linear-gradient"/></defs><g class="cls-1"><g id="Layer_1" data-name="Layer 1"><path class="cls-2" d="M25.76,413.3a25.84,25.84,0,0,1,8,1.27,22.32,22.32,0,0,1,32.77-27.9,32.15,32.15,0,0,1,61.4,5.71,37.36,37.36,0,1,1,12.84,72.44h-115a25.76,25.76,0,1,1,0-51.52Z"/><path class="cls-3" d="M126.88,450.92A37.35,37.35,0,0,0,159.31,395a37.35,37.35,0,0,1-18.53,69.78h-115A25.77,25.77,0,0,1,2,449a25.85,25.85,0,0,0,9.89,2Z"/><path class="cls-4" d="M270.65,0c-54.9,73.38,0,99.08,0,99.08S325.54,73.38,270.65,0Z"/><path class="cls-5" d="M287.08,65.32c-1.49,1.7-2.95,3.43-4.43,5.14s-2.92,3.45-4.36,5.19-3,3.37-4.28,5.25c-.63.93-1.26,1.87-1.83,2.85-.25.41-.49.83-.72,1.25.06-1.9.11-3.81.14-5.71.1-4.5,0-9-.08-13.49.5-.42,1-.85,1.42-1.3.69-.68,1.36-1.39,2-2.12a50.63,50.63,0,0,0,3.37-4.69c1.11-1.58,2.21-3.16,3.29-4.76s2.17-3.19,3.22-4.81l-.15-.12c-1.3,1.44-2.55,2.9-3.83,4.35s-2.51,2.93-3.75,4.4a49,49,0,0,0-3.67,4.47c-.55.79-1.06,1.61-1.54,2.46-.13.22-.25.45-.37.68,0-1.62-.07-3.24-.09-4.87l-.29-19.79-.38-19.79h-.19l-.38,19.79L270,50.39l-.28-.55a23.82,23.82,0,0,0-1.23-2.06A15.51,15.51,0,0,0,267,45.9c-.53-.59-1.08-1.17-1.59-1.77-1-1.21-2.08-2.41-3.13-3.6s-2.12-2.38-3.21-3.54l-.15.12c.85,1.35,1.73,2.67,2.6,4s1.77,2.65,2.67,4c.45.66.88,1.33,1.31,2A16.81,16.81,0,0,0,267,49a22.59,22.59,0,0,0,1.68,1.71A14.42,14.42,0,0,0,270,51.79l-.11,7.7c-.07,5.59-.26,11.18-.23,16.76-.17-.31-.35-.62-.53-.93-.58-1-1.21-1.92-1.84-2.85C266,70.59,264.44,69,263,67.22s-2.89-3.47-4.36-5.19-2.93-3.44-4.43-5.14l-.15.12c1.25,1.88,2.55,3.73,3.82,5.6s2.59,3.71,3.9,5.54,2.49,3.78,4,5.49c.74.85,1.49,1.7,2.29,2.51.52.53,1.05,1,1.61,1.55l0,1.59c.06,3.3.14,6.6.28,9.89s.32,6.6.58,9.9h.19q.39-5,.58-9.9c0-1,.07-1.9.1-2.86.64-.56,1.24-1.15,1.82-1.74.8-.81,1.55-1.66,2.29-2.51,1.49-1.71,2.67-3.65,4-5.49s2.61-3.68,3.9-5.54,2.57-3.72,3.82-5.6Z"/><path class="cls-4" d="M348.72,92.28c-90.7,13.07-70.06,70.06-70.06,70.06S335.65,183,348.72,92.28Z"/><path class="cls-5" d="M314.15,150.09c-2.26.14-4.51.33-6.76.5s-4.5.37-6.75.59-4.52.25-6.74.68c-1.11.21-2.22.44-3.32.72-.46.12-.93.24-1.39.38q2.08-2,4.14-3.94c3.25-3.11,6.37-6.35,9.48-9.6.65.06,1.29.08,1.92.09,1,0,1.94,0,2.91-.09a50.53,50.53,0,0,0,5.7-.94q2.85-.49,5.69-1c1.89-.38,3.79-.73,5.68-1.13l0-.19c-1.93.1-3.86.25-5.78.37s-3.85.29-5.77.46a50.18,50.18,0,0,0-5.75.56c-.95.18-1.89.4-2.83.65l-.75.22q1.68-1.75,3.38-3.5l13.8-14.2,13.72-14.27-.14-.13L320.31,120l-7.67,7.45c.06-.19.13-.39.19-.59a23.89,23.89,0,0,0,.59-2.32,17.09,17.09,0,0,0,.29-2.36c0-.8.07-1.59.13-2.39.13-1.58.24-3.16.33-4.75s.18-3.18.24-4.77l-.19,0c-.36,1.56-.66,3.12-1,4.67s-.61,3.12-.9,4.69c-.14.78-.32,1.56-.49,2.33a15.72,15.72,0,0,0-.31,2.36,21.33,21.33,0,0,0,0,2.4,14.61,14.61,0,0,0,.15,1.73l-5.53,5.37c-4,3.9-8.08,7.72-12,11.69.1-.34.19-.69.28-1,.28-1.1.5-2.21.71-3.32a66,66,0,0,0,.69-6.74q.32-3.37.59-6.75c.16-2.26.36-4.51.5-6.76l-.19,0c-.45,2.22-.84,4.44-1.26,6.66s-.79,4.45-1.16,6.68-.91,4.43-1.07,6.69c-.08,1.13-.14,2.26-.15,3.39,0,.75,0,1.5,0,2.25-.37.38-.74.75-1.1,1.13-2.29,2.38-4.57,4.77-6.8,7.2s-4.44,4.89-6.59,7.41l.14.14q3.76-3.22,7.4-6.59c.71-.65,1.4-1.31,2.1-2,.84.06,1.69.07,2.52.06,1.14,0,2.27-.08,3.4-.16,2.25-.15,4.46-.69,6.69-1.06s4.45-.76,6.67-1.16,4.45-.82,6.67-1.26Z"/><path class="cls-4" d="M192.45,92.28c90.71,13.07,70.06,70.06,70.06,70.06S205.52,183,192.45,92.28Z"/><path class="cls-5" d="M227,150.09c2.26.14,4.51.33,6.76.5s4.51.37,6.75.59,4.52.25,6.74.68c1.11.21,2.22.44,3.32.72.47.12.93.24,1.39.38q-2.08-2-4.14-3.94c-3.25-3.11-6.37-6.35-9.48-9.6-.65.06-1.29.08-1.92.09-1,0-1.94,0-2.9-.09a50.33,50.33,0,0,1-5.71-.94c-1.9-.33-3.79-.67-5.69-1s-3.79-.73-5.68-1.13l0-.19c1.93.1,3.85.25,5.77.37s3.85.29,5.77.46a50.18,50.18,0,0,1,5.75.56c.95.18,1.89.4,2.83.65l.75.22q-1.68-1.75-3.38-3.5l-13.79-14.2-13.73-14.27.14-.13L220.86,120l7.67,7.45c-.06-.19-.13-.39-.19-.59a23.89,23.89,0,0,1-.59-2.32,17.09,17.09,0,0,1-.29-2.36c0-.8-.07-1.59-.13-2.39-.13-1.58-.24-3.16-.33-4.75s-.18-3.18-.24-4.77l.19,0c.36,1.56.67,3.12,1,4.67s.62,3.12.9,4.69c.14.78.32,1.56.49,2.33a17.15,17.15,0,0,1,.32,2.36,24,24,0,0,1,0,2.4,14.61,14.61,0,0,1-.15,1.73l5.53,5.37c4,3.9,8.08,7.72,12,11.69-.09-.34-.19-.69-.27-1-.29-1.1-.51-2.21-.72-3.32-.43-2.22-.48-4.49-.69-6.74s-.41-4.5-.59-6.75-.35-4.51-.5-6.76l.19,0c.45,2.22.84,4.44,1.26,6.66s.79,4.45,1.16,6.68.91,4.43,1.07,6.69c.08,1.13.15,2.26.15,3.39,0,.75,0,1.5,0,2.25.37.38.74.75,1.1,1.13,2.29,2.38,4.57,4.77,6.8,7.2s4.44,4.89,6.59,7.41l-.14.14q-3.76-3.22-7.4-6.59c-.71-.65-1.4-1.31-2.1-2-.84.06-1.68.07-2.52.06-1.14,0-2.27-.08-3.4-.16-2.25-.15-4.46-.69-6.68-1.06s-4.46-.76-6.68-1.16-4.45-.82-6.67-1.26Z"/><polygon class="cls-6" points="272.02 163.97 271.5 135.13 271.23 120.71 270.92 106.29 270.37 106.29 270.06 120.71 269.8 135.13 269.27 163.97 268.44 189.32 272.85 189.32 272.02 163.97"/><circle class="cls-7" cx="270.59" cy="338.66" r="152.9" transform="translate(-160.21 290.52) rotate(-45)"/><path class="cls-8" d="M387,366.27c-7.46-.74-15.14-1.16-22.3,1.06-3.92,1.22-8.13,4.06-8,8.17.07,2.38,1.63,4.51,1.78,6.89.23,3.51-2.76,6.56-6.09,7.69s-6.95.83-10.47.7a99.22,99.22,0,0,0-35.4,5.15c-4.78,1.62-10.24,4.72-10.23,9.77a8.5,8.5,0,0,0,4.35,6.88,19.59,19.59,0,0,0,8.1,2.32c2.9.31,5.87.43,8.57,1.52s5.11,3.48,5.25,6.39c.2,4.05-4,7-8,7.69s-8.12-.17-12.13.44-8.26,3.45-8.22,7.51c0,4.61,5.42,7.29,10,7.54,6.67.38,13.19-1.95,19.84-2.61s14.39,1,17.67,6.81c1.47,2.61,2.16,6.11,4.93,7.24,3.23,1.32,6.45-1.57,9.54-3.18,4.82-2.52,10.38-1.93,15.91-1.26a152.62,152.62,0,0,0,49.53-90.5,30.4,30.4,0,0,1-12.22,4.45C402,368,394.45,367,387,366.27Z"/><path class="cls-8" d="M251.16,480.9c-2.81-5-11.63-4.37-13.46-9.77-1.37-4,2.43-7.88,6-10.25s7.73-5.33,7.54-9.6c-.2-4.54-5.4-7.16-9.93-7.51-5.47-.42-10.89,1-16.25,2.18s-11,2.11-16.28.73-10.23-5.65-10.7-11.11c-.33-3.91,1.59-7.71,1.5-11.63-.16-6.33-5.63-11.48-11.64-13.48s-12.5-1.56-18.82-1.38-13,0-18.5-3.08-9.53-9.83-7.41-15.79c1.16-3.25,3.83-5.68,5.84-8.48s3.35-6.7,1.53-9.63c-2.65-4.29-10.32-3.89-11.87-8.69-.78-2.41.54-5.05,2.36-6.83,3.3-3.23,8.32-5,9-10.11.44-3.17-.75-5.2-3.69-6.26-3.19-1.15-7-.73-10.37-1.19-.79-.1-1.56-.23-2.34-.36h-16a152.91,152.91,0,0,0,131.7,151.43C251.61,487.28,252.84,483.87,251.16,480.9Z"/><path class="cls-8" d="M293.91,267.07a24,24,0,0,0-7.43,6.73,11.59,11.59,0,0,0-1.77,9.61c1.27,4.12,5.48,7.7,4.33,11.86-.84,3-4.11,4.53-7,5.66l-18.72,7.29A29.79,29.79,0,0,0,255,312.5c-2.42,2-4.23,4.95-4,8.07.31,4.83,5.27,8.19,10.06,8.86s9.64-.54,14.47-.8a15.25,15.25,0,0,1,8.42,1.51c2.51,1.43,4.36,4.34,3.8,7.18s-3,4.61-5,6.6-3.7,5-2.34,7.47c1.51,2.75,5.49,2.56,8.53,1.79,8.41-2.11,17.3-5.73,25.41-2.69,6.06,2.28,10.26,7.84,15.89,11,6.58,3.75,14.72,4,22.08,2.19s14.14-5.39,20.79-9c5.18-2.81,10.51-5.81,14-10.57s4.51-11.84.81-16.43c-3.15-3.91-8.57-4.92-13.25-6.75s-9.52-6-8.45-10.95c.88-4,5.18-6.11,8.71-8.23a19,19,0,0,0,7.21-6.86c1.6-3,1.87-6.79,0-9.58-2.41-3.59-7.28-4.37-11.59-4.68s-9.13-.69-12-3.92c-2.06-2.33-2.8-5.46-5-7.69-2.08-2.07-5-3.42-7.58-4.82a38.79,38.79,0,0,0-12.28-4.16C319.93,257.6,305.8,259.54,293.91,267.07Z"/><path class="cls-9" d="M352.93,392c.21.27-.08-.11-.14-.17a1.77,1.77,0,0,0-.91-.49h-.07a.73.73,0,0,0-.33-.23,5.16,5.16,0,0,1-.71-.43,4.53,4.53,0,0,1-.61-.34,1.16,1.16,0,0,0-1.81.23,2.22,2.22,0,0,0,.72,2.86,5.09,5.09,0,0,0,1.26.67,1.67,1.67,0,0,1,.7.44,1.36,1.36,0,0,0,2.12-.28,1.84,1.84,0,0,0,.05-1.88C353.12,392.24,353,392.12,352.93,392Z"/><path class="cls-9" d="M360.07,395.76a1.24,1.24,0,0,0-1.9-.53.89.89,0,0,0-.19.07,1.35,1.35,0,0,0-.29,2.1,2,2,0,0,0,.49.76,2.19,2.19,0,0,0,2.76.19,1.41,1.41,0,0,0,.29-2.21A1.29,1.29,0,0,0,360.07,395.76Z"/><path class="cls-9" d="M365.39,403.57a1.72,1.72,0,0,1-.42-.83.78.78,0,0,0-1.53.21,4.57,4.57,0,0,0,.05,1,3.1,3.1,0,0,0,.08.42c0,.07.08.45.09.2a1.14,1.14,0,1,0,1.73-1Z"/><path class="cls-9" d="M339.14,386.86a.78.78,0,0,0-.57.57.86.86,0,0,0,.6,1,1,1,0,0,0,1.08-.33.9.9,0,0,0,0-1.14A.82.82,0,0,0,339.14,386.86Z"/><path class="cls-9" d="M311,269.83a17.16,17.16,0,0,1,2.54.62l.85.46a2.58,2.58,0,0,1,1,1.86c.16,1.37-.12,2.52,1.11,3.47,1.61,1.23,5.25,1.05,5.65-1.35a3.28,3.28,0,0,0-.46-2.25.74.74,0,0,0,.07-.43c-.37-3.21-3.84-3.35-5.9-5.16a5,5,0,0,1-1.43-2.43,4,4,0,0,0-.75-1.55,5.72,5.72,0,0,0-3.77-1.35c-2.1-.07-5.74,1.1-6,3.61C303.6,268.27,308.93,269.38,311,269.83Z"/><path class="cls-9" d="M299.18,261.35a1.67,1.67,0,0,0,1-.39,1.47,1.47,0,0,0,.63.05,1.35,1.35,0,0,0,1-.68,1.46,1.46,0,0,0,0-1.42,2.3,2.3,0,0,0-2-1.29,2,2,0,0,0-1.91,1.51,2.14,2.14,0,0,0,0,1.15A1.5,1.5,0,0,0,299.18,261.35Z"/><path class="cls-9" d="M300.72,252.7a1,1,0,0,0,.37-.08l.17,0a1.16,1.16,0,0,0,1.1-1.46,1.61,1.61,0,0,0-1.6-1.24,1,1,0,0,0-1,1c0,.27,0,.55,0,.82A.94.94,0,0,0,300.72,252.7Z"/><path class="cls-9" d="M304,277.19a1.89,1.89,0,0,0,.65-.61,1,1,0,0,0-.26-1.27,1,1,0,0,0-1.3.07,1.47,1.47,0,0,0-.36.53,1,1,0,0,0,.15,1.13A.94.94,0,0,0,304,277.19Z"/><path class="cls-9" d="M311.09,280a1.08,1.08,0,0,0,0-2.16A1.08,1.08,0,0,0,311.09,280Z"/><path class="cls-9" d="M303.25,332.88a1.2,1.2,0,0,0,0,2.4A1.2,1.2,0,0,0,303.25,332.88Z"/><path class="cls-9" d="M301.75,340.13a1,1,0,0,0,.3-.73,1,1,0,0,0-1.31-1l-.27.05a1,1,0,0,0,0,1.9l.27,0A1.05,1.05,0,0,0,301.75,340.13Z"/><path class="cls-9" d="M301.57,344.47a.81.81,0,0,0,0,1.62A.81.81,0,0,0,301.57,344.47Z"/><path class="cls-9" d="M422.92,325.49a152.1,152.1,0,0,0-32.9-82.3l-7.94-2.57a15.23,15.23,0,0,0-5.57-1,24.49,24.49,0,0,0-8.16-3.69c-3-.76-5.69-.75-8.1-3-2.06-1.9-3.9-3.62-6.53-4.7a28.78,28.78,0,0,0-7.49-1.76c-2.64-.32-5.67-.91-8.21.13a19,19,0,0,0-3.11,2,11.56,11.56,0,0,1-3.61,1.25A6.9,6.9,0,0,0,327,233.6c-.79,1.63-1.19,3.4-1.86,5.07-1.15,2.84-3.19,3.67-6.08,4.2-5,.91-9.51,3-12,7.73-.8,1.53-2.16,4.35-.73,5.89a2.88,2.88,0,0,0,2.55.69c1.8-.15,3.54-.48,5.36-.5.77,0,1.54,0,2.31.07,1.41.1,1.19.53,1.69,1.61a4.18,4.18,0,0,0,1.83,1.91c1.66.92,4.73.58,5.67,2.4.6,1.14.47,2.32,1.44,3.32a6.25,6.25,0,0,0,3.07,1.63,18.86,18.86,0,0,0,4.25.23,8.06,8.06,0,0,1,2.54.27c1.19.4,2.8,1.93,1.77,3.36a6.33,6.33,0,0,0-1.48,1l-.11.1a27.71,27.71,0,0,0-6.45,3.58,65.44,65.44,0,0,0-6.35,4.61c-2.27,1.92-4.06,4.26-6.19,6.32a11.28,11.28,0,0,1-7.54,3.23c-2.68.18-5.36-.07-8,.37-4.16.69-8.15,3.3-8,7.93a5.89,5.89,0,0,0,1.78,4.23,5.23,5.23,0,0,0,2.26,1.15c.32.09,1.29.12,1.52.37.67.71-.31,2.53-.55,3.27l-1.5,4.72a25.69,25.69,0,0,0-1.44,4.8c-.18,1.82,1.09,2.76,2.72,3.13,1.35.3,2.44.06,3,1.57.37,1,.38,1.8,1.2,2.57a5.27,5.27,0,0,0,4.17,1.08c-.45,1.64-.49,3.4.59,4.56a6.18,6.18,0,0,0,.51,2.28c.83,2,2.95,3.92,2,5.88-.53,1.15-1.88,1.61-3,2.18s-2.28,1.74-1.86,2.94c.58,1.67,3.24,1.24,4.48,2.51s.31,3.5-.86,4.89-2.64,3-2.2,4.77c.37,1.53,2.09,2.38,3.66,2.47a47,47,0,0,0,4.72-.41,10,10,0,0,1,9.95,10.14c-.1,1.71-.5,3.79.87,4.82a3.32,3.32,0,0,0,3.54-.18,20.92,20.92,0,0,1,3.2-1.93,4.48,4.48,0,0,1,5.15,6.86l1.16.83a2.33,2.33,0,0,0,.52,2.3,8.53,8.53,0,0,0,2.27,1.35c1.19.74,1.42,1.75,1.89,3a6.34,6.34,0,0,0,3.85,3.74c2.47,1.14,4.93,2.36,7.44,3.4a8.44,8.44,0,0,0,5.52.65l6.39,2.69c1.45.61,3.52,1,4.27-.36l.86,1.88,9.83.21c2.72.06,5.62.07,7.93-1.37s3.54-4.93,1.73-7c-.65-.72-1.6-1.19-2.05-2.05-.72-1.42.24-3.08,1.17-4.37.15-.22.3-.43.46-.64a5.4,5.4,0,0,0,3.79-.94.71.71,0,0,0,1,.47,2.42,2.42,0,0,0,1.25-1.55,3.78,3.78,0,0,0,3.28-.94,3.39,3.39,0,0,0,1.07-2.8c-.11-1.31-.85-1.79.26-2.75a4.17,4.17,0,0,0,1.48-2.14,8.68,8.68,0,0,1,.23-1.61,4.12,4.12,0,0,1,.83-1c1.22-1,2.46-1.67,3.25-3.12a1.52,1.52,0,0,0-.16-1.71,1.83,1.83,0,0,0,.2-2.38c-.81-1.23-2.36-1.09-3.47-.4a1.61,1.61,0,0,0-.52.52,5,5,0,0,1-4-2.31c-1.52-2.8,1-6,3.16-8.33a12.83,12.83,0,0,0,3.4-5.45,5.61,5.61,0,0,0-.9-4.67,7.76,7.76,0,0,0,2.93-6.25,6.2,6.2,0,0,0-.35-1.7c-.17-.5-.84-1.32-.82-1.84a2.59,2.59,0,0,1,.54-1.27l7.18.07a8.64,8.64,0,0,0,3.95-.59,3,3,0,0,0,1.75-3.28A4.94,4.94,0,0,0,422.92,325.49Z"/><path class="cls-8" d="M130.13,347.06c4.21-4.23,8-9.79,13.86-10.76,3.22-.53,6.51.47,9.76.2s6.84-2.75,6.33-6c-.36-2.23-2.49-3.67-3.73-5.56-2.75-4.18-.62-10.15,3.3-13.26s9.06-4.1,14-5l34.82-6.27c4.38-.79,8.9-1.63,12.59-4.13s6.34-7.1,5.14-11.39-5.5-6.84-7-10.93c-1.73-4.66.78-10,4.64-13.16s8.82-4.48,13.62-5.77l40-10.76c4.11-1.11,8.33-2.27,11.67-4.89s5.61-7.1,4.36-11.16c-1.64-5.31-7.91-7.3-13.18-9.06s-11.28-5.52-10.68-11c.53-4.92,6.18-7.93,7.16-12.78.76-3.74-1.46-7.12-4.55-9.61h-1.57a152.89,152.89,0,0,0-152.9,152.9q0,6.79.58,13.44C122.27,352.66,127,350.18,130.13,347.06Z"/><path class="cls-9" d="M296.13,394.52c-1.32-.42-2.87-1.43-2.51-2.76-1.29.93-3.12.08-4.25-1s-2.06-2.57-3.56-3.08-2.11.08-3.26,1a1.53,1.53,0,0,1-2.05-1.17,3.36,3.36,0,0,1,.78-2.56,12.48,12.48,0,0,0,1.55-2.27c1-2.43-1.13-5.39-3.75-5.73l-.18-1.62a5.49,5.49,0,0,1-5.16-.82,23.63,23.63,0,0,1-1.75-1.72,21,21,0,0,0-3.66-2.65L264.9,368a50.47,50.47,0,0,0-9.31-4.9c.49.83-.66,1.78-1.61,1.65a22.25,22.25,0,0,1-2.66-1.05c-1.44-.39-2.91.26-4.25,1a2.4,2.4,0,0,0-.7-.86,3.25,3.25,0,0,0-3.38-.08c-2.2,1.14-2.7,3-2.28,4.5-1.1.71-2.4,1.47-3.13,1.32s-1.64-1.81-2.56-2.15a4.39,4.39,0,0,0-3.6.18l-8-1.38c-1-1.33-.59-3.24.06-4.78s1.51-3.15,1.2-4.8-1.76-2.89-3.12-4l-4,.41c0-.63,0-1.27-.05-1.9a1.17,1.17,0,0,1-1.62-.54,3.38,3.38,0,0,1-.19-1.92c.16-1.66.33-3.32.49-5a4.56,4.56,0,0,0-.21-2.44,1.58,1.58,0,0,0-2-.84c0-.46-.06-.92-.1-1.39a3,3,0,0,0-3.44.48,8.68,8.68,0,0,0-2,3.09c-.6,1.25-1.19,2.5-1.78,3.75l-3.87-.13a2.2,2.2,0,0,0-2.06-2.89c-2.1-1.79-2.46-3.34-4.25-5.44a7,7,0,0,1-1.89-3.4c-.25-1.75.73-3.4,1.68-4.89s2-3,3.6-3.67c1.83-.72,3.88-.08,5.84,0s4.4-.76,4.59-2.72c.24,1.45,2.36,1.61,3.63.88s2.32-2,3.78-2.19a4.28,4.28,0,0,1,3.42,1.42c.91.9,1.59,2,2.44,3a10.29,10.29,0,0,0,1,1,.69.69,0,0,0,.1.35c.77,1.16.37,2.59.73,3.88a3.14,3.14,0,0,0,2.23,2.29,2.48,2.48,0,0,0,2.66-1,4.6,4.6,0,0,0,.35-1.71,15.12,15.12,0,0,0,1.64-1.56l4-1.74c1.13-2.41,3-3.94,4.19-6.35.34-.74.69-1.48,1-2.23l.86-1.83c.6-1.27,1.2-2.54,1.79-3.82,1.07-2.27,2.14-4.56,3-6.92a9.61,9.61,0,0,0,3.6-5.72c.44-2.38-.29-4.78.07-7.15.38-2.53,2-4.64,1.88-7.29-.1-2.46-1.48-4.46-1.93-6.82s.53-5-.24-7.55a5.49,5.49,0,0,0-4.68-4c-1.31-.19-1.9-.14-2.4-1.37a24.23,24.23,0,0,1-.73-2.69,7,7,0,0,0-2.84-4.44,6.89,6.89,0,0,0-3.81-.78c-1,0-3.14.47-3.39-.85a1.89,1.89,0,0,0-3.42-.45c-1.88,3.76-6.34,2.55-8.94.34a1.89,1.89,0,0,0-3.18,1.31c-.18,1.69-.35,3.85-1.76,5s-2.65.12-3.42-1.15c-1.51-2.46-1.86-5.49-3-8.11s-3.38-3.56-6.17-3.74a17.36,17.36,0,0,1-9.54-3.17,1.59,1.59,0,0,0-2.33.95c.11-.57-1-1.82-1.37-2.28a4.28,4.28,0,0,0-2-1.41,5.1,5.1,0,0,0-5,1.88c-1.4,1.58-1.67,4-3.27,5.39s-3.86,1.42-5.76,1.65a17.42,17.42,0,0,0-5.29,1.22,21.15,21.15,0,0,0-5,3.8,14.69,14.69,0,0,1-5.5,2.92,5.15,5.15,0,0,0-3.65,3.58c-.56,2.06.34,4.37-1.11,6.15a83.46,83.46,0,0,1-6.11,6.08c-1.87,1.88-3.9,3.68-5.64,5.68a4.19,4.19,0,0,0-1.11,4.4,6.09,6.09,0,0,0,2.4,2.58c1.16.81,3.2,1.49,2.54,3.16s-1.95,2.62-1.63,4.49a3.87,3.87,0,0,0,3.55,3c1.07.16,2.11-.2,3.17-.11,1.52.13,1.86,1.15,2.86,2.09a4.69,4.69,0,0,0,2.62,1.24c1.34.21,2.39,0,3.08,1.36.92,1.88.93,3.9,2.24,5.64a3.62,3.62,0,0,0,.36.42c-.1,3.33-.09,6.77,1.4,9.73a6,6,0,0,0,2.35,2.65,3.27,3.27,0,0,0,3.41-.07c-.91,1-.54,2.69.36,3.7a12.32,12.32,0,0,0,3.39,2.21,17.87,17.87,0,0,1,8.72,12,15,15,0,0,0,1.16,4.47c.75,1.35,2.42,2.37,3.84,1.76.17.3.33.6.49.91a9.18,9.18,0,0,0,3.87,4.07,18.74,18.74,0,0,0,5.5,1.37l7.51,1.09a22.47,22.47,0,0,1,5.38,1.23,22.8,22.8,0,0,1,5.54,3.72,8.28,8.28,0,0,1,2.69,3.11c.46,1.15.41,2.5,1.13,3.5a5.08,5.08,0,0,0,3,1.62,45.8,45.8,0,0,0,12.5,1.37l1.56,3.44c1.86,4.12-1.15,8.78-4.61,11.68-1.2,1-2.63,1.84-3.41,3.2a8.13,8.13,0,0,0-.74,4.37,12.35,12.35,0,0,1-.33,4.46,3.61,3.61,0,0,1-3.28,2.61q.58,2.44,1.15,4.89c-.64.71.28,2,1,2.61a12,12,0,0,1,2.33,1.69c.85,1.09.64,2.64.57,4s.27,3.07,1.57,3.55,3.13-.54,4.1.49c.51.54.49,1.41.87,2.05a1.79,1.79,0,0,0,3.32-.88,4.86,4.86,0,0,0,3.83,1.12c.74-.11,1.12.24,1.5.88a5.21,5.21,0,0,1,.54,2.14l.45,4.42a3.72,3.72,0,0,1-.2,2.17c-1,1.83-4.4,1.4-4.92,3.4-.38,1.51,1.35,2.67,1.85,4.14.71,2.07-1.13,4.07-2.81,5.47s-3.58,3.3-3,5.41a2.79,2.79,0,0,0,2.36,1.85,7,7,0,0,0,3.19-.47l6.9-2.16c1.67-.51,3.61-1.34,3.87-3.06,1.42,0,2.47-1.3,3.08-2.57s1.06-2.71,2.16-3.59c2.36-1.89,6-.09,8.83-1.09,2-.69,3.25-2.61,4.76-4.09s4-2.56,5.67-1.27l3.35-3c-1-1.37.72-3.44,2-4.57s2.84-2,3.58-3.51c.58-1.18.53-2.57.89-3.84.58-2,2.17-3.6,3.7-5.07l8.72-8.36c-.83.27-1.58-.8-1.39-1.65a4.35,4.35,0,0,1,1.53-2.07,3,3,0,0,0,1.22-2.21C299.06,395.57,297.44,394.94,296.13,394.52Z"/><path class="cls-9" d="M239,346.77a2,2,0,0,0,1.85-1.88c0-1.3-1.53-2-2.82-2.18s-2.73-.13-3.67-1a3.52,3.52,0,0,0-2-1.82c-2.12-1.12-5.92-4.19-8.41-4.11-1.18,0-2.84,1.22-2.73,2.56s1.87,2.17,2.63.88c-.17,1.16-.33,2.32-.5,3.48A10.1,10.1,0,0,1,234.19,344c.74.63,1.38,1.36,2.15,1.94A3.84,3.84,0,0,0,239,346.77Z"/><path class="cls-9" d="M242.51,348.45c1.21,1.06,3,1.15,4.58,1.25l5.67.36c.69,0,1.61-.08,1.74-.76.09-.48-.3-.9-.68-1.2C251.18,346,244.46,344.73,242.51,348.45Z"/><path class="cls-9" d="M245.49,340.47h0Z"/><path class="cls-9" d="M246.49,341a5.57,5.57,0,0,0-1-.55l1,.54a1.75,1.75,0,0,1-1-.55,2.53,2.53,0,0,0-.77-.17,1.27,1.27,0,0,0-1.36,1.13c0,.79,1,1.16,1.76,1.34l2.42.54c.55.12,1.22.21,1.58-.22a1.09,1.09,0,0,0-.38-1.51,3.82,3.82,0,0,0-1.68-.45C246.88,341.11,246.69,341.07,246.49,341Z"/><path class="cls-9" d="M233.59,348.51a1.42,1.42,0,0,0-1,1.51,4.89,4.89,0,0,0,1.76,1.54,1.69,1.69,0,0,0,2.1-.52,1.64,1.64,0,0,0-.49-2,3.85,3.85,0,0,0-2-.73l.2.14A1.46,1.46,0,0,0,233.59,348.51Z"/><path class="cls-9" d="M215,389a4.39,4.39,0,0,0-2.06-.58l.52-.06a1.77,1.77,0,1,0-1.35,3.28,3.51,3.51,0,0,0,1.82,0,2.24,2.24,0,0,0,1.66-.79A1.49,1.49,0,0,0,215,389Z"/><path class="cls-9" d="M206.11,388.45a1,1,0,0,0-1.06.27,1.16,1.16,0,0,0,.28,1.63,1.45,1.45,0,0,0,1.72-.18,1.93,1.93,0,0,0,.53-1.7Z"/><path class="cls-9" d="M209.08,384.43c-.77-.24-1.84-.3-2.14.45s.43,1.37,1.14,1.42a3.45,3.45,0,0,0,1.95-.73l-.58.61a.6.6,0,0,0,1-.15,1,1,0,0,0-.28-1.08A2.67,2.67,0,0,0,209.08,384.43Z"/><path class="cls-9" d="M266.73,364.86h-.38l.19.07a.68.68,0,0,0-.27.23,1.2,1.2,0,0,0,.36,1.49,3.84,3.84,0,0,0,1.52.65,3,3,0,0,1,1.46.77,3.25,3.25,0,0,0-2.25-3.07A.77.77,0,0,0,266.73,364.86Z"/><path class="cls-9" d="M265,361.25l-.05,0,2.26-.59a2.4,2.4,0,0,0-1.92-1.55c-.86,0-1.67,1-1.19,1.73A.94.94,0,0,0,265,361.25Z"/><path class="cls-9" d="M238.8,335.21a.78.78,0,0,0,0-1.56.78.78,0,1,0,0,1.56Z"/><path class="cls-9" d="M241,338.34a1.11,1.11,0,0,0-1-.79,1,1,0,0,0-1,1.19.87.87,0,0,0,.12.34l0,.06v0l.07.06a1,1,0,0,0,1.06.34A1,1,0,0,0,241,338.34Z"/><path class="cls-9" d="M235.88,338.84a.82.82,0,0,0,.5-.46.89.89,0,0,0-.57-1.56.91.91,0,0,0-.76.44,1.21,1.21,0,0,0-.05,1.22A.79.79,0,0,0,235.88,338.84Z"/><path class="cls-9" d="M260,351.14l.21-.1a.67.67,0,1,0-.92-.92l-.1.22A.59.59,0,0,0,260,351.14Z"/><path class="cls-9" d="M258,354.66a.54.54,0,0,0,0-1.08A.54.54,0,0,0,258,354.66Z"/><path class="cls-9" d="M253.78,353a.48.48,0,0,0,0-1A.48.48,0,0,0,253.78,353Z"/><path class="cls-9" d="M262.15,353.47a.75.75,0,0,0,0-1.49A.75.75,0,0,0,262.15,353.47Z"/><path class="cls-9" d="M266.5,353.72a.82.82,0,0,0,0-1.64A.82.82,0,0,0,266.5,353.72Z"/><g class="cls-10"><path class="cls-11" d="M368.39,221.13A152.9,152.9,0,0,1,153.06,436.46,152.9,152.9,0,1,0,368.39,221.13Z"/></g><g class="cls-12"><path class="cls-11" d="M278.12,193.29A152.34,152.34,0,0,1,382.4,234.38,152.89,152.89,0,1,0,166.3,450.47,152.9,152.9,0,0,1,278.12,193.29Z"/></g><g class="cls-13"><path class="cls-7" d="M344.53,204.81A152.92,152.92,0,0,1,136.74,412.6,152.91,152.91,0,1,0,344.53,204.81Z"/></g><path class="cls-14" d="M322.87,368.82a6.16,6.16,0,0,0-.66-1.77c-.33-.61-1.31-2.38-2.6-4.7Z"/><path class="cls-15" d="M273.86,306.25l12.27,3.56,15.87,4.6L314.27,318a7.71,7.71,0,0,0,9.76-5.73l2.83-12.42c1-4.42,2.63-11.64,3.64-16.06l2.82-12.42c1-4.41-1.85-5.86-6.34-3.23l-7.7,4.52c-2.82-4.79-5.65-9.56-6.74-11.3-2.48-4-7.24-7-16.61-6.94l-37.09.21,15.49,27.1a5.25,5.25,0,0,1,.95,1.36c.74,1.49,3.55,6.61,6.35,11.68l-7.54,4.42C269.6,301.79,269.5,305,273.86,306.25Z"/><path class="cls-16" d="M230.92,263.63c-4,6-14.07,22-14.07,22a7.46,7.46,0,0,0,2.57,10.44l24.74,14.46a7.93,7.93,0,0,0,10.7-2.68l15.24-25c1.33-2.19,2.93-2.52,4.23-1.22l-15.49-27.1-8.94.05C243.46,254.69,236.09,255.8,230.92,263.63Z"/><path class="cls-15" d="M187.16,364.91c2.79,5.39,10.5,19.26,16.16,29.42l17.53-28.56c2.07-3.51,5.9-10,9.09-15.43l9,5c4.56,2.53,7.37,1,6.26-3.39L242,339.57c-1.11-4.38-2.93-11.56-4-15.95l-3.13-12.35a7.72,7.72,0,0,0-9.9-5.48l-12.18,3.87-15.75,5-12.18,3.86c-4.33,1.38-4.14,4.57.41,7.09l6.62,3.66c-3.38,6.52-7.36,14.21-8.37,16.41C181.7,349.66,182.82,356.53,187.16,364.91Z"/><path class="cls-16" d="M220.85,365.77l-17.53,28.56c3.15,5.66,5.66,10.17,6.33,11.43,1.85,3.5,4.5,10.36,21.23,10.27l24.33-.14a7.74,7.74,0,0,0,7.69-7.75l-.16-28.61a7.76,7.76,0,0,0-7.79-7.67l-33.23.19c-3,0-3.38-2-2.32-3.8C219.54,368,220.08,367.09,220.85,365.77Z"/><path class="cls-15" d="M322.87,368.82l14.49,28.84c5.08-9.31,13.69-25.48,17.21-32.47,4.71-9.36,6-17.46,3.87-21.73s-12.91-25-12.91-25a7.09,7.09,0,0,0-10.14-2.81l-24.58,15.06A8.13,8.13,0,0,0,308,341.49s7.47,13.37,11.63,20.86c1.29,2.32,2.27,4.09,2.6,4.7A6.16,6.16,0,0,1,322.87,368.82Z"/><path class="cls-16" d="M333.77,404.13c.58-1,1.89-3.33,3.59-6.47l-14.49-28.84c.3,1.67-.55,2.82-2.63,2.83l-15,.08-.08-8.94c-.05-5.19-2.77-6.88-6.05-3.74l-9.23,8.81L278,379.24l-9.23,8.81a7.66,7.66,0,0,0,.09,11.28l9.4,8.65,12.13,11.17,9.38,8.65c3.34,3.07,6,1.34,6-3.86l-.09-8.5,11.48-.06C327.55,415.32,331.49,408,333.77,404.13Z"/><path class="cls-2" d="M397.2,273.26a32.23,32.23,0,0,1,10.07,1.61,28.11,28.11,0,0,1,41.26-35.13,40.47,40.47,0,0,1,77.28,7.19A47,47,0,1,1,542,338.12H397.2a32.43,32.43,0,0,1,0-64.86Z"/><path class="cls-17" d="M524.48,320.62a47,47,0,0,0,40.82-70.34A47,47,0,0,1,542,338.12H397.2a32.43,32.43,0,0,1-29.95-20,32.38,32.38,0,0,0,12.45,2.48Z"/><path class="cls-2" d="M86.37,194.48a20.67,20.67,0,0,1,6.37,1,17.76,17.76,0,0,1,26.07-22.2,25.59,25.59,0,0,1,48.86,4.55,29.73,29.73,0,1,1,10.22,57.64H86.37a20.5,20.5,0,0,1,0-41Z"/><path class="cls-18" d="M166.82,224.42A29.73,29.73,0,0,0,192.63,180a29.72,29.72,0,0,1-14.74,55.53H86.37a20.5,20.5,0,0,1-18.93-12.63,20.38,20.38,0,0,0,7.86,1.57Z"/><path class="cls-2" d="M374.83,440.68a12.9,12.9,0,0,1,4.1.66,11.44,11.44,0,0,1,10.37-16.27,11.34,11.34,0,0,1,6.42,2A16.46,16.46,0,0,1,427.16,430a19.13,19.13,0,1,1,6.58,37.1H374.83a13.2,13.2,0,0,1,0-26.39Z"/><path class="cls-19" d="M426.62,460a19.13,19.13,0,0,0,16.61-28.62,19.13,19.13,0,0,1-9.49,35.74H374.83a13.2,13.2,0,0,1-12.18-8.13,13.13,13.13,0,0,0,5.06,1Z"/></g></g></svg>