<svg id="Layer_1" data-name="Layer 1" xmlns="http://www.w3.org/2000/svg" xmlns:xlink="http://www.w3.org/1999/xlink" viewBox="0 0 319.8 246"><defs><style>.cls-1{fill:none;}.cls-2{opacity:0.15;}.cls-3{fill:#ffb93e;}.cls-4{fill:#9edafa;}.cls-5{fill:#9fdefc;}.cls-6{fill:#a0e1fd;}.cls-7{fill:#a1e5ff;}.cls-8{clip-path:url(#clip-path);}.cls-9{fill:#15a9fa;}.cls-10{fill:#15b0fc;}.cls-11{fill:#15b7fd;}.cls-12{fill:#15beff;}</style><clipPath id="clip-path"><rect class="cls-1" x="50.85" y="119.44" width="200.41" height="38.18"/></clipPath></defs><g id="Countries" class="cls-2"><g id="C_H_I_N_A" data-name="C H I N A"><polygon points="240.9 230.44 239.98 230.06 238.77 230.24 239.21 230.73 239.91 230.68 240.9 230.86 240.9 230.44"/><path d="M241.3,235.68l-1.09-.41-.73.52s-.59-.41-.54-.43l-1,.22-.53-.15-.71.48h-.94l-1,.5-.92.14-.22.95-1.53.91-1.31,1.39.47.8,0,1.9.58,1-.07.59.91.8h1.06l.69.55.73,0,.92.62.62-.33.25-.91.8-.15.84.22.62-.8.08-.58.94-.19.73-.76-.18-.88.51-1.57.51-.4.22-.73.77-1.24-.44-1.31Z"/><polygon points="200.15 228.29 200.32 228.46 200.32 228.46 200.15 228.29"/><polygon points="5.9 134.59 4 133.27 3.46 133.37 2.23 137.85 3.42 137.5 4.44 138.12 5.54 137.86 5.9 138.23 6.11 138.17 5.82 135.9 5.9 134.59"/><polygon points="226.77 227.34 226.74 227.33 226.74 227.34 226.78 227.36 226.77 227.34"/><polygon points="43.69 150.56 43.4 149.54 42.05 148.73 40.67 147.57 39.65 146.29 38.62 146.65 37.89 146.95 37.16 146.25 36.95 144.25 39.39 142.6 39.06 141.74 37.61 142.04 36.44 141.38 34.76 142.26 33.52 143.35 32.13 143.35 31.32 144.59 30.37 145.54 32.56 148.76 32.71 150.95 31.93 151.97 43.71 157.57 42.82 156.1 42.78 154.53 43.62 154.17 43.77 153.11 45.19 152.2 45.15 150.96 43.69 150.56"/><polygon points="281.31 202.58 281.52 203.72 282.03 203.53 282.07 202.8 281.71 202.4 281.31 202.58"/><polygon points="319.18 42.98 318.71 42.47 318.6 41.74 317.76 40.83 317.58 40.32 318.09 39.84 317.58 38.93 317.28 38.38 316.44 38.35 315.9 37.91 314.94 37.55 314.43 38.06 313.61 38.17 313.04 38.66 312.91 39.43 312.4 39.6 311.87 39.71 311.6 40.73 310.57 40.73 309.93 40.83 309.62 41.56 309.62 42.36 308.96 42.71 308.73 43.64 308.8 44.19 308.27 44.43 307.63 45.02 306.2 45.27 305.71 45.46 305 45.27 304.58 45.69 303.96 45.93 303.7 45.26 303.24 44.6 302.53 44.58 301.86 45.07 301.07 45.29 300.81 44.78 300.01 43.75 299.57 43.48 298.6 42.27 298.6 41.54 298.84 41.25 299 40.29 298.69 39.47 298.49 38.57 297.65 38.63 297.56 38.04 297.52 37.35 297.96 36.73 298.07 36.07 297.69 35.88 297.29 35.97 296.76 36.38 296.15 36.43 295.62 36.6 294.93 36.47 294.42 36.07 293.92 36.01 293.67 35.77 292.57 35.28 292.44 34.78 291.99 34.31 291.71 34.33 291.18 33.89 291.04 33.39 290.49 33.32 289.96 32.72 289.76 32.15 289.37 31.78 288.86 31.86 288.66 32.46 288.13 32.31 287.63 32.51 287.48 32.91 286.86 32.51 286.53 32.11 286.02 31.86 284.89 31.75 284.56 31.45 284.96 31.02 284.96 30.76 284.27 30.76 283.72 31.2 282.67 31.05 282.26 31.27 281.75 30.98 281.24 31.16 280.59 31.05 280.22 30.4 279.38 30.11 278.25 28.94 277.7 27.95 277.81 27.26 277.6 26.38 277.05 26.27 276.46 25.95 276.39 24.92 276.03 24.6 275.84 23.57 275.52 22.63 273.69 21.46 272.73 20.16 272.6 19.54 272.12 18.75 271.63 18.99 271.34 18.82 271.48 18.26 271.52 17.82 270.88 17.34 270.55 16.5 270.04 16.24 269.86 15.51 269.23 14.72 268.81 13.88 267.66 13.19 267.55 12.64 267.85 11.96 267.7 11.39 266.4 11.32 266.2 10.99 266.2 10.49 265.94 9.89 265.89 9.2 265.54 8.61 265.05 8.34 265.03 7.86 264.68 7.53 264.19 7.6 263.35 7.37 263.11 6.93 263.39 6.43 263.22 5.96 262.53 5.83 262.02 6.23 261.78 5.85 261.21 5.83 261.05 5.32 261.18 4.79 260.87 4.33 260.21 4.07 259.69 4.13 259.17 3.56 258.81 3.73 258.08 3.73 257.64 3.55 257.17 3.84 257.24 4.46 256.84 4.64 255.93 4.2 255.6 3.88 254.94 4.09 253.78 4.09 253.59 3.66 252.94 3.11 251.33 2.96 250.64 2.45 249.84 2.38 249.25 2.23 249 2.38 247.54 2.56 247.25 3.33 246.84 3.33 246.41 3.73 245.35 3.69 244.73 3.8 243.63 3.62 243.05 4.28 242.17 4.28 241.77 5.04 241.01 5.37 240.28 5.3 240.09 5.48 239.44 5.52 238.82 5.74 237.5 5.88 236.96 6.36 236.96 6.98 236.23 7.85 235.94 8.8 235.53 9.31 235.53 9.82 235.21 10.26 235.21 11.5 235.53 11.9 236.05 11.97 237.18 11.28 237.87 10.99 238.49 11.13 239.22 12.34 239.62 13.29 240.35 13.84 240.35 14.6 240.57 15.22 240.5 16.43 239.88 16.9 239.22 17.88 239 19.05 238.38 19.56 237.8 20.58 237.72 21.42 238.24 22.26 238.05 22.81 238.2 23.91 238.81 24.53 238.7 25.49 238.09 25.82 237.91 26.4 238.28 27.3 238.29 28.76 238.02 29.18 238.11 30.59 238.62 30.68 238.99 30.98 239.39 30.68 239.78 30.92 239.98 31.97 239.68 32.94 238.9 33.7 237.09 34.02 235.94 34.82 233.52 37.11 232.96 37.2 232.23 36.58 230.75 36.38 229.83 36.54 229.67 36.19 228.96 36.08 228.39 36.27 228.46 36.34 227.35 44.21 227.57 45.89 227.13 47.35 227.28 48.37 226.62 50.56 227.43 52.17 229.84 53.34 231.45 52.1 233.49 52.1 235.68 52.46 236.71 53.48 237.95 51.58 237.8 50.49 237.87 49.54 239.26 49.1 239.77 48.66 242.04 49.25 243.35 50.85 245.18 52.53 246.64 54.36 248.52 55.71 248.56 56.59 248.92 57.28 248.89 58.16 248.52 58.74 248.49 59.43 248.08 60.05 247.32 59.87 246.84 59.4 245.79 59.54 245.2 59.94 243.78 59.32 242.9 59.51 241.99 60.78 240.61 61.88 239.8 62.39 238.89 61.73 238.49 61.84 238.45 62.79 238.09 63.34 237.4 63.45 236.85 63.34 236.45 63.96 235.57 65.31 235.35 66.84 235.43 67.9 234.88 68.55 233.82 68.81 231.56 70.34 230.35 70.34 229.12 70.08 228.53 70.52 227.58 72.53 226.63 73.22 225.5 74.06 224.81 74.79 224.52 75.59 224.01 75.7 222.95 75.19 221.71 74.94 220.18 74.39 218.94 73.51 217.7 73.48 215.73 73.88 214.56 74.75 213.83 75.81 213.76 78.04 213.87 79.13 213.79 79.83 216.06 81.32 218.13 82.6 218.13 83.22 217.62 84.17 216.97 85.15 214.74 87.63 213.43 89.78 212.7 91.46 211.86 91.46 210.25 91.97 209.05 92.05 207.7 92.96 206.32 93.98 204.89 94.05 202.81 94.27 201.39 94.74 199.75 95.22 196.14 96.5 193.29 97.44 191.87 99.05 189.68 100.8 188.77 101.57 187.57 101.6 186.07 101.17 186.07 100.62 185.89 99.85 183.74 100.47 181.99 100.73 180.16 99.78 178.7 99.63 175.49 98.43 172.32 96.97 170.64 95.33 169.29 95.29 165.64 94.89 162.58 94.97 161.79 94.78 161.23 95.13 160.94 95.7 159.25 96.32 156.86 96.56 152.66 96.2 149.59 96.39 147.26 96.24 145.25 96.46 144.23 96.57 143.35 96.28 142.22 94.09 141.78 92.99 140.73 91.42 139.85 90.37 139.27 88.91 139.19 88.27 138.46 87.48 137.69 87.21 137.2 87.13 136.98 86.57 136.85 85.67 136.5 85.52 136.04 85.65 134.62 85.63 133.41 84.94 131.55 83.6 130.91 83.45 130.45 83.47 129.56 83.31 129.14 82.72 127.57 81.72 124.13 80.93 123.78 81.02 123.34 81.39 121.97 81.53 119.78 81.57 114.81 80.51 113.71 79.87 112.58 78.15 112.4 77.34 112.4 76.59 112.73 76.06 113.44 75.49 113.75 74.58 113.18 73.9 112.93 72.71 113.17 72.07 113.09 70.94 112.67 70.31 112.05 69.27 111.3 68.9 110.5 68.24 110.17 67.37 109.64 66.61 109.35 65.7 109.22 64.91 108.65 64.09 107.85 63.45 107.1 63.21 106.71 62.61 105.87 62.28 105.11 62.35 104.61 62.83 104.06 63.06 103.53 62.86 102.73 61.97 102.47 61.51 101.52 61.53 100.52 62 100.13 62.44 99.95 63.03 99.48 63.05 98.47 62.41 98.22 61.66 98.2 61.31 97.48 60.43 96.48 59.79 95.71 58.93 95.13 58.69 94.6 58.2 94.36 57.55 94.31 56.89 94.04 56.36 93.87 56.45 93.81 56.74 93.48 56.83 93.09 56.17 92.8 55.88 92.84 54.74 92.75 54.27 92.31 54.26 91.29 53.9 90.66 53.89 90.79 54.03 89.88 55.02 89.07 55.46 87.72 56.88 87.69 57.68 87.98 58.23 87.36 59.32 85.86 59.87 84.95 60.53 84.77 61.7 84.84 63.85 85.83 65.85 86.78 67.13 86.63 67.82 85.35 69.25 84.26 69.65 83.38 70.67 82.65 70.92 82.18 70.74 81.92 70.16 81.05 70.16 79.08 70.59 77.73 70.49 75.76 69.79 74.59 69.65 74.01 69.72 73.57 72.02 73.13 73.48 73.06 74.61 72.58 77.53 72.58 79.79 72.33 80.55 72.91 80.99 74.08 81.5 73.61 82.52 73.5 83.33 72.84 83.33 72.26 83.69 71.45 83.69 70.87 83.18 70.21 83.47 69.01 83.76 66.78 84.22 65.21 84.83 64.5 84.81 63.88 84.5 63.04 84.85 62.12 85.71 62.1 86.4 62.96 87.08 64.37 86.99 65.54 87.13 65.56 87.61 64.84 88.32 65.33 89.82 65.4 90.59 65.84 91.24 66.02 92.3 66.97 93.83 67.15 94.67 68.24 95.47 68.65 97.55 68.03 98.1 67.7 99.01 68.56 100 68.1 100.24 67.95 100.83 67 101.48 67.04 102.81 66.09 103.35 63.83 102.77 61.68 100.29 60.77 100.51 58.65 99.67 55.55 99.49 54.02 100.03 51.43 99.34 49.02 99.92 47.78 100.11 46.61 99.74 45.7 100.55 44.75 100.94 41.98 100.58 39.94 100.03 38.88 99.41 37.27 99.45 36.73 99.71 35.52 99.63 34.57 99.45 33.99 99.78 34.1 100.87 34.39 102 34.43 103.35 32.86 103.61 29.71 103.68 25.99 103.31 25.11 102.8 23.43 102.58 22.48 103.61 22.85 104.19 21.73 104.91 21.58 105.36 21.26 105.32 22.1 105.43 22.17 106.49 20.57 108.97 19.8 110.25 20.75 110.83 23.01 111.49 23.92 112.36 24.84 112.69 25.71 111.74 25.86 110.32 26.51 110.47 28.99 112.4 29.25 113.42 27.82 115.03 26.07 114.92 23.59 115.32 23.19 114.59 22.1 113.46 20.49 115.1 19.47 115.03 18.12 116.01 16.85 116.48 16.77 117.69 18.34 118.45 18.3 119.48 16.59 120.21 14.4 120.72 14.84 121.12 15.17 121.92 13.2 122.61 13.05 123.78 12.14 124.04 9.88 123.71 8.86 124.51 8.89 126.08 10.21 127.98 11.08 127.5 12.51 127.47 12.76 128.6 12.29 129.62 12.83 131.04 13.85 131.48 14 132.87 13.53 133.45 12.47 135.93 12.1 139.12 12.76 139.98 13.53 140.31 15.21 139.94 16.3 139.32 16.85 138.52 17.43 138.41 18.01 137.86 18.52 138.23 19.07 138.96 20.82 139.1 20.79 138.3 20.31 137.83 20.39 137.13 21.48 136.84 21.88 136.29 22.39 136.29 22.54 136.84 23.63 136.73 24.32 135.64 24.07 134.25 24.51 133.56 25.13 133.01 25.31 131.55 25.82 130.64 27.02 130.64 27.9 131.26 28.81 131.73 28.81 132.54 28.59 133.7 28.88 134.65 29.72 134.62 30.09 135.56 30.01 136.84 30.16 137.86 30.23 139.83 31 140.85 31 141.55 31.91 141.91 33.19 141.91 34.06 141.25 34.25 140.74 36 139.94 36.81 139.21 37.03 138.28 37.71 137.68 40.01 136.22 41.47 135.89 41.73 136.95 43.62 136.73 44.28 135.93 46.43 135.93 46.67 136.78 45.13 138.09 45.94 138.31 45.89 138.3 46.36 138.01 47.05 137.83 48 138.66 48.51 138.3 49.35 138.37 49.93 137.97 50.41 137.46 51.03 137.5 51.79 138.23 52.34 139.83 54.64 143.12 55.99 144.03 56.02 145.38 56.9 146 57.41 146.69 59.45 146.95 61.46 146.91 62.41 147.16 62.63 148.33 64.6 148.99 66.24 149.86 67.11 152.34 68.43 153.88 70.14 154.72 70.87 155.99 70.76 158.4 71.75 160.66 73.06 160.99 73.64 163.22 73.97 165.04 73.31 166.1 73.13 165.4 72.29 165.11 70.83 166.65 71.16 167.3 71.24 168.14 72.58 168.83 72.37 170.8 72.91 171.75 72.58 172.37 73.13 172.74 73.75 173.61 73.75 174.38 74.23 174.52 74.56 175.62 75.69 176.16 76.27 175.22 77.4 175.25 77.87 175.8 79.04 175.98 80.03 177.04 80.79 177.3 81.38 178.5 82.25 178.65 82.62 179.48 82.69 179.38 82.91 179.08 84.41 179.85 84.77 180.4 85.79 180.36 86.34 180.62 86.96 179.7 88.2 179.59 90.06 180.29 90.57 180.8 91.77 180.87 92.54 181.42 94.03 182.99 95.2 183.02 96.3 183.57 96.7 184.23 97.61 185.28 98.05 186.38 98.56 186.16 98.67 184.66 99.25 184.12 99.61 184.55 100.67 184.55 101.73 185.21 101.88 186.6 103.12 187.69 104.72 187.25 106 187.44 105.71 189.52 106.29 190.68 107.13 190.5 108.55 191.19 109.17 190.65 110.27 190.32 111.18 189.3 113.08 189.52 114.32 190.14 114.61 191.34 116.1 191.92 117.13 193.31 118 193.53 119.28 192.98 119.79 193.2 121.17 192.76 122.1 192.83 122.23 192.84 123.14 192.03 124.31 191.89 124.9 192.94 124.97 194.22 125.95 194.95 126.02 194.92 127.01 194.44 128.14 192.22 130.62 190.76 132.23 190.54 132.74 191.38 135.18 191.63 136.13 192.07 137.44 191.56 138.72 191.59 139.56 192.69 139.78 192.67 140.47 192.62 142.33 192.18 143.16 192.11 143.67 190.88 144.42 190.31 145.2 190.57 145.22 189.91 146.28 189.62 146.63 188.57 147.47 187.53 148.56 187.37 150.43 186.93 151.56 185.5 151.49 184.41 152.22 184.26 153.35 183.46 154.26 184.77 155.57 184.41 157.51 185.03 158.06 184.52 157.91 183.61 160.1 182.33 160.9 182.59 161.45 183.31 162.14 183.13 162.36 183.61 161.63 184.99 162.03 185.79 162.65 185.61 163.31 185.43 163.53 186.2 164.26 187.18 164.26 187.87 163.45 188.75 163.71 189.59 164.8 189.77 165.42 189.52 166.37 189.92 167.39 190.97 167.16 190.74 168.01 190.32 169.18 190.83 169.95 190.39 171.11 190.43 171.77 191.78 172.76 192.51 173.05 194.08 173.92 194.04 174.84 195.06 174.84 196.59 175.67 198.31 175.78 199.84 175.49 201.99 175.49 203.01 175.27 203.63 174.32 204.07 174.22 205.02 173.74 205.16 173.49 205.86 173.92 206.84 173.52 207.43 172.87 207.17 172.17 207.9 171.77 208.78 172.21 209.43 171.74 210.19 171.74 211.03 172.6 211.4 172.96 212.06 173.67 212.72 173.52 213.92 174 215.09 175.2 214.21 177.5 213.74 177.72 214.54 177.39 215.16 178.01 215.67 179.32 215.34 179.58 216.22 179.25 217.09 179.83 217.9 181.15 218.19 180.89 218.66 181.29 219.32 181.47 218.92 182.9 218.74 183.92 219.39 183.92 220.16 183.48 221.03 183.52 221.76 182.35 223.41 181.4 224.35 181.58 225.04 182.35 224.68 183.95 224.86 184.21 225.16 184.98 224.46 185.67 225.38 185.38 226.72 185.71 227.67 186.87 228.26 187.57 227.6 188.7 227.6 190.99 226.62 191.98 226.94 191.87 227.89 191.44 228.26 192.09 228.73 192.53 229.57 193.84 229.17 194.72 229.39 194.42 228.11 194.35 226.91 193.99 225.85 193.91 224.13 194.61 223.66 194.61 222.93 196.5 222.86 196.54 222.94 196.89 222.64 197.31 222.57 197.57 222.06 198.12 221.58 199.19 221.15 199.85 221.23 199.79 222.01 200.25 222.37 200.94 222.36 201.11 221.39 201.87 220.83 202.9 221.83 203.43 221.12 204.01 221.16 204.25 221.89 205.38 221.34 205.56 220.59 206.81 220.22 207.79 220.79 209.49 220.23 209.42 218.66 210.51 218.04 211.75 218.04 212.44 217.35 213.54 218.22 213.54 218.88 214.67 219.1 215.11 219.76 217.41 219.72 217.81 220.23 219.16 219.68 220.03 220.38 219.85 221.36 219.12 221.47 218.61 223.33 219.19 223.55 219.49 224.61 221.53 225.34 221.82 226.07 222.8 226.51 223.82 227.01 224.86 226.7 225.3 227.05 225.92 226.87 226.76 227.32 227.08 227.4 227.47 227.19 228.07 227.45 228.9 227.11 228.86 226.57 229.09 225.58 229.58 226.5 230.52 227.45 231.02 227.28 232.26 228.31 232.79 228.14 233.48 228.2 233.99 227.32 234.72 227.99 235.44 227.76 235.98 227.99 236.04 228.33 235.29 228.43 235.12 229.31 234.41 230.2 234.4 230.79 235.62 232.47 236.34 232.91 236.31 233.39 236.46 234.48 236.67 234.27 237.07 233.58 238.18 233.79 238.19 234.08 238.77 234.08 239.65 232.97 239.4 232.51 239 232.44 239 232.15 238.46 231.14 237.87 231.14 237.49 230.2 237.72 229.8 238.42 229.23 238.59 228.56 238.44 228.03 238.69 227.99 239.03 227.63 239.13 227.89 239.36 228.28 239.63 228.28 239.46 228.43 239.51 228.66 239.97 228.73 239.76 229 240.03 229.04 240.56 228.49 241.54 228.33 241.92 227.59 242.74 227.89 243.66 227.57 244.74 226.98 244.36 226.31 245.22 226.33 246.19 226.04 247.19 226.38 247.78 226.21 248.89 225.66 249.86 224.71 250.51 223.83 250.6 223.43 250.87 223.67 251.29 224.02 251.77 223.65 252.23 222.89 253.03 222.47 252.86 221.25 252.63 220.35 252.71 219.63 252.48 219.07 252.97 219.51 254.23 220.14 254.38 220.79 255.42 221.8 256.08 221.63 255.58 222.36 254.93 222.66 255.05 223.08 256.85 222.2 256.96 221.21 257.88 220.9 258.34 220.48 259.14 220.94 259.95 220.75 260.02 220.06 260.83 219.87 261.06 219.37 261.44 219.98 262.21 220.83 262.71 220.4 262.86 219.52 263.39 219.52 263.47 219.83 264.31 219.83 264.43 219.33 265.58 219.18 266.19 218.56 266.65 218.15 266.76 218.72 267.11 218.26 267.64 218.41 268.49 218.03 268.11 217.38 268.53 216.77 268.87 215.69 268.41 214.66 268.91 214.81 269.25 214.28 270.52 214.09 270.63 214.54 271.59 214.54 271.82 213.36 272.32 213.36 272.47 212.55 272.93 212.52 273.01 212.94 273.31 212.75 273.93 211.83 274.5 212.52 274.65 211.48 275.23 211.41 275.61 210.6 274.73 210.41 274 210.68 272.74 209.72 274.42 209.64 275.19 208.57 275.57 208.95 276.11 208.46 277.49 209.3 277.87 208.23 277.03 207.96 276.68 207.46 276.84 206.81 277.87 207.54 278.44 206.85 278.33 206.58 277.64 206.58 277.49 205.66 276.95 205.24 277.68 205.05 278.06 205.55 278.56 205.55 278.9 206.04 278.94 205.2 278.06 204.55 278.14 203.75 278.67 203.75 279.02 203.13 279.79 203.82 279.79 204.51 280.32 204.51 280.86 205.35 280.93 204.13 280.55 203.4 280.05 203.4 279.86 202.83 280.55 202.64 280.68 201.97 279.83 201.7 281 200.72 280.43 200.15 279.64 200.21 279.26 200.59 279.44 199.81 280.49 199.08 282.16 198.35 281.62 197.77 281.01 198.35 279.79 197.28 280.86 197.28 280.17 196.36 279.36 196.28 279.9 195.82 279.48 195.28 280.13 195.44 280.32 194.59 280.63 194.67 281.16 194.59 281.09 195.59 281.74 195.59 283 194.25 283.08 193.64 284.23 193.71 283.54 192.87 282.77 192.79 283 191.91 283.69 192.64 284.53 192.22 284.5 191.34 284.84 190.96 284.42 190.38 284.5 189.69 285.07 189.31 284.69 188.7 284.69 188.16 283.71 187.61 285.11 188.05 285.68 187.59 286.44 185.79 287.26 185.68 287.44 186.5 287.7 186.86 287.89 185.85 288.6 185.39 288.05 184.46 287.09 184.38 286.65 183.96 287.07 183.62 287.76 183.75 288.33 183.22 287.87 182.72 287.24 182.4 287.93 181.76 288.27 181.84 288.41 181.42 287.85 180.91 286.19 180.98 286.29 180.52 287.36 179.61 288.33 179.86 288.64 179.63 288.77 179.11 289.38 179.44 289.44 179.8 290.07 179.3 289.76 178.67 289.63 177.17 289.09 176.83 288.48 177.44 288.67 177.71 288.67 178.17 287.6 177.94 286.29 179.05 285.6 178.93 285.6 178.01 286.98 177.75 289.24 175.64 289.09 175.34 288.09 175.34 287.67 174.8 287.4 175.26 285.76 173.15 284.57 172.96 283 174.3 282.2 174.03 281.16 172.54 280.13 172.77 279.1 173.61 278.79 174.49 278.9 173.31 280.05 172.35 280.7 172.39 281.39 171.89 282.62 172.5 283.5 172.08 283.57 171.2 284.07 170.74 284.69 170.82 285.87 169.44 287.25 169.28 287.29 168.56 286.06 166.56 283.46 164.96 281.78 164 279.75 162.01 278.75 161.97 277.1 163.12 276.3 162.93 275 161.74 274.96 161.21 274.42 160.97 273.27 161.44 271.97 161.28 270.86 161.66 269.44 163.39 270.63 161.09 271.55 160.63 272.16 160.82 272.81 160.82 273.08 160.52 273.85 160.82 275.19 160.28 275.8 161.82 276.45 162.35 277.45 162.35 278.1 161.47 279.71 161.7 280.82 162.47 281.58 162.51 282.58 163.54 284.04 162.7 286.1 163.46 286.68 163.12 285.95 161.66 285.3 161.4 284.11 159.94 284.11 159.56 283.57 159.14 282.54 159.21 281.55 158.79 280.21 156.88 280.17 155.38 278.29 154 278.18 152.51 277.18 152.17 277.68 150.98 277.33 150.9 275.8 147.73 273.01 146.31 272.28 146.73 272.28 146 269.68 144.78 269.29 144.81 269.25 142.29 269.68 140.56 269.25 139.42 269.52 137.96 269.87 138.19 270.6 137.96 271.51 136.47 272.01 136.77 272.93 135.7 271.97 135.13 271.51 134.51 272.32 133.63 273.85 133.71 273.89 132.64 275.15 132.41 275.04 131.6 273.89 130.88 275.04 130.72 275.88 131.38 276.11 130.76 277.03 130.8 277.95 130.03 278.6 130.03 279.67 128.62 280.05 129.23 280.51 128.66 280.63 129.19 281.85 130.03 283.12 128.96 283.12 128.5 282.31 128.35 282.2 127.28 282.85 126.93 283.38 126.93 282.54 125.75 282.62 125.17 283.73 124.83 283.08 124.52 281.89 124.75 280.47 124.79 280.55 124.37 279.44 124.41 279.02 124.86 275.8 124.98 275.15 124.41 274.54 124.14 273.96 123.26 273.39 123.03 273.08 122.61 270.79 123.68 269.56 123.72 269.98 124.06 269.98 124.98 269.29 125.56 267.91 126.09 268.14 126.24 268.6 126.86 268.07 127.81 267.61 128.24 266.61 127.85 265.65 128.43 264.31 128.39 262.94 125.71 262.94 124.33 262.71 123.37 261.37 123.41 260.83 123.72 260.75 123.22 260.18 123.22 259.76 123.83 259.41 123.3 259.37 123.75 258.61 122.45 258.42 121.84 256.73 120.69 255.66 120.08 255.55 118.97 255.01 117.78 255.47 117.36 255.43 116.86 255.58 116.33 255.7 115.29 256.31 114.83 256.43 114.26 258.34 114.95 259.99 114.91 261.29 114.87 261.79 113.8 261.48 113.3 262.21 113.3 262.02 112.08 261.71 111.81 262.09 111.23 262.63 108.67 264.43 107.67 265.5 107.63 266.31 106.26 266.84 106.14 266.96 104.15 267.99 103 268.18 101.85 268.6 101.62 269.25 100.51 270.4 100.47 270.86 100.78 271.74 100.78 272.09 99.78 273.66 101.66 275.92 103 276.03 103.84 275.42 104.19 275.19 104.88 274.12 106.26 274 107.52 273.05 107.56 273.16 107.94 272.93 109.24 274.04 110.35 273.96 111.04 273.54 111.23 273.54 111.85 274 112.38 275.11 112 276.3 111.08 275.84 112 274.88 112.65 275 113.15 275.57 113.26 275.46 113.84 275.04 114.13 273.9 113.98 273.38 114.69 272.55 114.74 272.13 115.5 272.93 116.04 273.06 116.85 273.69 116.75 274.3 115.96 274.9 115.98 275.71 114.75 277.14 114.13 277.3 113.72 276.87 112.73 278.14 111.77 280.36 110.08 281.01 110.16 281.2 109.13 282.35 109.13 283.69 108.17 284.23 108.63 284.8 108.44 285.91 108.36 287.37 106.68 287.74 107.62 287.86 107.61 290.33 106.46 305.09 96.08 306.41 88.33 310.79 84.86 311 84.33 311 83.76 310.62 83.51 310.44 82.63 310.5 82.25 311.08 81.9 312.29 82.03 312.64 81.94 312.66 81.06 312.51 80.55 312.55 79.87 312.8 79.39 312.76 78.48 312.69 77.58 312.11 77.14 312.11 75.4 312 74.56 311.89 73.33 311.93 72.42 311.27 71.56 310.94 70.94 310.7 70.18 309.51 68.34 309.15 67.49 309.37 67.04 309.99 66.63 310.57 66.58 311.06 65.94 311.27 65.25 312.2 63.81 312.59 63.71 313.4 63.92 314.04 64.17 317.26 64.76 317.75 64.91 318.32 64.91 318.72 64.42 318.6 63.67 318.28 63.1 318.21 62.57 318.39 62.19 318.21 61.66 318.08 61.09 318.52 60.08 318.85 59.71 318.69 58.93 318.39 58.41 318.54 58.12 319.24 57.77 318.98 57.3 318.98 56.73 318.65 56.2 318.85 55.52 319.35 55.16 319.35 54.76 319.07 54.22 318.69 53.18 318.61 51.99 318.94 51.86 319.16 51.64 319.13 51.26 318.91 50.91 318.96 50.34 318.5 50.03 318.19 49.58 318.49 48.84 318.56 48 318.32 47.74 317.88 47.12 317.88 46.66 318.58 45.82 319.35 45.68 319.55 45.28 319.58 44.4 319.8 43.35 319.18 42.98"/><polygon points="284.85 163.71 283.63 163.51 283.52 163.91 284.12 164.54 285.2 164.55 286.28 165.03 286.15 163.95 285.31 164.01 284.85 163.71"/><polygon points="293.47 204.74 293.14 204.74 292.59 203.61 291.46 203.21 290.8 203.57 290.91 204.27 290 204.6 288.91 205.84 287.88 207.59 288.14 208.06 287.96 208.75 287.52 209.16 286.43 211.09 285.88 213.1 285.51 213.39 285.84 213.86 285.88 215.83 286.02 217.87 286.54 218.2 286.68 218.79 286.46 218.86 286.43 219.48 286.97 220.32 287.52 220.46 287.67 221.12 289.09 221.59 289.82 222.69 289.75 223.86 289.82 224.7 290.55 224.44 291.28 224.7 291.06 223.68 291.31 222.47 290.8 220.97 291.64 219.84 292.92 217.91 292.96 216.67 293.32 216.31 292.85 216.12 293.14 214.19 293.25 212.84 293.03 211.38 293.58 210.32 293.83 207.7 294.16 206.35 294.52 206.28 294.34 205.4 293.47 204.74"/><polygon points="270.51 215.7 270.65 216.17 271.55 216.21 271.89 215.92 271.27 215.31 270.51 215.7"/><polygon points="291.12 174.11 290.15 173.52 289.57 173.6 289.15 173.43 289.38 174.13 290.39 174.44 291.1 174.93 291.12 174.11"/></g></g><g id="Countries-2" data-name="Countries"><g id="C_H_I_N_A-2" data-name="C H I N A"><polygon class="cls-3" points="238.66 228.21 237.75 227.82 236.54 228 236.98 228.5 237.67 228.44 238.66 228.63 238.66 228.21"/><path class="cls-3" d="M239.07,233.44,238,233l-.73.51s-.58-.4-.54-.43l-1,.22-.53-.14-.72.47h-.93l-1,.5-.91.15-.22,1-1.53.91-1.32,1.38.48.81,0,1.89.58,1-.07.58.91.8h1.06l.69.55.73,0,.91.61.62-.32.26-.92.8-.14.84.22.62-.81.07-.58L238,241l.73-.77-.18-.87.51-1.57.51-.4.22-.73.76-1.24-.43-1.32Z"/><polygon class="cls-3" points="197.91 226.06 198.09 226.22 198.09 226.22 197.91 226.06"/><polygon class="cls-3" points="3.66 132.35 1.76 131.03 1.22 131.13 0 135.62 1.19 135.26 2.21 135.88 3.3 135.63 3.67 135.99 3.87 135.94 3.59 133.66 3.66 132.35"/><polygon class="cls-3" points="224.53 225.1 224.5 225.1 224.51 225.1 224.54 225.12 224.53 225.1"/><polygon class="cls-3" points="41.46 148.32 41.17 147.3 39.82 146.5 38.43 145.33 37.41 144.05 36.39 144.42 35.66 144.71 34.93 144.02 34.71 142.01 37.15 140.37 36.82 139.51 35.37 139.8 34.2 139.15 32.52 140.02 31.28 141.12 29.89 141.12 29.09 142.36 28.14 143.31 30.33 146.53 30.48 148.72 29.7 149.73 41.48 155.34 40.58 153.87 40.55 152.3 41.39 151.93 41.53 150.88 42.95 149.96 42.92 148.72 41.46 148.32"/><polygon class="cls-3" points="279.07 200.35 279.29 201.48 279.8 201.3 279.84 200.57 279.47 200.17 279.07 200.35"/><polygon class="cls-3" points="316.94 40.75 316.47 40.23 316.36 39.51 315.52 38.59 315.34 38.08 315.85 37.61 315.34 36.7 315.05 36.15 314.21 36.11 313.66 35.68 312.7 35.31 312.19 35.83 311.37 35.94 310.8 36.43 310.68 37.2 310.17 37.36 309.63 37.47 309.36 38.5 308.34 38.5 307.7 38.59 307.39 39.32 307.39 40.13 306.73 40.48 306.49 41.41 306.56 41.96 306.04 42.2 305.39 42.78 303.97 43.04 303.48 43.22 302.76 43.04 302.34 43.46 301.72 43.7 301.47 43.02 301.01 42.36 300.3 42.34 299.62 42.84 298.83 43.06 298.58 42.54 297.77 41.52 297.34 41.24 296.37 40.04 296.37 39.3 296.61 39.01 296.77 38.06 296.46 37.24 296.26 36.34 295.42 36.39 295.33 35.81 295.29 35.11 295.73 34.49 295.84 33.83 295.45 33.65 295.05 33.74 294.52 34.14 293.92 34.2 293.39 34.36 292.69 34.23 292.18 33.83 291.69 33.78 291.43 33.54 290.34 33.04 290.21 32.55 289.75 32.07 289.48 32.09 288.95 31.65 288.8 31.16 288.25 31.09 287.72 30.48 287.52 29.91 287.14 29.55 286.63 29.62 286.43 30.23 285.89 30.08 285.39 30.28 285.25 30.68 284.63 30.28 284.3 29.88 283.79 29.62 282.65 29.51 282.33 29.22 282.73 28.78 282.73 28.53 282.04 28.53 281.49 28.96 280.43 28.82 280.03 29.04 279.52 28.74 279.01 28.93 278.35 28.82 277.99 28.16 277.15 27.87 276.02 26.7 275.47 25.72 275.58 25.02 275.36 24.15 274.81 24.04 274.23 23.71 274.16 22.69 273.79 22.36 273.61 21.34 273.28 20.39 271.46 19.22 270.49 17.93 270.36 17.3 269.89 16.52 269.39 16.75 269.1 16.59 269.25 16.02 269.28 15.58 268.64 15.11 268.31 14.26 267.8 14.01 267.62 13.28 267 12.49 266.58 11.65 265.43 10.95 265.32 10.4 265.61 9.72 265.46 9.16 264.17 9.08 263.97 8.76 263.97 8.26 263.71 7.66 263.65 6.96 263.31 6.38 262.81 6.1 262.8 5.62 262.45 5.29 261.95 5.37 261.11 5.13 260.88 4.69 261.15 4.2 260.99 3.72 260.29 3.59 259.78 4 259.54 3.61 258.98 3.59 258.81 3.08 258.94 2.55 258.63 2.09 257.97 1.84 257.46 1.9 256.94 1.32 256.57 1.5 255.84 1.5 255.41 1.31 254.93 1.6 255 2.22 254.6 2.41 253.69 1.97 253.36 1.64 252.71 1.86 251.54 1.86 251.36 1.42 250.7 0.88 249.09 0.73 248.4 0.22 247.6 0.14 247.02 0 246.76 0.14 245.3 0.33 245.01 1.09 244.61 1.09 244.17 1.5 243.11 1.46 242.49 1.57 241.4 1.39 240.81 2.04 239.94 2.04 239.54 2.81 238.77 3.14 238.04 3.06 237.86 3.25 237.2 3.28 236.58 3.5 235.27 3.65 234.72 4.12 234.72 4.74 233.99 5.62 233.7 6.57 233.3 7.08 233.3 7.59 232.97 8.03 232.97 9.27 233.3 9.67 233.81 9.74 234.94 9.05 235.63 8.76 236.25 8.9 236.98 10.1 237.38 11.05 238.12 11.6 238.12 12.37 238.33 12.99 238.26 14.19 237.64 14.66 236.98 15.65 236.77 16.82 236.15 17.33 235.56 18.35 235.49 19.19 236 20.03 235.82 20.57 235.97 21.68 236.57 22.3 236.46 23.25 235.86 23.58 235.68 24.17 236.04 25.06 236.06 26.53 235.78 26.95 235.88 28.36 236.39 28.45 236.75 28.74 237.16 28.45 237.54 28.69 237.74 29.73 237.45 30.7 236.66 31.47 234.85 31.78 233.7 32.59 231.29 34.87 230.72 34.97 229.99 34.34 228.51 34.14 227.6 34.31 227.43 33.96 226.72 33.85 226.16 34.03 226.22 34.11 225.12 41.97 225.34 43.65 224.9 45.11 225.04 46.13 224.39 48.33 225.19 49.93 227.6 51.1 229.21 49.86 231.26 49.86 233.45 50.23 234.47 51.25 235.71 49.35 235.57 48.25 235.64 47.3 237.03 46.87 237.54 46.43 239.8 47.01 241.12 48.62 242.95 50.3 244.41 52.13 246.29 53.48 246.32 54.35 246.69 55.05 246.65 55.92 246.29 56.51 246.25 57.2 245.85 57.82 245.08 57.64 244.61 57.16 243.55 57.31 242.97 57.71 241.54 57.09 240.67 57.27 239.76 58.55 238.37 59.64 237.57 60.15 236.66 59.5 236.25 59.61 236.22 60.55 235.85 61.1 235.16 61.21 234.61 61.1 234.21 61.72 233.34 63.07 233.12 64.6 233.19 65.66 232.64 66.32 231.59 66.57 229.32 68.11 228.12 68.11 226.88 67.85 226.3 68.29 225.35 70.29 224.4 70.99 223.27 71.83 222.57 72.56 222.28 73.36 221.77 73.47 220.72 72.96 219.47 72.7 217.94 72.16 216.7 71.28 215.46 71.24 213.49 71.64 212.32 72.52 211.59 73.58 211.52 75.8 211.63 76.9 211.56 77.59 213.82 79.09 215.9 80.36 215.9 80.98 215.39 81.93 214.73 82.92 212.51 85.4 211.19 87.55 210.46 89.23 209.63 89.23 208.02 89.74 206.82 89.81 205.47 90.72 204.08 91.74 202.66 91.82 200.58 92.03 199.16 92.51 197.51 92.98 193.9 94.26 191.06 95.21 189.63 96.81 187.45 98.56 186.53 99.33 185.33 99.37 183.84 98.93 183.84 98.38 183.65 97.62 181.5 98.24 179.75 98.49 177.93 97.54 176.47 97.4 173.26 96.19 170.08 94.73 168.41 93.09 167.06 93.06 163.41 92.66 160.35 92.73 159.56 92.55 158.99 92.9 158.7 93.47 157.02 94.09 154.63 94.33 150.42 93.97 147.36 94.15 145.02 94 143.02 94.22 141.99 94.33 141.12 94.04 139.99 91.85 139.55 90.76 138.49 89.19 137.62 88.13 137.03 86.67 136.95 86.03 136.22 85.25 135.46 84.97 134.96 84.9 134.74 84.33 134.61 83.44 134.27 83.29 133.81 83.42 132.38 83.4 131.18 82.7 129.31 81.37 128.68 81.22 128.22 81.24 127.32 81.07 126.9 80.49 125.33 79.48 121.89 78.69 121.55 78.78 121.11 79.15 119.74 79.3 117.55 79.33 112.58 78.27 111.48 77.63 110.34 75.91 110.16 75.11 110.16 74.36 110.49 73.83 111.2 73.26 111.51 72.34 110.95 71.67 110.69 70.47 110.93 69.83 110.86 68.7 110.44 68.08 109.81 67.03 109.07 66.67 108.26 66.01 107.93 65.13 107.4 64.38 107.11 63.47 106.98 62.68 106.42 61.85 105.61 61.21 104.86 60.98 104.48 60.37 103.64 60.04 102.87 60.12 102.38 60.59 101.83 60.83 101.3 60.63 100.5 59.73 100.24 59.27 99.29 59.29 98.28 59.77 97.9 60.21 97.72 60.79 97.24 60.81 96.24 60.17 95.98 59.42 95.96 59.07 95.25 58.19 94.25 57.55 93.48 56.69 92.89 56.45 92.36 55.96 92.12 55.32 92.08 54.66 91.8 54.13 91.64 54.21 91.57 54.5 91.24 54.59 90.86 53.94 90.57 53.64 90.61 52.5 90.51 52.03 90.08 52.02 89.05 51.66 88.43 51.65 88.55 51.8 87.64 52.78 86.84 53.22 85.49 54.64 85.45 55.45 85.74 55.99 85.12 57.09 83.63 57.64 82.72 58.29 82.53 59.46 82.61 61.61 83.59 63.62 84.54 64.89 84.39 65.59 83.12 67.01 82.02 67.41 81.15 68.43 80.42 68.69 79.94 68.51 79.69 67.92 78.81 67.92 76.84 68.36 75.49 68.25 73.52 67.56 72.36 67.41 71.77 67.48 71.33 69.78 70.9 71.24 70.83 72.37 70.35 75.29 70.35 77.55 70.09 78.32 70.68 78.76 71.85 79.27 71.37 80.29 71.26 81.09 70.61 81.09 70.02 81.46 69.22 81.46 68.64 80.95 67.98 81.24 66.78 81.53 64.55 81.99 62.98 82.59 62.26 82.57 61.64 82.26 60.8 82.61 59.89 83.47 59.87 84.17 60.73 84.84 62.13 84.75 63.3 84.9 63.32 85.38 62.61 86.09 63.09 87.58 63.16 88.35 63.6 89.01 63.78 90.06 64.73 91.6 64.92 92.44 66.01 93.24 66.41 95.32 65.79 95.86 65.46 96.78 66.32 97.77 65.86 98 65.72 98.59 64.77 99.25 64.81 100.57 63.86 101.12 61.6 100.53 59.44 98.05 58.53 98.27 56.42 97.43 53.31 97.25 51.78 97.8 49.19 97.11 46.78 97.69 45.54 97.87 44.38 97.51 43.47 98.31 42.52 98.71 39.74 98.35 37.7 97.8 36.64 97.18 35.04 97.22 34.49 97.47 33.29 97.4 32.34 97.22 31.76 97.54 31.86 98.64 32.16 99.77 32.19 101.12 30.62 101.37 27.48 101.44 23.75 101.08 22.88 100.57 21.2 100.35 20.25 101.37 20.61 101.96 19.5 102.67 19.34 103.13 19.02 103.09 19.86 103.2 19.94 104.25 18.33 106.74 17.57 108.01 18.51 108.6 20.77 109.25 21.69 110.13 22.6 110.46 23.48 109.51 23.62 108.08 24.28 108.23 26.76 110.16 27.01 111.19 25.59 112.79 23.84 112.68 21.36 113.08 20.96 112.35 19.86 111.22 18.26 112.86 17.24 112.79 15.89 113.78 14.61 114.25 14.54 115.45 16.11 116.22 16.07 117.24 14.36 117.97 12.17 118.48 12.61 118.88 12.93 119.69 10.96 120.38 10.82 121.55 9.9 121.8 7.64 121.47 6.62 122.28 6.66 123.84 7.97 125.74 8.85 125.27 10.27 125.23 10.53 126.36 10.05 127.38 10.6 128.81 11.62 129.24 11.77 130.63 11.29 131.21 10.23 133.69 9.87 136.88 10.53 137.74 11.29 138.07 12.97 137.71 14.06 137.09 14.61 136.28 15.2 136.17 15.78 135.63 16.29 135.99 16.84 136.72 18.59 136.87 18.55 136.06 18.08 135.59 18.15 134.9 19.24 134.61 19.64 134.06 20.16 134.06 20.3 134.61 21.4 134.5 22.09 133.4 21.83 132.02 22.27 131.32 22.89 130.78 23.07 129.32 23.59 128.4 24.79 128.4 25.66 129.02 26.58 129.5 26.58 130.3 26.36 131.47 26.65 132.42 27.49 132.38 27.85 133.33 27.78 134.61 27.93 135.63 28 137.6 28.77 138.62 28.77 139.31 29.68 139.68 30.95 139.68 31.83 139.02 32.01 138.51 33.76 137.71 34.58 136.97 34.8 136.04 35.48 135.44 37.77 133.99 39.23 133.66 39.49 134.72 41.39 134.5 42.04 133.69 44.2 133.69 44.43 134.54 42.9 135.86 43.7 136.08 43.66 136.06 44.12 135.77 44.81 135.59 45.76 136.43 46.27 136.06 47.11 136.14 47.7 135.74 48.17 135.22 48.79 135.26 49.56 135.99 50.1 137.6 52.4 140.88 53.75 141.79 53.79 143.14 54.66 143.76 55.17 144.46 57.22 144.71 59.22 144.67 60.17 144.93 60.39 146.1 62.36 146.75 64 147.63 64.88 150.11 66.19 151.64 67.91 152.48 68.64 153.76 68.53 156.16 69.51 158.43 70.83 158.75 71.41 160.98 71.74 162.8 71.08 163.86 70.9 163.17 70.06 162.88 68.59 164.41 68.93 165.06 69 165.9 70.35 166.6 70.13 168.57 70.68 169.52 70.35 170.14 70.9 170.5 71.52 171.38 71.52 172.14 71.99 172.29 72.32 173.38 73.45 173.93 74.03 172.98 75.17 173.02 75.64 173.56 76.81 173.75 77.79 174.81 78.56 175.06 79.14 176.26 80.02 176.41 80.38 177.25 80.46 177.14 80.67 176.85 82.17 177.61 82.53 178.16 83.56 178.13 84.1 178.38 84.72 177.47 85.96 177.36 87.82 178.05 88.33 178.56 89.54 178.63 90.3 179.18 91.8 180.75 92.97 180.79 94.06 181.34 94.46 181.99 95.37 183.05 95.81 184.14 96.32 183.93 96.43 182.43 97.02 181.88 97.38 182.32 98.44 182.32 99.5 182.98 99.64 184.36 100.88 185.46 102.49 185.02 103.76 185.2 103.47 187.28 104.06 188.45 104.89 188.27 106.32 188.96 106.94 188.41 108.03 188.08 108.94 187.06 110.84 187.28 112.08 187.9 112.37 189.1 113.87 189.69 114.89 191.07 115.77 191.29 117.04 190.75 117.55 190.97 118.94 190.53 119.87 190.59 120 190.6 120.91 189.8 122.08 189.65 122.66 190.71 122.73 191.99 123.72 192.72 123.78 192.69 124.78 192.21 125.91 189.98 128.39 188.52 129.99 188.3 130.5 189.14 132.95 189.4 133.9 189.83 135.21 189.32 136.49 189.36 137.32 190.45 137.55 190.44 138.24 190.38 140.1 189.94 140.92 189.87 141.43 188.65 142.18 188.08 142.97 188.34 142.98 187.68 144.04 187.38 144.39 186.34 145.23 185.3 146.33 185.13 148.19 184.69 149.33 183.27 149.25 182.17 149.98 182.03 151.11 181.22 152.03 182.54 153.34 182.17 155.27 182.79 155.82 182.28 155.67 181.37 157.86 180.09 158.66 180.35 159.21 181.08 159.91 180.9 160.12 181.37 159.39 182.76 159.79 183.56 160.41 183.38 161.07 183.19 161.29 183.96 162.02 184.95 162.02 185.64 161.22 186.51 161.47 187.35 162.57 187.54 163.19 187.28 164.14 187.68 165.16 188.74 164.93 188.5 165.78 188.08 166.95 188.59 167.71 188.16 168.88 188.19 169.54 189.54 170.52 190.27 170.81 191.84 171.69 191.8 172.6 192.83 172.6 194.36 173.44 196.07 173.55 197.6 173.26 199.76 173.26 200.78 173.04 201.4 172.09 201.84 171.98 202.78 171.5 202.93 171.25 203.62 171.69 204.61 171.29 205.19 170.63 204.94 169.94 205.67 169.54 206.54 169.97 207.2 169.5 207.96 169.5 208.8 170.36 209.16 170.73 209.82 171.43 210.48 171.29 211.69 171.76 212.85 172.96 211.98 175.26 211.5 175.48 212.31 175.15 212.93 175.77 213.44 177.09 213.11 177.34 213.98 177.01 214.86 177.6 215.66 178.91 215.95 178.66 216.43 179.06 217.08 179.24 216.68 180.66 216.5 181.68 217.16 181.68 217.92 181.25 218.8 181.28 219.53 180.11 221.17 179.16 222.12 179.35 222.81 180.11 222.45 181.72 222.63 181.97 222.92 182.74 222.23 183.43 223.14 183.14 224.49 183.47 225.44 184.64 226.02 185.33 225.37 186.46 225.37 188.76 224.38 189.75 224.71 189.63 225.66 189.21 226.03 189.85 226.5 190.29 227.33 191.6 226.93 192.48 227.15 192.19 225.88 192.12 224.67 191.75 223.61 191.68 221.9 192.37 221.42 192.37 220.69 194.27 220.62 194.31 220.7 194.66 220.41 195.07 220.33 195.34 219.82 195.89 219.34 196.96 218.91 197.62 219 197.55 219.77 198.01 220.13 198.7 220.12 198.88 219.15 199.64 218.59 200.66 219.6 201.19 218.88 201.78 218.92 202.01 219.65 203.15 219.1 203.33 218.35 204.57 217.99 205.56 218.56 207.25 218 207.18 216.43 208.28 215.81 209.52 215.81 210.21 215.11 211.3 215.99 211.3 216.65 212.43 216.87 212.87 217.52 215.17 217.49 215.57 218 216.92 217.45 217.8 218.14 217.61 219.13 216.88 219.24 216.37 221.1 216.96 221.32 217.25 222.37 219.29 223.1 219.59 223.83 220.57 224.27 221.59 224.78 222.63 224.47 223.07 224.82 223.69 224.63 224.53 225.09 224.85 225.16 225.23 224.95 225.84 225.22 226.66 224.88 226.62 224.34 226.85 223.35 227.35 224.26 228.28 225.22 228.78 225.05 230.02 226.08 230.56 225.91 231.24 225.96 231.76 225.09 232.49 225.75 233.21 225.52 233.75 225.75 233.8 226.1 233.06 226.19 232.89 227.07 232.18 227.97 232.16 228.56 233.38 230.24 234.11 230.68 234.07 231.16 234.22 232.24 234.43 232.03 234.83 231.35 235.94 231.56 235.96 231.84 236.53 231.84 237.41 230.74 237.16 230.28 236.76 230.2 236.76 229.91 236.23 228.9 235.63 228.9 235.25 227.97 235.48 227.57 236.19 226.99 236.36 226.33 236.21 225.79 236.46 225.75 236.8 225.39 236.9 225.66 237.12 226.04 237.39 226.04 237.22 226.19 237.28 226.42 237.74 226.5 237.53 226.76 237.79 226.8 238.33 226.25 239.3 226.1 239.68 225.35 240.5 225.66 241.42 225.33 242.51 224.74 242.13 224.07 242.99 224.09 243.96 223.81 244.95 224.15 245.54 223.98 246.65 223.42 247.63 222.47 248.28 221.59 248.37 221.19 248.64 221.44 249.06 221.78 249.53 221.42 249.99 220.66 250.79 220.24 250.62 219.01 250.39 218.12 250.47 217.39 250.24 216.84 250.74 217.28 252 217.91 252.15 218.56 253.18 219.57 253.85 219.39 253.35 220.12 252.7 220.43 252.81 220.85 254.61 219.97 254.73 218.97 255.65 218.67 256.11 218.25 256.91 218.71 257.71 218.51 257.79 217.82 258.6 217.63 258.82 217.13 259.21 217.75 259.97 218.59 260.47 218.17 260.62 217.29 261.16 217.29 261.24 217.59 262.08 217.59 262.19 217.1 263.34 216.94 263.95 216.33 264.41 215.91 264.53 216.48 264.87 216.02 265.41 216.18 266.25 215.79 265.87 215.14 266.29 214.53 266.64 213.46 266.18 212.43 266.68 212.58 267.02 212.04 268.28 211.85 268.4 212.31 269.36 212.31 269.58 211.12 270.08 211.12 270.24 210.32 270.69 210.28 270.77 210.7 271.08 210.51 271.69 209.59 272.26 210.28 272.42 209.25 272.99 209.17 273.38 208.37 272.5 208.18 271.77 208.44 270.5 207.49 272.19 207.41 272.95 206.34 273.34 206.72 273.87 206.22 275.25 207.06 275.63 205.99 274.79 205.72 274.45 205.23 274.6 204.57 275.63 205.3 276.21 204.61 276.09 204.35 275.4 204.35 275.25 203.43 274.71 203.01 275.44 202.81 275.83 203.31 276.32 203.31 276.67 203.81 276.71 202.97 275.83 202.32 275.9 201.51 276.44 201.51 276.78 200.9 277.55 201.59 277.55 202.28 278.08 202.28 278.62 203.12 278.7 201.9 278.31 201.17 277.82 201.17 277.63 200.59 278.31 200.4 278.44 199.73 277.6 199.46 278.76 198.49 278.19 197.92 277.41 197.97 277.03 198.36 277.2 197.57 278.25 196.85 279.92 196.11 279.39 195.54 278.77 196.11 277.55 195.04 278.62 195.04 277.93 194.12 277.13 194.04 277.66 193.59 277.24 193.05 277.89 193.2 278.08 192.36 278.39 192.44 278.93 192.36 278.85 193.36 279.5 193.36 280.77 192.02 280.84 191.4 281.99 191.48 281.3 190.64 280.54 190.56 280.77 189.68 281.45 190.41 282.3 189.99 282.26 189.11 282.6 188.72 282.18 188.15 282.26 187.46 282.83 187.08 282.45 186.46 282.45 185.93 281.48 185.37 282.87 185.81 283.44 185.35 284.21 183.56 285.03 183.44 285.2 184.26 285.47 184.63 285.66 183.62 286.36 183.16 285.81 182.22 284.86 182.15 284.42 181.73 284.84 181.38 285.52 181.52 286.1 180.98 285.64 180.49 285.01 180.16 285.7 179.53 286.04 179.61 286.17 179.19 285.62 178.67 283.96 178.75 284.05 178.29 285.12 177.37 286.1 177.62 286.4 177.39 286.54 176.88 287.15 177.2 287.2 177.56 287.83 177.07 287.53 176.44 287.39 174.94 286.86 174.59 286.24 175.21 286.43 175.47 286.43 175.93 285.36 175.7 284.06 176.81 283.37 176.7 283.37 175.78 284.75 175.51 287.01 173.41 286.86 173.1 285.86 173.1 285.44 172.56 285.17 173.02 283.52 170.92 282.33 170.72 280.77 172.07 279.96 171.8 278.93 170.3 277.89 170.53 276.86 171.38 276.55 172.26 276.67 171.07 277.82 170.11 278.47 170.15 279.16 169.65 280.38 170.27 281.26 169.84 281.34 168.96 281.84 168.5 282.45 168.58 283.64 167.2 285.02 167.05 285.05 166.32 283.83 164.33 281.23 162.72 279.54 161.76 277.51 159.77 276.52 159.74 274.87 160.88 274.06 160.69 272.76 159.5 272.72 158.97 272.19 158.74 271.04 159.2 269.74 159.05 268.63 159.43 267.21 161.15 268.4 158.85 269.32 158.4 269.93 158.59 270.58 158.59 270.85 158.28 271.61 158.59 272.95 158.05 273.57 159.58 274.22 160.12 275.21 160.12 275.86 159.24 277.47 159.47 278.58 160.23 279.35 160.27 280.34 161.31 281.8 160.46 283.87 161.23 284.44 160.88 283.71 159.43 283.06 159.16 281.88 157.71 281.88 157.32 281.34 156.9 280.31 156.98 279.31 156.56 277.97 154.64 277.93 153.15 276.06 151.77 275.94 150.28 274.95 149.93 275.44 148.75 275.1 148.67 273.57 145.49 270.77 144.07 270.04 144.5 270.04 143.77 267.44 142.54 267.06 142.58 267.02 140.05 267.44 138.33 267.02 137.18 267.29 135.73 267.63 135.96 268.36 135.73 269.28 134.23 269.78 134.54 270.69 133.47 269.74 132.89 269.28 132.28 270.08 131.4 271.61 131.48 271.65 130.4 272.92 130.17 272.8 129.37 271.65 128.64 272.8 128.49 273.64 129.14 273.87 128.53 274.79 128.56 275.71 127.8 276.36 127.8 277.43 126.38 277.82 127 278.28 126.42 278.39 126.96 279.62 127.8 280.88 126.73 280.88 126.27 280.08 126.11 279.96 125.04 280.61 124.7 281.15 124.7 280.31 123.51 280.38 122.94 281.49 122.59 280.84 122.29 279.65 122.52 278.24 122.55 278.31 122.13 277.2 122.17 276.78 122.63 273.57 122.75 272.92 122.17 272.3 121.9 271.73 121.02 271.15 120.79 270.85 120.37 268.55 121.44 267.32 121.48 267.75 121.83 267.75 122.75 267.06 123.32 265.68 123.86 265.91 124.01 266.37 124.62 265.83 125.58 265.37 126 264.38 125.62 263.42 126.19 262.08 126.15 260.7 123.47 260.7 122.09 260.47 121.14 259.13 121.18 258.6 121.48 258.52 120.98 257.94 120.98 257.52 121.6 257.18 121.06 257.14 121.52 256.37 120.22 256.18 119.61 254.5 118.46 253.43 117.84 253.31 116.73 252.78 115.55 253.23 115.13 253.19 114.63 253.35 114.09 253.46 113.06 254.08 112.6 254.19 112.02 256.11 112.71 257.75 112.67 259.06 112.64 259.55 111.56 259.25 111.07 259.97 111.07 259.78 109.84 259.48 109.57 259.86 109 260.39 106.43 262.19 105.44 263.27 105.4 264.07 104.02 264.61 103.91 264.72 101.92 265.75 100.77 265.95 99.62 266.37 99.39 267.02 98.28 268.17 98.24 268.63 98.55 269.51 98.55 269.85 97.55 271.42 99.43 273.68 100.77 273.8 101.61 273.18 101.95 272.95 102.64 271.88 104.02 271.77 105.28 270.81 105.32 270.93 105.71 270.69 107.01 271.81 108.12 271.73 108.81 271.31 109 271.31 109.61 271.77 110.15 272.88 109.76 274.06 108.84 273.61 109.76 272.65 110.42 272.76 110.91 273.34 111.03 273.22 111.6 272.8 111.9 271.66 111.75 271.14 112.45 270.32 112.5 269.9 113.27 270.7 113.8 270.83 114.61 271.46 114.51 272.06 113.72 272.66 113.75 273.48 112.51 274.91 111.89 275.06 111.49 274.64 110.49 275.9 109.53 278.12 107.85 278.77 107.93 278.97 106.89 280.12 106.89 281.45 105.94 281.99 106.39 282.57 106.2 283.68 106.13 285.13 104.44 285.5 105.38 285.62 105.37 288.1 104.22 302.86 93.85 304.17 86.1 308.56 82.63 308.77 82.1 308.77 81.52 308.38 81.27 308.21 80.4 308.26 80.01 308.85 79.66 310.06 79.79 310.4 79.7 310.42 78.82 310.27 78.31 310.31 77.63 310.57 77.16 310.53 76.24 310.46 75.34 309.87 74.91 309.87 73.17 309.76 72.33 309.65 71.1 309.69 70.18 309.03 69.32 308.7 68.7 308.47 67.95 307.28 66.1 306.91 65.26 307.13 64.8 307.75 64.4 308.34 64.34 308.82 63.7 309.03 63.02 309.96 61.58 310.36 61.48 311.17 61.69 311.8 61.94 315.03 62.52 315.52 62.68 316.09 62.68 316.49 62.18 316.36 61.43 316.05 60.87 315.98 60.34 316.16 59.95 315.98 59.42 315.85 58.85 316.29 57.85 316.62 57.48 316.45 56.69 316.16 56.18 316.31 55.89 317 55.54 316.74 55.06 316.74 54.5 316.42 53.97 316.62 53.29 317.11 52.92 317.11 52.52 316.83 51.99 316.45 50.95 316.38 49.76 316.71 49.63 316.93 49.41 316.89 49.02 316.67 48.67 316.73 48.11 316.27 47.8 315.96 47.34 316.25 46.61 316.32 45.77 316.09 45.51 315.65 44.89 315.65 44.43 316.34 43.59 317.11 43.44 317.31 43.05 317.35 42.17 317.57 41.11 316.94 40.75"/><polygon class="cls-3" points="282.62 161.48 281.39 161.28 281.28 161.68 281.89 162.3 282.96 162.32 284.04 162.8 283.91 161.72 283.07 161.77 282.62 161.48"/><polygon class="cls-3" points="291.23 202.51 290.9 202.51 290.36 201.38 289.23 200.97 288.57 201.34 288.68 202.03 287.77 202.36 286.67 203.6 285.65 205.35 285.9 205.83 285.72 206.52 285.29 206.92 284.19 208.85 283.64 210.86 283.28 211.15 283.61 211.63 283.64 213.6 283.79 215.64 284.3 215.97 284.45 216.55 284.23 216.63 284.19 217.25 284.74 218.08 285.29 218.23 285.43 218.89 286.86 219.36 287.58 220.46 287.51 221.62 287.58 222.46 288.31 222.21 289.04 222.46 288.82 221.44 289.08 220.24 288.57 218.74 289.41 217.61 290.68 215.68 290.72 214.44 291.08 214.07 290.61 213.89 290.9 211.96 291.01 210.61 290.79 209.15 291.34 208.09 291.6 205.46 291.93 204.11 292.29 204.04 292.11 203.16 291.23 202.51"/><polygon class="cls-3" points="268.27 213.46 268.42 213.94 269.31 213.97 269.66 213.68 269.04 213.08 268.27 213.46"/><polygon class="cls-3" points="288.88 171.87 287.92 171.29 287.33 171.36 286.91 171.2 287.15 171.89 288.15 172.2 288.87 172.7 288.88 171.87"/></g></g><g class="cls-2"><path d="M168.51,158.5A48,48,0,0,1,133.93,144c-9.44-9.83-13.22-23.85-11.24-41.68,1.89-17,10-31.95,18.85-47,2-3.33,4-6.71,6-10,7.66-12.64,15.55-25.65,20.9-39.74A211,211,0,0,1,180.3,24.2c1.91,3.23,3.89,6.56,5.92,9.8,6.84,10.88,14,22.55,19.31,35.16,12.4,29.25,12.3,53-.32,70.52A44.76,44.76,0,0,1,169,158.5Z"/><path d="M174.22,18.3c2.79,4.51,7.9,11.53,10.68,16.2,1.68,2.8,3.42,5.69,5.19,8.52,3.73,6,7.52,12.2,10.89,18.68,2.05,4,4,8,5.63,12.12,8.31,20.37,9.45,38.2,4.11,53.59-1.61,4.63-2.17,3.93-3.51,6.18-7.47,12.55-18.76,21.51-33.51,23.14-.07,0-.49,0-.56.06-13.73,1.39-27.1-3.88-34.09-15.51-7.22-12-6.21-26.21-2.39-42.48,3.24-13.75,9.69-26.11,16.71-38.57,1.58-2.79,3.2-5.63,4.76-8.4C164.13,41.21,170.09,30.24,174.22,18.3Z"/><path d="M180,31c1.2,3.13,7.62,10.74,9.49,13.83,1.46,2.39,3,4.82,4.46,7.24,3.21,5.16,6.39,10.5,9.14,16,1.7,3.41,3.25,6.89,4.6,10.43C214,94.84,215,110.13,211,124.41c-1.72,6-1.07,1.6-1.76,3.09C203,141.07,193.36,151.87,178.35,155c-.13,0-.45.08-.58.12-14.3,2.78-28.5-2.42-33.59-16.55s.48-28.57,6.46-43.28C154.9,84.77,160,75,165.21,65.1c1.19-2.26,2.37-4.55,3.51-6.82A163.32,163.32,0,0,0,180,31Z"/><path d="M211.22,121.41c-3.44,15.16-12.95,27.22-28.21,31.78-15.06,4.49-30.55-.55-33.7-17.42-3-16.28,6.66-31.21,15.3-44.08,10.5-15.64,17.15-29.69,21.17-48.06-.39,1.75,7.36,9.95,8.31,11.47a186,186,0,0,1,11.12,19.31c7,15,9.71,30.74,6,47C209.52,128.88,211.37,120.73,211.22,121.41Z"/></g><path class="cls-4" d="M167,157.76a48.06,48.06,0,0,1-34.58-14.46c-9.44-9.84-13.22-23.86-11.24-41.69,1.89-17,10-31.95,18.85-47,2-3.32,4-6.71,6-10C153.71,32,161.59,19,167,4.89a211,211,0,0,1,11.86,18.56c1.91,3.23,3.89,6.57,5.92,9.81,6.84,10.87,14,22.54,19.31,35.15,12.4,29.25,12.3,53-.32,70.53a44.75,44.75,0,0,1-36.17,18.81Z"/><path class="cls-5" d="M172.73,17.56c2.79,4.51,7.9,11.52,10.68,16.19,1.68,2.81,3.42,5.7,5.19,8.53,3.73,6,7.52,12.2,10.89,18.68,2,3.94,3.95,8,5.63,12.12,8.31,20.36,9.45,38.2,4.11,53.58-1.61,4.63-2.17,3.94-3.51,6.19C198.25,145.39,187,154.36,172.21,156c-.07,0-.49,0-.56.06-13.73,1.4-27.1-3.87-34.09-15.5-7.22-12-6.21-26.21-2.39-42.48,3.24-13.75,9.69-26.11,16.71-38.57,1.58-2.79,3.2-5.63,4.76-8.41C162.64,40.47,168.6,29.49,172.73,17.56Z"/><path class="cls-6" d="M178.51,30.22c1.2,3.13,7.62,10.75,9.49,13.83,1.46,2.39,3,4.83,4.46,7.25,3.21,5.16,6.39,10.5,9.14,16,1.7,3.42,3.25,6.89,4.6,10.43,6.29,16.35,7.34,31.64,3.28,45.92-1.72,6-1.07,1.61-1.76,3.09-6.24,13.58-15.85,24.37-30.86,27.46-.13,0-.45.08-.58.12-14.3,2.79-28.5-2.42-33.59-16.55s.48-28.57,6.46-43.28c4.26-10.48,9.37-20.26,14.57-30.15,1.19-2.26,2.37-4.55,3.51-6.82A163,163,0,0,0,178.51,30.22Z"/><path class="cls-7" d="M209.73,120.66c-3.44,15.16-12.95,27.22-28.21,31.78-15.06,4.5-30.55-.54-33.7-17.42-3-16.28,6.66-31.2,15.3-44.07,10.5-15.64,17.15-29.7,21.17-48.06-.39,1.74,7.36,10,8.31,11.47a184,184,0,0,1,11.12,19.31c7,15,9.71,30.73,6,47C208,128.14,209.88,120,209.73,120.66Z"/><g class="cls-8"><path class="cls-9" d="M167,157.76a48.06,48.06,0,0,1-34.58-14.46c-9.44-9.84-13.22-23.86-11.24-41.69,1.89-17,10-31.95,18.85-47,2-3.32,4-6.71,6-10C153.71,32,161.59,19,167,4.89a211,211,0,0,1,11.86,18.56c1.91,3.23,3.89,6.57,5.92,9.81,6.84,10.87,14,22.54,19.31,35.15,12.4,29.25,12.3,53-.32,70.53a44.75,44.75,0,0,1-36.17,18.81Z"/><path class="cls-10" d="M172.73,17.56c2.79,4.51,7.9,11.52,10.68,16.19,1.68,2.81,3.42,5.7,5.19,8.53,3.73,6,7.52,12.2,10.89,18.68,2,3.94,3.95,8,5.63,12.12,8.31,20.36,9.45,38.2,4.11,53.58-1.61,4.63-2.17,3.94-3.51,6.19C198.25,145.39,187,154.36,172.21,156c-.07,0-.49,0-.56.06-13.73,1.4-27.1-3.87-34.09-15.5-7.22-12-6.21-26.21-2.39-42.48,3.24-13.75,9.69-26.11,16.71-38.57,1.58-2.79,3.2-5.63,4.76-8.41C162.64,40.47,168.6,29.49,172.73,17.56Z"/><path class="cls-11" d="M178.51,30.22c1.2,3.13,7.62,10.75,9.49,13.83,1.46,2.39,3,4.83,4.46,7.25,3.21,5.16,6.39,10.5,9.14,16,1.7,3.42,3.25,6.89,4.6,10.43,6.29,16.35,7.34,31.64,3.28,45.92-1.72,6-1.07,1.61-1.76,3.09-6.24,13.58-15.85,24.37-30.86,27.46-.13,0-.45.08-.58.12-14.3,2.79-28.5-2.42-33.59-16.55s.48-28.57,6.46-43.28c4.26-10.48,9.37-20.26,14.57-30.15,1.19-2.26,2.37-4.55,3.51-6.82A163,163,0,0,0,178.51,30.22Z"/><path class="cls-12" d="M209.73,120.66c-3.44,15.16-12.95,27.22-28.21,31.78-15.06,4.5-30.55-.54-33.7-17.42-3-16.28,6.66-31.2,15.3-44.07,10.5-15.64,17.15-29.7,21.17-48.06-.39,1.74,7.36,10,8.31,11.47a184,184,0,0,1,11.12,19.31c7,15,9.71,30.73,6,47C208,128.14,209.88,120,209.73,120.66Z"/></g></svg>