<svg id="Layer_1" data-name="Layer 1" xmlns="http://www.w3.org/2000/svg" viewBox="0 0 959.83 395"><defs><style>.cls-1,.cls-29{fill:#fff;}.cls-1{opacity:0.6;}.cls-2{font-size:22.25px;letter-spacing:-0.02em;}.cls-2,.cls-5{fill:#003b7e;}.cls-2,.cls-30{font-family:Gotham-Bold, Gotham;font-weight:700;}.cls-3{letter-spacing:-0.11em;}.cls-4{fill:#ffe500;}.cls-11,.cls-13,.cls-15,.cls-16,.cls-21,.cls-23,.cls-28,.cls-6{font-size:17.57px;font-family:Gotham-Light, Gotham;font-weight:300;}.cls-12,.cls-6{letter-spacing:-0.02em;}.cls-7{letter-spacing:-0.04em;}.cls-8{letter-spacing:-0.05em;}.cls-9{letter-spacing:-0.05em;}.cls-10,.cls-15{letter-spacing:-0.03em;}.cls-11{letter-spacing:-0.03em;}.cls-13,.cls-17{letter-spacing:-0.02em;}.cls-14{letter-spacing:-0.05em;}.cls-16{letter-spacing:-0.01em;}.cls-18{fill:#e8da9a;}.cls-19{fill:#f7e9b0;}.cls-20{letter-spacing:-0.03em;}.cls-21,.cls-24{letter-spacing:-0.02em;}.cls-22{letter-spacing:-0.03em;}.cls-23{letter-spacing:-0.03em;}.cls-25{letter-spacing:-0.04em;}.cls-26,.cls-28{letter-spacing:-0.02em;}.cls-27{letter-spacing:-0.04em;}.cls-30{font-size:39.98px;letter-spacing:-0.02em;}</style></defs><path class="cls-1" d="M551.56,118H959.83a0,0,0,0,1,0,0V395a0,0,0,0,1,0,0H551.56a50.86,50.86,0,0,1-50.86-50.86V168.86A50.86,50.86,0,0,1,551.56,118Z" transform="translate(1460.53 513) rotate(-180)"/><text class="cls-2" transform="translate(692.33 204.36)">VEGE<tspan class="cls-3" x="62.18" y="0">T</tspan><tspan x="74.15" y="0">ABLES</tspan></text><circle class="cls-4" cx="766.51" cy="118.14" r="55.63"/><path class="cls-5" d="M777.83,87a9.49,9.49,0,0,0-8.78,5.58,9,9,0,0,0-4.31-.81,8.75,8.75,0,0,0-1.81.29,9.1,9.1,0,0,0-3.55,1.87,9.49,9.49,0,0,0-2.38-.62,10.26,10.26,0,0,0-11.19,7.27h0a2.09,2.09,0,0,0-.36-.08,3,3,0,0,0-2.64,1,4.37,4.37,0,0,0-.59.9A13.37,13.37,0,0,0,740,99.6a5.92,5.92,0,0,0-2.18-1.38,3.33,3.33,0,0,0-1.26-.15h0a3,3,0,0,0-2.72,2.39A5.45,5.45,0,0,0,734,103a15.72,15.72,0,0,0,1.37,3.44,3.64,3.64,0,0,0-3.27,1.74,5.76,5.76,0,0,0,.67,6.11c-.08,0-.19,0-.27,0a3,3,0,0,0-2.18,1.79c-.62,1.69.19,3.36,1.34,4.67a13,13,0,0,0,1.6,1.45,3,3,0,0,0-2,1.7,4.45,4.45,0,0,0,1,4.32,3,3,0,0,0,1.38,5.63h1.47v4.93a10.55,10.55,0,0,0,10.55,10.56h40.95a10.55,10.55,0,0,0,10.55-10.47h0v-5h1.47a3,3,0,0,0,0-6h-.25a9.59,9.59,0,0,0,.75-2.67,12.6,12.6,0,0,0,2.51-3,9.48,9.48,0,0,0-3-12.66,10,10,0,0,0-11.61-11.84,9.52,9.52,0,0,0-6.94-10.41,9,9,0,0,0-1.9-.3l-.41,0Zm-.08,1.51a8,8,0,0,1,7.72,9.66,10.61,10.61,0,0,0-1.53.72,10.2,10.2,0,0,0-1.64,1.18h0a.8.8,0,0,0-.27.53.83.83,0,0,0,.19.56.78.78,0,0,0,.54.25.75.75,0,0,0,.55-.2,8.83,8.83,0,0,1,1.39-1,8.46,8.46,0,0,1,12.42,9.42h0a.75.75,0,0,0,.25.9l0,0h0l0,0a8,8,0,0,1,2.91,10.89,11.87,11.87,0,0,1-1.18,1.57,9.08,9.08,0,0,0-.68-2.53,11.46,11.46,0,0,0-4.38-5,2,2,0,0,1,1-1.46,2.38,2.38,0,0,1,2.07-.21h0a.76.76,0,0,0,.54-1.42,3.83,3.83,0,0,0-3.41.34,3.61,3.61,0,0,0-1.54,2,12,12,0,0,0-4-1,8.26,8.26,0,0,0-1,0,3.38,3.38,0,0,0,0-.45,3.5,3.5,0,0,0-.48-1.57,11.61,11.61,0,0,0,2.64-.42,5.66,5.66,0,0,0,2.4-1.17,1.81,1.81,0,0,0-.86-3.23,4.71,4.71,0,0,0-1.82.05,4.84,4.84,0,0,0,.5-1.72,2,2,0,0,0-.57-1.46h0a.71.71,0,0,0-.31-.35h0v0h0a.77.77,0,0,0-.42-.08,2,2,0,0,0-1.55.24,4.86,4.86,0,0,0-1.24,1.3,4.89,4.89,0,0,0-.87-1.61,2,2,0,0,0-1.9-.64h0a2,2,0,0,0-1.32,1.51,5.53,5.53,0,0,0,.19,2.67,12,12,0,0,0,1,2.49,2.7,2.7,0,0,0-.49,0,2.47,2.47,0,0,0-.47.11,9.28,9.28,0,0,0-1-2.29,9,9,0,0,0-5.47-4.2,9.63,9.63,0,0,0-1.81-.3,9,9,0,0,0-5,1.2h0a12.65,12.65,0,0,0-2.37,2,9.39,9.39,0,0,0-.91,1.13l-.16-.26c-.07-.12-.14-.24-.22-.36l0-.07a7.25,7.25,0,0,0-6.9-3.14,6.93,6.93,0,0,0-2.16.62,2.63,2.63,0,0,1-1.11-2.11,3,3,0,0,1,1.1-2.43h0a.77.77,0,0,0,.24-.85.76.76,0,0,0-.74-.5.72.72,0,0,0-.46.18,4.51,4.51,0,0,0-1.66,3.66,4.27,4.27,0,0,0,1.27,2.87,7.24,7.24,0,0,0-1.53,1.6,2.67,2.67,0,0,0-1.35-.88,2.71,2.71,0,0,0-2.53.79,13.16,13.16,0,0,0-.45-2.07,6,6,0,0,0-1.7-2.71.76.76,0,0,0,.15-.28,8.75,8.75,0,0,1,2.52-4h0a8.87,8.87,0,0,1,8.42-1.86,9.48,9.48,0,0,0-.81,1.18h0a.76.76,0,0,0,.85,1.13.79.79,0,0,0,.47-.37A7.43,7.43,0,0,1,760,95.4a.68.68,0,0,0,.12-.12A7.57,7.57,0,0,1,768.52,94v0h0a.73.73,0,0,0,.07.58.75.75,0,0,0,.46.36.78.78,0,0,0,.58-.08.7.7,0,0,0,.35-.47,8,8,0,0,1,7.77-5.91ZM779.58,94h0a.77.77,0,0,0-.67.39,7.91,7.91,0,0,1-4.83,3.71h0a.76.76,0,0,0-.48.34.81.81,0,0,0-.08.59.76.76,0,0,0,1,.53,9.45,9.45,0,0,0,5.74-4.41.76.76,0,0,0-.64-1.15Zm-16.79,3.46h0a.75.75,0,0,0-.73.68.76.76,0,0,0,.58.82,4.69,4.69,0,0,1,2.89,2.11.77.77,0,0,0,.46.35.74.74,0,0,0,.58-.09.76.76,0,0,0,.35-.47.81.81,0,0,0-.09-.57A6.27,6.27,0,0,0,763,97.48l-.23,0Zm-25.92,2.12a1.61,1.61,0,0,1,.51.09,4.69,4.69,0,0,1,1.61,1,14.79,14.79,0,0,1,2.81,3.92h0a.75.75,0,0,0,1.43-.37,2.39,2.39,0,0,1,.66-1.72,1.59,1.59,0,0,1,1.31-.54c1,.17,1.71,1.08,2.17,2.47A15,15,0,0,1,748,109h0s0,0,0,0h0a.76.76,0,0,0,.78.72.75.75,0,0,0,.74-.75.43.43,0,0,0,0,0h0a2.48,2.48,0,0,1,.65-1.78,1.29,1.29,0,0,1,1.24-.5,4.12,4.12,0,0,1,1,.89,7.21,7.21,0,0,0,.35,6.11h0a.41.41,0,0,0,0,.09v0a.26.26,0,0,0,.05.09l2,3.4a14.8,14.8,0,0,1,1.57,6.11c0,.44.08.88.14,1.32a24.12,24.12,0,0,1-8-9.58h0v0h0a8.65,8.65,0,0,0-1.36-2,3,3,0,0,0-1.21-.79,2.32,2.32,0,0,0-.79-.11l-.17,0a5.66,5.66,0,0,1-.33-1.46c0-.58.1-1,1-1.56h0a.66.66,0,0,0,.33-.74.67.67,0,0,0-.63-.51.69.69,0,0,0-.37.1,3.08,3.08,0,0,0-1.7,2.74,6.58,6.58,0,0,0,.4,1.9,2.7,2.7,0,0,0-1.19,1.88,5.74,5.74,0,0,0,.14,2.08,9.8,9.8,0,0,0-6.79,5.59,14.71,14.71,0,0,1-3.06-2.48c-1-1.11-1.42-2.15-1-3.13a1.56,1.56,0,0,1,1.12-.85,2.29,2.29,0,0,1,1.81.28h0l0,0a.76.76,0,0,0,1-.27.75.75,0,0,0-.22-1l0,0h0c-2.17-1.24-3-4.19-2-5.85a2.21,2.21,0,0,1,3-.68h0a.76.76,0,0,0,1.07-1,18.7,18.7,0,0,1-2-4.58,4.32,4.32,0,0,1-.1-1.82,1.44,1.44,0,0,1,.75-1,1.41,1.41,0,0,1,.78-.21Zm36.55,4.34a7.44,7.44,0,0,1,1.91.26,7.65,7.65,0,0,1,4.66,3.58,7.49,7.49,0,0,1,.89,2.21,7.59,7.59,0,0,0-1.13.94,6.46,6.46,0,0,0-4.74-5.54,4.81,4.81,0,0,0-1.35-.17,6.89,6.89,0,0,0-3.9,1.33,8.22,8.22,0,0,0-2.68,3.11l-.74-1.29a5.26,5.26,0,0,1,1.08-1.63,12.36,12.36,0,0,1,2.1-1.78,7.63,7.63,0,0,1,3.9-1Zm10.31.09s.14,0,.32.22a4.58,4.58,0,0,1,.8,1.77q.1.41.18.84h0a.75.75,0,0,0,.65.61.74.74,0,0,0,.78-.42c.12-.25.25-.5.38-.73a4.68,4.68,0,0,1,1.25-1.51c.31-.19.35-.15.43-.1s.14.06.13.42A4.7,4.7,0,0,1,788,107c-.13.23-.28.46-.44.69h0a.77.77,0,0,0,0,.89.75.75,0,0,0,.86.25l.81-.26a4.36,4.36,0,0,1,1.93-.18c.35.08.35.13.37.22s.05.16-.21.41a4.53,4.53,0,0,1-1.77.82,11.12,11.12,0,0,1-2.5.37,5.06,5.06,0,0,1-1.41-.17h0l-.13-.07-.13-.07a5.65,5.65,0,0,1-.85-1.13,11.47,11.47,0,0,1-.92-2.36,4.41,4.41,0,0,1-.18-1.94c.08-.36.15-.37.24-.39h.07Zm-24.51.54a5.71,5.71,0,0,1,4.63,2.55,2.76,2.76,0,0,1,.38,1.2,1.14,1.14,0,0,1-.38.91,1.27,1.27,0,0,1-1.71.27h0a.49.49,0,0,0-.13-.12h0l0,0a.76.76,0,0,0-1,1.08,1.48,1.48,0,0,1-2.44,1.39.67.67,0,0,0-.14-.19l0,0h0a.75.75,0,0,0-1.21.82,1.28,1.28,0,0,1-1.09,1.34,1.55,1.55,0,0,1-1.95-.66,5.73,5.73,0,0,1-.19-5.2.61.61,0,0,0,.07-.14,5.81,5.81,0,0,1,2.27-2.4h0a.72.72,0,0,0,.26-.14,5.74,5.74,0,0,1,2.74-.64Zm14.43,2a3.37,3.37,0,0,1,1,.12,5.12,5.12,0,0,1,3.7,5.93,29.39,29.39,0,0,0-1.74,2.73h0c-.45.8-.9,1.64-1.34,2.51a18.26,18.26,0,0,0-3.7-3.38A16.84,16.84,0,0,1,768,111a6.76,6.76,0,0,1,2.57-3.41,5.62,5.62,0,0,1,3.12-1.09Zm-8.28,3.17.64,1.11a16.08,16.08,0,0,0,4.64,4.83,15,15,0,0,1,3.87,3.74,76.3,76.3,0,0,0-3.36,8.48H759a10.77,10.77,0,0,1-1.09-4.6,16,16,0,0,0-1.76-6.69h0v0l-.71-1.23a4.05,4.05,0,0,0,1-.12,3.11,3.11,0,0,0,2-1.63,3.18,3.18,0,0,0,4.09-2.37,3.08,3.08,0,0,0,2.41-.92,2.69,2.69,0,0,0,.44-.58Zm17.78,1a3.19,3.19,0,0,1,1.57.56c.93.54,1.47,1,1.54,2.07a7.36,7.36,0,0,1-.76,3.16,2.18,2.18,0,0,0-.09.23c-.17.37-.35.77-.57,1.19l-2.31-1.34h0a.79.79,0,0,0-.37-.1.73.73,0,0,0-.75.55.75.75,0,0,0,.36.87l2.36,1.36-.17.29c-1,1.74-1.8,3.27-2.69,4.74L779,122.79a.77.77,0,0,0-1.16.41.76.76,0,0,0,.31.86l2.29,1.52a26,26,0,0,1-1.76,2.29h-5.93a76.33,76.33,0,0,1,3.23-8.05h0a.84.84,0,0,0,.13-.27c.09-.21.2-.41.3-.62l2.26,1.31h0a.76.76,0,0,0,.77-1.32l-2.33-1.34c.27-.52.54-1,.82-1.51a26,26,0,0,1,2.17-3.24l2.14,1.24h0a.78.78,0,0,0,.58.08.75.75,0,0,0,.54-.94.79.79,0,0,0-.36-.46l-1.84-1.06a4.07,4.07,0,0,1,1-.71,2.25,2.25,0,0,1,1-.26Zm-38,2.78a1.2,1.2,0,0,1,.33,0,1.69,1.69,0,0,1,.66.45,5.77,5.77,0,0,1,.78,1.2,11.63,11.63,0,0,1-1.82.93c-.4.16-.6.23-.8.3H744a6.08,6.08,0,0,1-.24-1.71c.08-.57.25-.85,1-1.13a1.12,1.12,0,0,1,.4-.1Zm42.7,1.71a9.92,9.92,0,0,1,9.26,5.88,7.62,7.62,0,0,1,.61,2.34,1.43,1.43,0,0,1-1.32-1.13h0a.77.77,0,0,0-1.36-.42h0l0,0a.67.67,0,0,0-.13.3.94.94,0,0,1-1.16.4c-.6-.16-.87-.62-.81-.94h0a.76.76,0,0,0-1.23-.8h0a.62.62,0,0,0-.14.18.93.93,0,0,1-1.24.11,1,1,0,0,1-.54-1.1.76.76,0,0,0-1-1.07.93.93,0,0,0-.15.13.92.92,0,0,1-1.22-.23,2,2,0,0,1-.5-1.62,14.58,14.58,0,0,0,.73-2.08Zm-40.24,1.24c2.34,4.76,5.64,7.58,9.21,10.22a8.49,8.49,0,0,0,.41,1.2h-4.41a18.29,18.29,0,0,1-7.68-7.86h0a.78.78,0,0,0-.09-.21,14.79,14.79,0,0,1-.73-1.93l.31-.12h0l.16-.06.81-.32a14.28,14.28,0,0,0,2-.93Zm-4.67,1.48c.16.57.35,1.12.56,1.66a6.82,6.82,0,0,0-5.84,6.76h0a6.64,6.64,0,0,0,.18,1.52h-1.49c-.05-.52-.09-1.14-.09-1.53a8.63,8.63,0,0,1,6.68-8.41Zm42.85,1.48a3.29,3.29,0,0,0,.47.59,2.69,2.69,0,0,0,2,.8,2.7,2.7,0,0,0,1.29,1.7,2.64,2.64,0,0,0,2.11.27,2.76,2.76,0,0,0,3.82,1,3,3,0,0,0,2.19,1.16h0s0,.07,0,.11a8.71,8.71,0,0,1-.93,2.82H780.66c.55-.71,1-1.4,1.48-2.1h0c1.11-1.74,2-3.49,3.13-5.44l.51-.91Zm-41.72,1.46a18.84,18.84,0,0,0,6.24,7H739.22a5.48,5.48,0,0,1,4.85-7Zm-9.59,2.63a2.32,2.32,0,0,1,.81.18,9.89,9.89,0,0,0-.37,2.67c0,.41,0,1,.07,1.52H733.9a.76.76,0,0,0-.17-.32c-1-1.1-1.42-2.15-1.06-3.13a1.58,1.58,0,0,1,1.13-.85,2,2,0,0,1,.68-.07Zm-.8,5.89h4.92a.64.64,0,0,0,.43,0h19.41a1.22,1.22,0,0,0,.27,0H771.5a.9.9,0,0,0,.4,0h26.77a1.47,1.47,0,0,1,0,2.93h-65a1.47,1.47,0,0,1,0-2.93Zm3,4.45h59v4.91h0v0a9,9,0,0,1-9,9H745.7a9,9,0,0,1-9-9Zm3.3,2.27h0a.7.7,0,0,0-.54.22.73.73,0,0,0-.23.54.76.76,0,0,0,.23.54.72.72,0,0,0,.54.21h9.94a.72.72,0,0,0,.54-.21.8.8,0,0,0,.23-.54.76.76,0,0,0-.23-.54.7.7,0,0,0-.54-.22Zm.08,3.56h0a.76.76,0,0,0,0,1.52H745a.76.76,0,0,0,0-1.52Z"/><text class="cls-6" transform="translate(635.03 246.5)">Articho<tspan class="cls-7" x="61.89" y="0">k</tspan><tspan x="70.94" y="0">es</tspan></text><polygon points="630.75 240.2 624.76 243.66 624.76 236.74 630.75 240.2"/><text class="cls-6" transform="translate(793.73 246.5)">Aspa<tspan class="cls-7" x="42.88" y="0">r</tspan><tspan x="49.12" y="0">agus</tspan></text><polygon points="789.45 240.2 783.46 243.66 783.46 236.74 789.45 240.2"/><text class="cls-6" transform="translate(635.03 271.57)">Bok Ch<tspan class="cls-8" x="60.66" y="0">o</tspan><tspan x="71.03" y="0">y</tspan></text><polygon points="630.75 265.26 624.76 268.72 624.76 261.8 630.75 265.26"/><text class="cls-6" transform="translate(793.73 271.57)">B<tspan class="cls-9" x="12.33" y="0">r</tspan><tspan x="18.57" y="0">o</tspan><tspan class="cls-10" x="29.46" y="0">cc</tspan><tspan x="48.3" y="0">oli</tspan></text><polygon points="789.45 265.26 783.46 268.72 783.46 261.8 789.45 265.26"/><text class="cls-6" transform="translate(635.03 296.63)">Car<tspan class="cls-7" x="29.02" y="0">r</tspan><tspan x="35.26" y="0">ots</tspan></text><polygon points="630.75 290.33 624.76 293.79 624.76 286.87 630.75 290.33"/><text class="cls-6" transform="translate(793.73 296.63)">Cabbage</text><polygon points="789.45 290.33 783.46 293.79 783.46 286.87 789.45 290.33"/><text class="cls-6" transform="translate(635.03 321.7)">Caulifl<tspan class="cls-9" x="50.84" y="0">ow</tspan><tspan x="75.63" y="0">er</tspan></text><polygon points="630.75 315.39 624.76 318.85 624.76 311.93 630.75 315.39"/><text class="cls-11" transform="translate(793.73 321.7)">C<tspan class="cls-12" x="12.44" y="0">elery</tspan></text><polygon points="789.45 315.39 783.46 318.85 783.46 311.93 789.45 315.39"/><text class="cls-6" transform="translate(635.03 346.76)">Chi<tspan class="cls-10" x="27.05" y="0">c</tspan><tspan x="36.47" y="0">ory</tspan></text><polygon points="630.75 340.45 624.76 343.92 624.76 337 630.75 340.45"/><text class="cls-13" transform="translate(793.73 346.76)">Endi<tspan class="cls-14" x="37.1" y="0">v</tspan><tspan x="46.45" y="0">e</tspan></text><polygon points="789.45 340.45 783.46 343.92 783.46 337 789.45 340.45"/><text class="cls-15" transform="translate(635.03 371.83)">F<tspan class="cls-12" x="10.91" y="0">ennel</tspan></text><polygon points="630.75 365.52 624.76 368.98 624.76 362.06 630.75 365.52"/><text class="cls-16" transform="translate(793.73 371.83)">G<tspan class="cls-17" x="13.6" y="0">arlic</tspan></text><polygon points="789.45 365.52 783.46 368.98 783.46 362.06 789.45 365.52"/><rect class="cls-18" x="904.39" y="236.88" width="15.81" height="135.28"/><rect class="cls-19" x="909.07" y="240.94" width="6.44" height="50.99" rx="3.22"/><path class="cls-1" d="M50.86,118H453.27a0,0,0,0,1,0,0V395a0,0,0,0,1,0,0H50.86A50.86,50.86,0,0,1,0,344.14V168.86A50.86,50.86,0,0,1,50.86,118Z"/><text class="cls-2" transform="translate(153.11 204.36)">FRUI<tspan class="cls-20" x="53.21" y="0">T</tspan><tspan x="66.85" y="0">S</tspan></text><circle class="cls-4" cx="194.03" cy="118.14" r="55.63"/><path class="cls-5" d="M190.21,92.19a3.11,3.11,0,1,0-2.18-.91,3.08,3.08,0,0,0,2.18.91Zm0-4.57a1.48,1.48,0,1,1-1.48,1.48,1.47,1.47,0,0,1,1.48-1.48Z"/><path class="cls-5" d="M199.86,97.82a3.11,3.11,0,1,0-2.18-.91,3.06,3.06,0,0,0,2.18.91Zm0-4.57a1.48,1.48,0,1,1-1.48,1.48,1.47,1.47,0,0,1,1.48-1.48Z"/><path class="cls-5" d="M161.26,98.62a3.07,3.07,0,0,0,2.18-.9,3.08,3.08,0,0,0,0-4.37,3.08,3.08,0,1,0-2.18,5.27Zm0-4.57a1.48,1.48,0,0,1,1,2.53,1.48,1.48,0,1,1-1-2.53Z"/><path class="cls-5" d="M187.12,122.07a3.1,3.1,0,0,0,.91,2.19,3.09,3.09,0,0,0,4.36,0,3.08,3.08,0,0,0,0-4.37,3.09,3.09,0,0,0-5.27,2.18Zm4.57,0a1.48,1.48,0,1,1-1.48-1.48,1.53,1.53,0,0,1,1,.43,1.49,1.49,0,0,1,.44,1Z"/><path class="cls-5" d="M205.31,105.85a3.08,3.08,0,0,0,1.83.6,1.85,1.85,0,0,0,.47,0,3,3,0,0,0,2-1.23,2.85,2.85,0,0,0,.23-.37,7.26,7.26,0,0,0,.93.06,10.9,10.9,0,0,0,8.4-4.76,11.39,11.39,0,0,0,2.09-9.25,3.28,3.28,0,0,0,.4-.43,4.09,4.09,0,0,0-.86-5.63,3.93,3.93,0,0,0-5.55.72,12,12,0,0,0-8.66,5c-2.42,3.33-3.1,7.71-1.68,10.7h0a3,3,0,0,0,.41,4.61Zm2.54-14.35a10.19,10.19,0,0,1,7.72-4.36c.25,0,.5-.06,1-.69h0a2.34,2.34,0,0,1,3.3-.37,2.47,2.47,0,0,1,.52,3.4,1.7,1.7,0,0,1-.19.19,1.94,1.94,0,0,0-.56.71l-.05.17a1.09,1.09,0,0,0,0,.36,9.77,9.77,0,0,1-1.66,8.25c-2.18,3-5.63,4.59-8.35,4a.81.81,0,0,0-.93.54.61.61,0,0,0-.05.12,1.48,1.48,0,1,1-2.62-1.3,1.52,1.52,0,0,1,.39-.37.3.3,0,0,0,.08-.08.67.67,0,0,0,.15-.14l.05-.11a.47.47,0,0,0,.08-.3v-.18s0-.11-.06-.15a.58.58,0,0,0,0-.14c-1.48-2.41-.92-6.5,1.26-9.51Z"/><path class="cls-5" d="M207.53,98.91h.13a.81.81,0,0,0,.81-.68,11.06,11.06,0,0,1,5.63-7.75.81.81,0,0,0-.74-1.43A12.69,12.69,0,0,0,206.92,98a.81.81,0,0,0,.61.94Z"/><path class="cls-5" d="M172.1,134.72a.81.81,0,0,0-1.4.8c.25.44.52.88.8,1.3h0a.81.81,0,1,0,1.35-.89c-.26-.4-.51-.8-.75-1.21Z"/><path class="cls-5" d="M181.5,143.43c-.52-.26-1.05-.55-1.55-.85s-1.2-.76-1.76-1.16h0a23.24,23.24,0,0,1-2.73-2.32l-.31-.3h0a6.28,6.28,0,0,1-.49-.54.81.81,0,0,0-1.14-.09.8.8,0,0,0-.09,1.13,6.28,6.28,0,0,0,.61.66l.28.28a23.22,23.22,0,0,0,2.93,2.49,21.8,21.8,0,0,0,1.88,1.24c.65.39,1.08.63,1.61.91h0a.74.74,0,0,0,.63.08.79.79,0,0,0,.53-1.05.77.77,0,0,0-.44-.46Z"/><path class="cls-5" d="M212.37,113.3a22.56,22.56,0,0,1-4.62,3.87.8.8,0,0,0,.86,1.33,23.42,23.42,0,0,0,4.95-4.15.79.79,0,0,0,0-1.17.77.77,0,0,0-.6-.2.8.8,0,0,0-.57.29Z"/><path class="cls-5" d="M205,118.72a11.53,11.53,0,0,0-5.52,6.57.77.77,0,0,0,.05.61.83.83,0,0,0,.48.4.8.8,0,0,0,1-.53,10,10,0,0,1,4.77-5.63.81.81,0,1,0-.8-1.4Z"/><path class="cls-5" d="M229.45,105.48c-.13-.06-3.22-1.57-6-.53a5.53,5.53,0,0,0-.89.41,22.39,22.39,0,0,0,.81-2.11h0a.81.81,0,1,0-1.53-.51,25.72,25.72,0,0,1-2.74,5.63,6.54,6.54,0,0,0-8.26,1.37l-1.65,1.83a22.6,22.6,0,0,1-5.77,4.57l-1.7.94a11.73,11.73,0,0,0-5.63,6.66,11.55,11.55,0,0,0-.47,2.8H182.11a11.65,11.65,0,0,0,1.37-12c-2.35-5.13-6.07-7.79-9.94-7.13a7.4,7.4,0,0,0-3.31,1.79l-.58.45h0a27.43,27.43,0,0,1-2.1-6.44.81.81,0,1,0-1.6.3c.16.81.37,1.67.6,2.49h0a7.35,7.35,0,0,0-1-.65c-2.82-1.49-6.26-.36-6.43-.31h0a.8.8,0,0,0-.52,1c0,.14,1,3.62,3.87,5.11a6.86,6.86,0,0,0,1.33.5l-.2.12c-3.88,2.86-3.21,8.36-1.34,12.49a12,12,0,0,0,1.61,2.54.81.81,0,0,0-.27.57c0,14.68,11.58,24.93,28.15,24.93s28.15-10.25,28.15-24.93a.76.76,0,0,0-.24-.57.8.8,0,0,0-.56-.24h-.58v-.1h0a22.35,22.35,0,0,1,2.11-7l1.08-2.19a6.45,6.45,0,0,0-.09-6.23,8.44,8.44,0,0,0,1.74.2,6.62,6.62,0,0,0,2.16-.36,8.54,8.54,0,0,0,4.29-4.29.82.82,0,0,0-.38-1ZM218.3,128.15a24.87,24.87,0,0,1-.3,3.22H165.54a26.6,26.6,0,0,1-.32-3.22Zm-57.8-21.8a5.73,5.73,0,0,1,7.14,3.76,5.82,5.82,0,0,1-7.14-3.76Zm4.11,6.69h0a6,6,0,0,1,2.53-.8,9,9,0,0,0,2.22-.56,9.61,9.61,0,0,0,1.88-1.22,6.11,6.11,0,0,1,2.57-1.46c4.62-.8,7.45,4.56,8.2,6.22h0a10,10,0,0,1-2.08,11.32H165.71a.73.73,0,0,0-.15-.25,10.18,10.18,0,0,1-1.83-2.71c-1.64-3.59-2.27-8.24.88-10.54Zm27.15,37.63c-13.63,0-23.42-6.91-25.91-17.69h51.82c-2.49,10.78-12.28,17.69-25.91,17.69Zm28.54-34.18-1.08,2.19h0a24,24,0,0,0-2.27,7.55v.31H197.21a9.37,9.37,0,0,1,.44-2.29,10.1,10.1,0,0,1,4.82-5.74l1.7-.94h0a24,24,0,0,0,6.18-4.9l1.65-1.83h0a5,5,0,0,1,8.26,5.63Zm4.69-7.24a6.29,6.29,0,0,1-4-.15,5.33,5.33,0,0,1,7-2.51,6.21,6.21,0,0,1-3,2.7Z"/><path class="cls-5" d="M165.6,118.5a.91.91,0,0,0,.8-1,10.06,10.06,0,0,1,.12-1.9.81.81,0,0,0-.65-.92.85.85,0,0,0-.62.15.84.84,0,0,0-.32.54,10.6,10.6,0,0,0-.13,2.18.93.93,0,0,0,.8.92Z"/><path class="cls-5" d="M168,126.05a.82.82,0,0,0,1.14.1.8.8,0,0,0,.28-.55.78.78,0,0,0-.19-.59,10.2,10.2,0,0,1-1.51-2.38,16.6,16.6,0,0,1-1-2.85.79.79,0,0,0-.95-.54.8.8,0,0,0-.61.92,17.72,17.72,0,0,0,1.09,3.17,11.48,11.48,0,0,0,1.75,2.72Z"/><path class="cls-5" d="M191.3,116.51a8.68,8.68,0,0,0,2.27.3,7.89,7.89,0,0,0,4.35-1.27,8.13,8.13,0,0,0,3.57-5.63,10,10,0,0,0-7.16-11.11,8,8,0,0,0-10.2,6.59,10,10,0,0,0,7.17,11.12Zm.8-16.42h0a7.31,7.31,0,0,1,1.86.25,8.44,8.44,0,0,1,6,9.31,6.72,6.72,0,0,1-1.26,3,12.35,12.35,0,0,0-1.55-7.45,10.83,10.83,0,0,0-6.91-4.83,6.61,6.61,0,0,1,1.87-.27Zm-6.39,5.54a6.72,6.72,0,0,1,2-3.84h.09a8.87,8.87,0,0,1,7.95,4.27c1.48,2.3,1.61,5.89,1,8.28a6.56,6.56,0,0,1-5.07.61,8.38,8.38,0,0,1-4.74-3.53,8.49,8.49,0,0,1-1.25-5.79Z"/><path class="cls-5" d="M174.58,97.74a.71.71,0,1,1-1.22.72.71.71,0,0,1,1.22-.72"/><path class="cls-5" d="M178.29,99.28a.71.71,0,0,1-1.22.72.71.71,0,1,1,1.22-.72"/><path class="cls-5" d="M179.16,91.28a.71.71,0,0,1-1.22.72.71.71,0,0,1,1.22-.72"/><path class="cls-5" d="M180.23,96.25A.71.71,0,1,1,179,97a.71.71,0,0,1,1.22-.72"/><path class="cls-5" d="M176.52,94.72a.71.71,0,0,1-1.22.72.71.71,0,0,1,1.22-.72"/><path class="cls-5" d="M175.57,91.54a.71.71,0,0,1-1.22.72.71.71,0,0,1,1.22-.72"/><path class="cls-5" d="M171.83,94.69a.71.71,0,1,1-1.22.72.71.71,0,0,1,1.22-.72"/><path class="cls-5" d="M167.94,89.7l2.47.63c-2.85,2.41-3.57,5.36-1.87,8.24,1.46,2.46,6.52,4.88,9.21,5.32h0a4.22,4.22,0,0,0,4.65-2.76c.91-2.58,1.21-8.18-.25-10.63-1.65-2.78-4.47-3.63-7.77-2.41l.65-2.56a.81.81,0,0,0-1.56-.4l-.77,3-1-1.78a.83.83,0,0,0-.49-.43.78.78,0,0,0-.65.07.77.77,0,0,0-.38.53.81.81,0,0,0,.13.64l1.06,1.78-3-.76h0a.81.81,0,0,0-.4,1.56Zm12.87,1.61c1.09,1.85,1,6.79.11,9.27h0a2.57,2.57,0,0,1-1.13,1.38,2.6,2.6,0,0,1-1.75.33c-2.6-.42-7-2.7-8.08-4.55a4,4,0,0,1-.32-3.95A8.15,8.15,0,0,1,173,90.48a8.81,8.81,0,0,1,4.18-1.36,3.91,3.91,0,0,1,2.11.59,4,4,0,0,1,1.49,1.62Z"/><text class="cls-21" transform="translate(67.47 246.5)">Apple</text><polygon points="63.19 240.2 57.2 243.66 57.2 236.74 63.19 240.2"/><text class="cls-21" transform="translate(226.17 246.5)">Apri<tspan class="cls-22" x="35.47" y="0">c</tspan><tspan x="44.89" y="0">ots</tspan></text><polygon points="221.9 240.2 215.9 243.66 215.9 236.74 221.9 240.2"/><text class="cls-21" transform="translate(67.47 271.57)">Cherries</text><polygon points="63.19 265.26 57.2 268.72 57.2 261.8 63.19 265.26"/><text class="cls-23" transform="translate(226.17 271.57)">C<tspan class="cls-24" x="12.44" y="0">o</tspan><tspan class="cls-25" x="23.33" y="0">c</tspan><tspan class="cls-24" x="32.75" y="0">onuts</tspan></text><polygon points="221.9 265.26 215.9 268.72 215.9 261.8 221.9 265.26"/><text class="cls-6" transform="translate(67.47 296.63)">D<tspan class="cls-26" x="13.39" y="0">a</tspan><tspan class="cls-22" x="23.03" y="0">t</tspan><tspan x="29.44" y="0">es</tspan></text><polygon points="63.19 290.33 57.2 293.79 57.2 286.87 63.19 290.33"/><text class="cls-6" transform="translate(226.17 296.63)">Figs</text><polygon points="221.9 290.33 215.9 293.79 215.9 286.87 221.9 290.33"/><text class="cls-6" transform="translate(67.47 321.7)">F<tspan class="cls-27" x="11.17" y="0">r</tspan><tspan x="17.41" y="0">esh-cuts</tspan></text><polygon points="63.19 315.39 57.2 318.85 57.2 311.93 63.19 315.39"/><text class="cls-6" transform="translate(226.17 321.7)">G<tspan class="cls-27" x="13.42" y="0">r</tspan><tspan class="cls-24" x="19.66" y="0">apes</tspan></text><polygon points="221.9 315.39 215.9 318.85 215.9 311.93 221.9 315.39"/><text class="cls-6" transform="translate(67.47 346.76)">Kiwifruit</text><polygon points="63.19 340.45 57.2 343.92 57.2 337 63.19 340.45"/><text class="cls-23" transform="translate(226.17 346.76)">L<tspan class="cls-24" x="10.35" y="0">oqu</tspan><tspan class="cls-26" x="42.9" y="0">a</tspan><tspan class="cls-24" x="52.55" y="0">t</tspan></text><polygon points="221.9 340.45 215.9 343.92 215.9 337 221.9 340.45"/><text class="cls-21" transform="translate(67.47 371.83)">Nectarines</text><polygon points="63.19 365.52 57.2 368.98 57.2 362.06 63.19 365.52"/><text class="cls-28" transform="translate(226.17 371.83)">P<tspan class="cls-12" x="11.3" y="0">eaches</tspan></text><polygon points="221.9 365.52 215.9 368.98 215.9 362.06 221.9 365.52"/><rect class="cls-18" x="356.83" y="236.88" width="15.81" height="135.28"/><rect class="cls-19" x="361.52" y="240.94" width="6.44" height="50.99" rx="3.22"/><circle class="cls-4" cx="480.21" cy="128.84" r="128.84"/><circle class="cls-29" cx="480.21" cy="128.84" r="91.99"/><text class="cls-30" transform="translate(416.23 142.83)">0-5 °C</text><circle class="cls-5" cx="571.36" cy="128.84" r="14.35"/><path class="cls-4" d="M577.1,128.84l-.43-.49-6.52-7.24-1.08,1,6.08,6.76-6.08,6.75,1.08,1,6.52-7.25Z"/><circle class="cls-5" cx="389.14" cy="128.84" r="14.35"/><path class="cls-4" d="M383.4,128.84l.44-.49,6.52-7.24,1.08,1-6.08,6.76,6.08,6.75-1.08,1-6.52-7.25Z"/></svg>