<?xml version="1.0" encoding="UTF-8"?>
<svg id="Layer_2" data-name="Layer 2" xmlns="http://www.w3.org/2000/svg" viewBox="0 0 710.14 1025.27">
  <defs>
    <style>
      .cls-1, .cls-2, .cls-3 {
        fill: #fff;
      }

      .cls-4 {
        font-family: Gotham-Light, Gotham;
        font-size: 27px;
      }

      .cls-2 {
        font-size: 35px;
      }

      .cls-2, .cls-3 {
        font-family: GothamMedium, 'Gotham Medium';
      }

      .cls-5 {
        fill: #82ad0b;
      }

      .cls-6 {
        letter-spacing: -.04em;
      }

      .cls-7, .cls-8 {
        fill: #003b7e;
      }

      .cls-9 {
        fill: #e75433;
      }

      .cls-10 {
        stroke: #b5ad14;
      }

      .cls-10, .cls-11, .cls-12 {
        stroke-miterlimit: 10;
      }

      .cls-10, .cls-13 {
        fill: #b5ad14;
      }

      .cls-14 {
        letter-spacing: 0em;
      }

      .cls-15 {
        letter-spacing: 0em;
      }

      .cls-3 {
        font-size: 33px;
      }

      .cls-16 {
        fill: #ffe500;
        font-size: 24.21px;
        letter-spacing: -.01em;
      }

      .cls-16, .cls-8 {
        font-family: Gotham-Bold, Gotham;
      }

      .cls-17 {
        letter-spacing: -.03em;
      }

      .cls-8 {
        font-size: 47px;
      }

      .cls-18 {
        letter-spacing: -.02em;
      }

      .cls-11 {
        fill: none;
        stroke: #003b7e;
        stroke-width: 2px;
      }

      .cls-19 {
        letter-spacing: -.01em;
      }

      .cls-20 {
        letter-spacing: -.02em;
      }

      .cls-12 {
        stroke: #f37826;
      }

      .cls-12, .cls-21 {
        fill: #f37826;
      }

      .cls-22 {
        fill: #e29f27;
      }

      .cls-23 {
        letter-spacing: -.02em;
      }

      .cls-24 {
        letter-spacing: -.03em;
      }
    </style>
  </defs>
  <g id="Layer_1-2" data-name="Layer 1">
    <g>
      <text class="cls-8" transform="translate(81.38 39.95)"><tspan class="cls-18" x="0" y="0">F</tspan><tspan x="30.13" y="0">ood </tspan><tspan class="cls-14" x="138.37" y="0">R</tspan><tspan x="171.88" y="0">e</tspan><tspan class="cls-18" x="200.69" y="0">c</tspan><tspan class="cls-24" x="226.82" y="0">ov</tspan><tspan x="283.41" y="0">ery Hie</tspan><tspan class="cls-23" x="452.88" y="0">r</tspan><tspan x="471.36" y="0">a</tspan><tspan class="cls-19" x="499.18" y="0">r</tspan><tspan x="518.12" y="0">c</tspan><tspan class="cls-18" x="544.96" y="0">h</tspan><tspan x="573.53" y="0">y</tspan></text>
      <g>
        <path class="cls-5" d="M689.29,118.24H78.11c-16.03,0-26.05,18.53-18.03,33.36l61.37,113.53c3.72,6.88,10.59,11.12,18.03,11.12h488.44c7.44,0,14.31-4.24,18.03-11.12l61.37-113.53c8.01-14.82-2-33.36-18.03-33.36Z"/>
        <g>
          <text class="cls-2" transform="translate(192.62 199.04)"><tspan x="0" y="0">Reduce Wasted Food</tspan></text>
          <g>
            <rect class="cls-7" x="290.2" y="220.24" width="187" height="36"/>
            <text class="cls-16" transform="translate(307.37 247.06)"><tspan x="0" y="0">READ MORE</tspan></text>
          </g>
        </g>
        <g>
          <circle class="cls-1" cx="384.2" cy="118.24" r="42"/>
          <g>
            <path class="cls-5" d="M397.99,104.98c-.32-.21-.6-.39-.78-.52-3.07-2.16-6.27-1.17-9.37-.21-1.42,.44-2.87,.88-4.31,1.02-.2-1.66-.18-6.01,3.61-12.69,.28-.49,.11-1.12-.39-1.4-.49-.28-1.12-.11-1.4,.39-2.14,3.76-3.19,6.9-3.65,9.34-2.22-4.24-6.72-9.48-15.45-9.91-.27-.01-.54,.08-.75,.27-.2,.19-.32,.45-.33,.72-.15,5.1,1.59,8.85,5.46,11.48-.84,.19-1.67,.55-2.49,1.14-.92,.66-1.84,1.47-2.68,2.36,0,0-.01,.02-.02,.03-.01,.01-.03,.02-.04,.04-.04,.05-.08,.11-.11,.17,0,0,0,0,0,0-.04,.08-.07,.16-.08,.24,0,.02,0,.04-.01,.06-.01,.07-.02,.14-.01,.22,0,.01,0,.03,0,.04,0,.09,.03,.17,.06,.25,0,0,0,.02,0,.02,0,.01,.01,.02,.02,.03,.03,.07,.06,.13,.11,.19,.01,.01,.02,.03,.03,.04,.05,.06,.1,.12,.16,.17,.04,.03,3.65,2.95,5.91,8.25,3.03,7.12,2.22,14.85-2.41,23-.02,.04-.03,.07-.05,.11,0,.01-.02,.02-.02,.04,0,0,0,.01,0,.02-.03,.08-.05,.16-.06,.24,0,.01,0,.03,0,.04,0,.07,0,.14,.01,.2,0,.02,0,.04,.01,.07,.02,.07,.04,.15,.07,.22,0,0,0,.01,0,.02,.04,.07,.08,.14,.14,.21,0,0,0,.02,.01,.02,1.82,2.06,6.13,3.41,7.49,3.67,2.04,.39,2.73,.32,3.79,.17,.56-.08,1.2-.17,2.39-.18,1.19,0,1.83,.08,2.39,.15,.7,.09,1.25,.15,2.14,.06,.44-.05,.97-.13,1.65-.26,.64-.13,2.49-.82,3.92-1.39,3.45-1.35,3.45-1.37,3.62-1.92,.11-.37,0-.76-.27-1.03-.1-.1-.2-.16-.31-.2-8.66-18,2.66-28.95,4.46-30.53,.68-.14,.91-.61,.98-.83,.32-1.06-.69-1.84-3.45-3.63h0Zm-30.39-11.85c9.75,1.01,13.1,8.8,14.09,12.1-1.02-.19-1.96-.41-2.84-.64-.32-.09-.64-.19-.95-.28-.25-.08-.51-.15-.76-.23-7.81-2.55-9.43-6.79-9.54-10.95h0Zm2.12,13.15c1.96-1.4,4.11-1.01,6.54-.31,.73,.24,1.5,.47,2.31,.68,.94,.26,1.9,.5,2.88,.63,.47,.09,.95,.17,1.45,.25,.09,.01,.18,.02,.27,0,.17-.02,.33-.08,.47-.17,1.8-.1,3.52-.63,5.18-1.14,2.87-.89,5.34-1.65,7.59-.07,.2,.14,.5,.33,.84,.56,.35,.23,.92,.6,1.45,.97-1.86,.54-3.15,1.9-4.15,2.96-.44,.47-1.16,1.24-1.43,1.24,0,0-.02,0-.06-.03l-.2-.12c-1.47-.88-3.19-1.91-5.53-1.67-.91,.09-1.91,.38-3.02,.94-3.24,1.64-8.04,.37-10.91-1.66-1.76-1.24-3.45-1.92-4.7-2.28,.33-.28,.67-.55,1.01-.79h0Zm19.3,36.23c-1.8,.36-2.29,.29-3.11,.18-.6-.08-1.34-.18-2.67-.17-.78,0-1.36,.04-1.82,.09-.33,.03-.6,.07-.85,.11-.82,.12-1.31,.19-3.11-.15-.88-.17-2.96-.82-4.6-1.72,1.64-.34,3.89-.9,6.03-1.77,1.51-.61,2.48-.26,3.6,.15,1.2,.44,2.68,.99,4.57-.08,1.5,.26,2.76,.95,3.99,1.62,.38,.21,.76,.42,1.14,.61-1.38,.54-2.76,1.05-3.17,1.13h0Zm5.08-2.55c-.58-.18-1.24-.53-2.07-.98-1.41-.77-3.02-1.65-5.06-1.91-.24-.03-.48,.03-.68,.16-1.2,.78-1.91,.51-3.09,.08-1.26-.46-2.83-1.04-5.08-.13-2.07,.84-4.31,1.38-5.87,1.69,7.14-14.2,1.5-24.46-2.29-29.14,.71,.33,1.48,.75,2.27,1.31,3.44,2.43,9.02,3.83,13.01,1.81,2.97-1.5,4.63-.5,6.57,.65l.2,.12c.45,.27,.89,.36,1.3,.31,.89-.09,1.68-.79,2.36-1.49-3.55,5.3-7.28,14.82-1.56,27.52h0Z"/>
            <path class="cls-5" d="M381.19,122.53c-.54,0-.99,.45-.98,.99l.02,4.06c0,.55,.45,.99,.99,.98,.03,0,.07,0,.1,0,.5-.05,.89-.48,.89-.99l-.02-4.06c0-.55-.45-.99-.99-.98h0Z"/>
            <path class="cls-5" d="M385.19,122.51c-.54,0-.99,.45-.98,.99l.02,4.06c0,.55,.45,.99,.99,.98,.03,0,.07,0,.1,0,.5-.05,.89-.48,.89-.99l-.02-4.06c0-.55-.45-.99-.99-.98h0Z"/>
          </g>
        </g>
      </g>
      <g>
        <path class="cls-13" d="M633.44,336.24H133.96c-13.1,0-21.29,13.72-14.74,24.7l50.15,84.07c3.04,5.09,8.66,8.23,14.74,8.23h399.17c6.08,0,11.7-3.14,14.74-8.23l50.15-84.07c6.55-10.98-1.64-24.7-14.74-24.7Z"/>
        <text class="cls-2" transform="translate(202.75 422.92)"><tspan x="0" y="0">Donate Excess Food</tspan></text>
        <g>
          <circle class="cls-1" cx="384.2" cy="335.24" r="42"/>
          <g>
            <path class="cls-10" d="M411.74,349.56c-1.19-1.41-2.92-2.22-4.77-2.22-.68,0-1.35,.11-1.99,.33l-11.86,3.98c-.85-1.76-2.63-2.9-4.63-2.9h-3.52s.8,.43,1.15,.16c.86-.67,1.31-1.72,1.2-2.8-.11-1,.2-1.94,.84-2.58l1.69-1.69c.81,.27,1.7,.4,2.66,.4,3.91,0,8.76-2.14,12.27-5.64,2.39-2.39,3.71-5.06,3.82-7.72,.1-2.48-.88-4.88-2.75-6.76-3.59-3.59-8.58-3.66-12.93-.29-.58-2.24-1.85-4.07-3.65-5.24-1.96-1.27-4.37-1.61-6.76-.95-.31,.09-.63,.14-.95,.19,.55-2.15,2.09-3.58,4.66-4.35,.34-.1,.53-.45,.43-.79-.1-.34-.45-.53-.79-.43-1.1,.33-2.04,.77-2.83,1.32,.04-1.04-.18-2.31-1.18-3.3-1.92-1.92-6-1.92-6.17-1.92-.35,0-.63,.28-.63,.63,0,.17,0,4.24,1.92,6.17,.93,.93,2.08,1.18,3.08,1.18,.24,0,.46-.02,.68-.04-.22,.48-.38,1-.5,1.55-.44-.03-.88-.09-1.31-.21-2.59-.71-5.23-.24-7.26,1.3-2.22,1.69-3.5,4.5-3.51,7.72,0,4.79,1.56,8.99,4.31,11.53,1.72,1.59,3.79,2.42,6.03,2.42,.25,0,.5,0,.75-.03,.98-.08,1.94-.08,2.92,0,1.37,.11,2.68-.08,3.91-.57,.01,.04,.03,.08,.04,.11l-1.69,1.69c-.64,.64-1.58,.94-2.58,.84-1.08-.11-2.13,.33-2.8,1.2-.84,1.09-.87,2.62-.07,3.73,.52,.72,1.29,1.17,2.13,1.28,.11,.85,.56,1.61,1.28,2.13,.32,.23,1.04,.77,1.04,.77h-.84s-2.75-.66-3.94-1.34c-1.38-.8-4.57-.66-4.57-.66h-7.38s0-.38,0-.38c0-1.45-1.18-2.62-2.62-2.62h-5.76c-1.45,0-2.62,1.17-2.62,2.62v13.76c0,1.44,1.18,2.62,2.62,2.62h5.53c1.42,0,2.58-1.12,2.67-2.52l16.66,3.06c.43,.08,.87,.12,1.3,.12,1.02,0,2.02-.21,2.97-.63l23.46-10.52c.68-.31,1.17-.9,1.34-1.63,.17-.73-.01-1.48-.5-2.05h0Zm-47.39,13.18h-5.3c-.74,0-1.35-.6-1.35-1.35v-14.3c0-.75,.61-1.36,1.36-1.36h5.29c.75,0,1.36,.61,1.36,1.36v14.29c0,.75-.61,1.36-1.36,1.36Zm28.57-39.28c4.06-3.63,8.67-3.8,12.02-.45,1.65,1.65,2.47,3.65,2.38,5.81-.1,2.34-1.29,4.72-3.45,6.87-3.75,3.76-9.32,5.88-12.99,5.1l1.36-1.36c.98-.98,1.09-2.56,.23-3.6-.47-.57-1.17-.92-1.91-.96-.74-.05-1.46,.24-1.99,.77l-1.43,1.43s-.01-.05-.02-.08c-.73-3.7,1.47-9.26,5.13-12.91,.21-.21,.43-.42,.65-.62h0Zm-15.05-11.21c-1.15-1.15-1.44-3.47-1.52-4.6,1.14,.08,3.46,.37,4.6,1.52,1.15,1.15,.79,2.98,.59,3.67-.69,.19-2.52,.56-3.67-.59h0Zm7.95,24.47c-1.11,.48-2.29,.68-3.54,.58-1.04-.08-2.09-.08-3.13,0-2.16,.18-4.17-.53-5.82-2.05-2.49-2.3-3.91-6.16-3.9-10.59,0-2.82,1.1-5.26,3.01-6.71,1.73-1.32,3.92-1.7,6.15-1.09,.48,.14,.98,.22,1.48,.26-.03,.48-.03,.98,.01,1.51,.02,.33,.3,.59,.63,.59,.02,0,.03,0,.05,0,.35-.02,.61-.33,.59-.68-.04-.5-.03-.98,0-1.43,.51-.04,1.01-.11,1.49-.25,2.04-.56,4.07-.28,5.73,.8,1.69,1.09,2.82,2.91,3.24,5.12-.15,.14-.29,.27-.44,.41-3.83,3.83-6.1,9.42-5.55,13.54h0Zm-2.68,11.22c-.54-.39-.83-1.01-.77-1.67,.02-.19-.05-.37-.18-.5-.12-.12-.28-.19-.45-.19-.02,0-.03,0-.05,0-.66,.05-1.28-.23-1.67-.77-.47-.65-.45-1.57,.04-2.2,.4-.51,1.03-.78,1.66-.71,1.39,.15,2.7-.29,3.61-1.2l1.96-1.96s0,0,0,0l2.18-2.18c.27-.27,.64-.42,1.03-.4,.39,.02,.74,.2,.99,.5,.44,.53,.37,1.36-.15,1.89l-4.09,4.09c-.91,.91-1.35,2.23-1.2,3.61,.07,.64-.2,1.26-.71,1.66-.63,.49-1.56,.51-2.2,.04h0Zm26.97,4.03c-.07,.32-.29,.58-.59,.72l-22.96,10.3c-1.08,.48-2.26,.62-3.43,.42l-16.42-3.03v-11.64h7.38c1.39-.29,2.75,.07,3.94,.76,1.39,.8,4.58,1.24,4.58,1.24h5.31c1.2,0,2.4,.47,3.14,1.42,.55,.7,.83,1.51,.83,2.34,0,.33-.13,.64-.37,.88-.23,.23-.54,.36-.87,.36h-13.08s-.64,.31-.64,.66,.28,.64,.64,.34h13.08c.68,.29,1.31,.03,1.77-.44,.48-.47,.74-1.1,.74-1.78,0-.35-.05-.69-.12-1.02l11.61-3.89c.5-.17,1.02-.25,1.54-.25,1.43,0,2.78,.63,3.69,1.72,.21,.25,.29,.58,.22,.91h0Z"/>
            <path class="cls-10" d="M383.17,320.11c-1.66,1.05-3.27,1.05-4.93,0-.3-.19-.69-.1-.88,.2-.19,.3-.1,.69,.2,.88,1.04,.66,2.09,.99,3.14,.99s2.1-.33,3.14-.99c.3-.19,.38-.58,.2-.88-.19-.3-.58-.39-.88-.2h0Z"/>
          </g>
        </g>
      </g>
      <g>
        <path class="cls-22" d="M594.9,512.24H172.5c-13.64,0-22.16,12.37-15.34,22.26l60.17,87.32c3.16,4.59,9.01,7.42,15.34,7.42h302.06c6.33,0,12.18-2.83,15.34-7.42l60.17-87.32c6.82-9.89-1.7-22.26-15.34-22.26Z"/>
        <text class="cls-2" transform="translate(239.1 601.06)"><tspan x="0" y="0">Feed to Animals</tspan></text>
        <g>
          <circle class="cls-1" cx="384.2" cy="512.24" r="42"/>
          <g>
            <path class="cls-22" d="M376.65,512.49c-.9,0-1.76-.36-2.4-.99-.64-.64-.99-1.5-.99-2.4s.36-1.76,.99-2.4c.64-.64,1.5-.99,2.4-.99s1.76,.36,2.4,.99c.64,.64,.99,1.5,.99,2.4,0,.9-.36,1.76-.99,2.4s-1.5,.99-2.4,.99h0Zm0-4.52c-.46,0-.87,.28-1.04,.7-.18,.42-.08,.91,.24,1.23,.32,.32,.81,.42,1.23,.25,.42-.18,.7-.59,.7-1.04,0-.62-.51-1.13-1.13-1.13Z"/>
            <path class="cls-22" d="M390.75,512.49c-.9,0-1.76-.36-2.4-.99s-.99-1.5-.99-2.4,.36-1.76,.99-2.4c.64-.64,1.5-.99,2.4-.99s1.76,.36,2.4,.99c.64,.64,.99,1.5,.99,2.4,0,.9-.36,1.76-.99,2.4-.64,.64-1.5,.99-2.4,.99h0Zm0-4.52c-.46,0-.87,.28-1.04,.7s-.08,.91,.25,1.23c.32,.32,.81,.42,1.23,.25,.42-.18,.7-.59,.7-1.04,0-.62-.51-1.13-1.13-1.13Z"/>
            <path class="cls-22" d="M414.94,509.92c-1.23-6.23-5.52-12.92-9.57-14.93-3.21-1.59-7.46-1.59-10.05-1.41-.28-.29-.56-.58-.87-.86-2.77-2.56-7.03-2.64-9.85-2.7l-.95-.02-.84,.02c-2.82,.06-7.09,.14-9.87,2.71-.3,.28-.58,.56-.85,.85-2.58-.19-6.85-.19-10.07,1.41-4.05,2-8.34,8.7-9.57,14.93-.79,4.01-.21,7.27,1.67,9.4,1.35,1.54,3.88,2.31,7.53,2.31,.31,0,.65-.02,.97-.04,.17,3.46,1.67,6.73,4.18,9.12,3.82,3.66,10.26,4.38,14.74,4.38,.7,0,1.36-.02,1.95-.04h.21s.21,0,.21,0c4.33,.19,12.26-.11,16.68-4.35h0c2.5-2.39,4-5.64,4.18-9.1,.32,.01,.66,.04,.97,.04,3.65,0,6.18-.78,7.53-2.31,1.88-2.14,2.46-5.39,1.67-9.4h0Zm-59.12,7.91c-1.77-2.01-1.6-5.17-1.15-7.47,1.09-5.53,4.91-11.63,8.35-13.34h0c2.32-.96,4.83-1.38,7.34-1.24-1.72,2.95-3.12,6.07-4.17,9.32l-.17,.46c-2.15,5.83-3.23,8.75-3.42,12.55-.02,.41-.03,.83-.04,1.25-3.33,.11-5.77-.43-6.74-1.52h0Zm27.89,2.09h-.02s-.02,0-.02,0c-.57-.14-1.08-.46-1.46-.91-.37-.44-.64-.95-.8-1.5,.69-.39,1.48-.56,2.28-.5,.79-.06,1.58,.12,2.27,.51-.16,.55-.43,1.05-.8,1.49-.38,.45-.89,.77-1.46,.91h0Zm15.31,9.15c-2.67,2.56-7.83,3.89-13.83,3.74v-10.86c.43-.3,1.14-.8,1.69-1.45,.79-.94,1.3-2.08,1.45-3.29,.04-.35-.09-.7-.35-.94-1.17-1.06-2.72-1.6-4.3-1.5-1.58-.11-3.13,.43-4.3,1.49-.25,.24-.38,.59-.35,.93,.16,1.22,.66,2.37,1.46,3.3,.55,.65,1.26,1.15,2.69,1.45v10.87c-7.01,.16-12.16-1.16-14.83-3.72-3.41-3.27-3.7-7.16-3.51-10.87,.17-3.45,1.21-6.27,3.29-11.88l.17-.46c2.63-7.13,3.79-9.28,6.17-11.47,2.16-1.99,5.76-2.06,8.39-2.11l.8-.02,.9,.02c2.62,.05,6.21,.12,8.36,2.1,2.38,2.2,3.53,4.34,6.17,11.47l.16,.44c2.07,5.62,3.12,8.44,3.29,11.9,.19,3.72-.11,7.61-3.51,10.87h0Zm12.54-11.24c-.96,1.1-3.39,1.63-6.73,1.52,0-.43-.02-.85-.04-1.27-.19-3.8-1.28-6.73-3.43-12.56l-.16-.44h0c-1.05-3.24-2.44-6.36-4.16-9.3,2.5-.13,5,.29,7.32,1.24,3.44,1.7,7.26,7.81,8.35,13.34,.45,2.3,.62,5.46-1.15,7.47h0Z"/>
          </g>
        </g>
      </g>
      <g>
        <path class="cls-21" d="M546.15,689.24H221.25c-11.87,0-19.28,9.17-13.35,16.51l76.78,94.98c2.75,3.41,7.84,5.5,13.35,5.5h171.35c5.51,0,10.59-2.1,13.35-5.5l76.78-94.98c5.93-7.34-1.48-16.51-13.35-16.51Z"/>
        <text class="cls-2" transform="translate(303.27 775.91)"><tspan x="0" y="0">Compost</tspan></text>
        <g>
          <circle class="cls-1" cx="384.2" cy="688.24" r="42"/>
          <path class="cls-12" d="M408.41,704.31c-.05-.42-.1-.85-.14-1.28h0c-.23-2.33-.32-4.68-.28-7.02,.03-1.46-.53-2.86-1.55-3.9-.81-.82-1.87-1.36-3.01-1.53-.11-2.12-.89-4.16-2.22-5.82-1.33-1.66-3.15-2.86-5.2-3.43-.78-.23-1.48-.7-1.98-1.34-1.11-1.47-2.62-2.59-4.34-3.24-1.72-.65-6-.44-6-.44,0,0,0-4.23,0-4.25,.53,.43,1.19,.67,1.88,.68h2.59c.36,0,.73-.02,1.08-.1,2.76-.64,4.46-2.93,4.46-5.4v-2.44c0-.81-.33-1.59-.92-2.16s-1.38-.89-2.21-.9h-1.33c-.37,0-.74,.02-1.1,.11-2.75,.66-4.44,3-4.44,5.52v1.51c-1.06-1.34-2.67-2.13-4.38-2.13h-2.5c-.83,0-1.62,.33-2.21,.92-.59,.59-.92,1.38-.92,2.21v2.56c0,1.41,.56,2.76,1.56,3.76,1,1,2.35,1.56,3.76,1.56h2.36c.07,0,.12-.03,.19-.04h0c-1.11,.56-2.11,1.32-2.95,2.25-.56,.64-1.29,1.09-2.11,1.31-.16,.03-.29,.13-.38,.26-.08,.14-.11,.3-.07,.45,.04,.16,.14,.29,.27,.37,.14,.08,.3,.1,.46,.06,1.05-.27,2-.85,2.71-1.67,1.72-1.97,4.23-3.06,6.84-2.99,2.61,.07,5.05,1.31,6.66,3.36,.65,.83,1.55,1.44,2.56,1.73,1.76,.49,3.32,1.51,4.47,2.93,1.15,1.42,1.84,3.15,1.96,4.97h-36.82c.15-2.25,1.14-4.37,2.79-5.92,1.65-1.55,3.82-2.41,6.08-2.42,.33,0,.6-.27,.6-.6s-.27-.6-.6-.6c-2.59,0-5.08,1.01-6.95,2.79-1.87,1.79-2.99,4.22-3.12,6.81-1.14,.17-2.19,.7-3,1.52-1.01,1.03-1.57,2.43-1.54,3.87,.04,2.33-.05,4.66-.28,6.97-.04,.43-.09,.85-.14,1.27v1.11c0,1.8,.39,3.6,1.29,5.15,1.84,3.16,5.19,5.03,8.75,5.02h29.22s7-2.01,8.83-5.16c.17-.29,.07-.65-.22-.82-.29-.17-.65-.07-.82,.22-1.61,2.78-4.58,4.49-7.79,4.76h-29.2c-2.56-.26-5.01-1.35-6.71-3.27-1.71-1.92-2.51-4.47-2.21-7.02,.03-.22,.05-.44,.07-.67,7.72,1.52,15.58,2.29,23.45,2.3,7.87,0,15.72-.78,23.45-2.3,.02,.22,.05,.45,.07,.67,.13,1.1,.06,2.21-.21,3.28-.08,.32,.12,.64,.43,.72,.32,.08,.64-.11,.73-.42,.31-1.21,.39-2.48,.24-3.72h0Zm-23.71-37.57c0-1.06,.42-2.08,1.17-2.83,.75-.75,1.77-1.17,2.83-1.17h2.29c.45,0,.89,.18,1.21,.5s.5,.76,.5,1.21v2.29c0,1.06-.42,2.08-1.17,2.83-.75,.75-1.77,1.17-2.83,1.17h-2.29c-.25,0-.5-.06-.73-.18l3.42-3.42h0c.22-.22,.22-.59,0-.81-.22-.22-.59-.22-.81,0l-3.42,3.42c-.11-.23-.17-.48-.18-.73v-2.29Zm-6,9c-1.06,0-2.08-.42-2.83-1.17-.75-.75-1.17-1.77-1.17-2.83v-2.29c0-.45,.18-.89,.5-1.21,.32-.32,.76-.5,1.21-.5h2.29c1.06,0,2.08,.42,2.83,1.17s1.17,1.77,1.17,2.83v2.29c0,.25-.06,.5-.18,.73l-3.42-3.42c-.22-.22-.58-.22-.81,0-.22,.22-.22,.58,0,.81l3.42,3.42h0c-.23,.11-.48,.17-.73,.18h-2.29Zm-18.34,26.85c.11-1.23,.18-2.46,.22-3.85h20.73c.33,.15,.6-.12,.6-.45s-.6-.55-.6-.55h-20.74c0-.57,.03-1.14,.02-1.71-.03-1.14,.41-2.23,1.2-3.04,.79-.8,1.86-1.25,2.99-1.25h37.85c1.12,0,2.2,.45,2.99,1.25,.8,.81,1.23,1.91,1.2,3.04-.01,.57,.01,1.14,.02,1.71h-23.14s-.6,.22-.6,.55,.27,.6,.6,.45h23.12c.04,1.39,.11,2.62,.22,3.85-15.41,3.03-31.27,3.03-46.68,0h0Z"/>
        </g>
      </g>
      <g>
        <path class="cls-9" d="M493.37,865.24h-219.34c-16,0-26,11.95-18,21.51l109.67,131.08c8,9.56,28,9.56,36,0l109.67-131.08c8-9.56-2-21.51-18-21.51Z"/>
        <text class="cls-3" transform="translate(322 952)"><tspan x="0" y="0">Landfill</tspan></text>
        <g>
          <circle class="cls-1" cx="384.2" cy="865.24" r="42"/>
          <path class="cls-9" d="M372.83,882.09c-.13-.47-.61-.75-1.08-.63-.98,.26-1.96,.09-2.77-.37s-1.43-1.23-1.7-2.2c-.09-.39-.44-.66-.83-.67-.29-.01-.55,.12-.72,.34-.18,.22-.23,.51-.16,.78,.39,1.44,1.33,2.6,2.53,3.29,1.2,.69,2.67,.92,4.11,.54,.39-.11,.65-.47,.65-.86,0-.07,0-.15-.03-.22Zm10.01-.43c-.39-1.44-1.33-2.6-2.53-3.29-.6-.35-1.26-.57-1.96-.67-.27-.03-.53-.05-.8-.05-.45,0-.9,.07-1.35,.19h0c-.23,.05-.42,.2-.54,.41-.12,.2-.16,.44-.09,.67,.06,.23,.21,.42,.41,.54,.21,.12,.45,.15,.68,.09,.98-.27,1.96-.1,2.77,.36s1.44,1.23,1.7,2.2c.05,.24,.2,.44,.4,.56,.21,.13,.46,.16,.69,.1s.43-.22,.54-.43c.12-.21,.15-.45,.08-.68Zm7.04-1.68c-.08-.23-.25-.41-.47-.51-.88-.42-1.39-1.1-1.58-1.89s-.05-1.71,.55-2.59c.11-.15,.16-.33,.16-.51,0-.14-.03-.28-.1-.41-.16-.3-.46-.48-.8-.47-.29,0-.56,.15-.72,.39-.85,1.25-1.13,2.69-.82,3.99,.31,1.3,1.21,2.45,2.54,3.09,.12,.07,.26,.1,.4,.1,.1,0,.2-.02,.29-.05,.23-.07,.42-.24,.52-.45,.1-.22,.12-.47,.03-.69Zm11.08-.48c-.15-.26-.42-.42-.73-.43-.35-.01-.68,.19-.83,.51-.42,.88-1.11,1.4-1.9,1.58-.79,.19-1.71,.05-2.58-.55-.15-.1-.32-.16-.49-.16-.06,0-.12,0-.18,.02-.23,.04-.44,.17-.57,.37-.13,.19-.18,.43-.14,.66,.05,.24,.18,.44,.38,.57,1.25,.85,2.69,1.13,3.99,.82s2.44-1.21,3.08-2.54c.07-.13,.1-.26,.1-.4,0-.16-.04-.31-.13-.45Zm0,0c-.15-.26-.42-.42-.73-.43-.35-.01-.68,.19-.83,.51-.42,.88-1.11,1.4-1.9,1.58-.79,.19-1.71,.05-2.58-.55-.15-.1-.32-.16-.49-.16-.06,0-.12,0-.18,.02-.23,.04-.44,.17-.57,.37-.13,.19-.18,.43-.14,.66,.05,.24,.18,.44,.38,.57,1.25,.85,2.69,1.13,3.99,.82s2.44-1.21,3.08-2.54c.07-.13,.1-.26,.1-.4,0-.16-.04-.31-.13-.45Zm-11.55-.03c-.88-.42-1.39-1.1-1.58-1.89s-.05-1.71,.55-2.59c.11-.15,.16-.33,.16-.51,0-.14-.03-.28-.1-.41-.16-.3-.46-.48-.8-.47-.29,0-.56,.15-.72,.39-.85,1.25-1.13,2.69-.82,3.99,.31,1.3,1.21,2.45,2.54,3.09,.12,.07,.26,.1,.4,.1,.1,0,.2-.02,.29-.05,.23-.07,.42-.24,.52-.45,.1-.22,.12-.47,.03-.69-.08-.23-.25-.41-.47-.51Zm-9.1-1.1c-.6-.35-1.26-.57-1.96-.67-.27-.03-.53-.05-.8-.05-.45,0-.9,.07-1.35,.19h0c-.23,.05-.42,.2-.54,.41-.12,.2-.16,.44-.09,.67,.06,.23,.21,.42,.41,.54,.21,.12,.45,.15,.68,.09,.98-.27,1.96-.1,2.77,.36s1.44,1.23,1.7,2.2c.05,.24,.2,.44,.4,.56,.21,.13,.46,.16,.69,.1s.43-.22,.54-.43c.12-.21,.15-.45,.08-.68-.39-1.44-1.33-2.6-2.53-3.29Zm-8.56,3.09c-.98,.26-1.96,.09-2.77-.37s-1.43-1.23-1.7-2.2c-.09-.39-.44-.66-.83-.67-.29-.01-.55,.12-.72,.34-.18,.22-.23,.51-.16,.78,.39,1.44,1.33,2.6,2.53,3.29,1.2,.69,2.67,.92,4.11,.54,.39-.11,.65-.47,.65-.86,0-.07,0-.15-.03-.22-.13-.47-.61-.75-1.08-.63Zm38.76,3.78h-4.02c.63-1.09,.99-2.35,.99-3.69,0-2-.81-3.84-2.12-5.16-1.3-1.32-3.13-2.14-5.12-2.14h-.34c.14-.63,.22-1.28,.22-1.91,0-.54-.05-1.09-.16-1.63-.08-.43-.2-.86-.35-1.28,.24-.16,.47-.3,.69-.47,1.44-1.1,2.19-2.51,2.62-3.92,.86-2.81,.71-5.6,2.59-7.89,.14-.18,.21-.39,.21-.61,0-.08-.01-.16-.03-.24-.08-.29-.3-.52-.6-.62-.74-.26-1.56-.4-2.41-.43h-.46s-4.87,1.26-6.87,2.96c-1.57,1.33-3.11,6.04-3.11,6.04h-.06c-.28,0-.55,.02-.82,.05-.01-.04-.03-.08-.05-.11-1.04-1.83-2.72-3.05-4.6-3.57-.93-.25-1.92-.32-2.9-.2-.97,.11-1.95,.44-2.85,.96-1.72,1-2.9,2.6-3.44,4.38-.76-.26-1.58-.42-2.41-.47-.46-1.33-1.3-2.28-2.22-3.01-2.01-1.61-4.27-2.36-5.49-4.57-.16-.29-.45-.46-.77-.46h.01c-.25,0-.48,.12-.64,.31-1.78,2.07-2.44,5.65-1.36,8.86,.38,1.12,1,2.17,1.86,3.08-.34,.51-.63,1.05-.87,1.6-.24,.58-.43,1.19-.56,1.81-.08,.44-.14,.88-.17,1.34-1.08,.38-2.03,1-2.82,1.78-1.36,1.37-2.19,3.27-2.19,5.36,0,1.41,.38,2.73,1.05,3.86h-4.05s-.89,.02-.89,.51,.4,.89,.89,1.49h53.62c.49-.6,.89-1,.89-1.49s-.89-.51-.89-.51Zm-14.02-25.69c1.77-1.5,4.2-2.21,6.16-2.18,.23,0,.4,.06,.61,.1-1.39,2.42-1.46,4.99-2.05,6.93-.35,1.13-.84,2.06-1.89,2.86-.81,.61-2.08,1.14-3.86,1.52,.12-.16,.24-.32,.37-.48,1.47-1.94,3.21-4,3.88-6.52,.02-.08,.03-.16,.03-.23,0-.19-.06-.37-.17-.53-.15-.22-.4-.36-.67-.37-.42-.02-.8,.26-.9,.67-.53,2-2.08,3.93-3.58,5.9-.07,.1-.13,.19-.21,.28-.88-3.71,.31-6.27,2.28-7.95Zm-30.18,5.87c-.71-2.12-.37-4.55,.44-6.17,1.57,1.92,3.66,2.82,5.05,3.93,.83,.66,1.42,1.36,1.74,2.48,.23,.82,.24,1.98,.02,3.46-.05-.08-.1-.16-.16-.25-1.13-1.88-2.27-4.03-4.18-5.44-.16-.12-.35-.19-.55-.19h-.04c-.37,.02-.7,.28-.8,.64-.11,.36,.02,.75,.33,.97,1.47,1.09,2.57,3.01,3.72,4.93,.02,.03,.04,.07,.07,.1-3.24-.53-4.91-2.32-5.64-4.46Zm38.67,19.82h-43.94c-.97-1.03-1.56-2.38-1.56-3.88,0-1.61,.69-3.07,1.81-4.12,1.11-1.06,2.64-1.71,4.34-1.71s3.23,.65,4.35,1.71c.17,.17,.42,.27,.67,.27,.26,0,.5-.09,.68-.25,.18-.17,.28-.4,.28-.64s-.11-.46-.29-.63c-1.45-1.38-3.47-2.23-5.69-2.23-.25,0-.49,0-.74,.03,.03-.19,.05-.39,.1-.58,.12-.52,.28-1.01,.49-1.48,.18-.41,.39-.79,.64-1.16,1.47,.92,3.37,1.53,5.71,1.64,.88,1.13,1.93,2.11,3.35,2.63,.12,.04,.25,.07,.36,.07,.13,0,.26-.03,.37-.07,.23-.09,.43-.27,.51-.49,.1-.23,.09-.48-.01-.69-.11-.22-.31-.39-.54-.47-.79-.29-1.49-.87-2.15-1.62,.01,0,.01-.01,.01-.01,.47-1.84,.63-3.33,.51-4.59,1.86,.22,3.54,1.03,4.81,2.23,1.5,1.43,2.43,3.4,2.43,5.59,0,.55-.05,1.09-.17,1.6-.02,.07-.03,.14-.03,.21,0,.17,.05,.33,.15,.47,.14,.21,.36,.35,.61,.4,.26,.04,.51-.01,.72-.14,.21-.14,.35-.35,.39-.59,.14-.63,.21-1.28,.21-1.95,0-2.66-1.14-5.08-2.98-6.83-.66-.63-1.42-1.17-2.25-1.61h.01c.41-1.45,1.39-2.74,2.87-3.55,1.01-.56,2.11-.81,3.2-.78h0c.49,0,.98,.07,1.45,.19,1.39,.35,2.63,1.15,3.49,2.35-1.2,.39-2.33,1.04-3.29,1.95-.19,.16-.3,.39-.3,.63s.1,.47,.28,.64c.18,.17,.43,.26,.68,.26,.26,0,.5-.11,.68-.29,1.31-1.25,3.03-1.87,4.75-1.87,.02,1.21,.27,2.52,.78,3.91-.88,1.33-1.53,2.73-1.52,4.31h0c-.01,.25,.1,.47,.28,.63,.17,.17,.42,.26,.66,.26s.5-.09,.67-.26c.18-.17,.28-.4,.28-.63-.01-.93,.35-1.87,.94-2.84,.02,0,.05,0,.09-.01,1.69-.22,3.09-.55,4.25-.97,.09,.25,.16,.5,.21,.76,.09,.41,.12,.82,.12,1.23,0,.72-.12,1.44-.38,2.13-1.27,.35-2.41,1-3.31,1.87-.18,.16-.29,.39-.3,.63,0,.24,.1,.47,.28,.64,.19,.17,.44,.26,.69,.26,.26-.01,.5-.11,.67-.29,1.08-1.02,2.56-1.65,4.2-1.65s3.12,.63,4.2,1.65c1.08,1.02,1.74,2.43,1.74,3.99,0,1.44-.56,2.75-1.49,3.74Zm-4.75-6.17c-.35-.01-.68,.19-.83,.51-.42,.88-1.11,1.4-1.9,1.58-.79,.19-1.71,.05-2.58-.55-.15-.1-.32-.16-.49-.16-.06,0-.12,0-.18,.02-.23,.04-.44,.17-.57,.37-.13,.19-.18,.43-.14,.66,.05,.24,.18,.44,.38,.57,1.25,.85,2.69,1.13,3.99,.82s2.44-1.21,3.08-2.54c.07-.13,.1-.26,.1-.4,0-.16-.04-.31-.13-.45-.15-.26-.42-.42-.73-.43Zm-10.82,.4c-.88-.42-1.39-1.1-1.58-1.89s-.05-1.71,.55-2.59c.11-.15,.16-.33,.16-.51,0-.14-.03-.28-.1-.41-.16-.3-.46-.48-.8-.47-.29,0-.56,.15-.72,.39-.85,1.25-1.13,2.69-.82,3.99,.31,1.3,1.21,2.45,2.54,3.09,.12,.07,.26,.1,.4,.1,.1,0,.2-.02,.29-.05,.23-.07,.42-.24,.52-.45,.1-.22,.12-.47,.03-.69-.08-.23-.25-.41-.47-.51Zm-9.1-1.1c-.6-.35-1.26-.57-1.96-.67-.27-.03-.53-.05-.8-.05-.45,0-.9,.07-1.35,.19h0c-.23,.05-.42,.2-.54,.41-.12,.2-.16,.44-.09,.67,.06,.23,.21,.42,.41,.54,.21,.12,.45,.15,.68,.09,.98-.27,1.96-.1,2.77,.36s1.44,1.23,1.7,2.2c.05,.24,.2,.44,.4,.56,.21,.13,.46,.16,.69,.1s.43-.22,.54-.43c.12-.21,.15-.45,.08-.68-.39-1.44-1.33-2.6-2.53-3.29Zm-8.56,3.09c-.98,.26-1.96,.09-2.77-.37s-1.43-1.23-1.7-2.2c-.09-.39-.44-.66-.83-.67-.29-.01-.55,.12-.72,.34-.18,.22-.23,.51-.16,.78,.39,1.44,1.33,2.6,2.53,3.29,1.2,.69,2.67,.92,4.11,.54,.39-.11,.65-.47,.65-.86,0-.07,0-.15-.03-.22-.13-.47-.61-.75-1.08-.63Zm1.08,.63c-.13-.47-.61-.75-1.08-.63-.98,.26-1.96,.09-2.77-.37s-1.43-1.23-1.7-2.2c-.09-.39-.44-.66-.83-.67-.29-.01-.55,.12-.72,.34-.18,.22-.23,.51-.16,.78,.39,1.44,1.33,2.6,2.53,3.29,1.2,.69,2.67,.92,4.11,.54,.39-.11,.65-.47,.65-.86,0-.07,0-.15-.03-.22Zm10.01-.43c-.39-1.44-1.33-2.6-2.53-3.29-.6-.35-1.26-.57-1.96-.67-.27-.03-.53-.05-.8-.05-.45,0-.9,.07-1.35,.19h0c-.23,.05-.42,.2-.54,.41-.12,.2-.16,.44-.09,.67,.06,.23,.21,.42,.41,.54,.21,.12,.45,.15,.68,.09,.98-.27,1.96-.1,2.77,.36s1.44,1.23,1.7,2.2c.05,.24,.2,.44,.4,.56,.21,.13,.46,.16,.69,.1s.43-.22,.54-.43c.12-.21,.15-.45,.08-.68Zm7.04-1.68c-.08-.23-.25-.41-.47-.51-.88-.42-1.39-1.1-1.58-1.89s-.05-1.71,.55-2.59c.11-.15,.16-.33,.16-.51,0-.14-.03-.28-.1-.41-.16-.3-.46-.48-.8-.47-.29,0-.56,.15-.72,.39-.85,1.25-1.13,2.69-.82,3.99,.31,1.3,1.21,2.45,2.54,3.09,.12,.07,.26,.1,.4,.1,.1,0,.2-.02,.29-.05,.23-.07,.42-.24,.52-.45,.1-.22,.12-.47,.03-.69Zm11.08-.48c-.15-.26-.42-.42-.73-.43-.35-.01-.68,.19-.83,.51-.42,.88-1.11,1.4-1.9,1.58-.79,.19-1.71,.05-2.58-.55-.15-.1-.32-.16-.49-.16-.06,0-.12,0-.18,.02-.23,.04-.44,.17-.57,.37-.13,.19-.18,.43-.14,.66,.05,.24,.18,.44,.38,.57,1.25,.85,2.69,1.13,3.99,.82s2.44-1.21,3.08-2.54c.07-.13,.1-.26,.1-.4,0-.16-.04-.31-.13-.45Zm-11.08,.48c-.08-.23-.25-.41-.47-.51-.88-.42-1.39-1.1-1.58-1.89s-.05-1.71,.55-2.59c.11-.15,.16-.33,.16-.51,0-.14-.03-.28-.1-.41-.16-.3-.46-.48-.8-.47-.29,0-.56,.15-.72,.39-.85,1.25-1.13,2.69-.82,3.99,.31,1.3,1.21,2.45,2.54,3.09,.12,.07,.26,.1,.4,.1,.1,0,.2-.02,.29-.05,.23-.07,.42-.24,.52-.45,.1-.22,.12-.47,.03-.69Zm-7.04,1.68c-.39-1.44-1.33-2.6-2.53-3.29-.6-.35-1.26-.57-1.96-.67-.27-.03-.53-.05-.8-.05-.45,0-.9,.07-1.35,.19h0c-.23,.05-.42,.2-.54,.41-.12,.2-.16,.44-.09,.67,.06,.23,.21,.42,.41,.54,.21,.12,.45,.15,.68,.09,.98-.27,1.96-.1,2.77,.36s1.44,1.23,1.7,2.2c.05,.24,.2,.44,.4,.56,.21,.13,.46,.16,.69,.1s.43-.22,.54-.43c.12-.21,.15-.45,.08-.68Zm-10.01,.43c-.13-.47-.61-.75-1.08-.63-.98,.26-1.96,.09-2.77-.37s-1.43-1.23-1.7-2.2c-.09-.39-.44-.66-.83-.67-.29-.01-.55,.12-.72,.34-.18,.22-.23,.51-.16,.78,.39,1.44,1.33,2.6,2.53,3.29,1.2,.69,2.67,.92,4.11,.54,.39-.11,.65-.47,.65-.86,0-.07,0-.15-.03-.22Zm28.13-2.59c-.15-.26-.42-.42-.73-.43-.35-.01-.68,.19-.83,.51-.42,.88-1.11,1.4-1.9,1.58-.79,.19-1.71,.05-2.58-.55-.15-.1-.32-.16-.49-.16-.06,0-.12,0-.18,.02-.23,.04-.44,.17-.57,.37-.13,.19-.18,.43-.14,.66,.05,.24,.18,.44,.38,.57,1.25,.85,2.69,1.13,3.99,.82s2.44-1.21,3.08-2.54c.07-.13,.1-.26,.1-.4,0-.16-.04-.31-.13-.45Z"/>
        </g>
      </g>
      <text class="cls-4" transform="translate(4.4 199.07) rotate(75.87)"><tspan class="cls-15" x="0" y="0">Mo</tspan><tspan class="cls-20" x="40.18" y="0">s</tspan><tspan class="cls-15" x="53.05" y="0">t P</tspan><tspan class="cls-6" x="89.18" y="0">r</tspan><tspan class="cls-15" x="99.04" y="0">e</tspan><tspan class="cls-20" x="114.53" y="0">f</tspan><tspan class="cls-15" x="123.77" y="0">er</tspan><tspan class="cls-17" x="149.79" y="0">r</tspan><tspan class="cls-15" x="159.65" y="0">ed</tspan></text>
      <text class="cls-4" transform="translate(143.88 764.6) rotate(74.93)"><tspan class="cls-20" x="0" y="0">L</tspan><tspan class="cls-15" x="16.17" y="0">ea</tspan><tspan class="cls-20" x="46.9" y="0">s</tspan><tspan class="cls-15" x="59.78" y="0">t P</tspan><tspan class="cls-6" x="95.9" y="0">r</tspan><tspan class="cls-15" x="105.76" y="0">e</tspan><tspan class="cls-20" x="121.26" y="0">f</tspan><tspan class="cls-15" x="130.49" y="0">er</tspan><tspan class="cls-17" x="156.52" y="0">r</tspan><tspan class="cls-15" x="166.37" y="0">ed</tspan></text>
      <g>
        <line class="cls-11" x1="19.52" y1="108.55" x2="261.59" y2="1022.91"/>
        <path class="cls-7" d="M248.81,1012.16c.37-.41,1.01-.43,1.41-.06l11.25,10.37,4.64-14.58c.17-.53,.73-.82,1.26-.65s.81,.73,.65,1.26l-5.12,16.08c-.1,.33-.37,.58-.7,.66s-.68,0-.93-.23l-12.4-11.44c-.14-.13-.24-.3-.29-.48-.08-.32,0-.67,.23-.94Z"/>
      </g>
    </g>
  </g>
</svg>