<svg id="Layer_1" data-name="Layer 1" xmlns="http://www.w3.org/2000/svg" viewBox="0 0 190 190"><defs><style>.cls-1{fill:#ffe500;}.cls-2{fill:#003b7e;}</style></defs><circle class="cls-1" cx="95" cy="95" r="95"/><path class="cls-2" d="M114.34,41.79a16.24,16.24,0,0,0-15,9.52A15.55,15.55,0,0,0,92,49.93a15.2,15.2,0,0,0-3.1.51,15.36,15.36,0,0,0-6,3.17,17.13,17.13,0,0,0-4.08-1A17.53,17.53,0,0,0,59.66,65v0c-.21-.06-.4-.1-.61-.14a5.17,5.17,0,0,0-4.52,1.68,7.16,7.16,0,0,0-1,1.54,23.54,23.54,0,0,0-3.74-4.74A10.18,10.18,0,0,0,46.06,61a5.76,5.76,0,0,0-2.15-.26h0a5.2,5.2,0,0,0-4.65,4.09,9.54,9.54,0,0,0,.16,4.27A27.3,27.3,0,0,0,41.75,75a6.17,6.17,0,0,0-5.56,3c-1.77,3.17-1.17,7.31,1.13,10.44-.14,0-.32,0-.46,0a5.18,5.18,0,0,0-3.72,3.07c-1.07,2.88.31,5.73,2.29,8a20.86,20.86,0,0,0,2.73,2.49,5,5,0,0,0-3.36,2.9c-1,2.64.1,5.24,1.79,7.38A5.09,5.09,0,0,0,39,121.79h2.5v8.42a18,18,0,0,0,18,18H129.4a18,18,0,0,0,18-17.88h0a.43.43,0,0,0,0-.16v-8.42h2.51a5.1,5.1,0,1,0,0-10.2h-.43a16.93,16.93,0,0,0,1.29-4.57,21.58,21.58,0,0,0,4.28-5.09A16.21,16.21,0,0,0,150,80.29a17,17,0,0,0-19.83-20.22,16.21,16.21,0,0,0-11.86-17.76,16.61,16.61,0,0,0-3.23-.53l-.71,0Zm-.14,2.58a14.35,14.35,0,0,1,3.4.47,13.59,13.59,0,0,1,9.77,16,17,17,0,0,0-5.4,3.24h0a1.28,1.28,0,0,0-.13,1.85,1.27,1.27,0,0,0,.91.43,1.25,1.25,0,0,0,.94-.34,14.44,14.44,0,0,1,23.58,14.37h0a1.31,1.31,0,0,0,.42,1.54.08.08,0,0,1,0,0l0,0,.06,0a13.62,13.62,0,0,1,5,18.6,18.58,18.58,0,0,1-2,2.68A15.89,15.89,0,0,0,149.63,99a19.67,19.67,0,0,0-7.48-8.62,3.51,3.51,0,0,1,1.66-2.49,4,4,0,0,1,3.53-.35h0a1.29,1.29,0,0,0,.92-2.42,6.55,6.55,0,0,0-5.83.57,6.23,6.23,0,0,0-2.63,3.43A20.34,20.34,0,0,0,133,87.43a16.14,16.14,0,0,0-1.71,0,6.4,6.4,0,0,0,0-.76,6,6,0,0,0-.81-2.68,20.85,20.85,0,0,0,4.5-.71,9.57,9.57,0,0,0,4.1-2,3.08,3.08,0,0,0-1.47-5.51,8.07,8.07,0,0,0-3.11.09,8.49,8.49,0,0,0,.86-3,3.43,3.43,0,0,0-1-2.49h0a1.34,1.34,0,0,0-.53-.6s-.06,0-.08,0v0h0a1.38,1.38,0,0,0-.72-.12,3.4,3.4,0,0,0-2.64.41,8.2,8.2,0,0,0-2.12,2.21,8.32,8.32,0,0,0-1.48-2.74,3.37,3.37,0,0,0-3.25-1.11h0A3.36,3.36,0,0,0,121.33,71a9.72,9.72,0,0,0,.32,4.55,21.37,21.37,0,0,0,1.64,4.26,4.86,4.86,0,0,0-.85.06,5.75,5.75,0,0,0-.8.18A15.92,15.92,0,0,0,120,76.14,15.36,15.36,0,0,0,110.64,69a15.82,15.82,0,0,0-3.08-.5,15.38,15.38,0,0,0-8.61,2h0l0,0a22.55,22.55,0,0,0-4,3.42,16.57,16.57,0,0,0-1.57,1.93L93,75.4l-.37-.6-.08-.12a12.38,12.38,0,0,0-11.8-5.37,12.62,12.62,0,0,0-3.69,1.06,4.48,4.48,0,0,1-1.89-3.6,5.14,5.14,0,0,1,1.88-4.15h0a1.3,1.3,0,0,0-.85-2.31,1.28,1.28,0,0,0-.79.31,7.69,7.69,0,0,0-2.83,6.25,7.28,7.28,0,0,0,2.16,4.91,12.44,12.44,0,0,0-2.6,2.73,4.3,4.3,0,0,0-6.64-.16,20.92,20.92,0,0,0-.76-3.53,10.24,10.24,0,0,0-2.9-4.64,1.33,1.33,0,0,0,.25-.47,14.84,14.84,0,0,1,4.31-6.86h0l0,0a15.1,15.1,0,0,1,14.37-3.17,15.54,15.54,0,0,0-1.38,2h0a1.3,1.3,0,0,0-.15,1,1.26,1.26,0,0,0,.61.8,1.29,1.29,0,0,0,1,.12,1.28,1.28,0,0,0,.78-.62,13.49,13.49,0,0,1,2.18-2.81.8.8,0,0,0,.21-.2,12.94,12.94,0,0,1,14.36-2.21s0,0,0,0h0a1.34,1.34,0,0,0,.12,1,1.3,1.3,0,0,0,.8.61,1.3,1.3,0,0,0,1.59-.94A13.57,13.57,0,0,1,114.2,44.37Zm3.12,9.41h0a1.31,1.31,0,0,0-1.14.66,13.52,13.52,0,0,1-8.24,6.33h0a1.28,1.28,0,0,0-.82.59,1.33,1.33,0,0,0-.14,1,1.28,1.28,0,0,0,1.63.9,16.13,16.13,0,0,0,9.81-7.53,1.29,1.29,0,0,0-1.1-2Zm-28.67,5.9h0a1.3,1.3,0,0,0-.26,2.56,8,8,0,0,1,4.93,3.61,1.3,1.3,0,0,0,1.79.44,1.3,1.3,0,0,0,.43-1.78A10.61,10.61,0,0,0,89,59.73a1,1,0,0,0-.39,0ZM44.39,63.3a3.22,3.22,0,0,1,.87.16A7.78,7.78,0,0,1,48,65.24a25,25,0,0,1,4.79,6.68h0a1.3,1.3,0,0,0,2.46-.65,3.94,3.94,0,0,1,1.12-2.92,2.72,2.72,0,0,1,2.23-.94c1.75.3,2.92,1.84,3.72,4.23a26,26,0,0,1,1.06,7.81h0s0,0,0,.08h0a1.29,1.29,0,0,0,1.32,1.23A1.31,1.31,0,0,0,66,79.47s0-.06,0-.08h0a4.28,4.28,0,0,1,1.12-3,2.24,2.24,0,0,1,2.12-.85A6.87,6.87,0,0,1,70.84,77a12.33,12.33,0,0,0,.6,10.44h0l.08.14s0,0,0,0,.06.1.08.16L75,93.6c1.93,3.33,2.34,6.93,2.69,10.43.08.76.14,1.51.24,2.25-5.49-4.23-10.24-8.79-13.66-16.36h0v0s0,0,0,0,0,0,0,0h0a14.39,14.39,0,0,0-2.31-3.48A5.06,5.06,0,0,0,59.79,85a3.77,3.77,0,0,0-1.35-.18l-.29,0a9.78,9.78,0,0,1-.56-2.49c0-1,.18-1.74,1.76-2.66h0a1.13,1.13,0,0,0,.56-1.26,1.15,1.15,0,0,0-1.08-.88,1.22,1.22,0,0,0-.62.16,5.3,5.3,0,0,0-2.91,4.69A11,11,0,0,0,56,85.66a4.64,4.64,0,0,0-2.05,3.21,10.15,10.15,0,0,0,.26,3.55A16.73,16.73,0,0,0,42.6,102a24.68,24.68,0,0,1-5.23-4.23c-1.66-1.89-2.42-3.67-1.8-5.34a2.73,2.73,0,0,1,1.92-1.47,4,4,0,0,1,3.1.49h0a.17.17,0,0,0,.06.06A1.29,1.29,0,0,0,42.38,91,1.31,1.31,0,0,0,42,89.25l-.09,0h0c-3.7-2.11-5.06-7.15-3.48-10a3.77,3.77,0,0,1,5.1-1.15h0a1.29,1.29,0,0,0,1.6-.15,1.3,1.3,0,0,0,.23-1.59A31.54,31.54,0,0,1,42,68.53a7,7,0,0,1-.16-3.1,2.41,2.41,0,0,1,1.26-1.75,2.25,2.25,0,0,1,1.34-.35Zm62.41,7.41a13.19,13.19,0,0,1,3.26.45,13.06,13.06,0,0,1,8,6.11A13.69,13.69,0,0,1,119.55,81a12.38,12.38,0,0,0-1.93,1.61,11,11,0,0,0-8.1-9.46,8.67,8.67,0,0,0-2.31-.3,11.9,11.9,0,0,0-6.65,2.28A14.11,14.11,0,0,0,96,80.48l-1.26-2.19a9.12,9.12,0,0,1,1.85-2.8,20.38,20.38,0,0,1,3.58-3,13,13,0,0,1,6.66-1.75Zm17.6.16c.1,0,.24,0,.55.38a7.59,7.59,0,0,1,1.37,3c.12.46.22.94.31,1.42h0a1.29,1.29,0,0,0,1.1,1.06,1.31,1.31,0,0,0,1.35-.72c.2-.43.42-.85.65-1.25a7.56,7.56,0,0,1,2.13-2.57c.51-.33.59-.26.73-.19s.24.1.21.73a7.58,7.58,0,0,1-1.17,3.14c-.22.39-.48.78-.75,1.18h0a1.3,1.3,0,0,0,1.51,2c.47-.16.94-.32,1.39-.44a7.49,7.49,0,0,1,3.3-.33c.59.15.6.24.64.4s.08.26-.37.68a7.57,7.57,0,0,1-3,1.41,19.09,19.09,0,0,1-4.27.63,8.27,8.27,0,0,1-2.4-.29h0a1.19,1.19,0,0,0-.22-.12,1,1,0,0,0-.23-.12,8.66,8.66,0,0,1-1.45-1.94,18.91,18.91,0,0,1-1.58-4,7.57,7.57,0,0,1-.3-3.32c.14-.6.26-.61.41-.66l.1,0Zm-41.85.92a9.73,9.73,0,0,1,7.91,4.36,4.43,4.43,0,0,1,.64,2,1.94,1.94,0,0,1-.63,1.55,2.19,2.19,0,0,1-2.93.46h0a1.1,1.1,0,0,0-.22-.21h0l-.06,0A1.3,1.3,0,0,0,85.5,81.8a2.51,2.51,0,0,1-4.16,2.36,1.22,1.22,0,0,0-.24-.32l0,0,0,0a1.3,1.3,0,0,0-2.08,1.4,2.16,2.16,0,0,1-1.86,2.29,2.61,2.61,0,0,1-3.31-1.13,9.73,9.73,0,0,1-.33-8.88,1,1,0,0,0,.12-.23,9.76,9.76,0,0,1,3.88-4.11h0a1.26,1.26,0,0,0,.44-.24,9.79,9.79,0,0,1,4.67-1.09Zm24.65,3.39a6.67,6.67,0,0,1,1.73.22,8.72,8.72,0,0,1,6.31,10.11,53.5,53.5,0,0,0-3,4.66h0c-.79,1.37-1.55,2.81-2.3,4.29a31.56,31.56,0,0,0-6.31-5.78,28.72,28.72,0,0,1-6.17-5.82A11.59,11.59,0,0,1,101.87,77a9.69,9.69,0,0,1,5.33-1.86ZM93.05,80.6l1.1,1.9c2.22,3.85,5.19,6.16,7.92,8.25,2.56,2,4.9,3.71,6.6,6.38a133.31,133.31,0,0,0-5.73,14.48H82.1c-1.23-1.91-1.55-4.62-1.87-7.85-.35-3.5-.77-7.54-3-11.42h0v0L76,90.2A6.3,6.3,0,0,0,77.77,90,5.28,5.28,0,0,0,81.2,87.2a5.41,5.41,0,0,0,7-4,5.31,5.31,0,0,0,4.12-1.58,4.64,4.64,0,0,0,.75-1Zm30.37,1.72a5.53,5.53,0,0,1,2.67,1c1.6.92,2.51,1.65,2.64,3.52a12.75,12.75,0,0,1-1.3,5.41,2.54,2.54,0,0,0-.16.38c-.28.64-.59,1.31-1,2l-4-2.28h0a1.3,1.3,0,1,0-1.3,2.25l4,2.33c-.1.16-.18.32-.27.49-1.72,3-3.08,5.58-4.61,8.09l-3.86-2.57a1.26,1.26,0,0,0-.73-.23,1.3,1.3,0,0,0-.71,2.39l3.9,2.6a42.89,42.89,0,0,1-3,3.91H105.67a130.16,130.16,0,0,1,5.53-13.75h0a1.18,1.18,0,0,0,.22-.45c.16-.36.34-.71.51-1.06l3.86,2.23h0a1.3,1.3,0,1,0,1.29-2.25l-4-2.29c.46-.88.93-1.74,1.41-2.57a42.09,42.09,0,0,1,3.7-5.54L121.86,88h0a1.32,1.32,0,0,0,1,.15,1.3,1.3,0,0,0,.3-2.4L120,84a7.87,7.87,0,0,1,1.7-1.22,3.94,3.94,0,0,1,1.7-.44Zm-64.9,4.76a1.54,1.54,0,0,1,.57.08,3,3,0,0,1,1.13.77,10.68,10.68,0,0,1,1.34,2,21.14,21.14,0,0,1-3.12,1.59c-.67.27-1,.39-1.36.52h-.47a10.39,10.39,0,0,1-.4-2.92,2.08,2.08,0,0,1,1.63-1.94,2,2,0,0,1,.68-.16ZM131.45,90a17.66,17.66,0,0,1,8.76,2.24,17.41,17.41,0,0,1,7,7.8,12.82,12.82,0,0,1,1,4A2.46,2.46,0,0,1,146,102.1h0a1.29,1.29,0,0,0-2.31-.71h0s0,0,0,.06a1.32,1.32,0,0,0-.22.5,1.58,1.58,0,0,1-2,.68c-1-.27-1.48-1-1.38-1.59h0a1.29,1.29,0,0,0-2.1-1.38l0,0h0a1.41,1.41,0,0,0-.24.32,1.57,1.57,0,0,1-2.11.19,1.62,1.62,0,0,1-.93-1.88,1.3,1.3,0,0,0-1.77-1.83,1.12,1.12,0,0,0-.26.22,1.59,1.59,0,0,1-2.08-.38,3.53,3.53,0,0,1-.87-2.77A22.7,22.7,0,0,0,131,90l.49,0ZM62.73,92.1c4,8.14,9.63,13,15.72,17.46a14.14,14.14,0,0,0,.7,2H71.63A31.2,31.2,0,0,1,58.52,98.19h0a1.25,1.25,0,0,0-.16-.35,24.27,24.27,0,0,1-1.25-3.31c.16-.06.35-.12.53-.2h0l.27-.1,1.4-.55a26.18,26.18,0,0,0,3.42-1.58Zm-8,2.53a27.62,27.62,0,0,0,1,2.83,11.7,11.7,0,0,0-10,11.55h0a11.68,11.68,0,0,0,.31,2.6H43.49c-.08-.88-.14-2-.14-2.6A14.76,14.76,0,0,1,54.76,94.63Zm73.16,2.53a5.7,5.7,0,0,0,.81,1,4.66,4.66,0,0,0,3.37,1.38,4.72,4.72,0,0,0,5.82,3.36,4.58,4.58,0,0,0,2.88,2.23,4.64,4.64,0,0,0,3.65-.51,5.09,5.09,0,0,0,3.73,2h0a1.06,1.06,0,0,0,0,.19,14.7,14.7,0,0,1-1.6,4.81H119.16c.94-1.2,1.77-2.39,2.53-3.58h0l0,0c1.9-3,3.42-6,5.35-9.3.31-.53.59-1,.86-1.55Zm-71.23,2.5a32.34,32.34,0,0,0,10.65,12H48.4A9.53,9.53,0,0,1,48,109a9.34,9.34,0,0,1,8.67-9.34Zm-16.38,4.49a4,4,0,0,1,1.38.31,16.83,16.83,0,0,0-.63,4.55c0,.7,0,1.68.12,2.6H39.31a1.33,1.33,0,0,0-.28-.54c-1.67-1.89-2.42-3.68-1.8-5.35a2.68,2.68,0,0,1,1.92-1.46,3.72,3.72,0,0,1,1.16-.12ZM39,114.2h8.39a1.17,1.17,0,0,0,.74,0H81.22a1.24,1.24,0,0,0,.47,0h21.83a1.31,1.31,0,0,0,.68,0h45.72a2.51,2.51,0,0,1,0,5H39a2.51,2.51,0,0,1,0-5Zm5.1,7.61H144.82v8.39h0v0a15.37,15.37,0,0,1-15.42,15.44H59.47a15.36,15.36,0,0,1-15.42-15.44Zm5.63,3.87h0A1.3,1.3,0,0,0,48.37,127a1.27,1.27,0,0,0,.39.92,1.29,1.29,0,0,0,.92.38h17a1.3,1.3,0,0,0,.93-.38A1.26,1.26,0,0,0,68,127a1.28,1.28,0,0,0-.38-.92,1.29,1.29,0,0,0-.93-.37Zm.15,6.08h0a1.3,1.3,0,0,0,0,2.59h8.4a1.3,1.3,0,0,0,0-2.59Z"/></svg>