<svg id="Layer_1" data-name="Layer 1" xmlns="http://www.w3.org/2000/svg" viewBox="0 0 400 372.06"><defs><style>.cls-1{fill:#f7cc7f;}.cls-2{fill:#f79c8d;}.cls-3{fill:#355389;}.cls-4{fill:#f48c7f;}.cls-5{fill:#13375b;}.cls-6{fill:#86b1f2;}.cls-7{fill:#f7a491;}.cls-15,.cls-8{fill:#f47458;}.cls-9{fill:#fff;}.cls-10{fill:#3c8f7c;}.cls-11{fill:#184655;}.cls-12{fill:#b75742;}.cls-13{fill:#6394db;}.cls-14{fill:#e5b05c;}.cls-15,.cls-24{opacity:0.2;}.cls-16{fill:#f8a492;}.cls-17{fill:#50bfa5;}.cls-18{fill:#0e2e35;}.cls-19{fill:#dd513a;}.cls-20{fill:#fe875e;}.cls-21{fill:#466eb6;}.cls-22{fill:#cae1f9;}.cls-23,.cls-24{fill:#9bc1f9;}.cls-25{fill:#96d9c9;}.cls-26{fill:#e25a44;}.cls-27{fill:#66ccb2;}.cls-28{fill:#07345a;}</style></defs><path class="cls-1" d="M387.42,95.46c-8.33,6.78-20.18,14.3-29.93,17.54L372,115.73l-59.87,70.6L192.78,220.67,51.57,371.27l111.23,0,56.68-91L333,212.76l44.1-94,9.4,11.37C384.66,120,385.52,106,387.42,95.46Z"/><path class="cls-2" d="M32.5,254.89s-6.47-11.59-8-14-5.67-12.26-5.81-12.65,2.82-5,2.16-5.18-1.4,2.45-2.11,2.14-2.77-6.58-3.17-6.27c-.76.58,1.11,3.89.71,4.1s-1.62-3.64-2.41-3.53,1.5,3.53,1.28,3.83-2.6-2.91-3-2.23c-.23.37,2.19,2.81,1.72,3s-2.62-1.34-2.84-.89,2,1.08,2.65,2.3,1.79,1.75,2.26,4S17,239.94,19.44,244s7.69,13.11,7.69,13.11Z"/><path class="cls-3" d="M30.71,251.14s7.15,7.71,8.21,10.81-1,7.56-3.93,7.75S25.63,256,25.63,256Z"/><path class="cls-4" d="M64.4,307c-.52-.44-1.15-.24-3-1.08a10.74,10.74,0,0,0-1.69-.5.2.2,0,0,1-.16-.15c-.55-2.08-3-11.69-3.22-14.46S54.29,275.92,54,274.09a.22.22,0,0,0-.27-.17l-5.25,1.47a.22.22,0,0,0-.15.25c.33,1.43,2.35,10.42,2.94,15,.47,3.63,5.88,15.27,6,16v0a.44.44,0,0,0,.45.39h5.85C63.79,307,64.57,307.09,64.4,307Z"/><path class="cls-5" d="M52.71,268.91c-2.79-8.48-5.92-8.12-5.92-8.12l2.42,17.82c1.72-.47,4-1.52,5.69-2A77,77,0,0,0,52.71,268.91Z"/><path class="cls-1" d="M51.84,246.87c-.85-5.58-5.9-9.59-11.17-6.88a12.51,12.51,0,0,0-3.61,2.89c-2.22,2.85-2.78,6.36-5.07,9.12A22.51,22.51,0,0,0,35.06,254l1.42-1.9L36,254.42a34.82,34.82,0,0,0,15.38,3.05A29.45,29.45,0,0,0,51.84,246.87Z"/><path class="cls-4" d="M53.49,370.44a23.45,23.45,0,0,0-4-2.23c-.17-.08-.78-.47-1-.61a7.5,7.5,0,0,1-1.6-1.41c-.46-.52-.68-2.17-.78-3.48.26-2.93,4.51-50,5.41-55.09.93-5.26-.48-13.29-.48-13.29l-3.29-1.23-6.23,21.6L42,331.14a44.53,44.53,0,0,0-1.65,7.57c-.18,2.83,2.12,25.82,2.12,25.82h0a12.3,12.3,0,0,1-.12,2c-.17.86-1.11,2.63-.68,3.44a2.22,2.22,0,0,0,.92,1l11.2.18C54.38,371.2,54,370.8,53.49,370.44Z"/><path class="cls-2" d="M36.49,292.65s-3.89,5.86-4.81,10.72.68,19.77-1.1,26.13c-1,3.45-4.62,8.77-5.18,13.22S22.92,360,22.92,360h0a11.54,11.54,0,0,1-1.35,3.79,11.57,11.57,0,0,0-1.46,1.93,5.7,5.7,0,0,0,.19,4.42c.26.56,0,.56.57.74a3.59,3.59,0,0,0,4.32-2,10.34,10.34,0,0,0,.84-3.73,17.29,17.29,0,0,1,.62-3.95h0l12.43-30.49,9-26.31,2.31-13.55Z"/><path class="cls-6" d="M25.52,368a5.51,5.51,0,0,1-5.41-2.27,6,6,0,0,0-.51,4.43c.44,1,1.74.94,2.75,1a2.66,2.66,0,0,0,2.45-1.5A8.81,8.81,0,0,0,25.52,368Z"/><path class="cls-6" d="M48.46,367.6a10,10,0,0,1-6.37-.25,5.18,5.18,0,0,0-.52,2.67c.28.8.66,1,1,1,2.71.07,9.91.17,12,.19a.34.34,0,0,0,.26-.55C54.3,370,48.68,367.74,48.46,367.6Z"/><path class="cls-1" d="M39,330.75l.71.05h0l.7,0h0l.7,0h0l.71,0a45.91,45.91,0,0,0,8-.3c1.07-10.74,1.47-20.54,1.87-22.7,1-5.26-.84-13.57-.84-13.57l-.86-.15.54-3.07-14.44,1.82s-4,5.86-5,10.72.71,19.77-1.14,26.13C30.1,329.78,34.22,330.43,39,330.75Z"/><path class="cls-3" d="M39.64,259.27s-5.15-.33-7.18,1.9S37,281,37.34,283.83s-1.88,10.36-1.88,10.36,12.09,2.44,15.55.14c0,0,.37-20.36,0-22.38s-3.46-10.25-4.2-11.06S39.64,259.27,39.64,259.27Z"/><path class="cls-7" d="M41.35,252.38s0,.15-.07.41a38.88,38.88,0,0,1-1.71,6.48c-.72,1.37,2.47,5.73,5.54,5.2.92-.16-.77-4-.69-4.41.16-.78.37-1.85.58-2.94.12-.62.25-1.24.36-1.83l.6-3Z"/><path class="cls-8" d="M41.28,252.79c0-.26.07-.41.07-.41l4.61-.12-.6,3c-.11.59-.24,1.21-.36,1.82A4.27,4.27,0,0,1,42.81,256a5.7,5.7,0,0,1-1.67-2.48C41.2,253.23,41.24,253,41.28,252.79Z"/><path class="cls-7" d="M44.45,241.89a4.15,4.15,0,0,0-3.53,1.51c-1.36,1.76-2.82,7.22.56,10.18s6.71-.39,7.21-4S49.38,241.76,44.45,241.89Z"/><path class="cls-7" d="M49.69,249.58c-.41.78-1.08,1.22-1.51,1s-.46-1.09-.06-1.87,1.08-1.22,1.52-1S50.09,248.79,49.69,249.58Z"/><path class="cls-1" d="M44.7,241.3s-2.9,5.19-5,5.43-2.34,3-2.34,3,.74-6.34,2.79-7.57A7.68,7.68,0,0,1,44.7,241.3Z"/><path class="cls-7" d="M40.27,248c.17.92-.17,1.77-.76,1.89s-1.2-.53-1.37-1.45.17-1.76.76-1.89S40.1,247.11,40.27,248Z"/><path class="cls-9" d="M42.82,251.38,46,252a1.4,1.4,0,0,1-1.7.94C42.57,252.66,42.82,251.38,42.82,251.38Z"/><rect class="cls-10" x="298.48" y="341.72" width="1.31" height="30" transform="translate(659.49 651.48) rotate(169.26)"/><polygon class="cls-10" points="241.76 371.72 240.22 371.72 245.98 341.86 247.27 342.1 241.76 371.72"/><polygon class="cls-10" points="286.94 371.72 285.39 371.72 291.15 341.86 292.44 342.1 286.94 371.72"/><polygon class="cls-11" points="255.86 371.72 257.12 371.73 251.59 341.99 250.3 342.24 255.86 371.72"/><path class="cls-8" d="M278.13,277.15c6.86.73,15.75,1.51,24.68,16.65,9.75,16.55,4.61,41.27-3.08,48.14s-32.84,15.35-54,2.65c0,0-12.76-7.69-6.21-20.46,10.07-19.66,8.65-23.75,13.16-31.46S263.55,275.59,278.13,277.15Z"/><path class="cls-12" d="M302.81,293.8c-6.09-10.33-12.17-14-17.59-15.48a45.9,45.9,0,0,1,6.35,8.58c9.75,16.55,4.62,41.27-3.08,48.14-6.82,6.09-27.36,13.45-46.67,6.18a19.49,19.49,0,0,0,3.94,3.37c21.13,12.7,46.27,4.22,54-2.65S312.56,310.35,302.81,293.8Z"/><polygon class="cls-2" points="256.08 302.3 254.31 307.6 259.69 305.48 256.08 302.3"/><path class="cls-13" d="M261.62,286.54c-.36,0-1.34.35-2.78,3-1.83,3.46-4.51,13.9-4.51,13.9l8,3,1-2.18,1.7-16.78S261.72,286.54,261.62,286.54Z"/><path class="cls-6" d="M272.21,285a49.36,49.36,0,0,0-10.59,1.5s-1.93,16.55,1.74,29.12c.82,2.82-.68,11.67-.68,11.67l23.73-.31s-2.81-21.4-1.75-24.86,1.08-15.5,1.08-15.5l-5.33-.92A52.46,52.46,0,0,0,272.21,285Z"/><path class="cls-7" d="M275,358s-.52,6-1.49,7.71,0,4.51.1,4.9,2,1,5.18.61,3.1-1.06,2.85-2.23-1.93-2.67-2-3.78a29.17,29.17,0,0,1,1-5.13Z"/><path class="cls-14" d="M265.36,322.35s-16.38-.91-20,1.3.67,6.74.67,6.74,13.33,5.77,35.65,7.06c5.29.3,5.74-13.74,4.75-14.9S265.36,322.35,265.36,322.35Z"/><path class="cls-8" d="M279.16,371.73c3.24-.34,2.84-1.93,2.58-3.13a10.91,10.91,0,0,0-1.65-2.49,5.34,5.34,0,0,1-2.17,1.05c-1.46.43-3.47-.42-4.75-1a15.79,15.79,0,0,0-.43,4.16C272.79,370.78,275.91,372.08,279.16,371.73Z"/><path class="cls-1" d="M277.37,334c-.66,4.94-3.9,29.5-3.9,29.5l7.52.93s9.24-32.06,8.77-37-3.93-5.31-3.93-5.31S279.1,321,277.37,334Z"/><path class="cls-7" d="M286,288.49c-2.22-.83-3.31,19.09-3.6,27.29a96.06,96.06,0,0,1-12.48-.12c-.81-.06-2.66-.74-3.45-.84a7.81,7.81,0,0,0-2-.09,35.5,35.5,0,0,0-4.59,2.06c-.44.45-1.61,1.6-1.41,2.09s2.25-1.38,2.25-1.38l1-.56c-1.25,1.22-3.64,2.83-3.3,3.41s2.49-1.06,4-2.17c-1.32,1.19-3,3.31-2.58,3.64s2.2-2.16,4.19-2.87c.74-.26,1.48.47,2.06.55a4,4,0,0,0,1.5.09l2.16-.61c.73.06.75.5,1.49.65s2.28.38,3.37.65c6.32,1.53,8.42,2.25,10.36,2.25C290.9,322.52,291.24,290.45,286,288.49Z"/><path class="cls-6" d="M290.21,307.19c.41-8.39.35-18.74-4.37-20.51-1.87-.7-5.15,3.49-4.56,20.69A35.78,35.78,0,0,0,290.21,307.19Z"/><path class="cls-7" d="M253,363.2a4,4,0,0,1-.52,3.48c-1.17,1.39-6.05,2.75-6.69,3.5a2.14,2.14,0,0,0-.6,1.39l13.7-.38-.15-4.12-.63-3Z"/><path class="cls-8" d="M251.62,367.37s3.52,1.42,5.22.58,1.65-1.07,2.14-.76.67,4.53.67,4.53l-15.4.1c-1.08,0-1.62-.81-.75-1.48a14,14,0,0,1,1.68-1A48.35,48.35,0,0,1,251.62,367.37Z"/><path class="cls-1" d="M253.51,326.21c-1.06-2.22-3.47-5.11-7.7-3.37-4,1.66-5.13,5.75-3.85,9.92s9.66,28.75,10,32.13l6.7,0s-1.22-19.45-1.52-24.15A45.57,45.57,0,0,0,253.51,326.21Z"/><path class="cls-3" d="M242.63,303.59H265a1.45,1.45,0,0,1,1.35.9l6.9,16.82h12.35a.63.63,0,0,1,.62.63h0a.62.62,0,0,1-.62.62H250.48a2.46,2.46,0,0,1-2.24-1.44l-6.94-15.47A1.46,1.46,0,0,1,242.63,303.59Z"/><path class="cls-9" d="M254.69,313.38a1.23,1.23,0,1,0,.93-1.61A1.32,1.32,0,0,0,254.69,313.38Z"/><path class="cls-7" d="M274.93,278l1.1,7.22s-4,8.6-6.4,7.85c-2-.62-.77-8.23-.77-8.23s1.09-4.09.77-6.13S274.93,278,274.93,278Z"/><path class="cls-15" d="M269.63,278.66c-.33-2.05,5.3-.71,5.3-.71l.09.59a3.2,3.2,0,0,1-.61,1,7.42,7.42,0,0,1-4.92,2.23A11.31,11.31,0,0,0,269.63,278.66Z"/><path class="cls-7" d="M275.85,267.73c.16-.06,1.28,8.22-.84,10.5s-6.25,3-7.73,1.23c-1.63-2-1.55-10.89,1.74-13.23S275.85,267.73,275.85,267.73Z"/><path class="cls-1" d="M270.28,261.8a9.15,9.15,0,0,1,4.8,2.73c1.15.14,2.72.78,4.35,3.47a6.71,6.71,0,0,1-1.8,8.75,5.21,5.21,0,0,0-2.29,3.87l-.37-1.07a6,6,0,0,1-.29-2.53,4.91,4.91,0,0,1,.37-1.52c.56-1.2-1.2-2-1.69-3-.38-.77-.4-2.52-1-3.79l-.71-1a4.51,4.51,0,0,0-3.26-.92C266.78,267.19,267,261.13,270.28,261.8Z"/><path class="cls-7" d="M273.47,274c0,1,.44,1.83,1,1.84s1.08-.8,1.09-1.81-.44-1.84-1-1.85S273.49,273,273.47,274Z"/><path class="cls-9" d="M270.61,276.79l-3.19-.17a1.39,1.39,0,0,0,1.41,1.33C270.54,278.09,270.61,276.79,270.61,276.79Z"/><path class="cls-16" d="M334.22,236.52c.35,1.43,1,3.69,1,3.69-.05.62-.23,3.21-.45,6.38l4.66-1.86a49.91,49.91,0,0,1,.15-5.49c.18-.27.47.07,1.9-2a3.86,3.86,0,0,0,.49-1.64s.09-1.3-.2-1.42a.61.61,0,0,0-.74.3c-.1.22-.07.74-.18,1a1.64,1.64,0,0,1-1.06.48c-.29,0,0-3.84,0-3.84s.16-1.09.24-1.44.35-1.19.35-1.19.32-1.29-.08-1.39c-.24-.06-.84,1-1.25,2.1a22.33,22.33,0,0,1-.82,2.45c-.3,0-.14-2.14-.14-2.14a6.53,6.53,0,0,0,.29-1.42c.28-.55.46-1.58,0-1.67a9,9,0,0,0-.74,1.3s-.26.92-.4,1.35a21.68,21.68,0,0,0-.44,2.49c-.12.44-.22.26-.27.28a13.4,13.4,0,0,1,.1-1.43,8.64,8.64,0,0,1,.11-1.39,10,10,0,0,0,.2-1.46c.08-1.08-.61-1-.84,0-.09.38-.19.79-.28,1.21-.37,1.63-.36,3.19-.53,3.21s-.08-2.84-.08-2.84-.35-1.58-.7-.11a12.49,12.49,0,0,0-.35,3.15A11.91,11.91,0,0,0,334.22,236.52Z"/><path class="cls-16" d="M383.71,232.75c-.34,1.43-1,3.69-1,3.69.05.62.23,3.21.45,6.38L378.53,241a50.07,50.07,0,0,0-.16-5.49c-.17-.27-.47.07-1.9-2a4,4,0,0,1-.49-1.64s-.08-1.3.21-1.42a.6.6,0,0,1,.73.29c.11.23.08.75.19,1a1.64,1.64,0,0,0,1.06.48c.28,0,0-3.84,0-3.84s-.15-1.09-.23-1.44-.35-1.19-.35-1.19-.32-1.29.08-1.39c.23-.06.83,1,1.25,2.1a21,21,0,0,0,.82,2.44c.29,0,.14-2.13.14-2.13a6.53,6.53,0,0,1-.29-1.42c-.28-.55-.47-1.58,0-1.67a8.39,8.39,0,0,1,.74,1.29s.25.93.4,1.36c.26.76.3,2,.44,2.49s.22.26.26.27a9,9,0,0,0-.1-1.42,7.58,7.58,0,0,0-.1-1.39,10.18,10.18,0,0,1-.2-1.46c-.08-1.08.6-1,.84,0,.09.38.18.79.28,1.21.36,1.62.35,3.19.53,3.21s.08-2.84.08-2.84.35-1.58.69-.11a12.77,12.77,0,0,1,.36,3.14A12.53,12.53,0,0,1,383.71,232.75Z"/><path class="cls-7" d="M371,354.37a34.51,34.51,0,0,0,3.23,3.6c.64.39-.29,5-2,5.36-1,.17-1.54-.92-1.54-.92l.28-1.34-3.69-3.81Z"/><path class="cls-7" d="M357.64,355.16a37.4,37.4,0,0,0,2.74,4c.59.47-.93,5-2.71,5.05-1,0-1.4-1.11-1.4-1.11l.45-1.29-3.18-4.25Z"/><path class="cls-5" d="M360.25,359a25,25,0,0,1-1.91,2.2,23.29,23.29,0,0,1-2,1.61s-1.26,2.29-1.61,3.09c-.77,1.79-1.63,3.77-1.51,4.77,0,.32.76.66,1.36.48,2.5-.77,8.89-6.61,9.69-8.18C365.21,361.17,360.25,359,360.25,359Z"/><path class="cls-10" d="M342,305.55c.23-.65.45-1.25.67-1.81,2.65.58,5.65,1.22,8.74,1.87l.38,11.32c0-.88-2.32,18-2.32,18s6,13.28,10.09,21a14.19,14.19,0,0,1-4.91,4.21c-6.36-7.64-14.7-21.6-15-23.93C339.44,334.94,339.26,313.34,342,305.55Z"/><path class="cls-17" d="M365.74,308.82c-.82,8.82-2.62,25.67-2.47,27,.45,1.69,8.48,17.28,9.92,19.55-1.14,1.73-2.92,3.59-4.83,4.11-.38.1-13.62-18.75-14.34-20.24-.82-1.69-2.18-10.92-2.2-22.34l-.38-11.32C356.58,306.71,361.31,307.79,365.74,308.82Z"/><path class="cls-3" d="M348.85,268.64l6,.84,5.44.08c.6,0,4.42,22.11,5.52,30.42s.24,9.78.24,9.78-7.67,1.73-13.35,1.23c-5.9-.53-12.54-3.71-12.54-3.71s5-16,6-21S348.85,268.64,348.85,268.64Z"/><path class="cls-6" d="M334.17,241.9s-.39,16.46.23,17.72c.91,1.83,11.07,14.82,11.07,14.82s-4.85,20.32-6.9,27.33c-.2.71-1.11,5.27-1.11,5.72,0,1,4.29,2.24,4.8,2.16s4.21-19.39,6.6-28.85a27.06,27.06,0,0,1,4.1-8.93l1.67-2.37-12.77-12.8s-1.57-14.24-1.57-15.42C340.29,241,334.79,240.74,334.17,241.9Z"/><path class="cls-6" d="M360.13,269.56l15.93-16.22s2.22-15.34,2.37-15.92,4.11-.87,5.71-1c.51,0-.27,16.34-1,19.09-.9,3.25-12.94,18-12.94,18s-2.16,8-1.64,13.89c.87,9.76,3.19,23.18,2.78,23.6-2.59,1.63-12.52,1.81-13.15.79C351.22,300.61,360.13,269.56,360.13,269.56Z"/><path class="cls-5" d="M374,357.85a26.85,26.85,0,0,1-1.61,2.43,22.12,22.12,0,0,1-1.77,1.85s-1,2.43-1.2,3.27c-.54,1.87-1.14,4.12-.89,5.1.08.31.77.91,1.34.54,2.19-1.43,8-8.11,8.64-9.77C379.24,359.36,374,357.85,374,357.85Z"/><path class="cls-18" d="M355.35,248.43a17.2,17.2,0,0,0,2,0,9.28,9.28,0,0,1,2.3,0c1.17.25,3,1.08,3.66,2.62.78,1.93,3.56,1.64.27,8.93-3.73,8.26-8.08,5.56-8.14,5.37l-2.15-7s-2.6,2.58-2.56,2.46S347.21,248.13,355.35,248.43Z"/><path class="cls-7" d="M355,266.48l-.43,3.23s-1,4.65.28,5.55,5.32-5.68,5.32-5.68l-.43-8.19Z"/><path class="cls-8" d="M359.85,264a9.27,9.27,0,0,1-5.23,5.18l.36-2.74,4.74-5.09Z"/><path class="cls-7" d="M358.3,252.14a4.3,4.3,0,0,0-6.18,2.32,32.46,32.46,0,0,0-1.12,4c-.78,3.69.44,7.66,2.12,8s6.77-1.19,7.95-6.42C361.79,256.79,360.74,253.54,358.3,252.14Z"/><path class="cls-7" d="M359.75,260.2a1.4,1.4,0,0,0,.92,1.71,1.54,1.54,0,0,0,.57-3A1.4,1.4,0,0,0,359.75,260.2Z"/><path class="cls-18" d="M361.24,259s-2.08-.24-2.32-1.73-1.77-5.09-5.4-5.2,3.83-1.6,4.09-1.5l3.34,1.24s1.64,2.85,1.65,3.09-.2,2.85-.2,2.85Z"/><path class="cls-9" d="M355.83,262.74l-3.71-.64a1.65,1.65,0,0,0,1.47,1.76C355.57,264.26,355.83,262.74,355.83,262.74Z"/><path class="cls-16" d="M168.22,277.85a3.59,3.59,0,0,0,.4,1,36,36,0,0,0,3.81,5.07l2.06-4.64s-.34-1.46-.92-3.54C171.58,276.23,169.68,276.53,168.22,277.85Z"/><path class="cls-5" d="M180,273.83s-11.49,4.95-11.86,4.85-4.72-7.55-4.77-14.59c0-3.25,3.36-7.17,7.13-6.39,1.9.39,1.87.92,4.67,5S180,273.83,180,273.83Z"/><path class="cls-7" d="M189.84,362.54l-.28,4.53a24.1,24.1,0,0,0-.49,2.51c0,1.95,9.29-1.67,7.21-2.53-.19-.08-1.18-.67-1.24-1.34-.1-1-.34-3.1-.34-3.1Z"/><path class="cls-19" d="M196.25,367s-2.18.6-3.29.75-2.59-1.11-3.39-.77-.83,3.74-.83,3.74,11.7,1,15,0C205,370.33,200.71,368.42,196.25,367Z"/><path class="cls-7" d="M170.83,362.54l-.27,4.53a24.2,24.2,0,0,0-.5,2.51c0,1.95,9.29-1.67,7.21-2.53-.19-.08-1.47-1.12-1.53-1.78-.1-1-.05-2.66-.05-2.66Z"/><path class="cls-19" d="M177.25,367s-2.18.6-3.3.75-2.59-1.11-3.38-.77-.91,3.74-.91,3.74,11.75,1.12,15.06,0C186,370.27,181.71,368.42,177.25,367Z"/><path class="cls-7" d="M173.67,280.35l8.18-11.46.23-.62c.41-1.14,1.26-3.5,2-5.86v0c.23-.83.73-2.26,1.21-3.65.54-1.55,1.2-3.46,1.23-3.79l-.11-.29a25.78,25.78,0,0,1-.85-3.44c-.1-.51-.19-1.76.42-1.76,1,0,.51,1.25.95,2a19.9,19.9,0,0,0,.66-2.6l.16-2.44c0-.18-.16-1.53.51-1.53h0c.6.05.59,1.48.84,3.9.08-.28.16-.62.22-.93a8.39,8.39,0,0,1,.2-1.27c-.12-.68-.05-1.74.67-1.64.36.05.33,1.53.33,1.53,0,.21,0,1.78,0,2.09.08-.53.37-2.77.93-2.77s.5.6.49,1.08c0,.28-.3,2.71-.31,3,.22-.36.48-2.51.7-2.51.91,0,.58,3.05.24,3.84a4.14,4.14,0,0,0-.1.43,7.23,7.23,0,0,1-.78,2.26c-.57,1-1.36,2.54-1.48,2.77-.09.49-.36,2.24-.71,4.43-.15.94-.31,2-.47,3h0c0,.23-.21,1-.85,3.72a32.93,32.93,0,0,1-1,4c-.38.69-9.21,12.67-9.58,13.18l-.22.3Z"/><path class="cls-8" d="M188.89,253.62s-.66-1.7-1.85-1.7a1.36,1.36,0,0,1,1.23.21A2.3,2.3,0,0,1,188.89,253.62Z"/><path class="cls-7" d="M171.69,250.34,170.64,257s4,3.22,6.35,2.54c2-.57.62-3.14.62-3.14s-1.05-3.55-.73-5.42S171.69,250.34,171.69,250.34Z"/><path class="cls-20" d="M172.45,252.35a16.57,16.57,0,0,0,4.54,1.28,9,9,0,0,1-.11-2.65c.15-.86-.94-1.06-2.16-1-1.6.14-3,.39-3,.39l-.2,1.28A3.22,3.22,0,0,0,172.45,252.35Z"/><path class="cls-7" d="M166.63,242.65c-.17,0,1.58,7.44,4.3,8.72s6.75.62,7.51-1.39c.84-2.21-2.22-9.81-6-10.77S166.63,242.65,166.63,242.65Z"/><path class="cls-5" d="M169.76,235.81a8.53,8.53,0,0,0-3.49,3.86c-1,.49-2.25,1.53-2.84,4.34-.72,3.46,1.86,6.12,4.59,6.93s3.16,2.61,3.16,2.61l.31-2a7.59,7.59,0,0,0-1.52-2.55c-.92-.85.43-2.08.55-3.09.09-.78-.48-2.29-.35-3.57,0,0,1.52-2.3,3-2.87C175.74,238.55,172.54,234.21,169.76,235.81Z"/><path class="cls-7" d="M170.92,247.25c.35.86.21,1.71-.33,1.91s-1.25-.35-1.6-1.21-.21-1.71.32-1.9S170.56,246.39,170.92,247.25Z"/><path class="cls-16" d="M181,280.54,196.8,278s-1.79-4.53-2.43-4.53-11.94,4.93-11.94,4.93l-.9,1.81Z"/><path class="cls-11" d="M172.93,291.36s-1.57,7.61-.93,13.39.69,26.27.69,26.27l-2.45,32.81,5.81.13s6.89-32.79,6.77-31.95,2.31-23.09,2.31-23.09l-8.22-18.28Z"/><path class="cls-5" d="M174.47,291s-1,6.86.26,9.86,11,32.51,11.14,34.91,3.36,29,3.36,29l6.76-.19L197.45,335l-3.06-37.14-3-9.39Z"/><path class="cls-7" d="M170.64,257a6,6,0,0,0,3.22,1,10.61,10.61,0,0,0,3.75-1.56l-.31-1s-4-.59-4.12-.52S170.64,257,170.64,257Z"/><path class="cls-16" d="M188.4,273.22s6,5.64,8.66,4.67,3.81-4.25-2.76-9.06C188.41,264.53,188.4,273.22,188.4,273.22Z"/><path class="cls-3" d="M192.44,280.18c-.89-4.83-7.31-19.84-7.83-22.61-.25-1.34-3.71-1.37-7-1.2-3.49.19-7,.63-7,.63s-3.09.51-4.45,1.78-1.72,4.79.24,11.48c1.54,5.27,3.45,8.17,4.39,12,.2,1.29.36,2.56.58,4.05.35,5.75,0,13.34,0,13.34s16.82,3.49,23.1-1.8C194.49,297.86,193.35,285.12,192.44,280.18Z"/><path class="cls-21" d="M196.73,269.8s-6.6,5.45-7,5.45-9.42-6.75-11.53-12.28c-1.17-3.07,1.28-6.49,4.08-6.48,1.94,0,2.81.51,6.66,3.75S196.73,269.8,196.73,269.8Z"/><path class="cls-22" d="M223.9,149.71c-1.61-1.09-3.26-2.12-4.85-3.24a1.4,1.4,0,0,1-.52-1.08c.21-2.25.55-4.48.74-6.72a1.21,1.21,0,0,1,.83-1.25c2.21-.86,4.4-1.78,6.59-2.69.36-.14.71-.3,1.32-.57-1-3.36-2.08-6.69-3.14-10.11-2.83.57-5.4,1-8,1.61a1.57,1.57,0,0,1-2-.74c-1.19-1.71-2.61-3.24-3.88-4.89a1.27,1.27,0,0,1-.17-1c.87-2.25,1.73-4.5,2.74-6.68a1.37,1.37,0,0,0-.7-2.11,5.86,5.86,0,0,1-1-.76l-4.87-2.62a4.11,4.11,0,0,1-.61-.12c-2-.81-1.6-.8-2.72.85-1.37,2-2.71,4-3.88,5.81l-8.79-.82-3.44-8.33a34,34,0,0,0-10.07,3.13c.56,2.78,1.09,5.49,1.65,8.19a.94.94,0,0,1-.41,1.14c-1.86,1.39-3.69,2.83-5.45,4.35a1.1,1.1,0,0,1-1.38.21c-2.25-1-4.53-1.84-6.78-2.78a1,1,0,0,0-1.34.33,30.14,30.14,0,0,0-4.17,8.09c-.21.57.06.82.49,1.1,2,1.29,3.95,2.63,5.95,3.91a1.19,1.19,0,0,1,.64,1.43c-.4,2.57-.65,5.16-1,8l-8,3.29a31.44,31.44,0,0,0,3.06,10.22l8.64-1.77c1.66,1.91,3.16,3.74,4.78,5.45a1.52,1.52,0,0,1,.36,1.94c-1,2.14-1.82,4.31-2.69,6.48-.18.43-.52.92.15,1.28l8.15,4.31c.58.3,1,.11,1.3-.44,1.3-2,2.69-4,4-6,.49-.79,1-.82,1.83-.71a54.21,54.21,0,0,0,6.1.55,1.33,1.33,0,0,1,1.5,1c1,2.51,2,5,3,7.42,2.17,0,8.1-1.86,10.24-3.19-.56-2.67-1.1-5.38-1.71-8.07a1.16,1.16,0,0,1,.56-1.37c1.66-1.3,3.23-2.73,4.88-4a1.39,1.39,0,0,1,1.16-.22c2,.78,4,1.64,6,2.5,1.11.48,1.56.68,2,.39l4.65-8.64C225.69,150.92,225.21,150.59,223.9,149.71Zm-17.26-3a15.87,15.87,0,0,1-21.49,6.46h0a15.87,15.87,0,0,1-6.46-21.49h0a15.87,15.87,0,0,1,21.49-6.47h0a15.88,15.88,0,0,1,6.46,21.5Z"/><path class="cls-23" d="M143.12,186.68c-2.61.26-5.21.6-7.82.81a1.91,1.91,0,0,1-1.46-.68c-1.71-2.51-3.28-5.12-5-7.62a1.61,1.61,0,0,1-.2-2c1.55-2.79,3-5.63,4.53-8.45l.88-1.72-11.94-7.8c-2.45,3-4.73,5.7-6.88,8.49a2.11,2.11,0,0,1-2.68.92c-2.69-.75-5.49-1.13-8.22-1.74a1.72,1.72,0,0,1-1.08-1c-1-3.07-2.06-6.15-2.9-9.28-.4-1.5-1.13-1.88-2.53-1.58a9.24,9.24,0,0,1-1.67.05l-7.3,1.46a4.78,4.78,0,0,1-.74.39c-2.75.86-2.34.55-2.09,3.23.31,3.26.67,6.52,1,9.35l-9.84,6.7-10.71-5.7a45.56,45.56,0,0,0-7.77,11.9c3,2.4,5.84,4.75,8.74,7.08a1.26,1.26,0,0,1,.55,1.53c-.73,3-1.4,6.11-1.92,9.2a1.49,1.49,0,0,1-1.26,1.4c-3.15,1-6.28,2-9.42,2.94-.78.24-1.15.56-1.11,1.49a40.65,40.65,0,0,0,2.61,12c.28.76.77.79,1.46.71,3.17-.37,6.36-.66,9.53-1a1.59,1.59,0,0,1,1.89.93c1.79,3,3.76,5.92,5.82,9.1-1.68,3.15-3.57,6.72-5.47,10.28a42.37,42.37,0,0,0,12,8l7.44-9.25c3.38.56,6.5,1.17,9.64,1.56a2,2,0,0,1,2,1.71c.85,3,1.82,6,2.77,9,.18.59.26,1.41,1.25,1.2l12.17-2.53c.86-.18,1.07-.69,1-1.56-.39-3.22-.64-6.46-1.08-9.67-.17-1.24.35-1.72,1.3-2.31a75.13,75.13,0,0,0,6.81-4.66,1.78,1.78,0,0,1,2.44-.22c3.14,1.79,6.35,3.45,9.47,5.13,2.26-1.87,6.83-8.89,7.9-12.1-2.87-2.29-5.75-4.64-8.7-6.91a1.54,1.54,0,0,1-.59-1.9c.6-2.79,1-5.61,1.59-8.4a1.83,1.83,0,0,1,1-1.22c2.76-.91,5.56-1.72,8.35-2.54,1.56-.45,2.19-.63,2.39-1.29l-2.59-12.95C146,186.41,145.23,186.48,143.12,186.68ZM122.6,198.35a21.38,21.38,0,0,1-16.77,25.16h0a21.38,21.38,0,0,1-25.15-16.77h0a21.38,21.38,0,0,1,16.77-25.16h0a21.37,21.37,0,0,1,25.15,16.77Z"/><path class="cls-24" d="M137.69,119.36c-1-.49-2.1-1-3.14-1.47a.84.84,0,0,1-.4-.59c-.08-1.34-.08-2.68-.16-4a.7.7,0,0,1,.38-.8c1.22-.71,2.42-1.44,3.63-2.17l.72-.46L136,104.19c-1.61.58-3.08,1.09-4.53,1.65a.93.93,0,0,1-1.22-.25c-.85-.9-1.82-1.68-2.72-2.53a.76.76,0,0,1-.19-.61c.31-1.4.62-2.8,1-4.17.19-.66,0-1-.6-1.17a3.43,3.43,0,0,1-.64-.37l-3.1-1.1a2.3,2.3,0,0,1-.37,0c-1.23-.3-1-.32-1.52.75-.63,1.3-1.23,2.62-1.76,3.76l-5.25.3-2.76-4.59a20.06,20.06,0,0,0-5.64,2.74c.57,1.58,1.13,3.13,1.7,4.67a.55.55,0,0,1-.14.7c-1,1-1.92,2-2.82,3a.65.65,0,0,1-.79.24l-4.23-1a.57.57,0,0,0-.76.32,17.6,17.6,0,0,0-1.73,5.12c-.07.36.11.48.39.6,1.28.59,2.55,1.2,3.84,1.78a.69.69,0,0,1,.5.78c0,1.55.09,3.09.14,4.77l-4.4,2.64a18.47,18.47,0,0,0,2.71,5.74l4.92-1.81c1.15,1,2.19,1.91,3.29,2.78a.89.89,0,0,1,.39,1.11c-.37,1.34-.69,2.69-1,4-.06.27-.22.59.21.74l5.18,1.81c.36.13.56,0,.72-.37.58-1.31,1.22-2.59,1.79-3.91.21-.51.52-.57,1-.58a31.47,31.47,0,0,0,3.64-.22.78.78,0,0,1,1,.47c.78,1.39,1.62,2.75,2.42,4.1a18,18,0,0,0,5.74-2.79c-.56-1.52-1.12-3.06-1.72-4.59a.69.69,0,0,1,.21-.86c.86-.91,1.65-1.89,2.5-2.82a.88.88,0,0,1,.66-.23c1.26.28,2.5.61,3.74.94.7.18,1,.26,1.2,0l2-5.49C138.85,119.92,138.54,119.76,137.69,119.36Zm-10.41-.24a9.45,9.45,0,0,1-12.06,5.72h0a9.45,9.45,0,0,1-5.72-12.06h0a9.44,9.44,0,0,1,12.06-5.72h0a9.44,9.44,0,0,1,5.72,12.06Z"/><path class="cls-3" d="M121.08,369.28H118c.41-13.56.77-34.14.09-35.3a.44.44,0,0,0,.21.16l2.52-.66c.4.2.65.33.73,6.09,0,3,0,7.06,0,12.18C121.34,360.44,121.08,369.19,121.08,369.28Z"/><path class="cls-3" d="M130.18,369.11h-21a1.75,1.75,0,0,0-1.74,1.75h0a.3.3,0,0,0,.3.31h23.84a.31.31,0,0,0,.31-.31h0A1.75,1.75,0,0,0,130.18,369.11Z"/><path class="cls-3" d="M120.74,367.39h-2.57a1.37,1.37,0,0,0-1.37,1.37h0a1.37,1.37,0,0,0,1.37,1.38h2.57a1.38,1.38,0,0,0,1.38-1.38h0A1.37,1.37,0,0,0,120.74,367.39Z"/><rect class="cls-5" x="45.2" y="309.34" width="1.24" height="61.79"/><path class="cls-5" d="M108.94,275.15a16.63,16.63,0,0,1,1.51-8,6.8,6.8,0,0,1,6.06-3.45c7.58,0,8.54,10,13.36,13.85,1.47,1.18,3.12,2.14,4.51,3.42,5.15,4.69,2.83,13.39-1.89,17.5-3.28,2.86-8.44,4.49-12.48,2.25a12.63,12.63,0,0,1-4.85-5.23,71,71,0,0,1-3.82-9.7A36.06,36.06,0,0,1,108.94,275.15Z"/><path class="cls-4" d="M88,303.93l16.48-4.6s3.48-4.66,7.94-10.92c1.46,1.44,2.27,3.67,3.75,5.1L105.3,305.57a2.09,2.09,0,0,1-1.54.69l-15.15.05-5.18.41v-3.31Z"/><path class="cls-25" d="M111.77,300.43s5.65-5.8,7.11-8.32-1-.88-3.49-1.55c-1-.25-.71-5.79-2.5-4a83,83,0,0,0-6.62,8.13Z"/><path class="cls-17" d="M119.81,284s5.08-1,7.39.93-.49,19.14-.49,22,1.59,10.92,1.59,10.92-15.39,2.69-17.83-1.59c0,0-.69-16.32-.59-18.37s2.38-10.44,3-11.34S119.81,284,119.81,284Z"/><path class="cls-7" d="M119.84,276.17l.08.41a38.88,38.88,0,0,0,1.71,6.48c.73,1.37-2.48,5.72-5.56,5.19-.91-.16.78-4,.7-4.41-.16-.78-.37-1.84-.59-2.93-.12-.61-.24-1.24-.36-1.82l-.6-3Z"/><path class="cls-8" d="M119.92,276.58l-.08-.41-4.62-.11.6,3c.12.58.24,1.2.36,1.81a4.34,4.34,0,0,0,2.21-1.1,5.94,5.94,0,0,0,1.67-2.48C120,277,120,276.78,119.92,276.58Z"/><path class="cls-7" d="M116.73,265.7a4.19,4.19,0,0,1,3.55,1.51c1.36,1.76,2.83,7.21-.56,10.17s-6.74-.39-7.23-3.95S111.8,265.57,116.73,265.7Z"/><path class="cls-7" d="M111.48,273.38c.41.78,1.09,1.22,1.52,1s.46-1.09,0-1.87-1.08-1.22-1.51-1S111.08,272.59,111.48,273.38Z"/><path class="cls-5" d="M116.49,265.12s2.91,5.18,5,5.41,2.35,3,2.35,3-.74-6.35-2.8-7.57A7.67,7.67,0,0,0,116.49,265.12Z"/><path class="cls-7" d="M120.93,271.84c-.17.92.17,1.76.76,1.88s1.21-.53,1.38-1.45-.18-1.76-.76-1.88S121.1,270.92,120.93,271.84Z"/><path class="cls-4" d="M101.36,357.13s4.67,5.6,4.7,6.09-.18,5.8-.74,6.29-2.18.83-1.66,1.38,3.45.33,5.47.22c.59,0,1.33-4.74,1.56-5.44.34-1,1.17-3.27.86-4a5.82,5.82,0,0,0-1.89-1.69c-1.06-.69-5.14-6.37-5.14-6.37Z"/><path class="cls-12" d="M109.6,360s-3.14,8.83-4.36,9.26c-.33.11-1.89.4-2.19,1.09a3,3,0,0,0,0,.91h6.54s.82-3.89,1.15-5.6c0,0,1.73-4.18,1.54-4.56S109.6,360,109.6,360Z"/><path class="cls-7" d="M73.39,359.82s-3.81,5.37-3.48,7.07c.18.91,1,2.1.52,2.95a2.28,2.28,0,0,1-1,1.07l-11.9.2c-.65,0-.22-.41.3-.79A24.06,24.06,0,0,1,62.13,368c.18-.08.83-.49,1.06-.64a7.93,7.93,0,0,0,1.7-1.5c.86-.94,4.61-8.68,4.61-8.68Z"/><path class="cls-12" d="M63.19,367.31a10.81,10.81,0,0,0,6.78-.26c.33.95.78,2.14.54,2.82-.29.84-.7,1-1.06,1-2.88.08-10.53.18-12.72.21a.36.36,0,0,1-.28-.59C57,369.89,63,367.46,63.19,367.31Z"/><path class="cls-12" d="M87.18,326.7a85.56,85.56,0,0,0,5.93,6.24c1.21.85,12.76,22.14,12.76,22.14l-4.11,3s-10.33-12.88-15.19-19.77c-4.1-5.83-2.59-5.46-5-9a4.72,4.72,0,0,1,.73-6.17c.21-.2.45-.41.71-.62,3.57-3,28-6.33,28-6.33l15.66,1.54s-12.79,9-13.27,9.21-17.66,2.74-18,2.74S87.18,326.7,87.18,326.7Z"/><path class="cls-8" d="M128.3,317.87s2.68,8.05-1.34,11.81S99,333,91.12,333c0,0-3.22,8.83-3.58,10.27s-16,19.93-16,19.93l-4.3-2.75s16.83-32.7,18.14-34.13,20-7.16,24.71-8.47S128.3,317.87,128.3,317.87Z"/><path class="cls-7" d="M97.16,303.37l14.29-3.16s5.17-6.64,10.13-12.35c1.46,1.44,2.28,3.66,3.75,5.09L114.42,305a2.07,2.07,0,0,1-1.54.69l-15.15.05-5.18.41v-3.32Z"/><path class="cls-25" d="M120.89,299.87s5.66-5.8,7.11-8.32.38-6.74-2.12-7.4-10.49,10-10.49,10Z"/><path class="cls-12" d="M67.81,287.11H91.37a1.54,1.54,0,0,1,1.43.95l7.25,17.7h13a.65.65,0,0,1,.66.66h0a.65.65,0,0,1-.66.65h-37a2.58,2.58,0,0,1-2.36-1.52L66.4,289.27A1.54,1.54,0,0,1,67.81,287.11Z"/><path class="cls-9" d="M80.5,297.41a1.3,1.3,0,1,0,2.52-.5,1.3,1.3,0,1,0-2.52.5Z"/><path class="cls-11" d="M115.53,310.06H45.12a1.49,1.49,0,0,1-1.49-1.49h0a1.49,1.49,0,0,1,1.49-1.5h70.41a1.5,1.5,0,0,1,1.49,1.5h0A1.49,1.49,0,0,1,115.53,310.06Z"/><path class="cls-9" d="M115.42,275.42l3.2-.17a1.4,1.4,0,0,1-1.42,1.33C115.49,276.72,115.42,275.42,115.42,275.42Z"/><path class="cls-3" d="M105.43,333.85l1.45-6a9.73,9.73,0,0,1,9-7.43l18.26-.74.56-1.86-18.9.77a11.57,11.57,0,0,0-10.75,8.83l-1.53,6.38Z"/><path class="cls-11" d="M129.93,330.65s-25.09.43-27.71,0-3.74,2.85-3,4.57,2.93,2.38,6.09,2.54,29.48.9,30.22.19,8.58-27.84,11.48-37.82a3.76,3.76,0,0,0-2.55-4.66h0a3.77,3.77,0,0,0-4.67,2.52Z"/><rect class="cls-5" x="114.29" y="309.34" width="1.24" height="61.79"/><rect class="cls-5" x="45.2" y="313.34" width="70.03" height="0.66"/><path class="cls-26" d="M302,12s9.1,5.89,31.52,5.09c0,0-24,9.07-33.43,10.48L296.2,12.32Z"/><path class="cls-12" d="M306.27,19.72a23.26,23.26,0,0,1-6.2,7.88l-2-8,.13-3.85Z"/><path class="cls-8" d="M271.69,3.32S298,1.54,302,3l4.23,16.68s-15-1.28-29.53,3.58Z"/><path class="cls-4" d="M255.86,189.23s-1.26,2.07-1.15,2.68,1.64,7.09,2.47,7.52,3,.34,2.49,1.18c-.36.64-4.16,1.48-6.69,2-.74.14-3.12-5.44-3.63-6.22-.73-1.14-2.46-3.68-2.3-4.64a7.54,7.54,0,0,1,1.8-2.69,11.76,11.76,0,0,0,1.88-3.39Z"/><path class="cls-7" d="M274.24,188.64l-.43,4.64a30.08,30.08,0,0,0,.2,3.09c.58,2.3,9.87-4.57,7.29-5A2.56,2.56,0,0,1,280,190a5.56,5.56,0,0,1,.19-2.94Z"/><path class="cls-10" d="M270.47,105.39s2.69,7.43,2.72,7.54c3.12,12.33,11.65,35.78,11.78,38.21.29,5.94-4.61,37.86-4.61,37.86l-6.79.88-.15-36.69-6.67-13.09-11.43-26.33Z"/><path class="cls-17" d="M250.05,117.73l.58,7.54,4.14,30.57-5.54,32.31s2.89,3.77,5.71,3.68l13-35L271,115.44l-2.59-8.36Z"/><path class="cls-5" d="M248.92,189s6.64,9.93,8.28,10.07c.44,0,2.47-.09,3.05.67a9.65,9.65,0,0,1,.54,1.38l-8.32,2.39s-2.25-5.16-3.19-7.17c0,0-3.45-4.62-3.33-5.15S248.92,189,248.92,189Z"/><path class="cls-5" d="M273.59,197.55l.26-4.32s2.76.42,4-.07,3.46-1.81,3.46-1.81c5.39.38,9.67.14,9.26,1.65h0Z"/><path class="cls-4" d="M286.48,80.33l3.59,2.75c.69-.53,2.2-2.77,3.18-3.47L290,76h0a1,1,0,0,1-.38-.86,2.93,2.93,0,0,1,.09-.55c.1-.28.19-.62.3-.91s-.58-.85-.93-.95-.48,1.27-.63,1.67a43.77,43.77,0,0,0-1.14,5.13Z"/><path class="cls-5" d="M290.46,82.73c-1-1.07-2.43-1.68-3.49-2.79L271,90.91s-12.32-14.57-19-9.41a112.79,112.79,0,0,0,8.27,11.91c4.09,5.06,10.34,7.48,11.56,6.92S290.1,83.17,290.46,82.73Z"/><path class="cls-16" d="M220.77,46.27c.53,1.4,1.44,3.61,1.44,3.61,0,.64.15,3.28.32,6.51L227,53.93a51.57,51.57,0,0,1-.51-5.56c.14-.29.48,0,1.68-2.23a4.11,4.11,0,0,0,.29-1.72s-.07-1.33-.38-1.41a.62.62,0,0,0-.71.39c-.07.24,0,.76-.06,1a1.65,1.65,0,0,1-1,.62c-.29,0-.43-3.89-.43-3.89s0-1.11.06-1.48.21-1.25.21-1.25.16-1.34-.25-1.39c-.25,0-.73,1.1-1,2.28a22.68,22.68,0,0,1-.53,2.57c-.3,0-.4-2.14-.4-2.14a7.08,7.08,0,0,0,.12-1.47c.21-.59.28-1.66-.23-1.69a8.36,8.36,0,0,0-.59,1.4s-.15,1-.25,1.42c-.17.8-.06,2-.14,2.57s-.18.29-.23.31a13.38,13.38,0,0,1-.07-1.45,7.26,7.26,0,0,1-.06-1.42,10.86,10.86,0,0,0,0-1.5c-.05-1.1-.73-.91-.85.13,0,.39-.09.82-.13,1.25-.17,1.69,0,3.27-.15,3.31s-.42-2.86-.42-2.86-.55-1.55-.72,0a12.39,12.39,0,0,0,0,3.22A12.05,12.05,0,0,0,220.77,46.27Z"/><path class="cls-8" d="M252.22,59.69A2.6,2.6,0,0,0,248,60.76a1.93,1.93,0,0,0-2.45,1s-2.78-.49-2.95,3.61c0,0-1.41-.1-1.39,1.57a4,4,0,0,0,1,2.65A2,2,0,0,0,242,71.7,1.88,1.88,0,0,0,243.52,73s.55,2.13,1.57,2.67a3.05,3.05,0,0,0,2.25.07,1.46,1.46,0,0,0,1.57.89c1.08-.23,2.31-1.44,3.59-1.12s4.4-.56,4.4-.56,3.38-2,1.87-5.54a2.68,2.68,0,0,0-.22-3.75s.82-3.33-1.78-4.92A6.23,6.23,0,0,0,252.22,59.69Z"/><path class="cls-1" d="M259.87,82.69l-5.5-2.83-5.49.79c-.61.07-1.75,22.84-1.85,31.37s.95,9.92.95,9.92,8,.8,13.64-.4c5.9-1.25,12.22-5.28,12.22-5.28s-7-15.52-8.67-20.44S259.87,82.69,259.87,82.69Z"/><path class="cls-5" d="M249.09,80.59,231,66.14s-4.11-15.23-4.34-15.79-4.26-.38-5.89-.34c-.52,0,2.27,16.47,3.37,19.16,1.31,3.17,15.28,16.64,15.28,16.64s3.16,7.82,3.35,13.82c.32,10-.39,23.82.08,24.19,2.82,1.33,12.87.29,13.39-.81C261.9,110.87,249.09,80.59,249.09,80.59Z"/><path class="cls-7" d="M253.89,76.9l.83,3.17s1.53,4.52.39,5.57-6-5-6-5l-.55-8.21Z"/><path class="cls-8" d="M248.73,75.06a9.37,9.37,0,0,0,5.86,4.53l-.7-2.69-5.34-4.5Z"/><path class="cls-8" d="M241.22,67.66c.15,1.24,1,2.17,1.85,2.06s1.45-1.2,1.3-2.44-1-2.17-1.85-2.06S241.07,66.42,241.22,67.66Z"/><path class="cls-8" d="M245.37,62.25c.08.72,1,1.19,2.07,1.06s1.86-.81,1.77-1.52-1-1.19-2.08-1.06S245.28,61.54,245.37,62.25Z"/><path class="cls-7" d="M250.4,63.48a4.34,4.34,0,0,1,6,2.75,34.07,34.07,0,0,1,.85,4.09c.52,3.75-1,7.65-2.69,7.85s-6.73-1.65-7.54-7C246.56,67.91,247.85,64.72,250.4,63.48Z"/><path class="cls-7" d="M248.38,71.47A1.26,1.26,0,1,1,247,70.11,1.4,1.4,0,0,1,248.38,71.47Z"/><path class="cls-8" d="M257.57,60.71c1.94,1.19,2.81,3.24,2,4.58s-3.12,1.47-5,.29-2.81-3.24-1.95-4.58S255.64,59.53,257.57,60.71Z"/><path class="cls-8" d="M253.1,62.42c.07.6-.6,1.19-1.51,1.29s-1.69-.29-1.77-.9.6-1.19,1.51-1.29S253,61.81,253.1,62.42Z"/><path class="cls-8" d="M258.54,66.5A1.41,1.41,0,1,1,257,65.26,1.42,1.42,0,0,1,258.54,66.5Z"/><path class="cls-5" d="M264.46,86.08s7.64,18,10.36,24.42c.29.69,1.77,5.19,1.82,5.64.12,1-4.06,2.78-4.59,2.77s-6.62-19.08-10.19-28.34A27.59,27.59,0,0,0,256.62,82l-1.73-1.43-.17-.54S262.48,80.76,264.46,86.08Z"/><rect class="cls-5" x="285.75" y="-1.77" width="1.41" height="126.86" transform="translate(-6.37 72.2) rotate(-14.21)"/><path class="cls-7" d="M293.92,78a3.91,3.91,0,0,0-.25-.83,2.37,2.37,0,0,0-.47-.76,1.28,1.28,0,0,1-.24-.5.78.78,0,0,0-.11-.2h0a2.05,2.05,0,0,0-.47-.46,2.13,2.13,0,0,1-.51-.55,1.63,1.63,0,0,0-.57-.5c-.22-.11-.4-.11-.48,0-.37.65-2.25,2.71-1.49,3.7A21.7,21.7,0,0,1,291,80c.23.54,1.06.5,1.55.31A1.87,1.87,0,0,0,293.92,78Z"/><rect class="cls-11" y="370.64" width="400" height="1.42"/><path class="cls-8" d="M265.9,54.15a.28.28,0,0,1,.45-.07l.6.61c.44.45.45.48.51.47s.17-.31.16-.42a3.26,3.26,0,0,1-.07-.7.52.52,0,0,1,.87-.39c.34.29.68.59,1,.9,0-.51,0-1,.07-1.51a.2.2,0,0,1,.33-.15l1.53,1.19c.08.06.41.39.5.33s.08-.4.09-.48c.05-.43.07-.58.25-2a.23.23,0,0,1,.39-.11c1.08,1.28,1.24,1.15,1.34,1.53a.11.11,0,0,1-.13.14c-.21,0-.26,0-.79-.56l-.41-.41c-.19,1.7-.2,2.13-.63,2.26s-.34,0-2.07-1.36c0,.53,0,1.05-.06,1.58a.23.23,0,0,1-.38.17c-1.23-1-1.23-1.1-1.36-1.16s0-.09,0,0,.17.71,0,1.11a.69.69,0,0,1-.91.45c-.22-.11-.28-.22-.94-.85A6.24,6.24,0,0,1,265.5,56a1,1,0,0,1-.44.33.25.25,0,0,1-.31-.29C264.91,55.51,265.34,55.4,265.9,54.15Z"/><path class="cls-27" d="M260.2,47.9a7.32,7.32,0,0,0,1.41.12c.09,0,.26,0,.32-.07s-.23-.57-.4-1.44c-.07-.38-.26-1.16.25-1.32a3.53,3.53,0,0,1,.86,0h.61c-.36-1.42-.45-1.34-.3-1.66a.18.18,0,0,1,.24-.07c.29.19.2.15.68,1.93a.28.28,0,0,1-.25.36c-.28,0-1.53-.11-1.69-.09,0,0,0,.08,0,.09a4.62,4.62,0,0,0,.42,1.63c.17.44.15,1-.41,1.17a5.74,5.74,0,0,1-1.41,0c.25.87.51,1.73.76,2.6,0,.17-.08.41-.28.39-.56,0-1.12-.08-1.68-.11a5.46,5.46,0,0,0,.69,1.44c.22.32-.23.72-.74-.14a4.92,4.92,0,0,1-.64-1.53.31.31,0,0,1,.28-.39c.56,0,1.11,0,1.67.09-.25-.87-.48-1.74-.72-2.6A.29.29,0,0,1,260.2,47.9Z"/><path class="cls-28" d="M247.21,43.08a.28.28,0,0,1-.28-.27,6.41,6.41,0,0,1,0-2.27c.08-.4.65-.25.6.14a7.63,7.63,0,0,0-.08,1.85,6.64,6.64,0,0,0,1.33-.17.29.29,0,0,1,.37.27c0,.49-.19,2.34-.21,2.36s0,0,0,0c.2,0,.86-.1,1.16-.08s.45.48.46.75c0,.57-.38,1.18-.18,1.73s1,0,1.64.38c.47.33.31.89.11,1.78,0,.21-.1.43-.31.53a.14.14,0,0,1-.17,0c-.24-.27-.12-.58,0-1.39,0-.11.09-.28,0-.37-.24-.31-.94.13-1.5-.24a1.29,1.29,0,0,1-.44-1.33c.06-.38.29-.84.17-1.22-.32,0-.65,0-1,0a.54.54,0,0,1-.6-.55,9.55,9.55,0,0,1,.07-1.2c0-.27.05-.53.07-.8A7.37,7.37,0,0,1,247.21,43.08Z"/><path class="cls-10" d="M270.42,62.52c1.33,1.71.07,2.55-.49,2a.48.48,0,0,1,0-.77c.13-.08.34.05.29.21s.1.16.16,0-.05-.42-.13-.58c-.19-.39-.43-.88-.9-1-.71-.11-1.47.59-1.08,1.67a1.9,1.9,0,0,0,3.52-.09,2.31,2.31,0,0,0-.82-2.4c-.14-.11,0-.3.17-.24a2.31,2.31,0,0,1,1.06,2.89,2.35,2.35,0,0,1-2.63,1.39,2.21,2.21,0,0,1-1.92-2.39A1.53,1.53,0,0,1,270.42,62.52Z"/><path class="cls-1" d="M242.78,48.18c.18.28.29.85-.09,1a.31.31,0,0,1-.45-.18c-.06-.19,0-.38-.13-.53a.41.41,0,0,0-.52,0c-.44.36-.32,1.14-.1,1.58a1.06,1.06,0,0,0,1.84.11,2.69,2.69,0,0,0,.26-.77c0-.14.27-.21.34,0a1.4,1.4,0,0,1-.63,1.66,1.65,1.65,0,0,1-1.81,0,2.18,2.18,0,0,1-.85-1.86C240.69,47.75,242.18,47.28,242.78,48.18Z"/><path class="cls-9" d="M174.86,249a1.38,1.38,0,0,0,1.89.41c1.54-.76.93-1.92.93-1.92Z"/><path class="cls-9" d="M252.62,74a1.4,1.4,0,0,0,1.53,1.19c1.72,0,1.67-1.33,1.67-1.33Z"/></svg>