<svg id="Layer_1" data-name="Layer 1" xmlns="http://www.w3.org/2000/svg" xmlns:xlink="http://www.w3.org/1999/xlink" viewBox="0 0 589.45 490.73"><defs><style>.cls-1{fill:none;}.cls-2{fill:#d3d3d3;}.cls-3{fill:#5ddbf8;}.cls-4{clip-path:url(#clip-path);}.cls-5{fill:#00bb7a;}.cls-6{opacity:0.14;}.cls-7{fill:#223663;}.cls-8{fill:#90979d;}.cls-9{fill:#9facb5;}.cls-10{fill:#0d1b32;}.cls-11,.cls-12,.cls-28{fill:#f2f2f2;}.cls-12{opacity:0.1;}.cls-13{fill:#cb7b27;}.cls-14{fill:#f09c3d;}.cls-15{fill:#939393;}.cls-16{fill:#b2b2b2;}.cls-17{fill:#bfc3c5;}.cls-18{fill:#afafaf;}.cls-19{fill:#8196cc;}.cls-20{opacity:0.31;}.cls-21{fill:#fff;}.cls-22{opacity:0.46;}.cls-23{fill:#e77b92;}.cls-24{fill:#ff8a9f;}.cls-25{fill:#ffb5c8;}.cls-26{opacity:0.12;}.cls-27{fill:#ffa8bf;}.cls-28{opacity:0.2;}.cls-29{fill:#00a166;}.cls-30{fill:#00ca83;}</style><clipPath id="clip-path"><path class="cls-1" d="M103.28,186.33A180.37,180.37,0,0,0,77.34,279.9c0,99,79.06,179.22,176.59,179.22s176.6-80.24,176.6-179.22a180.35,180.35,0,0,0-25.87-93.44Z"/></clipPath></defs><path class="cls-2" d="M439.51,287.52c0,99.12-79.18,179.48-176.85,179.48S85.8,386.64,85.8,287.52a180.52,180.52,0,0,1,31.37-102.09h291A180.52,180.52,0,0,1,439.51,287.52Z"/><path class="cls-3" d="M103.28,186.33A180.37,180.37,0,0,0,77.34,279.9c0,99,79.06,179.22,176.59,179.22s176.6-80.24,176.6-179.22a180.35,180.35,0,0,0-25.87-93.44Z"/><g class="cls-4"><path class="cls-5" d="M222.08,354.88a23.92,23.92,0,0,0-7.25-2.51l-4.78-1.07-13.84-3.06c-1.83-.41-4-1.17-4.37-3-.21-1.1.34-2.18.59-3.27s0-2.52-1-2.86c-1.08-3.07-4.36-5-7.3-6.27s-6.12-2.13-8.85-3.85a15.91,15.91,0,0,1-5.79-6.56c-2-4.14-8.75-4-13.25-3.5a34.87,34.87,0,0,0-5.51,1.17L140,322.94l-1.14.28h0l-.14,0c-.31.07-.62.13-.94.18a12.4,12.4,0,0,1-7.51-1.16h0a9.32,9.32,0,0,1-2.87-2,7.8,7.8,0,0,1-1.93-4.93,35.26,35.26,0,0,1,0-5.34c.12-1.48-1.34-2.65-2.77-2.94a33.65,33.65,0,0,0-4.38-.06c-1.46-.1-3.07-.78-3.51-2.2a4.6,4.6,0,0,1,.26-2.68c.71-2.19,1-5,2.92-6.29,1.13-.77,2.46-1.88,2.11-3.21a2,2,0,0,0-1.74-1.38,3.9,3.9,0,0,0-2.25.52c-3.65,1.87-5.86,6.47-9.91,7-3.4.48-6.56-2.37-7.7-5.66s-.89-7-.74-10.52a9,9,0,0,1,6.41-8.11,29.52,29.52,0,0,1,5.32-.52c1.78-.13,3.26-1.24,4.93-1.87a8.07,8.07,0,0,1,7.3.93c3.28,2.28,4.41,6.59,6.7,9.9.62.89,1.59,1.81,2.62,1.52a2,2,0,0,0,1.27-2c0-.84.11-1.94.07-2.77a34,34,0,0,1,.09-6.69,11.36,11.36,0,0,1,2.6-6.05c2.39-2.65,6.59-3.46,7.43-6.95.67-2.8,2.91-4.92,5.25-6.55s4.92-2.95,6.91-5c1.66-1.72,2.6-3.95,3.69-6.1a10.34,10.34,0,0,1,7.57-5.5c2.27-.34,5-.08,6.39-1.91,1.1-1.43.78-3.54-.13-5.09a32.25,32.25,0,0,0-3.48-4.1c-1.16-1.37-2.15-3.06-1.91-4.85A5.38,5.38,0,0,1,170,217a12.89,12.89,0,0,1,5.15-.92c3.17-.06,6.42.19,9.42-.82s5.77-3.72,5.62-6.93c-.14-3-2.65-5.28-4.79-7.39A13.05,13.05,0,0,1,183,197.7a.91.91,0,0,1-.08-.13c-.07-.12-.1-.24-.16-.36l-.15-.33a14,14,0,0,1-.87-7.64c.09-1.12,0-2.45-.9-3.09-1.1-.78-2.61,0-3.61.9s-2,2-3.37,2c-1.66,0-2.78-1.84-2.93-3.52s.33-3.37.23-5c-.17-3-2.85-4.8-5.1-6.71a5.35,5.35,0,0,0-5.85-.94,8.28,8.28,0,0,0-2.87,3.44c-1.49,2.67-3,5.44-3.26,8.5-.17,2.21.36,4.44.14,6.65a8.91,8.91,0,0,1-1.15,3.51s0,0,0,0c-1,1.54-2.51,4.27-2.6,5.57a25,25,0,0,1-1.24,6,3.53,3.53,0,0,1-1.48,2.15,2.61,2.61,0,0,1-3.18-1.27,9.56,9.56,0,0,1-.94-3.65A28.44,28.44,0,0,0,128.81,183c-3-1.54-3.85-5.83-2.62-9.05s3.95-5.57,6.62-7.71c5.11-4.08,10.5-7.4,15.75-11.3l6.32-4.71c1.9-1.42,3.91-3,4.68-5.25a31.11,31.11,0,0,0,.66-3.74,4.34,4.34,0,0,1,1.93-3.12c1.88-1,4.07.54,5.53,2.09,2.15,2.28,3.5,5.1,5.09,7.81l0,0c2.17,3.79.28,6.6-1.52,7.6h0l-7.66,4.24c-1,.56-2.2,1.51-1.87,2.63s2,1.23,3.18,1.4a8.09,8.09,0,0,1,5.23,3.54c1.26,1.77,2.85,3.67,3.34,5.8a3.64,3.64,0,0,0,4.12,2.54,5,5,0,0,0,3.68-3.53A8.39,8.39,0,0,0,181,167c-.61-1.69-.59-3.85-1.92-5a1.56,1.56,0,0,1,.58-2.54,2.27,2.27,0,0,1,2.14.86c.55.6.95,1.34,1.54,1.89a4.11,4.11,0,0,0,3.93.65c.7-.29,2-1.27,1.21-3.88h0q-1.46-4.46-2.89-8.91c-.93-2.85-1.85-5.7-2.78-8.55a10.2,10.2,0,0,0-3.95-5.76,28.44,28.44,0,0,1-9.73-10.21,29.12,29.12,0,0,0-3.22-5.31c-1.37-1.56-4.12-4.06-5.83-2.89a18,18,0,0,0-6.87,9.27,7.55,7.55,0,0,0-.29,4.5c.47,1.5,1.64,2.64,2.51,3.95a5,5,0,0,1,.31,4.47,10.9,10.9,0,0,1-1.74,3.37,3.53,3.53,0,0,1-3.33,1.32c-1.55-.36-2.43-2-2.91-3.53a18.27,18.27,0,0,1-.53-7.18q.5-5.45,1-10.89a5.64,5.64,0,0,1,.91-3.11c1-1.21,2.72-1.35,4.24-1.66s3.25-1.22,3.29-2.79a2.47,2.47,0,0,0-1.35-2.12,3.91,3.91,0,0,0-2.55-.28c-2.65.52-4.59,2.8-6.05,5.1-2.36,3.72-2.5,8.44-4.51,12.37a13.53,13.53,0,0,0-1,6.23,16,16,0,0,1-.83,6.29c-.83,2-2.78,3.59-4.86,3.32-1.93-.25-3.3-2-4.76-3.28-2.2-2-5.33-2-8-3.28-1.16-.54-2.49.08-3.59.74s-2.34,1.38-3.56,1-1.73-1.41-2.47-2.26c-2-2.31-5.38-2.07-8.33-2.77a4.19,4.19,0,0,1-1.65-.66,1.47,1.47,0,0,1-.54-1.6A1.87,1.87,0,0,1,104,133a3.48,3.48,0,0,0,1.62-.59,1.74,1.74,0,0,0,.28-1.92,17.09,17.09,0,0,0-4.86-4.58h0a27.26,27.26,0,0,1-2.58-1.67l0,0a.9.9,0,0,1-.1-.09h0a5.3,5.3,0,0,0-2.26-.95,5.84,5.84,0,0,1-3.19-1.25c-.82-.83-1-2.1-1.57-3.11a5.78,5.78,0,0,0-4.12-2.63c-1.66-.28-3.53-.73-5.13-.24a58.67,58.67,0,0,1-7.46,1.9,8.29,8.29,0,0,1-3.29,0c-1.07-.25-1.9-1.57-2.76-2.27-5.93-4.79-12.49-9.42-16.36-16a11.17,11.17,0,0,0-6.27-5c-2.6-.8-6-1.3-8.17.34l-6.64,5a8.68,8.68,0,0,1-3.23,1.77c-1.33.3-2.85,0-4,.8a3.21,3.21,0,0,0-1.2,2.4,6.76,6.76,0,0,0,0,2.87c1.11,3,2.09,6.92.73,9.76-.55,1.15-2.08,1.45-3.31,1.15s-2.3-1-3.5-1.43a6.74,6.74,0,0,0-5.68.75c-1.66,1.08-2,2.9-2.63,4.8a3.11,3.11,0,0,0,1.46,3.6c2.12,1.1,5.06-.89,7.34-.22.63-.26,1.33.41,1.36,1.09a2.76,2.76,0,0,1-.8,1.84c-2.27,2.77-5.64,4.33-8.84,5.9s-6.81,3.31-8.13,6.67a8.07,8.07,0,0,0,.43,6.74c.39.71.89,1.36,1.21,2.1s.82,1.91.27,2.51a2.75,2.75,0,0,0-.53,2.67A2.35,2.35,0,0,0,4.29,157a6.78,6.78,0,0,1,2.41.45,2.42,2.42,0,0,1,1.49,1.84c.13,1.19-.88,2.15-1.79,2.9L1,166.6c-.51.43-1.08,1-1,1.64a1.37,1.37,0,0,0,1.3,1.11,3.86,3.86,0,0,0,1.78-.4c2.63-1,5.16-2.51,7.92-3.09,2.29-.47,3.91-2.59,4.82-4.77s1.36-4.56,2.45-6.66A11.83,11.83,0,0,1,23,149.56a3.28,3.28,0,0,1,2.54-.51,1.47,1.47,0,0,1,.75,2.09,8.93,8.93,0,0,1-2.47,2.62,5.41,5.41,0,0,0-2.08,2.9c-.23,1.2.33,2.05,1.53,2,1.79.28,3.42-1,4.73-2.25s2.9-2.78,4.71-2.78c5.17,0,9.36,5.32,12.82,9.23,2.63,3,5.25,6.09,6.86,9.75,2.84,6.46,4.07,14.08,2.12,20.88a11.2,11.2,0,0,0,3,11c1,.94,2.25,1.76,2.7,3.07a6.24,6.24,0,0,1-.52,4.11C57,219,53.11,225.81,52.19,233.61c-.86,7.23-.95,15.48,3.62,21.1,5.06,6.22,6.57,13.92,8.89,21.64a39.22,39.22,0,0,0,4.77,10.22c.64,1,1.48,2,2.64,2.07a2,2,0,0,0,1.78-1,4.48,4.48,0,0,0,.07-2.36,11.53,11.53,0,0,0-2.2-4.8c-2.09-3.23-5.16-6.94-5.39-10.8L66.16,266a2.71,2.71,0,0,1,.09-1.1.9.9,0,0,1,.81-.64c.37,0,1.2.55,1,.88.23,4.66,3.14,8.69,5.93,12.41,1.62,2.17,4.29,4.53,4.94,7.17a38.63,38.63,0,0,0,5.83,13.55c2.91,4,6.94,7.33,11.7,8.43,4.19,1,8.82,2.14,13.06,2.84a13.17,13.17,0,0,1,9.78,7.84c1.05,2.53,1.38,5.5,3.29,7.44,2.09,2.11,5.65,1.94,8.58,2.25a6.53,6.53,0,0,1,4.75,3,6.71,6.71,0,0,1,.67,5.61c-.61,1.82-2,3.26-3,4.86-2.47,3.78-1.76,8.46-2.52,12.93-1.21,7,2.66,13.83,6.37,19.9,3,4.87,4.64,10.76,9.1,14.28,5.35,4.23,8.22,11.05,9.13,17.87s2.43,14.82-.14,21.19c-3,7.47-6.08,15.65-3.89,23.41,1.15,4.05,3.65,7.6,4.81,11.65.92,3.24.95,6.67,1.43,10s1.52,6.8,4,9.06c2.63,2.42,4.39,5.8,7.12,8.11a6.51,6.51,0,0,0,3.43,1.8,2.65,2.65,0,0,0,2.93-2,4.15,4.15,0,0,0-.5-2.05q-2.38-5.37-4.76-10.73c-.62-1.39-.17-2.7.52-4.05s1.77-2.45,2.58-3.73a4.8,4.8,0,0,0,.7-4.32c-.62-1.39-2.22-2.2-2.63-3.66a4,4,0,0,1,1.06-3.47c.81-1,1.82-1.74,2.56-2.76a6.7,6.7,0,0,0-.68-8.41c-.54-2.1.74-4.52,2.25-6.06a22.17,22.17,0,0,1,5.36-3.57,14.25,14.25,0,0,0,5-4,6.83,6.83,0,0,1,2.3-5.81c1.66-1.46,3.64-2.52,5.23-4.06,4.36-4.21,5-10.94,7.55-16.47a23.85,23.85,0,0,1,12.21-11.82c2.47-3.8,3.63-9,3.84-13.5a39.82,39.82,0,0,1,.38-6.74c.49-2.2,1.83-4.4,3.95-5.06,2.45-.77,4.22-4.84,4-7.43A8.43,8.43,0,0,0,222.08,354.88Z"/><path class="cls-5" d="M84.73,110.54a6.33,6.33,0,0,0,1.54,9.66,9.36,9.36,0,0,1,1.83,1.1,1.65,1.65,0,0,1,.46,2c-.46.75-1.56.68-2.36.37a4.39,4.39,0,0,0-2.47-.63,2.3,2.3,0,0,0-1.58,2.12,6.88,6.88,0,0,0,.55,2.77c.62,1.74,1.44,3.7,3.17,4.29,2.49.85,5.08-1.72,7.65-1.2a6.32,6.32,0,0,1,3.19,2.23,8.42,8.42,0,0,0,3,2.49,2.6,2.6,0,0,0,3.35-1.18c.41-1.13-.29-2.38-.12-3.57.21-1.56,1.75-2.49,2.88-3.57,3.06-3,3.34-7.72,3.42-12a6.83,6.83,0,0,0-.25-2.43,2.27,2.27,0,0,0-1.69-1.59c-1.46-.21-2.42,1.41-3.35,2.58-.77,1-2.67,2.85-4,2.39s-3.22-3.2-4.3-4.31a12.73,12.73,0,0,0-4-3.12A6.29,6.29,0,0,0,84.73,110.54Z"/><path class="cls-5" d="M77,113a2.69,2.69,0,0,0,2.19-1,15,15,0,0,0,1.36-2.12,12.51,12.51,0,0,1,5.7-5c1.87-.82,4-1.24,5.37-2.81a4.66,4.66,0,0,0-.46-6.27c-2.8-2.43-7,0-9.32,2A21,21,0,0,0,75.22,108a6,6,0,0,0-.26,3A2.52,2.52,0,0,0,77,113Z"/><path class="cls-5" d="M103.74,291.62c-.7,0-1.63.24-1.64.95,0,.53.54.87,1,1.1l4.74,2.32a51.9,51.9,0,0,0,6.9,3,4.19,4.19,0,0,0,2.51.22c4.09-1.31-2.86-4.89-4-5.43A22.92,22.92,0,0,0,103.74,291.62Z"/><path class="cls-5" d="M124.69,300.29c-.87,0-1.91,0-2.36.8a1.68,1.68,0,0,0,.3,1.94,3.69,3.69,0,0,0,1.81,1,9.78,9.78,0,0,0,4.17.22c1.39-.22,3.3-1.47,1.95-3S126.32,300.32,124.69,300.29Z"/><path class="cls-5" d="M257.59,152.37a8.22,8.22,0,0,0,1.08-7.62c-1.08-2.55-3.87-4.95-2.74-7.48.81-1.83,3.15-2.19,5-2.91a10.23,10.23,0,0,0,6-11.25c-2.14-10.32,1.36-21.52,8.41-29.27a13.28,13.28,0,0,0,2.46-3.19,3.64,3.64,0,0,0-.26-3.82c-1-1.14-2.74-1.16-4.18-.77a19.75,19.75,0,0,1-4.32,1.16c-1.49,0-3.19-.9-3.25-2.42s1.47-2.55,2.63-3.54,2-3,.84-3.91c-6.06-4.64-14.16-6.71-21.35-4.26-4.5,1.54-8.7,4.56-13.44,4.36-2.62-.11-5.11-1.22-7.72-1.53s-5.7.52-6.71,3c-5.19,3.55-10.51,8.48-15.7,12-3.39,2.32-7,5-8.09,9a9,9,0,0,0,2.23,8.4c1.44,1.46,3.34,2.34,5,3.51s3.27,2.81,3.47,4.87c.54,5.31,2.93,10.4,3.77,15.66a40.73,40.73,0,0,1,.46,11.18,27.87,27.87,0,0,1-6.59,14.87c-1.36,1.55-2,3.94-2.52,6a8.44,8.44,0,0,0,.49,6c.94,1.73,2.7,3,3.09,5a11.58,11.58,0,0,1,0,2.76,3.82,3.82,0,0,0,.67,2.61c.59.7,2.92.83,3.71.38,1.75-1,3.77.72,5,2.36s2.93,3.54,4.84,2.92,2.2-3,2.6-4.93c1.3-6.43,6.33-11.46,11.84-14.89s11.67-5.68,17.24-9A18.2,18.2,0,0,0,257.59,152.37Z"/><path class="cls-5" d="M240.66,194.37c1-1.1,1.48-2.45,2.71-3.45s3.47-1.66,4.29-3.24a2.89,2.89,0,0,0-.2-2.87,3.66,3.66,0,0,0-2.47-1.54c-3.08-.51-6,2.4-9.05,1.81-1.67-.32-3.35-1.65-4.89-.91a2.93,2.93,0,0,0-1.08,3.65,8.57,8.57,0,0,0,2.66,3.15C234.53,192.58,238.17,197,240.66,194.37Z"/><path class="cls-5" d="M588.84,117.39c-.43-.54-1-1-1.39-1.52a7.69,7.69,0,0,1-1.16-4.46,11.87,11.87,0,0,0-.68-4.61c-.66-1.41-2.23-2.54-3.7-2.09a11.94,11.94,0,0,1-7.1.08c-3.41-1.18-5.42-5-8.78-6.27-3-1.16-6.19-1.55-9.32-2.25-3.44-.76-7-1.53-10.46-.65s-6.57,4-6.31,7.53a1.69,1.69,0,0,1-.92,1.34,4.89,4.89,0,0,1-1.5.54l-7,1.63a11.17,11.17,0,0,1-3,.42,3.79,3.79,0,0,1-2.71-1.14c-1.7-1.91-4.35-3-6.33-4.65a2.62,2.62,0,0,0-1.8-.81,3.11,3.11,0,0,0-1.43.78,9.6,9.6,0,0,1-7.14,1.91,105.31,105.31,0,0,1-16-3.82,10.24,10.24,0,0,0-6.54.22,1.77,1.77,0,0,0-1.05.77,2,2,0,0,0,.41,1.83,41.07,41.07,0,0,1,2.19,4.28,1.67,1.67,0,0,1-.41,1.75,4.88,4.88,0,0,1-1.61,1L477,112.73a8,8,0,0,1-4.55,1,5.38,5.38,0,0,1-3.17-2.14,17.7,17.7,0,0,1-2.19-3.37,3.54,3.54,0,0,0-2.18-1.8A10.62,10.62,0,0,0,462,106a12.49,12.49,0,0,1-4.61-.67,1.21,1.21,0,0,0-1.49.77,8.7,8.7,0,0,0-.37,1.84,5.09,5.09,0,0,1-3.32,3.65,8.19,8.19,0,0,1-5,0,22.52,22.52,0,0,1-5-1.67,4.6,4.6,0,0,0-6,1.53c-.66,1.09-1.08,2.63-2.32,2.86s-2.26-1.28-2.16-2.58a10.83,10.83,0,0,1,1.46-3.59c2.05-4.25-.41-9-2.75-13.07a2.83,2.83,0,0,0-4.18-.67c-.66.59-1,1.51-1.83,1.9a2.34,2.34,0,0,1-2.58-.66,12.59,12.59,0,0,1-1.36-2.57,12.39,12.39,0,0,0-3.48-4.2c-1.52-1-3.73-1.19-5.05.08a4.11,4.11,0,0,0-.81,4.12A6,6,0,0,0,414,96.52a2.71,2.71,0,0,1,1.1,3.28,4.86,4.86,0,0,1-2.59,2.59,31.52,31.52,0,0,1-3.54,1.23c-3.11,1.09-4.91,4.16-7.81,5.75a4,4,0,0,0-2,2.67,4.13,4.13,0,0,0,.75,3.25c.55.7,1.31,1.2,1.88,1.89a2.19,2.19,0,0,1,.4,2.47,1.86,1.86,0,0,1-1.71.72c-.65-.05-1.29-.41-1.94-.44a2.56,2.56,0,0,0-2.34,1.65,4.33,4.33,0,0,0,0,3,9,9,0,0,0,1.44,2.36,7.07,7.07,0,0,1,1.23,2.31,2.42,2.42,0,0,1-.63,2.42,2.57,2.57,0,0,1-2.76.06c-.87-.44-1.59-1.14-2.42-1.65s-2-1.21-2.65-.48c-1.4,1.55-1.36,4-.7,6s1.85,3.78,2.53,5.77,1.12,4.73-.48,6.06c-1.25,1-3.22.55-4.35-.61a10.12,10.12,0,0,1-2.08-4.35c-.74-2.55-1.49-5.09-2.23-7.64a8.79,8.79,0,0,0-1.1-2.64,2.88,2.88,0,0,0-2.39-1.32c-1.68.1-2.58,2.09-2.66,3.8-.23,5,4.08,9.63,3.18,14.53a2.1,2.1,0,0,1-2.33,1.5,5.08,5.08,0,0,1-2.65-1.4,10.64,10.64,0,0,0-2.42-1.83,2.6,2.6,0,0,0-2.85.24c-1,.88-.37,2.16-.39,3.47a2.68,2.68,0,0,1-1.94,2.21,21.21,21.21,0,0,0-2.95,1,24.4,24.4,0,0,1-2.52,1.72c-1.29.52-3.43.06-3.46-1.34a2.16,2.16,0,0,0-2-2.05c-1.29-.06-2.31,1.07-3,2.19s-1.16,2.59-2.29,3.23a2.1,2.1,0,0,1-2.08,1.16c-.85,0-1.66-.31-2.51-.37a2.63,2.63,0,0,0-2.11.67,2.09,2.09,0,0,0,0,2.5,6.17,6.17,0,0,1,.42,1.88,2.12,2.12,0,0,1-.74,1.71,3.28,3.28,0,0,1-3.22-.1c-1.27-.61-2.8.41-3.44,1.68a31.42,31.42,0,0,0-1.18,4.12c-.45,1.36-1.51,2.71-2.92,2.7s-2.48-1.41-3.24-2.66l-2.73-4.45a3.26,3.26,0,0,1-.64-1.69,2.26,2.26,0,0,1,1.93-2,8.36,8.36,0,0,1,2.94.21,4.52,4.52,0,0,0,2.91-.23c1.52-.84,1.79-3.09,1-4.65s-1.72-2.87-3.42-3.23c-4.4-.93-9.17-2.07-12-5.61-1-1.25-1.74-2.78-3.11-3.6a5.32,5.32,0,0,0-4.5-.23c-1.47.52-2.56,1.87-4,2.4-6.29,2.32-10.63,7.59-14.61,13.06-2.11,2.9-2.82,6.56-4,10s-3.41,7-6.61,8.53a5.77,5.77,0,0,0-1.63,1,2.1,2.1,0,0,0-.7,1.75,10.83,10.83,0,0,0,.77,1.8,4.55,4.55,0,0,1,0,2,47.14,47.14,0,0,0-.27,5,3.58,3.58,0,0,0,.79,2.45,2.26,2.26,0,0,0,2.34.72c1.31-.45,1.81-2.18,3.08-2.72s2.86.49,3.38,1.84.07,2.86.43,4.26l1,3.64c.25,1,.6,2,1.49,2.4a3.24,3.24,0,0,0,2.6-.49,11.69,11.69,0,0,0,3.45-2.34,5.32,5.32,0,0,0,1.44-4c-.86-7.55-3.23-16.61,1.43-22.57a37.41,37.41,0,0,1,3.14-3.52,10.41,10.41,0,0,1,2.57-2,4.15,4.15,0,0,1,3.14-.32,2.73,2.73,0,0,1,1.87,2.42,4.55,4.55,0,0,1-1.3,2.72,47,47,0,0,1-3.07,4.06,5.25,5.25,0,0,0-.69,6.24c1.19,1.91,3.66,2.33,5.88,2.17a19.5,19.5,0,0,1,6.32.56c.7.18,1.52.56,1.56,1.29s-.74,1.21-1.43,1.38c-1.52.37-3.18.12-4.59.79a4.33,4.33,0,0,0-2.08,5.27c.43,1-.6,2.08-1.64,2.4s-2.21.3-3.11.91c-1.65,1.12-1.47,3.58-2.17,5.47-.94,2.54-3.64,4.05-6.3,4.33a24.14,24.14,0,0,1-8.07-.67,5.6,5.6,0,0,1-4.12-4.48,7.79,7.79,0,0,0-.28-1.59,1.42,1.42,0,0,0-1.12-1,1.36,1.36,0,0,0-1.27,1.29,4,4,0,0,0,.45,1.93,6.11,6.11,0,0,1,.75,2.9,4,4,0,0,1-1.69,2.87,17.7,17.7,0,0,1-3,1.62c-4,1.94-7.92,4.78-9.53,9-.57,1.47-2.19,2.16-3.66,2.7l-4.77,1.77c-1.4.52-3,1.27-3.3,2.76-.26,1.34.72,2.61,1.76,3.48s2.27,1.65,2.81,2.9a3.3,3.3,0,0,1-3.09,4.62,15.65,15.65,0,0,0-6.39.95c-2.68,1.22-3.86,3.92-4.67,6.78a9.59,9.59,0,0,0,3,9.8,9.24,9.24,0,0,0,10.08,1c6-3.27,7-12.25,12.87-15.77,3-1.8,6.69-1.79,10.18-1.73,5.85.1,9.56,7.16,11.13,12.88.27,1,.58,2.16,1.51,2.57a2.14,2.14,0,0,0,2.22-.51,6.41,6.41,0,0,0,1.33-2,5.92,5.92,0,0,0,.91-3.79c-.41-1.86-2.37-2.8-4-3.77a17.47,17.47,0,0,1-5.44-5.11,2.68,2.68,0,0,1-.58-2.63,1.87,1.87,0,0,1,2.13-.78,5.59,5.59,0,0,1,2.08,1.26c5.46,4.53,10.25,10.16,11.89,17.12a8.21,8.21,0,0,0,.8,2.39,2.26,2.26,0,0,0,2.06,1.18,2.36,2.36,0,0,0,1.75-2.51A10.65,10.65,0,0,0,315,253a4.26,4.26,0,0,1-.15-3.28,2.83,2.83,0,0,1,3.3.11,8.47,8.47,0,0,1,2.25,2.74q2.24,3.69,4.48,7.38a4.81,4.81,0,0,0,3.73,2.44,16.92,16.92,0,0,0,4.78-.58,8.91,8.91,0,0,1,4.78,0,5.41,5.41,0,0,1,.51,9.75,12.28,12.28,0,0,1-5.75.78l-9.39-.24a21.26,21.26,0,0,1-6.31-.79c-2-.66-4.06-1.92-6-1.17a7,7,0,0,0-2.81,2.67,5.6,5.6,0,0,1-3,2.44c-1.28.28-2.86-.77-2.59-2.06a10.55,10.55,0,0,0-7.25-4.37,4.58,4.58,0,0,1-2.55-.68c-1.15-1-.75-2.79-.75-4.3a6.86,6.86,0,0,0-4.08-6.17c-3.4-1.41-7.39-.66-10.88.49s-6.84,2.83-10.46,3.38a34.45,34.45,0,0,0-4.55.7,5.08,5.08,0,0,0-3.45,2.85c-2.62,7.15-9.49,12.34-14,18.47-3,4.07-6,8.22-7.66,13-.85,2.43-.74,5-.94,7.6-.14,1.68-.27,3.37-.4,5.05a18.08,18.08,0,0,0-.08,3.12,9.23,9.23,0,0,0,2,4.92c3.25.92,5,5.09,6,8.35s1.91,6.85,4.53,9a10,10,0,0,0,8.28,1.7,29.81,29.81,0,0,0,8.06-3.29c5.89-3.09,13.51.13,19.26,3.48a22.86,22.86,0,0,1,3.11,1.83c1.36,1.13,2.84,2.51,2.8,4.28,0,1.41-1,2.58-1.48,3.91a5.49,5.49,0,0,0,2.14,6.27c6.05,3.86,8.15,13.16,5.72,20-.89,2.5-2.36,4.78-3,7.35s-.19,5.74,2,7.16c2.91,1.88,3.52,5.82,4.14,9.26.51,2.84.32,5.75.66,8.61s1.34,5.84,3.62,7.55c3.35,2.5,0,9,2.56,12.33,1.57,2.06,4.4,2.62,7,2.59A22.78,22.78,0,0,0,329,420.8c2.1-2.17,4.62-4.2,5.51-7.11.57-1.87.68-3.95,1.78-5.56s3-2.45,4.55-3.67,2.8-3.34,1.92-5.1c-1.62-3.22-.64-7.58,1.45-10.5,1.69-2.37,4.28-3.89,6.36-5.91s3.74-5.05,2.76-7.8a32.89,32.89,0,0,1-.78-18.37c1.41-6,5.3-11.61,10.89-14,3.78-1.64,6.58-4.82,8.72-8.38s2.61-8.49,0-11.73c-1.4-1.77-4-2.58-6.23-3s-4.5-.59-6.47-1.65a8.17,8.17,0,0,1-3.78-4.45c-.47-1.35-2-1.91-3-2.93a16.79,16.79,0,0,1-2.57-3.9l-3.81-7.13c-2.65-5-4.9-10.45-7.53-15.42a5.94,5.94,0,0,1-.87-2.49,2,2,0,0,1,1.32-2.06c1-.24,1.91.64,2.58,1.45a93.3,93.3,0,0,1,13.64,22.38c1.23,2.85,1.8,6.05,3.6,8.57s4.66,4.47,7.72,4.36c2.4-.1,4.56-1.4,6.6-2.67l9.33-5.78a24.89,24.89,0,0,0,5.55-4.22,8.53,8.53,0,0,0,2.4-6.4c-.25-2.34-2.11-4.56-4.43-4.68a26.53,26.53,0,0,1-9.79-1.83c-1.74-.68-3.58-1.75-4.08-3.58a9.25,9.25,0,0,0-3.9-5.24,9.1,9.1,0,0,1-1.58-1.17,2,2,0,0,1-.56-1.81,1.77,1.77,0,0,1,1.11-1.09,3.87,3.87,0,0,1,1.59-.14,6.59,6.59,0,0,1,2.79.75c1.82,1,2.85,3.22,4.52,4.5a8.34,8.34,0,0,0,5.81,1.95,13.55,13.55,0,0,1,3.27-.36,8.05,8.05,0,0,1,3.44,2c1.07.81,2.41,1.52,3.68,1.12,3.6-1.14,7.68.59,11.44.88a7.16,7.16,0,0,1,3,.68,2.52,2.52,0,0,1,1.37,2.58,5,5,0,0,0,1.81,5.17,4.8,4.8,0,0,0,5.5-.15c1.15-.88,2.77.32,3.32,1.66a11,11,0,0,1,.39,4.32,22.47,22.47,0,0,0,1.71,8.8,66.16,66.16,0,0,0,5.93,11.69c.74,1.1,1.66,2.3,3,2.4s2.59-1.14,3-2.5a16.66,16.66,0,0,0,.35-4.24,15.26,15.26,0,0,1,5.83-11.29c2.29-1.76,4.16-4.14,6.49-5.85a5.66,5.66,0,0,0,2.46-2.87c.26-1.05-.05-2.28.59-3.14a2.21,2.21,0,0,1,2-.77,6.46,6.46,0,0,1,2.08.65,17.85,17.85,0,0,1,6.23,3.84,8.61,8.61,0,0,1,2.32,3.85,26,26,0,0,0,1,4.49c.58,1.42,1.87,2.7,3.38,2.62.74,0,1.44-.4,2.18-.39a3,3,0,0,1,2.48,1.74,9.09,9.09,0,0,1,.79,3.09c.71,5.23-.09,10.84,2.09,15.63a33.47,33.47,0,0,0,2.38,4.15l3.91,6.13a5.31,5.31,0,0,0,3.06,2,2.14,2.14,0,0,0,2.27-.23,1.69,1.69,0,0,0,.26-1.63,5.1,5.1,0,0,0-.87-1.47c-1.21-1.57-2-3.31-3.12-5s-2.14-3.29-3.22-4.93a18.91,18.91,0,0,1-2.4-4.47,6.25,6.25,0,0,1,.27-5c.49-.87.94-1.6,1.92-1.72a2.75,2.75,0,0,1,2.57,1.2c.07,1.05,1.32,1.63,2.3,2a4.48,4.48,0,0,1,2.66,1.49c.53.84.36,2,.93,2.82a1.8,1.8,0,0,0,2,.66,1.85,1.85,0,0,0,1.19-1.77,4.26,4.26,0,0,1,1.73-2.88,12.15,12.15,0,0,0,2.33-1.73,3.89,3.89,0,0,0-.08-5c-3.34-3.57-6.6-7.51-7.63-12.31a6.23,6.23,0,0,1-.13-2.68,2.56,2.56,0,0,1,1.65-1.95,38.38,38.38,0,0,1,6.61-.91,19.12,19.12,0,0,0,4.12-.72,6.56,6.56,0,0,0,3.4-2.36c1.68-2.44,4.46-3.79,6.89-5.45,1.14-.78,2.31-1.89,2.23-3.28a6.62,6.62,0,0,1,1.26-4.25,33.06,33.06,0,0,0,2.7-3.79,4.36,4.36,0,0,0,0-4.44,10.72,10.72,0,0,1-1.94-3.67,29.33,29.33,0,0,1-.34-3.25,10.05,10.05,0,0,0-3.05-6,4.16,4.16,0,0,1-.36-5.36c.68-.8,1.78-1.36,2-2.41s-.68-2.12-1.62-2.74a6.35,6.35,0,0,1-2.52-2.17,3,3,0,0,1,1.22-3.69,4.73,4.73,0,0,1,4.06-.26c2.25.79,3.94,2.7,5.32,4.67,1.68,2.42,2.46,5.37,3.6,8.11a4.9,4.9,0,0,0,1.37,2.12,3,3,0,0,0,4-.77,5.4,5.4,0,0,0,.77-4.32c-.35-1.82-1.89-3.59-3-5.06a9.78,9.78,0,0,1-2-3.48c-.54-2.2.46-4.46,1.44-6.5a20.85,20.85,0,0,1,3.75-6c1.16-1.15,2.57-2,3.79-3.08a6.26,6.26,0,0,0,2.35-4.15c.37-7.25,3.22-14.06,1.69-21.16a29.18,29.18,0,0,0-3.93-9c-1.26-2-2.86-4-5.07-4.87-.38-.14-.78-.26-1.15-.42a5.42,5.42,0,0,1-3.19-4.17,5.49,5.49,0,0,1,1.92-4.9c1.71-1.39,2-3.73,1.6-5.91-.2-1.2-.67-2.41-.39-3.59a3.91,3.91,0,0,1,1.81-2.32,11.4,11.4,0,0,1,2.78-1.12c4-1.21,8.4-.37,12.45-1.45A8,8,0,0,0,546,164c1-1.2,1.28-3.25.11-4.33l-.43-6.07a7.76,7.76,0,0,1,.09-2.59,2.66,2.66,0,0,1,1.61-1.9c1.94-.61,3.87,2,5.77,1.26.72.41,1.41-.48,1.64-1.29s.35-1.8,1.1-2.15a1.56,1.56,0,0,1,2,1.08,4.61,4.61,0,0,1-.09,2.52c-.41,1.82-.81,3.63-1.22,5.44q-1.74,7.8-3.49,15.58a11,11,0,0,0,1.73,8.48c3.12,4.53,5.39,9.76,7.93,14.66a2.86,2.86,0,0,0,1.34,1.53c1.21.45,2.39-1,2.41-2.3s-.6-2.53-.8-3.83c-.47-3.14,1.64-6,2.55-9.05,1.34-4.46,0-9.41-2.53-13.31-1.56-2.4-4-4.2-4.33-7.05s1-6,3.64-7.12a13.17,13.17,0,0,1,3.36-.66,6.5,6.5,0,0,0,3.21-1.1,2.77,2.77,0,0,0,1-3.06c-.77-1.91.21-4.06,1.34-5.78s2.52-3.46,2.54-5.53c0-1.07-.31-2.3.39-3.09a10.39,10.39,0,0,1,1.27-.9,2.25,2.25,0,0,0-.51-3.61,5.94,5.94,0,0,1-3.5-3.57,12,12,0,0,1,0-5,11.16,11.16,0,0,1,1.25-4.43,3.72,3.72,0,0,1,3.84-1.92c1.47.37,3,.56,4.08,1.67a27.23,27.23,0,0,1,1.67,2.28,4,4,0,0,0,2.21,1.64,1.9,1.9,0,0,0,2.25-1.19A2.32,2.32,0,0,0,588.84,117.39ZM349.74,244c-.59,1.6-2.49,2.33-4.18,2.24a31.18,31.18,0,0,1-4.91-1.14,12.78,12.78,0,0,0-10.83,2.76c-1.26,1.08-3.23,3.08-4.94,1.6-1.21-1.05-1.16-3.23-.68-4.59a24.16,24.16,0,0,1,6.32-10.24l2.15-2a5.54,5.54,0,0,1,1.35-1c1.72-.8,3.67.35,5.22,1.44l7.08,5a11.18,11.18,0,0,1,2.74,2.43A3.88,3.88,0,0,1,349.74,244Zm24.13,12.37c-2.19,1.47-5-.15-6.21-2.17s-1.26-4.94-1.65-7.34c-.81-5-6.39-10.19-4-15.35a4.86,4.86,0,0,1,5.22-2.79,4.22,4.22,0,0,1,3.17,4.83c-.36,1.58-1.68,2.77-2.18,4.31-.73,2.28.48,4.74,2,6.56s3.46,3.35,4.57,5.47S375.85,255.05,373.87,256.37ZM387.5,238c-.62,1.08-1.66,2.36-3,2.43a3.09,3.09,0,0,1-2.88-3.63,5.33,5.33,0,0,1,.45-1.23l.68-1.46.51-1.09a3.83,3.83,0,0,1,1.7-2.11C389.06,229.23,388.57,236.16,387.5,238Z"/><path class="cls-5" d="M261.67,205.13c1.18,1.62,2.29,3.52,2,5.52-.38,2.78-8.62,9.09-2.19,9.79,4.51.49,11.9-3,9.74-8.63-1.07-2.82-4-4.41-5.11-7.23-.67-1.73-.52-3.67-.92-5.49s-1.72-3.71-3.55-3.65c-2,.06-3.19,2.48-2.86,4.46S260.49,203.51,261.67,205.13Z"/><path class="cls-5" d="M251.3,215.52a5.09,5.09,0,0,0,.55,1.76,2.06,2.06,0,0,0,1.45,1c1,.14,1.91-.76,2.59-1.57a13.25,13.25,0,0,0,2.48-3.74c1.18-3.1-.9-6.36-4.29-4.66a5.27,5.27,0,0,0-2.53,3.09A8.93,8.93,0,0,0,251.3,215.52Z"/><path class="cls-5" d="M356.31,144.46c.81.39,1.88.65,2.52,0,1.29-1.29-.59-3.23-1.16-4.39a16.91,16.91,0,0,1-1-3.48c-.63-2.39-3.2-6.21-6-3.82a3.41,3.41,0,0,0-1.09,2.5,6.61,6.61,0,0,0,.6,2.72A12.6,12.6,0,0,0,356.31,144.46Z"/><path class="cls-5" d="M357.18,125.37a15.53,15.53,0,0,1,5.9-7.94c2.57-1.94,5.34-4.31,5.57-7.55.11-1.47-.77-3.28-2.22-3.15a3.24,3.24,0,0,0-1.91,1.22q-5.36,5.56-10.7,11.14c-1.71,1.77-3.56,4-3,6.43C351.74,129.31,356.06,128.36,357.18,125.37Z"/><path class="cls-5" d="M540.5,213.45a10.91,10.91,0,0,0,3.11,5.45c.6.51,2.92,2,3.68,1,.57-.81-1.79-4.39-2.16-5.36a33,33,0,0,1-1.74-6.55c-.44-2.79-.53-5.64-1.08-8.41a13.42,13.42,0,0,0-3.74-7.43c-1-.87-2.54-1.48-3.46-.56a2.25,2.25,0,0,0-.18,2.53,12.45,12.45,0,0,0,1.65,2.12c1.89,2.3,2.56,5.37,2.86,8.35S539.73,210.57,540.5,213.45Z"/><path class="cls-5" d="M528.68,263.38a6.23,6.23,0,0,0-2,4c-.19,3.24,3.84,5.18,5.16,1.81.58-1.47.34-2.48,1.49-3.87a20.05,20.05,0,0,1,4.48-3.95c2.71-1.76,5.91-3,7.81-5.6,2.26-3.12,2-7.37,1.75-11.23-.1-1.23-.43-2.74-1.61-3a2,2,0,0,0-2,1,7.09,7.09,0,0,0-.79,2.22,28.38,28.38,0,0,1-10.65,15.95A32.12,32.12,0,0,0,528.68,263.38Z"/><path class="cls-5" d="M484.86,351.49l-10.08-10.57a10.57,10.57,0,0,0-3.16-2.54,3.51,3.51,0,0,0-3.81.45c-1.43,1.43-.73,4,.7,5.44s3.38,2.2,4.93,3.5c2.05,1.71,3.25,4.22,4.49,6.6s2.7,4.82,5,6.14c1.89,1.09,6.21,1.41,7-1.37C490.63,356.54,486.4,353.1,484.86,351.49Z"/><path class="cls-5" d="M508.57,354.4c.68-1.33-.51-3,0-4.39.74-1.93,4-1.65,4.79-3.56.65-1.58-1-3.23-1-4.94,0-2.44,3.15-4.35,2.4-6.66-.52-1.58-2.67-2-4.18-1.34s-2.57,2-3.75,3.21a18.56,18.56,0,0,1-8.55,4.57c-2.36.65-4.24,1.42-4.56,4.17-.78,6.6,6,9.62,11.22,10.07C506.33,355.64,508,355.59,508.57,354.4Z"/><path class="cls-5" d="M370.72,375.8a4.06,4.06,0,0,0-2.38,2.76,8.77,8.77,0,0,1-1.66,3.38c-1.43,1.41-3.89,1.31-5.26,2.78s-1.05,3.56-1.4,5.37a7.12,7.12,0,0,1-2.07,3.83c-2.11,2.2-2.59,5.13-.07,7.51a5.69,5.69,0,0,0,6.89.58c2.26-1.52,3.12-4.44,3.48-7.17s.43-5.58,1.7-8a39.11,39.11,0,0,1,2.77-3.92,6.43,6.43,0,0,0,1.35-4.5C373.81,376.83,372.25,375.4,370.72,375.8Z"/></g><g class="cls-6"><path class="cls-7" d="M416.66,349.66C389.85,414,327.08,459.12,253.93,459.12a174,174,0,0,1-94.84-28s91.81,18.8,146.24-2.19C411.44,388,416.66,349.66,416.66,349.66Z"/></g><ellipse class="cls-5" cx="253.91" cy="186.13" rx="150.29" ry="10.58"/><path class="cls-8" d="M156.08,137.66s6.72,48,5.08,49-14.15,2.9-15.48.76.69-5.81.69-5.81c-.06-5.69-10.74-44-10.74-44Z"/><path class="cls-8" d="M202.16,139.29s-2.61,47-4.42,47.69-14.59,1.4-15.48-1,1.81-5.56,1.81-5.56a125.45,125.45,0,0,0,.76-23.2c-.19-3.26-6-10-6.74-15.64-.94-6.89,2.12-7.43,2.12-7.43Z"/><path class="cls-9" d="M218.46,186.26c1.7-10.12-.76-29.71.51-37.15,4.35-25.61,6.74-55.32-15.57-73.24-13.33-10.7-31.43-8.58-47.14-6.05a78.51,78.51,0,0,1-28.82.77C111.76,68,92.54,59.81,83.69,88s-11.45,29.4-11.12,40.28c.37,12.42,6.82,25.92,5.81,31.31s3.29,10-9.35,11.29l.25,2.05s-2,2.06-.76,3.08,14.92,2.31,15.93-11.29-4.55-28.48,3-39.52,10.37-10,10.37-10a85.31,85.31,0,0,1,9.61-1.8l4.8,11a22.55,22.55,0,0,0,9.36,12.83s5.06,39.52,4.3,45.17c0,0-2.53,3.33-1.52,5.64s13.65,2.31,15.42,1.54,1.47-50.19,1.47-50.19,20.43,7.65,47.23,1.23a49.17,49.17,0,0,0,5.6,8.16c2.35,2.72,5.78,4.62,7.06,7.41,3.16,6.92,2.75,25.31,2.75,25.31s-3.54,5.13-2,6.67S217.76,190.4,218.46,186.26Z"/><path class="cls-10" d="M100.57,92.23a1.48,1.48,0,1,1-1.48-1.51A1.49,1.49,0,0,1,100.57,92.23Z"/><path class="cls-11" d="M101.32,112.13s-4.43-4.3-6.93-5.08c0,0-7.13,13.49-22.15,17.39A28.66,28.66,0,0,0,88,123.86C98.79,120,101.32,112.13,101.32,112.13Z"/><path class="cls-9" d="M115.4,68.72c4.63.75,7.89,3.07,11,5s6.27,3.87,8.37,6.82a13.72,13.72,0,0,1-.29,15.91c-3.2,4.17-8.55,6.14-12.29,9.85-2.74,2.71-4.49,6.21-6.84,9.26s-5.68,5.77-9.54,5.78-7.67-4-6.19-7.54Z"/><path class="cls-11" d="M105.81,121.82a7.59,7.59,0,0,1-6-3.37,5.15,5.15,0,0,1-.6-4.89.49.49,0,0,1,.65-.27.5.5,0,0,1,.26.66,4.17,4.17,0,0,0,.52,3.94,6.53,6.53,0,0,0,5.21,2.92h0c4.22,0,7.54-3.51,9.15-5.61.86-1.12,1.67-2.34,2.44-3.52a35.85,35.85,0,0,1,4.44-5.82,36.36,36.36,0,0,1,5.57-4.26c2.53-1.69,4.92-3.28,6.68-5.57a13.4,13.4,0,0,0,.28-15.37c-2.07-2.91-5.34-4.93-8.23-6.7l-1.1-.69c-2.82-1.76-5.74-3.59-9.73-4.24a.51.51,0,0,1-.41-.58.49.49,0,0,1,.57-.42c4.19.68,7.32,2.65,10.09,4.38l1.09.69c3,1.82,6.34,3.89,8.53,7a14.27,14.27,0,0,1-.31,16.58,27.24,27.24,0,0,1-6.91,5.79,36.1,36.1,0,0,0-5.43,4.15,34.8,34.8,0,0,0-4.3,5.65c-.79,1.2-1.6,2.43-2.49,3.59-1.72,2.23-5.29,6-9.93,6Z"/><path class="cls-11" d="M167.38,143.46c-18.07,0-29.52-4-29.69-4a.51.51,0,0,1-.3-.64.48.48,0,0,1,.63-.31c.25.08,25.13,8.66,59.6.29a.49.49,0,0,1,.6.37.5.5,0,0,1-.37.61A129.11,129.11,0,0,1,167.38,143.46Z"/><path class="cls-9" d="M215.46,92.57S225.4,104.8,226.74,113s-1.15,21.55,2.3,34a53.91,53.91,0,0,1-4.21-25.63c.75-9.87-6.12-17.86-6.12-18.44S215.46,92.57,215.46,92.57Z"/><path class="cls-8" d="M227.1,141.49s-1.58,9.11,3,10a3.61,3.61,0,0,1-.61-1.84c0-1,1.58-2.71.61-4.8A8.57,8.57,0,0,0,227.1,141.49Z"/><path class="cls-12" d="M172.73,73.11s31.62.1,34.22,17.83c.82,5.59-4.72-11.29-30.23-11.29C161.67,79.65,160.22,71.44,172.73,73.11Z"/><path class="cls-13" d="M229.74,113.6c0,.51,3.71,33.73,3.71,33.73l-1.18,27.91s-4.28,4.66-4,6.07c.27,1.24,5.49.6,5.49.6V178a3.91,3.91,0,0,0,2.19-3.77c0-2.91,1.69-28.25,1.69-28.25l2-22.77Z"/><path class="cls-13" d="M264.83,119.76a28.57,28.57,0,0,0,5.4,16.1c5.57,7.36,11.3,13.87,11.64,17.63s-2,22.09-2,22.09-4.16,3.76-4,5.73c.07.76,5.83.43,5.83.43l.17-3.25a9.38,9.38,0,0,0,1.69-3.77c.34-2.05,4.05-21.57,3.2-25.51s-9.95-29.62-9.95-29.62Z"/><path class="cls-14" d="M290.09,139.59c-1.41-3.11,2.44-22.11-.15-36.49s-27.13-17.63-38.4-26.6S204.68,8.84,204.68,8.84a5.44,5.44,0,0,0-4.48-1.41c-5.56.38-10,4.71-15.06,7-4,1.83-11.84,3.61-9.72,9,.76,1.93,8,.19,8,.19a37,37,0,0,0,16.3,1.4L227.46,92c-5.18,20.57,8.54,27.53,9.14,30.47s7,22.73,7,22.73c.74,8.43.77,30.19.77,30.19s-2.17,3.54-2.23,5.48c0,1.59,5.27.21,5.27.21l.54-4.59a15.28,15.28,0,0,0,.88-2.13c.64-3.18-.15-7.92,0-13.3.49-17.5.11-41.84.11-41.84,6.7,2.78,23.16,2,23.16,2,1.37,20.41,20,30.08,20,30.08.83,3.69,1.47,24,1.47,24s-4.35,4.24-3.58,6.1c.41,1,6.67.19,6.67.19l-.36-3.52a9.27,9.27,0,0,0,1.18-4c.07-2.08,1.21-20.3-.61-23.87C295.43,147.41,291.12,141.86,290.09,139.59Z"/><path class="cls-14" d="M202.79,9.32a14.4,14.4,0,0,1,11-1.13s-.83,3.53-6.4,6.36Z"/><path class="cls-14" d="M200.5,8.81,201.18,3a1.2,1.2,0,0,1-.62-.81c-.16-.6,0-1.61.74-1.84a3.34,3.34,0,0,1,1.53-.06,1.45,1.45,0,0,1,1.42,1.56,1.31,1.31,0,0,1-1.19,1.32L202.83,9Z"/><path class="cls-14" d="M197.4,8.87l-.79-5.81a1.18,1.18,0,0,1-.8-.62,1.54,1.54,0,0,1,.25-2A3.28,3.28,0,0,1,197.53,0a1.43,1.43,0,0,1,1.76,1.14,1.33,1.33,0,0,1-.82,1.59l1.24,5.75Z"/><path class="cls-13" d="M296.28,129.79s-1.58,9.11,3,10a3.61,3.61,0,0,1-.61-1.84c0-1,1.58-2.71.61-4.8A8.66,8.66,0,0,0,296.28,129.79Z"/><path class="cls-14" d="M286.11,96.08s8.66,9.87,9.07,17.58,1.74,14.4,2,17.34c0,0-3.21-4.41-3.83-15-.31-5.22-4.11-10.83-4.11-11.46S286.11,96.08,286.11,96.08Z"/><ellipse class="cls-10" cx="193.72" cy="14.42" rx="1.13" ry="1.15"/><path class="cls-13" d="M207.45,14.76s38.17,60,44.11,62.71c0,0,.22-2.17-.21-2.7-1.68-2.09-4.3-5.67-7.08-9.57-.2-.28-1-.37-1-.37a3.68,3.68,0,0,0-.19-1.28c-5.59-7.89-11.39-16.4-11.39-16.4S222.4,32.76,215.38,22.9c-.33-.47-1.17-.35-1.17-.35a1.34,1.34,0,0,0,0-1.19,83.76,83.76,0,0,0-5.31-6.76C208.36,14.06,207.45,14.76,207.45,14.76Z"/><path class="cls-13" d="M211.34,21.84l.23.35A10.9,10.9,0,0,1,213,25.71a.39.39,0,0,1,0,.28.35.35,0,0,1-.3.1l-1.92,0a6.31,6.31,0,0,1-1.84-.15,2.17,2.17,0,0,1-1.41-1.11,16,16,0,0,1-.38-1.59c-.1-.29-.27-.55-.38-.84a2.26,2.26,0,0,1,.44-2.16,2.74,2.74,0,0,1,2-.92C209.69,19.35,210.81,21,211.34,21.84Z"/><path class="cls-13" d="M220.37,33.61c.27.81-.39,1.62-1,2.23a1.58,1.58,0,0,1-.48.37,1.5,1.5,0,0,1-.76,0,3.45,3.45,0,0,1-2.35-.84,5.63,5.63,0,0,1-.79-2.28c-.36-1.26-1.27-2.41-1.18-3.73a2.58,2.58,0,0,1,1.16-2l1.31-.3Z"/><path class="cls-13" d="M209.71,29.25a.87.87,0,0,1,.25-.19,1.17,1.17,0,0,1,1,.07,3,3,0,0,1,1.09,1.13,19.44,19.44,0,0,1,1.45,3.1,6.12,6.12,0,0,1,.57,2.2,1.25,1.25,0,0,1-.39,1c-.45.35-1.14.05-1.49-.41a16,16,0,0,1-.8-1.54c-.49-.82-1.37-1.33-1.9-2.12A3.7,3.7,0,0,1,209.71,29.25Z"/><path class="cls-13" d="M219.86,39.84a2.62,2.62,0,0,0-1-.16c-1.64.12-2,2.09-1.78,3.41a3.38,3.38,0,0,0,1,2.24,11.36,11.36,0,0,0,1.55.8,8.88,8.88,0,0,1,1.82,1.7A3.39,3.39,0,0,0,223.65,49a2.63,2.63,0,0,0,2.43-2.62,5.86,5.86,0,0,0-1.38-3.66,7.92,7.92,0,0,0-1.19-1.33A10.29,10.29,0,0,0,220.19,40Z"/><path class="cls-13" d="M229.05,50.55l2.4,2.52a3.42,3.42,0,0,1,1.13,1.9,3.43,3.43,0,0,1-.49,1.77,2.73,2.73,0,0,1-.86,1.17,1.73,1.73,0,0,1-1.88-.18,4.06,4.06,0,0,1-1.19-1.6,10.46,10.46,0,0,0-1-1.77c-.36-.46-.82-.82-1.19-1.26a2.27,2.27,0,0,1-.66-1.57,2,2,0,0,1,.79-1.39,5.89,5.89,0,0,1,1.45-.76A13.91,13.91,0,0,1,229.05,50.55Z"/><path class="cls-13" d="M258.62,102.61l-4-.67a3.83,3.83,0,0,1-2.34-1,4,4,0,0,1-.75-2,3.16,3.16,0,0,1,0-1.7,2,2,0,0,1,1.87-1.15,4.6,4.6,0,0,1,2.2.65,12.17,12.17,0,0,0,2.11,1c.64.17,1.32.2,2,.34a2.56,2.56,0,0,1,1.68,1,2.33,2.33,0,0,1,.21,1.85v0a2.45,2.45,0,0,1-2.56,1.69Z"/><path class="cls-13" d="M234.58,67.5c.38.52,1,1.06,1.55.83.39-.15.59-.58,1-.79s.69-.18.94-.43.27-.6.44-.88a6,6,0,0,0,.44-.59,1.48,1.48,0,0,0-.33-1.34l-2-3.17a3.48,3.48,0,0,0-1.06-1.19,3.29,3.29,0,0,0-2.47,0c-.4.1-1,.07-1.15.45C231,62.26,233.37,65.82,234.58,67.5Z"/><path class="cls-13" d="M242.36,69.32h-.06a.49.49,0,0,0-.33.07c-.76.34-1.69,1.1-1.69,2a2.76,2.76,0,0,0,.27,1,12.53,12.53,0,0,0,2,3.73,2.29,2.29,0,0,0,2.55.87,2.85,2.85,0,0,0,1.17-1.88,1.6,1.6,0,0,0,.09-.75,1.77,1.77,0,0,0-.35-.59c-1.16-1.4-2.29-2.82-3.42-4.24A.72.72,0,0,0,242.36,69.32Z"/><path class="cls-13" d="M260.8,84c-.43.49-1,.83-1.49,1.28s-.88,1-1.5,1.26a3,3,0,0,1-2.49-.78l-1.35-1a4.33,4.33,0,0,1-2-2.24,10.59,10.59,0,0,1,.53-5.32s2.86,1.77,4.18,2.57a10.32,10.32,0,0,0,1.34.74,12.12,12.12,0,0,1,3.38,1.67A4.71,4.71,0,0,1,260.8,84Z"/><path class="cls-13" d="M265.36,83.87c-.44-.13-1,.58-1.3.9a3.75,3.75,0,0,0-.75,1.15,3.09,3.09,0,0,0-.37,2.62c.39.78,1.35,1.1,1.85,1.82a6,6,0,0,1,.59,1.45,1.76,1.76,0,0,0,1,1.14,2,2,0,0,0,1.14-.1c1.49-.44,3-.92,4.44-1.41a1,1,0,0,0,.46-.24,1.1,1.1,0,0,0,.2-.59c.14-1,.28-1.78.42-2.78a.73.73,0,0,0,0-.44.81.81,0,0,0-.41-.29C270.21,86,265.36,83.87,265.36,83.87Z"/><path class="cls-13" d="M255.9,90a1.64,1.64,0,0,1,1.91-.94,5.42,5.42,0,0,1,2,1.12c.68.51,1.38,1,2.11,1.43,1.12.68,2.41,1.45,2.62,2.75a1.36,1.36,0,0,1-.35,1.26,1.54,1.54,0,0,1-.74.35c-1.72.39-3.48-.35-5.08-1.1a4.6,4.6,0,0,1-2.53-2.14,4.78,4.78,0,0,1,.06-2.75Z"/><path class="cls-13" d="M245.86,85c-1.18.89-.71,3.73-.74,5a5.39,5.39,0,0,0,.09,1.39,4.31,4.31,0,0,0,2.24,2.56,5,5,0,0,0,5,.32,4.42,4.42,0,0,0,1.88-3.9A9.24,9.24,0,0,0,252.94,86a3.69,3.69,0,0,0-2.52-2.17c-1.39-.14-2.79.55-4.1.9A1.16,1.16,0,0,0,245.86,85Z"/><path class="cls-13" d="M247.08,78.3c.65-.51,1.39-.74,2-.09,1,1.15-.15,3.24-1.43,3.53a1.84,1.84,0,0,1-1.93-.76.92.92,0,0,1-.17-.51,1.24,1.24,0,0,1,.19-.58A5.83,5.83,0,0,1,247.08,78.3Z"/><path class="cls-13" d="M266.53,99c.42.54.6,1.15,0,1.6-1,.81-2.77-.21-3-1.26a1.44,1.44,0,0,1,.69-1.55.79.79,0,0,1,.44-.12,1,1,0,0,1,.5.17A4.88,4.88,0,0,1,266.53,99Z"/><path class="cls-13" d="M271.88,94.28a16.11,16.11,0,0,0-3.41,1.15,1.53,1.53,0,0,0-.76.61,1.6,1.6,0,0,0-.11.84,7.79,7.79,0,0,0,.84,3,3.16,3.16,0,0,0,.78,1,2.68,2.68,0,0,0,1.22.5,7.42,7.42,0,0,0,4.73-.85,21.76,21.76,0,0,0,4-2.9,2.29,2.29,0,0,0,.61-.7,1.74,1.74,0,0,0,0-1.19,3.52,3.52,0,0,0-3.13-2.23A25.93,25.93,0,0,0,271.88,94.28Z"/><path class="cls-13" d="M281.17,91.57a1.55,1.55,0,0,1-.53,1,2,2,0,0,1-.76.19,6.58,6.58,0,0,1-2.3,0,2.28,2.28,0,0,1-1.68-1.45,3.24,3.24,0,0,1,.13-2.49C276.19,88.58,281.17,91.57,281.17,91.57Z"/><path class="cls-10" d="M177.28,20.18a.47.47,0,0,1-.35-.15.5.5,0,0,1,0-.71,2.24,2.24,0,0,1,2-.69.49.49,0,0,1,.35.62.48.48,0,0,1-.61.35c-.4-.11-.91.32-1,.43A.5.5,0,0,1,177.28,20.18Z"/><path class="cls-13" d="M282.09,97.89A13.7,13.7,0,0,0,278.5,102a.47.47,0,0,0-.08.41.46.46,0,0,0,.28.21l1.84.76a2.89,2.89,0,0,0,1,.29,2.94,2.94,0,0,0,1.15-.31,2,2,0,0,0,.76-.45,2.08,2.08,0,0,0,.32-.51l.77-1.51a2,2,0,0,0,.29-.94c0-.66-.62-1.13-1.17-1.48A9.7,9.7,0,0,0,282.09,97.89Z"/><path class="cls-13" d="M273.19,107.48c-1.44.31-2.89.56-4.36.75a.74.74,0,0,1-.68-.15.72.72,0,0,1-.12-.54,5.38,5.38,0,0,1,.94-3.49,4.2,4.2,0,0,1,3.95-1,4.26,4.26,0,0,1,1.42.48,5.92,5.92,0,0,1,1.67,1.71l.72,1c.06.09.13.2.09.3a.33.33,0,0,1-.17.14A28.64,28.64,0,0,1,273.19,107.48Z"/><path class="cls-13" d="M244.44,99.54a9.08,9.08,0,0,0,3.66,2.77.83.83,0,0,0,.49.08.8.8,0,0,0,.4-.35,6.44,6.44,0,0,0,1-2.35,2,2,0,0,0,0-.43,1.64,1.64,0,0,0-.13-.54,4.65,4.65,0,0,0-2.5-2.65,1.54,1.54,0,0,0-.54-.14,2.14,2.14,0,0,0-.87.29,6.07,6.07,0,0,0-2.34,1.32A5.68,5.68,0,0,0,244.44,99.54Z"/><path class="cls-13" d="M253.21,104.74a.64.64,0,0,0-.33.41.62.62,0,0,0,.15.4l1.07,1.6a4.49,4.49,0,0,0,.78.95c.93.8,2.29.7,3.5.56l2.38-.28,3.38-.4a.28.28,0,0,0,.2-.06.39.39,0,0,0,.06-.32l-.4-3a1,1,0,0,0-.11-.38.87.87,0,0,0-.72-.27l-6.5-.38A15.36,15.36,0,0,0,253.21,104.74Z"/><path class="cls-15" d="M387.9,138.58c-.49,8.88-7.4,16-4.72,26.79,1.27,5.11-1.88,16.74-2.82,20.53a1.82,1.82,0,0,1-1.69,1.44c-3.13.06-10.63.08-11-1.17-.43-1.57,4.27-5.24,4.27-5.24s.46-6.67-.35-10.44-2.56-6-4.24-7.14a16.56,16.56,0,0,1-7.27-16Z"/><path class="cls-15" d="M325.42,146.86l5.08,34.82a2.33,2.33,0,0,1-1.33,2.47c-2.62,1.19-8,2.64-10.1,2.29-2.93-.47.39-5.44.12-7.44s-9-29.78-9-29.78Z"/><path class="cls-16" d="M246.91,142.9s-4.55,12.69,9.1,15.29,29.29-8.37,29.29-8.37l17.91-.86s1.65,30,1.65,32-3.42,4.9-.57,5.77c2,.6,6.78.51,9.57.39a2.11,2.11,0,0,0,2-2.2l2.38-32.86s29.32,10.75,50.36-1.37a15.23,15.23,0,0,0,8.62,14.36c1.76.89,3.69,2.88,4.83,6.35s1.1,9.87,1.1,9.87-4.37,3.82-3.8,5.27c.45,1.14,7.93.49,11,.17a1.77,1.77,0,0,0,1.57-1.49c.61-3.63,2.89-14.91,1.19-19.6-3.6-9.91,2.67-17.15,2.39-25.52s-1-25-12.58-31.81c-10.64-6.23-48.76-3.77-52.45-4.06s-11.85-6.82-36,3.85c0,0-16.51,9.23-19.77,14.39a38.36,38.36,0,0,1-3.92,4.27l-10.38,5.59s-6.92-4.44-9.24-7a.17.17,0,0,0-.3.11c0,1.41.82,7.17,2.71,10.06a59.48,59.48,0,0,1-14.14-17.3.15.15,0,0,0-.28,0C238.84,120.8,237.74,133.58,246.91,142.9Z"/><path class="cls-16" d="M280,125.05s-2.25-6.94,6-12.19c0,0,4.52,5.65.25,13.67"/><path class="cls-11" d="M286.3,127a.43.43,0,0,1-.22-.06.48.48,0,0,1-.2-.65c3.48-6.55.89-11.47,0-12.79-7.41,5-5.46,11.32-5.44,11.39a.47.47,0,0,1-.3.6.47.47,0,0,1-.6-.3c0-.08-2.27-7.36,6.22-12.75a.48.48,0,0,1,.62.1c0,.06,4.66,6,.3,14.2A.49.49,0,0,1,286.3,127Z"/><path class="cls-17" d="M390,115.63s8.64,10.61,9.8,17.69-1,18.71,2,29.5a46.78,46.78,0,0,1-3.66-22.25c.66-8.57-5.31-15.51-5.31-16S390,115.63,390,115.63Z"/><path class="cls-18" d="M400.07,158.1s-1.37,7.91,2.64,8.66a3.16,3.16,0,0,1-.53-1.61c0-.85,1.37-2.35.53-4.16A7.51,7.51,0,0,0,400.07,158.1Z"/><path class="cls-10" d="M274.59,137.12a1.48,1.48,0,1,1-1.47-1.49A1.49,1.49,0,0,1,274.59,137.12Z"/><path class="cls-10" d="M251.26,146.46a2.52,2.52,0,0,1-2.24-2.05.48.48,0,0,1,.31-.6.47.47,0,0,1,.59.32c.41,1.32,1.3,1.36,1.34,1.36a.48.48,0,0,1,.46.49A.47.47,0,0,1,251.26,146.46Z"/><path class="cls-11" d="M248.63,154.66a.47.47,0,0,1-.46-.36.49.49,0,0,1,.35-.59s3.78-1,6-1.79a.47.47,0,0,1,.61.28.49.49,0,0,1-.29.62c-2.3.85-6,1.79-6.14,1.83Z"/><path class="cls-12" d="M241,123.54s6,8,11.09,12.38c0,0-2.22,2.25-2.22,3.37C243.25,126.91,241,123.54,241,123.54Z"/><path class="cls-12" d="M299,110.94s11.08-7.8,23.15-4.93-1,.5-9.05,2.9S293.7,114.53,299,110.94Z"/><path class="cls-19" d="M297.74,56c-5,1-10.23,8.59-10.23,8.59L287.23,66a9.23,9.23,0,0,0-.68,4.81v0s0,0,0,.06a8.34,8.34,0,0,0,.17.93c0,.05,0,.11,0,.16a8,8,0,0,0,.25.79l.12.31a7.55,7.55,0,0,0,.32.72c.05.1.1.2.16.3a9.16,9.16,0,0,0,.62,1h0a6.06,6.06,0,0,0,.63.76,5.25,5.25,0,0,0,.67.6,4.93,4.93,0,0,0,1,.54,4.54,4.54,0,0,0,1.05.28l.13,0a4.21,4.21,0,0,0,2.14-.41,5,5,0,0,0,1.27-.85,6.85,6.85,0,0,0,2.08-3.68,7.33,7.33,0,0,0,.13-.94,6,6,0,0,0,0-1c0-.11,0-.2-.05-.3s-.06-.39-.1-.56-.07-.2-.1-.3a3.91,3.91,0,0,0-.15-.41,2.1,2.1,0,0,0-.13-.26l-.17-.31a.08.08,0,0,1,0-.05h0a3.71,3.71,0,0,0-.77-.86h0c1.55-.08,2.87-.49,3.48-1.45C301.36,62.67,302.74,55.07,297.74,56Z"/><path class="cls-19" d="M285.69,65.72l.28-1.41s-1.92-9.07-6.16-11.93-5.87,4.69-5.21,8.48c.2,1.13,1.26,2,2.66,2.71h0a3.67,3.67,0,0,0-1,.49h0s0,0,0,0a1.93,1.93,0,0,0-.28.22l-.22.18c-.1.1-.19.21-.29.32s-.14.15-.21.24-.2.31-.3.48-.11.16-.16.26a5.42,5.42,0,0,0-.39.94A6.44,6.44,0,0,0,276,73.67a4.37,4.37,0,0,0,5.29,0,7.81,7.81,0,0,0,1-.68l.26-.22c.2-.17.39-.35.57-.53l.23-.24a7.81,7.81,0,0,0,.53-.64,1.47,1.47,0,0,0,.1-.13,7.56,7.56,0,0,0,.51-.79l0,0h0A9.24,9.24,0,0,0,285.69,65.72Z"/><path class="cls-14" d="M288.26,62.41a1.1,1.1,0,1,0-2.15-.44,1.14,1.14,0,0,0,.22.9,17.26,17.26,0,0,0-.62,2.29c-.44,2.22-1.09,7.5-.66,7.75h0c.5,0,1.91-5.18,2.35-7.4a16.37,16.37,0,0,0,.3-2.36A1.07,1.07,0,0,0,288.26,62.41Z"/><path class="cls-14" d="M286.93,61.49h0a.16.16,0,0,1-.15-.16l.05-2.57a.16.16,0,0,1,.15-.16h0a.16.16,0,0,1,.15.16l0,2.58A.15.15,0,0,1,286.93,61.49Z"/><path class="cls-14" d="M287.65,61.79h0a.16.16,0,0,1-.11-.19l.59-2.53a.16.16,0,0,1,.18-.12.17.17,0,0,1,.12.19l-.59,2.53A.16.16,0,0,1,287.65,61.79Z"/><g class="cls-20"><path class="cls-21" d="M294.86,71.8a3.07,3.07,0,1,1-3.06-3.11A3.08,3.08,0,0,1,294.86,71.8Z"/></g><path class="cls-11" d="M293.3,71.8a1.51,1.51,0,1,1-1.5-1.53A1.52,1.52,0,0,1,293.3,71.8Z"/><g class="cls-20"><path class="cls-21" d="M282.07,69A3.07,3.07,0,1,1,279,65.93,3.09,3.09,0,0,1,282.07,69Z"/></g><path class="cls-11" d="M280.37,69A1.37,1.37,0,1,1,279,67.65,1.38,1.38,0,0,1,280.37,69Z"/><g class="cls-20"><path class="cls-21" d="M284.17,63.45s-7.09-.21-7.77-2.42c-.77-2.48-.16-6.71,1.52-7.38.83-.33,2.73,2.09,4.07,4.59A32.28,32.28,0,0,1,284.17,63.45Z"/></g><g class="cls-20"><path class="cls-21" d="M289.91,64.73s6.73,2.27,8.12.42c1.56-2.06,2.41-6.24,1.06-7.46-.66-.6-3.27,1-5.37,2.9A31.91,31.91,0,0,0,289.91,64.73Z"/></g><g class="cls-22"><path class="cls-10" d="M266.3,50.12c-1.83,1-3,4.39-3.16,4.84a4.16,4.16,0,0,0-.11-.59.47.47,0,0,0,.13-.38.46.46,0,0,0-.29-.4l-.06-1a.09.09,0,0,0-.07-.06.07.07,0,0,0-.07.07l.06.94a.27.27,0,0,0-.09,0,.28.28,0,0,0-.13,0l-.28-1a.06.06,0,0,0-.08,0,.09.09,0,0,0,0,.09l.29,1a.46.46,0,0,0-.17.41.47.47,0,0,0,.2.35,6,6,0,0,0,0,.6c-.23-.41-2-3.52-4-4.12s-1.85,2.71-1.1,4.2a1.86,1.86,0,0,0,1.44.78h0a1.48,1.48,0,0,0-.36.34h0l0,0-.08.13-.07.1a1.42,1.42,0,0,0-.08.18l-.06.12L258,57a.5.5,0,0,0,0,.13,2.87,2.87,0,0,0,0,.44,2.78,2.78,0,0,0,1.56,2.67,1.91,1.91,0,0,0,2.2-.67c.12-.14.22-.28.32-.41l.08-.13c.06-.1.12-.19.17-.29l.06-.13a2.33,2.33,0,0,0,.14-.33l0-.07c0-.13.08-.27.11-.39v0h0a3.07,3.07,0,0,0,.09-.71,4.77,4.77,0,0,0,.46,1.66h0a4.4,4.4,0,0,0,.13-1.72,3.64,3.64,0,0,0,.23.68h0l0,0a3.14,3.14,0,0,0,.18.37l0,.06.2.3.09.11.22.26a.94.94,0,0,1,.1.1,4.32,4.32,0,0,0,.39.34h0l.36.24a2.72,2.72,0,0,0,.35.16,2.83,2.83,0,0,0,.47.1,2.43,2.43,0,0,0,.47,0h.06a1.89,1.89,0,0,0,.84-.44,2.66,2.66,0,0,0,.42-.52,3,3,0,0,0,.4-1.8,2.9,2.9,0,0,0-.06-.41,2.42,2.42,0,0,0-.13-.43s0-.07-.05-.12l-.12-.22-.07-.11s-.08-.11-.12-.15l-.08-.09-.11-.11h0a1.62,1.62,0,0,0-.42-.26h0a1.83,1.83,0,0,0,1.26-1C268.64,52.41,268.26,49.07,266.3,50.12Z"/></g><g class="cls-22"><path class="cls-10" d="M305.36,37c-2.78,0-6.34,3.22-6.8,3.65.09-.27.18-.54.24-.77a.64.64,0,0,0,.29-1l.56-1.2a.09.09,0,0,0,0-.12.1.1,0,0,0-.12,0L299,38.76a.23.23,0,0,0-.1-.07.58.58,0,0,0-.18,0l.29-1.34a.09.09,0,0,0-.06-.11.1.1,0,0,0-.11.07l-.31,1.39A.65.65,0,0,0,298,39a.67.67,0,0,0,0,.54c-.12.21-.25.45-.37.71,0-.63-.19-5.5-2.15-7.5-2.1-2.15-3.9,2-4,4.24a2.56,2.56,0,0,0,1.21,1.87h0a1.85,1.85,0,0,0-.65.16h0l0,0-.19.09-.14.08-.21.15-.14.11a1.75,1.75,0,0,0-.23.24l-.12.13a3.23,3.23,0,0,0-.34.49,3.8,3.8,0,0,0,.15,4.17,2.57,2.57,0,0,0,3,.65,6,6,0,0,0,.63-.27l.17-.1a3.68,3.68,0,0,0,.39-.24l.16-.1a3.79,3.79,0,0,0,.37-.31l.08-.06c.14-.13.26-.26.38-.39l0,0h0a5.31,5.31,0,0,0,.55-.78,6.15,6.15,0,0,0-.51,2.27h0c.17,0,.72-.92,1.25-2a5.2,5.2,0,0,0-.17,1h0v0a4.82,4.82,0,0,0,0,.54v.1c0,.16,0,.32,0,.49l0,.19c0,.15.07.29.11.45a1.8,1.8,0,0,0,0,.19,6.49,6.49,0,0,0,.24.65h0a3.63,3.63,0,0,0,.27.52,4.63,4.63,0,0,0,.32.42,2.73,2.73,0,0,0,.49.42,3.07,3.07,0,0,0,.57.29l.07,0a2.38,2.38,0,0,0,1.27,0,2.85,2.85,0,0,0,.83-.34,3.92,3.92,0,0,0,1.62-1.86,4.6,4.6,0,0,0,.19-.52,3.64,3.64,0,0,0,.12-.59c0-.06,0-.12,0-.18s0-.23,0-.33l0-.18,0-.26c0-.06,0-.11-.05-.16l-.06-.2v0h0a2.09,2.09,0,0,0-.34-.59h0a2.47,2.47,0,0,0,2.17-.42C306.67,41.25,308.34,37.06,305.36,37Z"/></g><path class="cls-14" d="M367.44,127.61s9.31,8.85,8.34,12.3c-.49,1.71-8,3.71-16.06,6.09-7.63,2.27-15,4.6-15,4.6a30.27,30.27,0,0,0-.08,5.23l-1.82-.64s-.67-4.32.48-5.31,30.56-9.38,30.56-9.38a10,10,0,0,1,.86-2.78l-9.21-10.65Z"/><path class="cls-23" d="M366.73,119.86s1.87,7.12.54,8.65-7.73-4.87-7.73-4.87Z"/><path class="cls-24" d="M376.44,110.11c4.75,3.94,9.69,8.15,11.92,14,.3.8.51,1.83-.1,2.43a2.13,2.13,0,0,1-2.14.2,12.83,12.83,0,0,1-5.54-3.43,3.37,3.37,0,0,0-1.34-1.05,3.07,3.07,0,0,0-2.16.47,33.67,33.67,0,0,1-31.2-1.34,8.5,8.5,0,0,0-3.55-1.51,8.34,8.34,0,0,0-2.79.47c-4.81,1.35-11,1.33-13.64-2.94-2.45-3.91-1.12-10.19,1.66-13.87a70.9,70.9,0,0,0,6.8-10.28c2.08-3.95,3.63-7.9.38-10.93-2.08-2-4.47-3.16-7.17-2.28a11.81,11.81,0,0,0-6.34,5.46c-1.93,3.36-7.32-1.23-4.57-5a13.78,13.78,0,0,1,12.08-5.75A11.94,11.94,0,0,1,339,83c1.65,5.78-1.55,11.82-5.3,16.49a27.1,27.1,0,0,0-3.9,5.57,7.29,7.29,0,0,0-.07,6.59c1.15,2,4,2.92,5.79,1.53,1.32-1,1.68-2.83,2.24-4.41,2.34-6.51,8.53-12,19.3-11.12C375.3,99.18,376.44,110.11,376.44,110.11Z"/><path class="cls-25" d="M319.85,86.76c.17,0,.4-2.79-1.16-3.29a2.4,2.4,0,0,0-2.79.55,8.9,8.9,0,0,0-1.85,2.66c-.66,1.59.22,7.33,2.46,7.39.85,0,0-.93.9-4C317.74,88.9,319.85,86.76,319.85,86.76Z"/><path class="cls-10" d="M314.78,85.06a8.12,8.12,0,0,0-.84,1.49c-.69,1.66.23,7.67,2.57,7.74.9,0,0-1,.95-4.21a6.8,6.8,0,0,1,1.24-2l-2.78-.45Z"/><path class="cls-7" d="M318,82.16a.55.55,0,0,0,.54.56.56.56,0,0,0,0-1.11A.55.55,0,0,0,318,82.16Z"/><path class="cls-14" d="M358.12,130.59l.8,18.57-3.47,33.89-.38.15a33.62,33.62,0,0,1-5.66,1.66c-2.4.36-.62-2.17-.62-2.17l5.95-.27,3-31.41a7.79,7.79,0,0,1,.14-3.33L357,130.05Z"/><path class="cls-24" d="M361.81,123.47s-.45,8.27-3.9,8.48c0,0-3-1.54-3.84-7.76C354.37,124.14,361.81,123.47,361.81,123.47Z"/><path class="cls-11" d="M360,126.5c-5.87,0-8.29-2.23-8.41-2.34a.49.49,0,0,1,0-.68.47.47,0,0,1,.67,0s3.13,2.82,10.86,1.88a.47.47,0,0,1,.53.42.47.47,0,0,1-.42.53A26.93,26.93,0,0,1,360,126.5Z"/><path class="cls-11" d="M359.67,121.1a11.82,11.82,0,0,1-2.89-.44,8.55,8.55,0,0,1-5.56-4.09c-2.28-4.08-.81-9.33-.74-9.55a.47.47,0,0,1,.58-.33.49.49,0,0,1,.33.6s-1.43,5.09.65,8.81a7.66,7.66,0,0,0,5,3.63c2.38.62,4,.53,4.56-.28.93-1.25-.35-4.09-.93-5.08a.48.48,0,0,1,.17-.65.47.47,0,0,1,.65.17c.24.42,2.34,4.17.87,6.14A3.12,3.12,0,0,1,359.67,121.1Z"/><path class="cls-11" d="M367.5,121.28a14.12,14.12,0,0,1-5-1.19.48.48,0,0,1-.27-.63.47.47,0,0,1,.61-.27c4.09,1.63,5.86,1.19,6.62.54a2.93,2.93,0,0,0,.71-2.56.48.48,0,1,1,.93-.2,3.91,3.91,0,0,1-1,3.5A3.86,3.86,0,0,1,367.5,121.28Z"/><g class="cls-26"><path class="cls-7" d="M176.82,70c0,1-2.23,1.1-5.25,1.1s-5.75-.18-5.71-1.1c0-1.16,2.45-1.37,5.48-1.37S176.78,69,176.82,70Z"/></g><g id="Flat"><path class="cls-14" d="M168.77,69.26a.29.29,0,0,1-.26-.16.3.3,0,0,1,.13-.39l1.49-.76.23-3.14a.28.28,0,0,1,.3-.27.29.29,0,0,1,.27.31l-.24,3.31a.28.28,0,0,1-.16.24l-1.63.83A.31.31,0,0,1,168.77,69.26Z"/><path class="cls-14" d="M169.74,69.86l-.13,0a.3.3,0,0,1-.13-.39l.66-1.43a.3.3,0,0,1,.29-.17.29.29,0,0,1,.25.22l.38,1.41a.29.29,0,0,1-.21.36.29.29,0,0,1-.35-.21l-.17-.65-.33.72A.3.3,0,0,1,169.74,69.86Z"/><path class="cls-14" d="M171.18,69.26a.29.29,0,0,1-.26-.16.3.3,0,0,1,.13-.39l1.48-.76.23-3.14a.28.28,0,0,1,.31-.27.29.29,0,0,1,.27.31l-.25,3.31a.26.26,0,0,1-.15.24l-1.64.83A.27.27,0,0,1,171.18,69.26Z"/><path class="cls-14" d="M172.14,69.86l-.12,0a.3.3,0,0,1-.14-.39l.67-1.43a.3.3,0,0,1,.28-.17.31.31,0,0,1,.26.22l.37,1.41a.29.29,0,0,1-.2.36.28.28,0,0,1-.35-.21l-.18-.65-.33.72A.29.29,0,0,1,172.14,69.86Z"/><path class="cls-27" d="M164.56,46.83a3.33,3.33,0,0,1,4.64,1L171.81,52l5.34,8.22,3.35,5.16h-8.29A9.26,9.26,0,0,1,163,56V49.7A3.44,3.44,0,0,1,164.56,46.83Z"/><path class="cls-7" d="M166.3,48.68a.8.8,0,1,1-.8-.81A.8.8,0,0,1,166.3,48.68Z"/><path class="cls-23" d="M176.07,62.92l1.6,2.43,2.93,4.47h2.8l-2.9-4.47-1.58-2.43Z"/><path class="cls-24" d="M171.81,52q2.9,4.45,5.8,8.92l1.31,2h-2.31c-2.36,0-5.12,0-6.77-2.63-.15-.23-.79-.16-1-.2a2.51,2.51,0,0,1-1.45-.7,4.37,4.37,0,0,1-1.37-3.1C166,52.91,169.07,52,171.81,52Z"/><path class="cls-14" d="M160.4,49.61s2.09-1.39,2.8-1.22.58,2.27,0,2.44S160.4,49.61,160.4,49.61Z"/></g><path class="cls-12" d="M356.35,99.91S370.77,101,374.09,110s-4.43-4.51-10-5.63S346.37,99.91,356.35,99.91Z"/><path class="cls-28" d="M320.53,78.82A11.93,11.93,0,0,1,330,76S324.85,73.56,320.53,78.82Z"/><path class="cls-7" d="M181.47,70a.3.3,0,0,1-.25-.13l-4.41-6.69a.32.32,0,0,1,.08-.43.31.31,0,0,1,.43.08l4.41,6.69a.31.31,0,0,1-.09.43A.26.26,0,0,1,181.47,70Z"/><path class="cls-7" d="M182.66,70a.31.31,0,0,1-.25-.13L177.9,63a.32.32,0,0,1,.08-.43.3.3,0,0,1,.43.08l4.51,6.84a.32.32,0,0,1-.09.43A.26.26,0,0,1,182.66,70Z"/><path class="cls-29" d="M175.85,173.42a10.36,10.36,0,0,1,1.25.08,10.21,10.21,0,0,1,8.89-5.22,10.1,10.1,0,0,1,2.81.4,13.44,13.44,0,0,1,24.48,2.63c.22,0,.45,0,.68,0a10.32,10.32,0,0,1,10.24,10.39,10.44,10.44,0,0,1-4.88,8.86H168a10.45,10.45,0,0,1-2.43-6.72A10.31,10.31,0,0,1,175.85,173.42Z"/><path class="cls-30" d="M214.64,182.93a5.46,5.46,0,0,1,.57,0,4.59,4.59,0,0,1,4-2.36,4.43,4.43,0,0,1,1.27.18A6.08,6.08,0,0,1,231.56,182h.3a4.7,4.7,0,0,1,2.42,8.69H211.11a4.71,4.71,0,0,1,3.53-7.74Z"/><path class="cls-29" d="M326.84,176.08a7.5,7.5,0,0,1,1,.06,7.86,7.86,0,0,1,6.82-4,7.67,7.67,0,0,1,2.16.31,10.32,10.32,0,0,1,18.8,2l.52,0a8,8,0,0,1,4.11,14.77H320.85a8,8,0,0,1,6-13.14Z"/></svg>