<svg id="Layer_1" data-name="Layer 1" xmlns="http://www.w3.org/2000/svg" xmlns:xlink="http://www.w3.org/1999/xlink" viewBox="0 0 559.67 346"><defs><style>.cls-1,.cls-10,.cls-18,.cls-19,.cls-21,.cls-26,.cls-3,.cls-32,.cls-36,.cls-39,.cls-5{fill:none;}.cls-2{fill:#e3c18f;}.cls-3{stroke:#e3b573;}.cls-10,.cls-19,.cls-21,.cls-26,.cls-3,.cls-36,.cls-5{stroke-linecap:round;}.cls-10,.cls-18,.cls-19,.cls-21,.cls-3,.cls-32,.cls-36,.cls-39,.cls-5{stroke-miterlimit:10;}.cls-4{fill:#e3b573;}.cls-5{stroke:#e3c18f;stroke-width:2px;}.cls-6{fill:#bd9050;}.cls-7{fill:#705630;}.cls-8{fill:#60ad64;}.cls-9{fill:#98bf62;}.cls-10{stroke:#1b6943;}.cls-10,.cls-18,.cls-19,.cls-21,.cls-26,.cls-36{stroke-width:1.06px;}.cls-11{fill:#4d3b20;}.cls-12{fill:#291f11;}.cls-13{fill:#eba491;}.cls-14{fill:#eb8e91;}.cls-15{fill:#f2954b;}.cls-16{fill:#f2734b;}.cls-17{fill:#e45256;}.cls-18,.cls-36{stroke:#e4888b;}.cls-19,.cls-39{stroke:#c6753e;}.cls-20{fill:#fff;}.cls-21{stroke:#000;}.cls-22{fill:#4e4d4d;}.cls-23{fill:#2c3a64;}.cls-24{fill:#1f2d4f;}.cls-25{fill:#505592;}.cls-26{stroke:#505592;stroke-linejoin:round;}.cls-27{fill:#752f5e;}.cls-28{fill:#1b1b2e;}.cls-29{fill:#34345b;}.cls-30{fill:#f8c16a;}.cls-31{fill:#f8ba58;}.cls-32{stroke:#f2aa55;}.cls-33{fill:#f2aa55;}.cls-34{fill:#966935;}.cls-35{clip-path:url(#clip-path);}.cls-37{fill:#ab3d40;}.cls-38{fill:#e4686b;}</style><clipPath id="clip-path"><path class="cls-1" d="M183.57,86.26C173,82,159.92,79.49,149.06,83c-3.39,1.1-11.27,16.87-12.17,20.31-.8,3,.87,6.17,2.68,8.76a61.21,61.21,0,0,0,55.66,25.18c3.86-.43,8.12-1.52,10.15-4.83,4.11-6.69,18.39-24.17,14.38-29C214.56,97.11,191.14,89.32,183.57,86.26Z"/></clipPath></defs><path class="cls-2" d="M167.32,263.92l392.35,11.24h0a95.47,95.47,0,0,0-99-95.44,641.59,641.59,0,0,0-293.35,84.2Z"/><path class="cls-3" d="M263.28,264.6a123.47,123.47,0,0,1,34.84-56.83"/><path class="cls-3" d="M343.26,195.08A115.69,115.69,0,0,0,305,268.31"/><path class="cls-3" d="M371.4,189.89a127.31,127.31,0,0,0-34.3,79"/><path class="cls-3" d="M403.26,184.54a155.45,155.45,0,0,0-28.08,85.37"/><path class="cls-3" d="M437.43,181.79a298.4,298.4,0,0,0-29,89.78"/><path class="cls-3" d="M468.61,179.9a201.53,201.53,0,0,0-26.37,90.64"/><path class="cls-3" d="M498,188.36c-11.49,29.71-16.94,53.56-19.36,85.33"/><path class="cls-3" d="M528.26,209.13c-11.13,29.52-17.11,35.12-14.87,66.59"/><path class="cls-4" d="M0,266.25c0-23.89,19.49-44.81,43.33-46.42,77-5.19,166.78-3.5,272.48,14.17a1192.71,1192.71,0,0,1,171.47,41.92C323.82,279.3,163.46,262.87,0,266.25Z"/><path class="cls-5" d="M81.82,216.76c35.36,9.45,65.61,36.33,79.16,70.32"/><path class="cls-5" d="M148.23,219c28.81,13.07,48.33,35.27,58.22,65.31"/><path class="cls-5" d="M195.44,222.82c23.25,14,37.67,34.32,42.88,60.93"/><path class="cls-5" d="M244.54,225.65a95.22,95.22,0,0,1,39.64,57.22"/><path class="cls-5" d="M292.27,230.6a95.41,95.41,0,0,1,34.07,50.93"/><path class="cls-5" d="M336.25,237a80.05,80.05,0,0,1,35.87,47.09"/><path class="cls-5" d="M395.44,250.25a47.07,47.07,0,0,1,18.75,33.48"/><path class="cls-5" d="M45.32,226.6C65.9,243.07,77.44,260,84.4,285.39"/><path class="cls-5" d="M18.88,248.31c17.83,13.85,13.36,17.38,19.37,39.13"/><path class="cls-6" d="M0,265.85c187-15.62,375.19-15.41,559.67,1.85h0c0,43.24-35.31,78.3-78.86,78.3H80.72C36.14,346,0,310.12,0,265.85Z"/><ellipse class="cls-7" cx="265.63" cy="280.33" rx="210.95" ry="8.1"/><path class="cls-8" d="M212.75,274.93A28.48,28.48,0,0,1,222.3,255a9.91,9.91,0,0,1,3.71-2.26,4.48,4.48,0,0,1,4.15.7,4.25,4.25,0,0,1,1.35,3.2,7.31,7.31,0,0,1-.95,3.43c-2.17,4.15-6.52,6.62-9.72,10a45.79,45.79,0,0,0-4.77,6.54c-.57.9-1.43,1.91-2.46,1.65s-1.29-1.48-1.42-2.49"/><path class="cls-9" d="M215.86,278.53a89.09,89.09,0,0,0-4.31-18.25c-1.17-3.31-2.59-6.64-5.08-9.11a5.41,5.41,0,0,0-3.8-1.87,4,4,0,0,0-2.9,1.58,6,6,0,0,0-1.18,3.15,12,12,0,0,0,2.52,7.94c1.64,2.33,3.72,4.29,5.56,6.45a39.39,39.39,0,0,1,5.18,7.79,6.73,6.73,0,0,0,1.21,1.88,2,2,0,0,0,2.06.56,1.23,1.23,0,0,0,.58-1.83"/><path class="cls-9" d="M334.15,255.49A4.32,4.32,0,0,0,332,252.8a2.78,2.78,0,0,0-2.57.45,4.89,4.89,0,0,0-1.55,2.18c-1.4,3.49-.22,7.48,1.49,10.82s4,6.48,4.9,10.12a7.52,7.52,0,0,0,1.17,3.12c.9,1.09,2.75,1.27,2.77-.37,0-1.92-.17-3.88-.32-5.79a72.14,72.14,0,0,0-1.79-11.51A50,50,0,0,0,334.15,255.49Z"/><path class="cls-10" d="M331.17,257.11a76.25,76.25,0,0,1,5.16,18.57"/><path class="cls-8" d="M338.37,257.51a11.1,11.1,0,0,1,2.29-4,4.23,4.23,0,0,1,4.24-1.22,4.52,4.52,0,0,1,2.61,4c.21,3.1-1.55,5.95-3.11,8.65A87,87,0,0,0,338.23,278c-.4,1.06-1.6,3.65-3.21,2.6-.87-.56-.37-3.05-.38-3.93a48.39,48.39,0,0,1,1.56-12.45A61,61,0,0,1,338.37,257.51Z"/><path class="cls-10" d="M344.39,256.86A104.72,104.72,0,0,0,337.27,278"/><path class="cls-8" d="M279.38,273.07c.53-8.2,3.56-16.39,9.35-22.22,1.14-1.14,2.67-2.27,4.23-1.83a3.15,3.15,0,0,1,1.9,1.73,6.32,6.32,0,0,1,.51,2.58,18.15,18.15,0,0,1-2.08,8.22c-1.24,2.56-2.84,4.94-4.32,7.38a89.09,89.09,0,0,0-5.67,11c-.75,1.76-2.84,2.73-3.47.39A23.19,23.19,0,0,1,279.38,273.07Z"/><path class="cls-10" d="M292.2,253.9a88,88,0,0,0-6.47,11.47A29.39,29.39,0,0,0,283,278.15"/><path class="cls-9" d="M282.36,266a67.7,67.7,0,0,0-2.58-12.66,11.24,11.24,0,0,0-2.09-4,4.87,4.87,0,0,0-4-1.75,5.23,5.23,0,0,0-3.56,2.38c-2,2.82-2,6.63-.86,9.87a29.78,29.78,0,0,0,5.39,8.7,41.93,41.93,0,0,1,5.86,8.42,5.46,5.46,0,0,0,.9,1.53,1.56,1.56,0,0,0,1.62.48c.93-.36.46-1.29.36-2-.18-1.21-.08-2.51-.18-3.73C283,270.88,282.7,268.44,282.36,266Z"/><path class="cls-10" d="M273.54,253.48q4.15,12.22,9.17,24.14"/><path class="cls-8" d="M145.05,270.42c.52-8.19,3.56-16.39,9.35-22.21,1.13-1.15,2.67-2.27,4.22-1.83a3.12,3.12,0,0,1,1.9,1.73,6.1,6.1,0,0,1,.51,2.58A18.2,18.2,0,0,1,159,258.9c-1.24,2.57-2.84,5-4.32,7.39a88.3,88.3,0,0,0-5.67,11c-.76,1.77-2.85,2.73-3.47.4A22.94,22.94,0,0,1,145.05,270.42Z"/><path class="cls-10" d="M157.86,251.25a88.09,88.09,0,0,0-6.46,11.48,29.32,29.32,0,0,0-2.75,12.77"/><path class="cls-9" d="M148,263.37a68,68,0,0,0-2.59-12.67,11.23,11.23,0,0,0-2.08-4,4.88,4.88,0,0,0-4-1.74,5.23,5.23,0,0,0-3.55,2.38c-2,2.82-2,6.63-.87,9.87a29.56,29.56,0,0,0,5.4,8.69,42.5,42.5,0,0,1,5.86,8.42,5.51,5.51,0,0,0,.9,1.54,1.55,1.55,0,0,0,1.62.48c.93-.36.46-1.29.36-2-.18-1.21-.09-2.51-.19-3.73C148.71,268.24,148.37,265.8,148,263.37Z"/><path class="cls-10" d="M139.21,250.84q4.15,12.22,9.17,24.14"/><path class="cls-10" d="M225.29,259a49.29,49.29,0,0,0-10.74,17.55"/><path class="cls-10" d="M204.31,256.77a210.93,210.93,0,0,1,11.12,23.38"/><path class="cls-11" d="M213.61,274.77A15.06,15.06,0,0,1,226,279.69a2,2,0,0,1,.54.93c.12.71-.48,1.31-1,1.75a19.63,19.63,0,0,1-10.41,3.88,21.12,21.12,0,0,1-10.9-2.23c-.83-.42-2.33-1.2-2-2.33a8.71,8.71,0,0,1,2.13-2.57,15.36,15.36,0,0,1,5.65-3.56A14.11,14.11,0,0,1,213.61,274.77Z"/><path class="cls-11" d="M334,275.69a5.76,5.76,0,0,1,3.07-.55,7.3,7.3,0,0,1,2.54,1,45.6,45.6,0,0,1,4.82,3.24,2.13,2.13,0,0,1,.81.93,2,2,0,0,1-.82,2,10.19,10.19,0,0,1-5.22,2.55,13.26,13.26,0,0,1-5.84-.33,9.06,9.06,0,0,1-3-1.36,3.86,3.86,0,0,1-1.67-2.09c-.1-.79.7-1.55,1.14-2.12A10.84,10.84,0,0,1,334,275.69Z"/><path class="cls-11" d="M272.18,282c-.36-1.31,1.12-2.8,2-3.63a12.61,12.61,0,0,1,3.32-2.38,10.19,10.19,0,0,1,8-.55,19.33,19.33,0,0,1,5.95,4.05,2.16,2.16,0,0,1,.82,1.16c.11.71-.49,1.31-1.07,1.74a16.1,16.1,0,0,1-17.7,1A2.5,2.5,0,0,1,272.18,282Z"/><path class="cls-11" d="M147.55,273.52a13.22,13.22,0,0,0-11.23,3.82c-.86.89-1.63,2.16-1.15,3.3a3.49,3.49,0,0,0,2.32,1.65,37.57,37.57,0,0,0,14.88,1.82,10.75,10.75,0,0,0,4.38-1.07c1.12-.62,3-2.37,2.31-3.82a3.78,3.78,0,0,0-1.5-1.44A25.41,25.41,0,0,0,147.55,273.52Z"/><path class="cls-11" d="M326.32,281.94c.77-1.36-1.28-2.34-2.13-1.21S325.53,283.32,326.32,281.94Z"/><path class="cls-11" d="M328.53,284a1.86,1.86,0,0,0-1,.39,1,1,0,0,0-.33,1,1.17,1.17,0,0,0,1.29.61,1.56,1.56,0,0,0,.92-.41.92.92,0,0,0,.23-.95,1,1,0,0,0-.65-.56,3.33,3.33,0,0,0-.89-.1"/><path class="cls-11" d="M344.74,276.94a1.36,1.36,0,0,0,1,1.14,2.29,2.29,0,0,0,1.58-.19,1.35,1.35,0,0,0,.88-1,1.1,1.1,0,0,0-.85-1C346.52,275.59,344.66,275.65,344.74,276.94Z"/><path class="cls-11" d="M345.75,282.61a1.36,1.36,0,0,0,1.36,1.27,1.31,1.31,0,0,0,1.22-1.38C348.16,281,345.67,280.84,345.75,282.61Z"/><path class="cls-11" d="M293.45,278.1a1.35,1.35,0,0,0,1.21-1.08c.23-1.11-1.18-2.62-2.24-1.74S292.13,278.16,293.45,278.1Z"/><path class="cls-11" d="M292.67,283.83a1.73,1.73,0,0,0,1.71,1.06,1.3,1.3,0,0,0,.91-.48,1.35,1.35,0,0,0-.35-1.73c-.37-.33-1.39-.89-1.87-.64S292.49,283.36,292.67,283.83Z"/><path class="cls-11" d="M270.62,278.63a1.78,1.78,0,0,0,1.4-.8c.83-1.64-1.87-2.38-3-1.78a1.28,1.28,0,0,0-.63,1.54A1.84,1.84,0,0,0,270.62,278.63Z"/><path class="cls-11" d="M269.31,286.19a3.13,3.13,0,0,0,2.56-.11,1.23,1.23,0,0,0,.71-.79,1.17,1.17,0,0,0-.33-.89,2.88,2.88,0,0,0-3.18-.51A1.24,1.24,0,0,0,269.31,286.19Z"/><path class="cls-11" d="M298.31,281.48a1.82,1.82,0,0,0,2.07-.59,2,2,0,0,0-1.94-3C296.7,278.26,296.81,280.91,298.31,281.48Z"/><path class="cls-11" d="M263.6,279a.84.84,0,0,0,.66-.13.87.87,0,0,0,.2-.77,3,3,0,0,0-1-2c-.78-.66-2.14-.68-2.13.59A2.58,2.58,0,0,0,263.6,279Z"/><path class="cls-11" d="M225.76,277.06a1.07,1.07,0,0,0,.72-.87,1.42,1.42,0,0,0-.4-1.38C224.29,273.26,223.84,277.55,225.76,277.06Z"/><path class="cls-11" d="M226.56,283.82a.82.82,0,0,0-.46,1,1.1,1.1,0,0,0,.89.73,1.28,1.28,0,0,0,1.26-.51,1.11,1.11,0,0,0-.08-1.33,1,1,0,0,0-1.3-.08"/><path class="cls-11" d="M228.67,279.83a1.08,1.08,0,0,0,1-.21,1.65,1.65,0,0,0,.51-.93c.15-.87-.69-2.31-1.63-1.49C227.88,277.8,227.6,279.47,228.67,279.83Z"/><path class="cls-11" d="M199.64,276.88a1.15,1.15,0,0,0,.55,1.12,1.81,1.81,0,0,0,1.29.2,1.73,1.73,0,0,0,.89-.43,1.06,1.06,0,0,0,.34-.9C202.53,275.65,199.85,275.7,199.64,276.88Z"/><path class="cls-11" d="M197.67,282.4a1.71,1.71,0,0,0,1.24-.75,1.4,1.4,0,0,0-.29-1.59,3,3,0,0,0-3.62.06C193.74,281.64,196.61,282.59,197.67,282.4Z"/><path class="cls-11" d="M200.86,284.11a3,3,0,0,0-1.51.41.53.53,0,0,0-.26.27c-.06.19.1.39.25.52a2.83,2.83,0,0,0,2.71.49c.28-.1.58-.29.61-.58a.63.63,0,0,0-.24-.55,1.83,1.83,0,0,0-.55-.3L201,284"/><path class="cls-11" d="M194.06,277a2.2,2.2,0,0,0,.9.31,3.9,3.9,0,0,0,1.63-.08c.39-.12.82-.42.77-.83s-.33-.52-.62-.65a4.13,4.13,0,0,0-2.47-.36A.9.9,0,0,0,194.06,277Z"/><path class="cls-11" d="M158,275.69a1.28,1.28,0,0,0,.2,1.26,2.18,2.18,0,0,0,1.11.72,3.55,3.55,0,0,0,2.3-.05,1.15,1.15,0,0,0,.57-.39,1.11,1.11,0,0,0-.25-1.26,2.67,2.67,0,0,0-2-.86C159.27,275.12,158.33,275,158,275.69Z"/><path class="cls-11" d="M159.12,283a1.2,1.2,0,0,0,1.37.36,2.58,2.58,0,0,0,1.77-1.74,1.88,1.88,0,0,0,0-.91C161.72,278.45,158.14,281.34,159.12,283Z"/><path class="cls-11" d="M164.48,277.44a1.29,1.29,0,0,0-.3,1.42,1.46,1.46,0,0,0,.83.67,2.14,2.14,0,0,0,2-.19,1.59,1.59,0,0,0,.6-1.83C167.09,276.29,165.21,276.7,164.48,277.44Z"/><path class="cls-7" d="M338.18,277.73a.45.45,0,0,0,.53-.18c.2-.32-.11-.92-.52-.75A.54.54,0,0,0,338.18,277.73Z"/><path class="cls-7" d="M340.7,280.21a.61.61,0,0,0-.07.51.5.5,0,0,0,.63.25.58.58,0,0,0,.33-.62c0-.17-.18-.46-.37-.5S340.8,280.05,340.7,280.21Z"/><path class="cls-7" d="M337.23,283a.51.51,0,1,0-.84-.56A.51.51,0,1,0,337.23,283Z"/><path class="cls-7" d="M332.22,277.79a.45.45,0,0,0,.44.11.92.92,0,0,0,.64-.53.48.48,0,0,0-.64-.64C332.38,276.87,332,277.5,332.22,277.79Z"/><path class="cls-7" d="M332.16,279.63a.57.57,0,0,0,.72,0,.62.62,0,0,0-.39-1.07C332,278.52,331.8,279.32,332.16,279.63Z"/><path class="cls-7" d="M279.13,276.61a.79.79,0,0,0-.38,1,.78.78,0,0,0,.91.47.76.76,0,0,0-.24-1.5"/><path class="cls-7" d="M284.17,279.61a1.46,1.46,0,0,0,.12,1,.87.87,0,0,0,1.25.11,1.14,1.14,0,0,0,.2-1.31c-.14-.31-.64-.86-1-.81S284.22,279.26,284.17,279.61Z"/><path class="cls-7" d="M280.93,284.42a1.06,1.06,0,0,0,.59-.51,1,1,0,0,0-1.41-1.24C279.4,283.29,279.9,284.75,280.93,284.42Z"/><path class="cls-7" d="M276,281.42a1.18,1.18,0,0,0,1.46-1.17,1.11,1.11,0,1,0-1.46,1.17Z"/><path class="cls-7" d="M220.18,282.3c1.2-.76,0-2.61-1.19-1.92S219,283.08,220.18,282.3Z"/><path class="cls-7" d="M208.94,277.79a.87.87,0,0,0,1.73-.22A.87.87,0,0,0,208.94,277.79Z"/><path class="cls-7" d="M213.54,284.31a.89.89,0,0,0,.3-.24,1.09,1.09,0,0,0,.14-1.22c-.43-.73-1.36-.37-1.7.25A.91.91,0,0,0,213.54,284.31Z"/><path class="cls-7" d="M153.71,280.33a.74.74,0,0,0,.72-.14,1.09,1.09,0,0,0,.19-.95,1.86,1.86,0,0,0-.3-.79.86.86,0,0,0-1.5.18A1.53,1.53,0,0,0,153.71,280.33Z"/><path class="cls-7" d="M149.94,281.11a.57.57,0,0,0-.51.51.73.73,0,0,0,.31.68,1,1,0,0,0,.75.18.82.82,0,0,0,.77-.61.78.78,0,0,0-.53-.76,2.2,2.2,0,0,0-1-.07"/><path class="cls-7" d="M142.54,276.94a.8.8,0,0,0,.38-.72c0-.83-1.08-1.53-1.65-.72S141.74,277.39,142.54,276.94Z"/><path class="cls-7" d="M138.7,278a.83.83,0,0,0-.34,1,.87.87,0,0,0,.86.56.93.93,0,0,0,.81-.63,1,1,0,0,0-.24-1,.74.74,0,0,0-1-.07"/><path class="cls-7" d="M143.09,281.52c.91-.74-.22-2.28-1.15-1.6S142.07,282.34,143.09,281.52Z"/><path class="cls-8" d="M403.76,273.63a28.49,28.49,0,0,1,9.55-19.94,10,10,0,0,1,3.71-2.26,4.5,4.5,0,0,1,4.15.7,4.22,4.22,0,0,1,1.35,3.21,7.3,7.3,0,0,1-.95,3.42c-2.17,4.15-6.52,6.62-9.72,10.05a44.69,44.69,0,0,0-4.77,6.54c-.57.89-1.43,1.9-2.46,1.64s-1.29-1.48-1.42-2.49"/><path class="cls-9" d="M406.87,277.22A88.75,88.75,0,0,0,402.56,259c-1.17-3.31-2.59-6.64-5.08-9.11a5.4,5.4,0,0,0-3.79-1.86,4,4,0,0,0-2.91,1.57,6,6,0,0,0-1.18,3.15,12.07,12.07,0,0,0,2.52,8c1.64,2.32,3.72,4.28,5.56,6.44a39.39,39.39,0,0,1,5.18,7.79,6.59,6.59,0,0,0,1.21,1.88,2,2,0,0,0,2.06.56,1.23,1.23,0,0,0,.58-1.83"/><path class="cls-10" d="M416.3,257.64a49.29,49.29,0,0,0-10.74,17.55"/><path class="cls-10" d="M395.32,255.47a212.67,212.67,0,0,1,11.13,23.37"/><path class="cls-11" d="M404.62,273.46A15.12,15.12,0,0,1,417,278.38a2,2,0,0,1,.54.93c.12.71-.48,1.32-1,1.75a19.55,19.55,0,0,1-10.41,3.88,21.12,21.12,0,0,1-10.9-2.23c-.83-.42-2.33-1.2-1.94-2.33a8.65,8.65,0,0,1,2.12-2.57,15.36,15.36,0,0,1,5.65-3.56A14.11,14.11,0,0,1,404.62,273.46Z"/><path class="cls-11" d="M416.77,275.76a1.1,1.1,0,0,0,.72-.88,1.43,1.43,0,0,0-.4-1.38C415.3,272,414.85,276.24,416.77,275.76Z"/><path class="cls-11" d="M417.57,282.52a.81.81,0,0,0-.46,1,1.1,1.1,0,0,0,.89.73,1.26,1.26,0,0,0,1.26-.51,1.11,1.11,0,0,0-.08-1.33,1,1,0,0,0-1.3-.08"/><path class="cls-11" d="M419.69,278.52a1.07,1.07,0,0,0,1-.21,1.62,1.62,0,0,0,.51-.93c.15-.87-.69-2.31-1.63-1.49C418.89,276.49,418.62,278.16,419.69,278.52Z"/><path class="cls-11" d="M390.65,275.57a1.16,1.16,0,0,0,.55,1.13,1.86,1.86,0,0,0,1.29.19,1.72,1.72,0,0,0,.89-.42,1.06,1.06,0,0,0,.34-.9C393.54,274.34,390.86,274.4,390.65,275.57Z"/><path class="cls-11" d="M388.68,281.1a1.72,1.72,0,0,0,1.24-.76,1.4,1.4,0,0,0-.29-1.59c-.74-.74-2.89-.81-3.62.07C384.75,280.33,387.62,281.28,388.68,281.1Z"/><path class="cls-11" d="M391.87,282.8a3,3,0,0,0-1.51.41.57.57,0,0,0-.26.27c-.06.2.1.39.25.52a2.83,2.83,0,0,0,2.71.49c.28-.1.58-.29.61-.58a.63.63,0,0,0-.24-.55,1.81,1.81,0,0,0-.55-.29l-.92-.38"/><path class="cls-11" d="M385.07,275.65a1.94,1.94,0,0,0,.9.31,3.9,3.9,0,0,0,1.63-.08c.39-.12.82-.42.77-.82s-.33-.53-.62-.66a4.13,4.13,0,0,0-2.47-.36A.9.9,0,0,0,385.07,275.65Z"/><path class="cls-7" d="M411.19,281c1.2-.76,0-2.61-1.19-1.92S410,281.77,411.19,281Z"/><path class="cls-7" d="M400,276.48a.87.87,0,0,0,1.73-.21A.87.87,0,0,0,400,276.48Z"/><path class="cls-7" d="M404.55,283a.86.86,0,0,0,.3-.23,1.09,1.09,0,0,0,.14-1.23c-.43-.73-1.36-.37-1.7.25A.91.91,0,0,0,404.55,283Z"/><ellipse class="cls-7" cx="265.63" cy="304.85" rx="210.95" ry="8.1"/><path class="cls-12" d="M313.59,298.3a19.44,19.44,0,0,1,7.1,1.94c2.07.86,2.4,4.39,1.82,6.26a6.33,6.33,0,0,1-4.37,4.18c-2.14.56-4.38,0-6.56-.45a23.42,23.42,0,0,1-5.64-1.4,5.63,5.63,0,0,1-3.48-4.35c-.16-2.12,1.44-4.05,3.36-5C308.12,298.41,311.07,298.27,313.59,298.3Z"/><path class="cls-8" d="M430.91,277.28a4.9,4.9,0,0,1,2.92-2.14,3.3,3.3,0,0,1,3.36,2.18,5.43,5.43,0,0,1-.34,4.19,16.33,16.33,0,0,1-2.49,3.53c-3.86,4.57-7.75,9.39-9.33,15.16-.19.72-.58,1.84-1.56,1.57-.75-.2-.63-.73-.49-1.34.44-1.84.67-3.69,1-5.57a46,46,0,0,1,3.42-11.72A30.32,30.32,0,0,1,430.91,277.28Z"/><path class="cls-9" d="M423.33,289a30.53,30.53,0,0,0-3.42-10.72,6.6,6.6,0,0,0-2.57-2.81,4.64,4.64,0,0,0-5.6,1.64,7,7,0,0,0-.75,6.08,15,15,0,0,0,3.28,5.38c1.39,1.6,2.93,3.07,4.2,4.76a34.58,34.58,0,0,1,3.63,6.41c.27.57,1.46,2.23,2.1,1,.15-.3-.13-.8-.18-1.11a19,19,0,0,1-.07-2A73.67,73.67,0,0,0,423.33,289Z"/><path class="cls-10" d="M423.78,300.89A46.83,46.83,0,0,1,433,280.42"/><path class="cls-10" d="M415.26,279.49a83.61,83.61,0,0,1,5.76,10,27.49,27.49,0,0,1,2.76,11.08"/><path class="cls-11" d="M417.42,297c2.8-1,5.79-1.79,8.72-1.32,4,.63,7.21,3.45,10.2,6.16.51.46,1.08,1.09.89,1.76-.13.49-.63.78-1.08,1a50.47,50.47,0,0,1-13,5,25,25,0,0,1-13.76-.75c-1.33-.49-3.65-1.65-3.5-3.42.1-1.21,1.84-2.72,2.67-3.51A24.46,24.46,0,0,1,417.42,297Z"/><path class="cls-8" d="M254.26,276.76a9.48,9.48,0,0,1,2.95-2.28,3.91,3.91,0,0,1,3.6.1,4.07,4.07,0,0,1,1.63,2.46,8.85,8.85,0,0,1-1.68,7,52.63,52.63,0,0,1-4.95,5.51,35.17,35.17,0,0,0-5.81,8.53c-1.24,2.55-2.27,5.39-4.54,7.1-.54.4-1.31.73-1.86.34a1.73,1.73,0,0,1-.55-1.19c-.63-3.88.77-7.75,1.94-11.43a45,45,0,0,1,5.16-11A36.53,36.53,0,0,1,254.26,276.76Z"/><path class="cls-10" d="M257,281.15a63.89,63.89,0,0,0-11.51,23"/><path class="cls-9" d="M239.41,279a5.69,5.69,0,0,0-2.81-2.81c-1.83-.62-3.86.65-4.83,2.33-1.59,2.8-1,6.39.53,9.23s3.8,5.18,5.69,7.78a33.48,33.48,0,0,1,4.13,7.51,7.56,7.56,0,0,0,1,2,2.23,2.23,0,0,0,1.91.91c1.86-.24.82-2.83.69-4-.23-1.94-.48-3.88-.79-5.81a59.91,59.91,0,0,0-2.79-11.29A37.22,37.22,0,0,0,239.41,279Z"/><path class="cls-10" d="M236.86,283.28q3.88,10.39,7.12,21"/><path class="cls-8" d="M177,290a23,23,0,0,1,5.33-11.54,6.47,6.47,0,0,1,1.85-1.53,2.83,2.83,0,0,1,2.34-.16c1.25.56,1.68,2.13,1.69,3.5.06,4.49-2.5,8.52-4.36,12.61a43,43,0,0,0-2.65,7.62c-.29,1.16-1,3.27-2.59,2.91-1.12-.25-1.44-1.85-1.62-2.79A30.8,30.8,0,0,1,177,290Z"/><path class="cls-10" d="M178.69,300.85A75.69,75.69,0,0,1,185,281.4"/><path class="cls-9" d="M174.28,284.42a21.61,21.61,0,0,0-2-4.38,7.57,7.57,0,0,0-3.56-3.11,4.67,4.67,0,0,0-4.56.55,5.92,5.92,0,0,0-1.87,4.27,12.16,12.16,0,0,0,2.48,8.26c1.63,2.12,3.9,3.63,6,5.31a42,42,0,0,1,6.91,7.06c.4.51.88,1.09,1.53,1.09a1.46,1.46,0,0,0,1.25-1.6c-.07-1.15-1-1.92-1.42-2.94-.61-1.54-1-3.23-1.48-4.82Q176,289.24,174.28,284.42Z"/><path class="cls-10" d="M167.75,282.16a6.57,6.57,0,0,1,1.76,2c3.42,5.45,5.75,11.51,8.06,17.52"/><path class="cls-11" d="M173,299.75a11.9,11.9,0,0,1,7.54-1.16,17.39,17.39,0,0,1,4,1.5,21.47,21.47,0,0,1,5.88,3.91c-1.51,2.71-4.44,4.34-7.41,5.24a19,19,0,0,1-8.4.69,13.87,13.87,0,0,1-7.53-3.62c-1.43-1.37.44-2.45,1.44-3.38A18.52,18.52,0,0,1,173,299.75Z"/><path class="cls-11" d="M242.35,300.14a11.35,11.35,0,0,1,7.28.28,15.59,15.59,0,0,1,3.93,2.37,4,4,0,0,1,1.85,2.3c.17,1.1-1.51,1.8-2.33,2.24a17,17,0,0,1-17-.41c-2.62-1.59.75-3.54,2.08-4.6A12.2,12.2,0,0,1,242.35,300.14Z"/><path class="cls-11" d="M233,306a1.46,1.46,0,0,0,1.78-2.11,1.59,1.59,0,0,0-2.46-.29A1.67,1.67,0,0,0,233,306Z"/><path class="cls-11" d="M234.75,309.45a1.44,1.44,0,0,0,1.57-.09,1.4,1.4,0,0,0,.48-1.49,1.61,1.61,0,0,0-2.28-.74A1.43,1.43,0,0,0,234.75,309.45Z"/><path class="cls-11" d="M252.27,309.76a1.4,1.4,0,1,0,.24-2.61A1.42,1.42,0,0,0,252.27,309.76Z"/><path class="cls-11" d="M256.1,304.13a1.56,1.56,0,0,0,1.52.34,1.32,1.32,0,0,0,.79-.61,1.58,1.58,0,0,0-1.58-2.09A1.42,1.42,0,0,0,256.1,304.13Z"/><path class="cls-11" d="M253.06,301.42a1.3,1.3,0,0,0,1.42-.13,1.09,1.09,0,0,0,.32-.41,1,1,0,0,0-1.41-1.43C252.67,299.83,252.19,300.9,253.06,301.42Z"/><path class="cls-11" d="M257.17,308.21a1.3,1.3,0,0,0,1.74,0,1.33,1.33,0,0,0,.06-1.75C257.75,305,255.92,307,257.17,308.21Z"/><path class="cls-11" d="M236.29,301.78a1.36,1.36,0,0,0,1.18-.95c.3-1-.87-2.09-1.79-1.4S234.94,301.85,236.29,301.78Z"/><path class="cls-11" d="M300.86,308.65a1,1,0,0,0,1.14.47,1.07,1.07,0,0,0,.58-.93,2,2,0,0,0-.46-1.46C301,305.48,300.32,307.83,300.86,308.65Z"/><path class="cls-11" d="M301.36,299a2,2,0,0,0-.74.67.92.92,0,0,0,0,1,1.06,1.06,0,0,0,1.32.19,1.22,1.22,0,0,0,.74-1,.71.71,0,0,0-.85-.72"/><path class="cls-11" d="M322.69,300.21a1,1,0,0,0,1,.32,1,1,0,0,0,.58-.66,1.53,1.53,0,0,0-.41-1.61C322.44,297.09,321.6,299.2,322.69,300.21Z"/><path class="cls-11" d="M321.92,309.79a1,1,0,0,0,1,.58,1.26,1.26,0,0,0,.87-.81c.29-.69.23-2-.81-1.91S321.59,309.06,321.92,309.79Z"/><path class="cls-11" d="M164.85,309.37a1.16,1.16,0,0,0,1.17.29,1.06,1.06,0,0,0,.61-1,1.53,1.53,0,0,0-.52-1.08,1.36,1.36,0,0,0-1.14-.38C163.76,307.42,164.26,308.8,164.85,309.37Z"/><path class="cls-11" d="M162.65,304.18a1.61,1.61,0,0,0,1.71.47,1.18,1.18,0,0,0,.82-.73A1.24,1.24,0,0,0,165,303a1.63,1.63,0,0,0-1-.78A1.3,1.3,0,0,0,162.65,304.18Z"/><path class="cls-11" d="M166.05,301.16a1.23,1.23,0,0,0,1.48.76,1.3,1.3,0,0,0,.84-1.47C168,298.72,165.55,299.67,166.05,301.16Z"/><path class="cls-11" d="M186.93,298.59a1,1,0,0,0-.24,1.35,1,1,0,0,0,1.35.29,1,1,0,0,0,.32-1.35,1,1,0,0,0-1.33-.36"/><path class="cls-11" d="M188.56,310.08a1.58,1.58,0,0,0,1.41-.72c.76-1.17-.45-2.92-1.79-2.18C187.05,307.82,187.07,310,188.56,310.08Z"/><path class="cls-11" d="M435.16,307.7a.88.88,0,0,0,.27.76.93.93,0,0,0,1,.07,1.32,1.32,0,0,0,.81-1.27C437.05,305.76,435.23,306.51,435.16,307.7Z"/><path class="cls-11" d="M438.7,300.84a.81.81,0,0,0-.73.86,1.21,1.21,0,0,0,.73,1,1.32,1.32,0,0,0,1.29-.08,1.11,1.11,0,1,0-1.35-1.77"/><path class="cls-11" d="M405.2,300.51a.44.44,0,0,0-.49.07,1.15,1.15,0,0,0-.27.45,1.17,1.17,0,0,0,.08,1.29.84.84,0,0,0,.77.14,1.92,1.92,0,0,0,.71-.4c.33-.25.66-.6.59-1a.81.81,0,0,0-.56-.6,2.44,2.44,0,0,0-.85-.08"/><path class="cls-11" d="M403.2,308.52a1,1,0,0,0,1.11,0,1.25,1.25,0,0,0,.35-1.1c-.06-.76-.9-1.86-1.73-1.19A1.62,1.62,0,0,0,403.2,308.52Z"/><path class="cls-7" d="M408.53,305.43a1,1,0,0,0,1.26-.37c.38-.61.08-2.37-.92-1.95C408.13,303.42,407.81,305,408.53,305.43Z"/><path class="cls-7" d="M417.07,300a1,1,0,0,0,1.11.11c.86-.39,1.05-1.95-.09-2.07C417.2,298,416.34,299.37,417.07,300Z"/><path class="cls-7" d="M429.48,305.14c1.15-.37,1.74-3.22-.07-2.8S427.7,305.71,429.48,305.14Z"/><path class="cls-7" d="M428.58,300.7a1,1,0,0,0,1-.09c.94-.71,0-2.66-1.19-2.31C427.05,298.68,427.53,300.32,428.58,300.7Z"/><path class="cls-7" d="M239.85,302a1.38,1.38,0,0,0-.63.45.77.77,0,0,0-.11.73.75.75,0,0,0,.51.42,1.1,1.1,0,0,0,.67-.05,1.21,1.21,0,0,0,.74-.66.85.85,0,0,0-.19-.94.65.65,0,0,0-.91.09"/><path class="cls-7" d="M241.38,307.84a.73.73,0,0,0,.68.11.63.63,0,0,0,.24-.8,1.52,1.52,0,0,0-.64-.64c-.35-.21-1-.39-1.07.17S241,307.64,241.38,307.84Z"/><path class="cls-7" d="M249.93,305.29a1,1,0,0,0,0,.71.83.83,0,0,0,1,.47C252.56,306,250.77,303.19,249.93,305.29Z"/><path class="cls-7" d="M248.15,305.34a.88.88,0,0,0,.74-.77c.06-.72-1-1.7-1.56-1S247.23,305.47,248.15,305.34Z"/><path class="cls-7" d="M175.32,308.45a1.35,1.35,0,0,0,.77.43,1.1,1.1,0,0,0,.78-.06,1,1,0,0,0,.51-.83,1.4,1.4,0,0,0-.46-1.22C175.85,305.89,174.52,307.49,175.32,308.45Z"/><path class="cls-7" d="M182.91,302.79c1.06,0,.8-1.71-.2-1.71C181.55,301.07,181.93,302.82,182.91,302.79Z"/><path class="cls-7" d="M183.32,305a1.34,1.34,0,0,0,.28,1.34,1,1,0,0,0,.67.33,1,1,0,0,0,.74-.35,1.41,1.41,0,0,0,.32-1.22A1,1,0,0,0,183.32,305Z"/><path class="cls-7" d="M172,301.15a.71.71,0,0,0,.43,1.36.72.72,0,0,0-.29-1.4"/><path class="cls-13" d="M306,122l5,2,2.46,1,1.23.5,1.26.42c3.38,1.09,6.66,2.36,10.09,3.19,1.7.44,3.38.93,5.08,1.35l5.13,1.07c.86.16,1.7.39,2.57.51l2.58.38,2.57.39c.86.14,1.71.26,2.58.33l5.16.5c1.72.11,3.44.16,5.15.25s3.43,0,5.13,0,3.41-.07,5.1-.16,3.38-.22,5.05-.37,3.33-.4,5-.6c.82-.11,1.62-.27,2.43-.4l1.21-.21,1.18-.25c.79-.16,1.56-.33,2.29-.52.36-.09.76-.18,1.07-.28a5,5,0,0,0,.76-.25l5.49,23.67c-.88.17-1.35.21-1.95.28s-1.11.12-1.66.17c-1.09.11-2.14.18-3.18.23l-1.57.08-1.54,0c-1,0-2.06.06-3.08,0-2,0-4.06,0-6.07-.19s-4-.22-6-.46-4-.39-5.94-.71-3.93-.53-5.87-1-3.88-.75-5.81-1.18l-5.72-1.43c-1-.23-1.9-.51-2.83-.81l-2.81-.87-2.8-.87c-.94-.28-1.84-.66-2.76-1l-5.48-2c-1.79-.74-3.56-1.55-5.34-2.32-3.58-1.47-7-3.38-10.4-5.11l-1.28-.66-1.24-.73-2.48-1.48-4.93-2.94Z"/><path class="cls-14" d="M350.5,152.11A61.7,61.7,0,0,0,361.88,154q-.13-8.37,0-16.73c0-.69.41-3.21-.59-2.31-.77.69-1.31,2.44-1.82,3.36-1.29,2.28-2.63,4.51-4.05,6.71-.77,1.21-1.57,2.41-2.39,3.59C352.76,149,350.76,152.18,350.5,152.11Z"/><path class="cls-9" d="M399.48,129.31l-33.71,3.94q-.58,12.17-.41,24.34a147.48,147.48,0,0,0,27,2,125.35,125.35,0,0,1,9.35-25.25,5.67,5.67,0,0,0,.89-3.28C402.39,129.89,400.62,129.17,399.48,129.31Z"/><path class="cls-8" d="M367,159.76l-6.48-1.07A198.4,198.4,0,0,1,362,131.44c2.13.21,4.33.25,6.47.46C367.73,141.2,367.2,150.44,367,159.76Z"/><path class="cls-15" d="M304.86,138.21a4.65,4.65,0,0,0,3.34.1,4.87,4.87,0,0,0,1.91-2.08,49.34,49.34,0,0,0,5.06-12.06l-9.83-5.91a2.58,2.58,0,0,0-1.58-.52,2.53,2.53,0,0,0-1.32.83,30.92,30.92,0,0,0-6.16,8.93c-.48,1.06-2,3.63-1.58,4.78.22.63,1.57,1.4,2.1,1.79a23.59,23.59,0,0,0,2.29,1.55A26.46,26.46,0,0,0,304.86,138.21Z"/><path class="cls-16" d="M312.94,141.23a20.58,20.58,0,0,1-7.14-2.89q3.78-8.25,7.58-16.49l2.68,1.68c.54.34,1.81.83,2,1.45s-.36,1.59-.57,2.14c-.34.92-.68,1.85-1,2.77C315.21,133.63,314,137.42,312.94,141.23Z"/><path class="cls-17" d="M287.72,150.49a18.73,18.73,0,0,0,3.52,21.9,10.35,10.35,0,0,0,6.09,3.22c2.64.25,5.17-1,7.48-2.27a30.87,30.87,0,0,0,8.07-6,13.62,13.62,0,0,0,3.77-9.13,17.12,17.12,0,0,0-2.59-7.87,26.69,26.69,0,0,0-5.53-7.13,18.75,18.75,0,0,0-6.49-3.57c-2.1-.72-3.16-.14-5,1.09C293.34,143.28,289.83,146.41,287.72,150.49Z"/><path class="cls-17" d="M296.23,181.62a2.86,2.86,0,0,0,1,1.56,1.88,1.88,0,0,0,2.06-.33,6.11,6.11,0,0,0,1.29-1.8,41.85,41.85,0,0,1,9.3-11.42,3.48,3.48,0,0,0,1.23-1.55,2.31,2.31,0,0,0-1.92-2.57,7.66,7.66,0,0,0-3.53.39,34.84,34.84,0,0,1-6.58,1c-2.19.13-4.52-.38-6.66-.12-5.39.68-.76,5.94.53,8.12A45.1,45.1,0,0,1,296.23,181.62Z"/><path class="cls-18" d="M286.08,162c.14,4.69,3.64,8.91,3.28,13.58a27.91,27.91,0,0,1-1.34,5.27,7.93,7.93,0,0,0,0,5.33"/><path class="cls-18" d="M313.47,163.58a52.88,52.88,0,0,0-3.43,11.6,17.76,17.76,0,0,0,2,11.71"/><path class="cls-18" d="M305.06,165.9c-1.12,2.34-.95,5.09-.47,7.64s1.24,5.08,1.2,7.68c-.07,3.64-1.7,7.37-.51,10.82"/><path class="cls-18" d="M300.13,171.36a28.27,28.27,0,0,0-1.91,11.57,84.29,84.29,0,0,0,1.34,11.72"/><path class="cls-18" d="M293.08,164.63a96.5,96.5,0,0,0-.32,17.58c.13,1.81.32,3.62.5,5.43"/><path class="cls-18" d="M316.35,156.7a101.31,101.31,0,0,0,.17,19.7"/><path class="cls-18" d="M291.39,145.66c2.24,1.57,5.14,1.78,7.88,1.71a50,50,0,0,0,7.72-.78,5.38,5.38,0,0,0,3.11-1.32"/><path class="cls-18" d="M287.58,151.74a3.8,3.8,0,0,0,2.43,1.94c3.63,1.35,7.6,1.32,11.47,1.23a44.11,44.11,0,0,0,6.6-.47,15.56,15.56,0,0,0,6.16-2.31"/><path class="cls-18" d="M286,162.89a21.2,21.2,0,0,0,13.4,5.34,26.69,26.69,0,0,0,14.1-3.58"/><path class="cls-18" d="M293.12,175a11.18,11.18,0,0,0,9.39,1.15"/><path class="cls-9" d="M307.67,111a26.68,26.68,0,0,0,.28-6.67A8.91,8.91,0,0,0,305,98.49a5.13,5.13,0,0,0-5-1c-2.42,1-3.31,3.95-3.39,6.56-.18,5.42,1.75,10.64,3,15.92a61.5,61.5,0,0,1,1.56,11.14q.15,2.88,0,5.76c0,.77-.54,3.53.6,3.88,2.86.88,4-14.87,4.14-16.33Q306.8,117.71,307.67,111Z"/><path class="cls-10" d="M300.85,138.79c2.56-8.41,2.79-17.33,3-26.11l.27-11.59"/><path class="cls-8" d="M303.8,132.61c-.44,1.66-.77,3.35-1.32,5-.38,1.13-.85,3.13-2.26,3.3a.89.89,0,0,1-.82-.24,1.1,1.1,0,0,1-.06-.91c1.17-5.43,2.12-10.9,3.57-16.27a47.79,47.79,0,0,1,4.69-12.06,21.26,21.26,0,0,1,9.29-8.77c1.2-.53,2.66-.9,3.75-.17a2.86,2.86,0,0,1,1.08,2.65,6.41,6.41,0,0,1-1.12,2.76c-2,3.1-5,5.43-7.51,8.11A38.56,38.56,0,0,0,303.8,132.61Z"/><path class="cls-10" d="M316.75,106.74a48.17,48.17,0,0,0-14.6,33.72"/><path class="cls-15" d="M293,131.83a3.16,3.16,0,0,0,3.53,3.63,42.35,42.35,0,0,0,7.47.09,6.74,6.74,0,0,0,4-1.25,7.15,7.15,0,0,0,1.87-4.09q.75-3.65,1.25-7.34a6.89,6.89,0,0,0-.23-3.85,5.44,5.44,0,0,0-2.66-2.43c-3.49-1.74-9.27-1.67-12.3,1.15-1.4,1.3-1.78,3.87-2.16,5.63A33.43,33.43,0,0,0,293,131.83Z"/><path class="cls-19" d="M297.87,135.7a59.22,59.22,0,0,0,6,.16,9.69,9.69,0,0,0,2.63-.34,3.57,3.57,0,0,0,2.07-1.57"/><path class="cls-19" d="M293.05,130.79a26,26,0,0,1,14-.31"/><path class="cls-19" d="M293.37,125.34a23.35,23.35,0,0,1,13.94-.47"/><path class="cls-19" d="M294.33,121.08a15.15,15.15,0,0,1,14.6,1.22"/><path class="cls-15" d="M307.48,129.13a4.79,4.79,0,0,0,.17,2.63,1.89,1.89,0,0,0,2.15,1.14,2.66,2.66,0,0,0,1.18-1,27.79,27.79,0,0,0,2.87-4.69,10.61,10.61,0,0,0,1.15-3.53,4.48,4.48,0,0,0-1.47-4.08c-1.16-.88-2.09-.71-2.8.48A25.24,25.24,0,0,0,307.48,129.13Z"/><path class="cls-19" d="M310.82,120a16.23,16.23,0,0,0-3.54,8.16,6.53,6.53,0,0,0,.15,2.92,3,3,0,0,0,2,2"/><path class="cls-15" d="M361.32,191.47c-1.46,1.44-2,3.56-2.44,5.55a15.33,15.33,0,0,0-.52,3.67,5,5,0,0,0,1.28,3.4c1.49,1.5,3.92,1.47,6,.95a14.29,14.29,0,0,0,8.46-5.73,10.78,10.78,0,0,0,1.14-10,4.44,4.44,0,0,0-1.71-2.17c-1.27-.74-2.89-.39-4.28.1a25.53,25.53,0,0,0-9.18,5.62"/><polygon class="cls-13" points="364.51 268.41 366.08 294.12 382.17 294.63 384.31 268.41 364.51 268.41"/><path class="cls-14" d="M382.91,284.72a30,30,0,0,0,.53-8,3.4,3.4,0,0,0-.6-2,3.49,3.49,0,0,0-2.53-.89A44.45,44.45,0,0,0,367.16,275c-1.49.36-1.45.55-.11,1.23,1,.51,2,1,3,1.54q3,1.56,6,3.16Q379.51,282.81,382.91,284.72Z"/><path class="cls-20" d="M351.24,299.24a9.85,9.85,0,0,0-3.49,2.57,3.19,3.19,0,0,0,0,4,4.66,4.66,0,0,0,3.38.93l30.73.23a1.63,1.63,0,0,0,.85-.15,1.6,1.6,0,0,0,.57-1.26,86.55,86.55,0,0,0,.47-15s-13.88-.14-15.14-.16c-1.77,0-3.32-.18-4.81.88-1.83,1.29-3.62,2.61-5.5,3.82Q354.83,297.3,351.24,299.24Z"/><path class="cls-21" d="M360.23,288.69a4.13,4.13,0,0,0-3.66-.84,2.54,2.54,0,0,0-1.74,3c.46,1.31,2.08,1.79,3.48,1.8,3.19,0,6.4-1.4,9.5-.64a3.53,3.53,0,0,1,1.69.85,1.77,1.77,0,0,1,.47,1.76c-.2.55-2.79.26-3.21.18a6.79,6.79,0,0,1-3.14-1.41C362.08,292.14,362,290,360.23,288.69Z"/><path class="cls-21" d="M355.19,294.68a14.15,14.15,0,0,1,7.35,2.45"/><path class="cls-21" d="M353.16,296.2a17.78,17.78,0,0,1,6.08,3"/><path class="cls-22" d="M347.66,311l17.43-.45,18-.47c0-1.51.07-3,.1-4.53-6-.71-12.08-.11-18.11.25a83.86,83.86,0,0,1-9.77.14,43.67,43.67,0,0,1-4.84-.53c-.82-.14-2.67-.84-3.17.21-.3.61.07,1.8.13,2.46C347.53,309.05,347.6,310,347.66,311Z"/><path class="cls-13" d="M513.14,266.21a96.06,96.06,0,0,0-.53,16A169.89,169.89,0,0,0,480,293c.5-.22.63-4.51.7-5.17.2-1.77.34-3.55.44-5.34s.14-3.56.14-5.35c0-1.32-.59-3.84-.06-5s2.43-1,3.52-1.16l5.35-.82q5.43-.84,10.83-1.75Q507.06,267.32,513.14,266.21Z"/><path class="cls-14" d="M491.94,269.5q3.26,8.38,7.18,16.49c-3.47,1.1-6.8,2.45-10.27,3.55"/><path class="cls-20" d="M507.78,284.59a51,51,0,0,0,3.27,8.76q2,4.54,4,9.07c.52,1.17,1.18,2.47,2.42,2.81a3,3,0,0,0,3.21-1.71,8.78,8.78,0,0,0,.68-3.85l.79-33.54c0-1.49-13-1.31-14.42,1.58-1,2-.71,5.14-.78,7.29A36.35,36.35,0,0,0,507.78,284.59Z"/><path class="cls-21" d="M510.88,280.68a2,2,0,0,1,2.06,1.39,3,3,0,0,1-.49,2.56,6.09,6.09,0,0,1-2.05,1.72c-1.74,1-3.67,1.56-5.45,2.46a4.87,4.87,0,0,0-2.37,2.1,2.07,2.07,0,0,0,.83,2.76,2,2,0,0,0,1.95-.37c1.84-1.4,2.59-4.35,2.77-6.54C508.28,285,508.57,281,510.88,280.68Z"/><path class="cls-21" d="M508.86,293.18a46.16,46.16,0,0,1,5.62-6.55"/><path class="cls-21" d="M511.62,294.78a27.35,27.35,0,0,1,4-4.24"/><path class="cls-22" d="M518.23,305.51l8.38-.81a300,300,0,0,0-.37-39.32,26.75,26.75,0,0,0-4.65,0c-1.63.16-1.51.6-1.4,2.16q.31,4.62.36,9.27a159,159,0,0,1-.9,18.51C519.55,296.25,518.76,305.46,518.23,305.51Z"/><path class="cls-23" d="M445.72,167.41c-.48-.91-1.3-2-2.29-1.67-.81.25-1.05,1.27-1.1,2.12-.39,5.8,1.39,11.5,3.28,17,1.48,4.3,3.1,8.68,6.08,12.12a14.79,14.79,0,0,0,7.17,4.67c.8.22,3.5.93,4.21.29.87-.78-1-3.23-1.45-4.07q-5.07-9.72-10.15-19.43Z"/><path class="cls-9" d="M426.76,200.38a51,51,0,0,0,10.68.87c3.13,0,6.22-.3,9.19.89a30,30,0,0,0,5.59,2.05c2,.36,4.21,0,5.44-1.6a5.39,5.39,0,0,0,.83-4.36,18.53,18.53,0,0,0-1.65-4.25,147.19,147.19,0,0,1-7.58-20.15,132.36,132.36,0,0,1-4.95-20.06,90.37,90.37,0,0,0-1.73-10c-.89-3.33-2.48-7.7-5.44-9.74a35.26,35.26,0,0,0-14.95-5.45,80,80,0,0,0-16-.31,17.27,17.27,0,0,0-5.9,1.07,6.73,6.73,0,0,0-3.39,3.05,20.53,20.53,0,0,1-2.55,3.4A28.33,28.33,0,0,0,389,148a34.09,34.09,0,0,0,2,19.63,48.87,48.87,0,0,0,7.94,12.2,96.12,96.12,0,0,0,11.6,11.58C415.32,195.38,420.67,199,426.76,200.38Z"/><path class="cls-23" d="M399,150.89l-5.44-.41a35.77,35.77,0,0,1,5.83-20.24,7.57,7.57,0,0,1,2.62-2.71c2-1,4.83-.35,6.76.61-4.51,4.59-7.43,11-8.88,17.19C399.79,145.78,398.86,150.88,399,150.89Z"/><path class="cls-23" d="M466.25,272l1.42-36.08a147.56,147.56,0,0,0-.06-18.81,39.33,39.33,0,0,0-1.22-8.27,42.4,42.4,0,0,0-4.81-10.57,1.12,1.12,0,0,0-.41-.45,1.13,1.13,0,0,0-.73-.05c-1,.13-2,.29-3,.41a4,4,0,0,1-2-.33,29.75,29.75,0,0,1-4.78-1.82,27.54,27.54,0,0,1-8.08-6.56c-5-5.78-8.13-13.18-11.33-20a68.83,68.83,0,0,1-3.33-8.51c-.23-.71-2.28-8.68-2.14-8.69-4.19.46-8.18-.11-12.33-.53-1.69-.17-20-3-20-3.14-1.91,6.1-3.84,12.42-3.14,18.77s4,12.33,6.41,18.24c2.06,5,2.77,10.17,7.54,13.49-6.14.05-12.38,1-18.48.83a108.18,108.18,0,0,0-18.49,1.49c-2.64.39-5.36.9-7.56,2.41a12.67,12.67,0,0,0-4.77,7.73,37.55,37.55,0,0,0-.53,9.24l.34,13.94c.11,4.48,0,8.94.77,13.36q2.33,13.65,4.63,27.32c8.32-.72,16.54,0,24.83,1,.9-3.27.68-6.87.85-10.27l.57-11.31q.58-11.33,1.15-22.63a351.78,351.78,0,0,1,36.74,4.73c3.22.59,5.11,1.44,5.7,4.71q3.94,21.64,7.88,43.3c1,5.57,2.39,11.73,7.06,14.92,3.46,2.36,7.93,2.5,12.11,2.42a203.19,203.19,0,0,0,34.44-3.56c.28-11.26.55-19.65.83-30.91-8.46,2.31-17.57,1.85-26,4.16"/><path class="cls-24" d="M395.26,173.92a3.48,3.48,0,0,1-.13-2.2,2.42,2.42,0,0,1,2.22-1.35A7.28,7.28,0,0,1,400,171a38.7,38.7,0,0,0,9.52,2.52,15,15,0,0,0,9.49-2A7.24,7.24,0,0,1,422.2,170a3.72,3.72,0,0,1,3,1.48,11.7,11.7,0,0,1,1.64,3.06,113.17,113.17,0,0,0,14.5,24.87c.71.92,1.41,2.31.57,3.11a2.49,2.49,0,0,1-1.06.47c-8.14,2-16.75.48-24.73-2.09a26.74,26.74,0,0,1-9.2-4.53c-3.52-3-5.31-7.07-7.13-11.15A88.4,88.4,0,0,1,395.26,173.92Z"/><path class="cls-23" d="M414.58,154a28.34,28.34,0,0,1,6.47,1.65,52.56,52.56,0,0,1,7.2-18.87c1.51-2.41,3.38-4.83,6.06-5.76-.06,0-2.63-1.84-3-2a5.13,5.13,0,0,0-3.16-.48c-1.78.57-3.6,3.1-4.77,4.46a36.93,36.93,0,0,0-7.17,12.81A35.09,35.09,0,0,0,414.58,154Z"/><path class="cls-25" d="M415.38,161.49a3,3,0,0,0,1.41,1.55,2.89,2.89,0,0,0,3.45-1.15,3.56,3.56,0,0,0-2.27-5.3C415.45,156.06,414.62,159.75,415.38,161.49Z"/><path class="cls-25" d="M394.82,157.85a2.12,2.12,0,0,0,2.32.81,2.54,2.54,0,0,0,1.7-1.85,3.2,3.2,0,0,0-.52-2.51c-.65-.93-2.37-1.71-3.27-.66A4.33,4.33,0,0,0,394.82,157.85Z"/><path class="cls-26" d="M414.85,151.36a7.4,7.4,0,0,0,3.57.63,27.66,27.66,0,0,1,3.64.33"/><path class="cls-26" d="M393.67,148.33a20.42,20.42,0,0,0,6.17.83"/><path class="cls-24" d="M426,233.08c.29.68,1.3,2.48.17,2.9a2.39,2.39,0,0,1-1.77-.29,37.48,37.48,0,0,0-6.54-2,96.84,96.84,0,0,0-12.24-1.57L392,230.93a11.48,11.48,0,0,1-4.39-1,4.39,4.39,0,0,1-2.07-2.22c-.23-.61-.61-1.94-.13-2.48a1.68,1.68,0,0,1,1.32-.36c5.94.2,11.6,2.45,17.44,3.49a72.88,72.88,0,0,0,14.62.78,9.74,9.74,0,0,1,3.84.42A6.37,6.37,0,0,1,426,233.08Z"/><path class="cls-24" d="M459.84,295.67c1.15-1.51,2.28-3.18,4-3.93s3.8-.4,5.69,0l14.11,2.77a2.44,2.44,0,0,1,1.67.84c.57.91-.28,2.06-1.19,2.63-1.95,1.2-4.32,1.45-6.6,1.67l-17.64,1.69c-2,.2-4.52.58-6.43-.22a5.21,5.21,0,0,1,2.68-2.35A9.6,9.6,0,0,0,459.84,295.67Z"/><path class="cls-13" d="M418,175.87c-6.2,5.37-13.85,8.78-21.55,11.62-5.2,1.91-10.92,3.61-16.19,1.9a47.66,47.66,0,0,0-5,12.26,83.52,83.52,0,0,0,43.72-4.18c8-3,15.65-7.42,21.46-13.72s9.64-14.66,9.43-23.23c0-.86-8.5-3.43-9.53-3.79-2.39-.83-6.13-2.83-8.71-2.06-2.24.66-2.68,3.08-3.21,5a30.39,30.39,0,0,1-3.6,8.26A35.73,35.73,0,0,1,418,175.87Z"/><path class="cls-14" d="M441.24,182.89a26.63,26.63,0,0,0,6.6-11.38c-3.58-1.82-7.77-1.84-11.69-2.74a27.16,27.16,0,0,1-5.67-2c-.55-.28-1.83-1.34-2.43-1.08-1,.43.39,1.42.77,1.83,2.87,3.08,5.6,6.3,8.18,9.63Q439.19,180,441.24,182.89Z"/><path class="cls-9" d="M449.62,148.76c2.18,7.58,1.38,15.77-.94,23.31a144.33,144.33,0,0,1-22.63-8.82q2-8,4.06-15.9c.67-2.63,1.34-5.26,2-7.89a61.07,61.07,0,0,0,1.74-7.27c0-.34,5.55,2.13,6,2.41a19.21,19.21,0,0,1,4.77,4.4A27.9,27.9,0,0,1,449.62,148.76Z"/><path class="cls-8" d="M448.84,174a90.31,90.31,0,0,1-24.32-10.53c.33-2,.67-4.1,1-6.14,8.71,3.2,17.6,6.17,26.31,9.38A19.92,19.92,0,0,1,448.84,174Z"/><path class="cls-15" d="M372.85,186.68a21.74,21.74,0,0,0-8.77,2.92,7.74,7.74,0,0,0-3.49,3.09,5.18,5.18,0,0,0,.46,5,8.14,8.14,0,0,0,4.1,3.07,20.49,20.49,0,0,0,5.1,1c3.17.31,6.59.37,9.25-1.38a7.74,7.74,0,0,0,3.32-4.89C384.06,189.32,378.15,186.3,372.85,186.68Z"/><path class="cls-19" d="M367.34,201.47a6.59,6.59,0,0,1-2.93-3.13"/><path class="cls-19" d="M362.85,190.34a15.45,15.45,0,0,1,3.82-.6"/><path class="cls-19" d="M367.3,188.06a14.67,14.67,0,0,1,3,.24"/><path class="cls-19" d="M370.85,186.72a4.34,4.34,0,0,1,2.65,1"/><path class="cls-16" d="M376.72,191.12a11,11,0,0,1,11.28-2,40.82,40.82,0,0,0-4.56,6.47,13.71,13.71,0,0,0-1.75,7.62c0,.32-4.49-.15-4.88-.24a5.36,5.36,0,0,1-2.67-1.19c-1.63-1.61-.9-4.76-.19-6.62A10.62,10.62,0,0,1,376.72,191.12Z"/><path class="cls-13" d="M411.46,139.33a16.51,16.51,0,0,0,7.18-3.05,28.17,28.17,0,0,0,2.92-2.75,2.26,2.26,0,0,0,.5-3q-1.4-3.4-2.8-6.81c-1-2.37-1.95-4.75-3-7.09-.89-2-2-4-4-4.8-2.21-.84-4.82.35-6.2,2.28a12,12,0,0,0-1.77,7.93,62.82,62.82,0,0,1,.51,9.69,18.2,18.2,0,0,0,.07,3.54,5.18,5.18,0,0,0,1.55,3.1C407.72,139.55,409.7,139.61,411.46,139.33Z"/><path class="cls-14" d="M404.78,130.73a38.94,38.94,0,0,0,7.87-3.82,13,13,0,0,0,5.31-6.77c-.07.26-1.37.74-1.64.88-.59.31-1.18.62-1.78.92-1.16.59-2.35,1.15-3.56,1.65a31.11,31.11,0,0,1-3.74,1.28c-.73.19-2.37.15-2.59,1a9.22,9.22,0,0,0,.06,2.34C404.73,129,404.76,129.89,404.78,130.73Z"/><path class="cls-23" d="M393.75,92.79a54.29,54.29,0,0,0-7.23,30.2c6.48,1.1,11.17,2.93,17.65,4,2.84-11.74,7.47-24.21,10.31-35.95C407.41,90.51,400.46,90.49,393.75,92.79Z"/><path class="cls-13" d="M424.61,108.32l.26.11a22.58,22.58,0,0,0-9.76-16.7c-3.31-2.23-7.53-3.55-11.33-2.35a13.69,13.69,0,0,0-5.13,3.24,4.41,4.41,0,0,0-1.24.85,9.31,9.31,0,0,0-1.52,2.1l.16.07a15.42,15.42,0,0,0-1.72,4c-1.35,4.54-2.36,9.31-1.66,14s3.41,9.28,7.74,11.17a17.2,17.2,0,0,0,7.47,1.11,19.52,19.52,0,0,0,9.13-2.15,14.69,14.69,0,0,0,6-6.82A19.56,19.56,0,0,0,424.61,108.32Z"/><path class="cls-23" d="M430.79,126.63A46.72,46.72,0,0,1,413.62,129q1.45-18,2.18-36.07c1.09-.76,2.32-.24,3.57.19a80.52,80.52,0,0,1,10.33,4.33A65.25,65.25,0,0,1,430.79,126.63Z"/><path class="cls-23" d="M405.5,90.23c-1,0-2.83-.19-3.47.79s.18,2.17.76,3a28.5,28.5,0,0,0,23.28,12.13,1.74,1.74,0,0,0,1.23-.35,1.67,1.67,0,0,0,.16-1.63,16,16,0,0,0-7-8.66A41.26,41.26,0,0,0,410,91.17,18.58,18.58,0,0,0,405.5,90.23Z"/><path class="cls-13" d="M420.06,118.33a4.44,4.44,0,0,0,3.85,0,6.33,6.33,0,0,0,2.78-2.78,8,8,0,0,0,.52-6.23,3.88,3.88,0,0,0-2.46-2.73,3.14,3.14,0,0,0-2.6.64,5.88,5.88,0,0,0-1.66,2.19C419.26,112,420.13,115.45,420.06,118.33Z"/><path class="cls-15" d="M396.75,81.61a17,17,0,0,1,7-4.58,21.55,21.55,0,0,1,20.61,3.41,20.5,20.5,0,0,1,7,19.56c.08-.4-19.17-4.42-20.93-4.73-3.55-.63-7.11-1.14-10.69-1.46-1.79-.16-3.59-.28-5.38-.33-.49,0-2.11.21-2.46-.15s.09-1.4.21-1.84C393.1,88,394.3,84.39,396.75,81.61Z"/><path class="cls-16" d="M391.11,93.74a174.86,174.86,0,0,1,40.67,6.06c.12-1.6.25-3.2.37-4.8a2.57,2.57,0,0,0-.16-1.46,2.34,2.34,0,0,0-.94-.85c-5.33-3.31-11.79-4.15-18-4.92-6.6-.81-13.37-1.61-19.84-.09A27.31,27.31,0,0,0,391.11,93.74Z"/><path class="cls-15" d="M422.14,99.85c6.12,1.29,12.26,3,18.5,2.65.64,0,1.44-.23,1.55-.86s-.72-1.16-1.41-1.37c-9.55-2.85-19.12-5.72-28.95-7.36s-20-2-29.72,0c-.88.19-1.91.55-2.11,1.42-.26,1.16,1.18,2,2.36,2a11.73,11.73,0,0,1,3.3.36,12.15,12.15,0,0,0,3.52.1q4-.1,8.07,0a144.65,144.65,0,0,1,15.95,1.4Q417.7,98.92,422.14,99.85Z"/><path class="cls-16" d="M414.35,81.11A6.76,6.76,0,0,1,419,79.77a8.64,8.64,0,0,1,4.57,2A20.9,20.9,0,0,1,427,85.5a6,6,0,0,1,1.55,3.43,74.64,74.64,0,0,1-9-1.52c-1.48-.35-3-.75-4.42-1.19-.72-.22-1.44-.45-2.15-.69s-1.12-.25-1-1A6.32,6.32,0,0,1,414.35,81.11Z"/><polygon class="cls-13" points="109.21 262.88 110.67 295.51 128.67 295.51 131.94 260.18 109.21 262.88"/><path class="cls-14" d="M110.17,283.93A63.74,63.74,0,0,1,130,279.28a54,54,0,0,0-9.66-1.32l-5.77-.43a11.29,11.29,0,0,0-2.25,0c-1.3.15-2.21.26-2.22,1.68C110.11,279.66,110.44,283.83,110.17,283.93Z"/><path class="cls-20" d="M153.69,302.22a2.75,2.75,0,0,1-1.69,1.31c-3,1-5.94,1-9.06,1.09-3.43.13-6.85.2-10.28.23q-10.38.06-20.75-.52a3.39,3.39,0,0,1-2.69-1,3.34,3.34,0,0,1-.4-2l.12-14.92a43.94,43.94,0,0,0,9.37,2.61,14.63,14.63,0,0,0,9.36-1.64,2.88,2.88,0,0,1,1.3-.55,2.62,2.62,0,0,1,1.77.86c3,2.53,6,5.2,9.47,7a91.61,91.61,0,0,0,10.9,4.34,5.87,5.87,0,0,1,1.91,1,2.06,2.06,0,0,1,.76,1.92Z"/><path class="cls-22" d="M109.35,307.11a3.23,3.23,0,0,0,1.64.6,116.4,116.4,0,0,0,40.4-.48,4.1,4.1,0,0,0,1.45-.46A2.82,2.82,0,0,0,154,304.5a8.24,8.24,0,0,0-.44-2.59,44.42,44.42,0,0,1-14.61,1.84c-4.93-.06-9.85-.48-14.78-.36-3.71.09-7.46.49-11.16,0-1-.14-2.87-.93-3.76-.12A3.21,3.21,0,0,0,109.35,307.11Z"/><path class="cls-21" d="M125.33,292.34a2.24,2.24,0,0,0,0,2.88,2.37,2.37,0,0,0,2.32.45,5.43,5.43,0,0,0,2.07-1.32c1.91-1.77,3.4-4,5.54-5.51a4.43,4.43,0,0,1,2.27-.92,2.15,2.15,0,0,1,2.08,1.09,2.5,2.5,0,0,1-1.11,2.88,7,7,0,0,1-6.74.25C129.87,291.23,126.93,290.31,125.33,292.34Z"/><path class="cls-21" d="M134.4,297.5a18.86,18.86,0,0,1,8-3.09"/><path class="cls-21" d="M137,299.17a25.5,25.5,0,0,1,10.58-3.68"/><polygon class="cls-13" points="50.5 267.96 51.96 300.59 69.96 300.59 73.22 265.26 50.5 267.96"/><path class="cls-14" d="M51.56,290a85.93,85.93,0,0,1,19.29-4.6c-.09-.7-.19-1.4-.29-2.1-5.41.64-10.88,1.29-16.31.76a6,6,0,0,0-2.39-.09c-.56.22-.47.66-.46,1.19S51.79,289.92,51.56,290Z"/><path class="cls-20" d="M68.15,294.59a8.12,8.12,0,0,1,2.95.32,9.86,9.86,0,0,1,2.46,1.66c5.35,4.23,12.61,5.09,18.55,8.44.76.44,1.58,1,1.71,1.89a2.1,2.1,0,0,1-1.13,2,5.86,5.86,0,0,1-2.31.6c-3.44.41-6.89.65-10.34.9-7.72.55-15.49,1.09-23.21.42-2.06-.18-4.41-.63-5.43-2.44a6.68,6.68,0,0,1-.55-3.5L51,299c0-1.26-.44-3.93.26-5s3.5-.12,4.56,0q2.9.3,5.81.44Q64.87,294.64,68.15,294.59Z"/><path class="cls-22" d="M51.3,313.07a3.86,3.86,0,0,0,.58,2.2,3.58,3.58,0,0,0,1.74,1.05c6.15,2.15,12.89,1.5,19.37.78a138.4,138.4,0,0,0,17.57-2.76,4.6,4.6,0,0,0,2.28-1,4.05,4.05,0,0,0,.87-3.06,10.1,10.1,0,0,1,.12-3.25,44.12,44.12,0,0,1-13.76,2.88,86.35,86.35,0,0,1-14,.14,55.9,55.9,0,0,1-7-1c-1.14-.23-2.28-.51-3.4-.83a20.06,20.06,0,0,0-3.15-1C50,307,51.21,311.58,51.3,313.07Z"/><path class="cls-21" d="M66.71,296.6a3,3,0,0,0-1.09,1.5,1.89,1.89,0,0,0,.36,1.76,2.07,2.07,0,0,0,1.82.53,5.09,5.09,0,0,0,1.79-.78c2.91-1.84,5.33-4.52,8.56-5.7a4.5,4.5,0,0,1,2-.33,1.86,1.86,0,0,1,1.41,3,3.8,3.8,0,0,1-1.52,1.22,7.74,7.74,0,0,1-7.09-.48C71,296.24,68.93,294.88,66.71,296.6Z"/><path class="cls-21" d="M75.29,303.51a41.48,41.48,0,0,1,9.34-3"/><path class="cls-21" d="M78.87,305.91A51.89,51.89,0,0,1,88.31,302"/><path class="cls-13" d="M176.25,58.43a294.27,294.27,0,0,0,27.66,35.11,221.16,221.16,0,0,0,33.38,29.77l-6.37,10.26a235.72,235.72,0,0,1-39.34-27A314.11,314.11,0,0,1,157.49,73Z"/><path class="cls-14" d="M177.62,92.83a1,1,0,0,0-.34.54,1,1,0,0,0,.38.7,72.56,72.56,0,0,0,7,6.11c.24.19.57.38.84.24a.89.89,0,0,0,.3-.43,107.57,107.57,0,0,0,5-14.59c.33-1.28.64-2.55.92-3.83.41-1.84-1-.52-1.71.09-2,1.66-4,3.35-5.9,5.09Q180.79,89.72,177.62,92.83Z"/><path class="cls-15" d="M227.85,131.45a3.11,3.11,0,0,0-.55,1.74,3,3,0,0,0,1,1.7,53.68,53.68,0,0,0,12.26,9.23,6.69,6.69,0,0,0,2.78,1,7.07,7.07,0,0,0,4.13-1.67c1.6-1.08,3.3-2.33,3.82-4.19a6.58,6.58,0,0,0-.46-4.11c-2.47-6.24-9.25-10.28-15.09-13a3.28,3.28,0,0,0-1.25-.37,2.23,2.23,0,0,0-1.79,1c-.79,1.12-1.13,2.53-1.9,3.7Q229.26,128.94,227.85,131.45Z"/><path class="cls-15" d="M242.91,119.35c1.17-.77,2.49-1.79,3.82-1.32a2.44,2.44,0,0,1,1.47,2.33,4.3,4.3,0,0,1-1.12,2.67c-1.76,2.13-4.54,3.06-7.17,3.89-1.92.61-4.16,1.17-5.8,0a3.32,3.32,0,0,1-1.33-3.06,3.17,3.17,0,0,1,1.37-2.23c.76-.42,1.78-.12,2.66-.19A13.09,13.09,0,0,0,242.91,119.35Z"/><path class="cls-16" d="M223.85,130.22a1.22,1.22,0,0,0-.23.91,1.24,1.24,0,0,0,.41.5l4.17,3.56a47,47,0,0,0,8.28-14.35c-.1.27-3.67-2.24-4-2.33-1.33-.4-2.37,1.93-3,2.87C227.47,124.23,225.59,127.19,223.85,130.22Z"/><path class="cls-19" d="M242.47,126a17.41,17.41,0,0,1-7.07,4.86"/><path class="cls-19" d="M237.65,136.62a42.6,42.6,0,0,1,7.84,8"/><path class="cls-19" d="M240.94,134.48a42.16,42.16,0,0,1,7.57,8.27"/><path class="cls-19" d="M244.06,132.23a34.28,34.28,0,0,1,6.7,8.09"/><path class="cls-17" d="M174.53,55.71l15.66,20.05a5.45,5.45,0,0,1,1.38,2.71A5.1,5.1,0,0,1,190,82a44.37,44.37,0,0,1-14,11.26c-6.11-3.53-12.26-7.1-17.53-11.79-1.61-1.43-3.21-3.1-3.64-5.21s.32-4.12,1-6.07c2-5.44,4.07-10.94,7.11-15.91,1.18-1.93,2.66-5.13,5.37-4.4C170.93,50.54,173,53.79,174.53,55.71Z"/><path class="cls-27" d="M173.39,92.63a17,17,0,0,0,3.44,2.25,86.06,86.06,0,0,0,16.92-16.37A41.71,41.71,0,0,0,189.5,73c-2.86,4.65-7.41,8.24-10.86,12.49A84.43,84.43,0,0,0,173.39,92.63Z"/><path class="cls-28" d="M99.39,71.75c1-1,2.15-2,3.54-1.92a3.35,3.35,0,0,1,2.8,2.88,8.31,8.31,0,0,1-.67,4.24A71.71,71.71,0,0,1,99.42,88Q92.22,100.35,85,112.66A10.21,10.21,0,0,1,83,115.42a3.49,3.49,0,0,1-3.21.84c-5.11-1.63-2.19-12.27-.55-15.67a107.45,107.45,0,0,1,11.75-19.2A106,106,0,0,1,99.39,71.75Z"/><path class="cls-17" d="M101.79,68.49c-3.23,4.54-6.6,8.93-9.48,13.75-3.22,5.38-6.09,11-8.79,16.62-.68,1.43-7.33,16.91-7.61,16.83l42.78,11.8c2.34.65,4.8,1.29,7.16.74,2.78-.64,4.91-2.82,6.86-4.91,9.43-10.1,18.68-20.52,25.69-32.43a87.06,87.06,0,0,0,8.35-18.7A69.59,69.59,0,0,0,169.07,62c.43-2.91,2.34-6.51,1.52-9.38-1.81-6.38-13.15-8.86-18.67-9.69a46.07,46.07,0,0,0-21.85,2,51.34,51.34,0,0,0-16.9,10,68.25,68.25,0,0,0-10.66,12.53Z"/><path class="cls-29" d="M132.79,280.32c0,.09,0,.18,0,.27A.33.33,0,0,0,132.79,280.32Z"/><path class="cls-23" d="M128.88,64.73a103.7,103.7,0,0,1-8,17.59c-3,5.41-6.21,10.77-10.44,15.28s-9.55,8.2-15.59,9.57-12.8.2-17.45-3.88c-14.45,27.64-22.28,58.32-26.09,89.27s-3.91,62.23-4,93.41c9.47-1.24,18.85.22,28.32-1,.16,0,1.21-27,1.42-29.28q1.21-13.47,3.47-26.83a290.87,290.87,0,0,1,13.36-51.29q2.61-7.2,5.46-14.31a503.27,503.27,0,0,1,4.07,51.9c.29,10.66-.11,21.33.34,32,.12,2.89,1.8,32.27,3.72,32.3l24.34.35c.41,0,.95.24,1,.55,3.11-13.53,1.11-29.06,1.5-42.86q.63-22.83,3-45.55c2.3-21.94,5-44.13,11.22-65.35A174.7,174.7,0,0,1,159,99.19c3.87-8,7.78-14.25,9-23.18A119.63,119.63,0,0,1,128.88,64.73Z"/><path class="cls-23" d="M141.83,57a47.29,47.29,0,0,1-3.05,15,20.3,20.3,0,0,1-6.91-2.23c2.27-4.37,2.27-8.51,2.54-13.26.25-4.53-.15-8.6-3-12.37l4.84-1.67a2.41,2.41,0,0,1,2-.1,2.36,2.36,0,0,1,.9,1.38A38.26,38.26,0,0,1,141.83,57Z"/><path class="cls-23" d="M163,79.08a129.93,129.93,0,0,0,6.17-30,2.89,2.89,0,0,0-.15-1.55,2.86,2.86,0,0,0-1.67-1.17,35.64,35.64,0,0,0-4.64-1.34,66.07,66.07,0,0,1-1.62,17.25A42.12,42.12,0,0,1,158.42,70c-.31.69-3.3,7-3.92,6.82l8.68,2.65"/><path class="cls-26" d="M133.49,66.54A34.39,34.39,0,0,0,139.35,69"/><path class="cls-26" d="M156.42,74c2.4.34,4.79.79,7.15,1.35"/><path class="cls-25" d="M155.79,80.46a2.59,2.59,0,0,0,1.08,2.18,2.16,2.16,0,0,0,2.39,0,2.58,2.58,0,0,0,1-1.55c.32-1.24-.32-3.17-1.73-3.5S155.83,79.23,155.79,80.46Z"/><path class="cls-25" d="M132.15,73.7a2.55,2.55,0,0,0,1.09,1.39,2,2,0,0,0,1.74.15,2.36,2.36,0,0,0,1.1-1,3.17,3.17,0,0,0,.44-2.18,2.33,2.33,0,0,0-1.36-1.72C133.06,69.47,131.54,71.89,132.15,73.7Z"/><path class="cls-24" d="M106.41,156.25a13.66,13.66,0,0,1,10.28-2.47,6.8,6.8,0,0,1,3.73,1.68c2.06,2.06,1.67,5.43,1.14,8.29q-4.8,25.74-9.61,51.5c-.58,3.09-1.47,6.61-4.3,8,.59-.29-1.59-12.75-1.74-14.1q-.82-7.19-1.54-14.38c-.93-9.39-.92-19.18-2.58-28.46C101.07,162.27,103.07,158.72,106.41,156.25Z"/><path class="cls-30" d="M202.68,145.1c-9.67,14.76-21.77,29.13-31.44,43.9a16.13,16.13,0,0,1-3.76,4.45c-2.31,1.66-5.32,2-8.17,2a49.86,49.86,0,0,1-37.21-17c-3.17-3.65-5.84-7.92-6.6-12.68-.83-5.17.66-10.39,2.13-15.41q6.15-21,12.28-41.91c3.67,14.12,14.35,26,27.61,32S188.36,147.83,202.68,145.1Z"/><path class="cls-31" d="M185.47,164.26A211.22,211.22,0,0,0,167,192.87c-14.51,2.73-30.75-2.55-40.36-13.74,10.47,2.17,21.22,2.91,31.71.83A46.78,46.78,0,0,0,185.47,164.26Z"/><path class="cls-32" d="M131.39,123.46q-7.27,24-14.56,48"/><path class="cls-32" d="M140,134.87a272,272,0,0,0-18.2,44.59"/><path class="cls-32" d="M151.24,142.83a350.34,350.34,0,0,0-21,42.85"/><path class="cls-32" d="M189.88,151.37,159.1,195.76"/><path class="cls-32" d="M174,149.9l-27.5,44.8"/><path class="cls-32" d="M160.5,146.2Q149,168.25,139.69,191.37"/><path class="cls-33" d="M209.69,128.91c-.16-5.44-3-10.45-6.34-14.77a59.13,59.13,0,0,0-25.54-19.25A51.11,51.11,0,0,0,146,93.29c-6.23,1.77-12.42,5.15-15.45,10.88-2.48,4.71-2.48,10.41-1.26,15.59a36.79,36.79,0,0,0,14.37,21.39c5.32,3.78,11.54,6.06,17.78,8,7.17,2.22,14.54,4,22,4.14,6,.09,15.36-.51,19.41-5.76C206.52,142.81,209.86,134.79,209.69,128.91Z"/><path class="cls-34" d="M178.38,98.07a49.48,49.48,0,0,0-33.55-1.17c-3.39,1.1-7,3-7.94,6.43-.8,3,.87,6.17,2.68,8.76a61.21,61.21,0,0,0,55.66,25.18c3.86-.43,8.12-1.52,10.15-4.83,4.11-6.69-3.46-15.13-7.48-20A49.56,49.56,0,0,0,178.38,98.07Z"/><g class="cls-35"><path class="cls-17" d="M188.07,107.17a11,11,0,0,1,6.82,7.57,8.83,8.83,0,0,1-.17,6,7.32,7.32,0,0,1-5,4,10,10,0,0,1-6.45-.76,10.3,10.3,0,0,1-5.19-5.23C175.49,112.36,181.15,105,188.07,107.17Z"/><path class="cls-18" d="M183.82,113.65a12.42,12.42,0,0,0,7.88-4.33"/><path class="cls-18" d="M189.8,117.39a9.42,9.42,0,0,0,3.84-5.82"/><path class="cls-17" d="M155,103.88a9.9,9.9,0,0,0-1.9,6.61,11,11,0,0,0,2.65,6.69,8.6,8.6,0,0,0,14.44-2.06,10.84,10.84,0,0,0-.35-9.64C167,100.06,159,98.81,155,103.88Z"/><path class="cls-36" d="M158.56,111.4a13.75,13.75,0,0,1,7.85-10"/><path class="cls-36" d="M161.28,113.35a16.65,16.65,0,0,1,4.1-4.06"/><path class="cls-37" d="M165.25,111.4a10.91,10.91,0,0,1,10.6-4.36A9.93,9.93,0,0,1,181,124a11.19,11.19,0,0,1-8.94,3.06c-2.89-.31-7.14-2-8.19-5A11.91,11.91,0,0,1,165.25,111.4Z"/><path class="cls-18" d="M171.14,107.37a4.9,4.9,0,0,0,2.2,4.83,8.38,8.38,0,0,0,5.4,1.18,5.28,5.28,0,0,0,3.91-1.74"/><path class="cls-18" d="M166.17,110.52a7,7,0,0,0,2.7,6.21,16.91,16.91,0,0,0,11.18,2.87,7.07,7.07,0,0,0,4.15-2.09"/><path class="cls-38" d="M185,118.28c2.81-.57,5.79-.85,8.49.12a11.17,11.17,0,0,1,5.95,5.43,13.64,13.64,0,0,1-3.53,16.4,14.07,14.07,0,0,1-16.87.09c-5.53-4.28-8.2-14.88-1.44-19.1A21.7,21.7,0,0,1,185,118.28Z"/><path class="cls-8" d="M194.06,123.93a49.9,49.9,0,0,1,14.49-11.8c1.59-.86,3.38-1.65,5.14-1.29a2.1,2.1,0,0,1,1.4.85,1.78,1.78,0,0,1-.12,1.82,4.7,4.7,0,0,1-1.38,1.32,58.94,58.94,0,0,1-6,3.53l-14.54,7.82a.9.9,0,0,1,.17-1"/><path class="cls-9" d="M197.14,111.85a42.92,42.92,0,0,1,8.05-8.44c.71-.58,1.78-1.16,2.46-.54a1.77,1.77,0,0,1,.16,1.91c-.88,2.3-2.91,3.93-4.68,5.63A36,36,0,0,0,193.6,126c.07-.22-.55-1.36-.59-1.71a8.37,8.37,0,0,1,0-1.66,19.68,19.68,0,0,1,.68-3.66A24.21,24.21,0,0,1,197.14,111.85Z"/><path class="cls-10" d="M193.28,124.71a27.6,27.6,0,0,1,11.57-18.86l-.61.55"/><path class="cls-10" d="M194.06,125a110.77,110.77,0,0,1,17.67-11.21"/><path class="cls-36" d="M193.5,118.85a4.59,4.59,0,0,0-4,3,6.42,6.42,0,0,0,.77,6.34,5.89,5.89,0,0,0,6,2.1,5.45,5.45,0,0,0,4-4.81"/><path class="cls-36" d="M187.33,118a5.47,5.47,0,0,0-2.7,2.37,8.75,8.75,0,0,0-1.08,3.46,13.19,13.19,0,0,0,8.15,13.83"/><path class="cls-38" d="M156.42,133.92a13.74,13.74,0,0,0,8.13-11.78,12.25,12.25,0,0,0-7.87-11.71,11.08,11.08,0,0,0-13,4.87,11.62,11.62,0,0,0-1.23,6.68,13,13,0,0,0,17.86,10.64"/><path class="cls-18" d="M150.52,111.6a5.37,5.37,0,0,0-2.4,5.16,5,5,0,0,0,3.86,4.13,4.78,4.78,0,0,0,5.07-2.41,4.53,4.53,0,0,0-1.16-5.44"/><path class="cls-8" d="M154.65,101.79c.39-4.09.19-8.52-2.25-11.82a6,6,0,0,0-2.44-2,3.29,3.29,0,0,0-3.08.22,3.57,3.57,0,0,0-1.36,2.79,10.76,10.76,0,0,0,.5,3.17l1.52,5.73q2.31,8.76,4.63,17.51a1.27,1.27,0,0,0,.24.56c.41.45,1.23.08,1.44-.5a3.36,3.36,0,0,0-.09-1.8,23.14,23.14,0,0,1,0-3,27.62,27.62,0,0,1,.05-3.64C154,106.56,154.41,104.18,154.65,101.79Z"/><path class="cls-9" d="M163.15,94.22a14.29,14.29,0,0,1,4.38-4.11,2.42,2.42,0,0,1,2.63-.08,1.91,1.91,0,0,1,.33,2.21A6,6,0,0,1,169,94.07a52.49,52.49,0,0,0-14.2,22.47c-.39,1.26-2.36,2.85-2.5.69-.11-1.64,1.08-4,1.6-5.58a59.85,59.85,0,0,1,5.24-11.45A59.19,59.19,0,0,1,163.15,94.22Z"/><path class="cls-10" d="M153.38,117.1a28.77,28.77,0,0,1,4.7-12.82,55.78,55.78,0,0,1,9-10.38"/><path class="cls-10" d="M150.1,92.78c.51,6.88,1.33,13.74,2.47,20.54"/><path class="cls-17" d="M172.79,120a14.49,14.49,0,0,1,7.46,8,9.67,9.67,0,0,1,.52,6c-1.1,3.94-5.57,6.19-9.66,6a19.87,19.87,0,0,1-8.65-2.85c-2.46-1.36-5.48-2.93-6.87-5.5-2.72-5.05,3.56-10.69,7.88-12.14A12.93,12.93,0,0,1,172.79,120Z"/><path class="cls-36" d="M167.73,120.3a2.59,2.59,0,0,0-1.79,1.14,6.06,6.06,0,0,0,5.43,9.71,4.21,4.21,0,0,0,2.52-1.08,3.86,3.86,0,0,0,1.08-2.69,6.62,6.62,0,0,0-.66-2.86l-.29.06"/><path class="cls-36" d="M161.42,120.48a8,8,0,0,0-2.14,9.52"/><path class="cls-36" d="M175.28,136a9.09,9.09,0,0,0,5.75-3.87"/><path class="cls-8" d="M171.28,127.52a45,45,0,0,0-2.51-21.31,2.8,2.8,0,0,0-1.46-1.86,1.93,1.93,0,0,0-2.2,1.31,5.28,5.28,0,0,0,0,2.79c.42,2.31,1,4.59,1.54,6.87q1.55,6.33,3.1,12.66a1.33,1.33,0,0,0,.25.6c.43.5,1.34.09,1.53-.54a2.78,2.78,0,0,0-.34-1.91"/><path class="cls-9" d="M175,114.85a23.21,23.21,0,0,1,8.58-9.78,2.39,2.39,0,0,1,1.24-.44,1.83,1.83,0,0,1,1.49,2.16,5.44,5.44,0,0,1-1.44,2.55,128.08,128.08,0,0,0-12.5,17.9c-.29.5-.64,1-1.2,1.17-1.49.34-.69-1.39-.48-1.92.52-1.26.82-2.65,1.25-3.95A55.47,55.47,0,0,1,175,114.85Z"/><path class="cls-10" d="M171,127.36a69,69,0,0,1,12.25-20"/><path class="cls-10" d="M167.48,107.79a72.44,72.44,0,0,1,3.36,20.55"/></g><path class="cls-13" d="M116.83,70.23c-6.28.26-10.52,3.55-12.9,9.35A31.77,31.77,0,0,0,102.6,100c2,7.55,5.74,14.54,10,21.06A131.28,131.28,0,0,0,139,150.33a4.82,4.82,0,0,0,3.3,1.49,4.92,4.92,0,0,0,2.56-1.39l7.64-6.45c-8-9-15.5-18.68-20.84-29.51s-8.45-23-7.35-35c.2-2.19.49-4.56-.66-6.43C122.28,70.83,119.39,70.12,116.83,70.23Z"/><path class="cls-14" d="M104.28,104.8c.09.16.2.33.37.37a.67.67,0,0,0,.52-.21L113,98.63c3.55-2.86,7.21-5.78,11.57-7.11A27.06,27.06,0,0,0,113,91a69.69,69.69,0,0,0-9.44,2.26c-.47.14-1.55.24-1.82.68s0,1.47,0,1.94a20.15,20.15,0,0,0,.72,4.37A19.64,19.64,0,0,0,104.28,104.8Z"/><path class="cls-17" d="M127.71,88.88a2.59,2.59,0,0,0,.3-1.23c.1-2-.29-4-.08-6a33.45,33.45,0,0,1,1.44-6.49c1.26-4,2.93-7.91,3.66-12,1-5.68,0-13.54-7-14.56-3-.45-6,.94-8.61,2.58A40.1,40.1,0,0,0,101.72,70a38,38,0,0,0-1.27,24.45,56.37,56.37,0,0,1,13.12-3.12c3.82-.53,7.67-.85,11.48-1.52C126.37,89.57,127.28,89.6,127.71,88.88Z"/><path class="cls-27" d="M99,97l31.4-6.1a45.09,45.09,0,0,1-1.25-8.57l-8.35,1.56-13.63,2.55-6.75,1.26c-1.56.3-3.61.2-3.36,2.26A32,32,0,0,0,99,97Z"/><path class="cls-15" d="M139.65,146.35l-2.31,2a1.28,1.28,0,0,0-.53.77,1.25,1.25,0,0,0,.3.78c2.75,3.92,5.84,7.92,10.17,10.15a27.13,27.13,0,0,0,10.85,2.77,13.41,13.41,0,0,0,5.77-.65,8.1,8.1,0,0,0,3.63-2.86,5.24,5.24,0,0,0,1-4.23,6.57,6.57,0,0,0-2.85-3.51A81.7,81.7,0,0,0,158,147.2a30.61,30.61,0,0,1-5.37-3.82c-.4-.35-4.37-4.41-4-4.7Z"/><path class="cls-15" d="M162.45,142.81a4.81,4.81,0,0,1,1.56.25,1.55,1.55,0,0,1,1,1.12,1.52,1.52,0,0,1-.61,1.38,4.43,4.43,0,0,1-1.41.7,21.69,21.69,0,0,1-6.45,1.43,10.5,10.5,0,0,1-4.49-.88,5.37,5.37,0,0,1-2-1.35,5.87,5.87,0,0,1-.91-2.63,4.11,4.11,0,0,1,0-1.71,1.79,1.79,0,0,1,1.07-1.27,2.93,2.93,0,0,1,2.24.54A23.42,23.42,0,0,0,162.45,142.81Z"/><path class="cls-16" d="M137.31,151.29c.19.22.43.46.72.42a.82.82,0,0,0,.47-.28q6.13-5.55,12-11.42a54.46,54.46,0,0,1-3.46-4.83c-.14-.21-6.49,5-7,5.49q-1.66,1.53-3.18,3.18c-.74.8-2.52,2.24-2.62,3.38-.07.75.71,1.37,1.16,1.87Z"/><path class="cls-39" d="M156.68,153.35a39.28,39.28,0,0,0,11.6,3.13"/><path class="cls-39" d="M155.31,156.56a26.48,26.48,0,0,0,11.57,3.15"/><path class="cls-39" d="M153.16,159.23a31.84,31.84,0,0,0,10.3,3.25"/><path class="cls-39" d="M157.82,147.4a9,9,0,0,1-4.36-3.08"/><path class="cls-13" d="M144.69,44.06a13.54,13.54,0,0,0-2.25,4.24,8.46,8.46,0,0,0,2.41,7.79,14.78,14.78,0,0,0,7.52,3.76c1.81.39,3.82.53,5.4-.42a8.86,8.86,0,0,0,2.91-3.71l4.2-8a25.22,25.22,0,0,0,2.92-7.36A8.49,8.49,0,0,0,165.89,33c-2.15-2.18-5.69-2.5-8.59-1.48C151.34,33.59,148.08,39.17,144.69,44.06Z"/><path class="cls-14" d="M160.08,56.65A22.11,22.11,0,0,0,162.45,53c.19-.37,1.44-3.39,1.55-3.34-3-1.39-4.94-4.34-6.18-7.38S155.93,36,154.67,33a8.89,8.89,0,0,0-2.25,2.88,9,9,0,0,0-.55,3.58,18.66,18.66,0,0,0,1.58,7.5A36.21,36.21,0,0,0,160.08,56.65Z"/><path class="cls-23" d="M187.3,33a18.72,18.72,0,0,1-7.39,6.83,3.73,3.73,0,0,1-2.47.68c-1.25-.26-1.9-1.67-2.16-2.92a13.8,13.8,0,0,1,1.07-8.81c1.44-3,4.36-6.05,7.68-6.84,3.17-.75,4.26,2.49,4.53,5.05A10.33,10.33,0,0,1,187.3,33Z"/><path class="cls-13" d="M163.48,9.94a14.89,14.89,0,0,0-7.13,5.68,34,34,0,0,0-4,8.33,59.27,59.27,0,0,0-1.8,5.92,17.09,17.09,0,0,0-.73,5.52,18.07,18.07,0,0,0,4.16,10,15,15,0,0,0,11.1,5.25,13,13,0,0,0,7-2.06c2.29-1.46,3.81-3.69,5.3-5.91a40.57,40.57,0,0,0,6-12.1c1.14-4.38,1-9.24-1.24-13.18-2.05-3.6-5.18-4.84-8.81-6.32C170.09,9.73,166.92,8.77,163.48,9.94Z"/><path class="cls-23" d="M144,22a6.07,6.07,0,0,0-.22,3.69,5,5,0,0,0,1.45,2.1,7.21,7.21,0,0,0,8.94.55,10.26,10.26,0,0,0,2.43-2.53,27.64,27.64,0,0,0,3.23-6.48,11.31,11.31,0,0,0,.9-4,4.31,4.31,0,0,0-1.66-3.55,5.28,5.28,0,0,0-4.06-.49,11.73,11.73,0,0,0-5.83,2.85c-.6.61-1.12,1.32-1.71,1.95a16,16,0,0,0-1.94,2.54A15.46,15.46,0,0,0,144,22Z"/><path class="cls-13" d="M147,24.61A6.33,6.33,0,0,0,144.19,28a10,10,0,0,0,.18,7.62,4.21,4.21,0,0,0,3.06,2.75,4,4,0,0,0,3.39-1.81C153.17,33.59,153.81,21.12,147,24.61Z"/><path class="cls-15" d="M159.62,2.41A21.68,21.68,0,0,1,170,0a21,21,0,0,1,17.31,10c3.07,5.18,3.6,11.53,2.93,17.52.05-.44-5.52-2.52-6.13-2.77q-3.17-1.29-6.41-2.33a91.36,91.36,0,0,0-13.25-3.21A89.6,89.6,0,0,0,150.81,18c-1.26,0-4.81.49-4.8-1.55,0-1.55,2.28-3.62,3.18-4.74C152.11,8,155.43,4.58,159.62,2.41Z"/><path class="cls-16" d="M145.59,15.93,160,18.59A86.18,86.18,0,0,1,174,22c2.31.84,4.55,1.87,6.92,2.55a47.74,47.74,0,0,0,10,1.41c-.45-1.44.62-3.05.12-4.47a3.94,3.94,0,0,0-1.52-1.72c-6.29-4.65-14.43-5.7-22-7.67a91.42,91.42,0,0,0-9.17-2.24c-2.65-.4-6.17-.69-8.67.53C147.79,11.29,146.25,14,145.59,15.93Z"/><path class="cls-15" d="M139.81,14.7c-1.4.08-3.12.46-3.49,1.77A2.3,2.3,0,0,0,137.67,19a7.4,7.4,0,0,0,3.07.59l14,.63a104.84,104.84,0,0,1,12.54,1.09,86,86,0,0,1,11.05,2.82q9.45,2.94,18.64,6.58a6.85,6.85,0,0,0,3,.69,2.21,2.21,0,0,0,2.13-1.86c0-1.44-1.8-2.11-3.25-2.45-5.84-1.4-11.28-4-16.94-5.9a160.26,160.26,0,0,0-20.23-5A85.71,85.71,0,0,0,139.81,14.7Z"/><path class="cls-16" d="M162.56,2a9.41,9.41,0,0,0,3.21,8.28,8,8,0,0,0-1.61,0c-.54,0-1.08-.09-1.61-.17-1.1-.17-2.18-.43-3.26-.67a30.13,30.13,0,0,0-3.26-.6c-1-.12-2.09.11-3-.05.21-.61,1.21-1.28,1.68-1.72a30.69,30.69,0,0,1,2.42-2A28.7,28.7,0,0,1,162.56,2Z"/><ellipse class="cls-7" cx="265.63" cy="324.99" rx="210.95" ry="8.1"/><path class="cls-9" d="M279.92,284.38a4.77,4.77,0,0,0-1.9-2.47,4.08,4.08,0,0,0-3.93.64c-3.26,2.14-5,6.08-5.33,10s.5,7.77,1.44,11.55c1.06,4.33,2.28,8.71,4.68,12.47,1.6,2.49,4.56,6,7.64,6.63,3.32.71,2.48-4.42,2.49-6.53a104.43,104.43,0,0,0-1.63-21.26A52.18,52.18,0,0,0,279.92,284.38Z"/><path class="cls-10" d="M274.45,288.34a157,157,0,0,0,5.19,28.28"/><path class="cls-8" d="M292.89,288.56c.73-.85,1.65-1.75,2.76-1.63,1.5.17,2.12,2,2.29,3.49a34.67,34.67,0,0,1-10,28.33c-2.73,2.68-7.74,6-9.2.41-1.22-4.69,1.64-10.11,3.56-14.22A70.75,70.75,0,0,1,292.89,288.56Z"/><path class="cls-10" d="M293.44,294.91q-5.07,12.43-10.13,24.89"/><path class="cls-9" d="M337.61,292.41a27.51,27.51,0,0,0-1.07-7.12,4.72,4.72,0,0,0-1.75-2.61,3.69,3.69,0,0,0-4,.32,8.21,8.21,0,0,0-2.52,3.31,26.94,26.94,0,0,0-1.95,16.15,42.18,42.18,0,0,0,6.17,15.22,7.52,7.52,0,0,0,3.5,3.42c5.48,2,2.83-8.23,2.68-10.74Q338.16,301.39,337.61,292.41Z"/><path class="cls-10" d="M331.21,288.42a90.41,90.41,0,0,0,5.15,29.23"/><path class="cls-8" d="M341,285.63a12.42,12.42,0,0,1,1.88-3.72,4.45,4.45,0,0,1,3.6-1.8c2,.12,3.44,2,3.8,3.92a13.33,13.33,0,0,1-.65,5.79c-1.57,5.92-3.14,11.85-4.86,17.72-.88,3-1.79,5.94-2.76,8.88-.75,2.24-1.38,5.94-3.21,7.61-2.88,2.6-4.28-2.45-4.69-4.6-.91-4.88.44-10,1.45-14.75A142.76,142.76,0,0,1,341,285.63Z"/><path class="cls-10" d="M345.28,285.84q-3.87,15.92-8.38,31.67"/><path class="cls-11" d="M335.91,316.73a12.43,12.43,0,0,1,8.23,1.6,37,37,0,0,1,6.79,5.18,2.15,2.15,0,0,1,.83,1.18c.1.73-.54,1.33-1.17,1.71a14.85,14.85,0,0,1-4.86,1.54c-6.37,1.21-13.07,2.16-19.25.2-1.32-.42-3.06-1.42-2.83-3.09.19-1.38,2-2.22,3-2.92C329.54,320.11,332.3,317.44,335.91,316.73Z"/><path class="cls-11" d="M276,317.27a14.09,14.09,0,0,1,11.65.84,26.36,26.36,0,0,1,6.3,5.44,2.78,2.78,0,0,1,.74,1.1c.37,1.26-1,2.3-2.19,2.83a28.32,28.32,0,0,1-15.53,2,21.56,21.56,0,0,1-7.56-2.21c-2.13-1.27-1-3.39.13-5A14,14,0,0,1,276,317.27Z"/><path class="cls-8" d="M209.35,299.08a23.38,23.38,0,0,1,2.54-5.65,7.92,7.92,0,0,1,4.94-3.5,4.81,4.81,0,0,1,5.2,2.48,7.24,7.24,0,0,1,0,4.62,45.78,45.78,0,0,1-10.74,20c-1.17,1.28-5.45,6.62-7.39,5.51-2.16-1.24-.44-6.39.11-8C205.75,309.36,207.56,304.22,209.35,299.08Z"/><path class="cls-10" d="M206.79,317.32a109.84,109.84,0,0,1,11.83-23.11"/><path class="cls-9" d="M191.28,299c-.68-2.47-1.2-5.12-.45-7.58s3.17-4.57,5.69-4.13c2.09.36,3.55,2.23,4.62,4.06,4.29,7.34,5.73,15.94,6.94,24.23.44,3,.13,7.73-4.09,5.76-3.34-1.56-5.38-5.56-7.08-8.61A62.47,62.47,0,0,1,191.28,299Z"/><path class="cls-10" d="M195.32,292.6q3.84,12.36,8.85,24.3"/><path class="cls-11" d="M220,326.05c0-.13-.09-.25-.13-.38a3.81,3.81,0,0,0-.27-1.34,12,12,0,0,0-2.43-3.3,14.86,14.86,0,0,0-2.95-2.59,14.16,14.16,0,0,0-7.31-2.42,13.93,13.93,0,0,0-6.41,1.38,14.78,14.78,0,0,0-4.71,3.51c-.87,1-3,3.39-2.22,4.65,1,1.48,4.63,2.51,6.23,3a24.23,24.23,0,0,0,6.48,1.14h1a11.16,11.16,0,0,0,4.78.19,32.89,32.89,0,0,0,5-1.35,4.55,4.55,0,0,0,2.33-1.34,2.49,2.49,0,0,0,.43-1.07Z"/><path class="cls-8" d="M145.56,292c1.28-2,2.74-4,4.86-5.11s5.09-.84,6.46,1.11c1,1.4.91,3.26.64,5-1.5,9.51-7.93,17.23-14.06,24.26-1.65,1.89-6,7.59-7.62,2.94-1.36-3.8.87-8.9,2.1-12.43A76.33,76.33,0,0,1,145.56,292Z"/><path class="cls-10" d="M151.49,293.88A128.49,128.49,0,0,0,137.1,320"/><path class="cls-9" d="M126,292c-1.56-1.63-3.58-3.22-5.82-2.93s-3.82,2.35-4.33,4.51a11.68,11.68,0,0,0,1.67,8.49,34.68,34.68,0,0,0,5.75,6.72l10.74,10.58c1.41,1.38,6.55,4.54,6.45.47,0-1.29-1.27-3.31-1.7-4.51q-.87-2.49-1.83-4.93C134.34,303.74,131,297.21,126,292Z"/><path class="cls-10" d="M121.16,294.61a98,98,0,0,1,17.47,24.8"/><path class="cls-11" d="M136.48,318.8a9.67,9.67,0,0,1,7.75,1.35,15.23,15.23,0,0,1,2.78,2.22,9.76,9.76,0,0,1,2.22,2.62,1.55,1.55,0,0,1-.1,1.52,2.13,2.13,0,0,1-.95.62,23.16,23.16,0,0,1-12.82,1.51c-1.43-.24-6-1-6.66-2.46-.56-1.17,1.47-1.92,2.25-2.53C133,322.06,133.75,319.62,136.48,318.8Z"/><path class="cls-8" d="M393.2,289.41c1.27-2,2.73-4,4.86-5.1s5.09-.85,6.45,1.1c1,1.4.92,3.26.65,4.95-1.51,9.51-7.93,17.24-14.07,24.27-1.65,1.89-5.95,7.58-7.61,2.93-1.37-3.8.87-8.9,2.1-12.42A76.14,76.14,0,0,1,393.2,289.41Z"/><path class="cls-10" d="M399.12,291.34a128.59,128.59,0,0,0-14.38,26.1"/><path class="cls-9" d="M373.68,289.45c-1.56-1.63-3.59-3.22-5.83-2.93s-3.81,2.36-4.32,4.52a11.62,11.62,0,0,0,1.67,8.48,34.38,34.38,0,0,0,5.75,6.72l10.74,10.58c1.4,1.38,6.54,4.54,6.45.47,0-1.29-1.27-3.3-1.7-4.51-.59-1.65-1.19-3.3-1.84-4.93C382,301.19,378.68,294.66,373.68,289.45Z"/><path class="cls-10" d="M368.8,292.06a98,98,0,0,1,17.47,24.8"/><path class="cls-11" d="M384.12,316.25a9.76,9.76,0,0,1,7.75,1.35,21.72,21.72,0,0,1,5.72,5.67c.26.34-6.32,2.61-6.92,2.73a21.49,21.49,0,0,1-7.67.09c-1.43-.24-6-1-6.66-2.46-.57-1.17,1.46-1.91,2.25-2.52C380.64,319.51,381.38,317.07,384.12,316.25Z"/><path class="cls-11" d="M296.07,327.73a1.54,1.54,0,0,0,1.77.39,2.23,2.23,0,0,0,1.2-1.44c.36-1.22-.71-2.78-2-2.05C296.06,325.13,295.36,326.83,296.07,327.73Z"/><path class="cls-11" d="M295.42,322a1.38,1.38,0,0,0,1.23-.24,1.05,1.05,0,0,0,.29-.85,1.69,1.69,0,0,0-.33-.86,2,2,0,0,0-1.56-.95c-.68,0-1.61.58-1.5,1.34S294.73,321.88,295.42,322Z"/><path class="cls-11" d="M264.29,321.05a1.43,1.43,0,0,0,0,1.36,1.47,1.47,0,0,0,1.25.52,2.73,2.73,0,0,0,1.91-.71,1.89,1.89,0,0,0,.53-1.9C267.3,318.31,264.86,319.79,264.29,321.05Z"/><path class="cls-11" d="M265.64,329a1.51,1.51,0,0,0,.36,1.17,1.77,1.77,0,0,0,1.63.65,1.56,1.56,0,0,0,1.26-1.18,1.68,1.68,0,0,0-.75-1.65A1.51,1.51,0,0,0,265.64,329Z"/><path class="cls-11" d="M263.58,327.2a1.61,1.61,0,0,0-1.34-2.9C260.26,325.09,261.67,328.28,263.58,327.2Z"/><path class="cls-11" d="M301.07,325a1.76,1.76,0,0,0,2.38-.05c1.07-1,.78-3.76-1-3.73S299.94,323.89,301.07,325Z"/><path class="cls-11" d="M323,320.45a1.07,1.07,0,0,0,.77.83,2,2,0,0,0,1.17,0,1.69,1.69,0,0,0,1.14-.9,1.23,1.23,0,0,0-.75-1.55C324.52,318.5,322.84,319.47,323,320.45Z"/><path class="cls-11" d="M319.66,326.39a1.69,1.69,0,0,0,.18,1.13,1.45,1.45,0,0,0,1.93.43,1.63,1.63,0,0,0,.62-1.92,2,2,0,0,0-1.58-1.21C320.07,324.79,319.76,325.73,319.66,326.39Z"/><path class="cls-11" d="M318.76,323.32a2.4,2.4,0,0,0,1.19,0,1.24,1.24,0,0,0,.77-.36,1.06,1.06,0,0,0,.09-1.05,1.58,1.58,0,0,0-2.45-.67A1.21,1.21,0,0,0,318.76,323.32Z"/><path class="cls-11" d="M350.86,329.48c1.3-1.43-1.33-2.29-2.3-1.25a1.11,1.11,0,0,0,0,1.59A1.62,1.62,0,0,0,350.86,329.48Z"/><path class="cls-11" d="M352,322.09a1.21,1.21,0,0,0,.38-.06,1.15,1.15,0,0,0,.52-.34c.82-1-.52-.92-1.07-.68C351,321.39,350.71,322.15,352,322.09Z"/><path class="cls-11" d="M353,325a1.69,1.69,0,0,0,.52,1.38,1.33,1.33,0,0,0,1.42.24,1.49,1.49,0,0,0,.75-1.13,1.88,1.88,0,0,0-.51-1.53C354.11,322.86,353.07,323.7,353,325Z"/><path class="cls-11" d="M349,319.05a1,1,0,0,0-.22.78.94.94,0,0,0,.38.64,1,1,0,0,0,1.26-.06,1,1,0,0,0-1.09-1.56"/><path class="cls-11" d="M375.75,321.7a1.63,1.63,0,0,0,1.16-1,1.34,1.34,0,0,0-2.16-1.4C373.81,320.21,374.25,322.05,375.75,321.7Z"/><path class="cls-11" d="M371.38,324.16a1.35,1.35,0,0,0,.4,1.3,2.11,2.11,0,0,0,1.75.37,1.54,1.54,0,0,0,1-.42,1.25,1.25,0,0,0,.14-1.23C374.09,322.68,371.8,322.51,371.38,324.16Z"/><path class="cls-11" d="M376.32,327.17a1.11,1.11,0,0,0-.38,1.33,1.37,1.37,0,0,0,1.07.59,3.73,3.73,0,0,0,1.72-.2,2.2,2.2,0,0,0,1-.64,1.19,1.19,0,0,0,.2-1.1,1.26,1.26,0,0,0-.86-.69A3.48,3.48,0,0,0,376.32,327.17Z"/><path class="cls-11" d="M393.76,326.66a1.15,1.15,0,0,0-.35,1.1,1.26,1.26,0,0,0,1.19.61,3.23,3.23,0,0,0,1.66-.29c.92-.5,1.33-2,.17-2.51C395.61,325.2,394.28,326.08,393.76,326.66Z"/><path class="cls-11" d="M399.38,323.08a1.36,1.36,0,0,0,1.52-.33,1.53,1.53,0,0,0,.29-1.55c-.32-.88-1.64-1.62-2.48-1S398.5,322.67,399.38,323.08Z"/><path class="cls-11" d="M191.07,322.51a1.56,1.56,0,0,0,1.29-.73c.78-1.51-1.57-2.28-2.62-1.73a1.18,1.18,0,0,0-.65,1.35A1.73,1.73,0,0,0,191.07,322.51Z"/><path class="cls-11" d="M189.06,326.1a1.51,1.51,0,0,0,.8,1.53,1.49,1.49,0,0,0,1.7-.28,1.46,1.46,0,1,0-2.5-1.25Z"/><path class="cls-11" d="M184.32,324.41a1.45,1.45,0,1,0,2.05-2A1.43,1.43,0,0,0,184.32,324.41Z"/><path class="cls-11" d="M193.93,330.66a1.52,1.52,0,0,0,.84-.07,1.46,1.46,0,0,0,.87-.66,1.24,1.24,0,0,0-1.58-1.62C193.28,328.7,192.83,330.4,193.93,330.66Z"/><path class="cls-11" d="M219.42,321a1,1,0,0,0,.62-.13,1.1,1.1,0,0,0,.46-.89c.09-1-1.11-2.19-2-1.31A1.44,1.44,0,0,0,219.42,321Z"/><path class="cls-11" d="M222.08,329c.73-.46,1.45-2.18.12-2.29-.85-.06-2.13.75-1.92,1.72A1.17,1.17,0,0,0,222.08,329Z"/><path class="cls-11" d="M221.74,324.38c0,.37.42.6.78.68a1.85,1.85,0,0,0,1.55-.32c.72-.59.77-2-.31-2.28C223,322.29,221.67,323.66,221.74,324.38Z"/><path class="cls-11" d="M127,323.61a.88.88,0,0,0,1.1-1.37A.88.88,0,0,0,127,323.61Z"/><path class="cls-11" d="M125.25,327.12a1,1,0,0,0,1.13-.62,1,1,0,0,0-.45-1,1.53,1.53,0,0,0-1.17-.14C123.4,325.64,124.37,326.92,125.25,327.12Z"/><path class="cls-11" d="M123.39,323.38a1,1,0,0,0,.3.36,2.53,2.53,0,0,0,.87.43.85.85,0,0,0,.7-.06.78.78,0,0,0,.09-1,1.52,1.52,0,0,0-.84-.68,1,1,0,0,0-.71,0A.85.85,0,0,0,123.39,323.38Z"/><path class="cls-11" d="M150.54,322c1.48-.44.54-2-.7-1.56a1.1,1.1,0,0,0-.83.89C149,322.21,150,322.17,150.54,322Z"/><path class="cls-11" d="M148.19,329.53a2.52,2.52,0,0,0,1.25.13c.26,0,.56-.14.65-.39s-.14-.63-.42-.81c-.48-.32-1.61-.77-2.15-.34S147.74,329.34,148.19,329.53Z"/><path class="cls-11" d="M151.51,326.08a1.11,1.11,0,0,0,1.29-.29,1.1,1.1,0,0,0,0-1.32C151.73,323,150,325.36,151.51,326.08Z"/><path class="cls-11" d="M154.76,323.31a2.2,2.2,0,0,0,1,0,1.39,1.39,0,0,0,.89-.47c.71-1-.86-1.83-1.69-1.6S153.66,323,154.76,323.31Z"/><path class="cls-7" d="M134.4,323.25a.49.49,0,0,0,.44,0,.79.79,0,0,0,.41-.63c0-.39-.43-.75-.76-.44S134,323,134.4,323.25Z"/><path class="cls-7" d="M142.81,325a.65.65,0,0,0,.8.37.69.69,0,0,0,.4-.8C143.75,323.68,142.51,324.19,142.81,325Z"/><path class="cls-7" d="M140.81,322.06a.62.62,0,0,0,.56.32.67.67,0,0,0,.55-.51c.1-.39-.12-1.33-.69-1.1A1,1,0,0,0,140.81,322.06Z"/><path class="cls-7" d="M200.26,324.26a.91.91,0,0,0-1.43-1.14A.91.91,0,1,0,200.26,324.26Z"/><path class="cls-7" d="M204.13,320.51c.76-.39.35-2.11-.57-1.59S203.21,321,204.13,320.51Z"/><path class="cls-7" d="M209.58,326.62a1.22,1.22,0,0,0,1.16.79,1.69,1.69,0,0,0,1.11-.32,1.11,1.11,0,0,0-.38-2C210.68,325,209.35,325.68,209.58,326.62Z"/><path class="cls-7" d="M213.75,323.58c.73-.53-.24-2-1.08-1.32S213,324.15,213.75,323.58Z"/><path class="cls-7" d="M274,321.1a.76.76,0,0,0,.65.57.92.92,0,0,0,.79-.4.77.77,0,0,0,.07-.75C275.16,319.73,273.85,320.29,274,321.1Z"/><path class="cls-7" d="M276.11,325a.76.76,0,0,0,.44-.44c.27-.71-.48-1.56-1.11-.91S275.3,325.28,276.11,325Z"/><path class="cls-7" d="M272.64,323.44a1,1,0,0,0,.59.81,1.11,1.11,0,0,0,1.49-1,1,1,0,0,0-.5-.86A1.16,1.16,0,0,0,272.64,323.44Z"/><path class="cls-7" d="M287.68,322.59a.93.93,0,0,0,1.07.28.82.82,0,0,0,.42-1,1.21,1.21,0,0,0-1.32-.62C287.34,321.45,287.4,322.23,287.68,322.59Z"/><path class="cls-7" d="M286.83,325.64a1,1,0,0,0,1-.2.74.74,0,0,0,.26-.5,1.07,1.07,0,0,0-1.54-.92A.94.94,0,0,0,286.83,325.64Z"/><path class="cls-7" d="M338,327.37a.85.85,0,0,0,.46-.87c-.09-.69-1.1-1.1-1.46-.39S337.21,327.73,338,327.37Z"/><path class="cls-7" d="M333.58,326.55a1.16,1.16,0,0,0,.76,0,1.18,1.18,0,0,0,.82-1,1.12,1.12,0,0,0-.62-1.11,1.39,1.39,0,0,0-1.54.42A1.2,1.2,0,0,0,333.58,326.55Z"/><path class="cls-7" d="M332.28,321.16a.5.5,0,0,0,.35.14c.65,0,1.35-1.08.57-1.4C332.58,319.66,331.83,320.68,332.28,321.16Z"/><path class="cls-7" d="M342.94,321.23a.66.66,0,0,0,.64,0,.71.71,0,0,0,.36-.65c0-.55-.6-1.57-1.24-1.1S342.38,320.92,342.94,321.23Z"/><path class="cls-7" d="M342.11,323.8a.7.7,0,0,0,.29.42.51.51,0,0,0,.4,0,.86.86,0,0,0,.53-.91,1,1,0,0,0-.94-.76C341.82,322.65,342,323.42,342.11,323.8Z"/><path class="cls-7" d="M390.81,322.81a.78.78,0,0,0,.91-1.27C390.87,320.89,390,322.23,390.81,322.81Z"/><path class="cls-7" d="M383.57,320.46a.85.85,0,0,0,.86.48.94.94,0,0,0,.77-.64,1.07,1.07,0,0,0-1-1.35C383.51,319,383.35,320,383.57,320.46Z"/><path class="cls-7" d="M381.59,322.4a.71.71,0,0,0,.57-.31c.43-.52.34-1.78-.58-1.37C381,321,380.71,322.34,381.59,322.4Z"/><path class="cls-7" d="M384.56,323.67a.56.56,0,0,0,.46-.17.58.58,0,0,0,.1-.53c-.1-.52-.81-1.08-1.27-.57S384,323.65,384.56,323.67Z"/></svg>