<?xml version="1.0" encoding="UTF-8" standalone="no"?>
<svg
   xmlns:dc="http://purl.org/dc/elements/1.1/"
   xmlns:cc="http://creativecommons.org/ns#"
   xmlns:rdf="http://www.w3.org/1999/02/22-rdf-syntax-ns#"
   xmlns:svg="http://www.w3.org/2000/svg"
   xmlns="http://www.w3.org/2000/svg"
   viewBox="0 0 400 133.33333"
   height="133.33333"
   width="400"
   xml:space="preserve"
   id="svg2"
   version="1.1"><metadata
     id="metadata8"><rdf:RDF><cc:Work
         rdf:about=""><dc:format>image/svg+xml</dc:format><dc:type
           rdf:resource="http://purl.org/dc/dcmitype/StillImage" /></cc:Work></rdf:RDF></metadata><defs
     id="defs6"><clipPath
       id="clipPath18"
       clipPathUnits="userSpaceOnUse"><path
         id="path16"
         d="M 0,100 H 300 V 0 H 0 Z" /></clipPath></defs><g
     transform="matrix(1.3333333,0,0,-1.3333333,0,133.33333)"
     id="g10"><g
       id="g12"><g
         clip-path="url(#clipPath18)"
         id="g14"><g
           transform="translate(297.8328,34.9415)"
           id="g20"><path
             id="path22"
             style="fill:#d3d3d3;fill-opacity:1;fill-rule:nonzero;stroke:none"
             d="m 0,0 c 0,-16.536 -65.808,-29.941 -146.985,-29.941 -81.178,0 -146.986,13.405 -146.986,29.941 0,16.536 65.808,29.941 146.986,29.941 C -65.808,29.941 0,16.536 0,0" /></g><g
           transform="translate(295.8531,38.4058)"
           id="g24"><path
             id="path26"
             style="fill:#adadad;fill-opacity:1;fill-rule:nonzero;stroke:none"
             d="m 0,0 c 0,-16.263 -65.808,-29.447 -146.985,-29.447 -81.178,0 -146.986,13.184 -146.986,29.447 0,16.263 65.808,29.447 146.986,29.447 C -65.808,29.447 0,16.263 0,0" /></g><g
           transform="translate(295.8531,43.3548)"
           id="g28"><path
             id="path30"
             style="fill:#f2f2f2;fill-opacity:1;fill-rule:nonzero;stroke:none"
             d="m 0,0 c 0,-16.263 -65.808,-29.447 -146.985,-29.447 -81.178,0 -146.986,13.184 -146.986,29.447 0,16.263 65.808,29.447 146.986,29.447 C -65.808,29.447 0,16.263 0,0" /></g><g
           transform="translate(126.1535,48.2259)"
           id="g32"><path
             id="path34"
             style="fill:#5995c1;fill-opacity:1;fill-rule:nonzero;stroke:none"
             d="m 0,0 c -2.183,-1.383 -4.616,-2.672 -7.385,-3.855 -5.383,-2.338 -11.777,-4.271 -18.877,-5.678 -8.546,-1.718 -18.102,-2.673 -28.258,-2.673 -6.766,0 -13.256,0.429 -19.378,1.229 -14.606,1.874 -26.98,5.811 -35.189,10.977 8.209,5.168 20.583,9.105 35.189,10.968 6.122,0.811 12.612,1.239 19.378,1.239 9.821,0 19.142,-0.893 27.495,-2.504 11.036,-2.149 20.379,-5.502 27.002,-9.69 0,0 0.013,0 0.023,-0.013" /></g><g
           transform="translate(152.8242,36.2594)"
           id="g36"><path
             id="path38"
             style="fill:#b4dbdf;fill-opacity:1;fill-rule:nonzero;stroke:none"
             d="M 0,0 C -10.894,2.599 -20.119,6.689 -26.646,11.756 -20.119,16.81 -10.894,20.913 0,23.511 -2.291,20.913 -1.658,16.81 -8.174,11.756 -1.658,6.689 -2.291,2.599 0,0" /></g><g
           transform="translate(57.8763,48.2259)"
           id="g40"><path
             id="path42"
             style="fill:#b4dbdf;fill-opacity:1;fill-rule:nonzero;stroke:none"
             d="M 0,0 C 0,-4.009 -2.054,-7.755 -5.621,-10.977 -20.227,-9.103 -32.601,-5.166 -40.81,0 -32.601,5.168 -20.227,9.105 -5.621,10.968 -2.054,7.745 0,4.011 0,0" /></g><g
           transform="translate(36.782,49.19)"
           id="g44"><path
             id="path46"
             style="fill:#000000;fill-opacity:1;fill-rule:nonzero;stroke:none"
             d="m 0,0 c 0,-1.053 -1.601,-1.901 -3.575,-1.901 -1.974,0 -3.574,0.848 -3.574,1.901 0,1.049 1.6,1.901 3.574,1.901 C -1.601,1.901 0,1.049 0,0" /></g><g
           transform="translate(33.8386,49.6931)"
           id="g48"><path
             id="path50"
             style="fill:#ffffff;fill-opacity:1;fill-rule:nonzero;stroke:none"
             d="m 0,0 c 0,-0.474 -0.72,-0.86 -1.611,-0.86 -0.895,0 -1.615,0.386 -1.615,0.86 0,0.472 0.72,0.856 1.615,0.856 C -0.72,0.856 0,0.472 0,0" /></g><g
           transform="translate(99.1203,57.9246)"
           id="g52"><path
             id="path54"
             style="fill:#b4dbdf;fill-opacity:1;fill-rule:nonzero;stroke:none"
             d="m 0,0 c -8.342,1.61 -17.662,2.505 -27.486,2.505 -6.762,0 -13.257,-0.43 -19.377,-1.236 2.488,1.236 4.236,1.507 7.163,2.636 2.12,0.661 4.838,1.872 7.781,2.662 -0.07,-1.191 -0.212,-2.666 -0.48,-3.397 4.913,0.426 8.983,1.429 12.988,1.213 -0.403,-0.234 -1.213,-0.876 -1.583,-1.539 1.481,0.106 4.442,0.538 6.054,0.519 5.218,-0.016 0.91,-1.34 3.099,-1.36 2.589,-0.032 5.717,0.054 6.797,-0.501 C -3.598,0.733 -2.925,1.199 0,0" /></g><g
           transform="translate(126.1535,48.2259)"
           id="g56"><path
             id="path58"
             style="fill:#dae8e8;fill-opacity:1;fill-rule:nonzero;stroke:none"
             d="m 0,0 c -6.085,0.538 -58.301,1.683 -68.35,1.446 -0.083,0.741 -0.24,1.468 -0.502,2.183 -0.023,0.071 -0.046,0.131 -0.069,0.202 49.234,0.037 67.789,-3.592 68.898,-3.818 0,0 0.013,0 0.023,-0.013" /></g><g
           transform="translate(49.4886,31.3677)"
           id="g60"><path
             id="path62"
             style="fill:#d7e5f2;fill-opacity:1;fill-rule:nonzero;stroke:none"
             d="M 0,0 C -4.62,-0.145 -31.468,9.701 -32.422,16.858 -24.213,11.693 -11.839,7.755 2.767,5.881 3.448,5.058 4.628,0.152 0,0" /></g><g
           transform="translate(126.1786,48.2259)"
           id="g64"><path
             id="path66"
             style="fill:#56aecb;fill-opacity:1;fill-rule:nonzero;stroke:none"
             d="m 0,0 c -1.872,-2.767 -4.026,-5.752 -7.426,-7.757 -0.753,-0.442 -3.266,-1.682 -4.078,-2.088 -18.4,-9.294 -50.189,-8.459 -65.186,-7.013 4.628,0.152 3.448,5.057 2.767,5.881 6.122,-0.8 12.612,-1.229 19.378,-1.229 10.156,0 19.712,0.955 28.258,2.673 7.1,1.407 13.493,3.34 18.877,5.678 2.769,1.183 5.202,2.472 7.385,3.855 z" /></g><g
           transform="translate(198.7863,47.7543)"
           id="g68"><path
             id="path70"
             style="fill:#5995c1;fill-opacity:1;fill-rule:nonzero;stroke:none"
             d="m 0,0 c -2.185,-1.384 -4.618,-2.674 -7.387,-3.856 -5.381,-2.337 -11.777,-4.269 -18.877,-5.679 -8.544,-1.718 -18.102,-2.672 -28.256,-2.672 -6.767,0 -13.258,0.428 -19.378,1.228 -14.608,1.874 -26.981,5.811 -35.189,10.979 8.208,5.168 20.581,9.103 35.189,10.966 6.12,0.811 12.611,1.241 19.378,1.241 9.819,0 19.14,-0.894 27.493,-2.506 C -15.99,7.553 -6.646,4.2 -0.025,0.012 c 0,0 0.013,0 0.025,-0.012" /></g><g
           transform="translate(225.4551,35.7861)"
           id="g72"><path
             id="path74"
             style="fill:#b4dbdf;fill-opacity:1;fill-rule:nonzero;stroke:none"
             d="M 0,0 C -10.894,2.599 -20.119,6.689 -26.646,11.756 -20.119,16.81 -10.894,20.913 0,23.512 -2.291,20.913 -1.658,16.81 -8.172,11.756 -1.658,6.689 -2.291,2.599 0,0" /></g><g
           transform="translate(130.5072,47.7543)"
           id="g76"><path
             id="path78"
             style="fill:#b4dbdf;fill-opacity:1;fill-rule:nonzero;stroke:none"
             d="M 0,0 C 0,-4.011 -2.051,-7.755 -5.619,-10.979 -20.227,-9.105 -32.6,-5.168 -40.808,0 -32.6,5.168 -20.227,9.103 -5.619,10.966 -2.051,7.744 0,4.011 0,0" /></g><g
           transform="translate(109.4128,48.7165)"
           id="g80"><path
             id="path82"
             style="fill:#000000;fill-opacity:1;fill-rule:nonzero;stroke:none"
             d="m 0,0 c 0,-1.051 -1.6,-1.901 -3.575,-1.901 -1.974,0 -3.573,0.85 -3.573,1.901 0,1.049 1.599,1.901 3.573,1.901 C -1.6,1.901 0,1.049 0,0" /></g><g
           transform="translate(106.4705,49.2198)"
           id="g84"><path
             id="path86"
             style="fill:#ffffff;fill-opacity:1;fill-rule:nonzero;stroke:none"
             d="m 0,0 c 0,-0.474 -0.721,-0.858 -1.612,-0.858 -0.895,0 -1.614,0.384 -1.614,0.858 0,0.472 0.719,0.856 1.614,0.856 C -0.721,0.856 0,0.472 0,0" /></g><g
           transform="translate(171.7532,57.4511)"
           id="g88"><path
             id="path90"
             style="fill:#b4dbdf;fill-opacity:1;fill-rule:nonzero;stroke:none"
             d="m 0,0 c -8.341,1.612 -17.664,2.505 -27.486,2.505 -6.764,0 -13.257,-0.43 -19.379,-1.236 2.488,1.236 4.238,1.508 7.165,2.636 2.12,0.663 4.836,1.872 7.781,2.662 -0.072,-1.189 -0.212,-2.666 -0.482,-3.397 4.915,0.428 8.985,1.429 12.99,1.213 -0.405,-0.233 -1.213,-0.876 -1.585,-1.539 1.481,0.108 4.443,0.538 6.056,0.519 5.216,-0.015 0.91,-1.34 3.099,-1.36 2.588,-0.032 5.717,0.054 6.795,-0.501 C -3.6,0.733 -2.925,1.199 0,0" /></g><g
           transform="translate(198.7863,47.7543)"
           id="g92"><path
             id="path94"
             style="fill:#dae8e8;fill-opacity:1;fill-rule:nonzero;stroke:none"
             d="m 0,0 c -6.087,0.536 -58.303,1.681 -68.35,1.444 -0.083,0.741 -0.24,1.468 -0.502,2.183 -0.023,0.071 -0.048,0.131 -0.071,0.202 49.234,0.037 67.789,-3.59 68.898,-3.817 0,0 0.013,0 0.025,-0.012" /></g><g
           transform="translate(122.1197,30.8942)"
           id="g96"><path
             id="path98"
             style="fill:#d7e5f2;fill-opacity:1;fill-rule:nonzero;stroke:none"
             d="M 0,0 C -4.62,-0.145 -31.468,9.701 -32.421,16.86 -24.212,11.693 -11.839,7.755 2.769,5.881 3.448,5.06 4.63,0.154 0,0" /></g><g
           transform="translate(198.8094,47.7543)"
           id="g100"><path
             id="path102"
             style="fill:#56aecb;fill-opacity:1;fill-rule:nonzero;stroke:none"
             d="m 0,0 c -1.872,-2.769 -4.024,-5.752 -7.425,-7.757 -0.754,-0.442 -3.267,-1.683 -4.077,-2.09 -18.402,-9.294 -50.19,-8.459 -65.188,-7.013 4.63,0.154 3.448,5.059 2.769,5.881 6.12,-0.8 12.611,-1.228 19.378,-1.228 10.154,0 19.712,0.954 28.256,2.672 7.1,1.41 13.495,3.342 18.877,5.679 2.769,1.182 5.202,2.472 7.387,3.856 z" /></g><g
           transform="translate(262.2662,47.7543)"
           id="g104"><path
             id="path106"
             style="fill:#5995c1;fill-opacity:1;fill-rule:nonzero;stroke:none"
             d="m 0,0 c -2.185,-1.384 -4.62,-2.674 -7.389,-3.856 -5.379,-2.337 -11.777,-4.269 -18.877,-5.679 -8.542,-1.718 -18.102,-2.672 -28.255,-2.672 -6.767,0 -13.259,0.428 -19.379,1.228 -14.606,1.874 -26.979,5.811 -35.189,10.979 8.21,5.168 20.583,9.103 35.189,10.966 6.12,0.811 12.612,1.241 19.379,1.241 9.82,0 19.139,-0.894 27.492,-2.506 11.037,-2.148 20.381,-5.501 27.004,-9.689 0,0 0.013,0 0.025,-0.012" /></g><g
           transform="translate(288.9329,35.7861)"
           id="g108"><path
             id="path110"
             style="fill:#afafaf;fill-opacity:1;fill-rule:nonzero;stroke:none"
             d="M 0,0 C -10.894,2.599 -20.117,6.689 -26.644,11.756 -20.117,16.81 -10.894,20.913 0,23.512 -2.291,20.913 -1.658,16.81 -8.172,11.756 -1.658,6.689 -2.291,2.599 0,0" /></g><g
           transform="translate(193.987,47.7543)"
           id="g112"><path
             id="path114"
             style="fill:#b4dbdf;fill-opacity:1;fill-rule:nonzero;stroke:none"
             d="M 0,0 C 0,-4.011 -2.053,-7.755 -5.62,-10.979 -20.227,-9.105 -32.6,-5.168 -40.81,0 -32.6,5.168 -20.227,9.103 -5.62,10.966 -2.053,7.744 0,4.011 0,0" /></g><g
           transform="translate(172.8926,48.7165)"
           id="g116"><path
             id="path118"
             style="fill:#000000;fill-opacity:1;fill-rule:nonzero;stroke:none"
             d="m 0,0 c 0,-1.051 -1.602,-1.901 -3.575,-1.901 -1.976,0 -3.575,0.85 -3.575,1.901 0,1.049 1.599,1.901 3.575,1.901 C -1.602,1.901 0,1.049 0,0" /></g><g
           transform="translate(169.9483,49.2198)"
           id="g120"><path
             id="path122"
             style="fill:#ffffff;fill-opacity:1;fill-rule:nonzero;stroke:none"
             d="m 0,0 c 0,-0.474 -0.721,-0.858 -1.612,-0.858 -0.893,0 -1.612,0.384 -1.612,0.858 0,0.472 0.719,0.856 1.612,0.856 C -0.721,0.856 0,0.472 0,0" /></g><g
           transform="translate(235.233,57.4511)"
           id="g124"><path
             id="path126"
             style="fill:#b4dbdf;fill-opacity:1;fill-rule:nonzero;stroke:none"
             d="m 0,0 c -8.341,1.612 -17.664,2.505 -27.488,2.505 -6.762,0 -13.255,-0.43 -19.378,-1.236 2.487,1.236 4.238,1.508 7.165,2.636 2.121,0.663 4.836,1.872 7.782,2.662 -0.073,-1.189 -0.212,-2.666 -0.482,-3.397 4.913,0.428 8.985,1.429 12.988,1.213 -0.403,-0.233 -1.211,-0.876 -1.583,-1.539 1.481,0.108 4.442,0.538 6.056,0.519 5.216,-0.015 0.91,-1.34 3.097,-1.36 2.588,-0.032 5.717,0.054 6.795,-0.501 C -3.602,0.733 -2.927,1.199 0,0" /></g><g
           transform="translate(262.2662,47.7543)"
           id="g128"><path
             id="path130"
             style="fill:#dae8e8;fill-opacity:1;fill-rule:nonzero;stroke:none"
             d="m 0,0 c -6.087,0.538 -58.305,1.681 -68.352,1.444 -0.083,0.741 -0.24,1.468 -0.5,2.183 -0.023,0.071 -0.05,0.131 -0.073,0.202 49.234,0.037 67.791,-3.59 68.9,-3.817 0,0 0.013,0 0.025,-0.012" /></g><g
           transform="translate(185.5975,30.8942)"
           id="g132"><path
             id="path134"
             style="fill:#d7e5f2;fill-opacity:1;fill-rule:nonzero;stroke:none"
             d="M 0,0 C -4.618,-0.145 -31.466,9.701 -32.421,16.86 -24.21,11.693 -11.837,7.755 2.769,5.881 3.448,5.06 4.632,0.154 0,0" /></g><g
           transform="translate(262.2893,47.7543)"
           id="g136"><path
             id="path138"
             style="fill:#56aecb;fill-opacity:1;fill-rule:nonzero;stroke:none"
             d="m 0,0 c -1.874,-2.769 -4.026,-5.752 -7.427,-7.757 -0.752,-0.442 -3.265,-1.683 -4.077,-2.09 -18.4,-9.294 -50.188,-8.457 -65.188,-7.013 4.632,0.154 3.448,5.059 2.769,5.881 6.12,-0.8 12.612,-1.228 19.378,-1.228 10.154,0 19.714,0.954 28.256,2.672 7.1,1.41 13.497,3.342 18.877,5.679 2.769,1.182 5.204,2.472 7.389,3.856 z" /></g><g
           transform="translate(163.5951,67.5598)"
           id="g140"><path
             id="path142"
             style="fill:#5995c1;fill-opacity:1;fill-rule:nonzero;stroke:none"
             d="m 0,0 c -2.185,-1.384 -4.62,-2.674 -7.387,-3.857 -5.381,-2.336 -11.777,-4.269 -18.877,-5.678 -8.544,-1.718 -18.102,-2.672 -28.257,-2.672 -6.765,0 -13.257,0.428 -19.379,1.228 -14.604,1.874 -26.979,5.811 -35.189,10.979 8.21,5.168 20.585,9.104 35.189,10.966 6.122,0.811 12.614,1.24 19.379,1.24 9.822,0 19.139,-0.893 27.492,-2.505 11.038,-2.148 20.381,-5.502 27.004,-9.69 0,0 0.013,0 0.025,-0.011" /></g><g
           transform="translate(190.2638,55.5914)"
           id="g144"><path
             id="path146"
             style="fill:#b4dbdf;fill-opacity:1;fill-rule:nonzero;stroke:none"
             d="M 0,0 C -10.894,2.599 -20.117,6.689 -26.646,11.756 -20.117,16.81 -10.894,20.913 0,23.512 -2.291,20.913 -1.66,16.81 -8.174,11.756 -1.66,6.689 -2.291,2.599 0,0" /></g><g
           transform="translate(95.3159,67.5598)"
           id="g148"><path
             id="path150"
             style="fill:#b4dbdf;fill-opacity:1;fill-rule:nonzero;stroke:none"
             d="M 0,0 C 0,-4.011 -2.053,-7.755 -5.621,-10.979 -20.225,-9.105 -32.6,-5.168 -40.81,0 -32.6,5.168 -20.225,9.104 -5.621,10.966 -2.053,7.744 0,4.011 0,0" /></g><g
           transform="translate(74.2215,68.522)"
           id="g152"><path
             id="path154"
             style="fill:#000000;fill-opacity:1;fill-rule:nonzero;stroke:none"
             d="m 0,0 c 0,-1.051 -1.6,-1.901 -3.575,-1.901 -1.974,0 -3.573,0.85 -3.573,1.901 0,1.049 1.599,1.901 3.573,1.901 C -1.6,1.901 0,1.049 0,0" /></g><g
           transform="translate(71.2792,69.0253)"
           id="g156"><path
             id="path158"
             style="fill:#ffffff;fill-opacity:1;fill-rule:nonzero;stroke:none"
             d="m 0,0 c 0,-0.474 -0.721,-0.858 -1.612,-0.858 -0.895,0 -1.614,0.384 -1.614,0.858 0,0.472 0.719,0.856 1.614,0.856 C -0.721,0.856 0,0.472 0,0" /></g><g
           transform="translate(136.5617,77.2566)"
           id="g160"><path
             id="path162"
             style="fill:#b4dbdf;fill-opacity:1;fill-rule:nonzero;stroke:none"
             d="m 0,0 c -8.341,1.611 -17.662,2.505 -27.488,2.505 -6.762,0 -13.254,-0.429 -19.376,-1.236 2.485,1.236 4.236,1.508 7.163,2.635 2.121,0.664 4.836,1.873 7.782,2.663 -0.071,-1.19 -0.212,-2.666 -0.482,-3.397 4.913,0.427 8.985,1.429 12.988,1.213 -0.401,-0.232 -1.211,-0.875 -1.581,-1.538 1.481,0.106 4.442,0.537 6.054,0.519 5.218,-0.017 0.911,-1.341 3.097,-1.361 2.59,-0.032 5.719,0.055 6.795,-0.5 C -3.6,0.734 -2.927,1.199 0,0" /></g><g
           transform="translate(163.5951,67.5598)"
           id="g164"><path
             id="path166"
             style="fill:#dae8e8;fill-opacity:1;fill-rule:nonzero;stroke:none"
             d="m 0,0 c -6.086,0.538 -58.305,1.681 -68.35,1.444 -0.085,0.741 -0.24,1.468 -0.502,2.183 -0.023,0.073 -0.048,0.131 -0.071,0.202 49.234,0.037 67.789,-3.59 68.898,-3.818 0,0 0.013,0 0.025,-0.011" /></g><g
           transform="translate(86.9264,50.6997)"
           id="g168"><path
             id="path170"
             style="fill:#d7e5f2;fill-opacity:1;fill-rule:nonzero;stroke:none"
             d="M 0,0 C -4.616,-0.145 -31.464,9.701 -32.421,16.86 -24.21,11.693 -11.835,7.755 2.769,5.881 3.449,5.06 4.632,0.154 0,0" /></g><g
           transform="translate(163.6182,67.5598)"
           id="g172"><path
             id="path174"
             style="fill:#56aecb;fill-opacity:1;fill-rule:nonzero;stroke:none"
             d="m 0,0 c -1.872,-2.769 -4.026,-5.752 -7.427,-7.757 -0.752,-0.442 -3.265,-1.684 -4.077,-2.09 -18.398,-9.294 -50.187,-8.457 -65.188,-7.013 4.632,0.154 3.45,5.059 2.769,5.881 6.122,-0.8 12.614,-1.228 19.378,-1.228 10.156,0 19.714,0.954 28.258,2.672 7.1,1.409 13.495,3.342 18.877,5.678 2.767,1.183 5.202,2.473 7.387,3.857 z" /></g><g
           transform="translate(231.475,68.9096)"
           id="g176"><path
             id="path178"
             style="fill:#5995c1;fill-opacity:1;fill-rule:nonzero;stroke:none"
             d="m 0,0 c -2.187,-1.385 -4.62,-2.673 -7.389,-3.857 -5.379,-2.338 -11.777,-4.269 -18.877,-5.678 -8.542,-1.718 -18.102,-2.674 -28.255,-2.674 -6.767,0 -13.259,0.43 -19.379,1.23 -14.606,1.874 -26.981,5.809 -35.189,10.979 8.208,5.168 20.583,9.104 35.189,10.967 6.12,0.81 12.612,1.24 19.379,1.24 9.82,0 19.139,-0.894 27.492,-2.506 11.037,-2.148 20.381,-5.501 27.002,-9.69 0,0 0.015,0 0.027,-0.011" /></g><g
           transform="translate(258.1417,56.9411)"
           id="g180"><path
             id="path182"
             style="fill:#afafaf;fill-opacity:1;fill-rule:nonzero;stroke:none"
             d="M 0,0 C -10.894,2.601 -20.117,6.689 -26.644,11.756 -20.117,16.811 -10.894,20.913 0,23.512 -2.291,20.913 -1.658,16.811 -8.172,11.756 -1.658,6.689 -2.291,2.601 0,0" /></g><g
           transform="translate(163.1939,68.9096)"
           id="g184"><path
             id="path186"
             style="fill:#b4dbdf;fill-opacity:1;fill-rule:nonzero;stroke:none"
             d="M 0,0 C 0,-4.011 -2.051,-7.755 -5.619,-10.979 -20.225,-9.105 -32.6,-5.17 -40.808,0 -32.6,5.168 -20.225,9.104 -5.619,10.967 -2.051,7.744 0,4.011 0,0" /></g><g
           transform="translate(142.0995,69.8717)"
           id="g188"><path
             id="path190"
             style="fill:#000000;fill-opacity:1;fill-rule:nonzero;stroke:none"
             d="m 0,0 c 0,-1.053 -1.6,-1.901 -3.575,-1.901 -1.974,0 -3.573,0.848 -3.573,1.901 0,1.049 1.599,1.901 3.573,1.901 C -1.6,1.901 0,1.049 0,0" /></g><g
           transform="translate(139.1572,70.375)"
           id="g192"><path
             id="path194"
             style="fill:#ffffff;fill-opacity:1;fill-rule:nonzero;stroke:none"
             d="m 0,0 c 0,-0.474 -0.721,-0.858 -1.612,-0.858 -0.895,0 -1.612,0.384 -1.612,0.858 0,0.472 0.717,0.856 1.612,0.856 C -0.721,0.856 0,0.472 0,0" /></g><g
           transform="translate(204.4418,78.6073)"
           id="g196"><path
             id="path198"
             style="fill:#b4dbdf;fill-opacity:1;fill-rule:nonzero;stroke:none"
             d="m 0,0 c -8.343,1.61 -17.664,2.504 -27.488,2.504 -6.764,0 -13.255,-0.429 -19.379,-1.235 2.488,1.235 4.239,1.507 7.165,2.635 2.122,0.663 4.837,1.872 7.783,2.662 -0.074,-1.189 -0.212,-2.666 -0.482,-3.397 4.913,0.427 8.983,1.429 12.988,1.213 -0.403,-0.233 -1.211,-0.875 -1.583,-1.538 1.481,0.107 4.442,0.538 6.054,0.519 5.218,-0.017 0.91,-1.34 3.099,-1.36 C -9.255,1.97 -6.126,2.057 -5.048,1.502 -3.602,0.733 -2.927,1.198 0,0" /></g><g
           transform="translate(231.475,68.9096)"
           id="g200"><path
             id="path202"
             style="fill:#dae8e8;fill-opacity:1;fill-rule:nonzero;stroke:none"
             d="m 0,0 c -6.087,0.538 -58.305,1.681 -68.352,1.444 -0.083,0.741 -0.24,1.468 -0.5,2.183 -0.025,0.073 -0.05,0.131 -0.073,0.202 49.234,0.037 67.791,-3.59 68.898,-3.818 0,0 0.015,0 0.027,-0.011" /></g><g
           transform="translate(154.8063,52.0494)"
           id="g204"><path
             id="path206"
             style="fill:#d7e5f2;fill-opacity:1;fill-rule:nonzero;stroke:none"
             d="M 0,0 C -4.618,-0.145 -31.466,9.703 -32.421,16.86 -24.212,11.691 -11.837,7.755 2.769,5.881 3.448,5.06 4.63,0.152 0,0" /></g><g
           transform="translate(231.4981,68.9096)"
           id="g208"><path
             id="path210"
             style="fill:#56aecb;fill-opacity:1;fill-rule:nonzero;stroke:none"
             d="m 0,0 c -1.874,-2.767 -4.026,-5.752 -7.427,-7.759 -0.752,-0.44 -3.267,-1.682 -4.077,-2.086 -18.4,-9.294 -50.188,-8.461 -65.188,-7.015 4.63,0.152 3.448,5.059 2.769,5.881 6.12,-0.8 12.612,-1.23 19.378,-1.23 10.154,0 19.714,0.956 28.256,2.674 7.1,1.409 13.497,3.34 18.877,5.678 2.769,1.184 5.202,2.472 7.389,3.857 z" /></g></g></g></g></svg>