<svg xmlns="http://www.w3.org/2000/svg" viewBox="0 0 576.69 123.48"><defs><style>.cls-1{fill:#d3d3d3;}.cls-2{fill:#5995c1;}.cls-3{fill:#b4dbdf;}.cls-4{fill:#fff;}.cls-5{fill:#dae8e8;}.cls-6{fill:#d7e5f2;}.cls-7{fill:#56aecb;}.cls-8{fill:#afafaf;}</style></defs><g id="Layer_2" data-name="Layer 2"><g id="Layer_1-2" data-name="Layer 1"><path class="cls-1" d="M233.89,85.1a108.42,108.42,0,0,1-15.55,8.12,196.72,196.72,0,0,1-39.75,12,303.89,303.89,0,0,1-59.51,5.63,314.7,314.7,0,0,1-40.81-2.59C47.52,104.27,21.46,96,4.17,85.1,21.46,74.22,47.52,65.93,78.27,62a311.12,311.12,0,0,1,40.81-2.61A308.47,308.47,0,0,1,177,64.67c23.24,4.52,42.92,11.59,56.87,20.41A.06.06,0,0,1,233.89,85.1Z"/><path class="cls-1" d="M290.06,110.3c-22.94-5.47-42.37-14.08-56.11-24.75,13.74-10.65,33.17-19.29,56.11-24.76-4.82,5.47-3.49,14.11-17.21,24.76C286.57,96.22,285.24,104.83,290.06,110.3Z"/><path class="cls-1" d="M90.11,85.1c0,8.45-4.32,16.34-11.84,23.12C47.52,104.27,21.46,96,4.17,85.1,21.46,74.22,47.52,65.93,78.27,62,85.79,68.79,90.11,76.66,90.11,85.1Z"/><path class="cls-1" d="M45.69,83.07c0,2.22-3.37,4-7.53,4s-7.53-1.79-7.53-4,3.37-4,7.53-4S45.69,80.86,45.69,83.07Z"/><path class="cls-1" d="M39.49,82c0,1-1.52,1.81-3.39,1.81S32.7,83,32.7,82s1.51-1.8,3.4-1.8S39.49,81,39.49,82Z"/><path class="cls-1" d="M177,64.68a308.09,308.09,0,0,0-57.89-5.28A312.7,312.7,0,0,0,78.28,62c5.24-2.61,8.92-3.18,15.08-5.55,4.47-1.4,10.19-4,16.39-5.61a31.91,31.91,0,0,1-1,7.15c10.34-.89,18.91-3,27.35-2.55a10.33,10.33,0,0,0-3.34,3.24c3.12-.22,9.36-1.13,12.75-1.09,11,0,1.92,2.82,6.53,2.86,5.45.07,12-.11,14.31,1.06C169.39,63.14,170.81,62.15,177,64.68Z"/><path class="cls-1" d="M233.89,85.1C221.08,84,111.12,81.56,90,82.06a20,20,0,0,0-1.06-4.6c-.05-.15-.1-.27-.15-.42,103.69-.08,142.76,7.56,145.1,8A.06.06,0,0,1,233.89,85.1Z"/><path class="cls-1" d="M72.45,120.6c-9.73.31-66.27-20.42-68.28-35.5C21.46,96,47.52,104.27,78.27,108.22,79.71,110,82.19,120.28,72.45,120.6Z"/><path class="cls-1" d="M234,85.1c-3.95,5.83-8.48,12.12-15.64,16.34-1.59.93-6.88,3.54-8.59,4.4C171,125.41,104,123.65,72.45,120.6c9.74-.32,7.26-10.65,5.82-12.38a314.7,314.7,0,0,0,40.81,2.59,303.89,303.89,0,0,0,59.51-5.63,196.72,196.72,0,0,0,39.75-12,108.42,108.42,0,0,0,15.55-8.12Z"/><path class="cls-1" d="M386.85,86.1a108.56,108.56,0,0,1-15.56,8.12,197.36,197.36,0,0,1-39.75,12A304.58,304.58,0,0,1,272,111.8a316.41,316.41,0,0,1-40.81-2.58c-30.76-4-56.82-12.24-74.1-23.12,17.28-10.89,43.34-19.17,74.1-23.1A311,311,0,0,1,272,60.39a307.57,307.57,0,0,1,57.89,5.28c23.25,4.52,42.92,11.58,56.87,20.4A.06.06,0,0,1,386.85,86.1Z"/><path class="cls-1" d="M443,111.3c-22.94-5.47-42.37-14.09-56.11-24.76C400.64,75.9,420.07,67.26,443,61.79c-4.82,5.47-3.49,14.11-17.21,24.75C439.52,97.21,438.19,105.83,443,111.3Z"/><path class="cls-1" d="M243.06,86.1c0,8.44-4.32,16.33-11.83,23.12-30.76-4-56.82-12.24-74.1-23.12,17.28-10.89,43.34-19.17,74.1-23.1C238.74,69.79,243.06,77.65,243.06,86.1Z"/><path class="cls-1" d="M198.64,84.07c0,2.21-3.37,4-7.53,4s-7.52-1.79-7.52-4,3.36-4,7.52-4S198.64,81.86,198.64,84.07Z"/><path class="cls-1" d="M192.44,83c0,1-1.51,1.81-3.39,1.81s-3.4-.81-3.4-1.81,1.52-1.8,3.4-1.8S192.44,82,192.44,83Z"/><path class="cls-1" d="M329.92,65.68A307.15,307.15,0,0,0,272,60.4,314.54,314.54,0,0,0,231.23,63c5.24-2.6,8.93-3.17,15.09-5.55,4.46-1.39,10.18-3.94,16.38-5.6a31.43,31.43,0,0,1-1,7.15c10.35-.9,18.92-3,27.35-2.55a10.31,10.31,0,0,0-3.33,3.24c3.12-.23,9.35-1.14,12.75-1.1,11,0,1.92,2.83,6.53,2.87,5.45.07,12-.12,14.31,1C322.34,64.13,323.76,63.15,329.92,65.68Z"/><path class="cls-1" d="M386.85,86.1C374,85,264.07,82.56,242.91,83.05a19.55,19.55,0,0,0-1-4.59l-.15-.43c103.68-.07,142.75,7.56,145.09,8A.06.06,0,0,1,386.85,86.1Z"/><path class="cls-1" d="M225.4,121.6c-9.73.31-66.27-20.43-68.27-35.5,17.28,10.88,43.34,19.17,74.1,23.12C232.66,111,235.15,121.28,225.4,121.6Z"/><path class="cls-1" d="M386.9,86.1c-3.94,5.83-8.48,12.11-15.64,16.33-1.59.93-6.88,3.55-8.58,4.4C323.92,126.41,257,124.65,225.4,121.6c9.75-.32,7.26-10.65,5.83-12.38A316.41,316.41,0,0,0,272,111.8a304.58,304.58,0,0,0,59.5-5.62,197.36,197.36,0,0,0,39.75-12,108.56,108.56,0,0,0,15.56-8.12Z"/><path class="cls-1" d="M520.53,86.1A109.09,109.09,0,0,1,505,94.22a197.36,197.36,0,0,1-39.75,12,304.58,304.58,0,0,1-59.5,5.62,316.41,316.41,0,0,1-40.81-2.58c-30.76-4-56.82-12.24-74.11-23.12,17.29-10.89,43.35-19.17,74.11-23.1a311,311,0,0,1,40.81-2.61,307.5,307.5,0,0,1,57.89,5.28c23.24,4.52,42.92,11.58,56.87,20.4A.06.06,0,0,1,520.53,86.1Z"/><path class="cls-1" d="M576.69,111.3c-22.94-5.47-42.36-14.09-56.11-24.76,13.75-10.64,33.17-19.28,56.11-24.75-4.82,5.47-3.49,14.11-17.21,24.75C573.2,97.21,571.87,105.83,576.69,111.3Z"/><path class="cls-1" d="M376.74,86.1c0,8.44-4.32,16.33-11.83,23.12-30.76-4-56.82-12.24-74.11-23.12,17.29-10.89,43.35-19.17,74.11-23.1C372.42,69.79,376.74,77.65,376.74,86.1Z"/><path class="cls-1" d="M332.32,84.07c0,2.21-3.37,4-7.53,4s-7.53-1.79-7.53-4,3.37-4,7.53-4S332.32,81.86,332.32,84.07Z"/><path class="cls-1" d="M326.12,83c0,1-1.52,1.81-3.39,1.81s-3.4-.81-3.4-1.81,1.52-1.8,3.4-1.8S326.12,82,326.12,83Z"/><path class="cls-1" d="M463.6,65.68a307.15,307.15,0,0,0-57.88-5.28A314.66,314.66,0,0,0,364.91,63c5.24-2.6,8.92-3.17,15.09-5.55,4.46-1.39,10.18-3.94,16.38-5.6a31.43,31.43,0,0,1-1,7.15c10.35-.9,18.92-3,27.35-2.55a10.31,10.31,0,0,0-3.33,3.24c3.12-.23,9.35-1.14,12.75-1.1,11,0,1.92,2.83,6.52,2.87,5.45.07,12-.12,14.31,1C456,64.13,457.44,63.15,463.6,65.68Z"/><path class="cls-1" d="M520.53,86.1c-12.82-1.14-122.78-3.54-143.94-3a20.06,20.06,0,0,0-1-4.59c-.05-.15-.11-.28-.16-.43,103.69-.07,142.76,7.56,145.1,8A.06.06,0,0,1,520.53,86.1Z"/><path class="cls-1" d="M359.08,121.6c-9.73.31-66.27-20.43-68.28-35.5,17.29,10.88,43.35,19.17,74.11,23.12C366.34,111,368.83,121.28,359.08,121.6Z"/><path class="cls-1" d="M520.58,86.1c-4,5.83-8.48,12.11-15.64,16.33-1.58.93-6.88,3.55-8.58,4.4-38.75,19.58-105.7,17.81-137.28,14.77,9.75-.32,7.26-10.65,5.83-12.38a316.41,316.41,0,0,0,40.81,2.58,304.58,304.58,0,0,0,59.5-5.62,197.36,197.36,0,0,0,39.75-12,109.09,109.09,0,0,0,15.56-8.12Z"/><path class="cls-1" d="M312.74,44.39a109.49,109.49,0,0,1-15.55,8.12,197.66,197.66,0,0,1-39.76,12,303.78,303.78,0,0,1-59.5,5.63,316.37,316.37,0,0,1-40.81-2.59c-30.76-4-56.82-12.24-74.11-23.12,17.29-10.88,43.35-19.17,74.11-23.09a311,311,0,0,1,40.81-2.62A307.5,307.5,0,0,1,255.82,24c23.25,4.52,42.92,11.58,56.87,20.4A.06.06,0,0,1,312.74,44.39Z"/><path class="cls-1" d="M368.9,69.59C346,64.12,326.54,55.51,312.79,44.84,326.54,34.19,346,25.55,368.9,20.08c-4.82,5.47-3.49,14.11-17.21,24.76C365.41,55.51,364.08,64.12,368.9,69.59Z"/><path class="cls-1" d="M169,44.39c0,8.44-4.32,16.33-11.83,23.12-30.76-4-56.82-12.24-74.11-23.12,17.29-10.88,43.35-19.17,74.11-23.09C164.63,28.08,169,35.94,169,44.39Z"/><path class="cls-1" d="M124.53,42.36c0,2.22-3.37,4-7.53,4s-7.52-1.79-7.52-4,3.37-4,7.52-4S124.53,40.15,124.53,42.36Z"/><path class="cls-1" d="M118.34,41.3c0,1-1.52,1.81-3.4,1.81s-3.4-.81-3.4-1.81,1.52-1.8,3.4-1.8S118.34,40.31,118.34,41.3Z"/><path class="cls-1" d="M255.81,24a307.9,307.9,0,0,0-57.88-5.28,312.86,312.86,0,0,0-40.81,2.61c5.24-2.61,8.92-3.18,15.09-5.55,4.46-1.4,10.18-3.95,16.38-5.61a31.34,31.34,0,0,1-1,7.15c10.35-.9,18.92-3,27.35-2.55A10.41,10.41,0,0,0,211.6,18c3.12-.23,9.36-1.13,12.75-1.1,11,0,1.92,2.83,6.52,2.87,5.46.07,12-.12,14.31,1.05C248.23,22.42,249.65,21.44,255.81,24Z"/><path class="cls-1" d="M312.74,44.39c-12.81-1.13-122.78-3.54-143.94-3a20,20,0,0,0-1.05-4.6l-.15-.43c103.68-.07,142.75,7.56,145.09,8A.06.06,0,0,1,312.74,44.39Z"/><path class="cls-1" d="M151.29,79.89C141.57,80.2,85,59.47,83,44.39c17.29,10.88,43.35,19.17,74.11,23.12C158.55,69.24,161,79.57,151.29,79.89Z"/><path class="cls-1" d="M312.79,44.39c-3.94,5.83-8.48,12.11-15.64,16.33-1.58.93-6.88,3.55-8.58,4.41C249.82,84.7,182.88,82.94,151.29,79.89c9.75-.32,7.26-10.65,5.83-12.38a316.37,316.37,0,0,0,40.81,2.59,303.78,303.78,0,0,0,59.5-5.63,197.66,197.66,0,0,0,39.76-12,109.49,109.49,0,0,0,15.55-8.12Z"/><path class="cls-1" d="M455.69,41.55a110.67,110.67,0,0,1-15.56,8.12,197.36,197.36,0,0,1-39.75,12,304.58,304.58,0,0,1-59.51,5.63,316.37,316.37,0,0,1-40.81-2.59c-30.75-4-56.81-12.24-74.1-23.12,17.29-10.89,43.35-19.18,74.1-23.1a311,311,0,0,1,40.81-2.61,307.6,307.6,0,0,1,57.9,5.28c23.24,4.52,42.92,11.58,56.86,20.4A.09.09,0,0,1,455.69,41.55Z"/><path class="cls-1" d="M511.85,66.75c-23-5.48-42.37-14.09-56.11-24.76,13.74-10.64,33.16-19.28,56.11-24.75C507,22.71,508.35,31.35,494.64,42,508.35,52.66,507,61.27,511.85,66.75Z"/><path class="cls-1" d="M311.9,41.55c0,8.44-4.32,16.33-11.84,23.12-30.75-4-56.81-12.24-74.1-23.12,17.29-10.89,43.35-19.18,74.1-23.1C307.58,25.24,311.9,33.1,311.9,41.55Z"/><path class="cls-1" d="M267.47,39.52c0,2.22-3.37,4-7.52,4s-7.53-1.78-7.53-4,3.37-4,7.53-4S267.47,37.31,267.47,39.52Z"/><path class="cls-1" d="M261.28,38.46c0,1-1.52,1.81-3.4,1.81s-3.39-.81-3.39-1.81,1.51-1.8,3.39-1.8S261.28,37.47,261.28,38.46Z"/><path class="cls-1" d="M398.76,21.12a308.12,308.12,0,0,0-57.89-5.27,313,313,0,0,0-40.81,2.6c5.24-2.6,8.93-3.17,15.09-5.55,4.47-1.39,10.19-3.94,16.39-5.6a31.43,31.43,0,0,1-1,7.15c10.34-.9,18.91-3,27.35-2.55a10.37,10.37,0,0,0-3.33,3.23c3.11-.22,9.35-1.13,12.75-1.09,11,0,1.91,2.82,6.52,2.86,5.45.08,12-.11,14.31,1.06C391.18,19.58,392.6,18.6,398.76,21.12Z"/><path class="cls-1" d="M455.69,41.55c-12.82-1.14-122.78-3.54-143.94-3a20.48,20.48,0,0,0-1.05-4.59c-.06-.16-.11-.28-.16-.43,103.68-.08,142.76,7.56,145.09,8A.09.09,0,0,1,455.69,41.55Z"/><path class="cls-1" d="M294.23,77.05c-9.72.31-66.26-20.43-68.27-35.5,17.29,10.88,43.35,19.17,74.1,23.12C301.49,66.4,304,76.73,294.23,77.05Z"/><path class="cls-1" d="M455.74,41.55c-3.95,5.82-8.48,12.11-15.64,16.34-1.59.92-6.88,3.54-8.59,4.39C392.76,81.85,325.82,80.1,294.23,77.05c9.75-.32,7.26-10.65,5.83-12.38a316.37,316.37,0,0,0,40.81,2.59,304.58,304.58,0,0,0,59.51-5.63,197.36,197.36,0,0,0,39.75-12,110.67,110.67,0,0,0,15.56-8.12Z"/><path class="cls-2" d="M229.73,77.81a109.09,109.09,0,0,1-15.56,8.12,196.74,196.74,0,0,1-39.75,11.95,303.89,303.89,0,0,1-59.51,5.63,314.55,314.55,0,0,1-40.8-2.59C43.35,97,17.29,88.69,0,77.81c17.29-10.88,43.35-19.18,74.11-23.1a311,311,0,0,1,40.8-2.61,307.6,307.6,0,0,1,57.9,5.28c23.25,4.52,42.92,11.58,56.87,20.4A.06.06,0,0,1,229.73,77.81Z"/><path class="cls-3" d="M285.89,103C263,97.53,243.52,88.92,229.78,78.25,243.52,67.61,263,59,285.89,53.5c-4.82,5.47-3.49,14.11-17.21,24.75C282.4,88.92,281.07,97.53,285.89,103Z"/><path class="cls-3" d="M85.94,77.81c0,8.44-4.32,16.33-11.83,23.11C43.35,97,17.29,88.69,0,77.81c17.29-10.88,43.35-19.18,74.11-23.1C81.62,61.5,85.94,69.36,85.94,77.81Z"/><path d="M41.52,75.78c0,2.21-3.37,4-7.53,4s-7.53-1.79-7.53-4,3.37-4,7.53-4S41.52,73.57,41.52,75.78Z"/><path class="cls-4" d="M35.32,74.72c0,1-1.52,1.81-3.39,1.81s-3.4-.81-3.4-1.81,1.51-1.8,3.4-1.8S35.32,73.72,35.32,74.72Z"/><path class="cls-3" d="M172.8,57.38a308.12,308.12,0,0,0-57.89-5.27,312.75,312.75,0,0,0-40.8,2.6c5.24-2.6,8.92-3.17,15.08-5.55,4.47-1.39,10.19-3.94,16.39-5.61a32,32,0,0,1-1,7.16c10.34-.9,18.92-3,27.35-2.56a10.42,10.42,0,0,0-3.33,3.24c3.11-.22,9.35-1.13,12.75-1.09,11,0,1.91,2.82,6.52,2.86,5.45.07,12-.11,14.31,1.06C165.22,55.84,166.64,54.86,172.8,57.38Z"/><path class="cls-5" d="M229.73,77.81c-12.82-1.13-122.78-3.55-143.94-3a19.85,19.85,0,0,0-1.06-4.59c0-.15-.1-.28-.14-.43,103.68-.08,142.75,7.56,145.09,8A.06.06,0,0,1,229.73,77.81Z"/><path class="cls-6" d="M68.28,113.31C58.55,113.61,2,92.88,0,77.81,17.29,88.69,43.35,97,74.11,100.92,75.54,102.66,78,113,68.28,113.31Z"/><path class="cls-7" d="M229.78,77.81c-3.94,5.83-8.48,12.11-15.64,16.33-1.59.93-6.88,3.54-8.59,4.4C166.8,118.11,99.86,116.35,68.28,113.31c9.74-.32,7.26-10.65,5.83-12.39a314.55,314.55,0,0,0,40.8,2.59,303.89,303.89,0,0,0,59.51-5.63,196.74,196.74,0,0,0,39.75-11.95,109.09,109.09,0,0,0,15.56-8.12Z"/><path class="cls-2" d="M382.68,78.8a107.94,107.94,0,0,1-15.55,8.12,197.66,197.66,0,0,1-39.76,12,303.78,303.78,0,0,1-59.5,5.63,314.59,314.59,0,0,1-40.81-2.59C196.3,98,170.24,89.68,153,78.8c17.28-10.88,43.34-19.17,74.1-23.09a319.71,319.71,0,0,1,98.71,2.66C349,62.9,368.69,70,382.63,78.78A.08.08,0,0,1,382.68,78.8Z"/><path class="cls-3" d="M438.84,104c-22.94-5.47-42.36-14.08-56.11-24.75C396.48,68.6,415.9,60,438.84,54.49,434,60,435.35,68.6,421.63,79.25,435.35,89.92,434,98.53,438.84,104Z"/><path class="cls-3" d="M238.89,78.8c0,8.45-4.32,16.33-11.83,23.12C196.3,98,170.24,89.68,153,78.8c17.28-10.88,43.34-19.17,74.1-23.09C234.57,62.49,238.89,70.35,238.89,78.8Z"/><path d="M194.47,76.77c0,2.22-3.37,4-7.53,4s-7.52-1.79-7.52-4,3.37-4,7.52-4S194.47,74.57,194.47,76.77Z"/><path class="cls-4" d="M188.28,75.72c0,1-1.52,1.8-3.4,1.8s-3.4-.81-3.4-1.8,1.52-1.81,3.4-1.81S188.28,74.72,188.28,75.72Z"/><path class="cls-3" d="M325.75,58.38a308,308,0,0,0-57.88-5.27,312.9,312.9,0,0,0-40.81,2.6c5.24-2.6,8.93-3.18,15.09-5.55,4.46-1.4,10.18-3.94,16.38-5.61a31.44,31.44,0,0,1-1,7.16c10.35-.91,18.92-3,27.36-2.56a10.23,10.23,0,0,0-3.34,3.24c3.12-.23,9.35-1.13,12.75-1.09,11,0,1.92,2.82,6.53,2.86,5.45.07,12-.11,14.31,1.06C318.17,56.84,319.59,55.85,325.75,58.38Z"/><path class="cls-5" d="M382.68,78.8c-12.82-1.13-122.78-3.54-143.94-3a19.52,19.52,0,0,0-1.05-4.6l-.15-.42c103.68-.08,142.75,7.56,145.09,8A.08.08,0,0,1,382.68,78.8Z"/><path class="cls-6" d="M221.23,114.31C211.5,114.61,155,93.88,153,78.8c17.28,10.88,43.34,19.17,74.1,23.12C228.49,103.65,231,114,221.23,114.31Z"/><path class="cls-7" d="M382.73,78.8c-3.94,5.83-8.47,12.11-15.64,16.34-1.58.93-6.88,3.54-8.58,4.4-38.75,19.57-105.7,17.81-137.28,14.77,9.75-.33,7.26-10.66,5.83-12.39a314.59,314.59,0,0,0,40.81,2.59,303.78,303.78,0,0,0,59.5-5.63,197.66,197.66,0,0,0,39.76-12,107.94,107.94,0,0,0,15.55-8.12Z"/><path class="cls-2" d="M516.36,78.8a108.08,108.08,0,0,1-15.56,8.12,197.36,197.36,0,0,1-39.75,12,303.78,303.78,0,0,1-59.5,5.63,314.59,314.59,0,0,1-40.81-2.59C330,98,303.92,89.68,286.63,78.8,303.92,67.92,330,59.63,360.74,55.71a319.64,319.64,0,0,1,98.7,2.66C482.69,62.9,502.36,70,516.31,78.78A.08.08,0,0,1,516.36,78.8Z"/><path class="cls-8" d="M572.52,104c-22.94-5.47-42.36-14.08-56.11-24.75C530.16,68.6,549.58,60,572.52,54.49,567.7,60,569,68.6,555.31,79.25,569,89.92,567.7,98.53,572.52,104Z"/><path class="cls-3" d="M372.58,78.8c0,8.45-4.33,16.33-11.84,23.12C330,98,303.92,89.68,286.63,78.8,303.92,67.92,330,59.63,360.74,55.71,368.25,62.49,372.58,70.35,372.58,78.8Z"/><path d="M328.15,76.77c0,2.22-3.37,4-7.53,4s-7.52-1.79-7.52-4,3.36-4,7.52-4S328.15,74.57,328.15,76.77Z"/><path class="cls-4" d="M322,75.72c0,1-1.52,1.8-3.39,1.8s-3.4-.81-3.4-1.8,1.52-1.81,3.4-1.81S322,74.72,322,75.72Z"/><path class="cls-3" d="M459.43,58.38a307.93,307.93,0,0,0-57.88-5.27,312.9,312.9,0,0,0-40.81,2.6c5.24-2.6,8.92-3.18,15.09-5.55,4.46-1.4,10.18-3.94,16.39-5.61a32,32,0,0,1-1,7.16c10.35-.91,18.92-3,27.35-2.56a10.31,10.31,0,0,0-3.33,3.24c3.12-.23,9.35-1.13,12.75-1.09,11,0,1.92,2.82,6.52,2.86,5.45.07,12-.11,14.31,1.06C451.85,56.84,453.27,55.85,459.43,58.38Z"/><path class="cls-5" d="M516.36,78.8c-12.82-1.13-122.78-3.54-143.94-3a19.52,19.52,0,0,0-1.05-4.6c-.05-.15-.11-.27-.16-.42,103.69-.08,142.77,7.56,145.1,8A.08.08,0,0,1,516.36,78.8Z"/><path class="cls-6" d="M354.91,114.31c-9.73.3-66.27-20.43-68.28-35.51C303.92,89.68,330,98,360.74,101.92,362.17,103.65,364.66,114,354.91,114.31Z"/><path class="cls-7" d="M516.41,78.8c-3.95,5.83-8.48,12.11-15.64,16.34-1.58.93-6.87,3.54-8.58,4.4-38.75,19.57-105.7,17.81-137.28,14.77,9.75-.33,7.26-10.66,5.83-12.39a314.59,314.59,0,0,0,40.81,2.59,303.78,303.78,0,0,0,59.5-5.63,197.36,197.36,0,0,0,39.75-12,108.08,108.08,0,0,0,15.56-8.12Z"/><path class="cls-2" d="M308.57,37.09A107.47,107.47,0,0,1,293,45.21a196.82,196.82,0,0,1-39.76,12,303.78,303.78,0,0,1-59.5,5.63A314.59,314.59,0,0,1,153,60.21C122.19,56.27,96.13,48,78.84,37.09,96.13,26.21,122.19,17.92,153,14a320.49,320.49,0,0,1,98.7,2.66c23.25,4.53,42.92,11.59,56.87,20.41A.08.08,0,0,1,308.57,37.09Z"/><path class="cls-3" d="M364.73,62.3c-22.94-5.48-42.36-14.09-56.11-24.76,13.75-10.64,33.17-19.28,56.11-24.76-4.82,5.48-3.49,14.12-17.21,24.76C361.24,48.21,359.91,56.82,364.73,62.3Z"/><path class="cls-3" d="M164.79,37.09c0,8.45-4.33,16.33-11.84,23.12C122.19,56.27,96.13,48,78.84,37.09,96.13,26.21,122.19,17.92,153,14,160.46,20.78,164.79,28.65,164.79,37.09Z"/><path d="M120.36,35.07c0,2.21-3.37,4-7.53,4s-7.52-1.79-7.52-4,3.37-4,7.52-4S120.36,32.86,120.36,35.07Z"/><path class="cls-4" d="M114.17,34c0,1-1.52,1.8-3.4,1.8s-3.4-.8-3.4-1.8,1.52-1.81,3.4-1.81S114.17,33,114.17,34Z"/><path class="cls-3" d="M251.64,16.67a307.93,307.93,0,0,0-57.88-5.27A312.9,312.9,0,0,0,153,14c5.24-2.6,8.92-3.17,15.09-5.55,4.46-1.4,10.18-3.94,16.39-5.61a31.38,31.38,0,0,1-1,7.16c10.35-.9,18.92-3,27.35-2.56a10.41,10.41,0,0,0-3.33,3.24c3.12-.22,9.36-1.13,12.75-1.09,11,0,1.92,2.82,6.52,2.86,5.46.07,12.05-.11,14.31,1.06C244.06,15.13,245.48,14.15,251.64,16.67Z"/><path class="cls-5" d="M308.57,37.09c-12.81-1.13-122.78-3.54-143.94-3a19.33,19.33,0,0,0-1-4.59c-.05-.16-.1-.28-.15-.43,103.68-.08,142.76,7.56,145.09,8A.08.08,0,0,1,308.57,37.09Z"/><path class="cls-6" d="M147.12,72.6c-9.72.3-66.26-20.43-68.28-35.51C96.13,48,122.19,56.27,153,60.21,154.38,61.94,156.87,72.27,147.12,72.6Z"/><path class="cls-7" d="M308.62,37.09c-3.94,5.83-8.48,12.12-15.64,16.34-1.58.93-6.87,3.54-8.58,4.4C245.65,77.4,178.71,75.64,147.12,72.6c9.75-.33,7.26-10.66,5.83-12.39a314.59,314.59,0,0,0,40.81,2.59,303.78,303.78,0,0,0,59.5-5.63,196.82,196.82,0,0,0,39.76-12,107.47,107.47,0,0,0,15.55-8.12Z"/><path class="cls-2" d="M451.52,34.25A108.08,108.08,0,0,1,436,42.37a196.72,196.72,0,0,1-39.75,12A303.81,303.81,0,0,1,336.7,60a314.43,314.43,0,0,1-40.8-2.59c-30.76-3.95-56.82-12.23-74.11-23.12,17.29-10.88,43.35-19.17,74.11-23.09a319.64,319.64,0,0,1,98.7,2.66c23.24,4.53,42.92,11.58,56.86,20.41A.1.1,0,0,1,451.52,34.25Z"/><path class="cls-8" d="M507.68,59.45C484.74,54,465.31,45.37,451.57,34.7c13.74-10.65,33.17-19.29,56.11-24.76-4.83,5.47-3.49,14.11-17.21,24.76C504.19,45.37,502.85,54,507.68,59.45Z"/><path class="cls-3" d="M307.73,34.25c0,8.45-4.32,16.33-11.83,23.12-30.76-3.95-56.82-12.23-74.11-23.12,17.29-10.88,43.35-19.17,74.11-23.09C303.41,17.94,307.73,25.8,307.73,34.25Z"/><path d="M263.31,32.22c0,2.22-3.37,4-7.53,4s-7.53-1.79-7.53-4,3.37-4,7.53-4S263.31,30,263.31,32.22Z"/><path class="cls-4" d="M257.11,31.16c0,1-1.52,1.81-3.39,1.81s-3.4-.81-3.4-1.81,1.51-1.8,3.4-1.8S257.11,30.17,257.11,31.16Z"/><path class="cls-3" d="M394.59,13.83A308.12,308.12,0,0,0,336.7,8.56a312.75,312.75,0,0,0-40.8,2.6C301.13,8.56,304.82,8,311,5.61c4.47-1.4,10.19-3.95,16.39-5.61a31.26,31.26,0,0,1-1,7.15c10.34-.89,18.92-3,27.35-2.55a10.31,10.31,0,0,0-3.33,3.24c3.11-.23,9.35-1.13,12.75-1.09,11,0,1.91,2.82,6.52,2.86,5.45.07,12-.11,14.31,1.06C387,12.29,388.43,11.3,394.59,13.83Z"/><path class="cls-5" d="M451.52,34.25c-12.82-1.13-122.78-3.54-143.94-3a20.56,20.56,0,0,0-1.05-4.6c-.06-.15-.11-.27-.16-.42,103.68-.08,142.76,7.56,145.09,8A.1.1,0,0,1,451.52,34.25Z"/><path class="cls-6" d="M290.07,69.76c-9.73.3-66.27-20.44-68.28-35.51,17.29,10.89,43.35,19.17,74.11,23.12C297.33,59.1,299.81,69.44,290.07,69.76Z"/><path class="cls-7" d="M451.57,34.25c-3.95,5.83-8.48,12.11-15.64,16.34-1.59.93-6.88,3.54-8.59,4.39C388.59,74.56,321.65,72.8,290.07,69.76c9.74-.32,7.26-10.66,5.83-12.39A314.43,314.43,0,0,0,336.7,60a303.81,303.81,0,0,0,59.51-5.63,196.72,196.72,0,0,0,39.75-12,108.08,108.08,0,0,0,15.56-8.12Z"/></g></g></svg>