<svg xmlns="http://www.w3.org/2000/svg" viewBox="0 0 253.1 240.21"><defs><style>.cls-1{isolation:isolate;}.cls-2,.cls-25,.cls-7{fill:#fff;}.cls-2{opacity:0.54;}.cls-3{fill:#344d8b;}.cls-4{fill:#c5c7c9;}.cls-5{fill:#313e64;}.cls-6{fill:#e94d56;}.cls-24,.cls-7{mix-blend-mode:soft-light;}.cls-8{fill:#90c54b;}.cls-9{fill:#5d9b4b;}.cls-10{fill:#8d2a1f;}.cls-11{fill:#ddcdd5;}.cls-11,.cls-15,.cls-17,.cls-18,.cls-19,.cls-22{mix-blend-mode:multiply;}.cls-12{fill:#fcba37;}.cls-13{fill:#99c853;}.cls-14{fill:#5f3c1b;}.cls-15,.cls-20{fill:#c39b65;}.cls-16{fill:#f8a745;}.cls-17,.cls-26{fill:#ffd89d;}.cls-18{fill:#dbbbcb;}.cls-21{fill:#5b4269;}.cls-22{fill:#cba9ba;}.cls-23{fill:#ffd152;}.cls-27{fill:#5c8d40;}.cls-28{fill:#58a82e;}.cls-29{fill:#c41212;}.cls-30{fill:#e01414;}.cls-31{fill:#ff6868;}.cls-32{fill:#d4aa36;}.cls-33{fill:#694d21;}.cls-34{fill:#805d29;}.cls-35{fill:#9c7231;}.cls-36{fill:#9cc02f;}.cls-37{fill:#60882f;}.cls-38{fill:#fffca9;}.cls-39{fill:#a4d120;}.cls-40{fill:#4a67a0;}</style></defs><g class="cls-1"><g id="Layer_1" data-name="Layer 1"><circle class="cls-2" cx="126.55" cy="120.11" r="120.11" transform="translate(-47.86 124.66) rotate(-45)"/><ellipse class="cls-3" cx="134.17" cy="109.78" rx="118.92" ry="16.67"/><ellipse class="cls-4" cx="134.17" cy="109.78" rx="108.87" ry="11.91"/><path class="cls-5" d="M175.46,212.1c-12.21,7.55-79,3.77-82.47-.29-3.07-3.55-.11-9.6-.11-9.6h82.59S179.46,209.63,175.46,212.1Z"/><path class="cls-6" d="M200.24,32.28l-49.93,82.15s50.08,37.29,100.16.31Z"/><path class="cls-7" d="M183.69,70.16c0,.5.18,2.35,1.13,2,.62-.21,1-.93,1.44-1.4a3.5,3.5,0,0,1,1.3-1,.14.14,0,0,1,.16.1c.25,1-.23,5.81,1.73,5.2,1-.32,1.66-1.52,2.18-2.36a9.91,9.91,0,0,1,1.5-2.23.13.13,0,0,1,.22.06c.38,1,.7,2,1.12,3a10.4,10.4,0,0,0,.74,1.45c.17.28.55,1.14.87.76,1.19-1.41,1.29-3.38,2.42-4.83,0,0,.11,0,.16,0,1.75.93,2.39,3,4,4.12.09.07.65.51.76.27s.32-.7.45-1.06q.33-.9.6-1.83c.36-1.23.69-2.48,1.11-3.7a.14.14,0,0,1,.2-.08c2.15,1.25,3.59,3.39,5.66,4.76a6.39,6.39,0,0,0,.71-1.55L197,46.92l-13.34,22C183.69,69.3,183.67,69.73,183.69,70.16Z"/><path class="cls-8" d="M242.47,101.61s-13,12.13-42.08,12.13c-29.37,0-42.28-12.13-42.28-12.13l-7.8,12.82s50.08,37.29,100.16.31Z"/><path class="cls-9" d="M155.7,105.56l-5.39,8.87s50.08,37.29,100.16.31l-5.59-9.18S229.77,119,200.39,119C169,119,155.7,105.56,155.7,105.56Z"/><path class="cls-10" d="M174.91,92.85c1.34.48,1.15,9.92-3,8.45C167.91,99.89,173.1,92.21,174.91,92.85Z"/><path class="cls-10" d="M188.61,96.82c1.34.47,1.14,9.91-3,8.44C181.61,103.86,186.8,96.18,188.61,96.82Z"/><path class="cls-10" d="M224.11,92.85c-1.34.47-1.14,9.92,3,8.45C231.11,99.89,225.92,92.21,224.11,92.85Z"/><path class="cls-10" d="M212.22,96.17c-1.35.47-1.15,9.91,3,8.45C219.21,103.21,214,95.53,212.22,96.17Z"/><path class="cls-10" d="M200.56,97.78c1.42.06,4,9.16-.43,9C195.91,106.55,198.64,97.7,200.56,97.78Z"/><path class="cls-10" d="M184.16,82.37c1.26.33,1.75,8.95-2.15,7.9C178.29,89.28,182.47,81.91,184.16,82.37Z"/><path class="cls-10" d="M195.23,84.54c1.26.34,1.75,8.95-2.14,7.91C189.36,91.46,193.54,84.09,195.23,84.54Z"/><path class="cls-10" d="M216.69,82.28c-1.19.52-.34,9.11,3.35,7.48C223.57,88.19,218.29,81.57,216.69,82.28Z"/><path class="cls-10" d="M206.19,84.57c1.3,0,4.28,8.06.24,8.19C202.58,92.89,204.44,84.63,206.19,84.57Z"/><path class="cls-10" d="M192.16,73.59c1,.37.7,7.45-2.4,6.28S190.81,73.08,192.16,73.59Z"/><path class="cls-10" d="M209.87,73.49c-1,.33-1,7.41,2.13,6.38C215,78.88,211.24,73,209.87,73.49Z"/><path class="cls-10" d="M201.11,74.5c1.06.07,2.83,6.93-.47,6.71S199.67,74.41,201.11,74.5Z"/><path class="cls-11" d="M200.24,32.28,196.14,39c.82,1.1,31.68,53.38,33.31,57.17,1.4,3.26,2.7,6.66,2.82,10.25a14.6,14.6,0,0,1-2.21,8.57,15.44,15.44,0,0,1-7.8,5.9c-3.58,1.27-36,10.19-68.39-12.33l-3.56,5.85s50.08,37.29,100.16.31Z"/><path class="cls-12" d="M149.91,43.21a24.87,24.87,0,0,1,17.37.21s-2.88,3.83-9.16,3.83S150.17,44.31,149.91,43.21Z"/><path class="cls-9" d="M172.84,23.78s1.67,11.71-12.45,17.13C160.39,40.91,161.11,25.31,172.84,23.78Z"/><path class="cls-13" d="M160.42,40.89c14.09-5.42,12.42-17.11,12.42-17.11l-.11,0Z"/><path class="cls-14" d="M161.78,47.55s-3.62-16.28.25-23.27c0,0-4.72-2.08-10.24,2.25,0,0,4,17.49,3.53,21.07Z"/><path class="cls-15" d="M162,24.28a8.2,8.2,0,0,0-3.52-.48s-.46,7.32-.53,9.92c-.1,3.23-1.71,12.74-2.65,13.78a.34.34,0,0,1,0,.1l6.46-.05S158.16,31.27,162,24.28Z"/><path class="cls-16" d="M195.43,80.08a37.32,37.32,0,1,1-74.63,0c0-19.09,11.36-36.77,30-36.89,3.77,0,5.81,2.31,7.33,2.31,1.74,0,4.71-2.68,7.74-2.29C184.07,45.54,195.43,61.21,195.43,80.08Z"/><path class="cls-7" d="M130,85.65c2.46.25,4.82,0,6.56-2,4.07-4.61,5.54-10.45,5.68-16.49.09-4.1-.06-8.55,1.92-12.29a9.09,9.09,0,0,1,3.67-3.75,5.59,5.59,0,0,0-1.39-.15c-12.84.08-20.68,12.26-20.68,25.42a25.75,25.75,0,0,0,1.56,8.86C128.22,85.44,129.12,85.56,130,85.65Z"/><path class="cls-17" d="M185.48,53.11c2.9,6.42,3.3,14.11,2.64,21a38.75,38.75,0,0,1-8.35,21.18c-4.76,5.83-11.33,11-18.86,12.48a43.69,43.69,0,0,1-24.86-2.53,52.35,52.35,0,0,1-9.41-5.11,37.31,37.31,0,0,0,68.79-20C195.43,69.48,191.85,59.89,185.48,53.11Z"/><path class="cls-14" d="M101.45,61.29s-4.54-20.4.31-29.15c0,0-5.9-2.6-12.83,2.81,0,0,5,21.91,4.43,26.4Z"/><path class="cls-15" d="M101.76,32.14a10.4,10.4,0,0,0-4.4-.61s-.58,9.18-.67,12.44c-.13,4-2.14,16-3.32,17.26a.49.49,0,0,1,0,.12l8.09-.06S96.91,40.89,101.76,32.14Z"/><path class="cls-6" d="M135.65,84.32a40.31,40.31,0,1,1-80.61,0c0-15,4.21-23.63,16.62-29.35,14.89-6.86,18.16,2,25.45,2,8.87,0,16.71-7.77,25.7-1.6C132.19,61.83,135.65,72.77,135.65,84.32Z"/><path class="cls-7" d="M67.37,91.53a8.92,8.92,0,0,0,4.31-4.72,22.17,22.17,0,0,0,1.18-6.2A76.35,76.35,0,0,1,74,70.15a12.89,12.89,0,0,1,3.63-6.94,15,15,0,0,1,6.19-3.16c-2.74-1.37-5.91-2.77-12.27.17-8.25,3.8-11,9.55-11,19.5A26.8,26.8,0,0,0,63.8,92.66,11.46,11.46,0,0,0,67.37,91.53Z"/><path class="cls-18" d="M122.81,55.4c-4.93-3.38-9.51-2.57-14.1-1.15.68.55,1.34,1.11,2,1.72,4.51,4.34,15.54,19.12,9.65,38-9.4,30.19-49.76,21.34-52.58,19.61l-.22-.14a40.29,40.29,0,0,0,68.12-29.15C135.65,72.77,132.19,61.83,122.81,55.4Z"/><path class="cls-9" d="M115.28,30.92s2.1,14.67-15.58,21.45C99.7,52.37,100.6,32.83,115.28,30.92Z"/><path class="cls-13" d="M99.73,52.36c17.65-6.79,15.55-21.44,15.55-21.44l-.13,0Z"/><path class="cls-14" d="M40.6,69.43c2.06-6.49.31-26.69-3-36.51,0,0,4.48-2.8,9,2.43,0,0-2.63,25.26-3.15,34.15Z"/><g class="cls-19"><path class="cls-20" d="M39.62,32.25a17,17,0,0,1,.89,1.82c1.71,4.27,2.14,9.06,2.77,13.58a50.14,50.14,0,0,1,0,13.46c-.28,2.27-.69,4.55-1.17,6.78a2.9,2.9,0,0,1-.7,1.55h0l2.12,0c.52-8.89,3.15-34.15,3.15-34.15C44,32.3,41.36,32,39.62,32.25Z"/></g><path class="cls-9" d="M30,50s.12,9.21,11.64,11.68C41.59,61.69,39.15,49.77,30,50Z"/><path class="cls-13" d="M41.56,61.68C30.07,59.21,30,50,30,50H30Z"/><path class="cls-9" d="M55.35,43.28S56,52.47,44.7,55.86C44.7,55.86,46.16,43.79,55.35,43.28Z"/><path class="cls-13" d="M44.72,55.85C56,52.46,55.35,43.28,55.35,43.28h-.08Z"/><path class="cls-21" d="M24.46,77.58a12.16,12.16,0,0,1-10.3,13.75,12,12,0,1,1-3.71-23.69A12.15,12.15,0,0,1,24.46,77.58Z"/><path class="cls-7" d="M5.94,80.64c2.65-1.36,3.28-4.08,3.47-6.09.15-1.51-.53-3-.09-4.54a2.23,2.23,0,0,1,.46-.84A9.79,9.79,0,0,0,2.27,80.1a9.54,9.54,0,0,0,.31,1.33A7.94,7.94,0,0,0,5.94,80.64Z"/><path class="cls-22" d="M16.4,68.14A11.69,11.69,0,0,1,19.11,74,12.16,12.16,0,0,1,8.8,87.74a12.62,12.62,0,0,1-6-.5,12.39,12.39,0,0,0,11.31,4.09,12.16,12.16,0,0,0,10.3-13.75A11.94,11.94,0,0,0,16.4,68.14Z"/><path class="cls-21" d="M45,74.35a12.31,12.31,0,1,1-14-9.94A12.15,12.15,0,0,1,45,74.35Z"/><path class="cls-7" d="M26.52,77.41c2.64-1.36,3.27-4.08,3.47-6.09.15-1.5-.54-3-.09-4.53a2.27,2.27,0,0,1,.45-.84,9.64,9.64,0,0,0-7.19,12.26A7.84,7.84,0,0,0,26.52,77.41Z"/><path class="cls-22" d="M37,64.91a11.72,11.72,0,0,1,2.71,5.86,12.15,12.15,0,0,1-10.3,13.75,12.62,12.62,0,0,1-5.95-.5,12.37,12.37,0,0,0,11.3,4.09A12.15,12.15,0,0,0,45,74.35,11.93,11.93,0,0,0,37,64.91Z"/><path class="cls-21" d="M66,71.08a12.31,12.31,0,1,1-14-9.95A12.16,12.16,0,0,1,66,71.08Z"/><path class="cls-7" d="M47.45,74.14c2.65-1.36,3.28-4.08,3.47-6.1.15-1.5-.53-3-.09-4.53a2.15,2.15,0,0,1,.46-.84A9.78,9.78,0,0,0,43.78,73.6a11.21,11.21,0,0,0,.31,1.33A7.94,7.94,0,0,0,47.45,74.14Z"/><path class="cls-22" d="M57.91,61.64a11.73,11.73,0,0,1,2.71,5.85A12.16,12.16,0,0,1,50.31,81.24a12.62,12.62,0,0,1-6-.5,12.39,12.39,0,0,0,11.31,4.09A12.16,12.16,0,0,0,66,71.08,11.94,11.94,0,0,0,57.91,61.64Z"/><path class="cls-21" d="M86.78,67.82a12.31,12.31,0,1,1-14-9.94A12.16,12.16,0,0,1,86.78,67.82Z"/><path class="cls-7" d="M68.26,70.88c2.65-1.36,3.28-4.08,3.47-6.09.15-1.51-.53-3-.09-4.54a2.15,2.15,0,0,1,.46-.84,9.78,9.78,0,0,0-7.51,10.93,9.54,9.54,0,0,0,.31,1.33A7.94,7.94,0,0,0,68.26,70.88Z"/><path class="cls-22" d="M78.72,58.38a11.69,11.69,0,0,1,2.71,5.85A12.16,12.16,0,0,1,71.12,78a12.62,12.62,0,0,1-6-.5,12.39,12.39,0,0,0,11.31,4.09,12.16,12.16,0,0,0,10.3-13.75A11.94,11.94,0,0,0,78.72,58.38Z"/><path class="cls-21" d="M36.24,90.47a12.16,12.16,0,0,1-10.31,13.75,12,12,0,1,1-3.71-23.7A12.16,12.16,0,0,1,36.24,90.47Z"/><path class="cls-7" d="M17.72,93.52c2.65-1.36,3.27-4.08,3.47-6.09.15-1.5-.54-3-.09-4.53a2.15,2.15,0,0,1,.46-.84,9.64,9.64,0,0,0-7.2,12.26A7.8,7.8,0,0,0,17.72,93.52Z"/><path class="cls-22" d="M28.18,81a11.81,11.81,0,0,1,2.71,5.86,12.16,12.16,0,0,1-10.31,13.75,12.62,12.62,0,0,1-5.95-.5,12.38,12.38,0,0,0,11.3,4.09A12.16,12.16,0,0,0,36.24,90.47,12,12,0,0,0,28.18,81Z"/><path class="cls-21" d="M56.81,87.24a12.31,12.31,0,1,1-14-9.94A12.14,12.14,0,0,1,56.81,87.24Z"/><path class="cls-7" d="M38.3,90.3c2.64-1.36,3.27-4.08,3.47-6.09.15-1.5-.54-3-.1-4.53a2.45,2.45,0,0,1,.46-.84,9.76,9.76,0,0,0-7.5,10.92,8.43,8.43,0,0,0,.31,1.34A8,8,0,0,0,38.3,90.3Z"/><path class="cls-22" d="M48.75,77.8a11.69,11.69,0,0,1,2.71,5.85A12.15,12.15,0,0,1,41.16,97.4a12.35,12.35,0,0,1-5.95-.5A12.35,12.35,0,0,0,46.51,101a12.14,12.14,0,0,0,10.3-13.75A12,12,0,0,0,48.75,77.8Z"/><path class="cls-21" d="M77.75,84a12.31,12.31,0,1,1-14-9.94A12.15,12.15,0,0,1,77.75,84Z"/><path class="cls-7" d="M59.23,87c2.65-1.36,3.27-4.08,3.47-6.09.15-1.5-.53-3-.09-4.53a2.15,2.15,0,0,1,.46-.84,9.64,9.64,0,0,0-7.2,12.26A7.8,7.8,0,0,0,59.23,87Z"/><path class="cls-22" d="M69.69,74.52a11.81,11.81,0,0,1,2.71,5.85A12.15,12.15,0,0,1,62.09,94.12a12.37,12.37,0,0,1-6-.5,12.34,12.34,0,0,0,11.31,4.09A12.15,12.15,0,0,0,77.75,84,12,12,0,0,0,69.69,74.52Z"/><path class="cls-21" d="M49.16,105.33a12.31,12.31,0,1,1-14-9.94A12.14,12.14,0,0,1,49.16,105.33Z"/><path class="cls-7" d="M30.65,108.39c2.64-1.36,3.27-4.08,3.47-6.09.15-1.5-.54-3-.1-4.53a2.42,2.42,0,0,1,.46-.85A9.77,9.77,0,0,0,27,107.85a8.3,8.3,0,0,0,.31,1.33A8,8,0,0,0,30.65,108.39Z"/><path class="cls-22" d="M41.1,95.89a11.69,11.69,0,0,1,2.71,5.85,12.16,12.16,0,0,1-10.3,13.75,12.6,12.6,0,0,1-5.95-.5,12.37,12.37,0,0,0,11.3,4.09,12.14,12.14,0,0,0,10.3-13.75A11.94,11.94,0,0,0,41.1,95.89Z"/><path class="cls-21" d="M69.74,102.11a12.31,12.31,0,1,1-14-10A12.16,12.16,0,0,1,69.74,102.11Z"/><path class="cls-7" d="M51.22,105.17c2.65-1.36,3.27-4.08,3.47-6.1.15-1.5-.53-3-.09-4.53a2.15,2.15,0,0,1,.46-.84,9.78,9.78,0,0,0-7.51,10.93,9.54,9.54,0,0,0,.31,1.33A7.94,7.94,0,0,0,51.22,105.17Z"/><path class="cls-22" d="M61.68,92.66a11.71,11.71,0,0,1,2.7,5.86,12.14,12.14,0,0,1-10.3,13.75,12.62,12.62,0,0,1-5.95-.5,12.39,12.39,0,0,0,11.31,4.09,12.16,12.16,0,0,0,10.3-13.75A12,12,0,0,0,61.68,92.66Z"/><path class="cls-21" d="M61.23,120.33a12.31,12.31,0,1,1-14-9.94A12.16,12.16,0,0,1,61.23,120.33Z"/><path class="cls-7" d="M42.71,123.39c2.64-1.36,3.27-4.08,3.47-6.09.15-1.51-.54-3-.09-4.54a2.23,2.23,0,0,1,.46-.84A9.78,9.78,0,0,0,39,122.85a9.54,9.54,0,0,0,.31,1.33A8,8,0,0,0,42.71,123.39Z"/><path class="cls-22" d="M53.16,110.89a11.61,11.61,0,0,1,2.71,5.85,12.14,12.14,0,0,1-10.3,13.75,12.62,12.62,0,0,1-6-.5,12.38,12.38,0,0,0,11.3,4.09,12.16,12.16,0,0,0,10.31-13.75A12,12,0,0,0,53.16,110.89Z"/><path class="cls-23" d="M89.25,94.34c7.77,4.22,17.24,14.81,38.26,17.12,21.63,2.37,46.58-10.45,52.28-2.53,7,9.7-24.59,28.93-56.13,27.6-15.2-.64-37.77-11.16-45.26-33.54-2.09-6.26,1.7-8.48-3.43-16.37L79.1,84S77.61,88,89.25,94.34Z"/><g class="cls-24"><path class="cls-25" d="M142.08,114.33a4.92,4.92,0,0,0-1.64,2c-.45,1.46,1.29,2.05,2.52,2.2a33.14,33.14,0,0,0,6.45-.18,30.71,30.71,0,0,0,7.52-1.82,26.83,26.83,0,0,0,6.25-2.86c1.58-1,3.44-2.39,3.46-4.38a2.83,2.83,0,0,0,0-.29c-5.92.62-13.83,2.76-22.11,3.89A9.26,9.26,0,0,0,142.08,114.33Z"/></g><path class="cls-14" d="M178.94,116.79s3.59-3.83.85-7.86c-1.45-2.13-4.16-2.41-5.63-2.56a26.31,26.31,0,0,1,3.4,4.47A18.41,18.41,0,0,1,178.94,116.79Z"/><g class="cls-19"><path class="cls-26" d="M179.79,108.93c7,9.7-24.59,28.93-56.13,27.6-15.2-.64-37.77-11.16-45.26-33.54-2.09-6.26,1.7-8.48-3.43-16.37,0,0,15,35.22,47.15,38.44C159.61,128.81,179.79,108.93,179.79,108.93Z"/></g><path class="cls-23" d="M86.55,87.54c8.71,2.24,20.89,10.55,41.8,7.23,21.5-3.41,41.81-23.35,49.59-16.74,9.52,8.07-15.29,36.37-46,43.55-14.81,3.46-39.6-1.25-53.29-22.21-3.82-5.87-.81-9.17-8-15.9l3.2-3.85S73.51,84.19,86.55,87.54Z"/><g class="cls-24"><path class="cls-25" d="M143.2,93.78a5.08,5.08,0,0,0-1,2.49c0,1.62,1.83,1.75,3.06,1.57a30.34,30.34,0,0,0,6.16-1.92A29.28,29.28,0,0,0,158.13,92a26.6,26.6,0,0,0,5.19-4.63c1.21-1.5,2.62-3.39,2.06-5.44a2.47,2.47,0,0,0-.1-.29c-5.53,2.24-12.51,6.58-20.16,10A9.22,9.22,0,0,0,143.2,93.78Z"/></g><path class="cls-14" d="M179.4,86.33s2.35-4.91-1.46-8.3c-2-1.8-4.7-1.36-6.17-1.11a27.18,27.18,0,0,1,4.57,3.67A20.84,20.84,0,0,1,179.4,86.33Z"/><g class="cls-19"><path class="cls-26" d="M177.94,78c9.52,8.07-15.29,36.37-46,43.55-14.81,3.46-39.6-1.25-53.29-22.21-3.82-5.87-.81-9.17-8-15.9,0,0,24.66,32.13,56.52,26.74C164.28,103.91,177.94,78,177.94,78Z"/></g><path class="cls-14" d="M77.48,97.31s.57-6.35,7.94-10a26.4,26.4,0,0,1-7.79-3.63c-1.44-1.14-3.13-5.26-4.93-5.25-1.2,0-3.07,3.7-3.07,3.7C74.85,88.51,75,93.3,77.48,97.31Z"/><path class="cls-27" d="M71.85,93.17a13.08,13.08,0,0,1-6.6-4.38,13.06,13.06,0,0,1-2.15-7.63,13.06,13.06,0,0,1,6.6,4.39A13,13,0,0,1,71.85,93.17Z"/><path class="cls-28" d="M71.62,93.14a13.1,13.1,0,0,1-7.9-.6,13.09,13.09,0,0,1-5.6-5.61,13.1,13.1,0,0,1,7.9.6A13.09,13.09,0,0,1,71.62,93.14Z"/><path class="cls-27" d="M73.14,93.17a13.12,13.12,0,0,0,6.6-4.38,13.1,13.1,0,0,0,2.14-7.63,13.1,13.1,0,0,0-6.6,4.39A13.06,13.06,0,0,0,73.14,93.17Z"/><path class="cls-28" d="M73.5,93.14a13.1,13.1,0,0,0,7.9-.6A13.09,13.09,0,0,0,87,86.93a13.1,13.1,0,0,0-7.9.6A13.09,13.09,0,0,0,73.5,93.14Z"/><path class="cls-28" d="M72.43,93a13,13,0,0,1-2.76-7.43,13.07,13.07,0,0,1,2.76-7.43,13.1,13.1,0,0,1,2.75,7.43A13.06,13.06,0,0,1,72.43,93Z"/><path class="cls-29" d="M89.37,103.59c0,6.19-7.53,25-16.81,25s-16.81-18.83-16.81-25,2.73-13.17,16.94-13.17S89.37,97.4,89.37,103.59Z"/><path class="cls-30" d="M68,124.31c9.28,0,16.81-18.83,16.81-25a14.13,14.13,0,0,0-1.5-6.83c-2.47-1.26-5.9-2-10.62-2-14.21,0-16.94,7-16.94,13.17,0,4,3.15,13.3,7.88,19.36A8.33,8.33,0,0,0,68,124.31Z"/><path class="cls-31" d="M71.51,104.83c0,3.63-2.48,6.58-5.54,6.58s-5.54-3-5.54-6.58,2.48-6.58,5.54-6.58S71.51,101.19,71.51,104.83Z"/><path class="cls-32" d="M85.46,98.06c0,.91-1,1.65-1,1.65s-1-.74-1-1.65.47-1.64,1-1.64S85.46,97.16,85.46,98.06Z"/><path class="cls-32" d="M80.51,105.62c0,.91-1.05,1.65-1.05,1.65s-1-.74-1-1.65.47-1.64,1-1.64S80.51,104.72,80.51,105.62Z"/><path class="cls-32" d="M80.11,115.53c0,.91-1,1.64-1,1.64s-1-.73-1-1.64.47-1.64,1-1.64S80.11,114.62,80.11,115.53Z"/><path class="cls-32" d="M68,115.53c0,.91-1,1.64-1,1.64s-1-.73-1-1.64.46-1.64,1-1.64S68,114.62,68,115.53Z"/><path class="cls-32" d="M74.05,110.9c0,.91-1,1.65-1,1.65s-1-.74-1-1.65.47-1.64,1-1.64S74.05,110,74.05,110.9Z"/><path class="cls-32" d="M74.05,122c0,.91-1,1.65-1,1.65s-1-.74-1-1.65.47-1.64,1-1.64S74.05,121.07,74.05,122Z"/><path class="cls-32" d="M62.26,98.06c0,.91-1,1.65-1,1.65s-1-.74-1-1.65.47-1.64,1-1.64S62.26,97.16,62.26,98.06Z"/><path class="cls-32" d="M73.86,98.06c0,.91-1,1.65-1,1.65s-1-.74-1-1.65.47-1.64,1-1.64S73.86,97.16,73.86,98.06Z"/><path class="cls-32" d="M67.6,105.62c0,.91-1,1.65-1,1.65s-1-.74-1-1.65.46-1.64,1-1.64S67.6,104.72,67.6,105.62Z"/><path class="cls-27" d="M183.74,98.4a13,13,0,0,1-6.6-4.38A13.1,13.1,0,0,1,175,86.39a13.1,13.1,0,0,1,6.6,4.39A13.06,13.06,0,0,1,183.74,98.4Z"/><path class="cls-28" d="M183.51,98.37A11.37,11.37,0,0,1,170,92.16a11.37,11.37,0,0,1,13.49,6.21Z"/><path class="cls-27" d="M185,98.4a13,13,0,0,0,6.6-4.38,13.06,13.06,0,0,0,2.15-7.63,13.1,13.1,0,0,0-6.6,4.39A13.11,13.11,0,0,0,185,98.4Z"/><path class="cls-28" d="M185.4,98.37a11.37,11.37,0,0,0,13.49-6.21,11.37,11.37,0,0,0-13.49,6.21Z"/><path class="cls-28" d="M184.32,98.26a13.06,13.06,0,0,1-2.75-7.43,13.1,13.1,0,0,1,2.75-7.43,13.07,13.07,0,0,1,2.76,7.43A13,13,0,0,1,184.32,98.26Z"/><path class="cls-29" d="M201.27,108.82c0,6.19-7.53,25-16.82,25s-16.81-18.83-16.81-25,2.74-13.16,16.94-13.16S201.27,102.63,201.27,108.82Z"/><path class="cls-30" d="M179.89,129.54c9.29,0,16.82-18.83,16.82-25a14.14,14.14,0,0,0-1.51-6.83c-2.47-1.26-5.89-2-10.62-2-14.2,0-16.94,7-16.94,13.16,0,4,3.15,13.3,7.89,19.36A8.27,8.27,0,0,0,179.89,129.54Z"/><path class="cls-31" d="M183.4,110.06c0,3.63-2.48,6.58-5.54,6.58s-5.54-3-5.54-6.58,2.48-6.58,5.54-6.58S183.4,106.42,183.4,110.06Z"/><path class="cls-32" d="M197.35,103.3c0,.9-1,1.64-1,1.64s-1-.74-1-1.64.46-1.65,1-1.65S197.35,102.39,197.35,103.3Z"/><path class="cls-32" d="M192.4,110.86c0,.9-1,1.64-1,1.64s-1-.74-1-1.64.46-1.65,1-1.65S192.4,110,192.4,110.86Z"/><path class="cls-32" d="M192,120.76c0,.91-1,1.65-1,1.65s-1.05-.74-1.05-1.65.47-1.64,1.05-1.64S192,119.85,192,120.76Z"/><path class="cls-32" d="M179.89,120.76c0,.91-1,1.65-1,1.65s-1-.74-1-1.65.47-1.64,1-1.64S179.89,119.85,179.89,120.76Z"/><path class="cls-32" d="M186,116.13c0,.91-1,1.65-1,1.65s-1-.74-1-1.65.47-1.64,1-1.64S186,115.23,186,116.13Z"/><path class="cls-32" d="M186,127.21c0,.91-1,1.65-1,1.65s-1-.74-1-1.65.47-1.64,1-1.64S186,126.3,186,127.21Z"/><path class="cls-32" d="M174.15,103.3c0,.9-1,1.64-1,1.64s-1-.74-1-1.64.46-1.65,1-1.65S174.15,102.39,174.15,103.3Z"/><path class="cls-32" d="M185.75,103.3c0,.9-1,1.64-1,1.64s-1-.74-1-1.64.46-1.65,1-1.65S185.75,102.39,185.75,103.3Z"/><path class="cls-32" d="M179.5,110.86c0,.9-1.05,1.64-1.05,1.64s-1-.74-1-1.64.47-1.65,1-1.65S179.5,110,179.5,110.86Z"/><path class="cls-33" d="M114.37,127.93h-7.52a11.58,11.58,0,0,1-11.58-11.59h0a11.57,11.57,0,0,1,11.58-11.58h7.52A11.57,11.57,0,0,1,126,116.34h0A11.58,11.58,0,0,1,114.37,127.93Z"/><path class="cls-34" d="M114.37,104.76h-7.52a11.57,11.57,0,0,0-11.58,11.58h0a11.59,11.59,0,0,0,2.23,6.85,11.59,11.59,0,0,0,6.85,2.23h7.51a11.58,11.58,0,0,0,11.59-11.58h0a11.48,11.48,0,0,0-2.24-6.84A11.5,11.5,0,0,0,114.37,104.76Z"/><path class="cls-34" d="M96.21,115.43l-1-.75c-.78-.56-1.75.15-1.75.15s.56-.26,1.23.63a2,2,0,0,0,1.74.78Z"/><path class="cls-34" d="M96.17,117.26l-1,.75a1.65,1.65,0,0,1-1.75-.15s.56.26,1.23-.64a2.07,2.07,0,0,1,1.75-.78Z"/><path class="cls-34" d="M96,117.27l-1.28,0a1.72,1.72,0,0,1-1.4-.78,2.6,2.6,0,0,0,1.45-.16,2,2,0,0,1,1.87.42Z"/><path class="cls-34" d="M96,115.3l-1.28,0a1.72,1.72,0,0,0-1.4.78,2.48,2.48,0,0,1,1.45.16,2.08,2.08,0,0,0,1.87-.42Z"/><path class="cls-35" d="M106.22,117.73H104c-1.85,0-3.35-1.81-3.35-4h0c0-2.23,1.5-4,3.35-4h2.18c1.85,0,3.35,1.8,3.35,4h0C109.57,115.92,108.07,117.73,106.22,117.73Z"/><rect class="cls-33" x="106.89" y="109.72" width="22.8" height="23.06" rx="11.4"/><path class="cls-36" d="M118.29,132.12h0a10.77,10.77,0,0,1-10.74-10.74v-.25a10.78,10.78,0,0,1,10.74-10.75h0A10.78,10.78,0,0,1,129,121.13v.25A10.78,10.78,0,0,1,118.29,132.12Z"/><path class="cls-37" d="M125.21,118.37c.32.82-.54,1.71-1.1,2.62-.44.71,0,2.51-.79,3.12s-1.91.31-2.84.66-1.69,1.31-2.56,1.4c-1,.11-2.52-1.31-3.31-1.55-1-.31-2.26-.39-2.58-1.22s.55-1.71,1.11-2.62c.43-.72.55-3.06,1.39-3.67s1.91-.31,2.84-.66,1.68-1.31,2.55-1.4c1-.1,1.92,1.86,2.72,2.1C123.67,117.46,124.9,117.54,125.21,118.37Z"/><path class="cls-38" d="M122.15,119.51c.17.44-.29.91-.59,1.4s-.29,1-.74,1.36-1,.16-1.52.35-.9.7-1.37.75-1-.39-1.46-.52-1.2-.21-1.37-.65.29-.91.59-1.4.29-1,.74-1.36,1-.16,1.52-.35.9-.7,1.37-.75,1,.39,1.45.52S122,119.06,122.15,119.51Z"/><path class="cls-39" d="M118.47,118.23s.2-6-.69-6S118.47,118.23,118.47,118.23Z"/><path class="cls-39" d="M119.48,118s1.37-5.89.5-6.06S119.48,118,119.48,118Z"/><path class="cls-39" d="M120.65,118.56s2.53-5.49,1.71-5.83S120.65,118.56,120.65,118.56Z"/><path class="cls-39" d="M121.59,118.68s4-4.56,3.28-5.12S121.59,118.68,121.59,118.68Z"/><path class="cls-39" d="M122.29,119.19s4.66-3.37,4.15-4S122.29,119.19,122.29,119.19Z"/><path class="cls-39" d="M122.53,119.59s5.4-1.83,5.11-2.64S122.53,119.59,122.53,119.59Z"/><path class="cls-39" d="M117.57,118.34s-1-6-1.92-5.76S117.57,118.34,117.57,118.34Z"/><path class="cls-39" d="M116.47,118.65s-2-5.72-2.77-5.41S116.47,118.65,116.47,118.65Z"/><path class="cls-39" d="M116,119.24s-3.34-5-4.06-4.52S116,119.24,116,119.24Z"/><path class="cls-39" d="M115.42,120.08s-4.33-4.21-4.93-3.56S115.42,120.08,115.42,120.08Z"/><path class="cls-39" d="M115.27,120.82s-5.27-3-5.68-2.18S115.27,120.82,115.27,120.82Z"/><path class="cls-39" d="M114.76,121.8s-5.85-1.53-6-.67S114.76,121.8,114.76,121.8Z"/><path class="cls-39" d="M114.92,122.65s-6,0-6,.9S114.92,122.65,114.92,122.65Z"/><path class="cls-39" d="M115.75,123s-5.45,2.62-5,3.4S115.75,123,115.75,123Z"/><path class="cls-39" d="M116.62,123.66s-4.6,3.91-4,4.57S116.62,123.66,116.62,123.66Z"/><path class="cls-39" d="M117.48,124s-3.44,5-2.7,5.44S117.48,124,117.48,124Z"/><path class="cls-39" d="M118.1,123.76s-1.63,5.82-.77,6S118.1,123.76,118.1,123.76Z"/><path class="cls-39" d="M119,123.57s-.09,6,.79,6S119,123.57,119,123.57Z"/><path class="cls-39" d="M119.92,123.32s1.16,5.93,2,5.73S119.92,123.32,119.92,123.32Z"/><path class="cls-39" d="M120.65,122.74s2.64,5.44,3.42,5S120.65,122.74,120.65,122.74Z"/><path class="cls-39" d="M121.52,122.4s3.66,4.81,4.34,4.25S121.52,122.4,121.52,122.4Z"/><path class="cls-39" d="M121.92,121.56s4.76,3.72,5.29,3S121.92,121.56,121.92,121.56Z"/><path class="cls-39" d="M122.5,120.67s5.51,2.47,5.85,1.65S122.5,120.67,122.5,120.67Z"/><path class="cls-39" d="M122.44,119.75s5.61,1,5.72.11S122.44,119.75,122.44,119.75Z"/><path d="M118.73,125.43c0,.49-.18.89-.41.89s-.4-.4-.4-.89.18-.89.4-.89S118.73,124.94,118.73,125.43Z"/><path d="M116.68,125.06c-.15.46-.45.78-.67.71s-.25-.5-.1-1,.45-.78.67-.71S116.84,124.59,116.68,125.06Z"/><path d="M117.55,125.83c-.15.46-.45.78-.66.71s-.26-.5-.11-1,.46-.78.67-.71S117.71,125.36,117.55,125.83Z"/><path d="M115.69,124.9c-.31.38-.71.56-.88.42s-.06-.56.26-.94.71-.57.88-.42S116,124.52,115.69,124.9Z"/><path d="M119.77,125.18c.11.48,0,.9-.21.95s-.48-.3-.58-.78,0-.9.2-.95S119.67,124.7,119.77,125.18Z"/><path d="M120.62,124.41c.11.48,0,.9-.2,1s-.48-.3-.59-.78,0-.9.21-1S120.52,123.93,120.62,124.41Z"/><path d="M121.75,124.7c.18.46.15.9-.06,1s-.52-.23-.7-.69-.15-.89.06-1S121.57,124.24,121.75,124.7Z"/><path d="M118.68,116.25c0-.49.18-.89.4-.89s.41.4.41.89-.18.88-.41.88S118.68,116.74,118.68,116.25Z"/><path d="M120.73,116.62c.15-.47.45-.79.66-.72s.26.51.11,1-.46.79-.67.72S120.57,117.08,120.73,116.62Z"/><path d="M119.85,115.85c.16-.47.46-.79.67-.72s.26.51.1,1-.45.79-.66.72S119.7,116.31,119.85,115.85Z"/><path d="M121.72,116.78c.31-.38.7-.57.87-.43s.06.57-.25,1-.71.56-.88.42S121.4,117.15,121.72,116.78Z"/><path d="M117.64,116.5c-.11-.48,0-.91.2-1s.48.3.59.77,0,.91-.21,1S117.74,117,117.64,116.5Z"/><path d="M116.78,117.27c-.1-.48,0-.91.21-1s.48.31.59.78,0,.91-.21,1S116.89,117.75,116.78,117.27Z"/><path d="M115.66,117c-.18-.45-.15-.89.06-1s.52.22.69.68.15.9-.06,1S115.83,117.43,115.66,117Z"/><path d="M122.36,123.06c.31.38.43.8.26.94s-.56,0-.88-.41-.44-.79-.27-.94S122,122.69,122.36,123.06Z"/><path d="M123.68,123c.32.37.44.79.27.94s-.57,0-.89-.41-.43-.79-.26-.94S123.36,122.65,123.68,123Z"/><path d="M123.32,121.57c.42.26.66.63.54.82s-.55.13-1-.13-.65-.63-.53-.82S122.91,121.31,123.32,121.57Z"/><path d="M124.51,121.24c.45.2.73.53.64.74s-.53.2-1,0-.74-.53-.64-.73S124.07,121,124.51,121.24Z"/><path d="M124.11,120c.48.1.84.35.8.57s-.47.32-1,.23-.84-.35-.8-.57S123.63,119.88,124.11,120Z"/><path d="M124.81,119c.49,0,.87.22.86.44s-.41.39-.9.37-.88-.23-.87-.45S124.32,119,124.81,119Z"/><path d="M123.6,118.2c.48-.09.91,0,1,.23s-.31.48-.79.57-.91,0-1-.23S123.12,118.3,123.6,118.2Z"/><path d="M123.88,117.19c.43-.24.87-.28,1-.08s-.15.55-.57.79-.87.27-1,.07S123.45,117.43,123.88,117.19Z"/><path d="M122.3,117.6c.36-.34.78-.47.93-.31s0,.57-.38.9-.77.47-.92.31S121.94,117.93,122.3,117.6Z"/><path d="M115.83,117.87c.3.38.4.81.22.95s-.56-.07-.86-.46-.4-.81-.22-1S115.53,117.48,115.83,117.87Z"/><path d="M114.57,117.92c.45.2.74.53.65.73s-.53.21-1,0-.74-.52-.65-.73S114.12,117.72,114.57,117.92Z"/><path d="M114.27,118.82c.48.11.83.38.78.6s-.48.3-1,.2-.82-.38-.77-.6S113.8,118.72,114.27,118.82Z"/><path d="M113.82,119.72c.47.15.79.45.72.66s-.5.26-1,.11-.79-.45-.72-.66S113.36,119.57,113.82,119.72Z"/><path d="M112.82,120.37c.47.11.82.38.77.6s-.48.3-1,.19-.82-.38-.77-.6S112.34,120.26,112.82,120.37Z"/><path d="M113.41,121.47c.49,0,.88.22.86.44s-.41.39-.9.37-.88-.23-.87-.45S112.92,121.44,113.41,121.47Z"/><path d="M113.79,122.5c.46-.15.9-.11,1,.1s-.25.52-.71.67-.9.11-1-.1S113.32,122.66,113.79,122.5Z"/><path d="M113.8,123.76c.38-.3.81-.41,1-.23s-.06.56-.45.87-.81.41-.94.23S113.41,124.07,113.8,123.76Z"/><path class="cls-33" d="M148.6,125.3l6.1-1.52A9.68,9.68,0,0,0,161.77,112h0A9.69,9.69,0,0,0,150,105l-6.1,1.51a9.68,9.68,0,0,0-7.06,11.74h0A9.69,9.69,0,0,0,148.6,125.3Z"/><path class="cls-34" d="M143.93,106.49,150,105A9.69,9.69,0,0,1,161.77,112h0a9.59,9.59,0,0,1-.44,6,9.56,9.56,0,0,1-5.1,3.19l-6.1,1.52a9.69,9.69,0,0,1-11.74-7.07h0a9.7,9.7,0,0,1,.44-6A9.63,9.63,0,0,1,143.93,106.49Z"/><path class="cls-34" d="M160.82,111.49s.17-.21.7-.82,1.45-.23,1.45-.23-.51-.1-.87.76a1.75,1.75,0,0,1-1.27,1Z"/><path class="cls-34" d="M161.22,113l1,.39c.74.3,1.39-.47,1.39-.47s-.4.32-1.13-.27a1.74,1.74,0,0,0-1.57-.28Z"/><path class="cls-34" d="M161.4,112.93l1-.27a1.46,1.46,0,0,0,1-.92,2.18,2.18,0,0,1-1.22.16,1.72,1.72,0,0,0-1.43.72Z"/><path class="cls-34" d="M161,111.34l1.05-.23a1.43,1.43,0,0,1,1.29.34s-.34,0-1.14.43a1.74,1.74,0,0,1-1.61,0Z"/><path class="cls-35" d="M153.16,115.38l1.77-.44a3.13,3.13,0,0,0,1.91-4h0a3.13,3.13,0,0,0-3.54-2.6l-1.76.44a3.13,3.13,0,0,0-1.91,4h0A3.13,3.13,0,0,0,153.16,115.38Z"/><rect class="cls-33" x="134.54" y="111.03" width="19.06" height="19.29" rx="9.53" transform="translate(-24.85 38.3) rotate(-13.95)"/><path class="cls-36" d="M146.26,129.49h0a9,9,0,0,0,6.56-10.88l0-.21a9,9,0,0,0-10.89-6.55h0a9,9,0,0,0-6.55,10.89l0,.2A9,9,0,0,0,146.26,129.49Z"/><path class="cls-37" d="M137.87,119.72c-.09.74.79,1.28,1.43,1.91s.47,2.05,1.27,2.38,1.61-.14,2.44,0,1.63.72,2.36.62,1.77-1.57,2.37-1.93c.77-.46,1.76-.77,1.85-1.51s-.79-1.28-1.43-1.91-1.06-2.37-1.87-2.69-1.61.14-2.43,0-1.63-.73-2.36-.62-1.19,1.89-1.79,2.25C138.94,118.68,138,119,137.87,119.72Z"/><path class="cls-38" d="M140.59,120c-.05.4.42.69.76,1s.45.78.88,1,.86-.07,1.3,0,.88.39,1.26.33.76-.52,1.08-.71.94-.41,1-.8-.42-.69-.77-1-.44-.78-.87-1-.86.07-1.31,0-.87-.39-1.26-.34-.75.52-1.08.72S140.64,119.64,140.59,120Z"/><path class="cls-39" d="M143.32,118.26s-1.38-4.86-.66-5S143.32,118.26,143.32,118.26Z"/><path class="cls-39" d="M142.46,118.29s-2.3-4.5-1.63-4.81S142.46,118.29,142.46,118.29Z"/><path class="cls-39" d="M141.62,119s-3.16-3.94-2.57-4.39S141.62,119,141.62,119Z"/><path class="cls-39" d="M140.88,119.24s-4.14-2.89-3.7-3.49S140.88,119.24,140.88,119.24Z"/><path class="cls-39" d="M140.41,119.81s-4.46-1.8-4.19-2.46S140.41,119.81,140.41,119.81Z"/><path class="cls-39" d="M140.3,120.18s-4.76-.4-4.69-1.11S140.3,120.18,140.3,120.18Z"/><path class="cls-39" d="M144.07,118.17s-.34-5,.4-5.07S144.07,118.17,144.07,118.17Z"/><path class="cls-39" d="M145,118.19s.42-5,1.16-5S145,118.19,145,118.19Z"/><path class="cls-39" d="M145.53,118.58s1.7-4.76,2.39-4.49S145.53,118.58,145.53,118.58Z"/><path class="cls-39" d="M146.17,119.14s2.66-4.29,3.28-3.88S146.17,119.14,146.17,119.14Z"/><path class="cls-39" d="M146.44,119.71s3.67-3.47,4.16-2.92S146.44,119.71,146.44,119.71Z"/><path class="cls-39" d="M147.05,120.4s4.44-2.42,4.77-1.76S147.05,120.4,147.05,120.4Z"/><path class="cls-39" d="M147.09,121.13s4.91-1.21,5.06-.49S147.09,121.13,147.09,121.13Z"/><path class="cls-39" d="M146.48,121.56s5,1,4.78,1.74S146.48,121.56,146.48,121.56Z"/><path class="cls-39" d="M145.91,122.28s4.53,2.26,4.17,2.91S145.91,122.28,145.91,122.28Z"/><path class="cls-39" d="M145.28,122.75s3.8,3.33,3.3,3.87S145.28,122.75,145.28,122.75Z"/><path class="cls-39" d="M144.73,122.67s2.5,4.39,1.84,4.73S144.73,122.67,144.73,122.67Z"/><path class="cls-39" d="M144,122.7s1.29,4.88.57,5S144,122.7,144,122.7Z"/><path class="cls-39" d="M143.17,122.68s.25,5-.49,5.06S143.17,122.68,143.17,122.68Z"/><path class="cls-39" d="M142.46,122.36s-1.05,4.94-1.76,4.76S142.46,122.36,142.46,122.36Z"/><path class="cls-39" d="M141.69,122.25s-2,4.65-2.67,4.33S141.69,122.25,141.69,122.25Z"/><path class="cls-39" d="M141.19,121.65s-3.12,4-3.68,3.5S141.19,121.65,141.19,121.65Z"/><path class="cls-39" d="M140.54,121s-4,3.12-4.41,2.53S140.54,121,140.54,121Z"/><path class="cls-39" d="M140.4,120.29s-4.36,1.91-4.62,1.24S140.4,120.29,140.4,120.29Z"/><path d="M144.56,124.15c.1.4.33.68.51.64s.25-.41.15-.8-.33-.69-.51-.64S144.46,123.75,144.56,124.15Z"/><path d="M146.15,123.44c.22.34.52.54.68.44s.11-.46-.11-.81-.52-.54-.68-.44S145.93,123.09,146.15,123.44Z"/><path d="M145.59,124.24c.22.34.53.54.69.44s.11-.46-.11-.81-.53-.54-.69-.44S145.37,123.89,145.59,124.24Z"/><path d="M146.92,123.11c.33.24.69.31.8.16s-.07-.47-.4-.71-.69-.32-.8-.17S146.59,122.86,146.92,123.11Z"/><path d="M143.66,124.15c0,.41.18.74.36.74s.33-.35.32-.75-.17-.74-.36-.74S143.65,123.74,143.66,124.15Z"/><path d="M142.82,123.7c0,.41.17.74.36.73s.33-.34.31-.75-.17-.73-.35-.73S142.81,123.29,142.82,123.7Z"/><path d="M142,124.17c-.05.4.06.75.25.78s.37-.29.43-.7-.06-.75-.25-.78S142,123.76,142,124.17Z"/><path d="M142.75,116.68c-.1-.39-.33-.68-.51-.63s-.25.4-.15.8.33.68.51.64S142.85,117.08,142.75,116.68Z"/><path d="M141.16,117.4c-.22-.35-.52-.55-.68-.45s-.11.47.11.81.52.55.68.45S141.38,117.74,141.16,117.4Z"/><path d="M141.72,116.6c-.22-.35-.53-.55-.69-.45s-.11.47.11.81.53.55.69.45S141.93,116.94,141.72,116.6Z"/><path d="M140.39,117.73c-.33-.24-.69-.32-.8-.17s.07.47.4.72.69.31.8.16S140.72,118,140.39,117.73Z"/><path d="M143.65,116.68c0-.41-.18-.74-.36-.73s-.33.34-.32.75.17.74.36.73S143.66,117.09,143.65,116.68Z"/><path d="M144.49,117.13c0-.41-.17-.73-.36-.73s-.33.34-.32.75.18.74.36.73S144.5,117.54,144.49,117.13Z"/><path d="M145.35,116.67c.05-.41-.06-.76-.25-.78s-.37.29-.43.69.06.76.25.78S145.3,117.07,145.35,116.67Z"/><path d="M141.14,123c-.18.37-.2.73,0,.82s.45-.15.64-.52.19-.73,0-.81S141.32,122.59,141.14,123Z"/><path d="M140.06,123.19c-.19.37-.2.73,0,.82s.45-.15.63-.51.2-.74,0-.82S140.24,122.83,140.06,123.19Z"/><path d="M140.05,121.94c-.28.3-.4.65-.27.78s.48,0,.76-.31.41-.64.27-.77S140.34,121.65,140.05,121.94Z"/><path d="M139,121.91c-.32.26-.49.58-.37.73s.47.06.79-.2.49-.58.37-.73S139.34,121.66,139,121.91Z"/><path d="M139.09,120.8c-.37.18-.61.46-.53.63s.45.16.82,0,.6-.45.52-.62S139.46,120.63,139.09,120.8Z"/><path d="M138.34,120.19c-.39.11-.67.36-.61.53s.41.23.8.11.67-.36.62-.53S138.73,120.07,138.34,120.19Z"/><path d="M139.15,119.27c-.41,0-.74.19-.73.37s.35.33.76.3.73-.18.72-.37S139.56,119.25,139.15,119.27Z"/><path d="M138.72,118.5c-.4-.11-.76,0-.81.13s.23.42.63.52.75,0,.8-.13S139.11,118.61,138.72,118.5Z"/><path d="M140.08,118.51c-.36-.2-.72-.22-.81-.06s.12.46.48.66.73.22.82.06S140.44,118.71,140.08,118.51Z"/><path d="M145.39,117.43c-.17.37-.16.74,0,.81s.44-.17.61-.54.16-.74,0-.82S145.55,117.05,145.39,117.43Z"/><path d="M146.42,117.22c-.32.25-.49.57-.38.72s.48.06.8-.19.49-.57.38-.72S146.75,117,146.42,117.22Z"/><path d="M146.84,117.89c-.36.18-.59.47-.5.64s.44.15.81,0,.59-.48.51-.64S147.21,117.7,146.84,117.89Z"/><path d="M147.39,118.52c-.35.22-.55.53-.45.69s.46.11.81-.11.55-.52.45-.68S147.74,118.31,147.39,118.52Z"/><path d="M148.34,118.85c-.37.19-.59.47-.51.64s.45.15.82,0,.59-.48.5-.64S148.7,118.66,148.34,118.85Z"/><path d="M148.08,119.86c-.39.12-.67.36-.61.54s.41.23.81.11.66-.36.61-.54S148.47,119.74,148.08,119.86Z"/><path d="M148,120.78c-.41,0-.75.09-.77.28s.31.36.71.39.76-.09.77-.28S148.39,120.81,148,120.78Z"/><path d="M148.23,121.8c-.38-.17-.74-.17-.82,0s.16.45.53.62.74.17.82,0S148.6,122,148.23,121.8Z"/><path class="cls-3" d="M15.25,109.78c1.57,52,44.43,98.06,118.92,98.06,71.59,0,117.36-46.1,118.93-98.06,0,0-1.37,12.31-118.93,12.31C53.29,122.09,15.25,109.78,15.25,109.78Z"/><path class="cls-40" d="M65,152.85c4.33,4.22,11.2,6.4,17,8a62.49,62.49,0,0,0,9,1.65c3.12.4,6.25.74,9.39.85,7.31.27,14.74-.55,21.36-3.86A29.25,29.25,0,0,0,134.06,148,60.51,60.51,0,0,0,139.69,134c-9,.27-20,.34-33.42.11-24.82-.43-43.11-2.61-55.26-4.71C51.36,132.87,50.89,139.08,65,152.85Z"/><path class="cls-5" d="M216.32,119c-3.14,6.47-6.53,12.82-9.79,19.13-4.5,8.71-10,16.76-17.32,23.37a92.12,92.12,0,0,1-25.06,16.24c-21.37,9.23-44.95,9.52-67.6,5.71-9.6-1.62-18.8-4.19-27.28-9.12A76.81,76.81,0,0,1,49,157.2C38.42,144.5,31.55,129.06,28,113c-8.58-1.82-12.79-3.18-12.79-3.18,1.57,52,44.43,98.06,118.92,98.06,71.59,0,117.36-46.1,118.93-98.06C253.1,109.78,252.48,115.35,216.32,119Z"/></g></g></svg>