<svg xmlns="http://www.w3.org/2000/svg" xmlns:xlink="http://www.w3.org/1999/xlink" viewBox="0 0 330.69 462.99"><defs><style>.cls-1{fill:none;}.cls-2{isolation:isolate;}.cls-3,.cls-31{fill:#fff;}.cls-3{opacity:0.54;}.cls-4{fill:#e8594e;}.cls-14,.cls-30,.cls-32,.cls-5{fill:#fb6856;}.cls-10,.cls-6,.cls-7{fill:#ffb3ab;}.cls-10,.cls-13,.cls-20,.cls-28,.cls-30,.cls-32,.cls-7{mix-blend-mode:multiply;}.cls-7{opacity:0.51;}.cls-15,.cls-29,.cls-8{fill:#390d08;}.cls-9{opacity:0.34;}.cls-11{clip-path:url(#clip-path);}.cls-12,.cls-13{fill:#fea45b;}.cls-13,.cls-24{opacity:0.17;}.cls-14,.cls-25{opacity:0.49;}.cls-15{opacity:0.25;}.cls-16{fill:#78c8e1;}.cls-17,.cls-21{fill:#588584;}.cls-17,.cls-20{opacity:0.42;}.cls-18{opacity:0.69;}.cls-19,.cls-20{fill:#97554d;}.cls-22{opacity:0.22;}.cls-23{clip-path:url(#clip-path-2);}.cls-26{clip-path:url(#clip-path-3);}.cls-27{fill:#f9d8b9;}.cls-28{opacity:0.53;}.cls-29{opacity:0.47;}.cls-31{opacity:0.33;}.cls-32{opacity:0.19;}.cls-33{clip-path:url(#clip-path-4);}.cls-34{opacity:0.38;}.cls-35{clip-path:url(#clip-path-5);}</style><clipPath id="clip-path"><path class="cls-1" d="M214,38.59h-.25C205.32,1.21,169.6,3.88,169.6,3.88,135,2.79,126.32,32.85,124.48,42L85,65.07s36.4-5,57.92-1.66,76.11,1.66,84.39,0,30.61-2.48,30.61-2.48Z"/></clipPath><clipPath id="clip-path-2"><path class="cls-1" d="M59.39,292.59a45.28,45.28,0,0,0-2.55,14.83c0,37.93,48.34,68.67,108,68.67s108-30.74,108-68.67a45,45,0,0,0-2.55-14.83Z"/></clipPath><clipPath id="clip-path-3"><path class="cls-1" d="M330.69,259.17c-.08-11.46-12.89-21.91-34.25-30.08,1.07-5,2.12-13.9-2.51-18.46s-15.36,5.06-21.21,11.18c-27.15-6.69-61.83-10.57-99.58-10.3-86.82.64-157,23-156.84,50S87,309.78,173.86,309.14a459.34,459.34,0,0,0,72.39-6c10,6.89,23,8.17,27.49,6.2,5.54-2.43,5.94-10.9,5.94-10.9a141.12,141.12,0,0,0,14.93,4.86c4.3,1,3.78-7.59,2.89-13.78C318.37,281.06,330.78,270.52,330.69,259.17Z"/></clipPath><clipPath id="clip-path-4"><path class="cls-1" d="M83.7,271.9s-10,6.5-4.24,12.61,36.16,44.51,44,43.08-19.74-51.87-25.09-59S83.7,271.9,83.7,271.9Z"/></clipPath><clipPath id="clip-path-5"><path class="cls-1" d="M109.25,265.88s-11.44,3.49-7.55,11,22.5,52.74,30.44,53.52-4.7-55.29-7.88-63.61S109.25,265.88,109.25,265.88Z"/></clipPath></defs><g class="cls-2"><g id="Layer_1" data-name="Layer 1"><circle class="cls-3" cx="164.38" cy="210.35" r="164.38" transform="translate(-100.6 177.84) rotate(-45)"/><path class="cls-4" d="M84.14,65.76s122.45,31.92,172.1-4.83L99,59.28Z"/><path class="cls-5" d="M301.55,256.86A10.9,10.9,0,0,1,298,262.3a10.1,10.1,0,0,1-1.61,1h0a12.77,12.77,0,0,1-5.27,1.27,21.17,21.17,0,0,1-4.24-.23c-.82-.12-1.7-.28-2.61-.48a43.94,43.94,0,0,1-12.56-5.46c-.66-.38-1.33-.79-2-1.22-.38-.23-.77-.49-1.16-.75-.91-.59-1.82-1.21-2.74-1.86l-.09-.06a195.14,195.14,0,0,1-20.94-17.48l-.29-.27c-3.74-3.55-7.29-7.1-10.49-10.41q-.39-.39-.75-.78l-.07.33-5.73,28.69L224,271.91,225.7,281l2.05,10.8,2.29,12,.49,2.57L235,329.84l5,26.07a110.33,110.33,0,0,1-11.53,6.16c-1.07.49-2.15,1-3.25,1.46a.42.42,0,0,0-.14.06c-1.16.49-2.31,1-3.5,1.42q-3.44,1.37-7.05,2.56l-.54.17c-3.59,1.19-7.3,2.22-11.13,3.13-1.31.32-2.64.61-4,.9s-2.68.55-4,.79-2.72.49-4.1.71h0c-1.09.17-2.19.35-3.32.49l-1.63.2c-1,.13-2,.25-3,.36l-1.48.15c-1,.1-2.06.18-3.1.27-.24,0-.48,0-.72,0-1.16.11-2.32.18-3.51.24h-.34c-1.33.07-2.67.13-4,.16-1.57,0-3.16.07-4.74.07-29.11,0-55.54-7.33-75-19.24.67-4.59,1.4-9.64,2.15-14.92.64-4.39,1.27-8.92,1.89-13.45,1.17-8.39,2.31-16.82,3.28-24.38,0-.34.09-.68.13-1s.1-.84.16-1.25v0c.42-3.29.79-6.39,1.11-9.22.46-4,.81-7.42,1-10.12.17-2,.26-3.68.26-4.77,0-3.51-1.39-12.69-3.44-24.29-1.19-6.83-2.62-14.49-4.12-22.35a334.49,334.49,0,0,1-23.86,26.29c-.52.49-1,1-1.54,1.48l-1.59,1.49c-1,.92-2,1.82-3,2.7l-.35.3L60.23,264l-1.17,1-.79.67c-6.73,5.51-13.3,9.68-18.9,11.07-.78.2-1.53.34-2.25.46-9.84,1.58-13.29-4.09-14.21-10.32a40.62,40.62,0,0,1,.79-13.76q2.65-6,5.35-11.5c.25-.5.49-1,.73-1.49q4.3-8.74,8.54-16.29c.22-.39.43-.78.65-1.15,4.49-8,8.86-14.94,13-21l.58-.84c4.56-6.66,8.78-12.15,12.44-16.58L66.07,183c7.9-9.35,13-13.51,13-13.51.36.06.7.15,1.06.22l-.09-.36,16.6-5.37,13.48-4.36,10.17-3.29,6.28-2,.14,0,8.12-2.62,1.48-.48,5.57-.16,48.44-1.33,3.2-.1,2.36-.05,6.29,1.89,13.48,4,10.06,3,16.94,5.08,0,.08a1.52,1.52,0,0,0,.21,0s30.2,22,58.46,78.52C301.32,242.06,303.59,250.33,301.55,256.86Z"/><path class="cls-6" d="M193.21,148.25l2.26-2.63-2.85-.15-3.4-15.87-48-6.62-4.52,25.64a5.57,5.57,0,0,0-2.73,2.23L165.92,180,186,156.65a36.61,36.61,0,0,0,8.18-3.88Z"/><path class="cls-7" d="M191.06,138.18l-1.84-8.58-48-6.62-2.29,13C154.34,146.91,174.45,146.68,191.06,138.18Z"/><path class="cls-6" d="M209.49,77s.65-4.93,7.21-4.06,1.48,22.49-8.91,27.5C207.79,100.4,204.7,88,209.49,77Z"/><path class="cls-6" d="M210.73,60.1a41.37,41.37,0,1,0-82.74,0s-.23,1.24-.53,3.4c-2.12,15.15-7.76,75.82,38.59,74.38C166.05,137.88,217.35,152.77,210.73,60.1Z"/><path class="cls-8" d="M207.62,89c0-3.76-.14-7.81,1.26-11.23a8,8,0,0,1,6.61-5.2l1-14.9H203.85s-1.27,21.51,0,28.13c1.2,6.27,3.53,3.63,3.78,3.34C207.63,89,207.62,89,207.62,89Z"/><path class="cls-6" d="M129,77s-.65-4.93-7.21-4.06-1.48,22.49,8.91,27.5C130.74,100.4,133.83,88,129,77Z"/><path class="cls-8" d="M130.91,89c0-3.76.13-7.81-1.26-11.23a8,8,0,0,0-6.61-5.2l-1-14.9h12.67s1.27,21.51,0,28.13c-1.2,6.27-3.54,3.63-3.78,3.34C130.9,89,130.91,89,130.91,89Z"/><g class="cls-9"><path class="cls-5" d="M125.52,90.93a2.94,2.94,0,0,1-2.28-1.31C121,86.76,120,78.55,121.62,76.89a1.85,1.85,0,0,1,1.69-.57c1.77.29,3.22,3.13,3.49,3.7a.83.83,0,0,1-1.49.72c-.61-1.27-1.67-2.69-2.27-2.79-.05,0-.12,0-.25.11-.83.89-.27,8,1.79,10.59.67.83,1.11.66,1.48.44a.83.83,0,0,1,1.13.29.82.82,0,0,1-.28,1.13A2.67,2.67,0,0,1,125.52,90.93Z"/></g><g class="cls-9"><path class="cls-5" d="M211.94,92.58a2.93,2.93,0,0,0,2.29-1.3c2.24-2.86,3.28-11.07,1.62-12.73a1.9,1.9,0,0,0-1.7-.58c-1.76.3-3.21,3.14-3.48,3.7a.83.83,0,0,0,.38,1.11.84.84,0,0,0,1.11-.39c.61-1.26,1.67-2.69,2.27-2.79,0,0,.11,0,.25.12.83.88.27,8-1.79,10.59-.67.82-1.11.66-1.48.44a.82.82,0,0,0-1.13.28.83.83,0,0,0,.28,1.14A2.74,2.74,0,0,0,211.94,92.58Z"/></g><path class="cls-10" d="M123.91,58.09l92.61-.47-.9,11.19s-83.44,2.67-92.57-3.43l-.85-7.76Z"/><g class="cls-11"><path class="cls-12" d="M214,38.59h-.25C205.32,1.21,169.6,3.88,169.6,3.88,135,2.79,126.32,32.85,124.48,42L85,65.07s36.4-5,57.92-1.66,76.11,1.66,84.39,0,30.61-2.48,30.61-2.48Z"/><path class="cls-13" d="M156.27,63c-15-2.3-23.46-15.9-18.69-30.53C141.27,21.07,150.43,13,158.74,4.67,133.11,9.4,126.11,33.9,124.48,42L85,65.07s36.4-5,57.92-1.66c11.35,1.75,31.91,2.11,50,1.82A237.57,237.57,0,0,1,156.27,63Z"/><path class="cls-14" d="M238.36,49.05,237.71,48c-3.57,2.16-9.66,3.69-17.32,4.74-6.31-5.24-10.71-9.63-10.64-11.28,6-1,10.58-2.25,12.94-4l-.75-1c-2.16,1.62-6.39,2.83-11.94,3.73.3-2.83-1.1-8.55-2.73-14a22.21,22.21,0,0,0,5.42-1.94l-.6-1.08A21.76,21.76,0,0,1,206.92,25c-1.68-5.45-3.48-10.37-3.88-11.45l-1.16.44c.94,2.54,2.44,6.85,3.81,11.29A77.66,77.66,0,0,1,197,26.51c-1.06-4.11-2.24-8.3-3.24-11.75,7.05-.59,12.79-1.75,15.65-3.79l-.72-1c-2.73,1.94-8.34,3-15.28,3.58-1.07-3.64-1.87-6.23-2-6.57l-1.19.36c0,.09.81,2.63,1.88,6.3-2,.14-4,.23-6.16.29-.44-5.76-1.32-10.53-3-12.17l-.88.88c1.41,1.4,2.2,5.8,2.6,11.32-3.47.07-7.08.05-10.71,0l.9-11.7-1.24-.09L172.8,13.9c-2.79-.07-5.58-.18-8.3-.3,2-6.12,4.38-11.06,6.84-12.54L170.7,0c-2.75,1.65-5.28,7-7.47,13.54-3.32-.17-6.53-.36-9.5-.56a27.33,27.33,0,0,1,6.56-8.39l-.76-1c-2.65,2-5.05,5.36-7.17,9.27-2.89-.21-5.52-.42-7.77-.61a29,29,0,0,1,6.93-7.92l-.72-1a31.45,31.45,0,0,0-7.62,8.81c-4.12-.36-6.72-.64-6.85-.65l-.13,1.23c.45,0,2.74.3,6.24.61a100.33,100.33,0,0,0-6.06,12.09c-5-.38-8.18-.68-8.33-.69L127.93,26c.55.05,3.47.33,7.93.68-2.63,6.29-4.55,12.07-5.49,15.05-5.41-.22-8.79-.41-9-.42l-.07,1.24c.63,0,3.8.21,8.65.42-.07.25-.14.46-.18.6l-14.29,8.62c-7.43-.53-12.07-.93-12.29-.95l-.11,1.24c.1,0,4.06.35,10.54.82L94.45,64.85l.64,1.06,20.72-12.48c4.59.32,10.21.69,16.49,1L124.23,63l.9.85,8.79-9.27c5.4.3,11.25.58,17.33.82L146.07,66l1.11.55,5.43-11.07c3.2.12,6.47.23,9.76.32,2.46.07,4.85.11,7.2.16l-.83,10.75,1.24.1.83-10.83c3.67.06,7.21.09,10.6.09,2.12,0,4.18,0,6.2,0l2.66,10.88,1.21-.3L188.88,56c4.74-.06,9.19-.19,13.31-.39,2.13,5.8,4.48,11,4.67,11.4l1.13-.51c-.05-.1-2.36-5.22-4.5-11q9.42-.49,16.56-1.46l1.27,1c6.75,5.45,13.8,10.43,13.87,10.48l.72-1c-5-3.52-9.95-7.27-14.21-10.74Q233.3,52.1,238.36,49.05ZM206.05,26.46c1.77,5.9,3.17,11.76,2.64,13.92-2.67.39-5.6.72-8.74,1-.06-2.74-1.19-8-2.61-13.64A78.76,78.76,0,0,0,206.05,26.46Zm-34.2,16,1.08-14,5,0c2.44,0,4.85,0,7.21-.09-.06,5.3-.27,10.31-.47,13.83C180.46,42.38,176.15,42.46,171.85,42.49ZM160.5,28.12c3.65.15,7.42.26,11.18.33L170.6,42.5c-4.42,0-8.82,0-13.07,0C158.17,38.92,159.19,33.7,160.5,28.12Zm-4.24,14.31c-4.58-.06-9-.16-13-.28.81-3.32,2.27-8.82,4.28-14.69,3.62.22,7.57.44,11.67.61C157.91,33.7,156.89,38.93,156.26,42.43Zm30.1-14c3.41-.1,6.68-.28,9.72-.54,1.45,5.7,2.6,11,2.63,13.64-4,.32-8.35.55-12.82.72C186,39.76,186.29,34.43,186.36,28.38Zm6.16-13.53c1,3.44,2.18,7.65,3.25,11.77-2.94.24-6.1.4-9.39.5,0-3.95,0-8.13-.29-12C188.31,15.1,190.46,15,192.52,14.85Zm-12.68.41q2.53,0,5-.06c.23,3.74.3,7.89.28,12-3.92.09-8,.1-12.1,0l.92-12C175.92,15.24,177.89,15.26,179.84,15.26Zm-7.13-.09-.93,12c-3.69-.06-7.39-.17-11-.31,1-4.05,2.07-8.21,3.29-12C166.91,15,169.8,15.09,172.71,15.17Zm-9.89-.38c-1.23,3.83-2.34,8-3.3,12-4.05-.17-8-.38-11.54-.59a93.68,93.68,0,0,1,5.1-12C156.11,14.41,159.4,14.62,162.82,14.79Zm-19-1.32c2.26.2,4.93.41,7.87.63a97.26,97.26,0,0,0-5.05,12c-3.32-.21-6.34-.42-8.94-.61A96.65,96.65,0,0,1,143.84,13.47ZM137.2,26.75c2.61.2,5.67.42,9,.63-2,5.95-3.46,11.47-4.24,14.73-3.86-.11-7.35-.24-10.32-.36C132.66,38.66,134.6,32.92,137.2,26.75ZM117.67,52.31l13.2-8,.06-.24.35-1.12c3,.12,6.5.25,10.41.37-.17.75-.29,1.29-.35,1.57l-7.91,8.34C127.52,53,122.17,52.61,117.67,52.31Zm17.38,1.06,7.31-7.71.12-.12,0-.18s.16-.76.44-2c4,.12,8.46.22,13.07.29-.27,1.54-.44,2.61-.5,3l-3.67,7.47C146,53.92,140.31,53.65,135.05,53.37Zm18.17.83,3.46-7.06.06-.18c0-.07.21-1.28.56-3.24,3.13,0,6.34.07,9.59.07l3.61,0-.83,10.88C164.11,54.56,158.58,54.4,153.22,54.2Zm17.69.47.84-10.9c4.3,0,8.62-.12,12.82-.26v.07l2.73,11.14C181.92,54.78,176.41,54.76,170.91,54.67Zm17.66,0-2.75-11.24h0c4.49-.16,8.85-.4,12.92-.74.18,3,1.48,7.36,3,11.6C197.5,54.52,193.09,54.65,188.57,54.71ZM203,54.26c-1.55-4.3-2.9-8.77-3.07-11.64,3-.27,5.89-.59,8.51-1,.16,1.34,1.82,4.25,10.24,11.3C214,53.55,208.68,54,203,54.26Z"/></g><path class="cls-15" d="M226.32,196.43l.52-3.59s0,0,0,0l.66-4.59c.43-.07.87-.14,1.28-.23a36.89,36.89,0,0,0,4.28-1c.39-.11.78-.23,1.12-.36l-.56-1.55c-.23.08-.48.17-.74.24a35.09,35.09,0,0,1-4.17,1l-1,.17.33-2.33s0,0,0,0l.86-5.89,2.47-17.11-1.64-.24-2.34,16.2-.72,4.95-.58,4-.1.74c-3.74.56-8.29,1-13.4,1.28h-.1c-1.37.09-2.8.16-4.25.22-2.72.11-5.58.2-8.52.27l1.5-27.56v0l.36-6.51-1.64-.1-.42,7.52-1.46,26.7c-4.34.09-8.89.12-13.55.1l.11-4.47.42-16.54-1.66,0L183,185.42h0l-.09,3.26-4.46,0h0c-2.67,0-5.37-.06-8.09-.12h-1.18l-.22-4.4-.34-7.2-.06-1-1,.06-.64,0,.1,2v0l0,.76v0l.09,1.59h0l.39,8.14c-1.2,0-2.41,0-3.61-.09-3.45-.07-6.88-.17-10.3-.28h0c-.56,0-1.09,0-1.66-.05-.06-.37-.11-.73-.17-1.09-1.8-11.55-3-19.16-3.06-19.44l-1.63.26c0,.27,1.15,7.27,2.83,18,.11.72.23,1.46.34,2.21-5.36-.19-10.65-.39-15.71-.61-.85-4.56-1.65-8.8-2.36-12.63-.07-.3-.11-.59-.17-.89-1-5.17-1.82-9.53-2.45-12.86-.84-4.37-1.33-6.93-1.37-7.11l-1.48.28-.14,0v0c0,.21.45,2.31,1.13,5.86,1.11,5.77,2.94,15.43,5.15,27.23-4.91-.2-9.6-.43-13.94-.65l-.87,0c-.26-1.83-.5-3.61-.75-5.31-1.9-13.54-3.17-22.34-3.23-22.68l-1.65.25c0,.3,1.14,7.88,2.83,19.77.36,2.46.74,5.1,1.13,7.88l-1.76-.08a1.37,1.37,0,0,0-.29,0c-6.25-.33-11.62-.65-15.7-.89l-1.26-.08L95,185.36c-.09-.61-.18-1.18-.26-1.76v0c-1.52-10.65-2.5-17.33-2.54-17.62l-1.65.25c0,.29,1.13,7.57,2.76,19L90,185l-.12,1.65,3.65.24c.7,4.84,1.48,10.36,2.31,16.37l-4.73,0-1.16,0v1.65H91.3c1.08,0,2.7,0,4.76.06.52,3.82,1.09,7.84,1.65,12l.3,0,1.4.22q-.69-5.16-1.37-10l-.3-2.24H98c4.79.06,11.43.12,19.22.15h1.72c.25,1.82.51,3.65.77,5.53.36,2.53.7,5.09,1.06,7.72h1.66c-.36-2.63-.7-5.21-1.07-7.74-.24-1.86-.5-3.69-.75-5.5,4.85,0,10.08,0,15.52,0,.32,1.7.63,3.44,1,5.18q.67,3.75,1.37,7.61l1.68,0c-.46-2.56-.93-5.1-1.39-7.6-.3-1.73-.62-3.45-.92-5.14,4.89,0,10,0,15.08,0,.25,1.6.5,3.23.76,4.89q.57,3.73,1.17,7.64h1.68c-.41-2.6-.8-5.17-1.19-7.66-.26-1.66-.5-3.28-.75-4.88,4.58,0,9.18-.06,13.76-.12l.23,4.75.37,7.89h1.66l-.39-7.92-.23-4.73c4.25-.05,8.45-.12,12.55-.19l-.12,4.69-.2,8.14h1.64l.22-8.17.11-4.69c4.52-.09,8.91-.2,13.08-.32l-.26,4.77-.46,8.35h1.66l.46-8.38.26-4.79c4.4-.15,8.53-.31,12.31-.49,4.81-.25,9-.54,12.5-.89l-2.18,15c.56,0,1.11.06,1.67.07l2.21-15.28,1-.12a29.88,29.88,0,0,0,6.12-1.2l-.6-1.54a29.56,29.56,0,0,1-5.55,1.1l-.77.08.35-2.42Zm-109.39,7c-7.72,0-14.3-.07-19-.13h-.4c-.44-3-.84-6-1.24-8.73h0c-.37-2.66-.73-5.17-1.06-7.54l2.17.13,1,.08c4.2.26,9.73.57,16.2.92h.07l2,.1q.36,2.6.75,5.34.64,4.72,1.37,9.86C118.09,203.46,117.51,203.46,116.93,203.44Zm3.42,0c-.63-4.56-1.24-8.9-1.81-13v0c-.09-.72-.19-1.43-.29-2.13.2,0,.4,0,.62,0,4.44.24,9.23.47,14.26.67.85,4.55,1.74,9.4,2.67,14.45C130.37,203.5,125.17,203.49,120.35,203.47Zm17.13,0c-.92-5-1.81-9.84-2.65-14.36,5,.22,10.3.42,15.66.59.65,4.19,1.37,8.81,2.13,13.73C147.47,203.49,142.39,203.5,137.48,203.5Zm16.8-.06c-.75-4.89-1.45-9.48-2.12-13.65l4.3.13c2.24.06,4.49.13,6.74.17,1.46,0,2.92.08,4.38.1l.63,13.15C163.58,203.39,158.92,203.43,154.28,203.44Zm15.59-.13-.63-13.09c.54,0,1.09,0,1.64,0,1.73,0,3.47.06,5.18.07l6.79.06-.32,12.76C178.39,203.21,174.16,203.27,169.87,203.31Zm14.32-.21.32-12.72c.52,0,1.05,0,1.55,0,4.1,0,8.1-.05,11.94-.12l-.68,12.5C193.14,202.91,188.73,203,184.19,203.1Zm39.75-1.75c-3.44.35-7.7.65-12.59.9-3.78.18-7.94.34-12.37.49l.68-12.49q4.59-.1,8.82-.3l4-.2.32,0c4.9-.29,9.28-.69,13-1.23l-.85,6-.72,4.95Z"/><path class="cls-16" d="M242.25,354.45,240,355.91a110.33,110.33,0,0,1-11.53,6.16c-1.07.49-2.15,1-3.25,1.46a.42.42,0,0,0-.14.06c-1.16.49-2.31,1-3.5,1.42q-3.44,1.37-7.05,2.56l-.54.17c-3.59,1.19-7.3,2.22-11.13,3.13-1.31.32-2.64.61-4,.9s-2.68.55-4,.79-2.72.49-4.1.71h0c-1.09.17-2.19.35-3.32.49l-1.63.2c-1,.13-2,.25-3,.36l-1.48.15c-1,.1-2.06.18-3.1.27-.24,0-.48,0-.72,0-1.16.11-2.32.18-3.51.24h-.34c-1.33.07-2.67.13-4,.16-1.57,0-3.16.07-4.74.07-29.11,0-55.54-7.33-75-19.24l-1.43-.89,1.26-16,1.14-14.45L91.72,313h0l.82-10.32.22-2.77v0l0-.47.6-7.68.75-9.5,2.21-28,.07-1.64L98,217l.2-4.65L98,207.21,98,205l-.06-1.66-.23-7-.3-9.11-.06-1.66-.2-6.12-.52-15.44,0-1.24,13.24-5,.29,1.84,2.68,17.24,1.17,7.4s0,0,0,0l.35,2.24.26,1.69,0,.26,1.16,7.37v0l1.19,7.63.26,1.68.87,5.57,1.62,0,1.65,0,15.72-.29,1.66,0,14.92-.28,1.66,0,13.24-.25,1.64,0,12.2-.23,1.66,0,12.93-.24,1.66,0,8.8-.16h3.31l.46-5.12.16-1.66.53-5.95.61-6.55.1-1.14v0l0-.52.28-3v0l.71-7.7,2-21.91.08-1,9.93,1.65,0,2.33.3,17.9.09,5.11.07,4.63.13,7.38.06,3,0,2.12,0,2.53,0,1.64.86,51,.15.92,4,26.91,1.51,10.23,1.72,11.53,0,.2.16,1L237.73,324v0l.44,2.94Z"/><polygon class="cls-17" points="126.34 225.58 204.11 225.58 202.46 255.36 167.71 273.56 127.99 255.36 126.34 225.58"/><path class="cls-4" d="M137.43,140.72l-17.3,15.68,22.76,11.26-11.59,6.62,30.62,19,6.61-16.55S135.28,150.18,137.43,140.72Z"/><path class="cls-4" d="M192.51,142l15.74,15.27-20.71,11,10.54,6.45-26.24,18.6-5.38-17S194.46,151.23,192.51,142Z"/><g class="cls-18"><path class="cls-8" d="M91.59,229.71h-.08a.82.82,0,0,1-.74-.9c1.62-17.87-6.53-55.63-6.61-56a.83.83,0,0,1,1.62-.35c.34,1.56,8.28,38.39,6.63,56.51A.82.82,0,0,1,91.59,229.71Z"/></g><g class="cls-18"><path class="cls-8" d="M233.9,226.4a.82.82,0,0,1-.81-.66c-3.31-16.52,4.62-58.13,5-59.89a.84.84,0,0,1,1-.66.82.82,0,0,1,.65,1c-.08.43-8.2,43.06-5,59.26a.83.83,0,0,1-.65,1Z"/></g><path class="cls-15" d="M92.3,211.91a1.12,1.12,0,0,0-.26-.27h0a.83.83,0,0,0-.86,0,7.34,7.34,0,0,0-.77.54c-2.28,1.81-5.44,6-8.87,11.18-2-4.48-4.23-9.88-6.3-15.25,4.51-6.27,8.94-11.38,12.85-14a12.47,12.47,0,0,1,1.11-.69.77.77,0,0,0,.39-.55v0h0a.75.75,0,0,0-.09-.54.82.82,0,0,0-1.12-.31c-.19.11-.39.23-.58.36-4.07,2.52-8.63,7.62-13.26,14-1.87-5-3.6-9.77-5-13.71,5.31-6,10.71-10.76,15.93-13.16l.21-.1a.82.82,0,0,0,.4-1.1.79.79,0,0,0-.92-.46h0l-.14,0c-5,2.25-10.38,6.6-16.09,13-1.52-4.33-2.47-7.21-2.5-7.31a.78.78,0,0,0-.35-.44.79.79,0,0,0-.7-.1.83.83,0,0,0-.52,1.06,3.39,3.39,0,0,0,.11.37c.36,1.05,1.33,4,2.69,7.87a151.54,151.54,0,0,0-11.3,15c-1.71-3.48-2.79-5.78-2.83-5.86a.81.81,0,0,0-1-.44l-.1,0a.86.86,0,0,0-.48.81A1.4,1.4,0,0,0,52,202c.17.39,1.4,3,3.25,6.75q-5.37,8.15-11,18.26l-.29.52c-2.56-2.68-4.22-4.52-4.27-4.57a.85.85,0,0,0-1.17-.06.78.78,0,0,0-.19.95,1,1,0,0,0,.13.22c.24.27,2,2.22,4.65,5-2.75,5-5.29,9.84-7.55,14.35-2.71-1.49-4.79-2.7-5.77-3.27l-.35-.21c-.22.52-.43,1-.68,1.53l.3.17c1.06.62,3.09,1.81,5.75,3.26-5.52,11-9.21,19.52-10,21.36-.1.23-.16.36-.16.38a.82.82,0,0,0,.43,1.08,1,1,0,0,0,.33.06.86.86,0,0,0,.77-.51c0-.05.27-.65.72-1.69,1.41-3.18,4.75-10.62,9.38-19.88,3.48,1.87,7.72,4.05,11.95,5.93-1.66,3.35-3.06,6.25-4.13,8.5-1.34,2.81-2.16,4.63-2.35,5a.82.82,0,0,0,.4,1.09.77.77,0,0,0,.35.08.82.82,0,0,0,.75-.48c.06-.13,1.16-2.53,3-6.38,1-2,2.15-4.46,3.5-7.17a59.23,59.23,0,0,0,9.91,3.39h0a18.73,18.73,0,0,0,2.82.46c-.43.82-.85,1.6-1.23,2.31l-1.07,2a.21.21,0,0,1,0,.07c-.88,1.69-1.47,2.83-1.66,3.21a.19.19,0,0,1,0,.08.81.81,0,0,0,.36,1.11.56.56,0,0,0,.23.06.24.24,0,0,0,.14,0,.81.81,0,0,0,.74-.45s.11-.21.29-.56.37-.72.66-1.26l.48-.95c.32-.57.66-1.22,1-1.95l1-1.86,1.91-3.56,2-3.7a20.79,20.79,0,0,0,4.16,2.1,1.14,1.14,0,0,0,.26,0,.82.82,0,0,0,.26-1.6,18.51,18.51,0,0,1-3.88-2c1.63-2.94,3.4-6.13,5.24-9.33a19.55,19.55,0,0,0,4.57,4.53.76.76,0,0,0,.44.11.82.82,0,0,0,.41-1.53,19.37,19.37,0,0,1-4.54-4.64c2.34-4,4.75-8.08,7.07-11.72,1.76,3.59,3.39,6.38,4.73,7.72a.86.86,0,0,0,1.19,0,.85.85,0,0,0,0-1.17c-1.36-1.34-3-4.31-4.88-8.17,3.14-4.86,6-8.85,8.22-10.89A8.76,8.76,0,0,1,92,213.06a.68.68,0,0,0,.13-.12A.81.81,0,0,0,92.3,211.91ZM68.3,194c1.41,4,3.17,8.9,5.06,13.87-3.12,4.37-6.23,9.27-9.24,14.32-2.61-4.77-5-9.51-6.91-13.27A159.3,159.3,0,0,1,68.3,194ZM56.16,210.51c1.92,3.86,4.36,8.61,7,13.33-2.88,4.92-5.65,9.93-8.18,14.69-3.62-3.41-7.09-6.9-9.78-9.71C48.57,222.72,52.26,216.46,56.16,210.51ZM49,250.13c-4.21-1.87-8.46-4-11.95-5.93,2.19-4.34,4.65-9,7.3-13.85,2.75,2.84,6.21,6.32,9.82,9.69C52.26,243.64,50.51,247,49,250.13Zm14.4,4.4c-3.16,0-7.9-1.61-12.86-3.73,1.48-2.93,3.14-6.18,4.93-9.56a100,100,0,0,0,10.47,8.59Zm3.35-6.14a101,101,0,0,1-10.48-8.68c2.43-4.57,5.1-9.41,7.87-14.16a135.75,135.75,0,0,0,8.15,13C70.32,241.91,68.43,245.27,66.72,248.39ZM73.16,237a142.17,142.17,0,0,1-8.08-13.09c2.93-5,6-9.8,9-14.15,2.08,5.41,4.3,10.79,6.38,15.24C78.07,228.69,75.57,232.81,73.16,237Z"/><path class="cls-15" d="M298.23,255.8c-1.82-5-6-12.12-11.23-20.16a42.35,42.35,0,0,0,5.4-4.52.82.82,0,0,0,0-1.16.83.83,0,0,0-1.17,0,42.64,42.64,0,0,1-5.15,4.3c-3.3-5-7-10.24-10.84-15.53A67.79,67.79,0,0,0,281,207.67a.84.84,0,0,0-.48-1.07.82.82,0,0,0-1.06.48,64.11,64.11,0,0,1-5.27,10.19c-3.12-4.27-6.31-8.53-9.44-12.64A70.84,70.84,0,0,0,267.8,196a.83.83,0,0,0-.6-1,.82.82,0,0,0-1,.58,66.49,66.49,0,0,1-2.59,7.52c-3.08-4-6.08-7.9-8.87-11.45,1.23-3.14,2.31-6.16,3.12-8.86a.82.82,0,0,0-1.57-.48c-.72,2.4-1.66,5.06-2.73,7.84-7.88-10-13.83-17.25-14.58-18.17a1,1,0,0,0-.28-.22.83.83,0,0,0-.89.12.8.8,0,0,0-.11,1.15q0,.08.63.78c1.84,2.24,7.44,9.12,14.52,18.14-1.67,4.19-3.59,8.59-5.52,12.81-6-7.44-10.34-12.78-10.93-13.48a.82.82,0,1,0-1.27,1c.14.17.29.36.45.54,3.23,4,7,8.59,11,13.56-2.38,5.15-4.73,9.93-6.57,13.56-3.21-3.17-5.45-5.31-5.8-5.64a.6.6,0,0,0-.23-.16.83.83,0,0,0-.91,1.36l.91.86c1,1,2.9,2.82,5.25,5.16-1.63,3.2-2.68,5.21-2.72,5.28a.83.83,0,0,0,.34,1.12.9.9,0,0,0,.39.1.79.79,0,0,0,.72-.44c0-.07,1-1.89,2.5-4.84,2.31,2.3,5,5,7.75,7.91-2.15,3.16-3.61,5.11-3.65,5.17a.89.89,0,0,0-.06.94,1.19,1.19,0,0,0,.22.23l.07,0a.92.92,0,0,0,.42.12.81.81,0,0,0,.66-.34s1.45-1.92,3.51-4.95c2.71,2.85,5.47,5.82,8.08,8.76-1.82,2.27-3,3.68-3,3.74a.83.83,0,0,0,.12,1.17.76.76,0,0,0,.52.19.8.8,0,0,0,.63-.3c.19-.22,1.26-1.5,2.87-3.53,1.26,1.45,2.47,2.86,3.6,4.25a2.64,2.64,0,0,0-.38.13.82.82,0,0,0-.52,1,.84.84,0,0,0,.78.56.92.92,0,0,0,.28,0c.08,0,.43-.16.95-.35,1,1.23,1.89,2.41,2.7,3.54v0c.92,1.27,1.72,2.42,2.36,3.51a22.69,22.69,0,0,1,1.22,2.26c.05.12.1.23.16.35a11.55,11.55,0,0,1,.41,1.21.8.8,0,0,0,.8.62.64.64,0,0,0,.2,0,.82.82,0,0,0,.59-.58.79.79,0,0,0,0-.43c0-.1,0-.19-.08-.29h0a13,13,0,0,0-.88-2.14,29.77,29.77,0,0,0-1.56-2.68c-.31-.49-.64-1-1-1.5-.62-.93-1.33-1.89-2.09-2.9-.39-.51-.78-1-1.2-1.55,2.28-.85,5.86-2.28,9.83-4.18,2.05,2.8,3.92,5.41,5.51,7.72s3,4.44,4,6.12a23.7,23.7,0,0,1,1.2,2.22,8.44,8.44,0,0,1,.65,1.67.82.82,0,0,0,.81.67l.15,0a.81.81,0,0,0,.65-1,2.39,2.39,0,0,0-.14-.52,15.76,15.76,0,0,0-.95-2.15c-.88-1.66-2.21-3.81-3.9-6.32-1.8-2.68-4-5.79-6.45-9.15a84.94,84.94,0,0,0,9.44-5.45c4.86,7.37,8.72,13.92,10.63,18.64a14.61,14.61,0,0,1,1.32,5.11.83.83,0,1,0,1.66,0A13.84,13.84,0,0,0,298.23,255.8ZM264,206.39c3.07,4.05,6.2,8.24,9.25,12.41-2.14,3.39-4.54,6.85-6.89,10.12-2.77-3.61-5.6-7.23-8.37-10.76C260.1,214.44,262.2,210.43,264,206.39Zm-10-12.93c2.79,3.56,5.78,7.41,8.84,11.43a130.39,130.39,0,0,1-6,11.87c-2.94-3.75-5.8-7.33-8.39-10.56C250.4,202,252.32,197.66,254,193.46Zm-4.86,35.8c-2.86-3-5.59-5.73-7.92-8,1.77-3.54,4.09-8.23,6.48-13.35,2.71,3.38,5.49,6.9,8.28,10.43C253.56,222.51,251.14,226.29,249.15,229.26Zm9.32,10.08c-2.64-3-5.44-6-8.15-8.85,2-2.92,4.34-6.64,6.77-10.8,2.8,3.57,5.58,7.13,8.25,10.61C262.8,233.75,260.39,236.9,258.47,239.34Zm5.31,6.25c-1.31-1.62-2.72-3.29-4.2-5,1.89-2.39,4.29-5.5,6.82-8.93,2.58,3.36,5.05,6.64,7.3,9.68C269.58,243.33,265.93,244.78,263.78,245.59Zm11.42-4.94c-2.43-3.29-5.07-6.8-7.79-10.35,2.33-3.22,4.71-6.65,6.88-10.06,3.71,5.11,7.26,10.18,10.45,14.94A86.1,86.1,0,0,1,275.2,240.65Z"/><path class="cls-19" d="M272.79,306.59c0,18.62-11.63,35.49-30.54,47.86L240,355.91a110.33,110.33,0,0,1-11.53,6.16c-1.07.49-2.15,1-3.25,1.46a.42.42,0,0,0-.14.06c-1.16.49-2.31,1-3.5,1.42q-3.44,1.37-7.05,2.56l-.54.17c-3.59,1.19-7.3,2.22-11.13,3.13-1.31.32-2.64.61-4,.9s-2.68.55-4,.79-2.72.49-4.1.71h0c-1.09.17-2.19.35-3.32.49l-1.63.2c-1,.13-2,.25-3,.36l-1.48.15c-1,.1-2.06.18-3.1.27-.24,0-.48,0-.72,0-1.16.11-2.32.18-3.51.24h-.34c-1.33.07-2.67.13-4,.16-1.57,0-3.16.07-4.74.07-29.11,0-55.54-7.33-75-19.24l-1.43-.89c-19.49-12.44-31.57-29.59-31.57-48.54,0-1,0-2.08.11-3.1,0-.43.07-.85.12-1.27s.1-1,.17-1.44a1.72,1.72,0,0,1,0-.39h0c.11-.84.26-1.66.42-2.47s.42-1.89.66-2.83c.29-1.11.64-2.22,1-3.32H270.23c.31.88.58,1.76.83,2.65a42.63,42.63,0,0,1,1.6,9C272.75,304.5,272.79,305.54,272.79,306.59Z"/><path class="cls-20" d="M228.44,362.07c-1.07.49-2.15,1-3.25,1.46a.42.42,0,0,0-.14.06c-1.16.49-2.31,1-3.5,1.42q-3.44,1.37-7.05,2.56l-.54.17c-3.59,1.17-7.31,2.21-11.13,3.13-1.31.32-2.64.61-4,.9s-2.68.55-4,.79-2.72.49-4.1.71h0c-1.09.17-2.19.35-3.32.49l-1.63.2c-1,.13-2,.25-3,.36l-1.48.15c-1,.1-2.06.18-3.1.27-.24,0-.48,0-.72,0-1.16.11-2.32.18-3.51.24h-.34c-1.33.07-2.67.13-4,.16-1.57,0-3.16.07-4.74.07-29.11,0-55.54-7.33-75-19.24l-1.43-.89c-19.49-12.44-31.57-29.59-31.57-48.54,0-1,0-2.08.11-3.1,0-.43.07-.85.12-1.27s.1-1,.17-1.44a2.63,2.63,0,0,1,.06-.39c.11-.84.26-1.66.42-2.47s.42-1.89.66-2.83c1.52,3.22,3.1,6.41,4.78,9.54,6.9,12.89,15.33,24.87,26.51,34.51l.3.27c.67.58,1.35,1.13,2,1.69,18.58,15,41.77,22.56,65.3,25.7A182.77,182.77,0,0,0,228.44,362.07Z"/><circle class="cls-21" cx="106.48" cy="187.52" r="12.41" transform="translate(-97.97 118.94) rotate(-41.87)"/><path class="cls-12" d="M105.83,179.4a8.15,8.15,0,1,1-7.47,8.77A8.15,8.15,0,0,1,105.83,179.4Z"/><circle class="cls-21" cx="220.66" cy="187.52" r="12.41" transform="translate(0.32 375.41) rotate(-80.81)"/><path class="cls-12" d="M220,179.4a8.15,8.15,0,1,1-7.47,8.77A8.14,8.14,0,0,1,220,179.4Z"/><g class="cls-22"><path class="cls-8" d="M129,229.93l1.74,24.19,36.73,16.69.29.15,32-18.53,1.73-22.5Zm69.57,21.75-30.87,17.88L131.9,253.29l-1.59-22.12h69.83Z"/></g><g class="cls-23"><g class="cls-24"><path class="cls-8" d="M24.19,330.13h0a.82.82,0,0,1-.06-1.17L159,178.74a.83.83,0,0,1,1.17-.07h0a.83.83,0,0,1,.06,1.17L25.36,330.07A.83.83,0,0,1,24.19,330.13Z"/><path class="cls-8" d="M36.5,341.19h0a.83.83,0,0,1-.06-1.17L171.3,189.79a.81.81,0,0,1,1.16-.06h0a.82.82,0,0,1,.07,1.16L37.67,341.12A.83.83,0,0,1,36.5,341.19Z"/><path class="cls-8" d="M48.82,352.24h0a.83.83,0,0,1-.07-1.17L183.61,200.84a.83.83,0,0,1,1.17-.06h0a.82.82,0,0,1,.06,1.17L50,352.18A.83.83,0,0,1,48.82,352.24Z"/><path class="cls-8" d="M61.13,363.29h0a.81.81,0,0,1-.06-1.16L195.92,211.9a.83.83,0,0,1,1.17-.07h0a.83.83,0,0,1,.07,1.17L62.3,363.23A.82.82,0,0,1,61.13,363.29Z"/><path class="cls-8" d="M73.44,374.35h0a.84.84,0,0,1-.06-1.17L208.24,223a.82.82,0,0,1,1.17-.06h0a.84.84,0,0,1,.06,1.17L74.61,374.28A.83.83,0,0,1,73.44,374.35Z"/><path class="cls-8" d="M85.76,385.4h0a.82.82,0,0,1-.06-1.17L220.55,234a.84.84,0,0,1,1.17-.06h0a.82.82,0,0,1,.06,1.17L86.93,385.34A.83.83,0,0,1,85.76,385.4Z"/><path class="cls-8" d="M98.07,396.46h0a.83.83,0,0,1-.06-1.17L232.87,245.06A.82.82,0,0,1,234,245h0a.83.83,0,0,1,.07,1.17L99.24,396.39A.83.83,0,0,1,98.07,396.46Z"/><path class="cls-8" d="M110.39,407.51h0a.83.83,0,0,1-.07-1.17L245.18,256.11a.82.82,0,0,1,1.17-.06h0a.83.83,0,0,1,.06,1.17L111.55,407.45A.83.83,0,0,1,110.39,407.51Z"/><path class="cls-8" d="M122.7,418.56h0a.82.82,0,0,1-.06-1.17L257.49,267.17a.83.83,0,0,1,1.17-.07h0a.83.83,0,0,1,.06,1.17L123.87,418.5A.83.83,0,0,1,122.7,418.56Z"/><path class="cls-8" d="M135,429.62h0a.84.84,0,0,1-.06-1.17L269.81,278.22a.82.82,0,0,1,1.17-.06h0a.83.83,0,0,1,.06,1.16L136.18,429.55A.83.83,0,0,1,135,429.62Z"/><path class="cls-8" d="M147.33,440.67h0a.83.83,0,0,1-.07-1.17L282.12,289.27a.83.83,0,0,1,1.17-.06h0a.82.82,0,0,1,.06,1.17L148.5,440.61A.83.83,0,0,1,147.33,440.67Z"/><path class="cls-8" d="M159.64,451.72h0a.81.81,0,0,1-.06-1.16L294.43,300.33a.83.83,0,0,1,1.17-.07h0a.83.83,0,0,1,.07,1.17L160.81,451.66A.82.82,0,0,1,159.64,451.72Z"/><path class="cls-8" d="M172,462.78h0a.83.83,0,0,1-.07-1.17L306.75,311.38a.82.82,0,0,1,1.17-.06h0a.83.83,0,0,1,.06,1.17L173.12,462.71A.82.82,0,0,1,172,462.78Z"/><path class="cls-8" d="M307.92,330.13h0A.83.83,0,0,0,308,329L173.12,178.74a.82.82,0,0,0-1.16-.07h0a.83.83,0,0,0-.07,1.17L306.75,330.07A.82.82,0,0,0,307.92,330.13Z"/><path class="cls-8" d="M295.6,341.19h0a.83.83,0,0,0,.07-1.17L160.81,189.79a.82.82,0,0,0-1.17-.06h0a.81.81,0,0,0-.06,1.16L294.43,341.12A.83.83,0,0,0,295.6,341.19Z"/><path class="cls-8" d="M283.29,352.24h0a.82.82,0,0,0,.06-1.17L148.5,200.84a.83.83,0,0,0-1.17-.06h0a.83.83,0,0,0-.07,1.17L282.12,352.18A.83.83,0,0,0,283.29,352.24Z"/><path class="cls-8" d="M271,363.29h0a.83.83,0,0,0,.06-1.16L136.18,211.9a.83.83,0,0,0-1.17-.07h0A.84.84,0,0,0,135,213L269.81,363.23A.82.82,0,0,0,271,363.29Z"/><path class="cls-8" d="M258.66,374.35h0a.83.83,0,0,0,.06-1.17L123.87,223a.83.83,0,0,0-1.17-.06h0a.82.82,0,0,0-.06,1.17L257.49,374.28A.83.83,0,0,0,258.66,374.35Z"/><path class="cls-8" d="M246.35,385.4h0a.83.83,0,0,0,.06-1.17L111.55,234a.83.83,0,0,0-1.16-.06h0a.83.83,0,0,0-.07,1.17L245.18,385.34A.82.82,0,0,0,246.35,385.4Z"/><path class="cls-8" d="M234,396.46h0a.83.83,0,0,0,.07-1.17L99.24,245.06a.83.83,0,0,0-1.17-.07h0a.83.83,0,0,0-.06,1.17L232.87,396.39A.82.82,0,0,0,234,396.46Z"/><path class="cls-8" d="M221.72,407.51h0a.83.83,0,0,0,.06-1.17L86.93,256.11a.83.83,0,0,0-1.17-.06h0a.82.82,0,0,0-.06,1.17L220.55,407.45A.84.84,0,0,0,221.72,407.51Z"/><path class="cls-8" d="M209.41,418.56h0a.84.84,0,0,0,.06-1.17L74.61,267.17a.83.83,0,0,0-1.17-.07h0a.84.84,0,0,0-.06,1.17L208.24,418.5A.82.82,0,0,0,209.41,418.56Z"/><path class="cls-8" d="M197.09,429.62h0a.83.83,0,0,0,.07-1.17L62.3,278.22a.82.82,0,0,0-1.17-.06h0a.81.81,0,0,0-.06,1.16L195.92,429.55A.83.83,0,0,0,197.09,429.62Z"/><path class="cls-8" d="M184.78,440.67h0a.82.82,0,0,0,.06-1.17L50,289.27a.83.83,0,0,0-1.17-.06h0a.83.83,0,0,0-.07,1.17L183.61,440.61A.83.83,0,0,0,184.78,440.67Z"/><path class="cls-8" d="M172.46,451.72h0a.82.82,0,0,0,.07-1.16L37.67,300.33a.83.83,0,0,0-1.17-.07h0a.83.83,0,0,0-.06,1.17L171.3,451.66A.81.81,0,0,0,172.46,451.72Z"/><path class="cls-8" d="M160.15,462.78h0a.83.83,0,0,0,.06-1.17L25.36,311.38a.83.83,0,0,0-1.17-.06h0a.82.82,0,0,0-.06,1.17L159,462.71A.83.83,0,0,0,160.15,462.78Z"/></g></g><ellipse class="cls-8" cx="166.05" cy="292.59" rx="105.9" ry="14.07"/><path class="cls-6" d="M210.05,314.54c13.41-12.91,20.09-8,20.09-8l6.3-2.69c2,7,3.42,14.14,4.89,21.25l-1.6.4-18.22,16.67c-6.28-.39-20.25-16.48-20.25-16.48Z"/><path class="cls-6" d="M230.14,306.55s-7.52-4-15.73-1.32-17.89,3.91-15.79,8.94c0,0,.51,1.05,6.17-.24s6.14,1.6,5.69,3.87S230.14,306.55,230.14,306.55Z"/><path class="cls-6" d="M201.26,325.7S181.35,339,184.32,342.05a2.71,2.71,0,0,0,3.06.36c1.75-.89,20.49-14.78,20.49-14.78S206.13,322.62,201.26,325.7Z"/><path class="cls-6" d="M212,335.88s-17.36,16.52-13.91,19a2.69,2.69,0,0,0,3.07-.16c1.57-1.19,17.68-18.06,17.68-18.06S216.26,332,212,335.88Z"/><path class="cls-6" d="M217,340.06s-12.15,12.26-9,14.24a2.38,2.38,0,0,0,2.5-.06c1.14-.87,12.23-13.42,12.23-13.42S220.06,337.2,217,340.06Z"/><path class="cls-6" d="M205.94,331.48s-20.62,17.27-17.38,20a2.75,2.75,0,0,0,3.24-.1c1.82-1.22,21.19-18.89,21.19-18.89S211,327.45,205.94,331.48Z"/><path class="cls-6" d="M274.25,260.32C254.74,278,231.07,308,231.07,308l7.76,18.64,30.27-19.9c12-10.74,19.61-20,24.26-27.67A119.73,119.73,0,0,1,274.25,260.32Z"/><path class="cls-4" d="M312.27,260.31s-39.76-13.16-46.15-12.76l-.37,7.64s-2.77-2.73-6.12,1.19,41.88,29.35,41.88,29.35,7.74-1.5,5.59-6.92S316.94,266.07,312.27,260.31Z"/><g class="cls-25"><path class="cls-8" d="M298.47,271.12a.8.8,0,0,1-.45-.26c-3.08-3.59-24-12.27-31.83-15.32a.82.82,0,0,1-.47-1.07.83.83,0,0,1,1.07-.47c1.16.46,28.51,11.15,32.49,15.78a.82.82,0,0,1-.09,1.16A.8.8,0,0,1,298.47,271.12Z"/></g><g class="cls-25"><path class="cls-8" d="M298.28,264.3a.75.75,0,0,1-.25-.09c-5-3-29.24-11.45-29.49-11.53a.83.83,0,0,1,.55-1.57c1,.35,24.65,8.61,29.79,11.68a.82.82,0,0,1-.6,1.51Z"/></g><g class="cls-26"><path class="cls-27" d="M246.26,287.05s-50.86,26.2-64.21,44.27a9.39,9.39,0,0,0,6.28,6.61s40.17-35.81,63.1-44.44C251.43,293.49,251.41,284.56,246.26,287.05Z"/><path class="cls-21" d="M235.35,289.51a41.3,41.3,0,0,1,7-34.91,4.73,4.73,0,0,1,2.65-2.07c2.35-.45,3.92,2.37,4.4,4.71a30.62,30.62,0,0,1-.36,13.83,81.66,81.66,0,0,1,13.4-21.55c1.7-2,4.24-4,6.63-3,2.1.91,2.61,3.7,2.23,5.95s-1.37,4.47-1.12,6.74a70.36,70.36,0,0,1,12.56-13.8c2.39-2,6.15-3.79,8.31-1.54,3,3.14-2,7.84-2.08,12.2a58.71,58.71,0,0,1,16.22-7.82c2.9-.88,6-1.53,8.92-.64s5.36,3.79,4.77,6.76c-.36,1.83-1.74,3.27-3.13,4.51a49.44,49.44,0,0,1-15.53,9.46c2.95,1.19,6,2.46,8.14,4.84s3,6.21,1.05,8.75c-2.35,3.11-7.07,2.64-10.9,1.86L286,281.23c2.62,1.55,5.33,3.19,7,5.76s1.85,6.33-.38,8.4c-1.88,1.75-4.76,1.76-7.3,1.45a44,44,0,0,1-16.09-5.27c1,2.43,3.44,3.81,5.48,5.44s3.86,4.3,2.82,6.7c-.8,1.87-3,2.67-5,3.11a36.51,36.51,0,0,1-34.25-10.89Z"/><g class="cls-28"><path class="cls-21" d="M238.35,293.09c-1.16-8.2,2-17.89,8.21-25.52a4.84,4.84,0,0,1,2.1-1.71c1.74-.53,2.61,1.33,2.75,3a22.79,22.79,0,0,1-1.5,9.89,81.73,81.73,0,0,1,11.6-16.56c1.41-1.56,3.43-3.26,5.06-2.74,1.44.46,1.56,2.4,1.08,4s-1.39,3.31-1.42,4.91a72.77,72.77,0,0,1,10.31-11c1.91-1.64,4.79-3.26,6.14-1.85,1.9,2-2.18,5.78-2.6,8.89a57,57,0,0,1,12.41-7c2.17-.89,4.49-1.64,6.5-1.27a3.43,3.43,0,0,1,2.84,4.4,8.9,8.9,0,0,1-2.67,3.5,50.28,50.28,0,0,1-12.06,8.14c2,.58,4.12,1.2,5.44,2.71a4.83,4.83,0,0,1,0,6.15c-2,2.42-5.34,2.51-8,2.3l-8.84-.7c1.76.87,3.57,1.8,4.53,3.48a5.07,5.07,0,0,1-1,6,7.69,7.69,0,0,1-5.41,1.69,26.39,26.39,0,0,1-11.14-2.31c.48,1.64,2.15,2.41,3.47,3.39s2.4,2.72,1.44,4.52c-.75,1.4-2.4,2.17-3.87,2.67-9.09,3-18.49,1.18-23.75-4.69Z"/></g><path class="cls-29" d="M316.77,250.91a.66.66,0,0,0-.86-.34c-1.5.66-20.55,9-39.55,18.83l4.77-9.87A.65.65,0,0,0,280,259l-5.52,11.43c-5.28,2.76-10.5,5.61-15.3,8.42l-.44-.23,2-8.67a.65.65,0,0,0-.49-.78.64.64,0,0,0-.77.49l-2.19,9.64.62.33c-10.13,6-18.11,11.81-20.22,16a.67.67,0,0,0,.11.74.59.59,0,0,0,.18.13.66.66,0,0,0,.88-.29c2-4.09,10.14-9.86,20.4-15.89l9.37,5a.65.65,0,0,0,.61-1.15l-8.66-4.6c4.1-2.38,8.5-4.79,13-7.14l0,.09,15,1.41a.65.65,0,1,0,.12-1.3l-13.11-1.23c20-10.39,40.63-19.45,41-19.62A.65.65,0,0,0,316.77,250.91Z"/><path class="cls-27" d="M232,272.21s-43,37.77-51.53,58.55a9.41,9.41,0,0,0,7.7,4.88s30.26-44.5,50.41-58.44C238.62,277.2,236.43,268.54,232,272.21Z"/><path class="cls-21" d="M222.05,277.24a41.29,41.29,0,0,1-1.67-35.57,4.73,4.73,0,0,1,2.07-2.65c2.17-1,4.37,1.35,5.41,3.5a30.75,30.75,0,0,1,3,13.5,81.52,81.52,0,0,1,7.76-24.15c1.17-2.33,3.13-5,5.7-4.53,2.26.37,3.44,2.95,3.61,5.24s-.25,4.66.55,6.8A70.21,70.21,0,0,1,257.33,223c1.83-2.53,5-5.18,7.68-3.53,3.69,2.32-.07,8.11.95,12.35a58.68,58.68,0,0,1,13.83-11.53c2.6-1.55,5.47-3,8.5-2.79s6.12,2.38,6.27,5.4c.09,1.86-.9,3.6-1.94,5.14a49.45,49.45,0,0,1-12.77,12.95c3.16.44,6.44.92,9.08,2.71s4.39,5.31,3.14,8.24c-1.53,3.59-6.22,4.28-10.12,4.45l-12.8.57c2.92.87,6,1.8,8.17,3.88s3.34,5.69,1.68,8.25c-1.4,2.15-4.19,2.86-6.74,3.18a43.9,43.9,0,0,1-16.88-1.2c1.52,2.12,4.26,2.86,6.63,4s4.79,3.23,4.37,5.81c-.32,2-2.24,3.32-4.06,4.22a36.52,36.52,0,0,1-35.87-2.24Z"/><g class="cls-28"><path class="cls-21" d="M225.83,280c-3.12-7.67-2.45-17.83,1.76-26.75a5,5,0,0,1,1.62-2.18c1.56-.93,2.86.67,3.39,2.21a22.76,22.76,0,0,1,1,10,81.57,81.57,0,0,1,7.23-18.89c1-1.85,2.53-4,4.25-3.88,1.5.09,2.09,1.95,2,3.66s-.55,3.54-.18,5.1a72.12,72.12,0,0,1,7.34-13.14c1.44-2.06,3.84-4.33,5.5-3.29,2.32,1.45-.71,6.13-.36,9.25a57.8,57.8,0,0,1,10.33-9.84c1.89-1.38,3.95-2.67,6-2.8a3.42,3.42,0,0,1,3.82,3.57,8.81,8.81,0,0,1-1.73,4.05A50.11,50.11,0,0,1,268,247.84c2.11.08,4.3.17,5.94,1.31a4.82,4.82,0,0,1,1.47,6c-1.33,2.84-4.57,3.74-7.23,4.19l-8.74,1.47c1.91.42,3.89.88,5.23,2.27a5.09,5.09,0,0,1,.47,6.1,7.8,7.8,0,0,1-4.84,3,26.62,26.62,0,0,1-11.36.47c.86,1.47,2.66,1.81,4.18,2.44s3,2.05,2.5,4c-.39,1.55-1.8,2.69-3.11,3.53-8.08,5.15-17.65,5.64-24.17,1.23Z"/></g><path class="cls-29" d="M291.65,220a.65.65,0,0,0-.91-.12c-1.3,1-17.75,13.75-33.79,27.88L259.17,237a.65.65,0,0,0-1.27-.27l-2.58,12.44c-4.45,4-8.83,8-12.8,11.89L242,261l-.2-8.89a.66.66,0,0,0-.67-.64.65.65,0,0,0-.63.67l.22,9.88.68.17c-8.36,8.3-14.7,15.85-15.72,20.46a.66.66,0,0,0,.29.69.67.67,0,0,0,.21.09.64.64,0,0,0,.77-.5c1-4.47,7.45-12,15.93-20.37l10.31,2.56a.65.65,0,0,0,.31-1.27L244,261.47c3.39-3.3,7.08-6.71,10.84-10.07l0,.1,14.89-2.29a.65.65,0,0,0-.2-1.28l-13,2c16.85-14.93,34.68-28.74,35-29A.64.64,0,0,0,291.65,220Z"/><path class="cls-5" d="M172.2,313.76s-12.66-47.11-.39-53.35,12.37,8.11,12.37,8.11.94-11.29,7.11-10.31,6.22,9.19,6.22,9.19,6.08-10.31,12.28-5.22.32,44.12-7.84,51.36c0,0-5.1,4.14-9.25-3,0,0-5,11.32-8.21.06C184.49,310.59,178.4,319.87,172.2,313.76Z"/><path class="cls-30" d="M198.25,298.62a19.4,19.4,0,0,1-2,0c-18-.62-26.3-23.11-22.23-39.2a17.73,17.73,0,0,0-2.19,1c-12.27,6.24.39,53.35.39,53.35,6.2,6.11,12.29-3.17,12.29-3.17,3.16,11.26,8.21-.06,8.21-.06,4.15,7.15,9.25,3,9.25,3,2.85-2.53,5.41-8.92,7.29-16.39A16.22,16.22,0,0,1,198.25,298.62Z"/><path class="cls-21" d="M188.29,269.52s1.88-23.61,10.07-26.75c0,0,3.07,0,2.08,4.09s-10.16,13.41-12.13,24.71"/><path class="cls-31" d="M209.34,271.42c0,4.81-3.38,8.74-7.63,8.78s-7.72-3.85-7.76-8.67,3.38-8.75,7.63-8.78S209.3,266.6,209.34,271.42Z"/><path class="cls-12" d="M140.48,315s-19.64-39.76-9.81-47.5,12.47,5,12.47,5-1.16-10.24,4.51-10.46,7.18,7.09,7.18,7.09,3.59-10.27,10-6.83S173,301.65,167,309.56c0,0-3.82,4.6-8.79-1,0,0-2.49,11-7.31,1.51C150.88,310,147.1,319.38,140.48,315Z"/><path class="cls-32" d="M161,296.91a18,18,0,0,1-1.8.4c-16.2,2.64-27.55-15.94-26.78-31a16.15,16.15,0,0,0-1.78,1.24c-9.83,7.74,9.81,47.5,9.81,47.5,6.62,4.35,10.4-5,10.4-5,4.82,9.48,7.31-1.51,7.31-1.51,5,5.64,8.79,1,8.79,1,2.08-2.76,3.24-8.92,3.58-15.91A14.68,14.68,0,0,1,161,296.91Z"/><path class="cls-21" d="M147,272.73s-2.51-21.39,4.23-25.64c0,0,2.74-.57,2.58,3.27s-6.68,13.77-6.43,24.2"/><path class="cls-31" d="M166.09,270.69c.88,4.28-1.46,8.4-5.25,9.18s-7.57-2.06-8.46-6.35,1.47-8.4,5.25-9.18S165.2,266.4,166.09,270.69Z"/><path class="cls-21" d="M82.67,273.56s-16.82-2.15-14.49-4.75,8.86-1,8.86-1-26.55-5.44-20.74-7.74,12.34-.7,12.34-.7S43,251.9,47.33,250.17s16.54,3.53,16.54,3.53-16.93-19.35-12.43-18.61,15.2,15,15.2,15-3.3-14.67.32-11.9,5.76,14.53,5.76,14.53,2.36-11,5.1-6.23,1.71,12.78,1.71,12.78,4.82-11.16,7.12-5.35-1.33,11.46-1.33,11.46,6-8.26,7.7-3.9S82.67,273.56,82.67,273.56Z"/><g class="cls-33"><path class="cls-5" d="M83.7,271.9s-10,6.5-4.24,12.61,36.16,44.51,44,43.08-19.74-51.87-25.09-59S83.7,271.9,83.7,271.9Z"/><path class="cls-30" d="M123.51,327.57c-1.24-1.63-2.51-3.25-3.7-4.86q-6.32-8.64-12.52-17.36Q95.41,288.63,84,271.63l-.25.27s-10,6.5-4.24,12.61,36.16,44.51,44,43.08Z"/><g class="cls-34"><path class="cls-8" d="M125.47,310.39c-4.86,11.26-18.66,16-19.24,16.22l-.36-1c.14-.05,13.92-4.81,18.58-15.61Z"/></g><g class="cls-34"><path class="cls-8" d="M118.83,297.9c-4.86,11.25-18.66,16-19.24,16.21l-.36-1c.14-.05,13.92-4.81,18.58-15.61Z"/></g><g class="cls-34"><path class="cls-8" d="M112.65,282.59c-5.46,12.64-21.58,17.72-22.26,17.93l-.33-1.06c.17,0,16.32-5.14,21.57-17.31Z"/></g><g class="cls-34"><path class="cls-8" d="M105.13,272.12c-5.46,12.64-21.58,17.72-22.26,17.93L82.54,289c.17-.05,16.32-5.15,21.58-17.32Z"/></g></g><path class="cls-21" d="M107.8,267.19s-15.58-6.69-12.62-8.56,8.78,1.49,8.78,1.49-24-12.54-17.79-13.16,12,2.73,12,2.73S75.6,235.44,80.27,235s14.92,8,14.92,8-11-23.27-6.83-21.32,10.49,18.6,10.49,18.6.87-15,3.58-11.35S104,244.41,104,244.41s5.29-9.95,6.61-4.58-1.88,12.75-1.88,12.75,7.71-9.4,8.33-3.18-4.44,10.65-4.44,10.65,8-6.29,8.47-1.63S107.8,267.19,107.8,267.19Z"/><g class="cls-35"><path class="cls-5" d="M109.25,265.88s-11.44,3.49-7.55,11,22.5,52.74,30.44,53.52-4.7-55.29-7.88-63.61S109.25,265.88,109.25,265.88Z"/><path class="cls-30" d="M132.18,330.36c-.74-1.91-1.52-3.81-2.21-5.69q-3.69-10.05-7.26-20.14-6.81-19.33-13.15-38.84l-.31.19s-11.44,3.49-7.55,11,22.5,52.74,30.44,53.52Z"/><g class="cls-34"><path class="cls-8" d="M138.8,314.39c-7.77,9.48-22.35,10.26-23,10.29l-.06-1.1c.15,0,14.71-.79,22.16-9.89Z"/></g><g class="cls-34"><path class="cls-8" d="M135.85,300.54c-7.77,9.49-22.34,10.27-23,10.3l0-1.11c.15,0,14.7-.79,22.16-9.89Z"/></g><g class="cls-34"><path class="cls-8" d="M134.13,284.13c-8.73,10.65-25.62,11.09-26.34,11.11l0-1.11c.17,0,17.1-.45,25.51-10.7Z"/></g><g class="cls-34"><path class="cls-8" d="M129.79,272c-8.73,10.66-25.63,11.1-26.34,11.11l0-1.1c.17,0,17.1-.45,25.5-10.71Z"/></g></g></g><path class="cls-6" d="M116.12,310c-13.1-13.23-19.9-8.47-19.9-8.47L90,298.67c-2.16,6.93-3.76,14.06-5.4,21.12l1.59.45L104,337.34c6.29-.25,20.64-16,20.64-16Z"/><path class="cls-6" d="M96.22,301.51s7.61-3.81,15.76-.94,17.79,4.34,15.57,9.32c0,0-.54,1-6.16-.4s-6.18,1.46-5.78,3.74S96.22,301.51,96.22,301.51Z"/><path class="cls-6" d="M124.63,321.35s19.59,13.8,16.54,16.75a2.7,2.7,0,0,1-3.06.28c-1.72-.93-20.13-15.26-20.13-15.26S119.84,318.15,124.63,321.35Z"/><path class="cls-6" d="M113.66,331.26s17,16.93,13.46,19.32a2.7,2.7,0,0,1-3.07-.24c-1.54-1.21-17.25-18.46-17.25-18.46S109.49,327.3,113.66,331.26Z"/><path class="cls-6" d="M108.51,335.33s11.86,12.54,8.68,14.44a2.38,2.38,0,0,1-2.5-.11c-1.11-.9-11.9-13.71-11.9-13.71S105.57,332.39,108.51,335.33Z"/><path class="cls-6" d="M119.81,327s20.21,17.75,16.9,20.41a2.76,2.76,0,0,1-3.24-.18c-1.78-1.27-20.73-19.4-20.73-19.4S114.87,322.86,119.81,327Z"/><path class="cls-6" d="M56.91,260.07A239.78,239.78,0,0,0,33.7,271.61c4.39,7.94,11.71,17.53,23.68,28.86l30.91,22.19,7.07-19.81S76.61,277.57,59,259.28Z"/><path class="cls-4" d="M22.22,267.12s39.7-13.33,46.1-13l.39,7.64s2.76-2.74,6.13,1.16-41.75,29.53-41.75,29.53-7.75-1.46-5.62-6.89S17.57,272.9,22.22,267.12Z"/><g class="cls-25"><path class="cls-8" d="M36.74,275.69a.84.84,0,0,1-.81-.46.82.82,0,0,1,.37-1.11C37.39,273.58,63,260.88,68,260.45a.83.83,0,0,1,.14,1.65c-3.93.34-23.82,9.86-31.15,13.5A.75.75,0,0,1,36.74,275.69Z"/></g><g class="cls-25"><path class="cls-8" d="M45.38,267.37a.85.85,0,0,1-.79-.4.84.84,0,0,1,.29-1.14c.66-.39,16.31-9.7,22.51-7.69a.84.84,0,0,1,.53,1.05.83.83,0,0,1-1,.53c-4.56-1.48-16.81,4.94-21.15,7.53A.77.77,0,0,1,45.38,267.37Z"/></g></g></g></svg>