<svg id="Layer_1" data-name="Layer 1" xmlns="http://www.w3.org/2000/svg" viewBox="0 0 35 32.24"><defs><style>.cls-1{fill-rule:evenodd;}</style></defs><path class="cls-1" d="M27.31,27.59A6.35,6.35,0,0,1,23.16,26a10.18,10.18,0,0,0,2.72-14.43,8.64,8.64,0,0,0-.17-1.53,3.2,3.2,0,0,1,4.79,2.76V13a.68.68,0,0,0,.21.52,4.86,4.86,0,0,1,1.55,3.58v.05a.7.7,0,0,0,.13.42,6.19,6.19,0,0,1,1.25,3.75,6.32,6.32,0,0,1-6.33,6.3Zm-9.14-3.71L22,21.12a.68.68,0,0,0,.16-.95.68.68,0,0,0-1-.15l-3.07,2.19V16.5l2.54-1.82a.68.68,0,0,0-.8-1.1l-1.74,1.25V11.3a.68.68,0,1,0-1.36,0v7.5l-3-2.16a.68.68,0,0,0-.95.15.68.68,0,0,0,.16.95l3.81,2.73v5.88a8.71,8.71,0,0,1-3.52-1l0,0A8.85,8.85,0,0,1,8.6,17.52a8.75,8.75,0,0,1,1.75-5.29.68.68,0,0,0,.14-.41v-.08A7.06,7.06,0,0,1,10.71,10a.5.5,0,0,0,0-.12,7,7,0,0,1,1.94-3.18.67.67,0,0,0,.21-.52c0-.06,0-.13,0-.19a4.62,4.62,0,0,1,9.24,0c0,.06,0,.12,0,.19a.67.67,0,0,0,.21.52,6.92,6.92,0,0,1,2.2,5.08v.08a.68.68,0,0,0,.14.41,8.75,8.75,0,0,1,1.75,5.29,8.89,8.89,0,0,1-8.22,8.83ZM7.69,27.59a6.32,6.32,0,0,1-6.33-6.3,6.19,6.19,0,0,1,1.25-3.75.69.69,0,0,0,.13-.41v-.06a4.86,4.86,0,0,1,1.55-3.58A.67.67,0,0,0,4.5,13v-.13A3.18,3.18,0,0,1,7.69,9.66a3.15,3.15,0,0,1,1.59.42,8.64,8.64,0,0,0-.17,1.53A10.17,10.17,0,0,0,11.84,26a6.35,6.35,0,0,1-4.15,1.55ZM35,21.29a7.61,7.61,0,0,0-1.38-4.38,6.21,6.21,0,0,0-1.76-4.19,4.55,4.55,0,0,0-6.54-4,8.23,8.23,0,0,0-1.85-2.87,6,6,0,0,0-12,0A8.33,8.33,0,0,0,9.66,8.75a4.55,4.55,0,0,0-6.52,4,6.21,6.21,0,0,0-1.76,4.19A7.61,7.61,0,0,0,0,21.29a7.69,7.69,0,0,0,7,7.63v2.65a.68.68,0,0,0,1.36,0V28.91a7.65,7.65,0,0,0,4.71-2.17,10.19,10.19,0,0,0,3.73,1v3.86a.68.68,0,0,0,1.36,0V27.71a10.44,10.44,0,0,0,3.74-1,7.65,7.65,0,0,0,4.72,2.17v2.66a.68.68,0,0,0,1.36,0V28.92a7.69,7.69,0,0,0,7-7.63Z"/></svg>