<svg id="Layer_1" data-name="Layer 1" xmlns="http://www.w3.org/2000/svg" viewBox="0 0 33 33"><path d="M15.1,24.57H.35A.35.35,0,0,1,0,24.22V20a.35.35,0,0,1,.35-.35H15.1a.35.35,0,0,1,.35.35v4.21A.35.35,0,0,1,15.1,24.57ZM.7,23.87h14V20.36H.7Z"/><path d="M13.69,33H1.76a.36.36,0,0,1-.36-.35V24.22a.36.36,0,0,1,.36-.35H13.69a.35.35,0,0,1,.35.35v8.43A.35.35,0,0,1,13.69,33ZM2.11,32.3H13.34V24.57H2.11Z"/><path d="M13.69,27.38H1.76A.35.35,0,0,1,1.4,27a.36.36,0,0,1,.36-.35H13.69A.35.35,0,0,1,14,27,.34.34,0,0,1,13.69,27.38Z"/><path d="M13.69,30.19H1.76a.35.35,0,1,1,0-.7H13.69a.35.35,0,1,1,0,.7Z"/><path d="M5.27,27.38A.34.34,0,0,1,4.92,27V24.22a.35.35,0,0,1,.35-.35.35.35,0,0,1,.35.35V27A.35.35,0,0,1,5.27,27.38Z"/><path d="M9.48,30.19a.35.35,0,0,1-.35-.35V27a.35.35,0,0,1,.7,0v2.81A.35.35,0,0,1,9.48,30.19Z"/><path d="M6,33a.35.35,0,0,1-.35-.35V29.84A.35.35,0,0,1,6,29.49a.35.35,0,0,1,.35.35v2.81A.35.35,0,0,1,6,33Z"/><path d="M12.29,20.36H2.05a.34.34,0,0,1-.32-.21,3.73,3.73,0,0,1-.32-1.54,3.84,3.84,0,0,1,2.35-3.56,3.69,3.69,0,0,1-.25-1.36,3.86,3.86,0,0,1,2.17-3.47A3.85,3.85,0,0,1,9.48,7h.07A3.85,3.85,0,0,1,13,4.92a4,4,0,0,1,1.28.21A3.94,3.94,0,0,1,17.4,3.59a4.13,4.13,0,0,1,.78.08A3.07,3.07,0,0,1,21,1.79a2.93,2.93,0,0,1,1.06.2,3.94,3.94,0,0,1,7.36,1.76,4.84,4.84,0,0,1,1.74,8.48,3.91,3.91,0,0,1,.06.68,4,4,0,0,1-3.94,3.94,3.9,3.9,0,0,1-2.94-1.32,3,3,0,0,1-1.55.42,3,3,0,0,1-2.24-1,3.09,3.09,0,0,1-3.24.82,4.61,4.61,0,0,1-4,1.75,2.17,2.17,0,0,1,0,.36,3.85,3.85,0,0,1-.77,2.32.35.35,0,0,1-.28.14Zm-10-.7h9.82a3.19,3.19,0,0,0,.53-1.76,3.42,3.42,0,0,0-.08-.7.35.35,0,0,1,.09-.32.37.37,0,0,1,.32-.1,3.51,3.51,0,0,0,.72.07,3.85,3.85,0,0,0,3.19-1.69.36.36,0,0,1,.44-.12,2.35,2.35,0,0,0,2.92-.83.37.37,0,0,1,.3-.16.36.36,0,0,1,.29.16,2.34,2.34,0,0,0,2,1,2.27,2.27,0,0,0,1.4-.47.37.37,0,0,1,.5.07,3.18,3.18,0,0,0,2.59,1.3,3.24,3.24,0,0,0,3.23-3.24,3.82,3.82,0,0,0-.08-.75.34.34,0,0,1,.13-.36A4.14,4.14,0,0,0,29,4.37.34.34,0,0,1,28.71,4V3.94a3.24,3.24,0,0,0-6.18-1.35.35.35,0,0,1-.2.18.34.34,0,0,1-.28,0A2.3,2.3,0,0,0,21,2.5a2.35,2.35,0,0,0-2.25,1.68.36.36,0,0,1-.17.21.32.32,0,0,1-.27,0,3.06,3.06,0,0,0-.9-.13,3.24,3.24,0,0,0-2.71,1.46.34.34,0,0,1-.43.13A3.24,3.24,0,0,0,13,5.62a3.17,3.17,0,0,0-2.9,1.9.36.36,0,0,1-.35.22l-.26,0A3.17,3.17,0,0,0,6.34,10.5a.34.34,0,0,1-.21.29A3.16,3.16,0,0,0,4.54,15.1a.33.33,0,0,1,0,.29.34.34,0,0,1-.22.2,3.16,3.16,0,0,0-2,4.07Z"/><path d="M1.76,9.13A1.76,1.76,0,1,1,3.51,7.37,1.76,1.76,0,0,1,1.76,9.13Zm0-2.81a1.06,1.06,0,1,0,1.05,1A1.05,1.05,0,0,0,1.76,6.32Z"/><path d="M6.67,4.91A2.46,2.46,0,1,1,9.13,2.46,2.46,2.46,0,0,1,6.67,4.91ZM6.67.7A1.76,1.76,0,1,0,8.43,2.46,1.75,1.75,0,0,0,6.67.7Z"/><path d="M26.73,10.78a.35.35,0,0,1-.17-.66,1.75,1.75,0,0,0,.74-2.37,1.7,1.7,0,0,0-1-.86A1.74,1.74,0,0,0,24.93,7a.35.35,0,1,1-.32-.62,2.45,2.45,0,0,1,3.31,1,2.46,2.46,0,0,1-1,3.32.32.32,0,0,1-.16,0Z"/><path d="M12.29,14a1.75,1.75,0,0,1-1.76-1.75.35.35,0,0,1,.35-.35.34.34,0,0,1,.35.35,1.06,1.06,0,0,0,1.06,1.05.35.35,0,0,1,.35.35.35.35,0,0,1-.35.35Z"/></svg>