<svg id="Layer_1" data-name="Layer 1" xmlns="http://www.w3.org/2000/svg" viewBox="0 0 66.14 54"><defs><style>.cls-1{fill:#003b7e;}</style></defs><path class="cls-1" d="M58.72,14.11a1.06,1.06,0,0,0,.74-.3l6.37-6.36A1,1,0,1,0,64.36,6L58,12.34a1,1,0,0,0,0,1.47,1,1,0,0,0,.72.3Z"/><path class="cls-1" d="M6,23.67l26.26,30a1,1,0,0,0,.79.36,1,1,0,0,0,.78-.36l26.25-30a1,1,0,0,0,.06-1.3L52.8,12.44A1,1,0,0,0,52,12H14.15a1,1,0,0,0-.84.42L6,22.37A1,1,0,0,0,6,23.67ZM25.12,22l8-7.46L41,22Zm17,2.08-9.08,25.8L24,24Zm2.21,0H57L35.84,48.21Zm-8.67-9.92H49.33l-5.81,7.34ZM22.6,21.45l-5.8-7.34H30.42Zm7.69,26.76L9.09,24H21.75Zm2.62,3a2.58,2.58,0,0,1,.29,0l-.13.15ZM57.24,22H45.77l5.92-7.49Zm-42.82-7.5L20.34,22H8.87Z"/><path class="cls-1" d="M6.66,13.81a1,1,0,0,0,.74.3,1.06,1.06,0,0,0,.74-.3,1,1,0,0,0,0-1.47L1.78,6A1,1,0,0,0,.31,7.45Z"/><path class="cls-1" d="M33.05,9.37a1,1,0,0,0,1-1V1A1,1,0,1,0,32,1V8.33A1,1,0,0,0,33.05,9.37Z"/></svg>