<svg id="Layer_1" data-name="Layer 1" xmlns="http://www.w3.org/2000/svg" viewBox="0 0 35 30.25"><path d="M34.8,9.16a.42.42,0,0,0-.42,0l-5.05,2.48a19.36,19.36,0,0,0-5.9-5.38A16.92,16.92,0,0,0,20.76,5L21.43.49a.44.44,0,0,0-.17-.41.44.44,0,0,0-.44,0L10.76,4.91A15.85,15.85,0,0,0,4.81,8.6,28.15,28.15,0,0,0,.06,14.88a.42.42,0,0,0,0,.43,25.05,25.05,0,0,0,6.29,7.61,15.25,15.25,0,0,0,4.28,2.32h0l10.27,5a.39.39,0,0,0,.18,0,.5.5,0,0,0,.26-.08.46.46,0,0,0,.17-.41l-.68-4.59A16.37,16.37,0,0,0,23.43,24a19,19,0,0,0,5.87-5.35l5.05,3.09a.44.44,0,0,0,.65-.37V9.52a.42.42,0,0,0-.2-.36ZM19.93,4.73a15.07,15.07,0,0,0-4.23-.6c-.51,0-1,0-1.51.07l6.27-3ZM.92,15.1c2.86-4.87,6-7.83,9.64-9.21a65.33,65.33,0,0,1-.06,18.4C6.84,22.89,3.72,19.88.92,15.1Zm19.63,14L14.17,26c.5.05,1,.07,1.53.07A14.94,14.94,0,0,0,20,25.44Zm13.59-8.52-4.73-2.89a.42.42,0,0,0-.57.12c-3.35,4.71-8.14,7.42-13.14,7.42a14.66,14.66,0,0,1-4.39-.64,64.55,64.55,0,0,0,.07-19l.19-.06A14.67,14.67,0,0,1,15.7,5c5,0,9.79,2.71,13.14,7.42a.42.42,0,0,0,.54.14l4.76-2.34Z"/><path d="M5.58,13A2.25,2.25,0,0,0,4,13.7a2.22,2.22,0,0,0-.66,1.59A2.25,2.25,0,1,0,5.58,13Zm0,3.65a1.4,1.4,0,0,1-1.4-1.4,1.4,1.4,0,0,1,2.8,0,1.4,1.4,0,0,1-1.4,1.4Z"/><path d="M17.36,7.46a9,9,0,0,0-2.51.34.43.43,0,1,0,.24.82,8,8,0,0,1,2.27-.31,9,9,0,0,1,7.24,4.1.44.44,0,0,0,.35.18.46.46,0,0,0,.25-.08.43.43,0,0,0,.1-.6,9.85,9.85,0,0,0-7.94-4.45Z"/></svg>