<svg id="Layer_1" data-name="Layer 1" xmlns="http://www.w3.org/2000/svg" viewBox="0 0 85.79 53"><defs><style>.cls-1{fill:#003b7e;}</style></defs><path class="cls-1" d="M13.91,0A9.07,9.07,0,0,0,10,17.27a13.63,13.63,0,0,0-10,13,1.13,1.13,0,0,0,.32.8,1.11,1.11,0,0,0,1.6,0,1.09,1.09,0,0,0,.32-.8A11.49,11.49,0,0,1,13.91,18.91,11.49,11.49,0,0,1,25.57,30.3a1.13,1.13,0,0,0,.32.8,1.11,1.11,0,0,0,1.6,0,1.09,1.09,0,0,0,.32-.8,13.68,13.68,0,0,0-10-13.07A9.06,9.06,0,0,0,13.91,0Zm58,0A9.06,9.06,0,0,0,68,17.23,13.67,13.67,0,0,0,58,30.3a1.09,1.09,0,0,0,.33.8,1.07,1.07,0,0,0,.79.33,1.11,1.11,0,0,0,1.12-1.13,11.67,11.67,0,0,1,23.33,0,1.13,1.13,0,0,0,.32.8,1.11,1.11,0,0,0,.8.33,1.11,1.11,0,0,0,1.12-1.13,13.63,13.63,0,0,0-10-13A9.07,9.07,0,0,0,71.89,0Zm-58,2.24A6.83,6.83,0,1,1,7,9.07,6.81,6.81,0,0,1,13.91,2.24Zm58,0a6.83,6.83,0,1,1-6.83,6.83A6.83,6.83,0,0,1,71.89,2.24Zm-29-.5a14.34,14.34,0,0,0-5.26,27.74A23.12,23.12,0,0,0,19.18,51.86a1.18,1.18,0,0,0,.33.81,1.14,1.14,0,0,0,.8.33,1.11,1.11,0,0,0,.79-.33,1.18,1.18,0,0,0,.33-.81c0-11.48,9.53-20.73,21.47-20.73s21.47,9.25,21.47,20.73a1.12,1.12,0,0,0,1.92.81,1.17,1.17,0,0,0,.32-.81A23.12,23.12,0,0,0,48.15,29.48,14.34,14.34,0,0,0,42.9,1.74ZM42.9,4A12.12,12.12,0,1,1,30.64,16.1,12.17,12.17,0,0,1,42.9,4Z"/></svg>