<svg id="Layer_1" data-name="Layer 1" xmlns="http://www.w3.org/2000/svg" viewBox="0 0 619.23 281.93"><defs><style>.cls-1{fill:#29d3ce;}.cls-2{fill:#7eaa37;}.cls-10,.cls-15,.cls-3,.cls-9{fill:#34a58f;}.cls-4{fill:#db744c;}.cls-5{fill:#f36523;}.cls-6{fill:#d35422;}.cls-7{fill:#8ec63f;}.cls-8,.cls-9{opacity:0.6;}.cls-10{opacity:0.3;}.cls-11,.cls-13,.cls-14{fill:#fff;}.cls-12{fill:#ddd;}.cls-13{opacity:0.4;}.cls-14{opacity:0.5;}.cls-15{opacity:0.2;}.cls-16{fill:#93b857;}.cls-17{fill:#414143;}.cls-18{fill:#ffb3a3;}.cls-19{fill:#2c3a64;}.cls-20{fill:#fe8d71;}.cls-21{fill:#2b478b;}.cls-22{fill:#ffbfb2;}.cls-23{fill:#58595b;}.cls-24{fill:#37b5a1;}</style></defs><path class="cls-1" d="M593,281.41l-134.25-.26-124.25-.24-45.69-.09c2.79-7.81,26.06-67.36,56.52-62.22,31.95,5.4,21.35,6.61,96.52,36.55C491.66,275,551,227.42,582.14,222.32,595.12,239.5,597.56,262.22,593,281.41Z"/><path class="cls-2" d="M334.52,280.91l-224.12-.42s-34.9-26.15-53.92-68.82a144,144,0,0,1-7.35-20.38c-.13-.47-.26-.94-.38-1.41a127.47,127.47,0,0,1-3.28-16.7,123.94,123.94,0,0,1-.8-23.57c.11-1.67.24-3.35.42-5a130.43,130.43,0,0,1,5-24.6c14.3,1.52,34.16,6.69,48,22.66,24,27.65,105.66,29.67,124.85,21.58s81.88-17.5,96.73,11.14C333.52,202.07,334.46,271.65,334.52,280.91Z"/><path class="cls-3" d="M106.63,188.2c-8.53-7.28-29.93,5.06-38.84-7.07,0,0,0,0,0-.07,6.44-2.48,16.1-6.76,13.44-9.27s-10.1,3.46-14.78,7.63l-.61-.65c6.29-8,16.07-22.08,9.63-24.27-6.14-2.1-10.47,12.19-12.65,21.75-6.58-4.47-14.15-3.69-17.31-3.07a127.47,127.47,0,0,0,3.28,16.7c.12.47.25.94.38,1.41a144,144,0,0,0,7.35,20.38c23.22-1.65,50.15-3.83,50.15-3.83S115.17,195.48,106.63,188.2Z"/><path class="cls-4" d="M164.62,220.79c0-9.41-14.28-19.29-14.28-19.29,2.46-.19,8.75,3,8.75,3-1.69-1.49-9.52-3.95-9.52-3.95-2.53-1.62-10.43-2.59-10.89-2.72s8.1-1.16,8.1-1.16l-10.26.68s-9.23-1.14-16-1.82-25.2,2.11-25.2,2.11c.85-.71,7.65-2.11,7.65-2.11-8.64.88-21.34,3.24-21.36,3.24-7.37.49-12.26.92-12.26.92l-4.47,80.27s74.23-.39,84.72,0,15.93-14.77,18.27-32.64A57.58,57.58,0,0,0,164.62,220.79Z"/><path class="cls-5" d="M78,199.2s-23.9-1.82-39,17.42a24.82,24.82,0,0,0-1.57,2.23,18.26,18.26,0,0,1,2-5.49C36.29,216,35.2,223,35.2,223h0a39.57,39.57,0,0,0-2.68,10.42c-1.89,2.31-3.49,4.15-3.49,4.15l3.37-3.08a59.63,59.63,0,0,0,1.74,20.81,6.49,6.49,0,0,0-4.14.34,6.75,6.75,0,0,1,4.32.33,57.39,57.39,0,0,0,2.06,6.18A82.65,82.65,0,0,0,39,271.83a45.07,45.07,0,0,1-1.06-6.1c4.26,8.66,10.54,14.77,17.86,14.84,19.82.17,44.23-2.88,49.51-28.75S99.54,199.85,78,199.2Z"/><path class="cls-5" d="M39,271.83a10.27,10.27,0,0,0,.37,1.11C39.42,273,39.28,272.59,39,271.83Z"/><path class="cls-6" d="M68.51,279.89c-5.49,0-12.11-.93-17.75-4.39-6.11-3.73-10.09-9.75-11.85-17.9-3-13.86-1.53-25.23,4.37-33.8,5.51-8,14.82-13.23,26.92-15.09a21.23,21.23,0,0,1,20.45,7.63c7.53,9,9.69,24.28,5.26,37.09-3.13,9.05-11.49,14.64-22.37,14.95l-.93,0c-11,0-20.83-5.6-24.22-13.83-3.45-8.39-3.28-16.6.51-23.11S60,220.54,69.32,219.35c8.44-1.09,13,2.84,15.33,6.33,4.5,6.73,4.49,17.66,1.47,22.94-2.9,5.09-11,9-17.94,8.77-5-.18-8.89-2.52-10.84-6.57-2.5-5.22-2.34-10.61.45-14.79,2.25-3.36,5.88-5.41,9.25-5.23,3.86.21,5.51,3.44,5.75,6.14.21,2.38-.6,5-2.56,5.49-3.63.84-4.92-1.14-5-1.22s-2-3.25.48-3.71c2.8-.53,2.07,1.64,2.07,1.64s-.7,3,2.21,2.31c1.19-.28,2-2.22,1.78-4.42-.21-2.42-1.58-5.06-4.81-5.23-3-.18-6.3,1.71-8.36,4.79-2.59,3.88-2.72,8.9-.38,13.8s6.69,5.88,10,6c6.65.23,14.29-3.47,17-8.26,2.54-4.45,3.22-14.93-1.44-21.89-3.12-4.67-8.09-6.71-14.38-5.9-9,1.15-16,5.28-19.68,11.62s-3.78,14.13-.44,22.23,13.28,13.51,24.19,13.2C84,267.08,92,261.75,95,253.1c4.32-12.49,2.23-27.34-5.09-36.12a20.29,20.29,0,0,0-19.53-7.28c-11.82,1.82-20.89,6.89-26.25,14.66-5.73,8.34-7.15,19.45-4.22,33,1.7,7.87,5.54,13.67,11.4,17.26,11.84,7.25,30.52,2.86,30.69,2.82l-2.12,1.14A50,50,0,0,1,68.51,279.89Z"/><path class="cls-6" d="M386.69,206.93c-.05-11.22-17-23-17-23,2.93-.23,10.43,3.55,10.43,3.55-2-1.78-11.36-4.71-11.36-4.71-3-1.93-12.44-3.09-13-3.25s9.66-1.39,9.66-1.39l-12.25.82s-11-1.36-19-2.17-30.05,2.51-30.05,2.51c1-.85,9.12-2.51,9.12-2.51-10.31,1-25.46,3.86-25.48,3.87-8.79.58-14.62,1.09-14.62,1.09l-5.33,95.74s88.53-.46,101.05,0,19-17.61,21.79-38.93A68.55,68.55,0,0,0,386.69,206.93Z"/><path class="cls-5" d="M283.33,181.18S254.82,179,236.75,202a28.13,28.13,0,0,0-1.87,2.66,21.83,21.83,0,0,1,2.44-6.55c-3.71,3.09-5,11.5-5,11.5h0a47.07,47.07,0,0,0-3.2,12.44c-2.25,2.75-4.16,5-4.16,5l4-3.68a71.67,71.67,0,0,0,2.08,24.82c-1.45-.26-3.52-.41-4.93.41a8,8,0,0,1,5.14.39,70.15,70.15,0,0,0,2.46,7.38,97.79,97.79,0,0,0,3.16,11.54,52.89,52.89,0,0,1-1.27-7.28c5.08,10.33,12.57,17.62,21.3,17.69,23.64.21,52.76-3.43,59.06-34.29S309.06,182,283.33,181.18Z"/><path class="cls-5" d="M236.88,267.82a13.57,13.57,0,0,0,.44,1.32C237.36,269.23,237.18,268.72,236.88,267.82Z"/><path class="cls-6" d="M272.05,277.43c-6.55,0-14.44-1.11-21.18-5.24-7.28-4.45-12-11.64-14.13-21.35-3.58-16.53-1.82-30.1,5.21-40.32,6.58-9.56,17.69-15.78,32.12-18,9.74-1.49,18.17,1.66,24.39,9.11,9,10.77,11.56,29,6.27,44.23C301,256.66,291,263.33,278.05,263.7l-1.11,0c-13.06,0-24.84-6.68-28.89-16.5-4.12-10-3.91-19.8.6-27.56s13.23-13,24.36-14.45c10.07-1.3,15.51,3.39,18.29,7.55,5.37,8,5.36,21.07,1.76,27.37-3.47,6.07-13.07,10.75-21.4,10.46-6-.22-10.61-3-12.93-7.84-3-6.22-2.79-12.65.54-17.64,2.67-4,7-6.46,11-6.24,4.61.25,6.58,4.1,6.86,7.33.25,2.84-.71,6-3,6.54-4.33,1-5.87-1.36-5.94-1.46s-2.34-3.86.58-4.42c3.33-.64,2.46,2,2.46,2s-.83,3.57,2.63,2.76c1.43-.33,2.37-2.65,2.14-5.28-.26-2.88-1.9-6-5.74-6.24-3.61-.2-7.52,2.05-10,5.72-3.09,4.62-3.26,10.62-.46,16.45,2.72,5.67,8,7,11.9,7.17,7.93.27,17.05-4.14,20.32-9.86,3-5.3,3.85-17.8-1.71-26.11-3.72-5.57-9.65-8-17.15-7-10.75,1.38-19.09,6.31-23.48,13.87s-4.51,16.85-.53,26.51S265,262.89,278,262.51c12.45-.36,22-6.73,25.58-17,5.16-14.91,2.67-32.62-6.06-43.09-4.13-5-11.53-10.49-23.29-8.69-14.1,2.17-24.93,8.22-31.31,17.5-6.84,9.93-8.54,23.19-5,39.39,2,9.38,6.6,16.31,13.59,20.59,14.13,8.64,36.41,3.41,36.61,3.36l-2.52,1.36A59.13,59.13,0,0,1,272.05,277.43Z"/><path class="cls-2" d="M526.81,280.36H508.14c-1-.85.69-2.78,2.46-2.91a11.49,11.49,0,0,1,2.85.34c.26-3.41,1.72-18.75,7.25-18.13,6.22.69,0,6.75-1.75,10.34a84.3,84.3,0,0,0-3.31,8.28l1.56.31c.83-2.53,3.89-11,7.79-10.54,4.58.58,2.74,4-.51,6-2.38,1.48-5.3,3.6-6.69,4.62a19.14,19.14,0,0,0,3.65.3C524.64,278.91,526.2,279.85,526.81,280.36Z"/><path class="cls-7" d="M18.74,280.68s31.65-26.27,59.93-17.18C145.34,285,152,232.81,196.45,261.16s60,16,100.4,6.89,89.69,1.31,130.31,12.66Z"/><path class="cls-7" d="M389.69,274.41s7-17.05,12.61-15.62S389.69,274.41,389.69,274.41Z"/><path class="cls-7" d="M391,275s8.09-7,12-5S391,275,391,275Z"/><path class="cls-7" d="M181.11,255.15s.14-13.41-8-14S181.11,255.15,181.11,255.15Z"/><path class="cls-2" d="M44,280.71s21.18-13.17,36.17-10.34,36.93-.15,37.68,10.34Z"/><path class="cls-2" d="M85.42,275.62s14.06-12.58,21-11.42S85.42,275.62,85.42,275.62Z"/><path class="cls-2" d="M86.15,274.26c-.15-.93-.06-16.64,4.3-15.77S86.15,274.26,86.15,274.26Z"/><g class="cls-8"><path class="cls-3" d="M302.71,67.78c-2.54,24-13.86,106.48-14.65,112.21,0,2.61-.85,14.12-16.4,25.09a100.22,100.22,0,0,1-19.88,10.78l-1.16-7.14-.32-2c5-1.92,11.47-4.09,16.74-7.75a37.66,37.66,0,0,0,10.14-9.94c3.26-5,3.26-8.59,3.25-9l-.05-.45.08-.34c.12-.88,12.05-87.68,14.66-112.29.65-6.16-.59-11.06-3.7-14.55C286,46.33,276.36,46,276,46H225V38.32h51.11c.53,0,13.25.26,21.05,9C301.72,52.51,303.6,59.38,302.71,67.78Z"/></g><g class="cls-8"><path class="cls-3" d="M298.64,70.93c-2.53,24-13.86,106.47-14.64,112.21,0,2.36-.69,12-12.34,21.94-5,4.3-9.78,7.72-19.75,11.57l-1.61-9.9c1.45-.56,1.25-.37,2.82-1.07,5.26-2.35,9.6-3.77,13.92-6.68a37.66,37.66,0,0,0,10.14-9.94c3.26-5,3.26-8.59,3.25-9l-.05-.45.08-.34c.12-.88,12.05-87.68,14.66-112.29.65-6.16-.59-11.06-3.7-14.55C286,46.33,276.36,46,276,46H225V41.47h47c.54,0,13.26.25,21.06,9C297.65,55.66,299.53,62.53,298.64,70.93Z"/></g><path class="cls-9" d="M254.72,253.75l-.06.08-14.79,21.78a11.61,11.61,0,0,1-9.59,5.1L104.2,281a11.63,11.63,0,0,1-10.54-6.7l-12.6-26.9a11.69,11.69,0,0,1-.91-7l4.42-23.95,17.09-92.71,12.26-66.45a12.36,12.36,0,0,0,.19-2.11V33.5c0-6.42,3.74-13.08,10.16-13.08h89.14A11.63,11.63,0,0,1,225,32.05V50.59a11.79,11.79,0,0,0,.15,1.87L250.3,206.75l.35,2.14,1.65,10.18,4.26,26.18,0,.1A11.62,11.62,0,0,1,254.72,253.75Z"/><path class="cls-9" d="M217.8,10.61c0,.12,0,.23,0,.35a26.94,26.94,0,0,1-2.27,9.46H124.27l-1.15-.58-14.54-7.42S122.83,0,135.14,0h79.65a16,16,0,0,1,3,9.17c0,.19,0,.39,0,.59S217.81,10.32,217.8,10.61Z"/><path class="cls-10" d="M217.8,10.61c0,.12,0,.23,0,.35a25.4,25.4,0,0,1-2.46,9.46H176.76c6-2.63,11.51-5.28,14.86-8.63,3.75-3.74,5.66-6.74,5.71-11.79h17.21a15.24,15.24,0,0,1,3.25,9.17c0,.19,0,.39,0,.59S217.81,10.32,217.8,10.61Z"/><path class="cls-11" d="M242.23,251.56l-8.55,12.59a16.83,16.83,0,0,1-13.87,7.38l-99.5.26a24.18,24.18,0,0,1-21.9-13.92l-6-12.91a20.33,20.33,0,0,1-1.57-12.39L94,215.66,119.62,79.45a.67.67,0,0,1,.58-.53c8.27-1,36-6.66,44.21-1.54,16.44,10.22,29.3-2,56.61.47a.65.65,0,0,1,.6.56l21.95,142.21,2.3,14.83A22.52,22.52,0,0,1,242.23,251.56Z"/><path class="cls-10" d="M254.72,253.75l-.06.08-14.79,21.78a11.58,11.58,0,0,1-4.9,4.1H195.76l5-8.13,13.37-21.95a30.2,30.2,0,0,0,3.93-21L191.36,80.06l-5.89-32.87a7.93,7.93,0,0,1-.12-1.82c.14-3.42.6-15.47,0-18.64-.75-3.71-8.54-6.31-8.54-6.31h36.65A11.63,11.63,0,0,1,225,32.05V50.59a11.79,11.79,0,0,0,.15,1.87L250.3,206.75l.35,2.14,1.65,10.18,4.26,26.18,0,.1A11.62,11.62,0,0,1,254.72,253.75Z"/><path class="cls-12" d="M242.23,251.56l-8.55,12.59a16.83,16.83,0,0,1-13.87,7.38l-99.5.26a24.18,24.18,0,0,1-21.9-13.92l-6-12.91a20.33,20.33,0,0,1-1.57-12.39s17.79,11.26,72.2,12.59c46.07,1.12,82.87-9.71,82.87-9.71A22.52,22.52,0,0,1,242.23,251.56Z"/><path class="cls-13" d="M130.16,28.5A2.53,2.53,0,0,0,127.58,31V59a2.42,2.42,0,0,0,.12.76L103.41,228.4s3.19,21.48,10,32.94a5.83,5.83,0,0,0,5,2.78H143a3.84,3.84,0,0,0,3.86-4.74c-2-7.61-8-19.28-8.94-32-.1-1.48,22.34-169.48,22.34-169.48l-.2-.3V31a2.54,2.54,0,0,0-2.59-2.47Z"/><polygon class="cls-9" points="176.09 89.82 183.2 280.87 263.83 280.87 269.81 89.82 176.09 89.82"/><path class="cls-14" d="M264.91,90.17,264,119.85l-.78,24.87L259.85,252c-.16,5.16-3.74,9.23-8.1,9.23H195.57c-4.59,0-8.37-4.28-8.58-9.72l-4.37-117.37-.33-9-1.3-35Z"/><path class="cls-11" d="M263.2,144.72,259.85,252c-.16,5.16-3.74,9.23-8.1,9.23H195.57c-4.59,0-8.37-4.28-8.58-9.72l-4.37-117.37c6.85-1.67,20.36-2.9,36.47,6.46C232.76,148.53,250.67,147.2,263.2,144.72Z"/><rect class="cls-13" x="191.11" y="95.44" width="10.44" height="183.4"/><rect class="cls-15" x="236.23" y="89.92" width="18.67" height="188.92"/><path class="cls-9" d="M260.72,91.84a.8.8,0,0,0-.78-.56h-54.6c-19.21,0,47.3,1.5,47.3,1.5a6,6,0,0,1,6,6s2.13,20.72,2.13,20.1V92.35a1,1,0,0,0,0-.17A.57.57,0,0,0,260.72,91.84Z"/><path class="cls-9" d="M126.76,5.79a.5.5,0,0,0-.17-.14c-1.28-.45-10,5.32-10.34,5.77s10.34,7.79,10.34,7.79h23.3C144.1,19.28,128.55,7.2,126.76,5.79Z"/><path class="cls-7" d="M252.2,280.35s-21,0-23.92.11-20.49-6.07-20.49-6.07h0c.36-.21,13.17-7.29,21-10s23.17,15.66,23.39,15.93Z"/><path class="cls-2" d="M252.2,280.35s-21,0-23.92.11-20.49-6.07-20.49-6.07h0c.44-.09,17.36-3.3,23.68-2.08s20.49,7.94,20.71,8Z"/><path class="cls-16" d="M249.82,280.23s6.72-.4,8.5-2.13c0,0,1,.28,1.1.7A20.19,20.19,0,0,1,249.82,280.23Z"/><rect class="cls-17" y="280.36" width="619.23" height="1.57" rx="0.72"/><path class="cls-18" d="M387.84,155.12c-.13-2-4.43-6.81-4.43-6.81-2.9-6.73-5.59-22.5-5.59-22.5-.5-18.42-2.59-29.09-4.27-34.83a25.81,25.81,0,0,0-2.24-5.74l-.06-.09-.06.06A21.87,21.87,0,0,0,369.48,87c-11.58,13.47-1.69,35-1.38,40,.31,5.16,11.29,22.09,11.29,22.09h0a5,5,0,0,1,.24,3.15c-.38,1.25,1.55,2.6,1.78,3.75s.85,1.11,1.09.76-.53-2.52-.61-3.07,1.18,1.3,1.46,2.52-.9,4.25,1,3.83A5.14,5.14,0,0,0,387.84,155.12Z"/><path class="cls-19" d="M354.38,60.69s-.09,2.05,1.13,2.45-1.26,4.82-1.06,7.8S356,75.12,356,75.12a4.92,4.92,0,0,1-.28-2.65,4,4,0,0,0,1.49,3.17c1.54,1.07,1.12,2,1.12,2s3.49-1,3.59-3.66a6.54,6.54,0,0,1,0,1.67s3-2.26,3.16-4.86-2.37-4.8-3.52-4.84-3.69-2.29-3.62-3.13S354.38,60.69,354.38,60.69Z"/><path class="cls-20" d="M364,46.06c-2-3.08-10.08-1.35-18,3.85s-12.66,11.92-10.63,15,10.07,1.35,18-3.85S366,49.14,364,46.06Z"/><path class="cls-21" d="M381.39,273.21l-4.26,1.58s-18.51-25.67-20.79-48.25A34.26,34.26,0,0,1,357,215l-.5-2.86c-.14-.85-.32-1.87-.53-3-.6-3.45-1.43-8.16-2.37-13.54-2.18-12.36-5-28.16-7.2-39.77l1.15-.37,12.43-4,2.56-8.15,9.25-2.44s2.07,4,3.92,23.14c.34,2.5.65,5.27.88,8.26a163.71,163.71,0,0,1-.88,33.45q-.63,5-1.62,10.27a45.21,45.21,0,0,0-.36,10.13C374.61,244.51,381.39,273.21,381.39,273.21Z"/><path class="cls-19" d="M376.54,172.2l-20.09,39.93c-.14-.85-.32-1.87-.53-3-.6-3.45-1.43-8.16-2.37-13.54-2.18-12.36-5-28.16-7.2-39.77l1.15-.37,12.43-4,2.56-8.15L373.54,140s.27,4.89,2.12,24C376,166.44,376.31,169.21,376.54,172.2Z"/><path class="cls-21" d="M371.63,141.81c.61-.74-4.39.13-4.39.13-7.79,2.07-28.61-5.78-28.61-5.78s-7.54,6.63-6.55,22.53c.48,7.76,1.36,40.75,2.29,50.51.33,3.53.62,6.05.74,7.06h0a1.42,1.42,0,0,1-.22.87,46,46,0,0,0-3.41,7.16c-9.05,24.13,1.4,53.85,1.4,53.85l2.71-1.09s6-33.07,10.78-47.69a28.92,28.92,0,0,1,2.33-5.58c2.1-3.4,4.05-8.94,5.82-15.53,3.34-12.46,6-28.66,7.83-41.17C362.59,167.09,365.17,149.54,371.63,141.81Z"/><path class="cls-19" d="M359.56,46.41,345.36,68s-1.63-3.18-3.43-2c-2.81,1.78-8.86-4.31-7.6-12.9.09-.56.18-1.09.29-1.6,2.84-4.08,6-8.63,8.24-11.83C349.39,35.65,359.56,46.41,359.56,46.41Z"/><path class="cls-22" d="M365.8,90a24,24,0,0,1-7.91,4.71c-12.54,4.76-19-5.51-21.88-12.77a11.38,11.38,0,0,1,4.2-2c.92-.23,1.9-.44,2.71-.59,1.3-1.31,2.85-6.17,2.36-13.31l.64.08,10.58,1.41s0,3.3.16,6.4c.15,2.42.44,4.72,1,5.22l1.31.11h0A66.62,66.62,0,0,1,365.8,90Z"/><path class="cls-20" d="M356.5,67.53s0,3.3.16,6.4c-5.86.21-9.29-4.93-10.74-7.81Z"/><path class="cls-22" d="M358.64,70.34s-13.82,1.11-14.38-7.51-2.72-14.29,6.08-15.36,10.74,2.1,11.62,4.94S362.23,69.83,358.64,70.34Z"/><path class="cls-19" d="M361.25,47.64c-2.31-2.46-3.89-1.79-4.74-1a9.7,9.7,0,0,0-12.32,2.78,16.5,16.5,0,0,1-4.77,10.08s2.63,1.39,8.35-.47a10,10,0,0,0,4.5-3.55,32.46,32.46,0,0,1-5.12,7.14c6.74-3.65,8.91-13.49,9.13-14.53A10.78,10.78,0,0,1,359.55,52c.83,2.15,1.43,6.65,2.74,6.41C362.29,58.38,364.7,51.32,361.25,47.64Z"/><path class="cls-17" d="M348.64,280.36H327.18a11.81,11.81,0,0,1,.61-5.75c1.07-2.38,2.76-3.47,2.35-6.35a7.72,7.72,0,0,0,6.69,2.56c.38.62,2.46,3.92,3.73,4.83S348.21,276.3,348.64,280.36Z"/><path class="cls-5" d="M375,92.2c-1.72-8.61-7-11.08-7-11.08a31.76,31.76,0,0,0-5.84-1.55c-.77-.11-1.61-.19-2.55-.27l-.58,0h0c.19.29,5.18,8,4.91,10s-18.48,1.38-19.79.32c-1.06-.86-2.9-6.56-3.58-8.79-.17-.56-.28-.9-.28-.9s-6.35,1.11-9.33,3.58a27.92,27.92,0,0,1,3.81,5.59c.14.3.28.59.41.89a12.56,12.56,0,0,1,.66,1.93,3.88,3.88,0,0,1-.44,2.69,18.3,18.3,0,0,1-1.8,2.81c-.49.66-1,1.36-1.56,2.1.38,1.26.87,2.76,1.42,4.46a121.42,121.42,0,0,1,3.42,12.48,11.93,11.93,0,0,1-.82,7.29c-.45,1-.56,2.42-1.07,3.73-2.08,5.38-4.48,12.41-2.07,16.08,1.6,4.69,38.74-6.7,36.24-11.62,0,0,1.48-25.79,2.5-33.78,0-.3.06-.58.08-.86,0-.45,0-.89,0-1.33C374.87,94.51,375,92.2,375,92.2Z"/><path class="cls-17" d="M394.72,280.36H373.26s-.8-3.42.61-5.75c1.25-2.06.77-3.24-.15-4.94a8.4,8.4,0,0,0,3.61.68,7.48,7.48,0,0,0,3.19-1.13,75.32,75.32,0,0,0,6.12,6.43C388,276.66,394.29,276.3,394.72,280.36Z"/><path class="cls-20" d="M334,57.26s-6.43-12.8,2.55-17.86,15.57-3.07,20.51,3.12Z"/><path class="cls-18" d="M370.24,41.11c-1.85-3-8.32-2.48-16.13.72a63,63,0,0,0-9.57,5,61.48,61.48,0,0,0-10.37,8c-5.17,5.05-7.69,9.9-6,12.58,1.86,3,8.39,2.48,16.26-.76-.64-.7-1.54-1.29-2.48-.69s-2.32.29-3.62-.74A2.84,2.84,0,0,1,336.24,64a2.46,2.46,0,0,1-.29-1.68c.4-3,4.64-7.64,10.73-11.44,4.68-2.91,9.33-4.63,12.53-4.84,1.86-.12,3.23.27,3.83,1.24s.41,2-.23,3.34a12.27,12.27,0,0,1,.21,4.2C369,49.37,372,44,370.24,41.11Z"/><path class="cls-5" d="M349.33,124.53a63.26,63.26,0,0,1-14.69,2.75c.51-1.31.89-2.5,1.34-3.52a11.93,11.93,0,0,0,.82-7.29c-1-4.65-3.49-12.59-4.62-16.09,3-6.7,6.1-3,6.1-3s9.07,4.07,12.94,11.57S354,123.05,349.33,124.53Z"/><path class="cls-21" d="M337.72,80.51a27.19,27.19,0,0,1,10.88,17.1l2.62-.83s-1-8.31-11-16.84a11,11,0,0,0-1.27.24Z"/><path class="cls-21" d="M368.26,97.91l-2.73.18a27.81,27.81,0,0,0-6-18.79q1.39.12,2.55.27C369.23,89.93,368.26,97.91,368.26,97.91Z"/><path class="cls-21" d="M348.87,104.07c-.17-.72-1.85-7.71-1.85-7.71s-.38-2.18,3.46-2.4L367.93,93a4.25,4.25,0,0,1,1.88,3.42c0,2.29,1.88,15.44,1.88,15.44l1.91,28.91-41.52,17.89s-2.85-14.61.34-24.79c1.86-6,4.25-12.15,4.25-12.15S351.45,115,348.87,104.07Z"/><path class="cls-5" d="M348.5,96.6a1.14,1.14,0,1,1,1.44.74A1.14,1.14,0,0,1,348.5,96.6Z"/><path class="cls-6" d="M348.69,96.53a1.15,1.15,0,1,1,1.44.75A1.15,1.15,0,0,1,348.69,96.53Z"/><path class="cls-23" d="M349.07,96.19a.17.17,0,0,1,.34,0,.17.17,0,0,1-.34,0Z"/><path class="cls-23" d="M350.16,96.19a.17.17,0,0,1,.34,0,.17.17,0,0,1-.34,0Z"/><path class="cls-5" d="M365.38,95.14a1.14,1.14,0,1,1,1.44.75A1.15,1.15,0,0,1,365.38,95.14Z"/><path class="cls-6" d="M365.57,95.08a1.15,1.15,0,1,1,1.45.74A1.15,1.15,0,0,1,365.57,95.08Z"/><path class="cls-23" d="M366,94.73a.17.17,0,0,1,.16-.17.17.17,0,1,1,0,.34A.17.17,0,0,1,366,94.73Z"/><path class="cls-23" d="M367.05,94.73a.17.17,0,0,1,.16-.17.17.17,0,1,1,0,.34A.17.17,0,0,1,367.05,94.73Z"/><path class="cls-19" d="M336,62.33s-.1,2,1.13,2.45-1.27,4.82-1.07,7.8,1.52,4.18,1.52,4.18a4.82,4.82,0,0,1-.28-2.65,4,4,0,0,0,1.48,3.17c1.54,1.07,1.13,2,1.13,2s3.48-1,3.58-3.66a6.9,6.9,0,0,1,0,1.67s3-2.26,3.15-4.86-2.37-4.8-3.51-4.84-3.7-2.28-3.63-3.13S336,62.33,336,62.33Z"/><path class="cls-22" d="M347.26,131.78c-1.28-.79-2.71-.2-4,.49a1.16,1.16,0,0,0,.33-1.18c-.07-.25-.9.61-1.79,1a2.18,2.18,0,0,0-1.12,1.4,12.25,12.25,0,0,1-2.79-1.4c-5.05-3.26-13.85-17.33-14.11-18.55s11-12.17,14.47-16.22-2.07-15.89-7.4-13.81c0,0-15.41,18.2-20.51,28.45,0,0,5.31,11.56,22.07,21.9l0,0a50.1,50.1,0,0,0,6.95,3.72c2.29.76,5.53-.85,6.84-1s4.06.93,4.86,0S349.6,133.21,347.26,131.78Z"/><path class="cls-6" d="M330.88,83.52,324,90.28s1.58,10,12.05,11.29c0,0,8.6-6.88,3.46-14S330.88,83.52,330.88,83.52Z"/><path class="cls-23" d="M547,194.65s15.57,60.08,14.18,64.83S552,280.36,552,280.36h7.53a5.66,5.66,0,0,0,2.91-5.21c-.12-3.73,10.43-18.25,10.43-18.25s-4.14-23.06,0-32.15C590.66,185.63,560.81,186,547,194.65Z"/><path class="cls-23" d="M467,215.44s4.47,32.27,4.72,34.26,2.36,4.47,2.23,7.7-1.24,14.15-4.71,16.88a9.87,9.87,0,0,0-3.85,6.08h9.43s1.62-3.23,1.37-5.46,2.6-4.59,2.73-9.19,0-13.15,1.24-16.13.87-23.46,5-28.06S467,215.44,467,215.44Z"/><path class="cls-12" d="M569.67,204.65c.11,1.49.16,2.88.16,4.26-.26,34.94-34.84,24.47-36.07,23.55a7.44,7.44,0,0,0-3.75-.82c-17.28,6.87-41.5.56-46.53-1.49s-18.42,3-24.62,2.57c-2.52-.21-4.62-2.83-6.21-6.11a46.36,46.36,0,0,1-3.75-12.77c-.1-1.18-1.69-5.7-3.84-11.24-.88-2.15-1.85-4.51-2.88-6.93-.2-.41-.36-.87-.56-1.28.51-.56,1-1.18,1.43-1.79,2.72-3.6,4.62-7.8,6.73-12a59.93,59.93,0,0,1,7.9-13c5.08-1.59,11.13,1.28,13.64,1.13a69.48,69.48,0,0,0,8.42-1c1.07-.2,2.05-.36,3-.51,5.13-.77,36.22,3.23,58.18,3.85,4.52.15,8.62.1,12.06-.1.25,0,.51-.06.77-.06,9.18-.51,14,.06,16.62.88,2.82.87,2.87,1.95,2.87,1.95C582,182.28,569.67,204.65,569.67,204.65Z"/><path class="cls-12" d="M455.74,215.44s4.47,32.27,4.71,34.26,2.36,4.47,2.24,7.7-1.24,14.15-4.72,16.88a9.93,9.93,0,0,0-3.85,6.08h9.44s1.61-3.23,1.36-5.46,2.61-4.59,2.73-9.19,0-13.15,1.25-16.13.86-23.46,5-28.06S455.74,215.44,455.74,215.44Z"/><path class="cls-12" d="M537.3,208.09s12.57,46.64,11.17,51.39-9.21,20.88-9.21,20.88h7.52a5.68,5.68,0,0,0,2.92-5.21c-.12-3.73,10.43-18.25,10.43-18.25s.85-26.33,7-34.15S551.1,199.44,537.3,208.09Z"/><path class="cls-24" d="M409.29,220c-.51.68-1,1.17-1,1.17a22,22,0,0,1-2.24.11,6.06,6.06,0,0,1-3-.82,3.8,3.8,0,0,1-1.48-1.75s.43-1.11,2.67-1.4c1.64-.21,3.26-1.35,4.64-1.5h0a2,2,0,0,1,1.39.33C411.35,216.9,410.22,218.79,409.29,220Z"/><path class="cls-24" d="M406.91,224.38c-.07,0-.85.12-1.87.12-1.65,0-3.93-.41-4.85-2.58,0,0,.42-1.1,2.66-1.39l.24,0c1.43-.26,2.85-1.16,4.09-1.41a2.06,2.06,0,0,1,1.7.27.93.93,0,0,1,.41.68C409.49,221.57,406.91,224.38,406.91,224.38Z"/><path class="cls-12" d="M458.09,177.26c-.62,16-3.59,46.63-5.44,49.35a71.73,71.73,0,0,0-11.13,1.23c-9.24,1.9-11.8,5.39-12.68,7-1.64,3.28-9.33,10.77-10.67,11s-2.2,2-3.64,5-4.16,3.13-6.46,3.28-4.21-2.67-4.26-3.33,1.18-2.88,1-5.75,1.69-11.44.16-13.75c-1-1.49-.41-4.67.1-6.82.31-1.29.61-2.16.61-2.16a5.67,5.67,0,0,1,.47-1c.3-.67.66-1.44,1.07-2.26.46-1,1.08-2,1.75-3.23a132.71,132.71,0,0,1,12.36-18.06,122.4,122.4,0,0,1,20-19.91,88.89,88.89,0,0,1,16.37-10.26C458.19,167.82,458.29,171.66,458.09,177.26Z"/><path class="cls-23" d="M465.25,207.53c.33-.83.16-14.87,10.3-17.76s15.68,1.56,28.33-3.55,26-9.32,27.3-3.77-1.11,21.08,0,28.18-22.9,9.62-32.76,5.26S461.69,216.63,465.25,207.53Z"/><path class="cls-23" d="M573.22,173.74a25.44,25.44,0,0,1,7.68,15.59c1.11,10-2,53.86-2,53.86l-2.53-.14-2.72-48.54Z"/><path class="cls-23" d="M575.94,248.78s5.47-5.89,2.07-7.22-2.07,2.66-2.07,4.21Z"/><path class="cls-11" d="M570.34,171.77c-6.36,3.13-13.39,6-17.55,6.1-9.08.16-31.14-5.08-40.12-5.64s-45.35,7.85-53.92,5.13a1.41,1.41,0,0,0-.66-.1c-1.9-.16-4.77,1.18-8.31,3.33-2,1.28-4.21,2.82-6.52,4.57-14.93,11.28-34.32,30.68-34.32,30.68a132.71,132.71,0,0,1,12.36-18.06,122.4,122.4,0,0,1,20-19.91,88.89,88.89,0,0,1,16.37-10.26c5.08-1.59,11.13,1.28,13.64,1.13a69.48,69.48,0,0,0,8.42-1c1.07-.2,2.05-.36,3-.51,5.13-.77,36.22,3.23,58.18,3.85,4.52.15,8.62.1,12.06-.1.25,0,.51-.06.77-.06C562.9,170.38,567.77,171,570.34,171.77Z"/><path class="cls-23" d="M540.88,171.05c-4,3.23-11.58,4.53-22.35,2.52-13.09-2.44-16.2,3.33-27.07,3.77-9.6.39-11.42-7.72-11.71-9.63,1.05-.18,2.06-.35,3-.49C487.83,166.45,519,170.42,540.88,171.05Z"/><path class="cls-23" d="M443.05,192.6a22.07,22.07,0,0,1-.87,3.07,25,25,0,0,1-1.69,3.34c-5.8,9.23-.31,20.31,1,28.83-9.24,1.9-11.8,5.39-12.68,7-1.64,3.28-9.33,10.77-10.67,11s-2.2,2-3.64,5-4.16,3.13-6.46,3.28-4.21-2.67-4.26-3.33,1.18-2.88,1-5.75,1.69-11.44.16-13.75c-1-1.49-.41-4.67.1-6.82-1.64,0-4-.41-4.88-2.57,0,0,.47-1.13,2.67-1.44h.26a4,4,0,0,1-1.49-1.79s.46-1.08,2.67-1.39c1.64-.2,3.28-1.33,4.67-1.48a132.71,132.71,0,0,1,12.36-18.06,122.4,122.4,0,0,1,20-19.91,30.77,30.77,0,0,1,1.95,7.29A22.53,22.53,0,0,1,443.05,192.6Z"/><path class="cls-23" d="M569.68,204.64c.1,1.49.14,2.91.13,4.26-11.26,8.35-31,4.14-32.51-5.91-1.71-11.58,13.86-13.22,12.72-22.76-.47-3.89,1.36-7,3.7-9.33,19.32-1.15,19.5,2.84,19.5,2.84C582,182.3,569.68,204.64,569.68,204.64Z"/></svg>