<svg xmlns="http://www.w3.org/2000/svg" viewBox="0 0 287 205.68"><defs><style>.cls-1{isolation:isolate;}.cls-2{fill:#fff;opacity:0.54;}.cls-3{fill:#336b14;}.cls-13,.cls-4{fill:#589331;}.cls-5,.cls-7{fill:#6fa11e;}.cls-10,.cls-12,.cls-13,.cls-5{mix-blend-mode:multiply;opacity:0.5;}.cls-6{fill:#244c0a;}.cls-10,.cls-8{fill:#0055ba;}.cls-9{fill:#8cc63f;}.cls-11{fill:#fd9772;}.cls-12{fill:#cf7259;}</style></defs><g class="cls-1"><g id="Layer_1" data-name="Layer 1"><circle class="cls-2" cx="143.5" cy="102.84" r="102.84" transform="translate(-30.69 131.59) rotate(-45)"/><path class="cls-3" d="M201.17,132.9c9.9-2.69,16.09-11.46,18.22-14.94a119.38,119.38,0,0,1-12.54,31.68l.48.26a123,123,0,0,0,10.37-23.68c-.63,11.51,4.19,15.33,4.41,15.49l.33-.43c-.05,0-5.5-4.34-4-17.54,4.82-16.48,4.29-28.1,3.91-28.36l-.18.27-.21.06c0,.11.5,8.2-2.21,20.57l0,0c-.07.13-6.56,12.81-18.71,16.12Z"/><path class="cls-4" d="M199.14,142c4.47-3.67,7.33-.46,7.71,1.91a6.55,6.55,0,0,0,1.57,3.52l.12,0a6.81,6.81,0,0,0,3.73-.38c2.25-.83,6.46.09,5.44,5.79s-17.07,7.88-17.07,7.88S194.67,145.7,199.14,142Z"/><path class="cls-5" d="M199.14,142c4.47-3.67,7.33-.46,7.71,1.91a6.55,6.55,0,0,0,1.57,3.52l.12,0-7.9,13.29S194.67,145.7,199.14,142Z"/><path class="cls-4" d="M195.22,135.8s2.29-10,5.95-10.33,4,2.39,3.33,3.76a4.12,4.12,0,0,0-.43,2.39v0a4.18,4.18,0,0,0,2.13,1.2c1.47.38,3.34,2.36.77,5S195.22,135.8,195.22,135.8Z"/><path class="cls-5" d="M195.22,135.8s2.29-10,5.95-10.33,4,2.39,3.33,3.76a4.12,4.12,0,0,0-.43,2.39Z"/><path class="cls-4" d="M225.58,147s-10.22-1.06-11-4.64,1.89-4.26,3.33-3.78a4.19,4.19,0,0,0,2.43.15h0a4.14,4.14,0,0,0,.94-2.26c.19-1.51,1.94-3.6,4.84-1.37S225.58,147,225.58,147Z"/><path class="cls-5" d="M225.58,147s-10.22-1.06-11-4.64,1.89-4.26,3.33-3.78a4.19,4.19,0,0,0,2.43.15Z"/><path class="cls-6" d="M233.91,95.34c3.23,18.22-7.4,33.12-7.51,33.27l-.44-.32c.11-.14,10.61-14.87,7.41-32.85Z"/><path class="cls-6" d="M234.74,108.76c-.15-.14-1.6,6.61,2.47,12.6C237.21,121.36,240.33,114.25,234.74,108.76Z"/><path class="cls-6" d="M226.4,116.23c-.19.07,1.06-6.72,7.12-10.68C233.52,105.55,233.67,113.31,226.4,116.23Z"/><path class="cls-6" d="M234.2,105.13a41.83,41.83,0,0,0,1.3,6.32l-.12,0v.15c-.11,0-.18,0-.77-2.6a29.72,29.72,0,0,1-.68-3.9Z"/><rect class="cls-6" x="230.44" y="106.23" width="5.32" height="0.27" transform="translate(36.27 270.39) rotate(-64.33)"/><path class="cls-7" d="M227.16,121.63a2.79,2.79,0,1,1,2.79,2.79A2.79,2.79,0,0,1,227.16,121.63Z"/><path class="cls-5" d="M229,124.23a2.55,2.55,0,0,1-.66-1.7A2.59,2.59,0,0,1,230.9,120a2.55,2.55,0,0,1,1.63.6,2.79,2.79,0,0,0-5.37,1.08A2.78,2.78,0,0,0,229,124.23Z"/><circle class="cls-7" cx="227.98" cy="125.36" r="2.26"/><path class="cls-5" d="M227.2,127.47a2.07,2.07,0,0,1,2.87-3,2.26,2.26,0,1,0-2.87,3Z"/><path class="cls-7" d="M224.73,128.61a1.65,1.65,0,1,1,1.65,1.65A1.65,1.65,0,0,1,224.73,128.61Z"/><path class="cls-5" d="M225.81,130.15a1.49,1.49,0,0,1-.39-1A1.51,1.51,0,0,1,227.9,128a1.65,1.65,0,1,0-2.09,2.18Z"/><path class="cls-6" d="M246.27,98.44a5.09,5.09,0,0,0,2.1,1.72A2.5,2.5,0,0,0,251,99.8a4.46,4.46,0,0,0,3.72,2.3A3.41,3.41,0,0,0,258,99.51a3.36,3.36,0,0,0,4.73-.18,5.18,5.18,0,0,0,.94-5,3.54,3.54,0,0,1-3.05.82c-4.93-.37-10-2.1-14.68-.5-1,.33-1.88.81-2.84,1.16a22,22,0,0,0-2.73.78,2.21,2.21,0,0,0-.85,3.31,4.18,4.18,0,0,0,4.25,2C244.64,101.68,247.19,99.61,246.27,98.44Z"/><path class="cls-6" d="M216.52,100.51a2.37,2.37,0,0,1-3.73,2,4.76,4.76,0,0,1,.66,2.42,2.48,2.48,0,0,1-1.21,2.1,1.69,1.69,0,0,1-2.22-.58,3.14,3.14,0,0,1-5.39.91,5.49,5.49,0,0,1-7.37,5,4.52,4.52,0,0,1-5.81,5.41,2.52,2.52,0,0,1-1.92,2.89,3.57,3.57,0,0,1-3.42-1.32V91.11s14.8,2.94,21.12,2.8a50.06,50.06,0,0,0,9-.74Z"/><path class="cls-7" d="M188.88,83.1c1.09,8.65,10.21,26.09,10.3,26.27l-.54.29c-.09-.18-9.27-17.73-10.37-26.49Z"/><path class="cls-7" d="M190.21,85l.62,0a156.54,156.54,0,0,0,2.09,27.43l-.61.11A157.52,157.52,0,0,1,190.21,85Z"/><path class="cls-7" d="M191.79,93.17c3.34,4.9,10.51,6.13,10.58,6.14l-.1.61c-.3,0-7.5-1.29-11-6.41Z"/><path class="cls-7" d="M195.31,102.14s10.35,1.31,15.58,8.45S214.25,128,214.25,128s-10.36-1.31-15.59-8.45S195.31,102.14,195.31,102.14Z"/><path class="cls-5" d="M195.31,102.14C198.68,112.9,214.25,128,214.25,128s-10.36-1.31-15.59-8.45S195.31,102.14,195.31,102.14Z"/><path class="cls-7" d="M191.73,103.49s5.41,4.17,7,10.54-1.38,12.55-1.38,12.55h0c-.22-.17-5.43-4.29-6.94-10.53S191.73,103.49,191.73,103.49Z"/><path class="cls-5" d="M191.73,103.49c-.37,10.67,5.4,22.7,5.57,23.08-.22-.17-5.43-4.29-6.94-10.53S191.73,103.49,191.73,103.49Z"/><path class="cls-7" d="M197.68,98.26a15.31,15.31,0,0,1,18.53,6.3h0a15.33,15.33,0,0,1-18.52-6.3Z"/><path class="cls-5" d="M197.68,98.26c7.26,5,18.18,6.26,18.52,6.3a15.33,15.33,0,0,1-18.52-6.3Z"/><path class="cls-3" d="M86.65,73c-9.9,2.7-16.09,11.46-18.22,15A119.65,119.65,0,0,1,81,56.27L80.49,56A123,123,0,0,0,70.12,79.69c.63-11.52-4.19-15.33-4.41-15.5l-.33.43c.05,0,5.5,4.35,4,17.55-4.82,16.48-4.29,28.09-3.92,28.35l.19-.27.21-.06c0-.1-.5-8.2,2.21-20.56h0c.07-.12,6.56-12.8,18.71-16.12Z"/><path class="cls-4" d="M88.68,63.88c-4.47,3.68-7.33.46-7.71-1.91a6.57,6.57,0,0,0-1.58-3.52l-.11,0a6.84,6.84,0,0,0-3.74.38c-2.24.83-6.45-.09-5.43-5.78s17.07-7.88,17.07-7.88S93.14,60.21,88.68,63.88Z"/><path class="cls-5" d="M88.68,63.88c-4.47,3.68-7.33.46-7.71-1.91a6.57,6.57,0,0,0-1.58-3.52l-.11,0,7.9-13.28S93.14,60.21,88.68,63.88Z"/><path class="cls-4" d="M92.6,70.11s-2.29,10-5.95,10.33-4-2.39-3.34-3.77a4.05,4.05,0,0,0,.44-2.38v0a4.15,4.15,0,0,0-2.13-1.21c-1.47-.37-3.34-2.36-.77-5S92.6,70.11,92.6,70.11Z"/><path class="cls-5" d="M92.6,70.11s-2.29,10-5.95,10.33-4-2.39-3.34-3.77a4.05,4.05,0,0,0,.44-2.38Z"/><path class="cls-4" d="M62.24,58.87s10.22,1.06,11,4.65-1.89,4.26-3.33,3.77a4.13,4.13,0,0,0-2.43-.14h0a4.23,4.23,0,0,0-.93,2.26c-.19,1.51-1.94,3.61-4.84,1.37S62.24,58.87,62.24,58.87Z"/><path class="cls-5" d="M62.24,58.87s10.22,1.06,11,4.65-1.89,4.26-3.33,3.77a4.13,4.13,0,0,0-2.43-.14Z"/><path class="cls-6" d="M53.91,110.56c-3.23-18.21,7.4-33.12,7.5-33.27l.44.32c-.1.15-10.6,14.88-7.4,32.85Z"/><path class="cls-6" d="M53.08,97.14c.15.14,1.6-6.61-2.47-12.59C50.61,84.55,47.49,91.66,53.08,97.14Z"/><path class="cls-6" d="M61.42,89.68c.19-.08-1.06,6.71-7.12,10.67C54.3,100.35,54.15,92.59,61.42,89.68Z"/><path class="cls-6" d="M53.62,100.77a42.94,42.94,0,0,0-1.3-6.31l.12,0v-.15c.11,0,.18,0,.77,2.6a29.44,29.44,0,0,1,.68,3.9Z"/><rect class="cls-6" x="52.06" y="99.41" width="5.32" height="0.27" transform="translate(-58.7 105.74) rotate(-64.33)"/><path class="cls-7" d="M60.66,84.28a2.79,2.79,0,1,1-2.79-2.79A2.79,2.79,0,0,1,60.66,84.28Z"/><path class="cls-5" d="M58.84,81.67a2.57,2.57,0,0,1-3.55,3.69,2.79,2.79,0,1,0,3.55-3.69Z"/><circle class="cls-7" cx="59.83" cy="80.55" r="2.26"/><path class="cls-5" d="M60.62,78.44a2,2,0,0,1,.53,1.37,2.09,2.09,0,0,1-2.08,2.09,2.11,2.11,0,0,1-1.32-.48,2.26,2.26,0,1,0,2.87-3Z"/><path class="cls-7" d="M63.09,77.29a1.65,1.65,0,1,1-1.65-1.65A1.65,1.65,0,0,1,63.09,77.29Z"/><path class="cls-5" d="M62,75.75a1.52,1.52,0,0,1-2.1,2.18,1.66,1.66,0,0,0,3.18-.64A1.64,1.64,0,0,0,62,75.75Z"/><path class="cls-6" d="M41.55,107.47a5.1,5.1,0,0,0-2.1-1.73,2.5,2.5,0,0,0-2.58.37,4.47,4.47,0,0,0-3.72-2.31,3.43,3.43,0,0,0-3.34,2.59,3.36,3.36,0,0,0-4.73.19,5.17,5.17,0,0,0-.94,5,3.51,3.51,0,0,1,3.05-.82c4.93.36,10,2.09,14.68.49,1-.33,1.88-.8,2.84-1.16a24.44,24.44,0,0,0,2.73-.77,2.23,2.23,0,0,0,.85-3.32A4.22,4.22,0,0,0,44,104C43.18,104.22,40.63,106.29,41.55,107.47Z"/><path class="cls-6" d="M71.3,105.4a2.4,2.4,0,0,1,1.22-2.19,2.44,2.44,0,0,1,2.51.13,4.62,4.62,0,0,1-.66-2.42,2.45,2.45,0,0,1,1.21-2.09,1.7,1.7,0,0,1,2.22.57,3.15,3.15,0,0,1,5.39-.91,5.48,5.48,0,0,1,7.37-5,4.52,4.52,0,0,1,5.81-5.42,2.51,2.51,0,0,1,1.92-2.88,3.53,3.53,0,0,1,3.41,1.32v28.29s-14.79-2.93-21.11-2.8a50.45,50.45,0,0,0-9,.75Z"/><path class="cls-7" d="M98.94,122.81c-1.09-8.65-10.21-26.1-10.31-26.27l.55-.29c.09.18,9.27,17.72,10.37,26.48Z"/><path class="cls-7" d="M97.61,120.88l-.62,0A156.59,156.59,0,0,0,94.9,93.42l.61-.11A157.57,157.57,0,0,1,97.61,120.88Z"/><path class="cls-7" d="M96,112.74c-3.34-4.9-10.51-6.14-10.59-6.15l.11-.61c.3,0,7.5,1.3,11,6.41Z"/><path class="cls-7" d="M92.51,103.76s-10.35-1.3-15.58-8.44S73.57,77.9,73.57,77.9s10.36,1.32,15.59,8.45S92.51,103.76,92.51,103.76Z"/><path class="cls-5" d="M92.51,103.76C89.14,93,73.57,77.9,73.57,77.9s10.36,1.32,15.59,8.45S92.51,103.76,92.51,103.76Z"/><path class="cls-7" d="M96.08,102.41s-5.4-4.16-7-10.53,1.38-12.55,1.38-12.55h0c.22.17,5.44,4.29,6.95,10.53S96.08,102.41,96.08,102.41Z"/><path class="cls-5" d="M96.08,102.41c.38-10.66-5.39-22.7-5.57-23.07.22.17,5.44,4.29,6.95,10.53S96.08,102.41,96.08,102.41Z"/><path class="cls-7" d="M90.14,107.65a17.56,17.56,0,0,1-10.4.19,17.46,17.46,0,0,1-8.13-6.5h0A17.47,17.47,0,0,1,82,101.16,17.4,17.4,0,0,1,90.14,107.65Z"/><path class="cls-5" d="M90.14,107.65c-7.26-5-18.18-6.26-18.52-6.31A17.47,17.47,0,0,1,82,101.16,17.4,17.4,0,0,1,90.14,107.65Z"/><path class="cls-8" d="M189.5,105.15A46.26,46.26,0,0,1,168,142c-.58.38-1.18.74-1.79,1.09a46.34,46.34,0,0,1-61.24-14c-.57-.84-1.12-1.69-1.64-2.58-.14-.22-.26-.44-.39-.66l-.71-1.27c-.42-.81-.83-1.63-1.21-2.45a45.28,45.28,0,0,1-2.37-6.36c-.21-.72-.4-1.44-.57-2.17-.25-1-.45-2-.62-3.07a46.36,46.36,0,0,1,55.91-52.94c.38.08.76.17,1.14.28,1.25.3,2.48.67,3.69,1.08.87.3,1.73.62,2.59,1,1.09.45,2.16.94,3.22,1.47l.67.34a47.42,47.42,0,0,1,4.37,2.6c1.08.73,2.14,1.5,3.17,2.33A45.88,45.88,0,0,1,181.7,77c.61.91,1.18,1.84,1.74,2.8.32.57.64,1.15.94,1.73.46.89.89,1.79,1.29,2.69A46,46,0,0,1,189.5,105.15Z"/><path class="cls-9" d="M138.92,142.6a2.15,2.15,0,0,0,1.69-.74.55.55,0,0,0,.07-.25.45.45,0,0,0-.18-.29c-.19-.13-.4-.07-.61-.11a20.65,20.65,0,0,1-2.28-.7,3.94,3.94,0,0,0-2.35-.12,1.85,1.85,0,0,0-1.34,1.76,1.05,1.05,0,0,0,.18.54,1.26,1.26,0,0,0,1.35.27,11.8,11.8,0,0,1,1.37-.49C137.52,142.36,138.22,142.64,138.92,142.6Z"/><path class="cls-9" d="M189.5,105.15h0a11.28,11.28,0,0,1-1.2.51,9.09,9.09,0,0,0-3.54,1.77,2.23,2.23,0,0,0-.76,1.12c-.11.5.06,1-.1,1.52a1.14,1.14,0,0,1-1.28.69,1.13,1.13,0,0,1-.82-1.2,2.23,2.23,0,0,0,.08-.67c-.14-.7-1.17-.44-1.83-.19a3.79,3.79,0,0,1-1.33.22,4,4,0,0,1-1.08-.16c-.48-.14-1.62-.68-1.22-1.4.1-.17.31-.28.34-.47a1.07,1.07,0,0,0-.06-.35.5.5,0,0,1,.47-.54.52.52,0,0,1,.49.53,1.73,1.73,0,0,1-.11.32,1,1,0,0,0,1.57,1.14,3,3,0,0,0,.92-2.17c.16-1.43.27-3.07-.71-4.11a4.09,4.09,0,0,0-3.28-1h-.18a10.94,10.94,0,0,1-3.7,0c-.63-.18-1.2-.52-1.82-.72a3.33,3.33,0,0,0-2.92.31,2.2,2.2,0,0,0-.81,2.68c.15.33.41.59.56.93a4.59,4.59,0,0,1,.08,1.85c0,.62.15,1.36.73,1.59,1.24.17,1.77-1.51,2.68-2.36a2.5,2.5,0,0,1,3.34,0c.28.27.38.63.06.89s-.9,0-1.29-.08a1.2,1.2,0,0,0-.5.05,2.63,2.63,0,0,0-1,.41.94.94,0,0,0-.38.93,1.56,1.56,0,0,0,.7.78c.28.23.57.54.52.89a1,1,0,0,1-.54.63.3.3,0,0,1-.11,0,.17.17,0,0,1-.13-.08c-.26-.3-.23-.86-.6-1s-.53.09-.75.24c-.56.37-.87-.09-1.43-.19-.37-.06-.76,0-1.13-.11-1.31-.3-1.83-1.9-1.87-3.24,0-.79-.16-1.83-.94-2-1-.16-1.88,1.62-2.73,1-.63-.43-.08-1.42.53-1.88a5.29,5.29,0,0,0,2-2.05c.34-.9-.41-2.22-1.33-1.93s-1,2-2,2.32-2.21-1.12-2.94-.38c-.41.42-.14,1.16.3,1.55s1,.65,1.34,1.14.22,1.35-.36,1.42c-.86.12-.74-1-1.25-1.27-1.11-.56-.43-.28-1.49,0s-.51,1.11-2.13.27a5.31,5.31,0,0,1-2.09-2.06.68.68,0,0,1,.14-1c.91-1,1.77-2.43,1.14-3.63A2.84,2.84,0,0,0,151,95.58c-1.06,0-2.1.38-3.16.35-1.56-.05-4.1-1.86-4-3.58a3.14,3.14,0,0,0-.15-2c-.69-1.06-2.42-.5-3.51-1.15-.6-.36-1.14-1.12-1.79-.88s-.64,1-.43,1.54a3,3,0,0,0,2.16,1.84,1,1,0,0,1,.58.21c.26.25.13.7-.11,1s-.58.42-.8.7c-1.59,2,2.61,5.27,3.34,6.68,1.32,2.55-1.63,3.93-3.58,4.76-1.55.65-3.33,1.64-3.42,3.31,0,.62.18,1.22.14,1.84-.1,1.28-1.29,2.26-1.44,3.54a3.79,3.79,0,0,0,1.29,2.91,15.9,15.9,0,0,1,2.25,2.4,2.33,2.33,0,0,1,.37,1.76c-.48,1.79-3.61,1.68-4.06,3.48a4.27,4.27,0,0,1-.23,1,1.76,1.76,0,0,1-.9.65l-4,1.75a3.3,3.3,0,0,0-1.66,1.19,20.33,20.33,0,0,0-1.06,2.08,7.7,7.7,0,0,1-1.24,1.71c-.33.33-.61.69-.9,1a5.8,5.8,0,0,1-.47.52,3.91,3.91,0,0,0-.85,1c-.17.4,0,1,.41,1.08a1,1,0,0,0,.38,0c.39-.1.75-.31,1.14-.42a1.72,1.72,0,0,1,.64-.1,1,1,0,0,1,.54.14,5.26,5.26,0,0,1,.63.62,4.47,4.47,0,0,0,2.88.67,12,12,0,0,1,3.67.5c1.51.5,3,1.35,4.58,1.1a6,6,0,0,0,2.12-.89c1.16-.71,2.28-1.53,3.59-1.44a7.77,7.77,0,0,1,2,.59,9.77,9.77,0,0,0,5.06.41,1.09,1.09,0,0,0,.91-.53,1,1,0,0,0,0-.57,3.47,3.47,0,0,0-.68-1.56c-.53-.69-1.39-1.45-1-2.25.26-.59,1-.76,1.41-1.3a2.45,2.45,0,0,0,.28-1.18c.17-2.37,1.44-4.88,3.71-5.58.42,2.08-1.09,4-2.28,5.74a5.22,5.22,0,0,0-.91,1.92,2.11,2.11,0,0,0,.55,2,9.47,9.47,0,0,0,2.06.88c1.36.7,2.17,2.7,3.69,2.48,1.3-.19,1.71-1.91,1.48-3.2s-.77-2.67-.21-3.86c.19-.41.64-.8,1.06-.63a.9.9,0,0,1,.44.53c.51,1.3-.31,2.75-.1,4.13.17,1.19,1.09,2.13,1.53,3.24a5.8,5.8,0,0,1-.91,5.31c-.14.2-.28.39-.43.57a13,13,0,0,1-1.85,1.79c-.6.49-1.23.95-1.86,1.4l-.08,0c.71-.24,1.42-.49,2.13-.77,1.06-.41,2.11-.86,3.15-1.36s2.07-1,3.09-1.62c.31-.17.6-.35.9-.54L168,142l0,0h0l.14-.1c.3-.19.6-.38.89-.58s.37-.24.55-.38l.68-.47c.37-.26.74-.53,1.1-.82.2-.15.41-.3.61-.47l.64-.51c.32-.27.65-.54,1-.82s.64-.55.94-.84.87-.8,1.29-1.22c.67-.65,1.31-1.33,1.93-2h0c.33-.37.65-.73,1-1.1s.8-1,1.17-1.46c.22-.27.42-.54.62-.82s.55-.75.82-1.14l.15-.22c.2-.3.41-.6.61-.91l.21-.33c.15-.24.31-.49.45-.73,0-.07.08-.14.13-.2l.6-1,.23-.39.25-.47a0,0,0,0,0,0,0c.06-.1.11-.2.16-.3s.24-.44.35-.67a2.1,2.1,0,0,0,.15-.3c.08-.15.16-.3.23-.46s.23-.46.33-.69a1.73,1.73,0,0,0,.14-.32c.05-.09.09-.17.13-.26a1.33,1.33,0,0,0,.09-.21l.24-.55a.18.18,0,0,0,0-.1l.18-.4.27-.69a1,1,0,0,0,.09-.22h0l.26-.66.21-.57c.13-.36.25-.72.37-1.08.17-.51.33-1,.48-1.54s.24-.85.35-1.28.23-.89.33-1.33c.21-.88.38-1.77.54-2.67.1-.62.2-1.25.28-1.87,0-.18,0-.37.07-.55s.07-.58.09-.87a.08.08,0,0,0,0,0c0-.16,0-.31,0-.47l.09-1.19c0-.14,0-.29,0-.44ZM161.83,123.4a2.22,2.22,0,0,1-.5,1.14,1.51,1.51,0,0,1-.82.54,1.53,1.53,0,0,1-1-.2,4.42,4.42,0,0,1-1.79-2.14c-.41-.86-.67-1.78-1.08-2.63a10.59,10.59,0,0,1-.85-1.92,3,3,0,0,0-.23-.77.67.67,0,0,0-.66-.38c-.18,0-.35.18-.52.13s-.2-.15-.27-.26a2.18,2.18,0,0,1-.46-2.07,4.66,4.66,0,0,0,.4-.68,2.56,2.56,0,0,0,0-.73,1.56,1.56,0,0,1,1.13-1.49c-.22-.77-1-1.27-1.21-2a3.63,3.63,0,0,0-.16-.81,1.54,1.54,0,0,0-1.25-.7c-.71-.1-1.51,0-1.5-1a.54.54,0,0,1,.25-.49c.64-.39,1.68.14,2.4,0a5.85,5.85,0,0,1,1.62-.37,1.36,1.36,0,0,1,1.15.79,1.38,1.38,0,0,1-.13,1.4c-.23.32-.62.57-.68,1a.69.69,0,0,0,.87.71c.34-.13.61-.53,1-.45s.41.62.27,1-.35.76-.2,1.1c-.07.31-.47.42-.79.41a2.07,2.07,0,0,0-1,0,.74.74,0,0,0-.38.71.72.72,0,0,0,.56.57,2,2,0,0,0,.85-.17.74.74,0,0,1,.81.13.86.86,0,0,1,.12.5,4.43,4.43,0,0,1-.15,1.15c-.08.32-.17.72.06,1s.9,0,1.22-.37.82-.75,1.21-.47a.73.73,0,0,1,.25.44c.24,1-.69,2-.67,3.09C159.73,120.68,162,121.74,161.83,123.4Zm.16-6.29c.2-.82,1.45-.63,2-.55a.81.81,0,0,1,.46.17c.18.19.12.49.12.75a1.51,1.51,0,0,0,.27.85.31.31,0,0,0,.17.15.37.37,0,0,0,.21-.06c.27-.16.83-.54,1.16-.36.61.31,0,1.47-.23,1.85a2.38,2.38,0,0,0-.47,1,5.78,5.78,0,0,0,0,.58.91.91,0,0,1-.82.93,1.06,1.06,0,0,1-.73-.35,1.48,1.48,0,0,1-.53-.89,6.52,6.52,0,0,1,.1-1,1.61,1.61,0,0,0-.44-1.22C162.9,118.52,161.78,117.94,162,117.11Z"/><path class="cls-9" d="M182,88.53A17.9,17.9,0,0,1,180.1,88c-1.83-.42-3.58.8-5.13,1.86a1.27,1.27,0,0,1-1,.32c-.58-.14-.72-1-1.26-1.23-.76-.36-1.45.62-2.23,1a2.25,2.25,0,0,1-2-.32,18.72,18.72,0,0,1-1.6-1.35c-2.49-2.07-6-2.23-9.26-2-.78,0-1.76,0-2.13-.67a1.7,1.7,0,0,1,.18-1.58,8.51,8.51,0,0,1,3.81-3,1.51,1.51,0,0,1,.71-.22c.54,0,.86.57,1.3.88,1,.7,2.37.08,3.28-.73s1.73-1.84,2.92-2.06c.55-.1,1.12,0,1.67-.13s1.1-.56,1-1.12-.44-.73-.58-1.14c-.3-.9.83-1.73,1.77-1.61a7.44,7.44,0,0,1,2.55,1.27,2.39,2.39,0,0,0,2.67.11.79.79,0,0,0,.24-.34c.09-.4-.33-.72-.71-.89a14,14,0,0,0-3-1,5.23,5.23,0,0,1-2.73-.94c-.72-.65-.73-2.12.2-2.4a3.34,3.34,0,0,1,1.43.12c.47.07,1.08-.08,1.18-.56A5.67,5.67,0,0,1,172.11,68a2.32,2.32,0,0,1,.12-1.33A45.88,45.88,0,0,1,181.7,77s0,0,0,.08c-.18,1.26-.17,2.73.79,3.58a5.59,5.59,0,0,0,1.9.87c.46.89.89,1.79,1.29,2.69-.75.83-2.29,1.29-2.3,2.43a6.2,6.2,0,0,1,.1,1A1.3,1.3,0,0,1,182,88.53Z"/><path class="cls-9" d="M185,96.15a.66.66,0,0,0-.69.22.82.82,0,0,0-.13.73,1.05,1.05,0,0,1,.11.48.44.44,0,0,1-.69.19.88.88,0,0,1-.25-.79.38.38,0,0,0,0-.5,1.06,1.06,0,0,0-.45-.29,1.12,1.12,0,0,0-.77-.15c-.1,0-.18.07-.28.08-.28,0-.44-.35-.36-.61a2.18,2.18,0,0,1,.5-.67,2.41,2.41,0,0,0,.58-1.38,1.44,1.44,0,0,1,.08-.55c.19-.44.8-.48,1.29-.44.47.79,1,1.68,2,1.81a1.82,1.82,0,0,1,.7.13,1.2,1.2,0,0,1,.43.66,1.17,1.17,0,0,1-.43,1.38C186,96.9,185.65,96.34,185,96.15Z"/><path class="cls-9" d="M165.82,93.72c.63,0,1.06.43,1.66.66a.72.72,0,0,0,.35.08.55.55,0,0,0,.25-.1,1.5,1.5,0,0,0,.65-1.8,1.28,1.28,0,0,0-.88-.7c-.19,0-.43-.06-.53-.23a.61.61,0,0,1,0-.33,2.76,2.76,0,0,0-.72-1.91c-.44.09-1,.23-1.13.65a3.09,3.09,0,0,1-.18.51,2,2,0,0,1-.29.29,1.66,1.66,0,0,0-.25,1.58,2.38,2.38,0,0,0,.34.86A1,1,0,0,0,165.82,93.72Z"/><path class="cls-9" d="M169.85,68.74c-.34,0-.65-.25-1-.23s-.62.3-.89.52-.67.4-1,.2-.25-.75,0-1.06.62-.51.85-.84.2-.9-.18-1a2.34,2.34,0,0,0-.53,0c-.51,0-.86-.54-1-1a11.89,11.89,0,0,0-.28-1.49,5.38,5.38,0,0,0-.77-1.19,2.51,2.51,0,0,1-.44-.88,45,45,0,0,1,4.38,2.6,1.94,1.94,0,0,0-.07.33,2,2,0,0,0,.67,1.48,3.62,3.62,0,0,1,.94,1.37C170.73,68,170.41,68.74,169.85,68.74Z"/><path class="cls-9" d="M168.65,70.8c.13-.4.72-.31.76-.74s-.65-.64-1-.53a4.36,4.36,0,0,0-1,.47.51.51,0,0,0-.34.46,7.38,7.38,0,0,0-.16.94,2.45,2.45,0,0,0,0,1.11,1.07,1.07,0,0,0,.78.73c.12,0,.26,0,.38,0,.39,0,.78.28,1.15.14a.8.8,0,0,0,.39-1,2.4,2.4,0,0,0-.66-1C168.77,71.29,168.57,71.05,168.65,70.8Z"/><path class="cls-9" d="M124.43,106.89c.17,1.69-.13,3.23-1.73,4-.7.33-1.56.37-2.13.9-.76.72-.64,1.92-.57,3s-.09,2.33-1.06,2.71-2-.47-2.69-1.26-1.17-1.45-.93-2.27a4.83,4.83,0,0,1,.41-.82c.93-1.85-1.29-5.23-3.5-4.51-1,.33-1.45,1.49-2.17,2.27a5.07,5.07,0,0,1-1.27.93,3.54,3.54,0,0,1-1.25.45c-1.53.16-3-1.35-4.46-.83a3.48,3.48,0,0,0-1.26,1l-2.22,2.32a10.58,10.58,0,0,0-.94,1.07c-.21-.72-.4-1.44-.57-2.17.3-.63.56-1.27.83-1.91.36-.9.72-1.8,1.09-2.69.64-1.57,1.37-3.25,2.82-4.13a8.72,8.72,0,0,0,1.65-1,7.94,7.94,0,0,0,1.1-1.85c1.08-1.84,3.3-2.17,4.59-3.71a4.84,4.84,0,0,0,.69-3.36c-.07-1.64-.1-3.45.93-4.73a5.72,5.72,0,0,0,.79-1c.17-.33.23-.71.38-1.06.49-1.18,1.89-1.69,3.16-1.87A4.31,4.31,0,0,0,117.3,86c1.9-.91.25-2.92.17-4.34a8.79,8.79,0,0,1,.58-2.88A3.79,3.79,0,0,0,118,76c-.35-.63-1-1-1.34-1.67-1.22-2.06.87-4.12,2.07-5.55a6.94,6.94,0,0,0,2-3.66c0-.28-.06-.66-.35-.7a.57.57,0,0,0-.26,0,4.92,4.92,0,0,0-2.82,2.38,2.39,2.39,0,0,1-.66.95c-.33.22-.89.11-1-.27a.93.93,0,0,1,0-.33c.16-.68.31-1.35.49-2a46.91,46.91,0,0,1,4-2.56,46.19,46.19,0,0,1,33.22-5c-.11.29-.33.55-.47.84s-.13.9.24,1a.69.69,0,0,0,.76-.37c.16-.27.21-.58.35-.85a1.46,1.46,0,0,1,.27-.38c1.24.31,2.47.68,3.68,1.09a1.27,1.27,0,0,1-.06,1,2.94,2.94,0,0,1-.62.6,2.58,2.58,0,0,0-.64.86c-.13.28-.15.71.15.82a.65.65,0,0,0,.43-.05l2.36-.86a1.63,1.63,0,0,0,.83-.51,1.32,1.32,0,0,0,.14-.92c1.09.45,2.16.94,3.22,1.47a2,2,0,0,1,.19.68,1,1,0,0,1-.86,1.18,2.41,2.41,0,0,0-.6,0,.63.63,0,0,0-.21,1,1.27,1.27,0,0,0,1.08.35,1.39,1.39,0,0,1,.61,0,.71.71,0,0,1,.09,1.14,1.55,1.55,0,0,1-1.3.23,7.76,7.76,0,0,0-1.34-.27c-.93,0-2,.66-2.72.13-.42-.28-.57-.82-.86-1.23s-.94-.69-1.27-.3a.76.76,0,0,0-.14.57,2,2,0,0,0,1.83,1.47,14.47,14.47,0,0,0,2.52-.22,6.28,6.28,0,0,1,2.71.4A2.77,2.77,0,0,1,165.47,68a1.35,1.35,0,0,1-1,1.8c-.6,0-1.1-.43-1.63-.72a2.94,2.94,0,0,0-2.9.07.74.74,0,0,0-.43.55c0,.47.66.63,1.1.44s.81-.57,1.28-.55c.78,0,1.24,1.08,2,1.08.31,0,.61-.16.92-.12.59.1.75.92.55,1.49a5.21,5.21,0,0,0-.54,1.72c0,.41.25.79.27,1.2a2.06,2.06,0,0,1-.74,1.46,9.27,9.27,0,0,1-3.57,1.94,2.92,2.92,0,0,1-1.74.2c-.38-.12-.72-.38-1.1-.46s-.53,0-.79-.09a1.67,1.67,0,0,1-1.14-2.17c.15-.42.45-.77.62-1.18a1,1,0,0,0-.23-1.2,1.42,1.42,0,0,1,1.64-.37,8.44,8.44,0,0,1,1,.7,1.56,1.56,0,0,0,1.56.1,1.09,1.09,0,0,0,.47-1.4c-.33-.6-1.16-.65-1.83-.52a3,3,0,0,1-2,0c-.25-.15-.48-.39-.78-.38s-.62.57-1,.71c-.56.2-1-.48-1.22-1A2.19,2.19,0,0,1,155.41,70c.14,0,.29-.11.34-.24a.44.44,0,0,0-.07-.41A2.21,2.21,0,0,0,154,68.5a9.25,9.25,0,0,1-2-.26c-1-.33-1.67-1.23-2.67-1.41a2,2,0,0,0-2.19,1.23c-.41,1.07.09,2.48-.72,3.29-.38.39-1,.59-1.13,1.13s.62,1.07,1.23,1a6.34,6.34,0,0,0,1.69-.74,7.21,7.21,0,0,1,3.07-.48,2.83,2.83,0,0,1,2.49.8,1.86,1.86,0,0,1-.84,2.53c-.46.25-1.1.52-1,1s.51.55.89.57a2.3,2.3,0,0,1,1.12.17.35.35,0,0,1,.17.21.38.38,0,0,1-.06.23c-.31.54-1,.68-1.51,1A7.11,7.11,0,0,0,151.05,81a4,4,0,0,1-1.56,1.44,1.28,1.28,0,0,1-1.07.15c-.55-.24-.59-1-1-1.45a3.51,3.51,0,0,0-1.17-.73,1.28,1.28,0,0,1-.8-1,6.68,6.68,0,0,1,.25-.84,1,1,0,0,0-.47-1,1,1,0,0,0-1.13.11c-.57.49-.39,1.41-.09,2.1a2.8,2.8,0,0,1,.37,2.17.71.71,0,0,1-.36.4c-.44.2-.91-.22-1.13-.63s-.43-.92-.87-1.1-1,0-1.27-.38a1.29,1.29,0,0,1-.13-.52c-.26-1.5-1.77-1.2-2.84-1.18-1.34,0-2.76.39-4.07-.08a8.1,8.1,0,0,1-2-1.26,4.41,4.41,0,0,0-2.1-1,1.79,1.79,0,0,0-1.92,1,7.69,7.69,0,0,0-.12,1.27c-.06.43-.33.89-.76.91s-.68-.31-.86-.65a2.2,2.2,0,0,1-.17-1.82c.25-.64.87-1,1.24-1.63a.89.89,0,0,0,.17-.54,1,1,0,0,0-.19-.43,8.34,8.34,0,0,0-2.44-2.44,2.62,2.62,0,0,0-1.18-.47,3,3,0,0,0-1.68.58,2,2,0,0,0-1,1,1.85,1.85,0,0,0,.36,1.47,1,1,0,0,0,.32.34c.23.1.49,0,.74,0a1.43,1.43,0,0,1,.87.59c.49.57,1,1.38.58,2s-1.69.67-1.81,1.46c0,.33.14.65.11,1-.08,1-1.71,1-2,1.91a1.8,1.8,0,0,0,0,.73,2.43,2.43,0,0,0,.56,1.4,6.66,6.66,0,0,0,1.49.73c1.16.63,1,1.84,1.24,2.92s1.4,1.86,1.51,3a15,15,0,0,1-.47,2.44c-.08,1.12.62,2.16.67,3.27.07,1.9-1.72,3.53-1.55,5.42C123.5,103,124.25,105,124.43,106.89Z"/><path class="cls-9" d="M109,115.89c1.08.38,1.15,1.88.88,3a17.67,17.67,0,0,0-1,4.56c0,.86.25,1.72.22,2.58a2.37,2.37,0,0,1-1.15,2.16,6.83,6.83,0,0,1-1.76.3,2.93,2.93,0,0,0-1.25.58c-.57-.83-1.12-1.69-1.64-2.58.44-.52.87-1.07.74-1.53-.27-1-1.16-.9-1.83-.4-.43-.81-.84-1.63-1.21-2.45.37-1,.42-2.12,1.67-2.7a14.83,14.83,0,0,0,2.79-1.22,17.86,17.86,0,0,0,1.51-1.62A2,2,0,0,1,109,115.89Z"/><path class="cls-9" d="M104.19,95a3.1,3.1,0,0,0,.3-.57c.26-.88-1-1.65-.78-2.54.15-.66,1-.89,1.66-.8a1.3,1.3,0,0,1,1.14.69,2.32,2.32,0,0,1,.09.65c.17,1.6,3.39,2.8,1.18,4.51C106.38,98.07,102.91,97.29,104.19,95Z"/><path class="cls-9" d="M114.51,118.59c-.6.06-.94.74-1,1.35a10.94,10.94,0,0,1,0,1.81,1.29,1.29,0,0,0-.08.61c.1.45.77.54,1.13.26a2.17,2.17,0,0,0,.62-1.22,2,2,0,0,1,.62-1.21,2.13,2.13,0,0,0,.42-.3.8.8,0,0,0,0-.91,1.34,1.34,0,0,0-1.6-.53Z"/><path class="cls-9" d="M107.51,88.79a1.26,1.26,0,0,1,.63-1.42.66.66,0,0,1,.43-.08c.31.07.45.42.54.73l.5,1.68a12,12,0,0,1,0,2.46c0,.39,0,.88-.38,1a.62.62,0,0,1-.7-.27,1.71,1.71,0,0,1-.25-.76,14.94,14.94,0,0,1-.32-1.75A6.36,6.36,0,0,0,107.51,88.79Z"/><path class="cls-9" d="M124.58,79.65c.08-.48-.66-1.19-.29-1.62.71-.83,1.45,1.14,1.44,1.6a4.34,4.34,0,0,0,0,1.08,3.2,3.2,0,0,0,.37.71,1.11,1.11,0,0,1,.2.76.49.49,0,0,1-.58.41.73.73,0,0,1-.23-.16,4,4,0,0,0-.82-.53,1.82,1.82,0,0,1-.43-.24,1.07,1.07,0,0,1,0-1.39A1.63,1.63,0,0,0,124.58,79.65Z"/><path class="cls-9" d="M124.76,84.55c-.1-.39-.31-.75-.43-1.13a.37.37,0,0,1,0-.25.34.34,0,0,1,.21-.21c.66-.29,1.91.83,2.07,1.42s0,.93.12,1.35a3,3,0,0,0,.58.71,4.77,4.77,0,0,1,.52.8l.61,1.12c.12.22.24.5.1.71s-.58.16-.77-.07a3.66,3.66,0,0,1-.4-.79A3.71,3.71,0,0,0,125.9,87a2.13,2.13,0,0,1-1.14-1.43A7,7,0,0,0,124.76,84.55Z"/><path class="cls-9" d="M145.7,82.81c0-.34-.42-.84-.18-1.15.43-.56,1.91.74,2.07,1.18a2.07,2.07,0,0,1,.08,1,2.48,2.48,0,0,1-.22.9,1,1,0,0,1-.7.58,1.24,1.24,0,0,1-1.06-.42,1.16,1.16,0,0,1-.44-.82C145.26,83.6,145.68,83.25,145.7,82.81Z"/><path class="cls-9" d="M131.66,109.24c-.16-.56-.65-1-.69-1.61a1.07,1.07,0,0,1,.46-1,.92.92,0,0,1,1,0,2.23,2.23,0,0,1,.51.73,3.34,3.34,0,0,0,.77.94,3.63,3.63,0,0,1,.83.78,1.79,1.79,0,0,1-1.18,2.65C131.71,111.89,132,110.32,131.66,109.24Z"/><path class="cls-9" d="M106.1,87.55a5.31,5.31,0,0,1-.79-1,1.53,1.53,0,0,1-.27-.89.64.64,0,0,1,.63-.59c.36,0,.54.45.65.8l.31,1a.84.84,0,0,1,0,.66c-.13.19-.51.15-.5-.08Z"/><path class="cls-10" d="M105,76.46a50.38,50.38,0,0,1,75,44,50.77,50.77,0,0,1-1.55,12.47,46.19,46.19,0,0,0,9.22-17c.22-.71.41-1.43.58-2.16a45.9,45.9,0,0,0,1.29-10.88,46.37,46.37,0,0,0-37.24-45.46,45.75,45.75,0,0,0-9.13-.91A46.32,46.32,0,0,0,105,76.46Z"/><path class="cls-10" d="M168,142c-.58.38-1.18.74-1.79,1.09a46.34,46.34,0,0,1-61.24-14c-.57-.84-1.12-1.69-1.64-2.58-.14-.22-.26-.44-.39-.66l-.71-1.27c-.42-.81-.83-1.63-1.21-2.45a45.28,45.28,0,0,1-2.37-6.36c-.21-.72-.4-1.44-.57-2.17-.25-1-.45-2-.62-3.07,8.07.61,21.12,3.87,32.13,17.16C142.78,143.58,156.08,146.28,168,142Z"/><path class="cls-11" d="M287,55.51c-33.09.34-67.18.29-72-.81-9.62-2.21-21.2-22.44-45.76-29.08-6.39-1.73-62.72,12-68,25.56a5.44,5.44,0,0,0-.39,1.59s-6.36,3.68-5.27,9.78a10.52,10.52,0,0,0,1.74,4.07c.24.37.52.74.83,1.13,0,0-5.59,4.83-4.67,9.23a4.55,4.55,0,0,0,.68,1.64,5.81,5.81,0,0,0,5.61,2.59,10.52,10.52,0,0,0,2.28-.43c.38-.12.7-.24.94-.34l.49-.2C113.92,65.37,126.32,60,133.66,58.12A30.38,30.38,0,0,1,140,57.05S154.14,61,159.3,67.47s10,22.87,30.86,26.66c11.11,2,56.63,2.58,96.84,2.66Z"/><path class="cls-12" d="M163.69,43.15a14.66,14.66,0,0,0,5.8-2.7,17.77,17.77,0,0,1-7.89,1.31A68.74,68.74,0,0,0,143.78,36c-6.52-1.13-19.09-4-21.27,7.16a10.43,10.43,0,0,0-.16,3.12l.15,1a10.69,10.69,0,0,0,1.33,3.36c-2.25,1.3-7.93,4.34-13.3,5.13h0a14,14,0,0,1-4.91,0,5.76,5.76,0,0,1-2.21-1.2l-.07-.06,0-.05a7.46,7.46,0,0,1-2.08-3.33,5.43,5.43,0,0,0-.38,1.58s-.07,2.92,2.18,4.11h0l0,0,.28.13c7.9,3.79,18.7-2.24,22-4.32.33.37.67.73,1,1.08a57.41,57.41,0,0,0-12.88,9.86,37.39,37.39,0,0,1-10.74,2.42c-4.09.13-6.16-1.7-7.19-3.51a10.52,10.52,0,0,0,1.74,4.07c.24.37.52.74.83,1.13,3.39,1.5,7.95.78,12.07-.52l-.58.67c-2.5,2.93-5.55,7.13-7.73,10.22C98,81.18,95,78.79,93.45,77a4.55,4.55,0,0,0,.68,1.64,5.81,5.81,0,0,0,5.61,2.59h0l.57-.06.15,0,.39-.06.21,0,.26-.06.28-.06h0l.38-.1h0a8.87,8.87,0,0,0,.94-.33h0l.48-.21c10.3-14.62,22.45-20,29.83-22A31.6,31.6,0,0,1,140,57.05C121.27,52.77,122,39,129.7,37.17s21.34,1.84,32,6.88,17.28,4,17.28,4A58.08,58.08,0,0,1,163.69,43.15Z"/><path class="cls-11" d="M189.71,139.06c-.24-.37-.52-.75-.82-1.13,0,0,5.57-4.83,4.66-9.23a4.9,4.9,0,0,0-.67-1.64,5.83,5.83,0,0,0-5.62-2.59h0c-.19,0-.38,0-.57.06h0l-.15,0-.35.06-.21,0-.17,0-.09,0-.28.07h0l-.38.1c-.38.12-.7.23-.94.33h0l-.1,0-.17.07-.07,0h0l-.12.05h0a65.51,65.51,0,0,1-4.74,6c-.4.45-.81.89-1.21,1.32l-.51.52a56,56,0,0,1-4.27,4l-.48.39q-.4.35-.81.66c-.42.33-.82.65-1.23.95l-1,.74-.51.36-.5.34c-.34.23-.67.45-1,.66s-.66.43-1,.63l-1,.59-.76.43-.22.12c-.31.18-.63.35-.95.52s-.63.33-1,.48l-.85.42-.17.08-.82.37c-.26.13-.53.24-.79.35l-.16.07-.75.31-.13.05-.64.25-.59.23-.81.28-.67.23c-.45.15-.89.29-1.32.41l-.54.16-.45.12q-1,.28-1.92.48l-.49.1c-.63.13-1.21.23-1.71.31l-.34,0-.14,0-.23,0-.21,0-.57.07-.68.06h-.13l-.35,0s-14.1-3.92-19.26-10.42a27,27,0,0,1-1.71-2.47c-.4-.65-.82-1.34-1.25-2.06-2.29-3.84-5-8.64-9.36-12.85-.54-.52-1.1-1-1.69-1.54a33.12,33.12,0,0,0-4.11-3q-.37-.24-.75-.45a34.58,34.58,0,0,0-7.32-3.17c-.87-.27-1.77-.51-2.71-.73l-1.11-.24-.85-.16A160.46,160.46,0,0,0,79.1,110c-10.6-.51-24.15-.81-38.16-1-11.23-.13-26-.17-40.94-.16v41.29c33.09-.34,67.18-.29,72,.81,9.62,2.21,21.2,22.44,45.76,29.08,6.39,1.73,62.72-11.95,68.05-25.56a5.69,5.69,0,0,0,.39-1.59h0s6.35-3.68,5.27-9.78A10.71,10.71,0,0,0,189.71,139.06Z"/><path class="cls-12" d="M123.31,162.53a14.85,14.85,0,0,0-5.8,2.69,17.74,17.74,0,0,1,7.89-1.3,68.74,68.74,0,0,0,17.82,5.77c6.52,1.13,19.09,4,21.27-7.17a10.35,10.35,0,0,0,.16-3.11l-.15-1a10.69,10.69,0,0,0-1.33-3.36c2.25-1.31,7.93-4.35,13.3-5.14h0a14.14,14.14,0,0,1,4.91,0,5.89,5.89,0,0,1,2.21,1.19l.07.07a.12.12,0,0,1,.05,0,7.46,7.46,0,0,1,2.08,3.33,5.42,5.42,0,0,0,.38-1.59s.07-2.91-2.18-4.1h0l-.28-.13c-7.9-3.79-18.7,2.24-22,4.32-.33-.37-.67-.74-1-1.08A57.41,57.41,0,0,0,173.52,142a37.39,37.39,0,0,1,10.74-2.42c4.09-.13,6.16,1.7,7.19,3.51a10.52,10.52,0,0,0-1.74-4.07,13,13,0,0,0-.83-1.13c-3.39-1.5-7.95-.79-12.07.52.19-.22.38-.45.58-.67,2.5-2.93,5.55-7.14,7.73-10.22,3.85-3.06,6.9-.67,8.43,1.13a4.58,4.58,0,0,0-.68-1.63,5.81,5.81,0,0,0-5.61-2.59h0l-.57.06-.15,0-.39.06-.21,0-.26.06-.28.07h0l-.38.1h0c-.38.12-.7.24-.94.33h0a4.42,4.42,0,0,0-.48.21c-10.3,14.62-22.45,20-29.83,22a31.6,31.6,0,0,1-6.77,1.17c18.77,4.28,18.06,18.08,10.34,19.88s-21.34-1.84-32-6.88-17.28-4-17.28-4A57.71,57.71,0,0,1,123.31,162.53Z"/><path class="cls-12" d="M79.1,110l-.23,1s-.59,4.3-5.81,5a6.55,6.55,0,0,1-6.47,4,7.26,7.26,0,0,1-3.6-.87,5.93,5.93,0,0,1-2.7-3.2,9.92,9.92,0,0,1-7.72-1.06c-3.36-2.16-3.48-3.58-3.48-3.79A2.79,2.79,0,0,1,46,113.76c-3.07,0-4.56-3.59-4.56-3.59L40.94,109C55,109.2,68.5,109.5,79.1,110Z"/><path class="cls-4" d="M85.58,110.38s-6-.36-9.19-.49c0,0-.59,4.3-5.82,5,0,0-1.34,4-6.47,4a7.22,7.22,0,0,1-3.59-.86,6,6,0,0,1-2.71-3.2,9.94,9.94,0,0,1-7.71-1.06c-3.37-2.16-3.49-3.58-3.49-3.8a2.77,2.77,0,0,1-3.07,2.69C40.47,112.6,39,109,39,109l-5.81,0S33,107.38,37,107a6.33,6.33,0,0,1,3.08.35c-.35-.68-.71-1.36-1-2.08a4,4,0,0,1-.36-2.42.91.91,0,0,1,.55-.69c.37-.1.74.2,1,.52a7.59,7.59,0,0,1,1.06,3.52,11.68,11.68,0,0,1,.33-2,3.58,3.58,0,0,1,1-1.84.76.76,0,0,1,.5-.24.65.65,0,0,1,.55.58,2,2,0,0,1-.15.83c-.3.89-.61,1.78-.91,2.66l1-1a1,1,0,0,1,.61-.38.67.67,0,0,1,.6.63,2,2,0,0,1-.24.92c-.07.14-.13.28-.19.42a6,6,0,0,1,2.22-.72s.25-2.3,3.57-2.6a3.37,3.37,0,0,1,3.71,3c-.08-.62-.39-4.31,4.5-5.27a6,6,0,0,1,5.39,1.51c0-.15-.08-.3-.11-.45a3.84,3.84,0,0,1,.2-2.46.9.9,0,0,1,.54-.54.7.7,0,0,1,.7.28,1.78,1.78,0,0,1,.3.74,7.28,7.28,0,0,1,.11,2.59,3.85,3.85,0,0,1,.95-1.44c.41-.39,1-.69,1.5-.39a1,1,0,0,1,.42.9,2,2,0,0,1-.36,1,9.92,9.92,0,0,1-.73,1,6.69,6.69,0,0,1,2.59,0,5.32,5.32,0,0,1,3.43,2.61,4.15,4.15,0,0,1,4.81,0S82.51,105.33,85.58,110.38Z"/><path class="cls-13" d="M85.58,110.38s-6-.36-9.19-.49c0,0-.59,4.3-5.82,5,0,0-1.34,4-6.47,4a7.22,7.22,0,0,1-3.59-.86,8.37,8.37,0,0,0,1.49-.39,4.91,4.91,0,0,0,3.22-3.7,4.42,4.42,0,0,0,3.58-1.61,3.27,3.27,0,0,0,.17-3.79,3.62,3.62,0,0,0,1.26-3.37,6.32,6.32,0,0,0-.43-1.19,5.32,5.32,0,0,1,3.43,2.61,4.15,4.15,0,0,1,4.81,0S82.51,105.33,85.58,110.38Z"/><path class="cls-12" d="M208.72,95.89l.23-1s.59-4.3,5.81-5c0,0,1.35-4,6.47-4a7.27,7.27,0,0,1,3.6.86,6,6,0,0,1,2.7,3.2A10,10,0,0,1,235.25,91c3.36,2.16,3.48,3.58,3.48,3.8a2.78,2.78,0,0,1,3.07-2.69c3.07,0,4.56,3.58,4.56,3.58l.52,1.13C232.87,96.7,219.32,96.41,208.72,95.89Z"/><path class="cls-4" d="M202.24,95.52s6,.37,9.19.5c0,0,.59-4.3,5.82-5,0,0,1.34-4,6.46-4a7.16,7.16,0,0,1,3.6.87,5.93,5.93,0,0,1,2.7,3.2,9.94,9.94,0,0,1,7.72,1c3.37,2.17,3.49,3.59,3.49,3.8a2.77,2.77,0,0,1,3.06-2.69c3.07,0,4.56,3.58,4.56,3.58l5.82.06s.16,1.58-3.83,2a6.07,6.07,0,0,1-3.07-.35c.35.68.7,1.37,1,2.09a4,4,0,0,1,.36,2.41.9.9,0,0,1-.55.69c-.38.11-.74-.2-1-.51a7.62,7.62,0,0,1-1.06-3.52,11.86,11.86,0,0,1-.33,2,3.69,3.69,0,0,1-1,1.84.78.78,0,0,1-.51.23.64.64,0,0,1-.54-.58,1.85,1.85,0,0,1,.15-.83c.3-.88.61-1.77.91-2.66l-.95,1a1,1,0,0,1-.61.38.66.66,0,0,1-.6-.63,1.85,1.85,0,0,1,.24-.91c.07-.14.13-.29.19-.43a5.87,5.87,0,0,1-2.22.72s-.25,2.3-3.57,2.61a3.37,3.37,0,0,1-3.71-3c.08.61.39,4.3-4.5,5.26a6,6,0,0,1-5.39-1.51c0,.16.08.31.11.46a3.87,3.87,0,0,1-.2,2.45.92.92,0,0,1-.54.55.72.72,0,0,1-.7-.28,1.86,1.86,0,0,1-.31-.74,7.57,7.57,0,0,1-.1-2.6,3.81,3.81,0,0,1-.95,1.45c-.41.38-1,.68-1.5.39a1,1,0,0,1-.42-.9,2.05,2.05,0,0,1,.36-1,11.17,11.17,0,0,1,.73-1,6.5,6.5,0,0,1-2.59,0,5.26,5.26,0,0,1-3.43-2.61,4.15,4.15,0,0,1-4.81,0S205.31,100.58,202.24,95.52Z"/><path class="cls-13" d="M202.24,95.52s6,.37,9.19.5c0,0,.59-4.3,5.82-5,0,0,1.34-4,6.46-4a7.16,7.16,0,0,1,3.6.87,7,7,0,0,0-1.49.39A4.9,4.9,0,0,0,222.6,92,4.49,4.49,0,0,0,219,93.63a3.28,3.28,0,0,0-.16,3.8,3.61,3.61,0,0,0-1.26,3.37A6.49,6.49,0,0,0,218,102a5.26,5.26,0,0,1-3.43-2.61,4.15,4.15,0,0,1-4.81,0S205.31,100.58,202.24,95.52Z"/></g></g></svg>