<svg id="Layer_1" data-name="Layer 1" xmlns="http://www.w3.org/2000/svg" viewBox="0 0 450 261.67"><defs><style>.cls-1{fill:#e69f83;}.cls-2{fill:#2b478b;}.cls-3{fill:#5c5f75;}.cls-4{fill:#3d4052;}.cls-5{fill:#2c3a64;}.cls-6{fill:#f8b69a;}.cls-7{fill:#594545;}.cls-8{fill:#72758a;}.cls-9{fill:#4c5057;}.cls-10{fill:#ffcf40;}.cls-11{fill:#ff9654;}.cls-12{fill:#d82e2e;}.cls-13{fill:#347a0f;}.cls-14{fill:#ea7575;}.cls-15{fill:#ffe35a;}.cls-16{fill:#f9b4b4;}.cls-17{fill:#fa5269;}.cls-18{fill:#e0344b;}.cls-19{fill:#e5e3e3;}.cls-20{fill:#f75e5e;}.cls-21{fill:#353536;}.cls-22{fill:#e38444;}.cls-23{fill:#eb975f;}.cls-24{fill:#727272;}.cls-25{fill:#fff;opacity:0.51;}.cls-26{fill:#ffb93e;}.cls-27{fill:#e84643;}.cls-28{fill:#ed7d2b;}.cls-29{fill:#ff9843;}.cls-30{fill:#ffa412;}</style></defs><path class="cls-1" d="M292.5,186.16l-13.83-8.68-4.29-9a4.89,4.89,0,0,0-8.78-.14.54.54,0,0,0-.05.11c-2.14,4.52-.11,9.84,3.4,12.35a10,10,0,0,0,5.11,1.77L282.61,195Z"/><path class="cls-1" d="M279.08,179.12q.26-7.32.52-14.63a4.89,4.89,0,0,0-3.26,2,6.19,6.19,0,0,0-.66,2.74,28.32,28.32,0,0,1-1,4.7Z"/><path class="cls-2" d="M320.86,202.89a227.31,227.31,0,0,1,27,23.79,274.46,274.46,0,0,1,19.93,22.39l-8.1,4.48A87.53,87.53,0,0,1,341,248.48a92.41,92.41,0,0,1-12.83-6.32,179.65,179.65,0,0,1-37.07-28.66,175,175,0,0,1-14.51-16.87l14.33-12.34A214.9,214.9,0,0,1,320.86,202.89Z"/><path class="cls-3" d="M385,256.89c0,.24,0,.49,0,.74l0,.32-.05.82h0l-.08,1.27,0,.47-.06,1H342.44l-.08-1-.21-2.57v-.14s0-.07,0-.1a11.5,11.5,0,0,1,0-1.66,12.36,12.36,0,0,1,2.36-6.28c.18-.24.36-.48.55-.71a17,17,0,0,1,2.85-2.76,21.45,21.45,0,0,1,1.88-1.29,25.19,25.19,0,0,1,8.36-3.12,29,29,0,0,1,3.42-.43q1-.06,2-.06c9.47,0,17.44,4.42,20.3,10.53a.08.08,0,0,1,0,0c.13.27.25.55.35.82a11.53,11.53,0,0,1,.7,2.95A10.6,10.6,0,0,1,385,256.89Z"/><path class="cls-4" d="M363.06,258c-.14.42-.3.84-.47,1.25l0,.07-.42,1.1h0l-.06.15-.38,1H317c.08-.33.17-.66.25-1,.31-1.25.63-2.5.94-3.76l1.2-4.75c.15-.61.31-1.22.46-1.83h0c.09-.35.17-.7.26-1.05s.21-.82.31-1.23l.2-.25a29.44,29.44,0,0,1,6.45-6.14,28.6,28.6,0,0,1,5-2.78,30.12,30.12,0,0,1,8.62-2.12q.69-.06,1.41-.09a24.48,24.48,0,0,1,5.76.44l.82.19c.36.08.71.18,1.06.28a21.82,21.82,0,0,1,8.36,4.46,17,17,0,0,1,4.35,5.76,14.23,14.23,0,0,1,1.13,3.75A13.76,13.76,0,0,1,363.06,258Z"/><path class="cls-1" d="M364.53,157c1.15,9.43-6.43,16.68-13.28,16.4-6.55-.27-13.24-7.46-12-16.4V120.62h25.32Z"/><path class="cls-5" d="M392.62,166.54a2.08,2.08,0,0,1-.25.93,4.54,4.54,0,0,1-1.88,1.64c-2.6,1.47-6.86,2.61-8.44,6a5.89,5.89,0,0,0-.24.58c-1.66,4.71,2.57,10.65,7.29,15.58a219,219,0,0,0,1,24.85c.06.64.12,1.24.19,1.8s.13,1.25.19,1.81.12,1,.18,1.51c.28,2.4.52,4.14.54,4.28.15,1.11,0,3.5-.72,8-.53,3.39-1.37,8-2.64,14.13-.05.26-.1.52-.16.79q-.79,3.88-1.83,8.62c-.06.29-.13.59-.19.89s-.07.29-.1.44c-.13.58-.26,1.17-.39,1.78,0,.12-.05.23-.08.35-.07.33-.14.66-.22,1H313.15c-.07-.22-.14-.44-.22-.67s-.07-.21-.1-.32c-.23-.7-.46-1.42-.68-2.17h0L312,258c-.36-1.21-.73-2.48-1.08-3.8,0,0-.79-3-1.53-6.5-.19-.89-.37-1.81-.55-2.73a103.41,103.41,0,0,1-1.4-16.84c-.05-3.63,0-7.12.15-10.18.18-4.29.44-7.74.58-9.55.14-1.64.8-5.58,1.56-13.17.09-.92.19-1.91.28-3A99.27,99.27,0,0,1,313,175.09a64.37,64.37,0,0,1,3.3-9.38,13,13,0,0,1,1.59-2.79,13.11,13.11,0,0,1,5.63-4.1c3.31-1.4,8.25-2.47,15.7-2.6.15.62,1.79,7.13,8,9.54.22.08.44.16.65.22a11.37,11.37,0,0,0,1.88.45,13,13,0,0,0,6.42-.66c6.49-2.42,8.2-9.22,8.34-9.83a52.39,52.39,0,0,1,8,.79c6,1.07,14.2,3.61,18,6.56a6.06,6.06,0,0,1,1.88,2.13A2.64,2.64,0,0,1,392.62,166.54Z"/><path class="cls-6" d="M374.69,121.54c-.06.28-.13.57-.21.85l-4.05,14.67c-2.77,10.05-14.25,15.91-26,13.27s-19.66-12.82-17.88-23.1l.94-5.43,1.65-9.57a17.46,17.46,0,0,1,2.37-6.24,18.37,18.37,0,0,1,1.82-2.48c5.11-5.82,14-8.7,23.07-6.66C366.71,99.16,374,107,375,115.73A17.54,17.54,0,0,1,374.69,121.54Z"/><path class="cls-7" d="M328.07,118.4a27,27,0,0,1,4.12-10.71,25.61,25.61,0,0,1,2.88-3.6,8.3,8.3,0,0,0-.39,7,8.15,8.15,0,0,0,4.63,4,13.36,13.36,0,0,0,9.47,0c5.08-2,5.49-5.89,9.2-5.83a6.3,6.3,0,0,1,4.95,2.55,5.18,5.18,0,0,1,.82,2.49c.16,2.73-2,3.81-2.06,6.57a5.73,5.73,0,0,0,.61,2.57,6.17,6.17,0,0,1,4-3.77,5.87,5.87,0,0,1,4.41.85c2.11,1.48,3,4.49,2.2,7.5-.39,1.41-.77,2.83-1.15,4.24,1.49-.6,11.41-4.75,12.65-12.88.19-1.29.88-5.8-1.86-7.76-1.84-1.31-4.25-.79-5.07-.57,2.23-5.3,1.6-8.81,1-10.61-3-9-17.78-14.82-36.7-11.79-1-1.73-2.05-2.29-2.87-2.44-4.69-.88-12.53,9.78-13.1,20.48A25.63,25.63,0,0,0,328.07,118.4Z"/><path class="cls-1" d="M371,128.17a4,4,0,0,0-3.12-4.83,4.11,4.11,0,0,0-4.77,3.2l-.85,3.8a2.74,2.74,0,0,0,2,3.22,2.7,2.7,0,0,0,2.65-.93,10.23,10.23,0,0,1,2.26-1.94A4,4,0,0,0,371,128.17Z"/><path class="cls-6" d="M366.33,128.89a2.14,2.14,0,1,0-2.55,1.62A2.14,2.14,0,0,0,366.33,128.89Z"/><path class="cls-5" d="M390.31,71.17c-1,4.52-2.19,9.23-3.61,14.1A222.92,222.92,0,0,1,377.48,111a45.73,45.73,0,0,0-7.51-9.43c-10.3-9.91-22.62-12.29-28.22-13a105.71,105.71,0,0,1,3.66-14.34c.59-1.48,1.28-2.92,1.28-2.92l0-.1a53.67,53.67,0,0,1,6.89-10.84Z"/><path class="cls-2" d="M390.31,71.17q-1.9,6.89-3.61,14.1a34.42,34.42,0,0,1-8.2-3.45,51.87,51.87,0,0,1-7.18-4.88c-2.65-2.19-2.11-2.25-3.34-3-3.64-2.27-6.85-.78-13.21-1.22a37.09,37.09,0,0,1-8-1.48,53.67,53.67,0,0,1,6.89-10.84Z"/><path class="cls-5" d="M340,60.39c-.16,4.33,8.22,7.62,9.75,8.22,6.6,2.55,9.35.81,15.65,1.79,10.65,1.66,14.5,12.7,25.14,12.06,4.43-.27,9.33-2.87,10-6.29.84-4.18-4.87-8.39-6.54-9.62-8.33-6.13-13.47-2.3-26-7.18-8.66-3.37-10.09-6.67-16.1-6.29C346.4,53.43,340.15,56.72,340,60.39Z"/><path class="cls-5" d="M339.31,150.05l2.31,4.62a13.37,13.37,0,0,0,.74,8.15c-.27.15-2.63,1.4-4.65.32-2.77-1.48-2.17-5.85-2.12-6a18.8,18.8,0,0,1,1-2.76A19.78,19.78,0,0,1,339.31,150.05Z"/><path class="cls-5" d="M343.51,155.36a8.46,8.46,0,0,0-1.3,2.65,8.64,8.64,0,0,0,.15,5.05c3.78,5.18,10.5,6.92,15.68,4.44,6.12-2.92,6.87-10.73,6.93-11.42a14.9,14.9,0,0,0-.64-5.58,15.34,15.34,0,0,1-6.93,6C350.61,159.31,344.32,155.82,343.51,155.36Z"/><path class="cls-2" d="M364.83,156.9a19.09,19.09,0,0,1-6.64,6.69,16.75,16.75,0,0,1-16,0,16.18,16.18,0,0,1-6.2-6.5,15,15,0,0,0,6,7.6c5.56,3.45,12.23,2,16.26-.43A16.3,16.3,0,0,0,364.83,156.9Z"/><path class="cls-2" d="M333.87,168.13a96.78,96.78,0,0,0-7.32,13c-13.65,29.28-9.33,58.61-5.51,74.41-3-18.44-4.26-45.35,6.67-73.76A127,127,0,0,1,333.87,168.13Z"/><path class="cls-2" d="M337.22,184.65c-.58,2.16-2.18,3.61-3.58,3.23s-2.06-2.43-1.48-4.59,2.18-3.61,3.58-3.23S337.8,182.49,337.22,184.65Z"/><ellipse class="cls-2" cx="354.15" cy="185.86" rx="4.05" ry="2.62" transform="translate(83.04 479.91) rotate(-75.01)"/><ellipse class="cls-8" cx="329.3" cy="209.92" rx="4.05" ry="2.62" transform="translate(76.32 507.42) rotate(-82.14)"/><path class="cls-8" d="M351.43,209.74c-.3,2.22-1.71,3.85-3.14,3.65s-2.35-2.15-2-4.37,1.71-3.85,3.14-3.65S351.74,207.52,351.43,209.74Z"/><path class="cls-2" d="M331.36,243.75c0,2.23-1.24,4-2.69,4s-2.59-1.85-2.55-4.09,1.24-4,2.68-4S331.39,241.51,331.36,243.75Z"/><path class="cls-2" d="M350.69,242.59c0,2.24-1.24,4-2.69,4s-2.58-1.86-2.55-4.09,1.24-4,2.69-4S350.73,240.36,350.69,242.59Z"/><path class="cls-5" d="M382.93,228.35a11.57,11.57,0,0,0,2.39,5,12.33,12.33,0,0,0,5.3,3.53,11.23,11.23,0,0,0,7.32,0l9.86-1.41a94.13,94.13,0,0,0,.77-36c-1.08-6.1-6.1-34.36-19.29-36.27-6.35-.91-11.87,4.67-12.32,5.13C365.48,180.28,377.34,203.68,382.93,228.35Z"/><path class="cls-6" d="M358.31,225.27l-16.06,3-14.79-5.93a11.08,11.08,0,0,0-1,8.18c1.48,4.77,6.58,7.31,10.87,6.79a9.87,9.87,0,0,0,4.95-2.16L357,238.49Q357.66,231.88,358.31,225.27Z"/><path class="cls-5" d="M392.77,217.43h.14s12.63,2.66,14.89,13.45c0,.2.08.39.11.58a10.81,10.81,0,0,1-11.48,12.46q-16.4-1.14-33.5-3-6.36-.69-12.58-1.47c-.32-4.86-.64-12.31-1-17.17A345.25,345.25,0,0,1,392.77,217.43Z"/><path class="cls-2" d="M349.19,226.51c.13-1.41.26-2.82.38-4.23,5.13-1,10.73-1.87,16.75-2.5,5.16-.54,10.05-.84,14.62-1a124.77,124.77,0,0,1-5.19-14.24c-3.76-12.67-6.15-21.18-2.51-29.45.8-1.8,3.38-7.65,9.43-10.2a15.69,15.69,0,0,1,5-1.15,16.58,16.58,0,0,0-5.07.51c-6.75,1.79-10.46,7.52-11.48,9.3-5.15,9-1.39,20.16,2.69,32.33a98.15,98.15,0,0,0,4.62,11.36c-4,.29-8.1.68-12.38,1.22-6.18.77-12,1.73-17.45,2.82C348.8,223.05,349,224.78,349.19,226.51Z"/><path class="cls-2" d="M353.68,239.86A82.67,82.67,0,0,0,386.81,243Z"/><ellipse class="cls-9" cx="335.26" cy="213.77" rx="70.59" ry="17.52"/><path class="cls-10" d="M396.6,214.41c0,3-6.1,5.68-16,7.63q-3,.59-6.35,1.08c-14.17,2.44-37.21.92-54.5,1.3-15.36,0-28.81-2.66-34.57-5.32-7.16-2.84-9.31-6.33-9.58-9.56,0-.24,0-.48,0-.71,1.92-3.8,21.12-5.7,38.41-6.46,13-.24,27.41-.18,39.9.67l-.16.2c-.24.33-.48.65-.73,1l-1.77,2.37-.13.17-.4.54c-.19.25-.37.48-.55.73l-.16.21,0,.06-.06.08-.14.18-.75,1-.36.49-.05.06-.13.17a.39.39,0,0,1-.08.1,1.18,1.18,0,0,1-.13.18L346.47,213l5.89-.84,2.64-.38,13.07-1.87,2-.28,9.38-1.35,3.46-.5,1.36-.19c4.67,1.13,8.21,2.44,10.28,3.87a0,0,0,0,0,0,0C395.88,212.4,396.6,213.39,396.6,214.41Z"/><path class="cls-11" d="M390.16,214.31c0,2.66-5.44,5.07-14.25,6.81l-1.61.31h0c-1,.17-2,.35-3.11.51h0l-.9.14c-12.66,2.18-33.26.83-48.7,1.17-11.09,0-21.07-1.56-27.2-3.4h0a28.75,28.75,0,0,1-3.68-1.35l-.06,0c-5.88-2.35-8-5.19-8.41-7.89a7.82,7.82,0,0,1-.1-1.26c1.71-3.4,18.87-5.1,34.32-5.78,11.95-.22,25.28-.16,36.66.67l-1.77,2.37-.13.17-.4.54c-.19.25-.37.48-.55.73l-.16.21,0,.06-.06.08-.14.18-.75,1-.36.49-.05.06-.13.17a.39.39,0,0,1-.08.1,1.18,1.18,0,0,1-.13.18L346.47,213l5.89-.84,2.64-.38,13.07-1.87,2-.28,9.38-1.35a39.3,39.3,0,0,1,6.7,2.19h0C388.72,211.64,390.16,212.94,390.16,214.31Z"/><path class="cls-10" d="M281.39,210.4a11.15,11.15,0,0,1,3.52,1.32c3.17,1.87,3.78,4.52,5,6,3.24,4.11,12,1.24,23.21,1.32,12.77.09,11.12,3.89,23.85,4,12,.07,13.4-3.3,25.29-2.21,6.55.61,9.12,2,12.8.3,4.2-1.95,6.32-6.27,11.64-6.69,1-.08,2.2,0,2.46-.61.45-1-2.35-3-5-4.68,10.41,2.59,11.1,4.81,11.11,5.62,0,3.65-13.9,6.59-16.33,7.11a89.64,89.64,0,0,1-13,1.54c-3.72.25-7.95.44-23.41.39-13.64,0-10.38-.19-18.85-.17-4.76,0-9.52-.19-14.28-.27a40.27,40.27,0,0,1-10.81-1.16c-2.06-.56-1.46-.68-6.42-2.42-6.37-2.24-8.77-2.58-10.1-4.69A6.18,6.18,0,0,1,281.39,210.4Z"/><path class="cls-10" d="M355.69,199.78a5.21,5.21,0,0,1,.54.2L353.94,203l-.16.2c-4.86-.34-9.22-.52-13.09-.63-14.77-.42-24.32.15-37.69.95-9.82.59-12.41,1.3-14,1.69a56.45,56.45,0,0,0-13,5,2.68,2.68,0,0,1-.3-.67,2,2,0,0,1-.06-.43c-.16-3.46,8.64-6.46,12.84-6.94a19.53,19.53,0,0,1,2.42-.14s5.22.49,8.3.43c6.32-.12,6.49-2.54,13-3.34,1.64-.21,1.84-.08,14,.89,5.28.42,7.92.63,8.26.64C346.66,201,349.6,197.59,355.69,199.78Z"/><path class="cls-10" d="M395.19,212c-.91-.16-3-.53-5.19-1.11h0l-.23-.06a13,13,0,0,1-2.22-.76h0a8.82,8.82,0,0,1-1-.56l-.44-.3a13.79,13.79,0,0,0-3.17-1.45l1.36-.19,3.93-.57a42.33,42.33,0,0,1,6.35,4.44,0,0,0,0,0,0,0Z"/><path class="cls-12" d="M303.83,211.28a2.89,2.89,0,0,1-1.53,1,19.86,19.86,0,0,1-8.48.54c-4.62-.59-7.64-2.24-6.74-3.69.45-.72,1.8-1.26,3.6-1.54l.95-.13c.39,0,.81-.07,1.22-.08a25.77,25.77,0,0,1,4.25.18C301.72,208.18,304.73,209.83,303.83,211.28Z"/><path class="cls-12" d="M305.67,209.48c.39,1.25-1,2.34-3.37,2.83a14.47,14.47,0,0,1-3.17.3c-4.15,0-7.95-1.44-8.49-3.19a1.44,1.44,0,0,1,.43-1.48,2.9,2.9,0,0,1,.56-.45c.16-.1.33-.19.52-.29a11.87,11.87,0,0,1,5-.91C301.34,206.31,305.13,207.74,305.67,209.48Z"/><path class="cls-13" d="M293.23,207.44a2.88,2.88,0,0,1-.76.4,7.41,7.41,0,0,1-1.33.28l-.46-.5.95-.13c.16-.1.33-.19.52-.29l.4.08Z"/><path class="cls-14" d="M302.81,211.15a2.5,2.5,0,0,1-1.23.87h0a16.87,16.87,0,0,1-7.55.51c-4.06-.51-6.72-2-5.92-3.24.38-.62,1.5-1.08,3-1.34.37-.06.77-.11,1.18-.15a17.88,17.88,0,0,1,1.82-.07,22.25,22.25,0,0,1,2.79.18C301,208.43,303.61,209.88,302.81,211.15Z"/><path class="cls-14" d="M304.78,209.48c.36,1.14-1,2.12-3.2,2.54h0a13.31,13.31,0,0,1-2.55.22c-3.66,0-7-1.27-7.49-2.81a1.19,1.19,0,0,1,.15-1,2,2,0,0,1,.6-.61,5.58,5.58,0,0,1,.65-.37,10.8,10.8,0,0,1,4.38-.76C301,206.68,304.31,207.94,304.78,209.48Z"/><path class="cls-12" d="M292,209l6.41,1.87c.89.26.87.73,0,.92a14.34,14.34,0,0,1-6.36-.28c-2-.58-2.85-1.48-2.36-2.27C289.94,208.87,291.14,208.74,292,209Z"/><path class="cls-12" d="M295.69,208l3.63,2.66a3.32,3.32,0,0,0,2.5.2c1.46-.56,1.81-1.45.69-2.28a10.68,10.68,0,0,0-5.62-1.34C295.82,207.2,295.19,207.59,295.69,208Z"/><path class="cls-14" d="M294.84,207.72h1.91c.23,0,.4.12.26.18l-1.17.5a.51.51,0,0,1-.42,0l-.74-.51C294.58,207.8,294.66,207.72,294.84,207.72Z"/><path class="cls-14" d="M296.33,208.24h1.9c.24,0,.41.12.26.18l-1.17.51a.57.57,0,0,1-.42-.05l-.74-.51C296.07,208.31,296.15,208.24,296.33,208.24Z"/><path class="cls-14" d="M297.13,208.92H299c.23,0,.4.12.26.18l-1.17.51a.56.56,0,0,1-.42-.05l-.74-.51C296.87,209,297,208.92,297.13,208.92Z"/><path class="cls-14" d="M298,209.54h1.91c.24,0,.41.11.26.17l-1.17.51a.56.56,0,0,1-.42,0l-.74-.51C297.76,209.61,297.84,209.54,298,209.54Z"/><path class="cls-14" d="M298.85,210.19h1.91c.23,0,.4.12.26.18l-1.17.51a.56.56,0,0,1-.42,0l-.74-.5C298.59,210.26,298.67,210.19,298.85,210.19Z"/><path class="cls-14" d="M291.16,208.81l-.42.67c-.05.08.23.17.42.13l1.64-.29c.15,0,.14-.11,0-.16l-1.21-.37C291.41,208.74,291.2,208.75,291.16,208.81Z"/><path class="cls-14" d="M292.76,209.29l-.43.67c-.05.08.23.17.43.13l1.64-.29c.15,0,.14-.11,0-.16l-1.22-.37C293,209.22,292.79,209.23,292.76,209.29Z"/><path class="cls-14" d="M294.33,209.76l-.43.66c0,.08.23.17.43.13l1.64-.29c.15,0,.14-.11,0-.15l-1.21-.38C294.58,209.68,294.37,209.7,294.33,209.76Z"/><path class="cls-14" d="M295.82,210.21l-.42.66c0,.08.23.17.43.13l1.64-.29c.15,0,.14-.11,0-.16l-1.22-.37C296.07,210.13,295.86,210.15,295.82,210.21Z"/><path class="cls-14" d="M297.39,210.64l-.42.67c-.05.08.23.17.43.13l1.64-.29c.15,0,.14-.11,0-.16l-1.22-.37C297.64,210.57,297.43,210.58,297.39,210.64Z"/><path class="cls-14" d="M302.15,208.8a1.15,1.15,0,0,1,.55.15c.12.09.06.18,0,.23a2.46,2.46,0,0,1-1.48,0C301,209,301.59,208.76,302.15,208.8Z"/><path class="cls-15" d="M302.08,208.88a1,1,0,0,1,.37.1c.08.06,0,.13,0,.16a1.74,1.74,0,0,1-1,0C301.32,209,301.7,208.86,302.08,208.88Z"/><path class="cls-14" d="M300.3,209a1.15,1.15,0,0,1,.55.15c.11.09.06.18,0,.24a2.57,2.57,0,0,1-1.49,0C299.16,209.23,299.73,209,300.3,209Z"/><path class="cls-15" d="M300.23,209.09a.64.64,0,0,1,.36.1c.08.06.05.12,0,.16a1.73,1.73,0,0,1-1,0C299.46,209.24,299.85,209.06,300.23,209.09Z"/><path class="cls-14" d="M301.57,208.29a1.27,1.27,0,0,1,.55.16c.11.08.06.18-.05.23a2.55,2.55,0,0,1-1.48,0C300.43,208.53,301,208.26,301.57,208.29Z"/><path class="cls-15" d="M301.5,208.38a.73.73,0,0,1,.36.1c.08.06.05.12,0,.16a1.65,1.65,0,0,1-1,0C300.73,208.54,301.12,208.35,301.5,208.38Z"/><path class="cls-14" d="M300.47,207.84a1.78,1.78,0,0,1,.64.07c.19.07.25.17.21.24s-1,.29-1.32.18S299.94,207.89,300.47,207.84Z"/><path class="cls-15" d="M300.5,207.93a1.63,1.63,0,0,1,.43,0c.13.05.16.11.14.16s-.7.19-.89.12S300.14,208,300.5,207.93Z"/><path class="cls-14" d="M299.24,208.32a1.72,1.72,0,0,1,.63.07c.2.07.25.17.22.24s-1,.29-1.33.19S298.7,208.37,299.24,208.32Z"/><path class="cls-15" d="M299.26,208.42a1.28,1.28,0,0,1,.43,0c.13,0,.16.12.14.16s-.69.19-.88.13S298.9,208.45,299.26,208.42Z"/><path class="cls-14" d="M299,207.58a1.44,1.44,0,0,1,.64,0,.59.59,0,0,1,.42.21c.1.23-.66.49-1,.43S298.55,207.72,299,207.58Z"/><path class="cls-15" d="M299.11,207.67a1,1,0,0,1,.43,0c.17,0,.26.09.28.14s-.44.33-.68.29S298.82,207.77,299.11,207.67Z"/><path class="cls-14" d="M297.66,207.39a1.59,1.59,0,0,1,.63,0,.61.61,0,0,1,.43.19c.12.21-.6.43-1,.37S297.23,207.51,297.66,207.39Z"/><path class="cls-15" d="M297.78,207.48a.94.94,0,0,1,.42,0,.51.51,0,0,1,.29.13c.08.14-.4.29-.64.25S297.5,207.56,297.78,207.48Z"/><path class="cls-14" d="M296.28,207.42s.09-.11.26-.14a1.34,1.34,0,0,1,.5,0c.36.1.34.38.09.41S296.25,207.58,296.28,207.42Z"/><path class="cls-15" d="M296.46,207.45s.06-.08.18-.09a.88.88,0,0,1,.33,0c.24.07.23.26.06.28S296.45,207.56,296.46,207.45Z"/><path class="cls-14" d="M297,207.92a.81.81,0,0,1,.36,0,.38.38,0,0,1,.25.11c.09.12-.31.25-.51.22S296.8,208,297,207.92Z"/><path class="cls-15" d="M297.11,208a.53.53,0,0,1,.23,0,.3.3,0,0,1,.18.08c.05.08-.21.16-.35.14S297,208,297.11,208Z"/><path class="cls-14" d="M302.54,209.39c.17,0,.36.12.38.21s-.13.17-.29.2c-.47.1-1.39-.09-1.41-.23S302,209.27,302.54,209.39Z"/><path class="cls-15" d="M302.39,209.45c.11,0,.23.08.24.14s-.08.12-.19.14c-.31.06-.92-.06-.94-.16S302,209.38,302.39,209.45Z"/><path class="cls-14" d="M302.42,210c.12.06.22.15.14.24a.82.82,0,0,1-.49.13c-.56,0-1.25-.27-1.13-.4A2.57,2.57,0,0,1,302.42,210Z"/><path class="cls-15" d="M302.2,210.05c.08,0,.14.1.09.15a.56.56,0,0,1-.33.1c-.37,0-.83-.19-.75-.27A1.59,1.59,0,0,1,302.2,210.05Z"/><path class="cls-14" d="M301.75,210.55c.08,0,.14.1.09.15a.6.6,0,0,1-.31.09c-.36,0-.81-.18-.73-.26A1.62,1.62,0,0,1,301.75,210.55Z"/><path class="cls-15" d="M301.61,210.57c.05,0,.09.07.06.1a.33.33,0,0,1-.21.06c-.24,0-.54-.12-.49-.17A1.07,1.07,0,0,1,301.61,210.57Z"/><path class="cls-14" d="M300.81,209.91c.08,0,.14.1.09.16a.56.56,0,0,1-.32.08c-.35,0-.8-.18-.72-.26A1.62,1.62,0,0,1,300.81,209.91Z"/><path class="cls-15" d="M300.66,209.94c.06,0,.1.06.06.1a.43.43,0,0,1-.2.06c-.24,0-.54-.12-.49-.18A1.05,1.05,0,0,1,300.66,209.94Z"/><path class="cls-14" d="M292.79,211.46c0,.07.08.16.29.22a1.63,1.63,0,0,0,.65,0c.51-.07.59-.43.27-.52S292.82,211.25,292.79,211.46Z"/><path class="cls-15" d="M293,211.45c0,.05,0,.11.19.15a1.12,1.12,0,0,0,.44,0c.34,0,.39-.29.18-.35S293.06,211.31,293,211.45Z"/><path class="cls-14" d="M293.9,210.92c0,.07.08.16.29.22a1.63,1.63,0,0,0,.65,0c.51-.07.59-.43.27-.52S293.93,210.71,293.9,210.92Z"/><path class="cls-15" d="M294.15,210.91c0,.05.05.11.19.15a1.12,1.12,0,0,0,.44,0c.34-.05.39-.29.18-.35S294.17,210.78,294.15,210.91Z"/><path class="cls-14" d="M291.56,211.14c0,.07.07.16.28.22a1.64,1.64,0,0,0,.65,0c.51-.07.59-.43.28-.52S291.58,210.93,291.56,211.14Z"/><path class="cls-15" d="M291.81,211.13c0,.05.05.11.19.15a1.08,1.08,0,0,0,.43,0c.34-.05.4-.29.19-.35S291.82,211,291.81,211.13Z"/><path class="cls-14" d="M290.58,210.65c-.08.06-.1.16,0,.24a1.55,1.55,0,0,0,.59.13c.57,0,1-.3.81-.42A2.45,2.45,0,0,0,290.58,210.65Z"/><path class="cls-15" d="M290.82,210.68c-.05,0-.06.11,0,.16a.87.87,0,0,0,.4.09c.38,0,.68-.2.54-.28A1.69,1.69,0,0,0,290.82,210.68Z"/><path class="cls-14" d="M292.17,210.33c-.08.06-.1.16,0,.24a1.55,1.55,0,0,0,.59.13c.57,0,1-.3.81-.42A2.37,2.37,0,0,0,292.17,210.33Z"/><path class="cls-15" d="M292.41,210.36c-.05,0-.06.11,0,.16a1,1,0,0,0,.4.09c.38,0,.69-.2.54-.28A1.61,1.61,0,0,0,292.41,210.36Z"/><path class="cls-14" d="M290.19,210.08c-.16,0-.3.12-.25.21a.77.77,0,0,0,.49.2c.6.09,1.48-.12,1.4-.26A3.12,3.12,0,0,0,290.19,210.08Z"/><path class="cls-15" d="M290.42,210.14c-.1,0-.2.08-.16.14s.18.11.32.13c.4.06,1-.07.94-.17A2.08,2.08,0,0,0,290.42,210.14Z"/><path class="cls-14" d="M290,209.57c-.14,0-.26.12-.21.21s.26.17.44.2c.54.09,1.31-.11,1.23-.25A2.43,2.43,0,0,0,290,209.57Z"/><path class="cls-15" d="M290.19,209.63c-.09,0-.17.08-.13.14s.17.11.29.14c.36.06.87-.08.82-.17A1.66,1.66,0,0,0,290.19,209.63Z"/><path class="cls-14" d="M291.47,209.71s0,.1.16.13a1,1,0,0,0,.37,0c.29,0,.35-.24.17-.3S291.49,209.6,291.47,209.71Z"/><path class="cls-15" d="M291.61,209.71s0,.07.11.09a.72.72,0,0,0,.25,0c.19,0,.23-.17.11-.2S291.63,209.63,291.61,209.71Z"/><path class="cls-14" d="M289.91,209.27c-.07,0-.11.08-.05.14a.63.63,0,0,0,.3.09c.32,0,.68-.12.59-.19A1.45,1.45,0,0,0,289.91,209.27Z"/><path class="cls-15" d="M290,209.3s-.07,0,0,.09a.34.34,0,0,0,.2.06c.21,0,.45-.08.39-.13A.94.94,0,0,0,290,209.3Z"/><path class="cls-14" d="M290.19,209c-.05,0-.09.07,0,.11a.42.42,0,0,0,.26.08c.29,0,.6-.1.53-.17A1.34,1.34,0,0,0,290.19,209Z"/><path class="cls-15" d="M290.31,209.05s-.06,0,0,.08a.3.3,0,0,0,.18.05c.19,0,.4-.07.35-.11A.83.83,0,0,0,290.31,209.05Z"/><path class="cls-14" d="M294.31,211.73a.85.85,0,0,0,.48.18,1.58,1.58,0,0,0,.62-.06c.37-.14.06-.5-.31-.54S294.11,211.52,294.31,211.73Z"/><path class="cls-15" d="M294.52,211.69a.62.62,0,0,0,.33.12,1,1,0,0,0,.41,0c.24-.09,0-.34-.21-.37S294.39,211.55,294.52,211.69Z"/><path class="cls-14" d="M296,211.83a1.65,1.65,0,0,0,.61.1.79.79,0,0,0,.48-.14c.18-.19-.47-.5-.84-.49S295.65,211.65,296,211.83Z"/><path class="cls-15" d="M296.18,211.76a1.27,1.27,0,0,0,.41.07.5.5,0,0,0,.32-.1c.12-.12-.32-.33-.56-.32S295.92,211.64,296.18,211.76Z"/><path class="cls-14" d="M297.48,211.78a.77.77,0,0,0,.37.06.43.43,0,0,0,.29-.08c.1-.11-.29-.3-.51-.29S297.25,211.68,297.48,211.78Z"/><path class="cls-15" d="M297.57,211.74a.7.7,0,0,0,.24,0,.38.38,0,0,0,.2-.05c.07-.08-.19-.2-.34-.2S297.42,211.67,297.57,211.74Z"/><path class="cls-14" d="M298.27,211.61a.8.8,0,0,0,.31,0,.38.38,0,0,0,.24-.07c.09-.1-.24-.25-.43-.25S298.07,211.52,298.27,211.61Z"/><path class="cls-15" d="M298.34,211.57a.52.52,0,0,0,.21,0,.25.25,0,0,0,.16-.05c.06-.06-.16-.17-.28-.16S298.21,211.51,298.34,211.57Z"/><path class="cls-14" d="M296.31,211.24a.94.94,0,0,0,.34.06.5.5,0,0,0,.27-.08c.1-.11-.26-.28-.47-.28S296.09,211.14,296.31,211.24Z"/><path class="cls-15" d="M296.39,211.2a.68.68,0,0,0,.23,0,.28.28,0,0,0,.18-.06c.07-.07-.18-.18-.32-.18S296.24,211.13,296.39,211.2Z"/><path class="cls-16" d="M297.16,208.55c.22.14-.68.37-.47.52s1.23.05,1.35.16-.86.26-.75.38,1.48.09,1.6.24-.81.26-.69.39,1.54.07,1.72.23-1.31.6-1.82.47,0-.49-.38-.57-.89.24-1.18.17.17-.62-.21-.7-1,.23-1.24.17.12-.35-.18-.44-1.06.17-1.45.08.07-.63-.29-.71-1,.29-1.3.22.08-.34-.18-.74h0a.66.66,0,0,0-.27-.27A1.85,1.85,0,0,0,291,208l.64-.09.61-.07a2.81,2.81,0,0,1,.31-.19l.41-.21a3.06,3.06,0,0,0,.84.28l.26,0a12.29,12.29,0,0,1,1.84.22c.19.14-.49.31-.29.44S297,208.41,297.16,208.55Z"/><path class="cls-12" d="M346.77,211a2.92,2.92,0,0,1-1.54,1,19.8,19.8,0,0,1-8.47.54c-4.62-.59-7.64-2.24-6.74-3.69.45-.72,1.79-1.26,3.59-1.54l1-.13c.39,0,.8-.07,1.22-.08a24.65,24.65,0,0,1,4.24.18C344.66,207.89,347.67,209.54,346.77,211Z"/><path class="cls-12" d="M348.67,209.57a1,1,0,0,1-.09.49,0,0,0,0,1,0,0,1.42,1.42,0,0,1-.08.18l-.06.1a1.18,1.18,0,0,1-.13.18,5.47,5.47,0,0,1-3.07,1.47,14.44,14.44,0,0,1-3.16.3h-.19a17,17,0,0,1-4.58-.67,5.67,5.67,0,0,1-.66-.22,1.25,1.25,0,0,1-.25-.09l-.41-.17-.2-.08-.1-.05-.14-.07a4.68,4.68,0,0,1-.5-.28l-.12-.07-.08-.05-.13-.09-.1-.07-.13-.1-.11-.09-.07-.06-.09-.08-.09-.09-.14-.16-.06-.08-.06-.08-.06-.07a1.83,1.83,0,0,1-.14-.28h0l0-.08s0-.07,0-.11a1,1,0,0,1,0-.17l0,0v0a1.11,1.11,0,0,1,0-.17v0a.34.34,0,0,1,0-.1,1.53,1.53,0,0,1,.44-.9s0,0,0,0h0a2.9,2.9,0,0,1,.56-.45,4,4,0,0,1,.51-.29,9.05,9.05,0,0,1,1.06-.41,12.56,12.56,0,0,1,1.45-.32,15.36,15.36,0,0,1,2.53-.18,18.25,18.25,0,0,1,2.37.16,14.84,14.84,0,0,1,1.76.34,11.65,11.65,0,0,1,2.21.76l.32.16a5.26,5.26,0,0,1,1.15.79l.17.16a3.31,3.31,0,0,1,.25.3,1.69,1.69,0,0,1,.26.52,1.94,1.94,0,0,1,.05.2A1.15,1.15,0,0,1,348.67,209.57Z"/><path class="cls-13" d="M336.16,207.15a2.56,2.56,0,0,1-.76.4,7.15,7.15,0,0,1-1.32.28c-.15-.17-.31-.34-.47-.5l1-.13a4,4,0,0,1,.51-.29l.4.08Z"/><path class="cls-14" d="M345.75,210.86a2.55,2.55,0,0,1-1.23.87h0a17,17,0,0,1-7.55.51c-4.06-.51-6.72-2-5.92-3.24.38-.62,1.49-1.08,3-1.34q.56-.09,1.17-.15c.59,0,1.2-.08,1.83-.08a24.37,24.37,0,0,1,2.79.19C343.9,208.13,346.55,209.59,345.75,210.86Z"/><path class="cls-14" d="M347.72,209.18c.35,1.15-1,2.13-3.2,2.55h0A13.39,13.39,0,0,1,342,212c-3.67,0-7-1.28-7.49-2.81a1.15,1.15,0,0,1,.15-1,2.11,2.11,0,0,1,.59-.61,5.16,5.16,0,0,1,.66-.37,10.75,10.75,0,0,1,4.37-.76C343.89,206.39,347.25,207.65,347.72,209.18Z"/><path class="cls-12" d="M335,208.71l6.4,1.87c.9.26.88.73,0,.92a14.29,14.29,0,0,1-6.35-.28c-2-.58-2.85-1.48-2.37-2.27C332.87,208.58,334.07,208.45,335,208.71Z"/><path class="cls-12" d="M338.63,207.67l3.62,2.66a3.33,3.33,0,0,0,2.5.2c1.47-.56,1.81-1.45.7-2.28a10.69,10.69,0,0,0-5.63-1.34C338.76,206.91,338.13,207.3,338.63,207.67Z"/><path class="cls-14" d="M337.77,207.43h1.91c.24,0,.41.12.26.18l-1.17.5a.52.52,0,0,1-.42,0l-.74-.51C337.52,207.5,337.6,207.43,337.77,207.43Z"/><path class="cls-14" d="M339.26,208h1.91c.23,0,.4.12.26.18l-1.17.5a.52.52,0,0,1-.42,0l-.74-.51C339,208,339.09,208,339.26,208Z"/><path class="cls-14" d="M340.07,208.63H342c.23,0,.4.12.26.18l-1.17.5a.51.51,0,0,1-.42,0l-.74-.51C339.81,208.7,339.89,208.63,340.07,208.63Z"/><path class="cls-14" d="M341,209.25h1.91c.23,0,.4.11.26.17l-1.17.51a.6.6,0,0,1-.42,0l-.74-.51C340.69,209.32,340.78,209.25,341,209.25Z"/><path class="cls-14" d="M341.78,209.9h1.91c.24,0,.41.12.26.18l-1.17.51a.57.57,0,0,1-.42-.05l-.74-.5C341.53,210,341.61,209.9,341.78,209.9Z"/><path class="cls-14" d="M334.1,208.52l-.43.67c-.05.08.23.17.43.13l1.64-.29c.15,0,.14-.11,0-.16l-1.22-.37C334.35,208.45,334.14,208.46,334.1,208.52Z"/><path class="cls-14" d="M335.69,209l-.42.67c0,.08.23.17.43.13l1.63-.29c.15,0,.14-.11,0-.16L336.1,209C335.94,208.93,335.73,208.94,335.69,209Z"/><path class="cls-14" d="M337.26,209.47l-.42.66c0,.08.23.17.43.13l1.64-.29c.15,0,.14-.11,0-.16l-1.22-.37C337.51,209.39,337.3,209.41,337.26,209.47Z"/><path class="cls-14" d="M338.76,209.92l-.42.66c-.06.08.22.17.42.13l1.64-.29c.15,0,.14-.11,0-.16l-1.21-.37C339,209.84,338.8,209.85,338.76,209.92Z"/><path class="cls-14" d="M340.33,210.35l-.42.67c-.05.08.23.17.42.13l1.64-.29c.15,0,.14-.11,0-.16l-1.21-.37C340.58,210.28,340.37,210.29,340.33,210.35Z"/><path class="cls-14" d="M345.09,208.51a1.15,1.15,0,0,1,.55.15c.11.09.06.18,0,.23a2.46,2.46,0,0,1-1.48,0C344,208.74,344.52,208.47,345.09,208.51Z"/><path class="cls-15" d="M345,208.59a1,1,0,0,1,.37.1c.07.06,0,.13,0,.16a1.74,1.74,0,0,1-1,0C344.26,208.75,344.64,208.57,345,208.59Z"/><path class="cls-14" d="M343.24,208.71a1.11,1.11,0,0,1,.54.15c.12.09.07.18,0,.24a2.54,2.54,0,0,1-1.48,0C342.09,208.94,342.67,208.67,343.24,208.71Z"/><path class="cls-15" d="M343.17,208.8a.69.69,0,0,1,.36.1c.08.06,0,.12,0,.15a1.66,1.66,0,0,1-1,0C342.4,209,342.79,208.77,343.17,208.8Z"/><path class="cls-14" d="M344.51,208a1.38,1.38,0,0,1,.54.15c.12.09.07.19,0,.24a2.55,2.55,0,0,1-1.48,0C343.36,208.24,343.94,208,344.51,208Z"/><path class="cls-15" d="M344.44,208.09a.8.8,0,0,1,.36.1c.08.06,0,.12,0,.16a1.65,1.65,0,0,1-1,0C343.67,208.25,344.06,208.06,344.44,208.09Z"/><path class="cls-14" d="M343.41,207.55a1.8,1.8,0,0,1,.64.07c.19.07.24.17.21.24s-1,.29-1.32.18S342.87,207.59,343.41,207.55Z"/><path class="cls-15" d="M343.44,207.64a1,1,0,0,1,.42.05c.13.05.17.11.15.16s-.7.19-.89.12S343.08,207.67,343.44,207.64Z"/><path class="cls-14" d="M342.17,208a1.78,1.78,0,0,1,.64.07c.19.07.25.17.21.24s-1,.29-1.32.19S341.64,208.08,342.17,208Z"/><path class="cls-15" d="M342.2,208.13a1.28,1.28,0,0,1,.43,0c.13.05.16.11.14.16s-.7.19-.89.13S341.84,208.16,342.2,208.13Z"/><path class="cls-14" d="M341.94,207.29a1.43,1.43,0,0,1,.64,0,.57.57,0,0,1,.42.21c.1.23-.66.49-1,.43S341.49,207.43,341.94,207.29Z"/><path class="cls-15" d="M342.05,207.38a1,1,0,0,1,.43,0,.36.36,0,0,1,.28.14c.07.15-.44.33-.68.29S341.75,207.47,342.05,207.38Z"/><path class="cls-14" d="M340.6,207.1a1.72,1.72,0,0,1,.62,0,.65.65,0,0,1,.44.2c.12.21-.61.43-1,.37S340.17,207.22,340.6,207.1Z"/><path class="cls-15" d="M340.72,207.19a.93.93,0,0,1,.42,0,.51.51,0,0,1,.29.13c.08.14-.41.29-.65.25S340.43,207.26,340.72,207.19Z"/><path class="cls-14" d="M339.22,207.13s.09-.11.26-.14a1.27,1.27,0,0,1,.49,0c.37.1.35.38.09.41S339.19,207.29,339.22,207.13Z"/><path class="cls-15" d="M339.4,207.16s.06-.08.17-.09a.93.93,0,0,1,.34,0c.24.07.23.25.06.28S339.38,207.27,339.4,207.16Z"/><path class="cls-14" d="M340,207.63a.75.75,0,0,1,.35,0,.42.42,0,0,1,.26.11c.08.12-.31.25-.52.22S339.73,207.7,340,207.63Z"/><path class="cls-15" d="M340,207.68a.58.58,0,0,1,.24,0,.29.29,0,0,1,.17.08c.06.07-.21.16-.34.14S339.89,207.72,340,207.68Z"/><path class="cls-14" d="M345.48,209.1c.17,0,.35.11.37.21s-.13.17-.28.2a2.21,2.21,0,0,1-1.42-.23C344.12,209.14,345,209,345.48,209.1Z"/><path class="cls-15" d="M345.32,209.16c.12,0,.24.08.25.14s-.09.12-.19.14c-.31.06-.93-.06-.95-.16S345,209.09,345.32,209.16Z"/><path class="cls-14" d="M345.35,209.72c.13.06.22.15.15.24a.84.84,0,0,1-.49.13c-.56,0-1.25-.27-1.14-.4A2.58,2.58,0,0,1,345.35,209.72Z"/><path class="cls-15" d="M345.13,209.76c.09,0,.15.1.1.15a.5.5,0,0,1-.33.09c-.37,0-.84-.18-.76-.26A1.6,1.6,0,0,1,345.13,209.76Z"/><path class="cls-14" d="M344.68,210.26c.08,0,.14.1.1.15a.64.64,0,0,1-.32.09c-.35,0-.8-.18-.72-.26A1.59,1.59,0,0,1,344.68,210.26Z"/><path class="cls-15" d="M344.54,210.28c.06,0,.1.07.06.1a.31.31,0,0,1-.21.06c-.23,0-.53-.12-.48-.17A1,1,0,0,1,344.54,210.28Z"/><path class="cls-14" d="M343.74,209.62c.08,0,.14.1.09.16a.52.52,0,0,1-.31.08c-.36,0-.8-.18-.73-.26A1.62,1.62,0,0,1,343.74,209.62Z"/><path class="cls-15" d="M343.6,209.65s.09.06.06.1a.48.48,0,0,1-.21.06c-.24,0-.53-.12-.48-.18A1.05,1.05,0,0,1,343.6,209.65Z"/><path class="cls-14" d="M335.73,211.17c0,.07.07.16.28.22a1.68,1.68,0,0,0,.66,0c.5-.07.58-.43.27-.52S335.75,211,335.73,211.17Z"/><path class="cls-15" d="M336,211.16c0,.05,0,.11.19.15a1.3,1.3,0,0,0,.43,0c.34-.05.4-.29.19-.35S336,211,336,211.16Z"/><path class="cls-14" d="M336.84,210.63c0,.07.07.16.28.22a1.68,1.68,0,0,0,.66,0c.5-.07.59-.43.27-.52S336.86,210.42,336.84,210.63Z"/><path class="cls-15" d="M337.09,210.62s.05.11.19.15a1.08,1.08,0,0,0,.43,0c.34-.05.4-.29.19-.35S337.1,210.48,337.09,210.62Z"/><path class="cls-14" d="M334.49,210.85c0,.07.08.16.29.22a1.63,1.63,0,0,0,.65,0c.51-.07.59-.43.27-.52S334.52,210.64,334.49,210.85Z"/><path class="cls-15" d="M334.74,210.84s.05.11.19.15a1.13,1.13,0,0,0,.44,0c.34-.05.39-.29.18-.35S334.76,210.7,334.74,210.84Z"/><path class="cls-14" d="M333.51,210.36c-.08.06-.1.16,0,.24a1.6,1.6,0,0,0,.6.13c.56,0,1-.3.81-.42A2.4,2.4,0,0,0,333.51,210.36Z"/><path class="cls-15" d="M333.76,210.39c-.05,0-.07.11,0,.16a.8.8,0,0,0,.39.09c.38,0,.69-.2.55-.28A1.61,1.61,0,0,0,333.76,210.39Z"/><path class="cls-14" d="M335.1,210c-.08.06-.1.16,0,.24a1.55,1.55,0,0,0,.59.13c.57,0,1-.3.81-.42A2.41,2.41,0,0,0,335.1,210Z"/><path class="cls-15" d="M335.35,210.07c-.05,0-.07.11,0,.16a1,1,0,0,0,.4.09c.37,0,.68-.2.54-.28A1.61,1.61,0,0,0,335.35,210.07Z"/><path class="cls-14" d="M333.13,209.79c-.16,0-.3.12-.25.21s.28.17.48.2c.61.09,1.48-.12,1.4-.26A2.9,2.9,0,0,0,333.13,209.79Z"/><path class="cls-15" d="M333.36,209.85c-.11,0-.2.08-.17.14s.19.11.33.13c.4.06,1-.08.93-.17A2,2,0,0,0,333.36,209.85Z"/><path class="cls-14" d="M332.92,209.28c-.14,0-.26.12-.2.21s.25.17.44.2c.54.09,1.3-.12,1.22-.25A2.43,2.43,0,0,0,332.92,209.28Z"/><path class="cls-15" d="M333.13,209.34c-.09,0-.17.08-.14.14s.18.11.3.13c.36.06.87-.07.82-.16A1.6,1.6,0,0,0,333.13,209.34Z"/><path class="cls-14" d="M334.41,209.42s0,.1.15.13a1,1,0,0,0,.37,0c.3,0,.36-.24.18-.3S334.43,209.31,334.41,209.42Z"/><path class="cls-15" d="M334.55,209.42s0,.07.1.09a1.14,1.14,0,0,0,.25,0c.2,0,.24-.17.12-.2S334.57,209.34,334.55,209.42Z"/><path class="cls-14" d="M332.84,209c-.06,0-.1.08,0,.13a.51.51,0,0,0,.3.1c.32,0,.67-.12.59-.2A1.58,1.58,0,0,0,332.84,209Z"/><path class="cls-15" d="M333,209c-.05,0-.07.05,0,.09a.52.52,0,0,0,.2.06c.22,0,.46-.08.4-.13A1,1,0,0,0,333,209Z"/><path class="cls-14" d="M333.13,208.73c-.06,0-.09.08,0,.12a.5.5,0,0,0,.26.08c.28,0,.6-.1.52-.17A1.38,1.38,0,0,0,333.13,208.73Z"/><path class="cls-15" d="M333.25,208.76s-.07.05,0,.08a.29.29,0,0,0,.17,0c.19,0,.4-.07.35-.11A.8.8,0,0,0,333.25,208.76Z"/><path class="cls-14" d="M337.24,211.44a.82.82,0,0,0,.49.17,1.37,1.37,0,0,0,.61-.05c.37-.14.06-.5-.3-.55S337.05,211.23,337.24,211.44Z"/><path class="cls-15" d="M337.46,211.4a.62.62,0,0,0,.32.12,1.15,1.15,0,0,0,.41,0c.25-.1,0-.34-.2-.37S337.33,211.26,337.46,211.4Z"/><path class="cls-14" d="M339,211.53a1.41,1.41,0,0,0,.61.11.79.79,0,0,0,.48-.14c.18-.19-.47-.5-.84-.49S338.58,211.36,339,211.53Z"/><path class="cls-15" d="M339.11,211.47a1.38,1.38,0,0,0,.41.07.53.53,0,0,0,.32-.1c.12-.13-.31-.33-.56-.32S338.86,211.35,339.11,211.47Z"/><path class="cls-14" d="M340.42,211.49a.75.75,0,0,0,.36.06.41.41,0,0,0,.29-.08c.11-.11-.28-.3-.5-.29S340.19,211.39,340.42,211.49Z"/><path class="cls-15" d="M340.51,211.45a.7.7,0,0,0,.24,0,.31.31,0,0,0,.19-.05c.07-.08-.19-.2-.33-.2S340.35,211.38,340.51,211.45Z"/><path class="cls-14" d="M341.2,211.32a.87.87,0,0,0,.31.05.39.39,0,0,0,.25-.07c.09-.1-.24-.25-.43-.25S341,211.23,341.2,211.32Z"/><path class="cls-15" d="M341.28,211.28a.5.5,0,0,0,.2,0,.34.34,0,0,0,.17,0c.06-.06-.16-.17-.29-.16S341.15,211.22,341.28,211.28Z"/><path class="cls-14" d="M339.24,211a1,1,0,0,0,.35.06.5.5,0,0,0,.27-.08c.1-.11-.27-.29-.47-.28S339,210.85,339.24,211Z"/><path class="cls-15" d="M339.32,210.91a.7.7,0,0,0,.24,0,.31.31,0,0,0,.18-.06c.06-.07-.18-.18-.32-.18S339.18,210.84,339.32,210.91Z"/><path class="cls-16" d="M340.1,208.26c.21.14-.69.37-.47.51s1.23.06,1.35.17-.87.26-.76.38,1.48.09,1.61.24-.81.26-.69.39,1.53.07,1.72.23-1.31.6-1.82.47,0-.49-.38-.57-.89.24-1.19.17.18-.62-.2-.7-1,.23-1.25.17.12-.35-.18-.44-1,.17-1.45.07.07-.62-.29-.7-1,.29-1.29.22.08-.34-.19-.74c0,0,0,0,0,0a.83.83,0,0,0-.27-.27,2.13,2.13,0,0,0-.38-.18c.19,0,.41-.07.64-.09l.6-.07.31-.19a4.11,4.11,0,0,1,.42-.21,3,3,0,0,0,.83.28l.27,0a13.25,13.25,0,0,1,1.84.23c.19.14-.49.31-.29.44S339.88,208.12,340.1,208.26Z"/><path class="cls-12" d="M351.84,213.85a3.61,3.61,0,0,1,1.85-1.24c2.28-.86,6.19-1.15,10.2-.65,5.56.71,9.2,2.7,8.11,4.44-.53.87-2.16,1.52-4.32,1.86-.37.06-.76.11-1.15.15s-1,.08-1.47.1a30.86,30.86,0,0,1-5.11-.22C354.38,217.59,350.76,215.6,351.84,213.85Z"/><path class="cls-12" d="M349.63,216c-.47-1.51,1.22-2.82,4.06-3.41a18.23,18.23,0,0,1,3.81-.37c5,0,9.58,1.74,10.22,3.84a1.71,1.71,0,0,1-.52,1.79,3.43,3.43,0,0,1-.67.54,6,6,0,0,1-.62.35,14.32,14.32,0,0,1-6.06,1.1C354.85,219.84,350.28,218.12,349.63,216Z"/><path class="cls-13" d="M364.61,218.47a3,3,0,0,1,.91-.47,7.09,7.09,0,0,1,1.6-.34l.56.6c-.37.06-.76.11-1.15.15a6,6,0,0,1-.62.35l-.48-.1Z"/><path class="cls-14" d="M353.07,214a3,3,0,0,1,1.48-1h0a20.51,20.51,0,0,1,9.09-.62c4.89.62,8.09,2.37,7.13,3.91-.46.74-1.8,1.3-3.61,1.61-.45.08-.93.13-1.42.18-.7.06-1.43.09-2.2.09a27.85,27.85,0,0,1-3.36-.22C355.29,217.29,352.11,215.54,353.07,214Z"/><path class="cls-14" d="M350.7,216c-.43-1.38,1.19-2.56,3.85-3.06h0a16.16,16.16,0,0,1,3.07-.27c4.42,0,8.46,1.54,9,3.39a1.42,1.42,0,0,1-.18,1.23,2.48,2.48,0,0,1-.72.73,4.93,4.93,0,0,1-.79.44,12.93,12.93,0,0,1-5.26.92C355.31,219.39,351.27,217.87,350.7,216Z"/><path class="cls-12" d="M366.05,216.6l-7.71-2.25c-1.08-.32-1.06-.89,0-1.11a17.31,17.31,0,0,1,7.65.33c2.38.7,3.43,1.79,2.84,2.73C368.57,216.75,367.12,216.91,366.05,216.6Z"/><path class="cls-12" d="M361.64,217.85l-4.36-3.2a4,4,0,0,0-3-.25c-1.76.67-2.18,1.75-.83,2.74s4.06,1.6,6.76,1.62C361.49,218.76,362.25,218.29,361.64,217.85Z"/><path class="cls-14" d="M362.67,218.13h-2.3c-.28,0-.48-.14-.31-.21l1.41-.61a.67.67,0,0,1,.5,0l.89.61C363,218,362.88,218.13,362.67,218.13Z"/><path class="cls-14" d="M360.88,217.51h-2.3c-.28,0-.48-.14-.31-.22l1.41-.61a.67.67,0,0,1,.5.06l.89.61C361.19,217.43,361.09,217.51,360.88,217.51Z"/><path class="cls-14" d="M359.91,216.69h-2.3c-.28,0-.48-.14-.31-.22l1.41-.6a.63.63,0,0,1,.5,0l.89.61C360.22,216.61,360.12,216.69,359.91,216.69Z"/><path class="cls-14" d="M358.85,215.94h-2.3c-.28,0-.49-.14-.31-.22l1.4-.61a.7.7,0,0,1,.51.06l.89.61C359.16,215.86,359.06,215.94,358.85,215.94Z"/><path class="cls-14" d="M357.84,215.16h-2.3c-.27,0-.48-.14-.31-.22l1.41-.61a.7.7,0,0,1,.51.06l.89.61C358.15,215.08,358.05,215.16,357.84,215.16Z"/><path class="cls-14" d="M367.1,216.82l.51-.8c.06-.1-.28-.2-.52-.16l-2,.35c-.18,0-.17.13,0,.19l1.46.45C366.8,216.91,367.05,216.89,367.1,216.82Z"/><path class="cls-14" d="M365.18,216.24l.51-.8c.06-.1-.28-.2-.52-.16l-2,.35c-.18,0-.17.13,0,.19l1.46.45C364.88,216.33,365.13,216.31,365.18,216.24Z"/><path class="cls-14" d="M363.28,215.68l.51-.8c.07-.1-.27-.2-.51-.16l-2,.36c-.18,0-.17.13,0,.18l1.46.45C363,215.77,363.24,215.76,363.28,215.68Z"/><path class="cls-14" d="M361.48,215.14l.51-.8c.07-.1-.27-.2-.51-.16l-2,.35c-.18,0-.17.13,0,.19l1.46.45C361.18,215.23,361.44,215.22,361.48,215.14Z"/><path class="cls-14" d="M359.59,214.61l.51-.8c.06-.1-.27-.2-.51-.16l-2,.36c-.18,0-.17.13,0,.18l1.46.45C359.29,214.7,359.55,214.69,359.59,214.61Z"/><path class="cls-14" d="M353.86,216.84a1.51,1.51,0,0,1-.65-.18c-.14-.11-.08-.22,0-.29a3.08,3.08,0,0,1,1.79,0C355.24,216.56,354.55,216.88,353.86,216.84Z"/><path class="cls-15" d="M354,216.73a1,1,0,0,1-.44-.12c-.1-.07-.05-.14,0-.19a2.07,2.07,0,0,1,1.19,0C354.87,216.55,354.4,216.77,354,216.73Z"/><path class="cls-14" d="M356.1,216.59a1.32,1.32,0,0,1-.66-.18c-.14-.1-.08-.22.05-.28a3,3,0,0,1,1.78,0C357.47,216.31,356.78,216.64,356.1,216.59Z"/><path class="cls-15" d="M356.18,216.49a1,1,0,0,1-.44-.12c-.09-.07-.05-.15,0-.19a2,2,0,0,1,1.2,0C357.1,216.3,356.64,216.52,356.18,216.49Z"/><path class="cls-14" d="M354.57,217.44a1.32,1.32,0,0,1-.66-.18c-.14-.1-.08-.22,0-.28a3,3,0,0,1,1.78,0C355.94,217.16,355.25,217.49,354.57,217.44Z"/><path class="cls-15" d="M354.65,217.34a1,1,0,0,1-.44-.12c-.09-.07,0-.15,0-.19a2,2,0,0,1,1.2,0C355.57,217.15,355.11,217.37,354.65,217.34Z"/><path class="cls-14" d="M355.89,218a2,2,0,0,1-.77-.08c-.23-.09-.3-.21-.25-.29.12-.24,1.24-.35,1.59-.22S356.53,217.94,355.89,218Z"/><path class="cls-15" d="M355.85,217.88a1.32,1.32,0,0,1-.51-.06c-.16,0-.2-.13-.17-.19s.83-.23,1.06-.15S356.29,217.84,355.85,217.88Z"/><path class="cls-14" d="M357.38,217.41a2,2,0,0,1-.77-.08c-.23-.09-.3-.21-.26-.29.12-.24,1.25-.35,1.59-.22S358,217.36,357.38,217.41Z"/><path class="cls-15" d="M357.34,217.3a1.3,1.3,0,0,1-.51-.06c-.16-.05-.2-.13-.17-.19s.83-.23,1.06-.15S357.77,217.26,357.34,217.3Z"/><path class="cls-14" d="M357.66,218.31a1.88,1.88,0,0,1-.77,0,.71.71,0,0,1-.51-.25c-.12-.28.8-.59,1.23-.52S358.2,218.14,357.66,218.31Z"/><path class="cls-15" d="M357.52,218.19a1.18,1.18,0,0,1-.51,0,.46.46,0,0,1-.34-.17c-.08-.18.53-.39.82-.34S357.88,218.08,357.52,218.19Z"/><path class="cls-14" d="M359.27,218.53a1.8,1.8,0,0,1-.75,0c-.3-.05-.48-.15-.52-.24-.15-.25.72-.51,1.15-.44S359.79,218.39,359.27,218.53Z"/><path class="cls-15" d="M359.13,218.43a1.38,1.38,0,0,1-.51,0,.53.53,0,0,1-.35-.16c-.1-.17.49-.35.78-.3S359.47,218.33,359.13,218.43Z"/><path class="cls-14" d="M360.93,218.49c0,.06-.11.14-.31.17a1.64,1.64,0,0,1-.6,0c-.43-.12-.41-.46-.11-.5S361,218.3,360.93,218.49Z"/><path class="cls-15" d="M360.71,218.46s-.07.09-.21.11a1,1,0,0,1-.4,0c-.29-.08-.28-.3-.07-.33S360.73,218.33,360.71,218.46Z"/><path class="cls-14" d="M360,217.9a1.14,1.14,0,0,1-.43,0,.5.5,0,0,1-.31-.13c-.1-.14.38-.3.62-.27S360.31,217.81,360,217.9Z"/><path class="cls-15" d="M359.94,217.84a.66.66,0,0,1-.29,0,.29.29,0,0,1-.2-.08c-.07-.1.25-.21.41-.18S360.13,217.78,359.94,217.84Z"/><path class="cls-14" d="M353.39,216.13c-.2,0-.42-.14-.44-.26s.15-.2.34-.24c.56-.12,1.67.11,1.7.28S354,216.26,353.39,216.13Z"/><path class="cls-15" d="M353.58,216.05c-.13,0-.28-.1-.3-.17s.11-.14.24-.16a1.77,1.77,0,0,1,1.13.18C354.68,216,354,216.14,353.58,216.05Z"/><path class="cls-14" d="M353.55,215.38c-.15-.07-.27-.19-.18-.29a1.06,1.06,0,0,1,.59-.16c.67,0,1.51.33,1.37.48A3.08,3.08,0,0,1,353.55,215.38Z"/><path class="cls-15" d="M353.81,215.33c-.1,0-.17-.12-.11-.19a.75.75,0,0,1,.39-.11c.45,0,1,.23.91.33A2,2,0,0,1,353.81,215.33Z"/><path class="cls-14" d="M354.35,214.73c-.09,0-.17-.12-.11-.18a.64.64,0,0,1,.38-.11c.43,0,1,.22.87.31A1.92,1.92,0,0,1,354.35,214.73Z"/><path class="cls-15" d="M354.52,214.7c-.06,0-.11-.07-.07-.12a.5.5,0,0,1,.25-.07c.29,0,.65.15.59.21A1.35,1.35,0,0,1,354.52,214.7Z"/><path class="cls-14" d="M355.49,215.49c-.1,0-.17-.11-.11-.18a.63.63,0,0,1,.37-.1c.43,0,1,.21.88.31A1.94,1.94,0,0,1,355.49,215.49Z"/><path class="cls-15" d="M355.66,215.47c-.07,0-.12-.08-.08-.12a.45.45,0,0,1,.26-.08c.28,0,.64.15.58.21A1.23,1.23,0,0,1,355.66,215.47Z"/><path class="cls-14" d="M365.13,213.64c0-.09-.09-.2-.34-.27a2,2,0,0,0-.79-.05c-.61.08-.7.52-.33.63S365.1,213.89,365.13,213.64Z"/><path class="cls-15" d="M364.83,213.64s-.06-.13-.23-.18a1.34,1.34,0,0,0-.52,0c-.41.06-.48.35-.22.42S364.81,213.81,364.83,213.64Z"/><path class="cls-14" d="M363.8,214.28c0-.08-.09-.19-.35-.27a2.1,2.1,0,0,0-.78,0c-.61.08-.71.52-.33.62S363.77,214.53,363.8,214.28Z"/><path class="cls-15" d="M363.5,214.29s-.06-.13-.23-.18a1.39,1.39,0,0,0-.53,0c-.41,0-.47.35-.22.42S363.48,214.46,363.5,214.29Z"/><path class="cls-14" d="M366.62,214c0-.08-.09-.2-.34-.27a2.17,2.17,0,0,0-.79-.05c-.61.09-.71.52-.33.63S366.59,214.27,366.62,214Z"/><path class="cls-15" d="M366.32,214c0-.06-.06-.14-.23-.18a1.4,1.4,0,0,0-.53,0c-.41.06-.47.35-.22.42S366.3,214.19,366.32,214Z"/><path class="cls-14" d="M367.8,214.6c.1-.07.12-.18-.05-.28a1.76,1.76,0,0,0-.71-.16c-.69,0-1.24.36-1,.51A2.89,2.89,0,0,0,367.8,214.6Z"/><path class="cls-15" d="M367.5,214.57c.07,0,.08-.13,0-.19a1.21,1.21,0,0,0-.48-.11c-.46,0-.82.24-.65.34A1.92,1.92,0,0,0,367.5,214.57Z"/><path class="cls-14" d="M365.88,215c.1-.07.12-.18-.05-.28a1.76,1.76,0,0,0-.71-.16c-.68,0-1.23.36-1,.5A2.81,2.81,0,0,0,365.88,215Z"/><path class="cls-15" d="M365.59,215c.06,0,.08-.12,0-.19a1.16,1.16,0,0,0-.47-.1c-.46,0-.83.24-.66.34A2,2,0,0,0,365.59,215Z"/><path class="cls-14" d="M368.26,215.3c.19-.05.36-.15.3-.26s-.34-.2-.58-.24c-.73-.1-1.78.15-1.69.31A3.65,3.65,0,0,0,368.26,215.3Z"/><path class="cls-15" d="M368,215.22c.13,0,.24-.1.2-.17s-.22-.13-.39-.16c-.48-.07-1.19.1-1.12.21A2.4,2.4,0,0,0,368,215.22Z"/><path class="cls-14" d="M368.51,215.91c.17,0,.31-.15.25-.26a.82.82,0,0,0-.53-.23c-.65-.11-1.58.13-1.48.3A3,3,0,0,0,368.51,215.91Z"/><path class="cls-15" d="M368.26,215.83c.11,0,.21-.09.17-.17a.67.67,0,0,0-.36-.16c-.44-.07-1.05.1-1,.21A2,2,0,0,0,368.26,215.83Z"/><path class="cls-14" d="M366.72,215.73s0-.11-.19-.15a1.12,1.12,0,0,0-.44,0c-.36,0-.43.29-.21.35S366.69,215.88,366.72,215.73Z"/><path class="cls-15" d="M366.55,215.74s0-.08-.13-.11a.72.72,0,0,0-.29,0c-.24,0-.29.2-.15.24S366.53,215.83,366.55,215.74Z"/><path class="cls-14" d="M368.6,216.26c.08,0,.13-.09.06-.15a.73.73,0,0,0-.36-.12c-.39,0-.81.15-.71.24A1.69,1.69,0,0,0,368.6,216.26Z"/><path class="cls-15" d="M368.45,216.23c.05,0,.08-.06,0-.1a.4.4,0,0,0-.24-.08c-.26,0-.54.1-.47.16A1.17,1.17,0,0,0,368.45,216.23Z"/><path class="cls-14" d="M368.26,216.56c.07,0,.11-.08.05-.14a.8.8,0,0,0-.32-.1c-.34,0-.72.13-.63.21A1.5,1.5,0,0,0,368.26,216.56Z"/><path class="cls-15" d="M368.12,216.53c.05,0,.07-.05,0-.09a.4.4,0,0,0-.21-.06c-.23,0-.48.08-.42.13A.92.92,0,0,0,368.12,216.53Z"/><path class="cls-14" d="M363.31,213.31a1.05,1.05,0,0,0-.59-.21,1.74,1.74,0,0,0-.73.06c-.45.17-.08.61.36.66S363.54,213.56,363.31,213.31Z"/><path class="cls-15" d="M363.05,213.36a.63.63,0,0,0-.39-.14,1,1,0,0,0-.49,0c-.3.11-.05.41.24.44S363.21,213.52,363.05,213.36Z"/><path class="cls-14" d="M361.23,213.19a1.79,1.79,0,0,0-.73-.12.89.89,0,0,0-.58.17c-.22.22.57.6,1,.58S361.69,213.4,361.23,213.19Z"/><path class="cls-15" d="M361.06,213.28a1.26,1.26,0,0,0-.49-.09.59.59,0,0,0-.39.12c-.14.15.38.4.67.39S361.37,213.41,361.06,213.28Z"/><path class="cls-14" d="M359.49,213.25a1.28,1.28,0,0,0-.44-.08.63.63,0,0,0-.35.1c-.13.14.34.36.6.35S359.76,213.37,359.49,213.25Z"/><path class="cls-15" d="M359.38,213.3a.58.58,0,0,0-.29-.05.35.35,0,0,0-.23.06c-.09.09.22.24.4.24S359.57,213.38,359.38,213.3Z"/><path class="cls-14" d="M358.54,213.46a.9.9,0,0,0-.37-.07.46.46,0,0,0-.29.09c-.11.11.29.3.51.29S358.78,213.56,358.54,213.46Z"/><path class="cls-15" d="M358.45,213.5a.51.51,0,0,0-.24-.05.38.38,0,0,0-.2.06c-.07.08.19.21.34.2S358.61,213.57,358.45,213.5Z"/><path class="cls-14" d="M360.9,213.9a1.12,1.12,0,0,0-.41-.07.51.51,0,0,0-.33.1c-.12.12.32.33.57.33S361.16,214,360.9,213.9Z"/><path class="cls-15" d="M360.8,214a.62.62,0,0,0-.27,0,.36.36,0,0,0-.22.06c-.08.09.21.23.38.23S361,214,360.8,214Z"/><path class="cls-16" d="M359.87,217.13c-.26-.16.83-.44.57-.61s-1.48-.07-1.63-.2,1.05-.31.91-.46-1.78-.11-1.93-.29,1-.31.83-.46-1.85-.1-2.07-.29,1.58-.72,2.19-.56,0,.59.46.68,1.07-.28,1.43-.2-.22.74.24.84,1.16-.28,1.5-.2-.14.42.22.53,1.26-.21,1.74-.09-.08.74.35.84,1.17-.35,1.56-.26-.1.42.22.89c0,0,0,0,0,0a.93.93,0,0,0,.32.31,2.81,2.81,0,0,0,.46.23l-.77.11-.73.08-.37.23-.5.25a3.68,3.68,0,0,0-1-.34l-.32-.05a14.56,14.56,0,0,1-2.21-.27c-.23-.18.59-.38.35-.53S360.13,217.3,359.87,217.13Z"/><path class="cls-12" d="M318.93,213.39a3.61,3.61,0,0,1,1.85-1.24c2.28-.86,6.19-1.15,10.2-.65,5.56.71,9.2,2.69,8.11,4.44-.53.87-2.16,1.52-4.32,1.86-.36.06-.76.11-1.15.14s-1,.09-1.47.11a30.86,30.86,0,0,1-5.11-.22C321.47,217.12,317.85,215.14,318.93,213.39Z"/><path class="cls-12" d="M316.72,215.56c-.47-1.51,1.22-2.82,4.06-3.41a18.23,18.23,0,0,1,3.81-.37c5,0,9.58,1.74,10.22,3.84a1.71,1.71,0,0,1-.52,1.79,3.07,3.07,0,0,1-.67.53,6,6,0,0,1-.62.36,14.19,14.19,0,0,1-6.06,1.09C321.94,219.38,317.37,217.66,316.72,215.56Z"/><path class="cls-13" d="M331.7,218a2.94,2.94,0,0,1,.91-.48,7.59,7.59,0,0,1,1.6-.33l.56.6c-.36.06-.76.11-1.15.14a6,6,0,0,1-.62.36l-.48-.1Z"/><path class="cls-14" d="M320.16,213.55a3,3,0,0,1,1.48-1.05h0a20.51,20.51,0,0,1,9.09-.62c4.89.62,8.09,2.37,7.13,3.91-.46.74-1.8,1.3-3.61,1.61-.45.07-.93.13-1.42.18-.7.06-1.43.09-2.2.09a27.56,27.56,0,0,1-3.35-.22C322.39,216.82,319.2,215.08,320.16,213.55Z"/><path class="cls-14" d="M317.79,215.56c-.43-1.38,1.19-2.56,3.85-3.06h0a15.42,15.42,0,0,1,3.08-.27c4.41,0,8.45,1.54,9,3.39a1.42,1.42,0,0,1-.18,1.23,2.48,2.48,0,0,1-.72.73,7.18,7.18,0,0,1-.79.44,12.93,12.93,0,0,1-5.26.92C322.4,218.93,318.36,217.41,317.79,215.56Z"/><path class="cls-12" d="M333.14,216.13l-7.71-2.25c-1.08-.31-1.06-.88,0-1.1a17.31,17.31,0,0,1,7.65.33c2.38.7,3.43,1.79,2.85,2.73C335.66,216.29,334.21,216.45,333.14,216.13Z"/><path class="cls-12" d="M328.73,217.39l-4.36-3.21a4,4,0,0,0-3-.24c-1.76.67-2.18,1.75-.83,2.74s4.06,1.6,6.76,1.61C328.58,218.3,329.34,217.83,328.73,217.39Z"/><path class="cls-14" d="M329.76,217.67h-2.3c-.28,0-.48-.14-.31-.21l1.41-.61a.62.62,0,0,1,.5,0l.89.61C330.07,217.58,330,217.67,329.76,217.67Z"/><path class="cls-14" d="M328,217.05h-2.3c-.28,0-.48-.15-.31-.22l1.41-.61a.67.67,0,0,1,.5.05l.89.62C328.28,217,328.18,217.05,328,217.05Z"/><path class="cls-14" d="M327,216.23h-2.3c-.28,0-.48-.14-.31-.22l1.41-.61a.67.67,0,0,1,.5.06l.89.61C327.31,216.15,327.21,216.23,327,216.23Z"/><path class="cls-14" d="M325.94,215.48h-2.3c-.28,0-.49-.15-.31-.22l1.4-.61a.7.7,0,0,1,.51,0l.89.62C326.25,215.4,326.15,215.48,325.94,215.48Z"/><path class="cls-14" d="M324.93,214.7h-2.3c-.27,0-.48-.15-.31-.22l1.41-.61a.7.7,0,0,1,.51,0l.89.62C325.24,214.62,325.14,214.7,324.93,214.7Z"/><path class="cls-14" d="M334.19,216.36l.51-.8c.06-.1-.28-.2-.52-.16l-2,.35c-.18,0-.17.13,0,.19l1.47.45C333.89,216.45,334.14,216.43,334.19,216.36Z"/><path class="cls-14" d="M332.27,215.78l.51-.8c.06-.1-.28-.2-.52-.16l-2,.35c-.18,0-.17.13,0,.19l1.46.45C332,215.87,332.22,215.85,332.27,215.78Z"/><path class="cls-14" d="M330.37,215.22l.51-.8c.07-.1-.27-.2-.51-.16l-2,.35c-.18,0-.17.13,0,.19l1.46.45C330.07,215.31,330.33,215.3,330.37,215.22Z"/><path class="cls-14" d="M328.57,214.68l.51-.8c.07-.1-.27-.2-.51-.16l-2,.35c-.18,0-.17.13,0,.19l1.46.45C328.27,214.77,328.53,214.75,328.57,214.68Z"/><path class="cls-14" d="M326.68,214.15l.51-.8c.06-.1-.27-.2-.51-.16l-2,.36c-.18,0-.17.12,0,.18l1.46.45C326.38,214.24,326.64,214.23,326.68,214.15Z"/><path class="cls-14" d="M321,216.38a1.42,1.42,0,0,1-.65-.19c-.14-.1-.08-.21,0-.28a3.08,3.08,0,0,1,1.79,0C322.33,216.09,321.64,216.42,321,216.38Z"/><path class="cls-15" d="M321,216.27a1,1,0,0,1-.44-.12c-.1-.07-.05-.14,0-.19a2.07,2.07,0,0,1,1.19,0C322,216.08,321.5,216.3,321,216.27Z"/><path class="cls-14" d="M323.19,216.13a1.32,1.32,0,0,1-.66-.18c-.14-.1-.08-.22.05-.28a3.05,3.05,0,0,1,1.78,0C324.56,215.85,323.87,216.18,323.19,216.13Z"/><path class="cls-15" d="M323.27,216a1,1,0,0,1-.44-.12c-.09-.07-.05-.15,0-.19a2,2,0,0,1,1.2,0C324.19,215.84,323.73,216.06,323.27,216Z"/><path class="cls-14" d="M321.66,217a1.32,1.32,0,0,1-.66-.18c-.14-.11-.08-.22.05-.28a3.05,3.05,0,0,1,1.78,0C323,216.7,322.34,217,321.66,217Z"/><path class="cls-15" d="M321.74,216.88a1,1,0,0,1-.44-.12c-.09-.07-.05-.15,0-.19a2,2,0,0,1,1.2,0C322.66,216.69,322.2,216.91,321.74,216.88Z"/><path class="cls-14" d="M323,217.53a2.06,2.06,0,0,1-.77-.09c-.23-.08-.29-.2-.25-.28.12-.24,1.24-.35,1.59-.23S323.62,217.47,323,217.53Z"/><path class="cls-15" d="M322.94,217.41a1.3,1.3,0,0,1-.51,0c-.16-.06-.2-.14-.17-.19s.84-.23,1.06-.15S323.38,217.38,322.94,217.41Z"/><path class="cls-14" d="M324.47,217a2.06,2.06,0,0,1-.77-.09c-.23-.08-.3-.2-.26-.28.12-.24,1.25-.35,1.59-.23S325.11,216.89,324.47,217Z"/><path class="cls-15" d="M324.43,216.83a1.29,1.29,0,0,1-.51-.05c-.16-.06-.2-.14-.17-.19s.83-.23,1.06-.15S324.86,216.8,324.43,216.83Z"/><path class="cls-14" d="M324.75,217.84a1.7,1.7,0,0,1-.77,0,.7.7,0,0,1-.51-.26c-.12-.27.8-.58,1.23-.51S325.29,217.68,324.75,217.84Z"/><path class="cls-15" d="M324.61,217.73a1.18,1.18,0,0,1-.51,0,.46.46,0,0,1-.34-.17c-.08-.18.53-.39.82-.35S325,217.62,324.61,217.73Z"/><path class="cls-14" d="M326.36,218.07a1.8,1.8,0,0,1-.75,0,.75.75,0,0,1-.52-.24c-.15-.25.72-.52,1.15-.44S326.88,217.93,326.36,218.07Z"/><path class="cls-15" d="M326.22,218a1.38,1.38,0,0,1-.51,0,.66.66,0,0,1-.35-.16c-.1-.17.49-.35.78-.3S326.56,217.87,326.22,218Z"/><path class="cls-14" d="M328,218c0,.06-.12.14-.32.17a1.64,1.64,0,0,1-.6,0c-.43-.12-.41-.46-.11-.5S328.06,217.84,328,218Z"/><path class="cls-15" d="M327.8,218s-.07.09-.21.11a1,1,0,0,1-.4,0c-.29-.08-.28-.3-.07-.33S327.82,217.87,327.8,218Z"/><path class="cls-14" d="M327.12,217.44a1.4,1.4,0,0,1-.43,0,.56.56,0,0,1-.31-.13c-.1-.15.38-.31.62-.27S327.4,217.35,327.12,217.44Z"/><path class="cls-15" d="M327,217.38a.66.66,0,0,1-.29,0,.25.25,0,0,1-.2-.09c-.07-.09.25-.2.41-.17S327.22,217.32,327,217.38Z"/><path class="cls-14" d="M320.48,215.67c-.2,0-.42-.15-.44-.26s.15-.2.34-.24c.56-.12,1.67.11,1.7.28S321.1,215.8,320.48,215.67Z"/><path class="cls-15" d="M320.67,215.59c-.13,0-.28-.1-.3-.17s.11-.14.24-.16a1.77,1.77,0,0,1,1.13.18C321.77,215.55,321.09,215.68,320.67,215.59Z"/><path class="cls-14" d="M320.64,214.91c-.15-.06-.27-.18-.18-.28a1,1,0,0,1,.59-.16c.67,0,1.51.33,1.37.48A3,3,0,0,1,320.64,214.91Z"/><path class="cls-15" d="M320.9,214.87c-.1,0-.17-.12-.11-.19a.67.67,0,0,1,.39-.11c.45,0,1,.23.91.33A2,2,0,0,1,320.9,214.87Z"/><path class="cls-14" d="M321.44,214.27c-.09-.05-.17-.12-.11-.18a.64.64,0,0,1,.38-.11c.43,0,1,.22.87.31A1.92,1.92,0,0,1,321.44,214.27Z"/><path class="cls-15" d="M321.61,214.24c-.06,0-.11-.08-.07-.12a.44.44,0,0,1,.25-.07c.29,0,.65.14.59.21A1.35,1.35,0,0,1,321.61,214.24Z"/><path class="cls-14" d="M322.58,215c-.1,0-.17-.12-.11-.18a.56.56,0,0,1,.37-.1c.43,0,1,.21.88.31A1.94,1.94,0,0,1,322.58,215Z"/><path class="cls-15" d="M322.75,215c-.07,0-.12-.08-.08-.13a.54.54,0,0,1,.26-.07c.28,0,.64.15.58.21A1.23,1.23,0,0,1,322.75,215Z"/><path class="cls-14" d="M332.22,213.18c0-.09-.09-.2-.34-.28a2.16,2.16,0,0,0-.79,0c-.61.08-.7.52-.32.62S332.19,213.42,332.22,213.18Z"/><path class="cls-15" d="M331.92,213.18c0-.05-.06-.13-.23-.18a1.34,1.34,0,0,0-.52,0c-.41.05-.48.35-.22.42S331.9,213.35,331.92,213.18Z"/><path class="cls-14" d="M330.89,213.82c0-.08-.09-.19-.35-.27a2.1,2.1,0,0,0-.78,0c-.61.08-.71.52-.33.62S330.86,214.07,330.89,213.82Z"/><path class="cls-15" d="M330.59,213.83c0-.06-.06-.13-.23-.18a1.39,1.39,0,0,0-.53,0c-.41,0-.47.35-.22.42S330.57,214,330.59,213.83Z"/><path class="cls-14" d="M333.71,213.56c0-.08-.09-.2-.34-.27a2.17,2.17,0,0,0-.79,0c-.61.09-.71.52-.33.63S333.68,213.81,333.71,213.56Z"/><path class="cls-15" d="M333.41,213.56c0-.05-.06-.13-.23-.18a1.39,1.39,0,0,0-.53,0c-.41.06-.47.35-.22.42S333.39,213.73,333.41,213.56Z"/><path class="cls-14" d="M334.89,214.14c.1-.07.12-.18-.05-.28a1.76,1.76,0,0,0-.71-.16c-.69,0-1.24.36-1,.51A2.89,2.89,0,0,0,334.89,214.14Z"/><path class="cls-15" d="M334.59,214.11c.07-.05.08-.13,0-.2a1.21,1.21,0,0,0-.48-.1c-.45,0-.82.24-.65.34A1.92,1.92,0,0,0,334.59,214.11Z"/><path class="cls-14" d="M333,214.53c.1-.07.12-.19-.05-.29a1.61,1.61,0,0,0-.71-.15c-.68,0-1.23.36-1,.5A2.88,2.88,0,0,0,333,214.53Z"/><path class="cls-15" d="M332.68,214.49c.06,0,.08-.12,0-.19a1,1,0,0,0-.47-.1c-.46,0-.83.24-.66.34A2,2,0,0,0,332.68,214.49Z"/><path class="cls-14" d="M335.35,214.83c.19-.05.36-.14.3-.25s-.34-.2-.58-.24c-.73-.11-1.78.14-1.69.31A3.66,3.66,0,0,0,335.35,214.83Z"/><path class="cls-15" d="M335.07,214.76c.13,0,.25-.1.2-.17s-.22-.14-.39-.16c-.48-.07-1.19.1-1.12.21A2.4,2.4,0,0,0,335.07,214.76Z"/><path class="cls-14" d="M335.6,215.45c.17,0,.31-.15.25-.26a.88.88,0,0,0-.53-.24c-.65-.1-1.57.14-1.48.31A3,3,0,0,0,335.6,215.45Z"/><path class="cls-15" d="M335.35,215.37c.11,0,.21-.09.17-.17a.67.67,0,0,0-.36-.16c-.43-.07-1.05.09-1,.21A2,2,0,0,0,335.35,215.37Z"/><path class="cls-14" d="M333.81,215.27s0-.11-.19-.15a1,1,0,0,0-.44,0c-.35,0-.43.29-.21.35S333.78,215.41,333.81,215.27Z"/><path class="cls-15" d="M333.64,215.27s0-.07-.12-.1a.79.79,0,0,0-.3,0c-.24,0-.29.2-.15.24S333.62,215.37,333.64,215.27Z"/><path class="cls-14" d="M335.69,215.8c.08,0,.13-.09.06-.15a.62.62,0,0,0-.36-.12c-.39,0-.81.14-.71.24A1.69,1.69,0,0,0,335.69,215.8Z"/><path class="cls-15" d="M335.54,215.77s.08-.06,0-.11a.49.49,0,0,0-.24-.07c-.26,0-.54.09-.47.16A1.17,1.17,0,0,0,335.54,215.77Z"/><path class="cls-14" d="M335.35,216.1c.07,0,.11-.08,0-.14a.67.67,0,0,0-.32-.1c-.34,0-.72.13-.63.21A1.58,1.58,0,0,0,335.35,216.1Z"/><path class="cls-15" d="M335.21,216.07c.05,0,.07,0,0-.09a.4.4,0,0,0-.21-.07c-.23,0-.48.09-.42.14A1,1,0,0,0,335.21,216.07Z"/><path class="cls-14" d="M330.4,212.85a1.05,1.05,0,0,0-.59-.21,1.59,1.59,0,0,0-.73.06c-.45.17-.08.61.37.66S330.63,213.1,330.4,212.85Z"/><path class="cls-15" d="M330.14,212.9a.63.63,0,0,0-.39-.14,1,1,0,0,0-.49,0c-.3.11-.05.41.24.44S330.3,213.06,330.14,212.9Z"/><path class="cls-14" d="M328.32,212.73a1.79,1.79,0,0,0-.73-.12,1,1,0,0,0-.58.16c-.22.23.57.61,1,.59S328.79,212.94,328.32,212.73Z"/><path class="cls-15" d="M328.15,212.82a1.22,1.22,0,0,0-.49-.09.67.67,0,0,0-.39.11c-.14.16.38.41.68.4S328.46,213,328.15,212.82Z"/><path class="cls-14" d="M326.58,212.78a1.1,1.1,0,0,0-.44-.07.55.55,0,0,0-.35.1c-.13.14.34.36.6.35S326.85,212.91,326.58,212.78Z"/><path class="cls-15" d="M326.47,212.83a1,1,0,0,0-.29-.05.41.41,0,0,0-.23.07c-.09.09.22.24.4.24S326.66,212.92,326.47,212.83Z"/><path class="cls-14" d="M325.63,213a1.09,1.09,0,0,0-.37-.06.41.41,0,0,0-.29.09c-.11.11.29.3.51.29S325.87,213.1,325.63,213Z"/><path class="cls-15" d="M325.55,213a.58.58,0,0,0-.25,0c-.11,0-.18,0-.2.06s.19.2.34.2S325.7,213.11,325.55,213Z"/><path class="cls-14" d="M328,213.44a.92.92,0,0,0-.41-.07.52.52,0,0,0-.33.09c-.12.13.32.34.57.33S328.25,213.56,328,213.44Z"/><path class="cls-15" d="M327.89,213.49a.62.62,0,0,0-.27-.05.32.32,0,0,0-.22.06c-.08.09.21.23.38.22S328.07,213.56,327.89,213.49Z"/><path class="cls-16" d="M327,216.67c-.26-.16.83-.44.57-.62s-1.48-.06-1.63-.19,1.05-.31.91-.46-1.78-.12-1.93-.29,1-.31.83-.47-1.85-.09-2.07-.28,1.58-.72,2.19-.56,0,.59.46.68,1.07-.28,1.43-.2-.22.74.24.84,1.16-.28,1.5-.2-.14.42.22.52,1.26-.2,1.74-.08-.08.74.35.84,1.17-.35,1.56-.26-.1.41.22.89v0a.93.93,0,0,0,.32.31,2.81,2.81,0,0,0,.46.23l-.77.11-.73.08-.37.23-.5.25a3.71,3.71,0,0,0-1-.34l-.33-.05a16.08,16.08,0,0,1-2.21-.27c-.23-.18.59-.38.35-.53S327.22,216.84,327,216.67Z"/><ellipse class="cls-17" cx="315.89" cy="208.75" rx="7.82" ry="1.99"/><path class="cls-18" d="M308.72,208.75c0-1,3.21-1.82,7.17-1.82s7.18.82,7.18,1.82-3.21,1.83-7.18,1.83S308.72,209.76,308.72,208.75Z"/><path class="cls-19" d="M313.1,209.91c0-.21.93-.37,2.08-.37s2.08.16,2.08.37-.93.38-2.08.38S313.1,210.12,313.1,209.91Z"/><path class="cls-19" d="M321.11,207.86c.58.19.2.52-.85.73a7.46,7.46,0,0,1-3,0c-.58-.19-.2-.51.85-.72A7.49,7.49,0,0,1,321.11,207.86Z"/><path class="cls-19" d="M311.32,207.53a4.94,4.94,0,0,1,2.75.49c.51.36.1.72-.91.82a4.94,4.94,0,0,1-2.75-.49C309.91,208,310.31,207.62,311.32,207.53Z"/><path class="cls-19" d="M317.8,209a2.43,2.43,0,0,1,1,0c.23.08.15.19-.18.26a2.41,2.41,0,0,1-1,0C317.39,209.16,317.47,209,317.8,209Z"/><path class="cls-19" d="M315.77,207.87a2.43,2.43,0,0,1,1,0c.23.08.15.19-.18.26a2.46,2.46,0,0,1-1,0C315.36,208.05,315.44,207.93,315.77,207.87Z"/><path class="cls-19" d="M317.22,207.28a2.64,2.64,0,0,1,1,0c.23.07.14.19-.19.25a2.43,2.43,0,0,1-1,0C316.81,207.46,316.89,207.35,317.22,207.28Z"/><path class="cls-19" d="M314.31,207.2a2.42,2.42,0,0,1,1,0c.23.08.15.19-.18.26a2.59,2.59,0,0,1-1,0C313.9,207.38,314,207.26,314.31,207.2Z"/><path class="cls-19" d="M310.13,209a2.26,2.26,0,0,1,1,0c.23.07.15.18-.18.25a2.26,2.26,0,0,1-1,0C309.72,209.13,309.8,209,310.13,209Z"/><path class="cls-19" d="M312.35,209.19a2.43,2.43,0,0,1,1,0c.23.08.15.19-.18.26a2.64,2.64,0,0,1-1,0C311.93,209.37,312,209.25,312.35,209.19Z"/><path class="cls-19" d="M321,208.72a2.41,2.41,0,0,1,1,0c.23.07.15.19-.18.25a2.47,2.47,0,0,1-1,0C320.56,208.9,320.64,208.79,321,208.72Z"/><path class="cls-19" d="M319.51,209.5a2.41,2.41,0,0,1,1,0c.23.07.15.19-.18.25a2.42,2.42,0,0,1-1,0C319.1,209.68,319.18,209.57,319.51,209.5Z"/><path class="cls-19" d="M315,208.72a2.41,2.41,0,0,1,1,0c.23.07.15.19-.18.25a2.43,2.43,0,0,1-1,0C314.63,208.9,314.71,208.79,315,208.72Z"/><path class="cls-17" d="M351.28,206.58l-.13.17-.4.54c-.19.25-.37.48-.55.73l-.16.21,0,.06-.06.08-.14.18-.75,1-.36.49-.05.06-.13.17h0l-.6-.1-.27,0c-.3-.06-.59-.12-.85-.19l-.14-.05c-.23-.06-.45-.13-.65-.2a3.17,3.17,0,0,1-.41-.17l-.17-.08a2.2,2.2,0,0,1-.26-.15h0s-.1-.07-.15-.11l0,0h0l-.07-.06-.07-.08-.07-.08a.54.54,0,0,1-.11-.27.25.25,0,0,1,0-.09h0v-.07a.64.64,0,0,1,0-.07v0a.78.78,0,0,1,.13-.23l.09-.1L345,208a3.65,3.65,0,0,1,.87-.47c.19-.08.41-.15.64-.22a14.86,14.86,0,0,1,1.54-.35c.48-.08,1-.15,1.54-.21S350.67,206.6,351.28,206.58Z"/><path class="cls-18" d="M351.15,206.75l-.4.54c-.19.25-.37.48-.55.73l-.16.21,0,.06-.06.08-.14.18-.75,1-.36.49-.05.06h-.16l-.77-.15-.51-.12-.67-.21-.44-.18-.25-.13h0l-.23-.15a1.2,1.2,0,0,1-.2-.18l-.08-.1a1.09,1.09,0,0,1-.08-.15h0a.18.18,0,0,1,0-.05.49.49,0,0,1,0-.11v0a.54.54,0,0,1,.14-.32,1.87,1.87,0,0,1,.79-.54,4,4,0,0,1,.62-.24,10.8,10.8,0,0,1,1.62-.38c.47-.08,1-.15,1.54-.2h0Q350.52,206.78,351.15,206.75Z"/><path class="cls-19" d="M349.8,208.55l-.75,1-.38,0a3.84,3.84,0,0,1-.48,0h0l-.41,0a3.44,3.44,0,0,1-.58-.1c-.49-.17-.31-.41.36-.61a4.4,4.4,0,0,1,.49-.12l.3-.05.38,0A7.9,7.9,0,0,1,349.8,208.55Z"/><path class="cls-19" d="M350.2,208l-.16.21,0,.06-.06.08a1.4,1.4,0,0,1-.45-.06c-.23-.07-.14-.19.19-.25A2.24,2.24,0,0,1,350.2,208Z"/><path class="cls-19" d="M347.34,208.58a2.47,2.47,0,0,1-1,0c-.22-.08-.14-.19.19-.26a2.59,2.59,0,0,1,1,0C347.75,208.4,347.67,208.52,347.34,208.58Z"/><path class="cls-19" d="M348.8,207.8a2.47,2.47,0,0,1-1,0c-.22-.08-.14-.19.19-.26a2.59,2.59,0,0,1,1,0C349.21,207.62,349.13,207.74,348.8,207.8Z"/><ellipse class="cls-17" cx="340.25" cy="220.06" rx="7.82" ry="1.99"/><ellipse class="cls-18" cx="340.25" cy="220.06" rx="7.18" ry="1.82"/><path class="cls-19" d="M343.05,218.9c0,.21-.93.38-2.08.38s-2.08-.17-2.08-.38.93-.37,2.08-.37S343.05,218.7,343.05,218.9Z"/><path class="cls-19" d="M335,221c-.59-.19-.21-.52.85-.73a7.41,7.41,0,0,1,3,0c.59.19.21.51-.84.72A7.49,7.49,0,0,1,335,221Z"/><path class="cls-19" d="M344.82,221.29a4.92,4.92,0,0,1-2.74-.49c-.51-.36-.1-.73.91-.82a4.89,4.89,0,0,1,2.74.49C346.24,220.83,345.83,221.2,344.82,221.29Z"/><path class="cls-19" d="M338.35,219.84a2.46,2.46,0,0,1-1,0c-.22-.07-.14-.19.19-.25a2.43,2.43,0,0,1,1,0C338.76,219.66,338.68,219.77,338.35,219.84Z"/><path class="cls-19" d="M340.38,221a2.41,2.41,0,0,1-1,0c-.23-.07-.15-.18.18-.25a2.26,2.26,0,0,1,1,0C340.79,220.77,340.71,220.88,340.38,221Z"/><path class="cls-19" d="M338.92,221.53a2.43,2.43,0,0,1-1,0c-.23-.08-.15-.19.18-.26a2.46,2.46,0,0,1,1,0C339.34,221.35,339.25,221.47,338.92,221.53Z"/><path class="cls-19" d="M341.84,221.62a2.3,2.3,0,0,1-1,0c-.23-.07-.14-.18.19-.25a2.41,2.41,0,0,1,1,0C342.25,221.44,342.17,221.55,341.84,221.62Z"/><path class="cls-19" d="M346,219.87a2.4,2.4,0,0,1-1,0c-.23-.07-.15-.19.18-.25a2.43,2.43,0,0,1,1,0C346.43,219.69,346.35,219.8,346,219.87Z"/><path class="cls-19" d="M343.8,219.63a2.26,2.26,0,0,1-1,0c-.23-.07-.15-.18.18-.25a2.4,2.4,0,0,1,1,0C344.21,219.45,344.13,219.57,343.8,219.63Z"/><path class="cls-19" d="M335.18,220.1a2.59,2.59,0,0,1-1,0c-.23-.08-.15-.19.18-.25a2.43,2.43,0,0,1,1,0C335.59,219.92,335.51,220,335.18,220.1Z"/><path class="cls-19" d="M336.64,219.32a2.59,2.59,0,0,1-1,0c-.23-.08-.15-.19.18-.25a2.43,2.43,0,0,1,1,0C337.05,219.14,337,219.25,336.64,219.32Z"/><path class="cls-19" d="M341.11,220.1a2.58,2.58,0,0,1-1,0c-.23-.08-.15-.19.18-.25a2.43,2.43,0,0,1,1,0C341.52,219.92,341.44,220,341.11,220.1Z"/><ellipse class="cls-17" cx="308.48" cy="215.26" rx="7.82" ry="1.99"/><path class="cls-18" d="M315.66,215.26c0,1-3.21,1.82-7.18,1.82s-7.18-.81-7.18-1.82,3.22-1.82,7.18-1.82S315.66,214.25,315.66,215.26Z"/><path class="cls-19" d="M311.28,214.1c0,.21-.94.38-2.08.38s-2.08-.17-2.08-.38.93-.37,2.08-.37S311.28,213.89,311.28,214.1Z"/><path class="cls-19" d="M303.27,216.15c-.59-.19-.21-.51.85-.72a7.44,7.44,0,0,1,3,0c.59.19.21.52-.85.73A7.41,7.41,0,0,1,303.27,216.15Z"/><path class="cls-19" d="M313.05,216.49a4.89,4.89,0,0,1-2.74-.49c-.51-.36-.1-.73.91-.82a4.92,4.92,0,0,1,2.74.49C314.47,216,314.06,216.39,313.05,216.49Z"/><path class="cls-19" d="M306.58,215a2.63,2.63,0,0,1-1,0c-.23-.07-.15-.19.19-.25a2.43,2.43,0,0,1,1,0C307,214.86,306.91,215,306.58,215Z"/><path class="cls-19" d="M308.61,216.15a2.64,2.64,0,0,1-1,0c-.22-.07-.14-.19.19-.25a2.43,2.43,0,0,1,1,0C309,216,308.94,216.08,308.61,216.15Z"/><path class="cls-19" d="M307.15,216.73a2.26,2.26,0,0,1-1,0c-.23-.07-.15-.18.18-.25a2.25,2.25,0,0,1,1,0C307.56,216.55,307.48,216.66,307.15,216.73Z"/><path class="cls-19" d="M310.06,216.82a2.41,2.41,0,0,1-1,0c-.23-.07-.15-.19.18-.25a2.47,2.47,0,0,1,1,0C310.48,216.64,310.39,216.75,310.06,216.82Z"/><path class="cls-19" d="M314.25,215.06a2.47,2.47,0,0,1-1,0c-.23-.08-.14-.19.19-.26a2.59,2.59,0,0,1,1,0C314.66,214.88,314.58,215,314.25,215.06Z"/><path class="cls-19" d="M312,214.83a2.41,2.41,0,0,1-1,0c-.23-.07-.15-.19.18-.25a2.43,2.43,0,0,1,1,0C312.44,214.65,312.36,214.76,312,214.83Z"/><path class="cls-19" d="M303.41,215.29a2.47,2.47,0,0,1-1,0c-.22-.08-.14-.19.19-.26a2.41,2.41,0,0,1,1,0C303.82,215.11,303.74,215.23,303.41,215.29Z"/><path class="cls-19" d="M304.87,214.51a2.47,2.47,0,0,1-1,0c-.22-.08-.14-.19.19-.26a2.41,2.41,0,0,1,1,0C305.28,214.33,305.2,214.45,304.87,214.51Z"/><path class="cls-19" d="M309.34,215.29a2.47,2.47,0,0,1-1,0c-.23-.08-.14-.19.19-.26a2.41,2.41,0,0,1,1,0C309.75,215.11,309.67,215.23,309.34,215.29Z"/><ellipse class="cls-17" cx="375.42" cy="212.23" rx="7.82" ry="1.99"/><ellipse class="cls-18" cx="375.42" cy="212.23" rx="7.18" ry="1.82"/><path class="cls-19" d="M378.22,211.07c0,.21-.93.38-2.08.38s-2.08-.17-2.08-.38.93-.37,2.08-.37S378.22,210.86,378.22,211.07Z"/><path class="cls-19" d="M370.21,213.12c-.58-.19-.2-.51.85-.72a7.49,7.49,0,0,1,3,0c.58.19.2.52-.85.73A7.46,7.46,0,0,1,370.21,213.12Z"/><path class="cls-19" d="M380,213.45a4.86,4.86,0,0,1-2.75-.48c-.51-.36-.1-.73.91-.82a4.86,4.86,0,0,1,2.75.49C381.41,213,381,213.36,380,213.45Z"/><path class="cls-19" d="M373.52,212a2.43,2.43,0,0,1-1,0c-.23-.08-.15-.19.18-.25a2.43,2.43,0,0,1,1,0C373.93,211.83,373.85,211.94,373.52,212Z"/><path class="cls-19" d="M375.55,213.12a2.59,2.59,0,0,1-1,0c-.23-.07-.15-.19.18-.25a2.42,2.42,0,0,1,1,0C376,212.94,375.88,213.05,375.55,213.12Z"/><path class="cls-19" d="M374.1,213.7a2.46,2.46,0,0,1-1,0c-.23-.07-.14-.18.19-.25a2.26,2.26,0,0,1,1,0C374.51,213.52,374.43,213.63,374.1,213.7Z"/><path class="cls-19" d="M377,213.79a2.46,2.46,0,0,1-1,0c-.22-.07-.14-.19.19-.25a2.43,2.43,0,0,1,1,0C377.42,213.61,377.34,213.72,377,213.79Z"/><path class="cls-19" d="M381.19,212a2.43,2.43,0,0,1-1,0c-.23-.08-.15-.19.18-.26a2.59,2.59,0,0,1,1,0C381.6,211.85,381.52,212,381.19,212Z"/><path class="cls-19" d="M379,211.8a2.41,2.41,0,0,1-1,0c-.23-.07-.15-.19.18-.25a2.47,2.47,0,0,1,1,0C379.39,211.62,379.3,211.73,379,211.8Z"/><path class="cls-19" d="M370.35,212.26a2.43,2.43,0,0,1-1,0c-.23-.08-.15-.19.18-.26a2.4,2.4,0,0,1,1,0C370.76,212.08,370.68,212.2,370.35,212.26Z"/><path class="cls-19" d="M371.81,211.48a2.43,2.43,0,0,1-1,0c-.23-.08-.15-.19.18-.26a2.4,2.4,0,0,1,1,0C372.22,211.3,372.14,211.42,371.81,211.48Z"/><path class="cls-19" d="M376.28,212.26a2.43,2.43,0,0,1-1,0c-.23-.08-.15-.19.18-.26a2.41,2.41,0,0,1,1,0C376.69,212.08,376.61,212.2,376.28,212.26Z"/><path class="cls-15" d="M373.82,211.86l-.35-.16-.11,0a1.85,1.85,0,0,0,.81-.47.38.38,0,0,0,.11-.25,0,0,0,0,0,0,0c0-.17-.16-.32-.4-.46l-.3-.15a12.5,12.5,0,0,0-3.52-.68l-2,.28a12.51,12.51,0,0,1,3.83.55h0l.28.15c.18.11.27.22.27.34s-.12.27-.34.38h0a2.42,2.42,0,0,1-.39.16h0c-.17.05-.37.11-.6.16a3.75,3.75,0,0,1,1,.33.71.71,0,0,1,.3.25.37.37,0,0,1,0,.14c0,.33-.73.62-1.87.82h0q-.42.08-.9.12h0l-.18,0-.44,0-.81,0h-.74a19.28,19.28,0,0,1-3-.21,8.17,8.17,0,0,1-1.25-.28l-.21.06h0l-.11,0h0l-.23.07h0l-.65.12h0l-.17,0-.46.05-.24,0h0c-.31,0-.63.06-1,.07h-2.31a12.38,12.38,0,0,1-3.06-.48h0l-.07,0a1.21,1.21,0,0,1-.6-.37l0-.05a.12.12,0,0,1,0-.06c0-.17.13-.3.35-.42a3.25,3.25,0,0,1,.57-.22l-2.64.38a.31.31,0,0,0-.09.23c0,.17.15.33.41.48h0l.2.11a6.31,6.31,0,0,0,.64.24h0l.33.09a19.92,19.92,0,0,0,3.68.48q.57,0,1.17,0h1.4l.47,0,.67-.05c.24,0,.49,0,.72-.06h0a1.71,1.71,0,0,0,.25,0h0l.77-.1h.11l.17,0h0l.21,0,.24,0,1.05.11.23,0h0l.25,0h0l1.06,0h1.1c.54,0,1.06,0,1.56,0l1.09-.07h.1l.57-.06a10.24,10.24,0,0,0,2.86-.66,1,1,0,0,0,.59-.49l0-.07C374.28,212.19,374.12,212,373.82,211.86Z"/><path class="cls-15" d="M326.27,210.13c.59-.21.92-.45.92-.71,0-.58-1.59-1.07-3.89-1.3l-.78-.07h0c-.38,0-.77-.05-1.18-.06h-.94a29.4,29.4,0,0,0-3.1.16c-.39,0-.77.09-1.11.15-.62-.1-1.32-.18-2.07-.24h0c-.68-.05-1.39-.07-2.15-.07-.61,0-1.2,0-1.76.05l-1,.07-.79.09a7.46,7.46,0,0,0-2.95.83.52.52,0,0,0-.26.4c0,.2.19.39.55.56l.36.15c-.17.07-.31.12-.44.19-.31.16-.47.34-.47.53a.4.4,0,0,0,0,.15c.35.72,3.24,1.29,6.75,1.29a26.83,26.83,0,0,0,4.23-.32,26.59,26.59,0,0,0,4,.32h.23c.73,0,1.42,0,2.07-.07h0a20.22,20.22,0,0,0,3-.42l.36-.09a3.7,3.7,0,0,0,1-.46h.05a.51.51,0,0,0,.27-.4C327.19,210.58,326.86,210.34,326.27,210.13Zm-1.48,1.21h0a11.14,11.14,0,0,1-3.1.51h0c-.4,0-.83,0-1.27,0a19.4,19.4,0,0,1-3-.2,8.06,8.06,0,0,1-1.25-.29,8.21,8.21,0,0,1-1.26.29,19.82,19.82,0,0,1-3,.2c-2.74,0-5-.47-5-1.05,0-.13.13-.27.35-.39a4.46,4.46,0,0,1,1-.33,3.63,3.63,0,0,1-1-.33c-.22-.12-.35-.25-.35-.38s.41-.48,1.08-.66l.67-.15h0a15.93,15.93,0,0,1,1.76-.2h0c.46,0,.95,0,1.45,0a22.21,22.21,0,0,1,2.26.12l.71.09.59.11h0a4.7,4.7,0,0,1,.65.17h0a6.88,6.88,0,0,1,1.05-.24h0l.2,0a19.28,19.28,0,0,1,3-.21H321a19,19,0,0,1,2,.15,6,6,0,0,1,.68.11c1,.19,1.68.47,1.68.79,0,.13-.12.26-.34.38a3.75,3.75,0,0,1-1,.33,4.65,4.65,0,0,1,1,.33c.22.12.34.26.34.39s-.2.35-.57.49Z"/><path class="cls-15" d="M334.88,216.27s0,.06,0,.09a4.27,4.27,0,0,1,.7-.2l-.08,0-.14,0-.13,0h0l-.34-.12a.77.77,0,0,1,0,.15v.05S334.88,216.23,334.88,216.27Zm-.47-1.39a.47.47,0,0,1,.06.09l.07.09h0a1.58,1.58,0,0,1,.26-.13h0l.11,0A5.32,5.32,0,0,1,334.41,214.88Zm.47,1.39s0,.06,0,.09a4.27,4.27,0,0,1,.7-.2l-.08,0-.14,0-.13,0h0l-.34-.12a.77.77,0,0,1,0,.15v.05S334.88,216.23,334.88,216.27Zm-.47-1.39a.47.47,0,0,1,.06.09l.07.09h0a1.58,1.58,0,0,1,.26-.13h0l.11,0A5.32,5.32,0,0,1,334.41,214.88Zm.47,1.39s0,.06,0,.09a4.27,4.27,0,0,1,.7-.2l-.08,0-.14,0-.13,0h0l-.34-.12a.77.77,0,0,1,0,.15v.05S334.88,216.23,334.88,216.27Zm-.47-1.39a.47.47,0,0,1,.06.09l.07.09h0a1.58,1.58,0,0,1,.26-.13h0l.11,0A5.32,5.32,0,0,1,334.41,214.88Zm.47,1.39s0,.06,0,.09a4.27,4.27,0,0,1,.7-.2l-.08,0-.14,0-.13,0h0l-.34-.12a.77.77,0,0,1,0,.15v.05S334.88,216.23,334.88,216.27Zm-.47-1.39a.47.47,0,0,1,.06.09l.07.09h0a1.58,1.58,0,0,1,.26-.13h0l.11,0A5.32,5.32,0,0,1,334.41,214.88Zm.47,1.39s0,.06,0,.09a4.27,4.27,0,0,1,.7-.2l-.08,0-.14,0-.13,0h0l-.34-.12a.77.77,0,0,1,0,.15v.05S334.88,216.23,334.88,216.27Zm-.47-1.39a.47.47,0,0,1,.06.09l.07.09h0a1.58,1.58,0,0,1,.26-.13h0l.11,0A5.32,5.32,0,0,1,334.41,214.88Zm20,1.82a1,1,0,0,0-.42-.35.76.76,0,0,0-.18-.09,1.28,1.28,0,0,0-.26-.1h0l.2-.08.19-.09a1.34,1.34,0,0,0,.34-.23.3.3,0,0,0,.08-.08.34.34,0,0,0,.07-.15.24.24,0,0,0,0-.08c0-.14-.1-.27-.28-.41l-.17-.1a4.18,4.18,0,0,0-.42-.2l-.66-.2c-.36-.09-.77-.18-1.23-.25l-.3,0c-.34-.05-.72-.09-1.11-.13-.81-.07-1.69-.11-2.62-.11a26.58,26.58,0,0,0-4.21.31,27,27,0,0,0-4.23-.31h-.67c-.41,0-.8,0-1.19.05-.67,0-1.3.1-1.87.18l-.55.08h0l-.52.1-.33.08-.27.07a3.4,3.4,0,0,0-.38.12l-.21.07a2.14,2.14,0,0,0-.43.22h0c-.23.13-.36.29-.36.45a.24.24,0,0,0,0,.08h0a.33.33,0,0,0,.09.16,1.15,1.15,0,0,0,.37.28h0l.43.19h0l-.13.05h0c-.48.2-.75.41-.75.65s.19.39.53.56h0l.06,0,.19.08h0a5.37,5.37,0,0,0,.68.23l.42.1h0a19.21,19.21,0,0,0,2.83.37h0q.58,0,1.23.06h.81c.62,0,1.22,0,1.78-.06h.08l1.23-.1h0q.61-.06,1.14-.15a26.58,26.58,0,0,0,4.21.31,28.67,28.67,0,0,0,4-.27l.94-.18a5.76,5.76,0,0,0,1.33-.43l.16-.09a.67.67,0,0,0,.16-.12.47.47,0,0,0,.19-.24v0s0-.06,0-.09a.23.23,0,0,0,0-.07A.24.24,0,0,0,354.37,216.7Zm-2.5.72h0a5.5,5.5,0,0,1-.86.23,18.46,18.46,0,0,1-3.36.27,19.3,19.3,0,0,1-3-.2,7,7,0,0,1-1.25-.29,7.32,7.32,0,0,1-1.27.29,19.59,19.59,0,0,1-3,.2,17.77,17.77,0,0,1-3.49-.3h0a4.69,4.69,0,0,1-1-.31.82.82,0,0,1-.21-.11c-.17-.1-.25-.21-.25-.33s.13-.26.35-.38a1.57,1.57,0,0,1,.29-.13,4.27,4.27,0,0,1,.7-.2l-.08,0-.14,0-.13,0h0l-.34-.12s-.05,0-.07,0l-.08,0h0l-.14-.07,0,0c-.2-.11-.31-.23-.31-.36v0h0a.3.3,0,0,1,0-.1.68.68,0,0,1,.28-.23h0a1.58,1.58,0,0,1,.26-.13h0l.11,0h0a5.18,5.18,0,0,1,.61-.17l.24-.05a14.52,14.52,0,0,1,1.86-.23c.37,0,.77,0,1.19,0h.29a21,21,0,0,1,3,.2,8.37,8.37,0,0,1,1.27.29,8.06,8.06,0,0,1,1.25-.29,20.66,20.66,0,0,1,3-.2,22.42,22.42,0,0,1,2.27.11h0c.39,0,.74.1,1.06.15l.74.18c.57.17.9.38.9.61s-.08.22-.24.32l-.11.06a4,4,0,0,1-1,.34,3.67,3.67,0,0,1,1,.33c.22.12.35.25.35.38S352.34,217.27,351.87,217.42Zm-17.46-2.54a.47.47,0,0,1,.06.09l.07.09h0a1.58,1.58,0,0,1,.26-.13h0l.11,0A5.32,5.32,0,0,1,334.41,214.88Zm.47,1.39s0,.06,0,.09a4.27,4.27,0,0,1,.7-.2l-.08,0-.14,0-.13,0h0l-.34-.12a.77.77,0,0,1,0,.15v.05S334.88,216.23,334.88,216.27Zm-.47-1.39a.47.47,0,0,1,.06.09l.07.09h0a1.58,1.58,0,0,1,.26-.13h0l.11,0A5.32,5.32,0,0,1,334.41,214.88Zm.47,1.39s0,.06,0,.09a4.27,4.27,0,0,1,.7-.2l-.08,0-.14,0-.13,0h0l-.34-.12a.77.77,0,0,1,0,.15v.05S334.88,216.23,334.88,216.27Zm-.47-1.39a.47.47,0,0,1,.06.09l.07.09h0a1.58,1.58,0,0,1,.26-.13h0l.11,0A5.32,5.32,0,0,1,334.41,214.88Zm.47,1.39s0,.06,0,.09a4.27,4.27,0,0,1,.7-.2l-.08,0-.14,0-.13,0h0l-.34-.12a.77.77,0,0,1,0,.15v.05S334.88,216.23,334.88,216.27Zm-.47-1.39a.47.47,0,0,1,.06.09l.07.09h0a1.58,1.58,0,0,1,.26-.13h0l.11,0A5.32,5.32,0,0,1,334.41,214.88Zm.47,1.39s0,.06,0,.09a4.27,4.27,0,0,1,.7-.2l-.08,0-.14,0-.13,0h0l-.34-.12a.77.77,0,0,1,0,.15v.05S334.88,216.23,334.88,216.27Z"/><path class="cls-15" d="M311.69,215.79a1.52,1.52,0,0,0,.88-.57.28.28,0,0,0,0-.15.52.52,0,0,0-.27-.4.62.62,0,0,0-.16-.1h0a4,4,0,0,0-1-.37,15.42,15.42,0,0,0-2.69-.45h0c-.82-.07-1.72-.11-2.67-.11h-.66c-.56,0-1.1,0-1.61.08h0c-.7.05-1.34.12-1.9.21a27,27,0,0,0-4.22-.3c-3.76,0-6.79.64-6.79,1.43,0,.26.33.51.91.72-.58.21-.91.45-.91.71,0,.8,3,1.44,6.79,1.44a26.9,26.9,0,0,0,4.22-.31,26.67,26.67,0,0,0,4.21.31c2.92,0,5.41-.39,6.36-.93h0a.82.82,0,0,0,.3-.23h0a.37.37,0,0,0,.12-.26h0C312.61,216.24,312.28,216,311.69,215.79ZM310.14,217h0a4.27,4.27,0,0,1-.7.2h-.05a17.14,17.14,0,0,1-3.55.33,19.38,19.38,0,0,1-3-.21,8.17,8.17,0,0,1-1.25-.28,8.33,8.33,0,0,1-1.26.28,19.67,19.67,0,0,1-3,.21c-2.74,0-5-.47-5-1.06,0-.13.13-.26.35-.38a4.15,4.15,0,0,1,1-.33,4.15,4.15,0,0,1-1-.33c-.22-.12-.35-.25-.35-.39,0-.58,2.24-1,5-1a21.2,21.2,0,0,1,3,.2q.58.1,1,.21h0l.24.08a7.14,7.14,0,0,1,.71-.19h0l.54-.1a20.88,20.88,0,0,1,3-.2c.46,0,.9,0,1.31,0h0a14,14,0,0,1,2.71.4h0c.58.18.92.39.92.62a.3.3,0,0,1-.07.19,1,1,0,0,1-.27.2,2.18,2.18,0,0,1-.34.14,5.41,5.41,0,0,1-.66.19,4.15,4.15,0,0,1,1,.33c.22.12.34.25.34.38s-.24.38-.64.53Z"/><path class="cls-15" d="M350,206.84h0l-.4-.14a22,22,0,0,0-5.47-.58c-.54,0-1.07,0-1.58,0-.85,0-1.64.12-2.33.22h-.05l-.25.05-.25,0h0c-.61-.1-1.25-.16-2-.21s-1.28-.06-1.95-.06c-3.76,0-6.79.64-6.79,1.43,0,.27.33.51.91.72-.58.21-.91.45-.91.71s.4.56,1.09.79h0c.33.1.72.2,1.17.29h0c.57.1,1.22.19,1.95.25l.46,0,.27,0h0l.81,0h1c.61,0,1.21,0,1.77,0h.08l.31,0h0c.24,0,.47,0,.71-.06s.57-.06.84-.1l.43-.06h.13l.18,0h0l.71.1h0c.39.05.81.08,1.25.11h.24l.3,0h0l.55,0h1.86l.84,0,1-.08.66-.07.32-.05.59-.09.1,0,.11,0,.36-.49.75-1,.14-.18.06-.08-.06,0,.1,0,.16-.21c.18-.25.36-.48.55-.73A2,2,0,0,0,350,206.84ZM349,209c0,.15-.14.29-.38.41a2.31,2.31,0,0,1-.47.18h0a4.21,4.21,0,0,1-.42.12l-.57.12-.46.06h-.11c-.27,0-.55.07-.85.09h0l-.28,0c-.32,0-.64,0-1,0H344c-.74,0-1.43,0-2.05-.1h0l-.25,0h-.17l-.29,0h0l-.11,0a8.17,8.17,0,0,1-1.25-.28,3,3,0,0,1-.45.12c-.18.05-.38.09-.59.13h-.09l-.13,0a15.41,15.41,0,0,1-1.67.17l-.35,0h-2.16l-.3,0-.89-.08-.29,0-.3,0a5.21,5.21,0,0,1-1.73-.51.44.44,0,0,1-.25-.34c0-.13.13-.26.35-.38a4.21,4.21,0,0,1,.9-.31h0l.08,0h0a4.56,4.56,0,0,1-.83-.26l-.13-.06c-.22-.12-.35-.25-.35-.39,0-.58,2.23-1.05,5-1.05h.5c.54,0,1.06.05,1.54.09h0l.92.11c.38.07.74.14,1,.22h0l.22.07.24-.07h0a9.62,9.62,0,0,1,1-.22c.41-.06.89-.11,1.4-.15h0c.48,0,1-.05,1.54-.05h.18a15.67,15.67,0,0,1,3.75.41,3.14,3.14,0,0,1,.4.13c.41.15.64.32.64.51v0a.3.3,0,0,1-.1.19,1.24,1.24,0,0,1-.24.17,3.56,3.56,0,0,1-.77.27l-.23.06.4.1a3.29,3.29,0,0,1,.6.23l0,0C348.93,208.73,349,208.86,349,209Z"/><path class="cls-11" d="M358.62,206.41c-1-.09-2,.52-1.91.79.09.46,3.27.41,3.36-.07C360.11,206.89,359.33,206.47,358.62,206.41Z"/><path class="cls-11" d="M372.93,204.82c1,.09,2-.53,1.91-.79-.1-.46-3.27-.41-3.36.06C371.43,204.34,372.22,204.76,372.93,204.82Z"/><path class="cls-11" d="M362.88,208.33c.05.57,2.27,1.06,4.11.45.22-.08,1.41-.47,1.38-.9s-1.74-.95-3.25-.7C364.15,207.35,362.83,207.88,362.88,208.33Z"/><path class="cls-11" d="M360.93,203c-.12.27.45.8.79,1,2.65,2,7.94.05,7.89-.79,0-.4-1.28-.7-2.17-.72-1.27,0-1.55.53-2.89.72C362.56,203.54,361.09,202.61,360.93,203Z"/><path class="cls-5" d="M143.26,254.87c-.08.31-.15.63-.22.95-.17.71-.33,1.42-.5,2.13,0,.19-.09.38-.13.57-.23,1-.47,2-.7,3h-31l0-3.56,0-4.63,0-2.06a15.91,15.91,0,0,1,.37-3.61,16.15,16.15,0,0,1,1.64-4.4,16.51,16.51,0,0,1,1.89-2.72A16.3,16.3,0,0,1,129.31,235l.37,0a16.33,16.33,0,0,1,13.58,19.86Z"/><path class="cls-5" d="M171.35,256.44l-29.21-.64-31.36-.7A75.14,75.14,0,0,1,121.62,210l38.53-1.24a92.18,92.18,0,0,1,4.28,9.18A88.32,88.32,0,0,1,168,229a113.28,113.28,0,0,1,2.4,12.42c.12.91.24,1.89.35,2.94,0,0,0,.1,0,.15.18,1.73.34,3.63.45,5.7v0C171.29,252.16,171.35,254.24,171.35,256.44Z"/><path class="cls-20" d="M162.21,213a60.07,60.07,0,0,1-43.4.74c-.28-2.62-.56-5.24-.82-7.88-2.53-25.22-3.9-49.81-4.27-73.7l14.83-4.45,6.94,0a14.72,14.72,0,0,1,8.38-.36c.3.08.59.17.88.27l6.17,0,17.5,4.16Z"/><path class="cls-21" d="M151.8,127.77a6.56,6.56,0,0,1-.1,3,7.78,7.78,0,0,1-4.6,4.81,6.14,6.14,0,0,0-.33-4.61,6.49,6.49,0,0,0-4.88-3.24,8.82,8.82,0,0,0,4.55-3.59v0a8.81,8.81,0,0,1,2.44,1A9,9,0,0,1,151.8,127.77Z"/><path class="cls-21" d="M142.22,127.59a7.09,7.09,0,0,1,1.93,4.57,7.23,7.23,0,0,1-2.26,5.33,13.4,13.4,0,0,1-7.39-1.59,13.74,13.74,0,0,1-6.35-8,6.67,6.67,0,0,1,2.41-2.8,6.75,6.75,0,0,1,2.43-1h0a7.14,7.14,0,0,0,3,3.2A7.51,7.51,0,0,0,142.22,127.59Z"/><path class="cls-20" d="M116.3,132.12c4.48.7,7.94,5.9,6.28,11.16-4,18.48-6.45,30.57-10.51,49.06a6.58,6.58,0,0,1-10.44,3.8l-.11-.09A6.6,6.6,0,0,1,99,189.73c3.19-18.73,4.72-31.07,7.91-49.8C107.5,134.83,112.12,131.47,116.3,132.12Z"/><path class="cls-22" d="M144.23,110.47a39,39,0,0,1,2.21,13.66,7.48,7.48,0,0,1-13.45,0h0a66.88,66.88,0,0,0-5.49-24c.9,1.63,5.54,9.71,13.46,10.49A13.11,13.11,0,0,0,144.23,110.47Z"/><path class="cls-23" d="M171.51,261.51h-28.8l-.3-3-.06-.57-.21-2.15q-.4-4.08-.82-8.15l-.57-5.81L139,224.11l16.4,2.76,1.88.31L168,229a113.28,113.28,0,0,1,2.4,12.42c.12.91.24,1.89.35,2.94,0,0,0,.1,0,.15.13,1.32.23,2.6.33,3.86l.12,1.84v0c.18,2.73.27,5.31.31,7.72C171.51,259.19,171.51,260.37,171.51,261.51Z"/><path class="cls-5" d="M155.38,226.87l1.88.31L168,229a113.28,113.28,0,0,1,2.4,12.42c.12.91.24,1.89.35,2.94,0,0,0,.1,0,.15.13,1.32.23,2.6.33,3.86l.12,1.84v0c.18,2.73.27,5.31.31,7.72,0,1.24,0,2.42,0,3.56h-28.8l-.3-3-.06-.57-.21-2.15q-.4-4.08-.82-8.15l-.57-5.81L139,224.11"/><path class="cls-23" d="M215.38,144.82a8.38,8.38,0,0,1-8.39,1.75q-4.85,12.3-9.68,24.58l-10.64,27a8.51,8.51,0,0,1-2.63,3.55h0a8.65,8.65,0,0,1-4.42,1.82h0a6.49,6.49,0,0,1-4-1.25l-.15-.1a6.86,6.86,0,0,1-1.27-.92c-.37-.27-.74-.54-1.12-.8a1.31,1.31,0,0,0-.09-.17,5.24,5.24,0,0,1-.49-3.28,1.8,1.8,0,0,1,0-.22c.05-.36.13-.74.23-1.16q2.53-4.29,5.06-8.57,5.25-8.88,10.49-17.75l14.79-25,11.58-11.58C218.25,136.46,218.22,141.93,215.38,144.82Z"/><path class="cls-20" d="M182.42,201.39l-.11.09a6.51,6.51,0,0,1-3.77,1.44h0a6.66,6.66,0,0,1-4.53-1.5h0a6.56,6.56,0,0,1-2.2-3.54,1.16,1.16,0,0,0,0-.18c-.12-.51-.25-1-.37-1.52s-.21-.89-.32-1.34q-6.26-26.07-12.53-52.15c-1.76-5.22,1.6-10.5,6.06-11.28,4.17-.74,8.85,2.53,9.51,7.62q4.65,24.38,9.29,48.75l1.38,7.24A6.6,6.6,0,0,1,182.42,201.39Z"/><path class="cls-20" d="M197.31,171.16c-.07.2-.17.46-.28.78-4.61,12.83-5.88,19-10.27,26.36-2.29,3.84-3.85,5-5.56,5.35A8.15,8.15,0,0,1,174,201.2a6.49,6.49,0,0,1-1.17-1.95,5.32,5.32,0,0,1-.29-2.21,1.8,1.8,0,0,1,0-.22,6.61,6.61,0,0,1,.23-1.16l5.06-8.57,10.49-17.75a19.37,19.37,0,0,1,9,1.82Z"/><circle class="cls-21" cx="134.06" cy="83.48" r="28.16" transform="translate(-17.42 38.82) rotate(-15.48)"/><path class="cls-23" d="M146.6,119.43h0a15.93,15.93,0,0,0,12.61-18.69L156.9,88.81A15.94,15.94,0,0,0,138.2,76.2h0a15.94,15.94,0,0,0-12.61,18.69l2.32,11.93A15.94,15.94,0,0,0,146.6,119.43Z"/><circle class="cls-21" cx="135.52" cy="78.58" r="6.88" transform="translate(11.68 174.52) rotate(-67.87)"/><circle class="cls-21" cx="126.06" cy="81.79" r="6.88"/><circle class="cls-21" cx="156.3" cy="84.52" r="4.38"/><circle class="cls-21" cx="152.79" cy="78.58" r="4.38" transform="translate(-14.04 37.49) rotate(-13.38)"/><circle class="cls-21" cx="145.33" cy="76.41" r="4.38"/><circle class="cls-21" cx="124.79" cy="91.17" r="4.38"/><polygon class="cls-24" points="190.34 186.58 239.97 186.93 239.97 133.04 190.34 127.66 190.34 186.58"/><polygon class="cls-24" points="190.34 253.73 239.97 248.35 239.97 185.32 190.34 184.81 190.34 253.73"/><path class="cls-25" d="M219.54,144.61h0a1,1,0,0,0-.91-1l-20.49-1.74a.89.89,0,0,0-1,.91h0a1.1,1.1,0,0,0,1,1.07l20.49,1.67A.85.85,0,0,0,219.54,144.61Z"/><path class="cls-25" d="M219.54,148.4h0a1,1,0,0,0-.91-1l-20.49-1.6a.89.89,0,0,0-1,.91h0a1.07,1.07,0,0,0,1,1.06l20.49,1.54A.86.86,0,0,0,219.54,148.4Z"/><path class="cls-25" d="M219.54,158.54h0a1,1,0,0,0-.91-1l-20.49-1.22a.91.91,0,0,0-1,.93h0a1,1,0,0,0,1,1l20.49,1.16A.87.87,0,0,0,219.54,158.54Z"/><path class="cls-25" d="M219.54,162.33h0a1,1,0,0,0-.91-1l-20.49-1.09a.94.94,0,0,0-1,.94h0a1,1,0,0,0,1,1l20.49,1A.88.88,0,0,0,219.54,162.33Z"/><path class="cls-25" d="M219.54,173.41h0a1,1,0,0,0-.91-1l-20.49-.68a1,1,0,0,0-1,1h0a1,1,0,0,0,1,1l20.49.61A.91.91,0,0,0,219.54,173.41Z"/><path class="cls-25" d="M219.54,177.2h0a1,1,0,0,0-.91-1l-20.49-.54a1,1,0,0,0-1,1h0a1,1,0,0,0,1,1l20.49.47A.91.91,0,0,0,219.54,177.2Z"/><path class="cls-26" d="M228.49,149.66h0a1.05,1.05,0,0,1-1.56.12l-3.86-3.85a1.24,1.24,0,0,1,0-1.65h0a1,1,0,0,1,1.54-.14l3.88,3.85A1.22,1.22,0,0,1,228.49,149.66Z"/><path class="cls-26" d="M227.06,149.9h0a1.23,1.23,0,0,1,0-1.66l5.19-6a1.08,1.08,0,0,1,1.59-.14h0a1.23,1.23,0,0,1,0,1.69l-5.22,6A1.06,1.06,0,0,1,227.06,149.9Z"/><path class="cls-26" d="M228.49,163.6h0a1.06,1.06,0,0,1-1.56.07l-3.86-3.94a1.25,1.25,0,0,1,0-1.66h0a1,1,0,0,1,1.54-.09l3.88,3.94A1.23,1.23,0,0,1,228.49,163.6Z"/><path class="cls-26" d="M227.06,163.8h0a1.24,1.24,0,0,1,0-1.67l5.19-5.84a1.08,1.08,0,0,1,1.59-.1h0a1.23,1.23,0,0,1,0,1.69l-5.22,5.84A1,1,0,0,1,227.06,163.8Z"/><path class="cls-26" d="M228.49,178.58h0a1,1,0,0,1-1.56.08l-3.86-3.94a1.25,1.25,0,0,1,0-1.66h0a1,1,0,0,1,1.54-.09l3.88,3.94A1.22,1.22,0,0,1,228.49,178.58Z"/><path class="cls-26" d="M227.06,178.79h0a1.24,1.24,0,0,1,0-1.67l5.19-5.84a1.08,1.08,0,0,1,1.59-.1h0a1.23,1.23,0,0,1,0,1.69l-5.22,5.84A1.06,1.06,0,0,1,227.06,178.79Z"/><path class="cls-25" d="M219.54,187.86h0a.94.94,0,0,0-.91-1l-20.49-.14a1,1,0,0,0-1,1h0a1,1,0,0,0,1,1l20.49.07A.92.92,0,0,0,219.54,187.86Z"/><path class="cls-25" d="M219.54,191.65h0a.94.94,0,0,0-.91-1H198.14a1,1,0,0,0-1,1h0a1,1,0,0,0,1,1l20.49-.07A.94.94,0,0,0,219.54,191.65Z"/><path class="cls-25" d="M219.54,201.78h0a.91.91,0,0,0-.91-.93l-20.49.38a1,1,0,0,0-1,1h0a1,1,0,0,0,1,1l20.49-.44A1,1,0,0,0,219.54,201.78Z"/><path class="cls-25" d="M219.54,205.58h0a.9.9,0,0,0-.91-.93l-20.49.51a1,1,0,0,0-1,1h0a1,1,0,0,0,1,1l20.49-.59A1,1,0,0,0,219.54,205.58Z"/><path class="cls-25" d="M219.54,218.37h0a.89.89,0,0,0-.91-.91l-20.49,1a1.06,1.06,0,0,0-1,1h0a.92.92,0,0,0,1,.94l20.49-1.06A1,1,0,0,0,219.54,218.37Z"/><path class="cls-25" d="M219.54,222.16h0a.87.87,0,0,0-.91-.9l-20.49,1.13a1.06,1.06,0,0,0-1,1.05h0a.92.92,0,0,0,1,.93l20.49-1.2A1,1,0,0,0,219.54,222.16Z"/><path class="cls-25" d="M219.54,232.3h0a.85.85,0,0,0-.91-.88l-20.49,1.5a1.08,1.08,0,0,0-1,1.07h0a.9.9,0,0,0,1,.91l20.49-1.58A1,1,0,0,0,219.54,232.3Z"/><path class="cls-25" d="M219.54,236.09h0a.85.85,0,0,0-.91-.88l-20.49,1.65a1.08,1.08,0,0,0-1,1.07h0a.9.9,0,0,0,1,.91l20.49-1.72A1,1,0,0,0,219.54,236.09Z"/><path class="cls-26" d="M228.49,238.54h0a1.06,1.06,0,0,1-1.56.08l-3.86-4a1.24,1.24,0,0,1,0-1.65h0a1,1,0,0,1,1.54-.1l3.88,4A1.22,1.22,0,0,1,228.49,238.54Z"/><path class="cls-26" d="M227.06,238.75h0a1.24,1.24,0,0,1,0-1.67l5.19-5.85a1.09,1.09,0,0,1,1.59-.1h0a1.23,1.23,0,0,1,0,1.69l-5.22,5.85A1.07,1.07,0,0,1,227.06,238.75Z"/><path class="cls-26" d="M228.49,208.56h0a1,1,0,0,1-1.56.08l-3.86-3.95a1.24,1.24,0,0,1,0-1.65h0a1,1,0,0,1,1.54-.1l3.88,3.95A1.22,1.22,0,0,1,228.49,208.56Z"/><path class="cls-26" d="M227.06,208.77h0a1.24,1.24,0,0,1,0-1.67l5.19-5.85a1.09,1.09,0,0,1,1.59-.1h0a1.23,1.23,0,0,1,0,1.69l-5.22,5.85A1.06,1.06,0,0,1,227.06,208.77Z"/><path class="cls-26" d="M228.49,223.55h0a1.06,1.06,0,0,1-1.56.08l-3.86-3.95a1.24,1.24,0,0,1,0-1.65h0a1,1,0,0,1,1.54-.1l3.88,3.95A1.22,1.22,0,0,1,228.49,223.55Z"/><path class="cls-26" d="M227.06,223.76h0a1.24,1.24,0,0,1,0-1.67l5.19-5.85a1.09,1.09,0,0,1,1.59-.1h0a1.23,1.23,0,0,1,0,1.69l-5.22,5.85A1.06,1.06,0,0,1,227.06,223.76Z"/><path class="cls-26" d="M228.49,193.57h0a1,1,0,0,1-1.56.08l-3.86-3.94a1.25,1.25,0,0,1,0-1.66h0a1,1,0,0,1,1.54-.09l3.88,3.94A1.22,1.22,0,0,1,228.49,193.57Z"/><path class="cls-26" d="M227.06,193.78h0a1.24,1.24,0,0,1,0-1.67l5.19-5.84a1.08,1.08,0,0,1,1.59-.1h0a1.21,1.21,0,0,1,0,1.68l-5.22,5.85A1.06,1.06,0,0,1,227.06,193.78Z"/><path class="cls-23" d="M208.45,130.41c-.38,3.78,5.57,6.38,11,6,3.92-.29,6.54-2.13,6.75-4.18s-2-4.39-5.76-5.46C215.2,125.27,208.84,126.63,208.45,130.41Z"/><path class="cls-23" d="M103.68,186.83c19.25-.47,39.14-.41,59.66.29q8.16.28,16.18.68c-.46,5.54-4.86,9.37-9.11,9.12a8.76,8.76,0,0,1-7.08-5.3l-54.81,8.48a8.54,8.54,0,0,1-9.86-8.47v-.1s.79-1.6,1.11-2.14C100.28,188.54,101.32,187.52,103.68,186.83Z"/><path class="cls-27" d="M108.52,200.1l28.7-4.44a32,32,0,0,0-1.09-4.87,32.85,32.85,0,0,0-1.91-4.76l-30.54.8c-2.36.68-3.39,1.71-3.9,2.56-.16.27-.44.8-.68,1.27l-.43.87v.1A8.54,8.54,0,0,0,108.52,200.1Z"/><path class="cls-28" d="M182.67,88.78h28.74a3.41,3.41,0,0,1,3.41,3.41v13.87a3.41,3.41,0,0,1-3.41,3.41H179.27a0,0,0,0,1,0,0V92.18A3.41,3.41,0,0,1,182.67,88.78Z"/><path class="cls-29" d="M202.76,103.73H191.32a1.86,1.86,0,0,1-1.86-1.86h0a1.87,1.87,0,0,1,1.86-1.87h11.44a1.87,1.87,0,0,1,1.87,1.87h0A1.87,1.87,0,0,1,202.76,103.73Z"/><path class="cls-29" d="M206.2,97.22H187.88A1.86,1.86,0,0,1,186,95.36h0a1.86,1.86,0,0,1,1.86-1.86H206.2a1.86,1.86,0,0,1,1.86,1.86h0A1.86,1.86,0,0,1,206.2,97.22Z"/><path class="cls-28" d="M172.26,109.46l7.12-4.69c2.7,2.11,5.41,2.58,8.11,4.69Z"/><path class="cls-30" d="M8.34,144.46H79.7A8.34,8.34,0,0,1,88,152.79v8a8.34,8.34,0,0,1-8.34,8.34H0a0,0,0,0,1,0,0V152.79A8.34,8.34,0,0,1,8.34,144.46Z" transform="translate(88.04 313.57) rotate(-180)"/><path class="cls-26" d="M13.51,150.66h62a2,2,0,0,1,2,2h0a2,2,0,0,1-2,2H13.51a2,2,0,0,1-2-2h0A2,2,0,0,1,13.51,150.66Z"/><path class="cls-26" d="M13.51,157.9h62a2,2,0,0,1,2,2h0a2,2,0,0,1-2,2H13.51a2,2,0,0,1-2-2h0A2,2,0,0,1,13.51,157.9Z"/><path class="cls-30" d="M90.2,137.19,88,151l-9.83-6.49Z"/><path class="cls-30" d="M233.13,0h73.52a11,11,0,0,1,11,11V44.22a11,11,0,0,1-11,11H244.14a11,11,0,0,1-11-11V0A0,0,0,0,1,233.13,0Z" transform="translate(550.78 55.23) rotate(180)"/><path class="cls-26" d="M265.06,46.59h22a2.81,2.81,0,0,0,2.81-2.81h0A2.8,2.8,0,0,0,287,41h-22a2.8,2.8,0,0,0-2.8,2.8h0A2.8,2.8,0,0,0,265.06,46.59Z"/><path class="cls-26" d="M252,36.48h48.16a2.8,2.8,0,0,0,2.81-2.8h0a2.81,2.81,0,0,0-2.81-2.81H252a2.81,2.81,0,0,0-2.81,2.81h0A2.8,2.8,0,0,0,252,36.48Z"/><path class="cls-26" d="M252,26.38h48.16a2.8,2.8,0,0,0,2.81-2.8h0a2.81,2.81,0,0,0-2.81-2.81H252a2.81,2.81,0,0,0-2.81,2.81h0A2.8,2.8,0,0,0,252,26.38Z"/><path class="cls-26" d="M265.06,16.28h22a2.81,2.81,0,0,0,2.81-2.81h0a2.8,2.8,0,0,0-2.81-2.8h-22a2.8,2.8,0,0,0-2.8,2.8h0A2.8,2.8,0,0,0,265.06,16.28Z"/><path class="cls-30" d="M317.66,67.63V55.23H304Z"/><path class="cls-28" d="M415.08,87.32h19.67A15.24,15.24,0,0,1,450,102.57v14.59a15.24,15.24,0,0,1-15.24,15.24H399.84a0,0,0,0,1,0,0V102.57A15.24,15.24,0,0,1,415.08,87.32Z"/><path class="cls-29" d="M432.34,123.7H417.5a2.82,2.82,0,0,1-2.83-2.82h0a2.83,2.83,0,0,1,2.83-2.83h14.84a2.83,2.83,0,0,1,2.83,2.83h0A2.83,2.83,0,0,1,432.34,123.7Z"/><path class="cls-29" d="M437.92,113.53h-26a2.83,2.83,0,0,1-2.82-2.83h0a2.82,2.82,0,0,1,2.82-2.82h26a2.82,2.82,0,0,1,2.82,2.82h0A2.83,2.83,0,0,1,437.92,113.53Z"/><path class="cls-29" d="M432.34,103.35H417.5a2.82,2.82,0,0,1-2.83-2.82h0a2.83,2.83,0,0,1,2.83-2.83h14.84a2.83,2.83,0,0,1,2.83,2.83h0A2.83,2.83,0,0,1,432.34,103.35Z"/><path class="cls-28" d="M399.84,142.63V125.94l11.49,6.12Z"/><rect class="cls-5" x="92.69" y="259.69" width="340.74" height="1.98"/></svg>