<svg id="Layer_1" data-name="Layer 1" xmlns="http://www.w3.org/2000/svg" viewBox="0 0 287.79 258.64"><defs><style>.cls-1{fill:#fff;}.cls-1,.cls-24{opacity:0.54;}.cls-2{fill:#677076;}.cls-3{fill:#636a6d;}.cls-4{fill:#c7daeb;}.cls-5{fill:#bcd4ea;}.cls-10,.cls-20,.cls-21,.cls-24,.cls-6{fill:#d5e0ef;}.cls-6{opacity:0.41;}.cls-11,.cls-12,.cls-14,.cls-7{fill:#96abbb;}.cls-7{opacity:0.59;}.cls-8{fill:#596268;}.cls-9{fill:#afc4d8;}.cls-10,.cls-15,.cls-16{opacity:0.42;}.cls-11{opacity:0.57;}.cls-13{fill:#c9dcf6;}.cls-14{opacity:0.38;}.cls-15{fill:#9ca2a9;}.cls-16{fill:#707a82;}.cls-17{fill:#515a60;opacity:0.65;}.cls-18{fill:#6e7c8c;}.cls-19{fill:#9ab2ca;}.cls-20{opacity:0.88;}.cls-22{fill:#44c1ee;}.cls-23{fill:#3dadd8;}</style></defs><circle class="cls-1" cx="110.58" cy="148.06" r="110.58" transform="translate(-72.31 121.56) rotate(-45)"/><path class="cls-2" d="M142.29,5.7H130.9a2.85,2.85,0,0,1-2.84-2.85h0A2.84,2.84,0,0,1,130.9,0h11.39a2.84,2.84,0,0,1,2.85,2.85h0A2.85,2.85,0,0,1,142.29,5.7Z"/><path class="cls-3" d="M136.49,0h-5.57a2.84,2.84,0,0,0-2.85,2.85h0a2.85,2.85,0,0,0,2.85,2.85h5.57Z"/><rect class="cls-4" x="126.92" y="2.28" width="19.36" height="3.04" rx="1.51"/><path class="cls-5" d="M225.33,100.84h-63a18.36,18.36,0,0,0-5.72-3.77l-.71-7.17C155.27,83.67,150.82,79,145.52,79h-17.6c-5.21,0-9.62,4.56-10.33,10.68l-.89,7.64a18.59,18.59,0,0,0-5.2,3.55H99.81c-22.53,0-41,23.91-42.44,54.15H84.84c.67-13.24,9.59-23.72,20.5-23.72H114a18,18,0,0,0,10.19,3.15h25.46a18.14,18.14,0,0,0,9.71-2.82h66Z"/><path class="cls-6" d="M162.23,100.84a18.36,18.36,0,0,0-5.72-3.77l-.7-7.17C155.19,83.67,150.74,79,145.44,79H127.85c-5.22,0-9.63,4.56-10.34,10.68l-.88,7.64a18.5,18.5,0,0,0-5.21,3.55H99.73c-22.52,0-41,23.91-42.43,54.15h.21c2.54-28.75,20.47-51,42.22-51h11.69a18.09,18.09,0,0,1,5.21-3.55l.88-7.65c.71-6.12,5.12-10.67,10.34-10.67h17.59c5.3,0,9.75,4.69,10.37,10.92l.7,7.17a18.21,18.21,0,0,1,5.72,3.78h63v-3.12Z"/><path class="cls-7" d="M225.16,106.26c-4.69,4.19-9.88,8.32-15.59,11-7.14,3.39-15.42,4.51-23.27,4-8.08-.48-15.81-3.07-23.79-4.25a35.55,35.55,0,0,0-12.13,0c-3.92.78-7.54,2.71-11.31,4a31.43,31.43,0,0,1-12.23,1.43c-4.44-.28-8.83-1.09-13.29-1.09a47.38,47.38,0,0,0-12.23,1.06,18.38,18.38,0,0,0-5.52,2.31A23.52,23.52,0,0,0,92,128.15c-2.24,2.36-4.32,4.91-7,6.72a18.5,18.5,0,0,1-8.72,3c-6.82.45-10.08-5-11.87-11a72.76,72.76,0,0,0-7,28.14H84.84c.67-13.24,9.59-23.72,20.5-23.72H114a18,18,0,0,0,10.19,3.15h25.46a18.14,18.14,0,0,0,9.71-2.82h66V106.1Z"/><rect class="cls-8" x="254.11" y="100.85" width="33.68" height="30.75"/><rect class="cls-2" x="127.98" y="35.23" width="17.09" height="10.25"/><rect class="cls-3" x="127.98" y="36.37" width="8.18" height="10.25"/><rect class="cls-9" x="116.97" y="3.49" width="39.11" height="32.88" rx="14.42"/><path class="cls-10" d="M142,3.8H131.17a14.13,14.13,0,0,0-13.07,8.76A14.11,14.11,0,0,1,130,6h10.86A14.12,14.12,0,0,1,155,20.12v4.64a14,14,0,0,1-1,5.35,14,14,0,0,0,2.19-7.56V17.92A14.12,14.12,0,0,0,142,3.8Z"/><path class="cls-11" d="M131.06,3.49h5.5V36.37h-5.5a14.12,14.12,0,0,1-14.12-14.12V17.62A14.13,14.13,0,0,1,131.06,3.49Z"/><path class="cls-4" d="M116.25,12.45a8.52,8.52,0,0,0-5.32,1.83H92.3a10.27,10.27,0,0,0-7.34-3c-5.39,0-9.75,3.9-9.75,8.7S79.57,28.7,85,28.7a10.27,10.27,0,0,0,7.26-2.88H111a8.51,8.51,0,0,0,5.22,1.74c4.51,0,8.16-3.38,8.16-7.55S120.76,12.45,116.25,12.45Z"/><path class="cls-4" d="M157.41,12.38a8.48,8.48,0,0,1,5.31,1.82h18.64a10.25,10.25,0,0,1,7.33-3c5.39,0,9.76,3.89,9.76,8.69s-4.37,8.7-9.76,8.7a10.31,10.31,0,0,1-7.26-2.89h-18.8a8.56,8.56,0,0,1-5.22,1.75c-4.51,0-8.17-3.38-8.17-7.56S152.9,12.38,157.41,12.38Z"/><path class="cls-12" d="M196.84,15.14a9.12,9.12,0,0,1,.44,1.63,5.19,5.19,0,0,1-.62,3.57,7,7,0,0,1-4.45,2.93,13.67,13.67,0,0,1-5.8.16A7.8,7.8,0,0,1,184,22.6c-.93-.53-1.82-1.13-2.77-1.6-2.29-1.15-5-1-7.48-.85a24.45,24.45,0,0,0-4.17.65c-1.34.34-2.67.77-4,1.18a30.88,30.88,0,0,1-4,1,28.13,28.13,0,0,1-3.3.32,21.38,21.38,0,0,1-3.3,0,6.81,6.81,0,0,1-2.9-.77,7,7,0,0,1-2.61-4.1,7.31,7.31,0,0,0-.16,1.49c0,4.18,3.66,7.56,8.17,7.56a8.56,8.56,0,0,0,5.22-1.75h18.8a10.31,10.31,0,0,0,7.26,2.89c5.39,0,9.76-3.89,9.76-8.7A8,8,0,0,0,196.84,15.14Z"/><path class="cls-12" d="M76.82,15.22a9.28,9.28,0,0,0-.45,1.62A5.17,5.17,0,0,0,77,20.41a6.92,6.92,0,0,0,4.45,2.93,13.83,13.83,0,0,0,5.8.17,7.89,7.89,0,0,0,2.45-.83c.93-.53,1.81-1.13,2.77-1.61,2.28-1.15,5-1,7.48-.84a23.37,23.37,0,0,1,4.16.64c1.35.35,2.67.78,4,1.19a33,33,0,0,0,4,1,30.39,30.39,0,0,0,3.31.32,22.72,22.72,0,0,0,3.3,0,6.9,6.9,0,0,0,2.89-.76,6.93,6.93,0,0,0,2.61-4.11,6.82,6.82,0,0,1,.16,1.5c0,4.17-3.65,7.55-8.16,7.55A8.51,8.51,0,0,1,111,25.82H92.22A10.27,10.27,0,0,1,85,28.7c-5.39,0-9.75-3.89-9.75-8.69A8,8,0,0,1,76.82,15.22Z"/><ellipse class="cls-4" cx="136.52" cy="19.97" rx="9.3" ry="7.44"/><path class="cls-12" d="M140.93,22.93c-5.14,0-9.3-3.33-9.3-7.44a6.15,6.15,0,0,1,.34-2c-2.83,1.28-4.75,3.71-4.75,6.49,0,4.11,4.17,7.44,9.3,7.44,4.27,0,7.87-2.3,9-5.43A11,11,0,0,1,140.93,22.93Z"/><rect class="cls-13" x="54.47" y="152.78" width="33.41" height="9.87" rx="2.2"/><path class="cls-14" d="M63.28,161.21a9.65,9.65,0,0,1-8.73-5.54v4.83a2.17,2.17,0,0,0,2.16,2.16h29.1a2.17,2.17,0,0,0,2-1.45Z"/><rect class="cls-15" x="254.11" y="104.41" width="33.68" height="6.76"/><rect class="cls-16" x="254.11" y="110.95" width="33.68" height="12.68"/><path class="cls-17" d="M276,130.07c-1.05-1-2.1-2-3.16-2.95s-2.18-1.73-3.26-2.63a47.39,47.39,0,0,1-6.23-6.33,47.29,47.29,0,0,1-5.36-7.23c-.41-.72-.8-1.48-1.17-2.3s-.75-1.87-1.11-2.87c-.54-1.55-1.08-3.13-1.64-4.66v30.27h23.31C277,131,276.5,130.51,276,130.07Z"/><path class="cls-13" d="M225,116.63c6.78.83,13.56,1.53,20.36,2.06l8.77.67V99.63a4,4,0,0,0-4-3.95h-15A12.4,12.4,0,0,0,222.75,108v8.32C223.49,116.45,224.23,116.54,225,116.63Z"/><path class="cls-18" d="M232.83,118.3c-3.12-.36-6.25-.67-9.35-1.1l-.73-.11v7.4a12.4,12.4,0,0,0,12.39,12.35h15a4,4,0,0,0,4-4V120.13C247,119.62,239.89,119.12,232.83,118.3Z"/><rect class="cls-19" x="222.75" y="107.53" width="31.36" height="17.47"/><path class="cls-20" d="M68.18,124.66c0,.37.06.76.76.67a7.09,7.09,0,0,0,3.4-2.12,75.52,75.52,0,0,0,5.14-6.8,27.72,27.72,0,0,1,7.86-7,27.65,27.65,0,0,0,3-1.9c.82-.67,1.14-1.43.29-1.37a5.14,5.14,0,0,0-1.2.32,40.7,40.7,0,0,0-12.9,8.49C71,118.5,68.35,122,68.18,124.66Z"/><path class="cls-7" d="M155.87,89.9C155.26,83.67,150.82,79,145.53,79H128c-5.2,0-9.6,4.56-10.31,10.68l-.88,7.64c-.28.13-.56.26-.83.41a8.07,8.07,0,0,0,1.12.49c5.47-3.1,13-5,21.3-5a46.62,46.62,0,0,1,18.16,3.46Z"/><path class="cls-5" d="M159.87,89.23h-46.7l4.06-36.72c.44-4,4.18-7,8.65-7h21.5c4,0,7.32,2.67,7.77,6.21Z"/><path class="cls-10" d="M124.82,47.92h21.5a7.59,7.59,0,0,1,7.76,6.37l4.29,34.94h1.5L155.15,51.7c-.45-3.54-3.79-6.21-7.77-6.21h-21.5c-4.21,0-7.78,2.7-8.54,6.34A8.88,8.88,0,0,1,124.82,47.92Z"/><path class="cls-11" d="M113.38,87.25h.09l4.36-35.55a7.4,7.4,0,0,1,7.56-6.21H135.8v45H113.38a.91.91,0,0,1-.89-.92V88.16A.9.9,0,0,1,113.38,87.25Z"/><path class="cls-21" d="M193.09,13.61a4.52,4.52,0,0,1,2.47,1.55,1.48,1.48,0,0,1-.87,2.14,1.86,1.86,0,0,1-.67.14,1.71,1.71,0,0,1-.88-.33,11.31,11.31,0,0,1-1.71-1.3,5.86,5.86,0,0,0-1.29-1.05,16,16,0,0,0-2-.7c-.66-.24-1.28-.63-1.33-1.15a.35.35,0,0,1,.11-.31C188.23,11.5,191.91,13.23,193.09,13.61Z"/><path class="cls-21" d="M80.9,13.91a4.23,4.23,0,0,0-2.27,1.7,1.67,1.67,0,0,0,.77,2.29,1.31,1.31,0,0,0,.61.15,1.54,1.54,0,0,0,.81-.36,10.77,10.77,0,0,0,1.57-1.43,6.14,6.14,0,0,1,1.19-1.14,13.51,13.51,0,0,1,1.82-.79c.61-.26,1.18-.69,1.23-1.25a.4.4,0,0,0-.1-.33C85.36,11.57,82,13.49,80.9,13.91Z"/><rect class="cls-2" x="112.49" y="87.25" width="48.14" height="3.27" rx="0.93"/><path class="cls-3" d="M135.73,87.25H113.4a.91.91,0,0,0-.91.91V89.6a.92.92,0,0,0,.91.92h22.33Z"/><path class="cls-21" d="M143.72,18.89a.44.44,0,0,1-.08.25.46.46,0,0,1-.21.1,2.24,2.24,0,0,1-1.56-.42,9.06,9.06,0,0,1-2.28-1.91,5.46,5.46,0,0,0-1.2-1.2,8.32,8.32,0,0,1-.93-.5.79.79,0,0,1-.31-.92.81.81,0,0,1,.46-.35,3.85,3.85,0,0,1,2.56.48,10.86,10.86,0,0,1,1.49.5A4.34,4.34,0,0,1,143.72,18.89Z"/><path class="cls-22" d="M62.16,202.29h0a10.45,10.45,0,0,1-9.74-14.23l9.74-25.18h0l9.75,25.18A10.46,10.46,0,0,1,62.16,202.29Z"/><path class="cls-23" d="M57,189.71l5.08-26.51.58,1-.49-1.27-9.74,25.18a10.45,10.45,0,0,0,9.74,14.23h0a10.48,10.48,0,0,0,2.84-.38A10.47,10.47,0,0,1,57,189.71Z"/><path class="cls-24" d="M68.3,194.18a1.79,1.79,0,0,0,.2,1.16,1.93,1.93,0,0,0,1.28.64,1.72,1.72,0,0,0,1.1-.11,1.61,1.61,0,0,0,.62-.83,9.25,9.25,0,0,0,.68-3.24,2.19,2.19,0,0,0-.15-1,2.54,2.54,0,0,0-.8-.87,3,3,0,0,0-.89-.5,1.24,1.24,0,0,0-1,.11c-.69.49-.28,1.45-.44,2.11A18,18,0,0,0,68.3,194.18Z"/><path class="cls-24" d="M69.18,188.36a.85.85,0,0,0,.37.48,1,1,0,0,0,.76,0,.93.93,0,0,0,.5-.31.82.82,0,0,0,.1-.53,4.44,4.44,0,0,0-.44-1.64.93.93,0,0,0-.31-.42,1.26,1.26,0,0,0-.58-.2,1.45,1.45,0,0,0-.55,0,.63.63,0,0,0-.45.29c-.21.39.21.72.29,1.06A8.2,8.2,0,0,0,69.18,188.36Z"/><path class="cls-22" d="M72.15,233.12h0c-6.52,0-11-6.24-8.65-12l8.65-21.29h0l8.65,21.29C83.15,226.88,78.67,233.12,72.15,233.12Z"/><path class="cls-23" d="M67.56,222.48l4.51-22.42.51.8-.43-1.07L63.5,221.08c-2.35,5.8,2.13,12,8.65,12h0a9.89,9.89,0,0,0,2.52-.32A8.89,8.89,0,0,1,67.56,222.48Z"/><path class="cls-24" d="M77.6,226.26a1.4,1.4,0,0,0,.17,1,1.67,1.67,0,0,0,1.14.54,1.63,1.63,0,0,0,1-.09,1.34,1.34,0,0,0,.54-.7,7.28,7.28,0,0,0,.61-2.74,1.75,1.75,0,0,0-.13-.85,2.27,2.27,0,0,0-.71-.74,2.55,2.55,0,0,0-.8-.42,1.11,1.11,0,0,0-.88.09c-.61.41-.25,1.22-.39,1.78A13.24,13.24,0,0,0,77.6,226.26Z"/><path class="cls-24" d="M78.38,221.34a.76.76,0,0,0,.32.41,1,1,0,0,0,.68,0,.77.77,0,0,0,.44-.27.62.62,0,0,0,.09-.44,3.53,3.53,0,0,0-.39-1.39.8.8,0,0,0-.27-.36,1.23,1.23,0,0,0-.52-.17,1.55,1.55,0,0,0-.48,0,.58.58,0,0,0-.4.25c-.19.33.18.61.25.9A6.82,6.82,0,0,0,78.38,221.34Z"/></svg>