<svg id="Layer_1" data-name="Layer 1" xmlns="http://www.w3.org/2000/svg" viewBox="0 0 40.3 50"><path d="M17.65,42.75c0-1.08-1.15-2.79-2.67-4.67,2.18-3.2,1.74-6.5-1.28-9.35a12.59,12.59,0,0,0-5.11-2.9A20.94,20.94,0,0,1,1.8,22.51a.72.72,0,0,0-.65-.12.68.68,0,0,0-.45.48c-1.23,4.6-.84,8.42,1.19,11.34,3.18,4.59,9.17,5.24,9.42,5.26h.07a.67.67,0,0,0,.68-.65.68.68,0,0,0-.61-.72c-.06,0-5.63-.62-8.44-4.69C1.37,31.05,1,28,1.79,24.2A23.72,23.72,0,0,0,8.2,27.14a11.4,11.4,0,0,1,4.56,2.59c2.43,2.29,2.86,4.72,1.3,7.25h0A109.94,109.94,0,0,0,6,28.78a.68.68,0,0,0-1,0,.7.7,0,0,0,0,1,107.33,107.33,0,0,1,8.56,8.77v0c1.56,1.85,2.64,3.42,2.68,4.24a.69.69,0,0,0,.69.65h0a.68.68,0,0,0,.65-.72Z"/><path d="M39.5,17.38c-10.15,1.6-16.68,4.95-19.4,10a11.23,11.23,0,0,0-.62,9.39.69.69,0,0,0,1.26-.55,10,10,0,0,1,.57-8.2c2.45-4.47,8.36-7.53,17.58-9.1-.17,2.93-1.15,12.89-6.82,17.39a11.37,11.37,0,0,1-9.38,2h0a55.81,55.81,0,0,1,5.36-7.43l4.68-.26h0a.69.69,0,0,0,.65-.73.68.68,0,0,0-.72-.65l-3.36.19a73.21,73.21,0,0,1,6.3-6.28.69.69,0,0,0-.88-1.05c-.22.18-1.94,1.65-4.22,4v-2a.68.68,0,0,0-.68-.69.69.69,0,0,0-.69.69v3.45c-1.3,1.41-2.7,3-4.07,4.81L24.86,29h0a.69.69,0,0,0-.72-.63.69.69,0,0,0-.65.71l.3,5c-3.25,4.56-6,9.93-6.35,15.24a.69.69,0,0,0,.17.5.71.71,0,0,0,.48.23h0a.69.69,0,0,0,.69-.65A23.75,23.75,0,0,1,22,39.56h0a17.56,17.56,0,0,0,3.32.34,11.88,11.88,0,0,0,7.62-2.57c7.18-5.69,7.37-18.71,7.38-19.26a.7.7,0,0,0-.24-.53.71.71,0,0,0-.56-.16Z"/><polygon points="15.39 16.53 15.37 32.07 14.1 30.48 14.12 16.52 15.39 16.53"/><polygon points="20.51 27.99 19.34 30.33 18.73 16.46 20 16.4 20.51 27.99"/><path d="M21.73,14.48a2.82,2.82,0,0,0,.87-2.1L22.34,0,21.06,0l.27,12.37A1.55,1.55,0,0,1,19.81,14l-5.6.12h0a1.55,1.55,0,0,1-1.59-1.52L12.35.22l-1.27,0,.26,12.38h0a2.85,2.85,0,0,0,2.89,2.77l5.61-.12a2.85,2.85,0,0,0,1.89-.79Z"/><path d="M14.66,12.05,14.4.17l1.28,0L15.94,12Z"/><path d="M18,12,17.73.1,19,.07,19.26,12Z"/></svg>