<?xml version="1.0" encoding="UTF-8"?>
<svg id="Layer_2" data-name="Layer 2" xmlns="http://www.w3.org/2000/svg" viewBox="0 0 431.96 273.89">
  <defs>
    <style>
      .cls-1 {
        fill: #dba100;
      }

      .cls-2 {
        fill: #e1a12e;
      }

      .cls-3 {
        fill: #e5a900;
      }

      .cls-4 {
        fill: #f2b800;
      }

      .cls-5, .cls-6, .cls-7 {
        fill: #fff;
      }

      .cls-5, .cls-8 {
        opacity: .34;
      }

      .cls-9 {
        fill: #c5c5c5;
      }

      .cls-10 {
        fill: #85b52f;
      }

      .cls-11 {
        fill: #d14221;
      }

      .cls-12 {
        fill: #f4ce64;
      }

      .cls-6, .cls-13 {
        opacity: .23;
      }

      .cls-14 {
        fill: #97cc4a;
      }

      .cls-15 {
        fill: #f7d007;
      }

      .cls-16, .cls-7 {
        opacity: .29;
      }

      .cls-17 {
        fill: #ccf47b;
      }

      .cls-18 {
        fill: #efb600;
      }

      .cls-19 {
        fill: #bae5be;
      }

      .cls-20 {
        fill: #913933;
      }

      .cls-21 {
        fill: #ef8800;
      }

      .cls-22 {
        fill: #dd7300;
      }

      .cls-23 {
        fill: #f25227;
      }

      .cls-24 {
        fill: #969696;
      }

      .cls-25 {
        opacity: .15;
      }

      .cls-26 {
        fill: #509324;
      }

      .cls-27 {
        fill: #828282;
      }

      .cls-28 {
        fill: #ce912e;
      }

      .cls-29 {
        fill: #ef7200;
      }

      .cls-30 {
        fill: #eaba66;
      }

      .cls-31 {
        fill: #ffdb64;
      }

      .cls-32 {
        fill: #c25800;
      }

      .cls-33 {
        fill: #a3a3a3;
      }

      .cls-34 {
        fill: #7db762;
      }

      .cls-35 {
        fill: #edc767;
      }

      .cls-36 {
        fill: #cee2da;
      }

      .cls-37 {
        fill: #ffea23;
      }

      .cls-38 {
        fill: #cc6f00;
      }

      .cls-39 {
        fill: #c66000;
      }

      .cls-40 {
        fill: #a58a49;
      }

      .cls-41 {
        fill: #80af53;
      }

      .cls-42 {
        fill: #ce5c00;
      }

      .cls-43 {
        fill: #99d679;
      }

      .cls-44 {
        fill: #f2f2f2;
        opacity: .1;
      }

      .cls-45 {
        fill: #8dcc31;
      }
    </style>
  </defs>
  <g id="Layer_1-2" data-name="Layer 1">
    <g>
      <path class="cls-44" d="M217.73,89.82l6,5s-2,.2-3,.6l-3-5.6Z"/>
      <g class="cls-25">
        <g>
          <path d="M64.5,41.38c-1.67,1.49-2.45,4.23-1.09,6.01,.66,.87,1.69,1.36,2.72,1.72,6.7,2.38,14.45,.44,20.98,3.27,2.06,.89,3.91,2.23,6,3.06,4.93,1.98,10.47,.95,15.77,.53,12.27-.98,24.52,1.5,36.73,3.07,12.21,1.57,25,2.16,36.46-2.35,1.92-.76,4.11-2.22,3.81-4.25-.13-.87-.72-1.6-1.36-2.2-2.09-1.95-4.88-2.93-7.58-3.87,6.95-1.37,13.9-2.73,20.85-4.1,2.47-.49,5.49-1.54,5.74-4.05,.1-1.03-.34-2.04-.9-2.91-2.06-3.24-5.7-5.2-9.42-6.11-3.73-.91-7.61-.89-11.44-.98-17.62-.41-35.19-3.23-52.84-2.12-13.95,.88-26.19,5.05-39.39,8.8-7.2,2.05-19.28,1.32-25.03,6.46Z"/>
          <path d="M190.61,15.59c9.04,2.54,17.78,6.88,24.17,13.76-12.83-8.48-28.52-12.55-43.85-11.36,7.25,.31,14.44,1.7,21.29,4.09-6.46-1.9-13.43-2.06-19.97-.44,7.83,4.93,17.82,4.83,26.93,3.23,9.11-1.61,18.05-4.55,27.31-4.79-7.57,2.92-15.59,4.44-23.55,5.96-5.84,1.11-11.69,2.22-17.59,2.9-6.23,.72-12.51,.95-18.78,.7,3.89,.13,7.75,.98,11.34,2.48,.76,.32,1.66,1.11,1.19,1.8-5.69,.03-11.37-1.53-16.25-4.45-3.23-1.93-6.12-4.46-9.57-5.97-1.4-.62-3-1.15-3.77-2.48-1.11-1.94,.21-4.41,1.88-5.89,4.33-3.82,11.2-3.78,16.66-3.29,7.57,.67,15.21,1.71,22.54,3.77Z"/>
          <path d="M36.89,38.93c5.56-4.93,11.26-9.95,18.12-12.82,4.51-1.89,9.36-2.78,14.04-4.19,5.1-1.53,9.98-3.68,14.94-5.63,15.52-6.12,31.78-10.4,48.33-12.54,6.59-.85,13.41-1.35,19.78,.53,6.38,1.87,12.29,6.56,13.92,13,1.3,5.14-.23,10.57-2.3,15.45-.86,2.05-1.9,4.14-3.71,5.43-3.29,2.34-7.77,1.24-11.77,.7-6.89-.94-13.87,.11-20.82,.16-13.72,.11-27.18-3.66-40.86-4.69-7.47-.56-14.98-.31-22.45,.15-3.71,.23-7.46,.51-11.02,1.57-5.54,1.65-10.33,5.1-15.01,8.49-3.86,2.79-7.03,6.32-10.48,9.6-7.92,7.52-.74,12.91-1.91,13.53-.78,.49-1.99-1.95-2.58-3.18-.6-1.25-.91-2.62-.92-4-.03-2.77,.69-5.18,2.05-7.57,3.13-5.52,7.97-9.83,12.67-13.99Z"/>
          <path d="M163.57,12.62c.59,3.8-.6,7.99-3.85,9.93-4.94,2.94-11.88-.49-16.79,2.5,.57,.4,1.14,.81,1.71,1.21-3.64,2.78-8.61,2.79-13.19,2.67-7.23-.19-14.46-.37-21.69-.56,2.89,1.48,6,2.53,9.2,3.08-9.44,2.78-19.13-3.44-28.96-3.83-6.74-.27-13.28,2.22-20,2.75-3.45,.27-6.94,.02-10.36,.57-3.31,.53-6.46,1.78-9.48,3.24-5.69,2.74-11.03,6.22-15.85,10.31-1.82,1.54-7.18,8.85-9.46,8.51-.28-.04-.54-.17-.78-.37-.06,.11-.12,.21-.18,.32-1.36,2.39-2.08,4.8-2.05,7.57,.02,1.38,.32,2.76,.92,4,.59,1.23,1.8,3.67,2.58,3.18,1.16-.62-6.01-6,1.91-13.53,3.45-3.28,6.62-6.81,10.48-9.6,4.68-3.39,9.48-6.84,15.01-8.49,3.56-1.06,7.31-1.35,11.02-1.57,7.48-.45,14.98-.71,22.45-.15,13.68,1.03,27.14,4.79,40.86,4.69,6.95-.05,13.93-1.1,20.82-.16,4,.54,8.48,1.65,11.77-.7,1.81-1.29,2.84-3.39,3.71-5.43,2.06-4.88,3.6-10.31,2.3-15.45-.43-1.69-1.15-3.26-2.1-4.69Z"/>
          <path class="cls-16" d="M89.21,18.28c-4.71,1.38-9.73,1.94-14.04,4.28,12.06,.4,23.08-6.72,34.99-8.63,5.52-.88,11.15-.64,16.71-1.12,1.22-.11,2.85-.87,2.41-2.01-.28-.73-1.24-.87-2.03-.89-6.08-.17-12.08-.85-18,.8-6.91,1.92-13.17,5.56-20.04,7.57Z"/>
        </g>
        <g>
          <path d="M94.51,79.87c2.58,4.41,7.3,7.09,12,9.1,13.35,5.73,28.28,7.75,42.68,5.77,4.65-.64,9.31-1.69,13.98-1.22,.33,7.29-4.66,13.99-10.89,17.79-6.23,3.8-13.57,5.25-20.74,6.64-12.16,2.35-24.33,4.7-36.49,7.06-.94,.18-2.03,.48-2.4,1.37-.35,.84,.15,1.8,.78,2.46,1.96,2.06,5.04,2.5,7.88,2.7,32.25,2.23,64.38-13.63,85.23-38.33-3.42,6.91-.37,15.69,5.32,20.89,5.7,5.2,13.43,7.51,21,9,14.96,2.94,30.58,3.25,45.38-.44,.82-.2,1.68-.44,2.3-1.02,1.44-1.35,.79-3.93-.75-5.15-1.54-1.23-3.61-1.49-5.56-1.76-12.71-1.77-25.09-5.85-36.36-11.98-6.57-3.57-13.22-8.46-15.15-15.69-1-3.76-.59-7.77-1.39-11.57-.8-3.81-3.46-7.76-7.35-7.97-1.7-.09-3.34,.56-4.93,1.19-22.72,9.11-46.83,17.48-71.16,14.77-5.18-.58-10.37-1.68-15.15-3.81-1.96-.87-4.69-3.53-6.66-3.88-2.32-.42-2.57,2.36-1.57,4.08Z"/>
          <path d="M259.99,112.72c-1.75-1.36-3.99-1.86-6.16-2.26-8.9-1.62-18.16-1.97-26.52-5.43-8.36-3.46-15.88-11.17-15.5-20.21,.2-4.75,2.54-9.23,2.68-13.99,.11-3.57-1.24-7.03-3.47-9.79,.05-.72,.14-1.43,.29-2.14,.54-2.65,1.91-5.24,4.19-6.69s5.56-1.45,7.52,.42c.75,.72,1.26,1.65,1.98,2.4,.71,.75,1.76,1.34,2.76,1.07,1.06-.29,1.83-1.46,2.92-1.38-.19-3.27-1.4-6.48-3.42-9.07-.29-.38-.61-.75-1.03-.99-.55-.32-1.22-.39-1.86-.42-5.85-.29-11.79,1.38-16.63,4.69-2.65,1.81-5.15,3.8-7.82,5.59-.12,.08-.23,.16-.34,.24-1.84-.31-3.72-.35-5.32,.16-3.72,1.18-7.11,3.4-10.26,5.66-3.67,2.64-7.12,5.58-10.84,8.14-11.19,7.71-24.99,11.57-38.55,10.79-13.32-.76-26.51-5.83-39.7-3.8,.08,2.24,2.01,3.93,3.85,5.21,9.89,6.85,21.81,10.41,33.79,11.46,11.98,1.05,18.11-1.31,29.9-3.65-16.11,11.02-24.65,15.95-44.6,24.77-8.63,3.82-27.27,7.33-25.27,12.5,1.72,2.02,4.66,2.37,7.3,2.48,14.2,.58,28.42-1.91,41.96-6.24,8.64-2.76,17.11-6.32,24.5-11.59,12.51-8.93,21.13-22.19,29.13-35.3-3.16,5.65-5.72,11.77-6.36,18.21-.64,6.44,.81,13.28,4.94,18.27,5.4,6.52,14.28,8.89,22.65,10.12,12.79,1.87,25.86,1.92,38.66,.14,2.6-.36,5.62-1.12,6.61-3.55,.84-2.05-.26-4.48-2.01-5.84Z"/>
          <path d="M262.05,115.65c-.36-1.14-1.12-2.19-2.06-2.93-1.75-1.36-3.99-1.86-6.16-2.26-8.9-1.62-18.16-1.97-26.52-5.43-8.36-3.46-15.88-11.17-15.5-20.21,.2-4.75,2.54-9.23,2.68-13.99,.11-3.57-1.24-7.03-3.47-9.79,.05-.72,.14-1.43,.29-2.14,.54-2.65,1.91-5.24,4.19-6.69,2.29-1.44,5.56-1.45,7.52,.42,.75,.72,1.26,1.65,1.98,2.4,.71,.75,1.76,1.34,2.76,1.07,1.06-.29,1.83-1.46,2.92-1.38,0-.05,0-.09,0-.14-1.93-.37-3.61-1.02-4.17-2.74-.19-.6-.23-1.24-.48-1.82-.6-1.36-2.23-1.93-3.71-2.07-3.17-.31-6.46,.71-8.9,2.76-1.74,1.46-3.04,3.39-4.73,4.91-1.69,1.52-4.05,2.63-6.22,1.94,2.53,1.58,4.41,4.18,5.12,7.08,1.37,5.54-1.4,11.14-2.91,16.64-1.08,3.97-1.52,8.11-1.28,12.22,.16,2.81,.69,5.71,2.35,7.97,2.31,3.15,6.34,4.47,10.15,5.36,13.24,3.1,26.97,3.32,40.37,5.64,1.25,.22,2.55,.47,3.58,1.21,1.03,.74,1.73,2.11,1.3,3.31,.33-.43,.64-.88,.93-1.34Z"/>
          <path d="M188.09,67.61c-17.27,16.66-42.18,23.83-66.16,23.13,12.04,1.57,24.5,2.5,36.16-.89,11.76-3.41,21.41-13.96,30-22.25Z"/>
          <path d="M196.44,66.9c-1.91,4.43-4.95,8.28-8.13,11.91-18.01,20.59-41.74,36.12-67.82,44.37,6.2-2.16,12.71-4.16,18.36-7.54,5.31-3.18,10.57-6.44,15.71-9.88,10.29-6.88,20.16-14.47,28.86-23.29,2.42-2.46,4.75-5.01,6.97-7.66,1.94-2.32,4.84-5.12,6.04-7.91Z"/>
          <path class="cls-8" d="M190.56,57.84c-3.77,1.97-6.45,5.49-9.89,7.99-1.27,.92-2.63,1.69-3.98,2.5-.22,.13-.45,.29-.48,.54-.05,.39,.42,.62,.81,.66,1.03,.1,2.03-.32,2.93-.82,2.02-1.12,3.74-2.69,5.6-4.06,1.85-1.37,3.93-2.59,6.22-2.85,1.02-.12,2.08-.04,3.06-.34,.99-.3,1.93-1.12,1.9-2.15-.07-3.31-4.36-2.41-6.17-1.47Z"/>
        </g>
        <g>
          <path d="M360.3,26.7c1.12-.04,2.34-.02,3.24,.66,1.16,.88,1.29,2.82,.26,3.85-.18,.18-.42,.34-.67,.31-.3-.04-.5-.32-.68-.57-1.12-1.55-3-2.42-4.89-2.68-1.89-.26-3.82,.03-5.68,.45-6.26,1.38-12.22,4.12-17.35,7.97-1.14,.85-2.28,2.03-3.56,2.66-.92,.45-1.06,.69-.95-.38,.22-2.09,3.57-3.64,5.08-4.57,4.83-2.97,10.14-5.15,15.67-6.43,3.13-.72,6.33-1.16,9.54-1.28Z"/>
          <path d="M300.55,47.64c-2.45,5.1-6.36,9.36-10.6,13.1-8.28,7.29-18.85,13.08-29.83,12.01,2.44,9.99,8.01,19.09,15.26,26.39,7.25,7.3,16.14,12.85,25.6,16.9,1.29,.55,2.94,1.02,3.97,.07,.53-.5,.72-1.25,.88-1.97,1.33-5.94,2.32-11.96,2.96-18.01,.55-5.25,.91-10.75,3.6-15.28,1.69-2.84,4.19-5.11,6.75-7.2,3.72-3.04,7.73-5.88,12.33-7.28,4.6-1.4,8.19-.07,12.14,2.67-3.74-12.23-11.12-23.27-21.25-31.08-4.18-3.22-12.57-9.26-18.34-7.31-3.1,1.05-1.16,3.4-1.03,6.21,.17,3.69-.86,7.5-2.44,10.8Z"/>
          <path d="M305.86,114.11c1.33-5.94,2.32-11.96,2.96-18.01,.55-5.25,.91-10.75,3.6-15.28,1.69-2.84,4.19-5.11,6.75-7.2,3.72-3.04,7.73-5.88,12.33-7.28s8.19-.07,12.14,2.67c-.47-1.52-.99-3.03-1.56-4.51-.15-.2-.3-.4-.44-.6-3.5-4.67-7.01-9.33-10.51-14-3.26-4.35-6.57-8.74-10.79-12.16-4.22-3.42-9.52-5.83-14.95-5.53l-.79-.45c2.7,5.24,4.17,11.12,4.25,17.02,3.19-.44,6.57,1.31,8.06,4.16,1.16,2.23,1.22,4.92,2.42,7.13,.2,.36,.43,.72,.49,1.12,.18,1.21-1.15,2.04-2.28,2.51-4.27,1.75-8.73,3.08-12.72,5.38-4,2.29-7.59,5.76-8.77,10.22-.89,3.4-.3,7,.54,10.41,.49,1.98,1.02,4.2-.02,5.95-.42,.7-1.06,1.24-1.56,1.88-1.91,2.43-1.66,5.85-1.32,8.92,.19,1.7,.39,3.44,1.22,4.93,.85,1.53,2.26,2.62,3.74,3.58,.79,.36,1.58,.72,2.38,1.06,1.29,.55,2.94,1.02,3.97,.07,.53-.5,.72-1.25,.88-1.97Z"/>
          <path d="M317.18,26.16c5.49,.77,10.56,4.12,13.41,8.87,.57,.96,1.07,1.98,1.86,2.77,1.18,1.18,2.84,1.7,4.29,2.52,3.38,1.9,5.6,5.43,6.73,9.14,1.13,3.71,1.3,7.63,1.46,11.51,.12,2.77,.18,5.74-1.34,8.06-1.28-3.29-4.68-5.63-8.21-5.64-1.55,0-3.12,.39-4.62,.03-2.33-.55-3.87-2.73-5-4.84-3.06-5.75-4.98-12.61-10.36-16.29-.48-.33-1.04-.64-1.62-.56-.79,.11-1.37,.9-2.16,.94-1.27,.07-1.74-1.59-2.02-2.83-.94-4.21-4.14-6.6-7.83-8.27,1.05-4.74,11.61-5.94,15.39-5.41Z"/>
          <path d="M267.79,79.9c-.15,2.66,.9,5.23,2.09,7.62,1.06,2.13,2.26,4.21,3.87,5.96,1.93,2.1,4.4,3.65,6.32,5.76,1.59,1.75,2.82,3.88,4.77,5.21,2.68,1.83,6.53,1.71,9.09-.28,.16,2.69,2.04,4.99,4.18,6.63,2.14,1.64,4.6,2.83,6.7,4.52,.12,.1,.26,.22,.29,.37,.06,.3-.26,.52-.53,.66-.86,.43-1.72,.86-2.59,1.29-.61,.31-1.25,.62-1.93,.67-.67,.05-1.34-.15-1.98-.36-7.63-2.54-14.53-7.25-19.69-13.43-.39-.47-.78-.96-1.3-1.28-.58-.36-1.28-.48-1.94-.66-2.58-.71-4.75-2.42-6.7-4.26-5.5-5.2-9.71-11.76-12.14-18.92-.51-1.51-.95-3.07-.94-4.67,.01-1.59,.53-3.24,1.69-4.34,.96,1.02,2.29,2.04,3.12,3.12,.69,.89,.92,2.11,1.62,3.07,.72,.99,1.66,1.82,2.74,2.4,.24,.13,3.26,1.22,3.27,.91Z"/>
          <path d="M335.4,63.39c3.53,.02,6.93,2.35,8.21,5.64,1.51-2.32,1.45-5.29,1.34-8.06-.16-3.87-.33-7.8-1.46-11.51-1.13-3.71-3.35-7.24-6.73-9.14-1.45-.82-3.12-1.34-4.29-2.52-.79-.79-1.29-1.82-1.86-2.77-.74-1.24-1.64-2.38-2.65-3.4-3.08-.2-6.23,.74-8.68,2.62-.35,.27-.72,.64-.65,1.07,.06,.41,.49,.66,.87,.82,3.99,1.7,8.79,1.42,12.36,3.89,3.73,2.58,5.06,8.09,2.91,12.09-.43,.8-1,1.56-1.77,2.04-1.12,.69-2.56,.71-3.81,.32-1.25-.4-2.35-1.17-3.37-2-2.1-1.72-3.94-3.74-5.45-5.99-1.34-1.99-2.64-4.33-4.94-4.99-.4-.11-.85-.17-1.22,.03-.1,.05-.19,.12-.27,.2,.54-.03,1.06,.26,1.51,.57,5.37,3.68,7.29,10.54,10.36,16.29,1.13,2.11,2.67,4.29,5,4.84,1.5,.36,3.08-.04,4.62-.03Z"/>
          <path d="M298.14,64.59c-.94,.48-1.89,.96-2.73,1.59-2.43,1.82-3.82,4.82-4.13,7.85,2.63-2.03,6.16-2.99,8.1-5.69,.55-.76,1.9-2.94,1.7-3.93-.27-1.36-2.06-.26-2.94,.19Z"/>
          <path d="M306.21,71.99c-.94,.48-1.89,.96-2.73,1.59-2.43,1.82-3.82,4.82-4.13,7.85,2.63-2.03,6.16-2.99,8.1-5.69,.55-.76,1.9-2.94,1.7-3.93-.27-1.36-2.06-.26-2.94,.19Z"/>
        </g>
        <g>
          <path d="M44.31,143.45c0,6.93-5.34,13.15-4.84,20.06,10.72,5.56,24.68,4.12,34.04-3.51,4-3.26,7.25-7.7,8.14-12.78,.9-5.08-.91-10.79-5.16-13.71-2.03-1.39-4.45-2.09-6.62-3.25-2.17-1.16-4.23-3.02-4.53-5.46-.11-.91,.03-1.84,.09-2.75,.37-5.61-2.62-11.3-7.44-14.19-1.27-.76,8.75-7.98,7.75-9.08-2.74-3.01-12.43-1.29-9.91-4.49-1.39-.97-3.27-.06-4.67,.88-10.36,6.91-27.23,18.48-32.51,30.15-2.92,6.45,11.11,4.08,15.12,5.14,5.95,1.56,10.53,6.67,10.54,13Z"/>
          <path d="M55.83,94.28c-1.39-.97-3.27-.06-4.67,.88-7.77,5.19-17.4,12.59-23.95,20.9,.35,2.37,1.44,4.79,3.17,5.88,1.58,1,3.98,.87,5.75,1.48,2.22,.77,4.3,1.93,6.1,3.44-.54-2.88-.67-5.83-.39-8.75,1.08,1.73,2.39,3.32,3.88,4.71,.38,.35,.79,.71,1.29,.81,1.35,.27,2.29-1.32,2.62-2.66,.33-1.34,.74-2.98,2.07-3.33,1.49,2.94,4.19,5.25,7.33,6.28,0-2.08-.13-4.17-.42-6.23,.78,3.29,1.56,6.59,2.35,9.88,.19,.79,.38,1.6,.29,2.41-.1,.85-.49,1.62-.83,2.4-.92,2.07-1.52,4.28-1.78,6.53-.07,.6-.1,1.27,.24,1.77,.25,.37,.67,.58,1.06,.78,6.76,3.43,13.52,6.85,20.28,10.28,.62-1.32,1.1-2.7,1.39-4.13,.03-1.7,.07-3.41,.15-5.11-.51-3.58-2.28-6.96-5.24-8.99-2.03-1.39-4.45-2.09-6.62-3.25-2.17-1.16-4.23-3.02-4.53-5.46-.11-.91,.03-1.84,.09-2.75,.37-5.61-2.62-11.3-7.44-14.19-1.27-.76,8.75-7.98,7.75-9.08-2.74-3.01-12.43-1.29-9.91-4.49Z"/>
          <path d="M98.56,192.88c1.96,2.27,3.95,4.64,4.9,7.5,.95,2.83,.82,6.01,2.19,8.66,2.67,5.18,10.75,5.93,14.94,1.88,4.19-4.05,4.22-11.29,.79-16,4.9,1.63,10.93-.05,13.67-4.43,2.73-4.38,1.15-11.1-3.57-13.2-5.4-2.41-11.67,1.48-17.51,.52-3.15-.52-5.88-2.4-8.38-4.39-4.53-3.6-8.68-7.69-12.34-12.18-1.39-1.7-3.48-3.66-5.44-2.67-.52,.26-.92,.71-1.31,1.14-3.27,3.65-6.55,7.29-9.82,10.94,1.25-1.39,20.12,20.18,21.89,22.23Z"/>
          <path d="M113.96,177.82c-3.15-.52-5.88-2.4-8.38-4.39-4.53-3.6-8.68-7.69-12.34-12.18-1.39-1.7-3.48-3.66-5.44-2.67-.52,.26-.92,.71-1.31,1.14-3.27,3.65-6.55,7.29-9.82,10.94,.32-.35,1.78,.78,3.81,2.7,.85-.34,1.67-.73,2.46-1.14,3.2-1.66,6.49-3.68,10.09-3.5,4.39,.22,7.86,3.61,11,6.68,3.14,3.07,6.94,6.24,11.32,5.88,2.18-.18,4.2-1.25,6.38-1.46s4.82,.92,4.99,3.1c.07,.86-.27,1.71-.7,2.46-2.04,3.6-6.33,5.79-10.45,5.33,2.76,2.5,2.12,6.93,1.08,10.51-.94,3.21-2.17,6.58-4.86,8.55-1.32,.97-3.09,1.39-4.71,1.22,3.45,3.35,9.9,3.41,13.5-.06,4.19-4.05,4.22-11.29,.79-16,4.9,1.63,10.93-.05,13.67-4.43,2.73-4.38,1.15-11.1-3.57-13.2-5.4-2.41-11.67,1.48-17.51,.52Z"/>
          <path d="M48.03,168.21c4.67,2.03,9.51,3.86,14.57,4.49,6.72,.83,13.71-.55,19.54-3.99,5.83-3.44,10.43-8.95,12.66-15.34,.68-1.94,1.14-3.99,.97-6.04-.14-1.68-.7-3.29-1.38-4.83-1.14-2.58-2.69-5.07-4.98-6.74-4.1-2.99-9.64-2.76-14.71-2.4,1.28,2.27,2.25,4.71,2.88,7.24-1.57-.41-3.22-.83-4.81-.51-2.7,.54-4.54,2.98-6.11,5.25-.46,.67-.93,1.35-1.12,2.14-.15,.62-.12,1.27-.08,1.91,.12,2.29,.25,4.59,.37,6.88-4.26-2.21-7.85-5.67-10.24-9.84-1.71,4.81-3.68,9.53-5.9,14.14,.1-2.34-.41-4.71-1.45-6.81-1.31,1.54-2.61,3.08-3.92,4.63-.97,1.14-3.27,2.98-3.52,4.5-.49,3.04,5.15,4.42,7.23,5.33Z"/>
          <path d="M10.76,116.95c-3.65-5.39-7.24-11.2-7.71-17.69-.44-6.15,2.09-12.32,6.27-16.85,4.18-4.52,9.9-7.47,15.9-8.91,6.74-1.62,14.2-1.31,20.13,2.26,2.77,1.67,5.1,3.96,7.31,6.32,4.83,5.17,9.22,10.76,13.08,16.69-5.03-1.99-10.78-2.12-15.9-.36-.26,5.63,.08,11.28,1.01,16.84-2.87-2.43-6.6-3.83-10.37-3.88-.24,0-.52,0-.69,.18-.2,.2-.18,.52-.15,.8,.17,1.44,.33,2.89,.5,4.33-1.02-1.3-2.78-1.98-4.42-1.7-.26,.04-.54,.13-.68,.35-.13,.21-.11,.47-.08,.72,.24,1.87,.48,3.75,.71,5.62-3.19-.23-6.44,.5-9.22,2.06,1.98,.87,3.88,1.91,5.68,3.1-3.71,.11-12.49,2.1-12.49,2.1-4.06-2.39-6.33-8.18-8.9-11.98Z"/>
          <path d="M17.44,120.51c-.52-1.01-1.05-2.02-1.57-3.03-.1-.19-.36-.24-.54-.14-.19,.11-.24,.35-.14,.54,.52,1.01,1.05,2.02,1.57,3.03,.1,.19,.36,.24,.54,.14,.19-.11,.24-.35,.14-.54h0Z"/>
          <path d="M21.94,118.82c-1.17-1.37-2.13-2.9-2.86-4.55-.09-.19-.37-.24-.54-.14-.2,.12-.23,.34-.14,.54,.76,1.71,1.77,3.29,2.99,4.71,.14,.16,.41,.14,.56,0,.16-.16,.14-.39,0-.56h0Z"/>
          <path d="M16.1,113c-1.41-2.48-2.59-5.09-3.53-7.79-.07-.2-.27-.33-.48-.27-.19,.05-.34,.28-.27,.48,.96,2.76,2.17,5.43,3.61,7.97,.25,.44,.93,.04,.68-.4h0Z"/>
          <path d="M9.67,107c-.08-.08-.16-.16-.23-.24-.04-.04-.08-.09-.11-.13-.02-.02-.03-.04-.05-.06-.01-.02-.04-.05-.01-.01-.14-.18-.26-.37-.37-.57-.05-.1-.1-.2-.15-.3,0-.02-.02-.05,0-.01-.01-.02-.02-.05-.03-.07-.02-.05-.04-.11-.06-.16-.07-.21-.13-.43-.17-.66-.04-.2-.29-.34-.48-.27-.22,.07-.31,.27-.27,.48,.18,.97,.68,1.88,1.39,2.57,.15,.14,.41,.16,.56,0,.14-.15,.16-.4,0-.56h0Z"/>
          <path d="M18.79,106.85c-.18-.78-.48-1.53-.89-2.22-.11-.18-.36-.26-.54-.14-.18,.11-.25,.35-.14,.54,.1,.16,.19,.33,.28,.5,.04,.08,.08,.16,.11,.24,0,.01,.06,.15,.04,.08,.02,.04,.03,.08,.05,.12,.14,.35,.25,.71,.33,1.08,.05,.2,.29,.34,.48,.27,.21-.07,.32-.27,.27-.48h0Z"/>
          <path d="M30.14,113.4c-1.27-2.07-2.54-4.15-3.8-6.22-.26-.43-.94-.04-.68,.4,1.27,2.07,2.54,4.15,3.8,6.22,.26,.43,.94,.04,.68-.4h0Z"/>
          <path d="M11.04,97.93c-.05-1.08-.1-2.17-.15-3.25,0-.21-.17-.39-.39-.39-.21,0-.4,.18-.39,.39,.05,1.08,.1,2.17,.15,3.25,0,.21,.17,.39,.39,.39,.21,0,.4-.18,.39-.39h0Z"/>
          <path d="M7.28,94.22c.06-1.4,.45-2.77,1.15-3.98,.25-.44-.43-.84-.68-.4-.76,1.34-1.19,2.84-1.25,4.38-.02,.51,.77,.51,.79,0h0Z"/>
          <path d="M49.71,163.43c2.34,1.39,4.79,2.59,7.33,3.57,.72,.28,1.45,.54,2.19,.78,.48,.16,.69-.6,.21-.76-2.53-.84-4.99-1.89-7.34-3.14-.67-.36-1.34-.73-1.99-1.13-.44-.26-.83,.42-.4,.68h0Z"/>
          <path d="M56.23,157.91c.67,.77,1.47,1.43,2.36,1.94,.18,.1,.44,.05,.54-.14,.1-.19,.05-.43-.14-.54-.21-.12-.41-.25-.61-.38-.1-.07-.2-.14-.3-.22,0,0-.08-.06-.05-.04,.02,.02-.03-.03-.04-.03-.05-.04-.1-.08-.15-.12-.38-.31-.73-.66-1.05-1.03-.14-.16-.42-.15-.56,0-.15,.17-.14,.39,0,.56h0Z"/>
          <path d="M66.21,167.01c1.81,.52,3.65,.95,5.5,1.28,.21,.04,.42-.06,.48-.27,.05-.19-.06-.45-.27-.48-1.86-.33-3.69-.76-5.5-1.28-.49-.14-.7,.62-.21,.76h0Z"/>
          <path d="M43.64,163.43c.41,1.27,1.69,2.18,3.03,2.11,.21-.01,.39-.17,.39-.39,0-.2-.18-.4-.39-.39-.14,0-.28,0-.42-.01,.06,0,0,0-.03,0-.03,0-.06-.01-.09-.02-.07-.01-.14-.03-.2-.05-.07-.02-.13-.04-.2-.07,0,0-.1-.04-.06-.02,.04,.02-.05-.02-.06-.03-.13-.06-.25-.13-.36-.21-.03-.02-.05-.04-.08-.05-.02-.01-.07-.05-.03-.02-.05-.04-.11-.09-.16-.14-.1-.09-.19-.19-.27-.29,.04,.06-.03-.04-.03-.04-.02-.03-.04-.05-.05-.08-.04-.06-.07-.12-.11-.18-.03-.06-.06-.11-.08-.17,.03,.07-.02-.04-.02-.05-.01-.04-.02-.07-.04-.11-.06-.2-.27-.33-.48-.27-.2,.05-.34,.28-.27,.48h0Z"/>
          <path d="M55.62,162.89c.71,.41,1.42,.81,2.14,1.22,.18,.1,.44,.05,.54-.14,.1-.19,.05-.43-.14-.54-.71-.41-1.42-.81-2.14-1.22-.18-.1-.44-.05-.54,.14-.1,.19-.05,.43,.14,.54h0Z"/>
          <path d="M62.17,169.13c.55,.21,1.1,.43,1.65,.64,.19,.07,.44-.08,.48-.27,.05-.23-.07-.4-.27-.48-.55-.21-1.1-.43-1.65-.64-.19-.07-.44,.08-.48,.27-.05,.23,.07,.4,.27,.48h0Z"/>
          <path d="M17.3,88.26c1.84-1.93,3.81-3.74,5.88-5.42,.16-.13,.14-.42,0-.56-.16-.16-.39-.13-.56,0-2.07,1.68-4.03,3.49-5.88,5.42-.35,.37,.21,.92,.56,.56h0Z"/>
          <path d="M12.12,85.24c.9-1.06,1.8-2.12,2.71-3.19,.14-.16,.16-.4,0-.56-.14-.14-.42-.16-.56,0-.9,1.06-1.8,2.12-2.71,3.19-.14,.16-.16,.4,0,.56,.14,.14,.42,.16,.56,0h0Z"/>
          <path d="M18.95,96.41c-.73-1.24-1.46-2.49-2.19-3.73-.26-.44-.94-.04-.68,.4,.73,1.24,1.46,2.49,2.19,3.73,.26,.44,.94,.04,.68-.4h0Z"/>
          <path d="M28.6,99.59c-.62-.83-1.35-1.56-2.18-2.17-.17-.12-.45-.03-.54,.14-.11,.2-.04,.41,.14,.54,.05,.04,.1,.07,.14,.11,.06,.04-.01-.01,.02,.01,.02,.02,.05,.04,.07,.06,.09,.07,.18,.15,.27,.23,.18,.15,.35,.31,.51,.47,.16,.16,.32,.33,.48,.51,.08,.09,.15,.18,.23,.27,.03,.04,.07,.08,.1,.13,.03,.03-.03-.04,.01,.02,.02,.03,.04,.06,.06,.09,.12,.16,.35,.27,.54,.14,.16-.1,.27-.36,.14-.54h0Z"/>
          <path d="M43.62,97.42c-.17-.34-.35-.67-.52-1.01-.1-.18-.37-.25-.54-.14-.19,.12-.24,.34-.14,.54,.17,.34,.35,.67,.52,1.01,.1,.18,.37,.25,.54,.14,.19-.12,.24-.34,.14-.54h0Z"/>
          <path d="M80.04,144.15c.76,1.04,1.44,2.14,2.03,3.3,.1,.19,.36,.24,.54,.14,.19-.11,.24-.35,.14-.54-.58-1.15-1.26-2.25-2.03-3.3-.13-.17-.34-.26-.54-.14-.17,.1-.27,.37-.14,.54h0Z"/>
        </g>
        <g>
          <path d="M201,181.27c.01-3.36,.03-6.73,.04-10.09,3.06-.61,6.12-1.21,9.18-1.82-.3-4.82-.61-9.63-.91-14.45,3.5,2.78,7.99,4.29,12.47,4.2-.07-3.02-.15-6.05-.22-9.07,1.52-.48,3.04-.97,4.56-1.45-2.79-2.9-5.58-5.8-8.36-8.7-.81-.85-1.64-1.7-2.62-2.35-1.15-.75-2.47-1.19-3.81-1.52-3.66-.91-7.47-1.08-11.24-.92-10.18,.42-20.69,3.47-27.87,10.71-1.69,1.71-3.2,3.66-4.03,5.91-1.22,3.3-.9,7.02,.33,10.32,1.22,3.3,3.29,6.21,5.54,8.91,3.65,4.37,7.84,8.16,12.4,11.56,2.03,1.52,3.06,2.4,5.61,1.68,3.01-.85,5.92-2.1,8.95-2.93Z"/>
          <path d="M210.16,171.9c1.64,.64,3.28,1.29,4.92,1.93,3.75-4.01,7.57-7.95,11.47-11.82,.34-.33,.71-.69,1.18-.75,.34-.04,.69,.08,1.01,.19,4.11,1.49,8.21,2.97,12.32,4.46,.48,.17,.97,.35,1.48,.28,.54-.07,.99-.4,1.43-.72,4.41-3.19,9.12-5.97,14.06-8.29,1.17,3.4,2.46,6.75,3.85,10.06,1.06-.37,1.95-1.19,2.42-2.21,1.32,5.28,2.27,10.73,1.76,16.15-.51,5.42-2.6,10.84-6.59,14.54-5.32,4.93-13.05,6.1-20.28,6.64-3.88,.29-7.82,.46-11.62-.35-3.8-.81-7.5-2.73-9.76-5.89-2.6-3.65-3.34-8.1-6.2-11.61-1.24-1.52-1.58-2.42-1.65-4.46-.03-.78,.48-8.06,.21-8.16Z"/>
          <path d="M157,159.89c-1.54-4.8-2.58-10.03-1.11-14.85,2.23-7.36,9.71-11.9,17.1-14.05,14.48-4.2,30.78-1.55,43.18,7.03-2.88,.22-5.76,.44-8.64,.66,1.68,3.12,3.72,6.04,6.05,8.71-10.9,2.27-21.68,5.12-32.29,8.52,4.19,6.35,7.8,13.09,10.76,20.1-2.71-.45-5.46-.7-8.22-.75,1.56,3.51,3.44,6.88,5.61,10.04-.55-.8-4.36-1.35-5.36-1.68-1.92-.64-3.84-1.32-5.74-2.03-3.43-1.29-5.86-3.79-8.91-5.85-5.71-3.86-10.41-9.48-12.44-15.84Z"/>
          <path d="M172.48,162.65c-6.78-1.29-13.26-4.97-17.3-10.48,.25,2.61,.91,5.22,1.71,7.71,2.03,6.35,6.73,11.98,12.44,15.84,3.05,2.06,5.47,4.56,8.91,5.85,1.9,.71,3.81,1.39,5.74,2.03,1,.33,4.81,.89,5.36,1.68-2.17-3.17-4.06-6.53-5.61-10.04,2.75,.05,5.5,.3,8.22,.75-1.92-4.55-4.11-8.98-6.56-13.26-4.28,.67-8.64,.72-12.89-.09Z"/>
          <path d="M220.65,203.06c5.65,5.24,13.22,8.36,20.93,8.63,3.02,.11,6.08-.22,8.93-1.23,6.69-2.37,11.63-8.41,14.04-15.09,2.41-6.68,2.56-13.97,1.99-21.04-2.71,3.04-5.41,6.08-8.12,9.12-2.21-4.61-4.76-9.05-7.62-13.28-2.45,3.77-5.19,7.36-8.18,10.72-1.2-1.58-2.86-2.8-4.72-3.48-.4,1.32-.58,2.7-.53,4.08-4.8-1.92-9.6-3.85-14.4-5.77-1.15,5.85-2.53,11.65-4.15,17.38-3.76-5-3.72-12.5,.09-17.46-.7,.91-3.28,1.66-4.32,2.28-1.33,.8-3.35,1.75-4.34,2.97-1.65,2.05,.28,4.05,.99,6.24,1.98,6.09,4.64,11.49,9.42,15.92Z"/>
          <path d="M258.41,183.45c-1.56-3.26-3.3-6.44-5.2-9.52,.5,3.13,.59,6.26-.08,9.38-.92,4.29-3.25,8.18-6.16,11.45-4.35,4.89-10.27,8.61-16.78,9.34-3.4,.38-6.94-.16-10.07-1.54,.17,.17,.34,.33,.52,.5,5.65,5.24,13.22,8.36,20.93,8.63,3.02,.11,6.08-.22,8.93-1.23,6.69-2.37,11.63-8.41,14.04-15.09,2.41-6.68,2.56-13.97,1.99-21.04-2.71,3.04-5.41,6.08-8.12,9.12Z"/>
          <path class="cls-13" d="M183.59,136.45c1.6-.05,3.31,.24,4.73-.51,.66-.35,1.25-1.09,.99-1.79-.17-.47-.66-.74-1.13-.92-2.58-.99-5.46-.57-8.16,.03-1.99,.44-18.17,4.16-13.98,8.47,1.99,2.05,7.01-1.32,8.86-2.27,2.73-1.41,5.55-2.9,8.69-3Z"/>
        </g>
        <g>
          <path d="M380.29,28.48c.12,3.2,1.36,6.24,2.41,9.27,2.33,6.7,3.81,13.68,4.81,20.71-.91-1.46-3.23-1.41-4.52-.27-1.28,1.14-1.71,2.97-1.78,4.68-.07,1.72,.15,3.45-.15,5.14-.52,3-2.59,5.52-3.3,8.48-1.31,5.49,2.25,11.41,.5,16.78-.14,.43-.35,.89-.75,1.1-.39,.2-.86,.12-1.31,.1-3.57-.16-5.7,3.83-6.94,7.18-1.99,5.38-3.98,10.76-5.96,16.13,5.62,1.48,11.72-.74,16.13-4.52,4.41-3.78,7.39-8.95,9.95-14.16,5.14-10.45,8.99-21.54,11.41-32.93,2.81-13.21,3.4-28.06-4.34-39.14-4.55-6.51-16.61-10.48-16.17,1.42Z"/>
          <path d="M421.8,36.06c-4.78-13.44-14.5-25.49-27.24-31.6-1.49,1.14-2.79,2.53-4.2,3.77-.11,.1-.22,.19-.33,.29,19.4,20.27,26.64,51.57,17.75,78.24-2.54,7.63-6.32,14.91-11.58,20.99-6.65,7.68-15.41,13.19-24.1,18.46-24.56,14.88-50.83,29.13-79.5,30.88-5.61,.34-11.4,.12-16.79-1.56-.74-.23-1.44-.5-2.12-.8-.42,1.91-.89,3.83-1.01,5.78-.05,.74-.09,1.56-.27,2.32,9.45,5.72,40.87,6.85,69.14,.24,15.96-3.73,30.84-10.57,44.1-20.22,13.25-9.65,24.57-22.27,31.3-37.22,2.9-6.45,4.92-13.26,6.42-20.17,3.53-16.31,4.04-33.67-1.55-49.39Z"/>
          <path d="M415.35,33.57c-4.77-11.12-13.22-20.87-24.01-26.24-.32,.3-.65,.6-.98,.89-.14,.13-.29,.25-.43,.38,15.5,19.67,18.22,48.78,6.19,70.83-3.85,7.06-6.45,16.38-11.86,22.33-7.38,8.1-17.92,12.67-26.93,18.89-10.99,7.59-23.31,13-35.55,18.36-13.08,5.73-30.83,14.8-45.61,12.1-.35-.06-.92-.22-1.61-.42-.26,1.14-.51,2.28-.76,3.42-.25,1.16-.53,2.34-.75,3.51,4.95,1.94,11.6,2.95,14.92,3.64,15.49,3.21,31.64,1.77,47.05-1.8,14.37-3.32,28.41-8.53,40.77-16.58,23.69-15.43,40.18-41.45,44.04-69.46,1.85-13.41,.85-27.42-4.48-39.87Z"/>
          <path d="M390.39,8.21s-.02,.01-.02,.02c-.82,.72-1.69,1.48-2.65,2.07,.84,10.87,5.32,21.28,7.81,31.98,4.48,19.31,1.98,40.84-9.79,56.79-7.58,10.27-18.42,17.65-29.6,23.8-23.25,12.8-48.94,21.15-75.28,24.47-1.07,.13-3.45,.19-5.61,.49-.44,1.82-.86,3.64-1.25,5.47,4,2.22,10.49,2.68,14.53,3.19,11.66,1.47,23.52,.51,35.07-1.4,23.43-3.86,48.46-12.6,64.84-29.78,29.84-31.31,26.5-47.62,27.15-67.72,.61-18.99-9.53-38.54-25.19-49.38Z"/>
          <path d="M293.06,152.07c17.36-1.48,34.91-2.99,51.46-8.44,16.63-5.48,32.03-15.01,43.72-28.05,11.69-13.04,19.54-29.65,21.35-47.07,1.22-11.74-.29-23.75-4.38-34.82-3.52-9.53-9.34-18.74-18.28-23.57,1.21,4.91-4.6,9.05-4.6,14.11,0,2.52,1.45,4.77,2.67,6.97,4.05,7.31,5.99,15.77,5.56,24.11-2.68,1.13-5.36,2.25-8.04,3.38,1.93,3.08,2.6,6.76,3.24,10.34,.87,4.93,1.67,10.35-.89,14.65-3.35,5.62-11.53,7.67-13.4,13.94-.94,3.15,.21,6.82,2.79,8.88-.31,2.95-3.92,4.22-6.88,4.34-2.96,.11-6.35-.12-8.41,2.01-1.6,1.65-1.86,4.26-3.47,5.9-2.78,2.82-7.66,1.24-11.3,2.77-2.7,1.13-4.37,3.8-6.59,5.71-4.46,3.83-10.79,4.34-16.28,6.44-4.11,1.57-7.84,4.07-12.05,5.33-4.21,1.26-13.55,2.31-15.9,2.98-2.35,.68-4.94,.45-7.15,1.48-1.12,.52-2.12,1.36-3.34,1.6-1.37,.27-2.79-.28-4.18-.15-3.99,.37-3.64,4.69-3.64,4.69,4.19,2.03,13.55,2.85,18,2.47Z"/>
          <path d="M313.67,140.26c-.6,2.35,.15,4.99,1.9,6.67,.81,.78,2.09,1.35,3.02,.73,.57-.39,.81-1.11,.87-1.8,.13-1.62-.63-3.29-1.93-4.26-1.31-.97-3.12-1.22-4.64-.63l.79-.71Z"/>
          <path d="M367.68,123.62c1.04,.61,2.35,.87,3.47,.41,.1-1.53-.59-3.03-1.57-4.22-1.14-1.38-4.86-5.41-6-2.61-.87,2.13,2.57,5.51,4.1,6.42Z"/>
          <path d="M390.66,95.29c1.2-.11,2.41-.67,3.05-1.69-.81-1.3-2.25-2.12-3.73-2.51-1.73-.46-7.1-1.56-6.4,1.38,.54,2.24,5.31,2.98,7.07,2.82Z"/>
          <path d="M400.85,82.89c1.2-.11,2.41-.67,3.05-1.69-.81-1.3-2.25-2.12-3.73-2.51-1.73-.46-7.1-1.56-6.4,1.38,.54,2.24,5.31,2.98,7.07,2.82Z"/>
          <path d="M400.49,41.35c1.06-.58,1.94-1.59,2.11-2.78-1.27-.86-2.91-1.03-4.43-.79-1.77,.28-7.13,1.44-5.29,3.85,1.39,1.83,6.06,.58,7.61-.28Z"/>
        </g>
        <g>
          <path d="M361.13,198.94c-9.74-.5-19.56-.01-29.31,.47-9.21,.46-19.07,1.05-26.11,4.27-5.67,2.59-8.92,6.66-15.5,8.54-6.47,1.85-15.49,1.37-19.95,4.49-3.16,2.21-2.58,5.35-4.44,7.95-3.91,5.47-17.69,7.68-20.64,13.32-2.04,3.9,2.3,8.17,8.66,10.35,6.35,2.19,14.24,2.66,21.78,2.56,10.67-.14,21.22-1.3,31.88-1.46,18.68-.27,36.97,2.53,55.39,4.22,18.42,1.68,38.28,2.13,54.87-2.48,3.34-.93,6.56-2.08,8.8-3.71,2.44-1.76,3.56-3.94,4.36-6.1,1.31-3.57,1.8-7.43-1.2-10.69-3.33-3.62-10.23-5.79-16.02-8.35-9.76-4.32-16.88-10.08-23.33-15.85-6.01-5.38-18.08-6.97-29.26-7.54Z"/>
          <g>
            <path d="M353.78,196.52c2.37,2.01,4.76,4.02,7.39,5.68,2.03,1.28,4.2,2.33,6.17,3.7,7.98,5.55,11.73,15.44,18.8,22.11,1.09,1.03,2.37,2.03,3.87,2.14,2.19-5.11,.52-11.03-1.82-16.07-3.36-7.25-8.19-13.98-14.76-18.53-4.42-3.06-9.66-5.04-15.04-5.41-1.76-.12-5.5-.56-6.89,.85-1.86,1.89,.87,4.35,2.28,5.54Z"/>
            <path d="M402.71,189.27c-6.11,5.32-15.44,6.62-22.77,3.16-1.73-.82-3.51-2.12-3.73-4.02-.21-1.8,1.07-3.41,2.4-4.64,4.76-4.42,10.98-6.9,17.19-8.82,3.22-1,19.48-7.43,20.22-.5,.26,2.43-4.76,5.18-6.32,6.93-2.33,2.63-4.32,5.56-6.99,7.88Z"/>
            <path d="M390.02,230.01c6.55-4.5,11.57-11,15.06-18.14,3.49-7.14,5.5-14.92,6.76-22.76,.67-4.14,1.16-8.39,2.94-12.18-8.89,1.21-17,5.72-24.3,10.93,7.02-7.6,16.49-12.9,26.65-14.91-1.16-2.39-3.54-4.01-6.07-4.78-2.54-.77-5.24-.78-7.89-.66-9.95,.48-19.78,2.9-28.86,6.98-4.51,2.02-8.83,4.45-12.9,7.25-2.72,1.87-10.24,6.14-10.43,9.77,15.21,2.11,28.27,12.19,35.05,26.06,.61,1.26,5.27,11.57,4.01,12.44Z"/>
            <path d="M374.04,179.23c-1.33,.17-2.71,.36-3.8,1.13-1.09,.77-1.76,2.31-1.11,3.48,.56,1,1.82,1.36,2.96,1.42,1.74,.1,3.5-.28,5.05-1.07,1.03-.53,2.08-1.59,1.68-2.67-.2-.52-.69-.86-1.18-1.12-1.23-.63-2.66-.86-4.03-.67l.44-.5Z"/>
            <path d="M333.15,225.4c-16.34,6.41-33.93,9.27-51.48,9.63-14.84,.3-29.67-1.15-44.51-1.42-12.07-.22-24.15,.34-36.14,1.67,32.05-1.58,64.13,3.17,96.21,2.36,8.59-.22,17.2-.83,25.64-2.44,15.85-3.01,31.02-9.54,44.1-18.98,6.32-4.56,12.48-10.3,14.25-17.89,.17-.74,.3-1.52,.15-2.27-.82-3.93-4.77-1.8-6.19-.04-2.55,3.17-5.41,6.08-8.43,8.82-6.21,5.63-13.14,10.46-20.5,14.46-4.23,2.3-8.62,4.34-13.1,6.1Z"/>
            <path d="M360.15,217.97c7.11,9.73,8.08,23.58,2.39,34.2,1.79-5.02,1.94-10.53,1.05-15.78-.78-4.6-2.37-9.12-5.09-12.91-4.2-5.85-10.81-9.59-17.71-11.63-6.9-2.04-14.15-2.54-21.32-3.03,3.12,.21,17.26-1.51,20.83-1.14,10.68,1.12,15.25,3.98,19.86,10.29Z"/>
            <path d="M322.16,227.27c2.72,4.24,3.52,9.77,1.68,14.46-.91,2.32-2.4,4.37-4.01,6.27-2.91,3.46-6.83,6.78-11.34,6.48,2.44,1.04,5.17-.37,7.45-1.73,2.87-1.72,5.8-3.48,7.95-6.05,3.32-3.95,4.4-9.35,4.3-14.5-.04-1.79-.22-3.64-1.07-5.21-1.03-1.91-2.9-3.19-4.74-4.33-2.82-1.76-5.77-3.39-8.97-4.3-3.14-.9-6.63-1.08-9.74,.08,3.6,.22,6.33-.04,9.8,1.52,3.49,1.58,6.6,4.07,8.68,7.31Z"/>
            <path d="M285.97,223.77c2.56,.64,5.15,1.65,6.91,3.62,2.84,3.17,2.79,8.27,.58,11.91-2.21,3.64-6.18,5.94-10.3,7.03-4.12,1.09-8.43,1.11-12.69,1.13,4.28-.5,8.48-1.72,12.36-3.6,4.23-2.06,8.43-5.49,8.84-10.17,.09-1.09-.04-2.22-.54-3.2-.46-.9-1.2-1.61-1.98-2.25-4.12-3.38-9.64-4.99-14.93-4.36,4.34-.52,7.38-1.2,11.75-.11Z"/>
            <path d="M256.29,227.23c1.65,.33,3.33,.67,4.81,1.46,1.49,.79,2.78,2.11,3.12,3.76,.38,1.82-.46,3.7-1.6,5.17-2.75,3.54-7.21,5.4-11.66,5.94-4.45,.54-8.94-.1-13.37-.74,4.39,.71,8.84-.55,13.1-1.81,2.57-.75,5.27-1.59,7.05-3.6,1.14-1.28,1.79-3.1,1.34-4.75-.77-2.83-4.16-3.93-7.06-4.38-3.01-.46-6.05-.72-9.09-.75,4.76-1.21,8.59-1.25,13.35-.3Z"/>
            <path d="M161.57,235.46c10.31,2.72,20.77,4.84,31.32,6.37-5.13,8.75-14.03,14.53-22.82,19.58,10.4,.65,21.18,1.25,30.88-2.57,4.41-1.74,8.43-4.33,12.39-6.95,5.01-3.31,10.18-6.84,13.63-11.86,1.26-1.84,3.5-4.78,.97-6.25-2.21-1.28-5.65-1.95-8.13-2.74-12.21-3.91-25.4-4.69-38.01-2.36-3.51,.65-6.97,1.54-10.36,2.66-1.75,.59-3.49,1.23-5.19,1.95-.84,.35-3.9,2.36-4.68,2.16Z"/>
            <path d="M169.55,235c3.28-.6,6.6-1,9.92-1.22,3.31-.23,6.63-.29,9.95-.24,3.35,.06,6.7,.24,10.03,.51,3.33,.27,6.66,.62,9.98,1.01,3.33,.4,6.66,.84,9.99,1.29,.41,.06,.83,.11,1.24,.17,.21,.03,.42-.05,.48-.27,.05-.18-.06-.46-.27-.48-3.35-.45-6.69-.9-10.04-1.32-3.35-.41-6.71-.78-10.08-1.07-3.36-.29-6.72-.5-10.09-.59-3.37-.09-6.74-.06-10.11,.14-3.35,.2-6.69,.55-9.99,1.11-.41,.07-.82,.14-1.23,.22-.5,.09-.29,.85,.21,.76h0Z"/>
            <path d="M175.77,260.63c3.42-.48,6.81-1.19,10.13-2.14,3.32-.94,6.57-2.12,9.74-3.49,3.16-1.37,6.22-2.96,9.17-4.74,2.96-1.79,5.8-3.78,8.5-5.95,2.69-2.16,5.23-4.51,7.6-7.03,.29-.31,.57-.61,.85-.92,.34-.37-.21-.93-.56-.56-2.31,2.54-4.79,4.91-7.43,7.11-2.63,2.19-5.4,4.2-8.3,6.01-2.91,1.82-5.93,3.45-9.05,4.87-3.11,1.42-6.32,2.62-9.6,3.61-3.28,.99-6.63,1.75-10.02,2.28-.41,.06-.83,.13-1.24,.18-.21,.03-.33,.3-.27,.48,.06,.23,.27,.3,.48,.27h0Z"/>
            <path d="M185.76,253.7c4.4-2.3,8.82-4.58,13.25-6.82,4.41-2.23,8.83-4.44,13.27-6.62,2.51-1.23,5.02-2.45,7.54-3.67,.19-.09,.24-.37,.14-.54-.11-.2-.35-.23-.54-.14-4.48,2.16-8.94,4.34-13.38,6.56-4.42,2.2-8.84,4.43-13.23,6.69-2.49,1.28-4.97,2.56-7.44,3.86-.45,.23-.05,.91,.4,.68h0Z"/>
            <path d="M182.76,236.55c.51,0,.51-.79,0-.79s-.51,.79,0,.79h0Z"/>
            <path d="M182.74,236.47c4,.33,8,.66,12,.9,4,.24,8.01,.38,12.01,.32,2.26-.03,4.52-.12,6.78-.29,.21-.02,.39-.17,.39-.39,0-.2-.18-.41-.39-.39-3.99,.3-8,.35-12.01,.25-4.01-.1-8.01-.34-12.01-.64-2.26-.17-4.52-.36-6.78-.54-.21-.02-.39,.19-.39,.39,0,.23,.18,.38,.39,.39h0Z"/>
            <path d="M191.19,230.18c.51,0,.51-.79,0-.79s-.51,.79,0,.79h0Z"/>
            <path d="M191.21,230.1c4.54,.37,9.09,.73,13.63,1.1,4.28,.35,8.57,.74,12.8,1.55,2.38,.45,4.73,1.04,7.02,1.81,.48,.16,.69-.6,.21-.76-4.11-1.38-8.4-2.16-12.7-2.68-4.4-.53-8.82-.83-13.24-1.19-2.57-.21-5.15-.41-7.72-.62-.21-.02-.39,.19-.39,.39,0,.23,.18,.38,.39,.39h0Z"/>
            <path d="M198.12,257.84c1.98-1.1,3.97-2.21,5.93-3.35,1.97-1.14,3.92-2.31,5.84-3.54,1.9-1.22,3.77-2.51,5.57-3.88,1.79-1.36,3.52-2.8,5.15-4.34,1.63-1.54,3.16-3.19,4.56-4.95,.18-.23,.36-.46,.54-.7,.13-.17,.03-.44-.14-.54-.2-.12-.41-.03-.54,.14-1.35,1.76-2.83,3.4-4.42,4.95-1.6,1.56-3.3,3.02-5.07,4.39-1.76,1.37-3.59,2.64-5.46,3.86-1.89,1.23-3.81,2.4-5.76,3.54-1.94,1.14-3.91,2.24-5.87,3.33-.25,.14-.5,.28-.74,.41-.44,.25-.05,.93,.4,.68h0Z"/>
          </g>
          <path d="M375.26,197.62c7.45,6.26,14.08,13.95,17.06,23.21-.83-8.53-4.55-16.82-10.68-22.82-6.12-6-14.66-9.57-23.23-9.32,.73-.02,2.71,.87,3.59,1.07,1.66,.37,3.31,1.2,4.8,1.98,3.05,1.59,5.83,3.67,8.46,5.88Z"/>
        </g>
        <path d="M381.75,193.29c.7-.07,1.41-.29,1.95-.75,.53-.46,.86-1.21,.68-1.9s-.93-1.21-1.61-1.01c.31-.43,.91-.49,1.44-.49,.72,0,1.44,.03,2.16,.1,.89,.09,1.83,.25,2.5,.85,1.01,.9,1.05,2.58,.32,3.73-.72,1.15-2.02,1.82-3.34,2.14-1.58,.38-3.27,.32-4.83-.17-.87-.28-1.74-.73-2.24-1.5-.47-.73-.52-1.9,.21-2.48-.24,1.54,1.61,1.61,2.75,1.49Z"/>
        <g>
          <path d="M50.33,219.25c6.82-5.9,15.97-8.18,24.81-9.93,6.23-1.23,12.5-2.3,18.8-3.07,7.42-.91,15.15-1.39,22.21,1.08,4.16,1.46,7.9,3.88,11.58,6.32,5.57,3.7,11.09,7.48,16.55,11.34,2.87,2.03,5.76,4.13,7.88,6.92,3,3.94,4.22,8.95,4.92,13.86,.92,6.49,1,13.35-1.73,19.3-.69,1.5-1.61,2.99-3.05,3.81-1.07,.61-2.32,.79-3.54,.96-14.1,1.97-28.24,3.94-42.48,4.05-15.61,.12-31.23-2.02-46.24-6.33-4.33-1.24-8.74-2.74-12.08-5.76-3.77-3.4-5.77-8.42-6.46-13.45-1.51-10.86,.23-21.66,8.83-29.1Z"/>
          <path d="M156.47,241.38c-.18,.05-.35,.11-.52,.18-1.27,.55-2.11,1.74-2.9,2.88-.31,.46-.64,.96-.61,1.51,.03,.52,.37,.96,.67,1.39,2.4,3.47,2.6,8.43,.21,11.9-1.88,2.73-5.08,4.34-8.33,4.99-3.25,.65-6.61,.46-9.93,.27-2.69-.16-5.38-.31-8.08-.47-1.82-.11-3.86-.14-5.21,1.08l1.88-1.9c-3.39,.73-6.81,1.46-10,2.83-3.19,1.36-6.18,3.41-8.11,6.29-.28,.41-.53,.87-.73,1.34,.54,0,1.07,0,1.61,0,14.23-.11,28.38-2.08,42.48-4.05,1.22-.17,2.47-.35,3.54-.96,1.44-.82,2.36-2.3,3.05-3.81,2.73-5.95,2.65-12.82,1.73-19.3-.2-1.39-.44-2.79-.75-4.17Z"/>
          <path d="M51.15,230.96c16.53-2.65,33.59,.6,49.14,6.81,3.75,1.5,7.46,3.18,10.7,5.59,3.67,2.74,6.88,6.48,11.34,7.5,5.5,1.27,10.89-1.98,16.31-3.55,3.07-.88,6.3-1.23,9.49-1.03,2.63,.17,5.68,.58,7.55-1.28,2.05-2.04,1.34-5.48,.26-8.17-6.14-15.39-19.49-27.44-35.01-33.24-15.52-5.8-32.97-5.6-48.81-.72-7.77,2.39-15.36,5.98-21.17,11.66-5.83,5.7-9.51,13.51-9.12,21.75-2.85-2.76,7.83-5.09,9.33-5.33Z"/>
          <path d="M47.41,219.11c-2.71,2.78-4.12,6.56-5.19,10.29-1.85,6.47-2.88,13.31-1.71,19.94,1.16,6.63,4.74,13.03,10.48,16.54,5.36,3.28,11.91,3.74,18.16,4.42,16.76,1.82,33.94,5.79,50.2,1.34,.59-.16,1.22-.37,1.55-.88,.35-.56,.22-1.29,.29-1.95,.24-2.09,2.49-3.22,4.28-4.33,2.1-1.3,3.96-3.14,4.77-5.48s.35-5.19-1.51-6.81c-.47-.41-1.03-.75-1.39-1.26-.88-1.26-.23-2.96-.11-4.49,.36-4.36-3.65-7.79-4.83-12-.17-.62-.29-1.27-.66-1.8-1.24-1.79-3.96-.93-6.11-.53-3.5,.65-7.3-.68-9.64-3.37-1.16-1.33-1.96-2.95-3.13-4.27-1.17-1.32-2.92-2.36-4.65-1.98-.83,.18-1.6,.68-2.44,.61-.59-.05-1.12-.37-1.62-.7-3.62-2.41-6.84-5.67-11.05-6.75-4.18-1.07-8.6,.22-12.53,2.01-3.28,1.5-6.9,3.41-10.3,2.2-2.67-.95-4.72-3.73-7.56-3.64-2.12,.07-3.79,1.76-5.22,3.34-.95,1.05-1.91,2.11-2.86,3.16l2.78-3.61Z"/>
          <path d="M52.16,237.37c1.25-.69,2.47-1.43,3.65-2.24,.26-.17,.46-.4,.54-.71,.08-.28,.04-.66-.12-.91-.33-.51-1.07-.79-1.61-.42-1.18,.8-2.4,1.55-3.65,2.24-.54,.3-.76,1.09-.42,1.61,.35,.55,1.04,.74,1.61,.42h0Z"/>
          <path d="M52.71,247.06c1.06,1.01,2.38,1.75,3.8,2.1,.6,.15,1.31-.19,1.45-.82,.14-.61-.18-1.29-.82-1.45-.37-.09-.74-.21-1.09-.36,.09,.04,.19,.08,.28,.12-.57-.24-1.11-.56-1.61-.94,.08,.06,.16,.12,.24,.18-.2-.16-.4-.32-.58-.5-.45-.42-1.23-.48-1.67,0-.42,.46-.48,1.22,0,1.67h0Z"/>
          <path d="M67.52,258.19c1.21,.31,2.42,.63,3.62,.94,.6,.15,1.31-.2,1.45-.82,.14-.62-.18-1.29-.82-1.45-1.21-.31-2.42-.63-3.62-.94-.6-.15-1.31,.2-1.45,.82-.14,.62,.18,1.29,.82,1.45h0Z"/>
          <path d="M70.14,242.93c2.19,.38,4.47,.2,6.54-.65,.3-.12,.54-.25,.71-.54,.15-.25,.21-.63,.12-.91-.09-.29-.27-.56-.54-.71-.26-.14-.62-.24-.91-.12-.85,.35-1.75,.59-2.66,.71,.1-.01,.21-.03,.31-.04-.94,.12-1.89,.12-2.83,0,.1,.01,.21,.03,.31,.04-.14-.02-.28-.04-.42-.07-.32-.06-.62-.05-.91,.12-.24,.14-.48,.42-.54,.71-.13,.57,.17,1.34,.82,1.45h0Z"/>
          <path d="M69.78,229.63c1.75-.38,3.5-.77,5.25-1.15,.6-.13,1.01-.87,.82-1.45-.21-.63-.8-.97-1.45-.82-1.75,.38-3.5,.77-5.25,1.15-.6,.13-1.01,.87-.82,1.45,.21,.63,.8,.97,1.45,.82h0Z"/>
          <path d="M53.69,226.22c-.02-.08-.04-.15-.05-.23l.04,.31c-.02-.13-.02-.27,0-.4l-.04,.31c.02-.14,.06-.28,.11-.41-.04,.09-.08,.19-.12,.28,.05-.12,.12-.24,.2-.35-.06,.08-.12,.16-.18,.24,.07-.09,.15-.18,.25-.25,.12-.11,.2-.23,.24-.38,.07-.14,.11-.29,.1-.45,0-.16-.03-.31-.1-.45-.05-.15-.13-.27-.24-.38-.22-.21-.52-.36-.83-.35l-.31,.04c-.2,.06-.37,.16-.52,.3-.19,.15-.35,.36-.49,.57-.04,.07-.08,.13-.12,.2-.07,.16-.15,.32-.2,.49-.07,.24-.11,.5-.11,.75,0,.13,.02,.25,.03,.38,.02,.13,.03,.26,.07,.39,.09,.29,.28,.55,.54,.71,.14,.09,.28,.13,.44,.14,.16,.04,.31,.03,.47-.02,.29-.09,.56-.27,.71-.54,.15-.28,.21-.6,.12-.91h0Z"/>
          <path d="M45.23,248.33c.53,1.38,1.06,2.75,1.58,4.13,.11,.29,.26,.54,.54,.71,.25,.15,.63,.21,.91,.12,.56-.18,1.06-.83,.82-1.45-.53-1.38-1.06-2.75-1.58-4.13-.11-.29-.26-.54-.54-.71-.25-.15-.63-.21-.91-.12-.56,.18-1.06,.83-.82,1.45h0Z"/>
          <path d="M88.52,263.97c2.08,.16,4.17,.04,6.23-.31,.27-.05,.57-.31,.71-.54,.15-.25,.21-.63,.12-.91-.09-.29-.27-.56-.54-.71-.3-.16-.58-.17-.91-.12-.28,.05-.55,.09-.83,.12l.31-.04c-1.69,.22-3.39,.27-5.09,.14-.62-.05-1.21,.58-1.18,1.18,.03,.68,.52,1.13,1.18,1.18h0Z"/>
          <path d="M92.29,244.3c1.09,.06,2.19,.12,3.28,.18,.62,.03,1.21-.57,1.18-1.18-.03-.67-.52-1.14-1.18-1.18-1.09-.06-2.19-.12-3.28-.18-.62-.03-1.21,.57-1.18,1.18,.03,.67,.52,1.14,1.18,1.18h0Z"/>
          <path d="M87.92,228.04c.99,.49,1.98,.97,2.96,1.46,.29,.14,.59,.21,.91,.12,.27-.08,.57-.29,.71-.54,.14-.27,.22-.61,.12-.91-.09-.28-.27-.57-.54-.71-.99-.49-1.98-.97-2.96-1.46-.29-.14-.59-.21-.91-.12-.27,.08-.57,.29-.71,.54-.14,.27-.22,.61-.12,.91,.09,.28,.27,.57,.54,.71h0Z"/>
          <path d="M107.44,238c.68,1.81,1.15,3.69,1.42,5.6,.04,.27,.32,.57,.54,.71,.25,.15,.63,.21,.91,.12,.29-.09,.56-.27,.71-.54,.16-.3,.17-.58,.12-.91-.27-1.91-.74-3.79-1.42-5.6-.11-.29-.26-.54-.54-.71-.25-.15-.63-.21-.91-.12-.56,.18-1.06,.83-.82,1.45h0Z"/>
          <path d="M109.22,261.17c.1,1.37,.19,2.74,.29,4.11,.02,.32,.12,.61,.35,.83,.2,.2,.54,.36,.83,.35,.6-.03,1.23-.52,1.18-1.18-.1-1.37-.19-2.74-.29-4.11-.02-.32-.12-.61-.35-.83-.2-.2-.54-.36-.83-.35-.6,.03-1.23,.52-1.18,1.18h0Z"/>
          <path d="M122.06,263.58c.66-1.26,1.31-2.52,1.97-3.78,.29-.55,.16-1.31-.42-1.61-.54-.29-1.31-.16-1.61,.42-.66,1.26-1.31,2.52-1.97,3.78-.29,.55-.16,1.31,.42,1.61,.54,.29,1.31,.16,1.61-.42h0Z"/>
          <path d="M130.67,246.01c-.08,.98-.76,1.79-1.25,2.65-.48,.86-.74,2.05-.05,2.75,.79,.81,2.26,.41,3.19,1.07,1.34,.94,.61,3.07,1.17,4.6,.46,1.27,1.8,2.03,3.13,2.31,2.11,.44,4.54-.19,5.83-1.92,1.59-2.15,1.06-5.17,1.85-7.73,.35-1.12,.96-2.15,1.4-3.24,.44-1.09,.71-2.32,.35-3.44s-1.52-2.05-2.67-1.8c-.99,.21-1.65,1.15-2.58,1.54-.94,.4-2.05,.19-2.97-.26-.92-.45-1.73-1.1-2.6-1.64-.75-.46-2-1.02-2.78-.3-.62,.57-.07,1.35-.46,1.81-.32,.38-1.12,.1-1.51,.59-.64,.79,.03,2.12-.04,3.02Z"/>
          <path d="M77.65,212.8c1.29,1.01,3.15,.28,4.79,.29,2.38,.02,4.38,1.69,6.45,2.87,2.39,1.35,5.12,2.1,7.87,2.16,1.13,.02,2.34-.1,3.23-.8,.42-.34,.74-.79,1.18-1.1,.82-.58,1.92-.58,2.88-.31,.96,.27,1.84,.78,2.75,1.18,2.87,1.25,6.22,1.36,9.17,.32,.53-.19,1.1-.46,1.33-.98,.31-.71-.18-1.53-.78-2-2.71-2.13-6.87-.14-10.07-1.44-2.11-.85-3.45-3-5.49-4.01-1.05-.52-2.23-.7-3.38-.88-1.32-.2-2.67-.41-3.97-.1-.83,.2-1.6,.59-2.44,.74-1.95,.35-3.84-.65-5.67-1.4-1.83-.74-4.13-1.17-5.63,.12,.14,.82,1.11,1.18,1.94,1.28,.8,.09,1.72,.11,2.27,.76-.72,1.14-1.87,.69-2.99,.96-.36,.09-3.79,2.06-3.44,2.33Z"/>
          <path d="M47.45,232.09c-.6,.43-1.02,1.08-1.39,1.72-.46,.79-.89,1.76-.5,2.59,.28,.6,.9,.94,1.33,1.44,1.19,1.39,.63,3.5,.11,5.27-.57,1.92-1.02,3.98-.48,5.91,.54,1.93,2.36,3.64,4.35,3.38,2.13-.27,3.41-2.46,5.27-3.54,2.73-1.58,6.52-.63,8.98-2.59,1.65-1.31,2.21-3.56,2.38-5.67,.11-1.44-.15-3.25-1.53-3.69-1.07-.34-2.45,.34-3.27-.43-.33-.32-.46-.79-.53-1.25-.16-.94-.18-1.9-.47-2.8-.28-.9-.89-1.78-1.8-2.06-1.76-.54-3.24,1.3-4.88,2.14-.29,.15-.63,.27-.95,.21-.33-.06-.59-.31-.87-.5-1.18-.83-4.57-.99-5.75-.13Z"/>
          <path d="M86.97,210.28c-.19,.12-.37,.26-.47,.46-.16,.33-.03,.74,.22,1,.25,.27,.59,.42,.93,.54,.95,.35,1.95,.56,2.96,.63,.41,.03,.88,.05,1.13,.37,.18,.23,.21,.54,.34,.81,.32,.63,1.14,.77,1.85,.8,1.47,.05,3.23-.27,3.84-1.61,.07-.16,.13-.33,.24-.47,.6-.73,2.04,.25,2.64-.47,.29-.35,.14-.91-.2-1.21-.34-.3-.81-.39-1.25-.46-2.31-.33-4.63-.18-6.93-.65-1.84-.38-3.58-.86-5.3,.25Z"/>
          <path d="M49.8,235.12c-.07,1.71,1.76,3.13,1.5,4.82-.1,.64-.49,1.19-.8,1.76-.72,1.35-.99,2.94-.75,4.45,.12,.78,.51,1.66,1.29,1.78,.36,.06,.72-.06,1.07-.19,.59-.22,1.22-.49,1.57-1.02,.62-.95,.11-2.34,.77-3.26,.6-.83,1.83-.84,2.82-.58,.99,.26,1.99,.7,2.99,.48,.88-.19,1.61-.93,1.8-1.81,.19-.88-.19-1.85-.91-2.38-1.17-.85-2.78-.47-4.22-.31-.31,.03-.66,.04-.88-.18-.44-.45,.13-1.15,.26-1.76,.51-2.54-6.44-3.36-6.5-1.81Z"/>
          <path d="M132.68,245.53c-.27,.99-.03,2.19-.74,2.93-.32,.33-.84,.73-.57,1.11,.07,.1,.18,.16,.3,.2,1.15,.48,2.77,.25,3.37,1.35,.38,.69,.1,1.53-.13,2.28-.23,.75-.37,1.66,.17,2.23,.65,.67,1.87,.31,2.42-.45,.49-.67,.62-1.59,.34-2.37-.44-1.22-1.76-2.01-2.04-3.27-.2-.89,.23-1.87,1-2.34,.25-.15,.53-.25,.82-.23,.77,.06,1.18,.9,1.73,1.44,1.06,1.03,3.03,.86,3.89-.34,.25-.35,.41-.78,.34-1.21-.1-.53-.56-.93-1.06-1.1-.5-.18-1.05-.18-1.59-.17-1.53,.01-3.35-.12-4.14-1.43-.14-.24-.25-.52-.48-.68-1.17-.77-3.34,1.02-3.63,2.07Z"/>
          <path d="M116.35,204.08c2.36,1.01,4.73,2.01,7.03,3.15,7.64,3.77,14.63,9.02,19.86,15.74,5.23,6.73,8.63,14.98,9,23.49,2.92-.04,5.04-3.15,5.07-6.06,.03-2.92-1.46-5.62-2.97-8.11-4.44-7.34-9.6-14.45-16.57-19.46-3.85-2.77-7.57-5.3-11.86-7.32-3.22-1.51-12.65-4.37-17.19-5.2,2.08,1.26,5.35,2.81,7.62,3.77Z"/>
        </g>
      </g>
      <g>
        <g>
          <path class="cls-36" d="M61.5,38.38c-1.67,1.49-2.45,4.23-1.09,6.01,.66,.87,1.69,1.36,2.72,1.72,6.7,2.38,14.45,.44,20.98,3.27,2.06,.89,3.91,2.23,6,3.06,4.93,1.98,10.47,.95,15.77,.53,12.27-.98,24.52,1.5,36.73,3.07,12.21,1.57,25,2.16,36.46-2.35,1.92-.76,4.11-2.22,3.81-4.25-.13-.87-.72-1.6-1.36-2.2-2.09-1.95-4.88-2.93-7.58-3.87,6.95-1.37,13.9-2.73,20.85-4.1,2.47-.49,5.49-1.54,5.74-4.05,.1-1.03-.34-2.04-.9-2.91-2.06-3.24-5.7-5.2-9.42-6.11-3.73-.91-7.61-.89-11.44-.98-17.62-.41-35.19-3.23-52.84-2.12-13.95,.88-26.19,5.05-39.39,8.8-7.2,2.05-19.28,1.32-25.03,6.46Z"/>
          <path class="cls-41" d="M187.61,12.59c9.04,2.54,17.78,6.88,24.17,13.76-12.83-8.48-28.52-12.55-43.85-11.36,7.25,.31,14.44,1.7,21.29,4.09-6.46-1.9-13.43-2.06-19.97-.44,7.83,4.93,17.82,4.83,26.93,3.23,9.11-1.61,18.05-4.55,27.31-4.79-7.57,2.92-15.59,4.44-23.55,5.96-5.84,1.11-11.69,2.22-17.59,2.9-6.23,.72-12.51,.95-18.78,.7,3.89,.13,7.75,.98,11.34,2.48,.76,.32,1.66,1.11,1.19,1.8-5.69,.03-11.37-1.53-16.25-4.45-3.23-1.93-6.12-4.46-9.57-5.97-1.4-.62-3-1.15-3.77-2.48-1.11-1.94,.21-4.41,1.88-5.89,4.33-3.82,11.2-3.78,16.66-3.29,7.57,.67,15.21,1.71,22.54,3.77Z"/>
          <path class="cls-29" d="M33.89,35.93c5.56-4.93,11.26-9.95,18.12-12.82,4.51-1.89,9.36-2.78,14.04-4.19,5.1-1.53,9.98-3.68,14.94-5.63,15.52-6.12,31.78-10.4,48.33-12.54,6.59-.85,13.41-1.35,19.78,.53,6.38,1.87,12.29,6.56,13.92,13,1.3,5.14-.23,10.57-2.3,15.45-.86,2.05-1.9,4.14-3.71,5.43-3.29,2.34-7.77,1.24-11.77,.7-6.89-.94-13.87,.11-20.82,.16-13.72,.11-27.18-3.66-40.86-4.69-7.47-.56-14.98-.31-22.45,.15-3.71,.23-7.46,.51-11.02,1.57-5.54,1.65-10.33,5.1-15.01,8.49-3.86,2.79-7.03,6.32-10.48,9.6-7.92,7.52-.74,12.91-1.91,13.53-.78,.49-1.99-1.95-2.58-3.18-.6-1.25-.91-2.62-.92-4-.03-2.77,.69-5.18,2.05-7.57,3.13-5.52,7.97-9.83,12.67-13.99Z"/>
          <path class="cls-42" d="M160.57,9.62c.59,3.8-.6,7.99-3.85,9.93-4.94,2.94-11.88-.49-16.79,2.5,.57,.4,1.14,.81,1.71,1.21-3.64,2.78-8.61,2.79-13.19,2.67-7.23-.19-14.46-.37-21.69-.56,2.89,1.48,6,2.53,9.2,3.08-9.44,2.78-19.13-3.44-28.96-3.83-6.74-.27-13.28,2.22-20,2.75-3.45,.27-6.94,.02-10.36,.57-3.31,.53-6.46,1.78-9.48,3.24-5.69,2.74-11.03,6.22-15.85,10.31-1.82,1.54-7.18,8.85-9.46,8.51-.28-.04-.54-.17-.78-.37-.06,.11-.12,.21-.18,.32-1.36,2.39-2.08,4.8-2.05,7.57,.02,1.38,.32,2.76,.92,4,.59,1.23,1.8,3.67,2.58,3.18,1.16-.62-6.01-6,1.91-13.53,3.45-3.28,6.62-6.81,10.48-9.6,4.68-3.39,9.48-6.84,15.01-8.49,3.56-1.06,7.31-1.35,11.02-1.57,7.48-.45,14.98-.71,22.45-.15,13.68,1.03,27.14,4.79,40.86,4.69,6.95-.05,13.93-1.1,20.82-.16,4,.54,8.48,1.65,11.77-.7,1.81-1.29,2.84-3.39,3.71-5.43,2.06-4.88,3.6-10.31,2.3-15.45-.43-1.69-1.15-3.26-2.1-4.69Z"/>
          <path class="cls-7" d="M86.21,15.28c-4.71,1.38-9.73,1.94-14.04,4.28,12.06,.4,23.08-6.72,34.99-8.63,5.52-.88,11.15-.64,16.71-1.12,1.22-.11,2.85-.87,2.41-2.01-.28-.73-1.24-.87-2.03-.89-6.08-.17-12.08-.85-18,.8-6.91,1.92-13.17,5.56-20.04,7.57Z"/>
        </g>
        <g>
          <path class="cls-31" d="M91.51,76.87c2.58,4.41,7.3,7.09,12,9.1,13.35,5.73,28.28,7.75,42.68,5.77,4.65-.64,9.31-1.69,13.98-1.22,.33,7.29-4.66,13.99-10.89,17.79-6.23,3.8-13.57,5.25-20.74,6.64-12.16,2.35-24.33,4.7-36.49,7.06-.94,.18-2.03,.48-2.4,1.37-.35,.84,.15,1.8,.78,2.46,1.96,2.06,5.04,2.5,7.88,2.7,32.25,2.23,64.38-13.63,85.23-38.33-3.42,6.91-.37,15.69,5.32,20.89,5.7,5.2,13.43,7.51,21,9,14.96,2.94,30.58,3.25,45.38-.44,.82-.2,1.68-.44,2.3-1.02,1.44-1.35,.79-3.93-.75-5.15-1.54-1.23-3.61-1.49-5.56-1.76-12.71-1.77-25.09-5.85-36.36-11.98-6.57-3.57-13.22-8.46-15.15-15.69-1-3.76-.59-7.77-1.39-11.57-.8-3.81-3.46-7.76-7.35-7.97-1.7-.09-3.34,.56-4.93,1.19-22.72,9.11-46.83,17.48-71.16,14.77-5.18-.58-10.37-1.68-15.15-3.81-1.96-.87-4.69-3.53-6.66-3.88-2.32-.42-2.57,2.36-1.57,4.08Z"/>
          <path class="cls-18" d="M256.99,109.72c-1.75-1.36-3.99-1.86-6.16-2.26-8.9-1.62-18.16-1.97-26.52-5.43-8.36-3.46-15.88-11.17-15.5-20.21,.2-4.75,2.54-9.23,2.68-13.99,.11-3.57-1.24-7.03-3.47-9.79,.05-.72,.14-1.43,.29-2.14,.54-2.65,1.91-5.24,4.19-6.69s5.56-1.45,7.52,.42c.75,.72,1.26,1.65,1.98,2.4,.71,.75,1.76,1.34,2.76,1.07,1.06-.29,1.83-1.46,2.92-1.38-.19-3.27-1.4-6.48-3.42-9.07-.29-.38-.61-.75-1.03-.99-.55-.32-1.22-.39-1.86-.42-5.85-.29-11.79,1.38-16.63,4.69-2.65,1.81-5.15,3.8-7.82,5.59-.12,.08-.23,.16-.34,.24-1.84-.31-3.72-.35-5.32,.16-3.72,1.18-7.11,3.4-10.26,5.66-3.67,2.64-7.12,5.58-10.84,8.14-11.19,7.71-24.99,11.57-38.55,10.79-13.32-.76-26.51-5.83-39.7-3.8,.08,2.24,2.01,3.93,3.85,5.21,9.89,6.85,21.81,10.41,33.79,11.46,11.98,1.05,18.11-1.31,29.9-3.65-16.11,11.02-24.65,15.95-44.6,24.77-8.63,3.82-27.27,7.33-25.27,12.5,1.72,2.02,4.66,2.37,7.3,2.48,14.2,.58,28.42-1.91,41.96-6.24,8.64-2.76,17.11-6.32,24.5-11.59,12.51-8.93,21.13-22.19,29.13-35.3-3.16,5.65-5.72,11.77-6.36,18.21-.64,6.44,.81,13.28,4.94,18.27,5.4,6.52,14.28,8.89,22.65,10.12,12.79,1.87,25.86,1.92,38.66,.14,2.6-.36,5.62-1.12,6.61-3.55,.84-2.05-.26-4.48-2.01-5.84Z"/>
          <path class="cls-1" d="M259.05,112.65c-.36-1.14-1.12-2.19-2.06-2.93-1.75-1.36-3.99-1.86-6.16-2.26-8.9-1.62-18.16-1.97-26.52-5.43-8.36-3.46-15.88-11.17-15.5-20.21,.2-4.75,2.54-9.23,2.68-13.99,.11-3.57-1.24-7.03-3.47-9.79,.05-.72,.14-1.43,.29-2.14,.54-2.65,1.91-5.24,4.19-6.69,2.29-1.44,5.56-1.45,7.52,.42,.75,.72,1.26,1.65,1.98,2.4,.71,.75,1.76,1.34,2.76,1.07,1.06-.29,1.83-1.46,2.92-1.38,0-.05,0-.09,0-.14-1.93-.37-3.61-1.02-4.17-2.74-.19-.6-.23-1.24-.48-1.82-.6-1.36-2.23-1.93-3.71-2.07-3.17-.31-6.46,.71-8.9,2.76-1.74,1.46-3.04,3.39-4.73,4.91-1.69,1.52-4.05,2.63-6.22,1.94,2.53,1.58,4.41,4.18,5.12,7.08,1.37,5.54-1.4,11.14-2.91,16.64-1.08,3.97-1.52,8.11-1.28,12.22,.16,2.81,.69,5.71,2.35,7.97,2.31,3.15,6.34,4.47,10.15,5.36,13.24,3.1,26.97,3.32,40.37,5.64,1.25,.22,2.55,.47,3.58,1.21,1.03,.74,1.73,2.11,1.3,3.31,.33-.43,.64-.88,.93-1.34Z"/>
          <path class="cls-1" d="M185.09,64.61c-17.27,16.66-42.18,23.83-66.16,23.13,12.04,1.57,24.5,2.5,36.16-.89,11.76-3.41,21.41-13.96,30-22.25Z"/>
          <path class="cls-1" d="M193.44,63.9c-1.91,4.43-4.95,8.28-8.13,11.91-18.01,20.59-41.74,36.12-67.82,44.37,6.2-2.16,12.71-4.16,18.36-7.54,5.31-3.18,10.57-6.44,15.71-9.88,10.29-6.88,20.16-14.47,28.86-23.29,2.42-2.46,4.75-5.01,6.97-7.66,1.94-2.32,4.84-5.12,6.04-7.91Z"/>
          <path class="cls-5" d="M187.56,54.84c-3.77,1.97-6.45,5.49-9.89,7.99-1.27,.92-2.63,1.69-3.98,2.5-.22,.13-.45,.29-.48,.54-.05,.39,.42,.62,.81,.66,1.03,.1,2.03-.32,2.93-.82,2.02-1.12,3.74-2.69,5.6-4.06,1.85-1.37,3.93-2.59,6.22-2.85,1.02-.12,2.08-.04,3.06-.34,.99-.3,1.93-1.12,1.9-2.15-.07-3.31-4.36-2.41-6.17-1.47Z"/>
        </g>
        <g>
          <path class="cls-40" d="M357.3,23.7c1.12-.04,2.34-.02,3.24,.66,1.16,.88,1.29,2.82,.26,3.85-.18,.18-.42,.34-.67,.31-.3-.04-.5-.32-.68-.57-1.12-1.55-3-2.42-4.89-2.68-1.89-.26-3.82,.03-5.68,.45-6.26,1.38-12.22,4.12-17.35,7.97-1.14,.85-2.28,2.03-3.56,2.66-.92,.45-1.06,.69-.95-.38,.22-2.09,3.57-3.64,5.08-4.57,4.83-2.97,10.14-5.15,15.67-6.43,3.13-.72,6.33-1.16,9.54-1.28Z"/>
          <path class="cls-31" d="M297.55,44.64c-2.45,5.1-6.36,9.36-10.6,13.1-8.28,7.29-18.85,13.08-29.83,12.01,2.44,9.99,8.01,19.09,15.26,26.39,7.25,7.3,16.14,12.85,25.6,16.9,1.29,.55,2.94,1.02,3.97,.07,.53-.5,.72-1.25,.88-1.97,1.33-5.94,2.32-11.96,2.96-18.01,.55-5.25,.91-10.75,3.6-15.28,1.69-2.84,4.19-5.11,6.75-7.2,3.72-3.04,7.73-5.88,12.33-7.28,4.6-1.4,8.19-.07,12.14,2.67-3.74-12.23-11.12-23.27-21.25-31.08-4.18-3.22-12.57-9.26-18.34-7.31-3.1,1.05-1.16,3.4-1.03,6.21,.17,3.69-.86,7.5-2.44,10.8Z"/>
          <path class="cls-35" d="M302.86,111.11c1.33-5.94,2.32-11.96,2.96-18.01,.55-5.25,.91-10.75,3.6-15.28,1.69-2.84,4.19-5.11,6.75-7.2,3.72-3.04,7.73-5.88,12.33-7.28s8.19-.07,12.14,2.67c-.47-1.52-.99-3.03-1.56-4.51-.15-.2-.3-.4-.44-.6-3.5-4.67-7.01-9.33-10.51-14-3.26-4.35-6.57-8.74-10.79-12.16-4.22-3.42-9.52-5.83-14.95-5.53l-.79-.45c2.7,5.24,4.17,11.12,4.25,17.02,3.19-.44,6.57,1.31,8.06,4.16,1.16,2.23,1.22,4.92,2.42,7.13,.2,.36,.43,.72,.49,1.12,.18,1.21-1.15,2.04-2.28,2.51-4.27,1.75-8.73,3.08-12.72,5.38-4,2.29-7.59,5.76-8.77,10.22-.89,3.4-.3,7,.54,10.41,.49,1.98,1.02,4.2-.02,5.95-.42,.7-1.06,1.24-1.56,1.88-1.91,2.43-1.66,5.85-1.32,8.92,.19,1.7,.39,3.44,1.22,4.93,.85,1.53,2.26,2.62,3.74,3.58,.79,.36,1.58,.72,2.38,1.06,1.29,.55,2.94,1.02,3.97,.07,.53-.5,.72-1.25,.88-1.97Z"/>
          <path class="cls-45" d="M314.18,23.16c5.49,.77,10.56,4.12,13.41,8.87,.57,.96,1.07,1.98,1.86,2.77,1.18,1.18,2.84,1.7,4.29,2.52,3.38,1.9,5.6,5.43,6.73,9.14,1.13,3.71,1.3,7.63,1.46,11.51,.12,2.77,.18,5.74-1.34,8.06-1.28-3.29-4.68-5.63-8.21-5.64-1.55,0-3.12,.39-4.62,.03-2.33-.55-3.87-2.73-5-4.84-3.06-5.75-4.98-12.61-10.36-16.29-.48-.33-1.04-.64-1.62-.56-.79,.11-1.37,.9-2.16,.94-1.27,.07-1.74-1.59-2.02-2.83-.94-4.21-4.14-6.6-7.83-8.27,1.05-4.74,11.61-5.94,15.39-5.41Z"/>
          <path class="cls-45" d="M264.79,76.9c-.15,2.66,.9,5.23,2.09,7.62,1.06,2.13,2.26,4.21,3.87,5.96,1.93,2.1,4.4,3.65,6.32,5.76,1.59,1.75,2.82,3.88,4.77,5.21,2.68,1.83,6.53,1.71,9.09-.28,.16,2.69,2.04,4.99,4.18,6.63,2.14,1.64,4.6,2.83,6.7,4.52,.12,.1,.26,.22,.29,.37,.06,.3-.26,.52-.53,.66-.86,.43-1.72,.86-2.59,1.29-.61,.31-1.25,.62-1.93,.67-.67,.05-1.34-.15-1.98-.36-7.63-2.54-14.53-7.25-19.69-13.43-.39-.47-.78-.96-1.3-1.28-.58-.36-1.28-.48-1.94-.66-2.58-.71-4.75-2.42-6.7-4.26-5.5-5.2-9.71-11.76-12.14-18.92-.51-1.51-.95-3.07-.94-4.67,.01-1.59,.53-3.24,1.69-4.34,.96,1.02,2.29,2.04,3.12,3.12,.69,.89,.92,2.11,1.62,3.07,.72,.99,1.66,1.82,2.74,2.4,.24,.13,3.26,1.22,3.27,.91Z"/>
          <path class="cls-10" d="M332.4,60.39c3.53,.02,6.93,2.35,8.21,5.64,1.51-2.32,1.45-5.29,1.34-8.06-.16-3.87-.33-7.8-1.46-11.51-1.13-3.71-3.35-7.24-6.73-9.14-1.45-.82-3.12-1.34-4.29-2.52-.79-.79-1.29-1.82-1.86-2.77-.74-1.24-1.64-2.38-2.65-3.4-3.08-.2-6.23,.74-8.68,2.62-.35,.27-.72,.64-.65,1.07,.06,.41,.49,.66,.87,.82,3.99,1.7,8.79,1.42,12.36,3.89,3.73,2.58,5.06,8.09,2.91,12.09-.43,.8-1,1.56-1.77,2.04-1.12,.69-2.56,.71-3.81,.32-1.25-.4-2.35-1.17-3.37-2-2.1-1.72-3.94-3.74-5.45-5.99-1.34-1.99-2.64-4.33-4.94-4.99-.4-.11-.85-.17-1.22,.03-.1,.05-.19,.12-.27,.2,.54-.03,1.06,.26,1.51,.57,5.37,3.68,7.29,10.54,10.36,16.29,1.13,2.11,2.67,4.29,5,4.84,1.5,.36,3.08-.04,4.62-.03Z"/>
          <path class="cls-40" d="M295.14,61.59c-.94,.48-1.89,.96-2.73,1.59-2.43,1.82-3.82,4.82-4.13,7.85,2.63-2.03,6.16-2.99,8.1-5.69,.55-.76,1.9-2.94,1.7-3.93-.27-1.36-2.06-.26-2.94,.19Z"/>
          <path class="cls-40" d="M303.21,68.99c-.94,.48-1.89,.96-2.73,1.59-2.43,1.82-3.82,4.82-4.13,7.85,2.63-2.03,6.16-2.99,8.1-5.69,.55-.76,1.9-2.94,1.7-3.93-.27-1.36-2.06-.26-2.94,.19Z"/>
        </g>
        <g>
          <path class="cls-2" d="M41.31,140.45c0,6.93-5.34,13.15-4.84,20.06,10.72,5.56,24.68,4.12,34.04-3.51,4-3.26,7.25-7.7,8.14-12.78,.9-5.08-.91-10.79-5.16-13.71-2.03-1.39-4.45-2.09-6.62-3.25-2.17-1.16-4.23-3.02-4.53-5.46-.11-.91,.03-1.84,.09-2.75,.37-5.61-2.62-11.3-7.44-14.19-1.27-.76,8.75-7.98,7.75-9.08-2.74-3.01-12.43-1.29-9.91-4.49-1.39-.97-3.27-.06-4.67,.88-10.36,6.91-27.23,18.48-32.51,30.15-2.92,6.45,11.11,4.08,15.12,5.14,5.95,1.56,10.53,6.67,10.54,13Z"/>
          <path class="cls-28" d="M52.83,91.28c-1.39-.97-3.27-.06-4.67,.88-7.77,5.19-17.4,12.59-23.95,20.9,.35,2.37,1.44,4.79,3.17,5.88,1.58,1,3.98,.87,5.75,1.48,2.22,.77,4.3,1.93,6.1,3.44-.54-2.88-.67-5.83-.39-8.75,1.08,1.73,2.39,3.32,3.88,4.71,.38,.35,.79,.71,1.29,.81,1.35,.27,2.29-1.32,2.62-2.66,.33-1.34,.74-2.98,2.07-3.33,1.49,2.94,4.19,5.25,7.33,6.28,0-2.08-.13-4.17-.42-6.23,.78,3.29,1.56,6.59,2.35,9.88,.19,.79,.38,1.6,.29,2.41-.1,.85-.49,1.62-.83,2.4-.92,2.07-1.52,4.28-1.78,6.53-.07,.6-.1,1.27,.24,1.77,.25,.37,.67,.58,1.06,.78,6.76,3.43,13.52,6.85,20.28,10.28,.62-1.32,1.1-2.7,1.39-4.13,.03-1.7,.07-3.41,.15-5.11-.51-3.58-2.28-6.96-5.24-8.99-2.03-1.39-4.45-2.09-6.62-3.25-2.17-1.16-4.23-3.02-4.53-5.46-.11-.91,.03-1.84,.09-2.75,.37-5.61-2.62-11.3-7.44-14.19-1.27-.76,8.75-7.98,7.75-9.08-2.74-3.01-12.43-1.29-9.91-4.49Z"/>
          <path class="cls-31" d="M95.56,189.88c1.96,2.27,3.95,4.64,4.9,7.5,.95,2.83,.82,6.01,2.19,8.66,2.67,5.18,10.75,5.93,14.94,1.88,4.19-4.05,4.22-11.29,.79-16,4.9,1.63,10.93-.05,13.67-4.43,2.73-4.38,1.15-11.1-3.57-13.2-5.4-2.41-11.67,1.48-17.51,.52-3.15-.52-5.88-2.4-8.38-4.39-4.53-3.6-8.68-7.69-12.34-12.18-1.39-1.7-3.48-3.66-5.44-2.67-.52,.26-.92,.71-1.31,1.14-3.27,3.65-6.55,7.29-9.82,10.94,1.25-1.39,20.12,20.18,21.89,22.23Z"/>
          <path class="cls-12" d="M110.96,174.82c-3.15-.52-5.88-2.4-8.38-4.39-4.53-3.6-8.68-7.69-12.34-12.18-1.39-1.7-3.48-3.66-5.44-2.67-.52,.26-.92,.71-1.31,1.14-3.27,3.65-6.55,7.29-9.82,10.94,.32-.35,1.78,.78,3.81,2.7,.85-.34,1.67-.73,2.46-1.14,3.2-1.66,6.49-3.68,10.09-3.5,4.39,.22,7.86,3.61,11,6.68,3.14,3.07,6.94,6.24,11.32,5.88,2.18-.18,4.2-1.25,6.38-1.46s4.82,.92,4.99,3.1c.07,.86-.27,1.71-.7,2.46-2.04,3.6-6.33,5.79-10.45,5.33,2.76,2.5,2.12,6.93,1.08,10.51-.94,3.21-2.17,6.58-4.86,8.55-1.32,.97-3.09,1.39-4.71,1.22,3.45,3.35,9.9,3.41,13.5-.06,4.19-4.05,4.22-11.29,.79-16,4.9,1.63,10.93-.05,13.67-4.43,2.73-4.38,1.15-11.1-3.57-13.2-5.4-2.41-11.67,1.48-17.51,.52Z"/>
          <path class="cls-32" d="M45.03,165.21c4.67,2.03,9.51,3.86,14.57,4.49,6.72,.83,13.71-.55,19.54-3.99,5.83-3.44,10.43-8.95,12.66-15.34,.68-1.94,1.14-3.99,.97-6.04-.14-1.68-.7-3.29-1.38-4.83-1.14-2.58-2.69-5.07-4.98-6.74-4.1-2.99-9.64-2.76-14.71-2.4,1.28,2.27,2.25,4.71,2.88,7.24-1.57-.41-3.22-.83-4.81-.51-2.7,.54-4.54,2.98-6.11,5.25-.46,.67-.93,1.35-1.12,2.14-.15,.62-.12,1.27-.08,1.91,.12,2.29,.25,4.59,.37,6.88-4.26-2.21-7.85-5.67-10.24-9.84-1.71,4.81-3.68,9.53-5.9,14.14,.1-2.34-.41-4.71-1.45-6.81-1.31,1.54-2.61,3.08-3.92,4.63-.97,1.14-3.27,2.98-3.52,4.5-.49,3.04,5.15,4.42,7.23,5.33Z"/>
          <path class="cls-32" d="M7.76,113.95C4.11,108.55,.52,102.75,.05,96.25c-.44-6.15,2.09-12.32,6.27-16.85,4.18-4.52,9.9-7.47,15.9-8.91,6.74-1.62,14.2-1.31,20.13,2.26,2.77,1.67,5.1,3.96,7.31,6.32,4.83,5.17,9.22,10.76,13.08,16.69-5.03-1.99-10.78-2.12-15.9-.36-.26,5.63,.08,11.28,1.01,16.84-2.87-2.43-6.6-3.83-10.37-3.88-.24,0-.52,0-.69,.18-.2,.2-.18,.52-.15,.8,.17,1.44,.33,2.89,.5,4.33-1.02-1.3-2.78-1.98-4.42-1.7-.26,.04-.54,.13-.68,.35-.13,.21-.11,.47-.08,.72,.24,1.87,.48,3.75,.71,5.62-3.19-.23-6.44,.5-9.22,2.06,1.98,.87,3.88,1.91,5.68,3.1-3.71,.11-12.49,2.1-12.49,2.1-4.06-2.39-6.33-8.18-8.9-11.98Z"/>
          <path class="cls-38" d="M14.44,117.51c-.52-1.01-1.05-2.02-1.57-3.03-.1-.19-.36-.24-.54-.14-.19,.11-.24,.35-.14,.54,.52,1.01,1.05,2.02,1.57,3.03,.1,.19,.36,.24,.54,.14,.19-.11,.24-.35,.14-.54h0Z"/>
          <path class="cls-38" d="M18.94,115.82c-1.17-1.37-2.13-2.9-2.86-4.55-.09-.19-.37-.24-.54-.14-.2,.12-.23,.34-.14,.54,.76,1.71,1.77,3.29,2.99,4.71,.14,.16,.41,.14,.56,0,.16-.16,.14-.39,0-.56h0Z"/>
          <path class="cls-38" d="M13.1,110c-1.41-2.48-2.59-5.09-3.53-7.79-.07-.2-.27-.33-.48-.27-.19,.05-.34,.28-.27,.48,.96,2.76,2.17,5.43,3.61,7.97,.25,.44,.93,.04,.68-.4h0Z"/>
          <path class="cls-38" d="M6.67,104c-.08-.08-.16-.16-.23-.24-.04-.04-.08-.09-.11-.13-.02-.02-.03-.04-.05-.06-.01-.02-.04-.05-.01-.01-.14-.18-.26-.37-.37-.57-.05-.1-.1-.2-.15-.3,0-.02-.02-.05,0-.01-.01-.02-.02-.05-.03-.07-.02-.05-.04-.11-.06-.16-.07-.21-.13-.43-.17-.66-.04-.2-.29-.34-.48-.27-.22,.07-.31,.27-.27,.48,.18,.97,.68,1.88,1.39,2.57,.15,.14,.41,.16,.56,0,.14-.15,.16-.4,0-.56h0Z"/>
          <path class="cls-38" d="M15.79,103.85c-.18-.78-.48-1.53-.89-2.22-.11-.18-.36-.26-.54-.14-.18,.11-.25,.35-.14,.54,.1,.16,.19,.33,.28,.5,.04,.08,.08,.16,.11,.24,0,.01,.06,.15,.04,.08,.02,.04,.03,.08,.05,.12,.14,.35,.25,.71,.33,1.08,.05,.2,.29,.34,.48,.27,.21-.07,.32-.27,.27-.48h0Z"/>
          <path class="cls-38" d="M27.14,110.4c-1.27-2.07-2.54-4.15-3.8-6.22-.26-.43-.94-.04-.68,.4,1.27,2.07,2.54,4.15,3.8,6.22,.26,.43,.94,.04,.68-.4h0Z"/>
          <path class="cls-38" d="M8.04,94.93c-.05-1.08-.1-2.17-.15-3.25,0-.21-.17-.39-.39-.39-.21,0-.4,.18-.39,.39,.05,1.08,.1,2.17,.15,3.25,0,.21,.17,.39,.39,.39,.21,0,.4-.18,.39-.39h0Z"/>
          <path class="cls-38" d="M4.28,91.22c.06-1.4,.45-2.77,1.15-3.98,.25-.44-.43-.84-.68-.4-.76,1.34-1.19,2.84-1.25,4.38-.02,.51,.77,.51,.79,0h0Z"/>
          <path class="cls-38" d="M46.71,160.43c2.34,1.39,4.79,2.59,7.33,3.57,.72,.28,1.45,.54,2.19,.78,.48,.16,.69-.6,.21-.76-2.53-.84-4.99-1.89-7.34-3.14-.67-.36-1.34-.73-1.99-1.13-.44-.26-.83,.42-.4,.68h0Z"/>
          <path class="cls-38" d="M53.23,154.91c.67,.77,1.47,1.43,2.36,1.94,.18,.1,.44,.05,.54-.14,.1-.19,.05-.43-.14-.54-.21-.12-.41-.25-.61-.38-.1-.07-.2-.14-.3-.22,0,0-.08-.06-.05-.04,.02,.02-.03-.03-.04-.03-.05-.04-.1-.08-.15-.12-.38-.31-.73-.66-1.05-1.03-.14-.16-.42-.15-.56,0-.15,.17-.14,.39,0,.56h0Z"/>
          <path class="cls-38" d="M63.21,164.01c1.81,.52,3.65,.95,5.5,1.28,.21,.04,.42-.06,.48-.27,.05-.19-.06-.45-.27-.48-1.86-.33-3.69-.76-5.5-1.28-.49-.14-.7,.62-.21,.76h0Z"/>
          <path class="cls-38" d="M40.64,160.43c.41,1.27,1.69,2.18,3.03,2.11,.21-.01,.39-.17,.39-.39,0-.2-.18-.4-.39-.39-.14,0-.28,0-.42-.01,.06,0,0,0-.03,0-.03,0-.06-.01-.09-.02-.07-.01-.14-.03-.2-.05-.07-.02-.13-.04-.2-.07,0,0-.1-.04-.06-.02,.04,.02-.05-.02-.06-.03-.13-.06-.25-.13-.36-.21-.03-.02-.05-.04-.08-.05-.02-.01-.07-.05-.03-.02-.05-.04-.11-.09-.16-.14-.1-.09-.19-.19-.27-.29,.04,.06-.03-.04-.03-.04-.02-.03-.04-.05-.05-.08-.04-.06-.07-.12-.11-.18-.03-.06-.06-.11-.08-.17,.03,.07-.02-.04-.02-.05-.01-.04-.02-.07-.04-.11-.06-.2-.27-.33-.48-.27-.2,.05-.34,.28-.27,.48h0Z"/>
          <path class="cls-38" d="M52.62,159.89c.71,.41,1.42,.81,2.14,1.22,.18,.1,.44,.05,.54-.14,.1-.19,.05-.43-.14-.54-.71-.41-1.42-.81-2.14-1.22-.18-.1-.44-.05-.54,.14-.1,.19-.05,.43,.14,.54h0Z"/>
          <path class="cls-38" d="M59.17,166.13c.55,.21,1.1,.43,1.65,.64,.19,.07,.44-.08,.48-.27,.05-.23-.07-.4-.27-.48-.55-.21-1.1-.43-1.65-.64-.19-.07-.44,.08-.48,.27-.05,.23,.07,.4,.27,.48h0Z"/>
          <path class="cls-38" d="M14.3,85.26c1.84-1.93,3.81-3.74,5.88-5.42,.16-.13,.14-.42,0-.56-.16-.16-.39-.13-.56,0-2.07,1.68-4.03,3.49-5.88,5.42-.35,.37,.21,.92,.56,.56h0Z"/>
          <path class="cls-38" d="M9.12,82.24c.9-1.06,1.8-2.12,2.71-3.19,.14-.16,.16-.4,0-.56-.14-.14-.42-.16-.56,0-.9,1.06-1.8,2.12-2.71,3.19-.14,.16-.16,.4,0,.56,.14,.14,.42,.16,.56,0h0Z"/>
          <path class="cls-38" d="M15.95,93.41c-.73-1.24-1.46-2.49-2.19-3.73-.26-.44-.94-.04-.68,.4,.73,1.24,1.46,2.49,2.19,3.73,.26,.44,.94,.04,.68-.4h0Z"/>
          <path class="cls-38" d="M25.6,96.59c-.62-.83-1.35-1.56-2.18-2.17-.17-.12-.45-.03-.54,.14-.11,.2-.04,.41,.14,.54,.05,.04,.1,.07,.14,.11,.06,.04-.01-.01,.02,.01,.02,.02,.05,.04,.07,.06,.09,.07,.18,.15,.27,.23,.18,.15,.35,.31,.51,.47,.16,.16,.32,.33,.48,.51,.08,.09,.15,.18,.23,.27,.03,.04,.07,.08,.1,.13,.03,.03-.03-.04,.01,.02,.02,.03,.04,.06,.06,.09,.12,.16,.35,.27,.54,.14,.16-.1,.27-.36,.14-.54h0Z"/>
          <path class="cls-38" d="M40.62,94.42c-.17-.34-.35-.67-.52-1.01-.1-.18-.37-.25-.54-.14-.19,.12-.24,.34-.14,.54,.17,.34,.35,.67,.52,1.01,.1,.18,.37,.25,.54,.14,.19-.12,.24-.34,.14-.54h0Z"/>
          <path class="cls-38" d="M77.04,141.15c.76,1.04,1.44,2.14,2.03,3.3,.1,.19,.36,.24,.54,.14,.19-.11,.24-.35,.14-.54-.58-1.15-1.26-2.25-2.03-3.3-.13-.17-.34-.26-.54-.14-.17,.1-.27,.37-.14,.54h0Z"/>
        </g>
        <g>
          <path class="cls-30" d="M198,178.27c.01-3.36,.03-6.73,.04-10.09,3.06-.61,6.12-1.21,9.18-1.82-.3-4.82-.61-9.63-.91-14.45,3.5,2.78,7.99,4.29,12.47,4.2-.07-3.02-.15-6.05-.22-9.07,1.52-.48,3.04-.97,4.56-1.45-2.79-2.9-5.58-5.8-8.36-8.7-.81-.85-1.64-1.7-2.62-2.35-1.15-.75-2.47-1.19-3.81-1.52-3.66-.91-7.47-1.08-11.24-.92-10.18,.42-20.69,3.47-27.87,10.71-1.69,1.71-3.2,3.66-4.03,5.91-1.22,3.3-.9,7.02,.33,10.32,1.22,3.3,3.29,6.21,5.54,8.91,3.65,4.37,7.84,8.16,12.4,11.56,2.03,1.52,3.06,2.4,5.61,1.68,3.01-.85,5.92-2.1,8.95-2.93Z"/>
          <path class="cls-30" d="M207.16,168.9c1.64,.64,3.28,1.29,4.92,1.93,3.75-4.01,7.57-7.95,11.47-11.82,.34-.33,.71-.69,1.18-.75,.34-.04,.69,.08,1.01,.19,4.11,1.49,8.21,2.97,12.32,4.46,.48,.17,.97,.35,1.48,.28,.54-.07,.99-.4,1.43-.72,4.41-3.19,9.12-5.97,14.06-8.29,1.17,3.4,2.46,6.75,3.85,10.06,1.06-.37,1.95-1.19,2.42-2.21,1.32,5.28,2.27,10.73,1.76,16.15-.51,5.42-2.6,10.84-6.59,14.54-5.32,4.93-13.05,6.1-20.28,6.64-3.88,.29-7.82,.46-11.62-.35-3.8-.81-7.5-2.73-9.76-5.89-2.6-3.65-3.34-8.1-6.2-11.61-1.24-1.52-1.58-2.42-1.65-4.46-.03-.78,.48-8.06,.21-8.16Z"/>
          <path class="cls-22" d="M154,156.89c-1.54-4.8-2.58-10.03-1.11-14.85,2.23-7.36,9.71-11.9,17.1-14.05,14.48-4.2,30.78-1.55,43.18,7.03-2.88,.22-5.76,.44-8.64,.66,1.68,3.12,3.72,6.04,6.05,8.71-10.9,2.27-21.68,5.12-32.29,8.52,4.19,6.35,7.8,13.09,10.76,20.1-2.71-.45-5.46-.7-8.22-.75,1.56,3.51,3.44,6.88,5.61,10.04-.55-.8-4.36-1.35-5.36-1.68-1.92-.64-3.84-1.32-5.74-2.03-3.43-1.29-5.86-3.79-8.91-5.85-5.71-3.86-10.41-9.48-12.44-15.84Z"/>
          <path class="cls-39" d="M169.48,159.65c-6.78-1.29-13.26-4.97-17.3-10.48,.25,2.61,.91,5.22,1.71,7.71,2.03,6.35,6.73,11.98,12.44,15.84,3.05,2.06,5.47,4.56,8.91,5.85,1.9,.71,3.81,1.39,5.74,2.03,1,.33,4.81,.89,5.36,1.68-2.17-3.17-4.06-6.53-5.61-10.04,2.75,.05,5.5,.3,8.22,.75-1.92-4.55-4.11-8.98-6.56-13.26-4.28,.67-8.64,.72-12.89-.09Z"/>
          <path class="cls-22" d="M217.65,200.06c5.65,5.24,13.22,8.36,20.93,8.63,3.02,.11,6.08-.22,8.93-1.23,6.69-2.37,11.63-8.41,14.04-15.09,2.41-6.68,2.56-13.97,1.99-21.04-2.71,3.04-5.41,6.08-8.12,9.12-2.21-4.61-4.76-9.05-7.62-13.28-2.45,3.77-5.19,7.36-8.18,10.72-1.2-1.58-2.86-2.8-4.72-3.48-.4,1.32-.58,2.7-.53,4.08-4.8-1.92-9.6-3.85-14.4-5.77-1.15,5.85-2.53,11.65-4.15,17.38-3.76-5-3.72-12.5,.09-17.46-.7,.91-3.28,1.66-4.32,2.28-1.33,.8-3.35,1.75-4.34,2.97-1.65,2.05,.28,4.05,.99,6.24,1.98,6.09,4.64,11.49,9.42,15.92Z"/>
          <path class="cls-39" d="M255.41,180.45c-1.56-3.26-3.3-6.44-5.2-9.52,.5,3.13,.59,6.26-.08,9.38-.92,4.29-3.25,8.18-6.16,11.45-4.35,4.89-10.27,8.61-16.78,9.34-3.4,.38-6.94-.16-10.07-1.54,.17,.17,.34,.33,.52,.5,5.65,5.24,13.22,8.36,20.93,8.63,3.02,.11,6.08-.22,8.93-1.23,6.69-2.37,11.63-8.41,14.04-15.09,2.41-6.68,2.56-13.97,1.99-21.04-2.71,3.04-5.41,6.08-8.12,9.12Z"/>
          <path class="cls-6" d="M180.59,133.45c1.6-.05,3.31,.24,4.73-.51,.66-.35,1.25-1.09,.99-1.79-.17-.47-.66-.74-1.13-.92-2.58-.99-5.46-.57-8.16,.03-1.99,.44-18.17,4.16-13.98,8.47,1.99,2.05,7.01-1.32,8.86-2.27,2.73-1.41,5.55-2.9,8.69-3Z"/>
        </g>
        <g>
          <path class="cls-11" d="M377.29,25.48c.12,3.2,1.36,6.24,2.41,9.27,2.33,6.7,3.81,13.68,4.81,20.71-.91-1.46-3.23-1.41-4.52-.27-1.28,1.14-1.71,2.97-1.78,4.68-.07,1.72,.15,3.45-.15,5.14-.52,3-2.59,5.52-3.3,8.48-1.31,5.49,2.25,11.41,.5,16.78-.14,.43-.35,.89-.75,1.1-.39,.2-.86,.12-1.31,.1-3.57-.16-5.7,3.83-6.94,7.18-1.99,5.38-3.98,10.76-5.96,16.13,5.62,1.48,11.72-.74,16.13-4.52,4.41-3.78,7.39-8.95,9.95-14.16,5.14-10.45,8.99-21.54,11.41-32.93,2.81-13.21,3.4-28.06-4.34-39.14-4.55-6.51-16.61-10.48-16.17,1.42Z"/>
          <path class="cls-26" d="M418.8,33.06c-4.78-13.44-14.5-25.49-27.24-31.6-1.49,1.14-2.79,2.53-4.2,3.77-.11,.1-.22,.19-.33,.29,19.4,20.27,26.64,51.57,17.75,78.24-2.54,7.63-6.32,14.91-11.58,20.99-6.65,7.68-15.41,13.19-24.1,18.46-24.56,14.88-50.83,29.13-79.5,30.88-5.61,.34-11.4,.12-16.79-1.56-.74-.23-1.44-.5-2.12-.8-.42,1.91-.89,3.83-1.01,5.78-.05,.74-.09,1.56-.27,2.32,9.45,5.72,40.87,6.85,69.14,.24,15.96-3.73,30.84-10.57,44.1-20.22,13.25-9.65,24.57-22.27,31.3-37.22,2.9-6.45,4.92-13.26,6.42-20.17,3.53-16.31,4.04-33.67-1.55-49.39Z"/>
          <path class="cls-14" d="M412.35,30.57c-4.77-11.12-13.22-20.87-24.01-26.24-.32,.3-.65,.6-.98,.89-.14,.13-.29,.25-.43,.38,15.5,19.67,18.22,48.78,6.19,70.83-3.85,7.06-6.45,16.38-11.86,22.33-7.38,8.1-17.92,12.67-26.93,18.89-10.99,7.59-23.31,13-35.55,18.36-13.08,5.73-30.83,14.8-45.61,12.1-.35-.06-.92-.22-1.61-.42-.26,1.14-.51,2.28-.76,3.42-.25,1.16-.53,2.34-.75,3.51,4.95,1.94,11.6,2.95,14.92,3.64,15.49,3.21,31.64,1.77,47.05-1.8,14.37-3.32,28.41-8.53,40.77-16.58,23.69-15.43,40.18-41.45,44.04-69.46,1.85-13.41,.85-27.42-4.48-39.87Z"/>
          <path class="cls-17" d="M387.39,5.21s-.02,.01-.02,.02c-.82,.72-1.69,1.48-2.65,2.07,.84,10.87,5.32,21.28,7.81,31.98,4.48,19.31,1.98,40.84-9.79,56.79-7.58,10.27-18.42,17.65-29.6,23.8-23.25,12.8-48.94,21.15-75.28,24.47-1.07,.13-3.45,.19-5.61,.49-.44,1.82-.86,3.64-1.25,5.47,4,2.22,10.49,2.68,14.53,3.19,11.66,1.47,23.52,.51,35.07-1.4,23.43-3.86,48.46-12.6,64.84-29.78,29.84-31.31,26.5-47.62,27.15-67.72,.61-18.99-9.53-38.54-25.19-49.38Z"/>
          <path class="cls-23" d="M290.06,149.07c17.36-1.48,34.91-2.99,51.46-8.44,16.63-5.48,32.03-15.01,43.72-28.05,11.69-13.04,19.54-29.65,21.35-47.07,1.22-11.74-.29-23.75-4.38-34.82-3.52-9.53-9.34-18.74-18.28-23.57,1.21,4.91-4.6,9.05-4.6,14.11,0,2.52,1.45,4.77,2.67,6.97,4.05,7.31,5.99,15.77,5.56,24.11-2.68,1.13-5.36,2.25-8.04,3.38,1.93,3.08,2.6,6.76,3.24,10.34,.87,4.93,1.67,10.35-.89,14.65-3.35,5.62-11.53,7.67-13.4,13.94-.94,3.15,.21,6.82,2.79,8.88-.31,2.95-3.92,4.22-6.88,4.34-2.96,.11-6.35-.12-8.41,2.01-1.6,1.65-1.86,4.26-3.47,5.9-2.78,2.82-7.66,1.24-11.3,2.77-2.7,1.13-4.37,3.8-6.59,5.71-4.46,3.83-10.79,4.34-16.28,6.44-4.11,1.57-7.84,4.07-12.05,5.33-4.21,1.26-13.55,2.31-15.9,2.98-2.35,.68-4.94,.45-7.15,1.48-1.12,.52-2.12,1.36-3.34,1.6-1.37,.27-2.79-.28-4.18-.15-3.99,.37-3.64,4.69-3.64,4.69,4.19,2.03,13.55,2.85,18,2.47Z"/>
          <path class="cls-20" d="M310.67,137.26c-.6,2.35,.15,4.99,1.9,6.67,.81,.78,2.09,1.35,3.02,.73,.57-.39,.81-1.11,.87-1.8,.13-1.62-.63-3.29-1.93-4.26-1.31-.97-3.12-1.22-4.64-.63l.79-.71Z"/>
          <path class="cls-20" d="M364.68,120.62c1.04,.61,2.35,.87,3.47,.41,.1-1.53-.59-3.03-1.57-4.22-1.14-1.38-4.86-5.41-6-2.61-.87,2.13,2.57,5.51,4.1,6.42Z"/>
          <path class="cls-20" d="M387.66,92.29c1.2-.11,2.41-.67,3.05-1.69-.81-1.3-2.25-2.12-3.73-2.51-1.73-.46-7.1-1.56-6.4,1.38,.54,2.24,5.31,2.98,7.07,2.82Z"/>
          <path class="cls-20" d="M397.85,79.89c1.2-.11,2.41-.67,3.05-1.69-.81-1.3-2.25-2.12-3.73-2.51-1.73-.46-7.1-1.56-6.4,1.38,.54,2.24,5.31,2.98,7.07,2.82Z"/>
          <path class="cls-20" d="M397.49,38.35c1.06-.58,1.94-1.59,2.11-2.78-1.27-.86-2.91-1.03-4.43-.79-1.77,.28-7.13,1.44-5.29,3.85,1.39,1.83,6.06,.58,7.61-.28Z"/>
        </g>
        <g>
          <path class="cls-19" d="M358.13,195.94c-9.74-.5-19.56-.01-29.31,.47-9.21,.46-19.07,1.05-26.11,4.27-5.67,2.59-8.92,6.66-15.5,8.54-6.47,1.85-15.49,1.37-19.95,4.49-3.16,2.21-2.58,5.35-4.44,7.95-3.91,5.47-17.69,7.68-20.64,13.32-2.04,3.9,2.3,8.17,8.66,10.35,6.35,2.19,14.24,2.66,21.78,2.56,10.67-.14,21.22-1.3,31.88-1.46,18.68-.27,36.97,2.53,55.39,4.22,18.42,1.68,38.28,2.13,54.87-2.48,3.34-.93,6.56-2.08,8.8-3.71,2.44-1.76,3.56-3.94,4.36-6.1,1.31-3.57,1.8-7.43-1.2-10.69-3.33-3.62-10.23-5.79-16.02-8.35-9.76-4.32-16.88-10.08-23.33-15.85-6.01-5.38-18.08-6.97-29.26-7.54Z"/>
          <g>
            <path class="cls-33" d="M350.78,193.52c2.37,2.01,4.76,4.02,7.39,5.68,2.03,1.28,4.2,2.33,6.17,3.7,7.98,5.55,11.73,15.44,18.8,22.11,1.09,1.03,2.37,2.03,3.87,2.14,2.19-5.11,.52-11.03-1.82-16.07-3.36-7.25-8.19-13.98-14.76-18.53-4.42-3.06-9.66-5.04-15.04-5.41-1.76-.12-5.5-.56-6.89,.85-1.86,1.89,.87,4.35,2.28,5.54Z"/>
            <path class="cls-33" d="M399.71,186.27c-6.11,5.32-15.44,6.62-22.77,3.16-1.73-.82-3.51-2.12-3.73-4.02-.21-1.8,1.07-3.41,2.4-4.64,4.76-4.42,10.98-6.9,17.19-8.82,3.22-1,19.48-7.43,20.22-.5,.26,2.43-4.76,5.18-6.32,6.93-2.33,2.63-4.32,5.56-6.99,7.88Z"/>
            <path class="cls-9" d="M387.02,227.01c6.55-4.5,11.57-11,15.06-18.14,3.49-7.14,5.5-14.92,6.76-22.76,.67-4.14,1.16-8.39,2.94-12.18-8.89,1.21-17,5.72-24.3,10.93,7.02-7.6,16.49-12.9,26.65-14.91-1.16-2.39-3.54-4.01-6.07-4.78-2.54-.77-5.24-.78-7.89-.66-9.95,.48-19.78,2.9-28.86,6.98-4.51,2.02-8.83,4.45-12.9,7.25-2.72,1.87-10.24,6.14-10.43,9.77,15.21,2.11,28.27,12.19,35.05,26.06,.61,1.26,5.27,11.57,4.01,12.44Z"/>
            <path class="cls-33" d="M371.04,176.23c-1.33,.17-2.71,.36-3.8,1.13-1.09,.77-1.76,2.31-1.11,3.48,.56,1,1.82,1.36,2.96,1.42,1.74,.1,3.5-.28,5.05-1.07,1.03-.53,2.08-1.59,1.68-2.67-.2-.52-.69-.86-1.18-1.12-1.23-.63-2.66-.86-4.03-.67l.44-.5Z"/>
            <path class="cls-9" d="M330.15,222.4c-16.34,6.41-33.93,9.27-51.48,9.63-14.84,.3-29.67-1.15-44.51-1.42-12.07-.22-24.15,.34-36.14,1.67,32.05-1.58,64.13,3.17,96.21,2.36,8.59-.22,17.2-.83,25.64-2.44,15.85-3.01,31.02-9.54,44.1-18.98,6.32-4.56,12.48-10.3,14.25-17.89,.17-.74,.3-1.52,.15-2.27-.82-3.93-4.77-1.8-6.19-.04-2.55,3.17-5.41,6.08-8.43,8.82-6.21,5.63-13.14,10.46-20.5,14.46-4.23,2.3-8.62,4.34-13.1,6.1Z"/>
            <path class="cls-9" d="M357.15,214.97c7.11,9.73,8.08,23.58,2.39,34.2,1.79-5.02,1.94-10.53,1.05-15.78-.78-4.6-2.37-9.12-5.09-12.91-4.2-5.85-10.81-9.59-17.71-11.63-6.9-2.04-14.15-2.54-21.32-3.03,3.12,.21,17.26-1.51,20.83-1.14,10.68,1.12,15.25,3.98,19.86,10.29Z"/>
            <path class="cls-9" d="M319.16,224.27c2.72,4.24,3.52,9.77,1.68,14.46-.91,2.32-2.4,4.37-4.01,6.27-2.91,3.46-6.83,6.78-11.34,6.48,2.44,1.04,5.17-.37,7.45-1.73,2.87-1.72,5.8-3.48,7.95-6.05,3.32-3.95,4.4-9.35,4.3-14.5-.04-1.79-.22-3.64-1.07-5.21-1.03-1.91-2.9-3.19-4.74-4.33-2.82-1.76-5.77-3.39-8.97-4.3-3.14-.9-6.63-1.08-9.74,.08,3.6,.22,6.33-.04,9.8,1.52,3.49,1.58,6.6,4.07,8.68,7.31Z"/>
            <path class="cls-9" d="M282.97,220.77c2.56,.64,5.15,1.65,6.91,3.62,2.84,3.17,2.79,8.27,.58,11.91-2.21,3.64-6.18,5.94-10.3,7.03-4.12,1.09-8.43,1.11-12.69,1.13,4.28-.5,8.48-1.72,12.36-3.6,4.23-2.06,8.43-5.49,8.84-10.17,.09-1.09-.04-2.22-.54-3.2-.46-.9-1.2-1.61-1.98-2.25-4.12-3.38-9.64-4.99-14.93-4.36,4.34-.52,7.38-1.2,11.75-.11Z"/>
            <path class="cls-9" d="M253.29,224.23c1.65,.33,3.33,.67,4.81,1.46,1.49,.79,2.78,2.11,3.12,3.76,.38,1.82-.46,3.7-1.6,5.17-2.75,3.54-7.21,5.4-11.66,5.94-4.45,.54-8.94-.1-13.37-.74,4.39,.71,8.84-.55,13.1-1.81,2.57-.75,5.27-1.59,7.05-3.6,1.14-1.28,1.79-3.1,1.34-4.75-.77-2.83-4.16-3.93-7.06-4.38-3.01-.46-6.05-.72-9.09-.75,4.76-1.21,8.59-1.25,13.35-.3Z"/>
            <path class="cls-9" d="M158.57,232.46c10.31,2.72,20.77,4.84,31.32,6.37-5.13,8.75-14.03,14.53-22.82,19.58,10.4,.65,21.18,1.25,30.88-2.57,4.41-1.74,8.43-4.33,12.39-6.95,5.01-3.31,10.18-6.84,13.63-11.86,1.26-1.84,3.5-4.78,.97-6.25-2.21-1.28-5.65-1.95-8.13-2.74-12.21-3.91-25.4-4.69-38.01-2.36-3.51,.65-6.97,1.54-10.36,2.66-1.75,.59-3.49,1.23-5.19,1.95-.84,.35-3.9,2.36-4.68,2.16Z"/>
            <path class="cls-33" d="M166.55,232c3.28-.6,6.6-1,9.92-1.22,3.31-.23,6.63-.29,9.95-.24,3.35,.06,6.7,.24,10.03,.51,3.33,.27,6.66,.62,9.98,1.01,3.33,.4,6.66,.84,9.99,1.29,.41,.06,.83,.11,1.24,.17,.21,.03,.42-.05,.48-.27,.05-.18-.06-.46-.27-.48-3.35-.45-6.69-.9-10.04-1.32-3.35-.41-6.71-.78-10.08-1.07-3.36-.29-6.72-.5-10.09-.59-3.37-.09-6.74-.06-10.11,.14-3.35,.2-6.69,.55-9.99,1.11-.41,.07-.82,.14-1.23,.22-.5,.09-.29,.85,.21,.76h0Z"/>
            <path class="cls-33" d="M172.77,257.63c3.42-.48,6.81-1.19,10.13-2.14,3.32-.94,6.57-2.12,9.74-3.49,3.16-1.37,6.22-2.96,9.17-4.74,2.96-1.79,5.8-3.78,8.5-5.95,2.69-2.16,5.23-4.51,7.6-7.03,.29-.31,.57-.61,.85-.92,.34-.37-.21-.93-.56-.56-2.31,2.54-4.79,4.91-7.43,7.11-2.63,2.19-5.4,4.2-8.3,6.01-2.91,1.82-5.93,3.45-9.05,4.87-3.11,1.42-6.32,2.62-9.6,3.61-3.28,.99-6.63,1.75-10.02,2.28-.41,.06-.83,.13-1.24,.18-.21,.03-.33,.3-.27,.48,.06,.23,.27,.3,.48,.27h0Z"/>
            <path class="cls-33" d="M182.76,250.7c4.4-2.3,8.82-4.58,13.25-6.82,4.41-2.23,8.83-4.44,13.27-6.62,2.51-1.23,5.02-2.45,7.54-3.67,.19-.09,.24-.37,.14-.54-.11-.2-.35-.23-.54-.14-4.48,2.16-8.94,4.34-13.38,6.56-4.42,2.2-8.84,4.43-13.23,6.69-2.49,1.28-4.97,2.56-7.44,3.86-.45,.23-.05,.91,.4,.68h0Z"/>
            <path class="cls-33" d="M179.76,233.55c.51,0,.51-.79,0-.79s-.51,.79,0,.79h0Z"/>
            <path class="cls-33" d="M179.74,233.47c4,.33,8,.66,12,.9,4,.24,8.01,.38,12.01,.32,2.26-.03,4.52-.12,6.78-.29,.21-.02,.39-.17,.39-.39,0-.2-.18-.41-.39-.39-3.99,.3-8,.35-12.01,.25-4.01-.1-8.01-.34-12.01-.64-2.26-.17-4.52-.36-6.78-.54-.21-.02-.39,.19-.39,.39,0,.23,.18,.38,.39,.39h0Z"/>
            <path class="cls-33" d="M188.19,227.18c.51,0,.51-.79,0-.79s-.51,.79,0,.79h0Z"/>
            <path class="cls-33" d="M188.21,227.1c4.54,.37,9.09,.73,13.63,1.1,4.28,.35,8.57,.74,12.8,1.55,2.38,.45,4.73,1.04,7.02,1.81,.48,.16,.69-.6,.21-.76-4.11-1.38-8.4-2.16-12.7-2.68-4.4-.53-8.82-.83-13.24-1.19-2.57-.21-5.15-.41-7.72-.62-.21-.02-.39,.19-.39,.39,0,.23,.18,.38,.39,.39h0Z"/>
            <path class="cls-33" d="M195.12,254.84c1.98-1.1,3.97-2.21,5.93-3.35,1.97-1.14,3.92-2.31,5.84-3.54,1.9-1.22,3.77-2.51,5.57-3.88,1.79-1.36,3.52-2.8,5.15-4.34,1.63-1.54,3.16-3.19,4.56-4.95,.18-.23,.36-.46,.54-.7,.13-.17,.03-.44-.14-.54-.2-.12-.41-.03-.54,.14-1.35,1.76-2.83,3.4-4.42,4.95-1.6,1.56-3.3,3.02-5.07,4.39-1.76,1.37-3.59,2.64-5.46,3.86-1.89,1.23-3.81,2.4-5.76,3.54-1.94,1.14-3.91,2.24-5.87,3.33-.25,.14-.5,.28-.74,.41-.44,.25-.05,.93,.4,.68h0Z"/>
          </g>
          <path class="cls-24" d="M372.26,194.62c7.45,6.26,14.08,13.95,17.06,23.21-.83-8.53-4.55-16.82-10.68-22.82-6.12-6-14.66-9.57-23.23-9.32,.73-.02,2.71,.87,3.59,1.07,1.66,.37,3.31,1.2,4.8,1.98,3.05,1.59,5.83,3.67,8.46,5.88Z"/>
        </g>
        <path class="cls-27" d="M378.75,190.29c.7-.07,1.41-.29,1.95-.75,.53-.46,.86-1.21,.68-1.9s-.93-1.21-1.61-1.01c.31-.43,.91-.49,1.44-.49,.72,0,1.44,.03,2.16,.1,.89,.09,1.83,.25,2.5,.85,1.01,.9,1.05,2.58,.32,3.73-.72,1.15-2.02,1.82-3.34,2.14-1.58,.38-3.27,.32-4.83-.17-.87-.28-1.74-.73-2.24-1.5-.47-.73-.52-1.9,.21-2.48-.24,1.54,1.61,1.61,2.75,1.49Z"/>
        <g>
          <path class="cls-4" d="M47.33,216.25c6.82-5.9,15.97-8.18,24.81-9.93,6.23-1.23,12.5-2.3,18.8-3.07,7.42-.91,15.15-1.39,22.21,1.08,4.16,1.46,7.9,3.88,11.58,6.32,5.57,3.7,11.09,7.48,16.55,11.34,2.87,2.03,5.76,4.13,7.88,6.92,3,3.94,4.22,8.95,4.92,13.86,.92,6.49,1,13.35-1.73,19.3-.69,1.5-1.61,2.99-3.05,3.81-1.07,.61-2.32,.79-3.54,.96-14.1,1.97-28.24,3.94-42.48,4.05-15.61,.12-31.23-2.02-46.24-6.33-4.33-1.24-8.74-2.74-12.08-5.76-3.77-3.4-5.77-8.42-6.46-13.45-1.51-10.86,.23-21.66,8.83-29.1Z"/>
          <path class="cls-3" d="M153.47,238.38c-.18,.05-.35,.11-.52,.18-1.27,.55-2.11,1.74-2.9,2.88-.31,.46-.64,.96-.61,1.51,.03,.52,.37,.96,.67,1.39,2.4,3.47,2.6,8.43,.21,11.9-1.88,2.73-5.08,4.34-8.33,4.99-3.25,.65-6.61,.46-9.93,.27-2.69-.16-5.38-.31-8.08-.47-1.82-.11-3.86-.14-5.21,1.08l1.88-1.9c-3.39,.73-6.81,1.46-10,2.83-3.19,1.36-6.18,3.41-8.11,6.29-.28,.41-.53,.87-.73,1.34,.54,0,1.07,0,1.61,0,14.23-.11,28.38-2.08,42.48-4.05,1.22-.17,2.47-.35,3.54-.96,1.44-.82,2.36-2.3,3.05-3.81,2.73-5.95,2.65-12.82,1.73-19.3-.2-1.39-.44-2.79-.75-4.17Z"/>
          <path class="cls-21" d="M48.15,227.96c16.53-2.65,33.59,.6,49.14,6.81,3.75,1.5,7.46,3.18,10.7,5.59,3.67,2.74,6.88,6.48,11.34,7.5,5.5,1.27,10.89-1.98,16.31-3.55,3.07-.88,6.3-1.23,9.49-1.03,2.63,.17,5.68,.58,7.55-1.28,2.05-2.04,1.34-5.48,.26-8.17-6.14-15.39-19.49-27.44-35.01-33.24-15.52-5.8-32.97-5.6-48.81-.72-7.77,2.39-15.36,5.98-21.17,11.66-5.83,5.7-9.51,13.51-9.12,21.75-2.85-2.76,7.83-5.09,9.33-5.33Z"/>
          <path class="cls-15" d="M44.41,216.11c-2.71,2.78-4.12,6.56-5.19,10.29-1.85,6.47-2.88,13.31-1.71,19.94,1.16,6.63,4.74,13.03,10.48,16.54,5.36,3.28,11.91,3.74,18.16,4.42,16.76,1.82,33.94,5.79,50.2,1.34,.59-.16,1.22-.37,1.55-.88,.35-.56,.22-1.29,.29-1.95,.24-2.09,2.49-3.22,4.28-4.33,2.1-1.3,3.96-3.14,4.77-5.48s.35-5.19-1.51-6.81c-.47-.41-1.03-.75-1.39-1.26-.88-1.26-.23-2.96-.11-4.49,.36-4.36-3.65-7.79-4.83-12-.17-.62-.29-1.27-.66-1.8-1.24-1.79-3.96-.93-6.11-.53-3.5,.65-7.3-.68-9.64-3.37-1.16-1.33-1.96-2.95-3.13-4.27-1.17-1.32-2.92-2.36-4.65-1.98-.83,.18-1.6,.68-2.44,.61-.59-.05-1.12-.37-1.62-.7-3.62-2.41-6.84-5.67-11.05-6.75-4.18-1.07-8.6,.22-12.53,2.01-3.28,1.5-6.9,3.41-10.3,2.2-2.67-.95-4.72-3.73-7.56-3.64-2.12,.07-3.79,1.76-5.22,3.34-.95,1.05-1.91,2.11-2.86,3.16l2.78-3.61Z"/>
          <path class="cls-37" d="M49.16,234.37c1.25-.69,2.47-1.43,3.65-2.24,.26-.17,.46-.4,.54-.71,.08-.28,.04-.66-.12-.91-.33-.51-1.07-.79-1.61-.42-1.18,.8-2.4,1.55-3.65,2.24-.54,.3-.76,1.09-.42,1.61,.35,.55,1.04,.74,1.61,.42h0Z"/>
          <path class="cls-37" d="M49.71,244.06c1.06,1.01,2.38,1.75,3.8,2.1,.6,.15,1.31-.19,1.45-.82,.14-.61-.18-1.29-.82-1.45-.37-.09-.74-.21-1.09-.36,.09,.04,.19,.08,.28,.12-.57-.24-1.11-.56-1.61-.94,.08,.06,.16,.12,.24,.18-.2-.16-.4-.32-.58-.5-.45-.42-1.23-.48-1.67,0-.42,.46-.48,1.22,0,1.67h0Z"/>
          <path class="cls-37" d="M64.52,255.19c1.21,.31,2.42,.63,3.62,.94,.6,.15,1.31-.2,1.45-.82,.14-.62-.18-1.29-.82-1.45-1.21-.31-2.42-.63-3.62-.94-.6-.15-1.31,.2-1.45,.82-.14,.62,.18,1.29,.82,1.45h0Z"/>
          <path class="cls-37" d="M67.14,239.93c2.19,.38,4.47,.2,6.54-.65,.3-.12,.54-.25,.71-.54,.15-.25,.21-.63,.12-.91-.09-.29-.27-.56-.54-.71-.26-.14-.62-.24-.91-.12-.85,.35-1.75,.59-2.66,.71,.1-.01,.21-.03,.31-.04-.94,.12-1.89,.12-2.83,0,.1,.01,.21,.03,.31,.04-.14-.02-.28-.04-.42-.07-.32-.06-.62-.05-.91,.12-.24,.14-.48,.42-.54,.71-.13,.57,.17,1.34,.82,1.45h0Z"/>
          <path class="cls-37" d="M66.78,226.63c1.75-.38,3.5-.77,5.25-1.15,.6-.13,1.01-.87,.82-1.45-.21-.63-.8-.97-1.45-.82-1.75,.38-3.5,.77-5.25,1.15-.6,.13-1.01,.87-.82,1.45,.21,.63,.8,.97,1.45,.82h0Z"/>
          <path class="cls-37" d="M50.69,223.22c-.02-.08-.04-.15-.05-.23l.04,.31c-.02-.13-.02-.27,0-.4l-.04,.31c.02-.14,.06-.28,.11-.41-.04,.09-.08,.19-.12,.28,.05-.12,.12-.24,.2-.35-.06,.08-.12,.16-.18,.24,.07-.09,.15-.18,.25-.25,.12-.11,.2-.23,.24-.38,.07-.14,.11-.29,.1-.45,0-.16-.03-.31-.1-.45-.05-.15-.13-.27-.24-.38-.22-.21-.52-.36-.83-.35l-.31,.04c-.2,.06-.37,.16-.52,.3-.19,.15-.35,.36-.49,.57-.04,.07-.08,.13-.12,.2-.07,.16-.15,.32-.2,.49-.07,.24-.11,.5-.11,.75,0,.13,.02,.25,.03,.38,.02,.13,.03,.26,.07,.39,.09,.29,.28,.55,.54,.71,.14,.09,.28,.13,.44,.14,.16,.04,.31,.03,.47-.02,.29-.09,.56-.27,.71-.54,.15-.28,.21-.6,.12-.91h0Z"/>
          <path class="cls-37" d="M42.23,245.33c.53,1.38,1.06,2.75,1.58,4.13,.11,.29,.26,.54,.54,.71,.25,.15,.63,.21,.91,.12,.56-.18,1.06-.83,.82-1.45-.53-1.38-1.06-2.75-1.58-4.13-.11-.29-.26-.54-.54-.71-.25-.15-.63-.21-.91-.12-.56,.18-1.06,.83-.82,1.45h0Z"/>
          <path class="cls-37" d="M85.52,260.97c2.08,.16,4.17,.04,6.23-.31,.27-.05,.57-.31,.71-.54,.15-.25,.21-.63,.12-.91-.09-.29-.27-.56-.54-.71-.3-.16-.58-.17-.91-.12-.28,.05-.55,.09-.83,.12l.31-.04c-1.69,.22-3.39,.27-5.09,.14-.62-.05-1.21,.58-1.18,1.18,.03,.68,.52,1.13,1.18,1.18h0Z"/>
          <path class="cls-37" d="M89.29,241.3c1.09,.06,2.19,.12,3.28,.18,.62,.03,1.21-.57,1.18-1.18-.03-.67-.52-1.14-1.18-1.18-1.09-.06-2.19-.12-3.28-.18-.62-.03-1.21,.57-1.18,1.18,.03,.67,.52,1.14,1.18,1.18h0Z"/>
          <path class="cls-37" d="M84.92,225.04c.99,.49,1.98,.97,2.96,1.46,.29,.14,.59,.21,.91,.12,.27-.08,.57-.29,.71-.54,.14-.27,.22-.61,.12-.91-.09-.28-.27-.57-.54-.71-.99-.49-1.98-.97-2.96-1.46-.29-.14-.59-.21-.91-.12-.27,.08-.57,.29-.71,.54-.14,.27-.22,.61-.12,.91,.09,.28,.27,.57,.54,.71h0Z"/>
          <path class="cls-37" d="M104.44,235c.68,1.81,1.15,3.69,1.42,5.6,.04,.27,.32,.57,.54,.71,.25,.15,.63,.21,.91,.12,.29-.09,.56-.27,.71-.54,.16-.3,.17-.58,.12-.91-.27-1.91-.74-3.79-1.42-5.6-.11-.29-.26-.54-.54-.71-.25-.15-.63-.21-.91-.12-.56,.18-1.06,.83-.82,1.45h0Z"/>
          <path class="cls-37" d="M106.22,258.17c.1,1.37,.19,2.74,.29,4.11,.02,.32,.12,.61,.35,.83,.2,.2,.54,.36,.83,.35,.6-.03,1.23-.52,1.18-1.18-.1-1.37-.19-2.74-.29-4.11-.02-.32-.12-.61-.35-.83-.2-.2-.54-.36-.83-.35-.6,.03-1.23,.52-1.18,1.18h0Z"/>
          <path class="cls-37" d="M119.06,260.58c.66-1.26,1.31-2.52,1.97-3.78,.29-.55,.16-1.31-.42-1.61-.54-.29-1.31-.16-1.61,.42-.66,1.26-1.31,2.52-1.97,3.78-.29,.55-.16,1.31,.42,1.61,.54,.29,1.31,.16,1.61-.42h0Z"/>
          <path class="cls-34" d="M127.67,243.01c-.08,.98-.76,1.79-1.25,2.65-.48,.86-.74,2.05-.05,2.75,.79,.81,2.26,.41,3.19,1.07,1.34,.94,.61,3.07,1.17,4.6,.46,1.27,1.8,2.03,3.13,2.31,2.11,.44,4.54-.19,5.83-1.92,1.59-2.15,1.06-5.17,1.85-7.73,.35-1.12,.96-2.15,1.4-3.24,.44-1.09,.71-2.32,.35-3.44s-1.52-2.05-2.67-1.8c-.99,.21-1.65,1.15-2.58,1.54-.94,.4-2.05,.19-2.97-.26-.92-.45-1.73-1.1-2.6-1.64-.75-.46-2-1.02-2.78-.3-.62,.57-.07,1.35-.46,1.81-.32,.38-1.12,.1-1.51,.59-.64,.79,.03,2.12-.04,3.02Z"/>
          <path class="cls-34" d="M74.65,209.8c1.29,1.01,3.15,.28,4.79,.29,2.38,.02,4.38,1.69,6.45,2.87,2.39,1.35,5.12,2.1,7.87,2.16,1.13,.02,2.34-.1,3.23-.8,.42-.34,.74-.79,1.18-1.1,.82-.58,1.92-.58,2.88-.31,.96,.27,1.84,.78,2.75,1.18,2.87,1.25,6.22,1.36,9.17,.32,.53-.19,1.1-.46,1.33-.98,.31-.71-.18-1.53-.78-2-2.71-2.13-6.87-.14-10.07-1.44-2.11-.85-3.45-3-5.49-4.01-1.05-.52-2.23-.7-3.38-.88-1.32-.2-2.67-.41-3.97-.1-.83,.2-1.6,.59-2.44,.74-1.95,.35-3.84-.65-5.67-1.4-1.83-.74-4.13-1.17-5.63,.12,.14,.82,1.11,1.18,1.94,1.28,.8,.09,1.72,.11,2.27,.76-.72,1.14-1.87,.69-2.99,.96-.36,.09-3.79,2.06-3.44,2.33Z"/>
          <path class="cls-34" d="M44.45,229.09c-.6,.43-1.02,1.08-1.39,1.72-.46,.79-.89,1.76-.5,2.59,.28,.6,.9,.94,1.33,1.44,1.19,1.39,.63,3.5,.11,5.27-.57,1.92-1.02,3.98-.48,5.91,.54,1.93,2.36,3.64,4.35,3.38,2.13-.27,3.41-2.46,5.27-3.54,2.73-1.58,6.52-.63,8.98-2.59,1.65-1.31,2.21-3.56,2.38-5.67,.11-1.44-.15-3.25-1.53-3.69-1.07-.34-2.45,.34-3.27-.43-.33-.32-.46-.79-.53-1.25-.16-.94-.18-1.9-.47-2.8-.28-.9-.89-1.78-1.8-2.06-1.76-.54-3.24,1.3-4.88,2.14-.29,.15-.63,.27-.95,.21-.33-.06-.59-.31-.87-.5-1.18-.83-4.57-.99-5.75-.13Z"/>
          <path class="cls-43" d="M83.97,207.28c-.19,.12-.37,.26-.47,.46-.16,.33-.03,.74,.22,1,.25,.27,.59,.42,.93,.54,.95,.35,1.95,.56,2.96,.63,.41,.03,.88,.05,1.13,.37,.18,.23,.21,.54,.34,.81,.32,.63,1.14,.77,1.85,.8,1.47,.05,3.23-.27,3.84-1.61,.07-.16,.13-.33,.24-.47,.6-.73,2.04,.25,2.64-.47,.29-.35,.14-.91-.2-1.21-.34-.3-.81-.39-1.25-.46-2.31-.33-4.63-.18-6.93-.65-1.84-.38-3.58-.86-5.3,.25Z"/>
          <path class="cls-43" d="M46.8,232.12c-.07,1.71,1.76,3.13,1.5,4.82-.1,.64-.49,1.19-.8,1.76-.72,1.35-.99,2.94-.75,4.45,.12,.78,.51,1.66,1.29,1.78,.36,.06,.72-.06,1.07-.19,.59-.22,1.22-.49,1.57-1.02,.62-.95,.11-2.34,.77-3.26,.6-.83,1.83-.84,2.82-.58,.99,.26,1.99,.7,2.99,.48,.88-.19,1.61-.93,1.8-1.81,.19-.88-.19-1.85-.91-2.38-1.17-.85-2.78-.47-4.22-.31-.31,.03-.66,.04-.88-.18-.44-.45,.13-1.15,.26-1.76,.51-2.54-6.44-3.36-6.5-1.81Z"/>
          <path class="cls-43" d="M129.68,242.53c-.27,.99-.03,2.19-.74,2.93-.32,.33-.84,.73-.57,1.11,.07,.1,.18,.16,.3,.2,1.15,.48,2.77,.25,3.37,1.35,.38,.69,.1,1.53-.13,2.28-.23,.75-.37,1.66,.17,2.23,.65,.67,1.87,.31,2.42-.45,.49-.67,.62-1.59,.34-2.37-.44-1.22-1.76-2.01-2.04-3.27-.2-.89,.23-1.87,1-2.34,.25-.15,.53-.25,.82-.23,.77,.06,1.18,.9,1.73,1.44,1.06,1.03,3.03,.86,3.89-.34,.25-.35,.41-.78,.34-1.21-.1-.53-.56-.93-1.06-1.1-.5-.18-1.05-.18-1.59-.17-1.53,.01-3.35-.12-4.14-1.43-.14-.24-.25-.52-.48-.68-1.17-.77-3.34,1.02-3.63,2.07Z"/>
          <path class="cls-22" d="M113.35,201.08c2.36,1.01,4.73,2.01,7.03,3.15,7.64,3.77,14.63,9.02,19.86,15.74,5.23,6.73,8.63,14.98,9,23.49,2.92-.04,5.04-3.15,5.07-6.06,.03-2.92-1.46-5.62-2.97-8.11-4.44-7.34-9.6-14.45-16.57-19.46-3.85-2.77-7.57-5.3-11.86-7.32-3.22-1.51-12.65-4.37-17.19-5.2,2.08,1.26,5.35,2.81,7.62,3.77Z"/>
        </g>
      </g>
    </g>
  </g>
</svg>