<svg id="Layer_1" data-name="Layer 1" xmlns="http://www.w3.org/2000/svg" viewBox="0 0 520.57 150.91"><defs><style>.cls-1{fill:none;stroke:#000;stroke-miterlimit:10;}.cls-2{fill:#ffe500;}.cls-3{fill:#fff;}.cls-4{fill:#003b7e;}</style></defs><line class="cls-1" y1="77.4" x2="520.57" y2="77.4"/><circle class="cls-2" cx="260.28" cy="75.46" r="75.46"/><circle class="cls-3" cx="260.28" cy="75.46" r="57.9"/><path class="cls-4" d="M239.34,107.58a20.43,20.43,0,0,1-3-.92,9.84,9.84,0,0,1-6-9.25c-.08-4.26,0-8.53,0-12.79a10.15,10.15,0,0,1,9.57-10.2l1.09-.06V68.75c-.38.37-.69.68-1,1a2.17,2.17,0,0,1-3.4,0c-.41-.41-.83-.82-1.24-1.24a2.13,2.13,0,0,1,0-3.22c1.74-1.76,3.48-3.5,5.24-5.23A1.36,1.36,0,0,0,241,59c0-3.28,0-6.56,0-9.84,0-1.78.79-2.55,2.58-2.56.9,0,1.8,0,2.7,0a2.1,2.1,0,0,1,2.22,2.25c0,1,0,2,0,3,0,0,0,0,0,.17l.5-.45,7.28-7.28c1.25-1.25,2.38-1.25,3.62,0l20.81,20.8c1.28,1.28,1.27,2.4,0,3.68L279.7,69.8a2.14,2.14,0,0,1-3.27,0c-.33-.33-.63-.71-.95-1.06l-.15.1v3.39a14.31,14.31,0,0,1,11.86,5.57,13.67,13.67,0,0,1,3.05,9.82,14.41,14.41,0,0,1-14.51,13.53A14.08,14.08,0,0,1,265,96.31a14.29,14.29,0,0,1-3.58-11.2H243.92c-1.94,0-2.36-.3-3-2.09a1.63,1.63,0,0,0-2.08,1.76q0,6.21,0,12.42a1.63,1.63,0,1,0,3.23,0,10.18,10.18,0,0,1,9.26-9.92,10.08,10.08,0,0,1,10.87,8.24,32.88,32.88,0,0,1,.19,5.07,1.13,1.13,0,0,0,.52,1.08c.86.6,1.56,3.62,1.17,4.6a2.69,2.69,0,0,1-1.43,1.31h-9a1.43,1.43,0,0,0-.21-.12,2.15,2.15,0,0,1-1.31-2.65c.14-.63.32-1.25.46-1.88a2.35,2.35,0,0,1,1-1.46.69.69,0,0,0,.28-.42c0-1.26,0-2.51,0-3.76a1.56,1.56,0,0,0-1.95-1.43c-.82.2-1.23.81-1.26,1.85a10.11,10.11,0,0,1-7.53,9.52c-.5.13-1,.24-1.51.35Zm8.11-24.64v-.76c0-3.58,0-7.15,0-10.73a2.13,2.13,0,0,1,2.39-2.4h5.83a2.18,2.18,0,0,1,2.48,2.51V83c1.2,0,2.35,0,3.49,0,.13,0,.3-.26.36-.42a14.25,14.25,0,0,1,10.63-9.89c.43-.11.51-.3.5-.69,0-1.61,0-3.22,0-4.83a1.31,1.31,0,0,0-.44-1L258.6,52c-.14-.14-.3-.27-.45-.41-.12.11-.2.17-.27.25Q250.7,59,243.52,66.21a1.39,1.39,0,0,0-.35.93c0,5,0,10.07,0,15.11,0,.23,0,.45,0,.69Zm28.45-8.55a12.32,12.32,0,1,0,12.24,12.54A12.3,12.3,0,0,0,275.9,74.39ZM241,76.58a8,8,0,0,0-8.51,7.74c-.07,4.45-.09,8.91,0,13.36a8,8,0,0,0,12.12,6.61,7.81,7.81,0,0,0,3.92-6.86,3.76,3.76,0,1,1,7.51,0c0,1,0,1.92,0,2.89v.77h4.36a37.56,37.56,0,0,0-.32-5.45,7.9,7.9,0,0,0-8.59-6.27,8.07,8.07,0,0,0-7.24,7.9,3.75,3.75,0,1,1-7.49.12q-.06-6.45,0-12.92a3.68,3.68,0,0,1,3.68-3.68l.56,0ZM279.46,67,258.2,45.7,237,66.91l1.4,1.48a4.58,4.58,0,0,1,.34-.43l17.61-17.61c1.27-1.28,2.38-1.28,3.66,0l17.56,17.57a2.34,2.34,0,0,1,.33.56Zm-29.84,16H256V71.23h-6.36ZM243.2,57.4c1.08-1.08,2.08-2.07,3.06-3.08a.82.82,0,0,0,.11-.53c0-1.13,0-2.25,0-3.38V48.74H243.2Zm11,48h7.92c-.12-.54-.27-1-.35-1.51s-.27-.6-.74-.59c-1.63,0-3.26,0-4.88,0h-1.43Z"/><path class="cls-4" d="M275.83,95.8a5.81,5.81,0,0,1-5.69-7.26,46,46,0,0,1,3.8-9.78,2.12,2.12,0,0,1,3.76,0,45.18,45.18,0,0,1,3.84,10A5.82,5.82,0,0,1,275.83,95.8Zm0-16a47,47,0,0,0-3.66,9.35A3.64,3.64,0,0,0,273.75,93a3.74,3.74,0,0,0,4.19,0,3.55,3.55,0,0,0,1.49-4C278.8,87,278,85,277.28,82.92,276.88,81.87,276.37,80.87,275.86,79.75Z"/></svg>