<svg xmlns="http://www.w3.org/2000/svg" viewBox="0 0 381 511.66"><defs><style>.cls-1{isolation:isolate;}.cls-2,.cls-3,.cls-4,.cls-6,.cls-8{fill:#003b7e;}.cls-3,.cls-8{mix-blend-mode:screen;}.cls-4,.cls-6{mix-blend-mode:multiply;}.cls-4,.cls-8{opacity:0.5;}.cls-5{fill:#ffe500;}.cls-7{fill:#fff;}</style></defs><g class="cls-1"><g id="Layer_1" data-name="Layer 1"><path class="cls-2" d="M163.71,147.09A81.86,81.86,0,1,1,0,147.09C0,102,81.86,0,81.86,0l0,0C83.83,2.46,163.71,102.5,163.71,147.09Z"/><path class="cls-3" d="M4.05,146.7C4.05,106.32,65.61,21.86,82,.14L81.88,0l0,0S0,102,0,147.09A81.94,81.94,0,0,0,48.9,222C22.31,208,4.05,179.53,4.05,146.7Z"/><path class="cls-4" d="M163.71,147.09A82,82,0,0,1,81.86,229C161.77,153.84,83.53,3.18,81.88,0,83.83,2.46,163.71,102.5,163.71,147.09Z"/><path class="cls-5" d="M152.66,146.71A70.72,70.72,0,0,1,148.37,171c-.45,1.24-.94,2.46-1.46,3.67a70.84,70.84,0,0,1-130.11,0c-.52-1.21-1-2.43-1.46-3.67a70.81,70.81,0,1,1,137.32-24.32Z"/><path class="cls-2" d="M87.5,113.88v10.69a3.92,3.92,0,1,1-7.83,0V113.88a18.28,18.28,0,1,0-36.55,0v64.86a3.92,3.92,0,0,1-7.83,0V113.88a26.11,26.11,0,1,1,52.21,0Z"/><path class="cls-6" d="M87.5,116.74v7.83a3.92,3.92,0,1,1-7.83,0v-7.83Z"/><path class="cls-2" d="M40.88,176.65a2.35,2.35,0,0,1-2.35-2.35V163l15.84-9.29a2.35,2.35,0,1,1,2.38,4l-13.52,7.93v8.64A2.35,2.35,0,0,1,40.88,176.65Z"/><circle class="cls-2" cx="117.68" cy="162.4" r="29.61" transform="translate(-67.27 239.97) rotate(-76.83)"/><circle class="cls-6" cx="117.68" cy="162.4" r="21.94" transform="translate(-67.31 239.88) rotate(-76.8)"/><circle class="cls-2" cx="98.43" cy="169.81" r="29.61"/><circle class="cls-6" cx="98.43" cy="170.2" r="21.94"/><rect class="cls-2" x="77.84" y="118.83" width="11.49" height="11.42" rx="1"/><circle class="cls-2" cx="40.55" cy="164.92" r="4.11"/><path class="cls-7" d="M146.91,175.09a66.06,66.06,0,0,1-3.82,7.56,70.81,70.81,0,0,1-122.47,0,69.48,69.48,0,0,1-3.82-7.56Z"/><path class="cls-6" d="M143.09,182.65a70.81,70.81,0,0,1-122.47,0Z"/><path class="cls-2" d="M163.71,429.8A81.86,81.86,0,1,1,0,429.8c0-45.13,81.86-147.09,81.86-147.09l0,.05C83.83,285.18,163.71,385.21,163.71,429.8Z"/><path class="cls-3" d="M4.05,429.41C4.05,389,65.61,304.57,82,282.85l-.08-.09,0-.05S0,384.67,0,429.8a82,82,0,0,0,48.9,74.91C22.31,490.74,4.05,462.25,4.05,429.41Z"/><path class="cls-4" d="M163.71,429.8a82,82,0,0,1-81.85,81.86c79.91-75.1,1.67-225.76,0-228.9C83.83,285.18,163.71,385.21,163.71,429.8Z"/><path class="cls-5" d="M152.66,429.62a70.43,70.43,0,0,1-5.26,26.83c-.16.39-.31.77-.49,1.16A71,71,0,0,1,115.27,492a70.87,70.87,0,0,1-66.82,0,71,71,0,0,1-30.52-32c-.4-.81-.77-1.64-1.13-2.47a70.81,70.81,0,1,1,135.86-28Z"/><path class="cls-2" d="M147.4,456.45c-.16.39-.31.77-.49,1.16a69.68,69.68,0,0,1-6.65,12,70.82,70.82,0,0,1-115.1,2.41,69.65,69.65,0,0,1-7.23-12c6.48-.22,6.62-6.22,13.34-6.22S38.13,460.1,45,460.1s6.86-6.24,13.72-6.24,6.87,6.24,13.74,6.24,6.86-6.24,13.72-6.24,6.86,6.24,13.73,6.24,6.88-6.24,13.74-6.24,6.86,6.24,13.72,6.24,6.86-6.24,13.72-6.24A8.67,8.67,0,0,1,147.4,456.45Z"/><path class="cls-8" d="M140.26,469.64a70.82,70.82,0,0,1-115.1,2.41,8.58,8.58,0,0,1,6.11-2.45c6.86,0,6.86,6.24,13.74,6.24s6.86-6.24,13.72-6.24,6.87,6.24,13.74,6.24,6.86-6.24,13.72-6.24,6.86,6.24,13.73,6.24,6.88-6.24,13.74-6.24,6.86,6.24,13.72,6.24C133.94,475.84,134.23,470.14,140.26,469.64Z"/><path class="cls-2" d="M94.45,401.79c-2.37,16.33-15.59,27.92-15.59,27.92s-9.38-14.87-7-31.2S87.44,370.6,87.44,370.6,96.82,385.47,94.45,401.79Z"/><path class="cls-2" d="M79,481.13c-4.87-18.38-.84-51.18-.79-51.51l1.34-9.28,1.39.2-1.34,9.27c0,.31-4,32.84.76,51Z"/><path class="cls-2" d="M64.9,401c5.46,11.81,1.7,25.17,1.7,25.17s-12.6-5.81-18-17.62-1.7-25.17-1.7-25.17S59.45,389.13,64.9,401Z"/><path class="cls-2" d="M88.79,460.09C77.66,450,66.22,426.6,66.1,426.36L63,419.64l1-.47,3.09,6.72c.11.22,11.46,23.46,22.43,33.37Z"/><path class="cls-2" d="M113,414.19C105.9,425.1,92.59,429,92.59,429s-1.79-13.76,5.32-24.66,20.41-14.83,20.41-14.83S120.11,403.29,113,414.19Z"/><path class="cls-2" d="M75.63,465.87C78.23,451.1,92,429,92.12,428.73l4-6.21.93.61-4,6.19c-.13.21-13.78,22.18-16.34,36.75Z"/><path class="cls-2" d="M115.27,438.81V492a70.87,70.87,0,0,1-66.82,0V438.81Z"/><path class="cls-6" d="M115.27,438.81V492a70.87,70.87,0,0,1-66.82,0V438.81Z"/><rect class="cls-7" x="44.86" y="435.87" width="74.01" height="15.68"/><path class="cls-2" d="M381,429.8a81.86,81.86,0,1,1-163.71,0c0-45.13,81.86-147.09,81.86-147.09l0,.05C301.12,285.18,381,385.21,381,429.8Z"/><path class="cls-3" d="M221.34,429.41c0-40.38,61.56-124.84,77.91-146.56l-.08-.09,0-.05s-81.86,102-81.86,147.09a82,82,0,0,0,48.9,74.91C239.6,490.74,221.34,462.25,221.34,429.41Z"/><path class="cls-4" d="M381,429.8a82,82,0,0,1-81.85,81.86c79.9-75.1,1.67-225.76,0-228.9C301.12,285.18,381,385.21,381,429.8Z"/><path class="cls-5" d="M370,429.62a70.43,70.43,0,0,1-5.26,26.83c-.16.39-.32.76-.49,1.16-.39.9-.8,1.8-1.24,2.69a69,69,0,0,1-5.63,9.68c-.73,1-1.45,2-2.21,3a71.08,71.08,0,0,1-22.56,19,70.95,70.95,0,0,1-97.35-31.95c-.39-.81-.76-1.64-1.12-2.47a70.81,70.81,0,1,1,135.86-28Z"/><path class="cls-2" d="M346.52,392.69v19.79H251.76V392.69a7.76,7.76,0,0,1,7.75-7.75h79.26A7.75,7.75,0,0,1,346.52,392.69Z"/><rect class="cls-2" x="288.5" y="384.94" width="2.72" height="24.37"/><path class="cls-2" d="M346.52,403v79.27a71.82,71.82,0,0,1-14,9.8,70.67,70.67,0,0,1-80.81-9.83V403Z"/><circle class="cls-6" cx="299.14" cy="446.71" r="31.26" transform="translate(-196.65 238.81) rotate(-33.44)"/><circle class="cls-2" cx="299.14" cy="442.01" r="31.26" transform="translate(-194.06 238.03) rotate(-33.44)"/><path class="cls-7" d="M327.11,442a28,28,0,1,1-50.76-16.23h0a28,28,0,0,1,45.57,0A27.87,27.87,0,0,1,327.11,442Z"/><path class="cls-2" d="M327.11,442a28,28,0,1,1-50.76-16.23h0c.82.33,1.05,1.21,2.24,1.21,1.48,0,1.48-1.33,2.93-1.33s1.47,1.33,3,1.33,1.45-1.33,2.93-1.33,1.47,1.33,2.92,1.33,1.48-1.33,2.95-1.33,1.46,1.33,2.93,1.33,1.47-1.33,2.93-1.33,1.47,1.33,2.94,1.33,1.46-1.33,2.93-1.33,1.47,1.33,2.93,1.33,1.47-1.33,2.95-1.33,1.45,1.33,2.92,1.33,1.48-1.33,2.93-1.33,1.48,1.33,2.95,1.33c1.19,0,1.41-.88,2.24-1.21A27.87,27.87,0,0,1,327.11,442Z"/><circle class="cls-2" cx="264.8" cy="393.88" r="3.64"/><path class="cls-2" d="M282.79,393.88a5,5,0,1,1-5-5A5,5,0,0,1,282.79,393.88Z"/><path class="cls-2" d="M308.6,396.06h0a1.17,1.17,0,0,1,1.15-1.16h10.63a1.17,1.17,0,0,1,1.15,1.16h0a1.16,1.16,0,0,1-1.15,1.16H309.75A1.16,1.16,0,0,1,308.6,396.06Z"/><path class="cls-2" d="M308.6,391.69h0a1.16,1.16,0,0,1,1.15-1.16h10.63a1.16,1.16,0,0,1,1.15,1.16h0a1.16,1.16,0,0,1-1.15,1.16H309.75A1.16,1.16,0,0,1,308.6,391.69Z"/><path class="cls-2" d="M324.18,396.06h0a1.17,1.17,0,0,1,1.16-1.16H336a1.17,1.17,0,0,1,1.16,1.16h0a1.16,1.16,0,0,1-1.16,1.16H325.34A1.17,1.17,0,0,1,324.18,396.06Z"/><path class="cls-2" d="M324.18,391.69h0a1.17,1.17,0,0,1,1.16-1.16H336a1.16,1.16,0,0,1,1.16,1.16h0a1.16,1.16,0,0,1-1.16,1.16H325.34A1.17,1.17,0,0,1,324.18,391.69Z"/><rect class="cls-2" x="301.65" y="390.53" width="2.64" height="6.6"/><rect class="cls-2" x="297.1" y="390.53" width="2.64" height="6.6"/><path class="cls-2" d="M381,147.09a81.86,81.86,0,1,1-163.71,0C217.29,102,299.15,0,299.15,0l0,0C301.12,2.46,381,102.5,381,147.09Z"/><path class="cls-3" d="M221.34,146.7c0-40.38,61.56-124.84,77.91-146.56l-.08-.1,0,0s-81.86,102-81.86,147.09a81.94,81.94,0,0,0,48.9,74.9C239.6,208,221.34,179.53,221.34,146.7Z"/><path class="cls-4" d="M381,147.09A82,82,0,0,1,299.15,229c79.9-75.11,1.67-225.77,0-228.91C301.12,2.46,381,102.5,381,147.09Z"/><path class="cls-5" d="M370,146.9a70.43,70.43,0,0,1-5.26,26.83c-.16.39-.32.77-.49,1.16-.39.91-.8,1.8-1.24,2.7a69.58,69.58,0,0,1-5.63,9.68c-.73,1-1.45,2-2.21,3-.47.6-.94,1.18-1.41,1.76a71.19,71.19,0,0,1-21.15,17.29,70.87,70.87,0,0,1-66.82,0,71,71,0,0,1-21.72-18c-1.07-1.3-2.07-2.67-3-4a70.66,70.66,0,0,1-5.77-9.9c-.39-.82-.76-1.65-1.12-2.48a70.5,70.5,0,0,1-5.75-28c0-.52,0-1,0-1.55A70.81,70.81,0,0,1,370,146.9Z"/><path class="cls-2" d="M353.71,192a71.19,71.19,0,0,1-21.15,17.29,70.87,70.87,0,0,1-66.82,0,71,71,0,0,1-21.72-18,11,11,0,0,1,3.24-.46c8.44,0,8.44,7.69,16.92,7.69s8.45-7.69,16.9-7.69,8.47,7.69,16.93,7.69,8.44-7.69,16.9-7.69,8.44,7.69,16.92,7.69,8.47-7.69,16.91-7.69A10.1,10.1,0,0,1,353.71,192Z"/><rect class="cls-2" x="276.86" y="106.18" width="6.23" height="15.59"/><polygon class="cls-6" points="283.09 106.19 283.09 111.8 276.86 111.07 276.86 106.19 283.09 106.19"/><path class="cls-2" d="M278.82,130.78v14.57H228.35a70.59,70.59,0,0,1,1.84-14.57Z"/><path class="cls-2" d="M326.43,158v8.56H311.85V158a12.63,12.63,0,0,0-12.6-12.61H280V130.78h19.28A27.21,27.21,0,0,1,326.43,158Z"/><rect class="cls-2" x="309.01" y="156.96" width="20.27" height="12.52" rx="3.16"/><path class="cls-6" d="M264.23,130.78h14.59v14.57H264.21a10.87,10.87,0,0,1-1.54-5.54v-3.49A10.69,10.69,0,0,1,264.23,130.78Z"/><path class="cls-6" d="M297.28,136.32v3.49a10.88,10.88,0,0,1-1.55,5.54H280V130.78h15.76A10.9,10.9,0,0,1,297.28,136.32Z"/><path class="cls-7" d="M294.89,136.32v3.49a12.3,12.3,0,0,1-12.26,12.26h-5.32a12.3,12.3,0,0,1-12.26-12.26v-3.49a12,12,0,0,1,2.52-7.38,12.22,12.22,0,0,1,4.75-3.81,12.07,12.07,0,0,1,5-1.07h5.32a12.17,12.17,0,0,1,10.4,5.83A11.94,11.94,0,0,1,294.89,136.32Z"/><path class="cls-6" d="M293,129.89l-25.46-.95a12.22,12.22,0,0,1,4.75-3.81l13.81-.56A12.19,12.19,0,0,1,293,129.89Z"/><path class="cls-2" d="M290.14,126.85a8.24,8.24,0,0,0,.31-2.17,8.13,8.13,0,0,0-1.62-4.85,10,10,0,0,0-2.77-2.61H273.89a9.33,9.33,0,0,0-2.08,1.75,8.31,8.31,0,0,0-2.31,5.71,7.85,7.85,0,0,0,.31,2.17Z"/><path class="cls-6" d="M288.83,119.83l-17-.86a9.33,9.33,0,0,1,2.08-1.75h12.17A10,10,0,0,1,288.83,119.83Z"/><rect class="cls-2" x="265.06" y="120.99" width="29.83" height="7.38" rx="2.22"/><path class="cls-2" d="M287.29,118.1H272.66a.93.93,0,0,1-.93-.93h0a.93.93,0,0,1,.93-.93h14.63a.93.93,0,0,1,.93.93h0A.93.93,0,0,1,287.29,118.1Z"/><path class="cls-7" d="M293.26,101.46c-1.48,0-3.56,1-5.46,2.16H272.15c-1.91-1.15-4-2.16-5.47-2.16-3.47,0-6.29,2.48-6.29,5.54s2.82,5.54,6.29,5.54c1.48,0,3.56-1,5.47-2.16H287.8c1.9,1.15,4,2.16,5.46,2.16,3.48,0,6.3-2.48,6.3-5.54S296.74,101.46,293.26,101.46Z"/><path class="cls-2" d="M324.12,182.29a5,5,0,0,1-10,0c0-2.75,5-9.49,5-9.49S324.12,179.54,324.12,182.29Z"/></g></g></svg>