<svg id="Layer_1" data-name="Layer 1" xmlns="http://www.w3.org/2000/svg" viewBox="0 0 600 360.98"><defs><style>.cls-1{fill:#ffc990;}.cls-2{fill:#ededed;}.cls-15,.cls-17,.cls-3{fill:#131313;}.cls-16,.cls-19,.cls-3{opacity:0.1;}.cls-4{fill:#3c3c3b;}.cls-5{fill:#edbb86;}.cls-6{fill:#16191e;}.cls-7{fill:#89a555;}.cls-8{fill:#d1dd32;}.cls-9{fill:#fcfdfd;}.cls-10{fill:#3db8b0;}.cls-11{fill:#339992;}.cls-12{fill:#173359;}.cls-13{fill:#f99746;}.cls-14,.cls-16,.cls-21{fill:#1d1d1b;}.cls-14{opacity:0.07;}.cls-15{opacity:0.15;}.cls-17{opacity:0.25;}.cls-18{fill:#575756;}.cls-19{fill:#10100f;}.cls-20{fill:#003b7e;}.cls-21{opacity:0.3;}.cls-22{fill:#fff;}</style></defs><path class="cls-1" d="M133.54,132.9l-1.23,18.69-.1,1.6-3.78.27-3.17,1.73-4.13,2.21-3,1.67-.68-8-1.48-17.63a21.58,21.58,0,0,0,4.83.92,25.05,25.05,0,0,0,4.5,0,34.45,34.45,0,0,0,4.61-.61C131.14,133.55,132.34,133.24,133.54,132.9Z"/><path class="cls-2" d="M124.81,98.6h-.17a8.51,8.51,0,0,0-8.76,8.25l.27,30.61c5.7,2.11,11.93,1.78,17.57.45l.82-23C135.31,105.82,129.51,98.74,124.81,98.6Z"/><path class="cls-1" d="M168.63,169.8a7.26,7.26,0,0,1,2.6,2.7,26.71,26.71,0,0,1,3.11,7.25c1,3.17-6.86,4.69-7.4,4.31a1.68,1.68,0,0,1-.71-1.71c.4-1.47,3-1.55,3.14-3.06a2.2,2.2,0,0,0-.53-1.43c-.78-1.13-2-2.22-3.37-1.87-.91.23-1.51,1.06-2.21,1.69-1.8,1.61-5.9,2.16-8,1s-2-4-1.58-6.4a3.75,3.75,0,0,1,1.74-2.65C156.09,169.24,167.35,169.26,168.63,169.8Z"/><path class="cls-1" d="M157.45,169.84l-2.86,7.38-.25.65L118.86,164.7c-.56-2.37.52-5,2.27-7.3a18.66,18.66,0,0,1,4.13-3.87c2.61-1.82,5.38-2.74,7-1.94a3.27,3.27,0,0,1,.33.18Z"/><path class="cls-3" d="M154.59,177.22l-.25.65L118.86,164.7a41.4,41.4,0,0,1-.77-5.63l7.17-47.13v48.17Z"/><path class="cls-4" d="M156.41,358.39c.71,2.8-10.46,2.59-11.66,2.59l-21.49-.5c-6.29-1.33-2.1-12-1.85-12.49a4.39,4.39,0,0,1,2.52-2.56l0,0c1-.34,3.85-.52,9.76,2h0l.31.13c6.06,2.52,10.44,3.87,15.95,6.09C153.06,354.82,155.43,356.3,156.41,358.39Z"/><path class="cls-1" d="M147,352.41c-4.68,3.39-11.21,2.37-18-1.72a19.9,19.9,0,0,0-7.6-2.53.38.38,0,0,0,0-.18c-.83-10.16-1.85-18.87-2.89-26.41-1.76-12.43-3.6-21.76-4.65-29.51-.25-1.7-.43-3.33-.58-4.87-.13-1.1-.19-2.15-.25-3.2-.37-7.48.58-13.66,4-20.56C112.15,250.78,108,227.88,105,212.5c0,.49,0,1-.07,1.47-.12,2.9-.21,5.73-.33,8.53-.44,11.32-.84,21.51-1.79,33.76-.21,2.86-.46,5.85-.77,9-1,4.09-2.37,10.68-3.82,18.4-.21,1.17-.46,2.34-.67,3.54-.34,1.7-.68,3.45-1,5.24-.12.64-.24,1.26-.37,1.9-3.26,17.92-6.71,38.23-8.31,47.71h0l-6,3.23-5,2.71c0-.8,0-1.57,0-2.34v-.37c-.06-9.2-.46-17.3-.92-24.5-.8-12.22-1.85-21.91-1.91-30.19,0-1.17,0-2.28,0-3.39.22-9.11,1.91-16.59,6.9-24.22l.09-.15c0-.13,0-.22-.06-.34-2.46-12.37-3.08-25.05-4.68-51.37-.49-5.2,5.57-43.18,5.6-43.49l.83,0,8.4-.43,16.32-.86,5.07-.25,10-.52h.09c.09.28.18.55.28.83s.15.37.21.55a241.43,241.43,0,0,1,14,72.33c.25,7.85,1.3,14.47.5,22.07l-1.3,20.5-.33,5.38-.19,3-.09,1.51-3.17,50.44a4.22,4.22,0,0,0,2.62,4.31C139,348,143.17,350.87,147,352.41Z"/><path class="cls-4" d="M111.84,358.39c.71,2.8-10.47,2.59-11.67,2.59l-21.49-.5c-6.29-1.33-2.09-12-1.85-12.49a4.43,4.43,0,0,1,2.53-2.56l0,0c1-.34,3.85-.52,9.76,2h0l.3.13c6.07,2.52,10.45,3.87,16,6.09C108.48,354.82,110.85,356.3,111.84,358.39Z"/><path class="cls-1" d="M87.85,342.13l.92-9.62H78.21c.55,4.76-1.83,9.88-1.38,15.48a.3.3,0,0,1,0,.18,19.56,19.56,0,0,1,7.6,2.53c6.76,4.08,13.29,5.09,18,1.72-3.82-1.54-8-4.42-12-6A4.19,4.19,0,0,1,87.85,342.13Z"/><path class="cls-3" d="M74,287.19H97.56c-.46,2.31-.89,4.71-1.36,7.14C86,295.69,79.74,301.1,75.89,320.77,75,306.86,73.74,296.24,74,287.19Z"/><path class="cls-3" d="M135.88,287.19l-.28,4.5c-8.06,1.14-15.2,10.68-17.08,29.88-2.16-15.14-4.4-25.73-5.23-34.38Z"/><path class="cls-5" d="M60.08,202.45a2.27,2.27,0,0,1,1.31-2.93h0a1.93,1.93,0,0,1,1.49,0,2,2,0,0,1,1,1.08c.44,3.53,1.06,6.25,2.9,9.09.92,1.35,1.78,3.54-1.19,2.88a5.36,5.36,0,0,1-2.72-3.27Z"/><path class="cls-6" d="M75.91,95.85C79.07,91.5,79.74,85,79.67,79s-1.06-11.72-1-17.64c.13-8.49,4.73-16.88,8.22-20.6s8.13-.34,12.47-1.93c4-1.46,8.32-2.2,12.17-.22s5.58.3,8.17,4.79c8,13.84,5.36,29.83,3.09,41.19s-7.35,20.87-16.15,23c-6.4,1.6-13.22-.81-19.42,1.8q1.06-2.25,2.12-4.5a24.48,24.48,0,0,1-12,2.42,32.71,32.71,0,0,1,7.57-7.68A37.66,37.66,0,0,0,74,102.86a30.38,30.38,0,0,0,8-11.81A19.13,19.13,0,0,1,75.91,95.85Z"/><path class="cls-7" d="M286.41,252.94a2.31,2.31,0,0,1-2-1.16L267.27,222V198.56a2.31,2.31,0,0,1,4.61,0v22.21l16.53,28.71a2.31,2.31,0,0,1-2,3.46Z"/><path class="cls-8" d="M311.16,284.47H277.05l-.19-15.19a5,5,0,0,0-5.1-4.92l-1,0V250.69a15.93,15.93,0,0,1,15.93-15.93h.41a24,24,0,0,1,24,24Z"/><path class="cls-7" d="M283.13,278.32,283,269.2a11.17,11.17,0,0,0-6.05-9.75v-8.76a9.78,9.78,0,0,1,9.77-9.77h.41A17.89,17.89,0,0,1,305,258.78v19.54Z"/><path class="cls-9" d="M218.63,350.27a9.17,9.17,0,1,1-9.16-9.17A9.16,9.16,0,0,1,218.63,350.27Z"/><path class="cls-4" d="M209.47,361a10.71,10.71,0,1,1,10.7-10.71A10.72,10.72,0,0,1,209.47,361Zm0-18.34a7.63,7.63,0,1,0,7.63,7.63A7.65,7.65,0,0,0,209.47,342.64Z"/><path class="cls-9" d="M343.67,350.27a9.17,9.17,0,1,1-9.17-9.17A9.16,9.16,0,0,1,343.67,350.27Z"/><path class="cls-4" d="M334.5,361a10.71,10.71,0,1,1,10.71-10.71A10.72,10.72,0,0,1,334.5,361Zm0-18.34a7.63,7.63,0,1,0,7.63,7.63A7.64,7.64,0,0,0,334.5,342.64Z"/><polygon class="cls-8" points="271.44 340.39 221.29 340.39 214.23 280.05 271.44 280.05 271.44 340.39"/><polygon class="cls-10" points="273.86 340.39 324.02 340.39 331.08 280.05 273.86 280.05 273.86 340.39"/><rect class="cls-7" x="212.93" y="280.05" width="59.45" height="4.42"/><rect class="cls-11" x="272.75" y="280.05" width="59.45" height="4.42"/><path class="cls-4" d="M334.5,352.58a2.31,2.31,0,0,1-2.31-2.31v-5.58a10.59,10.59,0,0,0-10.58-10.58H222.35a10.6,10.6,0,0,0-10.58,10.58v5.58a2.31,2.31,0,1,1-4.61,0v-5.58a15.21,15.21,0,0,1,15.19-15.19h99.26a15.22,15.22,0,0,1,15.2,15.19v5.58A2.3,2.3,0,0,1,334.5,352.58Z"/><path class="cls-4" d="M327.72,312.53h-110a2.31,2.31,0,0,1,0-4.62h110a2.31,2.31,0,0,1,0,4.62Z"/><path class="cls-4" d="M272.74,334.11a2.3,2.3,0,0,1-2.31-2.3V268.33a2.31,2.31,0,1,1,4.62,0v63.48A2.31,2.31,0,0,1,272.74,334.11Z"/><path class="cls-4" d="M272.94,214.66h-6.73V195.45a2.14,2.14,0,0,1,2.15-2.14h2.43a2.14,2.14,0,0,1,2.15,2.14Z"/><rect class="cls-4" x="265.5" y="213.25" width="8.15" height="1.41"/><path class="cls-4" d="M334.13,302.78l-31.25-16.11a2.49,2.49,0,0,1-.92-3.61l.09-.13a2.49,2.49,0,0,1,3.34-.75l30.33,18Z"/><path class="cls-4" d="M212.59,302.78l31.24-16.11a2.49,2.49,0,0,0,.92-3.61l-.08-.13a2.49,2.49,0,0,0-3.34-.75l-30.34,18Z"/><path class="cls-4" d="M272.94,334.88a3.08,3.08,0,0,1-2.7-1.59L198.63,203l-33.34-22.14a3.08,3.08,0,1,1,3.41-5.13l34.6,23,.36.67,72,131a3.08,3.08,0,0,1-2.7,4.56Z"/><path class="cls-12" d="M147,288.33c-3,.65-6.87,1.29-11.33,1.85-6.43.83-14,1.48-21.82,1.88-5.79.3-11.7.46-17.3.37-8.71-.07-16.71-.62-22.59-1.85a26.9,26.9,0,0,1-6.4-2.06c-.34-35.49,2.37-63.19,5.54-83,1.08-7,2.25-13,3.39-18.25a.3.3,0,0,1,0-.16c1.66-7.6,3.17-13.11,4.21-16.62a.27.27,0,0,1,0-.15c1.14-3.79,1.85-5.73,1.85-5.85C79.15,154,75.34,144.26,74,134.84c0-.34-.09-.64-.12-1-.46-3.33-.89-6.65-1.35-10-1-7.15-3.76-10.1-6.16-17.83,3.26-4.67,24.22-11.78,25.42-12.25a82.38,82.38,0,0,1,20.78.25c5.54,2,11.42,3.29,13.94,4.89,1.94,16.29-1,43.19-4.92,64.52.24.64.52,1.32.83,2.09.12.28.24.55.37.83s.15.37.21.55c4.43,10.44,14.07,32.94,23,112.62C146.37,282.39,146.71,285.32,147,288.33Z"/><path class="cls-13" d="M74.8,100.58C69.15,103,68,103.76,66.41,106a98.71,98.71,0,0,1,4.2,18.23c.52,3.69.66,6.53,1.15,10.19.4,2.89,2.39,2.14,3.18,5.1C87.89,128.25,84.8,105.67,74.8,100.58Z"/><path class="cls-12" d="M106.18,133.29c0,7.59-5.72,13.74-12.77,13.74s-11.87-3.54-12.31-12.4c-.45-9.18,9.06-15.08,10.88-23.17C93.62,104.21,106.18,125.7,106.18,133.29Z"/><path class="cls-14" d="M95.19,144c-7.45,0-12.53-3.7-13-13a13.73,13.73,0,0,1,.17-2.74,14.1,14.1,0,0,0-1.26,6.38c.44,8.86,5.26,12.4,12.31,12.4a12.68,12.68,0,0,0,11.24-7.21A13,13,0,0,1,95.19,144Z"/><path class="cls-12" d="M105.54,131.46c0,7.59,5.72,13.74,12.77,13.74s11.87-3.54,12.31-12.4c.46-9.18-9.06-15.08-10.88-23.17C118.1,102.38,105.54,123.87,105.54,131.46Z"/><path class="cls-14" d="M116.54,142.13c7.44,0,12.52-3.7,13-13a13,13,0,0,0-.17-2.74,14.1,14.1,0,0,1,1.26,6.38c-.44,8.86-5.26,12.4-12.31,12.4A12.68,12.68,0,0,1,107.07,138,13,13,0,0,0,116.54,142.13Z"/><path class="cls-13" d="M147,279.25c-15.78,4.67-33.17,5.63-52.88,4.12a14.77,14.77,0,0,1-13.56-15.84c2.11-27.64,3.13-64.71,2.07-103.08,17.77,2.52,31.68,2.73,39-1C137,195,142.49,235.14,147,279.25Z"/><path class="cls-13" d="M112.61,94a80.16,80.16,0,0,0-20.77-.25c-.47.17-7.15,2.65-11.32,4.28,6.86,4.51,9.29,11.92,11.32,22.52,4.55.48,22.34-.06,27-.19a56.37,56.37,0,0,0,1.23-24.05C117.13,95.35,115.64,95.13,112.61,94Z"/><path class="cls-5" d="M112.57,93.47c5.52,17.38-17.73,17.76-20.73.32l.38-15H112.5Z"/><path class="cls-1" d="M102.73,39.85h.5c9.64.27,17.23,7.83,17,16.89a48.13,48.13,0,0,1-.47,5.24,1.59,1.59,0,0,1,1.16-.24c1.52.31,2.31,3.06,1.78,6.13-.44,2.48-1.61,4.4-2.85,4.88a1.48,1.48,0,0,1-.88.09,1.09,1.09,0,0,1-.27-.11c-1.19,4.79-2.66,8.54-4.19,10.29-2,2.25-3.35,4-4.65,5.25a9.39,9.39,0,0,1-14.17,0C94.34,87,93,85.27,91,83c-1.53-1.75-3-5.5-4.18-10.29a1.36,1.36,0,0,1-.28.11,1.48,1.48,0,0,1-.88-.09c-1.24-.48-2.4-2.4-2.85-4.88-.53-3.07.26-5.82,1.78-6.13a1.59,1.59,0,0,1,1.16.24,48.13,48.13,0,0,1-.47-5.24c-.28-9.06,7.31-16.62,17-16.89Z"/><path class="cls-6" d="M97.41,58.13c-2.21,3.39-4.81,5.33-8.28,5.11,1.92-.75,2.82-3.5,3.59-5.48-1.39,1.12-2.2,3.07-3.94,3.36,1.44-1.67.17-2.89,1.87-6.19-2.14,4.32-5.28,9.28-8.61,9.28-.78-5.73-2.31-15.68,5.81-24.49,3-3.23,19.33-11.64,31.15,2.38,2.46,2.91,3.86,11.25,4.33,16.2-6.16-15.44-13.68,11.26-31.22,5.63C94.5,63.33,96.55,60.53,97.41,58.13Z"/><path class="cls-1" d="M63.06,198.62l-8.88-.16-2.75-48.67c1.18-3.59,3.26-5.68,8-5.41h.17a8.52,8.52,0,0,1,8,9Z"/><path class="cls-4" d="M178.86,279.9a3.08,3.08,0,0,0-4.33.39l-11.4,13.64L5.09,157.69a3.08,3.08,0,0,0-4,4.66l158.11,136.3-11.59,13.87a3.08,3.08,0,0,0,4.73,4l26.93-32.23A3.08,3.08,0,0,0,178.86,279.9Z"/><path class="cls-5" d="M60,210a2.08,2.08,0,0,1,2.49-1.74h0a2,2,0,0,1,1.52,2.26l-1.68,7.92c-.19,1.15-.71,1.94-2,1.72a2,2,0,0,1-1.11-2.28Z"/><path class="cls-5" d="M56,210.15a2.07,2.07,0,0,1,2.27-2h0a2,2,0,0,1,1.78,2.07l-.74,8.06c0,1.16-.59,2.13-1.76,1.93a1.94,1.94,0,0,1-1.37-2.12Z"/><path class="cls-5" d="M52.49,209.44a2,2,0,0,1,2-2.11h0a1.91,1.91,0,0,1,1.86,1.82l0,7.71c0,1.1-.3,2.14-1.52,2a1.86,1.86,0,0,1-1.47-1.91Z"/><path class="cls-5" d="M49.11,208.7a1.86,1.86,0,0,1,1.72-2.11h0a1.79,1.79,0,0,1,1.86,1.58l.46,7.21c.12,1-.15,2.12-1.28,2a1.74,1.74,0,0,1-1.5-1.68Z"/><path class="cls-1" d="M61.65,213.32h0A2,2,0,0,1,60,211a1.91,1.91,0,0,1-2.2,1.64h0a2,2,0,0,1-1.58-2.3l.08-.58a1.89,1.89,0,0,1-2.18,1.62h0a2,2,0,0,1-1.59-2.29l.1-.63a1.68,1.68,0,0,1-1.95,1.44h0A1.72,1.72,0,0,1,49.12,208l.12-.73s1-8,4.51-11.4a.21.21,0,0,0,.22-.15.27.27,0,0,0,.06-.12l1.23-6.29a.33.33,0,0,1,.37-.27l.16,0,3.94.85c1.4,2.13,2.2,3.34,3.59,5.47l-.35,1.8,0,.15A19.71,19.71,0,0,1,64,210.44l-.19,1.25A1.89,1.89,0,0,1,61.65,213.32Z"/><path class="cls-7" d="M180,339.58a14.77,14.77,0,0,0-1.48-1.48c-1.41-1.29-2.77-2.46-3.14-4.43l-1.53,4.74a4.12,4.12,0,0,1-1.14,2.31,4.23,4.23,0,0,1-5.91.3v0s-.06,0-.1-.06l-.58-.52a4,4,0,0,0-2-1.26c-.19,0-.43.27-.68.74a3.28,3.28,0,0,1-5.69.15,23.08,23.08,0,0,0-1.45-2.19c-1.26-1.66-2.68-2.8-4.28-2.61-.55-8.34-1.2-13.94-1.75-22.29-.06-1.26-.77-2.18-.4-3.38a16.11,16.11,0,0,1,3.23-4.83c6.06-6.87,11.33-13.85,17.42-20.72.52-.58,3.26-3.6,4.06-3.72s1.82,3.11,2,4C180.35,302,182.57,321.7,180,339.58Z"/><path class="cls-15" d="M92.88,165.68c-.62.46-1.2,1-1.79,1.48a39.77,39.77,0,0,0-8.15,11.14,88.42,88.42,0,0,0-4.06,9.23.1.1,0,0,1,0,.1c-1.07,3-2.12,6.06-3.07,9.35-.9,3.08-1.76,6.31-2.56,9.61l-.09-1.11c1.08-7,2.25-13,3.39-18.25a.3.3,0,0,1,0-.16c1.66-7.6,3.17-13.11,4.21-16.62a.27.27,0,0,1,0-.15c1.14-3.79,1.85-5.73,1.85-5.85C79.15,154,75.34,144.26,74,134.84c0-.34-.09-.64-.12-1l4.49-20.22C80.57,134.94,82.51,152.32,92.88,165.68Z"/><path class="cls-1" d="M73.23,140,65,161.11,63.64,160,51.43,149.79,56.65,134a28.38,28.38,0,0,0,12.84,5.45C70.74,139.68,72,139.83,73.23,140Z"/><path class="cls-13" d="M76.19,132.33l-2.13,5.48L73.23,140c-1.24-.13-2.49-.28-3.74-.51A28.38,28.38,0,0,1,56.65,134l8.44-25.65c3.18-7.25,8.41-6,10.93-5C79.29,111.77,79.54,121.37,76.19,132.33Z"/><path class="cls-16" d="M82.94,211.47c-.3,20.8-1.16,40-2.38,56.06a14.77,14.77,0,0,0,13.56,15.84C112.6,284.79,129,284,144,280,114.33,260,92.15,242.67,82.94,211.47Z"/><path class="cls-3" d="M166.5,339.79c.09.4.15.8.28,1.2,0,0-.06,0-.1-.06l-.58-.52a4,4,0,0,0-2-1.26c-.19,0-.43.27-.68.74a3.28,3.28,0,0,1-5.69.15,23.08,23.08,0,0,0-1.45-2.19c-.28-8.8-.61-17.63-.92-26.46a177.15,177.15,0,0,0,5.32,25,73.9,73.9,0,0,0,.46-22.9C162.9,322.25,164.72,331,166.5,339.79Z"/><path class="cls-3" d="M178.5,338.1c-1.41-1.29-2.77-2.46-3.14-4.43l-1.53,4.74a4.12,4.12,0,0,1-1.14,2.31c.27-14.31-.8-28.63-1.91-42.91Q174.61,317.94,178.5,338.1Z"/><path class="cls-12" d="M478.32,152.33a1.94,1.94,0,0,1,.3-.13,6.22,6.22,0,0,1,5-.2.08.08,0,0,0,.07,0,11.29,11.29,0,0,1,5.92,5.91,9.4,9.4,0,0,1,.74,2.55,5.32,5.32,0,0,1,0,1.59l.23-.14c.86-.47,1.69-1,2.48-1.45.61-.38,1.19-.76,1.75-1.12l.25-.17,2.78-2,.25-.2c10.74-8.17,15-17.31,20.35-25.76v0c.48-.76,1-1.5,1.45-2.23.38-.91.73-1.78,1-2.61,5.53-14.18,4.5-18,9-39.18,2.1-8.57-1.9-16.82-10.15-20,0,0-8.1,1.81-10.78,11.82-5.49,20.47-5.75,26.65-6.61,38.56Z"/><path class="cls-17" d="M494.87,159.36l.25-.17,2.78-2,.25-.2c10.74-8.17,15-17.31,20.35-25.76.26,3.51.56,7,.86,10.6l3-2.15L521,126.39l-4.06-39.73-5.24,43Z"/><path class="cls-12" d="M515.22,198.92h0l5.06.3,11.77.71,6.2.36,6.5.4,2.73.16,3.32.2,8.6.51h0l6.61.4,6.55.38,7.52.45a17.79,17.79,0,0,0,.78-1.87v0c2.86-8,1.82-25.38-.86-37.11l-3.78-.24L545,161.69l-5.07-.3-1.16-.07-3.65-.23L533,161l-1.25-.09-3.41-.2-1.21-.08-2.29-.13-3-.18,0,.18-.46,3.31-.48,3.3L520,172.6l-2.41,16.89-1.7,6.77c-.09.34-.17.66-.24,1s-.14.57-.21.83Z"/><path class="cls-12" d="M547.28,199.25c.07.53.15,1.06.22,1.6,0,.18,0,.38.08.56q.66,4.78,1.27,9.38c2.61,19.82,4.66,36.88,9.77,51.51l3.34-.25,12.57-.9,10.13-.73a159.65,159.65,0,0,0-3.77-59.5v0a20.77,20.77,0,0,0-7.72-5.47c-6.38-2.56-13.8-1.52-21.81,1.88v0c-.56.23-1.12.48-1.68.74C548.88,198.44,548.09,198.84,547.28,199.25Z"/><path class="cls-12" d="M558.62,262.3c3.13,22,3.85,46.05,7.69,67.52.5,2.76.83,7.16,1.42,9.84,8.18,1.57,16.63-1.79,24.93,2,4.56-25.07,2.93-63.08-8-81.21-2.33-3.85-4.66-5.56-7.27-5.85-4.15-.52-9,2.53-15.53,6C560.84,261.13,559.76,261.71,558.62,262.3Z"/><path class="cls-4" d="M558.61,355h35c.5-7.75.11-11.08-1.75-16.25-5.88-3.42-15.93-3-25.33,1.45l-3.88,1.6a9.74,9.74,0,0,0-4.08,7.92Z"/><path class="cls-12" d="M518.5,131.23v0c.26,3.51.56,7,.86,10.6q.51,5.93,1,11.85c.2,2.27.38,4.53.58,6.78.1,1.11.18,2.2.28,3.31H580l1.7-21.93,3.36-43.46,2.23-28.88-.64-.18L565,63.24l-24,0-21.21,4c-1.64,5.18-2.52,11.79-2.86,19.41C516.33,99.38,517.21,114.9,518.5,131.23Z"/><path class="cls-17" d="M522.23,152.56l0,.05,5.88,7.87.15.21,2.32,3.1,2.59-.68.12,0,1.45-.37,1.37-.36.62-.15,3.14-.81,5.14-1.34L577,151.8l-.71,11.75,0,.24-.07,1.17c.7,7.31-.53,21-3,30.47a38.7,38.7,0,0,1-1.62,5.14c.36.58.71,1.17,1,1.77,8.35,15,9.62,37.38,4.8,52.23a37.8,37.8,0,0,1-2.86,6.58,21.16,21.16,0,0,1-4.42,5.55c21.28.55,20.6,43.75,22.55,74.93,4.56-25.07,2.93-63.08-8-81.21a159.65,159.65,0,0,0-3.77-59.5v0c2.86-8,1.82-25.38-.86-37.11l1.7-21.93c6.2-8.68,10.3-20.2,13.87-34.5l-10.51-9L573,88.1l-14.37,32.07-12,10.67Z"/><path class="cls-1" d="M506.62,169.64a5.12,5.12,0,0,0,3.58-2.32,12.24,12.24,0,0,1,3-3.23,8.06,8.06,0,0,0,2.25-1.38,2.78,2.78,0,0,0,.45-2.5,6.16,6.16,0,0,0-1.31-2.27c-2,1.15-4.43,1.61-5.94,3.33s-1.67,4-2.84,5.88c-.35.55-.8,1.19-.55,1.8A1.4,1.4,0,0,0,506.62,169.64Z"/><path class="cls-1" d="M484.26,170.82a5.13,5.13,0,0,1,.16-4.26,12,12,0,0,0,1.25-4.2,8.34,8.34,0,0,1,0-2.64,2.77,2.77,0,0,1,1.92-1.67,6,6,0,0,1,2.63,0c0,2.28.87,4.63.18,6.8s-2.62,3.5-3.6,5.45c-.3.58-.61,1.3-1.26,1.4A1.41,1.41,0,0,1,484.26,170.82Z"/><path class="cls-7" d="M428,301.65a3.31,3.31,0,0,0,2.94-1.78l69.75-134.56a3.31,3.31,0,1,0-5.87-3L425.1,296.82a3.3,3.3,0,0,0,2.93,4.83Z"/><path class="cls-4" d="M475,355h46.21a29.79,29.79,0,0,0,0-14.8c-6.11-5.95-14.08-8.46-23.86-7.63-2.89,4.7-10.77,8.85-16.35,11.34a10.07,10.07,0,0,0-6,9.21Z"/><path class="cls-12" d="M505.16,252.38l4.08,1.26,15.11,4.66,5.74,1.79,1.07-2v0a217.71,217.71,0,0,0,17.69-47.26c.76-3.18,1.39-6.19,1.84-8.95,0-.26.1-.53.13-.79.18-1,.31-2,.43-2.88,0-.28.08-.56.11-.84v0c-3.25-8.43-11.49-9.58-21.21-9l-1,0c-1.85.14-3.73.32-5.65.52s-3.95.43-5.95.62l-.1,0c-.53,2.3-1.08,4.53-1.6,6.75-.09.34-.17.66-.24,1s-.14.57-.21.83a8.34,8.34,0,0,0-.2.83c-4.81,19.7-9.26,36.55-10,52.14C505.19,251.51,505.17,251.94,505.16,252.38Z"/><path class="cls-12" d="M497.39,332.55c7.55,3.21,16.31,2.23,23.59,7.46a1.48,1.48,0,0,1,.25.16c.26-.63.52-1.27.77-1.95.93-2.38,1.82-5,2.68-7.69l.23-.77a216.4,216.4,0,0,0,6-24.64c0-.1,0-.18,0-.26,3.62-19.86,4.6-39.76.25-46.79v0a28.51,28.51,0,0,0-3.87-5.37l-.15-.16c-4.18-4.32-8.77-4.53-16.56-2.78-1.64.36-3.42.81-5.36,1.32,0,0-.05,0-.06,0C503.35,276.07,497.09,308.56,497.39,332.55Z"/><path class="cls-5" d="M540.76,48.77,541,63.22c.31,9.5,23,10.47,24,0l.17-15.16Z"/><path class="cls-1" d="M531.16,34.45c.6,2.6,1.87,6.09,3.31,6.62a1.84,1.84,0,0,0,2.35-.48c.76,3.73,1.07,7.09,2.41,9.07a62.07,62.07,0,0,0,3.93,5.44c2.57,3,4.7,3.77,9.61,3.8h.07c4.91,0,7-.69,9.65-3.67a60,60,0,0,0,4-5.4c1.36-2,1.72-5.31,2.53-9a1.83,1.83,0,0,0,2.35.51c1.45-.51,2.76-4,3.39-6.57.56-2.24,0-4-1.09-4.74a1.9,1.9,0,0,0-1.19-.4h0a2.77,2.77,0,0,0-1.34.38,33.83,33.83,0,0,0,.61-4.44,22.4,22.4,0,0,0-.64-7.61,16.77,16.77,0,0,0-3.85-7l0,0a18.65,18.65,0,0,0-12.43-5.62h-.07c-.51,0-1-.07-1.55-.07-8.66,0-15.92,4.45-18.17,12.75a23,23,0,0,0-.68,7.36,36.24,36.24,0,0,0,.56,4.46,2.81,2.81,0,0,0-1.35-.4,2.08,2.08,0,0,0-1.37.5C531.16,30.62,530.67,32.32,531.16,34.45Z"/><path class="cls-4" d="M533.51,29.34A4.79,4.79,0,0,1,536,32.8a25.21,25.21,0,0,1,.68,3.7c1.19.33,1.72.42,2.79.78-.26-1.07-.49-2.1-.71-3.09a53.37,53.37,0,0,1-1.39-12.91,23.77,23.77,0,0,1,.37-3.36c1.45-7.65,6.53-8,8.38-8.33a70.92,70.92,0,0,1,14,.08c1.67.35,5.94.7,7.76,6.37a14.38,14.38,0,0,1,.46,1.88c.68,3.54.55,8.66-1.12,16.14-.24,1.07-.5,2.21-.81,3.4,1.09-.36,1.62-.43,2.81-.76a23.51,23.51,0,0,1,.84-4.08,4.72,4.72,0,0,1,2.38-3h0a39.18,39.18,0,0,0,.14-11.67,21.65,21.65,0,0,0-3.78-8.78c-5-7.44-23.94-9-31.45-.21a17,17,0,0,0-4.18,9A43,43,0,0,0,533.51,29.34Z"/><path class="cls-4" d="M559.67,5.22a8.13,8.13,0,0,1,3.83,1.2c1.69.93,6,7.17,5.09,8.63-3.64,6-14.93,7.66-22.9,7.88.88-.67,2.38-2,2.67-3.29a21.16,21.16,0,0,1-13.79,1.11c1.42-3.89,2.94-7.94,6-10.78a17.86,17.86,0,0,1,9.05-4.2A53,53,0,0,1,559.67,5.22Z"/><path class="cls-9" d="M416.22,286.67H431.1a8.47,8.47,0,0,1,8.47,8.47v17.38H407.75V295.14A8.47,8.47,0,0,1,416.22,286.67Z"/><rect class="cls-7" x="407.75" y="299.59" width="31.82" height="25.85"/><path class="cls-9" d="M381.71,333.82h83.9L451.88,321.5a8.39,8.39,0,0,0-5.6-2.15H401a8.39,8.39,0,0,0-5.6,2.15Z"/><path class="cls-7" d="M379.23,339.82h88.86v-3.44a5.38,5.38,0,0,0-5.37-5.38H384.6a5.37,5.37,0,0,0-5.37,5.38Z"/><path class="cls-18" d="M435.09,313.78a.69.69,0,0,0,.69.69h0a.69.69,0,0,0,.69-.69V303.17a.68.68,0,0,0-.69-.68h0a.68.68,0,0,0-.69.68Z"/><path class="cls-18" d="M432.06,313.78a.69.69,0,0,0,.69.69h0a.69.69,0,0,0,.69-.69V303.17a.68.68,0,0,0-.69-.68h0a.68.68,0,0,0-.69.68Z"/><path class="cls-18" d="M429,313.78a.69.69,0,0,0,.69.69h0a.69.69,0,0,0,.69-.69V303.17a.68.68,0,0,0-.69-.68h0a.68.68,0,0,0-.69.68Z"/><path class="cls-18" d="M426,313.78a.69.69,0,0,0,.69.69h0a.69.69,0,0,0,.69-.69V303.17a.68.68,0,0,0-.69-.68h0a.68.68,0,0,0-.69.68Z"/><path class="cls-18" d="M423,313.78a.69.69,0,0,0,.69.69h0a.69.69,0,0,0,.69-.69V303.17a.68.68,0,0,0-.69-.68h0a.68.68,0,0,0-.69.68Z"/><path class="cls-18" d="M419.94,313.78a.69.69,0,0,0,.69.69h0a.69.69,0,0,0,.69-.69V303.17a.68.68,0,0,0-.69-.68h0a.68.68,0,0,0-.69.68Z"/><path class="cls-18" d="M416.91,313.78a.69.69,0,0,0,.69.69h0a.69.69,0,0,0,.69-.69V303.17a.68.68,0,0,0-.69-.68h0a.68.68,0,0,0-.69.68Z"/><path class="cls-18" d="M413.88,313.78a.69.69,0,0,0,.69.69h0a.69.69,0,0,0,.69-.69V303.17a.68.68,0,0,0-.69-.68h0a.68.68,0,0,0-.69.68Z"/><path class="cls-18" d="M410.85,313.78a.69.69,0,0,0,.69.69h0a.68.68,0,0,0,.68-.69V303.17a.67.67,0,0,0-.68-.68h0a.68.68,0,0,0-.69.68Z"/><rect class="cls-8" x="402.93" y="316.4" width="41.47" height="2.95"/><rect class="cls-18" x="382.4" y="339.82" width="82.52" height="2.2"/><polygon class="cls-8" points="379.5 354.98 467.82 354.98 464.93 342.03 382.4 342.03 379.5 354.98"/><polygon class="cls-16" points="463.69 344.1 462.91 354.98 467.24 354.98 463.69 344.1"/><polygon class="cls-16" points="455.55 344.1 454.53 354.98 462.91 354.98 460.93 349.06 458.86 353.84 455.55 344.1"/><polygon class="cls-16" points="447.57 343.12 445.39 354.98 448.81 354.98 447.57 343.12"/><polygon class="cls-16" points="443.7 346.3 442.06 354.98 444.87 354.98 443.7 346.3"/><polygon class="cls-16" points="427.38 346.16 425.68 354.98 434.48 354.98 432.06 343.12 429.73 353.84 427.38 346.16"/><polygon class="cls-16" points="423.66 350.21 421.84 354.98 424.97 354.98 423.66 350.21"/><polygon class="cls-16" points="418.29 342.58 414.98 354.98 421.02 354.98 418.29 342.58"/><polygon class="cls-16" points="407.74 342.99 405.51 354.98 409.06 354.98 407.74 342.99"/><polygon class="cls-16" points="404.2 343.3 401.41 354.98 405.26 354.98 404.2 343.3"/><polygon class="cls-16" points="398.8 343.95 395.76 354.98 400.96 354.98 397.82 354.36 398.8 343.95"/><polygon class="cls-16" points="389.01 348.05 386.86 354.98 392.48 354.98 393.01 343.4 389.01 354.94 389.01 348.05"/><polygon class="cls-16" points="380.12 354.98 383.42 354.98 383.64 343.92 380.12 354.98"/><path class="cls-7" d="M464.77,167.1H530.1a3.31,3.31,0,0,0,0-6.62H464.77a3.31,3.31,0,0,0,0,6.62Z"/><path class="cls-1" d="M484.2,169.24a11.19,11.19,0,0,0,1.89-1.6c.71-1.16-1-2.26,0-3.16a2.87,2.87,0,0,1,1.34-.53,4.1,4.1,0,0,0,3-1.88,3.73,3.73,0,0,0,.29-1.4,8.26,8.26,0,0,0-2.27-5.79,10.67,10.67,0,0,0-5.48-3.06,7.65,7.65,0,0,0-1.9-.22,10.45,10.45,0,0,0-4.67,1.77l-9.13,5.26a2.79,2.79,0,0,0-1.91,3l-.09,6.41a3.53,3.53,0,0,0,.24,1.65,1.85,1.85,0,0,0,2.25.86,1.69,1.69,0,0,1,.85-.26,1.62,1.62,0,0,1,.63.39,2.31,2.31,0,0,0,2.75,0,1.2,1.2,0,0,1,.6-.33c.33,0,.55.31.76.56a2.34,2.34,0,0,0,3.57-.27c1,.85,1.9,1.34,3.18,1A17.1,17.1,0,0,0,484.2,169.24Z"/><path class="cls-7" d="M482.56,167.1h13.33a3.31,3.31,0,0,0,0-6.62H482.56a3.31,3.31,0,1,0,0,6.62Z"/><path class="cls-19" d="M533.51,29.34A4.79,4.79,0,0,1,536,32.8l1.44.76c.45.23.88.45,1.32.63,9.28,4.31,18.78,4.41,28.51-.13.41-.17.81-.37,1.22-.57s1.07-.56,1.62-.87a4.72,4.72,0,0,1,2.38-3h0a39.18,39.18,0,0,0,.14-11.67H533.21A43,43,0,0,0,533.51,29.34Z"/><path class="cls-13" d="M550.12,0h5.75a17.58,17.58,0,0,1,17.58,17.58l-.38,6.05a106.4,106.4,0,0,0-40.17-.24l-.36-5.81A17.58,17.58,0,0,1,550.12,0Z"/><path class="cls-20" d="M571.75,23.05a5,5,0,0,1-.65,1.61,7.14,7.14,0,0,1-7.61,4.39c-1.84-.35-3.46-1.48-5.19-2.26a11.8,11.8,0,0,0-10.61,0c-1.73.78-3.35,1.91-5.19,2.26a7.16,7.16,0,0,1-7.62-4.39,5.4,5.4,0,0,1-.64-1.61C540.18,15.8,565.57,15.83,571.75,23.05Z"/><path class="cls-12" d="M558.69,62.85a17.68,17.68,0,0,0,6.49-5.57l1.45,6.41c-.65,5.41-7.61,9.06-11.85,7.44l.75-4.33A5.36,5.36,0,0,1,558.69,62.85Z"/><path class="cls-12" d="M546.65,62.52a10.09,10.09,0,0,1-5.77-5.24l-1.46,6.41c.65,5.41,6.82,8.64,11.06,7l-.42-3.87A5.27,5.27,0,0,0,546.65,62.52Z"/><path class="cls-21" d="M542.59,169.64h4.46c0-17.76,4.22-79.46,7.54-98.56l-4.39-.76C546.85,89.59,542.59,151.76,542.59,169.64Z"/><path class="cls-1" d="M528.59,170.24a11.78,11.78,0,0,0,1.9-1.69c.71-1.22-1-2.39,0-3.34a3,3,0,0,1,1.35-.56,4.08,4.08,0,0,0,3-2,3.88,3.88,0,0,0,.28-1.47,9,9,0,0,0-2.26-6.12,10.58,10.58,0,0,0-5.49-3.24,7.17,7.17,0,0,0-1.9-.23,10.08,10.08,0,0,0-4.66,1.87L511.65,159a3.78,3.78,0,0,0-1.7,1.63,4.19,4.19,0,0,0-.21,1.5l-.09,6.77a4,4,0,0,0,.24,1.75,1.79,1.79,0,0,0,2.24.9,1.73,1.73,0,0,1,.85-.27,1.63,1.63,0,0,1,.64.41,2.2,2.2,0,0,0,2.75,0,1.13,1.13,0,0,1,.6-.35c.32,0,.54.33.75.59a2.27,2.27,0,0,0,3.58-.29c1,.91,1.89,1.43,3.17,1A16.76,16.76,0,0,0,528.59,170.24Z"/><path class="cls-12" d="M522.23,152.56h.14c5-.18,9.21,3.85,10.46,7.92a2.17,2.17,0,0,1,.13.5,6,6,0,0,1,.25,1.72s0,0,0,0a2.36,2.36,0,0,1,0,.38,3.07,3.07,0,0,1,0,.68l.23-.1,1.06-.47,1.73-.77.57-.25,2-.88,6.35-2.82,36.24-16.07.39-.57c6.2-8.68,10.3-20.2,13.87-34.5,1.28-5.11,2.48-10.58,3.71-16.4,2.1-8.56-.51-17.42-8.76-20.57l-3.23-.87-.64-.18-5.14-1.41c-3.23,6.78-6.1,13.61-8.55,20.17-4.85,13.11-8,25.23-8.61,34.27l-18,12.91Z"/><path class="cls-7" d="M528.05,167.1h5.14a3.31,3.31,0,0,0,0-6.62h-5.14a3.31,3.31,0,1,0,0,6.62Z"/><polygon class="cls-22" points="524.8 99.03 539.42 99.72 540.01 93.76 525.44 93.14 524.8 99.03"/><path class="cls-17" d="M521,340c0,.34.1.41.25.16.9-1.39,2.08-4.79,3.45-9.64l.23-.77c1.76-6.34,3.8-14.93,6-24.64,0-.1,0-.18,0-.26,3.62-19.86,4.6-39.76.25-46.79v0a217.71,217.71,0,0,0,17.69-47.26l10.57-9.23a42.2,42.2,0,0,1-8.73.28,29.51,29.51,0,0,1-3.11-.43,24.57,24.57,0,0,1-2.81-.72c-5.81-1.89-10.43-5.89-14.62-12.39-.64-1-1.27-2.05-1.9-3.17.33,1.09.65,2.17.94,3.22q1.74,6.08,2.88,11.58h0c4.28,20.31,2.74,35.49-5,52.59-.86,1.9-1.78,3.81-2.79,5.78C531.62,280,520.63,335.39,521,340Z"/></svg>