<svg xmlns="http://www.w3.org/2000/svg" viewBox="0 0 400 359.72"><defs><style>.cls-1{isolation:isolate;}.cls-2,.cls-3{fill:#d3d3d3;}.cls-16,.cls-3{opacity:0.99;}.cls-4{fill:#28336a;mix-blend-mode:overlay;}.cls-5{fill:#5f65bd;}.cls-6{fill:#fff;}.cls-7{fill:#8b92d5;}.cls-8{fill:#2b395c;}.cls-9{fill:#0098b4;}.cls-10{fill:#00b7d7;}.cls-11{fill:#00a4c0;}.cls-12{fill:#e67b3b;}.cls-13{fill:#ff9e66;}.cls-14,.cls-16{fill:#000138;}.cls-15{fill:none;stroke:#ec894b;stroke-linecap:round;stroke-linejoin:round;stroke-width:0.37px;}.cls-17{fill:#3c459c;}.cls-18{fill:#005676;}.cls-19{fill:#8750a8;}.cls-20{fill:#6a4289;}</style></defs><g class="cls-1"><g id="Layer_1" data-name="Layer 1"><path class="cls-2" d="M337.17,333.44c0,4.31-3.53,7.71-6.94,10.33v0H210.8c-2.82.44-14-4.15-13.37-7.25s3.75-4.71,6.58-5.91c5.44-2.27,11.56-4.21,17.11-2.24a66.74,66.74,0,0,1-7.81-18.74c-1.09-4.49-1.45-9.93,2-13,3.78-3.35,9.77-1.75,14.13.8a56.13,56.13,0,0,1,15.7,14.32c.72-9.49,1.53-19.29,6-27.68a16.31,16.31,0,0,1,4.66-5.77,8,8,0,0,1,7.09-1.33,10,10,0,0,1,4.52,3.69c6.28,8.33,6.56,19.64,5.79,30a98.24,98.24,0,0,1,21-15.1,26.24,26.24,0,0,1,8.87-3.26,9.08,9.08,0,0,1,6.53,1.35c2.45,1.81,3.27,5.25,2.7,8.25a19.35,19.35,0,0,1-4.23,8,57.74,57.74,0,0,1-12.34,11.53c11-1.38,22.63-2.68,32.8,1.73C332.9,325.14,337.17,328.74,337.17,333.44Z"/><path class="cls-2" d="M224.75,300.06l-3.37-.82c-.47-.12-.61.63-.14.74l3.36.82C225.07,300.92,225.22,300.17,224.75,300.06Z"/><path class="cls-2" d="M228.7,300.57c-.27,1-.54,1.91-.8,2.86-.13.47.61.61.74.15.27-1,.53-1.91.8-2.86C229.57,300.25,228.83,300.11,228.7,300.57Z"/><path class="cls-2" d="M224.89,306.24c-.3-1-.61-1.91-.91-2.86-.14-.47-.85-.21-.71.25l.9,2.86C224.32,307,225,306.7,224.89,306.24Z"/><path class="cls-2" d="M221.19,306.63l-2.24.46c-.47.09-.42.85.06.75l2.23-.46C221.71,307.29,221.66,306.53,221.19,306.63Z"/><path class="cls-2" d="M219,302.77l-1.22-2.44c-.22-.43-.93-.18-.72.25l1.23,2.45C218.49,303.46,219.2,303.21,219,302.77Z"/><path class="cls-2" d="M215.73,305.26l-1,3.16c-.15.46.59.6.74.14l1-3.16C216.62,304.94,215.88,304.8,215.73,305.26Z"/><path class="cls-2" d="M218.89,312.8l-2.25-1.31c-.42-.24-.75.44-.33.68l2.25,1.31C219,313.72,219.31,313,218.89,312.8Z"/><path class="cls-2" d="M222.91,311l-2.45-.61c-.47-.12-.61.62-.14.74l2.44.62C223.23,311.84,223.38,311.1,222.91,311Z"/><path class="cls-2" d="M227.21,308.53c-.2.85-.41,1.7-.61,2.55-.11.48.63.62.74.15.21-.85.41-1.7.61-2.55C228.06,308.2,227.32,308.06,227.21,308.53Z"/><path class="cls-2" d="M232.13,315.49l-3.36-.82c-.48-.12-.62.62-.15.74l3.36.82C232.46,316.34,232.6,315.6,232.13,315.49Z"/><path class="cls-2" d="M236.08,316c-.27.95-.53,1.91-.8,2.86-.13.47.61.61.74.15.27-1,.54-1.91.8-2.86C237,315.68,236.21,315.54,236.08,316Z"/><path class="cls-2" d="M232.27,321.66l-.9-2.86c-.15-.46-.86-.2-.71.26l.9,2.86C231.7,322.38,232.41,322.13,232.27,321.66Z"/><path class="cls-2" d="M228.57,322.06l-2.23.45c-.47.1-.42.86,0,.76l2.24-.46C229.1,322.71,229.05,322,228.57,322.06Z"/><path class="cls-2" d="M226.37,318.2l-1.23-2.44c-.22-.43-.93-.18-.71.25.41.82.82,1.63,1.22,2.45C225.87,318.89,226.58,318.64,226.37,318.2Z"/><path class="cls-2" d="M223.11,320.68l-1,3.16c-.15.47.6.61.74.15l1-3.16C224,320.37,223.26,320.23,223.11,320.68Z"/><path class="cls-2" d="M226.27,328.23,224,326.92c-.42-.25-.75.44-.33.68l2.25,1.31C226.36,329.15,226.69,328.47,226.27,328.23Z"/><path class="cls-2" d="M230.29,326.41l-2.45-.61c-.47-.12-.61.62-.14.74l2.44.61C230.62,327.27,230.76,326.53,230.29,326.41Z"/><path class="cls-2" d="M234.59,324c-.2.85-.4,1.7-.61,2.55-.11.47.63.62.74.15.21-.85.41-1.7.61-2.55C235.45,323.63,234.71,323.49,234.59,324Z"/><path class="cls-2" d="M266.94,287.43l-2.19-2.67c-.31-.38-.87.12-.57.5l2.19,2.68C266.68,288.32,267.24,287.81,266.94,287.43Z"/><path class="cls-2" d="M269.78,290.23l-2.36,1.8c-.39.29.12.85.5.56l2.37-1.8C270.67,290.49,270.17,289.93,269.78,290.23Z"/><path class="cls-2" d="M263.33,292.45c.33-.94.67-1.88,1-2.83.16-.45-.56-.68-.72-.22l-1,2.82C262.44,292.68,263.16,292.91,263.33,292.45Z"/><path class="cls-2" d="M260.14,290.53l-2.06-1c-.43-.21-.85.42-.41.63l2.06,1C260.16,291.38,260.58,290.74,260.14,290.53Z"/><path class="cls-2" d="M260.7,286.13c.17-.9.33-1.79.49-2.69.09-.47-.63-.7-.72-.23-.16.9-.33,1.8-.49,2.69C259.89,286.38,260.61,286.61,260.7,286.13Z"/><path class="cls-2" d="M256.61,286.15l-2.72,1.91c-.4.28.11.84.51.56l2.71-1.91C257.51,286.44,257,285.88,256.61,286.15Z"/><path class="cls-2" d="M254.59,294.08c-.34-.8-.68-1.6-1-2.4-.19-.45-.86-.11-.68.34.34.8.68,1.6,1,2.4C254.1,294.87,254.78,294.52,254.59,294.08Z"/><path class="cls-2" d="M258.89,295.05l-1.59-2c-.3-.37-.86.13-.56.51l1.58,2C258.63,295.93,259.19,295.43,258.89,295.05Z"/><path class="cls-2" d="M263.8,295.68l-2,1.67c-.38.31.13.87.5.56l2-1.66C264.68,295.94,264.17,295.37,263.8,295.68Z"/><path class="cls-2" d="M263.54,304.2c-.73-.9-1.46-1.79-2.2-2.68-.3-.38-.87.13-.56.5L263,304.7C263.28,305.08,263.84,304.57,263.54,304.2Z"/><path class="cls-2" d="M266.38,307l-2.36,1.8c-.39.29.12.85.5.56l2.36-1.8C267.27,307.26,266.76,306.7,266.38,307Z"/><path class="cls-2" d="M259.93,309.21c.33-.94.66-1.88,1-2.82a.38.38,0,0,0-.72-.23c-.34.94-.67,1.89-1,2.83C259,309.45,259.76,309.67,259.93,309.21Z"/><path class="cls-2" d="M256.74,307.3l-2.06-1c-.43-.21-.85.43-.41.63l2.06,1C256.76,308.14,257.18,307.51,256.74,307.3Z"/><path class="cls-2" d="M257.3,302.89c.16-.89.33-1.79.49-2.69.09-.47-.63-.7-.72-.22-.16.89-.33,1.79-.49,2.69C256.49,303.14,257.21,303.37,257.3,302.89Z"/><path class="cls-2" d="M253.21,302.91l-2.72,1.91c-.4.28.11.84.51.57l2.71-1.91C254.11,303.2,253.6,302.64,253.21,302.91Z"/><path class="cls-2" d="M251.19,310.84c-.34-.8-.68-1.6-1-2.4-.19-.45-.86-.11-.68.34.34.8.68,1.6,1,2.4C250.7,311.63,251.38,311.28,251.19,310.84Z"/><path class="cls-2" d="M255.49,311.81l-1.59-2c-.3-.38-.86.12-.56.5.53.66,1.06,1.31,1.58,2C255.23,312.69,255.79,312.19,255.49,311.81Z"/><path class="cls-2" d="M260.4,312.45l-2,1.66c-.37.31.13.88.51.57l2-1.67C261.28,312.7,260.77,312.14,260.4,312.45Z"/><path class="cls-2" d="M308.86,302.58l-1-3.3c-.14-.47-.85-.21-.71.25l1,3.31C308.29,303.31,309,303.05,308.86,302.58Z"/><path class="cls-2" d="M308.8,305.17l-2.87.77c-.47.13-.21.84.26.71l2.86-.77C309.52,305.75,309.26,305,308.8,305.17Z"/><path class="cls-2" d="M303.62,305.86l2-2.23c.32-.36-.26-.85-.59-.48l-2,2.23C302.72,305.75,303.3,306.23,303.62,305.86Z"/><path class="cls-2" d="M301.39,302.89l-1.53-1.69c-.33-.35-.95.08-.62.44l1.53,1.68C301.1,303.68,301.72,303.25,301.39,302.89Z"/><path class="cls-2" d="M303.58,299l1.47-2.3c.26-.41-.32-.89-.58-.48l-1.48,2.3C302.74,299,303.32,299.43,303.58,299Z"/><path class="cls-2" d="M299.78,297.5l-3.24.74c-.47.11-.21.82.26.71l3.23-.74C300.51,298.1,300.25,297.39,299.78,297.5Z"/><path class="cls-2" d="M294.92,304.07l0-2.6c0-.49-.76-.42-.76.06l0,2.61C294.17,304.62,294.92,304.56,294.92,304.07Z"/><path class="cls-2" d="M298.53,306.6l-.72-2.42c-.14-.47-.86-.21-.72.25.25.81.49,1.61.73,2.42C298,307.32,298.67,307.06,298.53,306.6Z"/><path class="cls-2" d="M302.84,309l-2.5.78c-.47.14-.21.85.25.71l2.5-.78C303.56,309.6,303.3,308.89,302.84,309Z"/><path class="cls-2" d="M217.59,337.64l-1-3.31c-.14-.47-.85-.21-.71.25l1,3.31C217,338.36,217.73,338.1,217.59,337.64Z"/><path class="cls-2" d="M212.35,340.92c.67-.75,1.34-1.49,2-2.24.32-.36-.26-.84-.58-.48l-2,2.24C211.45,340.8,212,341.28,212.35,340.92Z"/><path class="cls-2" d="M210.12,337.94l-1.53-1.68c-.32-.36-1,.07-.62.43l1.54,1.69C209.83,338.73,210.45,338.3,210.12,337.94Z"/><path class="cls-2" d="M212.31,334.08l1.47-2.31c.26-.4-.32-.89-.58-.48l-1.47,2.3C211.47,334,212.05,334.49,212.31,334.08Z"/><path class="cls-2" d="M208.51,332.55l-3.23.74c-.48.11-.22.82.25.71l3.24-.74C209.24,333.15,209,332.44,208.51,332.55Z"/><path class="cls-2" d="M203.65,339.13l0-2.61c0-.49-.76-.42-.75.06l0,2.61C202.9,339.68,203.65,339.61,203.65,339.13Z"/><path class="cls-2" d="M207.26,341.65l-.72-2.42c-.14-.46-.85-.21-.71.26l.72,2.41C206.69,342.37,207.4,342.11,207.26,341.65Z"/><path class="cls-2" d="M221.86,313.88c-.28,1-.55,2-.82,3.06-.13.47.62.61.74.14.27-1,.55-2,.82-3.05C222.72,313.55,222,313.41,221.86,313.88Z"/><path class="cls-2" d="M221,320.05l-1.6-2.66c-.25-.42-.87,0-.62.43l1.6,2.66C220.64,320.9,221.26,320.47,221,320.05Z"/><path class="cls-2" d="M254.85,300.18l-.93-2.85a.38.38,0,0,0-.72.26l.94,2.85C254.29,300.9,255,300.64,254.85,300.18Z"/><path class="cls-2" d="M250.83,299l-1.54,2.43c-.26.41.42.74.68.33l1.54-2.43C251.77,298.93,251.09,298.6,250.83,299Z"/><path class="cls-2" d="M256.55,284l-2.19-2c-.36-.32-.85.25-.49.58l2.19,2C256.42,284.87,256.92,284.3,256.55,284Z"/><path class="cls-2" d="M264.12,280.37c-.32,1-.64,2-.95,2.94-.15.46.59.6.74.15.32-1,.63-2,.95-2.95C265,280.05,264.26,279.91,264.12,280.37Z"/><path class="cls-2" d="M262.16,280.29l-3.16-.6a.38.38,0,0,0-.14.75L262,281A.38.38,0,0,0,262.16,280.29Z"/><path class="cls-2" d="M249.61,293.7c-.11,1.15-.23,2.31-.34,3.46-.05.48.69.63.74.15.11-1.16.23-2.31.34-3.46C250.4,293.37,249.66,293.22,249.61,293.7Z"/><path class="cls-2" d="M267.44,301.94l-1.63-2.61c-.26-.41-.88,0-.63.43.55.87,1.1,1.74,1.64,2.61C267.08,302.78,267.7,302.35,267.44,301.94Z"/><path class="cls-2" d="M271.7,299.54l-2-2.34c-.31-.37-.94.06-.62.43l2,2.34C271.39,300.33,272,299.91,271.7,299.54Z"/><path class="cls-2" d="M271,302.38l-1,2.44c-.19.45.49.78.68.33l1-2.44C271.89,302.26,271.21,301.93,271,302.38Z"/><path class="cls-2" d="M289.64,301.23l-1.27,2.42c-.23.44.45.77.68.34l1.27-2.42C290.55,301.13,289.87,300.8,289.64,301.23Z"/><path class="cls-2" d="M294.76,298.76l-2.34-.41a.38.38,0,0,0-.15.74l2.34.41C295.09,299.58,295.24,298.84,294.76,298.76Z"/><path class="cls-2" d="M308.18,295l-1,2.25c-.2.44.48.77.68.33.34-.75.67-1.5,1-2.24C309.06,294.9,308.38,294.57,308.18,295Z"/><path class="cls-2" d="M305.83,309.84l-2.14,2.34c-.33.36.25.86.58.5.71-.78,1.42-1.57,2.14-2.35C306.74,310,306.16,309.48,305.83,309.84Z"/><path class="cls-2" d="M305.21,324.45l-3.53-1.51c-.45-.19-.78.49-.33.68l3.53,1.51C305.32,325.32,305.65,324.64,305.21,324.45Z"/><path class="cls-2" d="M309.07,322.5c-.51,1-1,2.07-1.54,3.11a.38.38,0,0,0,.68.33l1.54-3.11A.38.38,0,0,0,309.07,322.5Z"/><path class="cls-2" d="M307.08,329.34l-.79-2.59c-.14-.47-.85-.21-.71.25l.79,2.59C306.51,330.06,307.22,329.8,307.08,329.34Z"/><path class="cls-2" d="M314.65,325.15l-3.67-.1c-.49,0-.43.74,0,.75l3.67.11C315.19,325.92,315.13,325.17,314.65,325.15Z"/><path class="cls-2" d="M319,324.9l-3.37-2.75c-.38-.31-.88.26-.5.57l3.38,2.75C318.92,325.78,319.42,325.2,319,324.9Z"/><path class="cls-2" d="M322.07,323.7l-1.22,2.86c-.19.44.49.78.68.33l1.22-2.86C322.94,323.59,322.26,323.25,322.07,323.7Z"/><path class="cls-2" d="M321.35,328.59l-2.46-1.06c-.44-.19-.78.49-.33.68l2.46,1.06C321.47,329.46,321.8,328.78,321.35,328.59Z"/><path class="cls-2" d="M326.39,326.29l-2.59.79c-.47.15-.21.86.25.71l2.59-.79C327.11,326.85,326.85,326.14,326.39,326.29Z"/><path class="cls-2" d="M328.57,325l-2.72-1.22c-.45-.2-.78.48-.33.68l2.71,1.22C328.68,325.91,329,325.23,328.57,325Z"/><path class="cls-2" d="M242,343.82l-.27-.06H78.64v-.34a51.89,51.89,0,0,1-15-2.22c-3-.9-6.3-2.7-6.42-5.78-.09-2.09,1.43-3.9,3-5.23,5-4.15,11.55-6,18-6.34s12.93.68,19.32,1.72c-4.39-9.78-8.88-20.09-8-30.77.38-4.68,2.66-10.07,7.3-10.8,2.28-.36,4.55.53,6.64,1.51a78.35,78.35,0,0,1,27.4,21.19c-.31-11.42-.47-23.48,5.11-33.45,1-1.8,2.3-3.59,4.22-4.33,2.79-1.06,5.87.46,8.24,2.25,9.42,7.15,14.15,18.93,16.55,30.51a108.63,108.63,0,0,1,21-19.09c4.67-3.25,11-6.15,15.77-3.13,3.51,2.2,4.7,6.71,5.18,10.83,1.26,10.78-.69,22.46-7.82,30.65,9.54-1.23,19.53-2.42,28.55.94S244.12,334.55,242,343.82Z"/><path class="cls-2" d="M101.59,292.87l-3.36-.82c-.47-.11-.62.63-.14.74l3.36.82C101.92,293.73,102.07,293,101.59,292.87Z"/><path class="cls-2" d="M105.55,293.39l-.81,2.86c-.13.46.62.61.75.14.26-.95.53-1.9.8-2.86C106.42,293.06,105.68,292.92,105.55,293.39Z"/><path class="cls-2" d="M101.73,299.05l-.9-2.86c-.14-.46-.86-.21-.71.25l.9,2.86C101.17,299.77,101.88,299.51,101.73,299.05Z"/><path class="cls-2" d="M98,299.44l-2.23.46c-.47.1-.42.85.06.75l2.23-.45C98.56,300.1,98.51,299.34,98,299.44Z"/><path class="cls-2" d="M95.83,295.59l-1.23-2.45c-.21-.43-.93-.18-.71.26l1.23,2.44C95.33,296.27,96.05,296,95.83,295.59Z"/><path class="cls-2" d="M92.58,298.07l-1,3.16c-.15.46.59.6.74.14l1-3.16C93.47,297.75,92.72,297.61,92.58,298.07Z"/><path class="cls-2" d="M95.74,305.61l-2.25-1.31c-.43-.24-.75.44-.34.68l2.26,1.31C95.83,306.54,96.16,305.85,95.74,305.61Z"/><path class="cls-2" d="M99.75,303.8l-2.44-.62c-.47-.12-.62.63-.15.75l2.45.61C100.08,304.66,100.22,303.92,99.75,303.8Z"/><path class="cls-2" d="M104.06,301.35c-.21.85-.41,1.7-.61,2.55-.12.47.63.61.74.14.2-.85.41-1.7.61-2.55C104.91,301,104.17,300.87,104.06,301.35Z"/><path class="cls-2" d="M109,308.3l-3.37-.82c-.47-.11-.61.63-.14.74l3.36.82C109.3,309.16,109.45,308.41,109,308.3Z"/><path class="cls-2" d="M112.93,308.82c-.27.95-.54,1.9-.8,2.85-.13.47.61.61.74.15.27-.95.53-1.91.8-2.86C113.8,308.49,113.06,308.35,112.93,308.82Z"/><path class="cls-2" d="M109.12,314.48c-.3-1-.61-1.91-.91-2.86-.14-.47-.85-.21-.71.25l.9,2.86C108.55,315.2,109.26,314.94,109.12,314.48Z"/><path class="cls-2" d="M105.42,314.87l-2.24.46c-.47.09-.42.85.06.75l2.23-.46C105.94,315.53,105.89,314.77,105.42,314.87Z"/><path class="cls-2" d="M103.21,311,102,308.57c-.22-.43-.93-.18-.72.26l1.23,2.44C102.72,311.7,103.43,311.45,103.21,311Z"/><path class="cls-2" d="M100,313.5l-1,3.16c-.15.46.59.6.74.14l1-3.16C100.85,313.18,100.11,313,100,313.5Z"/><path class="cls-2" d="M103.12,321l-2.25-1.31c-.42-.24-.75.44-.33.68l2.25,1.31C103.21,322,103.54,321.28,103.12,321Z"/><path class="cls-2" d="M107.14,319.23l-2.45-.62c-.47-.12-.61.63-.14.74L107,320C107.46,320.09,107.61,319.34,107.14,319.23Z"/><path class="cls-2" d="M111.44,316.78c-.2.84-.41,1.69-.61,2.54-.11.48.63.62.74.15.21-.85.41-1.7.61-2.55C112.3,316.45,111.55,316.3,111.44,316.78Z"/><path class="cls-2" d="M150.78,280.08l-2.19-2.68c-.31-.38-.87.13-.56.5l2.19,2.68C150.53,281,151.09,280.46,150.78,280.08Z"/><path class="cls-2" d="M153.62,282.87l-2.36,1.8c-.39.3.12.86.51.56l2.36-1.79C154.52,283.14,154,282.58,153.62,282.87Z"/><path class="cls-2" d="M147.17,285.09l1-2.82c.17-.46-.56-.68-.72-.23-.33.95-.67,1.89-1,2.83C146.29,285.33,147,285.55,147.17,285.09Z"/><path class="cls-2" d="M144,283.18l-2.06-1c-.43-.21-.84.43-.41.64l2.06,1C144,284,144.42,283.39,144,283.18Z"/><path class="cls-2" d="M144.54,278.77c.17-.89.33-1.79.5-2.69.08-.47-.64-.7-.72-.22-.17.9-.33,1.79-.5,2.69C143.74,279,144.46,279.25,144.54,278.77Z"/><path class="cls-2" d="M140.45,278.8l-2.72,1.9c-.39.28.12.84.51.57l2.72-1.91C141.35,279.08,140.84,278.52,140.45,278.8Z"/><path class="cls-2" d="M138.43,286.72l-1-2.4c-.19-.45-.86-.1-.67.34.33.8.67,1.6,1,2.4C138,287.51,138.62,287.17,138.43,286.72Z"/><path class="cls-2" d="M142.73,287.69l-1.58-2c-.31-.38-.87.13-.57.5l1.59,2C142.47,288.58,143,288.07,142.73,287.69Z"/><path class="cls-2" d="M147.64,288.33l-2,1.67c-.38.31.13.87.5.56l2-1.67C148.52,288.58,148,288,147.64,288.33Z"/><path class="cls-2" d="M147.38,296.84l-2.19-2.68c-.31-.37-.87.13-.56.51l2.19,2.68C147.12,297.72,147.69,297.22,147.38,296.84Z"/><path class="cls-2" d="M150.22,299.63l-2.36,1.8c-.39.3.12.86.51.57l2.36-1.8C151.12,299.9,150.61,299.34,150.22,299.63Z"/><path class="cls-2" d="M143.77,301.86c.33-.95.67-1.89,1-2.83.17-.46-.56-.68-.72-.22l-1,2.82C142.88,302.09,143.61,302.32,143.77,301.86Z"/><path class="cls-2" d="M140.58,299.94l-2.06-1c-.43-.2-.85.43-.41.64l2.06,1C140.6,300.78,141,300.15,140.58,299.94Z"/><path class="cls-2" d="M141.14,295.54c.17-.9.33-1.8.5-2.69.08-.48-.64-.71-.72-.23-.17.9-.33,1.8-.5,2.69C140.34,295.78,141.06,296,141.14,295.54Z"/><path class="cls-2" d="M137.05,295.56l-2.72,1.91c-.39.28.11.84.51.56l2.72-1.91C138,295.84,137.44,295.28,137.05,295.56Z"/><path class="cls-2" d="M135,303.48l-1-2.4c-.19-.45-.86-.1-.67.35.33.8.67,1.6,1,2.4C134.55,304.28,135.22,303.93,135,303.48Z"/><path class="cls-2" d="M139.33,304.46c-.53-.66-1.06-1.31-1.58-2-.31-.38-.87.13-.57.51l1.59,2C139.07,305.34,139.63,304.83,139.33,304.46Z"/><path class="cls-2" d="M144.24,305.09l-2,1.67c-.38.31.13.87.5.56.68-.55,1.35-1.11,2-1.67C145.12,305.34,144.61,304.78,144.24,305.09Z"/><path class="cls-2" d="M201.93,291.82c-.33-1.11-.67-2.21-1-3.31-.15-.47-.86-.21-.71.25l1,3.31C201.37,292.54,202.08,292.28,201.93,291.82Z"/><path class="cls-2" d="M201.87,294.4l-2.86.77c-.47.13-.22.84.25.71l2.87-.77C202.6,295,202.34,294.27,201.87,294.4Z"/><path class="cls-2" d="M196.7,295.1l2-2.24c.33-.36-.26-.85-.58-.48l-2,2.23C195.79,295,196.37,295.46,196.7,295.1Z"/><path class="cls-2" d="M194.47,292.12l-1.54-1.68c-.32-.36-.94.07-.62.43l1.54,1.68C194.17,292.91,194.79,292.48,194.47,292.12Z"/><path class="cls-2" d="M196.65,288.25l1.48-2.3c.25-.41-.33-.89-.59-.48l-1.47,2.3C195.81,288.18,196.39,288.66,196.65,288.25Z"/><path class="cls-2" d="M192.85,286.73l-3.23.74c-.48.11-.22.82.25.71l3.24-.74C193.58,287.33,193.32,286.62,192.85,286.73Z"/><path class="cls-2" d="M188,293.3l0-2.6c0-.49-.76-.42-.75.06l0,2.61C187.24,293.85,188,293.79,188,293.3Z"/><path class="cls-2" d="M191.61,295.83c-.25-.81-.49-1.61-.73-2.42-.14-.47-.85-.21-.71.26l.72,2.41C191,296.55,191.74,296.29,191.61,295.83Z"/><path class="cls-2" d="M195.91,298.27l-2.5.78c-.46.14-.21.86.26.71l2.5-.78C196.63,298.84,196.38,298.12,195.91,298.27Z"/><path class="cls-2" d="M76.85,334.38l-1-3.31c-.14-.47-.85-.21-.71.25l1,3.31C76.28,335.1,77,334.84,76.85,334.38Z"/><path class="cls-2" d="M71.62,337.66l2-2.24c.32-.36-.26-.84-.58-.48l-2,2.24C70.71,337.54,71.29,338,71.62,337.66Z"/><path class="cls-2" d="M69.38,334.68,67.85,333c-.32-.36-.95.07-.62.43l1.54,1.69C69.09,335.47,69.71,335,69.38,334.68Z"/><path class="cls-2" d="M71.57,330.81l1.47-2.3c.26-.4-.32-.89-.58-.48L71,330.33C70.73,330.74,71.31,331.22,71.57,330.81Z"/><path class="cls-2" d="M67.77,329.29l-3.23.74c-.48.11-.22.82.25.71L68,330C68.5,329.89,68.24,329.18,67.77,329.29Z"/><path class="cls-2" d="M62.91,335.86l0-2.6c0-.49-.76-.42-.75.06l0,2.61C62.16,336.42,62.91,336.35,62.91,335.86Z"/><path class="cls-2" d="M66.52,338.39,65.8,336c-.14-.46-.85-.21-.71.26l.72,2.41C66,339.11,66.66,338.85,66.52,338.39Z"/><path class="cls-2" d="M98.7,306.69l-.81,3.06c-.13.47.61.61.74.15l.81-3.06C99.57,306.37,98.83,306.23,98.7,306.69Z"/><path class="cls-2" d="M97.86,312.87l-1.6-2.67c-.25-.42-.87,0-.62.43.53.89,1.06,1.78,1.6,2.67C97.49,313.72,98.11,313.28,97.86,312.87Z"/><path class="cls-2" d="M138.69,292.83l-.93-2.85c-.15-.47-.86-.21-.71.25l.93,2.85A.38.38,0,0,0,138.69,292.83Z"/><path class="cls-2" d="M134.67,291.65c-.51.81-1,1.62-1.54,2.44-.26.41.42.73.68.33l1.54-2.44C135.61,291.57,134.93,291.24,134.67,291.65Z"/><path class="cls-2" d="M140.4,276.62l-2.2-2c-.36-.33-.85.24-.49.57l2.2,2C140.27,277.52,140.76,276.94,140.4,276.62Z"/><path class="cls-2" d="M148,273c-.32,1-.63,2-1,2.95-.15.46.59.6.74.14.32-1,.64-2,.95-2.94C148.85,272.69,148.11,272.55,148,273Z"/><path class="cls-2" d="M146,272.93l-3.17-.59a.38.38,0,0,0-.14.74l3.16.59A.38.38,0,0,0,146,272.93Z"/><path class="cls-2" d="M133.45,286.35c-.11,1.15-.22,2.3-.34,3.46-.05.48.7.63.74.14.12-1.15.23-2.3.35-3.46C134.24,286,133.5,285.86,133.45,286.35Z"/><path class="cls-2" d="M151.29,294.59,149.65,292c-.26-.41-.88,0-.62.43l1.63,2.61C150.92,295.43,151.54,295,151.29,294.59Z"/><path class="cls-2" d="M155.54,292.19l-2-2.35c-.31-.36-.94.06-.62.43l2,2.34C155.24,293,155.86,292.55,155.54,292.19Z"/><path class="cls-2" d="M154.87,295l-1,2.45c-.18.45.49.78.68.33l1-2.45C155.74,294.9,155.06,294.57,154.87,295Z"/><path class="cls-2" d="M182.72,290.47c-.43.8-.85,1.61-1.28,2.42-.22.43.46.76.68.33.43-.81.85-1.62,1.28-2.42C183.62,290.37,182.94,290,182.72,290.47Z"/><path class="cls-2" d="M187.83,288l-2.34-.41a.38.38,0,0,0-.14.74l2.34.41A.38.38,0,0,0,187.83,288Z"/><path class="cls-2" d="M201.26,284.25l-1,2.24c-.2.44.48.78.68.33l1-2.24C202.14,284.13,201.46,283.8,201.26,284.25Z"/><path class="cls-2" d="M198.91,299.07l-2.14,2.34c-.33.36.24.86.57.5.72-.78,1.43-1.57,2.14-2.35C199.81,299.2,199.24,298.71,198.91,299.07Z"/><path class="cls-2" d="M83.21,335.73l-3.53-1.51c-.44-.19-.78.49-.33.68l3.53,1.51C83.33,336.6,83.66,335.93,83.21,335.73Z"/><path class="cls-2" d="M87.07,333.78l-1.53,3.11a.38.38,0,0,0,.68.33l1.53-3.11C88,333.68,87.29,333.35,87.07,333.78Z"/><path class="cls-2" d="M85.09,340.62l-.8-2.59c-.14-.46-.85-.21-.71.26l.79,2.59C84.52,341.34,85.23,341.09,85.09,340.62Z"/><path class="cls-2" d="M92.65,336.44,89,336.33c-.49,0-.43.74.06.75l3.67.11C93.19,337.2,93.13,336.45,92.65,336.44Z"/><path class="cls-2" d="M97,336.18l-3.37-2.75c-.38-.3-.87.27-.49.58l3.37,2.74C96.93,337.06,97.42,336.49,97,336.18Z"/><path class="cls-2" d="M100.07,335l-1.22,2.85c-.19.45.49.78.68.33l1.22-2.85C100.94,334.87,100.26,334.54,100.07,335Z"/><path class="cls-2" d="M99.36,339.87l-2.46-1.05c-.45-.2-.78.48-.33.68L99,340.55C99.47,340.74,99.8,340.07,99.36,339.87Z"/><path class="cls-2" d="M104.39,337.57l-2.59.8c-.46.14-.21.85.26.71l2.59-.8C105.11,338.14,104.86,337.43,104.39,337.57Z"/><path class="cls-2" d="M106.57,336.32l-2.72-1.23c-.44-.2-.77.48-.33.68l2.72,1.23C106.68,337.2,107,336.52,106.57,336.32Z"/><path class="cls-2" d="M329.68,254.53a34.3,34.3,0,0,1-8,.9c-2,.06-4,.13-6,.13a52.5,52.5,0,0,1-9.29-.7c-4.93-.88-9.79-2.88-13.29-6.44a1.26,1.26,0,0,1-.2-.2l-.09-.05a129.58,129.58,0,0,0,9.26-19.12c-.52-6.42-.93-12.83-1.23-19.27-3.5,3.11-25.41,22.62-37.23,35.8l0,.07a7,7,0,0,1-3.94-4.09c0-.07-.05-.15-.08-.23l.06,0c11.7-17.66,20.66-30.41,35.3-45.72a12.72,12.72,0,0,1,3.26-2.69,13.05,13.05,0,0,1,5.8-.92l7.61,0a2.09,2.09,0,0,0,.51.08h.07a62.44,62.44,0,0,0,6,7.76c.19.22.39.44.6.65,1.07-1.81,2.13-3.61,3.21-5.42.12-.22.26-.44.38-.67s0-.75,0-1.12c1.59.28,4.48,1.09,6,1.35.29.47.57.92.86,1.37l0,.24c0,.15,0,.3-.05.45a195.41,195.41,0,0,0-1.39,23.68,21,21,0,0,0,.81,5.93Q328.92,240.4,329.68,254.53Z"/><path class="cls-2" d="M340.1,219.23a48.67,48.67,0,0,1,.42,6.4c0,1.62-.16,3.38-1.25,4.57a4.68,4.68,0,0,1-2.9,1.35,6.92,6.92,0,0,1-5.51-1.78,8.28,8.28,0,0,1-2.14-3.51,21,21,0,0,1-.81-5.94,195.38,195.38,0,0,1,1.4-23.67h0a13.6,13.6,0,0,0,3.47-1l.29-.12,0,.09h0c.05.1.09.22.14.33C336.28,203.5,339.08,211.25,340.1,219.23Z"/><path class="cls-2" d="M258.82,243.82a3.66,3.66,0,0,0-.72-.14,20.93,20.93,0,0,0,1.63-2.12h0a6.94,6.94,0,0,0,3.94,4.09,7.89,7.89,0,0,1-.34,2.81,9.4,9.4,0,0,0-2.35-3.33A5.79,5.79,0,0,0,258.82,243.82Z"/><path class="cls-2" d="M255.62,249.55a7.89,7.89,0,0,0,6.08,2.92,2.85,2.85,0,0,0,1.34-.56l.7.14a2.86,2.86,0,0,1-1.68,3.46,7,7,0,0,1-4.19.17,4.8,4.8,0,0,1-2-.74,2.83,2.83,0,0,1-.88-1.14,4,4,0,0,1-.32-1.43,10.08,10.08,0,0,1,.39-2.87l.43-.2C255.53,249.38,255.58,249.47,255.62,249.55Z"/><path class="cls-2" d="M339.9,200.1a9.51,9.51,0,0,1,.5,3.79c0,5.11-.11,10.24-.3,15.34-1-8-3.82-15.73-6.84-23.26l.31-.13C336.13,196.49,338.88,197.66,339.9,200.1Z"/><path class="cls-2" d="M329.14,181.09a1.37,1.37,0,0,1,.29-.07,2.41,2.41,0,0,1,2.05,1.15,6.93,6.93,0,0,1,.68,1.1,14.72,14.72,0,0,1,1,6.11c0,2.08,0,4.15,0,6.23l-.05,0h0l0-.09-.29.12a13.6,13.6,0,0,1-3.47,1h0c0-.16,0-.31,0-.46l0-.24c-.29-.44-.57-.9-.85-1.36-.61-1-1.18-2.08-1.71-3.14a1.19,1.19,0,0,1-.14-.4.66.66,0,0,1,0-.14c.07-.58.91-.61,1.48-.45a16.29,16.29,0,0,1-.52-6.73C327.72,182.66,328.17,181.41,329.14,181.09Z"/><path class="cls-2" d="M328.92,248.21a51,51,0,0,1-33.49-3.07c-.54-.24-.93.58-.4.82a52.07,52.07,0,0,0,34.19,3.11C329.79,248.93,329.48,248.07,328.92,248.21Z"/><path class="cls-2" d="M328.63,242.41a74.54,74.54,0,0,1-31.2-1.86c-.57-.15-.74.74-.18.9a75.23,75.23,0,0,0,31.45,1.87C329.27,243.23,329.21,242.32,328.63,242.41Z"/><path class="cls-2" d="M328.9,236.3a75.6,75.6,0,0,1-29.1-.8.46.46,0,0,0-.18.9,76.5,76.5,0,0,0,29.35.81C329.54,237.11,329.48,236.2,328.9,236.3Z"/><path class="cls-2" d="M328.64,229.2a97.71,97.71,0,0,1-26.13-.53c-.58-.09-.75.8-.17.89a98.19,98.19,0,0,0,26.36.54C329.28,230,329.22,229.13,328.64,229.2Z"/><path class="cls-2" d="M328.26,221.65a102.65,102.65,0,0,1-26.38.77c-.58-.06-.76.83-.18.89a103.25,103.25,0,0,0,26.63-.75C328.9,222.47,328.84,221.56,328.26,221.65Z"/><path class="cls-2" d="M328.26,214.06a100.2,100.2,0,0,1-26.51,1c-.58-.05-.76.84-.17.89a101.15,101.15,0,0,0,26.75-1C328.9,214.87,328.84,214,328.26,214.06Z"/><path class="cls-2" d="M328.39,209.56a143.7,143.7,0,0,1-26.88-.44c-.57-.07-.75.83-.17.89a144.54,144.54,0,0,0,27.12.46A.46.46,0,0,0,328.39,209.56Z"/><path class="cls-2" d="M299.87,209.87a27.59,27.59,0,0,1-8.26-9c-.3-.5-1,0-.75.52a28.1,28.1,0,0,0,8.42,9.17C299.75,210.9,300.35,210.21,299.87,209.87Z"/><path class="cls-2" d="M295.34,214.4a32.19,32.19,0,0,1-7.86-9.87c-.27-.52-1,0-.75.52a32.68,32.68,0,0,0,8,10A.45.45,0,0,0,295.34,214.4Z"/><path class="cls-2" d="M289.82,219.18a23.36,23.36,0,0,1-7.27-8.37c-.26-.52-1.12-.22-.85.3a24.11,24.11,0,0,0,7.53,8.76C289.71,220.21,290.3,219.52,289.82,219.18Z"/><path class="cls-2" d="M284.51,223.52a24.09,24.09,0,0,1-5.75-7.32c-.26-.51-1.12-.21-.86.31a25.35,25.35,0,0,0,6,7.7A.45.45,0,0,0,284.51,223.52Z"/><path class="cls-2" d="M279.53,228.74a21.59,21.59,0,0,1-5.33-7.26c-.24-.52-1.1-.22-.86.31a22.71,22.71,0,0,0,5.59,7.64C279.37,229.82,280,229.13,279.53,228.74Z"/><path class="cls-2" d="M274.08,233.7a24.43,24.43,0,0,1-4.73-6.47c-.26-.52-1.12-.22-.86.3a25.62,25.62,0,0,0,5,6.86C273.91,234.8,274.5,234.1,274.08,233.7Z"/><path class="cls-2" d="M269.08,238.47q-1.72-2.58-3.46-5.14a.46.46,0,0,0-.75.52l3.47,5.13C268.66,239.47,269.41,239,269.08,238.47Z"/><path class="cls-2" d="M265.8,242.07a8.49,8.49,0,0,1-3.46-3.87c-.23-.53-1.09-.23-.85.31a9.53,9.53,0,0,0,3.91,4.37C265.9,243.18,266.3,242.36,265.8,242.07Z"/><path class="cls-2" d="M263.49,333.58a1.9,1.9,0,0,0,.34.2c2.93,3.67,5.76,6.73,6.29,12.54a65.72,65.72,0,0,1-15.26-12.39s2.76-3.88,4.09-5.25l0,0A13.89,13.89,0,0,0,263.49,333.58Z"/><path class="cls-2" d="M286.38,288.34c.17-5.4.68-10.79,1-16.19.48-8.23,1.26-16.88,5.8-23.72,3.5,3.55,8.36,5.56,13.3,6.44a53.38,53.38,0,0,0,9.29.69q-2.58,8.63-5.74,17.06c-3,8.07-6.38,16-10.14,23.75-2.51,3-5.26,5.8-8,8.58l-28.37,28.63a13.89,13.89,0,0,1-4.5-4.93v0a130.67,130.67,0,0,1,27.4-40.28Z"/><path class="cls-2" d="M329.68,254.53l.06,0a583.78,583.78,0,0,1-6.16,97.78l-.12,0a26.48,26.48,0,0,1-7,.7c-3.65-26.64-2.1-53.85-6.4-80.39q3.17-8.43,5.74-17.06c2,0,4-.06,6-.13A34.28,34.28,0,0,0,329.68,254.53Z"/><path class="cls-2" d="M316.66,353.91l-.22-.77s0-.08,0-.13a26.48,26.48,0,0,0,7-.7,51.12,51.12,0,0,1,15.77,6.15,206,206,0,0,0-21.5,1.24.59.59,0,0,1-.47-.07.6.6,0,0,1-.16-.39A47.67,47.67,0,0,1,316.66,353.91Z"/><path class="cls-2" d="M333.92,170.13l-.44-.09-.29.23a20.46,20.46,0,0,1-5.53,2.4l-.27.09a54.27,54.27,0,0,0-6.05,2.81,3.85,3.85,0,0,1-1.28.53h0l-.07,0c-.29-.69-.57-1.39-.85-2.07a5.05,5.05,0,0,0-.92-1.59,1.64,1.64,0,0,0-1.68-.5,1.77,1.77,0,0,0-.84.76c-.79,1.31-.42,3,.05,4.44a7.06,7.06,0,0,0,1.94,3.37c-1.35,2.8-4,8.66-5.46,11.41a0,0,0,0,1,0,0l0,.06a63.59,63.59,0,0,0,6,7.77l.3-.28a68,68,0,0,1,.28-14.26l.05-.06,3.24,2.34.09.09a5.4,5.4,0,0,0,5.31,0,16,16,0,0,1,0-3.85c.14-1.07.59-2.32,1.56-2.63a1.11,1.11,0,0,1,.3-.08,2.41,2.41,0,0,1,2,1.15,6.67,6.67,0,0,1,.68,1.1c.09-.19.19-.38.27-.58a24.78,24.78,0,0,0,1.84-5.18A13.14,13.14,0,0,0,333.92,170.13Z"/><path class="cls-2" d="M332.62,182.78l-.19-.09a24.78,24.78,0,0,0,1.84-5.18,13.14,13.14,0,0,0-.35-7.38l-.44-.09-.29.23a20.46,20.46,0,0,1-5.53,2.4l-.27.09a54.27,54.27,0,0,0-6.05,2.81,3.85,3.85,0,0,1-1.28.53h0l-.07,0c-.29-.69-.57-1.39-.85-2.07a5.05,5.05,0,0,0-.92-1.59,1.64,1.64,0,0,0-1.68-.5,1.77,1.77,0,0,0-.84.76c-.79,1.31-.42,3,.05,4.44a7.06,7.06,0,0,0,1.94,3.37c-1.35,2.8-4,8.66-5.46,11.41h-.55a3,3,0,0,1-2.23-2.46,11,11,0,0,1-4.6-.33,6,6,0,0,1-3.54-2.85c-.61-1.2-.57-2.92.58-3.63a8.23,8.23,0,0,1-3.6-3.32,5.21,5.21,0,0,1,.22-4.6,7.23,7.23,0,0,1,3.47-3.12c1.39-.62,2.94-.88,4.28-1.62,3-1.62,4.3-5.09,6.55-7.61a13.51,13.51,0,0,1,13.58-3.79,14.48,14.48,0,0,1,9.76,10.31A15.63,15.63,0,0,1,332.62,182.78Z"/><path class="cls-2" d="M333.19,170.27a12,12,0,0,1-5.53,2.4A20.46,20.46,0,0,0,333.19,170.27Z"/><path class="cls-2" d="M322.45,193.23c0,.38,0,.75,0,1.12s-.25.46-.38.68l-3.21,5.41c-.2-.21-.4-.43-.59-.65l.3-.27a67.38,67.38,0,0,1,.28-14.26l.05-.06,3.24,2.34.14.13,0,0C322.35,189.54,322.42,191.39,322.45,193.23Z"/><path class="cls-2" d="M328.92,174.14a3.54,3.54,0,0,0-3.09-.89c-.57.1-.51,1,.07.9a2.72,2.72,0,0,1,2.42.68C328.76,175.22,329.35,174.53,328.92,174.14Z"/><path class="cls-2" d="M334.83,176.2a3.28,3.28,0,0,0-2.62-.48c-.57.12-.26,1,.31.85a2.27,2.27,0,0,1,1.72.32C334.72,177.21,335.32,176.52,334.83,176.2Z"/><path class="cls-2" d="M329.87,181a1.88,1.88,0,0,0-1.33.49,3.23,3.23,0,0,0-.79,1.41,13.19,13.19,0,0,0,.32,7.46,2,2,0,0,0-.87,0,.65.65,0,0,0-.52.61"/><path class="cls-2" d="M325.6,174.67c-.52-.28-.92.54-.4.81a2.21,2.21,0,0,1,1,1l-1.11-.27c-.57-.14-.75.75-.18.89l1.88.46a.46.46,0,0,0,.54-.48A3.16,3.16,0,0,0,325.6,174.67Z"/><path class="cls-2" d="M333,179l-.79-.41a3.48,3.48,0,0,1,.75-.43c.54-.22.24-1.08-.31-.86a4.71,4.71,0,0,0-1.6,1.08.46.46,0,0,0,.15.71l1.41.73A.45.45,0,0,0,333,179Z"/><path class="cls-2" d="M341.51,181.32l-3.92.38a.46.46,0,0,0,.07.91l3.92-.39A.45.45,0,0,0,341.51,181.32Z"/><path class="cls-2" d="M341.13,185.62l-3.3-1.13c-.55-.19-.95.63-.4.82l3.31,1.13C341.28,186.62,341.69,185.81,341.13,185.62Z"/><path class="cls-2" d="M339.39,189.24,336.46,187c-.46-.36-1.06.33-.59.69l2.93,2.22C339.27,190.28,339.86,189.6,339.39,189.24Z"/><path class="cls-2" d="M94.84,192.76l-.71,0a38.9,38.9,0,0,1-2.84,4c-.38.48-.77.93-1.19,1.39h0c-.15.17-.32.34-.48.51l-.74.59c-1.27-1.59-2.61-3.13-4-4.63l-.54.34c.14-1.59.21-3.32-.71-4.62A17.05,17.05,0,0,0,82,188.66c-1.32-1.41-1.91-3.38-3.21-4.81l-.1-.1a4.19,4.19,0,0,0-1.27-.95,3.35,3.35,0,0,0-.63-.22,2.43,2.43,0,0,0-2.24.56,2,2,0,0,0-.36.53,2.3,2.3,0,0,0-1.6-.22A2.44,2.44,0,0,0,71,185.1a3.41,3.41,0,0,0-.16.57,60.41,60.41,0,0,1-4-12.55v-.05c5.26-.09,10.46-1.5,15.57-2.91l.15.21c.79,1.41.79,3.12,1.11,4.72A11.89,11.89,0,0,0,85.11,179c.11.18.27.38.48.39s.47-.43.5-.76a24.77,24.77,0,0,1,.71-5.3,2.7,2.7,0,0,1,.91-1.54,1.9,1.9,0,0,1,1.75-.14l0,0a3.7,3.7,0,0,1,1.4,1.08,6.86,6.86,0,0,1-.37,9.28A68.72,68.72,0,0,1,94.84,192.76Z"/><path class="cls-2" d="M77.38,182.8a4.19,4.19,0,0,1,1.27.95l-.23-.07a2.29,2.29,0,0,0-2.13.54,1.81,1.81,0,0,0-.39.57l-.25,0a6.52,6.52,0,0,0-1.5-1.07,2,2,0,0,1,.36-.53,2.43,2.43,0,0,1,2.24-.56A3.35,3.35,0,0,1,77.38,182.8Z"/><path class="cls-2" d="M95.05,193.45a35.78,35.78,0,0,1-3.85,5.15,13.63,13.63,0,0,0,.09-1.81,38.9,38.9,0,0,0,2.84-4l.71,0C94.91,193,95,193.23,95.05,193.45Z"/><path class="cls-2" d="M89.47,171.63a1.92,1.92,0,0,0-1.76.14,2.69,2.69,0,0,0-.92,1.53,26.28,26.28,0,0,0-.7,5.31c0,.33-.17.77-.51.76s-.36-.21-.47-.39a12,12,0,0,1-1.49-3.89c-.32-1.6-.32-3.31-1.11-4.72l-.16-.21c-5.1,1.41-10.29,2.82-15.56,2.91-.72,0-1.44,0-2.16,0-2.77-.15-5.86-.95-7.26-3.36a1.26,1.26,0,0,1-.15-1.26,1.24,1.24,0,0,1,.54-.42,16.77,16.77,0,0,1,4.08-1.18c6.23-1.32,12.17-3.78,18.37-5.2,1.79-.41,3.91-.64,5.23.64a5.2,5.2,0,0,1,1,1.62,55.9,55.9,0,0,1,3.07,7.64l-.06.14Z"/><path class="cls-2" d="M72.06,178.62a4.23,4.23,0,0,0-2.91.7.46.46,0,0,0,.52.75,3.18,3.18,0,0,1,2.22-.55C72.46,179.59,72.64,178.69,72.06,178.62Z"/><path class="cls-2" d="M81.27,176.19a7.33,7.33,0,0,0-3.82,1.23.45.45,0,0,0,.51.75,6.37,6.37,0,0,1,3.38-1.07C81.92,177.08,81.85,176.17,81.27,176.19Z"/><path class="cls-2" d="M81.43,179.65H80l.24-.33.48-.78c.3-.5-.52-.89-.82-.39s-.52.82-.76,1.23-.33.66,0,1,.63.22,1,.22H81.5C82.08,180.55,82,179.65,81.43,179.65Z"/><path class="cls-3" d="M73.3,181.2c-.19-.69-1.33-.71-1.88-.83a.45.45,0,0,0-.18.89l.71.15.28.06-.32.32-.67.61c-.43.4.26,1,.69.6s.74-.64,1.07-1A.84.84,0,0,0,73.3,181.2Z"/><path class="cls-2" d="M68.83,184.68h0a3.76,3.76,0,0,1,.15-.6,2.58,2.58,0,0,1,1.63-1.72c1.17-.32,2.33.53,3.24,1.34l.26.06a4.83,4.83,0,0,0,.07,3.07,48.69,48.69,0,0,0,1.9,5.65l-.12,0a16.49,16.49,0,0,1-.79,5.44,22.25,22.25,0,0,1-5.64.38s-.8-9.59-.81-11.81A10.22,10.22,0,0,1,68.83,184.68Z"/><path class="cls-2" d="M118,200.84h-.07c-.53,5.6-3,10.83-5.73,15.77-3.34,6.09-7.14,12-12.21,16.79a5,5,0,0,1-1.79,1.23,3.83,3.83,0,0,1-3.74-1,11.35,11.35,0,0,1-2.17-3.43q-6.44-13.66-11.84-27.78-.89-2.28-1.71-4.56l0,0-.26-.49A12.55,12.55,0,0,0,84.35,195l.54-.34c1.38,1.5,2.72,3,4,4.63a92,92,0,0,1,7.93,11.56l.37-.22q2-4.2,4.41-8.18c2-3.33,4.33-6.68,7.72-8.59a8.39,8.39,0,0,1,3.5-1.1,11.53,11.53,0,0,1,2.52.86,4.2,4.2,0,0,1,1.84,1.45,5.06,5.06,0,0,1,.61,2.43C117.87,198.61,117.93,199.72,118,200.84Z"/><path class="cls-2" d="M84.35,195a12.55,12.55,0,0,1-5.95,2.35,45.56,45.56,0,0,1-2.32-4.89,48.74,48.74,0,0,1-1.91-5.65,4.87,4.87,0,0,1-.06-3.06.3.3,0,0,1,0-.08,2,2,0,0,1,.36-.53,2.43,2.43,0,0,1,2.24-.56,3.35,3.35,0,0,1,.63.22,4.19,4.19,0,0,1,1.27.95l.1.1c1.3,1.43,1.89,3.4,3.21,4.81a17.05,17.05,0,0,1,1.68,1.72C84.56,191.68,84.49,193.41,84.35,195Z"/><path class="cls-2" d="M116.52,224.42q-.49,4.2-1,8.39-1.24,10-2.74,19.89l-.11.28a2.46,2.46,0,0,1,.42.23,56,56,0,0,1-15.69,1.94,24.94,24.94,0,0,1-14.58-5.1c0-.19,0-.38.06-.56l.09-11.76a8.28,8.28,0,0,0-.17-2,8,8,0,0,0-1.08-2.09c-1.93-3-3.88-6-5.82-9,1-8.85.4-17.79-.2-26.68,1-.06,3-.21,2.73-.57l.26.49,0,0c.55,1.52,1.13,3,1.71,4.56q5.4,14.1,11.84,27.77a11.23,11.23,0,0,0,2.17,3.43,3.86,3.86,0,0,0,3.75,1A5.24,5.24,0,0,0,100,233.4c5.07-4.76,8.86-10.69,12.2-16.78,2.71-4.94,5.21-10.17,5.73-15.78H118A155.24,155.24,0,0,1,116.52,224.42Z"/><path class="cls-2" d="M75.67,197.93l-.5,0a3.45,3.45,0,0,0,.49-.14S75.67,197.89,75.67,197.93Z"/><path class="cls-2" d="M75.87,224.61c-.05.47-.1.95-.16,1.42a14.64,14.64,0,0,1-1.9,6.2A5.72,5.72,0,0,1,68.3,235a7.58,7.58,0,0,1-3.85-2.49,8.83,8.83,0,0,1-2.39-3.69,9.28,9.28,0,0,1,0-4.06c1.57-9,5.57-17.45,7.42-26.41a22.25,22.25,0,0,0,5.64-.38c.21,0,.37-.1.49-.14C76.26,206.74,76.87,215.73,75.87,224.61Z"/><path class="cls-2" d="M112.81,192.76a8.39,8.39,0,0,0-3.5,1.1c-3.39,1.91-5.71,5.26-7.72,8.59q-2.39,4-4.41,8.18l-.37.22a92,92,0,0,0-7.93-11.56l.74-.59c.16-.17.33-.34.48-.51h0c.42-.46.81-.91,1.19-1.39a38.9,38.9,0,0,0,2.84-4l.71,0c4.48-.24,9.4-.8,13.83-.53A23.8,23.8,0,0,1,112.81,192.76Z"/><path class="cls-2" d="M93.65,261.35l-11.26-2.72-.63-.08c.33-2.84.68-5.67,1-8.51,4,3.32,9.34,4.85,14.57,5.11a56.37,56.37,0,0,0,15.7-1.94c2,1.27,2.54,4.31,2.69,6.84q1,17.63,2,35.24c8.48,10.52,17.69,21,26.18,31.56l.79.71-.35.39c-1.09,1.22-2.17,2.43-3.27,3.64a21.22,21.22,0,0,1-4,3.76,8.8,8.8,0,0,1-1.81.92,33.81,33.81,0,0,1-7.37-6.41l-27.79-29.4c-1.31-5.62-2.5-11.18-3.51-16.75-1.34-7.38-2.38-14.76-3-22.36Z"/><path class="cls-2" d="M144.42,328c1,1.06,5.31,3.77,4.9,4.27-2.15,2.63-6.12,7.41-8.26,10-2.73,3.34-5.51,6.74-9.08,9.18a43.19,43.19,0,0,1,5.17-16.09,21.22,21.22,0,0,0,4-3.76C142.25,330.38,143.33,329.17,144.42,328Z"/><path class="cls-2" d="M83,350.22s.63,3.51.69,4.54c-7.88,1.06-15.85,1-23.81.95-.47,0-1-.08-1.25-.5,1.86-2.09,4.54-3.22,7.12-4.28l6.18-2.55c1.9,1.55,4.65,1.95,7.17,2C80.36,350.37,81.67,350.33,83,350.22Z"/><path class="cls-2" d="M71.89,348.38a6.44,6.44,0,0,1-.91-.9q5.4-44.46,10.78-88.93l.63.08,11.26,2.72h0c.63,7.6,1.67,15,3,22.36l-.21,0q-7.2,33-12.86,66.41l-.64.07c-1.29.11-2.6.15-3.9.14C76.54,350.33,73.79,349.93,71.89,348.38Z"/><path class="cls-2" d="M73.77,183.42a3.54,3.54,0,0,0-2.69-1c-1,.08-1.88,1.37-2.25,2.29"/><path class="cls-2" d="M75.87,192A32,32,0,0,1,74,186.12a5,5,0,0,1-.08-1.89,2.23,2.23,0,0,1,1-1.54,2.46,2.46,0,0,1,2.18,0,4.43,4.43,0,0,1,1.84,1.45,12.18,12.18,0,0,0,1.81,2.58c.53.4,1.19.59,1.75.94a3.36,3.36,0,0,1,1.31,1.6,8.09,8.09,0,0,1,.37,2,17.16,17.16,0,0,0,.72,3.31"/><path class="cls-2" d="M64.14,180.51l-2.3-2.24c-.42-.41-1,.28-.59.69l2.3,2.24C64,181.61,64.56,180.92,64.14,180.51Z"/><path class="cls-2" d="M63.11,184.66l-2.09.19a.45.45,0,0,0,.07.9l2.09-.18A.46.46,0,0,0,63.11,184.66Z"/><path class="cls-2" d="M64.21,189.18,62,191.33c-.42.41.27,1,.69.59l2.2-2.15C65.32,189.36,64.63,188.77,64.21,189.18Z"/><path class="cls-2" d="M211.2,218.06c-.39,2.4.68,4.87.26,7.26-.07.4-.34.89-.73.78-.21,0-.33-.27-.42-.47a10.64,10.64,0,0,1-.76-2.42,6.51,6.51,0,0,0-1.83-1.32,3.34,3.34,0,0,0-1.28-.27,35.81,35.81,0,0,1-2.34-4.24,3.69,3.69,0,0,1-.48-2.34,2.68,2.68,0,0,1,1.41-1.7,11.3,11.3,0,0,1,2.13-.78,2.79,2.79,0,0,0,1.11-.53c.64-.55.76-1.49,1.18-2.22a3.79,3.79,0,0,1,3.53-1.67c1.59.08,3.17.9,4.73.58a8.56,8.56,0,0,0,2.33-1.05,3.7,3.7,0,0,1,2.45-.52c1.72.37,2.6,2.68,4.36,2.81a4.66,4.66,0,0,1,1.45.06,1.41,1.41,0,0,1,.8,1.2,4.27,4.27,0,0,1-.24,1.49,5.63,5.63,0,0,1-1.27,2.43,5.73,5.73,0,0,1-3.37,1.28c-.51.06-1,.12-1.54.16-3.59.32-7.23.19-10.77.82a.93.93,0,0,0-.58.25A.74.74,0,0,0,211.2,218.06Z"/><path class="cls-2" d="M213.48,231.15a16.16,16.16,0,0,0,1.44,4.61l-.2.23a17.68,17.68,0,0,1-3.49-.27,7.31,7.31,0,0,1-4.17-2.23l-.47-.13c0-.09,0-.16.06-.24l1.25-4.36a9.92,9.92,0,0,1-2.37-2,4.81,4.81,0,0,1-1.24-2.3,2.49,2.49,0,0,1,.77-2.39,2.14,2.14,0,0,1,1.38-.45,3.34,3.34,0,0,1,1.28.27,6.51,6.51,0,0,1,1.83,1.32,10.64,10.64,0,0,0,.76,2.42c.09.2.21.42.42.47.39.11.66-.38.73-.78.42-2.39-.65-4.86-.26-7.26a.74.74,0,0,1,.13-.41.93.93,0,0,1,.58-.25c3.54-.63,7.18-.5,10.77-.82l2.38-.29a26.46,26.46,0,0,1,.74,9.58,4.75,4.75,0,0,0-1.48.64,9.16,9.16,0,0,0-2.16,2.1c-.35-.4-.34-1.12-.83-1.35s-1.08.29-1.39.79a20.54,20.54,0,0,0-1.39,2.62l-.08,0-3.83-.88a1.35,1.35,0,0,0-.69,0C213.44,229.92,213.4,230.62,213.48,231.15Z"/><path class="cls-2" d="M218.47,230.63l.08,0c-.19.42-.37.85-.52,1.28-1,1.29-2.06,2.55-3.11,3.81a16.16,16.16,0,0,1-1.44-4.61c-.08-.53,0-1.23.47-1.42a1.35,1.35,0,0,1,.69,0Z"/><path class="cls-2" d="M208.27,287.77c-.81,1.57-1.6,3.14-2.4,4.72q-6.81,13.39-13.51,26.86a21.5,21.5,0,0,1-3.54-.69,24.1,24.1,0,0,1-9.27-4.9,21.91,21.91,0,0,1-2.33-2.29q5.26-13.47,10.55-26.94h0a22,22,0,0,0,14.31-9.31l0-.2c2.81.44,5.69.64,8.51.83a26.38,26.38,0,0,0,8.56-.38l0,.06c.33.89.79,5.3,1.3,11.36-3.47.35-8.59.77-12,1Z"/><path class="cls-2" d="M209.25,321a22.79,22.79,0,0,1-2.61-.38h-.13q-.76-14.06-.64-28.14c.8-1.58,1.59-3.15,2.4-4.72l.19.1c3.46-.21,8.58-.63,12-1,.76,9.38,1.63,22.71,2.25,32.93a2.65,2.65,0,0,1-1.3.44l-2.2.3A45.46,45.46,0,0,1,209.25,321Z"/><path class="cls-2" d="M213.65,345.53c-.12-.72-.25-1.44-.38-2.18a16.65,16.65,0,0,0,7.24-.32h0A70.49,70.49,0,0,1,231.12,346v0l1.41,1A65.32,65.32,0,0,1,213.65,345.53Z"/><path class="cls-2" d="M188.82,318.66q-2.25,4.66-4.51,9.33a19.46,19.46,0,0,1-7.64-2.85l-.53-.18,1.61-4.62a29.33,29.33,0,0,0,1.73-6.47l.07-.11A24.1,24.1,0,0,0,188.82,318.66Z"/><path class="cls-2" d="M171.87,337.14h0a15.43,15.43,0,0,0,6.12,3.56h0a1.54,1.54,0,0,0,.13.12,51.21,51.21,0,0,1,8.1,8,8.1,8.1,0,0,1-3.68-.64,95,95,0,0,1-13.31-5.87s2.17-4,2.62-5.15A0,0,0,0,1,171.87,337.14Z"/><path class="cls-2" d="M220.51,343a16.65,16.65,0,0,1-7.24.32c-.75-4.29-1.55-8.79-2.31-13.19l.55-.09a2,2,0,0,0,1.44.37c2.46,0,4.92-.1,7.36-.28C220.47,334.46,220.53,338.74,220.51,343Z"/><path class="cls-2" d="M202.1,275.22a22,22,0,0,1-14.31,9.31h0q2.34-6,4.69-12l.16-.36a30.87,30.87,0,0,0,9.5,2.83Z"/><path class="cls-2" d="M184.31,328q-3.08,6.38-6.16,12.76l-.15-.06h0a15.43,15.43,0,0,1-6.12-3.56Q174,331,176.14,325l.53.18A19.46,19.46,0,0,0,184.31,328Z"/><path class="cls-2" d="M178.15,340.75a.11.11,0,0,0,0,.06,1.54,1.54,0,0,1-.13-.12Z"/><path class="cls-2" d="M220.08,325c.09,1.72.17,3.45.23,5.18-2.44.18-4.9.27-7.36.28a2,2,0,0,1-1.44-.37l-.55.09c-.39-2.23-.77-4.42-1.15-6.55a23.31,23.31,0,0,0-.56-2.61,45.46,45.46,0,0,0,10-.44A11.76,11.76,0,0,1,220.08,325Z"/><path class="cls-2" d="M221.77,252.34l-.25,0,.16-1.42.55.06c1,1,2,2,3,2.92q-.66.65-1.35,1.26l-.07-.06C223,254.26,222.57,253.16,221.77,252.34Z"/><path class="cls-2" d="M195.43,254.37a30.47,30.47,0,0,1-2.31-13.91h0a10.73,10.73,0,0,0,0,1.5,23,23,0,0,0,4.11,11.5c-.59.33-1.18.62-1.78.9Z"/><path class="cls-2" d="M255.07,249.5a10.08,10.08,0,0,0-.39,2.87,4,4,0,0,0,.32,1.43l-.41.38c-5.49,3.19-11.23,6.29-17.44,7.43a3.63,3.63,0,0,1-2.63-.52,81.49,81.49,0,0,1-9.25-7.22A63.28,63.28,0,0,0,233,245q2.91,3.34,5.51,6.93l.3,0q8-1.84,16.16-3.14l.34-.11a1.82,1.82,0,0,0,.2.58Z"/><path class="cls-2" d="M258.1,243.68a3.66,3.66,0,0,1,.72.14,5.79,5.79,0,0,1,2.16,1.31,9.4,9.4,0,0,1,2.35,3.33,7.79,7.79,0,0,1,.31.85,2.87,2.87,0,0,1,.15,1.42,2,2,0,0,1-.75,1.18,2.85,2.85,0,0,1-1.34.56,7.89,7.89,0,0,1-6.08-2.92c0-.08-.09-.17-.12-.25a1.82,1.82,0,0,1-.2-.58,4.25,4.25,0,0,1,.12-2.59,6,6,0,0,1,1.69-2.4A3.28,3.28,0,0,1,258.1,243.68Z"/><path class="cls-2" d="M216.94,246.12a119.5,119.5,0,0,1-7.56,11.21,6.61,6.61,0,0,1-1.82,1.83,4.47,4.47,0,0,1-3.67.25,9.62,9.62,0,0,1-3.19-2,22.34,22.34,0,0,1-3.14-3.45l-.33-.47a34.62,34.62,0,0,0,8.47-6.37l-.07-.27c-.07-.14-.13-.28-.19-.42q4.8-5.06,9.28-10.41l.2-.23C216,234.5,217,233.24,218,232a2.49,2.49,0,0,0-.11.29l.21.07a21.83,21.83,0,0,0,3,1.89,3,3,0,0,1,1,.74h0l.71-.39.11.19a1,1,0,0,1-.08.14c-.19.43-.39.85-.59,1.27Q219.83,241.25,216.94,246.12Z"/><path class="cls-2" d="M205.7,247.09c.06.14-.14-.41-.07-.27l.07.27a34.62,34.62,0,0,1-8.47,6.37,23,23,0,0,1-4.11-11.5,10.73,10.73,0,0,1,0-1.5,3.88,3.88,0,0,1,.62-1.85,5.24,5.24,0,0,1,1.77-1.46,32.35,32.35,0,0,1,11.14-4c0,.08,0-.08,0,0l.41.37a7.31,7.31,0,0,0,4.17,2.23,17.68,17.68,0,0,0,3.49.27C211.73,239.55,208.9,243.72,205.7,247.09Z"/><path class="cls-2" d="M228.05,226.13a1.82,1.82,0,0,1,.54,1.46,6.05,6.05,0,0,1-1.91,3.87,16,16,0,0,1-3.85,3.09l-.71.39h0a3,3,0,0,0-1-.74,21.83,21.83,0,0,1-3-1.89l-.21-.07A2.49,2.49,0,0,1,218,232c.15-.43.33-.86.52-1.28a20.54,20.54,0,0,1,1.39-2.62c.31-.5.87-1.06,1.39-.79s.48,1,.83,1.35a9.16,9.16,0,0,1,2.16-2.1,4.75,4.75,0,0,1,1.48-.64,3.78,3.78,0,0,1,1.38-.08A1.79,1.79,0,0,1,228.05,226.13Z"/><path class="cls-2" d="M221.68,250.89a79,79,0,0,0,.59-14.74c.2-.42.4-.84.59-1.27l.24.11A107.4,107.4,0,0,1,233,245a63.28,63.28,0,0,1-7.72,8.87c-1-1-2.05-1.91-3-2.92Z"/><path class="cls-2" d="M216.94,246.12a52.08,52.08,0,0,1-8.3,16.58,25.63,25.63,0,0,1-7.25,6.56,15.55,15.55,0,0,1-9.41,2.2l-.17.3-.33-.17.12-.22q3-8.58,5.65-17.22l.31-.22a22.34,22.34,0,0,0,3.14,3.45,9.62,9.62,0,0,0,3.19,2,4.47,4.47,0,0,0,3.67-.25,6.61,6.61,0,0,0,1.82-1.83A119.5,119.5,0,0,0,216.94,246.12Z"/><path class="cls-2" d="M219.57,275.37l-.38.1a26.38,26.38,0,0,1-8.56.38c-2.82-.19-5.7-.39-8.51-.83a30.87,30.87,0,0,1-9.5-2.83c-.27-.13-.54-.27-.81-.43l.17-.3a15.55,15.55,0,0,0,9.41-2.2,25.63,25.63,0,0,0,7.25-6.56,52.08,52.08,0,0,0,8.3-16.58q2.9-4.86,5.33-10a79,79,0,0,1-.59,14.74l-.16,1.42c-.92,7.53-2.19,15.06-1.93,22.62Z"/><path class="cls-2" d="M216.66,218.5a4.39,4.39,0,0,0-3,.88c-.46.36.06,1.11.52.75a3.46,3.46,0,0,1,2.36-.74C217.07,219.43,217.25,218.54,216.66,218.5Z"/><path class="cls-2" d="M224.54,218.69a6,6,0,0,0-3-.33c-.57.09-.51,1,.07.91a5.06,5.06,0,0,1,2.5.24C224.68,219.71,225.08,218.89,224.54,218.69Z"/><path class="cls-2" d="M225.8,225.88a4.53,4.53,0,0,0-1.89.87,13.36,13.36,0,0,0-2.15,1.82,2.21,2.21,0,0,0,0-.81.84.84,0,0,0-.47-.63,1,1,0,0,0-1,.29,4.64,4.64,0,0,0-1.13,1.74q-.67,1.47-1.23,3"/><path class="cls-2" d="M215.7,220.45c-.48-.32-1.08.37-.59.69.15.1.42.24.63.39l-.2.14-.56.38a.45.45,0,0,0,.51.75c.41-.27,1.23-.61,1.33-1.15S216.1,220.72,215.7,220.45Z"/><path class="cls-2" d="M223.79,221.51l-.67-.16-.08,0,.08-.08.42-.47c.4-.44-.29-1-.69-.6s-1.09.93-.93,1.49,1.2.61,1.69.73S224.35,221.65,223.79,221.51Z"/><path class="cls-2" d="M231.7,218.64l-2.82,1.72c-.5.3,0,1,.52.75l2.82-1.72C232.72,219.09,232.2,218.34,231.7,218.64Z"/><path class="cls-2" d="M233.05,222.57l-2.83.09c-.58,0-.51.92.07.91l2.83-.09C233.7,223.46,233.63,222.55,233.05,222.57Z"/><path class="cls-2" d="M232.92,227l-2.7-1.11c-.54-.22-.94.59-.4.82l2.7,1.11C233.06,228,233.46,227.18,232.92,227Z"/><path class="cls-4" d="M104.61,164c-2.86-3.37-1.82-11.7-1.82-11.7.76-2.94,4.15-4.94,7.31-4.85,3.54.1,6.73,2.07,9.61,4.13a10.86,10.86,0,0,1,3.9,4.07,11.46,11.46,0,0,1,.65,4.55,10.79,10.79,0,0,1-.58,4.46c-1.17,2.71-4.32,4-7.26,4.21A14.46,14.46,0,0,1,104.61,164Z"/><path class="cls-4" d="M144.62,230.59c-4.37-1.22-8.55-3.15-13-4.06-12.33-2.5-24.71,3.12-36,8.72s-23.4,11.51-35.83,9.6c-13.91-2.13-25.44-13.78-39.52-13.94-5.88-.06-12.76,1.61-16.91-2.56A10.93,10.93,0,0,1,.89,224,19,19,0,0,1,6,204.42c7.76-7.12,19.88-6.55,29.05-11.73s14.16-15.16,22.44-21.44c7.82-5.93,18.65-8,27.84-4.6,6.9,2.56,12.7,8,20,9.22,6.82,1.16,13.61-1.6,20.36-3.09,11.63-2.56,25.1-.78,33.14,8,5.27,5.74,7.51,13.61,11.93,20,1.65,2.4,3.62,4.6,4.86,7.24a.19.19,0,0,0,0,.07v-1c.13.62.26,1.24.37,1.88a10.12,10.12,0,0,1,.67,4.69h0c.45,4.79,0,9.54-3.18,13-2.52,2.77-6.26,4.06-9.92,4.74A41.6,41.6,0,0,1,144.62,230.59Z"/><path class="cls-4" d="M356.44,136.94a3.42,3.42,0,0,1,2.19-5c5.56-2.8,12.66-1.81,17.59,2a20.88,20.88,0,0,1,7.73,16.3,16,16,0,0,1-3.51,10.65c-2.52,2.88-6.74,4.41-10.34,3.14a5.78,5.78,0,0,1-2.5-1.64c-1.49-1.76-1.38-4.29-1.51-6.59a24.55,24.55,0,0,0-8.95-17.36L359,141.3A15.44,15.44,0,0,1,356.44,136.94Z"/><path class="cls-4" d="M143.15,250.25a20.53,20.53,0,0,1-.86,6.68c-.41,1.64-.8,3.27-1.2,4.9-.45,1.86-1,3.83-2.35,5.15a7.42,7.42,0,0,1-6.29,1.47c-3.62-.59-7.1-2.95-8.27-6.42a11.12,11.12,0,0,1,1-8.45,25.8,25.8,0,0,1,3.67-5.21,2.82,2.82,0,0,1,.66-1.59,6.51,6.51,0,0,1,2.79-1.64c2.43-.91,5.25-1.65,7.56-.46A6.89,6.89,0,0,1,143.15,250.25Z"/><path class="cls-4" d="M399.44,206c-1.58,5.15-6.41,8.8-11.59,10.24s-10.68,1-16,.09c-15.59-2.63-31.44-8.87-46.72-4.83-6.68,1.77-12.7,5.41-19.13,7.94a60.85,60.85,0,0,1-31.49,3.44c-7.35-1.16-14.43-3.67-21.74-5.12-18.73-3.71-38.21-.28-56.39,5.55C187.79,226,179,229.38,170,228.39s-18.1-8.1-17.66-17.14c.28-5.71,4.31-10.71,9.26-13.55s10.72-3.85,16.4-4.48c3.17-.35,6.53-.67,9.09-2.58,3.89-2.88,4.62-8.37,4.39-13.21s-1.11-9.87.75-14.34c2.79-6.72,10.81-9.74,18.08-9.87S224.73,155.08,232,155s15.33-3,18.26-9.61c1.54-3.47,1.44-7.42,1.95-11.17v0l-.06,0a27.08,27.08,0,0,1,1.66-6.57c0-.15.1-.29.15-.43a29.33,29.33,0,0,1,18.47-17,28.91,28.91,0,0,1,19.27,1.3,28.2,28.2,0,0,1,10.76,7.94C307.68,125.85,311,135.07,319,137c6.28,1.48,13.1-2.46,19.17-.28,5.25,1.9,8,7.7,9.11,13.15s1.36,11.26,4,16.17c3.58,6.66,10.94,10.34,18.13,12.7s14.82,3.89,21.13,8S401.68,198.73,399.44,206Z"/><polygon class="cls-5" points="180.58 278.35 131.53 278.35 134.74 227.18 177.38 227.18 180.58 278.35"/><polygon class="cls-6" points="177.38 227.18 134.74 227.18 139.97 143.63 172.14 143.63 177.38 227.18"/><polygon class="cls-7" points="184.31 337.87 127.8 337.87 131.53 278.35 180.58 278.35 184.31 337.87"/><polygon class="cls-8" points="171.24 116.75 140.87 116.75 141.62 94.3 170.49 94.3 171.24 116.75"/><polygon class="cls-5" points="171.65 128.9 140.47 128.9 140.87 116.75 171.24 116.75 171.65 128.9"/><polygon class="cls-8" points="172.14 143.63 139.97 143.63 140.47 128.9 171.65 128.9 172.14 143.63"/><polygon class="cls-5" points="255.76 278.5 206.71 278.5 209.91 227.33 252.56 227.33 255.76 278.5"/><polygon class="cls-6" points="252.56 227.33 209.91 227.33 215.15 107.37 247.32 107.37 252.56 227.33"/><polygon class="cls-7" points="259.49 338.01 202.98 338.01 206.71 278.5 255.76 278.5 259.49 338.01"/><polygon class="cls-8" points="246.41 80.5 216.05 80.5 216.78 58.36 216.79 58.04 245.67 58.04 246.41 80.5"/><polygon class="cls-5" points="246.82 92.65 215.64 92.65 216.05 80.5 246.42 80.5 246.82 92.65"/><polygon class="cls-8" points="247.32 107.37 215.15 107.37 215.64 92.65 246.82 92.65 247.32 107.37"/><path class="cls-4" d="M340.15,53.52c-14.42,4.83-30.2-8.54-44.69-4-5.13,1.61-9.3,5.26-13.7,8.31s-9.67,5.66-14.95,4.71c-3.77-.68-6.95-3.07-10.43-4.67s-7.91-2.28-10.82.16H216.79v.32c-3.13.69-5.79,3.33-7.66,6.09-2.29,3.4-4,7.34-7.25,9.87-8.56,6.74-22.35.2-31.5,6.12a13.56,13.56,0,0,0-5.77,13.71v.15H148.82v-.51c-7.24-1.37-10.75-10.06-10.1-17.4S142.84,62.24,144,55c.91-5.8.35-11.76,1.39-17.54a32.69,32.69,0,0,1,23.24-25.22c13.77-3.66,28.56,2.11,42.51-.76,9.14-1.88,17.16-7.31,26.13-9.85a43.23,43.23,0,0,1,32.11,3.56c7.05,3.83,13.16,9.7,20.94,11.66,14,3.52,28.37-6.72,42.68-4.74,9.57,1.32,18.21,8.81,20.07,18.28S349.3,50.45,340.15,53.52Z"/><path class="cls-4" d="M140,44.88c-1-6.28-6.68-13.22-13.43-8.49a10.67,10.67,0,0,0-1.93,1.77,5.59,5.59,0,0,0-.75.78c-4.35,5.67-7,13.35-5,20.48s9.39,9.9,15.17,5C139.4,59.93,141.08,51.43,140,44.88Z"/><path class="cls-4" d="M373.12,66c-2.8,15.73-18.05,22.11-32.58,21.38-8.8-.45-17.22-3.11-25.89-4.44-9.83-1.51-18.11,1.33-27.66,2.85-14.88,2.36-30.31-7.61-29.87-23.78a24.67,24.67,0,0,1,8.93-18.1c5.81-4.84,13.26-5.86,20.58-5.29,4.85.36,9.74,1.55,14.63,2.12a30,30,0,0,0,10.26-.58L312,40a31.32,31.32,0,0,0,8.12-3.18c3.69-2.09,7.3-4.41,11.38-5.55a28.43,28.43,0,0,1,25.34,5.45,37.2,37.2,0,0,0,3.94,2.77C369.69,45,375.13,54.6,373.12,66Z"/><path class="cls-4" d="M270.1,13.78c-4-4.49-11.42-4-16.71-2.6a25.91,25.91,0,0,0-15,10.81,12.73,12.73,0,0,0-2.08,7.66c0,.29-.09.57-.12.86-.57,5.52,2.76,11.74,9,11.36,3.21-.19,5.77-2.3,8.16-4.21,3.68-2.92,7.33-5.89,11-8.84C269,25.07,275.57,20,270.1,13.78Z"/><path class="cls-9" d="M337.17,327.7c0,4.31-3.53,7.71-6.94,10.33v0H210.8c-2.82.43-14-4.15-13.37-7.25s3.75-4.71,6.58-5.91c5.44-2.27,11.56-4.21,17.11-2.24a66.74,66.74,0,0,1-7.81-18.74c-1.09-4.49-1.45-9.93,2-13,3.78-3.35,9.77-1.76,14.13.8A56.13,56.13,0,0,1,245.15,306c.72-9.49,1.53-19.29,6-27.68a16.31,16.31,0,0,1,4.66-5.77,8.06,8.06,0,0,1,7.09-1.34,10,10,0,0,1,4.52,3.7c6.28,8.32,6.56,19.63,5.79,30a97.89,97.89,0,0,1,21-15.1,26.24,26.24,0,0,1,8.87-3.26,9.08,9.08,0,0,1,6.53,1.35c2.45,1.81,3.27,5.25,2.7,8.25a19.35,19.35,0,0,1-4.23,8,57.74,57.74,0,0,1-12.34,11.53c11-1.38,22.63-2.68,32.8,1.73C332.9,319.4,337.17,323,337.17,327.7Z"/><path class="cls-10" d="M224.75,294.32l-3.37-.82c-.47-.12-.61.63-.14.74l3.36.82C225.07,295.17,225.22,294.43,224.75,294.32Z"/><path class="cls-10" d="M228.7,294.83c-.27,1-.54,1.91-.8,2.86-.13.47.61.61.74.15.27-1,.53-1.91.8-2.86C229.57,294.51,228.83,294.37,228.7,294.83Z"/><path class="cls-10" d="M224.89,300.49c-.3-.95-.61-1.9-.91-2.86-.14-.46-.85-.2-.71.26l.9,2.86C224.32,301.21,225,301,224.89,300.49Z"/><path class="cls-10" d="M221.19,300.89l-2.24.46c-.47.09-.42.85.06.75l2.23-.46C221.71,301.54,221.66,300.79,221.19,300.89Z"/><path class="cls-10" d="M219,297c-.41-.81-.81-1.63-1.22-2.44-.22-.43-.93-.18-.72.25l1.23,2.45C218.49,297.72,219.2,297.47,219,297Z"/><path class="cls-10" d="M215.73,299.51l-1,3.16c-.15.47.59.61.74.15l1-3.16C216.62,299.2,215.88,299.06,215.73,299.51Z"/><path class="cls-10" d="M218.89,307.06l-2.25-1.31c-.42-.25-.75.44-.33.68l2.25,1.31C219,308,219.31,307.3,218.89,307.06Z"/><path class="cls-10" d="M222.91,305.24l-2.45-.61c-.47-.12-.61.62-.14.74l2.44.62C223.23,306.1,223.38,305.36,222.91,305.24Z"/><path class="cls-10" d="M227.21,302.79c-.2.85-.41,1.7-.61,2.55-.11.48.63.62.74.15.21-.85.41-1.7.61-2.55C228.06,302.46,227.32,302.32,227.21,302.79Z"/><path class="cls-10" d="M232.13,309.75l-3.36-.82c-.48-.12-.62.62-.15.74l3.36.82C232.46,310.6,232.6,309.86,232.13,309.75Z"/><path class="cls-10" d="M236.08,310.26c-.27.95-.53,1.91-.8,2.86-.13.47.61.61.74.14.27-.95.54-1.9.8-2.85C237,309.94,236.21,309.8,236.08,310.26Z"/><path class="cls-10" d="M232.27,315.92l-.9-2.86c-.15-.46-.86-.21-.71.26l.9,2.86C231.7,316.64,232.41,316.39,232.27,315.92Z"/><path class="cls-10" d="M228.57,316.32l-2.23.45c-.47.1-.42.86,0,.76l2.24-.46C229.1,317,229.05,316.22,228.57,316.32Z"/><path class="cls-10" d="M226.37,312.46,225.14,310c-.22-.43-.93-.18-.71.25.41.82.82,1.63,1.22,2.45C225.87,313.14,226.58,312.9,226.37,312.46Z"/><path class="cls-10" d="M223.11,314.94l-1,3.16c-.15.47.6.61.74.15l1-3.16C224,314.63,223.26,314.49,223.11,314.94Z"/><path class="cls-10" d="M226.27,322.49,224,321.18c-.42-.25-.75.43-.33.68l2.25,1.3C226.36,323.41,226.69,322.73,226.27,322.49Z"/><path class="cls-10" d="M230.29,320.67l-2.45-.61c-.47-.12-.61.62-.14.74l2.44.61C230.62,321.53,230.76,320.79,230.29,320.67Z"/><path class="cls-10" d="M234.59,318.22c-.2.85-.4,1.7-.61,2.55-.11.47.63.62.74.14.21-.84.41-1.69.61-2.54C235.45,317.89,234.71,317.75,234.59,318.22Z"/><path class="cls-10" d="M266.94,281.69,264.75,279c-.31-.37-.87.13-.57.51l2.19,2.68C266.68,282.58,267.24,282.07,266.94,281.69Z"/><path class="cls-10" d="M269.78,284.49l-2.36,1.79c-.39.3.12.86.5.57l2.37-1.8C270.67,284.75,270.17,284.19,269.78,284.49Z"/><path class="cls-10" d="M263.33,286.71l1-2.83c.16-.45-.56-.68-.72-.22l-1,2.82C262.44,286.94,263.16,287.17,263.33,286.71Z"/><path class="cls-10" d="M260.14,284.79l-2.06-1c-.43-.2-.85.43-.41.64l2.06,1C260.16,285.64,260.58,285,260.14,284.79Z"/><path class="cls-10" d="M260.7,280.39c.17-.9.33-1.79.49-2.69.09-.47-.63-.71-.72-.23-.16.9-.33,1.8-.49,2.69C259.89,280.64,260.61,280.87,260.7,280.39Z"/><path class="cls-10" d="M256.61,280.41l-2.72,1.91c-.4.28.11.84.51.56l2.71-1.91C257.51,280.69,257,280.13,256.61,280.41Z"/><path class="cls-10" d="M254.59,288.34c-.34-.81-.68-1.61-1-2.41-.19-.45-.86-.1-.68.35.34.8.68,1.6,1,2.4C254.1,289.13,254.78,288.78,254.59,288.34Z"/><path class="cls-10" d="M258.89,289.31l-1.59-2c-.3-.38-.86.13-.56.51l1.58,2C258.63,290.19,259.19,289.68,258.89,289.31Z"/><path class="cls-10" d="M263.8,289.94l-2,1.67c-.38.31.13.87.5.56l2-1.66C264.68,290.2,264.17,289.63,263.8,289.94Z"/><path class="cls-10" d="M263.54,298.46c-.73-.9-1.46-1.79-2.2-2.68-.3-.38-.87.13-.56.5L263,299C263.28,299.34,263.84,298.83,263.54,298.46Z"/><path class="cls-10" d="M266.38,301.25l-2.36,1.8c-.39.29.12.85.5.56l2.36-1.8C267.27,301.52,266.76,301,266.38,301.25Z"/><path class="cls-10" d="M259.93,303.47c.33-.94.66-1.88,1-2.82a.38.38,0,0,0-.72-.23c-.34.94-.67,1.88-1,2.83C259,303.7,259.76,303.93,259.93,303.47Z"/><path class="cls-10" d="M256.74,301.56l-2.06-1c-.43-.21-.85.42-.41.63l2.06,1C256.76,302.4,257.18,301.76,256.74,301.56Z"/><path class="cls-10" d="M257.3,297.15c.16-.9.33-1.79.49-2.69.09-.47-.63-.7-.72-.22-.16.89-.33,1.79-.49,2.69C256.49,297.4,257.21,297.63,257.3,297.15Z"/><path class="cls-10" d="M253.21,297.17l-2.72,1.91c-.4.28.11.84.51.56l2.71-1.9C254.11,297.46,253.6,296.9,253.21,297.17Z"/><path class="cls-10" d="M251.19,305.1c-.34-.8-.68-1.6-1-2.4-.19-.45-.86-.11-.68.34.34.8.68,1.6,1,2.4C250.7,305.89,251.38,305.54,251.19,305.1Z"/><path class="cls-10" d="M255.49,306.07l-1.59-2c-.3-.38-.86.12-.56.5l1.58,2C255.23,307,255.79,306.45,255.49,306.07Z"/><path class="cls-10" d="M260.4,306.7l-2,1.67c-.37.31.13.87.51.57l2-1.67C261.28,307,260.77,306.4,260.4,306.7Z"/><path class="cls-10" d="M308.86,296.84l-1-3.3c-.14-.47-.85-.21-.71.25l1,3.31C308.29,297.56,309,297.31,308.86,296.84Z"/><path class="cls-10" d="M308.8,299.43l-2.87.77c-.47.13-.21.84.26.71l2.86-.77C309.52,300,309.26,299.3,308.8,299.43Z"/><path class="cls-10" d="M303.62,300.12l2-2.23c.32-.37-.26-.85-.59-.48l-2,2.23C302.72,300,303.3,300.49,303.62,300.12Z"/><path class="cls-10" d="M301.39,297.15l-1.53-1.69c-.33-.35-.95.08-.62.44l1.53,1.68C301.1,297.94,301.72,297.51,301.39,297.15Z"/><path class="cls-10" d="M303.58,293.28l1.47-2.3c.26-.41-.32-.9-.58-.48L303,292.8C302.74,293.2,303.32,293.69,303.58,293.28Z"/><path class="cls-10" d="M299.78,291.76l-3.24.74c-.47.11-.21.82.26.71l3.23-.74C300.51,292.36,300.25,291.65,299.78,291.76Z"/><path class="cls-10" d="M294.92,298.33l0-2.6c0-.49-.76-.42-.76.06l0,2.6C294.17,298.88,294.92,298.82,294.92,298.33Z"/><path class="cls-10" d="M298.53,300.85l-.72-2.41c-.14-.47-.86-.21-.72.25.25.81.49,1.61.73,2.42C298,301.58,298.67,301.32,298.53,300.85Z"/><path class="cls-10" d="M302.84,303.3l-2.5.78c-.47.14-.21.85.25.71l2.5-.78C303.56,303.86,303.3,303.15,302.84,303.3Z"/><path class="cls-10" d="M217.59,331.9l-1-3.31c-.14-.47-.85-.21-.71.25l1,3.31C217,332.62,217.73,332.36,217.59,331.9Z"/><path class="cls-10" d="M212.35,335.18c.67-.75,1.34-1.49,2-2.24.32-.36-.26-.84-.58-.48l-2,2.24C211.45,335.06,212,335.54,212.35,335.18Z"/><path class="cls-10" d="M210.12,332.2l-1.53-1.68c-.32-.36-1,.07-.62.43l1.54,1.68C209.83,333,210.45,332.56,210.12,332.2Z"/><path class="cls-10" d="M212.31,328.33l1.47-2.3c.26-.4-.32-.89-.58-.48l-1.47,2.3C211.47,328.26,212.05,328.74,212.31,328.33Z"/><path class="cls-10" d="M208.51,326.81l-3.23.74c-.48.11-.22.82.25.71l3.24-.74C209.24,327.41,209,326.7,208.51,326.81Z"/><path class="cls-10" d="M203.65,333.38l0-2.6c0-.49-.76-.42-.75.06l0,2.61C202.9,333.94,203.65,333.87,203.65,333.38Z"/><path class="cls-10" d="M207.26,335.91l-.72-2.42c-.14-.47-.85-.21-.71.26l.72,2.41C206.69,336.63,207.4,336.37,207.26,335.91Z"/><path class="cls-10" d="M221.86,308.14c-.28,1-.55,2-.82,3.06-.13.47.62.61.74.14.27-1,.55-2,.82-3.06C222.72,307.81,222,307.67,221.86,308.14Z"/><path class="cls-10" d="M221,314.31c-.53-.89-1.06-1.78-1.6-2.67-.25-.41-.87,0-.62.43l1.6,2.67C220.64,315.16,221.26,314.73,221,314.31Z"/><path class="cls-10" d="M254.85,294.44l-.93-2.85a.38.38,0,0,0-.72.26l.94,2.84C254.29,295.16,255,294.9,254.85,294.44Z"/><path class="cls-10" d="M250.83,293.26c-.51.82-1,1.63-1.54,2.44-.26.41.42.74.68.33l1.54-2.43C251.77,293.18,251.09,292.86,250.83,293.26Z"/><path class="cls-10" d="M256.55,278.23l-2.19-2c-.36-.33-.85.25-.49.58l2.19,2C256.42,279.13,256.92,278.56,256.55,278.23Z"/><path class="cls-10" d="M264.12,274.62c-.32,1-.64,2-.95,2.95-.15.46.59.6.74.15.32-1,.63-2,.95-3C265,274.31,264.26,274.17,264.12,274.62Z"/><path class="cls-10" d="M262.16,274.55,259,274a.38.38,0,0,0-.14.75l3.16.59A.38.38,0,0,0,262.16,274.55Z"/><path class="cls-10" d="M249.61,288c-.11,1.15-.23,2.31-.34,3.46-.05.48.69.63.74.15.11-1.16.23-2.31.34-3.46C250.4,287.62,249.66,287.48,249.61,288Z"/><path class="cls-10" d="M267.44,296.2l-1.63-2.61c-.26-.41-.88,0-.63.43.55.87,1.1,1.74,1.64,2.61C267.08,297,267.7,296.61,267.44,296.2Z"/><path class="cls-10" d="M271.7,293.8l-2-2.34c-.31-.37-.94.06-.62.42l2,2.35C271.39,294.59,272,294.17,271.7,293.8Z"/><path class="cls-10" d="M271,296.63l-1,2.45c-.19.45.49.78.68.33l1-2.44C271.89,296.52,271.21,296.18,271,296.63Z"/><path class="cls-10" d="M289.64,295.49l-1.27,2.42c-.23.44.45.76.68.33l1.27-2.41C290.55,295.39,289.87,295.06,289.64,295.49Z"/><path class="cls-10" d="M294.76,293l-2.34-.42a.38.38,0,0,0-.15.75l2.34.41C295.09,293.84,295.24,293.1,294.76,293Z"/><path class="cls-10" d="M308.18,289.27l-1,2.25c-.2.44.48.77.68.33.34-.75.67-1.5,1-2.24C309.06,289.16,308.38,288.83,308.18,289.27Z"/><path class="cls-10" d="M305.83,304.1l-2.14,2.34c-.33.36.25.85.58.5.71-.79,1.42-1.57,2.14-2.35C306.74,304.23,306.16,303.74,305.83,304.1Z"/><path class="cls-10" d="M305.21,318.71l-3.53-1.51c-.45-.19-.78.49-.33.68l3.53,1.51C305.32,319.58,305.65,318.9,305.21,318.71Z"/><path class="cls-10" d="M309.07,316.76c-.51,1-1,2.07-1.54,3.11a.38.38,0,0,0,.68.33l1.54-3.11A.38.38,0,0,0,309.07,316.76Z"/><path class="cls-10" d="M307.08,323.6l-.79-2.59c-.14-.47-.85-.21-.71.25l.79,2.59C306.51,324.32,307.22,324.06,307.08,323.6Z"/><path class="cls-10" d="M314.65,319.41,311,319.3c-.49,0-.43.74,0,.76l3.67.11C315.19,320.18,315.13,319.43,314.65,319.41Z"/><path class="cls-10" d="M319,319.16l-3.37-2.75c-.38-.31-.88.26-.5.57l3.38,2.75C318.92,320,319.42,319.46,319,319.16Z"/><path class="cls-10" d="M322.07,318l-1.22,2.86c-.19.44.49.78.68.33l1.22-2.86C322.94,317.85,322.26,317.51,322.07,318Z"/><path class="cls-10" d="M321.35,322.85l-2.46-1.06c-.44-.19-.78.49-.33.68l2.46,1.06C321.47,323.72,321.8,323,321.35,322.85Z"/><path class="cls-10" d="M326.39,320.54l-2.59.8c-.47.14-.21.86.25.71l2.59-.79C327.11,321.11,326.85,320.4,326.39,320.54Z"/><path class="cls-10" d="M328.57,319.29l-2.72-1.22c-.45-.2-.78.48-.33.68l2.71,1.22C328.68,320.17,329,319.49,328.57,319.29Z"/><path class="cls-10" d="M242,338.08l-.27-.06H78.64v-.34a51.89,51.89,0,0,1-15-2.22c-3-.9-6.3-2.7-6.42-5.78-.09-2.09,1.43-3.9,3-5.23,5-4.15,11.55-6,18-6.34s12.93.68,19.32,1.72c-4.39-9.78-8.88-20.09-8-30.77.38-4.68,2.66-10.07,7.3-10.8,2.28-.36,4.55.53,6.64,1.51A78.35,78.35,0,0,1,130.92,301c-.31-11.43-.47-23.48,5.11-33.45,1-1.8,2.3-3.6,4.22-4.33,2.79-1.06,5.87.45,8.24,2.25,9.42,7.15,14.15,18.93,16.55,30.51a108.31,108.31,0,0,1,21-19.09c4.67-3.25,11-6.15,15.77-3.13,3.51,2.2,4.7,6.71,5.18,10.82,1.26,10.79-.69,22.47-7.82,30.66,9.54-1.23,19.53-2.42,28.55.94S244.12,328.81,242,338.08Z"/><path class="cls-9" d="M101.59,287.13l-3.36-.82c-.47-.11-.62.63-.14.74l3.36.82C101.92,288,102.07,287.24,101.59,287.13Z"/><path class="cls-9" d="M105.55,287.65l-.81,2.85c-.13.47.62.62.75.15.26-.95.53-1.91.8-2.86C106.42,287.32,105.68,287.18,105.55,287.65Z"/><path class="cls-9" d="M101.73,293.31l-.9-2.86c-.14-.47-.86-.21-.71.25l.9,2.86C101.17,294,101.88,293.77,101.73,293.31Z"/><path class="cls-9" d="M98,293.7l-2.23.46c-.47.1-.42.85.06.75l2.23-.46C98.56,294.36,98.51,293.6,98,293.7Z"/><path class="cls-9" d="M95.83,289.84,94.6,287.4c-.21-.43-.93-.18-.71.26l1.23,2.44C95.33,290.53,96.05,290.28,95.83,289.84Z"/><path class="cls-9" d="M92.58,292.33l-1,3.16c-.15.46.59.6.74.14l1-3.16C93.47,292,92.72,291.87,92.58,292.33Z"/><path class="cls-9" d="M95.74,299.87l-2.25-1.31c-.43-.24-.75.44-.34.68l2.26,1.31C95.83,300.79,96.16,300.11,95.74,299.87Z"/><path class="cls-9" d="M99.75,298.06l-2.44-.62c-.47-.12-.62.63-.15.74l2.45.62C100.08,298.92,100.22,298.17,99.75,298.06Z"/><path class="cls-9" d="M104.06,295.61c-.21.85-.41,1.69-.61,2.54-.12.48.63.62.74.15.2-.85.41-1.7.61-2.55C104.91,295.28,104.17,295.13,104.06,295.61Z"/><path class="cls-9" d="M109,302.56l-3.37-.82c-.47-.12-.61.63-.14.74l3.36.82C109.3,303.42,109.45,302.67,109,302.56Z"/><path class="cls-9" d="M112.93,303.07c-.27,1-.54,1.91-.8,2.86-.13.47.61.61.74.15.27-.95.53-1.91.8-2.86C113.8,302.75,113.06,302.61,112.93,303.07Z"/><path class="cls-9" d="M109.12,308.74c-.3-1-.61-1.91-.91-2.86-.14-.47-.85-.21-.71.25l.9,2.86C108.55,309.46,109.26,309.2,109.12,308.74Z"/><path class="cls-9" d="M105.42,309.13l-2.24.46c-.47.09-.42.85.06.75l2.23-.46C105.94,309.79,105.89,309,105.42,309.13Z"/><path class="cls-9" d="M103.21,305.27,102,302.83c-.22-.43-.93-.18-.72.25l1.23,2.45C102.72,306,103.43,305.71,103.21,305.27Z"/><path class="cls-9" d="M100,307.76l-1,3.16c-.15.46.59.6.74.14l1-3.16C100.85,307.44,100.11,307.3,100,307.76Z"/><path class="cls-9" d="M103.12,315.3,100.87,314c-.42-.24-.75.44-.33.68l2.25,1.31C103.21,316.22,103.54,315.54,103.12,315.3Z"/><path class="cls-9" d="M107.14,313.49l-2.45-.62c-.47-.12-.61.63-.14.74l2.44.62C107.46,314.35,107.61,313.6,107.14,313.49Z"/><path class="cls-9" d="M111.44,311c-.2.85-.41,1.7-.61,2.55-.11.48.63.62.74.15.21-.85.41-1.7.61-2.55C112.3,310.71,111.55,310.56,111.44,311Z"/><path class="cls-9" d="M150.78,274.34l-2.19-2.68c-.31-.38-.87.13-.56.5l2.19,2.68C150.53,275.22,151.09,274.71,150.78,274.34Z"/><path class="cls-9" d="M153.62,277.13l-2.36,1.8c-.39.29.12.86.51.56l2.36-1.8C154.52,277.4,154,276.84,153.62,277.13Z"/><path class="cls-9" d="M147.17,279.35l1-2.82c.17-.46-.56-.69-.72-.23l-1,2.83C146.29,279.59,147,279.81,147.17,279.35Z"/><path class="cls-9" d="M144,277.44l-2.06-1c-.43-.21-.84.43-.41.64l2.06,1C144,278.28,144.42,277.65,144,277.44Z"/><path class="cls-9" d="M144.54,273c.17-.89.33-1.79.5-2.69.08-.47-.64-.7-.72-.22-.17.89-.33,1.79-.5,2.69C143.74,273.28,144.46,273.51,144.54,273Z"/><path class="cls-9" d="M140.45,273.06l-2.72,1.9c-.39.28.12.84.51.57l2.72-1.91C141.35,273.34,140.84,272.78,140.45,273.06Z"/><path class="cls-9" d="M138.43,281l-1-2.4c-.19-.45-.86-.1-.67.34.33.8.67,1.6,1,2.4C138,281.77,138.62,281.43,138.43,281Z"/><path class="cls-9" d="M142.73,282l-1.58-2c-.31-.38-.87.13-.57.5l1.59,2C142.47,282.84,143,282.33,142.73,282Z"/><path class="cls-9" d="M147.64,282.59l-2,1.66c-.38.31.13.88.5.57l2-1.67C148.52,282.84,148,282.28,147.64,282.59Z"/><path class="cls-9" d="M147.38,291.1l-2.19-2.68c-.31-.38-.87.13-.56.51l2.19,2.68C147.12,292,147.69,291.48,147.38,291.1Z"/><path class="cls-9" d="M150.22,293.89l-2.36,1.8c-.39.3.12.86.51.57l2.36-1.8C151.12,294.16,150.61,293.6,150.22,293.89Z"/><path class="cls-9" d="M143.77,296.12c.33-.95.67-1.89,1-2.83.17-.46-.56-.68-.72-.22l-1,2.82C142.88,296.35,143.61,296.57,143.77,296.12Z"/><path class="cls-9" d="M140.58,294.2l-2.06-1c-.43-.2-.85.43-.41.64l2.06,1C140.6,295,141,294.41,140.58,294.2Z"/><path class="cls-9" d="M141.14,289.8c.17-.9.33-1.8.5-2.69.08-.48-.64-.71-.72-.23-.17.9-.33,1.79-.5,2.69C140.34,290,141.06,290.27,141.14,289.8Z"/><path class="cls-9" d="M137.05,289.82l-2.72,1.91c-.39.28.11.84.51.56l2.72-1.91C138,290.1,137.44,289.54,137.05,289.82Z"/><path class="cls-9" d="M135,297.74l-1-2.4c-.19-.45-.86-.1-.67.34.33.8.67,1.61,1,2.41C134.55,298.53,135.22,298.19,135,297.74Z"/><path class="cls-9" d="M139.33,298.71c-.53-.65-1.06-1.3-1.58-2-.31-.38-.87.13-.57.51l1.59,2C139.07,299.6,139.63,299.09,139.33,298.71Z"/><path class="cls-9" d="M144.24,299.35l-2,1.67c-.38.31.13.87.5.56l2-1.67C145.12,299.6,144.61,299,144.24,299.35Z"/><path class="cls-9" d="M201.93,286.07c-.33-1.1-.67-2.2-1-3.3-.15-.47-.86-.21-.71.25l1,3.31C201.37,286.8,202.08,286.54,201.93,286.07Z"/><path class="cls-9" d="M201.87,288.66l-2.86.77c-.47.13-.22.84.25.71l2.87-.77C202.6,289.24,202.34,288.53,201.87,288.66Z"/><path class="cls-9" d="M196.7,289.35l2-2.23c.33-.37-.26-.85-.58-.48l-2,2.23C195.79,289.24,196.37,289.72,196.7,289.35Z"/><path class="cls-9" d="M194.47,286.38c-.51-.56-1-1.12-1.54-1.69-.32-.35-.94.08-.62.44l1.54,1.68C194.17,287.17,194.79,286.74,194.47,286.38Z"/><path class="cls-9" d="M196.65,282.51l1.48-2.3c.25-.41-.33-.89-.59-.48l-1.47,2.3C195.81,282.44,196.39,282.92,196.65,282.51Z"/><path class="cls-9" d="M192.85,281l-3.23.74c-.48.11-.22.82.25.71l3.24-.74C193.58,281.59,193.32,280.88,192.85,281Z"/><path class="cls-9" d="M188,287.56l0-2.6c0-.49-.76-.42-.75.06l0,2.61C187.24,288.11,188,288.05,188,287.56Z"/><path class="cls-9" d="M191.61,290.08c-.25-.8-.49-1.61-.73-2.41-.14-.47-.85-.21-.71.25l.72,2.42C191,290.81,191.74,290.55,191.61,290.08Z"/><path class="cls-9" d="M195.91,292.53l-2.5.78c-.46.14-.21.85.26.71l2.5-.78C196.63,293.09,196.38,292.38,195.91,292.53Z"/><path class="cls-9" d="M76.85,328.64l-1-3.31c-.14-.47-.85-.21-.71.25l1,3.31C76.28,329.36,77,329.1,76.85,328.64Z"/><path class="cls-9" d="M71.62,331.92l2-2.24c.32-.36-.26-.84-.58-.48-.67.74-1.33,1.49-2,2.24C70.71,331.8,71.29,332.28,71.62,331.92Z"/><path class="cls-9" d="M69.38,328.94l-1.53-1.68c-.32-.36-.95.07-.62.43l1.54,1.68C69.09,329.73,69.71,329.3,69.38,328.94Z"/><path class="cls-9" d="M71.57,325.07l1.47-2.3c.26-.41-.32-.89-.58-.48L71,324.59C70.73,325,71.31,325.48,71.57,325.07Z"/><path class="cls-9" d="M67.77,323.55l-3.23.74c-.48.11-.22.82.25.71l3.24-.74C68.5,324.15,68.24,323.44,67.77,323.55Z"/><path class="cls-9" d="M62.91,330.12l0-2.6c0-.49-.76-.42-.75.06l0,2.61C62.16,330.67,62.91,330.61,62.91,330.12Z"/><path class="cls-9" d="M66.52,332.65l-.72-2.42c-.14-.47-.85-.21-.71.26l.72,2.41C66,333.37,66.66,333.11,66.52,332.65Z"/><path class="cls-9" d="M98.7,301,97.89,304c-.13.47.61.61.74.15l.81-3.06C99.57,300.63,98.83,300.48,98.7,301Z"/><path class="cls-9" d="M97.86,307.13l-1.6-2.67c-.25-.42-.87,0-.62.43.53.89,1.06,1.78,1.6,2.67C97.49,308,98.11,307.54,97.86,307.13Z"/><path class="cls-9" d="M138.69,287.08l-.93-2.84c-.15-.47-.86-.21-.71.25l.93,2.85A.38.38,0,0,0,138.69,287.08Z"/><path class="cls-9" d="M134.67,285.91c-.51.81-1,1.62-1.54,2.44-.26.41.42.73.68.33.51-.82,1-1.63,1.54-2.44C135.61,285.83,134.93,285.5,134.67,285.91Z"/><path class="cls-9" d="M140.4,270.88l-2.2-2c-.36-.33-.85.24-.49.57l2.2,2C140.27,271.78,140.76,271.2,140.4,270.88Z"/><path class="cls-9" d="M148,267.27c-.32,1-.63,2-1,2.94-.15.47.59.61.74.15.32-1,.64-2,.95-2.95C148.85,267,148.11,266.81,148,267.27Z"/><path class="cls-9" d="M146,267.19l-3.17-.59a.38.38,0,0,0-.14.74l3.16.59A.38.38,0,0,0,146,267.19Z"/><path class="cls-9" d="M133.45,280.6c-.11,1.16-.22,2.31-.34,3.47-.05.48.7.63.74.14.12-1.15.23-2.31.35-3.46C134.24,280.27,133.5,280.12,133.45,280.6Z"/><path class="cls-9" d="M151.29,288.85l-1.64-2.61c-.26-.42-.88,0-.62.43l1.63,2.61C150.92,289.69,151.54,289.26,151.29,288.85Z"/><path class="cls-9" d="M155.54,286.44l-2-2.34c-.31-.36-.94.06-.62.43l2,2.34C155.24,287.24,155.86,286.81,155.54,286.44Z"/><path class="cls-9" d="M154.87,289.28l-1,2.45c-.18.44.49.78.68.33l1-2.45C155.74,289.16,155.06,288.83,154.87,289.28Z"/><path class="cls-9" d="M182.72,284.72c-.43.81-.85,1.62-1.28,2.42a.38.38,0,0,0,.68.34c.43-.81.85-1.62,1.28-2.42A.38.38,0,0,0,182.72,284.72Z"/><path class="cls-9" d="M187.83,282.25l-2.34-.42a.38.38,0,0,0-.14.75l2.34.41A.38.38,0,0,0,187.83,282.25Z"/><path class="cls-9" d="M201.26,278.5l-1,2.25c-.2.44.48.77.68.33l1-2.24C202.14,278.39,201.46,278.06,201.26,278.5Z"/><path class="cls-9" d="M198.91,293.33l-2.14,2.34c-.33.36.24.86.57.5.72-.78,1.43-1.57,2.14-2.35C199.81,293.46,199.24,293,198.91,293.33Z"/><path class="cls-9" d="M83.21,330l-3.53-1.51c-.44-.19-.78.49-.33.68l3.53,1.51C83.33,330.86,83.66,330.18,83.21,330Z"/><path class="cls-9" d="M87.07,328l-1.53,3.11a.38.38,0,0,0,.68.33l1.53-3.11C88,327.94,87.29,327.61,87.07,328Z"/><path class="cls-9" d="M85.09,334.88l-.8-2.59c-.14-.46-.85-.21-.71.26l.79,2.59C84.52,335.6,85.23,335.35,85.09,334.88Z"/><path class="cls-9" d="M92.65,330.7,89,330.59c-.49,0-.43.74.06.75l3.67.11C93.19,331.46,93.13,330.71,92.65,330.7Z"/><path class="cls-9" d="M97,330.44l-3.37-2.75c-.38-.31-.87.27-.49.57L96.55,331C96.93,331.32,97.42,330.75,97,330.44Z"/><path class="cls-9" d="M100.07,329.24l-1.22,2.86c-.19.45.49.78.68.33l1.22-2.85C100.94,329.13,100.26,328.8,100.07,329.24Z"/><path class="cls-9" d="M99.36,334.13l-2.46-1.05c-.45-.2-.78.48-.33.67L99,334.81C99.47,335,99.8,334.32,99.36,334.13Z"/><path class="cls-9" d="M104.39,331.83l-2.59.79c-.46.15-.21.86.26.72l2.59-.8C105.11,332.4,104.86,331.68,104.39,331.83Z"/><path class="cls-9" d="M106.57,330.58l-2.72-1.23c-.44-.2-.77.48-.33.68l2.72,1.22C106.68,331.45,107,330.78,106.57,330.58Z"/><path class="cls-10" d="M329.68,248.79a34.3,34.3,0,0,1-8,.9c-2,.06-4,.12-6,.12a52.49,52.49,0,0,1-9.29-.69c-4.93-.88-9.79-2.88-13.29-6.44a1.26,1.26,0,0,1-.2-.2l-.09-.06a129,129,0,0,0,9.26-19.11q-.78-9.63-1.23-19.27c-3.5,3.11-25.41,22.61-37.23,35.8l0,.06a6.93,6.93,0,0,1-3.94-4.08c0-.07-.05-.15-.08-.23l.06,0c11.7-17.66,20.66-30.41,35.3-45.72a12.52,12.52,0,0,1,3.26-2.69,13.05,13.05,0,0,1,5.8-.92l7.61,0a2.09,2.09,0,0,0,.51.08h.07a62.44,62.44,0,0,0,6,7.76c.19.22.39.44.6.64,1.07-1.8,2.13-3.6,3.21-5.41l.38-.67c0-.38,0-.75,0-1.12,1.59.28,4.48,1.09,6,1.35.29.47.57.92.86,1.37l0,.23c0,.16,0,.31-.05.46a195.41,195.41,0,0,0-1.39,23.68,21,21,0,0,0,.81,5.93Q328.92,234.66,329.68,248.79Z"/><path class="cls-11" d="M340.1,213.49a48.67,48.67,0,0,1,.42,6.4c0,1.62-.16,3.37-1.25,4.57a4.68,4.68,0,0,1-2.9,1.35,7,7,0,0,1-5.51-1.78,8.4,8.4,0,0,1-2.14-3.51,21,21,0,0,1-.81-5.94,195.54,195.54,0,0,1,1.4-23.68h0a13.19,13.19,0,0,0,3.47-1l.29-.12,0,.08h0c.05.11.09.23.14.34C336.28,197.76,339.08,205.51,340.1,213.49Z"/><path class="cls-12" d="M258.82,238.08a3.66,3.66,0,0,0-.72-.14,20.93,20.93,0,0,0,1.63-2.12h0a6.94,6.94,0,0,0,3.94,4.09,7.89,7.89,0,0,1-.34,2.81,9.4,9.4,0,0,0-2.35-3.33A5.79,5.79,0,0,0,258.82,238.08Z"/><path class="cls-13" d="M255.62,243.81a6.13,6.13,0,0,0,3.26,2.38,5.89,5.89,0,0,0,2.82.53,2.74,2.74,0,0,0,1.34-.55l.7.14a2.85,2.85,0,0,1-1.68,3.45,6.88,6.88,0,0,1-4.19.18,4.8,4.8,0,0,1-2-.74,2.83,2.83,0,0,1-.88-1.14,4.08,4.08,0,0,1-.32-1.43,10,10,0,0,1,.39-2.87l.43-.2C255.53,243.64,255.58,243.73,255.62,243.81Z"/><path class="cls-10" d="M339.9,194.36a9.49,9.49,0,0,1,.5,3.79c0,5.11-.11,10.24-.3,15.34-1-8-3.82-15.73-6.84-23.26l.31-.13C336.13,190.75,338.88,191.92,339.9,194.36Z"/><path class="cls-13" d="M329.14,175.35a1.37,1.37,0,0,1,.29-.07,2.41,2.41,0,0,1,2.05,1.15,6.51,6.51,0,0,1,.68,1.1,14.72,14.72,0,0,1,1,6.11c0,2.08,0,4.15,0,6.23l-.05,0h0l0-.08-.29.12a13.19,13.19,0,0,1-3.47,1h0c0-.15,0-.3,0-.45l0-.24c-.29-.44-.57-.9-.85-1.36-.61-1-1.18-2.08-1.71-3.14a1.28,1.28,0,0,1-.14-.4.66.66,0,0,1,0-.14c.07-.58.91-.61,1.48-.45a16.29,16.29,0,0,1-.52-6.73C327.72,176.92,328.17,175.67,329.14,175.35Z"/><path class="cls-11" d="M328.92,242.47a51.08,51.08,0,0,1-33.49-3.07c-.54-.24-.93.58-.4.82a52.07,52.07,0,0,0,34.19,3.11C329.79,243.19,329.48,242.33,328.92,242.47Z"/><path class="cls-11" d="M328.63,236.67a74.54,74.54,0,0,1-31.2-1.86c-.57-.16-.74.74-.18.89a74.9,74.9,0,0,0,31.45,1.87C329.27,237.49,329.21,236.58,328.63,236.67Z"/><path class="cls-11" d="M328.9,230.56a75.6,75.6,0,0,1-29.1-.8.46.46,0,0,0-.18.9,76.5,76.5,0,0,0,29.35.81C329.54,231.37,329.48,230.46,328.9,230.56Z"/><path class="cls-11" d="M328.64,223.45a97.3,97.3,0,0,1-26.13-.52c-.58-.09-.75.8-.17.89a98.19,98.19,0,0,0,26.36.54C329.28,224.3,329.22,223.39,328.64,223.45Z"/><path class="cls-11" d="M328.26,215.91a102.65,102.65,0,0,1-26.38.77c-.58-.06-.76.83-.18.89a103.7,103.7,0,0,0,26.63-.75C328.9,216.73,328.84,215.82,328.26,215.91Z"/><path class="cls-11" d="M328.26,208.32a101.05,101.05,0,0,1-26.51,1c-.58-.06-.76.84-.17.89a101.15,101.15,0,0,0,26.75-1C328.9,209.13,328.84,208.22,328.26,208.32Z"/><path class="cls-11" d="M328.39,203.82a143.7,143.7,0,0,1-26.88-.44c-.57-.07-.75.83-.17.89a144.54,144.54,0,0,0,27.12.46A.46.46,0,0,0,328.39,203.82Z"/><path class="cls-11" d="M299.87,204.13a27.69,27.69,0,0,1-8.26-9c-.3-.51-1,0-.75.52a28.1,28.1,0,0,0,8.42,9.17C299.75,205.16,300.35,204.47,299.87,204.13Z"/><path class="cls-11" d="M295.34,208.66a32.31,32.31,0,0,1-7.86-9.87c-.27-.52-1,0-.75.52a32.8,32.8,0,0,0,8,10A.45.45,0,0,0,295.34,208.66Z"/><path class="cls-11" d="M289.82,213.44a23.36,23.36,0,0,1-7.27-8.37c-.26-.52-1.12-.22-.85.3a24.11,24.11,0,0,0,7.53,8.76C289.71,214.46,290.3,213.78,289.82,213.44Z"/><path class="cls-11" d="M284.51,217.78a24.09,24.09,0,0,1-5.75-7.32c-.26-.52-1.12-.22-.86.31a25.35,25.35,0,0,0,6,7.7A.45.45,0,0,0,284.51,217.78Z"/><path class="cls-11" d="M279.53,223a21.59,21.59,0,0,1-5.33-7.26c-.24-.53-1.1-.22-.86.31a22.71,22.71,0,0,0,5.59,7.64C279.37,224.08,280,223.39,279.53,223Z"/><path class="cls-11" d="M274.08,228a24.23,24.23,0,0,1-4.73-6.46c-.26-.52-1.12-.22-.86.3a25.57,25.57,0,0,0,5,6.85C273.91,229.05,274.5,228.36,274.08,228Z"/><path class="cls-11" d="M269.08,232.72l-3.46-5.13a.46.46,0,0,0-.75.52l3.47,5.13C268.66,233.73,269.41,233.21,269.08,232.72Z"/><path class="cls-11" d="M265.8,236.32a8.42,8.42,0,0,1-3.46-3.86c-.23-.53-1.09-.23-.85.31a9.53,9.53,0,0,0,3.91,4.37C265.9,237.44,266.3,236.62,265.8,236.32Z"/><path class="cls-5" d="M263.49,327.84a1.41,1.41,0,0,0,.34.19c2.93,3.68,5.76,6.74,6.29,12.54a65.42,65.42,0,0,1-15.26-12.38s2.76-3.88,4.09-5.25l0,0A13.89,13.89,0,0,0,263.49,327.84Z"/><path class="cls-8" d="M286.38,282.6c.17-5.4.68-10.8,1-16.19.48-8.23,1.26-16.88,5.8-23.73,3.5,3.56,8.36,5.56,13.3,6.45a53.38,53.38,0,0,0,9.29.69q-2.58,8.63-5.74,17.06c-3,8.07-6.38,16-10.14,23.75-2.51,3-5.26,5.8-8,8.58l-28.37,28.63a13.89,13.89,0,0,1-4.5-4.93s0,0,0,0a130.67,130.67,0,0,1,27.4-40.28Z"/><path class="cls-14" d="M329.68,248.79l.06,0a583.6,583.6,0,0,1-6.16,97.77l-.12,0a26.9,26.9,0,0,1-7,.7c-3.65-26.64-2.1-53.85-6.4-80.39q3.17-8.43,5.74-17.06c2,0,4-.07,6-.13A34.28,34.28,0,0,0,329.68,248.79Z"/><path class="cls-5" d="M316.66,348.16l-.22-.76s0-.08,0-.13a26.9,26.9,0,0,0,7-.7,51.12,51.12,0,0,1,15.77,6.15,206,206,0,0,0-21.5,1.24.59.59,0,0,1-.47-.07.6.6,0,0,1-.16-.39A47.66,47.66,0,0,1,316.66,348.16Z"/><path class="cls-13" d="M333.92,164.39l-.44-.09-.29.23a20.78,20.78,0,0,1-5.53,2.4c-.09,0-.18,0-.27.09a54.27,54.27,0,0,0-6.05,2.81,4.12,4.12,0,0,1-1.28.53h0l-.07,0c-.29-.69-.57-1.39-.85-2.07a5.05,5.05,0,0,0-.92-1.59,1.64,1.64,0,0,0-1.68-.5,1.72,1.72,0,0,0-.84.76c-.79,1.31-.42,3,.05,4.43a7,7,0,0,0,1.94,3.38c-1.35,2.79-4,8.66-5.46,11.41a0,0,0,0,1,0,0l0,.06a63.59,63.59,0,0,0,6,7.77l.3-.28a68,68,0,0,1,.28-14.26l.05-.06,3.24,2.34.09.09a5.38,5.38,0,0,0,5.31-.06,15.92,15.92,0,0,1,0-3.84c.14-1.07.59-2.32,1.56-2.64a1.63,1.63,0,0,1,.3-.07,2.41,2.41,0,0,1,2,1.15,6.27,6.27,0,0,1,.68,1.1c.09-.19.19-.38.27-.58a24.78,24.78,0,0,0,1.84-5.18A13.14,13.14,0,0,0,333.92,164.39Z"/><path class="cls-14" d="M332.62,177l-.19-.09a24.78,24.78,0,0,0,1.84-5.18,13.14,13.14,0,0,0-.35-7.38l-.44-.09-.29.23a20.78,20.78,0,0,1-5.53,2.4c-.09,0-.18,0-.27.09a54.27,54.27,0,0,0-6.05,2.81,4.12,4.12,0,0,1-1.28.53h0l-.07,0c-.29-.69-.57-1.39-.85-2.07a5.05,5.05,0,0,0-.92-1.59,1.64,1.64,0,0,0-1.68-.5,1.72,1.72,0,0,0-.84.76c-.79,1.31-.42,3,.05,4.43a7,7,0,0,0,1.94,3.38c-1.35,2.79-4,8.66-5.46,11.41h-.55a3,3,0,0,1-2.23-2.46,11,11,0,0,1-4.6-.33,6,6,0,0,1-3.54-2.85c-.61-1.2-.57-2.92.58-3.63a8.23,8.23,0,0,1-3.6-3.32,5.21,5.21,0,0,1,.22-4.6,7.23,7.23,0,0,1,3.47-3.12c1.39-.62,2.94-.88,4.28-1.62,3-1.62,4.3-5.1,6.55-7.61a13.51,13.51,0,0,1,13.58-3.79,14.46,14.46,0,0,1,9.76,10.31A15.64,15.64,0,0,1,332.62,177Z"/><path class="cls-14" d="M333.19,164.53a12,12,0,0,1-5.53,2.4A20.78,20.78,0,0,0,333.19,164.53Z"/><path class="cls-12" d="M322.45,187.49c0,.37,0,.75,0,1.12a7.26,7.26,0,0,1-.38.67c-1.07,1.82-2.14,3.62-3.21,5.42-.2-.21-.4-.43-.59-.65l.3-.27a67.38,67.38,0,0,1,.28-14.26l.05-.06,3.24,2.33.14.14,0,0C322.35,183.8,322.42,185.64,322.45,187.49Z"/><path class="cls-14" d="M328.92,168.39a3.57,3.57,0,0,0-3.09-.88c-.57.1-.51,1,.07.9a2.69,2.69,0,0,1,2.42.68C328.76,169.48,329.35,168.79,328.92,168.39Z"/><path class="cls-14" d="M334.83,170.46a3.24,3.24,0,0,0-2.62-.48c-.57.12-.26,1,.31.85a2.27,2.27,0,0,1,1.72.32C334.72,171.47,335.32,170.78,334.83,170.46Z"/><path class="cls-15" d="M329.87,175.29a1.88,1.88,0,0,0-1.33.49,3.23,3.23,0,0,0-.79,1.41,13.19,13.19,0,0,0,.32,7.46,1.84,1.84,0,0,0-.87,0,.65.65,0,0,0-.52.61"/><path class="cls-14" d="M325.6,168.92c-.52-.27-.92.55-.4.82a2.21,2.21,0,0,1,1,1l-1.11-.28c-.57-.14-.75.76-.18.9l1.88.46a.46.46,0,0,0,.54-.48A3.2,3.2,0,0,0,325.6,168.92Z"/><path class="cls-14" d="M333,173.26l-.79-.42a3.91,3.91,0,0,1,.75-.42c.54-.22.24-1.08-.31-.86a4.58,4.58,0,0,0-1.6,1.08.46.46,0,0,0,.15.71l1.41.72C333.1,174.34,333.49,173.52,333,173.26Z"/><path class="cls-14" d="M341.51,175.58l-3.92.38a.46.46,0,0,0,.07.91l3.92-.39A.45.45,0,0,0,341.51,175.58Z"/><path class="cls-14" d="M341.13,179.88l-3.3-1.13c-.55-.19-.95.62-.4.81l3.31,1.13C341.28,180.88,341.69,180.07,341.13,179.88Z"/><path class="cls-14" d="M339.39,183.5l-2.93-2.22c-.46-.36-1.06.33-.59.69l2.93,2.22C339.27,184.54,339.86,183.86,339.39,183.5Z"/><path class="cls-13" d="M94.84,187l-.71,0a38.9,38.9,0,0,1-2.84,4c-.38.48-.77.93-1.19,1.39h0c-.15.17-.32.34-.48.51l-.74.59c-1.27-1.59-2.61-3.13-4-4.63l-.54.34c.14-1.59.21-3.32-.71-4.62A17.05,17.05,0,0,0,82,182.92c-1.32-1.41-1.91-3.38-3.21-4.81l-.1-.11a4.32,4.32,0,0,0-1.27-.94,3.35,3.35,0,0,0-.63-.22,2.43,2.43,0,0,0-2.24.56,2,2,0,0,0-.36.53,2.3,2.3,0,0,0-1.6-.22A2.42,2.42,0,0,0,71,179.36a3.41,3.41,0,0,0-.16.57,60.3,60.3,0,0,1-4-12.56v0c5.26-.09,10.46-1.5,15.57-2.91l.15.21c.79,1.41.79,3.12,1.11,4.72a12.06,12.06,0,0,0,1.49,3.89c.11.18.27.38.48.39s.47-.43.5-.76a24.77,24.77,0,0,1,.71-5.3,2.67,2.67,0,0,1,.91-1.54,1.87,1.87,0,0,1,1.75-.14l0,0A3.7,3.7,0,0,1,90.9,167a6.86,6.86,0,0,1-.37,9.28A68.72,68.72,0,0,1,94.84,187Z"/><path class="cls-13" d="M77.38,177.06a4.32,4.32,0,0,1,1.27.94l-.23-.06a2.29,2.29,0,0,0-2.13.54,1.81,1.81,0,0,0-.39.57l-.25-.05a6.52,6.52,0,0,0-1.5-1.07,2,2,0,0,1,.36-.53,2.43,2.43,0,0,1,2.24-.56A3.35,3.35,0,0,1,77.38,177.06Z"/><path class="cls-13" d="M95.05,187.71a35.78,35.78,0,0,1-3.85,5.15,13.72,13.72,0,0,0,.09-1.81,38.9,38.9,0,0,0,2.84-4l.71,0C94.91,187.25,95,187.49,95.05,187.71Z"/><path class="cls-14" d="M89.47,165.89a1.92,1.92,0,0,0-1.76.14,2.69,2.69,0,0,0-.92,1.53,26.28,26.28,0,0,0-.7,5.31c0,.33-.17.77-.51.76s-.36-.21-.47-.39a12,12,0,0,1-1.49-3.89c-.32-1.6-.32-3.31-1.11-4.72l-.16-.21c-5.1,1.41-10.29,2.82-15.56,2.91-.72,0-1.44,0-2.16,0-2.77-.15-5.86-.95-7.26-3.37a1.24,1.24,0,0,1-.15-1.25,1.34,1.34,0,0,1,.54-.43,17.21,17.21,0,0,1,4.08-1.17c6.23-1.32,12.17-3.78,18.37-5.2,1.79-.41,3.91-.64,5.23.64a5.2,5.2,0,0,1,1,1.62,55.9,55.9,0,0,1,3.07,7.64l-.06.14S89.47,165.9,89.47,165.89Z"/><path class="cls-14" d="M72.06,172.88a4.23,4.23,0,0,0-2.91.7.46.46,0,0,0,.52.75,3.18,3.18,0,0,1,2.22-.55C72.46,173.84,72.64,173,72.06,172.88Z"/><path class="cls-14" d="M81.27,170.45a7.33,7.33,0,0,0-3.82,1.23.45.45,0,0,0,.51.75,6.37,6.37,0,0,1,3.38-1.07C81.92,171.33,81.85,170.43,81.27,170.45Z"/><path class="cls-14" d="M81.43,173.91H80l.24-.33.48-.78c.3-.5-.52-.89-.82-.4s-.52.83-.76,1.24-.33.66,0,1,.63.22,1,.22H81.5C82.08,174.81,82,173.91,81.43,173.91Z"/><path class="cls-16" d="M73.3,175.46c-.19-.7-1.33-.71-1.88-.83a.45.45,0,0,0-.18.89l.71.15.28.06c-.13.12-.28.29-.32.32l-.67.61c-.43.4.26,1,.69.6s.74-.64,1.07-1A.84.84,0,0,0,73.3,175.46Z"/><path class="cls-13" d="M68.83,178.94h0a3.76,3.76,0,0,1,.15-.6,2.55,2.55,0,0,1,1.63-1.72c1.17-.32,2.33.52,3.24,1.34l.26.06a4.83,4.83,0,0,0,.07,3.07,48.69,48.69,0,0,0,1.9,5.65l-.12,0a16.39,16.39,0,0,1-.79,5.43,21.85,21.85,0,0,1-5.64.39s-.8-9.59-.81-11.82A10.17,10.17,0,0,1,68.83,178.94Z"/><path class="cls-5" d="M118,195.09h-.07c-.53,5.61-3,10.84-5.73,15.78-3.34,6.09-7.14,12-12.21,16.78a5,5,0,0,1-1.79,1.24,3.83,3.83,0,0,1-3.74-1,11.28,11.28,0,0,1-2.17-3.44q-6.44-13.65-11.84-27.77-.89-2.28-1.71-4.56l0,0-.26-.49a12.55,12.55,0,0,0,5.95-2.35l.54-.34c1.38,1.5,2.72,3,4,4.63a91.93,91.93,0,0,1,7.93,11.55l.37-.21q2-4.2,4.41-8.18c2-3.34,4.33-6.68,7.72-8.59a8.39,8.39,0,0,1,3.5-1.1,11.53,11.53,0,0,1,2.52.86,4.17,4.17,0,0,1,1.84,1.44,5.09,5.09,0,0,1,.61,2.43C117.87,192.86,117.93,194,118,195.09Z"/><path class="cls-13" d="M84.35,189.26a12.55,12.55,0,0,1-5.95,2.35,45.56,45.56,0,0,1-2.32-4.89,48.74,48.74,0,0,1-1.91-5.65,4.9,4.9,0,0,1-.06-3.07l0-.07a2,2,0,0,1,.36-.53,2.43,2.43,0,0,1,2.24-.56,3.35,3.35,0,0,1,.63.22,4.32,4.32,0,0,1,1.27.94l.1.11c1.3,1.43,1.89,3.4,3.21,4.81a17.05,17.05,0,0,1,1.68,1.72C84.56,185.94,84.49,187.67,84.35,189.26Z"/><path class="cls-17" d="M116.52,218.68c-.33,2.8-.67,5.59-1,8.39q-1.24,10-2.74,19.89l-.11.27a3.5,3.5,0,0,1,.42.24,56.34,56.34,0,0,1-15.69,1.94,24.89,24.89,0,0,1-14.58-5.11c0-.18,0-.37.06-.55L82.94,232a8.28,8.28,0,0,0-.17-2.05,8,8,0,0,0-1.08-2.09c-1.93-3-3.88-6-5.82-9,1-8.85.4-17.79-.2-26.68,1-.06,3-.21,2.73-.58.08.17.17.33.26.5l0,0c.55,1.52,1.13,3,1.71,4.56q5.4,14.1,11.84,27.77a11.23,11.23,0,0,0,2.17,3.43,3.86,3.86,0,0,0,3.75,1.05,5.24,5.24,0,0,0,1.79-1.24c5.07-4.76,8.86-10.69,12.2-16.78,2.71-4.94,5.21-10.17,5.73-15.78H118A155.24,155.24,0,0,1,116.52,218.68Z"/><path class="cls-17" d="M75.67,192.19l-.5,0,.49-.14S75.67,192.15,75.67,192.19Z"/><path class="cls-5" d="M75.87,218.87c-.05.47-.1.94-.16,1.42a14.64,14.64,0,0,1-1.9,6.19,5.73,5.73,0,0,1-5.51,2.76,7.58,7.58,0,0,1-3.85-2.49,8.86,8.86,0,0,1-2.39-3.7,9.23,9.23,0,0,1,0-4.05c1.57-9,5.57-17.45,7.42-26.41a21.85,21.85,0,0,0,5.64-.39,3.65,3.65,0,0,0,.49-.13C76.26,201,76.87,210,75.87,218.87Z"/><path class="cls-17" d="M112.81,187a8.39,8.39,0,0,0-3.5,1.1c-3.39,1.91-5.71,5.25-7.72,8.59q-2.39,4-4.41,8.18l-.37.21a91.93,91.93,0,0,0-7.93-11.55l.74-.59c.16-.17.33-.34.48-.51h0c.42-.46.81-.91,1.19-1.39a38.9,38.9,0,0,0,2.84-4l.71,0c4.48-.24,9.4-.8,13.83-.53A23.8,23.8,0,0,1,112.81,187Z"/><path class="cls-8" d="M93.65,255.61l-11.26-2.72-.63-.08c.33-2.84.68-5.67,1-8.51,4,3.32,9.34,4.84,14.57,5.11a56.37,56.37,0,0,0,15.7-1.94c2,1.26,2.54,4.3,2.69,6.84q1,17.63,2,35.24c8.48,10.52,17.69,21,26.18,31.56l.79.71-.35.39c-1.09,1.22-2.17,2.43-3.27,3.64a21.54,21.54,0,0,1-4,3.76,8.8,8.8,0,0,1-1.81.92,33.81,33.81,0,0,1-7.37-6.41l-27.79-29.4c-1.31-5.62-2.5-11.18-3.51-16.76-1.34-7.37-2.38-14.76-3-22.35Z"/><path class="cls-18" d="M144.42,322.21c1,1.06,5.31,3.77,4.9,4.27-2.15,2.63-6.12,7.4-8.26,10-2.73,3.35-5.51,6.75-9.08,9.19a43.19,43.19,0,0,1,5.17-16.09,21.54,21.54,0,0,0,4-3.76C142.25,324.64,143.33,323.43,144.42,322.21Z"/><path class="cls-18" d="M83,344.48s.63,3.51.69,4.54c-7.88,1.06-15.85,1-23.81.94-.47,0-1-.07-1.25-.5,1.86-2.08,4.54-3.21,7.12-4.27l6.18-2.55c1.9,1.55,4.65,1.95,7.17,2A39,39,0,0,0,83,344.48Z"/><path class="cls-14" d="M71.89,342.64a6.44,6.44,0,0,1-.91-.9q5.4-44.46,10.78-88.93l.63.08,11.26,2.72h0c.63,7.59,1.67,15,3,22.35l-.21,0q-7.2,33-12.86,66.41l-.64.07a39,39,0,0,1-3.9.13C76.54,344.59,73.79,344.19,71.89,342.64Z"/><path class="cls-15" d="M73.77,177.67a3.53,3.53,0,0,0-2.69-1c-1,.08-1.88,1.37-2.25,2.29"/><path class="cls-15" d="M75.87,186.3A32,32,0,0,1,74,180.38a5,5,0,0,1-.08-1.89,2.21,2.21,0,0,1,1-1.54,2.46,2.46,0,0,1,2.18,0,4.43,4.43,0,0,1,1.84,1.45c.63.84,1,1.93,1.81,2.57.53.41,1.19.59,1.75.95a3.36,3.36,0,0,1,1.31,1.6,8.09,8.09,0,0,1,.37,2,17.16,17.16,0,0,0,.72,3.31"/><path class="cls-14" d="M64.14,174.77l-2.3-2.24c-.42-.41-1,.28-.59.69l2.3,2.24C64,175.87,64.56,175.18,64.14,174.77Z"/><path class="cls-14" d="M63.11,178.92,61,179.1a.46.46,0,0,0,.07.91l2.09-.18A.46.46,0,0,0,63.11,178.92Z"/><path class="cls-14" d="M64.21,183.44,62,185.59c-.42.41.27,1,.69.59L64.9,184C65.32,183.62,64.63,183,64.21,183.44Z"/><path class="cls-14" d="M211.2,212.32c-.39,2.4.68,4.87.26,7.26-.07.4-.34.89-.73.78-.21-.05-.33-.27-.42-.47a11,11,0,0,1-.76-2.42,6.51,6.51,0,0,0-1.83-1.32,3.35,3.35,0,0,0-1.28-.28,34.29,34.29,0,0,1-2.34-4.24,3.65,3.65,0,0,1-.48-2.33,2.68,2.68,0,0,1,1.41-1.7,11.3,11.3,0,0,1,2.13-.78,2.79,2.79,0,0,0,1.11-.53c.64-.55.76-1.49,1.18-2.22A3.79,3.79,0,0,1,213,202.4c1.59.08,3.17.9,4.73.58a8.87,8.87,0,0,0,2.33-1,3.7,3.7,0,0,1,2.45-.52c1.72.37,2.6,2.68,4.36,2.81a4.38,4.38,0,0,1,1.45.06,1.41,1.41,0,0,1,.8,1.2,4.27,4.27,0,0,1-.24,1.49,5.63,5.63,0,0,1-1.27,2.43,5.8,5.8,0,0,1-3.37,1.28c-.51.06-1,.12-1.54.16-3.59.32-7.23.19-10.77.82a.93.93,0,0,0-.58.25A.74.74,0,0,0,211.2,212.32Z"/><path class="cls-13" d="M213.48,225.41a16.16,16.16,0,0,0,1.44,4.61l-.2.23a17.68,17.68,0,0,1-3.49-.27,7.31,7.31,0,0,1-4.17-2.23l-.47-.14a2,2,0,0,0,.06-.23c.42-1.46.83-2.91,1.25-4.36a9.92,9.92,0,0,1-2.37-2,4.8,4.8,0,0,1-1.24-2.31,2.48,2.48,0,0,1,.77-2.38,2.15,2.15,0,0,1,1.38-.46,3.35,3.35,0,0,1,1.28.28,6.51,6.51,0,0,1,1.83,1.32,11,11,0,0,0,.76,2.42c.09.2.21.42.42.47.39.11.66-.38.73-.78.42-2.39-.65-4.86-.26-7.26a.74.74,0,0,1,.13-.41.93.93,0,0,1,.58-.25c3.54-.63,7.18-.5,10.77-.82l2.38-.29a26.43,26.43,0,0,1,.74,9.57,5,5,0,0,0-1.48.65,9.16,9.16,0,0,0-2.16,2.1c-.35-.4-.34-1.12-.83-1.35s-1.08.29-1.39.79a20.54,20.54,0,0,0-1.39,2.62l-.08,0-3.83-.88a1.35,1.35,0,0,0-.69,0C213.44,224.17,213.4,224.88,213.48,225.41Z"/><path class="cls-12" d="M218.47,224.89l.08,0c-.19.42-.37.85-.52,1.28-1,1.29-2.06,2.55-3.11,3.81a16.16,16.16,0,0,1-1.44-4.61c-.08-.53,0-1.24.47-1.42a1.35,1.35,0,0,1,.69,0Z"/><path class="cls-8" d="M208.27,282c-.81,1.57-1.6,3.14-2.4,4.72q-6.81,13.39-13.51,26.86a22.59,22.59,0,0,1-3.54-.69,24.1,24.1,0,0,1-9.27-4.9,21.91,21.91,0,0,1-2.33-2.29q5.26-13.47,10.55-27h0a22,22,0,0,0,14.31-9.32l0-.19c2.81.44,5.69.64,8.51.83a26.38,26.38,0,0,0,8.56-.38l0,.06c.33.89.79,5.3,1.3,11.36-3.47.35-8.59.76-12,1Z"/><path class="cls-14" d="M209.25,315.26a22.79,22.79,0,0,1-2.61-.38h-.13q-.76-14-.64-28.13c.8-1.58,1.59-3.15,2.4-4.72l.19.1c3.46-.22,8.58-.63,12-1,.76,9.38,1.63,22.71,2.25,32.92a2.56,2.56,0,0,1-1.3.45l-2.2.3A45.46,45.46,0,0,1,209.25,315.26Z"/><path class="cls-18" d="M213.65,339.79c-.12-.72-.25-1.45-.38-2.18a16.65,16.65,0,0,0,7.24-.32h0a70.49,70.49,0,0,1,10.61,2.95v0q.7.53,1.41,1A65.32,65.32,0,0,1,213.65,339.79Z"/><path class="cls-13" d="M188.82,312.92l-4.51,9.33a19.46,19.46,0,0,1-7.64-2.85l-.53-.18,1.61-4.62a29.33,29.33,0,0,0,1.73-6.47l.07-.11A24.1,24.1,0,0,0,188.82,312.92Z"/><path class="cls-18" d="M171.87,331.4h0A15.43,15.43,0,0,0,178,335h0a1.54,1.54,0,0,0,.13.12,51.21,51.21,0,0,1,8.1,8,8.1,8.1,0,0,1-3.68-.64,95,95,0,0,1-13.31-5.87s2.17-4,2.62-5.15A0,0,0,0,1,171.87,331.4Z"/><path class="cls-6" d="M220.51,337.29a16.65,16.65,0,0,1-7.24.32c-.75-4.29-1.55-8.79-2.31-13.19l.55-.09a2,2,0,0,0,1.44.37c2.46,0,4.92-.1,7.36-.28C220.47,328.72,220.53,333,220.51,337.29Z"/><path class="cls-14" d="M202.1,269.47a22,22,0,0,1-14.31,9.32h0q2.34-6,4.69-12l.16-.36a31.15,31.15,0,0,0,9.5,2.83Z"/><path class="cls-6" d="M184.31,322.25q-3.08,6.38-6.16,12.76L178,335h0a15.43,15.43,0,0,1-6.12-3.56q2.13-6.09,4.27-12.17l.53.18A19.46,19.46,0,0,0,184.31,322.25Z"/><path class="cls-18" d="M178.15,335a.11.11,0,0,0,0,.06A1.54,1.54,0,0,1,178,335Z"/><path class="cls-13" d="M220.08,319.23c.09,1.73.17,3.46.23,5.19-2.44.18-4.9.27-7.36.28a2,2,0,0,1-1.44-.37l-.55.09c-.39-2.23-.77-4.42-1.15-6.55a23.31,23.31,0,0,0-.56-2.61,45.46,45.46,0,0,0,10-.44A11.75,11.75,0,0,1,220.08,319.23Z"/><path class="cls-19" d="M221.77,246.6l-.25,0,.16-1.42.55.06c1,1,2,2,3,2.92q-.66.65-1.35,1.26l-.07-.06C223,248.52,222.57,247.42,221.77,246.6Z"/><path class="cls-19" d="M195.43,248.63a30.47,30.47,0,0,1-2.31-13.91h0a10.73,10.73,0,0,0,0,1.5,23,23,0,0,0,4.11,11.5c-.59.32-1.18.62-1.78.9Z"/><path class="cls-10" d="M255.07,243.76a10,10,0,0,0-.39,2.87,4.08,4.08,0,0,0,.32,1.43l-.41.38c-5.49,3.19-11.23,6.29-17.44,7.43a3.63,3.63,0,0,1-2.63-.52,81.49,81.49,0,0,1-9.25-7.22,63.28,63.28,0,0,0,7.72-8.87q2.91,3.35,5.51,6.93l.3,0q8-1.84,16.16-3.15l.34-.1a1.82,1.82,0,0,0,.2.58Z"/><path class="cls-13" d="M258.1,237.94a3.66,3.66,0,0,1,.72.14,5.79,5.79,0,0,1,2.16,1.31,9.4,9.4,0,0,1,2.35,3.33,7.79,7.79,0,0,1,.31.85,2.87,2.87,0,0,1,.15,1.42,2,2,0,0,1-.75,1.18,2.74,2.74,0,0,1-1.34.55,5.89,5.89,0,0,1-2.82-.53,6.13,6.13,0,0,1-3.26-2.38c0-.08-.09-.17-.12-.25a1.82,1.82,0,0,1-.2-.58,4.25,4.25,0,0,1,.12-2.59,6,6,0,0,1,1.69-2.4A3.28,3.28,0,0,1,258.1,237.94Z"/><path class="cls-10" d="M216.94,240.38a119.5,119.5,0,0,1-7.56,11.21,6.74,6.74,0,0,1-1.82,1.83,4.47,4.47,0,0,1-3.67.25,9.79,9.79,0,0,1-3.19-2,22.34,22.34,0,0,1-3.14-3.45l-.33-.47a34.87,34.87,0,0,0,8.47-6.37l-.07-.27c-.07-.14-.13-.28-.19-.43,3.2-3.36,6.29-6.84,9.28-10.4l.2-.23c1.05-1.26,2.08-2.52,3.11-3.81a2.33,2.33,0,0,0-.11.28l.21.08a21.83,21.83,0,0,0,3,1.89,3,3,0,0,1,1,.74h0l.71-.39.11.19a1,1,0,0,1-.08.14c-.19.43-.39.85-.59,1.27Q219.83,235.51,216.94,240.38Z"/><path class="cls-19" d="M205.7,241.35c.06.14-.14-.41-.07-.27l.07.27a34.87,34.87,0,0,1-8.47,6.37,23,23,0,0,1-4.11-11.5,10.73,10.73,0,0,1,0-1.5,4,4,0,0,1,.62-1.86,5.33,5.33,0,0,1,1.77-1.45,32.15,32.15,0,0,1,11.14-4c0,.08,0-.08,0,0l.41.37a7.31,7.31,0,0,0,4.17,2.23,17.68,17.68,0,0,0,3.49.27C211.73,233.81,208.9,238,205.7,241.35Z"/><path class="cls-13" d="M228.05,220.39a1.8,1.8,0,0,1,.54,1.45,6.05,6.05,0,0,1-1.91,3.88,16,16,0,0,1-3.85,3.09l-.71.39h0a3,3,0,0,0-1-.74,21.83,21.83,0,0,1-3-1.89l-.21-.08a2.33,2.33,0,0,1,.11-.28c.15-.43.33-.86.52-1.28a20.54,20.54,0,0,1,1.39-2.62c.31-.5.87-1.06,1.39-.79s.48.95.83,1.35a9.16,9.16,0,0,1,2.16-2.1,5,5,0,0,1,1.48-.65,4,4,0,0,1,1.38-.07A1.79,1.79,0,0,1,228.05,220.39Z"/><path class="cls-19" d="M221.68,245.15a79,79,0,0,0,.59-14.74c.2-.42.4-.84.59-1.27l.24.11a105,105,0,0,1,9.89,10,63.28,63.28,0,0,1-7.72,8.87c-1-.95-2.05-1.92-3-2.92Z"/><path class="cls-20" d="M216.94,240.38a52.08,52.08,0,0,1-8.3,16.58,25.63,25.63,0,0,1-7.25,6.56,15.55,15.55,0,0,1-9.41,2.2l-.17.3a2.68,2.68,0,0,1-.33-.18l.12-.21q3-8.58,5.65-17.22l.31-.22a22.34,22.34,0,0,0,3.14,3.45,9.79,9.79,0,0,0,3.19,2,4.47,4.47,0,0,0,3.67-.25,6.74,6.74,0,0,0,1.82-1.83A119.5,119.5,0,0,0,216.94,240.38Z"/><path class="cls-19" d="M219.57,269.63l-.38.1a26.38,26.38,0,0,1-8.56.38c-2.82-.19-5.7-.39-8.51-.83a31.15,31.15,0,0,1-9.5-2.83c-.27-.13-.54-.27-.81-.43l.17-.3a15.55,15.55,0,0,0,9.41-2.2,25.63,25.63,0,0,0,7.25-6.56,52.08,52.08,0,0,0,8.3-16.58q2.9-4.86,5.33-10a79,79,0,0,1-.59,14.74l-.16,1.42c-.92,7.53-2.19,15.06-1.93,22.62Z"/><path class="cls-14" d="M216.66,212.76a4.39,4.39,0,0,0-3,.88c-.46.36.06,1.11.52.75a3.46,3.46,0,0,1,2.36-.74C217.07,213.69,217.25,212.8,216.66,212.76Z"/><path class="cls-14" d="M224.54,213a6,6,0,0,0-3-.33c-.57.09-.51,1,.07.91a5,5,0,0,1,2.5.24C224.68,214,225.08,213.15,224.54,213Z"/><path class="cls-15" d="M225.8,220.14a4.51,4.51,0,0,0-1.89.86,14,14,0,0,0-2.15,1.83,2.21,2.21,0,0,0,0-.81.84.84,0,0,0-.47-.63,1,1,0,0,0-1,.28,4.76,4.76,0,0,0-1.13,1.75q-.67,1.47-1.23,3"/><path class="cls-14" d="M215.7,214.71c-.48-.32-1.08.37-.59.69.15.1.42.24.63.39l-.2.14-.56.38a.45.45,0,0,0,.51.75c.41-.28,1.23-.62,1.33-1.15S216.1,215,215.7,214.71Z"/><path class="cls-14" d="M223.79,215.77l-.67-.16-.08,0,.08-.09.42-.46c.4-.44-.29-1-.69-.6s-1.09.93-.93,1.49,1.2.61,1.69.73S224.35,215.91,223.79,215.77Z"/><path class="cls-14" d="M231.7,212.9l-2.82,1.71c-.5.31,0,1.06.52.75l2.82-1.71C232.72,213.35,232.2,212.6,231.7,212.9Z"/><path class="cls-14" d="M233.05,216.83l-2.83.09c-.58,0-.51.92.07.9l2.83-.08C233.7,217.72,233.63,216.81,233.05,216.83Z"/><path class="cls-14" d="M232.92,221.22l-2.7-1.11c-.54-.22-.94.59-.4.82l2.7,1.11C233.06,222.26,233.46,221.44,232.92,221.22Z"/></g></g></svg>