<svg xmlns="http://www.w3.org/2000/svg" xmlns:xlink="http://www.w3.org/1999/xlink" viewBox="0 0 473.3 262.97"><defs><style>.cls-1{isolation:isolate;}.cls-2,.cls-3,.cls-4,.cls-5,.cls-6,.cls-7,.cls-8,.cls-9{fill:#d3d3d3;}.cls-10,.cls-2{opacity:0.81;}.cls-12,.cls-13,.cls-14,.cls-15,.cls-19,.cls-20,.cls-36,.cls-4,.cls-46,.cls-50{opacity:0.75;}.cls-17,.cls-24,.cls-25,.cls-30,.cls-38,.cls-42,.cls-44,.cls-45,.cls-48,.cls-49,.cls-5,.cls-53,.cls-55,.cls-58,.cls-7,.cls-8,.cls-9{mix-blend-mode:multiply;}.cls-17,.cls-22,.cls-23,.cls-24,.cls-25,.cls-44,.cls-48,.cls-5,.cls-55,.cls-58,.cls-6{opacity:0.32;}.cls-22,.cls-23,.cls-6{mix-blend-mode:screen;}.cls-30,.cls-38,.cls-42,.cls-7{opacity:0.55;}.cls-53,.cls-9{opacity:0.65;}.cls-10{fill:#2bd1ed;}.cls-11{fill:url(#linear-gradient);}.cls-12{fill:url(#linear-gradient-2);}.cls-13{fill:url(#linear-gradient-3);}.cls-14{fill:url(#linear-gradient-4);}.cls-15{fill:url(#linear-gradient-5);}.cls-16,.cls-17{fill:#624c4d;}.cls-18{fill:#bd9389;}.cls-19{fill:url(#linear-gradient-6);}.cls-20{fill:url(#linear-gradient-7);}.cls-21{fill:#4e728d;}.cls-22{fill:#829bab;}.cls-23{fill:#a7b9c4;}.cls-24{fill:#224e6a;}.cls-25,.cls-27{fill:#1d4a67;}.cls-26{fill:#1d1e20;}.cls-28{fill:#d2cbb1;}.cls-29{fill:#c5bc9b;}.cls-30{fill:#bdc5b8;}.cls-31{fill:#f1efe7;}.cls-32{fill:#f3a92c;}.cls-33{fill:#929083;}.cls-34{fill:url(#radial-gradient);}.cls-35{fill:url(#radial-gradient-2);}.cls-36{fill:url(#linear-gradient-8);}.cls-37,.cls-38{fill:#417a16;}.cls-39{fill:#184001;}.cls-40{fill:#8ccf58;}.cls-41{fill:#62913e;}.cls-42{fill:#637c58;}.cls-43,.cls-44,.cls-45{fill:#ca90a6;}.cls-46{fill:url(#linear-gradient-9);}.cls-47,.cls-48,.cls-49{fill:#a290a6;}.cls-50{fill:url(#linear-gradient-10);}.cls-51,.cls-53,.cls-55{fill:#8b8b8b;}.cls-52{fill:#595959;}.cls-54{fill:#b8b8b8;}.cls-56{fill:url(#linear-gradient-11);}.cls-57{fill:url(#linear-gradient-12);}.cls-58{fill:#825c39;}.cls-59{fill:url(#radial-gradient-3);}.cls-60{fill:url(#radial-gradient-4);}.cls-61{fill:url(#radial-gradient-5);}.cls-62{fill:url(#radial-gradient-6);}.cls-63{fill:url(#radial-gradient-7);}.cls-64{fill:url(#radial-gradient-8);}.cls-65{fill:url(#radial-gradient-9);}.cls-66{fill:url(#radial-gradient-10);}.cls-67{fill:url(#radial-gradient-11);}.cls-68{fill:url(#radial-gradient-12);}.cls-69{fill:url(#radial-gradient-13);}.cls-70{fill:url(#radial-gradient-14);}.cls-71{fill:url(#radial-gradient-15);}.cls-72{fill:url(#radial-gradient-16);}.cls-73{fill:url(#linear-gradient-13);}.cls-74{fill:url(#linear-gradient-14);}.cls-75{fill:url(#radial-gradient-17);}.cls-76{fill:url(#radial-gradient-18);}.cls-77{fill:url(#radial-gradient-19);}.cls-78{fill:url(#radial-gradient-20);}.cls-79{fill:url(#radial-gradient-21);}.cls-80{fill:url(#radial-gradient-22);}.cls-81{fill:url(#radial-gradient-23);}.cls-82{fill:url(#radial-gradient-24);}.cls-83{fill:url(#radial-gradient-25);}.cls-84{fill:url(#radial-gradient-26);}.cls-85{fill:url(#radial-gradient-27);}.cls-86{fill:url(#radial-gradient-28);}.cls-87{fill:url(#radial-gradient-29);}.cls-88{fill:url(#radial-gradient-30);}.cls-89{fill:url(#radial-gradient-31);}.cls-90{fill:url(#radial-gradient-32);}.cls-91{fill:url(#radial-gradient-33);}</style><linearGradient id="linear-gradient" x1="50.58" y1="204.3" x2="475.16" y2="166.06" gradientUnits="userSpaceOnUse"><stop offset="0" stop-color="#9a8a62"/><stop offset="0.05" stop-color="#918563"/><stop offset="0.27" stop-color="#737569"/><stop offset="0.46" stop-color="#616b6c"/><stop offset="0.6" stop-color="#5a676d"/><stop offset="0.69" stop-color="#606a6c"/><stop offset="0.8" stop-color="#707369"/><stop offset="0.93" stop-color="#8b8264"/><stop offset="1" stop-color="#9c8b61"/></linearGradient><linearGradient id="linear-gradient-2" x1="157.53" y1="197.24" x2="283.22" y2="197.24" gradientUnits="userSpaceOnUse"><stop offset="0" stop-color="#7e9193"/><stop offset="0.52" stop-color="#9faeaf"/><stop offset="1" stop-color="#7e9193"/></linearGradient><linearGradient id="linear-gradient-3" x1="282.81" y1="209.11" x2="355.01" y2="209.11" xlink:href="#linear-gradient-2"/><linearGradient id="linear-gradient-4" x1="325.1" y1="165.82" x2="424.91" y2="165.82" xlink:href="#linear-gradient-2"/><linearGradient id="linear-gradient-5" x1="338.16" y1="162.91" x2="411.42" y2="162.91" xlink:href="#linear-gradient-2"/><linearGradient id="linear-gradient-6" x1="89.25" y1="169.49" x2="143.03" y2="169.49" xlink:href="#linear-gradient-2"/><linearGradient id="linear-gradient-7" x1="76.6" y1="173.64" x2="155.68" y2="173.64" xlink:href="#linear-gradient-2"/><radialGradient id="radial-gradient" cx="244.38" cy="184.48" r="8.73" gradientUnits="userSpaceOnUse"><stop offset="0" stop-color="#ca9089"/><stop offset="1" stop-color="#be776e"/></radialGradient><radialGradient id="radial-gradient-2" cx="243.35" cy="174.57" r="12.6" xlink:href="#radial-gradient"/><linearGradient id="linear-gradient-8" x1="178.13" y1="194.47" x2="263.66" y2="194.47" xlink:href="#linear-gradient-2"/><linearGradient id="linear-gradient-9" x1="134.35" y1="224.78" x2="202.14" y2="224.78" xlink:href="#linear-gradient-2"/><linearGradient id="linear-gradient-10" x1="256.69" y1="173.09" x2="318.71" y2="173.09" xlink:href="#linear-gradient-2"/><linearGradient id="linear-gradient-11" x1="288.43" y1="64.37" x2="305.8" y2="137.19" gradientUnits="userSpaceOnUse"><stop offset="0" stop-color="#77796d"/><stop offset="1" stop-color="#d5ab57"/></linearGradient><linearGradient id="linear-gradient-12" x1="288.43" y1="64.37" x2="305.8" y2="137.19" gradientUnits="userSpaceOnUse"><stop offset="0" stop-color="#646b52"/><stop offset="0.4" stop-color="#77796d"/><stop offset="1" stop-color="#d5ab57"/></linearGradient><radialGradient id="radial-gradient-3" cx="293.68" cy="147.75" r="54.99" gradientTransform="translate(0 -19.95) scale(1 1.07)" xlink:href="#linear-gradient-12"/><radialGradient id="radial-gradient-4" cx="338.09" cy="129.47" r="1.82" gradientTransform="translate(0 -19.95) scale(1 1.07)" gradientUnits="userSpaceOnUse"><stop offset="0.55" stop-color="#d2a957"/><stop offset="1" stop-color="#988854"/></radialGradient><radialGradient id="radial-gradient-5" cx="305.09" cy="144.1" r="1.82" xlink:href="#radial-gradient-4"/><radialGradient id="radial-gradient-6" cx="266.42" cy="131.29" r="1.82" xlink:href="#radial-gradient-4"/><radialGradient id="radial-gradient-7" cx="272.44" cy="135.86" r="1.41" xlink:href="#radial-gradient-4"/><radialGradient id="radial-gradient-8" cx="260.77" cy="140.07" r="1.41" xlink:href="#radial-gradient-4"/><radialGradient id="radial-gradient-9" cx="339.24" cy="134.45" r="1.41" xlink:href="#radial-gradient-4"/><radialGradient id="radial-gradient-10" cx="325.86" cy="139.55" r="1.67" xlink:href="#radial-gradient-4"/><radialGradient id="radial-gradient-11" cx="274.26" cy="128.8" r="2.83" xlink:href="#radial-gradient-4"/><radialGradient id="radial-gradient-12" cx="345.47" cy="134.71" r="2.83" xlink:href="#radial-gradient-4"/><radialGradient id="radial-gradient-13" cx="297.59" cy="137.35" r="2.83" xlink:href="#radial-gradient-4"/><radialGradient id="radial-gradient-14" cx="314.5" cy="135.86" r="2.83" xlink:href="#radial-gradient-4"/><radialGradient id="radial-gradient-15" cx="293.11" cy="142.28" r="1.33" xlink:href="#radial-gradient-4"/><radialGradient id="radial-gradient-16" cx="282.77" cy="136.65" r="1.85" xlink:href="#radial-gradient-4"/><linearGradient id="linear-gradient-13" x1="171.52" y1="74.32" x2="188.88" y2="147.13" xlink:href="#linear-gradient-11"/><linearGradient id="linear-gradient-14" x1="171.52" y1="74.32" x2="188.88" y2="147.13" xlink:href="#linear-gradient-12"/><radialGradient id="radial-gradient-17" cx="176.77" cy="157.01" r="54.99" gradientTransform="translate(0 -19.95) scale(1 1.07)" xlink:href="#linear-gradient-12"/><radialGradient id="radial-gradient-18" cx="145.75" cy="148.65" r="1.82" xlink:href="#radial-gradient-4"/><radialGradient id="radial-gradient-19" cx="148.97" cy="143.33" r="1.41" xlink:href="#radial-gradient-4"/><radialGradient id="radial-gradient-20" cx="234.9" cy="146.51" r="1.41" xlink:href="#radial-gradient-4"/><radialGradient id="radial-gradient-21" cx="226.53" cy="143.66" r="2.19" xlink:href="#radial-gradient-4"/><radialGradient id="radial-gradient-22" cx="158.89" cy="133.4" r="1.41" xlink:href="#radial-gradient-4"/><radialGradient id="radial-gradient-23" cx="221.85" cy="134.51" r="1.41" xlink:href="#radial-gradient-4"/><radialGradient id="radial-gradient-24" cx="188.41" cy="151.65" r="1.41" xlink:href="#radial-gradient-4"/><radialGradient id="radial-gradient-25" cx="164.67" cy="145.42" r="1.41" xlink:href="#radial-gradient-4"/><radialGradient id="radial-gradient-26" cx="197.82" cy="144.46" r="1.41" xlink:href="#radial-gradient-4"/><radialGradient id="radial-gradient-27" cx="215.67" cy="148.46" r="1.41" xlink:href="#radial-gradient-4"/><radialGradient id="radial-gradient-28" cx="213.85" cy="140.74" r="1.82" xlink:href="#radial-gradient-4"/><radialGradient id="radial-gradient-29" cx="156.05" cy="142.17" r="2.83" xlink:href="#radial-gradient-4"/><radialGradient id="radial-gradient-30" cx="228.05" cy="132.3" r="2.83" xlink:href="#radial-gradient-4"/><radialGradient id="radial-gradient-31" cx="205.85" cy="147.64" r="1.77" xlink:href="#radial-gradient-4"/><radialGradient id="radial-gradient-32" cx="180.31" cy="146.94" r="2.04" xlink:href="#radial-gradient-4"/><radialGradient id="radial-gradient-33" cx="167.58" cy="149.87" r="1.78" xlink:href="#radial-gradient-4"/></defs><g class="cls-1"><g id="Layer_1" data-name="Layer 1"><path class="cls-2" d="M342,142.47l-137.81.75c-23.6.13-47.2.26-70.78.85-25.8.65-52.18,2-76.05,11.77-10.47,4.29-21.42,11.82-22.55,23.08-1.25,12.56,10.74,22.88,23,26.08s25.15,1.72,37.6,3.82c8.81,1.48,37,13,21.15,24.19-2.87,2-6.29,3.7-7.85,6.85-2,3.94-.11,8.92,3.16,11.84,9.76,8.74,27.62,10.56,40,11.13a131.7,131.7,0,0,0,47.05-6.38c11.67-3.85,22.86-9.35,34.93-11.63,22.22-4.21,40.4,4.53,61.63,8.09,17.85,3,36.72,5,54.89,3.43,9.16-.78,18.79-2.61,25.6-8.78s9.52-15.36,15-22.59c5.69-7.54,16.31-15.8,25.58-18.16,10.76-2.73,21.7-3.95,32.39-7.61,11.38-3.89,24.15-11.31,24.48-23.33.19-7-4.32-13.53-10.11-17.51s-12.74-5.87-19.59-7.47a353.27,353.27,0,0,0-111.29-8Z"/><path class="cls-3" d="M330.35,142.35,210.71,143c-20.49.12-41,.23-61.45.74-22.4.56-45.3,1.72-66,10.22-9.09,3.73-18.59,10.26-19.57,20-1.09,10.9,9.32,19.86,19.92,22.64s21.84,1.5,32.64,3.31c7.66,1.29,32.09,11.25,18.37,21-2.49,1.77-5.46,3.21-6.82,5.95-1.69,3.41-.1,7.74,2.74,10.28,8.48,7.59,24,9.16,34.72,9.66a114.06,114.06,0,0,0,40.85-5.54c10.14-3.34,19.85-8.12,30.33-10.1,19.29-3.65,35.07,3.94,53.5,7,15.5,2.59,31.88,4.31,47.66,3,7.95-.67,16.32-2.26,22.22-7.62s8.27-13.33,13-19.62c4.94-6.54,14.16-13.71,22.21-15.76,9.34-2.37,18.84-3.43,28.12-6.6,9.88-3.38,21-9.82,21.25-20.26.17-6.1-3.75-11.75-8.78-15.21s-11.06-5.08-17-6.48A306.3,306.3,0,0,0,322,142.75Z"/><path class="cls-4" d="M235.6,208.7a99.3,99.3,0,0,0-16.72,3.38c.31-.7,3.4-1.36.94-2.1a33.77,33.77,0,0,0-25.07-1.76,8.59,8.59,0,0,1-4.09.71c-1.37-.25-2.65-1.65-2.18-3,.57-1.59,3.25-2.43,2.61-4a2.13,2.13,0,0,0-1.29-1c-5.72-2.3-13,.1-17.91-3.59a2.23,2.23,0,0,1-.92-1.16c-.36-1.41,1.58-2.2,3-2.31,3.14-.25,6.3-.3,9.44-.66,6.81-.78,13.6-3,20.39-2.05a4.64,4.64,0,0,0,.83-2.86,3.31,3.31,0,0,0-3.17-2.42,14.63,14.63,0,0,0-4.22.7c-7.29,1.69-15.2-.92-22.3,1.46-1.63.55-3.17,1.34-4.83,1.73-2.47.58-5.06.25-7.54.75-3,.61-6.18,3.15-4.68,6.59a6.08,6.08,0,0,0,3.33,3,27.77,27.77,0,0,0,8.26,2.07,19.45,19.45,0,0,1,5.38.85c1,.4,4.13,1.07,5.27,1.84.77.52-.86,1.62-1.73,2-1.82.73-3.74,3-3.09,4.43.84,1.87,2.95,2.78,4.94,3.29a19.44,19.44,0,0,0,7.2.58,44.67,44.67,0,0,0,6.57-1.7,46.91,46.91,0,0,1,13.74-1.79,4.37,4.37,0,0,1,2.45.55,1.62,1.62,0,0,1,.53,2.2c-.24,0-3.19,1.28-3.42,1.32-2.18.43.65,2.31,2.82,2.75a14.9,14.9,0,0,0,5.32-.12c10.56-1.65,21.39-5.13,31.68-2.26,2.66.74,5.21,1.9,7.94,2.34s5.79,0,7.72-1.94c-.65-.91-1.31-1.81-2-2.72,5.05-3.44,12.25-.95,17.76-3.58,1.63-.77,3.19-2.61,2.34-4.2s-3.81-1.62-4.32-3.45c-.32-1.15.63-2.3,1.68-2.87a28.45,28.45,0,0,0,3.27-1.49,4.39,4.39,0,0,0-.06-6.87,7.68,7.68,0,0,0-3.07-1,52.68,52.68,0,0,0-20.1.31c-.14.79.94,1.14,1.73,1.19a36.86,36.86,0,0,1,10.33,2.2c.95.35,2.08,1.25,1.57,2.12l-9.28,2c.09,2.26,2.59,3.49,4.68,4.37s4.49,2.53,4.05,4.75l-7.51.13a5.13,5.13,0,0,0-2.46.46,12,12,0,0,0-1.8,1.7c-2.68,2.39-6.81.7-10.27-.27C244.94,208,240.21,208.17,235.6,208.7Z"/><path class="cls-4" d="M350.45,209.35c.58-1.35,2.62-2.14,2.27-3.57-.22-.94-1.37-1.28-2.32-1.45l-19.15-3.39c-1.42-.25-3.27-.29-3.87,1s.65,2.68,1.9,3.34c2.46,1.3,5.34,1.49,8,2.2s5.5,2.22,6.32,4.88a2.52,2.52,0,0,0-3.39,1.6,11.37,11.37,0,0,1-.28,1.65c-.32.81-1.16,1.25-1.83,1.81-1.93,1.63-2.47,4.55-4.53,6-2.56,1.82-6,.58-9.13,0-5.55-1.06-11.26.25-16.9,0a2.14,2.14,0,0,1-1.47-.48,2.91,2.91,0,0,1-.49-1.55c-.57-3.17-4.36-4.55-7.57-4.76s-6.77.07-9.29-1.93l6.07-2.44a1.46,1.46,0,0,0,.86-.62c.52-1.08-1.74-1.91-1.41-3a42.86,42.86,0,0,1,10.1-1.94c2.37-.16,4.9-.17,6.91-1.44s3-4.41,1.31-6c-2.58,2.41-6.37,2.93-9.9,3s-7.15-.31-10.5.81a7.08,7.08,0,0,0-3.7,2.53,3.84,3.84,0,0,0-.18,4.28c-2.84,1.07-6.06,3.34-5.41,6.29.52,2.35,3.25,3.46,5.64,3.66s4.95-.08,7.06,1.08,3.17,3.26,5,4.65c3.58,2.77,8.62,1.94,13.14,2.05,4.72.12,9.35,1.42,14.06,1.65,4.19.2,9-.79,11.13-4.38.56-.92.9-1.95,1.53-2.82,1.75-2.44,5.08-2.94,8-3.61S354.68,216,355,213a5.67,5.67,0,0,1-3.4-.65A2.6,2.6,0,0,1,350.45,209.35Z"/><path class="cls-4" d="M424.91,167a1.75,1.75,0,0,0-.91-1.11c-5.11-3.4-11.47-4.13-17.57-4.77l-13.33-1.39,10.57,4.37a17.43,17.43,0,0,0,6.24,1.7,14.07,14.07,0,0,1,3.31.09,2.34,2.34,0,0,1,1.94,2.32c-.15,1.06-1.25,1.66-2.17,2.2s-1.89,1.5-1.56,2.52c-2.65-.37-5.54-.7-7.85.65-1.16.68-2.07,1.74-3.22,2.42-1.83,1.06-4.06,1.09-6.18,1.09h-14.3a23.4,23.4,0,0,1-4-.23c-1.56-.27-3-.85-4.59-1.2a15.78,15.78,0,0,0-7,.05c-1.53.36-3.63.68-4.21-.78-.16-.4-.14-.86-.32-1.25-.43-1-1.73-1.07-2.78-1a108,108,0,0,0-12.3,1.3,6.38,6.38,0,0,1-2.68,0,2.06,2.06,0,0,1-1.62-1.9c.05-1.1,1.28-2.12.78-3.12a1.94,1.94,0,0,0-1-.8,17.77,17.77,0,0,0-5.54-1.48,4.54,4.54,0,0,1-1.83-.42,1.31,1.31,0,0,1-.65-1.6,1.62,1.62,0,0,1,.59-.6c2.41-1.7,5.47-2.11,8.39-2.46l5.87-.71c-6.77-.45-13.9-.83-20,2.14a3.31,3.31,0,0,0-1.63,1.35,2.45,2.45,0,0,0,1,2.88,7.17,7.17,0,0,0,3.11,1l4.52.73c1.39.22,3.13.85,3.1,2.25a8.77,8.77,0,0,1-.58,1.8,3,3,0,0,0,1.9,3.22,8.82,8.82,0,0,0,4,.47l10.27-.38a4.28,4.28,0,0,1,3,.66c.39.35.64.84,1,1.22a5.2,5.2,0,0,0,2.62,1.15,30.4,30.4,0,0,0,7.32,1.07c2.83-.06,5.64-.9,8.45-.63,3.37.32,6.53,2.22,9.9,2,2.17-.12,4.2-1.1,6.34-1.41,3.19-.45,6.57.58,9.58-.56,1.34-.51,2.49-1.42,3.78-2.05,3.13-1.53,6.81-1.32,10.28-.93a5.71,5.71,0,0,0,2.79-.15,1.89,1.89,0,0,0,1.22-2.23c-.27-.7-1.1-1.16-1.12-1.91s.69-1.19,1.31-1.53l4.6-2.53C424.27,168.26,425,167.75,424.91,167Z"/><path class="cls-4" d="M394.68,162.68l8.49.36c2.23.09,4.57.22,6.44,1.41,1.2.76,2.19,2.23,1.67,3.56-.65,1.63-2.87,1.74-4.63,1.75a17.89,17.89,0,0,0-7.44,1.52,32.48,32.48,0,0,1-3,1.45c-2.25.77-4.71.41-7.07.09-6.45-.88-13-1.39-19.45-1.81-5.11-.32-10.22-.59-15.34-.59a35.56,35.56,0,0,1-6.84-.38c-.67-.13-1.52-.67-1.21-1.28a10.2,10.2,0,0,1-8.1-3.69,35.11,35.11,0,0,1,14.48-1.27L349,165.62a1.23,1.23,0,0,0-.66.56c-.29.72.79,1.16,1.57,1.18l36.8,1a30.62,30.62,0,0,0,6-.24,15.38,15.38,0,0,0,7.93-4A2.16,2.16,0,0,0,398,163Z"/><path class="cls-3" d="M401.29,166.25S396,153.19,390.37,149.4s-22.31-8.43-23.85-10.09c0,0-10.09,9.61-12.23,12s-8,11.51-9.61,14.95c0,0,4.39,3.56,16.61,2.25s13.65,2.5,27.18,1.55S401.29,166.25,401.29,166.25Z"/><path class="cls-5" d="M401.29,166.25S396,153.19,390.37,149.4s-22.31-8.43-23.85-10.09c0,0-8.62,8.21-11.6,11.32a.2.2,0,0,0,0,.07c.87,3.93,2.6,4.33,5.84,3,3.45-1.44,6.86-3.32,10.7-3.16,3.42.14,5.46,3,6.18,6,.66,2.77-1.13,6.21.81,8.72a23.5,23.5,0,0,0,5.33,5c1.39,0,2.93,0,4.68-.15C402,169.1,401.29,166.25,401.29,166.25Z"/><path class="cls-5" d="M372.66,163.81c-.19-3.44.65-9.74-4.78-7.71-1.95.74-3.83,1.66-5.77,2.41-6.26,2.38-9,.26-10.59-3.49a114,114,0,0,0-6.84,11.23s4.39,3.56,16.61,2.25a40.62,40.62,0,0,1,13.79.77A9.58,9.58,0,0,1,372.66,163.81Z"/><path class="cls-3" d="M401.29,166.25S396,153.19,390.37,149.4c-5-3.41-19-7.48-22.89-9.48,1.33,3.69,2.21,6.49,5.46,9.47a100.06,100.06,0,0,1,7.18,7.09c3.33,3.74,7.38,8.44,9,13.51C401.94,169,401.29,166.25,401.29,166.25Z"/><path class="cls-5" d="M371,143.57c2.25,1.41,4.8,4.26,7.76,3.63a8.86,8.86,0,0,1,4.37,0c1.2.37,5.92,2.88,9.58,4.32a12.92,12.92,0,0,0-2.37-2.15c-5-3.41-19-7.48-22.89-9.48.36,1,.68,1.91,1,2.8A5.73,5.73,0,0,1,371,143.57Z"/><path class="cls-5" d="M397.63,158.72c-2.65,3.23-6.1,4.91-10,1a17.17,17.17,0,0,1-1.9-2.74,6.49,6.49,0,0,0-4.94-.91l-1.18-.16.53.57c3.33,3.74,7.38,8.44,9,13.51,12.8-1,12.15-3.74,12.15-3.74A80.55,80.55,0,0,0,397.63,158.72Z"/><path class="cls-4" d="M132.77,171.07a1.85,1.85,0,0,1,1.18.78,1.3,1.3,0,0,1,.06.91c-.36,1.41-2,2.06-3.47,2.1s-2.94-.3-4.34.08a19,19,0,0,0-2.25.92c-4,1.6-8.51-.45-12.84-.48-2.4,0-5,.56-7.07-.64-1.38-.79-2.46-2.32-4.05-2.35-.51,0-1,.15-1.52.12a1.15,1.15,0,0,1-1.15-.81,10.76,10.76,0,0,1,4,0,52.79,52.79,0,0,0,11.24-.09c.45-.05,1-.2,1.07-.64s-.58-.83-1.11-.92c-3.36-.55-6.8-.16-10.2-.36-4.08-.24-8.4-1.31-12.13.38a1.73,1.73,0,0,0-.88.71c-.34.69.25,1.47.82,2a18,18,0,0,0,3.94,2.64,35.89,35.89,0,0,0,6.33,2.19c7.75,2.14,15.84,4.3,23.73,2.76a40.13,40.13,0,0,1,4-.77c2.77-.28,5.92.31,8-1.49.54-.46,1-1,1.46-1.52,1.55-1.47,3.91-2.09,5-3.94a1.91,1.91,0,0,0,.17-1.87,2.54,2.54,0,0,0-1.85-1,84.81,84.81,0,0,0-12.31-1.5,4.46,4.46,0,0,0-2.82.52Z"/><path class="cls-4" d="M155.07,170.68a3.57,3.57,0,0,0-2.11-.81,52.41,52.41,0,0,0-10.7-.05l-5.32.32a10.56,10.56,0,0,1-1.32,3.35c2.21.21,4.46.23,6.68.3.91,0,2.06.25,2.27,1.14a1.73,1.73,0,0,1-.2,1.13,7,7,0,0,1-4,3.1c-5.71,2.18-12.21,1.27-18,3.31-1.83.65-3.55,1.59-5.41,2.12a7.23,7.23,0,0,1-5.65-.36c-1.59-.94-2.5-2.69-3.82-4-2.46-2.45-6.17-3.18-9.65-3.2s-7,.56-10.42.22a1.07,1.07,0,0,1-.39-.1c-.3-.15-.38-.52-.49-.84a3.17,3.17,0,0,0-3.42-2.06c-.19-.51.54-.83,1.08-.88l25-2.22c-.22-1.19-1.74-1.52-2.94-1.57a110.77,110.77,0,0,0-18.83.77l2-.34-7.94.94c-2,.23-4.31.79-4.85,2.68s1.11,3.55,2.73,4.54a18.17,18.17,0,0,0,9.68,2.68c2.55,0,5.06-.59,7.6-.72s5.26.25,7.24,1.84a39,39,0,0,1,2.74,2.86,10.84,10.84,0,0,0,9.83,2.79c1.9-.43,3.65-1.38,5.53-1.92,5.23-1.52,10.85.19,16.26-.37a10.61,10.61,0,0,0,3.34-.81,15,15,0,0,0,2.91-1.9l8.49-6.56a7.53,7.53,0,0,0,2.27-2.33A2.64,2.64,0,0,0,155.07,170.68Z"/><path class="cls-3" d="M114.06,175.24c7.39,1.42,11-2,16.8-4.08l-18-20L98.12,164.38l8.9,9.9A65.8,65.8,0,0,1,114.06,175.24Z"/><path class="cls-6" d="M122.8,174.6c2.64-.93,5-2.36,8.06-3.44l-18-20-5.5,5.33C112.37,162.6,122.8,174.6,122.8,174.6Z"/><path class="cls-6" d="M130.2,171.4l.66-.24-18-20-.68.62C113.41,153.15,130.2,171.4,130.2,171.4Z"/><path class="cls-6" d="M110.79,152.75l-1.6,1.68c5.33,6.53,16.57,18.94,16.57,18.94l2.47-1.14C125.49,170.15,114.22,156.75,110.79,152.75Z"/><path class="cls-5" d="M104.08,159l-3.7,3.33c1.75,2,8.8,10.33,10.67,12.4,1,.14,2,.29,3,.49a16.4,16.4,0,0,0,5,.24Z"/><path class="cls-5" d="M108.14,174.4c1.92.19,3.87.44,5.92.84,7.39,1.42,11-2,16.8-4.08l-1.35-1.51a26.49,26.49,0,0,1-8.81.92,13.07,13.07,0,0,1-2.07-.3c-5.77-.75-10.86-5-15.17-9.4l-4.14,3.72Z"/><path class="cls-3" d="M112.85,151.13c1,1.13-1.46,5-5.53,8.67s-8.19,5.71-9.2,4.58,1.46-5,5.53-8.66S111.84,150,112.85,151.13Z"/><path class="cls-3" d="M112,151.94c.74.82-1.56,4.09-5.14,7.31s-7.07,5.16-7.81,4.33,1.56-4.09,5.13-7.31S111.22,151.11,112,151.94Z"/><path class="cls-6" d="M109,154.32c.34.39-1,2.17-3,4s-3.94,3-4.29,2.59,1-2.17,3-4S108.66,153.94,109,154.32Z"/><path class="cls-3" d="M240.83,204.2a3.23,3.23,0,0,1,.33.06c4-4.07,9.82-10.49,10.59-14.58L235.2,191.6l13.37-24.06S235.8,156.92,214.74,165c-16.13,6.2-23.07,24.27-25.44,32.39C206.71,196.77,223.51,202.78,240.83,204.2Z"/><path class="cls-3" d="M219.52,192.56c7.71.09,15.27-3.84,17.08-3.48l7-12.55c-10.24-6.48-22.5-5.26-26.54-3.86-6.39,2.21-11.74,6.68-7.54,13.84C212.16,191.05,214.07,192.5,219.52,192.56Z"/><path class="cls-7" d="M239.4,197.36a25.84,25.84,0,0,0-14.53.74c-2.46.82-5.19,1.83-7.83,1.81-4.72,0-9-1.57-11.89-5.54-5.49-7.63-6.4-15.58-2.1-21.59-8,8-12.06,18.83-13.75,24.63,17.41-.64,34.22,5.37,51.53,6.79a3.23,3.23,0,0,1,.33.06,86.45,86.45,0,0,0,6.43-7.17A17.24,17.24,0,0,1,239.4,197.36Z"/><path class="cls-7" d="M230.29,202.84c3.5.58,7,1.07,10.54,1.36a3.23,3.23,0,0,1,.33.06,78.7,78.7,0,0,0,7.47-8.55C242.94,199.17,236.54,202,230.29,202.84Z"/><path class="cls-3" d="M214.23,167c18.91-7.28,31.11.53,33.41,2.2l.93-1.69S235.8,156.92,214.74,165c-16.13,6.2-23.07,24.27-25.44,32.39h.11C192.26,188.63,199.31,172.76,214.23,167Z"/><circle class="cls-3" cx="220.02" cy="182.72" r="5.5"/><path class="cls-3" d="M223.77,182.72A3.75,3.75,0,1,1,220,179,3.75,3.75,0,0,1,223.77,182.72Z"/><path class="cls-3" d="M221.55,181.58A1.54,1.54,0,1,1,220,180,1.53,1.53,0,0,1,221.55,181.58Z"/><path class="cls-3" d="M232.8,193.79a33.24,33.24,0,0,1,6.65-4.57c5.56-3,13.5-5.83,15.9-2.48,4,5.52-12.76,5.41-15,6.18C237.83,193.79,232.8,193.79,232.8,193.79Z"/><path class="cls-3" d="M232.59,193.28s.5-9.7,10.72-22.38c9.72-12.06,12.64-1.26,9.76,4.14C250.63,179.62,231.91,197,232.59,193.28Z"/><path class="cls-4" d="M259.33,198.88c1.39.48,7.61,3.4,2.06,4.27-2.89,1.11-4.35-.11-6.71.52a68.23,68.23,0,0,1-10.31,2.18,42.59,42.59,0,0,1-14.78-1.23,18.49,18.49,0,0,0-4.16-.77c-2.2,0-4.3.82-6.47,1.2-6,1-12.16-1.71-18.28-1.29-2.81.2-6.41.7-7.72-1.66a6.81,6.81,0,0,0-1-1.83,3.22,3.22,0,0,0-1.6-.66l-12.15-2.68c-.52-1,.88-1.85,2-2.16l4-1.11c1.88-.52,3.9-1,5.77-.46a21.37,21.37,0,0,1,3.12,1.6,11.84,11.84,0,0,0,6.59,1.6c3.63-.45,7.05.7,10.54.56,5.51-.23,11.21-2.72,16.31-.72a32.46,32.46,0,0,1,3.82,2,29.15,29.15,0,0,0,11.22,3.54,2.78,2.78,0,0,0,2.09-.2l1.89-2.11c1.51-1.71,4.6-2.34,6.94-2.25A24.23,24.23,0,0,1,259.33,198.88Z"/><path class="cls-3" d="M350,170.78l-6.45-5S333.07,181.81,331,181.82s-8.79-2.34-17.85,9.4c-1.44,1.87-9.62,13.43-16.47,23.15a11.73,11.73,0,0,0,12.72,3.13,8.75,8.75,0,0,1,6.5.44c3.63,1.94,5.49,1.19,9.54.53a13.57,13.57,0,0,1,6.57.92c4.76-6.66,9.05-12.89,9.68-14.28,4.06-9,.32-13.89.18-15.91C341.74,186.51,350,170.78,350,170.78Z"/><path class="cls-7" d="M350,170.78l-2.12-2.11c-3,6.33-5.59,10.71-10,18.2,0,0-9.2,15.39-20.43,31.75,2.71,1,4.58.41,8-.15a13.71,13.71,0,0,1,6.63.94c4.19-5.77,7.86-10.92,8.44-12,5.88-10.51,1.51-16.05,1.36-18.24C341.74,186.51,350,170.78,350,170.78Z"/><path class="cls-3" d="M339.78,171.28c2.1-3,3.73-5.54,3.73-5.54l6.45,5s-1.22,2.33-2.7,5.34c-.13.25-2.76-.36-4.72-1.67A7.55,7.55,0,0,1,339.78,171.28Z"/><path class="cls-3" d="M357.76,167.47,353,174.71s-6.7-.34-14.56-9l4.58-7.5Z"/><path class="cls-3" d="M346.44,160.38l3.91,2.45a36.49,36.49,0,0,0-5.66,8.39,32,32,0,0,1-3.63-2.88A35.83,35.83,0,0,1,346.44,160.38Z"/><path class="cls-3" d="M343,158.23s3.37-.18,8.69,2.56,6.31,5.07,6.07,6.68c0,0-3.17.69-8.54-2.38S343,158.23,343,158.23Z"/><path class="cls-3" d="M325.48,218.47a9.48,9.48,0,0,1,3.1,0c4.42-6.31,8.31-11.88,8.51-12.31,4.35-9.54,1.05-14.85,1.05-14.85-2.72,5.71-10.93,17.69-18.14,27.82A28.8,28.8,0,0,0,325.48,218.47Z"/><path class="cls-3" d="M307.5,218c7.58-11.1,18.92-27.48,22.64-31.81-4.5.49-8.38,3.39-11.5,6.67-1.82,1.92-10.86,14.08-18.46,24.1A11.22,11.22,0,0,0,307.5,218Z"/><path class="cls-7" d="M315.94,217.94c3.63,1.94,5.49,1.19,9.54.53a13.71,13.71,0,0,1,6.63.94c2.2-3,4.26-5.89,5.8-8.08a117.87,117.87,0,0,1-22.39,6.45C315.66,217.84,315.81,217.88,315.94,217.94Z"/><path class="cls-3" d="M162.92,232.1c-2.27,0-4.34-1.2-6.41-2.17a32.58,32.58,0,0,0-10.7-2.9,1.36,1.36,0,0,1,.13-1.85c.45-.51,1.09-.83,1.57-1.32a7.39,7.39,0,0,0,1.37-2.93c2.33-6.8,10.68-10.83,17.46-8.44,2.35.83,4.63,2.57,5.1,5,.15.81.15,1.75.79,2.26a3,3,0,0,0,2.35.22,9.49,9.49,0,0,1,9.82,5.89c.61,1.63.56,3.84-.94,4.73a4.39,4.39,0,0,1-2.3.43c-4.21-.06-8.46-1.26-12.56-.3C166.7,231.19,164.88,232.09,162.92,232.1Z"/><path class="cls-5" d="M165.73,230.19a55.43,55.43,0,0,1-4-6.72c-.91-1.62-2.53-3.39-2.93-5.24a7,7,0,0,1,.39-5.09,9.65,9.65,0,0,1,1-1.17,14.15,14.15,0,0,0-11.26,9,7.39,7.39,0,0,1-1.37,2.93c-.48.49-1.12.81-1.57,1.32a1.36,1.36,0,0,0-.13,1.85,32.58,32.58,0,0,1,10.7,2.9c2.07,1,4.14,2.17,6.41,2.17a12.71,12.71,0,0,0,3.77-.8A13.21,13.21,0,0,1,165.73,230.19Z"/><path class="cls-8" d="M164.66,217.39c2.39,3.21,6.1,7.4,7.82,4.79a8.27,8.27,0,0,1,2-2.17,2.88,2.88,0,0,1-2.23-.24c-.64-.51-.64-1.45-.79-2.26a5.6,5.6,0,0,0-1.5-2.76.69.69,0,0,1-.13-.11C169.24,214.07,167,215.73,164.66,217.39Z"/><path class="cls-8" d="M180.61,227.69a4.11,4.11,0,0,1-1.12-.36,1.49,1.49,0,0,1-.34.56c-2,2.38-5.39,1.4-7.63.2-.65-.49-1.29-1-1.91-1.52a3.68,3.68,0,0,1-2.12.66,6.9,6.9,0,0,1-6.49-3.94l-.41.09a5.39,5.39,0,0,1-2.62.77,7.29,7.29,0,0,1-3.41-.77c-2.45-1.43-3.29-4.71-2.57-7.3h0a12.72,12.72,0,0,0-3.1,4.86,7.39,7.39,0,0,1-1.37,2.93c-.48.49-1.12.81-1.57,1.32a1.36,1.36,0,0,0-.13,1.85,32.58,32.58,0,0,1,10.7,2.9c2.07,1,4.14,2.17,6.41,2.17,2,0,3.78-.91,5.68-1.36,4.1-1,8.35.24,12.56.3a4.39,4.39,0,0,0,2.3-.43,3.4,3.4,0,0,0,1.23-3.59A6.39,6.39,0,0,1,180.61,227.69Z"/><path class="cls-4" d="M140.68,224.77a1.56,1.56,0,0,1,1.27-1.4,7.65,7.65,0,0,1,2-.05,7.84,7.84,0,0,0,4.59-1.37,56.83,56.83,0,0,0-9.18,1.29,9,9,0,0,0-3.84,1.57,3,3,0,0,0-1.2,2.06,2.89,2.89,0,0,0,1.77,2.58,8.6,8.6,0,0,0,3.23.62l7.21.42a5.5,5.5,0,0,1,1.76.29,6.24,6.24,0,0,1,1.8,1.28,23.67,23.67,0,0,0,10.11,5.14,13.93,13.93,0,0,0,5.85.25,28.59,28.59,0,0,0,4.54-1.63,31,31,0,0,1,12.82-2.08c3.3.16,6.58.86,9.89.83,2.63,0,5.73-.93,6.5-3.45.51-1.66,3.17-1.94,2-3.24-.58-.67-7.94-1.24-8.75-1.62-3.63-1.68-4.57-.28-8.54-.8l4.72,2.52a1.88,1.88,0,0,1,.81.66c.48.88-.69,1.83-1.69,1.83s-2-.45-3-.17a5.72,5.72,0,0,0-1,.46c-3.39,1.64-7.48-.41-11.16.4-1.92.42-3.59,1.59-5.39,2.37a14.24,14.24,0,0,1-6.6,1.17,5.44,5.44,0,0,1-2.58-.67,9.74,9.74,0,0,1-2.27-2.43,12.36,12.36,0,0,0-8.79-4.54c-2.12-.13-4.47.23-6.16-1.05A1.69,1.69,0,0,1,140.68,224.77Z"/><path class="cls-3" d="M294.69,157.63c2.73.53,5.73,1.23,7.37,3.47,1.83,2.5,1.31,6,2.62,8.86.84,1.79,2.37,3.17,3.34,4.9s1.24,4.18-.27,5.46-3.65.69-5.48.17a63.13,63.13,0,0,0-26.3-1.68,4.81,4.81,0,0,1-3-.16,5.35,5.35,0,0,1-1.44-1.29c-1.85-2.08-4.19-3.72-5.78-6s-2.27-5.59-.54-7.77c1.26-1.59,3.42-2.14,5.44-2.27s4.09.05,6.05-.49c2.46-.68,4.49-2.44,6.9-3.32C287.14,156.22,291,156.92,294.69,157.63Z"/><path class="cls-5" d="M298.11,176.47c-.54-2.72-3.19-1.91-5.32-1.6a3.11,3.11,0,0,1-3.85-2.93c-.19-3.06-3-9.52.92-11.59,1.14-.6,6.46-.87,8.85-1.65a23.37,23.37,0,0,0-4-1.07c-3.66-.71-7.55-1.41-11.05-.12-2.41.88-4.44,2.64-6.9,3.32-2,.54-4,.36-6.05.49s-4.18.68-5.44,2.27c-1.73,2.18-1.06,5.48.54,7.77s3.93,3.92,5.78,6a5.35,5.35,0,0,0,1.44,1.29,4.81,4.81,0,0,0,3,.16,63.22,63.22,0,0,1,23.38.94A9.25,9.25,0,0,1,298.11,176.47Z"/><path class="cls-8" d="M294.83,168.48c2.58-.27,5.36-.17,6.91,1.69.22.27.41.53.59.79-.24-2.2-.42-4.42-.52-6.65a11.53,11.53,0,0,1-2,.62,54.59,54.59,0,0,1-5.85.42C294.44,165.3,294.69,166.86,294.83,168.48Z"/><path class="cls-8" d="M293.56,169.81a12.43,12.43,0,0,1,.66-2.74,3.31,3.31,0,0,1-2.53-.49c-2-1.53-2.19-3-2.87-5.29.11.38-1.47.21-2.61.13a5.83,5.83,0,0,1-2.57-1A4.27,4.27,0,0,1,283,160l-.15,0a13.47,13.47,0,0,1,1,2.46c.49,1.79-.54,2.77-1.48,3.83a6.2,6.2,0,0,1,1.64.52c1.31.77,1.83,1.75,3.54,2,2.39.28,3.35,1.47,5.4,2.45a9.8,9.8,0,0,0,.92.36A4.79,4.79,0,0,1,293.56,169.81Z"/><path class="cls-8" d="M307.82,176.7a3.12,3.12,0,0,1-3.44,1.4c-2.59-.48-4.31-2.81-6.84-.94a4.47,4.47,0,0,1-4.33.35,6.45,6.45,0,0,1-2.77-3.93c-.81-3-3.41-1.66-5.57-.81-2.31.91-5.72.93-6.54-2.08-.68-2.46.67-.67-2.17-1.16a4.4,4.4,0,0,1-3.14-1.71,3,3,0,0,1-.78-3,7.24,7.24,0,0,1,2.63-3.72c-1.38.13-2.79.09-4.18.18-2,.13-4.18.68-5.44,2.27-1.73,2.18-1.06,5.48.54,7.77s3.93,3.92,5.78,6a5.35,5.35,0,0,0,1.44,1.29,4.81,4.81,0,0,0,3,.16,63.13,63.13,0,0,1,26.3,1.68c1.83.52,4,1.06,5.48-.17s1.29-3.15.6-4.79A6.72,6.72,0,0,1,307.82,176.7Z"/><path class="cls-4" d="M318.59,175.14a1.4,1.4,0,0,0-.57-1.72,4,4,0,0,0-1.9-.53,5.21,5.21,0,0,0-2.26.07c-.52.17-6.27.27-6.73.55l.73,1.07c.29.4,3.4.34,4.41.68s.09,1-1.52,1.33a6.76,6.76,0,0,0-2.33,1c-.65.48-1.44.88-1.56,1.65-.06.33,0,.7-.18,1a1.13,1.13,0,0,1-.9.31,24.91,24.91,0,0,1-5.53-.25c-2-.4-3.79-1.27-5.74-1.67-1.43-.29-5.55.94-7,.91-2.2,0-1.77-1.34-4-1.39a6.47,6.47,0,0,0-2.94.4c-.63.3-1.15.79-1.77,1.09a6.66,6.66,0,0,1-2.59.43,2,2,0,0,1-1.37-.3,1,1,0,0,1-.13-.16,2.7,2.7,0,0,0-1.73-1.38l-8.42-1.63c.93-.37,4.43-.48,5.36-.84l-1.19-1.12c-2.76.14-5.45.59-8.21.72a5.72,5.72,0,0,0-3.48.95.84.84,0,0,0-.37.63c0,.28.27.49.51.65,3.72,2.46,8.63,1.41,13,2.21a2.37,2.37,0,0,1,1.8,1.64,2.21,2.21,0,0,0,.68,1,4.68,4.68,0,0,0,2.25.82,13.36,13.36,0,0,0,5.7-.17c1.07-.3,2.09-.79,3.17-1.09,4.25-1.17,8.74.79,13.15.62a36.29,36.29,0,0,1,4.88-.27c1.73.16,3.37.89,5.11,1,.67,0,1.5-.15,1.71-.8a4.12,4.12,0,0,0,0-.93,2.61,2.61,0,0,1,.72-1.37,12.5,12.5,0,0,1,7.4-4.21C317.5,175.85,318.27,175.73,318.59,175.14Z"/><path class="cls-3" d="M285,87.78,125.51,55.56c-8.82-5.51-10-21.31-7.38-31.43C120,16.76,127.83,6,136,5L294.39,35.72Z"/><path class="cls-3" d="M285,87.78,125.51,55.56c-8.82-5.51-10-21.31-7.38-31.43C120,16.76,127.83,6,136,5L294.39,35.72Z"/><path class="cls-3" d="M259.64,29l-25.3-4.9C227.65,28,222,36.6,220.39,42.94c-2.66,10.35-1.72,26.17,6.34,33.07l22.84,4.62c-7.07-7.34-7.83-22.17-5.29-32C246,41.8,252.34,32.43,259.64,29Z"/><path class="cls-3" d="M232.42,77.16c-7.06-8-7.76-23.37-5.11-33.68,1.52-5.95,6.37-13.72,12.37-18.36l-1.28-.25c-6.13,4.61-11.11,12.56-12.66,18.61-2.61,10.15-2,25.19,4.81,33.3Z"/><path class="cls-3" d="M244.24,79.49c-7.07-8-7.76-23.37-5.12-33.68,1.53-6,6.38-13.73,12.37-18.37l-1.28-.24c-6.13,4.61-11.11,12.56-12.66,18.61-2.6,10.15-2,25.19,4.81,33.3Z"/><path class="cls-3" d="M161.71,10l-11-2.14c-7.21,3.52-13.44,12.79-15.16,19.51-2.43,9.47-1.84,23.5,4.45,31.11l9.09,1.83c-4.7-8.41-5-21.09-2.66-30C148.19,23.44,154.4,14,161.71,10Z"/><path class="cls-9" d="M283.45,64.52c-29.6-7.59-157.47-33.61-166-37.08-1.19,7.46-.52,16.72,3.2,23l0,0L280.17,82.68Z"/><path class="cls-3" d="M307.42,65.62c-2.73,14.34-13,24.2-22.9,22s-15.76-15.56-13-29.9,13-24.2,22.91-22S310.15,51.28,307.42,65.62Z"/><path class="cls-5" d="M289,69.58a24.79,24.79,0,0,1-18.05-7.11c-.78,12.44,4.8,23.24,13.62,25.17,9.92,2.18,20.17-7.68,22.9-22a38.44,38.44,0,0,0,.54-4.19A24.67,24.67,0,0,1,289,69.58Z"/><path class="cls-3" d="M303.76,64.82C301.59,76.24,293.63,84.13,286,82.45s-12.08-12.29-9.91-23.7,10.13-19.31,17.77-17.64S305.93,53.4,303.76,64.82Z"/><path class="cls-3" d="M314,73a72.41,72.41,0,0,0-10.23-8.49c-7.8-4.11-21.61-3.62-28-3.11a26.65,26.65,0,0,0,1.53,12.71c.07.18.15.35.23.52a17.24,17.24,0,0,0,1.08,2c.25.41.5.78.74,1.11a14.08,14.08,0,0,0,1.49,1.81l.14.15.22.21c2.17,2.19,1.44,5.21,1.73,11.82,1.11,25-10,54.34-10,54.34h62.79C337.54,115.58,325.4,87.51,314,73Z"/><path class="cls-3" d="M314,73a72.41,72.41,0,0,0-10.23-8.49c-7.8-4.11-21.61-3.62-28-3.11a26.65,26.65,0,0,0,1.53,12.71c.07.18.15.35.23.52a17.24,17.24,0,0,0,1.08,2c.25.41.5.78.74,1.11a14.08,14.08,0,0,0,1.49,1.81l.14.15.22.21c2.17,2.19,1.44,5.21,1.73,11.82,1.11,25-10,54.34-10,54.34h62.79C337.54,115.58,325.4,87.51,314,73Z"/><path class="cls-5" d="M333.37,132.67a1.15,1.15,0,0,0-.51.61,24.73,24.73,0,0,0-1.05,2.35c-.62-.83-1.54-1.76-2.47-1.36s-1,1.52-1.06,2.47-.36,2.13-1.24,2.32c-.7.15-1.33-.45-1.83-1l-1.68-1.85a1,1,0,0,0-.71-.44.84.84,0,0,0-.55.34c-1.11,1.28-1.18,3.81-2.79,4.07-1.25.2-2.35-1.33-3.59-1.07a6.85,6.85,0,0,0-1.58.92,2.54,2.54,0,0,1-3.5-2L308,139.89a.85.85,0,0,1-.52.19c-.3,0-.48-.36-.59-.66-.49-1.3-.85-3-2.12-3.33-1.09-.29-2.07.68-2.9,1.49s-2.05,1.59-3,.94c-.32-.22-.54-.57-.85-.8a2.07,2.07,0,0,0-2.29.18c-.69.44-1.26,1.09-1.95,1.54a1.2,1.2,0,0,1-.91.25c-.58-.15-.76-.93-1.22-1.33-.64-.56-1.6-.23-2.31.21a3.29,3.29,0,0,1-2.3.8,5,5,0,0,1-1.61-1.14,3.5,3.5,0,0,0-4.5.25,1.22,1.22,0,0,1-.57.39c-.41.07-.72-.38-.9-.79-.39-.91-1.15-4-2.57-3.12-1,.59-1.38,3.64-1.71,4.68-.14.46-1.73,6.43-2.17,6.43h62.79a104.58,104.58,0,0,0,0-12c-.06,0-.11.08-.18.08C334.65,134.1,334.23,132.31,333.37,132.67Z"/><path class="cls-5" d="M288.42,146.07c.16-1.56.31-3.12.47-4.68a47,47,0,0,1,1.56-9.33c.87-2.8,2.27-5.73,1.41-8.53-.42-1.36-1.34-2.5-1.71-3.88-1-3.65,2.17-7,3.16-10.62,1.51-5.59-2.19-11.33-2-17.16.06-2.2.67-4.36.75-6.56.18-5.37-3.2-10.65-7.93-12.39a17.06,17.06,0,0,1,4.48,14.71c-.46,2.61-1.53,5.28-.83,7.83a20.45,20.45,0,0,0,1.55,3.32,13.85,13.85,0,0,1,.8,9.79c-1.31,4.44-4.9,8.51-3.94,13.05.4,1.87,1.55,3.47,2,5.33.91,4-1.58,7.8-3.32,11.43a3.43,3.43,0,0,0-.47,2.06,6.27,6.27,0,0,0,.86,1.69,4.87,4.87,0,0,1,0,3.94Z"/><path class="cls-5" d="M305.52,146.07h7.35a46.84,46.84,0,0,1-.19-8.7c.24-3.29.82-6.73-.35-9.78-.59-1.55-1.59-2.89-2.24-4.41-3.25-7.59,2.94-17.5-1.3-24.5-1.13-1.86-2.86-3.21-4.08-5-2.55-3.72-2.55-8.71-3.57-13.2s-4.2-9.32-8.48-8.78a17.3,17.3,0,0,1,7.43,14c0,2.61-.5,5.3.29,7.77,1.1,3.49,4.53,5.59,5.95,9,2.2,5.21-1.07,11.13-1.15,16.85-.1,7,4.66,13.93,2.67,20.63C307.25,141.94,306.06,144,305.52,146.07Z"/><path class="cls-5" d="M327.08,141.82c-.05-3.11-.83-7.16-3.71-7.5.92-6.39,1.64-13.65-2.16-18.66a17,17,0,0,1-1.77-2.43c-1.07-2.1-.57-4.68-.15-7a24.7,24.7,0,0,0,.32-9.22c-1.1-5.47-5.17-9.64-7.39-14.7-1.1-2.52-1.74-5.26-3-7.66a13.82,13.82,0,0,0-13-7.29c5.34.42,10.13,5.09,11,10.76.36,2.3.16,4.72.92,6.9.84,2.43,2.75,4.2,4.22,6.25a19.56,19.56,0,0,1,3.41,13.29c-.31,2.81-1.22,5.62-.7,8.39.8,4.26,4.77,7.18,5.64,11.41.7,3.37-.7,6.87-.25,10.28.35,2.58,1.71,4.86,2.46,7.34a15.48,15.48,0,0,1,.58,4.13h3.67C327.13,144.65,327.1,143.23,327.08,141.82Z"/><path class="cls-5" d="M301,128.88c-.47-1.51-1.31-2.89-1.69-4.43-1.52-6.06,4.19-12,3.27-18.18-.42-2.78-2.11-5.11-3.17-7.69-1.86-4.56-1.68-9.73-2.44-14.64s-3-10.21-7.4-11.76c4.07,3,5.56,8.63,6.05,13.89s.29,10.73,2.19,15.6a38.54,38.54,0,0,1,2.07,5.28c1.71,7.37-5.27,14.58-3.84,22,.29,1.47.89,2.86,1.09,4.34.43,3.17-1,6.24-2.38,9.09a18.9,18.9,0,0,0-1.4,3.67h4.93C299.32,140.3,302.72,134.45,301,128.88Z"/><path class="cls-5" d="M331.43,129.94c-.64-1.16-1.57-2.12-2.13-3.33-1.87-4.08,1.09-9.09-.14-13.43-.53-1.83-1.75-3.33-2.57-5-1.41-2.87-1.66-6.22-2.34-9.38a32.49,32.49,0,0,0-5.64-12.5,43.79,43.79,0,0,1,3.13,16.43,17.9,17.9,0,0,0,.42,5.33,22.54,22.54,0,0,0,2.25,4.26A19.72,19.72,0,0,1,326.64,125a9.79,9.79,0,0,0-.24,3.09,9.45,9.45,0,0,0,1.16,2.67c2.39,4.57,2.56,10,2.51,15.3h2.3C331.28,140.73,334,134.64,331.43,129.94Z"/><path class="cls-3" d="M346.44,136.66c-2.51-1.79-5.68-3.55-8.37-2.1-.9.49-1.33.73-2.21,1.23a20,20,0,0,0-2,4.11,3.81,3.81,0,0,1-.6,1.25c-.93,1.09-2.57.66-3.93.44s-3.25.46-3.07,1.93c-2.46.71-5-1-7.55-.89-2.72.14-5.05,2.35-7.77,2.5-4.37.25-8.38-4.88-12.48-3.22-1.53.61-2.65,2.09-4.17,2.72-3.73,1.54-7.63-2.49-11.6-2-2.75.31-5,2.75-7.77,2.93-.78.05-1.06.47-1.62-.12,0,0,3.16-10.21,3.23-10.39l-5.15.07c-1.43,0-3.21.29-3.68,1.74-.22.69-.07,1.5-.41,2.13-.54,1-1.9,1-3,1a7.6,7.6,0,0,0-6.71,3.3c-1.42,2.31-1,5.92,1.28,7.23,1.15.67,2.73.84,3.27,2.12a8.33,8.33,0,0,1,.28,2c.35,2.35,2.87,3.7,5.07,3.51s4.17-1.48,6.11-2.6,4.13-2.13,6.3-1.72c1.54.3,2.89,1.28,4.38,1.77,4.67,1.53,9.66-1.93,14.48-1.09,2,.35,3.89,1.44,5.92,1.42,3.09,0,5.74-2.63,8.82-2.83,2.29-.14,4.44,1,6.62,1.8s4.85,1,6.52-.7c.5-.51.87-1.15,1.36-1.68,1.43-1.52,3.66-1.74,5.67-1.53s4,.76,6,.44,4-1.88,4.11-4.05c.06-1.23-.5-2.59.13-3.63.94-1.56,3.52-.74,4.62-2.18S348,137.78,346.44,136.66Z"/><path class="cls-5" d="M273.32,145.41s.07-.21.17-.54l.07-.21c.05-.18.13-.42.2-.66l.08-.27,0-.06.23-.73.05-.17,0-.07c.41-1.32.9-2.91,1.34-4.31h0c0-.07.05-.14.07-.21s0-.12.05-.17l.29-.93a11.27,11.27,0,0,1,.31-1.17c-.21.61-3.17.69-3.83,1-1.27.61-2.52,1.66-2.24,3.33a1.27,1.27,0,0,1,0,.58c-.12.38-.6.43-1,.47a3.28,3.28,0,0,0-2.57,1.7,1.46,1.46,0,0,0-.2.81c.07.81.79,1.22.82,2.12s-.55,1.84-.12,2.73a1.63,1.63,0,0,0,.7.7,2.36,2.36,0,0,0,1.7.27c1.05-.23,2.08-1.39,3.21-1.11.71.17.87.78,1.38,1.21,1.72,1.44,3.6-1.55,5.56-.72a7.81,7.81,0,0,1,.88.52,3.62,3.62,0,0,0,4-.24,2.85,2.85,0,0,1,.75-.51,1.58,1.58,0,0,1,1.09.08c.76.29,1.43.8,2.2,1.06,2.58.87,5-2.58,7.69-1.75.72.22,1.32.75,2,1,1.94.56,4.09-1.32,5.9-.41.79.4,1.38,1.29,2.24,1.39s1.78-.88,2.69-1.35c1.42-.72,3.08-.14,4.58.35a2,2,0,0,0,1.26.1,3.37,3.37,0,0,0,1-.78c1.95-1.77,3.9.88,6,1.27a2.41,2.41,0,0,0,1,0,4.13,4.13,0,0,0,1.39-.91,4.81,4.81,0,0,1,4-.87c1.57.39,2.48.88,3.53-.49s2.07-.47,3.65-.55a2,2,0,0,0,1.67-.76c.35-.57.28-1.39.74-1.86,1.08-1.11,3.77.52,3.44-2.15-.11-.92-1-1.32-1.11-2s.77-1.05.87-1.79c.16-1.14-1.31-1.94-2-2.5-.5-.4-.71-1-1.4-1a1.12,1.12,0,0,0-.23.06l-1.64.92a1.79,1.79,0,0,0-.36.51c-.18.33-.4.76-.63,1.24h0c-.31.66-.62,1.37-.83,1.9l-.16.45a3.81,3.81,0,0,1-.6,1.25c-.93,1.09-2.57.66-3.93.44s-3.25.46-3.07,1.93c-2.46.71-5-1-7.55-.89-2.72.14-5.05,2.35-7.77,2.5a6.16,6.16,0,0,1-1,0h0c-4-.45-7.72-4.73-11.52-3.19-1.53.61-2.65,2.09-4.17,2.72-3.73,1.54-7.63-2.49-11.6-2-2.75.31-5,2.75-7.77,2.93C274.16,145.58,273.88,146,273.32,145.41Z"/><path class="cls-3" d="M154.45,8.6c-6.29,4.11-11.67,11.37-13.63,17.14-3.34,9.79-3.86,24.61,2.08,33.33l1.71.35c-6.09-8.69-5.6-23.68-2.23-33.55,2-5.7,7.25-12.88,13.46-17Z"/><path class="cls-3" d="M339.91,124.15a1.82,1.82,0,1,1-1.82-2A1.89,1.89,0,0,1,339.91,124.15Z"/><path class="cls-3" d="M306.91,139.88a1.83,1.83,0,1,1-1.82-2A1.88,1.88,0,0,1,306.91,139.88Z"/><path class="cls-3" d="M268.25,126.11a1.83,1.83,0,1,1-1.83-2A1.9,1.9,0,0,1,268.25,126.11Z"/><path class="cls-3" d="M273.85,131a1.41,1.41,0,1,1-1.41-1.51A1.46,1.46,0,0,1,273.85,131Z"/><path class="cls-3" d="M262.18,135.54a1.41,1.41,0,1,1-1.41-1.51A1.46,1.46,0,0,1,262.18,135.54Z"/><path class="cls-3" d="M340.65,129.51a1.41,1.41,0,1,1-1.41-1.52A1.46,1.46,0,0,1,340.65,129.51Z"/><path class="cls-3" d="M327.54,135a1.68,1.68,0,1,1-1.68-1.8A1.74,1.74,0,0,1,327.54,135Z"/><path class="cls-3" d="M277.1,123.44a2.84,2.84,0,1,1-2.84-3A2.94,2.94,0,0,1,277.1,123.44Z"/><path class="cls-3" d="M348.31,129.78a2.84,2.84,0,1,1-2.84-3A3,3,0,0,1,348.31,129.78Z"/><ellipse class="cls-3" cx="297.59" cy="132.62" rx="2.83" ry="3.05"/><path class="cls-3" d="M317.33,131A2.84,2.84,0,1,1,314.5,128,2.94,2.94,0,0,1,317.33,131Z"/><path class="cls-3" d="M294.44,137.92a1.33,1.33,0,1,1-1.33-1.43A1.37,1.37,0,0,1,294.44,137.92Z"/><path class="cls-3" d="M284.62,131.87a1.86,1.86,0,1,1-1.85-2A1.92,1.92,0,0,1,284.62,131.87Z"/><path class="cls-3" d="M168.07,97.73,8.6,65.51C-.23,60-1.38,44.19,1.22,34.08,3.11,26.71,10.92,16,19.11,15l158.36,30.7Z"/><path class="cls-3" d="M168.07,97.73,8.6,65.51C-.23,60-1.38,44.19,1.22,34.08,3.11,26.71,10.92,16,19.11,15l158.36,30.7Z"/><path class="cls-3" d="M142.72,38.93,117.42,34c-6.68,3.91-12.32,12.51-13.94,18.85-2.66,10.36-1.73,26.17,6.33,33.08l22.84,4.61c-7.07-7.34-7.82-22.16-5.28-32C129.11,51.75,135.43,42.38,142.72,38.93Z"/><path class="cls-3" d="M115.51,87.11c-7.07-8-7.76-23.38-5.12-33.68,1.53-6,6.38-13.73,12.38-18.37l-1.28-.25c-6.14,4.62-11.11,12.57-12.66,18.62-2.61,10.15-2,25.19,4.81,33.3Z"/><path class="cls-3" d="M127.32,89.44c-7.06-8-7.76-23.38-5.11-33.68,1.52-5.95,6.37-13.73,12.37-18.37l-1.28-.25c-6.13,4.61-11.11,12.57-12.66,18.62-2.61,10.15-2,25.19,4.81,33.3Z"/><path class="cls-3" d="M44.8,20l-11-2.13c-7.22,3.52-13.44,12.78-15.17,19.5-2.43,9.48-1.83,23.5,4.45,31.11l9.1,1.84c-4.71-8.42-5-21.09-2.66-30C31.27,33.38,37.48,24,44.8,20Z"/><path class="cls-9" d="M166.54,74.46C136.94,66.87,9.06,40.86.55,37.39c-1.19,7.46-.52,16.72,3.2,23l0,0L163.26,92.62Z"/><path class="cls-3" d="M190.51,75.57c-2.73,14.34-13,24.19-22.91,22s-15.76-15.57-13-29.91,13-24.19,22.9-22S193.23,61.23,190.51,75.57Z"/><path class="cls-5" d="M172,79.53a24.79,24.79,0,0,1-18-7.12c-.78,12.45,4.79,23.24,13.61,25.18,9.93,2.17,20.18-7.68,22.91-22a38.26,38.26,0,0,0,.53-4.2C186.63,76.3,180.31,79.53,172,79.53Z"/><path class="cls-3" d="M186.84,74.77c-2.17,11.41-10.12,19.31-17.76,17.63S157,80.11,159.17,68.69s10.13-19.31,17.77-17.63S189,63.35,186.84,74.77Z"/><path class="cls-3" d="M37.53,18.54C31.25,22.65,25.87,29.92,23.9,35.68,20.56,45.47,20.05,60.3,26,69l1.71.35c-6.09-8.69-5.6-23.68-2.23-33.55,2-5.71,7.24-12.88,13.46-17Z"/><path class="cls-3" d="M147.57,144.76a1.83,1.83,0,1,1-1.82-2A1.9,1.9,0,0,1,147.57,144.76Z"/><path class="cls-3" d="M150.38,139a1.41,1.41,0,1,1-1.41-1.51A1.46,1.46,0,0,1,150.38,139Z"/><path class="cls-3" d="M236.3,142.47a1.41,1.41,0,1,1-1.4-1.52A1.46,1.46,0,0,1,236.3,142.47Z"/><path class="cls-3" d="M228.72,139.4a2.2,2.2,0,1,1-2.19-2.35A2.27,2.27,0,0,1,228.72,139.4Z"/><ellipse class="cls-3" cx="158.89" cy="128.38" rx="1.41" ry="1.51"/><path class="cls-3" d="M223.26,129.57a1.41,1.41,0,1,1-1.41-1.51A1.47,1.47,0,0,1,223.26,129.57Z"/><path class="cls-3" d="M189.82,148a1.41,1.41,0,1,1-1.41-1.51A1.46,1.46,0,0,1,189.82,148Z"/><path class="cls-3" d="M166.08,141.29a1.41,1.41,0,1,1-1.41-1.51A1.46,1.46,0,0,1,166.08,141.29Z"/><path class="cls-3" d="M199.23,140.26a1.41,1.41,0,1,1-1.41-1.51A1.46,1.46,0,0,1,199.23,140.26Z"/><path class="cls-3" d="M217.08,144.55a1.41,1.41,0,1,1-1.41-1.51A1.47,1.47,0,0,1,217.08,144.55Z"/><path class="cls-3" d="M215.67,136.26a1.82,1.82,0,1,1-1.82-1.95A1.89,1.89,0,0,1,215.67,136.26Z"/><path class="cls-3" d="M158.89,137.8a2.84,2.84,0,1,1-2.84-3.05A2.94,2.94,0,0,1,158.89,137.8Z"/><path class="cls-3" d="M230.88,127.2a2.84,2.84,0,1,1-2.83-3A3,3,0,0,1,230.88,127.2Z"/><path class="cls-3" d="M207.62,143.67a1.77,1.77,0,1,1-1.77-1.9A1.84,1.84,0,0,1,207.62,143.67Z"/><path class="cls-3" d="M182.35,142.92a2,2,0,1,1-2-2.19A2.12,2.12,0,0,1,182.35,142.92Z"/><path class="cls-3" d="M169.36,146.07a1.79,1.79,0,1,1-1.78-1.92A1.85,1.85,0,0,1,169.36,146.07Z"/><path class="cls-10" d="M342,137.44l-137.81.75c-23.6.13-47.2.26-70.78.85-25.8.65-52.18,2-76.05,11.77-10.47,4.29-21.42,11.82-22.55,23.08-1.25,12.56,10.74,22.88,23,26.08s25.15,1.72,37.6,3.82c8.81,1.49,37,13,21.15,24.19-2.87,2-6.29,3.7-7.85,6.85-2,3.94-.11,8.92,3.16,11.85,9.76,8.74,27.62,10.55,40,11.12a131.25,131.25,0,0,0,47.05-6.38c11.67-3.84,22.86-9.35,34.93-11.63,22.22-4.21,40.4,4.54,61.63,8.09,17.85,3,36.72,5,54.89,3.43,9.16-.78,18.79-2.61,25.6-8.78s9.52-15.35,15-22.59c5.69-7.54,16.31-15.8,25.58-18.16,10.76-2.73,21.7-3.95,32.39-7.61,11.38-3.89,24.15-11.31,24.48-23.33.19-7-4.32-13.53-10.11-17.51s-12.74-5.86-19.59-7.47a353.27,353.27,0,0,0-111.29-8Z"/><path class="cls-11" d="M330.35,137.33,210.71,138c-20.49.11-41,.22-61.45.73-22.4.57-45.3,1.72-66,10.22-9.09,3.73-18.59,10.27-19.57,20-1.09,10.9,9.32,19.86,19.92,22.64s21.84,1.5,32.64,3.32c7.66,1.29,32.09,11.25,18.37,21-2.49,1.77-5.46,3.22-6.82,5.95-1.69,3.41-.1,7.74,2.74,10.28,8.48,7.59,24,9.16,34.72,9.66a114.06,114.06,0,0,0,40.85-5.54c10.14-3.34,19.85-8.11,30.33-10.1,19.29-3.65,35.07,3.94,53.5,7,15.5,2.6,31.88,4.31,47.66,3,7.95-.67,16.32-2.26,22.22-7.62s8.27-13.33,13-19.61c4.94-6.55,14.16-13.72,22.21-15.76,9.34-2.38,18.84-3.44,28.12-6.61,9.88-3.38,21-9.82,21.25-20.26.17-6.1-3.75-11.75-8.78-15.2s-11.06-5.09-17-6.49A306.3,306.3,0,0,0,322,137.72Z"/><path class="cls-12" d="M235.6,203.67a100.3,100.3,0,0,0-16.72,3.38c.31-.7,3.4-1.35.94-2.1a33.82,33.82,0,0,0-25.07-1.76,8.47,8.47,0,0,1-4.09.71c-1.37-.25-2.65-1.65-2.18-3,.57-1.58,3.25-2.43,2.61-4a2.17,2.17,0,0,0-1.29-1c-5.72-2.29-13,.11-17.91-3.59a2.23,2.23,0,0,1-.92-1.16c-.36-1.41,1.58-2.2,3-2.31,3.14-.25,6.3-.3,9.44-.66,6.81-.78,13.6-3,20.39-2.05a4.64,4.64,0,0,0,.83-2.86,3.31,3.31,0,0,0-3.17-2.42,14.63,14.63,0,0,0-4.22.7c-7.29,1.69-15.2-.92-22.3,1.46-1.63.55-3.17,1.34-4.83,1.74-2.47.57-5.06.24-7.54.74-3,.61-6.18,3.15-4.68,6.59a6.08,6.08,0,0,0,3.33,3,28.09,28.09,0,0,0,8.26,2.08,19.44,19.44,0,0,1,5.38.84c1,.4,4.13,1.07,5.27,1.84.77.52-.86,1.62-1.73,2-1.82.73-3.74,3-3.09,4.43.84,1.87,2.95,2.78,4.94,3.29a19.23,19.23,0,0,0,7.2.58,45.92,45.92,0,0,0,6.57-1.69,46.58,46.58,0,0,1,13.74-1.8,4.37,4.37,0,0,1,2.45.55,1.62,1.62,0,0,1,.53,2.2c-.24,0-3.19,1.28-3.42,1.32-2.18.43.65,2.32,2.82,2.75a14.9,14.9,0,0,0,5.32-.12c10.56-1.65,21.39-5.13,31.68-2.26,2.66.74,5.21,1.9,7.94,2.34s5.79,0,7.72-1.94l-2-2.72c5.05-3.43,12.25-.95,17.76-3.58,1.63-.77,3.19-2.61,2.34-4.19s-3.81-1.63-4.32-3.46c-.32-1.15.63-2.3,1.68-2.86a30.32,30.32,0,0,0,3.27-1.5,4.39,4.39,0,0,0-.06-6.87,7.68,7.68,0,0,0-3.07-1,52.68,52.68,0,0,0-20.1.31c-.14.79.94,1.14,1.73,1.19a36.86,36.86,0,0,1,10.33,2.2c.95.35,2.08,1.25,1.57,2.12l-9.28,2c.09,2.26,2.59,3.5,4.68,4.37s4.49,2.53,4.05,4.75l-7.51.13a5.13,5.13,0,0,0-2.46.46,12.55,12.55,0,0,0-1.8,1.7c-2.68,2.4-6.81.7-10.27-.27C244.94,203,240.21,203.15,235.6,203.67Z"/><path class="cls-13" d="M350.45,204.32c.58-1.35,2.62-2.14,2.27-3.57-.22-.94-1.37-1.28-2.32-1.44l-19.15-3.4c-1.42-.25-3.27-.29-3.87,1s.65,2.69,1.9,3.35c2.46,1.29,5.34,1.48,8,2.19s5.5,2.22,6.32,4.88a2.52,2.52,0,0,0-3.39,1.6,11.74,11.74,0,0,1-.28,1.66c-.32.8-1.16,1.24-1.83,1.8-1.93,1.63-2.47,4.55-4.53,6-2.56,1.82-6,.58-9.13,0-5.55-1.06-11.26.25-16.9,0a2.09,2.09,0,0,1-1.47-.48,2.91,2.91,0,0,1-.49-1.55c-.57-3.17-4.36-4.55-7.57-4.76s-6.77.07-9.29-1.93l6.07-2.44a1.42,1.42,0,0,0,.86-.62c.52-1.08-1.74-1.9-1.41-3a42.86,42.86,0,0,1,10.1-1.94c2.37-.16,4.9-.16,6.91-1.44s3-4.41,1.31-6c-2.58,2.41-6.37,2.93-9.9,3s-7.15-.31-10.5.81a7.08,7.08,0,0,0-3.7,2.53,3.86,3.86,0,0,0-.18,4.29c-2.84,1.06-6.06,3.33-5.41,6.29.52,2.34,3.25,3.45,5.64,3.65s4.95-.07,7.06,1.08,3.17,3.26,5,4.65c3.58,2.77,8.62,1.94,13.14,2.06,4.72.11,9.35,1.41,14.06,1.64,4.19.2,9-.79,11.13-4.38.56-.92.9-1.95,1.53-2.82,1.75-2.44,5.08-2.93,8-3.61S354.68,211,355,208a5.67,5.67,0,0,1-3.4-.65A2.6,2.6,0,0,1,350.45,204.32Z"/><path class="cls-14" d="M424.91,162a1.75,1.75,0,0,0-.91-1.11c-5.11-3.4-11.47-4.13-17.57-4.76l-13.33-1.39,10.57,4.36a17.23,17.23,0,0,0,6.24,1.7,14.62,14.62,0,0,1,3.31.09,2.35,2.35,0,0,1,1.94,2.32c-.15,1.06-1.25,1.66-2.17,2.2s-1.89,1.5-1.56,2.52c-2.65-.37-5.54-.7-7.85.66-1.16.68-2.07,1.73-3.22,2.41-1.83,1.07-4.06,1.09-6.18,1.09h-14.3a23.4,23.4,0,0,1-4-.23c-1.56-.27-3-.85-4.59-1.19a15.64,15.64,0,0,0-7,0c-1.53.36-3.63.68-4.21-.78-.16-.4-.14-.86-.32-1.25-.43-1-1.73-1.07-2.78-1a108,108,0,0,0-12.3,1.3,6.38,6.38,0,0,1-2.68.06,2.07,2.07,0,0,1-1.62-1.91c.05-1.1,1.28-2.12.78-3.11a1.91,1.91,0,0,0-1-.81,17.77,17.77,0,0,0-5.54-1.48,4.38,4.38,0,0,1-1.83-.42,1.3,1.3,0,0,1-.65-1.59,1.57,1.57,0,0,1,.59-.61c2.41-1.7,5.47-2.11,8.39-2.46l5.87-.71c-6.77-.45-13.9-.83-20,2.14a3.31,3.31,0,0,0-1.63,1.35,2.45,2.45,0,0,0,1,2.88,7.32,7.32,0,0,0,3.11,1l4.52.72c1.39.22,3.13.85,3.1,2.25a8.77,8.77,0,0,1-.58,1.8,3,3,0,0,0,1.9,3.22,8.82,8.82,0,0,0,4,.47l10.27-.37a4.23,4.23,0,0,1,3,.65c.39.35.64.84,1,1.22a5.12,5.12,0,0,0,2.62,1.15,30.4,30.4,0,0,0,7.32,1.07c2.83-.06,5.64-.9,8.45-.63,3.37.32,6.53,2.22,9.9,2,2.17-.12,4.2-1.1,6.34-1.41,3.19-.45,6.57.58,9.58-.56,1.34-.51,2.49-1.42,3.78-2,3.13-1.54,6.81-1.33,10.28-.94a5.83,5.83,0,0,0,2.79-.14,1.91,1.91,0,0,0,1.22-2.24c-.27-.7-1.1-1.16-1.12-1.91s.69-1.19,1.31-1.53l4.6-2.53C424.27,163.24,425,162.72,424.91,162Z"/><path class="cls-15" d="M394.68,157.66l8.49.35c2.23.09,4.57.22,6.44,1.41,1.2.76,2.19,2.24,1.67,3.56-.65,1.64-2.87,1.74-4.63,1.75a17.89,17.89,0,0,0-7.44,1.52,32.48,32.48,0,0,1-3,1.45c-2.25.77-4.71.41-7.07.09-6.45-.88-13-1.39-19.45-1.81-5.11-.32-10.22-.59-15.34-.59a34.77,34.77,0,0,1-6.84-.38c-.67-.13-1.52-.67-1.21-1.28a10.2,10.2,0,0,1-8.1-3.69,35.1,35.1,0,0,1,14.48-1.26L349,160.59a1.23,1.23,0,0,0-.66.56c-.29.72.79,1.16,1.57,1.19l36.8,1a31.41,31.41,0,0,0,6-.23,15.47,15.47,0,0,0,7.93-4,2.16,2.16,0,0,0-2.59-1.19Z"/><path class="cls-16" d="M401.29,161.22s-5.34-13.05-10.92-16.85-22.31-8.43-23.85-10.09c0,0-10.09,9.61-12.23,12s-8,11.51-9.61,14.95c0,0,4.39,3.56,16.61,2.26S374.94,166,388.47,165,401.29,161.22,401.29,161.22Z"/><path class="cls-17" d="M401.29,161.22s-5.34-13.05-10.92-16.85-22.31-8.43-23.85-10.09c0,0-8.62,8.21-11.6,11.32a.17.17,0,0,0,0,.07c.87,3.94,2.6,4.34,5.84,3,3.45-1.45,6.86-3.33,10.7-3.17,3.42.14,5.46,3,6.18,6,.66,2.77-1.13,6.21.81,8.72a23.5,23.5,0,0,0,5.33,5c1.39,0,2.93,0,4.68-.15C402,164.07,401.29,161.22,401.29,161.22Z"/><path class="cls-17" d="M372.66,158.78c-.19-3.44.65-9.74-4.78-7.7-1.95.73-3.83,1.66-5.77,2.4-6.26,2.38-9,.26-10.59-3.49a114,114,0,0,0-6.84,11.23s4.39,3.56,16.61,2.26a40.41,40.41,0,0,1,13.79.76A9.55,9.55,0,0,1,372.66,158.78Z"/><path class="cls-18" d="M401.29,161.22s-5.34-13.05-10.92-16.85c-5-3.41-19-7.48-22.89-9.48,1.33,3.69,2.21,6.49,5.46,9.47a98.15,98.15,0,0,1,7.18,7.1c3.33,3.73,7.38,8.43,9,13.5C401.94,164,401.29,161.22,401.29,161.22Z"/><path class="cls-17" d="M371,138.54c2.25,1.41,4.8,4.26,7.76,3.63a9,9,0,0,1,4.37,0c1.2.37,5.92,2.88,9.58,4.32a13.29,13.29,0,0,0-2.37-2.15c-5-3.41-19-7.48-22.89-9.48.36,1,.68,1.92,1,2.8A5.73,5.73,0,0,1,371,138.54Z"/><path class="cls-17" d="M397.63,153.7c-2.65,3.23-6.1,4.91-10,1a17.17,17.17,0,0,1-1.9-2.74,6.53,6.53,0,0,0-4.94-.91l-1.18-.16c.18.19.36.38.53.58,3.33,3.73,7.38,8.43,9,13.5,12.8-1,12.15-3.74,12.15-3.74A81.13,81.13,0,0,0,397.63,153.7Z"/><path class="cls-19" d="M132.77,166a1.89,1.89,0,0,1,1.18.78,1.32,1.32,0,0,1,.06.92c-.36,1.4-2,2-3.47,2.09s-2.94-.3-4.34.08a23.08,23.08,0,0,0-2.25.92c-4,1.6-8.51-.44-12.84-.47-2.4,0-5,.55-7.07-.64-1.38-.8-2.46-2.33-4.05-2.36-.51,0-1,.15-1.52.13a1.16,1.16,0,0,1-1.15-.82,11,11,0,0,1,4,0,53.45,53.45,0,0,0,11.24-.08c.45,0,1-.2,1.07-.64s-.58-.84-1.11-.93c-3.36-.55-6.8-.16-10.2-.36-4.08-.24-8.4-1.31-12.13.38a1.73,1.73,0,0,0-.88.71c-.34.69.25,1.47.82,2a18,18,0,0,0,3.94,2.64,35.89,35.89,0,0,0,6.33,2.19c7.75,2.14,15.84,4.3,23.73,2.76,1.35-.26,2.68-.63,4-.77,2.77-.27,5.92.31,8-1.49.54-.45,1-1,1.46-1.52,1.55-1.47,3.91-2.08,5-3.93a1.93,1.93,0,0,0,.17-1.88,2.53,2.53,0,0,0-1.85-1,83.46,83.46,0,0,0-12.31-1.51,4.46,4.46,0,0,0-2.82.52Z"/><path class="cls-20" d="M155.07,165.65a3.63,3.63,0,0,0-2.11-.81,53.88,53.88,0,0,0-10.7-.05l-5.32.33a10.51,10.51,0,0,1-1.32,3.34c2.21.21,4.46.24,6.68.31.91,0,2.06.24,2.27,1.13a1.73,1.73,0,0,1-.2,1.13,6.9,6.9,0,0,1-4,3.1c-5.71,2.18-12.21,1.27-18,3.31-1.83.65-3.55,1.59-5.41,2.12a7.23,7.23,0,0,1-5.65-.36c-1.59-.94-2.5-2.69-3.82-4-2.46-2.46-6.17-3.19-9.65-3.21s-7,.56-10.42.22a1.3,1.3,0,0,1-.39-.09c-.3-.16-.38-.53-.49-.85a3.18,3.18,0,0,0-3.42-2.06c-.19-.51.54-.83,1.08-.87l25-2.23c-.22-1.18-1.74-1.52-2.94-1.57a110.77,110.77,0,0,0-18.83.77l2-.33-7.94.93c-2,.23-4.31.79-4.85,2.68s1.11,3.55,2.73,4.54a18.17,18.17,0,0,0,9.68,2.68c2.55,0,5.06-.59,7.6-.71s5.26.24,7.24,1.84a37,37,0,0,1,2.74,2.85,10.87,10.87,0,0,0,9.83,2.8c1.9-.44,3.65-1.38,5.53-1.93,5.23-1.52,10.85.19,16.26-.36a10.91,10.91,0,0,0,3.34-.82,14.56,14.56,0,0,0,2.91-1.9L153,171a7.67,7.67,0,0,0,2.27-2.34A2.64,2.64,0,0,0,155.07,165.65Z"/><path class="cls-21" d="M114.06,170.21c7.39,1.42,11-2,16.8-4.08l-18-20L98.12,159.36l8.9,9.89A65.8,65.8,0,0,1,114.06,170.21Z"/><path class="cls-22" d="M122.8,169.57c2.64-.93,5-2.35,8.06-3.44l-18-20-5.5,5.33C112.37,157.57,122.8,169.57,122.8,169.57Z"/><path class="cls-22" d="M130.2,166.37l.66-.24-18-20-.68.61C113.41,148.12,130.2,166.37,130.2,166.37Z"/><path class="cls-23" d="M110.79,147.72l-1.6,1.68c5.33,6.53,16.57,18.94,16.57,18.94l2.47-1.14C125.49,165.12,114.22,151.72,110.79,147.72Z"/><path class="cls-24" d="M104.08,154l-3.7,3.33c1.75,2,8.8,10.33,10.67,12.4,1,.14,2,.29,3,.49a16.76,16.76,0,0,0,5,.25Z"/><path class="cls-25" d="M108.14,169.37c1.92.19,3.87.44,5.92.84,7.39,1.42,11-2,16.8-4.08l-1.35-1.5a26.75,26.75,0,0,1-8.81.92,14.36,14.36,0,0,1-2.07-.31c-5.77-.75-10.86-5-15.17-9.4l-4.14,3.72Z"/><path class="cls-26" d="M112.85,146.11c1,1.12-1.46,5-5.53,8.66s-8.19,5.71-9.2,4.59,1.46-5,5.53-8.67S111.84,145,112.85,146.11Z"/><path class="cls-27" d="M112,146.91c.74.82-1.56,4.09-5.14,7.31s-7.07,5.16-7.81,4.33,1.56-4.09,5.13-7.31S111.22,146.09,112,146.91Z"/><path class="cls-22" d="M109,149.29c.34.39-1,2.17-3,4s-3.94,3-4.29,2.59,1-2.16,3-4S108.66,148.91,109,149.29Z"/><path class="cls-28" d="M240.83,199.17c.12,0,.22.05.33.06,4-4.06,9.82-10.48,10.59-14.58l-16.55,1.92,13.37-24.06S235.8,151.89,214.74,160c-16.13,6.21-23.07,24.27-25.44,32.39C206.71,191.74,223.51,197.75,240.83,199.17Z"/><path class="cls-29" d="M219.52,187.54c7.71.09,15.27-3.84,17.08-3.49l7-12.55c-10.24-6.48-22.5-5.26-26.54-3.86-6.39,2.21-11.74,6.68-7.54,13.84C212.16,186,214.07,187.47,219.52,187.54Z"/><path class="cls-30" d="M239.4,192.34a25.75,25.75,0,0,0-14.53.73c-2.46.82-5.19,1.83-7.83,1.81-4.72,0-9-1.57-11.89-5.54-5.49-7.62-6.4-15.57-2.1-21.59-8,8-12.06,18.84-13.75,24.63,17.41-.64,34.22,5.37,51.53,6.79.12,0,.22.05.33.06a86.45,86.45,0,0,0,6.43-7.17A17.24,17.24,0,0,1,239.4,192.34Z"/><path class="cls-30" d="M230.29,197.82c3.5.57,7,1.06,10.54,1.35.12,0,.22.05.33.06a78.7,78.7,0,0,0,7.47-8.55C242.94,194.15,236.54,197,230.29,197.82Z"/><path class="cls-31" d="M214.23,162c18.91-7.28,31.11.53,33.41,2.2l.93-1.69S235.8,151.89,214.74,160c-16.13,6.21-23.07,24.27-25.44,32.39h.11C192.26,183.6,199.31,167.74,214.23,162Z"/><circle class="cls-32" cx="220.02" cy="177.69" r="5.5"/><path class="cls-26" d="M223.77,177.69a3.75,3.75,0,1,1-3.75-3.75A3.75,3.75,0,0,1,223.77,177.69Z"/><path class="cls-33" d="M221.55,176.55A1.54,1.54,0,1,1,220,175,1.53,1.53,0,0,1,221.55,176.55Z"/><path class="cls-34" d="M232.8,188.76a33.24,33.24,0,0,1,6.65-4.57c5.56-3,13.5-5.82,15.9-2.48,4,5.52-12.76,5.41-15,6.18C237.83,188.76,232.8,188.76,232.8,188.76Z"/><path class="cls-35" d="M232.59,188.25s.5-9.7,10.72-22.38c9.72-12.06,12.64-1.26,9.76,4.14C250.63,174.59,231.91,191.94,232.59,188.25Z"/><path class="cls-36" d="M259.33,193.86c1.39.48,7.61,3.39,2.06,4.26-2.89,1.11-4.35-.11-6.71.52a67,67,0,0,1-10.31,2.18,42.59,42.59,0,0,1-14.78-1.23,19.06,19.06,0,0,0-4.16-.77c-2.2,0-4.3.82-6.47,1.2-6,1-12.16-1.71-18.28-1.29-2.81.2-6.41.7-7.72-1.66a6.81,6.81,0,0,0-1-1.83,3.31,3.31,0,0,0-1.6-.66l-12.15-2.68c-.52-1,.88-1.85,2-2.16l4-1.11c1.88-.52,3.9-1,5.77-.46a20.48,20.48,0,0,1,3.12,1.61,11.83,11.83,0,0,0,6.59,1.59c3.63-.45,7.05.7,10.54.56,5.51-.23,11.21-2.72,16.31-.72a32.46,32.46,0,0,1,3.82,2,29.33,29.33,0,0,0,11.22,3.55,2.83,2.83,0,0,0,2.09-.21s1.29-1.43,1.89-2.11c1.51-1.71,4.6-2.34,6.94-2.24A23.55,23.55,0,0,1,259.33,193.86Z"/><path class="cls-37" d="M350,165.75l-6.45-5S333.07,176.78,331,176.79s-8.79-2.34-17.85,9.41c-1.44,1.86-9.62,13.42-16.47,23.14a11.71,11.71,0,0,0,12.72,3.13,8.71,8.71,0,0,1,6.5.45c3.63,1.93,5.49,1.19,9.54.52a13.57,13.57,0,0,1,6.57.92c4.76-6.66,9.05-12.88,9.68-14.28,4.06-9,.32-13.89.18-15.91C341.74,181.48,350,165.75,350,165.75Z"/><path class="cls-38" d="M350,165.75l-2.12-2.11c-3,6.33-5.59,10.72-10,18.21,0,0-9.2,15.38-20.43,31.74,2.71,1,4.58.42,8-.15a13.71,13.71,0,0,1,6.63.94c4.19-5.76,7.86-10.92,8.44-12,5.88-10.52,1.51-16.06,1.36-18.25C341.74,181.48,350,165.75,350,165.75Z"/><path class="cls-39" d="M339.78,166.25c2.1-3,3.73-5.54,3.73-5.54l6.45,5s-1.22,2.33-2.7,5.35c-.13.24-2.76-.36-4.72-1.68A7.55,7.55,0,0,1,339.78,166.25Z"/><path class="cls-37" d="M357.76,162.45,353,169.68s-6.7-.34-14.56-9l4.58-7.5Z"/><path class="cls-40" d="M346.44,155.36l3.91,2.44a36.49,36.49,0,0,0-5.66,8.39,32,32,0,0,1-3.63-2.88A35.54,35.54,0,0,1,346.44,155.36Z"/><path class="cls-41" d="M343,153.2s3.37-.18,8.69,2.56,6.31,5.07,6.07,6.69c0,0-3.17.69-8.54-2.39S343,153.2,343,153.2Z"/><path class="cls-39" d="M325.48,213.44a9.48,9.48,0,0,1,3.1,0c4.42-6.31,8.31-11.87,8.51-12.31,4.35-9.54,1.05-14.85,1.05-14.85C335.42,192,327.21,204,320,214.13A28,28,0,0,0,325.48,213.44Z"/><path class="cls-40" d="M307.5,213c7.58-11.09,18.92-27.48,22.64-31.81-4.5.49-8.38,3.39-11.5,6.67-1.82,1.92-10.86,14.08-18.46,24.1A11.22,11.22,0,0,0,307.5,213Z"/><path class="cls-42" d="M315.94,212.92c3.63,1.93,5.49,1.19,9.54.52a13.71,13.71,0,0,1,6.63.94c2.2-3,4.26-5.89,5.8-8.08a118.66,118.66,0,0,1-22.39,6.46C315.66,212.82,315.81,212.85,315.94,212.92Z"/><path class="cls-43" d="M162.92,227.07c-2.27,0-4.34-1.2-6.41-2.16a32.34,32.34,0,0,0-10.7-2.9,1.36,1.36,0,0,1,.13-1.85c.45-.52,1.09-.84,1.57-1.33a7.39,7.39,0,0,0,1.37-2.93c2.33-6.79,10.68-10.83,17.46-8.44,2.35.84,4.63,2.57,5.1,5,.15.81.15,1.75.79,2.26a3,3,0,0,0,2.35.22,9.49,9.49,0,0,1,9.82,5.89c.61,1.64.56,3.84-.94,4.73a4.2,4.2,0,0,1-2.3.43c-4.21-.06-8.46-1.26-12.56-.3C166.7,226.16,164.88,227.06,162.92,227.07Z"/><path class="cls-44" d="M165.73,225.16a55.43,55.43,0,0,1-4-6.72c-.91-1.61-2.53-3.39-2.93-5.24a7,7,0,0,1,.39-5.09,9.65,9.65,0,0,1,1-1.17c-5,.76-9.62,4.16-11.26,9a7.39,7.39,0,0,1-1.37,2.93c-.48.5-1.12.81-1.57,1.33a1.36,1.36,0,0,0-.13,1.85,32.34,32.34,0,0,1,10.7,2.9c2.07,1,4.14,2.17,6.41,2.16a12.4,12.4,0,0,0,3.77-.8A13.21,13.21,0,0,1,165.73,225.16Z"/><path class="cls-45" d="M164.66,212.36c2.39,3.22,6.1,7.4,7.82,4.79a8.27,8.27,0,0,1,2-2.17,2.84,2.84,0,0,1-2.23-.24c-.64-.51-.64-1.45-.79-2.26a5.6,5.6,0,0,0-1.5-2.76l-.13-.1C169.24,209,167,210.7,164.66,212.36Z"/><path class="cls-45" d="M180.61,222.66a4.2,4.2,0,0,1-1.12-.35,1.55,1.55,0,0,1-.34.55c-2,2.38-5.39,1.4-7.63.21-.65-.5-1.29-1-1.91-1.53a3.68,3.68,0,0,1-2.12.66,6.9,6.9,0,0,1-6.49-3.94l-.41.09a5.39,5.39,0,0,1-2.62.77,7.29,7.29,0,0,1-3.41-.77c-2.45-1.43-3.29-4.71-2.57-7.3h0a12.61,12.61,0,0,0-3.1,4.85,7.39,7.39,0,0,1-1.37,2.93c-.48.5-1.12.81-1.57,1.33a1.36,1.36,0,0,0-.13,1.85,32.34,32.34,0,0,1,10.7,2.9c2.07,1,4.14,2.17,6.41,2.16,2,0,3.78-.91,5.68-1.36,4.1-1,8.35.24,12.56.3a4.2,4.2,0,0,0,2.3-.43,3.38,3.38,0,0,0,1.23-3.58A6.45,6.45,0,0,1,180.61,222.66Z"/><path class="cls-46" d="M140.68,219.74a1.56,1.56,0,0,1,1.27-1.4,7.65,7.65,0,0,1,2-.05,7.84,7.84,0,0,0,4.59-1.37,56.83,56.83,0,0,0-9.18,1.29,9.17,9.17,0,0,0-3.84,1.57,3,3,0,0,0-1.2,2.06,2.89,2.89,0,0,0,1.77,2.58,8.6,8.6,0,0,0,3.23.62l7.21.42a5.5,5.5,0,0,1,1.76.29,6.43,6.43,0,0,1,1.8,1.28,23.67,23.67,0,0,0,10.11,5.14,13.77,13.77,0,0,0,5.85.25,29.57,29.57,0,0,0,4.54-1.62,30.84,30.84,0,0,1,12.82-2.09c3.3.17,6.58.86,9.89.83,2.63,0,5.73-.93,6.5-3.45.51-1.66,3.17-1.94,2-3.24-.58-.67-7.94-1.24-8.75-1.62-3.63-1.68-4.57-.28-8.54-.79l4.72,2.51a1.88,1.88,0,0,1,.81.66c.48.88-.69,1.83-1.69,1.83s-2-.45-3-.17a6.54,6.54,0,0,0-1,.46c-3.39,1.64-7.48-.41-11.16.4-1.92.42-3.59,1.59-5.39,2.38a14.5,14.5,0,0,1-6.6,1.17,5.69,5.69,0,0,1-2.58-.67,9.62,9.62,0,0,1-2.27-2.44,12.36,12.36,0,0,0-8.79-4.54c-2.12-.13-4.47.23-6.16-1.05A1.69,1.69,0,0,1,140.68,219.74Z"/><path class="cls-47" d="M294.69,152.61c2.73.53,5.73,1.22,7.37,3.46,1.83,2.51,1.31,6.05,2.62,8.86.84,1.79,2.37,3.18,3.34,4.9s1.24,4.18-.27,5.46-3.65.69-5.48.17a63.13,63.13,0,0,0-26.3-1.68,4.88,4.88,0,0,1-3-.15,5.56,5.56,0,0,1-1.44-1.3c-1.85-2.07-4.19-3.72-5.78-6s-2.27-5.59-.54-7.77c1.26-1.59,3.42-2.14,5.44-2.27s4.09.05,6.05-.49c2.46-.68,4.49-2.44,6.9-3.32C287.14,151.19,291,151.89,294.69,152.61Z"/><path class="cls-48" d="M298.11,171.44c-.54-2.72-3.19-1.91-5.32-1.6a3.11,3.11,0,0,1-3.85-2.93c-.19-3.06-3-9.52.92-11.59,1.14-.6,6.46-.87,8.85-1.65a23.34,23.34,0,0,0-4-1.06c-3.66-.72-7.55-1.42-11.05-.13-2.41.88-4.44,2.64-6.9,3.32-2,.54-4,.36-6.05.49s-4.18.68-5.44,2.27c-1.73,2.18-1.06,5.49.54,7.77s3.93,3.93,5.78,6a5.56,5.56,0,0,0,1.44,1.3,4.88,4.88,0,0,0,3,.15,63.22,63.22,0,0,1,23.38.94A9.25,9.25,0,0,1,298.11,171.44Z"/><path class="cls-49" d="M294.83,163.45c2.58-.27,5.36-.17,6.91,1.69.22.27.41.53.59.79-.24-2.2-.42-4.42-.52-6.65a11.53,11.53,0,0,1-2,.62,52.12,52.12,0,0,1-5.85.42C294.44,160.28,294.69,161.83,294.83,163.45Z"/><path class="cls-49" d="M293.56,164.79a12.5,12.5,0,0,1,.66-2.75,3.31,3.31,0,0,1-2.53-.48c-2-1.53-2.19-3-2.87-5.3.11.38-1.47.21-2.61.14a6,6,0,0,1-2.57-1A5,5,0,0,1,283,155l-.15-.05a13.47,13.47,0,0,1,1,2.46c.49,1.8-.54,2.77-1.48,3.84a5.86,5.86,0,0,1,1.64.52c1.31.76,1.83,1.74,3.54,1.94,2.39.28,3.35,1.47,5.4,2.45.28.13.6.25.92.37A4.83,4.83,0,0,1,293.56,164.79Z"/><path class="cls-49" d="M307.82,171.68a3.13,3.13,0,0,1-3.44,1.39c-2.59-.48-4.31-2.8-6.84-.94a4.47,4.47,0,0,1-4.33.35,6.39,6.39,0,0,1-2.77-3.93c-.81-3-3.41-1.65-5.57-.8-2.31.9-5.72.92-6.54-2.09-.68-2.46.67-.67-2.17-1.16a4.4,4.4,0,0,1-3.14-1.71,3,3,0,0,1-.78-3,7.17,7.17,0,0,1,2.63-3.71c-1.38.12-2.79.08-4.18.17-2,.13-4.18.68-5.44,2.27-1.73,2.18-1.06,5.49.54,7.77s3.93,3.93,5.78,6a5.56,5.56,0,0,0,1.44,1.3,4.88,4.88,0,0,0,3,.15,63.13,63.13,0,0,1,26.3,1.68c1.83.52,4,1.06,5.48-.17s1.29-3.15.6-4.79A7.16,7.16,0,0,1,307.82,171.68Z"/><path class="cls-50" d="M318.59,170.11a1.4,1.4,0,0,0-.57-1.72,4,4,0,0,0-1.9-.53,5.21,5.21,0,0,0-2.26.07c-.52.18-6.27.28-6.73.56l.73,1.07c.29.39,3.4.33,4.41.68s.09,1-1.52,1.32a6.76,6.76,0,0,0-2.33,1c-.65.48-1.44.88-1.56,1.65-.06.33,0,.7-.18,1a1.13,1.13,0,0,1-.9.31,24.32,24.32,0,0,1-5.53-.25c-2-.39-3.79-1.27-5.74-1.66-1.43-.3-5.55.93-7,.9-2.2,0-1.77-1.34-4-1.38a6.61,6.61,0,0,0-2.94.39c-.63.3-1.15.79-1.77,1.09a6.31,6.31,0,0,1-2.59.43,2,2,0,0,1-1.37-.3.7.7,0,0,1-.13-.16,2.74,2.74,0,0,0-1.73-1.38l-8.42-1.63c.93-.36,4.43-.48,5.36-.84l-1.19-1.12c-2.76.14-5.45.59-8.21.73a5.71,5.71,0,0,0-3.48.94.86.86,0,0,0-.37.63c0,.28.27.5.51.65,3.72,2.46,8.63,1.41,13,2.22a2.34,2.34,0,0,1,1.8,1.63,2.15,2.15,0,0,0,.68,1,4.58,4.58,0,0,0,2.25.82,13.36,13.36,0,0,0,5.7-.16c1.07-.31,2.09-.8,3.17-1.1,4.25-1.17,8.74.79,13.15.62a38,38,0,0,1,4.88-.27c1.73.16,3.37.9,5.11,1,.67,0,1.5-.15,1.71-.8a4,4,0,0,0,0-.92,2.6,2.6,0,0,1,.72-1.38,12.48,12.48,0,0,1,7.4-4.2C317.5,170.82,318.27,170.7,318.59,170.11Z"/><path class="cls-51" d="M285,82.75,125.51,50.53c-8.82-5.5-10-21.31-7.38-31.43C120,11.73,127.83,1,136,0L294.39,30.69Z"/><path class="cls-51" d="M285,82.75,125.51,50.53c-8.82-5.5-10-21.31-7.38-31.43C120,11.73,127.83,1,136,0L294.39,30.69Z"/><path class="cls-52" d="M259.64,24l-25.3-4.91c-6.69,3.91-12.32,12.52-14,18.86-2.66,10.36-1.72,26.17,6.34,33.07l22.84,4.62c-7.07-7.34-7.83-22.17-5.29-32C246,36.77,252.34,27.4,259.64,24Z"/><path class="cls-26" d="M232.42,72.13c-7.06-8-7.76-23.37-5.11-33.67,1.52-6,6.37-13.73,12.37-18.37l-1.28-.25c-6.13,4.61-11.11,12.57-12.66,18.62-2.61,10.15-2,25.18,4.81,33.3Z"/><path class="cls-26" d="M244.24,74.46c-7.07-8-7.76-23.37-5.12-33.68,1.53-6,6.38-13.72,12.37-18.36l-1.28-.25c-6.13,4.61-11.11,12.56-12.66,18.61-2.6,10.15-2,25.19,4.81,33.3Z"/><path class="cls-52" d="M161.71,5l-11-2.14c-7.21,3.52-13.44,12.79-15.16,19.51-2.43,9.48-1.84,23.5,4.45,31.11l9.09,1.83c-4.7-8.41-5-21.08-2.66-30C148.19,18.41,154.4,9,161.71,5Z"/><path class="cls-53" d="M283.45,59.49c-29.6-7.59-157.47-33.6-166-37.07-1.19,7.45-.52,16.72,3.2,23l0,0L280.17,77.65Z"/><path class="cls-54" d="M307.42,60.59c-2.73,14.34-13,24.2-22.9,22s-15.76-15.56-13-29.9,13-24.2,22.91-22S310.15,46.26,307.42,60.59Z"/><path class="cls-55" d="M289,64.56a24.79,24.79,0,0,1-18.05-7.12c-.78,12.44,4.8,23.24,13.62,25.17,9.92,2.18,20.17-7.68,22.9-22A38.44,38.44,0,0,0,308,56.4,24.68,24.68,0,0,1,289,64.56Z"/><path class="cls-26" d="M303.76,59.79C301.59,71.21,293.63,79.1,286,77.43s-12.08-12.29-9.91-23.71,10.13-19.31,17.77-17.64S305.93,48.37,303.76,59.79Z"/><path class="cls-56" d="M314,67.92a73.1,73.1,0,0,0-10.23-8.49c-7.8-4.11-21.61-3.62-28-3.11A26.64,26.64,0,0,0,277.3,69c.07.19.15.35.23.52a18.21,18.21,0,0,0,1.08,2.06c.25.4.5.77.74,1.1a14.91,14.91,0,0,0,1.49,1.82,1.85,1.85,0,0,0,.14.14l.22.22c2.17,2.19,1.44,5.2,1.73,11.82,1.11,25-10,54.33-10,54.33h62.79C337.54,110.55,325.4,82.49,314,67.92Z"/><path class="cls-57" d="M314,67.92a73.1,73.1,0,0,0-10.23-8.49c-7.8-4.11-21.61-3.62-28-3.11A26.64,26.64,0,0,0,277.3,69c.07.19.15.35.23.52a18.21,18.21,0,0,0,1.08,2.06c.25.4.5.77.74,1.1a14.91,14.91,0,0,0,1.49,1.82,1.85,1.85,0,0,0,.14.14l.22.22c2.17,2.19,1.44,5.2,1.73,11.82,1.11,25-10,54.33-10,54.33h62.79C337.54,110.55,325.4,82.49,314,67.92Z"/><path class="cls-58" d="M333.37,127.64a1.15,1.15,0,0,0-.51.61,24.73,24.73,0,0,0-1.05,2.35c-.62-.83-1.54-1.76-2.47-1.36s-1,1.52-1.06,2.48-.36,2.12-1.24,2.31c-.7.15-1.33-.44-1.83-1l-1.68-1.85c-.2-.21-.43-.45-.71-.43a.82.82,0,0,0-.55.33c-1.11,1.28-1.18,3.81-2.79,4.07-1.25.21-2.35-1.33-3.59-1.06-.59.12-1,.63-1.58.91a2.54,2.54,0,0,1-3.5-2L308,134.86a.87.87,0,0,1-.52.2c-.3,0-.48-.37-.59-.67-.49-1.3-.85-3-2.12-3.33-1.09-.29-2.07.68-2.9,1.5s-2.05,1.59-3,.93c-.32-.22-.54-.57-.85-.79a2.05,2.05,0,0,0-2.29.17c-.69.44-1.26,1.09-1.95,1.54a1.2,1.2,0,0,1-.91.25c-.58-.15-.76-.93-1.22-1.33-.64-.56-1.6-.23-2.31.21a3.2,3.2,0,0,1-2.3.8c-.63-.15-1.08-.73-1.61-1.14a3.51,3.51,0,0,0-4.5.25,1.22,1.22,0,0,1-.57.39c-.41.07-.72-.38-.9-.79-.39-.91-1.15-4-2.57-3.12-1,.59-1.38,3.64-1.71,4.68-.14.46-1.73,6.43-2.17,6.43h62.79a104.41,104.41,0,0,0,0-12c-.06,0-.11.07-.18.07C334.65,129.07,334.23,127.28,333.37,127.64Z"/><path class="cls-58" d="M288.42,141c.16-1.56.31-3.12.47-4.68a47.12,47.12,0,0,1,1.56-9.33c.87-2.79,2.27-5.73,1.41-8.53-.42-1.36-1.34-2.5-1.71-3.88-1-3.65,2.17-7,3.16-10.62,1.51-5.59-2.19-11.33-2-17.15.06-2.21.67-4.37.75-6.57.18-5.37-3.2-10.65-7.93-12.38a17,17,0,0,1,4.48,14.7c-.46,2.61-1.53,5.28-.83,7.83a20.45,20.45,0,0,0,1.55,3.32,13.85,13.85,0,0,1,.8,9.79c-1.31,4.45-4.9,8.51-3.94,13,.4,1.87,1.55,3.47,2,5.34.91,4-1.58,7.79-3.32,11.43a3.42,3.42,0,0,0-.47,2,6.27,6.27,0,0,0,.86,1.69,4.87,4.87,0,0,1,0,3.94Z"/><path class="cls-58" d="M305.52,141h7.35a46.84,46.84,0,0,1-.19-8.7c.24-3.28.82-6.73-.35-9.78-.59-1.55-1.59-2.88-2.24-4.41-3.25-7.59,2.94-17.5-1.3-24.5-1.13-1.86-2.86-3.2-4.08-5-2.55-3.72-2.55-8.71-3.57-13.2s-4.2-9.32-8.48-8.77a17.28,17.28,0,0,1,7.43,14c0,2.61-.5,5.3.29,7.77,1.1,3.5,4.53,5.59,5.95,9,2.2,5.21-1.07,11.13-1.15,16.85-.1,7,4.66,13.93,2.67,20.63C307.25,136.91,306.06,139,305.52,141Z"/><path class="cls-58" d="M327.08,136.79c-.05-3.11-.83-7.15-3.71-7.5.92-6.39,1.64-13.64-2.16-18.66a17,17,0,0,1-1.77-2.43c-1.07-2.1-.57-4.68-.15-7a24.7,24.7,0,0,0,.32-9.22c-1.1-5.47-5.17-9.64-7.39-14.7-1.1-2.51-1.74-5.26-3-7.66a13.79,13.79,0,0,0-13-7.28c5.34.41,10.13,5.08,11,10.75.36,2.3.16,4.72.92,6.91.84,2.42,2.75,4.19,4.22,6.24a19.56,19.56,0,0,1,3.41,13.29c-.31,2.81-1.22,5.63-.7,8.39.8,4.26,4.77,7.18,5.64,11.42.7,3.36-.7,6.87-.25,10.27.35,2.58,1.71,4.86,2.46,7.34a15.48,15.48,0,0,1,.58,4.13h3.67C327.13,139.62,327.1,138.21,327.08,136.79Z"/><path class="cls-58" d="M301,123.86c-.47-1.52-1.31-2.9-1.69-4.44-1.52-6.06,4.19-12,3.27-18.17-.42-2.78-2.11-5.12-3.17-7.7-1.86-4.56-1.68-9.73-2.44-14.64s-3-10.2-7.4-11.75c4.07,3,5.56,8.62,6.05,13.88s.29,10.73,2.19,15.6a38.54,38.54,0,0,1,2.07,5.28c1.71,7.37-5.27,14.59-3.84,22,.29,1.47.89,2.86,1.09,4.35.43,3.16-1,6.23-2.38,9.08a18.9,18.9,0,0,0-1.4,3.67h4.93C299.32,135.27,302.72,129.43,301,123.86Z"/><path class="cls-58" d="M331.43,124.92c-.64-1.16-1.57-2.13-2.13-3.34-1.87-4.08,1.09-9.09-.14-13.43-.53-1.83-1.75-3.33-2.57-5-1.41-2.88-1.66-6.23-2.34-9.39a32.49,32.49,0,0,0-5.64-12.5,43.79,43.79,0,0,1,3.13,16.43,18,18,0,0,0,.42,5.34,22.46,22.46,0,0,0,2.25,4.25A19.74,19.74,0,0,1,326.64,120a9.82,9.82,0,0,0-.24,3.09,9.45,9.45,0,0,0,1.16,2.67c2.39,4.57,2.56,10,2.51,15.3h2.3C331.28,135.7,334,129.61,331.43,124.92Z"/><path class="cls-59" d="M346.44,131.63c-2.51-1.79-5.68-3.54-8.37-2.09-.9.48-1.33.72-2.21,1.22a20.29,20.29,0,0,0-2,4.11,3.81,3.81,0,0,1-.6,1.25c-.93,1.1-2.57.66-3.93.44s-3.25.46-3.07,1.93c-2.46.71-5-1-7.55-.89-2.72.14-5.05,2.36-7.77,2.51-4.37.24-8.38-4.89-12.48-3.23-1.53.62-2.65,2.09-4.17,2.72-3.73,1.54-7.63-2.49-11.6-2-2.75.32-5,2.75-7.77,2.93-.78.05-1.06.47-1.62-.12,0,0,3.16-10.2,3.23-10.39l-5.15.08c-1.43,0-3.21.28-3.68,1.73-.22.69-.07,1.5-.41,2.14-.54,1-1.9,1-3,1a7.58,7.58,0,0,0-6.71,3.3c-1.42,2.3-1,5.91,1.28,7.22,1.15.67,2.73.84,3.27,2.12a8.34,8.34,0,0,1,.28,2c.35,2.34,2.87,3.69,5.07,3.5s4.17-1.48,6.11-2.6,4.13-2.13,6.3-1.72c1.54.3,2.89,1.28,4.38,1.77,4.67,1.53,9.66-1.92,14.48-1.08,2,.35,3.89,1.43,5.92,1.41,3.09,0,5.74-2.62,8.82-2.82,2.29-.15,4.44,1,6.62,1.79s4.85,1,6.52-.7c.5-.51.87-1.15,1.36-1.67,1.43-1.53,3.66-1.74,5.67-1.53s4,.75,6,.43,4-1.88,4.11-4c.06-1.24-.5-2.6.13-3.64.94-1.56,3.52-.74,4.62-2.18S348,132.75,346.44,131.63Z"/><path class="cls-58" d="M273.32,140.38s.07-.21.17-.54l.07-.21c.05-.18.13-.42.2-.66l.08-.26,0-.07.23-.73.05-.17,0-.07c.41-1.32.9-2.91,1.34-4.31h0c0-.07.05-.14.07-.21l.05-.17.29-.93a12,12,0,0,1,.31-1.17c-.21.61-3.17.69-3.83,1-1.27.61-2.52,1.67-2.24,3.34a1.23,1.23,0,0,1,0,.57c-.12.38-.6.43-1,.47a3.28,3.28,0,0,0-2.57,1.7,1.46,1.46,0,0,0-.2.81c.07.81.79,1.23.82,2.12s-.55,1.84-.12,2.73a1.71,1.71,0,0,0,.7.71,2.4,2.4,0,0,0,1.7.26c1.05-.23,2.08-1.39,3.21-1.11.71.17.87.79,1.38,1.21,1.72,1.44,3.6-1.55,5.56-.72a6.63,6.63,0,0,1,.88.53,3.62,3.62,0,0,0,4-.25,3.11,3.11,0,0,1,.75-.51,1.53,1.53,0,0,1,1.09.09c.76.28,1.43.79,2.2,1,2.58.87,5-2.58,7.69-1.75.72.22,1.32.75,2,1,1.94.56,4.09-1.32,5.9-.4.79.4,1.38,1.28,2.24,1.38s1.78-.88,2.69-1.34c1.42-.73,3.08-.14,4.58.34a2,2,0,0,0,1.26.1,3.37,3.37,0,0,0,1-.78c1.95-1.77,3.9.88,6,1.27a2.25,2.25,0,0,0,1,0,4,4,0,0,0,1.39-.91,4.81,4.81,0,0,1,4-.87c1.57.39,2.48.88,3.53-.49s2.07-.47,3.65-.55a2,2,0,0,0,1.67-.76c.35-.57.28-1.39.74-1.86,1.08-1.11,3.77.52,3.44-2.15-.11-.92-1-1.32-1.11-2s.77-1.05.87-1.79c.16-1.14-1.31-1.94-2-2.5-.5-.4-.71-1-1.4-1a1.12,1.12,0,0,0-.23.06l-1.64.92a2,2,0,0,0-.36.51c-.18.33-.4.76-.63,1.24v0c-.31.65-.62,1.36-.83,1.89l-.16.45a3.81,3.81,0,0,1-.6,1.25c-.93,1.1-2.57.66-3.93.44s-3.25.46-3.07,1.93c-2.46.71-5-1-7.55-.89-2.72.14-5.05,2.36-7.77,2.51a6.17,6.17,0,0,1-1,0h0c-4-.45-7.72-4.73-11.52-3.19-1.53.62-2.65,2.09-4.17,2.72-3.73,1.54-7.63-2.49-11.6-2-2.75.32-5,2.75-7.77,2.93C274.16,140.55,273.88,141,273.32,140.38Z"/><path class="cls-26" d="M154.45,3.57C148.16,7.68,142.78,15,140.82,20.71c-3.34,9.79-3.86,24.62,2.08,33.34l1.71.34c-6.09-8.69-5.6-23.67-2.23-33.54,2-5.71,7.25-12.88,13.46-17Z"/><path class="cls-60" d="M339.91,119.13a1.83,1.83,0,1,1-1.82-2A1.89,1.89,0,0,1,339.91,119.13Z"/><path class="cls-61" d="M306.91,134.85a1.83,1.83,0,1,1-1.82-2A1.88,1.88,0,0,1,306.91,134.85Z"/><path class="cls-62" d="M268.25,121.08a1.83,1.83,0,1,1-1.83-2A1.9,1.9,0,0,1,268.25,121.08Z"/><path class="cls-63" d="M273.85,126a1.41,1.41,0,1,1-1.41-1.51A1.46,1.46,0,0,1,273.85,126Z"/><path class="cls-64" d="M262.18,130.51a1.41,1.41,0,1,1-1.41-1.51A1.46,1.46,0,0,1,262.18,130.51Z"/><path class="cls-65" d="M340.65,124.48a1.41,1.41,0,1,1-1.41-1.51A1.46,1.46,0,0,1,340.65,124.48Z"/><path class="cls-66" d="M327.54,130a1.68,1.68,0,1,1-1.68-1.8A1.74,1.74,0,0,1,327.54,130Z"/><path class="cls-67" d="M277.1,118.41a2.84,2.84,0,1,1-2.84-3A2.94,2.94,0,0,1,277.1,118.41Z"/><path class="cls-68" d="M348.31,124.75a2.84,2.84,0,1,1-2.84-3A3,3,0,0,1,348.31,124.75Z"/><ellipse class="cls-69" cx="297.59" cy="127.59" rx="2.83" ry="3.05"/><path class="cls-70" d="M317.33,126a2.84,2.84,0,1,1-2.83-3A2.94,2.94,0,0,1,317.33,126Z"/><path class="cls-71" d="M294.44,132.89a1.33,1.33,0,1,1-1.33-1.42A1.37,1.37,0,0,1,294.44,132.89Z"/><path class="cls-72" d="M284.62,126.85a1.86,1.86,0,1,1-1.85-2A1.92,1.92,0,0,1,284.62,126.85Z"/><path class="cls-51" d="M168.07,92.7,8.6,60.48C-.23,55-1.38,39.17,1.22,29.05c1.89-7.37,9.7-18.12,17.89-19.1L177.47,40.64Z"/><path class="cls-51" d="M168.07,92.7,8.6,60.48C-.23,55-1.38,39.17,1.22,29.05c1.89-7.37,9.7-18.12,17.89-19.1L177.47,40.64Z"/><path class="cls-52" d="M142.72,33.9,117.42,29c-6.68,3.91-12.32,12.51-13.94,18.85-2.66,10.36-1.73,26.17,6.33,33.08l22.84,4.61c-7.07-7.34-7.82-22.16-5.28-32C129.11,46.72,135.43,37.35,142.72,33.9Z"/><path class="cls-26" d="M115.51,82.08c-7.07-8-7.76-23.37-5.12-33.68,1.53-5.95,6.38-13.73,12.38-18.37l-1.28-.24c-6.14,4.61-11.11,12.56-12.66,18.61-2.61,10.15-2,25.19,4.81,33.3Z"/><path class="cls-26" d="M127.32,84.41c-7.06-8-7.76-23.37-5.11-33.68,1.52-5.95,6.37-13.73,12.37-18.37l-1.28-.25c-6.13,4.62-11.11,12.57-12.66,18.62-2.61,10.15-2,25.19,4.81,33.3Z"/><path class="cls-52" d="M44.8,14.92l-11-2.13C26.57,16.31,20.35,25.58,18.62,32.3c-2.43,9.47-1.83,23.49,4.45,31.1l9.1,1.84c-4.71-8.42-5-21.09-2.66-30C31.27,28.36,37.48,19,44.8,14.92Z"/><path class="cls-53" d="M166.54,69.44C136.94,61.84,9.06,35.83.55,32.36c-1.19,7.46-.52,16.72,3.2,23l0,0L163.26,87.6Z"/><path class="cls-54" d="M190.51,70.54c-2.73,14.34-13,24.2-22.91,22s-15.76-15.57-13-29.9,13-24.2,22.9-22S193.23,56.2,190.51,70.54Z"/><path class="cls-55" d="M172,74.5a24.79,24.79,0,0,1-18-7.11c-.78,12.44,4.79,23.23,13.61,25.17,9.93,2.18,20.18-7.68,22.91-22a38.26,38.26,0,0,0,.53-4.2C186.63,71.27,180.31,74.5,172,74.5Z"/><path class="cls-26" d="M186.84,69.74c-2.17,11.41-10.12,19.31-17.76,17.63S157,75.08,159.17,63.67,169.3,44.35,176.94,46,189,58.32,186.84,69.74Z"/><path class="cls-73" d="M197.12,77.87a72.41,72.41,0,0,0-10.23-8.49c-7.8-4.11-21.62-3.62-28-3.12A26.82,26.82,0,0,0,160.38,79l.24.52a18.05,18.05,0,0,0,1.08,2c.25.41.5.78.73,1.11a14.08,14.08,0,0,0,1.49,1.81l.14.14.23.22C166.46,87,165.72,90,166,96.65c1.11,25-10,54.33-10,54.33h62.8C220.62,120.5,208.48,92.43,197.12,77.87Z"/><path class="cls-74" d="M197.12,77.87a72.41,72.41,0,0,0-10.23-8.49c-7.8-4.11-21.62-3.62-28-3.12A26.82,26.82,0,0,0,160.38,79l.24.52a18.05,18.05,0,0,0,1.08,2c.25.41.5.78.73,1.11a14.08,14.08,0,0,0,1.49,1.81l.14.14.23.22C166.46,87,165.72,90,166,96.65c1.11,25-10,54.33-10,54.33h62.8C220.62,120.5,208.48,92.43,197.12,77.87Z"/><path class="cls-58" d="M216.46,137.58a1.31,1.31,0,0,0-.52.61,22.53,22.53,0,0,0-1,2.36c-.63-.84-1.55-1.77-2.47-1.36s-1,1.52-1.06,2.47-.37,2.13-1.24,2.32c-.7.15-1.33-.45-1.83-1l-1.68-1.85a1,1,0,0,0-.71-.44.84.84,0,0,0-.55.34c-1.11,1.28-1.18,3.81-2.79,4.07-1.25.2-2.35-1.33-3.59-1.07a6.85,6.85,0,0,0-1.58.92,2.54,2.54,0,0,1-3.5-2L191,144.81a.83.83,0,0,1-.51.19c-.3,0-.48-.36-.6-.66-.49-1.31-.84-3-2.11-3.34-1.09-.28-2.08.69-2.9,1.5s-2,1.59-3,.94c-.31-.22-.53-.57-.85-.8a2.09,2.09,0,0,0-2.29.17c-.69.45-1.25,1.1-2,1.55a1.14,1.14,0,0,1-.91.24c-.57-.14-.76-.92-1.21-1.32-.64-.56-1.6-.23-2.32.21a3.25,3.25,0,0,1-2.29.8c-.64-.16-1.09-.74-1.61-1.14a3.5,3.5,0,0,0-4.5.24,1.22,1.22,0,0,1-.57.4c-.41.07-.73-.38-.9-.79-.39-.91-1.15-4-2.57-3.13-1,.6-1.38,3.65-1.71,4.69-.15.46-1.74,6.42-2.18,6.42h62.8a104.41,104.41,0,0,0,0-12c-.07,0-.11.08-.19.08C217.74,139,217.31,137.23,216.46,137.58Z"/><path class="cls-58" d="M171.51,151c.15-1.56.31-3.12.46-4.67a47,47,0,0,1,1.56-9.33c.87-2.8,2.28-5.74,1.42-8.54-.42-1.36-1.35-2.49-1.71-3.87-1-3.65,2.16-7,3.15-10.62,1.52-5.6-2.19-11.33-2-17.16,0-2.2.67-4.36.74-6.57.19-5.36-3.19-10.64-7.92-12.38a17.06,17.06,0,0,1,4.48,14.71c-.47,2.61-1.54,5.28-.83,7.83a18.89,18.89,0,0,0,1.55,3.32,13.84,13.84,0,0,1,.79,9.79c-1.31,4.44-4.9,8.51-3.93,13.05.4,1.87,1.55,3.47,2,5.33.91,4-1.57,7.79-3.32,11.43a3.42,3.42,0,0,0-.46,2.06,6.54,6.54,0,0,0,.85,1.69,4.84,4.84,0,0,1,0,3.93Z"/><path class="cls-58" d="M188.6,151H196a45.87,45.87,0,0,1-.2-8.69c.25-3.29.82-6.73-.34-9.79-.59-1.55-1.59-2.88-2.25-4.4-3.24-7.59,3-17.5-1.29-24.5-1.13-1.86-2.86-3.21-4.09-5-2.55-3.72-2.54-8.7-3.56-13.19s-4.21-9.32-8.48-8.78a17.27,17.27,0,0,1,7.42,14c0,2.61-.49,5.3.29,7.77,1.11,3.49,4.53,5.59,5.95,9,2.21,5.21-1.06,11.13-1.14,16.85-.1,7,4.66,13.93,2.67,20.62C190.33,146.86,189.14,149,188.6,151Z"/><path class="cls-58" d="M210.17,146.74c0-3.11-.84-7.16-3.71-7.5.92-6.39,1.64-13.65-2.16-18.67a17.45,17.45,0,0,1-1.77-2.42c-1.07-2.11-.57-4.69-.15-7a24.7,24.7,0,0,0,.32-9.22c-1.1-5.48-5.18-9.64-7.39-14.71-1.1-2.51-1.75-5.25-3-7.65a13.82,13.82,0,0,0-13-7.29c5.33.42,10.12,5.09,11,10.75.37,2.3.16,4.73.92,6.91.85,2.42,2.76,4.2,4.22,6.25a19.44,19.44,0,0,1,3.41,13.29c-.3,2.81-1.22,5.62-.69,8.39.8,4.25,4.76,7.17,5.64,11.41.69,3.36-.7,6.87-.25,10.28.34,2.58,1.71,4.86,2.45,7.34a15.42,15.42,0,0,1,.59,4.12h3.66Z"/><path class="cls-58" d="M184.07,133.8c-.47-1.52-1.31-2.89-1.7-4.44-1.51-6.05,4.19-12,3.27-18.17-.41-2.78-2.11-5.11-3.16-7.69-1.87-4.56-1.69-9.74-2.44-14.65s-3-10.2-7.41-11.75c4.07,3,5.57,8.63,6.05,13.89s.29,10.72,2.19,15.6a39,39,0,0,1,2.08,5.27c1.7,7.37-5.27,14.59-3.84,22,.28,1.47.89,2.86,1.09,4.34.43,3.17-1,6.23-2.39,9.08a20.08,20.08,0,0,0-1.39,3.67h4.93C182.41,145.22,185.8,139.37,184.07,133.8Z"/><path class="cls-58" d="M214.51,134.86c-.64-1.16-1.57-2.12-2.12-3.34-1.87-4.07,1.09-9.08-.15-13.42-.52-1.84-1.74-3.33-2.57-5-1.41-2.88-1.65-6.22-2.34-9.39a32.48,32.48,0,0,0-5.64-12.5,43.82,43.82,0,0,1,3.14,16.44,17.9,17.9,0,0,0,.42,5.33,21.62,21.62,0,0,0,2.25,4.25,19.76,19.76,0,0,1,2.23,12.73,9.22,9.22,0,0,0-.24,3.09,9.43,9.43,0,0,0,1.15,2.67c2.4,4.57,2.57,10,2.52,15.29h2.29C214.37,145.65,217.11,139.56,214.51,134.86Z"/><path class="cls-75" d="M229.52,141.58c-2.5-1.79-5.68-3.55-8.37-2.1-.89.48-1.32.73-2.21,1.23a19.77,19.77,0,0,0-2,4.11,3.53,3.53,0,0,1-.6,1.25c-.92,1.09-2.56.65-3.92.44s-3.25.46-3.07,1.92c-2.47.72-5-1-7.56-.88-2.71.14-5.05,2.35-7.76,2.5-4.38.25-8.38-4.88-12.48-3.23-1.53.62-2.65,2.1-4.18,2.73-3.72,1.54-7.62-2.49-11.59-2-2.75.31-5,2.74-7.77,2.92-.78.05-1.07.48-1.62-.11,0,0,3.15-10.21,3.23-10.39l-5.16.07c-1.43,0-3.2.29-3.67,1.74-.23.69-.08,1.49-.41,2.13-.54,1-1.91,1-3,1a7.63,7.63,0,0,0-6.72,3.3c-1.41,2.3-1,5.92,1.28,7.23,1.15.67,2.73.84,3.27,2.11a8,8,0,0,1,.29,2c.35,2.34,2.86,3.7,5.07,3.5s4.16-1.47,6.11-2.59,4.13-2.14,6.3-1.72c1.54.3,2.89,1.28,4.38,1.77,4.67,1.53,9.65-1.93,14.47-1.09,2,.35,3.9,1.44,5.92,1.41,3.09,0,5.74-2.62,8.82-2.82,2.29-.15,4.45,1,6.63,1.8s4.85,1,6.52-.7c.5-.51.86-1.16,1.35-1.68,1.44-1.52,3.67-1.74,5.67-1.53s4,.76,6,.43,4-1.88,4.11-4c0-1.23-.5-2.59.12-3.63.94-1.56,3.53-.74,4.62-2.18S231.09,142.7,229.52,141.58Z"/><path class="cls-58" d="M156.41,150.33s.07-.21.17-.55c0-.07,0-.12.06-.2s.13-.42.21-.67c0-.08.05-.17.08-.26l0-.06.23-.73a1.09,1.09,0,0,1,0-.17l0-.07c.41-1.32.9-2.92,1.34-4.32h0l.06-.22.06-.16L159,142c.12-.53.24-1,.3-1.16-.2.6-3.16.69-3.82,1-1.27.62-2.52,1.67-2.24,3.34a1.23,1.23,0,0,1,0,.57c-.12.39-.59.44-1,.47a3.32,3.32,0,0,0-2.58,1.71,1.6,1.6,0,0,0-.2.81c.08.81.79,1.22.83,2.12s-.55,1.84-.13,2.72a1.71,1.71,0,0,0,.7.71,2.38,2.38,0,0,0,1.71.27c1-.24,2.08-1.4,3.21-1.12.7.18.86.79,1.38,1.22,1.72,1.44,3.59-1.55,5.55-.73a9.94,9.94,0,0,1,.89.53,3.6,3.6,0,0,0,4-.25,3,3,0,0,1,.74-.5,1.61,1.61,0,0,1,1.1.08c.76.28,1.43.8,2.19,1.06,2.58.87,5-2.58,7.7-1.75.71.22,1.32.75,2,1,1.94.56,4.08-1.33,5.9-.41.79.4,1.37,1.29,2.24,1.38s1.78-.87,2.69-1.34c1.42-.72,3.07-.14,4.58.34a1.9,1.9,0,0,0,1.26.11,3.54,3.54,0,0,0,1-.79c2-1.76,3.91.89,6,1.28a2.46,2.46,0,0,0,1,0,4.13,4.13,0,0,0,1.39-.91,4.76,4.76,0,0,1,4-.87c1.57.39,2.47.88,3.53-.49s2.07-.48,3.65-.55a2,2,0,0,0,1.66-.77c.36-.56.28-1.38.74-1.85,1.09-1.11,3.78.52,3.45-2.15-.11-.92-1-1.32-1.12-2s.77-1,.87-1.79c.16-1.14-1.3-1.95-2-2.5-.51-.41-.72-1-1.4-1a1.12,1.12,0,0,0-.23.06c-.56.3-1,.53-1.65.92a1.84,1.84,0,0,0-.35.51c-.19.32-.41.76-.63,1.24h0c-.31.66-.61,1.37-.82,1.89-.07.18-.12.34-.17.46a3.53,3.53,0,0,1-.6,1.25c-.92,1.09-2.56.65-3.92.44s-3.25.46-3.07,1.92c-2.47.72-5-1-7.56-.88-2.71.14-5.05,2.35-7.76,2.5a6.16,6.16,0,0,1-1,0h0c-4-.45-7.72-4.73-11.51-3.2-1.53.62-2.65,2.1-4.18,2.73-3.72,1.54-7.62-2.49-11.59-2-2.75.31-5,2.74-7.77,2.92C157.25,150.49,157,150.92,156.41,150.33Z"/><path class="cls-26" d="M37.53,13.52C31.25,17.63,25.87,24.89,23.9,30.65,20.56,40.44,20.05,55.27,26,64l1.71.35c-6.09-8.69-5.6-23.68-2.23-33.55,2-5.71,7.24-12.88,13.46-17Z"/><path class="cls-76" d="M147.57,139.73a1.83,1.83,0,1,1-1.82-2A1.9,1.9,0,0,1,147.57,139.73Z"/><path class="cls-77" d="M150.38,134A1.41,1.41,0,1,1,149,132.5,1.47,1.47,0,0,1,150.38,134Z"/><path class="cls-78" d="M236.3,137.44a1.41,1.41,0,1,1-1.4-1.51A1.46,1.46,0,0,1,236.3,137.44Z"/><path class="cls-79" d="M228.72,134.37a2.2,2.2,0,1,1-2.19-2.35A2.28,2.28,0,0,1,228.72,134.37Z"/><ellipse class="cls-80" cx="158.89" cy="123.35" rx="1.41" ry="1.51"/><path class="cls-81" d="M223.26,124.55a1.41,1.41,0,1,1-1.41-1.52A1.46,1.46,0,0,1,223.26,124.55Z"/><path class="cls-82" d="M189.82,143a1.41,1.41,0,1,1-1.41-1.51A1.46,1.46,0,0,1,189.82,143Z"/><path class="cls-83" d="M166.08,136.26a1.41,1.41,0,1,1-1.41-1.51A1.46,1.46,0,0,1,166.08,136.26Z"/><path class="cls-84" d="M199.23,135.23a1.41,1.41,0,1,1-1.41-1.51A1.46,1.46,0,0,1,199.23,135.23Z"/><path class="cls-85" d="M217.08,139.53a1.41,1.41,0,1,1-1.41-1.51A1.46,1.46,0,0,1,217.08,139.53Z"/><path class="cls-86" d="M215.67,131.24a1.83,1.83,0,1,1-1.82-2A1.88,1.88,0,0,1,215.67,131.24Z"/><path class="cls-87" d="M158.89,132.77a2.84,2.84,0,1,1-2.84-3A3,3,0,0,1,158.89,132.77Z"/><path class="cls-88" d="M230.88,122.17a2.84,2.84,0,1,1-2.83-3A3,3,0,0,1,230.88,122.17Z"/><path class="cls-89" d="M207.62,138.64a1.77,1.77,0,1,1-1.77-1.9A1.84,1.84,0,0,1,207.62,138.64Z"/><path class="cls-90" d="M182.35,137.89a2,2,0,1,1-2-2.19A2.12,2.12,0,0,1,182.35,137.89Z"/><path class="cls-91" d="M169.36,141a1.78,1.78,0,1,1-1.78-1.91A1.85,1.85,0,0,1,169.36,141Z"/></g></g></svg>