<svg id="Layer_1" data-name="Layer 1" xmlns="http://www.w3.org/2000/svg" viewBox="0 0 1363.04 300"><defs><style>.cls-1{fill:#ffe500;}.cls-2{fill:#fff;}.cls-3,.cls-4,.cls-5{fill:none;stroke-linecap:round;}.cls-3,.cls-4,.cls-5,.cls-6,.cls-7{stroke:#000;}.cls-3,.cls-4,.cls-6,.cls-7{stroke-miterlimit:10;}.cls-3,.cls-4{stroke-width:5.12px;}.cls-4{stroke-dasharray:0 13;}.cls-5{stroke-linejoin:round;stroke-width:3px;}.cls-6{stroke-width:0.5px;}</style></defs><path class="cls-1" d="M1362.72,194.25c-3.79-47.58-42.52-86-90.13-89.52a97.4,97.4,0,0,0-71.39,23.73,43.16,43.16,0,0,1-46,6.58h0a44,44,0,0,1-25.74-39.48c0-1.81-.13-3.64-.27-5.47-3.69-48.06-43-86.83-91.11-89.89A97.88,97.88,0,0,0,934,97.77V98a39.28,39.28,0,0,1-23.25,35.91l-5.19,2.33c-13.83,6.18-30.23,4-41.41-6.18a98,98,0,0,0-24.69-16.47l-.29-.14c-1-.47-2-.91-3-1.34l-1.17-.49c-.8-.33-1.61-.64-2.42-.94-.63-.24-1.25-.48-1.89-.7l-1.9-.64c-.83-.28-1.66-.54-2.51-.8l-1.47-.42c-1-.28-2-.55-3-.8l-1.18-.28c-1.1-.26-2.2-.5-3.31-.72l-1.06-.2c-1.13-.22-2.27-.41-3.42-.58l-1.12-.16c-1.09-.15-2.19-.28-3.3-.4l-1.43-.13-1.35-.14c-.46,0-.92,0-1.39-.06-.82,0-1.65-.09-2.48-.12s-1.54,0-2.31-.06l-1.17,0c-.53,0-1,0-1.57,0l-2,0c-1,0-2,.09-3,.16-.58,0-1.17.07-1.75.12-1.11.1-2.22.22-3.32.35l-1.36.16c-1.35.18-2.69.39-4,.63l-.58.09a96.28,96.28,0,0,0-13.91,3.63l0,0c-1.46.5-2.91,1-4.34,1.6l-.34.14c-1.34.54-2.66,1.1-4,1.69l-.44.21c-1.28.59-2.55,1.2-3.8,1.84l-.4.21c-1.27.66-2.53,1.35-3.77,2.07l-.28.16c-1.3.75-2.59,1.54-3.85,2.35l-.06,0a97.42,97.42,0,0,0-11.57,8.7c-.5.44-1,.84-1.53,1.25A43.23,43.23,0,0,1,688.27,135h0a44,44,0,0,1-25.74-39.48c0-1.81-.13-3.64-.27-5.47a97.32,97.32,0,0,0-28.14-61l0,0c-.91-.92-1.84-1.82-2.79-2.71l-.36-.33q-1.27-1.18-2.61-2.31c-.22-.2-.44-.4-.67-.59-.79-.67-1.6-1.31-2.41-2l-1-.79c-.73-.56-1.47-1.1-2.21-1.64l-1.31-.95c-.67-.47-1.35-.93-2-1.38l-1.6-1.06-1.87-1.15c-.62-.38-1.23-.75-1.85-1.11l-1.75-1c-.69-.38-1.37-.75-2.07-1.11-.55-.29-1.11-.56-1.66-.84-.75-.37-1.49-.74-2.24-1.09L604,8.29c-.79-.35-1.58-.69-2.38-1-.52-.22-1.06-.42-1.59-.63-.81-.32-1.63-.64-2.46-.93-.54-.2-1.09-.38-1.63-.57-.83-.28-1.65-.56-2.49-.81l-1.71-.51c-.82-.23-1.64-.47-2.48-.69-.6-.16-1.21-.3-1.82-.45-.8-.19-1.61-.38-2.42-.55-.65-.14-1.31-.27-2-.39s-1.55-.3-2.33-.43L578.6,1c-.73-.1-1.46-.21-2.2-.29s-1.56-.17-2.35-.24c-.46-.05-.92-.11-1.38-.15-.2,0-.4,0-.6,0L571.15.2c-.8-.05-1.59-.05-2.38-.09S567.25,0,566.49,0c-1,0-2,0-3.06,0-.79,0-1.59,0-2.38,0s-1.88.11-2.82.17-1.7.1-2.54.18-1.6.18-2.4.28c-1,.11-1.92.2-2.87.34l-1.16.2a95.86,95.86,0,0,0-13.17,3.06l-.49.14c-1.31.41-2.6.86-3.89,1.33l-.9.31c-1.24.46-2.46,1-3.68,1.47l-1,.41c-1.2.52-2.38,1.07-3.56,1.64l-1,.46c-1.17.58-2.33,1.19-3.47,1.81-.31.17-.63.33-.94.51-1.14.64-2.27,1.31-3.38,2l-.87.53c-1.13.71-2.23,1.44-3.32,2.19-.26.18-.53.35-.78.54-1.11.77-2.2,1.57-3.27,2.38l-.67.52c-1.09.85-2.17,1.72-3.22,2.61l-.55.47Q499.52,25,498,26.47l-.41.38Q496,28.38,494.41,30l-.23.24q-1.6,1.68-3.14,3.44l0,0a97.25,97.25,0,0,0-24,64.39,39.27,39.27,0,0,1-23.25,35.86l-5.19,2.33c-13.82,6.18-30.23,4-41.4-6.18a97.59,97.59,0,0,0-130.28-1.36,42,42,0,0,1-44.79,6.71l-.72-.33a44,44,0,0,1-25.88-39.54c0-1.62-.11-3.24-.23-4.88C191.9,43,153.39,4.09,105.69.31A97.88,97.88,0,0,0,.32,105.74c3.79,47.59,42.51,86,90.12,89.53a97.42,97.42,0,0,0,71.41-23.73A43.19,43.19,0,0,1,207.79,165a44,44,0,0,1,25.74,39.48,102.64,102.64,0,0,0,.76,10.27c5.52,44.3,41.39,79.69,85.75,84.66a97.88,97.88,0,0,0,109-97.14V202a39.28,39.28,0,0,1,23.25-35.91l5.19-2.32c13.83-6.19,30.23-4.05,41.41,6.17a98.17,98.17,0,0,0,24.68,16.47l.29.14c1,.47,2,.91,3.06,1.35l1.14.48c.81.33,1.63.64,2.44.95.63.23,1.25.47,1.89.69s1.26.43,1.9.64c.83.28,1.66.55,2.5.8l1.49.43c1,.28,2,.54,3,.79l1.2.29c1.09.25,2.19.49,3.29.71l1.07.21q1.7.31,3.42.57l1.12.16c1.09.15,2.19.29,3.29.4l1.44.14,1.34.13c.46,0,.92,0,1.39.06l2.49.12,2.3.06c.4,0,.79,0,1.19,0s1.06,0,1.59,0l1.94,0c1,0,2-.1,3-.17l1.68-.11c1.15-.1,2.31-.23,3.45-.36l1.2-.14a98.07,98.07,0,0,0,14-2.92l.22-.06c1.43-.42,2.84-.86,4.24-1.34l.54-.19c1.3-.45,2.59-.92,3.86-1.43l.61-.24c1.26-.51,2.5-1,3.73-1.59l.55-.26c1.27-.58,2.52-1.19,3.76-1.82l.37-.19c1.35-.7,2.67-1.42,4-2.17l0,0a98.16,98.16,0,0,0,14.89-10.55,43.47,43.47,0,0,1,72.06,32.54,102.64,102.64,0,0,0,.76,10.27c.1.84.29,1.65.42,2.49s.3,1.89.48,2.84q.63,3.44,1.5,6.79l.18.68a98.19,98.19,0,0,0,56.61,64.84l.4.18q2.21.92,4.47,1.73c1.28.46,2.57.9,3.87,1.31,1.06.33,2.12.64,3.19.94q2.65.74,5.37,1.32c.77.16,1.54.31,2.32.45,2.13.41,4.27.75,6.44,1l.5.08c.51.06,1,.08,1.5.13s1.22.14,1.84.18l1,.06c1,.07,2,.11,3,.15.85,0,1.7.07,2.55.08s1.9,0,2.84,0,1.79,0,2.67-.07,1.76-.1,2.64-.16,1.87-.13,2.8-.22,1.6-.18,2.4-.28c1-.12,2-.24,3-.39.72-.11,1.43-.24,2.14-.37,1-.18,2.09-.37,3.12-.59.62-.13,1.24-.28,1.86-.43,1.1-.25,2.2-.51,3.28-.8.52-.14,1-.3,1.55-.45,1.17-.33,2.34-.67,3.49-1.05l1.19-.41c1.25-.43,2.5-.87,3.73-1.35l.76-.31c1.35-.54,2.7-1.1,4-1.7l.22-.1A97.88,97.88,0,0,0,896,201.93a39.29,39.29,0,0,1,23.24-35.86l5.19-2.32c13.83-6.19,30.23-4.05,41.41,6.17a97.55,97.55,0,0,0,129.56,2,43.72,43.72,0,0,1,46.36-6.94h0a44,44,0,0,1,25.74,39.48c0,1.83.13,3.66.28,5.5,3.66,47.47,42.07,86,89.53,89.74A97.86,97.86,0,0,0,1362.72,194.25Z"/><circle class="cls-2" cx="97.77" cy="97.77" r="72.25" transform="translate(-7.61 187.29) rotate(-85.35)"/><line class="cls-3" x1="331.28" y1="81.93" x2="331.28" y2="81.93"/><line class="cls-3" x1="331.28" y1="72.88" x2="331.28" y2="72.88"/><line class="cls-4" x1="798.3" y1="81.93" x2="798.3" y2="70.41"/><line class="cls-3" x1="1265.2" y1="81.93" x2="1265.2" y2="81.93"/><line class="cls-3" x1="1265.2" y1="72.06" x2="1265.2" y2="72.06"/><line class="cls-3" x1="97.77" y1="218.07" x2="97.77" y2="218.07"/><line class="cls-3" x1="97.77" y1="227.94" x2="97.77" y2="227.94"/><line class="cls-3" x1="564.79" y1="218.07" x2="564.79" y2="218.07"/><line class="cls-3" x1="564.79" y1="227.94" x2="564.79" y2="227.94"/><line class="cls-3" x1="1031.8" y1="218.07" x2="1031.8" y2="218.07"/><line class="cls-3" x1="1031.8" y1="227.12" x2="1031.8" y2="227.12"/><circle class="cls-2" cx="331.28" cy="202.23" r="72.25"/><circle class="cls-2" cx="564.79" cy="97.77" r="72.25" transform="translate(376.86 639.27) rotate(-80.68)"/><circle class="cls-2" cx="1031.79" cy="97.77" r="72.25" transform="matrix(0.16, -0.99, 0.99, 0.16, 768.25, 1100.11)"/><circle class="cls-2" cx="798.3" cy="202.23" r="72.25"/><circle class="cls-2" cx="1265.29" cy="202.23" r="72.25"/><path d="M108.65,127.28a1.53,1.53,0,0,0-1.67-2.57,29.26,29.26,0,0,1-4.92,2.73,5.33,5.33,0,0,1-3.71.45c-3.4-1.32-24-10.94-28.55-13l-.17-24.73,1.63-1.18a107.13,107.13,0,0,0,15.66-4.68c5.39-2,7.47-2.83,25.07-2.13l15.89,20.3-.78.9c-.49.58-1,1.23-1.61,1.93a1.52,1.52,0,1,0,2.36,1.93c.47-.58,1-1.2,1.57-1.87s1-1.16,1.51-1.72a1.52,1.52,0,0,0,.14-2l-1.2.94,1.2-.94L114,79.76a1.51,1.51,0,0,0-1.2-.67l-.07,1.53.06-1.53c-18.86-.77-21.08.07-27,2.3A104.07,104.07,0,0,1,70.4,86a1.48,1.48,0,0,0-.68.27h0L67.33,88a1.55,1.55,0,0,0-.76,1.34h0l.18,26.34a1.53,1.53,0,0,0,.88,1.51l.65-1.39-.65,1.38c.08,0,25.66,12,29.6,13.54a8.22,8.22,0,0,0,6-.45,33.4,33.4,0,0,0,5.45-3Z"/><path d="M82.86,85.54a1.53,1.53,0,0,0-2.89-1s-6,17.29,3.54,19h0l.17,0c3.72.5,5.79-2.08,8-4.9,3.2-4,6.88-8.6,18.08-.3h0a1.58,1.58,0,0,0,.24.15c1.28.76,14,8.36,15.88,10.68a2.68,2.68,0,0,1,.56,1.5,2.37,2.37,0,0,1-.33,1.42,2.76,2.76,0,0,1-1.37,1.09,7.16,7.16,0,0,1-3.68.21L106.53,105a1.53,1.53,0,0,0-1.53,2.66l14.75,8.51a1.63,1.63,0,0,0,.53.21h0a10.35,10.35,0,0,0,5.61-.33,5.71,5.71,0,0,0,2.85-2.34,5.53,5.53,0,0,0,.78-3.22,5.78,5.78,0,0,0-1.22-3.17c-2.2-2.8-15.68-10.81-16.75-11.45-13.52-10-18.18-4.17-22.22.89-1.68,2.1-3.22,4-5.25,3.79H84c-6-1.12-1.17-15-1.15-15Z"/><path d="M102.59,113a1.53,1.53,0,0,0-1.42,2.71l13.54,7.11a6.84,6.84,0,0,0,4.72.37A5.79,5.79,0,0,0,122,121.8a4.45,4.45,0,0,0,1.41-2.83,7.6,7.6,0,0,0-1.54-4.93,1.52,1.52,0,1,0-2.54,1.68,4.7,4.7,0,0,1,1,2.93,1.48,1.48,0,0,1-.46.93,2.79,2.79,0,0,1-1.22.63,3.63,3.63,0,0,1-2.51-.13L102.59,113Z"/><path d="M101.16,120.54a1.53,1.53,0,0,0-1.51,2.66l9.56,5.34.75-1.33-.75,1.33a1.34,1.34,0,0,0,.53.18c1.26.3,9.26,1.83,7.66-7.3a1.53,1.53,0,0,0-3,.53c.8,4.56-3,4-3.85,3.83Z"/><path d="M51.23,82.19H65a4.6,4.6,0,0,1,3.25,1.34h0a4.58,4.58,0,0,1,1.35,3.24V117.6a4.58,4.58,0,0,1-1.35,3.24h0a4.58,4.58,0,0,1-3.23,1.35H51.24A4.61,4.61,0,0,1,48,120.84h0a4.58,4.58,0,0,1-1.35-3.24V86.78A4.58,4.58,0,0,1,48,83.54h0a4.57,4.57,0,0,1,3.23-1.34Zm13.82,3.06H51.24a1.56,1.56,0,0,0-1.09.44h0a1.59,1.59,0,0,0-.45,1.09V117.6a1.5,1.5,0,0,0,.45,1.08h0a1.52,1.52,0,0,0,1.08.45H65a1.56,1.56,0,0,0,1.09-.44h0a1.56,1.56,0,0,0,.45-1.08V86.78a1.54,1.54,0,0,0-.45-1.09h0a1.52,1.52,0,0,0-1.08-.45Z"/><path d="M124.09,67.8l-10.78,8.63a1.48,1.48,0,0,0-.56,1,1.52,1.52,0,0,0,.32,1.13l19.25,24.07a1.59,1.59,0,0,0,1,.56,1.56,1.56,0,0,0,1.13-.32l10.78-8.63a1.48,1.48,0,0,0,.56-1,1.52,1.52,0,0,0-.32-1.13L126.25,68a1.5,1.5,0,0,0-1-.56,1.56,1.56,0,0,0-1.13.32ZM111.4,74l10.79-8.62a4.58,4.58,0,0,1,6.45.72l19.25,24.07a4.6,4.6,0,0,1-.72,6.45l-10.79,8.62a4.58,4.58,0,0,1-6.45-.72L110.68,80.49A4.6,4.6,0,0,1,111.4,74Z"/><path class="cls-5" d="M825.26,185l-10.49-4.34a9.3,9.3,0,0,0-13,6.71L790,238a6.69,6.69,0,0,0,12.2,5.06L829.73,199a9.32,9.32,0,0,0-4.47-14Z"/><path class="cls-5" d="M820,158.28a32,32,0,0,1,0,24.56,32,32,0,0,0,0-24.56Z"/><path class="cls-5" d="M842.25,173.63A17,17,0,0,0,820,182.84,11.34,11.34,0,0,0,805.2,168,11.34,11.34,0,0,1,820,182.84a17,17,0,0,1,22.24-9.21Z"/><path class="cls-5" d="M800.4,193.13l13.1,5.43Z"/><path class="cls-5" d="M820.52,213.74,809.16,209Z"/><path class="cls-5" d="M795.22,215.54l9.6,4Z"/><path class="cls-5" d="M808.34,233.25,800.48,230Z"/><path class="cls-5" d="M785.5,174.48,777.33,181,769,172l.41,12.24L759,185.44a16.16,16.16,0,0,1,7.47,6.3,16.24,16.24,0,0,1,10.87.55h0a16.18,16.18,0,0,1,7.3-8.08,16.12,16.12,0,0,1,.83-9.73Z"/><path class="cls-5" d="M801.74,187.38a10.88,10.88,0,0,1,.72-2.13,17.13,17.13,0,0,0-16.32-1.73,16.14,16.14,0,0,0-8.77,8.77h0a16.19,16.19,0,0,0-12.4,0,17.19,17.19,0,0,0-9.31,22.46,28.62,28.62,0,0,0,36,16Z"/><path class="cls-6" d="M1230.94,237.73h68.71v1.91h-68.71Z"/><path class="cls-6" d="M1264.15,218.78l-1.91-.2a61.55,61.55,0,0,0-3.44-26.84,60.44,60.44,0,0,0-7.57-14.51l1.59-1.08a64.25,64.25,0,0,1,7.83,14.95,65.49,65.49,0,0,1,3.5,27.68Z"/><path class="cls-6" d="M1263.7,205l-1.84-.51c.25-.76,2.35-7.51,9.29-9.86a15,15,0,0,1,15,3.56l-1.33,1.34a13,13,0,0,0-13-3.12c-6,2-7.89,7.89-8.08,8.59Z"/><path class="cls-6" d="M1260.78,194.53l-.83-.38a26,26,0,0,1-9.92-7.76c-6.11-7.95-5.48-17-4.9-20.61l.12-1,1,.19c1.14.19,11,2.17,15.2,11.77a21,21,0,0,1-.25,16.86Zm-13.94-27.48c-.44,3.82-.51,11.39,4.65,18.13a23.66,23.66,0,0,0,8.27,6.75,18.75,18.75,0,0,0-.13-14.45c-3.18-7.31-10.11-9.73-12.79-10.43Z"/><path class="cls-6" d="M1279.67,205.1a8.16,8.16,0,0,1-1.27-.07,19.11,19.11,0,0,1-12.53-5.91l-.38-.39.12-.5c1.53-5.6,6.05-9.87,11.33-10.5,7-.89,13.8,4.45,15.27,12l.12.57-.44.38a19.68,19.68,0,0,1-12.22,4.46Zm-12-6.94a17.16,17.16,0,0,0,10.88,4.9,17.39,17.39,0,0,0,11.71-3.63c-1.47-6.23-7.19-10.62-13-9.92a12.23,12.23,0,0,0-9.54,8.65Z"/><path class="cls-6" d="M1262.43,214.83a7.44,7.44,0,0,0-4-6.24,7.54,7.54,0,0,0-8.4,1.4l-1.27-1.33a9.18,9.18,0,0,1,15.65,6.11Z"/><path class="cls-6" d="M1246.27,213.56a21,21,0,0,1-7.25-1.34l-.7-.25.13-.76a11.33,11.33,0,0,1,6.93-9.17c5.09-2,11.2.45,14.12,5.67l.39.7-.64.5a20.27,20.27,0,0,1-9.92,4.39,16.71,16.71,0,0,1-3.06.26Zm-5.85-2.86a18.68,18.68,0,0,0,8.59.76,18.41,18.41,0,0,0,8.33-3.5c-2.61-3.88-7.38-5.66-11.39-4.14A9.12,9.12,0,0,0,1240.42,210.7Z"/><path class="cls-6" d="M1287,238.69c-1.4-9.48-8.4-17.18-16.92-18.77-11.2-2-22.59,6.49-25,18.64l-1.84-.38c2.54-13.17,15-22.39,27.23-20.17,9.29,1.72,16.92,10.12,18.45,20.36Z"/><path class="cls-6" d="M1257.72,228.83h-1.65a1,1,0,1,1,0-1.91h1.65a1,1,0,1,1,0,1.91Z"/><path class="cls-6" d="M1269.81,232h-1.65a1,1,0,1,1,0-1.91h1.65a1,1,0,1,1,0,1.91Z"/><path class="cls-6" d="M1274.9,226.92h-1.65a1,1,0,1,1,0-1.91h1.65a1,1,0,1,1,0,1.91Z"/><path d="M373.58,203.6h-4.74l.61-6.15a6.81,6.81,0,0,0-5.27-7.32l3-4.93a1.39,1.39,0,0,0,0-1.38,1.37,1.37,0,0,0-1.19-.69H362.6l-2.32-3.49a1.42,1.42,0,0,0-2.27,0l-2.33,3.49h-3.36a1.36,1.36,0,0,0-1.19.69,1.35,1.35,0,0,0,0,1.37l3,4.94a6.79,6.79,0,0,0-5.28,7.32l.62,6.15H337l1.24-6.21a7.76,7.76,0,0,0,2.43-2.1,6.4,6.4,0,0,0,1.49-4,6.42,6.42,0,0,0,4-1.48,6.64,6.64,0,0,0-1.24-11.59,4.77,4.77,0,0,0-4.77-4.67,4.66,4.66,0,0,0-1.13.13,8.15,8.15,0,0,0-15.48,0,4.8,4.8,0,0,0-5.91,4.54,6.65,6.65,0,0,0-1.24,11.59,6.45,6.45,0,0,0,4,1.48,6.38,6.38,0,0,0,1.48,4,7.79,7.79,0,0,0,2.44,2.1l1.24,6.21h-5.16A13.67,13.67,0,0,0,308,190a6.84,6.84,0,0,0-6.7-5.52,1.37,1.37,0,0,0,0,2.73,4.09,4.09,0,0,1,3.88,2.83,13.66,13.66,0,0,0-12.06,13.55H289a1.36,1.36,0,0,0-1.36,1.36v30a1.36,1.36,0,0,0,1.36,1.37h84.61A1.37,1.37,0,0,0,375,235V205a1.37,1.37,0,0,0-1.37-1.36Zm-17.17-17.74a1.38,1.38,0,0,0,1.14-.61l1.59-2.39,1.6,2.39a1.36,1.36,0,0,0,1.13.61h1.69L361.1,190h-3.91l-2.46-4.09Zm-4.86,11.32a4.1,4.1,0,0,1,4.07-4.5h7a4.1,4.1,0,0,1,4.08,4.5l-.64,6.42H352.19Zm-28.24-7.09a1.37,1.37,0,0,0-1.72-1.72,3.42,3.42,0,0,1-3.53-.7,4.16,4.16,0,0,1-1.79-3.24,4.07,4.07,0,0,1,3.15-3.91,1.4,1.4,0,0,0,.86-.62,1.37,1.37,0,0,0,.15-1.05,2,2,0,0,1,2-2.55,2,2,0,0,1,1.26.46,1.35,1.35,0,0,0,1.38.18,1.37,1.37,0,0,0,.83-1.13,5.42,5.42,0,0,1,10.8,0,1.37,1.37,0,0,0,2.21.95,2,2,0,0,1,1.26-.46,2,2,0,0,1,2,2,1.93,1.93,0,0,1-.07.5,1.38,1.38,0,0,0,.16,1.05,1.32,1.32,0,0,0,.85.62,4.09,4.09,0,0,1,3.16,3.91,4.21,4.21,0,0,1-1.79,3.24,3.43,3.43,0,0,1-3.54.7,1.38,1.38,0,0,0-1.38.34,1.35,1.35,0,0,0-.33,1.38,3.44,3.44,0,0,1-.7,3.53,4.15,4.15,0,0,1-3.17,1.79h0A4,4,0,0,1,332.3,194a1.37,1.37,0,0,0-2.05,0,4,4,0,0,1-3.08,1.42,4.13,4.13,0,0,1-3.16-1.79,3.4,3.4,0,0,1-.7-3.53Zm3.9,8a6.81,6.81,0,0,0,4.07-1.39,6.78,6.78,0,0,0,4.07,1.39l-1.1,5.46H328.3Zm-20.5-5.46a10.93,10.93,0,0,1,10.92,10.92H295.8A10.93,10.93,0,0,1,306.71,192.68Zm65.51,40.94H290.34V206.33h81.88Z"/><path d="M298.53,209.06h-4.1a1.37,1.37,0,0,0,0,2.73h4.1a1.37,1.37,0,0,0,0-2.73Z"/><path d="M364,211.79h4.09a1.37,1.37,0,1,0,0-2.73H364a1.37,1.37,0,1,0,0,2.73Z"/><path class="cls-7" d="M563.79,122.35v5.59a1,1,0,1,0,2,0v-5.59a15.71,15.71,0,0,0,14.68-15.66,1,1,0,0,0-.86-1,15.71,15.71,0,0,0-8.25.8,15.19,15.19,0,0,0-6-11.3,1,1,0,0,0-1.23,0,15.19,15.19,0,0,0-6,11.3,15.5,15.5,0,0,0-8.25-.8,1,1,0,0,0-.86,1,15.71,15.71,0,0,0,14.69,15.66Zm14.65-14.77a13.69,13.69,0,0,1-12.65,12.76v-1.4c0-1,.41-6.08,3.9-9.11,2.14-1.85,5.08-2.61,8.75-2.25Zm-13.65-10.3a13.2,13.2,0,0,1,4.59,10.28,9.29,9.29,0,0,0-1,.77,12.89,12.89,0,0,0-3.58,5.44,12.92,12.92,0,0,0-3.59-5.44,10.76,10.76,0,0,0-1-.77,13.37,13.37,0,0,1,4.6-10.28Zm-4.91,12.55c3.5,3,3.87,8.16,3.91,9.11a1.14,1.14,0,0,0,0,.15s0,.08,0,.12v1.14a13.72,13.72,0,0,1-12.66-12.77c3.67-.36,6.61.4,8.75,2.25Z"/><path class="cls-7" d="M526.78,135.77a6.77,6.77,0,0,0,9.61,0l1.25-1.26c4.05,1,29.14,6.31,54.3,0l1.24,1.25a6.77,6.77,0,0,0,9.61,0,6.86,6.86,0,0,0,.31-9.33c.08-3.28.38-23.85-5.36-37.31a4.82,4.82,0,0,0,3.54-4.63V78.06a4.82,4.82,0,0,0-4.56-4.8A12.31,12.31,0,0,0,584.67,64a12.65,12.65,0,0,0-4.6.87,15,15,0,0,0-25.42-.17,15.16,15.16,0,0,0-7.3-1.87,14.74,14.74,0,0,0-14.24,10.41,4.83,4.83,0,0,0-4.82,4.83V84.5a4.82,4.82,0,0,0,3.54,4.63c-5.73,13.46-5.44,34-5.35,37.31a6.87,6.87,0,0,0,.3,9.33Zm20.57-71a13,13,0,0,1,7.11,2.09,1,1,0,0,0,1.43-.37,13,13,0,0,1,22.87.06,1,1,0,0,0,1.31.44,10.68,10.68,0,0,1,4.6-1.05,10.34,10.34,0,0,1,10,7.24H535.2a12.79,12.79,0,0,1,12.15-8.41ZM530.29,84.5V78.06a2.83,2.83,0,0,1,2.82-2.83h63.35a2.83,2.83,0,0,1,2.82,2.83V84.5a2.83,2.83,0,0,1-2.82,2.83H533.11A2.83,2.83,0,0,1,530.29,84.5Zm-2.09,43a1,1,0,0,0,.29-.74c0-.24-.77-23.58,5.44-37.47h61.71c6.21,13.89,5.45,37.23,5.44,37.47a1,1,0,0,0,.3.74,4.86,4.86,0,0,1,0,6.83,4.79,4.79,0,0,1-6.79,0L593,132.7a1,1,0,0,0-1-.26c-27,6.94-54.14.07-54.41,0a1,1,0,0,0-1,.26L535,134.35a4.77,4.77,0,0,1-6.78,0,4.84,4.84,0,0,1,0-6.83Z"/><path class="cls-7" d="M1016.44,81.62a23.1,23.1,0,0,0-6.52,3.14c-3.24,2.3-7,7.23-7.31,9.6-.13.88-.06,1.15.68,1.53a17.87,17.87,0,0,1,4.76,5.22c4.07,7.12,4.35,14.09.94,22.57a14.15,14.15,0,0,1-1.42,2.9c-.81.83-.49,1.59.81,3.32,3.24,4.31,7.28,7.51,10.51,8.37a10.14,10.14,0,0,0,2.61.32,19.15,19.15,0,0,0,7.22-1.62c2.79-1.14,3.82-1.12,6.94.17a9.52,9.52,0,0,0,5.3,1c2.47,0,3-.1,4.46-.71a20.74,20.74,0,0,0,8.74-7c1.22-1.72,1.4-2.2.57-3.33a30.88,30.88,0,0,1-3-6.69,22.32,22.32,0,0,1-.4-5.42c0-3.36.06-4,.63-5.89,1.52-5.08,4.68-10,7.86-12.19,1.37-.9,1.37-1.59.78-3.93a14.77,14.77,0,0,0-4.22-7.18c-3.47-3.47-7-4.82-12.63-4.82-3.85,0-6.06.65-8.76,2.58l-.47.33.46-1.33c2-5.62,6-10.83,10.29-13.29,1-.56,1.39-.92,1.39-1.53a.74.74,0,0,0-.51-.8c-1.55-.46-6.91,4-9.55,8a29.74,29.74,0,0,0-3.8,7.88l-.89,2.57-.31-.28a60.5,60.5,0,0,1-5.37-7.3,38.77,38.77,0,0,1-5-11.84,28.62,28.62,0,0,1-.25-6.72c.82.17,4.78,3.56,6.25,5.72,2.74,4,3.3,8.36,3.48,12.08,0,.56,0,1,0,1.44,0,1.31,0,2,.72,2.21a.6.6,0,0,0,.53-.08c.24-.16.52-.56.74-2.26a23.53,23.53,0,0,0-.77-7.54,18.94,18.94,0,0,0-4.91-9.05,19.67,19.67,0,0,0-5.5-4.48h0c-1.06-.43-1.58-.5-2.1.14-.32.35-.4,1.27-.4,4.51a19.16,19.16,0,0,0,.56,6,45.41,45.41,0,0,0,6.69,13.75c.36.52.63.92.8,1.2l-.43-.22a17.41,17.41,0,0,0-10.3-1.07ZM1041,136.21a8.59,8.59,0,0,1-4.67-1,9.19,9.19,0,0,0-4.27-1.07,8.2,8.2,0,0,0-2.72.38c-4.19,1.68-5.16,1.94-7.44,2a6.26,6.26,0,0,1-3.94-.85,25.87,25.87,0,0,1-3.08-1.93c-1.62-1.28-5.09-5.24-5.25-5.87a3.41,3.41,0,0,1,.48-1.61,32.14,32.14,0,0,0,3.24-13.29,21.9,21.9,0,0,0-2.57-11.13,20.6,20.6,0,0,0-4.69-6.47l-1.32-1.17.92-1.63a20.35,20.35,0,0,1,8.56-7.91,12.44,12.44,0,0,1,6.58-1.33c3.12.18,5.55,1.15,8.69,3.43,2.49,1.82,3.21,1.77,5.48-.38a11.31,11.31,0,0,1,5.24-2.94,19.88,19.88,0,0,1,9.17.38,14.36,14.36,0,0,1,9.45,10.09c.25,1,.25,1-.15,1.25-2.16,1.34-5.73,6.16-7.35,9.91-1.56,3.57-1.91,5.46-1.89,10.13,0,5.12.39,6.74,2.42,10.79l1.27,2.57-.59.87a18.69,18.69,0,0,1-7.9,6.23,7.58,7.58,0,0,1-3.67.6Zm-7.16-32.54a.76.76,0,0,0-.57.37,44.43,44.43,0,0,0-.23,4.71c0,4.82.14,5.88,1.28,7.1a2.15,2.15,0,0,0,1.58.75,2.62,2.62,0,0,0,1.66-.68c1-.84,1.39-2.11,1.29-4.39s-.92-4-2.83-6.23c-1-1.17-1.67-1.64-2.18-1.63Zm2.13,10.94c-.05,0-.17-.12-.47-.62s-.44-1-.44-4l0-2.61,0,0a10.88,10.88,0,0,1,1.09,1.73c.81,1.57.83,4.39.23,5-.32.34-.4.4-.46.38Zm-6.05-10.88h0c-.49-.06-1,.32-2.06,1.57-1.92,2.25-2.71,4-2.83,6.24s.27,3.54,1.28,4.38a2.54,2.54,0,0,0,1.63.66,2,2,0,0,0,.59-.09,3.11,3.11,0,0,0,1.94-2.22,24.6,24.6,0,0,0,.34-7.37c-.17-2.72-.19-3.07-.89-3.17Zm-1.34,9.94c-.3.71-.51.85-.61.87s-.32-.13-.45-.27c-.38-.37-.45-.59-.45-2.17a6.76,6.76,0,0,1,1.6-4.56l.05-.07,0,2.43a15.31,15.31,0,0,1-.19,3.77Z"/><line class="cls-3" x1="797.7" y1="81.35" x2="797.7" y2="81.35"/><line class="cls-3" x1="797.7" y1="72.3" x2="797.7" y2="72.3"/></svg>