<svg id="Layer_1" data-name="Layer 1" xmlns="http://www.w3.org/2000/svg" viewBox="0 0 447.82 422"><defs><style>.cls-1{fill:#455a64;}.cls-2{fill:#263238;}.cls-3{fill:#ffc19d;}.cls-4{fill:#ff735d;}.cls-5{fill:#ff8d2e;}.cls-6{fill:#ed7116;}.cls-7{fill:#7c4235;}.cls-8{fill:#7ed1cd;}.cls-9{fill:#fff;}.cls-10{opacity:0.3;}.cls-11{fill:#709667;}.cls-12{fill:#e89863;}.cls-13{fill:#878786;}</style></defs><path class="cls-1" d="M323.05,37.14A54.59,54.59,0,0,0,321.37,0a44,44,0,0,0,1.05,37.55"/><path class="cls-2" d="M346.43,23.26c.12.59-7.36,1.56-14.59,6.85s-10.63,11.94-11.16,11.64c-.21-.1.3-1.93,1.87-4.56a30.7,30.7,0,0,1,19-13.61C344.5,22.92,346.4,23,346.43,23.26Z"/><path class="cls-3" d="M280.47,50.87s18,14.24,4.67,35.77-27.26,19.78-27.26,19.78l23.75,23.18,30.76,5.88,15.52-5.56s-13-16.81-5.86-36.22,16.14-17.84,20.88-19.56-16.24-15.89-16.24-15.89L307.49,48Z"/><path class="cls-4" d="M276.87,50.76c10.37-13.34,30.5-14.93,45.06-9.19S349.63,62.24,347.49,77c-6.54-6.11-18.17-5.43-23.95,1.38a11.86,11.86,0,0,0-18.09-10.55,31.28,31.28,0,0,0-28.58-17.1"/><path class="cls-2" d="M292.63,96.45c-.38-.16.5-3.18,1.95-6.75s2.94-6.35,3.31-6.2-.49,3.18-1.94,6.75S293,96.6,292.63,96.45Z"/><path class="cls-2" d="M305.72,100.36c-.38-.15.39-2.9,1.7-6.14s2.69-5.75,3.07-5.59-.38,2.9-1.7,6.14S306.1,100.51,305.72,100.36Z"/><path class="cls-4" d="M257.59,102.51s-5.14,27.47,26.69,39.21,45.63-11.82,45.63-11.82-6.57,5.78-15.19-6.17c0,0-18.32,10.06-25.29-11.49C289.43,112.24,270.16,119.08,257.59,102.51Z"/><path class="cls-5" d="M129.25,74.84c-2.5-4.77-6.25-8.89-11.68-10.39s-12.9,3-12.9,3a29.19,29.19,0,0,0-6.83-2.87C90.74,63,79.56,68.6,78,75.43c-6-3.6-17.77.64-21.56,6.84a29.1,29.1,0,0,0-2.65,6.92s-8.34,2.23-11.06,7.29S40.48,107,42.2,112.1q1.09,3.24,2.48,6.45a122.61,122.61,0,0,0,26.93,38.51,16.88,16.88,0,0,0,1.5,1.27c6.77,5.08,13,1.2,16.2-2.09,2.55,2.7,5.94,5,9.61,4.56,6.33-.83,10-4.44,13.2-5.65l0-.06,0,.06c3.12-1.52,8.23-1.65,13.2-5.65,2.88-2.32,3.53-6.4,3.34-10.1,4.59-.05,11.69-1.87,12.69-10.28.07-.62.11-1.27.12-2a122.73,122.73,0,0,0-9.27-46.07C131.3,79,130.31,76.86,129.25,74.84Z"/><path class="cls-6" d="M117.61,64.53c-5.53-1.51-12.9,3-12.9,3a29,29,0,0,0-6.84-2.85c-7.09-1.53-18.27,4-19.83,10.87-6-3.59-17.76.65-21.55,6.84a29.32,29.32,0,0,0-2.66,6.91s-8.33,2.24-11,7.29c-.17.31-.29.63-.43.94,3.91-2.42,11.07-3.18,20.48,0,0,0,1.7-8.63,14.64-9.78a19.39,19.39,0,0,0,9.86-3.63c8.6-6.4,15-4.79,20.36-.33,4.61,3.84,16.66,32.24,21,55.67,4.92,0,12.76-2.15,12.81-12.23.08-15.43-3.79-36.24-12.2-52.25C126.78,70.14,123,66,117.61,64.53Z"/><path class="cls-1" d="M73.23,74.53c2.31,6.74,1.39,11.46.59,13.75a26.23,26.23,0,0,1,3.65-.6,19.39,19.39,0,0,0,9.86-3.63,28.21,28.21,0,0,1,3.08-2A71.25,71.25,0,0,1,83,74a28,28,0,0,1-2-2.91c-2.77-4.65-3.78-10-.81-16.58-7.91-8.4-14.33-.74-14.33-.74s.11,5.42,5.62,16.57A36.16,36.16,0,0,1,73.23,74.53Z"/><path class="cls-2" d="M62.83,97.46c.26,0,0,3.72,1.22,9.53s4.16,13.47,8.42,21.49a220,220,0,0,0,11.89,20c3.3,5,5.42,8,5.26,8.12a9.2,9.2,0,0,1-1.76-1.93c-1.06-1.29-2.54-3.21-4.3-5.63a161.71,161.71,0,0,1-12.32-19.89c-4.29-8.07-7.28-16-8.15-22a38.54,38.54,0,0,1-.53-7.11A8.62,8.62,0,0,1,62.83,97.46Z"/><path class="cls-2" d="M110.94,153.53c-.35.15-6.57-13.59-13.89-30.69s-13-31.09-12.61-31.24S91,105.19,98.32,122.3,111.29,153.38,110.94,153.53Z"/><path class="cls-2" d="M97.37,79.82a5.61,5.61,0,0,1,2.91-.27,12.21,12.21,0,0,1,7.12,3.54,30.33,30.33,0,0,1,6.68,9.68c2,3.93,4,8.34,5.84,13.06a161.52,161.52,0,0,1,7.63,24.82c.72,3.25,1.18,5.9,1.45,7.73a12.19,12.19,0,0,1,.27,2.89c-.22,0-1-4-2.67-10.39a205.12,205.12,0,0,0-8-24.54c-1.86-4.68-3.81-9.07-5.7-13a31.21,31.21,0,0,0-6.22-9.54,12.25,12.25,0,0,0-6.51-3.7C98.42,79.77,97.39,80,97.37,79.82Z"/><path class="cls-2" d="M95.94,80.22a17.93,17.93,0,0,0-4.63,1.93c-1.34.8-2.83,1.93-4.61,3.11a19.06,19.06,0,0,1-6.53,2.63c-2.4.56-4.78.73-6.74,1.15a19.82,19.82,0,0,0-5.08,1.85c-2.77,1.44-3.68,3.26-3.87,3.14s.52-2.19,3.37-4a17.93,17.93,0,0,1,5.28-2.25c2.15-.53,4.4-.72,6.74-1.26A19.14,19.14,0,0,0,86,84.18c1.76-1.08,3.36-2.16,4.82-2.88C93.77,79.72,96,80,95.94,80.22Z"/><path class="cls-2" d="M103.83,69.67c.11.39-2.75,1.32-5.17,3.93S95.4,79.06,95,79s-.13-3.42,2.65-6.32S103.82,69.3,103.83,69.67Z"/><path class="cls-2" d="M56.14,87.92c-.18-.3,3.26-2.27,8-2.58s8.44,1.13,8.31,1.46-3.74-.42-8.22-.08S56.3,88.3,56.14,87.92Z"/><path class="cls-5" d="M227.63,46.8l-58.9,28.66a3.84,3.84,0,0,0-1.88,4.89c2.16,5.32,6.06,10.83,12.23,16.36,31.35,28.11,62.44-4,62.44-26.8,0-7.33-3.36-15.59-9.37-22.25A3.83,3.83,0,0,0,227.63,46.8Z"/><path class="cls-6" d="M227.63,46.8l-58.9,28.66a3.84,3.84,0,0,0-1.88,4.89c2.16,5.32,6.06,10.83,12.23,16.36,31.35,28.11,62.44-4,62.44-26.8,0-7.33-3.36-15.59-9.37-22.25A3.83,3.83,0,0,0,227.63,46.8Z"/><path class="cls-5" d="M225.55,43.78l-58.9,28.67a3.84,3.84,0,0,0-1.88,4.89c2.16,5.32,6.06,10.83,12.23,16.35,31.35,28.11,62.44-4,62.43-26.8,0-7.32-3.35-15.58-9.36-22.24A3.85,3.85,0,0,0,225.55,43.78Z"/><path class="cls-6" d="M220.28,47.61c1.71-1.56,16.58,8,13.41,21.48S224.4,91.8,218.33,90.75s-11-13.79-9-24S218.23,49.49,220.28,47.61Z"/><path class="cls-6" d="M172,72.94c.69-2.6,16-6.92,24.73-3.17s15.74,21.16,14.45,25.06-18.74,2.35-26.53-2.45S171,76.79,172,72.94Z"/><path class="cls-5" d="M189.46,72.63c-.83-1.4-12.84,3.12-11,6S191.24,75.66,189.46,72.63Z"/><path class="cls-4" d="M201.72,81.29c1.56-.08,4.13,12.26.28,11.55S200.16,81.37,201.72,81.29Z"/><path class="cls-5" d="M196.27,76.72c1.74.77-3.26,15-8.05,13.35S194.54,75.94,196.27,76.72Z"/><path class="cls-5" d="M216,63.6c-.25-3,13.92-3.21,13.65-.21S216.29,67.54,216,63.6Z"/><path class="cls-5" d="M217.09,58.2c1.21,1.58,9.36-2.39,7.78-4.57S215.88,56.62,217.09,58.2Z"/><path class="cls-5" d="M213.87,69.06c-.37,1.08,11,6.62,11.2,4.17S214.82,66.37,213.87,69.06Z"/><path class="cls-5" d="M211.23,73.28c-1.8,1.81,3.6,11.54,5.86,10.26S213.81,70.71,211.23,73.28Z"/><path class="cls-7" d="M34.86,156.92s24.82-38,60.89-38c0,0,13.58-32,57.24-41.15,40.34-8.47,82.22,7.69,107.91,44.72q2.93,4.2,5.62,8.87s41.72-20.72,79.27-20.72,70.44,49.73,70.44,49.73Z"/><path class="cls-2" d="M327.82,136.31c-4.94.9-9.64,3.6-16.3,9.61a4.18,4.18,0,0,0-1.63,3.11c.06,1.32,1.18,2.31,2.23,3.12q3.09,2.39,6.34,4.54Z"/><path class="cls-2" d="M367.55,179a3.25,3.25,0,0,0,2.35.42c1-.33,1.4-1.45,1.68-2.44,3.55-12.36,5.8-28.87,3.34-41.81l-17.61,39.14Z"/><path class="cls-2" d="M299.86,271.94c4.48-6.43,7.68-16.22,9.56-21.87,1.67-5,1.67-10.5,1.83-15.83.16-5.54-4.63-6.05-8.54-3.59a37.68,37.68,0,0,0-11.25,11.7c-2,3.16-4,5.66-5.68,10.09-.93,2.48-3.08,6.25-3.46,8.79,1.83-1.8,2.86-5.08,4.79-6.77-.54,1.78-2.66,5.24-2.05,6.89,1.54-2.63,2.83-5.41,4.42-8-.14,2-1.75,4.9-1.1,6.93,1.49-2.52,2.71-5.27,4.05-7.89-.5,1.7-1.68,4.52-.94,6.2,1.49-2.48,2.71-5.13,4.22-7.61-.15,1.83-1.42,4.5-.61,6.43.85-1.43,1.58-3,2.33-4.49-.63,3.21-2.19,6.3-2.8,9.48a23.69,23.69,0,0,0,3.58-6.08c-.82,2.89-1.64,5.88-2.38,8.75a23.41,23.41,0,0,0,3.22-5,31.75,31.75,0,0,0-2.05,8.5c1.43-1.44,2-3.83,2.87-5.67a37.53,37.53,0,0,0-.93,6.95,15.71,15.71,0,0,0,2.57-7.19Z"/><path class="cls-8" d="M311.37,236.52a16.07,16.07,0,0,0,4.33-4.33c5.81-8.37,33.19-40.41,48.71-71.9,17.82-36.14,22.41-70.44,17-76.13-2.57-2.7-38.9,13.41-59.58,64.14s-22.26,78-21.22,84.15C301.51,237.71,305.62,240.29,311.37,236.52Z"/><path class="cls-9" d="M370.71,108.89a6.08,6.08,0,1,1,8.17-2.67A6.08,6.08,0,0,1,370.71,108.89Z"/><path class="cls-2" d="M371.61,107.12a4.09,4.09,0,1,1,5.5-1.8A4.09,4.09,0,0,1,371.61,107.12Z"/><path class="cls-9" d="M373.5,106.63a.93.93,0,0,1-.42-1.26.94.94,0,0,1,1.67.85A.92.92,0,0,1,373.5,106.63Z"/><path class="cls-2" d="M346.13,110.64c.21-.32,5.92,5.23,15,8.08S378,120.51,378,120.9c0,.12-1.89.59-5,.69a37.37,37.37,0,0,1-23.15-7.45C347.31,112.22,346,110.72,346.13,110.64Z"/><path class="cls-2" d="M344.8,124c.28-.14,4.08,7,8.49,15.9s7.77,16.27,7.49,16.41-4.09-7-8.5-15.91S344.52,124.11,344.8,124Z"/><path class="cls-2" d="M332.18,146.11c0-.16,1.78-.67,4.71-1.49s7-1.94,11.38-3.33,8.37-2.78,11.23-3.8,4.65-1.64,4.71-1.48-1.61,1-4.41,2.23-6.75,2.73-11.19,4.13a118.63,118.63,0,0,1-11.53,3C334.09,146,332.21,146.26,332.18,146.11Z"/><path class="cls-2" d="M329.26,154.08c.28-.16,3.77,5.68,8.27,12.75s8.29,12.73,8,12.92-1.24-1.21-2.89-3.41-3.83-5.34-6.09-8.9-4.16-6.86-5.46-9.29S329.12,154.15,329.26,154.08Z"/><path class="cls-2" d="M321,175.63c0-.16,1.87-.89,5-2l12.12-4.45,12.06-4.62c3.09-1.19,5-1.9,5.08-1.75s-1.75,1.1-4.76,2.49-7.24,3.17-12,4.94-9.09,3.21-12.27,4.15S321,175.77,321,175.63Z"/><path class="cls-2" d="M319.44,180.91c.28-.15,3,4.53,6.18,10.45s5.45,10.85,5.17,11-3-4.53-6.18-10.45S319.16,181.05,319.44,180.91Z"/><path class="cls-2" d="M313.93,197.44c-.08-.33,5.95-1.82,13.08-4.51s12.65-5.51,12.81-5.22-5.18,3.58-12.41,6.28S314,197.72,313.93,197.44Z"/><path class="cls-2" d="M309.62,202.34c.28-.13,2.45,4,4.84,9.21s4.08,9.54,3.8,9.67-2.45-4-4.84-9.2S309.33,202.47,309.62,202.34Z"/><path class="cls-2" d="M302.69,222.31c-.12-.32,5.06-2.28,11-5.59s10.33-6.66,10.54-6.39-3.94,4-10,7.38S302.76,222.58,302.69,222.31Z"/><path class="cls-1" d="M151.64,185.09s17.52,2.66,27,14.37,11.86,20.21,11.86,20.21,5.87.44,13.89-4.27,10.95-10.74,10.95-10.74-4.81-4.51-12.71-18-.27-31.33-.27-31.33l-8.86-1.49s-4.09,14-4.06,23.59l-10.48-17.86-11.87,7,11,18.77c-9.05-7-21.92-8.69-21.92-8.69Z"/><g class="cls-10"><path d="M151.64,185.09s17.52,2.66,27,14.37,11.86,20.21,11.86,20.21,5.87.44,13.89-4.27,10.95-10.74,10.95-10.74-4.81-4.51-12.71-18-.27-31.33-.27-31.33l-8.86-1.49s-4.09,14-4.06,23.59l-10.48-17.86-11.87,7,11,18.77c-9.05-7-21.92-8.69-21.92-8.69Z"/></g><path class="cls-11" d="M151.92,197.35c-10.61,7.91-22.81,3.64-26.94-6.53-4.08,1.68-17.42.05-21.24-12.13-3.24-10.32,4.76-19.67,13.12-22.39a20.53,20.53,0,0,1,21.32-32.45,25.24,25.24,0,0,1,45.18-15.16c3.22-8,13.63-12.15,21.48-8.6s11.58,14.12,7.7,21.82a17.14,17.14,0,0,1,11.06,30.66c-5.66,4.4-12.68,5.58-18.63,1.57-1.6,4.53-7.57,7-12.37,7.31a12.61,12.61,0,0,1-11.77-6.83c.52,6.18-3.45,11.68-8.38,15.43s-9,3.17-16.37,1.12C161.64,182.64,161,190.59,151.92,197.35Z"/><g class="cls-10"><path d="M185.89,129.31c-.1.07-.61-.61-1.75-1.59a13.67,13.67,0,0,0-5.59-2.76,11.83,11.83,0,0,0-14.87,10.1,12,12,0,0,0,.7,6.32l.9,2.18-1.91-1.37A9.54,9.54,0,0,0,155,141a9.1,9.1,0,0,0-5.21,4.44c-1.86,3.66-1,6.33-1.23,6.31a3.51,3.51,0,0,1-.45-1.75A9.89,9.89,0,0,1,149,145a9.79,9.79,0,0,1,5.62-5.17,10.63,10.63,0,0,1,9.5,1.25l-1,.82a13.21,13.21,0,0,1-.84-7.06A13.65,13.65,0,0,1,169,125a13.26,13.26,0,0,1,9.77-.94,12.89,12.89,0,0,1,5.72,3.32A5.42,5.42,0,0,1,185.89,129.31Z"/></g><g class="cls-10"><path d="M124,185.44c-.13.07-.77-.66-1.1-2.18a9,9,0,0,1,5.4-9.71c1.46-.52,2.42-.37,2.43-.21s-.84.43-2,1.1a9.87,9.87,0,0,0-4.84,8.71C123.88,184.5,124.17,185.34,124,185.44Z"/></g><rect class="cls-12" x="0.2" y="288.57" width="447.43" height="66.07"/><rect class="cls-12" x="0.2" y="222.5" width="447.43" height="66.07"/><rect class="cls-12" x="0.2" y="354.64" width="447.43" height="66.07"/><path class="cls-13" d="M447.82,356c0,.49-100.26.89-223.9.89S0,356.5,0,356s100.23-.89,223.92-.89S447.82,355.52,447.82,356Z"/><path class="cls-13" d="M447.82,288.57c0,.49-100.26.89-223.9.89S0,289.06,0,288.57s100.23-.89,223.92-.89S447.82,288.08,447.82,288.57Z"/><rect class="cls-12" x="0.2" y="156.43" width="447.43" height="66.07"/><path class="cls-13" d="M447.82,222.5c0,.49-100.26.89-223.9.89S0,223,0,222.5s100.23-.89,223.92-.89S447.82,222,447.82,222.5Z"/><path class="cls-13" d="M447.82,156.43c0,.49-100.26.89-223.9.89S0,156.92,0,156.43s100.23-.89,223.92-.89S447.82,155.94,447.82,156.43Z"/><g class="cls-10"><path d="M68.28,222.71c-.26.2-2.85-3.44-7.87-8.52A89.57,89.57,0,0,0,38,197.85a89.83,89.83,0,0,0-26.37-8.56c-7-1.09-11.52-1-11.52-1.38a10.65,10.65,0,0,1,3.13-.28,56.91,56.91,0,0,1,8.56.42,76.69,76.69,0,0,1,12.49,2.49,87.56,87.56,0,0,1,14.52,5.73A87.47,87.47,0,0,1,52,204.67a77.18,77.18,0,0,1,9.34,8.65A58.5,58.5,0,0,1,66.68,220,10.7,10.7,0,0,1,68.28,222.71Z"/></g><g class="cls-10"><path d="M244.45,176.44a10.46,10.46,0,0,1-1.5,1.64c-1.06,1-2.51,2.6-4.64,4.37A115.34,115.34,0,0,1,219.23,196,124,124,0,0,1,74.71,181.27,116.59,116.59,0,0,1,58.77,164.1c-1.72-2.16-2.81-4-3.65-5.22A10.65,10.65,0,0,1,54,157a10.18,10.18,0,0,1,1.43,1.7c.93,1.11,2.11,2.91,3.91,5A129.73,129.73,0,0,0,104.37,199a121.44,121.44,0,0,0,82.22,8.4,129.77,129.77,0,0,0,51.27-25.52c2.19-1.68,3.7-3.2,4.84-4.11A11.22,11.22,0,0,1,244.45,176.44Z"/></g><g class="cls-10"><path d="M446.53,215.86a9.75,9.75,0,0,1-2.08-.57l-5.83-2c-2.51-.9-5.6-2-9.25-3s-7.74-2.42-12.4-3.45l-7.27-1.78c-2.53-.61-5.21-1-8-1.59-5.48-1.19-11.43-1.93-17.66-2.84a293.57,293.57,0,0,0-40.91-2A293.82,293.82,0,0,0,302.43,203c-6.17,1.25-12.07,2.33-17.48,3.83-2.7.72-5.35,1.3-7.85,2L270,211.08c-4.6,1.3-8.61,2.9-12.18,4.15s-6.62,2.45-9.08,3.5L243,221a10.71,10.71,0,0,1-2,.69,9.15,9.15,0,0,1,1.89-1l5.59-2.61c2.42-1.14,5.42-2.47,9-3.79s7.56-3,12.15-4.42l7.16-2.31c2.49-.79,5.15-1.41,7.87-2.16,5.42-1.57,11.34-2.71,17.54-4a280.14,280.14,0,0,1,41-4.46,281.45,281.45,0,0,1,41.17,2.12c6.26.95,12.24,1.75,17.74,3,2.76.59,5.44,1.06,8,1.7l7.27,1.9c4.67,1.12,8.76,2.59,12.39,3.73s6.71,2.26,9.19,3.27l5.73,2.28A9.58,9.58,0,0,1,446.53,215.86Z"/></g><g class="cls-10"><path d="M445.7,175.41c0,.13-1.38.41-3.93.83a108.42,108.42,0,0,1-10.88,1.18A152.86,152.86,0,0,1,360.36,165c-4.23-1.87-7.58-3.54-9.82-4.83a18,18,0,0,1-3.4-2.12c.14-.28,5.19,2.36,13.7,5.79a176.45,176.45,0,0,0,34.36,9.83,176.21,176.21,0,0,0,35.64,2.53C440,175.86,445.65,175.1,445.7,175.41Z"/></g><g class="cls-10"><path d="M68.28,353.7c-.26.19-2.85-3.45-7.87-8.53A89.57,89.57,0,0,0,38,328.83a89.47,89.47,0,0,0-26.37-8.55c-7-1.1-11.52-1.06-11.52-1.39a11.11,11.11,0,0,1,3.13-.28,56.91,56.91,0,0,1,8.56.42,76.69,76.69,0,0,1,12.49,2.49,87.56,87.56,0,0,1,14.52,5.73A87.47,87.47,0,0,1,52,335.65a77.18,77.18,0,0,1,9.34,8.65A58.5,58.5,0,0,1,66.68,351,10.64,10.64,0,0,1,68.28,353.7Z"/></g><g class="cls-10"><path d="M244.45,307.42a10.46,10.46,0,0,1-1.5,1.64c-1.06,1-2.51,2.6-4.64,4.37A115.34,115.34,0,0,1,219.23,327,124,124,0,0,1,74.71,312.25a116.59,116.59,0,0,1-15.94-17.17c-1.72-2.16-2.81-4-3.65-5.22A10.24,10.24,0,0,1,54,288a10.18,10.18,0,0,1,1.43,1.7c.93,1.12,2.11,2.91,3.91,5A129.73,129.73,0,0,0,104.37,330a121.44,121.44,0,0,0,82.22,8.4,129.41,129.41,0,0,0,51.27-25.52c2.19-1.68,3.7-3.19,4.84-4.1A11,11,0,0,1,244.45,307.42Z"/></g><g class="cls-10"><path d="M446.53,346.84a9.75,9.75,0,0,1-2.08-.57l-5.83-2c-2.51-.9-5.6-2-9.25-3s-7.74-2.42-12.4-3.46l-7.27-1.78c-2.53-.61-5.21-1-8-1.59-5.48-1.19-11.43-1.93-17.66-2.84a293.57,293.57,0,0,0-40.91-2A293.82,293.82,0,0,0,302.43,334c-6.17,1.26-12.07,2.33-17.48,3.84-2.7.71-5.35,1.29-7.85,2L270,342.06c-4.6,1.3-8.61,2.91-12.18,4.15s-6.62,2.46-9.08,3.5L243,352a9.14,9.14,0,0,1-2,.69,9.79,9.79,0,0,1,1.89-1l5.59-2.61c2.42-1.14,5.42-2.47,9-3.79s7.56-3,12.15-4.41l7.16-2.32c2.49-.79,5.15-1.4,7.87-2.15,5.42-1.57,11.34-2.71,17.54-4a280.14,280.14,0,0,1,41-4.46A281.45,281.45,0,0,1,384.29,330c6.26.95,12.24,1.75,17.74,3,2.76.59,5.44,1.06,8,1.7l7.27,1.91c4.67,1.11,8.76,2.58,12.39,3.72s6.71,2.26,9.19,3.27l5.73,2.29A10,10,0,0,1,446.53,346.84Z"/></g><g class="cls-10"><path d="M445.7,306.4a17.39,17.39,0,0,1-3.93.82,108.42,108.42,0,0,1-10.88,1.18,152.52,152.52,0,0,1-70.53-12.46c-4.23-1.87-7.58-3.54-9.82-4.83s-3.46-2-3.4-2.12c.14-.28,5.19,2.37,13.7,5.79a172.29,172.29,0,0,0,70,12.36C440,306.84,445.65,306.09,445.7,306.4Z"/></g><g class="cls-10"><path d="M378.38,222.94c.27-.19,2.85,3.45,7.88,8.52A88,88,0,0,0,435,256.36c7.06,1.09,11.53,1.05,11.52,1.38a10.68,10.68,0,0,1-3.13.29,58.4,58.4,0,0,1-8.56-.42,77.67,77.67,0,0,1-12.48-2.49A81.16,81.16,0,0,1,394.69,241a76.44,76.44,0,0,1-9.34-8.66,56.57,56.57,0,0,1-5.36-6.69A10.79,10.79,0,0,1,378.38,222.94Z"/></g><g class="cls-10"><path d="M183.48,287.65a10.36,10.36,0,0,1,.86-2.17,21.09,21.09,0,0,1,4.25-5.17c4.27-4,11.71-8.21,21.42-11.77a211.46,211.46,0,0,1,35.1-9.23,284.55,284.55,0,0,1,44.19-4.62c31.7-.27,59.9,7.18,78.87,15.29a114.16,114.16,0,0,1,21.38,11.89l3.08,2.31,2.12,1.86a11.34,11.34,0,0,1,1.67,1.61,11.93,11.93,0,0,1-1.9-1.34c-.65-.49-1.38-1.06-2.22-1.71l-3.14-2.16a124,124,0,0,0-21.48-11.3,208.22,208.22,0,0,0-78.35-14.67,295.49,295.49,0,0,0-43.93,4.45,222.51,222.51,0,0,0-35,8.8c-9.68,3.38-17.08,7.37-21.39,11.1S183.67,287.77,183.48,287.65Z"/></g><g class="cls-10"><path d="M.13,229.79a9.35,9.35,0,0,1,2.08.58l5.83,2c2.52.91,5.6,2,9.26,3s7.74,2.42,12.4,3.45L37,240.54c2.53.61,5.21,1,8,1.6,5.49,1.19,11.43,1.93,17.67,2.83a294.89,294.89,0,0,0,40.91,2,294,294,0,0,0,40.74-4.29c6.17-1.26,12.07-2.34,17.47-3.84,2.71-.71,5.36-1.29,7.85-2l7.16-2.2c4.59-1.29,8.6-2.9,12.18-4.15s6.62-2.45,9.07-3.5l5.71-2.29a9.28,9.28,0,0,1,2-.69,10.62,10.62,0,0,1-1.9,1l-5.58,2.61c-2.43,1.15-5.42,2.48-9,3.79s-7.56,3-12.15,4.42L170,238.08c-2.5.79-5.15,1.41-7.87,2.16-5.42,1.57-11.34,2.71-17.55,4a282.61,282.61,0,0,1-41,4.46,281.38,281.38,0,0,1-41.17-2.12c-6.27-.95-12.24-1.76-17.74-3-2.76-.59-5.44-1.05-8-1.7L29.38,240c-4.66-1.12-8.75-2.58-12.38-3.72S10.29,234,7.81,233L2.08,230.7A9.58,9.58,0,0,1,.13,229.79Z"/></g><g class="cls-10"><path d="M1,270.24a17.47,17.47,0,0,1,3.93-.83c2.54-.44,6.26-.86,10.87-1.17A152.53,152.53,0,0,1,86.31,280.7a105.08,105.08,0,0,1,9.81,4.83c2.25,1.26,3.47,2,3.41,2.12-.14.27-5.2-2.37-13.71-5.79A176.26,176.26,0,0,0,51.47,272a176.11,176.11,0,0,0-35.64-2.52C6.66,269.79,1,270.55,1,270.24Z"/></g><g class="cls-10"><path d="M378.38,357.27c.27-.19,2.85,3.45,7.88,8.52A87.78,87.78,0,0,0,435,390.69c7.06,1.1,11.53,1.06,11.52,1.38,0,.13-1.1.22-3.13.29a58.4,58.4,0,0,1-8.56-.42,76.59,76.59,0,0,1-12.48-2.49,81.16,81.16,0,0,1-27.67-14.13,75.66,75.66,0,0,1-9.34-8.66A57.45,57.45,0,0,1,380,360,10.93,10.93,0,0,1,378.38,357.27Z"/></g><g class="cls-10"><path d="M183.48,422a10.36,10.36,0,0,1,.86-2.17,21.09,21.09,0,0,1,4.25-5.17c4.27-4,11.71-8.2,21.42-11.77a211.46,211.46,0,0,1,35.1-9.23A284.55,284.55,0,0,1,289.3,389c31.7-.27,59.9,7.18,78.87,15.29a114.16,114.16,0,0,1,21.38,11.89l3.08,2.31,2.12,1.86a11.34,11.34,0,0,1,1.67,1.61,11.34,11.34,0,0,1-1.9-1.33l-2.22-1.72-3.14-2.16a124,124,0,0,0-21.48-11.3,208.22,208.22,0,0,0-78.35-14.67,296.83,296.83,0,0,0-43.93,4.45,222.51,222.51,0,0,0-35,8.8c-9.68,3.39-17.08,7.37-21.39,11.11S183.67,422.11,183.48,422Z"/></g><g class="cls-10"><path d="M.13,364.12a11,11,0,0,1,2.08.58l5.83,2c2.52.9,5.6,2,9.26,3s7.74,2.42,12.4,3.45L37,374.88c2.53.6,5.21,1,8,1.59,5.49,1.19,11.43,1.93,17.67,2.83a293.35,293.35,0,0,0,40.91,2A294,294,0,0,0,144.24,377c6.17-1.26,12.07-2.34,17.47-3.84,2.71-.71,5.36-1.29,7.85-2l7.16-2.19c4.59-1.3,8.6-2.91,12.18-4.16s6.62-2.45,9.07-3.49l5.71-2.3a9.28,9.28,0,0,1,2-.69,11,11,0,0,1-1.9,1l-5.58,2.6c-2.43,1.15-5.42,2.48-9,3.79s-7.56,3-12.15,4.42L170,372.42c-2.5.79-5.15,1.4-7.87,2.15-5.42,1.57-11.34,2.71-17.55,4a282.61,282.61,0,0,1-41,4.46,281.38,281.38,0,0,1-41.17-2.12c-6.27-.95-12.24-1.75-17.74-3-2.76-.6-5.44-1.06-8-1.71l-7.28-1.9c-4.66-1.12-8.75-2.58-12.38-3.72s-6.71-2.27-9.19-3.27L2.08,365A9.58,9.58,0,0,1,.13,364.12Z"/></g><g class="cls-10"><path d="M1,404.57a17.47,17.47,0,0,1,3.93-.83c2.54-.44,6.26-.86,10.87-1.17A152.53,152.53,0,0,1,86.31,415a107.67,107.67,0,0,1,9.81,4.83c2.25,1.26,3.47,2,3.41,2.12-.14.28-5.2-2.37-13.71-5.79a176.26,176.26,0,0,0-34.35-9.84,176.84,176.84,0,0,0-35.64-2.52C6.66,404.13,1,404.88,1,404.57Z"/></g><path class="cls-7" d="M293.37,157.34H221.19a17.26,17.26,0,0,0,9.27,16.22,16.89,16.89,0,0,0,18.29-2.44c.42,6.54,2.1,13.17,6,18.47s10.12,9.09,16.68,8.89c8.66-.28,15.91-7.39,19.07-15.47S293.51,166,293.37,157.34Z"/><path class="cls-7" d="M316.63,199.6a8.86,8.86,0,1,1-8.86-8.86A8.86,8.86,0,0,1,316.63,199.6Z"/></svg>