<svg id="Layer_1" data-name="Layer 1" xmlns="http://www.w3.org/2000/svg" viewBox="0 0 274.4 231.58"><defs><style>.cls-1{fill:#3c64a0;}.cls-2{fill:#7ca0d9;}.cls-3{fill:#ff6867;}.cls-4{fill:#fff;}.cls-5{fill:#ef8137;}.cls-6{fill:#fcab3f;}.cls-7{fill:none;stroke:#fff;stroke-linecap:round;stroke-linejoin:round;stroke-width:1.8px;}</style></defs><path class="cls-1" d="M237.43,134.56a97,97,0,1,1-97-97,97,97,0,0,1,97,97"/><path class="cls-2" d="M155.33,229.22a3.14,3.14,0,0,1,.94-.5,6.12,6.12,0,0,0,3.49-4,4.56,4.56,0,0,1,.42-1.26c.87-1.4,3.26-1,4.28-2.25.36-.46.48-1.07.83-1.53s1-.79,1.39-1.29c.72-.9.53-2.19.68-3.34.33-2.55,2.4-4.55,3-7a5.89,5.89,0,0,1,.36-1.26,5,5,0,0,1,.87-1.09c1.36-1.45,3-3.67,3-5.66,0-.36,0-.72,0-1.07-.68-.74-2.05-.16-2.82-.8-.4-.35-.51-.94-.89-1.32a2.46,2.46,0,0,0-1.13-.49c-1.74-.42-3.62-.84-5.3-.2a4.54,4.54,0,0,1-1.38.44,3.72,3.72,0,0,1-1.53-.49,8.14,8.14,0,0,0-6.17-.22,8.55,8.55,0,0,1-1.94.66,1.76,1.76,0,0,1-1.79-.72c-.58-1,.51-2.19,1.47-2.88l-.51-1.52c-1.27-.41-1.82-1.84-2.67-2.86a5.3,5.3,0,0,0-5.55-1.63,5.8,5.8,0,0,1-2.05.52,4.66,4.66,0,0,1-2.38-1.41,9.17,9.17,0,0,0-6-2.08,53.25,53.25,0,0,1-.22-5.36c-.93-.63-1.78,1.1-2.88,1.32a3,3,0,0,1-1.78-.53,3.16,3.16,0,0,0-3.73.5,4.44,4.44,0,0,1-.81,1c-1,.71-2.1-.78-2.7-1.86a2.43,2.43,0,0,0-.47,1.71,2.28,2.28,0,0,0-1-.17,4.46,4.46,0,0,0-.35-2.09,1.59,1.59,0,0,0-1.76-.89,11.81,11.81,0,0,1-.3,4.51c-.65.23-1.32-.45-1.42-1.13a10.31,10.31,0,0,1,.15-2.07c0-.69-.28-1.51-1-1.65-.08,1.76-1.78,2.93-3.18,4s-2.81,2.82-2.08,4.43c-.76-1.43-2.76-1.48-4.37-1.34l-4.46.39a5.42,5.42,0,0,0-2.31-3.64,3.25,3.25,0,0,1-1-1.07,3.89,3.89,0,0,1,.08-2.26A5.3,5.3,0,0,0,97,173.42a2.1,2.1,0,0,0-.72-.54c-.81-.31-1.64.3-2.37.77s-1.83.79-2.35.1a1.82,1.82,0,0,1-.28-.71,23.46,23.46,0,0,1-1-7.78,7.18,7.18,0,0,0,.06-2.12,2.78,2.78,0,0,0-4.86-1.22c-1.08,1.3-.77,3.2-.64,4.88a2.43,2.43,0,0,1-.45,1.92,1.92,1.92,0,0,1-2.55-.25,14.58,14.58,0,0,1-1.62-2.32A6,6,0,0,0,77,163.92,10.36,10.36,0,0,0,76,160.58c-1.53-3-1.09-6.51-.61-9.81a8.66,8.66,0,0,1,.69-2.7,4.5,4.5,0,0,1,4.4-2.4c.85.09,1.65.43,2.49.59a2.81,2.81,0,0,0,2.43-.48,1.39,1.39,0,0,0-.15-2.18c1.2-.74,2.76-1.49,3.92-.7,1,.65,1.14,2.07,2.11,2.71.65.43,1.53.41,2.15.89a3.16,3.16,0,0,1,.88,1.29c.48,1,1,2,1.43,3.07a5.09,5.09,0,0,0,1.64,2.27,1.75,1.75,0,0,0,2.47-.45,2.25,2.25,0,0,0-.68-2.31,4.59,4.59,0,0,1-1.39-2.1,8.57,8.57,0,0,0-.11-1.52c-.24-.73-1.07-1.1-1.48-1.76-.76-1.25.26-2.8,1.22-3.9s2-2.66,1.19-3.89a3.3,3.3,0,0,0,2.52-1.74,9.63,9.63,0,0,0,.94-3c.42-2.2.82-4.62-.26-6.58-.26-.47-.58-1.09-.21-1.47a1.23,1.23,0,0,1,.64-.27,4.73,4.73,0,0,0,3.47-4.89,3.42,3.42,0,0,0,1.69-2l1.41.53c1,0,1.33-1.45,1.15-2.47s-.4-2.31.46-2.89a3.94,3.94,0,0,1,1.11-.38,7.63,7.63,0,0,0,3.52-2.79.62.62,0,0,0-.29-.09l-.3.09a.5.5,0,0,1,.3-.09l.44-.12-.15.21a1.46,1.46,0,0,1,.58,1.07c0,.64,0,1.47.63,1.71s1-.17,1.36-.55c1.5-1.56,2.49-3.68,4.37-4.73a4.94,4.94,0,0,0,1.53-1,1.64,1.64,0,0,0-2.28-2.32A2.15,2.15,0,0,1,121,105a1,1,0,0,1-1.35.37,2.44,2.44,0,0,0-3.13-.58c-.65-1-.25-2.39.33-3.46a3.41,3.41,0,0,1,1.49-1.62c.52-.24,1.12-.24,1.65-.46s1-.86.69-1.35c-1.13-.78-2.5.51-3.83.87-.45.12-.92.13-1.37.25-1.79.47-2.7,2.42-3.38,4.15a1.28,1.28,0,0,1-1.75-.87,2.42,2.42,0,0,1,.65-2.09c.5-.58,1.12-1,1.64-1.58a7.57,7.57,0,0,1,1.18-1.22c1.77-1.2,4.67.34,6.08-1.26a7.16,7.16,0,0,1,.8-1,4.08,4.08,0,0,1,1.92-.44c.65-.11,1.38-.69,1.14-1.3a7.44,7.44,0,0,1,2.27-.25c.76-.08,1.62-.52,1.67-1.29.07-1-1.15-1.51-1.47-2.43-.12-.36-.1-.77-.23-1.13-.28-.77-1.13-1.13-1.83-1.54-2-1.22-3.25-3.42-4.35-5.53a9.22,9.22,0,0,1-1.09-2.69c-.19-1-.24-2.35-1.23-2.64-.75-.22-1.48.41-1.89,1.07a5.65,5.65,0,0,1-1.36,1.88,3.65,3.65,0,0,1-2,.41,2.5,2.5,0,0,1,1.9-3.83c.45-.49-.15-1.28-.79-1.44a7.17,7.17,0,0,1-1.93-.36c-.38-.22-.63-.6-1-.82-1.16-.7-2.59.47-4,.4a4.2,4.2,0,0,0-1.53-.09,1.7,1.7,0,0,0-1,1.76,12.85,12.85,0,0,1,.11,2.14c-.14.92-.8,1.68-1,2.58s.46,2.13,1.34,1.85c0,2.18-.24,4.77-2.12,5.87-.63.36-1.41.54-1.82,1.13-1.13,1.62,1.72,3.93.66,5.6a1.8,1.8,0,0,1-1.25.75,2.4,2.4,0,0,1-2.58-2.66c.15-.82.72-1.5.88-2.31A2.47,2.47,0,0,0,95.84,87a3.43,3.43,0,0,0-3.58-3.17c-.65.06-1.45.25-1.85-.26a1.52,1.52,0,0,1-.2-1c0-.85.09-1.7.13-2.56A4.64,4.64,0,0,1,91,77.32a7.19,7.19,0,0,1,1.11-1c1.43-1.22,2.78-3.15,4.62-2.8a3.24,3.24,0,0,1,.6-3.2c.82-.78,2.51-.54,2.76.57.06.29,0,.61.24.82a.9.9,0,0,0,.7.2,4.65,4.65,0,0,0,3.09-1.11,3,3,0,0,0,.9-3c-.21-.62-.66-1.13-.85-1.76s.12-.84.62-1h0c0-.16.12-.29.26-.37a8.25,8.25,0,0,1,2.81-1,3.1,3.1,0,0,1,3.59-3.7c-.66,1.78.94,4.22-.49,5.48-.63.55-1.56.53-2.35.82s-1.48,1.32-.88,1.91A8.73,8.73,0,0,1,112,70.54a9.9,9.9,0,0,0,2.26,2.13,3.18,3.18,0,0,0,3,0c-.31-.91-.63-1.83-1-2.75l-1.17,0a.87.87,0,1,1,1.33-.92,1.26,1.26,0,0,0,1.12-.29c.12-.7.25-1.41.37-2.12l-1.3-.35c0-.4,0-.78,0-1.17l1.6.29a2.25,2.25,0,0,0,1.82,1.56c.14-1.35-.76-2.56.43-4,.55-.69-.42-.66-1-1.31-1.49-.07-2.42-1.09-3.83-.6,1.06-1.83,2.07-4.35.57-5.85-.49.2-1-.32-1-.84a2.53,2.53,0,0,1,.6-1.42c-.36-.72-1.32-.85-2.13-.89q-4.05-.16-8.1-.18c.93-.76-.09-2.43-1.29-2.44a4.17,4.17,0,0,0-2.93,1.88,1.74,1.74,0,0,0-.57,1.42c-.77-.36-1.6.42-2,1.19s-.64,1.7-1.41,2.06c-.44.2-1,.17-1.36.47s-.5,1.12-.6,1.74-.56,1.35-1.18,1.19a3.5,3.5,0,0,1-.86-3.55l-2.24-.75c0-1,1.1-1.59,1.94-2.14s1.67-1.63,1.12-2.47L93,49.77A97.53,97.53,0,0,0,64.86,73.42c-.36.5-.73,1-1.08,1.5A7.32,7.32,0,0,0,69,70.14c1,0,1.59,1.29,1.26,2.26a8.11,8.11,0,0,1-1.82,2.42,15.25,15.25,0,0,0-1.81,2.91l-1.38,2.64c-.89,1.68-.61,3.37-1.49,5-1.43,2.72-4,5.44-5.43,8.16a10.12,10.12,0,0,0-.64,2,11.66,11.66,0,0,0,0,3.34c0,1.12-.5,2.43-1.59,2.66-1.2,2.29-1,5.33-1.63,7.84-.5,2-1.83,3.52-2.33,5.54a22.07,22.07,0,0,0-1,7.28,5.27,5.27,0,0,0,.48,1.93c.29.56.72,1,1,1.57,1,1.6,1.12,4.1-.14,5.48a8.24,8.24,0,0,0,.93,5.69,25.53,25.53,0,0,1,1.36,2.23,8.64,8.64,0,0,1,.63,2.79,35.13,35.13,0,0,1,.08,6,4.5,4.5,0,0,0,.44,3c.44.6,1.2,1,1.48,1.65.19.49.12,1.08.43,1.51s1.18.57,1.74.94a5.19,5.19,0,0,1,1.2,1.62c.38.56,1.08,1,1.7.76q-2.21-4.91-4.16-9.92a5.17,5.17,0,0,1-.43-1.57c0-.58.14-1.16.12-1.74-.07-2-2.37-3.83-1.66-5.75a3.11,3.11,0,0,1,2.5,2.4,31.73,31.73,0,0,1,.51,3.65,16.82,16.82,0,0,0,1,3.15l.75,2c1.08,2.88,3,5.71,3.43,8.76a8.9,8.9,0,0,0,2.34,5c.92,1,2.1,1.79,2.6,3,.24.6.31,1.25.56,1.85a6.43,6.43,0,0,0,3.09,2.76l2.09,1.17c1.63.91,3.42,1.85,5.26,1.58a7.08,7.08,0,0,1,1.7-.22c.58.06,1.55-.15,1.5.42a2.59,2.59,0,0,1,.91.74,13.28,13.28,0,0,0,7.3,3.9,5.16,5.16,0,0,1,2.32,2.3,3.76,3.76,0,0,0,1,1.58c.26.17.58.25.85.41.65.39.91,1.2,1.33,1.83s.81.66,1.39.17c-.37.07,2.13,1.9,2.46,3a1.77,1.77,0,0,1,2.78.35c.13.24.19.52.33.75a1.36,1.36,0,0,0,2.53-.58,1,1,0,0,1,.08-.49.55.55,0,0,1,.34-.23c.7-.18,1.35.46,1.7,1.11a3.81,3.81,0,0,0,1.25,1.75,3.39,3.39,0,0,1,.63.32c.71.54.2,1.67.35,2.55s.88,1.38,1.08,2.17c.49,1.91-2.35,3.69-2.4,5.66-.07,2.25,3.44,3.18,3.66,5.42.08.74-.2,1.62.33,2.13.37.36,1,.34,1.46.44a5.11,5.11,0,0,1,2.28,1.29,23.48,23.48,0,0,1,4.3,4.87,3.7,3.7,0,0,0,.84,1,3.81,3.81,0,0,0,1.38.57l5.78,1.5a4,4,0,0,1,1.12.42c.86.53,1.2,1.66,2.06,2.18.52.31,1.16.37,1.71.64,1.21.62,1.62,2.09,2.15,3.34a6.08,6.08,0,0,0,3.58,3.69,5.44,5.44,0,0,1,1.31.43c.84.51,1.06,1.66,1.75,2.35a96.67,96.67,0,0,0,10.7-.95,1.39,1.39,0,0,0,.19-.15c.32-.35.46-.84.8-1.16"/><path class="cls-2" d="M131,99.36c-.28-.09-.61-.16-.75-.41a1,1,0,0,1-.05-.58c.05-.44.11-.88.16-1.32a.77.77,0,0,0,0-.37c-.17-.34-.68-.18-1.06-.15a1.49,1.49,0,0,1-1.26-.7,4.4,4.4,0,0,1-.56-1.38.58.58,0,0,0-.75.09,1.89,1.89,0,0,0-.38.73l-.93,2.79a2.63,2.63,0,0,0-.79,3.34,1,1,0,0,0,1.79-.26,1.65,1.65,0,0,1,1.57,0,3.82,3.82,0,0,0,4,1.64,1.33,1.33,0,0,0,.69-.34,1.3,1.3,0,0,0,.16-1.31A2.83,2.83,0,0,0,131,99.36"/><path class="cls-2" d="M140.17,51.08a1.59,1.59,0,0,0-1.93.22L137.68,50l-1.28-.18A6.41,6.41,0,0,0,130,44.4a6.5,6.5,0,0,1-2.37,0c-.76-.25-1.34-1.22-.86-1.85,1.15-.93,2.82-.45,4.24,0a28.84,28.84,0,0,0,6.46,1.11,4.73,4.73,0,0,0,2-.23,1.75,1.75,0,0,0,1.13-1.59A63.66,63.66,0,0,0,128.67,41a2.14,2.14,0,0,0-2.27-1.17,6.33,6.33,0,0,0-2.51,1.07l-2.21,1.36c-1.25.76-2.49,1.52-3.79,2.18a16.52,16.52,0,0,1-7.84,2,4,4,0,0,1-2.51,2.27c0,.75.93,1.17,1.67,1.08a19.41,19.41,0,0,1,2.2-.51c1.13,0,2.13.81,3.26.84,1.29,0,2.34-.94,3.43-1.63s2.74-1,3.51,0a5,5,0,0,1,.49,2.34c.11.8.76,1.71,1.54,1.48a9.35,9.35,0,0,0-.1,3.87h1.6a5.28,5.28,0,0,1,0,3.87c.29-.18.68.1.76.43a2.33,2.33,0,0,1-.11,1c-.48,2.26,1.14,4.37,2.66,6.1A5.81,5.81,0,0,0,130,69a10.8,10.8,0,0,1,1.08.53,6.65,6.65,0,0,1,1.32,1.64A4.79,4.79,0,0,0,136.74,73c.67-2,.12-4.21-.15-6.33s-.13-4.55,1.48-5.94a1.75,1.75,0,0,0,.53-.59c.15-.39-.08-.83-.09-1.25,0-1.35,1.83-1.77,2.7-2.8a3.35,3.35,0,0,0,.25-3.4,3.15,3.15,0,0,0-1.29-1.62"/><path class="cls-2" d="M164.52,57.82a1.77,1.77,0,0,0-1.25-.82,3.2,3.2,0,0,1-.82-.14c-.46-.22-.69-.86-1.2-.91-.2,0-.52-.11-.41-.27h-1.39c-.44.4,0,1.32-.48,1.67a.73.73,0,0,1-.46.11c-.43,0-.84-.2-1.28-.21a1.52,1.52,0,0,0-1.47,1.54l1.69,0c.21,0,.45,0,.54.21a.91.91,0,0,1,0,.37,1,1,0,0,0,.55.87,3.31,3.31,0,0,0,1,.3.45.45,0,0,0,.06.59,1.24,1.24,0,0,0,.58.3l.94.3a1.93,1.93,0,0,0,1,.13c.42-.09.73-.44,1.13-.6a4.41,4.41,0,0,1,1.7,0,1.53,1.53,0,0,0,.73-.13,1,1,0,0,0,.36-1.43,2.29,2.29,0,0,1-1.52-1.84"/><path class="cls-2" d="M159.78,42.44a2,2,0,0,0-2.2,1.18,7.35,7.35,0,0,0,3.44.53,16.59,16.59,0,0,1,.52,3.06,71.43,71.43,0,0,1,7.17-.09,1,1,0,0,0-.17,1.38,5,5,0,0,0,1.1,1.09,4.62,4.62,0,0,1,1.43,2.67,2.93,2.93,0,0,1,4.58,1.4,2.25,2.25,0,0,0,.32.92c.32.38.94.38,1.32.72a2.73,2.73,0,0,1,.53,1.08A2.92,2.92,0,0,0,181.33,58a2.37,2.37,0,0,1,1-.24c.58.06.91.67,1.25,1.15a8.9,8.9,0,0,0,3.6,2.56,2.1,2.1,0,0,0,1.13.29c.38,0,.76-.42.65-.8s-.36-.44-.48-.69c-.25-.52.37-1.15.93-1a1.27,1.27,0,0,1,.9,1.31,2.91,2.91,0,0,1-.67,1.57,5.41,5.41,0,0,1,2.5,1.87,10.17,10.17,0,0,0,.55,1c.92,1.23,3.2,1,3.75,2.46a5.29,5.29,0,0,1,.07,1.78,6.2,6.2,0,0,0,.78,2.49,1.62,1.62,0,0,0,.65.84c.51.26,1.18,0,1.67.26s.49,1,.31,1.56a4.09,4.09,0,0,0-.43,1.65c.06.45.34.84.42,1.28.24,1.38-1.46,2.4-1.56,3.79a2.24,2.24,0,0,0,1.47,2.11,4.26,4.26,0,0,0,2.71,0,1.62,1.62,0,0,1,.81-.09c.95.27.37,1.78.82,2.65.26.52.87.75,1.3,1.14a2.2,2.2,0,0,1,0,3.16A13.75,13.75,0,0,1,203,91.26c-.78.45-1.3,1.67-.58,2.21-.17.9.89,1.38,1.21,2.25.14.42,0,.89.18,1.3.36.86,1.74.83,2.16,1.66.26.52.05,1.25.45,1.68s.74.33,1.06.58c.77.61.15,1.82.13,2.81,0,1.57,1.76,2.67,3.32,2.52a5.36,5.36,0,0,0,3.67-2.27,3.16,3.16,0,0,0,.71-1.72,1.5,1.5,0,0,0-.95-1.48l.51-2.27a4.26,4.26,0,0,1-2-4.19,4.71,4.71,0,0,0,.19-1.81,2.18,2.18,0,0,0-.25-.61c-.52-.94-1.34-1.85-1.16-2.91s1.37-1.77,1.43-2.84a1.86,1.86,0,0,1,.1-.82c.34-.57,1.26-.09,1.55.51s.47,1.4,1.11,1.59c.42.13.9-.08,1.31.09a2,2,0,0,1,.61.52,8.49,8.49,0,0,0,.9.68,6.8,6.8,0,0,1,2.59,3.89,1.21,1.21,0,0,0,.3.68c.5.45,1.29-.34,1.17-1s-.68-1.14-1-1.71c-.19-.3-.3-.75,0-1a.67.67,0,0,1,.73,0c.73.41.93,1.33,1.24,2.11s1,1.6,1.83,1.34.85-1.6.61-2.53a33.29,33.29,0,0,0-1.22-3.78c-1.37-2.43-2.86-4.8-4.43-7.1a46.42,46.42,0,0,1-4.66-6.1l-.24-.43q-2.57-3.14-5.38-6c-.4-.26-.8-.52-1.19-.8-2.45-1.74-4.39-4.13-6.47-6.33-2-1.66-4.06-3.25-6.19-4.75a19.36,19.36,0,0,1-4.3-2.38,13.5,13.5,0,0,1-1.31-1.31,96.82,96.82,0,0,0-26.12-11,4,4,0,0,1-1.34,1c-1,.29-3,0-3.45.94"/><path class="cls-2" d="M196,73.21l-1-1.08c-.79-.84-1.82-1.76-2.94-1.49l-3.9-4a4.27,4.27,0,0,0-.63-.57c-.36-.24-.8-.36-1.14-.63s-.55-.82-.26-1.15a1.23,1.23,0,0,1-1.34-.8,3.41,3.41,0,0,0-3.23.85c.25-.08.4.33.25.54s-.42.32-.6.5c-.47.49-.1,1.38.51,1.67a3.32,3.32,0,0,0,2,0c-.28,1.06,1.52,1.45,1.92,2.47a2.33,2.33,0,0,1,.12.79c0,1.76.08,3.53.13,5.29a2.9,2.9,0,0,1,3.08.58,4,4,0,0,1,1.22,3c.63.43,1.39-.33,1.75-1s1-1.48,1.71-1.15a3.24,3.24,0,0,0,.94,1.52,2.05,2.05,0,0,0,2.92-1.11,3.65,3.65,0,0,0-.79-3.38,8.88,8.88,0,0,0-.71-.79"/><path class="cls-2" d="M231.59,101.38a9.6,9.6,0,0,0-.85-1.19,2,2,0,0,0-2.44,2.24c.13.67.6,1.25.68,1.93s-.67,1.48-1.21,1a5.15,5.15,0,0,0-2.7-2.18,1.5,1.5,0,0,1-.46-.22,1.29,1.29,0,0,1-.31-.7,19.67,19.67,0,0,0-1.75-4.81c-.37-.71-.94-1.49-1.75-1.46a2.54,2.54,0,0,1-.89,2.13c-.35.29-.77.48-1.14.74a3.8,3.8,0,0,0-1.58,3.4,11.33,11.33,0,0,1,.15,1.29,2.21,2.21,0,0,1-2.6,2c.28.77-1,1.09-1.47,1.77s0,1.68-.47,2.36c-.19.28-.51.48-.58.8s.31.81.48,1.22c.5,1.19-.93,2.49-.6,3.73.12.44.45.81.57,1.25.17.62-.11,1.3.05,1.92a10.46,10.46,0,0,0,.53,1.12,1,1,0,0,1-.14,1.15c.64.61,1.32,1.6.74,2.28-.32.39-1,.49-1.13,1a3.89,3.89,0,0,0-.05.77c-.07.44-.46.75-.71,1.11-.86,1.26-.05,3-.14,4.46-.12,1.88-1.66,3.62-1.2,5.44,1,.27,1,1.66.83,2.68a6.24,6.24,0,0,0,.24,3.71c.37.74,1,1.48.8,2.27-.14.46-.56.84-.52,1.31s.31.65.45,1a3.12,3.12,0,0,1-.34,2.19c-.27.71-.36,1.65.26,2.08,1.41,1,.17,3.66-.69,5.14a2,2,0,0,0-.43,1.13,1.69,1.69,0,0,0,.84,1.11c.78.54,1.66,1.15,1.82,2.08s-.25,1.75.32,2.3,1.28.32,1.65.82a2,2,0,0,1,.22,1.08,5.2,5.2,0,0,0,1.13,2.51,25.14,25.14,0,0,0,2,2.41,3,3,0,0,0,1.82,1.15c1.36.11,2.19-1.41,2.66-2.69l.75-2a1.73,1.73,0,0,1,.47-.78,2.91,2.91,0,0,1,.71-.34,6.12,6.12,0,0,0,1.5-1.34,1.69,1.69,0,0,1,1.82-.53c.86.42.69,1.69.38,2.61l-2,5.85a1.3,1.3,0,0,0-.47,1.46,3,3,0,0,1,.24,1.58,3.09,3.09,0,0,1-.39.74,6,6,0,0,0-.41.93c-.3.75-.63,1.5-1,2.24s-.53,1.19-.8,1.79c-.55,1.25-1.11,2.49-1.75,3.7a29.74,29.74,0,0,1-3.1,4.69c-.56.7-1.16,1.37-1.68,2.11a20.73,20.73,0,0,0-2.48,5,97,97,0,0,0,16.07-94.5"/><path class="cls-2" d="M100.86,150.12c.33.43-.16,1.22.29,1.53a.8.8,0,0,0,.35.11,5.3,5.3,0,0,0,1.32,0,.75.75,0,0,0,.24-.74,1.47,1.47,0,0,0-.23-.45,6.9,6.9,0,0,0-.74-.88,1.34,1.34,0,0,0-.91-.49c-.35,0-.69.42-.5.71,0,.08.13.14.18.22"/><path class="cls-2" d="M102.59,154.55a2.91,2.91,0,0,1-.17-.3.84.84,0,0,0-.88-.35.82.82,0,0,0-.6.73c-.1.09,0,.27.09.34s.27.08.39.15c.41.22.31.87.61,1.22a.77.77,0,0,0,1.2-.19,1.09,1.09,0,0,0-.3-1.29,1.67,1.67,0,0,1-.34-.31"/><path class="cls-2" d="M115.48,163.38c-.43-.13-.9,0-1.33-.17-.58-.16-1-.65-1.63-.71-.79-.08-1.47.64-2.27.63-1,0-1.72-1.18-2.74-1.31a2.1,2.1,0,0,1-.87-.14c-.28-.19-.36-.57-.59-.81-.67-.73-2,.12-2.85-.36a2.82,2.82,0,0,1-.88-1.17,5.1,5.1,0,0,0-4-2.33,9.25,9.25,0,0,0-4.62,1,2.79,2.79,0,0,0-1.18.9,1,1,0,0,0,.16,1.36c.53.38,1.24,0,1.86-.25,1.43-.51,3,.08,4.4.66l1.9.78c.82.34,1.82,1.06,1.48,1.88a1.28,1.28,0,0,1,1.33.45,6.08,6.08,0,0,0,.47.66c.61.55,1.54,0,2.28-.39a4,4,0,0,1,4,.32,1,1,0,0,1,.48.65c.07.87-1.76,1.17-1.41,2,.89-.46,1.95,0,2.87.38s2.06.72,2.84.1c.24-.19.42-.45.67-.64a7.12,7.12,0,0,1,1.85-.65c.61-.24,1.13-1,.69-1.53-1,.46-1.87-1-3-1.29"/><path class="cls-2" d="M106,166.92l-2.14-.22c0,.35-.48.46-.69.75a.84.84,0,0,0,0,.84,2.25,2.25,0,0,0,2.67.83,1.73,1.73,0,0,0,.34-1.93.18.18,0,0,1-.18-.27"/><path class="cls-2" d="M122.55,166.08a3.3,3.3,0,0,0-1.81-.48c-.33.42,0,1.11.56,1.23.11,0,.26.08.23.19a1.61,1.61,0,0,0,.92,0,.56.56,0,0,0,.37-.73.65.65,0,0,0-.27-.25"/><path class="cls-2" d="M127.36,165.34c-.32,0-.71,0-.85.28-.2.43.38.89.24,1.34a1.68,1.68,0,0,0,1.57-1,1,1,0,0,1-1-.58"/><path class="cls-2" d="M130,168.43l-.56.29c-.26.37.19.85.63,1,.25.07.37-.33.25-.57s-.35-.44-.32-.69"/><path class="cls-2" d="M131,171.46c0,.37,0,.74,0,1.1a2.43,2.43,0,0,0,1.2-.35,1.9,1.9,0,0,1-1.16-.75"/><path class="cls-2" d="M130.87,174.21a.3.3,0,0,0,.32.44v.7a.82.82,0,0,0,.38.13,2.1,2.1,0,0,0,.12-1.48,1.25,1.25,0,0,0-.82.21"/><path class="cls-2" d="M133.51,175.83a.67.67,0,0,0,.75.69c0-.48,0-1,0-1.45a.86.86,0,0,0-.79.76"/><path class="cls-3" d="M32.42,126h8c.84,0,1.53.91,1.53,2h0a1.83,1.83,0,0,1-1.53,2h-8a1.83,1.83,0,0,1-1.53-2h0C30.89,126.92,31.58,126,32.42,126Z"/><path class="cls-3" d="M32.42,115.12h8c.84,0,1.53.91,1.53,2h0a1.83,1.83,0,0,1-1.53,2h-8a1.83,1.83,0,0,1-1.53-2h0C30.89,116,31.58,115.12,32.42,115.12Z"/><path class="cls-3" d="M32.42,104.23h8c.84,0,1.53.91,1.53,2h0a1.83,1.83,0,0,1-1.53,2h-8a1.83,1.83,0,0,1-1.53-2h0C30.89,105.14,31.58,104.23,32.42,104.23Z"/><path class="cls-3" d="M32.42,93.34h8c.84,0,1.53.91,1.53,2h0a1.83,1.83,0,0,1-1.53,2h-8a1.83,1.83,0,0,1-1.53-2h0C30.89,94.25,31.58,93.34,32.42,93.34Z"/><path class="cls-3" d="M32.72,83.12h8a1.83,1.83,0,0,1,1.54,2h0a1.84,1.84,0,0,1-1.54,2h-8c-.84,0-1.53-.91-1.53-2h0A1.83,1.83,0,0,1,32.72,83.12Z"/><path class="cls-3" d="M33.7,72h8a1.83,1.83,0,0,1,1.53,2h0c0,1.12-.69,2-1.53,2h-8c-.85,0-1.53-.91-1.53-2h0A1.83,1.83,0,0,1,33.7,72Z"/><path class="cls-4" d="M46.44,174.51h0A6.55,6.55,0,0,1,39.91,168V67.84a6.55,6.55,0,0,1,6.53-6.53h0A6.54,6.54,0,0,1,53,67.84V168A6.54,6.54,0,0,1,46.44,174.51Z"/><path class="cls-4" d="M33.75,191.26a18,18,0,1,1,25.39,0A18,18,0,0,1,33.75,191.26Z"/><path class="cls-3" d="M55.13,170.15a12.58,12.58,0,1,1-17.79,0A12.58,12.58,0,0,1,55.13,170.15Z"/><path class="cls-3" d="M46.44,76.28h0a2.27,2.27,0,0,1,2.48,2V169.9a2.27,2.27,0,0,1-2.48,2h0a2.28,2.28,0,0,1-2.48-2V78.26A2.28,2.28,0,0,1,46.44,76.28Z"/><path class="cls-5" d="M48.92,142.4V78.26a2.54,2.54,0,0,0-5,0V142.4Z"/><path class="cls-6" d="M48.92,105V78.26a2.54,2.54,0,0,0-5,0V105Z"/><path class="cls-7" d="M45.16,172.14s-7.77.89-6.49,8.87"/><path class="cls-4" d="M178.45,153.87a10.44,10.44,0,0,1,13.7-4.53,10.46,10.46,0,0,1,17.29-3.94,10.47,10.47,0,0,1,8.7-4.64,10.86,10.86,0,0,1,1.28.09,20.06,20.06,0,0,1,34.3,5.19,12.44,12.44,0,0,1,20.61,8.07,10.38,10.38,0,0,1,.07,1.23,3.23,3.23,0,0,1-3.23,3.22H181.24A3.18,3.18,0,0,1,178.45,153.87Z"/><path class="cls-4" d="M77.06,20c0-.66,0-1.32-.1-2A20.07,20.07,0,0,0,41.35,7.5a9,9,0,0,0-1.28-.09A10.5,10.5,0,0,0,31.37,12a10.47,10.47,0,0,0-17.29,4A10.44,10.44,0,0,0,.38,20.52,3.17,3.17,0,0,0,3.17,25.2H71.86A5.2,5.2,0,0,0,77.06,20Z"/></svg>