<svg xmlns="http://www.w3.org/2000/svg" viewBox="0 0 344 371.51"><defs><style>.cls-1{isolation:isolate;}.cls-2,.cls-20{fill:#fff;}.cls-2{opacity:0.54;}.cls-3{fill:#e57b54;}.cls-4{fill:#fc3e4a;}.cls-5{fill:#d63440;}.cls-6{fill:#2c2b2d;}.cls-7{fill:#fc9e4b;}.cls-8{fill:#ffac7a;}.cls-9{fill:#ff7341;}.cls-10{fill:#ffb982;}.cls-11{fill:#e25e30;}.cls-12{fill:#5abf88;}.cls-13{fill:#96d1b3;}.cls-14{fill:#ea8c3c;}.cls-15{fill:#ffa84f;}.cls-16{fill:#e64f5d;}.cls-17{fill:#aba736;}.cls-18{fill:#f2875c;}.cls-19,.cls-21{mix-blend-mode:overlay;}.cls-19{opacity:0.2;}.cls-21{opacity:0.3;}</style></defs><g class="cls-1"><g id="Layer_1" data-name="Layer 1"><circle class="cls-2" cx="172" cy="190.18" r="166.62" transform="translate(-84.1 177.33) rotate(-45)"/><polygon class="cls-3" points="20.7 101.59 191.91 73.73 320.12 109.55 124.8 134.26 20.7 101.59"/><path class="cls-4" d="M291.24,4.7C246.67,79.09,135.33,314.6,135.33,314.6L139.2,318,301.41,17.68c3-5.48,5.61-11.58.3-15.95S292.66,2.37,291.24,4.7Z"/><path class="cls-5" d="M301.41,17.68c2.93-5.44,5.56-11.47.43-15.83-25.33,41-146.37,281.24-163.54,315.36l.9.8Z"/><path class="cls-6" d="M272.31,38.33q-4.41,8.16-9.14,17.15c3.07,3.4,8.14,8.05,13.29,8.38l8.66-16A19.47,19.47,0,0,1,272.31,38.33Z"/><path class="cls-4" d="M328,33.2C270.68,98.26,118.53,309.69,118.53,309.69l3.18,4.07,213.94-266c3.9-4.83,7.63-10.36,3.2-15.61S329.83,31.15,328,33.2Z"/><path class="cls-5" d="M335.65,47.78c3.88-4.8,7.55-10.26,3.31-15.47C306.61,68,144,282.37,121,312.82l.74.94Z"/><path class="cls-6" d="M303.29,62.83q-5.82,7.24-12.1,15.21c2.42,3.91,6.56,9.37,11.56,10.65l11.43-14.2A19.37,19.37,0,0,1,303.29,62.83Z"/><polygon class="cls-7" points="20.61 113.92 191.83 86.07 320.04 121.87 124.71 146.59 20.61 113.92"/><path class="cls-8" d="M95.66,159.34C89.1,155.71,67.79,143.09,68.92,133c.4-3.62,3.2-6.21,8.33-7.72,5.53-1.61,5.9-3.13,5.9-3.13.28-1.45-4.05-4.94-5.69-6.26-2.86-2.3-4.93-4-4.25-6.52a3.74,3.74,0,0,1,3.3-2.68c1.3-.22,4.66-1.9,7.62-3.39,8.24-4.15,17.58-8.88,23.48-5.83,1.61.84,3.66,2.66,4.24,6.53,1.08,7.16,2.71,18,7.79,21.17,2,1.28,4.68,1.37,8.09.31,6.13-1.92,7.82-5.8,9.61-9.9,1.91-4.41,4.37-9.86,12.91-8.35,6.23,1.1,9.44,6,12.27,10.29,4,6.14,7.22,11,18,8.29.76-.19,1.51-.39,2.21-.61A17.15,17.15,0,0,1,184.05,115c2.86-6.49,9.46-11.71,14.16-11,3.16.42,5.35,3.13,5.56,6.9.33,5.76-3.81,13-13.34,17.67a20.12,20.12,0,0,0,4.11,4.54c8.21,6.9,17.67.88,29.17-7.71,5.83-4.34,10.42-7.54,14.63-7.7,5.19.09,7.93,3.67,10.59,7.14,3.43,4.47,6.8,9.14,16.91,8.81,3.93-.12,6.48-1.24,7.61-3.33-4.89-1.87-7.06-4.5-7.89-7a7.93,7.93,0,0,1,3.17-9,5,5,0,0,1,5.88.57c2.47,1.9,5,6.39,5.39,11.14,4.27.83,10.6,1.24,19.94.61l.4,5.93c-9.15.62-16,.29-21.08-.64-1.14,3-4.34,7.44-13.24,7.71-12.94.22-18.07-6.28-21.8-11.14-2.42-3.15-3.78-4.78-6-4.81h0c-2.19,0-6.82,3.47-10.94,6.53-10.16,7.57-24.07,17.94-36.55,7.49a25.28,25.28,0,0,1-5.87-6.87c-.91.28-1.85.55-2.84.8-14.86,3.71-20.19-4.32-24.44-10.8-2.49-3.78-4.65-7-8.36-7.7s-4.44.35-6.4,4.86-4.57,10.48-13.29,13.2c-5.1,1.61-9.47,1.29-13-.94-7.4-4.63-9.19-16.59-10.51-25.33-.25-1.68-.87-2-1.11-2.12-3.15-1.65-12.49,3-18.06,5.85-2.08,1.05-3.94,2-5.55,2.69,3.7,3,8.72,7,7.73,12-.67,3.4-4,5.92-10,7.69-2.5.73-4,1.7-4.1,2.66-.46,4.15,11.89,14,23.71,20.5Zm175.73-39.45a1.82,1.82,0,0,0-.18,1.54,4.9,4.9,0,0,0,2.28,2.32A11,11,0,0,0,271.39,119.89Zm-74-10c-1.42,0-5.9,2.93-7.93,7.75a11.33,11.33,0,0,0-.94,5.26c5.94-3.09,8.72-7.17,9.28-10.33.28-1.66-.15-2.55-.33-2.67Z"/><path class="cls-9" d="M164.14,150.82c-7.77-.82-46.85-5.43-52.09-17a7.7,7.7,0,0,1,1-8c3.45-4.88,4.78-11.36,5.94-17.08,1.44-7,2.67-13,7.41-15.57,2.9-1.54,6.51-1.39,11.06.46,9.63,3.91,11.38,14.84,12.77,23.63.79,4.84,1.68,10.35,3.75,11.41,1.1.57,3.24.11,6-1.31,9.82-5,10.77-13.48,11.69-21.68.84-7.49,1.71-15.24,10.07-17.88,7.14-2.25,13.48-1.48,18.34,2.23,6.32,4.85,9.4,14.1,8.9,26.74-.24,5.78,3.4,9.9,10.79,12.23,12.14,3.84,27.89.66,30.52-3.41,1.91-3,3.73-7.67,5.48-12.22,3.27-8.46,5.84-15.14,10.38-16.22a5.64,5.64,0,0,1,5.23,1.53c3,2.73,3.43,7.34,3.87,12.22.79,8.81,1.53,17.14,14.31,19.23l-1,5.88c-17.34-2.84-18.5-15.93-19.28-24.59-.31-3.51-.63-7.16-1.92-8.32-1.51.58-4.37,8-6.08,12.41-1.86,4.82-3.79,9.81-6,13.29-5.08,7.91-24.75,9.83-37.32,5.89-10-3.16-15.29-9.61-14.94-18.16.42-10.47-1.91-18.2-6.57-21.77-4.11-3.13-9.3-2.42-12.93-1.29-4.46,1.41-5.11,5.38-5.95,12.87-1,8.85-2.22,19.88-14.9,26.32-4.71,2.4-8.45,2.83-11.41,1.31-4.77-2.43-5.82-8.91-6.92-15.78-1.29-8-2.61-16.39-9.15-19.06-2.76-1.12-4.78-1.37-6-.71-2.27,1.22-3.29,6.21-4.37,11.51-1.29,6.29-2.76,13.44-6.93,19.33-.84,1.2-.58,1.78-.45,2.1,2.83,6.23,29.36,11.66,47.29,13.51Z"/><path class="cls-10" d="M105.84,121.65a9.19,9.19,0,0,1-3.39-.72c-6.15-2.39-8.71-10.13-10.59-15.78-.08-.23-.16-.48-.25-.72-4.48,8.68-16.31,6.06-26.8,3.72-5.9-1.3-12-2.64-16.24-2a8.25,8.25,0,0,0-1.37.31c1.11,1.92,5.91,5.85,10.88,8.82l-3,5.1c-5.66-3.37-15-9.85-13.9-15.35.34-1.78,1.77-4,6.54-4.76,5.33-.83,12,.66,18.42,2.09,11.13,2.47,18.58,3.71,20.55-1.35.76-1.91,2.27-5.41,5.25-5.37s4.16,3.25,5.62,7.65,3.56,10.73,7.1,12.11a5.2,5.2,0,0,0,.68.22,31.84,31.84,0,0,0-.05-4.85c-.3-5.28-.66-11.86,3.56-16.14a56.3,56.3,0,0,0,5-6.43c5.8-8.12,14.59-20.41,27.15-12.7,6.12,3.75,10.19,9.28,13.78,14.17,5.56,7.55,7.55,9.34,10.9,7.61,4.32-2.2,6.14-7.53,7.89-12.69,1.93-5.66,3.93-11.51,9.69-12.45,5.46-.89,8.75,5,12.52,11.87,4.49,8.14,9.57,17.36,18.22,17.43a41.57,41.57,0,0,0,18.68-5.12c4.73-2.39,9.19-4.65,13.7-1.07,6.16,4.91,16.38,13.05,26.52,14.46,10.91,1.52,27.75,4.69,27.92,4.73l-1.11,5.85c-.16,0-16.85-3.18-27.64-4.68C260.29,114,249.27,105.19,242.68,100c-1.38-1.12-2.72-.66-7.36,1.67-4.81,2.43-11.38,5.75-21.11,5.75h-.29c-12.15-.09-18.64-11.88-23.39-20.49-1.74-3.17-5-9.25-6.34-8.87-2.25.36-3.59,4.31-5,8.5-1.94,5.68-4.36,12.76-10.82,16.07C160,106.85,154.89,99.9,150,93.19c-3.28-4.45-7-9.5-12.1-12.63-7.31-4.47-12.35,1.48-19.2,11.09A60.05,60.05,0,0,1,113,98.81c-2.36,2.4-2.09,7.5-1.86,11.61.25,4.46.46,8.29-2.3,10.3A5.1,5.1,0,0,1,105.84,121.65Z"/><path class="cls-11" d="M105.6,153.22a9.53,9.53,0,0,1-3.37-.71c-6.15-2.41-8.72-10.13-10.59-15.78-.09-.24-.16-.49-.26-.74-4.47,8.69-16.33,6.08-26.82,3.74-5.9-1.31-12-2.67-16.22-2A8.11,8.11,0,0,0,47,138c1.1,1.91,5.89,5.86,10.87,8.82L54.8,152c-5.65-3.37-15-9.86-13.9-15.37.35-1.76,1.77-4,6.55-4.76,5.37-.81,12,.67,18.4,2.09,11.13,2.48,18.59,3.72,20.56-1.33.74-1.92,2.25-5.41,5.24-5.39s4.17,3.26,5.63,7.66,3.57,10.73,7.1,12.11a6.79,6.79,0,0,0,.67.23,31.74,31.74,0,0,0,0-4.86c-.31-5.28-.67-11.86,3.57-16.14a57.08,57.08,0,0,0,5-6.42c5.81-8.14,14.58-20.39,27.15-12.72,6.11,3.74,10.19,9.29,13.79,14.17,5.55,7.56,7.52,9.34,10.89,7.62,4.33-2.2,6.14-7.53,7.89-12.69,1.94-5.66,3.93-11.5,9.69-12.45,5.45-.9,8.75,5,12.53,11.88,4.48,8.13,9.56,17.34,18.22,17.41s14.13-2.81,18.68-5.11c4.72-2.39,9.17-4.64,13.69-1.07,6.16,4.91,16.38,13,26.52,14.46,10.91,1.53,27.75,4.7,27.92,4.72l-1.1,5.85c-.17,0-16.87-3.17-27.65-4.67-11.74-1.64-22.76-10.42-29.34-15.65-1.39-1.12-2.74-.67-7.36,1.67-4.81,2.43-11.38,5.75-21.1,5.75h-.31c-12.13-.09-18.63-11.88-23.38-20.48-1.72-3.12-4.9-8.89-6.29-8.89h-.08c-2.23.36-3.58,4.31-5,8.49-1.94,5.69-4.35,12.77-10.82,16.07-8.35,4.29-13.46-2.67-18.4-9.39-3.27-4.45-7-9.49-12.09-12.63-7.31-4.46-12.34,1.49-19.2,11.1a60.75,60.75,0,0,1-5.61,7.14c-2.38,2.41-2.09,7.53-1.87,11.64.25,4.44.46,8.28-2.3,10.28A5,5,0,0,1,105.6,153.22Z"/><path class="cls-8" d="M89.12,143.22C82.56,139.6,61.25,127,62.37,116.87c.4-3.62,3.21-6.22,8.35-7.71,5.53-1.62,5.88-3.13,5.88-3.15.3-1.44-4-4.94-5.69-6.26-2.85-2.31-4.93-4-4.26-6.51A3.75,3.75,0,0,1,70,90.56c1.29-.22,4.65-1.91,7.6-3.4,8.26-4.14,17.58-8.88,23.49-5.82,1.61.83,3.65,2.65,4.23,6.52,1.09,7.16,2.73,18,7.81,21.17,2,1.28,4.68,1.38,8.07.31,6.14-1.91,7.84-5.79,9.62-9.9,1.92-4.4,4.31-9.86,12.9-8.35,6.25,1.12,9.46,6,12.3,10.3,4,6.14,7.21,11,18,8.29.77-.19,1.51-.39,2.21-.61a17.13,17.13,0,0,1,1.26-10.17c2.87-6.51,9.5-11.69,14.16-11.05,3.17.43,5.36,3.15,5.57,6.91.33,5.77-3.81,13-13.34,17.67A20.08,20.08,0,0,0,188,117c8.21,6.91,17.67.9,29.18-7.69,5.76-4.31,10.32-7.71,14.49-7.71h.13c5.18.09,7.93,3.67,10.6,7.14,3.43,4.48,7.05,9.23,16.9,8.81,3.94-.11,6.5-1.23,7.62-3.33-4.91-1.86-7.07-4.49-7.89-7a7.94,7.94,0,0,1,3.16-9,5,5,0,0,1,5.87.58c2.48,1.9,5,6.4,5.42,11.15,4.26.82,10.57,1.24,19.93.61l.39,5.94c-9.14.6-16,.27-21.06-.66-1.16,3-4.37,7.45-13.26,7.72-12.82.32-18.07-6.29-21.81-11.15-2.41-3.14-3.76-4.77-6-4.82s-6.84,3.46-11,6.53c-10.16,7.58-24.06,18-36.57,7.5a25.21,25.21,0,0,1-5.86-6.87c-.92.29-1.86.56-2.84.81-14.9,3.72-20.19-4.33-24.45-10.79-2.48-3.79-4.64-7.06-8.36-7.72s-4.43.36-6.4,4.87S131.68,112.3,123,115c-5.1,1.6-9.47,1.27-13-.94-7.4-4.64-9.21-16.6-10.52-25.33-.26-1.69-.86-2-1.1-2.13C95.14,85,85.83,89.68,80.25,92.48c-2.08,1-3.94,2-5.55,2.69,3.72,3,8.73,7,7.74,12-.68,3.39-4,5.91-10.06,7.7-2.49.73-4,1.7-4.1,2.66C67.82,121.68,80.17,131.48,92,138Zm175.72-39.46a1.83,1.83,0,0,0-.17,1.55,4.9,4.9,0,0,0,2.28,2.31A10.8,10.8,0,0,0,264.84,103.76Zm-74.06-10c-1.41,0-5.89,2.92-7.93,7.75a11.58,11.58,0,0,0-.93,5.26c6-3.1,8.74-7.2,9.28-10.35.27-1.66-.15-2.54-.33-2.66Z"/><path class="cls-10" d="M145.76,144c-7.78-.81-46.87-5.42-52.12-17a7.69,7.69,0,0,1,1-8c3.46-4.88,4.79-11.37,6-17.1,1.44-7,2.67-13,7.4-15.56,2.89-1.54,6.5-1.4,11.06.45,9.64,3.92,11.38,14.85,12.78,23.63.78,4.86,1.66,10.37,3.72,11.42,1.12.57,3.26.11,6-1.32,9.82-5,10.77-13.48,11.69-21.68.85-7.5,1.72-15.24,10.07-17.87,21.64-6.83,35.77-7.39,43.2-1.71,3.84,2.94,5.68,7.38,5.45,13.2-.56,13.74,8.62,25.17,15.45,27.32,3.13,1,4.1-.47,4.44-1,1.92-3,3.73-7.68,5.49-12.22,3.27-8.46,5.85-15.14,10.38-16.22A5.63,5.63,0,0,1,253,91.87c3,2.73,3.43,7.33,3.87,12.2.78,8.83,1.53,17.15,14.31,19.25l-1,5.87c-17.33-2.84-18.49-15.93-19.27-24.58-.31-3.52-.64-7.16-1.93-8.32-1.5.59-4.36,8-6.06,12.41-1.88,4.81-3.8,9.81-6,13.3-2.35,3.66-6.56,5-11.24,3.48-10-3.16-20.26-17.26-19.61-33.24.15-3.81-.86-6.51-3.12-8.24-3.91-3-13.65-5-37.79,2.66-4.46,1.4-5.11,5.38-5.94,12.85-1,8.87-2.23,19.89-14.92,26.35-4.71,2.38-8.44,2.82-11.41,1.31-4.77-2.44-5.8-8.92-6.91-15.79-1.28-8.06-2.61-16.39-9.14-19.06-2.77-1.12-4.8-1.37-6-.72-2.28,1.22-3.3,6.22-4.38,11.51-1.29,6.3-2.76,13.45-6.93,19.35-.87,1.19-.61,1.76-.46,2.08,2.83,6.23,29.36,11.65,47.31,13.51Z"/><path class="cls-8" d="M160.39,163c-7.78-.81-46.86-5.42-52.09-17a7.67,7.67,0,0,1,1-8c3.45-4.86,4.79-11.35,6-17.07,1.43-7,2.66-13,7.41-15.57,2.89-1.55,6.51-1.39,11.06.46,9.63,3.91,11.38,14.84,12.78,23.62.79,4.86,1.67,10.36,3.73,11.42,1.1.57,3.25.1,6-1.32,9.82-5,10.77-13.47,11.69-21.68.85-7.5,1.71-15.23,10.07-17.87,21.64-6.82,35.76-7.39,43.18-1.72,3.86,3,5.7,7.39,5.46,13.21-.56,13.73,8.62,25.17,15.45,27.32,3.14,1,4.09-.47,4.44-1,1.92-3,3.74-7.68,5.49-12.23,3.27-8.45,5.85-15.13,10.38-16.21a5.64,5.64,0,0,1,5.24,1.54c3,2.73,3.43,7.32,3.86,12.19.78,8.83,1.54,17.16,14.32,19.25l-1,5.88c-17.33-2.84-18.5-15.94-19.28-24.6-.31-3.51-.63-7.14-1.92-8.31-1.51.58-4.37,8-6.07,12.41-1.87,4.82-3.79,9.81-6,13.3-2.36,3.66-6.57,4.95-11.24,3.48-10-3.16-20.26-17.26-19.61-33.25.16-3.81-.86-6.5-3.11-8.23-3.91-3-13.65-5-37.79,2.66-4.46,1.41-5.11,5.38-5.95,12.86-1,8.86-2.22,19.88-14.9,26.34-4.71,2.4-8.45,2.82-11.42,1.31-4.77-2.44-5.8-8.92-6.9-15.79-1.29-8.06-2.62-16.39-9.15-19-2.76-1.13-4.79-1.38-6-.72-2.27,1.21-3.29,6.22-4.38,11.51-1.28,6.29-2.75,13.43-6.92,19.32-.86,1.21-.6,1.79-.45,2.1,2.82,6.23,29.36,11.66,47.29,13.51Z"/><polygon class="cls-12" points="141.17 371.51 283.82 356.41 320.12 109.55 124.8 134.26 141.17 371.51"/><polygon class="cls-13" points="141.17 371.51 70.35 339.95 20.7 101.59 124.8 134.26 141.17 371.51"/><polygon class="cls-12" points="20.7 101.59 0 149.44 105.37 190.7 124.8 134.26 20.7 101.59"/><polygon class="cls-14" points="131.05 225 306.46 202.37 294.59 283.15 136.5 303.76 131.05 225"/><polygon class="cls-15" points="131.05 225 39.89 194.59 55.96 270.85 136.5 303.76 131.05 225"/><path class="cls-16" d="M85.51,102.49S84.8,90.36,90.59,93s6.55,5.61,7,9.54,5.34,16.65,0,12.2S82.4,109.87,85.51,102.49Z"/><path class="cls-16" d="M146.71,111.12s12,1.85,8.26,7-6.85,5.22-10.79,4.85-17.4,1.75-11.93-2.56S140.15,106.54,146.71,111.12Z"/><path class="cls-16" d="M269.49,95.79s12,1.86,8.25,7S270.88,108,267,107.62s-17.4,1.74-11.93-2.55S262.91,91.21,269.49,95.79Z"/><path class="cls-17" d="M66.09,102.35s-6.21,6.11,0,7.86,8.78,1.94,10.36-3.93,0-9.87,0-9.87S70.29,94.16,66.09,102.35Z"/><path class="cls-17" d="M231.66,101.55s-6.22,6.11,0,7.85,8.77,1.95,10.36-3.92a17,17,0,0,0,0-9.87S235.85,93.35,231.66,101.55Z"/><path class="cls-18" d="M174.14,88.38A10.82,10.82,0,1,0,185,77.25,11,11,0,0,0,174.14,88.38Z"/><g class="cls-19"><path class="cls-20" d="M185.39,85.64c1.9,1.65,4.42,1.77,5.63.28s.64-4-1.26-5.66-4.43-1.76-5.63-.27S183.47,84,185.39,85.64Z"/></g><g class="cls-21"><path d="M176.87,81a11.19,11.19,0,0,0-.4,2.92A11,11,0,0,0,187.3,95.05a10.65,10.65,0,0,0,8.09-3.75A10.87,10.87,0,0,1,185,99.52a11,11,0,0,1-10.83-11.14A11.26,11.26,0,0,1,176.87,81Z"/></g><path class="cls-18" d="M133.38,90.92a10.83,10.83,0,1,0,10.83-11.13A11,11,0,0,0,133.38,90.92Z"/><g class="cls-19"><path class="cls-20" d="M144.64,88.18c1.9,1.64,4.43,1.76,5.63.27s.65-4-1.25-5.65-4.44-1.77-5.64-.27S142.73,86.53,144.64,88.18Z"/></g><g class="cls-21"><path d="M136.13,83.54a11.07,11.07,0,0,0,10.42,14,10.62,10.62,0,0,0,8.09-3.76,10.87,10.87,0,0,1-10.43,8.22,11,11,0,0,1-10.83-11.13A11.27,11.27,0,0,1,136.13,83.54Z"/></g><path class="cls-18" d="M122.05,99.27a10.82,10.82,0,1,0,10.81-11.13A11,11,0,0,0,122.05,99.27Z"/><g class="cls-19"><path class="cls-20" d="M133.29,96.53c1.9,1.63,4.42,1.76,5.63.27s.64-4-1.26-5.65-4.42-1.76-5.64-.28S131.38,94.88,133.29,96.53Z"/></g><g class="cls-21"><path d="M124.77,91.89a11.3,11.3,0,0,0-.39,2.92,11,11,0,0,0,10.82,11.13,10.7,10.7,0,0,0,8.1-3.75,10.78,10.78,0,0,1-21.25-2.92A11.28,11.28,0,0,1,124.77,91.89Z"/></g><path class="cls-18" d="M111.68,96.14a10.37,10.37,0,1,0,10.37-10.67A10.53,10.53,0,0,0,111.68,96.14Z"/><g class="cls-19"><path class="cls-20" d="M122.46,93.5c1.82,1.57,4.23,1.69,5.39.27s.62-3.85-1.2-5.41-4.25-1.7-5.41-.27S120.63,91.93,122.46,93.5Z"/></g><g class="cls-21"><path d="M114.3,89.07a11.11,11.11,0,0,0-.37,2.79,10.52,10.52,0,0,0,10.36,10.67A10.22,10.22,0,0,0,132,98.92a10.4,10.4,0,0,1-10,7.88,10.53,10.53,0,0,1-10.37-10.66A10.75,10.75,0,0,1,114.3,89.07Z"/></g><path class="cls-18" d="M147.63,88.51a10.82,10.82,0,1,0,10.81-11.13A11,11,0,0,0,147.63,88.51Z"/><g class="cls-19"><path class="cls-20" d="M158.87,85.76c1.9,1.64,4.43,1.77,5.64.28s.65-4-1.27-5.65-4.42-1.77-5.63-.28S157,84.12,158.87,85.76Z"/></g><g class="cls-21"><path d="M150.36,81.14a11.11,11.11,0,0,0-.39,2.91,11,11,0,0,0,10.82,11.13,10.62,10.62,0,0,0,8.09-3.76,10.78,10.78,0,0,1-21.25-2.91A11.21,11.21,0,0,1,150.36,81.14Z"/></g><path class="cls-18" d="M161.15,88.38A10.82,10.82,0,1,0,172,77.25,11,11,0,0,0,161.15,88.38Z"/><g class="cls-19"><path class="cls-20" d="M172.41,85.64c1.89,1.65,4.41,1.77,5.63.28s.64-4-1.26-5.66-4.43-1.76-5.64-.27S170.51,84,172.41,85.64Z"/></g><g class="cls-21"><path d="M163.88,81a11.18,11.18,0,0,0-.39,2.92,11,11,0,0,0,10.82,11.12,10.65,10.65,0,0,0,8.1-3.75,10.79,10.79,0,0,1-21.26-2.92A11.26,11.26,0,0,1,163.88,81Z"/></g><path class="cls-18" d="M196.89,89.07a9.27,9.27,0,1,0,9.27-9.52A9.4,9.4,0,0,0,196.89,89.07Z"/><g class="cls-19"><path class="cls-20" d="M206.53,86.72c1.62,1.4,3.79,1.51,4.83.25s.53-3.45-1.09-4.86-3.78-1.5-4.82-.23S204.9,85.32,206.53,86.72Z"/></g><g class="cls-21"><path d="M199.24,82.75a9.51,9.51,0,0,0,8.93,12,9.13,9.13,0,0,0,6.92-3.22,9.23,9.23,0,0,1-18.2-2.49A9.64,9.64,0,0,1,199.24,82.75Z"/></g><path class="cls-18" d="M164.25,88.38a10.83,10.83,0,1,0,10.83-11.13A11,11,0,0,0,164.25,88.38Z"/><g class="cls-19"><path class="cls-20" d="M175.5,85.64c1.9,1.65,4.43,1.77,5.65.28s.63-4-1.27-5.66-4.42-1.76-5.63-.27S173.6,84,175.5,85.64Z"/></g><g class="cls-21"><path d="M167,81a11.62,11.62,0,0,0-.39,2.92,11,11,0,0,0,10.81,11.12,10.65,10.65,0,0,0,8.1-3.75,10.86,10.86,0,0,1-10.43,8.22,11,11,0,0,1-10.83-11.14A11.27,11.27,0,0,1,167,81Z"/></g><path class="cls-18" d="M168.36,72.05a10.83,10.83,0,1,0,10.82-11.13A11,11,0,0,0,168.36,72.05Z"/><g class="cls-19"><path class="cls-20" d="M179.6,69.31c1.91,1.64,4.43,1.76,5.64.27s.65-4-1.26-5.65-4.42-1.78-5.63-.28S177.71,67.66,179.6,69.31Z"/></g><g class="cls-21"><path d="M171.09,64.68a11.11,11.11,0,0,0-.39,2.91,11,11,0,0,0,10.82,11.13A10.7,10.7,0,0,0,189.63,75a10.79,10.79,0,0,1-21.27-2.91A11.26,11.26,0,0,1,171.09,64.68Z"/></g><path class="cls-18" d="M125.42,83.13a9,9,0,1,0,9-9.28A9.17,9.17,0,0,0,125.42,83.13Z"/><g class="cls-19"><path class="cls-20" d="M134.81,80.84c1.6,1.38,3.7,1.48,4.71.23s.54-3.35-1.05-4.72-3.7-1.47-4.7-.23S133.22,79.48,134.81,80.84Z"/></g><g class="cls-21"><path d="M127.7,77a9.77,9.77,0,0,0-.31,2.44,9.16,9.16,0,0,0,9,9.29,8.85,8.85,0,0,0,6.75-3.14,9.06,9.06,0,0,1-8.7,6.87,9.17,9.17,0,0,1-9-9.3A9.44,9.44,0,0,1,127.7,77Z"/></g><path class="cls-18" d="M180.84,86.8a10.82,10.82,0,1,0,10.81-11.13A11,11,0,0,0,180.84,86.8Z"/><g class="cls-19"><path class="cls-20" d="M192.08,84.06c1.91,1.64,4.43,1.76,5.63.28s.65-4-1.25-5.66-4.44-1.76-5.63-.27S190.19,82.43,192.08,84.06Z"/></g><g class="cls-21"><path d="M183.57,79.43a11.62,11.62,0,0,0-.39,2.92A11,11,0,0,0,194,93.48a10.68,10.68,0,0,0,8.11-3.77,10.79,10.79,0,0,1-21.26-2.91A11.21,11.21,0,0,1,183.57,79.43Z"/></g><path class="cls-18" d="M177.54,102.31a10.83,10.83,0,1,0,10.82-11.14A11,11,0,0,0,177.54,102.31Z"/><g class="cls-19"><path class="cls-20" d="M188.79,99.56c1.91,1.64,4.42,1.77,5.64.28s.65-4-1.26-5.66-4.43-1.76-5.64-.28S186.89,97.92,188.79,99.56Z"/></g><g class="cls-21"><path d="M180.27,94.93a11.15,11.15,0,0,0-.39,2.9A11,11,0,0,0,190.71,109a10.71,10.71,0,0,0,8.1-3.76,10.79,10.79,0,0,1-21.27-2.9A11.29,11.29,0,0,1,180.27,94.93Z"/></g><path class="cls-18" d="M134.94,72.05a10.83,10.83,0,1,0,10.82-11.13A11,11,0,0,0,134.94,72.05Z"/><g class="cls-19"><path class="cls-20" d="M146.19,69.31c1.91,1.64,4.43,1.76,5.63.27s.65-4-1.25-5.65-4.43-1.78-5.63-.28S144.3,67.66,146.19,69.31Z"/></g><g class="cls-21"><path d="M137.67,64.68a11.54,11.54,0,0,0-.38,2.91,11,11,0,0,0,10.82,11.13A10.67,10.67,0,0,0,156.2,75a10.79,10.79,0,0,1-21.26-2.91A11.26,11.26,0,0,1,137.67,64.68Z"/></g><path class="cls-18" d="M152,59.71a10.82,10.82,0,1,0,10.82-11.13A11,11,0,0,0,152,59.71Z"/><g class="cls-19"><path class="cls-20" d="M163.22,57c1.9,1.65,4.42,1.76,5.63.28s.64-4-1.26-5.65-4.43-1.77-5.64-.28S161.32,55.32,163.22,57Z"/></g><g class="cls-21"><path d="M154.71,52.33a11.22,11.22,0,0,0-.39,2.91,11,11,0,0,0,10.81,11.14,10.67,10.67,0,0,0,8.1-3.77A10.79,10.79,0,0,1,152,59.71,11.17,11.17,0,0,1,154.71,52.33Z"/></g><path class="cls-18" d="M197.44,98.77a10.82,10.82,0,1,0,10.81-11.13A11,11,0,0,0,197.44,98.77Z"/><g class="cls-19"><path class="cls-20" d="M208.69,96c1.9,1.65,4.42,1.76,5.63.28s.65-4-1.26-5.66-4.42-1.76-5.64-.27S206.78,94.39,208.69,96Z"/></g><g class="cls-21"><path d="M200.18,91.39a10.83,10.83,0,0,0-.4,2.92,11,11,0,0,0,10.82,11.13,10.67,10.67,0,0,0,8.09-3.76,10.78,10.78,0,0,1-21.25-2.91A11.19,11.19,0,0,1,200.18,91.39Z"/></g><path class="cls-18" d="M152,73.55a10.82,10.82,0,1,0,10.82-11.13A11,11,0,0,0,152,73.55Z"/><g class="cls-19"><path class="cls-20" d="M163.22,70.8c1.9,1.64,4.42,1.76,5.63.29s.64-4-1.26-5.66-4.43-1.77-5.64-.28S161.32,69.16,163.22,70.8Z"/></g><g class="cls-21"><path d="M154.71,66.17a11.18,11.18,0,0,0-.39,2.92,11,11,0,0,0,10.81,11.13,10.69,10.69,0,0,0,8.1-3.76A10.79,10.79,0,0,1,152,73.55,11.19,11.19,0,0,1,154.71,66.17Z"/></g><path class="cls-18" d="M145.76,86.1A10.82,10.82,0,1,0,156.59,75,11,11,0,0,0,145.76,86.1Z"/><g class="cls-19"><path class="cls-20" d="M157,83.35c1.9,1.64,4.43,1.77,5.63.28s.65-4-1.26-5.65-4.42-1.77-5.64-.28S155.11,81.72,157,83.35Z"/></g><g class="cls-21"><path d="M148.5,78.72a11.62,11.62,0,0,0-.39,2.92,11,11,0,0,0,10.83,11.13A10.68,10.68,0,0,0,167,89a10.87,10.87,0,0,1-10.43,8.22A11,11,0,0,1,145.76,86.1,11.22,11.22,0,0,1,148.5,78.72Z"/></g><path class="cls-18" d="M137.64,103A10.83,10.83,0,1,0,148.46,91.9,11,11,0,0,0,137.64,103Z"/><g class="cls-19"><path class="cls-20" d="M148.9,100.29c1.9,1.64,4.42,1.76,5.62.27s.66-4-1.25-5.64-4.43-1.77-5.64-.28S147,98.65,148.9,100.29Z"/></g><g class="cls-21"><path d="M140.37,95.66a12.09,12.09,0,0,0-.39,2.91,11,11,0,0,0,10.83,11.13A10.63,10.63,0,0,0,158.9,106,10.79,10.79,0,0,1,137.64,103,11.31,11.31,0,0,1,140.37,95.66Z"/></g><path class="cls-18" d="M157.54,102.66a10.82,10.82,0,1,0,10.82-11.13A11,11,0,0,0,157.54,102.66Z"/><g class="cls-19"><path class="cls-20" d="M168.8,99.92c1.89,1.64,4.42,1.76,5.62.28s.65-4-1.25-5.66-4.43-1.76-5.64-.28S166.89,98.27,168.8,99.92Z"/></g><g class="cls-21"><path d="M160.27,95.29a11.62,11.62,0,0,0-.39,2.92,11,11,0,0,0,10.82,11.12,10.69,10.69,0,0,0,8.1-3.75,10.79,10.79,0,0,1-21.26-2.92A11.28,11.28,0,0,1,160.27,95.29Z"/></g><g class="cls-21"><path d="M282.71,114.27a221.88,221.88,0,0,1,6.88,55.27c0,86.24-47.56,156.14-106.23,156.14-16.65,0-32.4-5.65-46.44-15.69l4.25,61.52,142.65-15.1,36.3-246.87Z"/></g><polygon class="cls-13" points="124.8 134.26 146.46 195.36 344 166.66 320.12 109.55 124.8 134.26"/></g></g></svg>