<svg xmlns="http://www.w3.org/2000/svg" viewBox="0 0 500 341.33"><defs><style>.cls-1{isolation:isolate;}.cls-2{fill:#fff;opacity:0.54;}.cls-3{fill:#ddc300;}.cls-4,.cls-5,.cls-7{fill:#e2923b;}.cls-11,.cls-15,.cls-20,.cls-24,.cls-25,.cls-28,.cls-32,.cls-34,.cls-37,.cls-38,.cls-42,.cls-45,.cls-48,.cls-49,.cls-5,.cls-55,.cls-58,.cls-60,.cls-61,.cls-62,.cls-64,.cls-65,.cls-68,.cls-7,.cls-74,.cls-75,.cls-76,.cls-78,.cls-81{mix-blend-mode:multiply;}.cls-5{opacity:0.26;}.cls-11,.cls-6,.cls-9{fill:#f2ceb4;}.cls-43,.cls-47,.cls-7,.cls-75,.cls-9{opacity:0.42;}.cls-8{fill:#f9dec7;}.cls-10,.cls-13,.cls-17,.cls-18,.cls-29,.cls-31,.cls-39,.cls-43,.cls-47,.cls-59,.cls-63,.cls-83,.cls-84,.cls-86,.cls-9{mix-blend-mode:screen;}.cls-10{fill:#f2d8c6;}.cls-10,.cls-45,.cls-76{opacity:0.65;}.cls-11{opacity:0.72;}.cls-12{fill:#f9ede4;}.cls-13,.cls-78{opacity:0.19;}.cls-14,.cls-15,.cls-29{fill:#90a5af;}.cls-15,.cls-37{opacity:0.4;}.cls-16,.cls-17{fill:#4d5a60;}.cls-17,.cls-18,.cls-24,.cls-81{opacity:0.14;}.cls-19{fill:#e09142;}.cls-20{fill:#b55916;opacity:0.15;}.cls-21{fill:#f2a756;}.cls-22{fill:#fcb561;}.cls-23{fill:#ffc184;}.cls-24{fill:#ad5514;}.cls-25{fill:#c4a27d;opacity:0.18;}.cls-26{fill:#bdd9e3;}.cls-27,.cls-49{fill:#dbecf4;}.cls-29,.cls-83{opacity:0.29;}.cls-30{fill:#fc2020;}.cls-31,.cls-32{fill:#dd1a1a;}.cls-31,.cls-32,.cls-59,.cls-68{opacity:0.38;}.cls-33{fill:#788b91;}.cls-34{opacity:0.56;}.cls-35,.cls-38,.cls-59,.cls-60{fill:#65bef0;}.cls-36{fill:#879ba3;}.cls-38{opacity:0.6;}.cls-39,.cls-42,.cls-60{opacity:0.32;}.cls-40,.cls-42,.cls-45{fill:#f9bf00;}.cls-41{fill:#ffe499;}.cls-44{fill:#f9e7ac;}.cls-46,.cls-47,.cls-48,.cls-86{fill:#fdd096;}.cls-48{opacity:0.69;}.cls-50{fill:#e89748;}.cls-51{fill:#f80000;}.cls-52{fill:#c96800;}.cls-53{fill:#994f00;}.cls-54{fill:#423627;}.cls-55{fill:#c00;opacity:0.76;}.cls-56{fill:#c15b00;}.cls-57,.cls-58{fill:#d37415;}.cls-58,.cls-61,.cls-62,.cls-64,.cls-65{opacity:0.22;}.cls-61{fill:#9e5711;}.cls-62{fill:#59330a;}.cls-64{fill:#e67e18;}.cls-65{fill:#f29d3f;}.cls-66{fill:#ddbb8c;}.cls-67,.cls-68{fill:#d3aa77;}.cls-69{fill:#d3ab7d;}.cls-70{fill:#c69866;}.cls-71{fill:#cca178;}.cls-72{fill:#bf8e5d;}.cls-73,.cls-74,.cls-75{fill:#f9d153;}.cls-74{opacity:0.57;}.cls-77,.cls-78{fill:#7cd110;}.cls-79{fill:#67b800;}.cls-80{fill:#f26200;}.cls-81,.cls-82{fill:#fe7100;}.cls-84,.cls-86{opacity:0.21;}.cls-85{fill:#f29834;}</style></defs><g class="cls-1"><g id="Layer_1" data-name="Layer 1"><circle class="cls-2" cx="254.03" cy="193.54" r="146.78" transform="translate(-62.45 236.31) rotate(-45)"/><circle class="cls-3" cx="400.28" cy="299.96" r="17.28"/><circle class="cls-3" cx="423.74" cy="293.79" r="17.28"/><circle class="cls-3" cx="427.44" cy="276.51" r="11.11"/><circle class="cls-3" cx="441.02" cy="280.21" r="11.11"/><circle class="cls-3" cx="446.57" cy="262.31" r="16.66"/><circle class="cls-3" cx="432.38" cy="251.82" r="12.34"/><circle class="cls-3" cx="443.49" cy="243.18" r="7.41"/><circle class="cls-3" cx="441.63" cy="231.45" r="11.73"/><circle class="cls-3" cx="150.31" cy="136.4" r="12.96"/><circle class="cls-3" cx="60.2" cy="237.62" r="12.96"/><circle class="cls-3" cx="50.33" cy="222.81" r="12.96"/><circle class="cls-3" cx="45.39" cy="195.65" r="17.9"/><circle class="cls-3" cx="33.04" cy="179.61" r="17.9"/><circle class="cls-3" cx="45.39" cy="167.26" r="17.9"/><circle class="cls-3" cx="60.2" cy="145.04" r="17.9"/><circle class="cls-3" cx="33.66" cy="132.08" r="29.63"/><circle class="cls-3" cx="168.21" cy="134.55" r="11.11"/><circle class="cls-3" cx="166.98" cy="149.36" r="11.11"/><circle class="cls-3" cx="316.34" cy="171.58" r="11.11"/><circle class="cls-3" cx="311.4" cy="156.77" r="11.11"/><circle class="cls-3" cx="333.62" cy="151.83" r="17.28"/><circle class="cls-3" cx="318.81" cy="141.96" r="13.58"/><circle class="cls-3" cx="332.39" cy="123.44" r="13.58"/><circle class="cls-3" cx="348.44" cy="133.32" r="13.58"/><circle class="cls-3" cx="333.62" cy="96.28" r="17.28"/><circle class="cls-3" cx="368.19" cy="114.8" r="17.28"/><circle class="cls-3" cx="355.84" cy="98.75" r="19.75"/><circle class="cls-3" cx="345.97" cy="67.89" r="19.75"/><circle class="cls-3" cx="385.47" cy="90.11" r="19.75"/><circle class="cls-3" cx="373.12" cy="67.89" r="19.75"/><circle class="cls-3" cx="374.36" cy="23.45" r="19.75"/><circle class="cls-3" cx="358.31" cy="44.44" r="11.11"/><circle class="cls-3" cx="400.28" cy="72.83" r="11.11"/><circle class="cls-3" cx="344.73" cy="114.8" r="13.58"/><circle class="cls-3" cx="158.95" cy="110.48" r="24.07"/><ellipse class="cls-3" cx="138.59" cy="122.82" rx="12.34" ry="11.73"/><circle class="cls-3" cx="132.41" cy="93.82" r="14.81"/><circle class="cls-3" cx="136.73" cy="79.62" r="24.07"/><circle class="cls-3" cx="162.66" cy="45.06" r="20.37"/><circle class="cls-3" cx="142.91" cy="20.37" r="20.37"/><circle class="cls-3" cx="131.8" cy="45.06" r="20.37"/><circle class="cls-3" cx="129.33" cy="96.9" r="24.07"/><circle class="cls-3" cx="114.51" cy="70.98" r="17.9"/><path class="cls-4" d="M144.44,170.82l7.87,15.3a2.58,2.58,0,0,1,.24,1.68l-.93,4.87a4.73,4.73,0,0,0,1.51,4.44l4.14,3.63a5.42,5.42,0,0,1,1.33,1.75l7.56,15.88a3.36,3.36,0,0,0,3.83,1.84l16.87-4a3.4,3.4,0,0,0,2.59-3.41l-.89-25.39a27.66,27.66,0,0,0-.73-5.35l-5.12-21.4Z"/><path class="cls-5" d="M181.4,187l-9.72,1.24a.68.68,0,0,0,0,1.36l11.07,1.15a2.05,2.05,0,0,0,1.85-.82l3.73-5a26.5,26.5,0,0,0-.51-2.8l-.45-1.88-4.62,6A2,2,0,0,1,181.4,187Z"/><path class="cls-6" d="M182.82,154.53l-41.58,11.08a.79.79,0,0,0-.52,1.09l1.81,4a.79.79,0,0,0,.92.44l40.18-10.71a.79.79,0,0,0,.58-.84l-.4-4.32A.79.79,0,0,0,182.82,154.53Z"/><path class="cls-7" d="M175.85,162.45l5.08,21.23a31.14,31.14,0,0,1,.79,5.34l1.43,25.25a3.12,3.12,0,0,1-2.23,3.33l5.94-1.42a3.4,3.4,0,0,0,2.59-3.41l-.89-25.39a27.66,27.66,0,0,0-.73-5.35l-5.12-21.4Z"/><path class="cls-8" d="M181,153.21l-38.83,10.35a.69.69,0,0,0-.45.95l.4.87,39.82-10.61-.09-1A.68.68,0,0,0,181,153.21Z"/><path class="cls-9" d="M149.76,168.72l-1.8-3.95a.79.79,0,0,1,.51-1.09l-2.93.78a.8.8,0,0,0-.52,1.09l1.81,4a.79.79,0,0,0,.92.43l2.93-.78A.78.78,0,0,1,149.76,168.72Z"/><path class="cls-10" d="M149.37,161.64l-2.93.78a.69.69,0,0,0-.45.94l.4.87,2.93-.78-.4-.87A.68.68,0,0,1,149.37,161.64Z"/><path class="cls-11" d="M182.82,154.53l-8.62,2.29a.8.8,0,0,1,1,.69l.41,4.33a.81.81,0,0,1-.59.84l8.62-2.3a.79.79,0,0,0,.58-.84l-.4-4.32A.79.79,0,0,0,182.82,154.53Z"/><path class="cls-11" d="M181,153.21l-8.62,2.3a.69.69,0,0,1,.86.6l.09.95,8.61-2.29-.09-1A.68.68,0,0,0,181,153.21Z"/><path class="cls-6" d="M170.92,152.69H173a1.78,1.78,0,0,1,1.78,1.78v1.09a0,0,0,0,1,0,0h-5.62a0,0,0,0,1,0,0v-1.09a1.78,1.78,0,0,1,1.78-1.78Z" transform="translate(-33.89 49.48) rotate(-14.92)"/><path class="cls-12" d="M171.58,152.74l-1,.27h0a2.81,2.81,0,0,0-2,3.44l0,.06,1-.27v-.06A2.81,2.81,0,0,1,171.58,152.74Z"/><path class="cls-5" d="M171.22,196.56l-2,1.2a2.1,2.1,0,0,1-1.41.27l-15.92-2.57a4.83,4.83,0,0,0,1.2,1.65l4.14,3.63h0l.85.74,10.81-.85a2.07,2.07,0,0,0,1.59-1l1.46-2.33A.56.56,0,0,0,171.22,196.56Z"/><g class="cls-13"><path class="cls-4" d="M159.74,193a1.49,1.49,0,0,1-.42,0,1.36,1.36,0,0,1-1.26-1.46l.24-3.32a4.6,4.6,0,0,0-.41-2.26l-4.2-9.05a1.36,1.36,0,1,1,2.47-1.15l4.2,9a7.32,7.32,0,0,1,.66,3.6l-.24,3.33A1.38,1.38,0,0,1,159.74,193Z"/></g><g class="cls-13"><path class="cls-4" d="M170.23,215.71a1.36,1.36,0,0,1-1.56-.78l-3.47-7.84a1.36,1.36,0,1,1,2.49-1.1l3.47,7.84a1.37,1.37,0,0,1-.69,1.8Z"/></g><path class="cls-14" d="M222.18,94.55h0a5.34,5.34,0,0,0,5.19,3.56h35.12a5.32,5.32,0,0,0,5.27-3.84h0c.73-3-1.83-5.93-5.27-5.93H227.37C223.8,88.34,221.22,91.43,222.18,94.55Z"/><path class="cls-15" d="M262.49,88.34H250.68c3.44,0,6,2.88,5.26,5.93h0a5.3,5.3,0,0,1-5.26,3.84h11.81a5.32,5.32,0,0,0,5.27-3.84h0C268.49,91.22,265.93,88.34,262.49,88.34Z"/><path class="cls-16" d="M296.67,155.15c-4.83-25-26.77-52.17-31.44-57.72a5.71,5.71,0,0,1-2.74.68H227.37a5.8,5.8,0,0,1-1.83-.29c-11.41,51.34-51.88,66.43-51.88,107.22h0c0,15.24,13.62,30.91,30.41,30.91h73.77v0c.48,0,1,0,1.45,0,23.6,0,42.73-17.36,42.73-38.77,0-13.08-7.14-24.65-18.08-31.67A16.07,16.07,0,0,1,296.67,155.15Z"/><path class="cls-15" d="M303.93,165.51a16.07,16.07,0,0,1-7.26-10.36c-4.83-25-26.77-52.17-31.44-57.72a5.71,5.71,0,0,1-2.74.68H246c4.36,6.82,20.22,32.92,23.81,57a16.62,16.62,0,0,0,5.6,10.36c8.44,7,13.95,18.59,13.95,31.67,0,21.41-14.76,38.77-33,38.77h21.42v0c.48,0,1,0,1.45,0,23.6,0,42.73-17.36,42.73-38.77C322,184.1,314.87,172.53,303.93,165.51Z"/><path class="cls-15" d="M248.79,98.11h-4.26a210.81,210.81,0,0,1,14.64,27.38A203.65,203.65,0,0,0,248.79,98.11Z"/><path class="cls-15" d="M239,98.11c.81,4.82,1.57,10.45,2.05,16.46.31-5.9.28-11.53.09-16.46Z"/><path class="cls-15" d="M303.93,165.51a16.07,16.07,0,0,1-7.26-10.36c-2.39-12.37-8.95-25.25-15.55-35.79,5.31,11.12,10.32,24.56,11.24,37.08a15.65,15.65,0,0,0,6,11c10.05,8,15.78,20.24,14.24,33.24C310.08,222,289,237.39,265.54,235.1l-1.43-.17v0l-.17,0a28.48,28.48,0,0,1-7.52,1h21.42v0c.48,0,1,0,1.45,0,23.6,0,42.73-17.36,42.73-38.77C322,184.1,314.87,172.53,303.93,165.51Z"/><path class="cls-16" d="M260.77,63.55l-3.91,1.5a6.6,6.6,0,0,1-7.94-2.5l-1.3-2.15a6.63,6.63,0,0,0-10.37-.84L234,63.15a6.68,6.68,0,0,1-6.53,1.9h0c-4.72-1.18-9,2.78-7.7,7l5.25,16.72a5.86,5.86,0,0,1,2.32-.47h35.12a5.87,5.87,0,0,1,2.12.39l4.72-18.66C270.47,65.54,265.48,61.74,260.77,63.55Z"/><path class="cls-17" d="M238.49,67.82A6.61,6.61,0,0,0,245,66l3.27-3.66.33-.34-1-1.59-.11-.16A6.47,6.47,0,0,0,243,62.33l-3.21,3.59a6.18,6.18,0,0,1-1.49,1.21.36.36,0,0,0,.12.68Z"/><path class="cls-17" d="M235,88.34l-4.22-13.47a5.45,5.45,0,0,1,2.61-6.34.38.38,0,0,0-.12-.71h0c-4.72-1.18-9,2.78-7.7,7.05l4.23,13.47Z"/><g class="cls-18"><path class="cls-16" d="M220.65,158.24a4.13,4.13,0,0,1-1.54-.29,3.37,3.37,0,0,1-2-4.59c5.42-11.3,12.17-27.8,13.53-42.28a3.75,3.75,0,0,1,4.16-3.18,3.61,3.61,0,0,1,3.51,3.77c-1.45,15.43-8.49,32.7-14.15,44.47A3.86,3.86,0,0,1,220.65,158.24Z"/></g><g class="cls-18"><path class="cls-16" d="M195,216.26a3.73,3.73,0,0,1-3.82-3.15,59,59,0,0,1,.59-14.16,50.68,50.68,0,0,1,3.68-12.74,37,37,0,0,1,8.82-12.4,4.14,4.14,0,0,1,5.44,0,3.27,3.27,0,0,1,0,4.94c-6.68,6.06-9.29,14.78-10.3,21a53.35,53.35,0,0,0-.57,12.67,3.6,3.6,0,0,1-3.47,3.8Z"/></g><path class="cls-15" d="M262.49,88.34a5.87,5.87,0,0,1,2.12.39l4.72-18.66c1.14-4.53-3.85-8.33-8.56-6.52l-3.91,1.5a6.84,6.84,0,0,1-3,.43c4.84,6.39,2.12,22.86,2.12,22.86Z"/><path class="cls-15" d="M277.83,235.94c-9.9-.11-17.65-3.92-23.42-5.44a46.82,46.82,0,0,0-24.28.08c-5.63,1.56-10.33,5.37-26.06,5.37h73.76Z"/><polygon class="cls-19" points="317.18 184.5 341.24 184.32 359.69 189.68 346.48 192.71 317.92 193.76 311.51 188.69 317.18 184.5"/><polygon class="cls-20" points="317.18 184.5 341.24 184.32 359.69 189.68 346.48 192.71 317.92 193.76 311.51 188.69 317.18 184.5"/><polygon class="cls-20" points="317.18 184.5 341.24 184.32 359.69 189.68 346.48 192.71 317.92 193.76 311.51 188.69 317.18 184.5"/><path class="cls-19" d="M340.75,183.62a.4.4,0,0,0-.5.38v.62a.41.41,0,0,0,.29.39l21.47,5.8v-1.45Z"/><polygon class="cls-19" points="278.83 183.6 327.25 183.6 340.63 183.6 340.63 185.03 278.83 185.03 278.83 183.6"/><path class="cls-20" d="M362,190.81,340.54,185a.41.41,0,0,1-.29-.39V184a.4.4,0,0,1,.5-.38L362,189.36Z"/><polygon class="cls-20" points="362.01 189.36 355.64 187.64 316.45 187.78 313.3 190.11 317.92 193.76 346.48 192.71 358.69 189.91 362.01 190.81 362.01 189.36"/><path class="cls-21" d="M316.9,189.36,332,177.88a.16.16,0,0,0-.1-.28H269.78l-15.43,11.76Z"/><path class="cls-22" d="M251.92,189.36l2.22,18.51a7.25,7.25,0,0,1-.43,3.45l-2.63,6.86a7.35,7.35,0,0,0-.47,2.89l1.23,30.09a2,2,0,0,0,2,1.91h64V189.36Z"/><path class="cls-22" d="M251.92,189.36l2.22,18.51a7.25,7.25,0,0,1-.43,3.45l-2.63,6.86a7.35,7.35,0,0,0-.47,2.89l1.23,30.09a2,2,0,0,0,2,1.91h64V189.36Z"/><path class="cls-20" d="M314.94,224.6l1.29-3.33a5.76,5.76,0,0,0,0-4l-1.38-3.8a6.5,6.5,0,0,1-.29-1.07l-35.82,2.69a.81.81,0,0,0-.15,1.59l35.89,9.62A6.93,6.93,0,0,1,314.94,224.6Z"/><path class="cls-23" d="M329.43,177.6H268.34a2.94,2.94,0,0,0-1.78.6l-14.64,11.16h62.55l15.06-11.48A.16.16,0,0,0,329.43,177.6Z"/><path class="cls-24" d="M316.61,219.49a5.76,5.76,0,0,0-.34-2.25l-1.38-3.8a6.5,6.5,0,0,1-.29-1.07l-35.82,2.69a.79.79,0,0,0-.74.74Z"/><path class="cls-19" d="M361.83,215.69a4.46,4.46,0,0,0,.18-1.26V189.36H314.47v21.7a6.9,6.9,0,0,0,.42,2.38l1.38,3.8a5.76,5.76,0,0,1,0,4l-1.29,3.33a6.94,6.94,0,0,0-.47,2.51v23.8a2.17,2.17,0,0,0,2.17,2.16h43.21a2.16,2.16,0,0,0,2.16-2.16V227.84a4.25,4.25,0,0,0-.47-2l-1-1.92a4.27,4.27,0,0,1-.29-3.21Z"/><path class="cls-19" d="M361.83,215.69a4.46,4.46,0,0,0,.18-1.26V189.36H314.47v21.7a6.9,6.9,0,0,0,.42,2.38l1.38,3.8a5.76,5.76,0,0,1,0,4l-1.29,3.33a6.94,6.94,0,0,0-.47,2.51v23.8a2.17,2.17,0,0,0,2.17,2.16h43.21a2.16,2.16,0,0,0,2.16-2.16V227.84a4.25,4.25,0,0,0-.47-2l-1-1.92a4.27,4.27,0,0,1-.29-3.21Z"/><path class="cls-20" d="M361.54,225.89l-1-1.92a4.27,4.27,0,0,1-.29-3.21l1.56-5.07a4.29,4.29,0,0,0,.13-.6l-18.34,5.36a.76.76,0,0,0,0,1.47l18.24,4.85A3.91,3.91,0,0,0,361.54,225.89Z"/><path class="cls-20" d="M360.09,222.25a4.18,4.18,0,0,1,.18-1.49l1.56-5.07a4.29,4.29,0,0,0,.13-.6l-18.34,5.36h0l-.07,0h0l0,0,0,0,0,0h0l0,0,0,0,0,0h0l-.09.11h0l0,.05h0l0,.05h0a.08.08,0,0,1,0,.05h0a.84.84,0,0,0,0,.27h0s0,0,0,.06h0s0,0,0,.06h0Z"/><path class="cls-25" d="M254.14,207.87a7.25,7.25,0,0,1-.43,3.45l-.88,2.3a3.35,3.35,0,0,0,1.9-.5c3.28-2.06,1.19-8.48,4.5-10.48s10.6,3.9,13-.39c2-3.54-3.54-6.6-4-12.89H251.92Z"/><path class="cls-25" d="M295.52,249.42c-1.84-1.41-5,1.79-7.62-.09-1.26-.92-.47-5.46-3.24-5.88s-2.69,5.08-4.17,5.66-3.81-2-5.14-.76.42,3,1,4.72h19.28C295.89,251.8,296.55,250.2,295.52,249.42Z"/><path class="cls-25" d="M362,250.91V239.06a2.17,2.17,0,0,0-2.26-.3c-2.5,1.37-.47,6.55-3.86,8.53-1.66,1-6.38-2.18-8.22.74-1.15,1.83.87,3.54,2.51,5h9.67A2.16,2.16,0,0,0,362,250.91Z"/><path class="cls-25" d="M327.34,192.11c7-.68,6.2,4.93,9.55,5.25s4.7-3.39,7.93-4.46c4.16-1.37,14,0,13.81-3.54H322C321.26,191,323.21,192.51,327.34,192.11Z"/><path class="cls-26" d="M437.31,341.33c-7.24-27.28-43.52-25.23-53.84-49.85a64.93,64.93,0,0,1-3-10.3c-2.52-10.87-10.26-19.14-19.88-21.1-37.3-7.61-49.55-60.22-76.1-51.72-8.59,2.75-17.62-2.27-20.89-11.83-8.27-24.18-7-41.34-31.32-49.67-21.56-7.39-44.89-1.49-62,15.31-16.46,16.15-30.59,34.58-41.17,25.91a25.41,25.41,0,0,0-6-3.76c-18.7-8-28.12,5.23-35.93,21.72-8.64,18.26-20.53,34.23-35.05,46.56C28,273.06,17.72,313.11,0,341.33Z"/><path class="cls-27" d="M179.38,166.38c7-10.74,15.48-17.41,24.33-19.48-2.37.32-4.72.76-7.06,1.3-8.93,3-17.4,9.11-24.58,18.18-8.23,10.38-15.78,21.63-22.44,27.21.32.36.63.74.94,1.13C158,204.21,167.87,184.05,179.38,166.38Z"/><path class="cls-27" d="M105.61,227.45c-7.35,20-17.47,37.44-29.83,50.94-13.62,14.87-22.05,39.22-30.6,62.94H75.79c7-23.72,14-48.07,25.17-62.94,10.16-13.5,18.49-31,24.53-50.94,3.06-10.1,6.47-19.08,11.18-23.49l-.49-.28C120.28,195,112.25,209.41,105.61,227.45Z"/><g class="cls-28"><path class="cls-27" d="M108.68,188.08c4.57,4.19,9.88,2.06,15.81-3.07q-.7-.37-1.44-.69c-8.07-3.44-14.41-2.94-19.64.07A22.33,22.33,0,0,1,108.68,188.08Z"/><path class="cls-27" d="M383.47,291.48a64.93,64.93,0,0,1-3-10.3c-2.52-10.87-10.26-19.14-19.88-21.1-37.3-7.61-49.55-60.22-76.1-51.72-8.59,2.75-17.62-2.27-20.89-11.83-8.27-24.18-7-41.34-31.32-49.67a57.56,57.56,0,0,0-34.14-1c1,.31,2,.65,3,1,21.75,8.33,20.64,25.49,28.05,49.67,2.93,9.56,11,14.58,18.72,11.83,23.77-8.5,34.75,44.11,68.16,51.72,8.62,2,15.55,10.23,17.8,21.1a71.78,71.78,0,0,0,2.71,10.3c9.25,24.62,41.74,22.57,48.23,49.85h52.54C430.07,314.05,393.79,316.1,383.47,291.48Z"/></g><path class="cls-14" d="M295.53,308.66l-36.82-24.28A2,2,0,0,1,261,281l36.82,24.27a2.05,2.05,0,0,1-2.26,3.43Z"/><path class="cls-14" d="M284.7,241.33a2,2,0,0,1,2.2-3.45l38,23.42.06,0a2.05,2.05,0,0,1-2.21,3.46l-38-23.42Z"/><path class="cls-29" d="M294.73,245.08a2.08,2.08,0,0,1,2.48-.86l-4.28-2.64a2.07,2.07,0,0,0-2.11,0,2,2,0,0,0-.72.7,2.06,2.06,0,0,0,.59,2.78l4.52,2.79A2.09,2.09,0,0,1,294.73,245.08Z"/><path class="cls-15" d="M325.61,264.12a2,2,0,0,0-.61-2.79l-.06,0-9.35-5.76a2.08,2.08,0,0,1-2.3,3.4l9.5,5.85A2.05,2.05,0,0,0,325.61,264.12Z"/><path class="cls-30" d="M262.81,282.18,296,304.06l25.08-40.32-34.17-21-3.82,18.67a11.74,11.74,0,0,1-3.81,6.52Z"/><path class="cls-31" d="M265.47,279.87l18-9.37a4.19,4.19,0,0,0,2.25-3.55l.93-22.77-3.52,17.19a11.74,11.74,0,0,1-3.81,6.52Z"/><path class="cls-32" d="M300.56,282.13,287.27,298.3l8.73,5.76,25.08-40.32-8.84-5.45-9.51,20.39A15.9,15.9,0,0,1,300.56,282.13Z"/><path class="cls-33" d="M323.18,260.21a5.12,5.12,0,0,0-2.28-5.6l-25.86-16a5.12,5.12,0,0,0-6.06.5Z"/><path class="cls-29" d="M297.13,244.18a5.37,5.37,0,0,1,5.4-.9l-3.24-2a5.22,5.22,0,0,0-6,.35.52.52,0,0,0-.11.1Z"/><path class="cls-15" d="M316.75,256.25l6.43,4a5.12,5.12,0,0,0-2.28-5.6L315.08,251A5.29,5.29,0,0,1,316.75,256.25Z"/><path class="cls-33" d="M259.7,285a4.8,4.8,0,0,0,2.1,4.67l28.11,18.53a4.81,4.81,0,0,0,5.12.1Z"/><path class="cls-29" d="M266.35,287a2.06,2.06,0,0,1,2.84-.58l-4.8-3.16a2,2,0,1,0-2.25,3.42l4.79,3.16A2,2,0,0,1,266.35,287Z"/><path class="cls-29" d="M267.92,290.45l-4.8-3.16a4.77,4.77,0,0,0,2.11,4.66l4.79,3.16A4.78,4.78,0,0,1,267.92,290.45Z"/><path class="cls-15" d="M297.79,305.23l-10.07-6.63a2,2,0,1,1-2.26,3.42l10.07,6.64a2.05,2.05,0,0,0,2.26-3.43Z"/><path class="cls-15" d="M285.84,302.27a4.77,4.77,0,0,1-5.11-.1l9.18,6.06a4.81,4.81,0,0,0,5.12.1Z"/><path class="cls-14" d="M320.48,243h0a2.8,2.8,0,0,0-1.24-2.05l-2.17-1.43a1.81,1.81,0,0,0-1.7-.15h0a3.22,3.22,0,0,0-1.91,2.53l-1,7.5,3.24,2,3.95-5.34A4.31,4.31,0,0,0,320.48,243Zm-5.21-1.84a2,2,0,0,1,.77-.59h0a1.15,1.15,0,0,1,1.08.09l1.37.91a1.78,1.78,0,0,1,.79,1.29h0a3.55,3.55,0,0,1,0,.8.36.36,0,0,1-.55.22l-3.35-2.21A.35.35,0,0,1,315.27,241.16Zm2.86,5.53-2.35,3.17a.45.45,0,0,1-.6.12l-1.53-.95a.45.45,0,0,1-.21-.44l.62-4.63h0a.45.45,0,0,1,.69-.31l3.37,2.23a.46.46,0,0,1,.14.61Z"/><path class="cls-14" d="M313.46,241.9a3.22,3.22,0,0,1,1.91-2.53h0a1.81,1.81,0,0,1,1.7.15l-.48-.31a1.77,1.77,0,0,0-1.7-.15h0a3.22,3.22,0,0,0-1.91,2.52l-1,7.51.48.29Z"/><path class="cls-14" d="M319.25,243.66a3.55,3.55,0,0,0,0-.8h0a1.78,1.78,0,0,0-.79-1.29l-.48-.32a1.8,1.8,0,0,1,.79,1.29h0a2.67,2.67,0,0,1,0,.8.35.35,0,0,1-.54.23l.47.31A.36.36,0,0,0,319.25,243.66Z"/><path class="cls-14" d="M318.27,246.48a.46.46,0,0,0-.14-.61l-.48-.32a.44.44,0,0,1,.14.61,1.53,1.53,0,0,1-.14.21l-2.35,3.18a.44.44,0,0,1-.59.11l-1.15-.71.09.08,1.53.95a.45.45,0,0,0,.6-.12l2.35-3.17Z"/><g class="cls-34"><path class="cls-14" d="M313.46,241.9a3.22,3.22,0,0,1,1.91-2.53h0a1.81,1.81,0,0,1,1.7.15l-.48-.31a1.77,1.77,0,0,0-1.7-.15h0a3.22,3.22,0,0,0-1.91,2.52l-1,7.51.48.29Z"/><path class="cls-14" d="M319.25,243.66a3.55,3.55,0,0,0,0-.8h0a1.78,1.78,0,0,0-.79-1.29l-.48-.32a1.8,1.8,0,0,1,.79,1.29h0a2.67,2.67,0,0,1,0,.8.35.35,0,0,1-.54.23l.47.31A.36.36,0,0,0,319.25,243.66Z"/><path class="cls-14" d="M318.27,246.48a.46.46,0,0,0-.14-.61l-.48-.32a.44.44,0,0,1,.14.61,1.53,1.53,0,0,1-.14.21l-2.35,3.18a.44.44,0,0,1-.59.11l-1.15-.71.09.08,1.53.95a.45.45,0,0,0,.6-.12l2.35-3.17Z"/></g><path class="cls-32" d="M286.88,269.65a.59.59,0,0,0,.71-.91l-4.85-6.05a11.65,11.65,0,0,1-2.24,4Z"/><path class="cls-31" d="M289.38,268.18a1.74,1.74,0,0,1-.78-1.62L290,250.81a1.76,1.76,0,0,1,3.5.3l-1.36,15.76a1.77,1.77,0,0,1-1.9,1.6A1.8,1.8,0,0,1,289.38,268.18Z"/><path class="cls-31" d="M273.07,285.26a1.91,1.91,0,0,1-.37-.33,1.76,1.76,0,0,1,.2-2.48l11.43-9.66a1.76,1.76,0,0,1,2.27,2.68l-11.43,9.67A1.76,1.76,0,0,1,273.07,285.26Z"/><rect class="cls-14" x="78.07" y="209.49" width="56.9" height="3.47" rx="1.1"/><path class="cls-29" d="M87.77,211.22h0a1.73,1.73,0,0,1,1.74-1.73H84.58a1.72,1.72,0,0,0-1.73,1.73h0A1.73,1.73,0,0,0,84.58,213h4.93A1.74,1.74,0,0,1,87.77,211.22Z"/><path class="cls-15" d="M133.24,209.49h-17a1.73,1.73,0,0,1,1.74,1.73h0a1.74,1.74,0,0,1-1.74,1.74h17a1.74,1.74,0,0,0,1.74-1.74h0A1.73,1.73,0,0,0,133.24,209.49Z"/><path class="cls-35" d="M80.81,196a2,2,0,0,1-.19,2.63l-1.09,1.05a2,2,0,0,0-.58,1.68L80,209.49h52.62a3.22,3.22,0,0,0,0-.76l-.88-6.7a7.85,7.85,0,0,1,.06-2.37l1.9-10.59-54.23-3.89-.63,7.46a2,2,0,0,0,.4,1.37Z"/><path class="cls-14" d="M134.57,189.12h-.13l-55.43-4a1.73,1.73,0,1,1,.25-3.45l55.43,4a1.73,1.73,0,0,1-.12,3.45Z"/><path class="cls-36" d="M85.1,171.37a1,1,0,0,1-.08,1.52l-.13.1a1,1,0,0,0,0,1.61l1.28.93a1,1,0,0,1,.24,1.39l-.26.38a1,1,0,0,0,.35,1.46l1.71.93a1,1,0,0,1,.49,1.18l-.24.81a1,1,0,0,0,0,.67l46,3.31a1,1,0,0,0-.24-.48l-.57-.64A1,1,0,0,1,134,183l.06,0a1,1,0,0,0,.13-1.65l-1-.87a1,1,0,0,1-.09-1.46l.21-.22a1,1,0,0,0-.2-1.55l-1.5-1a1,1,0,0,1-.38-1.29l.28-.58A1,1,0,0,0,131,173l-1.89-.86a1,1,0,0,1-.58-1.07l.16-1A1,1,0,0,0,128,169l-2.1-.63a1,1,0,0,1-.72-.85L125,166a1,1,0,0,0-.87-.89l-2.12-.29a1,1,0,0,1-.82-.67l-.59-1.69a1,1,0,0,0-1-.68l-1.93.07a1,1,0,0,1-.92-.51l-1-1.78a1,1,0,0,0-1.12-.47l-1.58.38a1,1,0,0,1-1-.34l-1.38-1.69a1,1,0,0,0-1.25-.26l-1.11.58a1,1,0,0,1-1.15-.15l-1.59-1.46a1,1,0,0,0-1.38,0l-.61.58a1,1,0,0,1-1.27.1l-1.61-1.11a1,1,0,0,0-1.46.35l-.22.4a1,1,0,0,1-1.35.41l-1.4-.71a1,1,0,0,0-1.45.7l0,.16a1,1,0,0,1-1.32.75l-1-.36a1,1,0,0,0-1.34,1h0a1,1,0,0,1-1.2,1.06l-.62-.12a1,1,0,0,0-1.15,1.29v0a1,1,0,0,1-1,1.31h-.25a1,1,0,0,0-.91,1.49l.11.22a1,1,0,0,1-.72,1.47h0a1,1,0,0,0-.63,1.61l.39.5a1,1,0,0,1-.41,1.55h0a1,1,0,0,0-.31,1.66Z"/><g class="cls-37"><path class="cls-14" d="M104.8,156.19l1.59,1.46a1,1,0,0,0,1,.2,1.38,1.38,0,0,1-.33-.2l-1.59-1.46a1,1,0,0,0-1-.2A1.12,1.12,0,0,1,104.8,156.19Z"/><path class="cls-14" d="M109.9,157.48l1.38,1.69a1,1,0,0,0,1,.34l.13,0a1,1,0,0,1-.44-.31l-1.38-1.69a1,1,0,0,0-1.14-.31A1,1,0,0,1,109.9,157.48Z"/><path class="cls-14" d="M115,159.6l1,1.78a1,1,0,0,0,.92.51l.48,0a1,1,0,0,1-.69-.49l-1-1.78a1,1,0,0,0-1.12-.47l-.13,0A1,1,0,0,1,115,159.6Z"/><path class="cls-14" d="M119.86,162.5l.59,1.69a1,1,0,0,0,.82.67l2.12.29a1,1,0,0,1,.86.89l.17,1.43a1,1,0,0,0,.72.85l2.1.63a1,1,0,0,1,.71,1.12l-.16,1a1,1,0,0,0,.58,1.07l1.89.86a1,1,0,0,1,.49,1.36l-.28.58a1,1,0,0,0,.38,1.29l1.5,1a1,1,0,0,1,.2,1.55l-.21.22a1,1,0,0,0,.09,1.46l1,.87a1,1,0,0,1-.13,1.65l-.06,0a1,1,0,0,0-.24,1.55l.57.64a1,1,0,0,1,.23.43l.72,0a1,1,0,0,0-.24-.48l-.57-.64A1,1,0,0,1,134,183l.06,0a1,1,0,0,0,.13-1.65l-1-.87a1,1,0,0,1-.09-1.46l.21-.22a1,1,0,0,0-.2-1.55l-1.5-1a1,1,0,0,1-.38-1.29l.28-.58A1,1,0,0,0,131,173l-1.89-.86a1,1,0,0,1-.58-1.07l.16-1A1,1,0,0,0,128,169l-2.1-.63a1,1,0,0,1-.72-.85L125,166a1,1,0,0,0-.87-.89l-2.12-.29a1,1,0,0,1-.82-.67l-.59-1.69a1,1,0,0,0-1-.68l-.48,0A1,1,0,0,1,119.86,162.5Z"/><path class="cls-14" d="M89.11,159.58a1,1,0,0,0,.52,0l-.43-.08a1.08,1.08,0,0,0-.51,0Z"/><path class="cls-14" d="M92.69,157.84a1,1,0,0,0,.69,0l-1-.36a1,1,0,0,0-.69,0Z"/><path class="cls-14" d="M95.5,156.23l1.4.71a1,1,0,0,0,.82.05l-.11-.05-1.4-.71a1,1,0,0,0-.81,0Z"/><path class="cls-14" d="M99.93,155.78l1.61,1.11a1,1,0,0,0,.93.11.91.91,0,0,1-.22-.11l-1.61-1.11a1,1,0,0,0-.93-.11A.91.91,0,0,1,99.93,155.78Z"/></g><path class="cls-33" d="M89.43,172.36a.84.84,0,0,1-.06,1.25l-.11.09a.83.83,0,0,0,0,1.32l1,.76a.83.83,0,0,1,.2,1.14l-.21.31a.83.83,0,0,0,.29,1.2l1.4.76a.82.82,0,0,1,.4,1l-.2.66a.85.85,0,0,0,.5,1l1.66.62a.82.82,0,0,1,.41.34l34.29,2.47a.81.81,0,0,1,.37-.22h0a.83.83,0,0,0,.38-1.35l-.47-.53a.83.83,0,0,1,.2-1.27l0,0a.83.83,0,0,0,.11-1.35l-.85-.71a.84.84,0,0,1-.07-1.2l.17-.19a.82.82,0,0,0-.16-1.26l-1.24-.78a.83.83,0,0,1-.3-1.06l.22-.48a.83.83,0,0,0-.4-1.11l-1.55-.71a.82.82,0,0,1-.47-.88l.12-.85a.83.83,0,0,0-.58-.91l-1.73-.52a.8.8,0,0,1-.58-.7l-.14-1.17a.82.82,0,0,0-.71-.73L119.7,167a.85.85,0,0,1-.67-.55l-.48-1.39a.84.84,0,0,0-.82-.56l-1.58.06a.84.84,0,0,1-.75-.41l-.85-1.46a.83.83,0,0,0-.91-.4l-1.3.32a.82.82,0,0,1-.84-.28L110.37,161a.84.84,0,0,0-1-.21l-.91.47a.84.84,0,0,1-.94-.12l-1.31-1.19a.82.82,0,0,0-1.13,0l-.5.47a.82.82,0,0,1-1,.09l-1.32-.91a.83.83,0,0,0-1.2.28l-.18.33a.83.83,0,0,1-1.11.34l-1.15-.58a.83.83,0,0,0-1.19.57l0,.14a.82.82,0,0,1-1.08.61l-.86-.29a.83.83,0,0,0-1.1.84h0a.83.83,0,0,1-1,.87l-.51-.1a.83.83,0,0,0-1,1.06v0a.82.82,0,0,1-.81,1.07h-.2A.83.83,0,0,0,90.1,166l.09.18a.83.83,0,0,1-.59,1.21h0a.84.84,0,0,0-.51,1.33l.31.41a.83.83,0,0,1-.33,1.27h0a.83.83,0,0,0-.25,1.36Z"/><path class="cls-29" d="M89.51,182.42l-5.21-.37a1.74,1.74,0,0,0-1.86,1.51.25.25,0,0,1,0,.08,1.67,1.67,0,0,0,0,.5,1.71,1.71,0,0,0,1.58,1.36l5.3.38a1.86,1.86,0,0,1,.16-3.46Z"/><path class="cls-15" d="M134.69,185.67l-18.48-1.33a1.76,1.76,0,0,1-.26,3.45l18.49,1.33h.13a1.73,1.73,0,0,0,.12-3.45Z"/><path class="cls-38" d="M131.78,202a7.89,7.89,0,0,1-.06-1l-6.92-3.8a2.49,2.49,0,0,0-1.49-.26l-3.45.48a.33.33,0,0,0,0,.65l3.32.32a2.5,2.5,0,0,1,1.28.5l7.69,6Z"/><path class="cls-38" d="M79.53,199.68a2,2,0,0,0-.44.65l11.35-1.94a.74.74,0,0,0,.09-1.43L79,193.45a2,2,0,0,0,.3.56l1.53,2a2,2,0,0,1-.19,2.63Z"/><path class="cls-38" d="M90.53,197l-.62-.19L79,193.45a1.9,1.9,0,0,0,.21.43l.09.13,1.53,2,.06.08v0l0,.06,0,0,0,.05v0l0,0,0,0,0,0,0,0,0,.06v0l0,.05v.13l0,0v0l0,0V197a.13.13,0,0,1,0,.06v0s0,0,0,.06v.12a.25.25,0,0,1,0,.08h0a.28.28,0,0,1,0,.09h0l9.84.35A.72.72,0,0,0,90.53,197Z"/><path class="cls-38" d="M132.66,208.73l-.88-6.7a7.85,7.85,0,0,1,.06-2.37l1.9-10.59L116,187.79h0L115.23,199a11.63,11.63,0,0,0,.14,2.7l1.31,7.82h16A3.22,3.22,0,0,0,132.66,208.73Z"/><g class="cls-39"><path class="cls-35" d="M85.42,194.12h-.07a.68.68,0,0,1-.6-.73l.55-5.66a.67.67,0,0,1,.73-.6.66.66,0,0,1,.6.73l-.55,5.66A.66.66,0,0,1,85.42,194.12Z"/></g><g class="cls-39"><path class="cls-35" d="M85.32,208.63a.67.67,0,0,1-.66-.58l-.88-6.64a.67.67,0,0,1,1.33-.17l.87,6.63a.67.67,0,0,1-.57.75Z"/></g><path class="cls-15" d="M88.49,181.68a1,1,0,0,0,0,.67l46,3.31a1,1,0,0,0-.24-.48l-.57-.64h0L88.6,181.3Z"/><path class="cls-38" d="M500,307.1a5.5,5.5,0,0,0-.47-.81A1,1,0,0,0,500,307.1Z"/><path class="cls-14" d="M128.8,291.58v45a2.64,2.64,0,0,0,2.64,2.64h0a2.64,2.64,0,0,0,2.63-2.64v-45a2.64,2.64,0,0,0-2.63-2.64h0A2.64,2.64,0,0,0,128.8,291.58Z"/><rect class="cls-40" x="79.79" y="287.57" width="45.05" height="52.98" transform="translate(-211.75 416.37) rotate(-90)"/><rect class="cls-41" x="79.79" y="301.21" width="45.05" height="25.71" transform="translate(-211.75 416.37) rotate(-90)"/><path class="cls-14" d="M70.55,291.58v45a2.64,2.64,0,0,0,2.64,2.64h0a2.64,2.64,0,0,0,2.63-2.64v-45a2.64,2.64,0,0,0-2.63-2.64h0A2.64,2.64,0,0,0,70.55,291.58Z"/><path class="cls-29" d="M73.19,329.14a2.64,2.64,0,0,1-2.64-2.64v4.05a2.64,2.64,0,1,0,5.27,0V326.5A2.64,2.64,0,0,1,73.19,329.14Z"/><path class="cls-29" d="M131.44,329.14a2.64,2.64,0,0,1-2.64-2.64v4.05a2.64,2.64,0,1,0,5.27,0V326.5A2.64,2.64,0,0,1,131.44,329.14Z"/><path class="cls-15" d="M70.55,291.58v13.15a2.64,2.64,0,1,1,5.27,0V291.58a2.64,2.64,0,1,0-5.27,0Z"/><path class="cls-15" d="M128.8,291.58v13.15a2.64,2.64,0,1,1,5.27,0V291.58a2.64,2.64,0,1,0-5.27,0Z"/><path class="cls-42" d="M94.57,321v15.55h3V321a1.51,1.51,0,0,0-3,0Z"/><path class="cls-42" d="M100.8,321v15.55h3V321a1.51,1.51,0,1,0-3,0Z"/><path class="cls-42" d="M107,321v15.55h3V321a1.51,1.51,0,1,0-3,0Z"/><path class="cls-42" d="M93,291.54a41.47,41.47,0,0,0-.27,4.8c0,11.14,4.27,20.16,9.54,20.16s9.54-9,9.54-20.16a41.47,41.47,0,0,0-.27-4.8Z"/><path class="cls-41" d="M95.37,291.54a32,32,0,0,0-.36,4.8c0,8.52,3.27,15.43,7.3,15.43s7.31-6.91,7.31-15.43a30.74,30.74,0,0,0-.37-4.8Z"/><path class="cls-36" d="M70.55,302.24c-6-7.29-13.61-10.75-18.56-7.89-6.07,3.5-5.89,15.16.39,26,5,8.64,12.32,14.19,18.17,14.37Z"/><path class="cls-33" d="M70.55,307.55c-5.12-8-12.37-12.49-16.64-10-4.52,2.61-4,11.94,1.13,20.84,4.45,7.72,10.92,12.58,15.51,12Z"/><path class="cls-36" d="M52.38,320.4l-.27-.48a.8.8,0,0,1-.08-.16l-.18-.32a1.14,1.14,0,0,1-.1-.19,2.69,2.69,0,0,1-.16-.29l-.1-.2-.15-.29-.1-.19-.15-.3-.09-.19c0-.11-.11-.22-.16-.34s-.05-.09-.07-.14l-.21-.46-.09-.21c0-.09-.09-.18-.12-.27s-.07-.16-.11-.23a2.44,2.44,0,0,0-.1-.24c0-.09-.07-.17-.1-.25l-.09-.23c0-.08-.07-.17-.11-.25a1.8,1.8,0,0,0-.08-.21l-.1-.27c0-.06,0-.12-.07-.17l-.39-1.09,0-.1c0-.11-.07-.22-.11-.33s0-.09,0-.13-.07-.22-.11-.33l0-.12c0-.12-.07-.23-.11-.34l0-.1c0-.12-.08-.24-.11-.37h0c-.2-.71-.37-1.42-.52-2.11h0a25.55,25.55,0,0,1-.57-4.91h0v2.1h0c.06,4.72,1.76,10,4.92,15.46,5,8.64,12.84,13.53,18.08,13.52v-.88C64.7,334.59,57.37,329,52.38,320.4Z"/><path class="cls-15" d="M52.38,320.4l-.27-.48a.8.8,0,0,1-.08-.16l-.18-.32a1.14,1.14,0,0,1-.1-.19,2.69,2.69,0,0,1-.16-.29l-.1-.2-.15-.29-.1-.19-.15-.3-.09-.19c0-.11-.11-.22-.16-.34s-.05-.09-.07-.14l-.21-.46-.09-.21c0-.09-.09-.18-.12-.27s-.07-.16-.11-.23a2.44,2.44,0,0,0-.1-.24c0-.09-.07-.17-.1-.25l-.09-.23c0-.08-.07-.17-.11-.25a1.8,1.8,0,0,0-.08-.21l-.1-.27c0-.06,0-.12-.07-.17l-.39-1.09,0-.1c0-.11-.07-.22-.11-.33s0-.09,0-.13-.07-.22-.11-.33l0-.12c0-.12-.07-.23-.11-.34l0-.1c0-.12-.08-.24-.11-.37h0c-.2-.71-.37-1.42-.52-2.11h0a25.55,25.55,0,0,1-.57-4.91h0v2.1h0c.06,4.72,1.76,10,4.92,15.46,5,8.64,12.84,13.53,18.08,13.52v-.88C64.7,334.59,57.37,329,52.38,320.4Z"/><g class="cls-43"><path class="cls-44" d="M103.38,328.48a1.59,1.59,0,0,1-1.59,1.59H79.93a1.59,1.59,0,0,1,0-3.18h21.86A1.59,1.59,0,0,1,103.38,328.48Z"/></g><g class="cls-43"><path class="cls-44" d="M121.82,328.05a1.59,1.59,0,0,1-1.59,1.59H108.54a1.59,1.59,0,0,1,0-3.18h11.69A1.59,1.59,0,0,1,121.82,328.05Z"/></g><rect class="cls-45" x="75.82" y="291.54" width="52.98" height="12.01"/><path class="cls-46" d="M40.83,257.79c0-.07,0-.15,0-.22a1.26,1.26,0,0,1,1.25-1.28H78.87a1.27,1.27,0,0,1,1.26,1.28v.22A6.76,6.76,0,1,0,91,252.22a1.26,1.26,0,0,1,0-2,6.76,6.76,0,1,0-10.9-5.35v0a1.26,1.26,0,0,1-1.26,1.27H42.09a1.25,1.25,0,0,1-1.25-1.27c0-.08,0-.15,0-.23A6.76,6.76,0,1,0,30,250.24a1.25,1.25,0,0,1,0,2,6.76,6.76,0,1,0,10.88,5.57Z"/><circle class="cls-47" cx="89.07" cy="255.19" r="1.95"/><circle class="cls-47" cx="89.07" cy="242.48" r="1.95"/><circle class="cls-47" cx="36.02" cy="255.19" r="1.95"/><circle class="cls-47" cx="36.02" cy="242.48" r="1.95" transform="translate(-208.25 221.83) rotate(-76.72)"/><path class="cls-48" d="M30.25,249.18a6.84,6.84,0,0,1-2.68-5.44,6,6,0,0,1,.07-1,6.47,6.47,0,0,0-.33,2.08A6.78,6.78,0,0,0,30,250.24a1.18,1.18,0,0,1,.47.79A1.27,1.27,0,0,0,30.25,249.18Z"/><path class="cls-48" d="M93.22,243.72A6.78,6.78,0,0,1,90.59,249a1.26,1.26,0,0,0,0,2,1.3,1.3,0,0,1,.47-.72,6.76,6.76,0,0,0,2-8.15A6.42,6.42,0,0,1,93.22,243.72Z"/><path class="cls-48" d="M40.84,257.6a.13.13,0,0,0,0-.06,1.24,1.24,0,0,1,1.24-1.25H78.9a1.24,1.24,0,0,1,1.23,1.25v.06a6.76,6.76,0,0,0,13.42,1.15,7,7,0,0,1-12.73-4v0a1.31,1.31,0,0,0-1.3-1.31H41.45a1.31,1.31,0,0,0-1.31,1.31v0a7,7,0,0,1-12.73,4,6.77,6.77,0,0,0,13.43-1.15Z"/><rect class="cls-47" x="67.5" y="238.06" width="1.63" height="21.11" rx="0.32" transform="translate(316.92 180.3) rotate(90)"/><rect class="cls-47" x="48.98" y="243.6" width="1.63" height="10.01" rx="0.32" transform="translate(298.41 198.81) rotate(90)"/><path class="cls-15" d="M337.28,328h0s0,0,0,.06S337.28,328,337.28,328Zm0-.39c0,.06,0,.11,0,.17S337.31,327.69,337.32,327.63Zm0,.71v0a.38.38,0,0,1,0,.1A.09.09,0,0,0,337.28,328.34Zm11.29,4.46h0Zm.37.16,0,0Zm-.07,0,0,0Zm-.07-.05h0Zm-.07,0h0Zm-.08,0h0Zm-1,.35,0,0Zm.82-.36h0Zm-.08,0h0Zm-.09,0h0Zm-.08,0h0Zm-.09,0,0,0Zm-.08,0-.05,0Zm-.09,0,0,0Zm-.08.05,0,0Zm-.08.05,0,0Zm-.08,0,0,0Zm-.14.13,0,0Zm-.38.79v0Zm0,.08s0,0,0,.05S347.23,334.11,347.23,334.09Zm.07-.45s0,0,0-.05S347.31,333.62,347.3,333.64Zm-.08.33a.09.09,0,0,1,0-.05A.09.09,0,0,0,347.22,334Zm0-.09a.08.08,0,0,1,0,0A.08.08,0,0,0,347.23,333.88Zm0-.08a.06.06,0,0,1,0,0A.06.06,0,0,0,347.25,333.8Zm0-.08s0,0,0,0S347.28,333.7,347.27,333.72Zm.26-.43,0,0Zm-.06.07,0,0Zm-.06.08,0,0Zm0,.07,0,.05Z"/><path class="cls-49" d="M240.57,198.44h0c-.13,0-.26,0-.38,0h-.07l-.35.07h0l-.37.09-.08,0-.37.13a5.45,5.45,0,0,0-3.25,3.59s0,.07,0,.11l0,0,0,.06s0,0,0,.05l0,0a.1.1,0,0,1,0,.05l0,0a.92.92,0,0,1-.26.22h0a1,1,0,0,1-1,0,5.48,5.48,0,0,0-4.83-.39,4.84,4.84,0,0,0-.85.43h0l0,0-.35.23,0,0-.33.27,0,0a2.76,2.76,0,0,0-.3.29l0,0-.27.31,0,.05c-.08.11-.17.22-.24.33h0c-.08.12-.15.24-.22.36l0,0c-.07.12-.13.24-.19.36l0,.06-.15.37,0,.06c0,.13-.09.26-.12.39h0c0,.13-.07.27-.1.4a.2.2,0,0,1,0,.07c0,.13,0,.26-.05.39v.07c0,.14,0,.27,0,.41v0c0,.13,0,.27,0,.4v0c0,.14,0,.28,0,.41a.22.22,0,0,0,0,.08c0,.13,0,.27.08.4a.64.64,0,0,0,0,.07l.12.42h0l0,.11.06.14h0l0,.09a1.42,1.42,0,0,0,.08.18l0,.06.09.19,0,0,.12.21v0a5.53,5.53,0,0,0,5.05,2.63h0l.24,0H232l.21,0,.08,0,.18,0,.1,0,.16,0,.11,0,.16,0,.12,0,.06,0,.13,0h.05a1,1,0,0,1,1.33.57l5.49,13.86,5.48,13.85s0,0,0,.05a.36.36,0,0,1,0,.11,1,1,0,0,1-.5,1.11l-.09,0,0,0H245l-.12.05-.06,0-.11.06-.15.07-.1.05-.15.08-.09.05-.15.1L244,243l-.18.12,0,0-.19.16h0a5.52,5.52,0,0,0-1.87,5.37v0l.06.24v0l.06.21a.14.14,0,0,1,0,.06c0,.07.05.13.07.19l0,.08v0a.78.78,0,0,0,0,.14.93.93,0,0,1,.05.1h0l.19.38a.43.43,0,0,1,0,.07l.21.35.05.06.24.33,0,0a1.93,1.93,0,0,0,.27.3l0,0a3.83,3.83,0,0,0,.29.28l.06.05.31.25.05,0,.35.23h0l.36.21.05,0,.37.17.06,0,.38.14h0a3,3,0,0,0,.4.11h0l.41.07h.06l.41,0h.51a3,3,0,0,0,.42,0h0l.42-.07h0a5,5,0,0,0,.91-.27,5.46,5.46,0,0,0,3.26-3.59,1,1,0,0,1,.83-.72h.19l.15,0h0l.15,0,0,0,.15.07a5.5,5.5,0,0,0,4.73.42l.28-.12.08,0,.18-.08.1-.06.16-.08.1-.06.15-.1.1-.06.14-.1.09-.07.14-.11.08-.07.15-.13.07-.06.17-.17,0,0h0a5.48,5.48,0,0,0-6-8.9h0a1,1,0,0,1-1.34-.57l-11-27.71a1,1,0,0,1,.58-1.33l.17-.07a5.48,5.48,0,0,0-2.52-10.5Z"/><path class="cls-46" d="M230,213.27l.18-.06a1,1,0,0,1,1.33.57l11,27.71a1,1,0,0,1-.59,1.33l-.17.07a5.48,5.48,0,1,0,7.45,6.54,1,1,0,0,1,1.51-.59,5.44,5.44,0,0,0,4.73.42,5.48,5.48,0,1,0-4-10.23h0a1,1,0,0,1-1.34-.57l-11-27.72a1,1,0,0,1,.58-1.33l.17-.07a5.48,5.48,0,1,0-7.44-6.53,1,1,0,0,1-1.5.59,5.48,5.48,0,1,0-1,9.86Z"/><path class="cls-47" d="M244.83,249.43a1.58,1.58,0,1,1,2,.89A1.58,1.58,0,0,1,244.83,249.43Z"/><path class="cls-47" d="M254.41,245.64a1.58,1.58,0,1,1,2,.89A1.58,1.58,0,0,1,254.41,245.64Z"/><path class="cls-47" d="M229,209.45a1.58,1.58,0,1,1,2.05.89A1.58,1.58,0,0,1,229,209.45Z"/><path class="cls-47" d="M238.59,205.66a1.58,1.58,0,1,1,2,.89A1.58,1.58,0,0,1,238.59,205.66Z"/><path class="cls-48" d="M233.29,202.73a5.55,5.55,0,0,1,3.3-3.64,4.91,4.91,0,0,1,.74-.24,5.53,5.53,0,0,0-1.67.38,5.45,5.45,0,0,0-3.25,3.59,1.06,1.06,0,0,1-.46.59A1,1,0,0,0,233.29,202.73Z"/><path class="cls-48" d="M256.18,248.56a5.48,5.48,0,0,1-4.73-.42,1,1,0,0,0-1.5.57,1.11,1.11,0,0,1,.68.13,5.44,5.44,0,0,0,4.73.42,5.36,5.36,0,0,0,2-1.33A5.86,5.86,0,0,1,256.18,248.56Z"/><path class="cls-48" d="M230.1,213.22l.05,0a1,1,0,0,1,1.3.55l11,27.76a1,1,0,0,1-.58,1.3l0,0A5.48,5.48,0,0,0,245,253.29a5.67,5.67,0,0,1-.76-10.79h0a1.07,1.07,0,0,0,.6-1.38l-11.36-28.69a1.05,1.05,0,0,0-1.37-.59h0a5.68,5.68,0,0,1-6.83-8.4,5.48,5.48,0,0,0,4.87,9.78Z"/><rect class="cls-47" x="244.41" y="222.69" width="1.33" height="17.11" rx="0.55" transform="matrix(0.93, -0.37, 0.37, 0.93, -67.89, 106.39)"/><rect class="cls-47" x="238.89" y="213.23" width="1.33" height="8.12" rx="0.42" transform="translate(542.24 331.21) rotate(158.41)"/><g class="cls-28"><path class="cls-27" d="M110.27,250.13a101.84,101.84,0,0,1-.4-10.87,4.78,4.78,0,0,1,6.23-4.5c1.58.51,3.14,1.12,4.67,1.78a3.2,3.2,0,0,1,.54,5.57c-1.16.8-2.31,1.62-3.39,2.5a12.73,12.73,0,0,0-4,5.87l0,.08A1.87,1.87,0,0,1,110.27,250.13Z"/></g><g class="cls-28"><path class="cls-27" d="M215,187.56c1.49-2.41,2.73-5.56,4.86-6.83a1.21,1.21,0,0,1,1-.13c.73.25.75,1.09.78,1.77a24.91,24.91,0,0,0,1.16,5.08,8.61,8.61,0,0,1,.13,5.12,3.76,3.76,0,0,1-4,2.62,7.5,7.5,0,0,1-2.54-1.23A4.73,4.73,0,0,1,215,187.56Z"/></g><g class="cls-28"><path class="cls-27" d="M142.71,247.65c1.49-2.42,2.72-5.57,4.86-6.83a1.17,1.17,0,0,1,1-.13c.73.25.75,1.08.78,1.77a24.82,24.82,0,0,0,1.16,5.07,8.73,8.73,0,0,1,.13,5.13,3.78,3.78,0,0,1-4,2.62,7.54,7.54,0,0,1-2.55-1.23A4.74,4.74,0,0,1,142.71,247.65Z"/></g><g class="cls-28"><path class="cls-27" d="M237.11,286.14c1.49-2.42,2.72-5.57,4.86-6.83a1.17,1.17,0,0,1,1-.13c.73.25.75,1.08.78,1.77a25,25,0,0,0,1.16,5.07,8.73,8.73,0,0,1,.13,5.13,3.79,3.79,0,0,1-4,2.62,7.54,7.54,0,0,1-2.55-1.23A4.74,4.74,0,0,1,237.11,286.14Z"/></g><g class="cls-28"><path class="cls-27" d="M331.89,269.33a62.93,62.93,0,0,0-1.77,6.43,4.29,4.29,0,0,0,4.74,4.88c2.28-.27,4.88-1,6.38-1.11a3.32,3.32,0,0,0,.55-.09c3.24-.85,3.15-5.77,1.9-8.31-1.19-2.71-3.33-3.94-5.67-4.88A4.61,4.61,0,0,0,331.89,269.33Z"/></g><g class="cls-28"><path class="cls-27" d="M194.8,277.53c-.41,8-6.38,14.41-1,16.49a6.55,6.55,0,0,0,8.78-6.94,14.92,14.92,0,0,0-4.54-9.25c-.25-.23-.49-.49-.73-.75-.75-.82-2.13-1.25-2.46,0A1.84,1.84,0,0,0,194.8,277.53Z"/></g><g class="cls-28"><path class="cls-27" d="M163.4,215.33c-1.58.36-.73,1.72-1,3.32a3.82,3.82,0,0,0,1.87,4.11c2.44,1.12,4.77-.83,5.62-3.18a3.64,3.64,0,0,0-4.29-4.75C164.83,215,164.09,215.23,163.4,215.33Z"/></g><g class="cls-28"><path class="cls-27" d="M302.89,299c6.4,2.3,9.94-7.33,3.63-9.87-3.85-1.55-8.14-1.49-8.18,3.19A6.63,6.63,0,0,0,302.89,299Z"/></g><g class="cls-28"><path class="cls-27" d="M219.32,161.21c-3.48-2.37-7.1,2.84-3.71,5.34,2.07,1.53,4.65,2.17,5.4-.64A4.09,4.09,0,0,0,219.32,161.21Z"/></g><g class="cls-28"><path class="cls-27" d="M318.37,250.87c-3.48-2.37-7.1,2.85-3.71,5.35,2.06,1.52,4.64,2.16,5.39-.64A4.09,4.09,0,0,0,318.37,250.87Z"/></g><g class="cls-28"><path class="cls-27" d="M288.1,287.08c-3.47-2.37-7.09,2.85-3.7,5.35,2.06,1.52,4.64,2.16,5.39-.64A4.08,4.08,0,0,0,288.1,287.08Z"/></g><g class="cls-28"><path class="cls-27" d="M195.17,188.82c-3.48-2.37-7.1,2.85-3.71,5.35,2.06,1.52,4.64,2.16,5.39-.64A4.09,4.09,0,0,0,195.17,188.82Z"/></g><g class="cls-28"><path class="cls-27" d="M226.18,239c-6.73-4.58-13.72,5.51-7.18,10.35,4,2.95,9,4.18,10.44-1.24A7.94,7.94,0,0,0,226.18,239Z"/></g><g class="cls-28"><path class="cls-27" d="M120.58,200.31a35,35,0,0,1-1.39,4.16,1.36,1.36,0,0,0,2.18,1.49,6.5,6.5,0,0,0,2.55-5.42v0A1.7,1.7,0,0,0,120.58,200.31Z"/></g><g class="cls-28"><path class="cls-27" d="M93.59,235.7a19.1,19.1,0,0,0-.81,7.06,1.18,1.18,0,0,0,1,1.17c.65.09.94-.42,1.15-.89a17.1,17.1,0,0,0,1.45-8.13A1.57,1.57,0,0,0,96,234C95.33,233.24,94.33,233.71,93.59,235.7Z"/></g><g class="cls-28"><path class="cls-27" d="M270,223.54c-1.72,2.24-1.74,4.69-1.66,7.06,0,.58.87,1.09,2.05,1.17a2.6,2.6,0,0,0,2.38-.89c2.36-2.54,3.4-5.36,3-8.13a1.29,1.29,0,0,0-.76-.91C273.65,221.08,271.57,221.55,270,223.54Z"/></g><g class="cls-28"><path class="cls-27" d="M101.57,270.2c-1.72,2.23-1.74,4.69-1.66,7.06,0,.58.87,1.09,2.06,1.17a2.59,2.59,0,0,0,2.37-.89c2.36-2.54,3.4-5.36,3-8.14a1.29,1.29,0,0,0-.76-.9C105.18,267.74,103.1,268.21,101.57,270.2Z"/></g><path class="cls-46" d="M325,328.2c8.29.27,17.39,4.1,19.7,8.79a6,6,0,0,0-3.74-7.2.44.44,0,0,1-.1-.75c2.42-1.84,3.19-5.65-.54-8.31a.43.43,0,0,1,.11-.76c4-1.47,6.35-6.59,3.5-11.38.6,6.89-8.83,10.94-17.93,10.68-8.74-.26-17.16-4.57-16.23-10.07-3.68,3.43-1.93,7.59.45,8.89a.36.36,0,0,1,0,.6c-3.76,2.8-2.14,8,.32,9.81a.36.36,0,0,1-.06.6c-2.86,1.49-4.49,5.76-2.75,8C308.28,331.45,316.24,327.9,325,328.2Z"/><path class="cls-50" d="M326,324.33a3.86,3.86,0,0,1,2.2.34.59.59,0,0,1,.23.93,3.91,3.91,0,0,1-1.81,1.3c-1.23.29-2-.13-2.18-.84S324.8,324.63,326,324.33Z"/><path class="cls-50" d="M326,323.42a4,4,0,0,0,2.25-.21.6.6,0,0,0,.28-.93,4,4,0,0,0-1.76-1.41c-1.22-.37-2,0-2.24.72S324.75,323.06,326,323.42Z"/><path class="cls-51" d="M307.79,337.09c-1.74-2.23-.11-6.5,2.75-8a.36.36,0,0,0,.06-.6c-2.46-1.85-4.08-7-.32-9.81a.36.36,0,0,0,0-.6c-2.38-1.3-4.13-5.46-.45-8.89a.36.36,0,0,0-.31-.61c-2.4.49-4.33,2.74-4.52,6.85a22.49,22.49,0,0,0,.78,6,6.61,6.61,0,0,1-.13,3.53c-2.09,6.52-.93,11.13,1.72,12.67A.35.35,0,0,0,307.79,337.09Z"/><path class="cls-51" d="M345.51,337.34c2.48-3.8,1.33-9.31.63-11.76a4,4,0,0,1,.09-2.47c1.07-3,3.18-10.61-1.61-15.06a.43.43,0,0,0-.66.54c2.85,4.79.5,9.91-3.5,11.38a.43.43,0,0,0-.11.76c3.73,2.66,3,6.47.54,8.31a.44.44,0,0,0,.1.75,6,6,0,0,1,3.74,7.2A.43.43,0,0,0,345.51,337.34Z"/><path class="cls-52" d="M357.73,329.34c.75,1-1.15,2.23-1.71,1.29S357.14,328.56,357.73,329.34Z"/><path class="cls-53" d="M346,324.78a11.14,11.14,0,0,1,10,5.77c-.36-.84,1.17-2,1.75-1.21a13.32,13.32,0,0,0-11.68-5.56A3.73,3.73,0,0,0,346,324.78Z"/><path class="cls-54" d="M326.19,324.65a2.66,2.66,0,0,1,1.49.23.4.4,0,0,1,.15.63,2.61,2.61,0,0,1-1.22.87c-.83.2-1.35-.08-1.47-.56S325.37,324.85,326.19,324.65Z"/><path class="cls-54" d="M326.24,323.11a2.67,2.67,0,0,0,1.49-.14.4.4,0,0,0,.19-.62,2.6,2.6,0,0,0-1.17-.94c-.82-.25-1.36,0-1.5.47S325.42,322.86,326.24,323.11Z"/><path class="cls-48" d="M325,328.2c8.29.27,17.39,4.1,19.7,8.79a6,6,0,0,0-3.74-7.2.44.44,0,0,1-.1-.75c2.42-1.85,3.19-5.65-.54-8.32a.43.43,0,0,1,.11-.75c4-1.47,6.35-6.59,3.5-11.38,1,5.85-3.15,9.56-5.26,11a.91.91,0,0,0-.05,1.47,5.67,5.67,0,0,1,2.37,3.55.91.91,0,0,1-1.16,1c-4.52-1.32-11.18-1.9-17.85-1.46-7.2.48-12,1.61-11.41,4.35a.36.36,0,0,1-.06.6c-2.86,1.49-4.49,5.76-2.75,8C308.28,331.45,316.24,327.9,325,328.2Z"/><path class="cls-55" d="M307.34,337.61a.35.35,0,0,0,.45-.52c-1.74-2.23-.11-6.5,2.75-8a.36.36,0,0,0,.06-.6,4.19,4.19,0,0,1-5-3.56C303.53,331.46,304.69,336.07,307.34,337.61Z"/><path class="cls-47" d="M309.75,314.27c2.34,3.66,7.3,4.7,9.63,5a.16.16,0,0,1,0,.31,12.27,12.27,0,0,1-7.63-1.48,5.14,5.14,0,0,1-2.27-3.72A.15.15,0,0,1,309.75,314.27Z"/><path class="cls-47" d="M335.89,319.26a24.15,24.15,0,0,1-6.4,1.07.16.16,0,0,0,0,.31,8.38,8.38,0,0,0,6.56-1.11A.15.15,0,0,0,335.89,319.26Z"/><path class="cls-55" d="M344.73,337a.43.43,0,0,0,.78.35c2.48-3.8,1.33-9.31.63-11.76a3.88,3.88,0,0,1-.15-1.27h0c-.82,2.74-4.3,4-4.3,4h0a5.16,5.16,0,0,1-.8.75.44.44,0,0,0,.1.75A6,6,0,0,1,344.73,337Z"/><ellipse class="cls-49" cx="256.72" cy="204.73" rx="4" ry="5.76" transform="translate(-43.15 70.96) rotate(-14.53)"/><ellipse class="cls-49" cx="232.78" cy="231.78" rx="4" ry="5.76" transform="translate(-50.71 65.82) rotate(-14.53)"/><ellipse class="cls-49" cx="246.23" cy="164.23" rx="5.76" ry="4" transform="translate(17.98 352.65) rotate(-73.24)"/><ellipse class="cls-49" cx="187.75" cy="215.83" rx="4" ry="5.76" transform="matrix(0.97, -0.25, 0.25, 0.97, -48.15, 54.01)"/><path class="cls-56" d="M415.56,267a1,1,0,0,0-.77-1.24l-14.12-3.33a5.25,5.25,0,0,0-5.23,1.77l-12.31,15,1.6,1.31,12.3-15a3.19,3.19,0,0,1,3.16-1.07l14.13,3.33A1,1,0,0,0,415.56,267Z"/><path class="cls-4" d="M394.72,292.57,369,271.47l-11.09,17.71-7.5,18.66a3.26,3.26,0,0,0,1.3,4l13.47,8.45a3.28,3.28,0,0,0,4.41-.88l7.49-10.5.54-1.74a3.57,3.57,0,0,1,2.08-2.25l1.36-.55Z"/><path class="cls-57" d="M361.9,280l-4.32,7.3a20,20,0,0,0-1.52,3.21l-2.86,7.75a1,1,0,0,0,.37,1.15l20.37,13.56a1,1,0,0,0,1.32-.22l2.43-3.19a1,1,0,0,0,.17-.35l.59-2.35a1,1,0,0,1,.6-.67l2.22-.84a.92.92,0,0,0,.27-.16l5.77-4.77a1,1,0,0,0,0-1.51L363.35,279.7A1,1,0,0,0,361.9,280Z"/><path class="cls-35" d="M397,290.56l-26.05-21.37a1.52,1.52,0,0,0-2.09.14,1.5,1.5,0,0,0,.17,2.14l26.05,21.37a1.51,1.51,0,0,0,2.09-.15A1.48,1.48,0,0,0,397,290.56Z"/><polygon class="cls-58" points="368.32 272.57 393.74 293.42 394.73 292.57 369 271.47 368.32 272.57"/><path class="cls-58" d="M373.24,303.06l3.84,5.85h0l.54-1.74a3.57,3.57,0,0,1,2.08-2.25l1.36-.55h0l-6.37-3A1.15,1.15,0,0,0,373.24,303.06Z"/><path class="cls-59" d="M373.91,273.57a1.48,1.48,0,0,1,2.09-.21l-2.06-1.69a1.52,1.52,0,0,0-2.09.14A1.49,1.49,0,0,0,372,274l2.08,1.71A1.49,1.49,0,0,1,373.91,273.57Z"/><path class="cls-38" d="M396.94,290.54l-5.28-4.33a1.49,1.49,0,1,1-1.88,2.3l5.3,4.35a1.49,1.49,0,0,0,2.08-.18A1.51,1.51,0,0,0,396.94,290.54Z"/><path class="cls-38" d="M396.82,290.43a16.93,16.93,0,0,0-25.77-21.13Z"/><path class="cls-59" d="M375.93,271.67a.86.86,0,0,1-.13-.14.69.69,0,0,1,.17-.92,16.93,16.93,0,0,1,7.36-3.12.65.65,0,0,1,.77.56.69.69,0,0,1-.57.76,15.61,15.61,0,0,0-6.77,2.88A.68.68,0,0,1,375.93,271.67Z"/><path class="cls-60" d="M392.78,269.08a16,16,0,0,0-2-1.42,3.1,3.1,0,0,0,1.15,2.48,3.13,3.13,0,0,0,2.66.64A18,18,0,0,0,392.78,269.08Z"/><path class="cls-60" d="M393.75,269.94c.29.27.56.55.82.84a3.22,3.22,0,0,1-1.57-.06c2.25,4.56,1.88,10.51-1.17,15.62l5,4.09A16.93,16.93,0,0,0,393.75,269.94Z"/><path class="cls-61" d="M415.56,267a1,1,0,0,0-.21-.9.53.53,0,0,1,0,.12,1,1,0,0,1-1.24.77L400,263.68a3.16,3.16,0,0,0-3.17,1.07l-12.58,15.34.52.43,12.3-15a3.19,3.19,0,0,1,3.16-1.07l14.13,3.33A1,1,0,0,0,415.56,267Z"/><path class="cls-62" d="M413.9,267.57a1.05,1.05,0,0,1-.35-1,1,1,0,1,1,.77,1.25h0A.91.91,0,0,1,413.9,267.57Z"/><g class="cls-63"><path class="cls-64" d="M359.28,294a.85.85,0,0,1-.34-1l.59-1.42a12.48,12.48,0,0,1,1.53-2.74l3.41-4.67a.84.84,0,1,1,1.36,1l-3.4,4.67a11.12,11.12,0,0,0-1.34,2.38l-.58,1.42a.84.84,0,0,1-1.1.46Z"/></g><g class="cls-63"><path class="cls-65" d="M353.44,310.72a2.19,2.19,0,0,1-.91-2.61l.63-1.8a.74.74,0,1,1,1.39.49l-.63,1.8a.73.73,0,0,0,.3.87.74.74,0,0,1-.78,1.25Z"/></g><path class="cls-58" d="M390.24,288.89l-7.41,6.4a1,1,0,0,1-.05,1.49l-5.92,4.89a1.05,1.05,0,0,1-.29.17l-2.27.86a1,1,0,0,0-.62.69l-.61,2.41a1,1,0,0,1-.17.37l-2.5,3.26a1,1,0,0,1-1.14.33l-4.68,6.56a3.37,3.37,0,0,1-3.72,1.26l4.32,2.71a3.28,3.28,0,0,0,4.41-.88l7.49-10.5.54-1.74a3.57,3.57,0,0,1,2.08-2.25l1.36-.55,13.66-11.8Z"/><path class="cls-26" d="M355.46,293.83c-20.87-31.32-70.95,4.88-83.33-38.91-10.88-38.47-47.31-53.27-77.24-29.32a2.06,2.06,0,0,0,2.13,3.49c31.67-14.12,46.72,31.82,57.49,69.9,12.37,43.79,80.08-18.13,100.95,13.19,16,24,32.57,16.47,57.52,29.15H448.5C424.37,302.89,376.31,325.11,355.46,293.83Z"/><path class="cls-49" d="M355.46,293.83c-20.87-31.32-70.95,4.88-83.33-38.91-10.88-38.47-47.31-53.27-77.24-29.32a2.06,2.06,0,0,0,2.13,3.49c31.67-14.12,64.34,6.09,75.11,44.18,12.38,43.79,62.46,7.59,83.33,38.91,16,24,48.14,16.47,73.1,29.15H448.5C424.37,302.89,376.31,325.11,355.46,293.83Z"/><g class="cls-28"><path class="cls-27" d="M258.13,310.75a1,1,0,0,0,.07-.15,3.67,3.67,0,0,1,5.45-1.57c5,3.44,13.25,11.33,10.22,15.72a4,4,0,0,1-2,1.48c-3.5,1.18-7.2-.46-10.28-2.85A10.8,10.8,0,0,1,258.13,310.75Z"/></g><g class="cls-28"><path class="cls-27" d="M369,313.59l.15.06a3.67,3.67,0,0,1,1.57,5.45c-3.44,5-11.33,13.25-15.72,10.22a4,4,0,0,1-1.48-2c-1.18-3.5.47-7.2,2.85-10.27A10.77,10.77,0,0,1,369,313.59Z"/></g><path class="cls-66" d="M156.59,303.46c-1.29-2.75,1.71-6.89,6.72-9.24,4.76-2.24,9.61-2.07,11.19.32-18.52-33-15.84-50.47-13.6-63.52a2.63,2.63,0,0,0,.1-.56c.25-3-4-5.84-9.54-6.29s-9.94,1.54-10.4,4.44c0,0-2.42,12.51,2.95,38.39s12.76,36.8,12.76,36.8h0A3.65,3.65,0,0,1,156.59,303.46Z"/><ellipse class="cls-67" cx="165.65" cy="299.19" rx="10.02" ry="5.5" transform="translate(-111.66 99.06) rotate(-25.21)"/><path class="cls-67" d="M181.4,292.91a1.09,1.09,0,0,0-.13-1.26c-4.94-5.53-11.33-17.14-13.94-29.69a58.62,58.62,0,0,1,.44-27.58,1.09,1.09,0,0,0-1.06-1.37,13.19,13.19,0,0,1-5.91-1.38c-2.22,13-4.53,30.39,13.7,62.91h0a2.42,2.42,0,0,1,.21.39c1.3,2.74-1.71,6.88-6.72,9.24C176.61,300.19,180.3,294.83,181.4,292.91Z"/><path class="cls-68" d="M181.08,291.81a25.89,25.89,0,0,1-7.67,8.28,15.63,15.63,0,0,1-5.42,4.08c8.62-4,12.31-9.34,13.41-11.26a1.09,1.09,0,0,0-.13-1.26l-.09-.1A.82.82,0,0,1,181.08,291.81Z"/><path class="cls-68" d="M164.51,305.38a.38.38,0,0,0-.37-.3c-1.79,0-3.08-.57-3.64-1.61a3.62,3.62,0,0,1,.49-3.69,9.87,9.87,0,0,1,7.48-3.93,2.56,2.56,0,0,1,2.33,1.24,1.71,1.71,0,0,1-.18,1.77,6,6,0,0,1-1.89,1.85,7,7,0,0,1-2.77,1.11,2.05,2.05,0,0,1-1.91-.51,1.28,1.28,0,0,1,0-1.05c.18-.46.77-1.32,2.65-1.95a.39.39,0,1,0-.25-.73,6.59,6.59,0,0,0-2.07,1.07,3.26,3.26,0,0,0-1,1.32,2,2,0,0,0,.06,1.73l0,0,0,0a2.67,2.67,0,0,0,2.64.84,7.88,7.88,0,0,0,3.09-1.23,6.8,6.8,0,0,0,2.13-2.11,2.46,2.46,0,0,0,.2-2.53,3.35,3.35,0,0,0-3-1.64,10.57,10.57,0,0,0-8.16,4.27,5.41,5.41,0,0,0-.9,2.29,4,4,0,0,0,.05,1.29,3.12,3.12,0,0,0,.32.9,3.91,3.91,0,0,0,2.75,1.87A14,14,0,0,0,164.51,305.38Z"/><path class="cls-69" d="M143.25,231.35a.47.47,0,0,1,.3-.54,20.58,20.58,0,0,1,6.59-1,.48.48,0,0,1,.48.48.47.47,0,0,1-.48.47,19.92,19.92,0,0,0-6.26,1,.47.47,0,0,1-.61-.28A.14.14,0,0,1,143.25,231.35Z"/><path class="cls-69" d="M154,230.59a.61.61,0,0,0,0,.19.48.48,0,0,0,.37.37,17.84,17.84,0,0,1,5.88,2.42.47.47,0,0,0,.25.07c0-.31.11-.63.16-.94a19.07,19.07,0,0,0-6.09-2.48A.49.49,0,0,0,154,230.59Z"/><path class="cls-69" d="M142.94,236a.49.49,0,0,1,.3-.54,18.5,18.5,0,0,1,3.83-.86.47.47,0,0,1,.53.41.47.47,0,0,1-.41.53,18.25,18.25,0,0,0-3.61.81.48.48,0,0,1-.62-.28A.25.25,0,0,0,142.94,236Z"/><path class="cls-69" d="M151.18,235a.66.66,0,0,0,0,.14.49.49,0,0,0,.43.37,18.18,18.18,0,0,1,8.21,2.72c0-.35.08-.69.13-1a19,19,0,0,0-8.26-2.62A.46.46,0,0,0,151.18,235Z"/><path class="cls-69" d="M145.19,257.66a.19.19,0,0,0,0,.1.46.46,0,0,0,.62.24,19.4,19.4,0,0,1,5.19-1.23,19,19,0,0,1,9.31,1.3l-.18-1.1a18.94,18.94,0,0,0-3.74-1,21.25,21.25,0,0,0-5.53-.13,20,20,0,0,0-5.43,1.3A.47.47,0,0,0,145.19,257.66Z"/><path class="cls-70" d="M163.28,240.38v-.1a.47.47,0,0,0-.52-.42,18.08,18.08,0,0,1-3.12-.06c0,.31-.06.63-.08.95a17.37,17.37,0,0,0,3.3.05A.47.47,0,0,0,163.28,240.38Z"/><path class="cls-70" d="M163.57,235.9a.33.33,0,0,0,0-.1.47.47,0,0,0-.48-.47,16,16,0,0,1-2.85-.29c0,.31-.09.62-.13.94a15.52,15.52,0,0,0,3,.3A.47.47,0,0,0,163.57,235.9Z"/><path class="cls-70" d="M163.05,244.87a.14.14,0,0,0,0-.09.47.47,0,0,0-.53-.41,18,18,0,0,1-3.17,0l0,1a17.58,17.58,0,0,0,3.32,0A.47.47,0,0,0,163.05,244.87Z"/><path class="cls-70" d="M163.11,249.16v-.1a.49.49,0,0,0-.56-.37,18.33,18.33,0,0,1-3.19.22c0,.32,0,.63,0,1a17.62,17.62,0,0,0,3.33-.25A.46.46,0,0,0,163.11,249.16Z"/><path class="cls-70" d="M163.47,253.81s0-.06,0-.1a.49.49,0,0,0-.58-.34,17.2,17.2,0,0,1-3.15.4c0,.31.07.62.11.94a17.48,17.48,0,0,0,3.27-.42A.47.47,0,0,0,163.47,253.81Z"/><path class="cls-70" d="M168.53,275.9a.35.35,0,0,0-.05-.08.47.47,0,0,0-.66-.09,17.81,17.81,0,0,1-1.91,1.15l.36.89a15.56,15.56,0,0,0,2.12-1.29A.47.47,0,0,0,168.53,275.9Z"/><path class="cls-70" d="M170.46,280.72a.41.41,0,0,0-.05-.09.46.46,0,0,0-.66-.09,16.42,16.42,0,0,1-1.8,1.1l.39.87a17,17,0,0,0,2-1.21A.47.47,0,0,0,170.46,280.72Z"/><path class="cls-69" d="M145.93,262.57a.47.47,0,0,1,.27-.53,22.24,22.24,0,0,1,7-1.58.47.47,0,0,1,.5.44.48.48,0,0,1-.44.51,21.59,21.59,0,0,0-6.64,1.5.49.49,0,0,1-.63-.25Z"/><path class="cls-69" d="M161,261.51a19.2,19.2,0,0,0-3.68-.9.47.47,0,0,0-.54.4.42.42,0,0,0,0,.16.47.47,0,0,0,.4.38,17.61,17.61,0,0,1,4.06,1.07C161.2,262.24,161.11,261.87,161,261.51Z"/><path class="cls-69" d="M147,267.84a.5.5,0,0,0,0,.13.48.48,0,0,0,.65.19,20.26,20.26,0,0,1,5.29-1.73,17.7,17.7,0,0,1,9.48.73c-.11-.38-.22-.76-.32-1.13a17.29,17.29,0,0,0-3.74-.8,19.83,19.83,0,0,0-5.62.27,20.38,20.38,0,0,0-5.54,1.83A.46.46,0,0,0,147,267.84Z"/><path class="cls-69" d="M148.45,273.37a.48.48,0,0,1,.22-.51,19.89,19.89,0,0,1,4.69-1.85.48.48,0,0,1,.24.92,18.72,18.72,0,0,0-4.44,1.75.47.47,0,0,1-.65-.17A.35.35,0,0,1,148.45,273.37Z"/><path class="cls-69" d="M157.52,270.8s0,.05,0,.07a.48.48,0,0,0,.49.38,18.3,18.3,0,0,1,6,.77c-.13-.36-.26-.73-.38-1.09a18.76,18.76,0,0,0-5.71-.63A.48.48,0,0,0,157.52,270.8Z"/><path class="cls-69" d="M155.66,294.27a.45.45,0,0,1,.13-.44,21.73,21.73,0,0,1,2.44-1.94,27.33,27.33,0,0,1,6.47-3.3.47.47,0,0,1,.6.29.49.49,0,0,1-.3.61,26.13,26.13,0,0,0-6.21,3.17,21.26,21.26,0,0,0-2.34,1.85.47.47,0,0,1-.67,0A.47.47,0,0,1,155.66,294.27Z"/><path class="cls-69" d="M167.79,288.24h0a.46.46,0,0,0,.54.37,19.62,19.62,0,0,1,2.84-.27l-.48-.94a19.82,19.82,0,0,0-2.52.28A.48.48,0,0,0,167.79,288.24Z"/><path class="cls-71" d="M159.59,252.45a64.09,64.09,0,0,1-.15-10,20.46,20.46,0,0,0-14.67-1.35,1.07,1.07,0,0,0-.77,1,31.4,31.4,0,0,0,.11,4.33,42.26,42.26,0,0,0,.74,4.88,1.06,1.06,0,0,0,1.31.82A23.76,23.76,0,0,1,159.59,252.45Z"/><path class="cls-71" d="M155.06,289c2.15-1.46,7.81-4.87,13.91-5.14-1.49-3.16-2.76-6.15-3.85-9-6.55-.7-12.34,2.06-14.24,3.09a1.07,1.07,0,0,0-.54,1.13,40.28,40.28,0,0,0,3.17,9.52A1.07,1.07,0,0,0,155.06,289Z"/><path class="cls-72" d="M166.74,272.9a.51.51,0,0,0,.13-.57,54.26,54.26,0,0,1-3.33-12.44.51.51,0,0,0-.62-.44,8.8,8.8,0,0,1-2.27.23,90.28,90.28,0,0,0,4.11,14.23A4.77,4.77,0,0,0,166.74,272.9Z"/><path class="cls-72" d="M176.44,293.77a.51.51,0,0,0,0-.62,34.37,34.37,0,0,1-3.69-6,.51.51,0,0,0-.8-.17,4.93,4.93,0,0,1-1.11.75c1.11,2.21,2.33,4.49,3.66,6.86h0a2.42,2.42,0,0,1,.21.39,1.6,1.6,0,0,1,.1.23A5.06,5.06,0,0,0,176.44,293.77Z"/><path class="cls-25" d="M145.29,240c1.51-1.37-.16-4.5,1.37-5.84s5.84,1.05,6.7-1.39-3.94-3.51-3.38-8.66c-4.71,0-8.5,1.87-8.92,4.5,0,0-.89,4.58-.4,13.93C141.37,238.91,143.78,241.36,145.29,240Z"/><path class="cls-25" d="M159,293.24c.95-2.61-3.87-5.1-2.65-8.73.59-1.77,6.06-2.5,5.54-5.82s-6.77-1.23-8-2.71.92-5.08-1-6.14c-2.53-1.41-4.32,4.19-7.46,3.55a136.91,136.91,0,0,0,7.69,23.39C152.22,293.23,158,295.85,159,293.24Z"/><path class="cls-25" d="M162.89,268.47h0a72.45,72.45,0,0,1-3.57-22.79c-1.64-2.55-3.63-1.18-2.7,2.63,1.13,4.67-2.76,4.7-2.65,7s2.76,2.87,3.79,5C159.32,263.42,159,272.12,162.89,268.47Z"/><path class="cls-68" d="M174.1,300.62c1.75-1.93,2.48-4,1.72-5.64a2.46,2.46,0,0,0-.22-.39c-18-32.18-16-49.56-13.77-62.5-.33-.14-.68-.29-1-.46-2.22,13-4.53,30.39,13.7,62.91h0a2.42,2.42,0,0,1,.21.39c1.3,2.74-1.71,6.88-6.72,9.24A36.39,36.39,0,0,0,174.1,300.62Z"/><path class="cls-73" d="M373.65,280.43a10.3,10.3,0,0,0-.35-2.6c-1.56-6.12-6.82-7-10.11-6.89A.56.56,0,0,0,363,272c2.19.86,5.09,2.56,5.69,5.64Z"/><path class="cls-74" d="M368.7,277.66l4.95,2.77a10.3,10.3,0,0,0-.35-2.6l-.09-.34a11,11,0,0,0-5.15-1.56A6.06,6.06,0,0,1,368.7,277.66Z"/><path class="cls-73" d="M380.61,298.27a13.42,13.42,0,0,0-.13-8.84,12.42,12.42,0,0,0-6.26-6.69h0c3.2,5.07,3.84,9.08,3.25,11.92Z"/><path class="cls-75" d="M381.29,293.84a9.78,9.78,0,0,0-3.66-2.09,10.08,10.08,0,0,1-.16,2.91l3.14,3.61A11.49,11.49,0,0,0,381.29,293.84Z"/><path class="cls-40" d="M362.49,287.28c-1.83-2-1.62-5.66,2.81-6.21,6.73-.84,13.56,3.37,15.18,8.36-3.6-10-9.77-13.57-16-12.3a5.34,5.34,0,0,0-4.08,6.66,6.77,6.77,0,0,0,2.1,3.49Z"/><path class="cls-73" d="M361.48,283.9a4.05,4.05,0,0,0,4.24,4.69,8.49,8.49,0,0,0,7.71-6.23,16.12,16.12,0,0,0-4.94-1.33h0c-1,2.72-4.23,3.81-7,2.87Z"/><path class="cls-75" d="M365.48,286.64a4.06,4.06,0,0,1-4-2.58,4.07,4.07,0,0,0,4.27,4.54,8.51,8.51,0,0,0,7.71-6.24l-.82-.34A8.75,8.75,0,0,1,365.48,286.64Z"/><path class="cls-40" d="M368.9,302.51a8.36,8.36,0,0,1-2-4.82,4.69,4.69,0,0,1,3.46-4.64c8.54-2.35,15.35,4.42,14.21,15.91a.56.56,0,0,1-1.11,0c-1.22-8.23-6.63-11.63-12-10.53-3.08.63-3.61,2.64-2.52,4.06Z"/><g class="cls-76"><polygon class="cls-40" points="362.49 287.28 362.49 287.28 362.49 287.28 362.49 287.28"/><path class="cls-40" d="M362.42,287.21v0l.06,0Z"/><path class="cls-40" d="M380.26,288.84c.07.19.15.39.22.59C380.41,289.23,380.34,289,380.26,288.84Z"/><path class="cls-40" d="M360.39,283.79a7.58,7.58,0,0,0,.43,1.2,5.58,5.58,0,0,1,3.63-6.22,11.65,11.65,0,0,1,9.5.64,11.2,11.2,0,0,0-9.48-2.28A5.34,5.34,0,0,0,360.39,283.79Z"/></g><g class="cls-76"><path class="cls-40" d="M381.9,303.86a16.49,16.49,0,0,1,1.56,5.12.57.57,0,0,0,1,.31A14.41,14.41,0,0,0,381.9,303.86Z"/><path class="cls-40" d="M367.69,300.66a6.56,6.56,0,0,1-.15-1.19,4.89,4.89,0,0,1,3.61-4.84,10.77,10.77,0,0,1,11.34,3,10.31,10.31,0,0,0-12.13-4.61,4.69,4.69,0,0,0-3.46,4.64A7.22,7.22,0,0,0,367.69,300.66Z"/></g><path class="cls-73" d="M375.41,298.47h0c-1.63,1.45-3.69,1.55-4.67.15h0c-5.56,1.72-.5,8.71,6.92,3.51a7.88,7.88,0,0,0,1.7-1.61h0A9.13,9.13,0,0,0,375.41,298.47Z"/><path class="cls-75" d="M374.83,303.6c-4.27.83-6.94-2.53-4.57-4.8C366.15,300.49,369.28,305.48,374.83,303.6Z"/><g class="cls-28"><path class="cls-27" d="M158.33,330.52a104.75,104.75,0,0,1-.41-10.88,4.79,4.79,0,0,1,6.24-4.49,47.16,47.16,0,0,1,4.67,1.78,3.2,3.2,0,0,1,.54,5.56c-1.16.81-2.31,1.62-3.39,2.51a12.75,12.75,0,0,0-4,5.87l0,.08A1.87,1.87,0,0,1,158.33,330.52Z"/></g><path class="cls-77" d="M192.54,331.29a1.06,1.06,0,0,1-.82.92l-7.81,1.71a1.06,1.06,0,1,1-.45-2.07l7.8-1.71a1.07,1.07,0,0,1,1.27.81A1,1,0,0,1,192.54,331.29Z"/><path class="cls-77" d="M192.27,330.22a1.07,1.07,0,0,1-1.16.94l-10-1a1.06,1.06,0,1,1,.21-2.1l10,1a1.06,1.06,0,0,1,1,1.16Z"/><path class="cls-77" d="M192,328.89a1.09,1.09,0,0,1-.07.3,1.06,1.06,0,0,1-1.39.56l-7.26-3.1a1.06,1.06,0,1,1,.83-1.95l7.26,3.1A1,1,0,0,1,192,328.89Z"/><path class="cls-78" d="M191.78,331.66,184,333.38a1.07,1.07,0,0,1-1.26-.81s0-.05,0-.07a1,1,0,0,0,0,.62,1,1,0,0,0,1.26.8l7.81-1.71a1.06,1.06,0,0,0,.82-.92,1.22,1.22,0,0,0,0-.27A1.08,1.08,0,0,1,191.78,331.66Z"/><path class="cls-78" d="M191.18,330.61l-10-1a1.06,1.06,0,0,1-.95-.9,1.23,1.23,0,0,0-.07.29,1.06,1.06,0,0,0,1,1.15l10,1a1.07,1.07,0,0,0,1.16-.94h0a.75.75,0,0,0,0-.26A1.05,1.05,0,0,1,191.18,330.61Z"/><path class="cls-78" d="M192,328.64a1.06,1.06,0,0,1-1.39.56l-7.26-3.1a1,1,0,0,1-.63-.81,1.06,1.06,0,0,0,.57,1.36l7.26,3.1a1.06,1.06,0,0,0,1.39-.56,1.09,1.09,0,0,0,.07-.3,1.31,1.31,0,0,0,0-.28A0,0,0,0,0,192,328.64Z"/><ellipse class="cls-79" cx="192.09" cy="330.18" rx="3.36" ry="2.5" transform="translate(-157.78 483.49) rotate(-83.47)"/><path class="cls-78" d="M191.81,332.6c-1.25-.14-2.15-1.51-2.13-3.16a3.5,3.5,0,0,0-.07.45c-.21,1.84.73,3.46,2.1,3.62s2.65-1.21,2.86-3.05a3.55,3.55,0,0,0,0-.46C194.25,331.61,193.07,332.75,191.81,332.6Z"/><ellipse class="cls-80" cx="192.96" cy="330.28" rx="4.51" ry="2.5" transform="translate(-157.11 484.45) rotate(-83.47)"/><path class="cls-81" d="M192.56,333.85c-1.29-.14-2.15-2-2-4.31,0,.15-.05.3-.07.45-.28,2.48.6,4.61,2,4.77s2.71-1.72,3-4.2c0-.15,0-.3,0-.45C195.1,332.35,193.84,334,192.56,333.85Z"/><path class="cls-82" d="M209.52,325.32c-6-1.2-10.6-2-11.81-2.16-4.18-.47-6,2.74-6.48,6.92s.57,7.72,4.75,8.2c1.24.14,6.17.4,12.49.59a1,1,0,0,0,.85-1.53h0a1.58,1.58,0,0,1,0-1.72l1.08-1.71a1.57,1.57,0,0,0,.07-1.57l-1-1.92a1.58,1.58,0,0,1,.62-2.1h0a1.59,1.59,0,0,0,.75-1.78h0A1.68,1.68,0,0,0,209.52,325.32Z"/><path class="cls-80" d="M198.12,332.78a19.82,19.82,0,0,0,.61,5.69l.93,0a19.51,19.51,0,0,1-.66-5.7.44.44,0,1,0-.88,0Z"/><path class="cls-80" d="M203.45,327.09a.45.45,0,0,0,.36.51.44.44,0,0,0,.51-.36,18.36,18.36,0,0,1,.77-2.79l-.88-.17A19.4,19.4,0,0,0,203.45,327.09Z"/><path class="cls-80" d="M195.18,323.39a20.84,20.84,0,0,0-.86,4.92.45.45,0,0,0,.43.45.44.44,0,0,0,.45-.42,19.76,19.76,0,0,1,1-5.18A5,5,0,0,0,195.18,323.39Z"/><path class="cls-80" d="M206.26,335a20.37,20.37,0,0,0,.19,3.81l.9,0a20.89,20.89,0,0,1-.22-3.78.44.44,0,0,0-.41-.47A.44.44,0,0,0,206.26,335Z"/><path class="cls-81" d="M196,338.28h2.18l.31,0H199l.54,0h.39l.6,0H201l.65,0h.48l.93,0h.26l1,0h.27l1.06,0h.56l1.12,0h.31l.87,0a1,1,0,0,0,.85-1.53h0a1.6,1.6,0,0,1-.13-1.53c-6.84-.58-12.27-1.19-13.58-1.41a5,5,0,0,1-4.37-4.45s0,.09,0,.13h0c0,.29-.06.59-.08.87s0,.25,0,.38,0,.37,0,.55v.17c0,.26,0,.51,0,.76,0,.05,0,.09,0,.14s0,.3.05.45l0,.17.09.49.12.48.1.3c0,.1.07.2.11.3A4.86,4.86,0,0,0,196,338.28Z"/><g class="cls-83"><rect class="cls-77" x="186.85" y="328.24" width="0.36" height="1.77" rx="0.18" transform="translate(-158.73 483.25) rotate(-84.42)"/></g><g class="cls-83"><rect class="cls-77" x="183.48" y="327.04" width="0.36" height="3.52" rx="0.18" transform="translate(-161.45 479.6) rotate(-84.42)"/></g><g class="cls-83"><path class="cls-77" d="M188.55,331.41a.19.19,0,0,1-.15.16l-2.48.53a.2.2,0,0,1-.23-.15.2.2,0,0,1,.15-.23l2.48-.53a.21.21,0,0,1,.23.15Z"/></g><g class="cls-83"><path class="cls-77" d="M185.23,332.12a.18.18,0,0,1-.15.15l-1.2.26a.19.19,0,0,1-.23-.15.2.2,0,0,1,.15-.23l1.2-.25a.19.19,0,0,1,.23.15Z"/></g><g class="cls-83"><path class="cls-77" d="M189.25,327.39a.09.09,0,0,1,0,.05.18.18,0,0,1-.24.1l-2.07-.86a.17.17,0,0,1-.09-.23.17.17,0,0,1,.23-.1l2.07.85A.18.18,0,0,1,189.25,327.39Z"/></g><g class="cls-83"><path class="cls-77" d="M186.23,326.14a.43.43,0,0,1,0,.05.18.18,0,0,1-.24.1l-1.57-.64a.18.18,0,1,1,.14-.34l1.57.65A.18.18,0,0,1,186.23,326.14Z"/></g><g class="cls-84"><path class="cls-82" d="M207.17,327.38v.06a.82.82,0,0,1-.95.66c-8.64-1.52-11-1.35-11.63-1.11a.82.82,0,0,1-.59-1.53c.92-.35,3.2-.62,12.5,1A.82.82,0,0,1,207.17,327.38Z"/></g><path class="cls-80" d="M209.3,335.62a1.58,1.58,0,0,0,0,1.72h0a1,1,0,0,1,.15.38l.6-.59a1.7,1.7,0,0,0,.33-2l-.14-.27a2.53,2.53,0,0,1-.19-.48Z"/><path class="cls-80" d="M210.08,328.32h0a1.58,1.58,0,0,0-.62,2.1l.88,1.7.38-1.16a1.85,1.85,0,0,0,0-1.27h0a1.05,1.05,0,0,1,0-.78,1,1,0,0,0-.12-1A1.69,1.69,0,0,1,210.08,328.32Z"/><path class="cls-85" d="M251.16,290.5l-4.22,2a.85.85,0,0,0-.31,1.3l1.87,2.4a.85.85,0,0,1-.07,1.12l-1.24,1.27a.85.85,0,0,0,.2,1.34l2.73,1.54a.86.86,0,0,1,0,1.48L246,305.46a.86.86,0,0,0-.24,1.25l2,2.63a.86.86,0,0,1-.26,1.27l-7.58,4.29a.85.85,0,0,0-.35,1.11l1.19,2.52a.89.89,0,0,0,.53.46c1.13.33,2.25.61,3.34.83,11.64,2.35,19.17-3,20.83-11.21,1.6-7.91-2.88-15.54-13.69-18.17A.93.93,0,0,0,251.16,290.5Z"/><path class="cls-48" d="M251.16,290.5l-4.22,2a.85.85,0,0,0-.31,1.3l1.54,2c8.58,3.23,12.06,10.12,10.62,17.23a14.56,14.56,0,0,1-3.05,6.49h0c.49-.16,1-.33,1.42-.53h0a13.27,13.27,0,0,0,1.72-.89h0a14.07,14.07,0,0,0,1.17-.79l0,0,.34-.26,0,0a12.38,12.38,0,0,0,1-.91l0,0,.27-.28.05-.05c.1-.1.19-.21.28-.31h0q.3-.35.57-.69l0-.07.21-.29.05-.08.23-.33,0,0,.24-.38,0-.05.19-.32a.31.31,0,0,1,.05-.1l.16-.29a.93.93,0,0,0,.05-.1l.18-.36,0,0,.18-.4a.36.36,0,0,0,0-.09c.05-.1.09-.21.13-.31a.69.69,0,0,0,.05-.13l.12-.29s0-.08,0-.12.09-.26.14-.38v0c0-.14.09-.28.13-.42l0-.12c0-.1.06-.21.08-.31a.83.83,0,0,0,0-.15c0-.1.05-.2.08-.3l0-.13c0-.15.07-.29.1-.44h0c0-.12.05-.25.07-.37s0-.08,0-.13,0-.16,0-.24,0-.11,0-.16l0-.22a1,1,0,0,0,0-.17l0-.21c0-.05,0-.11,0-.17a1.23,1.23,0,0,0,0-.2,1.09,1.09,0,0,0,0-.18c0-.06,0-.13,0-.19a1.09,1.09,0,0,1,0-.18V306a1.21,1.21,0,0,0,0-.19v-.55a1.21,1.21,0,0,0,0-.19v-.18a1.21,1.21,0,0,1,0-.19,1,1,0,0,1,0-.17c0-.07,0-.13,0-.2s0-.11,0-.17a1.23,1.23,0,0,1,0-.19,1,1,0,0,1,0-.17l0-.19c0-.06,0-.11,0-.17l0-.2,0-.16,0-.19,0-.16c0-.07,0-.13,0-.2l0-.15c0-.07,0-.14-.05-.21l0-.14-.06-.21s0-.09,0-.14l-.06-.21s0-.08,0-.13-.05-.14-.07-.22,0-.07,0-.11l-.08-.23s0-.07,0-.11l-.09-.23a.36.36,0,0,0,0-.09,1.86,1.86,0,0,0-.1-.25l0-.07c0-.09-.07-.18-.11-.26l0-.05a2.39,2.39,0,0,0-.13-.28v0a14.29,14.29,0,0,0-2.28-3.33h0l-.26-.27h0c-.08-.09-.17-.17-.26-.26v0l-.27-.25,0,0L261,295h0l-.28-.25h0a3.36,3.36,0,0,0-.29-.24l0,0-.29-.24h0l-.31-.23,0,0-.32-.22,0,0-.33-.22h0l-.35-.22h0a23.15,23.15,0,0,0-6.92-2.84A.93.93,0,0,0,251.16,290.5Z"/><path class="cls-85" d="M221,290.91c-9.26,6.31-17.91,17.21-14.17,24.28,3.38,6.4,15.07,6.19,25,3.06a1,1,0,0,0,.11-1.85l-.39-.17A1,1,0,0,1,231,315l2.82-7.88a1,1,0,0,0-.71-1.3l-2.71-.62a1,1,0,0,1-.69-1.35l1.47-3.54a1,1,0,0,0-1.1-1.35l-2.83.53a1,1,0,0,1-1.18-1l.07-1.83a1,1,0,0,0-.82-1l-3-.52a1,1,0,0,1-.7-1.43l.77-1.49A1,1,0,0,0,221,290.91Z"/><path class="cls-48" d="M222.33,295.1a1,1,0,0,1-.7-1.43l.77-1.49A1,1,0,0,0,221,290.9l-.34.24-.08.05-.35.25-.08.05-.34.25-.08.06-.35.25-.08.06-.34.26-.08.06-.34.27-.08.06-.34.27-.07.06-.34.27-.08.06-.34.28-.07.06-.34.29-.06.05-.34.3-.07.05-.34.3,0,.05-.34.31-.06.05-.34.31-.05,0-.34.32,0,0-.35.33,0,0-.35.34,0,0-.34.35,0,0-.35.36h0l-.35.37h0a36.55,36.55,0,0,0-3.24,3.94h0l-.29.4h0l-.27.41h0l-.26.4h0l-.26.41h0l-.24.4h0l-.24.41h0a15.07,15.07,0,0,0-2.28,7.48c3.48-6,10.28-12.09,16.6-15.43.52-.28,1-.53,1.54-.76Z"/><path class="cls-86" d="M221.34,309.91c4.14-1.18,6.84-.18,7.4,1.82s-1.21,4.27-5.35,5.44-9.1.66-9.63-1.2S217.2,311.08,221.34,309.91Z"/><circle class="cls-3" cx="381.77" cy="49.38" r="16.05"/></g></g></svg>