<svg id="Layer_1" data-name="Layer 1" xmlns="http://www.w3.org/2000/svg" viewBox="0 0 389.09 343"><defs><style>.cls-1{fill:#597b92;}.cls-2{fill:#fff;}.cls-3{fill:#aba8a9;}.cls-4{fill:#c3a082;}.cls-5{fill:#eaeaea;}.cls-6{fill:#6c645b;}.cls-7{fill:#b4b3a2;}.cls-8{fill:#f8f8f8;}.cls-9{fill:#0a0501;}.cls-10{fill:#c2e0ee;}.cls-11,.cls-15{fill:#f7f8f8;}.cls-11{opacity:0.45;}.cls-12{fill:#80afc1;}.cls-13{fill:#4a688d;}.cls-14{fill:#587e89;}.cls-16{fill:#fffdfa;}.cls-17{fill:#8f5837;}.cls-18{fill:#9b734c;}.cls-19{fill:#f6a534;}.cls-20{fill:#f3e08e;}.cls-21{fill:#09453c;}.cls-22{fill:#03272c;}.cls-23{fill:#345948;}.cls-24{fill:#eb893d;}.cls-25{fill:#776764;}.cls-26{fill:#c4573c;}.cls-27{fill:#0a4236;}.cls-28{fill:#c1391e;}.cls-29{fill:#447762;}.cls-30{fill:#eec130;}.cls-31{fill:#c19825;}.cls-32{fill:#ac5519;}.cls-33{fill:#f2f2ed;}</style></defs><path class="cls-1" d="M256,57.5s1.53,13.25.77,17.83-6.88,18.6-4.84,29.3S265,172,265,172s.51,2.16,4.45,1.78,30.06-7.39,30.06-7.39,1.53-.25.64-3.56-15-67.25-15-67.25-.39-6-9.17-16.17c-5.54-6.42-6.88-4.84-10.73-14.64l-3.41-8.67Z"/><polygon class="cls-2" points="254.52 118.09 288.24 109.49 293.04 131.15 258.8 140.05 254.52 118.09"/><polygon class="cls-3" points="254.72 51.99 257.14 59.67 261.6 58.77 260.92 50.97 254.72 51.99"/><path class="cls-4" d="M300.5,38.52s-2.29,13.14-4.33,17.32-11.87,15.87-13,26.71-6.55,68.32-6.55,68.32-.12,2.22,3.77,3,30.92,1.46,30.92,1.46,1.53.19,1.62-3.24,4.68-68.74,4.68-68.74,1.34-5.85-4.2-18.12c-3.48-7.72-5.22-6.59-6.12-17.08l-.81-9.28Z"/><polygon class="cls-2" points="281.89 96.2 316.66 97.53 315.12 119.65 279.75 118.47 281.89 96.2"/><polygon class="cls-3" points="300.85 32.87 300.99 40.93 305.51 41.33 307.08 33.65 300.85 32.87"/><ellipse class="cls-5" cx="194.55" cy="313.53" rx="194.55" ry="20.97"/><polygon class="cls-6" points="336.58 133.03 336.64 141.24 333.75 138.11 336.58 133.03"/><polygon class="cls-6" points="278.29 124.81 279.43 112.09 315.94 113.35 278.29 124.81"/><polygon class="cls-6" points="284.98 144.45 286.84 156.61 309.57 141.55 284.98 144.45"/><path class="cls-7" d="M212.89,138.65s9.61,5.4,22.42.12,131-44.63,131-44.63L359.91,105l7-2.38s-27.49,60.07-109.1,41.75c0,0-17.67-4.94-26.22,3.46s-11.41,12.11-11.41,12.11S222.67,148.56,212.89,138.65Z"/><polygon class="cls-6" points="338.81 118.8 317.65 123.73 324.27 132.43 338.81 118.8"/><path class="cls-6" d="M334.08,104.9l8.71,25.56s19.38-14.14,24.21-28.12l-6.95,2.37,6.35-10.84Z"/><path class="cls-8" d="M355.12,103.65a3.46,3.46,0,1,1-4.39-2.16A3.46,3.46,0,0,1,355.12,103.65Z"/><path class="cls-9" d="M353.07,104.35a1.35,1.35,0,1,1-1.79-1.22A1.55,1.55,0,0,1,353.07,104.35Z"/><path class="cls-6" d="M232.33,139.83l2.63,5.52-14.82,14.58a30.45,30.45,0,0,0-7.25-21.28Z"/><path class="cls-10" d="M223.47,194.86s-.7-125.59,0-135.74-27.29-20.29-36.39-24.84-5.59-23.78-5.59-23.78H164.1s3.5,19.24-5.6,23.79S121.42,49,122.12,59.12s0,135.74,0,135.74-2.1,15,12.59,14.7h76.17C225.57,209.91,223.47,194.86,223.47,194.86Z"/><path class="cls-11" d="M212,64.69c-2.1-12-21.34-22.33-29.39-28s-7.35-24.45-7.35-24.45l-4.2.36H169s.7,18.42-7.34,24.09-27.29,16-29.39,28,0,137.83,0,137.83-1,5,3.15,5.67c3.76.64,31,.14,36.74,0,5.7.12,33,.62,36.73,0,4.2-.71,3.15-5.67,3.15-5.67S214.13,76.73,212,64.69Z"/><rect class="cls-12" x="163.66" y="1.84" width="18.37" height="10.76"/><path class="cls-13" d="M181.5,3.67H163.92a1.83,1.83,0,0,1-1.83-1.83h0A1.84,1.84,0,0,1,163.92,0H181.5a1.85,1.85,0,0,1,1.84,1.84h0A1.84,1.84,0,0,1,181.5,3.67Z"/><rect class="cls-12" x="120.02" y="57.37" width="105.3" height="12.94" rx="2.84"/><rect class="cls-12" x="120.37" y="77.67" width="105.3" height="12.94" rx="5.19"/><rect class="cls-12" x="120.37" y="166.88" width="105.3" height="12.94" rx="2.84"/><path class="cls-12" d="M120,183.67V198s-2.1,11.55,14.69,11.55h79.77s10.84.35,10.84-12.95V183.67Z"/><path class="cls-14" d="M208.88,204.31c0,1.54-15.66,2.8-35,2.8s-35-1.26-35-2.8,15.66-2.8,35-2.8S208.88,202.76,208.88,204.31Z"/><rect class="cls-15" x="142.41" y="99.01" width="58.42" height="58.42"/><path class="cls-15" d="M181.76,13.29H163.92a.87.87,0,0,1-.87-.87h0a.87.87,0,0,1,.87-.87h17.84a.88.88,0,0,1,.88.88h0A.87.87,0,0,1,181.76,13.29Z"/><path class="cls-15" d="M222.87,58.77H122.82a.7.7,0,0,1-.7-.7h0a.69.69,0,0,1,.7-.69H222.87a.7.7,0,0,1,.7.7h0A.7.7,0,0,1,222.87,58.77Z"/><path class="cls-15" d="M222.87,78.36H122.82a.7.7,0,0,1-.7-.7h0a.7.7,0,0,1,.7-.7H222.87a.7.7,0,0,1,.7.7h0A.7.7,0,0,1,222.87,78.36Z"/><path class="cls-15" d="M222.87,167.22H122.82a.7.7,0,0,1-.7-.7h0a.7.7,0,0,1,.7-.7H222.87a.69.69,0,0,1,.7.69h0A.7.7,0,0,1,222.87,167.22Z"/><rect class="cls-15" x="119.32" y="181.92" width="106.35" height="2.45" rx="0.47"/><path class="cls-16" d="M70.31,114.78,61.9,91.1s-.64-1.45-1.82-1.65-6.81-1.36-4.51-5.12,5.54-1.87,5.54-1.87,3.37-5.38,7.14-2.06-.8,6.64-.8,6.64-1.48,1.39-.56,2.57S79.73,112,79.73,112Z"/><path class="cls-17" d="M80.13,108.25s2.34-3-.62-4.14-3.73,3.58-3.73,3.58-2.55-3.17-4.81-.94-1,4.37-1,4.37l-1.54-2a2.21,2.21,0,0,0-3,.41,2.48,2.48,0,0,0-.54,2c.3,2.78,3.51,3.41,3.51,3.41s-6,57,25.34,45.76S80.13,108.25,80.13,108.25Z"/><path class="cls-18" d="M81.7,118.36s-8.23,1-2,16.44,7.56,26.85,20.08,18.34S85.57,116.05,81.7,118.36Z"/><path class="cls-19" d="M129.22,176s8.54,4.76,10.51-5.09,4.87-30.4-6.76-63.22S109.33,40.22,91,45.45s.76,58.29,8.33,81.17S114.93,167,129.22,176Z"/><path class="cls-20" d="M93.18,77.36s10-3.33,12.71-13.69c0,0,1.31-3.5-2.92-1.15S86.67,78.85,93.18,77.36Z"/><path class="cls-20" d="M101.39,99.47s10-3.32,12.71-13.68c0,0,1.3-3.5-2.93-1.15S94.87,101,101.39,99.47Z"/><path class="cls-20" d="M109.16,126s11.92-3.85,14.85-16.77c0,0,1.46-4.34-3.55-1.53S101.37,127.66,109.16,126Z"/><path class="cls-20" d="M117.54,151.48a23.44,23.44,0,0,0,14.91-17.79s1.38-4.69-3.74-1.79S109.5,153.05,117.54,151.48Z"/><path class="cls-21" d="M248.7,85.66c-.12.34-4.4,9.82-7.51,14,0,0-6.95,5.22.41,1.77S249.91,82.18,248.7,85.66Z"/><path class="cls-22" d="M251,78.4s-10.06,5.68-8.26,22.14C242.69,100.54,245.69,85.51,251,78.4Z"/><path class="cls-23" d="M240.13,102.49a36,36,0,0,0-.12-8.24c-.61-3.4,2.47-9.57,2.47-9.57A20,20,0,0,1,240.13,102.49Z"/><path class="cls-24" d="M241.24,97.93s-11.68-1-12,7.74-1.8,48.94,1.1,48.32,20-34.16,21.2-47.92C251.59,106.07,252,97.1,241.24,97.93Z"/><rect class="cls-25" x="169.78" y="103.3" width="1.49" height="13.17" transform="translate(-26 59.57) rotate(-18.44)"/><path class="cls-26" d="M172.91,114.64s-17.56-4.16-18.15,8.93,8.33,25.59,25,23.81,20.83-33.93,6.55-37.2C186.3,110.18,175.59,106.61,172.91,114.64Z"/><path class="cls-27" d="M172.91,114.64s0-6.54-8.63-7.14C164.28,107.5,164.28,112.56,172.91,114.64Z"/><rect class="cls-25" x="211.79" y="118.55" width="13.17" height="1.49" transform="translate(-19.41 192.61) rotate(-45.78)"/><path class="cls-28" d="M215.24,123.59s-4.36-17.51-16.27-12-18.9,19.16-9.66,33.14,39.7,2.92,36.05-11.27C225.36,133.44,223.61,122.28,215.24,123.59Z"/><path class="cls-27" d="M215.24,123.59s5.82-3,2.38-10.94C217.62,112.65,213.13,115,215.24,123.59Z"/><rect class="cls-25" x="232.24" y="121.78" width="1.49" height="13.17" transform="translate(-23.52 198.86) rotate(-44.22)"/><path class="cls-26" d="M236.12,132.67s4.36-17.51,16.26-12,18.91,19.15,9.67,33.14-39.7,2.91-36.05-11.28C226,142.51,227.75,131.36,236.12,132.67Z"/><path class="cls-27" d="M236.12,132.67s-5.82-3-2.38-10.95C233.74,121.72,238.23,124.05,236.12,132.67Z"/><polygon class="cls-22" points="222.65 177.35 222.65 313.53 68.32 313.53 68.32 139.3 222.65 139.3 222.65 177.35"/><polygon class="cls-23" points="325.02 177.13 325.02 313.31 170.69 313.31 170.69 139.09 325.02 139.08 325.02 177.13"/><polygon class="cls-29" points="328.62 138.87 355.37 180.8 192.12 180.81 170.86 138.87 328.62 138.87"/><polygon class="cls-29" points="170.86 138.87 151.31 180.81 44.31 178.65 68.66 138.87 170.86 138.87"/><path class="cls-30" d="M34,301.13s-1.4.7-1.18,1.63a29,29,0,0,0,2.43,5.59c1.08,1.47,4.11,5.17,12.39,6.38,0,0,6.28.35,10-3.24s5.83-6.66,5.77-11.13A13.91,13.91,0,0,0,62,296.19a6,6,0,0,1-.12-3.34,5.18,5.18,0,0,0,.37-3.06l-1.39-.66s-.95-.27-.94.89.28,1.32,0,2.26a11.52,11.52,0,0,0-.25,2.38,1.48,1.48,0,0,1-.61,1.1,22.53,22.53,0,0,0-2.22,3.15s-4.85,8.33-13.69,5.78C43.23,304.69,35.8,300.88,34,301.13Z"/><path class="cls-31" d="M48.17,311.16a19.21,19.21,0,0,1-5.26-.75,16.59,16.59,0,0,1-10.25-8.21l.46-.24a16,16,0,0,0,9.94,8c4.1,1.2,8.55.92,11.33-.7C60,306,61.05,295.07,61.06,295l.51.05a33.41,33.41,0,0,1-1.25,6c-.91,3-2.63,6.86-5.67,8.63A13.15,13.15,0,0,1,48.17,311.16Z"/><path class="cls-30" d="M107.19,335.32s.87,1.51.22,2c0,0-3.18,2-4.82,2.32s-6.06.82-13.75-4.21c0,0-5.56-4.23-7-9.5s-1.74-9,.5-12.2a9.46,9.46,0,0,1,3.2-2.06,4.07,4.07,0,0,0,1.74-2.33,3.83,3.83,0,0,1,1.19-2.49l1.51.51a.88.88,0,0,1,.37,1.32c-.58.83-.89.76-1.13,1.61a8.5,8.5,0,0,1-1,1.91s-.3.37,0,1.23a24.59,24.59,0,0,1,.36,3.87s.08,9.51,8.9,14C97.5,331.29,105.74,333.83,107.19,335.32Z"/><path class="cls-31" d="M105.25,338c-3.17,0-7.13-1.44-11.16-4.11-4.48-3-8.14-6.87-9.56-10.18a12.38,12.38,0,0,1-.62-8.49,10.39,10.39,0,0,1,1.62-3.34l.37.3A11.57,11.57,0,0,0,85,323.5c2.91,6.78,15,15.24,21.93,13.85l.09.47A8.86,8.86,0,0,1,105.25,338Z"/><path class="cls-30" d="M86.87,341.26s0,1.47-.71,1.58a17.07,17.07,0,0,1-4.52-.36c-1.33-.48-4.78-2-8.27-8.94,0,0-2.27-5.46-1.09-10s2.57-7.33,5.57-8.72c0,0,1.86-1.44,3.22-1.1a11.45,11.45,0,0,0,2.27-1.94,3.23,3.23,0,0,1,1.93-1.31l.89.54s.49,1.24-.29,1.6-1.46,2.11-2,2.63l-1,1s-.38.14-.54.89a19.75,19.75,0,0,1-1.38,3s-4,7,.57,14C81.49,334.18,86.44,339.55,86.87,341.26Z"/><path class="cls-31" d="M86.16,343a39.82,39.82,0,0,1-5.87-4.75c-2.7-2.65-5.91-6.72-5.91-11,0-8.23,6.78-13.18,6.85-13.23l.28.4c-.06,0-6.65,4.85-6.65,12.83s11.44,15.31,11.56,15.38Z"/><path class="cls-30" d="M316.92,332.89a2.81,2.81,0,0,0-.29-.54c-1.24-1.62-7.35-8.67-17.64-4.14a4.13,4.13,0,0,1-1.47.35c-1,.08-1.54-.1-1.78.55s0,.9.73,1.33a3.53,3.53,0,0,1,1.51,2c.08.58,3.77,5.64,10.12,5.58,5.17-.05,6.71-1.17,7.1-1.59a2.2,2.2,0,0,1,.51-.4,1.89,1.89,0,0,1,1.4-.3,1,1,0,0,0,1.2-1.24C318.12,333.93,317.2,333.53,316.92,332.89Z"/><path class="cls-30" d="M345.61,314.07a2.26,2.26,0,0,0-.56-.17c-1.95-.31-10.95-1.13-15.09,8.94a3.89,3.89,0,0,1-.79,1.23c-.61.7-1.14,1-.87,1.58s.61.62,1.4.44a3.47,3.47,0,0,1,2.37.35c.44.36,6.42,1.41,10.81-2.9,3.57-3.49,3.89-5.31,3.89-5.87a2.2,2.2,0,0,1,.85-1.77,1,1,0,0,0,0-1.67C347.15,314,346.24,314.33,345.61,314.07Z"/><path class="cls-22" d="M331.16,315.47c0,2.63-13.16,4.76-29.4,4.76s-29.39-2.13-29.39-4.76,13.16-4.75,29.39-4.75S331.16,312.85,331.16,315.47Z"/><path class="cls-32" d="M288.57,281.81a58,58,0,0,1,.08-10.52c.76-7.8,3-13.69,6.55-17.51,3.25-3.45,7.57-5.09,12.86-4.87h0c.7,0,15.22.45,17.8,32.74l-1.72.14c-2.47-30.82-16-31.15-16.12-31.15h0c-4.8-.2-8.67,1.26-11.56,4.33-8,8.47-6.19,26.48-6.17,26.66Z"/><path class="cls-33" d="M260.69,276.4s10.25,43.52,46,40,42.61-39.58,42.61-39.58Z"/><polygon class="cls-19" points="337.53 301.24 271.7 301.24 271.7 276.46 273 276.46 273 299.94 337.53 299.94 337.53 301.24"/><rect class="cls-19" x="282.35" y="276.52" width="1.3" height="34.23"/><rect class="cls-19" x="294.61" y="276.52" width="1.3" height="39.48"/><rect class="cls-19" x="306.47" y="276.64" width="1.3" height="39.86"/><rect class="cls-19" x="317.32" y="276.7" width="1.3" height="36.91"/><rect class="cls-19" x="328.78" y="276.76" width="1.3" height="31.95"/><rect class="cls-19" x="340.03" y="276.76" width="1.3" height="19.5"/><rect class="cls-19" x="263.51" y="284.17" width="83.35" height="1.3"/><rect class="cls-19" x="266.75" y="291.14" width="76.62" height="1.3"/><rect class="cls-19" x="279.17" y="307.21" width="50.8" height="1.3"/></svg>