<svg id="Layer_1" data-name="Layer 1" xmlns="http://www.w3.org/2000/svg" viewBox="0 0 48.49 35.5"><path d="M45.14,23.25,28.42,35.1a2.09,2.09,0,0,1-1.18.4,1.46,1.46,0,0,1-1.08-.45l0,0L26,34.88h0a1.53,1.53,0,0,1-.44-1.09,2.18,2.18,0,0,1,.4-1.2l11.7-16.93a1.2,1.2,0,0,1,.17-.21,1.71,1.71,0,0,1,1.74-.34,6.19,6.19,0,0,1,2,1,12.94,12.94,0,0,1,1.71,1.47A12.75,12.75,0,0,1,44.7,19.3a6.55,6.55,0,0,1,1,2,1.77,1.77,0,0,1-.35,1.76h0l-.2.16ZM28,34.44,44.68,22.59l.1-.08h0l.28.29-.28-.29a1.06,1.06,0,0,0,.14-1,5.88,5.88,0,0,0-.87-1.74,13.08,13.08,0,0,0-2.95-3,5.55,5.55,0,0,0-1.73-.88,1,1,0,0,0-1,.13.39.39,0,0,0-.08.1L26.6,33.05a1.33,1.33,0,0,0-.26.74.75.75,0,0,0,.21.52h0l-.06.06h0l.06,0,.14.14,0,0h0a.72.72,0,0,0,.52.22,1.33,1.33,0,0,0,.73-.26Z"/><path d="M38.77,20.53a.4.4,0,0,0-.57,0,.4.4,0,0,0,0,.56L42.07,25a.39.39,0,0,0,.56,0,.42.42,0,0,0,0-.57Z"/><path d="M34,21.69a.4.4,0,0,0-.56,0,.42.42,0,0,0,0,.57l2.33,2.36a.39.39,0,0,0,.56,0,.4.4,0,0,0,0-.57Z"/><path d="M34.06,26.52a.39.39,0,0,0-.56,0,.42.42,0,0,0,0,.57l2.33,2.35a.39.39,0,0,0,.56,0,.42.42,0,0,0,0-.57Z"/><path d="M29,29a.39.39,0,0,0-.56,0,.42.42,0,0,0,0,.57L30,31.15a.39.39,0,0,0,.56,0,.42.42,0,0,0,0-.57Z"/><path d="M38.73,23.27a.39.39,0,0,0-.56,0,.4.4,0,0,0,0,.57l2.29,2.32a.39.39,0,0,0,.56,0,.42.42,0,0,0,0-.57Z"/><path d="M42.86,17.44a.41.41,0,0,0-.17.54.4.4,0,0,0,.54.18s2.87-1.54,4.58.17a.4.4,0,0,0,.56,0,.39.39,0,0,0,0-.56c-2.13-2.12-5.5-.32-5.51-.32Z"/><path d="M42.69,17.61a.42.42,0,0,0,.17.55A.4.4,0,0,0,43.4,18s1.78-3.42-.31-5.58a.39.39,0,0,0-.56,0,.41.41,0,0,0,0,.57c1.68,1.73.18,4.64.17,4.64Z"/><path d="M47.7,13.66a.42.42,0,0,0,0-.57.4.4,0,0,0-.57,0l-4.37,4.42a.42.42,0,0,0,0,.57.4.4,0,0,0,.57,0Z"/><path d="M22.1,18.12c0-.3,0-.68,0-1.11a17.26,17.26,0,0,1,1.08-5.66c.81-2,2.18-3.52,4.49-3.58H28a5.37,5.37,0,0,1,1.64.33A6.1,6.1,0,0,1,33,11.93,16.08,16.08,0,0,1,33.81,18a20.91,20.91,0,0,1-1.23,6.39l-.37-.14.37.14a.37.37,0,0,1-.07.12l-2.64,3.83-.33-.23.33.23a.39.39,0,0,1-.14.12,3.06,3.06,0,0,1-2,.49A4,4,0,0,1,25.66,28a9,9,0,0,1-2.8-4.73,23.25,23.25,0,0,1-.76-5.12h0v0ZM22.9,17c0,.41,0,.77,0,1.06v0h0a22,22,0,0,0,.74,4.94,8.23,8.23,0,0,0,2.52,4.32,3.22,3.22,0,0,0,1.65.75,2.33,2.33,0,0,0,1.47-.34L31.86,24A20,20,0,0,0,33,18a15.46,15.46,0,0,0-.77-5.74,5.35,5.35,0,0,0-2.88-3.36A4.19,4.19,0,0,0,28,8.58H27.7c-1.92,0-3.08,1.4-3.78,3.09a16.65,16.65,0,0,0-1,5.38Z"/><path d="M17.41,18.13c0-.28,0-.63,0-1a16.55,16.55,0,0,1,1-5.31c.77-1.84,2.06-3.32,4.23-3.37H23a5.6,5.6,0,0,1,1.11.17,4.67,4.67,0,0,1,1,.43l-.19.35.2-.35a.41.41,0,0,1,.15.55l-.09.11a7.42,7.42,0,0,0-1.68,3.25,19.56,19.56,0,0,0-.6,5.2h0v0a23.26,23.26,0,0,0,.57,4.32,10.2,10.2,0,0,0,1.92,4.17h0a.4.4,0,0,1,0,.57h0a3.4,3.4,0,0,1-2.22,1.08,3.62,3.62,0,0,1-2.37-.88A8.45,8.45,0,0,1,18.13,23a21.2,21.2,0,0,1-.71-4.79h0v-.05Zm.81-1c0,.39,0,.73,0,1v0h0a20.48,20.48,0,0,0,.68,4.61,7.69,7.69,0,0,0,2.35,4,2.82,2.82,0,0,0,1.86.71,2.4,2.4,0,0,0,1.45-.62,11.4,11.4,0,0,1-1.85-4.2,24.33,24.33,0,0,1-.6-4.48v0h0a20.33,20.33,0,0,1,.63-5.43A8.73,8.73,0,0,1,24.26,9.5a2.84,2.84,0,0,0-.38-.13,4.1,4.1,0,0,0-.94-.14h-.26c-1.78,0-2.86,1.3-3.51,2.88a15.14,15.14,0,0,0-1,5Z"/><path d="M14.37,18.17c0-.23,0-.52,0-.84A13.56,13.56,0,0,1,15.2,13a3.89,3.89,0,0,1,3.51-2.78H19l.3,0,.29,0-.07.39.07-.4a.4.4,0,0,1,.32.47.37.37,0,0,1-.08.18,8.92,8.92,0,0,0-1.18,3,18.83,18.83,0,0,0-.4,4.23h0v0a22.53,22.53,0,0,0,.47,3.75,10.52,10.52,0,0,0,1.52,3.76l-.32.23.33-.23a.42.42,0,0,1-.09.56l-.08,0a2.37,2.37,0,0,1-1.46.21,3.29,3.29,0,0,1-1.47-.7A7,7,0,0,1,15,22.13a17.37,17.37,0,0,1-.58-3.92h0a0,0,0,0,1,0,0Zm.8-.81a7.18,7.18,0,0,0,0,.79v0h0a16.74,16.74,0,0,0,.55,3.73,6.13,6.13,0,0,0,1.89,3.24,2.47,2.47,0,0,0,1.11.54,1.32,1.32,0,0,0,.56,0,12,12,0,0,1-1.36-3.6,22.32,22.32,0,0,1-.49-3.88s0,0,0,0h0a19.12,19.12,0,0,1,.42-4.43,10.55,10.55,0,0,1,1-2.73h-.08a3.16,3.16,0,0,0-2.8,2.29,12.44,12.44,0,0,0-.76,4.07Z"/><path d="M37.59,15.75a10.9,10.9,0,0,0-1.58-5,3.43,3.43,0,0,0-3-1.56,4.62,4.62,0,0,0-.94.15,2.43,2.43,0,0,0-.38.13,8.73,8.73,0,0,1,1.53,3.22,20.33,20.33,0,0,1,.63,5.43h0v0c0,.8-.11,1.75-.26,2.75,0,.29-.1.59-.16.9l.06-.09h0l0,0,4.13-6Zm-.93-5.45a11.85,11.85,0,0,1,1.73,5.49.4.4,0,0,1-.08.31h0s0,0,0,0l-4.19,6.06,0,.06-1.3,1.88a.39.39,0,0,1-.48.18.41.41,0,0,1-.24-.51h0a17.4,17.4,0,0,0,.7-3A26.38,26.38,0,0,0,33,18.15a0,0,0,0,1,0,0h0a19.54,19.54,0,0,0-.6-5.19,7.4,7.4,0,0,0-1.68-3.26.53.53,0,0,1-.09-.11A.4.4,0,0,1,30.8,9l.19.35L30.8,9a4.23,4.23,0,0,1,1-.43,5,5,0,0,1,1.11-.17,4.21,4.21,0,0,1,3.73,1.88Z"/><path d="M40.56,15.5a8,8,0,0,0-1.18-3.28A2.72,2.72,0,0,0,37.09,11a9.15,9.15,0,0,1,.72,1.76,14.52,14.52,0,0,1,.5,2.37,1.82,1.82,0,0,1,.91-.09,4.45,4.45,0,0,1,1.34.46ZM40,11.74a9.66,9.66,0,0,1,1.43,4.45.44.44,0,0,1-.06.29.39.39,0,0,1-.55.11h0a4.43,4.43,0,0,0-1.72-.75.79.79,0,0,0-.79.24.38.38,0,0,1-.29.18.4.4,0,0,1-.44-.36l.4,0-.4,0A15.8,15.8,0,0,0,37.05,13a7.87,7.87,0,0,0-.94-2.08.37.37,0,0,1-.08-.18.4.4,0,0,1,.32-.47l.07.4-.07-.4.29,0,.3,0A3.47,3.47,0,0,1,40,11.74Z"/><path d="M26.74,8.32a22.56,22.56,0,0,1-.88-3.83c-.12-1.34.17-2.27,1.3-2.27,2.22,0,2.92.48,2.92,1.51a6.33,6.33,0,0,1-.56,2A23.19,23.19,0,0,0,28.7,8.3l-.38-.1.38.1a.41.41,0,0,1-.45.3h-.68l-.38,0h0a.4.4,0,0,1-.45-.3Zm-.09-3.9a20.09,20.09,0,0,0,.77,3.37H28c.24-.88.52-1.64.76-2.29a6.08,6.08,0,0,0,.51-1.75c0-.48-.51-.7-2.13-.7-.48,0-.58.57-.51,1.39Z"/><path d="M30.31,11.12a.4.4,0,1,0-.77.18A24.15,24.15,0,0,1,30,15.55a44.41,44.41,0,0,1-.11,5.28.4.4,0,0,0,.37.43.39.39,0,0,0,.42-.37,43.76,43.76,0,0,0,.11-5.37,25,25,0,0,0-.51-4.4ZM25.86,25.7a.39.39,0,0,0,.48.3.42.42,0,0,0,.29-.49A25.55,25.55,0,0,1,26,21.73c-.11-1.31-.16-2.58-.18-3.6a.41.41,0,0,0-.41-.39.4.4,0,0,0-.39.41c0,1,.07,2.32.19,3.65a26.79,26.79,0,0,0,.6,3.9Z"/><path d="M17.42,18.16h0v0h0v-.06h0a.65.65,0,0,1,0-.13h0v-.16h0v-.06h0a.4.4,0,0,1,.22-.3h-.22v-.05h0v0h0a.39.39,0,0,1,.4-.39.4.4,0,0,1,.39.41h0m0,.8h0v0h0a.39.39,0,0,1-.38.36.4.4,0,0,1-.41-.34h0m.75-.24a.28.28,0,0,1,0,.12h0v.05h0m0-.18h0m0-.12v.11m0-.14v0m0-.06h0v0M18,17.4a.4.4,0,0,1,.2.3h0v.05h0m0-.35H18m.21-.08v0h0v0m0-.1v0m-.49,8.76a15.45,15.45,0,0,1-6.83,0,19.09,19.09,0,0,1-6.81-2.86,9.18,9.18,0,0,1-3.91-5A5.76,5.76,0,0,1,.12,15.6a.29.29,0,0,1,0-.09,6.54,6.54,0,0,1,1.18-2.16,5.33,5.33,0,0,1,1.83-1.46h0a.39.39,0,0,1,.53.19.42.42,0,0,1,0,.15,5.25,5.25,0,0,0,.19,1,6.57,6.57,0,0,0,.39,1h0a5.31,5.31,0,0,0,3.76,2.29,12.47,12.47,0,0,0,6.06-.81h0l.14,0,.26,0,.3,0h0a.38.38,0,0,1,.43.35.2.2,0,0,1,0,.11c0,.37-.07.71-.08,1s0,.73,0,1h0v0a16.58,16.58,0,0,0,.55,3.71,6.2,6.2,0,0,0,1.89,3.24l.13.1.13.08h0a.41.41,0,0,1,.12.56.39.39,0,0,1-.26.18Zm-6.67-.82a15.29,15.29,0,0,0,5.69.2A7.4,7.4,0,0,1,15,22.14a17.14,17.14,0,0,1-.58-3.89.08.08,0,0,1,0,0h0c0-.28,0-.65,0-1.06,0-.19,0-.4,0-.6h-.09a13.14,13.14,0,0,1-6.39.83,6.06,6.06,0,0,1-4.29-2.64l0-.06L4,14.5l-.35.18a7.67,7.67,0,0,1-.46-1.17c0-.21-.1-.42-.14-.62a5,5,0,0,0-1.08,1,5.83,5.83,0,0,0-1,1.9A4.94,4.94,0,0,0,1,18a8.37,8.37,0,0,0,3.58,4.56,18.28,18.28,0,0,0,6.52,2.74Z"/><path d="M3.2,17.6a.39.39,0,0,0-.48-.29.41.41,0,0,0-.29.49s.93,3.74,8.46,6a.38.38,0,0,0,.49-.27.41.41,0,0,0-.27-.5C4,20.9,3.2,17.61,3.2,17.6Z"/><path d="M14.9,18.42h0l0,.06Zm0,0h0a.4.4,0,0,1,.3.38v.06h0a.41.41,0,0,1-.37.43.42.42,0,0,1-.36-.17L14.42,19h0a.4.4,0,0,1,.05-.56.38.38,0,0,1,.42-.06l0,.06h0m0-.06s0,0,0,0Zm0,.06,0,.22,0,.1v.1l-.07.29-.15-.05,0-.08.08-.17,0-.08v0l.15-.3Zm3-.12h.07a.42.42,0,0,1,.27.18h0a.47.47,0,0,1,.06.21.41.41,0,0,1-.37.43.4.4,0,0,1-.42-.38h0a.4.4,0,0,1,.37-.43Z"/><path d="M23.91,2.78a.41.41,0,0,1,.05.09,6,6,0,0,1,.63,3A7.45,7.45,0,0,1,23.69,9l-.35-.19.35.19a.38.38,0,0,1-.41.21h-.16l-.18,0a3.52,3.52,0,0,0-1.76.38,3.92,3.92,0,0,0-1.36,1.27v0h0a.38.38,0,0,1-.39.11l-.2,0-.24,0a2.71,2.71,0,0,0-2.36,1.13A8.21,8.21,0,0,0,15.28,16l-.39-.05.39.05a.39.39,0,0,1-.27.33,13.91,13.91,0,0,1-6.8,1.12,6.12,6.12,0,0,1-4.56-2.67.3.3,0,0,1,0-.08h0a6.66,6.66,0,0,1-.5-1.37,5.83,5.83,0,0,1,.16-3.47A4.68,4.68,0,0,1,5.55,7.27a5.17,5.17,0,0,1,1.14-.43,14.32,14.32,0,0,1,3.15-.42c1.78-.08,2.94-.14,4.91-3A10.09,10.09,0,0,1,17.36.56a4,4,0,0,1,3.93-.1,5,5,0,0,1,1.52,1,6.6,6.6,0,0,1,1.1,1.36Zm-.11,3a5.29,5.29,0,0,0-.55-2.6,6,6,0,0,0-1-1.2A4.52,4.52,0,0,0,21,1.2a3.27,3.27,0,0,0-3.21.05A9.3,9.3,0,0,0,15.4,3.9c-2.19,3.16-3.51,3.23-5.53,3.33a13.84,13.84,0,0,0-3,.39A5,5,0,0,0,5.9,8,3.94,3.94,0,0,0,4,10.11a5,5,0,0,0-.14,3,5.54,5.54,0,0,0,.45,1.21,5.35,5.35,0,0,0,4,2.33,13,13,0,0,0,6.22-1,9,9,0,0,1,1.43-4,3.47,3.47,0,0,1,3-1.44l.31,0h0a4.44,4.44,0,0,1,1.52-1.34A4.12,4.12,0,0,1,23,8.42h.14a6.76,6.76,0,0,0,.69-2.61Z"/><path d="M7.23,14a.4.4,0,0,0-.54.15.4.4,0,0,0,.14.55s2.87,1.74,8.91-1.15a.4.4,0,0,0,.19-.53.41.41,0,0,0-.53-.2C9.74,15.48,7.23,14,7.23,14Z"/><path d="M16,6.18a.4.4,0,0,0-.14.55.4.4,0,0,0,.54.15S19,5.43,19.19,3c0-.28.15-.43.33-.48a1.1,1.1,0,0,1,.67.08,2.72,2.72,0,0,1,.88.54A3.72,3.72,0,0,1,22.16,7a.4.4,0,0,0,.28.49.38.38,0,0,0,.48-.28,4.51,4.51,0,0,0-1.33-4.67,3.7,3.7,0,0,0-1.13-.69,1.91,1.91,0,0,0-1.14-.09A1.23,1.23,0,0,0,18.4,2.9c-.2,2-2.39,3.28-2.4,3.28Z"/></svg>