<svg id="Layer_1" data-name="Layer 1" xmlns="http://www.w3.org/2000/svg" viewBox="0 0 35 30.4"><path d="M33.74,17.6a2.27,2.27,0,0,0-1.2-.24,2.2,2.2,0,0,0-1.15.41l-5,3.82a5.18,5.18,0,0,0-2.73-1.12h0a21.32,21.32,0,0,1-6-2.16,7.89,7.89,0,0,0-6.5-.91,1.94,1.94,0,0,0-.71-.89,1.86,1.86,0,0,0-1.09-.35H3.56a.6.6,0,0,0,0,1.19h3V28H.59a.59.59,0,0,0,0,1.18H9.33a2,2,0,0,0,1.85-1.38l2.05-.66a1.09,1.09,0,0,1,.83,0l6.31,2.91a2.92,2.92,0,0,0,2.82-.21l0,0L34,21.7h0a2.39,2.39,0,0,0,1-2.11,2.44,2.44,0,0,0-1.26-2ZM10.08,27.22a.78.78,0,0,1-.75.81H7.71V17.35H9.33a.77.77,0,0,1,.75.8Zm23.2-6.5,0,0L22.53,28.94h0a1.72,1.72,0,0,1-1.66.11l-6.31-2.91a2.32,2.32,0,0,0-1.7-.1l-1.59.51v-8a6.68,6.68,0,0,1,5.78.76,22.75,22.75,0,0,0,6.35,2.28c1.81.42,2.16.58,2.1,1a1.65,1.65,0,0,1-1,1.21c-1.43.73-3.91.36-6.63-1a.61.61,0,0,0-.46,0,.59.59,0,0,0-.34.3.59.59,0,0,0,0,.45.59.59,0,0,0,.3.34,12.43,12.43,0,0,0,5.38,1.5,5,5,0,0,0,2.32-.5,2.83,2.83,0,0,0,1.57-2l5.44-4.16a1.07,1.07,0,0,1,.54-.19,1,1,0,0,1,.56.11,1.11,1.11,0,0,1,.44.42,1.1,1.1,0,0,1,.18.58,1.17,1.17,0,0,1-.12.61,1.2,1.2,0,0,1-.41.46Z"/><path d="M29.23,0c-.24,0-5.7.57-7.58,2.83a4.88,4.88,0,0,0-.89,1.71A26.7,26.7,0,0,0,13.1,3.16h0a.54.54,0,0,0-.54.53c0,.31-.15,7.7,2.55,10.53,1.77,1.86,4.59,2.27,6.7,2.27a16.49,16.49,0,0,0,2.84-.24l.06,0,.05,0a.54.54,0,0,0,.16-.1h0A.71.71,0,0,0,25,16s0,0,0-.05a.05.05,0,0,1,0,0,14.66,14.66,0,0,0,.32-5.6,5.74,5.74,0,0,0,3-1.81c1.88-2.27,1.42-7.74,1.39-8a.54.54,0,0,0-.19-.37A.55.55,0,0,0,29.23,0ZM22.48,3.52c1-1.21,3.56-1.91,5.39-2.24L23.4,6.11A6.61,6.61,0,0,0,21.76,5a3.64,3.64,0,0,1,.72-1.46Zm1.74,11.09L14.41,4.32c2.2.19,6.55.79,8.32,2.64,2.11,2.22,1.8,5.91,1.49,7.65Zm-8.34-1.13c-1.75-1.83-2.15-6.17-2.23-8.39l9.77,10.24c-1.81.17-5.56.24-7.54-1.85ZM27.59,7.77a4.67,4.67,0,0,1-2.44,1.44A7.37,7.37,0,0,0,24.1,7l4.7-5.09c0,1.86-.17,4.66-1.21,5.91Z"/></svg>