<svg id="Layer_1" data-name="Layer 1" xmlns="http://www.w3.org/2000/svg" viewBox="0 0 27.64 33"><path d="M27.52,5.55A5.49,5.49,0,0,0,21,4.68a5.49,5.49,0,0,0-.43-.4,1.33,1.33,0,0,0,.08-.45V1.48A1.48,1.48,0,0,0,19.15,0h-.43a1.48,1.48,0,0,0-1.48,1.48V2.8a6.77,6.77,0,0,0-1-.08H11.41a6.77,6.77,0,0,0-1,.08V1.48A1.47,1.47,0,0,0,8.93,0H8.49A1.47,1.47,0,0,0,7,1.48V3.83a1.63,1.63,0,0,0,.07.45l-.43.4a5.49,5.49,0,0,0-6.54.87.45.45,0,0,0-.07.52c1.49,2.71,3.41,3.3,4.78,3.3H5A4.46,4.46,0,0,0,5,9.88L6.88,20.09a5.61,5.61,0,0,0,.46,1.4,4,4,0,0,0,0,.49v.27a3.64,3.64,0,0,0,.3,1.44,11.76,11.76,0,0,0-3.88,8.86.45.45,0,0,0,.44.45H23.48a.44.44,0,0,0,.44-.45,11.79,11.79,0,0,0-3.87-8.86,3.63,3.63,0,0,0,.29-1.44V22a2.7,2.7,0,0,0,0-.49,5.63,5.63,0,0,0,.47-1.4L22.63,9.88a4.43,4.43,0,0,0,.06-.51h.12c1.38,0,3.29-.59,4.78-3.3a.44.44,0,0,0-.07-.52ZM18.13,1.48a.58.58,0,0,1,.59-.59h.43a.59.59,0,0,1,.59.59V3.69A7,7,0,0,0,18.13,3Zm-10.22,0A.58.58,0,0,1,8.49.89h.44a.58.58,0,0,1,.58.59V3a7.13,7.13,0,0,0-1.6.7Zm-3,7C3.86,8.53,2.31,8.11,1,6a4.43,4.43,0,0,1,5.06-.57A5.9,5.9,0,0,0,4.94,8.5ZM9.47,32.11a4.63,4.63,0,0,1,4.35-4.5,4.62,4.62,0,0,1,4.35,4.5Zm13.56,0h-4a5.52,5.52,0,0,0-5.24-5.39,5.53,5.53,0,0,0-5.24,5.39h-4a10.85,10.85,0,0,1,3.44-7.64A3.67,3.67,0,0,0,11,25.92h5.69a3.67,3.67,0,0,0,2.92-1.45A10.89,10.89,0,0,1,23,32.11ZM8.19,22.25V22A2.79,2.79,0,0,1,11,19.2h5.69A2.79,2.79,0,0,1,19.45,22v.27A2.78,2.78,0,0,1,16.67,25H11a2.78,2.78,0,0,1-2.79-2.78ZM21.75,9.72l-1.86,10.2a1.42,1.42,0,0,1-.05.22,3.68,3.68,0,0,0-3.17-1.83H11a3.66,3.66,0,0,0-3.17,1.83,1.42,1.42,0,0,1,0-.22L5.89,9.72A5,5,0,0,1,7,5.63a5.73,5.73,0,0,1,4.42-2h4.82a5.73,5.73,0,0,1,4.42,2,4.89,4.89,0,0,1,1.1,4.09Zm1-1.23a5.85,5.85,0,0,0-1.14-3.11,4.47,4.47,0,0,1,5.07.56c-1.3,2.16-2.85,2.58-3.93,2.55ZM10,22.12c0-.73.42-1.3,1-1.3s1,.57,1,1.3-.43,1.3-1,1.3S10,22.85,10,22.12Zm5.79,0c0-.73.42-1.3,1-1.3s1,.57,1,1.3-.43,1.3-1,1.3S15.75,22.85,15.75,22.12ZM10.86,9.41a1,1,0,1,1-2.08,0,1,1,0,1,1,2.08,0Zm8,0a1,1,0,0,1-2.08,0,1,1,0,1,1,2.08,0Z"/></svg>