<svg id="Layer_1" data-name="Layer 1" xmlns="http://www.w3.org/2000/svg" viewBox="0 0 35 33.25"><path d="M17.5,26.15a9.34,9.34,0,0,0,8.09-14v0q-.12-.21-.24-.39C23.69,9.07,21.4,6,21.39,6A34.37,34.37,0,0,1,18.05.37h0a.59.59,0,0,0-1.1,0,35.11,35.11,0,0,1-3.33,5.57s-2.31,3.13-4,5.79c-.08.12-.16.24-.24.38l0,0h0a9.35,9.35,0,0,0,8.1,14ZM10.42,12.76h0l.25-.4v0c1.62-2.6,3.87-5.64,3.9-5.68A48,48,0,0,0,17.5,2a45.32,45.32,0,0,0,2.92,4.69s2.26,3.07,3.88,5.67l0,0,.25.4h0a8.15,8.15,0,1,1-14.16,0Z"/><path d="M15.24,21.94a.57.57,0,0,0,.46,0,.6.6,0,0,0,.37-.29.59.59,0,0,0,0-.47.61.61,0,0,0-.3-.35,4.67,4.67,0,0,1-2.51-4.16.6.6,0,1,0-1.2,0,6,6,0,0,0,.85,3.05,5.86,5.86,0,0,0,2.3,2.17Z"/><path d="M5.93,26.26c0,2.58,5.67,3.93,11.27,3.93s11.27-1.35,11.27-3.93q0-1.23-1.68-2.16h0a.59.59,0,0,0-.45-.06.6.6,0,0,0-.37.29.64.64,0,0,0,0,.45.59.59,0,0,0,.29.36c.68.38,1.07.78,1.07,1.12,0,1.12-3.93,2.74-10.08,2.74S7.12,27.38,7.12,26.26c0-.4.55-.9,1.47-1.33a.6.6,0,1,0-.5-1.08c-1.43.67-2.16,1.48-2.16,2.41Z"/><path d="M11.58,33.25h.09a.59.59,0,0,0,.08-1.18c-6.21-.93-10.56-3.34-10.56-5.85,0-1.7,1.94-3.36,5.32-4.58a.6.6,0,0,0,.32-.74.58.58,0,0,0-.72-.37C2.17,21.93,0,24,0,26.22c0,3.22,4.55,6,11.58,7Z"/><path d="M28.49,21.64c3.38,1.21,5.32,2.88,5.32,4.58,0,2.51-4.35,4.92-10.57,5.85h0a.59.59,0,0,0-.51.63.6.6,0,0,0,.6.55h.09c7-1,11.58-3.81,11.58-7,0-2.27-2.17-4.29-6.11-5.7h0a.61.61,0,0,0-.46,0,.62.62,0,0,0-.29.81.61.61,0,0,0,.35.3Z"/></svg>