<svg id="Layer_1" data-name="Layer 1" xmlns="http://www.w3.org/2000/svg" viewBox="0 0 23.72 33"><path d="M18.05,32a.52.52,0,0,1-.52-.52V11.36A3.58,3.58,0,0,1,18,9.64l2.59-4.75a.49.49,0,0,0,0-.51.51.51,0,0,0-.44-.26H3.61a.52.52,0,0,0-.45.27L.57,9.14A4.67,4.67,0,0,0,0,11.36V31.45A1.54,1.54,0,0,0,1.55,33h16.5a.52.52,0,0,0,0-1Zm-1.46,0h-15A.52.52,0,0,1,1,31.45V11.36a3.58,3.58,0,0,1,.44-1.72L3.92,5.16H19.24l-2.17,4a4.67,4.67,0,0,0-.57,2.22V31.45a1.54,1.54,0,0,0,.09.52Z"/><path d="M23.34,9.33,22.13,6.5h0a.48.48,0,0,0-.28-.28.55.55,0,0,0-.4,0,.53.53,0,0,0-.28.29.55.55,0,0,0,0,.4L22.4,9.74a3.64,3.64,0,0,1,.29,1.42V31.45a.51.51,0,0,1-.52.52H20.11a.52.52,0,1,0,0,1h2.06a1.54,1.54,0,0,0,1.55-1.55V11.16a4.62,4.62,0,0,0-.38-1.83Z"/><path d="M3.61,3.09A.48.48,0,0,0,4,2.94a.49.49,0,0,0,.15-.36V1H19.59V2.58a.52.52,0,0,0,1,0V.52a.51.51,0,0,0-.15-.37A.48.48,0,0,0,20.11,0H3.61a.52.52,0,0,0-.52.52V2.58a.53.53,0,0,0,.15.36A.51.51,0,0,0,3.61,3.09Z"/><path d="M12.37,26.81H5.16a.52.52,0,1,0,0,1h7.21a.52.52,0,1,0,0-1Z"/><path d="M11.34,28.87H6.19a.52.52,0,0,0-.52.52.52.52,0,0,0,.52.52h5.15a.52.52,0,0,0,.52-.52A.52.52,0,0,0,11.34,28.87Z"/><path d="M5.16,19.08v5.67a.52.52,0,1,0,1,0V19.08H6.7a1.56,1.56,0,0,0,1.1-.45,1.58,1.58,0,0,0,.45-1.1V13.41a.52.52,0,1,0-1,0v4.12a.51.51,0,0,1-.52.52H4.64a.52.52,0,0,1-.52-.52V13.41a.52.52,0,1,0-1,0v4.12a1.57,1.57,0,0,0,.46,1.1,1.54,1.54,0,0,0,1.09.45Z"/><path d="M11.86,12.89a2.59,2.59,0,0,0-2.58,2.58v1A2.59,2.59,0,0,0,11.34,19v5.72a.52.52,0,1,0,1,0V19a2.58,2.58,0,0,0,2.07-2.53v-1a2.59,2.59,0,0,0-.76-1.82A2.55,2.55,0,0,0,11.86,12.89Zm1.55,3.61a1.56,1.56,0,0,1-.78,1.34,1.52,1.52,0,0,1-1.54,0,1.56,1.56,0,0,1-.78-1.34v-1a1.56,1.56,0,0,1,.78-1.34,1.52,1.52,0,0,1,1.54,0,1.56,1.56,0,0,1,.78,1.34Z"/><path d="M5.67,17A.52.52,0,0,0,6,16.86a.51.51,0,0,0,.15-.36V13.41a.52.52,0,1,0-1,0V16.5a.48.48,0,0,0,.15.36A.5.5,0,0,0,5.67,17Z"/></svg>