<svg id="Layer_1" data-name="Layer 1" xmlns="http://www.w3.org/2000/svg" viewBox="0 0 35 32.22"><path d="M14.2,20.8h.15a3.35,3.35,0,0,0,2.36-1.13.55.55,0,0,0-.77-.78,2.26,2.26,0,0,1-1.67.81A2.2,2.2,0,0,1,12.85,19a.55.55,0,0,0-.86.68A3.24,3.24,0,0,0,14.2,20.8Z"/><path d="M23.59,16.48a1.79,1.79,0,0,1-1.24-.38.55.55,0,0,0-.71.83,3,3,0,0,0,1.78.66l.31,0a2.89,2.89,0,0,0,2-1.38.55.55,0,0,0-.91-.62,1.83,1.83,0,0,1-1.21.91Z"/><path d="M14,13l.36,0a3.26,3.26,0,0,0,2.23-1.57.54.54,0,1,0-.9-.61,2.22,2.22,0,0,1-1.47,1.09,2.2,2.2,0,0,1-1.52-.47.55.55,0,0,0-.77.06.54.54,0,0,0,.06.77A3.31,3.31,0,0,0,14,13Z"/><path d="M34.45,27.5H19.67a7,7,0,0,0,1.43-2.9,6.12,6.12,0,0,0,3,.79,5.74,5.74,0,0,0,1.17-.12,6.09,6.09,0,0,0,1.06-11.65,10,10,0,0,0,2.9-7,1.16,1.16,0,0,0-1.16-1.16A10,10,0,0,0,19.63,10,6.93,6.93,0,0,0,13.9,8.15,11.82,11.82,0,0,0,2.69,0a.55.55,0,0,0-.55.55,11.72,11.72,0,0,0,6.8,10.68A7,7,0,0,0,7.85,16a8.26,8.26,0,0,0-6.37,5.62.56.56,0,0,0,0,.42.57.57,0,0,0,.32.27,8.21,8.21,0,0,0,5.35-.12,6.47,6.47,0,0,0,0,.76A7.08,7.08,0,0,0,8.77,27.5H.55a.55.55,0,0,0-.48.27.56.56,0,0,0,0,.56L2.27,32a.55.55,0,0,0,.47.27H32.26a.55.55,0,0,0,.47-.27l2.19-3.62a.56.56,0,0,0,0-.56.55.55,0,0,0-.48-.27ZM29,18.33a5,5,0,0,1-7.72,5.09c0-.14,0-.27,0-.4V23a7,7,0,0,0-2-5,5,5,0,0,1,9.72.32Zm-.95-11.8a.07.07,0,0,1,.07.06,8.87,8.87,0,0,1-3,6.69,6,6,0,0,0-2.88.22l4-4.5a.55.55,0,0,0-.82-.73l-4,4.49a7.19,7.19,0,0,0-1-1.87,8.91,8.91,0,0,1,7.66-4.36ZM3.25,1.11a10.72,10.72,0,0,1,9.58,7.26,7.13,7.13,0,0,0-1.3.52L7.39,4.22a.55.55,0,1,0-.82.72l4,4.55a7.11,7.11,0,0,0-1,.86A10.65,10.65,0,0,1,3.25,1.11ZM19.32,11.29a5.64,5.64,0,0,1,1.32,3,6.21,6.21,0,0,0-2.28,3,7.16,7.16,0,0,0-4.15-1.34A7.05,7.05,0,0,0,9.48,17.7C6.41,11.42,14.88,6,19.32,11.29ZM7.57,20.53c-.05.13-.1.26-.14.39a7.22,7.22,0,0,1-4.71.52,7.16,7.16,0,0,1,5.35-4.35,6.9,6.9,0,0,0,.61,1.45,7.34,7.34,0,0,0-1.11,2ZM8.22,23a6,6,0,0,1,12,0c0,.22,0,.44,0,.65h0a6,6,0,0,1-2,3.86H10.29A6,6,0,0,1,8.22,23ZM32,31.12H3.05L1.52,28.59h32Z"/></svg>