<?xml version="1.0" encoding="UTF-8" standalone="no"?>
<svg
   xmlns:dc="http://purl.org/dc/elements/1.1/"
   xmlns:cc="http://creativecommons.org/ns#"
   xmlns:rdf="http://www.w3.org/1999/02/22-rdf-syntax-ns#"
   xmlns:svg="http://www.w3.org/2000/svg"
   xmlns="http://www.w3.org/2000/svg"
   viewBox="0 0 400 200"
   height="200"
   width="400"
   xml:space="preserve"
   id="svg2"
   version="1.1"><metadata
     id="metadata8"><rdf:RDF><cc:Work
         rdf:about=""><dc:format>image/svg+xml</dc:format><dc:type
           rdf:resource="http://purl.org/dc/dcmitype/StillImage" /></cc:Work></rdf:RDF></metadata><defs
     id="defs6"><clipPath
       id="clipPath18"
       clipPathUnits="userSpaceOnUse"><path
         id="path16"
         d="M 0,150 H 300 V 0 H 0 Z" /></clipPath><clipPath
       id="clipPath74"
       clipPathUnits="userSpaceOnUse"><path
         id="path72"
         d="M 56.2377,84.173 H 238.154 V 23.0177 H 56.2377 Z" /></clipPath><clipPath
       id="clipPath130"
       clipPathUnits="userSpaceOnUse"><path
         id="path128"
         d="M 105.375,125.769 H 297.664 V 43.115 H 105.375 Z" /></clipPath><clipPath
       id="clipPath186"
       clipPathUnits="userSpaceOnUse"><path
         id="path184"
         d="m 128.176,128.425 h 59.7 V 92.5793 h -59.7 z" /></clipPath><clipPath
       id="clipPath202"
       clipPathUnits="userSpaceOnUse"><path
         id="path200"
         d="M 57.084,94.5131 H 94.7397 V 69.0798 H 57.084 Z" /></clipPath><clipPath
       id="clipPath218"
       clipPathUnits="userSpaceOnUse"><path
         id="path216"
         d="M 13.2461,65.5801 H 42.7809 V 42.8682 H 13.2461 Z" /></clipPath></defs><g
     transform="matrix(1.3333333,0,0,-1.3333333,0,200)"
     id="g10"><g
       id="g12"><g
         clip-path="url(#clipPath18)"
         id="g14"><g
           transform="translate(189.3829,30.8878)"
           id="g20"><path
             id="path22"
             style="fill:#cc4452;fill-opacity:1;fill-rule:nonzero;stroke:none"
             d="m 0,0 c 4.247,3.386 7.702,8.099 8.426,13.482 0.503,3.743 -0.332,7.541 -1.502,11.131 -0.277,0.849 -0.588,1.718 -1.194,2.373 -1.071,1.157 -2.8,1.387 -4.377,1.395 -6.749,0.031 -13.464,-2.846 -18.096,-7.756 -4.632,-4.909 -7.114,-11.779 -6.69,-18.516 0.166,-2.641 0.798,-5.338 2.385,-7.456 C -15.817,-12.329 -4.989,-3.977 0,0" /></g><g
           transform="translate(3.2247,24.2343)"
           id="g24"><path
             id="path26"
             style="fill:#d3d3d3;fill-opacity:1;fill-rule:nonzero;stroke:none"
             d="m 0,0 c 0.296,-1.273 0.652,-2.566 1.416,-3.626 0.927,-1.285 2.36,-2.097 3.77,-2.819 18.964,-9.703 41.133,-9.898 62.241,-12.767 10.528,-1.431 20.992,-3.577 31.609,-3.959 11.382,-0.409 22.734,1.217 33.971,3.075 14.829,2.451 29.922,5.435 42.888,13.036 2.207,1.294 4.453,2.847 5.461,5.199 0.846,1.975 0.687,4.217 0.513,6.359 -0.226,2.787 -0.452,5.575 -0.678,8.362 -0.066,0.811 -0.146,1.664 -0.61,2.332 -0.762,1.096 -2.262,1.323 -3.591,1.446 -21.273,1.968 -42.681,1.62 -64.038,2.119 -19.126,0.447 -38.23,1.574 -57.305,3.016 -9.54,0.72 -19.075,1.521 -28.606,2.353 -4.82,0.422 -9.638,0.851 -14.457,1.283 C 10.015,25.64 3.966,27.435 1.516,26.431 -1.542,25.178 -1.258,17.342 -1.368,14.49 -1.556,9.628 -1.102,4.74 0,0" /></g><g
           transform="translate(3.2247,31.5118)"
           id="g28"><path
             id="path30"
             style="fill:#e0c2b6;fill-opacity:1;fill-rule:nonzero;stroke:none"
             d="m 0,0 c 0.296,-1.273 0.652,-2.566 1.416,-3.626 0.927,-1.285 2.36,-2.097 3.77,-2.819 18.964,-9.703 41.133,-9.898 62.241,-12.767 10.528,-1.431 20.992,-3.577 31.609,-3.959 11.382,-0.409 22.734,1.217 33.971,3.075 14.829,2.451 29.922,5.435 42.888,13.036 2.207,1.294 4.453,2.847 5.461,5.199 0.846,1.975 0.687,4.217 0.513,6.359 -0.226,2.787 -0.452,5.575 -0.678,8.362 -0.066,0.811 -0.146,1.664 -0.61,2.332 -0.762,1.096 -2.262,1.323 -3.591,1.446 -21.273,1.968 -42.681,1.62 -64.038,2.119 -19.126,0.447 -38.23,1.574 -57.305,3.016 -9.54,0.72 -19.075,1.521 -28.606,2.353 -4.82,0.422 -9.638,0.851 -14.457,1.283 C 10.015,25.64 3.966,27.435 1.516,26.431 -1.542,25.178 -1.258,17.342 -1.368,14.49 -1.556,9.628 -1.102,4.74 0,0" /></g><g
           transform="translate(6.097,61.7448)"
           id="g32"><path
             id="path34"
             style="fill:#ffddd7;fill-opacity:1;fill-rule:nonzero;stroke:none"
             d="m 0,0 c -3.51,-4.131 -5.073,-10.299 -2.571,-15.109 2.956,-5.682 10.052,-7.521 16.333,-8.775 14.614,-2.918 29.227,-5.835 43.841,-8.753 6.785,-1.355 13.575,-2.71 20.429,-3.659 29.537,-4.091 60.112,-0.447 87.86,10.472 5.558,2.187 11.389,5.005 14.209,10.271 0.298,0.558 0.565,1.18 0.465,1.805 -0.224,1.391 -1.962,1.858 -3.363,2.011 -50.04,5.48 -101.316,-1.25 -150.505,9.45 -2.645,0.575 -5.475,1.24 -7.692,2.879 C 16.919,2.134 15.862,4.939 13.575,6.207 9.076,8.702 2.743,3.228 0,0" /></g><g
           transform="translate(10.2106,58.0626)"
           id="g36"><path
             id="path38"
             style="fill:#e28681;fill-opacity:1;fill-rule:nonzero;stroke:none"
             d="m 0,0 c 0.446,5.712 5.055,10.418 10.319,12.68 5.264,2.261 11.135,2.541 16.859,2.789 13.341,0.579 26.682,1.157 40.024,1.735 9.035,0.392 18.105,0.783 27.108,-0.069 12.813,-1.212 25.259,-4.918 37.999,-6.741 16.175,-2.315 33.08,-1.66 48.219,-7.809 2.178,-0.884 4.571,-2.241 4.956,-4.56 0.302,-1.818 -0.776,-3.572 -1.98,-4.967 -4.416,-5.116 -10.9,-7.916 -17.286,-10.129 C 127.946,-30.334 86.05,-28.182 46.039,-21.876 32.874,-19.8 19.627,-17.248 7.498,-11.725 3.444,-9.878 -0.362,-4.634 0,0" /></g><g
           transform="translate(18.9657,64.581)"
           id="g40"><path
             id="path42"
             style="fill:#f99391;fill-opacity:1;fill-rule:nonzero;stroke:none"
             d="m 0,0 c -1.489,-1.321 -3.07,-3.014 -2.808,-4.987 0.206,-1.546 1.529,-2.722 2.942,-3.383 1.412,-0.661 2.973,-0.952 4.401,-1.579 1.969,-0.866 3.652,-2.358 5.716,-2.963 2.039,-0.597 4.238,-0.262 6.281,0.324 8.873,2.544 15.93,9.528 24.761,12.216 8.699,2.649 18.049,0.845 27.139,1.117 2.735,0.082 5.5,0.363 8.07,1.306 0.788,0.289 1.63,0.72 1.903,1.514 C 78.944,5.13 76.947,6.336 75.318,6.627 69.034,7.751 62.671,5.755 56.337,4.961 38.694,2.751 14.628,12.98 0,0" /></g><g
           transform="translate(120.0554,57.9945)"
           id="g44"><path
             id="path46"
             style="fill:#f99391;fill-opacity:1;fill-rule:nonzero;stroke:none"
             d="m 0,0 c 2.197,-1.246 4.138,-3.49 3.9,-6.004 -0.183,-1.936 -1.639,-3.56 -3.341,-4.5 -1.702,-0.941 -3.644,-1.325 -5.54,-1.759 -4.182,-0.958 -8.295,-2.221 -12.295,-3.776 -1.637,-0.636 -3.547,-1.769 -3.404,-3.519 0.165,-2.012 2.776,-2.647 4.794,-2.696 24.526,-0.598 48.503,6.552 71.993,13.632 1.969,0.593 4.191,1.413 4.915,3.338 0.611,1.623 -0.156,3.522 -1.459,4.667 C 58.26,0.527 56.528,1.049 54.824,1.374 48.676,2.545 42.323,1.542 36.088,2.086 31.911,2.45 27.828,3.506 23.769,4.557 18.437,5.938 13.105,7.318 7.773,8.699 4.214,9.621 -3.486,11.919 -7.1,9.989 -15.023,5.757 -2.64,1.497 0,0" /></g><g
           transform="translate(135.6414,35.0186)"
           id="g48"><path
             id="path50"
             style="fill:#ffddd7;fill-opacity:1;fill-rule:nonzero;stroke:none"
             d="M 0,0 C 1.481,1.418 2.606,4.056 0.977,5.301 0.21,5.886 -0.849,5.843 -1.811,5.768 -3.707,5.619 -5.769,5.49 -7.348,6.551 -8.927,7.611 -9.387,10.378 -7.716,11.287 -7.436,8.912 -4.504,7.912 -2.112,7.918 0.279,7.923 2.949,8.316 4.82,6.826 7.053,5.046 6.859,1.657 6.466,-1.172 6.411,-1.565 6.358,-1.973 6.475,-2.351 6.669,-2.973 7.282,-3.374 7.9,-3.578 c 2.505,-0.824 5.395,1.084 6.035,3.642 0.64,2.558 -0.692,5.351 -2.837,6.885 -2.193,1.569 -5.119,2.023 -7.026,3.93 -1.55,1.549 -2.158,3.798 -3.435,5.578 -2.016,2.808 -5.447,4.16 -8.686,5.369 0.865,0.657 2.13,0.446 3.07,-0.099 0.94,-0.545 1.687,-1.367 2.587,-1.975 1.836,-1.242 4.166,-1.51 6.118,-2.56 C 7.598,15.109 9.389,10.326 13.207,8.145 17.451,5.722 23.424,6.96 26.932,3.557 27.479,3.026 27.961,2.298 27.812,1.55 27.615,0.566 26.49,0.118 25.526,-0.163 14.767,-3.298 3.869,-6.472 -7.372,-7.201 c -1.603,-0.104 -7.066,-1.086 -8.235,0.253 -1.29,1.478 1.103,2.077 2.409,2.335 5.067,1 9.115,0.702 13.198,4.613" /></g><g
           transform="translate(174.1717,47.6492)"
           id="g52"><path
             id="path54"
             style="fill:#ffddd7;fill-opacity:1;fill-rule:nonzero;stroke:none"
             d="m 0,0 c -2.749,1.012 -5.738,1.079 -8.65,1.393 -7.143,0.77 -14.205,3.158 -19.92,7.513 1.914,1.037 4.193,-0.21 6.167,-1.128 4.612,-2.147 9.815,-2.505 14.841,-3.291 C -2.536,3.701 2.7,2.3 6.245,-1.348 7.142,-2.272 7.946,-3.437 7.887,-4.723 7.826,-6.068 6.569,-7.141 5.329,-6.699 5.873,-3.471 2.744,-1.011 0,0" /></g><g
           transform="translate(46.2337,49.8051)"
           id="g56"><path
             id="path58"
             style="fill:#f99391;fill-opacity:1;fill-rule:nonzero;stroke:none"
             d="m 0,0 c -1.432,-1.214 -2.831,-3.484 -1.422,-4.724 0.448,-0.394 1.063,-0.523 1.65,-0.626 3.635,-0.637 7.335,-0.826 10.981,-1.393 6.681,-1.04 13.173,-3.348 19.928,-3.653 2.773,-0.125 5.673,0.126 8.065,1.535 2.227,1.312 3.805,3.502 5.923,4.983 4.825,3.374 11.325,2.484 17.076,3.746 0.788,0.173 1.628,0.428 2.107,1.077 0.869,1.177 0.05,2.872 -1.02,3.869 C 58.845,8.955 51.72,7.505 45.93,9.336 42.135,10.536 38.518,13.382 34.378,13.144 30.632,12.929 26.435,12.168 22.735,11.322 14.404,9.417 6.523,5.528 0,0" /></g><g
           transform="translate(42.9853,55.0957)"
           id="g60"><path
             id="path62"
             style="fill:#a35d58;fill-opacity:1;fill-rule:nonzero;stroke:none"
             d="m 0,0 c -0.179,-1.676 0.873,-3.294 2.258,-4.255 1.385,-0.962 3.061,-1.39 4.7,-1.779 12.762,-3.03 25.89,-4.815 38.151,-9.474 3.288,-1.249 6.497,-2.699 9.786,-3.944 10.378,-3.927 21.41,-5.759 32.358,-7.568 3.596,-0.594 7.242,-1.191 10.869,-0.829 2.11,0.211 4.173,0.742 6.226,1.272 2.564,0.662 5.127,1.323 7.69,1.985 0.608,0.157 1.246,0.33 1.695,0.769 0.855,0.835 0.654,2.344 -0.123,3.252 -0.777,0.908 -1.955,1.352 -3.093,1.717 -6.27,2.011 -12.876,2.692 -19.315,4.066 C 76.699,-11.696 63.21,-5.139 49.268,-0.09 40.444,3.105 31.278,5.701 21.882,6.388 16.832,6.757 0.835,7.8 0,0" /></g><g
           transform="translate(139.3927,27.1368)"
           id="g64"><path
             id="path66"
             style="fill:#c9afa6;fill-opacity:1;fill-rule:nonzero;stroke:none"
             d="m 0,0 c 0,0 4.224,-4.505 5.638,-7.686 1.414,-3.182 4.149,-5.66 4.149,-5.66 0,0 11.1,3.134 19.381,5.575 C 37.449,-5.33 46.521,0 46.521,0 L 6.209,1.975 Z" /></g><g
           id="g68"><g
             id="g70" /><g
             id="g82"><g
               style="opacity:0.5"
               id="g80"
               clip-path="url(#clipPath74)"><g
                 id="g78"
                 transform="translate(56.6257,57.9247)"><path
                   id="path76"
                   style="fill:#b2b2b2;fill-opacity:1;fill-rule:nonzero;stroke:none"
                   d="m 0,0 c 0.156,-1.297 0.37,-2.622 1.016,-3.758 0.782,-1.378 2.118,-2.34 3.442,-3.21 17.803,-11.697 39.822,-14.288 60.496,-19.423 10.311,-2.561 20.481,-5.826 30.996,-7.354 11.271,-1.638 22.731,-1.249 34.103,-0.618 15.007,0.834 30.335,2.168 44.047,8.322 2.334,1.048 4.735,2.349 5.99,4.577 1.056,1.873 1.14,4.119 1.199,6.267 0.077,2.796 0.153,5.591 0.23,8.387 0.022,0.813 0.035,1.67 -0.355,2.384 -0.639,1.171 -2.105,1.56 -3.413,1.826 C 156.816,1.657 135.496,3.626 114.318,6.432 95.353,8.944 76.483,12.131 57.675,15.627 48.269,17.375 38.877,19.202 29.491,21.061 24.746,22 20.002,22.949 15.258,23.899 12.729,24.406 6.91,26.845 4.365,26.112 1.19,25.197 0.625,17.377 0.207,14.553 -0.506,9.74 -0.582,4.831 0,0" /></g></g></g></g><g
           transform="translate(227.0574,37.3758)"
           id="g84"><path
             id="path86"
             style="fill:#9e3645;fill-opacity:1;fill-rule:nonzero;stroke:none"
             d="m 0,0 c 4.732,2.666 8.894,6.77 10.465,11.969 1.092,3.615 0.872,7.497 0.289,11.228 -0.138,0.882 -0.307,1.789 -0.801,2.533 -0.873,1.312 -2.544,1.815 -4.099,2.073 -6.659,1.106 -13.745,-0.666 -19.1,-4.775 -5.354,-4.11 -8.899,-10.497 -9.552,-17.215 -0.257,-2.635 -0.063,-5.397 1.167,-7.741 C -17.578,-9.653 -5.559,-3.132 0,0" /></g><g
           transform="translate(43.3727,67.6279)"
           id="g88"><path
             id="path90"
             style="fill:#e0c2b6;fill-opacity:1;fill-rule:nonzero;stroke:none"
             d="m 0,0 c 0.089,-1.303 0.235,-2.637 0.821,-3.805 0.71,-1.416 1.995,-2.446 3.273,-3.383 17.177,-12.599 39.033,-16.32 59.414,-22.513 10.166,-3.089 20.155,-6.873 30.576,-8.941 11.172,-2.216 22.638,-2.417 34.027,-2.372 15.03,0.059 30.406,0.602 44.417,6.042 2.384,0.926 4.849,2.102 6.218,4.263 1.15,1.815 1.35,4.054 1.52,6.196 0.22,2.788 0.441,5.576 0.661,8.364 0.064,0.811 0.121,1.666 -0.231,2.399 -0.578,1.203 -2.022,1.667 -3.315,2 -20.687,5.329 -41.878,8.393 -62.883,12.286 -18.811,3.486 -37.492,7.64 -56.094,12.1 -9.305,2.231 -18.59,4.538 -27.868,6.878 -4.69,1.183 -9.379,2.374 -14.067,3.568 -2.5,0.637 -8.186,3.372 -10.765,2.771 C 2.486,25.102 1.519,17.321 0.956,14.523 -0.003,9.753 -0.333,4.855 0,0" /></g><g
           transform="translate(51.0215,97.0182)"
           id="g92"><path
             id="path94"
             style="fill:#ffddd7;fill-opacity:1;fill-rule:nonzero;stroke:none"
             d="m 0,0 c -4.124,-3.52 -6.648,-9.36 -4.944,-14.507 2.014,-6.08 8.727,-9.026 14.728,-11.264 13.963,-5.207 27.926,-10.413 41.888,-15.62 6.483,-2.418 12.971,-4.837 19.586,-6.865 28.509,-8.741 59.274,-10.01 88.407,-3.648 5.835,1.274 12.041,3.128 15.662,7.877 0.384,0.503 0.747,1.075 0.747,1.708 10e-4,1.409 -1.641,2.147 -3,2.521 -48.529,13.377 -100.222,14.895 -147.081,33.289 -2.52,0.99 -5.207,2.097 -7.135,4.067 C 17.042,-0.587 16.446,2.351 14.39,3.966 10.345,7.146 3.222,2.75 0,0" /></g><g
           transform="translate(54.4961,92.7279)"
           id="g96"><path
             id="path98"
             style="fill:#e28681;fill-opacity:1;fill-rule:nonzero;stroke:none"
             d="m 0,0 c 1.349,5.568 6.649,9.481 12.206,10.875 5.557,1.395 11.397,0.737 17.088,0.07 C 42.557,9.393 55.82,7.84 69.084,6.287 78.066,5.235 87.082,4.177 95.836,1.903 c 12.455,-3.237 24.153,-8.877 36.44,-12.705 15.601,-4.86 32.394,-6.905 46.362,-15.385 2.009,-1.22 4.155,-2.941 4.166,-5.292 0.009,-1.842 -1.335,-3.402 -2.746,-4.588 -5.174,-4.348 -12.021,-6.08 -18.678,-7.248 -39.895,-7.001 -80.914,1.793 -119.411,14.389 -12.666,4.145 -25.338,8.774 -36.433,16.157 C 1.827,-10.301 -1.095,-4.517 0,0" /></g><g
           transform="translate(64.1772,97.7694)"
           id="g100"><path
             id="path102"
             style="fill:#f99391;fill-opacity:1;fill-rule:nonzero;stroke:none"
             d="m 0,0 c -1.68,-1.067 -3.511,-2.486 -3.566,-4.476 -0.042,-1.559 1.076,-2.931 2.366,-3.809 1.289,-0.877 2.783,-1.412 4.093,-2.259 1.806,-1.168 3.23,-2.909 5.172,-3.835 1.918,-0.915 4.142,-0.934 6.252,-0.681 9.165,1.1 17.244,6.871 26.39,8.119 9.01,1.23 17.953,-2.039 26.971,-3.217 2.714,-0.355 5.488,-0.518 8.175,0.004 0.823,0.16 1.724,0.452 2.12,1.192 0.781,1.459 -0.998,2.967 -2.561,3.514 -6.024,2.11 -12.624,1.152 -19.004,1.377 C 38.639,-3.444 16.508,10.486 0,0" /></g><g
           transform="translate(162.9293,75.1736)"
           id="g104"><path
             id="path106"
             style="fill:#f99391;fill-opacity:1;fill-rule:nonzero;stroke:none"
             d="m 0,0 c 1.97,-1.58 3.53,-4.104 2.894,-6.549 -0.489,-1.881 -2.185,-3.252 -4.014,-3.91 -1.83,-0.658 -3.809,-0.727 -5.749,-0.854 -4.282,-0.28 -8.544,-0.873 -12.74,-1.771 -1.717,-0.368 -3.783,-1.181 -3.921,-2.932 -0.157,-2.013 2.319,-3.055 4.304,-3.425 24.118,-4.495 48.927,-1.254 73.245,1.997 2.038,0.272 4.362,0.728 5.383,2.513 0.862,1.505 0.407,3.502 -0.697,4.84 -1.104,1.337 -2.731,2.128 -4.362,2.72 C 48.46,-5.237 42.029,-5.215 35.96,-3.686 31.894,-2.661 28.031,-0.969 24.191,0.715 19.147,2.927 14.103,5.139 9.059,7.351 5.692,8.827 -1.544,12.322 -5.42,10.992 -13.915,8.076 -2.368,1.898 0,0" /></g><g
           transform="translate(174.6588,50.0095)"
           id="g108"><path
             id="path110"
             style="fill:#ffddd7;fill-opacity:1;fill-rule:nonzero;stroke:none"
             d="M 0,0 C 1.687,1.164 3.219,3.59 1.808,5.078 1.144,5.778 0.092,5.904 -0.87,5.982 -2.765,6.137 -4.822,6.339 -6.212,7.637 -7.602,8.935 -7.615,11.74 -5.821,12.372 -5.923,9.982 -3.187,8.529 -0.825,8.153 1.537,7.778 4.236,7.741 5.845,5.971 7.767,3.859 7.035,0.544 6.197,-2.186 6.08,-2.566 5.963,-2.96 6.019,-3.352 6.11,-3.997 6.652,-4.491 7.23,-4.79 c 2.341,-1.213 5.498,0.211 6.537,2.635 1.039,2.423 0.17,5.393 -1.704,7.249 -1.916,1.897 -4.732,2.812 -6.311,4.998 -1.283,1.776 -1.526,4.093 -2.504,6.054 -1.543,3.093 -4.715,4.974 -7.719,6.683 0.958,0.511 2.174,0.101 3.014,-0.586 0.842,-0.688 1.449,-1.619 2.24,-2.362 C 2.398,18.363 4.656,17.727 6.415,16.38 9.907,13.707 10.913,8.7 14.336,5.939 18.139,2.871 24.233,3.142 27.154,-0.775 27.61,-1.387 27.97,-2.182 27.704,-2.897 27.353,-3.838 26.171,-4.1 25.175,-4.224 14.053,-5.607 2.79,-7.005 -8.424,-5.935 c -1.599,0.152 -7.149,0.052 -8.09,1.561 -1.038,1.664 1.419,1.874 2.75,1.921 C -8.603,-2.272 -4.654,-3.212 0,0" /></g><g
           transform="translate(214.7083,56.345)"
           id="g112"><path
             id="path114"
             style="fill:#ffddd7;fill-opacity:1;fill-rule:nonzero;stroke:none"
             d="m 0,0 c -2.553,1.437 -5.493,1.979 -8.318,2.753 -6.93,1.897 -13.52,5.379 -18.469,10.588 2.054,0.719 4.106,-0.875 5.908,-2.096 C -16.668,8.392 -11.588,7.21 -6.751,5.634 -1.915,4.057 3.032,1.841 5.95,-2.325 6.689,-3.38 7.298,-4.658 7.035,-5.919 6.76,-7.236 5.348,-8.096 4.195,-7.462 5.246,-4.361 2.549,-1.434 0,0" /></g><g
           transform="translate(88.7454,78.841)"
           id="g116"><path
             id="path118"
             style="fill:#f99391;fill-opacity:1;fill-rule:nonzero;stroke:none"
             d="m 0,0 c -1.608,-0.97 -3.35,-2.989 -2.156,-4.438 0.379,-0.459 0.966,-0.685 1.53,-0.88 3.487,-1.208 7.109,-1.983 10.619,-3.124 6.43,-2.09 12.472,-5.402 19.091,-6.778 2.718,-0.565 5.622,-0.779 8.207,0.231 2.408,0.94 4.314,2.851 6.641,3.977 5.301,2.563 11.576,0.65 17.455,0.979 0.805,0.045 1.675,0.164 2.251,0.728 1.045,1.024 0.507,2.828 -0.391,3.983 C 59.52,-0.528 52.256,-0.825 46.83,1.905 43.275,3.693 40.157,7.079 36.032,7.503 32.3,7.888 28.035,7.805 24.247,7.558 15.72,7.004 7.32,4.419 0,0" /></g><g
           transform="translate(106.9475,84.1832)"
           id="g120"><path
             id="path122"
             style="fill:#a35d58;fill-opacity:1;fill-rule:nonzero;stroke:none"
             d="m 0,0 c 2.335,-3.026 5.714,-5.069 9.164,-6.714 7.482,-3.566 15.592,-5.565 23.498,-8.053 13.448,-4.231 26.39,-9.914 39.673,-14.636 13.283,-4.723 27.09,-8.511 41.186,-8.734 1.894,-0.031 4.347,0.459 4.621,2.333 0.279,1.914 -2.015,3.067 -3.875,3.601 C 85.621,-23.975 56.933,-14.615 31.58,1.057 24.083,5.692 16.456,11.134 7.572,12.626 -1.396,14.132 -5.978,7.745 0,0" /></g><g
           id="g124"><g
             id="g126" /><g
             id="g142"><g
               style="opacity:0.5"
               id="g140"
               clip-path="url(#clipPath130)"><g
                 id="g134"
                 transform="translate(284.1967,48.8899)"><path
                   id="path132"
                   style="fill:#b2b2b2;fill-opacity:1;fill-rule:nonzero;stroke:none"
                   d="m 0,0 c 5.016,2.085 9.635,5.664 11.813,10.64 1.515,3.459 1.758,7.34 1.622,11.114 -0.032,0.892 -0.092,1.813 -0.494,2.61 -0.711,1.407 -2.31,2.105 -3.824,2.546 C 2.637,28.8 -4.61,27.883 -10.415,24.439 -16.22,20.995 -20.498,15.074 -21.946,8.482 -22.514,5.896 -22.649,3.13 -21.707,0.656 -18.601,-7.496 -5.891,-2.449 0,0" /></g><g
                 id="g138"
                 transform="translate(105.4099,100.7601)"><path
                   id="path136"
                   style="fill:#b2b2b2;fill-opacity:1;fill-rule:nonzero;stroke:none"
                   d="m 0,0 c -0.066,-1.305 -0.08,-2.647 0.363,-3.876 0.537,-1.49 1.69,-2.666 2.848,-3.748 15.557,-14.551 36.816,-20.844 56.317,-29.415 9.727,-4.275 19.194,-9.22 29.297,-12.511 10.829,-3.529 22.189,-5.092 33.503,-6.401 14.93,-1.727 30.262,-3.016 44.82,0.721 2.478,0.635 5.065,1.51 6.681,3.493 1.358,1.666 1.823,3.865 2.246,5.972 0.55,2.742 1.1,5.484 1.65,8.225 0.16,0.798 0.318,1.64 0.056,2.41 -0.431,1.263 -1.81,1.895 -3.054,2.38 C 154.82,-25 134.144,-19.439 113.75,-13.077 95.486,-7.38 77.432,-1.035 59.491,5.605 50.518,8.925 41.573,12.32 32.639,15.746 c -4.516,1.732 -9.03,3.472 -13.543,5.215 -2.407,0.929 -7.728,4.321 -10.36,4.03 C 5.452,24.629 3.567,17.018 2.675,14.307 1.156,9.684 0.246,4.86 0,0" /></g></g></g></g><g
           transform="translate(285.4581,53.7071)"
           id="g144"><path
             id="path146"
             style="fill:#cc4452;fill-opacity:1;fill-rule:nonzero;stroke:none"
             d="m 0,0 c 4.911,2.322 9.354,6.117 11.293,11.191 1.348,3.527 1.406,7.415 1.091,11.179 -0.075,0.889 -0.179,1.806 -0.618,2.583 -0.778,1.372 -2.408,1.992 -3.941,2.361 -6.563,1.579 -13.758,0.318 -19.392,-3.399 -5.634,-3.717 -9.626,-9.834 -10.758,-16.488 -0.444,-2.61 -0.448,-5.38 0.612,-7.805 C -18.223,-8.373 -5.768,-2.727 0,0" /></g><g
           transform="translate(104.4035,97.0022)"
           id="g148"><path
             id="path150"
             style="fill:#e0c2b6;fill-opacity:1;fill-rule:nonzero;stroke:none"
             d="m 0,0 c -0.004,-1.306 0.046,-2.648 0.547,-3.854 0.608,-1.463 1.815,-2.582 3.023,-3.608 16.233,-13.794 37.767,-19.067 57.655,-26.7 9.919,-3.807 19.612,-8.295 29.859,-11.101 10.985,-3.009 22.407,-4.029 33.77,-4.798 14.996,-1.014 30.372,-1.571 44.735,2.855 2.445,0.753 4.988,1.75 6.507,3.808 1.277,1.728 1.636,3.947 1.959,6.072 0.419,2.765 0.838,5.53 1.257,8.295 0.122,0.804 0.239,1.653 -0.06,2.409 -0.49,1.242 -1.898,1.807 -3.163,2.231 -20.254,6.794 -41.172,11.364 -61.845,16.747 C 95.73,-2.823 77.393,2.655 59.157,8.432 50.036,11.322 40.939,14.287 31.852,17.283 27.258,18.798 22.667,20.321 18.075,21.847 15.627,22.66 10.151,25.795 7.536,25.379 4.273,24.86 2.752,17.169 1.991,14.418 0.693,9.728 0.015,4.866 0,0" /></g><g
           transform="translate(114.1321,125.7711)"
           id="g152"><path
             id="path154"
             style="fill:#ffddd7;fill-opacity:1;fill-rule:nonzero;stroke:none"
             d="m 0,0 c -4.364,-3.216 -7.3,-8.862 -5.967,-14.117 1.574,-6.208 8.059,-9.626 13.885,-12.287 13.556,-6.191 27.111,-12.382 40.666,-18.573 6.293,-2.874 12.592,-5.75 19.045,-8.246 27.813,-10.754 58.408,-14.218 87.921,-9.954 5.911,0.854 12.233,2.261 16.185,6.739 0.419,0.475 0.821,1.019 0.866,1.65 0.102,1.406 -1.483,2.259 -2.812,2.729 -47.45,16.809 -98.902,22.016 -144.327,43.71 -2.443,1.167 -5.045,2.464 -6.827,4.566 -1.678,1.98 -2.063,4.953 -3.998,6.711 C 10.829,6.389 3.41,2.513 0,0" /></g><g
           transform="translate(117.2915,121.2436)"
           id="g156"><path
             id="path158"
             style="fill:#e28681;fill-opacity:1;fill-rule:nonzero;stroke:none"
             d="m 0,0 c 1.744,5.458 7.309,8.982 12.952,9.976 5.642,0.993 11.42,-0.08 17.049,-1.151 13.118,-2.496 26.237,-4.993 39.355,-7.489 8.885,-1.691 17.802,-3.39 26.371,-6.284 12.192,-4.118 23.457,-10.579 35.44,-15.275 15.213,-5.962 31.818,-9.201 45.144,-18.657 1.917,-1.361 3.934,-3.231 3.778,-5.576 -0.123,-1.839 -1.575,-3.298 -3.067,-4.38 -5.471,-3.968 -12.425,-5.206 -19.148,-5.896 -40.293,-4.133 -80.58,7.569 -118.078,22.882 C 27.458,-26.811 15.149,-21.289 4.61,-13.131 1.087,-10.405 -1.415,-4.427 0,0" /></g><g
           transform="translate(127.308,125.5808)"
           id="g160"><path
             id="path162"
             style="fill:#f99391;fill-opacity:1;fill-rule:nonzero;stroke:none"
             d="m 0,0 c -1.752,-0.944 -3.679,-2.229 -3.876,-4.21 -0.154,-1.552 0.863,-3 2.087,-3.968 1.223,-0.967 2.676,-1.608 3.922,-2.546 1.718,-1.294 3.013,-3.132 4.884,-4.194 1.848,-1.05 4.065,-1.227 6.188,-1.126 9.22,0.442 17.69,5.621 26.902,6.213 9.075,0.584 17.762,-3.316 26.672,-5.136 2.682,-0.547 5.437,-0.908 8.155,-0.579 0.833,0.101 1.752,0.327 2.2,1.037 0.883,1.4 -0.784,3.031 -2.303,3.689 -5.859,2.534 -12.51,2.05 -18.858,2.73 C 38.294,-6.195 17.214,9.28 0,0" /></g><g
           transform="translate(224.1937,95.9889)"
           id="g164"><path
             id="path166"
             style="fill:#f99391;fill-opacity:1;fill-rule:nonzero;stroke:none"
             d="m 0,0 c 1.853,-1.716 3.227,-4.346 2.419,-6.739 -0.622,-1.842 -2.411,-3.088 -4.284,-3.614 -1.871,-0.525 -3.85,-0.453 -5.795,-0.441 -4.291,0.027 -8.584,-0.26 -12.833,-0.856 -1.739,-0.244 -3.858,-0.908 -4.12,-2.645 -0.302,-1.996 2.094,-3.213 4.047,-3.723 23.736,-6.206 48.714,-4.745 73.201,-3.24 2.053,0.126 4.403,0.414 5.549,2.122 0.967,1.44 0.656,3.464 -0.35,4.877 -1.006,1.413 -2.572,2.318 -4.156,3.025 -5.716,2.549 -12.129,3.03 -18.073,4.989 -3.983,1.313 -7.714,3.276 -11.425,5.23 C 19.307,1.552 14.434,4.118 9.56,6.685 6.308,8.398 -0.66,12.401 -4.621,11.351 -13.303,9.049 -2.227,2.063 0,0" /></g><g
           transform="translate(234.096,70.0512)"
           id="g168"><path
             id="path170"
             style="fill:#ffddd7;fill-opacity:1;fill-rule:nonzero;stroke:none"
             d="M 0,0 C 1.766,1.041 3.467,3.351 2.166,4.935 1.554,5.681 0.513,5.882 -0.44,6.029 -2.32,6.319 -4.357,6.667 -5.65,8.061 -6.944,9.456 -6.757,12.254 -4.923,12.756 -5.195,10.38 -2.57,8.734 -0.241,8.191 2.089,7.648 4.778,7.418 6.256,5.539 8.022,3.294 7.056,0.04 6.024,-2.623 5.881,-2.993 5.736,-3.378 5.764,-3.774 c 0.045,-0.65 0.55,-1.18 1.105,-1.52 2.249,-1.377 5.499,-0.182 6.709,2.161 1.209,2.343 0.554,5.367 -1.182,7.352 -1.776,2.03 -4.52,3.143 -5.938,5.436 -1.153,1.864 -1.229,4.192 -2.065,6.217 -1.318,3.196 -4.348,5.299 -7.223,7.218 0.993,0.441 2.176,-0.054 2.966,-0.8 C 0.925,21.544 1.465,20.572 2.201,19.774 3.703,18.145 5.91,17.35 7.569,15.88 10.86,12.964 11.506,7.898 14.723,4.9 18.298,1.568 24.396,1.403 27.03,-2.713 c 0.41,-0.642 0.713,-1.462 0.396,-2.155 -0.417,-0.914 -1.615,-1.091 -2.617,-1.144 -11.192,-0.585 -22.527,-1.175 -33.636,0.693 -1.584,0.267 -7.127,0.563 -7.957,2.135 -0.917,1.735 1.549,1.768 2.88,1.72 C -8.743,-1.652 -4.872,-2.871 0,0" /></g><g
           transform="translate(274.4955,73.5098)"
           id="g172"><path
             id="path174"
             style="fill:#ffddd7;fill-opacity:1;fill-rule:nonzero;stroke:none"
             d="m 0,0 c -2.443,1.615 -5.337,2.366 -8.1,3.34 -6.776,2.387 -13.102,6.331 -17.666,11.88 2.1,0.571 4.033,-1.166 5.743,-2.512 3.997,-3.147 8.98,-4.688 13.691,-6.606 C -1.62,4.184 3.155,1.62 5.769,-2.744 6.431,-3.849 6.947,-5.168 6.595,-6.406 6.226,-7.701 4.756,-8.457 3.651,-7.742 4.921,-4.725 2.44,-1.613 0,0" /></g><g
           transform="translate(150.4611,104.9457)"
           id="g176"><path
             id="path178"
             style="fill:#f99391;fill-opacity:1;fill-rule:nonzero;stroke:none"
             d="m 0,0 c -1.673,-0.853 -3.555,-2.742 -2.467,-4.272 0.345,-0.486 0.915,-0.753 1.462,-0.988 3.392,-1.453 6.95,-2.485 10.369,-3.874 6.264,-2.544 12.055,-6.279 18.559,-8.125 2.671,-0.757 5.551,-1.178 8.203,-0.356 2.468,0.767 4.506,2.537 6.908,3.493 5.47,2.177 11.592,-0.179 17.479,-0.27 0.807,-0.012 1.683,0.043 2.298,0.565 1.116,0.947 0.708,2.784 -0.106,4.001 C 59.33,-4.778 52.063,-4.555 46.847,-1.445 43.428,0.593 40.56,4.193 36.476,4.911 32.78,5.56 28.521,5.782 24.725,5.807 16.18,5.863 7.617,3.885 0,0" /></g><g
           id="g180"><g
             id="g182" /><g
             id="g194"><g
               style="opacity:0.28999299"
               id="g192"
               clip-path="url(#clipPath186)"><g
                 id="g190"
                 transform="translate(128.4659,120.4431)"><path
                   id="path188"
                   style="fill:#ffffff;fill-opacity:1;fill-rule:nonzero;stroke:none"
                   d="m 0,0 c -1.325,-4.319 2.122,-8.597 5.677,-11.384 8.155,-6.391 18.097,-10.032 27.998,-13.083 7.537,-2.323 15.49,-4.381 23.235,-2.892 0.671,0.129 1.372,0.302 1.869,0.771 0.908,0.855 0.768,2.42 0.014,3.413 -0.754,0.993 -1.947,1.539 -3.11,1.99 -11.816,4.587 -25.925,3.586 -36.035,11.233 -2.632,1.99 -5.036,5.305 -3.805,8.367 1.087,2.702 4.044,4.19 2.425,7.368 -1.201,2.356 -3.227,2.383 -5.507,2.04 C 8.299,7.154 1.458,4.751 0,0" /></g></g></g></g><g
           id="g196"><g
             id="g198" /><g
             id="g210"><g
               style="opacity:0.28999299"
               id="g208"
               clip-path="url(#clipPath202)"><g
                 id="g206"
                 transform="translate(57.103,90.6488)"><path
                   id="path204"
                   style="fill:#ffffff;fill-opacity:1;fill-rule:nonzero;stroke:none"
                   d="m 0,0 c -0.194,-2.116 1.116,-4.135 2.81,-5.418 1.695,-1.283 3.744,-1.983 5.722,-2.761 4.533,-1.783 8.866,-4.072 12.893,-6.811 4.115,-2.799 8.234,-6.192 13.197,-6.56 0.852,-0.063 1.801,0.003 2.413,0.599 0.427,0.416 0.615,1.036 0.601,1.632 -0.035,1.415 -1.117,2.627 -2.377,3.269 -1.261,0.642 -2.694,0.835 -4.086,1.091 -6.644,1.223 -12.864,4.063 -19.005,6.877 -1.506,0.69 -3.017,1.383 -4.416,2.272 C 5.989,-4.69 4.28,-2.937 4.449,-0.855 4.583,0.806 5.869,2.112 7.076,3.262 7.342,3.516 5.163,3.876 4.998,3.864 4.4,3.819 3.455,3.63 2.878,3.461 1.351,3.015 0.146,1.596 0,0" /></g></g></g></g><g
           id="g212"><g
             id="g214" /><g
             id="g226"><g
               style="opacity:0.28999299"
               id="g224"
               clip-path="url(#clipPath218)"><g
                 id="g222"
                 transform="translate(15.7405,64.025)"><path
                   id="path220"
                   style="fill:#ffffff;fill-opacity:1;fill-rule:nonzero;stroke:none"
                   d="m 0,0 c -1.415,-0.98 -2.448,-2.586 -2.493,-4.307 -0.057,-2.179 1.392,-4.093 2.906,-5.662 0.906,-0.94 1.869,-1.836 2.964,-2.545 3.107,-2.012 6.968,-2.353 10.493,-3.483 3.813,-1.221 7.251,-3.378 10.948,-4.914 0.385,-0.16 0.806,-0.316 1.21,-0.213 0.623,0.16 0.94,0.867 0.998,1.507 0.156,1.73 -0.965,3.376 -2.412,4.337 -1.447,0.961 -3.182,1.368 -4.877,1.747 -4.578,1.023 -9.193,1.974 -13.592,3.602 -1.015,0.376 -2.039,0.8 -2.844,1.524 -0.804,0.724 -1.36,1.808 -1.19,2.877 0.181,1.139 1.136,2.019 2.182,2.506 1.046,0.486 2.204,0.667 3.311,0.989 0.543,0.157 1.134,0.401 1.355,0.922 C 9.283,-0.351 8.61,0.476 7.89,0.885 5.599,2.187 2.064,1.429 0,0" /></g></g></g></g></g></g></g></svg>