<svg xmlns="http://www.w3.org/2000/svg" xmlns:xlink="http://www.w3.org/1999/xlink" viewBox="0 0 447.55 349.51"><defs><style>.cls-1{fill:none;}.cls-2{isolation:isolate;}.cls-3{fill:#cd8054;}.cls-4{clip-path:url(#clip-path);}.cls-5{fill:#734224;}.cls-6{fill:#00d374;}.cls-14,.cls-7{opacity:0.5;}.cls-8{fill:#b1eafb;}.cls-9{fill:#efbb8f;}.cls-10{fill:#b59f95;}.cls-11{fill:#988073;}.cls-12{clip-path:url(#clip-path-2);}.cls-13{fill:#dc9963;}.cls-14{mix-blend-mode:multiply;}.cls-15{fill:#ffa412;}.cls-16{fill:#ffb93e;}.cls-17{fill:#d9ab7f;}.cls-18{fill:#a17751;}.cls-19{fill:#ffa97e;}.cls-20{fill:#2c3a64;}.cls-21{fill:#2b478b;}.cls-22{fill:#f77b65;}.cls-23{fill:#522317;}.cls-24{fill:#6c8197;}.cls-25{fill:#db5e4b;}.cls-26{fill:#4162a3;}.cls-27{fill:#854540;}.cls-28{fill:#745239;}.cls-29{clip-path:url(#clip-path-3);}.cls-30{clip-path:url(#clip-path-4);}</style><clipPath id="clip-path"><path class="cls-1" d="M237.19,167.15C222.31,164.2,95,145,107.6,178.66c1.87,5,5,5,1.25,9.32-3.11,3.11-11.19,3.73-14.91,4.35-8.7,1.24-19.27,1.86-24.24,10.56-21.74,37.9,64.62,66.48,88.23,73.94,36,11.18,70.83,21.74,108.73,24.23a106.52,106.52,0,0,0,24.23-.62c9.94-1.25,14.91-5,23-9.94,13.67-8.7,33.55,1.86,49.08,1.24,14.29-.62,39.76-5,47.22-19.88,9.94-19.88-24.85-29.2-36-36.66-8.7-6.21-1.86-14.91-10.56-21.12-18.61-13.3-44.55-25.31-66-31.51C277.67,176.8,257.57,171.18,237.19,167.15Z"/></clipPath><clipPath id="clip-path-2"><path class="cls-1" d="M362.71,195.65c2.91-.92-10.51-12.4-10.51-15.67,0-.6,0-1.23-.08-1.87-.29-3.66-2.75-7.05-5.21-9.56-7.62-7.94-17.76-10.91-28.41-10.63-3.73.22-10.4.43-12.58,4.41-1,2.07-.89,5.23-.25,8.13.47,2.15-44.77,13.41-44,14.85,12.55,23.93,58,23.31,67.94,23.48C332.92,208.85,357.93,197.15,362.71,195.65Z"/></clipPath><clipPath id="clip-path-3"><path class="cls-1" d="M130.33,184.11c2.35-.46,2.64,1.94,2.17,2.87-.93,2.57-4.66,2-6.76,2.18-4.89.93-9.32,1.63-14.21,3.49-3,.94-6.29.94-9.32,1.4-3.26.23-6.52,1.4-9.55,1.87a29.48,29.48,0,0,1-16.78-2.57c-2.56-1.16-13.28-6.75-10-10.48,1.86-2.1,9.2-12,12.23-12,5.13,0,9.11-1.41,14.23-2.34,4.9-.7,12.09,2.34,17.21,3.51,6.06,1.16,7.94,6.69,14.24,6.69Z"/></clipPath><clipPath id="clip-path-4"><path class="cls-1" d="M170.87,241.53c2.35-.47,2.64,1.94,2.17,2.87-.93,2.56-4.66,1.94-6.75,2.18-4.9.93-9.32,1.63-14.22,3.49-3,.93-6.29.93-9.32,1.4-3.26.23-6.52,1.4-9.55,1.86a29.44,29.44,0,0,1-16.77-2.56c-2.57-1.16-13.28-6.76-10-10.48,1.86-2.1,9.2-12,12.23-12,5.13,0,9.11-1.41,14.24-2.34,4.89-.7,12.08,2.34,17.2,3.51,6.06,1.16,7.95,6.69,14.24,6.69Z"/></clipPath></defs><g class="cls-2"><g id="Layer_1" data-name="Layer 1"><path class="cls-3" d="M237.19,167.15C222.31,164.2,95,145,107.6,178.66c1.87,5,5,5,1.25,9.32-3.11,3.11-11.19,3.73-14.91,4.35-8.7,1.24-19.27,1.86-24.24,10.56-21.74,37.9,64.62,66.48,88.23,73.94,36,11.18,70.83,21.74,108.73,24.23a106.52,106.52,0,0,0,24.23-.62c9.94-1.25,14.91-5,23-9.94,13.67-8.7,33.55,1.86,49.08,1.24,14.29-.62,39.76-5,47.22-19.88,9.94-19.88-24.85-29.2-36-36.66-8.7-6.21-1.86-14.91-10.56-21.12-18.61-13.3-44.55-25.31-66-31.51C277.67,176.8,257.57,171.18,237.19,167.15Z"/><g class="cls-4"><path class="cls-5" d="M337,319.66c-1-1.75-4.76-5.78-7.76-4.42l-.61.1c.54-2.22-5.84-10.92-11.44-4.65C317,303.07,312,290.1,296,295.15a24.65,24.65,0,0,0-3.38,1.32c.12-.19.24-.38.35-.59,2.29-4.86-.75-9.12-6.29-10.73a7.85,7.85,0,0,0-6.85.63l.31-.06c-.15.13-.14.56-.29.48,0-3.52-2.53-7.55-5.5-9.7a17.17,17.17,0,0,0-6.94-2.34c-3.51-.14-4.68,1.33-6.91,3.31.32-4.21-7.4-12.15-13.77-6.07-.16-.29,0-.84-.19-1.14-1.28-1.69-.9-4.2-2.33-6.19a13.64,13.64,0,0,0-5.65-5,12.12,12.12,0,0,0-3.64-.85c0-2.42-2.28-4.35-4.94-5.86-4.66-2.61-10.12-1.48-15.63-2,5.88-7.17-11.73-9.17-17.94-7.8,5.47-5.5-8.91-11.46-15.51-7.79,1.73-6.72-6.38-7.33-13.72-5.88a5.77,5.77,0,0,0-2.27-7.78c-2.33-1.41-5.4-2-8.62-2.37s-6.7.5-9.45.12c-.46,0-1.22.2-1.68.18,7-5.76-6.38-8.7-12.28-7.38,2.22-2,4-3.13,2.88-5.38a11.9,11.9,0,0,0-5.16-3.91,33,33,0,0,0-15.29-1c-.16-.08.45-.18.6-.32v.21c1.47-1.74.66-3.4-.9-4.63-3.77-3.19-10.66-4-17-1.26-.26.12-.51.25-.75.38a10.5,10.5,0,0,0,1-2.55c3-11.78-16.85-11.6-27.77-9.75,7.46-5.3-6.64-7.17-9.66-6.23v-.42c1.14-2.32-5.62-3.73-8.37-3.9-3.06-.33-9.43,1-8.1,4.14.66,1.59,6.48,2.52,8.94,2.95-6.07,1-2.31,4.22.47,5.24s7,.72,10.38.36c-4.2,2-.74,5.45,1.74,6.72,3.11,1.6,7.06,1.15,11-.58-5.84,3.54,7.16,10.71,15.5,8-1.18,2-.39,4.12,2.49,6.08a22.64,22.64,0,0,0,7.12,3.26,27.27,27.27,0,0,0,4.14.68c.31.16,4.12,0,4.13.26s.16.08.46,0c-4.52,1.83,1.38,4.87,2.93,5.67,2.94,1.52,7.72,2.94,11.8,1.72-2.51,2.66,1.88,6.38,4.06,7.71,3.57,2.05,8.31,2.2,13.16,1.38-5,3.76,6,9,15.08,8-1,5.18,13.41,5.75,18.16,5.61-3.24,3.74.49,5.87,4.19,7.15,4.48,1.69,8.73,1,13.76,1.07-2,4.38-.55,6.58,4.1,8.77a32.91,32.91,0,0,0,6.79,2.46c2.15.49,4.89.24,7.19.59-4.28,5.25,2.24,7.24,9.38,6.51.32,6.45,11.28,12.79,15.47,8.4a8.81,8.81,0,0,0,5.45,8.22c2.48,1.06,8.94,2.94,12.07.6-.67,3,2.63,5.73,5.57,7.25,1.55.8,7.45,3.84,8.86.41,0,.21,0,.21.16.29.31,0,1.15,2.46,1.46,2.62a13.53,13.53,0,0,0,2.07,2.53,20.69,20.69,0,0,0,6.52,3.78c3.58,1.36,6.74,1.32,9.34,0-1.7,6.16,12,12.74,15.48,8-1.43,3-1,5.7,2.06,7.3,2.48,1.28,8.33,2.63,10.05-.64.38,2.27,1.08,5.13,3.27,6.68s7.72,3.15,7.59-1.08c1.27,1.49,4.13,5,6.57,5.05C338.13,326.07,338.29,321.57,337,319.66Z"/><path class="cls-5" d="M4.48,181c2.14-.13,8,.86,8.62,4.13l.27.56c1.65-1.66,13.24-1,11,7.09C31.33,188.83,45.9,186,51,202.18a22.15,22.15,0,0,1,.86,3.56c.1-.21.2-.41.32-.62,2.94-4.56,8.58-4.34,13.35-.55,1.92,1.44,3.57,3.57,3.56,6.1l-.13-.29c0,.2-.42.42-.25.51,3.11-1.95,8.24-2,12-.66A18.91,18.91,0,0,1,87,214.8c2.25,2.87,1.64,4.66,1.22,7.61,3.55-2.56,15.28-.38,13.7,8.28.36,0,.77-.44,1.13-.46,2.28.14,4.29-1.54,6.92-1.41a15.61,15.61,0,0,1,7.86,2,12.81,12.81,0,0,1,2.94,2.6c2.14-1.35,5.25-.45,8.2,1,5.14,2.5,7.41,7.71,11.22,12,2.85-8.84,15.24,4.87,17.76,10.84,1.61-7.59,15.58,1.26,16.28,8.8,4.95-5.11,10.38,1.38,13.51,8.34,1.73-2.78,5-3.75,8.3-2.32,2.66,1.19,5,3.48,7.3,6s3.59,5.9,5.59,8c.3.37.55,1.13.85,1.5.92-9,11.59.63,14,6.32.42-2.94.37-5.08,3.06-5.35a13.68,13.68,0,0,1,6.59,2.21,34.52,34.52,0,0,1,10.12,12.31c.17.08-.11-.49-.08-.68l-.19.11c.66-2.18,2.64-2.41,4.67-1.76,5.11,1.43,10,6.76,11.35,13.59,0,.29.08.56.12.84A10,10,0,0,1,261,313c8.69-8.92,20.48,7.85,25.42,18.05.23-9.16,10.38,1.68,11.36,4.73l.39-.22c1.37-2.23,6.7,2.69,8.51,4.91,2.14,2.39,4.82,8.45,1.19,9.07-1.81.31-6.14-4.09-8-5.91,2.74,5.66-2.37,4.23-4.95,2.45s-4.88-5.53-6.58-8.53c.76,4.61-4.4,3.58-7,2.19-3.3-1.74-5.27-5.31-6.09-9.54.36,6.84-13.86-.19-16.45-8.69-1.11,2.1-3.43,2.57-6.92,1.22a25.87,25.87,0,0,1-7.19-4.22,29.35,29.35,0,0,1-3.1-3.11c-.33-.18-2.52-3.44-2.72-3.33-.16-.09-.16-.09-.3-.37,1.1,4.79-5.16,1.49-6.81.62-3.13-1.65-7.27-4.89-8.64-9-.86,3.56-6.82,1.89-9.32.78-4-1.88-7-5.78-9.16-10.31-.34,6.24-11.6-.13-16.21-8.33-4,3.66-13.2-8.15-15.93-12.22-1.38,4.76-5.53,2.79-8.9.37-4.2-2.85-6.12-6.81-9.24-11-2.7,4.06-5.53,4-10.28,1.33a37,37,0,0,1-6.29-4.37c-1.72-1.55-3.15-4-4.85-5.73-2.09,6.45-7.8,2.05-11.45-4.35-5.94,3.25-18.19-2.53-16.8-8.44a10,10,0,0,1-10.6-.11c-2.45-1.5-8-5.92-7.82-9.82-2.26,2.19-6.68.91-9.81-.74-1.64-.87-7.9-4.17-5.7-7.23-.19.11-.19.11-.36,0-.14-.28-2.88.38-3.21.2a15,15,0,0,1-3.49-.36,23.19,23.19,0,0,1-7.3-3.43c-3.37-2.26-5.24-4.94-5.64-7.84-4.47,4.78-18.57-3.13-16.46-8.67-1.81,2.84-4.45,4-7.75,2.25-2.63-1.4-7.35-5.57-5.48-8.8-2.25.92-5.22,1.88-7.91.88s-7.47-4.78-3.62-7c-2.09-.25-7-.72-8.46-2.77C-1.9,183.54,2,181,4.48,181Z"/><path class="cls-5" d="M85,159.08c2-.28,7.49.3,8.22,3.52l.28.55c1.44-1.77,12.23-1.94,10.61,6.31,6.22-4.41,19.58-8.27,25.22,7.55a23.91,23.91,0,0,1,1,3.49c.09-.21.17-.42.26-.64,2.49-4.75,7.73-4.91,12.36-1.46a7.82,7.82,0,0,1,3.63,5.83l-.14-.27c0,.2-.36.44-.2.52,2.77-2.16,7.54-2.55,11.05-1.48a17.27,17.27,0,0,1,6,4.12c2.24,2.72,1.77,4.54,1.54,7.51,3.15-2.8,14.15-1.43,13.15,7.31.33,0,.69-.48,1-.53,2.12,0,3.89-1.83,6.35-1.88A13.57,13.57,0,0,1,192.8,201a12.09,12.09,0,0,1,2.87,2.39c1.92-1.49,4.85-.81,7.66.4,4.9,2.13,7.29,7.17,11,11.23,2.17-9,14.4,3.81,17.06,9.59,1.08-7.68,14.51.18,15.57,7.66,4.31-5.44,9.69.66,13,7.39a5.76,5.76,0,0,1,7.57-2.89c2.54,1,4.82,3.13,7.09,5.44s3.65,5.65,5.62,7.61c.3.35.57,1.09.87,1.44.37-9.05,10.79-.17,13.3,5.34.23-3,.07-5.09,2.55-5.54a11.86,11.86,0,0,1,6.23,1.75,33,33,0,0,1,10.05,11.57c.15.07-.13-.47-.12-.67l-.17.12c.5-2.22,2.32-2.58,4.24-2.07,4.82,1.07,9.66,6.05,11.26,12.77.06.29.1.56.15.83a10,10,0,0,1,1.44-2.33c7.58-9.49,19.42,6.42,24.53,16.25-.27-9.15,9.72,1,10.8,3.94l.35-.25c1.15-2.31,6.36,2.23,8.15,4.32,2.11,2.24,4.93,8.09,1.6,9-1.67.43-5.92-3.65-7.75-5.35,2.84,5.46-2,4.39-4.46,2.79s-4.82-5.18-6.56-8.06c.95,4.55-3.89,3.88-6.41,2.67-3.15-1.5-5.17-4.93-6.16-9.09.7,6.8-12.86.76-15.72-7.54-.91,2.17-3,2.8-6.35,1.69a22.94,22.94,0,0,1-6.9-3.71,27.83,27.83,0,0,1-3-2.89c-.32-.15-2.53-3.26-2.7-3.13-.16-.08-.16-.08-.3-.35,1.27,4.7-4.71,1.84-6.29,1.09-3-1.44-7-4.38-8.49-8.38-.61,3.61-6.22,2.36-8.6,1.43-3.79-1.61-6.77-5.3-9.05-9.66,0,6.24-10.77.67-15.49-7.19-3.51,3.93-12.67-7.22-15.42-11.09-1,4.84-5,3.15-8.24,1-4.05-2.55-6-6.38-9.16-10.33-2.29,4.24-4.91,4.42-9.46,2a32.77,32.77,0,0,1-6.06-3.92c-1.69-1.43-3.14-3.76-4.81-5.38-1.6,6.58-7.13,2.58-10.86-3.55-5.34,3.64-17-1.27-16-7.26a8.82,8.82,0,0,1-9.84.62c-2.34-1.33-7.75-5.35-7.77-9.26-2,2.34-6.15,1.36-9.14-.07-1.57-.75-7.55-3.61-5.68-6.81-.17.12-.17.12-.32.05-.15-.28-2.66.57-3,.42a13.36,13.36,0,0,1-3.25-.12,20.55,20.55,0,0,1-7-2.92c-3.24-2-5.12-4.57-5.65-7.43-3.89,5.07-17.39-1.85-15.72-7.52-1.54,3-3.93,4.28-7.07,2.77-2.52-1.2-7.12-5-5.56-8.4-2,1.08-4.74,2.24-7.29,1.43s-7.18-4.25-3.73-6.7c-1.95-.11-6.51-.25-8-2.18C79.25,162.06,82.74,159.21,85,159.08Z"/><path class="cls-5" d="M408.09,282.94c-1-1.72-4.92-5.65-7.88-4.21l-.61.12c.48-2.23-6.13-10.75-11.56-4.34-.44-7.61-5.79-20.44-21.66-14.95a23.82,23.82,0,0,0-3.33,1.41l.33-.6c2.15-4.92-1-9.1-6.58-10.56a7.87,7.87,0,0,0-6.83.81l.3-.06c-.14.14-.12.56-.27.48-.06-3.51-2.73-7.47-5.76-9.54a17,17,0,0,0-7-2.15c-3.52,0-4.65,1.46-6.82,3.49.21-4.21-7.73-11.93-13.93-5.69-.17-.28-.05-.84-.22-1.13-1.32-1.66-1-4.18-2.5-6.13a13.64,13.64,0,0,0-5.79-4.84,12.21,12.21,0,0,0-3.66-.75c0-2.43-2.39-4.28-5.09-5.73-4.73-2.48-10.16-1.19-15.68-1.6,5.68-7.32-12-8.85-18.15-7.31,5.32-5.65-9.22-11.21-15.71-7.36,1.54-6.77-6.58-7.16-13.88-5.51a5.78,5.78,0,0,0-2.48-7.72c-2.37-1.34-5.45-1.8-8.68-2.12s-6.68.68-9.45.37c-.46,0-1.21.24-1.67.22,6.83-5.95-6.61-8.52-12.48-7,2.17-2,3.93-3.24,2.74-5.46a12,12,0,0,0-5.27-3.77,33.1,33.1,0,0,0-15.31-.6c-.16-.08.45-.2.59-.33v.21c1.43-1.78.57-3.43-1-4.6-3.85-3.09-10.76-3.76-17-.81l-.75.4A9.85,9.85,0,0,0,166,163c2.67-11.86-17.15-11.14-28-9,7.31-5.51-6.83-7-9.83-6l0-.43c1.08-2.35-5.71-3.57-8.47-3.67-3.06-.25-9.4,1.22-8,4.36.71,1.57,6.56,2.34,9,2.7-6,1.2-2.19,4.29.61,5.23s7.06.53,10.4.08c-4.15,2.1-.6,5.46,1.92,6.67,3.14,1.52,7.08.95,10.94-.88-5.74,3.7,7.45,10.52,15.71,7.56-1.12,2.07-.28,4.12,2.66,6a22.92,22.92,0,0,0,7.21,3.06,27.17,27.17,0,0,0,4.16.57c.31.15,4.12-.07,4.13.15.16.07.16.07.46,0-4.47,1.95,1.51,4.83,3.08,5.59,3,1.44,7.8,2.73,11.84,1.4-2.43,2.72,2.06,6.32,4.27,7.6,3.63,1.95,8.37,2,13.2,1-4.89,3.89,6.2,8.83,15.29,7.59-.87,5.2,13.56,5.38,18.3,5.11-3.14,3.82.65,5.85,4.38,7,4.52,1.56,8.76.73,13.79.69-1.87,4.43-.37,6.59,4.33,8.66a33.06,33.06,0,0,0,6.86,2.27c2.16.43,4.89.1,7.2.39-4.13,5.36,2.44,7.18,9.56,6.26.49,6.44,11.63,12.48,15.69,8a8.81,8.81,0,0,0,5.67,8.07c2.51,1,9,2.7,12.09.28-.59,3,2.78,5.65,5.76,7.09,1.57.75,7.55,3.63,8.87.17,0,.21,0,.21.17.28s1.21,2.44,1.53,2.59a13.3,13.3,0,0,0,2.13,2.46,20.36,20.36,0,0,0,6.63,3.6c3.61,1.27,6.77,1.15,9.33-.23-1.53,6.2,12.31,12.41,15.69,7.58-1.35,3-.88,5.73,2.26,7.24,2.52,1.21,8.39,2.4,10-.91.44,2.26,1.22,5.1,3.45,6.58s7.81,2.94,7.56-1.28c1.31,1.45,4.26,4.93,6.7,4.87C409.38,289.31,409.42,284.81,408.09,282.94Z"/><path class="cls-5" d="M155.55,131.46c2-.28,7.49.3,8.22,3.52l.29.55c1.44-1.77,12.22-1.94,10.61,6.3,6.22-4.4,19.57-8.26,25.21,7.56a24,24,0,0,1,1,3.48c.08-.21.16-.42.26-.63,2.49-4.76,7.72-4.91,12.35-1.47a7.89,7.89,0,0,1,3.64,5.84l-.15-.28c0,.2-.36.45-.2.52,2.78-2.15,7.54-2.54,11-1.47a17,17,0,0,1,6.05,4.12c2.24,2.71,1.77,4.54,1.54,7.5,3.16-2.79,14.15-1.43,13.15,7.32.33,0,.69-.49,1-.54,2.13,0,3.9-1.82,6.35-1.88a13.58,13.58,0,0,1,7.39,1.49,12.33,12.33,0,0,1,2.88,2.39c1.91-1.5,4.84-.81,7.66.39,4.89,2.14,7.28,7.18,11.05,11.24,2.16-9,14.39,3.81,17,9.59,1.08-7.68,14.52.18,15.57,7.66,4.31-5.44,9.7.66,13,7.39a5.76,5.76,0,0,1,7.57-2.89c2.53,1,4.82,3.12,7.09,5.44s3.65,5.64,5.61,7.61c.3.35.57,1.09.87,1.44.37-9.05,10.79-.17,13.3,5.34.23-3,.07-5.1,2.55-5.55a11.92,11.92,0,0,1,6.24,1.75,33.15,33.15,0,0,1,10,11.58c.16.07-.13-.48-.11-.68l-.17.13c.49-2.22,2.32-2.58,4.24-2.07,4.81,1.07,9.65,6,11.26,12.76.05.29.1.56.14.84a10.3,10.3,0,0,1,1.44-2.33c7.59-9.49,19.42,6.42,24.54,16.25-.28-9.15,9.72,1,10.8,3.94l.34-.25c1.16-2.31,6.36,2.22,8.16,4.31,2.11,2.24,4.92,8.1,1.59,9-1.66.43-5.92-3.66-7.75-5.35,2.85,5.46-2,4.38-4.46,2.78S429,270.9,427.24,268c1,4.55-3.89,3.87-6.41,2.67-3.15-1.51-5.17-4.93-6.15-9.1.7,6.8-12.87.76-15.72-7.53-.92,2.17-3,2.8-6.36,1.69a22.9,22.9,0,0,1-6.89-3.71,28.93,28.93,0,0,1-3-2.89c-.31-.16-2.52-3.26-2.69-3.14-.16-.07-.16-.07-.3-.35,1.27,4.71-4.71,1.85-6.29,1.09-3-1.43-7-4.37-8.5-8.37-.6,3.61-6.22,2.36-8.59,1.42-3.8-1.61-6.78-5.29-9.05-9.66,0,6.25-10.77.68-15.49-7.19-3.51,3.93-12.68-7.21-15.43-11.08-1,4.84-5,3.15-8.23,1-4-2.56-6-6.38-9.17-10.33-2.28,4.23-4.91,4.41-9.46,2a33.18,33.18,0,0,1-6.06-3.93c-1.69-1.42-3.14-3.75-4.81-5.37-1.6,6.58-7.13,2.58-10.86-3.55-5.33,3.64-17-1.27-16-7.27a8.78,8.78,0,0,1-9.84.62c-2.35-1.33-7.75-5.35-7.78-9.25-2,2.33-6.14,1.36-9.13-.07-1.58-.75-7.56-3.62-5.68-6.81-.17.12-.17.12-.33,0-.14-.27-2.66.58-3,.42a12.51,12.51,0,0,1-3.26-.12,20.58,20.58,0,0,1-7-2.92c-3.25-2-5.13-4.57-5.66-7.43-3.88,5.07-17.38-1.84-15.72-7.51-1.53,3-3.92,4.27-7.07,2.77-2.52-1.21-7.12-5-5.55-8.4-2,1.07-4.75,2.24-7.3,1.43s-7.18-4.26-3.73-6.7c-1.94-.12-6.51-.25-8-2.19C149.77,134.43,153.26,131.59,155.55,131.46Z"/></g><path class="cls-6" d="M341.35,252c5.95,5,5.25,14.36,3.11,21.13-2.11-7-1-14.12-3.11-21.13Z"/><path class="cls-6" d="M347.88,244.83c1.91,6.95,1.17,14.25.17,21.27a71.18,71.18,0,0,1-1.42,7c-1.18-4.68-1.07-9.5-.75-14.24a103,103,0,0,1,2-14Z"/><path class="cls-6" d="M356.26,247.31c-1.53,9.05-5,17.42-4.66,26.72-4.58-8.63-.78-19.36,4.66-26.72Z"/><path class="cls-6" d="M357.51,262.54c-.58,4.28-.75,8.23-2.8,12.11-2.18-3.89-1.43-9.94,2.8-12.11Z"/><path class="cls-6" d="M147.79,223.76c6,5.05,5.25,14.36,3.11,21.13-2.12-7-1-14.12-3.11-21.13Z"/><path class="cls-6" d="M154.32,216.62c1.91,6.95,1.17,14.25.17,21.27a71.18,71.18,0,0,1-1.42,7c-1.18-4.68-1.07-9.5-.75-14.24a103,103,0,0,1,2-14Z"/><path class="cls-6" d="M162.7,219.1c-1.53,9.05-5,17.42-4.66,26.72-4.59-8.63-.78-19.36,4.66-26.72Z"/><path class="cls-6" d="M164,234.33c-.58,4.28-.75,8.23-2.8,12.11-2.18-3.89-1.44-9.94,2.8-12.11Z"/><path class="cls-6" d="M246.27,168.34c5.94,5,5.25,14.35,3.11,21.12-2.12-7-1-14.12-3.11-21.12Z"/><path class="cls-6" d="M252.79,161.19c1.91,7,1.18,14.25.18,21.27a70.59,70.59,0,0,1-1.42,7c-1.18-4.67-1.08-9.5-.76-14.24a106.26,106.26,0,0,1,2-14Z"/><path class="cls-6" d="M261.18,163.68c-1.53,9-5,17.41-4.66,26.72-4.59-8.64-.78-19.37,4.66-26.72Z"/><path class="cls-6" d="M262.42,178.9c-.58,4.28-.74,8.24-2.79,12.12-2.19-3.9-1.44-10,2.79-12.12Z"/><path class="cls-6" d="M150,190c5.95,5,5.25,14.35,3.11,21.12-2.11-7-1-14.12-3.11-21.12Z"/><path class="cls-6" d="M156.52,182.88c1.91,7,1.17,14.25.17,21.27a71.18,71.18,0,0,1-1.42,7c-1.18-4.68-1.07-9.5-.75-14.24a103,103,0,0,1,2-14Z"/><path class="cls-6" d="M164.9,185.37c-1.53,9-5,17.41-4.66,26.71-4.59-8.63-.78-19.36,4.66-26.71Z"/><path class="cls-6" d="M166.15,200.59c-.58,4.28-.75,8.23-2.8,12.11-2.18-3.89-1.43-9.94,2.8-12.11Z"/><path class="cls-6" d="M328.7,209.88c5.94,5,5.25,14.35,3.1,21.13-2.11-7-1-14.13-3.1-21.13Z"/><path class="cls-6" d="M335.22,202.74c1.91,6.95,1.18,14.24.17,21.26a68.49,68.49,0,0,1-1.41,7c-1.19-4.68-1.08-9.51-.76-14.25a104.24,104.24,0,0,1,2-14Z"/><path class="cls-6" d="M343.61,205.22c-1.54,9-5,17.41-4.66,26.72-4.59-8.64-.78-19.37,4.66-26.72Z"/><path class="cls-6" d="M344.85,220.44c-.58,4.28-.75,8.24-2.8,12.12-2.18-3.9-1.43-9.94,2.8-12.12Z"/><path class="cls-6" d="M133.16,151.25c5.94,5.05,5.25,14.36,3.1,21.13-2.11-7-1-14.12-3.1-21.13Z"/><path class="cls-6" d="M139.68,144.11c1.91,6.95,1.18,14.25.18,21.27-.38,2.32-.79,4.64-1.42,7-1.19-4.68-1.08-9.5-.76-14.24a104.39,104.39,0,0,1,2-14Z"/><path class="cls-6" d="M148.07,146.59c-1.54,9-5,17.42-4.66,26.72-4.59-8.63-.78-19.36,4.66-26.72Z"/><path class="cls-6" d="M149.31,161.82c-.58,4.28-.75,8.23-2.79,12.11-2.19-3.89-1.44-9.94,2.79-12.11Z"/><path class="cls-6" d="M218.78,262.12c5.95,5.05,5.25,14.36,3.11,21.13-2.12-7-1-14.12-3.11-21.13Z"/><path class="cls-6" d="M225.3,255c1.91,7,1.18,14.25.18,21.27a71.18,71.18,0,0,1-1.42,7c-1.18-4.68-1.07-9.5-.76-14.24a106.26,106.26,0,0,1,2-14Z"/><path class="cls-6" d="M233.69,257.46c-1.53,9.05-5,17.42-4.66,26.72-4.59-8.63-.78-19.36,4.66-26.72Z"/><path class="cls-6" d="M234.93,272.69c-.58,4.28-.74,8.23-2.79,12.11-2.19-3.89-1.44-9.94,2.79-12.11Z"/><path class="cls-6" d="M286.22,259.13c5.95,5,5.25,14.35,3.11,21.12-2.12-7-1-14.12-3.11-21.12Z"/><path class="cls-6" d="M292.74,252c1.91,7,1.18,14.25.18,21.27a71.18,71.18,0,0,1-1.42,7c-1.18-4.67-1.07-9.5-.76-14.24a106.26,106.26,0,0,1,2-14Z"/><path class="cls-6" d="M301.13,254.47c-1.53,9-5,17.41-4.66,26.71-4.59-8.63-.78-19.36,4.66-26.71Z"/><path class="cls-6" d="M302.38,269.69c-.58,4.28-.75,8.23-2.8,12.12-2.18-3.9-1.44-9.95,2.8-12.12Z"/><g class="cls-7"><path class="cls-8" d="M67.48,52.9c-.3-6,6.31-7.14,10.72-7.19-.49-4.86-1.43-8.82.28-13.7,2.13-6.43,7.35-12.45,14-14.3,5.71-1.84,12.79-1,17.69,2.44,6.23,4.55,5.64,10.31,7.71,16.68.17-4.2,6.57-4.72,9.68-3.21,4.44,1.93,5.8,5.45,6.3,9.64,3.28-2.47,6.4-.08,6.89,3.67,3.27-2.69,9-3.2,13-1.71,3.54,1.28,7.15,7.2,9.37,7.84Z"/><path class="cls-8" d="M396.21,98.74c.24-5.84-6.24-6.94-10.56-6.95.44-4.75,1.32-8.64-.4-13.4-2.14-6.28-7.3-12.12-13.78-13.87-5.61-1.75-12.53-.91-17.29,2.54-6.07,4.51-5.44,10.14-7.4,16.39-.2-4.1-6.47-4.56-9.5-3-4.33,1.93-5.63,5.38-6.08,9.49-3.24-2.39-6.27,0-6.71,3.65-3.23-2.6-8.86-3.05-12.75-1.56-3.46,1.29-6.93,7.12-9.1,7.75Z"/></g><path class="cls-9" d="M355.56,205.17c0,.69-1.37,1.24-3.06,1.24s-3.07-.55-3.07-1.24,1.37-1.24,3.07-1.24S355.56,204.48,355.56,205.17Z"/><path class="cls-9" d="M358.75,201.91c0,.34-.71.62-1.59.62s-1.6-.28-1.6-.62.72-.62,1.6-.62S358.75,201.57,358.75,201.91Z"/><path class="cls-9" d="M363.12,200.82c0,.26-.37.47-.83.47s-.84-.21-.84-.47.38-.46.84-.46S363.12,200.56,363.12,200.82Z"/><path class="cls-9" d="M362.29,207.6c0,.66-.93,1.19-2.08,1.19s-2.08-.53-2.08-1.19.93-1.19,2.08-1.19S362.29,207,362.29,207.6Z"/><path class="cls-9" d="M369,195c0,.64-1.11,1.16-2.48,1.16S364,195.64,364,195s1.11-1.17,2.49-1.17S369,194.35,369,195Z"/><path class="cls-9" d="M288.84,169.22c0,.72-1.08,1.31-2.4,1.31s-2.4-.59-2.4-1.31,1.07-1.31,2.4-1.31S288.84,168.49,288.84,169.22Z"/><path class="cls-9" d="M295.38,167.12c0,.44-1.19.79-2.64.79s-2.64-.35-2.64-.79,1.18-.78,2.64-.78S295.38,166.69,295.38,167.12Z"/><path class="cls-9" d="M296.85,171.62c0,.6-.92,1.08-2.06,1.08s-2.05-.48-2.05-1.08.92-1.09,2.05-1.09S296.85,171,296.85,171.62Z"/><path class="cls-9" d="M281,169.88c0,.36-1.21.65-2.71.65s-2.72-.29-2.72-.65,1.21-.66,2.72-.66S281,169.51,281,169.88Z"/><path class="cls-9" d="M284.91,174.42c0,.51-.66.93-1.48.93s-1.47-.42-1.47-.93.66-.94,1.47-.94S284.91,173.9,284.91,174.42Z"/><ellipse class="cls-9" cx="275.11" cy="173.95" rx="1.32" ry="0.47"/><path class="cls-9" d="M355.56,205.17c0,.69-1.37,1.24-3.06,1.24s-3.07-.55-3.07-1.24,1.37-1.24,3.07-1.24S355.56,204.48,355.56,205.17Z"/><path class="cls-9" d="M358.75,201.91c0,.34-.71.62-1.59.62s-1.6-.28-1.6-.62.72-.62,1.6-.62S358.75,201.57,358.75,201.91Z"/><path class="cls-9" d="M363.12,200.82c0,.26-.37.47-.83.47s-.84-.21-.84-.47.38-.46.84-.46S363.12,200.56,363.12,200.82Z"/><path class="cls-9" d="M362.29,207.6c0,.66-.93,1.19-2.08,1.19s-2.08-.53-2.08-1.19.93-1.19,2.08-1.19S362.29,207,362.29,207.6Z"/><path class="cls-9" d="M369,195c0,.64-1.11,1.16-2.48,1.16S364,195.64,364,195s1.11-1.17,2.49-1.17S369,194.35,369,195Z"/><path class="cls-9" d="M288.84,169.22c0,.72-1.08,1.31-2.4,1.31s-2.4-.59-2.4-1.31,1.07-1.31,2.4-1.31S288.84,168.49,288.84,169.22Z"/><path class="cls-9" d="M295.38,167.12c0,.44-1.19.79-2.64.79s-2.64-.35-2.64-.79,1.18-.78,2.64-.78S295.38,166.69,295.38,167.12Z"/><path class="cls-9" d="M296.85,171.62c0,.6-.92,1.08-2.06,1.08s-2.05-.48-2.05-1.08.92-1.09,2.05-1.09S296.85,171,296.85,171.62Z"/><path class="cls-9" d="M281,169.88c0,.36-1.21.65-2.71.65s-2.72-.29-2.72-.65,1.21-.66,2.72-.66S281,169.51,281,169.88Z"/><path class="cls-9" d="M284.91,174.42c0,.51-.66.93-1.48.93s-1.47-.42-1.47-.93.66-.94,1.47-.94S284.91,173.9,284.91,174.42Z"/><ellipse class="cls-9" cx="275.11" cy="173.95" rx="1.32" ry="0.47"/><path class="cls-10" d="M320.76,153.89c1.37-1.68.15-5.19,1.75-6.71,1.57-1.71,3.65-.41,5.52-.32,2.32.23,4.45-.55,6.83-1.16,10.14-2.35,19.81-2.56,29.24,3.06,4.43,3,7.63,7.17,11,11.14,2.09,2.54,3.22,1.93,6.11,3.09,3.15,1.53,2.49,3.71-.45,4.62-4.32,1.36-8.33,2-12.54,4-4.18,2.16-9,5.26-11.15,9.75-1.06,2.25-1.18,5.17-3.62,6.61-3,1.87-8.35,1.59-11.79,1.83a52.48,52.48,0,0,1-13.13-.46c-10.41-1.93-18.11-4.83-24.14-14.06-2.8-4.28-3.93-10.9-.77-15.37,2.37-3.09,8.85-5,12.7-5.47Z"/><path class="cls-11" d="M348.46,186.82c3.44-1.09,4-4.61,3.66-8.71-.29-3.66-2.75-7.05-5.21-9.56-7.62-7.94-17.76-10.91-28.41-10.63-3.73.22-10.4.43-12.58,4.41-1.66,3.6-.24,10.5,1.95,13.62,6.32,9,16,11.64,25.91,11.81C337.11,187.81,343.68,188.32,348.46,186.82Z"/><path class="cls-11" d="M325.45,153.5c3-.8,6.06.54,8.81,1.61,8.86,3.12,15.44,9.74,20.66,17.33l-.82.21c.63-7-8.72-14.94-14.38-18a27.7,27.7,0,0,0-10-2.89,16.23,16.23,0,0,1,6-.57,26.31,26.31,0,0,1,10.25,3.5c4,2.59,7.71,6.1,9.52,10.57a24.87,24.87,0,0,0-16.38-12.68,16.44,16.44,0,0,0-6.91-.47l0-.84c8.32,1.27,15.46,6.77,20.3,13.46a11.92,11.92,0,0,1,2.33,9.14l-.67-.94c-3.51-4.9-7.25-9.71-12.17-13.2a45.11,45.11,0,0,0-7.91-4.32c-2.7-1.16-5.65-2.58-8.66-1.95Z"/><g class="cls-12"><path class="cls-9" d="M264.37,186.71c.09-1.19,1.67-1.66,2.61-1.33-1.58-1.2,2.63-2.31,3.71-1.71.9-1.62,3.54-2.75,5.07-1.26.67-1.77,2.65-2.79,4.32-1.61.88-1.13,2.14-2.33,3.46-.89.83-.92,2.15-1.73,3.31-.66-.48-1.68,2-1.51,2.73-.66-1.17-2.25,1.62-1.94,2.91-1.28-.53-.79.07-1.29.83-1.41s1.11.2,1.78.67c0-1.66,2.6-1.91,3.42-.58,0-2.54,1.47-3.39,3.53-1.68.29-1.71,2.66-2.12,3.76-.84-.19-1.65,1-2.15,2.3-1.81.09-.2.17-.41.26-.61-.35-1-.24-2,1-2,.18-.32.36-.63.56-.94,0-1,.31-1.68,1.23-1.68.28-.33.58-.64.89-.95a2.45,2.45,0,0,1,2.65-2l.37-.22c0-1.49.36-1.58,1.73-2.19.27-.14.41.13.59,0s.3-.54.56-.68c.45-.27,1.08-.58,1.54-.17.41-1,2.8-1.94,3.72-1.12.07-1.28,1.47-1.13,2.32-1.28a18.25,18.25,0,0,1,3.17-.93,12.66,12.66,0,0,1,5.3,1c1.62.34,3.1,1.08,3.49,2.44a.36.36,0,0,1,0,.11L351,171.82c.55.88.74,2-.62,2.06,1.65.5,1.56,2.27.36,3.26a1.84,1.84,0,0,1,.36,3.26c2,.25,2.2,2.56.68,4,2.22-.76,2.1,2,1.13,3.14,1.29-.42,4.18.45,2.54,2.3,1.33-.23,2.63-.64,3.42.59a1.54,1.54,0,0,1-1.13,2.54c3.24.62,1.16,3.32-1.51,2.6.67,1.65-1.67,2.83-3,1.88.58,2.25-1.86,1.69-2.81,1.85-.19,0-.67-.47-1.05-.4s-.63.88-1,1c-1,.16-1.27.61-2.12.17.92,2-2.78,2-3.93,1.06a1.89,1.89,0,0,1-3.35,1c-1.14,1-2,.86-2.68.08-.62,1.4-2.38,2.23-3.47.58-.44,1.44-3.16,2.69-3.7.63-.72.81-3.37,2-4,.82,0,1.36-2.23,1.43-3.11.3.15,2-2.79,1.36-2.91-.47-.46,1.93-2.48,1.49-2.68-.23-.33,1.52-2.74,1.15-3.16-.15.18,1-1.27,1.69-2.1,1.44a2.43,2.43,0,0,1-1.35-2.22c0,2.16-2.87,1-2.63-.52-1.3,1.59-3,.61-2.69-1.4-.55,1.36-2,1.11-2.53,0,.45,2.07-2.1,2.61-3,.8.16,1,.34,2-.93,2-1.06.08-1.86-1.15-2.1-2-.07,1.87-2.25,1.17-2.93,0a2,2,0,0,1-.2-.61,3.87,3.87,0,0,1-.55.25c-.84.24-2.58-.24-1.59-1.29a5.42,5.42,0,0,1-2.7.75c-.84-.13-1.72-1-.8-1.39-1.18.34-5,.79-3.32-.94a3.41,3.41,0,0,1-2.69.85c-.82-.25-1.79-1.35-.94-2.08-.82.33-1.63.76-2.27-.11a1,1,0,0,1,.41-1.63c-1,0-2.28.39-3.19-.34-1.13-.88-.56-1.56.55-1.95-2.08-.13-2.48-1.92-.36-2.67-1.36,0-2.84-1.77-1.1-2.45-1.22.3-2.8.77-3.27-.82-1,1.24-3.13,1.71-3.57-.27C266.56,187.5,264.23,188.78,264.37,186.71Z"/><path class="cls-13" d="M317.74,173.25c0,.9-1.2,1.63-2.68,1.63s-2.68-.73-2.68-1.63,1.2-1.63,2.68-1.63S317.74,172.35,317.74,173.25Z"/><path class="cls-13" d="M323.8,173.33c0,.34-.69.62-1.55.62s-1.55-.28-1.55-.62.69-.63,1.55-.63S323.8,173,323.8,173.33Z"/><path class="cls-13" d="M325.45,178c0,.59-.72,1.06-1.6,1.06s-1.6-.47-1.6-1.06.72-1.07,1.6-1.07S325.45,177.41,325.45,178Z"/><path class="cls-13" d="M322.25,184.43a.92.92,0,0,1-.78,1c-.43,0-.77-.45-.77-1s.34-1,.77-1A.93.93,0,0,1,322.25,184.43Z"/><path class="cls-13" d="M309.51,181c0,.2-.59.36-1.32.36s-1.32-.16-1.32-.36.59-.36,1.32-.36S309.51,180.79,309.51,181Z"/><path class="cls-13" d="M315.06,179c0,.39-.79.71-1.76.71s-1.77-.32-1.77-.71.79-.71,1.77-.71S315.06,178.6,315.06,179Z"/><path class="cls-13" d="M340.51,177.48c0,.83-1.07,1.51-2.38,1.51s-2.37-.68-2.37-1.51,1.06-1.51,2.37-1.51S340.51,176.64,340.51,177.48Z"/><path class="cls-13" d="M344.61,181.17c0,.1-.27.18-.62.18s-.62-.08-.62-.18.28-.18.62-.18S344.61,181.07,344.61,181.17Z"/><path class="cls-13" d="M347.72,176.72c0,.42-.69.76-1.55.76s-1.56-.34-1.56-.76.7-.75,1.56-.75S347.72,176.31,347.72,176.72Z"/><path class="cls-13" d="M337.16,171.46c0,.69-1.08,1.24-2.41,1.24s-2.41-.55-2.41-1.24,1.08-1.24,2.41-1.24S337.16,170.78,337.16,171.46Z"/><path class="cls-13" d="M339.49,182.38c0,.57-.7,1-1.55,1s-1.56-.46-1.56-1,.7-1,1.56-1S339.49,181.81,339.49,182.38Z"/><path class="cls-13" d="M342.49,190c0,.78-1,1.41-2.18,1.41s-2.18-.63-2.18-1.41,1-1.41,2.18-1.41S342.49,189.17,342.49,190Z"/><path class="cls-13" d="M332.34,175a1.37,1.37,0,1,1-1.32-1A1.19,1.19,0,0,1,332.34,175Z"/><path class="cls-13" d="M330.33,170.45a1.18,1.18,0,1,1-1.17-1A1.1,1.1,0,0,1,330.33,170.45Z"/><path class="cls-13" d="M291.16,183.38c0,.56-.74,1-1.65,1s-1.66-.44-1.66-1,.74-1,1.66-1S291.16,182.83,291.16,183.38Z"/><path class="cls-13" d="M295.84,182.35c0,.55-.73,1-1.63,1s-1.63-.45-1.63-1,.73-1,1.63-1S295.84,181.8,295.84,182.35Z"/><path class="cls-13" d="M301.7,187.54c0,.55-.65,1-1.45,1s-1.46-.45-1.46-1,.66-1,1.46-1S301.7,187,301.7,187.54Z"/><path class="cls-13" d="M297.86,193c0,.21-.45.38-1,.38s-1-.17-1-.38.46-.39,1-.39S297.86,192.76,297.86,193Z"/><path class="cls-13" d="M288.26,188.73c0,.47-.8.85-1.79.85s-1.78-.38-1.78-.85.8-.85,1.78-.85S288.26,188.26,288.26,188.73Z"/><path class="cls-13" d="M294.21,189.25c0,.39-.68.7-1.52.7s-1.53-.31-1.53-.7.68-.71,1.53-.71S294.21,188.86,294.21,189.25Z"/><path class="cls-13" d="M291.16,194c0,.33-.65.59-1.45.59s-1.45-.26-1.45-.59.65-.59,1.45-.59S291.16,193.63,291.16,194Z"/><path class="cls-13" d="M282,184.77c0,.75-1,1.36-2.25,1.36s-2.26-.61-2.26-1.36,1-1.36,2.26-1.36S282,184,282,184.77Z"/><path class="cls-13" d="M317,199c0,.48-.82.86-1.84.86s-1.83-.38-1.83-.86.82-.85,1.83-.85S317,198.56,317,199Z"/><path class="cls-13" d="M309.51,197.46c0,.4-.45.72-1,.72s-1-.32-1-.72.45-.73,1-.73S309.51,197.06,309.51,197.46Z"/><path class="cls-13" d="M313.3,194.25c0,.16-.85.29-1.9.29s-1.89-.13-1.89-.29.85-.3,1.89-.3S313.3,194.09,313.3,194.25Z"/><path class="cls-13" d="M321.47,192.68c0,.38-.66.68-1.47.68s-1.48-.3-1.48-.68.66-.69,1.48-.69S321.47,192.3,321.47,192.68Z"/><path class="cls-13" d="M325.16,197.09c0,.2-.34.37-.77.37s-.77-.17-.77-.37.34-.36.77-.36S325.16,196.89,325.16,197.09Z"/><ellipse class="cls-13" cx="314.21" cy="187.54" rx="1.83" ry="1.01"/><path class="cls-13" d="M330.33,188.89c0,.2-.27.36-.59.36s-.58-.16-.58-.36.26-.35.58-.35S330.33,188.7,330.33,188.89Z"/><path class="cls-13" d="M335.76,194c0,.33-.45.59-1,.59s-1-.26-1-.59.46-.59,1-.59S335.76,193.63,335.76,194Z"/><path class="cls-13" d="M336.38,185.65c0,.49-.59.88-1.32.88s-1.32-.39-1.32-.88.59-.88,1.32-.88S336.38,185.16,336.38,185.65Z"/><path class="cls-13" d="M332.34,183.38a1.34,1.34,0,0,1-2.6,0,1.35,1.35,0,0,1,2.6,0Z"/><path class="cls-13" d="M303.76,178.23c0,.42-.78.76-1.75.76s-1.76-.34-1.76-.76.79-.75,1.76-.75S303.76,177.82,303.76,178.23Z"/><path class="cls-13" d="M298.79,198.61c0,.23-.43.42-1,.42s-1-.19-1-.42.44-.43,1-.43S298.79,198.37,298.79,198.61Z"/><path class="cls-13" d="M302,196.91c0,.1-.55.18-1.22.18s-1.22-.08-1.22-.18.55-.18,1.22-.18S302,196.81,302,196.91Z"/><path class="cls-13" d="M284,194c0,.33-.69.59-1.53.59S281,194.28,281,194s.69-.59,1.54-.59S284,193.63,284,194Z"/><path class="cls-13" d="M333.74,198.26c0,.44-.76.8-1.71.8s-1.7-.36-1.7-.8.76-.8,1.7-.8S333.74,197.81,333.74,198.26Z"/><path class="cls-13" d="M344,196.73c0,.4-.78.73-1.74.73s-1.74-.33-1.74-.73.78-.72,1.74-.72S344,196.33,344,196.73Z"/><path class="cls-13" d="M350.83,189.25c0,.38-.45.7-1,.7s-1-.32-1-.7.45-.71,1-.71S350.83,188.86,350.83,189.25Z"/><path class="cls-13" d="M353.31,193.81c0,.24-.55.44-1.24.44s-1.24-.2-1.24-.44.55-.45,1.24-.45S353.31,193.56,353.31,193.81Z"/></g><g class="cls-14"><path class="cls-11" d="M231.65,201.16c-7.18-1.42-68.61-10.7-62.52,5.56.9,2.4,2.4,2.4.6,4.49-1.49,1.5-5.39,1.8-7.19,2.1-4.2.6-9.29.9-11.69,5.1-10.49,18.28,31.17,32.07,42.56,35.67,17.39,5.39,34.17,10.49,52.46,11.69a51.26,51.26,0,0,0,11.69-.3c4.79-.6,7.19-2.4,11.09-4.8,6.59-4.2,16.18.9,23.68.6,6.89-.3,19.18-2.4,22.77-9.59,4.8-9.59-12-14.09-17.38-17.69-4.2-3-.9-7.19-5.1-10.19a113.54,113.54,0,0,0-31.82-15.19C251.18,205.82,241.48,203.11,231.65,201.16Z"/></g><path class="cls-15" d="M233.61,233c-2.09.23-1.86,2.56-1.86,4.42,0,3-.23,4.2,2.56,5.36,2.33.7,4.66,1.17,6.76.47,1.16-.47,1.4-1.87,2.56-1.63,1.87.23,1.4,2.09,2.1,3,1.86,1.86,4.42,2.33,7,2.56a38.82,38.82,0,0,0,14.68-.47c2.56-.7,6.52-3.72,4.42-7.22-1.63-2.56-7.22,0-10,0-3.72.23-6.75-.93-10-2.33-2.8-1.16-5.6-3.26-8.86-3Z"/><path class="cls-16" d="M231.28,192.66s.7,14.44,1.17,21.67c.23,2.56.23,4.89.23,7.45s-.93,4.43-1.16,7c-.24,1.87-.47,5.13.7,6.29,1.39,1.63,5.35,2.1,7.45,2.33.93.24,2.8-.23,4,.24,1.4.46,2.56,2.09,4.19,2.79,2.57,1.17,6.06,1.4,8.86,1.4,4.66,0,14-.51,14.68-3,.41-6.95-3.73-7.92-8.39-9.78-2.33-1.17-5.36-1.4-7-3.73-1.17-2.1-.93-5.36-1.17-7.69-.69-5.13-.93-10.25-1.16-15.38-.23-2.79.23-12.11.23-12.11Z"/><path class="cls-15" d="M183.37,233c0,2.49-.78,5.44-.63,7.93.16,1.86,1.4,2.79,3.27,2.95,2.48.31,2.64,0,4.35,2.17,2.79,3.73,5.28,5.75,10.09,6.06a59.72,59.72,0,0,0,10.56.31c2.33-.31,6.68-.78,8.24-2.49,2.33-2.33,1.39-6.52-2.18-5.28-3.42,1.4-7.92,3.58-11,.47-1.71-1.71-1.08-4-2.17-5.75-1.24-1.86-3.88-2.17-5.75-2.79Z"/><path class="cls-16" d="M185.39,190.49c0,7.14-.16,14.28-.47,21.27-.16,3.73-.62,7.31-.62,10.88,0,3.73-1.4,6.52-1.4,10.09,0,.78-.47,3.58,0,4.2.78,1.09,3.26.77,4.35,1.24,1.71.78,2.48,2.8,3.73,4.35a17.46,17.46,0,0,0,4.5,3.88c6.21,3.89,13.36,3.57,20.19,1.4a9.18,9.18,0,0,0,4-2.82c.81-6.34-2.64-7.59-6.21-9.45-3.42-1.71-7.77-3.73-8.54-7.92-.78-3.73,0-8.23.31-12,.62-8.39.77-17.09,2-25.48Z"/><path class="cls-17" d="M185.85,109c2.33,11.18,1.4,23.06,1.4,34.48,0,4.89-.23,9.55-.23,14.44a68.37,68.37,0,0,0-.47,7c0,4-1.4,4-3.26,7.23-2.8,5.35,3.73,8.15,1.16,13-1.39,2.8-3.72,4.2-.46,6.76a16.39,16.39,0,0,0,7.45,2.33,48.21,48.21,0,0,0,15.38-.7c2.8-.7,5.36-1.4,4.19-4.66-.23-.93-1.86-2.1-1.63-3,.47-1.63,2.8-1.63,3-3.49.23-2.33-2.56-3.5-2.33-6.06.23-1.63,1.87-4.19,2.33-6.06,1.17-4.66,5-36.34,6.41-39.84,0,0,10.37,47.06,10.37,48.23-.24,2.33-1.17,1.16-2.33,2.8-1.17,1.39-1.17,2.33,0,3.49,1.39,1.63,2.09-.23,1.63,2.33-.47,3.26-3,4.19,1.16,6.06,4.43,2.1,10.25,1.63,14.91,1.16,3.26-.23,12.82.47,14-3.72.7-2.8-3-4.2-2.56-7,.23-1.4,1.4-1.64.93-3.5-.46-1.63-2.56-2.1-3.49-3.73-1.63-3.72-.47-10.71-.7-14.68a84.27,84.27,0,0,0-2.8-14.91c-1.4-4.66-1.16-9.32-1.63-14.21-.93-9.32-3.26-18.64-5.12-27.72Z"/><path class="cls-18" d="M205,176.58c-4.84,2.69-10.72,1.85-16,1.17,5.36-.71,10.67.18,16-1.17Z"/><path class="cls-18" d="M189.7,180.78c1,1.16,2.64,1.35,4.05,1.62,4.65.77,9.23.14,14,.29.17,2.41-3.26,2.94-5,3.43-4.39,1.12-8.84,0-13.15-.81-.16,0-.14.06-.2.12-.07.45,1,1.27,1.42,1.51a14.45,14.45,0,0,0,6.7,2.22,35.45,35.45,0,0,0,7.21,0,30.84,30.84,0,0,1-7.25.5,15.1,15.1,0,0,1-7-2c-.9-.53-2.19-1.33-1.86-2.57.61-1.2,2.15-.49,3.12-.29,4.37,1,9.17,1.26,13.43-.34.63-.26,1.63-.69,1.71-1.35l.42.43c-4.49-.15-9.11.21-13.58-.82-1.41-.35-3.1-.67-4-1.94Z"/><path class="cls-18" d="M249.34,176.47a38.2,38.2,0,0,1-9.38,2.26c-2.28.51-5.47-.18-7,1.89l-.24-.6c3.29,1.06,7,.35,10.38.77,2.62.2,5.45.13,7.95,1.22,1.56.64,2,1.52.24,2.42-3.07,1.21-6.11,1.52-9.28,2.31s-6.31-.55-9.43-1c3.12.13,6.2,1.24,9.32.38,1.53-.32,3-.82,4.57-1.22,1.73-.46,3.59-.67,4.91-1.62l.15-.15a.22.22,0,0,0,0,.12c-2.45-1.55-5.63-1.26-8.5-1.53-3.68-.47-7.47.28-11.06-1.1l.22-.43c1.65-2.51,5.19-1.66,7.67-2.08a47.11,47.11,0,0,0,9.49-1.69Z"/><path class="cls-18" d="M233,188.35c2.42.8,4.93.49,7.44.58,4.1.15,8.37.45,12.25-1.16-2.78,2-6.45,2.35-9.79,2.25-3.31-.32-6.92.06-9.9-1.67Z"/><path class="cls-19" d="M265.16,81.69s.07,20.75,1.3,23.13c4.15,8,13.36,21.51,16.47,28,3.11,5.59-2.8,13.36,6.52,15.53,3.11.62,8.39-.31,8.7-4,.31-3.41-3.42-5.28-5-8.07-3.11-5.6-13-28.7-14.21-34.6s-1.32-16-1.32-21.94Z"/><path class="cls-20" d="M267,46.14c6.75,8.75,10.39,13.48,11.33,22.34.23,3,0,4.66,1.63,7.22a22.11,22.11,0,0,1,2.79,3.73c.94,2.09,1.4,1.39-.46,3-3.26,3-11.89,3.26-16.31,3.49a55.52,55.52,0,0,1-6.29.23c-.24-1.63.46-2.79.46-4.19A14,14,0,0,0,259,77.56a54.44,54.44,0,0,1-.47-8.62Z"/><path class="cls-21" d="M182,109.09c1.55.78,3.73.94,5.59,1.25a58.61,58.61,0,0,0,11.65,1.24c9.47.31,19.26.62,28.73.15,6.53-.31,12.59-2.79,18.95-3.88-.46-3.57-4.35-6.68-5-10.41-.62-2.64,2.18-1.55,3.42-3.72s-1.24-4.35-2.48-5.91c-1.87-2.33.62-3.1,2.64-4.66,1.86-1.39,3.57-2.79,5.43-4.19,3.58-2.64,6.53-5.75,9.79-8.54,5.59-4.66,14-11.19,9.78-19.11-4.19-7.76-12-14.29-20.65-15.84-7.93-1.4-16.63,0-24.24,2-7.92,2.17-15.06,5.51-21.28,11.41C198.28,55,193.15,60.48,190,68.4a110.38,110.38,0,0,0-4.19,11.18,30,30,0,0,0-1.09,5.28c-.31,2.49-1.24,3.26-2.48,5.28-2.18,3.42,1.55,5.44,1.09,8.86-.31,1.86-1.4,4.66-1.71,6.21Z"/><path class="cls-22" d="M254.19,59.7c-1.55.62-2.33,1.55-3.88,2-3.42.78-6.37.62-9.32-1.4-7.3-5-5.44-18,3.11-20.5a12.31,12.31,0,0,1,13,4.19A10.66,10.66,0,0,1,259,50.85c-.16,1.71-.78,5.43-2.49,6.21Z"/><path class="cls-19" d="M211.48,80.2c.78,7,.62,14.14.62,21.13,0,1.4-.31,3.26,0,4.5.47,1.87,2,3.11,3.42,4.35a50,50,0,0,0,8.85,7.3c6.06,3.88,12.12,8.7,18.64,11.81,2.49,1.24,7.46.77,5.59-3.11-1.71-3.42-6.37-6.21-9-8.7-3.41-3.1-6.21-6.52-9.78-9.47a29.94,29.94,0,0,1-4.51-4.35c-1.24-1.56-.93-2.64-.77-4.66.31-6.37,0-12.58,0-19Z"/><path class="cls-19" d="M243.17,121.36a23.07,23.07,0,0,0,5.12,2.65c2.33.77,6.52-.32,8.23,1.39,1.25,1.4.94,3.42,1.87,4.82.46.78,3.1,3.26,2.48,4.35-.77.93-8.54-1.56-9.78-2-1.4-.47-6.68-2-6.84-3.26Z"/><path class="cls-23" d="M373,169.21s-128-39.45-151-47.53c-1.76-.62-4.06-.91-5.31.75s-1.33,5.47.84,6.5c1.82.85,4.29.91,6.23,1.49q5.13,1.53,10.27,3.09l31.15,9.41,37.44,11.35q18.6,5.64,37.19,11.34,13.95,4.27,27.87,8.62l2.81.88S375.19,175.73,373,169.21Z"/><path class="cls-24" d="M397.29,213.28c-.24-3-2.56-22.95-2.91-28.31a41,41,0,0,0-1.52-7.46,7,7,0,0,0-1.25-2.95c-1.47-2.36-4.33-3-6.71-4-1.63-.62-3.18-1.24-4.81-1.94-1.79-.7-3.65-2-5.52-2.48-3.26-.78-6.21,4.19-6.6,6.91-.16,1.47-.16,4.74,1.17,5.82a9.31,9.31,0,0,0,2.25.78c.7.23,1.4.62,2.17.85,1.78.65,4.15,1.56,5.34,3.2-1,10-2.85,25.94-3.43,30.9-.11,1.16-.55,4.31,1,4.66a2.55,2.55,0,0,0,2.91-1.59c.81-1.52.58-27.15,4.77-26.91,1.7.09.59,17.59,1.05,24.81.11,1.63-.23,2.45,1.52,2.56s1.86-.7,2.09-2.33c.82-6.29-.68-24.62,2.45-25,2.23-.31,2.1,20.38,2.33,23.41.12,1.86.09,3.52,2.68,2.8C397.91,216.54,397.4,215,397.29,213.28Z"/><path class="cls-19" d="M285.46,150.64a17.48,17.48,0,0,0-.41-2.56c-.29-1.25-1.65-2.1-2.59-1.32s-.24,3.8.53,4.58c.59.62,2.42,1.16,2.83.08Z"/><path class="cls-25" d="M285.46,150.64c-.45-1.27-.51-3.75-2.29-3.71a.83.83,0,0,0-.67.83c0,1.42.19,3.48,1.86,3.92.49.15,1.08.18,1.34-.31,0,.27-.19-.55-.24-.73Zm0,0c.17.26.34.5.49.76l0,.06c-.51,1.42-2.71.9-3.48-.12-.83-1.38-1.47-3.32-.47-4.78a1.91,1.91,0,0,1,3,.43c.69,1.07.52,2.44.52,3.65Z"/><path class="cls-19" d="M289.76,152.74a2.23,2.23,0,0,1-2,1.08c-1.77.08-1.94-1.47-2.3-3.41-.17-1.17-.76-3.58,0-4.43a2,2,0,0,1,3.24.62,14.15,14.15,0,0,1,.48,1.48Z"/><path class="cls-25" d="M289.76,152.74c-.59,1.41-3,1.88-3.87.47a14.23,14.23,0,0,1-1.15-4.22c-.3-1.52-.34-3.77,1.68-4.11a2.51,2.51,0,0,1,2.3,1,5,5,0,0,1,.79,2.11c.17,1.62.21,3.25.25,4.79Zm0,0c-.65-2.23-.57-4.6-1.71-6.34a1.34,1.34,0,0,0-2.43.48,18.13,18.13,0,0,0,.37,4.05,6.91,6.91,0,0,0,.47,1.93c.58,1.17,2.61.9,3.3-.12Z"/><path class="cls-19" d="M294.3,153.67a4.78,4.78,0,0,1-3.06.62c-2.12-.08-2.54-2.64-2.65-5-.12-1.78-.65-4,.94-4.66,1.35-.62,2.53-.7,3.12,1.32a15.58,15.58,0,0,1,.23,1.63Z"/><path class="cls-25" d="M294.3,153.67a4.79,4.79,0,0,1-3.76.76c-2.32-.82-2.26-4-2.49-5.82-.1-1.27-.45-3,.63-4.06,3.09-2.1,4.52,0,4.57,2.9.36,1.84.77,4.36,1.05,6.22Zm0,0c-.55-1.75-1.31-4.32-1.78-6a7.66,7.66,0,0,0-.6-2.32c-.48-1-1.82-.58-2.56,0-.72.86-.42,2.11-.36,3.24.22,1.85-.19,4.45,1.71,5.42a5,5,0,0,0,3.59-.26Z"/><path class="cls-19" d="M298.07,153.13c-.18,1.24-2.18,1.16-2.83.93-1.88-.63-2.24-3.5-2.42-5.75a16.39,16.39,0,0,1-.29-3.34c.12-1,.65-1.16,1.47-1.24,1.59-.08,2.36,1.94,2.95,3.65a16.19,16.19,0,0,1,.35,1.86Z"/><path class="cls-25" d="M298.07,153.13c0,.59-.6,1-1.14,1.13a2.84,2.84,0,0,1-3.18-1,10,10,0,0,1-1.39-4.87c-.11-1.31-.73-2.95-.05-4.35a2,2,0,0,1,1.91-.79,2.83,2.83,0,0,1,2.2,1.74c1.3,2.49,1.25,5.42,1.65,8.14Zm0,0c-.72-2.1-.95-4.24-1.72-6.3-.61-1.32-1.21-3-2.83-2.53-.44.13-.44.4-.5.82a18.26,18.26,0,0,0,.28,3.18c.2,1.91.1,4.63,2.05,5.54.86.28,2.39.4,2.72-.71Z"/><path class="cls-19" d="M291.16,140.47a5.88,5.88,0,0,0,1.24,4c1.56,1.86,3.73,2.17,6.06,2.17a22.3,22.3,0,0,0,2.1,5.9c.39.63,1.32,1.64,2.25,1,.62-.47.47-1.87.47-2.57a17.17,17.17,0,0,0-.94-4.42c-.38-1.32-.85-3.5-1.94-4.35-1.16-1-2.87-1.4-4.11-2.41a18.5,18.5,0,0,1-3.19-3.73"/><path class="cls-25" d="M291.16,140.47c-.08,4.11,3.55,6.19,7.3,5.82h.29l.09.3c.78,2.22,1.07,5,3,6.59.4.23.77.14.88-.22.53-2.92-.76-6.24-1.61-9-.63-1.92-2.66-2.38-4.21-3.37a13.52,13.52,0,0,1-3.75-4.44c1.54,2.07,3.25,3.93,5.74,4.81a5.17,5.17,0,0,1,3,2.67c1.08,3.18,2.45,6.29,1.78,9.7a1.55,1.55,0,0,1-2.31.71c-2.24-1.69-2.48-4.74-3.21-7.22l.38.29c-4,.16-7.83-2.2-7.3-6.61Z"/><path class="cls-19" d="M254.81,130.68c-2.33,1.71.63,7.93,1.4,9.79.47,1.4,1.4,2.8,0,3.88-1.4,1.25-3.41.31-4.35-.77-.31-.47-.77-1.87-1.08-2-.47-.31-1.71.31-2.33.31a3.32,3.32,0,0,1-3.11-3c-2,.31-3,1.39-3.73-.94a13.5,13.5,0,0,1-.31-4.34c0-1.87-.15-6.37,1.87-7.3Z"/><path class="cls-26" d="M203.09,81.76a10.71,10.71,0,0,0,.16-2.33c0-2.49.93-3,2-5s.46-4.66.46-6.84a42.52,42.52,0,0,1,.47-6.37C207,56.75,209,53.18,213,51c3.11-1.71,7.61-3,11-1.24,3.73,1.86,5.9,5.9,6.21,9.94.16,1.55.16,3.26.16,5-.16,1.86-1.24,3.42-1.24,5.13-.16,1.39.62,1.08,1.08,2.33.31.93-.15,1.7-.46,2.64-.31.77-1.09,1.39-.93,2.33s.93,1.24,1.24,2.17c1.4,4.35-5.59,3.26-8.08,3.57a71.07,71.07,0,0,1-8.07.78c-2.65,0-5.13-.78-7.77-.93Z"/><path class="cls-23" d="M240.68,25.22c-1.4.62-2,3.26-2.17,4.66a9.55,9.55,0,0,0,3.41,8.54c5.13,4.66,14.29,5.9,21,6.52,3.89.47,7.61,1.4,11.65.63,4.2-.78,6.68-4.35,8.39-8.08,0,1.71-3.73,8.7-2.95,9.63,2.17,2.64,4.66-6.84,4.81-7.92a17.1,17.1,0,0,0-1.86-9.63c-1.24-2.49-3.88-6.37-7.15-6.37Z"/><path class="cls-19" d="M243.79,37.33c-.62,1.25-.47,3.11-.62,4.51-.16,2.64-.63,5.9.15,8.54,1.24,3.11,4.2,6.84,6.37,9.32,2,2.64,3.88,4.75,7.45,3.82a20.36,20.36,0,0,0,9.48-6A9.71,9.71,0,0,0,269,53c.62-2.17,1.55-2.79,3.26-4.5,5.59-5.6,9-13.21,3.88-20.35-7.14-10.1-30.75-10.41-32.61,4.5Z"/><path class="cls-19" d="M244.21,32.13c-.93-.58-2.67-.47-3.84-.47-2.91.12-5,1.52-5.48,4.43-1.16,6.64,4,8.74,9.09,8.74Z"/><path class="cls-23" d="M242.12,29.1c0,3.5-.7,6.76-.7,10.25,0,1.28-.23,2.22,1.05,2.68a2.55,2.55,0,0,0,3.14-.93c1-1.51.82-4.31.93-6.17,1.75.81,5.13-.35,6.41-1.64,1.52-1.39,3.38-4.31.93-5.47-1.86-.82-4.31-.7-6.29-.82-1.63-.11-4.07.12-5.36-.35Z"/><path class="cls-18" d="M260.52,18.85c5.94.23,12.23.35,17.83-1.75a7.73,7.73,0,0,0,1.33-.71c-.05-.27-.1-.54-.17-.8-.7-3.26-.93-7.23-2.56-10.25s-3.73-4.43-7-4A39.19,39.19,0,0,1,266,2c-1.63,0-3.26-.12-5-.12-4,0-7.92-2.33-11.88-1.75-3.15.47-4.43,3.15-5,6.18s-.68,6.09-1,9.19a23.68,23.68,0,0,0,7.43,2.22A72.93,72.93,0,0,0,260.52,18.85Z"/><path class="cls-27" d="M281.14,24.44c-.74-2.65-.91-5.39-1.46-8a7.73,7.73,0,0,1-1.33.71c-5.6,2.1-11.89,2-17.83,1.75a72.93,72.93,0,0,1-10-1.17,23.68,23.68,0,0,1-7.43-2.22,40.19,40.19,0,0,1-1.77,8.75l1.87,2h.11a34.52,34.52,0,0,0,8.39,1.63c3.38.35,6.87,1.05,10.25,1.16a74.62,74.62,0,0,0,10.25-.23c3-.35,7-.46,9.67-1.86Z"/><path class="cls-28" d="M252.25,4.17c2.4,4.51,8.58,6,13.33,5.28a14.59,14.59,0,0,0,4.84-1.67,10.65,10.65,0,0,1-2.17,1.51c-5.06,2.77-14.33,1-16-5.12Z"/><path class="cls-17" d="M228.91,16.62a19.67,19.67,0,0,0,1.93,2.14c6.06,5,15.83,6,23.38,6.75,8.24.81,17,1.21,25.18,0a66.83,66.83,0,0,0,6.87-1.4c2.1-.58,4.66-1.63,6.75-1.63a2.68,2.68,0,0,1,2.8,2c.47,1.75-.57,2.46-2,3-19.69,7.92-50.68,2.18-55.42.93A25,25,0,0,1,225,19.66c-.81-1-2.09-3.37-.69-4.54C226.05,13.66,227.58,15.07,228.91,16.62Z"/><path class="cls-9" d="M94.15,270.72c0,.46-1.6.83-3.57.83s-3.57-.37-3.57-.83,1.6-.83,3.57-.83S94.15,270.26,94.15,270.72Z"/><path class="cls-9" d="M98.08,278.69c0,.69-1.3,1.24-2.9,1.24s-2.89-.55-2.89-1.24,1.29-1.24,2.89-1.24S98.08,278,98.08,278.69Z"/><path class="cls-9" d="M94.15,285c0,.55-.8,1-1.78,1s-1.79-.44-1.79-1,.8-1,1.79-1S94.15,284.41,94.15,285Z"/><path class="cls-9" d="M88.9,276.67c0,.43-1.12.78-2.5.78s-2.5-.35-2.5-.78,1.12-.78,2.5-.78S88.9,276.24,88.9,276.67Z"/><path class="cls-9" d="M85.45,267.93c0,1.08-1.73,2-3.88,2s-3.88-.88-3.88-2,1.74-2,3.88-2S85.45,266.84,85.45,267.93Z"/><path class="cls-9" d="M75.82,274.91c0,.54-1.46,1-3.26,1s-3.26-.44-3.26-1,1.46-1,3.26-1S75.82,274.36,75.82,274.91Z"/><path class="cls-9" d="M52.84,250.43c0,.52-1.39.94-3.11.94s-3.11-.42-3.11-.94,1.39-.93,3.11-.93S52.84,249.92,52.84,250.43Z"/><path class="cls-9" d="M57.19,245.79c0,.38-1.19.68-2.65.68s-2.64-.3-2.64-.68,1.19-.69,2.64-.69S57.19,245.41,57.19,245.79Z"/><path class="cls-9" d="M48.33,244c0,.63-.87,1.14-1.94,1.14s-1.94-.51-1.94-1.14.87-1.14,1.94-1.14S48.33,243.33,48.33,244Z"/><path class="cls-9" d="M56.41,240.49c0,.42-.56.77-1.24.77s-1.25-.35-1.25-.77.56-.76,1.25-.76S56.41,240.07,56.41,240.49Z"/><ellipse class="cls-9" cx="54.54" cy="255.86" rx="2.64" ry="0.78"/><path class="cls-9" d="M45.23,254.92c0,.52-.91.94-2,.94s-2-.42-2-.94.9-.94,2-.94S45.23,254.4,45.23,254.92Z"/><ellipse class="cls-9" cx="42.2" cy="260.44" rx="2.25" ry="0.7"/><path class="cls-9" d="M60.15,265.26c0,.39-.84.7-1.87.7s-1.87-.31-1.87-.7.84-.7,1.87-.7S60.15,264.87,60.15,265.26Z"/><path class="cls-9" d="M60.15,233.54c0,.27-.84.49-1.87.49s-1.87-.22-1.87-.49.84-.5,1.87-.5S60.15,233.27,60.15,233.54Z"/><path class="cls-9" d="M102.85,276.28c0,.22-.41.39-.93.39s-.92-.17-.92-.39.41-.39.92-.39S102.85,276.07,102.85,276.28Z"/><path class="cls-9" d="M94.15,298c0,.56-1.17,1-2.62,1s-2.63-.45-2.63-1,1.18-1,2.63-1S94.15,297.47,94.15,298Z"/><path class="cls-9" d="M181.78,293.45c0,.6-1,1.08-2.19,1.08s-2.18-.48-2.18-1.08,1-1.09,2.18-1.09S181.78,292.85,181.78,293.45Z"/><ellipse class="cls-9" cx="185.17" cy="291.43" rx="1.86" ry="0.93"/><path class="cls-9" d="M189.21,295.62c0,.34-.9.62-2,.62s-2-.28-2-.62.91-.62,2-.62S189.21,295.28,189.21,295.62Z"/><path class="cls-9" d="M192.79,302.35c0,.49-.8.88-1.79.88s-1.79-.39-1.79-.88.8-.88,1.79-.88S192.79,301.86,192.79,302.35Z"/><path class="cls-9" d="M198.07,301c0,.29-.7.52-1.56.52S195,301.24,195,301s.7-.51,1.55-.51S198.07,300.67,198.07,301Z"/><ellipse class="cls-9" cx="192.94" cy="311.62" rx="2.64" ry="1.09"/><path class="cls-9" d="M199.62,295.39c0,.47-.9.85-2,.85s-2-.38-2-.85.91-.86,2-.86S199.62,294.92,199.62,295.39Z"/><path class="cls-9" d="M183.31,322.12c0,.55-1,1-2.17,1s-2.18-.44-2.18-1,1-1,2.18-1S183.31,321.58,183.31,322.12Z"/><ellipse class="cls-9" cx="186.88" cy="320.42" rx="1.71" ry="0.72"/><ellipse class="cls-9" cx="189.45" cy="326.38" rx="0.85" ry="0.47"/><ellipse class="cls-9" cx="94.39" cy="315.35" rx="2.1" ry="0.93"/><path class="cls-9" d="M97.1,311.08c0,.3-.87.54-1.94.54s-1.94-.24-1.94-.54.87-.55,1.94-.55S97.1,310.78,97.1,311.08Z"/><ellipse class="cls-9" cx="88.49" cy="308.59" rx="2.09" ry="0.7"/><path class="cls-9" d="M94.15,305.1c0,.25-.4.46-.89.46s-.89-.21-.89-.46.4-.47.89-.47S94.15,304.84,94.15,305.1Z"/><path class="cls-9" d="M79.09,301.08c0,.7-1.08,1.27-2.41,1.27s-2.41-.57-2.41-1.27,1.08-1.27,2.41-1.27S79.09,300.38,79.09,301.08Z"/><path class="cls-9" d="M115.28,324.05c0,.51-1.08.93-2.41.93s-2.41-.42-2.41-.93,1.08-.94,2.41-.94S115.28,323.53,115.28,324.05Z"/><path class="cls-9" d="M120.87,327.7c0,.47-1,.85-2.18.85s-2.17-.38-2.17-.85,1-.86,2.17-.86S120.87,327.22,120.87,327.7Z"/><path class="cls-9" d="M125.84,324.51c0,.26-.59.47-1.32.47s-1.32-.21-1.32-.47.59-.46,1.32-.46S125.84,324.25,125.84,324.51Z"/><path class="cls-9" d="M136.25,333.13c0,.56-1.19,1-2.64,1s-2.64-.45-2.64-1,1.18-1,2.64-1S136.25,332.58,136.25,333.13Z"/><path class="cls-9" d="M145.72,326.38c0,.25-.8.46-1.78.46s-1.79-.21-1.79-.46.8-.47,1.79-.47S145.72,326.12,145.72,326.38Z"/><path class="cls-9" d="M148.83,330.41c0,.43-.7.78-1.56.78s-1.55-.35-1.55-.78.7-.77,1.55-.77S148.83,330,148.83,330.41Z"/><path class="cls-9" d="M159.86,326.8c0,.5-.8.9-1.79.9s-1.79-.4-1.79-.9.8-.89,1.79-.89S159.86,326.31,159.86,326.8Z"/><ellipse class="cls-9" cx="168.09" cy="323.58" rx="1.86" ry="0.47"/><path class="cls-9" d="M171.85,326.8c0,.5-.84.9-1.88.9s-1.88-.4-1.88-.9.84-.89,1.88-.89S171.85,326.31,171.85,326.8Z"/><path class="cls-9" d="M177.41,327.7c0,.47-1,.85-2.25.85s-2.26-.38-2.26-.85,1-.86,2.26-.86S177.41,327.22,177.41,327.7Z"/><path class="cls-9" d="M144.79,329.05c0,.76-1.38,1.36-3.09,1.36s-3.08-.6-3.08-1.36,1.38-1.35,3.08-1.35S144.79,328.3,144.79,329.05Z"/><path class="cls-11" d="M64.93,201c0,12.58.7,24.93-2.33,37.28-1.16,5.13-3.49,11,0,15.61,4,4.89,10.25,5.59,15.85,6.52a187.54,187.54,0,0,0,36.11,3.27c6.76,0,28.42-2.57,26.56-13.28-.93-6.06-7.92-9.09-7.69-15.62.24-2.79,1.87-5.35,2.33-7.92.24-2.79-.46-5.12-1.16-7.69-1.63-5.35-.24-10.48-.47-15.84-.23-5.59.7-10.25-6.29-10-.47,0-1.16.24-1.86.24Z"/><path class="cls-10" d="M126.91,182.4c-5.13.7-6.76.24-11.18-2.33-5.83-3.73-12.59-4.19-19.11-2.56a78.79,78.79,0,0,1-18.17,1.86c-4.43,0-12.35.24-15.85,3-4,3.26-.93,10.25-1.63,14.91-.23,2.33-1.4,5.13-.46,7.46,1.39,2.8,5.36,4.66,7.92,6.06,10.48,6,24.7,7.45,36.11,3.26,5.36-1.87,10.72-5.83,16.54-5.13,4,.24,10.49,2.8,13.28-.46,3-3.26.94-10.25.94-14.45,0-3.26.46-9.55-2.8-11.42-.63-.62-2.4-.23-3.22-.23A18.74,18.74,0,0,0,126.91,182.4Z"/><path class="cls-11" d="M130.33,184.11c2.35-.46,2.64,1.94,2.17,2.87-.93,2.57-4.66,2-6.76,2.18-4.89.93-9.32,1.63-14.21,3.49-3,.94-6.29.94-9.32,1.4-3.26.23-6.52,1.4-9.55,1.87a29.48,29.48,0,0,1-16.78-2.57c-2.56-1.16-13.28-6.75-10-10.48,1.86-2.1,10.95-1.17,14-1.17a55.26,55.26,0,0,0,12.35-.93c4.9-.7,9.09-2.33,14.22-1.16,6,1.16,10.17,5.36,16.46,5.36Z"/><g class="cls-29"><path class="cls-9" d="M128.54,188.68c.81-.75.93-3.26-.47-2.88.12-1.25,0-2.76-1.63-2.13.47-1.38-1.28-2.51-2.21-1.63-.35-.88-1.28-.5-1.86,0-.24.38.11,1-.12,1.25s-.82-.12-1,.13c-.47.62-.47,1.63-.82,2-.58.5-1.51-.25-1.63,1.13.24-1.5-1-2.51-2-1.25.59-1.38-1.16-2-2-1.13.47-.75.24-3-.81-1.88,1-1.13.35-3.5-1.28-2.13a1.48,1.48,0,0,0-2.92-.5c.35-2-3-2.63-2.68-.12-.11-1.26-1.28-2.38-2.09-1.13.7-1.13-.24-3.38-1.52-2,.47-1.63-1.51-3.64-2-1.63-.35-1-2.21-1-2.79-.25s-.47,1.63-.47,2.5c-.08-1.31-1.46-1.22-2.46-.61-.3-1-1-1.64-1.38-.52-.24-2.5-2.8-2.87-3.15-.25-.46-2.37-2.68-.12-2.79,1.26-1.64-1.76-2.45.37-2.68,1.88-.35-1.26-2-2.38-2.92-1-.11-1.25-2-1.88-2.33-.5,0-1.88-2.79-2.63-2.68-.75-1.51-1.88-3.49-.12-3,1.75-2.1-.75-2.57.76-1.87,2.76-1.16-.63-3.49-.25-2.45,1.63-1-.75-4,.25-2.44,1.88-1.17-.38-3.15.25-2.91,1.87l5.59,6.77c6.29,4.5,15.61,6.88,23.06,5.63a5.17,5.17,0,0,0,.88-.21,19.32,19.32,0,0,0,3.9,1.46,17.86,17.86,0,0,0,10.83-.75,53.35,53.35,0,0,1,10.84-2.75c2.44-.51,7.34-1.63,7-5.26a1.24,1.24,0,0,0,.11.62C128.66,191.81,129.59,189.3,128.54,188.68Z"/><path class="cls-13" d="M76.51,183.72c0,.43-.63.78-1.4.78s-1.4-.35-1.4-.78.63-.77,1.4-.77S76.51,183.29,76.51,183.72Z"/><ellipse class="cls-13" cx="78.45" cy="182.36" rx="1.4" ry="1.05"/><ellipse class="cls-13" cx="82.64" cy="187.29" rx="1.63" ry="1.16"/><ellipse class="cls-13" cx="87.73" cy="181.81" rx="1.05" ry="0.5"/><path class="cls-13" d="M99,180.92c0,.77-1.06,1.39-2.38,1.39s-2.38-.62-2.38-1.39,1.07-1.39,2.38-1.39S99,180.15,99,180.92Z"/><path class="cls-13" d="M98.48,186.71c0,.32-.42.58-.94.58s-1-.26-1-.58.42-.58,1-.58S98.48,186.39,98.48,186.71Z"/><path class="cls-13" d="M107.34,184.25a2,2,0,1,1-2-1.89A1.93,1.93,0,0,1,107.34,184.25Z"/><ellipse class="cls-13" cx="104.37" cy="187.35" rx="0.99" ry="0.64"/><path class="cls-13" d="M110.68,182.13c0,.45-.66.82-1.48.82s-1.47-.37-1.47-.82.66-.82,1.47-.82S110.68,181.68,110.68,182.13Z"/><path class="cls-13" d="M80.62,189.7c0,.52-.92.93-2.06.93s-2-.41-2-.93.92-.93,2-.93S80.62,189.19,80.62,189.7Z"/><path class="cls-13" d="M91.73,190.87c0,.43-.9.77-2,.77s-2-.34-2-.77.89-.78,2-.78S91.73,190.44,91.73,190.87Z"/><path class="cls-13" d="M91.73,186.27c0,.24-.45.44-1,.44s-1-.2-1-.44.44-.45,1-.45S91.73,186,91.73,186.27Z"/><ellipse class="cls-13" cx="97.32" cy="190.67" rx="1.16" ry="0.58"/><path class="cls-13" d="M113.94,187c0,.39-.63.7-1.4.7s-1.4-.31-1.4-.7.63-.71,1.4-.71S113.94,186.58,113.94,187Z"/><path class="cls-13" d="M119.84,188.23c0,.3-.69.54-1.55.54s-1.56-.24-1.56-.54.7-.55,1.56-.55S119.84,187.93,119.84,188.23Z"/><path class="cls-13" d="M71.22,187.2c0,.27-.55.48-1.24.48s-1.24-.21-1.24-.48.55-.49,1.24-.49S71.22,186.93,71.22,187.2Z"/><path class="cls-13" d="M72.16,185.63c0,.1-.32.19-.7.19s-.7-.09-.7-.19.31-.2.7-.2S72.16,185.52,72.16,185.63Z"/><path class="cls-13" d="M85.28,193.24c0,.27-.59.5-1.32.5s-1.32-.23-1.32-.5.59-.51,1.32-.51S85.28,193,85.28,193.24Z"/><path class="cls-13" d="M77.59,187.49c0,.11-.24.19-.54.19s-.54-.08-.54-.19.24-.2.54-.2S77.59,187.38,77.59,187.49Z"/><ellipse class="cls-13" cx="76.23" cy="191.06" rx="0.82" ry="0.19"/><path class="cls-13" d="M81.94,179.56c0,.2-.29.36-.66.36s-.66-.16-.66-.36.3-.36.66-.36S81.94,179.36,81.94,179.56Z"/><path class="cls-13" d="M112,189.9c0,.1-.52.19-1.17.19s-1.16-.09-1.16-.19.52-.2,1.16-.2S112,189.79,112,189.9Z"/><path class="cls-13" d="M125.67,184.64c0,.22-.42.4-.94.4s-.93-.18-.93-.4.42-.39.93-.39S125.67,184.42,125.67,184.64Z"/><path class="cls-13" d="M124.73,185.85c0,.23-.53.42-1.2.42s-1.2-.19-1.2-.42.53-.42,1.2-.42S124.73,185.62,124.73,185.85Z"/><path class="cls-13" d="M126.37,187.16c0,.11-.16.19-.35.19s-.35-.08-.35-.19.15-.18.35-.18S126.37,187.06,126.37,187.16Z"/></g><path class="cls-11" d="M105.48,258.46c0,12.58.69,24.93-2.33,37.28-1.17,5.12-3.5,10.95,0,15.61,4,4.89,10.25,5.59,15.84,6.52a187.6,187.6,0,0,0,36.11,3.26c6.76,0,28.43-2.56,26.56-13.28-.93-6.06-7.92-9.08-7.69-15.61.24-2.79,1.87-5.36,2.33-7.92.24-2.8-.46-5.13-1.16-7.69-1.63-5.36-.23-10.48-.47-15.84-.23-5.59.7-10.25-6.29-10-.46,0-1.16.23-1.86.23Z"/><path class="cls-10" d="M167.45,239.82c-5.13.7-6.76.23-11.18-2.33-5.83-3.73-12.58-4.19-19.11-2.56A79.29,79.29,0,0,1,119,236.79c-4.43,0-12.35.23-15.84,3-4,3.26-.94,10.25-1.64,14.91-.23,2.33-1.39,5.13-.46,7.46,1.4,2.79,5.36,4.66,7.92,6.05,10.48,6.06,24.7,7.46,36.11,3.27,5.36-1.87,10.72-5.83,16.55-5.13,4,.23,10.48,2.8,13.28-.47,3-3.26.93-10.25.93-14.44,0-3.26.46-9.55-2.8-11.42-.63-.62-2.4-.23-3.21-.23A18.9,18.9,0,0,0,167.45,239.82Z"/><path class="cls-11" d="M170.87,241.53c2.35-.47,2.64,1.94,2.17,2.87-.93,2.56-4.66,1.94-6.75,2.18-4.9.93-9.32,1.63-14.22,3.49-3,.93-6.29.93-9.32,1.4-3.26.23-6.52,1.4-9.55,1.86a29.44,29.44,0,0,1-16.77-2.56c-2.57-1.16-13.28-6.76-10-10.48,1.86-2.1,11-1.17,14-1.17a55.35,55.35,0,0,0,12.35-.93c4.89-.7,9.08-2.33,14.21-1.17,6.06,1.17,10.17,5.36,16.46,5.36Z"/><g class="cls-30"><path class="cls-9" d="M169.08,246.09c.82-.75.93-3.25-.46-2.87.11-1.26,0-2.76-1.64-2.13.47-1.38-1.28-2.51-2.21-1.63-.35-.88-1.28-.5-1.86,0-.24.37.11,1-.12,1.25s-.81-.12-1,.13c-.46.62-.46,1.62-.81,2-.59.5-1.52-.25-1.63,1.13.23-1.51-1.05-2.51-2-1.26.58-1.37-1.17-2-2-1.12.46-.75.23-3-.82-1.88,1-1.13.35-3.51-1.28-2.13a1.48,1.48,0,0,0-2.91-.5c.35-2-3-2.63-2.68-.13-.12-1.25-1.28-2.38-2.1-1.12.7-1.13-.23-3.38-1.51-2,.46-1.62-1.52-3.63-2-1.62-.34-1-2.21-1-2.79-.25s-.47,1.62-.47,2.5c-.07-1.32-1.46-1.22-2.46-.62-.3-1-1-1.63-1.38-.51-.23-2.5-2.8-2.88-3.15-.25-.46-2.38-2.68-.12-2.79,1.25-1.63-1.75-2.45.38-2.68,1.88-.35-1.25-2-2.38-2.91-1-.12-1.25-2-1.88-2.33-.5,0-1.88-2.8-2.63-2.68-.75-1.52-1.88-3.5-.13-3,1.75-2.1-.75-2.57.75-1.87,2.76-1.16-.63-3.49-.25-2.44,1.62-1-.75-4,.25-2.45,1.88-1.16-.37-3.14.25-2.91,1.88l5.59,6.76c6.29,4.51,15.61,6.89,23.07,5.64a6.53,6.53,0,0,0,.87-.21,19.32,19.32,0,0,0,3.9,1.46,17.9,17.9,0,0,0,10.84-.75A53.12,53.12,0,0,1,160.81,254c2.45-.5,7.34-1.62,7-5.26a1.17,1.17,0,0,0,.12.63C169.2,249.23,170.13,246.72,169.08,246.09Z"/><path class="cls-13" d="M117.05,241.14c0,.43-.63.78-1.4.78s-1.4-.35-1.4-.78.63-.78,1.4-.78S117.05,240.71,117.05,241.14Z"/><ellipse class="cls-13" cx="118.99" cy="239.78" rx="1.4" ry="1.05"/><ellipse class="cls-13" cx="123.18" cy="244.71" rx="1.63" ry="1.16"/><ellipse class="cls-13" cx="128.27" cy="239.23" rx="1.05" ry="0.5"/><path class="cls-13" d="M139.51,238.34c0,.77-1.06,1.39-2.38,1.39s-2.38-.62-2.38-1.39,1.07-1.39,2.38-1.39S139.51,237.57,139.51,238.34Z"/><path class="cls-13" d="M139,244.13c0,.32-.43.58-.95.58s-1-.26-1-.58.43-.58,1-.58S139,243.81,139,244.13Z"/><path class="cls-13" d="M147.88,241.66a2,2,0,1,1-2-1.88A1.94,1.94,0,0,1,147.88,241.66Z"/><ellipse class="cls-13" cx="144.91" cy="244.77" rx="0.99" ry="0.64"/><ellipse class="cls-13" cx="149.74" cy="239.55" rx="1.48" ry="0.82"/><ellipse class="cls-13" cx="119.11" cy="247.12" rx="2.06" ry="0.93"/><path class="cls-13" d="M132.27,248.29c0,.42-.9.77-2,.77s-2-.35-2-.77.89-.78,2-.78S132.27,247.86,132.27,248.29Z"/><path class="cls-13" d="M132.27,243.68c0,.25-.45.45-1,.45s-1-.2-1-.45.45-.44,1-.44S132.27,243.44,132.27,243.68Z"/><ellipse class="cls-13" cx="137.86" cy="248.09" rx="1.16" ry="0.58"/><path class="cls-13" d="M154.48,244.39c0,.39-.63.71-1.4.71s-1.4-.32-1.4-.71.63-.71,1.4-.71S154.48,244,154.48,244.39Z"/><path class="cls-13" d="M160.38,245.64c0,.3-.69.55-1.55.55s-1.55-.25-1.55-.55.69-.54,1.55-.54S160.38,245.34,160.38,245.64Z"/><path class="cls-13" d="M111.77,244.62c0,.26-.56.48-1.25.48s-1.24-.22-1.24-.48.56-.49,1.24-.49S111.77,244.35,111.77,244.62Z"/><path class="cls-13" d="M112.7,243c0,.11-.32.2-.7.2s-.7-.09-.7-.2.31-.19.7-.19S112.7,242.94,112.7,243Z"/><path class="cls-13" d="M125.82,250.65c0,.28-.59.51-1.32.51s-1.32-.23-1.32-.51.59-.5,1.32-.5S125.82,250.38,125.82,250.65Z"/><ellipse class="cls-13" cx="117.59" cy="244.91" rx="0.54" ry="0.19"/><ellipse class="cls-13" cx="116.78" cy="248.48" rx="0.82" ry="0.19"/><path class="cls-13" d="M122.48,237c0,.2-.29.36-.66.36s-.66-.16-.66-.36.3-.35.66-.35S122.48,236.78,122.48,237Z"/><path class="cls-13" d="M152.54,247.31c0,.11-.52.2-1.17.2s-1.16-.09-1.16-.2.52-.19,1.16-.19S152.54,247.21,152.54,247.31Z"/><path class="cls-13" d="M166.21,242.06c0,.22-.42.4-.93.4s-.94-.18-.94-.4.42-.4.94-.4S166.21,241.84,166.21,242.06Z"/><path class="cls-13" d="M165.28,243.27c0,.23-.54.41-1.21.41s-1.2-.18-1.2-.41.54-.42,1.2-.42S165.28,243,165.28,243.27Z"/><path class="cls-13" d="M166.91,244.58c0,.11-.16.19-.35.19s-.35-.08-.35-.19.15-.19.35-.19S166.91,244.48,166.91,244.58Z"/></g></g></g></svg>