<svg id="Layer_1" data-name="Layer 1" xmlns="http://www.w3.org/2000/svg" xmlns:xlink="http://www.w3.org/1999/xlink" viewBox="0 0 287.78 231.46"><defs><style>.cls-1{fill:none;}.cls-2{fill:#fff;opacity:0.54;}.cls-3{fill:#374264;}.cls-4{fill:#3d548b;}.cls-5{fill:#5b75aa;}.cls-6{fill:#b464ae;}.cls-7{clip-path:url(#clip-path);}.cls-8{fill:#77a045;}.cls-9{fill:#adc86d;}.cls-10{fill:#adc671;}.cls-11{fill:#16733f;}.cls-12{fill:#8bb760;}.cls-13{fill:#efd8ac;}.cls-14{opacity:0.65;}.cls-15{fill:#8b512b;}.cls-16{fill:#ed436c;}.cls-17{fill:#ff6997;}.cls-18{fill:#fff1f0;}.cls-19{fill:#9e203d;}.cls-20{fill:#ffb466;}.cls-21{fill:#fdf5e8;}.cls-22,.cls-23{fill:#e8ddcc;}.cls-22{opacity:0.6;}.cls-24{fill:#332e1a;}.cls-25{fill:#191705;}.cls-26{fill:#c1d87a;}.cls-27{fill:#e7ffa1;}.cls-28{fill:#2d2b1d;}.cls-29{fill:#474330;}.cls-30{fill:#ff7730;}.cls-31{fill:#ff9830;}.cls-32{fill:#ff6930;}.cls-33{fill:#ff9239;}.cls-34{fill:#ff5130;opacity:0.74;}.cls-35{fill:#6c487f;}.cls-36{fill:#c367c5;}.cls-37{fill:#f080f2;}.cls-38{fill:#eac7e4;}.cls-39{fill:#552610;}.cls-40{fill:#779f3b;}.cls-41{fill:#d6ee8a;}.cls-42{fill:#5c8738;}.cls-43{fill:#bfd75b;}.cls-44{fill:#fffad3;}.cls-45{fill:#ffe67f;}.cls-46{fill:#d4d2d2;}.cls-47{fill:#fdfdff;}.cls-48{fill:#ffca51;}.cls-49{fill:#dd902a;opacity:0.43;}</style><clipPath id="clip-path"><path class="cls-1" d="M278.49,53.54c-4-5.44-4.89-13.33-4.64-20.26A12.32,12.32,0,0,0,256,21.91l-.43.22c-7.74,4-25.51,10.05-25.51,10.05s-1.89-12-8.89-16.24-21.65,8.9-21.65,8.9S196.77,4.26,190.63.48s-21.26,15.85-21.26,15.85-16-12.45-26.28-12S126.46,14,126.46,14s-9.66-12.37-24.62-3.29c-3,1.84-9-.32-11.67-1a20.06,20.06,0,0,0-4.36-.52C81.92,9.2,75,13.68,67.32,12.47c-34-5.42-41.36,7-41.36,7C16.54,21.56-13.32,64.76,6.85,84.75,19.18,97,14.59,108,19.44,107.11a2.49,2.49,0,0,1,2.83,1.83h0a21.85,21.85,0,0,1,25.23,0c16.24,11.49,51.84,21.18,98.37,21.18,61.3,0,103.65-16.82,107.72-32.43.2-.75,17,8.69,17.06,7.92,0-.09,8.38-6.15,8.47-6.18C281.93,98.44,297.49,79.24,278.49,53.54Z"/></clipPath></defs><circle class="cls-2" cx="143.89" cy="118.58" r="112.88" transform="translate(-41.7 136.48) rotate(-45)"/><path class="cls-3" d="M96.31,183.56l-.48,3.92A13.84,13.84,0,0,0,106,202.54a147.51,147.51,0,0,0,37.52,4.61,184,184,0,0,0,37.4-3.71,13.85,13.85,0,0,0,10.88-15.7l-.66-4.18S158,203.73,96.31,183.56Z"/><path class="cls-4" d="M259.28,93.52c-.08,1.83-.2,3.67-.38,5.46a105,105,0,0,1-14.39,43.66c-19.56,32.75-56.41,54.82-98.63,54.82-42.42,0-79.42-22.26-98.9-55.26a107.49,107.49,0,0,1-7.75-16.06A103.88,103.88,0,0,1,32.86,99c-.2-1.79-.31-3.63-.39-5.46C35,72.17,84.82,55.14,145.88,55.14S256.74,72.17,259.28,93.52Z"/><path class="cls-3" d="M146.27,150.77a244,244,0,0,1-107-24.63A107.49,107.49,0,0,0,47,142.2a255.12,255.12,0,0,0,99.29,19.94,255.27,255.27,0,0,0,98.24-19.5,103.67,103.67,0,0,0,7.82-16A244.16,244.16,0,0,1,146.27,150.77Z"/><path class="cls-5" d="M259.39,95.25A14.89,14.89,0,0,1,258.9,99c-5.34,20.41-53.89,36.37-113,36.37S38.19,119.4,32.85,99a14.44,14.44,0,0,1-.49-3.74,12.56,12.56,0,0,1,.11-1.73C35,72.17,84.82,55.13,145.87,55.13s110.86,17,113.41,38.39A12.56,12.56,0,0,1,259.39,95.25Z"/><path class="cls-6" d="M145.87,130.13c-61.3,0-103.64-16.82-107.71-32.41a9.59,9.59,0,0,1-.33-2.47,7,7,0,0,1,.06-1c2-16.41,45.8-33.86,108-33.86s106,17.45,108,33.74a7.05,7.05,0,0,1,.08,1.14,9.33,9.33,0,0,1-.33,2.45C249.52,113.31,207.17,130.13,145.87,130.13Z"/><g class="cls-7"><path class="cls-8" d="M185.05,88.06s1.57-6.8-.94-21.91,2.28-36.32,38.74-38.91c0,0,5.55,21.1-5.33,34.92s-20.22,11.21-31,26.55Z"/><path class="cls-9" d="M185.05,88.06S194.64,47.27,222,28c0,0-27,23.63-35.39,60.73Z"/><path class="cls-8" d="M84.75,82.07s-2.87-6.14-3.54-21S71.7,27,36.53,31.94c0,0-1,21.17,12.13,32.1S70.13,70.6,83.43,83Z"/><path class="cls-9" d="M84.75,82.07S67.38,45.26,37.53,32.46c0,0,30.46,17,45.9,50.54Z"/><path class="cls-8" d="M130.35,90.86s.53-7.43,7.86-22,9.11-37.76-27.27-51.88c0,0-12.3,19.77-5.55,37.29S122.47,72,128.59,91.05Z"/><path class="cls-9" d="M130.35,90.86s3.06-44.62-18.73-72.9c0,0,20.14,32.62,17,73.09Z"/><path class="cls-10" d="M203.19,102.59s-3.32-20.84.59-26,5.76.45,7.65-1.08-.68-15.3,3.17-18,4.69,1.87,6.85.72,2.53-12.38,7-13,4.38,3.6,6.54,2.45,7.21-13.22,10.37-13.26,3,3.57,5.43,2.6,8.14-8.1,14.77-2.92-6.09,16.68-5.83,18.54,4.28,1.93,3.86,4.94-16,5-15.9,6.88,6.18,2,4.44,6.06-15.89,4.62-15.79,6.5,6.59,1.61,5.46,5.56-16.37,5.05-16.91,7.23,6.38-1.11,5.69,4.48-25.08,9.41-25.08,9.41Z"/><path class="cls-8" d="M201.45,108.54a55.41,55.41,0,0,1,4-11.46,75.25,75.25,0,0,1,6-10.43A82.71,82.71,0,0,1,219,77.32c1.41-1.42,2.81-2.85,4.3-4.19s3-2.65,4.52-3.89q9.09-7.55,17.66-15.71c5.71-5.44,11.28-11,16.56-16.87v0a.63.63,0,0,1,.88,0,.62.62,0,0,1,0,.88c-5.24,6-10.74,11.64-16.4,17.19s-11.5,10.89-17.52,16c-1.53,1.28-2.95,2.6-4.41,3.9s-2.78,2.73-4.13,4.13a80.71,80.71,0,0,0-7.23,9.17,73.84,73.84,0,0,0-5.65,10.18A52.83,52.83,0,0,0,204,109l0,.09a1.29,1.29,0,0,1-2.53-.52Z"/><path class="cls-10" d="M173.92,108S159,93.08,159.12,86.58s4.93-3,5.57-5.36-9.53-12-8-16.4,4.9-1.23,6-3.43-5.22-11.51-2-14.6,5.66.34,6.74-1.85-1.92-14.94.62-16.82S172.61,29.23,174,27s1.84-11.34,10.25-11,4.85,17.08,6.15,18.43,4.6-.94,6,1.74-10,13.4-8.85,14.9,6.16-2,7.15,2.31-10.16,13.06-9,14.53,6.29-2.57,7.69,1.29S183.12,82.9,184,85s4.52-4.64,7.23.28-14.79,22.34-14.79,22.34Z"/><path class="cls-8" d="M176,113.85a55.38,55.38,0,0,1-3.46-11.64,76.44,76.44,0,0,1-1.27-12,82.79,82.79,0,0,1,.66-12c.31-2,.6-4,1-5.91s.88-3.92,1.39-5.81q2.92-11.45,5.08-23.08c1.43-7.75,2.66-15.56,3.52-23.38h0a.63.63,0,0,1,.69-.56.62.62,0,0,1,.55.68c-.75,7.9-1.87,15.74-3.2,23.54S178.06,59.29,176.2,67c-.49,1.93-.86,3.83-1.29,5.74s-.64,3.84-.91,5.77a79.76,79.76,0,0,0-.48,11.66,73.43,73.43,0,0,0,1.39,11.56,53.82,53.82,0,0,0,3.41,11l0,.09a1.29,1.29,0,0,1-2.35,1.06Z"/><path class="cls-10" d="M87.55,116.7s-2.55-21-7.74-24.87-5.41,2-7.65,1.08-3.56-14.9-8-16.39-4,3.1-6.39,2.59S51.94,67.9,47.52,68.53s-3.22,4.67-5.61,4.16S31.33,62,28.29,62.8s-1.94,4.27-4.51,4-10-5.54-15,1.27S19.23,82.41,19.49,84.27s-3.58,3-2.35,5.81,16.72.4,17.19,2.23-5.41,3.59-2.6,7,16.55.06,17,1.9-5.9,3.36-3.72,6.85,17.13.34,18.25,2.29-6.44.69-4.24,5.87,26.71,2.14,26.71,2.14Z"/><path class="cls-8" d="M90.87,121.94a55.57,55.57,0,0,0-7-9.91,75.89,75.89,0,0,0-8.63-8.38,83.78,83.78,0,0,0-9.84-6.88c-1.75-1-3.49-2-5.29-2.84s-3.62-1.72-5.42-2.49Q43.83,86.69,33.34,81.2c-7-3.65-13.88-7.5-20.57-11.65h0a.63.63,0,0,0-.86.2.64.64,0,0,0,.19.86c6.69,4.28,13.54,8.23,20.51,12s14,7.3,21.27,10.59c1.82.81,3.54,1.69,5.31,2.53s3.42,1.87,5.11,2.84a81.46,81.46,0,0,1,9.47,6.82A73.61,73.61,0,0,1,82,113.61a53.87,53.87,0,0,1,6.55,9.46l0,.08a1.29,1.29,0,1,0,2.29-1.2Z"/><path class="cls-11" d="M118.37,108.11a242.15,242.15,0,0,1,1.94-27.85C122.18,66.61,114,40.62,94,33.37S63.83,49.35,72,69.59s35.69,38.16,39.47,41.49Z"/><path class="cls-12" d="M113.06,114.3s5.78-1.44,7.2-3.09a299.47,299.47,0,0,1-17.15-31.87c-7-15.77-13.55-31.55-17.74-39.46,0,0,6.21,16.95,9.88,27.35s8.23,22.9,10.85,30.86A122.35,122.35,0,0,0,113.06,114.3Z"/><path class="cls-12" d="M105.18,41.29a88,88,0,0,0-8,24.5"/><path class="cls-12" d="M114.9,59.59s-9.05,12.6-10.16,23.29"/><path class="cls-12" d="M117.61,76.45s-5.14,13.34-5.89,20.06"/><path class="cls-12" d="M94.42,64.9c-.19-.53-10.74-9.07-21-15"/><path class="cls-12" d="M100.28,81.38A102.68,102.68,0,0,0,77.16,68.6"/><path class="cls-12" d="M106.5,95.85A85.85,85.85,0,0,0,84.4,83.6"/><path class="cls-11" d="M151.4,105.81a244.46,244.46,0,0,1,13.21-24.6c7.32-11.67,10.5-38.74-4.68-53.53s-34.11,2.15-35,24,16.85,49.46,18.94,54Z"/><path class="cls-12" d="M144,109.28s5.87,1,7.85.14a298.91,298.91,0,0,1-2.55-36.1c.06-17.27.61-34.34,0-43.27,0,0-1.31,18-2.24,29s-1.9,24.26-2.78,32.59A123.08,123.08,0,0,0,144,109.28Z"/><path class="cls-12" d="M166.83,39.47a88.07,88.07,0,0,0-17.38,19.05"/><path class="cls-12" d="M168.18,60.15s-13.43,7.77-18.84,17.06"/><path class="cls-12" d="M163.71,76.64s-10.16,10-13.61,15.86"/><path class="cls-12" d="M147.32,56.58c.05-.56-6.06-12.68-13-22.27"/><path class="cls-12" d="M145.89,74a102.49,102.49,0,0,0-15.82-21.15"/><path class="cls-12" d="M145.61,89.76A85.74,85.74,0,0,0,130.5,69.51"/><path class="cls-9" d="M176.6,62.54l-.39-.27a9.14,9.14,0,0,0,.29-4.89c-.6-2.57-2.78-3.4-2.19-4.26s1.62-.09,1.62-.09-1.46-3.15,0-3.62,2.17,3.5,2.17,3.5.24-1.68,1.15-1.11-1.47,4.41-1.39,6.51a19,19,0,0,0,2.35-4.6c.76-2.39-1-4.84-.22-5.54s1.69,1.12,1.69,1.12.14-3.82,1.81-3.28-.54,4.2-.54,4.2,2.27-1.33,2.37,0-3,1.76-4.1,3.85-2.49,4.36-2.49,4.36a4,4,0,0,0,2.39-1.78c1-1.53.79-2.82,2.06-2.9.77-.06.8,1.78.8,1.78s2.77-2.38,3.64-.74c1,1.87-2.7,2.24-2.7,2.24s1.81.79,1.08,1.93-5.2-.19-6.82.43S176.6,62.54,176.6,62.54Z"/><path class="cls-13" d="M167.71,67.36a19.46,19.46,0,0,0-.22,5.79c.42,2.55-.8,3-4.33,2.1s-3.61-1.91-2-4a10.49,10.49,0,0,0,1.95-4.64S158.74,69,157,65.51s2.41-11.23,10.54-9.11c9.71,2.54,8.87,11.13,5.75,12.76S167.71,67.36,167.71,67.36Z"/><g class="cls-14"><path class="cls-15" d="M163.13,66.6s.77-3.28-2-3.85S158,66.75,163.13,66.6Z"/><path class="cls-15" d="M167.57,67.32s.94-3.25,3.67-2.36S172,69.94,167.57,67.32Z"/></g><path class="cls-16" d="M169.87,88.23c-5,11.71-29.93-7.15-23.78-18.62C151.82,58.93,176,74.06,169.87,88.23Z"/><path class="cls-17" d="M170.22,87.48c-4,10.88-27.69-8.3-22.65-18.9C152.27,58.7,175.08,74.31,170.22,87.48Z"/><path class="cls-18" d="M150.48,79.79c-1.68-2.42-4.21-7.06-2.36-11a4.66,4.66,0,0,1,4.11-2.75c4.65-.38,11.29,3.67,15.12,9.2,2.83,4.09,3.65,8.34,2.3,12a4,4,0,0,1-3.36,2.8C162,90.62,154.71,85.91,150.48,79.79Z"/><path class="cls-16" d="M160.82,78.64l16.56-10L200,54.88l5.43-3.3,10.47-6.35,8.51-5.15c7.11,3,12.73,35.82-17.56,49.22C173.94,103.86,160.82,78.64,160.82,78.64Z"/><path class="cls-19" d="M166.83,75l10.55-6.4h0L200,54.88l5.43-3.3h0l10.47-6.35s13.32,23.11-10.6,36.25S166.83,75,166.83,75Z"/><path class="cls-16" d="M177.38,68.6h0L200,54.88l5.43-3.3h0a2.41,2.41,0,0,1,2,1.38,3.3,3.3,0,0,1-.34,3.11,8.21,8.21,0,0,0-.72,1.12c-.95,2.18,1.94,5,.45,6.84-1,1.18-3,.84-4,1.92-.9.91-.72,2.42-1.26,3.59-.89,2-3.52,2.46-5.67,2.14-1-.14-2.16-.32-2.78.45a7.19,7.19,0,0,0-.52,1.08,2.3,2.3,0,0,1-2.47,1.17A3.35,3.35,0,0,1,186,72.93a2.1,2.1,0,0,0-.52-.8c-.55-.41-1.3,0-1.93.26a4.41,4.41,0,0,1-6.17-3.79Z"/><path class="cls-20" d="M176.94,73.33c-1.39-.86-4.79,2.55-3.23,3.85S178.33,74.2,176.94,73.33Z"/><path class="cls-20" d="M187.45,76.93c-1.61-.29-3.5,4.14-1.57,4.77S189.06,77.22,187.45,76.93Z"/><path class="cls-20" d="M196.05,75.26c-1.45.75-.25,5.41,1.67,4.74S197.5,74.5,196.05,75.26Z"/><path class="cls-20" d="M205.11,71c-.84,1.41,2.64,4.74,3.92,3.15S206,69.64,205.11,71Z"/><path class="cls-20" d="M210.44,64.49c0,1.64,4.72,2.66,5,.64S210.42,62.85,210.44,64.49Z"/><path class="cls-20" d="M210.88,55.51c.88,1.38,5.41-.26,4.56-2.11S210,54.13,210.88,55.51Z"/><path class="cls-19" d="M142.93,70.14a18.29,18.29,0,0,1-.41,5.16c-1.27,5.56-7.65,8.66-14.74,6.64-4.44-1.27-6.06-5-6.65-7.55,0,.29,0,.57,0,.87,0,5.88,5.21,10.64,11.63,10.64s11.64-4.76,11.64-10.64A9.94,9.94,0,0,0,142.93,70.14Zm-38.56,2.45a10.67,10.67,0,0,1-3.11-7.91,9.32,9.32,0,0,0-.57,3.22c0,5.62,5,10.18,11.13,10.18A11.41,11.41,0,0,0,121,73.63a11.59,11.59,0,0,1-.19-1.94C118.77,73.5,110,77.94,104.37,72.59Z"/><path class="cls-19" d="M104.42,70.52c.11.32-1.86-6.1,5.32-9.36s7,1.57,9.87,0-1.33-7.77,8.19-9.91S141.34,59,138.64,62.51c0,0,5.62-4.39-.12-10.58s-17.11-7.09-21,5c0,0-8.45-2.36-12.61,2.81S104.42,70.52,104.42,70.52Z"/><path class="cls-16" d="M132.54,82.77c-6.24,0-11.4-4.11-12.12-9.41a12.66,12.66,0,0,1-7.61,2.46c-6.46,0-11.72-4.61-11.72-10.27s5.26-10.26,11.72-10.26a13.29,13.29,0,0,1,3.62.5c1.16-5.27,6.45-9.19,12.75-9.19,7.17,0,13,5.09,13,11.36a10.22,10.22,0,0,1-1.88,5.88,10.18,10.18,0,0,1,4.45,8.25C144.75,78,139.28,82.77,132.54,82.77ZM121.78,69a1.22,1.22,0,0,1,1.2,1.5,6.65,6.65,0,0,0-.19,1.59c0,4.53,4.38,8.22,9.75,8.22s9.75-3.69,9.75-8.22a8,8,0,0,0-4.4-6.87,1.24,1.24,0,0,1-.32-1.9A7.93,7.93,0,0,0,139.72,58c0-4.91-4.73-8.9-10.54-8.9-5.62,0-10.24,3.71-10.51,8.46A1.22,1.22,0,0,1,117,58.58a10.68,10.68,0,0,0-4.15-.83c-5.11,0-9.26,3.5-9.26,7.8s4.15,7.81,9.26,7.81a9.64,9.64,0,0,0,8-3.84A1.23,1.23,0,0,1,121.78,69Z"/><path class="cls-21" d="M105.34,78.89a2.62,2.62,0,0,1-1.11,2.23,34.38,34.38,0,0,1-8,4,3.53,3.53,0,0,1-.78.18,4.28,4.28,0,0,1-.8,0,3.62,3.62,0,0,1-.73-.14,26.83,26.83,0,0,1-6.48-2.89,2.56,2.56,0,0,1-1.13-1.81c-.24-1.6-.64-4.55-.75-6.8a2.71,2.71,0,0,1,.31-1.41l.12-.21a2.52,2.52,0,0,1,.81-.78,50.13,50.13,0,0,1,6.2-3A5.07,5.07,0,0,1,96.12,68a42.39,42.39,0,0,1,7.1,2.23,2.36,2.36,0,0,1,1,.85,1.9,1.9,0,0,1,.2.37,2.36,2.36,0,0,1,.21.65A39.86,39.86,0,0,1,105.34,78.89Z"/><path class="cls-22" d="M105.34,78.89a2.62,2.62,0,0,1-1.11,2.23,34.38,34.38,0,0,1-8,4,3.53,3.53,0,0,1-.78.18,4.28,4.28,0,0,1-.8,0c-1.36-3.69.2-9.61.2-9.61l9.57-4.31a2.36,2.36,0,0,1,.21.65A39.86,39.86,0,0,1,105.34,78.89Z"/><path class="cls-21" d="M104.22,71.06a48,48,0,0,1-7.74,4.3,4.08,4.08,0,0,1-2.71.26,36.87,36.87,0,0,1-7.9-3.32,2.46,2.46,0,0,1,.93-1,50.13,50.13,0,0,1,6.2-3A5.07,5.07,0,0,1,96.12,68a42.39,42.39,0,0,1,7.1,2.23A2.36,2.36,0,0,1,104.22,71.06Z"/><path class="cls-23" d="M95.45,85.34a3.78,3.78,0,0,1-1.53-.13,26.83,26.83,0,0,1-6.48-2.89,2.56,2.56,0,0,1-1.13-1.81c-.24-1.6-.64-4.55-.75-6.8a2.71,2.71,0,0,1,.31-1.41l.12-.21,8.86,3.65Z"/><path class="cls-24" d="M112.88,88.38c5.74,1.36,11.69-12.18,3-12.91C107.64,74.78,107.91,87.21,112.88,88.38Z"/><path class="cls-25" d="M113.89,77.57c.47-1.32,4.56-.52,4.41,1S113.3,79.25,113.89,77.57Z"/><path class="cls-26" d="M89.24,96.32C58.39,81.46,64.93,58.83,64.93,58.83l2.71,1,12.44,4.56a1.82,1.82,0,0,1,.61.37,2,2,0,0,1,.56.91C82,68.56,85,77.29,92.56,79.43A15.92,15.92,0,0,0,106.64,77a1.88,1.88,0,0,1,1.14-.38,2.06,2.06,0,0,1,.77.18l20.31,9.44,3.91,1.82S120.09,111.16,89.24,96.32Z"/><path class="cls-27" d="M87.92,81.64C79.46,76.42,80,68.16,80.69,64.76a2,2,0,0,1,.56.91C82,68.56,85,77.29,92.56,79.43A15.92,15.92,0,0,0,106.64,77a1.88,1.88,0,0,1,1.14-.38C104.5,82,96.1,86.71,87.92,81.64Z"/><path class="cls-12" d="M89.24,96.32C58.39,81.46,64.93,58.83,64.93,58.83l2.71,1c-.8,6.35-.41,21.9,19.53,32.23,21.89,11.35,36.26,4,41.69-5.83l3.91,1.82S120.09,111.16,89.24,96.32Z"/><path class="cls-16" d="M47.8,61.69,60.26,73.11l17,15.58,4.09,3.74,7.88,7.22,6.4,5.86c-.74,6.67-26.89,19.41-45.5-2.67C29.89,78.84,47.8,61.69,47.8,61.69Z"/><path class="cls-19" d="M52.32,65.84l7.93,7.27h0l17,15.58,4.09,3.74h0l7.88,7.22s-16.09,16.79-32.94,0S52.32,65.84,52.32,65.84Z"/><path class="cls-16" d="M60.25,73.11h0l17,15.58,4.09,3.74h0a2.08,2.08,0,0,1-.66,2,2.83,2.83,0,0,1-2.68.47,7.17,7.17,0,0,0-1.12-.32c-2-.26-3.69,2.84-5.61,2-1.22-.5-1.43-2.27-2.59-2.89-1-.53-2.2,0-3.31-.18-1.88-.26-2.92-2.35-3.18-4.22-.12-.86-.26-1.9-1.06-2.22a5.68,5.68,0,0,0-1-.17,2,2,0,0,1-1.58-1.78,2.92,2.92,0,0,1,.21-3.81,1.91,1.91,0,0,0,.54-.63c.2-.56-.32-1.09-.69-1.55a3.85,3.85,0,0,1,1.66-6.09Z"/><path class="cls-20" d="M56.18,73.89c.39-1.37-3.3-3.38-4-1.75S55.8,75.27,56.18,73.89Z"/><path class="cls-20" d="M55.74,83.57c-.15-1.42-4.32-1.91-4.38-.14S55.89,85,55.74,83.57Z"/><path class="cls-20" d="M59.24,90.37c-1-1-4.59,1.11-3.56,2.55S60.23,91.4,59.24,90.37Z"/><path class="cls-20" d="M65,96.92c-1.39-.36-3.32,3.37-1.69,4S66.37,97.28,65,96.92Z"/><path class="cls-20" d="M71.78,99.78c-1.37.42-1.08,4.6.67,4.33S73.14,99.37,71.78,99.78Z"/><path class="cls-20" d="M79.4,98c-.94,1.08,1.54,4.47,2.88,3.3S80.34,96.87,79.4,98Z"/><path class="cls-8" d="M223,108.75s3.34-5.9,5.16-20.67S240.26,54.87,275,62.49c0,0-.64,21.19-14.58,31.07s-21.92,4.88-36.14,16.21Z"/><path class="cls-9" d="M223,108.75s20.16-35.36,50.92-45.81c0,0-31.69,14.57-49.68,46.83Z"/><path class="cls-28" d="M220.33,78.44a4.09,4.09,0,0,1,1.59-1.77c-.23,2.29.4,5.42,4.59,7.12a7.87,7.87,0,0,0,7.93-1.15,5.57,5.57,0,0,1-.16,1.65C232.51,91.42,216.73,86.24,220.33,78.44Z"/><path class="cls-28" d="M223.92,78.51s5.17.11,8.29,3.43c0,0,3.33-1.64-1.5-5.13S222.21,76.79,223.92,78.51Z"/><path class="cls-28" d="M235.37,82.34a17.42,17.42,0,0,1-2.06,3.78C232,88,219.94,79.56,219.94,79.56a12,12,0,0,1,1.91-3.81c1.39-1.78-.28,2.19,1,4.25s5,3.78,7,4S235.37,82.34,235.37,82.34Z"/><path class="cls-29" d="M235.37,82.34c1.83-7.37-11.36-11.45-14-5.86C217.81,84.29,233.59,89.46,235.37,82.34Zm-4.48.32c-2.39.34-5.64-1-6.68-2.85a2,2,0,0,1-.05-2.06c.32-.71,1.48-.83,2-.86,2.32-.1,5.09,1.19,6.05,2.84a2.38,2.38,0,0,1,.26,1.88C232.37,81.89,232.23,82.47,230.89,82.66Z"/><path class="cls-21" d="M224.19,87a2.63,2.63,0,0,1-1.12,2.24,34.78,34.78,0,0,1-8,4,4.92,4.92,0,0,1-.78.18,3.57,3.57,0,0,1-.8,0,3.91,3.91,0,0,1-.73-.14,27.31,27.31,0,0,1-6.48-2.88,2.58,2.58,0,0,1-1.13-1.81c-.23-1.61-.64-4.55-.75-6.81a2.83,2.83,0,0,1,.31-1.41l.12-.2a2.42,2.42,0,0,1,.81-.78,49.13,49.13,0,0,1,6.2-3.06,5.22,5.22,0,0,1,3.12-.28,42,42,0,0,1,7.11,2.24,2.27,2.27,0,0,1,1,.85,2.6,2.6,0,0,1,.21.36,3.53,3.53,0,0,1,.21.65A42.18,42.18,0,0,1,224.19,87Z"/><path class="cls-22" d="M224.19,87a2.63,2.63,0,0,1-1.12,2.24,34.78,34.78,0,0,1-8,4,4.92,4.92,0,0,1-.78.18,3.57,3.57,0,0,1-.8,0c-1.36-3.68.21-9.6.21-9.6l9.57-4.32a3.53,3.53,0,0,1,.21.65A42.18,42.18,0,0,1,224.19,87Z"/><path class="cls-21" d="M223.06,79.15a47.83,47.83,0,0,1-7.73,4.29,4.18,4.18,0,0,1-2.72.27,37,37,0,0,1-7.9-3.33,2.57,2.57,0,0,1,.93-1,49.13,49.13,0,0,1,6.2-3.06,5.22,5.22,0,0,1,3.12-.28,42,42,0,0,1,7.11,2.24A2.27,2.27,0,0,1,223.06,79.15Z"/><path class="cls-23" d="M214.29,93.43a3.82,3.82,0,0,1-1.53-.14,27.31,27.31,0,0,1-6.48-2.88,2.58,2.58,0,0,1-1.13-1.81c-.23-1.61-.64-4.55-.75-6.81a2.83,2.83,0,0,1,.31-1.41l.12-.2,8.87,3.65Z"/><path class="cls-30" d="M139.69,73.68c21.54-.72,20.11,29.82.66,29.87C121.67,103.6,119.91,74.34,139.69,73.68Z"/><path class="cls-31" d="M139.75,74.72c20-.67,18.71,27.74.61,27.79C123,102.55,121.35,75.34,139.75,74.72Z"/><path class="cls-32" d="M139.91,77.76c15.65-.53,14.62,21.67.48,21.71C126.81,99.51,125.53,78.24,139.91,77.76Z"/><path class="cls-33" d="M140,79.88c12.59-.42,11.76,17.43.39,17.46C129.49,97.37,128.46,80.27,140,79.88Z"/><path class="cls-34" d="M140.35,86c3.77-.12,3.53,5.23.12,5.24S136.88,86.11,140.35,86Z"/><path class="cls-16" d="M190.85,91c11.2,6.09-9.84,29.15-20.7,22C160,106.31,177.29,83.63,190.85,91Z"/><path class="cls-17" d="M190.14,90.58c10.46,5-10.79,26.82-20.89,20.84C159.85,105.85,177.46,84.54,190.14,90.58Z"/><path class="cls-18" d="M180.69,109.54c-2.57,1.45-7.42,3.56-11.13,1.36a4.65,4.65,0,0,1-2.36-4.34c.05-4.67,4.68-10.91,10.54-14.23,4.32-2.44,8.64-2.87,12.14-1.2a4,4,0,0,1,2.47,3.6C192.51,99.1,187.16,105.89,180.69,109.54Z"/><path class="cls-26" d="M176.06,98.67c-27.08,20.94-44.4,5-44.4,5l2.1-2,9.64-9.09a2,2,0,0,1,.61-.38,1.91,1.91,0,0,1,1.06-.09c2.93.6,12.05,1.89,17.37-4a15.93,15.93,0,0,0,4.11-13.69,1.78,1.78,0,0,1,.18-1.18,1.64,1.64,0,0,1,.5-.61l17.53-13.94L188.13,56S203.13,77.72,176.06,98.67Z"/><path class="cls-27" d="M162.34,93.29c-8.45,5.22-15.59,1-18.33-1.09a1.91,1.91,0,0,1,1.06-.09c2.93.6,12.05,1.89,17.37-4a15.93,15.93,0,0,0,4.11-13.69,1.78,1.78,0,0,1,.18-1.18C170.11,78.63,170.53,88.24,162.34,93.29Z"/><path class="cls-12" d="M176.06,98.67c-27.08,20.94-44.4,5-44.4,5l2.1-2c5.32,3.55,19.41,10.16,37.57-3C191.26,84.11,191.12,68,184.76,58.73L188.13,56S203.13,77.72,176.06,98.67Z"/><path class="cls-19" d="M189.12,118.55a17.6,17.6,0,0,1-4.32,2.85c-5.17,2.41-11.53-.72-14.29-7.56-1.73-4.28.19-7.82,1.88-9.88-.25.16-.48.32-.72.5-4.64,3.62-5.2,10.65-1.26,15.72s10.91,6.26,15.55,2.65A9.77,9.77,0,0,0,189.12,118.55ZM163.5,89.62a10.7,10.7,0,0,1,4.34-7.3A9.08,9.08,0,0,0,165,83.84c-4.44,3.46-5,10.19-1.21,15a11.39,11.39,0,0,0,9.14,4.51,11.33,11.33,0,0,1,1.42-1.34C171.64,101.55,162.74,97.34,163.5,89.62Z"/><path class="cls-19" d="M165.17,88.4c-.18.28,3.68-5.22,10.66-1.56s3,6.45,6.07,7.8,5.3-5.83,12.84.37,2.18,15.46-2.23,15.47c0,0,6.92,1.74,8.28-6.59S195.88,86,184,90.32c0,0-3.32-8.11-10-8.22S165.17,88.4,165.17,88.4Z"/><path class="cls-16" d="M172.77,118.11c-3.83-4.92-3.75-11.52,0-15.34a12.69,12.69,0,0,1-6.61-4.5c-4-5.1-3.57-12.08.9-15.56s11.33-2.15,15.3,3a13.4,13.4,0,0,1,1.83,3.17c4.87-2.32,11.21-.56,15.08,4.41,4.4,5.66,4,13.39-1,17.24a10.2,10.2,0,0,1-5.79,2.13,10.16,10.16,0,0,1-3.78,8.58C184.06,124.81,176.91,123.43,172.77,118.11Zm4.27-17a1.23,1.23,0,0,1-.46,1.87,6.68,6.68,0,0,0-1.36.83c-3.58,2.78-3.81,8.5-.51,12.74s8.9,5.43,12.48,2.65a8,8,0,0,0,2.72-7.69,1.22,1.22,0,0,1,.31-1,1.21,1.21,0,0,1,1-.4,8,8,0,0,0,5.55-1.6c3.88-3,4.13-9.2.56-13.79-3.45-4.43-9.22-5.79-13.14-3.09a1.22,1.22,0,0,1-1.88-.7,10.63,10.63,0,0,0-1.89-3.79c-3.14-4-8.45-5.16-11.85-2.52s-3.61,8.08-.47,12.11a9.62,9.62,0,0,0,7.92,3.92A1.26,1.26,0,0,1,177,101.16Z"/><path class="cls-35" d="M79.94,100.32s-.41-5.47-4.56-7.56c-2.37-1.18,1.53,4.37,1.53,4.37Z"/><path class="cls-35" d="M50.9,127.12s3,2.9,5.56,2.79C58.76,129.8,52.14,125.74,50.9,127.12Z"/><path class="cls-36" d="M52.92,128.16a7.32,7.32,0,0,1-1.36-1.7,10.37,10.37,0,0,0,10.19-1.13c8.57-5.59,13.31-14.64,15.25-22.82a9.34,9.34,0,0,0-1.5-8.21,7.69,7.69,0,0,1,.88.4C89.62,102,63.93,138.48,52.92,128.16Z"/><path class="cls-37" d="M74.7,92.31C71.84,90.74,68.32,91,64.52,93c-7.89,4.23-15.53,15.31-16.7,24.2-.54,4.13.38,7.44,2.66,9.58,2.71,2.54,6.41,2.67,10.68.38h0C70,122.45,78.69,109,78.74,100.05,78.76,96.45,77.36,93.77,74.7,92.31ZM51.81,125.4c-2.29-2.15-2.4-5.5-2.08-7.93,1.08-8.21,8.41-18.84,15.7-22.75,2.23-1.19,5.48-2.29,8.34-.72,2,1.12,3,3.15,3,6,0,8.23-8.4,21.07-16.56,25.44C56.73,127.37,53.89,127.34,51.81,125.4Z"/><path class="cls-36" d="M53.75,127.13s-6.51-7.55,3.51-21.62S74.71,94.14,74.71,94.14s-6.78-6.72-18.66,7.55S49.74,127,53.75,127.13Z"/><path class="cls-38" d="M74.39,92.87c-12.18-6.69-33.52,24-23.46,33.46C61.94,136.65,87.63,100.15,74.39,92.87ZM76.81,100c0,8.23-8.4,21.07-16.56,25.44-3.52,1.89-6.36,1.86-8.44-.08-2.29-2.15-2.4-5.5-2.08-7.93,1.08-8.21,8.41-18.84,15.7-22.75,2.23-1.19,5.48-2.29,8.34-.72C75.8,95.12,76.82,97.15,76.81,100Z"/><path class="cls-35" d="M252.71,89.09s-2-5.39-6.73-6.32c-2.71-.53,2.78,4,2.78,4Z"/><path class="cls-35" d="M231,124.26s3.85,2.07,6.38,1.23C239.69,124.74,231.89,122.52,231,124.26Z"/><path class="cls-36" d="M233.35,124.73a7.66,7.66,0,0,1-1.84-1.33,10.84,10.84,0,0,0,9.94-4c7.05-8,9.27-18.49,8.91-27.27a9.72,9.72,0,0,0-3.82-7.84,6.72,6.72,0,0,1,1,.16C262.92,88,247.35,132,233.35,124.73Z"/><path class="cls-37" d="M245.18,82.5c-3.33-.77-6.8.47-10.05,3.59-6.75,6.48-11.33,19.79-10,29.07.61,4.3,2.47,7.38,5.38,8.89,3.44,1.79,7.2.88,10.86-2.63h0c7.54-7.25,12.52-23.23,10-32.26C250.42,85.53,248.26,83.23,245.18,82.5Zm-13.73,39.76c-2.91-1.51-3.95-4.85-4.32-7.39-1.23-8.57,3.16-21.34,9.39-27.33,1.91-1.83,4.88-3.85,8.2-3.07,2.36.55,4,2.3,4.75,5.22C251.75,98,247,113.26,240,120,237,122.86,234.09,123.63,231.45,122.26Z"/><path class="cls-36" d="M233.9,123.46s-8.68-5.76-2.56-22.76S245.7,84.34,245.7,84.34,237,79.49,229.05,97.2,229.84,124.5,233.9,123.46Z"/><path class="cls-38" d="M245,83.16c-14.15-3.31-27,33.64-14.19,40.29C244.83,130.74,260.41,86.75,245,83.16Zm4.45,6.53C251.75,98,247,113.26,240,120c-3,2.9-5.89,3.67-8.53,2.3-2.91-1.51-3.95-4.85-4.32-7.39-1.23-8.57,3.16-21.34,9.39-27.33,1.91-1.83,4.88-3.85,8.2-3.07C247.08,85,248.68,86.77,249.47,89.69Z"/><path class="cls-16" d="M121,94.07c10.4-6.22,24,8.2,13.91,17.38C122.92,122.3,105.4,103.39,121,94.07Z"/><path class="cls-39" d="M122.78,98c.76,1.14,4.5-.69,3.85-1.94S122.22,97.13,122.78,98Z"/><path class="cls-40" d="M85.17,97.47l.6-.15a16.2,16.2,0,0,1-.56-2.78c0-.62,1.62-3,.45-7.34s-4.19-5-5.73-4.11-2.51,4.69-.29,7.42a29.07,29.07,0,0,0,4.6,4.33A9.6,9.6,0,0,1,85.17,97.47Z"/><path class="cls-41" d="M85.45,97.4c-.34-1.25-.69-2.49-1-3.73s-.73-2.46-1.16-3.67c-.09-.31-.2-.61-.31-.91s-.22-.6-.34-.9l-.36-.89-.39-.87a19.45,19.45,0,0,0-1.91-3.34,12.15,12.15,0,0,1,2.34,3.12,23.33,23.33,0,0,1,1.56,3.59,32.71,32.71,0,0,1,1,3.76A27.59,27.59,0,0,1,85.45,97.4Z"/><path class="cls-24" d="M48.28,99.8c5.95.66,5,11.12-.82,11.69S41.18,99,48.28,99.8Z"/><path class="cls-25" d="M46.84,101.2c-.3-.86,2.58-.47,2.72.35S47.11,102,46.84,101.2Z"/><path class="cls-13" d="M68.72,110.88A19.07,19.07,0,0,0,71.07,116c1.49,2,.64,3-2.83,3.72s-4-.06-3.48-2.61a10.32,10.32,0,0,0-.35-4.88s-2.74,4-5.84,1.76-2.83-10.82,5.16-12.54c9.55-2.07,12.59,5.77,10.6,8.55S68.72,110.88,68.72,110.88Z"/><g class="cls-14"><path class="cls-15" d="M64.41,112.24s-.77-3.2-3.47-2.45S60.05,114.61,64.41,112.24Z"/><path class="cls-15" d="M68.59,110.91s-.62-3.23,2.15-3.66S73.54,111.26,68.59,110.91Z"/></g><path class="cls-9" d="M151.45,68.07H151a8.32,8.32,0,0,0-2.17-3.85c-1.71-1.65-3.76-1.21-3.74-2.15s1.18-.86,1.18-.86-2.64-1.68-1.73-2.76S147.9,60,147.9,60s-.64-1.39.33-1.4,1,4.06,2.13,5.61a17.32,17.32,0,0,0-.47-4.64c-.59-2.18-3.15-3.15-2.87-4.08s1.83,0,1.83,0-1.77-3-.24-3.37,1.64,3.44,1.64,3.44,1.08-2.11,1.8-1.16-1.41,2.8-1.22,4.92.24,4.52.24,4.52a3.61,3.61,0,0,0,.94-2.52c0-1.65-.78-2.52.14-3.2.56-.42,1.48,1,1.48,1S154.56,56,156,56.8c1.67.93-1,3-1,3s1.76-.29,1.76.92-4,2.4-5,3.66S151.45,68.07,151.45,68.07Z"/><path class="cls-42" d="M166.67,102.58c23.3,14-9.61,54.35-28.83,40.54S146.24,90.27,166.67,102.58Z"/><path class="cls-43" d="M162.25,102.25c23.31,14-9.61,54.35-28.83,40.54S141.83,89.94,162.25,102.25Z"/><path class="cls-44" d="M142.29,144.13a13.4,13.4,0,0,1-8-2.56c-5.57-4-7.27-10.93-4.67-19,3.28-10.19,13.47-21.19,24.21-21.19a14.69,14.69,0,0,1,7.64,2.15c8.59,5.18,7.77,13.52,6.51,18C164.71,133.37,152.46,144.13,142.29,144.13Z"/><path class="cls-45" d="M149.45,113.94a3.34,3.34,0,0,0,0-1.37,2.32,2.32,0,0,0-1.69-1.46,5.57,5.57,0,0,0-4.35.86,3.2,3.2,0,0,0-.94,5.08c.72,1.19,1.7,2.21,2.35,3.43,1,1.85,2.84,2.6,3.72.37C149.29,119.05,149.12,115.9,149.45,113.94Z"/><path class="cls-45" d="M139.66,120.28c-.63-.77-1.46-1.63-2.44-1.46-1.2.21-1.58,1.71-1.71,2.92l-.64,6a7.26,7.26,0,0,0,.17,3.41,2.53,2.53,0,0,0,2.65,1.75,3.56,3.56,0,0,0,2-1.78c.93-1.45,2.89-4,3-5.73S140.73,121.59,139.66,120.28Z"/><path class="cls-45" d="M153.27,114.73a3.46,3.46,0,0,1,1.28-2.16,2.76,2.76,0,0,1,2.61.14,11,11,0,0,1,3.74,3.94,1.43,1.43,0,0,1,.33.84,1.39,1.39,0,0,1-.51.82,16.74,16.74,0,0,1-6.19,3.78,1.88,1.88,0,0,1-1.41.09C151.09,121.21,152.87,116.13,153.27,114.73Z"/><path class="cls-45" d="M145.46,133.17c-.18,1-.17,2.25.72,2.74a2.66,2.66,0,0,0,2-.07c3.89-1.2,8.1-2.69,10.24-6.17a2.15,2.15,0,0,0,.4-1.55c-.2-.78-1.1-1.13-1.88-1.32-2.12-.52-6.38-1.64-8.45-.55S145.82,131.18,145.46,133.17Z"/><path class="cls-28" d="M99.31,99.88a4,4,0,0,1-.74-2.3c1.9,1.38,5,2.42,8.61-.4a8,8,0,0,0,3-7.57,5.68,5.68,0,0,1,1.37,1C117,95.8,104.34,107,99.31,99.88Z"/><path class="cls-28" d="M101.21,96.76s2.73-4.49,7.25-5.54c0,0,.26-3.78-5.29-1.31S98.82,97.39,101.21,96.76Z"/><path class="cls-28" d="M110.42,88.64a17.8,17.8,0,0,1,2.29,3.74c1,2.15-12.61,8.42-12.61,8.42a12.07,12.07,0,0,1-2.37-3.63c-.87-2.12,1.78,1.37,4.25,1.29s5.88-2.48,7.08-4.18S110.42,88.64,110.42,88.64Z"/><path class="cls-29" d="M110.42,88.64c-5.55-5.38-15.88,4.15-12.28,9.29C103.17,105.09,115.79,93.84,110.42,88.64Zm-2,4.1c-.92,2.28-3.8,4.43-5.92,4.43a2,2,0,0,1-1.84-1c-.46-.64,0-1.73.25-2.17,1.1-2.1,3.65-3.88,5.59-3.88a2.45,2.45,0,0,1,1.79.73C108.5,91.05,108.93,91.47,108.42,92.74Z"/><path class="cls-46" d="M130.8,124.67S127,144.85,104.14,142,64.18,112.31,78,96.82Z"/><path class="cls-47" d="M80.14,95.17C63.47,104,104.4,144.43,126.52,130,146.11,117.19,97.52,85.92,80.14,95.17Z"/><path class="cls-48" d="M116.75,119.44c-12.27,6.52-39-12.17-28.27-19.14S127.91,113.51,116.75,119.44Z"/><path class="cls-49" d="M112,114.76c-7.85,3.57-25.35-7.42-18.48-11.27S119.13,111.5,112,114.76Z"/><path class="cls-46" d="M230.27,89s11.89,13.79-2.72,28-42.61,11.36-45.74-6.76Z"/><path class="cls-47" d="M181.86,107.83c-3.05,16.46,47.55,10.36,49.74-13C233.54,74.23,185,90.67,181.86,107.83Z"/><path class="cls-48" d="M218.89,95.84c-2.25,12.1-30,20.36-28.87,9S220.94,84.82,218.89,95.84Z"/><path class="cls-49" d="M213,96.55c-1.85,7.42-19.13,13.49-18,6.6S214.7,89.8,213,96.55Z"/><path class="cls-16" d="M232.65,122.92c-1.43,12.66-30.71,1.84-28.16-10.92C206.87,100.11,234.38,107.58,232.65,122.92Z"/><path class="cls-17" d="M232.77,122.1c-.69,11.57-28.91.09-27.16-11.52C207.23,99.77,233.6,108.08,232.77,122.1Z"/><path class="cls-18" d="M211.65,120.47c-2.31-1.83-6.09-5.54-5.44-9.8a4.66,4.66,0,0,1,3.13-3.82c4.34-1.71,11.87.23,17.15,4.42,3.89,3.09,5.9,6.92,5.68,10.79a4,4,0,0,1-2.41,3.65C225.77,127.5,217.47,125.1,211.65,120.47Z"/><path class="cls-30" d="M186.53,107.54c27.83-.92,26,38.54.86,38.6C163.24,146.21,161,108.4,186.53,107.54Z"/><path class="cls-31" d="M186.61,108.89c25.88-.86,24.17,35.85.79,35.91C164.94,144.86,162.82,109.68,186.61,108.89Z"/><path class="cls-32" d="M186.82,112.81c20.23-.67,18.89,28,.61,28.06C169.88,140.92,168.23,113.43,186.82,112.81Z"/><path class="cls-33" d="M187,115.56c16.27-.54,15.2,22.52.5,22.56C173.35,138.16,172,116.06,187,115.56Z"/><path class="cls-34" d="M187.38,123.45c4.88-.16,4.56,6.76.15,6.77C183.3,130.23,182.9,123.6,187.38,123.45Z"/><path class="cls-16" d="M233.72,103.79c8.75-5.23,20.24,6.91,11.71,14.64C235.36,127.57,220.6,111.64,233.72,103.79Z"/><path class="cls-39" d="M235.24,107.07c.64,1,3.8-.58,3.25-1.64S234.77,106.37,235.24,107.07Z"/></g></svg>