<svg id="Layer_1" data-name="Layer 1" xmlns="http://www.w3.org/2000/svg" viewBox="0 0 23 23"><defs><style>.cls-1{fill:#ffe500;}.cls-2{fill:#003b7e;}</style></defs><circle class="cls-1" cx="11.5" cy="11.5" r="11.5"/><path class="cls-2" d="M8.85,14.55,11.5,11.9l2.65,2.65.4-.4L11.9,11.5l2.65-2.65-.4-.4L11.5,11.1,8.85,8.45l-.4.4L11.1,11.5,8.45,14.15ZM11.5,18A6.31,6.31,0,0,1,9,17.49a6.75,6.75,0,0,1-2.07-1.4A6.83,6.83,0,0,1,5.51,14,6.28,6.28,0,0,1,5,11.5,6.37,6.37,0,0,1,5.51,9,6.71,6.71,0,0,1,6.91,6.9,7,7,0,0,1,9,5.51,6.28,6.28,0,0,1,11.5,5,6.37,6.37,0,0,1,14,5.51,6.52,6.52,0,0,1,17.49,9a6.53,6.53,0,0,1,0,5.06,6.91,6.91,0,0,1-1.39,2.07A6.71,6.71,0,0,1,14,17.49,6.37,6.37,0,0,1,11.5,18Zm0-.56a5.91,5.91,0,0,0,5.94-5.94A5.91,5.91,0,0,0,11.5,5.56,5.91,5.91,0,0,0,5.56,11.5a5.91,5.91,0,0,0,5.94,5.94Z"/></svg>