<svg id="Layer_1" data-name="Layer 1" xmlns="http://www.w3.org/2000/svg" viewBox="0 0 443 219.92"><defs><style>.cls-1{fill:#ea9226;}.cls-2{fill:#f9a330;}.cls-3{fill:#ffe496;}.cls-4{fill:#f73c32;}.cls-5{fill:#fc3a30;}.cls-6{fill:#ff5343;}.cls-7{fill:#f2f1eb;}.cls-8{fill:#e5e4df;}.cls-9{fill:#7a8969;}.cls-10{fill:#6b7a59;}.cls-11{fill:#353566;}.cls-12{fill:#a0c475;}.cls-13{fill:#acd37a;}.cls-14{fill:#bce089;}.cls-15{fill:#968334;}.cls-16{fill:#a08e3f;}.cls-17{fill:#c1ac51;}.cls-18{fill:#ac9c45;}.cls-19{fill:#e08c2a;}.cls-20{fill:#995e2b;}.cls-21{fill:#b27333;}.cls-22{fill:#c48042;}.cls-23{fill:#282851;}.cls-24{fill:#40407a;}.cls-25{fill:#f4c950;}.cls-26{fill:#feda62;}.cls-27{fill:#dd5652;}.cls-28{fill:#db6e6e;}.cls-29{fill:#c2efef;}.cls-30{fill:#aeeeef;}.cls-31{fill:#99e2e2;}.cls-32{fill:#89ccca;}.cls-33{fill:#fff;}.cls-34{fill:#d3c952;}.cls-35{fill:#e5de59;}.cls-36{fill:#ea6868;}.cls-37{fill:#ed2727;}.cls-38{fill:#d81e1e;}.cls-39{fill:#efbf47;}.cls-40{fill:#ea9797;}.cls-41{fill:#f7a8a8;}</style></defs><path class="cls-1" d="M256.67,51.16c-3.38,34.22-33.29,47.59-69,77.81-33.38,28.22-61.45,46-79.51,36.15,17.84,1.9,42.49-14.63,71-38.76,35.73-30.21,65.64-43.59,69-77.81,1.19-12-2.06-18.76-7.54-22.11C250.83,27.41,258.38,33.81,256.67,51.16Z"/><path class="cls-2" d="M248.19,48.55c-3.38,34.22-33.29,47.6-69,77.81-28.55,24.13-53.2,40.66-71,38.76a22.53,22.53,0,0,1-3.67-2.51c-17.8-14.86-.06-38.26-.06-38.26,2.28-22.95,22.22-29.78,22.22-29.78C138.73,65.26,162.4,62,162.4,62c14.71-21.24,47.22-28.1,47.22-28.1,8.75-4.25,21.13-8.44,31-7.49C246.13,29.79,249.38,36.55,248.19,48.55Z"/><path class="cls-1" d="M112.49,124.69c7.17-2,14.46-3.93,21.89-3.8,3.38.06,6.74.55,10.12.66,1.85.06,3.7,0,5.54.19a43.4,43.4,0,0,1,4.53.81l9.8,2.12c.42.1.92.27,1,.69a1,1,0,0,1-.14.59c-1.26,2.5-4,4-6.68,4.69s-5.56.73-8.33,1.18c-2,.33-3.9.86-5.85,1.25a56,56,0,0,1-21.13-.21c-3.49-.65-7-1.53-10.55-1.08a49.49,49.49,0,0,0-7.11,1.92c-2.36.67-4.23,1.25-6.56.46a40.69,40.69,0,0,1,4-6.69C105.63,126.06,109.6,125.48,112.49,124.69Z"/><path class="cls-3" d="M113.91,121.57c7.17-2,14.46-3.93,21.89-3.81,3.39.06,6.75.55,10.12.66,1.85.06,3.71,0,5.54.19a43.4,43.4,0,0,1,4.53.81l9.8,2.13c.42.09.92.26,1,.68a1,1,0,0,1-.15.59c-1.26,2.51-4,4-6.68,4.69s-5.56.73-8.32,1.19c-2,.32-3.9.85-5.86,1.24a56,56,0,0,1-21.12-.21c-3.5-.64-7-1.53-10.56-1.08a52.11,52.11,0,0,0-7.1,1.92c-2.37.67-4.24,1.26-6.56.46a39.92,39.92,0,0,1,4-6.68C107.06,122.93,111,122.35,113.91,121.57Z"/><path class="cls-1" d="M151,105.14c2.63,1.07,5.2,2.32,7.9,3.23a34.43,34.43,0,0,0,35.28-8.89,1.41,1.41,0,0,0,.5-1c0-.43-.44-.72-.83-.9-3-1.44-6.45-.22-9.72.14a18.17,18.17,0,0,1-9.48-1.52c-2.17-1-4.11-2.4-6.18-3.58-11.33-6.45-25.08-4-37.39.29-1.14.4-10.25,4.5-12.63,6.27,1.52,1.32,5.76,1,7.7,1a67.7,67.7,0,0,1,8.54.6A66.75,66.75,0,0,1,151,105.14Z"/><path class="cls-3" d="M153.07,103.69c2.64,1.08,5.21,2.32,7.91,3.23A34.42,34.42,0,0,0,196.25,98a1.44,1.44,0,0,0,.51-1c0-.43-.45-.72-.84-.9-3-1.44-6.44-.21-9.72.15a18.18,18.18,0,0,1-9.48-1.53c-2.17-1-4.11-2.4-6.18-3.58-11.33-6.45-25.59-5.61-37.9-1.32L128,91.43s-1.14,2.54-1.39,3.14a29.45,29.45,0,0,0-6.1,3.15c1.52,1.32,5.76,1,7.7,1a65.9,65.9,0,0,1,8.54.61A66.73,66.73,0,0,1,153.07,103.69Z"/><path class="cls-1" d="M181,68.36c1.24.75,2.43,1.61,3.73,2.25,4.35,2.1,9.45,1.44,14.26,1.14,2.5-.15,5-.19,7.51-.23a15.55,15.55,0,0,1,4.09.28c1.4.34,2.69,1,4.1,1.29,2.41.4,4.83-.61,7-1.77a1.74,1.74,0,0,0,.54-.39c.6-.75-.31-1.77-1.15-2.23-2.94-1.59-6.44-2.41-8.63-4.93-1-1.13-1.64-2.55-2.81-3.47a9.05,9.05,0,0,0-2.37-1.23L202.08,57C198.5,55.5,194.86,54,191,53.57c-5.45-.64-10.9.8-16.3,1.77a33.61,33.61,0,0,0-4.89,1.1A9.69,9.69,0,0,0,166.52,58a58.73,58.73,0,0,0-5.43,6.48s4.34-.33,5-.3A32.29,32.29,0,0,1,181,68.36Z"/><path class="cls-1" d="M216.12,35.91a46.7,46.7,0,0,1,7.19,1.32,35.81,35.81,0,0,1,4.56,1.93,73.76,73.76,0,0,1,9.68,5.29,4,4,0,0,1,1.6,1.67,1.48,1.48,0,0,1-.74,2,2.17,2.17,0,0,1-1.18-.11,64.78,64.78,0,0,1-13.49-5.63c-3.34-1.86-6.63-4.06-10.4-4.69-3-.5-6.13-.57-8.54-2.4,1.52-.5,3.72-1,3.72-1l1.41.36A62.27,62.27,0,0,0,216.12,35.91Z"/><path class="cls-4" d="M373.17,61.1C382.44,20,355.66,9.3,343.6,18.48s-19,13.49-29.28,17-38.75,26.34-30.89,56.27,38.79,31.92,49.35,30.06C346.57,119.4,365.33,95.89,373.17,61.1Zm-40.41,57.29c-9.9,1.74-38.87-.12-46.23-28.17s19.27-49.41,28.94-52.71,16.13-7.33,27.43-15.93S379.28,23,370.6,61.5C363.25,94.1,345.68,116.12,332.76,118.39Z"/><path class="cls-5" d="M368.6,61.82c4.79-21.25-1.28-33.34-9.3-38.12,6,6,9.63,17.41,5.61,35.23-7,30.88-23.61,51.74-35.85,53.89-6,1.05-19.27.72-29.94-6.52,11.09,10,26.94,10.59,33.63,9.41C345,113.56,361.63,92.7,368.6,61.82Z"/><path class="cls-6" d="M329.06,112.82c12.24-2.15,28.89-23,35.85-53.89,4-17.82.4-29.2-5.61-35.23-5.74-3.43-12.48-3.11-16.95.29-10.71,8.15-16.83,12-26,15.1S282,62.46,288.94,89a34.57,34.57,0,0,0,10.18,17.27C309.79,113.54,323.09,113.87,329.06,112.82Z"/><path class="cls-7" d="M370.6,61.5C379.28,23,354.2,13,342.9,21.58s-17.76,12.64-27.43,15.93-36.3,24.67-28.94,52.71,36.33,29.91,46.23,28.17C345.68,116.12,363.25,94.1,370.6,61.5ZM316.36,39.09c9.16-3.12,15.28-7,26-15.1a12.17,12.17,0,0,1,2.24-1.36,18.75,18.75,0,0,0-.79,2.4,37.21,37.21,0,0,0-.86,6.91c-.11,2-.23,4.09-.34,6.13s-.23,4-.51,5.93a30.07,30.07,0,0,1-1.52,6.08,15.36,15.36,0,0,0-1.05,3.42,3.93,3.93,0,0,0,1,3.35l2.09-8.27A33.69,33.69,0,0,0,344,40.75,20.26,20.26,0,0,1,344.1,37a20.84,20.84,0,0,1,1.15-3.21,21.57,21.57,0,0,0,1.2-6.28c.07-1.12.09-2.24.12-3.37,0-.37.19-1.52.2-2.33,11.61-3.25,29.05,8,21.83,40a119.22,119.22,0,0,1-7.54,22.77,9.51,9.51,0,0,0-2.5-5.85c-.53-.55-1.13-1-1.66-1.56-1.9-2-2.8-4.76-4.88-6.52a18,18,0,0,0-11.42-3.58c1.88,3.48,7.92,4.76,10.89,7.13a16.47,16.47,0,0,1,2.3,2.42l2.24,2.7-.19.06c-1,.43-1.14,1.68-1.51,2.68-1.09,2.92-4.48,4.13-6.81,6.19-2,1.8-3.35,4.35-5.44,6.11a10.32,10.32,0,0,1-12.49.32c-2-1.52-3.43-3.79-5.59-5.12s-5.15-1.57-7.77-2.25c-3.33-.87-6.22-4.33-9.34-4.82a5.82,5.82,0,0,0-.75-.09,13,13,0,0,0,6.27-3.08c2.51-2.43,3.45-6.12,6-8.54,2.28-2.19,5.56-3,8.72-3.19,2.15-.1,5.9-.19,8-.28-1.3-3.62-14.27-.18-16.95.78a12.43,12.43,0,0,0-3,1.45,24.73,24.73,0,0,0-4.09,4.33,23.72,23.72,0,0,1-13.44,7.64c-3.25.61-7,.73-9.63,2.44C285.16,59.92,307.79,42,316.36,39.09Zm16.39,76.62c-9.38,1.65-36.83-.11-43.81-26.68-.19-.71-.35-1.42-.49-2.13a6.76,6.76,0,0,0,2.9-.11,47,47,0,0,0,5.15-2.14c2.68-1.05,5.7-1.39,8.56-2-.83.86,2.51,3.72,3.7,4.58A210.49,210.49,0,0,0,326.94,99a14.64,14.64,0,0,0,5.72,2.26c4.14.41,7.77-2.55,10.88-5.32L356,84.89a6,6,0,0,0,2.18-3,8,8,0,0,1,1.11,1.83,6.5,6.5,0,0,0,1.29,2C352.43,103.14,341.47,114.18,332.75,115.71Z"/><circle class="cls-8" cx="338.74" cy="62.14" r="8.02" transform="translate(184.75 370.18) rotate(-73.83)"/><circle class="cls-7" cx="338.74" cy="62.14" r="6.32"/><circle class="cls-4" cx="338.74" cy="62.14" r="4.47"/><path class="cls-8" d="M186.54,141.51l.91,4.44c-8.52,1.57-18.51,2.89-27.3,2.72A129,129,0,0,1,122.7,142l3.37-8.91a325.89,325.89,0,0,0,39.9,3.08,161.18,161.18,0,0,0,37.74-4.08l1.41,3.78A105.2,105.2,0,0,1,186.54,141.51Z"/><path class="cls-8" d="M207.22,141.48s-8.61,2.44-19.77,4.47l-.91-4.44a105.2,105.2,0,0,0,18.58-5.64Z"/><path class="cls-9" d="M187.45,146l1.93,9.44C166.06,160.17,143,157.31,120,149l3.63-9.41c27.36,9.84,54.95,11.34,82.88.05l.72,1.8S198.61,143.92,187.45,146Z"/><path class="cls-6" d="M186.54,141.51c-20.67,4.21-41.17,1.66-61.53-5.68L164.5,33.76Z"/><path class="cls-4" d="M205.21,135.83a105.44,105.44,0,0,1-18.67,5.68l-22-107.75Z"/><path class="cls-10" d="M210.23,149a119.49,119.49,0,0,1-20.85,6.35l-2-9.91a111.58,111.58,0,0,0,19.14-5.8Z"/><path class="cls-11" d="M148.18,98a11.25,11.25,0,0,0,4.46-3.32c1.4-1.75,3.67-4.38,1.73-6.27s-3.17.12-4.24,2.16A30.73,30.73,0,0,0,148.18,98Z"/><path class="cls-11" d="M175.76,129.32a11.24,11.24,0,0,0,2-5.18c.28-2.22.83-5.65-1.81-6.24s-2.64,1.76-2.47,4.07A30.41,30.41,0,0,0,175.76,129.32Z"/><path class="cls-11" d="M162.45,140.79a11.28,11.28,0,0,0,2.05-5.17c.28-2.22.83-5.65-1.81-6.25-2.63-.44-2.64,1.77-2.48,4.08A30.81,30.81,0,0,0,162.45,140.79Z"/><path class="cls-11" d="M164.67,85.29A11.21,11.21,0,0,0,166,79.88c0-2.24,0-5.72-2.7-5.92s-2.35,2.13-1.86,4.39A30.71,30.71,0,0,0,164.67,85.29Z"/><path class="cls-11" d="M172.44,90.76a11.21,11.21,0,0,0,3.86-4c1.1-2,2.92-4.91.7-6.47s-3.11.63-3.84,2.82A30.55,30.55,0,0,0,172.44,90.76Z"/><path class="cls-11" d="M179.35,108.76a11.37,11.37,0,0,0,3.65-4.2c1-2,2.66-5,.37-6.49s-3.08.78-3.69,3A30.13,30.13,0,0,0,179.35,108.76Z"/><path class="cls-11" d="M162.58,65.09a11.2,11.2,0,0,0,3.66-4.19c1-2,2.66-5.06.37-6.5-2.33-1.29-3.08.79-3.69,3A30.47,30.47,0,0,0,162.58,65.09Z"/><path class="cls-11" d="M149.13,133.09a11.26,11.26,0,0,0,3.65-4.19c1-2,2.67-5.06.37-6.49s-3.08.78-3.69,3A30,30,0,0,0,149.13,133.09Z"/><path class="cls-11" d="M162.17,113.57a11.19,11.19,0,0,0,1.33-5.4c0-2.24.07-5.72-2.62-6s-2.39,2.1-1.92,4.36A30.64,30.64,0,0,0,162.17,113.57Z"/><path class="cls-11" d="M192,133.23a11.32,11.32,0,0,0,1.34-5.41c0-2.23.06-5.71-2.63-5.94s-2.38,2.1-1.91,4.36A30.57,30.57,0,0,0,192,133.23Z"/><path class="cls-11" d="M139.89,120.88a11.13,11.13,0,0,0,4.24-3.61c1.3-1.82,3.4-4.59,1.34-6.36s-3.16.32-4.1,2.43A30.4,30.4,0,0,0,139.89,120.88Z"/><path class="cls-12" d="M365,210.68a4.41,4.41,0,0,1-4.41,4.42,4.93,4.93,0,0,1-.55,0,4.42,4.42,0,0,0,0-8.77,4.91,4.91,0,0,1,.55,0A4.41,4.41,0,0,1,365,210.68Z"/><path class="cls-13" d="M363.94,210.68a3.9,3.9,0,1,1-3.87-4.38A4.42,4.42,0,0,1,363.94,210.68Z"/><path class="cls-14" d="M360.86,209.22a1.73,1.73,0,1,1-1.72-1.94A2,2,0,0,1,360.86,209.22Z"/><path class="cls-12" d="M27.9,213.74a4.42,4.42,0,0,1-4.42,4.42,4.75,4.75,0,0,1-.54,0,4.42,4.42,0,0,0,0-8.77,4.75,4.75,0,0,1,.54,0A4.41,4.41,0,0,1,27.9,213.74Z"/><path class="cls-13" d="M26.81,213.74a4.42,4.42,0,0,1-3.87,4.39,4.42,4.42,0,0,1,0-8.77A4.42,4.42,0,0,1,26.81,213.74Z"/><path class="cls-14" d="M23.73,212.28A2,2,0,0,1,22,214.23a2,2,0,0,1,0-3.89A2,2,0,0,1,23.73,212.28Z"/><path class="cls-12" d="M288.32,197.05a2.41,2.41,0,0,1-2.41,2.41l-.3,0a2.41,2.41,0,0,0,0-4.78,1.51,1.51,0,0,1,.3,0A2.4,2.4,0,0,1,288.32,197.05Z"/><path class="cls-13" d="M287.72,197.05a2.13,2.13,0,1,1-2.11-2.39A2.42,2.42,0,0,1,287.72,197.05Z"/><path class="cls-14" d="M286,196.25a.94.94,0,1,1-1.87,0,.94.94,0,1,1,1.87,0Z"/><path class="cls-12" d="M357.25,197.66a2.41,2.41,0,0,1-2.41,2.41l-.3,0a2.41,2.41,0,0,0,0-4.78,1.51,1.51,0,0,1,.3,0A2.41,2.41,0,0,1,357.25,197.66Z"/><path class="cls-13" d="M356.66,197.66a2.13,2.13,0,1,1-2.12-2.39A2.42,2.42,0,0,1,356.66,197.66Z"/><path class="cls-14" d="M355,196.86a.95.95,0,1,1-1.88,0,.95.95,0,1,1,1.88,0Z"/><path class="cls-12" d="M337.23,198.2a4.81,4.81,0,0,1-4.82,4.81,5.68,5.68,0,0,1-.59,0,4.82,4.82,0,0,0,0-9.57,5.68,5.68,0,0,1,.59,0A4.81,4.81,0,0,1,337.23,198.2Z"/><path class="cls-13" d="M336,198.2a4.26,4.26,0,1,1-4.22-4.79A4.83,4.83,0,0,1,336,198.2Z"/><path class="cls-14" d="M332.68,196.6a1.89,1.89,0,1,1-1.87-2.12A2.14,2.14,0,0,1,332.68,196.6Z"/><path class="cls-12" d="M270.06,197.05a4.81,4.81,0,0,1-4.82,4.81l-.6,0a4.82,4.82,0,0,0,0-9.57l.6,0A4.82,4.82,0,0,1,270.06,197.05Z"/><path class="cls-13" d="M268.86,197.05a4.25,4.25,0,1,1-4.22-4.79A4.83,4.83,0,0,1,268.86,197.05Z"/><path class="cls-14" d="M265.51,195.45a1.89,1.89,0,1,1-1.88-2.12A2.14,2.14,0,0,1,265.51,195.45Z"/><path class="cls-12" d="M146.81,215.1a4.82,4.82,0,0,1-4.82,4.82,4,4,0,0,1-.6,0,4.82,4.82,0,0,0,0-9.56,4,4,0,0,1,.6,0A4.82,4.82,0,0,1,146.81,215.1Z"/><path class="cls-13" d="M145.61,215.1a4.25,4.25,0,1,1-4.22-4.78A4.81,4.81,0,0,1,145.61,215.1Z"/><path class="cls-14" d="M142.26,213.51a1.89,1.89,0,1,1-1.88-2.12A2.14,2.14,0,0,1,142.26,213.51Z"/><path class="cls-15" d="M386.16,67.61s13-48.71,21.9-48.69S413,25.59,413,25.59,426.48-1.86,436.5,3.17s-15.31,25.91-15.31,25.91,11-7.37,10.54-.26S395.9,69.46,386.16,67.61Z"/><path class="cls-16" d="M382.81,72.29a.23.23,0,0,1-.16-.06.24.24,0,0,1,0-.34,63,63,0,0,0,7.05-8.77c.38-.6.75-1.23,1.1-1.84.62-1.07,1.27-2.17,2-3.2a38.7,38.7,0,0,1,2.68-3.15c.74-.81,1.5-1.64,2.19-2.51a46.31,46.31,0,0,0,4.14-6.79,57.67,57.67,0,0,1,3.2-5.52,57.56,57.56,0,0,1,7.8-8.61c.88-.85,1.79-1.73,2.67-2.61,3.11-3.13,6.86-7.4,8.21-12.58a.24.24,0,0,1,.46.12c-1.38,5.29-5.18,9.62-8.34,12.79-.88.88-1.79,1.77-2.67,2.62a57,57,0,0,0-7.74,8.54,57.61,57.61,0,0,0-3.18,5.47A46.06,46.06,0,0,1,398,52.71c-.7.88-1.47,1.73-2.22,2.54a37.25,37.25,0,0,0-2.63,3.11,37.2,37.2,0,0,0-2,3.16c-.36.61-.72,1.24-1.1,1.85A65.66,65.66,0,0,1,383,72.21.23.23,0,0,1,382.81,72.29Z"/><path class="cls-16" d="M396.81,53.71h0a.22.22,0,0,1-.22-.24,17.22,17.22,0,0,1,1.81-6.09,18.38,18.38,0,0,0,1.76-5.59c0-.41,0-.84,0-1.25a7.25,7.25,0,0,1,.55-3.23,6.9,6.9,0,0,1,.68-1,8.31,8.31,0,0,0,.65-1,6.88,6.88,0,0,0,.52-2.11c0-.2.05-.4.09-.6a13.17,13.17,0,0,1,1.34-4,.24.24,0,0,1,.32-.1.24.24,0,0,1,.1.32,12.75,12.75,0,0,0-1.3,3.89c0,.2-.06.4-.08.59a7.44,7.44,0,0,1-.57,2.26,7.61,7.61,0,0,1-.69,1,7.05,7.05,0,0,0-.64,1,6.72,6.72,0,0,0-.49,3c0,.42,0,.86-.05,1.28a18.46,18.46,0,0,1-1.8,5.74,16.79,16.79,0,0,0-1.77,5.92A.24.24,0,0,1,396.81,53.71Z"/><path class="cls-16" d="M401.63,46.86a.24.24,0,0,1-.14,0,.24.24,0,0,1-.05-.33A15.77,15.77,0,0,1,409,40.84c.46-.17.93-.31,1.38-.44.6-.18,1.22-.37,1.8-.6a22.94,22.94,0,0,0,5.08-3.13,4.34,4.34,0,0,1,1.07-.64,4.51,4.51,0,0,1,1-.18l.42-.05a6.42,6.42,0,0,0,2-.74,15.42,15.42,0,0,0,3.74-2.78.22.22,0,0,1,.33,0,.24.24,0,0,1,0,.33,15.85,15.85,0,0,1-3.84,2.87,7.17,7.17,0,0,1-2.13.79l-.44,0a3.36,3.36,0,0,0-.86.16,4,4,0,0,0-.93.56,23.86,23.86,0,0,1-5.19,3.2c-.61.24-1.24.43-1.84.61s-.91.27-1.36.43a15.38,15.38,0,0,0-7.29,5.48A.24.24,0,0,1,401.63,46.86Z"/><path class="cls-16" d="M392.08,60a.23.23,0,0,1-.23-.18.24.24,0,0,1,.17-.29,23.86,23.86,0,0,0,6.56-2.37,24.3,24.3,0,0,0,3.72-3l3-2.7a5.62,5.62,0,0,1,1.51-1.09,5.49,5.49,0,0,1,1-.27l.37-.09a13,13,0,0,0,4.25-2.31.24.24,0,1,1,.27.39,13.5,13.5,0,0,1-4.41,2.38l-.38.09a3.72,3.72,0,0,0-2.25,1.25l-3,2.7a23.77,23.77,0,0,1-3.79,3A24.32,24.32,0,0,1,392.14,60Z"/><path class="cls-17" d="M389.54,68.14s21-29.7,26.94-27.48,1.65,5.73,1.65,5.73,16-15.2,21.51-9.3S422.83,50.8,422.83,50.8s9.27-2.25,7.2,2.45S395.67,71.82,389.54,68.14Z"/><path class="cls-16" d="M386.17,70.48a.16.16,0,0,1-.15-.09.17.17,0,0,1,.07-.23A46.41,46.41,0,0,0,393,66c.41-.31.81-.64,1.2-1a25.22,25.22,0,0,1,2.16-1.66A26.78,26.78,0,0,1,399,61.88c.71-.36,1.43-.74,2.11-1.15a33.13,33.13,0,0,0,4.49-3.56,41.8,41.8,0,0,1,3.54-2.94,41.69,41.69,0,0,1,7.43-3.88l2.45-1.1c2.89-1.35,6.48-3.3,8.69-6.47a.16.16,0,0,1,.23,0A.18.18,0,0,1,428,43c-2.25,3.24-5.9,5.21-8.83,6.58l-2.46,1.1a40.61,40.61,0,0,0-7.36,3.85,42.65,42.65,0,0,0-3.51,2.91,33.09,33.09,0,0,1-4.54,3.6c-.69.42-1.42.8-2.13,1.17a25.77,25.77,0,0,0-2.56,1.44,26.3,26.3,0,0,0-2.13,1.65c-.4.33-.8.66-1.21,1a45.44,45.44,0,0,1-7,4.21Z"/><path class="cls-16" d="M400.27,61.4h-.07a.17.17,0,0,1-.09-.22,12.46,12.46,0,0,1,2.74-3.67,12.79,12.79,0,0,0,2.58-3.34c.13-.27.24-.56.35-.84a5.25,5.25,0,0,1,1.17-2,5.34,5.34,0,0,1,.72-.53,4.42,4.42,0,0,0,.68-.5,4.8,4.8,0,0,0,.88-1.3l.21-.38a9.45,9.45,0,0,1,1.91-2.4.17.17,0,0,1,.24,0,.16.16,0,0,1,0,.24,9,9,0,0,0-1.84,2.32l-.21.37a5.2,5.2,0,0,1-.95,1.39,6.14,6.14,0,0,1-.72.54,5.16,5.16,0,0,0-.68.49,5.06,5.06,0,0,0-1.09,1.93c-.11.28-.22.57-.35.85a13.42,13.42,0,0,1-2.64,3.44,12.1,12.1,0,0,0-2.67,3.56A.19.19,0,0,1,400.27,61.4Z"/><path class="cls-16" d="M405.23,58a.17.17,0,0,1-.14-.07.18.18,0,0,1,.05-.24,11.37,11.37,0,0,1,6.49-1.94c.34,0,.69,0,1,0s.91,0,1.37,0a16.56,16.56,0,0,0,4.22-.85,2.69,2.69,0,0,1,.87-.16,3.29,3.29,0,0,1,.7.11l.29.07a4.55,4.55,0,0,0,1.52,0,11.29,11.29,0,0,0,3.22-1,.17.17,0,0,1,.23.09.16.16,0,0,1-.09.22,11.27,11.27,0,0,1-3.31,1,4.92,4.92,0,0,1-1.63,0l-.32-.07a2.25,2.25,0,0,0-.61-.11,2.57,2.57,0,0,0-.78.15,17,17,0,0,1-4.3.87c-.47,0-.95,0-1.4,0s-.69,0-1,0a11.07,11.07,0,0,0-6.29,1.89A.16.16,0,0,1,405.23,58Z"/><path class="cls-16" d="M398.52,64.67a30.21,30.21,0,0,1-3-.21.18.18,0,0,1-.16-.18.18.18,0,0,1,.19-.16,17.3,17.3,0,0,0,5,0,17.55,17.55,0,0,0,3.26-1.08l2.68-1.1a4,4,0,0,1,1.28-.36,3.39,3.39,0,0,1,.72.06l.27,0a9.72,9.72,0,0,0,3.45-.5.16.16,0,0,1,.21.12.16.16,0,0,1-.12.21,9.81,9.81,0,0,1-3.57.51l-.28,0a3.74,3.74,0,0,0-.66,0,3.56,3.56,0,0,0-1.17.34l-2.68,1.09a18.49,18.49,0,0,1-3.32,1.11A11.46,11.46,0,0,1,398.52,64.67Z"/><path class="cls-18" d="M382.6,67.45s-9.25-41.26-2.67-44.69,6.23,3,6.23,3S385.54.16,394.93,0s-1.3,25.2-1.3,25.2,5.31-9.75,7.74-4.29S390.56,65,382.6,67.45Z"/><path class="cls-16" d="M381.84,72.25h0a.2.2,0,0,1-.14-.25,54.2,54.2,0,0,0,1.83-9.26c0-.59.07-1.2.1-1.79a31,31,0,0,1,.24-3.16,31.27,31.27,0,0,1,.76-3.38c.24-.89.48-1.81.65-2.72a38.05,38.05,0,0,0,.44-6.65,48.08,48.08,0,0,1,.23-5.35,48.06,48.06,0,0,1,2.45-9.43c.32-1,.66-2,1-3,1.1-3.55,2.23-8.17,1.21-12.54a.2.2,0,0,1,.15-.24.2.2,0,0,1,.24.15c1,4.46-.11,9.15-1.22,12.74-.31,1-.64,2-1,3a48.59,48.59,0,0,0-2.42,9.36,47.09,47.09,0,0,0-.23,5.3,38,38,0,0,1-.45,6.72c-.17.93-.42,1.86-.65,2.75a28.83,28.83,0,0,0-.75,3.34c-.15,1-.2,2.09-.25,3.12,0,.59-.05,1.2-.1,1.8A54.63,54.63,0,0,1,382,72.1.19.19,0,0,1,381.84,72.25Z"/><path class="cls-16" d="M385,53a.2.2,0,0,1-.18-.11,14.35,14.35,0,0,1-1-5.22,15.45,15.45,0,0,0-.87-4.84c-.13-.32-.3-.64-.45-.95a6.09,6.09,0,0,1-.85-2.61,5.91,5.91,0,0,1,.1-1,6.79,6.79,0,0,0,.1-1,5.75,5.75,0,0,0-.44-1.77l-.16-.48a11.1,11.1,0,0,1-.58-3.52.2.2,0,0,1,.2-.2h0a.2.2,0,0,1,.2.2,10.9,10.9,0,0,0,.55,3.4c.06.15.11.31.17.47a6.07,6.07,0,0,1,.45,1.89,6,6,0,0,1-.1,1,6.65,6.65,0,0,0-.1,1,5.69,5.69,0,0,0,.81,2.44c.16.32.33.65.47,1a15.2,15.2,0,0,1,.89,5,14.26,14.26,0,0,0,1,5.08.2.2,0,0,1-.1.27Z"/><path class="cls-16" d="M385.93,46h0a.21.21,0,0,1-.17-.23,13.32,13.32,0,0,1,3.39-7.12l.85-.86c.38-.36.76-.74,1.11-1.14a19.7,19.7,0,0,0,2.56-4.31,3.27,3.27,0,0,1,.54-.88,3.41,3.41,0,0,1,.64-.51l.29-.2a5.48,5.48,0,0,0,1.18-1.32A12.84,12.84,0,0,0,398,26a.21.21,0,0,1,.25-.13.19.19,0,0,1,.13.25,13.34,13.34,0,0,1-1.74,3.63,6,6,0,0,1-1.27,1.41l-.31.21a3.23,3.23,0,0,0-.57.45,3.63,3.63,0,0,0-.48.78,19.51,19.51,0,0,1-2.61,4.39c-.36.42-.75.8-1.13,1.18s-.57.55-.84.84a12.89,12.89,0,0,0-3.28,6.91A.2.2,0,0,1,385.93,46Z"/><path class="cls-16" d="M383.94,59.5a.2.2,0,0,1-.15-.06.19.19,0,0,1,0-.28,20.27,20.27,0,0,0,3.95-4.32,19.81,19.81,0,0,0,1.6-3.66L390.51,48a4.55,4.55,0,0,1,.7-1.39,4.76,4.76,0,0,1,.61-.58l.23-.21a11,11,0,0,0,2.26-3.36.2.2,0,0,1,.27-.09.19.19,0,0,1,.09.26,11.3,11.3,0,0,1-2.35,3.49l-.25.21a5.71,5.71,0,0,0-.56.53,4.44,4.44,0,0,0-.63,1.27l-1.14,3.17A21.15,21.15,0,0,1,388.1,55a20.65,20.65,0,0,1-4,4.41A.21.21,0,0,1,383.94,59.5Z"/><path class="cls-1" d="M397.61,80.33c-4.83,15.55-60.62,79.92-70.81,71.88a5.37,5.37,0,0,1-1.68-4.19c15.37-2.22,63.22-58.15,67.68-72.5a12.9,12.9,0,0,0-1.64-11.16C396.4,67.94,399.62,73.83,397.61,80.33Z"/><path class="cls-2" d="M392.8,75.52c-4.46,14.35-52.31,70.28-67.68,72.5-.73-16.31,31.26-67.36,41.11-80.57,6.4-8.59,17.62-8.09,24.93-3.09A12.9,12.9,0,0,1,392.8,75.52Z"/><path class="cls-19" d="M363.36,71.9a3.15,3.15,0,0,1,1.56.7c1.1.75,2.18,1.55,3.22,2.38a3.2,3.2,0,0,1,.73.75,2.78,2.78,0,0,1,.23.49,2.6,2.6,0,0,0,.1.25,4.42,4.42,0,0,0,1.28,1.69.38.38,0,0,0,.25.09.39.39,0,0,0,.3-.14.4.4,0,0,0,0-.56,3.8,3.8,0,0,1-1.05-1.4l-.09-.23a4.12,4.12,0,0,0-.29-.6,3.46,3.46,0,0,0-.92-.95c-1.05-.85-2.15-1.66-3.26-2.43a4.37,4.37,0,0,0-1.78-.81c-.15.22-.31.44-.46.68A.36.36,0,0,0,363.36,71.9Z"/><path class="cls-19" d="M394.24,87c-.18,0-.3-.28-.47-.65-.06-.13-.11-.26-.18-.38a4.18,4.18,0,0,0-.67-.85,39.82,39.82,0,0,0-6.83-5.66.4.4,0,0,0-.55.11.39.39,0,0,0,.12.55,39.46,39.46,0,0,1,6.69,5.55,3.21,3.21,0,0,1,.54.68,2.53,2.53,0,0,1,.16.33,1.76,1.76,0,0,0,.87,1.05c.15-.23.28-.46.42-.69Z"/><path class="cls-19" d="M370.89,99.16a.41.41,0,0,0-.28-.45.4.4,0,0,0-.49.27.88.88,0,0,0,.24.8,75.53,75.53,0,0,0,5.48,6,.39.39,0,0,0,.27.11.4.4,0,0,0,.29-.12.4.4,0,0,0,0-.56A70.68,70.68,0,0,1,371,99.27Z"/><path class="cls-19" d="M353.53,103.59a20.53,20.53,0,0,1,3.91,4.26.42.42,0,0,0,.34.19A.39.39,0,0,0,358,108a.4.4,0,0,0,.13-.55,21.17,21.17,0,0,0-4.06-4.43l-6.79-6.14c-.13.23-.27.46-.41.69Z"/><path class="cls-19" d="M356.31,124.38l-.36-.19a4.86,4.86,0,0,1-1.52-1,.39.39,0,0,0-.56,0,.41.41,0,0,0,0,.56,5.39,5.39,0,0,0,1.77,1.2l.34.18a12.28,12.28,0,0,1,4.48,4l.56-.58A12.91,12.91,0,0,0,356.31,124.38Z"/><path class="cls-19" d="M340.52,123.46a.39.39,0,0,0,.23.07.42.42,0,0,0,.33-.17.4.4,0,0,0-.11-.55,59.91,59.91,0,0,1-5.56-4.36l-.37.73A59.33,59.33,0,0,0,340.52,123.46Z"/><path class="cls-19" d="M340,136.89a.41.41,0,0,0-.12.55,30.06,30.06,0,0,0,4.16,5.12.38.38,0,0,0,.28.11.43.43,0,0,0,.28-.11.4.4,0,0,0,0-.56,29.38,29.38,0,0,1-4.05-5A.39.39,0,0,0,340,136.89Z"/><path class="cls-19" d="M334,143.43a.4.4,0,0,0,.32-.16.41.41,0,0,0-.08-.56l-5-3.63a.39.39,0,0,0-.46.64l5,3.63A.34.34,0,0,0,334,143.43Z"/><path class="cls-19" d="M330.52,148.86a.38.38,0,0,0-.55.11.4.4,0,0,0,.11.55,32.73,32.73,0,0,1,3.07,2.3l.79-.37A35.7,35.7,0,0,0,330.52,148.86Z"/><path class="cls-9" d="M296.83,74.73C284.32,65,286.33,40.63,269,34.1a20.64,20.64,0,0,0-8.27-1.7,12.58,12.58,0,0,1-1.35,3c-1.48,2.4-3.52,4.41-5.06,6.77-2.91,4.46-3.86,10-3.53,15.32A60.39,60.39,0,0,0,254.34,73c1.53,4.49,3.24,9.08,2.9,13.81-.25,3.51-1.61,6.83-2.91,10.11a50.84,50.84,0,0,0-3.28,10.74c-2,12.78,5.38,25.65,15.69,33.47,8.45,6.41,18.59,10,28.93,12.65,5.12-2.22,10.85-5.25,12-6.68h0c10.12-7.15,14.64-17,13.14-28.71C318.55,100.63,309.33,84.43,296.83,74.73Z"/><path class="cls-10" d="M266.74,141.13c-10.31-7.82-17.69-20.69-15.69-33.47a50.84,50.84,0,0,1,3.28-10.74c1.3-3.28,2.66-6.6,2.91-10.11.34-4.73-1.37-9.32-2.9-13.81a60.39,60.39,0,0,1-3.57-15.53c-.33-5.32.62-10.86,3.53-15.32,1.54-2.36,3.58-4.37,5.06-6.77a12.58,12.58,0,0,0,1.35-3c-.65,0-1.34,0-2.1.09h-.1l-1,.09h-.15c-10.29,1.15-21,7.53-22.76,15-2.8,11.73-3.71,16,3.52,36.83s-2.38,31.69,3.29,49.08c5.45,16.7,22.36,27.07,46.93,22.83a39.94,39.94,0,0,0,7.33-2.6C285.33,151.14,275.19,147.54,266.74,141.13Z"/><path class="cls-13" d="M295.11,77c-11.59-9.14-9.83-32-25.89-38.14a27.74,27.74,0,0,0-11-1.87c-1.29,1.74-2.77,3.35-4,5.17-2.91,4.46-3.86,10-3.53,15.32A60.39,60.39,0,0,0,254.34,73c1.53,4.49,3.24,9.08,2.9,13.81-.25,3.51-1.61,6.83-2.91,10.11a50.84,50.84,0,0,0-3.28,10.74c-2,12.78,5.38,25.65,15.69,33.47,6.8,5.15,14.69,8.5,22.89,11a59.2,59.2,0,0,0,11.09-4.41C313.34,141,319.1,130.58,317.45,118,315.28,101.33,306.7,86.13,295.11,77Z"/><path class="cls-12" d="M266.74,141.13c-10.31-7.82-17.69-20.69-15.69-33.47a50.84,50.84,0,0,1,3.28-10.74c1.3-3.28,2.66-6.6,2.91-10.11.34-4.73-1.37-9.32-2.9-13.81a60.39,60.39,0,0,1-3.57-15.53c-.33-5.32.62-10.86,3.53-15.32,1.19-1.82,2.67-3.43,4-5.17a26.51,26.51,0,0,0-4.66.57c-8,1.7-14.47,7-16.06,13.82-2.53,11-3.36,14.92,3.41,34.48s-2.06,29.66,3.25,46c5.1,15.66,20.12,26.67,42.43,21.12,1-.26,2-.54,3-.82C281.43,149.63,273.54,146.28,266.74,141.13Z"/><path class="cls-12" d="M275.1,102.41l-.53.17h0c-11.21,3.71-17.64,15.14-14.39,25.81,3.3,10.83,15.33,16.77,26.87,13.26a23.16,23.16,0,0,0,6.67-3.27c7.27-5.17,10.86-14.19,8.26-22.71C298.68,104.83,286.65,98.9,275.1,102.41Z"/><path class="cls-20" d="M292.92,137.36a21.81,21.81,0,0,1-6.25,3.07c-10.83,3.29-22.11-2.28-25.2-12.44-3.05-10,3-20.72,13.5-24.2-6.82,4.85-10.18,13.31-7.75,21.3,3.09,10.16,14.38,15.73,25.2,12.43Z"/><path class="cls-21" d="M300.67,116.06c2.44,8-.93,16.45-7.75,21.3l-.5.16c-10.82,3.3-22.11-2.27-25.2-12.43-2.43-8,.93-16.45,7.75-21.3h0l.5-.16C286.3,100.34,297.58,105.9,300.67,116.06Z"/><path class="cls-22" d="M286.13,108.58a22.15,22.15,0,0,1,5.92,4.47,19.19,19.19,0,0,1,4,5,7.66,7.66,0,0,1,.53,6.18,8.29,8.29,0,0,1-5.15,4.36c-1.44.5-3.19.71-4.34-.28a5.29,5.29,0,0,1-1.36-3.3c-.27-1.73-.55-3.46-.82-5.19s-.63-3.5-2-4.47a11.82,11.82,0,0,0-2.76-1.08,4.39,4.39,0,0,1-2.94-3C276.22,106.36,283.82,107.49,286.13,108.58Z"/><path class="cls-14" d="M313.11,111.63c1.37,5,2.47,10.49.57,15.34a5.27,5.27,0,0,1-1.55,2.34,2.48,2.48,0,0,1-2.66.34,3.2,3.2,0,0,1-1.33-2.35c-.71-3.92,1-7.89.85-11.87a13.19,13.19,0,0,0-1.5-5.67c-1-2-2.59-3.7-3.46-5.77-1.44-3.43.76-8.17,4-4.16C310.73,103.12,312,107.62,313.11,111.63Z"/><path class="cls-23" d="M158.53,177.91a21.7,21.7,0,0,1-6.27.76c-18.64-.44-33.93-13.61-41.55-47.12s4-59.6,4-59.6c4.47-8,10.8-9,16.35-7.54a15.77,15.77,0,0,0-7,7s-11.64,26.1-4,59.61C127.3,162.62,141.31,176.12,158.53,177.91Z"/><path class="cls-11" d="M158.53,177.91c-17.22-1.79-31.23-15.29-38.42-46.91-7.62-33.51,4-59.61,4-59.61a15.77,15.77,0,0,1,7-7c5.55,1.5,10.31,5.55,11.63,7.74,2.63,4.37-.83,25.67,4.95,40.76s16.49,21.32,25.21,32.48C180.56,155.22,173.16,173.92,158.53,177.91Z"/><path class="cls-10" d="M128.58,62.69a1.18,1.18,0,0,1-.57-.88,15.59,15.59,0,0,0-.89-3.28,13.61,13.61,0,0,1-1.06-4.94,10.57,10.57,0,0,1,1.9-5.41c.54-.84,1.14-1.63,1.72-2.39s.91-1.19,1.33-1.8a1.21,1.21,0,0,1,2,1.36c-.45.66-.93,1.29-1.4,1.9s-1.12,1.48-1.61,2.24a8.22,8.22,0,0,0-1.52,4.16,11.73,11.73,0,0,0,.93,4.08,18.15,18.15,0,0,1,1,3.8,1.21,1.21,0,0,1-1.06,1.34A1.2,1.2,0,0,1,128.58,62.69Z"/><path class="cls-9" d="M112.94,69.32s-2.83,17.17-4.25,20.13c7.1-3.3,12.4-11.52,12.25-16.67,0,0,7.23,17.77,5.31,20.42,0,0,10.41-13.71,10.23-19.84a130.41,130.41,0,0,1,6.64,13.84s5.42-12.15.63-20C135.74,54,116.56,55.94,112.94,69.32Z"/><path class="cls-10" d="M112.94,69.32s-2.83,17.17-4.25,20.13c7.1-3.3,12.4-11.52,12.25-16.67.34-4.81,3.14-9.67,6.3-14.53C120.78,58.58,114.8,62.44,112.94,69.32Z"/><path class="cls-24" d="M169.24,149.58a11.67,11.67,0,0,1,2.38,5.18c.22,2.1-.7,4.13-1.6,6-.27.58-.65,1.23-1.28,1.29a1.76,1.76,0,0,1-1.06-.38c-4.31-2.78-6.66-7.69-8.8-12.35-1-2.19-4-10.56,1.49-9.41C163.87,140.68,167.42,146.89,169.24,149.58Z"/><path class="cls-8" d="M261.46,147.21a20.17,20.17,0,0,1-6.89,6.6,37.74,37.74,0,0,1-26.49,5,36.41,36.41,0,0,0,13.12-5,20.17,20.17,0,0,0,6.89-6.6c3.87-6.6,1.65-15-1.49-22a36.49,36.49,0,0,0-5.92-9.73c-6.8-7.52-18.14-10-24.28-18-5.13-6.74-5.65-16.18-10.88-22.84a19.37,19.37,0,0,0-9.38-6.43c7.88-2.52,17.35-.44,22.75,6.43,5.23,6.66,5.74,16.1,10.87,22.84,6.15,8.07,17.48,10.53,24.29,18a36.75,36.75,0,0,1,5.92,9.73C263.11,132.17,265.32,140.61,261.46,147.21Z"/><path class="cls-7" d="M248.09,147.21a20.17,20.17,0,0,1-6.89,6.6,36.41,36.41,0,0,1-13.12,5,35.7,35.7,0,0,1-8-2.39,54.6,54.6,0,0,0-7.08-3,31.43,31.43,0,0,0-9.4-.62l-5.94.21a40.79,40.79,0,0,0-7.42-.21l-7.68.27c-4.08-.44-7.92-1.62-10.83-4.42a20.65,20.65,0,0,1-4.8-8.46c0-.11-.07-.22-.11-.32a30.43,30.43,0,0,1-1.79-10.28c.19-7.08,4-13.64,8.88-18.79,2.34-2.48,5-4.83,6.23-8a21.58,21.58,0,0,0,1-7c.26-6.4.85-13,3.85-18.66h0l.08-.15a18.85,18.85,0,0,1,11-8.92,19.37,19.37,0,0,1,9.38,6.43c5.23,6.66,5.75,16.1,10.88,22.84,6.14,8.07,17.48,10.53,24.28,18a36.49,36.49,0,0,1,5.92,9.73C249.74,132.17,252,140.61,248.09,147.21Z"/><circle class="cls-8" cx="208.98" cy="119.45" r="18.06"/><path class="cls-25" d="M226.07,119.45A17.12,17.12,0,0,1,205,136.07a17.1,17.1,0,0,0,3.83-33.72H209A17.1,17.1,0,0,1,226.07,119.45Z"/><path class="cls-26" d="M221.9,119A17.09,17.09,0,0,1,205,136.07a17.1,17.1,0,0,1,3.83-33.72A17.13,17.13,0,0,1,221.9,119Z"/><path class="cls-25" d="M337.26,138a8.39,8.39,0,0,1,1.7,1.88l62.46-23.05,2.72,43.2,3.78-1L405,113Z"/><path class="cls-26" d="M340.1,143.54a6.5,6.5,0,0,0-1.14-3.67l62.46-23.05,2.72,43.2-7.82,2.09s-2.63-5.29-8.42-4.11a7.13,7.13,0,0,0-5.52,4.44,7.29,7.29,0,0,0-.51,2.14l-2.56.62-41.19,10.07-1-24.32S340,149.5,340.1,143.54Z"/><path class="cls-11" d="M406.43,113.11c-1.49-4.39-28-16.92-34.78-16.21s-34.78,41.67-34.78,41.67l67.6-24.21.68,45.6,2.77-1S407.92,117.5,406.43,113.11Z"/><circle class="cls-25" cx="396.81" cy="134.76" r="5.49"/><circle class="cls-26" cx="395.14" cy="134.76" r="4.73"/><circle class="cls-25" cx="383.07" cy="146.69" r="2.95"/><circle class="cls-26" cx="382.22" cy="146.69" r="2.95"/><circle class="cls-25" cx="370.19" cy="139.86" r="3.15" transform="translate(-20.22 75.22) rotate(-11.3)"/><circle class="cls-26" cx="369.24" cy="139.86" r="3.15"/><circle class="cls-25" cx="351.69" cy="167.89" r="3.15" transform="translate(-30.9 93.77) rotate(-14.55)"/><circle class="cls-26" cx="350.18" cy="167.89" r="3.15"/><circle class="cls-25" cx="357.38" cy="151.6" r="2.54"/><circle class="cls-26" cx="355.92" cy="151.6" r="2.54"/><circle class="cls-25" cx="346.82" cy="141.54" r="3.35" transform="translate(-23.24 83.47) rotate(-13.28)"/><circle class="cls-26" cx="345.19" cy="141.54" r="3.35"/><circle class="cls-25" cx="344.08" cy="160.24" r="1.76"/><circle class="cls-26" cx="342.97" cy="160.24" r="1.76"/><circle class="cls-25" cx="370.49" cy="159.82" r="4.21"/><circle class="cls-26" cx="369.24" cy="159.82" r="4.21"/><circle class="cls-25" cx="399.87" cy="153.38" r="1.78" transform="translate(-21.95 79.29) rotate(-11.02)"/><circle class="cls-26" cx="398.91" cy="153.38" r="1.78"/><circle class="cls-25" cx="383.07" cy="126.32" r="2.95"/><circle class="cls-26" cx="382.22" cy="126.32" r="2.95"/><path class="cls-8" d="M228.59,159.5a21.88,21.88,0,0,0,5.66,0,7.41,7.41,0,0,0,4.8-2.75c1.67-2.33,1.46-5.84,3.66-7.68s5.46-1,8,.27c2,1,4.11,2.36,5,4.47a7.72,7.72,0,0,1-.84,6.76,25.22,25.22,0,0,1-4.7,5.26,3.54,3.54,0,0,0-.84,1c-.54,1.15.22,2.48,1.05,3.43s1.83,2,1.82,3.24c0,1.66-1.75,2.79-3.38,3.13a13.71,13.71,0,0,1-8.42-1.44,14.27,14.27,0,0,0-3.64-1.4,11.44,11.44,0,0,0-3.73.2c-7,1.14-14.1,1.95-21.2,2.41a4.55,4.55,0,0,1-2.23-.23,4,4,0,0,1-1.44-1.34,15.24,15.24,0,0,1-1.88-14.19c1.73-4.24,7.73-2.26,11.27-2Z"/><path class="cls-27" d="M219.56,159.56c0-.47-19-20.82-41.59-22.41s-32.68,4.39-32.68,4.39c31.35,12.82,44.57,28.89-5.7,56.4,0,0,29.47,11,52.46.05,23.75-11.3,30.45-23.57,30.45-23.57s-10.41-5-11.67-5,11.16-2,11.16-2-6.93-6.12-11-6.64Z"/><path class="cls-28" d="M160.58,142.05a22.59,22.59,0,0,0-12.68-1.16c-9.3,1.78-18,9-22.31,19.67-6.22,15.49-.62,32.31,12.49,37.57s28.79-3,35-18.52S173.69,147.31,160.58,142.05Zm-21.72,54.14c-12.2-4.9-17.41-20.55-11.63-35S147.59,139.1,159.8,144s17.41,20.55,11.63,35S151.07,201.08,138.86,196.19Z"/><path class="cls-7" d="M159.8,144c-12.21-4.89-26.79,2.82-32.57,17.23s-.57,30.07,11.63,35,26.79-2.82,32.57-17.24S172,148.89,159.8,144Zm-20.33,50.69c-11.5-4.62-16.41-19.36-11-32.94s19.18-20.85,30.68-16.24,16.41,19.36,11,32.94S151,199.29,139.47,194.68Z"/><ellipse class="cls-28" cx="149.33" cy="170.09" rx="26.49" ry="22.44" transform="translate(-64.13 245.36) rotate(-68.14)"/><path class="cls-7" d="M156.21,168.74a7.54,7.54,0,0,0,1.61.51,15.11,15.11,0,0,0,1.66.09,16,16,0,0,1,2.9.48c1.88.45,3.75,1,5.59,1.57a4.12,4.12,0,0,0,2,.32,3.56,3.56,0,0,0,.72-.23l1.8-.68a20.78,20.78,0,0,1-.77,2.91.91.91,0,0,1-.36.56,1,1,0,0,1-.63,0,34.25,34.25,0,0,1-7.8-2.13,9.36,9.36,0,0,0-3.11-1.11c-.4,0-.81,0-1.21-.05a5,5,0,0,1-1.3-.38c-.87-.33-1.74-.67-2.6-1a2.86,2.86,0,0,1-1.17-.71c-.4-.46-.41-1.31.36-1.16A14.49,14.49,0,0,1,156.21,168.74Z"/><path class="cls-7" d="M140.3,184.06a14,14,0,0,1-2.2,3,15.51,15.51,0,0,1-2.21,1.53,35.17,35.17,0,0,0-2.93,2.07.84.84,0,0,0-.42.68c0,.26.29.43.53.54a3.29,3.29,0,0,0,2.48.2,4.81,4.81,0,0,0,1.55-1.11,20.38,20.38,0,0,0,4.64-5.6c.43-.89.73-1.84,1.24-2.69,1.35-2.23,4-3.57,4.87-6a1.2,1.2,0,0,0-.09-1.18c-.58-.64-1.2.78-1.49,1.09-.76.79-1.5,1.59-2.2,2.42A47.29,47.29,0,0,0,140.3,184.06Z"/><path class="cls-7" d="M148.77,160.25a33.47,33.47,0,0,0,.15-3.88c0-3.8,0-7.61,0-11.42a1.47,1.47,0,0,0-.42-1.26,1,1,0,0,0-1.06,0,2.4,2.4,0,0,0-.93,2.49c.14.93.57,1.8.79,2.72.48,2-.14,4.15-.45,6.23a20.81,20.81,0,0,0,.09,6.82c.1.55.29,1.89,1.22,1.45C148.69,163.18,148.7,160.8,148.77,160.25Z"/><path class="cls-7" d="M158.54,175.2a34.5,34.5,0,0,1-5.26,4.79,22.77,22.77,0,0,1-6.68,2.58c-2.22.59-4.64,1.27-6,3.14a.62.62,0,0,0-.15.46.47.47,0,0,0,.26.31,2.6,2.6,0,0,0,2.35-.2L147,184.6a10.12,10.12,0,0,1,2.31-.77c.9-.15,1.82-.05,2.73-.12,3.19-.28,5.79-2.65,7.87-5.09a12.76,12.76,0,0,0,1.78-2.54,6.28,6.28,0,0,1,1.32-2.2,10.83,10.83,0,0,1,1.24-.72c.44-.28,1.3-1.24.58-1.7-.47-.3-1.73.46-2.16.66A15.42,15.42,0,0,0,158.54,175.2Z"/><path class="cls-7" d="M136.49,166.14a12.5,12.5,0,0,1-2.28-2.48c-1.21-1.65-2.3-3.39-3.39-5.13a1.3,1.3,0,0,1-.15-1.44,6.38,6.38,0,0,1,1.47-2.69.52.52,0,0,1,.52-.19c.19.07.25.3.26.51,0,.74-.18,1.48-.07,2.21a5,5,0,0,0,1.08,2.1,35.11,35.11,0,0,0,7.07,7.33c1.07.82,1.09,1.44-.36,1.44A7.4,7.4,0,0,1,136.49,166.14Z"/><path class="cls-7" d="M153.23,182.61l2,6.64a10.74,10.74,0,0,1,.64,3.83,2.69,2.69,0,0,0,0,1,.72.72,0,0,0,.77.55c1-1.52.85-3.53.62-5.35a20.59,20.59,0,0,0-1.28-5.7,5.4,5.4,0,0,0-1.5-2.34C153.44,180.6,153,181.69,153.23,182.61Z"/><circle class="cls-8" cx="147.47" cy="169.34" r="6.95" transform="translate(-33.37 302.46) rotate(-85.31)"/><circle class="cls-28" cx="147.47" cy="169.34" r="5.48" transform="translate(-70.83 116.72) rotate(-35.4)"/><path class="cls-4" d="M320.28,159a61.63,61.63,0,0,1,13.4,7.72c3.17,2.34,6.17,4.9,9.44,7.09a55.79,55.79,0,0,0,37.59,8.72,62.75,62.75,0,0,0,35-16.7c7.31-6.87,13-15.3,17.95-24,2.53-4.43,4.94-9.82,2.77-14.44a9.06,9.06,0,0,0-1.37-2.07c.68,4-1.36,8.45-3.49,12.17-5,8.71-10.63,17.15-17.94,24a62.81,62.81,0,0,1-35,16.7A55.77,55.77,0,0,1,341,169.5c-3.27-2.2-6.28-4.75-9.44-7.09a71.6,71.6,0,0,0-7.69-5A5.32,5.32,0,0,0,320.28,159Z"/><path class="cls-6" d="M323.91,157.43a71.6,71.6,0,0,1,7.69,5c3.16,2.34,6.17,4.89,9.44,7.09a55.77,55.77,0,0,0,37.59,8.72,62.81,62.81,0,0,0,35-16.7c7.31-6.87,13-15.31,17.94-24,2.13-3.72,4.17-8.12,3.49-12.17a17.54,17.54,0,0,0-10.7-5.28c-5.12-.44-9.34,3.74-12.24,7.4a94.66,94.66,0,0,0-12,19.62c-1.2,2.65-2.32,5.41-4.23,7.6a22.11,22.11,0,0,1-5.35,4.16A74.87,74.87,0,0,1,361.27,169a27.37,27.37,0,0,1-8.28,0,34.45,34.45,0,0,1-8.28-3l-14.29-6.72a17.27,17.27,0,0,0-5.13-1.77A7.08,7.08,0,0,0,323.91,157.43Z"/><path class="cls-9" d="M432.34,122.54A92.48,92.48,0,0,0,441.58,99a54.2,54.2,0,0,0,1.2-6.34,28,28,0,0,0,0-6.66,19.17,19.17,0,0,0-2.07-6.59A14.67,14.67,0,0,0,436,74l0,0a2.06,2.06,0,0,0-2.25,3.45l.1.06a10.71,10.71,0,0,1,3.7,3.72,15.45,15.45,0,0,1,1.95,5.24c.69,3.79.22,7.87-.53,11.91a90.62,90.62,0,0,1-7.77,23.52.68.68,0,0,0,1.21.64Z"/><path class="cls-9" d="M433.74,122a8.06,8.06,0,0,1,2.06,1.27,2.83,2.83,0,0,1,1,2.15,1.74,1.74,0,0,1-1.49,1.65,2.18,2.18,0,0,1-.94-.17,15,15,0,0,1-1.58-.72c-2.78-1.43-5.56-2.85-8.24-4.47-.42-.27-1.56-.86-.73-1.89C426,117.08,433.11,121.71,433.74,122Z"/><polygon class="cls-29" points="9.81 38.73 9.81 183.89 91.55 184.98 89.53 37.16 9.81 38.73"/><polygon class="cls-30" points="91.42 184.98 113.49 171.64 113.49 37.16 97 17.88 88.38 37.16 91.42 184.98"/><path class="cls-30" d="M88.38,37.16,97,17.88c-1.33.3-75.91,2.48-75.91,2.48L9.81,38.73Z"/><polygon class="cls-31" points="97 17.88 100.94 161.69 91.42 184.98 88.38 37.16 97 17.88"/><polygon class="cls-32" points="113.49 172.12 100.94 161.69 91.42 184.98 113.49 172.12"/><polygon class="cls-32" points="21.09 20.36 21.09 13.39 97 10.48 97 17.88 21.09 20.36"/><circle class="cls-33" cx="49.07" cy="103.64" r="27.56"/><path class="cls-32" d="M41.68,103.42c-.11-2-.24-4.45-.21-6.26H41.4c-.49,1.7-1.1,3.51-1.83,5.51l-2.56,7H35.59l-2.35-6.91c-.68-2-1.27-3.92-1.68-5.64h0c0,1.81-.15,4.24-.28,6.41l-.39,6.22H29.07l1-14.5h2.39l2.47,7c.61,1.79,1.1,3.38,1.47,4.89h.06c.37-1.46.88-3.06,1.53-4.89l2.58-7H43l.91,14.5H42.05Z"/><path class="cls-32" d="M48.63,95.29v14.5H46.76V95.29Z"/><path class="cls-32" d="M51.91,95.29h1.87v12.93H60v1.57H51.91Z"/><path class="cls-32" d="M62.06,95.29h1.88v7H64c.39-.56.78-1.07,1.14-1.55l4.44-5.44H71.9l-5.25,6.15,5.66,8.35H70.09l-4.78-7.12-1.37,1.59v5.53H62.06Z"/><path class="cls-19" d="M310.79,108.24a43.84,43.84,0,0,1,9-25.1h0a1.33,1.33,0,1,1,2.11,1.62l0,0a41.86,41.86,0,0,0-9.76,23.51.67.67,0,0,1-1.33-.08Z"/><path class="cls-34" d="M319.62,181.8c-7.68.46-15.84,0-22-3.28a56.11,56.11,0,0,0,15.44.92c14.19-.85,26.13-10.65,24.78-24.68s-13.63-22.3-16-35.49c-1.51-8.39-2.53-14.24-6.69-17.35,10,1.28,11.13,8,13.23,19.72,2.36,13.18,14.64,21.46,16,35.49S333.81,181,319.62,181.8Z"/><path class="cls-35" d="M313.09,179.44a56.11,56.11,0,0,1-15.44-.92h0c-5.19-2.77-8.92-7.57-9.68-15.52-1.76-18.65,6.48-14.48,7-38.48s15.88-22.81,15.88-22.81a30.74,30.74,0,0,1,4.35.22c4.16,3.11,5.18,9,6.69,17.35,2.37,13.19,14.65,21.46,16,35.49S327.28,178.59,313.09,179.44Z"/><path class="cls-23" d="M74.57,201.34l.48,3.36s-15.24,11.76-34.72,1.14-20.26-3.33-32.52-12.57-6.65-42.74-5.75-41.35l.32.45c-1.32,9.52-2,29.41,7,36.2,12.26,9.24,13.05,2,32.53,12.58C57.14,209.42,69.75,204.09,74.57,201.34Z"/><path class="cls-11" d="M72.69,188.31l1.88,13c-4.82,2.75-17.43,8.08-32.62-.19-19.48-10.62-20.27-3.34-32.53-12.58-9-6.79-8.36-26.68-7-36.2,5.46,7.27,32,21.47,43.09,28.5C56.84,188,72.69,188.31,72.69,188.31Z"/><path class="cls-27" d="M10.61,143.3s-15.67,6.88-5.46,19.14,17.37,14.46,26.61,18.14S48.35,192.93,55,194.49s13.53.87,17.66-3L74,196.83l10.35,2s6.56-14.41,1.38-25.14-12.41-11.31-17.19-16S49,126.47,10.61,143.3Z"/><path class="cls-36" d="M83.11,198.89c.15-3.43.3-6.87.46-10.3a11.12,11.12,0,0,0-.41-4.42,9.17,9.17,0,0,0-3.27-3.81,54.24,54.24,0,0,0-5.78-3.67A23.56,23.56,0,0,0,70.87,175c-2.88-1.12-6.07-1.1-9.05-1.9-1.87-.51-3.65-1.34-5.56-1.68a20.4,20.4,0,0,0-6.38.13,8.13,8.13,0,0,0,1,6.09,17.34,17.34,0,0,0,4.26,4.62c5.28,4.23,10.81,8.17,17.49,9.21L74,196.83Z"/><path class="cls-33" d="M50,171.63a.31.31,0,0,1-.28,0,31.69,31.69,0,0,1-4.62-5.09c-2-2.55-4.1-5.18-6.87-6.52a68.32,68.32,0,0,1-7.63-4.38,26.76,26.76,0,0,0-4.72-2.32A21.7,21.7,0,0,1,20,150.11a43.05,43.05,0,0,0-9.68-5.87.29.29,0,0,1-.15-.39.29.29,0,0,1,.4-.15,42.9,42.9,0,0,1,9.81,6,21.23,21.23,0,0,0,5.67,3.06,28.63,28.63,0,0,1,4.82,2.37,66.33,66.33,0,0,0,7.56,4.35c2.9,1.39,5,4.08,7.08,6.69a31.92,31.92,0,0,0,4.53,5,.3.3,0,0,1,0,.43A.31.31,0,0,1,50,171.63Z"/><path class="cls-33" d="M45.46,166.61h-.11c-1.89-.79-5.78-.37-7.86.51-.29.12-.58.27-.87.41a7.68,7.68,0,0,1-2,.77,1.29,1.29,0,0,1-1.46-.56c-1.83-2.34-3.6-10-3.27-12.84a.16.16,0,0,1,.17-.13.15.15,0,0,1,.13.17c-.32,2.81,1.41,10.32,3.2,12.61a1.45,1.45,0,0,0,.42.4,1.22,1.22,0,0,0,.76.05,7.62,7.62,0,0,0,1.92-.74c.29-.14.59-.29.89-.42,2.13-.9,6.13-1.32,8.09-.51a.15.15,0,0,1,.08.2A.14.14,0,0,1,45.46,166.61Z"/><path class="cls-33" d="M38.7,175.33a5.08,5.08,0,0,1-1.6.28,6.32,6.32,0,0,1-1.76-.35c-1.31-.39-2.61-.85-3.87-1.36a5.17,5.17,0,0,1-2-1.19,4.43,4.43,0,0,1-.83-1.59,19.33,19.33,0,0,1-.59-2.67c-.12-.68-.25-1.39-.43-2.07s-.42-1.38-.66-2a20.28,20.28,0,0,1-.79-2.58c-.34-1.56,0-6.7,1.06-8a.15.15,0,1,1,.23.19c-.92,1.18-1.35,6.14-1,7.79a22.56,22.56,0,0,0,.78,2.54c.24.67.49,1.37.67,2.07s.31,1.41.43,2.1A21.54,21.54,0,0,0,29,171a4,4,0,0,0,.76,1.49,4.92,4.92,0,0,0,1.85,1.11c1.26.5,2.55,1,3.85,1.36a6.18,6.18,0,0,0,1.67.33,6.27,6.27,0,0,0,2.08-.46,38.91,38.91,0,0,0,4.7-1.81c.4-.19.81-.41,1.2-.62a12.28,12.28,0,0,1,4.15-1.59.15.15,0,0,1,.17.13.16.16,0,0,1-.13.17,12.16,12.16,0,0,0-4.05,1.56c-.39.21-.8.42-1.21.62a39.08,39.08,0,0,1-4.73,1.83Z"/><path class="cls-33" d="M49.9,177.29h0l-3.75.73a15.88,15.88,0,0,1-4.72.44c-.51-.05-1-.16-1.52-.26a13.19,13.19,0,0,0-1.78-.28A13.76,13.76,0,0,0,36,178a11.57,11.57,0,0,1-2.43.07,11.26,11.26,0,0,1-3.73-1.28A10.79,10.79,0,0,1,26,174.17a11.09,11.09,0,0,1-1.7-3.55c-.18-.5-.36-1-.56-1.52s-.45-1-.69-1.52A9.49,9.49,0,0,1,21.71,163a9.32,9.32,0,0,1,1.23-3.57l.24-.5c.61-1.24.64-5.19.31-6.61a.15.15,0,0,1,.29-.07c.35,1.5.31,5.5-.32,6.81-.09.17-.17.33-.25.5A9.34,9.34,0,0,0,22,163a9.23,9.23,0,0,0,1.3,4.47c.24.5.49,1,.7,1.53s.39,1,.56,1.54A10.94,10.94,0,0,0,26.22,174,10.63,10.63,0,0,0,30,176.54a11.13,11.13,0,0,0,3.63,1.25,12.5,12.5,0,0,0,2.37-.07,13.16,13.16,0,0,1,2.18-.1,13.54,13.54,0,0,1,1.82.29,14.94,14.94,0,0,0,1.49.25,15.66,15.66,0,0,0,4.63-.43l3.75-.73a.14.14,0,0,1,.17.12A.15.15,0,0,1,49.9,177.29Z"/><path class="cls-33" d="M19.58,175.3a.16.16,0,0,1-.16-.05l-.2-.25c-1.29-1.6-2.76-3.41-2.49-5.44a16.4,16.4,0,0,1,.36-1.72,14.89,14.89,0,0,0,.35-1.74,14.9,14.9,0,0,0-.69-5.41c-.19-.72-.37-1.46-.52-2.19a18.82,18.82,0,0,1-.34-3.75,8.17,8.17,0,0,1,.27-2.19,20.2,20.2,0,0,1,2.3-4,.16.16,0,0,1,.21,0,.15.15,0,0,1,0,.21,20.33,20.33,0,0,0-2.25,3.93,7.93,7.93,0,0,0-.26,2.11,18.4,18.4,0,0,0,.34,3.7c.14.72.33,1.45.51,2.16a15,15,0,0,1,.7,5.52,14.92,14.92,0,0,1-.36,1.79A13.53,13.53,0,0,0,17,169.6c-.25,1.9,1.17,3.66,2.42,5.21l.2.25a.14.14,0,0,1,0,.21Z"/><path class="cls-33" d="M9.57,167H9.52a.14.14,0,0,1-.14-.16,12.4,12.4,0,0,1,.68-3.07c.14-.42.28-.87.39-1.3a13.66,13.66,0,0,0,.34-5.09c0-.43-.13-.86-.2-1.27a10.84,10.84,0,0,1-.21-3.36c.39-2.65,3.38-5.92,4-6.55a.15.15,0,0,1,.22.21c-1.61,1.7-3.6,4.39-3.9,6.38a10.94,10.94,0,0,0,.22,3.27c.07.42.15.85.2,1.28a14,14,0,0,1-.35,5.2c-.11.45-.26.89-.39,1.33a11.88,11.88,0,0,0-.67,3A.16.16,0,0,1,9.57,167Z"/><path class="cls-33" d="M52.74,185.33l-.3.07a4.42,4.42,0,0,1-1.7-.15l-.41-.08a16.66,16.66,0,0,0-3.39-.19,12.2,12.2,0,0,1-4.73-.58,16.39,16.39,0,0,0-4.6-.63.15.15,0,0,1-.15-.15.15.15,0,0,1,.14-.15,16.81,16.81,0,0,1,4.73.65,11.73,11.73,0,0,0,4.61.56,16.61,16.61,0,0,1,3.45.19l.41.09a4.32,4.32,0,0,0,1.59.14,4.12,4.12,0,0,0,1.59-.8,5.15,5.15,0,0,1,1.51-.82.15.15,0,0,1,.18.11.14.14,0,0,1-.1.18,4.79,4.79,0,0,0-1.42.77A5.15,5.15,0,0,1,52.74,185.33Z"/><path class="cls-33" d="M60.52,193l-.39.1a5.63,5.63,0,0,1-1.59,0l-6.18-.72a.15.15,0,0,1,0-.3l6.18.72a5.39,5.39,0,0,0,1.5,0,5.27,5.27,0,0,0,1.37-.51l5.34-2.6a.15.15,0,1,1,.13.27l-5.34,2.6A7.5,7.5,0,0,1,60.52,193Z"/><path class="cls-33" d="M46.86,168.35a.17.17,0,0,1-.12,0,.14.14,0,0,1-.06-.2,11.37,11.37,0,0,0,.68-4.81,17,17,0,0,1,0-5.69c0-.18.06-.36.08-.54a7.86,7.86,0,0,0,0-4c-.64-1.69-2.32-2.68-4.14-3.62a18.18,18.18,0,0,0-5.46-2.12,14,14,0,0,0-6,.63,26.28,26.28,0,0,0-8.14,4.4.15.15,0,0,1-.21,0,.15.15,0,0,1,0-.21,26.19,26.19,0,0,1,8.26-4.46,14,14,0,0,1,6.08-.63,18.1,18.1,0,0,1,5.56,2.15c1.87,1,3.6,2,4.28,3.77a8,8,0,0,1,0,4.19c0,.18-.06.36-.08.53a16.62,16.62,0,0,0,0,5.59,11.59,11.59,0,0,1-.71,5A.17.17,0,0,1,46.86,168.35Z"/><path class="cls-33" d="M49.85,171.3a.21.21,0,0,1-.15,0,.28.28,0,0,1-.1-.24c0-.36.75-.82,2.4-1.79a9.14,9.14,0,0,0,2.3-1.58,4.32,4.32,0,0,1,1.3-2l.19-.18a3,3,0,0,0,1.1-1.63,2.76,2.76,0,0,0-.27-1.31A45.16,45.16,0,0,0,51.48,153a11.45,11.45,0,0,1-1-1.82c-.19-.4-.38-.81-.59-1.19a8.72,8.72,0,0,0-5.52-4.15,17.34,17.34,0,0,0-3-.36,11.21,11.21,0,0,1-4.61-1,13.33,13.33,0,0,0-8.58-1.18c-2.92.52-8,3.18-10.37,4.86a.15.15,0,0,1-.21,0,.16.16,0,0,1,0-.21c2.34-1.66,7.42-4.36,10.48-4.91A13.65,13.65,0,0,1,37,144.23a10.85,10.85,0,0,0,4.48.92,18,18,0,0,1,3,.36,9.07,9.07,0,0,1,5.71,4.3c.22.4.41.81.6,1.21a11.57,11.57,0,0,0,.95,1.77,45,45,0,0,1,5.18,9.67,3,3,0,0,1,.29,1.45,3.15,3.15,0,0,1-1.19,1.8l-.19.18a4.2,4.2,0,0,0-1.22,1.84c-.1.38-1,.92-2.43,1.77a9,9,0,0,0-2.26,1.55.16.16,0,0,1,0,.21Z"/><path class="cls-33" d="M41.73,138.69h0a14.29,14.29,0,0,0-4.58,1.11c-.82.29-1.59.57-2.25.73l-.8.21a15.19,15.19,0,0,1-2.34.49c-.4,0-.81,0-1.2.05s-.83,0-1.25.06c-.76.08-13.69,4.45-14.22,5a.16.16,0,0,1-.22,0,.14.14,0,0,1,0-.21c.59-.63,13.58-5,14.41-5.11A11,11,0,0,1,30.5,141c.39,0,.79,0,1.18,0a14.55,14.55,0,0,0,2.29-.48l.8-.21c.65-.16,1.42-.43,2.23-.72a14.19,14.19,0,0,1,4.69-1.13.16.16,0,0,1,.15.16A.18.18,0,0,1,41.73,138.69Z"/><path class="cls-33" d="M65.77,154.58a.12.12,0,0,1-.1,0c-.1,0-.85-.58-2.52-1.8-1.21-.87-2.72-2-2.86-2a16.26,16.26,0,0,0-3.78-.89L55,149.6a17.63,17.63,0,0,0-1.79-.19c-1.87-.14-4-.31-4.84-1.39a.16.16,0,0,1,0-.21.15.15,0,0,1,.21,0c.77,1,2.91,1.14,4.64,1.27.68.06,1.32.1,1.82.2s1,.16,1.45.23a16.2,16.2,0,0,1,3.86.92c.12,0,1,.7,2.92,2.07,1.1.8,2.35,1.71,2.47,1.77a.15.15,0,0,1,.06.2A.12.12,0,0,1,65.77,154.58Z"/><path class="cls-33" d="M77.61,165.5a.14.14,0,0,1-.11,0,38,38,0,0,0-6.45-2.36l-.83-.21a18,18,0,0,1-3.55-1.18c-.42-.21-.82-.45-1.21-.68s-.78-.46-1.18-.67c-2.37-1.17-6.58-.8-8.38-.64a.15.15,0,0,1-.16-.13.16.16,0,0,1,.14-.17c3-.26,6.37-.39,8.53.67.42.21.82.45,1.21.68s.78.47,1.18.67a17.93,17.93,0,0,0,3.5,1.15l.82.22a37.87,37.87,0,0,1,6.51,2.38.15.15,0,0,1,.07.2A.14.14,0,0,1,77.61,165.5Z"/><path class="cls-33" d="M86.53,178.45a.14.14,0,0,1-.09,0A28,28,0,0,1,78,173.72c-.7-.57-1.37-1.18-2-1.76-.45-.41-.92-.82-1.38-1.22a27.24,27.24,0,0,0-2.44-1.89c-3.89-2.62-10.93-4.09-16-3.35a.15.15,0,0,1-.17-.13.16.16,0,0,1,.13-.17c5.17-.75,12.3.75,16.23,3.4a25.2,25.2,0,0,1,2.47,1.91c.47.4.94.82,1.39,1.22.65.59,1.32,1.19,2,1.75a27.65,27.65,0,0,0,8.36,4.68.15.15,0,0,1,.09.19A.19.19,0,0,1,86.53,178.45Z"/><path class="cls-33" d="M56.71,182.52a.22.22,0,0,1-.14,0,.16.16,0,0,1,0-.21,6.77,6.77,0,0,0,1.57-3.39,6.93,6.93,0,0,0-.13-1.35,5.89,5.89,0,0,1-.13-1.57,11.87,11.87,0,0,1,1.9-3.58.16.16,0,0,1,.22,0,.15.15,0,0,1,0,.21A12,12,0,0,0,58.15,176a6.37,6.37,0,0,0,.12,1.5,6.68,6.68,0,0,1,.14,1.41,6.86,6.86,0,0,1-1.63,3.55A.13.13,0,0,1,56.71,182.52Z"/><path class="cls-33" d="M60.56,186.12H60.5a.15.15,0,0,1-.14-.17c.26-2.76.7-5.58,2.17-7.47A43.41,43.41,0,0,0,65.66,174a.15.15,0,0,1,.2-.06.16.16,0,0,1,.06.21,42.57,42.57,0,0,1-3.15,4.57c-1.43,1.82-1.86,4.59-2.11,7.31A.15.15,0,0,1,60.56,186.12Z"/><path class="cls-33" d="M67.55,190.06h0a.15.15,0,0,1-.15-.15c0-1.19.21-5.75.87-6.89a14.18,14.18,0,0,1,1.18-1.66c.22-.28.45-.57.66-.86a21,21,0,0,0,2.24-4.68.15.15,0,0,1,.19-.1.14.14,0,0,1,.09.19,20.56,20.56,0,0,1-2.28,4.77c-.21.29-.44.58-.66.87a13.26,13.26,0,0,0-1.16,1.62c-.58,1-.83,5.27-.83,6.74A.15.15,0,0,1,67.55,190.06Z"/><path class="cls-7" d="M33.71,159A27.93,27.93,0,0,1,37,161c.64.55,1.28,1.26,2.13,1.3a2.58,2.58,0,0,0,1.4-.47,1.2,1.2,0,0,0,.48-.44c.2-.38,0-.84-.26-1.2a6.33,6.33,0,0,0-2.85-2.93c-.6-.22-1.27-.25-1.88-.45-1.26-.43-2.64-2-4.07-1.56C29.78,155.93,32.8,158.43,33.71,159Z"/><path class="cls-33" d="M44.53,165.54a.16.16,0,0,1-.07,0,.14.14,0,0,1-.12-.17,28.35,28.35,0,0,0,.24-4.23,10.44,10.44,0,0,0-.47-3.18c-1-3-4.15-4.56-5.9-5.25a9.43,9.43,0,0,0-2.14-.59c-2.22-.26-4.31.79-6.6,2.08a.15.15,0,0,1-.15-.26c2.34-1.32,4.47-2.39,6.79-2.12a9.26,9.26,0,0,1,2.21.61c3.11,1.23,5.27,3.15,6.07,5.43a10.54,10.54,0,0,1,.49,3.28,26.73,26.73,0,0,1-.25,4.28A.14.14,0,0,1,44.53,165.54Z"/><path class="cls-33" d="M48.7,170.48a.13.13,0,0,1-.12,0,.15.15,0,0,1,0-.2,24.74,24.74,0,0,0,2.19-4.78,28.13,28.13,0,0,0,.92-5.14,17.54,17.54,0,0,0,.18-2.71c-.16-4-3-7.21-5.4-9.22a6.91,6.91,0,0,0-2.85-1.63,7.71,7.71,0,0,0-2.35,0c-.33,0-.67.06-1,.07a19.94,19.94,0,0,1-4.5-.55,18.38,18.38,0,0,0-4.54-.55,17,17,0,0,0-2.72.43c-2.34.54-5.62,1.55-7,4.16a.14.14,0,0,1-.2.06.15.15,0,0,1-.06-.2c1.43-2.72,4.78-3.77,7.18-4.31a16.46,16.46,0,0,1,2.78-.44,19.32,19.32,0,0,1,4.61.55,18.86,18.86,0,0,0,4.43.55c.33,0,.67,0,1-.07a8.05,8.05,0,0,1,2.45,0,7.17,7.17,0,0,1,3,1.69c2.42,2.05,5.34,5.35,5.51,9.44a16.72,16.72,0,0,1-.18,2.75,28.94,28.94,0,0,1-.93,5.2,24.73,24.73,0,0,1-2.22,4.83A.13.13,0,0,1,48.7,170.48Z"/><path class="cls-33" d="M53.09,143.28H53a22.74,22.74,0,0,0-14.15,1.63.16.16,0,0,1-.2-.07.15.15,0,0,1,.07-.2A23,23,0,0,1,53.07,143a.15.15,0,0,1,.12.18A.16.16,0,0,1,53.09,143.28Z"/><path class="cls-33" d="M69,158.17a.12.12,0,0,1-.1,0,19.18,19.18,0,0,0-5.24-1.25c-.78-.11-1.59-.23-2.38-.39-1.22-.24-2.44-.59-3.62-.93a32.58,32.58,0,0,0-4.9-1.14.15.15,0,1,1,0-.3,32.54,32.54,0,0,1,4.94,1.15c1.18.34,2.39.69,3.6.93.78.15,1.58.27,2.36.38A19.15,19.15,0,0,1,69,157.89a.15.15,0,0,1,.08.2A.16.16,0,0,1,69,158.17Z"/><path class="cls-33" d="M87.33,184.81h0a.15.15,0,0,1-.18-.11,7.54,7.54,0,0,0-4.72-5.35l-.65-.22c-.31-.09-.63-.19-.93-.31a11,11,0,0,1-2.2-1.34l-.32-.23c-1.31-.93-2.72-1.79-4.08-2.62l-2.77-1.69a24.4,24.4,0,0,0-2.4-1.33,23.35,23.35,0,0,0-3.6-1.19,74.7,74.7,0,0,0-10.64-2.34.16.16,0,0,1-.13-.17.15.15,0,0,1,.17-.13,75,75,0,0,1,10.68,2.35,23.65,23.65,0,0,1,3.65,1.21,23.68,23.68,0,0,1,2.42,1.34l2.77,1.69c1.37.83,2.78,1.69,4.11,2.64l.32.23a11.35,11.35,0,0,0,2.13,1.3c.3.12.61.21.91.31s.44.13.66.21a7.85,7.85,0,0,1,4.91,5.58A.15.15,0,0,1,87.33,184.81Z"/><path class="cls-33" d="M71.88,190.71h0a.14.14,0,0,1-.16-.14c-.28-2.48.58-4.87,1.57-7.29a8.76,8.76,0,0,1,.8-1.63c.12-.18.26-.35.39-.51a4.08,4.08,0,0,0,.61-.9,4.73,4.73,0,0,0,.12-2.58.14.14,0,0,1,.12-.17.15.15,0,0,1,.17.13,4.9,4.9,0,0,1-.14,2.75,4.5,4.5,0,0,1-.65,1c-.12.16-.25.32-.37.49a8.2,8.2,0,0,0-.78,1.57c-1,2.39-1.81,4.74-1.54,7.15A.16.16,0,0,1,71.88,190.71Z"/><path class="cls-33" d="M63.56,188.14a.17.17,0,0,1-.1,0,.16.16,0,0,1-.08-.2,79.48,79.48,0,0,0,4.39-12.22,2.51,2.51,0,0,1,.27-.57c.12-.23.38-.69.34-.8a.14.14,0,0,1-.09-.18.15.15,0,0,1,.19-.1.26.26,0,0,1,.18.16c.09.22-.07.55-.36,1.06a5,5,0,0,0-.24.5,79.38,79.38,0,0,1-4.41,12.27A.12.12,0,0,1,63.56,188.14Z"/><path class="cls-33" d="M53.13,180.34a.14.14,0,0,1-.11,0,.14.14,0,0,1-.07-.2,28.54,28.54,0,0,0,1.62-4.8,4.06,4.06,0,0,0,.2-1.46c0-.11,0-.21-.05-.32a1.62,1.62,0,0,1,0-.95.15.15,0,0,1,.2-.08.14.14,0,0,1,.08.19,1.33,1.33,0,0,0,0,.79c0,.11,0,.22,0,.34a4.3,4.3,0,0,1-.21,1.57,28.55,28.55,0,0,1-1.64,4.85A.15.15,0,0,1,53.13,180.34Z"/><path class="cls-33" d="M74.91,197h0a.15.15,0,0,1-.18-.11,4.79,4.79,0,0,1,0-1.77,139.39,139.39,0,0,1,3.48-15.94.14.14,0,0,1,.18-.11.15.15,0,0,1,.11.18A137.68,137.68,0,0,0,75,195.2a4.63,4.63,0,0,0,0,1.66A.15.15,0,0,1,74.91,197Z"/><path class="cls-33" d="M80.77,198.19h0a.16.16,0,0,1-.14-.16l.58-11.43c0-.38.08-.85.14-1.34a8.9,8.9,0,0,0,0-3.53.14.14,0,0,1,.09-.19.14.14,0,0,1,.19.08,8.88,8.88,0,0,1,0,3.68c-.06.49-.12.94-.14,1.31l-.58,11.43A.15.15,0,0,1,80.77,198.19Z"/><path class="cls-37" d="M83.16,199h0a.15.15,0,0,1-.15-.16l.45-10.3a10.74,10.74,0,0,0-.39-4.35,9.17,9.17,0,0,0-3.22-3.75A54.88,54.88,0,0,0,74,176.82a23.25,23.25,0,0,0-3.22-1.65,23.62,23.62,0,0,0-5.2-1.18,31.85,31.85,0,0,1-3.83-.72c-.76-.2-1.51-.46-2.24-.72a22,22,0,0,0-3.31-1,19.69,19.69,0,0,0-6.23.12,8,8,0,0,0,1,5.87,16.53,16.53,0,0,0,4.23,4.58c4.84,3.88,10.58,8.11,17.42,9.18a.16.16,0,0,1,.12.18.15.15,0,0,1-.17.12c-6.91-1.08-12.68-5.34-17.56-9.24a16.81,16.81,0,0,1-4.3-4.67,8.28,8.28,0,0,1-1-6.2l0-.09.1,0a20.64,20.64,0,0,1,6.43-.13,22.22,22.22,0,0,1,3.35,1c.72.25,1.47.51,2.22.71a33,33,0,0,0,3.8.72,23.85,23.85,0,0,1,5.26,1.19,24.38,24.38,0,0,1,3.26,1.67A56.66,56.66,0,0,1,80,180.24a9.43,9.43,0,0,1,3.31,3.88,11.21,11.21,0,0,1,.42,4.47l-.46,10.31A.13.13,0,0,1,83.16,199Z"/><path class="cls-4" d="M242.63,183.74a31,31,0,0,1-3.95-4.2,36.86,36.86,0,0,1-7.24-14.91c-4-18.93,11.59-34,19.53-33.85a26,26,0,0,1,7.18,1c4.49,1.36,7.17,4.15,12.08,8.28,1,.88,2.2,1.83,3.49,2.83,2.12,1.65,5,2.41,8,3.45,4.26,1.5,8.68,3.57,11.2,9.67.13.3.24.6.36.9C303.76,184.75,263.76,202.38,242.63,183.74Z"/><path class="cls-6" d="M241.11,179.8a31.62,31.62,0,0,1-3.94-4.2,39.5,39.5,0,0,1-6-10.57c-4-18.94,11.59-34,19.53-33.85a25.61,25.61,0,0,1,7.18,1c4.49,1.36,7.17,4.15,12.08,8.28,1,.88,2.2,1.83,3.49,2.84,2.12,1.64,5,2.41,8,3.45,4.26,1.5,8.68,3.57,11.2,9.66.13.31.24.61.36.91C298.06,182.57,261.13,197.45,241.11,179.8Z"/><path class="cls-38" d="M241.86,170.86c-2-3.69-3.81-7.55-4.36-11.69a20.18,20.18,0,0,1,6.72-17.61,29.16,29.16,0,0,1,3.31-2.41,12.43,12.43,0,0,1,4.29-2,9,9,0,0,1,6.41,1.49,21.14,21.14,0,0,1,4.85,4.64,6.1,6.1,0,0,1,1.44,2.51,5.32,5.32,0,0,1-.2,2.47,15.71,15.71,0,0,1-3.35,6.24,1.76,1.76,0,0,1-.71.56,1.6,1.6,0,0,1-1-.07c-2.2-.72-3.93-2.73-6.23-2.95a2,2,0,0,0-1,.13,2.34,2.34,0,0,0-.7.56,7.07,7.07,0,0,0-1.87,6.53c.91,3.22,4.63,5.41,4.56,8.75a8.17,8.17,0,0,1-1.69,4.14c-.88,1.35-3.47,6.82-5.3,5.87C244.69,176.88,243,173,241.86,170.86Z"/><path class="cls-26" d="M251.93,143.58a3.08,3.08,0,0,1,.13-1.45.64.64,0,0,1,1-.34,1.39,1.39,0,0,1,.62,1.12,4.18,4.18,0,0,1-.17,1.31c-.12.46-.2,2.12-.93,1.65C252.12,145.58,252,144.06,251.93,143.58Z"/><path class="cls-26" d="M247.55,146.93a3.05,3.05,0,0,1-.8-1.21.78.78,0,0,1,0-.4.7.7,0,0,1,.61-.49,1.42,1.42,0,0,1,1.18.49,4.13,4.13,0,0,1,.67,1.15c.2.43,1.16,1.78.3,1.87C248.94,148.39,247.89,147.28,247.55,146.93Z"/><path class="cls-26" d="M244,152.06a3.07,3.07,0,0,1-1.29-.67.8.8,0,0,1-.22-.33.71.71,0,0,1,.29-.73,1.39,1.39,0,0,1,1.27-.14,4,4,0,0,1,1.15.67c.38.28,1.88,1,1.17,1.49C245.94,152.66,244.48,152.2,244,152.06Z"/><path class="cls-26" d="M243.7,156.83a3.05,3.05,0,0,1-1.44-.22,1,1,0,0,1-.32-.24.71.71,0,0,1,0-.78,1.4,1.4,0,0,1,1.16-.55,4.12,4.12,0,0,1,1.3.26c.46.14,2.11.34,1.59,1C245.71,156.77,244.18,156.81,243.7,156.83Z"/><path class="cls-26" d="M244.29,162.66a3,3,0,0,1-1.45,0,.75.75,0,0,1-.35-.19.68.68,0,0,1-.09-.77,1.39,1.39,0,0,1,1-.74,4.18,4.18,0,0,1,1.32,0c.48.07,2.13,0,1.74.75C246.27,162.27,244.77,162.56,244.29,162.66Z"/><path class="cls-26" d="M246.67,168.23a3.08,3.08,0,0,1-1.42.33.72.72,0,0,1-.38-.1.71.71,0,0,1-.26-.74,1.41,1.41,0,0,1,.87-.94,4.11,4.11,0,0,1,1.3-.25c.48,0,2.08-.48,1.86.36C248.51,167.42,247.11,168,246.67,168.23Z"/><path class="cls-26" d="M257.91,144.41a3.14,3.14,0,0,1,.82-1.2,1,1,0,0,1,.36-.18.7.7,0,0,1,.68.38,1.41,1.41,0,0,1,0,1.28,4.15,4.15,0,0,1-.81,1.06c-.32.35-1.21,1.75-1.62,1C257.09,146.25,257.72,144.86,257.91,144.41Z"/><path class="cls-38" d="M263.44,184.74c4.18-.08,8.44-.37,12.33-1.92a20.14,20.14,0,0,0,12.07-14.47,29,29,0,0,0,.48-4.06,12.18,12.18,0,0,0-.39-4.7,9,9,0,0,0-4.44-4.86,21.29,21.29,0,0,0-6.41-2,6.19,6.19,0,0,0-2.9,0,5.39,5.39,0,0,0-2.06,1.38,15.71,15.71,0,0,0-3.8,6,1.72,1.72,0,0,0-.14.89,1.64,1.64,0,0,0,.55.85c1.71,1.57,4.31,2.08,5.62,4a2,2,0,0,1,.4,1,2.43,2.43,0,0,1-.15.88,7.09,7.09,0,0,1-4.78,4.83c-3.25.78-7-1.4-9.86.29a8.25,8.25,0,0,0-2.79,3.5c-.74,1.43-4.25,6.37-2.52,7.5C256.81,185.22,261,184.79,263.44,184.74Z"/><path class="cls-26" d="M282.31,162.61a2.93,2.93,0,0,0,1.2-.82.63.63,0,0,0-.19-1,1.38,1.38,0,0,0-1.28,0,3.75,3.75,0,0,0-1.06.8c-.35.32-1.76,1.2-1,1.61C280.47,163.43,281.86,162.8,282.31,162.61Z"/><path class="cls-26" d="M281.53,168.08a3,3,0,0,0,1.45.1.8.8,0,0,0,.36-.17.7.7,0,0,0,.13-.77,1.44,1.44,0,0,0-1-.79,4.55,4.55,0,0,0-1.33,0c-.47,0-2.12-.13-1.77.66C279.58,167.58,281.06,168,281.53,168.08Z"/><path class="cls-26" d="M278.78,173.66a3,3,0,0,0,1.22.8.74.74,0,0,0,.39,0,.7.7,0,0,0,.49-.61,1.42,1.42,0,0,0-.49-1.18,4.13,4.13,0,0,0-1.15-.67c-.43-.2-1.79-1.16-1.87-.29C277.32,172.28,278.43,173.33,278.78,173.66Z"/><path class="cls-26" d="M274.78,176.28a3,3,0,0,0,.9,1.14.69.69,0,0,0,.36.16.7.7,0,0,0,.66-.42,1.42,1.42,0,0,0-.09-1.28,4.11,4.11,0,0,0-.86-1c-.35-.33-1.32-1.67-1.68-.88C273.84,174.49,274.56,175.85,274.78,176.28Z"/><path class="cls-26" d="M269.4,178.61a3,3,0,0,0,.69,1.28.83.83,0,0,0,.33.22.71.71,0,0,0,.72-.3,1.41,1.41,0,0,0,.13-1.28,4.41,4.41,0,0,0-.68-1.14c-.29-.38-1-1.87-1.51-1.15C268.78,176.69,269.26,178.15,269.4,178.61Z"/><path class="cls-26" d="M263.38,179.26a3.07,3.07,0,0,0,.4,1.4.75.75,0,0,0,.28.28.69.69,0,0,0,.77-.13,1.43,1.43,0,0,0,.4-1.22,4.35,4.35,0,0,0-.42-1.26c-.2-.43-.6-2-1.23-1.45C263.19,177.26,263.34,178.78,263.38,179.26Z"/><path class="cls-26" d="M278.66,157.81a3.09,3.09,0,0,0,.64-1.31.9.9,0,0,0,0-.4.73.73,0,0,0-.67-.41,1.41,1.41,0,0,0-1.11.64,4.09,4.09,0,0,0-.53,1.21c-.15.46-.94,1.92-.07,1.9C277.45,159.42,278.36,158.19,278.66,157.81Z"/><path class="cls-26" d="M103.57,131.39a6.55,6.55,0,0,0-1.92-1.76,9.76,9.76,0,0,1,5.59,1.69A8.94,8.94,0,0,0,103.57,131.39Z"/><path class="cls-25" d="M128.93,188.28c-4.48,5.05-8,3.16-8,3.16s-.12,2.49-6,5.38-8.62-.28-8.62-.28.68,1.14-7.19,3.84c-2.2.76-4.5.24-6.83-1.18a6.25,6.25,0,0,0,1.52-.32c7.87-2.7,7.19-3.84,7.19-3.84s2.76,3.17,8.62.28,6-5.39,6-5.39,3.58,1.89,8.05-3.16c3.86-4.35.13-45.64-13.07-54.1C128,131.91,133.27,183.38,128.93,188.28Z"/><path class="cls-26" d="M123.62,186.77c-4.47,5-8.05,3.16-8.05,3.16s-.11,2.5-6,5.39S101,195,101,195s.68,1.14-7.19,3.84a6.25,6.25,0,0,1-1.52.32c-11-6.74-22.45-33.6-25.47-39.59-3.65-7.26,3.9-12.92,3.9-12.92C69.91,135.19,87.46,135,87.46,135c6.21-4.18,10.85-5.41,14.19-5.35a6.55,6.55,0,0,1,1.92,1.76,8.94,8.94,0,0,1,3.67-.07,6.27,6.27,0,0,1,1.64,1.58,9,9,0,0,1,1.67-.23C123.75,141.13,127.48,182.42,123.62,186.77Z"/><path class="cls-25" d="M87.46,135s-17.55.21-16.76,11.71l9.53.32s1.59-7.23,8.4-9.41c2-.65,8.1-1.95,13.56.4l6.69-5.1S103.33,124.3,87.46,135Z"/><path class="cls-10" d="M88.81,137.6a3.85,3.85,0,0,1-1.29-1.4,7.56,7.56,0,0,1-.7-1.73,35.61,35.61,0,0,1-.67-3.52l-.15-.84-.19-.86c-.12-.6-.22-1.19-.31-1.78-.18-1.19-.32-2.38-.42-3.58s-.17-2.4-.17-3.63a26.94,26.94,0,0,1,.24-3.76,16.4,16.4,0,0,1,.42-2,9.34,9.34,0,0,1,.85-2.07,5.81,5.81,0,0,1,1.88-2,4.89,4.89,0,0,1,1.46-.63,5.84,5.84,0,0,1,1.53-.17h.26a2.4,2.4,0,0,1-.12,4.8,2.62,2.62,0,0,1-.5-.07.88.88,0,0,0-.39-.06,1.23,1.23,0,0,0-.6.44,7.56,7.56,0,0,0-1.2,2.5,30.15,30.15,0,0,0-1.07,6.59c-.08,1.14-.12,2.29-.12,3.44,0,.58,0,1.15,0,1.72l0,.41,0,.46c0,.31,0,.61,0,.91a32.19,32.19,0,0,0,.16,3.45,4.4,4.4,0,0,0,1.28,2.91h0a.26.26,0,0,1,0,.37A.28.28,0,0,1,88.81,137.6Z"/><path class="cls-39" d="M86.43,165.21a.43.43,0,0,1-.49-.17c-.33-.5-8.11-12.33-4.91-20.95,1.33-3.6,4.39-6.09,9.09-7.41,5.09-1.43,9.52-.93,13.17,1.49,7.62,5.05,9.16,16.54,9.22,17a.43.43,0,0,1-.86.11c0-.12-1.55-11.59-8.84-16.42-3.43-2.27-7.62-2.74-12.45-1.38-4.42,1.24-7.29,3.55-8.52,6.87-3,8.21,4.74,20.06,4.82,20.18a.43.43,0,0,1-.12.6Z"/><path class="cls-39" d="M106.42,197a.47.47,0,0,1-.31,0c-4.68-2.1-13.54-18.27-13.7-19a.42.42,0,0,1,.33-.51.44.44,0,0,1,.51.29c.29.74,8.89,16.49,13.22,18.43a.43.43,0,0,1,.21.57A.42.42,0,0,1,106.42,197Z"/><path class="cls-39" d="M121,191.85H121a.43.43,0,0,1-.5-.35c0-.18-3-17.89-5.12-22.76a.44.44,0,0,1,.23-.57.43.43,0,0,1,.56.22c2.17,5,5.06,22.23,5.18,23A.43.43,0,0,1,121,191.85Z"/><path class="cls-39" d="M80.85,148.38a.41.41,0,0,1-.34,0c-3.18-1.71-9.07-1.41-9.66-1.26a.43.43,0,0,1-.33-.8c.53-.24,6.89-.59,10.4,1.3a.43.43,0,0,1,.18.58A.42.42,0,0,1,80.85,148.38Z"/><path class="cls-39" d="M102.88,138.23a.46.46,0,0,1-.26,0,.42.42,0,0,1-.28-.53c0-.18.7-1.92,6.33-5.18a.43.43,0,0,1,.43.75c-5.3,3.06-5.93,4.67-5.94,4.69A.42.42,0,0,1,102.88,138.23Z"/><path class="cls-40" d="M175.58,198.91a2.25,2.25,0,0,1-1,0,.73.73,0,0,1-.55-.76,1.12,1.12,0,0,1,.24-.44l1.44-1.9a3.44,3.44,0,0,1-1.11-.24,1.18,1.18,0,0,1-.71-.84,1.08,1.08,0,0,1,.63-1.08,1.75,1.75,0,0,1,1.31,0,4.72,4.72,0,0,0-1.12-1.45c-.4-.47-.65-1.22-.23-1.67s1.28-.21,1.88.11l3,1.6a3.85,3.85,0,0,1,.81.52,2.63,2.63,0,0,1,.72,2.22C180.63,197.8,178,198.52,175.58,198.91Z"/><path class="cls-40" d="M236.66,166.9a2.13,2.13,0,0,1,.57-.84.75.75,0,0,1,.93,0,1.07,1.07,0,0,1,.23.45l.76,2.25A3.57,3.57,0,0,1,240,168a1.21,1.21,0,0,1,1.09-.11,1.07,1.07,0,0,1,.54,1.13,1.78,1.78,0,0,1-.74,1.08,4.89,4.89,0,0,0,1.82-.11c.62-.06,1.37.15,1.51.75s-.55,1.18-1.15,1.5l-3,1.6a4.55,4.55,0,0,1-.88.37,2.61,2.61,0,0,1-2.24-.66C234.73,171.69,235.62,169.12,236.66,166.9Z"/><path class="cls-40" d="M240.32,172.15a5.4,5.4,0,0,1,1.31,1.94c2.06,6.91-1.5,27.72-33,31.67-23.33,2.92-28.84-5.32-30.13-9.77,3,4.2,10.34,8.69,28.51,6.41C236.59,198.7,241.53,180.12,240.32,172.15Z"/><path class="cls-41" d="M240.32,172.15c1.21,8-3.73,26.55-33.27,30.25-18.17,2.28-25.53-2.21-28.51-6.41a8.77,8.77,0,0,1-.39-2.65c.43-5.89,12.77-11.25,29.58-9.46,8.74.92,16.82-10.12,23.19-13.36A7.78,7.78,0,0,1,240.32,172.15Z"/></svg>