<svg id="Layer_1" data-name="Layer 1" xmlns="http://www.w3.org/2000/svg" viewBox="0 0 48.54 48.54"><path d="M24.66,9.69l-.39-.26-.39.26c-.4.26-9.79,6.6-9.79,14.65s4.57,14.77,10.18,14.77,10.18-6.62,10.18-14.77S25.06,10,24.66,9.69ZM23.57,24.27l-3.44-3.44-1,1,4.43,4.43v5.44L18.28,26.4l-1,1,6.28,6.29v4c-4.52-.54-8.08-6.3-8.08-13.32,0-5.76,5.66-10.8,8.08-12.69ZM25,37.66V31.31L31.26,25l-1-1L25,29.34V23.88l3.59-3.72-1-1L25,21.87V11.65c2.43,1.89,8.08,6.92,8.08,12.69,0,7-3.56,12.77-8.08,13.32Z"/><path d="M24.27,0A24.27,24.27,0,1,0,48.54,24.27,24.3,24.3,0,0,0,24.27,0Zm0,46.67a22.4,22.4,0,1,1,22.4-22.4A22.43,22.43,0,0,1,24.27,46.67Z"/></svg>