<svg id="Layer_1" data-name="Layer 1" xmlns="http://www.w3.org/2000/svg" viewBox="0 0 648.35 199.76"><defs><style>.cls-1{fill:#d6e5e5;}.cls-2{fill:#222223;}.cls-3{fill:#acb3b7;}.cls-4{fill:#6b6f72;}.cls-5{fill:#31383d;}.cls-6{fill:#a72029;}.cls-7{fill:#c44955;}.cls-8{fill:#fcebcd;}.cls-9{fill:#3f3f41;}.cls-10{fill:#d6d6d6;}.cls-11{fill:#4e4f51;}.cls-12{fill:#7c0e19;}.cls-13{fill:#3e934e;}</style></defs><path class="cls-1" d="M89.27,35.09a10.91,10.91,0,0,0-5.73-9.6A15.69,15.69,0,1,0,55.59,15.7a15.79,15.79,0,0,0,1,5.39A14,14,0,0,0,59.42,48.8a14.43,14.43,0,0,0,3-.32,8.91,8.91,0,1,0,17.46-2.6A10.9,10.9,0,0,0,89.27,35.09Z"/><rect class="cls-2" x="202.1" y="148.58" width="354.38" height="6.38"/><path class="cls-3" d="M52.07,94.62a1.71,1.71,0,0,1-1.71-1.7V71.64L60.92,61.08a1.7,1.7,0,1,1,2.41,2.41l-9.56,9.56V92.92A1.7,1.7,0,0,1,52.07,94.62Z"/><rect class="cls-4" x="46.56" y="92.92" width="11" height="24.12"/><rect class="cls-5" x="46.56" y="102.99" width="11" height="14.05"/><rect class="cls-6" x="96.68" y="38.3" width="97.16" height="7.7" rx="2"/><path class="cls-7" d="M183.57,46H109.5L95.71,102.75,23.57,122v39.44h176V122Zm-42.64,57.72h-38L114,50.8h26.94Zm7.21,0V50.8H177l10.26,52.91Z"/><polygon class="cls-8" points="102.93 103.71 140.93 103.71 140.93 50.8 113.99 50.8 102.93 103.71"/><polygon class="cls-8" points="148.14 50.8 148.14 103.71 187.26 103.71 177 50.8 148.14 50.8"/><path class="cls-6" d="M158.29,104.83A48.69,48.69,0,0,0,111,165.31h14.17a35.15,35.15,0,1,1,66.16,0h14.17a48.72,48.72,0,0,0-47.25-60.48Z"/><path class="cls-6" d="M39,128A39,39,0,0,0,0,167a38.6,38.6,0,0,0,1.16,9.43H12.51A27.78,27.78,0,0,1,10.85,167a28.15,28.15,0,1,1,54.65,9.43H76.85A39,39,0,0,0,39,128Z"/><path class="cls-9" d="M201.57,161.75a43.44,43.44,0,0,0,0-16.7h-3.19a38.56,38.56,0,0,0-1.19-4.4l2.76-1.58a44,44,0,0,0-8.36-14.47l-2.76,1.6a42.27,42.27,0,0,0-3.21-3.21l1.59-2.77a43.93,43.93,0,0,0-14.46-8.35l-1.59,2.75a43,43,0,0,0-4.39-1.19v-3.18a43,43,0,0,0-16.71,0v3.18a43,43,0,0,0-4.39,1.19l-1.59-2.75a43.93,43.93,0,0,0-14.46,8.35l1.59,2.77A40.51,40.51,0,0,0,128,126.2l-2.76-1.6a44,44,0,0,0-8.36,14.47l2.75,1.58a40.7,40.7,0,0,0-1.18,4.4h-3.19a42.92,42.92,0,0,0,0,16.7h3.19a40.7,40.7,0,0,0,1.18,4.4l-2.75,1.59a44,44,0,0,0,8.36,14.46l2.76-1.6a40.51,40.51,0,0,0,3.21,3.21l-1.59,2.77a43.75,43.75,0,0,0,14.46,8.35l1.59-2.75a43,43,0,0,0,4.39,1.19v3.18a43,43,0,0,0,16.71,0v-3.18a43,43,0,0,0,4.39-1.19l1.59,2.75a43.75,43.75,0,0,0,14.46-8.35l-1.59-2.77a42.27,42.27,0,0,0,3.21-3.21l2.76,1.6A44,44,0,0,0,200,167.74l-2.76-1.59a38.56,38.56,0,0,0,1.19-4.4Zm-43.16,13.89a22.24,22.24,0,1,1,22.24-22.24A22.24,22.24,0,0,1,158.41,175.64Z"/><circle class="cls-10" cx="158.41" cy="153.4" r="22.24" transform="translate(-61.3 172.21) rotate(-48.97)"/><circle class="cls-11" cx="158.41" cy="153.4" r="10.94" transform="translate(-7.31 298.87) rotate(-85.35)"/><circle class="cls-11" cx="158.54" cy="140.17" r="1.68"/><path class="cls-11" d="M153.37,141a1.69,1.69,0,1,1-2.3-.61A1.68,1.68,0,0,1,153.37,141Z"/><path class="cls-11" d="M147.86,145.22a1.68,1.68,0,1,1-1.68,2.92,1.68,1.68,0,1,1,1.68-2.92Z"/><circle class="cls-11" cx="145.19" cy="153.28" r="1.68"/><path class="cls-11" d="M146.06,158.45a1.68,1.68,0,1,1-.62,2.3A1.67,1.67,0,0,1,146.06,158.45Z"/><path class="cls-11" d="M150.23,164a1.68,1.68,0,1,1,.62,2.3A1.68,1.68,0,0,1,150.23,164Z"/><circle class="cls-11" cx="158.29" cy="166.63" r="1.68"/><path class="cls-11" d="M163.46,165.76a1.68,1.68,0,1,1,2.3.62A1.69,1.69,0,0,1,163.46,165.76Z"/><path class="cls-11" d="M169,161.58a1.68,1.68,0,1,1,2.3-.62A1.68,1.68,0,0,1,169,161.58Z"/><circle class="cls-11" cx="171.64" cy="153.53" r="1.68"/><path class="cls-11" d="M170.77,148.35a1.68,1.68,0,1,1,.62-2.3A1.68,1.68,0,0,1,170.77,148.35Z"/><path class="cls-11" d="M166.59,142.85a1.68,1.68,0,1,1-.61-2.3A1.68,1.68,0,0,1,166.59,142.85Z"/><path class="cls-9" d="M68.87,172.42a30.3,30.3,0,0,0,0-11.7H66.64a26.92,26.92,0,0,0-.84-3.08l1.93-1.11a30.67,30.67,0,0,0-5.85-10.13l-1.94,1.12a28,28,0,0,0-2.24-2.25l1.11-1.93a30.69,30.69,0,0,0-10.13-5.86l-1.11,1.93a28.47,28.47,0,0,0-3.08-.83v-2.23a29.79,29.79,0,0,0-11.7,0v2.23a29.11,29.11,0,0,0-3.08.83l-1.11-1.93a30.69,30.69,0,0,0-10.13,5.86l1.12,1.93a29.85,29.85,0,0,0-2.25,2.25L15.4,146.4a30.84,30.84,0,0,0-5.85,10.13l1.93,1.11a29.11,29.11,0,0,0-.83,3.08H8.42a29.79,29.79,0,0,0,0,11.7h2.23a28.47,28.47,0,0,0,.83,3.08l-1.93,1.11a30.84,30.84,0,0,0,5.85,10.13l1.94-1.11a28,28,0,0,0,2.25,2.24l-1.12,1.94a30.67,30.67,0,0,0,10.13,5.85l1.11-1.93a26.92,26.92,0,0,0,3.08.84v2.23a30.3,30.3,0,0,0,11.7,0v-2.23a26.37,26.37,0,0,0,3.08-.84l1.11,1.93a30.67,30.67,0,0,0,10.13-5.85l-1.11-1.94a26.31,26.31,0,0,0,2.24-2.24l1.94,1.11a30.67,30.67,0,0,0,5.85-10.13L65.8,175.5a26.37,26.37,0,0,0,.84-3.08Zm-30.23,9.73a15.58,15.58,0,1,1,15.58-15.58A15.58,15.58,0,0,1,38.64,182.15Z"/><circle class="cls-10" cx="38.64" cy="166.57" r="15.58" transform="translate(-106.47 76.11) rotate(-45)"/><circle class="cls-11" cx="38.64" cy="166.57" r="7.66"/><circle class="cls-11" cx="38.73" cy="157.31" r="1.18"/><path class="cls-11" d="M35.11,157.92a1.18,1.18,0,1,1-1.61-.44A1.19,1.19,0,0,1,35.11,157.92Z"/><path class="cls-11" d="M31.25,160.84a1.18,1.18,0,0,1-1.18,2,1.18,1.18,0,0,1,1.18-2Z"/><path class="cls-11" d="M29.38,165.31a1.18,1.18,0,1,1-1.18,1.17A1.17,1.17,0,0,1,29.38,165.31Z"/><path class="cls-11" d="M30,170.11a1.18,1.18,0,1,1-.44,1.61A1.18,1.18,0,0,1,30,170.11Z"/><path class="cls-11" d="M32.91,174a1.19,1.19,0,0,1,1.61-.43,1.18,1.18,0,1,1-1.18,2A1.18,1.18,0,0,1,32.91,174Z"/><path class="cls-11" d="M37.37,175.84A1.18,1.18,0,1,1,38.55,177,1.18,1.18,0,0,1,37.37,175.84Z"/><path class="cls-11" d="M42.18,175.23a1.18,1.18,0,1,1,2-1.18,1.18,1.18,0,0,1-2,1.18Z"/><path class="cls-11" d="M46,172.3a1.18,1.18,0,1,1,1.61-.43A1.17,1.17,0,0,1,46,172.3Z"/><path class="cls-11" d="M47.91,167.84a1.18,1.18,0,1,1,1.18-1.18A1.18,1.18,0,0,1,47.91,167.84Z"/><path class="cls-11" d="M47.3,163a1.18,1.18,0,0,1-1.18-2,1.18,1.18,0,0,1,1.18,2Z"/><path class="cls-11" d="M44.37,159.18a1.18,1.18,0,0,1-2-1.18,1.18,1.18,0,1,1,2,1.18Z"/><rect class="cls-12" x="69.44" y="126.88" width="24.05" height="2.33"/><rect class="cls-12" x="69.44" y="131.33" width="24.05" height="2.33"/><rect class="cls-12" x="69.44" y="135.77" width="24.05" height="2.33"/><rect class="cls-2" x="240.01" y="160.05" width="185.66" height="10.92"/><rect class="cls-7" x="234.71" y="105.46" width="196.24" height="58.07"/><rect class="cls-6" x="240.01" y="108.94" width="185.66" height="5.58"/><rect class="cls-6" x="240.01" y="118.05" width="185.66" height="5.58"/><rect class="cls-6" x="240.01" y="127.15" width="185.66" height="5.58"/><rect class="cls-6" x="240.01" y="145.36" width="185.66" height="5.58"/><rect class="cls-6" x="240.01" y="154.47" width="185.66" height="5.58"/><rect class="cls-6" x="240.01" y="136.26" width="185.66" height="5.58"/><path class="cls-9" d="M289.79,181.34a22.43,22.43,0,0,0,0-8.64h-1.65a21.21,21.21,0,0,0-.61-2.28l1.42-.82a22.61,22.61,0,0,0-4.32-7.48l-1.43.82c-.52-.58-1.08-1.13-1.66-1.66l.82-1.43a22.78,22.78,0,0,0-7.48-4.32l-.82,1.43a19.5,19.5,0,0,0-2.27-.62v-1.65a22.43,22.43,0,0,0-8.64,0v1.65a19.14,19.14,0,0,0-2.28.62l-.82-1.43a22.78,22.78,0,0,0-7.48,4.32l.83,1.43c-.59.53-1.14,1.08-1.67,1.66l-1.42-.82A22.63,22.63,0,0,0,246,169.6l1.43.82a19.14,19.14,0,0,0-.62,2.28h-1.65a22.43,22.43,0,0,0,0,8.64h1.65a19.5,19.5,0,0,0,.62,2.27l-1.43.82a22.78,22.78,0,0,0,4.32,7.48l1.43-.82a21.8,21.8,0,0,0,1.67,1.66l-.83,1.43a22.61,22.61,0,0,0,7.48,4.32l.82-1.42a21.21,21.21,0,0,0,2.28.61v1.65a22.43,22.43,0,0,0,8.64,0v-1.65a21.67,21.67,0,0,0,2.27-.61l.82,1.42a22.61,22.61,0,0,0,7.48-4.32l-.82-1.43a21.67,21.67,0,0,0,1.66-1.66l1.43.82a22.61,22.61,0,0,0,4.32-7.48l-1.42-.82a21.67,21.67,0,0,0,.61-2.27Zm-22.32,7.18A11.51,11.51,0,1,1,279,177,11.5,11.5,0,0,1,267.47,188.52Z"/><circle class="cls-10" cx="267.47" cy="177.02" r="11.5" transform="translate(-24.12 43.42) rotate(-8.88)"/><path class="cls-11" d="M267.47,171.36a5.66,5.66,0,1,0,5.66,5.66A5.65,5.65,0,0,0,267.47,171.36Z"/><circle class="cls-11" cx="267.53" cy="170.17" r="0.87"/><path class="cls-11" d="M264.86,170.62a.88.88,0,0,1-.32,1.19.87.87,0,0,1-.87-1.51A.88.88,0,0,1,264.86,170.62Z"/><path class="cls-11" d="M262,172.78a.87.87,0,1,1-1.19.32A.87.87,0,0,1,262,172.78Z"/><path class="cls-11" d="M260.62,176.08a.87.87,0,1,1-.87.87A.87.87,0,0,1,260.62,176.08Z"/><path class="cls-11" d="M261.07,179.63a.87.87,0,1,1,.87,1.51.87.87,0,0,1-.87-1.51Z"/><path class="cls-11" d="M263.24,182.47a.87.87,0,1,1,.31,1.19A.87.87,0,0,1,263.24,182.47Z"/><path class="cls-11" d="M266.53,183.86a.87.87,0,1,1,.87.87A.87.87,0,0,1,266.53,183.86Z"/><path class="cls-11" d="M270.08,183.41a.87.87,0,0,1,1.51-.87.88.88,0,0,1-.32,1.19A.87.87,0,0,1,270.08,183.41Z"/><path class="cls-11" d="M272.92,181.25a.87.87,0,1,1,1.19-.32A.88.88,0,0,1,272.92,181.25Z"/><path class="cls-11" d="M274.31,178a.87.87,0,1,1,.87-.87A.87.87,0,0,1,274.31,178Z"/><path class="cls-11" d="M273.86,174.41a.88.88,0,0,1-1.19-.32.87.87,0,1,1,1.19.32Z"/><path class="cls-11" d="M271.7,171.56a.87.87,0,1,1-1.51-.87.87.87,0,0,1,1.51.87Z"/><path class="cls-9" d="M422.5,181.34a22.43,22.43,0,0,0,0-8.64h-1.65a19.14,19.14,0,0,0-.62-2.28l1.43-.82a22.78,22.78,0,0,0-4.32-7.48l-1.43.82c-.53-.58-1.08-1.13-1.67-1.66l.83-1.43a22.78,22.78,0,0,0-7.48-4.32l-.82,1.43a19.14,19.14,0,0,0-2.28-.62v-1.65a22.43,22.43,0,0,0-8.64,0v1.65a19.5,19.5,0,0,0-2.27.62l-.82-1.43a22.78,22.78,0,0,0-7.48,4.32l.82,1.43c-.58.53-1.14,1.08-1.66,1.66l-1.43-.82a22.61,22.61,0,0,0-4.32,7.48l1.42.82a21.21,21.21,0,0,0-.61,2.28h-1.65a22.43,22.43,0,0,0,0,8.64h1.65a21.67,21.67,0,0,0,.61,2.27l-1.42.82a22.61,22.61,0,0,0,4.32,7.48l1.43-.82a21.67,21.67,0,0,0,1.66,1.66l-.82,1.43a22.61,22.61,0,0,0,7.48,4.32l.82-1.42a21.67,21.67,0,0,0,2.27.61v1.65a22.43,22.43,0,0,0,8.64,0v-1.65a21.21,21.21,0,0,0,2.28-.61l.82,1.42a22.61,22.61,0,0,0,7.48-4.32l-.83-1.43a21.8,21.8,0,0,0,1.67-1.66l1.43.82a22.78,22.78,0,0,0,4.32-7.48l-1.43-.82a19.5,19.5,0,0,0,.62-2.27Zm-22.33,7.18A11.51,11.51,0,1,1,411.68,177,11.5,11.5,0,0,1,400.17,188.52Z"/><circle class="cls-10" cx="400.17" cy="177.02" r="11.5"/><path class="cls-11" d="M400.17,171.36a5.66,5.66,0,1,0,5.66,5.66A5.66,5.66,0,0,0,400.17,171.36Z"/><path class="cls-11" d="M401.11,170.17a.87.87,0,1,1-.87-.87A.87.87,0,0,1,401.11,170.17Z"/><path class="cls-11" d="M397.56,170.62a.87.87,0,1,1-1.51.87.87.87,0,0,1,1.51-.87Z"/><path class="cls-11" d="M394.72,172.78A.88.88,0,0,1,395,174a.87.87,0,1,1-1.5-.87A.88.88,0,0,1,394.72,172.78Z"/><path class="cls-11" d="M393.33,176.08a.87.87,0,1,1-.87.87A.87.87,0,0,1,393.33,176.08Z"/><path class="cls-11" d="M393.78,179.63a.87.87,0,1,1,.87,1.51.88.88,0,0,1-1.19-.32A.87.87,0,0,1,393.78,179.63Z"/><path class="cls-11" d="M395.94,182.47a.87.87,0,1,1,.32,1.19A.87.87,0,0,1,395.94,182.47Z"/><path class="cls-11" d="M399.24,183.86a.87.87,0,1,1,.87.87A.87.87,0,0,1,399.24,183.86Z"/><path class="cls-11" d="M402.78,183.41a.88.88,0,0,1,.32-1.19.87.87,0,1,1-.32,1.19Z"/><path class="cls-11" d="M405.63,181.25a.87.87,0,1,1,1.19-.32A.87.87,0,0,1,405.63,181.25Z"/><path class="cls-11" d="M407,178a.87.87,0,1,1,.87-.87A.87.87,0,0,1,407,178Z"/><path class="cls-11" d="M406.57,174.41a.88.88,0,0,1-1.19-.32.87.87,0,0,1,1.51-.87A.88.88,0,0,1,406.57,174.41Z"/><path class="cls-11" d="M404.4,171.56a.87.87,0,1,1-.31-1.19A.87.87,0,0,1,404.4,171.56Z"/><rect class="cls-2" x="457.41" y="160.05" width="185.66" height="10.92"/><rect class="cls-7" x="452.11" y="105.46" width="196.24" height="58.07"/><rect class="cls-6" x="457.41" y="108.94" width="185.66" height="5.58"/><rect class="cls-6" x="457.41" y="118.05" width="185.66" height="5.58"/><rect class="cls-6" x="457.41" y="127.15" width="185.66" height="5.58"/><rect class="cls-6" x="457.41" y="145.36" width="185.66" height="5.58"/><rect class="cls-6" x="457.41" y="154.47" width="185.66" height="5.58"/><rect class="cls-6" x="457.41" y="136.26" width="185.66" height="5.58"/><path class="cls-9" d="M507.19,181.34a22.43,22.43,0,0,0,0-8.64h-1.65a21.21,21.21,0,0,0-.61-2.28l1.42-.82a22.61,22.61,0,0,0-4.32-7.48l-1.43.82c-.52-.58-1.08-1.13-1.66-1.66l.82-1.43a22.78,22.78,0,0,0-7.48-4.32l-.82,1.43a19.5,19.5,0,0,0-2.27-.62v-1.65a22.43,22.43,0,0,0-8.64,0v1.65a19.14,19.14,0,0,0-2.28.62l-.82-1.43a22.78,22.78,0,0,0-7.48,4.32l.83,1.43c-.59.53-1.14,1.08-1.67,1.66l-1.43-.82a22.78,22.78,0,0,0-4.32,7.48l1.43.82a19.14,19.14,0,0,0-.62,2.28h-1.65a22.43,22.43,0,0,0,0,8.64h1.65a19.5,19.5,0,0,0,.62,2.27l-1.43.82a22.78,22.78,0,0,0,4.32,7.48l1.43-.82a21.8,21.8,0,0,0,1.67,1.66l-.83,1.43a22.61,22.61,0,0,0,7.48,4.32l.82-1.42a21.21,21.21,0,0,0,2.28.61v1.65a22.43,22.43,0,0,0,8.64,0v-1.65a21.67,21.67,0,0,0,2.27-.61l.82,1.42a22.61,22.61,0,0,0,7.48-4.32l-.82-1.43a21.67,21.67,0,0,0,1.66-1.66l1.43.82a22.61,22.61,0,0,0,4.32-7.48l-1.42-.82a21.67,21.67,0,0,0,.61-2.27Zm-22.32,7.18a11.51,11.51,0,1,1,11.5-11.5A11.5,11.5,0,0,1,484.87,188.52Z"/><circle class="cls-10" cx="484.87" cy="177.02" r="11.5"/><path class="cls-11" d="M484.87,171.36a5.66,5.66,0,1,0,5.66,5.66A5.65,5.65,0,0,0,484.87,171.36Z"/><circle class="cls-11" cx="484.93" cy="170.17" r="0.87"/><path class="cls-11" d="M482.26,170.62a.88.88,0,0,1-.32,1.19.87.87,0,0,1-.87-1.51A.88.88,0,0,1,482.26,170.62Z"/><path class="cls-11" d="M479.41,172.78a.87.87,0,1,1-1.19.32A.87.87,0,0,1,479.41,172.78Z"/><path class="cls-11" d="M478,176.08a.87.87,0,1,1-.87.87A.87.87,0,0,1,478,176.08Z"/><path class="cls-11" d="M478.47,179.63a.87.87,0,1,1,.87,1.51.87.87,0,0,1-.87-1.51Z"/><path class="cls-11" d="M480.64,182.47a.87.87,0,0,1,1.5.87.87.87,0,1,1-1.5-.87Z"/><path class="cls-11" d="M483.93,183.86a.87.87,0,1,1,.87.87A.87.87,0,0,1,483.93,183.86Z"/><path class="cls-11" d="M487.48,183.41a.87.87,0,0,1,1.51-.87.88.88,0,0,1-.32,1.19A.87.87,0,0,1,487.48,183.41Z"/><path class="cls-11" d="M490.32,181.25a.87.87,0,1,1,1.19-.32A.88.88,0,0,1,490.32,181.25Z"/><path class="cls-11" d="M491.71,178a.87.87,0,1,1,.87-.87A.87.87,0,0,1,491.71,178Z"/><path class="cls-11" d="M491.26,174.41a.88.88,0,0,1-1.19-.32.87.87,0,1,1,1.19.32Z"/><path class="cls-11" d="M489.1,171.56a.87.87,0,0,1-1.51-.87.87.87,0,1,1,1.51.87Z"/><path class="cls-9" d="M639.9,181.34a22.43,22.43,0,0,0,0-8.64h-1.65a19.14,19.14,0,0,0-.62-2.28l1.43-.82a22.78,22.78,0,0,0-4.32-7.48l-1.43.82c-.53-.58-1.08-1.13-1.67-1.66l.83-1.43a22.78,22.78,0,0,0-7.48-4.32l-.82,1.43a19.14,19.14,0,0,0-2.28-.62v-1.65a22.43,22.43,0,0,0-8.64,0v1.65A19.5,19.5,0,0,0,611,157l-.82-1.43a22.78,22.78,0,0,0-7.48,4.32l.82,1.43c-.58.53-1.14,1.08-1.66,1.66l-1.43-.82a22.61,22.61,0,0,0-4.32,7.48l1.42.82a21.21,21.21,0,0,0-.61,2.28h-1.65a22.43,22.43,0,0,0,0,8.64h1.65a21.67,21.67,0,0,0,.61,2.27l-1.42.82a22.61,22.61,0,0,0,4.32,7.48l1.43-.82a21.67,21.67,0,0,0,1.66,1.66l-.82,1.43a22.61,22.61,0,0,0,7.48,4.32l.82-1.42a21.67,21.67,0,0,0,2.27.61v1.65a22.43,22.43,0,0,0,8.64,0v-1.65a21.21,21.21,0,0,0,2.28-.61l.82,1.42a22.61,22.61,0,0,0,7.48-4.32l-.83-1.43a21.8,21.8,0,0,0,1.67-1.66l1.43.82a22.78,22.78,0,0,0,4.32-7.48l-1.43-.82a19.5,19.5,0,0,0,.62-2.27Zm-22.33,7.18A11.51,11.51,0,1,1,629.08,177,11.5,11.5,0,0,1,617.57,188.52Z"/><circle class="cls-10" cx="617.57" cy="177.02" r="11.5"/><path class="cls-11" d="M617.57,171.36a5.66,5.66,0,1,0,5.66,5.66A5.66,5.66,0,0,0,617.57,171.36Z"/><path class="cls-11" d="M618.51,170.17a.87.87,0,1,1-.87-.87A.87.87,0,0,1,618.51,170.17Z"/><path class="cls-11" d="M615,170.62a.87.87,0,0,1-1.51.87.87.87,0,1,1,1.51-.87Z"/><path class="cls-11" d="M612.12,172.78a.88.88,0,0,1,.31,1.19.87.87,0,1,1-1.5-.87A.88.88,0,0,1,612.12,172.78Z"/><path class="cls-11" d="M610.73,176.08a.87.87,0,1,1-.87.87A.87.87,0,0,1,610.73,176.08Z"/><path class="cls-11" d="M611.18,179.63a.87.87,0,0,1,.87,1.51.88.88,0,0,1-1.19-.32A.87.87,0,0,1,611.18,179.63Z"/><path class="cls-11" d="M613.34,182.47a.87.87,0,1,1,.32,1.19A.87.87,0,0,1,613.34,182.47Z"/><path class="cls-11" d="M616.64,183.86a.87.87,0,1,1,.87.87A.87.87,0,0,1,616.64,183.86Z"/><path class="cls-11" d="M620.18,183.41a.88.88,0,0,1,.32-1.19.87.87,0,1,1-.32,1.19Z"/><path class="cls-11" d="M623,181.25a.87.87,0,1,1,1.19-.32A.87.87,0,0,1,623,181.25Z"/><path class="cls-11" d="M624.42,178a.87.87,0,1,1,.87-.87A.87.87,0,0,1,624.42,178Z"/><path class="cls-11" d="M624,174.41a.88.88,0,0,1-1.19-.32.87.87,0,1,1,1.51-.87A.88.88,0,0,1,624,174.41Z"/><path class="cls-11" d="M621.8,171.56a.87.87,0,1,1-1.5-.87.87.87,0,1,1,1.5.87Z"/><path class="cls-13" d="M278.51,99.65c-5.2,5.2-14.46,4.39-14.46,4.39s-.81-9.25,4.4-14.46,14.45-4.39,14.45-4.39S283.72,94.45,278.51,99.65Z"/><path class="cls-13" d="M259.57,89.58C264.78,94.79,264,104,264,104s-9.25.81-14.45-4.39-4.39-14.46-4.39-14.46S254.37,84.38,259.57,89.58Z"/><path class="cls-13" d="M325,99.65c-5.2,5.2-14.45,4.39-14.45,4.39s-.82-9.25,4.39-14.46,14.45-4.39,14.45-4.39S330.19,94.45,325,99.65Z"/><path class="cls-13" d="M306,89.58c5.21,5.21,4.39,14.46,4.39,14.46s-9.25.81-14.45-4.39-4.39-14.46-4.39-14.46S300.84,84.38,306,89.58Z"/><path class="cls-13" d="M371.46,99.65C366.25,104.85,357,104,357,104s-.81-9.25,4.39-14.46,14.46-4.39,14.46-4.39S376.66,94.45,371.46,99.65Z"/><path class="cls-13" d="M352.52,89.58c5.2,5.21,4.39,14.46,4.39,14.46s-9.25.81-14.46-4.39-4.39-14.46-4.39-14.46S347.31,84.38,352.52,89.58Z"/><path class="cls-13" d="M417.93,99.65c-5.21,5.2-14.46,4.39-14.46,4.39s-.81-9.25,4.39-14.46,14.46-4.39,14.46-4.39S423.13,94.45,417.93,99.65Z"/><path class="cls-13" d="M399,89.58c5.2,5.21,4.39,14.46,4.39,14.46s-9.25.81-14.46-4.39-4.39-14.46-4.39-14.46S393.78,84.38,399,89.58Z"/><path class="cls-13" d="M496.81,99.65c-5.21,5.2-14.46,4.39-14.46,4.39s-.81-9.25,4.39-14.46,14.46-4.39,14.46-4.39S502,94.45,496.81,99.65Z"/><path class="cls-13" d="M477.87,89.58c5.2,5.21,4.39,14.46,4.39,14.46s-9.25.81-14.46-4.39-4.39-14.46-4.39-14.46S472.66,84.38,477.87,89.58Z"/><path class="cls-13" d="M543.28,99.65c-5.2,5.2-14.46,4.39-14.46,4.39s-.81-9.25,4.39-14.46,14.46-4.39,14.46-4.39S548.48,94.45,543.28,99.65Z"/><path class="cls-13" d="M524.34,89.58c5.21,5.21,4.39,14.46,4.39,14.46s-9.25.81-14.45-4.39-4.39-14.46-4.39-14.46S519.14,84.38,524.34,89.58Z"/><path class="cls-13" d="M589.75,99.65c-5.2,5.2-14.45,4.39-14.45,4.39s-.82-9.25,4.39-14.46,14.45-4.39,14.45-4.39S595,94.45,589.75,99.65Z"/><path class="cls-13" d="M570.81,89.58C576,94.79,575.2,104,575.2,104s-9.25.81-14.45-4.39-4.39-14.46-4.39-14.46S565.61,84.38,570.81,89.58Z"/><path class="cls-13" d="M636.22,99.65c-5.2,5.2-14.45,4.39-14.45,4.39s-.82-9.25,4.39-14.46,14.46-4.39,14.46-4.39S641.43,94.45,636.22,99.65Z"/><path class="cls-13" d="M617.29,89.58c5.2,5.21,4.39,14.46,4.39,14.46s-9.26.81-14.46-4.39-4.39-14.46-4.39-14.46S612.08,84.38,617.29,89.58Z"/></svg>