<?xml version="1.0" encoding="UTF-8"?>
<svg id="Layer_2" data-name="Layer 2" xmlns="http://www.w3.org/2000/svg" viewBox="0 0 96.99 96.99">
  <defs>
    <style>
      .cls-1 {
        fill: #003b7e;
        stroke: #003b7e;
        stroke-miterlimit: 10;
        stroke-width: .6px;
      }

      .cls-2 {
        fill: #ffe500;
      }
    </style>
  </defs>
  <g id="Layer_1-2" data-name="Layer 1">
    <g>
      <circle class="cls-2" cx="48.49" cy="48.49" r="48.49"/>
      <g>
        <path class="cls-1" d="M81.77,68.09c-.99-2.8-1.99-5.87-2.17-6.77,1.44-2.53,2.17-5.42,2.17-8.39,0-9.48-7.67-17.15-17.15-17.15-2.44,0-4.78,.54-6.86,1.44-3.88-6.68-10.92-11.1-18.68-11.37-6.05-.27-11.82,1.81-16.34,5.87-4.51,4.06-7.13,9.66-7.4,15.71-.18,3.88,.63,7.85,2.44,11.28-.18,.99-1.44,4.87-2.62,8.3-.09,.27,0,.63,.18,.9s.54,.36,.81,.36l8.76-1.26c3.52,2.53,7.67,3.97,12.09,4.15h1.08c5.6,0,10.83-1.99,14.98-5.69,3.07,2.8,7.13,4.51,11.55,4.51,3.25,0,6.41-.9,9.12-2.62l6.95,1.81c.36,.09,.63,0,.9-.27,.27-.18,.36-.54,.18-.81h0Zm-44.68,1.26c-4.15-.18-8.03-1.62-11.37-4.06-.27-.18-.54-.18-.81-.09l-7.49,1.08c2.53-7.49,2.35-7.76,2.17-8.21-1.72-3.25-2.53-6.95-2.35-10.56,.54-11.55,10.38-20.4,21.84-19.95,7.13,.36,13.54,4.33,17.15,10.47-5.15,2.98-8.67,8.48-8.67,14.89,0,4.33,1.62,8.3,4.33,11.28-4.15,3.61-9.39,5.42-14.8,5.15h0Zm36.92-3.7c-.27-.09-.63-.09-.9,.09-2.53,1.72-5.42,2.53-8.48,2.53-8.48,0-15.34-6.86-15.34-15.34s6.86-15.34,15.34-15.34,15.34,6.86,15.34,15.34c0,2.71-.72,5.33-2.08,7.76-.27,.36-.36,.54,1.62,6.41l-5.51-1.44Z"/>
        <path class="cls-1" d="M60.47,53.47c0,.9-.73,1.62-1.62,1.62s-1.62-.73-1.62-1.62,.73-1.62,1.62-1.62,1.62,.73,1.62,1.62"/>
        <path class="cls-1" d="M66.25,53.47c0,.9-.73,1.62-1.62,1.62s-1.62-.73-1.62-1.62,.73-1.62,1.62-1.62,1.62,.73,1.62,1.62"/>
        <path class="cls-1" d="M71.84,53.47c0,.9-.73,1.62-1.62,1.62s-1.62-.73-1.62-1.62,.73-1.62,1.62-1.62,1.62,.73,1.62,1.62"/>
        <path class="cls-1" d="M32.49,48.69c0,.9-.73,1.62-1.62,1.62s-1.62-.73-1.62-1.62,.73-1.62,1.62-1.62,1.62,.73,1.62,1.62"/>
        <path class="cls-1" d="M38.36,48.69c0,.9-.73,1.62-1.62,1.62s-1.62-.73-1.62-1.62,.73-1.62,1.62-1.62,1.62,.73,1.62,1.62"/>
        <path class="cls-1" d="M43.86,48.69c0,.9-.73,1.62-1.62,1.62s-1.62-.73-1.62-1.62,.73-1.62,1.62-1.62,1.62,.73,1.62,1.62"/>
      </g>
    </g>
  </g>
</svg>