<?xml version="1.0" encoding="UTF-8"?>
<svg id="Layer_2" data-name="Layer 2" xmlns="http://www.w3.org/2000/svg" xmlns:xlink="http://www.w3.org/1999/xlink" viewBox="0 0 362.7 322.62">
  <defs>
    <style>
      .cls-1 {
        fill: url(#linear-gradient-2);
      }

      .cls-2, .cls-3 {
        fill: #fff;
      }

      .cls-4 {
        fill: #95c38b;
      }

      .cls-5 {
        fill: #76c0bf;
      }

      .cls-6 {
        fill: url(#linear-gradient-6);
      }

      .cls-7 {
        fill: #b3d1e2;
      }

      .cls-8 {
        fill: #003b7e;
      }

      .cls-9 {
        fill: url(#linear-gradient-11);
      }

      .cls-10 {
        opacity: .22;
      }

      .cls-11 {
        fill: url(#linear-gradient-10);
      }

      .cls-12 {
        fill: #91b3fa;
      }

      .cls-13 {
        fill: #7d97f4;
      }

      .cls-14 {
        fill: url(#linear-gradient-5);
      }

      .cls-15 {
        fill: #2c3a64;
      }

      .cls-16 {
        fill: #e0a2a2;
      }

      .cls-17 {
        fill: url(#linear-gradient-7);
      }

      .cls-18 {
        fill: #272525;
        opacity: .12;
      }

      .cls-19 {
        fill: #909ba0;
      }

      .cls-20 {
        fill: url(#linear-gradient-9);
      }

      .cls-21 {
        fill: #ed7d2b;
      }

      .cls-22 {
        fill: url(#linear-gradient-3);
      }

      .cls-23 {
        fill: url(#linear-gradient);
      }

      .cls-3 {
        opacity: .31;
      }

      .cls-24 {
        fill: #bc6428;
      }

      .cls-25 {
        fill: #bdd0fb;
      }

      .cls-26 {
        fill: url(#linear-gradient-4);
      }

      .cls-27 {
        fill: #2b478b;
      }

      .cls-28 {
        fill: url(#linear-gradient-8);
      }

      .cls-29 {
        fill: url(#linear-gradient-12);
      }
    </style>
    <linearGradient id="linear-gradient" x1="5143.12" y1="297.44" x2="5150.07" y2="297.44" gradientTransform="translate(-5011.19 -47.58) rotate(.54)" gradientUnits="userSpaceOnUse">
      <stop offset="0" stop-color="#febbba"/>
      <stop offset="1" stop-color="#ff928e"/>
    </linearGradient>
    <linearGradient id="linear-gradient-2" x1="5118.09" y1="297.09" x2="5124.09" y2="297.09" xlink:href="#linear-gradient"/>
    <linearGradient id="linear-gradient-3" x1="193.44" y1="110.84" x2="197.5" y2="83.88" gradientTransform="matrix(1, 0, 0, 1, 0, 0)" xlink:href="#linear-gradient"/>
    <linearGradient id="linear-gradient-4" x1="5207.02" y1="92.26" x2="5216.96" y2="76.99" xlink:href="#linear-gradient"/>
    <linearGradient id="linear-gradient-5" x1="-3629.99" y1="815.02" x2="-3635.96" y2="795.33" gradientTransform="translate(2327.06 -2891.62) rotate(-41.21)" xlink:href="#linear-gradient"/>
    <linearGradient id="linear-gradient-6" x1="4826.92" y1="166.11" x2="4840.96" y2="166.11" gradientTransform="translate(-4705.66)" xlink:href="#linear-gradient"/>
    <linearGradient id="linear-gradient-7" x1="130.67" y1="149.52" x2="160.8" y2="149.52" gradientUnits="userSpaceOnUse">
      <stop offset="0" stop-color="#dae3fe"/>
      <stop offset="1" stop-color="#e9effd"/>
    </linearGradient>
    <linearGradient id="linear-gradient-8" x1="69.87" y1="301.74" x2="77.28" y2="301.74" gradientTransform="matrix(1, 0, 0, 1, 0, 0)" xlink:href="#linear-gradient"/>
    <linearGradient id="linear-gradient-9" x1="104.94" y1="302.37" x2="113.78" y2="302.37" gradientTransform="matrix(1, 0, 0, 1, 0, 0)" xlink:href="#linear-gradient"/>
    <linearGradient id="linear-gradient-10" x1="1691.56" y1="692.83" x2="1669.68" y2="709.57" gradientTransform="translate(-1701.51 -313.67) rotate(-7.5)" xlink:href="#linear-gradient"/>
    <linearGradient id="linear-gradient-11" x1="-10366.21" y1="308.13" x2="-10368.41" y2="290.93" gradientTransform="translate(-10066.58) rotate(-180) scale(1 -1)" xlink:href="#linear-gradient"/>
    <linearGradient id="linear-gradient-12" x1="-10414.3" y1="314.03" x2="-10416.44" y2="297.27" gradientTransform="translate(-10066.58) rotate(-180) scale(1 -1)" xlink:href="#linear-gradient"/>
  </defs>
  <g id="Layer_1-2" data-name="Layer 1">
    <g>
      <g>
        <g>
          <g>
            <g>
              <g>
                <rect class="cls-19" x="261.02" y="72.7" width="22.23" height="104.54" transform="translate(-4.76 239) rotate(-47.05)"/>
                <path class="cls-15" d="M335.19,183.84l.17-.19c4.78-5.13,5.53-12.2,1.68-15.78l-43.73-41.33-18.38,18.91,44.63,41.2c3.85,3.58,10.84,2.33,15.62-2.81Z"/>
              </g>
              <polygon class="cls-18" points="263.89 102.66 267 105.17 267.28 135.42 245.91 115.91 263.89 102.66"/>
            </g>
            <g>
              <circle class="cls-15" cx="208" cy="66.92" r="66.92" transform="translate(13.6 166.68) rotate(-45)"/>
              <circle class="cls-7" cx="208" cy="66.92" r="57.57"/>
            </g>
          </g>
          <g>
            <g class="cls-10">
              <path class="cls-2" d="M194.98,27.47c-17.8,4.5-30.74,20.34-31.05,38.76-.31,18.38,12.22,34.94,29.94,39.79,5,1.37,3.24,9.22-1.76,7.85-20.41-5.58-35.05-23.61-36.17-44.72-1.11-20.81,11.89-39.89,31.03-47.58,1.85-.74,3.76-1.32,5.7-1.81,5.01-1.27,7.36,6.43,2.32,7.7h0Z"/>
            </g>
            <circle class="cls-3" cx="208.2" cy="111.7" r="5.3" transform="translate(-20.96 54.17) rotate(-14.12)"/>
          </g>
        </g>
        <path class="cls-27" d="M292.77,127.39l-17.49,17.99c-.6,.62-1.57,.68-2.25,.15l-.22-.17c-.78-.62-.85-1.79-.15-2.5l17.68-17.84c.66-.67,1.74-.66,2.4,.01l.02,.02c.63,.65,.63,1.69,0,2.34Z"/>
        <path class="cls-27" d="M223,121.04c13.35-3.65,24.99-11.99,32.66-23.52,7.57-11.38,10.71-25.23,9.05-38.77-1.7-13.84-8.79-26.7-19.26-35.83-10.2-8.89-23.56-13.79-37.06-13.88-14-.09-27.81,5.22-38.23,14.54-10.04,8.97-16.68,21.54-18.47,34.89-1.87,13.93,1.64,28.22,9.52,39.82,7.59,11.17,19.27,19.25,32.26,22.78,9.65,2.63,19.88,2.52,29.53-.04,1.91-.51,2.71,2.45,.8,2.96-13.4,3.56-27.54,2.4-40.2-3.21-12.37-5.47-22.63-15.32-28.82-27.32-6.41-12.45-8.19-26.95-5.17-40.6,2.9-13.12,10.43-25.1,20.85-33.53,10.89-8.82,24.78-13.53,38.78-13.34,13.53,.18,26.67,5.21,37.14,13.72,10.76,8.75,18.08,21.33,20.75,34.9,2.65,13.45,.44,27.52-5.94,39.63-7.7,14.63-21.49,25.43-37.39,29.77-1.91,.52-2.7-2.44-.8-2.96Z"/>
      </g>
      <g>
        <g>
          <path class="cls-15" d="M129.77,298.75s-.85,4.58-1.29,9.11c-.17,1.77,1.18,3.32,2.96,3.42,6.04,.31,18.96,.92,23.6,.76,.7-.02,1.16-.73,.91-1.38h0c-.21-.55-.62-.99-1.15-1.24l-21.26-10.02-3.76-.65Z"/>
          <path class="cls-23" d="M129.13,296.05l.6,5.49s3.72,1.78,6.3-.16l-1.49-6.13-5.4,.8Z"/>
          <path class="cls-27" d="M130.61,192.97c-.29,1.43-2.19,71.44,5,102.89,.12,.51-.15,1.04-.64,1.23-1.15,.46-3.41,1.12-6.11,1.18-.84,.02-1.58-.53-1.81-1.33-2.07-7.3-11.97-43.88-12.98-78.74-1.12-38.95,.01-1.33,.01-1.33l1.11-24.06,15.42,.15Z"/>
          <path class="cls-15" d="M105.19,300.91s-1.31,2.3-2.62,8.44c-.24,1.11,.53,2.18,1.66,2.3,1.99,.22,5.06,.5,7.52,.5,1.13,0,2.03-.98,1.9-2.1-.25-2.25-1.07-5.94-3.66-8.83l-4.81-.31Z"/>
          <path class="cls-1" d="M104.12,293.85l1.44,8.31s1.49,1.13,4.47,.35l-.64-8.93-5.27,.27Z"/>
          <path class="cls-27" d="M100.96,194.84c-6.47,36.89,.46,91.33,2.87,101.99,.15,.65,.67,1.16,1.33,1.27,1.12,.2,2.96,.37,4.79-.15,.63-.18,1.07-.74,1.11-1.39,.42-8.6,.32-61.42,6.22-82.24,.3-1.06,.95-1.97,1.85-2.6l11.15-7.76,.97-12.71-30.28,3.59Z"/>
          <g>
            <path class="cls-5" d="M140.64,125.2c-18.34-.48-38.63,4.45-38.63,4.45-5.77,31.86-1.61,68.7-1.61,68.7,14.17,3.86,30.25-1.99,30.25-1.99,2.49-13.31,13.86-50.74,13.86-50.74,8.97-1.03,16.38-3.54,22.5-6.9-4.59-5.42-6.71-12.28-7.62-16.34-6.51,1.95-13.08,2.97-18.74,2.82Z"/>
            <path class="cls-16" d="M195.08,98.7c-1.78-2.19-4.07-1.19-4.07-1.19-2.81,11.38-17.05,20.49-31.64,24.87,.91,4.05,3.03,10.92,7.62,16.34,24.27-13.34,28.09-40.02,28.09-40.02Z"/>
          </g>
          <g>
            <path class="cls-22" d="M194.64,99.25c.18,.6-2.01,1.49-3.27-.97-.03-1.18-.7-6.22,.01-7.17,3.79-5.06,11.1-11.38,11.1-11.38,1.21,1.22,.19,2.4,.19,2.4l-3.55,3.63c.72,1.34,1.61,2.47,2.02,4.08,.31,1.22,.1,2.52-.53,3.62-.63,1.11-1.48,2.54-2.29,3.67-1.53,2.13-3.68,2.12-3.68,2.12Z"/>
            <path class="cls-26" d="M197.56,88.12l-3.23,2.69-1.03,2.7,2.83,3.2s1.01-5.36,1.74-6.51c.73-1.15,.36-1.72-.3-2.07Z"/>
          </g>
          <path class="cls-5" d="M108.87,147.48l-6.87-17.83s-17.25,11.48-20.21,26.22c3.24,.27,9.12,1.17,14.86,4.13,1.33-6.96,12.21-12.52,12.21-12.52Z"/>
          <path class="cls-16" d="M123.69,164.34s-19.34,10.69-25.75,1.34c-1.33-1.94-1.63-3.86-1.28-5.68-5.74-2.97-11.62-3.87-14.86-4.13-.89,4.44-.49,9.18,2.08,13.99,11.17,20.91,42.31-.75,42.31-.75l-2.5-4.77Z"/>
          <path class="cls-16" d="M122.2,110.13l-6,16.83c-.1,.28,.01,.59,.27,.74,1.58,.89,7.29,3.49,14.24-.82,.72-.45,1.22-1.19,1.34-2.03l2.03-14.59-11.88-.11Z"/>
          <g>
            <path class="cls-16" d="M135.05,94.62s6.3,12.13,5.43,16.99c-.87,4.87-8.81,4.44-15.71,.42l-4.72-13.08,15-4.33Z"/>
            <path class="cls-8" d="M125.13,105.63c.28-.12,.39-.47,.22-.73-.51-.79-1.45-2.4-1.75-3.8,0,0-1.15-.75,2.95-1.69,4.09-.94,10.2-2.4,11.51-5.86,1.28-3.38-1.92-11.94-7.22-5.19-.2,.26-.59,.26-.79,0-.85-1.12-3.08-3.46-6.23-2.09-2.94,1.29-3.29,3.43-3.26,4.51,0,.32-.28,.56-.59,.5-1.48-.3-5.03-.57-6.73,3.06-1.4,2.99-.52,4.7,.28,5.54,.26,.27,.14,.71-.22,.82-.98,.29-2.24,1.1-2.14,3.39,.14,3.16,3.67,2.91,4.68,2.78,.16-.02,.33,.04,.44,.16,.85,.96,4.69,5.04,8.88,5.57,.36,.05,.65-.31,.53-.66l-1.77-5.3c-.08-.25,.04-.51,.28-.62l.9-.39Z"/>
            <path class="cls-14" d="M125.86,106.39s-4.53-3.17-4.89-.54c-.36,2.63,4.07,3.86,6.28,2.9l-1.39-2.36Z"/>
          </g>
          <g>
            <g>
              <path class="cls-8" d="M119.73,181.24l10.54-36.8c.12-.42,.48-.72,.91-.77,1.91-.22,7.44-.85,13.83-1.39,7.69-.65,16.63-1.18,21.97-.73,.76,.06,1.22,.87,.88,1.55-3.04,6.14-15.52,31.13-21.78,39.31-.21,.27-.53,.43-.87,.43l-24.45-.23c-.71,0-1.22-.69-1.03-1.37Z"/>
              <path class="cls-6" d="M122.28,172.35s-1.47-6.04-.88-8.18c.59-2.14,1.74-4.89,5.56-4.28,3.82,.61,8.33,2.22,8.33,2.22,0,0-.23,2.79-3.13,1.89l1.8,1.39s-.26,2.23-2.71,1.04l1.68,1.85s-1.05,1.83-2.86,.66c-1.81-1.18-2.67,4.13-7.79,3.41Z"/>
            </g>
            <path class="cls-12" d="M144.3,153.26c0,1.71,1.38,3.09,3.09,3.09s3.09-1.38,3.09-3.09-1.38-3.09-3.09-3.09-3.09,1.38-3.09,3.09Z"/>
            <path class="cls-17" d="M131.46,155.3l-.79-.23,2.15-7.28c.35-1.19,1.31-2.08,2.5-2.32,6.8-1.42,24.71-1.71,25.47-1.72v.82c-.17,0-18.58,.3-25.3,1.7-.89,.19-1.61,.86-1.88,1.75l-2.15,7.28Z"/>
          </g>
        </g>
        <g>
          <path class="cls-13" d="M6.76,258.28c-1.12,1.66-5.59,39.29-6.29,53.19-.05,.94,.7,1.72,1.65,1.72h0c.81,0,1.5-.59,1.63-1.39l8.17-52.33-5.15-1.2Z"/>
          <path class="cls-13" d="M42.65,258.28c1.12,1.66,5.59,39.29,6.29,53.19,.05,.94-.7,1.72-1.65,1.72h0c-.81,0-1.5-.59-1.63-1.39l-8.17-52.33,5.15-1.2Z"/>
          <path class="cls-13" d="M0,255.34v.41c-.03,2.95,2.51,5.37,5.7,5.43l37.74,.64c3.14,.05,5.76-2.21,5.91-5.12l.02-.38c.16-3.03-2.42-5.58-5.69-5.64l-37.76-.68c-3.23-.06-5.89,2.34-5.92,5.34Z"/>
        </g>
        <g>
          <g>
            <path class="cls-13" d="M79.51,310.11c-6.71,0-9.68-.58-11-1.1,.26,1.1,1.24,1.97,2.48,1.97h23.73c.8,0,1.3-.77,1.11-1.46-2.71,.22-8.45,.59-16.32,.59Z"/>
            <path class="cls-27" d="M95.83,309.52c-.04-.14-.1-.28-.19-.4-1.81-2.31-5.44-5.93-10.38-5.86-7.24,.1-9.76,.89-15.39,.04l-1.33,4.4c-.14,.45-.14,.9-.04,1.31,1.33,.52,4.3,1.1,11,1.1,7.87,0,13.62-.37,16.32-.59Z"/>
          </g>
          <path class="cls-28" d="M71.5,298.56l-1.63,5.54s3.61,1.64,6.78,.32l.62-4.8-5.78-1.06Z"/>
          <g>
            <path class="cls-13" d="M120.69,306.62c-5.23,4.2-7.9,5.62-9.26,6.04,.89,.69,2.2,.75,3.16-.02l18.5-14.87c.62-.5,.54-1.41-.04-1.83-1.97,1.86-6.22,5.75-12.36,10.68Z"/>
            <path class="cls-27" d="M133.05,295.94c-.12-.08-.25-.16-.4-.19-2.85-.66-7.94-1.2-11.75,1.95-5.58,4.61-7.06,6.8-11.97,9.67l1.71,4.24c.17,.43,.45,.78,.79,1.04,1.36-.42,4.03-1.84,9.26-6.04,6.14-4.93,10.38-8.82,12.36-10.68Z"/>
          </g>
          <path class="cls-27" d="M36.66,235.45s40.17,3.28,48.41,7.16c8.24,3.88-6.72,58.25-6.72,58.25,0,0-2.24,1.08-7.23-.47,0,0,5.12-40.12,1.31-48.82l-43.49-7.11,7.73-9Z"/>
          <path class="cls-20" d="M104.94,299.73c.37,.34,3.99,7.64,3.99,7.64,0,0,4.03-.87,4.85-3.42l-3.62-6.59-5.22,2.37Z"/>
          <path class="cls-8" d="M12.47,235.11s-1.31,3.15-1.26,7.34c.07,5.79,4.73,10.49,10.51,10.77l47.48,2.17c1,.05,1.85,.74,2.1,1.71,1.12,4.32,6.57,17.57,33.23,44.02,.71,.7,1.81,.82,2.66,.29l3.8-2.4c.4-.25,.53-.77,.29-1.18l-27.65-47.21c-1.45-2.4-3.79-4.13-6.5-4.82l-40.47-10.35-24.19-.34Z"/>
          <path class="cls-16" d="M59.26,161.36s-5.09,8.99-10.27,13.35l10.72,5.98s2.42-9.52,7.93-12.31l-8.38-7.02Z"/>
          <path class="cls-21" d="M11.6,235.45s12.82,3.12,25.06,0c0,0,17.12-23.02,23.75-29.28,0,0,10.57,16.67,34.08,19.04l1.31-2.93s-18.72-8.63-24.49-21.89c-5.76-13.26-8.08-18.92-13.32-22.38-3.27-2.15-5.22-3.63-6.23-4.43-.55-.44-1.32-.49-1.92-.12-5.56,3.39-31.75,21.33-38.23,62Z"/>
          <path class="cls-24" d="M59.71,205.84c-.25,0-.49-.11-.65-.32-4.08-5.32-6.36-11.19-6.45-11.44-.16-.42,.05-.9,.47-1.06,.42-.16,.9,.05,1.06,.47,.02,.06,2.29,5.9,6.22,11.03,.28,.36,.21,.88-.15,1.15-.15,.11-.33,.17-.5,.17Z"/>
          <path class="cls-16" d="M93.07,220.74l2.65-.71,8.04-1.86c.97-.22,1.98-.05,2.83,.48l6.91,4.35-19.08-.03-1.34-2.23Z"/>
          <g>
            <path class="cls-16" d="M67.34,147.87s4.94,8.22,5.8,12.76c.86,4.54,2.23,7.38-2.93,9-5.17,1.62-9.97-.43-12.99-4.67,0,0-4.71-6.52-4.24-9.51,.47-2.99,14.36-7.58,14.36-7.58Z"/>
            <path class="cls-8" d="M58.59,161.45l.67-.09s-3.5-5.29-1.21-6.6c2.29-1.31,11.62-4.53,13.25-8.21,1.56-3.54-.77-7.55-3.59-8.38-.18-.05-.37,.05-.43,.23l-.17,.45c-.11,.31-.54,.32-.67,.02h0c-.12-.28-.53-.3-.66-.01-.5,1.1-2,2.98-6.49,4.44-6.37,2.06-10.34,5.28-9.85,9.8,.03,.29-.25,.48-.52,.37-.52-.23-1.31-.27-2.23,.74-1.59,1.74-.35,5.56,4.01,8.25,.21,.13,.24,.42,.06,.58-.65,.56-1.57,1.8,1.38,2.91,3.01,1.13,4.66,.75,5.26,.51,.16-.07,.26-.23,.22-.41l-.77-3.97c-.04-.21,.1-.4,.31-.43l1.43-.19Z"/>
            <path class="cls-11" d="M58.87,162.26s-2.18-5.38-4.47-3.49c-2.29,1.89,2.12,6.07,4.15,6.01l.32-2.53Z"/>
          </g>
        </g>
        <g>
          <path class="cls-15" d="M85.7,226.74s.06,0,.09,0l40.77-.04c1.01,0,1.82-.82,1.82-1.82,0-1.01-.82-1.84-1.83-1.82l-40.77,.04c-1.01,0-1.82,.82-1.82,1.82,0,.97,.77,1.77,1.73,1.82Z"/>
          <path class="cls-15" d="M142.35,186.82s-.03,.06-.04,.08l-17.15,36.99c-.42,.91-.03,2,.88,2.42,.91,.42,2.01,.03,2.42-.89l17.15-36.99c.42-.91,.03-2-.88-2.42-.88-.41-1.93-.05-2.38,.81Z"/>
        </g>
        <g>
          <g>
            <rect class="cls-13" x="244.81" y="263.91" width="4.3" height="46.54"/>
            <path class="cls-13" d="M265.81,311.34h-37.69c0-1.55,1.25-2.8,2.8-2.8h32.09c1.55,0,2.8,1.25,2.8,2.8h0Z"/>
            <rect class="cls-13" x="224.01" y="253.49" width="47.39" height="13.44" rx="4.63" ry="4.63"/>
          </g>
          <g>
            <path class="cls-16" d="M215.2,232.88s-6.39,.99-13.58,5.8c-1.13,.76-1.75,2.07-1.58,3.42,.86,6.82,4.4,28.89,16.07,50.45,.62,1.14,.79,2.46,.52,3.72l-2.03,9.44-3.76,3.53h9.69l6.45-17.45-2.76-.87c-2.14-.68-3.61-2.64-3.64-4.88l-.32-18.72c.28-8.34-5.11-14.1-5.11-14.1l15.47-.75-15.4-19.57Z"/>
            <path class="cls-27" d="M207.05,310.94c-.88,1.15,9.49,2.68,14.74,.15,0,0,7.27-12.64,7.27-19.15,0,0-.58-1.33-4.84-1.03,0,0-2.44,14.97-5.02,16.65-2.58,1.68-7.21,.17-7.21,.17,0,0-3.63,1.51-4.93,3.21Z"/>
            <path class="cls-16" d="M228.64,253.49c-.08-.14-16.65-1.99-16.65-1.99,0,0,.54,5.04-1.15,11.98-1.69,6.94-26.03,36.99-26.03,36.99l2.55,8.09c-7.89,2.75-15.65,3.19-23.28,1.4l15.81-9.49s14.8-50.43,23.86-59.42l16.61-5.75,8.28,18.2Z"/>
            <path class="cls-8" d="M265.81,224.14s9.55,14.2,10.33,20.68c.78,6.48-2.62,9.11-12.63,9.54-10.02,.43-36.76,.43-36.76,.43l-22.83-19.51s16.63-5.94,20.96-7.61c4.32-1.68,40.93-3.53,40.93-3.53Z"/>
            <path class="cls-27" d="M186.4,305.82s2.75,2.66,.89,5.62c0,0-21.76,3.86-27.67,2.11,0,0,1.23-2.8,7.88-5.99l-.49,.38c-.62,.48-.26,1.47,.52,1.43,4.38-.25,13.45-1.05,18.86-3.54Z"/>
          </g>
          <g>
            <path class="cls-8" d="M224.45,134.08c19.52-3.32,28.71,12.6,28.03,15.94-.09,.44,.33,.82,.77,.7,2.24-.6,7.19-1.36,10.26,2.48,2.71,3.39,.68,6.6-.97,8.36-.4,.42-.06,1.11,.51,1.04,4.12-.52,13.07-.64,14.54,7.74,1.37,7.82-4.08,10.03-7.31,10.65-.55,.11-.67,.82-.2,1.12,1.61,1.02,3.48,3.13,2.72,7.3-1.18,6.53-13.98,6-15.48,5.91-.09,0-.18-.03-.27-.08l-20.51-11.7c-.16-.09-.27-.25-.3-.43l-4.14-23.91c-.03-.19,.03-.39,.16-.53l-13.37-18.87c-4.85-.71,5.31-5.69,5.54-5.73Z"/>
            <path class="cls-4" d="M239.99,222.26s-11.12-10.59-16.59-17.6c-2.96-3.79-3.89-8.78-2.52-13.39,2.5-8.42,6.94-17.14,7.34-18.49,.62-2.08,13.09-1.99,13.09-1.99,0,0,24.53,15.92,34.17,42.89l-10.82,3.37s-6.41-10.75-12.73-17.58c0,0,10.95,14.47,11.34,20.39l-23.27,2.4Z"/>
            <path class="cls-16" d="M226.71,161.16c.13,.43,3.38,11.22,3.64,11.44,.25,.22,7.14,.59,10.38-1.62l-8.03-15.72-5.98,5.89Z"/>
            <g>
              <path class="cls-16" d="M213.67,147.29s-1.57,6.18,2.78,14.49c4.35,8.31,9.28,8.3,11.97,5.64,2.69-2.66,6.01-7.17,5.22-15.21-.79-8.04-17.7-12.78-19.97-4.92Z"/>
              <path class="cls-8" d="M227.62,152.65s-7.22-11.03-13.99-2.35l-.12,3.16s-7.93-.94-6.54-8.21c1.39-7.27,8.24-11.81,17.06-8.66,8.82,3.15,13.88,6.38,14.45,12.7,.57,6.32-4.46,4.94-4.46,4.94,0,0-1.64-4.45-3.97-4.92-2.33-.46-1.73,3.01-1.73,3.01l-.7,.33Z"/>
              <path class="cls-16" d="M229.47,152.51s-3.74-5.65,.09-6.49c3.84-.84,3.24,5.51,2.83,7.85l-2.92-1.36Z"/>
            </g>
            <path class="cls-16" d="M217.33,223.05l8.17-7.87,11.3,4.77s11.25,1.74,17.69,0l6.44-1.74,14.55-4.53,2.28,6.46c.58,1.64,0,3.46-1.42,4.47-1.26,.89-2.73,1.88-3.67,2.29-1.92,.84-47.23-.58-47.23-.58l-8.1-3.26Z"/>
          </g>
          <g>
            <path class="cls-8" d="M248.25,226.76s-.07,0-.11,0l-47.39-.05c-1.17,0-2.12-.95-2.12-2.12,0-1.17,.96-2.14,2.12-2.12l47.39,.05c1.17,0,2.12,.95,2.12,2.12,0,1.13-.89,2.06-2.01,2.12Z"/>
            <path class="cls-8" d="M158.15,183.74h39.46c2.91,0,5.56,1.68,6.8,4.31l18.24,38.69h-49.04c-1.88,0-3.56-1.15-4.25-2.89l-14.15-35.8c-.82-2.07,.71-4.31,2.93-4.31Z"/>
            <path class="cls-12" d="M185.96,203.57c.86,2.66,.22,5.24-1.41,5.76-1.63,.53-3.65-1.2-4.51-3.86-.86-2.66-.22-5.24,1.41-5.76,1.63-.53,3.65,1.2,4.51,3.86Z"/>
          </g>
        </g>
        <g>
          <g>
            <path class="cls-15" d="M302.27,305.48s.5,2.76,.69,6.04c.08,1.4-.95,2.61-2.34,2.75-4.85,.47-15.89,1.34-22.94,.32-.99-.14-1.38-1.36-.65-2.04,2.91-2.71,9.93-7.98,21.48-9.13l3.76,2.06Z"/>
            <path class="cls-9" d="M304.68,299.25l-2.45,6.01c-.34,.82-1.17,1.34-2.06,1.24-.6-.06-1.31-.18-2-.39-1.38-.42-2.16-1.89-1.75-3.27l1.85-6.19,6.41,2.6Z"/>
            <path class="cls-15" d="M346.61,310.27s-4.91,4.11-6.82,9.38c-.53,1.45,.59,2.98,2.13,2.98h10.11c1.48,0,2.61-1.33,2.36-2.79-.64-3.64-2.5-9.55-7.77-9.57Z"/>
            <path class="cls-29" d="M352.69,304.92s-.99,4.39-1.75,7.29c-.14,.53-.7,.82-1.21,.63-1.53-.55-2.77-.79-3.68-.67-.42,.06-.78-.29-.79-.71l-.1-7.29,7.53,.75Z"/>
            <path class="cls-27" d="M326.58,206.13l-29.87,91.12s5.73,3.75,8.46,3.6l35.48-73.23s6.21,45.12,3.2,77.52l10.16,.78s16.52-82.79,4.01-111.14l-31.44,11.36Z"/>
            <path class="cls-12" d="M340.45,226.83s.02,0,.04,0c.16-.02,.27-.16,.25-.32l-1.16-9.2c-.02-.16-.16-.27-.32-.25-.16,.02-.27,.16-.25,.32l1.16,9.2c.02,.15,.14,.25,.29,.25Z"/>
          </g>
          <path class="cls-21" d="M320.98,125.94s24.2,2.15,20.78,19.39c0,0,13.38,25.17,19.63,54.83,.2,.96-.44,1.91-1.41,2.07l-40.3,6.9c-1.11,.19-2.18-.5-2.47-1.59l-9.63-37.21-3.75,17.3-11.92-3.11,10.04-50.84s1.4-7.42,19.04-7.74Z"/>
          <path class="cls-24" d="M307.37,168.66s.04,0,.06,0c.16-.04,.26-.2,.23-.36l-3.36-15.43c-.04-.16-.19-.26-.36-.23-.16,.04-.26,.2-.23,.36l3.36,15.43c.03,.14,.15,.24,.29,.24Z"/>
          <path class="cls-16" d="M309.8,214.56c1.27-.7,2.76-.89,4.16-.54l2.8,.7c.6,.15,1.19-.26,1.26-.87l2.9-25.83c3.63,1.72,8.86,1.52,10.59,1.39l-6.68,30.45h-23.37l8.34-5.3Z"/>
          <path class="cls-16" d="M247.71,158.54l.71-2.35c.41-1.35,1.41-2.44,2.71-2.97l12.78-5.14s.19-1.64-2.7-2.75c-2.89-1.11-2.22-4.35-2.22-4.35,0,0,3.95,1.8,9.74,4.66,3.31,1.63,5.16,4.52,6.15,6.69l28.95,35.29-3.4,2.34c-4.47,3.07-10.62,1.56-13.16-3.23l-15.68-30.07c-7.87,2.37-15.84,2.82-23.88,1.88Z"/>
          <g>
            <path class="cls-16" d="M313.14,109.48l7.44,20.83s-6.59,5.15-11.4,3.41l-3.75-11.94s2.86-14.59,7.71-12.3Z"/>
            <g>
              <path class="cls-16" d="M290.92,102c0,.32,7.17,20.3,7.17,20.3l11.32-4.34-3.98-19.94s-14.51-1.39-14.51,3.98Z"/>
              <path class="cls-8" d="M303.44,102.88l2.92,10.33c.04,.13,.06,.27,.06,.4,0,.84-.21,3.74-3.16,3.35-2.68-.36-5.13-.64-6.69,.09-.7,.33-1.03,1.14-.77,1.86,.65,1.81,2.2,5.88,4.08,9.2,.38,.67,1.22,.94,1.92,.62,2.13-.97,6.55-3.13,9.71-5.71,.43-.35,.63-.9,.53-1.44-.5-2.64-1.97-10.68-2.04-12.99-.06-2.16,2.37-3.81,3.43-4.43,.35-.2,.6-.54,.69-.93,.34-1.39,.62-4.54-3.4-5.24-.84-.15-1.39-.95-1.22-1.79,.34-1.66,.23-4.11-2.93-5.02-3.21-.92-5.24,1.02-6.26,2.5-.42,.6-1.19,.79-1.86,.5-.38-.17-.84-.18-1.33,.24-.66,.56-1.67,.39-2.16-.33-.94-1.38-2.64-2.76-5.52-1.82-5.11,1.65-4.87,7.55-2.99,10.76,1.87,3.21,7.32,1.1,9.89-1.03,1.96-1.61,4.94-.65,6.26-.09,.42,.18,.73,.53,.85,.97Z"/>
              <path class="cls-16" d="M311.02,112.37s-3.03-5.73-1.03-7.52c2-1.8,5.39-1.5,5.3,2.97-.11,5.57-4.28,4.55-4.28,4.55Z"/>
            </g>
          </g>
          <path class="cls-24" d="M329.16,189.8c1.65,0,2.83-.13,2.96-.14l.21-.02,8.81-41.08c.03-.16-.07-.32-.23-.36-.16-.04-.32,.07-.36,.23l-8.72,40.66c-1.31,.12-8.31,.58-12.01-2.04l7.63-35.69-1.59-3c-.08-.15-.26-.2-.41-.12-.15,.08-.2,.26-.12,.41l1.49,2.81-7.67,35.86,.15,.12c2.67,2.01,6.97,2.39,9.85,2.39Z"/>
        </g>
        <g>
          <path class="cls-12" d="M64.99,315.06c-.2,0-.41-.04-.61-.14-.78-.37-1.14-1.35-.8-2.2l32.2-81.7c.33-.85,1.24-1.24,2.02-.88,.78,.37,1.14,1.35,.8,2.2l-32.2,81.7c-.25,.63-.82,1.01-1.41,1.01Z"/>
          <path class="cls-12" d="M101.27,315.06c-.59,0-1.16-.38-1.41-1.01l-32.2-81.7c-.34-.85,.02-1.84,.8-2.2,.78-.37,1.68,.03,2.02,.88l32.2,81.7c.34,.85-.02,1.84-.8,2.2-.2,.09-.4,.14-.61,.14Z"/>
          <path class="cls-12" d="M283.53,315.06c-.2,0-.41-.04-.61-.14-.78-.37-1.14-1.35-.8-2.2l32.2-81.7c.34-.85,1.24-1.24,2.02-.88,.78,.37,1.14,1.35,.8,2.2l-32.2,81.7c-.25,.63-.82,1.01-1.41,1.01Z"/>
          <path class="cls-12" d="M319.8,315.06c-.59,0-1.16-.38-1.41-1.01l-32.2-81.7c-.34-.85,.02-1.84,.8-2.2,.78-.37,1.68,.03,2.02,.88l32.2,81.7c.34,.85-.02,1.84-.8,2.2-.2,.09-.4,.14-.61,.14Z"/>
        </g>
        <g>
          <path class="cls-25" d="M278.85,225.25h46.64s0-4.81,0-4.81h-46.64c1,0,1,4.81,0,4.81Z"/>
          <path class="cls-27" d="M324.94,225.25c.3,0,.55-.25,.55-.55v-3.71c0-.3-.25-.55-.55-.55h-46.95c-.3,0-.55-.24-.55-.54s.25-.54,.55-.54h50.18c1.11,0,2.01,.9,2.01,2.01v3.08c0,1.05-.85,1.9-1.9,1.9h-50.29c-.3,0-.55-.24-.55-.54s.25-.54,.55-.54h46.95Z"/>
        </g>
        <path class="cls-12" d="M332.25,228.49c.16-.54-.06-1.09-.58-1.51-.53-.42-1.31-.67-2.13-.67H50.09c-1.08,0-2.09,.37-2.68,.97-.58,.61-.66,1.37-.21,2.02l3.03,4.35c.69,1,2.2,1.63,3.85,1.63H327.62c1.54,0,2.86-.72,3.15-1.73l1.48-5.07Z"/>
      </g>
    </g>
  </g>
</svg>