<?xml version="1.0" encoding="UTF-8"?>
<svg id="Layer_2" data-name="Layer 2" xmlns="http://www.w3.org/2000/svg" viewBox="0 0 174.4 164.92">
  <defs>
    <style>
      .cls-1 {
        fill: #86d1cd;
        opacity: .45;
      }

      .cls-2 {
        fill: #76c0bf;
      }

      .cls-3 {
        fill: #d68d5d;
      }

      .cls-4 {
        fill: #a6c7f9;
      }

      .cls-5 {
        fill: #e49963;
      }

      .cls-6 {
        fill: #ffa412;
      }

      .cls-7 {
        fill: #ff9843;
      }

      .cls-8 {
        fill: #2c3a64;
      }

      .cls-9 {
        fill: #ed7d2b;
      }

      .cls-10 {
        fill: #f3f9ff;
      }

      .cls-11 {
        fill: #2b478b;
      }
    </style>
  </defs>
  <g id="Layer_1-2" data-name="Layer 1">
    <g>
      <g>
        <path class="cls-8" d="M39.15,160.06s.3,4.77,1.22,4.84c.12,0,4.69,0,4.69,0l5.82-.03s-.04-1.4-1.74-1.7c-1.7-.3-4.55-1.49-5.58-3.74-1.08-2.37-4.41,.62-4.41,.62Z"/>
        <g>
          <path class="cls-5" d="M37.05,104.34s2.54,.65,4.15,.17c1.61-.49,4.39,.31,4.84,.9s.28,.82-.51,1.02c-.8,.2-3.62,1.41-5.48,.71s-4.28-.72-4.28-.72l1.29-2.08Z"/>
          <path class="cls-8" d="M15.12,82.3s2.85,20.26,7.57,22.07c2.33,.9,12.62,2.92,15.67,3.13,0,0,.75-.61,.56-3.07,0,0-10.78-3.96-12.31-6.11-2.28-3.2,1.42-13.09-1.45-16.1-2.86-3.01-7.68-4.3-10.04,.08Z"/>
        </g>
        <path class="cls-2" d="M15.49,160.36v-4.42h-6.95c-.19,0-.34-.15-.34-.34v-.71c0-.19,.15-.34,.34-.34h6.95v-25.14c0-.71,.58-1.28,1.28-1.28h1.38c.71,0,1.28,.58,1.28,1.28v25.14h6.95c.19,0,.34,.15,.34,.34v.71c0,.19-.15,.34-.34,.34h-6.95v4.42c5.03,.38,9.06,2.19,10.19,4.53H5.29c1.13-2.34,5.16-4.15,10.19-4.53Z"/>
        <path class="cls-9" d="M16.08,124.98c.83,1.41,1.79,2.73,2.78,3.98,3.06,3.87,6.4,7.06,6.98,10.07,.12,.6,.3,1.25,.54,1.93,.24,.69,.54,1.42,.89,2.17,1.3,2.82,3.24,5.99,5.18,8.86,3.36,4.97,6.51,9.12,6.51,9.12l5.79-.25c-.23-.58-2.76-7.44-6.13-15.83-1.37-3.41-2.83-7.03-4.24-10.52-.19-.47-.37-.93-.56-1.39-.43-1.07-.85-2.12-1.27-3.15-3.17-7.88-5.69-14.15-5.69-14.15,0,0-12.67-4.8-13.99-1.69-1.08,2.56-.2,5.08,3.2,10.85Z"/>
        <path class="cls-8" d="M25.75,146.42s-4.02,2.59-3.63,3.43c.05,.11,2.28,4.1,2.28,4.1l2.87,5.07s1.21-.72,.64-2.35c-.57-1.63-.92-4.7,.55-6.7,1.54-2.1-2.69-3.54-2.69-3.54Z"/>
        <path class="cls-7" d="M31.2,113.55s15.9,9.91,17.68,16.56c1.78,6.66-21.15,20.86-21.15,20.86,0,0-2.51-2.22-2.96-3.85,0,0,10.36-12.42,12.61-15.2,1.38-1.71-20.42-5.92-23.08-10.06-2.66-4.14-1.71-7.63-1.71-7.63l18.61-.69Z"/>
        <path class="cls-8" d="M1.18,126.27H33.73c.65,0,1.18,.53,1.18,1.18v6.51c0,.65-.53,1.18-1.18,1.18H1.18c-.65,0-1.18-.53-1.18-1.18v-6.51c0-.65,.53-1.18,1.18-1.18Z"/>
        <path class="cls-5" d="M23.84,78.83c1.56,.97,2.42,2.2,2.42,2.2-3.81,.99-10.13-2.54-10.13-2.54,0,0,2.45-1.65,3.36-5.27,.05-.18,.09-.37,.12-.56,.12-.61,.19-1.27,.21-1.98l1.75,1.57,2.91,2.61s-.07,1.08-.43,2.94c-.06,.32-.14,.67-.22,1.04Z"/>
        <path class="cls-11" d="M12.12,96.8c.55,7.34-.37,18.5,.25,20.43,.53,1.67,6.82,.68,9.25,.12,.9-.21,1.99-.5,3.11-.85,3.14-.97,6.56-2.36,6.92-3.39,.01-.04,.03-.08,.03-.12,.03-.15,.03-.29,0-.43-.12-.52-.59-1.09-.65-2.39-.06-1.45-.05-3.16-.11-5,0-.21,0-.43-.03-.64v-.08s0-.08,0-.12c-.05-2.05-.16-4.21-.28-6.34-.08-1.34-.17-2.67-.28-3.95-.27-3.29-.64-6.21-1.13-8.06-.8-3.01-2.56-4.98-4.16-6.42l-1.16-.99c-1.29,.28-2.82,.09-4.2-.56-1.5-.71-2.01-1.22-2.27-1.03-3.45,2.67-5.94,10.83-5.29,19.8Z"/>
        <path class="cls-8" d="M24.72,116.53c3.14-.97,6.56-2.36,6.92-3.39,.01-.04,.03-.08,.03-.12,0-.14,0-.29,0-.43-.12-.52-.59-1.09-.65-2.39-.06-1.45-.05-3.16-.11-5,0-.21,0-.43-.03-.64v-.08s0-.08,0-.12l-11.85-5.38s-.68,9.55,5.69,17.54Z"/>
        <path class="cls-3" d="M24.49,74.84s-.07,1.08-.43,2.94c-2.84-.92-4.13-3.48-4.56-4.57-.12-.31-.18-.5-.18-.5,0,0,.11-.02,.3-.06,.4-.08,1.15-.24,1.96-.41l2.91,2.61Z"/>
        <path class="cls-5" d="M25.64,74.81s-6.24,.7-6.62-3.19c-.38-3.89-1.44-6.43,2.53-7.04,3.97-.61,4.89,.8,5.33,2.07,.44,1.27,.37,7.88-1.24,8.17Z"/>
        <path class="cls-8" d="M19.05,71.89s.4-5.17,6.08-5.71c3.89-.37,1.72-3.72,1.31-4.25,0,0-2.98,.41-6.04,.91-6.42,1.06-1.98,8.24-1.35,9.04Z"/>
        <g>
          <rect class="cls-8" x="51.58" y="94.83" width=".57" height="15.05" transform="translate(69.56 215.73) rotate(-162)"/>
          <rect class="cls-8" x="34.04" y="108.48" width="15.79" height=".94" transform="translate(81.53 218.78) rotate(-178.78)"/>
        </g>
        <g>
          <path class="cls-5" d="M35.74,107.46s2.45,.93,4.11,.62c1.66-.31,4.33,.79,4.71,1.43,.38,.63,.19,.85-.62,.96-.82,.11-3.76,1-5.53,.1-1.77-.9-4.17-1.19-4.17-1.19l1.51-1.92Z"/>
          <path class="cls-11" d="M16.38,83.13s.6,20.45,5.09,22.77c2.22,1.15,12.22,4.3,15.22,4.84,0,0,.81-.52,.9-2.99,0,0-10.28-5.12-11.57-7.43-1.91-3.44,2.85-12.85,.34-16.16-2.51-3.31-7.16-5.12-9.99-1.03Z"/>
        </g>
      </g>
      <rect class="cls-1" x="63.31" width="102.05" height="131.97" rx="10.29" ry="10.29" transform="translate(228.67 131.97) rotate(180)"/>
      <rect class="cls-10" x="73.34" y="13.83" width="82.16" height="104.78" transform="translate(228.84 132.45) rotate(180)"/>
      <g>
        <path class="cls-6" d="M143.85,114.02h0c-2.39,0-4.34-1.94-4.34-4.34V49.74c0-2.39,1.94-4.34,4.34-4.34h0c2.39,0,4.34,1.94,4.34,4.34v59.94c0,2.39-1.94,4.34-4.34,4.34Z"/>
        <path class="cls-6" d="M129.65,114.02h0c-2.39,0-4.34-1.94-4.34-4.34V30.62c0-2.39,1.94-4.34,4.34-4.34h0c2.39,0,4.34,1.94,4.34,4.34V109.68c0,2.39-1.94,4.34-4.34,4.34Z"/>
        <path class="cls-6" d="M114.15,114.02h0c-2.39,0-4.34-1.94-4.34-4.34v-43.35c0-2.39,1.94-4.34,4.34-4.34h0c2.39,0,4.34,1.94,4.34,4.34v43.35c0,2.39-1.94,4.34-4.34,4.34Z"/>
        <path class="cls-6" d="M99.07,114.02h0c-2.39,0-4.34-1.94-4.34-4.34V42.33c0-2.39,1.94-4.34,4.34-4.34h0c2.39,0,4.34,1.94,4.34,4.34V109.68c0,2.39-1.94,4.34-4.34,4.34Z"/>
        <path class="cls-6" d="M88.24,76.51v33.16c0,2.39-1.94,4.34-4.34,4.34h0c-2.39,0-4.34-1.94-4.34-4.34v-33.16c0-2.39,1.94-4.34,4.34-4.34h0c2.39,0,4.34,1.94,4.34,4.34Z"/>
      </g>
      <g>
        <path class="cls-4" d="M95.14,32.63h7.34c.42,0,.76,.34,.76,.76s-.34,.76-.76,.76h-7.34c-.42,0-.76-.34-.76-.76s.34-.76,.76-.76Z"/>
        <path class="cls-4" d="M100.81,35.39h1.67c.42,0,.76,.34,.76,.76s-.34,.76-.76,.76h-1.67c-.42,0-.76-.34-.76-.76s.34-.76,.76-.76Z"/>
        <path class="cls-4" d="M125.4,20.97h7.34c.42,0,.76,.34,.76,.76s-.34,.76-.76,.76h-7.34c-.42,0-.76-.34-.76-.76s.34-.76,.76-.76Z"/>
        <path class="cls-4" d="M131.07,23.73h1.67c.42,0,.76,.34,.76,.76h0c0,.42-.34,.76-.76,.76h-1.67c-.42,0-.76-.34-.76-.76h0c0-.42,.34-.76,.76-.76Z"/>
        <path class="cls-4" d="M140.08,40.08h7.34c.42,0,.76,.34,.76,.76s-.34,.76-.76,.76h-7.34c-.42,0-.76-.34-.76-.76s.34-.76,.76-.76Z"/>
        <path class="cls-4" d="M145.75,42.84h1.67c.42,0,.76,.34,.76,.76h0c0,.42-.34,.76-.76,.76h-1.67c-.42,0-.76-.34-.76-.76h0c0-.42,.34-.76,.76-.76Z"/>
        <path class="cls-4" d="M110.48,56.68h7.34c.42,0,.76,.34,.76,.76s-.34,.76-.76,.76h-7.34c-.42,0-.76-.34-.76-.76s.34-.76,.76-.76Z"/>
        <path class="cls-4" d="M116.15,59.44h1.67c.42,0,.76,.34,.76,.76h0c0,.42-.34,.76-.76,.76h-1.67c-.42,0-.76-.34-.76-.76h0c0-.42,.34-.76,.76-.76Z"/>
        <path class="cls-4" d="M80.23,66.83h7.34c.42,0,.76,.34,.76,.76s-.34,.76-.76,.76h-7.34c-.42,0-.76-.34-.76-.76s.34-.76,.76-.76Z"/>
        <path class="cls-4" d="M85.9,69.59h1.67c.42,0,.76,.34,.76,.76s-.34,.76-.76,.76h-1.67c-.42,0-.76-.34-.76-.76s.34-.76,.76-.76Z"/>
      </g>
      <g>
        <path class="cls-8" d="M83.91,64.67c-1.49,0-2.7-1.21-2.7-2.7s1.21-2.7,2.7-2.7,2.7,1.21,2.7,2.7-1.21,2.7-2.7,2.7Zm0-4.35c-.91,0-1.65,.74-1.65,1.65s.74,1.65,1.65,1.65,1.65-.74,1.65-1.65-.74-1.65-1.65-1.65Z"/>
        <path class="cls-8" d="M82.76,60.32c-.13,0-.27-.05-.37-.15l-8.11-8.11H8.4c-.29,0-.52-.23-.52-.52s.23-.52,.52-.52H74.71l8.41,8.41c.2,.2,.2,.53,0,.74-.1,.1-.24,.15-.37,.15Z"/>
      </g>
      <g>
        <path class="cls-8" d="M99.42,121.56c-1.49,0-2.7-1.21-2.7-2.7s1.21-2.7,2.7-2.7,2.7,1.21,2.7,2.7-1.21,2.7-2.7,2.7Zm0-4.35c-.91,0-1.65,.74-1.65,1.65s.74,1.65,1.65,1.65,1.65-.74,1.65-1.65-.74-1.65-1.65-1.65Z"/>
        <path class="cls-8" d="M173.88,129.82H108.62l-8.41-8.41c-.2-.2-.2-.53,0-.74,.2-.2,.53-.2,.74,0l8.11,8.11h64.83c.29,0,.52,.23,.52,.52s-.23,.52-.52,.52Z"/>
      </g>
      <g>
        <path class="cls-8" d="M129.27,18.88c-1.49,0-2.7-1.21-2.7-2.7s1.21-2.7,2.7-2.7,2.7,1.21,2.7,2.7-1.21,2.7-2.7,2.7Zm0-4.35c-.91,0-1.65,.74-1.65,1.65s.74,1.65,1.65,1.65,1.65-.74,1.65-1.65-.74-1.65-1.65-1.65Z"/>
        <path class="cls-8" d="M128.12,14.53c-.13,0-.27-.05-.37-.15l-8.11-8.11H53.77c-.29,0-.52-.23-.52-.52s.23-.52,.52-.52H120.07l8.41,8.41c.2,.2,.2,.53,0,.74-.1,.1-.24,.15-.37,.15Z"/>
      </g>
      <path class="cls-2" d="M52.43,49.8H9.15c-.73,0-1.32-.59-1.32-1.32h0c0-.73,.59-1.32,1.32-1.32H52.43c.73,0,1.32,.59,1.32,1.32h0c0,.73-.59,1.32-1.32,1.32Z"/>
      <path class="cls-2" d="M52.43,45.62H25.86c-.73,0-1.32-.59-1.32-1.32h0c0-.73,.59-1.32,1.32-1.32h26.57c.73,0,1.32,.59,1.32,1.32h0c0,.73-.59,1.32-1.32,1.32Z"/>
      <path class="cls-2" d="M52.43,41.45H25.86c-.73,0-1.32-.59-1.32-1.32h0c0-.73,.59-1.32,1.32-1.32h26.57c.73,0,1.32,.59,1.32,1.32h0c0,.73-.59,1.32-1.32,1.32Z"/>
      <path class="cls-2" d="M97.49,3.74H54.21c-.73,0-1.32-.59-1.32-1.32h0c0-.73,.59-1.32,1.32-1.32h43.28c.73,0,1.32,.59,1.32,1.32h0c0,.73-.59,1.32-1.32,1.32Z"/>
    </g>
  </g>
</svg>