<?xml version="1.0" encoding="UTF-8"?>
<svg id="Layer_2" data-name="Layer 2" xmlns="http://www.w3.org/2000/svg" viewBox="0 0 216 146">
  <defs>
    <style>
      .cls-1 {
        fill: #003b7e;
      }

      .cls-2 {
        fill: #ffe500;
      }

      .cls-3 {
        fill: #f2f2f2;
      }
    </style>
  </defs>
  <g id="Layer_1-2" data-name="Layer 1">
    <g>
      <g>
        <rect class="cls-3" y="24.5" width="216" height="101"/>
        <circle class="cls-2" cx="108" cy="73" r="73"/>
      </g>
      <path class="cls-1" d="M86.38,32.49c-.34,0-.67,.13-.91,.37-.24,.24-.38,.57-.38,.91v7.91h-8.67c-.6,0-1.12,.41-1.26,1l-4.51,19.1h0c-.02,.1-.04,.2-.04,.29v10.44c0,2.22,.86,4.24,2.25,5.75v33.96c0,.71,.58,1.29,1.29,1.28h67.67c.71,0,1.29-.57,1.29-1.28v-33.96c1.4-1.51,2.25-3.54,2.25-5.75v-10.44s0-.04,0-.06c0-.04,0-.08,0-.12,0-.04-.01-.08-.02-.12l-4.51-19.1c-.14-.58-.66-1-1.26-1h-8.67v-7.91c0-.34-.14-.67-.38-.91-.24-.24-.57-.38-.91-.37h-43.23Zm1.29,2.58h40.66v14.24h-40.66v-14.24Zm-10.23,9.19h7.65v6.33h0c0,.34,.13,.67,.38,.92,.24,.24,.57,.38,.92,.38h43.23c.34,0,.67-.13,.92-.38,.24-.24,.38-.57,.38-.92v-6.33h7.65l3.91,16.53H73.53l3.91-16.53Zm-4.24,19.11h11.86v9.14c0,3.3-2.62,5.92-5.93,5.92s-5.93-2.62-5.93-5.92v-9.14Zm14.43,0h11.86v9.14c0,3.3-2.62,5.92-5.93,5.92s-5.93-2.62-5.93-5.92v-9.14Zm14.44,0h11.87v9.14c0,3.3-2.63,5.92-5.94,5.92s-5.93-2.62-5.93-5.92v-9.14Zm14.44,0h11.86v9.14c0,3.3-2.62,5.92-5.93,5.92s-5.93-2.62-5.93-5.92v-9.14Zm14.44,0h11.86v9.14c0,3.3-2.62,5.92-5.93,5.92s-5.93-2.62-5.93-5.92v-9.14Zm-15.73,13.63c1.5,2.4,4.18,4.01,7.22,4.01s5.71-1.6,7.22-4.01c1.5,2.4,4.18,4.01,7.22,4.01,1.31,0,2.56-.3,3.67-.83v30.75h-23.05v-20.91c0-.71-.58-1.28-1.28-1.28h-16.43c-.71,0-1.28,.58-1.28,1.28v20.91h-23.05v-30.75c1.11,.53,2.36,.83,3.67,.83,3.04,0,5.71-1.6,7.22-4.01,1.5,2.4,4.18,4.01,7.22,4.01s5.71-1.6,7.22-4.01c1.5,2.4,4.18,4.01,7.22,4.01s5.72-1.6,7.23-4.01h0Zm-33.68,11.74h0c-.71,0-1.29,.57-1.29,1.28v10.46c0,.34,.13,.67,.38,.92,.24,.24,.57,.38,.92,.38h10.85c.34,0,.67-.13,.92-.38,.24-.24,.38-.57,.38-.92v-10.46c0-.71-.58-1.29-1.29-1.28h-10.85Zm42.07,0h0c-.71,0-1.29,.57-1.29,1.28v10.46c0,.34,.13,.67,.38,.92,.24,.24,.57,.38,.92,.38h10.85c.34,0,.67-.13,.92-.38,.24-.24,.38-.57,.38-.92v-10.46c0-.71-.58-1.29-1.29-1.28h-10.85Zm-40.79,2.58h8.28v7.88h-8.28v-7.88Zm18.25,0h13.85v19.61h-13.85v-19.61Zm23.82,0h8.28v7.88h-8.28v-7.88Z"/>
    </g>
  </g>
</svg>