<?xml version="1.0" encoding="UTF-8"?>
<svg id="Layer_2" data-name="Layer 2" xmlns="http://www.w3.org/2000/svg" viewBox="0 0 216 146">
  <defs>
    <style>
      .cls-1 {
        fill: #003b7e;
      }

      .cls-2 {
        fill: #ffe500;
      }

      .cls-3 {
        fill: #f2f2f2;
      }
    </style>
  </defs>
  <g id="Layer_1-2" data-name="Layer 1">
    <g>
      <rect class="cls-3" y="24.5" width="216" height="101"/>
      <circle class="cls-2" cx="108" cy="73" r="73"/>
      <path class="cls-1" d="M149.7,79c-1.82-2.59-4.49-4.02-7.51-4.02-2.17,0-4.4,.75-6.47,2.16-3.35,2.31-6.74,4.68-10.02,6.98-1.93,1.36-3.87,2.71-5.8,4.06-.38,.26-.81,.48-1.26,.71-.13,.07-.25,.13-.38,.2-.01-3.85-.91-6.63-2.74-8.49-1.84-1.87-4.59-2.78-8.41-2.79-3.87-.01-7.74-.02-11.61-.02-4.96,0-9.35,.02-13.44,.05-1.61,.02-2.77,.28-3.55,.82-3.86,2.6-7.64,5.22-11.37,7.83-.03,.02-.07,.02-.11,.05l-9.12,6.37c-.58,.41-.73,1.22-.32,1.8,.25,.36,.65,.55,1.06,.55,.26,0,.51-.08,.74-.23l5.43-3.79c1.05-.73,2.09-1.45,3.14-2.19,3.47-2.42,7.06-4.93,10.63-7.32,1.14-.77,2.66-1.27,3.96-1.29,3.92-.05,8.13-.08,13.25-.08,3.38,0,6.75,0,10.13,.02h1.96c2.44,.01,4.56,.8,5.98,2.22,1.24,1.25,1.9,2.94,1.88,4.86-.02,4.11-3.1,6.97-7.67,6.97-16.45,0-14.99,.06-14.99,.06-.71,0-1.29,.57-1.3,1.29-.03,.72,.58,1.38,1.29,1.38,0,0,1.66-.08,13.55,0,3.3,.02,6.31-.86,9.15-2.89,7.17-5.16,14.41-10.18,21.22-14.89,1.65-1.14,3.42-1.74,5.12-1.74,2.31,0,4.31,1.09,5.65,3.06,2.35,3.47,1.31,7.5-2.65,10.27l-4.72,3.3c-8.74,6.11-17.78,12.42-26.77,18.47-1.69,1.14-4.09,1.93-6.27,1.93-16.58,.04-33.22,0-33.22,0-.71,0-1.29,.57-1.3,1.29-.03,.72,.58,1.29,1.29,1.29,0,0,11.81,0,34-.1,2.24,0,4.76-.82,6.59-2.05,10.9-7.32,21.62-14.84,31.99-22.1,2.59-1.82,4.27-4.27,4.73-6.91,.42-2.43-.18-4.88-1.73-7.09h0Z"/>
      <g>
        <path class="cls-1" d="M142.67,26.61l-23.32,23.31-11.78-10.78-2.22,2.43,14.1,12.91,25.55-25.55-2.33-2.33Z"/>
        <path class="cls-1" d="M119.72,27.55c3.03-.01,6.03,.64,8.78,1.92l1.38-2.99c-5.01-2.33-10.66-2.87-16.02-1.53-5.36,1.34-10.09,4.47-13.42,8.88-3.32,4.41-5.04,9.82-4.85,15.34,.19,5.52,2.26,10.8,5.87,14.98,3.61,4.17,8.55,6.98,13.98,7.96,5.43,.97,11.04,.05,15.88-2.61,4.84-2.66,8.62-6.9,10.71-12.01,2.09-5.11,2.36-10.78,.78-16.07l-3.15,.95c1.27,4.2,1.18,8.69-.25,12.84-1.43,4.15-4.13,7.74-7.72,10.26-3.59,2.52-7.88,3.85-12.27,3.79-4.39-.06-8.65-1.5-12.17-4.11-3.52-2.62-6.13-6.28-7.45-10.46-1.32-4.18-1.29-8.68,.09-12.85,1.38-4.17,4.04-7.79,7.6-10.36,3.56-2.57,7.84-3.95,12.23-3.94h0Z"/>
      </g>
    </g>
  </g>
</svg>