<?xml version="1.0" encoding="UTF-8"?>
<svg id="Layer_2" data-name="Layer 2" xmlns="http://www.w3.org/2000/svg" viewBox="0 0 96.99 96.99">
  <defs>
    <style>
      .cls-1 {
        fill: #003b7e;
      }

      .cls-2 {
        fill: #ffe500;
      }
    </style>
  </defs>
  <g id="Layer_1-2" data-name="Layer 1">
    <g>
      <circle class="cls-2" cx="48.49" cy="48.49" r="48.49"/>
      <g>
        <path class="cls-1" d="M92.79,52.72H20.28c-.69,0-1.29,.6-1.29,1.29,0,7.46,6.09,13.54,13.54,13.54h19.89c7.03,0,12.86-5.4,13.46-12.26h26.83c.69,0,1.29-.6,1.29-1.29,0-.69-.52-1.29-1.2-1.29h0Zm-40.37,12.26h-19.89c-5.66,0-10.29-4.29-10.89-9.69H63.31c-.6,5.49-5.23,9.69-10.89,9.69h0Z"/>
        <path class="cls-1" d="M30.65,47.84c.69,0,1.29-.6,1.29-1.29v-13.54c0-.69-.6-1.29-1.28-1.29s-1.29,.6-1.29,1.29v13.46c0,.77,.6,1.37,1.28,1.37h0Z"/>
        <path class="cls-1" d="M53.79,47.84c.69,0,1.29-.6,1.29-1.29v-13.54c0-.69-.6-1.29-1.28-1.29s-1.29,.6-1.29,1.29v13.46c0,.77,.6,1.37,1.28,1.37h0Z"/>
        <path class="cls-1" d="M42.22,47.84c.69,0,1.29-.6,1.29-1.29V16.72c0-.69-.6-1.29-1.29-1.29s-1.29,.6-1.29,1.29v29.83c0,.69,.6,1.29,1.29,1.29h0Z"/>
      </g>
    </g>
  </g>
</svg>