<?xml version="1.0" encoding="UTF-8"?>
<svg id="Layer_2" data-name="Layer 2" xmlns="http://www.w3.org/2000/svg" viewBox="0 0 96.99 96.99">
  <defs>
    <style>
      .cls-1 {
        fill: #003b7e;
      }

      .cls-2 {
        fill: #ffe500;
      }
    </style>
  </defs>
  <g id="Layer_1-2" data-name="Layer 1">
    <g>
      <circle class="cls-2" cx="48.49" cy="48.49" r="48.49"/>
      <path class="cls-1" d="M48.49,29.09c-2.62,0-5.14,1.04-7,2.9-.77,.77-1.4,1.66-1.88,2.62-1.46-.98-3.18-1.51-4.96-1.52h0c-2.37,0-4.64,.94-6.32,2.62-1.67,1.67-2.62,3.95-2.62,6.32h0c0,2.37,.94,4.64,2.62,6.32,.36,.36,.74,.68,1.15,.97-6.59,1.67-11.46,7.63-11.46,14.75v2.79c0,.58,.47,1.05,1.05,1.05h45.31s13.51,0,13.51,0h0c.58,0,1.05-.47,1.05-1.05v-2.79c0-7.12-4.87-13.08-11.46-14.75,.41-.29,.79-.61,1.15-.97,1.67-1.67,2.62-3.95,2.62-6.32,0-2.37-.94-4.64-2.62-6.32-1.67-1.67-3.95-2.62-6.32-2.62h0c-1.78,0-3.5,.54-4.96,1.52-.47-.96-1.1-1.85-1.88-2.62-1.86-1.86-4.37-2.9-7-2.9h0Zm0,2.1c2.07,0,4.05,.82,5.51,2.28,.86,.86,1.49,1.89,1.87,3.02,0,.05,.02,.1,.04,.14,.21,.67,.34,1.37,.37,2.07v.28c0,.22,0,.43-.03,.65-.15,1.71-.85,3.33-2.02,4.6h0s-.06,.07-.09,.11c-.05,.05-.1,.1-.15,.15-1.39,1.39-3.25,2.2-5.2,2.28-.03,0-.06,0-.09,0-.07,0-.15,0-.22,0-.1,0-.2,0-.31,0-1.96-.08-3.82-.89-5.2-2.28-.06-.06-.11-.11-.16-.17h0s-.05-.06-.07-.09c-1.31-1.43-2.04-3.31-2.04-5.25,0-.8,.12-1.6,.37-2.36,0-.02,.02-.05,.03-.08,.38-1.15,1.02-2.2,1.89-3.08,1.46-1.46,3.44-2.28,5.51-2.28h0Zm13.83,4c1.81,0,3.55,.72,4.83,2,1.28,1.28,2,3.02,2,4.83,0,1.81-.72,3.55-2,4.83-1.28,1.28-3.02,2-4.83,2-2.58,0-4.92-1.46-6.07-3.73,1.21-1.53,1.95-3.39,2.1-5.35,.03-.26,.03-.53,.03-.79,0-.12,0-.25,0-.37-.03-.66-.12-1.31-.27-1.95,1.2-.95,2.68-1.47,4.22-1.47h0Zm-27.67,0c1.54,0,3.02,.53,4.22,1.47-.18,.75-.28,1.53-.28,2.32,0,2.24,.76,4.4,2.14,6.14-1.16,2.27-3.49,3.72-6.08,3.73h0c-1.81,0-3.55-.72-4.83-2-1.28-1.28-2-3.02-2-4.83h0c0-1.81,.72-3.55,2-4.83,1.28-1.28,3.02-2,4.83-2h0Zm20.06,11.49c.48,.79,1.07,1.48,1.76,2.08-.94-.5-1.93-.92-2.97-1.24,.42-.25,.83-.53,1.21-.84h0Zm-12.44,0c.38,.31,.79,.59,1.21,.84-1.01,.31-1.98,.71-2.9,1.2-.03,.02-.05,.03-.08,.04,.68-.59,1.27-1.29,1.76-2.08h0Zm7.27,2.23c3.04,.21,5.81,1.32,8.06,3.06,.03,.02,.05,.04,.07,.06,.44,.35,.87,.72,1.27,1.12,.03,.02,.04,.04,.06,.06,.15,.15,.29,.3,.43,.45,.03,.02,.04,.04,.06,.07,.16,.17,.31,.35,.47,.54,.03,.02,.04,.05,.06,.07,.04,.05,.07,.09,.11,.14,.03,.02,.04,.05,.06,.07,.13,.16,.25,.33,.37,.5,.03,.02,.04,.05,.05,.07,.05,.07,.1,.15,.15,.22,.03,.05,.07,.1,.1,.15,.92,1.39,1.62,2.94,2.03,4.61,0,.03,.03,.06,.03,.09,.03,.09,.04,.18,.06,.27,0,.03,.03,.06,.03,.09,.03,.12,.05,.24,.07,.36,0,.03,0,.06,.03,.09,.16,.88,.25,1.8,.25,2.73v2.08h-29.69v-2.08s0-.06,0-.1c.05-7.84,6.08-14.18,13.79-14.71v7.76c0,.28,.1,.55,.3,.75,.2,.2,.47,.31,.75,.31s.55-.11,.75-.31c.2-.2,.31-.47,.3-.75l-.02-7.77Zm-16.3,2.04c1.24,0,2.44,.17,3.57,.49-3.24,3.09-5.26,7.45-5.26,12.28v2.08h-11.42v-1.74c0-7.28,5.83-13.11,13.11-13.11h0Zm30.5,0c7.28,0,13.11,5.83,13.11,13.11v1.74h-11.42v-2.08s0-.07,0-.11c-.03-4.79-2.04-9.11-5.26-12.17,1.13-.32,2.33-.49,3.57-.49h0Z"/>
    </g>
  </g>
</svg>