<?xml version="1.0" encoding="UTF-8"?>
<svg id="Layer_2" data-name="Layer 2" xmlns="http://www.w3.org/2000/svg" viewBox="0 0 156 156">
  <defs>
    <style>
      .cls-1 {
        fill: #fff;
      }

      .cls-2 {
        fill: #ffe500;
      }
    </style>
  </defs>
  <g id="Layer_1-2" data-name="Layer 1">
    <g>
      <circle class="cls-1" cx="78" cy="78" r="78"/>
      <circle class="cls-2" cx="78" cy="78" r="58"/>
      <g>
        <path d="M78,115l-.88-.63c-.42-.3-10.39-7.56-17.55-17.47-8.05-11.15-13.04-21.46-13.04-38.38v-8.3h1.5c8.57,0,17.08-2.17,24.61-6.28l5.4-2.94,3.16,1.9c7.98,4.79,17.13,7.32,26.44,7.32h1.83v8.63c0,16.68-4.84,26.82-13.21,38.69-6.15,8.72-16.93,16.51-17.38,16.84l-.88,.63Zm-28.47-61.81v5.32c0,16.19,4.57,25.69,12.47,36.63,5.67,7.86,13.43,14.15,16,16.14,2.69-2.04,10.93-8.57,15.8-15.47,8.02-11.38,12.66-21.07,12.66-36.96v-5.65c-9.45-.2-18.7-2.87-26.82-7.74l-1.69-1.01-3.89,2.12c-7.53,4.11-15.98,6.38-24.54,6.62h0Z"/>
        <path d="M75.75,84.56l-9.3-9.3,2.12-2.12,7.18,7.18,13.18-13.18,2.12,2.12-15.29,15.29Z"/>
      </g>
    </g>
  </g>
</svg>