<?xml version="1.0" encoding="UTF-8"?>
<svg id="Layer_2" data-name="Layer 2" xmlns="http://www.w3.org/2000/svg" viewBox="0 0 96.99 96.99">
  <defs>
    <style>
      .cls-1 {
        fill: #003b7e;
        stroke: #003b7e;
        stroke-miterlimit: 10;
        stroke-width: .6px;
      }

      .cls-2 {
        fill: #ffe500;
      }
    </style>
  </defs>
  <g id="Layer_1-2" data-name="Layer 1">
    <g>
      <circle class="cls-2" cx="48.49" cy="48.49" r="48.49"/>
      <path class="cls-1" d="M78.07,61.76c-1.48-.79-3.17-.96-4.77-.48-1.34,.4-2.48,1.22-3.28,2.34l-17.14-9.2,12.52-22.31c2.88,1.15,6.24,.02,7.8-2.76,1.69-3.02,.61-6.85-2.4-8.54-1.45-.81-3.11-1.01-4.68-.59-.46-1.56-1.49-2.88-2.94-3.69-3.02-1.69-6.85-.61-8.54,2.4-.82,1.46-1.02,3.15-.57,4.77,.38,1.35,1.18,2.51,2.31,3.35l-12.61,22.48-11.89-6.38c.49-1.29,.54-2.69,.14-4.03-.48-1.6-1.56-2.92-3.04-3.71-3.04-1.63-6.85-.49-8.48,2.56-.78,1.46-.95,3.12-.5,4.69-1.55,.49-2.84,1.55-3.63,3.01-1.63,3.04-.49,6.85,2.56,8.48,2.8,1.5,6.25,.65,8.07-1.9l11.72,6.29-3.53,6.3c-2.88-1.18-6.27-.05-7.83,2.74-.82,1.46-1.02,3.15-.57,4.77,.45,1.61,1.51,2.95,2.97,3.77,1.45,.81,3.11,1.01,4.68,.59,.46,1.56,1.49,2.88,2.94,3.69,.95,.53,2,.8,3.06,.8,.57,0,1.14-.08,1.71-.24,1.61-.45,2.95-1.51,3.77-2.97,1.56-2.77,.77-6.24-1.71-8.09l3.63-6.47,17.3,9.28c-.5,1.29-.56,2.71-.15,4.06,.48,1.6,1.56,2.92,3.04,3.71,.92,.5,1.93,.75,2.95,.75,.61,0,1.22-.09,1.82-.27,1.6-.48,2.92-1.56,3.71-3.04,.78-1.46,.95-3.12,.5-4.68,1.55-.49,2.84-1.55,3.63-3.01,1.63-3.04,.49-6.85-2.56-8.48h0ZM58.18,27.2c.22-.39,.05-.91-.35-1.13-1.08-.61-1.86-1.6-2.19-2.79s-.19-2.44,.42-3.52c1.25-2.23,4.08-3.03,6.31-1.77,1.28,.72,2.13,1.98,2.32,3.45,.03,.26,.19,.48,.41,.61,.22,.13,.5,.14,.73,.03,1.36-.6,2.87-.54,4.15,.18,2.23,1.25,3.03,4.08,1.77,6.31-.61,1.08-1.6,1.86-2.79,2.19-1.19,.34-2.44,.19-3.52-.42-.39-.22-.89-.08-1.11,.31l-12.91,23-6.23-3.34,12.97-23.12Zm-15.79,42.58c-.11,.19-.13,.41-.07,.62,.06,.21,.2,.39,.39,.49,1.08,.61,1.86,1.6,2.19,2.79,.34,1.19,.19,2.44-.42,3.52-.61,1.08-1.6,1.86-2.79,2.19-1.19,.34-2.44,.19-3.52-.42-1.28-.72-2.13-1.98-2.32-3.45-.03-.26-.19-.48-.41-.61-.23-.13-.5-.14-.73-.03-1.36,.6-2.87,.54-4.15-.19-1.08-.61-1.86-1.6-2.19-2.79-.34-1.19-.19-2.44,.42-3.52,1.25-2.23,4.08-3.02,6.34-1.76,.19,.11,.41,.14,.62,.08,.21-.06,.39-.2,.49-.39l3.93-7,6.23,3.34-3.99,7.11Zm36.79-.3c-.7,1.3-1.93,2.17-3.4,2.38-.25,.04-.48,.19-.6,.42-.12,.23-.13,.5-.02,.73,.63,1.34,.59,2.86-.11,4.15-.58,1.09-1.56,1.89-2.74,2.24-1.18,.36-2.44,.23-3.53-.35-1.09-.58-1.89-1.56-2.24-2.74-.36-1.18-.23-2.44,.36-3.53l.02-.03c.21-.4,.06-.89-.34-1.1L27.09,50.45c-.12-.06-.24-.09-.36-.09-.31,0-.61,.17-.76,.46-1.21,2.25-4.02,3.1-6.27,1.89-2.25-1.21-3.1-4.02-1.89-6.27,.7-1.3,1.93-2.17,3.4-2.38,.25-.04,.48-.19,.6-.42,.12-.23,.13-.5,.02-.73-.63-1.34-.59-2.86,.11-4.15,1.21-2.25,4.02-3.1,6.27-1.89,1.09,.58,1.89,1.56,2.24,2.74,.36,1.18,.23,2.44-.35,3.53-.1,.19-.12,.42-.06,.62,.06,.21,.2,.38,.4,.48l39.49,21.19c.4,.21,.89,.06,1.11-.33,.59-1.09,1.56-1.89,2.74-2.24,1.18-.36,2.44-.23,3.53,.35,2.25,1.21,3.1,4.02,1.89,6.27h0Z"/>
    </g>
  </g>
</svg>