<?xml version="1.0" encoding="UTF-8"?>
<svg xmlns="http://www.w3.org/2000/svg" xmlns:xlink="http://www.w3.org/1999/xlink" viewBox="0 0 172.79 204.59">
  <defs>
    <style>
      .cls-1 {
        opacity: .69;
      }

      .cls-2, .cls-3, .cls-4, .cls-5 {
        fill: #fb6856;
      }

      .cls-2, .cls-6, .cls-7, .cls-8, .cls-9, .cls-10, .cls-5 {
        mix-blend-mode: multiply;
      }

      .cls-11, .cls-8 {
        fill: #fea45b;
      }

      .cls-12 {
        clip-path: url(#clippath-2);
      }

      .cls-13 {
        isolation: isolate;
      }

      .cls-14, .cls-15, .cls-16 {
        fill: #390d08;
      }

      .cls-17, .cls-9 {
        fill: #97554d;
      }

      .cls-18, .cls-19 {
        fill: #588584;
      }

      .cls-18, .cls-9 {
        opacity: .42;
      }

      .cls-6 {
        opacity: .51;
      }

      .cls-6, .cls-7, .cls-20 {
        fill: #ffb3ab;
      }

      .cls-21 {
        opacity: .22;
      }

      .cls-22 {
        clip-path: url(#clippath-1);
      }

      .cls-23 {
        clip-path: url(#clippath-4);
      }

      .cls-4, .cls-24 {
        opacity: .49;
      }

      .cls-25 {
        opacity: .34;
      }

      .cls-26 {
        fill: #78c8e1;
      }

      .cls-15 {
        opacity: .47;
      }

      .cls-27 {
        opacity: .38;
      }

      .cls-8, .cls-28 {
        opacity: .17;
      }

      .cls-29 {
        fill: #fff;
        opacity: .33;
      }

      .cls-30 {
        fill: #e8594e;
      }

      .cls-31 {
        clip-path: url(#clippath);
      }

      .cls-32 {
        fill: none;
      }

      .cls-33 {
        clip-path: url(#clippath-3);
      }

      .cls-16 {
        opacity: .25;
      }

      .cls-34 {
        fill: #f9d8b9;
      }

      .cls-10 {
        opacity: .53;
      }

      .cls-5 {
        opacity: .19;
      }
    </style>
    <clipPath id="clippath">
      <path class="cls-32" d="M108.68,19.1h-.14C103.89-1.45,84.25,.02,84.25,.02c-19.03-.6-23.79,15.92-24.8,20.96l-21.72,12.67s20.01-2.73,31.83-.91c11.82,1.82,41.84,.91,46.38,0,4.55-.91,16.83-1.36,16.83-1.36l-24.1-12.28Z"/>
    </clipPath>
    <clipPath id="clippath-1">
      <path class="cls-32" d="M23.68,158.7c-.91,2.63-1.4,5.35-1.4,8.15,0,20.84,26.57,37.74,59.34,37.74s59.34-16.9,59.34-37.74c0-2.8-.49-5.52-1.4-8.15H23.68Z"/>
    </clipPath>
    <clipPath id="clippath-2">
      <path class="cls-32" d="M172.79,140.33c-.05-6.3-7.09-12.04-18.83-16.53,.59-2.76,1.17-7.64-1.38-10.15-2.59-2.55-8.44,2.79-11.66,6.14-14.92-3.68-33.98-5.81-54.73-5.66C38.48,114.49-.11,126.79,0,141.6c.11,14.82,38.88,26.54,86.59,26.19,14.36-.11,27.89-1.29,39.79-3.31,5.52,3.79,12.64,4.49,15.11,3.41,3.05-1.33,3.27-5.99,3.27-5.99,0,0,4.56,1.79,8.21,2.67,2.36,.57,2.08-4.17,1.59-7.57,11.47-4.64,18.29-10.43,18.25-16.67Z"/>
    </clipPath>
    <clipPath id="clippath-3">
      <path class="cls-32" d="M37.04,147.33s-5.51,3.57-2.33,6.93c3.18,3.36,19.88,24.46,24.18,23.68,4.31-.79-10.85-28.51-13.79-32.42-2.94-3.92-8.06,1.81-8.06,1.81Z"/>
    </clipPath>
    <clipPath id="clippath-4">
      <path class="cls-32" d="M51.08,144.02s-6.28,1.92-4.15,6.02c2.13,4.1,12.37,28.99,16.73,29.42,4.36,.43-2.58-30.39-4.33-34.97-1.75-4.57-8.25-.48-8.25-.48Z"/>
    </clipPath>
  </defs>
  <g class="cls-13">
    <g id="Layer_2" data-name="Layer 2">
      <g id="Layer_1-2" data-name="Layer 1">
        <g>
          <path class="cls-30" d="M37.29,34.03s67.3,17.54,94.58-2.65l-86.4-.91-8.19,3.56Z"/>
          <path class="cls-3" d="M156.78,139.06c-.36,1.16-.98,2.22-1.95,2.99-.27,.21-.56,.4-.89,.57h0c-.79,.4-1.74,.65-2.9,.7-.7,.04-1.48,0-2.33-.13-.45-.06-.94-.15-1.44-.26-2.12-.47-4.46-1.54-6.9-3-.36-.21-.73-.44-1.1-.67-.21-.13-.42-.27-.63-.41-.5-.33-1-.67-1.51-1.02-.02,0-.03-.02-.05-.03-3.86-2.71-7.85-6.16-11.51-9.61-.06-.06-.11-.1-.16-.15-2.05-1.95-4.01-3.9-5.77-5.72-.14-.14-.28-.29-.41-.43l-.04,.18-3.15,15.77-1.9,9.49,.95,4.98,1.13,5.93,1.26,6.62,.27,1.41,2.46,12.9,2.73,14.33c-1.98,1.22-4.1,2.36-6.34,3.39-.59,.27-1.18,.54-1.78,.8-.02,0-.06,.02-.08,.03-.63,.27-1.27,.53-1.92,.79-1.26,.5-2.55,.97-3.88,1.4-.1,.03-.2,.06-.29,.1-1.98,.65-4.01,1.22-6.12,1.72-.72,.17-1.45,.33-2.19,.49s-1.48,.3-2.23,.44c-.75,.14-1.49,.27-2.25,.39h-.02c-.6,.1-1.21,.19-1.82,.27-.29,.04-.59,.08-.9,.11-.55,.07-1.09,.13-1.64,.2-.27,.02-.54,.06-.81,.08-.56,.06-1.13,.1-1.71,.15-.13,0-.26,.02-.4,.02-.63,.06-1.28,.1-1.93,.13-.06,0-.13,0-.19,0-.73,.04-1.47,.07-2.21,.09-.86,.02-1.74,.04-2.61,.04-16,0-30.52-4.03-41.2-10.57,.36-2.52,.77-5.3,1.18-8.2,.35-2.41,.7-4.9,1.04-7.39,.64-4.61,1.27-9.24,1.8-13.4,.02-.19,.05-.37,.07-.56,.03-.23,.06-.46,.09-.69h0c.23-1.82,.44-3.52,.61-5.08,.25-2.18,.44-4.08,.57-5.56,.1-1.13,.14-2.02,.14-2.63,0-1.93-.76-6.97-1.89-13.35-.66-3.75-1.44-7.96-2.27-12.28-3.39,4.12-8.13,9.6-13.11,14.44-.29,.27-.57,.54-.85,.82-.29,.28-.58,.55-.87,.82-.54,.51-1.09,1-1.63,1.48-.06,.06-.13,.11-.19,.17-.33,.29-.65,.56-.98,.84-.21,.18-.43,.36-.64,.54-.14,.13-.29,.25-.44,.36-3.7,3.03-7.31,5.32-10.38,6.08-.43,.11-.84,.19-1.24,.25-5.41,.87-7.31-2.24-7.81-5.67-.55-3.61,.44-7.56,.44-7.56,.98-2.2,1.96-4.31,2.94-6.32,.13-.28,.27-.55,.4-.82,1.58-3.2,3.15-6.19,4.7-8.96,.12-.21,.24-.43,.36-.63,2.47-4.38,4.87-8.21,7.13-11.53,.1-.15,.21-.31,.32-.46,2.51-3.66,4.82-6.68,6.84-9.11,.21-.25,.41-.49,.61-.73,4.34-5.14,7.12-7.42,7.12-7.42,.2,.03,.38,.08,.58,.12-.03-.13-.05-.2-.05-.2l9.12-2.95,7.41-2.4,5.59-1.81,3.45-1.12,.08-.02,4.46-1.44,.82-.26,3.06-.09,26.62-.73,1.76-.06,1.29-.03,3.46,1.04,7.41,2.22,5.53,1.66,9.31,2.79s.02,.03,.02,.04c.04,0,.07,0,.11-.02,0,0,16.6,12.06,32.13,43.16,0,0,1.25,4.55,.13,8.13Z"/>
          <path class="cls-20" d="M97.23,79.37l1.24-1.44s-.58-.03-1.56-.08l-1.87-8.72-26.37-3.64-2.49,14.09c-.74,.35-1.26,.75-1.5,1.22l17.55,16.04,11.04-12.85c1.56-.52,3.07-1.21,4.5-2.13l-.53-2.49Z"/>
          <path class="cls-6" d="M96.05,73.83l-1.01-4.71-26.37-3.64-1.26,7.15c8.47,6,19.52,5.88,28.65,1.2Z"/>
          <path class="cls-20" d="M106.18,40.18s.36-2.71,3.96-2.23c3.61,.47,.81,12.37-4.9,15.12,0,0-1.7-6.81,.93-12.89Z"/>
          <path class="cls-20" d="M106.86,30.92c0-12.56-10.18-22.74-22.74-22.74s-22.74,10.18-22.74,22.74c0,0-.13,.68-.29,1.86-1.17,8.33-4.26,41.68,21.21,40.88,0,0,28.19,8.19,24.56-42.75Z"/>
          <path class="cls-14" d="M105.15,46.77c0-2.07-.07-4.29,.7-6.17,.75-1.83,2.15-2.65,3.63-2.86l.57-8.19h-6.97s-.7,11.82,0,15.46c.66,3.45,1.94,2,2.08,1.84,0-.03,0-.05,0-.08Z"/>
          <path class="cls-20" d="M61.96,40.18s-.36-2.71-3.96-2.23c-3.61,.47-.81,12.37,4.9,15.12,0,0,1.7-6.81-.93-12.89Z"/>
          <path class="cls-14" d="M62.99,46.77c0-2.07,.07-4.29-.7-6.17-.75-1.83-2.15-2.65-3.63-2.86l-.57-8.19h6.97s.7,11.82,0,15.46c-.66,3.45-1.94,2-2.08,1.84,0-.03,0-.05,0-.08Z"/>
          <g class="cls-25">
            <path class="cls-3" d="M60.03,47.86c-.45,0-.89-.24-1.26-.72-1.23-1.57-1.8-6.08-.89-7,.34-.34,.69-.36,.93-.32,.97,.16,1.77,1.72,1.92,2.03,.11,.23,.01,.5-.21,.61-.23,.11-.5,.02-.61-.21-.34-.69-.92-1.48-1.25-1.53-.03,0-.06-.01-.14,.06-.45,.49-.15,4.42,.98,5.82,.37,.45,.61,.36,.81,.24,.22-.13,.49-.06,.62,.16,.13,.22,.06,.49-.16,.62-.25,.15-.51,.23-.76,.23Z"/>
          </g>
          <g class="cls-25">
            <path class="cls-3" d="M107.53,48.77c.45,0,.89-.24,1.26-.72,1.23-1.57,1.8-6.08,.89-7-.34-.34-.69-.36-.93-.32-.97,.16-1.77,1.72-1.92,2.03-.11,.23-.01,.5,.21,.61,.23,.11,.5,.02,.61-.21,.34-.69,.92-1.48,1.25-1.53,.03,0,.06-.01,.14,.06,.45,.49,.15,4.42-.98,5.82-.37,.45-.61,.36-.81,.24-.22-.13-.49-.06-.62,.16-.13,.22-.06,.49,.16,.62,.25,.15,.51,.23,.76,.23Z"/>
          </g>
          <path class="cls-7" d="M59.14,29.82l50.9-.26-.5,6.15s-45.86,1.47-50.87-1.88l-.47-4.26,.94,.26Z"/>
          <g class="cls-31">
            <path class="cls-11" d="M108.68,19.1h-.14C103.89-1.45,84.25,.02,84.25,.02c-19.03-.6-23.79,15.92-24.8,20.96l-21.72,12.67s20.01-2.73,31.83-.91c11.82,1.82,41.84,.91,46.38,0,4.55-.91,16.83-1.36,16.83-1.36l-24.1-12.28Z"/>
            <path class="cls-8" d="M76.93,32.48c-8.24-1.26-12.89-8.74-10.28-16.78,2.03-6.24,7.07-10.67,11.63-15.25-14.09,2.6-17.93,16.06-18.83,20.53l-21.72,12.67s20.01-2.73,31.83-.91c6.24,.96,17.54,1.16,27.5,1-6.74,.02-13.47-.24-20.14-1.26Z"/>
            <path class="cls-4" d="M122.04,24.85l-.35-.58c-1.97,1.19-5.31,2.03-9.52,2.61-3.47-2.88-5.88-5.3-5.84-6.2,3.29-.52,5.81-1.24,7.11-2.21l-.41-.55c-1.19,.89-3.52,1.56-6.57,2.05,.17-1.56-.6-4.7-1.5-7.69,1.2-.29,2.22-.64,2.97-1.07l-.33-.6c-.72,.4-1.69,.73-2.84,1.01-.92-2.99-1.91-5.7-2.13-6.29l-.64,.24c.52,1.4,1.34,3.76,2.09,6.21-1.38,.29-2.99,.51-4.76,.67-.58-2.26-1.23-4.56-1.78-6.46,3.88-.32,7.03-.96,8.6-2.08l-.4-.56c-1.5,1.07-4.58,1.67-8.4,1.97-.59-2-1.02-3.43-1.08-3.61l-.65,.2s.44,1.44,1.04,3.46c-1.08,.07-2.22,.12-3.39,.16-.24-3.16-.72-5.78-1.63-6.69l-.48,.48c.77,.77,1.21,3.19,1.43,6.22-1.91,.04-3.9,.03-5.89-.01l.49-6.43-.68-.05-.5,6.46c-1.54-.04-3.07-.1-4.57-.17,1.13-3.36,2.41-6.08,3.76-6.89l-.35-.59c-1.51,.9-2.9,3.85-4.1,7.44-1.83-.09-3.59-.2-5.22-.31,1.08-1.96,2.29-3.6,3.6-4.61l-.42-.54c-1.45,1.12-2.77,2.95-3.94,5.1-1.59-.11-3.03-.23-4.27-.33,1.19-1.85,2.48-3.4,3.81-4.36l-.4-.56c-1.49,1.06-2.9,2.8-4.19,4.84-2.26-.2-3.69-.35-3.76-.36l-.07,.68c.25,.03,1.51,.16,3.43,.33-1.24,2.07-2.37,4.39-3.33,6.64-2.76-.21-4.49-.37-4.57-.38l-.06,.68c.3,.03,1.91,.18,4.36,.37-1.45,3.46-2.5,6.64-3.01,8.27-2.98-.12-4.83-.23-4.93-.23l-.04,.68c.35,.02,2.09,.12,4.76,.23-.04,.14-.08,.25-.1,.33l-7.86,4.73c-4.08-.29-6.63-.51-6.75-.52l-.06,.68c.06,0,2.23,.19,5.79,.45l-10.56,6.36,.35,.58,11.39-6.86c2.52,.18,5.61,.38,9.06,.58l-4.43,4.68,.49,.47,4.83-5.1c2.97,.16,6.18,.32,9.53,.45l-2.85,5.81,.61,.3,2.98-6.08c1.76,.07,3.56,.13,5.36,.17,1.35,.04,2.67,.06,3.96,.09l-.45,5.91,.68,.05,.46-5.95c2.01,.03,3.96,.05,5.82,.05,1.17,0,2.3,0,3.41-.02l1.46,5.98,.66-.16-1.43-5.83c2.61-.04,5.05-.11,7.32-.22,1.17,3.19,2.46,6.05,2.56,6.27l.62-.28c-.02-.05-1.3-2.86-2.47-6.02,3.45-.18,6.48-.45,9.1-.8,.23,.19,.45,.37,.7,.57,3.71,2.99,7.59,5.74,7.63,5.76l.39-.56c-2.74-1.94-5.47-4-7.81-5.9,4.24-.63,7.3-1.5,9.15-2.62Zm-17.76-12.42c.97,3.24,1.75,6.46,1.45,7.65-1.47,.22-3.08,.4-4.81,.55-.03-1.51-.65-4.41-1.43-7.5,1.78-.17,3.39-.4,4.79-.7Zm-18.8,8.81l.59-7.71c.92,.01,1.83,.02,2.74,.02,1.34,0,2.66-.02,3.96-.05-.03,2.91-.14,5.66-.26,7.6-2.3,.08-4.67,.12-7.03,.14Zm-6.24-7.9c2.01,.08,4.08,.14,6.15,.18l-.59,7.72c-2.43,.01-4.85,0-7.19-.03,.36-1.94,.92-4.81,1.63-7.87Zm-2.33,7.86c-2.52-.04-4.93-.09-7.14-.15,.45-1.82,1.25-4.85,2.35-8.07,1.99,.12,4.16,.24,6.41,.33-.72,3.1-1.28,5.97-1.63,7.89Zm16.54-7.72c1.87-.06,3.67-.15,5.34-.3,.8,3.13,1.43,6.06,1.44,7.49-2.21,.18-4.59,.31-7.04,.4,.08-1.34,.22-4.27,.26-7.59Zm3.38-7.44c.55,1.89,1.2,4.2,1.79,6.47-1.62,.13-3.35,.22-5.16,.27,.01-2.17-.02-4.46-.16-6.57,1.22-.04,2.4-.09,3.53-.17Zm-6.97,.22c.93,0,1.85,0,2.75-.03,.13,2.05,.17,4.34,.15,6.56-2.15,.05-4.4,.05-6.65,.02l.51-6.59c1.08,.02,2.17,.04,3.24,.04Zm-3.92-.05l-.51,6.6c-2.03-.03-4.06-.1-6.04-.17,.53-2.22,1.14-4.51,1.81-6.6,1.55,.07,3.14,.13,4.74,.17Zm-5.43-.21c-.68,2.11-1.29,4.39-1.81,6.6-2.23-.09-4.37-.21-6.34-.32,.8-2.25,1.74-4.57,2.8-6.61,1.67,.12,3.47,.23,5.36,.33Zm-10.43-.73c1.24,.11,2.71,.23,4.33,.35-1.06,2.07-1.99,4.38-2.78,6.62-1.82-.11-3.48-.23-4.91-.33,.98-2.27,2.12-4.59,3.36-6.63Zm-3.65,7.3c1.44,.11,3.12,.23,4.96,.35-1.11,3.27-1.9,6.31-2.33,8.1-2.12-.06-4.04-.13-5.67-.2,.54-1.7,1.61-4.86,3.04-8.25Zm-10.73,14.05l7.25-4.37,.04-.13s.07-.24,.19-.62c1.64,.07,3.58,.14,5.72,.21-.09,.41-.16,.71-.19,.86l-4.35,4.59c-3.25-.18-6.19-.37-8.66-.54Zm9.55,.59l4.01-4.24,.07-.07,.02-.09s.09-.42,.25-1.07c2.22,.07,4.65,.12,7.18,.16-.15,.85-.25,1.43-.28,1.63l-2.02,4.11c-3.23-.12-6.35-.27-9.24-.43Zm9.98,.46l1.9-3.88,.03-.1s.11-.7,.31-1.78c1.72,.02,3.49,.04,5.27,.04,.66,0,1.32,0,1.99,0l-.46,5.98c-3.05-.05-6.09-.14-9.04-.25Zm9.72,.26l.46-5.99c2.36-.02,4.74-.06,7.05-.14v.04s1.5,6.13,1.5,6.13c-2.96,.03-5.98,.02-9-.03Zm9.71,.02l-1.51-6.18s0,0,0,0c2.47-.09,4.87-.22,7.1-.41,.1,1.63,.82,4.04,1.65,6.38-2.33,.11-4.75,.18-7.24,.21Zm7.95-.25c-.85-2.36-1.59-4.82-1.69-6.4,1.67-.15,3.24-.32,4.68-.53,.09,.74,1,2.33,5.63,6.21-2.61,.33-5.52,.56-8.62,.72Z"/>
          </g>
          <path class="cls-16" d="M115.43,105.85l.29-1.98s0,0,0,0l.36-2.52c.24-.04,.48-.08,.71-.13,.88-.16,1.67-.34,2.35-.55,.21-.06,.43-.13,.62-.2l-.31-.86c-.13,.05-.26,.1-.4,.13-.65,.21-1.42,.39-2.29,.56-.17,.03-.35,.06-.53,.1l.18-1.29s0,0,0,0l.48-3.24,1.36-9.41-.9-.13-1.28,8.9-.4,2.72-.32,2.19-.06,.4c-2.05,.31-4.55,.54-7.36,.71h-.06c-.75,.05-1.54,.09-2.34,.12-1.49,.06-3.06,.11-4.68,.15l.82-15.15h0s.2-3.59,.2-3.59l-.9-.06-.23,4.13-.8,14.67c-2.39,.05-4.89,.06-7.45,.06l.06-2.46,.23-9.09-.91-.02-.25,9.77h0s-.05,1.8-.05,1.8c-.82,0-1.63-.02-2.45-.02h0c-1.47-.02-2.95-.03-4.44-.06-.21,0-.44,0-.65,0l-.12-2.42-.19-3.96-.03-.56-.56,.03-.35,.02,.06,1.08v.02l.02,.42h0s.05,.88,.05,.88h0s.21,4.48,.21,4.48c-.66-.02-1.32-.02-1.98-.05-1.9-.04-3.78-.1-5.66-.16h0c-.31,0-.6-.02-.91-.02-.03-.21-.06-.4-.1-.6-.99-6.35-1.66-10.53-1.68-10.68l-.9,.14c.02,.15,.63,4,1.55,9.91,.06,.4,.13,.8,.19,1.21-2.95-.1-5.85-.21-8.64-.33-.47-2.51-.9-4.84-1.29-6.94-.04-.17-.06-.33-.1-.49-.54-2.84-1-5.24-1.35-7.07-.46-2.4-.73-3.81-.75-3.91l-.81,.16-.08,.02h0c.02,.13,.25,1.28,.62,3.23,.61,3.17,1.62,8.48,2.83,14.97-2.7-.11-5.27-.24-7.66-.36l-.48-.02c-.14-1.01-.28-1.98-.41-2.92-1.05-7.44-1.75-12.28-1.78-12.46l-.9,.13c.02,.17,.63,4.33,1.55,10.87,.2,1.35,.4,2.8,.62,4.33-.33-.02-.65-.03-.97-.05-.05,0-.1,0-.16,0-3.43-.18-6.39-.36-8.63-.49-.24,0-.47-.02-.69-.04-.47-.03-.9-.06-1.29-.08-.05-.33-.1-.65-.14-.97h0c-.83-5.86-1.37-9.53-1.4-9.69l-.9,.13c.02,.16,.62,4.16,1.52,10.47-1.11-.07-1.75-.12-1.81-.12l-.06,.9c.24,.02,.94,.06,2.01,.13,.38,2.66,.81,5.7,1.27,9-1.17,0-2.05-.02-2.6-.02-.38,0-.59,0-.63,0v.9c.12,0,.37,0,.75,0,.59,.02,1.48,.02,2.62,.03,.29,2.1,.59,4.31,.9,6.58l.17,.02c.25,.04,.52,.08,.77,.12-.25-1.89-.51-3.72-.75-5.49-.06-.41-.11-.82-.17-1.23h.13c2.63,.03,6.28,.06,10.57,.08,.31,0,.63,0,.94,0,.13,1,.28,2.01,.42,3.04,.2,1.39,.39,2.8,.59,4.24,.3,0,.61,0,.91,0-.2-1.44-.39-2.86-.59-4.25-.13-1.02-.28-2.03-.41-3.02,2.67,.02,5.54,.02,8.53,.02,.17,.94,.35,1.89,.52,2.85,.25,1.37,.5,2.77,.75,4.18,.31,0,.62-.02,.92-.02-.25-1.41-.51-2.81-.76-4.18-.17-.95-.34-1.9-.51-2.82,2.69,0,5.47,0,8.29-.02,.13,.88,.28,1.78,.42,2.69,.21,1.36,.42,2.77,.64,4.2h.92c-.22-1.43-.44-2.84-.65-4.21-.14-.91-.28-1.8-.41-2.68,2.51-.02,5.04-.03,7.56-.06l.13,2.61,.21,4.34h.91l-.21-4.36-.13-2.6c2.33-.02,4.64-.06,6.89-.1l-.06,2.58-.11,4.47h.9l.12-4.49,.06-2.58c2.48-.05,4.89-.11,7.19-.17l-.14,2.62-.25,4.59h.91l.25-4.61,.14-2.63c2.42-.08,4.69-.17,6.77-.27,2.64-.13,4.97-.29,6.87-.48l-1.2,8.26c.31,.02,.61,.03,.92,.04l1.21-8.4c.19-.02,.38-.05,.56-.06,1.55-.19,2.71-.41,3.36-.66l-.33-.85c-.59,.22-1.64,.42-3.05,.6-.13,.02-.28,.03-.42,.05l.19-1.33,.19-1.27Zm-60.12,3.86c-4.24,0-7.86-.04-10.45-.07h-.22c-.24-1.67-.46-3.28-.68-4.8h0c-.2-1.47-.4-2.85-.58-4.15,.36,.02,.76,.05,1.19,.07,.17,.02,.35,.02,.53,.04,2.31,.14,5.35,.32,8.9,.51h.04c.35,.02,.71,.04,1.07,.06,.13,.95,.27,1.93,.41,2.93,.24,1.73,.49,3.54,.75,5.42-.33,0-.64,0-.96,0Zm1.88,.02c-.35-2.51-.68-4.89-1-7.13h0c-.05-.4-.1-.79-.16-1.18,.11,0,.22,.02,.34,.02,2.44,.13,5.08,.26,7.84,.37,.47,2.5,.96,5.16,1.47,7.94-2.98,0-5.84,0-8.49-.02Zm9.42,.02c-.51-2.76-1-5.41-1.46-7.89,2.77,.12,5.66,.23,8.61,.33,.36,2.3,.75,4.84,1.17,7.54-2.83,.02-5.62,.02-8.32,.02Zm9.23-.03c-.41-2.69-.8-5.21-1.17-7.5,.79,.02,1.57,.05,2.36,.07,1.23,.03,2.47,.07,3.7,.1,.8,.02,1.6,.04,2.4,.06l.35,7.23c-2.55,.02-5.11,.05-7.65,.06Zm8.57-.07l-.35-7.19c.3,0,.6,0,.9,.02,.95,.02,1.9,.03,2.85,.04,1.25,.02,2.5,.02,3.73,.03l-.17,7.01c-2.28,.04-4.6,.07-6.96,.1Zm7.87-.12l.17-6.99c.29,0,.58,0,.86,0,2.25,0,4.45-.02,6.56-.06l-.37,6.87c-2.3,.07-4.72,.13-7.22,.17Zm21.85-.96c-1.89,.19-4.23,.36-6.92,.49-2.08,.1-4.36,.19-6.8,.27l.37-6.86c1.68-.04,3.3-.1,4.85-.17,.75-.03,1.49-.07,2.21-.11,.06,0,.12,0,.17-.02,2.7-.16,5.1-.38,7.13-.67l-.47,3.28-.4,2.72-.15,1.06Z"/>
          <path class="cls-26" d="M124.18,192.7c-.41,.27-.83,.53-1.25,.8-1.98,1.22-4.1,2.36-6.34,3.39-.59,.27-1.18,.54-1.78,.8-.02,0-.06,.02-.08,.03-.63,.27-1.27,.53-1.92,.79-1.26,.5-2.55,.97-3.88,1.4-.1,.03-.2,.06-.29,.1-1.98,.65-4.01,1.22-6.12,1.72-.72,.17-1.45,.33-2.19,.49s-1.48,.3-2.23,.44c-.75,.14-1.49,.27-2.25,.39h-.02c-.6,.1-1.21,.19-1.82,.27-.29,.04-.59,.08-.9,.11-.55,.07-1.09,.13-1.64,.2-.27,.02-.54,.06-.81,.08-.56,.06-1.13,.1-1.71,.15-.13,0-.26,.02-.4,.02-.63,.06-1.28,.1-1.93,.13-.06,0-.13,0-.19,0-.73,.04-1.47,.07-2.21,.09-.86,.02-1.74,.04-2.61,.04-16,0-30.52-4.03-41.2-10.57-.26-.17-.52-.33-.79-.49l.69-8.79,.63-7.94,.5-6.4h0s.45-5.68,.45-5.68l.12-1.52h0s.02-.27,.02-.27l.33-4.22,.41-5.22,1.21-15.41,.04-.9,.87-19.57,.11-2.55-.1-2.82-.04-1.23-.03-.91-.13-3.87-.17-5.01-.03-.91-.11-3.36-.29-8.49-.02-.68,7.27-2.73,.16,1.02,1.48,9.47,.64,4.07s0,0,0,0l.19,1.23,.14,.93,.02,.14,.63,4.05h0s.66,4.2,.66,4.2l.14,.92,.48,3.06,.89-.02,.91-.02,8.64-.16,.91-.02,8.2-.15,.91-.02,7.27-.13,.9-.02,6.7-.13,.91-.02,7.11-.13,.91-.02,4.84-.09h1.82l.25-2.82,.09-.91,.29-3.27,.33-3.6,.06-.63h0s.02-.29,.02-.29l.15-1.67h0s.39-4.24,.39-4.24l1.09-12.04,.05-.53,5.46,.9,.02,1.29,.17,9.84,.05,2.81,.04,2.55,.07,4.05,.03,1.65,.02,1.17,.02,1.39,.02,.9,.48,28.02,.08,.51,2.2,14.79,.83,5.62,.94,6.34,.02,.11,.09,.57,1.59,10.68v.02l.24,1.62,2.24,15.12Z"/>
          <polygon class="cls-18" points="60.48 121.87 103.22 121.87 102.31 138.24 83.22 148.24 61.39 138.24 60.48 121.87"/>
          <path class="cls-30" d="M66.57,75.23l-9.51,8.62,12.51,6.19-6.37,3.64,16.83,10.46,3.64-9.09s-18.28-14.61-17.1-19.81Z"/>
          <path class="cls-30" d="M96.85,75.94l8.65,8.39-11.38,6.03,5.79,3.54-14.42,10.22-2.96-9.34s15.39-13.79,14.31-18.86Z"/>
          <g class="cls-1">
            <path class="cls-14" d="M41.38,124.14s-.03,0-.04,0c-.25-.02-.43-.24-.41-.49,.89-9.82-3.58-30.58-3.63-30.78-.05-.25,.1-.49,.35-.54,.25-.05,.49,.1,.54,.35,.19,.86,4.55,21.1,3.65,31.06-.02,.24-.22,.41-.45,.41Z"/>
          </g>
          <g class="cls-1">
            <path class="cls-14" d="M119.59,122.32c-.21,0-.4-.15-.44-.37-1.82-9.08,2.54-31.95,2.73-32.92,.05-.25,.29-.41,.53-.36,.25,.05,.41,.29,.36,.53-.05,.24-4.51,23.66-2.73,32.57,.05,.25-.11,.49-.36,.53-.03,0-.06,0-.09,0Z"/>
          </g>
          <path class="cls-16" d="M41.77,114.36c-.04-.06-.09-.11-.14-.15h0c-.14-.09-.32-.1-.48,0-.13,.08-.27,.18-.42,.3-1.25,.99-2.99,3.28-4.88,6.14-1.13-2.46-2.32-5.43-3.46-8.38,2.47-3.45,4.91-6.26,7.06-7.72,.21-.14,.41-.27,.61-.38,.12-.07,.2-.18,.21-.3v-.02h0c.02-.1,0-.21-.05-.3-.12-.22-.4-.29-.62-.17-.1,.06-.21,.13-.32,.2-2.24,1.39-4.74,4.19-7.29,7.67-1.02-2.73-1.98-5.37-2.73-7.54,2.92-3.32,5.89-5.92,8.76-7.23,.04-.02,.07-.04,.11-.06,.23-.1,.33-.37,.22-.6-.1-.21-.3-.31-.51-.25h0s-.06,.02-.08,.02c-2.75,1.24-5.7,3.63-8.84,7.12-.83-2.38-1.36-3.97-1.37-4.02-.03-.1-.1-.19-.19-.24-.11-.08-.25-.1-.39-.06-.24,.08-.36,.34-.29,.58,0,.04,.03,.1,.06,.21,.2,.58,.73,2.18,1.48,4.32-2,2.31-4.07,5.05-6.21,8.25-.94-1.91-1.53-3.17-1.55-3.22-.1-.21-.33-.32-.55-.24-.02,0-.04,0-.06,.02-.17,.08-.27,.26-.26,.44,0,.06,.02,.11,.05,.16,.1,.21,.77,1.65,1.78,3.71-1.97,2.98-3.99,6.33-6.07,10.03-.06,.1-.1,.19-.16,.29-1.4-1.48-2.32-2.48-2.35-2.51-.1-.11-.25-.17-.39-.14-.09,0-.18,.05-.25,.11-.15,.13-.19,.34-.1,.52,.02,.04,.04,.08,.07,.12,.13,.15,1.11,1.22,2.55,2.74-1.51,2.74-2.9,5.41-4.15,7.88-1.49-.82-2.63-1.48-3.17-1.79-.07-.05-.13-.09-.19-.12-.12,.29-.24,.56-.37,.84,.05,.03,.1,.06,.17,.1,.58,.34,1.7,.99,3.16,1.79-3.03,6.06-5.06,10.72-5.5,11.74-.06,.13-.09,.2-.09,.21-.1,.23,0,.49,.24,.59,.06,.02,.12,.03,.18,.03,.17,0,.34-.1,.42-.28,0-.03,.15-.36,.4-.93,.78-1.75,2.61-5.84,5.16-10.93,1.91,1.03,4.24,2.23,6.57,3.26-.91,1.84-1.68,3.43-2.27,4.67-.74,1.55-1.19,2.55-1.29,2.77-.1,.23,0,.5,.22,.6,.06,.03,.13,.04,.19,.04,.17,0,.33-.1,.41-.26,.03-.07,.63-1.39,1.66-3.51,.53-1.11,1.18-2.45,1.93-3.94,1.94,.82,3.83,1.52,5.44,1.86,0,0,.02,0,.02,0,.56,.13,1.07,.21,1.55,.25-.24,.45-.47,.88-.67,1.27-.21,.4-.41,.78-.59,1.11,0,.02-.02,.03-.02,.04-.48,.93-.81,1.55-.91,1.76,0,.02-.02,.04-.02,.05-.12,.22-.02,.49,.2,.61,.04,.02,.08,.03,.13,.03,.02,.02,.06,.02,.08,.02,.17,0,.33-.09,.4-.25,0-.02,.06-.12,.16-.31,.09-.17,.21-.4,.36-.69l.26-.52c.17-.32,.36-.67,.57-1.07,.17-.32,.35-.66,.55-1.02,.32-.59,.67-1.25,1.05-1.96,.35-.64,.71-1.32,1.1-2.03,.84,.52,1.61,.92,2.28,1.15,.05,.02,.1,.02,.14,.02,.19,0,.36-.12,.43-.31,.09-.24-.05-.49-.29-.57-.62-.21-1.34-.59-2.13-1.09,.9-1.62,1.87-3.37,2.88-5.13,.92,1.17,1.78,2.05,2.51,2.49,.07,.05,.16,.06,.24,.06,.15,0,.3-.08,.39-.22,.13-.21,.06-.49-.16-.62-.71-.44-1.57-1.34-2.5-2.55,1.29-2.22,2.61-4.44,3.89-6.44,.97,1.98,1.86,3.51,2.6,4.24,.1,.1,.21,.13,.33,.13s.23-.04,.33-.13c.17-.17,.17-.46,0-.64-.75-.74-1.67-2.37-2.68-4.49,1.73-2.67,3.32-4.86,4.52-5.99,.29-.28,.56-.48,.79-.63,.02-.02,.05-.03,.07-.06,.17-.13,.2-.37,.09-.56Zm-13.19-9.85c.78,2.22,1.75,4.89,2.78,7.62-1.71,2.4-3.43,5.09-5.08,7.87-1.44-2.62-2.77-5.23-3.8-7.29,1.97-2.96,4.01-5.76,6.09-8.2Zm-6.67,9.08c1.05,2.12,2.4,4.73,3.84,7.32-1.59,2.7-3.11,5.46-4.5,8.08-1.99-1.87-3.89-3.79-5.38-5.34,1.86-3.35,3.89-6.79,6.04-10.06Zm-3.95,21.77c-2.32-1.03-4.65-2.23-6.57-3.26,1.21-2.39,2.55-4.97,4.01-7.62,1.51,1.56,3.41,3.47,5.39,5.33-1.03,1.98-1.99,3.84-2.84,5.54Zm7.92,2.42c-1.74-.02-4.35-.89-7.07-2.05,.81-1.61,1.72-3.39,2.7-5.25,1.96,1.8,3.98,3.5,5.76,4.72-.5,.92-.97,1.78-1.4,2.59Zm1.84-3.38c-1.77-1.22-3.79-2.94-5.76-4.77,1.33-2.51,2.8-5.17,4.32-7.78,1.48,2.63,3.04,5.17,4.48,7.13-1.07,1.86-2.11,3.7-3.05,5.42Zm3.54-6.27c-1.42-1.98-2.97-4.56-4.44-7.19,1.61-2.73,3.28-5.39,4.95-7.78,1.14,2.97,2.36,5.93,3.51,8.38-1.32,2.04-2.69,4.31-4.01,6.6Z"/>
          <path class="cls-16" d="M154.95,138.48c-1-2.74-3.28-6.66-6.17-11.08,1.08-.78,2.09-1.6,2.97-2.48,.17-.17,.17-.47,0-.64-.18-.17-.47-.17-.64,0-.83,.83-1.8,1.62-2.83,2.36-1.82-2.73-3.85-5.62-5.96-8.53,1.36-2.19,2.5-4.31,3.16-6.08,.09-.24-.03-.5-.26-.59-.24-.1-.5,.03-.59,.26-.61,1.63-1.65,3.57-2.9,5.6-1.71-2.35-3.47-4.69-5.19-6.95,.67-1.6,1.25-3.2,1.67-4.74,.06-.25-.08-.49-.33-.56-.24-.06-.49,.07-.56,.32-.36,1.34-.86,2.74-1.43,4.13-1.69-2.21-3.34-4.34-4.87-6.29,.67-1.73,1.27-3.39,1.71-4.87,.07-.24-.06-.49-.3-.56s-.49,.06-.56,.3c-.4,1.32-.91,2.78-1.5,4.31-4.33-5.5-7.6-9.48-8.01-9.99-.05-.05-.1-.09-.16-.12-.15-.07-.34-.06-.48,.06-.2,.16-.22,.44-.06,.63,.02,.02,.13,.17,.35,.43,1.01,1.23,4.09,5.01,7.98,9.97-.92,2.3-1.98,4.72-3.04,7.04-3.28-4.09-5.68-7.02-6-7.41-.08-.1-.2-.16-.33-.17-.11,0-.22,.03-.31,.1-.2,.16-.22,.44-.06,.63,.08,.1,.16,.2,.25,.3,1.78,2.17,3.85,4.72,6.04,7.45-1.31,2.83-2.6,5.46-3.61,7.46-1.77-1.75-3-2.92-3.19-3.1-.04-.04-.08-.07-.13-.09-.17-.08-.38-.04-.52,.1-.17,.18-.17,.47,.02,.64,.02,.02,.19,.18,.5,.48,.57,.56,1.59,1.55,2.89,2.83-.9,1.76-1.48,2.86-1.5,2.9-.12,.22-.03,.5,.19,.62,.06,.03,.14,.06,.21,.06,.16,0,.32-.09,.4-.25,.02-.04,.55-1.04,1.37-2.66,1.27,1.26,2.74,2.75,4.26,4.35-1.18,1.74-1.98,2.81-2.01,2.84-.11,.16-.12,.36-.03,.52,.03,.05,.07,.09,.12,.13,.02,0,.02,.02,.04,.02,.07,.04,.15,.06,.23,.06,.14,0,.28-.06,.36-.18,.02-.03,.79-1.05,1.93-2.72,1.49,1.56,3.01,3.2,4.44,4.81-1,1.25-1.63,2.02-1.67,2.05-.16,.19-.13,.48,.06,.64,.08,.07,.18,.1,.29,.1,.13,0,.26-.06,.35-.17,.1-.12,.69-.82,1.58-1.94,.69,.79,1.36,1.57,1.98,2.33-.12,.04-.2,.06-.21,.07-.24,.08-.36,.33-.29,.57,.06,.19,.24,.31,.43,.31,.05,0,.1,0,.15-.02,.05-.02,.24-.09,.52-.19,.54,.67,1.04,1.32,1.48,1.94v.02c.51,.7,.94,1.33,1.3,1.93,.27,.45,.49,.86,.67,1.25,.03,.06,.06,.13,.09,.19,.1,.24,.17,.46,.23,.67,.05,.21,.23,.34,.44,.34,.04,0,.08,0,.11-.02,.17-.05,.28-.17,.33-.32,.02-.08,.02-.16,0-.24-.02-.06-.02-.1-.05-.16h0c-.1-.36-.26-.75-.48-1.18-.23-.45-.52-.95-.86-1.48-.17-.27-.35-.54-.55-.82-.34-.51-.73-1.04-1.15-1.59-.21-.28-.43-.56-.66-.85,1.25-.47,3.22-1.25,5.4-2.3,1.13,1.54,2.16,2.97,3.03,4.24,.9,1.31,1.63,2.44,2.18,3.36,.28,.47,.5,.87,.66,1.22,.19,.39,.31,.69,.36,.92,.04,.21,.23,.36,.44,.36,.03,0,.06,0,.09,0,.25-.06,.41-.29,.36-.54-.02-.09-.04-.18-.08-.29-.1-.32-.28-.71-.52-1.18-.48-.91-1.21-2.09-2.14-3.47-.99-1.48-2.2-3.18-3.55-5.03,1.71-.86,3.51-1.86,5.19-3,2.67,4.05,4.79,7.65,5.85,10.25,.47,1.15,.72,2.1,.72,2.81,0,.25,.21,.46,.46,.46s.45-.21,.45-.46c0-.65-.2-1.49-.56-2.48Zm-18.82-27.16c1.69,2.23,3.41,4.53,5.08,6.82-1.17,1.86-2.49,3.77-3.78,5.56-1.52-1.98-3.08-3.97-4.6-5.91,1.17-2.05,2.32-4.25,3.3-6.47Zm-5.48-7.11c1.53,1.96,3.17,4.08,4.85,6.28-.97,2.23-2.11,4.45-3.28,6.53-1.62-2.06-3.19-4.03-4.61-5.81,1.05-2.29,2.11-4.7,3.04-7Zm-2.67,19.68c-1.57-1.63-3.07-3.15-4.35-4.43,.98-1.94,2.25-4.52,3.56-7.34,1.49,1.86,3.02,3.79,4.55,5.74-1.33,2.32-2.67,4.39-3.76,6.03Zm5.12,5.54c-1.45-1.63-2.99-3.29-4.48-4.86,1.07-1.6,2.39-3.65,3.72-5.93,1.54,1.96,3.07,3.92,4.54,5.83-1.4,1.9-2.72,3.63-3.78,4.97Zm2.92,3.43c-.72-.89-1.5-1.81-2.31-2.73,1.04-1.32,2.36-3.02,3.74-4.91,1.42,1.85,2.78,3.65,4.01,5.32-2.26,1.08-4.27,1.87-5.45,2.32Zm6.27-2.71c-1.33-1.81-2.78-3.74-4.28-5.69,1.29-1.77,2.59-3.66,3.78-5.53,2.04,2.81,3.99,5.59,5.74,8.21-1.69,1.13-3.51,2.15-5.24,3.01Z"/>
          <path class="cls-17" d="M140.97,166.4c0,10.23-6.39,19.51-16.78,26.3-.41,.27-.83,.53-1.25,.8-1.98,1.22-4.1,2.36-6.34,3.39-.59,.27-1.18,.54-1.78,.8-.02,0-.06,.02-.08,.03-.63,.27-1.27,.53-1.92,.79-1.26,.5-2.55,.97-3.88,1.4-.1,.03-.2,.06-.29,.1-1.98,.65-4.01,1.22-6.12,1.72-.72,.17-1.45,.33-2.19,.49s-1.48,.3-2.23,.44c-.75,.14-1.49,.27-2.25,.39h-.02c-.6,.1-1.21,.19-1.82,.27-.29,.04-.59,.08-.9,.11-.55,.07-1.09,.13-1.64,.2-.27,.02-.54,.06-.81,.08-.56,.06-1.13,.1-1.71,.15-.13,0-.26,.02-.4,.02-.63,.06-1.28,.1-1.93,.13-.06,0-.13,0-.19,0-.73,.04-1.47,.07-2.21,.09-.86,.02-1.74,.04-2.61,.04-16,0-30.52-4.03-41.2-10.57-.26-.17-.52-.33-.79-.49-10.72-6.84-17.36-16.26-17.36-26.68,0-.57,.02-1.14,.06-1.71,.02-.24,.04-.47,.06-.7,.02-.27,.06-.53,.1-.79,0-.07,0-.14,.02-.21h0c.06-.46,.14-.91,.23-1.36,.1-.52,.23-1.04,.36-1.55,.16-.61,.35-1.22,.56-1.82h115.88c.17,.48,.32,.97,.45,1.46,.47,1.62,.77,3.28,.88,4.97,.05,.57,.07,1.14,.07,1.72Z"/>
          <path class="cls-9" d="M116.59,196.89c-.59,.27-1.18,.54-1.78,.8-.02,0-.06,.02-.08,.03-.63,.27-1.27,.53-1.92,.79-1.26,.5-2.55,.97-3.88,1.4-.1,.03-.2,.06-.29,.1-1.98,.64-4.02,1.21-6.12,1.72-.72,.17-1.45,.33-2.19,.49s-1.48,.3-2.23,.44c-.75,.14-1.49,.27-2.25,.39h-.02c-.6,.1-1.21,.19-1.82,.27-.29,.04-.59,.08-.9,.11-.55,.07-1.09,.13-1.64,.2-.27,.02-.54,.06-.81,.08-.56,.06-1.13,.1-1.71,.15-.13,0-.26,.02-.4,.02-.63,.06-1.28,.1-1.93,.13-.06,0-.13,0-.19,0-.73,.04-1.47,.07-2.21,.09-.86,.02-1.74,.04-2.61,.04-16,0-30.52-4.03-41.2-10.57-.26-.17-.52-.33-.79-.49-10.72-6.84-17.36-16.26-17.36-26.68,0-.57,.02-1.14,.06-1.71,.02-.24,.04-.47,.06-.7,.02-.27,.06-.53,.1-.79,0-.07,.02-.14,.03-.21,.06-.46,.14-.91,.23-1.36,.1-.52,.23-1.04,.36-1.55,.83,1.77,1.71,3.52,2.63,5.24,3.79,7.08,8.42,13.67,14.57,18.97,.06,.06,.11,.1,.17,.15,.36,.32,.74,.62,1.11,.93,10.21,8.27,22.96,12.4,35.89,14.13,13.41,1.78,26.55,.71,39.11-2.6Z"/>
          <g>
            <circle class="cls-19" cx="49.56" cy="100.95" r="6.82" transform="translate(-54.72 58.85) rotate(-41.87)"/>
            <path class="cls-11" d="M49.21,96.49c2.47-.2,4.62,1.64,4.82,4.11,.2,2.47-1.64,4.62-4.11,4.82-2.47,.2-4.62-1.64-4.82-4.11s1.64-4.62,4.11-4.82Z"/>
          </g>
          <g>
            <circle class="cls-19" cx="112.32" cy="100.95" r="6.82" transform="translate(-5.27 195.71) rotate(-80.81)"/>
            <path class="cls-11" d="M111.96,96.49c2.47-.2,4.62,1.64,4.82,4.11,.2,2.47-1.64,4.62-4.11,4.82-2.47,.2-4.62-1.64-4.82-4.11-.2-2.47,1.64-4.62,4.11-4.82Z"/>
          </g>
          <g class="cls-21">
            <path class="cls-14" d="M61.93,124.26l.95,13.29,20.19,9.18,.16,.08,17.59-10.19,.95-12.37H61.93Zm38.23,11.95l-16.97,9.83-19.66-8.94-.87-12.16h38.38l-.87,11.27Z"/>
          </g>
          <g class="cls-22">
            <g class="cls-28">
              <g>
                <path class="cls-14" d="M4.34,179.33h0c-.19-.17-.2-.46-.03-.64L78.42,96.12c.17-.19,.46-.2,.64-.03h0c.19,.17,.2,.46,.03,.64L4.98,179.3c-.17,.19-.46,.2-.64,.03Z"/>
                <path class="cls-14" d="M11.1,185.41h0c-.19-.17-.2-.46-.03-.64L85.19,102.2c.17-.19,.46-.2,.64-.03h0c.19,.17,.2,.46,.03,.64L11.75,185.37c-.17,.19-.46,.2-.64,.03Z"/>
                <path class="cls-14" d="M17.87,191.48h0c-.19-.17-.2-.46-.03-.64L91.96,108.27c.17-.19,.46-.2,.64-.03h0c.19,.17,.2,.46,.03,.64L18.51,191.45c-.17,.19-.46,.2-.64,.03Z"/>
                <path class="cls-14" d="M24.64,197.56h0c-.19-.17-.2-.46-.03-.64L98.72,114.35c.17-.19,.46-.2,.64-.03h0c.19,.17,.2,.46,.03,.64L25.28,197.52c-.17,.19-.46,.2-.64,.03Z"/>
                <path class="cls-14" d="M31.41,203.63h0c-.19-.17-.2-.46-.03-.64L105.49,120.42c.17-.19,.46-.2,.64-.03h0c.19,.17,.2,.46,.03,.64L32.05,203.6c-.17,.19-.46,.2-.64,.03Z"/>
                <path class="cls-14" d="M38.17,209.71h0c-.19-.17-.2-.46-.03-.64L112.26,126.5c.17-.19,.46-.2,.64-.03h0c.19,.17,.2,.46,.03,.64L38.82,209.68c-.17,.19-.46,.2-.64,.03Z"/>
                <path class="cls-14" d="M44.94,215.79h0c-.19-.17-.2-.46-.03-.64l74.12-82.57c.17-.19,.46-.2,.64-.03h0c.19,.17,.2,.46,.03,.64L45.58,215.75c-.17,.19-.46,.2-.64,.03Z"/>
                <path class="cls-14" d="M51.71,221.86h0c-.19-.17-.2-.46-.03-.64l74.12-82.57c.17-.19,.46-.2,.64-.03h0c.19,.17,.2,.46,.03,.64L52.35,221.83c-.17,.19-.46,.2-.64,.03Z"/>
                <path class="cls-14" d="M58.48,227.94h0c-.19-.17-.2-.46-.03-.64l74.12-82.57c.17-.19,.46-.2,.64-.03h0c.19,.17,.2,.46,.03,.64L59.12,227.9c-.17,.19-.46,.2-.64,.03Z"/>
                <path class="cls-14" d="M65.25,234.01h0c-.19-.17-.2-.46-.03-.64l74.12-82.57c.17-.19,.46-.2,.64-.03h0c.19,.17,.2,.46,.03,.64l-74.12,82.57c-.17,.19-.46,.2-.64,.03Z"/>
                <path class="cls-14" d="M72.01,240.09h0c-.19-.17-.2-.46-.03-.64l74.12-82.57c.17-.19,.46-.2,.64-.03h0c.19,.17,.2,.46,.03,.64l-74.12,82.57c-.17,.19-.46,.2-.64,.03Z"/>
                <path class="cls-14" d="M78.78,246.16h0c-.19-.17-.2-.46-.03-.64l74.12-82.57c.17-.19,.46-.2,.64-.03h0c.19,.17,.2,.46,.03,.64l-74.12,82.57c-.17,.19-.46,.2-.64,.03Z"/>
                <path class="cls-14" d="M85.55,252.24h0c-.19-.17-.2-.46-.03-.64l74.12-82.57c.17-.19,.46-.2,.64-.03h0c.19,.17,.2,.46,.03,.64l-74.12,82.57c-.17,.19-.46,.2-.64,.03Z"/>
              </g>
              <g>
                <path class="cls-14" d="M160.28,179.33h0c.19-.17,.2-.46,.03-.64L86.19,96.12c-.17-.19-.46-.2-.64-.03h0c-.19,.17-.2,.46-.03,.64l74.12,82.57c.17,.19,.46,.2,.64,.03Z"/>
                <path class="cls-14" d="M153.51,185.41h0c.19-.17,.2-.46,.03-.64L79.42,102.2c-.17-.19-.46-.2-.64-.03h0c-.19,.17-.2,.46-.03,.64l74.12,82.57c.17,.19,.46,.2,.64,.03Z"/>
                <path class="cls-14" d="M146.74,191.48h0c.19-.17,.2-.46,.03-.64L72.66,108.27c-.17-.19-.46-.2-.64-.03h0c-.19,.17-.2,.46-.03,.64l74.12,82.57c.17,.19,.46,.2,.64,.03Z"/>
                <path class="cls-14" d="M139.97,197.56h0c.19-.17,.2-.46,.03-.64L65.89,114.35c-.17-.19-.46-.2-.64-.03h0c-.19,.17-.2,.46-.03,.64l74.12,82.57c.17,.19,.46,.2,.64,.03Z"/>
                <path class="cls-14" d="M133.2,203.63h0c.19-.17,.2-.46,.03-.64L59.12,120.42c-.17-.19-.46-.2-.64-.03h0c-.19,.17-.2,.46-.03,.64l74.12,82.57c.17,.19,.46,.2,.64,.03Z"/>
                <path class="cls-14" d="M126.44,209.71h0c.19-.17,.2-.46,.03-.64L52.35,126.5c-.17-.19-.46-.2-.64-.03h0c-.19,.17-.2,.46-.03,.64l74.12,82.57c.17,.19,.46,.2,.64,.03Z"/>
                <path class="cls-14" d="M119.67,215.79h0c.19-.17,.2-.46,.03-.64L45.58,132.58c-.17-.19-.46-.2-.64-.03h0c-.19,.17-.2,.46-.03,.64l74.12,82.57c.17,.19,.46,.2,.64,.03Z"/>
                <path class="cls-14" d="M112.9,221.86h0c.19-.17,.2-.46,.03-.64L38.82,138.65c-.17-.19-.46-.2-.64-.03h0c-.19,.17-.2,.46-.03,.64l74.12,82.57c.17,.19,.46,.2,.64,.03Z"/>
                <path class="cls-14" d="M106.13,227.94h0c.19-.17,.2-.46,.03-.64L32.05,144.73c-.17-.19-.46-.2-.64-.03h0c-.19,.17-.2,.46-.03,.64l74.12,82.57c.17,.19,.46,.2,.64,.03Z"/>
                <path class="cls-14" d="M99.37,234.01h0c.19-.17,.2-.46,.03-.64L25.28,150.8c-.17-.19-.46-.2-.64-.03h0c-.19,.17-.2,.46-.03,.64l74.12,82.57c.17,.19,.46,.2,.64,.03Z"/>
                <path class="cls-14" d="M92.6,240.09h0c.19-.17,.2-.46,.03-.64L18.51,156.88c-.17-.19-.46-.2-.64-.03h0c-.19,.17-.2,.46-.03,.64l74.12,82.57c.17,.19,.46,.2,.64,.03Z"/>
                <path class="cls-14" d="M85.83,246.16h0c.19-.17,.2-.46,.03-.64L11.75,162.95c-.17-.19-.46-.2-.64-.03h0c-.19,.17-.2,.46-.03,.64l74.12,82.57c.17,.19,.46,.2,.64,.03Z"/>
                <path class="cls-14" d="M79.06,252.24h0c.19-.17,.2-.46,.03-.64L4.98,169.03c-.17-.19-.46-.2-.64-.03h0c-.19,.17-.2,.46-.03,.64l74.12,82.57c.17,.19,.46,.2,.64,.03Z"/>
              </g>
            </g>
          </g>
          <ellipse class="cls-14" cx="82.31" cy="158.7" rx="58.21" ry="7.73"/>
          <g>
            <g>
              <path class="cls-20" d="M106.48,170.77c7.37-7.1,11.04-4.39,11.04-4.39l3.46-1.48c1.09,3.83,1.88,7.77,2.69,11.68l-.88,.22-10.01,9.16c-3.45-.22-11.13-9.06-11.13-9.06l4.83-6.13Z"/>
              <path class="cls-20" d="M117.53,166.37s-4.13-2.2-8.65-.73c-4.51,1.47-9.83,2.15-8.68,4.91,0,0,.29,.57,3.39-.13,3.11-.71,3.38,.88,3.13,2.13-.25,1.25,10.81-6.18,10.81-6.18Z"/>
              <path class="cls-20" d="M101.66,176.9s-10.94,7.32-9.31,8.99c0,0,.72,.69,1.68,.2,.96-.49,11.26-8.12,11.26-8.12,0,0-.96-2.76-3.63-1.06Z"/>
              <path class="cls-20" d="M107.55,182.49s-9.54,9.08-7.65,10.44c0,0,.83,.56,1.69-.09,.86-.65,9.72-9.92,9.72-9.92,0,0-1.41-2.55-3.76-.43Z"/>
              <path class="cls-20" d="M110.33,184.79s-6.68,6.74-4.96,7.82c0,0,.75,.45,1.37-.03s6.72-7.38,6.72-7.38c0,0-1.48-1.99-3.14-.42Z"/>
              <path class="cls-20" d="M104.23,180.08s-11.33,9.49-9.55,10.99c0,0,.78,.62,1.78-.06,1-.67,11.65-10.39,11.65-10.39,0,0-1.1-2.77-3.87-.55Z"/>
            </g>
            <path class="cls-20" d="M141.77,140.96c-10.72,9.7-23.73,26.2-23.73,26.2l4.26,10.24,16.64-10.93c6.62-5.91,10.78-10.98,13.33-15.21-3.9-2.98-7.39-6.56-10.5-10.3Z"/>
            <path class="cls-30" d="M162.67,140.96s-21.85-7.23-25.37-7.01l-.2,4.2s-1.52-1.5-3.36,.65c-1.84,2.15,23.02,16.13,23.02,16.13,0,0,4.26-.82,3.08-3.8-1.18-2.98,5.41-7,2.84-10.17Z"/>
            <g class="cls-24">
              <path class="cls-14" d="M155.09,146.9c-.09-.02-.18-.07-.25-.15-1.7-1.97-13.21-6.74-17.5-8.42-.23-.09-.35-.36-.26-.59,.09-.24,.36-.35,.59-.26,.64,.25,15.67,6.13,17.86,8.67,.16,.19,.14,.48-.05,.64-.11,.1-.26,.13-.39,.1Z"/>
            </g>
            <g class="cls-24">
              <path class="cls-14" d="M154.98,143.15s-.09-.03-.14-.05c-2.74-1.64-16.07-6.29-16.21-6.34-.24-.08-.36-.34-.28-.58,.08-.24,.35-.36,.58-.28,.55,.19,13.55,4.73,16.37,6.41,.22,.13,.29,.41,.16,.62-.1,.17-.3,.25-.49,.21Z"/>
            </g>
          </g>
          <g class="cls-12">
            <g>
              <g>
                <g>
                  <path class="cls-34" d="M126.39,155.66s-27.95,14.4-35.29,24.33c0,0,.44,2.54,3.45,3.63,0,0,22.08-19.68,34.68-24.42,0,0-.01-4.91-2.84-3.54Z"/>
                  <path class="cls-19" d="M120.39,157.01c-1.7-6.54-.24-13.82,3.86-19.19,.38-.5,.84-1.02,1.46-1.14,1.29-.24,2.15,1.3,2.42,2.59,.52,2.5,.45,5.13-.2,7.6,1.82-4.3,4.31-8.31,7.36-11.84,.94-1.08,2.33-2.22,3.65-1.65,1.15,.5,1.44,2.03,1.22,3.27s-.75,2.45-.61,3.7c1.95-2.82,4.28-5.38,6.91-7.58,1.31-1.1,3.38-2.09,4.57-.85,1.66,1.73-1.12,4.31-1.14,6.71,2.73-1.88,5.75-3.33,8.91-4.3,1.59-.48,3.31-.84,4.9-.35,1.59,.49,2.95,2.09,2.62,3.72-.2,1.01-.96,1.8-1.72,2.48-2.49,2.24-5.4,4.01-8.54,5.2,1.62,.65,3.31,1.35,4.48,2.66s1.63,3.42,.58,4.81c-1.29,1.71-3.89,1.45-5.99,1.02-2.3-.47-4.6-.94-6.9-1.41,1.44,.85,2.93,1.76,3.84,3.16,.91,1.41,1.02,3.48-.21,4.62-1.03,.96-2.62,.97-4.02,.8-3.1-.38-6.12-1.37-8.84-2.89,.53,1.33,1.89,2.09,3.01,2.99s2.12,2.36,1.55,3.68c-.44,1.03-1.64,1.47-2.73,1.71-6.73,1.49-14.19-.88-18.82-5.99l-1.61-3.53Z"/>
                  <g class="cls-10">
                    <path class="cls-19" d="M122.04,158.97c-.64-4.51,1.07-9.83,4.51-14.03,.32-.39,.7-.8,1.15-.94,.95-.29,1.44,.73,1.51,1.63,.15,1.74-.14,3.61-.82,5.44,1.7-3.23,3.86-6.31,6.38-9.1,.77-.86,1.88-1.79,2.78-1.51,.79,.25,.85,1.32,.59,2.22-.26,.9-.76,1.82-.78,2.69,1.66-2.19,3.57-4.22,5.67-6.03,1.05-.9,2.63-1.79,3.37-1.02,1.04,1.08-1.2,3.18-1.43,4.88,2.14-1.58,4.45-2.89,6.82-3.86,1.19-.49,2.47-.9,3.57-.69,1.1,.2,1.94,1.22,1.56,2.41-.23,.73-.85,1.37-1.47,1.92-2,1.82-4.26,3.35-6.63,4.47,1.11,.32,2.27,.66,2.99,1.49,.72,.83,.87,2.29-.02,3.38-1.09,1.33-2.94,1.38-4.42,1.27-1.62-.13-3.24-.26-4.86-.38,.96,.48,1.96,.99,2.49,1.91,.53,.92,.42,2.39-.57,3.31-.83,.78-1.98,.93-2.97,.93-2.2,0-4.29-.43-6.12-1.27,.26,.9,1.18,1.32,1.9,1.86,.73,.54,1.32,1.49,.79,2.48-.41,.77-1.32,1.2-2.13,1.47-5,1.67-10.16,.65-13.05-2.57l-.84-2.37Z"/>
                  </g>
                  <path class="cls-15" d="M165.14,135.79c-.08-.18-.29-.26-.47-.18-.83,.36-11.3,4.96-21.74,10.35l2.62-5.43c.09-.18,.01-.39-.17-.48-.18-.09-.39-.01-.48,.17l-3.04,6.29c-2.9,1.51-5.77,3.08-8.41,4.63l-.24-.13,1.08-4.76c.04-.19-.08-.38-.27-.43-.19-.04-.38,.08-.43,.27l-1.2,5.3,.34,.18c-5.56,3.31-9.95,6.49-11.11,8.81-.07,.14-.04,.3,.06,.41,.03,.03,.06,.05,.1,.07,.18,.09,.39,.02,.48-.16,1.12-2.25,5.58-5.42,11.21-8.74l5.15,2.74c.17,.09,.39,.03,.48-.15,.09-.17,.03-.39-.15-.48l-4.76-2.53c2.25-1.31,4.67-2.63,7.13-3.92l-.02,.05,8.24,.77c.2,.02,.37-.13,.39-.32,.02-.2-.13-.37-.32-.39l-7.2-.67c10.98-5.71,22.33-10.69,22.54-10.78,.18-.08,.26-.29,.18-.47Z"/>
                </g>
                <g>
                  <path class="cls-34" d="M118.57,147.5s-23.62,20.76-28.32,32.18c0,0,1.05,2.36,4.23,2.68,0,0,16.63-24.46,27.71-32.12,0,0-1.2-4.76-3.62-2.74Z"/>
                  <path class="cls-19" d="M113.09,150.27c-3.24-5.93-3.59-13.35-.92-19.55,.25-.58,.57-1.19,1.14-1.46,1.19-.55,2.4,.74,2.97,1.92,1.11,2.3,1.68,4.86,1.66,7.42,.72-4.61,2.16-9.11,4.26-13.27,.65-1.28,1.72-2.72,3.14-2.49,1.24,.2,1.89,1.62,1.98,2.88,.09,1.25-.13,2.56,.3,3.74,1.21-3.21,2.85-6.26,4.86-9.03,1.01-1.39,2.77-2.85,4.22-1.94,2.03,1.27-.04,4.46,.52,6.78,2.19-2.49,4.76-4.63,7.6-6.33,1.43-.86,3.01-1.62,4.67-1.53,1.66,.09,3.37,1.31,3.45,2.97,.05,1.02-.49,1.98-1.07,2.82-1.87,2.78-4.27,5.2-7.02,7.12,1.74,.24,3.54,.51,4.99,1.49,1.45,.98,2.42,2.92,1.73,4.53-.84,1.97-3.42,2.35-5.56,2.45-2.35,.1-4.69,.21-7.04,.31,1.6,.48,3.27,.99,4.49,2.14,1.22,1.15,1.83,3.13,.92,4.53-.77,1.18-2.3,1.57-3.7,1.75-3.1,.38-6.27,.16-9.28-.66,.84,1.16,2.35,1.57,3.65,2.17,1.3,.6,2.63,1.78,2.4,3.19-.18,1.1-1.23,1.82-2.23,2.32-6.17,3.08-13.98,2.59-19.71-1.23l-2.42-3.03Z"/>
                  <g class="cls-10">
                    <path class="cls-19" d="M115.16,151.77c-1.72-4.21-1.35-9.8,.97-14.7,.22-.46,.48-.95,.89-1.19,.86-.51,1.57,.36,1.86,1.21,.56,1.65,.74,3.54,.52,5.47,.86-3.54,2.21-7.06,3.98-10.38,.54-1.02,1.39-2.2,2.33-2.14,.83,.05,1.15,1.07,1.11,2.01-.04,.94-.3,1.95-.1,2.8,1.08-2.52,2.44-4.96,4.03-7.22,.8-1.13,2.11-2.38,3.03-1.81,1.27,.8-.39,3.37-.2,5.08,1.69-2.06,3.61-3.89,5.68-5.41,1.04-.76,2.17-1.47,3.29-1.54,1.12-.07,2.18,.71,2.1,1.96-.05,.77-.5,1.53-.95,2.22-1.5,2.25-3.32,4.28-5.35,5.95,1.16,.04,2.36,.09,3.27,.72,.9,.63,1.4,2.01,.8,3.28-.73,1.56-2.51,2.06-3.98,2.3-1.6,.27-3.2,.54-4.8,.81,1.05,.23,2.14,.48,2.88,1.25,.74,.77,.99,2.21,.26,3.35-.62,.96-1.69,1.38-2.66,1.62-2.13,.54-4.27,.63-6.25,.26,.47,.81,1.46,1,2.3,1.34,.84,.35,1.64,1.13,1.37,2.22-.21,.85-.99,1.48-1.71,1.94-4.44,2.83-9.7,3.1-13.29,.68l-1.39-2.1Z"/>
                  </g>
                  <path class="cls-15" d="M151.34,118.81c-.12-.15-.35-.19-.5-.06-.72,.55-9.76,7.55-18.57,15.32l1.22-5.9c.04-.19-.08-.38-.28-.42-.19-.04-.38,.08-.42,.28l-1.42,6.84c-2.45,2.17-4.85,4.39-7.03,6.53l-.27-.07-.11-4.88c0-.2-.17-.35-.37-.35-.2,0-.35,.17-.35,.37l.12,5.43,.37,.09c-4.59,4.56-8.08,8.71-8.64,11.25-.03,.15,.03,.3,.16,.38,.03,.02,.07,.04,.11,.05,.19,.04,.38-.08,.43-.27,.54-2.46,4.09-6.61,8.75-11.2l5.66,1.41c.19,.05,.39-.07,.43-.26,.05-.19-.07-.38-.26-.43l-5.23-1.3c1.87-1.81,3.89-3.68,5.96-5.54v.05s8.17-1.26,8.17-1.26c.2-.03,.33-.21,.3-.41-.03-.2-.21-.33-.41-.3l-7.15,1.1c9.26-8.21,19.06-15.8,19.24-15.94,.16-.12,.19-.35,.06-.5Z"/>
                </g>
              </g>
              <g>
                <path class="cls-3" d="M85.68,170.33s-6.96-25.89-.22-29.32c6.74-3.43,6.8,4.46,6.8,4.46,0,0,.52-6.21,3.91-5.67,3.39,.54,3.42,5.05,3.42,5.05,0,0,3.34-5.66,6.75-2.87,3.4,2.79,.18,24.25-4.3,28.23,0,0-2.8,2.28-5.09-1.65,0,0-2.77,6.22-4.51,.03,0,0-3.35,5.1-6.75,1.74Z"/>
                <path class="cls-2" d="M100,162.01c-.37,.02-.74,.04-1.11,.02-9.92-.34-14.45-12.7-12.21-21.55-.38,.13-.78,.3-1.21,.52-6.74,3.43,.22,29.32,.22,29.32,3.41,3.36,6.75-1.74,6.75-1.74,1.74,6.19,4.51-.03,4.51-.03,2.28,3.93,5.09,1.65,5.09,1.65,1.56-1.39,2.97-4.9,4-9.01-1.69,.9-3.69,1.26-6.04,.81Z"/>
                <path class="cls-19" d="M94.53,146.02s1.03-12.98,5.53-14.7c0,0,1.69-.01,1.14,2.25-.55,2.26-5.59,7.37-6.67,13.58"/>
                <path class="cls-29" d="M106.1,147.06c.02,2.65-1.86,4.81-4.19,4.82-2.34,.02-4.25-2.11-4.26-4.76-.02-2.65,1.86-4.81,4.19-4.82,2.34-.02,4.25,2.11,4.26,4.76Z"/>
              </g>
              <g>
                <path class="cls-11" d="M68.25,171.04s-10.8-21.85-5.4-26.11c5.4-4.26,6.86,2.77,6.86,2.77,0,0-.64-5.63,2.48-5.75,3.12-.12,3.95,3.9,3.95,3.9,0,0,1.98-5.64,5.51-3.76,3.53,1.89,4.46,21.59,1.17,25.94,0,0-2.1,2.53-4.83-.57,0,0-1.37,6.04-4.02,.83,0,0-2.08,5.14-5.71,2.75Z"/>
                <path class="cls-5" d="M79.54,161.07c-.32,.09-.65,.16-.99,.22-8.9,1.45-15.14-8.76-14.72-17.05-.31,.18-.64,.41-.98,.68-5.4,4.26,5.4,26.11,5.4,26.11,3.64,2.39,5.71-2.75,5.71-2.75,2.65,5.21,4.02-.83,4.02-.83,2.73,3.1,4.83,.57,4.83,.57,1.15-1.52,1.78-4.9,1.97-8.74-1.35,1.11-3.07,1.78-5.24,1.79Z"/>
                <path class="cls-19" d="M71.82,147.78s-1.38-11.76,2.32-14.09c0,0,1.51-.31,1.42,1.8-.09,2.11-3.67,7.57-3.54,13.3"/>
                <path class="cls-29" d="M82.33,146.66c.49,2.36-.8,4.62-2.88,5.05-2.08,.43-4.16-1.13-4.65-3.49-.49-2.36,.8-4.62,2.88-5.05,2.08-.43,4.16,1.13,4.65,3.49Z"/>
              </g>
              <g>
                <path class="cls-19" d="M36.48,148.24s-9.24-1.18-7.96-2.61c1.28-1.43,4.87-.55,4.87-.55,0,0-14.59-2.99-11.39-4.26,3.19-1.27,6.78-.38,6.78-.38,0,0-14.11-4.11-11.71-5.06,2.4-.95,9.09,1.94,9.09,1.94,0,0-9.3-10.63-6.83-10.23,2.47,.41,8.35,8.24,8.35,8.24,0,0-1.81-8.06,.18-6.54,1.99,1.52,3.17,7.98,3.17,7.98,0,0,1.29-6.06,2.8-3.42,1.51,2.64,.94,7.02,.94,7.02,0,0,2.65-6.13,3.92-2.94,1.27,3.19-.73,6.3-.73,6.3,0,0,3.28-4.54,4.23-2.14s-5.69,6.64-5.69,6.64Z"/>
                <g class="cls-33">
                  <path class="cls-3" d="M37.04,147.33s-5.51,3.57-2.33,6.93c3.18,3.36,19.88,24.46,24.18,23.68,4.31-.79-10.85-28.51-13.79-32.42-2.94-3.92-8.06,1.81-8.06,1.81Z"/>
                  <path class="cls-2" d="M58.92,177.93c-.68-.9-1.38-1.79-2.03-2.67-2.31-3.17-4.61-6.34-6.88-9.54-4.35-6.13-8.62-12.31-12.83-18.53-.09,.09-.14,.15-.14,.15,0,0-5.51,3.57-2.33,6.93,3.18,3.36,19.88,24.46,24.18,23.68,0,0,.02,0,.02,0Z"/>
                  <g class="cls-27">
                    <path class="cls-14" d="M60,168.49c-2.67,6.19-10.25,8.81-10.57,8.91l-.19-.58c.08-.03,7.65-2.64,10.21-8.58l.56,.24Z"/>
                  </g>
                  <g class="cls-27">
                    <path class="cls-14" d="M56.35,161.62c-2.67,6.19-10.25,8.81-10.57,8.91l-.19-.58c.08-.03,7.65-2.64,10.21-8.58l.56,.24Z"/>
                  </g>
                  <g class="cls-27">
                    <path class="cls-14" d="M52.95,153.2c-3,6.95-11.86,9.74-12.24,9.86l-.18-.58c.09-.03,8.97-2.83,11.86-9.52l.56,.24Z"/>
                  </g>
                  <g class="cls-27">
                    <path class="cls-14" d="M48.82,147.45c-3,6.95-11.86,9.74-12.24,9.86l-.18-.58c.09-.03,8.97-2.83,11.86-9.52l.56,.24Z"/>
                  </g>
                </g>
              </g>
              <g>
                <path class="cls-19" d="M50.29,144.74s-8.56-3.68-6.93-4.7,4.83,.82,4.83,.82c0,0-13.2-6.89-9.78-7.23,3.42-.34,6.62,1.5,6.62,1.5,0,0-12.43-7.83-9.87-8.09,2.56-.25,8.2,4.37,8.2,4.37,0,0-6.02-12.78-3.75-11.71,2.26,1.07,5.76,10.22,5.76,10.22,0,0,.48-8.25,1.97-6.24s.85,8.55,.85,8.55c0,0,2.91-5.47,3.64-2.52,.72,2.95-1.03,7.01-1.03,7.01,0,0,4.24-5.17,4.57-1.75,.34,3.42-2.44,5.85-2.44,5.85,0,0,4.41-3.46,4.66-.89,.25,2.56-7.3,4.82-7.3,4.82Z"/>
                <g class="cls-23">
                  <path class="cls-3" d="M51.08,144.02s-6.28,1.92-4.15,6.02c2.13,4.1,12.37,28.99,16.73,29.42,4.36,.43-2.58-30.39-4.33-34.97-1.75-4.57-8.25-.48-8.25-.48Z"/>
                  <path class="cls-2" d="M63.69,179.46c-.41-1.05-.84-2.1-1.22-3.13-1.35-3.68-2.69-7.37-3.99-11.07-2.5-7.09-4.89-14.21-7.23-21.35-.11,.07-.17,.1-.17,.1,0,0-6.28,1.92-4.15,6.02,2.13,4.1,12.37,28.99,16.73,29.42,0,0,.02,0,.03,0Z"/>
                  <g class="cls-27">
                    <path class="cls-14" d="M67.33,170.68c-4.27,5.21-12.28,5.64-12.62,5.66l-.03-.61c.08,0,8.08-.43,12.18-5.44l.47,.39Z"/>
                  </g>
                  <g class="cls-27">
                    <path class="cls-14" d="M65.71,163.07c-4.27,5.21-12.28,5.64-12.62,5.66l-.03-.61c.08,0,8.08-.43,12.18-5.44l.47,.39Z"/>
                  </g>
                  <g class="cls-27">
                    <path class="cls-14" d="M64.76,154.05c-4.8,5.86-14.08,6.1-14.48,6.11v-.61c.08,0,9.39-.25,14.01-5.88l.47,.39Z"/>
                  </g>
                  <g class="cls-27">
                    <path class="cls-14" d="M62.37,147.38c-4.8,5.86-14.08,6.1-14.48,6.11v-.61c.08,0,9.39-.25,14.01-5.88l.47,.39Z"/>
                  </g>
                </g>
              </g>
            </g>
          </g>
          <g>
            <g>
              <path class="cls-20" d="M54.86,168.26c-7.2-7.27-10.94-4.65-10.94-4.65l-3.43-1.56c-1.18,3.81-2.06,7.72-2.96,11.61l.87,.24,9.79,9.4c3.45-.13,11.34-8.79,11.34-8.79l-4.68-6.25Z"/>
              <path class="cls-20" d="M43.92,163.6s4.18-2.1,8.66-.52c4.48,1.58,9.78,2.38,8.56,5.12,0,0-.3,.57-3.39-.21-3.09-.78-3.4,.8-3.18,2.05,.22,1.25-10.66-6.44-10.66-6.44Z"/>
              <path class="cls-20" d="M59.54,174.51s10.77,7.58,9.09,9.21c0,0-.74,.67-1.68,.16s-11.07-8.39-11.07-8.39c0,0,1.02-2.73,3.66-.97Z"/>
              <path class="cls-20" d="M53.51,179.96s9.32,9.3,7.4,10.62c0,0-.84,.54-1.69-.13s-9.48-10.15-9.48-10.15c0,0,1.47-2.52,3.77-.34Z"/>
              <path class="cls-20" d="M50.68,182.19s6.52,6.89,4.77,7.94c0,0-.76,.43-1.37-.06-.61-.49-6.54-7.54-6.54-7.54,0,0,1.53-1.95,3.15-.34Z"/>
              <path class="cls-20" d="M56.89,177.62s11.1,9.76,9.29,11.22c0,0-.8,.6-1.78-.1-.98-.7-11.39-10.66-11.39-10.66,0,0,1.17-2.74,3.89-.46Z"/>
            </g>
            <path class="cls-20" d="M22.32,140.82c-4.35,1.91-8.63,3.97-12.76,6.35,2.41,4.36,6.44,9.63,13.02,15.86l16.99,12.2,3.88-10.89s-10.3-13.9-20-23.95c-.38,.14-.75,.29-1.13,.43Z"/>
            <path class="cls-30" d="M3.25,144.7s21.82-7.33,25.34-7.12l.22,4.2s1.52-1.51,3.37,.64-22.95,16.23-22.95,16.23c0,0-4.26-.8-3.09-3.79,1.17-2.98-5.44-6.98-2.88-10.16Z"/>
            <g class="cls-24">
              <path class="cls-14" d="M11.23,149.41c-.18,.02-.36-.08-.45-.25-.11-.22-.02-.5,.2-.61,.6-.3,14.67-7.28,17.44-7.51,.25-.02,.47,.16,.49,.41,.02,.25-.16,.47-.41,.49-2.16,.18-13.09,5.42-17.12,7.42-.05,.03-.11,.04-.16,.05Z"/>
            </g>
            <g class="cls-24">
              <path class="cls-14" d="M15.98,144.84c-.17,.01-.34-.06-.43-.22-.13-.22-.06-.5,.16-.62,.36-.22,8.96-5.33,12.37-4.23,.24,.08,.37,.33,.29,.57-.08,.24-.34,.37-.57,.29-2.5-.81-9.24,2.71-11.62,4.14-.06,.04-.13,.06-.19,.06Z"/>
            </g>
          </g>
        </g>
      </g>
    </g>
  </g>
</svg>