<?xml version="1.0" encoding="UTF-8"?>
<svg id="Layer_2" data-name="Layer 2" xmlns="http://www.w3.org/2000/svg" viewBox="0 0 699.11 507.88">
  <defs>
    <style>
      .cls-1 {
        fill: #e4471f;
      }

      .cls-1, .cls-2, .cls-3, .cls-4, .cls-5, .cls-6, .cls-7, .cls-8, .cls-9, .cls-10, .cls-11, .cls-12, .cls-13, .cls-14, .cls-15, .cls-16, .cls-17, .cls-18, .cls-19, .cls-20, .cls-21, .cls-22, .cls-23, .cls-24, .cls-25, .cls-26, .cls-27, .cls-28, .cls-29, .cls-30, .cls-31, .cls-32, .cls-33, .cls-34, .cls-35, .cls-36, .cls-37, .cls-38, .cls-39, .cls-40, .cls-41, .cls-42, .cls-43, .cls-44, .cls-45, .cls-46, .cls-47, .cls-48, .cls-49, .cls-50 {
        fill-rule: evenodd;
      }

      .cls-2 {
        fill: #e5f2f7;
      }

      .cls-3 {
        fill: #ff7e00;
      }

      .cls-4 {
        fill: #a84f51;
      }

      .cls-51 {
        fill: #fff;
      }

      .cls-5 {
        fill: #e5b385;
      }

      .cls-6 {
        fill: #96b243;
      }

      .cls-7 {
        fill: #94c9e3;
      }

      .cls-8 {
        fill: #88c266;
      }

      .cls-9 {
        fill: #9b5932;
      }

      .cls-52 {
        letter-spacing: .08em;
      }

      .cls-10 {
        fill: #f7b900;
      }

      .cls-11 {
        fill: #8ebbd9;
      }

      .cls-12, .cls-53 {
        fill: #6aa0d1;
      }

      .cls-13 {
        fill: #3a8ecc;
      }

      .cls-54 {
        letter-spacing: 0em;
      }

      .cls-14 {
        fill: #ac393d;
      }

      .cls-55 {
        fill: #ec5600;
      }

      .cls-15 {
        fill: #d2818a;
      }

      .cls-16 {
        fill: #ea8e54;
      }

      .cls-17 {
        fill: #ef9484;
      }

      .cls-18 {
        fill: #d21b1a;
      }

      .cls-19 {
        fill: #834927;
      }

      .cls-20 {
        fill: #e98d54;
      }

      .cls-56 {
        opacity: .15;
      }

      .cls-57 {
        fill: #ff9500;
      }

      .cls-21 {
        fill: #efb20f;
      }

      .cls-22 {
        fill: #ffe57f;
      }

      .cls-23 {
        fill: #eeead2;
      }

      .cls-24 {
        fill: #f1a600;
      }

      .cls-25, .cls-58 {
        fill: #62a739;
      }

      .cls-26, .cls-59 {
        fill: #4d8738;
      }

      .cls-60 {
        font-family: AgencyFB-Bold, 'Agency FB';
        font-size: 46.44px;
      }

      .cls-60, .cls-39 {
        fill: #c37550;
      }

      .cls-27 {
        fill: #658d33;
      }

      .cls-28 {
        fill: #60843e;
      }

      .cls-29 {
        fill: #915532;
      }

      .cls-30 {
        fill: #fae1af;
      }

      .cls-31 {
        fill: #f7c8a4;
      }

      .cls-32 {
        fill: #5b2446;
      }

      .cls-33 {
        fill: #f6fafc;
      }

      .cls-34 {
        fill: #d57e16;
      }

      .cls-35 {
        fill: #8aa241;
      }

      .cls-36 {
        fill: #2b478b;
      }

      .cls-37 {
        fill: #941f27;
      }

      .cls-38 {
        fill: #5397d1;
      }

      .cls-61 {
        fill: #d8e2e8;
      }

      .cls-40 {
        fill: #8e313b;
      }

      .cls-41 {
        fill: #c8656f;
      }

      .cls-42 {
        fill: #f4cb9e;
      }

      .cls-43 {
        fill: #437636;
      }

      .cls-44 {
        fill: #f8bd00;
      }

      .cls-45 {
        fill: #df3d1d;
      }

      .cls-46 {
        fill: #849b39;
      }

      .cls-62 {
        letter-spacing: 0em;
      }

      .cls-47 {
        fill: #4f6e36;
      }

      .cls-48 {
        fill: #d3828b;
      }

      .cls-50 {
        fill: #2c3a64;
      }
    </style>
  </defs>
  <g id="Layer_1-2" data-name="Layer 1">
    <g>
      <g class="cls-56">
        <path class="cls-49" d="M490.72,494.13c-144.02,29.3-449.94,10.19-449.94-42.43s447.14-68.14,514.48-11.45c163.59,6.47,97.83,73.19-64.53,53.88Z"/>
      </g>
      <g>
        <g>
          <path class="cls-16" d="M305.77,147.35c71.12,15.83,142.04,34.48,212.73,56.23v220.89l-212.73-76.35V147.35Z"/>
          <path class="cls-32" d="M305.77,147.35c-72,16.35-142.85,35.23-212.73,56.23v220.89l212.73-76.35V147.35Z"/>
          <path class="cls-42" d="M93.03,203.58c69.9-20.94,140.75-39.82,212.73-56.23-30.7-14.11-61.55-25.56-92.67-32.06C137.39,126.81,67.59,144.24,.36,164.22c32.86,10.95,64.05,23.75,92.67,39.35Z"/>
          <path class="cls-5" d="M518.5,203.58c-71.45-22.18-143.16-40-212.73-56.23,27.76-14.86,57.29-28.73,92.67-39.35,73.64,15.56,144.17,34.75,212.73,56.23-32.9,9.91-64.01,22.68-92.67,39.35Z"/>
          <path class="cls-32" d="M.67,165.37c-.52-.17-.8-.74-.62-1.25,.17-.52,.73-.8,1.25-.62,16.33,5.46,32.25,11.38,47.66,17.87,15.28,6.44,30.04,13.45,44.18,21.14,34.81-10.43,69.88-20.34,105.23-29.71,35.44-9.39,71.16-18.21,107.18-26.43,.53-.12,1.06,.22,1.18,.75,.12,.53-.21,1.06-.75,1.18-35.96,8.2-71.66,17.02-107.11,26.41-35.42,9.38-70.6,19.33-105.56,29.81h0c-.24,.07-.51,.05-.76-.08-14.19-7.74-29.02-14.78-44.36-21.26-15.35-6.47-31.22-12.37-47.52-17.82Z"/>
          <path class="cls-32" d="M610.16,163.49c.53-.16,1.08,.14,1.24,.66,.16,.53-.14,1.08-.66,1.24-16.3,4.93-32.15,10.57-47.44,17.02-15.31,6.46-30.1,13.76-44.3,22.02-.25,.15-.55,.17-.81,.08-35.71-11.09-71.48-21.08-107.01-30.33-35.49-9.24-70.82-17.75-105.64-25.88-.53-.12-.87-.66-.74-1.19,.12-.53,.66-.86,1.19-.74,34.75,8.11,70.06,16.62,105.68,25.89,35.44,9.23,71.11,19.19,106.7,30.23,14.14-8.21,28.89-15.47,44.15-21.91,15.4-6.5,31.31-12.16,47.64-17.1Z"/>
        </g>
        <g>
          <g>
            <path class="cls-20" d="M76.44,3.54s-12.23,9.68,2.19,42.28c12.48,28.2,127.41,209.08,164.82,231.3,19.19,11.4,34.43-1.01,34.11-15.72-.19-8.27-4.91-20.93-12.04-35.52-12.92-8.86-20.17-18.35-13.83-25.78-11.38-19.82-74.7-128.09-129.67-179.64C104.13,3.69,87.18-5.49,76.44,3.54Z"/>
            <path class="cls-39" d="M76.44,3.54c-35.55,31.5,93.17,235.7,169.52,275.68,9.7,5.08,18.7,2.84,24.56-2.04-47.42-15.37-110.53-117.11-118.11-128.21C144.08,136.75,69.93,33.81,82.6,.43c-2.22,.52-4.28,1.54-6.16,3.11Z"/>
            <path class="cls-42" d="M265.54,225.95c-3.22-4.72-14.82-14.38-13.87-25.75-7.46-1.44-21.76-3.42-34.04-.59-1.64,7.04,26.15,27.11,47.91,26.34Z"/>
            <path class="cls-29" d="M79.36,17.15c-.08-.54,.28-1.05,.82-1.13,.54-.08,1.05,.28,1.13,.82,.52,3.21,1.36,6.86,2.67,11,1.17,3.7,2.7,7.78,4.68,12.25,3.55,8.02,14.64,28.32,29.72,53.48,11.62,19.39,25.62,41.66,40.38,63.43,17.37,25.63,35.79,50.52,52.06,70,14.74,17.65,27.68,30.83,36.39,36,1.8,1.07,3.81,2.53,5.89,4.03,4.44,3.22,9.19,6.65,12.06,6.52,.55-.03,1.01,.39,1.03,.94,.03,.55-.39,1.01-.94,1.03-3.57,.17-8.6-3.47-13.31-6.88-2.05-1.48-4.04-2.92-5.75-3.94-8.92-5.3-22.02-18.62-36.9-36.44-16.3-19.52-34.76-44.47-52.17-70.16-14.76-21.78-28.78-44.1-40.43-63.53-15.13-25.23-26.26-45.62-29.83-53.69-2.02-4.56-3.58-8.71-4.76-12.46-1.33-4.23-2.21-7.98-2.73-11.29Z"/>
            <path class="cls-29" d="M251.87,199.22c.54,.11,.89,.62,.78,1.16-.1,.54-.62,.89-1.16,.78-4.36-.84-11.07-1.86-18.35-1.99-5.04-.09-10.33,.26-15.28,1.4-.53,.12-1.06-.21-1.18-.74-.12-.53,.21-1.06,.74-1.19,5.13-1.18,10.59-1.54,15.76-1.45,7.41,.13,14.25,1.17,18.69,2.03Z"/>
            <path class="cls-29" d="M220.2,148.42c.53,.14,.84,.68,.71,1.21-.14,.53-.68,.84-1.21,.71-6.37-1.66-13.83-2.88-21.22-3.24-6.44-.31-12.81,.03-18.35,1.3-.53,.12-1.06-.21-1.19-.74-.12-.53,.21-1.06,.75-1.18,5.74-1.32,12.29-1.68,18.89-1.36,7.52,.36,15.11,1.61,21.63,3.3Z"/>
            <path class="cls-29" d="M181.3,90.72c.53,.13,.86,.66,.73,1.19-.13,.53-.66,.86-1.19,.74-3.02-.71-11.11-2.41-20.4-2.75-5.55-.21-11.52,.08-17.06,1.35-.53,.12-1.06-.21-1.18-.74-.12-.53,.21-1.06,.74-1.18,5.73-1.32,11.88-1.61,17.58-1.4,9.44,.35,17.69,2.08,20.77,2.81Z"/>
            <path class="cls-29" d="M134.05,31.55c.54,.08,.91,.58,.83,1.12-.08,.54-.58,.92-1.12,.83-3.9-.57-8.61-1.06-13.56-1.13-4.93-.07-10.09,.29-14.93,1.4-.53,.12-1.06-.21-1.19-.75-.12-.53,.21-1.06,.75-1.18,5.01-1.15,10.33-1.52,15.4-1.45,5.05,.07,9.85,.57,13.82,1.15Z"/>
            <path class="cls-29" d="M164.07,69.17c.53,.13,.86,.66,.73,1.19-.12,.53-.66,.86-1.19,.74-3.02-.71-11.11-2.41-20.4-2.75-5.55-.21-11.52,.07-17.06,1.35-.53,.12-1.06-.21-1.18-.75-.12-.53,.21-1.06,.75-1.18,5.73-1.32,11.87-1.61,17.58-1.4,9.44,.35,17.69,2.08,20.77,2.81Z"/>
            <path class="cls-29" d="M152.29,53.08c.53,.13,.86,.66,.73,1.19-.13,.53-.66,.86-1.19,.73-3.02-.71-11.11-2.41-20.4-2.75-5.55-.21-11.52,.08-17.06,1.35-.53,.12-1.06-.21-1.18-.74-.12-.53,.21-1.06,.75-1.18,5.73-1.32,11.87-1.61,17.58-1.4,9.44,.35,17.69,2.09,20.77,2.81Z"/>
            <path class="cls-29" d="M195.09,113.13c.53,.12,.86,.66,.73,1.19-.13,.53-.66,.86-1.19,.73-3.02-.71-11.11-2.41-20.4-2.75-5.55-.21-11.52,.07-17.06,1.35-.53,.12-1.06-.21-1.18-.75-.12-.53,.21-1.06,.74-1.18,5.73-1.32,11.88-1.61,17.58-1.4,9.44,.35,17.69,2.08,20.77,2.81Z"/>
          </g>
          <g>
            <path class="cls-16" d="M161.14,137.5c.85-2.06,.19-4.28-1.47-4.97-1.66-.69-3.7,.42-4.55,2.48-.85,2.06-.19,4.28,1.47,4.97,1.66,.69,3.7-.42,4.55-2.48Z"/>
            <path class="cls-16" d="M170.23,147.59c.65-1.58,.15-3.28-1.12-3.81-1.27-.53-2.84,.33-3.49,1.9-.65,1.58-.15,3.29,1.12,3.81,1.28,.53,2.84-.32,3.49-1.9Z"/>
            <path class="cls-16" d="M169.27,136.75c.53-1.28,.12-2.66-.91-3.08-1.03-.43-2.3,.26-2.82,1.54-.53,1.28-.12,2.66,.91,3.08,1.03,.43,2.3-.26,2.82-1.54Z"/>
          </g>
          <g>
            <path class="cls-16" d="M225.66,228.76c.85-2.06,.2-4.28-1.47-4.97-1.66-.69-3.7,.42-4.55,2.48-.85,2.06-.19,4.28,1.47,4.97,1.66,.69,3.7-.42,4.55-2.48Z"/>
            <path class="cls-16" d="M239.68,246.34c.65-1.58,.15-3.29-1.13-3.81-1.28-.53-2.84,.33-3.49,1.9-.65,1.58-.15,3.28,1.13,3.81,1.28,.53,2.84-.33,3.49-1.9Z"/>
            <path class="cls-16" d="M237.32,236.01c.53-1.27,.12-2.65-.91-3.08-1.03-.43-2.29,.26-2.82,1.54-.53,1.28-.12,2.66,.91,3.08,1.03,.43,2.3-.26,2.82-1.54Z"/>
          </g>
          <g>
            <path class="cls-16" d="M129.87,77.37c-.44,2.18,.64,4.24,2.4,4.59,1.76,.35,3.55-1.13,3.98-3.31,.44-2.18-.64-4.24-2.4-4.59-1.76-.35-3.55,1.13-3.98,3.31Z"/>
            <path class="cls-16" d="M112.72,62.83c-.33,1.67,.49,3.25,1.84,3.52,1.35,.27,2.72-.87,3.05-2.54,.34-1.67-.49-3.25-1.84-3.52-1.35-.27-2.72,.87-3.06,2.54Z"/>
            <path class="cls-16" d="M117.03,72.52c-.27,1.35,.4,2.63,1.49,2.85,1.09,.22,2.2-.7,2.47-2.06,.27-1.35-.4-2.63-1.49-2.85-1.09-.22-2.2,.7-2.47,2.06Z"/>
          </g>
        </g>
        <g>
          <path class="cls-23" d="M300.4,215.49l11.61,42.62s14.33-2.33,17.65,8.5c3.32,10.82-17.47,16-17.47,16,0,0-6.96,12.64-16.84,13.87-12.62,1.58-20.6-21.54-3.08-30.65l-20.04-43.81c-3.23-11.44,21.52-31.53,28.17-6.53Z"/>
          <path class="cls-40" d="M181.39,98.04l116.52-45.04c12.13,15.88,9.29,70.04,5.89,100.53-3.4,30.49-3.38,37.45-1.72,57.59-4.89,10.9-17.9,16.34-31.25,12.52-27.06-38.21-76-59.91-89.45-125.6Z"/>
          <path class="cls-14" d="M204.53,128.9c4.73,9.68,15.39,31.47,36.46,45.21,21.07,13.74,45.43,7,49.39-37.22,3.45-38.44,14.33-42.88,8.76-68.33-3.2-25.01-98.31,26.84-94.62,60.34Z"/>
          <path class="cls-31" d="M223.77,62.23c24.05-3.24,32.93-21.04,56.93-17.73,52.05,7.18-11.57,76.77-52.31,86.81-40.74,10.04-16.39-21.73-32.84-24.09-31-4.44-8.38-40.08,28.22-45Z"/>
          <path class="cls-15" d="M223.66,64.45c-11.14,1.5-22.54,6.34-30.86,13.99-3.99,3.66-10.57,12.18-8.5,18.15,1.47,4.22,7.47,6.46,11.37,7.02,9.06,1.3,9.44,6.61,9.91,14.15,1.62,26.54,48.74-2.71,60.24-12.59,18.03-15.5,35.31-35.91,29.22-50.01-2.46-5.7-9.89-7.66-15.44-8.43-7.66-1.06-13.95,.14-20.92,3.34-5.2,2.39-10.09,5.46-15.22,8.02-6.38,3.19-12.69,5.42-19.79,6.37Z"/>
          <path class="cls-23" d="M249.93,71.57c-5.21-.82-11.89,1.11-16.3,4.4-6.33,4.71-10.22,14.21,3.16,11.7,14.65-2.75,23.53-14.27,13.14-16.1Z"/>
          <path class="cls-41" d="M216.34,97.86c-14.39,9.29-9.92,31.3,12.73,23.94,48.96-15.91,57.09-55.11,20.48-33.83-.55,.32-8.75,4.71-16.42,6-9.68,1.62-12.3,1-16.78,3.89Z"/>
          <path class="cls-41" d="M247.32,67.39c9.96-.47,15.77,.87,16.04,5.39,.28,4.51,13.14,8.34,24.3-.64,10.67-8.59,.3-33.25-36.41-15.72-8.98,4.29-15.02,11.49-3.94,10.97Z"/>
          <path class="cls-41" d="M232.77,71.99s2.15-2.28,.72-4.21c-1.43-1.93-16.26-2.14-29.72,6.25-36.25,22.59,5.17,38.05,15.74,11.33,2.6-6.57,5.62-9.25,13.26-13.37Z"/>
          <path class="cls-4" d="M247.75,73.25c-3.92-.46-9.03,1.07-12.44,3.51-4.9,3.5-8.07,10.36,2.12,8.26,11.15-2.3,18.15-10.71,10.33-11.77Z"/>
          <path class="cls-48" d="M291.93,116.78c.02-.55,.47-.98,1.02-.96,.54,.01,.97,.47,.96,1.02-.21,6.71-.86,17.79-2.43,28.53-1.09,7.4-2.61,14.66-4.75,20.27-.19,.51-.76,.77-1.28,.58-.51-.19-.77-.76-.58-1.28,2.07-5.46,3.57-12.58,4.64-19.86,1.57-10.68,2.21-21.66,2.41-28.3Z"/>
        </g>
        <g>
          <g>
            <path class="cls-20" d="M381.01,308.76s13.93,7.03,37.44-19.77c20.34-23.18,136.15-203.5,140.58-246.78,2.28-22.2-15.4-30.82-28.61-24.33-7.42,3.64-16.93,13.25-27.17,25.86-2.61,15.44-8.18,26.02-17.58,23.38-6.12,8.65-12.23,17.74-18.09,26.73,.88,19.79-5.07,27.34-15.01,23.6-8.73,14.03-16.08,26.31-20.82,34.16,1.13,18.09-4.63,32.12-14.85,25.19-6.14,10.75-13.02,23.27-19.53,36.25-.93,14.32-5.79,25.23-14.44,31.61-12.1,30.01-17.39,56.85-1.93,64.1Z"/>
            <path class="cls-39" d="M381.01,308.76c43.52,19.01,174.7-183.62,178.87-269.7,.53-10.93-5.29-18.16-12.18-21.43,5.99,49.48-59.8,149.52-66.68,161.06-7.58,12.7-69.82,123.26-105.43,125.79,1.41,1.8,3.19,3.24,5.41,4.28Z"/>
            <path class="cls-39" d="M467.7,93.7c-2.27,4.97-3.04,17.55-14.69,23.54,2.22,12.28,7.47,27.35,15.08,37.15,7.9-1.64,15.12-43.42-.39-60.69Z"/>
            <path class="cls-39" d="M503.32,43.68c-2.93,4.91-6.82,19.49-17.54,23.41,1.83,7.38,6.05,21.18,13.78,31.14,7.08-1.47,13.6-35.12,3.76-54.54Z"/>
            <path class="cls-42" d="M431.77,151.63c-2,9.81-8.34,22.14-14.77,25.14,1.02,4.92,5.22,22.82,14.66,34.98,7.82-1.62,14.96-42.52,.11-60.12Z"/>
            <path class="cls-42" d="M397.5,212.83c-2.4,9.11-2.81,19.23-14.34,31.61,2.26,7.63,6.2,18.08,12.39,26.06,7.47-1.55,14.33-39,1.94-57.67Z"/>
            <path class="cls-29" d="M392.14,300.39c-.45,.31-1.07,.18-1.37-.27-.3-.45-.18-1.07,.27-1.37,2.69-1.82,5.65-4.12,8.86-7.05,2.87-2.62,5.92-5.72,9.15-9.4,5.79-6.6,19.54-25.19,36.03-49.45,12.7-18.7,27.03-40.76,40.58-63.3,15.95-26.53,30.79-53.71,41.63-76.66,9.82-20.8,16.34-38.07,17.37-48.15,.21-2.08,.69-4.52,1.18-7.04,1.05-5.38,2.17-11.14,.84-13.68-.25-.49-.06-1.08,.42-1.33,.48-.25,1.08-.06,1.33,.42,1.65,3.16,.46,9.26-.65,14.97-.48,2.48-.95,4.89-1.16,6.87-1.06,10.31-7.64,27.81-17.55,48.8-10.86,22.99-25.74,50.24-41.73,76.83-13.56,22.55-27.91,44.66-40.64,63.39-16.54,24.34-30.35,43-36.17,49.64-3.29,3.75-6.4,6.91-9.31,9.56-3.27,2.99-6.31,5.35-9.09,7.23Z"/>
            <path class="cls-29" d="M484.82,67.32c-.13-.53,.19-1.07,.72-1.2,.53-.13,1.07,.19,1.2,.72,1.07,4.31,2.96,10.83,5.91,17.49,2.04,4.61,4.58,9.27,7.69,13.28,.33,.43,.25,1.06-.18,1.39-.43,.33-1.05,.25-1.39-.18-3.23-4.16-5.85-8.96-7.94-13.69-3-6.77-4.93-13.42-6.02-17.82Z"/>
            <path class="cls-29" d="M452.04,117.42c-.1-.54,.26-1.05,.8-1.15,.54-.1,1.05,.26,1.15,.8,1.17,6.48,3.2,13.76,5.98,20.62,2.42,5.97,5.41,11.61,8.9,16.1,.33,.43,.25,1.06-.18,1.39-.43,.33-1.05,.25-1.39-.18-3.61-4.65-6.69-10.45-9.17-16.57-2.83-6.97-4.89-14.39-6.09-21.01Z"/>
            <path class="cls-29" d="M416.03,176.96c-.11-.54,.24-1.06,.77-1.17,.54-.11,1.06,.24,1.17,.77,.63,3.04,2.49,11.1,6.08,19.66,2.15,5.12,4.91,10.42,8.39,14.91,.34,.43,.25,1.05-.18,1.39-.43,.33-1.05,.25-1.39-.18-3.6-4.65-6.45-10.1-8.66-15.36-3.65-8.71-5.54-16.93-6.18-20.03Z"/>
            <path class="cls-29" d="M382.21,244.71c-.15-.52,.15-1.07,.67-1.23,.52-.15,1.08,.15,1.23,.67,1.12,3.78,2.66,8.26,4.68,12.78,2.01,4.5,4.51,9.04,7.55,12.96,.33,.43,.25,1.05-.18,1.39-.43,.33-1.06,.25-1.39-.18-3.15-4.06-5.72-8.73-7.79-13.36-2.06-4.61-3.63-9.18-4.77-13.03Z"/>
          </g>
          <g>
            <path class="cls-16" d="M466.96,175.6c-2.22,.09-3.96,1.63-3.89,3.42,.08,1.8,1.94,3.18,4.16,3.08,2.22-.09,3.97-1.62,3.89-3.42-.08-1.8-1.94-3.18-4.16-3.09Z"/>
            <path class="cls-16" d="M472.29,163.11c-1.71,.07-3.04,1.25-2.98,2.63,.06,1.38,1.49,2.44,3.19,2.37,1.71-.07,3.04-1.24,2.99-2.62-.06-1.38-1.49-2.44-3.2-2.37Z"/>
            <path class="cls-16" d="M462.85,168.54c-1.38,.06-2.46,1.01-2.41,2.12,.05,1.11,1.2,1.97,2.58,1.92,1.38-.06,2.46-1.01,2.42-2.12-.05-1.12-1.2-1.97-2.58-1.91Z"/>
          </g>
          <g>
            <path class="cls-16" d="M522.64,78.68c-2.22,.09-3.97,1.63-3.89,3.42,.07,1.8,1.94,3.18,4.16,3.09,2.22-.09,3.97-1.62,3.89-3.42-.08-1.8-1.94-3.18-4.16-3.08Z"/>
            <path class="cls-16" d="M532.7,58.58c-1.7,.07-3.04,1.25-2.98,2.63,.06,1.38,1.49,2.44,3.19,2.37,1.71-.07,3.04-1.25,2.99-2.63-.06-1.38-1.49-2.44-3.2-2.37Z"/>
            <path class="cls-16" d="M524.31,65.06c-1.38,.06-2.46,1.01-2.41,2.12,.04,1.12,1.2,1.97,2.58,1.91,1.38-.06,2.46-1.01,2.41-2.12-.04-1.12-1.2-1.97-2.58-1.92Z"/>
          </g>
          <g>
            <path class="cls-16" d="M425.54,229.24c2.16-.52,3.58-2.36,3.16-4.11-.42-1.75-2.52-2.74-4.68-2.22-2.17,.52-3.58,2.36-3.16,4.11,.42,1.75,2.52,2.74,4.68,2.22Z"/>
            <path class="cls-16" d="M419.57,250.92c1.66-.4,2.74-1.81,2.42-3.15-.32-1.34-1.93-2.1-3.59-1.71-1.66,.4-2.74,1.81-2.42,3.16,.32,1.34,1.93,2.1,3.59,1.7Z"/>
            <path class="cls-16" d="M426.54,242.94c1.34-.32,2.22-1.47,1.96-2.55-.26-1.08-1.56-1.7-2.91-1.38-1.34,.33-2.22,1.47-1.96,2.55,.26,1.09,1.56,1.7,2.91,1.38Z"/>
          </g>
        </g>
        <g>
          <rect class="cls-61" x="334.68" y="149.65" width="160.79" height="46.42" transform="translate(216.27 576.15) rotate(-86.37)"/>
          <path class="cls-12" d="M443.33,94.1l-46.33-2.94-2.6,50.58c17.25-16.41,33.88-18.39,45.54,4.88l3.39-52.52Z"/>
          <rect class="cls-51" x="265.83" y="122.72" width="160.79" height="91.55" transform="translate(156.14 503.35) rotate(-86.37)"/>
          <path class="cls-12" d="M305.64,85.36l91.36,5.8-2.6,47.96c-5.43,4.39-17.69,13.42-37.94,11.1-20.22-2.31-28.08-23.81-53.03-23.09l2.21-41.77Z"/>
          <path class="cls-38" d="M421.85,92.73c.02-.41,.38-.72,.79-.69,.41,.03,.72,.38,.7,.79l-9.28,146.23c-.03,.41-.38,.72-.79,.7-.41-.03-.72-.38-.69-.79l9.28-146.24Z"/>
          <polygon class="cls-7" points="386.82 251.63 413.31 239.01 433.15 254.57 386.82 251.63"/>
          <path class="cls-38" d="M387.63,251.79c-.25,.12-.54,.01-.66-.24-.12-.25-.01-.54,.24-.66l25.89-12.33c.19-.09,.41-.05,.55,.08l19.25,15.09c.22,.17,.25,.48,.08,.69-.17,.22-.48,.25-.69,.08l-19.04-14.92-25.62,12.2Z"/>
          <path class="cls-33" d="M387.56,251.67c-.02,.41-.38,.72-.79,.69-.41-.03-.72-.38-.69-.79l10.18-160.47c.03-.41,.38-.72,.79-.69,.41,.03,.72,.38,.7,.79l-10.19,160.47Z"/>
          <polygon class="cls-11" points="443.33 94.1 351.97 88.3 332.73 45.49 424.09 51.29 443.33 94.1"/>
          <path class="cls-13" d="M406.23,50.15l17.86,1.13,19.24,42.81c-5.24-9.6-17.69-23.59-20.81-27.2-7.96,8.37-14.77,16.76-25.52,24.26,0,0-10.63-3.29-2.85-23.59,2.82-7.36,7.03-13.37,12.08-17.41Z"/>
          <rect class="cls-53" x="371.31" y="-4.95" width="15.16" height="91.55" transform="translate(314.15 416.37) rotate(-86.37)"/>
          <polygon class="cls-11" points="305.64 85.36 397 91.16 424.09 51.29 332.73 45.49 305.64 85.36"/>
          <g>
            <path class="cls-13" d="M339.4,30.95c.02-.27,.25-.48,.52-.46,.27,.02,.48,.25,.46,.53l-.96,15.13c-.02,.27-.25,.48-.52,.46-.27-.02-.48-.25-.46-.52l.96-15.13Z"/>
            <path class="cls-13" d="M347.29,31.45c.02-.27,.25-.48,.52-.46,.27,.02,.48,.25,.46,.52l-.96,15.13c-.02,.27-.25,.48-.52,.46-.27-.02-.48-.25-.46-.53l.96-15.13Z"/>
            <path class="cls-13" d="M355.18,31.95c.02-.27,.25-.48,.53-.46,.27,.02,.48,.25,.46,.53l-.96,15.13c-.02,.27-.25,.48-.53,.46-.27-.02-.48-.25-.46-.53l.96-15.13Z"/>
            <path class="cls-13" d="M363.08,32.45c.02-.27,.25-.48,.52-.46,.27,.02,.48,.25,.46,.52l-.96,15.13c-.02,.27-.25,.48-.52,.46-.27-.02-.48-.25-.46-.53l.96-15.13Z"/>
            <path class="cls-13" d="M370.97,32.95c.02-.27,.25-.48,.52-.46,.27,.02,.48,.25,.46,.52l-.96,15.13c-.02,.27-.25,.48-.52,.46-.27-.02-.48-.25-.46-.52l.96-15.13Z"/>
            <path class="cls-13" d="M378.86,33.45c.02-.27,.25-.48,.53-.46,.27,.02,.48,.25,.46,.52l-.96,15.13c-.02,.27-.25,.48-.53,.46-.27-.02-.48-.25-.46-.53l.96-15.13Z"/>
            <path class="cls-13" d="M386.76,33.95c.02-.27,.25-.48,.53-.46,.27,.01,.48,.25,.46,.52l-.96,15.13c-.01,.27-.25,.48-.52,.46-.27-.02-.48-.25-.46-.52l.96-15.13Z"/>
            <path class="cls-13" d="M394.65,34.45c.01-.27,.25-.48,.52-.46,.27,.02,.48,.25,.46,.53l-.96,15.13c-.02,.27-.25,.48-.52,.46-.27-.02-.48-.25-.46-.53l.96-15.13Z"/>
            <path class="cls-13" d="M402.54,34.96c.02-.27,.25-.48,.52-.46,.27,.02,.48,.25,.46,.53l-.96,15.13c-.02,.27-.25,.48-.53,.46-.27-.02-.48-.25-.46-.53l.96-15.13Z"/>
            <path class="cls-13" d="M410.44,35.46c.02-.27,.25-.48,.52-.47,.27,.02,.48,.25,.46,.53l-.96,15.13c-.02,.27-.25,.48-.53,.46-.27-.02-.48-.25-.46-.53l.96-15.13Z"/>
            <path class="cls-13" d="M418.33,35.96c.02-.27,.25-.48,.52-.46,.27,.02,.48,.25,.46,.52l-.96,15.13c-.02,.27-.25,.48-.52,.46-.27-.02-.48-.25-.46-.52l.96-15.13Z"/>
          </g>
        </g>
        <g>
          <path class="cls-25" d="M297.29,316.22c-26.6,29.4-94.02-63.7-106.22-81.35-13.47-19.49-77-113.07-40.19-129.11,31.68-8.27,40.88,55.51,79.53,102.31,16.48,19.96,86.33,86.65,66.88,108.15Z"/>
          <path class="cls-26" d="M143.88,148.57c-6.5-19.85-6.82-36.79,7-42.81,13.06-3.41,22.29,5.43,31.35,20.26-2.58-3.99-16.06-17.75-12.52-11.4,3.62,6.49,5.84,20.27,5.84,20.27,0,0-2.6-5.75-5.75-12.53-3.16-6.77-8.63-13.36-10.49-12.8-1.85,.55,5.36,17.36,6.4,30.89,0,0-3.99-9.93-7.79-18.65-3.8-8.72-5.31-9.62-6.56-5.96-1.64,4.8-.71,16.68,2.85,32.96-5.68-7.58-9.73-36.94-11.6-26.35-1.34,7.61,.49,21.11,1.26,26.11Z"/>
          <path class="cls-26" d="M297.29,316.22c-26.6,29.4-94.02-63.7-106.22-81.35-13.47-19.49-77-113.07-40.19-129.11,1.05-.27,2.07-.46,3.07-.58-.4,.24-12.29,7.61-3.17,32.79,9.28,25.61,58.14,128.86,109.32,158.78,17.26,10.09,30.46,13.06,40.38,12.57-.4,2.62-1.42,4.95-3.19,6.9Z"/>
          <path class="cls-26" d="M143.88,148.57c-6.5-19.85-6.82-36.79,7-42.81,1.05-.27,2.07-.46,3.07-.58-.4,.24-12.29,7.61-3.17,32.79,.65,1.79,1.5,3.98,2.52,6.48,.28,1.41,.59,2.87,.91,4.36-5.68-7.58-9.73-36.94-11.6-26.35-1.34,7.61,.49,21.11,1.26,26.11Z"/>
          <path class="cls-43" d="M181.32,138.82c-.16-.38,.03-.81,.41-.97,.38-.15,.81,.03,.97,.41,5.09,12.54,12.31,28.72,20.65,43.33,6.14,10.77,12.89,20.68,19.82,27.65,.29,.29,.29,.76,0,1.05-.29,.29-.76,.29-1.05,0-7.04-7.08-13.86-17.1-20.06-27.97-8.38-14.69-15.63-30.92-20.73-43.5Z"/>
          <path class="cls-43" d="M165,140.66c-.11-.4,.12-.8,.52-.91,.39-.11,.8,.12,.91,.52,.04,.15,14.37,52.81,49.08,83.46,.31,.27,.34,.74,.07,1.05-.27,.31-.74,.34-1.05,.06-35.05-30.95-49.49-84.02-49.53-84.18Z"/>
          <path class="cls-43" d="M177.59,196.14c-.2-.36-.06-.81,.3-1.01,.36-.19,.81-.06,1.01,.3,.03,.05,9.65,17.85,18.12,27.42,.27,.31,.24,.77-.06,1.05-.31,.27-.78,.24-1.05-.07-8.6-9.72-18.3-27.65-18.32-27.7Z"/>
        </g>
        <g>
          <path class="cls-6" d="M197,275.11c-24.41,20.99-72.82-61.03-81.04-76.83-8.66-16.65-47.08-103.41-17.86-112,21.35-6.27,27.11,45,57.55,91.29,11.85,18.02,57.78,83.42,41.35,97.55Z"/>
          <path class="cls-46" d="M197,275.11c-24.41,20.99-72.82-61.03-81.04-76.83-8.55-16.44-46.13-101.26-18.91-111.63-17.69,12.27,17.63,91.48,29.63,111.61,1,1.69,64.17,106.47,72.86,59.84,1.73,7.63,1.3,13.73-2.54,17.02Z"/>
          <path class="cls-35" d="M88.73,121.67c-2.13-12.31-4.47-34.81,12.12-35.89,8.65-.56,14.73,9.08,21.48,23.89-2.74-5.01-5.93-11.61-10.26-16.47-4.33-4.85-9.64-6.37-5.49-3.1,8.79,6.93,12.46,22.33,15.34,36.02-4.84-7.26-7.55-25.53-18.07-34.46-4.03-3.42-4.57-2.7-3.25,.88,3.73,10.02,9.03,29.18,10.91,38.93-6.13-7.36-11-27.72-13.99-37.98-1.07-3.66-1.66-3.95-2.66-.21-3.18,11.87,3.91,36.76,5.06,44.24-3.28-6.71-9.55-25.8-8.82-39.36,.31-5.88-1.39-1.77-2.16,2.37-1.48,7.98-.3,20.29-.22,21.14Z"/>
          <path class="cls-46" d="M88.73,121.67c-1.91-11.05-3.99-30.3,7.59-34.91,.25-.04,.48-.08,.73-.11-8.49,5.89-4.77,27.18,2.72,49.96,.06,.33,.11,.63,.15,.92-3.28-6.71-9.55-25.8-8.82-39.36,.31-5.88-1.39-1.77-2.16,2.37-1.48,7.98-.3,20.29-.22,21.14Z"/>
          <path class="cls-43" d="M114.84,110.03c-.13-.39,.09-.81,.48-.94,.39-.13,.81,.09,.94,.48,7.48,22.79,12.96,37.35,20.68,52.46,7.73,15.13,17.72,30.85,34.2,55.95,.22,.34,.13,.8-.21,1.02-.34,.23-.8,.13-1.03-.21-16.51-25.14-26.52-40.9-34.29-56.09-7.77-15.21-13.28-29.83-20.78-52.68Z"/>
          <path class="cls-43" d="M96.58,102.43c-.05-.41,.23-.78,.64-.84,.41-.05,.78,.23,.84,.64,2.12,15.36,6.72,32.9,12.91,49.83,6.06,16.61,13.64,32.62,21.87,45.42,.22,.35,.12,.8-.22,1.03-.35,.22-.81,.12-1.03-.22-8.29-12.89-15.91-29.01-22.01-45.72-6.21-17.02-10.85-34.67-12.98-50.14Z"/>
          <path class="cls-43" d="M120.96,149.73c-.15-.38,.04-.81,.42-.96,.38-.15,.81,.04,.96,.43,.04,.1,14.07,36.29,28.86,57.74,.23,.34,.15,.8-.19,1.03-.34,.23-.8,.15-1.03-.19-14.89-21.59-28.98-57.94-29.03-58.04Z"/>
        </g>
        <g>
          <path class="cls-18" d="M199.33,181.78s.19-8.8,8.03-12.83c7.83-4.03,16.13-2.63,16.13-2.63,0,0,7.39-4.58,13.87-4.63,6.48-.05,11.56,1.93,14.17,6.28,2.61,4.35,31.33,60.96,8.15,73.76-23.18,12.8-62.38-28.51-60.35-59.94Z"/>
          <path class="cls-1" d="M233.73,191.65c3.15,22.82,17.59,53.46,32.99,51.26,15.4-2.2,13-35.04,11.91-41.35-11.22-64.97-49.1-40.41-44.89-9.92Z"/>
          <path class="cls-18" d="M266.72,242.91c9.35-1.34,12.13-13.96,12.64-25.08-.84-17.28-8.76-43.93-21.62-49.75-6.58-2.98-17.27,1.69-23,12.75-4.34,18.14,12.87,64.81,31.98,62.08Z"/>
          <path class="cls-45" d="M266.71,242.83c4.07-.58,6.89-3.32,8.81-7.14,2.48-4.92,3.48-11.63,3.76-17.87-.46-9.53-3.08-21.92-7.5-32.08-3.58-8.23-8.33-15.01-14.08-17.6-3.41-1.54-7.94-1.02-12.3,1.4-4,2.22-7.87,6.04-10.59,11.31-.9,3.78-.87,8.8-.08,14.35,1.35,9.5,4.93,20.56,9.83,29.64,4.9,9.07,11.11,16.17,17.76,17.76,1.44,.35,2.91,.43,4.38,.22h0Zm8.95-7.07c-1.95,3.87-4.8,6.63-8.92,7.22-1.5,.21-2.98,.13-4.44-.22-6.69-1.6-12.94-8.73-17.86-17.83-4.91-9.1-8.49-20.17-9.85-29.69-.8-5.58-.83-10.62,.08-14.42v-.02c2.75-5.31,6.64-9.15,10.67-11.38,4.4-2.44,8.98-2.97,12.43-1.41,5.78,2.61,10.56,9.41,14.16,17.68,4.43,10.18,7.05,22.59,7.51,32.14h0c-.29,6.27-1.29,13-3.78,17.94Z"/>
          <path class="cls-45" d="M216.27,186.06s-14.01-11.29-29.33,1.75c-15.32,13.05,6.97,65.31,41.2,70.38,34.23,5.07,11.02-51.7-11.87-72.13Z"/>
          <path class="cls-18" d="M215.11,185.26c-7.3-.08-29.74-3.79-29.25,21.8,.3,16.02,19.58,47.74,42.28,51.14,38.51,5.76,3.41-62.44-13.03-72.94Z"/>
          <path class="cls-37" d="M216.73,185.48c.32,.25,.37,.72,.12,1.04-.26,.32-.72,.37-1.04,.12-.02-.02-6.94-5.59-16.33-4.13-.4,.06-.78-.22-.85-.62-.06-.41,.21-.78,.62-.85,10.04-1.56,17.46,4.42,17.48,4.44Z"/>
          <path class="cls-37" d="M244.65,162.27c.35-.22,.81-.11,1.02,.24,.21,.35,.11,.81-.24,1.02-3.83,2.37-7.07,6.49-9.09,11.61-1.89,4.82-2.7,10.5-1.88,16.42,.05,.41-.23,.78-.64,.83-.41,.05-.78-.23-.83-.64-.85-6.18-.01-12.12,1.97-17.15,2.13-5.41,5.58-9.79,9.69-12.33Z"/>
          <path class="cls-6" d="M209.51,192.34c-.92-13.74,27.13-19.86,28.65-9.7,1.85,12.32-27.62,24.43-28.65,9.7Z"/>
          <path class="cls-46" d="M209.51,192.34c-.38-5.72,4.26-10.12,9.91-12.57-2.28,1.76-8.19,6.33-4.24,8.28,3.95,1.94,23.37-7.1,16-10.38,3.71,.36,6.52,1.94,6.98,4.97,1.85,12.32-27.62,24.43-28.65,9.7Z"/>
          <path class="cls-6" d="M220.62,182.16c-6.85-6.09-12.86-20.9-4.59-31.08,4.3-.8,6.9,3.05,7.49,7.31-8.63,11.15,3.95,19.89,1.49,23.86-1.09,1.76-4.38-.08-4.38-.08Z"/>
          <path class="cls-46" d="M220.49,152.19c1.65,1.36,2.68,3.71,3.02,6.2-6.18,7.98-1.49,14.73,.77,19.37-3.68,2.35-13.77-14.44-3.8-25.57Z"/>
          <path class="cls-28" d="M223.12,158.08c.17-.21,.48-.26,.69-.09,.21,.17,.26,.48,.09,.69-5.34,6.9-2.24,12.9,.05,17.32,1.39,2.68,2.5,4.83,1.47,6.49-.38,.61-.95,.89-1.58,.97-.75,.1-1.59-.11-2.26-.34-.26-.09-.39-.38-.3-.63,.09-.26,.38-.39,.63-.3,.55,.2,1.23,.37,1.8,.29,.35-.05,.66-.19,.86-.51,.73-1.18-.26-3.11-1.51-5.51-2.41-4.66-5.68-10.98,.05-18.38Z"/>
          <path class="cls-45" d="M250.09,175.16c19.63,3.04,26.01,37.49,19.37,62.2-2.13,12.94-12,24.1-27.34,22.56-24.33,10.71-56.04-40.58-42.64-58.46,6.76-9.02,17.23-15.05,26.38-11.15,4.06-9.22,11.49-17.13,24.24-15.15Z"/>
          <path class="cls-18" d="M197.23,205.92c3.24-10.23,18.9-20.15,29.46-15.65-1.31,4.42-2.01,6.65-1.46,14.08,.67,8.96-11.73-21.56-28,1.57Z"/>
          <path class="cls-18" d="M250.09,175.16c19.63,3.04,26.01,37.49,19.37,62.2-2.13,12.94-12,24.1-27.34,22.56-5.84,2.57-12.11,1.56-18.08-1.7,8.15,.52,13.8-7.66,13.8-7.66,26.03,13.08,27.15-25.78,24.49-42.2-5.91-36.45-26.92-30.24-27.09-30.19,3.88-2.64,8.76-3.96,14.85-3.01Z"/>
          <path class="cls-37" d="M226.54,190.6c-.16,.38-.59,.56-.97,.41-.38-.16-.56-.59-.4-.97,2.27-5.48,5.71-9.93,10.16-12.71,4.14-2.59,9.15-3.73,14.87-2.9,.54,.08,1.07,.18,1.58,.32,7.83,2,13.69,10.05,17.14,20.53,3.41,10.35,4.49,23.12,2.81,34.71-.34,2.31-.78,4.57-1.33,6.75-.23,.9-.46,1.8-.7,2.69-.23,.86-.46,1.68-.68,2.48-.11,.39-.52,.63-.92,.51-.4-.11-.63-.52-.51-.92,.21-.76,.44-1.58,.67-2.46,.22-.81,.45-1.7,.7-2.67,.54-2.14,.98-4.34,1.3-6.59,1.65-11.37,.59-23.89-2.75-34.04-3.3-10.02-8.81-17.7-16.09-19.55-.48-.12-.95-.22-1.43-.29-5.35-.78-10.01,.28-13.87,2.69-4.18,2.61-7.42,6.81-9.57,12.01Z"/>
          <path class="cls-37" d="M215.98,251.85c.3,.28,.31,.75,.03,1.05-.28,.3-.75,.31-1.05,.03-5.86-5.54-10.91-12.87-14.38-20.49-3.42-7.5-5.31-15.31-4.93-22.01,.14-2.54,.92-5.03,2.16-7.37,2.21-4.16,5.91-7.84,10.08-10.43,4.19-2.6,8.88-4.09,13.06-3.86,1.87,.1,3.64,.55,5.23,1.39,.36,.19,.5,.64,.31,1.01-.19,.36-.64,.5-1.01,.31-1.39-.74-2.95-1.13-4.61-1.23-3.88-.22-8.26,1.19-12.2,3.64-3.96,2.45-7.46,5.94-9.55,9.86-1.15,2.16-1.87,4.44-2,6.75-.36,6.45,1.48,14.02,4.8,21.31,3.4,7.46,8.34,14.63,14.05,20.04Z"/>
          <path class="cls-37" d="M224.38,214.19c-.03-.41,.28-.76,.69-.79,.41-.03,.77,.28,.79,.69,0,.05,1.27,18.29,8.81,31.91,.2,.36,.07,.81-.29,1.01-.36,.2-.81,.07-1.01-.29-7.7-13.92-8.99-32.46-8.99-32.52Z"/>
          <path class="cls-17" d="M239.77,183.6c-6.65,3.6-8.28,6.82-11.2,13.39-.41-7.43,2.33-11.8,8.03-16.03,4.27-3.16,5.24,1.56,3.17,2.64Z"/>
        </g>
        <g>
          <path class="cls-26" d="M427.35,176.11s-2.62-8.4-11.27-10.11c-8.64-1.71-16.23,1.93-16.23,1.93,0,0-8.37-2.36-14.61-.61-6.24,1.75-10.58,5.05-11.88,9.96-1.31,4.9-13.24,67.25,12.58,73.13,25.81,5.88,52.05-44.66,41.41-74.3Z"/>
          <path class="cls-25" d="M396.45,195.67c3.29,22.8-2.11,56.24-17.51,58.39-15.41,2.15-22.18-30.07-22.88-36.43-7.2-65.54,36-52.42,40.4-21.95Z"/>
          <path class="cls-26" d="M378.93,254.06c-9.35,1.3-15.52-10.05-19.09-20.6-3.97-16.84-3.74-44.64,7.01-53.79,5.5-4.68,17.07-3.15,25.63,5.9,9.19,16.22,5.57,65.83-13.55,68.5Z"/>
          <path class="cls-25" d="M411.68,185.47s10.34-14.73,28.67-6.43c18.33,8.3,11.37,64.69-20.12,79.03-31.49,14.34-24.9-46.63-8.55-72.6Z"/>
          <path class="cls-26" d="M412.57,184.38c7-2.09,27.53-11.88,34.14,12.85,4.14,15.48-5.6,51.29-26.48,60.84-35.41,16.19-20.55-59.06-7.66-73.69Z"/>
          <path class="cls-43" d="M412.29,185.9c-.24,.33-.7,.41-1.04,.17-.33-.24-.41-.7-.17-1.04,.02-.02,5.5-7.83,15.57-9.1,.41-.05,.78,.24,.83,.64,.05,.41-.24,.78-.64,.83-9.43,1.19-14.54,8.47-14.55,8.49Z"/>
          <path class="cls-43" d="M377.42,171.89c-.39-.11-.62-.52-.52-.91,.11-.4,.52-.63,.92-.52,4.65,1.3,9.18,4.56,12.72,9.17,3.3,4.3,5.75,9.77,6.64,15.94,.06,.41-.22,.78-.63,.84-.4,.06-.78-.23-.84-.63-.85-5.91-3.19-11.15-6.35-15.25-3.35-4.35-7.6-7.42-11.94-8.64Z"/>
          <path class="cls-6" d="M419.91,189.64c-2.91-13.46-31.56-11.58-30.21-1.4,1.63,12.35,33.31,15.83,30.21,1.4Z"/>
          <path class="cls-46" d="M419.91,189.64c-1.21-5.6-6.89-8.55-13.01-9.34,2.68,1.07,9.62,3.82,6.36,6.78-3.25,2.96-24.42-.36-18.24-5.54-3.46,1.37-5.73,3.67-5.33,6.71,1.63,12.35,33.31,15.83,30.21,1.4Z"/>
          <path class="cls-6" d="M406.43,182.93c4.9-7.75,6.57-23.64-4.19-31.14-4.36,.42-5.79,4.84-5.17,9.09,11.38,8.33,1.71,20.21,5.17,23.34,1.54,1.39,4.19-1.29,4.19-1.29Z"/>
          <path class="cls-46" d="M398.26,154.09c-1.21,1.77-1.55,4.31-1.19,6.79,8.15,5.96,5.51,13.74,4.62,18.83,4.18,1.25,9.23-17.68-3.43-25.62Z"/>
          <path class="cls-43" d="M396.77,161.28c-.22-.16-.27-.47-.11-.69,.16-.22,.47-.27,.69-.11,7.55,5.53,6.16,12.5,5.13,17.65-.53,2.66-.95,4.78,.08,5.72,.33,.3,.75,.32,1.18,.21,.5-.13,1.02-.44,1.44-.74,.22-.16,.53-.11,.69,.11,.16,.22,.11,.53-.11,.69-.49,.36-1.12,.72-1.77,.89-.72,.19-1.47,.13-2.09-.43-1.45-1.31-.98-3.68-.39-6.64,.97-4.88,2.3-11.51-4.74-16.66Z"/>
          <path class="cls-25" d="M376.17,184.36c-18.02,8.35-14.62,43.22-1.4,65.13,5.63,11.85,18.2,19.84,32.52,14.11,26.35,3.56,42.63-54.5,24.8-67.97-9-6.8-20.72-9.69-28.43-3.42-6.45-7.74-15.79-13.28-27.48-7.85Z"/>
          <path class="cls-26" d="M435.47,199.29c-5.94-8.94-23.74-14.13-32.64-6.88,2.48,3.89,3.77,5.84,5.3,13.13,1.84,8.8,5.31-23.97,27.34-6.24Z"/>
          <path class="cls-26" d="M376.17,184.36c-18.02,8.35-14.62,43.22-1.4,65.13,5.63,11.85,18.2,19.84,32.52,14.11,6.33,.86,12.07-1.85,16.91-6.63-7.69,2.75-15.38-3.54-15.38-3.54-21.39,19.77-33.23-17.26-35.21-33.77-4.41-36.66,17.5-36.51,17.68-36.51-4.46-1.46-9.51-1.38-15.11,1.21Z"/>
          <path class="cls-43" d="M404.23,191.75c.26,.32,.2,.79-.12,1.04-.32,.26-.79,.2-1.05-.12-3.5-4.4-7.79-7.54-12.52-8.89-4.38-1.25-9.15-.97-14.07,1.25-.45,.2-.89,.43-1.29,.67-6.48,3.8-9.66,12.7-10.06,23.24-.41,10.68,2.04,23,6.78,33.47,.94,2.08,1.97,4.08,3.08,5.97,.48,.81,.95,1.6,1.41,2.37,.47,.78,.92,1.51,1.33,2.18,.22,.35,.11,.81-.24,1.02-.35,.22-.81,.11-1.02-.24-.44-.7-.88-1.44-1.34-2.2h0c-.44-.74-.91-1.53-1.41-2.38-1.14-1.95-2.19-4-3.15-6.11-4.83-10.67-7.32-23.24-6.91-34.14,.42-11.03,3.82-20.38,10.79-24.47,.47-.27,.95-.52,1.43-.74,5.26-2.38,10.39-2.67,15.09-1.33,5.04,1.44,9.58,4.76,13.28,9.4Z"/>
          <path class="cls-43" d="M431.45,249.36c-.21,.35-.66,.47-1.02,.26-.35-.21-.47-.66-.26-1.02,4-6.77,6.76-15.03,7.96-23.13,1.17-7.93,.85-15.71-1.28-21.81-.76-2.18-2.09-4.18-3.78-5.93-3.09-3.19-7.42-5.58-11.91-6.84-4.47-1.26-9.07-1.4-12.73-.12-1.57,.55-2.96,1.36-4.09,2.45-.29,.29-.76,.28-1.05-.02-.28-.29-.28-.77,.01-1.05,1.29-1.25,2.87-2.17,4.64-2.79,3.96-1.38,8.88-1.24,13.62,.09,4.72,1.33,9.29,3.85,12.57,7.23,1.84,1.9,3.28,4.08,4.12,6.48,2.21,6.34,2.56,14.36,1.35,22.52-1.23,8.29-4.06,16.73-8.15,23.68Z"/>
          <path class="cls-47" d="M410.22,215.05c-.09-.4,.17-.8,.57-.88,.4-.08,.8,.17,.88,.58,.01,.05,3.91,18.23,.36,33.73-.09,.4-.49,.65-.89,.56-.4-.09-.65-.49-.56-.89,3.48-15.18-.36-33.05-.36-33.1Z"/>
          <path class="cls-8" d="M389.03,185.35c6.68,1.22,15.21,11.88,14.62,18.77-3.08-5.95-8.01-12.31-14.62-14.74-1.05-.03-1.91-.88-1.95-1.95-.04-1.11,.84-2.04,1.95-2.08Z"/>
        </g>
        <g>
          <path class="cls-24" d="M289.46,185.63s2.42-9.24,11.71-11.52c9.29-2.28,17.69,1.29,17.69,1.29,0,0,8.96-2.97,15.81-1.39,6.85,1.59,11.72,4.95,13.38,10.21,1.66,5.25,17.69,72.26-10.01,79.92-27.7,7.66-58.66-45.84-48.59-78.51Z"/>
          <path class="cls-44" d="M323.29,204.72c-2.44,24.89,5.08,60.87,21.89,62.44,16.81,1.57,22.56-33.71,23-40.64,4.56-71.42-41.64-55.05-44.89-21.8Z"/>
          <path class="cls-24" d="M345.18,267.16c10.2,.95,16.33-11.67,19.67-23.29,3.47-18.45,1.84-48.59-10.27-57.98-6.2-4.8-18.66-2.57-27.5,7.66-9.16,18.05-2.77,71.66,18.09,73.6Z"/>
          <path class="cls-44" d="M306.26,194.42s-11.94-15.46-31.4-5.55c-19.46,9.91-9.12,70.7,25.73,84.69,34.86,13.99,24.69-51.8,5.67-79.14Z"/>
          <path class="cls-24" d="M305.25,193.28c-7.69-1.92-30.44-11.51-36.38,15.63-3.72,16.99,8.62,55.34,31.73,64.66,39.2,15.8,19.36-65.06,4.65-80.29Z"/>
          <path class="cls-34" d="M306.85,193.96c.25,.32,.19,.79-.13,1.04-.32,.25-.79,.2-1.04-.13-.02-.02-5.93-7.68-16.24-8.51-.41-.03-.72-.39-.69-.8,.03-.41,.39-.72,.8-.68,10.96,.88,17.28,9.05,17.3,9.07Z"/>
          <path class="cls-34" d="M342.25,176.52c.39-.13,.81,.08,.94,.47,.13,.39-.08,.81-.47,.94-4.66,1.54-9.13,5.08-12.55,9.98-3.22,4.61-5.51,10.42-6.14,16.88-.04,.41-.4,.71-.81,.67-.41-.04-.71-.4-.67-.81,.66-6.73,3.04-12.78,6.4-17.59,3.61-5.17,8.35-8.91,13.31-10.55Z"/>
          <path class="cls-6" d="M297.55,199.34c2.49-14.74,33.65-14.12,32.7-3.01-1.16,13.47-35.33,18.82-32.7,3.01Z"/>
          <path class="cls-46" d="M297.55,199.34c1.04-6.14,7.05-9.61,13.64-10.77-2.85,1.29-10.24,4.62-6.57,7.67,3.68,3.05,26.46-1.6,19.51-6.92,3.82,1.32,6.4,3.7,6.11,7.01-1.16,13.47-35.33,18.82-32.7,3.01Z"/>
          <path class="cls-6" d="M311.63,190.13c-2.86-9.53,.03-26.64,13.46-31.33,4.43,1.71,4.64,6.75,2.75,11.02-14.33,5.39-7.68,20.63-12.22,22.89-2.02,1.01-4-2.57-4-2.57Z"/>
          <path class="cls-46" d="M328.58,162.37c.75,2.2,.37,4.96-.74,7.45-10.26,3.86-9.77,12.76-10.32,18.34-4.74,.08-4.49-21.18,11.06-25.79Z"/>
          <path class="cls-44" d="M279.73,205.72c-15.75,14.72-.43,49.52,20.63,67.63,9.82,10.31,25.5,14.29,38.32,3.53,28.38-5.26,25.48-70.65,2.53-78.49-11.58-3.96-24.65-2.97-30.48,6.11-9.27-5.79-20.78-8.34-31,1.22Z"/>
          <path class="cls-24" d="M279.73,205.72c-15.75,14.72-.43,49.52,20.63,67.63,9.82,10.31,25.5,14.29,38.32,3.53,6.82-1.26,11.82-6,15.18-12.57-7,5.45-17.06,1.56-17.06,1.56-15.36,27.64-40.11-6.53-47.76-22.89-16.97-36.31,5.67-43.58,5.85-43.64-5.09,0-10.27,1.8-15.16,6.37Z"/>
          <path class="cls-24" d="M279.78,205.77c-.51,.48-.99,.97-1.43,1.49-5.96,6.92-6.22,17.41-2.86,28.44,3.36,11.05,10.35,22.64,18.89,31.78,1.94,2.07,3.96,4.02,6.04,5.81h0c5.19,5.45,12.01,9.12,19.18,9.79,6.37,.59,13.02-1.21,19.03-6.25h.01s.02-.02,.02-.02c3.27-.61,6.12-2.02,8.58-4.05,2.56-2.12,4.69-4.92,6.4-8.19-6.71,4.95-15.98,1.7-16.81,1.4-1.94,3.48-4.04,5.98-6.23,7.66-3.97,3.04-8.27,3.37-12.56,1.95-4.28-1.42-8.55-4.6-12.51-8.57-7.21-7.25-13.37-17.16-16.56-23.98-1.68-3.59-2.97-6.9-3.93-9.94-3.75-11.84-2.56-19.72,.07-24.86,2.62-5.15,6.68-7.56,8.63-8.47,.29-.14,.53-.24,.72-.31-2.5,.05-5.01,.54-7.5,1.59-2.43,1.02-4.84,2.57-7.17,4.76h0Zm-1.55,1.39c.45-.52,.93-1.02,1.44-1.5,2.35-2.2,4.77-3.76,7.22-4.79,2.65-1.11,5.34-1.6,7.99-1.61h.49l-.46,.15s-.45,.14-1.12,.46c-1.94,.91-5.96,3.3-8.56,8.41-2.6,5.11-3.79,12.95-.06,24.75,.96,3.04,2.25,6.34,3.93,9.92,3.18,6.81,9.33,16.71,16.53,23.94,3.94,3.96,8.2,7.12,12.45,8.54,4.24,1.41,8.49,1.09,12.42-1.92,2.19-1.67,4.28-4.18,6.22-7.67l.03-.06,.06,.02s10.02,3.87,16.99-1.55l.27-.21-.15,.3c-1.75,3.41-3.94,6.33-6.59,8.53-2.47,2.04-5.34,3.46-8.62,4.08-6.05,5.07-12.73,6.87-19.13,6.28-7.21-.67-14.06-4.36-19.28-9.82-2.08-1.79-4.1-3.74-6.04-5.82-8.55-9.15-15.56-20.77-18.92-31.84-3.37-11.08-3.1-21.62,2.89-28.58Z"/>
          <path class="cls-34" d="M339.38,275.92c0,.41-.34,.74-.75,.73-.41,0-.74-.34-.73-.75,.06-4.49-.3-11.8-1.43-20.19-.84-6.29-2.11-13.17-3.95-19.91-.11-.4,.13-.8,.52-.91,.39-.11,.8,.13,.91,.52,1.86,6.82,3.14,13.76,3.99,20.1,1.13,8.47,1.5,15.86,1.44,20.41Z"/>
          <path class="cls-27" d="M327.67,169.35c.26-.1,.54,.03,.64,.29,.1,.26-.03,.54-.29,.64-8.89,3.34-9.44,10.67-9.85,16.07-.25,3.26-.44,5.87-2.32,6.8-.8,.4-1.58,.25-2.27-.15-.62-.36-1.16-.93-1.58-1.44-.17-.21-.13-.52,.08-.69,.21-.17,.52-.13,.69,.08,.35,.44,.8,.91,1.3,1.2,.42,.24,.89,.35,1.33,.12,1.37-.69,1.55-3.04,1.77-5.99,.43-5.67,1.01-13.36,10.49-16.92Z"/>
          <path class="cls-10" d="M345.94,201.01c-9.15-7.2-29.27-6.52-35.99,3.97,3.88,3.17,5.87,4.74,9.91,11.74,4.88,8.45-2.65-26.52,26.08-15.71Z"/>
          <path class="cls-34" d="M300.16,272.2c.31,.27,.34,.74,.06,1.05-.27,.31-.74,.33-1.05,.06-1.84-1.62-3.61-3.37-5.31-5.23-8.59-9.36-15.42-21.47-18.68-32.84-3.3-11.49-2.96-22.27,2.82-28.83,.39-.44,.8-.86,1.22-1.25,4.61-4.23,9.78-6.26,15.07-6.47,5.68-.22,11.47,1.66,16.84,5.17,.34,.23,.44,.69,.22,1.03-.22,.34-.69,.44-1.03,.22-5.12-3.35-10.61-5.15-15.97-4.94-4.94,.19-9.79,2.1-14.12,6.08-.4,.37-.77,.74-1.12,1.13-5.41,6.13-5.67,16.41-2.5,27.44,3.2,11.16,9.9,23.04,18.35,32.24,1.68,1.83,3.42,3.55,5.2,5.12Z"/>
          <path class="cls-34" d="M354.46,264.78c-.19,.36-.63,.51-1,.32-.36-.19-.51-.63-.32-1,4.3-8.38,5.84-19.64,4.99-30.58-.86-11.13-4.18-21.9-9.58-28.95-1.53-2-3.58-3.62-5.93-4.85-4.28-2.25-9.56-3.24-14.63-3.02-5.04,.22-9.85,1.64-13.2,4.21-1.44,1.1-2.61,2.42-3.4,3.94-.19,.36-.64,.5-1,.31-.36-.19-.5-.64-.31-1,.9-1.72,2.21-3.19,3.82-4.42,3.6-2.76,8.71-4.28,14.04-4.51,5.31-.23,10.86,.82,15.38,3.19,2.54,1.33,4.75,3.08,6.42,5.27,5.57,7.28,9,18.34,9.88,29.74,.86,11.19-.73,22.74-5.16,31.37Z"/>
          <path class="cls-22" d="M311.18,217.5c-6.52-8.05-8.4-9.75-17.76-13.08,9.95-2.21,26.01,9.38,21.41,13.35-1.08,.93-2.72,.81-3.65-.27Z"/>
          <path class="cls-22" d="M340.57,201.87c7.56,3.01,12.16,12.52,10.81,13.86-3.57,3.57-6.36-9.26-10.81-13.86Z"/>
        </g>
        <path class="cls-29" d="M305.46,260.37c0-.55,.45-.99,.99-.99s.99,.45,.99,.99v218.52c0,.55-.44,.99-.99,.99s-.99-.44-.99-.99v-218.52Z"/>
        <g>
          <g>
            <path class="cls-39" d="M518.5,203.58l-212.73,56.23v220.89c73.09-15.3,143.03-34.58,212.73-56.23,3.11-73.63,2.81-147.26,0-220.89Z"/>
            <path class="cls-19" d="M518.5,203.58l-212.73,56.23c21.69,30.59,55.09,63.83,78.3,99.77l136.65-49.29c-.08-35.57-.86-71.14-2.22-106.71Z"/>
            <path class="cls-9" d="M93.03,203.58l212.73,56.23v220.89c-76.49-17.15-148.09-35.7-212.73-56.23-6.4-92.72-6.94-156.31,0-220.89Z"/>
            <polygon class="cls-42" points="518.5 203.58 305.77 259.81 398.44 330.9 603.82 270.47 518.5 203.58"/>
            <path class="cls-19" d="M93.03,203.58l212.73,56.23c-21.69,30.59-55.09,63.83-78.3,99.77l-139.4-49.47c-2.18-35.55,1.21-70.95,4.97-106.54Z"/>
            <polygon class="cls-42" points="93.03 203.58 305.77 259.81 213.09 330.9 .36 274.67 93.03 203.58"/>
            <path class="cls-32" d="M304.78,260.67c0-.55,.44-.99,.99-.99s.99,.44,.99,.99v219.1c0,.55-.44,.99-.99,.99s-.99-.44-.99-.99v-219.1Z"/>
          </g>
          <path class="cls-32" d="M91.99,204.58c-.52-.16-.82-.71-.66-1.24,.16-.52,.72-.82,1.24-.66,6.68,2.05,206.22,55.1,214.02,57.18l210.38-57.71c.53-.14,1.07,.17,1.21,.69,.14,.53-.17,1.07-.69,1.21l-210.58,57.76c-.18,.06-.37,.07-.57,.02-.6-.16-207.5-55.16-214.35-57.27Z"/>
        </g>
      </g>
      <g>
        <path class="cls-24" d="M312.96,379.09s-5.65-7.7-15.12-6.41c-9.48,1.29-15.98,7.7-15.98,7.7,0,0-9.42,.52-15.22,4.52-5.79,3.99-9.08,8.91-8.69,14.41,.39,5.49,10.09,73.71,38.67,70.66,28.57-3.05,37.72-64.18,16.35-90.87Z"/>
        <path class="cls-44" d="M288.51,409.28c11.41,22.25,17.64,58.48,2.58,66.11-15.06,7.63-33.37-23.06-36.32-29.35-30.47-64.75,18.5-66.49,33.75-36.76Z"/>
        <path class="cls-24" d="M291.09,475.39c-9.14,4.63-19.48-4.85-26.85-14.43-10.01-15.89-19.56-44.51-11.74-57.7,4-6.74,16.41-9.25,28.39-2.97,15.15,13.42,28.9,65.63,10.21,75.1Z"/>
        <path class="cls-44" d="M300.56,393.44s5.43-18.77,27.17-16.7c21.74,2.07,34.46,62.41,7.18,88.23-27.28,25.82-41.99-39.11-34.34-71.53Z"/>
        <path class="cls-24" d="M301.09,392c6.45-4.62,24.08-21.89,39.58,1.17,9.7,14.44,12.31,54.64-5.76,71.79-30.65,29.1-41.9-53.4-33.82-72.96Z"/>
        <path class="cls-34" d="M299.85,393.23c-.12,.39,.11,.8,.5,.92,.39,.12,.81-.11,.92-.5,0-.03,2.7-9.32,11.98-13.88,.37-.18,.52-.63,.34-1-.18-.37-.63-.52-1-.34-9.87,4.85-12.75,14.77-12.75,14.8Z"/>
        <path class="cls-34" d="M260.51,390.01c-.41,.02-.73,.38-.7,.79,.02,.41,.38,.72,.79,.7,4.9-.28,10.36,1.37,15.34,4.67,4.69,3.11,8.95,7.67,11.91,13.44,.19,.37,.63,.51,1,.33,.37-.19,.51-.63,.33-1-3.08-6.01-7.52-10.77-12.41-14.01-5.25-3.48-11.04-5.22-16.25-4.92Z"/>
        <path class="cls-6" d="M310.48,394.82c-7.73-12.79-36.48-.77-31.52,9.21,6.03,12.11,39.77,4.52,31.52-9.21Z"/>
        <path class="cls-46" d="M310.48,394.82c-3.22-5.32-10.08-6.35-16.64-5.01,3.12,.15,11.22,.53,8.92,4.72-2.3,4.19-25.2,8.23-20.69,.73-3.07,2.63-4.59,5.79-3.11,8.77,6.03,12.11,39.77,4.52,31.52-9.21Z"/>
        <path class="cls-6" d="M294,391.42c-.84-9.91-9.81-24.76-24.03-24.2-3.49,3.22-1.83,7.99,1.48,11.26,15.31-.25,14.72,16.36,19.77,16.8,2.24,.19,2.77-3.86,2.77-3.86Z"/>
        <path class="cls-46" d="M268.03,371.82c.11,2.33,1.48,4.75,3.42,6.66,10.95-.18,13.77,8.28,16.34,13.26,4.44-1.66-3.6-21.35-19.76-19.92Z"/>
        <path class="cls-44" d="M329.39,394.19c20.06,7.91,18.59,45.9,5.66,70.48-5.35,13.2-18.46,22.66-34.34,17.36-28.33,5.53-49.65-56.35-31.19-72.08,9.32-7.94,21.84-11.82,30.59-5.51,6.5-8.79,16.26-15.39,29.28-10.26Z"/>
        <path class="cls-24" d="M329.39,394.19c20.06,7.91,18.59,45.9,5.66,70.48-5.35,13.2-18.46,22.66-34.34,17.36-6.8,1.33-13.2-1.24-18.74-6.11-37.87-34.53,10.26-29.19,10.26-29.19,25.85-7.13,36.33-9.61,37.44-27.63,2.45-40.01-16.53-25.28-16.72-25.27,4.74-1.87,10.22-2.1,16.44,.36Z"/>
        <path class="cls-24" d="M329.37,394.27c-2.98-1.18-5.79-1.73-8.42-1.79-2.7-.06-5.22,.41-7.56,1.28,.2,0,.46,0,.78,.03,2.15,.13,6.81,.88,11.14,4.71,4.33,3.82,8.33,10.71,9.2,23.1,.22,3.19,.23,6.74,0,10.69-.46,7.51-2.54,19-6.59,28.39-2.22,5.15-5.03,9.68-8.49,12.57-3.47,2.9-7.58,4.17-12.39,2.8-2.66-.75-5.52-2.31-8.61-4.84-.66,.59-8.09,7.01-16.15,4.88,2.79,2.41,5.8,4.23,8.96,5.26,3.03,.99,6.2,1.25,9.47,.62h.02s.02,0,.02,0c7.45,2.48,14.29,1.71,20-1.17,6.43-3.25,11.42-9.17,14.25-16.14h0c1.28-2.43,2.44-4.99,3.48-7.63,4.59-11.63,6.83-24.98,5.9-36.49-.93-11.5-5.03-21.15-13.11-25.4-.61-.32-1.23-.6-1.88-.86h0Zm15.14,26.25c.93,11.53-1.31,24.91-5.9,36.56-1.04,2.65-2.21,5.2-3.48,7.63-2.84,7-7.86,12.95-14.32,16.22-5.74,2.9-12.61,3.68-20.1,1.19-3.28,.64-6.47,.37-9.52-.62-3.28-1.07-6.39-2.98-9.26-5.51l-.25-.23,.32,.1c8.47,2.48,16.35-4.78,16.37-4.8l.05-.04,.05,.04c3.09,2.54,5.96,4.1,8.6,4.85,4.76,1.35,8.83,.1,12.26-2.78,3.44-2.88,6.23-7.38,8.45-12.51,4.04-9.37,6.12-20.84,6.58-28.34,.24-3.95,.23-7.49,0-10.67-.86-12.34-4.84-19.2-9.14-23-4.3-3.8-8.92-4.54-11.05-4.67-.74-.04-1.18-.02-1.21-.02l-.49,.03,.45-.18c2.47-.98,5.15-1.51,8.03-1.44,2.65,.06,5.48,.62,8.47,1.8,.66,.26,1.29,.55,1.9,.87,8.13,4.28,12.26,13.97,13.19,25.52Z"/>
        <path class="cls-34" d="M299.7,481.41c.16,.38,.59,.56,.97,.4,.38-.15,.56-.59,.41-.97-1.7-4.15-4.05-11.09-6.09-19.3-1.52-6.16-2.87-13.02-3.64-19.97-.05-.41-.41-.7-.82-.66-.41,.05-.7,.41-.65,.82,.78,7.02,2.13,13.96,3.67,20.16,2.06,8.29,4.43,15.3,6.16,19.51Z"/>
        <path class="cls-27" d="M271.45,377.98c-.27,0-.49,.23-.49,.5,0,.27,.23,.49,.5,.49,9.5-.16,12.7,6.45,15.06,11.33,1.42,2.94,2.57,5.29,4.66,5.47,.89,.08,1.56-.35,2.05-.98,.44-.56,.74-1.29,.94-1.92,.08-.26-.07-.54-.33-.62-.26-.08-.54,.07-.61,.33-.16,.53-.41,1.14-.77,1.59-.3,.38-.7,.65-1.19,.6-1.53-.13-2.56-2.26-3.85-4.91-2.48-5.12-5.84-12.05-15.97-11.88Z"/>
        <path class="cls-10" d="M266.09,414.14c5.87-10.06,24.82-16.82,34.93-9.53-2.44,4.37-3.72,6.56-4.91,14.56-1.43,9.65-7.28-25.64-30.02-5.03Z"/>
        <path class="cls-34" d="M334.81,463.53c-.19,.37-.04,.81,.32,1,.37,.18,.81,.04,1-.33,1.12-2.18,2.12-4.47,3.03-6.81,4.55-11.87,6.45-25.64,5.31-37.41-1.15-11.9-5.42-21.8-13.21-25.77-.52-.27-1.05-.5-1.59-.71-5.84-2.24-11.39-2.23-16.39-.48-5.36,1.88-10.06,5.76-13.76,11-.24,.34-.16,.8,.18,1.04,.34,.24,.8,.16,1.04-.18,3.53-5,7.98-8.68,13.04-10.46,4.67-1.63,9.88-1.64,15.37,.47,.51,.19,.99,.41,1.45,.64,7.29,3.71,11.3,13.18,12.41,24.6,1.12,11.55-.75,25.07-5.22,36.72-.89,2.32-1.87,4.55-2.96,6.68Z"/>
        <path class="cls-34" d="M281.59,476.58c.31,.27,.77,.24,1.05-.07,.27-.31,.24-.77-.07-1.04-7.08-6.21-12.64-16.12-15.88-26.61-3.29-10.67-4.15-21.91-1.72-30.44,.69-2.42,2-4.68,3.73-6.69,3.16-3.67,7.7-6.53,12.49-8.18,4.77-1.65,9.76-2.09,13.83-.94,1.74,.5,3.31,1.29,4.61,2.41,.31,.27,.78,.23,1.05-.08,.27-.31,.23-.78-.08-1.05-1.47-1.26-3.23-2.16-5.18-2.71-4.36-1.24-9.67-.78-14.72,.96-5.02,1.74-9.8,4.75-13.13,8.62-1.87,2.17-3.29,4.61-4.04,7.26-2.51,8.81-1.63,20.37,1.73,31.29,3.31,10.73,9.03,20.88,16.32,27.28Z"/>
        <path class="cls-22" d="M304.47,416.71c3.1-9.88,4.23-12.15,11.71-18.69-10.07,1.6-20.75,18.28-15.02,20.28,1.35,.47,2.83-.24,3.3-1.59Z"/>
        <path class="cls-22" d="M271.39,412.97c-5.93,5.58-6.71,16.11-4.97,16.86,4.63,2.01,2.51-10.95,4.97-16.86Z"/>
      </g>
      <g>
        <path class="cls-21" d="M558.6,164.64l-140.52,58.18c0,89.7,22.59,226.91,140.52,258.51,117.93-31.6,140.52-168.8,140.52-258.51l-140.52-58.18Z"/>
        <path class="cls-30" d="M552.27,171.9c.56-.23,1.2,.03,1.43,.59,.23,.56-.03,1.2-.59,1.43l-125.28,52.19c-.56,.23-1.2-.03-1.43-.59-.23-.56,.03-1.2,.59-1.43l125.28-52.19Z"/>
        <path class="cls-50" d="M558.6,185.59V461.06c94.5-28.2,119.4-137.53,121.2-225.3l-121.2-50.18Z"/>
        <path class="cls-36" d="M558.6,185.59V461.06c-94.5-28.2-119.4-137.53-121.19-225.3l121.19-50.18Z"/>
        <polygon class="cls-2" points="536.68 248.74 580.51 248.74 580.51 301.06 632.84 301.06 632.84 344.9 580.51 344.9 580.51 397.23 536.68 397.23 536.68 344.9 484.35 344.9 484.35 301.06 536.68 301.06 536.68 248.74"/>
        <path class="cls-29" d="M492.39,443.98c.45,.41,.47,1.1,.07,1.55-.41,.44-1.1,.48-1.55,.06-25.97-23.95-43.27-55.64-54.55-89.5-14.82-44.46-19.27-92.68-19.36-132.01,0-.46,.28-.84,.67-1.01l139.65-59.08c.56-.23,1.2,.03,1.43,.58,.24,.56-.03,1.2-.58,1.43l-138.99,58.8c.14,39.01,4.6,86.66,19.25,130.6,11.18,33.54,28.29,64.9,53.96,88.58Z"/>
      </g>
      <g>
        <path class="cls-26" d="M405.28,448.26c58.52-25.08,85.46-36.22,90.09-55.73,2.41-10.09-4.65-14.15-12.13-13.01-7,1.05-14.28,6.76-16.19,13.93-3.95,14.88-.22-14.15-15.09-12.53-14.85,1.62-15.56,23.21-15.56,23.21-2.85-13.12-29.4-8.01-9.28,21.83l-21.83,22.29Z"/>
        <path class="cls-25" d="M391.81,451.5c32.41-8.8,80.15-41.34,109.62-40.39,22.14,.68,27.62,21.92-13.93,29.25,0,0,13.93,6.98,2.79,15.34-11.15,8.36-30.19-4.65-30.19-4.65-9.81,27.45-31.16-1.67-32.06-1.62l-36.23,2.08Z"/>
        <path class="cls-58" d="M486.92,379.38c-1.97,5.6-5.07,11.89-10.33,18.67-6.12,7.88-15.21,16.43-28.92,25.34-13.5,8.78-23.61,14.96-30.39,18.98-1.01,.79-1.62,1.21-1.62,1.21-.22,.15-.5,.22-.75,.2-.86,.48-1.65,.94-2.35,1.36l-6.91,2.96s-.07-.09-.09-.13l3.16-3.23c2.24-1.32,5.68-3.42,9.63-6.1,3.51-3.07,8.49-8.2,11.23-14.5,3.12-7.17-1.82-19.44-5-26.04,.66-.33,1.38-.53,2.11-.66,3.31,7,8.29,19.75,4.89,27.58-1.12,2.59-2.63,5-4.23,7.18,10.79-8.3,21.94-19.09,23.28-29.14,1.18-8.82,1.1-16.35,.61-22.05,.24-.02,.46-.07,.7-.09,.53-.07,1.01-.07,1.47-.07,.5,5.86,.59,13.54-.61,22.51-1.21,8.91-9.48,18.26-18.67,26.11,3.75-2.37,7.86-4.98,12.35-7.9,13.47-8.75,22.38-17.16,28.37-24.88,4.89-6.28,7.83-12.11,9.74-17.33,.79-.06,1.58-.04,2.33,.02h0Z"/>
        <path class="cls-59" d="M517.8,425.15c-6.78-1.71-16.68-2.55-28.37-1.73-11.45,.81-24.57,3.23-38.11,7.97-4.37,1.53-8.4,2.98-12.09,4.32,5.25-.88,10.38-1.21,15.38-.9,13.58,.83,26.18,6.43,37.3,19.51-.48,.46-1.01,.92-1.62,1.38l-.04,.02c-10.71-12.55-22.78-17.95-35.74-18.74-7.92-.48-16.19,.72-24.73,3.05,3.14-.04,6.47,.22,9.72,1.03,6.95,1.78,13.05,10.4,16.92,17.2-.5,.66-1.01,1.23-1.54,1.73-3.6-6.56-9.44-15.16-15.93-16.81-7.74-1.95-16.13-.55-20.41,.46-3.82,1.38-7.66,2.96-11.56,4.63l-.09,.04c-.55,.24-1.18,0-1.45-.55-.13-.29-.11-.62,0-.9,5-1.95,10.23-4.23,15.56-6.67,7.13-2.77,16.94-6.45,29.6-10.88,13.74-4.81,27.08-7.26,38.68-8.07,11.94-.86,22.1,.02,29.09,1.8-.09,.7-.28,1.4-.57,2.11h0Z"/>
        <path class="cls-3" d="M364.91,430.7c-86.1,21-209.91,63.04-91.52,58.89,61.83-2.17,105.78-9.15,129.41-21.22,19.79-10.12,25.98-53.25-37.89-37.67h0Z"/>
        <path class="cls-55" d="M386.85,434.13c-.48-.39-.53-1.07-.15-1.56,.4-.46,1.08-.52,1.54-.13,9.3,7.74,12.55,28.83,12.55,28.9,.09,.59-.31,1.14-.9,1.25-.62,.09-1.16-.33-1.25-.92-.02-.07-3.14-20.34-11.78-27.54h0Z"/>
        <path class="cls-55" d="M370.57,437c-.53-.29-.72-.94-.44-1.47,.29-.53,.94-.72,1.47-.44,11.04,6.01,14.79,30.34,14.79,30.41,.09,.59-.31,1.16-.9,1.25-.61,.09-1.16-.31-1.25-.9-.02-.07-3.6-23.37-13.67-28.85h0Z"/>
        <path class="cls-55" d="M352.29,442.48c-.53-.26-.75-.94-.46-1.47,.28-.53,.94-.75,1.47-.46,11.17,5.84,14.96,30.46,14.96,30.52,.11,.59-.31,1.16-.9,1.25-.59,.09-1.16-.31-1.25-.92,0-.07-3.64-23.58-13.82-28.92h0Z"/>
        <path class="cls-55" d="M332.32,447.6c-.53-.29-.75-.94-.46-1.47,.29-.53,.94-.75,1.47-.46,11.17,5.83,14.96,30.45,14.96,30.52,.11,.59-.31,1.16-.9,1.25-.59,.09-1.16-.33-1.25-.92-.02-.07-3.64-23.61-13.82-28.92h0Z"/>
        <path class="cls-55" d="M314.44,452.67c-.48-.37-.59-1.06-.24-1.54,.37-.48,1.05-.59,1.54-.24,3.23,2.37,5.77,6.3,7.7,10.56,3.2,6.96,4.85,14.81,5.4,17.73,.09,.59-.29,1.16-.9,1.27-.59,.11-1.16-.29-1.27-.88-.5-2.83-2.11-10.49-5.2-17.22-1.82-3.95-4.13-7.57-7.02-9.68h0Z"/>
        <path class="cls-55" d="M294.58,458.83c-.48-.33-.59-1.03-.24-1.51,.35-.48,1.03-.61,1.51-.26,2.87,2.04,5.18,5.31,7.04,8.95,2.54,5.02,4.23,10.82,5.24,14.99,.13,.57-.24,1.16-.81,1.32-.59,.13-1.18-.22-1.32-.81-.96-4.04-2.61-9.63-5.07-14.5-1.71-3.36-3.82-6.34-6.36-8.16h0Z"/>
        <path class="cls-55" d="M274.84,465.57c-.5-.31-.68-.96-.35-1.49,.31-.5,.97-.68,1.49-.37,2.52,1.54,4.63,3.97,6.38,6.85,2.19,3.53,3.84,7.75,5.07,11.59,.18,.59-.13,1.2-.72,1.38-.57,.18-1.19-.13-1.36-.7-1.19-3.73-2.79-7.75-4.85-11.12-1.6-2.59-3.47-4.78-5.66-6.12h0Z"/>
        <path class="cls-55" d="M255.92,472.7c-.53-.31-.7-.96-.39-1.49,.31-.52,.96-.7,1.49-.39,2.02,1.18,3.77,2.96,5.29,5.07,1.49,2.06,2.79,4.45,3.86,6.93,.24,.55,0,1.18-.55,1.43-.55,.26-1.21,0-1.45-.55-1.03-2.35-2.24-4.61-3.64-6.54-1.36-1.86-2.9-3.44-4.61-4.45h0Z"/>
        <path class="cls-57" d="M380.57,436.21c-36.8,2.92-61.19,15.99-88.91,20.19,16.39-9.81,68.15-23.13,88.58-24.91,1.97-.09,13.8-1.93,12.99,2.15,.22,3.53-8.45,2.33-12.66,2.57h0Z"/>
      </g>
      <g>
        <text class="cls-60" transform="translate(108.72 416.62) rotate(12.82) scale(.92 .98) skewX(13.22)"><tspan class="cls-52" x="0" y="0">SAFET</tspan><tspan class="cls-62" x="114.23" y="0">Y</tspan></text>
        <text class="cls-60" transform="translate(108.28 378.47) rotate(12.82) scale(.92 .98) skewX(13.22)"><tspan class="cls-52" x="0" y="0">FOO</tspan><tspan class="cls-54" x="72.66" y="0">D</tspan></text>
      </g>
    </g>
  </g>
</svg>