<?xml version="1.0" encoding="UTF-8"?>
<svg xmlns="http://www.w3.org/2000/svg" viewBox="0 0 159.66 158.23">
  <defs>
    <style>
      .cls-1 {
        isolation: isolate;
      }

      .cls-2 {
        fill: #ffb93e;
      }

      .cls-3 {
        fill: #fceed9;
      }

      .cls-4 {
        fill: #d6f2f5;
      }

      .cls-4, .cls-5 {
        mix-blend-mode: multiply;
      }

      .cls-6 {
        fill: #ffa412;
      }

      .cls-7 {
        fill: #c3d82e;
      }

      .cls-8 {
        fill: #a3bbc4;
      }

      .cls-5 {
        fill: #0e4744;
        opacity: .18;
      }

      .cls-9 {
        fill: #2b478b;
      }
    </style>
  </defs>
  <g class="cls-1">
    <g id="Layer_2" data-name="Layer 2">
      <g id="Layer_1-2" data-name="Layer 1">
        <g>
          <g>
            <polygon class="cls-5" points="124.66 141.74 93.07 146.78 27.75 158.23 4.46 32.55 99.44 13.22 117.16 105.37 124.66 141.74"/>
            <polygon class="cls-6" points="119.05 135.84 88.6 143.47 25.86 156.25 0 29.25 94.98 9.91 114.1 103.85 119.05 135.84"/>
            <path class="cls-8" d="M93.26,64.23l-46.2,9.41c-.69,.14-1.36-.3-1.5-.99h0c-.14-.69,.3-1.36,.99-1.5l46.2-9.41c.69-.14,1.36,.3,1.5,.99h0c.14,.69-.3,1.36-.99,1.5Z"/>
            <path class="cls-8" d="M94.65,71.05l-46.2,9.41c-.69,.14-1.36-.3-1.5-.99h0c-.14-.69,.3-1.36,.99-1.5l46.2-9.41c.69-.14,1.36,.3,1.5,.99h0c.14,.69-.3,1.36-.99,1.5Z"/>
            <path class="cls-8" d="M77.17,81.72l-27.33,5.56c-.69,.14-1.36-.3-1.5-.99h0c-.14-.69,.3-1.36,.99-1.5l27.33-5.56c.69-.14,1.36,.3,1.5,.99h0c.14,.69-.3,1.36-.99,1.5Z"/>
            <path class="cls-8" d="M85.92,103.41l-31.49,6.41c-.69,.14-1.36-.3-1.5-.99h0c-.14-.69,.3-1.36,.99-1.5l31.49-6.41c.69-.14,1.36,.3,1.5,.99h0c.14,.69-.3,1.36-.99,1.5Z"/>
            <path class="cls-8" d="M99.23,93.59l-46.2,9.41c-.69,.14-1.36-.3-1.5-.99h0c-.14-.69,.3-1.36,.99-1.5l46.2-9.41c.69-.14,1.36,.3,1.5,.99h0c.14,.69-.3,1.36-.99,1.5Z"/>
            <path class="cls-8" d="M88.99,43.29l-46.2,9.41c-.69,.14-1.36-.3-1.5-.99h0c-.14-.69,.3-1.36,.99-1.5l46.2-9.41c.69-.14,1.36,.3,1.5,.99h0c.14,.69-.3,1.36-.99,1.5Z"/>
            <path class="cls-8" d="M87.6,36.47l-46.2,9.41c-.69,.14-1.36-.3-1.5-.99h0c-.14-.69,.3-1.36,.99-1.5l46.2-9.41c.69-.14,1.36,.3,1.5,.99h0c.14,.69-.3,1.36-.99,1.5Z"/>
            <g>
              <g>
                <path class="cls-9" d="M34.99,59.32l-14.56,2.96-2.96-14.56,14.56-2.96,2.96,14.56Zm-13.17,.86l11.06-2.25-2.25-11.06-11.06,2.25,2.25,11.06Z"/>
                <polygon class="cls-3" points="26.52 56.91 22.33 54.74 23.37 53.01 25.78 54.26 28.59 49.6 30.38 50.53 26.52 56.91"/>
              </g>
              <g>
                <path class="cls-8" d="M46.61,116.4l-14.56,2.96-2.96-14.56,14.56-2.96,2.96,14.56Zm-13.17,.86l11.06-2.25-2.25-11.06-11.06,2.25,2.25,11.06Z"/>
                <polygon class="cls-7" points="38.14 113.99 33.95 111.81 35 110.09 37.4 111.34 40.21 106.68 42 107.61 38.14 113.99"/>
              </g>
              <g>
                <path class="cls-9" d="M40.68,87.28l-14.56,2.96-2.96-14.56,14.56-2.96,2.96,14.56Zm-13.17,.86l11.06-2.25-2.25-11.06-11.06,2.25,2.25,11.06Z"/>
                <polygon class="cls-7" points="32.21 84.86 28.02 82.69 29.06 80.96 31.47 82.21 34.28 77.55 36.07 78.48 32.21 84.86"/>
              </g>
            </g>
            <path class="cls-4" d="M93.74,105.16c-6.99,1.2-11.68,7.84-10.48,14.83,1.2,6.99,7.84,11.68,14.83,10.48,6.99-1.2,11.68-7.84,10.48-14.83-1.2-6.99-7.84-11.68-14.83-10.48Zm11.38,11.07c.87,5.08-2.54,9.91-7.62,10.79-5.08,.87-9.91-2.54-10.79-7.62-.87-5.08,2.54-9.91,7.62-10.79,5.08-.87,9.91,2.54,10.79,7.62Z"/>
            <path class="cls-4" d="M99.06,133.19c-.16,.03-.32,.06-.48,.09-8.53,1.47-16.66-4.28-18.13-12.81-1.47-8.57,4.17-16.65,12.81-18.13,4.13-.71,8.29,.23,11.72,2.65,3.42,2.42,5.7,6.03,6.41,10.16,1.45,8.41-3.97,16.34-12.33,18.04Zm-6.03-29.54c-7.7,1.57-12.69,8.87-11.35,16.61,1.35,7.85,8.84,13.15,16.7,11.8,7.94-1.38,13.15-8.8,11.8-16.7-.65-3.81-2.75-7.13-5.91-9.36-3.15-2.23-6.99-3.09-10.79-2.44-.15,.03-.3,.05-.44,.08Z"/>
            <polygon class="cls-7" points="95.39 123.5 89.53 119.63 91.33 117.24 94.7 119.46 99.58 113 102.08 114.65 95.39 123.5"/>
          </g>
          <g>
            <polygon class="cls-5" points="148.25 153.36 101.55 145.42 111.1 143.9 93.92 142.14 91.87 142.65 47.96 139.76 63.24 12.86 159.66 22.74 149.07 115.98 148.25 153.36"/>
            <polygon class="cls-2" points="141.78 145.63 110.44 143.83 46.74 137.3 59.96 8.37 156.38 18.26 146.61 113.62 141.78 145.63"/>
            <path class="cls-9" d="M138.53,69.59l-46.9-4.81c-.7-.07-1.21-.7-1.13-1.39h0c.07-.7,.7-1.21,1.39-1.13l46.9,4.81c.7,.07,1.21,.7,1.13,1.39h0c-.07,.7-.7,1.21-1.39,1.13Z"/>
            <path class="cls-9" d="M137.82,76.52l-46.9-4.81c-.7-.07-1.21-.7-1.13-1.39h0c.07-.7,.7-1.21,1.39-1.13l46.9,4.81c.7,.07,1.21,.7,1.13,1.39h0c-.07,.7-.7,1.21-1.39,1.13Z"/>
            <path class="cls-8" d="M117.95,81.48l-27.74-2.84c-.7-.07-1.21-.7-1.13-1.39h0c.07-.7,.7-1.21,1.39-1.13l27.74,2.84c.7,.07,1.21,.7,1.13,1.39h0c-.07,.7-.7,1.21-1.39,1.13Z"/>
            <path class="cls-8" d="M119.83,104.8l-31.97-3.28c-.7-.07-1.21-.7-1.13-1.39h0c.07-.7,.7-1.21,1.39-1.13l31.97,3.28c.7,.07,1.21,.7,1.13,1.39h0c-.07,.7-.7,1.21-1.39,1.13Z"/>
            <path class="cls-9" d="M135.47,99.4l-46.9-4.81c-.7-.07-1.21-.7-1.13-1.39h0c.07-.7,.7-1.21,1.39-1.13l46.9,4.81c.7,.07,1.21,.7,1.13,1.39h0c-.07,.7-.7,1.21-1.39,1.13Z"/>
            <path class="cls-9" d="M140.71,48.34l-46.9-4.81c-.7-.07-1.21-.7-1.13-1.39h0c.07-.7,.7-1.21,1.39-1.13l46.9,4.81c.7,.07,1.21,.7,1.13,1.39h0c-.07,.7-.7,1.21-1.39,1.13Z"/>
            <path class="cls-9" d="M141.42,41.41l-46.9-4.81c-.7-.07-1.21-.7-1.13-1.39h0c.07-.7,.7-1.21,1.39-1.13l46.9,4.81c.7,.07,1.21,.7,1.13,1.39h0c-.07,.7-.7,1.21-1.39,1.13Z"/>
            <g>
              <g>
                <path class="cls-8" d="M84.38,47.52l-14.78-1.52,1.52-14.78,14.78,1.52-1.52,14.78Zm-12.82-3.11l11.23,1.15,1.15-11.23-11.23-1.15-1.15,11.23Z"/>
                <polygon class="cls-7" points="77.02 42.69 73.67 39.36 75.18 38.03 77.1 39.94 81.18 36.33 82.61 37.75 77.02 42.69"/>
              </g>
              <g>
                <path class="cls-8" d="M78.44,105.47l-14.78-1.52,1.52-14.78,14.78,1.52-1.52,14.78Zm-12.82-3.11l11.23,1.15,1.15-11.23-11.23-1.15-1.15,11.23Z"/>
                <polygon class="cls-7" points="71.08 100.64 67.73 97.31 69.24 95.97 71.16 97.88 75.24 94.28 76.67 95.7 71.08 100.64"/>
              </g>
              <g>
                <path class="cls-8" d="M81.47,75.9l-14.78-1.52,1.52-14.78,14.78,1.52-1.52,14.78Zm-12.82-3.11l11.23,1.15,1.15-11.23-11.23-1.15-1.15,11.23Z"/>
                <polygon class="cls-7" points="74.11 71.07 70.76 67.74 72.27 66.4 74.19 68.31 78.27 64.71 79.7 66.13 74.11 71.07"/>
              </g>
            </g>
            <path class="cls-3" d="M126.78,108.8c-7.03-.94-13.49,4-14.42,11.03-.94,7.03,4,13.49,11.03,14.42,7.03,.94,13.49-4,14.42-11.03,.94-7.03-4-13.49-11.03-14.42Zm7.56,13.96c-.68,5.11-5.38,8.71-10.49,8.02-5.11-.68-8.71-5.38-8.02-10.49,.68-5.11,5.38-8.71,10.49-8.02,5.11,.68,8.71,5.38,8.02,10.49Z"/>
            <path class="cls-3" d="M123.49,137.14c-.16-.02-.32-.04-.48-.06-8.58-1.14-14.63-9.05-13.48-17.63,1.15-8.62,8.95-14.65,17.63-13.48,4.16,.55,7.85,2.69,10.39,6.02,2.55,3.33,3.64,7.45,3.09,11.61-1.13,8.46-8.66,14.41-17.15,13.54Zm3.06-29.99c-7.82-.8-14.75,4.68-15.79,12.47-1.05,7.9,4.52,15.19,12.42,16.24,7.98,1.05,15.18-4.47,16.24-12.42,.51-3.83-.5-7.62-2.84-10.69-2.35-3.07-5.74-5.04-9.57-5.55-.15-.02-.3-.04-.45-.05Z"/>
            <polygon class="cls-3" points="122.88 126.79 118.44 121.35 120.88 119.61 123.42 122.73 130.01 118.02 131.91 120.34 122.88 126.79"/>
          </g>
          <g>
            <polygon class="cls-5" points="125.95 130.82 94.67 133.73 47.39 130.94 47.26 132.27 28.38 131.92 30.63 4.13 127.56 4.13 127.44 15.29 124.92 15.03 126.54 97.96 125.95 130.82"/>
            <polygon class="cls-2" points="122.31 128.2 90.95 129.61 26.92 129.61 26.92 0 123.85 0 123.85 95.86 122.31 128.2"/>
            <path class="cls-9" d="M111.32,52.88h-47.14c-.7,0-1.27-.57-1.27-1.27h0c0-.7,.57-1.27,1.27-1.27h47.14c.7,0,1.27,.57,1.27,1.27h0c0,.7-.57,1.27-1.27,1.27Z"/>
            <path class="cls-9" d="M64.18,57.31h47.14c.7,0,1.27,.57,1.27,1.27h0c0,.7-.57,1.27-1.27,1.27h-47.14c-.7,0-1.27-.57-1.27-1.27h0c0-.7,.57-1.27,1.27-1.27"/>
            <path class="cls-9" d="M92.07,66.81h-27.89c-.7,0-1.27-.57-1.27-1.27h0c0-.7,.57-1.27,1.27-1.27h27.89c.7,0,1.27,.57,1.27,1.27h0c0,.7-.57,1.27-1.27,1.27Z"/>
            <path class="cls-9" d="M96.31,89.81h-32.14c-.7,0-1.27-.57-1.27-1.27h0c0-.7,.57-1.27,1.27-1.27h32.14c.7,0,1.27,.57,1.27,1.27h0c0,.7-.57,1.27-1.27,1.27Z"/>
            <path class="cls-9" d="M90.21,80.31h21.11c.7,0,1.27,.57,1.27,1.27h0c0,.7-.57,1.27-1.27,1.27h-47.14c-.7,0-1.27-.57-1.27-1.27h0c0-.7,.57-1.27,1.27-1.27h26.03"/>
            <path class="cls-9" d="M111.32,31.52h-47.14c-.7,0-1.27-.57-1.27-1.27h0c0-.7,.57-1.27,1.27-1.27h47.14c.7,0,1.27,.57,1.27,1.27h0c0,.7-.57,1.27-1.27,1.27Z"/>
            <rect class="cls-9" x="62.91" y="22.01" width="49.68" height="2.54" rx="1.27" ry="1.27"/>
            <g>
              <g>
                <path class="cls-9" d="M55.2,36.45h-14.86v-14.86h14.86v14.86Zm-13.07-1.78h11.29v-11.29h-11.29v11.29Z"/>
                <polygon class="cls-3" points="47.39 32.4 43.72 29.43 45.08 27.95 47.19 29.65 50.88 25.65 52.44 26.91 47.39 32.4"/>
              </g>
              <g>
                <path class="cls-9" d="M55.2,94.7h-14.86v-14.86h14.86v14.86Zm-13.07-1.79h11.29v-11.29h-11.29v11.29Z"/>
                <polygon class="cls-3" points="47.39 90.65 43.72 87.68 45.08 86.2 47.19 87.9 50.88 83.9 52.44 85.16 47.39 90.65"/>
              </g>
              <g>
                <path class="cls-9" d="M55.2,64.98h-14.86v-14.86h14.86v14.86Zm-13.07-1.78h11.29v-11.29h-11.29v11.29Z"/>
                <polygon class="cls-3" points="47.39 60.92 43.72 57.95 45.08 56.47 47.19 58.17 50.88 54.17 52.44 55.44 47.39 60.92"/>
              </g>
            </g>
            <path class="cls-3" d="M103.63,93.09c-7.09-.22-13.01,5.35-13.22,12.44-.22,7.09,5.35,13.01,12.44,13.22,7.09,.22,13.01-5.35,13.22-12.44,.22-7.09-5.35-13.01-12.44-13.22Zm8.95,13.12c-.16,5.16-4.46,9.21-9.62,9.05-5.16-.16-9.21-4.46-9.05-9.62,.16-5.16,4.47-9.21,9.62-9.05,5.16,.16,9.21,4.46,9.05,9.62Z"/>
            <path class="cls-3" d="M103.25,121.62c-.16,0-.32,0-.49,0-8.65-.26-15.47-7.52-15.21-16.17,.27-8.69,7.41-15.48,16.17-15.21,4.19,.13,8.08,1.88,10.95,4.93,2.87,3.05,4.38,7.04,4.26,11.23-.26,8.53-7.15,15.22-15.68,15.22Zm-.02-30.15c-7.86,0-14.2,6.16-14.44,14.01-.24,7.97,6.04,14.65,14.01,14.89,8.05,.23,14.65-6,14.89-14.01,.12-3.86-1.27-7.53-3.92-10.35-2.65-2.81-6.23-4.43-10.09-4.54-.15,0-.3,0-.45,0Z"/>
            <polygon class="cls-3" points="101.59 111.39 96.61 106.43 98.86 104.44 101.72 107.29 107.79 101.93 109.91 104.05 101.59 111.39"/>
          </g>
        </g>
      </g>
    </g>
  </g>
</svg>