<?xml version="1.0" encoding="UTF-8"?>
<svg id="Layer_2" data-name="Layer 2" xmlns="http://www.w3.org/2000/svg" viewBox="0 0 243.59 190.95">
  <defs>
    <style>
      .cls-1 {
        fill: #fff;
      }

      .cls-2 {
        fill: #76c0bf;
      }

      .cls-3, .cls-4, .cls-5 {
        opacity: .6;
      }

      .cls-3, .cls-6 {
        fill: #e28b6d;
      }

      .cls-7, .cls-5 {
        fill: #6f3428;
      }

      .cls-8, .cls-9 {
        fill: #1f3c88;
      }

      .cls-8, .cls-10 {
        opacity: .3;
      }

      .cls-11 {
        fill: #ffb93e;
      }

      .cls-4, .cls-12 {
        fill: #102048;
      }

      .cls-13 {
        fill: #f6f5f5;
      }

      .cls-14 {
        fill: #e4e4e4;
      }

      .cls-15 {
        fill: #708cd5;
      }

      .cls-16 {
        stroke: #003b7e;
        stroke-miterlimit: 10;
        stroke-width: 2px;
      }

      .cls-16, .cls-10 {
        fill: none;
      }

      .cls-17 {
        fill: #2c3a64;
      }

      .cls-18 {
        fill: #ee6f57;
      }

      .cls-19 {
        fill: #ed7d2b;
      }

      .cls-20 {
        fill: #fbc343;
      }

      .cls-21 {
        fill: #d3dfff;
      }

      .cls-22 {
        fill: #2b478b;
      }

      .cls-23 {
        fill: #f9b384;
      }
    </style>
  </defs>
  <g id="Layer_1-2" data-name="Layer 1">
    <g>
      <g>
        <rect class="cls-2" x="116.97" y="17" width="126.63" height="173.7" rx="9.13" ry="9.13"/>
        <g>
          <g>
            <rect class="cls-13" x="128.41" y="24.01" width="104.23" height="151.4"/>
            <path class="cls-14" d="M232.64,24.01c.03,59.04,1.94,130.24-4.69,146-29.21,2.85-63.41,3.76-99.53,3.93l13.73-149.48,90.5-.46Z"/>
            <path class="cls-1" d="M223.27,165.24c-45.53,7.29-75.96,7.67-100.63,5.84,3.2-34.04,4.48-90.6,5.77-147.07l54.86,.12,49.65,3.28c.72,58.61,.8,112.74-9.65,137.83Z"/>
          </g>
          <g>
            <rect class="cls-22" x="152.25" y="38.61" width="54.84" height="8.35" transform="translate(1.06 -4.22) rotate(1.35)"/>
            <g>
              <g>
                <g>
                  <rect class="cls-22" x="168.25" y="59.11" width="49.47" height="3.82" transform="translate(1.49 -4.52) rotate(1.35)"/>
                  <rect class="cls-21" x="168.06" y="67.26" width="33.62" height="3.82" transform="translate(1.68 -4.33) rotate(1.35)"/>
                </g>
                <g>
                  <rect class="cls-16" x="140.87" y="58.25" width="11.71" height="11.71" transform="translate(1.55 -3.43) rotate(1.35)"/>
                  <path class="cls-18" d="M142.92,61.19c.36,1.38,1.03,7.18,3.93,5.56,.67-.37,1.24-1.36,1.74-1.93l2.7-3.07c1.8-2.04,3.6-4.09,5.4-6.13,.46-.52-1.58-1.84-2.16-1.18-1.6,1.82-3.2,3.63-4.8,5.45-.8,.91-1.6,1.82-2.4,2.73-.56,.63-1.84,2.66-2.66,2.84,.45,.14,.9,.29,1.34,.43,.32,.26-.27-1.58-.28-1.63-.22-.85-.45-1.71-.67-2.56-.18-.71-2.41-1.56-2.14-.51h0Z"/>
                </g>
              </g>
              <g>
                <g>
                  <rect class="cls-22" x="167.75" y="80.3" width="40.74" height="3.82" transform="translate(1.99 -4.4) rotate(1.35)"/>
                  <rect class="cls-21" x="167.55" y="88.73" width="49.47" height="3.82" transform="translate(2.19 -4.5) rotate(1.35)"/>
                </g>
                <g>
                  <rect class="cls-16" x="140.37" y="79.54" width="11.71" height="11.71" transform="translate(2.05 -3.42) rotate(1.35)"/>
                  <path class="cls-18" d="M142.41,82.81c.36,1.38,1.03,7.18,3.93,5.56,.67-.37,1.24-1.36,1.74-1.93,.9-1.02,1.8-2.04,2.7-3.07l5.4-6.13c.46-.52-1.58-1.84-2.16-1.18-1.6,1.82-3.2,3.63-4.8,5.45-.8,.91-1.6,1.82-2.4,2.73-.56,.63-1.84,2.66-2.66,2.84,.45,.14,.9,.29,1.34,.43,.32,.26-.27-1.58-.28-1.63-.22-.85-.45-1.71-.67-2.56-.18-.71-2.41-1.56-2.14-.51h0Z"/>
                </g>
              </g>
              <g>
                <g>
                  <rect class="cls-22" x="167.25" y="101.68" width="49.47" height="3.82" transform="translate(2.49 -4.49) rotate(1.35)"/>
                  <rect class="cls-21" x="167.06" y="109.7" width="22.12" height="3.82" transform="translate(2.68 -4.16) rotate(1.35)"/>
                </g>
                <g>
                  <rect class="cls-16" x="139.87" y="100.82" width="11.71" height="11.71" transform="translate(2.55 -3.4) rotate(1.35)"/>
                  <path class="cls-18" d="M142.07,104.25c.36,1.38,1.03,7.18,3.93,5.56,.67-.37,1.24-1.36,1.74-1.93,.9-1.02,1.8-2.04,2.7-3.07,1.8-2.04,3.6-4.09,5.4-6.13,.46-.52-1.58-1.84-2.16-1.18-1.6,1.82-3.2,3.63-4.8,5.45-.8,.91-1.6,1.82-2.4,2.73-.56,.63-1.84,2.66-2.66,2.84,.45,.14,.9,.29,1.34,.43,.32,.26-.27-1.58-.28-1.63-.22-.85-.45-1.71-.67-2.56-.18-.71-2.41-1.56-2.14-.51h0Z"/>
                </g>
              </g>
              <g>
                <g>
                  <rect class="cls-22" x="166.75" y="122.97" width="49.47" height="3.82" transform="translate(2.99 -4.47) rotate(1.35)"/>
                  <rect class="cls-21" x="166.55" y="131.18" width="39.08" height="3.82" transform="translate(3.18 -4.34) rotate(1.35)"/>
                </g>
                <g>
                  <rect class="cls-16" x="139.37" y="122.11" width="11.71" height="11.71" transform="translate(3.05 -3.38) rotate(1.35)"/>
                  <path class="cls-18" d="M141.57,125.39c.36,1.38,1.03,7.18,3.93,5.56,.67-.37,1.24-1.36,1.74-1.93l2.7-3.07c1.8-2.04,3.6-4.09,5.4-6.13,.46-.52-1.58-1.84-2.16-1.18-1.6,1.82-3.2,3.63-4.8,5.45-.8,.91-1.6,1.82-2.4,2.73-.56,.63-1.84,2.66-2.66,2.84,.45,.14,.9,.29,1.34,.43,.32,.26-.27-1.58-.28-1.63-.22-.85-.45-1.71-.67-2.56-.18-.71-2.41-1.56-2.14-.51h0Z"/>
                </g>
              </g>
              <g>
                <g>
                  <rect class="cls-22" x="166.25" y="143.74" width="19.61" height="3.82" transform="translate(3.48 -4.1) rotate(1.35)"/>
                  <path class="cls-21" d="M215.56,153.01l-49.46-1.16-.09,3.82c19.13,.45,43.5,1.35,48.47,.58,.75-.86,1.16-1.91,1.08-3.24Z"/>
                </g>
                <g>
                  <rect class="cls-16" x="139.03" y="143.23" width="11.71" height="11.71" transform="translate(3.55 -3.37) rotate(1.35)"/>
                  <path class="cls-18" d="M141.08,146.35c.36,1.38,1.03,7.18,3.93,5.56,.67-.37,1.24-1.36,1.74-1.93l2.7-3.07c1.8-2.04,3.6-4.09,5.4-6.13,.46-.52-1.58-1.84-2.16-1.18-1.6,1.82-3.2,3.63-4.8,5.45-.8,.91-1.6,1.82-2.4,2.73-.56,.63-1.84,2.66-2.66,2.84,.45,.14,.9,.29,1.34,.43,.32,.26-.27-1.58-.28-1.63-.22-.85-.45-1.71-.67-2.56-.18-.71-2.41-1.56-2.14-.51h0Z"/>
                </g>
              </g>
            </g>
          </g>
        </g>
        <g>
          <path class="cls-19" d="M203.75,18.06v11.69h-46.95v-11.69c0-1.86,.76-3.55,1.98-4.77,.15-.15,.31-.29,.48-.43,1.17-.97,2.66-1.55,4.3-1.55,1.22,0,2.4-.28,3.45-.79,.46-.22,.89-.48,1.3-.78,1.34-.99,2.37-2.4,2.88-4.09,.52-1.72,1.59-3.15,2.97-4.15,1.33-.95,2.94-1.5,4.66-1.5h2.93c1.72,0,3.33,.55,4.66,1.5,1.38,1,2.45,2.43,2.97,4.15,.51,1.68,1.54,3.09,2.88,4.09,.41,.3,.84,.56,1.3,.78,1.05,.51,2.23,.79,3.45,.79,1.63,0,3.13,.58,4.3,1.55,1.5,1.23,2.45,3.11,2.45,5.2Z"/>
          <polygon class="cls-14" points="207.56 24.01 207.56 32.69 153 32.69 153 24.01 156.81 24.01 156.81 29.74 203.75 29.74 203.75 24.01 207.56 24.01"/>
          <ellipse class="cls-1" cx="180.28" cy="7" rx="4.16" ry="3.96"/>
        </g>
      </g>
      <g>
        <g>
          <path class="cls-23" d="M90.31,61.71c-1.67-.32-3.22-3.1-3.76-4.16-.13-.26-.17-.56-.12-.85l.66-3.51s1.53,.26,1.41,2.3c-.01,.21,.03,.42,.11,.62l.59,1.53,1.73-1.34-.95-2.68s-1.27,.35-1.93,.14c-1.35-.43,.42-1.48,.98-1.59s1.79-.56,2.34,.39c.56,.95,.89,1.51,.89,1.51,0,0,.61-2.12,.2-6.87-.02-.21,.52-.21,.67-.06,.45,.46,1.17,1.85,1.2,6.09,0,0,.07-4.94,.92-5.44,.7-.42,1.05,2,.56,6.09,0,0,.91-3.55,1.56-3.55,1.1-.01,.01,9.47-2.75,12.3l-4.31-.91Z"/>
          <path class="cls-23" d="M95.53,60.26c-.05,.47-.1,.93-.16,1.37h0c-.2,1.58-.44,2.98-.73,4.19-.01,.06-.02,.11-.04,.17-.84,3.45-.99,5.13-3.86,4.68l-2.95-3.36-.03-.03-.22-.25,.6-1.77,.08-.23,.44-1.29,.05-.17,.76-2.22,.3-.9,5.76-.19Z"/>
        </g>
        <g>
          <path class="cls-17" d="M40.64,182.7l-.75,2.35c-5.16,1.69-8.16,3.64-8.36,5.9h14.91l1.2-7.87c-3.02,.74-5.44,.22-7-.38Z"/>
          <path class="cls-23" d="M42.51,176.86l-1.87,5.84c1.56,.6,3.98,1.12,7,.38l.77-5.08-5.9-1.15Z"/>
          <path class="cls-23" d="M68,182.44l.44-5.95-7.01,.37-.38,5.49c2.97,.95,5.42,.58,6.95,.1Z"/>
          <path class="cls-17" d="M76.43,190.95c-.19-2.26-2.83-5.37-8.6-6.1l.18-2.41c-1.53,.48-3.98,.85-6.95-.1l-.6,8.61h15.98Z"/>
        </g>
        <polygon class="cls-23" points="62.32 63.24 53.87 63.3 53.87 50.52 62.07 50.52 62.07 51.3 62.11 55.35 62.17 61.85 62.32 63.24"/>
        <path class="cls-6" d="M62.11,55.96c-1.52,1.6-5.48-.21-7.15-1.97l7.11-2.08,.04,4.05Z"/>
        <path class="cls-23" d="M64.07,47.57c0,.94-.06,1.93-.22,2.88-.41,2.58-1.5,4.8-4.02,4.87-5.95,.17-7.64-3.23-8.77-6.01-1.12-2.79,.7-9.49,.7-9.49l7.7-.76,4.23,3.47s.41,2.35,.38,5.05Z"/>
        <path class="cls-12" d="M51.31,47.71s1.7-.08,1.99-4.46c3.03,1.02,5.25,.09,7.01-1.93,1.5,1.98,5.7,2.6,7.11-1.45,1.02-2.93-1.8-7.29-5.92-4.65-4.03-2.04-10.16-1.9-11.92,3.1,0,0-6.12,2.82,.36,9.04,.13,.12,1.37,.35,1.37,.35Z"/>
        <polygon class="cls-17" points="74.71 109.18 70.04 179.81 59.06 179.81 61.8 111.27 63.48 110.49 74.71 109.18"/>
        <polygon class="cls-17" points="46.11 99.51 38.41 179.81 50.37 179.81 61.76 113.12 74.71 109.18 75.28 94.93 46.44 94.27 46.11 99.51"/>
        <path class="cls-4" d="M47.83,99.69c6.53,2.35,21.86-.34,25.05-3.6l-2.26-4.52-25.21,3.35,2.43,4.77Z"/>
        <path class="cls-1" d="M72.29,95c-.21,.09-.43,.18-.65,.27-2.44,.99-5.23,1.86-8.19,2.44-1.77,.35-3.61,.59-5.49,.67-2.83,.14-5.74-.04-8.62-.7l3.66-34.15,.45-4.16s4.79,5.9,10.08-.61l8.77,36.25Z"/>
        <path class="cls-8" d="M57.96,98.38c-2.83,.14-5.74-.04-8.62-.7l3.66-34.15,1.31-1.89c3.23,7.86,6.54,25.25,3.65,36.74Z"/>
        <path class="cls-15" d="M53.88,58.01c3.64,15.46,5.14,31.37-.23,49.04-3.98,1.51-8.31,1.5-12.95,.16l1.15-32.12-27,18.56-1.64-10.12c10.38-9.92,28.32-24.91,40.66-25.52Z"/>
        <path class="cls-8" d="M71.64,95.26c-2.44,.99-5.23,1.86-8.19,2.44-1.63-9.33-1.99-24.66-.66-31.58l8.85,29.14Z"/>
        <path class="cls-3" d="M94.64,65.82c-.01,.06-.02,.11-.04,.17-.84,3.45-.99,5.13-3.86,4.68l-2.95-3.36-.03-.03,.38-2.02,.08-.23,.44-1.29,.05-.17,5.93,2.25Z"/>
        <path class="cls-15" d="M94.13,68.95s-7.25,15.36-11.55,15.73c-4.17,.36-6.15-3.69-6.15-3.69l2.95,22.45c-3.47,1.62-7.25,2.41-11.64,1.64-3.9-12.66-5.37-29.03-5.66-47.26,3.16,.2,9.41,.47,11.64,1.9,4.01,2.58,8.97,11.8,8.97,11.8l5.78-7.87,5.65,5.28Z"/>
        <g>
          <path class="cls-7" d="M5.73,47.31s.44-7.35,1.19-7c.75,.35,2.25,6.74,2.25,6.74l-1.6,2.59-1.83-2.32Z"/>
          <path class="cls-19" d="M27.8,180.01l.22,2.42c.38,4.27-2.77,8.04-7.04,8.43l-.62,.06c-4.27,.38-8.04-2.77-8.43-7.04l-.22-2.42,16.08-1.45Z"/>
          <rect class="cls-11" x="6.42" y="63.38" width="16.15" height="117.59" transform="translate(-10.87 1.79) rotate(-5.13)"/>
          <rect class="cls-10" x="10.76" y="61.06" width="5.74" height="103.07" transform="translate(-10.02 1.67) rotate(-5.13)"/>
          <polygon class="cls-12" points="27.79 180.02 11.71 181.46 11.29 176.74 11 173.46 10.09 163.38 26.17 161.94 27.08 172.02 27.37 175.3 27.79 180.02"/>
          <rect class="cls-20" x="11.11" y="172.73" width="16.15" height="3.29" transform="translate(-15.53 2.42) rotate(-5.14)"/>
          <path class="cls-19" d="M1.19,64.34l4.47-17.91s1.54,.68,3.41-.47l8.21,16.93-16.09,1.45Z"/>
        </g>
        <path class="cls-23" d="M52.2,46.97c-.07-.26-1.27-.63-1.54-.7-.41-.11-.85-.17-1.25,.01-1.45,.66-1.26,2.73-.51,3.83,.43,.62,1.05,1.1,1.78,1.3,.26,.08,2.76,.11,2.65-.3,0,0-1.13-4.14-1.13-4.15Z"/>
        <path class="cls-23" d="M6.5,88.74c-.38-1.18-1.62-1.85-2.79-1.44-1.83,.63-3.42,1.7-3.67,3.53-.22,1.66,.61,6.96,4.32,7.65l-.3-2.73s2.27-.53,2.73-1.51c.32-.69,.34-3.57-.27-5.49Z"/>
        <path class="cls-9" d="M75.29,70.5c.2,1.16,.36,2.32,.52,3.49,.16,1.16,.3,2.33,.45,3.5l.38,3.51c.11,1.17,.22,2.34,.29,3.52l-.19,.02c-.2-1.16-.37-2.32-.53-3.49l-.44-3.5c-.12-1.17-.27-2.34-.37-3.51-.11-1.17-.22-2.34-.3-3.52l.19-.02Z"/>
        <path class="cls-9" d="M42.23,70.31c0,1.3-.03,2.61-.07,3.91-.03,1.3-.1,2.6-.15,3.9l-.21,3.9c-.09,1.3-.18,2.6-.3,3.9h-.19c0-1.31,.03-2.61,.07-3.92l.16-3.9c.07-1.3,.13-2.6,.22-3.9,.08-1.3,.18-2.6,.3-3.9h.19Z"/>
        <path class="cls-1" d="M58.17,51.42c.86,1.34,2,1.49,2.89,.08l-2.89-.08Z"/>
        <path class="cls-6" d="M51.16,48.55c-.31-.21-.6-.45-.89-.58-.14-.07-.27-.11-.39-.1-.12,0-.26,.08-.41,.19l-.16-.1c.07-.2,.21-.42,.47-.5,.26-.09,.52-.02,.71,.08,.39,.21,.66,.53,.82,.91l-.15,.12Z"/>
        <path class="cls-5" d="M6.77,94.23l-2.28,6.93-.47-5.42c1.42-.31,2.19-.88,2.75-1.51Z"/>
      </g>
    </g>
  </g>
</svg>