<?xml version="1.0" encoding="UTF-8"?>
<svg id="Layer_2" data-name="Layer 2" xmlns="http://www.w3.org/2000/svg" viewBox="0 0 96.99 96.99">
  <defs>
    <style>
      .cls-1 {
        fill: #003b7e;
      }

      .cls-2 {
        fill: #ffe500;
      }
    </style>
  </defs>
  <g id="Layer_1-2" data-name="Layer 1">
    <g>
      <circle class="cls-2" cx="48.49" cy="48.49" r="48.49"/>
      <g>
        <path class="cls-1" d="M79.52,60.54h-.46v-9.21c0-4.88-.87-9.67-2.58-14.23l-2.2-5.88c-.62-1.66-2.23-2.77-4-2.77h-4.62v-1.38c0-5.73-4.66-10.39-10.39-10.39-.44,0-.8,.36-.8,.8v5.68c0,.44,.36,.8,.8,.8,1.72,0,3.12,1.4,3.12,3.12v1.38h-2.23c-.44,0-.8,.36-.8,.8v1.48c-.97-.36-2-.56-3.04-.56-2.5,0-4.88,1.1-6.52,2.97-1.78-1.07-3.99-1.34-5.99-.7-1.39-1.45-3.3-2.27-5.32-2.27-2.73,0-5.2,1.5-6.48,3.87-.43-.08-.87-.12-1.29-.12-3.8,0-6.93,2.88-7.33,6.58h-.46c-.44,0-.8,.36-.8,.8v19.27h-.67c-.44,0-.8,.36-.8,.8v8.78c0,.44,.36,.8,.8,.8h3.25c-.13,.55-.2,1.12-.2,1.71,0,4.24,3.45,7.69,7.7,7.69s7.7-3.45,7.7-7.7c0-.59-.07-1.16-.2-1.71h25.54c-.13,.55-.2,1.12-.2,1.71,0,4.24,3.45,7.7,7.7,7.7s7.7-3.45,7.7-7.7c0-.59-.07-1.16-.2-1.71h3.28c.44,0,.8-.36,.8-.8v-8.78c0-.44-.36-.8-.8-.8h0Zm-2.66-16.05h-15.01v-9.07h12.3l.83,2.23c.84,2.23,1.46,4.52,1.87,6.84h0Zm-20.8-22.07v-4.12c4.48,.4,8,4.18,8,8.76v1.38h-4.09v-1.38c0-2.33-1.69-4.26-3.91-4.64h0Zm14.22,7.61c1.11,0,2.12,.7,2.51,1.74l.77,2.06h-12.5c-.44,0-.8,.36-.8,.8v10.66c0,.44,.36,.8,.8,.8h16.05c.23,1.73,.35,3.48,.35,5.24v9.21h-20.51V30.03h13.33Zm-43.56,5.46c.5,0,1.01,.07,1.52,.21,.39,.1,.78-.09,.94-.45,.91-2.13,3-3.5,5.31-3.5,1.74,0,3.36,.77,4.47,2.11,.22,.27,.59,.36,.91,.23,1.87-.75,4.01-.46,5.62,.74,.17,.13,.38,.18,.6,.15,.21-.03,.4-.15,.52-.32,1.33-1.83,3.47-2.92,5.71-2.92,1.06,0,2.09,.25,3.04,.7v8.03H21.01c.39-2.81,2.8-4.99,5.72-4.99h0Zm-6.99,6.58H55.37v18.47H19.73v-18.47Zm8.48,36.66c-3.37,0-6.1-2.74-6.1-6.1s2.74-6.1,6.1-6.1,6.1,2.74,6.1,6.1-2.74,6.1-6.1,6.1Zm40.53,0c-3.37,0-6.1-2.74-6.1-6.1s2.74-6.1,6.1-6.1,6.1,2.74,6.1,6.1-2.74,6.1-6.1,6.1h0Zm9.98-9.41h-3.04c-1.24-2.59-3.88-4.39-6.94-4.39s-5.7,1.8-6.94,4.39h-26.65c-1.24-2.59-3.88-4.39-6.94-4.39s-5.7,1.8-6.94,4.39h-3.01v-7.19h60.46v7.19Z"/>
        <path class="cls-1" d="M30.05,45.41h-5.56c-.44,0-.8,.36-.8,.8v10.19c0,.44,.36,.8,.8,.8h5.56c.44,0,.8-.36,.8-.8v-10.19c0-.44-.36-.8-.8-.8h0Zm-.8,10.19h-3.96v-8.59h3.96v8.59Z"/>
        <path class="cls-1" d="M40.11,45.41h-5.56c-.44,0-.8,.36-.8,.8v10.19c0,.44,.36,.8,.8,.8h5.56c.44,0,.8-.36,.8-.8v-10.19c0-.44-.36-.8-.8-.8Zm-.8,10.19h-3.96v-8.59s3.96,0,3.96,0v8.59Z"/>
        <path class="cls-1" d="M50.16,45.41h-5.56c-.44,0-.8,.36-.8,.8v10.19c0,.44,.36,.8,.8,.8h5.56c.44,0,.8-.36,.8-.8v-10.19c0-.44-.36-.8-.8-.8Zm-.8,10.19h-3.96v-8.59h3.96v8.59Z"/>
      </g>
    </g>
  </g>
</svg>