<?xml version="1.0" encoding="UTF-8"?>
<svg id="Layer_2" data-name="Layer 2" xmlns="http://www.w3.org/2000/svg" viewBox="0 0 215.14 170.46">
  <defs>
    <style>
      .cls-1 {
        fill: #ddd;
      }

      .cls-2 {
        fill: #50cbcf;
      }

      .cls-3, .cls-4, .cls-5 {
        fill: #fff;
      }

      .cls-6 {
        fill: #bfbfbf;
      }

      .cls-7 {
        fill: #90dcdf;
      }

      .cls-4, .cls-8 {
        opacity: .4;
      }

      .cls-9 {
        fill: #2c9db2;
      }

      .cls-10 {
        fill: #ffb93e;
      }

      .cls-11 {
        fill: #cfecef;
      }

      .cls-12 {
        fill: #2c3a64;
      }

      .cls-5 {
        opacity: .2;
      }

      .cls-13 {
        opacity: .1;
      }

      .cls-13, .cls-14 {
        fill: #086e95;
      }

      .cls-15 {
        fill: none;
      }

      .cls-8 {
        fill: #085770;
      }

      .cls-16 {
        fill: #ffcb62;
      }

      .cls-17 {
        fill: #e7f5f7;
      }

      .cls-18 {
        fill: #f2f2f2;
      }

      .cls-19 {
        fill: #2b478b;
      }
    </style>
  </defs>
  <g id="Layer_1-2" data-name="Layer 1">
    <g>
      <g>
        <path class="cls-6" d="M56.34,92.89l-2.07-7.59L59.79,13.17h-3.74v-4.59h2.65v4.59h.97V7.6H27.56v5.56h.97v-4.59h2.65v4.59h-3.85s-7.81,38.71,.48,77.39h-.06s4.67,71.01,4.67,71.01h26.92c7.94-25.19-3.03-68.68-3.03-68.68Zm-1.27-79.72h-3.8v-4.59h3.8v4.59Zm-13.35-4.59h3.8v4.59h-3.8v-4.59Zm-.97,4.59h-3.8v-4.59h3.8v4.59Zm5.75-4.59h3.8v4.59h-3.8v-4.59Zm-14.33,4.59v-4.59h3.8v4.59h-3.8Z"/>
        <path class="cls-6" d="M59.79,13.17s-1.38,4.49,2.42,24.16c11.31,58.6-25.19,104.57-29.68,124.25h-7.94s-8.26-28.59-.35-62.47c5.29-22.64,11.04-40.03,35.55-85.94Z"/>
        <path class="cls-15" d="M59.79,13.17s-.92,4.37,2.42,24.16c9.92,58.85-25.19,104.57-29.68,124.25h-7.94s-8.26-28.59-.35-62.47c5.29-22.64,11.04-40.03,35.55-85.94Z"/>
        <g>
          <path class="cls-18" d="M57.76,16.99l2.75,8.96c-.29-2.37-.49-4.33-.62-5.94l-1.37-4.47c-.26,.48-.51,.96-.76,1.44Z"/>
          <path class="cls-18" d="M54.56,23.08l6.99,10.2c-.14-.91-.27-1.78-.4-2.61l-5.99-8.74c-.2,.39-.4,.77-.6,1.16Z"/>
          <path class="cls-18" d="M51.3,29.39l11.24,10.06c-.09-.6-.18-1.2-.28-1.8l-10.41-9.32c-.18,.35-.36,.71-.54,1.06Z"/>
          <path class="cls-18" d="M48.06,35.79l15.21,9.41c-.05-.48-.1-.97-.16-1.45l-14.53-9c-.17,.35-.35,.69-.52,1.03Z"/>
          <path class="cls-18" d="M44.89,42.25l18.84,8.58c-.03-.43-.05-.87-.08-1.3l-18.26-8.31c-.17,.35-.34,.69-.5,1.04Z"/>
          <path class="cls-18" d="M41.82,48.72l22.12,7.68c0-.41-.01-.82-.03-1.23l-21.61-7.5c-.16,.35-.33,.7-.49,1.05Z"/>
          <path class="cls-18" d="M38.88,55.21l25.03,6.76c.01-.39,.02-.79,.03-1.18l-24.59-6.64c-.16,.36-.32,.71-.47,1.06Z"/>
          <path class="cls-18" d="M36.09,61.7l27.55,5.85c.03-.39,.05-.77,.08-1.16l-27.17-5.77c-.15,.36-.3,.72-.45,1.08Z"/>
          <path class="cls-18" d="M33.5,68.19l29.63,4.97c.04-.38,.08-.76,.12-1.15l-29.33-4.92c-.14,.37-.28,.73-.42,1.1Z"/>
          <path class="cls-18" d="M31.14,74.68l31.24,4.13c.06-.38,.11-.76,.17-1.14l-31.03-4.1c-.13,.37-.26,.74-.39,1.11Z"/>
          <path class="cls-18" d="M29.02,81.14l32.38,3.34c.07-.38,.14-.76,.21-1.13l-32.25-3.33c-.12,.37-.23,.75-.35,1.12Z"/>
          <path class="cls-18" d="M27.14,87.59l33.04,2.61c.09-.38,.17-.75,.26-1.13l-32.99-2.6c-.11,.38-.21,.75-.31,1.13Z"/>
          <path class="cls-18" d="M25.4,94.27l33.1,2.54c.1-.38,.21-.75,.31-1.13l-33.12-2.54c-.09,.38-.19,.75-.28,1.13Z"/>
          <path class="cls-18" d="M23.82,100.96l32.71,2.43c.12-.37,.24-.75,.36-1.13l-32.82-2.44c-.09,.38-.17,.76-.25,1.13Z"/>
          <path class="cls-18" d="M22.54,107.69l31.77,2.27c.13-.37,.27-.75,.4-1.12l-31.98-2.28c-.07,.38-.13,.76-.19,1.14Z"/>
          <path class="cls-3" d="M21.63,114.45l30.22,2.06c.15-.37,.29-.75,.44-1.12l-30.53-2.08c-.05,.38-.09,.76-.13,1.14Z"/>
          <path class="cls-3" d="M21.06,121.24l28.11,1.8c.16-.37,.32-.75,.47-1.12l-28.52-1.83c-.03,.38-.05,.77-.07,1.15Z"/>
          <path class="cls-3" d="M20.82,128.06l25.49,1.51c.17-.37,.34-.75,.5-1.12l-25.98-1.54c0,.39-.01,.77-.02,1.15Z"/>
          <path class="cls-3" d="M20.91,134.9l22.39,1.19c.17-.37,.35-.75,.53-1.12l-22.96-1.22c.01,.39,.02,.77,.04,1.15Z"/>
          <path class="cls-3" d="M21.33,141.76l18.89,.85c.18-.37,.35-.75,.53-1.13l-19.52-.88c.03,.39,.06,.77,.09,1.16Z"/>
          <path class="cls-3" d="M22.09,148.63l15.1,.53c.17-.37,.34-.75,.52-1.13l-15.76-.55c.05,.39,.1,.78,.15,1.16Z"/>
          <path class="cls-3" d="M23.2,155.49l11.19,.23c.14-.37,.29-.75,.45-1.14l-11.85-.25c.07,.4,.14,.79,.22,1.16Z"/>
          <path class="cls-3" d="M24.58,161.57h7.94c.03-.13,.06-.27,.1-.4h-8.14c.07,.27,.11,.4,.11,.4Z"/>
        </g>
      </g>
      <path class="cls-6" d="M129.25,40.16l.17-.17-.2-.2-.92-12h19.63l-.72-.69q-.08-.08-1-.35c-.5-.15-1.22-.36-2.16-.64-1.58-.46-3.77-1.1-6.52-1.9-.69-.2-1.38-.4-2.06-.6h0s-.05-.01-.05-.01c-3.9-1.13-7.32-2.13-7.36-2.14l-.05-.02h-.19l-.66-8.61h13.6l-.68-.68q-.08-.08-.76-.29c-.35-.11-.87-.27-1.54-.48-1.12-.35-2.68-.82-4.64-1.42-2.67-.82-5.36-1.64-6.35-1.94l-.62-8.02h-8.07l-.59,7.99-15.68,4.84h15.32l-.32,4.26-.12,.12,.11,.11-.31,4.13h-.37l-7.33,2.15h-.14v.04l-14.13,4.16h21.49l-.89,11.99-.2,.2,.18,.18-1.06,14.25,.8,.06v-.13s.01,0,.01,0l7.26-7.16,7.43,7.43h0s.8-.06,.8-.06l-1.11-14.39Zm-6.51-6.84l4.81-4.81,.8,10.42-5.61-5.61Zm5.54,6.67l-6.15,6.07-6.06-6.06,6.11-6.11,6.11,6.11Zm-15.05-29.84l2.44-.75-2.44,1.75v-1Zm11.99-1.46l-3.18,3.18-3.18-3.18h6.35Zm-6.35-.8l3.26-3.26,3.26,3.26h-6.51Zm7.18,1.11l.23,3.04h-3.27l3.04-3.04Zm-3.36-4.93l2.77-2.77,.46,5.99-3.23-3.23Zm-.57-.57l-2.7-2.7h5.4l-2.7,2.7Zm-.57,.57l-3.21,3.21,.44-5.97,2.76,2.76Zm-.48,7.97h-3.08l.21-2.87,2.87,2.87Zm9.16,10.9c1.33,.38,2.85,.83,4.43,1.29v1.74l-4.43-3.03Zm4.53,4.07h-6.53l-.36-4.71,6.89,4.71Zm-7.35-.2l-4.55-4.55h4.2l.35,4.55Zm-.93,.2h-8.88l4.44-4.44,4.44,4.44Zm-9.56-.45l.32-4.3h3.98l-4.3,4.3Zm10.2,1.25l-4.95,4.95-4.95-4.95h9.91Zm17.07-.8h-8.73v-2.55c3.21,.93,6.52,1.9,8.73,2.55Zm-21.04-5.55l3.57-3.57,.27,3.57h-3.85Zm-1.11-.02l-4.21-4.21,4.21-4.21,4.21,4.21-4.21,4.21Zm4.58-4.98l-3.61-3.61h3.33l.28,3.61Zm.25-7.23l3.93,2.82h-3.71l-.22-2.82Zm1.61,.17c.77,.23,1.6,.49,2.46,.75v1.01l-2.46-1.77Zm8.68,2.65h-5.42v-1.66c1.94,.59,3.92,1.2,5.42,1.66Zm-24.72-1.64v1.64h-5.31l5.31-1.64Zm.94,1.64l4.04-2.9-.22,2.9h-3.83Zm4.57,.8h3.14l-3.39,3.39,.25-3.39Zm-.39,5.23l3.38,3.38h-3.63l.25-3.38Zm-1.47,8.93h-6.72l6.95-4.75h.12l-.35,4.75Zm-6.62-2.76l4.4-1.3-4.4,3.01v-1.72Zm-.8,.24v2.52h-8.57l8.57-2.52Zm8.11,4.01l4.83,4.83-5.6,5.6,.77-10.43Zm-1.83,24.65l.91-12.22,5.7,5.7-6.61,6.52Zm13.55-12.24l.96,12.49-6.77-6.77,5.81-5.73Z"/>
      <path class="cls-6" d="M94.49,52.1l.09-.09-.11-.11-.51-6.67h10.91l-.4-.38s-.05-.04-.55-.19c-.28-.08-.68-.2-1.2-.35-.88-.26-2.1-.61-3.62-1.06-.38-.11-.77-.22-1.14-.33h0s-.03,0-.03,0c-2.17-.63-4.07-1.18-4.09-1.19h-.03s-.11,0-.11,0l-.37-4.79h7.55l-.38-.38s-.04-.04-.42-.16c-.2-.06-.48-.15-.85-.26-.62-.19-1.49-.46-2.58-.79-1.48-.45-2.98-.91-3.53-1.08l-.34-4.46h-4.48l-.33,4.44-8.71,2.69h8.51l-.18,2.36-.07,.07,.06,.06-.17,2.29h-.2l-4.07,1.2h-.08v.02l-7.85,2.31h11.94l-.49,6.66-.11,.11,.1,.1-.59,7.92,.44,.03v-.07s0,0,0,0l4.04-3.98,4.13,4.13h0s.44-.04,.44-.04l-.61-7.99Zm-3.62-3.8l2.67-2.67,.45,5.79-3.12-3.12Zm3.08,3.71l-3.42,3.37-3.37-3.37,3.39-3.39,3.39,3.39Zm-8.36-16.58l1.35-.42-1.35,.97v-.55Zm6.66-.81l-1.76,1.76-1.76-1.76h3.53Zm-3.53-.44l1.81-1.81,1.81,1.81h-3.62Zm3.99,.61l.13,1.69h-1.82l1.69-1.69Zm-1.87-2.74l1.54-1.54,.26,3.33-1.79-1.79Zm-.31-.31l-1.5-1.5h3l-1.5,1.5Zm-.31,.31l-1.78,1.78,.25-3.32,1.54,1.54Zm-.27,4.43h-1.71l.12-1.59,1.59,1.59Zm5.09,6.05c.74,.21,1.58,.46,2.46,.72v.97l-2.46-1.68Zm2.52,2.26h-3.63l-.2-2.62,3.83,2.62Zm-4.08-.11l-2.53-2.53h2.33l.19,2.53Zm-.52,.11h-4.93l2.47-2.47,2.47,2.47Zm-5.31-.25l.18-2.39h2.21l-2.39,2.39Zm5.67,.69l-2.75,2.75-2.75-2.75h5.5Zm9.48-.44h-4.85v-1.42c1.78,.52,3.62,1.05,4.85,1.42Zm-11.69-3.08l1.99-1.99,.15,1.99h-2.14Zm-.62-.01l-2.34-2.34,2.34-2.34,2.34,2.34-2.34,2.34Zm2.54-2.77l-2.01-2.01h1.85l.15,2.01Zm.14-4.02l2.18,1.57h-2.06l-.12-1.57Zm.89,.09c.43,.13,.89,.27,1.37,.42v.56l-1.37-.98Zm4.82,1.47h-3.01v-.92c1.08,.33,2.18,.67,3.01,.92Zm-13.73-.91v.91h-2.95l2.95-.91Zm.52,.91l2.25-1.61-.12,1.61h-2.13Zm2.54,.44h1.74l-1.88,1.88,.14-1.88Zm-.22,2.91l1.88,1.88h-2.02l.14-1.88Zm-.81,4.96h-3.73l3.86-2.64h.07l-.2,2.64Zm-3.68-1.53l2.45-.72-2.45,1.67v-.95Zm-.44,.13v1.4h-4.76l4.76-1.4Zm4.5,2.23l2.68,2.68-3.11,3.11,.43-5.8Zm-1.02,13.69l.5-6.79,3.17,3.17-3.67,3.62Zm7.53-6.8l.53,6.94-3.76-3.76,3.22-3.18Z"/>
      <g>
        <polygon class="cls-6" points="148.99 39.45 148.99 35.15 133.16 35.15 133.16 39.45 128.9 39.45 128.9 161.57 153.24 161.57 153.24 39.45 148.99 39.45"/>
        <path class="cls-1" d="M183.65,28.01v-.38c0,.13,0,.25,0,.38h-.02c-.37-5.97-4.57-10.95-10.17-12.48v-2.1h-7.25v2.1c-5.59,1.53-9.8,6.51-10.17,12.48h-.02c0-.13,0-.25,0-.38v.38h-4.07V161.57h35.78V28.01h-4.07Z"/>
        <polygon class="cls-11" points="125.07 90.84 105.83 79.15 105.83 161.57 125.07 161.57 125.07 90.84"/>
        <polygon class="cls-11" points="155.83 116.31 155.83 112.76 121.33 112.76 121.33 116.31 118.98 116.31 118.98 161.57 158.18 161.57 158.18 116.31 155.83 116.31"/>
        <g>
          <rect class="cls-6" x="174.91" y="54.64" width="37.93" height="106.94"/>
          <g>
            <path class="cls-17" d="M193.87,161.57c-1.98,0-3.58-.87-4.16-2.28-6.38-15.28-9.89-35.19-9.89-56.05s3.51-40.77,9.89-56.05c.59-1.4,2.18-2.28,4.16-2.28s3.58,.87,4.16,2.28c6.38,15.28,9.89,35.19,9.89,56.05s-3.51,40.77-9.89,56.05c-.59,1.4-2.18,2.28-4.16,2.28Z"/>
            <path class="cls-6" d="M181.04,103.24c0,21.48,3.72,41.02,9.79,55.58,.85,2.03,5.22,2.03,6.07,0,6.07-14.56,9.79-34.1,9.79-55.58s-3.72-41.02-9.79-55.58c-.85-2.03-5.22-2.03-6.07,0-6.07,14.56-9.79,34.1-9.79,55.58Z"/>
            <path class="cls-15" d="M181.04,103.24c0,21.48,3.72,41.02,9.79,55.58,.85,2.03,5.22,2.03,6.07,0,6.07-14.56,9.79-34.1,9.79-55.58s-3.72-41.02-9.79-55.58c-.85-2.03-5.22-2.03-6.07,0-6.07,14.56-9.79,34.1-9.79,55.58Z"/>
            <g>
              <path class="cls-3" d="M196.92,47.71h-6.1c-.11,.27-.22,.54-.34,.82h6.78c-.11-.27-.22-.55-.34-.82Z"/>
              <path class="cls-3" d="M197.9,50.16h-8.06c-.1,.27-.21,.54-.31,.82h8.68c-.1-.27-.21-.55-.31-.82Z"/>
              <path class="cls-3" d="M198.81,52.61h-9.88c-.1,.27-.19,.54-.29,.82h10.45c-.09-.27-.19-.55-.29-.82Z"/>
              <path class="cls-3" d="M199.64,55.06h-11.55c-.09,.27-.18,.54-.26,.82h12.08c-.09-.27-.18-.55-.26-.82Z"/>
              <path class="cls-3" d="M200.42,57.51h-13.1c-.08,.27-.16,.54-.24,.82h13.59c-.08-.27-.16-.55-.24-.82Z"/>
              <path class="cls-3" d="M201.13,59.96h-14.53c-.08,.27-.15,.54-.23,.82h14.98c-.07-.27-.15-.55-.23-.82Z"/>
              <path class="cls-3" d="M201.8,62.41h-15.85c-.07,.27-.14,.54-.21,.82h16.27c-.07-.27-.14-.55-.21-.82Z"/>
              <path class="cls-3" d="M202.41,64.86h-17.07c-.06,.27-.13,.54-.19,.82h17.46c-.06-.27-.13-.55-.19-.82Z"/>
              <path class="cls-3" d="M202.97,67.31h-18.2c-.06,.27-.12,.54-.18,.82h18.55c-.06-.27-.12-.55-.18-.82Z"/>
              <path class="cls-3" d="M203.49,69.76h-19.23c-.05,.27-.11,.54-.16,.82h19.56c-.05-.27-.11-.55-.16-.82Z"/>
              <path class="cls-3" d="M203.96,72.21h-20.18c-.05,.27-.1,.54-.15,.82h20.48c-.05-.27-.1-.55-.15-.82Z"/>
              <path class="cls-3" d="M204.39,74.66h-21.04c-.05,.27-.09,.54-.13,.82h21.31c-.04-.27-.09-.55-.13-.82Z"/>
              <path class="cls-3" d="M204.78,77.11h-21.82c-.04,.27-.08,.54-.12,.82h22.06c-.04-.27-.08-.55-.12-.82Z"/>
              <path class="cls-3" d="M205.13,79.56h-22.52c-.04,.27-.07,.54-.11,.82h22.74c-.04-.27-.07-.55-.11-.82Z"/>
              <path class="cls-3" d="M205.45,82.01h-23.15c-.03,.27-.07,.54-.1,.82h23.35c-.03-.27-.06-.54-.1-.82Z"/>
              <path class="cls-3" d="M205.72,84.46h-23.71c-.03,.27-.06,.54-.08,.82h23.87c-.03-.27-.06-.55-.08-.82Z"/>
              <path class="cls-3" d="M205.96,86.91h-24.19c-.02,.27-.05,.54-.07,.82h24.33c-.02-.27-.05-.54-.07-.82Z"/>
              <path class="cls-3" d="M206.17,89.36h-24.6c-.02,.27-.04,.54-.06,.82h24.72c-.02-.27-.04-.54-.06-.82Z"/>
              <path class="cls-3" d="M206.34,91.81h-24.94c-.02,.27-.03,.54-.05,.82h25.04c-.02-.27-.03-.54-.05-.82Z"/>
              <path class="cls-3" d="M206.48,94.26h-25.21c-.01,.27-.03,.54-.04,.82h25.29c-.01-.27-.02-.54-.04-.82Z"/>
              <path class="cls-3" d="M206.58,96.71h-25.42c0,.27-.02,.54-.03,.82h25.47c0-.27-.02-.54-.03-.82Z"/>
              <path class="cls-3" d="M206.65,99.16h-25.56c0,.27-.01,.54-.02,.82h25.59c0-.27,0-.54-.02-.82Z"/>
              <path class="cls-3" d="M206.69,101.61h-25.64c0,.27,0,.54,0,.82h25.65c0-.27,0-.54,0-.82Z"/>
              <path class="cls-3" d="M206.69,104.06h-25.65c0,.27,0,.54,0,.82h25.64c0-.27,0-.54,0-.82Z"/>
              <path class="cls-3" d="M206.67,106.51h-25.59c0,.27,0,.54,.02,.82h25.56c0-.27,.01-.54,.02-.82Z"/>
              <path class="cls-3" d="M206.61,108.96h-25.47c0,.27,.02,.54,.03,.82h25.42c0-.27,.02-.54,.03-.82Z"/>
              <path class="cls-3" d="M206.51,111.41h-25.29c.01,.27,.02,.54,.04,.82h25.21c.01-.27,.03-.54,.04-.82Z"/>
              <path class="cls-3" d="M206.39,113.86h-25.04c.02,.27,.03,.54,.05,.82h24.94c.02-.27,.03-.54,.05-.82Z"/>
              <path class="cls-3" d="M206.23,116.31h-24.72c.02,.27,.04,.54,.06,.82h24.6c.02-.27,.04-.54,.06-.82Z"/>
              <path class="cls-3" d="M206.04,118.76h-24.33c.02,.27,.05,.54,.07,.82h24.19c.02-.27,.05-.54,.07-.82Z"/>
              <path class="cls-3" d="M205.81,121.21h-23.87c.03,.27,.06,.55,.08,.82h23.71c.03-.27,.06-.54,.08-.82Z"/>
              <path class="cls-3" d="M205.54,123.66h-23.35c.03,.27,.06,.54,.1,.82h23.15c.03-.27,.07-.54,.1-.82Z"/>
              <path class="cls-3" d="M205.24,126.11h-22.74c.04,.27,.07,.55,.11,.82h22.52c.04-.27,.07-.54,.11-.82Z"/>
              <path class="cls-3" d="M204.9,128.56h-22.06c.04,.27,.08,.55,.12,.82h21.82c.04-.27,.08-.54,.12-.82Z"/>
              <path class="cls-3" d="M204.53,131.01h-21.31c.04,.27,.09,.55,.13,.82h21.04c.05-.27,.09-.54,.13-.82Z"/>
              <path class="cls-3" d="M204.11,133.46h-20.48c.05,.27,.1,.55,.15,.82h20.18c.05-.27,.1-.54,.15-.82Z"/>
              <path class="cls-3" d="M203.65,135.91h-19.56c.05,.27,.11,.55,.16,.82h19.23c.05-.27,.11-.54,.16-.82Z"/>
              <path class="cls-3" d="M203.15,138.36h-18.55c.06,.27,.12,.55,.18,.82h18.2c.06-.27,.12-.54,.18-.82Z"/>
              <path class="cls-3" d="M202.6,140.81h-17.46c.06,.27,.13,.55,.19,.82h17.07c.06-.27,.13-.54,.19-.82Z"/>
              <path class="cls-3" d="M202.01,143.26h-16.27c.07,.27,.14,.55,.21,.82h15.85c.07-.27,.14-.54,.21-.82Z"/>
              <path class="cls-3" d="M201.36,145.71h-14.98c.07,.27,.15,.55,.23,.82h14.53c.08-.27,.15-.54,.23-.82Z"/>
              <path class="cls-3" d="M200.66,148.16h-13.59c.08,.27,.16,.55,.24,.82h13.1c.08-.27,.16-.54,.24-.82Z"/>
              <path class="cls-3" d="M199.91,150.61h-12.08c.09,.27,.18,.55,.26,.82h11.55c.09-.27,.18-.54,.26-.82Z"/>
              <path class="cls-3" d="M199.09,153.06h-10.45c.09,.27,.19,.55,.29,.82h9.88c.1-.27,.19-.54,.29-.82Z"/>
              <path class="cls-3" d="M198.21,155.51h-8.68c.1,.27,.21,.55,.31,.82h8.06c.1-.27,.21-.54,.31-.82Z"/>
              <path class="cls-3" d="M196.92,158.78c.11-.27,.22-.54,.34-.82h-6.78c.11,.27,.22,.55,.34,.82h6.1Z"/>
            </g>
          </g>
        </g>
        <polygon class="cls-1" points="173.82 128.44 167.44 161.57 195.1 161.57 195.1 128.44 173.82 128.44"/>
        <polygon class="cls-3" points="173.82 128.44 154.82 128.44 148.43 161.57 167.44 161.57 173.82 128.44"/>
        <path class="cls-17" d="M141.44,135.32v-4.76s.03-.09,.03-.14c0-1.58-11.13-2.86-24.87-2.86s-24.87,1.28-24.87,2.86c0,.05,.01,.09,.03,.14v4.76h-2.53v26.25h54.74v-26.25h-2.53Z"/>
      </g>
      <g>
        <polygon class="cls-1" points="68.84 114.39 68.84 110.69 10.61 110.69 10.61 114.39 6.65 114.39 6.65 161.57 72.8 161.57 72.8 114.39 68.84 114.39"/>
        <rect class="cls-18" x="11.16" y="118.68" width="4.88" height="6.23" rx=".51" ry=".51"/>
        <rect class="cls-18" x="19.83" y="118.68" width="4.88" height="6.23" rx=".51" ry=".51"/>
        <rect class="cls-18" x="28.5" y="118.68" width="4.88" height="6.23" rx=".51" ry=".51"/>
        <rect class="cls-18" x="37.17" y="118.68" width="4.88" height="6.23" rx=".51" ry=".51"/>
        <rect class="cls-18" x="45.84" y="118.68" width="4.88" height="6.23" rx=".51" ry=".51"/>
        <rect class="cls-17" x="54.51" y="118.68" width="4.88" height="6.23" rx=".51" ry=".51"/>
        <rect class="cls-18" x="11.16" y="129.06" width="4.88" height="6.23" rx=".51" ry=".51"/>
        <rect class="cls-18" x="19.83" y="129.06" width="4.88" height="6.23" rx=".51" ry=".51"/>
        <rect class="cls-18" x="28.5" y="129.06" width="4.88" height="6.23" rx=".51" ry=".51"/>
        <rect class="cls-18" x="37.17" y="129.06" width="4.88" height="6.23" rx=".51" ry=".51"/>
        <rect class="cls-18" x="45.84" y="129.06" width="4.88" height="6.23" rx=".51" ry=".51"/>
        <rect class="cls-18" x="54.51" y="129.06" width="4.88" height="6.23" rx=".51" ry=".51"/>
        <rect class="cls-18" x="11.16" y="139.45" width="4.88" height="6.23" rx=".51" ry=".51"/>
        <rect class="cls-18" x="19.83" y="139.45" width="4.88" height="6.23" rx=".51" ry=".51"/>
        <rect class="cls-18" x="28.5" y="139.45" width="4.88" height="6.23" rx=".51" ry=".51"/>
        <rect class="cls-18" x="37.17" y="139.45" width="4.88" height="6.23" rx=".51" ry=".51"/>
        <rect class="cls-18" x="45.84" y="139.45" width="4.88" height="6.23" rx=".51" ry=".51"/>
        <rect class="cls-18" x="54.51" y="139.45" width="4.88" height="6.23" rx=".51" ry=".51"/>
        <rect class="cls-18" x="11.16" y="149.84" width="4.88" height="6.23" rx=".51" ry=".51"/>
        <rect class="cls-18" x="19.83" y="149.84" width="4.88" height="6.23" rx=".51" ry=".51"/>
        <rect class="cls-18" x="28.5" y="149.84" width="4.88" height="6.23" rx=".51" ry=".51"/>
        <rect class="cls-18" x="37.17" y="149.84" width="4.88" height="6.23" rx=".51" ry=".51"/>
        <rect class="cls-18" x="45.84" y="149.84" width="4.88" height="6.23" rx=".51" ry=".51"/>
        <rect class="cls-18" x="54.51" y="149.84" width="4.88" height="6.23" rx=".51" ry=".51"/>
      </g>
      <rect class="cls-17" y="164.99" width="42.64" height="1.09"/>
      <rect class="cls-17" x="98.85" y="164.99" width="21.68" height="1.09"/>
      <rect class="cls-17" x="160.8" y="164.99" width="21.68" height="1.09"/>
      <rect class="cls-17" x="193.46" y="164.99" width="21.68" height="1.09"/>
      <rect class="cls-17" x="89.87" y="169.23" width="119.07" height="1.23"/>
      <rect class="cls-17" x="12.3" y="169.36" width="42.64" height="1.09"/>
      <g>
        <g>
          <path class="cls-19" d="M101.25,43.78h34.86c3.9,0,8.04,1.58,11.04,4.12,3.04,2.55,4.93,6.07,5.28,9.96,6.8,36.36-10.75,73.36-2.24,110.05H84.27c-3.88,0-8.26-1.58-11.64-4.12-3.4-2.55-5.62-6.1-6.42-9.96-6.88-33.29,18.74-67.62,7.24-99.65-1.14-3.16-4.22-5.6-7.23-7.44-3.03-1.85-6.37-2.95-9.59-2.95h44.62Z"/>
          <path class="cls-7" d="M56.64,43.78c-.1,0-.2,0-.3,0,0,0,0,0,0,0h.3Z"/>
        </g>
        <path class="cls-12" d="M90.46,153.87h73.24c0,3.81-1.81,7.26-4.26,9.79-2.5,2.53-5.64,4.13-9.37,4.24,0,0,0,0,0,0H81.99c7.84,0,10.2-6.28,8.47-14.04Z"/>
        <g>
          <path class="cls-9" d="M86.11,73.29h58.41c.03-.88,.05-1.75,.05-2.63h-58.39c0,.88-.03,1.75-.07,2.63Z"/>
          <path class="cls-9" d="M85.51,80.31c21.56,0,41.08,0,58.57,0,.08-.88,.15-1.75,.21-2.63h-58.49c-.08,.88-.18,1.75-.29,2.63Z"/>
          <path class="cls-9" d="M84.42,87.33h58.86c.12-.88,.23-1.75,.33-2.63h-58.74c-.14,.88-.3,1.75-.46,2.63Z"/>
          <path class="cls-9" d="M82.98,94.35h59.25c.14-.88,.28-1.75,.42-2.63h-59.1c-.19,.88-.38,1.75-.57,2.63Z"/>
          <path class="cls-9" d="M81.31,101.37h59.7c.16-.88,.31-1.75,.47-2.63h-59.53c-.21,.88-.43,1.75-.64,2.63Z"/>
          <path class="cls-9" d="M79.56,108.38h60.17c.16-.88,.32-1.75,.48-2.63h-60c-.22,.88-.44,1.75-.66,2.63Z"/>
          <path class="cls-9" d="M77.85,115.4h60.63c.15-.88,.3-1.75,.46-2.63h-60.46c-.21,.88-.42,1.75-.62,2.63Z"/>
          <path class="cls-9" d="M76.34,122.42h61.04c.13-.88,.26-1.75,.39-2.63h-60.89c-.19,.88-.37,1.75-.54,2.63Z"/>
          <path class="cls-9" d="M75.14,129.44h61.36c.09-.88,.19-1.75,.3-2.63h-61.25c-.14,.88-.28,1.75-.4,2.63Z"/>
          <path class="cls-9" d="M74.39,136.45h61.56c.04-.88,.1-1.75,.16-2.63h-61.51c-.09,.88-.16,1.75-.22,2.63Z"/>
        </g>
        <path class="cls-12" d="M73.46,54.17c-1.14-3.16-4.22-5.6-7.23-7.44-2.47-1.52-5.16-2.53-7.82-2.85-.35-.04-.69-.07-1.03-.09-.01,0-.02,0-.03,0-.1,0-.21,0-.31-.01-.02,0-.04,0-.06,0-.12,0-.23,0-.35,0-3.85,0-7.07,1.57-9.64,4.11-2.52,2.54-4.4,6.05-4.39,9.92h32.01c-.33-1.22-.71-2.43-1.15-3.64Z"/>
      </g>
      <g>
        <g>
          <path class="cls-10" d="M93.21,120.04c7.88-10.33,7.1-25.16-2.34-34.6-10.3-10.3-26.97-10.3-37.27,0-9.44,9.44-10.22,24.27-2.34,34.6,1.7,2.23,3.06,4.69,4.01,7.33l.04,.11c1.04,2.89,1.56,5.95,1.56,9.02h0c0,3.79,3.07,6.86,6.86,6.86h17.02c3.79,0,6.86-3.07,6.86-6.86h0c0-3.07,.53-6.12,1.56-9.02l.04-.11c.94-2.64,2.31-5.1,4.01-7.33Z"/>
          <path class="cls-13" d="M91.41,85.99c6.25,9.29,5.94,21.67-.91,30.65-1.7,2.23-3.06,4.69-4.01,7.33l-.04,.11c-1.04,2.89-1.56,5.95-1.56,9.02h0c0,3.79-3.07,6.86-6.86,6.86h-17.02c-1.37,0-2.65-.4-3.72-1.1,.96,2.62,3.48,4.49,6.44,4.49h17.02c3.79,0,6.86-3.07,6.86-6.86h0c0-3.07,.53-6.12,1.56-9.02l.04-.11c.94-2.64,2.31-5.1,4.01-7.33,7.73-10.13,7.13-24.59-1.81-34.05Z"/>
          <circle class="cls-4" cx="63.08" cy="90.63" r="3.6"/>
          <circle class="cls-4" cx="58.43" cy="96.5" r="2.27"/>
          <circle class="cls-5" cx="65.82" cy="98.12" r="14.61"/>
          <g>
            <path class="cls-14" d="M60.33,141.74c-.2,0-.36,.16-.36,.36v2.7c0,.78,.37,1.48,.94,1.92v12.51c0,.74,.31,1.45,.85,1.95,.84,.79,1.75,1.47,2.71,2.03,.61,.36,1.02,.89,1.14,1.55,.06,.29,.27,.53,.54,.64l3.56,1.36v.6c0,.6,.49,1.09,1.09,1.09h2.83c.6,0,1.09-.49,1.09-1.09v-.59l3.55-1.34c.28-.11,.49-.34,.55-.64,.13-.66,.54-1.22,1.15-1.58,.96-.56,1.87-1.24,2.71-2.03,.54-.51,.85-1.21,.85-1.95v-12.51c.57-.44,.94-1.14,.94-1.92v-2.7c0-.2-.16-.36-.36-.36h-23.81Z"/>
            <rect class="cls-9" x="60.14" y="147.28" width="24.24" height="2.4" rx="1.11" ry="1.11"/>
            <rect class="cls-9" x="60.14" y="152.1" width="24.24" height="2.4" rx="1.11" ry="1.11"/>
            <rect class="cls-9" x="60.14" y="156.93" width="24.24" height="2.4" rx="1.11" ry="1.11"/>
            <path class="cls-5" d="M71.81,147.28h-10.56c-.61,0-1.11,.5-1.11,1.11v.19c0,.45,.27,.83,.65,1.01-.06-.14-.1-.29-.1-.46v-.19c0-.61,.5-1.11,1.11-1.11l10.01-.55Z"/>
            <path class="cls-5" d="M71.81,152.1h-10.56c-.61,0-1.11,.5-1.11,1.11v.19c0,.45,.27,.83,.65,1.01-.06-.14-.1-.29-.1-.46v-.19c0-.61,.5-1.11,1.11-1.11l10.01-.55Z"/>
            <path class="cls-5" d="M71.81,156.93h-10.56c-.61,0-1.11,.5-1.11,1.11v.19c0,.45,.27,.83,.65,1.01-.06-.14-.1-.29-.1-.46v-.19c0-.61,.5-1.11,1.11-1.11l10.01-.55Z"/>
            <path class="cls-8" d="M84.14,141.74h-23.81c-.2,0-.36,.16-.36,.36v2.7s0-.61,0-.6c0,.71,.6,1.28,1.31,1.28h21.26c.16,.19,.26,1.06,.26,1.33v.19c0,.41-.23,.77-.56,.96-.16,.09-.27,.26-.27,.45v1.82c0,.19,.11,.35,.27,.45,.33,.19,.56,.55,.56,.96v.19c0,.41-.23,.77-.56,.96-.16,.09-.27,.26-.27,.45v1.82c0,.19,.11,.35,.27,.45,.33,.19,.56,.55,.56,.96v.19c0,.42-.24,.79-.59,.98-.15,.08-.24,.22-.27,.38-.08,.61-.37,1.17-.83,1.6-.84,.79-1.75,1.47-2.71,2.03-.6,.35-1.02,.91-1.15,1.57-.06,.3-.27,.54-.55,.65l-3.55,1.34v.59c0,.6-.49,1.09-1.09,1.09h-2.34v.48c0,.6,.49,1.09,1.09,1.09h2.83c.6,0,1.09-.49,1.09-1.09v-.59l3.55-1.34c.28-.11,.49-.35,.55-.65,.13-.66,.54-1.21,1.15-1.57,.96-.56,1.87-1.24,2.71-2.03,.52-.49,.83-1.17,.85-1.89,.48-.12,.83-.55,.83-1.07v-.19c0-.52-.35-.95-.83-1.07v-2.49c.48-.12,.83-.56,.83-1.07v-.19c0-.52-.35-.95-.83-1.07v-2.49c.48-.12,.83-.56,.83-1.07v-.19c0-.52-.35-.95-.83-1.07v-.6c.57-.44,.93-1.12,.94-1.89,0,0,0,0,0-.01,0,0,0,0,0-.01h0v-2.7h0c0-.2-.16-.36-.36-.36Z"/>
          </g>
        </g>
        <polygon class="cls-12" points="80.67 91.74 65.16 108.79 70.55 108.79 65.16 122.03 80.67 104.99 75.28 104.99 80.67 91.74"/>
      </g>
      <g>
        <rect class="cls-14" x="135.22" y="72.59" width="48.87" height="62.24" rx="3.44" ry="3.44" transform="translate(263.36 -55.95) rotate(90)"/>
        <rect class="cls-11" x="132.72" y="84.08" width="53.87" height="39.25" rx="3.16" ry="3.16"/>
        <rect class="cls-3" x="141.08" y="89.73" width="37.15" height="11.73" rx="1.71" ry="1.71"/>
        <circle class="cls-14" cx="182.39" cy="92.33" r="2.16"/>
        <g>
          <circle class="cls-14" cx="138.98" cy="92.54" r=".87"/>
          <circle class="cls-14" cx="138.98" cy="98.65" r=".87"/>
        </g>
        <g>
          <rect class="cls-14" x="179.88" y="96.99" width="5" height="2.9" rx=".37" ry=".37"/>
          <rect class="cls-9" x="181.3" y="96.56" width="2.18" height="3.77" rx="1.09" ry="1.09"/>
        </g>
        <g>
          <path class="cls-16" d="M146.56,99.39h-2.11c-.65,0-1.18-.53-1.18-1.18v-4.99c0-.65,.53-1.18,1.18-1.18h2.11c.65,0,1.18,.53,1.18,1.18v4.99c0,.65-.53,1.18-1.18,1.18Zm-2.11-6.46c-.16,0-.3,.13-.3,.3v4.99c0,.16,.13,.3,.3,.3h2.11c.16,0,.3-.13,.3-.3v-4.99c0-.16-.13-.3-.3-.3h-2.11Z"/>
          <path class="cls-16" d="M152.22,99.39h-2.11c-.65,0-1.18-.53-1.18-1.18v-4.99c0-.65,.53-1.18,1.18-1.18h2.11c.65,0,1.18,.53,1.18,1.18v4.99c0,.65-.53,1.18-1.18,1.18Zm-2.11-6.46c-.16,0-.3,.13-.3,.3v4.99c0,.16,.13,.3,.3,.3h2.11c.16,0,.3-.13,.3-.3v-4.99c0-.16-.13-.3-.3-.3h-2.11Z"/>
          <path class="cls-16" d="M157.88,99.39h-2.11c-.65,0-1.18-.53-1.18-1.18v-4.99c0-.65,.53-1.18,1.18-1.18h2.11c.65,0,1.18,.53,1.18,1.18v4.99c0,.65-.53,1.18-1.18,1.18Zm-2.11-6.46c-.16,0-.3,.13-.3,.3v4.99c0,.16,.13,.3,.3,.3h2.11c.16,0,.3-.13,.3-.3v-4.99c0-.16-.13-.3-.3-.3h-2.11Z"/>
          <path class="cls-16" d="M163.54,99.39h-2.11c-.65,0-1.18-.53-1.18-1.18v-4.99c0-.65,.53-1.18,1.18-1.18h2.11c.65,0,1.18,.53,1.18,1.18v4.99c0,.65-.53,1.18-1.18,1.18Zm-2.11-6.46c-.16,0-.3,.13-.3,.3v4.99c0,.16,.13,.3,.3,.3h2.11c.16,0,.3-.13,.3-.3v-4.99c0-.16-.13-.3-.3-.3h-2.11Z"/>
          <path class="cls-16" d="M169.21,99.39h-2.11c-.65,0-1.18-.53-1.18-1.18v-4.99c0-.65,.53-1.18,1.18-1.18h2.11c.65,0,1.18,.53,1.18,1.18v4.99c0,.65-.53,1.18-1.18,1.18Zm-2.11-6.46c-.16,0-.3,.13-.3,.3v4.99c0,.16,.13,.3,.3,.3h2.11c.16,0,.3-.13,.3-.3v-4.99c0-.16-.13-.3-.3-.3h-2.11Z"/>
          <path class="cls-16" d="M174.87,99.39h-2.11c-.65,0-1.18-.53-1.18-1.18v-4.99c0-.65,.53-1.18,1.18-1.18h2.11c.65,0,1.18,.53,1.18,1.18v4.99c0,.65-.53,1.18-1.18,1.18Zm-2.11-6.46c-.16,0-.3,.13-.3,.3v4.99c0,.16,.13,.3,.3,.3h2.11c.16,0,.3-.13,.3-.3v-4.99c0-.16-.13-.3-.3-.3h-2.11Z"/>
        </g>
        <rect class="cls-2" x="136.49" y="106.61" width="46.34" height="9.88" rx="1.24" ry="1.24"/>
      </g>
    </g>
  </g>
</svg>