<?xml version="1.0" encoding="UTF-8"?>
<svg xmlns="http://www.w3.org/2000/svg" xmlns:xlink="http://www.w3.org/1999/xlink" viewBox="0 0 340.74 117.3">
  <defs>
    <style>
      .cls-1 {
        fill: url(#linear-gradient-3);
      }

      .cls-1, .cls-2, .cls-3, .cls-4, .cls-5, .cls-6, .cls-7, .cls-8, .cls-9, .cls-10, .cls-11, .cls-12, .cls-13, .cls-14, .cls-15, .cls-16, .cls-17 {
        mix-blend-mode: multiply;
      }

      .cls-18, .cls-19 {
        fill: #eff8fd;
      }

      .cls-18, .cls-20 {
        opacity: .8;
      }

      .cls-21 {
        fill: url(#linear-gradient-12);
      }

      .cls-21, .cls-22, .cls-23, .cls-24, .cls-25, .cls-26, .cls-27, .cls-28, .cls-29, .cls-30, .cls-31, .cls-32, .cls-33, .cls-34, .cls-35, .cls-36, .cls-37, .cls-20, .cls-38 {
        mix-blend-mode: screen;
      }

      .cls-39 {
        fill: #e0e1e1;
      }

      .cls-40 {
        fill: #00a0de;
      }

      .cls-2 {
        fill: url(#linear-gradient-13);
      }

      .cls-41 {
        fill: #b0cfe9;
      }

      .cls-3 {
        fill: #bcd5e2;
      }

      .cls-4 {
        fill: #abd6ec;
      }

      .cls-5 {
        fill: url(#linear-gradient-4);
      }

      .cls-6, .cls-23, .cls-26 {
        opacity: .7;
      }

      .cls-6, .cls-42, .cls-11, .cls-16 {
        fill: #c7e1ef;
      }

      .cls-22 {
        fill: url(#linear-gradient-19);
      }

      .cls-23 {
        fill: #fff;
      }

      .cls-42, .cls-43, .cls-44, .cls-45 {
        mix-blend-mode: color-dodge;
      }

      .cls-7 {
        fill: url(#linear-gradient-17);
      }

      .cls-8 {
        fill: #a0c4d7;
        opacity: .4;
      }

      .cls-46 {
        isolation: isolate;
      }

      .cls-9, .cls-13, .cls-34, .cls-44 {
        opacity: .5;
      }

      .cls-9, .cls-47 {
        fill: #69acdf;
      }

      .cls-10 {
        fill: #67a9d7;
      }

      .cls-10, .cls-11, .cls-14 {
        opacity: .6;
      }

      .cls-43, .cls-48, .cls-26, .cls-31, .cls-33, .cls-34, .cls-44, .cls-45 {
        fill: #dcf2fd;
      }

      .cls-43, .cls-31 {
        opacity: .3;
      }

      .cls-24 {
        fill: url(#linear-gradient-6);
      }

      .cls-25 {
        fill: url(#linear-gradient-10);
      }

      .cls-27 {
        fill: url(#linear-gradient-5);
      }

      .cls-28 {
        fill: url(#linear-gradient-15);
      }

      .cls-49 {
        fill: #5e96b3;
      }

      .cls-29 {
        fill: url(#linear-gradient-18);
      }

      .cls-30 {
        fill: url(#linear-gradient-11);
      }

      .cls-50 {
        fill: #3396d3;
      }

      .cls-32 {
        fill: url(#linear-gradient-8);
      }

      .cls-12 {
        fill: url(#linear-gradient-9);
      }

      .cls-13 {
        fill: #63b8e8;
      }

      .cls-14 {
        fill: #b0c8d4;
      }

      .cls-35 {
        fill: url(#linear-gradient-14);
      }

      .cls-51, .cls-20 {
        fill: #91caef;
      }

      .cls-15 {
        fill: url(#linear-gradient-2);
      }

      .cls-52 {
        fill: #61bdeb;
      }

      .cls-36 {
        fill: url(#linear-gradient-16);
      }

      .cls-53 {
        fill: #dbf2fd;
      }

      .cls-54 {
        fill: #0074bc;
      }

      .cls-55 {
        fill: url(#linear-gradient);
      }

      .cls-37 {
        fill: url(#linear-gradient-7);
      }

      .cls-45 {
        opacity: .9;
      }

      .cls-38 {
        fill: url(#linear-gradient-20);
      }
    </style>
    <linearGradient id="linear-gradient" x1="88.07" y1="69.71" x2="88.07" y2="118.93" gradientUnits="userSpaceOnUse">
      <stop offset="0" stop-color="#a5daf4"/>
      <stop offset=".16" stop-color="#c0e5f7"/>
      <stop offset=".36" stop-color="#dbf0fa"/>
      <stop offset=".56" stop-color="#eff8fd"/>
      <stop offset=".76" stop-color="#fbfdfe"/>
      <stop offset=".97" stop-color="#fff"/>
    </linearGradient>
    <linearGradient id="linear-gradient-2" x1="22.82" y1="100.61" x2="22.82" y2="94.09" xlink:href="#linear-gradient"/>
    <linearGradient id="linear-gradient-3" x1="83.15" y1="118.41" x2="83.15" y2="95.74" xlink:href="#linear-gradient"/>
    <linearGradient id="linear-gradient-4" x1="160.79" y1="93.45" x2="160.79" y2="83.79" xlink:href="#linear-gradient"/>
    <linearGradient id="linear-gradient-5" x1="12.63" y1="80.73" x2="12.63" y2="95.54" gradientUnits="userSpaceOnUse">
      <stop offset="0" stop-color="#3968b1"/>
      <stop offset=".01" stop-color="#3e6bb3"/>
      <stop offset=".15" stop-color="#7092c7"/>
      <stop offset=".28" stop-color="#9cb3d8"/>
      <stop offset=".42" stop-color="#c0cee6"/>
      <stop offset=".55" stop-color="#dbe4f1"/>
      <stop offset=".69" stop-color="#eff3f8"/>
      <stop offset=".83" stop-color="#fbfcfd"/>
      <stop offset=".97" stop-color="#fff"/>
    </linearGradient>
    <linearGradient id="linear-gradient-6" x1="56.57" y1="102.07" x2="56.57" y2="111.75" xlink:href="#linear-gradient-5"/>
    <linearGradient id="linear-gradient-7" x1="137.34" y1="99.82" x2="137.34" y2="108.48" xlink:href="#linear-gradient-5"/>
    <linearGradient id="linear-gradient-8" x1="166.55" y1="79.21" x2="166.55" y2="84.16" xlink:href="#linear-gradient-5"/>
    <linearGradient id="linear-gradient-9" x1="24.44" y1="99.61" x2="24.44" y2="112.5" gradientUnits="userSpaceOnUse">
      <stop offset="0" stop-color="#a4cae5"/>
      <stop offset=".97" stop-color="#f2f2f2"/>
    </linearGradient>
    <linearGradient id="linear-gradient-10" x1="23.76" y1="105.98" x2="26.38" y2="113.05" gradientUnits="userSpaceOnUse">
      <stop offset="0" stop-color="#576d7a"/>
      <stop offset=".97" stop-color="#f2f2f2"/>
    </linearGradient>
    <linearGradient id="linear-gradient-11" x1="19.26" y1="101.88" x2="19.26" y2="108.24" xlink:href="#linear-gradient-9"/>
    <linearGradient id="linear-gradient-12" x1="23.18" y1="103.73" x2="23.18" y2="105.68" xlink:href="#linear-gradient-9"/>
    <linearGradient id="linear-gradient-13" x1="40.38" y1="103.02" x2="40.38" y2="108.18" xlink:href="#linear-gradient-9"/>
    <linearGradient id="linear-gradient-14" x1="40.11" y1="105.57" x2="41.16" y2="108.4" xlink:href="#linear-gradient-10"/>
    <linearGradient id="linear-gradient-15" x1="38.31" y1="103.92" x2="38.31" y2="106.47" xlink:href="#linear-gradient-9"/>
    <linearGradient id="linear-gradient-16" x1="39.88" y1="104.67" x2="39.88" y2="105.45" xlink:href="#linear-gradient-9"/>
    <linearGradient id="linear-gradient-17" x1="154.26" y1="91.5" x2="154.26" y2="96.66" xlink:href="#linear-gradient-9"/>
    <linearGradient id="linear-gradient-18" x1="153.99" y1="94.05" x2="155.04" y2="96.88" xlink:href="#linear-gradient-10"/>
    <linearGradient id="linear-gradient-19" x1="152.19" y1="92.4" x2="152.19" y2="94.95" xlink:href="#linear-gradient-9"/>
    <linearGradient id="linear-gradient-20" x1="153.76" y1="93.15" x2="153.76" y2="93.93" xlink:href="#linear-gradient-9"/>
  </defs>
  <g class="cls-46">
    <g id="Layer_2" data-name="Layer 2">
      <g id="Layer_1-2" data-name="Layer 1">
        <g>
          <g>
            <path class="cls-39" d="M327.78,50.22c-119.17-8.31-127.19-8.91-208.3-14.71-6.51-.43-14.6-1.05-18.99-.53-5.38,.63-10.51,2.64-10.51,2.64L29.89,55.61s-14.69,5.23,8.07,7.03l212.9,14.69c15.31,1.62,26.37-1.9,26.37-1.9l59.16-18.47c13.16-5.54-8.6-6.73-8.6-6.73Z"/>
            <g class="cls-17">
              <path class="cls-39" d="M324.16,49c-116.21-8.1-124.04-8.69-203.14-14.35-6.34-.42-14.24-1.02-18.52-.52-5.25,.62-10.25,2.58-10.25,2.58l-58.61,17.54s-14.33,5.1,7.87,6.85l207.63,14.33c14.93,1.58,25.72-1.86,25.72-1.86l57.69-18.01c12.83-5.4-8.39-6.56-8.39-6.56Z"/>
            </g>
            <g>
              <g>
                <g>
                  <path class="cls-51" d="M123.68,34.51c-6.18-.41-13.87-1-18.03-.51-5.11,.6-77.62-6.44-77.62-6.44,0,0,4.73,29.03,4.79,29.25,.61,2.41,3.95,2.71,13.43,3.46l202.2,13.95c14.54,1.54,25.05-1.81,25.05-1.81l56.18-17.54c3.26-1.37,4.26-2.47,3.96-3.33-.05-.14,3.05-29.36,2.94-29.48-1.84-2.12-135.87,17.96-212.91,12.45Z"/>
                  <path class="cls-54" d="M256.14,74.89h0c-2.57,0-5.16-.14-7.71-.41L46.23,60.54c-9.46-.75-13-1.02-13.66-3.66-.06-.22-4.31-26.3-4.79-29.27-.01-.08,.01-.16,.07-.22,.06-.06,.14-.09,.22-.08,.67,.07,66.78,6.47,76.63,6.47,.42,0,.73-.01,.93-.03,1.07-.13,2.4-.19,4.07-.19,3.65,0,8.23,.31,12.27,.58l1.74,.12c8.91,.64,19.08,.96,30.23,.96,51.78,0,114.62-6.76,152.17-10.8,14.91-1.6,25.68-2.76,29.23-2.76,1.04,0,1.33,.1,1.46,.25q.12,.14-1.76,18.59c-.56,5.4-1.09,10.51-1.12,11.02,.34,1.12-1.01,2.3-4.13,3.61l-56.21,17.55c-.07,.02-7.11,2.22-17.45,2.22ZM28.35,27.86c.53,3.23,4.65,28.49,4.73,28.9,.55,2.16,3.61,2.5,13.19,3.26l202.2,13.95c2.53,.27,5.11,.4,7.66,.4,10.25,0,17.22-2.18,17.29-2.2l56.19-17.54c2.71-1.14,4.07-2.21,3.8-2.99q-.03-.1,1.1-11.2c.74-7.18,1.74-16.9,1.82-18.21-.11-.02-.39-.06-1-.06-3.52,0-14.28,1.16-29.17,2.76-37.56,4.04-100.43,10.8-152.23,10.81-11.16,0-21.34-.32-30.27-.96l-1.74-.12c-4.04-.27-8.61-.58-12.24-.58-1.64,0-2.95,.06-4.01,.19-.22,.03-.54,.04-.99,.04-9.51,0-71.18-5.94-76.34-6.44Z"/>
                </g>
                <path class="cls-13" d="M336.6,22.07c-1.84-2.12-135.87,17.96-212.91,12.45-6.18-.41-13.87-1-18.03-.51-5.11,.6-77.62-6.44-77.62-6.44,0,0,4.73,29.03,4.79,29.25,.61,2.41,3.95,2.71,13.43,3.46l202.2,13.95c14.54,1.54,25.05-1.81,25.05-1.81l56.18-17.54c3.26-1.37,4.26-2.47,3.96-3.33-.05-.14,3.05-29.36,2.94-29.48Zm-86.58,31.02s-.33,5.22-1.15,12.1c-.82,6.88-8.28,5.37-8.28,5.37L40.04,58.16c-4.99-.41-4.82-5.37-4.82-5.37l-2.39-14.38c-.23-2.82,3.22-2.94,3.22-2.94l209.32,14.43c5.33,.69,4.66,3.18,4.66,3.18Z"/>
                <path class="cls-9" d="M336.6,22.07c-.3-.34-4.12-.1-10.63,.53-.37,5.79-1.05,11.55-1.5,17.35-.47,5.99-.85,12.01-7.34,15.77-6.49,3.76-13.69,6.63-20.79,9.57l33.34-10.41c3.26-1.37,4.26-2.47,3.96-3.33-.05-.14,3.05-29.36,2.94-29.48Z"/>
                <g>
                  <g>
                    <path class="cls-40" d="M327.61,17.92C208.45,9.61,200.43,9.01,119.31,3.21c-6.51-.43-14.6-1.05-18.99-.53-5.38,.63-10.51,2.64-10.51,2.64L29.72,23.31s-3.73-.21-4.67,1.27c-.14,.22,0,1.91,0,2.14-.03,1.38,2.75,2.82,12.73,3.61l212.9,14.69c15.31,1.62,26.37-1.9,26.37-1.9l59.16-18.47c3.44-1.45,4.49-2.6,4.17-3.51-.05-.14,.17-2.07,.05-2.2-1.94-2.23-12.83-1.02-12.83-1.02Z"/>
                    <path class="cls-54" d="M258.77,45.71h0c-2.71,0-5.44-.14-8.12-.43L37.77,30.59c-8.77-.69-13.01-1.96-12.98-3.88,0-.06,0-.2-.02-.39-.07-1.28-.06-1.71,.06-1.89,.77-1.22,3.09-1.41,4.4-1.41,.22,0,.38,0,.46,0L89.74,5.07s5.2-2.02,10.55-2.65c1.13-.13,2.53-.2,4.28-.2,3.84,0,8.67,.32,12.93,.61l1.82,.12,26.74,1.91c57.54,4.12,76.92,5.5,181.56,12.8-.02,0,2.95-.33,6.03-.33,3.8,0,6.15,.48,6.98,1.44,.12,.14,.12,.35,.04,1.56-.02,.3-.05,.68-.04,.76,.4,1.15-1.01,2.4-4.33,3.8l-59.18,18.48c-.07,.02-7.48,2.34-18.36,2.34ZM29.23,23.56c-.76,0-3.28,.08-3.96,1.16-.06,.17,0,1.2,.02,1.58,.01,.21,.02,.36,.02,.43-.02,.88,1.58,2.49,12.49,3.35l212.9,14.69c2.67,.28,5.38,.42,8.07,.42,10.79,0,18.13-2.29,18.21-2.32l59.16-18.47c2.86-1.21,4.3-2.34,4-3.17-.03-.1-.03-.22,.02-.93,.03-.39,.07-1.03,.05-1.22-.53-.57-2.11-1.22-6.55-1.22-3.05,0-5.99,.32-6.02,.33-104.69-7.3-124.07-8.68-181.61-12.8l-28.56-2.03c-4.25-.28-9.07-.61-12.9-.61-1.73,0-3.11,.06-4.22,.19-5.29,.62-10.39,2.61-10.44,2.63L29.79,23.56s-.06,.01-.09,.01c0,0-.18-.01-.47-.01Z"/>
                  </g>
                  <g>
                    <g>
                      <path class="cls-52" d="M327.61,15.7C208.45,7.4,200.43,6.79,119.31,.99c-6.51-.43-14.6-1.05-18.99-.53-5.38,.64-10.51,2.64-10.51,2.64L29.72,21.09s-14.69,5.23,8.07,7.03l212.9,14.69c15.31,1.62,26.37-1.9,26.37-1.9l59.16-18.47c13.16-5.54-8.6-6.73-8.6-6.73Z"/>
                      <path class="cls-54" d="M258.77,43.49h0c-2.71,0-5.44-.14-8.11-.43L37.77,28.38c-8.49-.67-12.73-1.88-12.97-3.69-.26-1.97,4.31-3.66,4.83-3.85L89.74,2.85s5.2-2.02,10.55-2.65c1.13-.13,2.53-.2,4.28-.2,3.85,0,8.68,.32,12.94,.61l1.81,.12,26.47,1.89c57.62,4.12,77.03,5.51,181.83,12.82,1.28,.07,12.56,.77,13.05,3.59,.2,1.13-1.23,2.32-4.37,3.64l-59.18,18.48c-.07,.02-7.48,2.34-18.36,2.34ZM104.58,.52c-1.73,0-3.11,.06-4.22,.2-5.29,.62-10.39,2.61-10.44,2.63L29.79,21.34c-1.8,.64-4.63,2.11-4.47,3.28,.11,.85,1.88,2.4,12.48,3.24l212.9,14.69c2.67,.28,5.38,.42,8.07,.42h0c10.79,0,18.13-2.29,18.2-2.32l59.16-18.47c3.7-1.56,4.12-2.59,4.03-3.06-.36-2.05-9.19-2.97-12.57-3.16C222.79,8.66,203.38,7.27,145.77,3.15l-28.28-2.01c-4.26-.29-9.08-.61-12.91-.61Z"/>
                    </g>
                    <g>
                      <g>
                        <path class="cls-50" d="M65.32,12.53l-33.08,9.75s-7.83,2.16,12.18,3.67l23.91,1.7,38.3-12.15-41.31-2.97Z"/>
                        <path class="cls-54" d="M68.33,27.91h-.02l-23.91-1.7c-13.76-1.04-13.88-2.36-13.93-2.86-.07-.77,1.28-1.21,1.7-1.32l33.08-9.75s.06-.01,.09-.01l41.31,2.97c.12,0,.23,.11,.24,.23,.02,.12-.06,.24-.18,.28l-38.3,12.15s-.05,.01-.08,.01Zm-2.98-15.12l-33.04,9.74c-.65,.18-1.34,.54-1.32,.77,.02,.23,.78,1.43,13.45,2.39l23.86,1.7,36.95-11.73-39.9-2.87Z"/>
                      </g>
                      <g>
                        <path class="cls-50" d="M202.3,21.32l31.81-10.09c-16.97-1.22-30.49-2.2-43.99-3.19l-31.89,10.12,44.07,3.17Z"/>
                        <path class="cls-54" d="M202.3,21.58s-.01,0-.02,0l-44.07-3.17c-.12,0-.23-.11-.24-.23-.02-.12,.06-.24,.18-.28l31.89-10.12s.07-.01,.1-.01c13.5,.99,27.02,1.97,43.99,3.19,.13,0,.23,.11,.24,.23,.01,.12-.06,.24-.18,.28l-31.81,10.09s-.05,.01-.08,.01Zm-42.69-3.59l42.66,3.06,30.46-9.67c-16.32-1.17-29.46-2.13-42.58-3.09l-30.54,9.69Z"/>
                      </g>
                      <g>
                        <path class="cls-50" d="M141.33,4.48c-6.33-.46-13.14-.95-20.6-1.48-6.1-.4-16.39-.95-19.66-.36-4.76,.86-9.2,2.06-9.2,2.06l-23.68,6.98,41.14,2.96,32-10.15Z"/>
                        <path class="cls-54" d="M109.33,14.9s-.01,0-.02,0l-41.14-2.96c-.13,0-.23-.11-.24-.23s.07-.24,.19-.28l23.68-6.98c.05-.01,4.51-1.22,9.23-2.07,.97-.17,2.61-.26,4.88-.26,4.49,0,10.55,.34,14.85,.62,7.46,.53,14.27,1.02,20.6,1.48,.12,0,.23,.11,.24,.23,.02,.12-.06,.24-.18,.28l-32,10.16s-.05,.01-.08,.01Zm-39.68-3.38l39.65,2.85,30.65-9.73c-5.94-.43-12.31-.89-19.24-1.38-4.29-.28-10.34-.62-14.81-.62-2.24,0-3.85,.09-4.79,.26-4.7,.85-9.13,2.04-9.18,2.06l-22.29,6.57Z"/>
                      </g>
                      <g>
                        <path class="cls-50" d="M154.9,17.91l31.9-10.12c-12.82-.94-25.89-1.89-42.13-3.07l-32,10.15,42.24,3.03Z"/>
                        <path class="cls-54" d="M154.9,18.17s-.01,0-.02,0l-42.23-3.03c-.13,0-.23-.11-.24-.23-.01-.12,.06-.24,.18-.28l32-10.15s.07-.02,.1-.01c15.15,1.09,27.55,2,39.55,2.88l2.58,.19c.13,0,.23,.11,.24,.23,.01,.12-.06,.24-.18,.28l-31.9,10.12s-.05,.01-.08,.01Zm-40.86-3.46l40.82,2.93,30.55-9.69-1.22-.09c-11.99-.88-24.37-1.78-39.5-2.87l-30.65,9.73Z"/>
                      </g>
                      <g>
                        <path class="cls-50" d="M253.38,24.99l31.92-10.13c-19.11-1.34-34.56-2.44-47.86-3.39l-31.81,10.09,47.74,3.43Z"/>
                        <path class="cls-54" d="M253.38,25.25s-.01,0-.02,0l-47.74-3.43c-.13,0-.23-.11-.24-.23-.01-.12,.06-.24,.18-.28l31.81-10.09s.06-.01,.1-.01c13.3,.95,28.75,2.05,47.86,3.39,.13,0,.23,.11,.24,.23,.02,.12-.06,.24-.18,.28l-31.92,10.13s-.05,.01-.08,.01Zm-46.36-3.85l46.33,3.33,30.57-9.7c-18.46-1.3-33.47-2.37-46.44-3.29l-30.46,9.67Z"/>
                      </g>
                      <g>
                        <path class="cls-50" d="M305.41,28.72l22-6.71c13.47-4.11-9.86-4.9-9.86-4.9-10.49-.73-20.07-1.4-28.89-2.02l-31.94,10.13,48.69,3.5Z"/>
                        <path class="cls-54" d="M305.41,28.99h-.02l-48.69-3.5c-.13,0-.23-.11-.24-.23-.01-.12,.06-.24,.18-.28l31.94-10.13s.07-.01,.1-.01c8.82,.62,18.4,1.29,28.89,2.02,2.33,.08,14,.58,14.29,2.77,.11,.87-1.23,1.68-4.37,2.64l-22,6.71s-.05,.01-.08,.01Zm-47.31-3.92l47.28,3.4,21.95-6.7c3.81-1.16,4.02-1.88,4-2.07-.17-1.28-8.17-2.13-13.8-2.32-10.48-.73-20.05-1.4-28.85-2.02l-30.59,9.71Z"/>
                      </g>
                      <g>
                        <polygon class="cls-50" points="155.54 19.01 117.31 31.14 161.44 34.29 199.61 22.17 155.54 19.01"/>
                        <path class="cls-54" d="M161.44,34.55s-.01,0-.02,0l-44.13-3.15c-.12,0-.23-.11-.24-.23-.01-.12,.06-.24,.18-.28l38.23-12.13s.06-.01,.1-.01l44.07,3.17c.12,0,.23,.11,.24,.23,.02,.12-.06,.24-.18,.28l-38.17,12.11s-.05,.01-.08,.01Zm-42.75-3.57l42.72,3.05,36.82-11.68-42.66-3.06-36.88,11.7Z"/>
                      </g>
                      <g>
                        <path class="cls-50" d="M215.93,38.17l29.5,2.1c16.98,1.04,27.25-1.56,27.25-1.56l29.94-9.13-48.6-3.49-38.09,12.09Z"/>
                        <path class="cls-54" d="M253.32,40.78h0c-2.59,0-5.25-.08-7.91-.24l-29.5-2.1c-.12,0-.23-.11-.24-.23-.01-.12,.06-.24,.18-.28l38.09-12.09s.06-.01,.1-.01l48.6,3.49c.13,0,.23,.11,.24,.23,.01,.13-.06,.24-.18,.28l-29.94,9.13c-.08,.02-7.33,1.82-19.43,1.82Zm-36.01-2.77l28.14,2.01c2.64,.16,5.29,.24,7.87,.24,12.04,0,19.22-1.78,19.3-1.8l28.59-8.72-47.15-3.39-36.74,11.66Z"/>
                      </g>
                      <g>
                        <polygon class="cls-50" points="202.94 22.41 164.78 34.52 212.59 37.93 250.68 25.84 202.94 22.41"/>
                        <path class="cls-54" d="M212.59,38.19s-.01,0-.02,0l-47.81-3.41c-.12,0-.23-.11-.24-.23-.01-.12,.06-.24,.18-.28l38.16-12.11s.06-.01,.1-.01l47.74,3.43c.13,0,.23,.11,.24,.23,.01,.12-.06,.24-.18,.28l-38.09,12.09s-.05,.01-.08,.01Zm-46.43-3.83l46.4,3.31,36.75-11.66-46.33-3.33-36.81,11.68Z"/>
                      </g>
                      <g>
                        <polygon class="cls-50" points="109.97 15.73 71.67 27.89 113.97 30.9 152.2 18.77 109.97 15.73"/>
                        <path class="cls-54" d="M113.97,31.16h-.02l-42.3-3.02c-.12,0-.23-.11-.24-.23-.01-.12,.06-.24,.18-.28l38.29-12.15s.06-.01,.1-.01l42.23,3.03c.13,0,.23,.11,.24,.23,.01,.12-.06,.24-.18,.28l-38.23,12.13s-.05,.01-.08,.01Zm-40.91-3.44l40.88,2.91,36.88-11.7-40.82-2.93-36.94,11.72Z"/>
                      </g>
                    </g>
                    <path class="cls-10" d="M33.44,22.83l31.66-9.57,36.6,2.33-33.31-.52s-.84,11.64-1.46,10.95c-.62-.69-1.01-10.95-2.86-10.69-3.32,.46-30.64,7.5-30.64,7.5Z"/>
                    <path class="cls-10" d="M72.71,11.01l29.68-7.99,36.6,2.33-34-.8s-.15,9.15-.77,8.46c-.62-.69-1.7-8.29-3.34-8.03-3.28,.52-28.17,6.04-28.17,6.04Z"/>
                    <path class="cls-10" d="M77.37,26.94l32.83-10.46,37.9,2.64-34.61-.83s-.32,11.68-.94,10.99c-.62-.69-2.79-10.53-4.75-10.26-3.33,.45-30.43,7.93-30.43,7.93Z"/>
                    <path class="cls-10" d="M116.57,14.17l29.27-8.74,37.08,2.87-34.47-1.35s.27,10.21-.34,9.52c-.62-.69-2.13-9.34-3.77-9.09-3.28,.52-27.76,6.78-27.76,6.78Z"/>
                    <path class="cls-10" d="M122.74,30.22l32.83-10.46,37.9,2.64-34.61-.83s-.61,12.1-1.23,11.41c-.62-.69-2.81-10.44-3.16-10.52-3.2-.79-31.73,7.76-31.73,7.76Z"/>
                    <path class="cls-10" d="M161.95,17.45l29.26-8.74,37.08,2.88-34.47-1.35s-.67,10.21-1.29,9.52c-.62-.69-2.05-9.07-2.82-9.09-3.36-.06-27.76,6.79-27.76,6.79Z"/>
                    <path class="cls-10" d="M169.83,34.01l32.83-10.46,37.9,2.64-34.61-.83s-.14,11.42-.75,10.73c-.62-.69-1.71-10.73-3.56-10.47-3.32,.46-31.8,8.39-31.8,8.39Z"/>
                    <path class="cls-10" d="M209.03,21.25l29.27-8.74,37.08,2.87-34.47-1.35s-.15,9.07-.76,8.38c-.62-.69-1.7-8.21-3.35-7.95-3.28,.52-27.76,6.78-27.76,6.78Z"/>
                    <path class="cls-10" d="M220.82,37.72l32.83-10.46,37.9,2.64-34.61-.83,.26,8.87s-.4,1.78-1.02,1.09c-.62-.69-1.71-9.95-3.56-9.69-3.32,.46-31.8,8.39-31.8,8.39Z"/>
                    <path class="cls-10" d="M260.02,24.96l29.27-8.74,37.08,2.88-34.47-1.35s.27,9.03-.34,8.34c-.62-.69-2.13-8.17-3.77-7.91-3.28,.52-27.76,6.79-27.76,6.79Z"/>
                  </g>
                  <g>
                    <path class="cls-53" d="M82.6,16.26c-2.87-.18-5.74-.36-8.61-.51-2.75-.14-5.68-.42-8.41,.02-3.08,.5-14.52,3.8-17.3,4.54-5.15,1.38-10.31,2.74-15.46,4.13,1.93,.51,5.44,1.03,11.6,1.49l23.91,1.7,32.15-10.2c-5.9-.62-11.94-.81-17.88-1.19Z"/>
                    <path class="cls-49" d="M68.33,27.91h-.02l-23.91-1.7c-5.51-.42-9.43-.92-11.64-1.5-.11-.03-.2-.13-.2-.25,0-.12,.08-.22,.19-.25,3.65-.98,7.31-1.96,10.96-2.93l4.5-1.2c.65-.17,1.77-.49,3.14-.87,4.41-1.23,11.8-3.3,14.18-3.68,1.01-.16,2.12-.24,3.41-.24s2.53,.07,3.76,.15c.43,.03,.86,.05,1.29,.07,2.72,.14,5.41,.3,8.61,.51,1.84,.12,3.7,.22,5.55,.32,4.06,.22,8.26,.44,12.34,.87,.12,.01,.22,.11,.23,.23,.01,.12-.06,.24-.18,.28l-32.15,10.2s-.05,.01-.08,.01Zm-34.43-3.48c2.29,.47,5.82,.89,10.54,1.25l23.86,1.7,30.89-9.8c-3.67-.35-7.41-.55-11.05-.74-1.86-.1-3.71-.2-5.56-.32-3.2-.2-5.89-.37-8.61-.51-.43-.02-.86-.05-1.29-.07-1.22-.07-2.49-.14-3.73-.14s-2.35,.08-3.33,.24c-2.35,.38-9.72,2.44-14.12,3.67-1.38,.38-2.5,.7-3.15,.87l-4.5,1.2c-3.32,.88-6.64,1.77-9.95,2.66Z"/>
                  </g>
                  <path class="cls-4" d="M82.6,16.26c-2.87-.18-5.74-.36-8.61-.51-2.75-.14-5.68-.42-8.41,.02-3.08,.5-14.52,3.8-17.3,4.54-5.15,1.38-10.31,2.74-15.46,4.13,1.93,.51,5.44,1.03,11.6,1.49l23.91,1.7,32.15-10.2c-5.9-.62-11.94-.81-17.88-1.19Zm3.13,4.52c-2.99,.81-5.96,1.64-8.93,2.49-2.83,.82-5.7,1.92-8.74,2.23-2.38,.24-4.83-.17-7.16-.46-3.24-.4-6.62-.7-9.91-.73-1.76-.01-8.05,1.04-8.78-.85-.5-1.31,4.03-1.98,5.08-2.2,4.28-.93,8.46-2.04,12.65-3.15,1.57-.57,3.18-1.12,4.88-1.38,2.42-.36,4.75-.18,7.18,.07,3.24,.34,6.51,.78,9.8,.68,2.67-.08,5.34-.29,7.87,.47,3.44,1.03-3.21,2.62-3.93,2.82Z"/>
                  <path class="cls-4" d="M84.75,22.23c-5.48,1.44-10.87,3.43-16.65,3.87-5.92,.45-11.79-.09-17.67-.68-3.21-.32-6.42-.34-9.64-.47-2.5-.1-5.13-.7-7.63-.42,1.99,.48,5.45,.97,11.25,1.41l23.91,1.7,19.35-6.14c-.98,.23-1.96,.47-2.93,.73Z"/>
                  <g>
                    <path class="cls-53" d="M195.72,10.74c-5.85-.03-11.53,1.69-16.91,3.2-5.02,1.4-9.94,2.97-14.81,4.63l38.3,2.75,27.34-8.68c-2.48-.44-28.23-1.87-33.93-1.9Z"/>
                    <path class="cls-49" d="M202.3,21.58s-.01,0-.02,0l-38.3-2.75c-.12,0-.22-.1-.24-.23-.02-.12,.06-.24,.17-.28,5.38-1.83,10.23-3.35,14.82-4.63l1.12-.32c5.05-1.42,10.26-2.89,15.69-2.89h.17c5.83,.03,31.55,1.48,33.97,1.9,.12,.02,.21,.12,.22,.24,0,.12-.07,.23-.18,.27l-27.34,8.68s-.05,.01-.08,.01Zm-36.99-3.18l36.96,2.65,26.13-8.29c-5.7-.54-27.39-1.73-32.69-1.76h-.17c-5.35,0-10.53,1.46-15.54,2.87l-1.12,.32c-4.23,1.18-8.68,2.56-13.56,4.21Z"/>
                  </g>
                  <g>
                    <path class="cls-53" d="M106.95,4.4c-11.02,.46-22.21,5.85-32.62,7.73l35,2.52,27.62-8.77c-18.57-.14-19.34-1.92-30.01-1.48Z"/>
                    <path class="cls-49" d="M109.33,14.9s-.01,0-.02,0l-35-2.51c-.13-.01-.24-.12-.24-.25,0-.13,.08-.25,.21-.27,4.17-.75,8.38-2.04,12.83-3.41,6.49-1.99,13.2-4.05,19.82-4.32,1.14-.05,2.19-.07,3.2-.07,3.29,0,5.68,.25,8.44,.55,3.9,.41,8.75,.93,18.38,1,.13,0,.24,.1,.26,.22,.02,.13-.06,.25-.18,.29l-27.62,8.77s-.05,.01-.08,.01Zm-33.04-2.9l33.01,2.37,26.02-8.26c-8.58-.11-13.11-.6-16.8-.99-2.75-.29-5.12-.54-8.38-.54-1,0-2.04,.02-3.18,.07-6.56,.27-13.23,2.32-19.69,4.3-3.79,1.16-7.41,2.27-10.98,3.05Z"/>
                  </g>
                  <path class="cls-4" d="M106.95,4.4c-11.02,.46-22.21,5.85-32.62,7.73l35,2.52,27.62-8.77c-18.57-.14-19.34-1.92-30.01-1.48Zm16.31,4.9c-3.79,1.25-7.96,2.54-12.01,3.28-5.26,.96-10.32,.18-15.62-.22-2.72-.2-5.44-.33-8.18-.24-1.04,.04-2.25,.08-3.14-.37-2.21-1.13,2.73-2.56,3.55-2.74,2.9-.62,5.86-1.2,8.77-1.88,4.04-1.65,8.31-2.19,12.78-1.21,2.85,.62,5.45,.68,8.4,.54,2.32-.11,4.72-.21,6.93,.38,2.51,.66-.39,2.09-1.49,2.45Z"/>
                  <path class="cls-4" d="M129.62,5.71c.68,.55,.58,1.46-.24,1.93-2.09,1.2-5.08,1.75-7.43,2.53-3.72,1.23-7.56,2.81-11.44,3.65-1.9,.41-3.14-.03-5.07-.15-1.97-.12-3.94-.23-5.91-.32-4.31-.21-8.58-.59-12.88-.86-1.79-.11-5.08,.31-6.58-.71-.4-.27-.44-.58-.29-.89-1.84,.49-3.65,.92-5.45,1.24l35,2.52,27.62-8.77c-2.83-.02-5.24-.08-7.34-.16Z"/>
                  <g>
                    <path class="cls-53" d="M149.73,7.41c-11.23,.17-20.85,5.66-31.35,7.87l36.52,2.62,27.85-8.84c-5.11-.54-27.1-1.75-33.02-1.66Z"/>
                    <path class="cls-49" d="M154.9,18.17s-.01,0-.02,0l-36.52-2.62c-.13-.01-.23-.11-.24-.24,0-.13,.08-.25,.21-.27,3.96-.84,7.87-2.16,11.65-3.45,6.26-2.13,12.73-4.33,19.75-4.43,.21,0,.43,0,.67,0,6.94,0,27.54,1.16,32.38,1.66,.12,.01,.22,.11,.23,.23,.01,.12-.06,.24-.18,.28l-27.86,8.84s-.05,.01-.08,.01Zm-34.75-3.02l34.72,2.49,26.58-8.43c-6.45-.55-24.62-1.54-31.05-1.54-.24,0-.46,0-.66,0-6.94,.1-13.37,2.29-19.59,4.4-3.25,1.1-6.59,2.24-9.99,3.07Z"/>
                  </g>
                  <g>
                    <path class="cls-53" d="M280.01,16.02c-3.42-.2-6.84-.25-10.27-.36-7.26-.25-14.03-1.11-21.28-1.41-3.85-.16-7.36-.23-11.15,.39-3.24,.53-7.43,1.8-10.5,2.68-5.24,1.5-10.29,3.29-15.59,4.64l42.17,3.03,27.99-8.88c-.46-.03-.91-.05-1.37-.08Z"/>
                    <path class="cls-49" d="M253.38,25.25s-.01,0-.02,0l-42.17-3.03c-.13,0-.23-.11-.24-.24-.01-.13,.07-.25,.2-.28,3.13-.8,6.23-1.77,9.23-2.71,2.07-.65,4.21-1.32,6.35-1.93l1.27-.37c2.87-.83,6.44-1.86,9.27-2.32,2.11-.34,4.28-.5,6.84-.5,1.5,0,2.98,.05,4.36,.11,3.47,.14,6.89,.42,10.19,.69,3.59,.29,7.31,.59,11.09,.72,1.07,.04,2.15,.07,3.22,.1,2.31,.06,4.7,.13,7.06,.27l1.37,.08c.13,0,.23,.1,.24,.23,.02,.13-.06,.24-.18,.28l-27.99,8.88s-.05,.01-.08,.01Zm-40.59-3.44l40.56,2.91,26.6-8.44c-2.33-.14-4.7-.2-7-.26-1.07-.03-2.15-.06-3.22-.1-3.79-.13-7.51-.43-11.11-.72-3.3-.27-6.71-.55-10.17-.69-1.37-.06-2.85-.11-4.34-.11-2.54,0-4.68,.16-6.76,.5-2.8,.46-6.35,1.48-9.2,2.31l-1.27,.37c-2.13,.61-4.27,1.28-6.34,1.93-2.52,.79-5.11,1.6-7.73,2.31Z"/>
                  </g>
                  <g>
                    <path class="cls-53" d="M293.84,17.83c-6.29,.4-12.67,2.37-18.5,4.05-4.13,1.19-8.09,2.65-12.23,3.8l42.3,3.04,22-6.71c1.95-.59,3.12-1.12,3.71-1.58-6.18-.82-31.19-2.99-37.28-2.6Z"/>
                    <path class="cls-49" d="M305.41,28.99h-.02l-42.3-3.04c-.13,0-.23-.11-.24-.24-.01-.13,.07-.24,.19-.28,2.18-.61,4.35-1.31,6.45-2,1.88-.61,3.83-1.25,5.78-1.81l1.42-.41c5.56-1.61,11.32-3.27,17.13-3.65,.49-.03,1.11-.05,1.86-.05,8.18,0,29.9,1.91,35.47,2.65,.1,.01,.19,.09,.22,.19,.03,.1,0,.21-.09,.28-.66,.51-1.9,1.05-3.8,1.63l-22,6.71s-.05,.01-.08,.01Zm-40.81-3.46l40.78,2.93,21.95-6.7c1.34-.41,2.36-.8,3.04-1.16-6.5-.79-26.83-2.55-34.68-2.55-.74,0-1.35,.02-1.83,.05-5.75,.37-11.48,2.02-17.01,3.63l-1.43,.41c-1.95,.56-3.89,1.19-5.77,1.8-1.65,.54-3.34,1.09-5.05,1.59Z"/>
                  </g>
                  <g>
                    <path class="cls-53" d="M159.05,21.68c-6.99,.64-30.81,8.47-36.43,9.83l38.81,2.77,33.26-10.55c-5.41-.49-29.22-2.63-35.65-2.05Z"/>
                    <path class="cls-49" d="M161.44,34.55s-.01,0-.02,0l-38.81-2.77c-.13,0-.23-.11-.24-.24-.01-.13,.07-.25,.2-.28,1.79-.43,5.52-1.55,9.84-2.85,9.22-2.77,21.84-6.56,26.62-6.99,.74-.07,1.75-.1,3-.1,8.29,0,25.63,1.5,32.7,2.15,.12,.01,.22,.11,.24,.23,.01,.12-.06,.24-.18,.28l-33.26,10.55s-.05,.01-.08,.01Zm-37.22-3.18l37.19,2.65,31.97-10.15c-7.7-.69-23.56-2.03-31.36-2.03-1.23,0-2.22,.03-2.95,.1-4.73,.43-17.32,4.21-26.52,6.97-3.33,1-6.31,1.89-8.33,2.45Z"/>
                  </g>
                  <g>
                    <path class="cls-53" d="M256.94,29.07c-7.96,.19-11.9,2.21-19.05,4.48-3.37,1.07-6.82,2-10.19,3.07-1.87,.59-3.67,1.37-5.53,2.01l23.26,1.66c16.98,1.04,27.25-1.56,27.25-1.56l24.37-7.43c-14.55-.37-27.65-2.5-40.11-2.21Z"/>
                    <path class="cls-49" d="M253.32,40.78h0c-2.59,0-5.25-.08-7.91-.24l-23.26-1.66c-.12,0-.22-.1-.24-.23-.02-.12,.06-.24,.17-.28,.82-.28,1.64-.59,2.43-.89,1.01-.38,2.05-.78,3.11-1.12,1.69-.54,3.43-1.05,5.11-1.54,1.67-.49,3.4-1,5.08-1.53,1.51-.48,2.86-.94,4.16-1.38,4.83-1.65,8.64-2.96,14.96-3.1,6.96-.16,14.07,.42,21.63,1.05,5.94,.49,12.07,1,18.49,1.16,.13,0,.24,.1,.25,.23,.02,.13-.06,.25-.18,.29l-24.37,7.43c-.08,.02-7.33,1.82-19.44,1.82Zm-29.89-2.34l22.02,1.57c2.64,.16,5.29,.24,7.87,.24,12.04,0,19.22-1.78,19.3-1.8l22.83-6.97c-5.86-.2-11.48-.67-16.93-1.12-7.55-.62-14.64-1.21-21.57-1.05-6.24,.15-10.02,1.44-14.81,3.08-1.31,.45-2.66,.91-4.17,1.39-1.69,.53-3.42,1.04-5.09,1.53-1.68,.49-3.41,1-5.1,1.53-1.04,.33-2.08,.73-3.08,1.11-.42,.16-.84,.32-1.27,.48Z"/>
                  </g>
                  <g>
                    <path class="cls-53" d="M230.88,26.89c-7.11-.74-14.59-1.87-21.79-1.71-7.55,.16-14.53,2.59-21.26,4.84-5.12,1.72-10.16,3.55-15.41,5.05l40.17,2.86,30.93-9.81c-4.22-.31-8.43-.79-12.63-1.23Z"/>
                    <path class="cls-49" d="M212.59,38.19s-.01,0-.02,0l-40.17-2.86c-.13,0-.23-.11-.24-.23-.01-.13,.07-.24,.19-.28,3.83-1.1,7.61-2.39,11.28-3.65,1.37-.47,2.74-.94,4.12-1.4l.65-.22c6.56-2.2,13.34-4.47,20.69-4.63,5.67-.13,11.54,.55,17.2,1.2,1.55,.18,3.1,.36,4.62,.52l2.49,.26c3.32,.35,6.75,.72,10.14,.97,.12,0,.23,.11,.24,.23,.02,.12-.06,.24-.18,.28l-30.93,9.81s-.05,.01-.08,.01Zm-38.7-3.28l38.67,2.76,29.6-9.39c-2.96-.24-5.93-.56-8.81-.87l-2.49-.26c-1.53-.16-3.07-.34-4.63-.52-5.65-.65-11.49-1.32-17.13-1.2-7.27,.16-14.01,2.42-20.53,4.61l-.65,.22c-1.38,.46-2.75,.93-4.12,1.4-3.22,1.1-6.54,2.24-9.9,3.25Z"/>
                  </g>
                  <g>
                    <path class="cls-53" d="M129.42,19.43c-2.91-.22-5.81-.47-8.71-.77-3.51-.36-7.3-.74-10.79-.1-5.88,1.08-11.12,3.27-16.73,4.86-5.45,1.55-10.83,3.21-16.24,4.84l37.01,2.64,33.11-10.51c-5.9-.19-11.79-.53-17.66-.96Z"/>
                    <path class="cls-49" d="M113.97,31.16h-.02l-37.01-2.64c-.13,0-.23-.11-.24-.23-.01-.12,.06-.24,.19-.28,1.48-.44,2.96-.89,4.44-1.34,3.85-1.17,7.84-2.37,11.8-3.5,1.98-.56,3.95-1.21,5.85-1.83,3.48-1.15,7.09-2.33,10.9-3.03,1.29-.24,2.69-.35,4.28-.35,2.25,0,4.56,.24,6.59,.44,2.89,.3,5.82,.56,8.7,.77,6.31,.47,12.08,.78,17.65,.96,.13,0,.23,.1,.25,.23,.02,.13-.06,.25-.18,.29l-33.11,10.51s-.05,.01-.08,.01Zm-35.57-3.06l35.54,2.53,31.62-10.03c-5.11-.18-10.41-.48-16.15-.91-2.88-.21-5.82-.48-8.71-.77-2.02-.21-4.31-.44-6.54-.44-1.56,0-2.92,.11-4.18,.34-3.78,.7-7.37,1.88-10.83,3.02-1.91,.63-3.88,1.28-5.87,1.84-3.96,1.12-7.94,2.33-11.79,3.49-1.03,.31-2.05,.62-3.08,.93Z"/>
                  </g>
                  <path class="cls-4" d="M195.72,10.74c-5.85-.03-11.53,1.69-16.91,3.2-5.02,1.4-9.94,2.97-14.81,4.63l38.3,2.75,27.34-8.68c-2.48-.44-28.23-1.87-33.93-1.9Zm17.16,5.5c-2.16,.54-4.18,1.31-6.29,1.95-5.32,1.63-10.06,.64-15.55,.22-2.84-.21-5.93-.48-8.78-.25-1.56,.13-3.14,.36-4.72,.33-1.91-.03-5.14-1.14-2.42-2.54,3.47-1.79,7.95-2.69,12.1-3.61,.61-.22,1.3-.35,2-.45,.01,0,.02,0,.03,0,.04-.01,.07-.01,.11-.01,.52-.07,1.04-.12,1.51-.17,.94-.1,1.86-.11,2.78-.08,1.57-.06,3.2,0,4.93,.17,3.29,.34,6.58,.86,9.91,.96,1.65,.05,3.31-.05,4.96,.04,.98,.05,5.17,.56,3.43,1.96-1,.79-2.63,1.14-3.99,1.48Z"/>
                  <path class="cls-4" d="M220.82,11.95c.31,.12,.62,.25,.9,.4,1.27,.68,.51,1.72-.58,2.17-4.16,1.72-8.77,2.47-12.96,4.09-1.94,.75-3.82,1.48-5.93,1.84-1.66,.28-3.44,0-5.1-.22-5.12-.68-10.38-.29-15.49-1-2.38-.33-4.82-.81-7.25-.75-1.23,.03-2.65,.16-3.82-.25-1.17-.41-1.24-.98-.75-1.59-1.96,.63-3.91,1.27-5.84,1.93l38.3,2.75,27.34-8.68c-.84-.15-4.34-.41-8.82-.69Z"/>
                  <path class="cls-4" d="M149.73,7.41c-11.23,.17-20.85,5.66-31.35,7.87l36.52,2.62,27.85-8.84c-5.11-.54-27.1-1.75-33.02-1.66Zm20.5,4.12c-1.09,.64-2.52,1.05-3.8,1.45-2.7,.85-5.39,1.7-8.07,2.58-1.92,.63-3.84,1.27-6.01,1.08-2.77-.24-5.48-.72-8.27-.93-2.86-.21-5.73-.32-8.61-.37-2.26-.04-4.86,.21-7.07-.22-3.71-.73,.65-2.23,2.18-2.64,3.62-.97,6.99-2.27,10.66-3.05,3.45-1.06,7.04-1.43,10.92-.92,2.86,.38,5.66,.98,8.59,.83,2.46-.12,4.91-.38,7.38-.18,2.04,.16,4.29,1.09,2.1,2.37Z"/>
                  <path class="cls-4" d="M177.16,8.63s.07,.07,.1,.1c.89,1.13-1.04,1.81-2.08,2.12-3.18,.97-6.37,1.91-9.52,2.94-3.27,1.07-6.54,2.53-10.08,2.91-4.17,.45-8.28-.41-12.43-.65-2.34-.14-4.68-.11-7.02-.21-2.3-.1-4.56-.42-6.85-.57-1.13-.07-5.36,.47-5.84-.95-.04-.12-.05-.23-.05-.34-1.65,.49-3.32,.93-5.01,1.29l36.52,2.62,27.85-8.84c-1.14-.12-3.13-.27-5.59-.44Z"/>
                  <path class="cls-4" d="M280.01,16.02c-3.42-.2-6.84-.25-10.27-.36-7.26-.25-14.03-1.11-21.28-1.41-3.85-.16-7.36-.23-11.15,.39-3.24,.53-7.43,1.8-10.5,2.68-5.24,1.5-10.29,3.29-15.59,4.64l42.17,3.03,27.99-8.88c-.46-.03-.91-.05-1.37-.08Zm-25.23,6.85c-5.26,1.11-10.88,.49-16.22-.04-3.37-.33-6.75-.56-10.13-.85-1.54-.13-4.47-.04-5.64-.87-1.68-1.2,2.36-2.31,3.38-2.6,4.66-1.34,9.45-2.85,14.48-3.26,.1,0,.17,0,.24,.03,3.24-.33,6.56-.26,9.78,.16,2.73,.36,5.34,1.08,8.14,1.12,1.52,.02,3.71-.1,5.05,.54,5.04,2.42-6.87,5.31-9.08,5.77Z"/>
                  <path class="cls-4" d="M280.01,16.02c-3.42-.2-6.84-.25-10.27-.36-.52-.02-1.03-.04-1.55-.07,.64,.28,1.19,.61,1.55,1.03,1.83,2.09-3.22,3.44-4.9,4.07-3.64,1.36-7.85,3.2-11.89,3.46-4.63,.3-9.52-.42-14.14-.73-5.02-.34-9.98-1.09-14.99-1.4-.73-.05-7.26,.27-7.22-1.11,0-.18,.06-.35,.14-.52-1.83,.56-3.67,1.09-5.54,1.57l42.17,3.03,27.99-8.88c-.46-.03-.91-.05-1.37-.08Z"/>
                  <path class="cls-4" d="M293.84,17.83c-6.29,.4-12.67,2.37-18.5,4.05-4.13,1.19-8.09,2.65-12.23,3.8l42.3,3.04,22-6.71c1.95-.59,3.12-1.12,3.71-1.58-6.18-.82-31.19-2.99-37.28-2.6Zm17.16,6.34c-2.1,.62-4.28,1.3-6.46,1.73-2.97,.59-5.74,.25-8.77,.13-5.87-.24-11.64-.83-17.53-.63-.94,.03-6.71,.46-6.09-1.17,.51-1.34,5.05-2.14,6.57-2.54,2.06-.54,4.2-1.13,6.36-1.55,1.59-.51,3.23-.9,5.03-.98,2.93-.13,5.85,.2,8.78,.24,3.17,.05,6.37,0,9.51,.3,1.8,.17,4.96,.3,6.3,1.35,1.91,1.49-2.33,2.71-3.71,3.12Z"/>
                  <path class="cls-4" d="M323.04,19.58c1.45,.62,2.2,1.4,.61,2.19-1.67,.83-3.71,1.19-5.51,1.77-2.36,.74-4.69,1.52-7.02,2.33-3.78,1.31-6.86,1.61-10.93,1.41-4.87-.24-9.78-.2-14.63-.59-2.39-.19-4.76-.44-7.13-.72-2.32-.27-4.55-.1-6.86-.26-1.2-.08-3.76-.58-2.94-1.72-1.82,.59-3.65,1.17-5.51,1.69l42.3,3.04,22-6.71c1.95-.59,3.12-1.12,3.71-1.58-1.62-.22-4.54-.53-8.08-.86Z"/>
                  <path class="cls-4" d="M159.05,21.68c-6.99,.64-30.81,8.47-36.43,9.83l38.81,2.77,33.26-10.55c-5.41-.49-29.22-2.63-35.65-2.05Zm14.18,7.11c-2.76,.76-5.44,1.65-8.2,2.39-6.06,1.62-12.03,.84-18.28,.32-2.22-.18-4.29-.15-6.51-.14-1.36,0-3.22,.08-4.43-.47-4.04-1.84,3.75-3.7,5.29-4.18,4.55-1.42,9.3-2.49,14.08-3.46,2.71-.82,5.54-1.24,8.82-.73,2.76,.43,5.43,1.05,8.27,1.11,1.43,.03,2.88,.06,4.28,.24,1.68,.22,4.41,1,2.52,2.46-1.56,1.21-3.73,1.89-5.85,2.47Z"/>
                  <path class="cls-4" d="M185.68,22.95c1.4,.55,2.05,1.32-.04,2.3-3.25,1.51-6.85,2.48-10.32,3.61-2.06,.67-4.12,1.35-6.17,2.03-1.97,.65-4.03,1.56-6.13,1.89-2.19,.35-4.32,.03-6.52-.11-2.24-.15-4.48-.27-6.72-.38-4.41-.2-8.83-.34-13.23-.74-1.7-.15-5.91,.06-6.85-1.48-.11-.19-.16-.36-.15-.52-3.06,.91-5.54,1.64-6.93,1.98l38.81,2.77,33.26-10.55c-1.64-.15-4.98-.45-9.02-.78Z"/>
                  <path class="cls-4" d="M256.94,29.07c-7.96,.19-11.9,2.21-19.05,4.48-3.37,1.07-6.82,2-10.19,3.07-1.87,.59-3.67,1.37-5.53,2.01l23.26,1.66c16.98,1.04,27.25-1.56,27.25-1.56l24.37-7.43c-14.55-.37-27.65-2.5-40.11-2.21Zm18.01,6.46c-2.37,.61-4.79,1.22-7.21,1.71-6.61,1.36-13.25,1.13-20.03,.76-2.9-.16-5.94-.45-8.85-.29-1.83,.1-3.67,.26-5.5,.1-.71-.06-2.17-.37-1.93-1.1,.29-.88,1.82-1.21,2.86-1.5,4.8-1.36,9.23-3.31,14.25-4.18,1.21-.39,2.47-.7,3.78-.83,2.99-.32,5.92,0,8.91,.22,3.6,.27,7.25,.29,10.81,.75,1.5,.19,6.28,.71,5.81,2.51-.27,1.02-1.64,1.53-2.91,1.86Z"/>
                  <path class="cls-4" d="M285.58,30.67c.31,.19,.58,.41,.79,.66,1.27,1.55-3.65,2.82-4.59,3.11-4.32,1.34-8.72,2.71-13.14,3.8-4.62,1.13-9.31,1.47-14.12,1.28-5.08-.2-10.13-.7-15.19-1.14-2.37-.2-4.6-.2-6.97-.07-1.48,.08-2.99,.14-4.32-.47-.64-.29-.88-.66-.85-1.06-1.69,.57-3.33,1.26-5.02,1.83l23.26,1.66c16.98,1.04,27.25-1.56,27.25-1.56l24.37-7.43c-3.92-.1-7.74-.33-11.47-.6Z"/>
                  <path class="cls-4" d="M230.88,26.89c-7.11-.74-14.59-1.87-21.79-1.71-7.55,.16-14.53,2.59-21.26,4.84-5.12,1.72-10.16,3.55-15.41,5.05l40.17,2.86,30.93-9.81c-4.22-.31-8.43-.79-12.63-1.23Zm-3.01,4.46c-2.11,.68-4.3,1.27-6.46,1.86-2.74,.76-5.43,1.85-8.25,2.42-5.68,1.16-11.64-.34-17.31-.84-2.63-.23-5.27-.43-7.91-.57-1.11-.06-2.38-.11-3.17-.75-2.1-1.67,4.65-3.24,5.71-3.58,4.29-1.41,8.64-2.88,13.35-3.32,2.76-.49,5.57-.71,8.55-.45,2.93,.27,5.85,.71,8.76,1.07,2.35,.29,4.97,.42,7.22,1.01,3.14,.82,2.04,2.31-.48,3.13Z"/>
                  <path class="cls-4" d="M235.58,27.38c.07,.05,.14,.09,.21,.14,1.89,1.43-1.39,2.43-2.63,2.86-4.97,1.72-10.05,3.15-15,4.94-1.92,.69-4.01,1.48-6.15,1.54-2.33,.06-4.66-.31-6.98-.45-5.5-.33-11.02-.66-16.48-1.35-2.76-.35-5.39-.1-8.12-.34-.53-.05-1.32-.16-1.65-.56-.28-.34-.24-.71,0-1.07-2.1,.7-4.22,1.37-6.37,1.99l40.17,2.86,30.93-9.81c-2.65-.19-5.3-.46-7.94-.74Z"/>
                  <path class="cls-4" d="M129.42,19.43c-2.91-.22-5.81-.47-8.71-.77-3.51-.36-7.3-.74-10.79-.1-5.88,1.08-11.12,3.27-16.73,4.86-5.45,1.55-10.83,3.21-16.24,4.84l37.01,2.64,33.11-10.51c-5.9-.19-11.79-.53-17.66-.96Zm1.46,4.99c-2.67,.85-5.41,1.57-8.13,2.32-2.68,.74-5.37,1.85-8.2,2.29-2.85,.44-5.54,.01-8.37-.31-3.3-.37-6.55-.39-9.87-.49-.97-.03-8.91,.02-7.95-1.87,.72-1.44,3.82-2.11,5.61-2.62,4.25-1.21,8.55-2.36,12.88-3.42,1.6-.6,3.32-1.07,5.11-1.07,2.82,0,5.34,.83,7.99,1.41,3.3,.71,6.2,.94,9.6,.56,1.74-.19,3.72-.41,5.24,.36,2.16,1.09-3.14,2.59-3.91,2.83Z"/>
                  <path class="cls-4" d="M136.75,19.92c1.23,.49,2.01,1.52,.5,2.32-3.09,1.63-6.78,2.6-10.18,3.69-3.75,1.21-7.46,2.86-11.46,3.46-4,.6-8.08,.18-12.11-.02-2.26-.12-4.51-.26-6.76-.49-2.05-.21-4.09-.64-6.16-.69-1.62-.04-6.33,.44-6.97-1.44-.06-.17-.06-.33-.03-.48-2.21,.67-4.42,1.34-6.63,2l37.01,2.64,33.11-10.51c-3.45-.11-6.89-.28-10.33-.48Z"/>
                  <g>
                    <path class="cls-47" d="M256.72,25.23l31.94-10.13c-1.13-.08-2.24-.16-3.35-.24l-31.92,10.13-47.74-3.43,31.81-10.09c-1.13-.08-2.24-.16-3.33-.24l-31.81,10.09-44.07-3.17,31.89-10.12c-1.11-.08-2.22-.16-3.32-.24l-31.9,10.12-42.24-3.03,32-10.15c-1.1-.08-2.21-.16-3.33-.24l-32,10.15-41.14-2.96-2.87,.84,41.31,2.97-38.3,12.15,3.34,.24,38.29-12.15,42.23,3.03-38.23,12.13,3.34,.24,38.23-12.13,44.07,3.17-38.17,12.11,3.34,.24,38.16-12.11,47.74,3.43-38.09,12.09,3.34,.24,38.09-12.09,48.6,3.49,2.79-.85-48.69-3.5Z"/>
                    <path class="cls-54" d="M215.93,38.43h-.02l-3.34-.24c-.13,0-.23-.11-.24-.23-.02-.12,.06-.24,.18-.28l36.79-11.68-46.33-3.33-38.11,12.09s-.07,.01-.1,.01l-3.34-.24c-.13,0-.23-.11-.24-.23-.02-.12,.06-.24,.18-.28l36.87-11.7-42.66-3.06-38.18,12.12s-.07,.01-.1,.01l-3.34-.24c-.12,0-.23-.11-.24-.23-.01-.12,.06-.24,.18-.28l36.93-11.72-40.82-2.93-38.25,12.14s-.06,.01-.1,.01l-3.34-.24c-.12,0-.23-.11-.24-.23-.01-.12,.06-.24,.18-.28l37-11.74-39.95-2.87c-.13,0-.23-.11-.24-.23-.01-.13,.06-.24,.19-.28l2.86-.84s.06-.01,.09-.01l41.09,2.95,31.95-10.14s.07-.01,.1-.01l3.33,.24c.13,0,.23,.11,.24,.23,.01,.12-.06,.24-.18,.28l-30.7,9.74,40.82,2.93,31.85-10.11s.06-.01,.1-.01l3.33,.24c.12,0,.23,.11,.24,.23,.01,.12-.06,.24-.18,.28l-30.59,9.71,42.66,3.06,31.76-10.08s.06-.02,.1-.01l3.34,.24c.12,0,.23,.11,.24,.23,.02,.12-.06,.24-.18,.28l-30.51,9.68,46.33,3.33,31.88-10.12s.06-.01,.1-.01l3.35,.23c.13,0,.23,.11,.24,.23,.02,.12-.06,.24-.18,.28l-30.64,9.72,47.33,3.4c.13,0,.23,.11,.24,.23,.01,.12-.06,.24-.18,.28l-2.79,.85s-.06,.01-.1,.01l-48.55-3.49-38.04,12.07s-.05,.01-.08,.01Zm-1.96-.66l1.93,.14,38.04-12.07s.06-.01,.1-.01l48.55,3.49,1.39-.43-47.29-3.4c-.13,0-.23-.11-.24-.23-.01-.12,.06-.24,.18-.28l30.63-9.72-1.93-.13-31.88,10.12s-.06,.01-.1,.01l-47.74-3.43c-.13,0-.23-.11-.24-.23-.01-.12,.06-.24,.18-.28l30.51-9.68-1.92-.14-31.76,10.08s-.06,.01-.1,.01l-44.07-3.17c-.12,0-.23-.11-.24-.23-.02-.12,.06-.24,.18-.28l30.59-9.71-1.92-.14-31.85,10.11s-.06,.01-.1,.01l-42.23-3.03c-.13,0-.23-.11-.24-.23-.01-.12,.06-.24,.18-.28l30.7-9.74-1.92-.14-31.95,10.14s-.06,.01-.1,.01l-41.1-2.95-1.43,.42,39.87,2.86c.12,0,.23,.11,.24,.23,.02,.12-.06,.24-.18,.28l-37,11.74,1.93,.14,38.25-12.14s.06-.01,.1-.01l42.23,3.03c.13,0,.23,.11,.24,.23,.01,.12-.06,.24-.18,.28l-36.93,11.72,1.93,.14,38.18-12.12s.06-.01,.1-.01l44.07,3.17c.12,0,.23,.11,.24,.23,.02,.12-.06,.24-.18,.28l-36.86,11.7,1.93,.14,38.11-12.09s.06-.01,.1-.01l47.74,3.43c.13,0,.23,.11,.24,.23,.01,.12-.06,.24-.18,.28l-36.79,11.67Z"/>
                  </g>
                  <path class="cls-16" d="M80.46,18c-.18,0-.37,0-.55,0-.74-.07-1.5-.09-2.27-.1-.74,.07-1.42,.13-1.97,.16-4.61,.25-8.67-1.55-13.06,.26-2.22,.92-4.45,1.91-7.04,2.18-1.43,.15-8.42,1.18-8.37,2.56,1.5,.97,6.06-.4,7.53-.83,2-.58,4.01-.99,6.07-1.42,1.95-.41,3.77-1.03,5.76-1.34,4.04-.64,8.45,.08,12.5,.51,.74,.08,1.92,.05,2.93-.18,.22,.05,.51-.06,.77-.23,.47-.18,.85-.42,1.05-.74,.65-1.07-2.73-.84-3.35-.83Z"/>
                  <path class="cls-42" d="M70.57,22.69c-1.88,.07-3.63,.8-5.53,.85-.64-.21-1.51,1.08-.96,1.09,.02,0,.04,0,.06,0,.52,.85,2.96,.59,3.92,.48,1.27-.14,3.27-.65,3.99-1.49,.71-.84-.6-.97-1.49-.93Z"/>
                  <path class="cls-16" d="M116.42,7.43c-1.65-.47-3.87,.34-5.58,.1-2.22-.31-4.59-1.24-6.92-.96-2.08,.25-4.48,1.04-6.32,1.75-.29,.11-.61,.2-.95,.27-.62,.13-1.55-.03-2.19-.02-1.02,0-4.65,.23-3.79,1.6,1.13,1.79,6.8-.16,8.32-.6,2.35-.68,4.5-1.05,7.05-.89,1.58,.1,10.7,1.47,10.53-1.11,0-.08-.04-.12-.15-.15Z"/>
                  <path class="cls-42" d="M112.17,10.49c-.02-.1-.04-.14-.17-.17-.78-.22-1.54-.13-2.31,.06-1.13,.27-2.27,.55-3.48,.59-1.28,.04-2.56-.17-3.36,.67-.14,.15-.25,.36-.09,.52,.41,.4,1.29,.37,2.04,.34,2.42,.65,7.74-.03,7.38-2Z"/>
                  <path class="cls-16" d="M122.06,21.49c-2.06-.14-3.68-.9-5.6-1.38-1.64-.41-3.17-.6-4.88-.34-2.09,.32-3.82,1.43-5.82,1.95-2.97,.76-6.06,1.28-8.92,2.24-.28,.02-.55,.06-.8,.16-.85,.33-1.71,.75-2.11,1.42-1,1.69,1.97,2.38,3.82,1.64,1.92-.76,3.37-1.65,5.5-2.2,1.53-.4,3.07-.83,4.58-1.28,1.62-.48,2.98-1.1,4.81-1.03,2.18,.09,4.2,.43,6.35,.72,1.1,.15,4.43,.03,4.43-1.29,0-.54-.76-.57-1.35-.61Z"/>
                  <path class="cls-42" d="M120.49,25.16c-.29-.6-3.94,.97-4.25,1.02-2.18,.36-6.8-.52-7.65,1.61-.43,1.07,1.43,.85,2.4,1,.38,.05,.76,.06,1.13,.02,.65-.02,1.31-.17,1.94-.24,2.03-.22,3.86-1.2,5.51-2.01,.68-.33,1.2-.8,.92-1.39Z"/>
                  <path class="cls-16" d="M162.28,10.3c-.53-1.04-5.14-.57-6.27-.63-3.69-.17-6.89-1.53-10.45-.35-3.33,1.1-6.59,2.17-10.14,2.89-.61,.12-1.64,.3-2.56,.59-1.02,.23-1.95,.59-2.34,1.34-.06,.11-.21,.39,0,.48,1,.44,2.08,.08,3.04-.27,1-.37,1.99-.69,3-.98,1.15-.12,2.32-.2,3.47-.37,3.01-.44,5.49-1.75,8.65-1.73,3.11,.02,6.15,.61,9.25,.65,1.5,.02,3.02-.17,4.04-.99,.18-.14,.41-.43,.31-.63Z"/>
                  <path class="cls-42" d="M158.92,13.87c-1.11,.11-2.2,.47-3.25,.74-1.18,.3-2.51,.18-3.74,.35-.31,.04-.61,.35-.56,.56,.24,1.05,2.33,.83,3.36,.64,1.48-.27,2.99-1.09,4.1-1.82,.11-.07,.49-.51,.09-.47Z"/>
                  <path class="cls-16" d="M167.96,23.84c-2.16-.13-4.11-.47-6.2-.86-1.47-.27-2.75-.33-4.16,.18-1.82,.66-3.6,1.29-5.52,1.81-.53,.14-1.09,.31-1.67,.48-.24,.05-.48,.1-.71,.15-1.47,.3-3.12,.01-4.56,.42-.86,.24-3.11,2.22-.91,2.29,3.03,.1,5.83-.96,8.54-1.78,1.85-.56,3.22-1.31,5.33-1.31,2.18,0,4.4,.3,6.54,.6,2.08,.29,5.36,1.22,7.09-.2,1.95-1.59-2.48-1.7-3.76-1.77Z"/>
                  <path class="cls-42" d="M166.7,29.24c-1.71,.24-3.23,.98-4.91,1.31-1.84,.36-4.22,.16-6.16,.2-.11,0-.41,.19-.27,.28,2.98,1.84,8.67,.28,11.26-1.29,.12-.07,.52-.56,.09-.5Z"/>
                  <path class="cls-16" d="M207.3,13.28c-1.63-.5-3.83-.2-5.56-.25-2.48-.08-4.88-.6-7.33-.83-2.76-.26-5.12,.2-7.43,.85-2.32,.46-4.54,1.16-6.89,1.55-1.51,.25-2.61,.61-3.2,1.67-.08,.15-.16,.32,0,.45,.76,.64,2,.16,2.75-.22,1.52-.78,3.32-1.27,5.15-1.67,2.3-.43,4.61-.8,6.96-.72,2.15,.07,4.4,.49,6.55,.66,2.11,.17,4.18-.11,6.28-.16,1.12-.03,2.7-.23,2.79-1.21,0-.05-.02-.09-.07-.13Z"/>
                  <path class="cls-42" d="M207.52,16.53c-2.03,.2-3.97,.64-6.01,.75-1.89,.1-4.05-.1-5.89,.14-.13,.02-.46,.28-.25,.34,1.64,.43,3.28,.89,5.06,1,2.33,.15,4.77-.69,6.74-1.49,.2-.08,.97-.79,.35-.73Z"/>
                  <path class="cls-16" d="M258.15,17.59c-.86-.94-4.79-.75-6.28-1.01-2.62-.45-5.06-1.14-7.8-1.17-2.45-.02-4.39,.63-6.6,1.36-2.09,.69-4.17,1.39-6.34,1.9-1.67,.03-3.58,.03-4.73,.82-.31,.21-1.01,.84-.57,1.16,1.68,1.2,5.2-.13,6.91-.73,2.91-1.03,5.77-2.52,9.15-2.56,1.77-.02,3.34,.54,4.92,1.02,1.51,.46,3.1,.58,4.71,.75,2.17,.24,4.89,.39,6.39-1.04,.1-.1,.38-.37,.25-.51Z"/>
                  <path class="cls-42" d="M255.36,21.51c-1.78-.05-3.55,.47-5.37,.47-1.74,0-3.5-.08-5.25-.1-.09,0-.3,.17-.17,.2,3.51,.75,7.17,1.93,10.49,.05,.09-.05,.72-.6,.3-.62Z"/>
                  <path class="cls-16" d="M222.17,27.97c-.48-.34-.92-.24-1.6-.26-1.43-.04-2.86-.15-4.27-.27-3.02-.27-6.01-.87-9.05-.89-2.34-.01-4.97,.99-7.08,1.63-1.5,.45-3,.89-4.52,1.3-2.86,.31-6.26,.72-6.92,2.67-.3,.88,1.5,.81,2.2,.77,2.2-.14,4.59-1.41,6.47-2.14,2.41-.94,4.89-1.84,7.69-1.73,2.68,.1,5.08,.82,7.74,1.02,2.65,.2,7.63,.45,9.24-1.56,.11-.14,.3-.39,.1-.53Z"/>
                  <path class="cls-42" d="M216.63,32.91c-3.76,.78-7.51,2.11-11.55,1.23-.11-.02-.31,.16-.23,.23,3,2.57,8.49,1.03,11.47-.58,.18-.1,1.02-1.03,.3-.88Z"/>
                  <path class="cls-16" d="M267.19,31.46c-1.31-.45-3.1-.32-4.52-.46-2.27-.23-4.57-.31-6.84-.55-1.66-.17-3.09,.01-4.43,.36-1.38,.21-2.65,.77-3.93,1.32-.43,.1-.86,.2-1.3,.29-1.57,.32-3.34,.37-4.66,1.1-.18,.1-1.01,.94-.29,.84,1.37-.19,2.74-.5,4.08-.85,.33-.05,.65-.1,.95-.17,1.31-.27,2.65-.57,3.92-.94,2.31-.09,4.68,.58,6.9,.84,2.63,.31,5.23,.05,7.85-.15,1.08-.08,2.16-.52,2.34-1.33,.02-.07,.07-.25-.07-.3Z"/>
                  <path class="cls-42" d="M267.93,35.92c-2.02-.06-3.96,.55-5.99,.58-2.3,.03-4.95,.45-7.2,.23-.17-.02-.58,.32-.39,.4,3.6,1.44,9.75,1.21,13.18-.38,.15-.07,.95-.82,.4-.84Z"/>
                  <path class="cls-16" d="M299.42,20.27c-1.22-.36-3.13-.13-4.46-.18-1.7-.06-3.3-.38-5.02-.28-.62,.03-1.26,.17-1.9,.35-1.72,.3-3.41,.78-5.13,1.05-1.64,.26-3.19,.35-4.48,1.19-.23,.15-.76,.63-.55,.89,.68,.85,6.36-.67,7.62-.92,1.62-.31,2.92-.64,4.65-.46,1.81,.19,3.44,.45,5.3,.41,1.41-.03,2.99-.5,3.84-1.32,.18-.17,.57-.6,.13-.73Z"/>
                  <path class="cls-42" d="M306.57,23.9c-1.42,.01-2.77,.36-4.18,.41-1.41,.05-2.78,.25-4.18,.32-.18,0-.53,.31-.37,.43,1.89,1.43,6.38,.63,8.34-.34,.13-.06,.93-.82,.4-.82Z"/>
                  <path class="cls-44" d="M55,21.05c-1.21-.07-2.41,.16-3.6,.3-1.06,.12-1.87,.41-2.59,.96-.13,.08-.25,.2-.28,.26,0,0,0,0,0,0-.05,.11-.09,.25,.13,.24,.95-.07,1.92-.31,2.88-.41,1.1-.11,2.08-.39,3.08-.74,.13-.05,.78-.59,.37-.61Z"/>
                  <path class="cls-44" d="M81.78,18.82c-.85-.57-2.29-.22-3.38-.22-1.97,0-3.96-.05-5.91-.26-1.53-.16-3.09-.19-4.63-.29-.56-.03-1.14-.15-1.71-.04-.35,.07-2.47,.73-2.54,.7-.16-.06-.46,.19-.38,.3,.02,.03,.04,.05,.06,.08,.03,.03,.06,.04,.11,.03,2.84-.52,5.65-.14,8.55-.15,1.41,0,2.8,0,4.21-.04,1.36-.03,4-.41,5.1,.35,.19,.13,.72-.32,.51-.46Z"/>
                  <path class="cls-44" d="M119.87,7.19c-.12-.02-.38,.2-.26,.27,.7,.41,1.73,.35,2.38,.79,.52,.35-.32,.58-.69,.76-.54,.26-1.09,.5-1.63,.77-.1,.05-.47,.5-.14,.42,.79-.18,1.54-.47,2.24-.8,.58-.27,1.17-.61,1.35-1.12,.45-1.3-2.28-.89-3.24-1.08Z"/>
                  <path class="cls-45" d="M119.65,21.43c-2.72-.68-5.3-1.56-8.21-1.08-3.69,.62-6.78,2.63-10.66,2.93-.08,0-.25,.19-.14,.19,2.92,.11,5.68-.94,8.23-1.81,2.21-.76,3.97-.87,6.28-.39,1.38,.28,2.74,.47,4.19,.52,.17,0,.54-.3,.31-.36Z"/>
                  <path class="cls-45" d="M132.26,21.55c-.12-.05-.37,.15-.3,.24,.23,.29,.23,.52,.18,.84-.03,.21-.7,.29-.97,.35-.92,.21-1.88,.45-2.73,.78-.1,.04-.64,.5-.31,.51,.68,0,1.33-.15,1.97-.31,.6-.16,1.31-.28,1.85-.54,1-.47,1.51-1.36,.3-1.87Z"/>
                  <path class="cls-44" d="M107.48,7.44c-2.61-1.82-7.2,.52-9.83,1.23-.04,0-.18,.13-.09,.14,1.37,.14,2.75-.36,3.98-.74,1.16-.35,2.31-.55,3.56-.51,.75,.02,1.41,.15,2.18,.1,.09,0,.28-.16,.19-.22Z"/>
                  <path class="cls-44" d="M152.52,9.84c-1.45-.32-3.67-1.09-5.24-.59-1.81,.57-3.51,1.29-5.28,1.9-.05,.02-.19,.18-.08,.16,1.39-.29,2.76-.67,4.11-1.04,2.01-.54,4.18-.02,6.29-.14,.11,0,.37-.24,.2-.28Z"/>
                  <path class="cls-44" d="M166.29,9.87c-.13,0-.46,.27-.26,.3,.53,.09,1.3,.48,1.59,.81,.45,.5-1.01,.86-1.46,1.08-.07,.03-.52,.47-.22,.46,1.15-.04,2.17-.68,2.67-1.38,.68-.96-1.45-1.29-2.32-1.27Z"/>
                  <path class="cls-44" d="M196.25,12.85c-1.26-.51-2.9-.36-4.3-.33-.64,.01-1.26,.12-1.88,.23-.5,.09-.96,.4-1.48,.43-.1,0-.34,.22-.18,.25,.93,.19,2.26-.08,3.26-.06,1.34,.03,2.78,.21,4.09,.04,.18-.02,.77-.45,.48-.56Z"/>
                  <path class="cls-44" d="M201.32,17.9c-.28,.04-.6,.06-.86,.14-.14,.04-.34,.06-.49,.08-.05,0-.11,.04-.14,.03-.06-.02-.11,0-.16,0-.09,.02-.16,.09-.17,.15-.04,.22,.31,.24,.56,.27,.44,.06,.84-.01,1.18-.22,.11-.06,.49-.53,.09-.47Z"/>
                  <path class="cls-44" d="M251.83,16.83c-2.47-.36-4.77-1.01-7.31-1.1-2.15-.08-3.87,.48-5.79,1.11-.09,.03-.34,.3-.13,.27,2.06-.3,3.82-.6,5.95-.51,2.39,.1,4.54,.82,6.98,.63,.15-.01,.54-.37,.29-.4Z"/>
                  <path class="cls-44" d="M216.83,28.02c-2.72-.43-5.64-.64-8.41-.91-2.43-.24-4.13,.82-6.35,1.11-.08,.01-.31,.21-.17,.23,.49,.05,.92-.1,1.4-.17,1.77-.29,3.34-.41,5.16-.23,2.79,.27,5.26,.62,8.1,.35,.14-.01,.5-.33,.27-.37Z"/>
                  <path class="cls-44" d="M259.64,31.18c-1.49-.23-3.19-.23-4.72-.31-.71-.03-1.36,.12-2.01,.29-.35,.09-.78,.35-1.14,.32-.16-.01-.31,.16-.29,.26,0,.04,0,.07,.03,.1,.03,.03,.06,.04,.11,.03,1.39-.14,2.59-.19,3.98-.03,1.29,.14,2.5,.17,3.73-.16,.14-.04,.62-.45,.3-.5Z"/>
                </g>
                <path class="cls-9" d="M251.49,49.22s8.13,2.29,18.26,.36l60.36-18.59c-29.53,9.3-59.04,19.01-63.78,21.27,0,0-1.73,2.27-2.02,3.5-1.06,4.36-1.93,13.99-3.09,17.75,0,0-1.6,.48-1.45-2.81,.08-1.8,.84-17.34-1.57-18.58-2.41-1.24-9.97-3.34-6.7-2.89Z"/>
              </g>
              <path class="cls-20" d="M35.31,37.01l1.86,15.25s-.23,4.17,4.65,4.64c4.88,.46,68.46,4.49,68.46,4.49l-66.22-7.75s-2.28-.07-2.79-5.37c-.54-5.63-.78-11.26-.78-11.26h-5.19Z"/>
            </g>
          </g>
          <g>
            <g>
              <path class="cls-55" d="M43.91,73.35S-6.21,82.05,.64,93.44c6.85,11.4,54.26,6.22,45.69,12.43-8.57,6.22,8.57,13.47,50.83,10.88,42.26-2.59,67.96-14.51,55.97-19.69-11.99-5.18,1.14-5.7,13.71-7.77,12.57-2.07,24.08-12.6-48.78-18.73-72.87-6.13-74.15,2.79-74.15,2.79Z"/>
              <path class="cls-15" d="M37.35,101.16c-6.7-1.03-13.54-.66-20.24-1.71-5-.78-10.96-1.63-14.99-4.97-.65-.54-1.38-1.22-1.92-1.99,.1,.32,.25,.64,.44,.97,5.46,9.09,36.7,7.64,44.8,9.82-2.42-.85-7.38-2-8.1-2.11Z"/>
              <path class="cls-1" d="M80.83,115.96c-7.92,.08-15.89-.34-23.7-1.78-3.24-.6-6.83-1.15-9.73-2.83-2.11-1.22-2.47-2.17-2.5-4.14-4.59,5.86,12.98,11.96,52.26,9.55,9.17-.56,17.55-1.56,24.95-2.84-13.68,1.66-27.49,1.91-41.29,2.04Z"/>
              <path class="cls-5" d="M171.62,79.77c.7,.62,1.27,1.31,1.65,2.1,1.38,2.89-.86,4.66-3.53,5.47-4.14,1.25-8.56,1.32-12.78,2.25-2.53,.56-5.07,1.1-7.59,1.69-.67,.16-4.92,1.3-3.73,2.53,1.43,1.47,4.02,1.93,5.9,2.55,.06,.02,.13,.04,.2,.06-9.47-4.59,3.08-5.15,15.11-7.13,7.23-1.19,14.11-5.18,4.77-9.53Z"/>
              <path class="cls-11" d="M118.06,70.56c-72.87-6.13-74.15,2.79-74.15,2.79,0,0-50.12,8.69-43.27,20.09,6.85,11.4,54.26,6.22,45.69,12.43-8.57,6.22,8.57,13.47,50.83,10.88,42.26-2.59,67.96-14.51,55.97-19.69-11.99-5.18,1.14-5.7,13.71-7.77,12.57-2.07,24.08-12.6-48.78-18.73ZM27.57,97.77c-3.1,1.39-6.89,.29-10.09-.06-2.73-.3-5.49-.67-8.12-1.47-2.13-.64-5.32-1.63-6.3-3.9-2.91-6.68,8.77-9.76,12.83-11.4,.16-.06,.3-.06,.41,0,2.55-.73,5.22-.96,7.63-.12,3.21,1.13,5.02,5.59,5.97,8.56,1.01,3.18,1.17,6.82-2.31,8.38Zm36.94,14.95c-3.25,.8-6.58-.13-9.77-.76-2.04-.41-6.13-1.21-6.8-3.67-.77-2.8,1.94-5.41,4.06-6.8,2.04-1.34,4.26-2.26,6.49-3.19,3.13-2.31,7.24-4.61,8.43,.23,.67,2.73,.97,6.02,.93,8.83-.03,2.32-.8,4.75-3.34,5.37Zm83.35-10.59c-2.27,3.35-7.07,4.52-10.75,5.49-5.92,1.56-11.98,2.39-18.02,3.32-1.19,.18-6.11,1.09-5.37-1.61,.44-1.59,2.15-2.83,3.46-3.67,2.58-1.66,4.5-3.14,5.97-5.91,3.04-5.74,18.71-4.49,20.78-3.8,2.35,.78,5.87,3.31,3.93,6.18Zm24.14-16.33c-2.42,.82-5.16,.91-7.7,1.13-2.47,.22-5.8,.61-8.06-.74-3.89-2.34-1.62-7.19,2.25-7.7,3.58-.48,8.01,.29,11.58,1.87,1.24,.28,2.42,.75,3.17,1.58,1.38,1.53,.63,3.23-1.23,3.86Z"/>
              <path class="cls-14" d="M73.29,93.09c3.96,2.26-.14,8.85-1.49,11.51-1.01,1.99-5.02,7.05-1.77,8.49,2.27,1.01,4.9,.77,7.33,.83,6.85,.16,13.62,1.41,20.51,.85,3.94-.32,8.13-1,11.61-3.01,1.64-.94,3.15-2.05,4.59-3.26,.67-1.18,1.97-2.12,3.04-2.81,.29-.29,.57-.58,.85-.87,1.36-1.41,2.61-2.95,4.02-4.31,.77-.74,1.91-1.59,1.7-2.89-.03-.17-.18-.71-.11-.97,.37-1.24,1.25-1.62,2.52-1.74,.71-.07,1.44-.1,2.18-.09,4.34-1.18,8.81-1.7,13.26-2.39,2.26-.35,4.48-.91,6.74-1.26,1.8-.28,3.67-.41,5.42-.94,2.35-.72,2.85-1.99,2.37-4.17-2.04-1.34-2.22-3.42-1.3-5.06,0-.04-.02-.08-.02-.12-.36-2.2-.18-4.2,1.47-5.49-8.86-1.74-21.22-3.4-38.13-4.82-49.58-4.17-66.01-1.38-71.46,.84-1.03,5.74-3.21,11.2-4.9,16.8-.86,2.85-1.45,5.72-2.05,8.63-.23,1.11-1.02,3.71-.87,5.51,.68,.06,1.33,.12,1.95,.19,.83-.31,1.66-.61,2.5-.91,6.45-2.24,13.05-4.08,19.39-6.63,2.73-1.1,7.71-3.58,10.65-1.9Z"/>
              <g>
                <g>
                  <g>
                    <g>
                      <path class="cls-18" d="M115.42,23.39l-19.67,4.28s-2.32,.81-2.79,4.07c0,0-2.39,15.72-5.06,22.32-1.3,3.21-3.48,7.87,.44,9.43,3.92,1.56,16.04,4.39,22.92,7.39,0,0,5.2,2.51,7.42,1.88,2.34-.66,17.51-4.4,17.51-4.4,0,0,3.6-.46,4.31-3.97,1.6-7.97,2.06-11.82,5.45-21.4,3.12-8.81,2.5-10.64-2.95-12.25-2.46-.73-13.42-3.31-18-5.53-5.42-2.63-9.59-1.82-9.59-1.82Z"/>
                      <path class="cls-41" d="M86.95,63.1h0c-2.33-2.01-.77-5.84,.37-8.63l.22-.55c2.62-6.48,5.01-22.08,5.04-22.24,.49-3.44,2.94-4.33,3.04-4.37l19.71-4.3c.18-.04,4.36-.8,9.83,1.85,3.53,1.71,10.84,3.62,15.2,4.77,1.22,.32,2.19,.57,2.74,.74,1.83,.54,2.95,1.06,3.72,1.73,2.2,1.9,1.58,5.06-.53,11.01-2.84,8-3.63,12.09-4.73,17.75-.22,1.12-.45,2.31-.71,3.6-.75,3.73-4.59,4.27-4.63,4.27-.11,.03-15.15,3.74-17.46,4.39-2.33,.66-7.47-1.8-7.69-1.9-4.14-1.81-10.31-3.59-15.27-5.02-3.26-.94-6.07-1.75-7.63-2.37-.49-.19-.91-.44-1.25-.74Zm59.4-30.43c-.68-.59-1.74-1.07-3.44-1.58-.54-.16-1.5-.41-2.72-.73-4.39-1.15-11.74-3.08-15.34-4.82-5.25-2.54-9.31-1.79-9.35-1.79l-19.66,4.28s-2.07,.78-2.5,3.75c-.02,.16-2.43,15.85-5.08,22.41l-.23,.56c-1.11,2.72-2.5,6.11-.58,7.77h0c.28,.24,.63,.44,1.04,.61,1.52,.6,4.32,1.41,7.56,2.34,4.98,1.43,11.17,3.22,15.38,5.06,1.42,.68,5.46,2.34,7.16,1.86,2.32-.65,17.37-4.37,17.52-4.4,.18-.03,3.39-.49,4.04-3.68,.26-1.29,.49-2.48,.71-3.6,1.11-5.69,1.91-9.81,4.76-17.86,2.23-6.28,2.41-8.75,.75-10.19Z"/>
                    </g>
                    <path class="cls-6" d="M95.58,28.72c2.7-.06,5.14,1.59,7.42,2.79,2.78,1.47,5.77,1.74,8.71,2.71,2.83,.93,5.43,2.4,8.21,3.46,3.16,1.2,6.11,1.46,9.43,.8,3.56-.71,6.97-1.92,10.42-3.01,1.76-.56,6.25-1.95,5.54-3.88-.65-.31-1.41-.59-2.31-.86-2.46-.73-13.42-3.31-18-5.53-5.42-2.63-9.59-1.82-9.59-1.82l-19.67,4.28s-.87,.31-1.65,1.28c.45-.14,.93-.22,1.48-.23Z"/>
                    <path class="cls-8" d="M138.24,65.95c-1.83,.25-3.42-.85-4.98-1.66-4.3-2.22-8.45-5.16-13.16-6.45-1.25-.34-2.42-.55-3.72-.43-.87,.08-1.62,.09-2.4-.32-1.4-.74-1.02-3.05-1-4.3,.04-2.56,.02-5.14,.36-7.69,.22-1.64,.92-3.52,.53-5.18-.65,2.49-1.16,5-1.66,7.52-.29,1.45-.52,2.88-.72,4.35-.15,1.1-.33,2.28-.87,3.27-1.86,3.43-5.28,3.5-8.78,3.77-2.82,.21-5.68,.12-8.46,.67-1.69,.34-3.71,.8-5.14-.49-.87-.79-1.19-1.72-1.23-2.72-1.06,2.84-1.73,5.96,1.34,7.18,3.92,1.56,16.04,4.39,22.92,7.39,0,0,5.2,2.51,7.42,1.88,2.34-.66,17.51-4.4,17.51-4.4,0,0,3.42-.45,4.24-3.72-.63,.65-1.34,1.2-2.2,1.31Z"/>
                    <path class="cls-3" d="M140.5,64.38c1.6-7.97,2.06-11.82,5.45-21.4,3.12-8.81,2.5-10.64-2.95-12.25-.64-.19-1.85-.5-3.38-.91,.42,.54,.66,1.2,.57,2.01-.2,2.07-3.23,2.91-4.68,3.3-2.87,.77-5.87,1.43-8.79,1.19-4.66-.38-8.69-2.54-13.14-3.73-4.31-1.15-8.71-1.79-13.12-2.52-1.05-.17-4.27-.81-5.5-1.98-.72,.52-1.74,1.6-2.03,3.63,0,0-2.39,15.72-5.06,22.32-1.3,3.21-3.48,7.87,.44,9.43,3.92,1.56,16.04,4.39,22.92,7.39,0,0,5.2,2.51,7.42,1.88,2.34-.66,17.51-4.4,17.51-4.4,0,0,3.6-.46,4.31-3.97Zm-30.59,3.26c-3.48-.58-8.67-4.41-14.58-4.81-2.54,.09-4.36-.27-6.04-2.43-1.8-2.32,.23-6.05,1.24-8.36,2.08-4.75,2.74-9.46,2.88-14.55,.07-2.62,.98-6.05,4.09-5.63,2.42,.33,4.24,2.01,6.4,3.02,3.04,1.42,6.31,2.02,9.57,2.66,2.47,.48,7.49,2.03,6.94,5.79-.24,1.64-1.02,2.88-1.52,4.44-.49,1.53-.87,3.08-1.21,4.64-.63,2.93-1.3,7.52-2.05,10.42-.89,3.46-2.2,5.4-5.75,4.81Z"/>
                    <path class="cls-16" d="M140.5,64.38c1.6-7.97,2.06-11.82,5.45-21.4,2.53-7.13,2.6-9.68-.35-11.26-1.24,2.57-7.16,4.05-9.1,4.53-3.39,.84-6.89,2.34-10.34,2.53-2.07,.11-4.08-.25-6.06-.78,1.84,1.38,5.36,.44-.4,19.81-1.05,3.52-2.85,7.57-2.46,11.32,.77-2.19,1.13-4.47,1.66-6.74,.5-2.08,1.22-3.98,2.08-5.92,1.65-3.74,3.4-8.18,6.4-10.94,2.15-1.98,5.12-2.13,7.71-2.8,2.15-.55,4.98-1.45,6.65,.46,1.39,1.59,.8,4.52,.27,6.43-.75,2.7-1.95,5.2-2.82,7.85-1.1,3.36-.17,7.43-2.83,10.19-.28,.3-.58,.59-.9,.87,.45-.11,.71-.18,.71-.18,0,0,3.6-.46,4.31-3.97Z"/>
                    <path class="cls-33" d="M123.95,26.21s-3.83-2.07-8.59-1.01c-4.76,1.06-15.89,2.51-15.32,3.06,.57,.55,8.32-.64,12.51-1.47,4.19-.82,7.8-.31,10.28,.37,2.48,.68,4.91,.48,1.12-.95Z"/>
                    <path class="cls-33" d="M92.55,51.67c-1.23,3.33-2.3,5.23-2.46,6.52,.86-2.1,2.39-4.19,3.19-5.68,1.85-3.41,3.11-6.93,3.18-10.84,.05-2.63-.12-5.24,.03-7.86-.39,.18-1.63,.93-1.48,3.05,.17,2.53-.53,9.59-2.47,14.81Z"/>
                    <path class="cls-23" d="M97.2,30.72l23.61,8.27s2.53,.77,1.27,4.6c-1.11,3.37-3.55,13.17-4.25,17.12-.78,4.44-.57,9.22-.57,9.22,0,0,2.16-11.74,4.32-17.66,2.16-5.91,3.48-10.75,6.35-11.38,2.88-.63,17.4-5.52,17.97-6.79,.56-1.27-4.18,1.46-8.28,2.23-4.1,.77-11.46,2.78-17.18,.74-5.71-2.04-27.29-8.53-23.23-6.35Z"/>
                  </g>
                  <path class="cls-16" d="M115.23,61.39c-.85-1.18-3.48-.88-4.94-.48-1.58,.43-2.78,1.04-4.49,1.19-1.7,.14-3.43-.08-5.12-.09-2.14-.01-7.69,1.97-3.88,3.42,2.51,.95,5.9,.63,8.56,1.36,1.76,.49,3.94,2.25,6.06,1.34,1.3-.56,2.36-1.56,2.77-2.67,.44-1.17,1.8-2.77,1.1-3.96-.02-.04-.05-.07-.07-.11Z"/>
                  <path class="cls-16" d="M125.56,62.36c-3.4-1.18-3.6,.88-4.46,3.67-.96,1.85-1.68,4.04,.1,4.17,.69,.05,1.48-.69,2-.93,1.07-.5,1.99-1,3.19-1.19,1.15-.18,2.98-.07,3.82-1.1,2.64-3.24-2.6-3.9-4.65-4.61Z"/>
                  <path class="cls-34" d="M112.14,39.61c-.62-.84-1.48-.81-2.46-.72-.51,.05-1.03,.13-1.53,.23-1.79,.37-3.06-.14-4.6-1.07-1.66-1-3.78-3.61-5.12-.69-.55,1.2-.27,2.84-.33,4.1-.11,2.61-.52,4.71-1.56,7.12-.76,1.76-1.51,3.55-2.2,5.34-.22,.57-.76,1.9-.45,2.58,.39,.85,1.28,.62,2.08,.45,2.2-.46,4.34-.25,6.56-.4,3.23-.22,4.71-1.92,5.98-4.68,.68-1.47,.96-3.18,1.47-4.72,.39-1.18,.74-2.38,1.04-3.6,1-1.48,1.81-3.03,1.13-3.95Z"/>
                  <path class="cls-43" d="M137.7,43.88c-1.27,.15-2.64,.54-3.3,.61-1.56,.17-3.14,.5-4.5,1.28-3.02,1.75-3.76,4.24-4.59,7.43-.47,1.82-.83,3.66-1.33,5.48-.43,1.56-1.2,3.01-1.76,4.52-.46,1.23-1.75,6.5,.84,5.65,.64-.21,1.25-1.6,1.5-2.11,.91-1.84,1.31-3.84,2.07-5.74,.55-1.36,1.04-2.54,2.3-3.41,.61-.43,1.21-.79,1.79-1.26,1.82-1.46,3.67-2.95,5.39-4.52,1.73-1.58,7.96-8.65,1.59-7.92Z"/>
                  <path class="cls-48" d="M143.69,36.98s-.03,0-.05,0c0,0-.02,0-.03,0-.57-.04-1.04,.07-1.47,.29-.33,.1-.65,.22-.96,.38-.68,.36-1.84,.96-1.95,1.85-.11,.86,1.05,1.05,1.66,1.12,1.59,.18,1.87,1.14,2.63,2.33,.05,.09,.12,.08,.21,.06,1.42-.35,1.63-3.31,1.53-4.42-.09-.98-.6-1.53-1.57-1.62Z"/>
                  <path class="cls-48" d="M134.58,31.81c-2.96,1.13-5.46,1.48-8.57,.78-4.38-.99-9.65-5.16-14.28-3.14-.36,.16-.74,.7-.6,1.1,.31,.89,3.51,.85,4.3,1.08,1.73,.52,3.1,1.8,4.82,2.34,3.26,1.01,6.61,1.82,10.03,1.67,1.53-.07,7.49-1.36,7.2-3.88-.15-1.27-2.37-.15-2.9,.05Z"/>
                </g>
                <g>
                  <g>
                    <g>
                      <path class="cls-19" d="M36.02,53.46l-12.96,15.69s-1.34,2.1,.32,4.98c0,0,7.92,13.99,9.92,20.9,.97,3.36,2.15,8.43,6.24,7.21,4.09-1.21,15.48-6.53,22.84-8.44,0,0,5.7-1.26,7.07-3.14,1.45-1.98,11.17-14.44,11.17-14.44,0,0,2.57-2.62,.94-5.85-3.7-7.34-5.75-10.68-9.03-20.42-3.02-8.95-4.66-10.02-9.99-7.9-2.41,.96-12.74,5.76-17.76,6.85-5.95,1.3-8.76,4.55-8.76,4.55Z"/>
                      <path class="cls-41" d="M81.46,75.77h0c-.3,.45-.56,.72-.57,.73-.07,.09-9.7,12.43-11.13,14.4-1.44,1.98-7.06,3.24-7.3,3.29-4.43,1.15-10.44,3.59-15.27,5.55-3.18,1.29-5.92,2.4-7.54,2.88-1.09,.32-2.08,.25-2.94-.22-2.02-1.11-2.9-4.2-3.61-6.68l-.16-.58c-1.97-6.79-9.81-20.68-9.89-20.82-1.75-3.04-.37-5.27-.31-5.37l12.98-15.73c.12-.14,2.97-3.36,8.97-4.68,3.87-.85,10.87-3.89,15.06-5.7,1.18-.51,2.1-.92,2.64-1.13,2.2-.87,3.97-1.31,5.49-.61,2.04,.94,3.38,3.92,5,8.74,2.75,8.13,4.57,11.69,7.33,17.07,.53,1.02,1.08,2.11,1.68,3.3,1.22,2.43,.24,4.53-.45,5.56Zm-58.11-6.37s-1.16,1.92,.35,4.54c.08,.14,7.97,14.11,9.96,20.98l.17,.58c.67,2.34,1.5,5.26,3.24,6.22,.68,.37,1.45,.43,2.35,.16,1.59-.47,4.31-1.58,7.47-2.86,4.85-1.97,10.89-4.42,15.38-5.59,1.56-.34,5.8-1.55,6.86-2.99,1.44-1.97,11.08-14.32,11.18-14.45,.03-.03,.25-.26,.51-.65,.6-.9,1.45-2.71,.4-4.8-.6-1.19-1.16-2.27-1.68-3.29-2.68-5.22-4.61-8.99-7.38-17.17-1.8-5.32-3.04-7.57-4.6-8.29-1.11-.51-2.47-.34-4.89,.62-.54,.21-1.46,.61-2.62,1.12-4.21,1.83-11.25,4.89-15.2,5.75-5.76,1.26-8.53,4.39-8.55,4.42l-12.95,15.68Z"/>
                    </g>
                    <path class="cls-16" d="M23.58,70.09c2.11-1.73,5.08-1.95,7.64-2.42,3.13-.57,5.68-2.22,8.62-3.28,2.84-1.03,5.82-1.48,8.69-2.38,3.26-1.02,5.77-2.65,7.99-5.26,2.39-2.79,4.34-5.88,6.41-8.9,1.05-1.54,3.75-5.46,1.98-6.55-.71,.16-1.48,.41-2.38,.76-2.41,.96-12.74,5.76-17.76,6.85-5.95,1.3-8.76,4.55-8.76,4.55l-12.96,15.69s-.5,.78-.51,2.05c.27-.39,.6-.76,1.03-1.11Z"/>
                    <path class="cls-8" d="M80.74,73.03c-1.3,1.34-3.25,1.46-4.99,1.79-4.81,.93-9.94,1.18-14.49,3.1-1.21,.51-2.27,1.08-3.22,1.98-.64,.61-1.23,1.08-2.11,1.25-1.58,.29-2.72-1.78-3.48-2.79-1.56-2.06-3.2-4.1-4.52-6.33-.85-1.44-1.47-3.37-2.82-4.45,1.05,2.38,2.21,4.7,3.38,7.02,.68,1.33,1.39,2.62,2.15,3.9,.56,.97,1.16,2.02,1.35,3.14,.67,3.89-2.01,6.08-4.63,8.48-2.11,1.93-4.44,3.64-6.3,5.82-1.14,1.33-2.45,2.95-4.39,2.82-1.18-.08-2.02-.63-2.68-1.39,.93,2.92,2.35,5.82,5.55,4.87,4.09-1.21,15.48-6.53,22.84-8.44,0,0,5.7-1.26,7.07-3.14,1.45-1.98,11.17-14.44,11.17-14.44,0,0,2.44-2.49,1.05-5.61-.1,.91-.32,1.79-.92,2.42Z"/>
                    <path class="cls-16" d="M81.56,70.38c-3.7-7.34-5.75-10.68-9.03-20.42-3.02-8.95-4.66-10.02-9.99-7.9-.63,.25-1.79,.76-3.25,1.39,.67,.17,1.27,.55,1.72,1.24,1.14,1.77-.75,4.33-1.66,5.55-1.8,2.4-3.77,4.8-6.24,6.44-3.94,2.61-8.49,3.41-12.77,5.24-4.14,1.77-8.05,4.02-11.99,6.19-.94,.52-3.9,2.02-5.61,1.86-.24,.87-.38,2.36,.66,4.15,0,0,7.92,13.99,9.92,20.9,.97,3.36,2.15,8.43,6.24,7.21,4.09-1.21,15.48-6.53,22.84-8.44,0,0,5.7-1.26,7.07-3.14,1.45-1.98,11.17-14.44,11.17-14.44,0,0,2.57-2.62,.94-5.85Zm-22.27,21.7c-3.13,1.72-9.65,1.92-14.59,5.28-1.96,1.66-3.63,2.51-6.31,1.84-2.88-.72-3.59-4.95-4.23-7.43-1.31-5.07-3.73-9.23-6.8-13.37-1.58-2.13-3-5.42-.26-7.03,2.13-1.25,4.63-1.06,6.97-1.6,3.3-.76,6.28-2.33,9.27-3.87,2.27-1.16,7.22-3.07,9.14,.27,.84,1.45,.99,2.93,1.56,4.48,.57,1.52,1.23,2.99,1.94,4.45,1.33,2.72,3.66,6.79,4.88,9.56,1.45,3.31,1.62,5.67-1.56,7.41Z"/>
                    <path class="cls-16" d="M81.56,70.38c-3.7-7.34-5.75-10.68-9.03-20.42-2.44-7.24-3.98-9.32-7.31-8.73,.62,2.82-3.16,7.69-4.4,9.28-2.17,2.79-4.01,6.16-6.64,8.46-1.58,1.38-3.4,2.35-5.31,3.17,2.33-.06,4.54-2.99,12.06,16,1.37,3.45,2.46,7.79,5.12,10.53-.76-2.22-1.9-4.26-2.89-6.4-.9-1.96-1.52-3.93-2.05-6.01-1.02-4-2.41-8.62-1.75-12.69,.47-2.92,2.74-4.89,4.39-7.04,1.37-1.78,3.05-4.26,5.57-3.78,2.1,.4,3.46,3.09,4.23,4.94,1.09,2.61,1.7,5.35,2.67,8,1.22,3.36,4.5,6.01,4.12,9.87-.04,.41-.1,.83-.17,1.25,.29-.37,.46-.59,.46-.59,0,0,2.57-2.62,.94-5.85Z"/>
                    <path class="cls-33" d="M44.56,50.38s-4.34,.75-7.46,4.56c-3.12,3.82-11.07,11.92-10.27,12,.8,.08,6.21-5.71,9.03-8.98,2.81-3.27,6-5.12,8.4-6.13,2.39-1.01,4.2-2.69,.3-1.46Z"/>
                    <path class="cls-33" d="M35.51,90.22c1.1,3.42,1.43,5.59,2.12,6.72-.63-2.21-.72-4.82-1.01-6.51-.66-3.86-1.86-7.45-4.25-10.6-1.6-2.12-3.37-4.09-4.89-6.27-.2,.39-.71,1.75,.73,3.35,1.72,1.9,5.57,7.95,7.29,13.31Z"/>
                    <path class="cls-23" d="M26.12,70.67l23.93-8.18s2.49-.97,3.88,2.87c1.22,3.38,5.4,12.68,7.32,16.26,2.15,4.01,5.3,7.69,5.3,7.69,0,0-5.62-10.68-7.59-16.73-1.97-6.04-3.95-10.72-2.06-13.02,1.89-2.3,10.38-15.26,10.04-16.62-.34-1.36-2.41,3.77-5.19,6.95-2.78,3.18-7.38,9.37-13.19,11.32-5.81,1.95-27.02,10.27-22.44,9.46Z"/>
                  </g>
                  <path class="cls-26" d="M59.6,83.79c-1.42-.41-3.32,1.48-4.23,2.7-.99,1.33-1.56,2.57-2.82,3.75-1.27,1.18-2.77,2.08-4.12,3.13-1.71,1.33-4.88,6.37-.94,5.14,2.59-.81,5.08-3.19,7.66-4.27,1.7-.71,4.53-.67,5.65-2.71,.69-1.26,.9-2.72,.54-3.86-.38-1.2-.3-3.33-1.6-3.84-.04-.02-.08-.03-.13-.04Z"/>
                  <path class="cls-31" d="M68.43,78.11c-3.44,1.19-2.31,2.95-1.26,5.71,.4,2.07,1.19,4.26,2.68,3.25,.58-.39,.74-1.47,1.01-1.99,.54-1.07,.96-2.04,1.79-2.94,.8-.86,2.33-1.92,2.35-3.27,.08-4.22-4.5-1.47-6.57-.76Z"/>
                  <path class="cls-33" d="M43.55,68.4c-1.02-.28-1.68,.28-2.4,.97-.37,.36-.74,.75-1.07,1.14-1.2,1.41-2.52,1.8-4.32,2.03-1.95,.24-5.26-.51-4.5,2.65,.31,1.3,1.56,2.43,2.3,3.46,1.55,2.15,2.53,4.07,3.21,6.64,.49,1.88,1.01,3.77,1.58,5.62,.18,.59,.58,1.99,1.25,2.33,.84,.44,1.4-.3,1.94-.94,1.46-1.74,3.29-2.91,4.96-4.41,2.43-2.19,2.54-4.47,1.83-7.45-.38-1.59-1.23-3.13-1.78-4.67-.42-1.18-.9-2.35-1.42-3.51-.13-1.8-.45-3.54-1.57-3.85Z"/>
                  <path class="cls-43" d="M66.53,55.83c-.92,.91-1.77,2.08-2.25,2.55-1.13,1.11-2.18,2.36-2.77,3.83-1.31,3.28-.34,5.72,.99,8.78,.76,1.74,1.63,3.43,2.37,5.18,.63,1.51,.93,3.14,1.42,4.69,.41,1.26,2.67,6.26,4.19,3.97,.38-.57,0-2.05-.13-2.62-.43-2.03-1.36-3.87-1.94-5.86-.42-1.43-.76-2.67-.31-4.15,.22-.72,.47-1.38,.64-2.12,.53-2.3,1.07-4.63,1.46-6.96,.39-2.34,.93-11.85-3.69-7.29Z"/>
                  <path class="cls-48" d="M66.98,46.61s-.03,.02-.04,.03c0,0-.02,.01-.02,.02-.47,.32-.79,.71-.99,1.15-.2,.29-.38,.58-.53,.91-.31,.72-.86,1.92-.39,2.69,.45,.75,1.49,.18,2.02-.15,1.37-.85,2.2-.26,3.54,.21,.1,.03,.15-.01,.2-.08,.91-1.16-.77-3.65-1.54-4.47-.69-.73-1.44-.84-2.26-.31Z"/>
                  <path class="cls-48" d="M56.51,48.19c-1.65,2.75-3.42,4.59-6.33,5.97-4.1,1.95-10.89,1.93-13.31,6.42-.19,.35-.15,1.02,.21,1.25,.8,.51,3.32-1.52,4.09-1.83,1.7-.67,3.59-.5,5.29-1.15,3.22-1.23,6.39-2.68,9.02-4.94,1.18-1.01,5.1-5.76,3.3-7.58-.91-.92-1.98,1.37-2.27,1.86Z"/>
                </g>
                <g>
                  <g>
                    <g>
                      <path class="cls-19" d="M130.02,44.42l-19.76,3.83s-2.34,.76-2.89,4c0,0-2.75,15.66-5.57,22.2-1.37,3.18-3.66,7.79,.22,9.43,3.88,1.65,15.93,4.76,22.74,7.92,0,0,5.14,2.62,7.37,2.05,2.36-.6,17.61-3.99,17.61-3.99,0,0,3.61-.38,4.4-3.87,1.79-7.93,2.33-11.77,5.95-21.27,3.33-8.73,2.75-10.58-2.66-12.31-2.45-.79-13.34-3.62-17.87-5.94-5.36-2.75-9.55-2.04-9.55-2.04Z"/>
                      <path class="cls-41" d="M150.68,90.03h0c-.52,.16-.88,.2-.89,.2-.11,.03-15.23,3.39-17.55,3.98-2.34,.6-7.43-1.97-7.64-2.08-4.1-1.91-10.23-3.83-15.15-5.37-3.24-1.01-6.03-1.89-7.57-2.54-1.04-.44-1.75-1.12-2.1-2.01-.84-2.12,.42-5.03,1.45-7.37l.24-.55c2.77-6.42,5.52-21.96,5.55-22.11,.57-3.42,3.04-4.26,3.14-4.29l19.81-3.84c.19-.03,4.38-.7,9.79,2.08,3.49,1.79,10.75,3.87,15.08,5.12,1.22,.35,2.18,.63,2.73,.8,2.23,.71,3.86,1.5,4.57,2.99,.96,2,.12,5.12-1.68,9.82-3.02,7.94-3.87,11.8-5.14,17.64-.24,1.11-.5,2.29-.79,3.58-.59,2.62-2.66,3.61-3.84,3.97Zm-40.34-41.42s-2.09,.73-2.59,3.69c-.03,.16-2.79,15.78-5.6,22.28l-.24,.55c-.96,2.21-2.16,4.96-1.43,6.79,.28,.71,.84,1.24,1.7,1.6,1.51,.64,4.28,1.51,7.5,2.52,4.94,1.55,11.09,3.48,15.25,5.41,1.41,.72,5.41,2.47,7.12,2.03,2.34-.6,17.47-3.96,17.62-4,.04,0,.35-.04,.8-.17,1.02-.31,2.81-1.16,3.32-3.41,.29-1.28,.55-2.46,.79-3.57,1.24-5.67,2.13-9.76,5.18-17.75,1.98-5.19,2.44-7.69,1.7-9.22-.52-1.08-1.68-1.81-4.13-2.6-.54-.17-1.5-.45-2.7-.79-4.36-1.25-11.67-3.35-15.22-5.17-5.19-2.66-9.27-2.01-9.31-2l-19.75,3.83Z"/>
                    </g>
                    <path class="cls-16" d="M110.07,49.29c2.7,0,5.11,1.71,7.36,2.96,2.75,1.53,5.73,1.88,8.64,2.91,2.81,1,5.37,2.53,8.13,3.65,3.13,1.27,6.07,1.6,9.41,1.02,3.58-.63,7.01-1.75,10.49-2.77,1.77-.52,6.29-1.81,5.63-3.75-.64-.33-1.39-.62-2.29-.91-2.45-.79-13.34-3.62-17.87-5.94-5.36-2.75-9.55-2.04-9.55-2.04l-19.76,3.83s-.87,.29-1.68,1.24c.45-.13,.94-.2,1.48-.2Z"/>
                    <path class="cls-8" d="M151.85,87.49c-1.83,.21-3.4-.93-4.94-1.77-4.25-2.32-8.33-5.35-13.01-6.76-1.24-.37-2.41-.6-3.71-.51-.87,.06-1.62,.06-2.4-.37-1.38-.77-.95-3.07-.9-4.32,.1-2.56,.14-5.14,.54-7.68,.26-1.63,1-3.5,.65-5.17-.7,2.47-1.28,4.97-1.83,7.48-.32,1.44-.58,2.87-.82,4.33-.18,1.09-.38,2.27-.94,3.25-1.94,3.39-5.36,3.38-8.87,3.56-2.82,.15-5.68-.02-8.47,.48-1.7,.3-3.73,.71-5.13-.61-.85-.8-1.14-1.75-1.17-2.74-1.12,2.81-1.87,5.92,1.17,7.21,3.88,1.65,15.93,4.76,22.74,7.92,0,0,5.14,2.62,7.37,2.05,2.36-.6,17.61-3.99,17.61-3.99,0,0,3.43-.37,4.33-3.63-.64,.63-1.36,1.17-2.22,1.26Z"/>
                    <path class="cls-16" d="M154.15,85.99c1.79-7.93,2.33-11.77,5.95-21.27,3.33-8.73,2.75-10.58-2.66-12.31-.63-.2-1.84-.55-3.36-.98,.4,.56,.63,1.22,.53,2.02-.25,2.06-3.29,2.84-4.76,3.19-2.89,.7-5.9,1.29-8.82,.99-4.65-.49-8.63-2.74-13.05-4.03-4.28-1.25-8.67-1.99-13.05-2.82-1.04-.2-4.25-.91-5.45-2.11-.73,.51-1.77,1.56-2.11,3.58,0,0-2.75,15.66-5.57,22.2-1.37,3.18-3.66,7.79,.22,9.43,3.88,1.65,15.93,4.76,22.74,7.92,0,0,5.14,2.62,7.37,2.05,2.36-.6,17.61-3.99,17.61-3.99,0,0,3.61-.38,4.4-3.87Zm-30.65,2.55c-3.47-.66-8.57-4.61-14.46-5.15-2.54,.04-4.35-.37-5.98-2.57-1.74-2.36,.38-6.04,1.44-8.33,2.19-4.7,2.96-9.39,3.22-14.48,.13-2.62,1.12-6.03,4.22-5.53,2.41,.39,4.2,2.1,6.33,3.17,3,1.49,6.26,2.17,9.51,2.88,2.46,.54,7.44,2.2,6.81,5.95-.28,1.64-1.09,2.85-1.62,4.4-.52,1.51-.94,3.05-1.31,4.61-.7,2.91-1.48,7.49-2.29,10.37-.97,3.44-2.33,5.34-5.86,4.68Z"/>
                    <path class="cls-16" d="M154.15,85.99c1.79-7.93,2.33-11.77,5.95-21.27,2.69-7.07,2.82-9.62-.09-11.26-1.3,2.54-7.25,3.88-9.2,4.32-3.41,.76-6.94,2.18-10.39,2.28-2.08,.06-4.08-.34-6.04-.92,1.81,1.42,5.34,.57-.86,19.8-1.13,3.5-3.02,7.5-2.72,11.26,.82-2.17,1.23-4.45,1.82-6.7,.55-2.06,1.31-3.95,2.21-5.87,1.74-3.7,3.59-8.09,6.65-10.79,2.2-1.93,5.17-2.01,7.78-2.61,2.16-.5,5.01-1.34,6.64,.62,1.35,1.62,.7,4.53,.12,6.43-.82,2.68-2.07,5.16-3,7.78-1.18,3.33-.34,7.42-3.06,10.13-.29,.29-.6,.57-.92,.84,.46-.1,.72-.16,.72-.16,0,0,3.61-.38,4.4-3.87Z"/>
                    <path class="cls-33" d="M138.48,47.43s-3.78-2.16-8.56-1.21c-4.78,.95-15.95,2.14-15.39,2.7,.56,.56,8.33-.45,12.54-1.18,4.21-.73,7.8-.13,10.27,.6,2.46,.74,4.9,.59,1.15-.93Z"/>
                    <path class="cls-33" d="M106.51,72.16c-1.31,3.3-2.42,5.17-2.61,6.46,.91-2.08,2.48-4.13,3.32-5.6,1.93-3.36,3.27-6.85,3.43-10.77,.11-2.62,0-5.24,.22-7.86-.4,.17-1.65,.89-1.55,3.02,.11,2.53-.75,9.57-2.81,14.75Z"/>
                    <path class="cls-23" d="M111.64,51.32l23.41,8.81s2.51,.83,1.16,4.63c-1.19,3.35-3.86,13.08-4.64,17.02-.88,4.42-.79,9.21-.79,9.21,0,0,2.44-11.69,4.73-17.55,2.29-5.86,3.73-10.67,6.62-11.23,2.89-.56,17.53-5.12,18.12-6.37,.59-1.25-4.22,1.36-8.34,2.03-4.12,.67-11.52,2.51-17.19,.34-5.67-2.17-27.08-9.16-23.08-6.89Z"/>
                  </g>
                  <path class="cls-16" d="M128.95,82.4c-.82-1.2-3.46-.96-4.93-.59-1.59,.39-2.81,.98-4.51,1.08-1.71,.11-3.42-.16-5.12-.21-2.14-.06-7.73,1.8-3.95,3.33,2.49,1.01,5.88,.76,8.53,1.56,1.74,.53,3.88,2.34,6.02,1.48,1.31-.53,2.4-1.51,2.84-2.61,.46-1.16,1.86-2.73,1.2-3.94-.02-.04-.05-.08-.07-.11Z"/>
                  <path class="cls-16" d="M139.26,83.62c-3.37-1.26-3.62,.8-4.55,3.57-1,1.83-1.77,4,0,4.17,.69,.07,1.49-.66,2.02-.89,1.09-.47,2.01-.95,3.22-1.12,1.15-.16,2.98,0,3.85-1.02,2.72-3.18-2.51-3.96-4.54-4.71Z"/>
                  <path class="cls-33" d="M126.37,60.56c-.6-.85-1.46-.84-2.44-.77-.51,.04-1.03,.1-1.54,.2-1.8,.33-3.06-.21-4.58-1.17-1.64-1.04-3.7-3.7-5.1-.81-.58,1.19-.34,2.83-.42,4.09-.17,2.61-.63,4.7-1.73,7.09-.8,1.75-1.59,3.51-2.33,5.29-.23,.57-.8,1.88-.51,2.57,.37,.87,1.26,.65,2.07,.5,2.21-.41,4.35-.15,6.56-.25,3.23-.14,4.75-1.82,6.09-4.54,.71-1.45,1.03-3.16,1.58-4.68,.42-1.17,.79-2.37,1.12-3.58,1.04-1.45,1.88-2.98,1.22-3.92Z"/>
                  <path class="cls-43" d="M151.83,65.42c-1.27,.12-2.66,.47-3.32,.53-1.56,.14-3.15,.42-4.52,1.18-3.06,1.68-3.86,4.15-4.76,7.33-.51,1.81-.91,3.64-1.45,5.44-.46,1.55-1.27,2.98-1.86,4.48-.49,1.22-1.9,6.46,.7,5.66,.65-.2,1.28-1.57,1.55-2.08,.95-1.82,1.39-3.81,2.2-5.69,.58-1.35,1.1-2.52,2.37-3.36,.62-.41,1.22-.76,1.82-1.22,1.85-1.42,3.74-2.86,5.5-4.39,1.77-1.54,8.16-8.46,1.77-7.88Z"/>
                  <path class="cls-48" d="M157.97,58.66s-.03,0-.05,0c0,0-.02,0-.03,0-.57-.05-1.04,.04-1.48,.26-.33,.09-.66,.2-.97,.36-.69,.35-1.86,.92-1.99,1.81-.13,.85,1.02,1.08,1.64,1.16,1.58,.22,1.84,1.19,2.57,2.39,.05,.09,.12,.09,.21,.07,1.42-.31,1.71-3.27,1.64-4.38-.06-.99-.57-1.55-1.53-1.66Z"/>
                  <path class="cls-48" d="M148.98,53.29c-2.99,1.06-5.49,1.36-8.59,.58-4.36-1.09-9.53-5.38-14.2-3.47-.36,.15-.75,.68-.62,1.09,.29,.89,3.49,.93,4.27,1.18,1.72,.56,3.05,1.87,4.76,2.45,3.23,1.08,6.56,1.97,9.99,1.9,1.53-.03,7.52-1.19,7.29-3.71-.12-1.28-2.37-.2-2.91-.01Z"/>
                </g>
                <g>
                  <g>
                    <g>
                      <path class="cls-18" d="M93.98,30.27l-20.13-.19s-2.45,.28-3.63,3.34c0,0-5.82,14.8-9.88,20.64-1.98,2.84-5.14,6.91-1.66,9.29,3.47,2.39,14.66,7.83,20.71,12.29,0,0,4.52,3.6,6.82,3.48,2.43-.12,18.05-.41,18.05-.41,0,0,3.62,.35,5.09-2.92,3.33-7.41,4.63-11.07,10.07-19.66,5-7.9,4.8-9.82-.16-12.6-2.24-1.26-12.35-6.2-16.33-9.38-4.7-3.76-8.95-3.9-8.95-3.9Z"/>
                      <path class="cls-41" d="M57.41,62.67h0c-1.83-2.48,.55-5.86,2.28-8.33l.34-.49c4-5.74,9.79-20.42,9.84-20.56,1.25-3.24,3.82-3.57,3.93-3.58l20.17,.18c.19,0,4.43,.19,9.18,3.98,3.06,2.45,9.77,5.94,13.77,8.02,1.12,.58,2.01,1.05,2.51,1.33,1.67,.93,2.64,1.69,3.25,2.51,1.72,2.34,.42,5.29-2.96,10.62-4.54,7.17-6.22,10.98-8.55,16.26-.46,1.04-.95,2.15-1.49,3.35-1.56,3.47-5.43,3.14-5.47,3.14-.11,0-15.6,.29-18,.41-2.41,.12-6.88-3.41-7.07-3.56-3.64-2.69-9.26-5.79-13.77-8.28-2.97-1.64-5.53-3.05-6.91-4-.43-.3-.79-.63-1.06-1Zm64.67-16.49c-.53-.72-1.46-1.43-3.01-2.3-.49-.28-1.37-.74-2.49-1.31-4.03-2.1-10.77-5.61-13.89-8.1-4.55-3.64-8.68-3.82-8.72-3.82l-20.12-.19s-2.19,.3-3.27,3.1c-.06,.15-5.88,14.91-9.93,20.72l-.34,.49c-1.69,2.41-3.8,5.4-2.29,7.45h0c.22,.3,.51,.57,.88,.82,1.35,.93,3.9,2.33,6.85,3.96,4.54,2.5,10.18,5.62,13.87,8.34,1.24,.98,4.8,3.49,6.57,3.4,2.41-.12,17.91-.4,18.06-.41,.18,.01,3.41,.28,4.75-2.7,.54-1.2,1.03-2.31,1.49-3.35,2.34-5.3,4.03-9.14,8.6-16.36,3.56-5.63,4.29-8,2.99-9.77Z"/>
                    </g>
                    <path class="cls-6" d="M73.45,31.07c2.65,.54,4.66,2.69,6.62,4.37,2.39,2.05,5.24,2.98,7.89,4.58,2.56,1.54,4.76,3.55,7.24,5.2,2.82,1.87,5.63,2.78,9.02,2.87,3.63,.09,7.22-.32,10.83-.62,1.84-.15,6.53-.52,6.26-2.56-.56-.45-1.24-.89-2.07-1.35-2.24-1.26-12.35-6.2-16.33-9.38-4.7-3.76-8.95-3.9-8.95-3.9l-20.13-.19s-.91,.11-1.89,.88c.47-.04,.96-.01,1.49,.1Z"/>
                    <path class="cls-8" d="M106.79,76.83c-1.84-.16-3.15-1.59-4.49-2.72-3.7-3.12-7.1-6.9-11.41-9.21-1.14-.61-2.24-1.07-3.53-1.24-.87-.12-1.6-.27-2.27-.85-1.2-1.03-.32-3.2-.03-4.41,.61-2.49,1.16-5.01,2.06-7.41,.58-1.55,1.68-3.23,1.67-4.94-1.18,2.28-2.24,4.62-3.29,6.97-.6,1.35-1.14,2.7-1.66,4.08-.39,1.03-.83,2.15-1.57,2.99-2.57,2.93-5.93,2.24-9.4,1.73-2.79-.42-5.57-1.15-8.4-1.22-1.73-.04-3.79-.04-4.9-1.62-.67-.96-.78-1.94-.6-2.92-1.66,2.53-3.01,5.43-.29,7.3,3.47,2.39,14.66,7.83,20.71,12.29,0,0,4.52,3.6,6.82,3.48,2.43-.12,18.05-.41,18.05-.41,0,0,3.43,.32,4.96-2.69-.76,.49-1.57,.87-2.43,.79Z"/>
                    <path class="cls-3" d="M109.34,75.81c3.33-7.41,4.63-11.07,10.07-19.66,5-7.9,4.8-9.82-.16-12.6-.58-.33-1.7-.9-3.09-1.63,.29,.62,.37,1.32,.11,2.09-.65,1.97-3.79,2.13-5.3,2.18-2.97,.11-6.04,.09-8.83-.79-4.46-1.4-7.91-4.4-11.98-6.55-3.95-2.08-8.1-3.68-12.23-5.36-.99-.4-3.99-1.74-4.92-3.15-.82,.35-2.05,1.18-2.78,3.09,0,0-5.82,14.8-9.88,20.64-1.98,2.84-5.14,6.91-1.66,9.29,3.47,2.39,14.66,7.83,20.71,12.29,0,0,4.52,3.6,6.82,3.48,2.43-.12,18.05-.41,18.05-.41,0,0,3.62,.35,5.09-2.92Zm-30.55-3.6c-3.27-1.34-7.48-6.22-13.15-7.93-2.5-.47-4.19-1.23-5.35-3.71-1.24-2.66,1.57-5.85,3.07-7.88,3.08-4.17,4.77-8.61,6.04-13.55,.65-2.54,2.3-5.68,5.24-4.58,2.28,.86,3.69,2.9,5.57,4.36,2.64,2.06,5.7,3.37,8.75,4.72,2.31,1.02,6.85,3.64,5.48,7.19-.6,1.55-1.64,2.58-2.47,3.99-.81,1.38-1.53,2.81-2.21,4.26-1.26,2.71-2.94,7.05-4.31,9.71-1.64,3.18-3.35,4.77-6.67,3.42Z"/>
                    <path class="cls-16" d="M109.34,75.81c3.33-7.41,4.63-11.07,10.07-19.66,4.05-6.39,4.68-8.87,2.16-11.05-1.78,2.23-7.88,2.36-9.87,2.4-3.5,.07-7.24,.75-10.64,.17-2.05-.35-3.93-1.15-5.74-2.11,1.49,1.75,5.12,1.62-4.79,19.23-1.8,3.2-4.46,6.75-4.91,10.49,1.24-1.96,2.09-4.11,3.12-6.21,.95-1.91,2.07-3.61,3.34-5.31,2.44-3.28,5.13-7.22,8.66-9.25,2.54-1.46,5.47-.94,8.14-1.02,2.22-.06,5.18-.31,6.38,1.93,1,1.86-.22,4.58-1.17,6.33-1.33,2.46-3.06,4.64-4.49,7.03-1.82,3.03-1.82,7.21-5.02,9.31-.34,.22-.7,.44-1.07,.64,.47-.01,.74-.02,.74-.02,0,0,3.62,.35,5.09-2.92Z"/>
                    <path class="cls-33" d="M101.67,34.91s-3.27-2.87-8.15-2.89c-4.88-.02-16.05-1.08-15.62-.42,.44,.66,8.26,1.22,12.52,1.34,4.27,.13,7.67,1.43,9.94,2.64,2.27,1.21,4.69,1.56,1.31-.68Z"/>
                    <path class="cls-33" d="M65.41,52.77c-1.94,2.97-3.41,4.59-3.84,5.81,1.3-1.86,3.26-3.55,4.37-4.83,2.55-2.91,4.57-6.06,5.5-9.87,.63-2.55,1.05-5.14,1.78-7.66-.43,.09-1.79,.54-2.12,2.65-.39,2.5-2.65,9.23-5.69,13.89Z"/>
                    <path class="cls-23" d="M74.59,33.37l21.19,13.3s2.29,1.31,.21,4.77c-1.83,3.04-6.39,12.05-7.94,15.75-1.75,4.15-2.61,8.87-2.61,8.87,0,0,4.71-10.97,8.13-16.26,3.41-5.28,5.78-9.71,8.72-9.69,2.95,.02,18.2-1.52,19.02-2.63,.83-1.11-4.4,.49-8.57,.33-4.17-.16-11.79,.17-16.91-3.09s-24.72-14.37-21.25-11.35Z"/>
                  </g>
                  <path class="cls-16" d="M85.36,67.28c-.57-1.34-3.2-1.63-4.71-1.57-1.64,.07-2.94,.4-4.64,.16-1.69-.24-3.32-.84-4.97-1.22-2.08-.49-7.94,.22-4.54,2.47,2.24,1.49,5.61,1.92,8.05,3.23,1.61,.86,3.34,3.07,5.61,2.65,1.39-.25,2.65-1,3.3-1.99,.69-1.04,2.37-2.31,1.96-3.62-.02-.04-.03-.08-.05-.12Z"/>
                  <path class="cls-16" d="M95.22,70.52c-3.05-1.9-3.71,.06-5.17,2.59-1.34,1.6-2.53,3.57-.83,4.09,.66,.2,1.59-.35,2.16-.47,1.16-.25,2.16-.53,3.38-.46,1.16,.08,2.92,.59,3.98-.23,3.29-2.57-1.67-4.38-3.51-5.52Z"/>
                  <path class="cls-34" d="M87.19,45.36c-.42-.96-1.27-1.12-2.24-1.24-.51-.06-1.03-.11-1.55-.11-1.83-.04-2.95-.82-4.25-2.06-1.4-1.34-2.89-4.36-4.84-1.81-.8,1.05-.9,2.71-1.23,3.92-.69,2.52-1.55,4.48-3.1,6.6-1.14,1.55-2.26,3.13-3.33,4.72-.34,.51-1.16,1.69-1.01,2.42,.19,.92,1.11,.89,1.93,.9,2.25,.04,4.29,.72,6.48,1.07,3.2,.5,5.02-.83,6.87-3.24,.99-1.28,1.64-2.89,2.48-4.28,.64-1.06,1.25-2.16,1.81-3.28,1.31-1.22,2.44-2.55,1.98-3.6Z"/>
                  <path class="cls-43" d="M111.16,55.2c-1.27-.14-2.7-.06-3.36-.14-1.56-.18-3.17-.21-4.67,.26-3.33,1.04-4.61,3.3-6.12,6.23-.86,1.67-1.62,3.39-2.51,5.05-.76,1.42-1.84,2.67-2.71,4.01-.72,1.1-3.14,5.95-.44,5.69,.67-.06,1.57-1.28,1.93-1.73,1.29-1.59,2.13-3.46,3.29-5.14,.84-1.21,1.58-2.25,3-2.82,.69-.28,1.35-.5,2.02-.83,2.09-1.02,4.23-2.06,6.26-3.21,2.04-1.16,9.68-6.67,3.31-7.37Z"/>
                  <path class="cls-48" d="M118.53,49.8s-.03,0-.05-.01c0,0-.02,0-.03,0-.55-.17-1.03-.16-1.5-.04-.35,.02-.68,.07-1.02,.16-.75,.2-2.01,.53-2.31,1.37-.29,.81,.79,1.26,1.37,1.46,1.51,.53,1.57,1.53,2.05,2.86,.03,.1,.1,.11,.19,.11,1.46-.02,2.32-2.86,2.47-3.96,.13-.98-.25-1.63-1.17-1.93Z"/>
                  <path class="cls-48" d="M110.79,42.74c-3.14,.44-5.65,.23-8.53-1.14-4.05-1.94-8.26-7.17-13.22-6.23-.38,.07-.87,.52-.83,.94,.11,.93,3.23,1.61,3.95,2.01,1.57,.89,2.62,2.45,4.18,3.35,2.95,1.71,6.04,3.24,9.41,3.85,1.51,.27,7.6,.33,7.88-2.19,.14-1.27-2.28-.67-2.84-.59Z"/>
                </g>
                <g>
                  <g>
                    <g>
                      <path class="cls-19" d="M85.74,66.69l-17.6,9.76s-1.99,1.45-1.51,4.7c0,0,2.24,15.75,1.58,22.83-.32,3.45-1.07,8.54,3.13,8.9,4.2,.36,16.62-.41,24.08,.49,0,0,5.7,.9,7.65-.33,2.06-1.3,15.5-9.25,15.5-9.25,0,0,3.32-1.48,2.99-5.05-.75-8.09-1.43-11.91-.93-22.07,.46-9.33-.67-10.91-6.35-10.88-2.57,.01-13.8,.69-18.83-.11-5.95-.96-9.71,1.02-9.71,1.02Z"/>
                      <path class="cls-41" d="M69.9,112.92h0c-2.81-1.26-2.41-5.37-2.12-8.37l.06-.59c.65-6.96-1.55-22.59-1.57-22.74-.51-3.43,1.57-4.99,1.66-5.06l17.64-9.79c.17-.09,3.95-2.02,9.95-1.06,3.87,.62,11.42,.35,15.93,.19,1.27-.04,2.26-.08,2.84-.08,1.91,0,3.13,.17,4.06,.58,2.65,1.18,2.97,4.39,2.66,10.7-.42,8.48,0,12.62,.58,18.36,.11,1.13,.23,2.34,.36,3.65,.35,3.79-3.17,5.41-3.21,5.43-.1,.06-13.43,7.94-15.46,9.23-2.04,1.3-7.67,.43-7.91,.39-4.49-.54-10.91-.47-16.07-.41-3.39,.04-6.32,.07-7.98-.07-.52-.04-1-.16-1.41-.34Zm48.13-46.23c-.82-.37-1.98-.53-3.75-.52-.57,0-1.56,.04-2.81,.08-4.54,.16-12.13,.43-16.08-.2-5.76-.92-9.44,.96-9.47,.98l-17.6,9.76s-1.76,1.35-1.31,4.31c.02,.16,2.24,15.87,1.58,22.92l-.06,.6c-.28,2.93-.64,6.57,1.68,7.61h0c.34,.15,.73,.25,1.17,.28,1.63,.14,4.54,.11,7.91,.07,5.18-.06,11.63-.13,16.18,.42,1.56,.24,5.9,.67,7.4-.28,2.04-1.29,15.38-9.18,15.51-9.26,.16-.08,3.1-1.44,2.8-4.69-.12-1.31-.24-2.51-.36-3.65-.58-5.77-1-9.94-.58-18.47,.33-6.65-.21-9.08-2.22-9.97Z"/>
                    </g>
                    <path class="cls-16" d="M68.28,77.51c2.57-.83,5.38,.04,7.91,.54,3.09,.6,6.03,0,9.12,.09,2.98,.08,5.89,.74,8.86,.95,3.37,.24,6.27-.35,9.26-1.95,3.21-1.71,6.12-3.84,9.12-5.88,1.52-1.04,5.42-3.67,4.19-5.31-.71-.11-1.52-.16-2.46-.16-2.57,.01-13.8,.69-18.83-.11-5.95-.96-9.71,1.02-9.71,1.02l-17.6,9.76s-.74,.54-1.21,1.7c.39-.26,.83-.48,1.35-.65Z"/>
                    <path class="cls-8" d="M119.84,100.89c-1.68,.76-3.53,.17-5.24-.15-4.76-.89-9.58-2.51-14.46-2.39-1.3,.03-2.47,.17-3.68,.66-.81,.33-1.52,.56-2.4,.38-1.55-.31-1.86-2.62-2.2-3.82-.7-2.46-1.46-4.93-1.87-7.46-.26-1.63-.13-3.64-.98-5.12,.1,2.57,.33,5.12,.58,7.68,.14,1.47,.34,2.91,.56,4.37,.17,1.09,.34,2.28,.11,3.38-.79,3.82-4.05,4.87-7.33,6.14-2.64,1.01-5.41,1.75-7.91,3.08-1.52,.82-3.32,1.83-5.06,1.01-1.06-.5-1.63-1.3-1.96-2.25-.2,3.02,.06,6.21,3.34,6.49,4.2,.36,16.62-.41,24.08,.49,0,0,5.7,.9,7.65-.33,2.06-1.3,15.5-9.25,15.5-9.25,0,0,3.14-1.41,2.99-4.79-.42,.8-.94,1.53-1.73,1.89Z"/>
                    <path class="cls-16" d="M121.56,98.74c-.75-8.09-1.43-11.91-.93-22.07,.46-9.33-.67-10.91-6.35-10.88-.67,0-1.92,.05-3.49,.11,.56,.4,.97,.96,1.13,1.76,.41,2.04-2.25,3.72-3.54,4.51-2.53,1.56-5.21,3.06-8.07,3.67-4.57,.98-9.05,.07-13.65,.21-4.46,.14-8.86,.8-13.28,1.37-1.06,.14-4.32,.45-5.83-.32-.54,.71-1.2,2.04-.9,4.06,0,0,2.24,15.75,1.58,22.83-.32,3.45-1.07,8.54,3.13,8.9,4.2,.36,16.62-.41,24.08,.49,0,0,5.7,.9,7.65-.33,2.06-1.3,15.5-9.25,15.5-9.25,0,0,3.32-1.48,2.99-5.05Zm-28.35,11.93c-3.5,.45-9.58-1.73-15.34-.42-2.41,.82-4.25,1-6.48-.59-2.39-1.7-1.52-5.86-1.22-8.37,.62-5.15-.09-9.85-1.42-14.77-.69-2.53-.8-6.08,2.3-6.57,2.41-.38,4.64,.7,7,1.05,3.32,.49,6.62,.12,9.93-.21,2.51-.25,7.76-.21,8.32,3.55,.24,1.64-.15,3.05-.18,4.69-.02,1.6,.05,3.2,.18,4.8,.24,2.98,.92,7.58,1.04,10.57,.14,3.57-.56,5.8-4.12,6.26Z"/>
                    <path class="cls-16" d="M121.56,98.74c-.75-8.09-1.43-11.91-.93-22.07,.37-7.55-.3-10.02-3.57-10.68-.45,2.82-5.69,5.94-7.41,6.96-3.01,1.78-5.92,4.22-9.17,5.39-1.96,.7-3.98,.94-6.03,1,2.16,.79,5.26-1.12,5.32,19.09,.01,3.67-.55,8.07,.9,11.55,.11-2.32-.21-4.61-.35-6.94-.12-2.13,.02-4.17,.29-6.27,.51-4.06,.9-8.81,2.98-12.31,1.49-2.52,4.29-3.51,6.58-4.9,1.9-1.15,4.35-2.82,6.5-1.47,1.79,1.12,2.07,4.09,2.11,6.08,.05,2.8-.37,5.54-.44,8.33-.08,3.53,1.97,7.16,.23,10.57-.19,.37-.39,.73-.61,1.09,.4-.24,.63-.38,.63-.38,0,0,3.32-1.48,2.99-5.05Z"/>
                    <path class="cls-33" d="M94.72,66.94s-4.26-.88-8.51,1.51c-4.26,2.39-14.5,6.98-13.79,7.34,.7,.36,7.78-3.01,11.56-5,3.78-1.99,7.38-2.54,9.95-2.61,2.57-.06,4.84-.96,.8-1.24Z"/>
                    <path class="cls-33" d="M71.98,100.36c-.22,3.54-.7,5.67-.48,6.95,.22-2.26,1.08-4.7,1.42-6.36,.79-3.79,.98-7.53-.08-11.3-.71-2.53-1.62-4.99-2.23-7.54-.33,.29-1.29,1.36-.54,3.35,.89,2.37,2.25,9.34,1.9,14.89Z"/>
                    <path class="cls-23" d="M70.41,78.95l24.99,1.12s2.64,.01,2.53,4.04c-.1,3.55,.39,13.63,.86,17.62,.53,4.48,2.1,9,2.1,9,0,0-1.31-11.87-.94-18.15,.36-6.28,.24-11.3,2.81-12.73,2.57-1.43,15.08-10.3,15.25-11.67,.17-1.37-3.59,2.6-7.29,4.52-3.71,1.92-10.18,5.96-16.24,5.65-6.06-.3-28.59-.31-24.08,.6Z"/>
                  </g>
                  <path class="cls-16" d="M96.49,103.14c-1.16-.89-3.59,.16-4.87,.96-1.39,.87-2.36,1.8-3.95,2.43-1.59,.63-3.3,.91-4.93,1.39-2.05,.6-6.8,4.1-2.73,4.39,2.68,.19,5.83-1.1,8.59-1.16,1.82-.04,4.42,1.02,6.19-.46,1.09-.91,1.81-2.17,1.89-3.36,.08-1.25,.92-3.17-.08-4.12-.03-.03-.07-.06-.1-.08Z"/>
                  <path class="cls-16" d="M106.67,101.1c-3.59-.15-3.2,1.88-3.22,4.8-.38,2.05-.44,4.35,1.29,3.96,.67-.15,1.21-1.09,1.65-1.47,.89-.79,1.62-1.53,2.71-2.06,1.05-.51,2.84-.93,3.35-2.16,1.6-3.86-3.62-2.99-5.78-3.08Z"/>
                  <path class="cls-33" d="M87.27,83.17c-.84-.62-1.65-.35-2.56,.02-.47,.19-.95,.42-1.4,.66-1.61,.87-2.97,.75-4.71,.3-1.88-.48-4.66-2.37-5.1,.81-.18,1.31,.55,2.8,.87,4.02,.65,2.54,.86,4.66,.55,7.27-.22,1.91-.43,3.83-.57,5.75-.05,.61-.18,2.04,.31,2.6,.62,.71,1.4,.23,2.12-.16,1.98-1.08,4.09-1.49,6.17-2.27,3.03-1.14,3.95-3.2,4.38-6.2,.23-1.6,0-3.32,.05-4.94,.04-1.24,.02-2.49-.04-3.75,.54-1.7,.87-3.42-.06-4.11Z"/>
                  <path class="cls-43" d="M112.98,79.91c-1.18,.5-2.38,1.27-2.99,1.53-1.44,.61-2.86,1.38-3.94,2.52-2.39,2.55-2.38,5.15-2.26,8.44,.07,1.88,.26,3.75,.31,5.63,.04,1.61-.28,3.23-.38,4.83-.08,1.31,.2,6.73,2.43,5.17,.55-.39,.73-1.89,.83-2.46,.34-2.02,.15-4.06,.33-6.1,.13-1.46,.27-2.74,1.22-3.93,.46-.58,.93-1.1,1.35-1.72,1.32-1.92,2.67-3.88,3.86-5.88,1.2-2.02,5.14-10.58-.76-8.04Z"/>
                  <path class="cls-48" d="M116.73,71.58s-.03,0-.05,.01c0,0-.02,0-.03,0-.56,.12-.98,.37-1.33,.7-.29,.19-.56,.4-.81,.64-.55,.55-1.49,1.45-1.33,2.34,.15,.85,1.3,.71,1.91,.6,1.57-.29,2.12,.56,3.19,1.47,.07,.07,.14,.05,.22,0,1.26-.74,.61-3.64,.2-4.67-.37-.92-1.02-1.3-1.97-1.1Z"/>
                  <path class="cls-48" d="M106.52,69.25c-2.51,1.93-4.8,2.99-7.99,3.21-4.48,.31-10.72-2.16-14.58,1.1-.3,.25-.5,.88-.25,1.23,.55,.76,3.6-.2,4.43-.2,1.8,0,3.49,.83,5.29,.85,3.41,.03,6.85-.16,10.09-1.29,1.45-.51,6.78-3.46,5.78-5.79-.51-1.18-2.32,.54-2.77,.89Z"/>
                </g>
              </g>
              <path class="cls-27" d="M20.94,80.73c-2.44,.02-4.96,.99-7.24,1.8-2.34,.84-5.23,1.82-6.99,3.68-1.24,1.32-3.06,3.49-2.36,5.5,.92,2.6,3.82,3.51,6.36,3.83,.27,.03,.94-.72,.63-.89-1.31-.71-2.75-1.05-3.91-1.99-1.75-1.43-2.63-3.53,.03-5.74,.72-.6,1.7-1.05,2.53-1.48,3.3-1.71,6.98-2.81,10.52-3.88,.19-.06,.8-.83,.43-.83Z"/>
              <path class="cls-24" d="M64.09,110.51c-2.78-.51-5.64-.72-8.44-1.16-1.42-.22-3.04-.78-4.26-1.53-2.18-1.35,.09-4.04,1.14-5.27,.27-.31,.14-.66-.24-.34-1.87,1.58-4.71,4.36-2.69,6.86,1.17,1.45,4.08,1.88,5.77,2.15,2.72,.42,5.41,.75,8.15,.39,.29-.04,1.06-1,.57-1.09Z"/>
              <path class="cls-37" d="M146.69,100.27c-2.2,2.76-5.56,4.01-8.87,4.96-3.31,.95-6.88,2.19-10.31,2.47-.2,.02-.65,.66-.36,.69,4.42,.48,9.53-1.03,13.66-2.5,2.43-.87,6.47-2.92,6.8-5.82,.07-.62-.81,.06-.92,.2Z"/>
              <path class="cls-32" d="M172.42,83.1c-.47-1.75-3.27-2.42-4.76-3-2.11-.83-4.46-1.03-6.69-.82-.1,0-.42,.37-.26,.43,1.57,.66,3.28,.96,4.91,1.42,1.37,.39,2.66,1,3.95,1.59,.79,.36,1.24,1.1,2.02,1.41,.4,.15,.91-.72,.83-1.03Z"/>
            </g>
            <g>
              <path class="cls-12" d="M22.83,103.79s-11.27,1.01-7.15,4.05c4.12,3.04,18.69,1.39,18.41-.89-.28-2.28-6.05-3.42-11.27-3.16Z"/>
              <path class="cls-16" d="M22.84,103.14s-10.73,1.05-6.81,4.19c3.93,3.14,17.8,1.44,17.54-.92s-5.76-3.53-10.73-3.27Z"/>
              <path class="cls-25" d="M22.47,103.39s-9.2,.9-5.83,3.59c3.36,2.69,15.25,1.23,15.03-.78-.22-2.02-4.93-3.03-9.2-2.8Z"/>
              <path class="cls-30" d="M21.27,103.92s-3.93,.61-4.89,2.01c-.96,1.4,5.85,.87,5.85-.44s-.31-1.53-.96-1.57Z"/>
              <path class="cls-21" d="M23.45,104.36s-1.18,.57-.65,.83,1.31-.87,.65-.83Z"/>
            </g>
            <g>
              <path class="cls-2" d="M39.73,104.69s-4.51,.41-2.86,1.62c1.65,1.22,7.49,.56,7.38-.35-.11-.91-2.42-1.37-4.51-1.27Z"/>
              <path class="cls-16" d="M39.74,104.43s-4.3,.42-2.73,1.68c1.57,1.26,7.13,.58,7.03-.37-.1-.94-2.31-1.42-4.3-1.31Z"/>
              <path class="cls-35" d="M39.59,104.53s-3.68,.36-2.34,1.44c1.35,1.08,6.11,.49,6.02-.31-.09-.81-1.98-1.21-3.68-1.12Z"/>
              <path class="cls-28" d="M39.11,104.74s-1.57,.25-1.96,.8c-.38,.56,2.34,.35,2.34-.17s-.12-.61-.38-.63Z"/>
              <path class="cls-36" d="M39.98,104.92s-.47,.23-.26,.33c.21,.1,.52-.35,.26-.33Z"/>
            </g>
            <g>
              <path class="cls-7" d="M153.62,93.17s-4.51,.41-2.86,1.62c1.65,1.22,7.49,.56,7.38-.35-.11-.91-2.42-1.37-4.51-1.27Z"/>
              <path class="cls-16" d="M153.62,92.91s-4.3,.42-2.73,1.68c1.57,1.26,7.13,.58,7.03-.37-.1-.94-2.31-1.42-4.3-1.31Z"/>
              <path class="cls-29" d="M153.47,93.01s-3.68,.36-2.34,1.44c1.35,1.08,6.11,.49,6.02-.31-.09-.81-1.98-1.21-3.68-1.12Z"/>
              <path class="cls-22" d="M152.99,93.22s-1.57,.25-1.96,.8c-.38,.56,2.34,.35,2.34-.17s-.12-.61-.38-.63Z"/>
              <path class="cls-38" d="M153.87,93.4s-.47,.23-.26,.33c.21,.1,.52-.35,.26-.33Z"/>
            </g>
          </g>
        </g>
      </g>
    </g>
  </g>
</svg>