<?xml version="1.0" encoding="UTF-8"?>
<svg id="Layer_2" data-name="Layer 2" xmlns="http://www.w3.org/2000/svg" viewBox="0 0 309.42 420.48">
  <defs>
    <style>
      .cls-1 {
        fill: #be6753;
      }

      .cls-2 {
        fill: #fff;
      }

      .cls-2, .cls-3 {
        opacity: .4;
      }

      .cls-4 {
        fill: #ebeaeb;
      }

      .cls-5, .cls-6 {
        opacity: .1;
      }

      .cls-5, .cls-7, .cls-8, .cls-3 {
        fill: #d3d3d3;
      }

      .cls-9 {
        fill: #f3f4f4;
      }

      .cls-10 {
        fill: #4ec5a2;
      }

      .cls-11 {
        fill: #33435a;
      }

      .cls-12, .cls-7, .cls-13 {
        opacity: .3;
      }

      .cls-14 {
        fill: #fdb037;
      }

      .cls-6, .cls-13 {
        fill: #181717;
      }

      .cls-15 {
        fill: #2c3a64;
      }

      .cls-16 {
        fill: #ffbfa4;
      }

      .cls-17 {
        fill: #9b9b9b;
      }

      .cls-18 {
        fill: #ed7d2b;
      }

      .cls-19 {
        fill: #71c3cc;
      }

      .cls-20 {
        fill: #cad2d9;
      }
    </style>
  </defs>
  <g id="Layer_1-2" data-name="Layer 1">
    <g>
      <g>
        <g>
          <g>
            <path class="cls-8" d="M205.71,2s-39.41,42.73-39.8,78.72c-.39,35.99,26.46,44.84,38.47,44.96,12.01,.13,39.04-8.13,39.43-44.12,.39-35.99-38.1-79.56-38.1-79.56Z"/>
            <path class="cls-3" d="M179.84,95.06s-.01-.05-.02-.08c-.35-1.75-.87-3.25-.9-5.05-.03-2.62,.06-5.25,.26-7.87,.41-5.39,1.26-10.75,2.42-16.03,2.38-10.82,6.03-21.34,10.41-31.51,1.97-4.57,4.09-9.08,6.34-13.51,1.06-2.09,2.16-4.17,3.28-6.24,.29-.53,3.47-5.7,3.3-5.88-.07-.07-.1-.1-.1-.1,0,0-35.56,42.88-34.12,77.35,.09,2.23,.29,4.45,.62,6.65,.16,1.06,.34,2.11,.56,3.16,.19,.9,.05,1.8,.52,2.62,.78,1.36,2.26,2.29,3.82,2.41,1.38,.1,2.6-.32,3.14-1.61,.56-1.36,.74-2.86,.47-4.3Z"/>
          </g>
          <path class="cls-3" d="M184.76,104.78c-.65-.66-1.6-1.07-2.52-1.08-.7,0-1.5,.24-2.12,.67-1.42,.8-2.13,2.36-1.77,4.04,.53,2.45,3.48,3.46,5.54,2.29,2.11-1.2,2.63-4.16,.87-5.92Z"/>
        </g>
        <g>
          <polygon class="cls-8" points="199.56 128.19 200.76 120.46 204.06 120.88 204.41 126.37 206.05 125.84 204.22 132.31 200.74 132.34 199.56 128.19"/>
          <path class="cls-8" d="M238.23,191.72c.15-.6,.22-1.27,.19-2-.13-3.01-1.68-5.83-3.73-8.05-3.24-3.51-7.61-6.03-11.23-9.15-4.14-3.57-8.28-7.14-12.42-10.71l-5.47-31.48-6.91,.42-.65,39.25c5.72,4.47,11.33,8.82,16.74,13.62,4.84,4.3,9.18,9.93,15.62,11.79,3.64,1.05,7.02-.38,7.86-3.7Z"/>
        </g>
        <g>
          <g>
            <polygon class="cls-8" points="266.68 275.61 269.36 294.05 263.99 398.07 254.96 396.17 239.99 277.92 266.68 275.61"/>
            <polygon class="cls-8" points="222.36 272.14 220.62 341.1 238.13 400.63 248.34 396.83 239.74 343.74 247.64 271.55 222.36 272.14"/>
            <path class="cls-8" d="M248.38,391.25l-12.22,5.6,4.1,8.55-6.41,4.04s-.6,3.56,1.55,5.06c2.15,1.5,16.1-10.21,16.1-10.21l-3.12-13.04Z"/>
            <path class="cls-8" d="M266.68,393.28l-13.26,2.24,1.74,9.32-7.24,2.24s-1.51,3.28,.18,5.29c1.69,2.01,18.2-5.68,18.2-5.68l.37-13.4Z"/>
          </g>
          <path class="cls-8" d="M240.92,159.69c.94,3.07,2.3,6.01,4.02,8.72,.04-5.63,.86-11.26,2.43-16.68,.12-.41,.24-.88,.02-1.25-.2-.35-.63-.48-1.02-.58-6.97-1.68-7.1,4.43-5.45,9.78Z"/>
          <g>
            <path class="cls-8" d="M244.74,168.52c.73,2.32,1.93,4.94,4.34,6.35,2.83,1.66,5.86,.81,7.97-.46,6.98-4.22,19.08-27.51,.88-33.22-16.52-5.19-16.21,17.71-13.19,27.34Z"/>
            <path class="cls-8" d="M259.12,168.62c1.09,1.61,3.56,1.24,5.31,.41,7.21-3.41,11.61-11.92,10.22-19.77-1.16-6.57-9.28-11.67-11.15-3.61-.66,2.86,.99,6.88,.52,10.05-.68,4.54-2.91,8.84-4.9,12.92Z"/>
            <path class="cls-8" d="M241.35,132.8c-8.28,4.58-11.99,14.67-19.56,20.35,6.81,3.12,14.9,3.32,21.85,.54,6.82-2.73,22.99-4.38,20.88-13.83-2.15-9.62-15.91-11.08-23.17-7.06Z"/>
          </g>
          <path class="cls-8" d="M273.49,192.32c4.74,8.23,4.72,17.56,4.07,26.48-1.48,20.19,.44,43.61-6.52,62.91-13.14-.01-38.34-6.04-51.43-7.38-2.55-17.56-1.06-27.82,.37-47.7,.71-9.8,2.23-22.95,5.7-32.29,2.84-7.64,10.41-17.52,21.84-17.2,10.71,.29,21.65,7.7,25.96,15.19Z"/>
          <path class="cls-8" d="M252.08,181.21c-1.2,.51-2.66,.29-4.08-1.08-1.22-1.18-.85-1.57-.59-3.31,.38-2.57,1.07-5.13,1.6-7.67,0,0,7.07,1.47,7.08,1.47,0,0-1.42,6.89-1.53,7.36-.34,1.5-1.27,2.72-2.47,3.23Z"/>
        </g>
        <g>
          <g>
            <polygon class="cls-8" points="99.04 409.42 98.17 413.87 88.83 416.87 85.46 411.68 90.57 407.96 99.91 404.96 99.04 409.42"/>
            <polygon class="cls-8" points="119.1 298.38 99.76 408.06 91.02 408.38 85.82 332.12 83.36 294.24 119.1 298.38"/>
          </g>
          <g>
            <polygon class="cls-8" points="145.55 297.21 133.12 404.72 125.1 405.43 116.62 323.05 109.89 298.76 145.55 297.21"/>
            <polygon class="cls-8" points="125.06 404.41 125.46 409.03 134.53 412.89 138.47 407.88 133.74 403.64 125.06 404.41"/>
          </g>
          <polygon class="cls-8" points="85.46 300.36 81.51 287.69 85.46 273.32 145.55 275.41 145.55 297.21 85.46 300.36"/>
        </g>
        <g>
          <polygon class="cls-8" points="30.92 188.07 29.74 193.45 20.64 192.53 18.6 187.17 21.6 183.25 24.92 186.07 25.14 185.07 24.34 183.84 25.58 183.05 30.92 188.07"/>
          <polygon class="cls-8" points="97.86 174.18 63.6 190.49 29.87 185.63 27.71 193.76 66.7 206.29 117.1 189.49 97.86 174.18"/>
        </g>
        <g>
          <path class="cls-8" d="M105.2,142.9c6.07,3.79,14.66,1.62,20.21,6.2,3.61,2.98,4.95,8.3,4.09,13.05-.4,2.22-1.26,4.41-2.79,6.02-.99,1.04-2.23,1.8-3.53,2.38-1.73,.77-3.59,1.18-5.45,1.27,.13,1.71,.42,3.41,.85,5.07-3.49-.4-6.98-.79-10.47-1.19,.22-2.04,.44-4.08,.66-6.12-.85-.51-1.66-1.1-2.4-1.77-4.48-4.08-6.42-10.94-4.82-16.98,.75-2.83,2.19-5.4,3.64-7.93Z"/>
          <path class="cls-8" d="M121.15,147.93c-.25-.09-.5-.18-.76-.26-3.66-1.19-7.58-1.54-11.4-1.1-2.62,.3-5.55,1.3-6.46,4.07-.41,1.25-.4,2.6-.38,3.91,.02,1.65,.04,3.3,.06,4.95,0,.3,0,.61-.14,.87-.43,.79-1.71,.44-2.25-.28-1.97-2.63-4.42-6.78-5.05-9.98-.52-2.61,.42-5.67-.67-8.13-.51-1.14-1.53-1.95-2.31-2.91-1.7-2.09-2.26-5.05-1.46-7.62,.52-1.65,1.62-3.16,3.18-3.91,2.58-1.24,5.68-.17,8.47-.78,1.42-.31,2.72-1.05,4.15-1.29,3.01-.51,5.94,1.25,8.24,3.27,2.3,2.02,4.38,4.42,7.18,5.63,2.25,.98,4.78,1.1,7.1,1.9,3.87,1.34,6.95,4.61,8.29,8.48,1.5,4.33,1.15,9.78-2.07,13.18-1.61,1.7-2.93,3.61-4.26,5.53-.46,.66-3.14,3.12-2.94,.54,.16-2,.95-3.91,1.1-5.91,.35-4.88-3.33-8.55-7.63-10.14Z"/>
        </g>
        <path class="cls-8" d="M127.3,176.53l-29.06-2.42s-9.58,12.48-20.13,48.4c-10.55,35.91-2.73,67.7-2.73,67.7,0,0,32.78-5.91,79.07-.59l-13.49-89.11-13.67-23.98Z"/>
        <g>
          <rect class="cls-8" x="176.42" y="224.77" width="127.78" height="79.29" transform="translate(-36.9 38.99) rotate(-8.62)"/>
          <rect class="cls-8" x="171.47" y="225.15" width="127.78" height="13.17" transform="translate(-32.06 37.88) rotate(-8.62)"/>
          <path class="cls-8" d="M187.76,223.52h12.77c2.14,0,3.88,1.74,3.88,3.88v3.55h-20.54v-3.55c0-2.14,1.74-3.88,3.88-3.88Z" transform="translate(-31.85 31.65) rotate(-8.62)"/>
          <path class="cls-8" d="M266.01,211.66h12.77c2.14,0,3.88,1.74,3.88,3.88v3.55h-20.54v-3.55c0-2.14,1.74-3.88,3.88-3.88Z" transform="translate(-29.2 43.25) rotate(-8.62)"/>
          <rect class="cls-8" x="267.19" y="261.63" width="25.38" height="6.27" transform="translate(-36.51 44.92) rotate(-8.62)"/>
          <g>
            <rect class="cls-8" x="188.94" y="273.49" width="25.38" height="6.27" transform="translate(-39.17 33.33) rotate(-8.62)"/>
            <rect class="cls-8" x="188.94" y="273.49" width="25.38" height="6.27" transform="translate(444.93 35.83) rotate(81.38)"/>
          </g>
          <path class="cls-5" d="M183.08,313.19l126.34-19.15-9.91-65.37s-12.09,68.7-116.43,84.52Z"/>
        </g>
        <g>
          <path class="cls-8" d="M98.3,401.61l.23,11.43c.07,3.71-2.8,6.78-6.43,6.85l-29.3,.58c-3.62,.07-6.62-2.88-6.69-6.59l-.23-11.43,42.41-.84Z"/>
          <path class="cls-8" d="M3.01,249.92c-.8-40.22,30.36-73.46,69.59-74.24,39.23-.78,71.68,31.2,72.48,71.42,.28,14.29-3.47,27.7-10.19,39.09h0c-19.09,34.35-23.1,62.88-23.1,62.88l-35.75,.71-35.75,.71s-5.13-28.35-25.57-61.92h0c-7.16-11.11-11.45-24.36-11.73-38.65Z"/>
          <path class="cls-8" d="M112.63,349.06l.96,48.57c.04,2.03-1.49,3.71-3.43,3.74l-66.14,1.31c-1.93,.04-3.53-1.58-3.57-3.6l-.96-48.57,73.14-1.45Z"/>
          <path class="cls-5" d="M4.01,236.26c18.76,35.81,54.91,90.98,107.83,112.62-.02,.12-.03,.2-.03,.2l-35.75,.71-35.75,.71s-5.13-28.35-25.57-61.92h0c-7.16-11.11-11.45-24.36-11.73-38.65-.09-4.66,.26-9.23,.99-13.66Z"/>
          <g class="cls-12">
            <path class="cls-7" d="M133.6,253.33c-.7-35.12-29.03-63.03-63.28-62.35-20.02,.4-37.63,10.48-48.67,25.8,10.33-19.27,30.15-32.5,53.15-32.96,34.25-.68,62.58,27.24,63.28,62.35,.29,14.59-4.24,28.12-12.09,39.01,5.06-9.43,7.84-20.31,7.61-31.85Z"/>
          </g>
          <polygon class="cls-8" points="89.87 349.51 96.63 256.12 84.84 266.58 74.04 249.79 63.77 266.45 51.78 256.92 62.25 350.06 58.58 350.13 47.16 248.5 62.83 260.97 73.98 242.89 85.6 260.95 100.93 247.35 93.54 349.44 89.87 349.51"/>
          <g>
            <path class="cls-8" d="M94.22,340.13l-.67,9.31-3.67,.07,.83-11.51c1.16,.72,2.33,1.43,3.51,2.12Z"/>
            <path class="cls-8" d="M57.94,311.71l4.31,38.35-3.67,.07-4.79-42.67c1.36,1.43,2.75,2.85,4.15,4.25Z"/>
          </g>
          <g>
            <rect class="cls-8" x="39.81" y="361.84" width="73.15" height="8.97" transform="translate(-7.24 1.58) rotate(-1.13)"/>
            <rect class="cls-8" x="40.19" y="381" width="73.15" height="8.97" transform="translate(-7.62 1.6) rotate(-1.14)"/>
          </g>
          <g>
            <path class="cls-5" d="M73.15,381.07l-33.04,.65-.2-10.19,20.38-.4c4.34,3.78,8.65,7.07,12.86,9.93Z"/>
            <path class="cls-5" d="M39.73,362.57l-.24-12.06,1.15-.02c3.45,4.32,6.93,8.26,10.41,11.86l-11.32,.22Z"/>
            <path class="cls-5" d="M110.17,401.37l-66.14,1.31c-1.93,.04-3.53-1.58-3.57-3.6l-.17-8.39,47.76-.95c9.78,4.8,18.56,7.4,25.44,8.8-.36,1.59-1.69,2.79-3.32,2.82Z"/>
            <path class="cls-5" d="M60.29,371.14l-20.38,.4-.18-8.97,11.32-.22c3.08,3.19,6.17,6.12,9.24,8.79Z"/>
            <path class="cls-5" d="M88.04,389.75l-47.76,.95-.18-8.97,33.04-.65c5.13,3.49,10.13,6.34,14.89,8.68Z"/>
          </g>
          <path class="cls-5" d="M56.02,409.39c8.41,7.98,24.26,10.13,29.49,10.63l-22.71,.45c-3.62,.07-6.62-2.88-6.69-6.59l-.09-4.49Z"/>
        </g>
        <g>
          <polygon class="cls-8" points="285.25 262.67 282.16 270.64 278.56 269.48 279.41 263.57 277.45 263.78 280.95 257.28 284.87 257.99 285.25 262.67"/>
          <path class="cls-8" d="M256.24,186.75c-.31,.61-.53,1.3-.66,2.08-.54,3.23,.57,6.57,2.36,9.37,2.84,4.43,7.18,8.05,10.53,12.14,3.83,4.69,7.67,9.37,11.5,14.06l-.97,34.68,7.84,1.03,9.59-41.64c-5.41-5.99-10.72-11.82-15.69-18.08-4.46-5.62-8.05-12.54-14.85-15.9-3.84-1.9-7.96-1.1-9.64,2.25Z"/>
        </g>
        <g>
          <polygon class="cls-8" points="127.01 195.55 118.92 236.07 97.35 262.45 103.19 268.5 134.05 241.57 143.4 216.51 127.01 195.55"/>
          <polygon class="cls-8" points="99.98 262.82 103.98 266.6 98.5 273.92 92.85 272.9 91.04 268.31 95.17 266.92 94.42 266.22 92.96 266.27 92.93 264.8 99.98 262.82"/>
        </g>
      </g>
      <g>
        <g>
          <g>
            <path class="cls-19" d="M202.71,0s-39.41,42.73-39.8,78.72c-.39,35.99,26.46,44.84,38.47,44.96,12.01,.13,39.04-8.13,39.43-44.12C241.19,43.57,202.71,0,202.71,0Z"/>
            <path class="cls-2" d="M176.84,93.06s-.01-.05-.02-.08c-.35-1.75-.87-3.25-.9-5.05-.03-2.62,.06-5.25,.26-7.87,.41-5.39,1.26-10.75,2.42-16.03,2.38-10.82,6.03-21.34,10.41-31.51,1.97-4.57,4.09-9.08,6.34-13.51,1.06-2.09,2.16-4.17,3.28-6.24,.29-.53,3.47-5.7,3.3-5.88-.07-.07-.1-.1-.1-.1,0,0-35.56,42.88-34.12,77.35,.09,2.23,.29,4.45,.62,6.65,.16,1.06,.34,2.11,.56,3.16,.19,.9,.05,1.8,.52,2.62,.78,1.36,2.26,2.29,3.82,2.41,1.38,.1,2.6-.32,3.14-1.61,.56-1.36,.74-2.86,.47-4.3Z"/>
          </g>
          <path class="cls-2" d="M181.76,102.78c-.65-.66-1.6-1.07-2.52-1.08-.7,0-1.5,.24-2.12,.67-1.42,.8-2.13,2.36-1.77,4.04,.53,2.45,3.48,3.46,5.54,2.29,2.11-1.2,2.63-4.16,.87-5.92Z"/>
        </g>
        <g>
          <polygon class="cls-16" points="196.56 126.19 197.76 118.46 201.06 118.88 201.41 124.37 203.05 123.84 201.22 130.31 197.74 130.34 196.56 126.19"/>
          <path class="cls-18" d="M235.23,189.72c.15-.6,.22-1.27,.19-2-.13-3.01-1.68-5.83-3.73-8.05-3.24-3.51-7.61-6.03-11.23-9.15-4.14-3.57-8.28-7.14-12.42-10.71l-5.47-31.48-6.91,.42-.65,39.25c5.72,4.47,11.33,8.82,16.74,13.62,4.84,4.3,9.18,9.93,15.62,11.79,3.64,1.05,7.02-.38,7.86-3.7Z"/>
        </g>
        <g>
          <g>
            <polygon class="cls-15" points="263.68 273.61 266.36 292.05 260.99 396.07 251.96 394.17 236.99 275.92 263.68 273.61"/>
            <polygon class="cls-15" points="219.36 270.14 217.62 339.1 235.13 398.63 245.34 394.83 236.74 341.74 244.64 269.55 219.36 270.14"/>
            <path class="cls-11" d="M245.38,389.25l-12.22,5.6,4.1,8.55-6.41,4.04s-.6,3.56,1.55,5.06c2.15,1.5,16.1-10.21,16.1-10.21l-3.12-13.04Z"/>
            <path class="cls-11" d="M263.68,391.28l-13.26,2.24,1.74,9.32-7.24,2.24s-1.51,3.28,.18,5.29c1.69,2.01,18.2-5.68,18.2-5.68l.37-13.4Z"/>
          </g>
          <path class="cls-11" d="M237.92,157.69c.94,3.07,2.3,6.01,4.02,8.72,.04-5.63,.86-11.26,2.43-16.68,.12-.41,.24-.88,.02-1.25-.2-.35-.63-.48-1.02-.58-6.97-1.68-7.1,4.43-5.45,9.78Z"/>
          <g>
            <path class="cls-16" d="M241.74,166.52c.73,2.32,1.93,4.94,4.34,6.35,2.83,1.66,5.86,.81,7.97-.46,6.98-4.22,19.08-27.51,.88-33.22-16.52-5.19-16.21,17.71-13.19,27.34Z"/>
            <path class="cls-11" d="M256.12,166.62c1.09,1.61,3.56,1.24,5.31,.41,7.21-3.41,11.61-11.92,10.22-19.77-1.16-6.57-9.28-11.67-11.15-3.61-.66,2.86,.99,6.88,.52,10.05-.68,4.54-2.91,8.84-4.9,12.92Z"/>
            <path class="cls-11" d="M238.35,130.8c-8.28,4.58-11.99,14.67-19.56,20.35,6.81,3.12,14.9,3.32,21.85,.54,6.82-2.73,22.99-4.38,20.88-13.83-2.15-9.62-15.91-11.08-23.17-7.06Z"/>
          </g>
          <path class="cls-18" d="M270.49,190.32c4.74,8.23,4.72,17.56,4.07,26.48-1.48,20.19,.44,43.61-6.52,62.91-13.14-.01-38.34-6.04-51.43-7.38-2.55-17.56-1.06-27.82,.37-47.7,.71-9.8,2.23-22.95,5.7-32.29,2.84-7.64,10.41-17.52,21.84-17.2,10.71,.29,21.65,7.7,25.96,15.19Z"/>
          <path class="cls-16" d="M249.08,179.21c-1.2,.51-2.66,.29-4.08-1.08-1.22-1.18-.85-1.57-.59-3.31,.38-2.57,1.07-5.13,1.6-7.67,0,0,7.07,1.47,7.08,1.47,0,0-1.42,6.89-1.53,7.36-.34,1.5-1.27,2.72-2.47,3.23Z"/>
        </g>
        <g>
          <g>
            <polygon class="cls-11" points="96.04 407.42 95.17 411.87 85.83 414.87 82.46 409.68 87.57 405.96 96.91 402.96 96.04 407.42"/>
            <polygon class="cls-20" points="116.1 296.38 96.76 406.06 88.02 406.38 82.82 330.12 80.36 292.24 116.1 296.38"/>
          </g>
          <g>
            <polygon class="cls-20" points="142.55 295.21 130.12 402.72 122.1 403.43 113.62 321.05 106.89 296.76 142.55 295.21"/>
            <polygon class="cls-11" points="122.06 402.41 122.46 407.03 131.53 410.89 135.47 405.88 130.74 401.64 122.06 402.41"/>
          </g>
          <polygon class="cls-20" points="82.46 298.36 78.51 285.69 82.46 271.32 142.55 273.41 142.55 295.21 82.46 298.36"/>
        </g>
        <g>
          <polygon class="cls-1" points="27.92 186.07 26.74 191.45 17.64 190.53 15.6 185.17 18.6 181.25 21.92 184.07 22.14 183.07 21.34 181.84 22.58 181.05 27.92 186.07"/>
          <polygon class="cls-15" points="94.86 172.18 60.6 188.49 26.87 183.63 24.71 191.76 63.7 204.29 114.1 187.49 94.86 172.18"/>
        </g>
        <g>
          <path class="cls-1" d="M102.2,140.9c6.07,3.79,14.66,1.62,20.21,6.2,3.61,2.98,4.95,8.3,4.09,13.05-.4,2.22-1.26,4.41-2.79,6.02-.99,1.04-2.23,1.8-3.53,2.38-1.73,.77-3.59,1.18-5.45,1.27,.13,1.71,.42,3.41,.85,5.07-3.49-.4-6.98-.79-10.47-1.19,.22-2.04,.44-4.08,.66-6.12-.85-.51-1.66-1.1-2.4-1.77-4.48-4.08-6.42-10.94-4.82-16.98,.75-2.83,2.19-5.4,3.64-7.93Z"/>
          <path class="cls-11" d="M118.15,145.93c-.25-.09-.5-.18-.76-.26-3.66-1.19-7.58-1.54-11.4-1.1-2.62,.3-5.55,1.3-6.46,4.07-.41,1.25-.4,2.6-.38,3.91,.02,1.65,.04,3.3,.06,4.95,0,.3,0,.61-.14,.87-.43,.79-1.71,.44-2.25-.28-1.97-2.63-4.42-6.78-5.05-9.98-.52-2.61,.42-5.67-.67-8.13-.51-1.14-1.53-1.95-2.31-2.91-1.7-2.09-2.26-5.05-1.46-7.62,.52-1.65,1.62-3.16,3.18-3.91,2.58-1.24,5.68-.17,8.47-.78,1.42-.31,2.72-1.05,4.15-1.29,3.01-.51,5.94,1.25,8.24,3.27,2.3,2.02,4.38,4.42,7.18,5.63,2.25,.98,4.78,1.1,7.1,1.9,3.87,1.34,6.95,4.61,8.29,8.48,1.5,4.33,1.15,9.78-2.07,13.18-1.61,1.7-2.93,3.61-4.26,5.53-.46,.66-3.14,3.12-2.94,.54,.16-2,.95-3.91,1.1-5.91,.35-4.88-3.33-8.55-7.63-10.14Z"/>
        </g>
        <path class="cls-15" d="M124.3,174.53l-29.06-2.42s-9.58,12.48-20.13,48.4c-10.55,35.91-2.73,67.7-2.73,67.7,0,0,32.78-5.91,79.07-.59l-13.49-89.11-13.67-23.98Z"/>
        <g>
          <rect class="cls-20" x="173.42" y="222.77" width="127.78" height="79.29" transform="translate(-36.64 38.52) rotate(-8.62)"/>
          <rect class="cls-10" x="168.47" y="223.15" width="127.78" height="13.17" transform="translate(-31.8 37.41) rotate(-8.62)"/>
          <path class="cls-20" d="M184.76,221.52h12.77c2.14,0,3.88,1.74,3.88,3.88v3.55h-20.54v-3.55c0-2.14,1.74-3.88,3.88-3.88Z" transform="translate(-31.59 31.18) rotate(-8.62)"/>
          <path class="cls-20" d="M263.01,209.66h12.77c2.14,0,3.88,1.74,3.88,3.88v3.55h-20.54v-3.55c0-2.14,1.74-3.88,3.88-3.88Z" transform="translate(-28.93 42.77) rotate(-8.62)"/>
          <rect class="cls-10" x="264.19" y="259.63" width="25.38" height="6.27" transform="translate(-36.24 44.45) rotate(-8.62)"/>
          <g>
            <rect class="cls-10" x="185.94" y="271.49" width="25.38" height="6.27" transform="translate(-38.91 32.86) rotate(-8.62)"/>
            <rect class="cls-10" x="185.94" y="271.49" width="25.38" height="6.27" transform="translate(440.4 37.09) rotate(81.38)"/>
          </g>
          <path class="cls-6" d="M180.08,311.19l126.34-19.15-9.91-65.37s-12.09,68.7-116.43,84.52Z"/>
        </g>
        <g>
          <path class="cls-17" d="M95.3,399.61l.23,11.43c.07,3.71-2.8,6.78-6.43,6.85l-29.3,.58c-3.62,.07-6.62-2.88-6.69-6.59l-.23-11.43,42.41-.84Z"/>
          <path class="cls-14" d="M.01,247.92c-.8-40.22,30.36-73.46,69.59-74.24s71.68,31.2,72.48,71.42c.28,14.29-3.47,27.7-10.19,39.09h0c-19.09,34.35-23.1,62.88-23.1,62.88l-35.75,.71-35.75,.71s-5.13-28.35-25.57-61.92h0C4.58,275.47,.3,262.22,.01,247.92Z"/>
          <path class="cls-20" d="M109.63,347.06l.96,48.57c.04,2.03-1.49,3.71-3.43,3.74l-66.14,1.31c-1.93,.04-3.53-1.58-3.57-3.6l-.96-48.57,73.14-1.45Z"/>
          <path class="cls-6" d="M1.01,234.26c18.76,35.81,54.91,90.98,107.83,112.62-.02,.12-.03,.2-.03,.2l-35.75,.71-35.75,.71s-5.13-28.35-25.57-61.92h0C4.58,275.47,.3,262.22,.01,247.92c-.09-4.66,.26-9.23,.99-13.66Z"/>
          <g class="cls-12">
            <path class="cls-13" d="M130.6,251.33c-.7-35.12-29.03-63.03-63.28-62.35-20.02,.4-37.63,10.48-48.67,25.8,10.33-19.27,30.15-32.5,53.15-32.96,34.25-.68,62.58,27.24,63.28,62.35,.29,14.59-4.24,28.12-12.09,39.01,5.06-9.43,7.84-20.31,7.61-31.85Z"/>
          </g>
          <polygon class="cls-9" points="86.87 347.51 93.63 254.12 81.84 264.58 71.04 247.79 60.77 264.45 48.78 254.92 59.25 348.06 55.58 348.13 44.16 246.5 59.83 258.97 70.98 240.89 82.6 258.95 97.93 245.35 90.54 347.44 86.87 347.51"/>
          <g>
            <path class="cls-4" d="M91.22,338.13l-.67,9.31-3.67,.07,.83-11.51c1.16,.72,2.33,1.43,3.51,2.12Z"/>
            <path class="cls-4" d="M54.94,309.71l4.31,38.35-3.67,.07-4.79-42.67c1.36,1.43,2.75,2.85,4.15,4.25Z"/>
          </g>
          <g>
            <rect class="cls-17" x="36.81" y="359.84" width="73.15" height="8.97" transform="translate(-7.2 1.53) rotate(-1.13)"/>
            <rect class="cls-17" x="37.19" y="379" width="73.15" height="8.97" transform="translate(-7.58 1.54) rotate(-1.14)"/>
          </g>
          <g>
            <path class="cls-6" d="M70.15,379.07l-33.04,.65-.2-10.19,20.38-.4c4.34,3.78,8.65,7.07,12.86,9.93Z"/>
            <path class="cls-6" d="M36.73,360.57l-.24-12.06,1.15-.02c3.45,4.32,6.93,8.26,10.41,11.86l-11.32,.22Z"/>
            <path class="cls-6" d="M107.17,399.37l-66.14,1.31c-1.93,.04-3.53-1.58-3.57-3.6l-.17-8.39,47.76-.95c9.78,4.8,18.56,7.4,25.44,8.8-.36,1.59-1.69,2.79-3.32,2.82Z"/>
            <path class="cls-6" d="M57.29,369.14l-20.38,.4-.18-8.97,11.32-.22c3.08,3.19,6.17,6.12,9.24,8.79Z"/>
            <path class="cls-6" d="M85.04,387.75l-47.76,.95-.18-8.97,33.04-.65c5.13,3.49,10.13,6.34,14.89,8.68Z"/>
          </g>
          <path class="cls-6" d="M53.02,407.39c8.41,7.98,24.26,10.13,29.49,10.63l-22.71,.45c-3.62,.07-6.62-2.88-6.69-6.59l-.09-4.49Z"/>
        </g>
        <g>
          <polygon class="cls-16" points="282.25 260.67 279.16 268.64 275.56 267.48 276.41 261.57 274.45 261.78 277.95 255.28 281.87 255.99 282.25 260.67"/>
          <path class="cls-18" d="M253.24,184.75c-.31,.61-.53,1.3-.66,2.08-.54,3.23,.57,6.57,2.36,9.37,2.84,4.43,7.18,8.05,10.53,12.14,3.83,4.69,7.67,9.37,11.5,14.06l-.97,34.68,7.84,1.03,9.59-41.64c-5.41-5.99-10.72-11.82-15.69-18.08-4.46-5.62-8.05-12.54-14.85-15.9-3.84-1.9-7.96-1.1-9.64,2.25Z"/>
        </g>
        <g>
          <polygon class="cls-15" points="124.01 193.55 115.92 234.07 94.35 260.45 100.19 266.5 131.05 239.57 140.4 214.51 124.01 193.55"/>
          <polygon class="cls-1" points="96.98 260.82 100.98 264.6 95.5 271.92 89.85 270.9 88.04 266.31 92.17 264.92 91.42 264.22 89.96 264.27 89.93 262.8 96.98 260.82"/>
        </g>
      </g>
    </g>
  </g>
</svg>