<?xml version="1.0" encoding="UTF-8"?>
<svg id="Layer_2" data-name="Layer 2" xmlns="http://www.w3.org/2000/svg" xmlns:xlink="http://www.w3.org/1999/xlink" viewBox="0 0 335.69 326.56">
  <defs>
    <style>
      .cls-1 {
        fill: #50cbcf;
      }

      .cls-2, .cls-3, .cls-4 {
        fill: #fff;
      }

      .cls-5 {
        fill: #76c0bf;
      }

      .cls-6 {
        fill: #90dcdf;
      }

      .cls-3, .cls-7, .cls-8 {
        opacity: .4;
      }

      .cls-9, .cls-10, .cls-11, .cls-8, .cls-12 {
        fill: #d3d3d3;
      }

      .cls-9, .cls-13 {
        opacity: .1;
      }

      .cls-14 {
        fill: #2c9db2;
      }

      .cls-15 {
        clip-path: url(#clippath-1);
      }

      .cls-16 {
        opacity: .34;
      }

      .cls-17, .cls-18 {
        fill: #cfecef;
      }

      .cls-19, .cls-4, .cls-11 {
        opacity: .2;
      }

      .cls-19, .cls-7 {
        fill: #085770;
      }

      .cls-20 {
        fill: #ffa412;
      }

      .cls-18, .cls-12 {
        opacity: .49;
      }

      .cls-21 {
        fill: #ff9843;
      }

      .cls-22 {
        fill: #2c3a64;
      }

      .cls-23 {
        clip-path: url(#clippath);
      }

      .cls-13, .cls-24 {
        fill: #086e95;
      }

      .cls-25 {
        fill: none;
      }

      .cls-26 {
        fill: #ed7d2b;
      }

      .cls-27 {
        fill: #ffcb62;
      }

      .cls-28 {
        fill: #de2e15;
      }

      .cls-29 {
        fill: #2b478b;
      }
    </style>
    <clipPath id="clippath">
      <rect class="cls-10" x="238.82" y="90.41" width="91.41" height="159.94"/>
    </clipPath>
    <clipPath id="clippath-1">
      <rect class="cls-25" x="234.82" y="87.41" width="91.41" height="159.94"/>
    </clipPath>
  </defs>
  <g id="Layer_1-2" data-name="Layer 1">
    <g>
      <g>
        <g>
          <path class="cls-10" d="M140.32,3h81.03c9.06,0,18.69,3.66,25.65,9.58,7.06,5.92,11.46,14.1,12.28,23.14,15.79,84.51-24.99,170.52-5.21,255.78H100.86c-9.02,0-19.21-3.66-27.05-9.58-7.91-5.92-13.06-14.18-14.91-23.14-15.98-77.37,43.56-157.18,16.83-231.61-2.64-7.35-9.81-13.01-16.81-17.3-7.03-4.31-14.81-6.86-22.29-6.86h103.7Z"/>
          <path class="cls-10" d="M36.62,3c-.23,0-.47,0-.7,0,0,0,0,0,0,0h.7Z"/>
        </g>
        <g>
          <path class="cls-12" d="M105.12,71.61H240.88c.07-2.04,.11-4.08,.12-6.12H105.29c-.02,2.04-.07,4.08-.16,6.12Z"/>
          <path class="cls-12" d="M103.73,87.92c50.1,0,95.48,0,136.13,0,.18-2.04,.35-4.08,.49-6.12H104.4c-.2,2.04-.42,4.08-.67,6.12Z"/>
          <path class="cls-12" d="M101.2,104.23H238.01c.27-2.04,.53-4.08,.78-6.12H102.26c-.33,2.04-.69,4.08-1.06,6.12Z"/>
          <path class="cls-12" d="M97.84,120.54H235.56c.34-2.04,.66-4.08,.98-6.12H99.18c-.43,2.04-.88,4.08-1.34,6.12Z"/>
          <path class="cls-12" d="M93.97,136.85H232.73c.37-2.04,.73-4.08,1.09-6.12H95.46c-.49,2.04-.99,4.08-1.49,6.12Z"/>
          <path class="cls-12" d="M89.9,153.16H229.75c.37-2.04,.75-4.08,1.12-6.12H91.43c-.51,2.04-1.02,4.08-1.53,6.12Z"/>
          <path class="cls-12" d="M85.94,169.47H226.86c.35-2.04,.7-4.08,1.06-6.12H87.39c-.49,2.04-.98,4.08-1.45,6.12Z"/>
          <path class="cls-12" d="M82.41,185.78H224.28c.29-2.04,.6-4.08,.92-6.12H83.66c-.43,2.04-.85,4.08-1.25,6.12Z"/>
          <path class="cls-12" d="M79.62,202.1H222.24c.21-2.04,.44-4.08,.69-6.12H80.56c-.34,2.04-.65,4.08-.94,6.12Z"/>
          <path class="cls-12" d="M77.88,218.41H220.97c.1-2.04,.22-4.08,.37-6.12H78.39c-.2,2.04-.37,4.08-.51,6.12Z"/>
        </g>
        <path class="cls-10" d="M75.73,27.17c-2.64-7.35-9.81-13.01-16.81-17.3-5.75-3.52-12-5.87-18.17-6.61-.81-.09-1.61-.16-2.39-.2-.02,0-.05,0-.07,0-.24-.01-.49-.02-.73-.03-.04,0-.09,0-.13,0-.27,0-.54-.01-.8-.01-8.94,0-16.43,3.65-22.41,9.55-5.86,5.9-10.22,14.06-10.21,23.07H78.39c-.77-2.83-1.66-5.64-2.67-8.46Z"/>
        <g>
          <path class="cls-10" d="M247.27,272.2c-2.24,0-4.36-.88-5.97-2.49-1.6-1.6-2.49-3.72-2.49-5.97V77.67c0-2.24,.88-4.36,2.49-5.97,1.6-1.6,3.72-2.49,5.97-2.49h74.5c2.24,0,4.36,.88,5.97,2.49,1.6,1.6,2.49,3.72,2.49,5.97v186.08c0,2.24-.88,4.36-2.49,5.97-1.6,1.6-3.72,2.49-5.97,2.49h-74.5Z"/>
          <rect class="cls-10" x="238.82" y="112.26" width="91.41" height="7.02"/>
          <g>
            <polygon class="cls-10" points="238.82 177.01 253.81 158.85 266.99 173.99 278.98 165.51 287.67 171.87 299.66 147.65 309.55 179.74 316.74 171.26 330.23 174.29 330.23 197.56 238.82 197.56 238.82 177.01"/>
            <path class="cls-10" d="M238.88,189.86l14.93-25.41,13.19,28.6,11.99-6.36,8.69,6.13,11.99-8.4,9.89-2.5,7.19,2.95,13.49-1.59v14.26h-91.41s.28-7.92,.06-7.7Z"/>
          </g>
          <circle class="cls-10" cx="252.99" cy="158.81" r="2.34"/>
          <circle class="cls-10" cx="299.54" cy="148.08" r="2.34"/>
          <circle class="cls-10" cx="278.54" cy="165.9" r="2.34"/>
          <path class="cls-10" d="M252.99,209.65c-.09,0-.16-.07-.16-.16v-.33c0-.09,.07-.16,.16-.16s.16,.07,.16,.16v.33c0,.09-.07,.16-.16,.16Zm0-1.63c-.09,0-.16-.07-.16-.16v-.33c0-.09,.07-.16,.16-.16s.16,.07,.16,.16v.33c0,.09-.07,.16-.16,.16Zm0-1.63c-.09,0-.16-.07-.16-.16v-.33c0-.09,.07-.16,.16-.16s.16,.07,.16,.16v.33c0,.09-.07,.16-.16,.16Zm0-1.63c-.09,0-.16-.07-.16-.16v-.33c0-.09,.07-.16,.16-.16s.16,.07,.16,.16v.33c0,.09-.07,.16-.16,.16Zm0-1.63c-.09,0-.16-.07-.16-.16v-.33c0-.09,.07-.16,.16-.16s.16,.07,.16,.16v.33c0,.09-.07,.16-.16,.16Zm0-1.63c-.09,0-.16-.07-.16-.16v-.33c0-.09,.07-.16,.16-.16s.16,.07,.16,.16v.33c0,.09-.07,.16-.16,.16Zm0-1.63c-.09,0-.16-.07-.16-.16v-.33c0-.09,.07-.16,.16-.16s.16,.07,.16,.16v.33c0,.09-.07,.16-.16,.16Zm0-1.63c-.09,0-.16-.07-.16-.16v-.33c0-.09,.07-.16,.16-.16s.16,.07,.16,.16v.33c0,.09-.07,.16-.16,.16Zm0-1.63c-.09,0-.16-.07-.16-.16v-.33c0-.09,.07-.16,.16-.16s.16,.07,.16,.16v.33c0,.09-.07,.16-.16,.16Zm0-1.63c-.09,0-.16-.07-.16-.16v-.33c0-.09,.07-.16,.16-.16s.16,.07,.16,.16v.33c0,.09-.07,.16-.16,.16Zm0-1.63c-.09,0-.16-.07-.16-.16v-.33c0-.09,.07-.16,.16-.16s.16,.07,.16,.16v.33c0,.09-.07,.16-.16,.16Zm0-1.63c-.09,0-.16-.07-.16-.16v-.33c0-.09,.07-.16,.16-.16s.16,.07,.16,.16v.33c0,.09-.07,.16-.16,.16Zm0-1.63c-.09,0-.16-.07-.16-.16v-.33c0-.09,.07-.16,.16-.16s.16,.07,.16,.16v.33c0,.09-.07,.16-.16,.16Zm0-1.63c-.09,0-.16-.07-.16-.16v-.33c0-.09,.07-.16,.16-.16s.16,.07,.16,.16v.33c0,.09-.07,.16-.16,.16Zm0-1.63c-.09,0-.16-.07-.16-.16v-.33c0-.09,.07-.16,.16-.16s.16,.07,.16,.16v.33c0,.09-.07,.16-.16,.16Zm0-1.63c-.09,0-.16-.07-.16-.16v-.33c0-.09,.07-.16,.16-.16s.16,.07,.16,.16v.33c0,.09-.07,.16-.16,.16Zm0-1.63c-.09,0-.16-.07-.16-.16v-.33c0-.09,.07-.16,.16-.16s.16,.07,.16,.16v.33c0,.09-.07,.16-.16,.16Zm0-1.63c-.09,0-.16-.07-.16-.16v-.33c0-.09,.07-.16,.16-.16s.16,.07,.16,.16v.33c0,.09-.07,.16-.16,.16Zm0-1.63c-.09,0-.16-.07-.16-.16v-.33c0-.09,.07-.16,.16-.16s.16,.07,.16,.16v.33c0,.09-.07,.16-.16,.16Zm0-1.63c-.09,0-.16-.07-.16-.16v-.33c0-.09,.07-.16,.16-.16s.16,.07,.16,.16v.33c0,.09-.07,.16-.16,.16Zm0-1.63c-.09,0-.16-.07-.16-.16v-.33c0-.09,.07-.16,.16-.16s.16,.07,.16,.16v.33c0,.09-.07,.16-.16,.16Zm0-1.63c-.09,0-.16-.07-.16-.16v-.33c0-.09,.07-.16,.16-.16s.16,.07,.16,.16v.33c0,.09-.07,.16-.16,.16Zm0-1.63c-.09,0-.16-.07-.16-.16v-.33c0-.09,.07-.16,.16-.16s.16,.07,.16,.16v.33c0,.09-.07,.16-.16,.16Zm0-1.63c-.09,0-.16-.07-.16-.16v-.33c0-.09,.07-.16,.16-.16s.16,.07,.16,.16v.33c0,.09-.07,.16-.16,.16Zm0-1.63c-.09,0-.16-.07-.16-.16v-.33c0-.09,.07-.16,.16-.16s.16,.07,.16,.16v.33c0,.09-.07,.16-.16,.16Zm0-1.63c-.09,0-.16-.07-.16-.16v-.33c0-.09,.07-.16,.16-.16s.16,.07,.16,.16v.33c0,.09-.07,.16-.16,.16Zm0-1.63c-.09,0-.16-.07-.16-.16v-.33c0-.09,.07-.16,.16-.16s.16,.07,.16,.16v.33c0,.09-.07,.16-.16,.16Zm0-1.63c-.09,0-.16-.07-.16-.16v-.33c0-.09,.07-.16,.16-.16s.16,.07,.16,.16v.33c0,.09-.07,.16-.16,.16Zm0-1.63c-.09,0-.16-.07-.16-.16v-.33c0-.09,.07-.16,.16-.16s.16,.07,.16,.16v.33c0,.09-.07,.16-.16,.16Zm0-1.63c-.09,0-.16-.07-.16-.16v-.33c0-.09,.07-.16,.16-.16s.16,.07,.16,.16v.33c0,.09-.07,.16-.16,.16Zm0-1.63c-.09,0-.16-.07-.16-.16v-.33c0-.09,.07-.16,.16-.16s.16,.07,.16,.16v.33c0,.09-.07,.16-.16,.16Zm0-1.63c-.09,0-.16-.07-.16-.16v-.33c0-.09,.07-.16,.16-.16s.16,.07,.16,.16v.33c0,.09-.07,.16-.16,.16Z"/>
          <path class="cls-10" d="M278.54,209.78c-.09,0-.16-.07-.16-.16v-.33c0-.09,.07-.16,.16-.16s.16,.07,.16,.16v.33c0,.09-.07,.16-.16,.16Zm0-1.63c-.09,0-.16-.07-.16-.16v-.33c0-.09,.07-.16,.16-.16s.16,.07,.16,.16v.33c0,.09-.07,.16-.16,.16Zm0-1.63c-.09,0-.16-.07-.16-.16v-.33c0-.09,.07-.16,.16-.16s.16,.07,.16,.16v.33c0,.09-.07,.16-.16,.16Zm0-1.63c-.09,0-.16-.07-.16-.16v-.33c0-.09,.07-.16,.16-.16s.16,.07,.16,.16v.33c0,.09-.07,.16-.16,.16Zm0-1.63c-.09,0-.16-.07-.16-.16v-.33c0-.09,.07-.16,.16-.16s.16,.07,.16,.16v.33c0,.09-.07,.16-.16,.16Zm0-1.63c-.09,0-.16-.07-.16-.16v-.33c0-.09,.07-.16,.16-.16s.16,.07,.16,.16v.33c0,.09-.07,.16-.16,.16Zm0-1.63c-.09,0-.16-.07-.16-.16v-.33c0-.09,.07-.16,.16-.16s.16,.07,.16,.16v.33c0,.09-.07,.16-.16,.16Zm0-1.63c-.09,0-.16-.07-.16-.16v-.33c0-.09,.07-.16,.16-.16s.16,.07,.16,.16v.33c0,.09-.07,.16-.16,.16Zm0-1.63c-.09,0-.16-.07-.16-.16v-.33c0-.09,.07-.16,.16-.16s.16,.07,.16,.16v.33c0,.09-.07,.16-.16,.16Zm0-1.63c-.09,0-.16-.07-.16-.16v-.33c0-.09,.07-.16,.16-.16s.16,.07,.16,.16v.33c0,.09-.07,.16-.16,.16Zm0-1.63c-.09,0-.16-.07-.16-.16v-.33c0-.09,.07-.16,.16-.16s.16,.07,.16,.16v.33c0,.09-.07,.16-.16,.16Zm0-1.63c-.09,0-.16-.07-.16-.16v-.33c0-.09,.07-.16,.16-.16s.16,.07,.16,.16v.33c0,.09-.07,.16-.16,.16Zm0-1.63c-.09,0-.16-.07-.16-.16v-.33c0-.09,.07-.16,.16-.16s.16,.07,.16,.16v.33c0,.09-.07,.16-.16,.16Zm0-1.63c-.09,0-.16-.07-.16-.16v-.33c0-.09,.07-.16,.16-.16s.16,.07,.16,.16v.33c0,.09-.07,.16-.16,.16Zm0-1.63c-.09,0-.16-.07-.16-.16v-.33c0-.09,.07-.16,.16-.16s.16,.07,.16,.16v.33c0,.09-.07,.16-.16,.16Zm0-1.63c-.09,0-.16-.07-.16-.16v-.33c0-.09,.07-.16,.16-.16s.16,.07,.16,.16v.33c0,.09-.07,.16-.16,.16Zm0-1.63c-.09,0-.16-.07-.16-.16v-.33c0-.09,.07-.16,.16-.16s.16,.07,.16,.16v.33c0,.09-.07,.16-.16,.16Zm0-1.63c-.09,0-.16-.07-.16-.16v-.33c0-.09,.07-.16,.16-.16s.16,.07,.16,.16v.33c0,.09-.07,.16-.16,.16Zm0-1.63c-.09,0-.16-.07-.16-.16v-.33c0-.09,.07-.16,.16-.16s.16,.07,.16,.16v.33c0,.09-.07,.16-.16,.16Zm0-1.63c-.09,0-.16-.07-.16-.16v-.33c0-.09,.07-.16,.16-.16s.16,.07,.16,.16v.33c0,.09-.07,.16-.16,.16Zm0-1.63c-.09,0-.16-.07-.16-.16v-.33c0-.09,.07-.16,.16-.16s.16,.07,.16,.16v.33c0,.09-.07,.16-.16,.16Zm0-1.63c-.09,0-.16-.07-.16-.16v-.33c0-.09,.07-.16,.16-.16s.16,.07,.16,.16v.33c0,.09-.07,.16-.16,.16Zm0-1.63c-.09,0-.16-.07-.16-.16v-.33c0-.09,.07-.16,.16-.16s.16,.07,.16,.16v.33c0,.09-.07,.16-.16,.16Zm0-1.63c-.09,0-.16-.07-.16-.16v-.33c0-.09,.07-.16,.16-.16s.16,.07,.16,.16v.33c0,.09-.07,.16-.16,.16Zm0-1.63c-.09,0-.16-.07-.16-.16v-.33c0-.09,.07-.16,.16-.16s.16,.07,.16,.16v.33c0,.09-.07,.16-.16,.16Zm0-1.63c-.09,0-.16-.07-.16-.16v-.33c0-.09,.07-.16,.16-.16s.16,.07,.16,.16v.33c0,.09-.07,.16-.16,.16Zm0-1.63c-.09,0-.16-.07-.16-.16v-.33c0-.09,.07-.16,.16-.16s.16,.07,.16,.16v.33c0,.09-.07,.16-.16,.16Zm0-1.63c-.09,0-.16-.07-.16-.16v-.33c0-.09,.07-.16,.16-.16s.16,.07,.16,.16v.33c0,.09-.07,.16-.16,.16Z"/>
          <path class="cls-10" d="M299.54,209.91c-.09,0-.16-.07-.16-.16v-.33c0-.09,.07-.16,.16-.16s.16,.07,.16,.16v.33c0,.09-.07,.16-.16,.16Zm0-1.63c-.09,0-.16-.07-.16-.16v-.33c0-.09,.07-.16,.16-.16s.16,.07,.16,.16v.33c0,.09-.07,.16-.16,.16Zm0-1.63c-.09,0-.16-.07-.16-.16v-.33c0-.09,.07-.16,.16-.16s.16,.07,.16,.16v.33c0,.09-.07,.16-.16,.16Zm0-1.63c-.09,0-.16-.07-.16-.16v-.33c0-.09,.07-.16,.16-.16s.16,.07,.16,.16v.33c0,.09-.07,.16-.16,.16Zm0-1.63c-.09,0-.16-.07-.16-.16v-.33c0-.09,.07-.16,.16-.16s.16,.07,.16,.16v.33c0,.09-.07,.16-.16,.16Zm0-1.63c-.09,0-.16-.07-.16-.16v-.33c0-.09,.07-.16,.16-.16s.16,.07,.16,.16v.33c0,.09-.07,.16-.16,.16Zm0-1.63c-.09,0-.16-.07-.16-.16v-.33c0-.09,.07-.16,.16-.16s.16,.07,.16,.16v.33c0,.09-.07,.16-.16,.16Zm0-1.63c-.09,0-.16-.07-.16-.16v-.33c0-.09,.07-.16,.16-.16s.16,.07,.16,.16v.33c0,.09-.07,.16-.16,.16Zm0-1.63c-.09,0-.16-.07-.16-.16v-.33c0-.09,.07-.16,.16-.16s.16,.07,.16,.16v.33c0,.09-.07,.16-.16,.16Zm0-1.63c-.09,0-.16-.07-.16-.16v-.33c0-.09,.07-.16,.16-.16s.16,.07,.16,.16v.33c0,.09-.07,.16-.16,.16Zm0-1.63c-.09,0-.16-.07-.16-.16v-.33c0-.09,.07-.16,.16-.16s.16,.07,.16,.16v.33c0,.09-.07,.16-.16,.16Zm0-1.63c-.09,0-.16-.07-.16-.16v-.33c0-.09,.07-.16,.16-.16s.16,.07,.16,.16v.33c0,.09-.07,.16-.16,.16Zm0-1.63c-.09,0-.16-.07-.16-.16v-.33c0-.09,.07-.16,.16-.16s.16,.07,.16,.16v.33c0,.09-.07,.16-.16,.16Zm0-1.63c-.09,0-.16-.07-.16-.16v-.33c0-.09,.07-.16,.16-.16s.16,.07,.16,.16v.33c0,.09-.07,.16-.16,.16Zm0-1.63c-.09,0-.16-.07-.16-.16v-.33c0-.09,.07-.16,.16-.16s.16,.07,.16,.16v.33c0,.09-.07,.16-.16,.16Zm0-1.63c-.09,0-.16-.07-.16-.16v-.33c0-.09,.07-.16,.16-.16s.16,.07,.16,.16v.33c0,.09-.07,.16-.16,.16Zm0-1.63c-.09,0-.16-.07-.16-.16v-.33c0-.09,.07-.16,.16-.16s.16,.07,.16,.16v.33c0,.09-.07,.16-.16,.16Zm0-1.63c-.09,0-.16-.07-.16-.16v-.33c0-.09,.07-.16,.16-.16s.16,.07,.16,.16v.33c0,.09-.07,.16-.16,.16Zm0-1.63c-.09,0-.16-.07-.16-.16v-.33c0-.09,.07-.16,.16-.16s.16,.07,.16,.16v.33c0,.09-.07,.16-.16,.16Zm0-1.63c-.09,0-.16-.07-.16-.16v-.33c0-.09,.07-.16,.16-.16s.16,.07,.16,.16v.33c0,.09-.07,.16-.16,.16Zm0-1.63c-.09,0-.16-.07-.16-.16v-.33c0-.09,.07-.16,.16-.16s.16,.07,.16,.16v.33c0,.09-.07,.16-.16,.16Zm0-1.63c-.09,0-.16-.07-.16-.16v-.33c0-.09,.07-.16,.16-.16s.16,.07,.16,.16v.33c0,.09-.07,.16-.16,.16Zm0-1.63c-.09,0-.16-.07-.16-.16v-.33c0-.09,.07-.16,.16-.16s.16,.07,.16,.16v.33c0,.09-.07,.16-.16,.16Zm0-1.63c-.09,0-.16-.07-.16-.16v-.33c0-.09,.07-.16,.16-.16s.16,.07,.16,.16v.33c0,.09-.07,.16-.16,.16Zm0-1.63c-.09,0-.16-.07-.16-.16v-.33c0-.09,.07-.16,.16-.16s.16,.07,.16,.16v.33c0,.09-.07,.16-.16,.16Zm0-1.63c-.09,0-.16-.07-.16-.16v-.33c0-.09,.07-.16,.16-.16s.16,.07,.16,.16v.33c0,.09-.07,.16-.16,.16Zm0-1.63c-.09,0-.16-.07-.16-.16v-.33c0-.09,.07-.16,.16-.16s.16,.07,.16,.16v.33c0,.09-.07,.16-.16,.16Zm0-1.63c-.09,0-.16-.07-.16-.16v-.33c0-.09,.07-.16,.16-.16s.16,.07,.16,.16v.33c0,.09-.07,.16-.16,.16Zm0-1.63c-.09,0-.16-.07-.16-.16v-.33c0-.09,.07-.16,.16-.16s.16,.07,.16,.16v.33c0,.09-.07,.16-.16,.16Zm0-1.63c-.09,0-.16-.07-.16-.16v-.33c0-.09,.07-.16,.16-.16s.16,.07,.16,.16v.33c0,.09-.07,.16-.16,.16Zm0-1.63c-.09,0-.16-.07-.16-.16v-.33c0-.09,.07-.16,.16-.16s.16,.07,.16,.16v.33c0,.09-.07,.16-.16,.16Zm0-1.63c-.09,0-.16-.07-.16-.16v-.33c0-.09,.07-.16,.16-.16s.16,.07,.16,.16v.33c0,.09-.07,.16-.16,.16Zm0-1.63c-.09,0-.16-.07-.16-.16v-.33c0-.09,.07-.16,.16-.16s.16,.07,.16,.16v.33c0,.09-.07,.16-.16,.16Zm0-1.63c-.09,0-.16-.07-.16-.16v-.33c0-.09,.07-.16,.16-.16s.16,.07,.16,.16v.33c0,.09-.07,.16-.16,.16Zm0-1.63c-.09,0-.16-.07-.16-.16v-.33c0-.09,.07-.16,.16-.16s.16,.07,.16,.16v.33c0,.09-.07,.16-.16,.16Zm0-1.63c-.09,0-.16-.07-.16-.16v-.33c0-.09,.07-.16,.16-.16s.16,.07,.16,.16v.33c0,.09-.07,.16-.16,.16Zm0-1.63c-.09,0-.16-.07-.16-.16v-.33c0-.09,.07-.16,.16-.16s.16,.07,.16,.16v.33c0,.09-.07,.16-.16,.16Zm0-1.63c-.09,0-.16-.07-.16-.16v-.33c0-.09,.07-.16,.16-.16s.16,.07,.16,.16v.33c0,.09-.07,.16-.16,.16Zm0-1.63c-.09,0-.16-.07-.16-.16v-.33c0-.09,.07-.16,.16-.16s.16,.07,.16,.16v.33c0,.09-.07,.16-.16,.16Z"/>
          <rect class="cls-10" x="245.84" y="147.6" width="14.3" height="5.98" rx="1.32" ry="1.32"/>
          <rect class="cls-10" x="271.39" y="154.97" width="14.3" height="5.98" rx="1.32" ry="1.32"/>
          <rect class="cls-10" x="292.39" y="137.68" width="14.3" height="5.98" rx="1.32" ry="1.32"/>
          <rect class="cls-10" x="238.82" y="209.52" width="91.41" height="8.58"/>
          <g>
            <rect class="cls-10" x="253.52" y="224.33" width="62.02" height="19.59" rx="4.97" ry="4.97"/>
            <g>
              <path class="cls-10" d="M262.65,240.46h-3.53c-1.09,0-1.97-.88-1.97-1.97v-8.32c0-1.09,.88-1.97,1.97-1.97h3.53c1.09,0,1.97,.88,1.97,1.97v8.32c0,1.09-.88,1.97-1.97,1.97Zm-3.53-10.79c-.27,0-.5,.22-.5,.5v8.32c0,.27,.22,.5,.5,.5h3.53c.27,0,.5-.22,.5-.5v-8.32c0-.27-.22-.5-.5-.5h-3.53Z"/>
              <path class="cls-10" d="M272.11,240.46h-3.53c-1.09,0-1.97-.88-1.97-1.97v-8.32c0-1.09,.88-1.97,1.97-1.97h3.53c1.09,0,1.97,.88,1.97,1.97v8.32c0,1.09-.88,1.97-1.97,1.97Zm-3.53-10.79c-.27,0-.5,.22-.5,.5v8.32c0,.27,.22,.5,.5,.5h3.53c.27,0,.5-.22,.5-.5v-8.32c0-.27-.22-.5-.5-.5h-3.53Z"/>
              <path class="cls-10" d="M281.56,240.46h-3.53c-1.09,0-1.97-.88-1.97-1.97v-8.32c0-1.09,.88-1.97,1.97-1.97h3.53c1.09,0,1.97,.88,1.97,1.97v8.32c0,1.09-.88,1.97-1.97,1.97Zm-3.53-10.79c-.27,0-.5,.22-.5,.5v8.32c0,.27,.22,.5,.5,.5h3.53c.27,0,.5-.22,.5-.5v-8.32c0-.27-.22-.5-.5-.5h-3.53Z"/>
              <path class="cls-10" d="M291.02,240.46h-3.53c-1.09,0-1.97-.88-1.97-1.97v-8.32c0-1.09,.88-1.97,1.97-1.97h3.53c1.09,0,1.97,.88,1.97,1.97v8.32c0,1.09-.88,1.97-1.97,1.97Zm-3.53-10.79c-.27,0-.5,.22-.5,.5v8.32c0,.27,.22,.5,.5,.5h3.53c.27,0,.5-.22,.5-.5v-8.32c0-.27-.22-.5-.5-.5h-3.53Z"/>
              <path class="cls-10" d="M300.47,240.46h-3.53c-1.09,0-1.97-.88-1.97-1.97v-8.32c0-1.09,.88-1.97,1.97-1.97h3.53c1.09,0,1.97,.88,1.97,1.97v8.32c0,1.09-.88,1.97-1.97,1.97Zm-3.53-10.79c-.27,0-.5,.22-.5,.5v8.32c0,.27,.22,.5,.5,.5h3.53c.27,0,.5-.22,.5-.5v-8.32c0-.27-.22-.5-.5-.5h-3.53Z"/>
              <path class="cls-10" d="M309.92,240.46h-3.53c-1.09,0-1.97-.88-1.97-1.97v-8.32c0-1.09,.88-1.97,1.97-1.97h3.53c1.09,0,1.97,.88,1.97,1.97v8.32c0,1.09-.88,1.97-1.97,1.97Zm-3.53-10.79c-.27,0-.5,.22-.5,.5v8.32c0,.27,.22,.5,.5,.5h3.53c.27,0,.5-.22,.5-.5v-8.32c0-.27-.22-.5-.5-.5h-3.53Z"/>
            </g>
          </g>
          <path class="cls-10" d="M261.22,69.27h-9.45v-.05h-4.5c-2.24,0-4.36,.88-5.97,2.49-1.6,1.6-2.49,3.72-2.49,5.97v35.24h91.41v-35.24c0-2.24-.88-4.36-2.49-5.97-1.6-1.6-3.72-2.49-5.97-2.49h-4.5v.05h-56.06Z"/>
          <g>
            <rect class="cls-10" x="243.5" y="97.7" width="6.5" height="1.67"/>
            <rect class="cls-10" x="243.5" y="100.11" width="6.5" height="1.67"/>
            <rect class="cls-10" x="243.5" y="102.53" width="6.5" height="1.67"/>
          </g>
          <rect class="cls-10" x="255.72" y="97.44" width="21.85" height="6.5"/>
          <rect class="cls-10" x="279.91" y="97.44" width="21.85" height="6.5"/>
          <rect class="cls-10" x="304.09" y="97.44" width="21.85" height="6.5"/>
          <path class="cls-10" d="M335.69,130.53v-26.81c0-.53-.42-.96-.94-.98v-25.06c0-7.14-5.84-12.97-12.97-12.97h-74.5c-7.14,0-12.97,5.84-12.97,12.97v63.14h-.29c-.36,0-.65,.29-.65,.65v11.26c0,.36,.29,.65,.65,.65h.29v110.38c0,7.14,5.84,12.97,12.97,12.97h74.5c7.14,0,12.97-5.84,12.97-12.97v-110.53h.29c.36,0,.65-.29,.65-.65v-11.26c0-.36-.29-.65-.65-.65h-.29v-9.15c.52-.02,.94-.46,.94-.98Zm-5.46-40.11V250.35h-91.41V90.41h91.41Z"/>
          <path class="cls-10" d="M301.3,81.7h-33.55c-1.79,0-3.25-1.46-3.25-3.25h0c0-1.79,1.46-3.25,3.25-3.25h33.55c1.79,0,3.25,1.46,3.25,3.25h0c0,1.79-1.46,3.25-3.25,3.25Z"/>
          <path class="cls-10" d="M301.3,267.23h-33.55c-1.79,0-3.25-1.46-3.25-3.25h0c0-1.79,1.46-3.25,3.25-3.25h33.55c1.79,0,3.25,1.46,3.25,3.25h0c0,1.79-1.46,3.25-3.25,3.25Z"/>
          <circle class="cls-10" cx="319.09" cy="77.23" r="1.51"/>
          <circle class="cls-10" cx="310.92" cy="78.65" r="2.93"/>
          <g>
            <rect class="cls-10" x="238.82" y="90.41" width="91.41" height="159.94"/>
            <g class="cls-23">
              <g>
                <polygon class="cls-8" points="330.49 76.48 238.57 143.67 238.56 179.97 298.84 135.91 330.49 112.78 330.49 76.48"/>
                <polygon class="cls-8" points="330.49 120.12 238.56 187.31 238.56 192.61 330.49 125.42 330.49 120.12"/>
                <polygon class="cls-8" points="238.53 255 330.48 187.82 330.49 151.52 238.56 218.71 238.56 246.17 238.53 255"/>
                <polygon class="cls-8" points="330.48 195.16 249.07 254.67 256.33 254.67 330.48 200.47 330.48 195.16"/>
              </g>
            </g>
          </g>
        </g>
        <path class="cls-10" d="M115.24,258.88h170.24c.02,8.85-4.2,16.88-9.9,22.75-5.81,5.88-13.11,9.6-21.78,9.85,0,0,0,0,0,.01H95.55c18.23,0,23.71-14.61,19.7-32.62Z"/>
        <g>
          <path class="cls-10" d="M87.64,163l-41.85,52.84c-7.83,9.42-12.54,21.54-12.54,34.75,0,30.04,24.35,54.4,54.4,54.4s54.4-24.35,54.4-54.4c0-13.22-4.72-25.35-12.57-34.77l-41.83-52.82Z"/>
          <polygon class="cls-11" points="45.75 215.84 87.6 163 96.26 173.93 87.6 166.68 45.75 215.84"/>
          <path class="cls-11" d="M131.23,218.05c2.81,6.69,4.37,14.05,4.37,21.76,0,31.04-25.16,56.2-56.2,56.2-13.07,0-25.11-4.47-34.65-11.95,9.96,12.74,25.47,20.94,42.89,20.94,30.04,0,54.4-24.35,54.4-54.4,0-12.2-4.02-23.47-10.81-32.55Z"/>
          <circle class="cls-8" cx="58.05" cy="228.41" r="7.65"/>
          <circle class="cls-8" cx="48.16" cy="240.9" r="4.83"/>
          <circle class="cls-11" cx="60.59" cy="239.47" r="23.15"/>
        </g>
        <g>
          <g>
            <path class="cls-10" d="M178.14,254.61c11.71-15.35,10.55-37.39-3.48-51.42-15.31-15.31-40.08-15.31-55.4,0-14.03,14.03-15.19,36.06-3.48,51.42,2.52,3.31,4.55,6.97,5.95,10.89l.06,.16c1.54,4.3,2.33,8.84,2.33,13.4h0c0,5.63,4.56,10.19,10.19,10.19h25.29c5.63,0,10.19-4.56,10.19-10.19h0c0-4.57,.79-9.1,2.33-13.4l.06-.16c1.4-3.92,3.43-7.58,5.95-10.89Z"/>
            <path class="cls-9" d="M175.45,204.01c9.28,13.8,8.83,32.2-1.36,45.55-2.52,3.31-4.55,6.97-5.95,10.89l-.06,.16c-1.54,4.3-2.33,8.84-2.33,13.4h0c0,5.63-4.56,10.19-10.19,10.19h-25.29c-2.04,0-3.94-.6-5.53-1.63,1.43,3.9,5.18,6.68,9.57,6.68h25.29c5.63,0,10.19-4.56,10.19-10.19h0c0-4.57,.79-9.1,2.33-13.4l.06-.16c1.4-3.92,3.43-7.58,5.95-10.89,11.49-15.06,10.59-36.54-2.68-50.6Z"/>
            <circle class="cls-8" cx="133.36" cy="210.9" r="5.35"/>
            <circle class="cls-8" cx="126.45" cy="219.63" r="3.38"/>
            <circle class="cls-11" cx="137.43" cy="222.04" r="21.71"/>
            <g>
              <path class="cls-10" d="M129.27,286.86c-.3,0-.54,.24-.54,.54v4.01c0,1.16,.55,2.2,1.4,2.85v18.59c0,1.1,.46,2.15,1.26,2.9,1.25,1.18,2.61,2.18,4.03,3.02,.9,.53,1.51,1.33,1.7,2.3,.08,.43,.4,.79,.81,.94l5.29,2.02v.89c0,.9,.73,1.63,1.63,1.63h4.2c.9,0,1.63-.73,1.63-1.63v-.88l5.28-1.99c.41-.16,.73-.51,.81-.95,.19-.98,.81-1.81,1.71-2.34,1.43-.84,2.78-1.84,4.03-3.02,.8-.75,1.26-1.8,1.26-2.9v-18.59c.85-.66,1.4-1.69,1.4-2.85v-4.01c0-.3-.24-.54-.54-.54h-35.38Z"/>
              <rect class="cls-10" x="128.99" y="295.1" width="36.02" height="3.57" rx="1.64" ry="1.64"/>
              <rect class="cls-10" x="128.99" y="302.26" width="36.02" height="3.57" rx="1.64" ry="1.64"/>
              <rect class="cls-10" x="128.99" y="309.43" width="36.02" height="3.57" rx="1.64" ry="1.64"/>
              <path class="cls-11" d="M146.34,295.1h-15.7c-.91,0-1.64,.74-1.64,1.64v.28c0,.67,.4,1.24,.96,1.5-.09-.21-.15-.44-.15-.68v-.28c0-.91,.74-1.64,1.64-1.64l14.88-.82Z"/>
              <path class="cls-11" d="M146.34,302.26h-15.7c-.91,0-1.64,.74-1.64,1.64v.28c0,.67,.4,1.24,.96,1.5-.09-.21-.15-.44-.15-.68v-.28c0-.91,.74-1.64,1.64-1.64l14.88-.82Z"/>
              <path class="cls-11" d="M146.34,309.43h-15.7c-.91,0-1.64,.74-1.64,1.64v.28c0,.67,.4,1.24,.96,1.5-.09-.21-.15-.44-.15-.68v-.28c0-.91,.74-1.64,1.64-1.64l14.88-.82Z"/>
              <path class="cls-8" d="M164.65,286.86h-35.38c-.3,0-.54,.24-.54,.54v4.01s0-.9,0-.9c0,1.06,.89,1.91,1.95,1.91h31.6c.24,.29,.39,1.58,.39,1.98v.28c0,.61-.34,1.15-.83,1.43-.24,.14-.4,.38-.4,.66v2.7c0,.28,.16,.53,.4,.66,.5,.28,.83,.82,.83,1.43v.28c0,.61-.34,1.15-.83,1.43-.24,.14-.4,.38-.4,.66v2.7c0,.28,.16,.53,.4,.66,.5,.28,.83,.82,.83,1.43v.28c0,.63-.35,1.17-.87,1.45-.22,.12-.36,.33-.39,.57-.12,.91-.55,1.75-1.23,2.38-1.25,1.18-2.61,2.18-4.03,3.02-.9,.53-1.51,1.35-1.71,2.33-.09,.44-.4,.8-.82,.96l-5.28,1.99v.88c0,.9-.73,1.63-1.63,1.63h-3.48v.72c0,.9,.73,1.63,1.63,1.63h4.2c.9,0,1.63-.73,1.63-1.63v-.88l5.28-1.99c.42-.16,.73-.52,.82-.96,.19-.98,.81-1.8,1.71-2.33,1.43-.84,2.78-1.84,4.03-3.02,.78-.73,1.24-1.74,1.26-2.81,.71-.18,1.23-.82,1.23-1.59v-.28c0-.77-.52-1.41-1.23-1.59v-3.7c.71-.18,1.23-.82,1.23-1.59v-.28c0-.77-.52-1.41-1.23-1.59v-3.7c.71-.18,1.23-.82,1.23-1.59v-.28c0-.77-.52-1.41-1.23-1.59v-.89c.84-.65,1.39-1.67,1.4-2.81,0,0,0-.01,0-.02,0,0,0-.01,0-.02h0v-4.01h0c0-.3-.24-.54-.54-.54Z"/>
            </g>
          </g>
          <polygon class="cls-10" points="159.49 212.56 136.45 237.89 144.46 237.89 136.45 257.58 159.49 232.24 151.49 232.24 159.49 212.56"/>
        </g>
        <g>
          <rect class="cls-10" x="37.38" y="47.17" width="125.54" height="103.18" rx="8.24" ry="8.24" transform="translate(-19.28 24.47) rotate(-12.71)"/>
          <g>
            <path class="cls-10" d="M39.96,67.45h0c-1.33,.3-2.65-.54-2.95-1.87l-2.24-9.92c-.3-1.33,.54-2.65,1.87-2.95h0c1.33-.3,2.65,.54,2.95,1.87l2.24,9.92c.3,1.33-.54,2.65-1.87,2.95Z"/>
            <path class="cls-10" d="M52.6,64.6h0c-1.33,.3-2.65-.54-2.95-1.87l-2.24-9.92c-.3-1.33,.54-2.65,1.87-2.95h0c1.33-.3,2.65,.54,2.95,1.87l2.24,9.92c.3,1.33-.54,2.65-1.87,2.95Z"/>
            <path class="cls-10" d="M65.24,61.74h0c-1.33,.3-2.65-.54-2.95-1.87l-2.24-9.92c-.3-1.33,.54-2.65,1.87-2.95h0c1.33-.3,2.65,.54,2.95,1.87l2.24,9.92c.3,1.33-.54,2.65-1.87,2.95Z"/>
            <path class="cls-10" d="M77.88,58.89h0c-1.33,.3-2.65-.54-2.95-1.87l-2.24-9.92c-.3-1.33,.54-2.65,1.87-2.95h0c1.33-.3,2.65,.54,2.95,1.87l2.24,9.92c.3,1.33-.54,2.65-1.87,2.95Z"/>
            <path class="cls-10" d="M90.51,56.04h0c-1.33,.3-2.65-.54-2.95-1.87l-2.24-9.92c-.3-1.33,.54-2.65,1.87-2.95h0c1.33-.3,2.65,.54,2.95,1.87l2.24,9.92c.3,1.33-.54,2.65-1.87,2.95Z"/>
            <path class="cls-10" d="M103.15,53.19h0c-1.33,.3-2.65-.54-2.95-1.87l-2.24-9.92c-.3-1.33,.54-2.65,1.87-2.95h0c1.33-.3,2.65,.54,2.95,1.87l2.24,9.92c.3,1.33-.54,2.65-1.87,2.95Z"/>
            <path class="cls-10" d="M115.79,50.34h0c-1.33,.3-2.65-.54-2.95-1.87l-2.24-9.92c-.3-1.33,.54-2.65,1.87-2.95h0c1.33-.3,2.65,.54,2.95,1.87l2.24,9.92c.3,1.33-.54,2.65-1.87,2.95Z"/>
            <path class="cls-10" d="M128.43,47.49h0c-1.33,.3-2.65-.54-2.95-1.87l-2.24-9.92c-.3-1.33,.54-2.65,1.87-2.95h0c1.33-.3,2.65,.54,2.95,1.87l2.24,9.92c.3,1.33-.54,2.65-1.87,2.95Z"/>
            <path class="cls-10" d="M141.07,44.64h0c-1.33,.3-2.65-.54-2.95-1.87l-2.24-9.92c-.3-1.33,.54-2.65,1.87-2.95h0c1.33-.3,2.65,.54,2.95,1.87l2.24,9.92c.3,1.33-.54,2.65-1.87,2.95Z"/>
          </g>
          <rect class="cls-10" x="45.71" y="62.1" width="110.43" height="80.13" rx="3.95" ry="3.95" transform="translate(-20.01 24.72) rotate(-12.71)"/>
          <g class="cls-16">
            <g>
              <rect class="cls-10" x="51.79" y="88.96" width="13.4" height="13.4" rx="1.97" ry="1.97" transform="translate(-19.62 15.22) rotate(-12.71)"/>
              <rect class="cls-10" x="71.28" y="84.56" width="13.4" height="13.4" rx="1.97" ry="1.97" transform="translate(-18.17 19.4) rotate(-12.71)"/>
              <rect class="cls-10" x="90.77" y="80.16" width="13.4" height="13.4" rx="1.97" ry="1.97" transform="translate(-16.73 23.58) rotate(-12.71)"/>
              <rect class="cls-10" x="110.26" y="75.76" width="13.4" height="13.4" rx="1.97" ry="1.97" transform="translate(-15.28 27.76) rotate(-12.71)"/>
              <rect class="cls-10" x="129.75" y="71.37" width="13.4" height="13.4" rx="1.97" ry="1.97" transform="translate(-13.84 31.95) rotate(-12.71)"/>
            </g>
            <g>
              <rect class="cls-10" x="56.37" y="109.26" width="13.4" height="13.4" rx="1.97" ry="1.97" transform="translate(-23.98 16.73) rotate(-12.71)"/>
              <rect class="cls-10" x="75.86" y="104.87" width="13.4" height="13.4" rx="1.97" ry="1.97" transform="translate(-22.53 20.91) rotate(-12.71)"/>
              <rect class="cls-10" x="95.35" y="100.47" width="13.4" height="13.4" rx="1.97" ry="1.97" transform="translate(-21.09 25.09) rotate(-12.71)"/>
              <rect class="cls-10" x="114.84" y="96.07" width="13.4" height="13.4" rx="1.97" ry="1.97" transform="translate(-19.64 29.27) rotate(-12.71)"/>
              <rect class="cls-10" x="134.33" y="91.67" width="13.4" height="13.4" rx="1.97" ry="1.97" transform="translate(-18.19 33.45) rotate(-12.71)"/>
            </g>
            <g>
              <rect class="cls-10" x="60.95" y="129.57" width="13.4" height="13.4" rx="1.97" ry="1.97" transform="translate(-28.33 18.23) rotate(-12.71)"/>
              <rect class="cls-10" x="80.44" y="125.18" width="13.4" height="13.4" rx="1.97" ry="1.97" transform="translate(-26.89 22.41) rotate(-12.71)"/>
              <rect class="cls-10" x="99.93" y="120.78" width="13.4" height="13.4" rx="1.97" ry="1.97" transform="translate(-25.44 26.6) rotate(-12.71)"/>
              <rect class="cls-10" x="119.42" y="116.38" width="13.4" height="13.4" rx="1.97" ry="1.97" transform="translate(-24 30.78) rotate(-12.71)"/>
              <rect class="cls-10" x="138.91" y="111.98" width="13.4" height="13.4" rx="1.97" ry="1.97" transform="translate(-22.55 34.96) rotate(-12.71)"/>
            </g>
          </g>
          <path class="cls-10" d="M143.29,131.34c-1.7,0-3.25-.4-4.45-1.33-2.05-1.6-3.36-5.02-3.51-9.15-.14-3.94,.79-7.69,2.43-9.8,3.63-4.65,13.77-3.29,17.98-.01,4.64,3.62,3.71,9.97,.48,14.11-2.47,3.16-8.25,6.18-12.92,6.18Zm2.37-22.29c-2.92,0-5.66,.77-7.11,2.62-3.1,3.98-3.1,14.42,.9,17.54,3.95,3.08,12.85-.67,15.97-4.68,2.93-3.76,3.82-9.49-.31-12.71-2.13-1.67-5.94-2.78-9.46-2.78Z"/>
          <path class="cls-10" d="M145.31,124.67c-.12,0-.23-.04-.32-.12l-5.31-4.61c-.2-.18-.22-.48-.05-.68,.18-.2,.48-.22,.68-.05l4.77,4.14,3.75-10.94c.09-.25,.36-.39,.62-.3,.25,.09,.39,.36,.3,.62l-3.98,11.62c-.05,.15-.18,.27-.33,.31-.04,.01-.08,.02-.13,.02Z"/>
          <path class="cls-10" d="M107.91,71.46l-56.2,12.68c-1.49,.34-2.97-.6-3.3-2.09h0c-.34-1.49,.6-2.97,2.09-3.3l56.2-12.68c1.49-.34,2.97,.6,3.3,2.09h0c.34,1.49-.6,2.97-2.09,3.3Z"/>
        </g>
      </g>
      <g>
        <g>
          <path class="cls-29" d="M136.32,0h81.03c9.06,0,18.69,3.66,25.65,9.58,7.06,5.92,11.46,14.1,12.28,23.14,15.79,84.51-24.99,170.52-5.21,255.78H96.86c-9.02,0-19.21-3.66-27.05-9.58-7.91-5.92-13.06-14.18-14.91-23.14-15.98-77.37,43.56-157.18,16.83-231.61-2.64-7.35-9.81-13.01-16.81-17.3C47.88,2.55,40.11,0,32.62,0h103.7Z"/>
          <path class="cls-6" d="M32.62,0c-.23,0-.47,0-.7,0,0,0,0,0,0,0h.7Z"/>
        </g>
        <g>
          <path class="cls-18" d="M101.12,68.61H236.88c.07-2.04,.11-4.08,.12-6.12H101.29c-.02,2.04-.07,4.08-.16,6.12Z"/>
          <path class="cls-18" d="M99.73,84.92c50.1,0,95.48,0,136.13,0,.18-2.04,.35-4.08,.49-6.12H100.4c-.2,2.04-.42,4.08-.67,6.12Z"/>
          <path class="cls-18" d="M97.2,101.23H234.01c.27-2.04,.53-4.08,.78-6.12H98.26c-.33,2.04-.69,4.08-1.06,6.12Z"/>
          <path class="cls-18" d="M93.84,117.54H231.56c.34-2.04,.66-4.08,.98-6.12H95.18c-.43,2.04-.88,4.08-1.34,6.12Z"/>
          <path class="cls-18" d="M89.97,133.85H228.73c.37-2.04,.73-4.08,1.09-6.12H91.46c-.49,2.04-.99,4.08-1.49,6.12Z"/>
          <path class="cls-18" d="M85.9,150.16H225.75c.37-2.04,.75-4.08,1.12-6.12H87.43c-.51,2.04-1.02,4.08-1.53,6.12Z"/>
          <path class="cls-18" d="M81.94,166.47H222.86c.35-2.04,.7-4.08,1.06-6.12H83.39c-.49,2.04-.98,4.08-1.45,6.12Z"/>
          <path class="cls-18" d="M78.41,182.78H220.28c.29-2.04,.6-4.08,.92-6.12H79.66c-.43,2.04-.85,4.08-1.25,6.12Z"/>
          <path class="cls-18" d="M75.62,199.1H218.24c.21-2.04,.44-4.08,.69-6.12H76.56c-.34,2.04-.65,4.08-.94,6.12Z"/>
          <path class="cls-18" d="M73.88,215.41H216.97c.1-2.04,.22-4.08,.37-6.12H74.39c-.2,2.04-.37,4.08-.51,6.12Z"/>
        </g>
        <path class="cls-22" d="M71.73,24.17c-2.64-7.35-9.81-13.01-16.81-17.3C49.16,3.34,42.92,.99,36.74,.25c-.81-.09-1.61-.16-2.39-.2-.02,0-.05,0-.07,0-.24-.01-.49-.02-.73-.03-.04,0-.09,0-.13,0C33.16,0,32.89,0,32.62,0,23.68,0,16.19,3.65,10.21,9.55,4.34,15.46-.01,23.61,0,32.62H74.39c-.77-2.83-1.66-5.64-2.67-8.46Z"/>
        <g>
          <path class="cls-17" d="M243.27,269.2c-2.24,0-4.36-.88-5.97-2.49-1.6-1.6-2.49-3.72-2.49-5.97V74.67c0-2.24,.88-4.36,2.49-5.97,1.6-1.6,3.72-2.49,5.97-2.49h74.5c2.24,0,4.36,.88,5.97,2.49,1.6,1.6,2.49,3.72,2.49,5.97v186.08c0,2.24-.88,4.36-2.49,5.97-1.6,1.6-3.72,2.49-5.97,2.49h-74.5Z"/>
          <rect class="cls-14" x="234.82" y="109.26" width="91.41" height="7.02"/>
          <g>
            <polygon class="cls-27" points="234.82 174.01 249.81 155.85 262.99 170.99 274.98 162.51 283.67 168.87 295.66 144.65 305.55 176.74 312.74 168.26 326.23 171.29 326.23 194.56 234.82 194.56 234.82 174.01"/>
            <path class="cls-1" d="M234.88,186.86l14.93-25.41,13.19,28.6,11.99-6.36,8.69,6.13,11.99-8.4,9.89-2.5,7.19,2.95,13.49-1.59v14.26h-91.41s.28-7.92,.06-7.7Z"/>
          </g>
          <circle class="cls-24" cx="248.99" cy="155.81" r="2.34"/>
          <circle class="cls-24" cx="295.54" cy="145.08" r="2.34"/>
          <circle class="cls-24" cx="274.54" cy="162.9" r="2.34"/>
          <path class="cls-24" d="M248.99,206.65c-.09,0-.16-.07-.16-.16v-.33c0-.09,.07-.16,.16-.16s.16,.07,.16,.16v.33c0,.09-.07,.16-.16,.16Zm0-1.63c-.09,0-.16-.07-.16-.16v-.33c0-.09,.07-.16,.16-.16s.16,.07,.16,.16v.33c0,.09-.07,.16-.16,.16Zm0-1.63c-.09,0-.16-.07-.16-.16v-.33c0-.09,.07-.16,.16-.16s.16,.07,.16,.16v.33c0,.09-.07,.16-.16,.16Zm0-1.63c-.09,0-.16-.07-.16-.16v-.33c0-.09,.07-.16,.16-.16s.16,.07,.16,.16v.33c0,.09-.07,.16-.16,.16Zm0-1.63c-.09,0-.16-.07-.16-.16v-.33c0-.09,.07-.16,.16-.16s.16,.07,.16,.16v.33c0,.09-.07,.16-.16,.16Zm0-1.63c-.09,0-.16-.07-.16-.16v-.33c0-.09,.07-.16,.16-.16s.16,.07,.16,.16v.33c0,.09-.07,.16-.16,.16Zm0-1.63c-.09,0-.16-.07-.16-.16v-.33c0-.09,.07-.16,.16-.16s.16,.07,.16,.16v.33c0,.09-.07,.16-.16,.16Zm0-1.63c-.09,0-.16-.07-.16-.16v-.33c0-.09,.07-.16,.16-.16s.16,.07,.16,.16v.33c0,.09-.07,.16-.16,.16Zm0-1.63c-.09,0-.16-.07-.16-.16v-.33c0-.09,.07-.16,.16-.16s.16,.07,.16,.16v.33c0,.09-.07,.16-.16,.16Zm0-1.63c-.09,0-.16-.07-.16-.16v-.33c0-.09,.07-.16,.16-.16s.16,.07,.16,.16v.33c0,.09-.07,.16-.16,.16Zm0-1.63c-.09,0-.16-.07-.16-.16v-.33c0-.09,.07-.16,.16-.16s.16,.07,.16,.16v.33c0,.09-.07,.16-.16,.16Zm0-1.63c-.09,0-.16-.07-.16-.16v-.33c0-.09,.07-.16,.16-.16s.16,.07,.16,.16v.33c0,.09-.07,.16-.16,.16Zm0-1.63c-.09,0-.16-.07-.16-.16v-.33c0-.09,.07-.16,.16-.16s.16,.07,.16,.16v.33c0,.09-.07,.16-.16,.16Zm0-1.63c-.09,0-.16-.07-.16-.16v-.33c0-.09,.07-.16,.16-.16s.16,.07,.16,.16v.33c0,.09-.07,.16-.16,.16Zm0-1.63c-.09,0-.16-.07-.16-.16v-.33c0-.09,.07-.16,.16-.16s.16,.07,.16,.16v.33c0,.09-.07,.16-.16,.16Zm0-1.63c-.09,0-.16-.07-.16-.16v-.33c0-.09,.07-.16,.16-.16s.16,.07,.16,.16v.33c0,.09-.07,.16-.16,.16Zm0-1.63c-.09,0-.16-.07-.16-.16v-.33c0-.09,.07-.16,.16-.16s.16,.07,.16,.16v.33c0,.09-.07,.16-.16,.16Zm0-1.63c-.09,0-.16-.07-.16-.16v-.33c0-.09,.07-.16,.16-.16s.16,.07,.16,.16v.33c0,.09-.07,.16-.16,.16Zm0-1.63c-.09,0-.16-.07-.16-.16v-.33c0-.09,.07-.16,.16-.16s.16,.07,.16,.16v.33c0,.09-.07,.16-.16,.16Zm0-1.63c-.09,0-.16-.07-.16-.16v-.33c0-.09,.07-.16,.16-.16s.16,.07,.16,.16v.33c0,.09-.07,.16-.16,.16Zm0-1.63c-.09,0-.16-.07-.16-.16v-.33c0-.09,.07-.16,.16-.16s.16,.07,.16,.16v.33c0,.09-.07,.16-.16,.16Zm0-1.63c-.09,0-.16-.07-.16-.16v-.33c0-.09,.07-.16,.16-.16s.16,.07,.16,.16v.33c0,.09-.07,.16-.16,.16Zm0-1.63c-.09,0-.16-.07-.16-.16v-.33c0-.09,.07-.16,.16-.16s.16,.07,.16,.16v.33c0,.09-.07,.16-.16,.16Zm0-1.63c-.09,0-.16-.07-.16-.16v-.33c0-.09,.07-.16,.16-.16s.16,.07,.16,.16v.33c0,.09-.07,.16-.16,.16Zm0-1.63c-.09,0-.16-.07-.16-.16v-.33c0-.09,.07-.16,.16-.16s.16,.07,.16,.16v.33c0,.09-.07,.16-.16,.16Zm0-1.63c-.09,0-.16-.07-.16-.16v-.33c0-.09,.07-.16,.16-.16s.16,.07,.16,.16v.33c0,.09-.07,.16-.16,.16Zm0-1.63c-.09,0-.16-.07-.16-.16v-.33c0-.09,.07-.16,.16-.16s.16,.07,.16,.16v.33c0,.09-.07,.16-.16,.16Zm0-1.63c-.09,0-.16-.07-.16-.16v-.33c0-.09,.07-.16,.16-.16s.16,.07,.16,.16v.33c0,.09-.07,.16-.16,.16Zm0-1.63c-.09,0-.16-.07-.16-.16v-.33c0-.09,.07-.16,.16-.16s.16,.07,.16,.16v.33c0,.09-.07,.16-.16,.16Zm0-1.63c-.09,0-.16-.07-.16-.16v-.33c0-.09,.07-.16,.16-.16s.16,.07,.16,.16v.33c0,.09-.07,.16-.16,.16Zm0-1.63c-.09,0-.16-.07-.16-.16v-.33c0-.09,.07-.16,.16-.16s.16,.07,.16,.16v.33c0,.09-.07,.16-.16,.16Zm0-1.63c-.09,0-.16-.07-.16-.16v-.33c0-.09,.07-.16,.16-.16s.16,.07,.16,.16v.33c0,.09-.07,.16-.16,.16Z"/>
          <path class="cls-24" d="M274.54,206.78c-.09,0-.16-.07-.16-.16v-.33c0-.09,.07-.16,.16-.16s.16,.07,.16,.16v.33c0,.09-.07,.16-.16,.16Zm0-1.63c-.09,0-.16-.07-.16-.16v-.33c0-.09,.07-.16,.16-.16s.16,.07,.16,.16v.33c0,.09-.07,.16-.16,.16Zm0-1.63c-.09,0-.16-.07-.16-.16v-.33c0-.09,.07-.16,.16-.16s.16,.07,.16,.16v.33c0,.09-.07,.16-.16,.16Zm0-1.63c-.09,0-.16-.07-.16-.16v-.33c0-.09,.07-.16,.16-.16s.16,.07,.16,.16v.33c0,.09-.07,.16-.16,.16Zm0-1.63c-.09,0-.16-.07-.16-.16v-.33c0-.09,.07-.16,.16-.16s.16,.07,.16,.16v.33c0,.09-.07,.16-.16,.16Zm0-1.63c-.09,0-.16-.07-.16-.16v-.33c0-.09,.07-.16,.16-.16s.16,.07,.16,.16v.33c0,.09-.07,.16-.16,.16Zm0-1.63c-.09,0-.16-.07-.16-.16v-.33c0-.09,.07-.16,.16-.16s.16,.07,.16,.16v.33c0,.09-.07,.16-.16,.16Zm0-1.63c-.09,0-.16-.07-.16-.16v-.33c0-.09,.07-.16,.16-.16s.16,.07,.16,.16v.33c0,.09-.07,.16-.16,.16Zm0-1.63c-.09,0-.16-.07-.16-.16v-.33c0-.09,.07-.16,.16-.16s.16,.07,.16,.16v.33c0,.09-.07,.16-.16,.16Zm0-1.63c-.09,0-.16-.07-.16-.16v-.33c0-.09,.07-.16,.16-.16s.16,.07,.16,.16v.33c0,.09-.07,.16-.16,.16Zm0-1.63c-.09,0-.16-.07-.16-.16v-.33c0-.09,.07-.16,.16-.16s.16,.07,.16,.16v.33c0,.09-.07,.16-.16,.16Zm0-1.63c-.09,0-.16-.07-.16-.16v-.33c0-.09,.07-.16,.16-.16s.16,.07,.16,.16v.33c0,.09-.07,.16-.16,.16Zm0-1.63c-.09,0-.16-.07-.16-.16v-.33c0-.09,.07-.16,.16-.16s.16,.07,.16,.16v.33c0,.09-.07,.16-.16,.16Zm0-1.63c-.09,0-.16-.07-.16-.16v-.33c0-.09,.07-.16,.16-.16s.16,.07,.16,.16v.33c0,.09-.07,.16-.16,.16Zm0-1.63c-.09,0-.16-.07-.16-.16v-.33c0-.09,.07-.16,.16-.16s.16,.07,.16,.16v.33c0,.09-.07,.16-.16,.16Zm0-1.63c-.09,0-.16-.07-.16-.16v-.33c0-.09,.07-.16,.16-.16s.16,.07,.16,.16v.33c0,.09-.07,.16-.16,.16Zm0-1.63c-.09,0-.16-.07-.16-.16v-.33c0-.09,.07-.16,.16-.16s.16,.07,.16,.16v.33c0,.09-.07,.16-.16,.16Zm0-1.63c-.09,0-.16-.07-.16-.16v-.33c0-.09,.07-.16,.16-.16s.16,.07,.16,.16v.33c0,.09-.07,.16-.16,.16Zm0-1.63c-.09,0-.16-.07-.16-.16v-.33c0-.09,.07-.16,.16-.16s.16,.07,.16,.16v.33c0,.09-.07,.16-.16,.16Zm0-1.63c-.09,0-.16-.07-.16-.16v-.33c0-.09,.07-.16,.16-.16s.16,.07,.16,.16v.33c0,.09-.07,.16-.16,.16Zm0-1.63c-.09,0-.16-.07-.16-.16v-.33c0-.09,.07-.16,.16-.16s.16,.07,.16,.16v.33c0,.09-.07,.16-.16,.16Zm0-1.63c-.09,0-.16-.07-.16-.16v-.33c0-.09,.07-.16,.16-.16s.16,.07,.16,.16v.33c0,.09-.07,.16-.16,.16Zm0-1.63c-.09,0-.16-.07-.16-.16v-.33c0-.09,.07-.16,.16-.16s.16,.07,.16,.16v.33c0,.09-.07,.16-.16,.16Zm0-1.63c-.09,0-.16-.07-.16-.16v-.33c0-.09,.07-.16,.16-.16s.16,.07,.16,.16v.33c0,.09-.07,.16-.16,.16Zm0-1.63c-.09,0-.16-.07-.16-.16v-.33c0-.09,.07-.16,.16-.16s.16,.07,.16,.16v.33c0,.09-.07,.16-.16,.16Zm0-1.63c-.09,0-.16-.07-.16-.16v-.33c0-.09,.07-.16,.16-.16s.16,.07,.16,.16v.33c0,.09-.07,.16-.16,.16Zm0-1.63c-.09,0-.16-.07-.16-.16v-.33c0-.09,.07-.16,.16-.16s.16,.07,.16,.16v.33c0,.09-.07,.16-.16,.16Zm0-1.63c-.09,0-.16-.07-.16-.16v-.33c0-.09,.07-.16,.16-.16s.16,.07,.16,.16v.33c0,.09-.07,.16-.16,.16Z"/>
          <path class="cls-24" d="M295.54,206.91c-.09,0-.16-.07-.16-.16v-.33c0-.09,.07-.16,.16-.16s.16,.07,.16,.16v.33c0,.09-.07,.16-.16,.16Zm0-1.63c-.09,0-.16-.07-.16-.16v-.33c0-.09,.07-.16,.16-.16s.16,.07,.16,.16v.33c0,.09-.07,.16-.16,.16Zm0-1.63c-.09,0-.16-.07-.16-.16v-.33c0-.09,.07-.16,.16-.16s.16,.07,.16,.16v.33c0,.09-.07,.16-.16,.16Zm0-1.63c-.09,0-.16-.07-.16-.16v-.33c0-.09,.07-.16,.16-.16s.16,.07,.16,.16v.33c0,.09-.07,.16-.16,.16Zm0-1.63c-.09,0-.16-.07-.16-.16v-.33c0-.09,.07-.16,.16-.16s.16,.07,.16,.16v.33c0,.09-.07,.16-.16,.16Zm0-1.63c-.09,0-.16-.07-.16-.16v-.33c0-.09,.07-.16,.16-.16s.16,.07,.16,.16v.33c0,.09-.07,.16-.16,.16Zm0-1.63c-.09,0-.16-.07-.16-.16v-.33c0-.09,.07-.16,.16-.16s.16,.07,.16,.16v.33c0,.09-.07,.16-.16,.16Zm0-1.63c-.09,0-.16-.07-.16-.16v-.33c0-.09,.07-.16,.16-.16s.16,.07,.16,.16v.33c0,.09-.07,.16-.16,.16Zm0-1.63c-.09,0-.16-.07-.16-.16v-.33c0-.09,.07-.16,.16-.16s.16,.07,.16,.16v.33c0,.09-.07,.16-.16,.16Zm0-1.63c-.09,0-.16-.07-.16-.16v-.33c0-.09,.07-.16,.16-.16s.16,.07,.16,.16v.33c0,.09-.07,.16-.16,.16Zm0-1.63c-.09,0-.16-.07-.16-.16v-.33c0-.09,.07-.16,.16-.16s.16,.07,.16,.16v.33c0,.09-.07,.16-.16,.16Zm0-1.63c-.09,0-.16-.07-.16-.16v-.33c0-.09,.07-.16,.16-.16s.16,.07,.16,.16v.33c0,.09-.07,.16-.16,.16Zm0-1.63c-.09,0-.16-.07-.16-.16v-.33c0-.09,.07-.16,.16-.16s.16,.07,.16,.16v.33c0,.09-.07,.16-.16,.16Zm0-1.63c-.09,0-.16-.07-.16-.16v-.33c0-.09,.07-.16,.16-.16s.16,.07,.16,.16v.33c0,.09-.07,.16-.16,.16Zm0-1.63c-.09,0-.16-.07-.16-.16v-.33c0-.09,.07-.16,.16-.16s.16,.07,.16,.16v.33c0,.09-.07,.16-.16,.16Zm0-1.63c-.09,0-.16-.07-.16-.16v-.33c0-.09,.07-.16,.16-.16s.16,.07,.16,.16v.33c0,.09-.07,.16-.16,.16Zm0-1.63c-.09,0-.16-.07-.16-.16v-.33c0-.09,.07-.16,.16-.16s.16,.07,.16,.16v.33c0,.09-.07,.16-.16,.16Zm0-1.63c-.09,0-.16-.07-.16-.16v-.33c0-.09,.07-.16,.16-.16s.16,.07,.16,.16v.33c0,.09-.07,.16-.16,.16Zm0-1.63c-.09,0-.16-.07-.16-.16v-.33c0-.09,.07-.16,.16-.16s.16,.07,.16,.16v.33c0,.09-.07,.16-.16,.16Zm0-1.63c-.09,0-.16-.07-.16-.16v-.33c0-.09,.07-.16,.16-.16s.16,.07,.16,.16v.33c0,.09-.07,.16-.16,.16Zm0-1.63c-.09,0-.16-.07-.16-.16v-.33c0-.09,.07-.16,.16-.16s.16,.07,.16,.16v.33c0,.09-.07,.16-.16,.16Zm0-1.63c-.09,0-.16-.07-.16-.16v-.33c0-.09,.07-.16,.16-.16s.16,.07,.16,.16v.33c0,.09-.07,.16-.16,.16Zm0-1.63c-.09,0-.16-.07-.16-.16v-.33c0-.09,.07-.16,.16-.16s.16,.07,.16,.16v.33c0,.09-.07,.16-.16,.16Zm0-1.63c-.09,0-.16-.07-.16-.16v-.33c0-.09,.07-.16,.16-.16s.16,.07,.16,.16v.33c0,.09-.07,.16-.16,.16Zm0-1.63c-.09,0-.16-.07-.16-.16v-.33c0-.09,.07-.16,.16-.16s.16,.07,.16,.16v.33c0,.09-.07,.16-.16,.16Zm0-1.63c-.09,0-.16-.07-.16-.16v-.33c0-.09,.07-.16,.16-.16s.16,.07,.16,.16v.33c0,.09-.07,.16-.16,.16Zm0-1.63c-.09,0-.16-.07-.16-.16v-.33c0-.09,.07-.16,.16-.16s.16,.07,.16,.16v.33c0,.09-.07,.16-.16,.16Zm0-1.63c-.09,0-.16-.07-.16-.16v-.33c0-.09,.07-.16,.16-.16s.16,.07,.16,.16v.33c0,.09-.07,.16-.16,.16Zm0-1.63c-.09,0-.16-.07-.16-.16v-.33c0-.09,.07-.16,.16-.16s.16,.07,.16,.16v.33c0,.09-.07,.16-.16,.16Zm0-1.63c-.09,0-.16-.07-.16-.16v-.33c0-.09,.07-.16,.16-.16s.16,.07,.16,.16v.33c0,.09-.07,.16-.16,.16Zm0-1.63c-.09,0-.16-.07-.16-.16v-.33c0-.09,.07-.16,.16-.16s.16,.07,.16,.16v.33c0,.09-.07,.16-.16,.16Zm0-1.63c-.09,0-.16-.07-.16-.16v-.33c0-.09,.07-.16,.16-.16s.16,.07,.16,.16v.33c0,.09-.07,.16-.16,.16Zm0-1.63c-.09,0-.16-.07-.16-.16v-.33c0-.09,.07-.16,.16-.16s.16,.07,.16,.16v.33c0,.09-.07,.16-.16,.16Zm0-1.63c-.09,0-.16-.07-.16-.16v-.33c0-.09,.07-.16,.16-.16s.16,.07,.16,.16v.33c0,.09-.07,.16-.16,.16Zm0-1.63c-.09,0-.16-.07-.16-.16v-.33c0-.09,.07-.16,.16-.16s.16,.07,.16,.16v.33c0,.09-.07,.16-.16,.16Zm0-1.63c-.09,0-.16-.07-.16-.16v-.33c0-.09,.07-.16,.16-.16s.16,.07,.16,.16v.33c0,.09-.07,.16-.16,.16Zm0-1.63c-.09,0-.16-.07-.16-.16v-.33c0-.09,.07-.16,.16-.16s.16,.07,.16,.16v.33c0,.09-.07,.16-.16,.16Zm0-1.63c-.09,0-.16-.07-.16-.16v-.33c0-.09,.07-.16,.16-.16s.16,.07,.16,.16v.33c0,.09-.07,.16-.16,.16Zm0-1.63c-.09,0-.16-.07-.16-.16v-.33c0-.09,.07-.16,.16-.16s.16,.07,.16,.16v.33c0,.09-.07,.16-.16,.16Z"/>
          <rect class="cls-2" x="241.84" y="144.6" width="14.3" height="5.98" rx="1.32" ry="1.32"/>
          <rect class="cls-2" x="267.39" y="151.97" width="14.3" height="5.98" rx="1.32" ry="1.32"/>
          <rect class="cls-2" x="288.39" y="134.68" width="14.3" height="5.98" rx="1.32" ry="1.32"/>
          <rect class="cls-14" x="234.82" y="206.52" width="91.41" height="8.58"/>
          <g>
            <rect class="cls-2" x="249.52" y="221.33" width="62.02" height="19.59" rx="4.97" ry="4.97"/>
            <g>
              <path class="cls-24" d="M258.65,237.46h-3.53c-1.09,0-1.97-.88-1.97-1.97v-8.32c0-1.09,.88-1.97,1.97-1.97h3.53c1.09,0,1.97,.88,1.97,1.97v8.32c0,1.09-.88,1.97-1.97,1.97Zm-3.53-10.79c-.27,0-.5,.22-.5,.5v8.32c0,.27,.22,.5,.5,.5h3.53c.27,0,.5-.22,.5-.5v-8.32c0-.27-.22-.5-.5-.5h-3.53Z"/>
              <path class="cls-24" d="M268.11,237.46h-3.53c-1.09,0-1.97-.88-1.97-1.97v-8.32c0-1.09,.88-1.97,1.97-1.97h3.53c1.09,0,1.97,.88,1.97,1.97v8.32c0,1.09-.88,1.97-1.97,1.97Zm-3.53-10.79c-.27,0-.5,.22-.5,.5v8.32c0,.27,.22,.5,.5,.5h3.53c.27,0,.5-.22,.5-.5v-8.32c0-.27-.22-.5-.5-.5h-3.53Z"/>
              <path class="cls-24" d="M277.56,237.46h-3.53c-1.09,0-1.97-.88-1.97-1.97v-8.32c0-1.09,.88-1.97,1.97-1.97h3.53c1.09,0,1.97,.88,1.97,1.97v8.32c0,1.09-.88,1.97-1.97,1.97Zm-3.53-10.79c-.27,0-.5,.22-.5,.5v8.32c0,.27,.22,.5,.5,.5h3.53c.27,0,.5-.22,.5-.5v-8.32c0-.27-.22-.5-.5-.5h-3.53Z"/>
              <path class="cls-24" d="M287.02,237.46h-3.53c-1.09,0-1.97-.88-1.97-1.97v-8.32c0-1.09,.88-1.97,1.97-1.97h3.53c1.09,0,1.97,.88,1.97,1.97v8.32c0,1.09-.88,1.97-1.97,1.97Zm-3.53-10.79c-.27,0-.5,.22-.5,.5v8.32c0,.27,.22,.5,.5,.5h3.53c.27,0,.5-.22,.5-.5v-8.32c0-.27-.22-.5-.5-.5h-3.53Z"/>
              <path class="cls-24" d="M296.47,237.46h-3.53c-1.09,0-1.97-.88-1.97-1.97v-8.32c0-1.09,.88-1.97,1.97-1.97h3.53c1.09,0,1.97,.88,1.97,1.97v8.32c0,1.09-.88,1.97-1.97,1.97Zm-3.53-10.79c-.27,0-.5,.22-.5,.5v8.32c0,.27,.22,.5,.5,.5h3.53c.27,0,.5-.22,.5-.5v-8.32c0-.27-.22-.5-.5-.5h-3.53Z"/>
              <path class="cls-24" d="M305.92,237.46h-3.53c-1.09,0-1.97-.88-1.97-1.97v-8.32c0-1.09,.88-1.97,1.97-1.97h3.53c1.09,0,1.97,.88,1.97,1.97v8.32c0,1.09-.88,1.97-1.97,1.97Zm-3.53-10.79c-.27,0-.5,.22-.5,.5v8.32c0,.27,.22,.5,.5,.5h3.53c.27,0,.5-.22,.5-.5v-8.32c0-.27-.22-.5-.5-.5h-3.53Z"/>
            </g>
          </g>
          <path class="cls-1" d="M257.22,66.27h-9.45v-.05h-4.5c-2.24,0-4.36,.88-5.97,2.49-1.6,1.6-2.49,3.72-2.49,5.97v35.24h91.41v-35.24c0-2.24-.88-4.36-2.49-5.97-1.6-1.6-3.72-2.49-5.97-2.49h-4.5v.05h-56.06Z"/>
          <g>
            <rect class="cls-24" x="239.5" y="94.7" width="6.5" height="1.67"/>
            <rect class="cls-24" x="239.5" y="97.11" width="6.5" height="1.67"/>
            <rect class="cls-24" x="239.5" y="99.53" width="6.5" height="1.67"/>
          </g>
          <rect class="cls-24" x="251.72" y="94.44" width="21.85" height="6.5"/>
          <rect class="cls-24" x="275.91" y="94.44" width="21.85" height="6.5"/>
          <rect class="cls-24" x="300.09" y="94.44" width="21.85" height="6.5"/>
          <path class="cls-5" d="M331.69,127.53v-26.81c0-.53-.42-.96-.94-.98v-25.06c0-7.14-5.84-12.97-12.97-12.97h-74.5c-7.14,0-12.97,5.84-12.97,12.97v63.14h-.29c-.36,0-.65,.29-.65,.65v11.26c0,.36,.29,.65,.65,.65h.29v110.38c0,7.14,5.84,12.97,12.97,12.97h74.5c7.14,0,12.97-5.84,12.97-12.97v-110.53h.29c.36,0,.65-.29,.65-.65v-11.26c0-.36-.29-.65-.65-.65h-.29v-9.15c.52-.02,.94-.46,.94-.98Zm-5.46-40.11V247.35h-91.41V87.41h91.41Z"/>
          <path class="cls-14" d="M297.3,78.7h-33.55c-1.79,0-3.25-1.46-3.25-3.25h0c0-1.79,1.46-3.25,3.25-3.25h33.55c1.79,0,3.25,1.46,3.25,3.25h0c0,1.79-1.46,3.25-3.25,3.25Z"/>
          <path class="cls-14" d="M297.3,264.23h-33.55c-1.79,0-3.25-1.46-3.25-3.25h0c0-1.79,1.46-3.25,3.25-3.25h33.55c1.79,0,3.25,1.46,3.25,3.25h0c0,1.79-1.46,3.25-3.25,3.25Z"/>
          <circle class="cls-14" cx="315.09" cy="74.23" r="1.51"/>
          <circle class="cls-14" cx="306.92" cy="75.65" r="2.93"/>
          <g class="cls-15">
            <g>
              <polygon class="cls-3" points="326.49 73.48 234.57 140.67 234.56 176.97 294.84 132.91 326.49 109.78 326.49 73.48"/>
              <polygon class="cls-3" points="326.49 117.12 234.56 184.31 234.56 189.61 326.49 122.42 326.49 117.12"/>
              <polygon class="cls-3" points="234.53 252 326.48 184.82 326.49 148.52 234.56 215.71 234.56 243.17 234.53 252"/>
              <polygon class="cls-3" points="326.48 192.16 245.07 251.67 252.33 251.67 326.48 197.47 326.48 192.16"/>
            </g>
          </g>
        </g>
        <path class="cls-22" d="M111.24,255.88h170.24c.02,8.85-4.2,16.88-9.9,22.75-5.81,5.88-13.11,9.6-21.78,9.85,0,0,0,0,0,.01H91.55c18.23,0,23.71-14.61,19.7-32.62Z"/>
        <g>
          <path class="cls-1" d="M83.64,160l-41.85,52.84c-7.83,9.42-12.54,21.54-12.54,34.75,0,30.04,24.35,54.4,54.4,54.4s54.4-24.35,54.4-54.4c0-13.22-4.72-25.35-12.57-34.77l-41.83-52.82Z"/>
          <polygon class="cls-4" points="41.75 212.84 83.6 160 92.26 170.93 83.6 163.68 41.75 212.84"/>
          <path class="cls-19" d="M127.23,215.05c2.81,6.69,4.37,14.05,4.37,21.76,0,31.04-25.16,56.2-56.2,56.2-13.07,0-25.11-4.47-34.65-11.95,9.96,12.74,25.47,20.94,42.89,20.94,30.04,0,54.4-24.35,54.4-54.4,0-12.2-4.02-23.47-10.81-32.55Z"/>
          <circle class="cls-3" cx="54.05" cy="225.41" r="7.65"/>
          <circle class="cls-3" cx="44.16" cy="237.9" r="4.83"/>
          <circle class="cls-4" cx="56.59" cy="236.47" r="23.15"/>
        </g>
        <g>
          <g>
            <path class="cls-20" d="M174.14,251.61c11.71-15.35,10.55-37.39-3.48-51.42-15.31-15.31-40.08-15.31-55.4,0-14.03,14.03-15.19,36.06-3.48,51.42,2.52,3.31,4.55,6.97,5.95,10.89l.06,.16c1.54,4.3,2.33,8.84,2.33,13.4h0c0,5.63,4.56,10.19,10.19,10.19h25.29c5.63,0,10.19-4.56,10.19-10.19h0c0-4.57,.79-9.1,2.33-13.4l.06-.16c1.4-3.92,3.43-7.58,5.95-10.89Z"/>
            <path class="cls-13" d="M171.45,201.01c9.28,13.8,8.83,32.2-1.36,45.55-2.52,3.31-4.55,6.97-5.95,10.89l-.06,.16c-1.54,4.3-2.33,8.84-2.33,13.4h0c0,5.63-4.56,10.19-10.19,10.19h-25.29c-2.04,0-3.94-.6-5.53-1.63,1.43,3.9,5.18,6.68,9.57,6.68h25.29c5.63,0,10.19-4.56,10.19-10.19h0c0-4.57,.79-9.1,2.33-13.4l.06-.16c1.4-3.92,3.43-7.58,5.95-10.89,11.49-15.06,10.59-36.54-2.68-50.6Z"/>
            <circle class="cls-3" cx="129.36" cy="207.9" r="5.35"/>
            <circle class="cls-3" cx="122.45" cy="216.63" r="3.38"/>
            <circle class="cls-4" cx="133.43" cy="219.04" r="21.71"/>
            <g>
              <path class="cls-24" d="M125.27,283.86c-.3,0-.54,.24-.54,.54v4.01c0,1.16,.55,2.2,1.4,2.85v18.59c0,1.1,.46,2.15,1.26,2.9,1.25,1.18,2.61,2.18,4.03,3.02,.9,.53,1.51,1.33,1.7,2.3,.08,.43,.4,.79,.81,.94l5.29,2.02v.89c0,.9,.73,1.63,1.63,1.63h4.2c.9,0,1.63-.73,1.63-1.63v-.88l5.28-1.99c.41-.16,.73-.51,.81-.95,.19-.98,.81-1.81,1.71-2.34,1.43-.84,2.78-1.84,4.03-3.02,.8-.75,1.26-1.8,1.26-2.9v-18.59c.85-.66,1.4-1.69,1.4-2.85v-4.01c0-.3-.24-.54-.54-.54h-35.38Z"/>
              <rect class="cls-14" x="124.99" y="292.1" width="36.02" height="3.57" rx="1.64" ry="1.64"/>
              <rect class="cls-14" x="124.99" y="299.26" width="36.02" height="3.57" rx="1.64" ry="1.64"/>
              <rect class="cls-14" x="124.99" y="306.43" width="36.02" height="3.57" rx="1.64" ry="1.64"/>
              <path class="cls-4" d="M142.34,292.1h-15.7c-.91,0-1.64,.74-1.64,1.64v.28c0,.67,.4,1.24,.96,1.5-.09-.21-.15-.44-.15-.68v-.28c0-.91,.74-1.64,1.64-1.64l14.88-.82Z"/>
              <path class="cls-4" d="M142.34,299.26h-15.7c-.91,0-1.64,.74-1.64,1.64v.28c0,.67,.4,1.24,.96,1.5-.09-.21-.15-.44-.15-.68v-.28c0-.91,.74-1.64,1.64-1.64l14.88-.82Z"/>
              <path class="cls-4" d="M142.34,306.43h-15.7c-.91,0-1.64,.74-1.64,1.64v.28c0,.67,.4,1.24,.96,1.5-.09-.21-.15-.44-.15-.68v-.28c0-.91,.74-1.64,1.64-1.64l14.88-.82Z"/>
              <path class="cls-7" d="M160.65,283.86h-35.38c-.3,0-.54,.24-.54,.54v4.01s0-.9,0-.9c0,1.06,.89,1.91,1.95,1.91h31.6c.24,.29,.39,1.58,.39,1.98v.28c0,.61-.34,1.15-.83,1.43-.24,.14-.4,.38-.4,.66v2.7c0,.28,.16,.53,.4,.66,.5,.28,.83,.82,.83,1.43v.28c0,.61-.34,1.15-.83,1.43-.24,.14-.4,.38-.4,.66v2.7c0,.28,.16,.53,.4,.66,.5,.28,.83,.82,.83,1.43v.28c0,.63-.35,1.17-.87,1.45-.22,.12-.36,.33-.39,.57-.12,.91-.55,1.75-1.23,2.38-1.25,1.18-2.61,2.18-4.03,3.02-.9,.53-1.51,1.35-1.71,2.33-.09,.44-.4,.8-.82,.96l-5.28,1.99v.88c0,.9-.73,1.63-1.63,1.63h-3.48v.72c0,.9,.73,1.63,1.63,1.63h4.2c.9,0,1.63-.73,1.63-1.63v-.88l5.28-1.99c.42-.16,.73-.52,.82-.96,.19-.98,.81-1.8,1.71-2.33,1.43-.84,2.78-1.84,4.03-3.02,.78-.73,1.24-1.74,1.26-2.81,.71-.18,1.23-.82,1.23-1.59v-.28c0-.77-.52-1.41-1.23-1.59v-3.7c.71-.18,1.23-.82,1.23-1.59v-.28c0-.77-.52-1.41-1.23-1.59v-3.7c.71-.18,1.23-.82,1.23-1.59v-.28c0-.77-.52-1.41-1.23-1.59v-.89c.84-.65,1.39-1.67,1.4-2.81,0,0,0-.01,0-.02,0,0,0-.01,0-.02h0v-4.01h0c0-.3-.24-.54-.54-.54Z"/>
            </g>
          </g>
          <polygon class="cls-29" points="155.49 209.56 132.45 234.89 140.46 234.89 132.45 254.58 155.49 229.24 147.49 229.24 155.49 209.56"/>
        </g>
        <g>
          <rect class="cls-21" x="33.38" y="44.17" width="125.54" height="103.18" rx="8.24" ry="8.24" transform="translate(-18.72 23.51) rotate(-12.71)"/>
          <g>
            <path class="cls-26" d="M35.96,64.45h0c-1.33,.3-2.65-.54-2.95-1.87l-2.24-9.92c-.3-1.33,.54-2.65,1.87-2.95h0c1.33-.3,2.65,.54,2.95,1.87l2.24,9.92c.3,1.33-.54,2.65-1.87,2.95Z"/>
            <path class="cls-26" d="M48.6,61.6h0c-1.33,.3-2.65-.54-2.95-1.87l-2.24-9.92c-.3-1.33,.54-2.65,1.87-2.95h0c1.33-.3,2.65,.54,2.95,1.87l2.24,9.92c.3,1.33-.54,2.65-1.87,2.95Z"/>
            <path class="cls-26" d="M61.24,58.74h0c-1.33,.3-2.65-.54-2.95-1.87l-2.24-9.92c-.3-1.33,.54-2.65,1.87-2.95h0c1.33-.3,2.65,.54,2.95,1.87l2.24,9.92c.3,1.33-.54,2.65-1.87,2.95Z"/>
            <path class="cls-26" d="M73.88,55.89h0c-1.33,.3-2.65-.54-2.95-1.87l-2.24-9.92c-.3-1.33,.54-2.65,1.87-2.95h0c1.33-.3,2.65,.54,2.95,1.87l2.24,9.92c.3,1.33-.54,2.65-1.87,2.95Z"/>
            <path class="cls-26" d="M86.51,53.04h0c-1.33,.3-2.65-.54-2.95-1.87l-2.24-9.92c-.3-1.33,.54-2.65,1.87-2.95h0c1.33-.3,2.65,.54,2.95,1.87l2.24,9.92c.3,1.33-.54,2.65-1.87,2.95Z"/>
            <path class="cls-26" d="M99.15,50.19h0c-1.33,.3-2.65-.54-2.95-1.87l-2.24-9.92c-.3-1.33,.54-2.65,1.87-2.95h0c1.33-.3,2.65,.54,2.95,1.87l2.24,9.92c.3,1.33-.54,2.65-1.87,2.95Z"/>
            <path class="cls-26" d="M111.79,47.34h0c-1.33,.3-2.65-.54-2.95-1.87l-2.24-9.92c-.3-1.33,.54-2.65,1.87-2.95h0c1.33-.3,2.65,.54,2.95,1.87l2.24,9.92c.3,1.33-.54,2.65-1.87,2.95Z"/>
            <path class="cls-26" d="M124.43,44.49h0c-1.33,.3-2.65-.54-2.95-1.87l-2.24-9.92c-.3-1.33,.54-2.65,1.87-2.95h0c1.33-.3,2.65,.54,2.95,1.87l2.24,9.92c.3,1.33-.54,2.65-1.87,2.95Z"/>
            <path class="cls-26" d="M137.07,41.64h0c-1.33,.3-2.65-.54-2.95-1.87l-2.24-9.92c-.3-1.33,.54-2.65,1.87-2.95h0c1.33-.3,2.65,.54,2.95,1.87l2.24,9.92c.3,1.33-.54,2.65-1.87,2.95Z"/>
          </g>
          <rect class="cls-2" x="41.71" y="59.1" width="110.43" height="80.13" rx="3.95" ry="3.95" transform="translate(-19.45 23.76) rotate(-12.71)"/>
          <g class="cls-16">
            <g>
              <rect class="cls-21" x="47.79" y="85.96" width="13.4" height="13.4" rx="1.97" ry="1.97" transform="translate(-19.06 14.27) rotate(-12.71)"/>
              <rect class="cls-21" x="67.28" y="81.56" width="13.4" height="13.4" rx="1.97" ry="1.97" transform="translate(-17.61 18.45) rotate(-12.71)"/>
              <rect class="cls-21" x="86.77" y="77.16" width="13.4" height="13.4" rx="1.97" ry="1.97" transform="translate(-16.17 22.63) rotate(-12.71)"/>
              <rect class="cls-21" x="106.26" y="72.76" width="13.4" height="13.4" rx="1.97" ry="1.97" transform="translate(-14.72 26.81) rotate(-12.71)"/>
              <rect class="cls-21" x="125.75" y="68.37" width="13.4" height="13.4" rx="1.97" ry="1.97" transform="translate(-13.27 30.99) rotate(-12.71)"/>
            </g>
            <g>
              <rect class="cls-21" x="52.37" y="106.26" width="13.4" height="13.4" rx="1.97" ry="1.97" transform="translate(-23.41 15.77) rotate(-12.71)"/>
              <rect class="cls-21" x="71.86" y="101.87" width="13.4" height="13.4" rx="1.97" ry="1.97" transform="translate(-21.97 19.95) rotate(-12.71)"/>
              <rect class="cls-21" x="91.35" y="97.47" width="13.4" height="13.4" rx="1.97" ry="1.97" transform="translate(-20.52 24.14) rotate(-12.71)"/>
              <rect class="cls-21" x="110.84" y="93.07" width="13.4" height="13.4" rx="1.97" ry="1.97" transform="translate(-19.08 28.32) rotate(-12.71)"/>
              <rect class="cls-21" x="130.33" y="88.67" width="13.4" height="13.4" rx="1.97" ry="1.97" transform="translate(-17.63 32.5) rotate(-12.71)"/>
            </g>
            <g>
              <rect class="cls-21" x="56.95" y="126.57" width="13.4" height="13.4" rx="1.97" ry="1.97" transform="translate(-27.77 17.28) rotate(-12.71)"/>
              <rect class="cls-21" x="76.44" y="122.18" width="13.4" height="13.4" rx="1.97" ry="1.97" transform="translate(-26.33 21.46) rotate(-12.71)"/>
              <rect class="cls-21" x="95.93" y="117.78" width="13.4" height="13.4" rx="1.97" ry="1.97" transform="translate(-24.88 25.64) rotate(-12.71)"/>
              <rect class="cls-21" x="115.42" y="113.38" width="13.4" height="13.4" rx="1.97" ry="1.97" transform="translate(-23.44 29.82) rotate(-12.71)"/>
              <rect class="cls-21" x="134.91" y="108.98" width="13.4" height="13.4" rx="1.97" ry="1.97" transform="translate(-21.99 34.01) rotate(-12.71)"/>
            </g>
          </g>
          <path class="cls-28" d="M139.29,128.34c-1.7,0-3.25-.4-4.45-1.33-2.05-1.6-3.36-5.02-3.51-9.15-.14-3.94,.79-7.69,2.43-9.8,3.63-4.65,13.77-3.29,17.98-.01,4.64,3.62,3.71,9.97,.48,14.11-2.47,3.16-8.25,6.18-12.92,6.18Zm2.37-22.29c-2.92,0-5.66,.77-7.11,2.62-3.1,3.98-3.1,14.42,.9,17.54,3.95,3.08,12.85-.67,15.97-4.68,2.93-3.76,3.82-9.49-.31-12.71-2.13-1.67-5.94-2.78-9.46-2.78Z"/>
          <path class="cls-28" d="M141.31,121.67c-.12,0-.23-.04-.32-.12l-5.31-4.61c-.2-.18-.22-.48-.05-.68,.18-.2,.48-.22,.68-.05l4.77,4.14,3.75-10.94c.09-.25,.36-.39,.62-.3,.25,.09,.39,.36,.3,.62l-3.98,11.62c-.05,.15-.18,.27-.33,.31-.04,.01-.08,.02-.13,.02Z"/>
          <path class="cls-21" d="M103.91,68.46l-56.2,12.68c-1.49,.34-2.97-.6-3.3-2.09h0c-.34-1.49,.6-2.97,2.09-3.3l56.2-12.68c1.49-.34,2.97,.6,3.3,2.09h0c.34,1.49-.6,2.97-2.09,3.3Z"/>
        </g>
      </g>
    </g>
  </g>
</svg>