<?xml version="1.0" encoding="UTF-8"?>
<svg id="Layer_2" data-name="Layer 2" xmlns="http://www.w3.org/2000/svg" viewBox="0 0 611.16 380.18">
  <defs>
    <style>
      .cls-1 {
        opacity: .92;
      }

      .cls-1, .cls-2, .cls-3, .cls-4, .cls-5 {
        fill: #fff;
      }

      .cls-6 {
        fill: #c8c8c9;
      }

      .cls-6, .cls-7, .cls-8 {
        fill-rule: evenodd;
      }

      .cls-9 {
        fill: #f9e2ca;
      }

      .cls-10 {
        fill: #ffb93e;
      }

      .cls-3 {
        opacity: .5;
      }

      .cls-11 {
        fill: #7c7c7c;
      }

      .cls-7, .cls-12 {
        fill: #d3d3d3;
      }

      .cls-4 {
        opacity: .83;
      }

      .cls-13 {
        fill: #e50013;
      }

      .cls-14 {
        fill: #f4b831;
      }

      .cls-15 {
        fill: #e5cfbd;
      }

      .cls-16 {
        fill: #ff9843;
      }

      .cls-17 {
        fill: #231916;
      }

      .cls-5 {
        opacity: .53;
      }

      .cls-18 {
        fill: #353535;
      }

      .cls-19 {
        fill: #474747;
      }

      .cls-20 {
        fill: #ed7d2b;
      }

      .cls-21 {
        fill: #7df97d;
      }

      .cls-22 {
        fill: #686868;
      }

      .cls-23 {
        fill: #f2f2f2;
        opacity: .1;
      }

      .cls-8 {
        fill: #2c3a64;
      }
    </style>
  </defs>
  <g id="Layer_1-2" data-name="Layer 1">
    <g>
      <path class="cls-23" d="M339.16,94.54l6,5s-2,.2-3,.6l-3-5.6Z"/>
      <g>
        <g>
          <path class="cls-7" d="M92.43,320.69h511.52l6.32,31.82c3.92,22.06-7.88,27.42-20.99,27.54H107.09c-13.11-.12-24.91-5.48-20.99-27.54l6.32-31.82Z"/>
          <path class="cls-12" d="M589.28,380.18H107.09c-8.3-.07-14.31-2.28-17.87-6.57-3.83-4.61-4.92-11.72-3.25-21.13l6.35-31.93h511.73l.02,.11,6.32,31.82c1.67,9.42,.58,16.52-3.25,21.13-3.56,4.28-9.57,6.49-17.87,6.57Zm-496.74-59.36l-6.3,31.71c-1.66,9.33-.58,16.37,3.19,20.91,3.51,4.22,9.45,6.4,17.67,6.47h482.19c8.22-.07,14.16-2.25,17.67-6.47,3.77-4.54,4.85-11.58,3.19-20.91l-6.3-31.71H92.54Z"/>
          <polygon class="cls-7" points="92.43 320.69 348.19 320.69 603.94 320.69 605.2 327.01 348.19 327.01 91.17 327.01 92.43 320.69"/>
          <path class="cls-7" d="M92.43,320.69h511.52l-49.36-109.38c-8.26-18.3-13.93-18.59-34.68-18.59H176.46c-20.75,0-26.42,.29-34.68,18.59l-49.36,109.38Z"/>
          <path class="cls-12" d="M604.15,320.82H92.22l.08-.19,49.36-109.38c8.42-18.66,14.54-18.66,34.8-18.66h343.45c20.26,0,26.37,0,34.8,18.66l49.44,109.57Zm-511.52-.26h511.11l-49.27-109.19c-8.35-18.51-14.43-18.51-34.56-18.51H176.46c-20.13,0-26.2,0-34.56,18.51l-49.27,109.19Z"/>
          <path class="cls-12" d="M358.44,257.32v-.04h0c0-1.6-1.1-3.07-2.89-4.14-1.87-1.12-4.47-1.82-7.36-1.82s-5.49,.7-7.36,1.82c-1.79,1.07-2.89,2.54-2.89,4.14h0v.02c0,1.59,1.11,3.05,2.89,4.12,1.87,1.12,4.47,1.82,7.36,1.82s5.49-.7,7.36-1.82c1.77-1.06,2.87-2.51,2.89-4.1m-27.4,41.2l-.18-.02c-.17-.02-.35-.04-.51-.06h0c-15.55-2.01-28.49-7.09-37.61-14.16-9.4-7.28-14.75-16.67-14.75-27,0-11.75,7.9-22.38,20.67-30.06,12.69-7.63,30.2-12.35,49.52-12.35s36.83,4.72,49.52,12.35c12.77,7.68,20.67,18.31,20.67,30.06,0,9.78-5.5,18.81-14.73,26.02-9.34,7.29-22.5,12.72-37.63,15.13h0c-.34,.06-.69,.09-1.05,.1-1.47,.06-2.91-.23-4.05-.76-1.22-.57-2.12-1.43-2.4-2.47-.04-.15-.07-.32-.08-.5v-.05s0-32.65,0-32.65c-.38,.31-.8,.6-1.26,.87-2.32,1.39-5.5,2.26-9,2.26s-6.68-.86-9-2.26c-.45-.27-.87-.56-1.26-.87v32.7c-.02,.18-.04,.34-.08,.49-.28,1.04-1.17,1.9-2.4,2.47-1.14,.53-2.58,.82-4.05,.76-.12,0-.24-.01-.36-.02h0Zm-1.83-24.17c.05,.09,.1,.19,.15,.28,.41,.89,.39,1.85-.13,2.76-.13,.23-.3,.47-.51,.7h0c-.95,1.06-2.49,1.78-4.21,2.1-.67,.12-1.36,.18-2.07,.17,.33,.84,.28,1.73-.2,2.58-.14,.24-.31,.48-.5,.7-.83,.93-2.13,1.6-3.6,1.96,5.2,1.98,10.99,3.46,17.16,4.32v-18.78c-.15,.33-.36,.65-.64,.97-.95,1.06-2.49,1.78-4.21,2.09h0c-.4,.08-.81,.13-1.23,.15Zm46.91,3.7c5-2.4,9.13-5.43,12.02-8.89,3-3.58,4.68-7.61,4.68-11.88,0-7.31-4.95-13.95-12.96-18.76-8.09-4.87-19.29-7.88-31.68-7.88s-23.59,3.01-31.68,7.88c-8.01,4.81-12.96,11.45-12.96,18.76,0,4.19,1.62,8.15,4.51,11.68,2.65,3.23,6.36,6.1,10.87,8.43,1.11,.57,1.46,.8,2.8,.94,.73,.08,1.48,.05,2.18-.08,1.11-.2,2.08-.64,2.64-1.27h0c.1-.11,.19-.24,.26-.36,.25-.44,.26-.9,.06-1.33-.13-.29-.36-.56-.67-.81-.43-.34-1.3-.66-1.89-.99-.6-.32-1.18-.66-1.74-1.01-.85-.52-1.65-1.07-2.39-1.64-2.48-1.89-4.46-4.03-5.8-6.36-1.31-2.26-2.02-4.68-2.02-7.21,0-6.05,4.05-11.5,10.6-15.44,6.47-3.89,15.38-6.29,25.21-6.29s18.74,2.4,25.21,6.29c6.55,3.94,10.6,9.4,10.6,15.44,0,1.97-.44,3.89-1.25,5.72-.84,1.87-2.08,3.65-3.66,5.28-1.06,1.1-2.28,2.13-3.63,3.1-1.19,.84-2.47,1.63-3.86,2.36,0,.01-.71,.29-.79,.33-.66,.34-1.11,.76-1.32,1.22-.2,.43-.18,.89,.06,1.33,.07,.12,.16,.24,.27,.36,.57,.63,1.53,1.07,2.64,1.27h0c.53,.09,1.09,.13,1.66,.11,.18,0,1.63-.17,2-.31Zm7.29,7.65c-6.53,2.96-14.11,5.12-22.34,6.23v2.82h0s.02,.1,.03,.16c.13,.48,.57,.88,1.19,1.17,.7,.33,1.61,.5,2.54,.47,.19,0,.39-.03,.6-.05,14.63-2.33,27.34-7.55,36.33-14.58,8.76-6.84,13.98-15.4,13.98-24.64,0-11.12-7.52-21.2-19.68-28.51-12.24-7.36-29.17-11.91-47.89-11.91s-35.65,4.55-47.89,11.91c-12.16,7.31-19.68,17.39-19.68,28.51,0,9.8,5.08,18.7,14,25.62,8.76,6.79,21.23,11.67,36.24,13.6h0c.24,.03,.46,.05,.67,.06,.94,.04,1.84-.14,2.54-.47,.62-.29,1.07-.7,1.19-1.18,.01-.06,.03-.11,.03-.16v-2.82c-8.15-1.1-15.66-3.23-22.14-6.14-.59-.26-1.15-.53-1.72-.81-3.19-1.55-6.11-3.3-8.71-5.21-8.3-6.13-13.27-13.96-13.27-22.5,0-9.85,6.62-18.76,17.32-25.19,10.61-6.38,25.26-10.33,41.42-10.33s30.8,3.95,41.42,10.33c10.7,6.43,17.32,15.34,17.32,25.19,0,8.54-4.98,16.38-13.29,22.51-2.66,1.97-5.67,3.75-8.97,5.33-.42,.2-.83,.39-1.25,.59Zm-.1-2.28c3.12-1.5,5.97-3.2,8.49-5.06,7.81-5.76,12.49-13.1,12.49-21.08,0-9.21-6.24-17.57-16.32-23.63-10.17-6.11-24.23-9.89-39.78-9.89s-29.62,3.78-39.78,9.89c-10.08,6.06-16.32,14.42-16.32,23.63,0,7.98,4.68,15.32,12.47,21.07,2.65,1.95,5.65,3.72,8.95,5.28,1.1,.32,2.31,.36,3.41,.16h0c1.11-.2,2.07-.64,2.64-1.27,.11-.12,.2-.25,.27-.36,.25-.44,.26-.9,.06-1.33-.21-.46-.66-.89-1.32-1.22-.62-.32-1.01-.51-1.65-.85-4.58-2.44-8.37-5.42-11.11-8.76-3.14-3.83-4.91-8.15-4.91-12.72,0-7.95,5.33-15.13,13.96-20.31,8.54-5.13,20.32-8.31,33.31-8.31s24.77,3.18,33.31,8.31c8.62,5.19,13.96,12.37,13.96,20.31,0,4.66-1.84,9.06-5.09,12.95-2.9,3.47-6.94,6.52-11.81,9-.16,.08-.61,.31-.76,.39-.66,.34-1.11,.76-1.32,1.22-.2,.43-.18,.89,.06,1.33,.07,.12,.16,.24,.27,.36h0c.56,.63,1.53,1.07,2.65,1.27h0c.69,.13,1.42,.16,2.15,.08,.71-.07,1.11-.17,1.71-.46Zm-13.07-11.4c1.22-.65,2.36-1.35,3.41-2.09,1.24-.88,2.35-1.83,3.31-2.83,1.42-1.47,2.54-3.07,3.29-4.75,.72-1.62,1.11-3.32,1.11-5.08,0-5.41-3.67-10.32-9.6-13.89-6.02-3.62-14.35-5.86-23.57-5.86s-17.56,2.24-23.57,5.86c-5.93,3.57-9.6,8.48-9.6,13.89,0,2.25,.63,4.41,1.79,6.41,1.21,2.1,3,4.04,5.26,5.75,.69,.53,1.43,1.03,2.2,1.51,.37,.23,.74,.45,1.12,.66,.74,.42,.83,.48,1.71,.65,.91,.17,1.86,.16,2.75,0h0c1.11-.2,2.07-.64,2.64-1.27,.43-.48,.55-.99,.41-1.48-.13-.43-.46-.85-.99-1.2-2.49-1.36-4.51-3.04-5.91-4.92-1.39-1.87-2.16-3.94-2.16-6.12,0-4.14,2.77-7.88,7.24-10.57,4.39-2.64,10.44-4.27,17.1-4.27s12.71,1.63,17.1,4.27c4.48,2.69,7.24,6.43,7.24,10.57,0,2.17-.77,4.24-2.14,6.1-1.4,1.9-3.43,3.58-5.93,4.94-.51,.34-.84,.75-.97,1.17-.15,.49-.03,1.01,.41,1.5,.57,.63,1.53,1.07,2.64,1.27h0c.48,.08,.98,.12,1.48,.12,.66,0,1.64-.14,2.22-.36Zm-9.17-.89v18.78c6.18-.87,11.96-2.35,17.16-4.32-1.47-.36-2.76-1.03-3.59-1.96h0c-.2-.22-.37-.46-.5-.7-.48-.85-.53-1.74-.2-2.58-.7,0-1.4-.05-2.07-.17h0c-1.73-.32-3.27-1.04-4.21-2.09-.2-.22-.37-.46-.5-.7-.51-.91-.54-1.87-.13-2.76,.04-.1,.09-.19,.15-.28-.42-.03-.83-.08-1.23-.15h0c-1.73-.32-3.27-1.04-4.21-2.09-.28-.31-.49-.64-.64-.97Zm0-13.81v11.35c.32-.72,.93-1.38,1.78-1.92h0s.02,0,.02,0c.25-.16,.51-.28,.76-.43,1.87-1.12,3.39-2.44,4.47-3.9,1.16-1.57,1.81-3.31,1.81-5.14,0-3.51-2.39-6.69-6.25-9.01-3.94-2.37-9.41-3.84-15.47-3.84s-11.52,1.47-15.47,3.84c-3.86,2.32-6.25,5.51-6.25,9.01,0,1.83,.65,3.57,1.82,5.15,1.12,1.5,2.7,2.86,4.65,3.99,.25,.15,.5,.27,.74,.43,.77,.52,1.32,1.15,1.63,1.82v-11.39c0-2.24,1.49-4.25,3.89-5.7,2.32-1.39,5.5-2.26,9-2.26s6.68,.86,9,2.26c2.4,1.44,3.89,3.46,3.89,5.7v.05Z"/>
          <g>
            <path class="cls-12" d="M288.15,343.1h-15.45c-.42,0-.82,.17-1.14,.46-.32,.29-.55,.67-.61,1.09l-2.02,15.45s0,.11,0,.18h0c0,.29,.1,.55,.27,.74,.17,.19,.4,.32,.68,.36h0s.1,0,.18,0h15.45c.42,0,.82-.18,1.14-.46,.32-.29,.55-.67,.61-1.09l2.02-15.45s0-.11,0-.18h0c0-.29-.1-.55-.27-.74-.17-.19-.4-.32-.68-.36-.04,0-.1,0-.18,0m-15.45-2.03h15.45c.13,0,.28,.01,.44,.03,.79,.1,1.47,.48,1.95,1.03,.48,.55,.76,1.27,.76,2.07h0c0,.13-.01,.28-.03,.45l-2.02,15.45c-.12,.92-.6,1.75-1.27,2.34-.68,.6-1.56,.97-2.48,.97h-15.45c-.13,0-.27-.01-.43-.03h0c-.79-.1-1.47-.48-1.95-1.03-.48-.55-.76-1.27-.76-2.07h0c0-.13,.01-.28,.03-.45l2.02-15.45c.12-.92,.6-1.75,1.27-2.34,.68-.6,1.56-.97,2.48-.97Z"/>
            <path class="cls-12" d="M408.22,341.07h15.45c.92,0,1.8,.37,2.48,.97,.67,.6,1.15,1.42,1.27,2.34l2.02,15.45c.02,.17,.03,.32,.03,.45h0c0,.8-.28,1.52-.76,2.07-.48,.55-1.16,.93-1.95,1.03h0c-.16,.02-.31,.03-.43,.03h-15.45c-.92,0-1.8-.37-2.48-.97-.67-.6-1.15-1.42-1.27-2.34l-2.02-15.45c-.02-.17-.03-.32-.03-.45h0c0-.8,.28-1.52,.76-2.07,.48-.55,1.16-.93,1.95-1.03,.16-.02,.31-.03,.44-.03m15.45,2.03h-15.45c-.08,0-.14,0-.18,0-.28,.04-.52,.17-.68,.36-.17,.19-.27,.45-.27,.74h0c0,.08,0,.14,0,.18l2.02,15.45c.05,.42,.28,.81,.61,1.09,.32,.28,.72,.46,1.14,.46h15.45c.08,0,.14,0,.18,0h0c.28-.04,.52-.17,.68-.36,.17-.19,.27-.45,.27-.74h0c0-.08,0-.14,0-.18l-2.02-15.45c-.05-.42-.28-.81-.61-1.09-.32-.28-.72-.46-1.14-.46Z"/>
            <path class="cls-12" d="M372.28,343.1h-63.63c-.42,0-.82,.18-1.14,.46-.32,.29-.55,.67-.61,1.09l-2.02,15.45s0,.11,0,.18c0,.29,.1,.55,.26,.74,.17,.19,.4,.32,.68,.36,.04,0,.1,0,.18,0h84.4c.08,0,.14,0,.18,0,.28-.04,.52-.17,.68-.36,.17-.19,.26-.45,.26-.74,0-.08,0-.14,0-.18l-2.02-15.45c-.05-.42-.28-.81-.61-1.09-.32-.28-.72-.46-1.14-.46h-15.45Zm-63.63-2.03h79.09c.92,0,1.8,.37,2.48,.97,.67,.6,1.15,1.42,1.27,2.34l2.02,15.45c.02,.17,.03,.32,.03,.45,0,.8-.28,1.52-.76,2.07-.48,.55-1.16,.93-1.95,1.03-.16,.02-.31,.03-.44,.03h-84.4c-.13,0-.28-.01-.44-.03-.79-.1-1.47-.48-1.95-1.03-.48-.55-.76-1.27-.76-2.07,0-.13,.01-.28,.03-.45l2.02-15.45c.12-.92,.6-1.75,1.27-2.34,.68-.6,1.56-.97,2.48-.97Z"/>
            <path class="cls-12" d="M420.54,350.03c-.84-.84-2-1.36-3.27-1.36s-2.44,.52-3.27,1.36c-.84,.84-1.36,2-1.36,3.27s.52,2.44,1.36,3.27c.84,.84,2,1.36,3.27,1.36s2.44-.52,3.27-1.36c.84-.84,1.36-2,1.36-3.27s-.52-2.44-1.36-3.27m-3.27-3.38c1.84,0,3.5,.75,4.71,1.95,1.2,1.2,1.95,2.87,1.95,4.71s-.75,3.5-1.95,4.71c-1.2,1.2-2.87,1.95-4.71,1.95s-3.5-.75-4.71-1.95c-1.2-1.2-1.95-2.87-1.95-4.71s.75-3.5,1.95-4.71c1.2-1.2,2.87-1.95,4.71-1.95Z"/>
            <path class="cls-12" d="M416.17,345.54c0-.4,.49-.73,1.1-.73s1.1,.33,1.1,.73v6.2c0,.4-.49,.73-1.1,.73s-1.1-.32-1.1-.73v-6.2Z"/>
            <path class="cls-12" d="M282.37,348.97c-.84-.84-2-1.36-3.27-1.36s-2.44,.52-3.27,1.36c-.84,.84-1.36,2-1.36,3.27s.52,2.44,1.36,3.27c.84,.84,2,1.36,3.27,1.36s2.44-.52,3.27-1.36c.84-.84,1.36-2,1.36-3.27s-.52-2.44-1.36-3.27m-3.27-3.38c1.84,0,3.5,.75,4.71,1.95,1.2,1.2,1.95,2.87,1.95,4.71s-.75,3.5-1.95,4.71c-1.2,1.2-2.87,1.95-4.71,1.95s-3.5-.75-4.71-1.95c-1.2-1.2-1.95-2.87-1.95-4.71s.75-3.5,1.95-4.71c1.2-1.2,2.87-1.95,4.71-1.95Z"/>
            <path class="cls-12" d="M278.55,348.73c0-.3,.25-.55,.55-.55s.55,.25,.55,.55v3.51c0,.3-.25,.55-.55,.55s-.55-.25-.55-.55v-3.51Z"/>
            <path class="cls-12" d="M282.61,351.69c.3,0,.55,.25,.55,.55s-.25,.55-.55,.55h-3.51c-.3,0-.55-.25-.55-.55s.25-.55,.55-.55h3.51Z"/>
            <path class="cls-12" d="M329.52,351.14c.55,0,.99,.49,.99,1.1s-.44,1.1-.99,1.1h-8.45c-.55,0-.99-.49-.99-1.1s.44-1.1,.99-1.1h8.45Z"/>
            <path class="cls-12" d="M369.98,348.02c0-.55,.49-.99,1.1-.99s1.1,.44,1.1,.99v8.45c0,.55-.49,.99-1.1,.99s-1.1-.44-1.1-.99v-8.45Z"/>
            <path class="cls-12" d="M375.3,351.14c.55,0,.99,.49,.99,1.1s-.44,1.1-.99,1.1h-8.45c-.55,0-.99-.49-.99-1.1s.44-1.1,.99-1.1h8.45Z"/>
          </g>
        </g>
        <g>
          <path class="cls-8" d="M84.43,315.69h511.52l6.32,31.82c3.92,22.06-7.88,27.42-20.99,27.54H99.09c-13.11-.12-24.91-5.48-20.99-27.54l6.32-31.82Z"/>
          <path class="cls-17" d="M581.28,375.18H99.09c-8.3-.07-14.31-2.28-17.87-6.57-3.83-4.61-4.92-11.72-3.25-21.13l6.35-31.93h511.73l.02,.11,6.32,31.82c1.67,9.42,.58,16.52-3.25,21.13-3.56,4.28-9.57,6.49-17.87,6.57Zm-496.74-59.36l-6.3,31.71c-1.66,9.33-.58,16.37,3.19,20.91,3.51,4.22,9.45,6.4,17.67,6.47h482.19c8.22-.07,14.16-2.25,17.67-6.47,3.77-4.54,4.85-11.58,3.19-20.91l-6.3-31.71H84.54Z"/>
          <polygon class="cls-6" points="84.43 315.69 340.19 315.69 595.94 315.69 597.2 322.01 340.19 322.01 83.17 322.01 84.43 315.69"/>
          <path class="cls-8" d="M84.43,315.69h511.52l-49.36-109.38c-8.26-18.3-13.93-18.59-34.68-18.59H168.46c-20.75,0-26.42,.29-34.68,18.59l-49.36,109.38Z"/>
          <path class="cls-17" d="M596.15,315.82H84.22l.08-.19,49.36-109.38c8.42-18.66,14.54-18.66,34.8-18.66H511.91c20.26,0,26.37,0,34.8,18.66l49.44,109.57Zm-511.52-.26h511.11l-49.27-109.19c-8.35-18.51-14.43-18.51-34.56-18.51H168.46c-20.13,0-26.2,0-34.56,18.51l-49.27,109.19Z"/>
          <path class="cls-13" d="M350.44,252.32v-.04h0c0-1.6-1.1-3.07-2.89-4.14-1.87-1.12-4.47-1.82-7.36-1.82s-5.49,.7-7.36,1.82c-1.79,1.07-2.89,2.54-2.89,4.14h0v.02c0,1.59,1.11,3.05,2.89,4.12,1.87,1.12,4.47,1.82,7.36,1.82s5.49-.7,7.36-1.82c1.77-1.06,2.87-2.51,2.89-4.1m-27.4,41.2l-.18-.02c-.17-.02-.35-.04-.51-.06h0c-15.55-2.01-28.49-7.09-37.61-14.16-9.4-7.28-14.75-16.67-14.75-27,0-11.75,7.9-22.38,20.67-30.06,12.69-7.63,30.2-12.35,49.52-12.35s36.83,4.72,49.52,12.35c12.77,7.68,20.67,18.31,20.67,30.06,0,9.78-5.5,18.81-14.73,26.02-9.34,7.29-22.5,12.72-37.63,15.13h0c-.34,.06-.69,.09-1.05,.1-1.47,.06-2.91-.23-4.05-.76-1.22-.57-2.12-1.43-2.4-2.47-.04-.15-.07-.32-.08-.5v-.05s0-32.65,0-32.65c-.38,.31-.8,.6-1.26,.87-2.32,1.39-5.5,2.26-9,2.26s-6.68-.86-9-2.26c-.45-.27-.87-.56-1.26-.87v32.7c-.02,.18-.04,.34-.08,.49-.28,1.04-1.17,1.9-2.4,2.47-1.14,.53-2.58,.82-4.05,.76-.12,0-.24-.01-.36-.02h0Zm-1.83-24.17c.05,.09,.1,.19,.15,.28,.41,.89,.39,1.85-.13,2.76-.13,.23-.3,.47-.51,.7h0c-.95,1.06-2.49,1.78-4.21,2.1-.67,.12-1.36,.18-2.07,.17,.33,.84,.28,1.73-.2,2.58-.14,.24-.31,.48-.5,.7-.83,.93-2.13,1.6-3.6,1.96,5.2,1.98,10.99,3.46,17.16,4.32v-18.78c-.15,.33-.36,.65-.64,.97-.95,1.06-2.49,1.78-4.21,2.09h0c-.4,.08-.81,.13-1.23,.15Zm46.91,3.7c5-2.4,9.13-5.43,12.02-8.89,3-3.58,4.68-7.61,4.68-11.88,0-7.31-4.95-13.95-12.96-18.76-8.09-4.87-19.29-7.88-31.68-7.88s-23.59,3.01-31.68,7.88c-8.01,4.81-12.96,11.45-12.96,18.76,0,4.19,1.62,8.15,4.51,11.68,2.65,3.23,6.36,6.1,10.87,8.43,1.11,.57,1.46,.8,2.8,.94,.73,.08,1.48,.05,2.18-.08,1.11-.2,2.08-.64,2.64-1.27h0c.1-.11,.19-.24,.26-.36,.25-.44,.26-.9,.06-1.33-.13-.29-.36-.56-.67-.81-.43-.34-1.3-.66-1.89-.99-.6-.32-1.18-.66-1.74-1.01-.85-.52-1.65-1.07-2.39-1.64-2.48-1.89-4.46-4.03-5.8-6.36-1.31-2.26-2.02-4.68-2.02-7.21,0-6.05,4.05-11.5,10.6-15.44,6.47-3.89,15.38-6.29,25.21-6.29s18.74,2.4,25.21,6.29c6.55,3.94,10.6,9.4,10.6,15.44,0,1.97-.44,3.89-1.25,5.72-.84,1.87-2.08,3.65-3.66,5.28-1.06,1.1-2.28,2.13-3.63,3.1-1.19,.84-2.47,1.63-3.86,2.36,0,.01-.71,.29-.79,.33-.66,.34-1.11,.76-1.32,1.22-.2,.43-.18,.89,.06,1.33,.07,.12,.16,.24,.27,.36,.57,.63,1.53,1.07,2.64,1.27h0c.53,.09,1.09,.13,1.66,.11,.18,0,1.63-.17,2-.31Zm7.29,7.65c-6.53,2.96-14.11,5.12-22.34,6.23v2.82h0s.02,.1,.03,.16c.13,.48,.57,.88,1.19,1.17,.7,.33,1.61,.5,2.54,.47,.19,0,.39-.03,.6-.05,14.63-2.33,27.34-7.55,36.33-14.58,8.76-6.84,13.98-15.4,13.98-24.64,0-11.12-7.52-21.2-19.68-28.51-12.24-7.36-29.17-11.91-47.89-11.91s-35.65,4.55-47.89,11.91c-12.16,7.31-19.68,17.39-19.68,28.51,0,9.8,5.08,18.7,14,25.62,8.76,6.79,21.23,11.67,36.24,13.6h0c.24,.03,.46,.05,.67,.06,.94,.04,1.84-.14,2.54-.47,.62-.29,1.07-.7,1.19-1.18,.01-.06,.03-.11,.03-.16v-2.82c-8.15-1.1-15.66-3.23-22.14-6.14-.59-.26-1.15-.53-1.72-.81-3.19-1.55-6.11-3.3-8.71-5.21-8.3-6.13-13.27-13.96-13.27-22.5,0-9.85,6.62-18.76,17.32-25.19,10.61-6.38,25.26-10.33,41.42-10.33s30.8,3.95,41.42,10.33c10.7,6.43,17.32,15.34,17.32,25.19,0,8.54-4.98,16.38-13.29,22.51-2.66,1.97-5.67,3.75-8.97,5.33-.42,.2-.83,.39-1.25,.59Zm-.1-2.28c3.12-1.5,5.97-3.2,8.49-5.06,7.81-5.76,12.49-13.1,12.49-21.08,0-9.21-6.24-17.57-16.32-23.63-10.17-6.11-24.23-9.89-39.78-9.89s-29.62,3.78-39.78,9.89c-10.08,6.06-16.32,14.42-16.32,23.63,0,7.98,4.68,15.32,12.47,21.07,2.65,1.95,5.65,3.72,8.95,5.28,1.1,.32,2.31,.36,3.41,.16h0c1.11-.2,2.07-.64,2.64-1.27,.11-.12,.2-.25,.27-.36,.25-.44,.26-.9,.06-1.33-.21-.46-.66-.89-1.32-1.22-.62-.32-1.01-.51-1.65-.85-4.58-2.44-8.37-5.42-11.11-8.76-3.14-3.83-4.91-8.15-4.91-12.72,0-7.95,5.33-15.13,13.96-20.31,8.54-5.13,20.32-8.31,33.31-8.31s24.77,3.18,33.31,8.31c8.62,5.19,13.96,12.37,13.96,20.31,0,4.66-1.84,9.06-5.09,12.95-2.9,3.47-6.94,6.52-11.81,9-.16,.08-.61,.31-.76,.39-.66,.34-1.11,.76-1.32,1.22-.2,.43-.18,.89,.06,1.33,.07,.12,.16,.24,.27,.36h0c.56,.63,1.53,1.07,2.65,1.27h0c.69,.13,1.42,.16,2.15,.08,.71-.07,1.11-.17,1.71-.46Zm-13.07-11.4c1.22-.65,2.36-1.35,3.41-2.09,1.24-.88,2.35-1.83,3.31-2.83,1.42-1.47,2.54-3.07,3.29-4.75,.72-1.62,1.11-3.32,1.11-5.08,0-5.41-3.67-10.32-9.6-13.89-6.02-3.62-14.35-5.86-23.57-5.86s-17.56,2.24-23.57,5.86c-5.93,3.57-9.6,8.48-9.6,13.89,0,2.25,.63,4.41,1.79,6.41,1.21,2.1,3,4.04,5.26,5.75,.69,.53,1.43,1.03,2.2,1.51,.37,.23,.74,.45,1.12,.66,.74,.42,.83,.48,1.71,.65,.91,.17,1.86,.16,2.75,0h0c1.11-.2,2.07-.64,2.64-1.27,.43-.48,.55-.99,.41-1.48-.13-.43-.46-.85-.99-1.2-2.49-1.36-4.51-3.04-5.91-4.92-1.39-1.87-2.16-3.94-2.16-6.12,0-4.14,2.77-7.88,7.24-10.57,4.39-2.64,10.44-4.27,17.1-4.27s12.71,1.63,17.1,4.27c4.48,2.69,7.24,6.43,7.24,10.57,0,2.17-.77,4.24-2.14,6.1-1.4,1.9-3.43,3.58-5.93,4.94-.51,.34-.84,.75-.97,1.17-.15,.49-.03,1.01,.41,1.5,.57,.63,1.53,1.07,2.64,1.27h0c.48,.08,.98,.12,1.48,.12,.66,0,1.64-.14,2.22-.36Zm-9.17-.89v18.78c6.18-.87,11.96-2.35,17.16-4.32-1.47-.36-2.76-1.03-3.59-1.96h0c-.2-.22-.37-.46-.5-.7-.48-.85-.53-1.74-.2-2.58-.7,0-1.4-.05-2.07-.17h0c-1.73-.32-3.27-1.04-4.21-2.09-.2-.22-.37-.46-.5-.7-.51-.91-.54-1.87-.13-2.76,.04-.1,.09-.19,.15-.28-.42-.03-.83-.08-1.23-.15h0c-1.73-.32-3.27-1.04-4.21-2.09-.28-.31-.49-.64-.64-.97Zm0-13.81v11.35c.32-.72,.93-1.38,1.78-1.92h0s.02,0,.02,0c.25-.16,.51-.28,.76-.43,1.87-1.12,3.39-2.44,4.47-3.9,1.16-1.57,1.81-3.31,1.81-5.14,0-3.51-2.39-6.69-6.25-9.01-3.94-2.37-9.41-3.84-15.47-3.84s-11.52,1.47-15.47,3.84c-3.86,2.32-6.25,5.51-6.25,9.01,0,1.83,.65,3.57,1.82,5.15,1.12,1.5,2.7,2.86,4.65,3.99,.25,.15,.5,.27,.74,.43,.77,.52,1.32,1.15,1.63,1.82v-11.39c0-2.24,1.49-4.25,3.89-5.7,2.32-1.39,5.5-2.26,9-2.26s6.68,.86,9,2.26c2.4,1.44,3.89,3.46,3.89,5.7v.05Z"/>
          <g>
            <path class="cls-2" d="M280.15,338.1h-15.45c-.42,0-.82,.17-1.14,.46-.32,.29-.55,.67-.61,1.09l-2.02,15.45s0,.11,0,.18h0c0,.29,.1,.55,.27,.74,.17,.19,.4,.32,.68,.36h0s.1,0,.18,0h15.45c.42,0,.82-.18,1.14-.46,.32-.29,.55-.67,.61-1.09l2.02-15.45s0-.11,0-.18h0c0-.29-.1-.55-.27-.74-.17-.19-.4-.32-.68-.36-.04,0-.1,0-.18,0m-15.45-2.03h15.45c.13,0,.28,.01,.44,.03,.79,.1,1.47,.48,1.95,1.03,.48,.55,.76,1.27,.76,2.07h0c0,.13-.01,.28-.03,.45l-2.02,15.45c-.12,.92-.6,1.75-1.27,2.34-.68,.6-1.56,.97-2.48,.97h-15.45c-.13,0-.27-.01-.43-.03h0c-.79-.1-1.47-.48-1.95-1.03-.48-.55-.76-1.27-.76-2.07h0c0-.13,.01-.28,.03-.45l2.02-15.45c.12-.92,.6-1.75,1.27-2.34,.68-.6,1.56-.97,2.48-.97Z"/>
            <path class="cls-2" d="M400.22,336.07h15.45c.92,0,1.8,.37,2.48,.97,.67,.6,1.15,1.42,1.27,2.34l2.02,15.45c.02,.17,.03,.32,.03,.45h0c0,.8-.28,1.52-.76,2.07-.48,.55-1.16,.93-1.95,1.03h0c-.16,.02-.31,.03-.43,.03h-15.45c-.92,0-1.8-.37-2.48-.97-.67-.6-1.15-1.42-1.27-2.34l-2.02-15.45c-.02-.17-.03-.32-.03-.45h0c0-.8,.28-1.52,.76-2.07,.48-.55,1.16-.93,1.95-1.03,.16-.02,.31-.03,.44-.03m15.45,2.03h-15.45c-.08,0-.14,0-.18,0-.28,.04-.52,.17-.68,.36-.17,.19-.27,.45-.27,.74h0c0,.08,0,.14,0,.18l2.02,15.45c.05,.42,.28,.81,.61,1.09,.32,.28,.72,.46,1.14,.46h15.45c.08,0,.14,0,.18,0h0c.28-.04,.52-.17,.68-.36,.17-.19,.27-.45,.27-.74h0c0-.08,0-.14,0-.18l-2.02-15.45c-.05-.42-.28-.81-.61-1.09-.32-.28-.72-.46-1.14-.46Z"/>
            <path class="cls-2" d="M364.28,338.1h-63.63c-.42,0-.82,.18-1.14,.46-.32,.29-.55,.67-.61,1.09l-2.02,15.45s0,.11,0,.18c0,.29,.1,.55,.26,.74,.17,.19,.4,.32,.68,.36,.04,0,.1,0,.18,0h84.4c.08,0,.14,0,.18,0,.28-.04,.52-.17,.68-.36,.17-.19,.26-.45,.26-.74,0-.08,0-.14,0-.18l-2.02-15.45c-.05-.42-.28-.81-.61-1.09-.32-.28-.72-.46-1.14-.46h-15.45Zm-63.63-2.03h79.09c.92,0,1.8,.37,2.48,.97,.67,.6,1.15,1.42,1.27,2.34l2.02,15.45c.02,.17,.03,.32,.03,.45,0,.8-.28,1.52-.76,2.07-.48,.55-1.16,.93-1.95,1.03-.16,.02-.31,.03-.44,.03h-84.4c-.13,0-.28-.01-.44-.03-.79-.1-1.47-.48-1.95-1.03-.48-.55-.76-1.27-.76-2.07,0-.13,.01-.28,.03-.45l2.02-15.45c.12-.92,.6-1.75,1.27-2.34,.68-.6,1.56-.97,2.48-.97Z"/>
            <path class="cls-21" d="M412.54,345.03c-.84-.84-2-1.36-3.27-1.36s-2.44,.52-3.27,1.36c-.84,.84-1.36,2-1.36,3.27s.52,2.44,1.36,3.27c.84,.84,2,1.36,3.27,1.36s2.44-.52,3.27-1.36c.84-.84,1.36-2,1.36-3.27s-.52-2.44-1.36-3.27m-3.27-3.38c1.84,0,3.5,.75,4.71,1.95,1.2,1.2,1.95,2.87,1.95,4.71s-.75,3.5-1.95,4.71c-1.2,1.2-2.87,1.95-4.71,1.95s-3.5-.75-4.71-1.95c-1.2-1.2-1.95-2.87-1.95-4.71s.75-3.5,1.95-4.71c1.2-1.2,2.87-1.95,4.71-1.95Z"/>
            <path class="cls-21" d="M408.17,340.54c0-.4,.49-.73,1.1-.73s1.1,.33,1.1,.73v6.2c0,.4-.49,.73-1.1,.73s-1.1-.32-1.1-.73v-6.2Z"/>
            <path class="cls-2" d="M274.37,343.97c-.84-.84-2-1.36-3.27-1.36s-2.44,.52-3.27,1.36c-.84,.84-1.36,2-1.36,3.27s.52,2.44,1.36,3.27c.84,.84,2,1.36,3.27,1.36s2.44-.52,3.27-1.36c.84-.84,1.36-2,1.36-3.27s-.52-2.44-1.36-3.27m-3.27-3.38c1.84,0,3.5,.75,4.71,1.95,1.2,1.2,1.95,2.87,1.95,4.71s-.75,3.5-1.95,4.71c-1.2,1.2-2.87,1.95-4.71,1.95s-3.5-.75-4.71-1.95c-1.2-1.2-1.95-2.87-1.95-4.71s.75-3.5,1.95-4.71c1.2-1.2,2.87-1.95,4.71-1.95Z"/>
            <path class="cls-2" d="M270.55,343.73c0-.3,.25-.55,.55-.55s.55,.25,.55,.55v3.51c0,.3-.25,.55-.55,.55s-.55-.25-.55-.55v-3.51Z"/>
            <path class="cls-2" d="M274.61,346.69c.3,0,.55,.25,.55,.55s-.25,.55-.55,.55h-3.51c-.3,0-.55-.25-.55-.55s.25-.55,.55-.55h3.51Z"/>
            <path class="cls-2" d="M321.52,346.14c.55,0,.99,.49,.99,1.1s-.44,1.1-.99,1.1h-8.45c-.55,0-.99-.49-.99-1.1s.44-1.1,.99-1.1h8.45Z"/>
            <path class="cls-2" d="M361.98,343.02c0-.55,.49-.99,1.1-.99s1.1,.44,1.1,.99v8.45c0,.55-.49,.99-1.1,.99s-1.1-.44-1.1-.99v-8.45Z"/>
            <path class="cls-2" d="M367.3,346.14c.55,0,.99,.49,.99,1.1s-.44,1.1-.99,1.1h-8.45c-.55,0-.99-.49-.99-1.1s.44-1.1,.99-1.1h8.45Z"/>
          </g>
        </g>
        <g>
          <path class="cls-16" d="M117.42,131.24c-28.65-11.2-57.92-22.55-88.89-25.02-9.27-.74-20-.1-25.61,6.53-6.15,7.27-2.02,19.19,7.07,23.5,6.6,3.13,14.4,2.79,21.79,3.33,8.34,.62,16.52,2.46,24.65,4.34,39.99,9.26,79.65,19.72,118.9,31.35,5.15,1.53,11.76,2.74,15.13-1.03,10.02-11.2-15.32-20.43-22.11-23.09-16.98-6.64-33.95-13.28-50.93-19.91Z"/>
          <path class="cls-20" d="M154.44,166.21c-43.75-22.79-93.68-29.76-141.98-39.78-3.8-.79-7.75-1.74-10.61-4.53-.57-.56-1.09-1.33-1.61-2.18-.62,6.44,3.36,13.52,9.92,16.63,6.6,3.13,14.4,2.79,21.79,3.33,8.34,.62,16.52,2.45,24.65,4.34,31.9,7.39,63.6,15.54,95.05,24.44,.96-.71,1.89-1.46,2.78-2.25Z"/>
          <path class="cls-22" d="M145.35,173.87c-1.26-.83-2.54-1.7-3.42-2.91-.99-1.37-1.41-3.08-1.5-4.77-.38-7.87,6.42-14.72,14.04-16.73,7.61-2.02,15.71-.22,23.16,2.36,7.24,2.5,14.23,5.73,20.71,9.82,6.09,3.85,12.34,10.02,10.93,17.09-1.23,6.16-7.69,9.67-13.64,11.7-19.54,6.69-34.47-6.17-50.27-16.55Z"/>
          <path class="cls-16" d="M527.21,210.92c-1.49,23.64-14.92,44.37-34.74,53.43-26.35,12.04-72.7,23.97-152.98,23.97s-125.24-11.39-150.61-23.06c-18.67-8.58-31.7-27.62-34.26-49.77l-3.19-27.63,377.46-3.62-1.68,26.67Z"/>
          <path class="cls-20" d="M527.21,198.61c-1.49,23.64-14.92,44.37-34.74,53.43-26.35,12.04-72.8,29.94-153.08,29.94s-125.14-17.36-150.51-29.03c-18.67-8.58-31.7-27.62-34.26-49.77l-1.77-15.34h-1.42s3.19,27.64,3.19,27.64c2.56,22.15,15.59,41.19,34.26,49.77,25.38,11.67,70.53,28.83,150.51,28.83s126.73-17.69,153.08-29.73c19.83-9.06,33.26-29.79,34.74-53.43l1.68-26.67h-.77s-.9,14.37-.9,14.37Z"/>
          <path class="cls-11" d="M528.88,184.24c0,25.68-68.44,50.12-189.21,50.12-105.87,0-188.25-20.82-188.25-46.5s82.39-46.5,188.25-46.5,189.21,17.2,189.21,42.88Z"/>
          <ellipse class="cls-18" cx="339.67" cy="186.7" rx="180.89" ry="42.61"/>
          <path class="cls-19" d="M343.37,180.42c-73.9,0-137.45,10.44-165.52,25.4,29.74,13.93,90.98,23.49,161.7,23.49s137.45-10.44,165.52-25.4c-29.74-13.93-90.98-23.49-161.7-23.49Z"/>
          <g>
            <path class="cls-9" d="M325.29,229.52c5-2.96,10.14-5.75,14.24-9.84,5-4.99,8.19-12.69,5.43-19.19-2.52-5.95-9.04-9.04-15.21-10.96-17.14-5.33-35.84-5.55-53.11-.61-10.29,2.94-20.2,7.69-30.88,8.54-5.66,.45-11.35-.21-17.03-.18-13.28,.06-22.26,6.7-24.55,17.91,30.11,8.06,72.94,13.42,121.1,14.33Z"/>
            <path class="cls-9" d="M365.39,229.25c51.96-1.72,96.83-8.63,124.85-18.44-.53-.7-1.11-1.37-1.71-1.99-6.53-6.68-15.74-10.01-24.82-12.2-12.54-3.01-25.5-4.24-38.38-3.62-6.97,.33-14.19,1.16-20.75-1.21-3.13-1.13-5.98-2.96-9.11-4.1-4.89-1.79-10.23-1.84-15.44-1.87-8.36-.04-17.58,.22-23.76,5.85-1.42,1.29-2.66,2.92-2.96,4.82-.31,1.97,.42,3.96,1.4,5.7,2.43,4.29,6.37,7.52,9.32,11.47,2.95,3.96,4.88,9.41,2.61,13.79-.34,.66-.76,1.25-1.23,1.79Z"/>
          </g>
          <g>
            <path class="cls-10" d="M241.67,189.71c2.88-2.88,6.84-4.36,10.76-5.46,14.33-4.03,29.8-3.94,44.08,.26,2.51,.74,5.07,1.65,6.95,3.48,1.6,1.55,2.58,3.65,3.25,5.78,.69,2.17,1.1,4.51,.57,6.73-.76,3.2-3.4,5.7-6.39,7.07-2.99,1.37-6.32,1.78-9.6,2.07-10.42,.95-20.92,.99-31.34,.14-5.25-.43-10.5-1.06-15.69-1.97-3.43-.61-5.48-1.36-6.31-5-1.05-4.61,.38-9.75,3.73-13.1Z"/>
            <path class="cls-14" d="M306.98,194.1c-.67-2.13-1.64-4.23-3.25-5.78-1.88-1.82-4.44-2.74-6.95-3.48-2.76-.81-5.57-1.47-8.41-1.97,2.22,.7,4.42,1.6,6.08,3.21,1.6,1.56,2.58,3.65,3.25,5.78,.69,2.17,1.1,4.51,.57,6.73-.76,3.2-3.4,5.7-6.39,7.07-2.99,1.37-6.32,1.77-9.6,2.07-10.42,.95-20.92,.99-31.34,.14-3.56-.29-7.11-.68-10.65-1.18,1.06,.77,2.46,1.13,4.24,1.44,5.19,.92,10.44,1.54,15.69,1.97,10.43,.85,20.93,.81,31.34-.14,3.28-.3,6.61-.7,9.6-2.07,2.99-1.37,5.63-3.87,6.39-7.07,.53-2.22,.12-4.56-.57-6.73Z"/>
            <path class="cls-3" d="M252.02,189.08c-2.58,1.26-5.14,2.85-6.64,5.29-1.34,2.17-1.51,5.4,.5,6.97,1.96,1.53,4.94,.7,6.8-.95,1.86-1.65,3.03-3.93,4.67-5.8,3.5-4,8.82-5.8,13.9-7.34,.66-.2,1.41-.48,1.64-1.13,1.12-3.17-6.87-1.31-8.08-1.1-4.43,.76-8.74,2.09-12.78,4.06Z"/>
          </g>
          <g>
            <path class="cls-10" d="M391.23,199.03c2.88-2.78,6.84-4.21,10.76-5.27,14.33-3.89,29.8-3.8,44.08,.26,2.51,.71,5.07,1.59,6.95,3.35,1.6,1.5,2.58,3.52,3.25,5.58,.69,2.1,1.1,4.35,.57,6.49-.76,3.09-3.4,5.5-6.39,6.82-2.99,1.32-6.32,1.71-9.6,2-10.42,.92-20.92,.96-31.34,.13-5.25-.41-10.5-1.02-15.69-1.9-3.43-.58-5.48-1.31-6.31-4.82-1.05-4.45,.38-9.4,3.73-12.63Z"/>
            <path class="cls-14" d="M456.55,203.26c-.67-2.05-1.64-4.08-3.25-5.58-1.88-1.76-4.44-2.64-6.95-3.35-2.76-.78-5.57-1.42-8.4-1.9,2.22,.67,4.42,1.54,6.08,3.1,1.6,1.5,2.58,3.52,3.25,5.58,.69,2.1,1.1,4.35,.57,6.49-.76,3.09-3.4,5.5-6.39,6.82-2.99,1.32-6.32,1.71-9.6,2-10.42,.92-20.92,.96-31.34,.13-3.56-.28-7.11-.65-10.65-1.13,1.06,.74,2.46,1.09,4.24,1.39,5.19,.88,10.44,1.49,15.69,1.9,10.43,.82,20.93,.78,31.34-.13,3.28-.29,6.61-.68,9.6-2,2.99-1.32,5.63-3.73,6.39-6.82,.53-2.14,.12-4.39-.57-6.49Z"/>
            <path class="cls-3" d="M401.59,198.42c-2.58,1.21-5.14,2.75-6.64,5.1-1.34,2.1-1.51,5.21,.5,6.72,1.96,1.48,4.94,.67,6.8-.92,1.86-1.59,3.03-3.79,4.67-5.59,3.5-3.85,8.82-5.59,13.9-7.08,.66-.19,1.41-.46,1.64-1.09,1.12-3.05-6.87-1.26-8.08-1.06-4.43,.73-8.74,2.01-12.78,3.91Z"/>
          </g>
          <path class="cls-15" d="M289.3,227.96c11.56,.79,23.6,1.32,35.99,1.56,5-2.96,10.14-5.75,14.24-9.84,5-4.99,8.19-12.69,5.43-19.19-1.01-2.39-2.67-4.31-4.69-5.89,1.11,2.68,.89,6.1-.23,8.89-3.09,7.73-10.87,12.47-18.49,15.8-10.24,4.47-21.16,7.39-32.26,8.67Z"/>
          <path class="cls-4" d="M373.27,189.5c-3.02,.77-6.09,1.82-8.35,3.96-2.26,2.15-3.48,5.65-2.17,8.48,.61,1.3,1.67,2.33,2.75,3.26,2.14,1.85,4.46,3.48,6.93,4.87,1.27,.72,2.64,1.38,4.1,1.46,1.46,.07,3.05-.58,3.68-1.9,.64-1.36,.13-2.98-.59-4.29-.73-1.31-1.68-2.55-1.97-4.03-.46-2.33,.93-4.74,2.9-6.07,1.97-1.33,4.41-1.76,6.78-1.9,1.3-.08,2.68-.1,3.76-.83,1.08-.73,1.56-2.48,.57-3.32-3.8-3.21-14.32-.74-18.38,.3Z"/>
          <path class="cls-1" d="M213.89,203.87c-1.95,1.3-3.88,3.39-3.36,5.68,.3,1.31,1.4,2.34,2.64,2.86,1.24,.53,2.61,.63,3.96,.65,.24,0,.5,0,.71-.11,.33-.17,.48-.56,.62-.9,1.82-4.44,6.35-7.25,10.98-8.52,1.45-.4,3.05-.75,3.96-1.94,.25-.32,.43-.71,.43-1.11,0-.7-.57-1.29-1.22-1.54-2.64-1.03-7.04,.43-9.65,1.09-3.2,.81-6.32,2.02-9.08,3.85Z"/>
          <path class="cls-5" d="M231.54,141.93c5.94-16.97,17.35-33.04,15.89-50.96-.93-11.43-7.11-21.9-8.26-33.31-1.03-10.23,2.24-20.82,8.87-28.67-5.53,7.46-4.21,18.06-.48,26.56,3.73,8.5,9.53,16.02,12.76,24.73,5.01,13.49,3.12,29.33-4.91,41.27-4,5.94-9.37,10.9-13.05,17.05-8.35,13.91-2.91,24.2-.86,38.2-15.38-1.14-13.21-25.55-9.95-34.85Z"/>
          <path class="cls-5" d="M302.01,147.48c-1.43-7.51-.22-15.25,1.33-22.74,1.89-9.14,4.28-18.17,7.16-27.05,2.07-6.38,4.42-12.86,4.21-19.57-.3-9.93-6.09-18.73-9.36-28.1-5.74-16.42-3.43-35.45,6.08-50.02-5.19,9.58-6.37,21.26-3.21,31.69,2.63,8.7,8.02,16.24,12.42,24.2,5.49,9.95,9.56,21.17,8.53,32.48-.85,9.29-5.04,17.9-9.2,26.24-4.16,8.35-8.44,16.89-9.48,26.16-1.04,9.28,1.8,18.86,9.22,24.83-9.65,.67-16.1-9.76-17.7-18.13Z"/>
          <path class="cls-5" d="M372.82,138.38c-1.3-10.41-5.69-20.18-7.7-30.48-2.01-10.3-1.09-22.19,6.49-29.44-4.61,6.59-3.33,15.7-.13,23.08,3.2,7.38,8.1,14,10.59,21.65,3.19,9.79,2.1,20.8-2.51,30.01-4.49,8.98-12.4,16.71-21.61,20.77,9.46-10.18,16.71-20.9,14.87-35.59Z"/>
          <path class="cls-5" d="M441.84,135.12c2.09-6.71,6.26-12.54,9.66-18.68,3.41-6.15,6.14-13.15,4.94-20.07,2.76,6.6,2.95,14.23,.52,20.96-1.38,3.82-3.55,7.3-5.29,10.97-7.64,16.14-5.78,34.14,2.3,49.62-14.7-5.39-16-30.36-12.14-42.79Z"/>
        </g>
      </g>
    </g>
  </g>
</svg>