<?xml version="1.0" encoding="UTF-8"?>
<svg id="Layer_2" data-name="Layer 2" xmlns="http://www.w3.org/2000/svg" viewBox="0 0 682 653">
  <defs>
    <style>
      .cls-1, .cls-2, .cls-3 {
        fill: #fff;
      }

      .cls-4 {
        fill: #c22c22;
      }

      .cls-5 {
        fill: #76c0bf;
      }

      .cls-6 {
        fill: #c1e3f8;
      }

      .cls-7 {
        fill: #f7b584;
      }

      .cls-8 {
        fill: #ffb648;
      }

      .cls-9 {
        fill: #86d1cd;
      }

      .cls-10 {
        fill: #002644;
      }

      .cls-11 {
        fill: #49918a;
      }

      .cls-12 {
        fill: #90c5ec;
      }

      .cls-13 {
        fill: #638dce;
      }

      .cls-14 {
        fill: #ff9843;
      }

      .cls-15 {
        fill: #2c3a64;
      }

      .cls-2 {
        font-family: Montserrat-Bold, Montserrat;
        font-size: 9.57px;
      }

      .cls-16 {
        fill: #ed7d2b;
      }

      .cls-3 {
        opacity: .6;
      }

      .cls-17 {
        fill: #74b7e5;
      }

      .cls-18 {
        fill: #c46220;
      }

      .cls-19 {
        fill: #359acb;
      }

      .cls-20 {
        fill: #aae2df;
      }

      .cls-21 {
        fill: #2b478b;
      }

      .cls-22 {
        fill: #005374;
      }
    </style>
  </defs>
  <g id="Layer_1-2" data-name="Layer 1">
    <g>
      <path class="cls-3" d="M83.2,484.19C21.72,413.7-16.69,314.53,9.88,221.29,31.39,145.81,105.24,82.57,186.27,90.93c67.39,6.96,108.29,67.27,162.6,100.31,32.93,20.03,70.61,32.04,109.15,33.45,69.87,2.56,140.48-34.03,189.46,37.24,43.85,63.8,13.03,153.74-29.74,209.5-45.51,59.34-114.03,99.02-185.44,118.64-48.66,13.37-100.41,17.94-150.41,10.12-74.45-11.65-146.25-55.85-198.71-115.99Z"/>
      <path class="cls-1" d="M540.47,210.66c-5.87,1.4-12.45-.8-16.31-5.44-3.86-4.64-4.82-11.51-2.37-17.03,2.44-5.52,8.17-9.43,14.2-9.69-.13-5.52,6.03-10.03,11.42-8.87,.72-7.75,6.97-14.57,14.5-16.56,7.53-1.99,16.14,1.17,20.59,7.56,2.14-2.69,7.46-2.64,9.31,.26,4.53-6.94,12.91-10.68,21.1-9.47,8.19,1.21,15.42,7.5,17.74,15.45,1.83-1.3,4.54-1.5,6.54-.48,2,1.02,3.36,3.19,3.39,5.43,7.92-3.37,18.44-.09,23.82,6.62,5.39,6.71,5.67,17.04,.67,24.04-5,7-14.86,10.07-22.96,7.15-1.69,3.47-5.27,5.47-9.1,5.89-3.83,.42-7.83-1.26-10.22-4.29-3.1,5.86-9.25,9.98-15.83,10.7-6.59,.71-13.45-2.03-17.74-7.08-1,2.49-3.33,4.19-5.99,4.53-2.66,.34-5.46-.84-7.06-3-5.12,4.61-12.56,6.66-19.37,5.64-6.81-1.02-12.78-5.48-16.33-11.38Z"/>
      <path class="cls-1" d="M77.38,90.25c-5.4,2.65-12.32,2.34-17.07-1.35-4.75-3.69-6.73-10.79-4.01-16.15,2.73-5.36,10.22-7.87,15.36-4.75-1.93-2.33-1.06-6.17,.67-8.65,1.73-2.48,5.18-3.6,8.03-2.59,1.26-10.15,9.36-19.31,19.22-22.05,9.86-2.73,21.19,1,27.49,9.05,1.49-2.67,4.55-4.52,7.59-4.88,3.04-.35,6.22,.83,8.29,3.09,4.88-5.06,12.24-7.5,19.18-6.4,6.94,1.09,13.22,5.74,16.31,12.05,3.36-2.26,8.47-1.14,10.67,2.26,5.28-3.02,11.89-2.89,17.25-.02,5.36,2.88,9.06,8.63,9.47,14.7,4.84-.36,10.54,3.03,12.07,7.63,1.53,4.6-.43,10.12-4.52,12.73-4.09,2.61-9.92,2.06-13.45-1.27-1.53,5.04-6.13,9.3-11.11,11.02-4.98,1.72-10.77,.9-15.08-2.13-4.25,8.3-13.26,13.74-22.52,14.87-9.25,1.13-18.96-2.6-25.08-9.64-1.48,2.5-5.14,3.42-8.05,3.49s-5.8-1.46-7.39-3.9c-5.2,5.58-15.22,5.24-20.55-.21-3.1,2.43-7.5,2.69-11.36,1.91-3.86-.78-9.5-5.38-11.41-8.82Z"/>
      <g>
        <g>
          <polygon class="cls-5" points="195.58 652.66 158.88 652.66 173.33 200.76 181.13 200.76 195.58 652.66"/>
          <path class="cls-12" d="M182.07,202.57h-9.69c-.95,0-1.73-1.19-1.74-2.67v-2.79c-.02-1.48,.75-2.69,1.71-2.69h9.75c.96,0,1.73,1.21,1.73,2.69v2.79c-.02,1.47-.8,2.67-1.76,2.67Z"/>
        </g>
        <g>
          <polygon class="cls-5" points="163.16 652.66 133.06 652.66 144.91 282.05 151.31 282.05 163.16 652.66"/>
          <path class="cls-12" d="M152.08,283.53h-7.95c-.78,0-1.42-.98-1.43-2.19v-2.29c-.02-1.22,.62-2.21,1.4-2.21h8c.79,0,1.42,.99,1.42,2.21v2.29c-.02,1.21-.66,2.19-1.44,2.19Z"/>
        </g>
      </g>
      <path class="cls-20" d="M555.72,388.95c-.53-2.48-1.04-4.97-1.55-7.45-.35-1.69-.69-3.4-1.03-5.1-.68-3.43-1.35-6.86-1.99-10.3-.41-2.16-.81-4.34-1.2-6.51-.28-1.49-.55-2.98-.81-4.48-.25-1.41-.51-2.83-.75-4.25-.57-3.21-1.11-6.44-1.64-9.66-2.08-.31-4.17-.6-6.25-.87-.27-1.59-.55-3.18-.81-4.77-24.18-3.64-48.35-3.64-72.54,0-.26,1.59-.54,3.18-.81,4.77-2.08,.27-4.16,.55-6.25,.87-.54,3.26-1.09,6.51-1.66,9.76-.24,1.42-.5,2.85-.75,4.27-.26,1.5-.54,2.99-.81,4.49-.39,2.17-.8,4.35-1.21,6.52-.64,3.44-1.32,6.88-2,10.31-.33,1.71-.67,3.42-1.02,5.11-.51,2.5-1.02,4.98-1.55,7.47-19,89.99-49.18,176.49-89.55,259.83h283.77c-40.39-83.39-70.59-169.95-89.59-260Z"/>
      <g>
        <g>
          <path class="cls-1" d="M501.65,86.73c-3.38,6.17-9.57,10.72-16.47,12.1-6.9,1.38-14.7-.45-20.2-4.84-6.02,10.67-17.39,18.14-29.58,19.43-12.18,1.29-23.94-3.29-32.07-12.47-3.4,4.68-9.16,7.54-14.94,7.43-5.78-.12-11.89-2.9-15.09-7.72-1.29,8.05-8.13,14.89-16.25,15.64,1.55,3.75,1.12,8.25-1.12,11.64-2.24,3.38-6.34,5.57-10.4,5.62,2.79,3.45,3.98,8.15,3.15,12.5-.82,4.36-3.64,8.3-7.5,10.49-3.68,2.09-8.07,2.57-12.3,2.46-3.95-.1-8.05-.74-11.27-3.03-3.5-2.48-5.55-6.72-5.88-11-.33-4.28,.92-8.58,2.98-12.34-4.4,.96-9.02-.94-11.49-4.7-2.48-3.76-2.37-9.05,.25-12.71-6.11-7.14-8.18-17.73-5.89-26.84,2.29-9.11,9.2-16.93,17.96-20.33-2.61-13.01,2.7-27.22,13.46-34.99,10.76-7.77,26.1-8.6,37.63-2.03,1.55-4.85,6.28-8.85,11.21-10.1,4.93-1.25,10.47,.21,14.14,3.74,8.74-12.71,22.26-21.32,37.47-23.9,15.21-2.57,31.41,1.27,43.84,10.4,4.68-3.36,12.71-3.15,18.28-1.67,5.57,1.48,10.4,5.54,12.8,10.78,2.84-1.4,6.54-.83,8.69,1.49,2.16,2.32,2.57,6.08,.97,8.81,5.48-.6,11.59,1.88,15.04,6.18,3.46,4.29,4.55,10.38,2.79,15.61,4.93-.4,10.07,2.27,12.03,6.81,1.96,4.54,.71,10.27-2.96,13.58-3.67,3.31-9.5,3.96-13.81,1.55-.05,5.55-2.84,11.19-7.69,13.88-4.85,2.69-13.07,1.44-17.8-1.46Z"/>
          <path class="cls-1" d="M285.11,108.25c-9.3,0-9.31,14.45,0,14.45s9.31-14.45,0-14.45Z"/>
          <path class="cls-1" d="M286.26,91.24c-5.81,0-5.82,9.03,0,9.03s5.82-9.03,0-9.03Z"/>
          <path class="cls-1" d="M524.86,12.66c-5.81,0-5.82,9.03,0,9.03s5.82-9.03,0-9.03Z"/>
          <path class="cls-1" d="M540.86,19.38c-9.3,0-9.31,14.45,0,14.45s9.31-14.45,0-14.45Z"/>
          <path class="cls-1" d="M364.84,9.52c-5.81,0-5.82,9.03,0,9.03s5.82-9.03,0-9.03Z"/>
        </g>
        <g>
          <path class="cls-19" d="M391.52,168.12c-40.94-5.48-81.89-5.41-122.84,.16,.34-1.9,.68-3.81,1.01-5.71,.76-4.34,1.51-8.69,2.23-13.05,38.8-5.82,77.6-5.82,116.39,0,.71,4.31,1.44,8.62,2.2,12.92,.33,1.9,.67,3.8,1.01,5.69Z"/>
          <path class="cls-11" d="M557.79,650.33H102.47c64.77-133.18,113.2-271.42,143.69-415.23,.85-3.98,1.68-7.94,2.49-11.93,.56-2.71,1.11-5.43,1.64-8.17,1.1-5.48,2.18-10.97,3.21-16.47,.66-3.48,1.32-6.95,1.94-10.43,.44-2.4,.88-4.77,1.3-7.17,.41-2.27,.81-4.56,1.21-6.83,.91-5.18,1.8-10.38,2.66-15.59,46.36-6.95,92.7-6.95,139.04,0,.85,5.15,1.72,10.3,2.63,15.44,.39,2.27,.8,4.54,1.21,6.79,.42,2.4,.85,4.77,1.3,7.15,.63,3.48,1.27,6.95,1.93,10.41,1.03,5.5,2.1,10.97,3.19,16.45,.55,2.72,1.1,5.45,1.66,8.16,.81,3.98,1.64,7.95,2.49,11.91,30.48,143.91,78.93,282.24,143.75,415.5Z"/>
          <g>
            <path class="cls-16" d="M403.48,180.75c-48.91-6.54-97.83-6.47-146.74,.19,.41-2.27,.81-4.56,1.21-6.83,.91-5.18,1.8-10.38,2.66-15.59,46.36-6.95,92.7-6.95,139.04,0,.85,5.15,1.72,10.3,2.63,15.44,.39,2.27,.8,4.54,1.21,6.79Z"/>
            <path class="cls-16" d="M406.7,198.31c-51.07-7.12-102.14-7.03-153.2,.22,.66-3.48,1.32-6.95,1.94-10.43,49.78-6.61,99.55-6.68,149.34-.2,.63,3.48,1.27,6.95,1.93,10.41Z"/>
          </g>
        </g>
      </g>
      <g>
        <g>
          <path class="cls-15" d="M143.5,645.52c-.62,0-1.14-.48-1.17-1.11L113.03,119.56h-14.84l-29.3,524.85c-.04,.65-.55,1.16-1.24,1.11-.65-.04-1.14-.59-1.11-1.24L95.9,118.32c.04-.62,.55-1.11,1.17-1.11h17.06c.62,0,1.14,.49,1.17,1.11l29.36,525.95c.04,.65-.46,1.2-1.11,1.24-.02,0-.05,0-.07,0Z"/>
          <path class="cls-15" d="M68.85,625.13c-.45,0-.88-.26-1.07-.69-.26-.59,0-1.29,.59-1.55l69.71-31.2-65.7-41.31c-.35-.22-.55-.6-.55-1.01,0-.41,.22-.79,.57-1l61.4-36.54-57.33-34.24c-.35-.21-.57-.59-.57-1,0-.41,.2-.79,.55-1.01l53.56-33.54-49.8-32.19c-.31-.2-.51-.55-.54-.92-.02-.37,.14-.74,.43-.97l46.24-37.72-42.07-35.48c-.26-.22-.42-.55-.42-.89,0-.34,.15-.67,.41-.9l38.2-32.77-34.61-29.76c-.28-.24-.43-.59-.41-.95,.02-.36,.2-.7,.5-.9l31.2-21.96-28.81-17.8c-.33-.2-.53-.55-.55-.93-.02-.38,.14-.75,.44-.99l26.86-21.23-24.51-18.59c-.29-.22-.46-.56-.46-.92,0-.36,.16-.71,.44-.93l22.38-17.79-20.41-15.08c-.29-.22-.47-.56-.48-.92,0-.36,.16-.71,.44-.94l18.81-15.08-17.04-16.2c-.47-.45-.49-1.19-.04-1.66,.45-.47,1.19-.49,1.66-.04l18.02,17.12c.25,.23,.38,.56,.36,.9-.01,.34-.17,.65-.44,.87l-18.67,14.96,20.42,15.08c.29,.22,.47,.56,.48,.92,0,.37-.16,.71-.44,.94l-22.4,17.8,24.51,18.59c.29,.22,.46,.56,.46,.92,0,.36-.16,.71-.45,.93l-26.73,21.13,28.9,17.86c.34,.21,.54,.57,.56,.96,.01,.39-.18,.77-.5,1l-31.42,22.11,34.51,29.67c.26,.22,.41,.55,.41,.89s-.15,.67-.41,.89l-38.19,32.76,42.1,35.51c.27,.22,.42,.56,.42,.91,0,.35-.16,.68-.43,.9l-46.09,37.6,49.99,32.31c.34,.22,.54,.59,.54,1,0,.4-.21,.77-.55,.99l-53.5,33.5,57.38,34.27c.35,.21,.57,.59,.57,1.01s-.22,.8-.57,1.01l-61.44,36.56,65.93,41.46c.37,.23,.58,.64,.55,1.08-.03,.43-.3,.81-.69,.99l-71.72,32.1c-.16,.07-.32,.1-.48,.1Z"/>
          <path class="cls-15" d="M142.36,625.13c-.16,0-.32-.03-.48-.1l-71.72-32.1c-.4-.18-.66-.56-.69-.99-.03-.43,.18-.85,.55-1.08l65.93-41.46-61.44-36.56c-.35-.21-.57-.59-.57-1.01s.22-.8,.57-1.01l57.37-34.27-53.5-33.5c-.34-.21-.55-.59-.55-.99,0-.4,.2-.78,.54-1l49.99-32.31-46.09-37.6c-.27-.22-.43-.55-.43-.9,0-.35,.15-.68,.42-.91l42.1-35.51-38.19-32.76c-.26-.22-.41-.55-.41-.89s.15-.67,.41-.89l34.51-29.67-31.42-22.11c-.32-.23-.51-.6-.5-1,.01-.39,.22-.76,.56-.96l28.9-17.86-26.73-21.13c-.28-.23-.45-.57-.45-.93,0-.36,.18-.7,.46-.92l24.51-18.59-22.4-17.8c-.29-.23-.45-.57-.44-.94,0-.37,.18-.71,.48-.92l20.42-15.08-18.67-14.96c-.27-.21-.43-.53-.44-.87-.01-.34,.12-.67,.36-.9l18.02-17.12c.47-.45,1.21-.43,1.66,.04,.45,.47,.43,1.21-.04,1.66l-17.04,16.2,18.81,15.08c.29,.23,.45,.58,.44,.94,0,.36-.18,.7-.48,.92l-20.41,15.08,22.38,17.79c.28,.23,.45,.57,.44,.93,0,.36-.18,.7-.46,.92l-24.51,18.59,26.86,21.23c.3,.24,.47,.61,.44,.99-.02,.38-.23,.73-.55,.93l-28.81,17.8,31.2,21.96c.3,.21,.48,.54,.5,.9,.02,.36-.13,.71-.41,.95l-34.61,29.76,38.2,32.77c.26,.22,.41,.55,.41,.9,0,.34-.15,.67-.42,.89l-42.07,35.48,46.24,37.72c.29,.24,.45,.6,.43,.97-.02,.38-.22,.72-.54,.92l-49.8,32.19,53.56,33.54c.35,.22,.56,.6,.55,1.01,0,.41-.22,.79-.57,1l-57.33,34.24,61.39,36.54c.35,.21,.57,.59,.57,1,0,.41-.2,.79-.55,1.01l-65.7,41.31,69.71,31.2c.59,.26,.86,.96,.59,1.55-.19,.44-.62,.69-1.07,.69Z"/>
        </g>
        <g>
          <path class="cls-15" d="M105.61,169.45c-.07,0-.14,0-.21-.02l-69.21-12.29c-.56-.1-.97-.59-.97-1.16v-4.56c0-.65,.53-1.17,1.17-1.17H174.82c.65,0,1.17,.53,1.17,1.17v4.56c0,.57-.41,1.06-.97,1.16l-69.21,12.29c-.07,.01-.14,.02-.21,.02Zm-68.04-14.45l68.04,12.09,68.04-12.09v-2.4H37.57v2.4Z"/>
          <path class="cls-15" d="M36.39,176.23c-.65,0-1.17-.53-1.17-1.17v-23.63c0-.44,.24-.83,.62-1.04,.38-.2,.85-.18,1.21,.07l8.52,5.78,11.33-5.86c.5-.26,1.11-.13,1.46,.31l6.97,8.82,14.3-9.09c.48-.3,1.1-.22,1.48,.18l14.13,14.86c.45,.47,.43,1.21-.04,1.66-.47,.45-1.21,.43-1.66-.04l-13.47-14.16-14.38,9.14c-.51,.32-1.18,.21-1.55-.26l-7.03-8.89-11.09,5.73c-.38,.2-.84,.17-1.2-.07l-7.27-4.93v21.42c0,.65-.53,1.17-1.17,1.17Z"/>
          <path class="cls-15" d="M174.82,176.23c-.65,0-1.17-.53-1.17-1.17v-21.42l-7.27,4.93c-.36,.24-.82,.27-1.2,.07l-11.09-5.73-7.03,8.89c-.37,.47-1.04,.59-1.55,.26l-14.38-9.14-13.47,14.16c-.45,.47-1.19,.49-1.66,.04-.47-.45-.49-1.19-.04-1.66l14.14-14.86c.39-.41,1.01-.48,1.48-.18l14.3,9.09,6.97-8.82c.35-.44,.96-.57,1.46-.31l11.33,5.86,8.52-5.78c.36-.24,.82-.27,1.21-.07,.38,.2,.62,.6,.62,1.04v23.63c0,.65-.53,1.17-1.17,1.17Z"/>
        </g>
        <g>
          <path class="cls-15" d="M181.67,335.82H29.54c-.65,0-1.17-.53-1.17-1.17v-5.01c0-.57,.41-1.06,.97-1.16l76.07-13.51c.14-.02,.28-.02,.41,0l76.07,13.51c.56,.1,.97,.59,.97,1.16v5.01c0,.65-.53,1.17-1.17,1.17Zm-150.96-2.35H180.5v-2.85l-74.89-13.3-74.89,13.3v2.85Z"/>
          <path class="cls-15" d="M29.54,357.84c-.65,0-1.17-.53-1.17-1.17v-22.01c0-.42,.23-.81,.59-1.02l10.97-6.29c.36-.21,.81-.21,1.17,0l10.07,5.81,9.02-9.91c.21-.23,.5-.37,.81-.38,.3-.02,.62,.1,.85,.31l10.71,9.8,12.4-14.11c.43-.49,1.17-.54,1.66-.11,.49,.43,.54,1.17,.11,1.66l-13.2,15.01c-.21,.24-.5,.38-.82,.4-.31,0-.62-.09-.86-.31l-10.72-9.81-8.86,9.74c-.37,.41-.98,.5-1.46,.23l-10.3-5.95-9.8,5.61v21.33c0,.65-.53,1.17-1.17,1.17Z"/>
          <path class="cls-15" d="M181.67,357.84c-.65,0-1.17-.53-1.17-1.17v-21.33l-9.8-5.61-10.3,5.95c-.48,.28-1.08,.18-1.46-.23l-8.86-9.74-10.72,9.81c-.23,.21-.55,.31-.86,.31-.31-.02-.61-.16-.82-.4l-13.2-15.01c-.43-.49-.38-1.23,.11-1.66,.49-.43,1.23-.38,1.66,.11l12.4,14.11,10.71-9.8c.23-.21,.53-.32,.85-.31,.31,.01,.6,.15,.81,.38l9.02,9.91,10.07-5.81c.36-.21,.81-.21,1.17,0l10.97,6.29c.37,.21,.59,.6,.59,1.02v22.01c0,.65-.53,1.17-1.17,1.17Z"/>
        </g>
        <g>
          <path class="cls-15" d="M210.04,258.71H1.17C.53,258.71,0,258.18,0,257.53v-6.88c0-.59,.44-1.09,1.02-1.16l104.43-13.78c.1-.01,.2-.01,.31,0l104.43,13.78c.58,.08,1.02,.57,1.02,1.16v6.88c0,.65-.53,1.17-1.17,1.17Zm-207.69-2.35H208.86v-4.68l-103.26-13.63L2.35,251.68v4.68Z"/>
          <g>
            <path class="cls-15" d="M1.17,276.84C.53,276.84,0,276.32,0,275.67v-25.02c0-.42,.22-.8,.58-1.01,.36-.21,.8-.22,1.17-.01l11.74,6.51,13.13-9.87c.41-.31,.98-.31,1.39-.01l13.55,9.78,15.43-13.72c.44-.4,1.11-.4,1.56,0l15.31,13.57,15.61-17.76c.43-.49,1.17-.54,1.66-.11,.49,.43,.54,1.17,.11,1.66l-16.39,18.65c-.21,.23-.5,.38-.81,.4-.31,.02-.62-.09-.85-.29l-15.41-13.66-15.35,13.66c-.41,.37-1.02,.4-1.47,.07l-13.62-9.82-13.04,9.81c-.37,.28-.87,.31-1.28,.09l-10.66-5.91v23.02c0,.65-.53,1.17-1.17,1.17Z"/>
            <path class="cls-15" d="M1.18,258.71c-.36,0-.72-.17-.95-.49-.38-.53-.26-1.26,.27-1.64l11.71-8.43c.38-.27,.88-.29,1.28-.06l13.72,7.98,11.58-11.33c.39-.38,1-.44,1.45-.15l17.86,11.41,13.8-15.58c.21-.24,.52-.38,.84-.39,.32-.01,.63,.11,.86,.34l16.54,16.33c.46,.46,.47,1.2,.01,1.66-.45,.46-1.2,.47-1.66,.01l-15.66-15.46-13.65,15.4c-.38,.43-1.02,.52-1.51,.21l-17.92-11.45-11.55,11.3c-.38,.37-.95,.44-1.41,.18l-13.83-8.04-11.09,7.98c-.21,.15-.45,.22-.68,.22Z"/>
          </g>
          <g>
            <path class="cls-15" d="M210.04,276.84c-.65,0-1.17-.53-1.17-1.17v-23.02l-10.66,5.91c-.41,.22-.9,.19-1.28-.09l-13.04-9.81-13.62,9.82c-.45,.32-1.06,.29-1.47-.07l-15.35-13.66-15.41,13.66c-.23,.21-.54,.32-.85,.29-.31-.02-.6-.16-.81-.4l-16.39-18.65c-.43-.49-.38-1.23,.11-1.66,.49-.43,1.23-.38,1.66,.11l15.61,17.76,15.31-13.57c.45-.39,1.12-.39,1.56,0l15.43,13.72,13.55-9.78c.42-.3,.98-.29,1.39,.01l13.13,9.87,11.74-6.51c.36-.2,.81-.19,1.17,.01,.36,.21,.58,.6,.58,1.01v25.02c0,.65-.53,1.17-1.17,1.17Z"/>
            <path class="cls-15" d="M210.04,258.71c-.24,0-.48-.07-.68-.22l-11.09-7.98-13.83,8.04c-.45,.27-1.03,.19-1.41-.18l-11.55-11.3-17.92,11.45c-.49,.31-1.13,.22-1.51-.21l-13.65-15.4-15.66,15.46c-.46,.46-1.2,.45-1.66-.01-.46-.46-.45-1.2,.01-1.66l16.54-16.33c.23-.23,.54-.35,.86-.34,.32,.01,.63,.15,.84,.39l13.8,15.58,17.86-11.41c.46-.3,1.06-.23,1.45,.15l11.58,11.33,13.72-7.98c.4-.23,.9-.21,1.28,.06l11.71,8.43c.53,.38,.65,1.11,.27,1.64-.23,.32-.59,.49-.95,.49Z"/>
          </g>
        </g>
      </g>
      <g>
        <g>
          <polygon class="cls-15" points="529.62 589.24 499.54 589.24 510.39 191 518.76 191 529.62 589.24"/>
          <g>
            <g>
              <g>
                <polygon class="cls-21" points="546.27 206.84 517.05 200.04 515.2 191.45 630.13 166.66 631.1 171.15 613.43 178.59 546.27 206.84"/>
                <polygon class="cls-16" points="613.43 178.59 611.71 170.63 630.13 166.66 631.1 171.15 613.43 178.59"/>
              </g>
              <g>
                <polygon class="cls-21" points="508.11 162.74 516.83 191.44 510.32 197.34 431.39 110.2 434.79 107.12 450.07 118.7 508.11 162.74"/>
                <polygon class="cls-16" points="450.07 118.7 444.04 124.17 431.39 110.2 434.79 107.12 450.07 118.7"/>
              </g>
              <g>
                <polygon class="cls-21" points="489 217.84 509.5 195.93 517.86 198.63 481.86 310.55 477.49 309.14 479.89 290.12 489 217.84"/>
                <polygon class="cls-16" points="479.89 290.12 487.63 292.61 481.86 310.55 477.49 309.14 479.89 290.12"/>
              </g>
            </g>
            <circle class="cls-1" cx="514.46" cy="195.81" r="7.59"/>
          </g>
        </g>
        <g>
          <polygon class="cls-15" points="608.87 589.24 586.59 589.24 594.63 288.23 600.83 288.23 608.87 589.24"/>
          <g>
            <g>
              <g>
                <polygon class="cls-21" points="617.13 276.22 601.32 291.84 595.21 289.61 625.1 207.79 628.29 208.95 625.97 222.97 617.13 276.22"/>
                <polygon class="cls-16" points="625.97 222.97 620.31 220.9 625.1 207.79 628.29 208.95 625.97 222.97"/>
              </g>
              <g>
                <polygon class="cls-21" points="574.41 282.71 595.85 288.59 596.97 295 511.16 310.02 510.58 306.67 523.87 301.68 574.41 282.71"/>
                <polygon class="cls-16" points="523.87 301.68 524.91 307.62 511.16 310.02 510.58 306.67 523.87 301.68"/>
              </g>
              <g>
                <polygon class="cls-21" points="601.39 316.46 595.76 294.96 600.76 290.78 656.67 357.57 654.06 359.76 643.09 350.74 601.39 316.46"/>
                <polygon class="cls-16" points="643.09 350.74 647.71 346.87 656.67 357.57 654.06 359.76 643.09 350.74"/>
              </g>
            </g>
            <path class="cls-1" d="M602.93,293.72c-1.07,2.92-4.3,4.42-7.21,3.35-2.92-1.07-4.42-4.3-3.35-7.21,1.07-2.92,4.3-4.42,7.21-3.35,2.92,1.07,4.42,4.3,3.35,7.21Z"/>
          </g>
        </g>
      </g>
      <g>
        <g>
          <g>
            <path class="cls-1" d="M458.65,319.16c0-72.09-58.94-130.42-131.26-129.41-71.2,.99-128.66,60.24-127.56,131.44,.65,42.46,21.76,79.96,53.89,103.09l.07,.66c2.41,23.93,12.75,46.36,29.37,63.74h92.14c16.63-17.38,26.97-39.81,29.37-63.74l.07-.66c32.65-23.5,53.91-61.82,53.91-105.11Z"/>
            <g>
              <polygon class="cls-6" points="334.73 436.08 330.75 401.83 329.22 401.83 327.7 401.83 323.72 436.08 305.06 446.7 310.2 488.67 329.22 488.67 348.25 488.67 353.39 446.7 334.73 436.08"/>
              <g>
                <g>
                  <polygon class="cls-10" points="313.78 486.05 304.88 417.65 266.24 346.91 267.61 346.15 306.39 417.16 306.41 417.3 315.33 485.85 313.78 486.05"/>
                  <polygon class="cls-10" points="319.04 486.01 317.37 465.26 329.22 465.26 329.22 466.83 319.07 466.83 320.6 485.89 319.04 486.01"/>
                  <polygon class="cls-10" points="344.67 486.05 343.12 485.85 352.06 417.16 352.13 417.03 390.84 346.15 392.21 346.91 353.57 417.65 344.67 486.05"/>
                  <polygon class="cls-10" points="339.41 486.01 337.85 485.89 339.38 466.83 329.22 466.83 329.22 465.26 341.08 465.26 339.41 486.01"/>
                </g>
                <path class="cls-8" d="M299.45,358.52c-2.06,0-4.2-1-5.71-2.79-1.67-1.98-2.36-4.48-2.85-6.31-2.14-7.85-4.23-16.96-1.88-25.68,.19-.7,.42-1.41,.68-2.1-1.01-1.13-2.05-2.08-3.14-2.89-3.2-2.36-7.03-3.35-10.25-2.66-5.76,1.24-9.31,7.54-9.84,13.14-.61,6.43,1.65,13.13,3.65,19.04,.42,1.23-.24,2.56-1.47,2.98-1.23,.42-2.56-.24-2.98-1.47-2.15-6.36-4.59-13.56-3.88-21,.67-7.07,5.2-15.5,13.53-17.29,4.58-.98,9.69,.28,14.02,3.47,.91,.67,1.77,1.41,2.61,2.23,3.8-5.86,10.21-10.19,17.45-9.31,4.94,.61,9.63,3.64,12.89,8.32,3.62-5.16,9.32-9.67,16.01-8.6,3.93,.62,6.84,2.91,8.93,5.49,3.49-3.82,8.15-6.59,13.49-5.85,4.08,.56,7.82,3.21,10.21,7.16,5.02-3.74,10.52-5.23,15.29-4.09,7.89,1.88,12.19,10.23,12.36,17.5,.17,7.31-2.82,14.1-5.46,20.1-.52,1.18-1.9,1.73-3.09,1.2-1.19-.52-1.73-1.91-1.2-3.1,2.44-5.55,5.21-11.84,5.06-18.1-.12-5.34-3.24-11.73-8.76-13.04-5.08-1.22-10.08,2.19-12.25,3.96,.81,2.67,1.18,5.74,1.15,9.27-.07,7.4-1.81,14.84-5.01,21.52-1.78,3.71-4.52,5.51-7.32,4.82-1.37-.34-3.78-1.59-4.48-6.21-1.67-11.04,2.26-22.77,10.1-30.69-1.61-3.1-4.37-5.27-7.23-5.66-3.93-.53-7.56,2.08-10.2,5.32,.69,1.33,1.18,2.55,1.5,3.46,3.55,9.97,2.96,21.16-1.61,30.71-1.52,3.17-3.9,4.69-6.37,4.06-2.79-.71-3.6-3.68-3.86-4.65-2.89-10.71-1.51-22.45,3.8-32.2,.29-.54,.6-1.07,.94-1.6-1.55-2.2-3.75-4.28-6.71-4.75-5.33-.84-10.05,3.95-12.69,8.65,1.18,2.72,2.06,5.85,2.7,9.56,1.14,6.56,1.32,13.23,.54,19.84-.6,5.06-3.2,6.25-4.69,6.52-3.04,.54-5.7-1.82-6.75-6.01-2.48-9.9-1.39-20.74,2.96-29.97-.34-.62-.7-1.21-1.08-1.78-2.47-3.63-6.11-6.07-9.73-6.51-5.69-.7-10.87,3.37-13.65,8.41,1.01,1.37,1.98,2.9,2.95,4.62,3.89,6.9,6.43,14.37,7.56,22.21,.74,5.17-.69,8.91-3.94,10.27-.73,.31-1.51,.45-2.3,.45Zm-6.26-32.07c-1.44,7.18,.37,14.94,2.22,21.73,.52,1.89,.98,3.42,1.91,4.52,.73,.87,1.9,1.33,2.61,1.03,1.3-.54,1.41-3.18,1.11-5.27-1.05-7.26-3.4-14.18-7.01-20.57-.28-.5-.56-.98-.84-1.44Zm28.92,.86c-2.36,7.17-2.7,15.06-.87,22.36,.37,1.5,1.1,2.44,1.38,2.52,.16-.08,.64-.79,.83-2.45,.73-6.16,.56-12.38-.5-18.49-.25-1.41-.53-2.73-.85-3.95Zm24.76-5.32c-4.23,8.46-5.26,18.44-2.79,27.58,.18,.68,.36,1.04,.47,1.21,.24-.2,.63-.66,.99-1.43,4.04-8.43,4.56-18.31,1.42-27.1-.03-.08-.06-.17-.1-.26Zm22.1,.74c-5.69,6.79-8.43,16.05-7.1,24.83,.25,1.64,.76,2.3,.95,2.34,.26,.07,1.17-.64,1.97-2.29,2.91-6.06,4.48-12.82,4.55-19.54,.02-1.96-.1-3.74-.37-5.34Z"/>
              </g>
            </g>
          </g>
          <g>
            <path class="cls-22" d="M310.2,576.63h38.06v5.79c0,3.76-3.06,6.82-6.82,6.82h-24.41c-3.76,0-6.82-3.06-6.82-6.82v-5.79h0Z"/>
            <path class="cls-21" d="M287.6,499.69h83.24v67.01c0,8.96-7.27,16.23-16.23,16.23h-50.79c-8.96,0-16.23-7.27-16.23-16.23v-67.01h0Z"/>
            <path class="cls-15" d="M280.47,485.95h97.51v8.82c0,5.09-4.13,9.21-9.21,9.21h-79.08c-5.09,0-9.21-4.13-9.21-9.21v-8.82h0Z"/>
            <g>
              <rect class="cls-5" x="284.34" y="534.15" width="89.76" height="13.66" rx="4.69" ry="4.69"/>
              <rect class="cls-5" x="284.34" y="513.85" width="89.76" height="13.66" rx="4.69" ry="4.69"/>
              <rect class="cls-17" x="284.34" y="554.46" width="89.76" height="13.66" rx="4.69" ry="4.69"/>
            </g>
          </g>
        </g>
        <g>
          <g>
            <path class="cls-16" d="M635.44,653h-252.93c-2.16,0-3.91-1.75-3.91-3.91s1.75-3.91,3.91-3.91h252.93c3.88,0,7.03-3.15,7.03-7.03s-3.15-7.03-7.03-7.03h-118.49c-6.96,0-12.63-5.66-12.63-12.63s5.66-12.63,12.63-12.63h88.35c9.36,0,16.97-7.62,16.97-16.97s-7.62-16.97-16.97-16.97h-45.42c-12.31,0-22.33-10.02-22.33-22.33v-18.48c0-2.16,1.75-3.91,3.91-3.91s3.91,1.75,3.91,3.91v18.48c0,8,6.51,14.5,14.5,14.5h45.42c13.68,0,24.8,11.13,24.8,24.8s-11.13,24.8-24.8,24.8h-88.35c-2.65,0-4.8,2.15-4.8,4.8s2.15,4.8,4.8,4.8h118.49c8.19,0,14.86,6.66,14.86,14.86s-6.66,14.86-14.86,14.86Z"/>
            <g>
              <rect class="cls-4" x="382.51" y="645.17" width=".78" height="7.83"/>
              <path class="cls-18" d="M633.35,653h-1.56v-7.83h1.56v7.83Zm-7.81,0h-1.56v-7.83h1.56v7.83Zm-7.81,0h-1.56v-7.83h1.56v7.83Zm-7.81,0h-1.56v-7.83h1.56v7.83Zm-7.82,0h-1.56v-7.83h1.56v7.83Zm-7.81,0h-1.56v-7.83h1.56v7.83Zm-7.81,0h-1.56v-7.83h1.56v7.83Zm-7.82,0h-1.56v-7.83h1.56v7.83Zm-7.81,0h-1.56v-7.83h1.56v7.83Zm-7.81,0h-1.56v-7.83h1.56v7.83Zm-7.82,0h-1.56v-7.83h1.56v7.83Zm-7.81,0h-1.56v-7.83h1.56v7.83Zm-7.81,0h-1.56v-7.83h1.56v7.83Zm-7.81,0h-1.56v-7.83h1.56v7.83Zm-7.82,0h-1.56v-7.83h1.56v7.83Zm-7.81,0h-1.56v-7.83h1.56v7.83Zm-7.81,0h-1.56v-7.83h1.56v7.83Zm-7.82,0h-1.56v-7.83h1.56v7.83Zm-7.81,0h-1.56v-7.83h1.56v7.83Zm-7.81,0h-1.56v-7.83h1.56v7.83Zm-7.82,0h-1.56v-7.83h1.56v7.83Zm-7.81,0h-1.56v-7.83h1.56v7.83Zm-7.81,0h-1.56v-7.83h1.56v7.83Zm-7.81,0h-1.56v-7.83h1.56v7.83Zm-7.82,0h-1.56v-7.83h1.56v7.83Zm-7.81,0h-1.56v-7.83h1.56v7.83Zm-7.81,0h-1.56v-7.83h1.56v7.83Zm-7.82,0h-1.56v-7.83h1.56v7.83Zm-7.81,0h-1.56v-7.83h1.56v7.83Zm-7.81,0h-1.56v-7.83h1.56v7.83Zm-7.81,0h-1.56v-7.83h1.56v7.83Zm-7.82,0h-1.56v-7.83h1.56v7.83Zm249.86-1.07l-2.92-7.26c.31-.13,.61-.27,.9-.44l3.93,6.77c-.61,.35-1.25,.67-1.91,.93Zm7.68-6.99l-6.96-3.58c.15-.3,.29-.61,.39-.92l7.4,2.56c-.23,.66-.51,1.32-.83,1.95Zm-6.38-8.46c-.08-.33-.18-.65-.31-.97l7.28-2.89c.26,.65,.47,1.33,.64,2.01l-7.61,1.84Zm-2.76-4.07c-.27-.19-.56-.37-.86-.53l3.61-6.95c.63,.33,1.23,.7,1.8,1.1l-4.55,6.37Zm-5.11-1.3h-1.56v-7.83h1.56v7.83Zm-7.81,0h-1.56v-7.83h1.56v7.83Zm-7.81,0h-1.56v-7.83h1.56v7.83Zm-7.82,0h-1.56v-7.83h1.56v7.83Zm-7.81,0h-1.56v-7.83h1.56v7.83Zm-7.81,0h-1.56v-7.83h1.56v7.83Zm-7.82,0h-1.56v-7.83h1.56v7.83Zm-7.81,0h-1.56v-7.83h1.56v7.83Zm-7.81,0h-1.56v-7.83h1.56v7.83Zm-7.81,0h-1.56v-7.83h1.56v7.83Zm-7.82,0h-1.56v-7.83h1.56v7.83Zm-7.81,0h-1.56v-7.83h1.56v7.83Zm-7.81,0h-1.56v-7.83h1.56v7.83Zm-7.82,0h-1.56v-7.83h1.56v7.83Zm-7.81,0h-1.56v-7.83h1.56v7.83Zm-7.81,0h-.23c-.64,0-1.29-.05-1.91-.14l1.18-7.74c.24,.04,.48,.06,.73,.06h.23v7.83Zm-9.89-4.49c-.49-.58-.92-1.2-1.3-1.85l6.79-3.9c.14,.24,.31,.48,.5,.71l-5.99,5.04Zm4.94-9.07l-7.68-1.52c.15-.73,.36-1.46,.63-2.16l7.29,2.86c-.11,.27-.19,.55-.24,.83Zm2.5-3.33l-3.61-6.94c.67-.35,1.37-.64,2.1-.86l2.3,7.48c-.27,.08-.54,.19-.79,.32Zm85.56-.54h-1.56v-7.83h1.56v7.83Zm-7.82,0h-1.56v-7.83h1.56v7.83Zm-7.81,0h-1.56v-7.83h1.56v7.83Zm-7.81,0h-1.56v-7.83h1.56v7.83Zm-7.81,0h-1.56v-7.83h1.56v7.83Zm-7.82,0h-1.56v-7.83h1.56v7.83Zm-7.81,0h-1.56v-7.83h1.56v7.83Zm-7.81,0h-1.56v-7.83h1.56v7.83Zm-7.82,0h-1.56v-7.83h1.56v7.83Zm-7.81,0h-1.56v-7.83h1.56v7.83Zm-7.81,0h-1.56v-7.83h1.56v7.83Zm84.62-.04l-.46-7.82c.43-.02,.85-.07,1.26-.12l1.04,7.76c-.61,.08-1.23,.14-1.85,.18Zm8.95-2.25l-3.3-7.1c.39-.18,.76-.37,1.13-.58l3.81,6.84c-.54,.3-1.09,.58-1.65,.84Zm7.5-5.37l-5.66-5.41c.3-.31,.58-.63,.85-.96l6.03,4.99c-.39,.47-.8,.93-1.22,1.37Zm5.03-7.72l-7.24-2.98c.16-.39,.3-.78,.43-1.18l7.45,2.41c-.19,.59-.41,1.18-.64,1.75Zm1.85-9.04l-7.83-.11v-.27c0-.34,0-.67-.03-1l7.81-.47c.03,.48,.04,.98,.04,1.47v.38Zm-8.9-6.33c-.15-.4-.31-.79-.49-1.18l7.11-3.28c.26,.56,.5,1.13,.71,1.71l-7.33,2.75Zm-3.28-5.39c-.28-.31-.58-.62-.88-.91l5.41-5.66c.45,.43,.88,.87,1.29,1.33l-5.82,5.24Zm-5.02-3.83c-.38-.19-.76-.37-1.16-.53l2.99-7.23c.57,.24,1.13,.49,1.68,.77l-3.51,7Zm-6.06-1.72c-.42-.04-.85-.06-1.28-.07l.14-7.83c.62,.01,1.23,.04,1.84,.1l-.69,7.8Zm-7.46-.07h-1.56v-7.83h1.56v7.83Zm-7.81,0h-1.56v-7.83h1.56v7.83Zm-7.82,0h-1.56v-7.83h1.56v7.83Zm-7.81,0h-1.56v-7.83h1.56v7.83Zm-7.81,0h-1.56v-7.83h1.56v7.83Zm-7.82,0h-.43c-.46,0-.92-.02-1.38-.04l.48-7.81c.3,.02,.6,.03,.9,.03h.43v7.83Zm-9.15-1.77c-.58-.25-1.15-.52-1.71-.81l3.66-6.92c.36,.19,.73,.37,1.11,.53l-3.06,7.2Zm-7.68-5.41c-.43-.46-.84-.94-1.22-1.44l6.17-4.81c.25,.32,.52,.64,.8,.94l-5.75,5.31Zm-4.79-8.1c-.2-.6-.37-1.21-.52-1.83l7.61-1.81c.09,.4,.21,.79,.33,1.17l-7.43,2.47Zm6.69-8.95h-7.83v-1.56h7.83v1.56Zm0-7.81h-7.83v-1.56h7.83v1.56Z"/>
              <rect class="cls-4" x="537.55" y="531.1" width="7.83" height=".78"/>
            </g>
          </g>
          <g>
            <path class="cls-5" d="M255.21,546.69h148.03c7.39,0,13.4,6,13.4,13.4v89.7H241.82v-89.7c0-7.39,6-13.4,13.4-13.4Z"/>
            <path class="cls-15" d="M237.55,635.77h183.36c6.6,0,11.95,5.36,11.95,11.95v5.18H225.59v-5.18c0-6.6,5.36-11.95,11.95-11.95Z"/>
            <g>
              <rect class="cls-21" x="241.81" y="568.11" width="174.82" height="11.56"/>
              <rect class="cls-21" x="241.81" y="583.46" width="174.82" height="7.86"/>
            </g>
            <g>
              <rect class="cls-21" x="290.86" y="596.94" width="73.24" height="31.92"/>
              <g>
                <g>
                  <rect class="cls-16" x="293.83" y="600.11" width="67.31" height="25.56"/>
                  <rect class="cls-18" x="327.48" y="600.11" width="33.66" height="25.56"/>
                  <rect class="cls-18" x="293.83" y="600.11" width="7.99" height="25.56"/>
                </g>
                <text class="cls-2" transform="translate(336.4 616.51)"><tspan x="0" y="0">ON</tspan></text>
                <text class="cls-2" transform="translate(304.12 616.51)"><tspan x="0" y="0">OFF</tspan></text>
              </g>
            </g>
          </g>
        </g>
        <g>
          <path class="cls-21" d="M656.69,597.34h-221.71v-73.78h221.71v73.78Zm-209.19-12.52h196.66v-48.73h-196.66v48.73Z"/>
          <g>
            <g>
              <polygon class="cls-13" points="682 529.82 409.67 529.82 454.48 396.88 637.19 396.88 682 529.82"/>
              <g>
                <g>
                  <path class="cls-21" d="M513.08,403.03l-2.75,23.25c-.08,.69-.56,1.32-1.31,1.84-1.15,.82-2.97,1.35-4.94,1.35h-46.83c-1.97,0-3.56-.53-4.36-1.35-.53-.52-.73-1.15-.52-1.84l7.23-23.25c.03-.11,.08-.22,.14-.32,.71-1.32,3.27-2.34,5.99-2.34h42.34c2.72,0,4.84,1.02,4.99,2.34,.02,.1,.02,.21,0,.32Z"/>
                  <path class="cls-21" d="M509.15,436.25l-3.48,29.44c-.17,1.4-1.47,2.65-3.31,3.38-1.12,.45-2.45,.72-3.82,.72h-53.05c-1.37,0-2.58-.27-3.51-.72-1.53-.73-2.3-1.98-1.86-3.38l9.16-29.44c.31-.99,1.34-1.88,2.75-2.48,1.21-.54,2.7-.86,4.23-.86h47.36c1.53,0,2.88,.32,3.86,.86,1.14,.61,1.8,1.49,1.68,2.48Z"/>
                  <path class="cls-21" d="M504.16,478.52l-4.55,38.5c-.04,.38-.15,.75-.3,1.11-1,2.46-4.32,4.33-8.01,4.33h-61.17c-3.69,0-6.2-1.87-6.15-4.33,0-.36,.06-.73,.18-1.11l11.98-38.5c.24-.78,.79-1.52,1.56-2.14,1.56-1.29,4.01-2.16,6.51-2.16h53.73c2.51,0,4.58,.87,5.59,2.16,.5,.63,.73,1.36,.64,2.14Z"/>
                  <path class="cls-21" d="M572.57,403.03l2.24,23.25c.07,.69-.27,1.32-.91,1.84-.99,.82-2.69,1.35-4.66,1.35h-46.82c-1.98,0-3.68-.53-4.66-1.35-.64-.52-.98-1.15-.91-1.84l2.24-23.25c.01-.11,.03-.22,.07-.32,.43-1.32,2.77-2.34,5.5-2.34h42.33c2.72,0,5.06,1.02,5.5,2.34,.04,.1,.06,.21,.07,.32Z"/>
                  <path class="cls-21" d="M575.78,436.25l2.84,29.44c.13,1.4-.9,2.65-2.59,3.38-1.04,.45-2.29,.72-3.68,.72h-53.03c-1.39,0-2.66-.27-3.68-.72-1.69-.73-2.72-1.98-2.59-3.38l2.84-29.44c.1-.99,.94-1.88,2.22-2.48,1.09-.54,2.52-.86,4.05-.86h47.35c1.54,0,2.95,.32,4.05,.86,1.27,.61,2.12,1.49,2.22,2.48Z"/>
                  <path class="cls-21" d="M579.86,478.52l3.71,38.5c.04,.38,.01,.75-.06,1.11-.49,2.46-3.4,4.33-7.09,4.33h-61.16c-3.71,0-6.62-1.87-7.09-4.33-.07-.36-.1-.73-.06-1.11l3.71-38.5c.08-.78,.46-1.52,1.1-2.14,1.28-1.29,3.54-2.16,6.06-2.16h53.72c2.51,0,4.78,.87,6.05,2.16,.64,.63,1.04,1.36,1.11,2.14Z"/>
                  <path class="cls-21" d="M632.06,403.03l7.23,23.25c.21,.69,0,1.32-.52,1.84-.8,.82-2.39,1.35-4.37,1.35h-46.82c-1.97,0-3.79-.53-4.95-1.35-.75-.52-1.22-1.15-1.31-1.84l-2.75-23.25c-.01-.11-.01-.22,0-.32,.16-1.32,2.28-2.34,5-2.34h42.33c2.73,0,5.29,1.02,6,2.34,.06,.1,.11,.21,.14,.32Z"/>
                  <path class="cls-21" d="M642.39,436.25l9.16,29.44c.43,1.4-.33,2.65-1.86,3.38-.93,.45-2.14,.72-3.52,.72h-53.03c-1.39,0-2.7-.27-3.83-.72-1.85-.73-3.15-1.98-3.31-3.38l-3.48-29.44c-.12-.99,.54-1.88,1.68-2.48,.99-.54,2.33-.86,3.87-.86h47.35c1.54,0,3.03,.32,4.24,.86,1.4,.61,2.44,1.49,2.75,2.48Z"/>
                  <path class="cls-21" d="M655.54,478.52l11.98,38.5c.12,.38,.17,.75,.18,1.11,.05,2.46-2.46,4.33-6.17,4.33h-61.16c-3.69,0-7.01-1.87-8.02-4.33-.15-.36-.26-.73-.3-1.11l-4.55-38.5c-.09-.78,.15-1.52,.65-2.14,.99-1.29,3.08-2.16,5.59-2.16h53.72c2.52,0,4.97,.87,6.53,2.16,.77,.63,1.32,1.36,1.56,2.14Z"/>
                </g>
                <g>
                  <rect class="cls-5" x="519.17" y="402.51" width="53.33" height=".39"/>
                  <rect class="cls-5" x="578.59" y="402.51" width="53.33" height=".39"/>
                  <rect class="cls-5" x="459.76" y="402.51" width="53.32" height=".39"/>
                  <rect class="cls-5" x="518.9" y="404.85" width="53.87" height=".39"/>
                  <rect class="cls-5" x="578.82" y="404.85" width="53.87" height=".39"/>
                  <rect class="cls-5" x="458.98" y="404.85" width="53.86" height=".39"/>
                  <rect class="cls-5" x="518.67" y="407.24" width="54.33" height=".39"/>
                  <rect class="cls-5" x="579.1" y="407.24" width="54.33" height=".39"/>
                  <rect class="cls-5" x="458.24" y="407.24" width="54.32" height=".39"/>
                  <rect class="cls-5" x="518.44" y="409.67" width="54.8" height=".39"/>
                  <rect class="cls-5" x="579.39" y="409.67" width="54.8" height=".39"/>
                  <rect class="cls-5" x="457.48" y="409.67" width="54.79" height=".39"/>
                  <rect class="cls-5" x="518.2" y="412.14" width="55.27" height=".39"/>
                  <rect class="cls-5" x="579.68" y="412.14" width="55.27" height=".39"/>
                  <rect class="cls-5" x="456.72" y="412.14" width="55.26" height=".39"/>
                  <rect class="cls-5" x="517.96" y="414.66" width="55.76" height=".39"/>
                  <rect class="cls-5" x="579.98" y="414.66" width="55.76" height=".39"/>
                  <rect class="cls-5" x="455.93" y="414.66" width="55.75" height=".39"/>
                  <rect class="cls-5" x="517.71" y="417.21" width="56.25" height=".39"/>
                  <rect class="cls-5" x="580.28" y="417.21" width="56.25" height=".39"/>
                  <rect class="cls-5" x="455.14" y="417.21" width="56.24" height=".39"/>
                  <rect class="cls-5" x="517.46" y="419.82" width="56.75" height=".39"/>
                  <rect class="cls-5" x="580.59" y="419.82" width="56.75" height=".39"/>
                  <rect class="cls-5" x="454.33" y="419.82" width="56.74" height=".39"/>
                  <rect class="cls-5" x="517.2" y="422.47" width="57.27" height=".39"/>
                  <rect class="cls-5" x="580.9" y="422.47" width="57.27" height=".39"/>
                  <rect class="cls-5" x="453.5" y="422.47" width="57.26" height=".39"/>
                  <rect class="cls-5" x="516.94" y="425.17" width="57.79" height=".39"/>
                  <rect class="cls-5" x="581.22" y="425.17" width="57.79" height=".39"/>
                  <rect class="cls-5" x="452.66" y="425.17" width="57.78" height=".39"/>
                  <rect class="cls-5" x="517.76" y="427.91" width="56.14" height=".39"/>
                  <rect class="cls-5" x="582.63" y="427.91" width="56.14" height=".39"/>
                  <rect class="cls-5" x="452.9" y="427.91" width="56.13" height=".39"/>
                  <rect class="cls-5" x="518.11" y="433.57" width="55.46" height=".39"/>
                  <rect class="cls-5" x="584.19" y="433.57" width="55.46" height=".39"/>
                  <rect class="cls-5" x="452.03" y="433.57" width="55.44" height=".39"/>
                  <rect class="cls-5" x="515.85" y="436.48" width="59.97" height=".39"/>
                  <rect class="cls-5" x="582.56" y="436.48" width="59.97" height=".39"/>
                  <rect class="cls-5" x="449.14" y="436.48" width="59.96" height=".39"/>
                  <rect class="cls-5" x="515.57" y="439.44" width="60.54" height=".39"/>
                  <rect class="cls-5" x="582.91" y="439.44" width="60.54" height=".39"/>
                  <rect class="cls-5" x="448.22" y="439.44" width="60.53" height=".39"/>
                  <rect class="cls-5" x="515.27" y="442.45" width="61.12" height=".39"/>
                  <rect class="cls-5" x="583.26" y="442.45" width="61.12" height=".39"/>
                  <rect class="cls-5" x="447.29" y="442.45" width="61.11" height=".39"/>
                  <rect class="cls-5" x="514.98" y="445.53" width="61.72" height=".39"/>
                  <rect class="cls-5" x="583.63" y="445.53" width="61.72" height=".39"/>
                  <rect class="cls-5" x="446.33" y="445.53" width="61.7" height=".39"/>
                  <rect class="cls-5" x="514.67" y="448.67" width="62.32" height=".39"/>
                  <rect class="cls-5" x="584" y="448.67" width="62.32" height=".39"/>
                  <rect class="cls-5" x="445.35" y="448.67" width="62.31" height=".39"/>
                  <rect class="cls-5" x="514.37" y="451.87" width="62.94" height=".39"/>
                  <rect class="cls-5" x="584.38" y="451.87" width="62.94" height=".39"/>
                  <rect class="cls-5" x="444.36" y="451.87" width="62.93" height=".39"/>
                  <rect class="cls-5" x="514.05" y="455.13" width="63.57" height=".39"/>
                  <rect class="cls-5" x="584.76" y="455.13" width="63.57" height=".39"/>
                  <rect class="cls-5" x="443.34" y="455.13" width="63.55" height=".39"/>
                  <rect class="cls-5" x="513.73" y="458.46" width="64.21" height=".39"/>
                  <rect class="cls-5" x="585.15" y="458.46" width="64.21" height=".39"/>
                  <rect class="cls-5" x="442.31" y="458.46" width="64.2" height=".39"/>
                  <rect class="cls-5" x="513.4" y="461.86" width="64.87" height=".39"/>
                  <rect class="cls-5" x="585.56" y="461.86" width="64.87" height=".39"/>
                  <rect class="cls-5" x="441.25" y="461.86" width="64.85" height=".39"/>
                  <rect class="cls-5" x="513.07" y="465.33" width="65.54" height=".39"/>
                  <rect class="cls-5" x="585.97" y="465.33" width="65.54" height=".39"/>
                  <rect class="cls-5" x="440.17" y="465.33" width="65.52" height=".39"/>
                  <rect class="cls-5" x="515.64" y="468.87" width="60.39" height=".39"/>
                  <rect class="cls-5" x="589.3" y="468.87" width="60.39" height=".39"/>
                  <rect class="cls-5" x="441.98" y="468.87" width="60.38" height=".39"/>
                  <rect class="cls-5" x="512.91" y="476.18" width="65.83" height=".39"/>
                  <rect class="cls-5" x="588.15" y="476.18" width="65.83" height=".39"/>
                  <rect class="cls-5" x="437.69" y="476.18" width="65.83" height=".39"/>
                  <rect class="cls-5" x="511.66" y="479.95" width="68.36" height=".39"/>
                  <rect class="cls-5" x="587.69" y="479.95" width="68.36" height=".39"/>
                  <rect class="cls-5" x="435.62" y="479.95" width="68.34" height=".39"/>
                  <rect class="cls-5" x="511.29" y="483.8" width="69.1" height=".39"/>
                  <rect class="cls-5" x="588.15" y="483.8" width="69.1" height=".39"/>
                  <rect class="cls-5" x="434.42" y="483.8" width="69.08" height=".39"/>
                  <rect class="cls-5" x="588.61" y="487.73" width="69.86" height=".39"/>
                  <rect class="cls-5" x="510.91" y="487.73" width="69.86" height=".39"/>
                  <rect class="cls-5" x="433.2" y="487.73" width="69.84" height=".39"/>
                  <rect class="cls-5" x="510.52" y="491.76" width="70.64" height=".39"/>
                  <rect class="cls-5" x="589.09" y="491.76" width="70.64" height=".39"/>
                  <rect class="cls-5" x="431.95" y="491.76" width="70.62" height=".39"/>
                  <rect class="cls-5" x="510.12" y="495.88" width="71.43" height=".39"/>
                  <rect class="cls-5" x="589.58" y="495.88" width="71.43" height=".39"/>
                  <rect class="cls-5" x="430.67" y="495.88" width="71.42" height=".39"/>
                  <rect class="cls-5" x="509.72" y="500.09" width="72.24" height=".39"/>
                  <rect class="cls-5" x="590.07" y="500.09" width="72.24" height=".39"/>
                  <rect class="cls-5" x="429.36" y="500.09" width="72.23" height=".39"/>
                  <rect class="cls-5" x="509.3" y="504.4" width="73.07" height=".39"/>
                  <rect class="cls-5" x="590.58" y="504.4" width="73.07" height=".39"/>
                  <rect class="cls-5" x="428.02" y="504.4" width="73.06" height=".39"/>
                  <rect class="cls-5" x="508.87" y="508.8" width="73.92" height=".39"/>
                  <rect class="cls-5" x="591.1" y="508.8" width="73.92" height=".39"/>
                  <rect class="cls-5" x="426.65" y="508.8" width="73.91" height=".39"/>
                  <rect class="cls-5" x="508.44" y="513.31" width="74.79" height=".39"/>
                  <rect class="cls-5" x="591.64" y="513.31" width="74.79" height=".39"/>
                  <rect class="cls-5" x="425.24" y="513.31" width="74.78" height=".39"/>
                  <rect class="cls-5" x="508.16" y="517.93" width="75.35" height=".39"/>
                  <rect class="cls-5" x="592.35" y="517.93" width="75.35" height=".39"/>
                  <rect class="cls-5" x="423.98" y="517.93" width="75.33" height=".39"/>
                </g>
              </g>
            </g>
            <rect class="cls-15" x="409.67" y="529.82" width="272.33" height="12.61"/>
          </g>
        </g>
      </g>
      <g>
        <rect class="cls-15" x="123.68" y="409.96" width="60" height="20.32"/>
        <g>
          <rect class="cls-9" x="92.96" y="433.37" width="121.45" height="214.6" rx="13.47" ry="13.47"/>
          <path class="cls-21" d="M200.94,652.66H106.43c-10.02,0-18.17-8.15-18.17-18.17v-187.65c0-10.02,8.15-18.17,18.17-18.17h94.51c10.02,0,18.17,8.15,18.17,18.17v187.65c0,10.02-8.15,18.17-18.17,18.17Zm-94.51-214.6c-4.84,0-8.78,3.94-8.78,8.78v187.65c0,4.84,3.94,8.78,8.78,8.78h94.51c4.84,0,8.78-3.94,8.78-8.78v-187.65c0-4.84-3.94-8.78-8.78-8.78H106.43Z"/>
        </g>
        <rect class="cls-18" x="101.7" y="617.25" width="103.97" height="21.84"/>
        <rect class="cls-16" x="101.7" y="591.06" width="103.97" height="21.84"/>
        <rect class="cls-14" x="101.7" y="564.86" width="103.97" height="21.84"/>
        <rect class="cls-7" x="101.7" y="538.67" width="103.97" height="21.84"/>
      </g>
    </g>
  </g>
</svg>