<?xml version="1.0" encoding="UTF-8"?>
<svg id="Layer_2" data-name="Layer 2" xmlns="http://www.w3.org/2000/svg" viewBox="0 0 1655.25 364.31">
  <defs>
    <style>
      .cls-1 {
        fill: #fff;
      }

      .cls-2 {
        fill: #ffe500;
      }

      .cls-3, .cls-4 {
        fill: none;
        stroke-linecap: round;
        stroke-width: 5.12px;
      }

      .cls-3, .cls-4, .cls-5 {
        stroke: #000;
        stroke-miterlimit: 10;
      }

      .cls-4 {
        stroke-dasharray: 0 0 0 13;
      }

      .cls-5 {
        stroke-width: .4px;
      }
    </style>
  </defs>
  <g id="Layer_1-2" data-name="Layer 1">
    <g>
      <g>
        <line class="cls-3" x1="402.3" y1="99.49" x2="402.3" y2="99.49"/>
        <line class="cls-3" x1="402.3" y1="88.5" x2="402.3" y2="88.5"/>
      </g>
      <line class="cls-4" x1="969.43" y1="99.49" x2="969.43" y2="85.5"/>
      <g>
        <line class="cls-3" x1="1536.43" y1="99.49" x2="1536.43" y2="99.49"/>
        <line class="cls-3" x1="1536.43" y1="87.5" x2="1536.43" y2="87.5"/>
      </g>
      <g>
        <line class="cls-3" x1="118.73" y1="264.83" x2="118.73" y2="264.83"/>
        <line class="cls-3" x1="118.73" y1="276.81" x2="118.73" y2="276.81"/>
      </g>
      <g>
        <line class="cls-3" x1="685.87" y1="264.83" x2="685.87" y2="264.83"/>
        <line class="cls-3" x1="685.87" y1="276.81" x2="685.87" y2="276.81"/>
      </g>
      <g>
        <line class="cls-3" x1="1253" y1="264.83" x2="1253" y2="264.83"/>
        <line class="cls-3" x1="1253" y1="275.81" x2="1253" y2="275.81"/>
      </g>
      <g>
        <path class="cls-2" d="M1654.86,235.9c-4.61-57.79-51.63-104.48-109.45-108.71-33.19-2.43-63.79,8.88-86.7,28.81-15.36,13.36-37.21,16.3-55.8,7.99h0c-18.93-8.47-30.8-27.22-31.26-47.94-.05-2.2-.16-4.42-.33-6.64-4.48-58.37-52.22-105.44-110.64-109.16-68.95-4.39-126.45,50.46-126.45,118.48v.31c.02,18.83-11.03,35.92-28.23,43.61l-6.31,2.82c-16.79,7.51-36.71,4.91-50.28-7.5-8.87-8.11-18.98-14.87-29.99-20.01-.12-.05-.23-.11-.35-.17-1.22-.57-2.46-1.1-3.7-1.63-.47-.2-.94-.4-1.41-.6-.97-.39-1.95-.77-2.94-1.14-.77-.29-1.53-.58-2.3-.85-.76-.27-1.53-.52-2.3-.78-1.01-.33-2.02-.66-3.05-.97-.59-.18-1.19-.35-1.79-.51-1.2-.34-2.41-.67-3.63-.97-.48-.12-.96-.23-1.44-.34-1.33-.31-2.67-.61-4.02-.87-.43-.08-.85-.16-1.28-.24-1.38-.26-2.76-.49-4.15-.7-.45-.07-.91-.13-1.37-.2-1.33-.18-2.66-.34-4-.48-.58-.06-1.16-.12-1.74-.17-.55-.05-1.09-.12-1.64-.16-.57-.04-1.13-.05-1.69-.08-1-.06-2-.11-3.01-.14-.94-.03-1.88-.06-2.81-.07-.48,0-.95-.03-1.42-.03-.64,0-1.27,.03-1.9,.04-.82,.01-1.64,.03-2.45,.06-1.21,.04-2.41,.11-3.61,.19-.71,.05-1.42,.09-2.13,.15-1.35,.11-2.69,.26-4.02,.42-.55,.07-1.11,.12-1.65,.19-1.64,.22-3.27,.48-4.89,.76-.24,.04-.47,.07-.71,.12-5.79,1.06-11.43,2.54-16.89,4.4-.02,0-.04,.01-.06,.02-1.78,.61-3.53,1.26-5.27,1.95-.14,.06-.28,.11-.41,.17-1.62,.65-3.23,1.33-4.81,2.05-.18,.08-.36,.17-.54,.25-1.56,.71-3.1,1.46-4.62,2.24-.16,.08-.32,.17-.49,.25-1.55,.8-3.08,1.64-4.58,2.51-.11,.06-.22,.13-.34,.19-1.58,.92-3.14,1.87-4.68,2.86-.02,.02-.05,.03-.07,.05-4.94,3.19-9.65,6.71-14.05,10.57-.6,.53-1.23,1.01-1.85,1.51-15.2,11.77-35.83,14.08-53.53,6.16h0c-18.93-8.47-30.8-27.22-31.26-47.94-.05-2.2-.16-4.42-.33-6.64-2.21-28.72-14.9-54.69-34.17-74.12-.02-.02-.04-.04-.06-.06-1.11-1.12-2.24-2.21-3.39-3.28-.15-.14-.29-.28-.43-.41-1.04-.96-2.09-1.89-3.16-2.81-.27-.24-.54-.48-.82-.71-.96-.81-1.94-1.6-2.92-2.38-.4-.32-.81-.65-1.21-.96-.88-.68-1.78-1.34-2.69-2-.53-.39-1.06-.78-1.59-1.15-.81-.57-1.64-1.12-2.46-1.67-.65-.43-1.29-.86-1.94-1.28-.75-.48-1.51-.94-2.28-1.4-.75-.45-1.49-.91-2.25-1.35-.7-.41-1.41-.79-2.13-1.19-.83-.46-1.66-.92-2.51-1.36-.67-.35-1.35-.68-2.02-1.01-.9-.45-1.8-.89-2.72-1.32-.65-.3-1.3-.58-1.95-.87-.96-.42-1.92-.85-2.89-1.25-.64-.26-1.29-.51-1.93-.76-.99-.39-1.98-.77-2.99-1.13-.66-.24-1.32-.46-1.99-.68-1-.34-2.01-.68-3.02-.99-.69-.21-1.38-.41-2.07-.61-1-.29-2-.58-3.01-.84-.73-.19-1.48-.37-2.21-.54-.98-.23-1.95-.47-2.94-.68-.79-.17-1.6-.32-2.4-.47-.94-.18-1.88-.36-2.83-.52-.86-.14-1.74-.27-2.61-.39-.89-.13-1.78-.25-2.68-.36-.94-.11-1.89-.2-2.85-.29-.56-.05-1.12-.13-1.68-.17-.24-.02-.48-.02-.72-.04-.38-.03-.75-.07-1.12-.1-.97-.06-1.92-.07-2.88-.11-.92-.04-1.85-.09-2.77-.1-1.24-.02-2.48,0-3.72,.02-.96,.01-1.93,0-2.89,.04-1.15,.04-2.28,.13-3.42,.21-1.03,.07-2.07,.12-3.09,.21-.98,.09-1.95,.23-2.92,.34-1.16,.14-2.33,.25-3.48,.42-.47,.07-.93,.17-1.4,.24-5.47,.87-10.81,2.11-16,3.71-.19,.06-.39,.11-.59,.17-1.59,.5-3.17,1.05-4.73,1.61-.36,.13-.73,.25-1.09,.38-1.51,.56-2.99,1.17-4.47,1.78-.4,.17-.81,.32-1.2,.49-1.46,.63-2.9,1.3-4.33,1.99-.39,.19-.79,.37-1.18,.56-1.42,.7-2.82,1.44-4.21,2.2-.38,.21-.76,.41-1.14,.62-1.39,.78-2.76,1.59-4.11,2.42-.35,.22-.71,.43-1.06,.65-1.36,.86-2.71,1.74-4.03,2.65-.32,.22-.63,.43-.95,.65-1.34,.94-2.66,1.91-3.96,2.9-.27,.21-.55,.42-.82,.63-1.32,1.03-2.62,2.08-3.9,3.17-.22,.19-.45,.38-.67,.57-1.31,1.13-2.6,2.28-3.86,3.46-.16,.15-.33,.31-.49,.47-1.3,1.24-2.58,2.5-3.83,3.79-.09,.1-.19,.2-.28,.3-1.3,1.36-2.58,2.75-3.81,4.17-.01,.01-.02,.03-.03,.04-18.23,20.94-29.23,48.3-29.14,78.19,0,18.81-11.05,35.87-28.22,43.55l-6.31,2.82c-16.79,7.51-36.71,4.91-50.28-7.5-21.12-19.31-49.22-31.11-80.03-31.11s-57.28,11.13-78.18,29.46c-14.96,13.12-36.21,16.27-54.38,8.14l-.88-.39c-19.1-8.54-30.97-27.29-31.43-48.02-.04-1.97-.14-3.94-.28-5.93C233.04,52.16,186.27,4.97,128.35,.38,55.31-5.4-5.43,55.36,.39,128.41c4.6,57.79,51.62,104.48,109.44,108.72,33.2,2.43,63.8-8.88,86.72-28.81,15.36-13.36,37.21-16.3,55.8-7.99,18.92,8.47,30.8,27.21,31.26,47.94,.09,4.12,.39,8.28,.92,12.47,6.7,53.79,50.27,96.76,104.14,102.8,71.55,8.02,132.37-48,132.37-117.96v-.31c-.02-18.83,11.03-35.92,28.23-43.61l6.31-2.82c16.79-7.51,36.71-4.91,50.28,7.5,8.86,8.1,18.97,14.86,29.97,20,.12,.06,.24,.11,.35,.17,1.23,.57,2.47,1.11,3.72,1.63,.46,.2,.92,.4,1.38,.59,.98,.4,1.97,.78,2.96,1.15,.76,.29,1.52,.57,2.29,.85,.77,.27,1.54,.52,2.32,.78,1,.33,2.01,.66,3.03,.96,.6,.18,1.21,.35,1.82,.52,1.2,.34,2.4,.66,3.61,.97,.48,.12,.97,.23,1.45,.35,1.33,.31,2.66,.6,4,.87,.43,.09,.87,.17,1.3,.25,1.37,.26,2.76,.49,4.15,.7,.45,.07,.91,.13,1.36,.2,1.33,.18,2.66,.34,4,.48,.58,.06,1.16,.12,1.75,.17,.54,.05,1.08,.12,1.63,.16,.57,.04,1.13,.05,1.69,.08,1,.06,2.01,.11,3.02,.14,.94,.03,1.87,.06,2.8,.07,.48,0,.95,.03,1.44,.03,.65,0,1.29-.03,1.93-.04,.79-.01,1.58-.03,2.36-.05,1.24-.04,2.46-.12,3.69-.2,.68-.05,1.36-.08,2.03-.14,1.41-.12,2.8-.27,4.2-.44,.48-.06,.97-.1,1.46-.17,5.8-.77,11.47-1.96,16.99-3.54,.09-.03,.18-.06,.27-.08,1.73-.5,3.45-1.04,5.15-1.62,.22-.08,.44-.16,.66-.23,1.58-.55,3.14-1.12,4.68-1.73,.25-.1,.49-.2,.74-.3,1.53-.61,3.04-1.26,4.53-1.93,.22-.1,.45-.2,.67-.31,1.54-.71,3.06-1.45,4.57-2.22,.15-.08,.3-.15,.45-.23,1.63-.84,3.24-1.72,4.83-2.64,0,0,.02-.01,.03-.02,6.43-3.72,12.49-8,18.09-12.81,13.36-11.49,31.3-15.61,47.98-11.31,2.81,.74,5.58,1.68,8.27,2.88,18.92,8.47,30.8,27.21,31.26,47.94,.09,4.12,.39,8.28,.92,12.47,.13,1.02,.36,2,.51,3.01,.18,1.15,.37,2.3,.58,3.45,.51,2.79,1.12,5.53,1.82,8.25,.07,.28,.14,.56,.22,.83,9.49,35.55,35.29,64.64,68.75,78.74,.16,.07,.32,.14,.48,.21,1.79,.75,3.6,1.45,5.43,2.1,1.55,.56,3.11,1.09,4.69,1.59,1.29,.4,2.58,.78,3.88,1.14,2.15,.59,4.32,1.13,6.52,1.61,.93,.2,1.87,.38,2.81,.55,2.58,.49,5.19,.91,7.82,1.22,.2,.02,.4,.07,.61,.1,.61,.07,1.21,.1,1.82,.15,.74,.07,1.48,.17,2.23,.23,.4,.03,.8,.03,1.2,.06,1.23,.09,2.46,.14,3.68,.19,1.04,.04,2.07,.08,3.1,.09,1.15,.02,2.3,0,3.45-.02,1.08-.02,2.17-.03,3.25-.08,1.07-.05,2.13-.12,3.2-.19,1.14-.08,2.28-.16,3.41-.27,.97-.1,1.94-.22,2.9-.34,1.2-.15,2.4-.3,3.59-.48,.87-.13,1.73-.3,2.6-.45,1.26-.22,2.53-.45,3.78-.71,.76-.16,1.51-.35,2.26-.52,1.34-.31,2.67-.62,3.99-.98,.63-.17,1.25-.36,1.88-.54,1.42-.41,2.84-.82,4.23-1.28,.49-.16,.96-.34,1.45-.5,1.52-.52,3.03-1.05,4.53-1.63,.31-.12,.61-.25,.92-.38,1.65-.66,3.29-1.33,4.9-2.06,.09-.04,.18-.09,.27-.13,41.22-18.73,69.88-60.33,69.74-108.51,0-18.81,11.05-35.86,28.22-43.55l6.31-2.82c16.79-7.51,36.71-4.91,50.28,7.5,21.12,19.31,49.22,31.11,80.03,31.11s56.53-10.82,77.32-28.7c15.62-13.44,37.49-16.84,56.3-8.42h0c18.93,8.47,30.8,27.22,31.26,47.95,.05,2.21,.16,4.44,.33,6.67,4.44,57.64,51.09,104.41,108.72,108.98,73.05,5.8,133.81-54.98,127.98-128.03Z"/>
        <circle class="cls-1" cx="118.73" cy="118.73" r="87.74" transform="translate(-9.24 227.44) rotate(-85.35)"/>
        <circle class="cls-1" cx="402.3" cy="245.59" r="87.74"/>
        <circle class="cls-1" cx="685.86" cy="118.73" r="87.74" transform="translate(457.66 776.32) rotate(-80.68)"/>
        <circle class="cls-1" cx="1252.98" cy="118.73" r="87.74" transform="translate(932.95 1335.95) rotate(-80.68)"/>
        <circle class="cls-1" cx="969.43" cy="245.59" r="87.74"/>
        <circle class="cls-1" cx="1536.55" cy="245.59" r="87.74"/>
        <g>
          <path d="M126.88,152.73v10.4c0,.08-.01,.16-.01,.22,0-.02,.04-.27,.01-.08-.03,.14-.07,.29-.11,.43-.02,.07-.04,.13-.07,.21,.06-.16,.07-.13-.01,0-.08,.12-.14,.24-.22,.37-.16,.24,.12-.09-.1,.11-.1,.1-.2,.2-.31,.3,.22-.2-.09,.06-.19,.11-.06,.03-.4,.21-.26,.14,.14-.07-.21,.07-.28,.09-.07,.02-.46,.09-.29,.07,.19-.02-.18,0-.23,0h-12.2c-.1,0-.2-.01-.3-.01,.29,.01-.02-.01-.14-.03-.14-.03-.28-.08-.42-.13,.29,.11-.09-.06-.19-.11-.06-.03-.37-.26-.24-.16,.12,.1-.16-.16-.2-.2-.06-.04-.1-.1-.14-.16,.02,.02,.14,.21,.04,.06-.1-.14-.18-.29-.27-.43-.16-.24,.01,.14-.06-.13-.03-.14-.08-.28-.11-.42-.08-.3-.01,.17-.01-.16v-.17c-.01-.34,0-.69,0-1.02v-9.28l-1.67,1.67h19.65c.87,0,1.71-.77,1.67-1.67s-.73-1.67-1.67-1.67h-19.65c-.9,0-1.67,.77-1.67,1.67v8.7c0,1.57-.07,3.15,.87,4.53,.97,1.42,2.44,2.29,4.15,2.45,.34,.03,.7,.02,1.06,.02h10c1.5,0,2.98,.04,4.33-.79,1.3-.81,2.28-2.18,2.5-3.7,.08-.53,.09-1.05,.09-1.58v-9.63c0-.87-.77-1.71-1.67-1.67-.9,.03-1.67,.72-1.67,1.66h0Z"/>
          <path d="M140.15,128.52v10.87c0,.46-.01,.91-.06,1.37-.01,.1-.02,.2-.03,.3,.01-.07,.06-.32,0,.01-.03,.2-.07,.4-.11,.6-.09,.45-.2,.88-.33,1.31-.07,.21-.13,.42-.21,.63-.03,.09-.07,.19-.11,.28-.02,.04-.13,.33-.06,.14,.08-.19-.04,.1-.07,.13-.06,.11-.1,.22-.16,.33-.1,.2-.2,.39-.31,.59-.2,.37-.42,.71-.66,1.06-.11,.16-.22,.32-.34,.48,.19-.24,.03-.03-.01,.01-.1,.11-.19,.22-.28,.33-.26,.29-.52,.58-.8,.85-.16,.16-.32,.3-.49,.45-.08,.07-.14,.12-.22,.19-.03,.03-.38,.3-.23,.19,.16-.12-.09,.07-.12,.09-.08,.06-.16,.11-.23,.17-.18,.12-.37,.24-.55,.37-.38,.23-.76,.46-1.16,.65-.18,.09-.36,.17-.53,.26,.3-.13-.19,.08-.29,.11-.42,.16-.85,.29-1.28,.41-.41,.11-.83,.2-1.26,.27-.04,.01-.37,.04-.16,.02,.26-.03-.24,.02-.23,.02-.23,.02-.47,.03-.69,.04-1.19,.04-2.38,.01-3.57,.01h-14.07c-1.29,0-2.61,.07-3.9-.06-.1-.01-.2-.02-.3-.03,.31,.03,.06,.01-.01,0-.2-.03-.4-.07-.6-.11-.47-.09-.92-.21-1.38-.36-.19-.06-.38-.12-.57-.19-.07-.02-.68-.28-.36-.13-.4-.18-.8-.38-1.19-.6-.34-.19-.67-.4-.99-.62-.16-.11-.32-.22-.48-.34,.26,.19,0,0-.07-.06-.09-.08-.19-.16-.28-.23-.31-.27-.61-.56-.9-.86-.16-.16-.3-.32-.45-.49-.07-.08-.12-.14-.19-.22-.02-.03-.27-.33-.14-.18,.12,.16-.07-.09-.09-.12-.07-.1-.14-.2-.21-.3-.11-.16-.22-.32-.32-.49-.23-.38-.46-.76-.65-1.16-.09-.18-.17-.36-.26-.53,.13,.29-.08-.19-.11-.29-.16-.42-.29-.85-.41-1.28-.11-.45-.2-.88-.28-1.34-.01-.07-.03-.32,0-.01-.01-.1-.02-.2-.03-.3-.02-.26-.04-.51-.04-.77-.01-.24-.01-.49-.01-.75v-10.72c0-.06,.01-.17,.01-.23,0-.17-.09,.2,.02-.07,0,.01,.17-.43,.07-.21-.09,.19,.06-.08,.08-.12s.2-.29,.08-.12c-.14,.19,.17-.16,.16-.16,.04-.06,.24-.19,0-.01,.08-.06,.17-.1,.24-.16,.06-.03,.29-.13,0-.01,.13-.06,.28-.09,.42-.12-.29,.08,.09,0,.23,0h33.02c2.43,0,4.86-.04,7.29,0h.03c-.14,0,.27,.01,.23,.01,.21,0-.17-.11,0,.01,.08,.06,.26,.07,.36,.11-.09-.03-.22-.14,0,.01,.08,.06,.17,.1,.24,.16-.08-.06-.19-.2,0,.01,.07,.07,.13,.13,.2,.21-.2-.22-.04-.06,0,.01,.04,.09,.1,.17,.14,.26-.13-.26-.02-.08,0,0,0-.01,.12,.46,.07,.21-.12-.26-.06,.21-.06,.21,.02,.87,.76,1.71,1.67,1.67,.89-.04,1.69-.73,1.67-1.67-.07-2.46-1.95-4.42-4.41-4.56-.21-.01-.42,0-.63,0h-32.42c-2.49,0-5-.06-7.49,0-2.01,.04-3.76,1.31-4.37,3.24-.24,.78-.2,1.61-.2,2.41v7.18c0,2.21-.08,4.42,.51,6.59,.99,3.69,3.46,6.93,6.73,8.91,2.44,1.48,5.21,2.12,8.04,2.12h18.71c2.61,0,5.12-.47,7.45-1.66,3.42-1.74,6.02-4.84,7.28-8.44,.79-2.25,.79-4.56,.79-6.91v-8.87c0-.87-.77-1.71-1.67-1.67-.91,.03-1.67,.72-1.67,1.66h0Z"/>
          <path d="M112.96,77.13v42.53c0,1.96-.11,3.94,0,5.9v.09l1.67-1.67h-12.89l1.67,1.67v-48.74c0-.11,.09-.72,.02-.4,.04-.24,.1-.49,.17-.73,.03-.12,.08-.23,.11-.36,.03-.08,.16-.38,.02-.08,.09-.2,.19-.4,.3-.59,.11-.19,.23-.37,.36-.56-.18,.24-.03,.04,.01-.01,.1-.11,.19-.22,.29-.32,.17-.18,.34-.33,.53-.5,.04-.04,.26-.18,.01-.01,.1-.07,.2-.14,.3-.2,.19-.12,.38-.23,.57-.32,.09-.04,.18-.09,.27-.12-.32,.14,.08-.02,.16-.04,.23-.08,.48-.14,.72-.2,.1-.02,.2-.03,.3-.06-.33,.07,0,0,.09-.01,.43-.03,.88-.03,1.31,.02-.33-.04,0,.01,.08,.02,.12,.02,.24,.06,.37,.09,.21,.06,.42,.13,.63,.21,.27,.1-.33-.18,.08,.03l.27,.13c.21,.11,.41,.26,.62,.38,.39,.24-.14-.13,.07,.04,.09,.08,.19,.16,.28,.23,.16,.14,.31,.3,.46,.47,.08,.09,.16,.18,.23,.28-.04-.06-.17-.24,0,.01,.13,.21,.27,.41,.38,.62,.06,.11,.11,.22,.17,.33,.12,.26-.11-.37,.03,.08,.07,.21,.14,.42,.2,.65,.02,.1,.13,.71,.09,.38,.04,.23,.06,.5,.07,.76,.01,.87,.76,1.71,1.67,1.67,.89-.04,1.68-.73,1.67-1.67-.06-4.59-4.06-8.53-8.73-8.09-4.21,.4-7.45,3.85-7.5,8.11-.02,2.56,0,5.12,0,7.69v32.15c0,2.84-.08,5.69,0,8.52v.12c0,.9,.77,1.67,1.67,1.67h12.89c.9,0,1.67-.77,1.67-1.67v-42.53c0-1.96,.06-3.94,0-5.9v-.09c0-.87-.77-1.71-1.67-1.67-.91,.06-1.67,.75-1.67,1.68h0Z"/>
          <path d="M134.04,77.13v42.53c0,1.96-.11,3.94,0,5.9v.09l1.67-1.67h-12.89l1.67,1.67v-48.74c0-.11,.09-.72,.02-.4,.04-.24,.1-.49,.17-.73,.03-.12,.08-.23,.11-.36,.03-.08,.16-.38,.02-.08,.09-.2,.19-.4,.3-.59,.11-.19,.23-.37,.36-.56-.18,.24-.03,.04,.01-.01,.1-.11,.19-.22,.29-.32,.17-.18,.34-.33,.53-.5,.04-.04,.26-.18,.01-.01,.1-.07,.2-.14,.3-.2,.19-.12,.38-.23,.57-.32,.09-.04,.18-.09,.27-.12-.32,.14,.08-.02,.16-.04,.23-.08,.48-.14,.72-.2,.1-.02,.2-.03,.3-.06-.33,.07,0,0,.09-.01,.43-.03,.88-.03,1.31,.02-.33-.04,0,.01,.08,.02,.12,.02,.24,.06,.37,.09,.21,.06,.42,.13,.63,.21,.27,.1-.33-.18,.08,.03l.27,.13c.21,.11,.41,.26,.62,.38,.39,.24-.14-.13,.07,.04,.09,.08,.19,.16,.28,.23,.16,.14,.31,.3,.46,.47,.08,.09,.16,.18,.23,.28-.04-.06-.17-.24,0,.01,.13,.21,.27,.41,.38,.62,.06,.11,.11,.22,.17,.33,.12,.26-.11-.37,.03,.08,.07,.21,.14,.42,.2,.65,.02,.1,.13,.71,.09,.38,.06,.23,.07,.5,.07,.76,.01,.87,.76,1.71,1.67,1.67,.89-.04,1.68-.73,1.67-1.67-.06-4.59-4.06-8.53-8.73-8.09-4.21,.4-7.45,3.85-7.5,8.11-.02,2.56,0,5.12,0,7.69v32.15c0,2.84-.08,5.69,0,8.52v.12c0,.9,.77,1.67,1.67,1.67h12.89c.9,0,1.67-.77,1.67-1.67v-42.53c0-1.96,.06-3.94,0-5.9v-.09c0-.87-.77-1.71-1.67-1.67-.9,.06-1.67,.75-1.67,1.68h0Z"/>
        </g>
        <path class="cls-5" d="M364.51,203.22v84.73c0,1.21,.48,2.38,1.34,3.24,.86,.86,2.02,1.34,3.24,1.34h66.41c1.21,0,2.38-.48,3.24-1.34,.86-.86,1.34-2.02,1.34-3.24v-84.73c0-1.21-.48-2.38-1.34-3.24-.86-.86-2.02-1.34-3.24-1.34h-66.41c-1.21,0-2.38,.48-3.24,1.34-.86,.86-1.34,2.02-1.34,3.24h0Zm73.28,84.73c0,1.26-1.03,2.29-2.29,2.29h-66.41c-1.26,0-2.29-1.03-2.29-2.29v-13.74h70.99v13.74Zm0-84.73v68.7h-70.99v-68.7c0-1.26,1.03-2.29,2.29-2.29h66.41c1.26,0,2.29,1.03,2.29,2.29h0Zm-42.36,84.73h13.74c.3,0,.59-.12,.81-.34s.34-.51,.34-.81v-9.16c0-.3-.12-.59-.34-.81s-.51-.34-.81-.34h-13.74c-.63,0-1.14,.51-1.14,1.15v9.16h0c0,.3,.12,.59,.34,.81s.51,.34,.81,.34h0Zm1.14-9.16h11.45v6.87h-11.45v-6.87Zm21.75,8.01h0c1.21,0,2.38-.48,3.24-1.34,.86-.86,1.34-2.02,1.34-3.24s-.48-2.38-1.34-3.24c-.86-.86-2.02-1.34-3.24-1.34s-2.38,.48-3.24,1.34-1.34,2.02-1.34,3.24c0,1.21,.48,2.38,1.34,3.24s2.02,1.34,3.24,1.34h0Zm0-6.87h0c.93,0,1.76,.56,2.12,1.41,.35,.86,.16,1.84-.5,2.5-.66,.65-1.64,.85-2.5,.5-.86-.35-1.41-1.19-1.41-2.12,0-1.26,1.03-2.29,2.29-2.29h0Zm11.45,6.87h0c1.21,0,2.38-.48,3.24-1.34s1.34-2.02,1.34-3.24-.48-2.38-1.34-3.24-2.02-1.34-3.24-1.34-2.38,.48-3.24,1.34-1.34,2.02-1.34,3.24c0,1.21,.48,2.38,1.34,3.24s2.02,1.34,3.24,1.34h0Zm0-6.87h0c.93,0,1.76,.56,2.12,1.41,.35,.86,.16,1.84-.5,2.5s-1.64,.85-2.5,.5c-.86-.35-1.41-1.19-1.41-2.12,0-1.26,1.03-2.29,2.29-2.29h0Zm-54.96,6.87c1.21,0,2.38-.48,3.24-1.34s1.34-2.02,1.34-3.24-.48-2.38-1.34-3.24-2.02-1.34-3.24-1.34-2.38,.48-3.24,1.34-1.34,2.02-1.34,3.24c0,1.21,.48,2.38,1.34,3.24s2.02,1.34,3.24,1.34h0Zm0-6.87c.93,0,1.76,.56,2.12,1.41,.35,.86,.16,1.84-.5,2.5s-1.64,.85-2.5,.5c-.86-.35-1.41-1.19-1.41-2.12,0-1.26,1.03-2.29,2.29-2.29h0Zm11.45,6.87c1.22,0,2.38-.48,3.24-1.34s1.34-2.02,1.34-3.24-.48-2.38-1.34-3.24-2.02-1.34-3.24-1.34-2.38,.48-3.24,1.34c-.86,.86-1.34,2.02-1.34,3.24,0,1.21,.48,2.38,1.34,3.24,.86,.86,2.02,1.34,3.24,1.34h0Zm0-6.87c.93,0,1.76,.56,2.12,1.41,.35,.86,.16,1.84-.5,2.5-.65,.65-1.64,.85-2.5,.5-.86-.35-1.41-1.19-1.41-2.12,0-1.26,1.03-2.29,2.29-2.29h0Zm16.03-12.59c8.2,0,16.06-3.26,21.86-9.05,5.8-5.8,9.05-13.66,9.05-21.86s-3.26-16.06-9.05-21.86c-7.81-7.81-19.19-10.86-29.86-8-10.67,2.86-19,11.19-21.86,21.86-2.86,10.67,.19,22.05,8,29.86,5.78,5.82,13.66,9.08,21.86,9.05h0Zm-20.24-51.15c6.29-6.29,15.15-9.3,23.98-8.14,8.82,1.16,16.6,6.36,21.05,14.07,4.45,7.71,5.06,17.04,1.66,25.27-3.41,8.22-10.44,14.39-19.04,16.69-8.6,2.3-17.77,.48-24.83-4.94-7.06-5.42-11.2-13.81-11.2-22.71-.02-7.6,3-14.88,8.38-20.24h0Zm20.24,39.7c10.73,0,19.46-8.73,19.46-19.46s-8.73-19.46-19.46-19.46-19.46,8.73-19.46,19.46,8.73,19.46,19.46,19.46Zm0-36.64c9.47,0,17.17,7.7,17.17,17.17s-7.7,17.17-17.17,17.17-17.17-7.7-17.17-17.17,7.7-17.17,17.17-17.17h0Z"/>
        <g>
          <path d="M685.86,176.64c-15.95,0-28.93-12.98-28.93-28.93,0-11.59,7.04-22.14,17.64-26.64v-48.96c0-3.02,1.17-5.85,3.3-7.99,2.13-2.13,4.97-3.31,7.99-3.31s5.85,1.17,7.99,3.31c2.14,2.13,3.31,4.97,3.31,7.99v48.96c10.59,4.5,17.63,15.05,17.63,26.64,0,15.95-12.98,28.93-28.93,28.93h0Zm0-112.22c-2.05,0-3.98,.8-5.44,2.25-1.45,1.45-2.25,3.38-2.25,5.44v51.44s-1.17,.44-1.17,.44c-9.85,3.68-16.47,13.21-16.47,23.73,0,13.96,11.36,25.32,25.32,25.32s25.32-11.36,25.32-25.32c0-10.51-6.62-20.05-16.47-23.73l-1.17-.44v-51.44c0-2.05-.79-3.98-2.25-5.44-1.45-1.45-3.39-2.25-5.44-2.25h0Z"/>
          <path d="M685.86,162.74c-8.29,0-15.03-6.74-15.03-15.03s6.74-15.03,15.03-15.03,15.03,6.74,15.03,15.03c0,8.29-6.74,15.03-15.03,15.03Zm0-26.45c-6.3,0-11.42,5.12-11.42,11.42s5.12,11.42,11.42,11.42,11.42-5.13,11.42-11.42c0-6.3-5.12-11.42-11.42-11.42Z"/>
          <path d="M685.86,136.29c-1,0-1.8-.81-1.8-1.8v-62.37c0-1,.81-1.8,1.8-1.8s1.8,.81,1.8,1.8v62.37c0,1-.81,1.8-1.8,1.8Z"/>
          <path d="M705.37,112.13h7.61v3.61h-7.61v-3.61Z"/>
          <path d="M705.37,103.76h7.61v3.61h-7.61v-3.61Z"/>
          <path d="M705.37,95.4h7.61v3.61h-7.61v-3.61Z"/>
          <path d="M705.37,87.03h7.61v3.61h-7.61v-3.61Z"/>
          <path d="M705.37,78.67h7.61v3.61h-7.61v-3.61Z"/>
          <path d="M705.37,70.31h7.61v3.61h-7.61v-3.61Z"/>
        </g>
        <g>
          <path d="M1007.02,197.93h-75.18c-5.56,0-10.07,4.51-10.07,10.07v75.18c0,5.56,4.51,10.07,10.07,10.07h75.18c5.56,0,10.07-4.51,10.07-10.07v-75.18c0-5.56-4.51-10.07-10.07-10.07h0Zm7.83,85.25c0,4.32-3.51,7.83-7.83,7.83h-75.18c-4.32,0-7.83-3.51-7.83-7.83v-75.18c0-4.32,3.51-7.83,7.83-7.83h75.18c4.32,0,7.83,3.51,7.83,7.83v75.18Z"/>
          <path d="M969.44,206.49c-21.57,0-39.09,17.54-39.09,39.11s17.54,39.09,39.09,39.09,39.09-17.54,39.09-39.09-17.53-39.11-39.09-39.11h0Zm0,75.97c-20.33,0-36.86-16.53-36.86-36.86s16.53-36.87,36.86-36.87,36.86,16.55,36.86,36.87-16.53,36.86-36.86,36.86h0Z"/>
          <path d="M1000.67,244.98c-1.4-1.64-3.43-2.58-5.58-2.58h-.01l-14.97,.03c-.28-.97-.71-1.89-1.24-2.74,7.76-2.98,14.03-3.71,19.78-4.15,.91-.07,1.67-.6,2.05-1.43,.37-.8,.28-1.77-.24-2.49l-3.98-5.52c-1.27-1.76-3.22-2.86-5.36-3.02-2.16-.16-4.26,.61-5.78,2.13l-10.56,10.6c-.88-.48-1.82-.83-2.81-1.06,3.38-7.6,7.3-12.54,11.04-16.92,.6-.68,.76-1.61,.45-2.46-.31-.83-1.04-1.44-1.94-1.59l-6.72-1.09c-2.13-.34-4.29,.25-5.93,1.65-1.64,1.4-2.58,3.44-2.58,5.6l.03,14.97c-.97,.28-1.89,.71-2.74,1.24-2.98-7.76-3.71-14.03-4.15-19.78-.07-.91-.6-1.67-1.43-2.05-.82-.37-1.77-.28-2.49,.24l-5.52,3.98c-1.76,1.27-2.86,3.22-3.02,5.36-.16,2.14,.61,4.26,2.13,5.78l10.6,10.56c-.48,.88-.83,1.82-1.06,2.81-7.6-3.38-12.54-7.3-16.92-11.04-.68-.6-1.61-.76-2.46-.45-.83,.31-1.44,1.04-1.59,1.94l-1.09,6.72c-.34,2.13,.25,4.29,1.65,5.93,1.4,1.64,3.43,2.58,5.58,2.58h.01l14.97-.03c.28,.97,.71,1.89,1.24,2.74-7.76,2.98-14.03,3.71-19.78,4.15-.91,.07-1.67,.6-2.05,1.43-.37,.8-.28,1.77,.24,2.49l3.98,5.52c1.27,1.76,3.22,2.86,5.36,3.02,.19,.01,.39,.03,.58,.03,1.95,0,3.81-.77,5.2-2.16l10.56-10.6c.88,.48,1.82,.83,2.81,1.06-3.38,7.6-7.3,12.54-11.04,16.92-.6,.68-.76,1.61-.45,2.46,.31,.83,1.04,1.44,1.94,1.59l6.72,1.09c.39,.06,.79,.09,1.18,.09,1.73,0,3.41-.61,4.75-1.76,1.64-1.4,2.58-3.44,2.58-5.6l-.03-14.97c.98-.28,1.89-.71,2.74-1.24,2.98,7.76,3.71,14.03,4.15,19.78,.07,.91,.6,1.67,1.43,2.05,.33,.15,.68,.22,1.04,.22,.51,0,1.03-.16,1.46-.46l5.52-3.98c1.76-1.27,2.86-3.22,3.02-5.36,.18-2.14-.61-4.26-2.13-5.78l-10.6-10.56c.48-.88,.83-1.82,1.06-2.81,7.6,3.38,12.54,7.3,16.92,11.04,.46,.39,1.03,.6,1.59,.6,.28,0,.58-.04,.86-.15,.83-.31,1.44-1.04,1.59-1.94l1.09-6.72c.33-2.1-.27-4.27-1.67-5.91h0Zm-31.23,9.5c-4.9,0-8.88-3.99-8.88-8.88s3.99-8.89,8.88-8.89,8.88,3.99,8.88,8.89-3.98,8.88-8.88,8.88Zm17.45-27.69c1.06-1.06,2.52-1.61,4.02-1.49,1.49,.12,2.86,.88,3.74,2.1l3.98,5.52c.07,.1,.06,.19,.03,.25-.04,.09-.1,.13-.19,.13-6.08,.48-12.7,1.24-21.04,4.54-.25-.27-.52-.51-.8-.74l10.27-10.32Zm-18.41-6.84c0-1.5,.65-2.92,1.79-3.89,1.15-.97,2.65-1.39,4.13-1.15l6.72,1.09c.12,.01,.16,.09,.19,.16,.03,.09,.01,.16-.04,.24-3.96,4.63-8.1,9.86-11.66,18.08-.06,0-.12-.01-.18-.01-.31,0-.61,.01-.92,.04l-.02-14.57Zm-17.84,8.18c-1.06-1.06-1.61-2.52-1.49-4.02,.12-1.49,.88-2.86,2.1-3.74l5.52-3.98c.1-.07,.19-.04,.25-.03,.09,.04,.13,.1,.13,.19,.48,6.08,1.24,12.7,4.54,21.04-.27,.25-.51,.52-.74,.8l-10.32-10.27Zm-6.84,18.41s-.01,0,0,0c-1.5,0-2.92-.65-3.89-1.79-.97-1.15-1.4-2.65-1.15-4.13l1.09-6.72c.01-.12,.09-.16,.16-.19,.09-.03,.16-.01,.24,.04,4.63,3.96,9.86,8.1,18.08,11.66,0,.06-.01,.12-.01,.18,0,.31,.01,.61,.04,.91l-14.57,.03Zm8.18,17.84c-1.06,1.06-2.53,1.61-4.02,1.49-1.49-.12-2.86-.88-3.74-2.1l-3.98-5.52c-.07-.1-.06-.19-.03-.25,.04-.09,.1-.13,.19-.13,6.08-.48,12.7-1.24,21.04-4.54,.25,.27,.52,.51,.8,.74l-10.28,10.32Zm18.41,6.84c0,1.5-.65,2.92-1.79,3.89-1.15,.97-2.65,1.39-4.13,1.15l-6.72-1.09c-.12-.01-.16-.09-.19-.16-.03-.09-.01-.16,.04-.24,3.96-4.63,8.1-9.86,11.66-18.08,.06,0,.12,.01,.18,.01,.31,0,.61-.01,.92-.04l.02,14.57Zm17.84-8.18c1.06,1.06,1.61,2.52,1.49,4.02-.12,1.49-.88,2.86-2.1,3.74l-5.52,3.98c-.09,.07-.19,.06-.25,.03-.09-.04-.13-.1-.13-.19-.48-6.08-1.24-12.7-4.54-21.03,.27-.25,.51-.52,.74-.8l10.32,10.26Zm11.88-12.48l-1.09,6.72c-.01,.12-.09,.16-.16,.19-.09,.03-.16,.01-.24-.04-4.63-3.96-9.86-8.1-18.08-11.66,0-.06-.01-.79-.04-1.09l14.57-.03h.01c1.49,0,2.9,.65,3.89,1.79,.97,1.13,1.39,2.64,1.15,4.13h0Z"/>
          <path d="M969.44,240.15c-2.99,0-5.44,2.44-5.44,5.44s2.44,5.44,5.44,5.44,5.44-2.44,5.44-5.44-2.44-5.44-5.44-5.44Zm0,8.64c-1.76,0-3.2-1.43-3.2-3.2s1.43-3.2,3.2-3.2,3.2,1.43,3.2,3.2-1.44,3.2-3.2,3.2Z"/>
          <path d="M932.92,213.91c2.67,0,4.84-2.17,4.84-4.84s-2.17-4.84-4.84-4.84-4.84,2.17-4.84,4.84,2.17,4.84,4.84,4.84Zm0-7.45c1.43,0,2.61,1.18,2.61,2.61s-1.16,2.61-2.61,2.61-2.61-1.16-2.61-2.61,1.16-2.61,2.61-2.61Z"/>
          <path d="M1005.95,204.23c-2.67,0-4.84,2.17-4.84,4.84s2.17,4.84,4.84,4.84,4.84-2.17,4.84-4.84-2.17-4.84-4.84-4.84Zm0,7.45c-1.43,0-2.61-1.16-2.61-2.61s1.16-2.61,2.61-2.61,2.61,1.18,2.61,2.61-1.16,2.61-2.61,2.61Z"/>
          <path d="M1005.95,277.26c-2.67,0-4.84,2.17-4.84,4.84s2.17,4.84,4.84,4.84,4.84-2.17,4.84-4.84-2.17-4.84-4.84-4.84Zm0,7.45c-1.43,0-2.61-1.18-2.61-2.61s1.16-2.61,2.61-2.61,2.61,1.16,2.61,2.61-1.16,2.61-2.61,2.61Z"/>
          <path d="M932.92,277.26c-2.67,0-4.84,2.17-4.84,4.84s2.17,4.84,4.84,4.84,4.84-2.17,4.84-4.84c0-2.67-2.17-4.84-4.84-4.84Zm0,7.45c-1.44,0-2.61-1.18-2.61-2.61s1.18-2.61,2.61-2.61,2.61,1.16,2.61,2.61c0,1.44-1.18,2.61-2.61,2.61Z"/>
        </g>
        <g>
          <path d="M1219.49,85.21c8.33-8.33,19.46-13.25,31.23-13.8,11.76-.55,23.31,3.3,32.38,10.81h-7.85c-.97,0-1.75,.78-1.75,1.75s.78,1.75,1.75,1.75h12.44c.21,0,.42-.03,.61-.1,.17-.08,.32-.19,.46-.32,.05-.04,.09-.09,.12-.14,.1-.1,.19-.22,.25-.35,0-.06,0-.12,0-.18,.08-.2,.12-.4,.12-.61v-12.44c0-.97-.78-1.75-1.75-1.75s-1.75,.78-1.75,1.75v8.39c-8.96-7.55-20.26-11.77-31.98-11.95-11.72-.18-23.13,3.7-32.32,10.98-9.19,7.28-15.57,17.5-18.08,28.95-2.51,11.45-.99,23.41,4.31,33.86,.21,.41,.58,.73,1.03,.87,.44,.14,.93,.1,1.34-.11,.42-.2,.75-.56,.91-1,.16-.44,.13-.93-.07-1.35-4.59-8.9-6.22-19.02-4.68-28.91s6.2-19.03,13.28-26.1h0Z"/>
          <path d="M1298.21,95.51c-.21-.41-.58-.73-1.03-.87-.44-.14-.93-.1-1.34,.11-.85,.44-1.19,1.49-.75,2.35,4.97,9.7,6.44,20.81,4.16,31.47-2.28,10.66-8.16,20.2-16.66,27.02-8.5,6.82-19.09,10.49-29.99,10.41-10.9-.09-21.43-3.93-29.82-10.89h7.85c.97,0,1.75-.78,1.75-1.75s-.78-1.75-1.75-1.75h-12.44c-.21,0-.42,.04-.61,.12-.17,.08-.32,.19-.46,.32-.05,.04-.09,.09-.12,.14-.1,.1-.19,.22-.25,.35-.03,.06-.06,.12-.09,.18-.08,.2-.12,.4-.12,.61v12.39c0,.97,.78,1.75,1.75,1.75s1.75-.78,1.75-1.75v-8.36c8.96,7.6,20.27,11.87,32.01,12.07,11.75,.2,23.2-3.67,32.41-10.96,9.21-7.29,15.62-17.55,18.12-29.02,2.5-11.48,.95-23.47-4.39-33.93h0Z"/>
          <path d="M1242.89,152.21c.24,.13,.51,.2,.79,.19,.58,0,1.13-.29,1.46-.77l30.33-44.72c.37-.54,.4-1.25,.09-1.82-.31-.58-.92-.93-1.58-.91l-20.1,.47,7.15-16.79c.25-.55,.21-1.18-.12-1.69-.33-.51-.89-.81-1.49-.8h-15.65c-.7,0-1.33,.41-1.61,1.05l-13.6,31.54h0c-.23,.55-.17,1.17,.16,1.66,.32,.49,.87,.79,1.45,.79h22.08l-10.22,29.65c-.29,.83,.08,1.74,.86,2.14h0Zm13.56-32.96c.18-.54,.09-1.13-.25-1.59-.34-.49-.91-.76-1.51-.74h-21.87l12.09-28.04h11.85l-7.18,16.84c-.23,.55-.17,1.17,.16,1.66,.33,.48,.87,.77,1.45,.77l19.43-.4-21.03,31,6.85-19.5Z"/>
        </g>
        <g>
          <path d="M1573.19,301.81h-73.3c-.72,0-1.28-.56-1.28-1.28v-109.9c0-.72,.56-1.28,1.28-1.28h73.33c.72,0,1.28,.56,1.28,1.28v109.9c-.03,.72-.59,1.28-1.3,1.28h0Zm-72.02-2.56h70.77v-107.34h-70.77v107.34Z"/>
          <path d="M1565.82,294.45h-58.58c-.72,0-1.28-.56-1.28-1.28v-95.18c0-.72,.56-1.28,1.28-1.28h58.6c.72,0,1.28,.56,1.28,1.28v95.2c-.03,.69-.59,1.25-1.3,1.25h0Zm-57.3-2.55h56.05v-92.62h-56.05v92.62Z"/>
          <path d="M1556.62,285.25h-15.49c-.72,0-1.28-.56-1.28-1.28v-33.79c0-.72,.56-1.28,1.28-1.28h15.49c.72,0,1.28,.56,1.28,1.28v33.79c0,.72-.56,1.28-1.28,1.28h0Zm-14.21-2.56h12.93v-31.23h-12.93v31.23Z"/>
          <path d="M1556.62,242.26h-40.18c-.72,0-1.28-.56-1.28-1.28v-33.79c0-.72,.56-1.28,1.28-1.28h40.2c.72,0,1.28,.56,1.28,1.28v33.79c-.03,.72-.59,1.28-1.3,1.28h0Zm-38.9-2.56h37.65v-31.23h-37.65v31.23Z"/>
          <path d="M1549.95,223.33c-.33,0-.66-.13-.89-.38-3.35-3.35-7.8-5.19-12.52-5.19s-9.18,1.84-12.52,5.19c-.51,.51-1.3,.51-1.81,0-.51-.51-.51-1.3,0-1.81,3.83-3.83,8.92-5.93,14.34-5.93s10.5,2.1,14.34,5.93c.51,.51,.51,1.3,0,1.81-.26,.28-.59,.38-.92,.38h0Z"/>
          <path d="M1545.15,228.16c-.33,0-.66-.13-.89-.38-2.07-2.07-4.8-3.19-7.72-3.19s-5.65,1.12-7.72,3.19c-.51,.51-1.3,.51-1.81,0s-.51-1.3,0-1.81c2.56-2.56,5.93-3.94,9.53-3.94s6.98,1.41,9.53,3.94c.51,.51,.51,1.3,0,1.81-.26,.26-.59,.38-.92,.38h0Z"/>
          <path d="M1540.34,232.96c-.33,0-.66-.13-.89-.38-.77-.77-1.81-1.2-2.91-1.2s-2.12,.43-2.91,1.2c-.51,.51-1.3,.51-1.81,0-.51-.51-.51-1.3,0-1.81,1.25-1.25,2.94-1.94,4.7-1.94s3.45,.69,4.7,1.94c.51,.51,.51,1.3,0,1.81-.2,.26-.54,.38-.87,.38h0Z"/>
          <path d="M1531.94,285.25h-15.49c-.72,0-1.28-.56-1.28-1.28v-33.79c0-.72,.56-1.28,1.28-1.28h15.49c.72,0,1.28,.56,1.28,1.28v33.79c0,.71-.56,1.28-1.28,1.28h0Zm-14.21-2.56h12.93v-31.23h-12.93v31.23Z"/>
        </g>
      </g>
    </g>
  </g>
</svg>