<?xml version="1.0" encoding="UTF-8"?>
<svg id="Layer_2" data-name="Layer 2" xmlns="http://www.w3.org/2000/svg" viewBox="0 0 184.37 166.01">
  <defs>
    <style>
      .cls-1 {
        fill: #fff;
      }

      .cls-2 {
        fill: #ffb93e;
      }

      .cls-3 {
        fill: #1e2c4c;
      }

      .cls-3, .cls-4, .cls-5 {
        fill-rule: evenodd;
      }

      .cls-6 {
        fill: #7df97d;
      }

      .cls-4 {
        fill: #2b478b;
      }

      .cls-5 {
        fill: #2c3a64;
      }
    </style>
  </defs>
  <g id="Layer_1-2" data-name="Layer 1">
    <g>
      <path class="cls-5" d="M38.65,0h107.06c3.61,0,5.79,3.04,6.57,6.57l31.96,145.06c.95,4.29-3.6,7.99-7.99,7.99H8.12c-4.39,0-8.94-3.7-7.99-7.99L32.09,6.57c.78-3.53,2.96-6.57,6.57-6.57"/>
      <path class="cls-4" d="M38.65,0h101.74L8.12,159.62c-4.39,0-8.94-3.7-7.99-7.99L32.09,6.57c.78-3.53,2.96-6.57,6.57-6.57"/>
      <path class="cls-3" d="M184.29,153.68c-.13,9.4-5.25,12.3-12.74,12.33H12.82c-7.49-.03-12.62-2.93-12.74-12.33,.59,3.35,4.36,5.94,8.04,5.94H176.26c3.67,0,7.45-2.58,8.04-5.94"/>
      <path class="cls-2" d="M99.71,61.07v-.04h0c0-1.55-.81-2.97-2.12-4.02-1.37-1.09-3.28-1.76-5.4-1.76s-4.03,.67-5.4,1.76c-1.31,1.04-2.12,2.46-2.12,4.02h0v.02c0,1.55,.82,2.96,2.12,3.99,1.37,1.09,3.28,1.76,5.4,1.76s4.03-.67,5.4-1.76c1.3-1.03,2.1-2.44,2.12-3.97m-20.09,39.95l-.13-.02c-.13-.02-.25-.04-.38-.06h0c-11.4-1.95-20.89-6.87-27.58-13.73-6.89-7.06-10.81-16.17-10.81-26.18,0-11.4,5.79-21.7,15.16-29.15,9.3-7.4,22.14-11.97,36.32-11.97s27.01,4.58,36.32,11.97c9.37,7.45,15.16,17.75,15.16,29.15,0,9.48-4.03,18.24-10.8,25.23-6.85,7.07-16.5,12.33-27.59,14.67h0c-.25,.05-.5,.09-.77,.1-1.08,.05-2.14-.22-2.97-.74-.9-.56-1.55-1.39-1.76-2.4-.03-.15-.05-.31-.06-.48v-.05s0-31.66,0-31.66c-.28,.3-.59,.58-.92,.85-1.7,1.35-4.03,2.19-6.6,2.19s-4.9-.84-6.6-2.19c-.33-.26-.64-.55-.92-.85v31.71c-.01,.17-.03,.33-.06,.48-.2,1.01-.86,1.84-1.76,2.4-.84,.52-1.9,.79-2.97,.74-.09,0-.18-.01-.26-.02h0Zm-1.34-23.43c.04,.09,.08,.18,.11,.28,.3,.86,.28,1.79-.09,2.67-.1,.23-.22,.45-.37,.68h0c-.7,1.03-1.83,1.73-3.09,2.03-.49,.12-1,.17-1.52,.17,.24,.81,.2,1.68-.15,2.5-.1,.24-.22,.46-.37,.68-.61,.9-1.56,1.55-2.64,1.9,3.82,1.92,8.06,3.35,12.59,4.19v-18.21c-.11,.32-.27,.63-.47,.94-.69,1.02-1.82,1.72-3.09,2.03h0c-.29,.07-.6,.12-.9,.15Zm34.4,3.59c3.67-2.33,6.69-5.27,8.82-8.62,2.2-3.47,3.43-7.38,3.43-11.52,0-7.09-3.63-13.52-9.5-18.19-5.93-4.72-14.15-7.64-23.23-7.64s-17.3,2.92-23.23,7.64c-5.87,4.67-9.5,11.1-9.5,18.19,0,4.06,1.19,7.91,3.31,11.32,1.94,3.13,4.67,5.91,7.97,8.18,.81,.56,1.07,.77,2.06,.91,.54,.08,1.09,.05,1.6-.08,.81-.19,1.52-.62,1.94-1.23h0c.08-.11,.14-.23,.19-.35,.18-.43,.19-.87,.05-1.29-.1-.28-.26-.55-.49-.79-.32-.33-.95-.64-1.39-.96-.44-.31-.86-.64-1.27-.98-.62-.51-1.21-1.04-1.75-1.59-1.82-1.83-3.27-3.91-4.26-6.16-.96-2.19-1.48-4.54-1.48-6.99,0-5.86,2.97-11.15,7.77-14.97,4.74-3.77,11.28-6.1,18.49-6.1s13.74,2.33,18.49,6.1c4.8,3.82,7.77,9.11,7.77,14.97,0,1.91-.32,3.77-.92,5.54-.61,1.82-1.52,3.54-2.68,5.12-.78,1.06-1.67,2.07-2.66,3-.87,.82-1.81,1.58-2.83,2.28,0,0-.52,.28-.58,.32-.48,.33-.81,.74-.96,1.18-.14,.41-.13,.86,.05,1.29,.05,.11,.11,.23,.2,.35,.42,.61,1.13,1.04,1.94,1.24h0c.39,.09,.8,.13,1.21,.11,.13,0,1.2-.16,1.47-.3Zm5.35,7.42c-4.79,2.87-10.34,4.96-16.38,6.04v2.73h0s.01,.1,.02,.15c.09,.46,.42,.86,.87,1.14,.52,.32,1.18,.49,1.87,.45,.14,0,.28-.02,.44-.05,10.73-2.26,20.05-7.32,26.64-14.14,6.42-6.64,10.25-14.93,10.25-23.89,0-10.78-5.51-20.55-14.43-27.64-8.98-7.14-21.39-11.55-35.12-11.55s-26.14,4.41-35.12,11.55c-8.91,7.09-14.43,16.86-14.43,27.64,0,9.5,3.72,18.13,10.26,24.84,6.43,6.59,15.57,11.32,26.58,13.18h0c.17,.03,.34,.05,.49,.06,.69,.04,1.35-.13,1.87-.45,.45-.28,.78-.68,.87-1.14,.01-.05,.02-.11,.02-.15v-2.73c-5.98-1.07-11.48-3.13-16.24-5.96-.43-.26-.84-.51-1.26-.78-2.34-1.5-4.48-3.2-6.39-5.05-6.09-5.94-9.73-13.53-9.73-21.81,0-9.55,4.85-18.19,12.7-24.42,7.78-6.19,18.52-10.02,30.37-10.02s22.59,3.83,30.37,10.02c7.85,6.24,12.7,14.87,12.7,24.42,0,8.28-3.65,15.88-9.74,21.82-1.95,1.91-4.16,3.64-6.57,5.17-.31,.19-.61,.38-.92,.57Zm-.08-2.21c2.29-1.45,4.38-3.1,6.23-4.9,5.72-5.58,9.16-12.7,9.16-20.44,0-8.93-4.57-17.04-11.97-22.92-7.46-5.93-17.77-9.59-29.17-9.59s-21.72,3.67-29.17,9.59c-7.39,5.88-11.97,13.98-11.97,22.92,0,7.74,3.43,14.85,9.15,20.43,1.94,1.89,4.14,3.61,6.56,5.12,.8,.31,1.7,.35,2.5,.16h0c.81-.19,1.52-.62,1.94-1.23,.08-.12,.15-.24,.2-.35,.18-.43,.19-.87,.05-1.29-.15-.44-.48-.86-.97-1.18-.46-.31-.74-.5-1.21-.83-3.36-2.37-6.13-5.25-8.15-8.5-2.3-3.72-3.6-7.9-3.6-12.33,0-7.71,3.91-14.67,10.24-19.7,6.26-4.98,14.9-8.06,24.43-8.06s18.17,3.08,24.43,8.06c6.32,5.03,10.24,11.99,10.24,19.7,0,4.52-1.35,8.78-3.74,12.55-2.13,3.36-5.09,6.33-8.66,8.72-.12,.08-.45,.3-.56,.38-.48,.33-.81,.74-.96,1.18-.14,.41-.14,.86,.05,1.29,.05,.11,.11,.23,.2,.35h0c.41,.61,1.12,1.04,1.94,1.23h0c.51,.12,1.04,.15,1.58,.08,.52-.07,.82-.16,1.25-.44Zm-9.58-11.05c.9-.63,1.73-1.31,2.5-2.03,.91-.85,1.72-1.77,2.43-2.74,1.04-1.43,1.86-2.97,2.41-4.6,.53-1.57,.81-3.22,.81-4.93,0-5.24-2.69-10.01-7.04-13.47-4.41-3.51-10.52-5.68-17.29-5.68s-12.87,2.17-17.29,5.68c-4.35,3.46-7.04,8.22-7.04,13.47,0,2.18,.46,4.27,1.31,6.22,.89,2.03,2.2,3.91,3.86,5.57,.51,.51,1.05,1,1.61,1.46,.27,.22,.54,.43,.82,.64,.54,.4,.61,.47,1.26,.63,.67,.16,1.37,.16,2.01,0h0c.81-.19,1.52-.62,1.94-1.23,.31-.46,.4-.96,.3-1.43-.09-.42-.34-.83-.72-1.16-1.83-1.32-3.31-2.94-4.33-4.77-1.02-1.81-1.58-3.82-1.58-5.93,0-4.02,2.03-7.64,5.31-10.25,3.22-2.56,7.66-4.14,12.54-4.14s9.32,1.58,12.54,4.14c3.28,2.61,5.31,6.23,5.31,10.25,0,2.11-.56,4.11-1.57,5.92-1.03,1.84-2.52,3.47-4.35,4.79-.37,.33-.61,.73-.71,1.14-.11,.47-.02,.98,.3,1.45,.42,.61,1.13,1.04,1.94,1.24h0c.35,.08,.72,.12,1.09,.11,.49,0,1.2-.14,1.63-.35Zm-6.72-.86v18.21c4.53-.84,8.77-2.27,12.58-4.19-1.08-.35-2.02-1-2.63-1.9h0c-.15-.21-.27-.44-.37-.68-.35-.82-.39-1.69-.15-2.5-.52,0-1.03-.05-1.52-.17h0c-1.27-.31-2.4-1.01-3.09-2.03-.15-.21-.27-.44-.37-.68-.38-.88-.39-1.81-.09-2.67,.03-.09,.07-.18,.11-.28-.31-.03-.61-.07-.9-.15h0c-1.27-.31-2.4-1.01-3.09-2.03-.21-.3-.36-.62-.47-.94Zm0-13.39v11.01c.24-.7,.68-1.34,1.31-1.86h0s.01,0,.01,0c.18-.15,.37-.27,.56-.42,1.37-1.08,2.49-2.36,3.28-3.78,.85-1.52,1.32-3.21,1.32-4.98,0-3.4-1.75-6.49-4.58-8.74-2.89-2.3-6.9-3.72-11.34-3.72s-8.45,1.42-11.34,3.72c-2.83,2.25-4.58,5.34-4.58,8.74,0,1.78,.48,3.47,1.33,4.99,.82,1.46,1.98,2.77,3.41,3.87,.19,.14,.37,.26,.54,.42,.57,.51,.97,1.11,1.19,1.77v-11.05c0-2.17,1.09-4.12,2.85-5.52,1.7-1.35,4.03-2.19,6.6-2.19s4.9,.84,6.6,2.19c1.76,1.4,2.85,3.35,2.85,5.52v.05Z"/>
      <path class="cls-1" d="M44.36,145.93h-11.79c-.67,0-1.28-.27-1.71-.75-.43-.49-.62-1.13-.53-1.81l1.54-11.79c.17-1.32,1.39-2.4,2.72-2.4h11.79c.67,0,1.28,.27,1.71,.75,.43,.49,.62,1.13,.53,1.81l-1.54,11.79c-.17,1.32-1.39,2.4-2.72,2.4Zm-9.76-15.5c-.71,0-1.38,.6-1.47,1.31l-1.54,11.79c-.04,.31,.04,.61,.23,.82,.18,.21,.45,.33,.76,.33h11.79c.71,0,1.38-.6,1.47-1.31l1.54-11.79c.04-.31-.04-.61-.23-.82-.18-.21-.45-.32-.76-.32h-11.79Z"/>
      <path class="cls-1" d="M151.8,145.93h-11.79c-1.33,0-2.55-1.08-2.72-2.4l-1.54-11.79c-.09-.68,.1-1.32,.53-1.81,.43-.49,1.03-.75,1.71-.75h11.79c1.33,0,2.55,1.08,2.72,2.4l1.54,11.79c.09,.68-.1,1.32-.53,1.81-.43,.49-1.03,.75-1.71,.75Zm-13.82-15.5c-.31,0-.58,.12-.76,.33-.19,.21-.27,.5-.23,.82l1.54,11.79c.09,.71,.77,1.31,1.47,1.31h11.79c.31,0,.58-.12,.76-.33,.19-.21,.27-.5,.23-.82l-1.54-11.79c-.09-.71-.77-1.31-1.47-1.31h-11.79Z"/>
      <path class="cls-1" d="M124.38,145.93H59.99c-.67,0-1.28-.27-1.71-.75-.43-.49-.62-1.13-.53-1.81l1.54-11.79c.17-1.32,1.39-2.4,2.72-2.4h60.34c1.33,0,2.55,1.08,2.72,2.4l1.54,11.79c.09,.68-.1,1.32-.53,1.81-.43,.49-1.03,.75-1.71,.75Zm-62.37-15.5c-.71,0-1.38,.6-1.47,1.31l-1.54,11.79c-.04,.31,.04,.61,.23,.82,.18,.21,.45,.33,.76,.33H124.38c.31,0,.58-.12,.76-.33,.19-.21,.27-.5,.23-.82l-1.54-11.79c-.09-.71-.77-1.31-1.47-1.31H62.02Z"/>
      <path class="cls-6" d="M144.9,143.29c-2.72,0-4.93-2.21-4.93-4.93s2.21-4.93,4.93-4.93,4.93,2.21,4.93,4.93-2.21,4.93-4.93,4.93Zm0-8.61c-2.03,0-3.68,1.65-3.68,3.68s1.65,3.68,3.68,3.68,3.68-1.65,3.68-3.68-1.65-3.68-3.68-3.68Z"/>
      <path class="cls-6" d="M144.9,137.85c-.38,0-.68-.31-.68-.68v-4.73c0-.38,.31-.68,.68-.68s.68,.31,.68,.68v4.73c0,.38-.31,.68-.68,.68Z"/>
      <path class="cls-1" d="M39.48,142.48c-2.72,0-4.93-2.21-4.93-4.93s2.21-4.93,4.93-4.93,4.93,2.21,4.93,4.93-2.21,4.93-4.93,4.93Zm0-8.61c-2.03,0-3.68,1.65-3.68,3.68s1.65,3.68,3.68,3.68,3.68-1.65,3.68-3.68-1.65-3.68-3.68-3.68Z"/>
      <path class="cls-1" d="M39.48,137.97c-.23,0-.42-.19-.42-.42v-2.68c0-.23,.19-.42,.42-.42s.42,.19,.42,.42v2.68c0,.23-.19,.42-.42,.42Z"/>
      <path class="cls-1" d="M42.15,137.97h-2.68c-.23,0-.42-.19-.42-.42s.19-.42,.42-.42h2.68c.23,0,.42,.19,.42,.42s-.19,.42-.42,.42Z"/>
      <path class="cls-1" d="M77.94,138.34h-6.45c-.44,0-.8-.36-.8-.8s.36-.8,.8-.8h6.45c.44,0,.8,.36,.8,.8s-.36,.8-.8,.8Z"/>
      <path class="cls-1" d="M109.65,141.57c-.44,0-.8-.36-.8-.8v-6.45c0-.44,.36-.8,.8-.8s.8,.36,.8,.8v6.45c0,.44-.36,.8-.8,.8Z"/>
      <path class="cls-1" d="M112.88,138.34h-6.45c-.44,0-.8-.36-.8-.8s.36-.8,.8-.8h6.45c.44,0,.8,.36,.8,.8s-.36,.8-.8,.8Z"/>
    </g>
  </g>
</svg>