<?xml version="1.0" encoding="UTF-8"?>
<svg xmlns="http://www.w3.org/2000/svg" viewBox="0 0 147.78 204.74">
  <defs>
    <style>
      .cls-1 {
        fill: #d16e54;
      }

      .cls-2 {
        fill: #9ab1b2;
        opacity: .34;
      }

      .cls-3 {
        fill: #ddd;
      }

      .cls-4 {
        opacity: .45;
      }

      .cls-4, .cls-5, .cls-6, .cls-7, .cls-8, .cls-9 {
        fill: #fff;
      }

      .cls-10, .cls-11, .cls-12, .cls-13, .cls-14, .cls-15 {
        fill: #282220;
      }

      .cls-16 {
        fill: #f4f4f4;
      }

      .cls-17 {
        fill: #d1d1d1;
      }

      .cls-18 {
        fill: #e5c028;
      }

      .cls-19 {
        fill: #edf2f2;
      }

      .cls-20 {
        fill: #ed8383;
      }

      .cls-21 {
        fill: #f46a58;
      }

      .cls-22 {
        fill: #e9eef2;
      }

      .cls-23, .cls-13, .cls-14, .cls-15 {
        mix-blend-mode: multiply;
      }

      .cls-23, .cls-15 {
        opacity: .2;
      }

      .cls-24 {
        fill: #df2a0c;
      }

      .cls-25 {
        fill: #e2b77f;
      }

      .cls-26 {
        fill: #69c642;
      }

      .cls-27 {
        fill: #f4b678;
      }

      .cls-28 {
        isolation: isolate;
      }

      .cls-29 {
        fill: #e37171;
      }

      .cls-30 {
        fill: #7f95ef;
      }

      .cls-6, .cls-11, .cls-13 {
        opacity: .1;
      }

      .cls-7 {
        opacity: .5;
      }

      .cls-31 {
        opacity: .29;
      }

      .cls-32 {
        fill: #5d929b;
      }

      .cls-12, .cls-33, .cls-14, .cls-9 {
        opacity: .15;
      }

      .cls-34 {
        fill: #daac6a;
      }

      .cls-35 {
        fill: #73b8c9;
      }

      .cls-36 {
        fill: #b8cacc;
      }

      .cls-37 {
        fill: #8ea8a8;
      }

      .cls-38 {
        fill: #ea3b24;
      }

      .cls-39 {
        fill: #75ba30;
      }

      .cls-40 {
        fill: #e4cbcf;
      }

      .cls-41 {
        fill: #fdfeff;
      }

      .cls-42 {
        fill: #eaeaea;
      }

      .cls-43 {
        fill: #f9d22d;
      }

      .cls-44 {
        fill: #4e62b7;
      }

      .cls-45 {
        fill: #ffd544;
      }

      .cls-46 {
        fill: #e5e5e5;
      }

      .cls-47 {
        fill: #10ace6;
      }

      .cls-48 {
        fill: #2c3a64;
      }

      .cls-8, .cls-49, .cls-50 {
        opacity: .25;
      }

      .cls-51, .cls-49 {
        fill: #d3d3d3;
      }

      .cls-52 {
        fill: #ffdf5a;
      }

      .cls-53 {
        fill: #57a839;
      }

      .cls-54 {
        fill: #f8b02f;
      }

      .cls-55 {
        fill: #efefef;
      }

      .cls-56 {
        opacity: .62;
      }

      .cls-57 {
        fill: #ed7f6e;
      }

      .cls-58 {
        fill: #ede6e6;
      }

      .cls-59 {
        fill: #6577df;
      }

      .cls-60 {
        fill: #ccb2b6;
      }

      .cls-61 {
        fill: #fcc490;
      }

      .cls-62 {
        fill: #ff3836;
      }

      .cls-63 {
        fill: #2b702c;
      }

      .cls-64 {
        fill: #95d6e8;
      }

      .cls-65 {
        fill: #a6bbdd;
      }

      .cls-66 {
        fill: #99a2a3;
      }

      .cls-67 {
        fill: #ba5d3e;
      }

      .cls-68 {
        fill: #2b478b;
      }

      .cls-69 {
        fill: #282f39;
      }

      .cls-70 {
        fill: #dfebeb;
      }
    </style>
  </defs>
  <g class="cls-28">
    <g id="Layer_2" data-name="Layer 2">
      <g id="Layer_1-2" data-name="Layer 1">
        <g>
          <ellipse class="cls-17" cx="47.69" cy="201.81" rx="47.69" ry="2.93"/>
          <g>
            <g>
              <path class="cls-68" d="M11.69,3.29H92.24V193.48H3.26V11.72C3.26,7.07,7.04,3.29,11.69,3.29Z"/>
              <rect class="cls-68" x="3.26" y="193.48" width="88.98" height="8.34"/>
            </g>
            <rect class="cls-5" x="7.83" y="10.42" width="79.85" height="183"/>
            <rect class="cls-37" x="10.54" y="13.5" width="74.41" height="176.85"/>
            <rect class="cls-68" x="3.26" y="140.86" width="88.98" height="4.11"/>
            <rect class="cls-5" x="7.83" y="144.97" width="79.85" height="3.02"/>
            <rect class="cls-5" x="7.83" y="137.84" width="79.85" height="3.02"/>
            <rect class="cls-5" x="7.83" y="38.53" width="79.85" height="3.02"/>
            <rect class="cls-5" x="7.83" y="62.88" width="79.85" height="3.02"/>
            <rect class="cls-5" x="7.83" y="91.47" width="79.85" height="3.02"/>
            <rect class="cls-5" x="7.83" y="169.1" width="79.85" height="3.02"/>
            <rect class="cls-5" x="42.32" y="146.73" width="10.86" height="4" rx="1.41" ry="1.41"/>
            <polygon class="cls-65" points="142.11 0 142.11 140.4 123.18 140.34 93.14 140.24 93.14 4.81 142.11 0"/>
            <polygon class="cls-68" points="147.78 1.26 147.78 138.4 142.11 140.4 142.11 0 147.78 1.26"/>
            <polygon class="cls-65" points="142.11 144.99 142.11 194.68 93.14 193.68 93.14 144.83 122.71 144.92 142.11 144.99"/>
            <polygon class="cls-68" points="147.78 143.06 147.78 192.92 142.11 194.85 142.11 144.99 147.78 143.06"/>
            <polygon class="cls-48" points="147.78 143.06 142.2 144.99 122.76 144.92 93.14 144.83 97.98 143.45 147.78 143.06"/>
            <rect class="cls-68" x="92.24" y="9.43" width=".9" height="128.38" rx=".32" ry=".32"/>
            <path class="cls-68" d="M92.68,191.78h0c-.25,0-.45-.2-.45-.45v-43.38c0-.25,.2-.45,.45-.45h0c.25,0,.45,.2,.45,.45v43.38c0,.25-.2,.45-.45,.45Z"/>
            <path class="cls-2" d="M147.78,143.06v49.86l-5.67,1.93v-.16l-49.87-1v-2.61c14.11,2.55,26.71-18.89,30.11-46.15,.08-.62,.15-1.24,.22-1.87h25.21Z"/>
            <path class="cls-2" d="M147.78,1.26V138.4l-5.67,1.99-19.28-.06c.07-.84,.14-1.68,.19-2.52,.41-6.48,.63-17.73,.72-31.21h0c.03-3.79,.05-7.74,.05-11.82,0-.07,0-.14,0-.22,.03-7.17,.01-14.7-.01-22.3v-.05c-.01-3.94-.03-7.88-.06-11.81v-.21c-.05-7.6-.1-15.1-.16-22.2v-.16c-.04-4.09-.07-8.04-.11-11.79,0-.05-.22-24.13-.22-24.19l18.87-1.86,5.67,1.26Z"/>
            <g>
              <g>
                <path class="cls-22" d="M58.94,44.89l-.06,1.27-.07,1.52h0s-.05,1.12-.05,1.12l-.5,10.06v.02l-.03,.62-.02,.52v.02s0,.04,0,.06c-.06,1.38-1.12,2.51-2.47,2.69-.13,.02-.26,.03-.4,.03h-4.99c-.13,0-.27,0-.4-.03-1.35-.19-2.41-1.31-2.47-2.69,0-.02,0-.04,0-.06v-.02l-.24-4.88-.08-1.62-.02-.48-.1-2.07v-.02l-.16-3.25h0s-.07-1.53-.07-1.53l-.06-1.27h12.23Z"/>
                <path class="cls-21" d="M58.8,47.69l-.05,1.11-.5,10.01-.04,.69h0s-.02,.47-.02,.47v.07s0,.04,0,.06c-.07,1.38-1.12,2.51-2.47,2.69-.13,.02-.26,.03-.4,.03h-4.99c-.13,0-.27,0-.4-.03-1.35-.19-2.41-1.31-2.47-2.69,0-.02,0-.04,0-.06v-.07l-.24-4.83-.08-1.62-.02-.48-.1-2.07v-.02l-.16-3.25h11.96Z"/>
                <path class="cls-21" d="M58.93,46.16h-12.22c-.43,0-.79-.35-.79-.79h0c0-.43,.35-.79,.79-.79h12.22c.43,0,.79,.35,.79,.79h0c0,.43-.35,.79-.79,.79Z"/>
              </g>
              <rect class="cls-5" x="49.01" y="51.81" width="7.64" height="3.45" rx="1.22" ry="1.22"/>
            </g>
            <g>
              <path class="cls-67" d="M80.96,73.89c-.15,.66-.55,1.28-1.17,1.67-6.52,4.13-14.21,5.22-21.62,3.05-.03,0-.06-.02-.09-.03-1.27-.42-2.04-1.77-1.75-2.93,.09-.38,.28-.69,.52-.94,.52-.54,1.3-.74,2.07-.52,6.49,1.9,13.23,.95,18.94-2.67,.61-.38,1.32-.44,1.92-.18,.39,.16,.72,.45,.97,.87,.29,.5,.36,1.1,.22,1.68Z"/>
              <g class="cls-33">
                <path class="cls-5" d="M79.78,71.34c-.18,.24-.4,.44-.67,.61-6.52,4.13-14.21,5.22-21.62,3.05-.03,0-.06-.02-.09-.03-.2-.06-.38-.15-.55-.26,.52-.54,1.3-.74,2.07-.52,6.49,1.9,13.23,.95,18.94-2.67,.61-.38,1.32-.44,1.92-.18Z"/>
              </g>
              <path class="cls-67" d="M80.82,80.47c-.14,.38-.38,.74-.69,1.03-.12,.11-.24,.2-.37,.29-.19,.12-.38,.24-.57,.35-1.51,.91-3.09,1.66-4.7,2.24-1.26,.46-2.54,.82-3.85,1.07-2.63,.52-5.34,.63-8.04,.3-1.49-.17-2.98-.48-4.46-.91-.14-.04-.27-.09-.4-.16-.3-.14-.57-.34-.79-.58h0c-.07-.07-.13-.15-.19-.24,0,0,0,0,0-.01-.27-.35-.44-.76-.49-1.18,0-.02,0-.04,0-.05-.01-.05-.01-.1-.02-.14,0-.09,0-.19,0-.28,0-.11,.02-.22,.05-.34,.02-.09,.05-.17,.08-.25,.38-1.02,1.45-1.52,2.49-1.21,1.71,.5,3.44,.8,5.16,.91,.98,.06,1.94,.06,2.91,0,3.07-.2,6.07-1.02,8.88-2.45,.6-.3,1.18-.63,1.76-.98,.08-.05,.16-.1,.24-.15,1-.63,2.27-.37,2.89,.68,.35,.6,.37,1.36,.11,2.05Z"/>
              <g class="cls-23">
                <path class="cls-10" d="M77.58,77.89c-.19,.53-.59,.96-1.07,1.33-1.12,.88-2.24,1.56-3.33,2.1-.65,.32-1.28,.58-1.92,.8-.72,.25-1.43,.45-2.13,.61-2.71,.61-5.32,.63-7.77,.77-.83,.05-1.64,.12-2.44,.22-.26,.04-.52,.07-.77,.12-.15,.03-.31,.05-.46,.09-.24,.05-.48,.1-.72,.17h0c-.07-.07-.13-.15-.19-.24,0,0,0,0,0-.01-.27-.35-.44-.76-.49-1.18,0-.02,0-.04,0-.05-.01-.05-.01-.1-.02-.14,0-.09,0-.19,0-.28,0-.11,.02-.22,.05-.34,.02-.09,.05-.17,.08-.25,.38-1.02,1.45-1.52,2.49-1.21,1.71,.5,3.44,.8,5.16,.91,.98,.06,1.94,.06,2.91,0,3.07-.2,6.07-1.02,8.88-2.45,.6-.3,1.18-.63,1.76-.98Z"/>
              </g>
              <g class="cls-23">
                <path class="cls-10" d="M79.65,74.22c-2.79,1.77-5.82,2.89-8.96,3.37,.61,.41,1.24,.79,1.86,1.18,2.51-.69,4.95-1.75,7.24-3.2,.62-.39,1.02-1.02,1.17-1.67-.44-.03-.9,.07-1.31,.33Z"/>
              </g>
              <path class="cls-1" d="M77.28,76.97s0,0,0,0c-.13,.68-.54,1.32-1.18,1.73-.1,.06-.19,.12-.28,.17-1.63,1.01-3.33,1.83-5.08,2.45-.89,.32-1.78,.59-2.69,.8-2.48,.6-5.03,.83-7.6,.67-1.15-.06-2.3-.21-3.45-.43-.09-.02-.18-.03-.27-.05-.17-.03-.33-.06-.49-.1-.23-.05-.46-.11-.7-.17-.36-.09-.71-.18-1.07-.29-1.32-.38-2.14-1.78-1.84-2.97,.12-.5,.4-.89,.76-1.15,.5-.37,1.16-.49,1.83-.3,.55,.16,1.1,.3,1.66,.42,5.97,1.3,12.06,.22,17.29-3.09,.69-.43,1.52-.44,2.17-.05,.28,.17,.53,.42,.72,.74,.05,.08,.09,.16,.12,.25,.18,.43,.21,.91,.11,1.38Z"/>
              <g class="cls-33">
                <path class="cls-5" d="M76.33,74.61c-.14,.15-.3,.28-.49,.4-6.52,4.13-14.21,5.22-21.62,3.05-.31-.09-.59-.24-.83-.42,.5-.37,1.17-.49,1.83-.3,6.49,1.9,13.23,.95,18.94-2.67,.69-.43,1.52-.44,2.17-.05Z"/>
              </g>
            </g>
            <g>
              <path class="cls-12" d="M83.52,86.36h0c-.05,.62-.22,1.2-.49,1.72-.14,.28-.31,.56-.51,.8-.11,.14-.23,.28-.36,.41-.85,.84-2.02,1.37-3.3,1.37h-20.39c-.06,0-.13,0-.19,0h-.05c-.06,0-.13,0-.19,0-1.49,0-2.82-.69-3.68-1.78-.06-.07-.12-.15-.18-.24t0-.01c-.12-.18-.23-.36-.33-.55-.26-.5-.42-1.06-.47-1.66,.14-1.78,1.28-3.28,2.85-3.94,0-.09,0-.19,0-.28-.23-.05-.46-.11-.7-.17,.26-.17,.54-.3,.83-.42,.52-.2,1.07-.3,1.66-.3,.06,0,.13,0,.19,0h.05c.06,0,.13,0,.19,0h20.39c.44,0,.86,.06,1.27,.18-.12,.11-.24,.2-.37,.29-.19,.12-.38,.24-.57,.35,2.28,.15,4.13,1.96,4.34,4.23Z"/>
              <g>
                <path class="cls-67" d="M83.54,86.8c0,.75-.18,1.46-.5,2.09-.22,.45-.52,.86-.87,1.21-.85,.84-2.02,1.37-3.3,1.37h-20.39c-.06,0-.13,0-.19,0h-.05c-1.71-.09-3.2-1.12-3.94-2.58-.04-.08-.08-.16-.11-.24t0-.01c-.25-.57-.38-1.19-.38-1.84,0-1.29,.52-2.46,1.37-3.3,.32-.32,.68-.59,1.08-.81,.24-.13,.48-.24,.74-.32,0,0,0,0,0,0,.39-.13,.8-.21,1.23-.24h.05c.06,0,.13,0,.19,0h20.39c.11,0,.21,0,.32,.01,2.28,.15,4.13,1.96,4.34,4.23h0c.02,.14,.02,.29,.02,.43Z"/>
                <path class="cls-3" d="M74.97,86.59c0,.82-.19,1.6-.53,2.3-.52,1.08-1.4,1.98-2.5,2.59h-4.2c1.1-.6,1.98-1.51,2.5-2.59,.34-.71,.53-1.49,.53-2.3,0-1.81-.92-3.42-2.36-4.46h4.21c1.43,1.05,2.35,2.66,2.35,4.46Z"/>
                <path class="cls-15" d="M83.04,88.89c-.22,.45-.52,.86-.87,1.21-.85,.84-2.02,1.37-3.3,1.37h-20.39c-.06,0-.13,0-.19,0h-.05c-.06,0-.13,0-.19,0-1.83,0-3.41-1.05-4.18-2.59h29.18Z"/>
                <path class="cls-1" d="M62.72,86.8c0,.75-.18,1.46-.49,2.09-.36,.72-.91,1.34-1.57,1.78-.68,.46-1.5,.75-2.37,.8h-.05c-.06,0-.13,0-.19,0-1.83,0-3.41-1.05-4.18-2.59-.32-.63-.49-1.34-.49-2.09,0-.12,0-.25,.02-.37,.14-1.78,1.28-3.28,2.85-3.94,.16-.07,.33-.13,.5-.18,.42-.12,.85-.19,1.31-.19,.06,0,.13,0,.19,0h.05c.79,.04,1.53,.28,2.17,.67,.33,.2,.63,.43,.9,.71,.61,.6,1.05,1.38,1.24,2.24,.08,.34,.12,.69,.12,1.05Z"/>
              </g>
              <g>
                <path class="cls-57" d="M57.83,84.35c0,.36-.29,.65-.65,.65s-.65-.29-.65-.65,.29-.65,.65-.65,.65,.29,.65,.65Z"/>
                <circle class="cls-57" cx="55.43" cy="86.41" r="1.01"/>
                <path class="cls-57" d="M60.61,87.09c0,.27-.22,.48-.48,.48s-.48-.22-.48-.48,.22-.48,.48-.48,.48,.22,.48,.48Z"/>
                <path class="cls-57" d="M56.39,88.34c0,.27-.22,.48-.48,.48s-.48-.22-.48-.48,.22-.48,.48-.48,.48,.22,.48,.48Z"/>
                <path class="cls-57" d="M59.05,84.06c0,.27-.22,.48-.48,.48s-.48-.22-.48-.48,.22-.48,.48-.48,.48,.22,.48,.48Z"/>
                <path class="cls-57" d="M58.66,85.59c0,.17-.14,.31-.31,.31s-.31-.14-.31-.31,.14-.31,.31-.31,.31,.14,.31,.31Z"/>
                <path class="cls-57" d="M60.13,88.82c0,.77-.62,1.39-1.39,1.39s-1.39-.62-1.39-1.39,.62-1.39,1.39-1.39,1.39,.62,1.39,1.39Z"/>
              </g>
            </g>
            <g>
              <g>
                <g>
                  <path class="cls-29" d="M66.09,189.55c-3.7,0-4.7-.16-6.13-1.74-.81-.9-1.22-2.83,.12-4.12,.51-.49,1.25-.9,2.03-1.33,1.12-.62,2.39-1.33,3.06-2.33,.28-.42,.51-1.09,.76-1.81,.75-2.16,1.78-5.11,5.38-5.11,.11,0,.22,0,.34,0,2.22,.11,4.46,1.74,6.13,4.46,1.62,2.63,2.23,5.48,1.51,7.09l-.14,.31c-1.32,3-2.32,4.56-9.18,4.56-.87,0-1.65,0-2.35,0-.57,0-1.08,0-1.55,0Z"/>
                  <path class="cls-40" d="M78.25,177.29c-.5-.81-1.05-1.53-1.63-2.15-1.49-1.57-3.21-2.49-4.93-2.57-.12,0-.25-.01-.37-.01-1.99,0-3.27,.82-4.16,1.92-.88,1.1-1.35,2.46-1.73,3.55-.24,.68-.46,1.33-.7,1.69-.6,.9-1.76,1.54-2.88,2.17-.81,.45-1.58,.88-2.14,1.42-1.59,1.52-1.11,3.81-.15,4.87,.6,.67,1.16,1.1,1.8,1.38,1.11,.49,2.47,.53,4.72,.53,.47,0,.99,0,1.55,0,.69,0,1.47,0,2.34,0,7.18,0,8.3-1.76,9.67-4.88l.14-.31c.9-2.04-.12-5.28-1.55-7.58Zm.57,7.15c-1.27,2.86-1.74,4.56-8.83,4.56-1.58,0-2.85,.01-3.9,.01-2,0-3.15-.05-3.99-.32-.69-.23-1.18-.61-1.75-1.24-.57-.63-1.08-2.26,.1-3.38,1.17-1.13,3.95-1.92,5.17-3.76,1.2-1.79,1.31-6.68,5.7-6.68,.1,0,.21,0,.31,.01,1.89,.09,3.63,1.4,4.95,3.11,1.96,2.54,2.99,5.98,2.23,7.69Z"/>
                </g>
                <g>
                  <g>
                    <path class="cls-20" d="M73.67,177.41c0,.9-.73,1.63-1.63,1.63s-1.63-.73-1.63-1.63,.73-1.63,1.63-1.63,1.63,.73,1.63,1.63Z"/>
                    <path class="cls-40" d="M73.24,177.41c0,.66-.54,1.2-1.2,1.2s-1.2-.54-1.2-1.2,.54-1.2,1.2-1.2,1.2,.54,1.2,1.2Z"/>
                  </g>
                  <path class="cls-60" d="M72.8,177.41c0,.42-.34,.75-.75,.75s-.75-.34-.75-.75,.34-.75,.75-.75,.75,.34,.75,.75Z"/>
                </g>
              </g>
              <path class="cls-11" d="M79.79,184.88l-.14,.31c-1.37,3.12-2.49,4.88-9.67,4.88-.87,0-1.65,0-2.34,0-.57,0-1.09,0-1.55,0-2.26,0-3.61-.04-4.72-.53,.11-.14,.22-.28,.35-.43,.12-.14,.25-.28,.39-.43,1.43-1.48,3.92-3.1,8.05-2.9,5.23,.25,6.26-5.58,6.44-9.04,.01-.29,.02-.57,.03-.81,0-.3,.01-.57,0-.79,.58,.62,1.13,1.34,1.63,2.15,1.42,2.31,2.45,5.55,1.55,7.58Z"/>
            </g>
            <g>
              <g>
                <g>
                  <path class="cls-29" d="M44.75,189.55c-3.7,0-4.7-.16-6.13-1.74-.81-.9-1.22-2.83,.12-4.12,.51-.49,1.25-.9,2.03-1.33,1.12-.62,2.39-1.33,3.06-2.33,.28-.42,.51-1.09,.76-1.81,.75-2.16,1.78-5.11,5.38-5.11,.11,0,.22,0,.34,0,2.22,.11,4.46,1.74,6.13,4.46,1.62,2.63,2.23,5.48,1.51,7.09l-.14,.31c-1.32,3-2.32,4.56-9.18,4.56-.87,0-1.65,0-2.35,0-.57,0-1.08,0-1.55,0Z"/>
                  <path class="cls-40" d="M56.9,177.29c-.5-.81-1.05-1.53-1.63-2.15-1.49-1.57-3.21-2.49-4.93-2.57-.12,0-.25-.01-.37-.01-1.99,0-3.27,.82-4.16,1.92-.88,1.1-1.35,2.46-1.73,3.55-.24,.68-.46,1.33-.7,1.69-.6,.9-1.76,1.54-2.88,2.17-.81,.45-1.58,.88-2.14,1.42-1.59,1.52-1.11,3.81-.15,4.87,.6,.67,1.16,1.1,1.8,1.38,1.11,.49,2.47,.53,4.72,.53,.47,0,.99,0,1.55,0,.69,0,1.47,0,2.34,0,7.18,0,8.3-1.76,9.67-4.88l.14-.31c.9-2.04-.12-5.28-1.55-7.58Zm.57,7.15c-1.27,2.86-1.74,4.56-8.83,4.56-1.58,0-2.85,.01-3.9,.01-2,0-3.15-.05-3.99-.32-.69-.23-1.18-.61-1.75-1.24-.57-.63-1.08-2.26,.1-3.38,1.17-1.13,3.95-1.92,5.17-3.76,1.2-1.79,1.31-6.68,5.7-6.68,.1,0,.21,0,.31,.01,1.89,.09,3.63,1.4,4.95,3.11,1.96,2.54,2.99,5.98,2.23,7.69Z"/>
                </g>
                <g>
                  <g>
                    <path class="cls-20" d="M52.33,177.41c0,.9-.73,1.63-1.63,1.63s-1.63-.73-1.63-1.63,.73-1.63,1.63-1.63,1.63,.73,1.63,1.63Z"/>
                    <circle class="cls-40" cx="50.7" cy="177.41" r="1.2"/>
                  </g>
                  <path class="cls-60" d="M51.46,177.41c0,.42-.34,.75-.75,.75s-.75-.34-.75-.75,.34-.75,.75-.75,.75,.34,.75,.75Z"/>
                </g>
              </g>
              <path class="cls-11" d="M58.45,184.88l-.14,.31c-1.37,3.12-2.49,4.88-9.67,4.88-.87,0-1.65,0-2.34,0-.57,0-1.09,0-1.55,0-2.26,0-3.61-.04-4.72-.53,.11-.14,.22-.28,.35-.43,.12-.14,.25-.28,.39-.43,1.43-1.48,3.92-3.1,8.05-2.9,5.23,.25,6.26-5.58,6.44-9.04,.01-.29,.02-.57,.03-.81,0-.3,.01-.57,0-.79,.58,.62,1.13,1.34,1.63,2.15,1.42,2.31,2.45,5.55,1.55,7.58Z"/>
            </g>
            <g>
              <g>
                <g>
                  <path class="cls-29" d="M23.41,189.55c-3.7,0-4.7-.16-6.13-1.74-.81-.9-1.22-2.83,.12-4.12,.51-.49,1.25-.9,2.03-1.33,1.12-.62,2.39-1.33,3.06-2.33,.28-.42,.51-1.09,.76-1.81,.75-2.16,1.78-5.11,5.38-5.11,.11,0,.22,0,.34,0,2.22,.11,4.46,1.74,6.13,4.46,1.62,2.63,2.23,5.48,1.51,7.09l-.14,.31c-1.32,3-2.32,4.56-9.18,4.56-.87,0-1.65,0-2.35,0-.57,0-1.08,0-1.55,0Z"/>
                  <path class="cls-40" d="M35.56,177.29c-.5-.81-1.05-1.53-1.63-2.15-1.49-1.57-3.21-2.49-4.93-2.57-.12,0-.25-.01-.37-.01-1.99,0-3.27,.82-4.16,1.92-.88,1.1-1.35,2.46-1.73,3.55-.24,.68-.46,1.33-.7,1.69-.6,.9-1.76,1.54-2.88,2.17-.81,.45-1.58,.88-2.14,1.42-1.59,1.52-1.11,3.81-.15,4.87,.6,.67,1.16,1.1,1.8,1.38,1.11,.49,2.47,.53,4.72,.53,.47,0,.99,0,1.55,0,.69,0,1.47,0,2.34,0,7.18,0,8.3-1.76,9.67-4.88l.14-.31c.9-2.04-.12-5.28-1.55-7.58Zm.57,7.15c-1.27,2.86-1.74,4.56-8.83,4.56-1.58,0-2.85,.01-3.9,.01-2,0-3.15-.05-3.99-.32-.69-.23-1.18-.61-1.75-1.24-.57-.63-1.08-2.26,.1-3.38,1.17-1.13,3.95-1.92,5.17-3.76,1.2-1.79,1.31-6.68,5.7-6.68,.1,0,.21,0,.31,.01,1.89,.09,3.63,1.4,4.95,3.11,1.96,2.54,2.99,5.98,2.23,7.69Z"/>
                </g>
                <g>
                  <g>
                    <circle class="cls-20" cx="29.36" cy="177.41" r="1.63"/>
                    <path class="cls-40" d="M30.56,177.41c0,.66-.54,1.2-1.2,1.2s-1.2-.54-1.2-1.2,.54-1.2,1.2-1.2,1.2,.54,1.2,1.2Z"/>
                  </g>
                  <circle class="cls-60" cx="29.36" cy="177.41" r=".75"/>
                </g>
              </g>
              <path class="cls-11" d="M37.11,184.88l-.14,.31c-1.37,3.12-2.49,4.88-9.67,4.88-.87,0-1.65,0-2.34,0-.57,0-1.09,0-1.55,0-2.26,0-3.61-.04-4.72-.53,.11-.14,.22-.28,.35-.43,.12-.14,.25-.28,.39-.43,1.43-1.48,3.92-3.1,8.05-2.9,5.23,.25,6.26-5.58,6.44-9.04,.01-.29,.02-.57,.03-.81,0-.3,.01-.57,0-.79,.58,.62,1.13,1.34,1.63,2.15,1.42,2.31,2.45,5.55,1.55,7.58Z"/>
            </g>
            <g>
              <path class="cls-25" d="M43.48,89.34h-14.38l-14.37-.29c.01-.63,.07-1.26,.16-1.86,1.05-6.9,7.07-12.22,14.21-12.22,2.19,0,4.27,.5,6.13,1.39,.98,.47,1.91,1.05,2.75,1.72,.38,.3,.74,.61,1.09,.95,.74,.71,1.4,1.49,1.97,2.34,.26,.39,.5,.79,.72,1.2,0,0,.01,.02,.02,.03,.19,.35,.36,.7,.51,1.06,.49,1.11,.84,2.29,1.02,3.53,.11,.7,.16,1.43,.16,2.16Z"/>
              <path class="cls-34" d="M44.05,90.6h-14.38l-14.37-.29c.01-.63,.09-1.25,.16-1.86,.95-7.92,8.73-13.66,15.87-13.31,2.45,.12,6.82,2.83,7.66,3.5,.38,.3,.3,1.31,.65,1.64,.74,.71,1.4,1.49,1.97,2.34,.26,.39,.5,.79,.72,1.2,0,0,.01,.02,.02,.03,.19,.35,.36,.7,.51,1.06,.49,1.11,.84,2.29,1.02,3.53,.11,.7,.16,1.43,.16,2.16Z"/>
              <path class="cls-34" d="M49.27,89.12v.22h-16.74v-6.75h10.22c2.93,0,5.4,1.93,6.22,4.59,.19,.61,.29,1.26,.29,1.93Z"/>
              <g class="cls-33">
                <path class="cls-10" d="M50.97,74.63c0,.45-.18,.89-.52,1.2-.33-.13-.63-.34-.85-.64l-.11,.07-3.31,2.06-.1,.06c0,.52-.15,1.02-.42,1.47l-3.33,2.07-.05,.03-.57,.35c-.78,.48-1.81,.24-2.29-.53-.18-.29-.26-.62-.24-.95,.02-.53,.29-1.04,.78-1.34l.57-.36,.41-.26,3.56-2.2,.68-.42,2.97-1.84,.29-.18s.07-.04,.11-.05c.28-.16,.59-.21,.9-.19,.33,.02,.65,.14,.91,.36,.02,0,.04,.02,.05,.04,.11,.09,.2,.19,.27,.31,.02,.02,.04,.05,.05,.07,.11,.16,.17,.34,.21,.53,.03,.11,.04,.23,.04,.35Z"/>
                <g>
                  <path class="cls-10" d="M42.32,81.3c.04,.43,.04,.87-.01,1.29h-9.78v5.7c-.74-.5-1.38-1.15-1.88-1.96-.43-.69-.71-1.41-.85-2.16,0,0,0,0,0,0-.51-2.57,.59-5.31,2.94-6.77,.82-.51,1.72-.82,2.62-.93,.04,0,.07,0,.11,0,1.03-.11,2.06,.02,3.01,.39,.37,.14,.74,.32,1.08,.53,.04,.02,.08,.05,.11,.07,.31,.2,.59,.42,.86,.67,.43,.39,.82,.85,1.14,1.37,.1,.15,.18,.31,.26,.47,.11,.22,.21,.44,.3,.67,.04,.1,.08,.19,.1,.29,.04,.11,.07,.21,.1,.32l-.1,.06Z"/>
                  <path class="cls-10" d="M42.64,82.59c.03,.53-.01,1.07-.12,1.6t0,0c-.34,1.69-1.35,3.24-2.93,4.23-.79,.49-1.65,.79-2.51,.91-.6,.08-1.21,.08-1.8,0-.97-.13-1.92-.49-2.74-1.05v-5.7h10.11Z"/>
                </g>
                <path class="cls-10" d="M53.19,73.93c.01,.68-.32,1.35-.95,1.74-.56,.35-1.22,.39-1.79,.16-.33-.13-.63-.34-.85-.64l-.11,.07c0-.08-.02-.16-.02-.25,0-.18,.02-.36,.06-.53,.11-.4,.33-.77,.66-1.04,.05-.04,.1-.08,.15-.11,.03-.03,.05-.04,.08-.06,.06-.04,.13-.07,.19-.11,.11-.05,.22-.1,.33-.12,.32-.09,.64-.1,.96-.02,.52,.11,.99,.42,1.28,.9,0,0,0,0,0,0Z"/>
              </g>
              <g>
                <path class="cls-46" d="M50.67,73.6s0,.05,0,.08c0,.28-.09,.55-.24,.8-.13,.21-.31,.4-.54,.54l-.28,.17-.11,.07-2.96,1.84-.35,.22-.1,.06-4.05,2.51-.1,.06-.51,.32c-.75,.47-1.74,.26-2.23-.46-.02-.03-.04-.05-.05-.08-.27-.44-.32-.96-.15-1.42,.11-.35,.35-.66,.69-.87h0s.57-.36,.57-.36l2.47-1.53,1.5-.93,.36-.22,3.28-2.04,.11-.07,.17-.11c.5-.31,1.1-.32,1.59-.08,.11,.05,.22,.12,.32,.2,.15,.11,.27,.25,.38,.42,.09,.14,.15,.29,.19,.44,0,.03,.02,.06,.02,.09,.03,.11,.04,.23,.04,.34Z"/>
                <g>
                  <path class="cls-12" d="M46.53,77.1l-.35,.22-.1,.06-4.05,2.51-.1,.06-.51,.32c-.75,.47-1.74,.26-2.23-.46-.02-.03-.04-.05-.05-.08-.27-.44-.32-.96-.15-1.42,.11-.35,.35-.66,.69-.87h0s.57-.36,.57-.36l2.47-1.53,1.5-.93,.36-.22s.06,.02,.1,.03c.19,.07,.38,.16,.55,.28,.15,.09,.29,.2,.42,.32,.18,.16,.34,.36,.47,.58,.24,.39,.38,.82,.42,1.25,0,.08,.01,.15,.01,.23Z"/>
                  <path class="cls-25" d="M42.31,82.59c-.03,.27-.07,.53-.14,.8,0,.04-.02,.08-.03,.11-.4,1.57-1.38,2.98-2.86,3.9-2.13,1.33-4.74,1.26-6.76,.05-.86-.51-1.61-1.23-2.18-2.14-.23-.37-.41-.74-.56-1.13h0c-.06-.16-.11-.31-.16-.47-.8-2.73,.27-5.76,2.8-7.33,.42-.26,.86-.47,1.32-.62,0,0,.02,0,.03,0,1.84-.63,3.85-.38,5.47,.61,.35,.21,.68,.46,.98,.74,.11,.1,.21,.2,.32,.31,.13,.14,.27,.29,.39,.45,.16,.19,.3,.39,.43,.61,.28,.46,.5,.94,.66,1.43,.08,.24,.15,.48,.2,.73,.02,.11,.04,.21,.05,.32,.02,.12,.03,.24,.04,.35,.04,.43,.04,.87-.01,1.29Z"/>
                  <path class="cls-25" d="M46.08,77.34v.05c0,.52-.15,1.02-.42,1.47-.23,.38-.55,.72-.95,.97l-2.29,1.42-.1,.06-.95,.59-.2,.12-.93,.58-.99,.62c-1.24,.77-2.86,.48-3.77-.62-.09-.1-.16-.21-.23-.32-.05-.08-.09-.15-.13-.23-.21-.42-.31-.87-.31-1.32,0-.96,.49-1.91,1.37-2.45l1.14-.7h.02s1.13-.72,1.13-.72l.78-.49,2.39-1.48c.8-.5,1.75-.56,2.56-.25,.21,.08,.42,.18,.61,.32,.13,.08,.25,.18,.36,.29,.18,.16,.34,.36,.47,.58,.24,.39,.38,.82,.42,1.25,0,.09,.01,.18,.01,.27Z"/>
                </g>
                <g>
                  <path class="cls-46" d="M51.6,72h0c-.12,.49-.43,.93-.89,1.21-.03,.02-.06,.04-.09,.05-.44,.24-.93,.31-1.39,.21h0c-.36-.07-.69-.25-.97-.51-.12-.11-.23-.25-.32-.39-.04-.06-.07-.12-.11-.19-.44-.91-.13-2.02,.75-2.57,.94-.59,2.18-.3,2.77,.64,.11,.19,.2,.38,.25,.59,.08,.32,.07,.65,0,.97Z"/>
                  <path class="cls-46" d="M53.19,73.93c.01,.68-.32,1.35-.95,1.74-.56,.35-1.22,.39-1.79,.16-.33-.13-.63-.34-.85-.64-.05-.05-.09-.11-.13-.17,0,0,0,0,0,0-.12-.2-.21-.41-.25-.62-.07-.31-.06-.63,.02-.93h0c.04-.17,.11-.34,.19-.49,.15-.26,.35-.49,.61-.66,.03-.02,.05-.04,.08-.06,.46-.28,.99-.36,1.48-.26h0c.11,.02,.21,.05,.32,.09,.39,.15,.73,.43,.97,.81,.2,.32,.3,.67,.3,1.03Z"/>
                </g>
              </g>
              <path class="cls-12" d="M49.27,89.12v.22H29.1l-14.37-.29c.01-.63,.07-1.26,.16-1.86H48.98c.19,.61,.29,1.26,.29,1.93Z"/>
              <polygon class="cls-46" points="52.28 87.82 48.71 91.47 15.95 91.47 12.78 87.82 52.28 87.82"/>
              <path class="cls-9" d="M51.61,71.03s-1.46-.59-2.32-.01c-.77,.52-.73,1.44-1.08,1.85l-3,1.85-.4,.23s-2.76,1.84-4.26,2.46c-1.49,.61-3.38-1.04-6.44,.47-3.02,1.5-4.47,5.83-4.47,5.83-.8-2.73,.27-5.76,2.8-7.33,.42-.26,.86-.47,1.32-.62,0,0,.02,0,.03,0,1.84-.63,3.85-.38,5.47,.61l2.39-1.48c.8-.5,1.75-.56,2.56-.25l.36-.22,3.28-2.04c-.44-.91-.13-2.02,.75-2.57,.94-.59,2.18-.3,2.77,.64,.11,.19,.2,.38,.25,.59Z"/>
              <path class="cls-11" d="M52.28,87.82l-3.57,3.66h-16.7c2.8-.38,6.3-.98,8.88-1.83,1.47-.48,2.55-1.16,3.35-1.83h8.03Z"/>
            </g>
            <g>
              <g>
                <g>
                  <path class="cls-35" d="M33.49,167.71c.09,.58-.49,1.04-1.04,.82l-5.28-2.21-3.31-1.38,8.75-2.68,.43,2.72,.44,2.74Z"/>
                  <path class="cls-35" d="M23.78,154.61l8.52-3.74c.54-.24,1.13,.21,1.05,.8l-.78,5.47-8.8-2.52Z"/>
                </g>
                <path class="cls-13" d="M33.05,164.97c-1.76,.79-3.6,1.35-5.28,1.37-.2,0-.4,0-.6-.02l-3.31-1.38,8.75-2.68,.43,2.72Z"/>
                <path class="cls-35" d="M43.79,163.65l-6.06-1.81-.04-4.45,6.03-1.91c.54-.17,1.08,.23,1.09,.79l.06,6.57c0,.56-.53,.97-1.07,.81Z"/>
                <rect class="cls-32" x="37.04" y="158.66" width="7.79" height="1.86" transform="translate(-1.44 .38) rotate(-.52)"/>
                <path class="cls-64" d="M40.81,159.59s-7.45,6.19-13.03,6.24c-1.99,.02-4.23-.74-6.29-1.72-2.21-1.05-4.22-2.37-5.48-3.26-.71-.5-.72-1.55-.02-2.07,2.41-1.76,7.55-5.15,11.67-5.19,2.6-.02,5.63,1.28,8.13,2.68,2.86,1.6,5.01,3.33,5.01,3.33Z"/>
                <path class="cls-35" d="M22.47,158.7c0,.46-.36,.83-.82,.84-.46,0-.83-.36-.84-.82,0-.46,.36-.83,.82-.84,.46,0,.83,.36,.84,.82Z"/>
                <path class="cls-11" d="M40.81,159.59s-7.45,6.19-13.03,6.24c-1.99,.02-4.23-.74-6.29-1.72,4.49-.02,11.16-.21,13.08-2.27,2.14-2.3,1.23-5.58,1.23-5.58,2.86,1.6,5.01,3.33,5.01,3.33Z"/>
              </g>
              <g>
                <g>
                  <path class="cls-35" d="M69.26,167.71c.09,.58-.49,1.04-1.04,.82l-5.28-2.21-3.31-1.38,8.75-2.68,.43,2.72,.44,2.74Z"/>
                  <path class="cls-35" d="M59.54,154.61l8.52-3.74c.54-.24,1.13,.21,1.05,.8l-.78,5.47-8.8-2.52Z"/>
                </g>
                <path class="cls-13" d="M68.82,164.97c-1.76,.79-3.6,1.35-5.28,1.37-.2,0-.4,0-.6-.02l-3.31-1.38,8.75-2.68,.43,2.72Z"/>
                <path class="cls-35" d="M79.55,163.65l-6.06-1.81-.04-4.45,6.03-1.91c.54-.17,1.08,.23,1.09,.79l.06,6.57c0,.56-.53,.97-1.07,.81Z"/>
                <rect class="cls-32" x="72.81" y="158.66" width="7.79" height="1.86" transform="translate(-1.43 .7) rotate(-.52)"/>
                <path class="cls-64" d="M76.58,159.59s-7.45,6.19-13.03,6.24c-1.99,.02-4.23-.74-6.29-1.72-2.21-1.05-4.22-2.37-5.48-3.26-.71-.5-.72-1.55-.02-2.07,2.41-1.76,7.55-5.15,11.67-5.19,2.6-.02,5.63,1.28,8.13,2.68,2.86,1.6,5.01,3.33,5.01,3.33Z"/>
                <path class="cls-35" d="M58.24,158.7c0,.46-.36,.83-.82,.84-.46,0-.83-.36-.84-.82,0-.46,.36-.83,.82-.84,.46,0,.83,.36,.84,.82Z"/>
                <path class="cls-11" d="M76.58,159.59s-7.45,6.19-13.03,6.24c-1.99,.02-4.23-.74-6.29-1.72,4.49-.02,11.16-.21,13.08-2.27,2.14-2.3,1.23-5.58,1.23-5.58,2.86,1.6,5.01,3.33,5.01,3.33Z"/>
              </g>
            </g>
            <g>
              <g>
                <path class="cls-67" d="M80.81,58.68h0c0,.66-.53,1.19-1.17,1.2h-.31s-2.61,0-2.61,0l-11.42,.03c-.64,0-1.17-.52-1.18-1.16h0c0-.66,.53-1.19,1.17-1.19h.29s11.67-.03,11.67-.03h2.07s.02,0,.02,0h.27c.64,0,1.17,.52,1.18,1.16Z"/>
                <path class="cls-67" d="M80.8,53.44h0c0,.64-.49,1.16-1.11,1.19-.02,0-.04,0-.06,0h-2.41s-11.92,.04-11.92,.04c-.01,0-.03,0-.05,0-.62-.02-1.12-.53-1.13-1.15h0c0-.41,.2-.76,.5-.97,.19-.14,.42-.22,.68-.22l11.33-.03h3.01c.25,0,.49,.07,.68,.21,.3,.21,.5,.55,.5,.94Z"/>
                <path class="cls-54" d="M69.35,54.55c.94,0,1.44-.36,1.85-.65,.36-.26,.65-.46,1.27-.46,.62,0,.91,.2,1.27,.46,.41,.29,.91,.64,1.85,.64,.94,0,1.44-.36,1.84-.65,.36-.26,.65-.46,1.27-.46,.28,0,.5-.22,.5-.5,0-.28-.22-.5-.5-.5-.94,0-1.44,.36-1.84,.65-.36,.26-.65,.46-1.27,.46-.62,0-.91-.2-1.27-.46-.41-.29-.91-.64-1.85-.64-.94,0-1.44,.36-1.84,.65-.36,.26-.65,.46-1.27,.46-.62,0-.91-.2-1.27-.46-.41-.29-.91-.64-1.85-.64-.28,0-.5,.22-.5,.5,0,.28,.22,.5,.5,.5,.62,0,.91,.2,1.27,.46,.41,.29,.91,.64,1.85,.64Z"/>
                <path class="cls-54" d="M69.36,59.78c.94,0,1.44-.36,1.84-.65,.36-.26,.65-.46,1.27-.46,.62,0,.91,.2,1.27,.46,.41,.29,.91,.64,1.85,.64,.94,0,1.44-.36,1.84-.65,.36-.26,.65-.46,1.27-.46,.28,0,.5-.22,.5-.5,0-.28-.22-.5-.5-.5-.94,0-1.44,.36-1.84,.65-.36,.26-.65,.46-1.27,.46-.62,0-.91-.2-1.27-.46-.41-.29-.91-.64-1.85-.64-.94,0-1.44,.36-1.84,.65-.36,.26-.65,.46-1.27,.46-.62,0-.91-.2-1.27-.46-.41-.29-.91-.64-1.85-.64-.28,0-.5,.22-.5,.5,0,.28,.22,.5,.5,.5,.62,0,.91,.2,1.27,.46,.41,.29,.91,.64,1.85,.64Z"/>
                <path class="cls-45" d="M80.82,61.33v.02c0,.81-.66,1.48-1.48,1.48h-4.11s-9.62,.04-9.62,.04c-.81,0-1.47-.65-1.48-1.45v-.02c0-.81,.66-1.48,1.47-1.48l11.12-.03h0s2.61,0,2.61,0c.81,0,1.47,.65,1.49,1.45Z"/>
                <path class="cls-45" d="M80.81,56.03v.02c0,.8-.64,1.46-1.45,1.47h-.02s-2.07,0-2.07,0l-11.67,.03c-.8,0-1.46-.65-1.47-1.45v-.02c0-.69,.48-1.28,1.12-1.43,.11-.03,.22-.04,.34-.04l11.62-.03h2.12c.12,0,.24,0,.35,.04,.63,.16,1.11,.73,1.12,1.4Z"/>
                <path class="cls-45" d="M80.3,52.5s-.06,0-.09,0c-.18,0-.64,0-1.25,0-.3,0-.64,0-1.01,0-.4,0-.83,0-1.27,0-1.32,0-2.69,.01-3.52,0-.35,0-.6,0-.72,0-.12,0-.38,0-.73,0-1.11,0-3.14,.01-4.75,.01-.37,0-.72,0-1.02,0-.61,0-1.07,0-1.25,0-.03,0-.06,0-.09,0-.74-.12-.93-1.89,.42-3.16,1.65-1.56,4.99-2.15,7.41-2.16,.39,0,.81,.01,1.24,.04,2.23,.16,4.8,.78,6.19,2.07,1.35,1.26,1.17,3.03,.43,3.16Z"/>
              </g>
              <path class="cls-11" d="M80.8,53.44h0c0,.64-.49,1.16-1.11,1.19,.63,.16,1.11,.73,1.12,1.4v.02c0,.8-.64,1.46-1.45,1.47h.27c.64,0,1.17,.52,1.18,1.16h0c0,.66-.53,1.19-1.17,1.2h-.31c.81,0,1.47,.65,1.49,1.45v.02c0,.81-.66,1.48-1.48,1.48h-4.11c.54-.79,1.1-1.78,1.49-2.95h0c.05-.14,.1-.28,.13-.41,.14-.44,.25-.91,.33-1.4,.03-.17,.06-.36,.07-.54,.05-.38,.07-.77,.08-1.17,0-.59-.04-1.16-.12-1.72,0-.01,0-.03,0-.05-.03-.17-.06-.34-.09-.5-.07-.36-.16-.7-.25-1.03-.05-.18-.11-.37-.17-.55-.03-.08-.05-.15-.08-.23-.84-2.32-2.19-4.13-2.94-5.02,2.23,.16,4.8,.78,6.19,2.07,1.35,1.26,1.17,3.03,.43,3.16,.3,.21,.5,.55,.5,.94Z"/>
            </g>
            <g>
              <g>
                <path class="cls-61" d="M21.92,29.61c0,.15,0,.3-.02,.45-.02,.18-.04,.36-.07,.53,0,0,0,.01,0,.02-.06,.3-.14,.58-.24,.85-.24,.64-.62,1.18-1.07,1.56-.45,.38-.99,.6-1.56,.6s-1.1-.22-1.56-.6c-.45-.38-.82-.92-1.07-1.56-.06-.13-.1-.28-.14-.43h0c-.04-.14-.07-.28-.1-.42-.03-.16-.05-.32-.07-.49-.02-.17-.03-.33-.03-.51,0-.11,0-.22,.01-.32,.12-2.06,1.39-3.67,2.95-3.67s2.83,1.62,2.95,3.67c0,.1,.01,.22,.01,.32Z"/>
                <path class="cls-61" d="M29.23,29.61c0,.15,0,.3-.02,.45-.02,.18-.04,.36-.07,.53,0,0,0,.01,0,.02-.06,.3-.14,.58-.24,.85-.24,.64-.62,1.18-1.07,1.56-.45,.38-.99,.6-1.56,.6s-1.1-.22-1.56-.6c-.45-.38-.82-.92-1.07-1.56-.1-.25-.18-.52-.23-.8h0s0-.03,0-.04c-.03-.18-.06-.36-.07-.55-.01-.15-.02-.3-.02-.45,0-.11,0-.22,.01-.32,.12-2.06,1.39-3.67,2.95-3.67s2.83,1.62,2.95,3.67c0,.1,.01,.22,.01,.32Z"/>
                <path class="cls-61" d="M36.54,29.61c0,.15,0,.3-.02,.45-.02,.18-.04,.36-.07,.53,0,0,0,.01,0,.02-.06,.3-.14,.58-.24,.85-.24,.64-.62,1.18-1.07,1.56-.45,.38-.99,.6-1.56,.6s-1.1-.22-1.56-.6c-.45-.38-.82-.92-1.07-1.56-.1-.27-.18-.55-.24-.85,0,0,0-.01,0-.02-.03-.17-.05-.35-.07-.53-.01-.15-.02-.3-.02-.45,0-.11,0-.22,.01-.32,.12-2.06,1.39-3.67,2.95-3.67s2.83,1.62,2.95,3.67c0,.1,.01,.22,.01,.32Z"/>
                <path class="cls-61" d="M43.85,29.61c0,.15,0,.3-.02,.45-.02,.19-.04,.37-.07,.55,0,.01,0,.03,0,.04h0c-.05,.29-.13,.56-.23,.81-.24,.64-.62,1.18-1.07,1.56-.45,.38-.99,.6-1.56,.6s-1.1-.22-1.56-.6c-.45-.38-.82-.92-1.07-1.56-.1-.27-.18-.55-.24-.85,0,0,0-.01,0-.02-.03-.17-.05-.35-.07-.53-.01-.15-.02-.3-.02-.45,0-.11,0-.22,.01-.32,.12-2.06,1.39-3.67,2.95-3.67s2.83,1.62,2.95,3.67c0,.1,.01,.22,.01,.32Z"/>
                <path class="cls-61" d="M51.16,29.61c0,.17,0,.34-.03,.51-.01,.17-.03,.33-.07,.49-.03,.14-.06,.28-.1,.41h0c-.04,.15-.08,.3-.14,.43-.24,.64-.62,1.18-1.07,1.56-.45,.38-.99,.6-1.56,.6s-1.1-.22-1.56-.6c-.45-.38-.82-.92-1.07-1.56-.1-.27-.18-.55-.24-.85,0,0,0-.01,0-.02-.03-.17-.05-.35-.07-.53-.01-.15-.02-.3-.02-.45,0-.11,0-.22,.01-.32,.12-2.06,1.39-3.67,2.95-3.67s2.83,1.62,2.95,3.67c0,.1,.01,.22,.01,.32Z"/>
              </g>
              <g>
                <path class="cls-27" d="M21.92,30.32c0,.15,0,.3-.02,.45-.02,.18-.04,.36-.07,.53,0,0,0,.01,0,.02-.06,.3-.14,.58-.24,.85-.24,.64-.62,1.18-1.07,1.56-.45,.38-.99,.6-1.56,.6s-1.1-.22-1.56-.6c-.45-.38-.82-.92-1.07-1.56-.06-.13-.1-.28-.14-.43h0c-.04-.14-.07-.28-.1-.42-.03-.16-.05-.32-.07-.49-.02-.17-.03-.33-.03-.51,0-.11,0-.22,.01-.32,.12-2.06,1.39-3.67,2.95-3.67s2.83,1.62,2.95,3.67c0,.1,.01,.22,.01,.32Z"/>
                <path class="cls-27" d="M29.23,30.32c0,.15,0,.3-.02,.45-.02,.18-.04,.36-.07,.53,0,0,0,.01,0,.02-.06,.3-.14,.58-.24,.85-.24,.64-.62,1.18-1.07,1.56-.45,.38-.99,.6-1.56,.6s-1.1-.22-1.56-.6c-.45-.38-.82-.92-1.07-1.56-.1-.25-.18-.52-.23-.8h0s0-.03,0-.04c-.03-.18-.06-.36-.07-.55-.01-.15-.02-.3-.02-.45,0-.11,0-.22,.01-.32,.12-2.06,1.39-3.67,2.95-3.67s2.83,1.62,2.95,3.67c0,.1,.01,.22,.01,.32Z"/>
                <path class="cls-27" d="M36.54,30.32c0,.15,0,.3-.02,.45-.02,.18-.04,.36-.07,.53,0,0,0,.01,0,.02-.06,.3-.14,.58-.24,.85-.24,.64-.62,1.18-1.07,1.56-.45,.38-.99,.6-1.56,.6s-1.1-.22-1.56-.6c-.45-.38-.82-.92-1.07-1.56-.1-.27-.18-.55-.24-.85,0,0,0-.01,0-.02-.03-.17-.05-.35-.07-.53-.01-.15-.02-.3-.02-.45,0-.11,0-.22,.01-.32,.12-2.06,1.39-3.67,2.95-3.67s2.83,1.62,2.95,3.67c0,.1,.01,.22,.01,.32Z"/>
                <path class="cls-27" d="M43.85,30.32c0,.15,0,.3-.02,.45-.02,.19-.04,.37-.07,.55,0,.01,0,.03,0,.04h0c-.05,.29-.13,.56-.23,.81-.24,.64-.62,1.18-1.07,1.56-.45,.38-.99,.6-1.56,.6s-1.1-.22-1.56-.6c-.45-.38-.82-.92-1.07-1.56-.1-.27-.18-.55-.24-.85,0,0,0-.01,0-.02-.03-.17-.05-.35-.07-.53-.01-.15-.02-.3-.02-.45,0-.11,0-.22,.01-.32,.12-2.06,1.39-3.67,2.95-3.67s2.83,1.62,2.95,3.67c0,.1,.01,.22,.01,.32Z"/>
                <path class="cls-27" d="M51.16,30.32c0,.17,0,.34-.03,.51-.01,.17-.03,.33-.07,.49-.03,.14-.06,.28-.1,.41h0c-.04,.15-.08,.3-.14,.43-.24,.64-.62,1.18-1.07,1.56-.45,.38-.99,.6-1.56,.6s-1.1-.22-1.56-.6c-.45-.38-.82-.92-1.07-1.56-.1-.27-.18-.55-.24-.85,0,0,0-.01,0-.02-.03-.17-.05-.35-.07-.53-.01-.15-.02-.3-.02-.45,0-.11,0-.22,.01-.32,.12-2.06,1.39-3.67,2.95-3.67s2.83,1.62,2.95,3.67c0,.1,.01,.22,.01,.32Z"/>
              </g>
              <g>
                <g>
                  <polygon class="cls-46" points="21.96 31.3 21.96 31.31 21.71 33.72 21.58 34.88 21.19 38.53 16.92 38.53 16.53 34.88 16.4 33.72 16.15 31.31 16.15 31.3 21.96 31.3"/>
                  <polygon class="cls-46" points="29.23 31.3 29.23 31.31 28.97 33.72 28.85 34.88 28.46 38.53 24.18 38.53 23.79 34.88 23.66 33.72 23.41 31.31 23.41 31.3 29.23 31.3"/>
                  <polygon class="cls-46" points="36.49 31.3 36.49 31.31 36.23 33.72 36.11 34.88 35.72 38.53 31.44 38.53 31.05 34.88 30.93 33.72 30.67 31.31 30.67 31.3 36.49 31.3"/>
                  <polygon class="cls-46" points="43.75 31.3 43.75 31.31 43.49 33.72 43.37 34.88 42.98 38.53 38.7 38.53 38.31 34.88 38.19 33.72 37.93 31.31 37.93 31.3 43.75 31.3"/>
                  <polygon class="cls-46" points="51.01 31.3 51.01 31.31 50.75 33.72 50.63 34.88 50.24 38.53 45.96 38.53 45.58 34.88 45.45 33.72 45.2 31.31 45.2 31.3 51.01 31.3"/>
                </g>
                <polygon class="cls-36" points="51.21 31.31 50.75 33.72 50.63 34.88 45.58 34.88 45.45 33.72 43.49 33.72 43.37 34.88 38.31 34.88 38.19 33.72 36.23 33.72 36.11 34.88 31.05 34.88 30.93 33.72 28.97 33.72 28.85 34.88 23.79 34.88 23.66 33.72 21.71 33.72 21.58 34.88 16.53 34.88 16.4 33.72 15.95 31.31 51.21 31.31"/>
                <path class="cls-55" d="M52.18,32.24c0,.1,0,.19-.02,.28-.13,.67-.7,1.18-1.4,1.2-.02,0-.03,0-.05,0H16.45s-.03,0-.05,0c-.7-.02-1.27-.53-1.4-1.2-.02-.09-.02-.18-.02-.28,0-.03,0-.06,0-.08,.02-.38,.18-.72,.43-.96,.17-.17,.38-.3,.62-.37,.13-.04,.28-.06,.43-.06H50.7c.15,0,.29,.02,.43,.06,.12,.03,.22,.08,.32,.14,.44,.26,.73,.73,.73,1.28Z"/>
                <path class="cls-46" d="M52.16,32.52c-.13,.67-.7,1.18-1.4,1.2-.02,0-.03,0-.05,0H16.45s-.03,0-.05,0c-.7-.02-1.27-.53-1.4-1.2,.05-.31,.2-.58,.41-.79,.17-.17,.38-.3,.62-.37,.13-.04,.28-.06,.43-.06H50.7c.15,0,.29,.02,.43,.06,.12,.03,.22,.08,.32,.14,.37,.22,.63,.58,.71,1.02Z"/>
              </g>
              <path class="cls-11" d="M21.92,30.32c0,.15,0,.3-.02,.45h-5.44c-.15,0-.29,.02-.43,.06-.02-.17-.03-.33-.03-.51,0-.11,0-.22,.01-.32h5.89c0,.1,.01,.22,.01,.32Z"/>
              <path class="cls-11" d="M29.23,30.32c0,.15,0,.3-.02,.45h-5.88c-.01-.15-.02-.3-.02-.45,0-.11,0-.22,.01-.32h5.89c0,.1,.01,.22,.01,.32Z"/>
              <path class="cls-11" d="M36.54,30.32c0,.15,0,.3-.02,.45h-5.88c-.01-.15-.02-.3-.02-.45,0-.11,0-.22,.01-.32h5.89c0,.1,.01,.22,.01,.32Z"/>
              <path class="cls-11" d="M43.85,30.32c0,.15,0,.3-.02,.45h-5.88c-.01-.15-.02-.3-.02-.45,0-.11,0-.22,.01-.32h5.89c0,.1,.01,.22,.01,.32Z"/>
              <path class="cls-11" d="M51.16,30.32c0,.17,0,.34-.03,.51-.13-.04-.28-.06-.43-.06h-5.44c-.01-.15-.02-.3-.02-.45,0-.11,0-.22,.01-.32h5.89c0,.1,.01,.22,.01,.32Z"/>
            </g>
            <g>
              <g>
                <g>
                  <g>
                    <path class="cls-39" d="M112.66,90.22v28.16c0,1.82-1.48,3.3-3.3,3.3h-8.73c-.11,0-.22,0-.33-.01-1.67-.17-2.97-1.57-2.97-3.29v-28.16h15.34Z"/>
                    <polygon class="cls-22" points="112.66 90.21 97.32 90.21 102.84 84.63 107.14 84.63 112.66 90.21"/>
                    <path class="cls-39" d="M107.15,82.19v2.45h-4.3v-2.45c0-.53,.37-.97,.86-1.09,.08-.02,.16-.03,.24-.03h2.08c.62,0,1.12,.5,1.12,1.12Z"/>
                    <g class="cls-31">
                      <polygon class="cls-41" points="99.01 90.21 103.94 84.63 102.84 84.63 97.32 90.21 99.01 90.21"/>
                    </g>
                    <g class="cls-31">
                      <path class="cls-41" d="M103.94,81.06v3.57h-1.1v-2.45c0-.53,.37-.97,.86-1.09,.08-.02,.16-.03,.24-.03Z"/>
                    </g>
                  </g>
                  <g class="cls-50">
                    <path class="cls-5" d="M99.01,90.21v31.45c-.94-.17-1.68-1.57-1.68-3.29v-28.16h1.68Z"/>
                  </g>
                </g>
                <path class="cls-15" d="M112.66,90.22v28.16c0,1.82-1.48,3.3-3.3,3.3h-3.17c1.17-.94,2.93-2.52,3.24-5.14,.58-4.89,0-17.76,.06-26.32h3.18Z"/>
              </g>
              <circle class="cls-7" cx="103.39" cy="102.09" r="4.01"/>
            </g>
            <g>
              <g>
                <g>
                  <g>
                    <polygon class="cls-36" points="32.89 106.84 18.7 106.84 18.7 103.11 30.98 103.11 32.89 106.84"/>
                    <rect class="cls-24" x="18.7" y="106.84" width="14.19" height="31"/>
                    <rect class="cls-21" x="14.86" y="106.84" width="13.99" height="31"/>
                    <polygon class="cls-19" points="28.86 106.84 14.86 106.84 17.47 103.11 30.98 103.11 28.86 106.84"/>
                    <path class="cls-19" d="M18.16,100.56h12.12c.38,0,.7,.31,.7,.7v1.85h-13.52v-1.85c0-.38,.31-.7,.7-.7Z"/>
                    <polygon class="cls-66" points="30.25 104.39 32.89 106.84 30.98 103.11 30.25 104.39"/>
                    <g>
                      <path class="cls-36" d="M19.36,103.11h-1.01v-1.13c0-.28,.23-.5,.5-.5h0c.28,0,.5,.23,.5,.5v1.13Z"/>
                      <path class="cls-36" d="M21.51,103.11h-1.01v-1.13c0-.28,.23-.5,.5-.5h0c.28,0,.5,.23,.5,.5v1.13Z"/>
                      <path class="cls-36" d="M23.66,103.11h-1.01v-1.13c0-.28,.23-.5,.5-.5h0c.28,0,.5,.23,.5,.5v1.13Z"/>
                      <path class="cls-36" d="M25.8,103.11h-1.01v-1.13c0-.28,.23-.5,.5-.5h0c.28,0,.5,.23,.5,.5v1.13Z"/>
                      <path class="cls-36" d="M27.95,103.11h-1.01v-1.13c0-.28,.23-.5,.5-.5h0c.28,0,.5,.23,.5,.5v1.13Z"/>
                      <path class="cls-36" d="M29.45,101.47h.3c.2,0,.36,.16,.36,.36v1.28h-1.01v-1.28c0-.2,.16-.36,.36-.36Z"/>
                    </g>
                  </g>
                  <rect class="cls-58" x="16.26" y="113.55" width="10.86" height="10.1" rx="2.07" ry="2.07"/>
                </g>
                <path class="cls-58" d="M25.22,127.87h-7.06c-.68,0-1.24-.55-1.24-1.24h0c0-.68,.55-1.24,1.24-1.24h7.06c.68,0,1.24,.55,1.24,1.24h0c0,.68-.55,1.24-1.24,1.24Z"/>
              </g>
              <path class="cls-9" d="M22.49,137.84h-7.63v-31h2.17s-1.71,25.28,.67,28.23c1.67,2.07,3.07,2.34,4.79,2.77Z"/>
            </g>
            <g>
              <g>
                <g>
                  <g>
                    <g>
                      <path class="cls-22" d="M67.89,22.55l-.04,.72-.04,.86h0s-.03,.63-.03,.63l-.28,3.44h0s-.02,.37-.02,.37v.29s-.01,.01-.01,.01c0,.01,0,.02,0,.03-.04,.78-.63,1.42-1.4,1.53-.07,0-.15,.02-.22,.02h-2.82c-.08,0-.15,0-.22-.02-.77-.11-1.54-2.09-1.54-2.09l-.05-.92v-.27s-.07-1.17-.07-1.17h0s-.09-1.85-.09-1.85h0s-.04-.87-.04-.87l-.04-.72h6.93Z"/>
                      <path class="cls-39" d="M67.81,24.13l-.03,.63-.28,3.42-.02,.39h0s-.01,.27-.01,.27v.04s0,.02,0,.03c-.04,.78-.63,1.42-1.4,1.53-.07,0-.15,.01-.22,.01h-2.83c-.07,0-.15-.01-.22-.01-.57,0-.93-.3-1.15-.67-.37-.61-.38-1.42-.38-1.42l-.05-.92v-.27s-.07-1.17-.07-1.17h0s-.09-1.85-.09-1.85h6.77Z"/>
                      <rect class="cls-39" x="60.52" y="22.38" width="7.81" height=".89" rx=".31" ry=".31"/>
                    </g>
                    <rect class="cls-5" x="62.26" y="25.65" width="4.32" height="1.95" rx=".69" ry=".69"/>
                  </g>
                  <path class="cls-12" d="M67.81,24.13l-.03,.63-.28,3.42-.02,.39h0s-.01,.27-.01,.27v.04s0,.02,0,.03c-.04,.78-.63,1.42-1.4,1.53-.07,0-.15,.01-.22,.01h-2.83c-.07,0-.15-.01-.22-.01-.57,0-.93-.3-1.15-.67,1.51,.29,6.25,1.19,5.21-5.64h.97Z"/>
                </g>
                <g>
                  <g>
                    <g>
                      <path class="cls-22" d="M75.72,22.55l-.04,.72-.04,.86h0s-.03,.63-.03,.63l-.28,3.44h0s-.02,.37-.02,.37v.29s-.01,.01-.01,.01c0,.01,0,.02,0,.03-.04,.78-.63,1.42-1.4,1.53-.07,0-.15,.02-.22,.02h-2.82c-.08,0-.15,0-.22-.02-.77-.11-1.54-2.09-1.54-2.09l-.05-.92v-.27s-.07-1.17-.07-1.17h0s-.09-1.85-.09-1.85h0s-.04-.87-.04-.87l-.04-.72h6.93Z"/>
                      <path class="cls-39" d="M75.65,24.13l-.03,.63-.28,3.42-.02,.39h0s-.01,.27-.01,.27v.04s0,.02,0,.03c-.04,.78-.63,1.42-1.4,1.53-.07,0-.15,.01-.22,.01h-2.83c-.07,0-.15-.01-.22-.01-.57,0-.93-.3-1.15-.67-.37-.61-.38-1.42-.38-1.42l-.05-.92v-.27s-.07-1.17-.07-1.17h0s-.09-1.85-.09-1.85h6.77Z"/>
                      <rect class="cls-39" x="68.35" y="22.38" width="7.81" height=".89" rx=".31" ry=".31"/>
                    </g>
                    <rect class="cls-5" x="70.1" y="25.65" width="4.32" height="1.95" rx=".69" ry=".69"/>
                  </g>
                  <path class="cls-12" d="M75.65,24.13l-.03,.63-.28,3.42-.02,.39h0s-.01,.27-.01,.27v.04s0,.02,0,.03c-.04,.78-.63,1.42-1.4,1.53-.07,0-.15,.01-.22,.01h-2.83c-.07,0-.15-.01-.22-.01-.57,0-.93-.3-1.15-.67,1.51,.29,6.25,1.19,5.21-5.64h.97Z"/>
                </g>
              </g>
              <g>
                <g>
                  <g>
                    <g>
                      <path class="cls-22" d="M67.89,30.62l-.04,.72-.04,.86h0s-.03,.63-.03,.63l-.28,3.44h0s-.02,.37-.02,.37v.29s-.01,.01-.01,.01c0,.01,0,.02,0,.03-.04,.78-.63,1.42-1.4,1.53-.07,0-.15,.02-.22,.02h-2.82c-.08,0-.15,0-.22-.02-.77-.11-1.54-2.09-1.54-2.09l-.05-.92v-.27s-.07-1.17-.07-1.17h0s-.09-1.85-.09-1.85h0s-.04-.87-.04-.87l-.04-.72h6.93Z"/>
                      <path class="cls-21" d="M67.81,32.21l-.03,.63-.28,3.42-.02,.39h0s-.01,.27-.01,.27v.04s0,.02,0,.03c-.04,.78-.63,1.42-1.4,1.53-.07,0-.15,.01-.22,.01h-2.83c-.07,0-.15-.01-.22-.01-.57,0-.93-.3-1.15-.67-.37-.61-.38-1.42-.38-1.42l-.05-.92v-.27s-.07-1.17-.07-1.17h0s-.09-1.85-.09-1.85h6.77Z"/>
                      <path class="cls-21" d="M67.88,31.34h-6.92c-.25,0-.44-.2-.44-.44h0c0-.25,.2-.44,.44-.44h6.92c.25,0,.44,.2,.44,.44h0c0,.25-.2,.44-.44,.44Z"/>
                    </g>
                    <rect class="cls-5" x="62.26" y="33.72" width="4.32" height="1.95" rx=".69" ry=".69"/>
                  </g>
                  <path class="cls-12" d="M67.81,32.21l-.03,.63-.28,3.42-.02,.39h0s-.01,.27-.01,.27v.04s0,.02,0,.03c-.04,.78-.63,1.42-1.4,1.53-.07,0-.15,.01-.22,.01h-2.83c-.07,0-.15-.01-.22-.01-.57,0-.93-.3-1.15-.67,1.51,.29,6.25,1.19,5.21-5.64h.97Z"/>
                </g>
                <g>
                  <g>
                    <g>
                      <path class="cls-22" d="M75.72,30.62l-.04,.72-.04,.86h0s-.03,.63-.03,.63l-.28,3.44h0s-.02,.37-.02,.37v.29s-.01,.01-.01,.01c0,.01,0,.02,0,.03-.04,.78-.63,1.42-1.4,1.53-.07,0-.15,.02-.22,.02h-2.82c-.08,0-.15,0-.22-.02-.77-.11-1.54-2.09-1.54-2.09l-.05-.92v-.27s-.07-1.17-.07-1.17h0s-.09-1.85-.09-1.85h0s-.04-.87-.04-.87l-.04-.72h6.93Z"/>
                      <path class="cls-21" d="M75.65,32.21l-.03,.63-.28,3.42-.02,.39h0s-.01,.27-.01,.27v.04s0,.02,0,.03c-.04,.78-.63,1.42-1.4,1.53-.07,0-.15,.01-.22,.01h-2.83c-.07,0-.15-.01-.22-.01-.57,0-.93-.3-1.15-.67-.37-.61-.38-1.42-.38-1.42l-.05-.92v-.27s-.07-1.17-.07-1.17h0s-.09-1.85-.09-1.85h6.77Z"/>
                      <path class="cls-21" d="M75.72,31.34h-6.92c-.25,0-.44-.2-.44-.44h0c0-.25,.2-.44,.44-.44h6.92c.25,0,.44,.2,.44,.44h0c0,.25-.2,.44-.44,.44Z"/>
                    </g>
                    <rect class="cls-5" x="70.1" y="33.72" width="4.32" height="1.95" rx=".69" ry=".69"/>
                  </g>
                  <path class="cls-12" d="M75.65,32.21l-.03,.63-.28,3.42-.02,.39h0s-.01,.27-.01,.27v.04s0,.02,0,.03c-.04,.78-.63,1.42-1.4,1.53-.07,0-.15,.01-.22,.01h-2.83c-.07,0-.15-.01-.22-.01-.57,0-.93-.3-1.15-.67,1.51,.29,6.25,1.19,5.21-5.64h.97Z"/>
                </g>
              </g>
            </g>
            <g>
              <g>
                <path class="cls-43" d="M39.27,49.9v12.97H16.36v-7.23c.27,.15,.59,.23,.92,.23,1.08,0,1.96-.88,1.96-1.96s-.88-1.96-1.96-1.96c-.33,0-.65,.08-.92,.23v-2.27h22.91Z"/>
                <polygon class="cls-52" points="16.36 49.9 16.63 49.87 31.34 48.13 39.27 49.9 16.36 49.9"/>
                <path class="cls-18" d="M23.87,58.77c0,1.08-.88,1.96-1.96,1.96s-1.96-.88-1.96-1.96,.88-1.96,1.96-1.96,1.96,.88,1.96,1.96Z"/>
                <path class="cls-18" d="M39.27,52.47v4.68c-.06,0-.12,0-.19,0-.4,0-.77-.1-1.1-.27-.74-.39-1.25-1.17-1.25-2.07s.51-1.68,1.25-2.07c.33-.17,.7-.27,1.1-.27,.07,0,.13,0,.19,0Z"/>
                <circle class="cls-18" cx="30.92" cy="59.86" r="1.51"/>
                <circle class="cls-18" cx="28.37" cy="53.56" r="2.56"/>
              </g>
              <path class="cls-11" d="M39.27,49.9v12.97H16.36v-1.15c3.42,.04,15.16,1.15,17.55-3.7,1.33-2.69,1.67-6.04,1.92-8.13h3.44Z"/>
            </g>
            <g>
              <g>
                <g>
                  <g>
                    <g>
                      <path class="cls-47" d="M122.37,101.26v9.89c0,.24,.19,.44,.44,.44h.11v5.79h-11.02v-5.79h.11c.24,0,.44-.2,.44-.44v-9.89c0-.24-.2-.44-.44-.44h-.11v-4.61c0-.38,.61-1.36,1.34-2.39,1.03-1.46,2.29-3.02,2.35-3.1h0s3.62,0,3.62,0h0c.06,.08,1.32,1.64,2.35,3.1,.73,1.03,1.34,2.02,1.34,2.39v4.61h-.11c-.24,0-.44,.2-.44,.44Z"/>
                      <g>
                        <g>
                          <path class="cls-47" d="M116.46,117.47c0,1.26-1.02,2.29-2.29,2.29s-2.29-1.02-2.29-2.29,1.02-2.29,2.29-2.29,2.29,1.02,2.29,2.29Z"/>
                          <path class="cls-47" d="M122.91,117.47c0,1.26-1.02,2.29-2.29,2.29s-2.29-1.02-2.29-2.29,1.02-2.29,2.29-2.29,2.29,1.02,2.29,2.29Z"/>
                          <path class="cls-47" d="M119.59,117.47c0,1.26-1.02,2.29-2.29,2.29s-2.29-1.02-2.29-2.29,1.02-2.29,2.29-2.29,2.29,1.02,2.29,2.29Z"/>
                        </g>
                        <rect class="cls-64" x="115.59" y="88.57" width="3.63" height="3.5" rx=".21" ry=".21"/>
                        <path class="cls-42" d="M119.44,89.74c0,.11-.08,.19-.19,.19h-3.69c-.11,0-.19-.09-.19-.19,0-.03,0-.06,.03-.09,.03-.06,.1-.1,.17-.1h3.69c.07,0,.13,.04,.17,.1,.02,.03,.02,.06,.02,.09Z"/>
                        <path class="cls-59" d="M115.31,86.57h4.18c.15,0,.27,.12,.27,.27v2.53c0,.15-.12,.28-.28,.28h-4.18c-.15,0-.27-.12-.27-.27v-2.53c0-.15,.12-.27,.27-.27Z"/>
                      </g>
                    </g>
                    <rect class="cls-59" x="112.44" y="101.15" width="9.92" height="10.09"/>
                  </g>
                  <path class="cls-42" d="M121.57,93.82h-8.33c1.03-1.46,2.29-3.02,2.35-3.1v-.78h3.63v.78c.06,.08,1.32,1.64,2.35,3.1Z"/>
                  <rect class="cls-30" x="113.24" y="103.59" width="6.79" height="5.02" rx=".51" ry=".51"/>
                  <path class="cls-15" d="M122.37,101.15v10.09h-7.85c1-.85,2.78-1.91,3.44-4.29,.86-3.12,.79-4.49-.27-5.8h4.69Z"/>
                </g>
                <path class="cls-30" d="M119.77,86.84v.41h-4.73v-.41c0-.15,.13-.27,.28-.27h4.18c.15,0,.27,.12,.27,.27Z"/>
                <rect class="cls-15" x="112.44" y="110.65" width="9.92" height=".58"/>
                <rect class="cls-15" x="112.44" y="101.15" width="9.92" height=".58"/>
              </g>
              <path class="cls-15" d="M119.77,86.84v2.53c0,.15-.12,.27-.27,.27h-1.48s.84-.24,.89-1.43c.02-.31-.03-.64-.1-.97-.05-.24-.12-.47-.2-.69h.89c.15,0,.27,.12,.27,.27Z"/>
            </g>
            <g>
              <rect class="cls-6" x="10.54" y="147.99" width="74.42" height="21.12"/>
              <polygon class="cls-8" points="44.2 147.99 34.01 169.1 25.61 169.1 35.8 147.99 44.2 147.99"/>
              <polygon class="cls-8" points="56.12 147.99 45.93 169.1 42.23 169.1 52.42 147.99 56.12 147.99"/>
              <polygon class="cls-8" points="73.53 147.99 63.34 169.1 59.64 169.1 69.83 147.99 73.53 147.99"/>
            </g>
            <g>
              <rect class="cls-6" x="10.54" y="169.1" width="74.42" height="21.12"/>
              <polygon class="cls-8" points="44.2 169.1 34.01 190.22 25.61 190.22 35.8 169.1 44.2 169.1"/>
              <polygon class="cls-8" points="56.12 169.1 45.93 190.22 42.23 190.22 52.42 169.1 56.12 169.1"/>
              <polygon class="cls-8" points="73.53 169.1 63.34 190.22 59.64 190.22 69.83 169.1 73.53 169.1"/>
            </g>
            <g>
              <g>
                <g>
                  <rect class="cls-53" x="43.22" y="109.21" width="1.23" height="3.65" rx=".35" ry=".35" transform="translate(-24.59 13.22) rotate(-13.43)"/>
                  <g>
                    <path class="cls-43" d="M49.23,129.75c-.26,.1-.53,.18-.81,.25-3.92,.93-7.85-1.48-8.79-5.4-.04-.17-.08-.35-.11-.53-.61-3.73,1.77-7.37,5.51-8.26,2.66-.63,5.32,.27,7.06,2.15,.7,.76,1.26,1.69,1.59,2.74,.06,.17,.1,.34,.15,.52,.87,3.64-1.16,7.29-4.59,8.54Z"/>
                    <path class="cls-43" d="M48.96,114.86c.6,2.5-.68,4.94-2.85,5.46-2.17,.52-4.42-1.08-5.01-3.58-.6-2.49,.68-4.94,2.85-5.46,2.17-.52,4.42,1.08,5.01,3.58Z"/>
                  </g>
                </g>
                <g>
                  <g class="cls-33">
                    <path class="cls-10" d="M49.23,129.75c-1.64-.78-2.96-2.39-3.43-4.45-.15-.64-.2-1.28-.17-1.9,.14-2.63,1.79-4.9,4.23-5.45,.75-.17,1.5-.16,2.22,0,.7,.76,1.26,1.69,1.59,2.74,.06,.17,.1,.34,.15,.52,.87,3.64-1.16,7.29-4.59,8.54Z"/>
                  </g>
                  <rect class="cls-63" x="53.48" y="115.96" width=".9" height="3.47" rx=".26" ry=".26"/>
                  <path class="cls-38" d="M60.91,125.3c-.74,3.23-3.58,5.36-6.48,4.93-.12-.02-.25-.04-.37-.07-.02,0-.05-.01-.07-.02-.02,0-.05,.01-.08,.02-3.01,.68-6.08-1.49-6.85-4.86-.15-.64-.2-1.28-.17-1.9,.14-2.63,1.79-4.9,4.23-5.45,.97-.22,1.95-.14,2.86,.18,.9-.32,1.88-.4,2.86-.18,.27,.06,.54,.15,.79,.25,2,.82,3.32,2.87,3.44,5.2,.03,.62-.02,1.26-.17,1.9Z"/>
                  <path class="cls-53" d="M53.87,114.42c.7,.56,.82,1.59,.25,2.29-.56,.7-1.59,.82-2.29,.25-.7-.56-.87-2.78-.87-2.78,0,0,2.2-.32,2.91,.24Z"/>
                </g>
                <path class="cls-12" d="M60.91,125.3c-.74,3.23-3.58,5.36-6.48,4.93,0,0,4.9-2.21,5.09-5.82,.18-3.39-1.89-6.21-1.89-6.21,2,.82,3.32,2.87,3.44,5.2,.03,.62-.02,1.26-.17,1.9Z"/>
              </g>
              <g>
                <path class="cls-46" d="M74.75,122.57c0,4.22-1.71,8.04-4.47,10.8-2.76,2.76-6.58,4.47-10.8,4.47h-8.66c-.22,0-.43,0-.65-.01-8.13-.34-14.62-7.04-14.62-15.26h39.2Z"/>
                <path class="cls-11" d="M74.75,122.57c0,4.22-1.71,8.04-4.47,10.8-2.76,2.76-6.58,4.47-10.8,4.47h-8.66c-.22,0-.43,0-.65-.01,4.11-1.99,10.2-5.4,11.8-8.78,1.12-2.36,.7-4.66-.1-6.48h12.87Z"/>
                <path class="cls-16" d="M74.11,124.75H36.19c-.86,0-1.56-.65-1.56-1.45h0c0-.8,.7-1.45,1.56-1.45h37.92c.86,0,1.56,.65,1.56,1.45h0c0,.8-.7,1.45-1.56,1.45Z"/>
              </g>
            </g>
            <g>
              <g>
                <g>
                  <path class="cls-63" d="M80.51,131.55c-.55,1.34-1.35,2.5-2.34,3.46-1.62,1.56-3.71,2.53-5.93,2.77-.49,.05-.99,.07-1.49,.05h0c-.94-.04-1.9-.21-2.83-.53-.03,0-.06-.02-.09-.03-.06-.02-.12-.04-.17-.06-.1-.04-.2-.07-.29-.11-.15-.06-.29-.12-.43-.19-.04-.02-.08-.04-.13-.06,0,0,0,0-.01,0-.1-.04-.19-.09-.28-.14-.11-.06-.23-.12-.34-.18t0,0c-.15-.09-.31-.18-.45-.27-.09-.06-.18-.12-.27-.18-.08-.06-.17-.12-.25-.18-.01,0-.02-.01-.03-.02-.08-.06-.16-.12-.24-.18-.4-.31-.78-.66-1.11-1.03-.23-.24-.44-.48-.63-.73-.08-.1-.15-.2-.22-.3-.07-.1-.14-.2-.21-.3-.21-.31-.39-.63-.56-.96-.04-.09-.09-.17-.13-.26-.02-.04-.04-.07-.05-.11-.05-.1-.09-.2-.13-.29-.02-.04-.04-.09-.06-.13-.04-.1-.08-.2-.12-.3-.02-.05-.03-.09-.05-.14-.01-.04-.03-.08-.04-.12-.01-.03-.02-.06-.03-.09-.05-.13-.09-.26-.13-.4-.03-.1-.06-.19-.08-.29-.06-.24-.11-.48-.16-.73-.02-.09-.04-.19-.05-.28-.02-.12-.04-.24-.05-.37,0-.06-.02-.12-.02-.18,0-.06-.01-.11-.02-.17,0-.13-.02-.26-.02-.39,0-.13,0-.25,0-.37,0-.84,.11-1.69,.33-2.53,.11-.42,.25-.85,.42-1.27,.3-.74,.67-1.42,1.11-2.04,.15-.2,.3-.4,.46-.6,.16-.19,.33-.38,.5-.56,1.82-1.89,4.31-3,6.92-3.09,.13,0,.25,0,.38,0,.15,0,.3,0,.45,.01h.04c.15,0,.3,.02,.45,.04,.12,0,.24,.02,.37,.04,.06,0,.12,.01,.18,.02,.11,.02,.23,.04,.34,.06,.06,0,.12,.02,.17,.03,0,0,0,0,0,0h0s.05,0,.07,.02c.03,0,.06,0,.08,.02,.08,.02,.17,.04,.25,.06,.01,0,.02,0,.04,0,.13,.03,.27,.07,.4,.11,.08,.02,.16,.05,.23,.07,.1,.03,.2,.06,.3,.1,.14,.05,.28,.1,.41,.16,.12,.05,.24,.1,.36,.16,.07,.03,.13,.06,.19,.09,.1,.05,.2,.09,.3,.15,0,0,0,0,.01,0,.11,.06,.22,.12,.33,.18,.02,.01,.05,.03,.07,.04,.04,.02,.09,.05,.13,.07,.04,.02,.09,.05,.13,.08,.05,.02,.09,.05,.13,.08,0,0,0,0,0,0,.66,.42,1.27,.92,1.8,1.47,.17,.18,.33,.36,.5,.55,.4,.48,.75,.99,1.04,1.52,.18,.32,.34,.65,.49,.99,.05,.11,.09,.23,.14,.34,.09,.23,.17,.46,.24,.69,.64,2.14,.59,4.5-.31,6.72Z"/>
                  <path class="cls-53" d="M76.62,119.26c-.42-.14-.83-.25-1.26-.33-.12-.03-.24-.05-.36-.07-.07-.01-.13-.02-.2-.03h0c-.09-.02-.17-.03-.26-.04-.5-.06-.99-.07-1.48-.06-3.09,.1-6.03,1.64-7.86,4.21-.45,.63-.84,1.33-1.14,2.08-.42,1.04-.66,2.1-.72,3.16-.04,.63-.02,1.25,.05,1.87,.04,.32,.09,.63,.17,.94,0,.05,.02,.09,.03,.14,.26,1.09,.69,2.14,1.29,3.08,.64,1.02,1.48,1.94,2.47,2.69,.02,.01,.04,.03,.06,.04,0,0,0,0,0,0s0,0,0,0h0s0,0,0,0c.16,.12,.33,.23,.5,.34,0,0,0,0,.01,0-.04-.01-.07-.02-.11-.04h0c-.06-.02-.12-.04-.17-.07-.1-.03-.2-.07-.29-.11-.12-.05-.24-.1-.36-.16-.02-.01-.05-.02-.07-.04-.04-.02-.08-.04-.13-.06,0,0,0,0-.01,0-.1-.04-.19-.09-.28-.14-.11-.06-.23-.12-.34-.18-.16-.09-.31-.18-.46-.28-.09-.06-.18-.12-.27-.18-.08-.06-.17-.12-.25-.18-.01,0-.02-.01-.03-.02-.08-.06-.16-.12-.24-.18-.4-.31-.78-.66-1.11-1.03-.23-.24-.44-.48-.63-.73-.08-.1-.15-.2-.22-.3-.07-.1-.14-.2-.21-.3-.21-.31-.39-.63-.56-.96-.04-.09-.09-.17-.13-.26-.02-.04-.04-.07-.05-.11-.05-.1-.09-.2-.13-.29-.02-.04-.04-.09-.06-.13-.04-.1-.08-.2-.12-.3-.02-.05-.03-.09-.05-.14-.02-.04-.03-.08-.04-.12-.01-.03-.02-.06-.03-.09-.05-.13-.09-.26-.13-.4-.03-.1-.06-.19-.08-.29-.06-.24-.11-.48-.16-.73-.02-.09-.04-.19-.05-.28-.02-.12-.04-.24-.05-.37,0-.06-.02-.12-.02-.18,0-.06-.01-.11-.02-.17,0-.13-.02-.26-.02-.39,0-.13,0-.25,0-.37,0-.84,.11-1.69,.33-2.53,.11-.42,.25-.85,.42-1.27,.3-.74,.67-1.42,1.11-2.04,.15-.2,.3-.4,.46-.6,.16-.19,.33-.38,.5-.56,1.82-1.89,4.31-3,6.92-3.09,.13,0,.25,0,.38,0,.15,0,.3,0,.45,.01h.04c.15,0,.3,.02,.45,.04,.12,0,.24,.02,.37,.04,.06,0,.12,.01,.18,.02,.11,.02,.23,.04,.34,.06,.06,0,.12,.02,.17,.03,0,0,0,0,0,0h0s.05,0,.07,.02c.03,0,.06,0,.08,.02,.08,.02,.17,.04,.25,.06,.01,0,.02,0,.04,0,.13,.03,.27,.07,.4,.11,.08,.02,.16,.05,.23,.07,.1,.03,.2,.06,.3,.1,.14,.05,.28,.1,.41,.16,.12,.05,.24,.1,.36,.16,.07,.03,.13,.06,.19,.09,.1,.05,.2,.09,.3,.15,0,0,0,0,.01,0,.11,.06,.22,.12,.33,.18,.02,.01,.05,.03,.07,.04,.04,.02,.09,.05,.13,.07,.04,.02,.09,.05,.13,.08,.05,.02,.09,.05,.13,.08Z"/>
                </g>
                <path class="cls-53" d="M80.51,131.55c-.55,1.34-1.35,2.5-2.34,3.46-1.61,1.56-3.71,2.54-5.93,2.78-1.42,.15-2.88,0-4.31-.48-.04-.01-.07-.02-.11-.04-.06-.02-.11-.04-.17-.07-.1-.03-.2-.07-.29-.11-.12-.05-.24-.1-.36-.16-.02-.01-.05-.02-.07-.04-.04-.02-.08-.04-.13-.06,.18,.04,.36,.07,.55,.09,.02,0,.04,0,.06,0,0,0,0,0,0,0h.01s0,0,.02,0c2.23,.31,4.47-.15,6.38-1.23,1.9-1.08,3.46-2.78,4.35-4.96,1.74-4.29,.33-9.07-3.16-11.78-.07-.05-.14-.1-.2-.15,0,0,0,0,0,0-.06-.04-.11-.08-.17-.12-.45-.31-.93-.6-1.44-.85,.02,0,.05,0,.07,.02,.03,0,.06,0,.08,.02,.08,.02,.17,.04,.25,.06,.01,0,.02,0,.04,0,.13,.03,.26,.07,.4,.11,.08,.02,.16,.05,.23,.07,.1,.03,.2,.06,.3,.1,.14,.05,.28,.1,.41,.16,.12,.05,.24,.1,.36,.16,.07,.03,.13,.06,.19,.09,.1,.05,.2,.09,.3,.15,0,0,0,0,.01,0,.11,.06,.22,.12,.33,.18,.02,.01,.05,.03,.07,.04,.04,.02,.08,.05,.13,.07,.04,.02,.09,.05,.13,.08,.05,.02,.09,.05,.13,.08,0,0,0,0,0,0,.66,.42,1.27,.92,1.8,1.47,.17,.18,.34,.36,.5,.55,.4,.48,.75,.99,1.04,1.52,.18,.32,.34,.65,.49,.99,.05,.11,.09,.23,.14,.34,.09,.23,.17,.46,.24,.69,.64,2.14,.59,4.5-.31,6.72Z"/>
                <path class="cls-53" d="M74.97,118.4c-.37,.29-4.89,4.61-6.51,8.6-1.62,3.99-1.09,10.09-1.09,10.09l7.61-18.7Z"/>
                <path class="cls-53" d="M74.97,118.4c.06,.46,.33,6.6-1.29,10.58-1.62,3.99-6.26,7.99-6.26,7.99l7.56-18.57Z"/>
              </g>
              <path class="cls-14" d="M75.02,129.01c0,1.66-.44,3.23-1.21,4.59-.43,.76-.96,1.45-1.57,2.06h0c-1.42,.16-2.88,.01-4.31-.47-.04-.01-.07-.02-.11-.04-.06-.02-.11-.04-.17-.07-.1-.03-.2-.07-.29-.11-.12-.05-.24-.1-.36-.16-.02-.01-.05-.02-.07-.04-.04-.02-.08-.04-.13-.06,0,0,0,0-.01,0-.1-.04-.19-.09-.28-.14-.28-.14-.54-.29-.8-.46-.09-.06-.18-.12-.27-.18-.08-.06-.17-.12-.25-.18-.01,0-.02-.01-.03-.02-.08-.06-.16-.12-.24-.18-.66-.52-1.24-1.11-1.74-1.76-.08-.1-.15-.2-.22-.3-.07-.1-.14-.2-.21-.3-.21-.31-.39-.63-.56-.96-.04-.09-.09-.17-.13-.26-.02-.04-.04-.07-.05-.11-.05-.1-.09-.2-.13-.29-.06-.14-.12-.28-.17-.43-.02-.05-.03-.09-.05-.14h3.88s9.48,0,9.48,0Z"/>
              <g>
                <g>
                  <path class="cls-26" d="M73.36,128.43c0,4.98-3.96,9.11-8.87,9.39-.18,.01-.36,.02-.54,.02-5.15,0-9.4-4.24-9.41-9.4h3.57s5.77-.01,5.77-.01h9.48Z"/>
                  <path class="cls-5" d="M72.69,128.43c0,4.84-3.98,8.82-8.82,8.82-.13,0-.25,0-.38-.01-4.66-.2-8.43-4.09-8.44-8.79h0s.55,0,.55,0h2.5s5.77,0,5.77,0h8.82Z"/>
                  <path class="cls-62" d="M72.14,128.43c0,4.53-3.74,8.26-8.27,8.26-.53,0-1.04-.05-1.54-.15-3.81-.73-6.73-4.1-6.73-8.11h0s2.5,0,2.5,0h5.77s8.27,0,8.27,0Z"/>
                </g>
                <g>
                  <g>
                    <path class="cls-69" d="M64.5,132.84c0,.3-.25,.55-.55,.55s-.55-.25-.55-.55,.55-.68,.55-.68c0,0,.55,.37,.55,.68Z"/>
                    <path class="cls-69" d="M61.74,132.17c-.18,.25-.52,.31-.77,.13-.25-.18-.31-.52-.13-.77,.18-.25,.84-.24,.84-.24,0,0,.23,.62,.06,.87Z"/>
                    <path class="cls-69" d="M59.5,130.44c-.29,.1-.6-.05-.7-.33-.1-.29,.05-.6,.33-.7,.29-.1,.82,.29,.82,.29,0,0-.17,.64-.45,.74Z"/>
                  </g>
                  <g>
                    <path class="cls-69" d="M66.16,132.17c.18,.25,.52,.31,.77,.13,.25-.18,.31-.52,.13-.77-.18-.25-.84-.24-.84-.24,0,0-.23,.62-.06,.87Z"/>
                    <path class="cls-69" d="M68.4,130.44c.29,.1,.6-.05,.7-.33,.1-.29-.05-.6-.33-.7-.29-.1-.82,.29-.82,.29,0,0,.17,.64,.45,.74Z"/>
                  </g>
                </g>
              </g>
              <path class="cls-53" d="M74.81,118.93s-.07-.04-.11-.07c-.14-.14-.14-.36,0-.51,.01-.01,1.44-1.49,.9-2.58-.14-.29-.42-.36-.65-.36,.22,.34,.37,.7,.35,1.02-.04,.47-.34,.87-.78,1.01-.46,.15-.95-.01-1.28-.41-.32-.38-.38-.83-.19-1.25,.13-.29,.38-.54,.69-.73-.11-.12-.23-.22-.33-.31-.15-.13-.16-.36-.03-.5,.13-.15,.36-.16,.5-.03,.09,.08,.32,.29,.57,.56,.15-.04,.31-.06,.46-.06,.61,0,1.1,.27,1.34,.76,.77,1.54-.95,3.33-1.02,3.4-.11,.11-.27,.14-.4,.08Zm-.61-3.34c-.24,.12-.43,.29-.52,.48-.08,.17-.05,.33,.09,.5,.14,.18,.34,.25,.52,.19,.17-.05,.27-.2,.29-.38,.01-.19-.15-.48-.38-.78Z"/>
              <path class="cls-9" d="M64.49,137.83c-.18,.01-.36,.02-.54,.02-5.15,0-9.4-4.24-9.41-9.4h.52s.55,0,.55,0h2.5s0,0,0,0c.03,1.49,.17,4.05,2.04,6.07,1.04,1.12,4.05,3.14,4.34,3.32Z"/>
            </g>
            <rect class="cls-5" x="42.32" y="169.65" width="10.86" height="4" rx="1.41" ry="1.41"/>
            <g>
              <g>
                <g>
                  <g class="cls-56">
                    <path class="cls-51" d="M105.6,50.13v21.49c0,1.11-.9,2.01-2.01,2.01h-6.7c-.06,0-.12,0-.18,0-.01,0-.02,0-.03,0-.06,0-.11-.01-.17-.02,0,0-.02,0-.02,0-.06-.01-.12-.03-.17-.05-.06-.02-.12-.04-.18-.06-.06-.02-.12-.05-.17-.08-.05-.03-.1-.05-.15-.09-.01,0-.03-.02-.04-.02-.04-.03-.08-.06-.12-.09-.05-.04-.1-.08-.15-.13-.04-.03-.08-.07-.11-.12,0,0,0,0,0,0-.03-.04-.07-.08-.1-.13,0-.01-.02-.02-.02-.03-.03-.04-.06-.09-.09-.14-.06-.11-.12-.22-.16-.34,0,0,0-.02,0-.02,0-.02-.01-.03-.02-.05-.02-.05-.03-.09-.04-.14-.02-.05-.03-.11-.03-.16h0c-.01-.07-.02-.13-.02-.2,0-.03,0-.06,0-.09l1.1,.16s-.03-19.34-.03-21.32c0-1.71,1.66-5.05,1.66-5.05v-3.77h5.27v3.77c1.63,.92,2.73,2.66,2.73,4.67Z"/>
                  </g>
                  <path class="cls-59" d="M105.6,50.13v21.49c0,1.11-.9,2.01-2.01,2.01h-6.7c-.06,0-.12,0-.18,0-.01,0-.02,0-.03,0-.06,0-.11-.01-.17-.02,0,0-.02,0-.02,0-.06-.01-.12-.03-.17-.05-.06-.02-.12-.04-.18-.06-.06-.02-.12-.05-.17-.08-.05-.03-.1-.05-.15-.09-.01,0-.03-.02-.04-.02-.04-.03-.08-.06-.12-.09-.05-.04-.1-.08-.15-.13-.04-.03-.08-.07-.11-.12,0,0,0,0,0,0-.03-.04-.07-.08-.1-.13,0-.01-.02-.02-.02-.03-.03-.04-.06-.09-.09-.14-.06-.11-.12-.22-.16-.34,0,0,0-.02,0-.02,0-.02-.01-.03-.02-.05-.02-.05-.03-.09-.04-.14-.02-.05-.03-.11-.03-.16h0c-.01-.07-.02-.13-.02-.2,0-.03,0-.06,0-.09v-10c0-1.84,0-3.73,0-5.43v-.36c0-3.45,0-6.1,.01-6.15,0-.09,.02-.18,.02-.28,.08-.61,.26-1.2,.53-1.73,.05-.1,.11-.2,.17-.3,.11-.2,.24-.38,.38-.56,0,0,0,0,0-.01,.07-.08,.13-.17,.21-.25,0,0,0-.02,.02-.02,.05-.06,.11-.12,.17-.18,.1-.1,.21-.2,.32-.3,.08-.08,.18-.15,.27-.22,.09-.07,.18-.14,.28-.2,.1-.06,.19-.12,.29-.18h.71c.64,0,1.6-.01,2.49-.02,.25,0,.49,0,.71,0,.8,0,1.41-.01,1.41-.01,1.63,.92,2.73,2.66,2.73,4.67Z"/>
                  <g>
                    <rect class="cls-44" x="97.61" y="43.68" width="5.27" height=".8"/>
                    <rect class="cls-44" x="102.14" y="43.13" width=".45" height=".95"/>
                    <rect class="cls-44" x="101.07" y="43.13" width=".45" height=".95"/>
                    <rect class="cls-44" x="99.99" y="43.13" width=".45" height=".95"/>
                    <rect class="cls-44" x="98.92" y="43.13" width=".45" height=".95"/>
                    <rect class="cls-44" x="97.84" y="43.13" width=".45" height=".95"/>
                  </g>
                  <path class="cls-59" d="M103.41,42.38c0,.26-.1,.49-.27,.65-.08,.08-.17,.14-.27,.18-.09,.04-.18,.07-.28,.08-.04,0-.07,0-.11,0h-4.49s-.1,0-.15-.02c-.08-.01-.16-.04-.23-.07-.32-.15-.53-.47-.53-.84,0-.07,0-.13,.02-.2,.04-.17,.13-.33,.25-.45,.17-.17,.4-.27,.65-.27h4.49c.44,0,.81,.31,.9,.72,.02,.07,.02,.13,.02,.2Z"/>
                </g>
                <path class="cls-15" d="M105.6,50.13v21.49c0,1.11-.9,2.01-2.01,2.01h-6.7c-.06,0-.12,0-.18,0-.01,0-.02,0-.03,0-.06,0-.11-.01-.17-.02,0,0-.02,0-.02,0-.06-.01-.12-.03-.17-.05-.06-.02-.12-.04-.18-.06-.06-.02-.12-.05-.17-.08-.05-.03-.1-.05-.15-.09-.01,0-.03-.02-.04-.02-.04-.03-.08-.06-.12-.09-.05-.04-.1-.08-.15-.13-.04-.03-.08-.07-.11-.12,0,0,0,0,0,0-.03-.04-.07-.08-.1-.13,0-.01-.02-.02-.02-.03-.03-.04-.06-.09-.09-.14-.06-.11-.12-.22-.16-.34,0,0,0-.02,0-.02,0-.02-.01-.03-.02-.05-.02-.05-.03-.09-.04-.14-.02-.05-.03-.11-.03-.16h0c-.01-.07-.02-.13-.02-.2,0-.03,0-.06,0-.09,2.11,.38,6.63,.83,7.34-2.1,.95-3.84,.65-24.11,.65-24.11,1.63,.92,2.73,2.66,2.73,4.67Z"/>
                <path class="cls-15" d="M103.39,42.18h-6.29c.04-.17,.13-.33,.25-.45,.17-.17,.4-.27,.65-.27h4.49c.44,0,.81,.31,.9,.72Z"/>
                <path class="cls-49" d="M98.26,45.5c-.51,.69-2.31,3.31-2.31,5.02,0,1.98,.03,21.32,.03,21.32l-1.1-.16v-21.54c0-.14,0-.27,.02-.4,0-.09,.02-.18,.02-.28,.08-.61,.26-1.2,.53-1.73,.05-.1,.11-.2,.17-.3,.11-.2,.24-.38,.38-.56,0,0,0,0,0-.01,.07-.08,.13-.17,.21-.25,0,0,0-.02,.02-.02,.05-.06,.11-.12,.17-.18,.1-.1,.21-.2,.32-.3,.08-.08,.18-.15,.27-.22,.09-.07,.18-.14,.28-.2,.1-.06,.19-.12,.29-.18,.02-.02,.04-.02,.05-.03v-.81l.78,.68s-.05,.06-.12,.17Z"/>
              </g>
              <g>
                <g>
                  <g class="cls-56">
                    <path class="cls-51" d="M115.57,50.13v21.49c0,1.11-.9,2.01-2.01,2.01h-6.7c-.06,0-.12,0-.18,0-.01,0-.02,0-.03,0-.06,0-.11-.01-.17-.02,0,0-.02,0-.02,0-.06-.01-.12-.03-.17-.05-.06-.02-.12-.04-.18-.06-.06-.02-.12-.05-.17-.08-.05-.03-.1-.05-.15-.09-.01,0-.03-.02-.04-.02-.04-.03-.08-.06-.12-.09-.05-.04-.1-.08-.15-.13-.04-.03-.08-.07-.11-.12,0,0,0,0,0,0-.03-.04-.07-.08-.1-.13,0-.01-.02-.02-.02-.03-.03-.04-.06-.09-.09-.14-.06-.11-.12-.22-.16-.34,0,0,0-.02,0-.02,0-.02-.01-.03-.02-.05-.02-.05-.03-.09-.04-.14-.02-.05-.03-.11-.03-.16h0c-.01-.07-.02-.13-.02-.2,0-.03,0-.06,0-.09l1.1,.16s-.03-19.34-.03-21.32c0-1.71,1.66-5.05,1.66-5.05v-3.77h5.27v3.77c1.63,.92,2.72,2.66,2.72,4.67Z"/>
                  </g>
                  <path class="cls-59" d="M115.57,50.13v21.49c0,1.11-.9,2.01-2.01,2.01h-6.7c-.06,0-.12,0-.18,0-.01,0-.02,0-.03,0-.06,0-.11-.01-.17-.02,0,0-.02,0-.02,0-.06-.01-.12-.03-.17-.05-.06-.02-.12-.04-.18-.06-.06-.02-.12-.05-.17-.08-.05-.03-.1-.05-.15-.09-.01,0-.03-.02-.04-.02-.04-.03-.08-.06-.12-.09-.05-.04-.1-.08-.15-.13-.04-.03-.08-.07-.11-.12,0,0,0,0,0,0-.03-.04-.07-.08-.1-.13,0-.01-.02-.02-.02-.03-.03-.04-.06-.09-.09-.14-.06-.11-.12-.22-.16-.34,0,0,0-.02,0-.02,0-.02-.01-.03-.02-.05-.02-.05-.03-.09-.04-.14-.02-.05-.03-.11-.03-.16h0c-.01-.07-.02-.13-.02-.2,0-.03,0-.06,0-.09v-10c0-1.84,0-3.73,0-5.43v-.36c0-3.45,0-6.1,.01-6.15,0-.09,.02-.18,.02-.28,.08-.61,.26-1.2,.53-1.73,.05-.1,.11-.2,.17-.3,.11-.2,.24-.38,.38-.56,0,0,0,0,0-.01,.07-.08,.13-.17,.21-.25,0,0,0-.02,.02-.02,.05-.06,.11-.12,.17-.18,.1-.1,.21-.2,.32-.3,.08-.08,.18-.15,.27-.22,.09-.07,.18-.14,.28-.2,.1-.06,.19-.12,.29-.18h.71c.64,0,1.6-.01,2.49-.02,.25,0,.49,0,.71,0,.8,0,1.41-.01,1.41-.01,1.63,.92,2.72,2.66,2.72,4.67Z"/>
                  <g>
                    <rect class="cls-44" x="107.58" y="43.68" width="5.27" height=".8"/>
                    <rect class="cls-44" x="112.11" y="43.13" width=".45" height=".95"/>
                    <rect class="cls-44" x="111.04" y="43.13" width=".45" height=".95"/>
                    <rect class="cls-44" x="109.96" y="43.13" width=".45" height=".95"/>
                    <rect class="cls-44" x="108.89" y="43.13" width=".45" height=".95"/>
                    <rect class="cls-44" x="107.81" y="43.13" width=".45" height=".95"/>
                  </g>
                  <path class="cls-59" d="M113.38,42.38c0,.26-.1,.49-.27,.65-.08,.08-.17,.14-.27,.18-.09,.04-.18,.07-.28,.08-.04,0-.07,0-.11,0h-4.49s-.1,0-.15-.02c-.08-.01-.16-.04-.23-.07-.32-.15-.53-.47-.53-.84,0-.07,0-.13,.02-.2,.04-.17,.13-.33,.25-.45,.17-.17,.4-.27,.65-.27h4.49c.44,0,.81,.31,.9,.72,.02,.07,.02,.13,.02,.2Z"/>
                </g>
                <path class="cls-15" d="M115.57,50.13v21.49c0,1.11-.9,2.01-2.01,2.01h-6.7c-.06,0-.12,0-.18,0-.01,0-.02,0-.03,0-.06,0-.11-.01-.17-.02,0,0-.02,0-.02,0-.06-.01-.12-.03-.17-.05-.06-.02-.12-.04-.18-.06-.06-.02-.12-.05-.17-.08-.05-.03-.1-.05-.15-.09-.01,0-.03-.02-.04-.02-.04-.03-.08-.06-.12-.09-.05-.04-.1-.08-.15-.13-.04-.03-.08-.07-.11-.12,0,0,0,0,0,0-.03-.04-.07-.08-.1-.13,0-.01-.02-.02-.02-.03-.03-.04-.06-.09-.09-.14-.06-.11-.12-.22-.16-.34,0,0,0-.02,0-.02,0-.02-.01-.03-.02-.05-.02-.05-.03-.09-.04-.14-.02-.05-.03-.11-.03-.16h0c-.01-.07-.02-.13-.02-.2,0-.03,0-.06,0-.09,2.11,.38,6.63,.83,7.34-2.1,.95-3.84,.65-24.11,.65-24.11,1.63,.92,2.72,2.66,2.72,4.67Z"/>
                <path class="cls-15" d="M113.36,42.18h-6.29c.04-.17,.13-.33,.25-.45,.17-.17,.4-.27,.65-.27h4.49c.44,0,.81,.31,.9,.72Z"/>
                <path class="cls-49" d="M108.23,45.5c-.51,.69-2.31,3.31-2.31,5.02,0,1.98,.03,21.32,.03,21.32l-1.1-.16v-21.54c0-.14,0-.27,.02-.4,0-.09,.02-.18,.02-.28,.08-.61,.26-1.2,.53-1.73,.05-.1,.11-.2,.17-.3,.11-.2,.24-.38,.38-.56,0,0,0,0,0-.01,.07-.08,.13-.17,.21-.25,0,0,0-.02,.02-.02,.05-.06,.11-.12,.17-.18,.1-.1,.21-.2,.32-.3,.08-.08,.18-.15,.27-.22,.09-.07,.18-.14,.28-.2,.1-.06,.19-.12,.29-.18,.02-.02,.04-.02,.05-.03v-.81l.78,.68s-.05,.06-.12,.17Z"/>
              </g>
              <g>
                <g>
                  <g class="cls-56">
                    <path class="cls-51" d="M125.6,50.01v21.49c0,1.11-.9,2.01-2.01,2.01h-6.7c-.06,0-.12,0-.18,0-.01,0-.02,0-.03,0-.06,0-.11-.01-.17-.02,0,0-.02,0-.02,0-.06-.01-.12-.03-.17-.05-.06-.02-.12-.04-.18-.06s-.12-.05-.17-.08c-.05-.03-.1-.05-.15-.09-.01,0-.03-.02-.04-.02-.04-.03-.08-.06-.12-.09-.05-.04-.1-.08-.15-.13-.04-.03-.08-.07-.11-.12,0,0,0,0,0,0-.03-.04-.07-.08-.1-.13,0-.01-.02-.02-.02-.03-.03-.04-.06-.09-.09-.14-.06-.11-.12-.22-.16-.34,0,0,0-.02,0-.02,0-.02-.01-.03-.02-.05-.02-.05-.03-.09-.04-.14-.02-.05-.03-.11-.03-.16h0c-.01-.07-.02-.13-.02-.2,0-.03,0-.06,0-.09l1.1,.16s-.03-19.34-.03-21.32c0-1.71,1.66-5.05,1.66-5.05v-3.77h5.27v3.77c1.63,.92,2.72,2.66,2.72,4.67Z"/>
                  </g>
                  <path class="cls-59" d="M125.6,50.01v21.49c0,1.11-.9,2.01-2.01,2.01h-6.7c-.06,0-.12,0-.18,0-.01,0-.02,0-.03,0-.06,0-.11-.01-.17-.02,0,0-.02,0-.02,0-.06-.01-.12-.03-.17-.05-.06-.02-.12-.04-.18-.06s-.12-.05-.17-.08c-.05-.03-.1-.05-.15-.09-.01,0-.03-.02-.04-.02-.04-.03-.08-.06-.12-.09-.05-.04-.1-.08-.15-.13-.04-.03-.08-.07-.11-.12,0,0,0,0,0,0-.03-.04-.07-.08-.1-.13,0-.01-.02-.02-.02-.03-.03-.04-.06-.09-.09-.14-.06-.11-.12-.22-.16-.34,0,0,0-.02,0-.02,0-.02-.01-.03-.02-.05-.02-.05-.03-.09-.04-.14-.02-.05-.03-.11-.03-.16h0c-.01-.07-.02-.13-.02-.2,0-.03,0-.06,0-.09v-10c0-1.84,0-3.73,0-5.43v-.36c0-3.45,0-6.1,.01-6.15,0-.09,.02-.18,.02-.28,.08-.61,.26-1.2,.53-1.73,.05-.1,.11-.2,.17-.3,.11-.2,.24-.38,.38-.56,0,0,0,0,0-.01,.07-.08,.13-.17,.21-.25,0,0,0-.02,.02-.02,.05-.06,.11-.12,.17-.18,.1-.1,.21-.2,.32-.3,.08-.08,.18-.15,.27-.22,.09-.07,.18-.14,.28-.2,.1-.06,.19-.12,.29-.18h.71c.64,0,1.6-.01,2.49-.02,.25,0,.49,0,.71,0,.8,0,1.41-.01,1.41-.01,1.63,.92,2.72,2.66,2.72,4.67Z"/>
                  <g>
                    <rect class="cls-44" x="117.61" y="43.56" width="5.27" height=".8"/>
                    <rect class="cls-44" x="122.14" y="43.01" width=".45" height=".95"/>
                    <rect class="cls-44" x="121.06" y="43.01" width=".45" height=".95"/>
                    <rect class="cls-44" x="119.99" y="43.01" width=".45" height=".95"/>
                    <rect class="cls-44" x="118.91" y="43.01" width=".45" height=".95"/>
                    <rect class="cls-44" x="117.84" y="43.01" width=".45" height=".95"/>
                  </g>
                  <path class="cls-59" d="M123.41,42.27c0,.26-.1,.49-.27,.65-.08,.08-.17,.14-.27,.18-.09,.04-.18,.07-.28,.08-.04,0-.07,0-.11,0h-4.49s-.1,0-.15-.02c-.08-.01-.16-.04-.23-.07-.32-.15-.53-.47-.53-.84,0-.07,0-.13,.02-.2,.04-.17,.13-.33,.25-.45,.17-.17,.4-.27,.65-.27h4.49c.44,0,.81,.31,.9,.72,.02,.07,.02,.13,.02,.2Z"/>
                </g>
                <path class="cls-15" d="M125.6,50.01v21.49c0,1.11-.9,2.01-2.01,2.01h-6.7c-.06,0-.12,0-.18,0-.01,0-.02,0-.03,0-.06,0-.11-.01-.17-.02,0,0-.02,0-.02,0-.06-.01-.12-.03-.17-.05-.06-.02-.12-.04-.18-.06s-.12-.05-.17-.08c-.05-.03-.1-.05-.15-.09-.01,0-.03-.02-.04-.02-.04-.03-.08-.06-.12-.09-.05-.04-.1-.08-.15-.13-.04-.03-.08-.07-.11-.12,0,0,0,0,0,0-.03-.04-.07-.08-.1-.13,0-.01-.02-.02-.02-.03-.03-.04-.06-.09-.09-.14-.06-.11-.12-.22-.16-.34,0,0,0-.02,0-.02,0-.02-.01-.03-.02-.05-.02-.05-.03-.09-.04-.14-.02-.05-.03-.11-.03-.16h0c-.01-.07-.02-.13-.02-.2,0-.03,0-.06,0-.09,2.11,.38,6.63,.83,7.34-2.1,.95-3.84,.65-24.11,.65-24.11,1.63,.92,2.72,2.66,2.72,4.67Z"/>
                <path class="cls-15" d="M123.39,42.07h-6.29c.04-.17,.13-.33,.25-.45,.17-.17,.4-.27,.65-.27h4.49c.44,0,.81,.31,.9,.72Z"/>
                <path class="cls-49" d="M118.26,45.38c-.51,.69-2.31,3.31-2.31,5.02,0,1.98,.03,21.32,.03,21.32l-1.1-.16v-21.54c0-.14,0-.27,.02-.4,0-.09,.02-.18,.02-.28,.08-.61,.26-1.2,.53-1.73,.05-.1,.11-.2,.17-.3,.11-.2,.24-.38,.38-.56,0,0,0,0,0-.01,.07-.08,.13-.17,.21-.25,0,0,0-.02,.02-.02,.05-.06,.11-.12,.17-.18,.1-.1,.21-.2,.32-.3,.08-.08,.18-.15,.27-.22,.09-.07,.18-.14,.28-.2,.1-.06,.19-.12,.29-.18,.02-.02,.04-.02,.05-.03v-.81l.78,.68s-.05,.06-.12,.17Z"/>
              </g>
            </g>
            <g>
              <g>
                <polygon class="cls-37" points="136.78 36.23 126.57 37.09 91.29 36.84 91.29 28.2 136.78 24.8 136.78 36.23"/>
                <polygon class="cls-5" points="126.57 25.56 126.57 37.09 109.36 37.6 105.1 37.73 98.74 37.92 94.48 38.04 89.7 38.18 89.7 27.01 100.15 26.6 104.43 26.43 110.81 26.18 115.09 26.01 126.57 25.56"/>
                <polygon class="cls-70" points="126.57 26.8 126.57 37.2 109.33 37.66 105.07 37.77 98.73 37.94 94.48 38.05 89.7 38.18 89.7 28.1 99.58 27.75 103.85 27.6 110.22 27.38 114.49 27.23 126.57 26.8"/>
                <polygon class="cls-4" points="104.43 26.43 103.85 27.6 98.74 37.92 98.73 37.94 94.48 38.05 94.48 38.04 99.58 27.75 100.15 26.6 104.43 26.43"/>
                <polygon class="cls-4" points="115.09 26.01 114.49 27.23 109.36 37.6 109.33 37.66 105.07 37.77 105.1 37.73 110.22 27.38 110.81 26.18 115.09 26.01"/>
              </g>
              <g>
                <polygon class="cls-37" points="136.78 73.19 126.57 74.05 91.29 73.8 91.29 65.16 136.78 61.76 136.78 73.19"/>
                <polygon class="cls-5" points="126.57 62.52 126.57 74.05 109.36 74.56 105.1 74.69 98.74 74.87 94.48 75 89.7 75.14 89.7 63.97 100.15 63.56 104.43 63.39 110.81 63.14 115.09 62.97 126.57 62.52"/>
                <polygon class="cls-70" points="126.57 63.76 126.57 74.15 109.33 74.61 105.07 74.73 98.73 74.9 94.48 75.01 89.7 75.14 89.7 65.06 99.58 64.71 103.85 64.56 110.22 64.34 114.49 64.18 126.57 63.76"/>
                <polygon class="cls-4" points="104.43 63.39 103.85 64.56 98.74 74.87 98.73 74.9 94.48 75.01 94.48 75 99.58 64.71 100.15 63.56 104.43 63.39"/>
                <polygon class="cls-4" points="115.09 62.97 114.49 64.18 109.36 74.56 109.33 74.61 105.07 74.73 105.1 74.69 110.22 64.34 110.81 63.14 115.09 62.97"/>
              </g>
              <g>
                <polygon class="cls-37" points="136.78 120.62 126.57 121.48 91.29 121.23 91.29 112.59 136.78 109.19 136.78 120.62"/>
                <polygon class="cls-5" points="126.57 109.95 126.57 121.48 109.36 121.99 105.1 122.11 98.74 122.3 94.48 122.43 89.7 122.57 89.7 111.39 100.15 110.99 104.43 110.82 110.81 110.57 115.09 110.4 126.57 109.95"/>
                <polygon class="cls-70" points="126.57 111.19 126.57 121.58 109.33 122.04 105.07 122.16 98.73 122.33 94.48 122.44 89.7 122.57 89.7 112.49 99.58 112.14 103.85 111.99 110.22 111.77 114.49 111.61 126.57 111.19"/>
                <polygon class="cls-4" points="104.43 110.82 103.85 111.99 98.74 122.3 98.73 122.33 94.48 122.44 94.48 122.43 99.58 112.14 100.15 110.99 104.43 110.82"/>
                <polygon class="cls-4" points="115.09 110.4 114.49 111.61 109.36 121.99 109.33 122.04 105.07 122.16 105.1 122.11 110.22 111.77 110.81 110.57 115.09 110.4"/>
              </g>
            </g>
          </g>
        </g>
      </g>
    </g>
  </g>
</svg>