<?xml version="1.0" encoding="utf-8"?>
<!-- Generator: Adobe Illustrator 26.0.1, SVG Export Plug-In . SVG Version: 6.00 Build 0)  -->
<svg version="1.1" id="Layer_1" xmlns="http://www.w3.org/2000/svg" xmlns:xlink="http://www.w3.org/1999/xlink" x="0px" y="0px"
	 viewBox="0 0 740.3 1159.6" style="enable-background:new 0 0 740.3 1159.6;" xml:space="preserve">
<style type="text/css">
	.st0{fill:#003B7E;}
	.st1{fill:#82AD0B;}
	.st2{enable-background:new    ;}
	.st3{fill:#FFFFFF;}
	.st4{fill:#B5AD14;}
	.st5{fill:#E29F27;}
	.st6{fill:#F37826;}
	.st7{fill:#E75433;}
</style>
<g>
	<g>
		<path class="st0" d="M198,1.4h7.2v13h13.4v-13h7.2v33h-7.2V21.1h-13.4v13.3H198V1.4z"/>
		<path class="st0" d="M233.1,0h7.5v6.4h-7.5V0z M233.2,9.1h7.1v25.2h-7.1V9.1z"/>
		<path class="st0" d="M245.9,21.9v-0.1c0-7.2,5.1-13.1,12.5-13.1c8.4,0,12.3,6.5,12.3,13.7c0,0.6,0,1.2-0.1,1.9h-17.5
			c0.5,3,3.1,5.1,6.1,4.9c2.3,0,4.5-0.9,6.1-2.6l4.1,3.6c-2.5,3.1-6.3,4.9-10.3,4.7C251.5,34.9,245.9,29.6,245.9,21.9z M263.7,19.7
			c-0.4-3.2-2.3-5.4-5.3-5.4c-3,0-4.9,2.1-5.5,5.4H263.7z"/>
		<path class="st0" d="M275.9,9.1h7.1v5.1c1.5-3.5,3.8-5.7,8-5.5v7.5h-0.4c-4.8,0-7.7,2.9-7.7,8.9v9.4h-7.1V9.1z"/>
		<path class="st0" d="M292.9,27.1L292.9,27.1c0-5.6,4.2-8.1,10.1-8.1c2.1,0,4.2,0.3,6.2,1v-0.4c0-3-1.8-4.6-5.4-4.6
			c-2.4,0-4.7,0.5-6.9,1.4l-1.8-5.5c3.1-1.4,6.4-2.1,9.8-2c3.9,0,6.7,1,8.5,2.8s2.7,4.7,2.7,8v14.7h-6.9v-2.8
			c-1.9,2.2-4.7,3.3-7.6,3.2C296.8,34.8,292.9,32,292.9,27.1z M309.3,25.4v-1.3c-1.4-0.6-3-1-4.6-0.9c-3,0-4.9,1.2-4.9,3.5v0.1
			c0,1.9,1.6,3,3.9,3C307,29.8,309.3,28,309.3,25.4z"/>
		<path class="st0" d="M322.2,9.1h7.1v5.1c1.5-3.5,3.8-5.7,8-5.5v7.5H337c-4.7,0-7.7,2.9-7.7,8.9v9.4h-7.1V9.1z"/>
		<path class="st0" d="M340,21.9v-0.1c-0.1-7.1,5.6-13,12.7-13.1c0.2,0,0.3,0,0.5,0c4.8,0,7.7,1.6,10.1,4.2l-4.4,4.7
			c-1.4-1.7-3.5-2.8-5.7-2.8c-3.6,0-6.1,3.1-6.1,6.9v0.1c0,3.9,2.5,7,6.4,7c2.4,0,4-1,5.8-2.7l4.2,4.2c-2.5,3.1-6.4,4.7-10.3,4.6
			c-7.1,0.1-13-5.5-13.1-12.6C340,22.1,340,22,340,21.9z"/>
		<path class="st0" d="M368,0h7.1v12.7c1.6-2.1,3.8-4,7.4-4c5.4,0,8.5,3.6,8.5,9.4v16.3H384V20.3c0-3.4-1.6-5.1-4.3-5.1
			s-4.5,1.7-4.5,5.1v14.1H368V0z"/>
		<path class="st0" d="M397.4,0h7.5v6.4h-7.5V0z M397.6,9.1h7.1v25.2h-7.1V9.1z"/>
		<path class="st0" d="M410.3,21.9v-0.1c0-7.2,5.1-13.1,12.5-13.1c8.4,0,12.3,6.5,12.3,13.7c0,0.6,0,1.2-0.1,1.9h-17.6
			c0.5,3,3.1,5.1,6.1,4.9c2.3,0,4.5-0.9,6.1-2.6l4.1,3.6c-2.5,3.1-6.3,4.9-10.3,4.7C415.9,34.9,410.3,29.6,410.3,21.9z M428,19.7
			c-0.4-3.2-2.3-5.4-5.3-5.4s-4.9,2.1-5.5,5.4H428z"/>
		<path class="st0" d="M453.3,21.8L453.3,21.8c0-8.5,5.5-13.1,11.5-13.1c3.1-0.1,6,1.3,7.9,3.8V0h7.1v34.4h-7.1v-3.7
			c-1.8,2.6-4.7,4.1-7.9,4.1C458.9,34.8,453.3,30.2,453.3,21.8z M472.7,21.8L472.7,21.8c0-4.3-2.8-7.1-6.1-7.1s-6.1,2.7-6.1,7v0.1
			c0,4.2,2.8,7,6.1,7S472.7,25.9,472.7,21.8z"/>
		<path class="st0" d="M484.9,21.9v-0.1c0-7.2,5.1-13.1,12.5-13.1c8.4,0,12.3,6.5,12.3,13.7c0,0.6,0,1.2-0.1,1.9H492
			c0.5,3,3.1,5.1,6.2,4.9c2.3,0,4.5-0.9,6.1-2.6l4.1,3.6c-2.5,3.1-6.3,4.9-10.3,4.7C490.5,34.9,484.9,29.6,484.9,21.9z M502.7,19.7
			c-0.4-3.2-2.3-5.4-5.3-5.4s-4.9,2.1-5.5,5.4H502.7z"/>
		<path class="st0" d="M515,9.1h7.1v5.1c1.5-3.5,3.8-5.7,8-5.5v7.5h-0.4c-4.8,0-7.7,2.9-7.7,8.9v9.4H515V9.1z"/>
		<path class="st0" d="M0,57.8h7.2v26.3h16.4v6.6H0V57.8z"/>
		<path class="st0" d="M26.6,78.3L26.6,78.3c0-7.3,5.1-13.2,12.4-13.2c8.4,0,12.3,6.5,12.3,13.7c0,0.6,0,1.2-0.1,1.9H33.7
			c0.5,3,3.1,5.1,6.2,4.9c2.3,0,4.6-0.9,6.2-2.6l4.1,3.6c-2.5,3.1-6.3,4.9-10.3,4.7C32.2,91.3,26.6,86,26.6,78.3z M44.4,76.1
			c-0.4-3.2-2.3-5.4-5.3-5.4s-4.9,2.1-5.5,5.4H44.4z"/>
		<path class="st0" d="M63.8,87.4v3.3h-7.1V56.4h7.1v12.8c1.8-2.6,4.7-4.1,7.9-4.1c5.9,0,11.5,4.6,11.5,13v0.1c0,8.4-5.5,13-11.5,13
			C68.6,91.2,65.7,89.8,63.8,87.4z M76,78.2L76,78.2c0-4.3-2.8-7.1-6.2-7.1s-6.1,2.8-6.1,7v0.1c0,4.2,2.8,7,6.1,7S76,82.4,76,78.2z"
			/>
		<path class="st0" d="M87.2,78.3L87.2,78.3c0-7.3,5.1-13.2,12.5-13.2c8.4,0,12.3,6.5,12.3,13.7c0,0.6,0,1.2-0.1,1.9H94.3
			c0.5,3,3.1,5.1,6.2,4.9c2.3,0,4.5-0.9,6.1-2.6l4.1,3.6c-2.5,3.1-6.3,4.9-10.3,4.7C92.8,91.3,87.2,86,87.2,78.3z M104.9,76.1
			c-0.4-3.2-2.3-5.4-5.3-5.4s-4.9,2.1-5.5,5.4H104.9z"/>
		<path class="st0" d="M117.2,65.5h7.1v3.6c1.6-2.1,3.8-4,7.4-4c5.4,0,8.6,3.6,8.6,9.3v16.3h-7.1v-14c0-3.4-1.6-5.1-4.3-5.1
			s-4.5,1.7-4.5,5.1v14h-7.2L117.2,65.5z"/>
		<path class="st0" d="M144.5,87.4l3.1-4.7c2.3,1.8,5,2.8,7.9,3c2.1,0,3-0.8,3-1.9v-0.1c0-1.6-2.4-2.1-5.2-2.9
			c-3.5-1-7.5-2.7-7.5-7.6v-0.1c0-5.1,4.1-8,9.2-8c3.3,0,6.6,1.1,9.4,2.9l-2.7,4.9c-2-1.3-4.4-2.1-6.8-2.3c-1.7,0-2.6,0.8-2.6,1.7
			v0.1c0,1.4,2.4,2.1,5.1,3c3.5,1.2,7.6,2.9,7.6,7.5V83c0,5.6-4.2,8.1-9.6,8.1C151.4,91.1,147.6,89.8,144.5,87.4z"/>
		<path class="st0" d="M170.1,65.5h7.1v3.6c1.6-2.1,3.8-4,7.4-4c2.9-0.2,5.7,1.4,7.1,4c2-2.5,5-4,8.3-4c5.3,0,8.5,3.2,8.5,9.3v16.4
			h-7.1v-14c0-3.4-1.5-5.1-4.2-5.1s-4.3,1.7-4.3,5.1v14h-7.1v-14c0-3.4-1.5-5.1-4.2-5.1s-4.3,1.7-4.3,5.1v14h-7.1V65.5z"/>
		<path class="st0" d="M214.9,56.4h7.5v6.3h-7.5V56.4z M215.1,65.5h7.1v25.2h-7.2L215.1,65.5z"/>
		<path class="st0" d="M230.1,83.6V71.6h-3v-6.1h3v-6.4h7.1v6.4h5.9v6.1h-5.9v10.7c0,1.7,0.7,2.4,2.3,2.4c1.2,0,2.4-0.3,3.5-0.9v5.7
			c-1.7,1-3.7,1.5-5.6,1.4C233.1,91.1,230.1,89.4,230.1,83.6z"/>
		<path class="st0" d="M249.6,83.6V71.6h-3v-6.1h3v-6.4h7.1v6.4h5.9v6.1h-5.9v10.7c0,1.7,0.7,2.4,2.3,2.4c1.2,0,2.4-0.3,3.5-0.9v5.7
			c-1.7,1-3.7,1.5-5.6,1.4C252.6,91.1,249.6,89.4,249.6,83.6z"/>
		<path class="st0" d="M266,78.3L266,78.3c0-7.3,5.1-13.2,12.5-13.2c8.4,0,12.3,6.5,12.3,13.7c0,0.6,0,1.2-0.1,1.9h-17.6
			c0.5,3,3.1,5.1,6.2,4.9c2.3,0,4.5-0.9,6.1-2.6l4.1,3.6c-2.5,3.1-6.3,4.9-10.3,4.7C271.6,91.3,266,86,266,78.3z M283.8,76.1
			c-0.4-3.2-2.3-5.4-5.3-5.4s-4.9,2.1-5.5,5.4H283.8z"/>
		<path class="st0" d="M296.4,56.4h7.1v34.3h-7.1V56.4z"/>
		<path class="st0" d="M308.2,65.5h7.2l4,15.3l4.8-15.4h6.1l4.8,15.4l4.1-15.3h7.1l-7.9,25.4H332l-4.8-15.5l-4.9,15.5h-6.4
			L308.2,65.5z"/>
		<path class="st0" d="M350.8,56.4h7.5v6.3h-7.5V56.4z M351,65.5h7.1v25.2H351L351,65.5z"/>
		<path class="st0" d="M363.7,78.3L363.7,78.3c0-7.3,5.1-13.2,12.5-13.2c8.4,0,12.3,6.5,12.3,13.7c0,0.6,0,1.2-0.1,1.9h-17.5
			c0.5,3,3.1,5.1,6.2,4.9c2.3,0,4.5-0.9,6.1-2.6l4.1,3.6c-2.5,3.1-6.3,4.9-10.3,4.7C369.3,91.3,363.7,86,363.7,78.3z M381.4,76.1
			c-0.4-3.2-2.3-5.4-5.3-5.4s-4.9,2.1-5.5,5.4H381.4z"/>
		<path class="st0" d="M392.6,78.2L392.6,78.2c0-8.5,5.5-13.1,11.5-13.1c3.1-0.1,6,1.3,7.9,3.8V56.4h7.1v34.3h-7.1v-3.6
			c-1.8,2.6-4.7,4.1-7.9,4.1C398.2,91.2,392.6,86.6,392.6,78.2z M412,78.2L412,78.2c0-4.3-2.8-7.1-6.1-7.1s-6.1,2.7-6.1,7v0.1
			c0,4.2,2.8,7,6.1,7S412,82.4,412,78.2z"/>
		<path class="st0" d="M424.2,78.3L424.2,78.3c0-7.3,5.1-13.2,12.5-13.2c8.4,0,12.3,6.5,12.3,13.7c0,0.6,0,1.2-0.1,1.9h-17.5
			c0.5,3,3.1,5.1,6.2,4.9c2.3,0,4.5-0.9,6.1-2.6l4.1,3.6c-2.5,3.1-6.3,4.9-10.3,4.7C429.8,91.3,424.2,86,424.2,78.3z M442,76.1
			c-0.4-3.2-2.3-5.4-5.3-5.4s-4.9,2.1-5.5,5.4H442z"/>
		<path class="st0" d="M454.2,65.5h7.1v5.1c1.5-3.5,3.8-5.7,8-5.5v7.5H469c-4.8,0-7.7,2.9-7.7,8.9v9.3h-7.1V65.5z"/>
		<path class="st0" d="M471.6,65.5h7.6l5.6,16.8l5.7-16.9h7.4L488,90.9h-6.5L471.6,65.5z"/>
		<path class="st0" d="M499.5,78.3L499.5,78.3c0-7.3,5.1-13.2,12.4-13.2c8.4,0,12.3,6.5,12.3,13.7c0,0.6,0,1.2-0.1,1.9h-17.5
			c0.5,3,3.1,5.1,6.2,4.9c2.3,0,4.5-0.9,6.1-2.6l4.1,3.6c-2.5,3.1-6.3,4.9-10.3,4.7C505,91.3,499.5,86,499.5,78.3z M517.2,76.1
			c-0.4-3.2-2.3-5.4-5.3-5.4s-4.9,2.1-5.5,5.4H517.2z"/>
		<path class="st0" d="M529.5,65.5h7.1v5.1c1.5-3.5,3.8-5.7,8-5.5v7.5h-0.4c-4.8,0-7.7,2.9-7.7,8.9v9.3h-7.1L529.5,65.5z"/>
		<path class="st0" d="M547,65.5h7.2l4,15.3l4.8-15.4h6.2l4.9,15.4l4.1-15.3h7.1l-7.8,25.4H571l-4.8-15.5l-4.9,15.5h-6.4L547,65.5z"
			/>
		<path class="st0" d="M587.2,78.3L587.2,78.3c0-7.3,5.1-13.2,12.5-13.2c8.4,0,12.3,6.5,12.3,13.7c0,0.6,0,1.2-0.1,1.9h-17.5
			c0.5,3,3.1,5.1,6.2,4.9c2.3,0,4.5-0.9,6.1-2.6l4.1,3.6c-2.5,3.1-6.3,4.9-10.3,4.7C592.8,91.3,587.2,86,587.2,78.3z M605,76.1
			c-0.4-3.2-2.3-5.4-5.3-5.4s-4.9,2.1-5.5,5.4H605z"/>
		<path class="st0" d="M617.2,65.5h7.1v5.1c1.5-3.5,3.8-5.7,8-5.5v7.5H632c-4.7,0-7.7,2.9-7.7,8.9v9.3h-7.1L617.2,65.5z"/>
		<path class="st0" d="M638,83.6V71.6h-3v-6.1h3v-6.4h7.1v6.4h5.9v6.1h-5.9v10.7c0,1.7,0.7,2.4,2.3,2.4c1.2,0,2.4-0.3,3.5-0.9v5.7
			c-1.7,1-3.7,1.5-5.6,1.4C641,91.1,638,89.4,638,83.6z"/>
		<path class="st0" d="M656.2,81.8V65.5h7.2v14c0,3.4,1.6,5.1,4.3,5.1s4.5-1.7,4.5-5.1v-14h7.2v25.2h-7.2v-3.6c-1.6,2.1-3.8,4-7.4,4
			C659.3,91.2,656.2,87.6,656.2,81.8z"/>
		<path class="st0" d="M685.7,65.5h7.1v3.6c1.7-2.1,3.8-4,7.4-4c5.4,0,8.6,3.6,8.6,9.3v16.3h-7.2v-14c0-3.4-1.6-5.1-4.3-5.1
			s-4.5,1.7-4.5,5.1v14h-7.1V65.5z"/>
		<path class="st0" d="M715,95.7l2.5-5.3c2.6,1.5,5.5,2.3,8.5,2.3c4.9,0,7.2-2.3,7.2-6.9v-1.3c-2.1,2.5-4.4,4.1-8.2,4.1
			c-5.9,0-11.2-4.3-11.2-11.8v-0.1c0-7.5,5.4-11.8,11.2-11.8c3.1-0.1,6.1,1.3,8.1,3.8v-3.3h7.1V85c0,4.5-1.1,7.8-3.2,9.9
			c-2.3,2.3-6,3.4-10.9,3.4C722.3,98.4,718.5,97.5,715,95.7z M733.2,76.9L733.2,76.9c-0.2-3.5-3.1-6.1-6.5-5.9
			c-3.1,0.2-5.6,2.7-5.8,5.8v0.1c-0.1,3.2,2.5,5.8,5.7,5.8c0.2,0,0.3,0,0.5,0c3.2,0.2,6-2.2,6.2-5.4C733.2,77.1,733.2,77,733.2,76.9
			L733.2,76.9z"/>
	</g>
	<path class="st1" d="M675,162.5H65.2c-16,0-26,18.5-18,33.3l61.2,113.3c3.5,6.7,10.4,11,18,11.1h487.3c7.6-0.1,14.5-4.4,18-11.1
		L693,195.8C701,181,691,162.5,675,162.5z"/>
	<g class="st2">
		<path class="st3" d="M138.1,222.4h3.7v17.7h11v3.3h-14.7V222.4z"/>
		<path class="st3" d="M163.5,243.8c-1.1,0-2.2-0.2-3.2-0.6c-1-0.4-1.9-1-2.6-1.7c-0.7-0.7-1.3-1.6-1.7-2.6s-0.6-2.1-0.6-3.3v-0.1
			c0-1.1,0.2-2.2,0.6-3.2c0.4-1,0.9-1.9,1.6-2.6s1.5-1.3,2.4-1.8c0.9-0.4,2-0.6,3.1-0.6c1.3,0,2.4,0.2,3.3,0.7
			c0.9,0.5,1.7,1.1,2.4,1.9s1.1,1.7,1.4,2.7c0.3,1,0.5,2.1,0.5,3.3c0,0.2,0,0.3,0,0.5c0,0.2,0,0.3,0,0.5H159c0.2,1.3,0.7,2.3,1.5,3
			c0.8,0.7,1.8,1,3,1c0.9,0,1.7-0.2,2.3-0.5s1.3-0.8,2-1.4l2.1,1.9c-0.8,0.9-1.7,1.6-2.7,2.2C166.2,243.5,164.9,243.8,163.5,243.8z
			 M167.1,234.4c-0.1-0.6-0.2-1.1-0.4-1.6c-0.2-0.5-0.5-0.9-0.8-1.3c-0.3-0.4-0.7-0.7-1.2-0.9c-0.5-0.2-1-0.3-1.6-0.3
			c-1.1,0-2,0.4-2.8,1.2c-0.7,0.8-1.2,1.8-1.3,3H167.1z"/>
		<path class="st3" d="M183.3,243.7c-1.3,0-2.4-0.3-3.2-0.8s-1.6-1.2-2.1-2v2.5h-3.7v-21.9h3.7l0,8.7c0.6-0.8,1.3-1.5,2.2-2.1
			c0.9-0.6,1.9-0.9,3.2-0.9c0.9,0,1.9,0.2,2.7,0.5s1.7,0.9,2.4,1.6c0.7,0.7,1.2,1.6,1.7,2.6c0.4,1,0.6,2.2,0.6,3.5v0.1
			c0,1.3-0.2,2.5-0.6,3.5c-0.4,1-1,1.9-1.6,2.6c-0.7,0.7-1.5,1.2-2.4,1.6C185.2,243.6,184.3,243.7,183.3,243.7z M182.5,240.6
			c0.6,0,1.2-0.1,1.8-0.4c0.5-0.2,1-0.6,1.4-1c0.4-0.4,0.7-1,1-1.6c0.2-0.6,0.4-1.3,0.4-2.1v-0.1c0-0.8-0.1-1.5-0.4-2.1
			c-0.2-0.6-0.6-1.2-1-1.6c-0.4-0.4-0.9-0.8-1.4-1c-0.6-0.2-1.1-0.4-1.8-0.4c-0.6,0-1.2,0.1-1.8,0.4c-0.6,0.2-1.1,0.6-1.5,1
			s-0.8,1-1,1.6c-0.3,0.6-0.4,1.3-0.4,2.1v0.1c0,0.8,0.1,1.5,0.4,2.1c0.2,0.6,0.6,1.2,1,1.6c0.4,0.4,0.9,0.8,1.5,1
			C181.3,240.5,181.9,240.6,182.5,240.6z"/>
		<path class="st3" d="M201.7,243.8c-1.1,0-2.2-0.2-3.2-0.6c-1-0.4-1.9-1-2.6-1.7c-0.7-0.7-1.3-1.6-1.7-2.6s-0.6-2.1-0.6-3.3v-0.1
			c0-1.1,0.2-2.2,0.6-3.2c0.4-1,0.9-1.9,1.6-2.6s1.5-1.3,2.4-1.8c0.9-0.4,2-0.6,3.1-0.6c1.3,0,2.4,0.2,3.3,0.7
			c0.9,0.5,1.7,1.1,2.4,1.9s1.1,1.7,1.4,2.7c0.3,1,0.5,2.1,0.5,3.3c0,0.2,0,0.3,0,0.5c0,0.2,0,0.3,0,0.5h-11.6
			c0.2,1.3,0.7,2.3,1.5,3c0.8,0.7,1.8,1,3,1c0.9,0,1.7-0.2,2.3-0.5s1.3-0.8,2-1.4l2.1,1.9c-0.8,0.9-1.7,1.6-2.7,2.2
			C204.4,243.5,203.1,243.8,201.7,243.8z M205.3,234.4c-0.1-0.6-0.2-1.1-0.4-1.6c-0.2-0.5-0.5-0.9-0.8-1.3c-0.3-0.4-0.7-0.7-1.2-0.9
			c-0.5-0.2-1-0.3-1.6-0.3c-1.1,0-2,0.4-2.8,1.2c-0.7,0.8-1.2,1.8-1.3,3H205.3z"/>
		<path class="st3" d="M212.5,227.6h3.7v2.5c0.3-0.4,0.5-0.7,0.9-1.1c0.3-0.3,0.7-0.6,1.1-0.9c0.4-0.3,0.9-0.5,1.3-0.6
			c0.5-0.2,1-0.2,1.7-0.2c1.8,0,3.2,0.5,4.2,1.7c1,1.1,1.5,2.6,1.5,4.4v10.1h-3.7v-9c0-1.2-0.3-2.2-0.9-2.9c-0.6-0.7-1.4-1-2.5-1
			c-1.1,0-1.9,0.3-2.6,1c-0.7,0.7-1,1.7-1,2.9v8.9h-3.7V227.6z"/>
		<path class="st3" d="M236.6,243.7c-1.1,0-2.3-0.2-3.5-0.6c-1.2-0.4-2.3-1-3.3-1.8l1.6-2.5c0.9,0.6,1.7,1.1,2.6,1.5
			c0.9,0.3,1.7,0.5,2.6,0.5c0.8,0,1.4-0.2,1.8-0.5c0.4-0.3,0.6-0.7,0.6-1.2V239c0-0.3-0.1-0.6-0.3-0.8c-0.2-0.2-0.5-0.4-0.8-0.6
			c-0.3-0.2-0.7-0.3-1.1-0.4c-0.4-0.1-0.9-0.3-1.3-0.4c-0.6-0.2-1.2-0.3-1.8-0.6c-0.6-0.2-1.1-0.5-1.6-0.9c-0.5-0.3-0.9-0.8-1.2-1.3
			c-0.3-0.5-0.5-1.2-0.5-1.9v-0.1c0-0.7,0.1-1.4,0.4-2c0.3-0.6,0.7-1.1,1.2-1.5c0.5-0.4,1.1-0.7,1.8-1c0.7-0.2,1.4-0.3,2.2-0.3
			c1,0,2,0.2,3,0.5s2,0.8,2.8,1.3l-1.4,2.6c-0.8-0.5-1.5-0.8-2.3-1.1c-0.8-0.3-1.5-0.4-2.2-0.4c-0.7,0-1.2,0.2-1.6,0.4
			c-0.4,0.3-0.6,0.7-0.6,1.1v0.1c0,0.3,0.1,0.5,0.3,0.7c0.2,0.2,0.5,0.4,0.8,0.6c0.3,0.2,0.7,0.3,1.1,0.5c0.4,0.2,0.9,0.3,1.3,0.4
			c0.6,0.2,1.2,0.4,1.7,0.6c0.6,0.2,1.1,0.5,1.6,0.9c0.5,0.3,0.9,0.8,1.2,1.3c0.3,0.5,0.4,1.1,0.4,1.8v0.1c0,0.8-0.1,1.6-0.4,2.2
			c-0.3,0.6-0.7,1.1-1.2,1.5c-0.5,0.4-1.2,0.7-1.9,0.9C238.2,243.6,237.4,243.7,236.6,243.7z"/>
		<path class="st3" d="M246.1,227.6h3.7v2.4c0.3-0.4,0.5-0.7,0.8-1c0.3-0.3,0.6-0.6,1-0.9c0.4-0.3,0.8-0.5,1.3-0.6
			c0.5-0.2,1-0.2,1.6-0.2c1.1,0,2.1,0.3,2.9,0.8c0.8,0.5,1.4,1.2,1.8,2c0.6-0.8,1.4-1.5,2.3-2c0.9-0.5,1.9-0.8,3.1-0.8
			c1.7,0,3.1,0.5,4.1,1.6s1.5,2.5,1.5,4.5v10.1h-3.7v-9c0-1.3-0.3-2.2-0.8-2.9c-0.6-0.7-1.3-1-2.4-1c-1,0-1.8,0.3-2.4,1
			c-0.6,0.7-0.9,1.6-0.9,2.9v8.9h-3.7v-9c0-1.2-0.3-2.2-0.8-2.8c-0.6-0.7-1.3-1-2.4-1c-1,0-1.8,0.3-2.4,1c-0.6,0.7-0.9,1.7-0.9,2.9
			v8.9h-3.7V227.6z"/>
		<path class="st3" d="M274.7,221.7h3.9v3.5h-3.9V221.7z M274.8,227.6h3.7v15.8h-3.7V227.6z"/>
		<path class="st3" d="M288.6,243.7c-0.7,0-1.3-0.1-1.8-0.2c-0.6-0.2-1.1-0.4-1.5-0.8c-0.4-0.4-0.7-0.8-1-1.4
			c-0.2-0.6-0.3-1.3-0.3-2.2v-8.3h-2v-3.1h2v-4.4h3.7v4.4h4.3v3.1h-4.3v7.8c0,0.7,0.2,1.2,0.5,1.5c0.3,0.3,0.8,0.5,1.4,0.5
			c0.8,0,1.5-0.2,2.2-0.5v3c-0.5,0.3-1,0.5-1.5,0.6S289.2,243.7,288.6,243.7z"/>
		<path class="st3" d="M300.9,243.7c-0.7,0-1.3-0.1-1.8-0.2c-0.6-0.2-1.1-0.4-1.5-0.8c-0.4-0.4-0.7-0.8-1-1.4
			c-0.2-0.6-0.3-1.3-0.3-2.2v-8.3h-2v-3.1h2v-4.4h3.7v4.4h4.3v3.1h-4.3v7.8c0,0.7,0.2,1.2,0.5,1.5c0.3,0.3,0.8,0.5,1.4,0.5
			c0.8,0,1.5-0.2,2.2-0.5v3c-0.5,0.3-1,0.5-1.5,0.6S301.5,243.7,300.9,243.7z"/>
		<path class="st3" d="M315.1,243.8c-1.1,0-2.2-0.2-3.2-0.6c-1-0.4-1.9-1-2.6-1.7c-0.7-0.7-1.3-1.6-1.7-2.6s-0.6-2.1-0.6-3.3v-0.1
			c0-1.1,0.2-2.2,0.6-3.2c0.4-1,0.9-1.9,1.6-2.6s1.5-1.3,2.4-1.8c0.9-0.4,2-0.6,3.1-0.6c1.3,0,2.4,0.2,3.3,0.7
			c0.9,0.5,1.7,1.1,2.4,1.9s1.1,1.7,1.4,2.7c0.3,1,0.5,2.1,0.5,3.3c0,0.2,0,0.3,0,0.5c0,0.2,0,0.3,0,0.5h-11.6
			c0.2,1.3,0.7,2.3,1.5,3c0.8,0.7,1.8,1,3,1c0.9,0,1.7-0.2,2.3-0.5s1.3-0.8,2-1.4l2.1,1.9c-0.8,0.9-1.7,1.6-2.7,2.2
			C317.8,243.5,316.5,243.8,315.1,243.8z M318.7,234.4c-0.1-0.6-0.2-1.1-0.4-1.6c-0.2-0.5-0.5-0.9-0.8-1.3c-0.3-0.4-0.7-0.7-1.2-0.9
			c-0.5-0.2-1-0.3-1.6-0.3c-1.1,0-2,0.4-2.8,1.2c-0.7,0.8-1.2,1.8-1.3,3H318.7z"/>
		<path class="st3" d="M326.1,221.5h3.7v21.9h-3.7V221.5z"/>
		<path class="st3" d="M344.2,243.4v-2c-0.5,0.6-1.2,1.2-2.1,1.6c-0.8,0.4-1.9,0.7-3.1,0.7c-0.8,0-1.5-0.1-2.2-0.3
			c-0.7-0.2-1.3-0.5-1.8-0.9c-0.5-0.4-0.9-0.9-1.2-1.5c-0.3-0.6-0.5-1.3-0.5-2.1v-0.1c0-0.9,0.2-1.6,0.5-2.3
			c0.3-0.6,0.8-1.2,1.3-1.6c0.6-0.4,1.2-0.8,2-1c0.8-0.2,1.6-0.3,2.6-0.3c1,0,1.8,0.1,2.4,0.2c0.7,0.1,1.3,0.3,1.9,0.5v-0.3
			c0-1.1-0.3-1.9-1-2.5c-0.7-0.6-1.6-0.9-2.9-0.9c-0.9,0-1.7,0.1-2.4,0.3c-0.7,0.2-1.4,0.4-2.1,0.7l-1-2.9c0.9-0.4,1.8-0.7,2.7-1
			c0.9-0.2,2-0.4,3.3-0.4c2.4,0,4.1,0.6,5.2,1.8c1.1,1.2,1.7,2.8,1.7,4.9v9.4H344.2z M344.3,236.8c-0.5-0.2-1-0.3-1.6-0.5
			c-0.6-0.1-1.3-0.2-2-0.2c-1.1,0-2,0.2-2.7,0.7c-0.6,0.4-1,1-1,1.8v0.1c0,0.8,0.3,1.3,0.9,1.7c0.6,0.4,1.3,0.6,2.2,0.6
			c0.6,0,1.2-0.1,1.7-0.2c0.5-0.2,1-0.4,1.3-0.7c0.4-0.3,0.7-0.6,0.9-1c0.2-0.4,0.3-0.9,0.3-1.4V236.8z"/>
		<path class="st3" d="M361.1,243.7c-1.3,0-2.4-0.3-3.2-0.8s-1.6-1.2-2.1-2v2.5h-3.7v-21.9h3.7l0,8.7c0.6-0.8,1.3-1.5,2.2-2.1
			c0.9-0.6,1.9-0.9,3.2-0.9c0.9,0,1.9,0.2,2.7,0.5s1.7,0.9,2.4,1.6c0.7,0.7,1.2,1.6,1.7,2.6c0.4,1,0.6,2.2,0.6,3.5v0.1
			c0,1.3-0.2,2.5-0.6,3.5c-0.4,1-1,1.9-1.6,2.6c-0.7,0.7-1.5,1.2-2.4,1.6C363,243.6,362.1,243.7,361.1,243.7z M360.3,240.6
			c0.6,0,1.2-0.1,1.8-0.4c0.5-0.2,1-0.6,1.4-1c0.4-0.4,0.7-1,1-1.6c0.2-0.6,0.4-1.3,0.4-2.1v-0.1c0-0.8-0.1-1.5-0.4-2.1
			c-0.2-0.6-0.6-1.2-1-1.6c-0.4-0.4-0.9-0.8-1.4-1c-0.6-0.2-1.1-0.4-1.8-0.4c-0.6,0-1.2,0.1-1.8,0.4c-0.6,0.2-1.1,0.6-1.5,1
			s-0.8,1-1,1.6c-0.3,0.6-0.4,1.3-0.4,2.1v0.1c0,0.8,0.1,1.5,0.4,2.1c0.2,0.6,0.6,1.2,1,1.6c0.4,0.4,0.9,0.8,1.5,1
			C359.1,240.5,359.7,240.6,360.3,240.6z"/>
		<path class="st3" d="M373,230.7h-2v-3h2v-1.1c0-1.8,0.4-3.1,1.3-3.9c0.8-0.8,2-1.3,3.6-1.3c0.6,0,1.2,0,1.7,0.1s0.9,0.2,1.3,0.3
			v3.1c-0.4-0.1-0.7-0.2-1-0.3s-0.7-0.1-1.1-0.1c-1.4,0-2.1,0.8-2.1,2.4v0.9h4.2v3h-4.1v12.7H373V230.7z"/>
		<path class="st3" d="M393.2,243.4l0-2c-0.5,0.6-1.2,1.2-2.1,1.6s-1.9,0.7-3.1,0.7c-0.8,0-1.5-0.1-2.2-0.3s-1.3-0.5-1.8-0.9
			c-0.5-0.4-0.9-0.9-1.2-1.5c-0.3-0.6-0.5-1.3-0.5-2.1v-0.1c0-0.9,0.2-1.6,0.5-2.3c0.3-0.6,0.8-1.2,1.3-1.6c0.6-0.4,1.2-0.8,2-1
			s1.6-0.3,2.6-0.3c1,0,1.8,0.1,2.4,0.2s1.3,0.3,1.9,0.5l0-0.3c0-1.1-0.3-1.9-1-2.5s-1.6-0.9-2.9-0.9c-0.9,0-1.7,0.1-2.4,0.3
			c-0.7,0.2-1.4,0.4-2.1,0.7l-1-2.9c0.9-0.4,1.8-0.7,2.7-1c0.9-0.2,2-0.4,3.3-0.4c2.4,0,4.1,0.6,5.2,1.8s1.7,2.8,1.7,4.9v9.4H393.2z
			 M385.2,222h3.7v3.5h-3.7V222z M393.3,236.8c-0.5-0.2-1-0.3-1.6-0.5c-0.6-0.1-1.3-0.2-2-0.2c-1.1,0-2,0.2-2.7,0.7
			c-0.6,0.4-1,1-1,1.8v0.1c0,0.8,0.3,1.3,0.9,1.7c0.6,0.4,1.3,0.6,2.2,0.6c0.6,0,1.2-0.1,1.7-0.2s1-0.4,1.3-0.7
			c0.4-0.3,0.7-0.6,0.9-1c0.2-0.4,0.3-0.9,0.3-1.4V236.8z M391.2,222h3.7v3.5h-3.7V222z"/>
		<path class="st3" d="M401.3,221.5h3.7v21.9h-3.7V221.5z"/>
		<path class="st3" d="M409.9,221.5h3.7v21.9h-3.7V221.5z"/>
		<path class="st3" d="M425.5,243.8c-1.1,0-2.2-0.2-3.2-0.6c-1-0.4-1.9-1-2.6-1.7c-0.7-0.7-1.3-1.6-1.7-2.6s-0.6-2.1-0.6-3.3v-0.1
			c0-1.1,0.2-2.2,0.6-3.2s0.9-1.9,1.6-2.6c0.7-0.8,1.5-1.3,2.4-1.8c0.9-0.4,2-0.6,3.1-0.6c1.3,0,2.4,0.2,3.3,0.7
			c0.9,0.5,1.7,1.1,2.4,1.9s1.1,1.7,1.4,2.7c0.3,1,0.5,2.1,0.5,3.3c0,0.2,0,0.3,0,0.5c0,0.2,0,0.3,0,0.5H421c0.2,1.3,0.7,2.3,1.5,3
			c0.8,0.7,1.8,1,3,1c0.9,0,1.7-0.2,2.3-0.5s1.3-0.8,2-1.4l2.1,1.9c-0.8,0.9-1.7,1.6-2.7,2.2S427,243.8,425.5,243.8z M429.1,234.4
			c-0.1-0.6-0.2-1.1-0.4-1.6c-0.2-0.5-0.5-0.9-0.8-1.3c-0.3-0.4-0.7-0.7-1.2-0.9c-0.5-0.2-1-0.3-1.6-0.3c-1.1,0-2,0.4-2.8,1.2
			c-0.7,0.8-1.2,1.8-1.3,3H429.1z"/>
		<path class="st3" d="M445.4,227.6h3.7v3.6c0.5-1.2,1.2-2.2,2.1-2.9c0.9-0.7,2.1-1,3.5-1v3.8h-0.2c-0.8,0-1.5,0.1-2.2,0.4
			c-0.7,0.3-1.2,0.7-1.7,1.2c-0.5,0.5-0.9,1.2-1.1,2c-0.3,0.8-0.4,1.7-0.4,2.7v6h-3.7V227.6z"/>
		<path class="st3" d="M465,243.8c-1.1,0-2.2-0.2-3.2-0.6c-1-0.4-1.9-1-2.6-1.7c-0.7-0.7-1.3-1.6-1.7-2.6s-0.6-2.1-0.6-3.3v-0.1
			c0-1.1,0.2-2.2,0.6-3.2c0.4-1,0.9-1.9,1.6-2.6c0.7-0.8,1.5-1.3,2.4-1.8c0.9-0.4,2-0.6,3.1-0.6c1.3,0,2.4,0.2,3.3,0.7
			c1,0.5,1.7,1.1,2.4,1.9s1.1,1.7,1.4,2.7c0.3,1,0.5,2.1,0.5,3.3c0,0.2,0,0.3,0,0.5c0,0.2,0,0.3,0,0.5h-11.6c0.2,1.3,0.7,2.3,1.5,3
			c0.8,0.7,1.8,1,3,1c0.9,0,1.7-0.2,2.3-0.5s1.3-0.8,2-1.4l2.1,1.9c-0.8,0.9-1.7,1.6-2.7,2.2C467.8,243.5,466.5,243.8,465,243.8z
			 M468.6,234.4c-0.1-0.6-0.2-1.1-0.4-1.6s-0.5-0.9-0.8-1.3c-0.3-0.4-0.7-0.7-1.2-0.9c-0.5-0.2-1-0.3-1.6-0.3c-1.1,0-2,0.4-2.8,1.2
			c-0.7,0.8-1.2,1.8-1.3,3H468.6z"/>
		<path class="st3" d="M482.4,243.7c-0.9,0-1.8-0.2-2.7-0.5c-0.9-0.4-1.7-0.9-2.3-1.6c-0.7-0.7-1.2-1.6-1.7-2.6
			c-0.4-1-0.6-2.2-0.6-3.5v-0.1c0-1.3,0.2-2.5,0.6-3.5c0.4-1,1-1.9,1.6-2.6c0.7-0.7,1.5-1.2,2.3-1.6c0.9-0.4,1.8-0.5,2.7-0.5
			c1.3,0,2.4,0.3,3.2,0.8c0.9,0.6,1.6,1.2,2.2,2v-8.5h3.7v21.9h-3.7l0-2.6c-0.6,0.8-1.3,1.5-2.2,2.1S483.7,243.7,482.4,243.7z
			 M483.3,240.6c0.6,0,1.2-0.1,1.7-0.4c0.6-0.2,1-0.6,1.5-1s0.8-1,1-1.6c0.2-0.6,0.4-1.3,0.4-2.1v-0.1c0-0.8-0.1-1.5-0.4-2.1
			c-0.2-0.6-0.6-1.2-1-1.6c-0.4-0.4-0.9-0.8-1.5-1c-0.6-0.2-1.1-0.4-1.7-0.4c-0.6,0-1.2,0.1-1.7,0.3c-0.5,0.2-1,0.6-1.5,1
			c-0.4,0.4-0.7,1-1,1.6c-0.2,0.6-0.4,1.3-0.4,2.1v0.1c0,0.8,0.1,1.5,0.4,2.1s0.6,1.2,1,1.6c0.4,0.4,0.9,0.8,1.5,1
			C482.1,240.5,482.7,240.6,483.3,240.6z"/>
		<path class="st3" d="M501.4,243.7c-1.8,0-3.2-0.5-4.2-1.7c-1-1.1-1.5-2.6-1.5-4.4v-10.1h3.7v9c0,1.2,0.3,2.2,0.9,2.9
			c0.6,0.7,1.4,1,2.5,1c1.1,0,1.9-0.3,2.6-1s1-1.7,1-2.9v-8.9h3.7v15.8h-3.7v-2.5c-0.5,0.8-1.2,1.4-1.9,2
			C503.7,243.5,502.7,243.7,501.4,243.7z"/>
		<path class="st3" d="M513.9,240.9l9.1-10.4h-8.8v-3h13.4v2.5l-9.1,10.4h9.1v3h-13.8V240.9z"/>
		<path class="st3" d="M531.5,221.7h3.9v3.5h-3.9V221.7z M531.6,227.6h3.7v15.8h-3.7V227.6z"/>
		<path class="st3" d="M547.2,243.8c-1.1,0-2.2-0.2-3.2-0.6c-1-0.4-1.9-1-2.6-1.7c-0.7-0.7-1.3-1.6-1.7-2.6s-0.6-2.1-0.6-3.3v-0.1
			c0-1.1,0.2-2.2,0.6-3.2c0.4-1,0.9-1.9,1.6-2.6c0.7-0.8,1.5-1.3,2.4-1.8c0.9-0.4,2-0.6,3.1-0.6c1.3,0,2.4,0.2,3.3,0.7
			c1,0.5,1.7,1.1,2.4,1.9s1.1,1.7,1.4,2.7c0.3,1,0.5,2.1,0.5,3.3c0,0.2,0,0.3,0,0.5c0,0.2,0,0.3,0,0.5h-11.6c0.2,1.3,0.7,2.3,1.5,3
			c0.8,0.7,1.8,1,3,1c0.9,0,1.7-0.2,2.3-0.5s1.3-0.8,2-1.4l2.1,1.9c-0.8,0.9-1.7,1.6-2.7,2.2C550,243.5,548.7,243.8,547.2,243.8z
			 M550.8,234.4c-0.1-0.6-0.2-1.1-0.4-1.6s-0.5-0.9-0.8-1.3c-0.3-0.4-0.7-0.7-1.2-0.9c-0.5-0.2-1-0.3-1.6-0.3c-1.1,0-2,0.4-2.8,1.2
			c-0.7,0.8-1.2,1.8-1.3,3H550.8z"/>
		<path class="st3" d="M558.1,227.6h3.7v3.6c0.5-1.2,1.2-2.2,2.1-2.9c0.9-0.7,2.1-1,3.5-1v3.8h-0.2c-0.8,0-1.5,0.1-2.2,0.4
			c-0.7,0.3-1.2,0.7-1.7,1.2c-0.5,0.5-0.8,1.2-1.1,2c-0.3,0.8-0.4,1.7-0.4,2.7v6h-3.7V227.6z"/>
		<path class="st3" d="M577.8,243.8c-1.1,0-2.2-0.2-3.2-0.6c-1-0.4-1.9-1-2.6-1.7c-0.7-0.7-1.3-1.6-1.7-2.6s-0.6-2.1-0.6-3.3v-0.1
			c0-1.1,0.2-2.2,0.6-3.2c0.4-1,0.9-1.9,1.6-2.6c0.7-0.8,1.5-1.3,2.4-1.8c0.9-0.4,2-0.6,3.1-0.6c1.3,0,2.4,0.2,3.3,0.7
			c1,0.5,1.7,1.1,2.4,1.9s1.1,1.7,1.4,2.7c0.3,1,0.5,2.1,0.5,3.3c0,0.2,0,0.3,0,0.5c0,0.2,0,0.3,0,0.5h-11.6c0.2,1.3,0.7,2.3,1.5,3
			c0.8,0.7,1.8,1,3,1c0.9,0,1.7-0.2,2.3-0.5s1.3-0.8,2-1.4l2.1,1.9c-0.8,0.9-1.7,1.6-2.7,2.2C580.5,243.5,579.2,243.8,577.8,243.8z
			 M581.4,234.4c-0.1-0.6-0.2-1.1-0.4-1.6s-0.5-0.9-0.8-1.3c-0.3-0.4-0.7-0.7-1.2-0.9c-0.5-0.2-1-0.3-1.6-0.3c-1.1,0-2,0.4-2.8,1.2
			c-0.7,0.8-1.2,1.8-1.3,3H581.4z"/>
		<path class="st3" d="M588.6,227.6h3.7v2.5c0.3-0.4,0.5-0.7,0.9-1.1c0.3-0.3,0.7-0.6,1.1-0.9s0.9-0.5,1.3-0.6
			c0.5-0.2,1-0.2,1.7-0.2c1.8,0,3.2,0.5,4.2,1.7c1,1.1,1.5,2.6,1.5,4.4v10.1h-3.7v-9c0-1.2-0.3-2.2-0.9-2.9c-0.6-0.7-1.4-1-2.5-1
			c-1.1,0-1.9,0.3-2.6,1c-0.7,0.7-1,1.7-1,2.9v8.9h-3.7V227.6z"/>
	</g>
	<circle class="st3" cx="370.1" cy="162.3" r="41.8"/>
	<path class="st1" d="M384.8,149.4c-0.3-0.2-0.6-0.4-0.8-0.5c-3.1-2.2-6.3-1.2-9.4-0.2c-1.4,0.5-2.8,0.8-4.3,1
		c-0.2-1.7-0.2-6,3.6-12.7c0.3-0.5,0.1-1.1-0.4-1.4c-0.5-0.3-1.1-0.1-1.4,0.4c-1.7,2.9-3,6-3.6,9.3c-2.9-5.9-8.9-9.7-15.5-9.9
		c-0.6,0-1,0.4-1.1,0.9c0,0,0,0,0,0.1c-0.1,5.1,1.6,8.8,5.5,11.5c-0.9,0.2-1.7,0.6-2.5,1.1c-1,0.7-1.9,1.5-2.7,2.4l0,0l0,0
		c0,0.1-0.1,0.1-0.1,0.2l0,0c0,0.1-0.1,0.2-0.1,0.2c0,0,0,0,0,0.1c0,0.1,0,0.1,0,0.2l0,0c0,0.1,0,0.2,0.1,0.2l0,0l0,0l0.1,0.2l0,0
		c0,0.1,0.1,0.1,0.2,0.2c2.6,2.3,4.6,5.1,5.9,8.2c3,7.1,2.2,14.9-2.4,23c0,0,0,0.1,0,0.1l0,0l0,0c0,0.1,0,0.2-0.1,0.2l0,0
		c0,0.1,0,0.1,0,0.2c0,0,0,0,0,0.1c0,0.1,0,0.1,0.1,0.2l0,0c0,0.1,0.1,0.1,0.1,0.2l0,0c1.8,2.1,6.1,3.4,7.5,3.7
		c1.2,0.3,2.5,0.4,3.8,0.2c0.8-0.1,1.6-0.2,2.4-0.2c0.8,0,1.6,0,2.4,0.1c0.7,0.1,1.4,0.1,2.1,0.1c0.4-0.1,1-0.1,1.6-0.3
		c1.3-0.4,2.6-0.9,3.9-1.4c3.5-1.4,3.5-1.4,3.6-1.9c0.1-0.4,0-0.7-0.3-1c-0.1-0.1-0.2-0.2-0.3-0.2c-8.7-18,2.7-29,4.5-30.5
		c0.5-0.1,0.9-0.4,1-0.8c0.3-1-0.7-1.8-3.5-3.6L384.8,149.4z M354,137.5c9.8,1,13.1,8.8,14.1,12.1c-1-0.2-2-0.4-2.8-0.6l-1-0.3
		l-0.8-0.2C355.7,145.9,354.1,141.6,354,137.5L354,137.5z M356.2,150.6c2-1.4,4.1-1,6.5-0.3c0.7,0.2,1.5,0.5,2.3,0.7
		c0.9,0.3,1.9,0.5,2.9,0.6l1.5,0.2h0.3c0.2,0,0.3-0.1,0.5-0.2c1.8-0.2,3.5-0.5,5.2-1.1c2.9-0.9,5.3-1.6,7.6-0.1l0.8,0.6
		c0.4,0.2,0.9,0.6,1.5,1c-1.6,0.6-3.1,1.6-4.2,3c-0.4,0.5-1.2,1.2-1.4,1.2h0l-0.2-0.1c-1.6-1.2-3.5-1.8-5.5-1.7
		c-1,0.1-2.1,0.4-3,0.9c-3.2,1.6-8,0.4-10.9-1.7c-1.4-1-3-1.8-4.7-2.3C355.5,151.2,355.8,150.9,356.2,150.6L356.2,150.6z
		 M375.5,186.8c-1,0.3-2.1,0.3-3.1,0.2c-0.9-0.1-1.8-0.2-2.7-0.2c-0.8,0-1.4,0.1-1.8,0.1l-0.8,0.1c-1,0.2-2.1,0.1-3.1-0.1
		c-1.6-0.4-3.1-1-4.6-1.7c2-0.4,4.1-1,6-1.8c1.2-0.5,2.5-0.4,3.6,0.2c1.4,0.7,3.2,0.7,4.6-0.1c1.4,0.3,2.8,0.9,4,1.6
		c0.4,0.2,0.8,0.4,1.1,0.6C377.2,186.3,375.9,186.7,375.5,186.8L375.5,186.8z M380.5,184.3c-0.7-0.3-1.4-0.6-2.1-1
		c-1.5-1-3.3-1.6-5.1-1.9c-0.2,0-0.5,0-0.7,0.2c-1.2,0.8-1.9,0.5-3.1,0.1c-1.6-0.8-3.4-0.8-5.1-0.1c-1.9,0.7-3.9,1.3-5.9,1.7
		c7.1-14.2,1.5-24.5-2.3-29.1c0.8,0.4,1.6,0.8,2.3,1.3c3.4,2.4,9,3.8,13,1.8c3-1.5,4.6-0.5,6.6,0.6l0.2,0.1c0.4,0.2,0.8,0.4,1.3,0.3
		c0.9-0.2,1.8-0.7,2.4-1.5C378.6,162.1,374.8,171.6,380.5,184.3L380.5,184.3z"/>
	<path class="st1" d="M367.1,166.8c-0.6,0-1,0.4-1,1v4.2c0,0.6,0.4,1,1,1h0.1c0.5,0,0.9-0.5,0.9-1v-4.2
		C368.2,167.2,367.7,166.8,367.1,166.8L367.1,166.8z"/>
	<path class="st1" d="M371.3,166.8c-0.6,0-1,0.4-1,1v4.2c0,0.6,0.4,1,1,1h0.1c0.5,0,0.9-0.5,0.9-1v-4.2
		C372.3,167.2,371.8,166.8,371.3,166.8L371.3,166.8z"/>
	<path class="st4" d="M619.6,387.8h-499c-13.1,0-21.3,13.7-14.7,24.7l50.1,114c3.1,5.1,8.7,8.3,14.7,8.2h398.8
		c6,0,11.6-3.1,14.7-8.2l50.1-114C640.9,401.5,632.7,387.8,619.6,387.8z"/>
	<g>
		<path class="st3" d="M195.2,475.1c-1.6,0-3.2-0.3-4.6-0.8c-1.5-0.6-2.9-1.4-4.1-2.5l2.2-2.6c0.9,0.8,2,1.5,3.1,2
			c1.1,0.5,2.3,0.7,3.5,0.7c1,0.1,1.9-0.2,2.7-0.7c0.6-0.4,1-1.2,1-1.9v-0.1c0-0.3-0.1-0.7-0.2-1c-0.2-0.3-0.4-0.6-0.7-0.8
			c-0.4-0.3-0.9-0.5-1.4-0.7c-0.8-0.3-1.6-0.5-2.4-0.7c-1-0.2-2-0.5-3-0.9c-0.8-0.3-1.5-0.7-2.2-1.2c-0.6-0.5-1.1-1.1-1.4-1.7
			c-0.3-0.8-0.5-1.6-0.5-2.5v-0.1c0-1.7,0.7-3.3,2-4.4c0.7-0.5,1.4-1,2.2-1.2c0.9-0.3,1.9-0.5,2.9-0.5c1.4,0,2.8,0.2,4.1,0.7
			c1.3,0.5,2.4,1.2,3.5,2l-2,2.8c-0.9-0.7-1.8-1.2-2.9-1.6c-0.9-0.4-1.9-0.6-2.9-0.6c-0.9-0.1-1.8,0.2-2.5,0.7
			c-0.6,0.4-0.9,1.1-0.9,1.8v0.1c0,0.4,0.1,0.7,0.2,1.1c0.2,0.3,0.4,0.6,0.8,0.8c0.5,0.3,1,0.5,1.5,0.7c0.6,0.2,1.5,0.5,2.5,0.7
			c1,0.2,2,0.6,2.9,0.9c0.8,0.3,1.5,0.7,2.1,1.2c0.5,0.5,1,1,1.3,1.7c0.3,0.7,0.5,1.5,0.4,2.3v0.1c0,0.9-0.2,1.8-0.6,2.6
			c-0.4,0.8-0.9,1.5-1.5,2c-0.7,0.6-1.5,1-2.4,1.2C197.2,475,196.2,475.1,195.2,475.1z"/>
		<path class="st3" d="M206.6,458.9h3.7v2.6c0.6-0.8,1.3-1.6,2.1-2.1c1-0.6,2.1-0.9,3.2-0.9c0.9,0,1.9,0.2,2.7,0.5
			c0.9,0.4,1.7,0.9,2.4,1.6c0.7,0.8,1.3,1.6,1.7,2.6c0.4,1.1,0.7,2.3,0.6,3.5v0.1c0,1.2-0.2,2.4-0.6,3.5c-0.4,1-0.9,1.8-1.6,2.6
			c-0.7,0.7-1.5,1.2-2.4,1.6c-0.9,0.4-1.8,0.5-2.7,0.5c-1.1,0-2.3-0.2-3.2-0.8c-0.8-0.5-1.5-1.2-2.1-2v7.3h-3.7L206.6,458.9z
			 M214.8,471.9c0.6,0,1.2-0.1,1.8-0.4c0.5-0.2,1-0.6,1.4-1c0.4-0.5,0.8-1,1-1.6c0.2-0.7,0.4-1.4,0.4-2.1v-0.1
			c0-0.7-0.1-1.4-0.4-2.1c-0.2-0.6-0.6-1.1-1-1.6c-0.8-0.9-2-1.4-3.2-1.4c-0.6,0-1.2,0.1-1.8,0.4c-0.6,0.2-1.1,0.6-1.5,1
			c-0.4,0.5-0.8,1-1,1.6c-0.3,0.7-0.4,1.4-0.4,2.1v0.1c0,0.7,0.1,1.4,0.4,2.1c0.2,0.6,0.6,1.1,1,1.6
			C212.4,471.4,213.6,471.9,214.8,471.9L214.8,471.9z"/>
		<path class="st3" d="M234,475.1c-1.1,0-2.2-0.2-3.2-0.6c-2-0.8-3.5-2.3-4.3-4.3c-0.4-1.1-0.6-2.2-0.6-3.4v-0.1
			c0-1.1,0.2-2.2,0.6-3.2c0.4-1,0.9-1.9,1.6-2.6c0.7-0.7,1.5-1.4,2.4-1.8c1-0.4,2-0.7,3.1-0.6c1.1,0,2.3,0.2,3.3,0.7
			c0.9,0.4,1.7,1.1,2.4,1.9c0.6,0.8,1.1,1.7,1.4,2.7c0.3,1.1,0.5,2.2,0.5,3.3c0,0.2,0,0.3,0,0.5s0,0.4,0,0.5h-11.7
			c0.2,2.3,2.2,4.1,4.6,4c0.8,0,1.6-0.1,2.3-0.5c0.7-0.4,1.4-0.8,1.9-1.4l2.1,1.9c-0.8,0.9-1.7,1.6-2.7,2.2
			C236.6,474.9,235.3,475.2,234,475.1z M237.6,465.7c-0.1-0.6-0.2-1.1-0.4-1.6c-0.2-0.5-0.5-0.9-0.8-1.3c-0.3-0.4-0.8-0.7-1.2-0.9
			c-0.5-0.2-1-0.3-1.6-0.3c-1,0-2.1,0.4-2.8,1.2c-0.8,0.8-1.2,1.9-1.3,3L237.6,465.7z"/>
		<path class="st3" d="M244.8,458.9h3.7v2.5c0.3-0.4,0.5-0.7,0.9-1.1c0.3-0.3,0.7-0.6,1.1-0.9c0.4-0.3,0.9-0.5,1.3-0.6
			c0.5-0.2,1.1-0.2,1.7-0.2c1.6-0.1,3.1,0.5,4.2,1.6c1,1.2,1.6,2.8,1.5,4.4v10.1h-3.7v-9c0.1-1-0.2-2-0.9-2.9
			c-0.6-0.7-1.5-1.1-2.5-1c-1,0-1.9,0.3-2.6,1c-0.7,0.8-1.1,1.8-1,2.9v8.9h-3.7L244.8,458.9z"/>
		<path class="st3" d="M270,475.1c-0.9,0-1.9-0.2-2.7-0.5c-0.9-0.4-1.7-0.9-2.3-1.6c-0.7-0.7-1.3-1.6-1.6-2.6
			c-0.4-1.1-0.7-2.3-0.6-3.5v-0.1c0-1.2,0.2-2.4,0.6-3.5c0.4-1,0.9-1.8,1.6-2.6c0.7-0.7,1.5-1.2,2.4-1.6c0.9-0.4,1.8-0.5,2.7-0.5
			c1.1,0,2.3,0.2,3.2,0.8c0.8,0.5,1.6,1.2,2.2,2v-8.5h3.7v21.9h-3.7v-2.6c-0.6,0.8-1.3,1.5-2.2,2.1
			C272.2,474.9,271.1,475.2,270,475.1z M270.8,472c1.2,0,2.4-0.5,3.2-1.4c0.4-0.5,0.8-1,1-1.6c0.3-0.7,0.4-1.4,0.4-2.1v-0.1
			c0-0.7-0.1-1.4-0.4-2.1c-0.2-0.6-0.6-1.1-1-1.6c-0.4-0.4-0.9-0.8-1.5-1c-0.5-0.2-1.1-0.4-1.7-0.4c-0.6,0-1.2,0.1-1.8,0.4
			c-0.6,0.2-1,0.6-1.5,1c-0.4,0.5-0.8,1-1,1.6c-0.2,0.7-0.4,1.4-0.4,2.1v0.1c0,0.7,0.1,1.4,0.4,2.1c0.2,0.6,0.6,1.1,1,1.6
			c0.4,0.4,0.9,0.8,1.5,1C269.6,471.8,270.2,472,270.8,472z"/>
		<path class="st3" d="M290.8,475.1c-1.1,0-2.2-0.2-3.2-0.6c-2-0.8-3.5-2.3-4.3-4.3c-0.4-1.1-0.6-2.2-0.6-3.4v-0.1
			c0-1.1,0.2-2.2,0.6-3.2c0.4-1,0.9-1.9,1.6-2.6c0.7-0.7,1.5-1.4,2.5-1.8c1-0.4,2-0.7,3.1-0.6c1.1,0,2.3,0.2,3.3,0.7
			c0.9,0.4,1.7,1.1,2.3,1.9c0.6,0.8,1.1,1.7,1.4,2.7c0.3,1.1,0.5,2.2,0.5,3.3c0,0.2,0,0.3,0,0.5s0,0.4,0,0.5h-11.7
			c0.2,2.3,2.2,4.1,4.6,4c0.8,0,1.6-0.1,2.3-0.5c0.7-0.4,1.4-0.8,2-1.4l2.1,1.9c-0.8,0.9-1.7,1.6-2.7,2.2
			C293.4,474.9,292.1,475.2,290.8,475.1z M294.4,465.7c-0.1-0.6-0.2-1.1-0.4-1.6c-0.2-0.5-0.5-0.9-0.8-1.3c-0.3-0.4-0.8-0.7-1.2-0.9
			c-0.5-0.2-1-0.3-1.6-0.3c-1,0-2.1,0.4-2.8,1.2c-0.8,0.8-1.2,1.9-1.3,3L294.4,465.7z"/>
		<path class="st3" d="M301.6,458.9h3.7v2.5c0.3-0.4,0.5-0.7,0.9-1.1c0.3-0.3,0.7-0.6,1.1-0.9c0.4-0.3,0.9-0.5,1.3-0.6
			c0.5-0.2,1.1-0.2,1.7-0.2c1.6-0.1,3.1,0.5,4.2,1.6c1,1.2,1.6,2.8,1.5,4.4v10.1h-3.7v-9c0.1-1-0.2-2-0.9-2.9
			c-0.6-0.7-1.5-1.1-2.5-1c-1,0-1.9,0.3-2.6,1c-0.7,0.8-1.1,1.8-1,2.9v8.9h-3.7L301.6,458.9z"/>
		<path class="st3" d="M334.7,475.1c-1.6,0.1-3.1-0.5-4.2-1.6c-1-1.2-1.5-2.8-1.5-4.4v-10.1h3.7v9c-0.1,1,0.2,2,0.9,2.9
			c0.6,0.7,1.6,1.1,2.5,1c1,0,1.9-0.3,2.6-1c0.7-0.8,1.1-1.8,1-2.9V459h3.7v15.8h-3.7v-2.5c-0.5,0.8-1.2,1.5-2,2
			C336.8,474.9,335.7,475.2,334.7,475.1z M331.4,453.4h3.6v3.5h-3.7L331.4,453.4z M337.4,453.4h3.6v3.5h-3.7L337.4,453.4z"/>
		<path class="st3" d="M356.8,475.1c-1.1,0-2.3-0.3-3.2-0.8c-0.8-0.5-1.5-1.2-2.1-2v2.5h-3.7v-21.9h3.7v8.7c0.6-0.8,1.3-1.6,2.2-2.1
			c1-0.6,2.1-0.9,3.2-0.9c0.9,0,1.9,0.2,2.7,0.5c0.9,0.4,1.7,0.9,2.4,1.6c0.7,0.7,1.3,1.6,1.7,2.6c0.4,1.1,0.7,2.3,0.6,3.5v0.1
			c0,1.2-0.2,2.4-0.6,3.5c-0.4,1-0.9,1.8-1.6,2.6c-0.7,0.7-1.5,1.2-2.4,1.6C358.7,474.9,357.8,475.1,356.8,475.1z M356,472
			c0.6,0,1.2-0.1,1.8-0.4c0.5-0.2,1-0.6,1.4-1c0.4-0.5,0.8-1,1-1.6c0.2-0.7,0.4-1.4,0.4-2.1v-0.1c0-0.7-0.1-1.4-0.4-2.1
			c-0.2-0.6-0.6-1.1-1-1.6c-0.8-0.9-2-1.4-3.2-1.4c-0.6,0-1.2,0.1-1.8,0.4c-0.6,0.2-1.1,0.6-1.5,1c-0.4,0.5-0.8,1-1,1.6
			c-0.3,0.7-0.4,1.4-0.4,2.1v0.1c0,0.7,0.1,1.4,0.4,2.1c0.2,0.6,0.6,1.1,1,1.6C353.6,471.4,354.8,472,356,472z"/>
		<path class="st3" d="M375.2,475.1c-1.1,0-2.2-0.2-3.2-0.6c-2-0.8-3.5-2.3-4.3-4.3c-0.4-1.1-0.6-2.2-0.6-3.4v-0.1
			c0-1.1,0.2-2.2,0.6-3.2c0.4-1,0.9-1.9,1.6-2.6c0.7-0.7,1.5-1.4,2.5-1.8c1-0.4,2-0.7,3.1-0.6c1.1,0,2.3,0.2,3.3,0.7
			c0.9,0.4,1.7,1.1,2.4,1.9c0.6,0.8,1.1,1.7,1.4,2.7c0.3,1.1,0.5,2.2,0.5,3.3c0,0.2,0,0.3,0,0.5s0,0.4,0,0.5h-11.7
			c0.2,2.3,2.2,4.1,4.6,4c0.8,0,1.6-0.1,2.3-0.5c0.7-0.4,1.4-0.8,2-1.4l2.1,1.9c-0.8,0.9-1.7,1.6-2.7,2.2
			C377.8,474.9,376.5,475.2,375.2,475.1z M378.8,465.7c-0.1-0.6-0.2-1.1-0.4-1.6c-0.2-0.5-0.5-0.9-0.8-1.3c-0.3-0.4-0.8-0.7-1.2-0.9
			c-0.5-0.2-1-0.3-1.6-0.3c-1,0-2.1,0.4-2.8,1.2c-0.8,0.8-1.2,1.9-1.3,3L378.8,465.7z"/>
		<path class="st3" d="M386,458.9h3.7v3.6c0.4-1.1,1.2-2.1,2.1-2.9c1-0.7,2.2-1.1,3.5-1v3.8h-0.2c-0.7,0-1.5,0.1-2.2,0.4
			c-0.7,0.3-1.2,0.7-1.7,1.2c-0.5,0.6-0.9,1.3-1.1,2c-0.3,0.9-0.4,1.8-0.4,2.8v6H386V458.9z"/>
		<path class="st3" d="M403.9,475.1c-1.2,0-2.4-0.2-3.5-0.6c-1.2-0.4-2.3-1-3.2-1.8l1.6-2.5c0.8,0.6,1.7,1.1,2.6,1.5
			c0.8,0.3,1.7,0.5,2.6,0.5c0.6,0,1.3-0.1,1.8-0.5c0.4-0.3,0.7-0.7,0.6-1.2v-0.1c0-0.3-0.1-0.6-0.3-0.8c-0.2-0.2-0.5-0.4-0.8-0.6
			c-0.4-0.2-0.8-0.3-1.1-0.5l-1.3-0.4c-0.6-0.2-1.2-0.4-1.8-0.6c-0.6-0.2-1.1-0.5-1.6-0.9c-0.5-0.4-0.9-0.8-1.1-1.3
			c-0.3-0.6-0.5-1.2-0.5-1.9v-0.1c0-1.4,0.6-2.7,1.6-3.5c0.5-0.4,1.1-0.8,1.8-1c0.7-0.2,1.5-0.3,2.2-0.3c1,0,2,0.2,3,0.5
			c1,0.3,1.9,0.8,2.8,1.3l-1.4,2.6c-0.7-0.4-1.5-0.8-2.3-1.1c-0.7-0.3-1.4-0.4-2.2-0.4c-0.6,0-1.2,0.1-1.6,0.5
			c-0.4,0.3-0.6,0.7-0.6,1.1v0.1c0,0.3,0.1,0.5,0.3,0.7c0.2,0.2,0.5,0.4,0.8,0.6c0.4,0.2,0.7,0.3,1.1,0.5c0.4,0.1,0.9,0.3,1.3,0.4
			s1.2,0.4,1.7,0.6c0.6,0.2,1.1,0.5,1.6,0.9c0.5,0.3,0.9,0.8,1.2,1.3c0.3,0.6,0.5,1.2,0.5,1.8v0.1c0,0.8-0.1,1.5-0.5,2.2
			c-0.3,0.6-0.7,1.1-1.2,1.5c-0.6,0.4-1.2,0.7-1.9,0.9C405.4,474.9,404.7,475.1,403.9,475.1z"/>
		<path class="st3" d="M420.8,475.1c-1.1,0-2.2-0.2-3.3-0.6c-1-0.4-1.9-1-2.6-1.8c-0.7-0.7-1.3-1.6-1.7-2.6c-0.4-1-0.6-2.1-0.6-3.2
			v-0.1c0-1.1,0.2-2.2,0.6-3.2c0.4-1,1-1.9,1.7-2.6c0.8-0.8,1.6-1.4,2.6-1.8c2.3-0.9,4.8-0.9,7,0.1c1,0.5,1.9,1.2,2.6,2l-2.2,2.4
			c-0.5-0.6-1.1-1-1.8-1.4c-0.7-0.4-1.5-0.6-2.3-0.6c-0.6,0-1.3,0.1-1.8,0.4c-0.5,0.3-1,0.6-1.4,1.1c-0.4,0.5-0.8,1-1,1.6
			c-0.2,0.6-0.4,1.3-0.3,2v0.1c0,0.7,0.1,1.4,0.3,2c0.2,0.6,0.6,1.2,1,1.6c0.4,0.5,0.9,0.8,1.5,1.1c0.6,0.3,1.3,0.4,1.9,0.4
			c0.8,0,1.6-0.2,2.3-0.5c0.7-0.4,1.3-0.9,1.9-1.4l2.2,2.2c-0.8,0.9-1.7,1.6-2.7,2.1C423.4,475,422.1,475.2,420.8,475.1z"/>
		<path class="st3" d="M430.6,452.9h3.7v8.5c0.2-0.4,0.5-0.7,0.8-1.1c0.3-0.3,0.7-0.6,1.1-0.9c0.4-0.3,0.9-0.5,1.3-0.6
			c0.5-0.2,1.1-0.2,1.7-0.2c1.6-0.1,3.1,0.5,4.2,1.6c1,1.2,1.6,2.8,1.5,4.4v10.1h-3.7v-9c0.1-1-0.2-2-0.9-2.9
			c-0.6-0.7-1.6-1.1-2.5-1c-1,0-1.9,0.3-2.5,1c-0.7,0.8-1.1,1.8-1,2.9v8.9h-3.7L430.6,452.9z"/>
		<path class="st3" d="M454.6,475.1c-1.6,0.1-3.1-0.5-4.2-1.6c-1-1.2-1.5-2.8-1.5-4.4v-10.1h3.7v9c-0.1,1,0.2,2,0.9,2.9
			c0.6,0.7,1.6,1.1,2.5,1c1,0,1.9-0.3,2.6-1c0.7-0.8,1.1-1.8,1-2.9V459h3.7v15.8h-3.7v-2.5c-0.5,0.8-1.2,1.5-2,2
			C456.7,474.9,455.7,475.2,454.6,475.1z M451.4,453.4h3.7v3.5h-3.7L451.4,453.4z M457.4,453.4h3.7v3.5h-3.7L457.4,453.4z"/>
		<path class="st3" d="M473.2,475.1c-1.2,0-2.4-0.2-3.5-0.6c-1.2-0.4-2.3-1-3.2-1.8l1.6-2.5c0.8,0.6,1.7,1.1,2.6,1.5
			c0.8,0.3,1.7,0.5,2.6,0.5c0.6,0,1.3-0.1,1.8-0.5c0.4-0.3,0.7-0.7,0.6-1.2v-0.1c0-0.3-0.1-0.6-0.3-0.8c-0.2-0.2-0.5-0.4-0.8-0.6
			c-0.4-0.2-0.8-0.3-1.1-0.5l-1.3-0.4c-0.6-0.2-1.2-0.4-1.8-0.6c-0.6-0.2-1.1-0.5-1.6-0.9c-0.5-0.4-0.9-0.8-1.1-1.3
			c-0.3-0.6-0.5-1.2-0.5-1.9v-0.1c0-1.4,0.6-2.7,1.6-3.5c0.5-0.4,1.1-0.8,1.8-1c0.7-0.2,1.5-0.3,2.2-0.3c1,0,2,0.2,3,0.5
			c1,0.3,1.9,0.8,2.8,1.3l-1.4,2.6c-0.7-0.4-1.5-0.8-2.3-1.1c-0.7-0.3-1.4-0.4-2.2-0.4c-0.6,0-1.2,0.1-1.6,0.5
			c-0.4,0.3-0.6,0.7-0.6,1.1v0.1c0,0.3,0.1,0.5,0.3,0.7c0.2,0.2,0.5,0.4,0.8,0.6c0.4,0.2,0.7,0.3,1.1,0.5c0.4,0.1,0.9,0.3,1.3,0.4
			s1.2,0.4,1.7,0.6c0.6,0.2,1.1,0.5,1.6,0.9c0.5,0.3,0.9,0.8,1.2,1.3c0.3,0.6,0.5,1.2,0.5,1.8v0.1c0,0.8-0.1,1.5-0.5,2.2
			c-0.3,0.6-0.7,1.1-1.2,1.5c-0.6,0.4-1.2,0.7-1.9,0.9C474.8,474.9,474,475.1,473.2,475.1z"/>
		<path class="st3" d="M488.2,475.1c-1.2,0-2.4-0.2-3.5-0.6c-1.2-0.4-2.3-1-3.2-1.8l1.6-2.5c0.8,0.6,1.7,1.1,2.6,1.5
			c0.8,0.3,1.7,0.5,2.6,0.5c0.6,0,1.3-0.1,1.8-0.5c0.4-0.3,0.7-0.7,0.6-1.2v-0.1c0-0.3-0.1-0.6-0.3-0.8c-0.2-0.2-0.5-0.4-0.8-0.6
			c-0.4-0.2-0.8-0.3-1.1-0.5l-1.3-0.4c-0.6-0.2-1.2-0.4-1.8-0.6c-0.6-0.2-1.1-0.5-1.6-0.9c-0.5-0.4-0.9-0.8-1.1-1.3
			c-0.3-0.6-0.5-1.2-0.5-1.9v-0.1c0-1.4,0.6-2.7,1.6-3.5c0.5-0.4,1.1-0.8,1.8-1c0.7-0.2,1.5-0.3,2.2-0.3c1,0,2,0.2,3,0.5
			c1,0.3,1.9,0.8,2.8,1.3l-1.4,2.6c-0.7-0.4-1.5-0.8-2.3-1.1c-0.7-0.3-1.4-0.4-2.2-0.4c-0.6,0-1.2,0.1-1.6,0.5
			c-0.4,0.3-0.6,0.7-0.6,1.1v0.1c0,0.3,0.1,0.5,0.3,0.7c0.2,0.2,0.5,0.4,0.8,0.6c0.4,0.2,0.7,0.3,1.1,0.5c0.4,0.1,0.9,0.3,1.3,0.4
			s1.2,0.4,1.7,0.6c0.6,0.2,1.1,0.5,1.6,0.9c0.5,0.3,0.9,0.8,1.2,1.3c0.3,0.6,0.5,1.2,0.5,1.8v0.1c0,0.8-0.1,1.5-0.5,2.2
			c-0.3,0.6-0.7,1.1-1.2,1.5c-0.6,0.4-1.2,0.7-1.9,0.9C489.8,474.9,489,475.1,488.2,475.1z"/>
		<path class="st3" d="M497.8,453.1h3.9v3.5h-3.9V453.1z M498,458.9h3.7v15.8H498V458.9z"/>
		<path class="st3" d="M513.4,479.6c-2.5,0-4.9-0.6-7.1-1.9l1.4-2.7c0.8,0.5,1.7,0.9,2.6,1.2c1,0.3,2,0.5,3,0.5
			c1.4,0.1,2.7-0.4,3.7-1.2c0.9-1,1.4-2.3,1.3-3.6v-1.2c-0.6,0.8-1.4,1.5-2.3,2.1c-1,0.6-2.1,0.8-3.3,0.8c-1.9,0-3.6-0.7-5-2
			c-0.7-0.7-1.2-1.5-1.6-2.3c-0.4-1-0.6-2-0.6-3.1V466c0-1.1,0.2-2.1,0.6-3.1c0.4-0.9,0.9-1.7,1.6-2.3c0.7-0.6,1.5-1.1,2.3-1.5
			c0.9-0.3,1.8-0.5,2.7-0.5c1.2,0,2.3,0.2,3.3,0.8c0.8,0.5,1.6,1.2,2.2,1.9v-2.4h3.6v12.6c0,2.7-0.7,4.7-2,6
			c-0.8,0.7-1.7,1.3-2.7,1.6C516,479.5,514.7,479.7,513.4,479.6z M513.7,470.5c0.6,0,1.2-0.1,1.8-0.3c0.6-0.2,1.1-0.5,1.5-0.9
			c0.4-0.4,0.8-0.9,1-1.4c0.3-0.5,0.4-1.1,0.4-1.8V466c0-0.6-0.1-1.2-0.4-1.8c-0.2-0.5-0.6-1-1-1.4c-0.4-0.4-0.9-0.7-1.5-0.9
			c-0.6-0.2-1.2-0.3-1.8-0.3c-0.6,0-1.2,0.1-1.8,0.3c-0.5,0.2-1,0.5-1.4,0.9c-0.4,0.4-0.8,0.8-1,1.4c-0.2,0.6-0.4,1.2-0.3,1.8v0.1
			c0,0.6,0.1,1.2,0.4,1.8c0.2,0.5,0.6,1,1,1.4c0.4,0.4,0.9,0.7,1.4,0.9C512.5,470.4,513.1,470.5,513.7,470.5z"/>
		<path class="st3" d="M533.7,475.1c-1.1,0-2.2-0.2-3.2-0.6c-1-0.4-1.8-1-2.6-1.7c-0.7-0.7-1.3-1.6-1.7-2.6
			c-0.4-1.1-0.6-2.2-0.6-3.4v-0.1c0-1.1,0.2-2.2,0.6-3.2c0.4-1,0.9-1.9,1.6-2.6c0.7-0.8,1.5-1.4,2.5-1.8c1-0.4,2-0.7,3.1-0.6
			c1.1,0,2.3,0.2,3.3,0.7c0.9,0.4,1.8,1.1,2.4,1.9c0.6,0.8,1.1,1.7,1.4,2.7c0.3,1.1,0.5,2.2,0.5,3.3c0,0.2,0,0.3,0,0.5s0,0.4,0,0.5
			h-11.7c0.1,1.2,0.7,2.2,1.5,3c0.9,0.7,1.9,1,3,1c0.8,0,1.6-0.1,2.3-0.5c0.7-0.4,1.4-0.8,2-1.4l2.1,1.9c-0.8,0.9-1.7,1.6-2.7,2.2
			C536.3,474.9,535,475.2,533.7,475.1z M537.3,465.7c-0.1-0.6-0.2-1.1-0.4-1.6c-0.2-0.5-0.5-0.9-0.8-1.3c-0.3-0.4-0.8-0.7-1.2-0.9
			c-0.5-0.2-1-0.3-1.6-0.3c-1.1,0-2.1,0.4-2.8,1.2c-0.8,0.8-1.2,1.9-1.3,3L537.3,465.7z"/>
		<path class="st3" d="M544.6,458.9h3.7v3.6c0.4-1.1,1.2-2.1,2.1-2.9c1-0.7,2.2-1.1,3.5-1v3.8h-0.2c-0.7,0-1.5,0.1-2.2,0.4
			c-0.6,0.3-1.2,0.7-1.7,1.2c-0.5,0.6-0.9,1.3-1.1,2c-0.3,0.9-0.4,1.8-0.4,2.8v6h-3.7L544.6,458.9z"/>
		<path class="st3" d="M274.2,489.8h3.7v17.7h11v3.3h-14.7L274.2,489.8z"/>
		<path class="st3" d="M299.6,511.1c-1.1,0-2.2-0.2-3.2-0.6c-2-0.8-3.5-2.3-4.3-4.3c-0.4-1.1-0.6-2.2-0.6-3.4v-0.1
			c0-1.1,0.2-2.2,0.6-3.2c0.4-1,0.9-1.9,1.6-2.6c0.7-0.7,1.5-1.4,2.5-1.8c1-0.4,2-0.7,3.1-0.6c1.1,0,2.3,0.2,3.3,0.7
			c0.9,0.4,1.7,1.1,2.4,1.9c0.6,0.8,1.1,1.7,1.4,2.7c0.3,1.1,0.5,2.2,0.5,3.3c0,0.2,0,0.3,0,0.5s0,0.4,0,0.5H295
			c0.2,2.3,2.2,4.1,4.6,4c0.8,0,1.6-0.1,2.3-0.5c0.7-0.4,1.4-0.8,2-1.4l2.1,1.9c-0.8,0.9-1.7,1.6-2.7,2.2
			C302.1,510.9,300.9,511.2,299.6,511.1z M303.2,501.8c-0.1-0.6-0.2-1.1-0.4-1.6c-0.2-0.5-0.5-0.9-0.8-1.3c-0.3-0.4-0.8-0.7-1.2-0.9
			c-0.5-0.2-1-0.3-1.6-0.3c-1,0-2.1,0.4-2.8,1.2c-0.8,0.8-1.2,1.9-1.3,3L303.2,501.8z"/>
		<path class="st3" d="M319.4,511.1c-1.1,0-2.3-0.3-3.2-0.8c-0.8-0.5-1.6-1.2-2.2-1.9v2.5h-3.7v-21.9h3.7v8.7
			c0.6-0.8,1.3-1.6,2.2-2.1c1-0.6,2.1-0.9,3.2-0.9c0.9,0,1.9,0.2,2.7,0.5c0.9,0.4,1.7,0.9,2.4,1.6c0.7,0.7,1.3,1.6,1.7,2.6
			c0.4,1.1,0.7,2.3,0.6,3.5v0.1c0,1.2-0.2,2.4-0.6,3.5c-0.4,1-0.9,1.8-1.6,2.6c-0.7,0.7-1.5,1.2-2.4,1.6
			C321.3,511,320.4,511.1,319.4,511.1z M318.6,508c0.6,0,1.2-0.1,1.8-0.4c0.5-0.2,1-0.6,1.4-1c0.4-0.5,0.8-1,1-1.6
			c0.2-0.7,0.4-1.4,0.4-2.1v-0.1c0-0.7-0.1-1.4-0.4-2.1c-0.2-0.6-0.6-1.1-1-1.6c-0.8-0.9-2-1.4-3.2-1.4c-0.6,0-1.2,0.1-1.8,0.4
			c-0.6,0.2-1.1,0.6-1.5,1c-0.4,0.5-0.8,1-1,1.6c-0.3,0.7-0.4,1.4-0.4,2.1v0.1c0,0.7,0.1,1.4,0.4,2.1c0.2,0.6,0.6,1.1,1,1.6
			C316.2,507.4,317.4,507.9,318.6,508L318.6,508z"/>
		<path class="st3" d="M337.8,511.1c-1.1,0-2.2-0.2-3.2-0.6c-2-0.8-3.5-2.3-4.3-4.3c-0.4-1.1-0.6-2.2-0.6-3.4v-0.1
			c0-1.1,0.2-2.2,0.6-3.2c0.4-1,0.9-1.9,1.6-2.6c0.7-0.7,1.5-1.4,2.5-1.8c1-0.4,2-0.7,3.1-0.6c1.1,0,2.3,0.2,3.3,0.7
			c0.9,0.4,1.7,1.1,2.3,1.9c0.6,0.8,1.1,1.7,1.4,2.7c0.3,1.1,0.5,2.2,0.5,3.3c0,0.2,0,0.3,0,0.5s0,0.4,0,0.5h-11.7
			c0.2,2.3,2.2,4.1,4.6,4c0.8,0,1.6-0.1,2.3-0.5c0.7-0.4,1.4-0.8,2-1.4l2.1,1.9c-0.7,0.9-1.7,1.7-2.7,2.2
			C340.4,510.9,339.1,511.2,337.8,511.1z M341.4,501.8c-0.1-0.6-0.2-1.1-0.4-1.6c-0.2-0.5-0.5-0.9-0.8-1.3c-0.3-0.4-0.8-0.7-1.2-0.9
			c-0.5-0.2-1-0.3-1.6-0.3c-1,0-2.1,0.4-2.8,1.2c-0.8,0.8-1.2,1.9-1.3,3L341.4,501.8z"/>
		<path class="st3" d="M348.6,494.9h3.7v2.5c0.3-0.4,0.5-0.7,0.9-1.1c0.3-0.3,0.7-0.6,1.1-0.9c0.4-0.3,0.9-0.5,1.3-0.6
			c0.5-0.2,1.1-0.2,1.7-0.2c1.6-0.1,3.1,0.5,4.2,1.6c1,1.2,1.6,2.8,1.5,4.4v10.1h-3.7v-9c0.1-1-0.2-2-0.9-2.9
			c-0.6-0.7-1.6-1.1-2.5-1c-1,0-1.9,0.3-2.5,1c-0.7,0.8-1.1,1.8-1,2.9v8.9h-3.6V494.9z"/>
		<path class="st3" d="M372.7,511.1c-1.2,0-2.4-0.2-3.5-0.6c-1.2-0.4-2.3-1-3.2-1.8l1.6-2.5c0.8,0.6,1.7,1.1,2.6,1.4
			c0.8,0.3,1.7,0.5,2.6,0.5c0.6,0,1.3-0.1,1.8-0.5c0.4-0.3,0.7-0.7,0.6-1.2v-0.1c0-0.3-0.1-0.6-0.3-0.8c-0.2-0.2-0.5-0.4-0.8-0.6
			c-0.4-0.2-0.8-0.3-1.1-0.5l-1.3-0.4c-0.6-0.2-1.2-0.4-1.8-0.6c-0.6-0.2-1.1-0.5-1.6-0.9c-0.5-0.4-0.9-0.8-1.1-1.3
			c-0.3-0.6-0.5-1.2-0.5-1.9v-0.1c0-1.4,0.6-2.7,1.6-3.5c0.5-0.4,1.1-0.8,1.8-1c0.7-0.2,1.5-0.3,2.2-0.3c1,0,2,0.2,3,0.5
			c1,0.3,1.9,0.8,2.8,1.3l-1.4,2.6c-0.7-0.4-1.5-0.8-2.3-1.1c-0.7-0.3-1.4-0.4-2.2-0.4c-0.6,0-1.2,0.1-1.6,0.5
			c-0.4,0.3-0.6,0.7-0.6,1.1v0.1c0,0.3,0.1,0.5,0.3,0.7c0.2,0.2,0.5,0.4,0.8,0.6c0.4,0.2,0.7,0.3,1.1,0.5c0.4,0.1,0.9,0.3,1.3,0.4
			s1.2,0.4,1.7,0.6c0.6,0.2,1.1,0.5,1.6,0.9c0.5,0.3,0.9,0.8,1.2,1.3c0.3,0.6,0.5,1.2,0.5,1.8v0.1c0,0.8-0.1,1.5-0.5,2.2
			c-0.3,0.6-0.7,1.1-1.2,1.5c-0.6,0.4-1.2,0.7-1.9,0.9C374.2,510.9,373.5,511.1,372.7,511.1z"/>
		<path class="st3" d="M382.2,494.9h3.7v2.4c0.3-0.4,0.5-0.7,0.8-1c0.3-0.3,0.6-0.6,1-0.9c0.4-0.3,0.8-0.5,1.3-0.6
			c0.5-0.2,1.1-0.2,1.6-0.2c2-0.1,3.8,1,4.7,2.8c0.6-0.8,1.4-1.5,2.3-2c0.9-0.5,2-0.8,3.1-0.8c1.5-0.1,3,0.5,4.1,1.6
			c1.1,1.2,1.6,2.9,1.5,4.5v10.1h-3.7v-9c0.1-1-0.2-2-0.8-2.9c-0.6-0.7-1.5-1-2.4-1c-0.9,0-1.8,0.3-2.4,1c-0.7,0.8-1,1.9-0.9,2.9
			v8.9h-3.7v-9c0.1-1-0.2-2-0.8-2.8c-0.6-0.7-1.5-1-2.4-1c-0.9,0-1.8,0.4-2.5,1c-0.7,0.8-1,1.9-0.9,2.9v8.9h-3.6V494.9z"/>
		<path class="st3" d="M410.8,489.1h3.9v3.5h-3.9V489.1z M411,494.9h3.7v15.8H411V494.9z"/>
		<path class="st3" d="M424.7,511c-0.6,0-1.2-0.1-1.8-0.2c-0.5-0.1-1-0.4-1.5-0.8c-0.4-0.4-0.8-0.9-1-1.4c-0.3-0.7-0.4-1.5-0.4-2.2
			v-8.3h-2v-3.1h2v-4.4h3.7v4.4h4.3v3.1h-4.3v7.8c0,0.6,0.1,1.1,0.5,1.5c0.4,0.3,0.9,0.5,1.4,0.5c0.8,0,1.6-0.2,2.2-0.5v3
			c-0.5,0.3-1,0.5-1.5,0.6C425.9,511,425.3,511.1,424.7,511z"/>
		<path class="st3" d="M437,511c-0.6,0-1.2-0.1-1.8-0.2c-0.5-0.1-1-0.4-1.5-0.8c-0.4-0.4-0.8-0.9-1-1.4c-0.2-0.7-0.4-1.5-0.3-2.2
			v-8.3h-2v-3.1h2v-4.4h3.7v4.4h4.3v3.1H436v7.8c0,0.6,0.1,1.1,0.5,1.5c0.4,0.3,0.9,0.5,1.4,0.5c0.8,0,1.6-0.2,2.2-0.5v3
			c-0.5,0.3-1,0.5-1.5,0.6C438.2,511,437.6,511.1,437,511z"/>
		<path class="st3" d="M451.2,511.1c-1.1,0-2.2-0.2-3.2-0.6c-2-0.8-3.5-2.3-4.3-4.3c-0.4-1.1-0.6-2.2-0.6-3.4v-0.1
			c0-1.1,0.2-2.2,0.6-3.2c0.4-1,0.9-1.9,1.6-2.6c0.7-0.7,1.5-1.4,2.4-1.8c2.1-0.9,4.4-0.9,6.4,0c0.9,0.4,1.7,1.1,2.4,1.9
			c0.6,0.8,1.1,1.7,1.4,2.7c0.3,1.1,0.5,2.2,0.5,3.3c0,0.2,0,0.3,0,0.5s0,0.4,0,0.5h-11.7c0.2,2.3,2.2,4.1,4.6,4
			c0.8,0,1.6-0.1,2.3-0.5c0.7-0.4,1.4-0.8,2-1.4l2.1,1.9c-0.7,0.9-1.7,1.7-2.7,2.2C453.8,510.9,452.5,511.2,451.2,511.1z
			 M454.8,501.8c-0.1-0.6-0.2-1.1-0.4-1.6c-0.2-0.5-0.5-0.9-0.8-1.3c-0.3-0.4-0.8-0.7-1.2-0.9c-0.5-0.2-1-0.3-1.6-0.3
			c-1.1,0-2.1,0.4-2.8,1.2c-0.8,0.8-1.2,1.9-1.3,3L454.8,501.8z"/>
		<path class="st3" d="M462.3,488.9h3.7v21.9h-3.7V488.9z"/>
	</g>
	<circle class="st3" cx="370.1" cy="387.4" r="41.8"/>
	<g>
		<path class="st4" d="M397.3,402.1c-1.2-1.4-2.9-2.2-4.7-2.2c-0.7,0-1.3,0.1-2,0.3l-11.6,3.9c-0.8-1.7-2.6-2.9-4.5-2.9h-3.1
			c0.4-0.1,0.8-0.3,1.1-0.5c0.9-0.7,1.3-1.7,1.2-2.8c-0.1-0.9,0.2-1.9,0.8-2.6l1.7-1.7c0.9,0.3,1.8,0.4,2.7,0.4
			c3.9,0,8.8-2.1,12.3-5.6c2.2-2,3.6-4.7,3.8-7.7c0.1-2.5-0.9-5-2.8-6.8c-3.6-3.6-8.6-3.7-12.9-0.3c-0.5-2.1-1.8-4-3.6-5.2
			c-2-1.3-4.5-1.6-6.8-1c-0.3,0.1-0.6,0.1-1,0.2c0.5-2.1,2.1-3.6,4.7-4.4c0.3-0.1,0.5-0.5,0.4-0.8c-0.1-0.3-0.4-0.4-0.7-0.4
			c-1,0.3-2,0.7-2.8,1.3c0.1-1.2-0.3-2.4-1.2-3.3c-1.9-1.9-6-1.9-6.2-1.9c-0.3,0-0.6,0.3-0.6,0.6c0,0.2,0,4.2,1.9,6.2
			c0.8,0.8,1.9,1.2,3.1,1.2c0.2,0,0.4,0,0.7,0c-0.2,0.5-0.4,1-0.5,1.6c-0.4,0-0.9-0.1-1.3-0.2c-2.5-0.7-5.2-0.3-7.3,1.3
			c-2.3,1.9-3.6,4.7-3.5,7.7c0,4.8,1.6,9,4.3,11.5c1.6,1.5,3.8,2.4,6,2.4h0.8c1-0.1,1.9-0.1,2.9,0c1.3,0.1,2.7-0.1,3.9-0.6v0.1
			l-1.7,1.7c-0.7,0.7-1.6,1-2.6,0.8c-1.7-0.2-3.3,1-3.5,2.7c-0.2,1.7,1,3.3,2.7,3.5c0.1,0.9,0.6,1.6,1.3,2.1c0.3,0.2,0.6,0.4,1,0.5
			H369c-1.4,0-2.7-0.4-3.9-1c-1.4-0.8-3-1.2-4.6-1.2H353v-0.2c0-1.4-1.2-2.6-2.6-2.6H345c-1.4,0-2.6,1.2-2.6,2.6v14.4
			c0,1.4,1.2,2.6,2.6,2.6h5.4c1.4,0,2.5-1.1,2.6-2.5l16.3,3c0.4,0.1,0.8,0.1,1.3,0.1c1,0,2-0.2,2.9-0.6l23-10.3
			c1.2-0.5,1.7-1.9,1.2-3.1C397.6,402.5,397.5,402.3,397.3,402.1L397.3,402.1z M351.8,413.4c0,0.7-0.6,1.4-1.4,1.4H345
			c-0.7,0-1.4-0.6-1.4-1.4v-14.5c0-0.7,0.6-1.3,1.4-1.4h5.4c0.7,0,1.3,0.6,1.4,1.4L351.8,413.4z M379.4,375.4
			c4.1-3.6,8.7-3.8,12-0.5c1.6,1.5,2.5,3.6,2.4,5.8c-0.2,2.6-1.5,5.1-3.5,6.9c-3.8,3.8-9.3,5.9-13,5.1l1.4-1.4c1-1,1.1-2.5,0.2-3.6
			c-0.5-0.6-1.2-0.9-1.9-1c-0.7,0-1.5,0.2-2,0.8l-1.4,1.4c0,0,0-0.1,0-0.1c-0.7-3.7,1.5-9.2,5.1-12.9
			C378.9,375.7,379.1,375.5,379.4,375.4L379.4,375.4z M364.3,364.1c-1.1-1.1-1.4-3.5-1.5-4.6c1.1,0.1,3.5,0.4,4.6,1.5s0.8,3,0.6,3.7
			C367.3,364.9,365.5,365.3,364.3,364.1z M372.3,388.6c-1.1,0.5-2.3,0.7-3.5,0.6c-1-0.1-2.1-0.1-3.1,0c-2.1,0.2-4.3-0.6-5.8-2
			c-2.5-2.3-3.9-6.2-3.9-10.6c-0.1-2.6,1-5.1,3-6.7c1.8-1.3,4-1.7,6.1-1.1c0.5,0.1,1,0.2,1.5,0.3c0,0.5,0,1,0,1.5
			c0,0.3,0.3,0.6,0.6,0.6h0c0.3,0,0.6-0.3,0.6-0.7c0-0.5,0-1,0-1.4c0.5,0,1-0.1,1.5-0.2c1.9-0.6,4-0.3,5.7,0.8
			c1.7,1.2,2.9,3,3.2,5.1c-0.1,0.1-0.3,0.3-0.4,0.4C374,378.9,371.7,384.5,372.3,388.6L372.3,388.6z M369.6,399.8
			c-0.5-0.4-0.8-1-0.8-1.7c0-0.2,0-0.4-0.2-0.5c-0.1-0.1-0.3-0.2-0.5-0.2h-0.1c-0.7,0.1-1.3-0.2-1.7-0.8c-0.6-0.8-0.4-2,0.5-2.6
			c0.4-0.3,0.8-0.4,1.2-0.3c1.3,0.2,2.7-0.3,3.6-1.2l2-2l0,0l2.2-2.2c0.3-0.3,0.6-0.4,1-0.4c0.4,0,0.8,0.2,1,0.5
			c0.4,0.6,0.4,1.4-0.1,1.9l-4.1,4.1c-0.9,1-1.4,2.3-1.2,3.6c0.1,0.6-0.2,1.3-0.7,1.7C371.1,400.2,370.2,400.2,369.6,399.8
			L369.6,399.8z M396.6,403.8c-0.1,0.3-0.3,0.6-0.6,0.7l-23,10.3c-1.1,0.5-2.3,0.6-3.4,0.4l-16.5-3v-12h7.5c1.4,0,2.7,0.4,3.9,1.1
			c1.4,0.8,3,1.2,4.6,1.2h5.5c1.6,0,3.1,1,3.6,2.6c0.1,0.4,0.2,0.8,0.2,1.2c0,0.7-0.6,1.2-1.2,1.2h-13c-0.4,0-0.7,0.2-0.7,0.6
			c0,0.4,0.2,0.7,0.6,0.7c0.1,0,0.1,0,0.2,0h13c0.7,0,1.3-0.3,1.8-0.7c0.5-0.5,0.8-1.1,0.8-1.8c0-0.3,0-0.7-0.1-1l11.6-3.9
			c1.9-0.6,4-0.1,5.2,1.5C396.5,403.2,396.6,403.5,396.6,403.8L396.6,403.8z"/>
		<path class="st4" d="M370.6,417.1c-0.5,0-0.9,0-1.4-0.1l-15.8-2.9c-0.3,1.4-1.6,2.4-3,2.4H345c-1.7,0-3.1-1.4-3.1-3.1v-14.4
			c0-1.7,1.4-3.1,3.1-3.1h5.4c1.6,0,2.9,1.2,3.1,2.8h7c1.7,0,3.4,0.4,4.8,1.3c0.8,0.4,1.6,0.7,2.5,0.9c-0.4-0.4-0.7-1-0.8-1.6
			c-0.8-0.2-1.5-0.6-2-1.3c-0.6-0.8-0.9-1.7-0.8-2.7c0.2-2,2-3.4,4-3.2c0.8,0.1,1.6-0.2,2.2-0.7l0.5-0.5c-0.8,0.1-1.6,0.2-2.4,0.1
			c-0.9-0.1-1.9-0.1-2.8,0l-0.8,0c-2.4,0-4.6-0.9-6.3-2.6c-2.8-2.6-4.5-6.9-4.5-11.9c-0.1-3.1,1.3-6.1,3.7-8.1
			c2.2-1.7,5.1-2.2,7.7-1.4c0.2,0.1,0.5,0.1,0.8,0.2c0-0.2,0.1-0.4,0.2-0.5c-1.2,0-2.5-0.4-3.4-1.3c-2-2-2.1-6.1-2.1-6.5
			c0-0.6,0.5-1.1,1.1-1.1c0,0,0,0,0,0c0.5,0,4.5,0.1,6.5,2.1c0.7,0.8,1.2,1.7,1.3,2.8c0.7-0.4,1.4-0.7,2.2-0.9
			c0.6-0.1,1.1,0.2,1.3,0.7c0.1,0.3,0.1,0.6,0,0.9c-0.1,0.3-0.3,0.5-0.6,0.6c-2.1,0.6-3.5,1.7-4.1,3.2c0,0,0.1,0,0.1,0
			c2.4-0.7,5-0.3,7.2,1c1.7,1.2,3,2.9,3.7,4.8c4.5-3.1,9.4-2.8,13,0.8c1.9,1.9,3,4.5,2.9,7.1c-0.3,3.1-1.7,6-4,8.1
			c-3.5,3.5-8.4,5.8-12.6,5.8c-0.9,0-1.7-0.1-2.5-0.3l-1.5,1.5c-0.5,0.6-0.8,1.4-0.7,2.2c0.1,1.1-0.3,2.1-1,2.9h1.3c0,0,0,0,0,0
			c2,0,3.8,1.1,4.8,2.7l11.2-3.8c0.7-0.2,1.4-0.3,2.1-0.3c0,0,0,0,0,0c1.9,0,3.6,0.8,4.9,2.2h0l0.1,0.2c0.2,0.2,0.3,0.4,0.4,0.7
			c0.3,0.7,0.3,1.4,0.1,2.1c-0.3,0.7-0.8,1.3-1.5,1.6l-23,10.3C372.7,416.9,371.7,417.1,370.6,417.1z M352.6,412.9l16.9,3.1
			c0.4,0.1,0.8,0.1,1.2,0.1c0.9,0,1.8-0.2,2.7-0.6l23-10.3c0.4-0.2,0.8-0.6,1-1c0.2-0.5,0.2-0.9,0-1.4c0-0.1-0.1-0.2-0.2-0.3
			l-0.1-0.1c-1.1-1.3-2.6-2-4.3-2c-0.6,0-1.2,0.1-1.8,0.3l-12,4l-0.2-0.4c-0.7-1.6-2.3-2.6-4.1-2.6c0,0,0,0,0,0h-1.1l0.3,0.1H369
			c-0.4,0-0.7,0-1.1-0.1h-1l0.4-0.1c-0.9-0.2-1.7-0.5-2.5-1c-1.3-0.8-2.8-1.1-4.3-1.2h-8v-0.7c0-1.2-1-2.1-2.1-2.1H345
			c-1.2,0-2.1,1-2.1,2.1v14.4c0,1.2,1,2.1,2.1,2.1h5.4c1.1,0,2-0.9,2.1-2L352.6,412.9z M367.8,393c-1.3,0-2.4,1-2.6,2.3
			c-0.1,0.7,0.1,1.4,0.5,1.9c0.4,0.5,1.1,0.9,1.8,1l0.4,0l0,0.4c0.1,0.7,0.5,1.4,1.1,1.8c0.3,0.2,0.5,0.3,0.8,0.4l0.5,0.1l0.9-0.2
			c0.3-0.1,0.7-0.2,1-0.5c0.7-0.5,1.1-1.4,1-2.3c-0.1-1.1,0.2-2.2,1-3l1.9-1.9l0.3,0.1c0.8,0.3,1.6,0.4,2.5,0.4
			c3.9,0,8.6-2.2,11.9-5.5c2.1-1.9,3.4-4.6,3.7-7.4c0.1-2.4-0.9-4.7-2.6-6.4c-3.4-3.4-8.1-3.5-12.3-0.3l-0.6,0.5l-0.2-0.8
			c-0.5-2-1.7-3.8-3.4-4.9c-1.9-1.2-4.2-1.5-6.3-0.9c-0.4,0.1-0.7,0.2-1,0.2l-0.7,0.1l0.2-0.7c0.6-2.3,2.3-3.9,5-4.7c0,0,0,0,0-0.1
			c0,0,0-0.1,0-0.1c0-0.1-0.1-0.1-0.2-0.1c-0.9,0.3-1.8,0.7-2.6,1.2l-0.9,0.6l0.1-1c0.1-1.1-0.3-2.1-1-2.9c-1.4-1.4-4.3-1.8-5.8-1.8
			c0,0,0,0,0,0c-0.1,0-0.1,0.1-0.1,0.1c0,0.2,0,4,1.8,5.8c0.7,0.7,1.7,1.1,2.7,1c0.3,0,0.5,0,0.7,0l0.8-0.1l-0.3,0.8
			c-0.2,0.5-0.4,0.9-0.5,1.4l-0.1,0.4l-0.4,0c-0.5,0-1-0.1-1.4-0.2c-2.3-0.7-4.9-0.2-6.8,1.2c-2.2,1.8-3.4,4.5-3.3,7.3
			c0,4.7,1.5,8.8,4.1,11.2c1.5,1.5,3.5,2.3,5.7,2.3h0.7c1-0.1,2-0.1,3,0c1.3,0.1,2.5-0.1,3.7-0.5l0.7-0.3v1l-1.8,1.8
			c-0.8,0.8-1.9,1.1-3,1C368,393,367.9,393,367.8,393z M370.6,415.9c-0.4,0-0.7,0-1.1-0.1l-16.9-3.1v-12.9h8c1.5,0,2.9,0.4,4.2,1.1
			c1.3,0.7,2.8,1.1,4.3,1.1h5.5c1.8,0,3.5,1.2,4.1,2.9c0.2,0.4,0.2,0.9,0.2,1.4c0,1-0.8,1.7-1.7,1.7h-13c-0.1,0-0.2,0.1-0.2,0.1
			c0,0.1,0,0.1,0.1,0.2l13.1,0c0,0,0,0,0,0c0.5,0,1-0.2,1.4-0.6c0.4-0.4,0.6-0.9,0.6-1.4c0-0.3,0-0.6-0.1-0.9l-0.1-0.4l12-4.1
			c2.1-0.7,4.4-0.1,5.8,1.6c0.2,0.2,0.3,0.5,0.3,0.8l0.1,0l0,0.5c-0.1,0.5-0.4,0.9-0.9,1.1l-23,10.3
			C372.4,415.7,371.5,415.9,370.6,415.9z M353.5,411.9l16.1,2.9c1.1,0.2,2.1,0.1,3.1-0.4l23-10.3c0.1,0,0.1-0.1,0.2-0.1l0.1-0.2
			c0-0.2,0-0.3-0.1-0.5c-1.1-1.4-3-1.9-4.7-1.3l-11.2,3.8c0,0.2,0,0.4,0.1,0.7c0,0.8-0.3,1.6-0.9,2.2c-0.6,0.6-1.3,0.9-2.1,0.9h-13
			c0,0-0.1,0-0.2,0c-0.6-0.1-1.1-0.7-1-1.3c0-0.3,0.2-0.6,0.4-0.8c0.2-0.2,0.5-0.3,0.8-0.2l13,0c0.4,0,0.7-0.3,0.8-0.8
			c0-0.4-0.1-0.7-0.2-1c-0.5-1.3-1.7-2.2-3.1-2.2H369c-1.7,0-3.4-0.4-4.8-1.3c-1.1-0.7-2.4-1-3.7-1h-7V411.9z M345,415.2
			c-1,0-1.8-0.8-1.8-1.9v-14.5c0-1,0.8-1.8,1.8-1.8h5.4c1,0,1.8,0.8,1.9,1.8l0,14.5c0,1-0.8,1.9-1.8,1.9H345z M350.4,398H345
			c-0.5,0-0.8,0.4-0.8,0.9v14.5c0,0.5,0.4,0.9,0.9,0.9h5.4c0.5,0,0.8-0.4,0.8-0.9l0-14.5C351.3,398.4,350.9,398,350.4,398z
			 M370.7,400.6c-0.3,0-0.5,0-0.8-0.1l0,0.1l-0.6-0.3c-0.7-0.5-1-1.3-1-2.1l0-0.1c0,0-0.1,0-0.1,0c-0.8,0.1-1.6-0.3-2.1-1
			c-0.4-0.5-0.5-1.1-0.4-1.8c0.1-0.6,0.5-1.2,1-1.5c0.5-0.3,1-0.5,1.6-0.4c1.2,0.2,2.4-0.2,3.2-1.1l4.2-4.2c0.4-0.4,0.9-0.6,1.4-0.5
			c0.5,0,1,0.3,1.4,0.7c0.6,0.8,0.5,1.9-0.2,2.6l-4.1,4.1c-0.8,0.8-1.2,2-1.1,3.2c0.1,0.8-0.2,1.6-0.9,2.1
			C371.7,400.5,371.2,400.6,370.7,400.6z M369.6,399.1l0.3,0.2c0.5,0.4,1.1,0.4,1.6,0c0.4-0.3,0.6-0.7,0.5-1.2
			c-0.2-1.5,0.3-2.9,1.3-4l4.1-4.1c0.3-0.3,0.4-0.9,0.1-1.2c-0.1-0.2-0.4-0.3-0.6-0.3c0,0,0,0,0,0c-0.2,0-0.4,0.1-0.6,0.3l-4.2,4.2
			c-1.1,1-2.5,1.5-4,1.3c-0.3,0-0.6,0.1-0.9,0.2c-0.3,0.2-0.5,0.5-0.6,0.9s0,0.7,0.2,1c0.3,0.4,0.7,0.6,1.2,0.6l0.1,0
			c0.3,0,0.6,0.1,0.8,0.3c0.2,0.2,0.4,0.6,0.3,0.9C369.3,398.5,369.4,398.9,369.6,399.1z M378.9,393.3c-0.6,0-1.2-0.1-1.7-0.2
			l-0.9-0.2l2-2c0.8-0.8,0.9-2.1,0.2-2.9c-0.4-0.5-0.9-0.8-1.6-0.8c-0.6,0-1.2,0.2-1.6,0.6l-2.3,2.3v-1.2c0,0,0-0.1,0-0.1l-0.6,0.2
			c-1.2,0.5-2.5,0.7-3.8,0.6c-1-0.1-2-0.1-3,0c-2.3,0.2-4.5-0.6-6.2-2.2c-2.6-2.4-4.1-6.4-4.1-11c-0.1-2.7,1.1-5.4,3.2-7.1
			c1.9-1.4,4.4-1.9,6.6-1.2c0.4,0.1,0.9,0.2,1.4,0.2l0.5,0l0,0.5c0,0.5,0,1,0,1.4c0,0.1,0.1,0.1,0.1,0.1h0c0.1,0,0.1-0.1,0.1-0.1
			c0-0.5,0-1,0-1.5l0-0.4l0.4,0c0.5,0,0.9-0.1,1.4-0.2c2.1-0.6,4.3-0.3,6.1,0.9c1.9,1.3,3.1,3.2,3.5,5.5l0,0.3l-0.3,0.3
			c-0.1,0.1-0.2,0.2-0.3,0.3c-3.6,3.6-5.8,8.7-5.5,12.7h0.2c-0.3-3.8,1.9-9,5.4-12.5c0.2-0.2,0.4-0.4,0.7-0.6l0.4-0.3l0,0
			c4.2-3.5,8.9-3.6,12.3-0.1c1.7,1.6,2.6,3.8,2.5,6.2c-0.3,2.8-1.5,5.4-3.6,7.2C387.4,391.2,382.6,393.3,378.9,393.3z M378.3,392.3
			c3.5,0.2,8.3-1.8,11.6-5.1c1.9-1.7,3.1-4,3.3-6.6c0.1-2-0.7-4-2.2-5.4c-3.1-3.2-7.5-3-11.3,0.5l-0.4,0.3l0,0
			c-0.1,0.1-0.2,0.2-0.3,0.3c-3.3,3.3-5.3,8-5.1,11.6l0.7-0.7c0.6-0.6,1.5-1,2.4-0.9c0.9,0.1,1.7,0.5,2.3,1.2c1,1.3,0.9,3.1-0.3,4.3
			L378.3,392.3z M367.1,388.6c0.5,0,1.1,0,1.6,0.1c1,0.1,2,0,2.9-0.4c-0.4-4.2,1.9-9.8,5.7-13.6c0.1-0.1,0.2-0.2,0.3-0.2
			c-0.4-1.8-1.4-3.5-3-4.5c-1.6-1-3.5-1.3-5.3-0.7c-0.4,0.1-0.8,0.2-1.2,0.2c0,0.3,0,0.6,0,0.9c0,0.6-0.4,1.2-1.1,1.2c0,0,0,0,0,0
			c-0.7,0-1.2-0.5-1.2-1.1c0-0.4,0-0.7,0-1.1c-0.4-0.1-0.7-0.1-1.1-0.2c-2-0.6-4.1-0.2-5.7,1c-1.8,1.5-2.9,3.9-2.8,6.3
			c0,4.3,1.4,8,3.7,10.2c1.5,1.4,3.4,2.1,5.4,1.9C366.1,388.7,366.6,388.6,367.1,388.6z M366.5,365.4c-0.8,0-1.8-0.2-2.5-0.9l0,0
			c-1.2-1.2-1.6-3.3-1.7-4.9l0-0.6l0.6,0c1.3,0.1,3.7,0.4,4.9,1.7c1.4,1.4,0.8,3.7,0.7,4.2l-0.1,0.3l-0.3,0.1
			C367.7,365.3,367.2,365.4,366.5,365.4z M364.7,363.8c0.8,0.8,2.2,0.7,2.9,0.5c0.1-0.6,0.3-2-0.5-2.9c-0.9-0.9-2.6-1.2-3.7-1.3
			C363.5,361.3,363.8,362.9,364.7,363.8L364.7,363.8z"/>
	</g>
	<g>
		<path class="st4" d="M369.6,372c-1.5,1.1-3.5,1.1-4.9,0c-0.3-0.2-0.7-0.1-0.9,0.2c-0.2,0.3-0.1,0.7,0.2,0.9c0,0,0,0,0,0
			c1.9,1.3,4.4,1.3,6.3,0c0.3-0.2,0.4-0.6,0.2-0.9C370.3,371.9,369.9,371.8,369.6,372C369.6,372,369.6,372,369.6,372L369.6,372z"/>
		<path class="st4" d="M367.1,374.5c-1.2,0-2.4-0.4-3.4-1.1c-0.5-0.3-0.7-1-0.3-1.6c0.3-0.5,1-0.7,1.6-0.4c1.3,0.9,3.1,0.9,4.4,0
			l0,0c0.3-0.2,0.6-0.2,0.9-0.1c0.3,0.1,0.5,0.2,0.7,0.5c0.3,0.5,0.2,1.2-0.3,1.6C369.5,374.2,368.3,374.5,367.1,374.5z
			 M364.3,372.4c0,0-0.1,0-0.1,0.1c0,0.1,0,0.1,0,0.2c1.7,1.2,4,1.2,5.7,0c0.1-0.1,0.1-0.1,0.1-0.2c0-0.1-0.1-0.1-0.2,0
			C368.2,373.6,366,373.5,364.3,372.4C364.4,372.4,364.4,372.4,364.3,372.4z"/>
	</g>
	<path class="st5" d="M581.1,601.4h-422c-13.6,0-22.1,12.3-15.3,22.2l60.1,87.2c3.2,4.6,9,7.4,15.3,7.4H521c6.3,0,12.2-2.8,15.3-7.4
		l60.1-87.2C603.2,613.8,594.7,601.4,581.1,601.4z"/>
	<g class="st2">
		<path class="st3" d="M305.5,672.8h-6.7v-3.4h17v3.4h-6.7v17.6h-3.7V672.8z"/>
		<path class="st3" d="M319.4,668.7h3.9v3.5h-3.9V668.7z M319.6,674.6h3.7v15.8h-3.7V674.6z"/>
		<path class="st3" d="M335.2,690.8c-1.1,0-2.2-0.2-3.2-0.6c-1-0.4-1.9-1-2.6-1.7c-0.7-0.7-1.3-1.6-1.7-2.6s-0.6-2.1-0.6-3.3v-0.1
			c0-1.1,0.2-2.2,0.6-3.2c0.4-1,0.9-1.9,1.6-2.6s1.5-1.3,2.4-1.8c0.9-0.4,2-0.6,3.1-0.6c1.3,0,2.4,0.2,3.3,0.7
			c0.9,0.5,1.7,1.1,2.4,1.9s1.1,1.7,1.4,2.7c0.3,1,0.5,2.1,0.5,3.3c0,0.2,0,0.3,0,0.5c0,0.2,0,0.3,0,0.5h-11.6
			c0.2,1.3,0.7,2.3,1.5,3c0.8,0.7,1.8,1,3,1c0.9,0,1.7-0.2,2.3-0.5s1.3-0.8,2-1.4l2.1,1.9c-0.8,0.9-1.7,1.6-2.7,2.2
			C337.9,690.5,336.6,690.8,335.2,690.8z M338.8,681.4c-0.1-0.6-0.2-1.1-0.4-1.6c-0.2-0.5-0.5-0.9-0.8-1.3c-0.3-0.4-0.7-0.7-1.2-0.9
			c-0.5-0.2-1-0.3-1.6-0.3c-1.1,0-2,0.4-2.8,1.2c-0.7,0.8-1.2,1.8-1.3,3H338.8z"/>
		<path class="st3" d="M346,674.6h3.7v3.6c0.5-1.2,1.2-2.2,2.1-2.9c0.9-0.7,2.1-1,3.5-1v3.8h-0.2c-0.8,0-1.5,0.1-2.2,0.4
			c-0.7,0.3-1.2,0.7-1.7,1.2c-0.5,0.5-0.9,1.2-1.1,2c-0.3,0.8-0.4,1.7-0.4,2.7v6H346V674.6z"/>
		<path class="st3" d="M359.2,677.7h-2v-3h2v-1.1c0-1.8,0.4-3.1,1.3-3.9c0.8-0.8,2-1.3,3.6-1.3c0.6,0,1.2,0,1.6,0.1s0.9,0.2,1.3,0.3
			v3.1c-0.4-0.1-0.7-0.2-1-0.3c-0.3-0.1-0.7-0.1-1.1-0.1c-1.4,0-2.1,0.8-2.1,2.4v0.9h4.2v3h-4.1v12.7h-3.7V677.7z"/>
		<path class="st3" d="M375.2,690.8c-1.8,0-3.2-0.5-4.2-1.7c-1-1.1-1.5-2.6-1.5-4.4v-10.1h3.7v9c0,1.2,0.3,2.2,0.9,2.9
			c0.6,0.7,1.4,1,2.5,1c1,0,1.9-0.3,2.6-1c0.7-0.7,1-1.7,1-2.9v-8.9h3.7v15.8h-3.7v-2.5c-0.5,0.8-1.2,1.4-1.9,2
			C377.4,690.5,376.4,690.8,375.2,690.8z"/>
		<path class="st3" d="M393.7,690.7c-0.7,0-1.3-0.1-1.8-0.2c-0.6-0.2-1.1-0.4-1.5-0.8c-0.4-0.4-0.7-0.8-1-1.4s-0.3-1.3-0.3-2.2v-8.3
			h-2v-3.1h2v-4.4h3.7v4.4h4.3v3.1h-4.3v7.8c0,0.7,0.2,1.2,0.5,1.5c0.3,0.3,0.8,0.5,1.4,0.5c0.8,0,1.5-0.2,2.2-0.5v3
			c-0.5,0.3-1,0.5-1.5,0.6C394.9,690.6,394.3,690.7,393.7,690.7z"/>
		<path class="st3" d="M406,690.7c-0.7,0-1.3-0.1-1.8-0.2c-0.6-0.2-1.1-0.4-1.5-0.8c-0.4-0.4-0.7-0.8-1-1.4s-0.3-1.3-0.3-2.2v-8.3
			h-2v-3.1h2v-4.4h3.7v4.4h4.3v3.1H405v7.8c0,0.7,0.2,1.2,0.5,1.5c0.3,0.3,0.8,0.5,1.4,0.5c0.8,0,1.5-0.2,2.2-0.5v3
			c-0.5,0.3-1,0.5-1.5,0.6C407.2,690.6,406.6,690.7,406,690.7z"/>
		<path class="st3" d="M420.2,690.8c-1.1,0-2.2-0.2-3.2-0.6c-1-0.4-1.9-1-2.6-1.7c-0.7-0.7-1.3-1.6-1.7-2.6s-0.6-2.1-0.6-3.3v-0.1
			c0-1.1,0.2-2.2,0.6-3.2s0.9-1.9,1.6-2.6c0.7-0.8,1.5-1.3,2.4-1.8c0.9-0.4,2-0.6,3.1-0.6c1.3,0,2.4,0.2,3.3,0.7
			c0.9,0.5,1.7,1.1,2.4,1.9s1.1,1.7,1.4,2.7c0.3,1,0.5,2.1,0.5,3.3c0,0.2,0,0.3,0,0.5c0,0.2,0,0.3,0,0.5h-11.6
			c0.2,1.3,0.7,2.3,1.5,3c0.8,0.7,1.8,1,3,1c0.9,0,1.7-0.2,2.3-0.5s1.3-0.8,2-1.4l2.1,1.9c-0.8,0.9-1.7,1.6-2.7,2.2
			S421.6,690.8,420.2,690.8z M423.8,681.4c-0.1-0.6-0.2-1.1-0.4-1.6c-0.2-0.5-0.5-0.9-0.8-1.3c-0.3-0.4-0.7-0.7-1.2-0.9
			c-0.5-0.2-1-0.3-1.6-0.3c-1.1,0-2,0.4-2.8,1.2c-0.7,0.8-1.2,1.8-1.3,3H423.8z"/>
		<path class="st3" d="M431,674.6h3.7v3.6c0.5-1.2,1.2-2.2,2.1-2.9c0.9-0.7,2.1-1,3.5-1v3.8h-0.2c-0.8,0-1.5,0.1-2.2,0.4
			c-0.7,0.3-1.2,0.7-1.7,1.2c-0.5,0.5-0.9,1.2-1.1,2c-0.3,0.8-0.4,1.7-0.4,2.7v6H431V674.6z"/>
	</g>
	<circle class="st3" cx="370.1" cy="601.9" r="41.8"/>
	<path class="st5" d="M363,601.8c-0.9,0-1.8-0.4-2.4-1c-1.3-1.3-1.3-3.5,0-4.8c1.3-1.3,3.5-1.3,4.8,0c1.3,1.3,1.3,3.5,0,4.8
		C364.8,601.5,364,601.9,363,601.8z M363,597.3c-0.6,0-1.1,0.5-1.1,1.1c0,0.3,0.1,0.6,0.3,0.8c0.3,0.3,0.8,0.4,1.2,0.2
		c0.6-0.3,0.8-1,0.5-1.5C363.8,597.6,363.4,597.4,363,597.3L363,597.3z"/>
	<path class="st5" d="M377.2,601.8c-0.9,0-1.8-0.4-2.4-1c-0.6-0.6-1-1.5-1-2.4c0-0.9,0.4-1.8,1-2.4c1.3-1.3,3.5-1.3,4.8,0
		c1.3,1.3,1.3,3.5,0,4.8C378.9,601.5,378.1,601.8,377.2,601.8L377.2,601.8z M377.2,597.3c-0.6,0-1.1,0.5-1.1,1.1
		c0,0.6,0.5,1.1,1.1,1.1c0.1,0,0.3,0,0.4-0.1c0.6-0.2,0.9-0.9,0.6-1.5C378.1,597.6,377.7,597.3,377.2,597.3z"/>
	<path class="st5" d="M401.4,599.3c-1.2-6.2-5.5-12.9-9.6-14.9c-3.2-1.6-7.5-1.6-10-1.4c-0.3-0.3-0.6-0.6-0.9-0.9
		c-2.8-2.6-7-2.6-9.9-2.7h-1h-0.8c-2.8,0-7.1,0.1-9.9,2.7c-0.3,0.3-0.6,0.6-0.9,0.8c-2.6-0.2-6.9-0.2-10.1,1.4
		c-4,2-8.3,8.7-9.6,14.9c-0.8,4-0.2,7.3,1.7,9.4c1.4,1.5,3.9,2.3,7.5,2.3h1c0.2,3.5,1.7,6.7,4.2,9.1c3.8,3.7,10.3,4.4,14.7,4.4
		c0.7,0,1.4,0,2,0h0.4c4.3,0.2,12.3-0.1,16.7-4.3l0,0c2.5-2.4,4-5.6,4.2-9.1h1c3.6,0,6.2-0.8,7.5-2.3c1.9-2.1,2.5-5.4,1.7-9.4
		L401.4,599.3z M342.3,607.2c-1.8-2-1.6-5.2-1.1-7.5c1.1-5.5,4.9-11.6,8.4-13.3l0,0c2.3-1,4.8-1.4,7.3-1.2c-1.7,2.9-3.1,6.1-4.2,9.3
		l-0.2,0.5c-2.1,5.8-3.2,8.8-3.4,12.5c0,0.4,0,0.8,0,1.3C345.7,608.8,343.3,608.3,342.3,607.2L342.3,607.2z M370.2,609.3
		L370.2,609.3c-0.6-0.1-1.1-0.5-1.5-0.9c-0.4-0.4-0.6-0.9-0.8-1.5c1.4-0.7,3.1-0.7,4.5,0c-0.2,0.5-0.4,1.1-0.8,1.5
		C371.3,608.8,370.8,609.1,370.2,609.3L370.2,609.3z M385.5,618.4c-2.7,2.6-7.8,3.9-14.2,3.7v-10.8c0.8-0.3,1.5-0.8,2.1-1.5
		c0.8-0.9,1.3-2.1,1.5-3.3c0-0.4-0.1-0.7-0.4-0.9c-2.5-2-6.1-2-8.6,0c-0.3,0.2-0.4,0.6-0.4,0.9c0.2,1.2,0.7,2.4,1.5,3.3
		c0.6,0.7,1.3,1.2,2.1,1.5v10.9c-6.4,0.2-11.5-1.2-14.2-3.7c-3.4-3.3-3.7-7.2-3.5-10.9c0.2-3.5,1.2-6.3,3.3-11.9l0.2-0.5
		c2.6-7.1,3.8-9.3,6.2-11.5c2.2-2,5.8-2.1,8.4-2.1h0.8h0.9c2.6,0,6.2,0.1,8.4,2.1c2.4,2.2,3.5,4.3,6.2,11.5l0.2,0.4
		c2.1,5.6,3.1,8.4,3.3,11.9C389.2,611.3,388.9,615.2,385.5,618.4L385.5,618.4z M398,607.2c-1,1.1-3.4,1.6-6.7,1.5c0-0.4,0-0.9,0-1.3
		c-0.2-3.8-1.3-6.7-3.4-12.6l-0.2-0.4l0,0c-1-3.2-2.4-6.4-4.2-9.3c2.5-0.1,5,0.3,7.3,1.2c3.4,1.7,7.3,7.8,8.4,13.3
		C399.7,602,399.9,605.2,398,607.2L398,607.2z"/>
	<path class="st6" d="M532.4,785.8H207.9c-11.9,0-19.3,9.2-13.3,16.5l76.7,94.9c2.8,3.4,7.8,5.5,13.3,5.5h171.2
		c5.5,0,10.6-2.1,13.3-5.5l76.7-94.9C551.7,794.9,544.3,785.8,532.4,785.8z"/>
	<g class="st2">
		<path class="st3" d="M304.1,851.8h3.7v10.6l10-10.6h4.5l-8.7,9l9.1,12h-4.5l-7.2-9.4l-3.3,3.4v6.1h-3.7V851.8z"/>
		<path class="st3" d="M332.9,873.1c-1.2,0-2.3-0.2-3.3-0.6c-1-0.4-1.9-1-2.7-1.8s-1.3-1.6-1.8-2.6c-0.4-1-0.6-2.1-0.6-3.2v-0.1
			c0-1.1,0.2-2.2,0.6-3.2c0.4-1,1-1.9,1.8-2.6s1.6-1.3,2.7-1.8c1-0.4,2.2-0.7,3.4-0.7c1.2,0,2.3,0.2,3.4,0.6c1,0.4,1.9,1,2.7,1.8
			s1.3,1.6,1.8,2.6s0.6,2.1,0.6,3.2v0.1c0,1.1-0.2,2.2-0.6,3.2s-1,1.9-1.8,2.6s-1.6,1.3-2.7,1.8
			C335.3,872.9,334.1,873.1,332.9,873.1z M333,870c0.7,0,1.4-0.1,2-0.4c0.6-0.3,1.1-0.6,1.5-1.1c0.4-0.5,0.7-1,1-1.6
			c0.2-0.6,0.3-1.3,0.3-1.9v-0.1c0-0.7-0.1-1.4-0.4-2s-0.6-1.2-1-1.6c-0.4-0.5-0.9-0.8-1.5-1.1c-0.6-0.3-1.2-0.4-2-0.4
			c-0.7,0-1.4,0.1-2,0.4c-0.6,0.3-1.1,0.6-1.5,1.1c-0.4,0.4-0.7,1-1,1.6c-0.2,0.6-0.3,1.3-0.3,2v0.1c0,0.7,0.1,1.4,0.4,2
			c0.2,0.6,0.6,1.2,1,1.6c0.4,0.5,0.9,0.8,1.5,1.1C331.6,869.8,332.3,870,333,870z"/>
		<path class="st3" d="M345.1,856.9h3.7v2.4c0.3-0.4,0.5-0.7,0.8-1c0.3-0.3,0.6-0.6,1-0.9c0.4-0.3,0.8-0.5,1.3-0.6
			c0.5-0.2,1-0.2,1.6-0.2c1.1,0,2.1,0.3,2.9,0.8c0.8,0.5,1.4,1.2,1.8,2c0.6-0.8,1.4-1.5,2.3-2c0.9-0.5,1.9-0.8,3.1-0.8
			c1.7,0,3.1,0.5,4.1,1.6c1,1,1.5,2.5,1.5,4.5v10.1h-3.7v-9c0-1.3-0.3-2.2-0.8-2.9c-0.6-0.7-1.3-1-2.4-1c-1,0-1.8,0.3-2.4,1
			c-0.6,0.7-0.9,1.6-0.9,2.9v8.9h-3.7v-9c0-1.2-0.3-2.2-0.8-2.8c-0.6-0.7-1.3-1-2.4-1c-1,0-1.8,0.3-2.4,1c-0.6,0.7-0.9,1.7-0.9,2.9
			v8.9h-3.7V856.9z"/>
		<path class="st3" d="M373.6,856.9h3.7v2.6c0.6-0.8,1.3-1.5,2.2-2.1c0.9-0.6,1.9-0.9,3.2-0.9c0.9,0,1.8,0.2,2.7,0.5
			c0.9,0.4,1.7,0.9,2.3,1.6c0.7,0.7,1.2,1.6,1.7,2.6c0.4,1,0.6,2.2,0.6,3.5v0.1c0,1.3-0.2,2.5-0.6,3.5c-0.4,1-1,1.9-1.6,2.6
			c-0.7,0.7-1.5,1.2-2.4,1.6c-0.9,0.4-1.8,0.5-2.7,0.5c-1.3,0-2.4-0.3-3.2-0.8c-0.9-0.6-1.6-1.2-2.1-1.9v7.3h-3.7V856.9z
			 M381.8,869.9c0.6,0,1.2-0.1,1.8-0.4c0.5-0.2,1-0.6,1.4-1c0.4-0.4,0.7-1,1-1.6c0.2-0.6,0.4-1.3,0.4-2.1v-0.1
			c0-0.8-0.1-1.5-0.4-2.1c-0.2-0.6-0.6-1.2-1-1.6c-0.4-0.4-0.9-0.8-1.4-1c-0.6-0.2-1.1-0.4-1.8-0.4c-0.6,0-1.2,0.1-1.8,0.4
			c-0.6,0.2-1,0.6-1.5,1c-0.4,0.5-0.8,1-1,1.6c-0.3,0.6-0.4,1.3-0.4,2.1v0.1c0,0.8,0.1,1.5,0.4,2.1c0.2,0.6,0.6,1.2,1,1.6
			s0.9,0.8,1.5,1C380.6,869.8,381.2,869.9,381.8,869.9z"/>
		<path class="st3" d="M401.2,873.1c-1.2,0-2.3-0.2-3.3-0.6c-1-0.4-1.9-1-2.7-1.8s-1.3-1.6-1.8-2.6c-0.4-1-0.6-2.1-0.6-3.2v-0.1
			c0-1.1,0.2-2.2,0.6-3.2c0.4-1,1-1.9,1.8-2.6s1.6-1.3,2.7-1.8c1-0.4,2.2-0.7,3.4-0.7c1.2,0,2.3,0.2,3.4,0.6c1,0.4,1.9,1,2.7,1.8
			s1.3,1.6,1.8,2.6s0.6,2.1,0.6,3.2v0.1c0,1.1-0.2,2.2-0.6,3.2c-0.4,1-1,1.9-1.8,2.6s-1.6,1.3-2.7,1.8
			C403.6,872.9,402.4,873.1,401.2,873.1z M401.3,870c0.7,0,1.4-0.1,2-0.4c0.6-0.3,1.1-0.6,1.5-1.1c0.4-0.5,0.7-1,1-1.6
			s0.3-1.3,0.3-1.9v-0.1c0-0.7-0.1-1.4-0.4-2s-0.6-1.2-1-1.6c-0.4-0.5-0.9-0.8-1.5-1.1c-0.6-0.3-1.2-0.4-2-0.4c-0.7,0-1.4,0.1-2,0.4
			c-0.6,0.3-1.1,0.6-1.5,1.1c-0.4,0.4-0.7,1-1,1.6c-0.2,0.6-0.3,1.3-0.3,2v0.1c0,0.7,0.1,1.4,0.4,2c0.2,0.6,0.6,1.2,1,1.6
			c0.4,0.5,0.9,0.8,1.5,1.1C400,869.8,400.6,870,401.3,870z"/>
		<path class="st3" d="M418.8,873.1c-1.1,0-2.3-0.2-3.5-0.6c-1.2-0.4-2.3-1-3.3-1.8l1.6-2.5c0.9,0.6,1.7,1.1,2.6,1.5
			c0.9,0.3,1.7,0.5,2.6,0.5c0.8,0,1.4-0.2,1.8-0.5c0.4-0.3,0.6-0.7,0.6-1.2v-0.1c0-0.3-0.1-0.6-0.3-0.8c-0.2-0.2-0.5-0.4-0.8-0.6
			c-0.3-0.2-0.7-0.3-1.1-0.4c-0.4-0.1-0.9-0.3-1.3-0.4c-0.6-0.2-1.2-0.3-1.8-0.6c-0.6-0.2-1.1-0.5-1.6-0.9c-0.5-0.3-0.9-0.8-1.2-1.3
			s-0.5-1.2-0.5-1.9v-0.1c0-0.7,0.1-1.4,0.4-2c0.3-0.6,0.7-1.1,1.2-1.5c0.5-0.4,1.1-0.7,1.8-1c0.7-0.2,1.4-0.3,2.2-0.3
			c1,0,2,0.2,3,0.5c1,0.3,2,0.8,2.8,1.3l-1.4,2.6c-0.8-0.5-1.5-0.8-2.3-1.1c-0.8-0.3-1.5-0.4-2.2-0.4c-0.7,0-1.2,0.2-1.6,0.4
			c-0.4,0.3-0.6,0.7-0.6,1.1v0.1c0,0.3,0.1,0.5,0.3,0.7c0.2,0.2,0.5,0.4,0.8,0.6c0.3,0.2,0.7,0.3,1.1,0.5c0.4,0.2,0.9,0.3,1.3,0.4
			c0.6,0.2,1.2,0.4,1.7,0.6c0.6,0.2,1.1,0.5,1.6,0.9s0.9,0.8,1.2,1.3c0.3,0.5,0.5,1.1,0.5,1.8v0.1c0,0.8-0.2,1.6-0.5,2.2
			s-0.7,1.1-1.2,1.5s-1.2,0.7-1.9,0.9C420.4,873,419.7,873.1,418.8,873.1z"/>
		<path class="st3" d="M433.8,873c-0.7,0-1.3-0.1-1.8-0.2c-0.6-0.2-1.1-0.4-1.5-0.8c-0.4-0.4-0.7-0.8-1-1.4s-0.3-1.3-0.3-2.2v-8.3
			h-2v-3.1h2v-4.3h3.7v4.3h4.3v3.1h-4.3v7.8c0,0.7,0.2,1.2,0.5,1.5c0.3,0.3,0.8,0.5,1.4,0.5c0.8,0,1.5-0.2,2.2-0.5v3
			c-0.5,0.3-1,0.5-1.5,0.6C435,873,434.4,873,433.8,873z"/>
	</g>
	<circle class="st3" cx="370.1" cy="785.6" r="41.8"/>
	<g>
		<path class="st6" d="M394.8,801.2c0-0.4-0.1-0.8-0.1-1.3l0,0c-0.2-2.3-0.3-4.7-0.3-7c0-1.5-0.5-2.9-1.5-3.9
			c-0.8-0.8-1.9-1.4-3-1.5c-0.2-4.4-3.2-8.1-7.4-9.2c-0.8-0.2-1.5-0.7-2-1.3c-2.3-3-6.1-4.4-9.7-3.7c0,0,0-4.4,0-4.5
			c0.5,0.4,1.1,0.7,1.8,0.7h2.4c3,0,5.4-2.4,5.4-5.4c0,0,0,0,0,0v-2.4c0-1.7-1.3-3-3-3h-2.4c-3,0-5.4,2.4-5.4,5.4c0,0,0,0,0,0v1.5
			c-1-1.3-2.5-2.1-4.2-2.1h-2.4c-1.7,0-3,1.3-3,3v2.4c0,3,2.4,5.4,5.4,5.4c0,0,0,0,0,0h2.4c0.1,0,0.1,0,0.2,0l0,0
			c-1.1,0.6-2.1,1.3-3,2.3c-0.6,0.6-1.3,1.1-2.1,1.3c-0.3,0.1-0.5,0.4-0.4,0.7c0,0.2,0.1,0.3,0.3,0.4c0.1,0.1,0.3,0.1,0.5,0.1
			c1.1-0.3,2-0.9,2.8-1.7c3.2-3.7,8.9-4.1,12.6-0.8c0.4,0.4,0.8,0.8,1.1,1.2c0.7,0.8,1.6,1.5,2.6,1.8c3.7,1,6.3,4.2,6.5,8h-37
			c0.3-4.7,4.2-8.4,8.9-8.4c0.3,0,0.6-0.3,0.6-0.6c0-0.3-0.3-0.6-0.6-0.6c-5.4,0-9.9,4.3-10.1,9.7c-1.1,0.2-2.2,0.7-3,1.5
			c-1,1-1.6,2.4-1.5,3.9c0,2.3-0.1,4.7-0.3,7c0,0.4-0.1,0.9-0.1,1.3l0,0c-0.7,5.6,3.3,10.6,8.9,11.3c0.4,0,0.8,0.1,1.2,0.1h29.2
			c3.6,0,7-1.9,8.8-5.1c0.2-0.2,0.2-0.6,0-0.8s-0.6-0.2-0.8,0c-0.1,0.1-0.1,0.2-0.1,0.2c-1.6,2.8-4.6,4.5-7.8,4.5h-29.2
			c-5,0-9-4.1-9-9c0-0.3,0-0.7,0.1-1c0-0.2,0-0.4,0.1-0.7c15.5,3.1,31.4,3.1,46.9,0c0,0.2,0,0.4,0.1,0.7c0.1,1.1,0.1,2.2-0.2,3.3
			c-0.1,0.3,0.1,0.6,0.4,0.7c0.3,0.1,0.6-0.1,0.7-0.4C395,803.7,395.1,802.4,394.8,801.2L394.8,801.2z M370.7,764
			c0-2.3,1.9-4.2,4.2-4.2h2.4c1,0,1.8,0.8,1.8,1.8c0,0,0,0,0,0v2.4c0,2.3-1.9,4.2-4.2,4.2h0h-2.4c-0.3,0-0.5-0.1-0.8-0.2l3.6-3.6
			l0,0c0.2-0.2,0.2-0.6,0-0.8c-0.2-0.2-0.6-0.2-0.8,0c0,0,0,0,0,0l-3.6,3.6c-0.1-0.2-0.2-0.5-0.2-0.8L370.7,764z M365.3,773
			c-2.3,0-4.2-1.9-4.2-4.2v-2.4c0-1,0.8-1.8,1.8-1.8h2.4c2.3,0,4.2,1.9,4.2,4.2l0,0v2.4c0,0.3-0.1,0.5-0.2,0.8l-3.6-3.6
			c-0.2-0.2-0.6-0.2-0.8,0c-0.2,0.2-0.2,0.6,0,0.8l0,0l3.6,3.6l0,0c-0.2,0.1-0.5,0.2-0.8,0.2H365.3z M346.8,799.5
			c0.1-1.2,0.2-2.5,0.2-3.7h20.7c0.3,0,0.6-0.3,0.6-0.6c0-0.3-0.3-0.6-0.6-0.6H347c0-0.6,0-1.1,0-1.7c0-1.1,0.4-2.2,1.2-3
			c0.8-0.8,1.9-1.3,3-1.2H389c1.1,0,2.2,0.4,3,1.2c0.8,0.8,1.2,1.9,1.2,3c0,0.6,0,1.1,0,1.7h-23.1c-0.3,0-0.6,0.3-0.6,0.6
			c0,0.3,0.3,0.6,0.6,0.6h23.1c0,1.2,0.1,2.5,0.2,3.7C378.1,802.5,362.2,802.5,346.8,799.5z"/>
		<path class="st6" d="M355.5,813c-0.4,0-0.8,0-1.2-0.1c-5.8-0.7-10-6-9.3-11.8c0-0.1,0-0.3,0.1-0.4c0-0.3,0.1-0.6,0.1-0.8
			c0.2-2.3,0.3-4.7,0.3-7c0-1.6,0.6-3.1,1.7-4.3c0.8-0.8,1.8-1.4,2.9-1.6c0.5-5.5,5.1-9.7,10.6-9.7c0.6,0,1.1,0.5,1.1,1.1
			s-0.5,1.1-1.1,1.1c-4.2,0-7.8,3.2-8.4,7.4h35.9c-0.4-3.3-2.8-6.1-6.1-7c-1.1-0.3-2.1-1-2.9-1.9c-0.3-0.4-0.7-0.8-1.1-1.1
			c-1.7-1.5-3.9-2.2-6.1-2.1c-2.2,0.1-4.3,1.2-5.8,2.8c-0.8,0.9-1.8,1.5-3,1.8c-0.3,0.1-0.6,0-0.8-0.1c-0.3-0.2-0.5-0.4-0.5-0.7
			c-0.1-0.6,0.2-1.2,0.8-1.3c0.7-0.2,1.4-0.6,1.9-1.2c0.5-0.5,1-1,1.6-1.5l-0.8,0c-3.3,0-5.9-2.6-5.9-5.9v-2.4
			c0-1.9,1.6-3.5,3.5-3.5h2.4c1.4,0,2.7,0.5,3.7,1.4V764c0-3.3,2.6-5.9,5.9-5.9c0,0,0,0,0,0h2.4c1.9,0,3.5,1.6,3.5,3.5v2.4
			c0,3.3-2.6,5.9-5.9,5.9h-2.4c-0.5,0-0.9-0.1-1.3-0.3v3c3.7-0.5,7.4,1,9.6,4c0.4,0.6,1,1,1.7,1.2c4.3,1.2,7.4,4.9,7.8,9.3
			c1.1,0.2,2.1,0.8,2.9,1.6c1.1,1.1,1.7,2.7,1.7,4.3c0,2.3,0.1,4.6,0.3,6.9c0,0.3,0.1,0.6,0.1,0.8h0l0.1,0.4
			c0.2,1.3,0.1,2.6-0.3,3.9c-0.2,0.6-0.8,0.9-1.3,0.8c-0.6-0.2-0.9-0.7-0.8-1.3c0.3-1,0.3-2.1,0.2-3.1c0,0,0-0.1,0-0.1
			c-15.3,2.9-30.7,2.9-46,0c0,0,0,0,0,0.1c0,0.4-0.1,0.7-0.1,1c0,4.7,3.8,8.5,8.5,8.5h29.2c3,0,5.8-1.6,7.3-4.2
			c0.1-0.1,0.1-0.3,0.2-0.4c0.4-0.4,1.1-0.4,1.6,0c0.4,0.4,0.4,1.1,0.1,1.5c-1.9,3.3-5.4,5.3-9.2,5.3H355.5
			C355.5,813,355.5,813,355.5,813z M360.5,778.3c-5.2,0-9.4,4-9.6,9.2l0,0.4l-0.4,0.1c-1,0.2-2,0.6-2.7,1.4
			c-0.9,0.9-1.4,2.2-1.4,3.5c0,2.3-0.1,4.7-0.3,7.1c0,0.3,0,0.6-0.1,0.9l-0.1,0.4c-0.6,5.3,3.2,10.1,8.5,10.7c0.4,0,0.8,0.1,1.1,0.1
			h29.2c3.5,0,6.7-1.9,8.4-4.8l0.1-0.1c0,0,0-0.1,0-0.1c0,0-0.1,0-0.1,0l-0.1,0.1c-1.7,2.9-4.8,4.7-8.2,4.7h-29.2
			c-5.2,0-9.5-4.3-9.5-9.5c0-0.3,0-0.7,0.1-1c0-0.1,0-0.3,0-0.4c0-0.1,0-0.1,0-0.2l0.1-0.6l0.5,0.1c15.5,3.1,31.2,3.1,46.7,0
			l0.6-0.1v0.6c0,0.2,0,0.4,0,0.5c0.2,1.3,0.1,2.4-0.2,3.6c0,0,0,0.1,0.1,0.1c0,0,0.1,0,0.1-0.1c0.3-1,0.3-2.1,0.3-3.1l-0.1-0.4
			c-0.1-0.4-0.1-0.9-0.1-1.3c-0.2-2.3-0.3-4.7-0.3-7.1c0-1.3-0.5-2.6-1.4-3.5c-0.7-0.7-1.7-1.2-2.7-1.4l-0.4-0.1l0-0.4
			c-0.2-4.1-3.1-7.7-7.1-8.8c-0.9-0.3-1.7-0.8-2.3-1.5c-2.1-2.8-5.8-4.2-9.2-3.5l-0.6,0.1v-0.2l-2.1,1c-1.1,0.5-2,1.3-2.9,2.2
			c-0.6,0.7-1.5,1.2-2.4,1.5c-0.1,0-0.1,0.1-0.1,0.1l0,0l0.1,0.1c1-0.2,1.8-0.8,2.5-1.5c3.4-3.9,9.4-4.3,13.3-0.9
			c0.4,0.4,0.8,0.8,1.2,1.3c0.6,0.8,1.4,1.3,2.3,1.6c3.8,1.1,6.6,4.5,6.9,8.4l0,0.5h-38.1l0-0.5c0.3-4.9,4.5-8.8,9.4-8.9
			c0.1,0,0.1,0,0.1-0.1S360.6,778.3,360.5,778.3z M365.3,763.9H363c-1.4,0-2.5,1.1-2.5,2.5v2.4c0,2.7,2.2,4.9,4.9,4.9h2.4
			c0.1,0,0.1,0,0.2,0l2.3-0.2v-5.8l0.8,0.7c0.4,0.3,1,0.5,1.5,0.6h2.4c2.7,0,4.9-2.2,4.9-4.9v-2.4c0-1.4-1.1-2.5-2.5-2.5h-2.4
			c0,0,0,0,0,0c-2.7,0-4.9,2.2-4.9,4.9v2.9l-0.9-1.2C368.2,764.6,366.8,763.9,365.3,763.9z M370.1,802.2c-7.8,0-15.7-0.8-23.4-2.3
			l-0.4-0.1l0-0.4c0.1-1.2,0.2-2.4,0.2-3.7l0-0.5h21.2c0.1,0,0.1,0,0.1-0.1c0-0.1,0-0.1-0.1-0.1h-21.2v-2.2c0-1.2,0.5-2.5,1.3-3.4
			c0.9-0.9,2.1-1.4,3.3-1.4c0,0,0,0,0.1,0H389c1.2,0,2.5,0.5,3.4,1.4c0.9,0.9,1.4,2.1,1.3,3.4v2.2h-23.6c-0.1,0-0.1,0-0.1,0.1
			c0,0.1,0,0.1,0.1,0.1h23.6v0.5c0,1.2,0.1,2.5,0.2,3.7l0,0.4l-0.4,0.1C385.8,801.5,378,802.2,370.1,802.2z M347.3,799.1
			c15.1,2.9,30.5,2.9,45.6,0c-0.1-0.9-0.2-1.9-0.2-2.8h-22.6c-0.6,0-1.1-0.5-1.1-1.1s0.5-1.1,1.1-1.1h22.6v-1.2c0-1-0.4-2-1.1-2.6
			c-0.7-0.7-1.6-1.1-2.6-1.1c0,0,0,0,0,0h-37.8c-1,0-2,0.4-2.6,1.1c-0.7,0.7-1.1,1.7-1.1,2.6v1.2h20.2c0.6,0,1.1,0.5,1.1,1.1
			s-0.5,1.1-1.1,1.1h-20.2C347.5,797.2,347.4,798.2,347.3,799.1z M367.7,773.5C367.7,773.5,367.7,773.5,367.7,773.5h-2.4
			c-2.6,0-4.7-2.1-4.7-4.7v-2.4c0-1.3,1-2.3,2.3-2.3h2.4c2.6,0,4.7,2.1,4.7,4.7v2.4c0,0.3-0.1,0.7-0.2,1l-0.3,0.6l-4.1-4l-0.1,0
			l0,0.1l4.1,4.1l-0.6,0.3C368.4,773.4,368.1,773.5,367.7,773.5z M365.3,772.5h2.1l-2.9-2.9c-0.2-0.2-0.3-0.5-0.3-0.8
			s0.1-0.6,0.3-0.8c0.4-0.4,1.1-0.4,1.6,0l2.9,2.9v-2.1c0-2-1.7-3.7-3.7-3.7H363c-0.7,0-1.3,0.6-1.3,1.3v2.4
			C361.7,770.8,363.3,772.5,365.3,772.5z M374.9,768.7h-2.4c-0.4,0-0.7-0.1-1-0.2l-0.6-0.3l4.1-4.1c0,0,0-0.1,0-0.1c0,0-0.1,0-0.1,0
			l-4.1,4.1l-0.3-0.6c-0.1-0.3-0.2-0.6-0.2-1l0-2.4c0-2.6,2.1-4.7,4.7-4.7h2.4c0.6,0,1.2,0.2,1.6,0.7c0.4,0.4,0.7,1,0.7,1.6v2.4
			C379.6,766.6,377.5,768.7,374.9,768.7z M374.9,762.9c0.3,0,0.6,0.1,0.8,0.3c0.4,0.4,0.4,1.1,0,1.5l-2.9,2.9h2.1
			c2,0,3.7-1.7,3.7-3.7v-2.4c0-0.4-0.1-0.7-0.4-0.9c-0.2-0.2-0.6-0.4-0.9-0.4h-2.4c-2,0-3.7,1.7-3.7,3.7v2.1l2.9-2.9
			C374.4,763,374.7,762.9,374.9,762.9z"/>
	</g>
	<path class="st7" d="M479.8,969.8H260.5c-16,0-26,12-18,21.5l109.7,161.1c8,9.6,28,9.6,36,0l109.7-161.1
		C505.8,981.8,495.8,969.8,479.8,969.8z"/>
	<g>
		<path class="st3" d="M316.5,1035.4h3.9l6.4,9.9l6.4-9.9h3.9v21h-3.7v-15.1l-6.6,9.9h-0.1l-6.6-9.8v15h-3.7V1035.4z"/>
		<path class="st3" d="M347.6,1056.7c-1.6,0.1-3.1-0.5-4.2-1.7c-1-1.2-1.6-2.8-1.5-4.4v-10.1h3.7v9c-0.1,1,0.3,2,0.9,2.9
			c0.6,0.7,1.6,1.1,2.5,1c1,0,1.9-0.3,2.6-1c0.7-0.8,1.1-1.8,1-2.9v-8.9h3.7v15.8h-3.7v-2.5c-0.5,0.8-1.2,1.5-2,2
			C349.8,1056.5,348.7,1056.7,347.6,1056.7z M344.4,1035h3.7v3.5h-3.7L344.4,1035z M350.4,1035h3.7v3.5h-3.7V1035z"/>
		<path class="st3" d="M361,1034.5h3.7v21.9H361V1034.5z"/>
		<path class="st3" d="M369.6,1034.5h3.7v21.9h-3.7V1034.5z"/>
		<path class="st3" d="M384.5,1056.7c-0.9,0-1.9-0.2-2.7-0.5c-0.9-0.4-1.7-0.9-2.3-1.6c-0.7-0.7-1.3-1.6-1.6-2.6
			c-0.4-1.1-0.7-2.3-0.6-3.5v-0.1c0-1.2,0.2-2.4,0.6-3.5c0.4-1,0.9-1.8,1.6-2.6c0.7-0.7,1.5-1.2,2.4-1.6c0.9-0.4,1.8-0.5,2.7-0.5
			c1.1,0,2.3,0.3,3.2,0.8c0.8,0.5,1.5,1.2,2.1,1.9v-8.5h3.7v21.9h-3.7v-2.6c-0.6,0.8-1.3,1.5-2.2,2.1
			C386.7,1056.4,385.6,1056.7,384.5,1056.7z M385.3,1053.5c1.2,0,2.4-0.5,3.2-1.4c0.4-0.5,0.8-1,1-1.6c0.3-0.7,0.4-1.4,0.4-2.1v-0.1
			c0-0.7-0.1-1.4-0.4-2.1c-0.2-0.6-0.6-1.1-1-1.6c-0.4-0.4-0.9-0.8-1.5-1c-0.5-0.2-1.1-0.4-1.7-0.4c-0.6,0-1.2,0.1-1.8,0.3
			c-0.5,0.2-1,0.6-1.5,1c-0.4,0.5-0.8,1-1,1.6c-0.2,0.7-0.4,1.4-0.4,2.1v0.1c0,0.7,0.1,1.4,0.4,2.1c0.2,0.6,0.6,1.1,1,1.6
			c0.4,0.4,0.9,0.8,1.5,1C384.1,1053.4,384.7,1053.5,385.3,1053.5L385.3,1053.5z"/>
		<path class="st3" d="M405.3,1056.7c-1.1,0-2.2-0.2-3.2-0.6c-2-0.8-3.5-2.3-4.3-4.3c-0.4-1.1-0.6-2.2-0.6-3.3v-0.1
			c0-1.1,0.2-2.2,0.6-3.2c0.4-1,0.9-1.9,1.6-2.6c0.7-0.7,1.5-1.4,2.4-1.8c1-0.4,2-0.7,3.1-0.6c1.1,0,2.3,0.2,3.3,0.7
			c0.9,0.4,1.7,1.1,2.4,1.9c0.6,0.8,1.1,1.7,1.4,2.7c0.3,1.1,0.5,2.2,0.5,3.3c0,0.2,0,0.3,0,0.5s0,0.3,0,0.5h-11.7
			c0.1,1.2,0.7,2.2,1.5,3c0.8,0.7,1.9,1,3,1c0.8,0,1.6-0.1,2.3-0.5c0.7-0.4,1.4-0.8,2-1.4l2.1,1.9c-0.8,0.9-1.7,1.6-2.7,2.2
			C407.9,1056.5,406.6,1056.7,405.3,1056.7z M408.9,1047.3c-0.1-0.6-0.2-1.1-0.4-1.6c-0.2-0.5-0.5-0.9-0.8-1.3
			c-0.3-0.4-0.8-0.7-1.2-0.9c-0.5-0.2-1.1-0.3-1.6-0.3c-1,0-2.1,0.4-2.8,1.2c-0.8,0.8-1.2,1.9-1.3,3L408.9,1047.3z"/>
		<path class="st3" d="M415.5,1045.4h8.9v3.6h-8.9V1045.4z"/>
		<path class="st3" d="M329.7,1076.5h3.7v2.6c0.6-0.8,1.3-1.6,2.1-2.1c1-0.6,2.1-0.9,3.2-0.8c0.9,0,1.9,0.2,2.7,0.5
			c0.9,0.4,1.7,0.9,2.4,1.6c0.7,0.7,1.3,1.6,1.7,2.6c0.4,1.1,0.7,2.3,0.6,3.5v0.1c0,1.2-0.2,2.4-0.6,3.5c-0.4,1-0.9,1.8-1.6,2.6
			c-0.7,0.7-1.5,1.2-2.4,1.6c-0.9,0.4-1.8,0.5-2.7,0.5c-1.1,0-2.3-0.2-3.2-0.8c-0.8-0.5-1.5-1.2-2.1-2v7.3h-3.7L329.7,1076.5z
			 M337.9,1089.5c0.6,0,1.2-0.1,1.8-0.4c0.5-0.2,1-0.6,1.4-1c0.4-0.5,0.8-1,1-1.6c0.2-0.7,0.4-1.4,0.4-2.1v-0.1c0-0.7-0.1-1.4-0.4-2
			c-0.2-0.6-0.6-1.1-1-1.6c-0.8-0.9-2-1.4-3.2-1.4c-0.6,0-1.2,0.1-1.8,0.4c-0.6,0.2-1.1,0.6-1.5,1c-0.4,0.5-0.8,1-1,1.6
			c-0.3,0.7-0.4,1.4-0.4,2.1v0.1c0,0.7,0.1,1.4,0.4,2.1c0.2,0.6,0.6,1.1,1,1.6C335.5,1089.1,336.6,1089.6,337.9,1089.5L337.9,1089.5
			z"/>
		<path class="st3" d="M357.3,1092.7c-1.1,0-2.3-0.2-3.4-0.7c-1-0.4-1.9-1-2.7-1.8c-0.8-0.7-1.3-1.6-1.8-2.6c-0.4-1-0.6-2.1-0.6-3.2
			v-0.1c0-1.1,0.2-2.2,0.6-3.2c0.8-2,2.4-3.6,4.4-4.4c1.1-0.4,2.2-0.7,3.4-0.7c1.2,0,2.3,0.2,3.4,0.6c3.1,1.3,5.1,4.3,5.1,7.6v0.1
			c0,1.1-0.2,2.2-0.6,3.2c-0.8,2-2.4,3.6-4.5,4.4C359.7,1092.5,358.5,1092.7,357.3,1092.7z M357.4,1089.6c0.7,0,1.4-0.1,2-0.4
			c0.6-0.3,1.1-0.6,1.5-1.1c0.4-0.5,0.8-1,1-1.6c0.2-0.6,0.3-1.3,0.3-1.9v-0.1c0-0.7-0.1-1.4-0.4-2c-0.2-0.6-0.6-1.1-1-1.6
			c-0.4-0.5-0.9-0.8-1.5-1.1c-1.2-0.5-2.7-0.5-3.9,0c-0.6,0.3-1.1,0.6-1.5,1.1c-0.4,0.5-0.7,1-1,1.6c-0.2,0.6-0.3,1.3-0.3,2v0.1
			c0,0.7,0.1,1.4,0.4,2c0.2,0.6,0.6,1.1,1,1.6c0.4,0.5,0.9,0.8,1.5,1.1C356.1,1089.5,356.8,1089.6,357.4,1089.6z"/>
		<path class="st3" d="M369.5,1076.5h3.7v2.5c0.3-0.4,0.5-0.7,0.9-1.1c0.3-0.3,0.7-0.6,1.1-0.9c0.4-0.3,0.9-0.5,1.4-0.6
			c0.5-0.2,1.1-0.2,1.7-0.2c1.6-0.1,3.1,0.5,4.1,1.7c1,1.2,1.6,2.8,1.5,4.4v10.1H380v-9c0.1-1-0.2-2-0.9-2.9c-0.6-0.7-1.5-1.1-2.5-1
			c-1,0-1.9,0.3-2.6,1c-0.7,0.8-1.1,1.8-1,2.9v9h-3.7L369.5,1076.5z"/>
		<path class="st3" d="M388.2,1070.6h3.9v3.4h-3.9V1070.6z M388.3,1076.5h3.7v15.8h-3.7V1076.5z"/>
		<path class="st3" d="M404,1092.7c-1.1,0-2.2-0.2-3.2-0.6c-2-0.8-3.5-2.3-4.3-4.3c-0.4-1.1-0.6-2.2-0.6-3.3v-0.1
			c0-1.1,0.2-2.2,0.6-3.2c0.4-1,0.9-1.9,1.6-2.6c0.7-0.7,1.5-1.4,2.5-1.8c1-0.4,2-0.7,3.1-0.6c1.1,0,2.3,0.2,3.3,0.7
			c0.9,0.4,1.7,1.1,2.4,1.9c0.6,0.8,1.1,1.7,1.4,2.7c0.3,1.1,0.5,2.2,0.5,3.3c0,0.2,0,0.3,0,0.5s0,0.3,0,0.5h-11.7
			c0.2,2.3,2.2,4.1,4.6,4c0.8,0,1.6-0.1,2.3-0.5c0.7-0.4,1.4-0.8,2-1.4l2.1,1.9c-0.8,0.9-1.7,1.6-2.7,2.2
			C406.6,1092.5,405.3,1092.7,404,1092.7z M407.6,1083.3c-0.1-0.6-0.2-1.1-0.4-1.6c-0.2-0.5-0.5-0.9-0.8-1.3
			c-0.3-0.4-0.8-0.7-1.2-0.9c-0.5-0.2-1-0.3-1.6-0.3c-1,0-2.1,0.4-2.8,1.2c-0.8,0.8-1.2,1.9-1.3,3L407.6,1083.3z"/>
	</g>
	<circle class="st3" cx="370.1" cy="969.9" r="41.8"/>
	<path class="st7" d="M359.3,986.5c-0.1-0.5-0.6-0.8-1.1-0.6c-0.9,0.2-1.9,0.1-2.8-0.4c-0.8-0.5-1.4-1.3-1.7-2.2
		c-0.1-0.4-0.4-0.7-0.8-0.7c-0.3,0-0.6,0.1-0.7,0.3c-0.2,0.2-0.2,0.5-0.2,0.8c0.8,2.9,3.7,4.6,6.6,3.8c0,0,0,0,0,0
		c0.4-0.1,0.6-0.5,0.6-0.9C359.3,986.6,359.3,986.5,359.3,986.5z M369.3,986c-0.4-1.4-1.3-2.6-2.5-3.3c-0.6-0.4-1.3-0.6-2-0.7
		c-0.3,0-0.5,0-0.8,0c-0.5,0-0.9,0.1-1.4,0.2l0,0c-0.2,0.1-0.4,0.2-0.5,0.4c-0.1,0.2-0.2,0.4-0.1,0.7c0.1,0.5,0.6,0.8,1.1,0.6
		c0,0,0,0,0,0c0.9-0.3,1.9-0.1,2.8,0.4c0.8,0.5,1.5,1.3,1.7,2.2c0,0.2,0.2,0.4,0.4,0.6c0.2,0.1,0.5,0.2,0.7,0.1
		c0.2-0.1,0.4-0.2,0.5-0.4C369.3,986.5,369.3,986.3,369.3,986L369.3,986z M376.3,984.3c-0.1-0.2-0.3-0.4-0.5-0.5
		c-0.8-0.3-1.4-1-1.6-1.9c-0.2-0.9,0-1.8,0.5-2.6c0.2-0.3,0.2-0.6,0.1-0.9c-0.2-0.4-0.8-0.6-1.2-0.4c-0.1,0.1-0.2,0.2-0.3,0.3
		c-0.8,1.2-1.1,2.6-0.8,4c0.3,1.4,1.3,2.5,2.5,3.1c0.1,0.1,0.3,0.1,0.4,0.1c0.1,0,0.2,0,0.3,0c0.2-0.1,0.4-0.2,0.5-0.5
		C376.4,984.9,376.4,984.6,376.3,984.3L376.3,984.3z M387.3,983.9c-0.2-0.3-0.4-0.4-0.7-0.4c-0.4,0-0.7,0.2-0.8,0.5
		c-0.4,0.8-1.1,1.4-1.9,1.6c-0.9,0.2-1.8,0-2.6-0.5c-0.1-0.1-0.3-0.2-0.5-0.2h-0.2c-0.2,0-0.4,0.2-0.6,0.4c-0.1,0.2-0.2,0.4-0.1,0.7
		c0,0.2,0.2,0.4,0.4,0.6c1.2,0.8,2.6,1.1,4,0.8c1.4-0.3,2.5-1.3,3.1-2.5C387.5,984.4,387.5,984.1,387.3,983.9L387.3,983.9z
		 M387.3,983.9c-0.2-0.3-0.4-0.4-0.7-0.4c-0.4,0-0.7,0.2-0.8,0.5c-0.4,0.8-1.1,1.4-1.9,1.6c-0.9,0.2-1.8,0-2.6-0.5
		c-0.1-0.1-0.3-0.2-0.5-0.2h-0.2c-0.2,0-0.4,0.2-0.6,0.4c-0.1,0.2-0.2,0.4-0.1,0.7c0,0.2,0.2,0.4,0.4,0.6c1.2,0.8,2.6,1.1,4,0.8
		c1.4-0.3,2.5-1.3,3.1-2.5C387.5,984.4,387.5,984.1,387.3,983.9L387.3,983.9z M375.8,983.9c-0.8-0.3-1.4-1-1.6-1.9
		c-0.2-0.9,0-1.8,0.5-2.6c0.2-0.3,0.2-0.6,0.1-0.9c-0.2-0.4-0.8-0.6-1.2-0.4c-0.1,0.1-0.2,0.2-0.3,0.3c-0.8,1.2-1.1,2.6-0.8,4
		c0.3,1.4,1.3,2.5,2.5,3.1c0.1,0.1,0.3,0.1,0.4,0.1c0.1,0,0.2,0,0.3,0c0.2-0.1,0.4-0.2,0.5-0.5C376.5,984.7,376.3,984.1,375.8,983.9
		C375.8,983.9,375.8,983.9,375.8,983.9L375.8,983.9z M366.7,982.8c-0.6-0.4-1.3-0.6-2-0.7c-0.3,0-0.5,0-0.8,0
		c-0.5,0-0.9,0.1-1.4,0.2l0,0c-0.2,0.1-0.4,0.2-0.5,0.4c-0.1,0.2-0.2,0.4-0.1,0.7c0.1,0.5,0.6,0.8,1.1,0.6c0,0,0,0,0,0
		c0.9-0.3,1.9-0.1,2.8,0.4c0.8,0.5,1.5,1.3,1.7,2.2c0,0.2,0.2,0.4,0.4,0.6c0.2,0.1,0.5,0.2,0.7,0.1c0.2-0.1,0.4-0.2,0.5-0.4
		c0.1-0.2,0.1-0.5,0.1-0.7C368.9,984.7,368,983.5,366.7,982.8L366.7,982.8z M358.1,985.9c-0.9,0.2-1.9,0.1-2.8-0.4
		c-0.8-0.5-1.4-1.3-1.7-2.2c-0.1-0.4-0.4-0.7-0.8-0.7c-0.3,0-0.6,0.1-0.7,0.3c-0.2,0.2-0.2,0.5-0.2,0.8c0.8,2.9,3.7,4.6,6.6,3.8
		c0,0,0,0,0,0c0.4-0.1,0.6-0.5,0.6-0.9c0-0.1,0-0.1,0-0.2C359.1,986,358.7,985.7,358.1,985.9L358.1,985.9z M396.9,989.3h-4
		c1.7-2.9,1.2-6.6-1.1-9c-1.4-1.4-3.2-2.2-5.2-2.2h-0.2c0.1-0.6,0.2-1.2,0.2-1.8c0-0.5-0.1-1-0.1-1.6c-0.1-0.4-0.2-0.8-0.3-1.2
		c0.2-0.2,0.5-0.3,0.7-0.5c1.2-0.9,2.1-2.3,2.5-3.8c0.8-2.7,0.7-5.3,2.5-7.5c0.1-0.2,0.2-0.4,0.2-0.6c0-0.1,0-0.2,0-0.2
		c-0.1-0.3-0.3-0.5-0.6-0.6c-0.7-0.3-1.5-0.4-2.3-0.4h-0.5c-2.5,0.1-4.9,1-6.9,2.6c-1.7,1.4-2.8,3.4-3.1,5.5h-0.1
		c-0.3,0-0.5,0-0.8,0c0,0,0-0.1,0-0.1c-1.5-2.6-4.5-4.1-7.5-3.8c-1,0.1-2,0.5-2.8,1c-1.7,1-2.9,2.5-3.4,4.4
		c-0.8-0.3-1.6-0.4-2.4-0.5c-0.4-1.2-1.2-2.2-2.2-3c-2-1.6-4.2-2.3-5.5-4.5c-0.2-0.3-0.4-0.5-0.8-0.5l0,0c-0.2,0-0.5,0.1-0.6,0.3
		c-1.9,2.6-2.5,5.9-1.4,8.9c0.4,1.2,1,2.2,1.9,3.1c-0.7,1-1.2,2.2-1.4,3.4c-0.1,0.4-0.1,0.9-0.2,1.3c-1.1,0.4-2,1-2.8,1.8
		c-2.4,2.5-2.9,6.3-1.1,9.2h-4c-0.5,0-0.9,0.4-0.9,0.9s0.4,0.9,0.9,0.9h53.6c0.5,0,0.9-0.4,0.9-0.9S397.4,989.3,396.9,989.3
		L396.9,989.3L396.9,989.3z M382.9,963.9c1.7-1.4,3.9-2.2,6.2-2.2c0.2,0,0.4,0,0.6,0.1c-1.4,2.4-1.5,5-2,6.9c-0.3,1.1-1,2.1-1.9,2.9
		c-1.2,0.8-2.5,1.3-3.9,1.5l0.4-0.5c1.5-1.9,3.2-4,3.9-6.5c0-0.1,0-0.2,0-0.2c0-0.2,0-0.4-0.1-0.6c-0.2-0.2-0.4-0.4-0.7-0.4
		c-0.4,0-0.8,0.3-0.9,0.7c-0.5,2-2.1,3.9-3.6,5.9c-0.1,0.1-0.1,0.2-0.2,0.3C379.8,968.1,381,965.6,382.9,963.9L382.9,963.9z
		 M352.7,969.8c-0.6-2-0.5-4.2,0.4-6.2c1.6,1.9,3.7,2.8,5,3.9c0.8,0.6,1.5,1.5,1.7,2.5c0.2,1.1,0.2,2.3,0,3.5l-0.2-0.2
		c-1.1-1.9-2.3-4-4.2-5.4c-0.2-0.1-0.4-0.2-0.5-0.2l0,0c-0.4,0-0.7,0.3-0.8,0.6c-0.1,0.4,0,0.8,0.3,1c1.5,1.1,2.6,3,3.7,4.9
		c0,0,0,0.1,0.1,0.1C355.8,974,353.6,972.2,352.7,969.8L352.7,969.8z M390.7,989.3h-41.2c-2-2.3-1.9-5.8,0.2-8
		c2.2-2.3,5.8-2.3,8.1-0.1c0,0,0.1,0,0.1,0.1c0.2,0.2,0.4,0.3,0.6,0.3c0.2,0,0.5-0.1,0.6-0.2c0.2-0.2,0.3-0.4,0.3-0.6
		c0-0.2-0.1-0.5-0.3-0.6c-1.4-1.4-3.3-2.2-5.3-2.2h-0.7c0-0.2,0-0.4,0.1-0.6c0.2-0.9,0.6-1.8,1.1-2.6c1.6,1,3.5,1.6,5.4,1.6
		c0.8,1.2,1.9,2.1,3.1,2.6c0.2,0.1,0.5,0.1,0.7,0c0.2-0.1,0.4-0.3,0.5-0.5c0.1-0.2,0.1-0.5,0-0.7c-0.1-0.2-0.3-0.4-0.5-0.5
		c-0.8-0.4-1.5-0.9-2-1.6l0,0c0.4-1.5,0.6-3,0.5-4.6c1.7,0.2,3.3,1,4.5,2.2c1.5,1.5,2.3,3.5,2.3,5.6c0,0.5-0.1,1.1-0.2,1.6
		c0,0.1,0,0.1,0,0.2c0,0.2,0,0.3,0.1,0.5c0.1,0.2,0.3,0.3,0.6,0.4c0.2,0,0.5,0,0.7-0.1c0.2-0.1,0.3-0.4,0.4-0.6
		c0.7-3.2-0.3-6.5-2.6-8.8c-0.6-0.6-1.3-1.2-2.1-1.6l0,0c0.4-1.5,1.4-2.8,2.7-3.5c0.9-0.5,1.9-0.8,3-0.8l0,0c0.5,0,0.9,0.1,1.4,0.2
		c1.3,0.4,2.5,1.2,3.3,2.3c-1.2,0.4-2.2,1.1-3.1,2c-0.2,0.2-0.3,0.4-0.3,0.6c0,0.5,0.4,0.9,0.9,0.9c0,0,0,0,0,0
		c0.2,0,0.5-0.1,0.6-0.3c1.2-1.2,2.8-1.9,4.5-1.9c0,1.3,0.3,2.7,0.7,3.9c-0.9,1.3-1.4,2.8-1.4,4.3l0,0c0,0.2,0.1,0.5,0.3,0.6
		c0.3,0.3,0.9,0.3,1.2,0c0,0,0,0,0,0c0.2-0.2,0.3-0.4,0.3-0.6c0-1,0.3-2,0.9-2.8h0.1c1.4-0.2,2.7-0.5,4-1c0.1,0.2,0.1,0.5,0.2,0.8
		c0.1,0.4,0.1,0.8,0.1,1.2c0,0.7-0.1,1.4-0.4,2.1c-1.2,0.3-2.3,1-3.1,1.9c-0.2,0.2-0.3,0.4-0.3,0.6c0,0.2,0.1,0.5,0.3,0.6
		c0.2,0.2,0.4,0.3,0.6,0.3c0.2,0,0.5-0.1,0.6-0.3c2.1-2.2,5.6-2.2,7.8-0.1c0,0,0,0,0.1,0.1c2.1,2.1,2.2,5.5,0.2,7.7L390.7,989.3z
		 M386.6,983.5c-0.4,0-0.7,0.2-0.8,0.5c-0.4,0.8-1.1,1.4-1.9,1.6c-0.9,0.2-1.8,0-2.6-0.5c-0.1-0.1-0.3-0.2-0.5-0.2h-0.2
		c-0.2,0-0.4,0.2-0.6,0.4c-0.1,0.2-0.2,0.4-0.1,0.7c0,0.2,0.2,0.4,0.4,0.6c1.2,0.8,2.6,1.1,4,0.8c1.4-0.3,2.5-1.3,3.1-2.5
		c0.2-0.3,0.2-0.6,0-0.8C387.2,983.6,387,983.4,386.6,983.5L386.6,983.5z M375.8,983.9c-0.8-0.3-1.4-1-1.6-1.9
		c-0.2-0.9,0-1.8,0.5-2.6c0.2-0.3,0.2-0.6,0.1-0.9c-0.2-0.4-0.8-0.6-1.2-0.4c-0.1,0.1-0.2,0.2-0.3,0.3c-0.8,1.2-1.1,2.6-0.8,4
		c0.3,1.4,1.3,2.5,2.5,3.1c0.1,0.1,0.3,0.1,0.4,0.1c0.1,0,0.2,0,0.3,0c0.2-0.1,0.4-0.2,0.5-0.5C376.4,984.7,376.2,984.1,375.8,983.9
		C375.8,983.9,375.8,983.9,375.8,983.9L375.8,983.9z M366.7,982.8c-0.6-0.4-1.3-0.6-2-0.7c-0.3,0-0.5,0-0.8,0
		c-0.5,0-0.9,0.1-1.4,0.2l0,0c-0.2,0.1-0.4,0.2-0.5,0.4c-0.1,0.2-0.2,0.4-0.1,0.7c0.1,0.5,0.6,0.8,1.1,0.6c0,0,0,0,0,0
		c0.9-0.3,1.9-0.1,2.8,0.4c0.8,0.5,1.5,1.3,1.7,2.2c0,0.2,0.2,0.4,0.4,0.6c0.2,0.1,0.5,0.2,0.7,0.1c0.2-0.1,0.4-0.2,0.5-0.4
		c0.1-0.2,0.1-0.5,0.1-0.7C368.8,984.7,368,983.5,366.7,982.8L366.7,982.8z M358.1,985.9c-0.9,0.2-1.9,0.1-2.8-0.4
		c-0.8-0.5-1.4-1.3-1.7-2.2c-0.1-0.4-0.4-0.7-0.8-0.7c-0.3,0-0.6,0.1-0.7,0.3c-0.2,0.2-0.2,0.5-0.2,0.8c0.8,2.9,3.7,4.6,6.6,3.8
		c0,0,0,0,0,0c0.4-0.1,0.6-0.5,0.6-0.9c0-0.1,0-0.1,0-0.2C359.1,986,358.7,985.7,358.1,985.9L358.1,985.9z M359.2,986.5
		c-0.1-0.5-0.6-0.8-1.1-0.6c-0.9,0.2-1.9,0.1-2.8-0.4c-0.8-0.5-1.4-1.3-1.7-2.2c-0.1-0.4-0.4-0.7-0.8-0.7c-0.3,0-0.6,0.1-0.7,0.3
		c-0.2,0.2-0.2,0.5-0.2,0.8c0.8,2.9,3.7,4.6,6.6,3.8c0,0,0,0,0,0c0.4-0.1,0.6-0.5,0.6-0.9C359.3,986.6,359.3,986.5,359.2,986.5
		L359.2,986.5z M369.2,986.1c-0.4-1.4-1.3-2.6-2.5-3.3c-0.6-0.4-1.3-0.6-2-0.7c-0.3,0-0.5,0-0.8,0c-0.5,0-0.9,0.1-1.4,0.2l0,0
		c-0.2,0.1-0.4,0.2-0.5,0.4c-0.1,0.2-0.2,0.4-0.1,0.7c0.1,0.5,0.6,0.8,1.1,0.6c0,0,0,0,0,0c0.9-0.3,1.9-0.1,2.8,0.4
		c0.8,0.5,1.5,1.3,1.7,2.2c0,0.2,0.2,0.4,0.4,0.6c0.2,0.1,0.5,0.2,0.7,0.1c0.2-0.1,0.4-0.2,0.5-0.4
		C369.3,986.5,369.3,986.3,369.2,986.1L369.2,986.1z M376.2,984.4c-0.1-0.2-0.3-0.4-0.5-0.5c-0.8-0.3-1.4-1-1.6-1.9
		c-0.2-0.9,0-1.8,0.5-2.6c0.2-0.3,0.2-0.6,0.1-0.9c-0.2-0.4-0.8-0.6-1.2-0.4c-0.1,0.1-0.2,0.2-0.3,0.3c-0.8,1.2-1.1,2.6-0.8,4
		c0.3,1.4,1.3,2.5,2.5,3.1c0.1,0.1,0.3,0.1,0.4,0.1c0.1,0,0.2,0,0.3,0c0.2-0.1,0.4-0.2,0.5-0.5c0.2-0.2,0.2-0.5,0.1-0.8L376.2,984.4
		z M387.3,983.9c-0.2-0.3-0.4-0.4-0.7-0.4c-0.4,0-0.7,0.2-0.8,0.5c-0.4,0.8-1.1,1.4-1.9,1.6c-0.9,0.2-1.8,0-2.6-0.5
		c-0.1-0.1-0.3-0.2-0.5-0.2h-0.2c-0.2,0-0.4,0.2-0.6,0.4c-0.1,0.2-0.2,0.4-0.1,0.7c0,0.2,0.2,0.4,0.4,0.6c1.2,0.8,2.6,1.1,4,0.8
		c1.4-0.3,2.5-1.3,3.1-2.5C387.5,984.5,387.5,984.1,387.3,983.9L387.3,983.9z M376.2,984.4c-0.1-0.2-0.3-0.4-0.5-0.5
		c-0.8-0.3-1.4-1-1.6-1.9c-0.2-0.9,0-1.8,0.5-2.6c0.2-0.3,0.2-0.6,0.1-0.9c-0.2-0.4-0.8-0.6-1.2-0.4c-0.1,0.1-0.2,0.2-0.3,0.3
		c-0.8,1.2-1.1,2.6-0.8,4c0.3,1.4,1.3,2.5,2.5,3.1c0.1,0.1,0.3,0.1,0.4,0.1c0.1,0,0.2,0,0.3,0c0.2-0.1,0.4-0.2,0.5-0.5
		c0.2-0.2,0.2-0.5,0.1-0.8L376.2,984.4z M369.2,986.1c-0.4-1.4-1.3-2.6-2.5-3.3c-0.6-0.4-1.3-0.6-2-0.7c-0.3,0-0.5,0-0.8,0
		c-0.5,0-0.9,0.1-1.4,0.2l0,0c-0.2,0.1-0.4,0.2-0.5,0.4c-0.1,0.2-0.2,0.4-0.1,0.7c0.1,0.5,0.6,0.8,1.1,0.6c0,0,0,0,0,0
		c0.9-0.3,1.9-0.1,2.8,0.4c0.8,0.5,1.5,1.3,1.7,2.2c0,0.2,0.2,0.4,0.4,0.6c0.2,0.1,0.5,0.2,0.7,0.1c0.2-0.1,0.4-0.2,0.5-0.4
		C369.3,986.5,369.3,986.3,369.2,986.1L369.2,986.1z M359.2,986.5c-0.1-0.5-0.6-0.8-1.1-0.6c-0.9,0.2-1.9,0.1-2.8-0.4
		c-0.8-0.5-1.4-1.3-1.7-2.2c-0.1-0.4-0.4-0.7-0.8-0.7c-0.3,0-0.6,0.1-0.7,0.3c-0.2,0.2-0.2,0.5-0.2,0.8c0.8,2.9,3.7,4.6,6.6,3.8
		c0,0,0,0,0,0c0.4-0.1,0.6-0.5,0.6-0.9C359.3,986.6,359.3,986.5,359.2,986.5L359.2,986.5z M387.3,983.9c-0.2-0.3-0.4-0.4-0.7-0.4
		c-0.4,0-0.7,0.2-0.8,0.5c-0.4,0.8-1.1,1.4-1.9,1.6c-0.9,0.2-1.8,0-2.6-0.5c-0.1-0.1-0.3-0.2-0.5-0.2h-0.2c-0.2,0-0.4,0.2-0.6,0.4
		c-0.1,0.2-0.2,0.4-0.1,0.7c0,0.2,0.2,0.4,0.4,0.6c1.2,0.8,2.6,1.1,4,0.8c1.4-0.3,2.5-1.3,3.1-2.5
		C387.5,984.5,387.5,984.1,387.3,983.9L387.3,983.9z"/>
	<g>
		<g class="st2">
			<path d="M64,459.7l1.9,7.6c0.3,1,0.4,2,0.3,2.9c-0.1,0.9-0.3,1.6-0.7,2.3c-0.6,1-1.5,1.6-2.6,1.9l-0.1,0
				c-0.6,0.2-1.2,0.2-1.7,0.1c-0.5-0.1-1-0.2-1.4-0.4s-0.8-0.5-1.1-0.8c-0.3-0.3-0.6-0.6-0.9-1c0,0.6-0.1,1.1-0.2,1.7
				c-0.1,0.6-0.3,1.1-0.6,1.5c-0.3,0.5-0.6,0.9-1,1.2c-0.4,0.3-0.9,0.6-1.6,0.8l-0.1,0c-0.8,0.2-1.5,0.2-2.2,0.1
				c-0.7-0.2-1.3-0.5-1.9-0.9c-0.6-0.5-1.1-1.1-1.5-1.8c-0.4-0.7-0.8-1.6-1-2.6l-2-7.9L64,459.7z M49,472c0.4,1.6,1,2.7,2,3.5
				c0.9,0.8,1.9,1,3.1,0.7l0.1,0c1.1-0.3,1.9-1,2.3-2.1c0.4-1.1,0.3-2.6-0.1-4.4l-1.6-6.2l-7.4,1.9L49,472z M57.4,469.3
				c0.2,0.7,0.4,1.3,0.7,1.8c0.3,0.5,0.7,1,1.1,1.3c0.4,0.3,0.9,0.6,1.4,0.7c0.5,0.1,1.1,0.1,1.7-0.1l0.1,0c1-0.3,1.7-0.9,2.2-1.8
				c0.4-0.9,0.5-2.2,0.1-3.6l-1.6-6.2l-7.3,1.8L57.4,469.3z"/>
		</g>
		<g class="st2">
			<path d="M51.4,488.4c-0.2-0.9-0.3-1.8-0.1-2.6c0.1-0.9,0.4-1.7,0.9-2.5c0.5-0.8,1.1-1.4,1.8-2c0.8-0.6,1.7-1,2.7-1.2l0.1,0
				c1-0.2,1.9-0.3,2.8-0.2c0.9,0.1,1.8,0.4,2.5,0.8c0.8,0.4,1.4,1,2,1.6s1,1.5,1.2,2.4c0.2,0.9,0.3,1.8,0.1,2.7
				c-0.2,0.8-0.5,1.6-1,2.3c-0.5,0.7-1.1,1.3-1.9,1.8c-0.8,0.5-1.7,0.9-2.7,1.1c-0.1,0-0.2,0.1-0.3,0.1c-0.1,0-0.1,0-0.3,0
				l-2.8-11.1c-0.8,0.3-1.5,0.6-2.1,1.1c-0.6,0.5-1,1-1.3,1.6c-0.3,0.6-0.5,1.2-0.6,1.9c-0.1,0.7,0,1.3,0.1,2c0.3,1,0.7,1.9,1.3,2.5
				c0.6,0.6,1.2,1.1,2,1.6l-0.6,1.1c-0.9-0.5-1.7-1.1-2.4-1.9C52.3,490.7,51.8,489.7,51.4,488.4z M60.2,491c0.7-0.2,1.3-0.5,1.8-0.9
				c0.6-0.4,1-0.8,1.4-1.3c0.4-0.5,0.6-1.1,0.8-1.7c0.1-0.6,0.1-1.4-0.1-2.1c-0.2-0.7-0.5-1.3-0.9-1.8c-0.4-0.5-0.9-0.9-1.5-1.2
				s-1.2-0.5-1.9-0.6c-0.7-0.1-1.4-0.1-2.2,0L60.2,491z"/>
		</g>
		<g class="st2">
			<path d="M67,492.3l0.4,1.5l-10.6,8.1l13.2,2.1l0.4,1.4l-15-2.6l-0.3-1.1L67,492.3z"/>
		</g>
		<g class="st2">
			<path d="M58.7,517.2c-0.3-1-0.3-2-0.1-2.9c0.2-0.9,0.5-1.8,1-2.5c0.5-0.8,1.1-1.4,1.8-2c0.8-0.6,1.6-0.9,2.5-1.2l0.1,0
				c0.9-0.2,1.9-0.3,2.8-0.2c0.9,0.1,1.8,0.4,2.6,0.9c0.8,0.5,1.5,1.1,2.1,1.8c0.6,0.7,1,1.6,1.3,2.6c0.3,1,0.3,2,0.1,2.9
				c-0.2,0.9-0.5,1.8-1,2.5s-1.1,1.4-1.8,2c-0.8,0.6-1.6,0.9-2.5,1.2l-0.1,0c-0.9,0.2-1.9,0.3-2.8,0.2c-0.9-0.1-1.8-0.4-2.6-0.9
				c-0.8-0.5-1.5-1.1-2.1-1.8C59.4,519.1,58.9,518.2,58.7,517.2z M59.9,517c0.2,0.8,0.5,1.5,1,2.1c0.5,0.6,1,1.1,1.7,1.4
				s1.3,0.6,2.1,0.7c0.8,0.1,1.5,0,2.3-0.1l0.1,0c0.8-0.2,1.5-0.5,2.1-1c0.6-0.5,1.1-1,1.5-1.6c0.4-0.6,0.7-1.3,0.8-2.1
				c0.1-0.8,0.1-1.5-0.1-2.3c-0.2-0.8-0.5-1.5-1-2.1c-0.5-0.6-1-1.1-1.7-1.4c-0.6-0.4-1.3-0.6-2.1-0.7c-0.8-0.1-1.5,0-2.3,0.2
				l-0.1,0c-0.8,0.2-1.5,0.5-2.1,1c-0.6,0.5-1.1,1-1.5,1.6c-0.4,0.6-0.7,1.3-0.8,2.1C59.7,515.4,59.7,516.2,59.9,517z"/>
		</g>
		<g class="st2">
			<path d="M75,524.4l0.3,1.3l-3.8,1c0.7,0.1,1.3,0.3,1.9,0.6c0.6,0.3,1.2,0.6,1.6,1c0.5,0.4,0.9,0.9,1.2,1.5
				c0.3,0.6,0.6,1.2,0.7,1.8l-1.4,0.4l0-0.1c-0.2-0.8-0.5-1.5-1-2.1c-0.5-0.6-1-1.1-1.7-1.5c-0.7-0.4-1.5-0.6-2.4-0.7
				c-0.9-0.1-1.9,0-3,0.2L62,529l-0.3-1.3L75,524.4z"/>
		</g>
		<g class="st2">
			<path d="M64.7,536.6l13.9,6.7l-2.3-9.3l1.2-0.3l2.8,11.2l-0.7,0.2l-13.9-6.7L68,548l-1.2,0.3l-2.9-11.5L64.7,536.6z"/>
			<path d="M68.7,557.1c-0.2-0.8-0.3-1.6-0.2-2.4c0.1-0.7,0.3-1.4,0.7-2c0.4-0.6,0.9-1.1,1.5-1.5c0.6-0.4,1.3-0.7,2.1-0.9l8.2-2.1
				l0.3,1.3l-7.9,2c-1.4,0.3-2.4,1-3,1.9c-0.6,0.9-0.8,2.1-0.5,3.5c0.2,0.6,0.4,1.2,0.8,1.7c0.4,0.5,0.8,0.9,1.4,1.2
				c0.5,0.3,1.1,0.5,1.8,0.6c0.6,0.1,1.3,0,2-0.1l7.7-1.9l0.3,1.3l-13.4,3.4l-0.3-1.3l2.5-0.6c-0.9-0.3-1.7-0.7-2.5-1.3
				C69.6,559.3,69,558.3,68.7,557.1z"/>
			<path d="M69,574.7c-0.6-2.3-0.4-4.5,0.5-6.7l1.2,0.5c-0.8,1.9-1,3.9-0.5,5.9c0.2,0.8,0.5,1.4,0.9,2c0.4,0.6,0.8,1.1,1.4,1.4
				s1.2,0.6,1.9,0.7c0.7,0.1,1.5,0,2.3-0.2l1.9-0.5c-0.5-0.2-1-0.4-1.4-0.7c-0.5-0.3-0.9-0.6-1.3-1c-0.4-0.4-0.8-0.8-1.1-1.3
				c-0.3-0.5-0.5-1.1-0.7-1.8c-0.2-0.8-0.3-1.6-0.1-2.5s0.4-1.6,0.8-2.4c0.4-0.7,0.9-1.4,1.6-2s1.5-1,2.5-1.2l0.1,0
				c1-0.2,1.9-0.3,2.8-0.1s1.7,0.5,2.4,0.9c0.7,0.5,1.3,1,1.8,1.7c0.5,0.7,0.8,1.4,1,2.2c0.2,0.7,0.2,1.3,0.2,1.9
				c0,0.6-0.1,1.2-0.3,1.7c-0.2,0.5-0.4,1-0.6,1.5c-0.3,0.5-0.6,0.9-0.9,1.3l2.7-0.7l0.3,1.3l-11.3,2.8c-1,0.2-1.9,0.3-2.7,0.2
				c-0.8-0.1-1.6-0.4-2.3-0.8c-0.7-0.4-1.3-1-1.9-1.8C69.6,576.6,69.2,575.7,69,574.7z M75.4,572.9c0.2,0.7,0.5,1.4,0.9,2
				c0.4,0.6,0.9,1.1,1.5,1.5c0.6,0.4,1.2,0.7,1.9,0.8c0.7,0.2,1.4,0.1,2.2-0.1l0.1,0c0.8-0.2,1.4-0.5,2-1c0.5-0.5,1-1,1.3-1.7
				c0.3-0.6,0.5-1.3,0.6-2c0.1-0.7,0-1.4-0.2-2.1c-0.2-0.7-0.5-1.3-0.9-1.9c-0.4-0.6-0.9-1-1.4-1.4c-0.6-0.4-1.2-0.6-1.9-0.7
				s-1.4-0.1-2.2,0.1l-0.1,0c-0.8,0.2-1.4,0.5-2,0.9c-0.6,0.4-1,0.9-1.3,1.5c-0.3,0.6-0.5,1.2-0.6,1.9
				C75.2,571.5,75.2,572.2,75.4,572.9z"/>
		</g>
		<g class="st2">
			<path d="M76.9,589.2c-0.1-0.5-0.2-1-0.2-1.5c0-0.5,0.1-0.9,0.4-1.4c0.2-0.4,0.5-0.8,1-1.1c0.4-0.3,0.9-0.5,1.6-0.7l8.7-2.2
				l-0.5-1.9l1.2-0.3l0.5,1.9l4.3-1.1l0.3,1.3l-4.3,1.1l1.2,4.7l-1.2,0.3l-1.2-4.7l-8.6,2.2c-1,0.2-1.6,0.7-1.8,1.3
				c-0.3,0.6-0.3,1.3-0.1,2.1c0.1,0.3,0.2,0.6,0.3,0.9c0.1,0.3,0.3,0.6,0.6,0.9l-1.2,0.3c-0.2-0.3-0.4-0.6-0.6-0.9
				C77.1,590,77,589.7,76.9,589.2z"/>
		</g>
		<g class="st2">
			<path d="M79.6,600.3c-0.2-0.9-0.3-1.8-0.1-2.6c0.1-0.9,0.4-1.7,0.9-2.5c0.5-0.8,1.1-1.4,1.8-2c0.8-0.6,1.7-1,2.7-1.2l0.1,0
				c1-0.2,1.9-0.3,2.8-0.2c0.9,0.1,1.8,0.4,2.5,0.8c0.8,0.4,1.4,1,2,1.6s1,1.5,1.2,2.4c0.2,0.9,0.3,1.8,0.1,2.7
				c-0.2,0.8-0.5,1.6-1,2.3c-0.5,0.7-1.1,1.3-1.9,1.8c-0.8,0.5-1.7,0.9-2.7,1.1c-0.1,0-0.2,0.1-0.3,0.1c-0.1,0-0.1,0-0.3,0
				l-2.8-11.1c-0.8,0.3-1.5,0.6-2.1,1.1c-0.6,0.5-1,1-1.3,1.6c-0.3,0.6-0.5,1.2-0.6,1.9c-0.1,0.7,0,1.3,0.1,2c0.3,1,0.7,1.9,1.3,2.5
				c0.6,0.6,1.2,1.1,2,1.6l-0.6,1.1c-0.9-0.5-1.7-1.1-2.4-1.9C80.4,602.6,79.9,601.6,79.6,600.3z M88.4,602.9
				c0.7-0.2,1.3-0.5,1.8-0.9c0.6-0.4,1-0.8,1.4-1.3c0.4-0.5,0.6-1.1,0.8-1.7c0.1-0.6,0.1-1.4-0.1-2.1c-0.2-0.7-0.5-1.3-0.9-1.8
				c-0.4-0.5-0.9-0.9-1.5-1.2s-1.2-0.5-1.9-0.6c-0.7-0.1-1.4-0.1-2.2,0L88.4,602.9z"/>
		</g>
		<g class="st2">
			<path d="M102.6,612.9l1.9,7.7c0.3,1.1,0.4,2.2,0.3,3.1s-0.4,1.8-0.8,2.5c-0.3,0.5-0.8,1-1.3,1.4c-0.5,0.4-1.1,0.7-1.8,0.8l-0.1,0
				c-0.8,0.2-1.5,0.2-2.2,0.1c-0.7-0.1-1.3-0.4-1.8-0.7c-0.6-0.4-1.1-0.8-1.5-1.4c-0.4-0.6-0.8-1.3-1.1-2l-6.3,8l-0.4-1.7l6.1-7.8
				l0-0.1l-1.5-5.9l-7.6,1.9l-0.3-1.4L102.6,612.9z M95,622.8c0.2,0.8,0.5,1.5,0.8,2.1c0.4,0.6,0.8,1.1,1.3,1.5s1,0.6,1.6,0.8
				c0.6,0.1,1.2,0.1,1.9,0l0.1,0c1.2-0.3,2.1-1,2.6-2.1c0.5-1.1,0.5-2.5,0.1-4.2l-1.6-6.3l-8.3,2.1L95,622.8z"/>
		</g>
		<g class="st2">
			<path d="M89.9,641.3c-0.2-0.9-0.3-1.8-0.1-2.6c0.1-0.9,0.4-1.7,0.9-2.5c0.5-0.8,1.1-1.4,1.8-2c0.8-0.6,1.7-1,2.7-1.2l0.1,0
				c1-0.2,1.9-0.3,2.8-0.2c0.9,0.1,1.8,0.4,2.5,0.8c0.8,0.4,1.4,1,2,1.6s1,1.5,1.2,2.4c0.2,0.9,0.3,1.8,0.1,2.7
				c-0.2,0.8-0.5,1.6-1,2.3c-0.5,0.7-1.1,1.3-1.9,1.8c-0.8,0.5-1.7,0.9-2.7,1.1c-0.1,0-0.2,0.1-0.3,0.1c-0.1,0-0.1,0-0.3,0
				l-2.8-11.1c-0.8,0.3-1.5,0.6-2.1,1.1c-0.6,0.5-1,1-1.3,1.6c-0.3,0.6-0.5,1.2-0.6,1.9c-0.1,0.7,0,1.3,0.1,2c0.3,1,0.7,1.9,1.3,2.5
				c0.6,0.6,1.2,1.1,2,1.6l-0.6,1.1c-0.9-0.5-1.7-1.1-2.4-1.9C90.8,643.6,90.2,642.6,89.9,641.3z M98.7,643.9
				c0.7-0.2,1.3-0.5,1.8-0.9c0.6-0.4,1-0.8,1.4-1.3c0.4-0.5,0.6-1.1,0.8-1.7c0.1-0.6,0.1-1.4-0.1-2.1c-0.2-0.7-0.5-1.3-0.9-1.8
				c-0.4-0.5-0.9-0.9-1.5-1.2s-1.2-0.5-1.9-0.6c-0.7-0.1-1.4-0.1-2.2,0L98.7,643.9z"/>
			<path d="M106,647.5l0.3,1.3L93,652.1l-0.3-1.3L106,647.5z M111.2,646l0.4,1.6l-1.8,0.4l-0.4-1.6L111.2,646z"/>
			<path d="M113.3,652.1l0.3,1.3l-8.2,2.1c0.9,0.3,1.7,0.7,2.5,1.3c0.7,0.6,1.3,1.6,1.6,2.8c0.2,0.8,0.3,1.6,0.2,2.4
				c-0.1,0.7-0.3,1.4-0.7,2c-0.4,0.6-0.9,1.1-1.5,1.5c-0.6,0.4-1.3,0.7-2.1,0.9l-8.2,2.1l-0.3-1.3l7.9-2c1.4-0.3,2.4-1,3-1.9
				c0.6-0.9,0.8-2.1,0.5-3.5c-0.2-0.7-0.4-1.2-0.8-1.7c-0.4-0.5-0.8-0.9-1.4-1.2c-0.5-0.3-1.1-0.5-1.8-0.6c-0.6-0.1-1.3,0-2,0.1
				l-7.7,1.9l-0.3-1.3L113.3,652.1z"/>
			<path d="M99.3,678.5c-0.2-0.9-0.3-1.8-0.1-2.6c0.1-0.9,0.4-1.7,0.9-2.5c0.5-0.8,1.1-1.4,1.8-2c0.8-0.6,1.7-1,2.7-1.2l0.1,0
				c1-0.2,1.9-0.3,2.8-0.2c0.9,0.1,1.8,0.4,2.5,0.8c0.8,0.4,1.4,1,2,1.6s1,1.5,1.2,2.4c0.2,0.9,0.3,1.8,0.1,2.7
				c-0.2,0.8-0.5,1.6-1,2.3c-0.5,0.7-1.1,1.3-1.9,1.8c-0.8,0.5-1.7,0.9-2.7,1.1c-0.1,0-0.2,0.1-0.3,0.1c-0.1,0-0.1,0-0.3,0
				l-2.8-11.1c-0.8,0.3-1.5,0.6-2.1,1.1c-0.6,0.5-1,1-1.3,1.6c-0.3,0.6-0.5,1.2-0.6,1.9c-0.1,0.7,0,1.3,0.1,2c0.3,1,0.7,1.9,1.3,2.5
				c0.6,0.6,1.2,1.1,2,1.6l-0.6,1.1c-0.9-0.5-1.7-1.1-2.4-1.9C100.1,680.7,99.6,679.7,99.3,678.5z M108,681.1
				c0.7-0.2,1.3-0.5,1.8-0.9c0.6-0.4,1-0.8,1.4-1.3c0.4-0.5,0.6-1.1,0.8-1.7c0.1-0.7,0.1-1.4-0.1-2.1c-0.2-0.7-0.5-1.3-0.9-1.8
				c-0.4-0.5-0.9-0.9-1.5-1.2c-0.6-0.3-1.2-0.5-1.9-0.6c-0.7-0.1-1.4-0.1-2.2,0L108,681.1z"/>
			<path d="M115.3,684.4l0.3,1.3l-2.5,0.6c0.9,0.3,1.7,0.7,2.5,1.3c0.7,0.6,1.3,1.6,1.6,2.8c0.2,0.8,0.3,1.6,0.2,2.4
				c-0.1,0.7-0.3,1.4-0.7,2c-0.4,0.6-0.9,1.1-1.5,1.5c-0.6,0.4-1.3,0.7-2.1,0.9l-8.2,2.1l-0.3-1.3l7.9-2c1.4-0.3,2.4-1,3-1.9
				c0.6-0.9,0.8-2.1,0.5-3.5c-0.2-0.7-0.4-1.2-0.8-1.7c-0.4-0.5-0.8-0.9-1.4-1.2c-0.5-0.3-1.1-0.5-1.8-0.6c-0.6-0.1-1.3,0-2,0.1
				l-7.7,1.9l-0.3-1.3L115.3,684.4z"/>
		</g>
		<g class="st2">
			<path d="M118.3,701.2l-0.5-1.9l1.2-0.3l0.5,1.9l1.3-0.3c1.5-0.4,2.8-0.3,3.8,0.3c0.9,0.5,1.5,1.4,1.8,2.5
				c0.1,0.4,0.2,0.8,0.2,1.1c0,0.3,0,0.7,0,1l-1.2,0.3c0-0.4,0-0.8,0-1.1c0-0.3-0.1-0.6-0.2-1c-0.5-1.8-1.8-2.4-4.1-1.8l-1.3,0.3
				l1.2,4.7l-1.2,0.3l-1.2-4.7l-12.2,3.1l-0.3-1.3L118.3,701.2z"/>
		</g>
		<g class="st2">
			<path d="M109.3,718.4c-0.3-1-0.3-2-0.1-2.9c0.2-0.9,0.5-1.8,1-2.5c0.5-0.8,1.1-1.4,1.8-2c0.8-0.6,1.6-0.9,2.5-1.2l0.1,0
				c0.9-0.2,1.9-0.3,2.8-0.2c0.9,0.1,1.8,0.4,2.6,0.9c0.8,0.5,1.5,1.1,2.1,1.8c0.6,0.7,1,1.6,1.3,2.6c0.3,1,0.3,2,0.1,2.9
				c-0.2,0.9-0.5,1.8-1,2.5s-1.1,1.4-1.8,2c-0.8,0.6-1.6,0.9-2.5,1.2l-0.1,0c-0.9,0.2-1.9,0.3-2.8,0.2c-0.9-0.1-1.8-0.4-2.6-0.9
				c-0.8-0.5-1.5-1.1-2.1-1.8C110,720.3,109.6,719.4,109.3,718.4z M110.6,718.2c0.2,0.8,0.5,1.5,1,2.1c0.5,0.6,1,1.1,1.7,1.4
				s1.3,0.6,2.1,0.7c0.8,0.1,1.5,0,2.3-0.1l0.1,0c0.8-0.2,1.5-0.5,2.1-1c0.6-0.5,1.1-1,1.5-1.6c0.4-0.6,0.7-1.3,0.8-2.1
				c0.1-0.8,0.1-1.5-0.1-2.3c-0.2-0.8-0.5-1.5-1-2.1c-0.5-0.6-1-1.1-1.7-1.4c-0.6-0.4-1.3-0.6-2.1-0.7c-0.8-0.1-1.5,0-2.3,0.2
				l-0.1,0c-0.8,0.2-1.5,0.5-2.1,1c-0.6,0.5-1.1,1-1.5,1.6c-0.4,0.6-0.7,1.3-0.8,2.1C110.4,716.6,110.4,717.4,110.6,718.2z"/>
			<path d="M131.5,724.3l0.3,1.3l-19.1,4.8l-0.3-1.3L131.5,724.3z"/>
			<path d="M111.1,742.2c-0.6-2.3-0.4-4.5,0.5-6.7l1.2,0.5c-0.8,1.9-1,3.9-0.5,5.9c0.2,0.8,0.5,1.4,0.9,2c0.4,0.6,0.8,1.1,1.4,1.4
				c0.6,0.4,1.2,0.6,1.9,0.7c0.7,0.1,1.5,0,2.3-0.2l1.9-0.5c-0.5-0.2-1-0.4-1.4-0.7c-0.5-0.3-0.9-0.6-1.3-1s-0.8-0.8-1.1-1.3
				c-0.3-0.5-0.5-1.1-0.7-1.8c-0.2-0.8-0.3-1.6-0.1-2.5s0.4-1.6,0.8-2.4c0.4-0.7,0.9-1.4,1.6-2c0.7-0.6,1.5-1,2.5-1.2l0.1,0
				c1-0.2,1.9-0.3,2.8-0.1c0.9,0.2,1.7,0.5,2.4,0.9c0.7,0.5,1.3,1,1.8,1.7c0.5,0.7,0.8,1.4,1,2.2c0.2,0.7,0.2,1.3,0.2,1.9
				c0,0.6-0.1,1.2-0.3,1.7c-0.2,0.5-0.4,1-0.6,1.5c-0.3,0.5-0.6,0.9-0.9,1.3l2.7-0.7l0.3,1.3l-11.3,2.8c-1,0.2-1.9,0.3-2.7,0.2
				c-0.8-0.1-1.6-0.4-2.3-0.8c-0.7-0.4-1.3-1-1.9-1.8C111.8,744,111.4,743.2,111.1,742.2z M117.6,740.3c0.2,0.7,0.5,1.4,0.9,2
				c0.4,0.6,0.9,1.1,1.5,1.5c0.6,0.4,1.2,0.7,1.9,0.8c0.7,0.2,1.4,0.1,2.2-0.1l0.1,0c0.8-0.2,1.4-0.5,2-1c0.5-0.5,1-1,1.3-1.7
				s0.5-1.3,0.6-2c0.1-0.7,0-1.4-0.2-2.1c-0.2-0.7-0.5-1.3-0.9-1.9c-0.4-0.6-0.9-1-1.4-1.4c-0.6-0.4-1.2-0.6-1.9-0.7
				c-0.7-0.1-1.4-0.1-2.2,0.1l-0.1,0c-0.8,0.2-1.4,0.5-2,0.9c-0.6,0.4-1,0.9-1.3,1.5c-0.3,0.6-0.5,1.2-0.6,1.9
				C117.3,739,117.4,739.7,117.6,740.3z"/>
			<path d="M119.3,758c-0.2-0.9-0.3-1.8-0.1-2.6c0.1-0.9,0.4-1.7,0.9-2.5c0.5-0.8,1.1-1.4,1.8-2c0.8-0.6,1.7-1,2.7-1.2l0.1,0
				c1-0.2,1.9-0.3,2.8-0.2c0.9,0.1,1.8,0.4,2.5,0.8c0.8,0.4,1.4,1,2,1.6s1,1.5,1.2,2.4c0.2,0.9,0.3,1.8,0.1,2.7
				c-0.2,0.8-0.5,1.6-1,2.3c-0.5,0.7-1.1,1.3-1.9,1.8c-0.8,0.5-1.7,0.9-2.7,1.1c-0.1,0-0.2,0.1-0.3,0.1c-0.1,0-0.1,0-0.3,0
				l-2.8-11.1c-0.8,0.3-1.5,0.6-2.1,1.1c-0.6,0.5-1,1-1.3,1.6c-0.3,0.6-0.5,1.2-0.6,1.9c-0.1,0.7,0,1.3,0.1,2c0.3,1,0.7,1.9,1.3,2.5
				c0.6,0.6,1.2,1.1,2,1.6l-0.6,1.1c-0.9-0.5-1.7-1.1-2.4-1.9C120.1,760.3,119.6,759.3,119.3,758z M128.1,760.6
				c0.7-0.2,1.3-0.5,1.8-0.9c0.6-0.4,1-0.8,1.4-1.3c0.4-0.5,0.6-1.1,0.8-1.7c0.1-0.7,0.1-1.4-0.1-2.1c-0.2-0.7-0.5-1.3-0.9-1.8
				c-0.4-0.5-0.9-0.9-1.5-1.2c-0.6-0.3-1.2-0.5-1.9-0.6c-0.7-0.1-1.4-0.1-2.2,0L128.1,760.6z"/>
		</g>
	</g>
	
		<rect x="131.7" y="137.2" transform="matrix(0.9697 -0.2444 0.2444 0.9697 -156.0566 52.2846)" class="st0" width="2" height="1035.7"/>
	<path class="st0" d="M246.6,1146.4c0.4-0.4,1-0.4,1.4,0l11.1,10.5l4.8-14.5c0.2-0.5,0.7-0.8,1.3-0.6c0.5,0.2,0.8,0.7,0.6,1.3
		l-5.3,16c-0.1,0.3-0.4,0.6-0.7,0.7c-0.3,0.1-0.7,0-0.9-0.2l-12.3-11.6c-0.1-0.1-0.2-0.3-0.3-0.5
		C246.2,1147,246.3,1146.6,246.6,1146.4z"/>
</g>
</svg>
