<?xml version="1.0" encoding="UTF-8"?>
<svg id="Layer_2" data-name="Layer 2" xmlns="http://www.w3.org/2000/svg" viewBox="0 0 388.6 316.54">
  <defs>
    <style>
      .cls-1 {
        opacity: .7;
      }

      .cls-2 {
        fill: #fff;
      }

      .cls-3 {
        fill: #95c38b;
      }

      .cls-4 {
        fill: #ff735d;
      }

      .cls-5 {
        fill: #a8561e;
      }

      .cls-6 {
        fill: #455a64;
      }

      .cls-7 {
        fill: #c27460;
      }

      .cls-8 {
        fill: #86d1cd;
      }

      .cls-9 {
        fill: #a8d29f;
      }

      .cls-10 {
        fill: #ffb93e;
      }

      .cls-11 {
        fill: #db8f1f;
      }

      .cls-12 {
        fill: #e1dfab;
      }

      .cls-13 {
        fill: #e1db98;
      }

      .cls-14 {
        opacity: .3;
      }

      .cls-15 {
        fill: #ffa412;
      }

      .cls-16 {
        fill: #e5e5e5;
      }

      .cls-17 {
        fill: #ff9843;
      }

      .cls-18 {
        fill: #4e6349;
      }

      .cls-19 {
        fill: #ed7d2b;
      }

      .cls-20 {
        fill: #7ead73;
      }

      .cls-21 {
        fill: #cecece;
      }

      .cls-22 {
        fill: #74966c;
      }

      .cls-23 {
        fill: #263238;
      }
    </style>
  </defs>
  <g id="Layer_1-2" data-name="Layer 1">
    <g>
      <g>
        <path class="cls-21" d="M212.95,15.17c-.24-4.22-2.23-8.32-5.39-11.13-3.17-2.8-7.47-4.28-11.69-4.01-.4,.03-.83,.08-1.1,.37-.39,.41-.27,1.07-.1,1.6,1.22,3.89,3.69,7.37,6.97,9.79,3.27,2.43,7.32,3.79,11.4,3.82"/>
        <path class="cls-16" d="M197.1,48.9c5.72,7.33,12.59,11.63,19.71,10.39,1.42-.25,2.29-1.41,3.63-1.77,.7-.1,1.61,.22,2.44,.37,.44,.07,.88,.11,1.23,.02,7.22-1.95,12.34-8.41,14.7-17.89,3.27-13.27-1.29-25.81-10.18-28.01-1.27-.32-2.44-.51-3.57-.59-1.38-.07-2.7,.03-4.11,.38-2.47,.58-5.17,1.86-8.71,4.02-.11,.07-.25,.15-.36,.23-7.16-1.49-12.39-.4-16.94,3.14-7.22,5.64-6.25,18.95,2.15,29.73Z"/>
      </g>
      <g>
        <path class="cls-21" d="M201.05,277.88s-7.2-7.25-7.55-15.92c-.36-8.67,1.45-13.43,1.45-13.43,0,0-2.56-2.22-7.89-2.8-5.33-.58-8.76,1.21-8.76,1.21,0,0,.67,3.74-.3,12.7-.97,8.96-10.64,14.6-10.64,14.6l3.59,3.73s6.7-5.07,9.98-9.53l-1.29,11.87,7.89,.85,1.35-12.47c1.79,6.34,7.16,11.55,7.16,11.55l5-2.36Z"/>
        <path class="cls-16" d="M205.13,272.11c7.63-.01,11.81,6.15,10.23,12.28,2.46,.62,8.08,5.96,5.67,12.91-2.05,5.89-8.96,7.47-13.76,5.86,.09,4.89-3.18,9.66-7.77,11.34-4.59,1.68-10.17,.15-13.25-3.65-3.63,4.76-10.39,6.87-16.08,5.02-5.69-1.85-9.91-7.54-10.04-13.53-4.24,2.59-10.49,.94-12.9-3.4-2.41-4.34-.51-10.52,3.93-12.75-3.39-2.36-5.01-7-3.82-10.96,1.19-3.96,5.1-6.93,9.23-7.03,4.13-.1,7.79,1.77,9.16,5.67,2.3-1.55,5.92-.65,8.24,.87,2.32,1.52,3.6,4.48,3.11,7.21,1.88-3.04,5.61-4.22,9.18-4.26,3.48-.04,5.23,1.61,7.96,5.11,1.37-7.23,4.39-10.68,10.92-10.69Z"/>
        <path class="cls-21" d="M166.03,291.93c.07,0,.07,.49,.26,1.34,.21,.83,.64,2.04,1.64,3.2,.97,1.15,2.53,2.29,4.5,2.55,1.95,.25,4.22-.5,5.85-2.12,.92-.91,1.55-2.02,1.84-3.17l.34-1.32,.41,1.29c.55,1.72,1.99,2.96,3.43,3.44,1.46,.51,2.91,.23,3.94-.27,2.12-1.05,2.63-2.6,2.74-2.5,.03,.01-.04,.38-.39,.96-.35,.57-1.01,1.37-2.12,1.98-1.08,.6-2.7,.99-4.37,.46-1.64-.5-3.3-1.84-3.97-3.84l.75-.03c-.31,1.29-1.02,2.55-2.04,3.55-1.8,1.79-4.32,2.6-6.51,2.28-2.21-.34-3.86-1.64-4.84-2.92-1.01-1.3-1.38-2.62-1.51-3.5-.1-.9,0-1.4,.04-1.39Z"/>
        <g class="cls-14">
          <path class="cls-13" d="M213.98,287.23c.09,.01,.13,.57-.24,1.38-.36,.81-1.22,1.77-2.46,2.34-1.24,.56-2.54,.57-3.38,.3-.85-.26-1.25-.66-1.2-.74,.06-.11,.54,.09,1.31,.18,.77,.1,1.86,0,2.94-.48,1.07-.49,1.86-1.25,2.3-1.89,.44-.64,.6-1.13,.73-1.1Z"/>
        </g>
      </g>
      <g>
        <path class="cls-16" d="M24.53,116.11c3.95-2.74,6.5-7.41,6.66-12.21,.03-.98-.1-2.1-.9-2.66-.86-.6-2.04-.25-2.97,.23-2.58,1.31-4.74,3.44-6.09,6.01,2.21-4.73,3.05-10.08,2.42-15.26-.29-2.36-.91-4.76-2.38-6.63-.58-.74-1.38-1.42-2.32-1.39-1.31,.05-2.12,1.42-2.54,2.66-1.47,4.35-1.13,9.08-.77,13.66-.65-4.96-2.37-10.01-6.03-13.43-1.1-1.03-2.64-1.94-4.06-1.43-1.02,.37-1.69,1.4-1.87,2.47s.06,2.16,.39,3.2c1.76,5.49,6.05,9.73,10.18,13.74-3.24-2.67-6.96-4.91-11.09-5.7-.98-.19-2.15-.23-2.79,.53-.5,.59-.48,1.5-.14,2.2,.34,.7,.95,1.23,1.55,1.71,4.24,3.36,9.39,5.32,14.46,7.23-2.6-1.03-5.42-1.51-8.21-1.39-.62,.03-1.26,.09-1.81,.37s-1.01,.83-1.02,1.45c-.01,1.08,1.19,1.7,2.22,2.04,5.36,1.76,10.99,2.7,17.09,2.61Z"/>
        <path class="cls-21" d="M30.47,121.91c-.07,.08-1.34-.93-3.2-2.77-1.86-1.84-4.28-4.53-6.64-7.75-2.36-3.23-4.19-6.35-5.38-8.68-1.19-2.33-1.77-3.84-1.67-3.89,.12-.06,.89,1.36,2.21,3.59,1.31,2.23,3.21,5.27,5.54,8.46,2.33,3.19,4.65,5.91,6.38,7.84,1.73,1.93,2.84,3.1,2.75,3.19Z"/>
        <path class="cls-16" d="M31.29,114.85c-.93,.32-1.8,.78-2.63,1.3-2.28,1.39-4.2,3.5-4.92,6.07-.66,2.39-.5,5.09,.68,7.28,2.1,3.91,6.54,7.99,10.73,11.73l32.3,28.03c1.9,1.59,4.7,1.48,6.48-.25,1.72-1.67,1.96-4.36,.55-6.3l-27.42-37.21c-.08-.11-.16-.22-.24-.33-4.36-6.67-10.34-12.08-15.52-10.31Z"/>
        <path class="cls-21" d="M47.62,128.55c.22,.09-1.58,3.84-5.33,7.22-3.73,3.4-7.64,4.82-7.71,4.59-.13-.27,3.47-2.03,7.06-5.31,3.62-3.25,5.73-6.65,5.98-6.49Z"/>
        <path class="cls-21" d="M56.12,139.86c.22,.1-1.34,3.29-4.6,6.1-3.24,2.83-6.62,3.93-6.69,3.69-.12-.27,2.95-1.71,6.05-4.43,3.13-2.68,4.99-5.52,5.24-5.36Z"/>
        <path class="cls-12" d="M63.79,149.14c.23,.1-.67,2.39-2.79,4.48-2.11,2.11-4.41,2.99-4.5,2.75-.13-.25,1.84-1.46,3.82-3.44,2-1.96,3.22-3.92,3.48-3.79Z"/>
        <path class="cls-12" d="M69.9,157.4c.25,.04-.47,2.82-3.02,5.09-2.53,2.29-5.37,2.71-5.38,2.46-.09-.28,2.42-1.07,4.73-3.18,2.35-2.08,3.4-4.48,3.67-4.37Z"/>
        <path class="cls-21" d="M37.84,122.11c.16,.23-2.55,2.35-5.51,5.34-2.98,2.98-5.1,5.69-5.33,5.53-.21-.14,1.58-3.16,4.64-6.21,3.04-3.06,6.07-4.87,6.2-4.65Z"/>
      </g>
      <g>
        <path class="cls-16" d="M387.67,150.31c1.17-3.49,1.44-7.29-.39-10.68-1.86-3.45-7.56-4.97-7.56-4.97,0,0-.7-2.91-1.82-4.73-2.6-4.23-10.63-7.11-14.74-4.65-1.07-4.67-8.71-8.47-13.56-7.41-2.08,.45-4.67,1.96-4.67,1.96,0,0-5.04-3.06-8.82-2.01-3.71,1.03-6.26,3.85-7.97,7.11-.72,1.38-1.39,2.8-2.01,4.27-4.35,10.21-6.35,22.26-6.29,31.49,0,.47,.03,.92,.08,1.34,.69,5.74,5.55,6.98,8.68,7.01-.13,2.53,.32,5.32,2.29,6.9,3.41,2.73,6.9,2.81,9.03,3.85l.02-.04v.05c2.21,.82,4.69,3.28,9.02,3.85,2.51,.33,4.82-1.28,6.56-3.13,2.19,2.24,6.45,4.89,11.07,1.41,.34-.26,.68-.54,1.03-.87,6.7-6.35,14.01-16.14,18.36-26.34,.63-1.46,1.19-2.94,1.69-4.41Z"/>
        <path class="cls-21" d="M361.35,122.5c-2.24,4.33-5,6.1-6.51,6.79,.65,.43,1.33,.91,2.02,1.52,1.82,1.6,4.06,2.74,6.45,3.15,.89,.15,1.7,.34,2.44,.57-.02-1.43,.02-4.27,.48-7.46,.12-.81,.28-1.6,.49-2.37,.99-3.56,3.14-6.59,7.8-8.23,.41-7.88-6.41-7.43-6.41-7.43,0,0-2.63,2.62-5.52,10.61-.38,1.06-.8,2-1.24,2.85Z"/>
        <path class="cls-21" d="M345.12,128.2c.12,.13-1.82,1.78-4.13,5.11-2.36,3.3-4.68,8.41-6.63,14.31-2,5.87-3.34,11.34-4.24,15.31-.89,3.97-1.38,6.45-1.52,6.43-.06-.01-.02-.64,.12-1.78,.14-1.14,.39-2.77,.75-4.78,.73-4.02,1.98-9.56,4-15.48,1.96-5.93,4.44-11.13,6.98-14.4,1.25-1.64,2.4-2.85,3.26-3.62,.85-.77,1.37-1.14,1.41-1.1Z"/>
        <path class="cls-21" d="M340.17,178.45c-.24-.1,3.61-9.67,8.59-21.36,4.99-11.7,9.22-21.1,9.46-20.99,.24,.1-3.61,9.67-8.59,21.36-4.98,11.69-9.22,21.09-9.46,20.99Z"/>
        <path class="cls-21" d="M370.15,136.92s.68,.29,1.51,1.31c.82,1,1.62,2.85,1.62,5.19,.09,2.31-.54,5.08-1.62,7.87-1.01,2.83-2.24,5.9-3.69,9.06-2.89,6.32-6.11,11.73-8.65,15.5-1.27,1.89-2.36,3.37-3.13,4.37-.79,1-1.25,1.53-1.3,1.49-.12-.09,1.49-2.38,3.87-6.22,2.38-3.84,5.49-9.26,8.35-15.53,1.43-3.13,2.68-6.17,3.73-8.96,1.11-2.77,1.76-5.34,1.77-7.58,.08-2.22-.56-3.95-1.25-4.97-.69-1.03-1.27-1.46-1.21-1.52Z"/>
        <path class="cls-21" d="M369.27,136.4c-.1,.09-1.05-.87-3.14-1.37-1.03-.29-2.29-.49-3.71-.81-1.46-.31-2.98-1.04-4.38-1.98-1.41-.92-2.62-2.02-3.75-2.78-1.16-.78-2.31-1.31-3.31-1.64-2.02-.68-3.35-.28-3.38-.43-.08-.09,1.33-.78,3.56-.22,1.1,.26,2.35,.76,3.61,1.55,1.28,.81,2.43,1.83,3.81,2.73,1.35,.91,2.72,1.58,4.07,1.92,1.37,.36,2.66,.64,3.7,1.02,2.16,.7,3.07,1.95,2.94,2.01Z"/>
        <path class="cls-21" d="M378.21,135.31c-.14,.24-1.95-.73-4.38-.7-2.43-.02-4.24,.97-4.38,.73-.18-.18,1.62-1.68,4.37-1.68,2.75-.03,4.56,1.47,4.39,1.64Z"/>
        <path class="cls-21" d="M346.66,120.39c.07-.23,2.66,.53,5.07,2.74,2.43,2.19,3.43,4.7,3.21,4.79-.25,.14-1.56-2.04-3.84-4.09-2.26-2.08-4.55-3.18-4.44-3.44Z"/>
      </g>
      <g>
        <g>
          <path class="cls-22" d="M233.81,48.95c5.75,2.28,12.57,1.69,17.84-1.56,1.07-.66,2.18-1.6,2.2-2.86,.03-1.34-1.19-2.36-2.36-3.02-3.25-1.84-7.07-2.63-10.78-2.24,6.64-1.01,12.98-3.91,18.08-8.28,2.32-1.99,4.44-4.37,5.41-7.27,.38-1.14,.54-2.5-.17-3.47-.99-1.36-3.04-1.26-4.66-.82-5.71,1.53-10.54,5.26-15.19,8.91,4.86-4.24,9.04-9.67,10.1-16.03,.32-1.92,.2-4.21-1.36-5.37-1.12-.83-2.71-.81-3.98-.24s-2.28,1.6-3.15,2.69c-4.63,5.8-6.12,13.41-7.47,20.71,.56-5.38,.3-10.96-1.79-15.95-.49-1.18-1.28-2.47-2.56-2.62-.99-.12-1.95,.55-2.45,1.41-.5,.86-.64,1.89-.72,2.88-.58,6.94,.99,13.86,2.55,20.65-.74-3.52-2.24-6.88-4.36-9.79-.47-.65-.99-1.28-1.68-1.68-.7-.39-1.61-.49-2.28-.06-1.16,.76-.97,2.49-.6,3.83,1.93,7,4.93,13.7,9.38,20.18Z"/>
          <path class="cls-23" d="M231.83,59.46c-.06-.01-.02-.53,.1-1.46,.11-.93,.34-2.27,.68-3.92,.66-3.29,1.84-7.8,3.61-12.62,1.78-4.82,3.8-9.01,5.43-11.95,.81-1.47,1.51-2.64,2.03-3.42,.51-.79,.82-1.21,.87-1.18,.11,.07-.88,1.89-2.35,4.88-1.48,2.99-3.4,7.19-5.16,11.97-1.75,4.78-3.01,9.22-3.83,12.45-.82,3.24-1.24,5.27-1.37,5.24Z"/>
          <path class="cls-19" d="M239.98,55.3c-1-.77-2.12-1.37-3.27-1.9-3.11-1.45-6.75-2.01-10.01-.94-3.03,.99-5.81,3.1-7.32,5.91-2.7,5.04-3.9,12.71-4.92,19.86-2.85,20.08-4.34,26.56-7.19,46.64-.18,1.29-1.67,11.59-2.4,18.29-.35,3.17,1.76,6.09,4.88,6.77h0c3.02,.65,6.06-1.01,7.15-3.9,2.56-6.84,6.34-16.77,7.38-20.04,6.64-20.88,9.32-27,15.52-46.21,.05-.17,.12-.33,.19-.49,4.05-9.43,5.57-19.69,0-23.98Z"/>
          <path class="cls-23" d="M236.94,82.57c.06,.3-5.24,1.05-11.53-.57-6.3-1.57-10.61-4.75-10.41-4.99,.19-.33,4.64,2.27,10.72,3.78,6.06,1.57,11.21,1.4,11.22,1.78Z"/>
          <path class="cls-23" d="M230.87,99.74c.05,.31-4.48,.91-9.82-.59-5.35-1.46-8.93-4.3-8.73-4.54,.2-.32,3.94,1.95,9.06,3.33,5.1,1.44,9.48,1.42,9.48,1.8Z"/>
          <path class="cls-23" d="M226.39,114.57c.06,.32-3.04,.99-6.79,.2-3.76-.76-6.34-2.59-6.16-2.87,.18-.32,2.87,.93,6.41,1.64,3.53,.74,6.5,.66,6.54,1.02Z"/>
          <path class="cls-23" d="M221.89,127c.13,.29-3.36,1.51-7.61,.4-4.26-1.07-6.73-3.82-6.47-4.02,.24-.29,2.87,1.83,6.78,2.8,3.9,1.04,7.23,.45,7.29,.82Z"/>
          <path class="cls-23" d="M216.51,141.36c-.01,.33-2.74,.41-5.89-.67-3.15-1.06-5.26-2.79-5.07-3.06,.19-.3,2.49,.88,5.47,1.88,2.97,1.02,5.51,1.49,5.48,1.85Z"/>
          <path class="cls-23" d="M236.87,67.49c-.13,.34-4.33-1.05-9.65-2.1-5.32-1.08-9.73-1.41-9.72-1.77,0-.33,4.52-.56,9.97,.54,5.45,1.08,9.54,3.03,9.41,3.33Z"/>
          <path class="cls-23" d="M241,68.79c-.12,.32-.71,.41-1.33,.18-.62-.23-1.02-.67-.9-1,.12-.32,.71-.41,1.33-.18,.62,.23,1.02,.67,.9,1Z"/>
          <path class="cls-23" d="M218.37,134.69c.17,.3-.43,.93-1.41,1.01-.99,.08-1.67-.46-1.55-.78,.12-.33,.76-.41,1.46-.47,.7-.05,1.35-.07,1.51,.24Z"/>
        </g>
        <g>
          <path class="cls-18" d="M68.56,144.29c.86-5.55-.59-11.42-3.92-15.94-3.34-4.52-8.52-7.63-14.08-8.45-.52-.08-1.1-.12-1.53,.18-.62,.43-.64,1.31-.57,2.06,.51,5.39,2.76,10.59,6.33,14.65,3.58,4.06,8.46,6.94,13.74,8.12"/>
          <path class="cls-15" d="M38.63,183.7c5.39,11.11,13.13,18.59,22.72,18.95,1.92,.07,3.37-1.19,5.2-1.3,.94,.06,2.03,.73,3.07,1.16,.56,.21,1.11,.38,1.6,.36,9.91-.53,18.36-7.51,24.05-19.17,7.93-16.33,5.48-33.87-5.46-39.2-1.56-.77-3.03-1.34-4.48-1.75-1.77-.47-3.52-.7-5.44-.64-3.37,.07-7.22,.98-12.43,2.81-.17,.07-.36,.13-.53,.19-8.89-3.92-15.99-3.95-22.87-.62-10.94,5.33-13.37,22.87-5.44,39.2Z"/>
        </g>
        <g>
          <path class="cls-23" d="M115.59,188.94c1.62,3.5,4.54,6.47,10.29,10.26,.77,.51,1.74,.89,2.63,.61,.97-.3,1.49-1.33,1.89-2.26,.78-1.84,1.5-3.7,2.15-5.59l-16.96-3.02Z"/>
          <path class="cls-23" d="M139.65,151.15c.11-.62,.21-1.3-.14-1.83-.43-.66-1.35-.76-2.14-.78-9.87-.25-22.59,1.27-31.74,5.6l32.51,5.53c.5-2.84,1-5.68,1.51-8.52Z"/>
          <g>
            <path class="cls-23" d="M221.83,183.51c-5.65-2.09-13.55-2.57-18.11-2.88-4.03-.27-8.13,.79-12.13,1.7-4.15,.95-3.6,4.62-1.02,7.05,3,2.81,7.09,4.91,10.87,6.1,2.73,.85,4.99,1.89,8.6,2.27,2.02,.21,5.24,1.09,7.2,.87-1.69-1.01-4.33-1.14-5.96-2.25,1.43,.06,4.4,.96,5.52,.19-2.25-.63-4.57-1.06-6.81-1.74,1.54-.29,3.98,.36,5.37-.52-2.16-.62-4.44-1-6.65-1.49,1.36,.04,3.68,.38,4.79-.5-2.13-.63-4.34-1.03-6.47-1.67,1.38-.25,3.62,.19,4.89-.79-1.23-.36-2.53-.59-3.79-.86,2.51-.16,5.11,.4,7.59,.25-1.41-.79-3.6-1.2-5.21-1.49,2.31,.05,4.68,.08,6.96,.07-1.07-.61-2.97-1.14-4.31-1.43,2.28,.18,4.34,.32,6.71-.12-1.35-.79-3.23-.72-4.77-1.04,1.79,0,3.12-.26,5.35-.65-2.16-.62-3.6-.85-5.84-.52l7.2-.57Z"/>
            <path class="cls-8" d="M193.27,181.8c-1.17-1.06-2.57-1.84-4.06-2.38-7.34-2.7-36.45-16.87-62.87-22.32-30.31-6.26-56.7-3.04-59.89,2.07-1.51,2.43,17.48,26.33,59.2,31.9,41.71,5.57,62.3,1.47,66.66-.49,3.74-1.68,4.87-5.23,.95-8.78Z"/>
            <g>
              <path class="cls-2" d="M86.91,162.35c-.55,2.52-3.04,4.12-5.56,3.56-2.52-.55-4.12-3.04-3.56-5.56,.55-2.52,3.04-4.12,5.56-3.56,2.52,.55,4.12,3.04,3.56,5.56Z"/>
              <path class="cls-23" d="M85.42,162.03c-.37,1.7-2.05,2.77-3.74,2.4-1.7-.37-2.77-2.05-2.4-3.74,.37-1.7,2.05-2.77,3.74-2.4,1.7,.37,2.77,2.05,2.4,3.74Z"/>
              <path class="cls-2" d="M84.69,160.72c-.08,.39-.47,.63-.86,.55-.39-.08-.63-.47-.55-.86,.09-.39,.47-.63,.86-.55,.39,.08,.63,.47,.55,.86Z"/>
            </g>
            <path class="cls-23" d="M92.96,180.29c-.28-.1,2.75-5.41,3.11-12.72,.47-7.3-1.94-12.92-1.65-12.99,.09-.04,.81,1.29,1.49,3.62,.69,2.33,1.23,5.69,1.03,9.41-.22,3.72-1.14,7-2.09,9.24-.94,2.24-1.81,3.48-1.89,3.43Z"/>
            <path class="cls-23" d="M103.13,178.71c-.16-.18,4.4-4.39,10.18-9.39,5.78-5.01,10.6-8.91,10.75-8.73s-4.4,4.39-10.18,9.39c-5.78,5-10.59,8.91-10.75,8.73Z"/>
            <path class="cls-23" d="M122.03,183.8c-.11,.06-.84-1.19-2.01-3.21-1.17-2.02-2.79-4.8-4.68-7.81-1.89-3.01-3.68-5.69-4.99-7.62-1.31-1.93-2.11-3.14-2.01-3.21,.09-.07,1.07,1,2.51,2.85,1.44,1.85,3.33,4.49,5.23,7.52,1.9,3.03,3.45,5.88,4.49,7.98,1.04,2.1,1.57,3.45,1.47,3.5Z"/>
            <path class="cls-23" d="M128.52,184.44c-.17-.18,3.5-3.91,7.89-8.62,4.4-4.71,7.86-8.62,8.05-8.47,.09,.08-.66,1.15-1.98,2.81-1.32,1.66-3.23,3.88-5.43,6.25-2.21,2.36-4.3,4.42-5.86,5.85-1.56,1.43-2.59,2.26-2.67,2.17Z"/>
            <path class="cls-23" d="M146.14,186.44c-.11,.07-1.02-1.22-2.46-3.31-2.15-3.11-3.87-5.58-5.65-8.15-1.82-2.54-3.57-5-5.77-8.07-1.48-2.06-2.38-3.36-2.28-3.44,.09-.07,1.16,1.09,2.77,3.06,1.61,1.97,3.75,4.77,5.99,7.94,2.24,3.18,4.14,6.14,5.46,8.32,1.31,2.18,2.05,3.58,1.95,3.64Z"/>
            <path class="cls-23" d="M150.36,186.55c-.16-.18,2.78-3.14,6.58-6.61,3.8-3.48,7.01-6.15,7.17-5.97,.16,.18-2.78,3.14-6.58,6.61-3.8,3.47-7.01,6.15-7.17,5.97Z"/>
            <path class="cls-23" d="M163.72,187.46c-.23,.12-2.5-4.07-5.88-8.85-3.36-4.8-6.54-8.34-6.35-8.52,.15-.16,3.66,3.16,7.07,8.02,3.43,4.84,5.37,9.26,5.17,9.35Z"/>
            <path class="cls-23" d="M168.2,189.71c-.15-.19,2.49-2.59,5.91-5.37,3.42-2.78,6.31-4.89,6.46-4.7,.15,.19-2.49,2.59-5.91,5.38-3.42,2.78-6.31,4.89-6.46,4.7Z"/>
            <path class="cls-23" d="M184.38,191.01c-.22,.15-2.67-3.33-6.28-7.09-3.59-3.78-6.94-6.39-6.79-6.6,.12-.19,3.76,2.15,7.42,6,3.67,3.83,5.84,7.58,5.65,7.69Z"/>
          </g>
        </g>
        <g>
          <path class="cls-6" d="M335.08,48.19c-1.22,5.32-3.88,10.26-7.35,14.45-10.18,12.32-19.69,15.23-24.36,20.3-.79,.86-.76,1.51-1.57,1.04-.58-.34,.02-1.42,.29-2.05,1.65-3.82,2.08-19.47,6.2-29.19,2.33-5.5,5.39-10.68,10.13-14.4,3.6-2.82,11.05-6.87,15.12-4.48,4.29,2.52,1.96,12.49,1.54,14.34Z"/>
          <g class="cls-14">
            <path class="cls-22" d="M335.08,48.19c-1.22,5.32-3.88,10.26-7.35,14.45-10.18,12.32-19.69,15.23-24.36,20.3-.79,.86-.76,1.51-1.57,1.04-.58-.34,.02-1.42,.29-2.05,1.65-3.82,2.08-19.47,6.2-29.19,2.33-5.5,5.39-10.68,10.13-14.4,3.6-2.82,11.05-6.87,15.12-4.48,4.29,2.52,1.96,12.49,1.54,14.34Z"/>
          </g>
          <path class="cls-6" d="M340.06,94.59c-3.69,1.39-7.85,2.14-11.86,2.34-2.67,.13-13.14,.95-18.73,2.61-1.45,.43,10.32-14.88,17.27-21.56,4.78-4.59,13.94-10.48,22.77-8.85,4.1,.76,7.53,1.99,9.08,4.56,1.91,3.16-2.8,14.96-18.54,20.89Z"/>
          <path class="cls-22" d="M340.06,94.59c-3.69,1.39-7.85,2.14-11.86,2.34-2.67,.13-13.14,.95-18.73,2.61-1.45,.43,10.32-14.88,17.27-21.56,4.78-4.59,13.94-10.48,22.77-8.85,4.1,.76,7.53,1.99,9.08,4.56,1.91,3.16-2.8,14.96-18.54,20.89Z"/>
          <path class="cls-20" d="M340.13,112.65c-4.95,2.08-12.88,2.36-18.8,.69-10.19-2.88-15.02-1.05-15.02-1.05-.32-.73,.76-2.5,.09-2.14-1.68,.89,4.81-2.33,9.46-7.34,4.24-4.57,9.19-10.91,23.41-12.25,2.32-.22,14.58,.8,15.33,6.97,.78,6.42-8.38,12.56-14.47,15.12Z"/>
          <path class="cls-9" d="M295.01,41.59c-5.14,8.63-5.81,18.1-4.97,24.76,.77,6.11,4.37,17.06,4.37,17.06-.09,1.45,8.35-7.02,15.81-21.15,3-5.68,4.7-11.86,3.87-18.88-.3-2.52-1.83-11-6.99-11.8-5.35-.83-10.95,8.11-12.08,10.01Z"/>
          <path class="cls-20" d="M268.36,70.5c-.32,7.02,2.35,12.69,4.39,16.2,3.32,5.73,8.12,11.2,8.12,11.2,.77,.11,1.39,1.02,1.47,.32,.09-.7,4.14-5.02,6.04-16.21,1.08-6.39,.3-14.17-.45-16.86-2.53-9.08-8.21-13.02-11.69-12.03-4.99,1.42-7.57,10.57-7.88,17.38Z"/>
          <path class="cls-9" d="M336.07,53.31c-5.11,1.86-10.35,4.92-14.03,8.96-10.92,11.99-11.64,22.39-15.71,28.09-.93,1.31-1.64,5.31,.23,3.17,5.14-5.88,12.93-6.64,16.92-7.43,8.14-1.6,13.8-5.49,18.07-10.29,9.48-10.67,9.49-19.17,7.57-21.53-2.48-3.05-9.86-2.13-13.05-.97Z"/>
          <path class="cls-18" d="M310.67,108.67c-8.62,2.77-14.48,6.14-18.16,8.77,3.7-4.88,11.78-14.19,25.63-22.58,14.47-8.76,31.22-16.54,31.22-16.54,0,0-17.53,5.92-33.59,15.83-8.68,5.35-14.07,9.13-17.63,11.97,.75-1.24,1.58-2.59,2.51-4.06,14.1-22.49,39.96-42.3,39.96-42.3,0,0-27.31,19.55-39.06,36.9-2.39,3.54-6.21,9.45-10.21,15.37,.3-2.67,1.84-11.64,9.26-24.37,8.17-14.01,28.54-47.59,28.7-47.86,0,0-21.2,31.48-31.22,48.54-2.95,5.02-6.52,11.2-9.5,16.78,1.98-5.81,4.47-13.68,7.81-23.97,5.85-18.02,7.98-41.43,7.98-41.43,0,0-4.11,23.08-9.22,39.28-4.32,13.69-8.95,24.01-11.79,30-.04-3.59-.34-8.23-.72-14.11-1.13-17.55-6.03-34.46-6.03-34.46,0,0,3.55,17.09,4.15,32.86,.67,17.73-.02,20.88-2.63,26.78-3.76,8.5,5.84,13.29,11.03,6.04,3.77-5.26,9.36-11.63,23.63-16.18,16.03-5.11,34.05-8.72,34.05-8.72,0,0-18.3,1.72-36.18,7.46Z"/>
        </g>
        <g>
          <path class="cls-10" d="M285.43,186.35c14.85,3.5,31.51,.91,39.3-10.79,.32-.49,.63-.98,.92-1.49,6.31-11.12,1.08-25.07-9.17-31.7-8.84-5.71-19.83-6.97-29.86-9.35-6.53-1.55-20.26-4.29-28.25-24.17-1.91-4.76-7.91-11.58-17.16-7.88-4.8,1.92-9.31,6.4-8.29,15.39,4.42,39.19,25.83,63.7,52.52,69.99Z"/>
          <path class="cls-6" d="M232.37,105.71c.18-.57,.39-1.16,.65-1.74,.54-1.19,1.17-2.3,1.93-3.3,.19-.24,.38-.48,.58-.71,.22-.24,.45-.47,.68-.7,1.64-1.55,3.77-2.59,6.63-2.79-.76-5.03,1.75-8.85,1.75-8.85,2.49-.97,4.09,2.04,4.09,2.04-3.48,2.46-3.49,6.77-3.49,6.77,5.31,.19,8.15,2.49,10.46,5.83,2.19,3.16,3.81,3.66,3.81,3.66,0,0-3.09,1.75-6.9-.25l-3.82-2s.62,.88,.36,2.89c0,.01,0,.02,0,.04-.02,.13-.04,.27-.06,.41,0,.05-.02,.11-.03,.16-.02,.11-.04,.22-.07,.34-.02,.1-.05,.2-.08,.3-.02,.09-.04,.17-.07,.26-.05,.18-.11,.36-.17,.54,0,.02-.01,.04-.02,.06-.45,1.32-.58,2.47-.58,3.39,0,1.54,.39,2.44,.39,2.44,0,0-9.82-2.22-7.75-8.93,0,0-.35,.49-1.07,1.07-.18,.15-.38,.3-.6,.45-.11,.08-.23,.15-.35,.23-.62,.38-1.38,.74-2.28,.99-2.9,.8-4.73,3.88-4.73,3.88h0s-.29-3.1,.76-6.49Z"/>
        </g>
        <g>
          <path class="cls-6" d="M76.89,102.69s11.58,.57,18.5,7.56c6.93,6.99,9.05,12.37,9.05,12.37,0,0,3.85-.1,8.75-3.69,4.91-3.59,6.42-7.71,6.42-7.71,0,0-3.43-2.62-9.46-10.87-6.04-8.25-2.24-20.37-2.24-20.37l-5.86-.38s-1.74,9.37-1.08,15.62l-8-10.93-7.26,5.32,8.41,11.49c-6.35-3.94-14.84-4.2-14.84-4.2l-2.39,5.8Z"/>
          <path class="cls-20" d="M76.89,102.69s11.58,.57,18.5,7.56c6.93,6.99,9.05,12.37,9.05,12.37,0,0,3.85-.1,8.75-3.69,4.91-3.59,6.42-7.71,6.42-7.71,0,0-3.43-2.62-9.46-10.87-6.04-8.25-2.24-20.37-2.24-20.37l-5.86-.38s-1.74,9.37-1.08,15.62l-8-10.93-7.26,5.32,8.41,11.49c-6.35-3.94-14.84-4.2-14.84-4.2l-2.39,5.8Z"/>
          <path class="cls-22" d="M77.88,110.65c-6.38,5.85-14.61,3.88-17.96-2.47-2.54,1.36-11.33,1.19-14.62-6.49-2.79-6.5,1.8-13.11,7.06-15.43-3.82-4.03-4.73-10.53-2.16-15.44,2.56-4.92,8.41-7.9,13.9-7.08-.6-6.77,3.45-13.7,9.64-16.5,6.19-2.8,14.07-1.26,18.76,3.66,1.57-5.41,8.07-8.81,13.41-7.02,5.34,1.79,8.47,8.42,6.45,13.69,4.65-.61,9.55,2.04,11.58,6.27,2.03,4.23,1.03,9.71-2.36,12.95-3.39,3.24-7.88,4.47-12.02,2.25-.74,3.06-4.46,5.07-7.56,5.57-3.1,.51-6.44-1-8.12-3.66,.75,3.98-1.47,7.83-4.43,10.59-2.89,2.69-5.62,2.65-10.58,1.81,4.38,7.1,4.49,12.31-.97,17.31Z"/>
          <g class="cls-14">
            <path d="M95.49,64.13c-.06,.05-.44-.36-1.24-.92-.81-.53-2.1-1.22-3.82-1.43-1.69-.22-3.87,.02-5.72,1.31-1.83,1.28-3.15,3.65-3.29,6.25-.07,1.46,.25,2.88,.88,4.06l.73,1.36-1.33-.76c-1.78-1.02-3.93-.96-5.5-.26-1.61,.69-2.61,2.03-3.1,3.23-.97,2.5-.22,4.18-.39,4.19-.04,.02-.25-.35-.41-1.11-.15-.75-.21-1.92,.26-3.28,.45-1.33,1.5-2.89,3.31-3.73,1.76-.84,4.17-.98,6.26,.19l-.61,.6c-.73-1.32-1.09-2.92-1.01-4.53,.14-2.88,1.63-5.49,3.72-6.89,2.11-1.4,4.49-1.57,6.3-1.25,1.84,.31,3.16,1.14,3.94,1.78,.78,.68,1.06,1.17,1.03,1.2Z"/>
          </g>
          <g class="cls-14">
            <path d="M58.9,104.74c-.08,.06-.55-.38-.86-1.34-.32-.95-.34-2.42,.27-3.84,.61-1.42,1.69-2.42,2.6-2.84,.91-.44,1.55-.4,1.56-.3,.03,.14-.52,.33-1.24,.85-.72,.51-1.56,1.42-2.09,2.65-.52,1.23-.61,2.47-.48,3.34,.12,.87,.36,1.41,.23,1.48Z"/>
          </g>
        </g>
        <g>
          <path class="cls-17" d="M192.8,57.35c-1.89-3.59-4.71-6.7-8.79-7.82-4.16-1.15-9.71,2.23-9.71,2.23,0,0-2.85-1.66-5.14-2.15-5.34-1.16-13.76,3.04-14.93,8.19-4.53-2.71-13.38,.48-16.23,5.15-1.22,2-1.99,5.21-1.99,5.21,0,0-6.27,1.68-8.32,5.49-2.01,3.73-1.71,7.91-.41,11.76,.55,1.62,1.17,3.24,1.86,4.86,4.81,11.23,12.88,22.01,20.27,28.99,.38,.36,.76,.67,1.13,.96,5.09,3.83,9.78,.9,12.19-1.57,1.92,2.03,4.47,3.8,7.23,3.43,4.77-.63,7.49-3.35,9.94-4.25l-.02-.05,.03,.05c2.35-1.14,6.19-1.24,9.94-4.25,2.17-1.75,2.65-4.81,2.51-7.6,3.45-.04,8.8-1.41,9.55-7.73,.06-.47,.09-.96,.09-1.48,.05-10.17-2.17-23.44-6.98-34.67-.69-1.61-1.43-3.19-2.23-4.7Z"/>
          <path class="cls-19" d="M184.04,49.59c-4.16-1.14-9.71,2.23-9.71,2.23,0,0-2.85-1.65-5.14-2.15-5.34-1.15-13.76,3.05-14.93,8.19-4.53-2.7-13.37,.49-16.23,5.15-1.22,2-2,5.2-2,5.2,0,0-6.27,1.68-8.32,5.49-.13,.23-.22,.47-.32,.71,2.94-1.83,8.33-2.4,15.42-.03,0,0,1.28-6.49,11.02-7.36,2.66-.24,5.27-1.14,7.42-2.74,6.47-4.81,11.29-3.61,15.32-.25,3.47,2.89,12.55,24.27,15.79,41.9,3.71-.04,9.61-1.62,9.64-9.21,.06-11.61-2.85-27.27-9.18-39.33-1.89-3.59-4.7-6.69-8.79-7.81Z"/>
          <path class="cls-18" d="M150.63,57.11c1.74,5.08,1.05,8.63,.45,10.35,.84-.2,1.74-.36,2.75-.45,2.66-.24,5.27-1.14,7.42-2.74,.8-.59,1.57-1.09,2.31-1.51-1.15-1.07-3.39-3.27-5.57-6.06-.56-.71-1.06-1.44-1.51-2.19-2.08-3.5-2.85-7.52-.61-12.48-5.95-6.33-10.79-.56-10.79-.56,0,0,.08,4.09,4.24,12.48,.55,1.11,.98,2.16,1.32,3.16Z"/>
          <path class="cls-5" d="M142.8,74.37c.2,0,.03,2.8,.92,7.17,.83,4.39,3.13,10.14,6.33,16.18,3.15,6.06,6.48,11.3,8.95,15.03,2.48,3.74,4.08,6.01,3.96,6.11-.06,.04-.53-.47-1.33-1.45-.8-.98-1.91-2.42-3.23-4.24-2.64-3.65-6.1-8.85-9.27-14.97-3.23-6.07-5.48-12.01-6.13-16.52-.36-2.24-.44-4.08-.4-5.35,.04-1.27,.14-1.96,.2-1.96Z"/>
          <path class="cls-5" d="M179.02,116.58c-.26,.11-4.95-10.23-10.45-23.1-5.51-12.88-9.76-23.4-9.5-23.52,.26-.11,4.94,10.23,10.46,23.11,5.51,12.87,9.76,23.4,9.5,23.51Z"/>
          <path class="cls-5" d="M168.8,61.1s.75-.32,2.19-.2c1.42,.11,3.5,.88,5.36,2.66,1.91,1.69,3.63,4.3,5.03,7.28,1.48,2.96,2.99,6.28,4.4,9.83,2.83,7.11,4.68,13.8,5.74,18.68,.54,2.44,.89,4.44,1.09,5.82,.2,1.39,.27,2.16,.2,2.17-.16,.03-.76-3-2.01-7.82-1.24-4.82-3.19-11.42-5.99-18.47-1.4-3.52-2.87-6.83-4.29-9.79-1.36-3-2.91-5.47-4.68-7.18-1.7-1.76-3.57-2.57-4.9-2.79-1.34-.24-2.12-.1-2.13-.2Z"/>
          <path class="cls-5" d="M167.73,61.4c0,.14-1.49,.17-3.49,1.45-1.01,.6-2.13,1.45-3.47,2.34-1.36,.92-3.1,1.58-4.91,1.98-1.81,.42-3.6,.55-5.07,.87-1.5,.33-2.81,.84-3.82,1.39-2.08,1.09-2.77,2.46-2.92,2.37-.13,0,.39-1.65,2.54-3,1.04-.67,2.39-1.29,3.98-1.69,1.62-.4,3.31-.54,5.07-.95,1.75-.38,3.33-.96,4.63-1.77,1.33-.82,2.53-1.63,3.63-2.17,2.2-1.19,3.89-.96,3.84-.81Z"/>
          <path class="cls-5" d="M173.66,53.45c.09,.29-2.07,1-3.89,2.96-1.86,1.92-2.45,4.11-2.75,4.04-.28,0-.1-2.57,2-4.76,2.07-2.21,4.64-2.51,4.65-2.24Z"/>
          <path class="cls-5" d="M137.76,67.2c-.13-.23,2.45-1.71,6.04-1.95,3.59-.26,6.36,.85,6.25,1.1-.08,.3-2.81-.31-6.18-.06-3.37,.21-6,1.19-6.12,.91Z"/>
        </g>
        <g>
          <path class="cls-6" d="M147.57,155.75c4.39,28.56,23.02,46.49,47.25,47.29,27.31,.91,43.89-7.28,53-28.9,10.28-24.38-100.25-18.39-100.25-18.39Z"/>
          <g class="cls-14">
            <path d="M147.57,155.75c4.39,28.56,23.02,46.49,47.25,47.29,27.31,.91,43.89-7.28,53-28.9,10.28-24.38-100.25-18.39-100.25-18.39Z"/>
          </g>
          <path class="cls-6" d="M236.9,192.26c-2.6,2.14-8.17,2.12-11.5,2.33-3.54,.22-7.12-1.52-10.65-1.18-5.53,.53-10.97,5.96-15.85,2.77-3.4-2.22-4.05-7.43-7.1-10.2-4.34-3.96-7.55-.53-11.54-4.89-4.77-5.21-.54-11.92-4.64-17.75-2.34-3.34-7.09-5.75-6.56-12.26,.22-2.76,3.84-6.73,4.71-9.3,1.12-3.3-.29-5.48,.17-8.99,.6-4.6,2.03-7.08,10.21-9.8,4.84-1.61,6.37-2.01,7.57-7.33,1.5-6.67,4.3-7.24,6.92-7.12,3.35,.15,4.73,1.18,7.95,1.08,4.88-.16,6.44-5.43,11.53-4.1,5.5,1.43,6.1,5.87,10.7,8.65,2.57,1.56,5.67,1.2,8.41,2.44,3.47,1.57,6.57,4.12,8.77,7.47,4.33,6.57,6.2,12.15,7.33,19.93,2.8,19.37-3.57,37.7-16.42,48.27Z"/>
          <path class="cls-18" d="M236.9,192.26c-2.6,2.14-8.17,2.12-11.5,2.33-3.54,.22-7.12-1.52-10.65-1.18-5.53,.53-10.97,5.96-15.85,2.77-3.4-2.22-4.05-7.43-7.1-10.2-4.34-3.96-7.55-.53-11.54-4.89-4.77-5.21-.54-11.92-4.64-17.75-2.34-3.34-7.09-5.75-6.56-12.26,.22-2.76,3.84-6.73,4.71-9.3,1.12-3.3-.29-5.48,.17-8.99,.6-4.6,2.03-7.08,10.21-9.8,4.84-1.61,6.37-2.01,7.57-7.33,1.5-6.67,4.3-7.24,6.92-7.12,3.35,.15,4.73,1.18,7.95,1.08,4.88-.16,6.44-5.43,11.53-4.1,5.5,1.43,6.1,5.87,10.7,8.65,2.57,1.56,5.67,1.2,8.41,2.44,3.47,1.57,6.57,4.12,8.77,7.47,4.33,6.57,6.2,12.15,7.33,19.93,2.8,19.37-3.57,37.7-16.42,48.27Z"/>
          <path class="cls-20" d="M157,117.44c1.95-3.08,4.33-6.08,7.63-7.61,3.52-1.63,7.7-1.39,11.18-3.13,5.43-2.72,9.21-10.07,15.18-8.97,4.16,.77,6.49,5.49,10.46,6.93,5.67,2.06,7.82-2.51,13.27,.07,6.51,3.08,4.36,11.19,10.38,15.13,3.45,2.26,9.03,2.67,10.58,9.11,.66,2.72-1.74,7.97-1.8,10.77-.08,3.6,2.05,5.13,2.71,8.67,.86,4.65,.21,7.58-7.21,13.45-4.39,3.47-5.82,4.46-5.33,10.04,.61,6.98-2.04,8.64-4.73,9.58-3.45,1.19-5.17,.76-8.4,2.14-4.9,2.1-4.79,7.76-10.38,8.53-6.04,.83-8.07-3.18-13.62-4.01-3.1-.46-6.13,1.12-9.31,1.03-4.02-.12-7.98-1.32-11.29-3.64-6.49-4.56-11.93-10.55-15.41-17.62-6.88-13.99-3.58-35.22,6.07-50.46Z"/>
          <path class="cls-23" d="M211.79,131.91c.02,.23-4.21,.34-10.8,1.91-1.64,.4-3.44,.86-5.31,1.52-1.91,.56-3.86,1.41-5.93,2.24-4.07,1.82-8.41,4.15-12.64,7.09-4.19,3-7.84,6.3-10.92,9.52-1.48,1.67-2.93,3.22-4.1,4.83-1.26,1.54-2.29,3.08-3.22,4.49-3.69,5.67-5.21,9.62-5.42,9.53-.07-.03,.31-1.01,1.05-2.77,.36-.89,.83-1.96,1.49-3.14,.65-1.19,1.31-2.59,2.27-4.01,.9-1.45,1.91-3.03,3.15-4.62,1.15-1.65,2.6-3.25,4.08-4.96,3.08-3.31,6.77-6.68,11.03-9.72,4.29-2.99,8.7-5.33,12.86-7.12,2.11-.82,4.1-1.64,6.04-2.18,1.91-.64,3.73-1.06,5.41-1.42,1.66-.43,3.2-.58,4.54-.79,1.34-.23,2.5-.31,3.46-.35,1.91-.11,2.96-.13,2.96-.06Z"/>
          <path class="cls-23" d="M195.97,112.87c.26,.23-5.18,4.52-8.49,12.09-3.42,7.53-2.97,14.44-3.32,14.4-.11,0-.39-1.68-.22-4.43,.16-2.74,.89-6.53,2.6-10.39,1.72-3.85,4.06-6.93,5.99-8.88,1.93-1.96,3.37-2.88,3.44-2.79Z"/>
          <path class="cls-23" d="M211.52,160.29c.01,.07-.6,.25-1.71,.51s-2.74,.6-4.76,.94c-4.02,.64-9.78,1.45-16.05,.23-6.32-1.33-11.06-5.21-13.49-8.54-1.24-1.67-2-3.19-2.38-4.29-.39-1.09-.5-1.72-.44-1.74,.2-.08,.83,2.45,3.39,5.58,2.48,3.1,7.11,6.72,13.12,7.98,6.04,1.18,11.72,.52,15.74,.06,4.04-.51,6.55-.87,6.58-.72Z"/>
          <path class="cls-23" d="M189.05,178.43c.02,.07-.46,.22-1.36,.44-.45,.13-1,.19-1.66,.25-.65,.09-1.4,.12-2.22,.08-3.31-.02-7.83-1.07-12.35-3.25-4.52-2.2-8.15-5.03-10.39-7.44-.58-.58-1.06-1.15-1.46-1.67-.41-.51-.75-.95-.98-1.35-.49-.78-.73-1.22-.67-1.26,.15-.1,1.28,1.57,3.62,3.77,2.32,2.22,5.91,4.89,10.32,7.03,4.41,2.12,8.75,3.25,11.94,3.45,3.19,.25,5.16-.24,5.2-.05Z"/>
          <path class="cls-23" d="M162.82,130.99c.14,.1-.78,1.55-1.9,4.05-1.12,2.5-2.33,6.12-2.68,10.28-.34,4.16,.3,7.93,1.08,10.55,.77,2.63,1.54,4.17,1.38,4.25-.09,.05-1.1-1.38-2.08-4.03-.98-2.63-1.76-6.54-1.41-10.86,.36-4.31,1.74-8.04,3.05-10.51,1.32-2.49,2.47-3.8,2.56-3.74Z"/>
          <g class="cls-14">
            <path d="M181.02,137.17c-11.12,6.43-19.42,16.94-24.11,28.9,6.11-10.43,17.88-22.1,28.2-26.97,10.9-5.14,22.95-7.36,34.92-8.73-13.26-2.39-27.34,.06-39.01,6.8Z"/>
          </g>
        </g>
        <g>
          <g>
            <polygon class="cls-4" points="199.79 190.77 146.56 212.1 113.26 226.51 97.15 233.17 107.24 249.45 120.71 260.04 155.18 266.5 184.95 255.05 206.62 219.51 204.6 194.26 199.79 190.77"/>
            <path class="cls-6" d="M87.96,236.97s25.61,58.37,87.56,30.53c61.95-27.84,35.68-81.45,35.68-81.45l-4.48,1.85s7.79,57.87-38.99,73.44c-46.78,15.58-71.77-27.69-71.77-27.69l-3.41,1.41-4.6,1.9Z"/>
            <path class="cls-6" d="M99.16,232.34s20.34,44.36,71.93,23.39c0,0,29.55-10.26,32.64-33.75,3.09-23.49-3.93-31.21-3.93-31.21l6.93-2.86s5.4,24.56,2.98,32.15c-2.42,7.59-8.13,31.87-36.59,43.42-28.46,11.55-51.29,3.35-64.48-8.2-13.19-11.55-16.09-20.2-16.09-20.2l5.32-2.2,1.29-.53Z"/>
            <path class="cls-2" d="M99.16,232.34s20.34,44.36,71.93,23.39c0,0,28.51-11.82,31.59-35.31,3.09-23.49-2.89-29.65-2.89-29.65l6.93-2.86s5.84,20.29,2.98,32.15c-2.6,10.77-8.13,31.87-36.59,43.42-28.46,11.55-51.29,3.35-64.48-8.2-13.19-11.55-16.09-20.2-16.09-20.2l5.32-2.2,1.29-.53Z"/>
            <path class="cls-23" d="M166.78,240.32c-.17-.2-.48-.13-.55,.12-.34,1.23-.98,4.1-.14,5.53,1.09,1.85,2.82,1.04,3.36,.46,.78-.85,.8-2.17-.69-3.83-.74-.83-1.53-1.75-1.98-2.28Z"/>
            <path class="cls-23" d="M132.49,245.61c-.17-.2-.48-.13-.55,.12-.34,1.23-.98,4.1-.14,5.53,1.09,1.85,2.82,1.04,3.36,.46,.78-.85,.8-2.17-.69-3.83-.74-.83-1.53-1.75-1.98-2.28Z"/>
            <path class="cls-23" d="M178.17,221.04c-.17-.2-.48-.13-.55,.12-.34,1.23-.98,4.1-.14,5.53,1.09,1.85,2.82,1.04,3.36,.46,.78-.85,.8-2.17-.69-3.83-.74-.83-1.53-1.75-1.98-2.28Z"/>
            <path class="cls-23" d="M134.1,226.39c-.17-.2-.48-.13-.55,.12-.34,1.23-.98,4.1-.14,5.53,1.09,1.85,2.82,1.04,3.36,.46,.78-.85,.8-2.17-.69-3.83-.74-.83-1.53-1.75-1.98-2.28Z"/>
            <path class="cls-23" d="M195.71,219.58c-.17-.2-.48-.13-.55,.12-.34,1.23-.98,4.1-.14,5.53,1.09,1.85,2.82,1.04,3.36,.46,.78-.85,.8-2.17-.69-3.83-.74-.83-1.53-1.75-1.98-2.28Z"/>
            <path class="cls-23" d="M186.51,202.71c-.17-.2-.48-.13-.55,.12-.34,1.23-.98,4.1-.14,5.53,1.09,1.85,2.82,1.04,3.36,.46,.78-.85,.8-2.17-.69-3.83-.74-.83-1.53-1.75-1.98-2.28Z"/>
            <path class="cls-23" d="M159.23,214.4c-.17-.2-.48-.13-.55,.12-.34,1.23-.98,4.1-.14,5.53,1.09,1.85,2.82,1.04,3.36,.46,.78-.85,.8-2.17-.69-3.83-.74-.83-1.53-1.75-1.98-2.28Z"/>
            <path class="cls-23" d="M110.88,231.54c-.17-.2-.48-.13-.55,.12-.34,1.23-.98,4.1-.14,5.53,1.09,1.85,2.82,1.04,3.36,.46,.78-.85,.8-2.17-.69-3.83-.74-.83-1.53-1.75-1.98-2.28Z"/>
            <path class="cls-23" d="M149.39,232.68c-.17-.2-.48-.13-.55,.12-.34,1.23-.98,4.1-.14,5.53,1.09,1.85,2.82,1.04,3.36,.46,.78-.85,.8-2.17-.69-3.83-.74-.83-1.53-1.75-1.98-2.28Z"/>
          </g>
          <path class="cls-23" d="M211.2,186.06s.09,.15,.24,.47c.15,.32,.37,.79,.63,1.42,.52,1.26,1.24,3.14,1.99,5.62,1.46,4.94,3.17,12.37,2.75,21.66-.23,4.62-.99,9.7-2.78,14.86-1.77,5.16-4.51,10.39-8.26,15.25-3.74,4.86-8.48,9.32-13.92,13.18-5.44,3.87-11.54,7.16-18.03,9.96-6.49,2.79-13.13,4.88-19.73,5.93-6.59,1.08-13.11,1.12-19.17,.16-6.07-.95-11.64-2.88-16.5-5.34-4.87-2.47-9.03-5.45-12.52-8.49-6.97-6.14-11.37-12.33-14.12-16.69-1.37-2.2-2.32-3.97-2.94-5.18-.31-.61-.53-1.08-.67-1.4-.14-.32-.2-.49-.2-.49,0,0,.09,.16,.24,.47,.16,.31,.39,.78,.71,1.37,.64,1.2,1.62,2.95,3.01,5.13,2.79,4.32,7.22,10.46,14.18,16.53,3.49,3.01,7.64,5.96,12.48,8.39,4.83,2.44,10.37,4.33,16.39,5.26,6.01,.94,12.49,.89,19.03-.19,6.55-1.05,13.16-3.13,19.62-5.91,6.46-2.78,12.54-6.06,17.95-9.9,5.41-3.83,10.12-8.25,13.84-13.07,3.74-4.81,6.47-9.99,8.24-15.1,1.8-5.11,2.57-10.16,2.82-14.75,.45-9.23-1.19-16.65-2.59-21.59-.72-2.48-1.4-4.37-1.9-5.63-.24-.63-.45-1.11-.58-1.43-.14-.32-.2-.49-.2-.49Z"/>
        </g>
        <g>
          <path class="cls-15" d="M277.91,202.43s-16.88-14.22-34.3,1.34c-17.41,15.56-15.21,31.45-13.06,39.25,1.78,6.46,8.24,21.68,27.25,30.39,0,0,5.18,2.89,5.94,4.03,.75,1.15,3.98-2.48,7.06-3,3.08-.52,18.1-1.8,29.03-11.84,7.34-6.74,12.58-13.75,13.71-26.4,1.12-12.65-5.48-27.06-19.8-30.51,0,0-8.38-3.38-15.84-3.27Z"/>
          <path class="cls-11" d="M277.91,202.43s-8.77-6.39-21.93-1.19c-13.16,5.19-18.94,19.83-20.71,30.46-1.77,10.63,.45,19.68,6.21,27.57,5.76,7.89,22.26,16.82,22.26,16.82-8.47-5.44-17.32-11.3-21.8-20.32-2.3-4.62-3.93-10.75-3.67-15.9,.48-9.36,1.31-14.97,5.6-22.97,3.03-5.65,5.4-10.15,12.95-14.07,5.69-2.96,15.24-3.04,21.09-.4"/>
          <path class="cls-7" d="M281.99,202.67s.78-5.34,.34-6.23c-.44-.9-3.58-1.28-3.58-1.28l-1.26,1.68,1.11,2.74-.7,2.85,4.08,.24Z"/>
          <g class="cls-14">
            <g class="cls-1">
              <path class="cls-2" d="M266.87,203.21s0,0,0,0c-.08,0-.16,.01-.25,.02l.25-.02Z"/>
            </g>
            <g class="cls-1">
              <path class="cls-2" d="M251.43,211.86c4.99-5.49,6.7-7.04,15.44-8.65,6.23-.42,12.57-.54,17.3,2.41,.84,.53,1.72,1.24,1.82,2.23,.12,1.1-.76,2.04-1.69,2.64-3.6,2.33-8.26,1.74-12.5,2.33-5.45,.77-10.56,3.72-13.94,8.05-1.49,1.91-3.06,4.3-5.48,4.34-2.3,.03-4.07-2.35-4.11-4.65-.04-2.3,1.61-7,3.16-8.7Z"/>
            </g>
          </g>
          <g class="cls-14">
            <path class="cls-2" d="M250.8,231.87c1,.48,1.5,1.82,1.04,2.83-.46,1.01-1.8,1.52-2.81,1.06-1.01-.46-1.5-1.82-1.01-2.82,.49-1,1.88-1.44,2.85-.89"/>
          </g>
        </g>
        <g>
          <path class="cls-20" d="M174.92,30.41c-4.33,1.97-10.96,1.25-14.5-1.94-3.53-3.19-4.92-8.55-3.4-13.06,3.83-.24,7.68-.19,11.51,.14,2.67,.23,5.57,.73,7.32,2.76,1.43,1.64,1.78,4.01,1.43,6.16-.35,2.15-1.31,4.14-2.26,6.1"/>
          <path class="cls-23" d="M178.23,36.63c-.26,.1-1.36-3.86-4.68-7.47-3.27-3.66-7.11-5.13-6.99-5.38,.03-.1,1.04,.13,2.52,.87,1.48,.73,3.4,2.05,5.11,3.92,1.7,1.88,2.83,3.92,3.42,5.46,.59,1.55,.73,2.57,.63,2.59Z"/>
        </g>
        <g>
          <path class="cls-3" d="M318.37,202.07c1.73,5.6,7.82,11.11,13.65,11.75,5.83,.64,11.9-2.46,14.8-7.56-2.92-3.72-6.11-7.23-9.55-10.47-2.4-2.26-5.23-4.52-8.53-4.48-2.68,.03-5.14,1.65-6.84,3.73-1.69,2.08-2.74,4.59-3.77,7.07"/>
          <path class="cls-23" d="M309.94,204.11c-.05-.09,1.01-.78,2.92-1.48,1.9-.7,4.68-1.32,7.8-1.29,3.12,.04,5.89,.72,7.77,1.46,1.89,.74,2.93,1.45,2.89,1.54-.1,.27-4.59-2.11-10.67-2.13-6.07-.11-10.62,2.17-10.71,1.9Z"/>
        </g>
        <g>
          <path class="cls-22" d="M83.92,218.37c.24,4.4-2.63,9.86-6.57,11.82s-9.02,1.35-12.38-1.49c1.09-3.38,2.43-6.68,4.01-9.85,1.1-2.22,2.51-4.54,4.84-5.37,1.9-.67,4.05-.17,5.78,.85,1.73,1.02,3.12,2.52,4.49,4"/>
          <path class="cls-23" d="M90.38,217.62c0,.27-3.78-.1-8,1.54-4.24,1.58-6.81,4.37-7,4.17-.2-.09,2.21-3.3,6.69-4.98,4.45-1.72,8.39-.93,8.3-.73Z"/>
        </g>
      </g>
    </g>
  </g>
</svg>