<?xml version="1.0" encoding="UTF-8"?>
<svg id="Layer_2" data-name="Layer 2" xmlns="http://www.w3.org/2000/svg" viewBox="0 0 201.2 177.37">
  <defs>
    <style>
      .cls-1 {
        fill: #587e89;
      }

      .cls-2 {
        fill: #fff;
      }

      .cls-3, .cls-4 {
        fill: #f7f8f8;
      }

      .cls-5 {
        fill: #80afc1;
      }

      .cls-6 {
        fill: #447762;
      }

      .cls-7 {
        fill: #6c645b;
      }

      .cls-8 {
        fill: #aba8a9;
      }

      .cls-9 {
        fill: #c1391e;
      }

      .cls-10 {
        fill: #597b92;
      }

      .cls-11 {
        fill: #0a4236;
      }

      .cls-12 {
        fill: #eec130;
      }

      .cls-13 {
        fill: #c4573c;
      }

      .cls-14 {
        fill: #f3e08e;
      }

      .cls-15 {
        fill: #eaeaea;
      }

      .cls-16 {
        fill: #b4b3a2;
      }

      .cls-17 {
        fill: #f6a534;
      }

      .cls-18 {
        fill: #eb893d;
      }

      .cls-19 {
        fill: #776764;
      }

      .cls-20 {
        fill: #c3a082;
      }

      .cls-21 {
        fill: #4a688d;
      }

      .cls-22 {
        fill: #ac5519;
      }

      .cls-23 {
        fill: #9b734c;
      }

      .cls-24 {
        fill: #c19825;
      }

      .cls-25 {
        fill: #c2e0ee;
      }

      .cls-26 {
        fill: #09453c;
      }

      .cls-27 {
        fill: #03272c;
      }

      .cls-28 {
        fill: #0a0501;
      }

      .cls-29 {
        fill: #f2f2ed;
      }

      .cls-30 {
        fill: #f8f8f8;
      }

      .cls-31 {
        fill: #fffdfa;
      }

      .cls-4 {
        opacity: .45;
      }

      .cls-32 {
        fill: #345948;
      }

      .cls-33 {
        fill: #8f5837;
      }
    </style>
  </defs>
  <g id="Layer_1-2" data-name="Layer 1">
    <g>
      <g>
        <path class="cls-10" d="M132.38,29.74s.79,6.85,.4,9.22-3.56,9.62-2.5,15.15c1.05,5.53,6.78,34.84,6.78,34.84,0,0,.26,1.12,2.3,.92,2.04-.2,15.54-3.82,15.54-3.82,0,0,.79-.13,.33-1.84-.46-1.71-7.77-34.77-7.77-34.77,0,0-.2-3.1-4.74-8.36-2.86-3.32-3.56-2.5-5.55-7.57l-1.76-4.48-3.03,.72Z"/>
        <polygon class="cls-2" points="131.62 61.07 149.05 56.62 151.54 67.82 133.83 72.42 131.62 61.07"/>
        <polygon class="cls-8" points="131.72 26.88 132.97 30.86 135.27 30.39 134.92 26.36 131.72 26.88"/>
      </g>
      <g>
        <path class="cls-20" d="M155.39,19.92s-1.19,6.79-2.24,8.95-6.14,8.21-6.7,13.81c-.56,5.6-3.39,35.33-3.39,35.33,0,0-.07,1.15,1.95,1.54,2.01,.39,15.99,.75,15.99,.75,0,0,.8,.1,.84-1.67,.04-1.77,2.42-35.55,2.42-35.55,0,0,.69-3.02-2.17-9.37-1.8-3.99-2.7-3.41-3.17-8.83l-.42-4.8-3.11-.17Z"/>
        <polygon class="cls-2" points="145.77 49.74 163.75 50.43 162.95 61.87 144.66 61.26 145.77 49.74"/>
        <polygon class="cls-8" points="155.57 17 155.65 21.16 157.98 21.37 158.8 17.4 155.57 17"/>
      </g>
      <ellipse class="cls-15" cx="100.6" cy="162.13" rx="100.6" ry="10.84"/>
      <g>
        <polygon class="cls-7" points="174.05 68.79 174.08 73.03 172.58 71.42 174.05 68.79"/>
        <g>
          <polygon class="cls-7" points="143.91 64.54 144.5 57.96 163.38 58.61 143.91 64.54"/>
          <polygon class="cls-7" points="147.37 74.7 148.33 80.98 160.08 73.2 147.37 74.7"/>
        </g>
        <path class="cls-16" d="M110.09,71.7s4.97,2.79,11.59,.06c6.63-2.73,67.72-23.08,67.72-23.08l-3.29,5.61,3.6-1.23s-14.21,31.06-56.41,21.59c0,0-9.14-2.55-13.56,1.79s-5.9,6.26-5.9,6.26c0,0,1.3-5.88-3.75-11Z"/>
        <polygon class="cls-7" points="175.2 61.43 164.26 63.98 167.69 68.48 175.2 61.43"/>
        <path class="cls-7" d="M172.75,54.25l4.5,13.22s10.03-7.31,12.52-14.54l-3.6,1.23,3.29-5.61-16.71,5.71Z"/>
        <path class="cls-30" d="M183.63,53.6c.32,.93-.18,1.95-1.12,2.27-.93,.32-1.95-.18-2.27-1.12s.18-1.95,1.12-2.27c.93-.32,1.95,.18,2.27,1.12Z"/>
        <path class="cls-28" d="M182.58,53.96c.16,.47,0,.94-.35,1.06-.35,.12-.76-.16-.92-.63-.16-.47,0-.94,.35-1.06,.35-.12,.76,.16,.92,.63Z"/>
        <path class="cls-7" d="M120.14,72.31l1.36,2.85-7.66,7.54s.67-5.66-3.75-11l10.05,.61Z"/>
      </g>
      <g>
        <path class="cls-25" d="M115.56,100.77s-.36-64.95,0-70.19c.36-5.25-14.11-10.49-18.81-12.84-4.7-2.35-2.89-12.3-2.89-12.3h-8.99s1.81,9.95-2.89,12.3c-4.7,2.35-19.18,7.6-18.81,12.84,.36,5.25,0,70.19,0,70.19,0,0-1.09,7.78,6.51,7.6h19.72s19.67,0,19.67,0c7.6,.18,6.51-7.6,6.51-7.6Z"/>
        <path class="cls-4" d="M109.64,33.45c-1.09-6.23-11.04-11.54-15.2-14.47-4.16-2.93-3.8-12.64-3.8-12.64l-2.17,.18h-1.09s.36,9.53-3.8,12.46c-4.16,2.93-14.11,8.25-15.2,14.48-1.09,6.23,0,71.28,0,71.28,0,0-.54,2.57,1.63,2.93,1.94,.33,16.04,.07,19,.01,2.95,.06,17.05,.32,19-.01,2.17-.37,1.63-2.93,1.63-2.93,0,0,1.08-65.05,0-71.28Z"/>
        <rect class="cls-5" x="84.63" y=".95" width="9.5" height="5.56"/>
        <path class="cls-21" d="M93.86,1.9h-9.09c-.52,0-.95-.43-.95-.95h0C83.82,.43,84.24,0,84.77,0h9.09c.52,0,.95,.43,.95,.95h0c0,.52-.43,.95-.95,.95Z"/>
        <rect class="cls-5" x="62.06" y="29.67" width="54.45" height="6.69" rx="2.68" ry="2.68"/>
        <rect class="cls-5" x="62.24" y="40.16" width="54.45" height="6.69" rx="2.68" ry="2.68"/>
        <rect class="cls-5" x="62.24" y="86.29" width="54.45" height="6.69" rx="2.68" ry="2.68"/>
        <path class="cls-5" d="M62.06,94.98v7.42s-1.09,5.97,7.6,5.97c8.68,0,41.25,0,41.25,0,0,0,5.61,.18,5.61-6.69v-6.69s-54.45,0-54.45,0Z"/>
        <path class="cls-1" d="M108.01,105.65c0,.8-8.1,1.45-18.09,1.45-9.99,0-18.09-.65-18.09-1.45,0-.8,8.1-1.45,18.09-1.45,9.99,0,18.09,.65,18.09,1.45Z"/>
        <rect class="cls-3" x="73.64" y="51.2" width="30.21" height="30.21"/>
        <path class="cls-3" d="M93.99,6.87h-9.23c-.25,0-.45-.2-.45-.45h0c0-.25,.2-.45,.45-.45h9.23c.25,0,.45,.2,.45,.45h0c0,.25-.2,.45-.45,.45Z"/>
        <path class="cls-3" d="M115.25,30.39H63.51c-.2,0-.36-.16-.36-.36h0c0-.2,.16-.36,.36-.36h51.74c.2,0,.36,.16,.36,.36h0c0,.2-.16,.36-.36,.36Z"/>
        <path class="cls-3" d="M115.25,40.52H63.51c-.2,0-.36-.16-.36-.36h0c0-.2,.16-.36,.36-.36h51.74c.2,0,.36,.16,.36,.36h0c0,.2-.16,.36-.36,.36Z"/>
        <path class="cls-3" d="M115.25,86.47H63.51c-.2,0-.36-.16-.36-.36h0c0-.2,.16-.36,.36-.36h51.74c.2,0,.36,.16,.36,.36h0c0,.2-.16,.36-.36,.36Z"/>
        <rect class="cls-3" x="61.7" y="94.07" width="55" height="1.27" rx=".45" ry=".45"/>
      </g>
      <g>
        <path class="cls-31" d="M36.36,59.35l-4.35-12.24s-.33-.75-.94-.86c-.61-.1-3.52-.7-2.33-2.64,1.19-1.94,2.86-.97,2.86-.97,0,0,1.75-2.79,3.69-1.06,1.95,1.72-.41,3.43-.41,3.43,0,0-.76,.72-.29,1.33s6.64,11.57,6.64,11.57l-4.87,1.44Z"/>
        <path class="cls-33" d="M41.44,55.97s1.21-1.55-.32-2.14-1.93,1.85-1.93,1.85c0,0-1.32-1.64-2.49-.49-1.17,1.16-.52,2.26-.52,2.26l-.79-1.01c-.44-.35-1.14-.26-1.54,.21-.2,.23-.33,.56-.28,1.03,.15,1.44,1.81,1.76,1.81,1.76,0,0-3.08,29.49,13.1,23.66,16.18-5.82-7.05-27.14-7.05-27.14Z"/>
        <path class="cls-23" d="M42.25,61.21s-4.26,.49-1.06,8.5c3.19,8.01,3.91,13.89,10.38,9.49,6.47-4.4-7.32-19.18-9.32-17.99Z"/>
      </g>
      <g>
        <path class="cls-17" d="M66.82,90.99s4.42,2.46,5.44-2.63c1.02-5.09,2.52-15.72-3.5-32.7-6.02-16.97-12.22-34.87-21.69-32.16-9.46,2.71,.39,30.14,4.31,41.97,3.92,11.83,8.05,20.9,15.44,25.52Z"/>
        <path class="cls-14" d="M48.19,40s5.17-1.72,6.57-7.08c0,0,.67-1.81-1.51-.59-2.19,1.21-8.43,8.44-5.06,7.67Z"/>
        <path class="cls-14" d="M52.43,51.44s5.17-1.72,6.57-7.08c0,0,.67-1.81-1.51-.59-2.19,1.21-8.43,8.44-5.06,7.67Z"/>
        <path class="cls-14" d="M56.45,65.15s6.16-1.99,7.68-8.67c0,0,.75-2.25-1.84-.79-2.59,1.45-9.87,10.32-5.84,9.46Z"/>
        <path class="cls-14" d="M60.78,78.33s6.34-1.97,7.71-9.2c0,0,.71-2.42-1.94-.92-2.65,1.5-9.93,10.93-5.77,10.13Z"/>
      </g>
      <g>
        <g>
          <path class="cls-26" d="M128.61,44.3c-.06,.18-2.27,5.08-3.88,7.21,0,0-3.6,2.7,.21,.91,3.81-1.78,4.3-9.93,3.67-8.13Z"/>
          <path class="cls-27" d="M129.77,40.54s-5.2,2.94-4.27,11.45c0,0,1.55-7.77,4.27-11.45Z"/>
          <path class="cls-32" d="M124.17,53s.26-2.51-.06-4.26,1.28-4.95,1.28-4.95c0,0,1.89,4.41-1.22,9.21Z"/>
        </g>
        <path class="cls-18" d="M124.75,50.64s-6.04-.53-6.18,4c-.14,4.53-.93,25.31,.57,24.99,1.5-.32,10.35-17.66,10.96-24.78,0,0,.23-4.64-5.35-4.21Z"/>
      </g>
      <g>
        <g>
          <rect class="cls-19" x="87.8" y="53.42" width=".77" height="6.81" transform="translate(-13.44 30.8) rotate(-18.44)"/>
          <path class="cls-13" d="M89.41,59.28s-9.08-2.15-9.39,4.62,4.31,13.23,12.93,12.31c8.62-.92,10.77-17.54,3.38-19.23,0,0-5.54-1.85-6.92,2.31Z"/>
          <path class="cls-11" d="M89.41,59.28s0-3.39-4.46-3.69c0,0,0,2.62,4.46,3.69Z"/>
        </g>
        <g>
          <rect class="cls-19" x="109.52" y="61.3" width="6.81" height=".77" transform="translate(-10.04 99.6) rotate(-45.78)"/>
          <path class="cls-9" d="M111.3,63.91s-2.26-9.05-8.41-6.22c-6.16,2.84-9.78,9.91-5,17.14s20.53,1.51,18.64-5.83c0,0-.9-5.77-5.23-5.09Z"/>
          <path class="cls-11" d="M111.3,63.91s3.01-1.56,1.23-5.66c0,0-2.32,1.2-1.23,5.66Z"/>
        </g>
        <g>
          <rect class="cls-19" x="120.09" y="62.97" width=".77" height="6.81" transform="translate(-12.16 102.83) rotate(-44.22)"/>
          <path class="cls-13" d="M122.1,68.61s2.26-9.05,8.41-6.22c6.16,2.84,9.78,9.91,5,17.14-4.78,7.23-20.53,1.51-18.64-5.83,0,0,.9-5.77,5.23-5.09Z"/>
          <path class="cls-11" d="M122.1,68.61s-3.01-1.56-1.23-5.66c0,0,2.32,1.2,1.23,5.66Z"/>
        </g>
      </g>
      <g>
        <polygon class="cls-27" points="115.13 91.71 115.13 162.13 35.33 162.13 35.33 72.04 115.13 72.03 115.13 91.71"/>
        <g>
          <polygon class="cls-32" points="168.07 91.59 168.07 162.02 88.27 162.02 88.27 71.92 168.07 71.92 168.07 91.59"/>
          <g>
            <polygon class="cls-6" points="169.93 71.81 183.77 93.49 99.35 93.5 88.35 71.81 169.93 71.81"/>
            <polygon class="cls-6" points="88.35 71.81 78.25 93.5 22.91 92.38 35.5 71.81 88.35 71.81"/>
          </g>
        </g>
      </g>
      <g>
        <path class="cls-12" d="M17.56,155.72s-.73,.36-.61,.85c0,0,.7,2.13,1.26,2.89s2.12,2.67,6.41,3.3c0,0,3.25,.18,5.19-1.68,1.94-1.86,3.02-3.44,2.99-5.76,0,0-.21-1.33-.7-2.15,0,0-.34-1.07-.06-1.73,.28-.66,.27-1.36,.19-1.58l-.72-.34s-.49-.14-.49,.46c0,.6,.14,.68,.02,1.17-.13,.48-.13,1.23-.13,1.23,0,0,.02,.29-.31,.57-.33,.28-1.15,1.63-1.15,1.63,0,0-2.51,4.31-7.08,2.99,0,0-3.84-1.97-4.79-1.84Z"/>
        <path class="cls-24" d="M24.91,160.9c-.89,0-1.82-.13-2.72-.39-2.35-.68-4.23-2.19-5.3-4.24l.24-.12c1.03,1.99,2.86,3.45,5.14,4.11,2.12,.62,4.42,.47,5.86-.36,2.88-1.68,3.45-7.32,3.45-7.37l.26,.02s-.14,1.47-.65,3.11c-.47,1.53-1.36,3.55-2.93,4.46-.88,.51-2.07,.78-3.35,.78Z"/>
      </g>
      <g>
        <path class="cls-12" d="M55.43,173.4s.45,.78,.11,1.05c0,0-1.64,1.05-2.49,1.2-.85,.15-3.13,.42-7.11-2.18,0,0-2.87-2.19-3.63-4.91-.75-2.73-.9-4.65,.26-6.31,0,0,.83-.82,1.66-1.06,0,0,.81-.53,.9-1.21s.43-1.18,.61-1.28l.78,.26s.49,.25,.19,.68c-.3,.43-.46,.39-.59,.84-.13,.44-.49,.99-.49,.99,0,0-.16,.19,0,.64s.19,2,.19,2c0,0,.04,4.92,4.61,7.22,0,0,4.26,1.31,5.01,2.08Z"/>
        <path class="cls-24" d="M54.43,174.78c-1.64,0-3.68-.75-5.77-2.13-2.31-1.53-4.21-3.55-4.94-5.26-.79-1.84-.61-3.4-.32-4.39,.32-1.07,.81-1.7,.83-1.73l.19,.16s-1.93,2.48-.48,5.86c1.5,3.51,7.74,7.88,11.34,7.16l.05,.24c-.28,.06-.58,.08-.9,.08Z"/>
      </g>
      <g>
        <path class="cls-12" d="M44.92,176.47s0,.76-.37,.82c0,0-1.65,.07-2.34-.18-.69-.25-2.47-1.02-4.28-4.62,0,0-1.17-2.83-.56-5.14,.61-2.32,1.32-3.79,2.88-4.51,0,0,.96-.75,1.67-.57,0,0,.82-.54,1.17-1,.35-.46,.82-.68,1-.68l.46,.28s.26,.64-.15,.83c-.4,.19-.75,1.09-1.03,1.36s-.53,.51-.53,.51c0,0-.2,.08-.28,.46-.08,.39-.72,1.54-.72,1.54,0,0-2.07,3.62,.29,7.25,0,0,2.56,2.78,2.78,3.66Z"/>
        <path class="cls-24" d="M44.56,177.37s-1.54-.98-3.04-2.46c-1.39-1.37-3.06-3.48-3.06-5.71,0-4.26,3.51-6.81,3.55-6.84l.15,.2s-3.44,2.51-3.44,6.64c0,4.12,5.92,7.92,5.98,7.96l-.13,.21Z"/>
      </g>
      <path class="cls-12" d="M163.88,172.14c-.04-.1-.09-.19-.15-.27-.64-.84-3.8-4.49-9.12-2.14,0,0-.26,.14-.76,.18s-.8-.05-.92,.28c-.13,.33,0,.46,.38,.69,.37,.23,.74,.72,.78,1.01s1.95,2.92,5.23,2.89c2.67-.02,3.47-.6,3.67-.82,.08-.08,.16-.16,.26-.21,.19-.11,.48-.23,.72-.15,.4,.13,.72-.35,.62-.64-.1-.27-.57-.48-.71-.81Z"/>
      <path class="cls-12" d="M178.72,162.41c-.09-.04-.19-.07-.29-.09-1.01-.16-5.66-.58-7.8,4.62,0,0-.09,.27-.41,.64-.32,.36-.59,.5-.45,.82,.14,.32,.32,.32,.73,.23,.41-.09,1,0,1.23,.18,.23,.18,3.32,.73,5.59-1.5,1.85-1.81,2.01-2.75,2.01-3.04,0-.11,.01-.22,.04-.32,.06-.2,.18-.48,.4-.59,.36-.18,.27-.73,0-.86-.25-.12-.72,.05-1.04-.08Z"/>
      <path class="cls-27" d="M171.25,163.13c0,1.36-6.81,2.46-15.2,2.46-8.4,0-15.2-1.1-15.2-2.46s6.81-2.46,15.2-2.46c8.4,0,15.2,1.1,15.2,2.46Z"/>
      <g>
        <path class="cls-22" d="M149.22,145.73c-.01-.1-.25-2.47,.04-5.44,.39-4.03,1.53-7.08,3.39-9.05,1.68-1.79,3.91-2.63,6.65-2.52,0,0,0,0,0,0,.36,0,7.87,.23,9.2,16.93l-.89,.07c-1.28-15.94-8.25-16.11-8.33-16.11h0c-2.48-.11-4.48,.65-5.98,2.24-4.12,4.38-3.2,13.69-3.19,13.79l-.89,.09Z"/>
        <path class="cls-29" d="M134.81,142.93s5.3,22.5,23.8,20.71c18.5-1.8,22.03-20.47,22.03-20.47l-45.83-.24Z"/>
        <polygon class="cls-17" points="174.54 155.77 140.5 155.77 140.5 142.96 141.17 142.96 141.17 155.1 174.54 155.1 174.54 155.77"/>
        <rect class="cls-17" x="146.01" y="142.99" width=".67" height="17.7"/>
        <rect class="cls-17" x="152.35" y="142.99" width=".67" height="20.41"/>
        <rect class="cls-17" x="158.48" y="143.05" width=".67" height="20.61"/>
        <rect class="cls-17" x="164.09" y="143.08" width=".67" height="19.09"/>
        <rect class="cls-17" x="170.01" y="143.11" width=".67" height="16.52"/>
        <rect class="cls-17" x="175.83" y="143.11" width=".67" height="10.08"/>
        <rect class="cls-17" x="136.26" y="146.95" width="43.1" height=".67"/>
        <rect class="cls-17" x="137.94" y="150.55" width="39.62" height=".67"/>
        <rect class="cls-17" x="144.36" y="158.86" width="26.27" height=".67"/>
      </g>
    </g>
  </g>
</svg>