<?xml version="1.0" encoding="UTF-8"?>
<svg id="Layer_2" data-name="Layer 2" xmlns="http://www.w3.org/2000/svg" viewBox="0 0 235.91 188.35">
  <defs>
    <style>
      .cls-1 {
        fill: #d1d1d1;
      }

      .cls-2 {
        fill: #91483a;
      }

      .cls-3 {
        fill: #c27460;
      }

      .cls-4 {
        opacity: .3;
      }

      .cls-5 {
        fill: #ffc19d;
      }

      .cls-6 {
        fill: #ff9c6a;
      }

      .cls-7 {
        fill: #c6c6c6;
      }

      .cls-8 {
        fill: #f2f2f2;
      }

      .cls-9 {
        fill: #878786;
      }
    </style>
  </defs>
  <g id="Layer_1-2" data-name="Layer 1">
    <g>
      <g>
        <path class="cls-7" d="M38.37,25.35c7.98,3.68,17.78,.72,21.43-7.59,1.41-3.21,1.39-7.44,4.37-9.73,2.07-1.6,5.15-2.25,7.52-1.2,1.6,.71,3.48,.47,4.43-1.16,.81-1.38,.45-3.72-1.16-4.43-6.82-3.03-15.56-.41-18.7,6.67-1.62,3.65-1.64,7.88-4.94,10.58-2.67,2.19-6.53,2.71-9.68,1.26-1.59-.73-3.49-.45-4.43,1.16-.82,1.4-.43,3.7,1.16,4.43h0Z"/>
        <path class="cls-8" d="M43.97,26.52c-.05,.07-.44-.06-.9-.53-.46-.46-.95-1.3-1-2.33-.05-1.03,.35-1.92,.75-2.42,.41-.52,.79-.69,.84-.62,.15,.12-1.01,1.25-.92,3.01,.09,1.76,1.36,2.77,1.23,2.9Z"/>
        <path class="cls-8" d="M53.9,23.92c0,.08-.39,.19-1-.01-.6-.19-1.33-.73-1.82-1.54-.49-.81-.67-1.63-.76-2.2-.09-.58-.08-.95,.01-.97,.23-.07,.52,1.39,1.33,2.82,.42,.7,.98,1.19,1.44,1.46,.46,.27,.81,.34,.8,.45Z"/>
        <path class="cls-8" d="M59.99,16.12c0,.14-1.44,.43-3.25-.04-.9-.26-1.63-.76-2.02-1.24-.4-.48-.49-.86-.41-.9,.14-.08,.98,1.06,2.62,1.49,1.61,.42,3.08,.46,3.06,.69Z"/>
        <path class="cls-8" d="M63.25,8.43c-.04,.17-1.64-.11-3.3-1.19-.83-.5-1.53-1.32-1.58-2.06-.08-.73,.27-1.1,.33-1.04,.09,.04-.04,.41,.13,.94,.15,.54,.69,1.1,1.48,1.59,1.56,1.02,2.99,1.57,2.93,1.76Z"/>
        <path class="cls-8" d="M68.97,6.03c-.06,.06-.38-.15-.67-.66-.3-.5-.54-1.34-.38-2.25,.16-.91,.67-1.62,1.12-1.99,.45-.38,.82-.47,.86-.39,.12,.15-1.05,.96-1.32,2.5-.27,1.54,.55,2.7,.39,2.8Z"/>
      </g>
      <g>
        <path class="cls-7" d="M213.53,105.35c-1.72-8.55-10.22-13.96-18.7-12.28-3.43,.68-6.65,3.25-10.26,2.27-2.87-.78-5.04-3.01-5.68-5.9-.9-4.07-7.15-2.35-6.25,1.72,1.68,7.62,9.97,12.45,17.42,10.36,2.03-.57,3.91-1.58,5.97-2.09,1.7-.42,3.49-.26,5.14,.28,3.32,1.1,5.43,4.03,6.1,7.36,.35,1.72,2.38,2.7,3.99,2.26,1.79-.49,2.61-2.26,2.26-3.99h0Z"/>
        <path class="cls-8" d="M211.25,100.66c.08,0,.21,.39,.1,1.04-.1,.64-.48,1.53-1.28,2.19-.8,.65-1.75,.86-2.4,.82-.66-.03-1.02-.23-1-.31,0-.19,1.61,.08,2.97-1.04,1.36-1.12,1.42-2.73,1.61-2.71Z"/>
        <path class="cls-8" d="M203.29,94.2c.06-.05,.38,.21,.58,.81,.2,.59,.2,1.51-.16,2.38-.37,.87-.92,1.5-1.33,1.92-.42,.41-.72,.62-.79,.56-.19-.14,.81-1.24,1.49-2.74,.31-.75,.38-1.5,.32-2.03-.05-.53-.2-.86-.11-.91Z"/>
        <path class="cls-8" d="M193.39,93.9c.11-.08,1.2,.91,1.89,2.64,.32,.88,.35,1.76,.2,2.36-.15,.61-.41,.9-.48,.87-.15-.07,.28-1.42-.35-3-.61-1.55-1.45-2.75-1.26-2.87Z"/>
        <path class="cls-8" d="M185.27,95.82c.16-.07,.89,1.39,.99,3.36,.09,.97-.16,2.02-.72,2.49-.54,.5-1.04,.43-1.03,.34-.02-.1,.36-.21,.68-.66,.35-.44,.48-1.21,.4-2.13-.1-1.86-.5-3.34-.32-3.4Z"/>
        <path class="cls-8" d="M179.95,92.63c.08,.02,.1,.39-.13,.94-.23,.54-.76,1.23-1.59,1.64-.83,.41-1.7,.41-2.27,.27-.57-.14-.86-.38-.83-.46,.05-.18,1.4,.28,2.79-.42,1.4-.69,1.85-2.04,2.02-1.97Z"/>
      </g>
      <g>
        <path class="cls-7" d="M11.48,101.72c-4.21,.53-8.06,2.91-10,6.79-1.94,3.88-1.78,8.51,.65,12.15,2.34,3.51,6.37,6.01,10.69,5.71,2.44-.17,4.89-1.03,6.61-2.83,1.54-1.62,2.53-3.91,2.45-6.17-.09-2.65-1.46-5.13-3.86-6.38-2.23-1.16-5.16-1.3-7.27,.22-1.37,.99-2.17,2.87-1.16,4.43,.88,1.36,2.96,2.22,4.43,1.16,.12-.09,.25-.16,.37-.25,.43-.32-.16,.22-.17,.06,0-.02,.29-.08,.32-.08,.39-.09-.58-.1-.21,.03,.07,.03,.25,0,.33,0,.66-.01-.22,.02-.2-.03,0-.02,.38,.1,.43,.12,.52,.12-.24-.24-.05-.02,.05,.06,.22,.13,.29,.17,.58,.32-.15-.09-.12-.1,.05-.01,.31,.35,.32,.32,.02-.08-.5-.57-.1-.12,.03,.03,.29,.39,.05,.04-.23-.34,.01,.05,.05,.19,0,.02,.09,.36,.09,.36-.06,0-.04-.64-.03,0,0,.12,.02,.65,.02,.19,0-.45-.02,.05-.05,.18-.07,.27-.33,.86-.05,.29-.13,.26-.3,.51-.44,.77-.21,.38,.37-.34,.04-.06-.16,.13-.3,.3-.45,.44,.44-.41-.13,.07-.34,.18-.09,.05-.6,.3-.22,.13,.35-.16-.05,.01-.11,.03-.35,.1-.69,.19-1.05,.26,.13-.03,.67-.04,.05-.02-.18,0-.36,.02-.54,.02-.2,0-1.24-.15-.49,0-.3-.06-.6-.12-.9-.2-.27-.08-.89-.32-.3-.06-.35-.16-.69-.33-1.01-.53-.25-.15-.5-.32-.74-.5,.62,.45-.19-.2-.31-.32-.21-.21-.4-.44-.61-.65-.25-.25,.08,.12,.11,.16-.15-.21-.3-.41-.43-.63-.16-.25-.31-.51-.44-.78-.06-.11-.11-.23-.17-.34,.31,.57,.09,.24,.04,.07-.1-.32-.22-.64-.3-.97-.03-.12-.06-.25-.08-.37-.09-.46-.18-.33-.01-.02-.11-.21-.04-.65-.04-.89,0-.17,.03-.34,.02-.51,0-.47-.12,.57-.02,.12,.13-.62,.28-1.2,.51-1.79-.28,.73,.15-.24,.28-.45,.09-.16,.76-1.09,.27-.48,.21-.26,.43-.51,.66-.75,.12-.12,.24-.24,.36-.35,.07-.06,.59-.54,.24-.23-.29,.26,0,0,.07-.05,.17-.12,.34-.23,.52-.34,.32-.2,.65-.36,.99-.53-.63,.31,.13-.04,.39-.11,.22-.07,1.47-.29,.6-.18,1.68-.21,3.33-1.34,3.24-3.24-.07-1.57-1.44-3.47-3.24-3.24h0Z"/>
        <path class="cls-8" d="M8.97,109.06c-.19,.03-.42-1.51-1.66-2.79-1.23-1.3-2.76-1.6-2.71-1.79,.01-.09,.42-.13,1.04,.03,.62,.16,1.46,.56,2.16,1.29,.7,.73,1.07,1.58,1.19,2.21,.13,.63,.07,1.04-.02,1.04Z"/>
        <path class="cls-8" d="M6.26,113.89c-.09,.18-1.42-.43-3.15-.31-1.73,.08-2.99,.83-3.1,.67-.13-.12,1.11-1.24,3.06-1.34,1.95-.12,3.31,.85,3.19,.99Z"/>
        <path class="cls-8" d="M5.62,124.01c-.06,.05-.41-.25-.55-.93-.15-.67,.04-1.7,.69-2.51,.64-.82,1.45-1.28,2.02-1.55,.58-.27,.97-.36,1.01-.28,.05,.08-.27,.33-.77,.69-.5,.37-1.19,.85-1.73,1.55-.55,.69-.76,1.47-.75,2.04,0,.58,.16,.93,.07,.98Z"/>
        <path class="cls-8" d="M17.51,125.01c-.02,.09-.46,.08-1.15-.07-.68-.16-1.67-.47-2.51-1.26-.86-.77-1.18-1.91-1.05-2.66,.11-.77,.5-1.1,.56-1.05,.09,.05-.11,.44-.08,1.07,.01,.63,.31,1.48,1.04,2.14,.71,.67,1.57,1.03,2.2,1.29,.63,.26,1.03,.43,1.01,.53Z"/>
        <path class="cls-8" d="M20.63,114.17c-.03,.19-1.52-.04-3.06,.72-1.55,.75-2.28,2.07-2.45,1.97-.08-.04,0-.43,.33-.96,.33-.53,.95-1.19,1.83-1.62,.88-.43,1.78-.52,2.4-.45,.63,.07,.98,.25,.96,.33Z"/>
      </g>
      <g>
        <path class="cls-3" d="M52.15,154l-6.27-14.69c-3.11-2.73-7.64-3.75-11.62-2.62-3.98,1.13-7.3,4.38-8.51,8.33-3.57-.8-7.54,.54-9.9,3.34-2.35,2.8-2.99,6.94-1.58,10.32-3.48-.38-7.32,.48-9.58,3.16-2.25,2.68-2.09,7.39,.9,9.2,1.69,1.02,3.79,.96,5.76,.87,10.84-.5,21.67-1,32.51-1.5,1.88-.09,3.84-.19,5.5-1.09,2.48-1.33,3.81-4.22,4.02-7.03,.21-2.81-.51-5.59-1.23-8.31Z"/>
        <g>
          <path class="cls-6" d="M23.67,148.65c-5.39-2.46-13.09-4.95-17.4,.85-4.06,5.46-.47,12.1,4.61,15.23,2.67,1.64,5.12-2.56,2.45-4.2-2.69-1.65-5.89-5.84-2.67-8.69,2.91-2.57,7.66-.31,10.55,1.01,2.82,1.29,5.3-2.9,2.45-4.2h0Z"/>
          <path class="cls-3" d="M6.83,168.47s.36-5.03,5.42-6.73c5.07-1.71,10.36,1.56,10.36,1.56l-8.06,4.19-7.73,.98Z"/>
          <path class="cls-2" d="M19.83,161.85c-.04,.1-.86-.22-2.22-.4-1.35-.18-3.3-.15-5.23,.6-1.94,.76-3.4,2.04-4.27,3.09-.89,1.05-1.27,1.84-1.37,1.79-.07-.03,.16-.9,.99-2.08,.81-1.17,2.32-2.62,4.4-3.43,2.08-.81,4.17-.76,5.56-.45,1.41,.31,2.17,.8,2.14,.87Z"/>
          <g>
            <path class="cls-3" d="M21.81,159.9s-2.64-4.29,.47-8.63c3.12-4.34,9.33-4.78,9.33-4.78l-4.1,8.11-5.7,5.31Z"/>
            <path class="cls-2" d="M28.5,146.93c.03,.11-.82,.32-2.03,.97-1.21,.64-2.76,1.8-3.9,3.55-1.13,1.74-1.57,3.64-1.66,5-.1,1.37,.04,2.23-.06,2.25-.07,.02-.4-.83-.41-2.27-.03-1.43,.35-3.48,1.57-5.35,1.22-1.87,2.94-3.05,4.26-3.61,1.33-.57,2.23-.62,2.24-.54Z"/>
          </g>
          <path class="cls-5" d="M5.34,159.07c-.08,0-.15-.38,.06-.95,.19-.55,.7-1.29,1.56-1.69,.86-.4,1.75-.34,2.3-.14,.56,.2,.82,.49,.77,.56-.07,.17-1.37-.47-2.78,.19-1.4,.67-1.73,2.09-1.9,2.03Z"/>
          <path class="cls-5" d="M6.55,149.31c-.02-.18,1.35-.31,2.7,.59,1.35,.89,1.77,2.21,1.6,2.25-.18,.09-.79-.93-1.97-1.69-1.16-.79-2.34-.96-2.32-1.16Z"/>
          <path class="cls-5" d="M15.67,146.34c.16,.12-.38,1.02-.55,2.26-.2,1.23,.05,2.25-.14,2.32-.16,.09-.75-.99-.53-2.42,.21-1.43,1.09-2.29,1.21-2.16Z"/>
          <path class="cls-5" d="M21.63,147.45c.11,.16-.86,.92-1.48,2.22-.65,1.29-.66,2.52-.85,2.53-.17,.05-.5-1.34,.25-2.83,.73-1.5,2.02-2.09,2.09-1.92Z"/>
        </g>
        <g>
          <path class="cls-6" d="M207.98,144.08c3.09-5.4,10.63-2.86,10.24,3.21-.2,3.12,4.67,3.11,4.86,0,.3-4.7-2.68-9.44-7.31-10.77-4.68-1.35-9.63,.98-11.99,5.11-1.56,2.72,2.64,5.17,4.2,2.45h0Z"/>
          <path class="cls-5" d="M210.18,141.06c-.18,.06-.57-.6-1.12-1.32-.54-.73-1.07-1.29-.96-1.44,.1-.15,.88,.21,1.5,1.04,.62,.82,.75,1.67,.58,1.73Z"/>
          <path class="cls-5" d="M213.61,137.11c.06,.08,.04,.21,.2,.45,.16,.22,.45,.75,.49,1.31,.12,1.18-.54,1.97-.69,1.85-.16-.09,.12-.85,.01-1.78-.04-.48-.17-.82-.27-1.22-.04-.19-.02-.39,.06-.51,.08-.11,.16-.13,.19-.1Z"/>
          <path class="cls-5" d="M219.98,139.91c.16,.08-.19,1-1.16,1.66-.97,.66-1.96,.64-1.97,.46-.03-.19,.77-.45,1.59-1.02,.83-.55,1.37-1.2,1.54-1.1Z"/>
          <path class="cls-5" d="M221.99,144.76c.09,.16-.7,.69-1.81,.64-1.12-.04-1.86-.63-1.76-.78,.09-.17,.85,.08,1.79,.11,.94,.04,1.71-.15,1.79,.03Z"/>
        </g>
        <path class="cls-3" d="M158.41,125.31c8.97-4.69,21.42-.75,26.04,8.26,5.27-3,12.09-3.08,17.42-.2,5.34,2.88,9.01,8.62,9.39,14.68,5.75-1.49,12.22,.17,16.53,4.26,3.77,3.58,14.39,11.89,2.96,17.42-3.22,1.56-6.82,2.15-10.38,1.93l-60.05-3.64-1.92-42.71Z"/>
        <g>
          <g>
            <path class="cls-1" d="M28.85,163.89c.63-5.41,2.37-12.45,7-16.5,1.47-1.29,2.31-2.86,2.31-4.5v-41.22c0-1.64-.88-3.2-2.32-4.5-.92-.83-1.76-2.2-1.76-4.41,0-2.79,.56-5.83-.06-7.41l-1.45-1.08c-1.03-.71-6.16-2.42-5.54-7.39,.84-6.67,11.94-8.28,11.94-8.28,9.73-7.12,102.66-6.77,115.88-7.04,.99-.02,1.96-.13,2.9-.35,3.12-.73,11.58-1.99,15.47,4.41,3.67,6.06-3.22,12.72-6.69,15.53-1.21,.98-2.01,2.18-2.32,3.45l-1.85,7.68c-.16,.66-.18,1.33-.07,1.99l6.72,40.44c.31,1.85,1.66,3.52,3.73,4.71,3.01,1.74,7.01,4.79,6.78,8.65-.18,3.01-.18,5.47-.14,7.2,.04,1.65,.9,3.23,2.44,4.49,2.83,2.31,7.01,6.56,4.72,10.08-2.81,4.32-113.08,2.45-147.71,1.75-5.9-.12-10.45-3.63-9.98-7.7Z"/>
            <path class="cls-9" d="M121.35,161.1s-.7,.44-2.02,1.13c-.65,.36-1.48,.75-2.45,1.17-.97,.42-2.07,.93-3.32,1.38-4.96,1.93-12.06,4-20.07,5.39-8.01,1.41-15.36,2.01-20.67,2.17-2.66,.09-4.81,.07-6.3,.03-1.49-.06-2.31-.11-2.31-.16,0-.05,.82-.08,2.31-.11,1.48-.04,3.63-.09,6.28-.24,5.3-.28,12.61-.95,20.58-2.36,7.97-1.38,15.05-3.36,20.03-5.17,1.26-.42,2.36-.89,3.34-1.28,.98-.38,1.82-.74,2.49-1.06,1.35-.61,2.11-.93,2.13-.89Z"/>
            <path class="cls-9" d="M168.64,139s.01,.46-.08,1.29c-.03,.42-.16,.91-.3,1.49-.12,.58-.35,1.22-.61,1.92-1.03,2.8-3.38,6.35-6.86,9.3-3.47,2.97-7.2,4.84-9.96,5.91-1.4,.5-2.53,.89-3.34,1.08-.8,.21-1.25,.3-1.26,.26-.03-.12,1.72-.63,4.42-1.78,2.68-1.17,6.31-3.07,9.7-5.98,3.4-2.89,5.75-6.28,6.86-8.97,1.15-2.69,1.3-4.54,1.44-4.51Z"/>
            <path class="cls-9" d="M181.35,158.73c.02,.1-1.52,.54-4,1.28-2.48,.75-5.88,1.82-9.58,3.18-3.7,1.36-6.99,2.76-9.35,3.81-2.36,1.05-3.81,1.74-3.86,1.65-.04-.08,1.33-.91,3.65-2.08,2.32-1.17,5.6-2.65,9.32-4.02,3.72-1.37,7.17-2.38,9.69-3.01,2.52-.63,4.1-.91,4.12-.82Z"/>
            <path class="cls-9" d="M62.11,156.94c-.03,.08-1.54-.32-3.93-1.17-2.38-.86-5.64-2.19-9.06-4-3.43-1.8-6.37-3.73-8.4-5.26-1.02-.76-1.81-1.41-2.35-1.88-.53-.47-.81-.75-.78-.78,.07-.08,1.32,.86,3.4,2.27,2.09,1.41,5.04,3.26,8.44,5.05,3.4,1.8,6.59,3.19,8.92,4.16,2.33,.96,3.79,1.52,3.76,1.62Z"/>
            <path class="cls-9" d="M163.19,86.1s-.28,.37-.96,.91c-.68,.54-1.79,1.22-3.37,1.77-1.57,.53-3.59,.91-5.94,.92-2.36,.01-5.02-.36-7.91-.87-2.89-.52-6.06-1.03-9.5-1.12-3.44-.12-7.12,.1-10.96,.6-7.69,.97-15.96,3.17-24.77,4.94-8.82,1.78-17.38,2.57-25.17,2.73-7.79,.13-14.81-.35-20.64-1.11-5.84-.76-10.52-1.7-13.71-2.48-1.61-.35-2.83-.72-3.67-.94-.38-.11-.7-.2-.95-.27-.21-.06-.32-.1-.32-.11s.12,0,.33,.05c.26,.05,.57,.12,.96,.2,.85,.17,2.08,.5,3.69,.82,3.21,.7,7.89,1.56,13.71,2.26,5.83,.7,12.82,1.12,20.57,.96,7.75-.19,16.27-1,25.05-2.77,8.77-1.77,17.07-3.95,24.82-4.9,3.87-.49,7.59-.68,11.06-.54,3.48,.11,6.68,.66,9.56,1.21,2.89,.54,5.51,.94,7.83,.96,2.32,.02,4.31-.31,5.86-.79,3.14-.99,4.36-2.52,4.41-2.43Z"/>
            <g class="cls-4">
              <path d="M45.08,93.25c17.03,6.16,32.89,9.92,51.24,8.6,9.95-.72,19.62-3.15,29.21-5.58,8.05-2.03,16.97-4.85,25.02-6.89-.72-.39-14.55-3.02-23.61-1.68-9.06,1.34-38.47,7.42-49.39,7.99-11.77,.62-33.12-1.92-32.48-2.45Z"/>
            </g>
            <path class="cls-9" d="M151.94,113.86s-.21,.29-.67,.79c-.46,.5-1.12,1.25-2.02,2.17-1.78,1.86-4.41,4.52-7.88,7.56-6.88,6.08-17.36,13.8-30.67,18.65-13.3,4.86-26.36,5.67-35.52,4.75-4.6-.45-8.27-1.25-10.75-1.96-1.25-.32-2.18-.7-2.83-.9-.64-.22-.97-.35-.97-.37,0-.02,.35,.06,1.01,.24,.66,.16,1.6,.49,2.86,.78,2.49,.63,6.15,1.35,10.72,1.74,9.11,.79,22.05-.1,35.25-4.91,13.2-4.81,23.65-12.4,30.59-18.37,3.49-2.99,6.17-5.59,8-7.39,.88-.87,1.58-1.56,2.11-2.08,.48-.47,.75-.72,.76-.7Z"/>
            <g class="cls-4">
              <path d="M134.04,130.25c2.71-2.31,5.42-4.62,8.14-6.93-4.89,8.91-14.32,16.5-26.09,20.99-11.77,4.49-25.78,5.54-38.78,3.46,.09,.64,19.33-.14,26.62-3.01,7.01-2.76,15.3-5.74,18.85-7.39,3.55-1.65,11.26-7.12,11.26-7.12Z"/>
            </g>
          </g>
          <g>
            <path class="cls-6" d="M124.79,32.5c3.09-5.4,10.63-2.86,10.24,3.21-.2,3.12,4.67,3.11,4.86,0,.3-4.7-2.68-9.44-7.31-10.77-4.68-1.35-9.63,.98-11.99,5.11-1.56,2.72,2.64,5.17,4.2,2.45h0Z"/>
            <path class="cls-5" d="M126.98,29.48c-.18,.06-.57-.6-1.12-1.32-.54-.73-1.07-1.29-.96-1.44,.1-.15,.88,.21,1.5,1.04,.62,.82,.75,1.67,.58,1.73Z"/>
            <path class="cls-5" d="M130.41,25.54c.06,.08,.04,.21,.2,.45,.16,.22,.45,.75,.49,1.31,.12,1.18-.54,1.97-.69,1.85-.16-.09,.12-.85,.01-1.78-.04-.48-.17-.82-.27-1.22-.04-.19-.02-.39,.06-.51,.08-.11,.16-.13,.19-.1Z"/>
            <path class="cls-5" d="M136.78,28.33c.16,.08-.19,1-1.16,1.66-.97,.66-1.96,.64-1.97,.46-.03-.19,.77-.45,1.59-1.02,.83-.55,1.37-1.2,1.54-1.1Z"/>
            <path class="cls-5" d="M138.79,33.18c.09,.16-.7,.69-1.81,.64-1.12-.04-1.86-.63-1.76-.78,.09-.17,.85,.08,1.79,.11,.94,.04,1.71-.15,1.79,.03Z"/>
          </g>
          <path class="cls-3" d="M156.57,62.11c5.21-1.83,4.66-13.67,.43-18.9-3.66-4.53-8.82-8.48-14.33-8.12-3.92,.26-8.05,1.66-11.64-.14-2.08-1.05-3.65-3.05-5.58-4.4-3.76-2.64-8.53-2.65-12.88-1.69-3.24,.71-6.48,1.91-9.76,1.49-2.64-.34-5.07-1.7-7.56-2.76-10.84-4.64-21.16-6.94-31.85,.75-4.05,2.91-7.4,11.49-8.25,16.83-9.43,1.99-14.29,11.3-15.19,24.6,0,0,28.87-7.61,42.88,2.71,0,0,28.38-9.26,60.39-6.45,3.15-2.8,7.43-4.3,13.33-3.9,0,0-.22,.08,0,0Z"/>
          <g class="cls-4">
            <path d="M121.24,39.1c-5.73-2.18-12.17-2.27-17.8,.2-5.64,2.47-11.53,6.92-13.56,13.27-3.57-2.22-6.75-2.88-10.71-1.74-3.96,1.14-7.64,4.5-8.8,8.59l63.37-9.92c-3.83-5.22-6.76-8.22-12.5-10.4Z"/>
          </g>
          <g>
            <path class="cls-3" d="M68.97,61.04c2.23-3.58,5.87-6.26,9.95-7.31,4.08-1.05,8.56-.48,12.25,1.58,2.09-5.89,6.99-10.62,12.8-12.91,5.81-2.29,12.44-2.21,18.36-.19,5.91,2.02,11.1,5.91,15.06,10.75"/>
            <path class="cls-2" d="M137.37,52.96s-.22-.19-.59-.59c-.37-.4-.91-.98-1.64-1.71-1.46-1.44-3.68-3.46-6.82-5.35-3.12-1.88-7.22-3.63-12.03-4.14-4.76-.53-10.28,.16-15.11,2.93-4.7,2.67-8.16,6.9-9.73,11.3l-.12,.35-.32-.18c-3.19-1.78-6.68-2.32-9.68-2.02-3.02,.29-5.52,1.4-7.36,2.6-1.85,1.21-3.07,2.51-3.85,3.42-.77,.93-1.12,1.48-1.16,1.46-.01,0,.06-.15,.22-.43,.16-.27,.41-.67,.78-1.15,.73-.97,1.93-2.33,3.79-3.61,1.85-1.27,4.41-2.46,7.52-2.8,3.09-.35,6.71,.17,10.04,1.99l-.45,.17c1.59-4.56,5.15-8.93,9.98-11.68,4.99-2.86,10.65-3.54,15.52-2.96,4.92,.56,9.08,2.4,12.21,4.35,3.16,1.97,5.34,4.07,6.76,5.57,.71,.76,1.22,1.37,1.56,1.8,.33,.43,.5,.66,.48,.68Z"/>
          </g>
          <g>
            <path class="cls-6" d="M68.83,30.1c-4.73,.93-6.34,6.54-3.8,10.32,2.68,3.98,8.43,4.76,12.41,2.38,2.68-1.61,.24-5.81-2.45-4.2-1.61,.96-3.86,1.01-5.35-.26-1.32-1.13-1.45-3.18,.49-3.56,3.07-.6,1.77-5.29-1.29-4.69h0Z"/>
            <path class="cls-6" d="M102.02,48.69c-1.67,4.01,.1,8.75,4.44,10.08,2.05,.62,4.13,.2,6.06-.58,2.52-1.02,6.7-4.25,8.14-.24,1.05,2.92,5.75,1.66,4.69-1.29-1.11-3.08-3.28-5.42-6.75-5.58-1.95-.09-3.76,.64-5.49,1.45-.92,.43-1.79,1-2.77,1.28-2.82,.8-4.9-.8-3.64-3.83,1.2-2.88-3.5-4.14-4.69-1.29h0Z"/>
            <path class="cls-6" d="M86.68,23.99c1.18,.7,4,2.1,3.4,3.86-.47,1.39-3.44,2.07-4.6,2.77-2.68,1.61-.23,5.82,2.45,4.2,2.96-1.78,6.85-2.77,7.07-6.92,.21-3.88-2.85-6.33-5.88-8.11-2.7-1.59-5.15,2.61-2.45,4.2h0Z"/>
            <path class="cls-6" d="M56.56,47.57c-4.97-2.21-12.03-4.39-15.92,.97-3.65,5.04-.38,11.12,4.32,13.95,2.69,1.62,5.13-2.58,2.45-4.2-2.27-1.37-5.16-4.89-2.45-7.35,2.47-2.24,6.66-.28,9.14,.82,2.83,1.26,5.31-2.93,2.45-4.2h0Z"/>
            <path class="cls-3" d="M118.07,57.31c.19-.02,5.35-1.33,6.04-4.38,.68-3.05,2.18-1.99,2.18-1.99l7.1,7.19-4.79,2.9-8.03,.62-2.12-4.05"/>
            <path class="cls-2" d="M126.06,54.17c-.02,.1-.51,.04-1.27,.13-.75,.08-1.78,.37-2.67,1.07-.89,.7-1.42,1.63-1.69,2.33-.27,.71-.33,1.2-.43,1.2-.08,0-.2-.51-.02-1.33,.17-.81,.7-1.92,1.73-2.73,1.04-.8,2.24-1.05,3.07-1.01,.84,.03,1.31,.27,1.29,.35Z"/>
            <g>
              <path class="cls-3" d="M78.46,34.42c2.73-1.97,3.56-3.98,7.63-2.74,2.11,.64,4.01,3.16,4.81,5.21"/>
              <path class="cls-2" d="M90.9,36.89c-.1,.04-.45-.78-1.29-1.92-.84-1.09-2.16-2.72-4.25-3.13-1.03-.25-2.04-.29-2.87,.02-.84,.29-1.49,.85-2.06,1.27-1.13,.9-1.92,1.37-1.97,1.29-.05-.08,.61-.66,1.66-1.65,.54-.47,1.19-1.11,2.15-1.49,.96-.41,2.15-.36,3.24-.1,1.12,.22,2.15,.83,2.85,1.51,.73,.67,1.25,1.39,1.64,2.01,.77,1.26,.97,2.17,.9,2.19Z"/>
            </g>
            <path class="cls-3" d="M41.52,65.67s.27-4.5,4.8-6.08c4.52-1.57,9.29,1.31,9.29,1.31l-7.18,3.82-6.91,.95Z"/>
            <path class="cls-2" d="M53.1,59.62c-.04,.1-.77-.17-1.99-.31-1.21-.15-2.94-.09-4.66,.6-1.72,.69-3.01,1.85-3.79,2.79-.79,.94-1.13,1.65-1.23,1.6-.07-.03,.12-.82,.85-1.89,.71-1.07,2.05-2.38,3.92-3.13,1.86-.75,3.74-.72,4.99-.44,1.27,.27,1.95,.71,1.92,.78Z"/>
            <g>
              <path class="cls-3" d="M54.85,57.86s-2.4-3.82,.35-7.73c2.75-3.92,8.31-4.36,8.31-4.36l-3.6,7.29-5.06,4.8Z"/>
              <path class="cls-2" d="M60.72,46.2c.03,.1-.73,.31-1.8,.91-1.07,.59-2.44,1.64-3.44,3.2-1,1.56-1.37,3.26-1.45,4.47-.09,1.22,.04,2-.06,2.02-.07,.02-.38-.73-.41-2.03-.04-1.28,.28-3.13,1.36-4.82,1.08-1.69,2.62-2.76,3.8-3.27,1.19-.52,2-.56,2.01-.48Z"/>
            </g>
            <path class="cls-6" d="M158.36,49.61c2.59-3.98,4.94-9.73,.69-13.55-3.69-3.32-9.09-1.55-11.97,1.86-2,2.38,1.42,5.84,3.44,3.44,1.2-1.42,3.97-3.51,5.6-1.36,1.62,2.14-.81,5.42-1.95,7.16-1.71,2.63,2.5,5.07,4.2,2.45h0Z"/>
            <path class="cls-3" d="M145.14,35.2s3.59,.8,4.28,4.64c.69,3.84-2.24,7.32-2.24,7.32l-2.16-6.27,.12-5.69Z"/>
            <path class="cls-2" d="M148.52,45.3c-.09-.05,.21-.62,.47-1.58,.26-.95,.43-2.34,.1-3.81-.33-1.46-1.08-2.64-1.73-3.39-.65-.76-1.16-1.14-1.1-1.23,.04-.07,.66,.17,1.45,.89,.78,.71,1.68,1.96,2.05,3.57,.36,1.61,.09,3.13-.3,4.1-.4,.99-.85,1.48-.92,1.43Z"/>
            <g>
              <path class="cls-3" d="M149.72,46.94s3.38-1.45,6.18,1.27c2.8,2.72,2.45,7.25,2.45,7.25l-5.42-3.83-3.22-4.69Z"/>
              <path class="cls-2" d="M158.36,53.17c-.11,0-.19-.62-.54-1.56-.35-.93-1.02-2.15-2.14-3.15-1.12-.99-2.42-1.51-3.38-1.74-.97-.24-1.61-.25-1.61-.35,0-.08,.64-.25,1.7-.12,1.05,.12,2.51,.61,3.75,1.71,1.24,1.1,1.9,2.49,2.15,3.51,.26,1.03,.17,1.7,.09,1.7Z"/>
            </g>
            <path class="cls-5" d="M92.72,31.61c-.19,.01-.32-1-1.13-1.77-.8-.78-1.81-.87-1.81-1.06,0-.09,.26-.2,.71-.16,.44,.03,1.06,.24,1.57,.73,.51,.49,.74,1.1,.79,1.54,.05,.45-.04,.71-.13,.71Z"/>
            <path class="cls-5" d="M93.39,24.08c-.03,.19-.99,.17-2.04,.58-.52,.2-.98,.46-1.28,.65-.29,.18-.29,.34-.37,.4-.04,.02-.13-.02-.16-.18-.03-.16,.05-.38,.19-.56,.29-.35,.76-.7,1.37-.94,1.25-.48,2.33-.12,2.28,.05Z"/>
            <path class="cls-5" d="M74.71,43.28c-.17-.07,.11-.98-.26-1.96-.35-.98-1.15-1.49-1.07-1.66,.04-.08,.31-.06,.67,.15,.36,.21,.8,.65,1.03,1.27,.23,.62,.18,1.24,.04,1.64-.14,.4-.33,.59-.41,.55Z"/>
            <path class="cls-5" d="M68.81,43.01c-.1-.17,.6-.73,1.14-1.64,.56-.9,.73-1.78,.93-1.77,.18-.01,.3,1.05-.35,2.12-.65,1.07-1.64,1.46-1.71,1.29Z"/>
            <path class="cls-5" d="M68.84,37.92c-.01,.19-.94,.27-1.99,.64-1.05,.36-1.82,.89-1.96,.74-.13-.12,.53-.96,1.73-1.38,1.2-.43,2.24-.18,2.21,0Z"/>
            <path class="cls-5" d="M66.09,32.05c0-.09,.28-.19,.75-.13,.46,.06,1.1,.35,1.55,.95,.45,.6,.55,1.29,.49,1.75-.06,.47-.24,.71-.32,.68-.18-.04,0-1.11-.7-2.03-.7-.93-1.77-1.05-1.76-1.23Z"/>
            <path class="cls-5" d="M45.01,56.73c-.03,.19-1.02,.16-2.08,.66-1.07,.47-1.69,1.24-1.86,1.14-.17-.07,.3-1.18,1.58-1.75,1.27-.59,2.42-.21,2.36-.04Z"/>
            <path class="cls-5" d="M43.55,52.18c-.08,.18-1.04-.1-2.19,.13-1.16,.2-1.95,.81-2.09,.67-.15-.1,.57-1.08,1.96-1.33,1.38-.27,2.41,.38,2.31,.53Z"/>
            <path class="cls-5" d="M43.72,46.43c.03-.18,1.26,.13,1.94,1.4,.69,1.26,.28,2.46,.11,2.39-.19-.03-.13-1.04-.71-2.06-.54-1.04-1.42-1.54-1.34-1.72Z"/>
            <path class="cls-5" d="M51.6,46.43c.17-.07,.6,.94,.17,2.13-.42,1.2-1.4,1.7-1.48,1.54-.12-.16,.51-.78,.85-1.77,.36-.97,.28-1.86,.47-1.9Z"/>
            <path class="cls-5" d="M102.07,52.61c-.08,.06-.31-.33,.03-.79,.33-.41,.9-.7,1.61-.82,1.45-.22,2.43,.61,2.3,.75-.1,.16-1.03-.27-2.19-.08-.56,.09-1.1,.3-1.36,.48-.27,.18-.29,.43-.37,.46Z"/>
            <path class="cls-5" d="M106.58,58.41c-.05,.07-.36-.06-.66-.47-.3-.4-.56-1.12-.38-1.92,.18-.79,.73-1.34,1.17-1.57,.45-.24,.78-.22,.8-.14,.07,.16-1.03,.64-1.31,1.86-.27,1.22,.52,2.12,.39,2.24Z"/>
            <path class="cls-5" d="M114.28,56.91c-.04,.08-.31,.05-.71-.1-.39-.16-.96-.45-1.41-1.01-.46-.56-.56-1.31-.41-1.76,.14-.47,.42-.64,.48-.58,.08,.06-.02,.3,0,.66,0,.36,.13,.83,.47,1.27,.71,.86,1.7,1.33,1.59,1.53Z"/>
            <path class="cls-5" d="M118.81,51.64c.17-.05,.58,.86,.49,2.06-.08,1.2-.62,2.05-.78,1.97-.18-.07,.03-.95,.11-2.02,.08-1.07,0-1.96,.19-2.01Z"/>
            <path class="cls-5" d="M152.09,35.13c.02-.08,.31-.11,.72,.09,.4,.19,.9,.65,1.11,1.33,.21,.69,.05,1.34-.18,1.72-.23,.39-.48,.53-.54,.47-.15-.1,.39-.97,.07-2-.31-1.03-1.24-1.45-1.18-1.62Z"/>
            <path class="cls-5" d="M159.01,37.05c.18,0,.16,1.05-.65,1.95-.81,.9-1.84,1.03-1.87,.85-.06-.19,.71-.55,1.37-1.3,.68-.73,.96-1.53,1.15-1.49Z"/>
            <path class="cls-5" d="M160.17,43.97c-.14,.13-.75-.3-1.6-.55-.84-.27-1.59-.25-1.63-.44-.06-.17,.8-.53,1.83-.21,1.04,.31,1.55,1.09,1.4,1.2Z"/>
            <path class="cls-5" d="M158.73,48.15c-.18,.08-.64-.66-1.5-1.24-.84-.59-1.7-.77-1.69-.96-.02-.18,1.05-.3,2.07,.41,1.03,.71,1.29,1.75,1.11,1.79Z"/>
          </g>
          <path class="cls-9" d="M38.75,70.52s.57-.31,1.66-.75c.54-.23,1.21-.49,2.01-.73,.79-.24,1.69-.57,2.71-.8,4.05-1.07,9.82-2.01,16.23-1.81,6.4,.17,12.16,1.42,16.04,3.03,.97,.4,1.85,.75,2.58,1.17,.74,.39,1.39,.7,1.86,1.05,.98,.65,1.5,1.03,1.48,1.06-.08,.13-2.19-1.41-6.09-2.83-3.87-1.47-9.56-2.63-15.89-2.8-6.34-.2-12.06,.66-16.1,1.6-4.05,.95-6.44,1.94-6.49,1.81Z"/>
          <path class="cls-9" d="M158.67,61.74c0,.09-1.57-.19-4.39,.07-2.76,.29-6.93,1.3-10.89,4.39l-.09,.07h-.1c-4.71-.54-10.3-1.01-16.5-.96-6.2,.07-13,.58-20.03,1.7-7.24,1.15-14.03,2.83-20.08,4.75-6.06,1.91-11.33,4.15-15.69,6.15-4.34,2.07-7.74,3.95-10.05,5.32-1.11,.67-2,1.2-2.66,1.59-.61,.36-.94,.54-.95,.52-.01-.02,.29-.24,.88-.63,.64-.42,1.51-.99,2.59-1.7,2.28-1.44,5.66-3.4,9.98-5.52,4.35-2.06,9.63-4.37,15.71-6.31,6.07-1.96,12.89-3.67,20.16-4.82,7.07-1.13,13.91-1.62,20.14-1.66,6.24-.02,11.85,.5,16.57,1.09l-.19,.06c4.14-3.15,8.37-4.06,11.18-4.29,2.86-.18,4.41,.2,4.41,.2Z"/>
        </g>
        <path class="cls-3" d="M25.96,185.12c.86-5.39,6.2-9.35,10.04-9.73,6.58-.66,8.95,2.44,11.58,5.28,1.36,1.46,2.31,3.84,1.03,5.37-.72,.86-1.9,1.13-3.01,1.33-4.49,.8-9.06,1.11-13.62,.94-1.22-.05-2.47-.13-3.6-.6-1.13-.47-2.14-1.39-2.42-2.58"/>
        <path class="cls-3" d="M6.12,185.38c.53-3.32,3.82-5.76,6.19-6,4.06-.41,5.52,1.51,7.14,3.25,.84,.9,1.43,2.37,.64,3.31-.44,.53-1.17,.7-1.85,.82-2.77,.49-5.59,.69-8.4,.58-.75-.03-1.52-.08-2.22-.37-.7-.29-1.32-.85-1.49-1.59"/>
        <g>
          <g>
            <path class="cls-6" d="M204.81,150.58c-1.73-4.52-4.8-10.11-10.58-9.17-5.41,.88-7.12,6.71-5.98,11.4,.74,3.04,5.43,1.75,4.69-1.29-.47-1.94-.17-5.64,2.71-5.34,2.54,.27,3.72,3.72,4.48,5.69,1.11,2.89,5.81,1.64,4.69-1.29h0Z"/>
            <path class="cls-5" d="M188.82,146.65c-.05-.07,.1-.32,.51-.54,.4-.21,1.08-.35,1.78-.11,.7,.24,1.15,.77,1.34,1.19,.19,.42,.16,.72,.07,.74-.17,.06-.57-.93-1.63-1.29-1.06-.37-1.98,.16-2.08,.01Z"/>
            <path class="cls-5" d="M194.65,142.02c.11-.14,.97,.51,1.22,1.73,.26,1.22-.25,2.16-.41,2.08-.18-.06-.02-.93-.25-1.94-.2-1.02-.7-1.74-.56-1.87Z"/>
            <path class="cls-5" d="M201.15,145.26c.03,.19-.72,.43-1.44,.99-.74,.54-1.18,1.19-1.35,1.11-.17-.05,.05-.98,.95-1.65,.89-.68,1.84-.64,1.85-.46Z"/>
            <path class="cls-5" d="M203.77,149.01c-.04,.19-.95,.12-1.95,.49-1.01,.34-1.68,.96-1.83,.84-.16-.09,.39-1.05,1.61-1.47,1.21-.43,2.24-.02,2.17,.15Z"/>
          </g>
          <g>
            <path class="cls-3" d="M197.27,155.83s.85-3.72,4.83-4.41c3.99-.69,7.57,2.36,7.57,2.36l-6.51,2.21-5.89-.16Z"/>
            <path class="cls-2" d="M207.76,152.37c-.05,.09-.64-.22-1.63-.5-.99-.28-2.43-.46-3.95-.13-1.52,.34-2.75,1.11-3.53,1.78-.79,.67-1.18,1.2-1.27,1.14-.07-.04,.19-.68,.94-1.49,.74-.8,2.04-1.72,3.71-2.1,1.67-.37,3.24-.08,4.24,.33,1.02,.41,1.53,.89,1.48,.95Z"/>
          </g>
          <g>
            <path class="cls-3" d="M184.64,152.52s2.86-2.53,6.5-.76c3.64,1.76,4.77,6.33,4.77,6.33l-6.57-2.01-4.69-3.57Z"/>
            <path class="cls-2" d="M195.18,155.83c-.1,.04-.39-.55-1.03-1.36-.64-.8-1.7-1.79-3.13-2.41-1.43-.61-2.88-.7-3.9-.61-1.03,.08-1.66,.29-1.7,.19-.03-.07,.55-.44,1.63-.66,1.07-.22,2.66-.21,4.23,.46,1.57,.67,2.68,1.82,3.25,2.75,.59,.93,.72,1.61,.65,1.64Z"/>
          </g>
        </g>
      </g>
    </g>
  </g>
</svg>