<?xml version="1.0" encoding="UTF-8"?>
<svg id="Layer_2" data-name="Layer 2" xmlns="http://www.w3.org/2000/svg" xmlns:xlink="http://www.w3.org/1999/xlink" viewBox="0 0 393.25 302.5">
  <defs>
    <style>
      .cls-1 {
        fill: #15a9fa;
      }

      .cls-2 {
        fill: #a1e5ff;
      }

      .cls-3 {
        fill: #15b0fc;
      }

      .cls-4 {
        fill: #9fdefc;
      }

      .cls-5 {
        fill: #ffb93e;
      }

      .cls-6 {
        fill: #15b7fd;
      }

      .cls-7 {
        opacity: .15;
      }

      .cls-8 {
        fill: #15beff;
      }

      .cls-9 {
        clip-path: url(#clippath);
      }

      .cls-10 {
        fill: none;
      }

      .cls-11 {
        fill: #a0e1fd;
      }

      .cls-12 {
        fill: #9edafa;
      }
    </style>
    <clipPath id="clippath">
      <rect class="cls-10" x="62.53" y="146.87" width="246.44" height="46.95"/>
    </clipPath>
  </defs>
  <g id="Layer_1-2" data-name="Layer 1">
    <g>
      <g id="Countries" class="cls-7">
        <g id="C_H_I_N_A" data-name="C H I N A">
          <polygon points="296.22 283.37 295.1 282.9 293.61 283.12 294.15 283.73 295.01 283.66 296.22 283.89 296.22 283.37"/>
          <path d="M296.72,289.81l-1.35-.49-.9,.63s-.72-.49-.67-.53l-1.26,.27-.65-.18-.88,.58h-1.15l-1.23,.62-1.12,.18-.27,1.17-1.88,1.12-1.61,1.7,.58,.99,.04,2.33,.72,1.21-.09,.72,1.12,.99h1.3l.85,.67,.9-.04,1.12,.76,.76-.4,.31-1.12,.99-.18,1.03,.27,.76-.99,.09-.72,1.17-.22,.9-.94-.22-1.08,.63-1.93,.63-.49,.27-.9,.94-1.52-.54-1.62-1.3-.85Z"/>
          <polygon points="246.12 280.73 246.33 280.93 246.33 280.93 246.12 280.73"/>
          <polygon points="7.25 165.5 4.92 163.88 4.25 164 2.75 169.52 4.21 169.08 5.46 169.84 6.81 169.53 7.26 169.97 7.51 169.91 7.16 167.11 7.25 165.5"/>
          <polygon points="278.85 279.55 278.82 279.55 278.82 279.55 278.86 279.58 278.85 279.55"/>
          <polygon points="53.73 185.14 53.37 183.88 51.71 182.89 50.01 181.46 48.75 179.89 47.49 180.34 46.6 180.7 45.7 179.84 45.43 177.38 48.44 175.36 48.03 174.3 46.24 174.66 44.81 173.85 42.74 174.93 41.21 176.28 39.51 176.28 38.52 177.8 37.35 178.97 40.04 182.93 40.22 185.62 39.26 186.87 53.75 193.76 52.65 191.95 52.61 190.03 53.64 189.58 53.82 188.28 55.57 187.15 55.52 185.63 53.73 185.14"/>
          <polygon points="345.91 249.11 346.18 250.5 346.81 250.28 346.86 249.38 346.41 248.89 345.91 249.11"/>
          <polygon points="392.49 52.85 391.9 52.22 391.77 51.33 390.74 50.21 390.52 49.58 391.14 48.99 390.52 47.87 390.16 47.2 389.12 47.16 388.45 46.62 387.27 46.17 386.64 46.8 385.63 46.94 384.94 47.55 384.78 48.49 384.15 48.69 383.5 48.83 383.16 50.09 381.9 50.09 381.12 50.2 380.73 51.1 380.73 52.09 379.93 52.52 379.63 53.67 379.72 54.34 379.07 54.64 378.28 55.36 376.53 55.67 375.93 55.9 375.05 55.67 374.53 56.19 373.77 56.48 373.45 55.65 372.89 54.84 372.01 54.82 371.18 55.42 370.22 55.69 369.9 55.06 368.91 53.8 368.38 53.46 367.18 51.98 367.18 51.08 367.48 50.72 367.68 49.55 367.3 48.54 367.05 47.43 366.02 47.5 365.9 46.78 365.86 45.92 366.4 45.16 366.53 44.35 366.06 44.12 365.57 44.24 364.91 44.73 364.17 44.8 363.52 45 362.67 44.84 362.04 44.35 361.43 44.28 361.12 43.99 359.77 43.38 359.61 42.77 359.05 42.19 358.71 42.21 358.06 41.67 357.88 41.06 357.21 40.97 356.55 40.23 356.31 39.53 355.84 39.08 355.21 39.17 354.96 39.92 354.31 39.73 353.69 39.98 353.51 40.47 352.75 39.98 352.34 39.48 351.71 39.17 350.32 39.04 349.92 38.68 350.41 38.14 350.41 37.83 349.56 37.83 348.89 38.36 347.59 38.18 347.09 38.45 346.47 38.09 345.84 38.32 345.03 38.18 344.58 37.38 343.55 37.02 342.16 35.58 341.49 34.37 341.62 33.52 341.35 32.44 340.68 32.31 339.96 31.9 339.87 30.65 339.42 30.25 339.2 28.99 338.79 27.82 336.55 26.39 335.36 24.79 335.21 24.03 334.62 23.06 334.01 23.35 333.66 23.15 333.83 22.45 333.88 21.91 333.09 21.32 332.69 20.29 332.06 19.97 331.83 19.07 331.07 18.11 330.55 17.07 329.14 16.21 329 15.54 329.36 14.71 329.18 14.01 327.59 13.92 327.34 13.51 327.34 12.91 327.03 12.16 326.96 11.31 326.53 10.59 325.92 10.25 325.9 9.66 325.48 9.26 324.87 9.35 323.83 9.06 323.54 8.52 323.88 7.91 323.68 7.32 322.82 7.17 322.19 7.66 321.9 7.19 321.21 7.17 321 6.54 321.16 5.88 320.78 5.32 319.97 5.01 319.34 5.08 318.7 4.37 318.25 4.59 317.35 4.59 316.81 4.36 316.23 4.72 316.32 5.48 315.83 5.71 314.71 5.17 314.3 4.77 313.5 5.03 312.06 5.03 311.84 4.5 311.03 3.82 309.05 3.65 308.2 3.02 307.22 2.93 306.5 2.75 306.18 2.93 304.39 3.15 304.03 4.09 303.54 4.09 303 4.59 301.7 4.54 300.93 4.68 299.59 4.45 298.87 5.26 297.8 5.26 297.3 6.2 296.36 6.61 295.46 6.52 295.24 6.74 294.43 6.79 293.67 7.05 292.05 7.23 291.38 7.82 291.38 8.58 290.48 9.66 290.12 10.82 289.63 11.45 289.63 12.08 289.23 12.62 289.23 14.14 289.63 14.63 290.26 14.72 291.65 13.87 292.5 13.51 293.26 13.69 294.16 15.17 294.66 16.34 295.55 17.01 295.55 17.95 295.82 18.72 295.73 20.2 294.97 20.78 294.16 21.99 293.89 23.43 293.13 24.05 292.41 25.31 292.32 26.34 292.95 27.37 292.73 28.05 292.91 29.4 293.65 30.17 293.52 31.34 292.78 31.75 292.55 32.47 293 33.57 293.03 35.37 292.69 35.89 292.8 37.62 293.43 37.73 293.88 38.09 294.37 37.73 294.85 38.02 295.09 39.31 294.73 40.5 293.77 41.45 291.54 41.83 290.13 42.82 287.16 45.63 286.46 45.74 285.56 44.98 283.74 44.73 282.62 44.93 282.42 44.51 281.54 44.37 280.85 44.6 280.93 44.69 279.57 54.36 279.84 56.42 279.3 58.22 279.48 59.48 278.67 62.17 279.66 64.15 282.62 65.59 284.6 64.06 287.12 64.06 289.81 64.51 291.07 65.77 292.6 63.43 292.42 62.08 292.51 60.92 294.22 60.38 294.84 59.84 297.63 60.56 299.25 62.53 301.49 64.6 303.29 66.85 305.6 68.51 305.65 69.58 306.09 70.44 306.05 71.51 305.6 72.23 305.56 73.08 305.06 73.85 304.12 73.62 303.54 73.04 302.24 73.22 301.52 73.71 299.77 72.95 298.69 73.17 297.57 74.74 295.87 76.09 294.88 76.72 293.76 75.91 293.26 76.04 293.22 77.21 292.77 77.88 291.92 78.02 291.25 77.88 290.75 78.65 289.68 80.3 289.41 82.19 289.5 83.49 288.82 84.3 287.52 84.61 284.74 86.5 283.26 86.5 281.74 86.18 281.02 86.72 279.85 89.19 278.69 90.04 277.3 91.07 276.44 91.97 276.08 92.95 275.46 93.09 274.16 92.46 272.63 92.15 270.75 91.47 269.22 90.4 267.7 90.35 265.27 90.85 263.84 91.92 262.94 93.22 262.85 95.96 262.99 97.31 262.9 98.16 265.68 100 268.24 101.57 268.24 102.33 267.61 103.5 266.8 104.71 264.06 107.76 262.45 110.4 261.55 112.47 260.52 112.47 258.55 113.1 257.07 113.19 255.41 114.31 253.7 115.56 251.95 115.65 249.39 115.92 247.65 116.5 245.63 117.09 241.19 118.66 237.69 119.82 235.94 121.8 233.25 123.95 232.12 124.89 230.65 124.94 228.81 124.4 228.81 123.73 228.58 122.78 225.93 123.55 223.78 123.86 221.54 122.7 219.74 122.52 215.8 121.03 211.89 119.24 209.83 117.22 208.17 117.18 203.69 116.68 199.92 116.78 198.96 116.55 198.26 116.98 197.9 117.68 195.83 118.45 192.89 118.74 187.72 118.3 183.95 118.52 181.08 118.34 178.61 118.61 177.35 118.75 176.28 118.39 174.89 115.7 174.35 114.35 173.05 112.42 171.97 111.12 171.25 109.33 171.16 108.54 170.26 107.57 169.31 107.24 168.71 107.15 168.44 106.45 168.28 105.35 167.85 105.17 167.29 105.32 165.54 105.3 164.06 104.45 161.76 102.8 160.98 102.62 160.42 102.65 159.31 102.44 158.8 101.72 156.86 100.48 152.64 99.52 152.21 99.63 151.67 100.08 149.99 100.26 147.29 100.3 141.18 99 139.83 98.21 138.44 96.1 138.21 95.1 138.21 94.18 138.62 93.53 139.49 92.83 139.87 91.71 139.18 90.87 138.86 89.41 139.16 88.62 139.07 87.23 138.55 86.46 137.78 85.18 136.86 84.73 135.87 83.92 135.47 82.84 134.82 81.91 134.46 80.79 134.3 79.82 133.6 78.81 132.62 78.02 131.69 77.73 131.22 76.99 130.19 76.58 129.25 76.67 128.64 77.26 127.96 77.55 127.31 77.3 126.32 76.2 126.01 75.64 124.84 75.66 123.61 76.24 123.13 76.78 122.91 77.5 122.32 77.53 121.09 76.74 120.77 75.82 120.75 75.39 119.88 74.31 118.64 73.52 117.69 72.46 116.98 72.17 116.32 71.56 116.03 70.77 115.97 69.96 115.63 69.31 115.43 69.41 115.35 69.77 114.95 69.88 114.48 69.07 114.12 68.71 114.17 67.31 114.05 66.73 113.51 66.72 112.26 66.27 111.49 66.26 111.64 66.44 110.52 67.66 109.53 68.19 107.87 69.94 107.83 70.93 108.19 71.6 107.42 72.95 105.58 73.62 104.46 74.43 104.24 75.86 104.33 78.51 105.54 80.98 106.71 82.55 106.53 83.4 104.96 85.15 103.61 85.64 102.53 86.9 101.64 87.21 101.05 86.99 100.74 86.27 99.66 86.27 97.24 86.81 95.58 86.67 93.16 85.82 91.72 85.64 91.01 85.73 90.47 88.56 89.93 90.35 89.84 91.74 89.26 95.33 89.26 98.11 88.94 99.06 89.66 99.59 91.1 100.22 90.51 101.48 90.38 102.46 89.57 102.46 88.85 102.91 87.87 102.91 87.15 102.29 86.34 102.64 84.86 103 82.12 103.57 80.19 104.31 79.31 104.29 78.55 103.91 77.51 104.33 76.39 105.39 76.37 106.25 77.42 107.08 79.15 106.97 80.59 107.15 80.62 107.73 79.74 108.61 80.33 110.45 80.42 111.39 80.96 112.2 81.18 113.5 82.35 115.38 82.57 116.42 83.92 117.4 84.41 119.96 83.65 120.63 83.24 121.75 84.3 122.97 83.74 123.26 83.56 123.98 82.39 124.79 82.44 126.42 81.27 127.09 78.49 126.37 75.84 123.32 74.72 123.59 72.12 122.56 68.31 122.34 66.42 123.01 63.24 122.16 60.28 122.87 58.75 123.1 57.32 122.65 56.2 123.64 55.03 124.13 51.62 123.68 49.11 123.01 47.81 122.25 45.83 122.29 45.16 122.61 43.68 122.52 42.52 122.29 41.8 122.7 41.93 124.04 42.29 125.43 42.34 127.09 40.4 127.4 36.54 127.49 31.96 127.04 30.88 126.41 28.81 126.14 27.65 127.4 28.09 128.12 26.73 129 26.53 129.56 26.14 129.51 27.17 129.65 27.26 130.95 25.29 134 24.35 135.57 25.51 136.29 28.3 137.09 29.42 138.17 30.54 138.57 31.61 137.41 31.79 135.66 32.6 135.84 35.65 138.21 35.97 139.47 34.22 141.44 32.06 141.31 29.01 141.8 28.52 140.91 27.17 139.52 25.2 141.53 23.94 141.44 22.29 142.66 20.71 143.24 20.62 144.72 22.55 145.66 22.51 146.92 20.4 147.81 17.71 148.44 18.25 148.94 18.65 149.92 16.23 150.78 16.05 152.21 14.93 152.53 12.15 152.12 10.89 153.11 10.94 155.04 12.55 157.37 13.63 156.79 15.38 156.74 15.69 158.13 15.11 159.39 15.78 161.14 17.04 161.68 17.22 163.38 16.63 164.1 15.33 167.15 14.88 171.07 15.69 172.13 16.63 172.53 18.7 172.08 20.04 171.32 20.71 170.33 21.43 170.2 22.15 169.53 22.78 169.97 23.45 170.87 25.6 171.05 25.56 170.06 24.98 169.48 25.07 168.63 26.41 168.27 26.91 167.6 27.53 167.6 27.71 168.27 29.06 168.13 29.91 166.79 29.6 165.08 30.13 164.23 30.9 163.56 31.12 161.77 31.75 160.64 33.23 160.64 34.31 161.41 35.43 161.99 35.43 162.98 35.16 164.41 35.52 165.58 36.55 165.53 37 166.7 36.91 168.27 37.09 169.53 37.18 171.95 38.12 173.2 38.12 174.06 39.24 174.5 40.81 174.5 41.89 173.7 42.11 173.07 44.26 172.08 45.27 171.18 45.54 170.03 46.37 169.3 49.2 167.51 50.99 167.1 51.31 168.4 53.64 168.13 54.45 167.15 57.09 167.15 57.38 168.19 55.5 169.81 56.49 170.08 56.43 170.06 57 169.71 57.86 169.48 59.02 170.51 59.65 170.06 60.68 170.15 61.4 169.66 61.98 169.03 62.75 169.08 63.69 169.97 64.36 171.95 67.19 175.98 68.85 177.11 68.89 178.77 69.97 179.53 70.6 180.38 73.11 180.7 75.57 180.65 76.74 180.96 77.01 182.4 79.43 183.21 81.45 184.28 82.53 187.33 84.14 189.22 86.25 190.25 87.15 191.82 87.01 194.78 88.22 197.56 89.84 197.96 90.56 200.7 90.96 202.94 90.15 204.25 89.93 203.39 88.9 203.03 87.1 204.92 87.51 205.72 87.6 206.76 89.26 207.61 88.99 210.03 89.66 211.2 89.26 211.96 89.93 212.41 90.69 213.49 90.69 214.43 91.27 214.61 91.68 215.95 93.07 216.62 93.79 215.46 95.18 215.5 95.76 216.18 97.2 216.4 98.41 217.7 99.35 218.02 100.07 219.5 101.14 219.68 101.59 220.71 101.69 220.58 101.95 220.21 103.79 221.16 104.24 221.83 105.49 221.78 106.17 222.1 106.93 220.98 108.45 220.84 110.74 221.69 111.37 222.32 112.85 222.41 113.79 223.08 115.63 225.01 117.07 225.06 118.41 225.73 118.91 226.54 120.03 227.84 120.57 229.18 121.19 228.92 121.33 227.08 122.05 226.4 122.49 226.94 123.8 226.94 125.1 227.75 125.28 229.45 126.8 230.8 128.78 230.26 130.34 230.49 129.99 233.04 130.7 234.48 131.74 234.25 133.48 235.11 134.25 234.43 135.59 234.03 136.71 232.77 139.05 233.04 140.57 233.8 140.93 235.29 142.77 236 144.03 237.71 145.1 237.98 146.67 237.31 147.3 237.57 149.01 237.03 150.15 237.11 150.31 237.12 151.43 236.14 152.86 235.96 153.58 237.26 153.67 238.83 154.88 239.73 154.96 239.69 156.18 239.1 157.57 236.36 160.62 234.57 162.6 234.3 163.23 235.33 166.23 235.64 167.4 236.18 169.01 235.55 170.58 235.6 171.61 236.95 171.89 236.92 172.74 236.86 175.02 236.32 176.03 236.23 176.66 234.72 177.58 234.02 178.55 234.34 178.57 233.53 179.88 233.17 180.3 231.89 181.34 230.6 182.69 230.4 184.98 229.86 186.37 228.11 186.28 226.76 187.18 226.58 188.57 225.6 189.69 227.21 191.3 226.76 193.68 227.53 194.36 226.9 194.18 225.78 196.87 224.21 197.85 224.52 198.53 225.42 199.38 225.19 199.65 225.78 198.75 227.48 199.24 228.47 200.01 228.24 200.81 228.02 201.08 228.96 201.98 230.17 201.98 231.02 200.99 232.1 201.31 233.13 202.65 233.36 203.42 233.04 204.58 233.54 205.84 234.84 205.55 234.54 206.6 234.03 208.04 234.66 208.98 234.12 210.41 234.16 211.22 235.82 212.43 236.72 212.79 238.65 213.87 238.61 214.99 239.86 214.99 241.75 216.02 243.85 216.16 245.74 215.8 248.38 215.8 249.64 215.53 250.4 214.36 250.94 214.23 252.11 213.64 252.29 213.33 253.14 213.87 254.35 213.38 255.07 212.57 254.75 211.71 255.65 211.22 256.73 211.76 257.53 211.18 258.47 211.18 259.5 212.24 259.95 212.69 260.76 213.55 261.57 213.38 263.05 213.96 264.49 215.44 263.41 218.26 262.83 218.53 263.81 218.13 264.58 218.89 265.21 220.51 264.8 220.82 265.88 220.42 266.95 221.14 267.94 222.75 268.3 222.44 268.88 222.93 269.69 223.15 269.2 224.9 268.97 226.16 269.78 226.16 270.72 225.62 271.8 225.67 272.7 224.23 274.72 223.06 275.88 223.29 276.73 224.23 276.28 226.2 276.51 226.52 276.87 227.46 276.02 228.31 277.14 227.95 278.8 228.36 279.96 229.79 280.68 230.65 279.87 232.04 279.87 234.86 278.66 236.07 279.07 235.94 280.23 235.41 280.69 236.21 281.26 236.75 282.3 238.36 281.8 239.44 282.07 239.08 280.5 238.99 279.02 238.54 277.72 238.45 275.61 239.3 275.03 239.3 274.13 241.63 274.04 241.68 274.14 242.12 273.77 242.63 273.69 242.95 273.06 243.63 272.47 244.94 271.94 245.75 272.04 245.67 273 246.24 273.44 247.09 273.43 247.3 272.23 248.24 271.55 249.5 272.78 250.15 271.91 250.87 271.95 251.16 272.85 252.55 272.18 252.78 271.25 254.3 270.8 255.52 271.5 257.6 270.81 257.51 268.88 258.86 268.12 260.38 268.12 261.24 267.27 262.58 268.35 262.58 269.15 263.97 269.42 264.51 270.23 267.34 270.18 267.83 270.81 269.49 270.14 270.57 270.99 270.34 272.2 269.45 272.34 268.82 274.62 269.54 274.9 269.89 276.2 272.41 277.09 272.77 277.99 273.98 278.53 275.23 279.15 276.51 278.77 277.05 279.2 277.81 278.97 278.85 279.53 279.24 279.62 279.71 279.37 280.46 279.69 281.47 279.27 281.42 278.61 281.7 277.39 282.31 278.52 283.46 279.69 284.07 279.48 285.6 280.75 286.26 280.54 287.1 280.61 287.74 279.53 288.63 280.35 289.52 280.07 290.18 280.35 290.25 280.77 289.33 280.89 289.12 281.97 288.25 283.07 288.23 283.8 289.73 285.87 290.63 286.41 290.58 287 290.77 288.33 291.02 288.08 291.52 287.23 292.88 287.49 292.9 287.84 293.61 287.84 294.69 286.48 294.38 285.92 293.89 285.82 293.89 285.47 293.23 284.23 292.5 284.23 292.03 283.07 292.31 282.58 293.18 281.88 293.39 281.06 293.21 280.4 293.51 280.35 293.93 279.91 294.05 280.23 294.33 280.7 294.66 280.7 294.45 280.89 294.52 281.17 295.09 281.27 294.83 281.6 295.16 281.64 295.81 280.96 297.01 280.77 297.48 279.86 298.49 280.23 299.62 279.83 300.96 279.11 300.49 278.29 301.54 278.31 302.74 277.96 303.96 278.38 304.69 278.17 306.05 277.49 307.25 276.31 308.05 275.23 308.16 274.74 308.49 275.05 309.01 275.47 309.6 275.02 310.16 274.08 311.14 273.57 310.93 272.06 310.65 270.96 310.74 270.07 310.46 269.39 311.07 269.93 312.62 270.7 312.81 271.5 314.08 272.74 314.9 272.53 314.29 273.43 313.48 273.8 313.63 274.32 315.84 273.24 315.98 272.01 317.11 271.64 317.68 271.12 318.66 271.68 319.65 271.45 319.75 270.6 320.74 270.37 321.02 269.75 321.49 270.51 322.43 271.54 323.04 271.03 323.23 269.94 323.89 269.94 323.98 270.32 325.02 270.32 325.16 269.71 326.57 269.52 327.33 268.76 327.89 268.25 328.03 268.95 328.46 268.39 329.12 268.58 330.15 268.11 329.68 267.31 330.2 266.55 330.62 265.23 330.06 263.96 330.67 264.15 331.1 263.49 332.65 263.26 332.79 263.82 333.97 263.82 334.25 262.36 334.86 262.36 335.05 261.37 335.61 261.33 335.71 261.84 336.09 261.61 336.84 260.48 337.55 261.33 337.73 260.05 338.44 259.96 338.91 258.97 337.83 258.74 336.93 259.06 335.38 257.89 337.45 257.79 338.39 256.48 338.86 256.95 339.52 256.33 341.22 257.37 341.69 256.05 340.65 255.72 340.23 255.11 340.42 254.31 341.69 255.2 342.4 254.36 342.25 254.03 341.41 254.03 341.22 252.9 340.56 252.38 341.45 252.14 341.92 252.76 342.54 252.76 342.96 253.37 343.01 252.33 341.92 251.53 342.02 250.54 342.68 250.54 343.1 249.79 344.04 250.64 344.04 251.48 344.7 251.48 345.36 252.52 345.46 251.01 344.98 250.12 344.37 250.12 344.14 249.41 344.98 249.18 345.14 248.35 344.11 248.02 345.54 246.83 344.84 246.12 343.87 246.19 343.4 246.66 343.61 245.7 344.9 244.81 346.96 243.9 346.3 243.2 345.55 243.9 344.04 242.59 345.36 242.59 344.51 241.45 343.53 241.36 344.18 240.8 343.67 240.14 344.47 240.32 344.7 239.29 345.08 239.38 345.74 239.29 345.64 240.51 346.44 240.51 348 238.87 348.09 238.11 349.51 238.21 348.66 237.17 347.72 237.08 348 235.99 348.85 236.89 349.88 236.37 349.84 235.29 350.26 234.82 349.74 234.11 349.84 233.26 350.54 232.79 350.07 232.04 350.07 231.38 348.87 230.7 350.59 231.24 351.29 230.67 352.23 228.47 353.24 228.32 353.45 229.33 353.78 229.78 354.01 228.54 354.88 227.97 354.2 226.82 353.03 226.73 352.49 226.21 353 225.79 353.85 225.95 354.55 225.3 353.99 224.69 353.22 224.29 354.06 223.51 354.48 223.61 354.65 223.09 353.97 222.46 351.92 222.55 352.04 221.99 353.36 220.86 354.55 221.16 354.93 220.88 355.09 220.25 355.85 220.65 355.92 221.09 356.69 220.48 356.32 219.71 356.14 217.86 355.49 217.44 354.73 218.19 354.97 218.52 354.97 219.09 353.65 218.81 352.05 220.17 351.2 220.03 351.2 218.9 352.9 218.57 355.67 215.98 355.49 215.6 354.26 215.6 353.74 214.95 353.41 215.51 351.39 212.92 349.93 212.68 348 214.33 347.01 214 345.74 212.17 344.47 212.45 343.2 213.49 342.82 214.57 342.96 213.11 344.37 211.93 345.17 211.98 346.02 211.37 347.53 212.12 348.61 211.6 348.7 210.52 349.32 209.95 350.07 210.05 351.53 208.35 353.23 208.16 353.27 207.27 351.77 204.82 348.56 202.84 346.49 201.67 344 199.22 342.77 199.17 340.75 200.58 339.76 200.35 338.16 198.89 338.11 198.23 337.45 197.95 336.04 198.51 334.44 198.32 333.07 198.79 331.33 200.91 332.79 198.09 333.92 197.52 334.67 197.76 335.47 197.76 335.8 197.38 336.75 197.76 338.39 197.1 339.15 198.98 339.95 199.64 341.17 199.64 341.97 198.56 343.95 198.84 345.32 199.78 346.26 199.83 347.48 201.1 349.27 200.07 351.81 201.01 352.52 200.58 351.62 198.79 350.82 198.46 349.36 196.68 349.36 196.2 348.7 195.69 347.43 195.78 346.21 195.26 344.56 192.91 344.51 191.07 342.21 189.38 342.07 187.54 340.84 187.12 341.45 185.66 341.03 185.56 339.15 181.65 335.71 179.91 334.81 180.43 334.81 179.54 331.61 178.03 331.14 178.08 331.1 174.97 331.61 172.85 331.1 171.44 331.42 169.65 331.85 169.93 332.74 169.65 333.87 167.81 334.48 168.19 335.61 166.87 334.44 166.16 333.87 165.41 334.86 164.33 336.75 164.42 336.79 163.1 338.35 162.82 338.2 161.83 336.79 160.94 338.2 160.75 339.24 161.55 339.52 160.8 340.65 160.84 341.78 159.9 342.58 159.9 343.9 158.16 344.37 158.91 344.94 158.21 345.08 158.86 346.59 159.9 348.14 158.58 348.14 158.02 347.15 157.83 347.01 156.51 347.81 156.09 348.47 156.09 347.43 154.63 347.53 153.92 348.89 153.5 348.09 153.12 346.63 153.4 344.89 153.45 344.98 152.93 343.62 152.98 343.1 153.54 339.15 153.69 338.35 152.98 337.59 152.65 336.89 151.57 336.18 151.28 335.8 150.77 332.98 152.08 331.47 152.13 331.99 152.56 331.99 153.69 331.14 154.39 329.45 155.05 329.73 155.24 330.29 155.99 329.63 157.17 329.07 157.69 327.85 157.22 326.67 157.92 325.02 157.88 323.33 154.58 323.33 152.88 323.04 151.71 321.39 151.76 320.74 152.13 320.64 151.52 319.94 151.52 319.42 152.27 318.99 151.61 318.95 152.18 318.01 150.58 317.77 149.82 315.7 148.41 314.38 147.66 314.24 146.29 313.58 144.83 314.14 144.32 314.1 143.7 314.29 143.04 314.43 141.77 315.18 141.21 315.32 140.5 317.68 141.35 319.7 141.3 321.3 141.25 321.91 139.94 321.54 139.32 322.43 139.32 322.19 137.82 321.82 137.49 322.29 136.78 322.95 133.63 325.16 132.4 326.48 132.35 327.47 130.66 328.13 130.52 328.27 128.07 329.54 126.66 329.78 125.25 330.29 124.96 331.1 123.6 332.51 123.55 333.07 123.93 334.16 123.93 334.58 122.7 336.51 125.01 339.29 126.66 339.43 127.69 338.68 128.12 338.39 128.97 337.07 130.66 336.93 132.21 335.76 132.26 335.9 132.73 335.61 134.33 336.98 135.7 336.89 136.55 336.37 136.78 336.37 137.53 336.93 138.19 338.3 137.72 339.76 136.59 339.19 137.72 338.02 138.52 338.16 139.14 338.86 139.28 338.72 139.98 338.21 140.35 336.81 140.16 336.17 141.03 335.15 141.09 334.64 142.03 335.62 142.69 335.78 143.69 336.55 143.56 337.3 142.59 338.04 142.62 339.03 141.1 340.8 140.34 340.98 139.84 340.47 138.62 342.02 137.44 344.75 135.37 345.55 135.46 345.79 134.19 347.2 134.19 348.85 133.01 349.51 133.58 350.21 133.34 351.58 133.25 353.37 131.18 353.82 132.34 353.97 132.32 357.02 130.91 375.17 118.15 376.78 108.62 382.17 104.35 382.43 103.7 382.43 102.99 381.96 102.69 381.75 101.61 381.81 101.14 382.53 100.71 384.02 100.87 384.44 100.75 384.47 99.67 384.29 99.04 384.33 98.21 384.64 97.63 384.6 96.5 384.51 95.4 383.79 94.86 383.79 92.72 383.66 91.68 383.52 90.18 383.57 89.05 382.76 87.99 382.35 87.23 382.06 86.3 380.6 84.03 380.15 82.99 380.42 82.43 381.18 81.94 381.9 81.87 382.5 81.08 382.76 80.24 383.9 78.47 384.39 78.35 385.39 78.61 386.16 78.91 390.13 79.63 390.74 79.82 391.43 79.82 391.93 79.21 391.77 78.29 391.39 77.59 391.3 76.94 391.52 76.47 391.3 75.82 391.14 75.12 391.68 73.88 392.08 73.43 391.88 72.46 391.52 71.83 391.7 71.47 392.56 71.04 392.24 70.46 392.24 69.76 391.84 69.11 392.08 68.27 392.69 67.83 392.69 67.33 392.35 66.68 391.88 65.39 391.79 63.93 392.2 63.77 392.47 63.5 392.42 63.03 392.15 62.6 392.22 61.9 391.66 61.52 391.27 60.96 391.63 60.06 391.72 59.02 391.43 58.71 390.89 57.94 390.89 57.38 391.75 56.35 392.69 56.17 392.94 55.68 392.98 54.6 393.25 53.3 392.49 52.85"/>
          <polygon points="350.27 201.31 348.77 201.07 348.63 201.56 349.38 202.33 350.7 202.35 352.03 202.93 351.87 201.61 350.84 201.67 350.27 201.31"/>
          <polygon points="360.87 251.77 360.46 251.77 359.79 250.38 358.4 249.88 357.59 250.33 357.73 251.18 356.61 251.59 355.26 253.11 354.01 255.27 354.32 255.85 354.1 256.7 353.56 257.19 352.21 259.57 351.54 262.04 351.09 262.4 351.49 262.98 351.54 265.4 351.72 267.91 352.35 268.32 352.52 269.04 352.26 269.13 352.21 269.89 352.88 270.92 353.56 271.1 353.74 271.91 355.49 272.49 356.38 273.84 356.29 275.27 356.38 276.3 357.28 275.99 358.18 276.3 357.91 275.05 358.22 273.57 357.59 271.73 358.63 270.34 360.2 267.96 360.24 266.44 360.69 265.99 360.11 265.76 360.46 263.38 360.6 261.72 360.33 259.93 361 258.63 361.32 255.4 361.72 253.74 362.17 253.65 361.94 252.57 360.87 251.77"/>
          <polygon points="332.63 265.24 332.81 265.82 333.92 265.87 334.34 265.51 333.58 264.76 332.63 265.24"/>
          <polygon points="357.98 214.1 356.79 213.38 356.07 213.47 355.56 213.27 355.85 214.12 357.08 214.5 357.96 215.11 357.98 214.1"/>
        </g>
      </g>
      <g id="Countries-2" data-name="Countries">
        <g id="C_H_I_N_A-2" data-name="C H I N A">
          <polygon class="cls-5" points="293.47 280.62 292.35 280.15 290.86 280.37 291.4 280.98 292.26 280.91 293.47 281.14 293.47 280.62"/>
          <path class="cls-5" d="M293.97,287.06l-1.35-.49-.9,.63s-.72-.49-.67-.53l-1.26,.27-.65-.18-.88,.58h-1.15l-1.23,.62-1.12,.18-.27,1.17-1.88,1.12-1.61,1.7,.58,.99,.04,2.33,.72,1.21-.09,.72,1.12,.99h1.3l.85,.67,.9-.04,1.12,.76,.76-.4,.31-1.12,.99-.18,1.03,.27,.76-.99,.09-.72,1.17-.22,.9-.94-.22-1.08,.63-1.93,.63-.49,.27-.9,.94-1.52-.54-1.62-1.3-.85Z"/>
          <polygon class="cls-5" points="243.37 277.98 243.59 278.18 243.59 278.18 243.37 277.98"/>
          <polygon class="cls-5" points="4.5 162.75 2.17 161.13 1.5 161.25 0 166.77 1.46 166.33 2.72 167.09 4.06 166.78 4.51 167.23 4.76 167.16 4.41 164.36 4.5 162.75"/>
          <polygon class="cls-5" points="276.1 276.81 276.07 276.8 276.07 276.8 276.11 276.83 276.1 276.81"/>
          <polygon class="cls-5" points="50.98 182.39 50.62 181.13 48.96 180.14 47.26 178.71 46 177.14 44.75 177.59 43.85 177.95 42.95 177.09 42.68 174.63 45.69 172.61 45.28 171.55 43.5 171.91 42.06 171.1 39.99 172.18 38.46 173.53 36.76 173.53 35.77 175.06 34.6 176.22 37.3 180.18 37.48 182.87 36.52 184.12 51 191.01 49.9 189.21 49.86 187.28 50.89 186.83 51.07 185.53 52.82 184.41 52.77 182.88 50.98 182.39"/>
          <polygon class="cls-5" points="343.17 246.36 343.43 247.75 344.06 247.53 344.11 246.63 343.66 246.14 343.17 246.36"/>
          <polygon class="cls-5" points="389.74 50.1 389.16 49.48 389.02 48.58 387.99 47.46 387.77 46.83 388.39 46.25 387.77 45.13 387.41 44.45 386.38 44.41 385.7 43.87 384.53 43.42 383.9 44.05 382.89 44.19 382.19 44.8 382.03 45.74 381.4 45.95 380.75 46.08 380.41 47.34 379.16 47.34 378.37 47.45 377.99 48.35 377.99 49.34 377.18 49.77 376.89 50.92 376.98 51.59 376.32 51.89 375.54 52.61 373.78 52.92 373.18 53.15 372.3 52.92 371.78 53.44 371.02 53.73 370.71 52.9 370.14 52.09 369.27 52.07 368.44 52.67 367.47 52.95 367.15 52.31 366.17 51.05 365.63 50.72 364.44 49.23 364.44 48.33 364.73 47.97 364.93 46.8 364.55 45.79 364.3 44.68 363.27 44.75 363.15 44.03 363.11 43.18 363.65 42.41 363.78 41.6 363.31 41.38 362.82 41.49 362.17 41.98 361.42 42.05 360.77 42.25 359.92 42.1 359.29 41.6 358.68 41.53 358.37 41.24 357.02 40.63 356.86 40.02 356.3 39.44 355.96 39.46 355.31 38.92 355.13 38.32 354.46 38.23 353.81 37.48 353.56 36.78 353.09 36.33 352.46 36.42 352.21 37.17 351.56 36.99 350.94 37.23 350.76 37.72 350 37.23 349.59 36.74 348.96 36.42 347.57 36.29 347.17 35.93 347.66 35.39 347.66 35.08 346.81 35.08 346.14 35.62 344.84 35.44 344.34 35.71 343.72 35.35 343.09 35.57 342.28 35.44 341.83 34.63 340.8 34.27 339.41 32.83 338.74 31.62 338.87 30.77 338.6 29.69 337.93 29.56 337.21 29.16 337.12 27.9 336.67 27.5 336.45 26.24 336.05 25.07 333.8 23.64 332.61 22.04 332.46 21.28 331.87 20.31 331.27 20.6 330.91 20.4 331.09 19.7 331.13 19.16 330.34 18.57 329.94 17.54 329.31 17.22 329.09 16.32 328.32 15.36 327.81 14.32 326.39 13.47 326.25 12.79 326.61 11.96 326.43 11.26 324.84 11.17 324.59 10.77 324.59 10.16 324.28 9.41 324.21 8.56 323.78 7.84 323.18 7.5 323.15 6.92 322.73 6.51 322.12 6.6 321.09 6.31 320.79 5.77 321.13 5.16 320.93 4.58 320.07 4.42 319.45 4.91 319.15 4.44 318.46 4.42 318.26 3.79 318.41 3.14 318.03 2.57 317.22 2.26 316.59 2.33 315.95 1.62 315.5 1.84 314.6 1.84 314.07 1.61 313.48 1.97 313.57 2.74 313.08 2.96 311.96 2.42 311.55 2.02 310.75 2.29 309.31 2.29 309.09 1.75 308.28 1.08 306.31 .9 305.45 .27 304.47 .18 303.75 0 303.44 .18 301.64 .4 301.28 1.35 300.79 1.35 300.25 1.84 298.95 1.79 298.19 1.93 296.84 1.7 296.12 2.51 295.05 2.51 294.55 3.45 293.61 3.86 292.71 3.77 292.49 3.99 291.68 4.04 290.92 4.31 289.31 4.49 288.63 5.07 288.63 5.83 287.74 6.91 287.38 8.07 286.88 8.7 286.88 9.33 286.48 9.87 286.48 11.39 286.88 11.89 287.51 11.98 288.9 11.12 289.75 10.77 290.52 10.94 291.41 12.42 291.91 13.59 292.8 14.26 292.8 15.21 293.07 15.97 292.98 17.45 292.22 18.03 291.41 19.24 291.14 20.68 290.38 21.31 289.66 22.56 289.57 23.59 290.2 24.63 289.98 25.3 290.16 26.66 290.9 27.42 290.77 28.59 290.03 29 289.8 29.72 290.25 30.82 290.28 32.62 289.94 33.14 290.05 34.87 290.68 34.98 291.13 35.34 291.62 34.98 292.1 35.28 292.34 36.56 291.98 37.75 291.02 38.7 288.79 39.08 287.38 40.07 284.41 42.88 283.71 43 282.82 42.23 281 41.98 279.87 42.19 279.67 41.76 278.79 41.62 278.1 41.85 278.18 41.94 276.82 51.61 277.09 53.68 276.55 55.47 276.73 56.73 275.92 59.43 276.91 61.4 279.88 62.84 281.85 61.31 284.37 61.31 287.06 61.76 288.32 63.02 289.85 60.68 289.67 59.34 289.76 58.17 291.47 57.63 292.1 57.09 294.88 57.81 296.5 59.79 298.74 61.85 300.54 64.1 302.85 65.76 302.9 66.84 303.35 67.69 303.3 68.77 302.85 69.48 302.81 70.33 302.31 71.1 301.37 70.87 300.79 70.29 299.49 70.47 298.77 70.96 297.02 70.2 295.94 70.42 294.82 72 293.12 73.34 292.13 73.97 291.01 73.16 290.52 73.3 290.47 74.46 290.02 75.13 289.17 75.27 288.5 75.13 288 75.9 286.93 77.56 286.66 79.44 286.75 80.74 286.08 81.55 284.77 81.86 281.99 83.75 280.51 83.75 278.99 83.43 278.27 83.97 277.1 86.44 275.94 87.29 274.55 88.32 273.69 89.22 273.34 90.21 272.71 90.34 271.41 89.71 269.88 89.4 268 88.73 266.47 87.65 264.95 87.6 262.53 88.1 261.09 89.18 260.19 90.48 260.1 93.21 260.24 94.56 260.15 95.41 262.93 97.25 265.49 98.82 265.49 99.58 264.86 100.75 264.05 101.96 261.32 105.01 259.7 107.66 258.8 109.72 257.77 109.72 255.8 110.35 254.32 110.44 252.66 111.56 250.95 112.81 249.2 112.9 246.65 113.17 244.9 113.76 242.88 114.34 238.44 115.91 234.94 117.08 233.19 119.05 230.5 121.2 229.38 122.14 227.9 122.19 226.06 121.65 226.06 120.98 225.83 120.04 223.19 120.8 221.03 121.11 218.79 119.95 217 119.77 213.05 118.29 209.15 116.49 207.08 114.47 205.42 114.43 200.94 113.94 197.17 114.03 196.21 113.81 195.51 114.23 195.15 114.93 193.08 115.7 190.14 115.99 184.97 115.55 181.2 115.78 178.33 115.59 175.86 115.87 174.61 116 173.53 115.64 172.14 112.95 171.6 111.6 170.3 109.67 169.22 108.37 168.51 106.58 168.41 105.79 167.51 104.83 166.57 104.49 165.96 104.4 165.69 103.7 165.53 102.6 165.1 102.42 164.54 102.57 162.79 102.55 161.31 101.7 159.01 100.05 158.23 99.87 157.67 99.9 156.57 99.69 156.05 98.97 154.12 97.74 149.89 96.77 149.46 96.88 148.93 97.33 147.24 97.51 144.54 97.56 138.43 96.25 137.08 95.46 135.69 93.35 135.46 92.36 135.46 91.43 135.87 90.78 136.74 90.08 137.13 88.96 136.43 88.13 136.12 86.66 136.41 85.87 136.32 84.48 135.8 83.71 135.04 82.43 134.12 81.98 133.13 81.17 132.72 80.09 132.07 79.17 131.71 78.04 131.55 77.07 130.86 76.06 129.87 75.27 128.95 74.98 128.47 74.24 127.44 73.83 126.5 73.92 125.89 74.51 125.22 74.8 124.56 74.55 123.58 73.45 123.26 72.89 122.09 72.91 120.86 73.5 120.38 74.03 120.16 74.75 119.58 74.78 118.34 73.99 118.03 73.07 118 72.64 117.13 71.56 115.89 70.77 114.95 69.71 114.23 69.42 113.58 68.81 113.28 68.03 113.22 67.21 112.89 66.56 112.68 66.66 112.61 67.02 112.2 67.13 111.73 66.32 111.37 65.96 111.42 64.56 111.3 63.99 110.77 63.97 109.51 63.52 108.74 63.51 108.89 63.7 107.77 64.91 106.78 65.45 105.12 67.19 105.08 68.18 105.44 68.85 104.67 70.2 102.84 70.87 101.71 71.68 101.49 73.12 101.58 75.76 102.79 78.23 103.96 79.8 103.78 80.65 102.21 82.4 100.86 82.89 99.79 84.15 98.89 84.46 98.31 84.24 97.99 83.52 96.91 83.52 94.49 84.06 92.83 83.93 90.41 83.07 88.97 82.89 88.26 82.98 87.72 85.81 87.18 87.6 87.09 89 86.51 92.58 86.51 95.37 86.19 96.31 86.91 96.85 88.35 97.47 87.76 98.73 87.63 99.72 86.82 99.72 86.1 100.16 85.12 100.16 84.4 99.54 83.59 99.9 82.11 100.25 79.37 100.82 77.44 101.56 76.56 101.54 75.8 101.16 74.77 101.59 73.64 102.64 73.62 103.5 74.68 104.33 76.41 104.22 77.84 104.4 77.87 104.98 76.99 105.86 77.58 107.7 77.67 108.64 78.21 109.45 78.43 110.75 79.6 112.64 79.82 113.67 81.17 114.65 81.66 117.21 80.9 117.88 80.5 119.01 81.55 120.22 80.99 120.51 80.81 121.23 79.64 122.05 79.69 123.67 78.52 124.34 75.74 123.63 73.09 120.57 71.97 120.84 69.37 119.81 65.56 119.59 63.68 120.26 60.49 119.41 57.53 120.13 56 120.35 54.57 119.9 53.45 120.89 52.28 121.38 48.87 120.93 46.36 120.26 45.06 119.5 43.09 119.54 42.41 119.86 40.93 119.77 39.77 119.54 39.05 119.95 39.18 121.29 39.54 122.68 39.59 124.34 37.66 124.65 33.79 124.74 29.21 124.29 28.13 123.66 26.06 123.4 24.9 124.65 25.35 125.37 23.98 126.25 23.79 126.82 23.39 126.77 24.43 126.9 24.52 128.2 22.54 131.25 21.6 132.82 22.77 133.54 25.55 134.35 26.67 135.42 27.79 135.83 28.87 134.66 29.05 132.91 29.85 133.09 32.9 135.47 33.22 136.72 31.47 138.7 29.31 138.56 26.26 139.06 25.77 138.16 24.43 136.77 22.45 138.79 21.2 138.7 19.54 139.91 17.97 140.49 17.88 141.97 19.81 142.91 19.76 144.17 17.65 145.07 14.96 145.69 15.5 146.19 15.9 147.18 13.48 148.03 13.3 149.46 12.18 149.78 9.4 149.37 8.14 150.36 8.19 152.29 9.8 154.62 10.88 154.04 12.63 153.99 12.94 155.38 12.36 156.64 13.03 158.39 14.29 158.93 14.47 160.63 13.88 161.35 12.58 164.4 12.13 168.32 12.94 169.38 13.88 169.78 15.95 169.33 17.29 168.57 17.97 167.58 18.68 167.45 19.4 166.78 20.03 167.23 20.7 168.12 22.86 168.3 22.81 167.32 22.23 166.73 22.32 165.88 23.66 165.52 24.16 164.85 24.78 164.85 24.96 165.52 26.31 165.39 27.16 164.04 26.85 162.34 27.39 161.48 28.15 160.81 28.37 159.02 29 157.9 30.48 157.9 31.56 158.66 32.68 159.24 32.68 160.23 32.41 161.66 32.77 162.83 33.8 162.78 34.25 163.95 34.16 165.52 34.34 166.78 34.43 169.2 35.37 170.46 35.37 171.31 36.49 171.76 38.06 171.76 39.14 170.95 39.36 170.32 41.52 169.33 42.52 168.43 42.79 167.29 43.63 166.55 46.45 164.76 48.24 164.36 48.56 165.66 50.89 165.39 51.7 164.4 54.35 164.4 54.64 165.44 52.75 167.06 53.74 167.33 53.68 167.32 54.26 166.96 55.11 166.73 56.27 167.76 56.9 167.32 57.93 167.41 58.65 166.91 59.23 166.28 60 166.33 60.94 167.23 61.61 169.2 64.44 173.24 66.1 174.36 66.14 176.02 67.22 176.78 67.85 177.63 70.36 177.95 72.83 177.9 73.99 178.22 74.26 179.65 76.68 180.46 78.7 181.54 79.78 184.59 81.39 186.47 83.5 187.5 84.4 189.07 84.27 192.03 85.48 194.81 87.09 195.22 87.81 197.95 88.21 200.2 87.4 201.5 87.18 200.64 86.15 200.29 84.35 202.17 84.76 202.98 84.85 204.01 86.51 204.86 86.24 207.28 86.91 208.45 86.51 209.21 87.18 209.66 87.94 210.74 87.94 211.68 88.53 211.86 88.93 213.2 90.32 213.88 91.04 212.71 92.43 212.76 93.01 213.43 94.45 213.65 95.66 214.95 96.6 215.27 97.32 216.75 98.4 216.93 98.84 217.96 98.94 217.83 99.2 217.47 101.04 218.41 101.49 219.08 102.75 219.04 103.42 219.35 104.18 218.23 105.71 218.09 107.99 218.95 108.62 219.57 110.1 219.66 111.04 220.34 112.88 222.27 114.32 222.31 115.66 222.98 116.16 223.79 117.28 225.09 117.82 226.44 118.45 226.17 118.58 224.33 119.3 223.66 119.75 224.19 121.05 224.19 122.35 225 122.53 226.71 124.05 228.05 126.03 227.51 127.6 227.74 127.24 230.29 127.96 231.73 128.99 231.51 130.74 232.36 131.5 231.69 132.85 231.28 133.97 230.03 136.3 230.29 137.82 231.06 138.18 232.54 140.02 233.25 141.28 234.96 142.36 235.23 143.92 234.56 144.55 234.83 146.26 234.29 147.4 234.37 147.56 234.38 148.68 233.39 150.11 233.21 150.83 234.51 150.92 236.08 152.13 236.98 152.21 236.94 153.43 236.35 154.82 233.61 157.87 231.82 159.85 231.55 160.48 232.58 163.48 232.9 164.65 233.43 166.26 232.81 167.83 232.85 168.87 234.2 169.14 234.18 169.99 234.11 172.27 233.57 173.29 233.48 173.91 231.97 174.84 231.28 175.8 231.59 175.82 230.78 177.13 230.42 177.56 229.14 178.59 227.85 179.94 227.65 182.23 227.11 183.62 225.36 183.53 224.01 184.43 223.83 185.82 222.85 186.94 224.46 188.56 224.01 190.93 224.78 191.61 224.15 191.43 223.03 194.12 221.46 195.11 221.77 195.78 222.67 196.63 222.44 196.9 223.03 196 224.73 196.5 225.72 197.26 225.49 198.07 225.27 198.34 226.21 199.23 227.42 199.23 228.28 198.25 229.35 198.56 230.38 199.91 230.61 200.67 230.29 201.83 230.79 203.09 232.09 202.8 231.79 203.85 231.28 205.29 231.91 206.23 231.37 207.67 231.42 208.47 233.08 209.68 233.97 210.04 235.9 211.12 235.86 212.24 237.11 212.24 239 213.27 241.11 213.41 242.99 213.05 245.64 213.05 246.89 212.78 247.65 211.61 248.19 211.48 249.36 210.9 249.54 210.58 250.39 211.12 251.6 210.63 252.32 209.82 252.01 208.97 252.9 208.47 253.98 209.01 254.79 208.43 255.72 208.43 256.75 209.49 257.21 209.94 258.02 210.81 258.82 210.63 260.3 211.21 261.74 212.69 260.66 215.52 260.08 215.78 261.07 215.38 261.83 216.14 262.46 217.76 262.05 218.07 263.13 217.67 264.21 218.39 265.19 220 265.55 219.69 266.14 220.18 266.94 220.41 266.45 222.15 266.23 223.41 267.03 223.41 267.97 222.87 269.05 222.92 269.95 221.48 271.97 220.32 273.13 220.54 273.98 221.48 273.54 223.46 273.76 223.77 274.12 224.71 273.27 225.56 274.39 225.21 276.05 225.61 277.21 227.04 277.93 227.9 277.13 229.29 277.13 232.11 275.91 233.32 276.32 233.19 277.48 232.67 277.94 233.46 278.52 234 279.55 235.61 279.05 236.69 279.32 236.33 277.75 236.24 276.27 235.79 274.97 235.7 272.86 236.55 272.28 236.55 271.38 238.89 271.29 238.94 271.39 239.37 271.03 239.88 270.94 240.2 270.31 240.88 269.72 242.19 269.19 243 269.29 242.93 270.25 243.49 270.69 244.34 270.68 244.55 269.49 245.49 268.8 246.75 270.04 247.4 269.16 248.12 269.2 248.41 270.1 249.8 269.43 250.03 268.5 251.56 268.05 252.77 268.75 254.86 268.06 254.77 266.14 256.11 265.37 257.64 265.37 258.49 264.52 259.83 265.6 259.83 266.4 261.23 266.67 261.76 267.48 264.59 267.44 265.08 268.06 266.74 267.39 267.82 268.24 267.59 269.45 266.7 269.59 266.07 271.88 266.79 272.15 267.15 273.45 269.66 274.34 270.02 275.24 271.23 275.78 272.48 276.4 273.76 276.02 274.3 276.45 275.06 276.23 276.1 276.78 276.49 276.87 276.96 276.62 277.71 276.95 278.72 276.52 278.67 275.87 278.95 274.64 279.57 275.77 280.72 276.95 281.33 276.73 282.85 278 283.51 277.79 284.35 277.86 284.99 276.78 285.88 277.6 286.77 277.32 287.43 277.6 287.5 278.03 286.59 278.14 286.37 279.22 285.51 280.33 285.48 281.05 286.98 283.12 287.88 283.66 287.83 284.25 288.02 285.59 288.28 285.33 288.77 284.48 290.13 284.74 290.15 285.09 290.86 285.09 291.94 283.73 291.63 283.17 291.14 283.07 291.14 282.72 290.48 281.48 289.75 281.48 289.29 280.33 289.57 279.83 290.44 279.13 290.65 278.31 290.46 277.65 290.76 277.6 291.19 277.16 291.3 277.49 291.59 277.96 291.91 277.96 291.7 278.14 291.77 278.42 292.34 278.52 292.08 278.85 292.41 278.89 293.06 278.21 294.26 278.03 294.73 277.11 295.74 277.49 296.87 277.09 298.21 276.36 297.74 275.54 298.79 275.56 299.99 275.21 301.21 275.63 301.94 275.42 303.3 274.74 304.5 273.57 305.3 272.48 305.41 271.99 305.74 272.3 306.26 272.72 306.85 272.27 307.41 271.33 308.4 270.82 308.18 269.32 307.9 268.21 308 267.32 307.72 266.64 308.33 267.18 309.87 267.95 310.06 268.75 311.33 270 312.15 269.78 311.54 270.68 310.74 271.05 310.88 271.57 313.09 270.49 313.23 269.27 314.36 268.89 314.93 268.37 315.92 268.94 316.9 268.7 317 267.85 317.99 267.62 318.27 267.01 318.74 267.76 319.68 268.8 320.29 268.28 320.48 267.19 321.14 267.19 321.24 267.57 322.27 267.57 322.41 266.96 323.83 266.77 324.58 266.02 325.14 265.5 325.29 266.21 325.71 265.64 326.37 265.83 327.4 265.36 326.93 264.56 327.45 263.8 327.88 262.48 327.31 261.21 327.92 261.4 328.35 260.74 329.9 260.51 330.04 261.07 331.22 261.07 331.5 259.61 332.11 259.61 332.3 258.62 332.87 258.58 332.96 259.09 333.34 258.86 334.09 257.73 334.8 258.58 334.99 257.31 335.69 257.21 336.16 256.22 335.08 255.99 334.18 256.32 332.63 255.14 334.7 255.04 335.65 253.73 336.12 254.2 336.78 253.59 338.47 254.62 338.94 253.3 337.9 252.97 337.48 252.36 337.67 251.56 338.94 252.46 339.65 251.61 339.51 251.28 338.66 251.28 338.47 250.15 337.81 249.63 338.71 249.39 339.18 250.01 339.79 250.01 340.21 250.62 340.26 249.58 339.18 248.78 339.27 247.79 339.93 247.79 340.35 247.04 341.3 247.89 341.3 248.74 341.95 248.74 342.61 249.77 342.71 248.26 342.24 247.37 341.62 247.37 341.39 246.66 342.24 246.43 342.39 245.6 341.36 245.27 342.79 244.08 342.09 243.37 341.12 243.44 340.65 243.91 340.87 242.95 342.16 242.06 344.21 241.15 343.56 240.45 342.8 241.15 341.3 239.84 342.61 239.84 341.77 238.71 340.78 238.61 341.44 238.05 340.92 237.39 341.72 237.58 341.95 236.54 342.33 236.63 342.99 236.54 342.9 237.76 343.7 237.76 345.25 236.12 345.34 235.36 346.76 235.46 345.91 234.42 344.97 234.33 345.25 233.24 346.1 234.14 347.13 233.62 347.09 232.54 347.51 232.07 346.99 231.36 347.09 230.51 347.79 230.04 347.32 229.29 347.32 228.63 346.12 227.95 347.84 228.49 348.54 227.92 349.48 225.72 350.49 225.58 350.7 226.59 351.03 227.03 351.27 225.79 352.13 225.22 351.45 224.07 350.28 223.98 349.74 223.46 350.26 223.04 351.1 223.21 351.81 222.55 351.24 221.94 350.47 221.54 351.31 220.76 351.74 220.86 351.9 220.34 351.22 219.71 349.18 219.8 349.29 219.24 350.61 218.11 351.81 218.42 352.18 218.13 352.35 217.5 353.1 217.9 353.17 218.35 353.94 217.74 353.57 216.96 353.4 215.12 352.74 214.69 351.98 215.45 352.22 215.78 352.22 216.34 350.9 216.06 349.3 217.42 348.45 217.28 348.45 216.15 350.15 215.82 352.93 213.23 352.74 212.86 351.51 212.86 351 212.2 350.67 212.76 348.64 210.17 347.18 209.94 345.25 211.58 344.26 211.26 342.99 209.42 341.72 209.7 340.45 210.74 340.07 211.82 340.21 210.36 341.62 209.18 342.42 209.23 343.27 208.62 344.78 209.37 345.86 208.85 345.96 207.77 346.57 207.21 347.32 207.3 348.78 205.6 350.48 205.42 350.52 204.52 349.02 202.07 345.82 200.1 343.74 198.92 341.25 196.47 340.02 196.42 338 197.84 337.01 197.6 335.41 196.14 335.36 195.48 334.7 195.2 333.29 195.76 331.69 195.57 330.32 196.05 328.58 198.16 330.04 195.34 331.17 194.77 331.93 195.01 332.73 195.01 333.05 194.63 334 195.01 335.65 194.35 336.4 196.23 337.2 196.89 338.42 196.89 339.22 195.81 341.2 196.09 342.57 197.04 343.51 197.08 344.73 198.35 346.52 197.32 349.06 198.26 349.77 197.84 348.88 196.05 348.08 195.72 346.62 193.93 346.62 193.46 345.96 192.94 344.68 193.03 343.46 192.51 341.81 190.16 341.77 188.32 339.46 186.63 339.32 184.79 338.09 184.37 338.71 182.91 338.28 182.81 336.4 178.91 332.96 177.16 332.07 177.68 332.07 176.79 328.86 175.28 328.39 175.33 328.35 172.22 328.86 170.1 328.35 168.69 328.68 166.9 329.1 167.18 329.99 166.9 331.12 165.06 331.74 165.44 332.87 164.12 331.69 163.41 331.12 162.66 332.11 161.58 334 161.67 334.04 160.35 335.6 160.07 335.46 159.08 334.04 158.19 335.46 158 336.49 158.8 336.78 158.05 337.9 158.09 339.03 157.15 339.83 157.15 341.15 155.41 341.62 156.16 342.19 155.46 342.33 156.12 343.84 157.15 345.39 155.83 345.39 155.27 344.4 155.08 344.26 153.76 345.06 153.34 345.72 153.34 344.68 151.88 344.78 151.17 346.15 150.75 345.34 150.37 343.88 150.65 342.14 150.7 342.24 150.18 340.87 150.23 340.35 150.8 336.4 150.94 335.6 150.23 334.84 149.9 334.14 148.82 333.43 148.54 333.05 148.02 330.23 149.34 328.72 149.38 329.24 149.81 329.24 150.94 328.39 151.64 326.7 152.3 326.98 152.49 327.55 153.24 326.89 154.42 326.32 154.94 325.1 154.47 323.92 155.18 322.27 155.13 320.58 151.83 320.58 150.14 320.29 148.96 318.65 149.01 317.99 149.38 317.89 148.77 317.19 148.77 316.67 149.52 316.24 148.87 316.2 149.43 315.26 147.83 315.02 147.08 312.95 145.66 311.63 144.91 311.49 143.54 310.83 142.08 311.39 141.57 311.35 140.95 311.54 140.3 311.68 139.02 312.43 138.46 312.57 137.75 314.93 138.6 316.95 138.55 318.55 138.51 319.16 137.19 318.79 136.58 319.68 136.58 319.45 135.07 319.07 134.74 319.54 134.03 320.2 130.88 322.41 129.65 323.73 129.61 324.72 127.91 325.38 127.77 325.52 125.32 326.79 123.91 327.03 122.5 327.55 122.21 328.35 120.85 329.76 120.8 330.32 121.18 331.41 121.18 331.83 119.95 333.76 122.26 336.54 123.91 336.68 124.95 335.93 125.37 335.65 126.22 334.33 127.91 334.18 129.47 333.01 129.51 333.15 129.98 332.87 131.58 334.23 132.95 334.14 133.8 333.62 134.03 333.62 134.79 334.18 135.45 335.55 134.97 337.01 133.84 336.45 134.97 335.27 135.77 335.41 136.39 336.12 136.53 335.97 137.24 335.46 137.6 334.06 137.42 333.42 138.28 332.4 138.34 331.89 139.28 332.87 139.94 333.03 140.94 333.81 140.81 334.55 139.85 335.29 139.87 336.29 138.35 338.05 137.59 338.23 137.09 337.72 135.87 339.27 134.69 342 132.62 342.8 132.71 343.04 131.44 344.45 131.44 346.1 130.27 346.76 130.83 347.46 130.6 348.83 130.5 350.62 128.43 351.07 129.59 351.22 129.57 354.27 128.16 372.42 115.4 374.03 105.88 379.43 101.61 379.68 100.95 379.68 100.24 379.21 99.94 379 98.86 379.07 98.39 379.78 97.96 381.27 98.12 381.69 98.01 381.72 96.93 381.54 96.3 381.58 95.46 381.9 94.88 381.85 93.75 381.76 92.65 381.04 92.11 381.04 89.97 380.91 88.94 380.77 87.43 380.82 86.3 380.01 85.24 379.6 84.48 379.31 83.56 377.85 81.28 377.4 80.25 377.67 79.68 378.44 79.19 379.16 79.12 379.75 78.33 380.01 77.49 381.16 75.72 381.64 75.6 382.64 75.86 383.42 76.17 387.38 76.88 387.99 77.07 388.68 77.07 389.18 76.47 389.02 75.54 388.64 74.85 388.55 74.19 388.77 73.72 388.55 73.07 388.39 72.37 388.93 71.13 389.34 70.68 389.13 69.71 388.77 69.08 388.95 68.72 389.81 68.3 389.49 67.71 389.49 67.01 389.09 66.36 389.34 65.53 389.94 65.08 389.94 64.58 389.6 63.93 389.13 62.65 389.04 61.18 389.45 61.03 389.72 60.76 389.67 60.28 389.4 59.85 389.47 59.16 388.91 58.77 388.53 58.21 388.89 57.31 388.98 56.28 388.68 55.96 388.14 55.2 388.14 54.63 389 53.6 389.94 53.42 390.19 52.93 390.23 51.85 390.5 50.55 389.74 50.1"/>
          <polygon class="cls-5" points="347.53 198.57 346.02 198.32 345.89 198.81 346.63 199.58 347.95 199.6 349.28 200.19 349.12 198.86 348.09 198.93 347.53 198.57"/>
          <polygon class="cls-5" points="358.12 249.02 357.72 249.02 357.04 247.63 355.65 247.13 354.85 247.58 354.98 248.43 353.86 248.84 352.51 250.36 351.26 252.52 351.57 253.1 351.35 253.95 350.81 254.45 349.46 256.82 348.79 259.29 348.34 259.65 348.74 260.23 348.79 262.65 348.97 265.17 349.6 265.57 349.78 266.29 349.51 266.38 349.46 267.14 350.13 268.17 350.81 268.35 350.99 269.16 352.74 269.74 353.63 271.09 353.54 272.52 353.63 273.56 354.53 273.24 355.43 273.56 355.16 272.3 355.47 270.82 354.85 268.98 355.88 267.59 357.45 265.21 357.49 263.69 357.94 263.24 357.36 263.01 357.72 260.64 357.85 258.98 357.58 257.18 358.25 255.88 358.57 252.65 358.97 250.99 359.42 250.9 359.2 249.83 358.12 249.02"/>
          <polygon class="cls-5" points="329.89 262.49 330.06 263.07 331.17 263.12 331.59 262.76 330.83 262.02 329.89 262.49"/>
          <polygon class="cls-5" points="355.23 211.35 354.04 210.63 353.32 210.72 352.81 210.52 353.1 211.37 354.34 211.76 355.21 212.36 355.23 211.35"/>
        </g>
      </g>
      <g class="cls-7">
        <path d="M207.21,194.9c-16.18,0-31.68-6.48-42.53-17.78-11.6-12.09-16.25-29.33-13.82-51.26,2.32-20.95,12.29-39.29,23.18-57.78,2.41-4.09,4.93-8.25,7.37-12.28,9.42-15.54,19.12-31.55,25.71-48.87,5.38,7.24,10.05,15.14,14.59,22.82,2.35,3.97,4.78,8.08,7.28,12.06,8.4,13.37,17.16,27.72,23.73,43.23,15.26,35.97,15.13,65.15-.39,86.73-10.43,14.51-26.64,22.94-44.47,23.13h-.65Z"/>
        <path d="M214.23,22.51c3.43,5.54,9.71,14.17,13.13,19.92,2.07,3.45,4.21,7,6.38,10.48,4.59,7.35,9.25,15,13.39,22.97,2.52,4.85,4.86,9.82,6.92,14.91,10.23,25.04,11.63,46.97,5.06,65.89-1.98,5.69-2.67,4.84-4.32,7.61-9.18,15.43-23.07,26.45-41.21,28.45-.07,.02-.58,.05-.65,.07-16.89,1.73-33.35-4.75-41.94-19.06s-7.64-32.23-2.94-52.24c3.97-16.91,11.91-32.1,20.55-47.43,1.93-3.43,3.93-6.93,5.85-10.33,7.37-13.05,14.71-26.55,19.78-41.23Z"/>
        <path d="M221.34,38.08c1.48,3.85,9.37,13.21,11.68,17.01,1.79,2.94,3.63,5.93,5.48,8.91,3.94,6.35,7.86,12.92,11.24,19.69,2.09,4.2,3.99,8.48,5.65,12.83,7.73,20.11,9.03,38.91,4.04,56.46-2.11,7.42-1.32,1.97-2.16,3.8-7.68,16.69-19.5,29.96-37.95,33.76-.15,.04-.51,.09-.66,.13-17.6,3.46-35.1-2.93-41.36-20.33-6.26-17.41,.59-35.13,7.94-53.22,5.23-12.89,11.53-24.92,17.92-37.07,1.46-2.78,2.92-5.6,4.32-8.39,5.33-10.56,10.3-21.55,13.86-33.58Z"/>
        <path d="M259.73,149.29c-4.22,18.64-15.92,33.48-34.68,39.08-18.52,5.53-37.57-.67-41.44-21.42-3.73-20.02,8.19-38.37,18.82-54.2,12.91-19.23,21.09-36.51,26.02-59.1-.47,2.15,9.05,12.24,10.22,14.1,4.8,7.63,9.84,15.58,13.67,23.75,8.64,18.45,11.94,37.8,7.39,57.79-2.08,9.19,.19-.84,0,0Z"/>
      </g>
      <g>
        <path class="cls-12" d="M205.38,193.99c-16.18,0-31.68-6.48-42.53-17.78-11.6-12.09-16.25-29.33-13.82-51.26,2.32-20.95,12.29-39.29,23.18-57.78,2.41-4.09,4.93-8.25,7.37-12.28,9.42-15.54,19.12-31.55,25.71-48.87,5.38,7.24,10.05,15.14,14.59,22.82,2.35,3.97,4.78,8.08,7.28,12.06,8.4,13.37,17.16,27.72,23.73,43.23,15.26,35.97,15.13,65.15-.39,86.73-10.43,14.51-26.64,22.94-44.47,23.13h-.65Z"/>
        <path class="cls-4" d="M212.4,21.59c3.43,5.54,9.71,14.17,13.13,19.92,2.07,3.45,4.21,7,6.38,10.48,4.59,7.35,9.25,15,13.39,22.97,2.52,4.85,4.86,9.82,6.92,14.91,10.23,25.04,11.63,46.97,5.06,65.89-1.98,5.69-2.67,4.84-4.32,7.61-9.18,15.43-23.07,26.45-41.21,28.45-.07,.02-.58,.05-.65,.07-16.89,1.73-33.35-4.75-41.94-19.06-8.88-14.79-7.64-32.23-2.94-52.24,3.97-16.91,11.91-32.1,20.55-47.43,1.93-3.43,3.93-6.93,5.85-10.33,7.37-13.05,14.71-26.55,19.78-41.23Z"/>
        <path class="cls-11" d="M219.51,37.16c1.48,3.85,9.37,13.21,11.68,17.01,1.79,2.94,3.63,5.93,5.48,8.91,3.94,6.35,7.86,12.92,11.24,19.69,2.09,4.2,3.99,8.48,5.65,12.83,7.73,20.11,9.03,38.91,4.04,56.46-2.11,7.42-1.32,1.97-2.16,3.8-7.68,16.69-19.5,29.96-37.95,33.76-.15,.04-.51,.09-.66,.13-17.6,3.46-35.1-2.93-41.36-20.33-6.26-17.41,.59-35.13,7.94-53.22,5.23-12.89,11.53-24.92,17.92-37.07,1.46-2.78,2.92-5.6,4.32-8.39,5.33-10.56,10.3-21.55,13.86-33.58Z"/>
        <path class="cls-2" d="M257.89,148.37c-4.22,18.64-15.92,33.48-34.68,39.08-18.52,5.53-37.57-.67-41.44-21.42-3.73-20.02,8.19-38.37,18.82-54.2,12.91-19.23,21.09-36.51,26.02-59.1-.47,2.15,9.05,12.24,10.22,14.1,4.8,7.63,9.84,15.58,13.67,23.75,8.64,18.45,11.94,37.8,7.39,57.79-2.08,9.19,.19-.84,0,0Z"/>
      </g>
      <g class="cls-9">
        <g>
          <path class="cls-1" d="M205.38,193.99c-16.18,0-31.68-6.48-42.53-17.78-11.6-12.09-16.25-29.33-13.82-51.26,2.32-20.95,12.29-39.29,23.18-57.78,2.41-4.09,4.93-8.25,7.37-12.28,9.42-15.54,19.12-31.55,25.71-48.87,5.38,7.24,10.05,15.14,14.59,22.82,2.35,3.97,4.78,8.08,7.28,12.06,8.4,13.37,17.16,27.72,23.73,43.23,15.26,35.97,15.13,65.15-.39,86.73-10.43,14.51-26.64,22.94-44.47,23.13h-.65Z"/>
          <path class="cls-3" d="M212.4,21.59c3.43,5.54,9.71,14.17,13.13,19.92,2.07,3.45,4.21,7,6.38,10.48,4.59,7.35,9.25,15,13.39,22.97,2.52,4.85,4.86,9.82,6.92,14.91,10.23,25.04,11.63,46.97,5.06,65.89-1.98,5.69-2.67,4.84-4.32,7.61-9.18,15.43-23.07,26.45-41.21,28.45-.07,.02-.58,.05-.65,.07-16.89,1.73-33.35-4.75-41.94-19.06-8.88-14.79-7.64-32.23-2.94-52.24,3.97-16.91,11.91-32.1,20.55-47.43,1.93-3.43,3.93-6.93,5.85-10.33,7.37-13.05,14.71-26.55,19.78-41.23Z"/>
          <path class="cls-6" d="M219.51,37.16c1.48,3.85,9.37,13.21,11.68,17.01,1.79,2.94,3.63,5.93,5.48,8.91,3.94,6.35,7.86,12.92,11.24,19.69,2.09,4.2,3.99,8.48,5.65,12.83,7.73,20.11,9.03,38.91,4.04,56.46-2.11,7.42-1.32,1.97-2.16,3.8-7.68,16.69-19.5,29.96-37.95,33.76-.15,.04-.51,.09-.66,.13-17.6,3.46-35.1-2.93-41.36-20.33-6.26-17.41,.59-35.13,7.94-53.22,5.23-12.89,11.53-24.92,17.92-37.07,1.46-2.78,2.92-5.6,4.32-8.39,5.33-10.56,10.3-21.55,13.86-33.58Z"/>
          <path class="cls-8" d="M257.89,148.37c-4.22,18.64-15.92,33.48-34.68,39.08-18.52,5.53-37.57-.67-41.44-21.42-3.73-20.02,8.19-38.37,18.82-54.2,12.91-19.23,21.09-36.51,26.02-59.1-.47,2.15,9.05,12.24,10.22,14.1,4.8,7.63,9.84,15.58,13.67,23.75,8.64,18.45,11.94,37.8,7.39,57.79-2.08,9.19,.19-.84,0,0Z"/>
        </g>
      </g>
    </g>
  </g>
</svg>