<?xml version="1.0" encoding="UTF-8"?>
<svg xmlns="http://www.w3.org/2000/svg" xmlns:xlink="http://www.w3.org/1999/xlink" viewBox="0 0 333.07 128.26">
  <defs>
    <style>
      .cls-1 {
        fill: url(#linear-gradient-46);
      }

      .cls-1, .cls-2, .cls-3, .cls-4, .cls-5, .cls-6, .cls-7, .cls-8, .cls-9, .cls-10, .cls-11, .cls-12, .cls-13, .cls-14, .cls-15, .cls-16, .cls-17, .cls-18, .cls-19, .cls-20, .cls-21, .cls-22, .cls-23, .cls-24, .cls-25, .cls-26, .cls-27, .cls-28, .cls-29, .cls-30, .cls-31, .cls-32, .cls-33, .cls-34, .cls-35, .cls-36, .cls-37, .cls-38 {
        mix-blend-mode: screen;
      }

      .cls-1, .cls-39, .cls-40, .cls-10, .cls-12, .cls-13, .cls-15, .cls-41, .cls-22, .cls-42, .cls-26, .cls-28, .cls-43, .cls-31, .cls-44, .cls-32, .cls-37 {
        opacity: .5;
      }

      .cls-45 {
        fill: url(#linear-gradient-2);
      }

      .cls-46 {
        fill: url(#linear-gradient-51);
      }

      .cls-2 {
        fill: url(#linear-gradient-22);
      }

      .cls-2, .cls-4, .cls-9, .cls-19, .cls-21, .cls-23 {
        opacity: .2;
      }

      .cls-47 {
        fill: #254c03;
      }

      .cls-3 {
        fill: url(#radial-gradient-5);
      }

      .cls-3, .cls-14, .cls-18, .cls-20, .cls-24, .cls-25, .cls-27, .cls-35, .cls-36 {
        opacity: .35;
      }

      .cls-48 {
        fill: #f4f4f4;
      }

      .cls-4 {
        fill: url(#linear-gradient-40);
      }

      .cls-49 {
        fill: url(#linear-gradient-17);
      }

      .cls-5 {
        fill: url(#linear-gradient-42);
      }

      .cls-5, .cls-6, .cls-8, .cls-11, .cls-33, .cls-38 {
        opacity: .25;
      }

      .cls-6 {
        fill: url(#linear-gradient-23);
      }

      .cls-50 {
        fill: #2d6d13;
      }

      .cls-51 {
        fill: url(#linear-gradient-58);
      }

      .cls-7 {
        fill: url(#linear-gradient-68);
      }

      .cls-7, .cls-17, .cls-52, .cls-29, .cls-53 {
        opacity: .85;
      }

      .cls-54 {
        fill: url(#linear-gradient-18);
      }

      .cls-55 {
        fill: url(#linear-gradient-56);
      }

      .cls-8 {
        fill: url(#linear-gradient-33);
      }

      .cls-56 {
        fill: url(#linear-gradient-52);
      }

      .cls-57 {
        fill: url(#linear-gradient-36);
      }

      .cls-58 {
        fill: url(#linear-gradient-6);
      }

      .cls-40 {
        fill: url(#linear-gradient-69);
      }

      .cls-40, .cls-41, .cls-42, .cls-52, .cls-43, .cls-44, .cls-53 {
        mix-blend-mode: lighten;
      }

      .cls-59 {
        fill: url(#linear-gradient-53);
      }

      .cls-60 {
        fill: url(#radial-gradient-4);
      }

      .cls-61 {
        isolation: isolate;
      }

      .cls-62 {
        fill: url(#linear-gradient-60);
      }

      .cls-9 {
        fill: url(#linear-gradient-26);
      }

      .cls-10 {
        fill: url(#linear-gradient-65);
      }

      .cls-11 {
        fill: url(#linear-gradient-32);
      }

      .cls-12 {
        fill: url(#White_Black-4);
      }

      .cls-13 {
        fill: url(#White_Black-3);
      }

      .cls-63 {
        fill: url(#linear-gradient-63);
      }

      .cls-14 {
        fill: url(#radial-gradient-6);
      }

      .cls-15 {
        fill: url(#White_Black-2);
      }

      .cls-64 {
        fill: url(#linear-gradient-39);
      }

      .cls-16 {
        fill: url(#linear-gradient-43);
      }

      .cls-16, .cls-30, .cls-34 {
        opacity: .15;
      }

      .cls-17 {
        fill: url(#linear-gradient-49);
      }

      .cls-65 {
        fill: url(#linear-gradient-10);
      }

      .cls-66 {
        fill: url(#linear-gradient-59);
      }

      .cls-67 {
        fill: url(#linear-gradient-5);
      }

      .cls-67, .cls-68, .cls-69, .cls-70 {
        mix-blend-mode: multiply;
      }

      .cls-71 {
        fill: #fc3b00;
      }

      .cls-18 {
        fill: url(#linear-gradient-29);
      }

      .cls-72 {
        fill: url(#linear-gradient-16);
      }

      .cls-68 {
        fill: url(#linear-gradient-9);
      }

      .cls-19 {
        fill: url(#linear-gradient-31);
      }

      .cls-73 {
        fill: #8cba3c;
      }

      .cls-74 {
        fill: url(#linear-gradient-61);
      }

      .cls-75 {
        fill: url(#linear-gradient-62);
      }

      .cls-20 {
        fill: url(#linear-gradient-38);
      }

      .cls-41 {
        fill: url(#linear-gradient-15);
      }

      .cls-76 {
        fill: url(#linear-gradient-21);
      }

      .cls-77 {
        fill: #e3e4e6;
      }

      .cls-21 {
        fill: url(#linear-gradient-35);
      }

      .cls-22 {
        fill: url(#linear-gradient-28);
      }

      .cls-42 {
        fill: url(#linear-gradient-50);
      }

      .cls-78 {
        fill: url(#linear-gradient-64);
      }

      .cls-23 {
        fill: url(#linear-gradient-44);
      }

      .cls-79 {
        fill: url(#linear-gradient-54);
      }

      .cls-80 {
        fill: url(#linear-gradient-45);
      }

      .cls-24 {
        fill: url(#linear-gradient-13);
      }

      .cls-81 {
        fill: url(#linear-gradient-55);
      }

      .cls-52 {
        fill: url(#linear-gradient-12);
      }

      .cls-25 {
        fill: url(#linear-gradient-20);
      }

      .cls-82 {
        fill: url(#radial-gradient-2);
      }

      .cls-26 {
        fill: url(#linear-gradient-37);
      }

      .cls-83 {
        fill: url(#radial-gradient-3);
      }

      .cls-27 {
        fill: url(#linear-gradient-48);
      }

      .cls-28 {
        fill: url(#linear-gradient-11);
      }

      .cls-29 {
        fill: url(#linear-gradient-14);
      }

      .cls-43 {
        fill: url(#linear-gradient-66);
      }

      .cls-30 {
        fill: url(#linear-gradient-25);
      }

      .cls-84 {
        fill: #f9c126;
      }

      .cls-85 {
        fill: url(#linear-gradient-3);
      }

      .cls-86 {
        fill: #336809;
      }

      .cls-31 {
        fill: url(#White_Black);
      }

      .cls-69 {
        fill: url(#linear-gradient-7);
      }

      .cls-87 {
        fill: url(#linear-gradient);
      }

      .cls-88 {
        fill: #af0404;
      }

      .cls-89 {
        fill: url(#linear-gradient-27);
      }

      .cls-44 {
        fill: #fff;
      }

      .cls-32 {
        fill: url(#White_Black-6);
      }

      .cls-90 {
        fill: #30820b;
      }

      .cls-53 {
        fill: url(#linear-gradient-47);
      }

      .cls-33 {
        fill: url(#linear-gradient-24);
      }

      .cls-91 {
        fill: url(#linear-gradient-30);
      }

      .cls-34 {
        fill: url(#linear-gradient-34);
      }

      .cls-35 {
        fill: url(#linear-gradient-67);
      }

      .cls-92 {
        fill: url(#linear-gradient-19);
      }

      .cls-93 {
        fill: url(#linear-gradient-4);
      }

      .cls-36 {
        fill: url(#radial-gradient);
      }

      .cls-37 {
        fill: url(#White_Black-5);
      }

      .cls-94 {
        fill: url(#linear-gradient-8);
      }

      .cls-95 {
        fill: url(#linear-gradient-57);
      }

      .cls-38 {
        fill: url(#linear-gradient-41);
      }
    </style>
    <linearGradient id="linear-gradient" x1="166.54" y1="128.26" x2="166.54" y2="0" gradientUnits="userSpaceOnUse">
      <stop offset="0" stop-color="#e3e4e6"/>
      <stop offset="1" stop-color="#cacccb"/>
    </linearGradient>
    <linearGradient id="linear-gradient-2" x1="166.54" y1="127.15" x2="166.54" y2="1.11" gradientTransform="translate(102.41 230.67) rotate(-90)" gradientUnits="userSpaceOnUse">
      <stop offset="0" stop-color="#fff"/>
      <stop offset=".99" stop-color="#f4f4f4"/>
    </linearGradient>
    <linearGradient id="linear-gradient-3" x1="201.19" y1="124.16" x2="131.88" y2="4.1" gradientTransform="translate(102.41 230.67) rotate(-90)" gradientUnits="userSpaceOnUse">
      <stop offset="0" stop-color="#f4f4f4"/>
      <stop offset="1" stop-color="#cacccb"/>
    </linearGradient>
    <linearGradient id="linear-gradient-4" x1="166.54" y1="113.33" x2="166.54" y2="14.93" gradientTransform="translate(102.41 230.67) rotate(-90)" gradientUnits="userSpaceOnUse">
      <stop offset="0" stop-color="#f4f4f4"/>
      <stop offset=".99" stop-color="#e3e4e6"/>
    </linearGradient>
    <linearGradient id="linear-gradient-5" x1="168.32" y1="120.98" x2="168.32" y2="8.66" gradientTransform="matrix(1, 0, 0, 1, 0, 0)" xlink:href="#linear-gradient-3"/>
    <linearGradient id="linear-gradient-6" x1="57.41" y1="43.4" x2="82.4" y2="43.4" gradientTransform="translate(70.9 27.58) rotate(-2.22)" gradientUnits="userSpaceOnUse">
      <stop offset="0" stop-color="#fe9037"/>
      <stop offset=".28" stop-color="#fe7623"/>
      <stop offset=".72" stop-color="#ff4800"/>
      <stop offset="1" stop-color="#fe9037"/>
    </linearGradient>
    <linearGradient id="linear-gradient-7" x1="59.83" y1="43.38" x2="82.4" y2="43.38" gradientTransform="translate(70.9 27.58) rotate(-2.22)" gradientUnits="userSpaceOnUse">
      <stop offset="0" stop-color="#fff"/>
      <stop offset=".16" stop-color="#fef0e5"/>
      <stop offset=".49" stop-color="#fecca4"/>
      <stop offset=".97" stop-color="#fe933d"/>
      <stop offset="1" stop-color="#fe9037"/>
    </linearGradient>
    <linearGradient id="linear-gradient-8" x1="53.59" y1="31.33" x2="85.07" y2="31.33" gradientTransform="translate(95.37 36.25) rotate(-2.99)" xlink:href="#linear-gradient-6"/>
    <linearGradient id="linear-gradient-9" x1="56.64" y1="31.31" x2="85.07" y2="31.31" gradientTransform="translate(95.37 36.25) rotate(-2.99)" xlink:href="#linear-gradient-7"/>
    <linearGradient id="linear-gradient-10" x1="178.1" y1="72.04" x2="202.33" y2="72.04" gradientTransform="matrix(1, 0, 0, 1, 0, 0)" xlink:href="#linear-gradient-6"/>
    <radialGradient id="radial-gradient" cx="166.54" cy="64.13" fx="166.54" fy="64.13" r="55.78" gradientUnits="userSpaceOnUse">
      <stop offset="0" stop-color="#000"/>
      <stop offset=".17" stop-color="#030303"/>
      <stop offset=".3" stop-color="#0c0c0c"/>
      <stop offset=".42" stop-color="#1d1d1d"/>
      <stop offset=".53" stop-color="#343434"/>
      <stop offset=".64" stop-color="#515151"/>
      <stop offset=".74" stop-color="#767676"/>
      <stop offset=".84" stop-color="#a2a2a2"/>
      <stop offset=".93" stop-color="#d3d3d3"/>
      <stop offset="1" stop-color="#fff"/>
    </radialGradient>
    <linearGradient id="White_Black" data-name="White, Black" x1="139.37" y1="102.48" x2="163.69" y2="65.34" gradientUnits="userSpaceOnUse">
      <stop offset="0" stop-color="#fff"/>
      <stop offset="1" stop-color="#000"/>
    </linearGradient>
    <linearGradient id="White_Black-2" data-name="White, Black" x1="151.33" y1="110.5" x2="175.48" y2="73.62" xlink:href="#White_Black"/>
    <linearGradient id="linear-gradient-11" x1="141.53" y1="34.84" x2="152.2" y2="18.54" gradientUnits="userSpaceOnUse">
      <stop offset="0" stop-color="#000"/>
      <stop offset="1" stop-color="#fff"/>
    </linearGradient>
    <linearGradient id="linear-gradient-12" x1="170.41" y1="56.59" x2="187.87" y2="92.9" gradientUnits="userSpaceOnUse">
      <stop offset="0" stop-color="#000"/>
      <stop offset=".09" stop-color="#202020"/>
      <stop offset=".28" stop-color="#636363"/>
      <stop offset=".46" stop-color="#9a9a9a"/>
      <stop offset=".63" stop-color="#c6c6c6"/>
      <stop offset=".78" stop-color="#e5e5e5"/>
      <stop offset=".91" stop-color="#f8f8f8"/>
      <stop offset="1" stop-color="#fff"/>
    </linearGradient>
    <linearGradient id="linear-gradient-13" x1="120.59" y1="59.15" x2="158.4" y2="59.15" gradientUnits="userSpaceOnUse">
      <stop offset="0" stop-color="#fff"/>
      <stop offset=".19" stop-color="#fcfcfc"/>
      <stop offset=".33" stop-color="#f3f3f3"/>
      <stop offset=".44" stop-color="#e3e3e3"/>
      <stop offset=".55" stop-color="#cdcdcd"/>
      <stop offset=".65" stop-color="#b1b1b1"/>
      <stop offset=".74" stop-color="#8e8e8e"/>
      <stop offset=".83" stop-color="#656565"/>
      <stop offset=".92" stop-color="#363636"/>
      <stop offset="1" stop-color="#020202"/>
      <stop offset="1" stop-color="#000"/>
    </linearGradient>
    <linearGradient id="linear-gradient-14" x1="170.13" y1="33.04" x2="194.35" y2="-3.95" gradientUnits="userSpaceOnUse">
      <stop offset="0" stop-color="#000"/>
      <stop offset=".06" stop-color="#1f1f1f"/>
      <stop offset=".16" stop-color="#535353"/>
      <stop offset=".26" stop-color="#818181"/>
      <stop offset=".37" stop-color="#a8a8a8"/>
      <stop offset=".48" stop-color="#c7c7c7"/>
      <stop offset=".59" stop-color="#e0e0e0"/>
      <stop offset=".71" stop-color="#f1f1f1"/>
      <stop offset=".84" stop-color="#fbfbfb"/>
      <stop offset="1" stop-color="#fff"/>
    </linearGradient>
    <linearGradient id="linear-gradient-15" x1="182.6" y1="60.56" x2="202.48" y2="21.84" gradientUnits="userSpaceOnUse">
      <stop offset="0" stop-color="#000"/>
      <stop offset=".05" stop-color="#303030"/>
      <stop offset=".1" stop-color="#5b5b5b"/>
      <stop offset=".15" stop-color="#828282"/>
      <stop offset=".21" stop-color="#a4a4a4"/>
      <stop offset=".28" stop-color="silver"/>
      <stop offset=".35" stop-color="#d7d7d7"/>
      <stop offset=".44" stop-color="#e9e9e9"/>
      <stop offset=".54" stop-color="#f5f5f5"/>
      <stop offset=".67" stop-color="#fcfcfc"/>
      <stop offset="1" stop-color="#fff"/>
    </linearGradient>
    <linearGradient id="linear-gradient-16" x1="45.94" x2="45.94" xlink:href="#linear-gradient"/>
    <linearGradient id="linear-gradient-17" x1="45.94" x2="45.94" gradientTransform="translate(-18.19 110.07) rotate(-90)" xlink:href="#linear-gradient-2"/>
    <linearGradient id="linear-gradient-18" x1="80.6" y1="124.16" x2="11.28" y2="4.1" gradientTransform="translate(-18.19 110.07) rotate(-90)" xlink:href="#linear-gradient-3"/>
    <linearGradient id="linear-gradient-19" x1="45.94" x2="45.94" gradientTransform="translate(-18.19 110.07) rotate(-90)" xlink:href="#linear-gradient-4"/>
    <radialGradient id="radial-gradient-2" cx="34.63" cy="30.01" fx="34.63" fy="30.01" r="6.51" gradientUnits="userSpaceOnUse">
      <stop offset="0" stop-color="#c60905"/>
      <stop offset=".4" stop-color="#dc1e02"/>
      <stop offset=".99" stop-color="#fc3b00"/>
    </radialGradient>
    <linearGradient id="linear-gradient-20" x1="18.3" y1="23.18" x2="35.47" y2="13.16" gradientUnits="userSpaceOnUse">
      <stop offset="0" stop-color="#fc3b00"/>
      <stop offset=".07" stop-color="#fc6537"/>
      <stop offset=".13" stop-color="#fd8d6b"/>
      <stop offset=".2" stop-color="#fdb098"/>
      <stop offset=".26" stop-color="#feccbd"/>
      <stop offset=".33" stop-color="#fee2da"/>
      <stop offset=".39" stop-color="#fef2ee"/>
      <stop offset=".46" stop-color="#fefbfa"/>
      <stop offset=".52" stop-color="#fff"/>
      <stop offset=".56" stop-color="#fef9f7"/>
      <stop offset=".62" stop-color="#fee8e1"/>
      <stop offset=".7" stop-color="#fecdbe"/>
      <stop offset=".79" stop-color="#fda88e"/>
      <stop offset=".89" stop-color="#fc784f"/>
      <stop offset=".99" stop-color="#fc3f05"/>
      <stop offset="1" stop-color="#fc3b00"/>
    </linearGradient>
    <linearGradient id="linear-gradient-21" x1="15.49" y1="30.05" x2="51.1" y2="30.05" gradientUnits="userSpaceOnUse">
      <stop offset="0" stop-color="#254c03"/>
      <stop offset="0" stop-color="#264c03"/>
      <stop offset=".26" stop-color="#426818"/>
      <stop offset=".51" stop-color="#567b27"/>
      <stop offset=".75" stop-color="#628730"/>
      <stop offset=".99" stop-color="#678b33"/>
    </linearGradient>
    <linearGradient id="linear-gradient-22" x1="-143.23" y1="-55.15" x2="-137.21" y2="-55.15" gradientTransform="translate(166.14 77.32) rotate(-5.62)" gradientUnits="userSpaceOnUse">
      <stop offset="0" stop-color="#fc3b00"/>
      <stop offset="0" stop-color="#fc3f05"/>
      <stop offset=".11" stop-color="#fc784f"/>
      <stop offset=".21" stop-color="#fda88e"/>
      <stop offset=".3" stop-color="#fecdbe"/>
      <stop offset=".38" stop-color="#fee8e1"/>
      <stop offset=".44" stop-color="#fef9f7"/>
      <stop offset=".48" stop-color="#fff"/>
    </linearGradient>
    <linearGradient id="linear-gradient-23" x1="15.49" y1="29.89" x2="24.5" y2="29.89" gradientUnits="userSpaceOnUse">
      <stop offset="0" stop-color="#678b33"/>
      <stop offset=".01" stop-color="#6a8d37"/>
      <stop offset=".15" stop-color="#91ab6b"/>
      <stop offset=".3" stop-color="#b2c498"/>
      <stop offset=".44" stop-color="#ced9bd"/>
      <stop offset=".58" stop-color="#e3eada"/>
      <stop offset=".72" stop-color="#f2f5ee"/>
      <stop offset=".86" stop-color="#fbfcfa"/>
      <stop offset="1" stop-color="#fff"/>
    </linearGradient>
    <linearGradient id="linear-gradient-24" x1="29.41" y1="22.62" x2="29.41" y2="14.27" xlink:href="#linear-gradient-23"/>
    <linearGradient id="linear-gradient-25" x1="27.32" y1="42.48" x2="27.32" y2="36.08" xlink:href="#linear-gradient-23"/>
    <linearGradient id="linear-gradient-26" x1="33.25" y1="44.04" x2="33.78" y2="40.59" gradientTransform="matrix(1, 0, 0, 1, 0, 0)" xlink:href="#linear-gradient-22"/>
    <linearGradient id="linear-gradient-27" x1="-474.16" y1="30.43" x2="-470.24" y2="30.43" gradientTransform="translate(331.14) scale(.63 1)" gradientUnits="userSpaceOnUse">
      <stop offset="0" stop-color="#678b33"/>
      <stop offset=".28" stop-color="#62882f"/>
      <stop offset=".56" stop-color="#568025"/>
      <stop offset=".84" stop-color="#427215"/>
      <stop offset="1" stop-color="#336809"/>
    </linearGradient>
    <radialGradient id="radial-gradient-3" cx="128.26" cy="133.13" fx="128.26" fy="133.13" r="5.97" gradientTransform="translate(-89.9 -40.77) rotate(3.11)" xlink:href="#radial-gradient-2"/>
    <linearGradient id="linear-gradient-28" x1="65.74" y1="113.38" x2="68.1" y2="98.05" gradientTransform="translate(-22.45 -1.65) rotate(.76)" gradientUnits="userSpaceOnUse">
      <stop offset="0" stop-color="#fc3b00"/>
      <stop offset=".12" stop-color="#fc6537"/>
      <stop offset=".25" stop-color="#fd8d6b"/>
      <stop offset=".37" stop-color="#fdb098"/>
      <stop offset=".5" stop-color="#feccbd"/>
      <stop offset=".63" stop-color="#fee2da"/>
      <stop offset=".75" stop-color="#fef2ee"/>
      <stop offset=".88" stop-color="#fefbfa"/>
      <stop offset="1" stop-color="#fff"/>
    </linearGradient>
    <linearGradient id="linear-gradient-29" x1="113.29" y1="126.87" x2="129.02" y2="117.68" gradientTransform="translate(-89.9 -40.77) rotate(3.11)" xlink:href="#linear-gradient-20"/>
    <linearGradient id="linear-gradient-30" x1="110.71" y1="133.17" x2="143.35" y2="133.17" gradientTransform="translate(-89.9 -40.77) rotate(3.11)" xlink:href="#linear-gradient-21"/>
    <linearGradient id="linear-gradient-31" x1="-58.43" y1="56.38" x2="-52.91" y2="56.38" gradientTransform="translate(71.46 45.33) rotate(-2.51)" xlink:href="#linear-gradient-22"/>
    <linearGradient id="linear-gradient-32" x1="110.71" y1="133.02" x2="118.97" y2="133.02" gradientTransform="translate(-89.9 -40.77) rotate(3.11)" xlink:href="#linear-gradient-23"/>
    <linearGradient id="linear-gradient-33" x1="123.47" y1="126.36" x2="123.47" y2="118.7" gradientTransform="translate(-89.9 -40.77) rotate(3.11)" xlink:href="#linear-gradient-23"/>
    <linearGradient id="linear-gradient-34" x1="121.56" y1="144.56" x2="121.56" y2="138.69" gradientTransform="translate(-89.9 -40.77) rotate(3.11)" xlink:href="#linear-gradient-23"/>
    <linearGradient id="linear-gradient-35" x1="126.99" y1="145.99" x2="127.48" y2="142.83" gradientTransform="translate(-89.9 -40.77) rotate(3.11)" xlink:href="#linear-gradient-22"/>
    <linearGradient id="linear-gradient-36" x1="-325.48" y1="133.65" x2="-321.89" y2="133.65" gradientTransform="translate(241.13 -22.9) rotate(3.11) scale(.63 1)" xlink:href="#linear-gradient-27"/>
    <radialGradient id="radial-gradient-4" cx="-343.68" cy="-160.45" fx="-343.68" fy="-160.45" r="6.22" gradientTransform="translate(427.42 143.85) rotate(-13.24)" xlink:href="#radial-gradient-2"/>
    <linearGradient id="linear-gradient-37" x1="-391.84" y1="-199.58" x2="-389.38" y2="-215.57" gradientTransform="translate(502 163.62) rotate(-15.59)" xlink:href="#linear-gradient-28"/>
    <linearGradient id="linear-gradient-38" x1="-359.3" y1="-166.98" x2="-342.88" y2="-176.56" gradientTransform="translate(427.42 143.85) rotate(-13.24)" xlink:href="#linear-gradient-20"/>
    <linearGradient id="linear-gradient-39" x1="-361.99" y1="-160.4" x2="-327.93" y2="-160.4" gradientTransform="translate(427.42 143.85) rotate(-13.24)" xlink:href="#linear-gradient-21"/>
    <linearGradient id="linear-gradient-40" x1="-499.23" y1="-282.43" x2="-493.47" y2="-282.43" gradientTransform="translate(605.95 181.9) rotate(-18.86)" xlink:href="#linear-gradient-22"/>
    <linearGradient id="linear-gradient-41" x1="-361.99" y1="-160.56" x2="-353.37" y2="-160.56" gradientTransform="translate(427.42 143.85) rotate(-13.24)" xlink:href="#linear-gradient-23"/>
    <linearGradient id="linear-gradient-42" x1="-348.67" y1="-167.51" x2="-348.67" y2="-175.5" gradientTransform="translate(427.42 143.85) rotate(-13.24)" xlink:href="#linear-gradient-23"/>
    <linearGradient id="linear-gradient-43" x1="-350.67" y1="-148.52" x2="-350.67" y2="-154.64" gradientTransform="translate(427.42 143.85) rotate(-13.24)" xlink:href="#linear-gradient-23"/>
    <linearGradient id="linear-gradient-44" x1="-345" y1="-147.03" x2="-344.49" y2="-150.32" gradientTransform="translate(427.42 143.85) rotate(-13.24)" xlink:href="#linear-gradient-22"/>
    <linearGradient id="linear-gradient-45" x1="-1076.75" y1="-160.13" x2="-1073" y2="-160.13" gradientTransform="translate(749.87 68.06) rotate(-13.24) scale(.63 1)" xlink:href="#linear-gradient-27"/>
    <linearGradient id="White_Black-3" data-name="White, Black" x1="18.78" y1="102.48" x2="43.09" y2="65.34" xlink:href="#White_Black"/>
    <linearGradient id="White_Black-4" data-name="White, Black" x1="30.73" y1="110.5" x2="54.88" y2="73.62" xlink:href="#White_Black"/>
    <linearGradient id="linear-gradient-46" x1="20.94" y1="34.84" x2="31.61" y2="18.54" xlink:href="#linear-gradient-11"/>
    <radialGradient id="radial-gradient-5" cx="45.94" fx="45.94" xlink:href="#radial-gradient"/>
    <linearGradient id="linear-gradient-47" x1="49.81" y1="56.59" x2="67.27" y2="92.9" xlink:href="#linear-gradient-12"/>
    <linearGradient id="linear-gradient-48" x1="0" x2="37.81" xlink:href="#linear-gradient-13"/>
    <linearGradient id="linear-gradient-49" x1="49.53" x2="73.75" y2="-3.95" xlink:href="#linear-gradient-14"/>
    <linearGradient id="linear-gradient-50" x1="62.01" y1="60.56" x2="81.89" y2="21.84" xlink:href="#linear-gradient-15"/>
    <linearGradient id="linear-gradient-51" x1="287.13" x2="287.13" xlink:href="#linear-gradient"/>
    <linearGradient id="linear-gradient-52" x1="287.13" x2="287.13" gradientTransform="translate(223 351.26) rotate(-90)" xlink:href="#linear-gradient-2"/>
    <linearGradient id="linear-gradient-53" x1="321.79" y1="124.16" x2="252.47" y2="4.1" gradientTransform="translate(223 351.26) rotate(-90)" xlink:href="#linear-gradient-3"/>
    <linearGradient id="linear-gradient-54" x1="287.13" x2="287.13" gradientTransform="translate(223 351.26) rotate(-90)" xlink:href="#linear-gradient-4"/>
    <linearGradient id="linear-gradient-55" x1="283.41" y1="29.86" x2="295.06" y2="29.86" gradientUnits="userSpaceOnUse">
      <stop offset="0" stop-color="#678b33"/>
      <stop offset="1" stop-color="#254c03"/>
    </linearGradient>
    <linearGradient id="linear-gradient-56" x1="281.7" y1="72.95" x2="294.19" y2="72.95" gradientUnits="userSpaceOnUse">
      <stop offset="0" stop-color="#c80a06"/>
      <stop offset=".25" stop-color="#ea1818"/>
      <stop offset="1" stop-color="#c60905"/>
    </linearGradient>
    <linearGradient id="linear-gradient-57" x1="309.25" x2="320.9" xlink:href="#linear-gradient-55"/>
    <linearGradient id="linear-gradient-58" x1="307.54" x2="320.03" xlink:href="#linear-gradient-56"/>
    <linearGradient id="linear-gradient-59" x1="259.01" y1="29.28" x2="270.65" y2="29.28" xlink:href="#linear-gradient-55"/>
    <linearGradient id="linear-gradient-60" x1="257.29" y1="72.37" x2="269.78" y2="72.37" xlink:href="#linear-gradient-56"/>
    <linearGradient id="linear-gradient-61" x1="262.58" y1="-3713.24" x2="274.23" y2="-3713.24" gradientTransform="translate(8 -3614.82) scale(1 -1)" xlink:href="#linear-gradient-55"/>
    <linearGradient id="linear-gradient-62" x1="260.87" y1="-3670.15" x2="273.36" y2="-3670.15" gradientTransform="translate(8 -3614.82) scale(1 -1)" gradientUnits="userSpaceOnUse">
      <stop offset="0" stop-color="#4b5917"/>
      <stop offset=".25" stop-color="#62ad3a"/>
      <stop offset="1" stop-color="#426821"/>
    </linearGradient>
    <linearGradient id="linear-gradient-63" x1="288.14" y1="-3712.66" x2="299.79" y2="-3712.66" gradientTransform="translate(8 -3614.82) scale(1 -1)" xlink:href="#linear-gradient-55"/>
    <linearGradient id="linear-gradient-64" x1="286.43" y1="-3669.58" x2="298.91" y2="-3669.58" xlink:href="#linear-gradient-62"/>
    <radialGradient id="radial-gradient-6" cx="287.13" fx="287.13" xlink:href="#radial-gradient"/>
    <linearGradient id="White_Black-5" data-name="White, Black" x1="259.97" y1="102.48" x2="284.28" y2="65.34" xlink:href="#White_Black"/>
    <linearGradient id="White_Black-6" data-name="White, Black" x1="271.92" y1="110.5" x2="296.07" y2="73.62" xlink:href="#White_Black"/>
    <linearGradient id="linear-gradient-65" x1="262.13" x2="272.8" xlink:href="#linear-gradient-11"/>
    <linearGradient id="linear-gradient-66" x1="291" y1="56.59" x2="308.46" y2="92.9" xlink:href="#linear-gradient-12"/>
    <linearGradient id="linear-gradient-67" x1="241.19" x2="279" xlink:href="#linear-gradient-13"/>
    <linearGradient id="linear-gradient-68" x1="290.72" x2="314.94" y2="-3.95" xlink:href="#linear-gradient-14"/>
    <linearGradient id="linear-gradient-69" x1="303.2" y1="60.56" x2="323.08" y2="21.84" xlink:href="#linear-gradient-15"/>
  </defs>
  <g class="cls-61">
    <g id="Layer_2" data-name="Layer 2">
      <g id="Layer_1-2" data-name="Layer 1">
        <g>
          <g>
            <path class="cls-87" d="M212.48,17.47V110.79c0,9.65-7.82,17.47-17.47,17.47h-56.94c-9.65,0-17.47-7.82-17.47-17.47V17.47c0-9.65,7.82-17.47,17.47-17.47h56.94c2.64,0,5.13,.59,7.37,1.63,1.98,.92,3.74,2.19,5.23,3.74,3.02,3.15,4.87,7.4,4.87,12.09Z"/>
            <rect class="cls-45" x="103.52" y="19.34" width="126.04" height="89.59" rx="16.34" ry="16.34" transform="translate(230.67 -102.41) rotate(90)"/>
            <rect class="cls-85" x="105.17" y="21.06" width="122.72" height="86.14" rx="14.65" ry="14.65" transform="translate(230.67 -102.41) rotate(90)"/>
            <rect class="cls-48" x="116.23" y="32.55" width="100.61" height="63.17" rx="7.51" ry="7.51" transform="translate(230.67 -102.41) rotate(90)"/>
            <rect class="cls-93" x="117.34" y="33.69" width="98.4" height="60.87" rx="6.39" ry="6.39" transform="translate(230.67 -102.41) rotate(90)"/>
            <path class="cls-67" d="M206.06,44.14c0-.13,0-.25,0-.39,0-.14-.02-.3-.04-.45-.01-.13-.02-.25-.03-.38-.02-.17-.05-.34-.07-.52-.02-.13-.03-.26-.06-.4-.03-.18-.07-.37-.11-.55-.03-.14-.05-.28-.09-.42-.04-.19-.1-.38-.16-.58-.04-.15-.08-.29-.12-.44-.06-.2-.14-.39-.21-.59-.05-.15-.1-.3-.17-.45-.08-.19-.17-.39-.26-.58-.07-.15-.14-.31-.22-.46-.1-.19-.21-.38-.32-.56-.09-.15-.18-.3-.27-.45-.12-.18-.25-.36-.39-.53-.11-.15-.22-.3-.34-.44-.14-.17-.3-.33-.45-.49-.13-.14-.27-.28-.41-.42-.17-.15-.35-.3-.53-.44-.16-.13-.32-.26-.49-.38-.19-.14-.4-.26-.6-.39-.19-.11-.37-.23-.58-.33-.22-.11-.45-.22-.68-.32-.22-.1-.44-.19-.67-.28-.24-.09-.5-.17-.76-.24-.13-.04-.24-.08-.37-.12-.67-1.2-1.9-2.65-3.9-2.54-2.01,.12-3.24,1.4-3.91,2.41-.11,.03-.22,.06-.32,.08-.11,.03-.22,.05-.33,.08-.25,.07-.49,.15-.72,.24-.04,.02-.09,.03-.13,.04-.27,.11-.54,.22-.79,.35-.06,.03-.11,.06-.16,.09-.2,.1-.39,.21-.57,.32-.02,.01-.04,.02-.06,.03-.03,.02-.05,.04-.07,.05-.32,.2-.62,.42-.9,.66-.28,.24-.54,.49-.78,.75-.04,.05-.09,.09-.13,.14-.23,.26-.44,.52-.64,.8-.04,.05-.07,.11-.11,.16-.2,.29-.39,.59-.56,.91-.27,.49-.51,1.01-.72,1.54,.12-6.1,.19-10.37,.21-11.22,0-.23,0-.49-.01-.77-.01-.29-.04-.6-.07-.93-.04-.34-.08-.69-.14-1.06-.06-.39-.13-.77-.22-1.16-.09-.43-.2-.83-.31-1.23-.13-.45-.27-.86-.42-1.28,0-.02-.01-.04-.02-.06-.15-.41-.32-.83-.51-1.24-.01-.02-.02-.05-.03-.07-.19-.41-.4-.82-.64-1.23-.02-.03-.03-.05-.05-.08-.23-.4-.49-.8-.77-1.19-.02-.03-.04-.06-.06-.09-.28-.39-.58-.76-.91-1.13-.03-.03-.05-.06-.08-.09-.33-.36-.68-.71-1.06-1.04-.03-.03-.06-.05-.1-.08-.38-.33-.79-.64-1.23-.93-.04-.02-.07-.05-.11-.07-.44-.29-.91-.56-1.41-.8-.04-.02-.09-.04-.13-.06-.5-.24-1.03-.46-1.6-.65-.05-.02-.1-.03-.15-.05-.55-.18-1.12-.33-1.73-.46-.95-1.51-2.65-3.31-5.23-3.03-2.6,.28-4.1,2.03-4.9,3.39-.14,.04-.27,.09-.41,.13-.14,.04-.29,.09-.42,.13-.32,.11-.63,.23-.93,.36-.05,.02-.1,.04-.15,.06-.35,.16-.68,.32-1,.5-.07,.04-.13,.08-.2,.12-.25,.14-.49,.29-.72,.45-.02,.02-.05,.03-.08,.05-.03,.02-.06,.05-.09,.07-.4,.29-.78,.59-1.13,.91-.35,.33-.66,.67-.96,1.03-.05,.06-.11,.12-.16,.19-.28,.35-.53,.71-.77,1.08-.04,.07-.09,.14-.13,.21-.24,.39-.46,.8-.67,1.22-1.19,2.47-1.81,5.38-2.29,8.45-.08,.52-.13,1.15-.15,1.89-.04-.02-.08-.04-.11-.07-.2-.13-.42-.25-.63-.37-.2-.11-.4-.22-.61-.32-.23-.11-.47-.2-.72-.3-.23-.09-.46-.18-.7-.26-.26-.08-.53-.15-.8-.22-.13-.03-.25-.08-.38-.11-.74-1.21-2.06-2.66-4.12-2.46-2.07,.2-3.28,1.57-3.93,2.64-.11,.03-.22,.07-.33,.1-.11,.03-.23,.06-.34,.1-.25,.08-.5,.18-.74,.28-.04,.02-.09,.03-.13,.05-.28,.12-.55,.25-.8,.39-.06,.03-.11,.06-.16,.09-.2,.11-.39,.23-.57,.35-.02,.01-.04,.02-.06,.04-.03,.02-.05,.04-.07,.06-.32,.22-.63,.46-.9,.71-.28,.26-.53,.53-.77,.81-.04,.05-.09,.1-.13,.15-.22,.27-.43,.56-.62,.85-.04,.06-.07,.11-.11,.17-.19,.31-.38,.63-.54,.96-.97,1.95-1.49,4.25-1.91,6.69-1.16,6.83,3.87,39.34,5.58,47.89,.56,2.79,1.18,6.49,1.98,10.24-.09,.04-.16,.1-.18,.2-.03,.16,.08,.32,.24,.35,.02,0,.04,0,.06,0,1.45,6.59,3.52,13.22,6.93,15.38,.75,.48,1.57,.74,2.46,.73,.11,0,.21,0,.31-.02,.13,0,.26-.02,.39-.04,5.65-.88,5.76-11.53,5.67-14.55,0-.27,.54-16.98,1.05-32.64,1.42,8.79,2.85,16.59,3.69,20.47,.75,3.51,1.59,8.15,2.67,12.85-.11,.05-.2,.14-.22,.27-.04,.2,.1,.4,.31,.44,.02,0,.05,0,.07,0,1.94,8.27,4.66,16.6,8.99,19.26,.95,.59,1.99,.9,3.12,.88,.14,0,.27-.01,.39-.03,.17,0,.33-.03,.49-.06,7.1-1.21,7.05-14.62,6.9-18.42-.01-.31,.31-17.55,.65-35.45,.89,9.51,2.08,19.06,2.72,23.1,.43,2.73,.89,6.33,1.53,10-.09,.03-.16,.09-.19,.19-.04,.16,.06,.31,.22,.35,.02,0,.04,0,.06,0,1.15,6.43,2.9,12.94,6.12,15.15,.71,.49,1.49,.77,2.36,.79,.11,0,.21,0,.3,0,.13,0,.26-.01,.38-.02,5.5-.65,6.02-10.96,6.06-13.89,0-.49,3.96-54.71,4.15-57.61,.01-.18,.02-.38,.02-.6,0-.1,0-.23,0-.34Z"/>
            <g>
              <g>
                <path class="cls-50" d="M136.38,26.51s1.05-3.63,4.43-3.96c3.37-.33,4.73,4.01,4.73,4.01l-9.16-.04Z"/>
                <path class="cls-58" d="M153.73,37.61c-.08,3-1.89,59.04-1.87,59.55,.08,3.02-.03,13.67-5.52,14.55-.13,.02-.26,.03-.39,.04-.1,0-.2,.01-.3,.02-.87,0-1.67-.25-2.4-.73-5.31-3.45-7.27-18.35-8.79-26.18-1.67-8.55-6.56-41.06-5.43-47.89,.4-2.43,.91-4.74,1.86-6.69,.72-1.48,1.69-2.75,3.06-3.71,1.89-1.32,4.54-2.05,8.34-1.9,.26,0,.5,.03,.75,.05,9.49,.84,10.78,9.96,10.7,12.88Z"/>
                <g class="cls-39">
                  <path class="cls-84" d="M132.72,32.04c-.14,0-.27-.09-.3-.24-.03-.16,.07-.32,.23-.35,.04,0,4.53-.93,8.57-.63,.16,.01,.29,.16,.28,.32-.01,.17-.16,.29-.32,.28-3.95-.29-8.36,.61-8.4,.62-.02,0-.03,0-.05,0Z"/>
                  <path class="cls-84" d="M142.89,85.51c-1.73,.07-2.9-.02-2.92-.02-.16-.01-.29-.16-.27-.32,.01-.16,.15-.29,.32-.28,.04,0,3.9,.28,7.95-.61,.16-.04,.32,.07,.36,.23,.04,.16-.07,.32-.23,.36-1.9,.42-3.75,.58-5.21,.64Z"/>
                  <path class="cls-84" d="M139.36,95.87c-.98,.04-1.96-.03-2.91-.21-.16-.03-.27-.19-.24-.35,.03-.16,.19-.27,.35-.24,1.58,.3,3.24,.28,4.81-.04,.16-.04,.32,.07,.35,.23,.03,.16-.07,.32-.23,.35-.7,.15-1.41,.23-2.13,.26Z"/>
                  <path class="cls-84" d="M150.89,69.65l-3.43,.13c-.16,0-.3-.12-.31-.29,0-.17,.12-.3,.29-.31l3.43-.13c.16,0,.3,.12,.31,.29,0,.17-.12,.3-.29,.31Z"/>
                  <path class="cls-84" d="M136.11,57.3c-1.47,.06-2.95-.02-4.42-.22-.16-.02-.28-.17-.25-.34,.02-.16,.17-.28,.34-.26,2.6,.36,5.23,.31,7.81-.17,.16-.03,.32,.08,.35,.24,.03,.16-.08,.32-.24,.35-1.19,.22-2.38,.35-3.58,.4Z"/>
                  <path class="cls-84" d="M150.36,40.42s-5.53,.1-5.53,.1c-.16,0-.3-.13-.3-.29,0-.17,.13-.29,.29-.3l5.52-.1c.16,0,.3,.13,.3,.29,0,.16-.12,.3-.29,.3Z"/>
                  <path class="cls-84" d="M135.86,43.74l-1.94,.08c-.16,0-.3-.12-.31-.29,0-.17,.12-.3,.29-.31l1.94-.08c.16,0,.3,.12,.31,.29,0,.17-.12,.3-.29,.31Z"/>
                  <path class="cls-84" d="M144.95,105.1c-.16,0-.29-.11-.31-.27-.02-.16,.1-.31,.27-.33l4.46-.45c.17-.02,.31,.1,.33,.27,.02,.16-.1,.31-.27,.33l-4.46,.45s-.01,0-.02,0Z"/>
                  <path class="cls-84" d="M138.66,72.62c-.98,.04-1.96,0-2.93-.1-.16-.02-.28-.16-.27-.33,.02-.16,.16-.29,.33-.27,2.01,.21,4.04,.12,6.02-.29,.16-.03,.32,.07,.35,.23,.03,.16-.07,.32-.23,.35-1.08,.22-2.17,.35-3.27,.39Z"/>
                  <path class="cls-84" d="M147.43,53.47l-1.19,.05c-.16,0-.3-.12-.31-.29,0-.17,.12-.3,.29-.31l1.19-.05c.16,0,.3,.12,.31,.29,0,.17-.12,.3-.29,.31Z"/>
                  <path class="cls-84" d="M150.95,32.53l-3.58,.14c-.16,0-.3-.12-.31-.29,0-.17,.12-.3,.29-.31l3.58-.14c.16,0,.3,.12,.31,.29,0,.17-.12,.3-.29,.31Z"/>
                </g>
                <path class="cls-69" d="M153.73,37.61c-.08,3-1.89,59.04-1.87,59.55,.08,3.02-.03,13.67-5.52,14.55,6.35-9.46,1.89-66.85,.67-76.94-.97-8.07-11.01-6.06-16.12-4.49,1.72-3.52,4.86-5.86,11.41-5.6,10.17,.41,11.53,9.93,11.45,12.93Z"/>
              </g>
              <g>
                <path class="cls-50" d="M157.91,11.46s1.27-4.59,5.51-5.07,6.03,4.97,6.03,4.97l-11.54,.1Z"/>
                <path class="cls-94" d="M179.95,25.15c-.05,3.78-1.39,74.39-1.36,75.03,.15,3.8,.2,17.22-6.7,18.42-.16,.02-.32,.05-.49,.06-.12,.01-.25,.02-.38,.03-1.1,.03-2.11-.28-3.03-.88-6.75-4.25-9.46-22.99-11.51-32.83-2.24-10.73-8.95-51.6-7.65-60.22,.46-3.07,1.07-5.99,2.22-8.45,.88-1.87,2.08-3.49,3.8-4.72,2.36-1.7,5.69-2.66,10.47-2.53,.32,0,.63,.03,.94,.05,11.96,.89,13.75,12.37,13.69,16.04Z"/>
                <g class="cls-39">
                  <path class="cls-84" d="M153.39,18.49c-.18,0-.35-.11-.39-.3-.04-.2,.08-.4,.29-.45,.06-.01,5.69-1.24,10.78-.94,.21,.01,.37,.19,.35,.4-.01,.21-.19,.37-.4,.35-4.99-.29-10.52,.92-10.57,.93-.02,0-.04,0-.06,0Z"/>
                  <path class="cls-84" d="M167.1,85.66c-2.17,.11-3.65,.03-3.68,.02-.21-.01-.36-.19-.35-.4,.01-.21,.19-.36,.4-.35,.05,0,4.92,.29,10-.9,.2-.05,.4,.08,.45,.28,.05,.2-.08,.41-.28,.45-2.38,.56-4.71,.79-6.55,.89Z"/>
                  <path class="cls-84" d="M162.83,98.77c-1.23,.06-2.47,0-3.67-.22-.2-.04-.34-.23-.31-.44,.04-.21,.23-.34,.43-.31,1.99,.35,4.08,.3,6.06-.14,.2-.05,.4,.08,.45,.29,.04,.2-.08,.4-.29,.45-.88,.19-1.77,.32-2.68,.36Z"/>
                  <path class="cls-84" d="M176.91,65.56l-4.32,.23c-.21,.01-.38-.15-.39-.36s.15-.38,.36-.4l4.32-.23c.21-.01,.38,.15,.39,.36,.01,.21-.15,.39-.36,.4Z"/>
                  <path class="cls-84" d="M158.09,50.25c-1.86,.1-3.72,.03-5.57-.21-.21-.03-.35-.21-.33-.42,.03-.21,.21-.35,.42-.33,3.28,.41,6.59,.3,9.83-.35,.2-.04,.4,.09,.44,.3,.04,.2-.09,.4-.3,.44-1.49,.3-2.99,.48-4.5,.56Z"/>
                  <path class="cls-84" d="M175.75,28.75s-6.96,.22-6.96,.22c-.21,0-.38-.16-.39-.36,0-.21,.16-.37,.36-.39l6.95-.22c.21,0,.38,.16,.39,.36,0,.21-.15,.38-.36,.39Z"/>
                  <path class="cls-84" d="M157.54,33.18l-2.44,.13c-.21,.01-.38-.15-.39-.36-.01-.21,.15-.39,.36-.4l2.44-.13c.21-.01,.38,.15,.39,.36,.01,.21-.15,.39-.36,.4Z"/>
                  <path class="cls-84" d="M170.02,110.29c-.2,.01-.37-.13-.39-.33-.02-.21,.12-.39,.33-.42l5.61-.65c.21-.02,.39,.12,.42,.33,.02,.21-.12,.39-.33,.42l-5.61,.65s-.02,0-.02,0Z"/>
                  <path class="cls-84" d="M161.55,69.49c-1.23,.06-2.46,.04-3.7-.08-.21-.02-.36-.2-.34-.41,.02-.21,.2-.36,.41-.34,2.54,.24,5.09,.08,7.58-.46,.2-.04,.4,.09,.45,.29,.04,.2-.08,.4-.29,.45-1.36,.3-2.73,.48-4.11,.55Z"/>
                  <path class="cls-84" d="M172.28,45.23l-1.5,.08c-.21,.01-.38-.15-.39-.36-.01-.21,.15-.39,.36-.4l1.5-.08c.21-.01,.38,.15,.39,.36,.01,.21-.15,.38-.36,.4Z"/>
                  <path class="cls-84" d="M176.36,18.8l-4.5,.24c-.21,.01-.38-.15-.39-.36-.01-.21,.15-.38,.36-.4l4.5-.24c.21-.01,.38,.15,.39,.36s-.15,.39-.36,.4Z"/>
                </g>
                <path class="cls-68" d="M179.95,25.15c-.05,3.78-1.39,74.39-1.36,75.03,.15,3.8,.2,17.22-6.7,18.42,7.83-12.02,1.25-84.22-.46-96.9-1.36-10.15-13.96-7.45-20.38-5.39,2.1-4.46,6.02-7.47,14.27-7.25,12.81,.34,14.69,12.32,14.63,16.09Z"/>
              </g>
              <g>
                <path class="cls-50" d="M185.92,31.38s1.16-3.48,4.44-3.67c3.28-.19,4.44,4.06,4.44,4.06l-8.87-.39Z"/>
                <path class="cls-65" d="M202.31,42.79c-.19,2.9-4.04,57.13-4.04,57.61-.03,2.93-.54,13.24-5.89,13.89-.13,.01-.25,.02-.38,.02-.09,0-.19,0-.29,0-.84-.02-1.61-.3-2.3-.79-5.02-3.54-6.35-18.05-7.54-25.7-1.3-8.34-4.82-40.02-3.47-46.59,.48-2.34,1.06-4.56,2.05-6.41,.75-1.4,1.74-2.6,3.11-3.47,1.88-1.21,4.48-1.82,8.15-1.53,.25,.02,.49,.05,.72,.08,9.16,1.17,10.07,10.06,9.88,12.88Z"/>
                <g class="cls-39">
                  <path class="cls-84" d="M182.16,36.6c-.14,0-.26-.1-.29-.24-.03-.16,.08-.31,.24-.33,.04,0,4.42-.73,8.32-.29,.16,.02,.27,.16,.26,.32-.02,.16-.16,.27-.32,.26-3.82-.43-8.12,.28-8.16,.29-.02,0-.03,0-.05,0Z"/>
                  <path class="cls-84" d="M190.02,88.79c-1.68,0-2.81-.13-2.83-.13-.16-.02-.27-.16-.25-.32,.02-.16,.16-.27,.32-.25,.04,0,3.77,.42,7.73-.29,.16-.03,.31,.08,.34,.23,.03,.16-.08,.31-.23,.34-1.85,.33-3.65,.42-5.07,.42Z"/>
                  <path class="cls-84" d="M186.21,98.69c-.95,0-1.9-.11-2.81-.32-.16-.04-.25-.19-.22-.35,.04-.16,.19-.25,.35-.22,1.52,.35,3.13,.4,4.66,.14,.16-.03,.31,.08,.33,.24,.03,.16-.08,.31-.24,.33-.68,.11-1.38,.17-2.07,.17Z"/>
                  <path class="cls-84" d="M198.36,73.72h-3.33c-.16,0-.29-.13-.29-.29s.13-.29,.29-.29h3.33c.16,0,.29,.13,.29,.29s-.13,.29-.29,.29Z"/>
                  <path class="cls-84" d="M184.5,61.2c-1.43,0-2.86-.13-4.28-.38-.16-.03-.26-.18-.23-.34,.03-.16,.18-.26,.34-.23,2.51,.45,5.05,.49,7.57,.13,.16-.03,.31,.09,.33,.25,.02,.16-.09,.31-.24,.33-1.16,.17-2.32,.25-3.48,.25Z"/>
                  <path class="cls-84" d="M198.94,45.39s-5.36-.11-5.36-.11c-.16,0-.29-.14-.28-.3,0-.16,.14-.28,.3-.28l5.35,.11c.16,0,.29,.14,.28,.3,0,.16-.13,.28-.29,.28Z"/>
                  <path class="cls-84" d="M184.76,48.06h-1.88c-.16,0-.29-.13-.29-.29s.13-.29,.29-.29h1.88c.16,0,.29,.13,.29,.29s-.13,.29-.29,.29Z"/>
                  <path class="cls-84" d="M191.27,107.84c-.15,0-.28-.12-.29-.27,0-.16,.11-.3,.27-.31l4.34-.27c.16,0,.3,.11,.31,.27,0,.16-.11,.3-.27,.31l-4.34,.27s-.01,0-.02,0Z"/>
                  <path class="cls-84" d="M186.4,76.14c-.95,0-1.9-.07-2.84-.21-.16-.02-.27-.17-.24-.33,.02-.16,.17-.27,.33-.25,1.94,.28,3.91,.27,5.84-.05,.16-.02,.31,.08,.33,.24,.03,.16-.08,.31-.24,.33-1.05,.17-2.12,.26-3.18,.26Z"/>
                  <path class="cls-84" d="M195.61,57.92h-1.16c-.16,0-.29-.13-.29-.29s.13-.29,.29-.29h1.16c.16,0,.29,.13,.29,.29s-.13,.29-.29,.29Z"/>
                  <path class="cls-84" d="M199.8,37.76h-3.47c-.16,0-.29-.13-.29-.29s.13-.29,.29-.29h3.47c.16,0,.29,.13,.29,.29s-.13,.29-.29,.29Z"/>
                </g>
              </g>
            </g>
            <g>
              <path class="cls-36" d="M212.48,17.47V110.79c0,4.22-1.49,8.07-3.97,11.08-1.79,2.18-4.09,3.92-6.73,5.02-2.08,.88-4.36,1.37-6.76,1.37h-56.94c-9.65,0-17.47-7.82-17.47-17.47V17.47c0-9.65,7.82-17.47,17.47-17.47h56.94c2.64,0,5.13,.59,7.37,1.63,1.98,.92,3.74,2.19,5.23,3.74,3.02,3.15,4.87,7.4,4.87,12.09Z"/>
              <g>
                <polygon class="cls-31" points="126.91 122.8 148.54 70.45 171.9 70.83 126.91 122.8"/>
                <polygon class="cls-15" points="127.77 123.37 177.8 75.25 184.91 82.31 127.77 123.37"/>
                <polygon class="cls-28" points="126.62 4.5 155.91 56.76 167.97 47.57 128.49 3.07 126.62 4.5"/>
                <path class="cls-52" d="M208.5,121.87c-1.79,2.18-4.09,3.92-6.73,5.02-8.91-14.97-40.6-61.8-40.6-61.8l22.59-8.42,24.74,65.21Z"/>
                <polygon class="cls-24" points="156.96 51.11 158.4 67.19 120.59 65.73 120.59 59.71 156.96 51.11"/>
                <path class="cls-29" d="M207.61,5.38l-31.12,43.63-32.92-4.98L202.38,1.63c1.98,.92,3.74,2.19,5.23,3.74Z"/>
                <polygon class="cls-41" points="208.74 6.51 185.49 71.12 173.68 61.77 208.74 6.51"/>
              </g>
            </g>
          </g>
          <g>
            <g>
              <path class="cls-72" d="M91.88,17.47V110.79c0,9.65-7.82,17.47-17.47,17.47H17.47c-9.65,0-17.47-7.82-17.47-17.47V17.47C0,7.82,7.82,0,17.47,0h56.94c2.64,0,5.13,.59,7.37,1.63,1.98,.92,3.74,2.19,5.23,3.74,3.02,3.15,4.87,7.4,4.87,12.09Z"/>
              <rect class="cls-49" x="-17.08" y="19.34" width="126.04" height="89.59" rx="16.34" ry="16.34" transform="translate(110.07 18.19) rotate(90)"/>
              <rect class="cls-54" x="-15.42" y="21.06" width="122.72" height="86.14" rx="14.65" ry="14.65" transform="translate(110.07 18.19) rotate(90)"/>
              <rect class="cls-48" x="-4.36" y="32.55" width="100.61" height="63.17" rx="7.51" ry="7.51" transform="translate(110.07 18.19) rotate(90)"/>
              <rect class="cls-92" x="-3.26" y="33.69" width="98.4" height="60.87" rx="6.39" ry="6.39" transform="translate(110.07 18.19) rotate(90)"/>
            </g>
            <g class="cls-70">
              <g>
                <g class="cls-70">
                  <path class="cls-77" d="M16.65,28.86c0,12.75,11.31,20.66,24.06,20.66s21.88-8.64,21.88-21.39S53.71,7.72,40.96,7.72c-9.68,0-18.67,2.81-22.44,11.28-.03,.06-.05,.13-.08,.19-1.14,2.65-1.79,5.84-1.79,9.68Z"/>
                </g>
                <g class="cls-70">
                  <path class="cls-77" d="M82.63,59.52c-2.79-11.87-12.74-17.06-24.61-14.27-9.01,2.12-16.76,6.7-18.42,15.41-.01,.06-.02,.13-.03,.19-.48,2.72-.39,5.83,.45,9.4,1.02,4.32,3.3,7.71,6.35,10.15-2.42-1.04-5.17-1.67-8.2-1.83-7.6-.41-14.82,1.11-19.17,6.32-.16,.19-.33,.39-.48,.59-.16,.22-.32,.44-.47,.66-.21,.31-.41,.64-.6,.97-.11,.19-.22,.37-.32,.57-.27,.53-.53,1.08-.76,1.66-.08,.21-.15,.43-.22,.65-.13,.39-.27,.78-.38,1.19-.1,.37-.2,.75-.28,1.14-.05,.22-.09,.44-.13,.66-.23,1.17-.41,2.39-.48,3.73-.63,11.67,9.33,19.47,21,20.11s20.45-6.82,21.09-18.49c.36-6.62-1.98-11.87-6.19-15.31,4.77,2.09,10.51,2.52,16.18,1.19,11.87-2.79,18.47-12.83,15.68-24.7Z"/>
                </g>
              </g>
            </g>
            <g>
              <g>
                <path class="cls-71" d="M57.23,30.43c0,12.75-9.12,21.39-21.88,21.39s-24.06-7.91-24.06-20.66c0-16.29,11.55-21.15,24.31-21.15s21.63,7.66,21.63,20.42Z"/>
                <path class="cls-82" d="M41.43,29.86c0,3.78-2.7,6.34-6.48,6.34s-7.13-2.34-7.13-6.12c0-4.83,3.42-6.27,7.2-6.27s6.41,2.27,6.41,6.05Z"/>
                <path class="cls-25" d="M17.61,22.05c.76-2.14,2.2-4.63,3.95-6.02,1.96-1.56,4.37-2.66,6.81-3.22,2.99-.69,7.05-.82,9.83,.98,.62,.4,1.12,1.08,1.09,1.82-.05,1.54-1.78,1.38-2.85,1.34-5.59-.24-13.37,1.94-15.07,7.29-1.7,5.35-5.1,1.58-3.77-2.19Z"/>
                <path class="cls-76" d="M39.85,36.69c.59,1.88,3.27,8.68,3.45,9.15-.3-.55-5.18-9.49-8.01-10.91-1.39-.69-3.73,1.03-5.88,3.3-1.29,1.35-2.51,2.9-3.42,4.25-.77,1.14-1.32,2.13-1.5,2.75,.04-.2,.29-1.47,.74-3.09,.53-1.92,1.35-4.34,2.41-6.06,.58-.93,1.23-1.66,1.94-2,0,0,2.06-2.25-2.31-2.86-.84-.12-1.79-.23-2.78-.34-4.16-.45-9.01-.81-9.01-.81,0,0,4.3-.58,8.9-1.16,1.5-.19,3.04-.38,4.47-.54,0,0,2.37-.98,1.46-3.41-.19-.5-.46-1.34-.75-2.34-.77-2.63-1.71-6.42-1.8-8.36,0,0,1.79,4.32,3.3,7.47,.61,1.27,1.17,2.34,1.56,2.87,1.33,1.82,4.25,1.95,4.98-.36s6.44-8.15,7.66-8.63c0,0-4.98,7.17-5.35,9.48-.36,2.3-.73,3.1,0,4.07s11.18,2.98,11.18,2.98c0,0-9.48-.06-10.81,.67-1.34,.73-1.04,1.95-.43,3.89Z"/>
                <g>
                  <path class="cls-73" d="M32.14,24.72c.85,1.17,2.35,1.63,3.51,1.22-1.07,.16-2.29-.33-3.03-1.34-1.34-1.82-4.86-10.33-4.86-10.33,.02,.49,.1,1.1,.22,1.79,1.1,2.57,3.2,7.35,4.16,8.67Z"/>
                  <path class="cls-73" d="M45.26,15.6c-.17,.07-.43,.24-.74,.49-1.01,1.49-4.78,7.12-5.1,9.11-.36,2.31-.73,3.1,0,4.07,.62,.83,8.31,2.41,10.56,2.86,.68,0,1.11,0,1.11,0,0,0-10.45-2.01-11.18-2.98s-.36-1.76,0-4.07c.36-2.31,5.35-9.48,5.35-9.48Z"/>
                  <path class="cls-47" d="M28.37,28.49s.07-.03,.17-.09c-5.73,.67-13.06,1.67-13.06,1.67,0,0,.1,0,.27,.02,2.06-.28,7.94-1.06,12.62-1.6Z"/>
                  <path class="cls-73" d="M40.28,32.8c.06-.03,.13-.06,.22-.09-.31,.06-.56,.13-.71,.21-1.34,.73-1.03,1.94-.43,3.89,.35,1.1,1.42,3.92,2.28,6.14,1,1.66,1.67,2.92,1.67,2.92,0,0-2.86-7.23-3.46-9.18-.61-1.94-.91-3.16,.43-3.89Z"/>
                  <path class="cls-47" d="M24.84,43.64c-.24,.98-.36,1.62-.36,1.62,.62-2.18,5.92-9.2,9.28-10.33-2.69,.44-7.05,5.58-8.92,8.71Z"/>
                </g>
                <path class="cls-2" d="M23.71,39.12c.11-.62-.28-1.21-.6-1.76-.32-.55-.58-1.26-.22-1.79,.22-.32,.6-.48,.86-.77,1.76-2.03-5.72-4.89-5.75-.45-.01,1.99,5.03,8.55,5.72,4.76Z"/>
                <path class="cls-86" d="M32.25,29.1c.08-.4-.11-.8-.28-1.17-.17-.37-.32-.79-.19-1.18,.65-.07,1.15,.53,1.55,1.05,.4,.52,1.02,1.06,1.63,.83,.63-.24,.72-1.08,1.13-1.61,.33-.43,.95-.64,1.44-.43s.75,.9,.45,1.34c-.34,.51-1.24,.66-1.22,1.27,.01,.51,.65,.69,1.11,.9,.62,.28,1.13,.9,1.09,1.58s-.77,1.29-1.41,1.05c-.48-.18-.74-.71-1.21-.91-.57-.25-1.24,.09-1.67,.54-.43,.45-.75,1.01-1.24,1.39-.29,.22-.65,.38-1.01,.35-.36-.03-.72-.29-.79-.65-.08-.4,.19-.77,.4-1.13,.2-.35,.33-.85,.04-1.13-.32-.31-.9-.11-1.28-.35-1.34-.82,1.36-1.26,1.46-1.77Z"/>
                <path class="cls-6" d="M24.5,30.88c-4.16-.45-9.01-.81-9.01-.81,0,0,4.3-.58,8.9-1.16-.12,.58-.1,1.24,.11,1.97Z"/>
                <path class="cls-33" d="M31.07,21.73c-.6,.21-1.09,.53-1.5,.89-.77-2.63-1.71-6.42-1.8-8.36,0,0,1.79,4.32,3.3,7.47Z"/>
                <path class="cls-30" d="M29.41,38.23c-1.29,1.35-2.51,2.9-3.42,4.25-.26-.09-.51-.2-.76-.34,.53-1.92,1.35-4.34,2.41-6.06,.35,.75,.91,1.58,1.76,2.15Z"/>
                <path class="cls-9" d="M38.5,41.8c0,1.38-2.2,2.49-4.9,2.49s-4.9-1.12-4.9-2.49,2.19-2.49,4.9-2.49,4.9,1.12,4.9,2.49Z"/>
                <path class="cls-89" d="M35.87,30.43c0,.6-.55,1.09-1.23,1.09s-1.23-.49-1.23-1.09,.55-1.09,1.23-1.09,1.23,.49,1.23,1.09Z"/>
                <path class="cls-44" d="M45.83,20.45c.48,.59,.58,1.3,.23,1.58-.35,.28-1.02,.03-1.5-.56-.48-.59-.58-1.3-.23-1.58,.35-.28,1.02-.03,1.5,.56Z"/>
                <path class="cls-44" d="M45.77,24.26c.42-.13,.95,.35,1.17,1.07,.22,.72,.06,1.41-.37,1.54"/>
              </g>
              <g>
                <path class="cls-71" d="M51.61,100.64c-.63,11.67-9.41,19.13-21.09,18.49-11.67-.63-21.63-8.43-21-20.11,.81-14.91,11.63-18.78,23.3-18.15,11.67,.63,19.42,8.09,18.79,19.76Z"/>
                <path class="cls-83" d="M37.17,99.33c-.19,3.46-2.79,5.67-6.25,5.48-3.46-.19-6.41-2.5-6.22-5.96,.24-4.42,3.45-5.57,6.9-5.38,3.46,.19,5.75,2.4,5.57,5.86Z"/>
                <path class="cls-22" d="M47.6,102.23c-.43,3.69-2.61,7.93-5.58,10.32-1.01,.82-2.59,1.46-3.58,.62-.66-.56-.7-1.56-.37-2.33s.95-1.4,1.51-2.04c3.47-3.99,4.88-9.54,3.7-14.61-.21-.9-.51-3.01,1.11-2.99,1.14,0,2.15,1.64,2.39,2.45,.89,2.93,1.17,5.56,.82,8.59Z"/>
                <path class="cls-18" d="M15.76,90.99c.8-1.92,2.24-4.13,3.91-5.31,1.88-1.33,4.13-2.22,6.39-2.61,2.77-.48,6.5-.4,8.95,1.38,.55,.4,.97,1.04,.91,1.72-.12,1.4-1.7,1.18-2.67,1.08-5.11-.5-12.33,1.11-14.16,5.93-1.82,4.81-4.75,1.19-3.34-2.19Z"/>
                <path class="cls-91" d="M35.38,105.5c.45,1.75,2.56,8.11,2.7,8.55-.25-.52-4.27-8.95-6.79-10.38-1.23-.7-3.46,.76-5.55,2.72-1.25,1.17-2.44,2.53-3.34,3.72-.76,1-1.31,1.88-1.51,2.44,.05-.18,.34-1.33,.83-2.79,.58-1.73,1.45-3.9,2.51-5.43,.57-.82,1.2-1.45,1.87-1.73,0,0,2-1.95-1.97-2.73-.76-.15-1.62-.3-2.53-.45-3.79-.62-8.2-1.19-8.2-1.19,0,0,3.97-.32,8.2-.62,1.38-.1,2.8-.2,4.12-.27,0,0,2.22-.78,1.5-3.04-.15-.47-.35-1.25-.57-2.18-.58-2.45-1.25-5.96-1.23-7.74,0,0,1.42,4.05,2.65,7,.5,1.19,.96,2.2,1.29,2.7,1.13,1.74,3.79,1.99,4.58-.09,.78-2.08,6.3-7.14,7.44-7.52,0,0-4.92,6.31-5.36,8.41-.45,2.09-.82,2.8-.2,3.72,.62,.92,10.08,3.28,10.08,3.28,0,0-8.67-.52-9.93,.08-1.26,.6-1.04,1.73-.59,3.54Z"/>
                <g>
                  <path class="cls-73" d="M28.92,94.16c.72,1.11,2.07,1.61,3.16,1.29-.99,.09-2.08-.42-2.7-1.37-1.13-1.74-3.94-9.7-3.94-9.7,0,.45,.04,1.02,.11,1.64,.88,2.41,2.56,6.89,3.38,8.14Z"/>
                  <path class="cls-73" d="M41.39,86.47c-.16,.05-.4,.2-.7,.41-1,1.31-4.73,6.28-5.12,8.09-.45,2.1-.82,2.8-.2,3.73,.53,.79,7.49,2.62,9.53,3.14,.62,.03,1.01,.06,1.01,.06,0,0-9.47-2.36-10.09-3.28-.62-.93-.25-1.63,.2-3.73s5.37-8.41,5.37-8.41Z"/>
                  <path class="cls-47" d="M25.28,97.42s.06-.02,.16-.07c-5.28,.33-12.03,.87-12.03,.87,0,0,.09,.01,.24,.03,1.9-.15,7.32-.57,11.63-.84Z"/>
                  <path class="cls-73" d="M35.97,101.96c.05-.03,.13-.05,.21-.07-.29,.04-.52,.09-.66,.16-1.26,.6-1.04,1.73-.58,3.54,.26,1.03,1.1,3.65,1.78,5.73,.83,1.57,1.39,2.75,1.39,2.75,0,0-2.25-6.76-2.71-8.57s-.68-2.94,.58-3.54Z"/>
                  <path class="cls-47" d="M21.3,111.12c-.26,.88-.41,1.46-.41,1.46,.68-1.96,5.88-8.13,9.01-8.99-2.49,.26-6.73,4.76-8.6,7.53Z"/>
                </g>
                <path class="cls-19" d="M20.48,106.92c.13-.57-.2-1.12-.46-1.64-.27-.52-.47-1.18-.11-1.65,.21-.28,.58-.4,.82-.66,1.71-1.77-4.99-4.76-5.24-.7-.11,1.82,4.18,8.07,5,4.65Z"/>
                <path class="cls-86" d="M28.8,98.17c.09-.36-.06-.74-.19-1.09-.13-.35-.26-.74-.11-1.09,.6-.03,1.03,.55,1.37,1.04,.34,.49,.88,1.02,1.45,.84,.58-.19,.71-.95,1.11-1.41,.32-.37,.9-.54,1.34-.32,.44,.22,.64,.86,.34,1.25-.34,.45-1.17,.54-1.18,1.1-.01,.46,.56,.67,.97,.88,.56,.29,.99,.88,.92,1.5-.07,.62-.77,1.14-1.34,.89-.43-.18-.64-.68-1.06-.89-.51-.25-1.14,.02-1.56,.41-.42,.39-.73,.89-1.2,1.22-.28,.19-.61,.32-.94,.27-.33-.05-.64-.3-.69-.63-.05-.37,.21-.7,.42-1.01s.35-.76,.1-1.03c-.28-.3-.82-.15-1.16-.38-1.19-.82,1.31-1.09,1.42-1.54Z"/>
                <path class="cls-11" d="M21.62,99.41c-3.79-.62-8.2-1.19-8.2-1.19,0,0,3.97-.32,8.2-.62-.14,.52-.16,1.13,0,1.81Z"/>
                <path class="cls-8" d="M28.08,91.37c-.56,.16-1.03,.43-1.42,.74-.58-2.45-1.25-5.96-1.23-7.74,0,0,1.42,4.05,2.65,7Z"/>
                <path class="cls-34" d="M25.75,106.39c-1.25,1.17-2.44,2.53-3.34,3.72-.23-.1-.46-.21-.68-.35,.58-1.73,1.45-3.9,2.51-5.43,.28,.7,.76,1.49,1.51,2.06Z"/>
                <path class="cls-21" d="M33.89,110.1c-.07,1.26-2.13,2.17-4.61,2.04-2.48-.13-4.43-1.26-4.36-2.52s2.13-2.17,4.61-2.04c2.48,.13,4.43,1.26,4.36,2.52Z"/>
                <path class="cls-57" d="M32.05,99.57c-.03,.55-.56,.97-1.18,.94-.62-.03-1.1-.51-1.07-1.06,.03-.55,.56-.97,1.18-.94,.62,.03,1.1,.51,1.07,1.06Z"/>
                <path class="cls-44" d="M41.66,90.93c.41,.57,.47,1.22,.13,1.46-.33,.24-.93-.02-1.34-.59-.41-.57-.47-1.22-.13-1.46,.33-.24,.93,.02,1.34,.59Z"/>
                <path class="cls-44" d="M42.44,95.46c.17,.67-.02,1.3-.41,1.4-.4,.1-.85-.37-1.02-1.04-.17-.67,.02-1.3,.41-1.4,.4-.1,.85,.37,1.02,1.04Z"/>
              </g>
              <g>
                <path class="cls-71" d="M77.27,61.82c2.79,11.87-3.81,21.91-15.68,24.7-11.87,2.79-24.13-2.09-26.93-13.96-3.57-15.16,6.13-22.22,18-25.01,11.87-2.79,21.82,2.4,24.61,14.27Z"/>
                <path class="cls-60" d="M62.44,64.75c.83,3.52-1.13,6.49-4.65,7.32-3.52,.83-7.15-.62-7.98-4.14-1.06-4.49,1.81-6.58,5.33-7.41,3.52-.83,6.46,.71,7.29,4.23Z"/>
                <path class="cls-26" d="M73.73,64.59c.66,3.82-.29,8.7-2.55,11.97-.77,1.12-2.16,2.22-3.4,1.67-.82-.37-1.16-1.35-1.06-2.23,.1-.87,.54-1.68,.91-2.49,2.31-5.01,2.08-10.99-.59-15.71-.48-.84-1.39-2.86,.23-3.32,1.14-.33,2.63,1.01,3.11,1.75,1.75,2.67,2.81,5.22,3.34,8.36Z"/>
                <path class="cls-20" d="M38.55,62.69c.24-2.16,1.03-4.79,2.36-6.47,1.49-1.88,3.49-3.43,5.63-4.49,2.63-1.3,6.39-2.31,9.37-1.24,.67,.24,1.28,.76,1.42,1.45,.29,1.44-1.35,1.68-2.36,1.87-5.26,1-12.02,4.74-12.43,10.09-.41,5.35-4.41,2.59-3.99-1.21Z"/>
                <path class="cls-64" d="M62.46,71.45c.96,1.62,4.94,7.36,5.21,7.76-.4-.45-6.9-7.7-9.84-8.4-1.44-.34-3.24,1.77-4.76,4.36-.91,1.54-1.7,3.25-2.25,4.71-.47,1.23-.76,2.27-.8,2.89,0-.2-.05-1.43,.02-3.04,.08-1.9,.31-4.33,.92-6.17,.33-.99,.78-1.81,1.37-2.28,0,0,1.43-2.54-2.78-2.15-.81,.08-1.71,.17-2.66,.29-3.98,.49-8.56,1.22-8.56,1.22,0,0,3.88-1.49,8.03-3.03,1.36-.51,2.75-1.02,4.04-1.48,0,0,1.99-1.43,.61-3.49-.29-.43-.72-1.15-1.21-2.01-1.3-2.28-3-5.6-3.51-7.39,0,0,2.61,3.63,4.71,6.23,.85,1.05,1.61,1.92,2.08,2.33,1.64,1.4,4.38,.88,4.56-1.43,.17-2.31,4.21-8.99,5.24-9.71,0,0-3.07,7.76-2.9,10,.17,2.22,0,3.04,.89,3.79,.89,.74,11.06,.32,11.06,.32,0,0-8.84,2.02-9.92,2.99-1.09,.97-.54,2.04,.45,3.71Z"/>
                <g>
                  <path class="cls-73" d="M52.66,61.99c1.05,.9,2.55,1,3.54,.36-.96,.38-2.2,.19-3.11-.58-1.64-1.4-6.79-8.55-6.79-8.55,.13,.45,.34,1.01,.59,1.61,1.59,2.15,4.59,6.15,5.77,7.16Z"/>
                  <path class="cls-73" d="M62.88,50.63c-.14,.1-.34,.32-.58,.62-.62,1.61-2.89,7.67-2.75,9.6,.17,2.23,0,3.04,.89,3.79,.76,.64,8.26,.42,10.46,.35,.63-.15,1.03-.24,1.03-.24,0,0-10.17,.42-11.06-.32-.89-.75-.73-1.56-.89-3.79-.17-2.23,2.9-10,2.9-10Z"/>
                  <path class="cls-47" d="M49.97,66.33s.06-.04,.14-.12c-5.19,1.88-11.79,4.41-11.79,4.41,0,0,.09-.01,.25-.04,1.85-.71,7.16-2.72,11.4-4.25Z"/>
                  <path class="cls-73" d="M62.01,67.73s.11-.09,.19-.13c-.28,.13-.49,.24-.61,.35-1.08,.97-.54,2.04,.46,3.71,.56,.95,2.18,3.34,3.46,5.22,1.29,1.33,2.2,2.35,2.2,2.35,0,0-4.24-6.11-5.23-7.78s-1.54-2.74-.46-3.71Z"/>
                  <path class="cls-47" d="M50.01,81.21c0,.96,.02,1.58,.02,1.58,.1-2.16,3.5-9.87,6.38-11.65-2.41,.99-5.34,6.74-6.4,10.06Z"/>
                </g>
                <path class="cls-4" d="M47.96,77.25c-.03-.61-.53-1.07-.95-1.51-.42-.44-.81-1.05-.6-1.62,.13-.34,.46-.57,.63-.9,1.19-2.28-6.39-3.3-5.45,.84,.42,1.86,6.55,6.85,6.36,3.18Z"/>
                <path class="cls-86" d="M53.72,66.04c-.02-.39-.28-.72-.51-1.03-.24-.31-.47-.67-.43-1.06,.59-.21,1.19,.25,1.68,.64s1.18,.76,1.7,.41c.53-.36,.43-1.16,.7-1.74,.21-.47,.74-.8,1.25-.71,.51,.09,.89,.67,.71,1.15-.21,.55-1.01,.88-.86,1.45,.12,.47,.75,.5,1.23,.6,.64,.12,1.25,.59,1.36,1.23s-.44,1.37-1.08,1.29c-.48-.06-.84-.5-1.32-.58-.59-.1-1.13,.36-1.44,.87-.3,.51-.47,1.11-.85,1.57-.22,.27-.52,.5-.87,.54-.35,.05-.73-.11-.88-.43-.16-.36,0-.76,.12-1.13,.11-.37,.13-.86-.21-1.06-.37-.22-.86,.09-1.27-.04-1.43-.47,.99-1.47,.97-1.96Z"/>
                <path class="cls-38" d="M46.89,69.4c-3.98,.49-8.56,1.22-8.56,1.22,0,0,3.88-1.49,8.03-3.03,.02,.56,.18,1.18,.53,1.81Z"/>
                <path class="cls-5" d="M51,59.45c-.51,.33-.9,.74-1.2,1.16-1.3-2.28-3-5.6-3.51-7.39,0,0,2.61,3.63,4.71,6.23Z"/>
                <path class="cls-16" d="M53.08,75.17c-.91,1.54-1.7,3.25-2.25,4.71-.26-.03-.52-.08-.78-.15,.08-1.9,.31-4.33,.92-6.17,.49,.62,1.19,1.27,2.11,1.62Z"/>
                <path class="cls-23" d="M62.32,76.5c.3,1.28-1.5,2.8-4.02,3.39-2.52,.59-4.81,.04-5.11-1.25-.3-1.28,1.5-2.8,4.02-3.39s4.81-.04,5.11,1.25Z"/>
                <path class="cls-80" d="M57.39,66.49c.13,.56-.27,1.14-.91,1.29-.63,.15-1.25-.19-1.39-.75-.13-.56,.27-1.14,.91-1.29,.63-.15,1.25,.19,1.39,.75Z"/>
                <path class="cls-44" d="M64.47,55.02c.57,.45,.83,1.08,.56,1.42-.26,.34-.94,.25-1.52-.2-.57-.45-.83-1.08-.56-1.42,.26-.34,.94-.25,1.52,.2Z"/>
                <path class="cls-44" d="M66.58,59.32c.36,.62,.36,1.3,0,1.52-.37,.21-.96-.12-1.33-.74-.36-.62-.36-1.3,0-1.52s.96,.12,1.33,.74Z"/>
              </g>
            </g>
            <g>
              <polygon class="cls-13" points="6.32 122.8 27.95 70.45 51.3 70.83 6.32 122.8"/>
              <polygon class="cls-12" points="7.18 123.37 57.21 75.25 64.32 82.31 7.18 123.37"/>
              <polygon class="cls-1" points="6.03 4.5 35.32 56.76 47.38 47.57 7.9 3.07 6.03 4.5"/>
              <path class="cls-3" d="M91.88,17.47V110.79c0,4.22-1.49,8.07-3.97,11.08-1.79,2.18-4.09,3.92-6.73,5.02-2.08,.88-4.36,1.37-6.76,1.37H17.47c-9.65,0-17.47-7.82-17.47-17.47V17.47C0,7.82,7.82,0,17.47,0h56.94c2.64,0,5.13,.59,7.37,1.63,1.98,.92,3.74,2.19,5.23,3.74,3.02,3.15,4.87,7.4,4.87,12.09Z"/>
              <path class="cls-53" d="M87.91,121.87c-1.79,2.18-4.09,3.92-6.73,5.02-8.91-14.97-40.6-61.8-40.6-61.8l22.59-8.42,24.74,65.21Z"/>
              <polygon class="cls-27" points="36.37 51.11 37.81 67.19 0 65.73 0 59.71 36.37 51.11"/>
              <path class="cls-17" d="M87.01,5.38l-31.12,43.63-32.92-4.98L81.79,1.63c1.98,.92,3.74,2.19,5.23,3.74Z"/>
              <polygon class="cls-42" points="88.15 6.51 64.89 71.12 53.08 61.77 88.15 6.51"/>
            </g>
          </g>
          <g>
            <g>
              <g>
                <path class="cls-46" d="M333.07,17.47V110.79c0,9.65-7.82,17.47-17.47,17.47h-56.94c-9.65,0-17.47-7.82-17.47-17.47V17.47c0-9.65,7.82-17.47,17.47-17.47h56.94c2.64,0,5.13,.59,7.37,1.63,1.98,.92,3.74,2.19,5.23,3.74,3.02,3.15,4.87,7.4,4.87,12.09Z"/>
                <rect class="cls-56" x="224.11" y="19.34" width="126.04" height="89.59" rx="16.34" ry="16.34" transform="translate(351.26 -223) rotate(90)"/>
                <rect class="cls-59" x="225.77" y="21.06" width="122.72" height="86.14" rx="14.65" ry="14.65" transform="translate(351.26 -223) rotate(90)"/>
                <rect class="cls-48" x="236.82" y="32.55" width="100.61" height="63.17" rx="7.51" ry="7.51" transform="translate(351.26 -223) rotate(90)"/>
                <rect class="cls-79" x="237.93" y="33.69" width="98.4" height="60.87" rx="6.39" ry="6.39" transform="translate(351.26 -223) rotate(90)"/>
              </g>
              <g class="cls-70">
                <g>
                  <path class="cls-77" d="M295.9,40.89c0-.16,0-.33-.01-.48-.01-.13-.03-.26-.05-.38,0-.05-.01-.11-.02-.16,.34-2.76-1.44-3.85-2.18-4.74-.82-.99-.16-3.87,.33-7.34,.49-3.46,1.65-8.25,2.64-9.56,.72-.95-.73-.88-2.24-.44-.57,.16-1.16,.38-1.64,.6-.02,0-.05,.02-.07,.04-1.64,.94-1.21,6.07-1.25,9.77-.04,3.57,.72,6.16-1.89,7.17-2.35,.91-3.45,2.55-3.96,3.69-.41,.71-.73,1.57-.93,2.62-.99,5.28-3.79,21.11,5.28,60.19,0,0,.82,5.12,2.35,6.96,.16,.19,.33,.35,.5,.45,.08,.05,.17,.07,.26,.1,.06,.05,.12,.07,.19,.08,.27,.04,.47-.02,.63-.18,.36-.36,.44-1.21,.38-2.37-.07-1.35-.32-3.13-.57-5.06-.18-1.43-.36-2.95-.44-4.43-.25-4.45-.03-23.86,.3-35.84,.11-3.99,.23-7.16,.36-8.68,.03-.35,.07-.71,.12-1.07,.02-.15,.05-.3,.07-.45,.03-.22,.07-.44,.11-.66,.03-.18,.07-.36,.11-.55,.04-.2,.08-.4,.12-.6,.04-.2,.09-.4,.13-.61,.04-.19,.08-.38,.12-.57,.06-.26,.12-.52,.18-.77,.05-.24,.11-.47,.16-.71,.06-.25,.11-.5,.17-.74,.04-.19,.08-.37,.12-.56,.04-.2,.08-.39,.13-.59,.04-.19,.08-.38,.11-.57,.04-.18,.07-.37,.1-.55,.03-.19,.06-.37,.09-.55,.03-.17,.05-.34,.07-.51,.02-.18,.05-.36,.07-.53,.02-.16,.03-.32,.04-.47,.01-.17,.03-.35,.03-.51,0-.15,0-.29,0-.43Z"/>
                  <path class="cls-77" d="M322.43,18.22c.72-.95-.73-.88-2.24-.44-.57,.16-1.16,.38-1.64,.6-.02,0-.05,.02-.07,.04-1.64,.94-1.21,6.07-1.25,9.77-.04,3.57,.72,6.16-1.89,7.17-2.35,.91-3.45,2.55-3.96,3.69-.41,.71-.73,1.57-.93,2.62-.99,5.28-3.79,21.11,5.28,60.19,0,0,.82,5.12,2.35,6.96,.16,.19,.33,.35,.5,.45,.14,.09,.3,.15,.45,.18,2.14,.33,.33-6.1,0-12.04-.33-5.94,.16-38.46,.66-44.52,.34-4.24,2.51-9.74,1.96-13.03,.34-2.76-1.44-3.85-2.18-4.74-.82-.99-.16-3.87,.33-7.34,.49-3.46,1.65-8.25,2.64-9.56Z"/>
                  <path class="cls-77" d="M269.45,52.31c.34-4.24,2.51-9.74,1.96-13.03,.34-2.76-1.44-3.85-2.18-4.74-.82-.99-.16-3.87,.33-7.34,.49-3.46,1.65-8.25,2.64-9.56,.72-.95-.73-.88-2.24-.44-.57,.16-1.16,.38-1.64,.6-.02,0-.05,.02-.07,.04-1.64,.94-1.21,6.07-1.25,9.77-.04,3.57,.72,6.16-1.89,7.17-2.35,.91-3.45,2.55-3.96,3.69-.41,.71-.73,1.57-.93,2.62-.99,5.28-3.79,21.11,5.28,60.19,0,0,.82,5.12,2.35,6.96,.16,.19,.33,.35,.5,.45,.14,.09,.3,.15,.45,.18,2.14,.33,.33-6.1,0-12.04-.33-5.94,.16-38.46,.66-44.52Z"/>
                  <path class="cls-77" d="M281.13,100.59c-.49-3.46-1.15-6.35-.33-7.34,.74-.89,2.53-1.98,2.18-4.74,.55-3.29-1.61-8.8-1.96-13.03-.49-6.06-.99-38.59-.66-44.52,.33-5.94,2.14-12.37,0-12.04-.15,.02-.31,.08-.45,.18-.17,.1-.34,.26-.5,.45-1.53,1.83-2.35,6.96-2.35,6.96-9.07,39.08-6.27,54.91-5.28,60.19,.2,1.05,.51,1.91,.93,2.62,.51,1.14,1.61,2.78,3.96,3.69,2.61,1.01,1.86,3.6,1.89,7.17,.04,3.7-.4,8.83,1.25,9.77,.02,.01,.05,.03,.07,.04,.48,.23,1.06,.44,1.64,.6,1.51,.44,2.95,.51,2.24-.44-.99-1.32-2.14-6.1-2.64-9.56Z"/>
                  <path class="cls-77" d="M306.68,100.02c-.49-3.46-1.15-6.35-.33-7.34,.74-.89,2.53-1.98,2.18-4.74,.55-3.29-1.61-8.8-1.96-13.03-.49-6.06-.99-38.59-.66-44.52,.33-5.94,2.14-12.37,0-12.04-.15,.02-.31,.08-.45,.18-.17,.1-.34,.26-.5,.45-1.53,1.83-2.35,6.96-2.35,6.96-9.07,39.08-6.27,54.91-5.28,60.19,.2,1.05,.51,1.91,.93,2.62,.51,1.14,1.61,2.78,3.96,3.69,2.61,1.01,1.86,3.6,1.89,7.17,.04,3.7-.4,8.83,1.25,9.77,.02,.01,.05,.03,.07,.04,.48,.23,1.06,.44,1.64,.6,1.51,.44,2.95,.51,2.24-.44-.99-1.32-2.14-6.1-2.64-9.56Z"/>
                </g>
              </g>
              <g>
                <g>
                  <path class="cls-81" d="M292.23,27.74c-.49,3.46-1.15,6.35-.33,7.34,.83,.99,2.97,2.23,1.98,5.77-.99,3.55-10.47-.56-10.47-.56,0,0,.49-3.46,4.37-4.97,2.61-1.01,1.86-3.6,1.89-7.17,.04-3.7-.4-8.83,1.25-9.77,.02-.01,.05-.03,.07-.04,.48-.23,1.06-.44,1.64-.6,1.51-.44,2.95-.51,2.24,.44-.99,1.32-2.14,6.1-2.64,9.56Z"/>
                  <path class="cls-55" d="M291.47,97.36c.33,5.94,2.14,12.37,0,12.04-.15-.02-.31-.08-.45-.18-.17-.1-.34-.26-.5-.45-1.53-1.83-2.35-6.96-2.35-6.96-9.07-39.08-6.27-54.91-5.28-60.19,.53-2.85,1.96-4.38,3.83-4.92,.99-.28,2.1-.29,3.27-.07,.71,.13,1.44,.34,2.19,.63,4.29,1.65,.41,9.8-.06,15.58-.49,6.06-.99,38.59-.66,44.52Z"/>
                  <path class="cls-88" d="M292.13,52.84c.44-5.37,3.82-12.79,.85-15.14,.43,3.47-1.66,9.09-2,13.44-.49,6.35-.99,40.41-.66,46.63,.24,4.61,1.3,9.5,.96,11.58,.06,.02,.13,.04,.19,.05,2.14,.33,.33-6.1,0-12.04-.33-5.94,.16-38.46,.66-44.52Z"/>
                </g>
                <g>
                  <path class="cls-95" d="M318.07,27.74c-.49,3.46-1.15,6.35-.33,7.34,.83,.99,2.97,2.23,1.98,5.77-.99,3.55-10.47-.56-10.47-.56,0,0,.49-3.46,4.37-4.97,2.61-1.01,1.86-3.6,1.89-7.17,.04-3.7-.4-8.83,1.25-9.77,.02-.01,.05-.03,.07-.04,.48-.23,1.06-.44,1.64-.6,1.51-.44,2.95-.51,2.24,.44-.99,1.32-2.14,6.1-2.64,9.56Z"/>
                  <path class="cls-51" d="M317.31,97.36c.33,5.94,2.14,12.37,0,12.04-.15-.02-.31-.08-.45-.18-.17-.1-.34-.26-.5-.45-1.53-1.83-2.35-6.96-2.35-6.96-9.07-39.08-6.27-54.91-5.28-60.19,.53-2.85,1.96-4.38,3.83-4.92,.99-.28,2.1-.29,3.27-.07,.71,.13,1.44,.34,2.19,.63,4.29,1.65,.41,9.8-.06,15.58-.49,6.06-.99,38.59-.66,44.52Z"/>
                  <path class="cls-88" d="M317.97,52.84c.44-5.37,3.82-12.79,.85-15.14,.43,3.47-1.66,9.09-2,13.44-.49,6.35-.99,40.41-.66,46.63,.24,4.61,1.3,9.5,.96,11.58,.06,.02,.13,.04,.19,.05,2.14,.33,.33-6.1,0-12.04-.33-5.94,.16-38.46,.66-44.52Z"/>
                </g>
                <g>
                  <path class="cls-66" d="M267.83,27.16c-.49,3.46-1.15,6.35-.33,7.34,.83,.99,2.97,2.23,1.98,5.77-.99,3.55-10.47-.56-10.47-.56,0,0,.49-3.46,4.37-4.97,2.61-1.01,1.86-3.6,1.89-7.17,.04-3.7-.4-8.83,1.25-9.77,.02-.01,.05-.03,.07-.04,.48-.23,1.06-.44,1.64-.6,1.51-.44,2.95-.51,2.24,.44-.99,1.32-2.14,6.1-2.64,9.56Z"/>
                  <path class="cls-62" d="M267.06,96.79c.33,5.94,2.14,12.37,0,12.04-.15-.02-.31-.08-.45-.18-.17-.1-.34-.26-.5-.45-1.53-1.83-2.35-6.96-2.35-6.96-9.07-39.08-6.27-54.91-5.28-60.19,.53-2.85,1.96-4.38,3.83-4.92,.99-.28,2.1-.29,3.27-.07,.71,.13,1.44,.34,2.19,.63,4.29,1.65,.41,9.8-.06,15.58-.49,6.06-.99,38.59-.66,44.52Z"/>
                  <path class="cls-88" d="M267.72,52.27c.44-5.37,3.82-12.79,.85-15.14,.43,3.47-1.66,9.09-2,13.44-.49,6.35-.99,40.41-.66,46.63,.24,4.61,1.3,9.5,.96,11.58,.06,.02,.13,.04,.19,.05,2.14,.33,.33-6.1,0-12.04-.33-5.94,.16-38.46,.66-44.52Z"/>
                </g>
                <g>
                  <path class="cls-74" d="M279.4,100.54c-.49-3.46-1.15-6.35-.33-7.34,.83-.99,2.97-2.23,1.98-5.77-.99-3.55-10.47,.56-10.47,.56,0,0,.49,3.46,4.37,4.97,2.61,1.01,1.86,3.6,1.89,7.17,.04,3.7-.4,8.83,1.25,9.77,.02,.01,.05,.03,.07,.04,.48,.23,1.06,.44,1.64,.6,1.51,.44,2.95,.51,2.24-.44-.99-1.32-2.14-6.1-2.64-9.56Z"/>
                  <path class="cls-75" d="M278.64,30.92c.33-5.94,2.14-12.37,0-12.04-.15,.02-.31,.08-.45,.18-.17,.1-.34,.26-.5,.45-1.53,1.83-2.35,6.96-2.35,6.96-9.07,39.08-6.27,54.91-5.28,60.19,.53,2.85,1.96,4.38,3.83,4.92,.99,.28,2.1,.29,3.27,.07,.71-.13,1.44-.34,2.19-.63,4.29-1.65,.41-9.8-.06-15.58-.49-6.06-.99-38.59-.66-44.52Z"/>
                  <path class="cls-90" d="M279.3,75.44c.44,5.37,3.82,12.79,.85,15.14,.43-3.47-1.66-9.09-2-13.44-.49-6.35-.99-40.41-.66-46.63,.24-4.61,1.3-9.5,.96-11.58,.06-.02,.13-.04,.19-.05,2.14-.33,.33,6.1,0,12.04-.33,5.94,.16,38.46,.66,44.52Z"/>
                </g>
                <g>
                  <path class="cls-63" d="M304.96,99.97c-.49-3.46-1.15-6.35-.33-7.34,.83-.99,2.97-2.23,1.98-5.77-.99-3.55-10.47,.56-10.47,.56,0,0,.49,3.46,4.37,4.97,2.61,1.01,1.86,3.6,1.89,7.17,.04,3.7-.4,8.83,1.25,9.77,.02,.01,.05,.03,.07,.04,.48,.23,1.06,.44,1.64,.6,1.51,.44,2.95,.51,2.24-.44-.99-1.32-2.14-6.1-2.64-9.56Z"/>
                  <path class="cls-78" d="M304.2,30.34c.33-5.94,2.14-12.37,0-12.04-.15,.02-.31,.08-.45,.18-.17,.1-.34,.26-.5,.45-1.53,1.83-2.35,6.96-2.35,6.96-9.07,39.08-6.27,54.91-5.28,60.19,.53,2.85,1.96,4.38,3.83,4.92,.99,.28,2.1,.29,3.27,.07,.71-.13,1.44-.34,2.19-.63,4.29-1.65,.41-9.8-.06-15.58-.49-6.06-.99-38.59-.66-44.52Z"/>
                  <path class="cls-90" d="M304.86,74.86c.44,5.37,3.82,12.79,.85,15.14,.43-3.47-1.66-9.09-2-13.44-.49-6.35-.99-40.41-.66-46.63,.24-4.61,1.3-9.5,.96-11.58,.06-.02,.13-.04,.19-.05,2.14-.33,.33,6.1,0,12.04-.33,5.94,.16,38.46,.66,44.52Z"/>
                </g>
              </g>
            </g>
            <g>
              <path class="cls-14" d="M333.07,17.47V110.79c0,4.22-1.49,8.07-3.97,11.08-1.79,2.18-4.09,3.92-6.73,5.02-2.08,.88-4.36,1.37-6.76,1.37h-56.94c-9.65,0-17.47-7.82-17.47-17.47V17.47c0-9.65,7.82-17.47,17.47-17.47h56.94c2.64,0,5.13,.59,7.37,1.63,1.98,.92,3.74,2.19,5.23,3.74,3.02,3.15,4.87,7.4,4.87,12.09Z"/>
              <g>
                <polygon class="cls-37" points="247.51 122.8 269.14 70.45 292.49 70.83 247.51 122.8"/>
                <polygon class="cls-32" points="248.37 123.37 298.4 75.25 305.51 82.31 248.37 123.37"/>
                <polygon class="cls-10" points="247.22 4.5 276.51 56.76 288.57 47.57 249.09 3.07 247.22 4.5"/>
                <path class="cls-43" d="M329.1,121.87c-1.79,2.18-4.09,3.92-6.73,5.02-8.91-14.97-40.6-61.8-40.6-61.8l22.59-8.42,24.74,65.21Z"/>
                <polygon class="cls-35" points="277.56 51.11 279 67.19 241.19 65.73 241.19 59.71 277.56 51.11"/>
                <path class="cls-7" d="M328.2,5.38l-31.12,43.63-32.92-4.98L322.98,1.63c1.98,.92,3.74,2.19,5.23,3.74Z"/>
                <polygon class="cls-40" points="329.34 6.51 306.08 71.12 294.27 61.77 329.34 6.51"/>
              </g>
            </g>
          </g>
        </g>
      </g>
    </g>
  </g>
</svg>