<?xml version="1.0" encoding="UTF-8"?>
<svg id="Layer_2" data-name="Layer 2" xmlns="http://www.w3.org/2000/svg" viewBox="0 0 146 146">
  <defs>
    <style>
      .cls-1 {
        fill: #003b7e;
      }

      .cls-2 {
        fill: #ffe500;
      }
    </style>
  </defs>
  <g id="Layer_1-2" data-name="Layer 1">
    <g>
      <circle class="cls-2" cx="73" cy="73" r="73"/>
      <path class="cls-1" d="M114.71,75.74h-3.53l-6.23-23.67c5.36-.12,9.69-4.51,9.69-9.92,0-1.96-1.59-3.55-3.55-3.55s-3.55,1.59-3.55,3.55c0,1.55-1.26,2.82-2.81,2.82-1.05,0-2-.57-2.49-1.49-1.61-3.01-4.77-4.89-8.24-4.89h-2.39c-.24-.66-.62-1.28-1.13-1.8-.95-.95-2.19-1.46-3.51-1.46-1.12,0-2.15,.39-2.99,1.01-.09-1.19-.57-2.28-1.42-3.13-.95-.95-2.19-1.46-3.51-1.46s-2.45,.5-3.32,1.31c-.24-.59-.61-1.15-1.08-1.62-.95-.94-2.19-1.46-3.53-1.46-2.07,0-3.84,1.27-4.59,3.08-.92-.84-2.08-1.31-3.32-1.31-2.74,0-4.97,2.23-4.97,4.97v1.86h-7.24c-3.49,0-6.63,1.88-8.24,4.89-.49,.92-1.43,1.49-2.47,1.49-1.55,0-2.82-1.27-2.82-2.82,0-1.96-1.59-3.55-3.55-3.55s-3.55,1.59-3.55,3.55c0,5.39,4.32,9.78,9.69,9.92l-6.23,23.67h-3.53c-.55,0-1.01,.46-1.01,1.01,0,6.65,5.42,12.06,12.09,12.06s12.06-5.4,12.06-12.06c0-.55-.46-1.01-1.01-1.01h-3.53l-6.3-23.94c2.73-.65,5.09-2.42,6.44-4.96,.36-.69,1.12-1.12,1.97-1.12h4.31c-1.39,1.41-2.26,3.34-2.26,5.47v13.42c0,6.04,4.09,11.13,9.66,12.69v35.46c0,2.05,1.66,3.72,3.72,3.72h16.7c2.05,0,3.72-1.66,3.72-3.72v-37.77c3.09-2.42,5.11-6.16,5.11-10.39v-18.89h2.07c.85,0,1.61,.43,1.97,1.12,1.35,2.54,3.72,4.31,6.44,4.96l-6.3,23.94h-3.53c-.55,0-1.01,.46-1.01,1.01,0,6.65,5.42,12.06,12.09,12.06s12.06-5.4,12.06-12.06c-.03-.54-.49-1-1.04-1h0Zm-27.75-38.37c.78,0,1.53,.31,2.08,.86,.55,.55,.86,1.3,.86,2.08v6.8c0,1.62-1.32,2.94-2.94,2.94s-2.94-1.32-2.94-2.94v-6.8c0-1.62,1.32-2.94,2.94-2.94h0Zm-10.86-.63c0-1.62,1.32-2.94,2.94-2.94,.78,0,1.53,.31,2.08,.86,.55,.55,.86,1.3,.86,2.08v10.38c0,1.62-1.32,2.94-2.94,2.94s-2.94-1.32-2.94-2.94v-10.38Zm-7.93-1.77c0-1.62,1.32-2.94,2.94-2.94,.78,0,1.53,.31,2.08,.86,.55,.55,.86,1.31,.86,2.08v12.15c0,.76-.28,1.45-.76,1.96,.03-.23,.07-.46,.07-.7,0-2.74-2.23-4.97-4.97-4.97h-.23s0-8.43,0-8.43Zm-4.96-1.18c.78,0,1.53,.31,2.08,.86,.55,.55,.86,1.3,.86,2.08v6.67s-5.7,.01-5.89,.03v-6.7c0-1.62,1.31-2.95,2.95-2.95h0Zm-21.86,53c-5.2,0-9.5-3.96-10.01-9.02h19.99c-.51,5.05-4.8,9.02-9.98,9.02Zm-5.46-11.05l5.44-20.68,5.44,20.68h-10.89Zm11.33-29.86c-1.38,2.58-4.04,4.17-6.96,4.17-4.35,0-7.9-3.54-7.9-7.9,0-.84,.69-1.53,1.53-1.53s1.53,.69,1.53,1.53c0,2.67,2.18,4.85,4.85,4.85,1.8,0,3.43-.99,4.27-2.57,1.26-2.35,3.73-3.81,6.46-3.81h7.24v3.05h-7.24c-1.61,0-3.05,.84-3.77,2.2h0Zm37.58,66.86c0,.93-.76,1.69-1.69,1.69h-16.71c-.95,0-1.69-.74-1.69-1.69v-35.07c.49,.05,.99,.09,1.49,.09h12.55c2.18,0,4.23-.54,6.04-1.49v36.46h.01Zm-6.05-37.01h-12.55c-6.15,0-11.15-5-11.15-11.15v-13.42c0-3.16,2.58-5.74,5.74-5.74h7.59c1.62,0,2.94,1.32,2.94,2.94s-1.32,2.94-2.94,2.94h-5.3c-.55,0-1.01,.46-1.01,1.01v3.03c0,.47,.34,.89,.81,.99,3.93,.82,6.78,4.35,6.78,8.36,0,.55,.46,1.01,1.01,1.01s1.01-.46,1.01-1.01c0-4.69-3.15-8.84-7.59-10.15v-1.23h4.28c1.31,0,2.49-.51,3.38-1.34,1.35-.18,2.53-.89,3.3-1.92,.91,1.2,2.34,2,3.96,2s3.05-.8,3.96-2c.91,1.2,2.34,2,3.96,2,1.11,0,2.12-.38,2.94-1v13.5c.01,6.16-4.98,11.16-11.13,11.16h0Zm18.99-29.86c-.72-1.35-2.16-2.19-3.76-2.19h-2.07v-3.05h2.07c2.73,0,5.2,1.46,6.46,3.81,.84,1.58,2.49,2.57,4.28,2.57,2.66,0,4.84-2.18,4.84-4.85,0-.84,.69-1.53,1.53-1.53s1.53,.69,1.53,1.53c0,4.35-3.54,7.9-7.89,7.9-2.93-.01-5.61-1.62-6.98-4.19h0Zm5.89,9.17l5.44,20.68h-10.88l5.43-20.68Zm.01,31.73c-5.2,0-9.5-3.96-10.01-9.02h19.99c-.51,5.05-4.78,9.02-9.98,9.02Z"/>
    </g>
  </g>
</svg>