<?xml version="1.0" encoding="UTF-8"?>
<svg id="Layer_2" data-name="Layer 2" xmlns="http://www.w3.org/2000/svg" viewBox="0 0 146 146">
  <defs>
    <style>
      .cls-1 {
        fill: #003b7e;
      }

      .cls-2 {
        fill: #ffe500;
      }
    </style>
  </defs>
  <g id="Layer_1-2" data-name="Layer 1">
    <g>
      <circle class="cls-2" cx="73" cy="73" r="73"/>
      <path class="cls-1" d="M43.48,34.4c-.68,.07-1.2,.64-1.2,1.33V102.96c0,.13-.02,.26-.02,.4,0,4.54,3.69,8.24,8.23,8.24h51.88c.35,0,.69-.14,.94-.39,.25-.25,.39-.59,.39-.94h0v-13.8h0c0-.06,0-.13-.01-.19,.03-.1,.04-.21,.04-.31V35.73c0-.35-.14-.69-.39-.94-.25-.25-.59-.39-.94-.39H43.61s-.08,0-.13,0h0Zm1.46,2.67h56.12v58.06H50.5c-2.14,0-4.08,.83-5.55,2.17V37.06Zm28.06,7.74c-9.05,0-16.42,7.36-16.42,16.41s7.37,16.42,16.42,16.42,16.41-7.37,16.41-16.42-7.36-16.41-16.41-16.41h0Zm0,2.65c7.61,0,13.76,6.15,13.76,13.76s-6.15,13.76-13.76,13.76-13.76-6.14-13.76-13.76,6.14-13.76,13.76-13.76Zm-.17,5.19h0c-.86,.04-1.64,.54-2.03,1.31s-.35,1.69,.12,2.41c.47,.73,1.29,1.15,2.15,1.11,.86,0,1.66-.46,2.09-1.21s.43-1.67,0-2.41-1.23-1.21-2.09-1.21c-.08,0-.15,0-.23,0h0Zm.16,7.25h0c-.35,0-.69,.15-.94,.4-.25,.25-.38,.6-.38,.95v6.18c0,.35,.14,.69,.39,.94,.25,.25,.59,.39,.94,.39s.69-.14,.94-.39c.25-.25,.39-.59,.39-.94v-6.18c0-.36-.13-.71-.39-.96-.25-.26-.6-.4-.96-.39h0Zm-9.48,24.6h0c-.74,.03-1.3,.66-1.27,1.4,.04,.74,.66,1.3,1.4,1.27h18.74c.74,0,1.33-.6,1.33-1.33s-.6-1.33-1.33-1.33h-18.74s-.08,0-.13,0h0Zm-13.01,13.3h50.55s0,11.15,0,11.15H50.5c-3.07,0-5.49-2.4-5.56-5.45,0-.04,0-.09,0-.13v-.21c.11-3.01,2.51-5.36,5.55-5.36h0Z"/>
    </g>
  </g>
</svg>