<?xml version="1.0" encoding="UTF-8"?>
<svg id="Layer_2" data-name="Layer 2" xmlns="http://www.w3.org/2000/svg" viewBox="0 0 146 146">
  <defs>
    <style>
      .cls-1 {
        fill: #003b7e;
      }

      .cls-2 {
        fill: #ffe500;
      }
    </style>
  </defs>
  <g id="Layer_1-2" data-name="Layer 1">
    <g>
      <circle class="cls-2" cx="73" cy="73" r="73"/>
      <g>
        <g>
          <path class="cls-1" d="M49.33,93.63c-.29-5.69-1.18-10.56-2.42-13.36-.45-1.02-1.3-2.93-3.28-4.55-.82-.67-1.75-1.22-2.75-1.63v-1.1c1.12-.64,1.97-1.57,2.4-2.29,.33-.55,.6-1.33,.82-2.33,.26-1.21,.35-2.52,.26-3.87-.39-6.2-3.58-7.5-6.19-7.5s-5.79,1.3-6.19,7.5c-.09,1.36,0,2.66,.26,3.87,.21,1,.49,1.78,.82,2.33,.43,.72,1.29,1.65,2.4,2.29v1.1c-1.01,.41-1.93,.96-2.75,1.63-1.98,1.62-2.82,3.52-3.28,4.55-1.24,2.8-2.13,7.67-2.42,13.36-.13,2.6,1.69,4.9,4.17,5.43v9.1c0,.36-.29,.65-.64,.65-1.39,0-2.53,1.14-2.53,2.53,0,1.4,1.13,2.53,2.53,2.53h15.26c1.39,0,2.53-1.14,2.53-2.53s-1.13-2.53-2.53-2.53c-.36,0-.64-.29-.64-.65v-9.1c2.48-.53,4.3-2.83,4.17-5.43h0Zm-15.01-23.68c-.24-.4-.47-1.07-.64-1.88-.23-1.08-.31-2.25-.23-3.47,.26-4.13,1.81-6.13,4.73-6.13s4.47,2.01,4.73,6.13c.08,1.22,0,2.39-.23,3.47-.18,.82-.4,1.49-.64,1.88-.58,.97-2.16,2.34-3.86,2.34-1.69,0-3.27-1.37-3.86-2.34h0Zm11.49,40.33c.59,0,1.07,.48,1.07,1.07s-.48,1.07-1.07,1.07h-6.9v-13.36c0-.4-.33-.73-.73-.73s-.73,.33-.73,.73v13.36h-6.9c-.59,0-1.07-.48-1.07-1.07s.48-1.07,1.07-1.07c1.16,0,2.1-.95,2.1-2.11v-19.5c0-.4-.33-.73-.73-.73s-.73,.33-.73,.73v8.89c-1.64-.5-2.8-2.08-2.71-3.85,.29-5.52,1.12-10.2,2.3-12.84,.43-.98,1.16-2.61,2.87-4.01,.82-.67,1.76-1.2,2.8-1.57,.3-.11,.48-.39,.48-.69h0v-1c.4,.1,.81,.16,1.24,.16s.85-.06,1.24-.16v1h0c0,.3,.18,.58,.48,.69,1.04,.37,1.98,.9,2.8,1.57,1.71,1.4,2.44,3.03,2.87,4.01,1.17,2.64,2.01,7.33,2.3,12.84,.09,1.77-1.08,3.36-2.71,3.85v-8.89c0-.4-.33-.73-.73-.73s-.73,.33-.73,.73v19.5c0,1.16,.94,2.11,2.1,2.11h0Z"/>
          <path class="cls-1" d="M45.81,114.23h-15.26c-1.59,0-2.88-1.29-2.88-2.88,0-1.59,1.29-2.88,2.88-2.88,.16,0,.29-.13,.29-.3v-8.83c-2.53-.68-4.31-3.09-4.17-5.73,.3-5.73,1.19-10.64,2.45-13.48,.47-1.05,1.33-3,3.38-4.68,.78-.64,1.67-1.18,2.62-1.59v-.67c-1.13-.69-1.95-1.64-2.35-2.31-.35-.58-.64-1.4-.86-2.43-.27-1.25-.36-2.58-.27-3.97,.41-6.47,3.78-7.83,6.54-7.83s6.12,1.36,6.54,7.83c.09,1.39,0,2.72-.27,3.97-.22,1.04-.51,1.85-.86,2.43-.4,.67-1.22,1.61-2.35,2.31v.67c.96,.41,1.84,.95,2.62,1.59,2.04,1.67,2.91,3.63,3.38,4.68,1.26,2.84,2.16,7.76,2.45,13.49h0c.14,2.64-1.64,5.05-4.17,5.73v8.83c0,.16,.13,.3,.29,.3,1.59,0,2.88,1.29,2.88,2.88s-1.29,2.88-2.88,2.88Zm-7.63-56.88c-3.52,0-5.54,2.48-5.84,7.17-.08,1.32,0,2.59,.25,3.78,.21,.96,.47,1.71,.77,2.22,.38,.63,1.17,1.53,2.28,2.16l.18,.1v1.54s-.22,.09-.22,.09c-.98,.4-1.87,.93-2.66,1.58-1.91,1.57-2.74,3.42-3.18,4.42-1.23,2.77-2.1,7.59-2.39,13.24-.12,2.39,1.55,4.57,3.89,5.07l.28,.06v9.39c0,.55-.45,1-.99,1-1.2,0-2.18,.98-2.18,2.18,0,1.2,.98,2.18,2.18,2.18h15.26c1.2,0,2.18-.98,2.18-2.18s-.98-2.18-2.18-2.18c-.55,0-.99-.45-.99-1v-9.39l.28-.06c2.34-.5,4.02-2.68,3.89-5.07l.35-.02-.35,.02c-.29-5.65-1.16-10.47-2.39-13.24-.44-1-1.27-2.85-3.18-4.42-.79-.65-1.69-1.18-2.66-1.58l-.22-.09v-1.54s.18-.1,.18-.1c1.11-.63,1.9-1.53,2.28-2.16,.31-.51,.57-1.26,.77-2.22,.25-1.18,.34-2.45,.26-3.77-.3-4.69-2.32-7.17-5.84-7.17Zm7.63,55.42h-7.25v-13.71c0-.21-.17-.38-.38-.38s-.38,.17-.38,.38v13.71h-7.25c-.78,0-1.42-.64-1.42-1.42s.64-1.42,1.42-1.42c.97,0,1.75-.79,1.75-1.76v-19.5c0-.21-.17-.38-.38-.38s-.38,.17-.38,.38v9.36l-.45-.14c-1.81-.55-3.06-2.32-2.96-4.2,.29-5.56,1.14-10.28,2.33-12.97,.45-1,1.19-2.68,2.97-4.14,.85-.7,1.83-1.25,2.91-1.63,.15-.05,.25-.2,.25-.36v-1.45s.44,.11,.44,.11c.78,.2,1.54,.2,2.31,0l.44-.11v1.45c0,.16,.1,.3,.25,.36,1.07,.38,2.05,.93,2.91,1.63,1.77,1.45,2.52,3.13,2.97,4.14,1.19,2.68,2.04,7.41,2.33,12.97,.1,1.89-1.15,3.66-2.96,4.2l-.45,.14v-9.36c0-.21-.17-.38-.38-.38s-.38,.17-.38,.38v19.5c0,.97,.79,1.76,1.75,1.76h0c.78,0,1.42,.64,1.42,1.42s-.64,1.42-1.42,1.42Zm-6.55-.7h6.55c.4,0,.72-.32,.72-.72s-.32-.72-.72-.72c-1.35,0-2.45-1.1-2.46-2.46v-19.5c0-.6,.48-1.08,1.08-1.08s1.08,.48,1.08,1.08v8.38c1.26-.59,2.09-1.92,2.01-3.33-.28-5.48-1.11-10.11-2.27-12.72-.42-.95-1.13-2.54-2.77-3.88-.79-.65-1.7-1.16-2.7-1.51-.31-.11-.55-.36-.66-.67h-.06v-.92c-.6,.1-1.19,.1-1.79,0v.92h-.06c-.1,.31-.34,.56-.66,.67-1,.35-1.91,.86-2.7,1.51-1.65,1.35-2.35,2.93-2.77,3.88-1.16,2.61-1.99,7.24-2.27,12.72-.07,1.41,.75,2.74,2.01,3.33v-8.38c0-.6,.48-1.08,1.08-1.08s1.08,.48,1.08,1.08v19.5c0,1.36-1.1,2.46-2.45,2.46-.4,0-.72,.32-.72,.72s.32,.72,.72,.72h6.55v-13.01c0-.6,.48-1.08,1.08-1.08s1.08,.48,1.08,1.08v13.01Zm-1.08-39.43c-1.83,0-3.53-1.47-4.15-2.51h0c-.26-.43-.5-1.14-.68-1.99-.24-1.11-.32-2.31-.24-3.57,.27-4.29,1.98-6.46,5.08-6.46s4.81,2.17,5.08,6.46c.08,1.25,0,2.46-.24,3.57-.18,.85-.43,1.56-.68,1.99-.62,1.04-2.33,2.51-4.16,2.51h0Zm-3.55-2.87c.52,.88,2.02,2.17,3.55,2.17h0c1.54,0,3.03-1.3,3.56-2.17,.22-.36,.43-1.01,.6-1.78,.23-1.05,.3-2.19,.23-3.38-.25-3.96-1.64-5.81-4.38-5.81s-4.13,1.85-4.38,5.81c-.08,1.19,0,2.33,.23,3.38,.16,.77,.38,1.41,.6,1.78h0Z"/>
        </g>
        <g>
          <path class="cls-1" d="M115.46,108.81c-.36,0-.64-.29-.64-.65v-9.1c2.48-.53,4.31-2.83,4.17-5.43-.29-5.69-1.18-10.56-2.42-13.36-.45-1.02-1.3-2.93-3.28-4.55-.82-.67-1.75-1.22-2.75-1.63v-1.1c1.12-.64,1.97-1.57,2.4-2.29,.33-.55,.6-1.33,.82-2.33,.26-1.21,.35-2.52,.26-3.87-.39-6.2-3.58-7.5-6.19-7.5s-5.79,1.3-6.19,7.5c-.09,1.36,0,2.66,.26,3.87,.21,1,.49,1.78,.82,2.33,.43,.72,1.29,1.65,2.4,2.29v1.1c-1.01,.41-1.93,.96-2.75,1.63-1.88,1.54-2.74,3.35-3.21,4.4-.44-.53-.92-1.02-1.45-1.45-.82-.67-1.75-1.22-2.75-1.63v-1.1c1.12-.64,1.97-1.57,2.4-2.29,.33-.55,.6-1.33,.82-2.33,.26-1.21,.35-2.52,.26-3.87-.39-6.2-3.58-7.5-6.19-7.5s-5.79,1.3-6.19,7.5c-.09,1.36,0,2.66,.26,3.87,.21,1,.49,1.78,.82,2.33,.43,.72,1.29,1.65,2.4,2.29v1.1c-1.01,.41-1.93,.96-2.75,1.63-.53,.43-1.01,.92-1.45,1.45-.47-1.05-1.33-2.85-3.21-4.4-.82-.67-1.75-1.22-2.75-1.63v-1.1c1.12-.64,1.97-1.57,2.4-2.29,.33-.55,.6-1.33,.82-2.33,.26-1.21,.35-2.52,.26-3.87-.39-6.2-3.58-7.5-6.19-7.5s-5.79,1.3-6.19,7.5c-.09,1.36,0,2.66,.26,3.87,.21,1,.49,1.78,.82,2.33,.43,.72,1.29,1.65,2.4,2.29v1.08l-15.29,5.21c-1.62,.55-2.65,2.19-2.43,3.9,.14,1.09,.75,2.05,1.68,2.64,.59,.37,1.25,.55,1.92,.55,.39,0,.79-.06,1.17-.19l8.67-2.95v24.94c0,.36-.29,.65-.64,.65-1.39,0-2.53,1.14-2.53,2.53,0,1.4,1.13,2.53,2.53,2.53h46.41c1.39,0,2.53-1.14,2.53-2.53,0-1.4-1.13-2.53-2.53-2.53h0Zm-11.49-38.87c-.24-.4-.47-1.07-.64-1.88-.23-1.08-.31-2.25-.23-3.47,.26-4.13,1.81-6.13,4.73-6.13s4.47,2.01,4.73,6.13c.08,1.22,0,2.39-.23,3.47-.17,.82-.4,1.48-.64,1.88-.58,.97-2.16,2.34-3.86,2.34s-3.27-1.37-3.86-2.34h0Zm-15.57,2.95c-.24-.4-.47-1.07-.64-1.88-.23-1.08-.31-2.25-.23-3.47,.26-4.13,1.81-6.13,4.73-6.13s4.47,2.01,4.73,6.13c.08,1.22,0,2.39-.23,3.47-.17,.82-.4,1.49-.64,1.88-.58,.97-2.16,2.34-3.86,2.34s-3.27-1.37-3.86-2.34h0Zm-.68,6.9c.82-.67,1.76-1.2,2.8-1.57,.3-.11,.48-.39,.48-.69h0v-1c.4,.1,.81,.16,1.24,.16s.85-.06,1.24-.16v1h0c0,.3,.18,.58,.48,.69,1.04,.37,1.98,.9,2.8,1.57,.67,.55,1.25,1.19,1.75,1.93-.95,2.88-1.62,7.1-1.87,11.91-.07,1.3,.36,2.53,1.11,3.5v13.48c-.07,.23-.11,.48-.11,.74,0,.38,.09,.75,.24,1.07h-4.93v-10.41c0-.4-.33-.73-.73-.73s-.73,.33-.73,.73v10.41h-4.93c.15-.33,.24-.69,.24-1.07,0-.26-.04-.5-.11-.74v-13.48c.75-.97,1.18-2.2,1.11-3.5-.25-4.8-.92-9.02-1.87-11.91,.5-.73,1.09-1.38,1.75-1.93h0Zm11.52,22.21c.57-.12,1.11-.33,1.6-.63v6.78c0,.36-.29,.65-.64,.65s-.66,.07-.96,.19v-6.99Zm1.6-2.47c-.45,.45-1,.78-1.6,.96v-2.08c.49,.29,1.03,.51,1.6,.63v.48Zm-15.57,.96c-.6-.18-1.15-.51-1.6-.96v-.48c.57-.12,1.11-.34,1.6-.63v2.08Zm-1.6,.88c.49,.29,1.03,.51,1.6,.63v6.99c-.3-.12-.62-.19-.96-.19-.36,0-.64-.29-.64-.65v-6.78Zm-10.84-31.44c-.24-.4-.47-1.07-.64-1.88-.23-1.08-.31-2.25-.23-3.47,.26-4.13,1.81-6.13,4.73-6.13s4.47,2.01,4.73,6.13c.08,1.22,0,2.39-.23,3.47-.18,.82-.4,1.49-.64,1.88-.58,.97-2.16,2.34-3.86,2.34s-3.27-1.37-3.86-2.34h0Zm4.59,42.47v-13.36c0-.4-.33-.73-.73-.73s-.73,.33-.73,.73v13.36h-6.9c-.59,0-1.07-.48-1.07-1.07s.48-1.07,1.07-1.07c1.16,0,2.1-.95,2.1-2.11v-25.96c0-.4-.33-.73-.73-.73-.08,0-.16,.02-.23,.04h0s-9.64,3.27-9.64,3.27c-.62,.21-1.29,.13-1.84-.22-.56-.35-.92-.92-1.01-1.58-.13-1.02,.48-2,1.46-2.34l15.78-5.38c.3-.1,.49-.38,.49-.69v-1c.4,.1,.81,.16,1.24,.16s.85-.06,1.24-.16v1h0c0,.3,.18,.58,.48,.69,1.04,.37,1.98,.9,2.8,1.57,1.71,1.4,2.44,3.03,2.87,4.01,1.17,2.65,2.01,7.33,2.3,12.84,.09,1.77-1.08,3.36-2.71,3.85v-8.89c0-.4-.33-.73-.73-.73s-.73,.33-.73,.73v19.5c0,1.16,.94,2.11,2.1,2.11,.59,0,1.07,.48,1.07,1.07,0,.59-.48,1.07-1.07,1.07h-6.9Zm38.04,0h-6.9v-13.36c0-.4-.33-.73-.73-.73s-.73,.33-.73,.73v13.36s-6.9,0-6.9,0c-.59,0-1.07-.48-1.07-1.07s.48-1.07,1.07-1.07c1.16,0,2.1-.95,2.1-2.11v-19.5c0-.4-.33-.73-.73-.73s-.73,.33-.73,.73v8.89c-1.64-.5-2.8-2.08-2.71-3.85,.29-5.52,1.12-10.2,2.3-12.84,.43-.98,1.16-2.61,2.87-4.01,.82-.67,1.76-1.2,2.8-1.57,.3-.11,.48-.39,.48-.69h0v-1c.4,.1,.81,.16,1.24,.16s.85-.06,1.24-.16v1h0c0,.3,.18,.58,.48,.69,1.04,.37,1.98,.9,2.8,1.57,1.71,1.4,2.44,3.03,2.87,4.01,1.18,2.65,2.01,7.33,2.3,12.84,.09,1.77-1.08,3.36-2.71,3.85v-8.89c0-.4-.33-.73-.73-.73s-.73,.33-.73,.73v19.5c0,1.16,.94,2.11,2.1,2.11,.59,0,1.07,.48,1.07,1.07s-.48,1.07-1.07,1.07h0Z"/>
          <path class="cls-1" d="M115.46,114.23h-46.41c-1.58,0-2.88-1.29-2.88-2.88,0-1.59,1.29-2.88,2.88-2.88,.16,0,.29-.13,.29-.3v-24.45l-8.21,2.79c-1.13,.38-2.38,.23-3.39-.4-1.02-.64-1.69-1.69-1.84-2.89-.23-1.87,.89-3.67,2.67-4.27l15.05-5.13v-.63c-1.13-.69-1.95-1.64-2.35-2.31-.35-.58-.64-1.4-.86-2.43-.27-1.24-.36-2.58-.27-3.97,.41-6.47,3.78-7.83,6.54-7.83s6.12,1.36,6.54,7.83c.09,1.38,0,2.72-.27,3.97-.22,1.03-.51,1.85-.86,2.43-.4,.67-1.23,1.61-2.36,2.31v.67c.96,.41,1.84,.95,2.62,1.59,1.58,1.3,2.46,2.73,3.08,4.03,.36-.39,.74-.75,1.14-1.08,.79-.64,1.67-1.18,2.62-1.59v-.67c-1.13-.7-1.96-1.64-2.36-2.31-.35-.58-.64-1.4-.86-2.43-.27-1.24-.36-2.58-.27-3.97,.41-6.47,3.78-7.83,6.54-7.83s6.12,1.36,6.54,7.83c.09,1.39,0,2.72-.27,3.97-.22,1.03-.51,1.85-.86,2.43-.4,.67-1.22,1.61-2.36,2.31v.67c.96,.41,1.84,.95,2.62,1.59,.4,.33,.78,.69,1.14,1.08,.47-1,1.38-2.63,3.08-4.03,.79-.65,1.67-1.18,2.62-1.59v-.67c-1.13-.69-1.95-1.64-2.36-2.31-.35-.58-.63-1.4-.86-2.43-.27-1.24-.36-2.58-.27-3.97,.41-6.47,3.78-7.83,6.54-7.83s6.12,1.36,6.54,7.83c.09,1.39,0,2.72-.27,3.97-.22,1.03-.51,1.85-.86,2.43-.4,.67-1.22,1.61-2.36,2.31v.67c.96,.41,1.84,.95,2.62,1.59,2.04,1.67,2.91,3.63,3.38,4.68,1.26,2.84,2.16,7.76,2.45,13.48,.14,2.64-1.64,5.05-4.17,5.73v8.83c0,.16,.13,.3,.29,.3h0c1.59,0,2.88,1.29,2.88,2.88,0,1.59-1.29,2.88-2.88,2.88Zm-45.41-31.49v25.43c0,.55-.45,1-.99,1-1.2,0-2.18,.98-2.18,2.18,0,1.2,.98,2.18,2.18,2.18h46.41c1.2,0,2.18-.98,2.18-2.18,0-1.2-.98-2.18-2.18-2.18h0c-.55,0-.99-.45-.99-1v-9.39l.28-.06c2.34-.5,4.02-2.68,3.89-5.07-.29-5.65-1.16-10.47-2.39-13.24-.44-1-1.26-2.85-3.18-4.42-.79-.65-1.69-1.18-2.66-1.58l-.22-.09v-1.54l.18-.1c1.1-.63,1.9-1.53,2.28-2.16,.31-.51,.57-1.26,.78-2.22,.25-1.18,.34-2.45,.25-3.78-.3-4.69-2.32-7.17-5.84-7.17s-5.54,2.48-5.84,7.17c-.08,1.32,0,2.59,.25,3.77,.21,.96,.47,1.71,.77,2.22,.38,.63,1.17,1.53,2.28,2.16l.17,.1v1.54l-.22,.09c-.97,.4-1.87,.93-2.66,1.58-1.9,1.56-2.72,3.39-3.11,4.27l-.23,.52-.36-.44c-.42-.51-.89-.98-1.4-1.4-.79-.65-1.69-1.18-2.66-1.58l-.22-.09v-1.54l.17-.1c1.11-.63,1.9-1.53,2.28-2.16,.31-.52,.57-1.26,.77-2.22,.25-1.18,.34-2.45,.25-3.77-.3-4.69-2.32-7.17-5.84-7.17s-5.54,2.48-5.84,7.17c-.08,1.32,0,2.59,.25,3.78,.21,.96,.47,1.71,.77,2.22,.38,.63,1.17,1.53,2.28,2.17l.17,.1v1.54l-.22,.09c-.98,.4-1.87,.93-2.66,1.58-.5,.41-.97,.88-1.4,1.4l-.36,.44-.23-.52c-.39-.88-1.21-2.71-3.11-4.27-.79-.65-1.69-1.18-2.66-1.58l-.22-.09v-1.54s.17-.1,.17-.1c1.1-.63,1.9-1.53,2.28-2.17,.31-.51,.57-1.26,.77-2.22,.25-1.18,.34-2.45,.25-3.77-.3-4.69-2.32-7.17-5.84-7.17s-5.54,2.48-5.84,7.17c-.08,1.32,0,2.59,.25,3.78,.21,.96,.47,1.71,.77,2.22,.38,.63,1.17,1.53,2.28,2.16l.18,.1v1.54l-15.52,5.29c-1.47,.5-2.39,1.98-2.2,3.52,.12,.99,.68,1.86,1.52,2.38,.83,.52,1.86,.64,2.79,.33l9.13-3.1Zm28.42,30.03h-5.83v-10.76c0-.21-.17-.38-.38-.38s-.38,.17-.38,.38v10.76h-5.83l.23-.5c.14-.29,.21-.6,.21-.92,0-.22-.03-.43-.09-.63v-.1s-.01-13.6-.01-13.6l.07-.09c.73-.94,1.1-2.1,1.04-3.27-.25-4.75-.9-8.94-1.85-11.81l-.05-.16,.1-.14c.52-.76,1.13-1.44,1.82-2,.85-.7,1.83-1.25,2.91-1.63,.15-.05,.25-.2,.25-.36v-1.45s.44,.11,.44,.11c.78,.2,1.54,.2,2.32,0l.44-.11v1.45c0,.16,.1,.3,.25,.36,1.07,.38,2.05,.93,2.91,1.63,.69,.57,1.3,1.24,1.82,2l.1,.14-.05,.16c-.95,2.87-1.6,7.07-1.85,11.82-.06,1.17,.31,2.33,1.04,3.27l.07,.09v13.7c-.08,.21-.11,.42-.11,.64,0,.32,.07,.63,.21,.92l.23,.5Zm-5.13-.7h4.08c-.06-.24-.09-.48-.09-.72,0-.26,.04-.53,.11-.79v-13.32c-.78-1.05-1.18-2.34-1.11-3.63,.24-4.72,.89-8.91,1.83-11.83-.46-.65-.99-1.22-1.59-1.71-.79-.65-1.7-1.16-2.7-1.51-.31-.11-.55-.36-.66-.67h-.06v-.92c-.6,.1-1.19,.1-1.79,0v.92h-.06c-.1,.31-.34,.56-.66,.67-1,.35-1.91,.86-2.7,1.51h0c-.59,.49-1.13,1.06-1.59,1.71,.94,2.92,1.59,7.12,1.83,11.83,.07,1.29-.33,2.58-1.11,3.63v13.32c.07,.25,.11,.52,.11,.79,0,.25-.03,.49-.09,.72h4.08v-10.06c0-.6,.48-1.08,1.08-1.08s1.08,.48,1.08,1.08v10.06Zm-16.27,.7v-13.71c0-.21-.17-.38-.38-.38s-.38,.17-.38,.38v13.71h-7.25c-.78,0-1.42-.64-1.42-1.42s.64-1.42,1.42-1.42c.97,0,1.75-.79,1.75-1.76v-25.96c0-.25-.19-.46-.5-.36l-.32,.11h0s-9.31,3.16-9.31,3.16c-.72,.24-1.5,.15-2.14-.25-.65-.41-1.07-1.07-1.17-1.83-.15-1.19,.56-2.33,1.69-2.71l15.78-5.38c.15-.05,.26-.2,.26-.36v-1.46l.44,.11c.78,.2,1.54,.2,2.31,0l.44-.11v1.46c0,.16,.1,.3,.25,.36,1.07,.38,2.05,.93,2.91,1.63,1.77,1.45,2.52,3.14,2.97,4.14,1.19,2.68,2.04,7.41,2.33,12.97,.1,1.89-1.15,3.65-2.96,4.2l-.45,.14v-9.36c0-.21-.17-.38-.38-.38s-.38,.17-.38,.38v19.5c0,.97,.79,1.76,1.75,1.76,.78,0,1.42,.64,1.42,1.42,0,.38-.15,.74-.42,1.01-.27,.27-.62,.42-1,.42h-7.25Zm-6.64-31.64c.6,0,1.08,.48,1.08,1.08v25.96c0,1.36-1.1,2.46-2.45,2.46-.4,0-.72,.32-.72,.72s.32,.72,.72,.72h6.55v-13.01c0-.6,.48-1.08,1.08-1.08s1.08,.48,1.08,1.08v13.01h6.55c.19,0,.37-.08,.5-.21,.14-.14,.21-.32,.21-.51,0-.4-.32-.72-.72-.72-1.35,0-2.45-1.1-2.45-2.46v-19.5c0-.6,.48-1.08,1.08-1.08s1.08,.48,1.08,1.08v8.38c1.26-.59,2.09-1.92,2.01-3.33-.28-5.47-1.11-10.11-2.27-12.72-.42-.95-1.12-2.53-2.77-3.88-.79-.65-1.7-1.16-2.7-1.51-.31-.11-.55-.36-.66-.67h-.06v-.92c-.6,.1-1.19,.1-1.79,0v.57c0,.46-.29,.87-.73,1.02l-15.78,5.38c-.81,.28-1.33,1.1-1.22,1.96,.07,.55,.38,1.03,.84,1.33,.46,.29,1.03,.36,1.54,.18l9.96-3.39,.02,.05h0Zm45.03,31.64h-7.25v-13.71c0-.21-.17-.38-.38-.38s-.38,.17-.38,.38v13.71h-7.25c-.78,0-1.42-.64-1.42-1.42s.63-1.42,1.42-1.42c.97,0,1.75-.79,1.75-1.76v-19.5c0-.21-.17-.38-.38-.38s-.38,.17-.38,.38v9.36l-.45-.14c-1.81-.55-3.06-2.32-2.96-4.2,.29-5.56,1.14-10.28,2.33-12.97,.45-1,1.19-2.69,2.97-4.14,.85-.7,1.83-1.25,2.91-1.63,.15-.05,.25-.2,.25-.36v-1.45s.44,.11,.44,.11c.78,.2,1.54,.2,2.31,0l.44-.11v1.45c0,.16,.1,.3,.25,.36,1.07,.38,2.05,.93,2.91,1.63,1.78,1.46,2.52,3.14,2.97,4.14,1.19,2.68,2.04,7.41,2.33,12.97,.1,1.89-1.15,3.66-2.96,4.2l-.45,.14v-9.36c0-.21-.17-.38-.38-.38s-.38,.17-.38,.38v19.5c0,.97,.79,1.76,1.75,1.76,.78,0,1.42,.64,1.42,1.42s-.63,1.42-1.42,1.42Zm-6.55-.7h6.55c.4,0,.72-.32,.72-.72s-.32-.72-.72-.72c-1.35,0-2.45-1.1-2.45-2.46v-19.5c0-.6,.48-1.08,1.08-1.08s1.08,.48,1.08,1.08v8.38c1.26-.59,2.09-1.92,2.01-3.33-.28-5.47-1.11-10.11-2.27-12.72-.42-.95-1.12-2.53-2.77-3.88-.79-.65-1.7-1.16-2.7-1.51-.31-.11-.55-.36-.66-.67h-.06v-.92c-.6,.1-1.19,.1-1.79,0v.92h-.06c-.1,.31-.34,.56-.66,.67-1,.35-1.91,.86-2.7,1.51-1.64,1.35-2.35,2.93-2.77,3.88-1.16,2.61-1.99,7.24-2.27,12.72-.07,1.41,.75,2.74,2.01,3.33v-8.38c0-.6,.48-1.08,1.08-1.08s1.08,.48,1.08,1.08v19.5c0,1.36-1.1,2.46-2.45,2.46-.4,0-.72,.32-.72,.72s.32,.72,.72,.72h6.55v-13.01c0-.6,.48-1.08,1.08-1.08s1.08,.48,1.08,1.08v13.01Zm-10.02-2.54v-7.8l.28-.06c.53-.11,1.03-.31,1.49-.58l.53-.32v7.4c0,.55-.45,1-.99,1-.28,0-.56,.05-.82,.16l-.48,.2Zm.7-7.24v6.24c.2-.04,.4-.07,.61-.07,.16,0,.29-.13,.29-.3v-6.2c-.29,.13-.59,.24-.9,.32Zm-13.97,7.24l-.48-.2c-.26-.11-.54-.16-.82-.16-.55,0-.99-.45-.99-1v-7.4l.53,.32c.46,.28,.97,.47,1.49,.58l.28,.06v7.8Zm-1.6-7.56v6.2c0,.16,.13,.3,.29,.3,.21,0,.41,.02,.61,.07v-6.24c-.31-.08-.61-.19-.9-.32Zm14.87-.99v-3.17l.53,.32c.46,.28,.97,.48,1.49,.59l.28,.06v.91l-.1,.1c-.49,.49-1.09,.86-1.75,1.05l-.45,.13Zm.7-1.96v.99c.33-.15,.63-.36,.9-.61v-.05c-.31-.08-.61-.19-.9-.33Zm-13.97,1.96l-.45-.13c-.66-.2-1.26-.56-1.75-1.05l-.1-.1v-.91l.28-.06c.53-.11,1.03-.31,1.49-.59l.53-.32v3.17Zm-1.6-1.58c.27,.25,.57,.45,.9,.61v-.99c-.29,.14-.59,.24-.9,.33v.05Zm8.24-23.8c-1.83,0-3.53-1.47-4.16-2.51h0c-.26-.43-.5-1.14-.68-1.99-.24-1.11-.32-2.31-.24-3.57,.27-4.29,1.98-6.46,5.08-6.46s4.81,2.17,5.08,6.46c.08,1.25,0,2.45-.24,3.57-.18,.85-.42,1.56-.68,1.99-.62,1.04-2.33,2.51-4.16,2.51Zm-3.56-2.87c.52,.88,2.02,2.17,3.56,2.17s3.03-1.3,3.56-2.17c.22-.36,.44-1.01,.6-1.78,.22-1.05,.3-2.19,.22-3.38-.25-3.96-1.64-5.81-4.38-5.81s-4.13,1.85-4.38,5.81c-.08,1.19,0,2.33,.22,3.38,.17,.77,.38,1.42,.6,1.78h0Zm-12.02-.07c-1.83,0-3.53-1.47-4.16-2.51h0c-.26-.43-.5-1.14-.68-1.99-.24-1.11-.32-2.31-.24-3.57,.27-4.29,1.98-6.46,5.08-6.46s4.81,2.17,5.08,6.46c.08,1.25,0,2.45-.24,3.57-.18,.85-.43,1.56-.68,1.99-.62,1.04-2.33,2.51-4.16,2.51Zm-3.56-2.87c.52,.88,2.02,2.17,3.56,2.17s3.03-1.3,3.56-2.17c.22-.36,.43-1.01,.6-1.78,.22-1.05,.3-2.19,.22-3.38-.25-3.96-1.64-5.81-4.38-5.81s-4.13,1.85-4.38,5.81c-.08,1.19,0,2.33,.23,3.38,.16,.77,.38,1.41,.6,1.78h0Zm34.7,2.87c-1.83,0-3.53-1.47-4.16-2.51h0c-.26-.43-.5-1.14-.68-1.99-.24-1.11-.32-2.31-.24-3.57,.27-4.29,1.98-6.46,5.08-6.46s4.8,2.17,5.08,6.46c.08,1.25,0,2.46-.24,3.57-.18,.85-.42,1.56-.68,1.99-.62,1.04-2.33,2.51-4.16,2.51Zm-3.55-2.87c.52,.88,2.02,2.17,3.55,2.17s3.03-1.3,3.56-2.17c.22-.36,.43-1.01,.6-1.78,.23-1.05,.3-2.19,.22-3.38-.25-3.96-1.64-5.81-4.38-5.81s-4.13,1.84-4.38,5.81c-.08,1.19,0,2.32,.22,3.38,.17,.77,.38,1.42,.6,1.78h0Z"/>
        </g>
        <g>
          <path class="cls-1" d="M68.69,52.56c.14,.12,.31,.17,.47,.17,.21,0,.41-.09,.56-.26,.26-.31,.22-.77-.08-1.03l-8.89-7.55,8.89-7.55c.31-.26,.35-.72,.08-1.03s-.72-.35-1.03-.08l-9.07,7.7-9.07-7.7c-.31-.26-.77-.22-1.03,.08-.26,.31-.22,.77,.08,1.03l8.89,7.55-8.89,7.55c-.31,.26-.35,.72-.08,1.03,.14,.17,.35,.26,.56,.26,.17,0,.33-.06,.47-.17l9.07-7.7,9.07,7.7Z"/>
          <path class="cls-1" d="M69.17,53.08c-.25,0-.5-.09-.7-.26h0s-8.84-7.51-8.84-7.51l-8.85,7.51c-.44,.37-1.15,.31-1.52-.12-.19-.22-.28-.5-.25-.79,.02-.29,.16-.55,.38-.74l8.57-7.28-8.57-7.28c-.22-.19-.35-.45-.38-.73-.02-.29,.07-.57,.25-.79,.19-.22,.45-.35,.73-.38,.3-.02,.57,.07,.79,.25l8.85,7.51,8.84-7.51c.45-.39,1.14-.33,1.52,.12,.39,.45,.33,1.14-.12,1.52l-8.57,7.28,8.57,7.28c.22,.19,.35,.45,.38,.74,.02,.29-.07,.57-.25,.79-.2,.24-.5,.38-.82,.38Zm-.25-.79c.25,.21,.42,.09,.54-.04,.07-.08,.1-.18,.09-.28,0-.1-.06-.19-.13-.26l-9.2-7.81,9.2-7.81c.16-.14,.18-.38,.04-.54-.14-.16-.38-.18-.54-.04l-9.3,7.89-9.3-7.9c-.08-.07-.18-.1-.28-.09-.1,0-.19,.06-.26,.13-.07,.08-.1,.18-.09,.28,0,.1,.06,.19,.13,.26l9.2,7.81-9.2,7.81c-.08,.07-.12,.16-.13,.26,0,.1,.02,.2,.09,.28,.13,.15,.38,.18,.54,.04l9.3-7.89,9.3,7.89Z"/>
        </g>
        <g>
          <path class="cls-1" d="M64.95,62.07c.14,.16,.34,.24,.54,.24,.09,0,.18-.02,.26-.05,.28-.11,.47-.38,.47-.68v-5.9h3.67c2.02,0,3.67-1.65,3.67-3.68v-16.2c0-2.03-1.65-3.68-3.67-3.68h-20.55c-2.02,0-3.67,1.65-3.67,3.68v16.2c0,2.03,1.65,3.68,3.67,3.68h9.82l5.79,6.39Zm-17.82-10.07v-16.2c0-1.22,.99-2.22,2.21-2.22h20.55c1.22,0,2.21,1,2.21,2.22v16.2c0,1.22-.99,2.22-2.21,2.22h-4.4c-.4,0-.73,.33-.73,.73v4.74l-4.74-5.23c-.14-.15-.33-.24-.54-.24h-10.14c-1.22,0-2.21-1-2.21-2.22h0Z"/>
          <path class="cls-1" d="M65.5,62.66c-.31,0-.6-.13-.8-.35l-5.69-6.28h-9.66c-2.22,0-4.02-1.81-4.02-4.03v-16.2c0-2.22,1.8-4.03,4.02-4.03h20.55c2.22,0,4.02,1.81,4.02,4.03v16.2c0,2.22-1.8,4.03-4.02,4.03h-3.32v5.55c0,.44-.28,.85-.69,1.01-.12,.05-.25,.07-.39,.07Zm-16.15-30.19c-1.83,0-3.32,1.49-3.32,3.33v16.2c0,1.84,1.49,3.33,3.32,3.33h9.97l5.89,6.51c.1,.11,.27,.15,.42,.1,.15-.06,.24-.2,.24-.35v-6.25h4.02c1.83,0,3.32-1.49,3.32-3.33v-16.2c0-1.84-1.49-3.33-3.32-3.33h-20.55Zm15.77,28.12l-5.35-5.9c-.07-.08-.17-.12-.28-.12h-10.14c-1.41,0-2.56-1.15-2.56-2.57h0s0-16.2,0-16.2c0-1.42,1.15-2.57,2.56-2.57h20.55c1.41,0,2.56,1.15,2.56,2.57v16.2c0,1.42-1.15,2.57-2.56,2.57h-4.4c-.21,0-.38,.17-.38,.38v5.65Zm-15.77-26.66c-1.03,0-1.86,.84-1.86,1.87v16.2c0,1.03,.83,1.87,1.86,1.87h10.14c.3,0,.6,.13,.8,.35l4.13,4.55v-3.83c0-.6,.48-1.08,1.08-1.08h4.4c1.03,0,1.86-.84,1.86-1.87v-16.2c0-1.03-.83-1.87-1.86-1.87h-20.55Z"/>
        </g>
      </g>
    </g>
  </g>
</svg>