<?xml version="1.0" encoding="UTF-8"?>
<svg id="Layer_2" data-name="Layer 2" xmlns="http://www.w3.org/2000/svg" viewBox="0 0 863.14 629.61">
  <defs>
    <style>
      .cls-1 {
        fill: #ed6966;
      }

      .cls-2 {
        fill: #4162a5;
      }

      .cls-3 {
        fill: #fc9290;
      }

      .cls-4 {
        fill: #86d1cd;
      }

      .cls-5 {
        fill: #ea8888;
      }

      .cls-6 {
        fill: #a8d29f;
      }

      .cls-7 {
        fill: #0b0754;
      }

      .cls-8 {
        fill: #060632;
      }

      .cls-9 {
        fill: #3e4dce;
      }

      .cls-10 {
        fill: #9e332e;
      }

      .cls-11 {
        fill: #3662c1;
      }

      .cls-12 {
        fill: #ff9843;
      }

      .cls-13 {
        fill: #61afab;
      }

      .cls-14 {
        fill: #2c3a64;
      }

      .cls-15 {
        fill: #ce6b29;
      }

      .cls-16 {
        fill: #ed7d2b;
      }

      .cls-17 {
        fill: #2b478b;
      }

      .cls-18 {
        fill: #e75755;
      }
    </style>
  </defs>
  <g id="Layer_1-2" data-name="Layer 1">
    <g>
      <path class="cls-6" d="M855.13,597.92c-12.4-9.06-37.73-2.94-56.43,3.6-2.79-3.93-6.18-7.97-10.28-11.92,40.28-25.95,95.91-81.28,66.43-85.97-25.63-4.07-60.23,45.74-78.71,76.06-19.2-12.92-48.62-22.41-93.53-19.12-116.56,8.55-207.62-66.64-274.75-41.57-53.37,19.94-102.28,31.11-149.45,27.29,2.03-34.46,2.47-102.11-24.59-109.13-27.47-7.13-.52,69.71,14.45,108.07-3.51-.45-7.02-.99-10.52-1.61-9.7-19.12-25.68-44.14-43.22-45-16.52-.8,3.87,21.69,23.94,40.75-57.68-12.11-126.11,34.78-127.24,90.22H811.38s-1.28-8.09-6.93-18.76c27.83-.54,64.15-3.07,50.68-12.91Z"/>
      <g>
        <rect class="cls-17" x="58.52" y="586.75" width="189.8" height="42.86"/>
        <rect class="cls-14" y="586.75" width="189.8" height="42.86"/>
      </g>
      <g>
        <g>
          <rect class="cls-16" x="322.99" y="432.06" width="141.33" height="197.54" transform="translate(787.32 1061.66) rotate(180)"/>
          <rect class="cls-12" x="279.42" y="432.06" width="141.33" height="197.54" transform="translate(700.16 1061.66) rotate(180)"/>
        </g>
        <polygon class="cls-15" points="420.75 432.06 464.32 461.72 464.32 432.06 420.75 432.06"/>
      </g>
      <g>
        <path class="cls-5" d="M546.85,153.17c-2.18-.33-8.77,5.76-8.77,5.76h0c-14.06,1.62-34.61,5.36-42.01,6.78-5.25,1.01-19.35-3.8-33.13-9.32-16.39-6.57-32.31-14.15-32.31-14.15-9.09-.46-19.42,16.13-.98,26.67,2.81,1.61,13.39,4.36,25.57,6.87h0c16.8,3.46,36.65,6.47,43.41,5.41,7.85-1.23,30.07-9.35,43.28-15.58h0s.01,0,.03-.02c.05-.02,.1-.05,.15-.07,.79-.37,4.03-1.81,6.19-1.68,2.48,.15,7.99-4.38,8.16-5.59,.17-1.21-7.4-4.75-9.59-5.08Z"/>
        <path class="cls-17" d="M529.68,362.17l-7.74,1.57s-35.42-39.8-40.89-56.55c-2.93-8.95-21.63-12.82-41.17-17.87-17.01-4.4-34.66-9.7-43.09-20.04-18.12-22.21,11.38-49.51,11.38-49.51,0,0,31.36,18.64,58.41,37.89,18.91,13.46,35.72,27.21,38.25,35.12,6.15,19.23,19.19,55.77,24.85,69.38Z"/>
        <path class="cls-14" d="M519.32,375.3h4.35c1.46-.23,2.54-.65,4.03-.85,2.27-.3,3.32,.63,3.52,.85,.03,.03,.04,.04,.04,.04h18.49c.47-.66,.02-2.2-.42-3.34-.29-.77-.94-1.35-1.73-1.58-1.96-.57-5.83-1.07-9.37-4.28-1.99-1.8-9.62-6.62-9.62-6.62h-.04c-.17,0-.96,.24-4.43,3.17-1.79,1.51-4.85-2.13-4.85-2.13,0,0-.57,.47-1,1.36-.34,.7-.6,1.66-.4,2.84,.28,1.67-.61,4.76-1.33,6.86-.43,1.27-.79,2.17-.79,2.17,0,0-.21,1.05,3.54,1.51Z"/>
        <path class="cls-14" d="M466.59,257.67l-26.7,31.65c-17.01-4.4-34.66-9.7-43.09-20.04-18.12-22.21,11.38-49.51,11.38-49.51,0,0,31.36,18.64,58.41,37.89Z"/>
        <path class="cls-17" d="M442.32,241.14s-2.15,6.79-5.66,17c-4.43,12.91-11.03,31.3-18.19,48.35-1.57,3.75-3.17,7.43-4.79,10.98-5.95,13.12-12.05,24.37-17.42,30.09-9.64,10.28-33.08,76.34-33.08,76.34l-5.84-1.62s-8.14-56.41,20.7-88.51c.31-.34,.55-.74,.58-1.2,0,0,0,0,0-.01,.38-4.75,1.76-26.03,4.74-47.59,.73-5.29,1.56-10.59,2.5-15.68,.06-.33,.12-.65,.18-.97,4.39-23.5,8.59-33.95,14.01-39.21l39.88,11.35,2.36,.67Z"/>
        <path class="cls-14" d="M356.7,432.02h4.35c1.46-.23,2.54-.65,4.03-.85,2.27-.3,3.32,.63,3.53,.85,.03,.03,.04,.04,.04,.04h18.5c.47-.66,.02-2.2-.42-3.34-.29-.77-.94-1.35-1.73-1.58-1.96-.57-5.83-1.07-9.37-4.28-1.99-1.8-9.62-6.62-9.62-6.62h-.04c-.17,0-.96,.24-4.43,3.17-1.79,1.51-4.85-2.14-4.85-2.14,0,0-.57,.48-1,1.36-.34,.7-.6,1.66-.4,2.84,.28,1.67-.61,4.76-1.32,6.86-.43,1.27-.79,2.17-.79,2.17,0,0-.21,1.05,3.54,1.51Z"/>
        <path class="cls-3" d="M365.25,164.42s-6.67,16.33-14.37,32.22c-6.47,13.36-13.66,26.41-18.22,29.2-6.43,3.93-24.14,15.01-35.63,23.27,0,0-8.97-.07-10.36,1.65-1.39,1.72-4.61,9.43-3.67,10.21,.94,.78,8.07,.42,9.8-1.36,1.51-1.55,4.87-2.66,5.71-2.92,.05-.02,.1-.03,.16-.05,.02,0,.04,0,.04,0h0c13.96-4.29,35.86-13.24,42.49-17.62,5.71-3.77,18.36-19.35,28.45-33.23h0c7.32-10.06,13.29-19.21,14.29-22.3,6.53-20.21-12.27-25.53-18.68-19.06Z"/>
        <path class="cls-7" d="M400.15,100.4c-.79-1.15-1.59-2.17-2.39-3.09,.99,.02,2.06-.08,2.95-.44,2.34-.97,3.41-8.41,3.06-10.61-.35-2.2-3.6-8.58-7.62-9.22-4.01-.64-8.16,3.82-8.16,3.82,.74-3.22,7.53-5.07,7.53-5.07-13.98,2.58-13.27,11.9-13.17,12.77-12.8-4.56-20.31,19.54-20.31,19.54l33.16,19.54s.09-5.32,3.25-4.98c4.93,.54,9.04-11.58,1.71-22.26Z"/>
        <path class="cls-3" d="M402.26,150.98c-7.61,3.59-17.7-1.58-17.65-1.63,.65-.65,.42-2.61-.17-5.16-.6-2.66-2.01-6.3-4.62-10.65-.54-.92-1.09-1.85-1.74-2.83l.87-.33,14.78-5.92s2.39,4.29,4.89,8.21c2.12,3.26,4.35,6.2,5.33,6.09,.05-.05,9.84,6.68-1.68,12.23Z"/>
        <path class="cls-5" d="M393.73,125.93c-.38,5.27-2.17,14.78-9.29,18.26-.6-2.66-2.01-6.3-4.62-10.65l13.91-7.61Z"/>
        <path class="cls-3" d="M378.95,139.53s19.24-7.58,14.34-19.5c-4.91-11.91-5.73-20.91-18.22-16.57-12.49,4.34-12.99,9.86-12.32,14.24,.67,4.37,11.08,23.5,16.21,21.83Z"/>
        <path class="cls-7" d="M386.13,117.32c8.89-1.25,11.48-4.85,11.48-4.85,0,0-8.18-2.35-12.99-10.36,0,0-9.99-3.37-17.39,2.26-.45,.59-.77,1.28-.94,2.09-1.7-.56-4.25-.41-5.72,4.38-2.21,7.2,5.65,15.07,5.65,15.07,1.91-.54-.24-6.96-.54-10.38-.22-2.52,1.14-5.75,1.87-7.28,.94,1.22,10.32,13,21.76,13.47,0,0-6.05-2.1-11.55-6.2,2.74,1.34,5.65,2.18,8.36,1.8Z"/>
        <path class="cls-11" d="M438.9,175.52c-.16-.57-.34-1.17-.52-1.78,2.86-5.46,4.26-10.39,4.86-14.55,1.3-8.8-.92-14.24-.92-14.24,0,0-13.35-7.08-19.24-7.98-.03,0-.05-.02-.07-.02-.07,0-.15-.02-.24-.02-5.95-.82-18.83,1.81-18.83,1.81,0,0,2.48,6.61-4.53,11.02-7.01,4.41-14.5-1.13-14.5-1.13-.23,.15-.47,.32-.71,.49h0s-18.44,12.17-20.1,14.95c-1.66,2.78-8.75,16.55-8.75,16.55,0,0,2.25,11.56,27.17,12.53,2.05,4.97,3.62,9.81,4.13,13.86,1.98,15.69-.32,28.07,1.99,37.23,2.31,9.16,43.88,3.94,51.41,2.17,7.53-1.76,5.83-9.8,6.41-17.61,.73-9.81-5.09-44.62-7.55-53.27Z"/>
        <path class="cls-9" d="M443.23,159.18c-.6,4.18-2.01,9.13-4.89,14.62-.65-2.88-3.32-13.42-7.61-18.2,0,0,7.23,.65,12.5,3.59Z"/>
      </g>
      <g>
        <path class="cls-5" d="M273.97,262.02s7.74-9.39,9.41-10.49c1.67-1.11,8.98-3.05,9.4-2.66,.42,.39,.44,.96-.47,1.76-.91,.8-4.37,2.82-3.87,3.05,.49,.23,10.93-4.97,12.44-3.22,1.5,1.75-.85,8.96-4.87,12.42-4.02,3.46-16.03,4.93-16.78,5.42-6.4,4.09-5.25-6.26-5.25-6.26Z"/>
        <path class="cls-3" d="M137.61,240.35s11.13,13.2,25.3,7.68c0,0,3.05-7.37,3.09-12.81,0-.67,.01-1.32,.02-1.93,.08-6.12,.28-9.55,.28-9.55,0,0,0,0-.01,0-.64-.27-21.66-8.9-21.64-8.18,.36,16.55-7.04,24.8-7.04,24.8Z"/>
        <path class="cls-5" d="M146.75,219.5c2.03,3.76,8.98,11.11,19.27,13.79,.08-6.12,.28-9.55,.28-9.55,0,0,0,0-.01,0-.58-.16-20.14-5.34-19.53-4.23Z"/>
        <path class="cls-3" d="M170.7,223.1s-23.63,5.56-26.87-9.21c-3.23-14.77-8.46-24,6.49-28.18,14.95-4.17,19.13,.82,21.41,5.49,2.28,4.67,5.03,30.08-1.03,31.9Z"/>
        <path class="cls-10" d="M144.64,217.91c-.32,.21-5.41,1.77-15.04-17.42-1.51-3.01-2.54-9.53,.98-15.28,3.52-5.76,16.02-10.28,26.4-12.25,10.38-1.97,12.87,3.87,15.32,9.74,2.57,6.16,9.98,11.24,9.98,11.24-8.95,5-19.74-2.15-23.47-.98-3.74,1.18-5.06,7.06-5.34,8.95-.28,1.89-.71,3.45-5.41,1.77-4.7-1.69-2.12,6.66-1.37,8.25,0,0,.64,4.25-2.06,5.98Z"/>
        <g>
          <path class="cls-8" d="M83.76,586.75h-14.31c-3,0-6.33-3.04-7.17-8.62-.83-5.58-7-8.62-8.34-13.18-1.34-4.56,5.5-10.99,5.5-10.99l1.14-1.49,1.19-1.55,11.34,2.7s.28,2.74,.45,6.22c.12,2.52,.19,5.42,.05,7.97-.33,6.08,1.68,12.63,7.01,13.82,5.34,1.18,3.13,5.11,3.13,5.11Z"/>
          <path class="cls-8" d="M183.39,586.89h-37.93c-.36-.07-.64-.15-.81-.24-2.53-1.31-1.74-11.29-1.44-14.37,.06-.57,.1-.91,.1-.91,0,0,13.34-10.98,15.18-2.57,.06,.26,.12,.52,.2,.77h0c2.32,7.87,12.67,11.45,18.65,12.45,4.57,.76,5.75,3.51,6.06,4.88Z"/>
          <path class="cls-1" d="M175.74,367.52s-2.03,25.27-4.41,55.66c-3.24,41.27-7.13,91.97-7.51,101.57-.67,16.68-3.34,43.35-3.34,43.35,0,0-6.33,6.34-19.01,3.67,0,0-11.3-38.08-14.52-78.37-.05-.66-.1-1.33-.15-1.99-3-41.02-7.67-127.39-7.67-127.39l56.6,3.5Z"/>
          <path class="cls-18" d="M175.74,367.52s-2.03,25.27-4.41,55.66l-44.38,70.22c-.05-.66-.1-1.33-.15-1.99-3-41.02-7.67-127.39-7.67-127.39l56.6,3.5Z"/>
          <path class="cls-1" d="M166.49,370.52s-36.52,91.54-60.52,134.55c-24.01,43.02-31.51,55.02-31.51,55.02,0,0-13.76-5.5-15.01-9.25,0,0,9.18-83.05,25.26-103.29,9.09-11.44,19.76-45.77,20.26-57.77,.5-12,3.25-35.76,3.25-35.76l58.27,16.51Z"/>
        </g>
        <g>
          <path class="cls-5" d="M82.89,355.28s-.95,11.43-1.64,13.19c-.69,1.76-5.31,7.2-5.84,7.12-.53-.08-.85-.51-.58-1.61,.27-1.11,1.86-4.53,1.36-4.44-.5,.09-5.79,9.73-7.89,9.18-2.1-.54-4.16-7.4-2.91-12.24,1.25-4.84,9.75-12.44,10.08-13.22,2.75-6.61,7.43,2.02,7.43,2.02Z"/>
          <path class="cls-13" d="M78.97,358.18c4.04,1.3,4.69,1,4.69,1,0,0,19.67-35.81,21.66-39.09,1.99-3.28,41.77-40.16,41.77-40.16l-10.22-38.12s-45.24,58.58-50.12,66.99c-8.07,13.89-12.8,46.15-12.8,46.15,0,0,1.85,2.21,5.03,3.23Z"/>
        </g>
        <path class="cls-4" d="M183.45,294.89c-.14,7.83-.6,16.63-1.21,25.56-.04,.53-.08,1.06-.11,1.59-.39,5.54-.82,11.09-1.31,16.5-.2,2.17-.4,4.31-.62,6.42l-.03,.28c-.02,.79-.11,1.64-.2,2.42-1.99,20.27-4.08,36.28-4.47,36.53-.46,.31-.98,.46-1.56,.4-5.32-.67-21.17,.54-34.16-2.29-10.96-2.31-20.39-6.69-30.39-12.6-1.33-.78-4.35-2.86-4.11-4.41,.24-1.71,.69-4.17,1.26-7.27,1.97-10.78,5.37-29.33,6.53-51.03,.23-4.04,.56-8.04,.98-11.96,1.11-10.23,2.9-19.94,5.3-28.57,4.45-16.03,10.99-28.31,19.2-33.11,1.07-.6,6.84,3.07,12.14,6.47,4.89,3.14,10.05,4.01,15.06,3.57l4.41,4.88c5.34,6.21,11.03,14.47,12.58,26.22,.12,.87,.22,1.79,.3,2.77,.43,4.79,.53,10.84,.41,17.63Z"/>
        <path class="cls-13" d="M183.45,294.89c-.14,7.83-.6,16.63-1.21,25.56-.04,.53-.08,1.06-.11,1.59-30.36-19-35.04-53.78-35.04-53.78,14.94,.66,26.8,4.09,35.95,9,.43,4.79,.53,10.84,.41,17.63Z"/>
        <path class="cls-4" d="M278.58,262.96c-1.57-4.23-4-3.96-4-3.96,0,0-45.14,11.25-49.19,11.73-4.05,.48-48.61-17.4-48.61-17.4,0,0-17.54-7.87-25.76-.68-7.14,6.25-7.46,14.16-5.79,20.8,1.99,7.92,8.69,13.77,16.79,14.8,18.18,2.32,54.45,6.67,62.05,5.62,16.92-2.36,55.26-24.49,55.26-24.49,0,0,.48-3.09-.75-6.42Z"/>
      </g>
      <g id="man">
        <g>
          <path class="cls-14" d="M723.72,345.71s6.27,5.81,5.05,9.94c-1.22,4.13-6.88,6.88-7.65,11.93-.76,5.05-3.82,7.8-6.58,7.8h-13.13s-2.03-3.55,2.87-4.62,6.74-7,6.44-12.51c-.31-5.51,.46-12.85,.46-12.85l10.4-2.45,2.14,2.75Z"/>
          <path class="cls-14" d="M645.55,374.69c-.64,.32-2.87,.54-5.94,.69h-29.69c.1-.88,.79-4.03,5.65-4.81,5.48-.89,14.98-4.08,17.1-11.09,.07-.22,.13-.46,.18-.69,1.68-7.49,13.92,2.29,13.92,2.29,0,0,.04,.3,.09,.81,.29,2.76,1.01,11.65-1.31,12.8Z"/>
          <path class="cls-17" d="M617.02,174.21s1.86,23.19,4.04,51.06c2.97,37.87,6.54,84.38,6.89,93.19,.61,15.3,3.06,39.77,3.06,39.77,0,0,5.81,5.81,17.44,3.36,0,0,10.36-34.94,13.32-71.9,.05-.61,.09-1.22,.14-1.83,2.75-37.63,7.04-116.87,7.04-116.87l-51.93,3.21Z"/>
          <path class="cls-14" d="M617.02,174.21s1.86,23.19,4.04,51.06l40.72,64.42c.05-.61,.09-1.22,.14-1.83,2.75-37.63,7.04-116.87,7.04-116.87l-51.93,3.21Z"/>
          <path class="cls-17" d="M625.51,176.96s33.5,83.98,55.53,123.45c22.03,39.47,28.91,50.48,28.91,50.48,0,0,12.62-5.05,13.77-8.49,0,0-8.42-76.19-23.18-94.77-8.34-10.5-18.13-41.99-18.59-53.01-.46-11.01-2.98-32.81-2.98-32.81l-53.46,15.14Z"/>
        </g>
        <g>
          <path class="cls-3" d="M522.18,131.41s-9.09-2.08-10.62-1.97c-1.53,.11-6.88,2.34-6.95,2.78-.07,.43,.18,.79,1.11,.85,.92,.06,3.97-.33,3.77,.04-.19,.37-8.96,2.09-9.05,3.86-.1,1.76,4.71,5.04,8.76,5.26,4.06,.22,12.03-4.49,12.72-4.55,5.8-.51,.26-6.26,.26-6.26Z"/>
          <path class="cls-16" d="M518.29,133.72c-1.3-4.15-1-4.81-1-4.81,0,0,36.83-19.92,40.21-21.94,3.37-2.02,41.44-42.53,41.44-42.53l38.99,10.73s-60.34,45.96-68.98,50.91c-14.29,8.18-47.38,12.81-47.38,12.81,0,0-2.25-1.91-3.27-5.17Z"/>
        </g>
        <path class="cls-3" d="M610.75,44.75s-13.67,24.05-27.03,27.19c0,0,.56-8.08,3.81-13.6-1.33-1.57-2.5-3.01-3.51-4.31-3.36-4.31-4.96-6.95-4.96-6.95l4.53-12.19,3.08-8.27c1.48,2.68,3.11,4.97,4.81,6.93,8.76,10.07,19.28,11.2,19.28,11.2Z"/>
        <path class="cls-5" d="M591.47,33.55s1.63,12.05-7.46,20.48c-3.36-4.31-4.96-6.95-4.96-6.95l4.53-12.19c4.86-1.48,7.88-1.34,7.88-1.34Z"/>
        <path class="cls-3" d="M575.45,48.86s20.42-7.96,15.27-20.6c-5.15-12.64-5.99-22.18-19.25-17.63-13.26,4.55-13.81,10.4-13.11,15.04,.69,4.64,11.65,24.95,17.09,23.2Z"/>
        <path class="cls-12" d="M680.95,168.17c-8.24,11.84-69.84,27.67-69.11,19.47,.28-3.14,.66-8.67,0-16.17-.15-1.76-.37-3.62-.66-5.59-1.56-10.77-5.28-24.63-13.57-40.66-.62-1.2-1.27-2.41-1.94-3.64-3.41-6.21-6.32-12.77-8.54-19.19-4.27-12.33-5.99-24.13-3.83-31.85,0-.04,.02-.07,.03-.11,12.88-5.95,17.87-29.04,17.87-29.04,0,0,43.93,7.89,68.53,66.44,0,0,18.39,50.02,11.22,60.33Z"/>
        <path class="cls-16" d="M611.84,171.47c-.15-1.76-.37-3.62-.66-5.59-1.56-10.77-5.28-24.63-13.57-40.66,1.42-8.63,3.39-15.8,5.55-19.03,8.76-13.13,13.86-15.18,13.86-15.18,0,0,13.14,55.41-5.18,80.46Z"/>
        <g>
          <path class="cls-3" d="M542.59,158.28s-12.15,.64-14.04,1.32c-1.88,.68-7.8,5.4-7.74,5.97,.07,.57,.51,.92,1.69,.67,1.18-.25,4.86-1.83,4.75-1.3-.11,.53-10.5,5.83-9.99,8.08,.51,2.25,7.71,4.65,12.88,3.48,5.17-1.17,13.5-9.94,14.34-10.26,7.1-2.71-1.91-7.95-1.91-7.95Z"/>
          <path class="cls-12" d="M540.3,162.89c-2.43-3.93-.68-5.73-.68-5.73,0,0,37.54-29.39,40.48-32.36,2.94-2.97,16.57-50.25,16.57-50.25,0,0,4.69-19.14,15.68-21.24,9.55-1.83,16.14,2.89,20.46,8.43,5.14,6.6,5.65,15.7,1.38,22.9-9.59,16.15-28.92,48.21-34.57,53.69-12.57,12.19-54.61,29.23-54.61,29.23,0,0-2.8-1.56-4.72-4.65Z"/>
        </g>
        <path class="cls-7" d="M593.65,4.77c.14-.28,.56-.58,1.57-.89,0,0-.95-.32-2.06-.08-.57-1.4-1.97-3.78-4.58-3.8,0,0,1.5,.39,2.05,1.89-3.58-2.27-10.22-2.93-26.8,2.59-21.85,7.28-10.93,19.96-7.62,20.98,3.31,1.02,9.41-5.51,14.89-6.4,5.48-.89,8.45,6.75,10.54,7.38,2.09,.63,.9-1.1,3.09-2.84,2.19-1.74,3.45,2.35,3.4,5.23-.05,2.88,4.22,5.6,4.22,5.6l2.5-4.59c2.5-4.59,1.82-21.26-.57-24.26-.21-.26-.42-.53-.64-.8Z"/>
      </g>
      <polygon class="cls-2" points="248.33 586.27 248.33 611 189.8 586.27 248.33 586.27"/>
      <rect class="cls-17" x="555.63" y="375.38" width="193.55" height="254.22"/>
      <rect class="cls-14" x="495.95" y="375.38" width="193.55" height="254.22"/>
      <polygon class="cls-2" points="749.18 375.38 749.18 413.4 689.51 375.38 749.18 375.38"/>
    </g>
  </g>
</svg>