<?xml version="1.0" encoding="UTF-8"?>
<svg xmlns="http://www.w3.org/2000/svg" xmlns:xlink="http://www.w3.org/1999/xlink" viewBox="0 0 303.17 138.01">
  <defs>
    <style>
      .cls-1 {
        fill: #9c6888;
      }

      .cls-1, .cls-2, .cls-3, .cls-4, .cls-5, .cls-6, .cls-7, .cls-8, .cls-9, .cls-10, .cls-11, .cls-12, .cls-13, .cls-14, .cls-15, .cls-16, .cls-17, .cls-18, .cls-19, .cls-20, .cls-21, .cls-22, .cls-23, .cls-24, .cls-25, .cls-26, .cls-27, .cls-28, .cls-29, .cls-30, .cls-31, .cls-32, .cls-33, .cls-34, .cls-35, .cls-36, .cls-37, .cls-38, .cls-39, .cls-40, .cls-41, .cls-42, .cls-43, .cls-44, .cls-45, .cls-46, .cls-47, .cls-48, .cls-49, .cls-50, .cls-51, .cls-52, .cls-53, .cls-54, .cls-55, .cls-56, .cls-57, .cls-58, .cls-59, .cls-60, .cls-61, .cls-62, .cls-63, .cls-64, .cls-65, .cls-66, .cls-67 {
        fill-rule: evenodd;
      }

      .cls-1, .cls-3, .cls-7, .cls-8, .cls-9, .cls-19, .cls-24, .cls-28, .cls-29, .cls-42, .cls-68, .cls-52, .cls-58, .cls-69, .cls-66, .cls-67 {
        opacity: .5;
      }

      .cls-2 {
        fill: url(#_Áåçûìÿííûé_ãðàäèåíò_18-2);
      }

      .cls-3, .cls-9, .cls-10, .cls-12, .cls-19, .cls-20, .cls-24, .cls-28, .cls-29, .cls-30, .cls-32, .cls-40, .cls-42, .cls-68, .cls-47, .cls-52, .cls-55, .cls-58, .cls-69, .cls-66 {
        mix-blend-mode: multiply;
      }

      .cls-3, .cls-70, .cls-12 {
        fill: #c1748d;
      }

      .cls-71 {
        fill: #b29abd;
      }

      .cls-4 {
        opacity: .42;
      }

      .cls-4, .cls-21 {
        fill: #833960;
      }

      .cls-5 {
        fill: url(#_Áåçûìÿííûé_ãðàäèåíò_52-2);
      }

      .cls-6 {
        fill: url(#_Áåçûìÿííûé_ãðàäèåíò_50);
      }

      .cls-7, .cls-16 {
        fill: #791b40;
      }

      .cls-8 {
        fill: #fff;
      }

      .cls-9 {
        fill: url(#_Áåçûìÿííûé_ãðàäèåíò_99-9);
      }

      .cls-10 {
        fill: url(#_Áåçûìÿííûé_ãðàäèåíò_99);
      }

      .cls-10, .cls-32 {
        opacity: .91;
      }

      .cls-72 {
        fill: url(#_Áåçûìÿííûé_ãðàäèåíò_49);
      }

      .cls-11 {
        fill: url(#_Áåçûìÿííûé_ãðàäèåíò_49-4);
      }

      .cls-12, .cls-40 {
        opacity: .3;
      }

      .cls-13 {
        fill: #e3d9d2;
      }

      .cls-14 {
        fill: url(#_Áåçûìÿííûé_ãðàäèåíò_43);
      }

      .cls-14, .cls-67 {
        mix-blend-mode: screen;
      }

      .cls-15 {
        fill: #8c2c4b;
      }

      .cls-16, .cls-49 {
        opacity: .29;
      }

      .cls-17 {
        fill: url(#_Áåçûìÿííûé_ãðàäèåíò_18);
      }

      .cls-18 {
        fill: url(#_Áåçûìÿííûé_ãðàäèåíò_18-5);
      }

      .cls-19 {
        fill: url(#_Áåçûìÿííûé_ãðàäèåíò_99-5);
      }

      .cls-20 {
        fill: url(#_Áåçûìÿííûé_ãðàäèåíò_99-3);
        opacity: .72;
      }

      .cls-22 {
        fill: #a23b58;
      }

      .cls-23 {
        fill: #7c2f4e;
      }

      .cls-73 {
        isolation: isolate;
      }

      .cls-24 {
        fill: url(#_Áåçûìÿííûé_ãðàäèåíò_99-4);
      }

      .cls-25 {
        fill: url(#_Áåçûìÿííûé_ãðàäèåíò_83-4);
      }

      .cls-26 {
        fill: #e2705b;
      }

      .cls-27 {
        fill: url(#_Áåçûìÿííûé_ãðàäèåíò_56-7);
      }

      .cls-28 {
        fill: url(#_Áåçûìÿííûé_ãðàäèåíò_28-3);
      }

      .cls-29, .cls-69 {
        fill: #ff7968;
      }

      .cls-30 {
        fill: url(#_Áåçûìÿííûé_ãðàäèåíò_28-2);
        opacity: .96;
      }

      .cls-31 {
        fill: url(#_Áåçûìÿííûé_ãðàäèåíò_18-3);
      }

      .cls-32 {
        fill: url(#_Áåçûìÿííûé_ãðàäèåíò_99-2);
      }

      .cls-33 {
        fill: url(#_Áåçûìÿííûé_ãðàäèåíò_69);
      }

      .cls-34 {
        fill: #df7668;
      }

      .cls-35 {
        fill: url(#_Áåçûìÿííûé_ãðàäèåíò_56-5);
      }

      .cls-36 {
        fill: url(#_Áåçûìÿííûé_ãðàäèåíò_56-3);
      }

      .cls-37 {
        fill: url(#_Áåçûìÿííûé_ãðàäèåíò_56-6);
      }

      .cls-38 {
        fill: #ffc88b;
      }

      .cls-39 {
        fill: url(#_Áåçûìÿííûé_ãðàäèåíò_49-2);
      }

      .cls-40 {
        fill: url(#_Áåçûìÿííûé_ãðàäèåíò_99-12);
      }

      .cls-41 {
        fill: url(#_Áåçûìÿííûé_ãðàäèåíò_83);
      }

      .cls-42 {
        fill: url(#_Áåçûìÿííûé_ãðàäèåíò_99-6);
      }

      .cls-43 {
        fill: url(#_Áåçûìÿííûé_ãðàäèåíò_83-3);
      }

      .cls-44 {
        fill: #a74561;
      }

      .cls-45 {
        fill: url(#_Áåçûìÿííûé_ãðàäèåíò_81);
      }

      .cls-46 {
        fill: url(#_Áåçûìÿííûé_ãðàäèåíò_93);
      }

      .cls-74 {
        fill: url(#_Áåçûìÿííûé_ãðàäèåíò_49-3);
      }

      .cls-47 {
        fill: url(#_Áåçûìÿííûé_ãðàäèåíò_99-7);
        opacity: .53;
      }

      .cls-48 {
        fill: url(#_Áåçûìÿííûé_ãðàäèåíò_69-2);
      }

      .cls-49 {
        fill: #a15f79;
      }

      .cls-50 {
        fill: url(#_Áåçûìÿííûé_ãðàäèåíò_52);
      }

      .cls-51 {
        fill: url(#_Áåçûìÿííûé_ãðàäèåíò_56-4);
      }

      .cls-52 {
        fill: url(#_Áåçûìÿííûé_ãðàäèåíò_99-10);
      }

      .cls-53 {
        fill: url(#_Áåçûìÿííûé_ãðàäèåíò_168);
      }

      .cls-54 {
        fill: url(#_Áåçûìÿííûé_ãðàäèåíò_56-2);
      }

      .cls-55 {
        fill: url(#_Áåçûìÿííûé_ãðàäèåíò_28);
        opacity: .83;
      }

      .cls-56 {
        fill: #a9a4ff;
      }

      .cls-57 {
        fill: url(#_Áåçûìÿííûé_ãðàäèåíò_83-2);
      }

      .cls-58 {
        fill: url(#_Áåçûìÿííûé_ãðàäèåíò_99-8);
      }

      .cls-59 {
        fill: url(#_Áåçûìÿííûé_ãðàäèåíò_87);
      }

      .cls-60 {
        fill: url(#_Áåçûìÿííûé_ãðàäèåíò_56);
      }

      .cls-61 {
        fill: url(#_Áåçûìÿííûé_ãðàäèåíò_83-6);
      }

      .cls-62 {
        fill: url(#_Áåçûìÿííûé_ãðàäèåíò_18-4);
      }

      .cls-63 {
        fill: #c34c58;
      }

      .cls-64 {
        fill: #9c3b58;
      }

      .cls-65 {
        fill: url(#_Áåçûìÿííûé_ãðàäèåíò_83-5);
      }

      .cls-66 {
        fill: url(#_Áåçûìÿííûé_ãðàäèåíò_99-11);
      }

      .cls-67 {
        fill: url(#_Áåçûìÿííûé_ãðàäèåíò_43-2);
      }
    </style>
    <radialGradient id="_Áåçûìÿííûé_ãðàäèåíò_83" data-name="Áåçûìÿííûé ãðàäèåíò 83" cx="196.27" cy="8.53" fx="196.27" fy="8.53" r="56.87" gradientUnits="userSpaceOnUse">
      <stop offset=".02" stop-color="#ffa874"/>
      <stop offset="1" stop-color="#f49372"/>
    </radialGradient>
    <radialGradient id="_Áåçûìÿííûé_ãðàäèåíò_18" data-name="Áåçûìÿííûé ãðàäèåíò 18" cx="146.78" cy="5.83" fx="146.78" fy="5.83" r="54.8" gradientUnits="userSpaceOnUse">
      <stop offset=".02" stop-color="#d4634d"/>
      <stop offset="1" stop-color="#a94d61"/>
    </radialGradient>
    <linearGradient id="_Áåçûìÿííûé_ãðàäèåíò_28" data-name="Áåçûìÿííûé ãðàäèåíò 28" x1="146.41" y1="53.64" x2="146.41" y2=".66" gradientUnits="userSpaceOnUse">
      <stop offset="0" stop-color="#fff"/>
      <stop offset="1" stop-color="#d3b8d6"/>
    </linearGradient>
    <linearGradient id="_Áåçûìÿííûé_ãðàäèåíò_28-2" data-name="Áåçûìÿííûé ãðàäèåíò 28" x1="147.68" x2="147.68" y2="2.86" xlink:href="#_Áåçûìÿííûé_ãðàäèåíò_28"/>
    <linearGradient id="_Áåçûìÿííûé_ãðàäèåíò_28-3" data-name="Áåçûìÿííûé ãðàäèåíò 28" x1="172.84" y1="90.69" x2="238.98" y2="90.69" xlink:href="#_Áåçûìÿííûé_ãðàäèåíò_28"/>
    <linearGradient id="_Áåçûìÿííûé_ãðàäèåíò_99" data-name="Áåçûìÿííûé ãðàäèåíò 99" x1="151.02" y1="102.48" x2="151.02" y2="80.75" gradientUnits="userSpaceOnUse">
      <stop offset="0" stop-color="#d3b8d6"/>
      <stop offset="1" stop-color="#fff"/>
    </linearGradient>
    <linearGradient id="_Áåçûìÿííûé_ãðàäèåíò_99-2" data-name="Áåçûìÿííûé ãðàäèåíò 99" x1="159.74" x2="159.74" y2="80.75" xlink:href="#_Áåçûìÿííûé_ãðàäèåíò_99"/>
    <linearGradient id="_Áåçûìÿííûé_ãðàäèåíò_99-3" data-name="Áåçûìÿííûé ãðàäèåíò 99" x1="163.48" y1="8.17" x2="201.35" y2="8.17" xlink:href="#_Áåçûìÿííûé_ãðàäèåíò_99"/>
    <radialGradient id="_Áåçûìÿííûé_ãðàäèåíò_56" data-name="Áåçûìÿííûé ãðàäèåíò 56" cx="176.86" cy=".26" fx="176.86" fy=".26" r="16.84" gradientUnits="userSpaceOnUse">
      <stop offset="0" stop-color="#ffcf84"/>
      <stop offset=".98" stop-color="#ffb88b"/>
    </radialGradient>
    <linearGradient id="_Áåçûìÿííûé_ãðàäèåíò_99-4" data-name="Áåçûìÿííûé ãðàäèåíò 99" x1="165.03" y1="3.9" x2="200.97" y2="3.9" xlink:href="#_Áåçûìÿííûé_ãðàäèåíò_99"/>
    <linearGradient id="_Áåçûìÿííûé_ãðàäèåíò_99-5" data-name="Áåçûìÿííûé ãðàäèåíò 99" x1="165.03" y1="8.1" x2="192.98" y2="8.1" xlink:href="#_Áåçûìÿííûé_ãðàäèåíò_99"/>
    <linearGradient id="_Áåçûìÿííûé_ãðàäèåíò_99-6" data-name="Áåçûìÿííûé ãðàäèåíò 99" x1="215.98" y1="97.65" x2="215.98" y2="78.99" xlink:href="#_Áåçûìÿííûé_ãðàäèåíò_99"/>
    <linearGradient id="_Áåçûìÿííûé_ãðàäèåíò_43" data-name="Áåçûìÿííûé ãðàäèåíò 43" x1="168.46" y1="38.2" x2="217.9" y2="38.2" gradientUnits="userSpaceOnUse">
      <stop offset="0" stop-color="#000"/>
      <stop offset="1" stop-color="#9c4033"/>
    </linearGradient>
    <linearGradient id="_Áåçûìÿííûé_ãðàäèåíò_43-2" data-name="Áåçûìÿííûé ãðàäèåíò 43" x1="192.98" y1="84.22" x2="238.98" y2="84.22" xlink:href="#_Áåçûìÿííûé_ãðàäèåíò_43"/>
    <linearGradient id="_Áåçûìÿííûé_ãðàäèåíò_99-7" data-name="Áåçûìÿííûé ãðàäèåíò 99" x1="140.47" y1="20.93" x2="155.98" y2="20.93" xlink:href="#_Áåçûìÿííûé_ãðàäèåíò_99"/>
    <linearGradient id="_Áåçûìÿííûé_ãðàäèåíò_49" data-name="Áåçûìÿííûé ãðàäèåíò 49" x1="202.33" y1="79.47" x2="202.33" y2="46.06" gradientUnits="userSpaceOnUse">
      <stop offset=".03" stop-color="#f7e8e8"/>
      <stop offset="1" stop-color="#fff2e3"/>
    </linearGradient>
    <radialGradient id="_Áåçûìÿííûé_ãðàäèåíò_83-2" data-name="Áåçûìÿííûé ãðàäèåíò 83" cx="80.36" cy="67.08" fx="80.36" fy="67.08" r="42.72" xlink:href="#_Áåçûìÿííûé_ãðàäèåíò_83"/>
    <linearGradient id="_Áåçûìÿííûé_ãðàäèåíò_50" data-name="Áåçûìÿííûé ãðàäèåíò 50" x1="26.33" y1="138.01" x2="26.33" y2="65.74" gradientUnits="userSpaceOnUse">
      <stop offset=".02" stop-color="#d4634d"/>
      <stop offset="1" stop-color="#a94d61"/>
    </linearGradient>
    <radialGradient id="_Áåçûìÿííûé_ãðàäèåíò_56-2" data-name="Áåçûìÿííûé ãðàäèåíò 56" cx="57.6" cy="61.03" fx="57.6" fy="61.03" r="30.26" xlink:href="#_Áåçûìÿííûé_ãðàäèåíò_56"/>
    <radialGradient id="_Áåçûìÿííûé_ãðàäèåíò_87" data-name="Áåçûìÿííûé ãðàäèåíò 87" cx="56.95" cy="61.53" fx="56.95" fy="61.53" r="28.46" gradientUnits="userSpaceOnUse">
      <stop offset=".02" stop-color="#bd4d4d"/>
      <stop offset="1" stop-color="#9f3e54"/>
    </radialGradient>
    <radialGradient id="_Áåçûìÿííûé_ãðàäèåíò_18-2" data-name="Áåçûìÿííûé ãðàäèåíò 18" cx="38.47" cy="54.1" fx="38.47" fy="54.1" r="10.69" xlink:href="#_Áåçûìÿííûé_ãðàäèåíò_18"/>
    <radialGradient id="_Áåçûìÿííûé_ãðàäèåíò_56-3" data-name="Áåçûìÿííûé ãðàäèåíò 56" cx="70.15" cy="38.77" fx="70.15" fy="38.77" r="28.83" xlink:href="#_Áåçûìÿííûé_ãðàäèåíò_56"/>
    <radialGradient id="_Áåçûìÿííûé_ãðàäèåíò_18-3" data-name="Áåçûìÿííûé ãðàäèåíò 18" cx="39.37" cy="41.17" fx="39.37" fy="41.17" r="3.12" xlink:href="#_Áåçûìÿííûé_ãðàäèåíò_18"/>
    <radialGradient id="_Áåçûìÿííûé_ãðàäèåíò_18-4" data-name="Áåçûìÿííûé ãðàäèåíò 18" cx="8.18" cy="38" fx="8.18" fy="38" r="16.08" xlink:href="#_Áåçûìÿííûé_ãðàäèåíò_18"/>
    <radialGradient id="_Áåçûìÿííûé_ãðàäèåíò_56-4" data-name="Áåçûìÿííûé ãðàäèåíò 56" cx="47.62" cy="25.98" fx="47.62" fy="25.98" r="18.96" xlink:href="#_Áåçûìÿííûé_ãðàäèåíò_56"/>
    <radialGradient id="_Áåçûìÿííûé_ãðàäèåíò_56-5" data-name="Áåçûìÿííûé ãðàäèåíò 56" cx="47.43" cy="34.44" fx="47.43" fy="34.44" r="12.09" xlink:href="#_Áåçûìÿííûé_ãðàäèåíò_56"/>
    <linearGradient id="_Áåçûìÿííûé_ãðàäèåíò_99-8" data-name="Áåçûìÿííûé ãðàäèåíò 99" x1="52.66" y1="128.38" x2="104.86" y2="128.38" xlink:href="#_Áåçûìÿííûé_ãðàäèåíò_99"/>
    <linearGradient id="_Áåçûìÿííûé_ãðàäèåíò_99-9" data-name="Áåçûìÿííûé ãðàäèåíò 99" x1="10.33" y1="133.12" x2="52.66" y2="133.12" xlink:href="#_Áåçûìÿííûé_ãðàäèåíò_99"/>
    <linearGradient id="_Áåçûìÿííûé_ãðàäèåíò_99-10" data-name="Áåçûìÿííûé ãðàäèåíò 99" x1="2.89" y1="72.3" x2="47.3" y2="72.3" xlink:href="#_Áåçûìÿííûé_ãðàäèåíò_99"/>
    <linearGradient id="_Áåçûìÿííûé_ãðàäèåíò_49-2" data-name="Áåçûìÿííûé ãðàäèåíò 49" x1="85.03" y1="125.39" x2="85.03" y2="108.97" xlink:href="#_Áåçûìÿííûé_ãðàäèåíò_49"/>
    <linearGradient id="_Áåçûìÿííûé_ãðàäèåíò_49-3" data-name="Áåçûìÿííûé ãðàäèåíò 49" x1="81.65" y1="105.23" x2="81.65" y2="73.15" xlink:href="#_Áåçûìÿííûé_ãðàäèåíò_49"/>
    <radialGradient id="_Áåçûìÿííûé_ãðàäèåíò_83-3" data-name="Áåçûìÿííûé ãðàäèåíò 83" cx="246.83" cy="111.06" fx="246.83" fy="111.06" r="29.41" xlink:href="#_Áåçûìÿííûé_ãðàäèåíò_83"/>
    <radialGradient id="_Áåçûìÿííûé_ãðàäèåíò_83-4" data-name="Áåçûìÿííûé ãðàäèåíò 83" cx="246.24" cy="86.54" fx="246.24" fy="86.54" r="28.99" xlink:href="#_Áåçûìÿííûé_ãðàäèåíò_83"/>
    <radialGradient id="_Áåçûìÿííûé_ãðàäèåíò_18-5" data-name="Áåçûìÿííûé ãðàäèåíò 18" cx="169.75" cy="86.68" fx="169.75" fy="86.68" r="25.43" xlink:href="#_Áåçûìÿííûé_ãðàäèåíò_18"/>
    <radialGradient id="_Áåçûìÿííûé_ãðàäèåíò_83-5" data-name="Áåçûìÿííûé ãðàäèåíò 83" cx="249.1" cy="108.8" fx="249.1" fy="108.8" r="30.2" xlink:href="#_Áåçûìÿííûé_ãðàäèåíò_83"/>
    <radialGradient id="_Áåçûìÿííûé_ãðàäèåíò_56-6" data-name="Áåçûìÿííûé ãðàäèåíò 56" cx="215.71" cy="86.18" fx="215.71" fy="86.18" r="48.61" xlink:href="#_Áåçûìÿííûé_ãðàäèåíò_56"/>
    <radialGradient id="_Áåçûìÿííûé_ãðàäèåíò_56-7" data-name="Áåçûìÿííûé ãðàäèåíò 56" cx="249.1" cy="108.56" fx="249.1" fy="108.56" r="29.92" xlink:href="#_Áåçûìÿííûé_ãðàäèåíò_56"/>
    <linearGradient id="_Áåçûìÿííûé_ãðàäèåíò_99-11" data-name="Áåçûìÿííûé ãðàäèåíò 99" x1="203.56" y1="134.58" x2="286.05" y2="134.58" xlink:href="#_Áåçûìÿííûé_ãðàäèåíò_99"/>
    <radialGradient id="_Áåçûìÿííûé_ãðàäèåíò_83-6" data-name="Áåçûìÿííûé ãðàäèåíò 83" cx="248.79" cy="116.41" fx="248.79" fy="116.41" r="38.55" xlink:href="#_Áåçûìÿííûé_ãðàäèåíò_83"/>
    <linearGradient id="_Áåçûìÿííûé_ãðàäèåíò_93" data-name="Áåçûìÿííûé ãðàäèåíò 93" x1="234.79" y1="136.42" x2="234.79" y2="84.21" gradientUnits="userSpaceOnUse">
      <stop offset=".03" stop-color="#dcc3cc"/>
      <stop offset="1" stop-color="#f1e8f0"/>
    </linearGradient>
    <linearGradient id="_Áåçûìÿííûé_ãðàäèåíò_168" data-name="Áåçûìÿííûé ãðàäèåíò 168" x1="103.01" y1="135.16" x2="145.75" y2="135.16" gradientUnits="userSpaceOnUse">
      <stop offset=".03" stop-color="#ecc5c4"/>
      <stop offset="1" stop-color="#fff2e3"/>
    </linearGradient>
    <radialGradient id="_Áåçûìÿííûé_ãðàäèåíò_81" data-name="Áåçûìÿííûé ãðàäèåíò 81" cx="138.75" cy="97.67" fx="138.75" fy="97.67" r="40.47" gradientUnits="userSpaceOnUse">
      <stop offset=".02" stop-color="#ffa874"/>
      <stop offset=".82" stop-color="#ec8672"/>
      <stop offset="1" stop-color="#f38272"/>
    </radialGradient>
    <linearGradient id="_Áåçûìÿííûé_ãðàäèåíò_69" data-name="Áåçûìÿííûé ãðàäèåíò 69" x1="96.09" y1="68.44" x2="152.72" y2="68.44" gradientUnits="userSpaceOnUse">
      <stop offset=".03" stop-color="#cfacb8"/>
      <stop offset="1" stop-color="#e5d4e3"/>
    </linearGradient>
    <linearGradient id="_Áåçûìÿííûé_ãðàäèåíò_52" data-name="Áåçûìÿííûé ãðàäèåíò 52" x1="96.09" y1="65.42" x2="152.72" y2="65.42" gradientUnits="userSpaceOnUse">
      <stop offset=".03" stop-color="#f6e3e3"/>
      <stop offset="1" stop-color="#fff2e3"/>
    </linearGradient>
    <linearGradient id="_Áåçûìÿííûé_ãðàäèåíò_69-2" data-name="Áåçûìÿííûé ãðàäèåíò 69" x1="97.41" y1="60.95" x2="150.74" y2="60.95" xlink:href="#_Áåçûìÿííûé_ãðàäèåíò_69"/>
    <linearGradient id="_Áåçûìÿííûé_ãðàäèåíò_52-2" data-name="Áåçûìÿííûé ãðàäèåíò 52" x1="97.41" y1="56.68" x2="150.74" y2="56.68" xlink:href="#_Áåçûìÿííûé_ãðàäèåíò_52"/>
    <linearGradient id="_Áåçûìÿííûé_ãðàäèåíò_49-4" data-name="Áåçûìÿííûé ãðàäèåíò 49" x1="110.71" y1="119.56" x2="110.71" y2="91.48" gradientTransform="translate(22.68 -5.37) rotate(.85)" xlink:href="#_Áåçûìÿííûé_ãðàäèåíò_49"/>
    <linearGradient id="_Áåçûìÿííûé_ãðàäèåíò_99-12" data-name="Áåçûìÿííûé ãðàäèåíò 99" x1="117.32" y1="135.61" x2="117.32" y2="80.05" xlink:href="#_Áåçûìÿííûé_ãðàäèåíò_99"/>
  </defs>
  <g class="cls-73">
    <g id="Layer_2" data-name="Layer 2">
      <g id="Layer_1-2" data-name="Layer 1">
        <g>
          <g>
            <path class="cls-15" d="M130.31,40.85l45.17,.99L183.57,2.86s-35.38-4.62-36.93-1.82c-1.55,2.81-19.74,16.62-21.26,21.19s4.93,18.61,4.93,18.61Z"/>
            <path class="cls-41" d="M169.43,102.48s.56-43.12,0-48.58c-.27-2.59-3.95-14.17-7.76-25.65-4.23-12.76-8.61-25.39-8.61-25.39h54.06s21.67,42.45,23.65,48.55c1.98,6.1,8.21,40.75,8.21,40.75l-69.55,10.31Z"/>
            <path class="cls-17" d="M169.43,102.48l-36.83-.76s1.5-41.19,2.37-49.05,12.84-48.36,12.84-48.36l-2.72-.46s-18.33,16.89-18.66,19.35,2.31,13.68,3.3,14.01c.99,.33,11.17-23.23,11.17-23.23l2.95,1.27s-11.73,24.77-13.54,25.6c-1.82,.83-7.02-14.53-7.24-17.62-.22-3.08,23.18-23.23,23.18-23.23l6.81,2.86s14.62,38.77,16.37,51.04c1.75,12.27,0,48.58,0,48.58Z"/>
            <path class="cls-55" d="M137.73,53.64l.51-5.28s6.11-29.4,11.67-45.5l-3.27-1.82s-20.38,18.83-21.26,21.19c-.88,2.37,4.4,16.9,4.4,16.9,0,0-5.95-13.76-5.39-16.84,.55-3.08,22.25-21.63,22.25-21.63,0,0,5.44,2.42,5.83,3,.39,.58,15.99,49.98,15.99,49.98h-30.73Z"/>
            <polygon class="cls-30" points="152.47 3.66 157.63 41.03 137.73 53.64 149.91 2.86 152.47 3.66"/>
            <path class="cls-28" d="M238.98,92.17s-37.99-11.41-45.99-13.17c-6.61-.63-20.14,23.4-20.14,23.4l66.14-10.23Z"/>
            <path class="cls-10" d="M169.43,102.48s-17.18-22.12-19.39-21.73c-2.2,.39-17.45,20.97-17.45,20.97l36.83,.76Z"/>
            <path class="cls-32" d="M155.5,102.19l-5.45-21.44s6.57,3.76,19.39,21.73l-13.94-.29Z"/>
            <path class="cls-20" d="M163.48,2.86s31.15,11.58,34.45,10.54c3.3-1.04,3.42-10.54,3.42-10.54h-37.87Z"/>
            <path class="cls-60" d="M146.25,0l52.67,.66s6.05,.99,8.2,2.2l-24.05,1.65-30.01-1.65-6.81-2.86Z"/>
            <polygon class="cls-24" points="165.03 3.52 200.97 3.28 183.57 4.51 165.03 3.52"/>
            <path class="cls-19" d="M165.03,3.52l7.97,.5s12.72,5.94,19.98,8.67c0,0-14.63-4.54-27.96-9.16Z"/>
            <path class="cls-42" d="M201.2,97.65s-1.83-8.22-8.22-18.66c0,0,19.35,3.97,45.99,13.17l-37.78,5.49Z"/>
            <polygon class="cls-14" points="172.84 40.68 189.49 45.96 217.9 44.39 168.46 30.43 172.84 40.68"/>
            <polygon class="cls-67" points="192.98 76.28 213.53 77.69 238.98 92.17 192.98 76.28"/>
            <g class="cls-68">
              <path class="cls-13" d="M182.04,35.96c.11,.57,.4,.88,1.07,.75,.43-.09,.69-.46,.61-.92-.08-.46-.55-.85-1.02-.78-.49,.06-.74,.69-.66,.95Z"/>
              <path class="cls-13" d="M198.32,42.46c.06-.64,.73-1,1.29-1.06,.48-.05,.91,.08,1.32,.34,.4,.26,.72,.71,.52,1.19-.07,.16-.26,.51-.4,.62-.21,.17-.63,.06-.87,.02-.43-.07-.59-.22-.89-.5-.27-.25-.99-.05-.97-.62Z"/>
              <path class="cls-13" d="M182.46,33.48c-.38,.15-.91,.73-.36,.97,.3,.13,1.21-.04,1.46-.23,1.01-.78-.59-1.45-1.25-.63l.16-.12Z"/>
              <path class="cls-13" d="M182.95,38.45c.37-.65,1.04,.09,.6,.46-.3,.25-.64,0-.68-.32l.08-.14Z"/>
              <path class="cls-13" d="M183.95,35.99c.25-.43,.7,.06,.4,.31-.2,.17-.42,0-.45-.21l.05-.09Z"/>
              <path class="cls-13" d="M173.34,31.25c-.85,1.14,.7,2.47,1.32,1.1,.33-.74-.31-1.63-1.02-1.1h-.29Z"/>
              <path class="cls-13" d="M175.9,34.54c-.11-.22-.22-.16-.34-.02-.2,.23-.07,.28,.07,.46,.31,.4,.59,.38,1.02,.11,.35-.22,.93-.83,.3-1.14-.27-.13-.83,.06-.99,.26l-.07,.33Z"/>
              <path class="cls-13" d="M174.51,34.98c-.06-.56,.77,.16,.41,.47-.31,.26-.51-.28-.41-.5v.04Z"/>
              <path class="cls-13" d="M176.2,33.04c.23,.37,.71-.15,.54-.39-.2-.29-.5,.18-.58,.32l.04,.07Z"/>
              <path class="cls-13" d="M167.27,39.7c.14-.46,.71-.03,.78,.26,.1,.42-.26,.96-.7,1-.68,.06-.86-.99-.26-1.23l.18-.04Z"/>
              <path class="cls-13" d="M173.6,40.54c-.4,.59,.96,.71,.95,.05,0-.53-.8-.53-.95-.08v.04Z"/>
              <path class="cls-13" d="M167.93,29.05c-.28-.36,.09-.9,.52-.84,.55,.08,.57,.85,.38,1.22-.41,.83-1.55,.27-1.08-.53l.18,.15Z"/>
              <path class="cls-13" d="M176.05,27.26c-.49,1.15,1.4,.75,1.5-.18,.12-1.12-1.36-.83-1.5,.18Z"/>
              <path class="cls-13" d="M201.35,40.91c-.54,.73,.87,1.09,.98,.17-.28-.36-.8-.44-1.13-.09l.15-.08Z"/>
              <path class="cls-13" d="M194.05,49.73c1.17-1.5,3.45-2.09,5.06-.99,.42,.29,1.03,.81,.52,1.28-.44,.41-2.54,0-3.13,0-.85,0-1.72,.03-2.45-.3Z"/>
              <path class="cls-13" d="M189.95,48.97c.1,.67,1.28,.44,1.11-.12-.12-.37-.76-.46-.88-.11l-.23,.23Z"/>
              <path class="cls-13" d="M159.82,16.41c-.22,1.04,1.11,.83,1.1,0,0-.69-.91-.94-1.1-.21v.22Z"/>
              <path class="cls-13" d="M174.66,44.82c.11-.17,.25-.28,.43-.33,.68,.9-.84,1.51-.43,.44v-.11Z"/>
              <path class="cls-13" d="M195.79,15.95c-1.06,2.7,3.39,.82,4.03-.43,.67-1.29-1.03-1.51-1.99-1.33-1.13,.2-2.01,1.02-2.05,1.76Z"/>
              <path class="cls-13" d="M199.96,16.6c.11-.6,1.23-1.12,1.09-.21-.08,.51-.8,.84-1,.3l-.09-.09Z"/>
              <path class="cls-13" d="M165.38,8.59c-1.11,1.56,3.55,1.57,3.77,.02,.22-1.59-3.35-1.05-3.86-.12l.1,.1Z"/>
              <path class="cls-13" d="M168.66,6.76c.1-.97,1.43-.54,1.15,.04-.23,.48-.91,.13-1.15-.14v.1Z"/>
              <path class="cls-13" d="M172.22,7.91c.44,0,.85-.11,1.24-.3-.11-.87-1.19-.67-1.44,0,.04,.14,.13,.11,.2,.19v.1Z"/>
              <path class="cls-13" d="M159.99,9.74c0-.36,.09-.55,.46-.56,.45,.37,.34,1.1-.27,.95l-.19-.39Z"/>
              <path class="cls-13" d="M192.02,41.24c-1.67,1.4,1.92,.99,.3,.2l-.3-.2Z"/>
              <path class="cls-13" d="M184.93,45.01c-.41,.42-.25,1.29,.48,.98,.56-.24,.43-1.22-.25-.9l-.23-.08Z"/>
              <path class="cls-13" d="M188.27,47.3c.13-.46,.72-.47,.69,0-.02,.39-.41,.35-.54,.08l-.15-.08Z"/>
              <path class="cls-13" d="M222.36,71.88c.11,.57,.4,.88,1.07,.75,.43-.09,.69-.46,.61-.92-.08-.46-.55-.85-1.02-.78-.49,.06-.74,.69-.66,.95Z"/>
              <path class="cls-13" d="M193.52,88.78c.06-.64,.73-1,1.29-1.06,.48-.05,.91,.08,1.32,.34,.4,.26,.72,.71,.52,1.19-.07,.16-.26,.51-.4,.62-.21,.17-.63,.06-.87,.02-.43-.07-.59-.22-.89-.5-.27-.25-.99-.05-.97-.62Z"/>
              <path class="cls-13" d="M222.79,69.4c-.38,.15-.91,.73-.36,.97,.3,.13,1.21-.04,1.46-.23,1.01-.78-.59-1.45-1.25-.63l.16-.12Z"/>
              <path class="cls-13" d="M223.28,74.38c.37-.65,1.04,.09,.6,.46-.29,.25-.64,0-.68-.32l.08-.14Z"/>
              <path class="cls-13" d="M224.28,71.91c.25-.43,.7,.06,.4,.31-.2,.17-.42,0-.45-.21l.05-.09Z"/>
              <path class="cls-13" d="M211.76,73.77c-.85,1.14,.7,2.47,1.32,1.1,.33-.74-.31-1.63-1.02-1.1h-.29Z"/>
              <path class="cls-13" d="M214.32,77.06c-.11-.22-.22-.16-.34-.02-.2,.23-.07,.28,.07,.46,.31,.4,.59,.38,1.02,.11,.35-.22,.93-.83,.3-1.14-.27-.13-.83,.06-.99,.26l-.07,.33Z"/>
              <path class="cls-13" d="M212.93,77.5c-.06-.56,.77,.16,.41,.47-.31,.26-.51-.28-.41-.5v.04Z"/>
              <path class="cls-13" d="M214.61,75.56c.23,.37,.71-.15,.54-.39-.2-.29-.5,.18-.58,.32l.04,.07Z"/>
              <path class="cls-13" d="M166.27,91.13c-.4,.59,.96,.71,.95,.05,0-.53-.8-.53-.95-.08v.04Z"/>
              <path class="cls-13" d="M214.46,69.78c-.49,1.15,1.4,.75,1.5-.18,.12-1.12-1.36-.83-1.5,.18Z"/>
              <path class="cls-13" d="M196.56,87.23c-.54,.73,.87,1.09,.98,.17-.28-.36-.8-.44-1.13-.09l.15-.08Z"/>
              <path class="cls-13" d="M189.25,96.05c1.17-1.5,3.45-2.09,5.06-.99,.42,.29,1.03,.81,.52,1.28-.44,.41-2.54,0-3.13,0-.85,0-1.72,.03-2.45-.3Z"/>
              <path class="cls-13" d="M182.62,99.56c.1,.67,1.28,.44,1.11-.12-.12-.37-.76-.46-.88-.11l-.23,.23Z"/>
              <path class="cls-13" d="M167.33,95.41c.11-.17,.25-.28,.43-.33,.68,.9-.84,1.51-.43,.44v-.11Z"/>
              <path class="cls-13" d="M232.73,67.04c-1.67,1.4,1.92,.99,.3,.2l-.3-.2Z"/>
              <path class="cls-13" d="M177.6,95.61c-.41,.42-.25,1.29,.48,.98,.56-.24,.43-1.22-.25-.9l-.23-.08Z"/>
              <path class="cls-13" d="M180.94,97.89c.13-.46,.72-.47,.69,0-.02,.39-.41,.35-.54,.08l-.15-.08Z"/>
              <path class="cls-13" d="M155.68,27.7c.25-.15,.45-.34,.59-.58-.4-.34-.42-.08-.59,.25v.33Z"/>
            </g>
            <path class="cls-34" d="M169.43,102.48h.78s1.83-40.97,.56-47.66c-1.27-6.7-16.41-51.95-16.41-51.95l-8.11-2.86,6.81,2.86s14.48,40.64,16.37,51.04c1.89,10.4,0,48.58,0,48.58Z"/>
            <polygon class="cls-47" points="140.47 38.2 155.98 35.51 152.47 3.66 147.83 11.56 140.47 38.2"/>
            <ellipse class="cls-72" cx="202.33" cy="62.77" rx="13.42" ry="16.71"/>
            <ellipse class="cls-69" cx="203.26" cy="62.77" rx="11.09" ry="13.81"/>
            <g class="cls-68">
              <path class="cls-70" d="M203.26,49.45c5.84,0,10.6,5.97,10.6,13.31s-4.75,13.31-10.6,13.31-10.6-5.97-10.6-13.31,4.75-13.31,10.6-13.31h0Zm0-.5c-6.13,0-11.09,6.18-11.09,13.81s4.97,13.81,11.09,13.81,11.09-6.18,11.09-13.81-4.97-13.81-11.09-13.81h0Z"/>
            </g>
          </g>
          <g>
            <g>
              <path class="cls-22" d="M14.7,36.31L2.89,66.03l59.48-5.08,17.8-30.96c-32.74-11.77-65.48,6.32-65.48,6.32Zm15.78,.32l.83-1.88,33.08-2.49-.56,1.67-33.35,2.7Z"/>
              <path class="cls-57" d="M48.68,70.61l63-7.8s.32,25.95-6.81,63.86l-52.2,11.34-3.99-67.4Z"/>
              <path class="cls-6" d="M48.68,70.61L0,65.74s1.32,30.14,10.33,62.86l42.33,9.4-3.99-67.4Z"/>
              <polygon class="cls-54" points="2.89 66.03 63.17 60.45 111.67 62.8 48.68 70.61 2.89 66.03"/>
              <polygon class="cls-59" points="5.34 65.74 47.43 69.55 107.98 61.86 63.69 61.05 5.34 65.74"/>
              <polygon class="cls-2" points="48.68 70.61 28.14 53.11 28.14 54.57 47.3 70.61 48.68 70.61"/>
              <path class="cls-36" d="M28.14,53.11l13.47-7.13-4.5-5.12s14.68-5.39,32.8-3.66l4.1,3.75,16.25,1.87,21.42,19.98-63,7.8-20.54-17.5Z"/>
              <polygon class="cls-31" points="37.1 40.86 37.1 42.52 40.84 46.38 41.6 45.98 37.1 40.86"/>
              <polygon class="cls-62" points="0 65.74 2.89 66.03 16.27 37.15 14.7 36.31 0 65.74"/>
              <path class="cls-51" d="M16.27,37.15s32.62-18.52,63.9-7.16l-1.36-1.35s-26.58-11.29-64.12,7.67l1.58,.84Z"/>
              <polygon class="cls-35" points="30.84 35.8 62.13 33.45 62.6 32.39 64.39 32.26 63.83 33.93 30.47 36.63 30.84 35.8"/>
              <polygon class="cls-63" points="62.13 33.45 63.83 33.93 64.39 32.26 62.6 32.39 62.13 33.45"/>
              <polygon class="cls-26" points="2.89 66.03 31.31 57.22 47.3 70.61 2.89 66.03"/>
              <path class="cls-58" d="M104.86,126.67s-15.78-9.07-26.83-7.78c-11.05,1.3-25.38,19.12-25.38,19.12l52.2-11.34Z"/>
              <path class="cls-9" d="M52.66,138.01s-22.79-9.2-27.56-9.62-14.76,.23-14.76,.23l42.33,9.4Z"/>
              <path class="cls-52" d="M2.89,66.03s15.17,10.73,21.32,12.35,23.09-7.78,23.09-7.78L2.89,66.03Z"/>
              <polygon class="cls-16" points="2.89 66.03 35.17 60.45 31.31 57.22 2.89 66.03"/>
              <path class="cls-34" d="M48.68,70.61l3.99,67.4s-4.31-25.43-3.99-67.4Z"/>
              <path class="cls-38" d="M53.59,70s40.23-2.26,58.08-7.2l-58.08,7.2Z"/>
              <g class="cls-68">
                <path class="cls-13" d="M62.23,80.24c.1,.54,.37,.83,1,.7,.41-.08,.64-.43,.57-.86-.07-.43-.52-.79-.96-.73-.46,.06-.69,.65-.62,.89Z"/>
                <path class="cls-13" d="M77.46,86.31c.05-.6,.68-.93,1.21-.99,.45-.05,.85,.08,1.24,.32,.38,.24,.68,.66,.49,1.12-.06,.15-.25,.48-.37,.58-.2,.16-.59,.05-.81,.02-.41-.07-.55-.21-.84-.47-.25-.24-.93-.05-.91-.58Z"/>
                <path class="cls-13" d="M62.63,77.91c-.35,.14-.85,.69-.34,.91,.28,.12,1.13-.04,1.37-.22,.95-.73-.55-1.35-1.17-.59l.15-.11Z"/>
                <path class="cls-13" d="M63.08,82.57c.35-.61,.98,.09,.56,.43-.28,.23-.6,0-.64-.3l.07-.13Z"/>
                <path class="cls-13" d="M64.02,80.26c.23-.41,.65,.06,.38,.29-.18,.15-.4,0-.42-.2l.05-.09Z"/>
                <path class="cls-13" d="M63.12,113.96c-.79,1.07,.66,2.31,1.23,1.03,.31-.69-.29-1.53-.96-1.03h-.27Z"/>
                <path class="cls-13" d="M56.49,78.91c-.1-.21-.2-.15-.32-.02-.19,.22-.06,.27,.07,.43,.29,.37,.55,.36,.96,.1,.32-.21,.87-.78,.28-1.07-.25-.12-.78,.06-.92,.24l-.07,.31Z"/>
                <path class="cls-13" d="M55.19,79.32c-.06-.53,.72,.15,.38,.44-.29,.24-.47-.26-.38-.47v.03Z"/>
                <path class="cls-13" d="M56.76,77.5c.22,.35,.66-.14,.51-.37-.19-.27-.47,.17-.54,.3l.03,.07Z"/>
                <path class="cls-13" d="M57.44,121.86c.13-.43,.66-.03,.73,.25,.09,.39-.25,.9-.66,.93-.63,.06-.8-.92-.24-1.15l.17-.03Z"/>
                <path class="cls-13" d="M63.36,122.65c-.38,.55,.9,.66,.89,.04,0-.49-.75-.49-.89-.08v.03Z"/>
                <path class="cls-13" d="M58.05,111.9c-.26-.33,.09-.84,.49-.78,.52,.08,.53,.79,.35,1.15-.38,.78-1.45,.25-1.01-.5l.17,.14Z"/>
                <path class="cls-13" d="M56.63,72.1c-.46,1.08,1.31,.7,1.4-.17,.12-1.05-1.27-.77-1.4,.17Z"/>
                <path class="cls-13" d="M80.3,84.86c-.5,.68,.81,1.02,.92,.16-.26-.33-.74-.41-1.06-.09l.14-.07Z"/>
                <path class="cls-13" d="M73.47,93.12c1.1-1.41,3.22-1.96,4.73-.92,.4,.27,.96,.76,.49,1.2-.41,.38-2.38,0-2.93,0-.79,0-1.61,.03-2.29-.28Z"/>
                <path class="cls-13" d="M69.63,92.4c.09,.63,1.2,.41,1.04-.11-.11-.34-.71-.43-.82-.1l-.21,.21Z"/>
                <path class="cls-13" d="M46.8,61.5c-.21,.98,1.03,.78,1.03,0,0-.65-.85-.88-1.03-.2v.21Z"/>
                <path class="cls-13" d="M55.33,88.52c.1-.16,.24-.26,.41-.31,.64,.85-.78,1.42-.41,.41v-.1Z"/>
                <path class="cls-13" d="M48.66,41.67c-.99,2.52,3.17,.77,3.77-.4,.63-1.21-.96-1.41-1.86-1.25-1.06,.19-1.88,.95-1.92,1.65Z"/>
                <path class="cls-13" d="M52.55,42.28c.1-.56,1.15-1.05,1.02-.19-.07,.48-.75,.79-.94,.28l-.09-.09Z"/>
                <path class="cls-13" d="M86.75,63.37c-1.04,1.46,3.32,1.47,3.52,.02,.21-1.49-3.13-.98-3.61-.11l.09,.09Z"/>
                <path class="cls-13" d="M89.81,61.66c.09-.9,1.34-.51,1.07,.04-.22,.45-.85,.12-1.07-.13v.09Z"/>
                <path class="cls-13" d="M93.14,62.74c.41,0,.8-.1,1.16-.28-.1-.81-1.11-.63-1.35,0,.04,.13,.12,.11,.19,.18v.09Z"/>
                <path class="cls-13" d="M72.6,49.35c0-.34,.09-.51,.43-.53,.42,.35,.32,1.03-.25,.89l-.18-.36Z"/>
                <path class="cls-13" d="M71.57,85.17c-1.56,1.31,1.8,.92,.28,.19l-.28-.19Z"/>
                <path class="cls-13" d="M64.93,88.71c-.38,.39-.24,1.21,.45,.91,.52-.22,.41-1.14-.23-.84l-.21-.07Z"/>
                <path class="cls-13" d="M68.06,90.84c.13-.43,.67-.44,.65,0-.02,.37-.39,.33-.5,.07l-.14-.07Z"/>
                <path class="cls-13" d="M99.95,113.84c.1,.54,.37,.83,1,.7,.41-.08,.64-.43,.57-.86-.07-.43-.52-.79-.96-.73-.46,.06-.69,.65-.62,.89Z"/>
                <path class="cls-13" d="M75.29,49.44c.05-.6,.68-.93,1.21-.99,.45-.05,.85,.08,1.24,.32,.38,.24,.68,.66,.49,1.12-.06,.15-.25,.48-.37,.58-.2,.16-.59,.05-.81,.02-.41-.07-.55-.21-.84-.47-.25-.24-.93-.05-.91-.58Z"/>
                <path class="cls-13" d="M100.35,111.52c-.35,.14-.85,.69-.34,.91,.28,.12,1.13-.04,1.37-.22,.95-.73-.55-1.35-1.17-.59l.15-.11Z"/>
                <path class="cls-13" d="M100.81,116.17c.35-.61,.98,.09,.56,.43-.28,.23-.6,0-.64-.3l.07-.13Z"/>
                <path class="cls-13" d="M101.75,113.87c.23-.41,.65,.06,.38,.29-.18,.15-.4,0-.42-.2l.05-.09Z"/>
                <path class="cls-13" d="M90.03,115.6c-.79,1.07,.66,2.31,1.23,1.03,.31-.69-.29-1.53-.96-1.03h-.27Z"/>
                <path class="cls-13" d="M92.42,118.68c-.1-.21-.2-.15-.32-.02-.19,.22-.06,.27,.07,.43,.29,.37,.55,.36,.96,.1,.32-.21,.87-.78,.28-1.07-.25-.12-.78,.06-.92,.24l-.07,.31Z"/>
                <path class="cls-13" d="M91.12,119.09c-.06-.53,.72,.15,.38,.44-.29,.24-.47-.26-.38-.47v.03Z"/>
                <path class="cls-13" d="M92.7,117.28c.22,.35,.66-.14,.51-.37-.19-.27-.47,.17-.54,.3l.03,.07Z"/>
                <path class="cls-13" d="M49.8,51.63c-.38,.55,.9,.66,.89,.04,0-.49-.75-.49-.89-.08v.03Z"/>
                <path class="cls-13" d="M92.56,111.87c-.46,1.08,1.31,.7,1.4-.17,.12-1.05-1.27-.77-1.4,.17Z"/>
                <path class="cls-13" d="M78.13,47.99c-.5,.68,.81,1.02,.92,.16-.26-.33-.74-.41-1.06-.09l.14-.07Z"/>
                <path class="cls-13" d="M71.3,56.24c1.1-1.41,3.22-1.96,4.73-.92,.4,.27,.96,.76,.49,1.2-.41,.38-2.38,0-2.93,0-.79,0-1.61,.03-2.29-.28Z"/>
                <path class="cls-13" d="M65.09,59.52c.09,.63,1.2,.41,1.04-.11-.11-.34-.71-.43-.82-.1l-.21,.21Z"/>
                <path class="cls-13" d="M50.79,55.64c.1-.16,.24-.26,.41-.31,.64,.85-.78,1.42-.41,.41v-.1Z"/>
                <path class="cls-13" d="M104.37,106.92c-1.56,1.31,1.8,.92,.28,.19l-.28-.19Z"/>
                <path class="cls-13" d="M60.4,55.82c-.38,.39-.24,1.21,.45,.91,.52-.22,.41-1.14-.23-.84l-.21-.07Z"/>
                <path class="cls-13" d="M63.53,57.96c.13-.43,.67-.44,.65,0-.02,.37-.39,.33-.5,.07l-.14-.07Z"/>
                <path class="cls-13" d="M37.57,72.51c.23-.14,.42-.32,.56-.54-.37-.32-.39-.07-.56,.23v.31Z"/>
              </g>
              <g>
                <polygon class="cls-39" points="76 125.39 74.66 111.19 95.4 108.97 94.41 121.83 76 125.39"/>
                <polygon class="cls-3" points="77.66 113.38 93.26 111.37 93.1 113.63 77.99 115.71 77.66 113.38"/>
                <polygon class="cls-3" points="79.62 120.6 91.34 119.21 91.34 119.74 79.72 121.34 79.62 120.6"/>
                <polygon class="cls-12" points="82.29 115.9 82.64 119.46 89.18 118.75 89.51 115 82.29 115.9"/>
              </g>
              <g>
                <ellipse class="cls-74" cx="81.65" cy="89.19" rx="12.88" ry="16.04"/>
                <ellipse class="cls-69" cx="82.54" cy="89.19" rx="10.65" ry="13.25"/>
                <g class="cls-68">
                  <path class="cls-70" d="M82.54,76.39c5.62,0,10.2,5.74,10.2,12.8s-4.58,12.8-10.2,12.8-10.2-5.74-10.2-12.8,4.58-12.8,10.2-12.8h0Zm0-.45c-5.88,0-10.65,5.93-10.65,13.25s4.77,13.25,10.65,13.25,10.65-5.93,10.65-13.25-4.77-13.25-10.65-13.25h0Z"/>
                </g>
              </g>
            </g>
            <g>
              <polygon class="cls-43" points="203.56 138.01 200.22 114.15 292.9 109.43 286.05 132.2 203.56 138.01"/>
              <polygon class="cls-25" points="291.73 108.26 284.45 85.32 205.88 84.95 200.22 112.99 291.73 108.26"/>
              <polygon class="cls-18" points="205.88 84.95 146.97 87.41 133.21 115.39 200.22 112.99 205.88 84.95"/>
              <polygon class="cls-64" points="203.56 138.01 138.98 134.69 132.56 115.71 200.22 114.15 203.56 138.01"/>
              <polygon class="cls-65" points="291.73 108.26 303.17 109.26 303.17 110.92 194.4 117.74 194.4 113.58 200.22 112.99 291.73 108.26"/>
              <polygon class="cls-44" points="194.4 113.58 124.06 114.9 124.79 117.38 194.4 117.74 194.4 113.58"/>
              <polygon class="cls-26" points="200.57 111.53 135.02 112.26 124.06 114.9 194.4 113.58 200.57 111.53"/>
              <polygon class="cls-7" points="291.98 112.5 200.67 117.4 201.48 123.17 290.8 116.41 291.98 112.5"/>
              <polygon class="cls-37" points="284.45 85.32 205.25 86.54 146.97 87.41 205.88 84.95 284.45 85.32"/>
              <polygon class="cls-34" points="204.09 86.54 203.8 95.28 206.66 86.54 204.09 86.54"/>
              <polygon class="cls-34" points="192.37 113.67 194.4 115.22 195.85 112.99 192.37 113.67"/>
              <path class="cls-27" d="M194.4,113.58s62.56-3.52,108.77-4.32l-11.45-1-91.16,3.27-6.17,2.05h0Z"/>
              <path class="cls-66" d="M286.05,132.2s-41.21-4.68-82.49,5.81l82.49-5.81Z"/>
              <polygon class="cls-61" points="303.17 112.5 302.67 113.58 195.06 120.32 194.4 117.74 303.17 112.5"/>
              <polygon class="cls-22" points="303.17 112.5 299.52 111.15 194.4 117.74 303.17 112.5"/>
              <polygon class="cls-44" points="195.06 120.32 124.92 118.95 124.79 117.38 194.4 117.74 195.06 120.32"/>
              <polygon class="cls-23" points="194.4 117.74 124.79 117.38 194.4 117.06 204.23 117.16 194.4 117.74"/>
              <g class="cls-68">
                <path class="cls-13" d="M240.51,95.69c.1,.53,.37,.82,.99,.69,.4-.08,.64-.43,.56-.85-.07-.43-.51-.78-.95-.73-.45,.06-.68,.64-.61,.88Z"/>
                <path class="cls-13" d="M255.6,101.71c.05-.6,.67-.92,1.2-.98,.45-.05,.85,.08,1.23,.32,.37,.24,.67,.66,.48,1.11-.06,.15-.24,.47-.37,.58-.19,.16-.58,.05-.81,.02-.4-.07-.55-.2-.83-.46-.25-.23-.92-.05-.9-.57Z"/>
                <path class="cls-13" d="M240.91,93.39c-.35,.14-.85,.68-.34,.9,.28,.12,1.12-.04,1.35-.21,.94-.72-.55-1.34-1.16-.58l.15-.11Z"/>
                <path class="cls-13" d="M241.36,98c.34-.6,.97,.09,.56,.43-.27,.23-.59,0-.63-.3l.07-.13Z"/>
                <path class="cls-13" d="M242.29,95.72c.23-.4,.65,.06,.37,.29-.18,.15-.39,0-.42-.2l.05-.09Z"/>
                <path class="cls-13" d="M232.45,91.33c-.78,1.06,.65,2.29,1.22,1.02,.3-.68-.28-1.51-.95-1.02h-.27Z"/>
                <path class="cls-13" d="M234.83,94.38c-.1-.2-.2-.15-.31-.02-.19,.22-.06,.26,.07,.43,.29,.37,.55,.36,.95,.1,.32-.21,.86-.77,.28-1.06-.25-.12-.77,.06-.92,.24l-.07,.3Z"/>
                <path class="cls-13" d="M233.54,94.78c-.06-.52,.72,.15,.38,.43-.29,.24-.47-.26-.38-.47v.03Z"/>
                <path class="cls-13" d="M235.1,92.99c.22,.34,.66-.14,.5-.37-.19-.27-.46,.17-.54,.3l.03,.07Z"/>
                <path class="cls-13" d="M226.83,99.16c.13-.43,.66-.03,.72,.24,.09,.39-.24,.89-.65,.93-.63,.06-.79-.92-.24-1.14l.17-.03Z"/>
                <path class="cls-13" d="M232.69,99.93c-.37,.54,.89,.66,.88,.04,0-.49-.74-.49-.88-.08v.03Z"/>
                <path class="cls-13" d="M227.44,89.29c-.26-.33,.09-.83,.48-.78,.51,.07,.52,.78,.35,1.13-.38,.77-1.44,.25-1-.49l.17,.14Z"/>
                <path class="cls-13" d="M234.96,87.63c-.45,1.07,1.3,.69,1.39-.17,.12-1.04-1.26-.77-1.39,.17Z"/>
                <path class="cls-13" d="M258.41,100.28c-.5,.68,.8,1.01,.91,.16-.26-.33-.74-.41-1.05-.08l.14-.07Z"/>
                <path class="cls-13" d="M251.65,108.45c1.09-1.39,3.19-1.94,4.69-.91,.39,.27,.95,.75,.48,1.19-.41,.38-2.36,0-2.9,0-.79,0-1.6,.03-2.27-.28Z"/>
                <path class="cls-13" d="M247.84,107.75c.09,.62,1.19,.41,1.03-.11-.11-.34-.71-.43-.81-.1l-.21,.21Z"/>
                <path class="cls-13" d="M207.85,88.55c-.2,.97,1.02,.77,1.02,0,0-.64-.84-.87-1.02-.2v.2Z"/>
                <path class="cls-13" d="M233.67,103.9c.1-.16,.23-.26,.4-.31,.63,.84-.78,1.4-.4,.41v-.1Z"/>
                <path class="cls-13" d="M206.81,104.77c-.98,2.5,3.14,.76,3.74-.4,.62-1.2-.96-1.39-1.84-1.23-1.05,.19-1.86,.94-1.9,1.63Z"/>
                <path class="cls-13" d="M210.67,105.37c.1-.56,1.14-1.04,1.01-.19-.07,.47-.74,.78-.93,.28l-.09-.09Z"/>
                <path class="cls-13" d="M270.71,94.14c-1.03,1.44,3.29,1.46,3.49,.02,.21-1.48-3.1-.97-3.58-.11l.09,.09Z"/>
                <path class="cls-13" d="M273.75,92.44c.09-.89,1.33-.5,1.06,.04-.22,.44-.84,.12-1.06-.13v.09Z"/>
                <path class="cls-13" d="M277.05,93.51c.41,0,.79-.1,1.15-.27-.1-.8-1.1-.62-1.34,0,.04,.13,.12,.1,.19,.18v.09Z"/>
                <path class="cls-13" d="M265.72,95.21c0-.34,.09-.51,.43-.52,.42,.34,.31,1.02-.25,.88l-.18-.36Z"/>
                <path class="cls-13" d="M249.77,100.58c-1.55,1.3,1.78,.91,.28,.19l-.28-.19Z"/>
                <path class="cls-13" d="M243.19,104.08c-.38,.39-.24,1.2,.44,.91,.52-.22,.4-1.13-.23-.83l-.21-.07Z"/>
                <path class="cls-13" d="M246.29,106.2c.12-.43,.67-.44,.64,0-.02,.36-.38,.33-.5,.07l-.14-.07Z"/>
                <path class="cls-13" d="M274.73,123.55c.1,.53,.37,.82,.99,.69,.4-.08,.64-.43,.56-.85-.07-.43-.51-.78-.95-.73-.45,.06-.68,.64-.61,.88Z"/>
                <path class="cls-13" d="M243.42,121.92c.05-.6,.67-.92,1.2-.98,.45-.05,.85,.08,1.23,.32,.37,.24,.67,.66,.48,1.11-.06,.15-.24,.47-.37,.58-.19,.16-.58,.05-.81,.02-.4-.07-.55-.2-.83-.46-.25-.23-.92-.05-.9-.57Z"/>
                <path class="cls-13" d="M275.13,121.25c-.35,.14-.85,.68-.34,.9,.28,.12,1.12-.04,1.35-.21,.94-.72-.55-1.34-1.16-.58l.15-.11Z"/>
                <path class="cls-13" d="M275.58,125.86c.34-.6,.97,.09,.56,.43-.27,.23-.59,0-.63-.3l.07-.13Z"/>
                <path class="cls-13" d="M276.51,123.57c.23-.4,.65,.06,.37,.29-.18,.15-.39,0-.42-.2l.05-.09Z"/>
                <path class="cls-13" d="M264.9,125.3c-.78,1.06,.65,2.29,1.22,1.02,.3-.68-.28-1.51-.95-1.02h-.27Z"/>
                <path class="cls-13" d="M267.27,128.35c-.1-.2-.2-.15-.31-.02-.19,.22-.06,.26,.07,.43,.29,.37,.55,.36,.95,.1,.32-.21,.86-.77,.28-1.06-.25-.12-.77,.06-.92,.24l-.07,.31Z"/>
                <path class="cls-13" d="M265.99,128.75c-.06-.52,.72,.15,.38,.43-.29,.24-.47-.26-.38-.47v.03Z"/>
                <path class="cls-13" d="M267.55,126.96c.22,.34,.66-.14,.5-.37-.19-.27-.46,.17-.54,.3l.03,.07Z"/>
                <path class="cls-13" d="M218.17,124.1c-.37,.54,.89,.66,.88,.04,0-.49-.74-.49-.88-.08v.03Z"/>
                <path class="cls-13" d="M267.41,121.6c-.45,1.07,1.3,.69,1.39-.17,.12-1.04-1.26-.77-1.39,.17Z"/>
                <path class="cls-13" d="M246.24,120.48c-.5,.68,.8,1.01,.91,.16-.26-.33-.74-.41-1.05-.08l.14-.07Z"/>
                <path class="cls-13" d="M239.47,128.66c1.09-1.39,3.19-1.94,4.69-.91,.39,.27,.95,.75,.49,1.19-.41,.38-2.36,0-2.9,0-.79,0-1.6,.03-2.27-.28Z"/>
                <path class="cls-13" d="M233.32,131.91c.09,.62,1.19,.41,1.03-.11-.11-.34-.71-.43-.81-.1l-.21,.21Z"/>
                <path class="cls-13" d="M219.15,128.06c.1-.16,.23-.26,.4-.31,.63,.84-.78,1.4-.4,.41v-.1Z"/>
                <path class="cls-13" d="M284.34,119.06c-1.55,1.3,1.78,.91,.28,.19l-.28-.19Z"/>
                <path class="cls-13" d="M228.67,128.24c-.38,.39-.24,1.2,.44,.91,.52-.22,.4-1.13-.23-.83l-.21-.07Z"/>
                <path class="cls-13" d="M231.77,130.36c.12-.43,.67-.44,.64,0-.02,.36-.38,.33-.5,.07l-.14-.07Z"/>
                <path class="cls-13" d="M216.08,88.04c.23-.13,.42-.31,.55-.54-.37-.32-.39-.07-.55,.23v.31Z"/>
                <path class="cls-13" d="M178.67,103.19c.1,.53,.37,.82,.99,.69,.4-.08,.64-.43,.56-.85-.07-.43-.51-.78-.95-.73-.45,.06-.68,.64-.61,.88Z"/>
                <path class="cls-13" d="M193.76,109.21c.05-.6,.67-.92,1.2-.98,.45-.05,.85,.08,1.23,.32,.37,.24,.67,.66,.48,1.11-.06,.15-.24,.47-.37,.58-.19,.16-.58,.05-.81,.02-.4-.07-.55-.2-.83-.46-.25-.23-.92-.05-.9-.57Z"/>
                <path class="cls-13" d="M179.07,100.89c-.35,.14-.85,.68-.34,.9,.28,.12,1.12-.04,1.35-.21,.94-.72-.55-1.34-1.16-.58l.15-.11Z"/>
                <path class="cls-13" d="M179.52,105.5c.34-.6,.97,.09,.56,.43-.27,.23-.59,0-.63-.3l.07-.13Z"/>
                <path class="cls-13" d="M180.45,103.22c.23-.4,.65,.06,.37,.29-.18,.15-.39,0-.42-.2l.05-.09Z"/>
                <path class="cls-13" d="M170.62,98.83c-.78,1.06,.65,2.29,1.22,1.02,.3-.68-.28-1.51-.95-1.02h-.27Z"/>
                <path class="cls-13" d="M172.99,101.88c-.1-.2-.2-.15-.31-.02-.19,.22-.06,.26,.07,.43,.29,.37,.55,.36,.95,.1,.32-.21,.86-.77,.28-1.06-.25-.12-.77,.06-.92,.24l-.07,.3Z"/>
                <path class="cls-13" d="M171.7,102.28c-.06-.52,.72,.15,.38,.43-.29,.24-.47-.26-.38-.47v.03Z"/>
                <path class="cls-13" d="M173.26,100.49c.22,.34,.66-.14,.5-.37-.19-.27-.46,.17-.54,.3l.03,.07Z"/>
                <path class="cls-13" d="M164.99,106.65c.13-.43,.66-.03,.72,.24,.09,.39-.24,.89-.65,.93-.63,.06-.79-.92-.24-1.14l.17-.03Z"/>
                <path class="cls-13" d="M170.86,107.43c-.37,.54,.89,.66,.88,.04,0-.49-.74-.49-.88-.08v.03Z"/>
                <path class="cls-13" d="M165.6,96.79c-.26-.33,.09-.83,.48-.78,.51,.07,.52,.78,.35,1.13-.38,.77-1.44,.25-1-.49l.17,.14Z"/>
                <path class="cls-13" d="M173.13,95.13c-.45,1.07,1.3,.69,1.39-.17,.12-1.04-1.26-.77-1.39,.17Z"/>
                <path class="cls-13" d="M196.58,107.78c-.5,.68,.8,1.01,.91,.16-.26-.33-.74-.41-1.05-.08l.14-.07Z"/>
                <path class="cls-13" d="M146.01,96.05c-.21,.97,1.02,.77,1.02,0,0-.64-.84-.87-1.02-.2v.2Z"/>
                <path class="cls-13" d="M208.88,101.64c-1.03,1.44,3.29,1.46,3.49,.02,.21-1.48-3.1-.97-3.58-.11l.09,.09Z"/>
                <path class="cls-13" d="M203.88,102.71c0-.34,.09-.51,.43-.52,.42,.34,.31,1.02-.25,.88l-.18-.36Z"/>
                <path class="cls-13" d="M187.93,108.08c-1.55,1.3,1.78,.91,.28,.19l-.28-.19Z"/>
                <path class="cls-13" d="M154.25,95.54c.23-.13,.42-.31,.55-.54-.37-.32-.39-.07-.55,.23v.31Z"/>
                <path class="cls-13" d="M180.73,128.7c.08,.44,.31,.68,.83,.58,.33-.07,.53-.36,.47-.71-.06-.36-.43-.65-.79-.61-.38,.05-.57,.53-.51,.74Z"/>
                <path class="cls-13" d="M181.06,126.78c-.29,.12-.7,.57-.28,.75,.23,.1,.94-.03,1.13-.18,.78-.6-.46-1.12-.97-.48l.12-.09Z"/>
                <path class="cls-13" d="M181.44,130.62c.29-.5,.81,.07,.47,.36-.23,.19-.49,0-.52-.25l.06-.11Z"/>
                <path class="cls-13" d="M182.21,128.72c.19-.33,.54,.05,.31,.24-.15,.13-.33,0-.35-.16l.04-.07Z"/>
                <path class="cls-13" d="M174.02,125.06c-.65,.88,.54,1.91,1.02,.85,.25-.57-.24-1.26-.79-.85h-.23Z"/>
                <path class="cls-13" d="M176,127.6c-.09-.17-.17-.12-.26-.02-.16,.18-.05,.22,.06,.36,.24,.31,.46,.3,.79,.08,.27-.17,.72-.64,.23-.88-.21-.1-.64,.05-.76,.2l-.06,.25Z"/>
                <path class="cls-13" d="M174.93,127.94c-.05-.43,.6,.13,.31,.36-.24,.2-.39-.22-.31-.39v.03Z"/>
                <path class="cls-13" d="M176.23,126.44c.18,.29,.55-.12,.42-.3-.16-.23-.38,.14-.45,.25l.03,.06Z"/>
                <path class="cls-13" d="M169.34,131.58c.11-.36,.55-.03,.6,.2,.08,.32-.2,.74-.54,.77-.52,.05-.66-.76-.2-.95l.14-.03Z"/>
                <path class="cls-13" d="M174.22,132.23c-.31,.45,.74,.55,.73,.04,0-.41-.61-.41-.73-.06v.03Z"/>
                <path class="cls-13" d="M169.85,123.37c-.21-.28,.07-.69,.4-.65,.43,.06,.44,.65,.29,.94-.32,.64-1.2,.2-.83-.41l.14,.11Z"/>
                <path class="cls-13" d="M176.11,121.98c-.38,.89,1.08,.58,1.16-.14,.1-.86-1.05-.64-1.16,.14Z"/>
                <path class="cls-13" d="M153.54,122.75c-.17,.8,.85,.64,.85,0,0-.54-.7-.72-.85-.16v.17Z"/>
                <path class="cls-13" d="M160.4,122.32c.19-.11,.35-.26,.46-.45-.31-.26-.32-.06-.46,.19v.25Z"/>
              </g>
              <polygon class="cls-7" points="237.24 85.99 236.36 110.24 244.91 111.13 244.47 117.22 236.36 117.74 235.59 135.65 236.07 135.79 246.61 117.09 248.36 114.15 239.47 86.01 237.24 85.99"/>
              <path class="cls-46" d="M236.07,135.79s10.09-17.71,10.54-18.7,.71-5.56,.63-6.17c-.08-.61-7.77-24.91-7.77-24.91l-49.96-.38v-.68l21.03-.74,58.26,.78s11.09,24.06,11.24,24.84c.15,.78-.65,5.13-1.13,5.56-.48,.44-17.01,19.2-17.01,19.2l-27.12,1.84-1.22-.53,2.49-.11Z"/>
              <path class="cls-4" d="M278.92,115.39l-31.78,1.4s.39-5.18,.28-6.1c-.11-.93-7.5-25.59-7.5-25.59l-50.4-.14v.68l49.96,.38s7.76,24.07,7.77,24.91c0,.84-.22,5.4-.63,6.17-.41,.77-10.54,18.7-10.54,18.7l-2.49,.11,1.22,.53,27.12-1.84,17.01-19.2Z"/>
              <polygon class="cls-21" points="249.35 104.06 274.21 102.82 268.42 90.03 244.8 90.03 249.35 104.06"/>
              <polygon class="cls-56" points="251.31 92.37 252.43 94.07 265.82 93.95 265.39 92.37 251.31 92.37"/>
              <polygon class="cls-4" points="248.39 123.62 267.41 122.88 262.86 128.5 244.96 129.08 248.39 123.62"/>
              <polygon class="cls-1" points="253.48 97.76 254.44 100.94 268.38 100.73 267.34 97.05 253.48 97.76"/>
            </g>
            <g>
              <path class="cls-53" d="M143.67,132.32s2.14,.27,2.09,1.86c-.04,1.28-5.65,3.83-20.28,3.83-10.99,0-22.11-2.64-22.41-3.76-.32-1.18,1.14-1.93,1.14-1.93h39.47Z"/>
              <path class="cls-45" d="M104.33,133.37l-6.25-63.93s22.77-11.82,52.65-3.63l-7.26,68.22s-17.27,3.96-39.15-.66Z"/>
              <path class="cls-33" d="M97.41,69.49s22.13,3.43,52.95-.26l1.79-.7,.57-2.58s-20.93,3.4-56.64,.43v2.55l1.32,.56Z"/>
              <path class="cls-50" d="M96.09,66.37s25.1-7.59,56.64-.43c0,0-15.88,4.25-56.64,.43Z"/>
              <path class="cls-48" d="M98.22,65.81l-.81-8.16s31.77-6.38,53.33,0l-1.49,7.77s-24.5,3.45-51.03,.39Z"/>
              <path class="cls-5" d="M97.41,57.65s24.01,2.55,53.33,0c0,0-22.6-6.95-53.33,0Z"/>
              <g>
                <polygon class="cls-71" points="102.69 66.3 101.73 58.04 101.95 58.01 102.91 66.27 102.69 66.3"/>
                <polygon class="cls-71" points="108.92 66.75 108.03 58.42 108.26 58.4 109.14 66.72 108.92 66.75"/>
                <polygon class="cls-71" points="116.21 67.09 115.41 58.69 115.63 58.67 116.43 67.07 116.21 67.09"/>
                <polygon class="cls-71" points="124.8 67.06 124.58 67.05 125.19 58.78 125.42 58.79 124.8 67.06"/>
                <rect class="cls-71" x="130.86" y="58.71" width=".22" height="8.18"/>
                <polygon class="cls-71" points="136.24 66.64 136.02 66.62 136.63 58.52 136.86 58.54 136.24 66.64"/>
                <rect class="cls-71" x="138.38" y="62.1" width="8.07" height=".22" transform="translate(60.74 194.44) rotate(-81.89)"/>
                <polygon class="cls-71" points="147.3 65.69 147.07 65.66 148.08 57.85 148.3 57.88 147.3 65.69"/>
              </g>
              <path class="cls-16" d="M150.15,71.22s-24.07,5.86-51.42,4.87l-.65-6.65s20.93,3.82,52.28-.21l-.22,1.99Z"/>
              <path class="cls-16" d="M103.06,134.25s7.59,3.3,22.63,3.3,19.75-2.8,19.75-2.8c0,0-3.62,3.26-19.96,3.26s-22.41-3.76-22.41-3.76Z"/>
              <g class="cls-68">
                <path class="cls-13" d="M114.55,98.73c.07,.37,.26,.57,.69,.48,.28-.06,.44-.29,.39-.59-.05-.3-.35-.54-.65-.5-.31,.04-.47,.44-.42,.61Z"/>
                <path class="cls-13" d="M137.31,78.12c.04-.41,.46-.64,.83-.68,.31-.03,.58,.05,.85,.22,.26,.16,.46,.45,.33,.76-.04,.1-.17,.33-.26,.4-.13,.11-.4,.04-.56,.01-.28-.05-.38-.14-.57-.32-.17-.16-.64-.03-.62-.39Z"/>
                <path class="cls-13" d="M114.83,97.15c-.24,.1-.58,.47-.23,.62,.19,.08,.78-.03,.93-.15,.65-.5-.38-.92-.8-.4l.1-.08Z"/>
                <path class="cls-13" d="M115.14,100.32c.24-.42,.67,.06,.39,.3-.19,.16-.41,0-.43-.2l.05-.09Z"/>
                <path class="cls-13" d="M115.78,98.75c.16-.28,.44,.04,.26,.2-.13,.11-.27,0-.29-.14l.03-.06Z"/>
                <path class="cls-13" d="M115.16,121.77c-.54,.73,.45,1.58,.84,.7,.21-.47-.2-1.04-.66-.7h-.19Z"/>
                <path class="cls-13" d="M110.63,97.82c-.07-.14-.14-.1-.22-.01-.13,.15-.04,.18,.05,.3,.2,.25,.38,.25,.65,.07,.22-.14,.59-.53,.19-.73-.17-.08-.53,.04-.63,.17l-.05,.21Z"/>
                <path class="cls-13" d="M109.74,98.1c-.04-.36,.49,.1,.26,.3-.2,.17-.32-.18-.26-.32v.02Z"/>
                <path class="cls-13" d="M110.82,96.86c.15,.24,.45-.1,.35-.25-.13-.19-.32,.12-.37,.21l.02,.05Z"/>
                <path class="cls-13" d="M111.28,127.18c.09-.3,.45-.02,.5,.17,.06,.27-.17,.61-.45,.64-.43,.04-.55-.63-.16-.78l.12-.02Z"/>
                <path class="cls-13" d="M115.32,127.71c-.26,.37,.62,.45,.61,.03,0-.34-.51-.34-.61-.05v.02Z"/>
                <path class="cls-13" d="M111.7,120.37c-.18-.23,.06-.57,.33-.54,.35,.05,.36,.54,.24,.78-.26,.53-.99,.17-.69-.34l.12,.09Z"/>
                <path class="cls-13" d="M110.72,93.17c-.31,.74,.89,.48,.96-.12,.08-.72-.87-.53-.96,.12Z"/>
                <path class="cls-13" d="M139.25,77.13c-.34,.47,.55,.69,.63,.11-.18-.23-.51-.28-.72-.06l.1-.05Z"/>
                <path class="cls-13" d="M134.58,82.77c.75-.96,2.2-1.34,3.24-.63,.27,.19,.66,.52,.33,.82-.28,.26-1.62,0-2,0-.54,0-1.1,.02-1.57-.19Z"/>
                <path class="cls-13" d="M119.61,107.05c.06,.43,.82,.28,.71-.07-.07-.24-.49-.3-.56-.07l-.15,.15Z"/>
                <path class="cls-13" d="M104.01,85.93c-.14,.67,.71,.53,.7,0,0-.44-.58-.6-.7-.14v.14Z"/>
                <path class="cls-13" d="M109.84,104.39c.07-.11,.16-.18,.28-.21,.44,.58-.54,.97-.28,.28v-.07Z"/>
                <path class="cls-13" d="M105.28,72.38c-.67,1.72,2.17,.52,2.58-.27,.43-.83-.66-.96-1.27-.85-.72,.13-1.29,.65-1.31,1.13Z"/>
                <path class="cls-13" d="M107.94,72.79c.07-.38,.79-.72,.7-.13-.05,.33-.51,.54-.64,.19l-.06-.06Z"/>
                <path class="cls-13" d="M131.31,87.21c-.71,.99,2.27,1.01,2.41,.02,.14-1.02-2.14-.67-2.47-.08l.06,.06Z"/>
                <path class="cls-13" d="M133.4,86.04c.06-.62,.91-.35,.73,.03-.15,.31-.58,.08-.73-.09v.06Z"/>
                <path class="cls-13" d="M135.68,86.78c.28,0,.55-.07,.79-.19-.07-.55-.76-.43-.92,0,.02,.09,.08,.07,.13,.12v.06Z"/>
                <path class="cls-13" d="M121.64,77.63c0-.23,.06-.35,.3-.36,.29,.24,.22,.7-.17,.61l-.12-.25Z"/>
                <path class="cls-13" d="M133.29,77.34c-1.07,.9,1.23,.63,.19,.13l-.19-.13Z"/>
                <path class="cls-13" d="M116.4,104.52c-.26,.27-.16,.83,.31,.62,.36-.15,.28-.78-.16-.58l-.15-.05Z"/>
                <path class="cls-13" d="M118.54,105.98c.09-.3,.46-.3,.44,0-.02,.25-.26,.22-.34,.05l-.1-.05Z"/>
                <path class="cls-13" d="M135.65,128.15c.07,.37,.26,.57,.69,.48,.28-.06,.44-.29,.39-.59-.05-.3-.35-.54-.65-.5-.31,.04-.47,.44-.42,.61Z"/>
                <path class="cls-13" d="M123.48,77.68c.04-.41,.46-.64,.83-.68,.31-.03,.58,.05,.85,.22,.26,.16,.46,.45,.33,.76-.04,.1-.17,.33-.26,.4-.13,.11-.4,.04-.56,.01-.28-.05-.38-.14-.57-.32-.17-.16-.64-.03-.62-.39Z"/>
                <path class="cls-13" d="M135.92,126.57c-.24,.1-.58,.47-.23,.62,.19,.08,.78-.03,.93-.15,.65-.5-.38-.92-.8-.4l.1-.08Z"/>
                <path class="cls-13" d="M136.23,129.75c.24-.42,.67,.06,.39,.3-.19,.16-.41,0-.43-.2l.05-.09Z"/>
                <path class="cls-13" d="M136.87,128.17c.16-.28,.44,.04,.26,.2-.13,.11-.27,0-.29-.14l.03-.06Z"/>
                <path class="cls-13" d="M128.87,129.36c-.54,.73,.45,1.58,.84,.7,.21-.47-.2-1.04-.66-.7h-.19Z"/>
                <path class="cls-13" d="M130.5,131.46c-.07-.14-.14-.1-.22-.01-.13,.15-.04,.18,.05,.3,.2,.25,.38,.25,.65,.07,.22-.14,.59-.53,.19-.73-.17-.08-.53,.04-.63,.17l-.05,.21Z"/>
                <path class="cls-13" d="M129.61,131.74c-.04-.36,.49,.1,.26,.3-.2,.17-.32-.18-.26-.32v.02Z"/>
                <path class="cls-13" d="M130.69,130.5c.15,.24,.45-.1,.35-.25-.13-.19-.32,.12-.37,.21l.02,.05Z"/>
                <path class="cls-13" d="M106.06,79.19c-.26,.37,.62,.45,.61,.03,0-.34-.51-.34-.61-.05v.02Z"/>
                <path class="cls-13" d="M130.6,126.81c-.31,.74,.89,.48,.96-.12,.08-.72-.87-.53-.96,.12Z"/>
                <path class="cls-13" d="M125.42,76.69c-.34,.47,.55,.69,.63,.11-.18-.23-.51-.28-.72-.06l.1-.05Z"/>
                <path class="cls-13" d="M120.75,82.33c.75-.96,2.2-1.34,3.24-.63,.27,.19,.66,.52,.33,.82-.28,.26-1.62,0-2,0-.54,0-1.1,.02-1.57-.19Z"/>
                <path class="cls-13" d="M116.51,84.58c.06,.43,.82,.28,.71-.07-.07-.24-.49-.3-.56-.07l-.15,.15Z"/>
                <path class="cls-13" d="M106.74,81.92c.07-.11,.16-.18,.28-.21,.44,.58-.54,.97-.28,.28v-.07Z"/>
                <path class="cls-13" d="M138.66,123.43c-1.07,.9,1.23,.63,.19,.13l-.19-.13Z"/>
                <path class="cls-13" d="M113.3,82.05c-.26,.27-.16,.83,.31,.62,.36-.15,.28-.78-.16-.58l-.15-.05Z"/>
                <path class="cls-13" d="M115.44,83.51c.09-.3,.46-.3,.44,0-.02,.25-.26,.22-.34,.05l-.1-.05Z"/>
                <path class="cls-13" d="M97.7,93.45c.16-.09,.29-.22,.38-.37-.25-.22-.27-.05-.38,.16v.21Z"/>
              </g>
              <g>
                <path class="cls-11" d="M143.09,101.96c-.12,7.75-5.26,13.96-11.49,13.87-6.23-.09-11.18-6.45-11.07-14.2,.12-7.75,5.26-13.96,11.49-13.87s11.18,6.45,11.07,14.2Z"/>
                <path class="cls-29" d="M141.91,101.94c-.1,6.41-4.35,11.54-9.49,11.46-5.15-.08-9.24-5.33-9.15-11.74,.1-6.41,4.35-11.54,9.49-11.46,5.15,.08,9.24,5.33,9.15,11.74Z"/>
                <g class="cls-68">
                  <path class="cls-70" d="M132.65,90.65h.11c2.35,.04,4.55,1.22,6.19,3.32,1.67,2.14,2.56,4.96,2.51,7.96-.09,6.08-4.1,11.02-8.93,11.02h-.11c-4.89-.07-8.8-5.14-8.7-11.28,.09-6.08,4.1-11.02,8.93-11.02h0Zm0-.45c-5.1,0-9.28,5.1-9.38,11.46-.1,6.41,4,11.66,9.15,11.74,.04,0,.08,0,.11,0,5.1,0,9.28-5.1,9.38-11.46,.1-6.41-4-11.66-9.15-11.74-.04,0-.08,0-.11,0h0Z"/>
                </g>
              </g>
              <path class="cls-40" d="M104.33,133.37l-5.65-53.32,15.15,.53s-.65,46.04,1.45,51.73c1.49,4.04,20.68,2.84,20.68,2.84,0,0-15.45,1.79-31.63-1.79Z"/>
              <polygon class="cls-49" points="104.35 70.41 103.02 66.89 110.67 67.48 110.67 70.67 104.35 70.41"/>
              <path class="cls-49" d="M106.91,66.6l-.9-8.2,13.33,.27-.47,8.4s-6.49-.18-11.96-.48Z"/>
              <polygon class="cls-8" points="142.13 70.07 142.42 67.4 147.27 66.89 146.96 69.61 142.13 70.07"/>
              <polygon class="cls-8" points="139.15 58.53 138.77 66.45 143.32 66.08 145.44 58.06 139.15 58.53"/>
            </g>
          </g>
        </g>
      </g>
    </g>
  </g>
</svg>