<?xml version="1.0" encoding="UTF-8"?>
<svg xmlns="http://www.w3.org/2000/svg" xmlns:xlink="http://www.w3.org/1999/xlink" viewBox="0 0 268.81 165">
  <defs>
    <style>
      .cls-1 {
        fill: url(#linear-gradient-2);
      }

      .cls-2 {
        fill: #ffdd94;
      }

      .cls-3 {
        fill: url(#linear-gradient-6);
      }

      .cls-4 {
        isolation: isolate;
      }

      .cls-5 {
        fill: url(#linear-gradient-11);
      }

      .cls-6 {
        fill: #be7240;
        opacity: .8;
      }

      .cls-7 {
        fill: #c6c6c6;
        mix-blend-mode: multiply;
      }

      .cls-8 {
        fill: url(#linear-gradient-10);
      }

      .cls-9 {
        fill: url(#linear-gradient-5);
      }

      .cls-10 {
        fill: url(#linear-gradient-7);
      }

      .cls-11 {
        fill: url(#linear-gradient-9);
      }

      .cls-12 {
        fill: url(#linear-gradient-3);
      }

      .cls-13 {
        fill: url(#linear-gradient);
      }

      .cls-14 {
        fill: url(#linear-gradient-4);
      }

      .cls-15 {
        fill: url(#linear-gradient-8);
      }

      .cls-16 {
        fill: url(#linear-gradient-12);
      }

      .cls-17 {
        fill: url(#linear-gradient-13);
      }
    </style>
    <linearGradient id="linear-gradient" x1="170.88" y1="9.24" x2="170.88" y2="85.06" gradientUnits="userSpaceOnUse">
      <stop offset="0" stop-color="#e99d58"/>
      <stop offset="1" stop-color="#d88a45"/>
    </linearGradient>
    <linearGradient id="linear-gradient-2" x1="157.53" y1="41.64" x2="142.04" y2="100.07" gradientUnits="userSpaceOnUse">
      <stop offset="0" stop-color="#fdb56c"/>
      <stop offset="1" stop-color="#e8a059"/>
    </linearGradient>
    <linearGradient id="linear-gradient-3" x1="136.89" y1="24.93" x2="128.39" y2="96.51" xlink:href="#linear-gradient-2"/>
    <linearGradient id="linear-gradient-4" x1="135.83" y1="75.36" x2="179.11" y2="122.36" gradientUnits="userSpaceOnUse">
      <stop offset="0" stop-color="#ffc17b"/>
      <stop offset="1" stop-color="#feb468"/>
    </linearGradient>
    <linearGradient id="linear-gradient-5" x1="45.11" y1="76.43" x2="85.19" y2="128.91" xlink:href="#linear-gradient"/>
    <linearGradient id="linear-gradient-6" x1="18.75" y1="125.07" x2="-3.01" y2="60.2" gradientUnits="userSpaceOnUse">
      <stop offset="0" stop-color="#ffc885"/>
      <stop offset="1" stop-color="#f9be71"/>
    </linearGradient>
    <linearGradient id="linear-gradient-7" x1="18.71" y1="34.32" x2="54.33" y2="34.32" xlink:href="#linear-gradient-6"/>
    <linearGradient id="linear-gradient-8" x1="61.41" y1="88.41" x2="129.92" y2="150.55" gradientUnits="userSpaceOnUse">
      <stop offset="0" stop-color="#ffc885"/>
      <stop offset="1" stop-color="#eaa457"/>
    </linearGradient>
    <linearGradient id="linear-gradient-9" x1="230.88" y1="96.33" x2="230.88" y2="151.69" xlink:href="#linear-gradient"/>
    <linearGradient id="linear-gradient-10" x1="54.33" y1="34.46" x2="120.68" y2="34.46" xlink:href="#linear-gradient"/>
    <linearGradient id="linear-gradient-11" x1="6.86" y1="69.59" x2="10.46" y2="74.31" xlink:href="#linear-gradient"/>
    <linearGradient id="linear-gradient-12" x1="20.3" y1="61.92" x2="28.35" y2="72.46" xlink:href="#linear-gradient"/>
    <linearGradient id="linear-gradient-13" x1="32.55" y1="1.18" x2="36.27" y2="6.05" xlink:href="#linear-gradient"/>
  </defs>
  <g class="cls-4">
    <g id="Layer_2" data-name="Layer 2">
      <g id="Layer_1-2" data-name="Layer 1">
        <g>
          <polygon class="cls-7" points="25 144.52 72.76 154.5 159.33 165 192.72 147.41 240.8 142.47 268.81 132.96 30.83 132.96 25 144.52"/>
          <rect class="cls-13" x="120.21" y="21.32" width="101.35" height="121.42"/>
          <rect class="cls-1" x="96.14" y="21.32" width="101.35" height="121.42"/>
          <rect class="cls-12" x="81.77" y="61.79" width="91.89" height="80.68"/>
          <polygon class="cls-2" points="173.67 61.79 169.67 59.74 87.01 59.74 81.77 61.79 173.67 61.79"/>
          <polygon class="cls-6" points="128.17 59.74 157.96 147.69 111.12 147.69 111.12 59.74 128.17 59.74"/>
          <rect class="cls-14" x="122.47" y="79.43" width="96.82" height="67.99"/>
          <rect class="cls-9" x="23.37" y="69.66" width="90.31" height="74.86"/>
          <polygon class="cls-3" points="23.37 69.66 0 67.06 0 138.35 23.37 144.52 23.37 69.66"/>
          <polygon class="cls-2" points="0 67.06 91.62 67.41 113.69 69.66 23.37 69.66 0 67.06"/>
          <polygon class="cls-10" points="18.71 67.88 54.33 68.64 54.33 .96 18.71 0 18.71 67.88"/>
          <polygon class="cls-2" points="18.71 0 54.33 .96 120.68 .27 19.02 0 18.71 0"/>
          <rect class="cls-15" x="68.53" y="107.09" width="90.8" height="57.91"/>
          <polygon class="cls-2" points="68.53 107.09 159.33 107.09 155.99 103.33 71.86 103.33 68.53 107.09"/>
          <polygon class="cls-11" points="219.29 147.41 242.47 142.09 242.47 77.17 219.29 79.43 219.29 147.41"/>
          <polygon class="cls-2" points="242.47 77.17 147.89 77.17 122.47 79.43 219.29 79.43 242.47 77.17"/>
          <polygon class="cls-6" points="130.55 21.32 151.92 59.74 119.86 59.74 119.86 21.32 130.55 21.32"/>
          <polygon class="cls-8" points="54.33 .96 120.68 .27 120.68 68.64 54.33 68.64 54.33 .96"/>
          <polygon class="cls-6" points="159.33 107.09 180.09 147.69 159.33 147.69 159.33 107.09"/>
          <polygon class="cls-6" points="173.67 61.79 180.09 77.17 173.67 77.17 173.67 61.79"/>
          <rect class="cls-6" x="106.25" y="107.09" width="11.6" height="8.96"/>
          <rect class="cls-6" x="61.16" y="69.66" width="11.6" height="8.96"/>
          <polygon class="cls-6" points="117.86 107.09 106.25 107.09 107.81 103.33 116.4 103.33 117.86 107.09"/>
          <polygon class="cls-6" points="61.16 69.66 57.11 68.64 68.22 68.64 72.76 69.66 61.16 69.66"/>
          <polygon class="cls-5" points="6.48 67.78 6.48 76.21 11.33 77.01 11.33 68.32 6.48 67.78"/>
          <polygon class="cls-16" points="6.48 67.78 28.23 68.09 43.53 68.36 11.33 68.32 6.48 67.78"/>
          <polygon class="cls-17" points="38.42 7.87 30.83 7.26 30.83 .33 38.42 .53 38.42 7.87"/>
          <rect class="cls-6" x="142.44" y="21.32" width="11.2" height="7.62"/>
          <rect class="cls-6" x="206.21" y="21.32" width="7.27" height="7.62"/>
        </g>
      </g>
    </g>
  </g>
</svg>