<?xml version="1.0" encoding="UTF-8"?>
<svg id="Layer_2" data-name="Layer 2" xmlns="http://www.w3.org/2000/svg" xmlns:xlink="http://www.w3.org/1999/xlink" viewBox="0 0 277.34 174.54">
  <defs>
    <style>
      .cls-1 {
        fill: url(#linear-gradient-2);
      }

      .cls-2, .cls-3, .cls-4 {
        fill: #fff;
      }

      .cls-5 {
        fill: url(#linear-gradient-17);
      }

      .cls-6 {
        fill: #76c0bf;
      }

      .cls-7 {
        fill: url(#linear-gradient-15);
      }

      .cls-8 {
        fill: url(#linear-gradient-18);
      }

      .cls-9 {
        fill: url(#linear-gradient-28);
      }

      .cls-10 {
        fill: url(#linear-gradient-14);
      }

      .cls-11 {
        fill: url(#linear-gradient-20);
      }

      .cls-12 {
        fill: url(#linear-gradient-6);
      }

      .cls-13 {
        fill: url(#linear-gradient-11);
      }

      .cls-14 {
        fill: url(#linear-gradient-10);
      }

      .cls-15 {
        fill: #91b3fa;
      }

      .cls-16 {
        fill: url(#linear-gradient-16);
      }

      .cls-17 {
        fill: url(#linear-gradient-31);
      }

      .cls-18 {
        fill: #ffa412;
      }

      .cls-19 {
        fill: #7d97f4;
      }

      .cls-20 {
        fill: url(#linear-gradient-21);
      }

      .cls-21 {
        fill: #a2e0dc;
      }

      .cls-22 {
        fill: url(#linear-gradient-25);
      }

      .cls-23 {
        fill: #ff9843;
      }

      .cls-24 {
        fill: url(#linear-gradient-5);
      }

      .cls-25 {
        fill: #2c3a64;
      }

      .cls-3 {
        opacity: .33;
      }

      .cls-26 {
        fill: url(#linear-gradient-7);
      }

      .cls-27 {
        fill: url(#linear-gradient-24);
      }

      .cls-4 {
        opacity: .74;
      }

      .cls-28 {
        fill: url(#linear-gradient-9);
      }

      .cls-29 {
        fill: #ed7d2b;
      }

      .cls-30 {
        fill: url(#linear-gradient-22);
      }

      .cls-31 {
        fill: url(#linear-gradient-3);
      }

      .cls-32 {
        fill: url(#linear-gradient);
      }

      .cls-33 {
        fill: url(#linear-gradient-27);
      }

      .cls-34 {
        fill: url(#linear-gradient-29);
      }

      .cls-35 {
        fill: url(#linear-gradient-30);
      }

      .cls-36 {
        fill: #bdd0fb;
      }

      .cls-37 {
        fill: url(#linear-gradient-23);
      }

      .cls-38 {
        fill: url(#linear-gradient-19);
      }

      .cls-39 {
        fill: url(#linear-gradient-4);
      }

      .cls-40 {
        fill: #2b478b;
      }

      .cls-41 {
        fill: url(#linear-gradient-8);
      }

      .cls-42 {
        fill: url(#linear-gradient-12);
      }

      .cls-43 {
        fill: url(#linear-gradient-13);
      }

      .cls-44 {
        fill: url(#linear-gradient-26);
      }
    </style>
    <linearGradient id="linear-gradient" x1="154.39" y1="54.17" x2="134.81" y2="250.96" gradientUnits="userSpaceOnUse">
      <stop offset="0" stop-color="#ff928e"/>
      <stop offset="1" stop-color="#feb3b1"/>
    </linearGradient>
    <linearGradient id="linear-gradient-2" x1="148.4" y1="80.18" x2="146.51" y2="25.69" xlink:href="#linear-gradient"/>
    <linearGradient id="linear-gradient-3" x1="173.94" y1="79.29" x2="172.05" y2="24.8" xlink:href="#linear-gradient"/>
    <linearGradient id="linear-gradient-4" x1="123" y1="81.06" x2="121.11" y2="26.57" xlink:href="#linear-gradient"/>
    <linearGradient id="linear-gradient-5" x1="55.44" y1="166.39" x2="122.45" y2="88.02" xlink:href="#linear-gradient"/>
    <linearGradient id="linear-gradient-6" x1="-3804.45" y1="169.8" x2="-3802.31" y2="169.8" gradientTransform="translate(-3574.61) rotate(-180) scale(1 -1)" xlink:href="#linear-gradient"/>
    <linearGradient id="linear-gradient-7" x1="-3812.16" y1="169.69" x2="-3810.31" y2="169.69" gradientTransform="translate(-3574.61) rotate(-180) scale(1 -1)" xlink:href="#linear-gradient"/>
    <linearGradient id="linear-gradient-8" x1="-3795.65" y1="114" x2="-3784.72" y2="114" gradientTransform="translate(-3574.61) rotate(-180) scale(1 -1)" xlink:href="#linear-gradient"/>
    <linearGradient id="linear-gradient-9" x1="208.58" y1="102.15" x2="211" y2="109.6" xlink:href="#linear-gradient"/>
    <linearGradient id="linear-gradient-10" x1="214.72" y1="110.7" x2="210.41" y2="106.78" xlink:href="#linear-gradient"/>
    <linearGradient id="linear-gradient-11" x1="-3819.58" y1="129.12" x2="-3810.15" y2="129.12" gradientTransform="translate(-3574.61) rotate(-180) scale(1 -1)" xlink:href="#linear-gradient"/>
    <linearGradient id="linear-gradient-12" x1="231.43" y1="111.24" x2="231.96" y2="121.16" xlink:href="#linear-gradient"/>
    <linearGradient id="linear-gradient-13" x1="232" y1="105.82" x2="228.28" y2="113.52" xlink:href="#linear-gradient"/>
    <linearGradient id="linear-gradient-14" x1="-7909.26" y1="-3714.86" x2="-7907.55" y2="-3705.11" gradientTransform="translate(-8137.27 -2391.81) rotate(-138.25) scale(1 -1)" gradientUnits="userSpaceOnUse">
      <stop offset="0" stop-color="#09005d"/>
      <stop offset="1" stop-color="#1a0f91"/>
    </linearGradient>
    <linearGradient id="linear-gradient-15" x1="233.98" y1="106.77" x2="230.26" y2="114.48" xlink:href="#linear-gradient"/>
    <linearGradient id="linear-gradient-16" x1="-3794.16" y1="102.19" x2="-3796.65" y2="106.23" gradientTransform="translate(-3574.61) rotate(-180) scale(1 -1)" xlink:href="#linear-gradient"/>
    <linearGradient id="linear-gradient-17" x1="-191.9" y1="-207.99" x2="-250.41" y2="-111.87" gradientTransform="translate(274.32 385.97) rotate(17.09)" gradientUnits="userSpaceOnUse">
      <stop offset="0" stop-color="#e1473d"/>
      <stop offset="1" stop-color="#e9605a"/>
    </linearGradient>
    <linearGradient id="linear-gradient-18" x1="-1062.33" y1="3133.71" x2="-1120.84" y2="3229.83" gradientTransform="translate(-3049.16 -175.9) rotate(-104.49)" xlink:href="#linear-gradient-17"/>
    <linearGradient id="linear-gradient-19" x1="22.13" y1="65.55" x2="22.39" y2="46.62" gradientUnits="userSpaceOnUse">
      <stop offset="0" stop-color="#4042e2"/>
      <stop offset="1" stop-color="#4f52ff"/>
    </linearGradient>
    <linearGradient id="linear-gradient-20" x1="11.44" y1="83.83" x2="27.5" y2="79.65" xlink:href="#linear-gradient-19"/>
    <linearGradient id="linear-gradient-21" x1="28.3" y1="67.83" x2="65.39" y2="77.62" xlink:href="#linear-gradient-19"/>
    <linearGradient id="linear-gradient-22" x1="68.41" y1="77.45" x2="80.82" y2="95.21" xlink:href="#linear-gradient-19"/>
    <linearGradient id="linear-gradient-23" x1="69.84" y1="84.67" x2="73.9" y2="84.67" gradientTransform="matrix(1, 0, 0, 1, 0, 0)" xlink:href="#linear-gradient-14"/>
    <linearGradient id="linear-gradient-24" x1="59.22" y1="58.66" x2="56.61" y2="82.43" xlink:href="#linear-gradient-19"/>
    <linearGradient id="linear-gradient-25" x1="47.81" y1="54.42" x2="47.81" y2="64.35" xlink:href="#linear-gradient-19"/>
    <linearGradient id="linear-gradient-26" x1="39.44" y1="94.38" x2="37.48" y2="102.08" xlink:href="#linear-gradient"/>
    <linearGradient id="linear-gradient-27" x1="-2507.3" y1="161.01" x2="-2496.44" y2="161.01" gradientTransform="translate(-2474.27) rotate(-180) scale(1 -1)" xlink:href="#linear-gradient"/>
    <linearGradient id="linear-gradient-28" x1="-2513.88" y1="161.82" x2="-2507.6" y2="161.82" gradientTransform="translate(-2474.27) rotate(-180) scale(1 -1)" xlink:href="#linear-gradient"/>
    <linearGradient id="linear-gradient-29" x1="58.44" y1="94.82" x2="46.95" y2="115.46" xlink:href="#linear-gradient"/>
    <linearGradient id="linear-gradient-30" x1="-2511.98" y1="120.71" x2="-2508.13" y2="120.71" gradientTransform="translate(-2474.27) rotate(-180) scale(1 -1)" xlink:href="#linear-gradient"/>
    <linearGradient id="linear-gradient-31" x1="-2505.86" y1="115.74" x2="-2477.87" y2="117.64" gradientTransform="translate(-2474.27) rotate(-180) scale(1 -1)" xlink:href="#linear-gradient"/>
  </defs>
  <g id="Layer_1-2" data-name="Layer 1">
    <g>
      <g>
        <path class="cls-25" d="M219.11,129.99c-1.25-4.07-3.45-7.7-6.33-10.63-3.64-3.71-8.38-6.33-13.67-7.37,0,0-9.58-1.77-18.52-4.54-3.9,4.08-14.46,12.72-33.6,12.26-18.14-.44-26.32-7.78-29.45-11.78-7.44,2.5-14.91,4.06-14.91,4.06-9.47,1.87-21.51,8.77-24.34,18-3.35,10.92-6.78,30.55-5.54,43.67H224.64c1.24-13.12-2.19-32.75-5.54-43.67Z"/>
        <path class="cls-32" d="M146.99,119.71c19.14,.47,29.7-8.18,33.6-12.26-7.76-2.4-15.04-5.56-15.16-8.98l-1.17-32.95h-30.82l-1.17,32.95c-.13,3.65-7.42,7.01-14.74,9.46,3.13,4,11.31,11.34,29.45,11.78Z"/>
      </g>
      <g>
        <path class="cls-1" d="M121.82,36.3s3.66,37.31,11.71,46.82c0,0,24.14,2.2,32.92-2.93,0,0,6.22-18.66,5.49-43.53,0,0,1.2-22.64-23.78-24.51-29.26-2.19-26.34,24.14-26.34,24.14Z"/>
        <path class="cls-31" d="M169.38,48.01s2.19-6.58,5.85-6.58-.73,17.56-5.85,17.56v-10.97Z"/>
        <path class="cls-39" d="M125.15,49.74s-3.06-6.23-6.69-5.74c-3.62,.49,3.09,17.3,8.17,16.61l-1.48-10.87Z"/>
        <path class="cls-25" d="M124.83,61.43c.89,7.31,3.37,20.29,10.09,28.1,.91,1.06,2.22,1.69,3.62,1.76,5,.24,17.8,.67,25.01-.77,1.8-.36,3.27-1.62,3.86-3.36,1.66-4.86,4.46-12.36,3.95-28.71-.03-.84-1.18-1.06-1.5-.28l-4.54,10.81c-2.41,6.4-4.82,5.02-6.51,2.51-2.02-3.01-5.4-4.82-9.03-4.82h0c-3.41,0-6.58,1.62-8.67,4.31-.03,.04-.06,.07-.09,.11-1.86,2.34-5.49,2.14-7.12-.37l-6.61-10.18c-.78-1.2-2.64-.52-2.47,.9Z"/>
        <path class="cls-25" d="M125.82,48.47c-1.41,.62-3.04-.07-3.57-1.52-.92-2.54-2.34-6.41-3.49-9.36-1.87-4.81-11.75-10.95-1.34-22.97,10.42-12.02,16.31,1.03,23.25-2.43,6.93-3.45,15.21-11.46,22.42-6.39s2.4,9.88,4.81,11.22c2.4,1.34,6.14-5.61,8.81,3.74,2.07,7.23-1.3,20.55-2.93,26.2-.4,1.37-1.96,2.03-3.22,1.35h0c-.66-.36-1.1-1.03-1.16-1.78-.18-2.13-.6-6.85-1.24-12.15-.86-7.21-7.44,2.78-20.28,4.19-12.84,1.41-11.77-5.53-17.91-5.53-2.59,0-2.67,9.04-2.58,12.94,.02,1.07-.6,2.05-1.58,2.48h0Z"/>
      </g>
      <g>
        <path class="cls-6" d="M143.2,61.22h0c2.85-.27,5.49,1.54,6.26,4.3,3.62,12.89,12.3,49.73,3.96,81.97-1.27,4.9-6.04,8.06-11.04,7.35-.06,0-.13-.02-.2-.03-3.05-.45-5.85-1.92-7.99-4.14-3.67-3.81-11.18-10.42-22.01-14.36-5.7-2.07-8.38-8.59-5.73-14.05,7.13-14.7,19.52-40.14,26.58-54.11,1.97-3.9,5.81-6.52,10.17-6.93Z"/>
        <path class="cls-21" d="M115.76,129.41c-2.44-.26-4.08-2.71-4.39-4.89-.33-2.33,.41-4.63,1.19-6.79,3.04-8.41,7.25-16.47,11.31-24.28,3.83-7.35,7.79-14.95,10.77-22.82l.25,.09c-2.99,7.88-6.95,15.49-10.78,22.84-4.06,7.8-8.26,15.86-11.3,24.24-.77,2.13-1.5,4.39-1.18,6.66,.29,2.07,1.84,4.41,4.15,4.66l-.03,.27Z"/>
      </g>
      <g>
        <path class="cls-40" d="M91.78,120.52c-10.73,24.42-19.4,53.14-19.4,53.14h26l9.99-49.83c-6.85,.06-12.65-1.67-16.58-3.3Z"/>
        <path class="cls-24" d="M144.53,63.36c-.58-1.27-2.05-1.87-3.36-1.38l-16.8,6.21c-1.92,.71-3.54,2.06-4.58,3.83l-11.5,19.53c-5.48,6.01-11.24,16.98-16.52,28.98,3.93,1.63,9.74,3.36,16.58,3.3l4.98-24.84c.67-3.36,2.92-6.2,6.03-7.63,3.49-1.6,7.73-3.89,8.8-5.98,1.88-3.69,5.2-11.2,12.95-14.41,4.92-2.03,4.43-5.42,3.41-7.62Z"/>
      </g>
      <g>
        <path class="cls-25" d="M229.64,169.8s.25,1.41,.37,2.81c.05,.55-.37,1.02-.92,1.04-1.86,.08-5.84,.23-7.27,.16-.21,0-.36-.23-.28-.43h0c.07-.17,.2-.3,.36-.38l6.58-3.02,1.16-.19Z"/>
        <path class="cls-12" d="M229.84,168.97l-.2,1.69s-1.15,.54-1.94-.07l.48-1.88,1.66,.26Z"/>
        <path class="cls-25" d="M229.69,137.23c.09,.44,.46,22-1.84,31.67-.04,.16,.04,.32,.19,.38,.35,.14,1.05,.35,1.88,.38,.26,0,.49-.16,.56-.41,.66-2.24,3.82-13.48,4.23-24.21,.46-11.99,0-.41,0-.41l-.27-7.41h-4.75Z"/>
        <path class="cls-25" d="M237.2,170.54s.4,.71,.78,2.61c.07,.34-.17,.67-.52,.7-.61,.06-1.56,.14-2.32,.13-.35,0-.62-.31-.58-.65,.08-.69,.35-1.83,1.15-2.71l1.48-.08Z"/>
        <path class="cls-26" d="M237.55,168.37l-.47,2.55s-.46,.34-1.38,.09l.22-2.75,1.62,.1Z"/>
        <path class="cls-25" d="M238.81,137.89c1.89,11.38-.41,28.12-1.18,31.4-.05,.2-.21,.35-.41,.39-.35,.06-.91,.1-1.47-.06-.19-.06-.33-.23-.34-.43-.1-2.65,.08-18.91-1.67-25.34-.09-.33-.29-.61-.56-.81l-3.41-2.42-.26-3.92,9.31,1.19Z"/>
        <g>
          <path class="cls-29" d="M226.8,116.33c5.65-.09,11.88,1.48,11.88,1.48,1.68,9.83,.29,21.16,.29,21.16-4.37,1.15-9.31-.7-9.31-.7-.73-4.11-4.12-15.67-4.12-15.67-2.76-.34-5.03-1.14-6.91-2.19,1.43-1.66,2.1-3.76,2.39-5.01,2,.62,4.02,.95,5.76,.92Z"/>
          <path class="cls-41" d="M210.11,108.01c.55-.67,1.26-.35,1.26-.35,.83,3.51,5.19,6.36,9.67,7.75-.29,1.25-.97,3.35-2.39,5.01-7.43-4.18-8.53-12.41-8.53-12.41Z"/>
        </g>
        <g>
          <path class="cls-28" d="M210.25,108.18c-.06,.18,.61,.47,1.01-.29,.01-.36,.23-1.91,.02-2.21-1.15-1.57-3.38-3.54-3.38-3.54-.38,.37-.07,.74-.07,.74l1.08,1.13c-.23,.41-.5,.75-.63,1.25-.1,.38-.04,.78,.15,1.12,.19,.34,.45,.79,.69,1.14,.46,.66,1.13,.66,1.13,.66Z"/>
          <path class="cls-14" d="M209.38,104.74l.99,.84,.31,.83-.88,.98s-.3-1.65-.52-2.01c-.22-.36-.11-.53,.1-.64Z"/>
        </g>
        <path class="cls-29" d="M236.52,123.29l2.17-5.47s5.28,3.59,6.14,8.13c-1,.07-2.81,.33-4.59,1.23-.39-2.15-3.72-3.89-3.72-3.89Z"/>
        <path class="cls-13" d="M236.33,129.38s2.57,1.36,3.5-.46c.33-.64,.51-1.18,.41-1.75,1.78-.9,3.59-1.16,4.59-1.23,.26,1.37,.22,2.89-.68,4.3-2.71,4.23-8.6,.59-8.6,.59l.78-1.46Z"/>
        <path class="cls-42" d="M232.52,111.75l1.8,5.2c.03,.09,0,.18-.09,.23-.49,.27-2.26,1.05-4.38-.29-.22-.14-.37-.37-.41-.63l-.58-4.5h3.66Z"/>
        <g>
          <path class="cls-43" d="M228.61,106.93s-1.97,3.72-1.72,5.22c.25,1.5,2.7,1.39,4.84,.17l1.49-4.01-4.61-1.38Z"/>
          <path class="cls-10" d="M231.63,110.35c-.09-.04-.12-.14-.07-.22,.16-.24,.45-.73,.55-1.17,0,0,.35-.23-.9-.53-1.26-.3-3.13-.77-3.53-1.84-.38-1.04,.63-3.67,2.24-1.58,.06,.08,.18,.08,.24,0,.26-.34,.96-1.06,1.92-.62,.9,.4,1,1.07,.99,1.4,0,.1,.08,.17,.18,.16,.46-.09,1.55-.16,2.06,.96,.42,.93,.15,1.45-.1,1.7-.08,.08-.05,.22,.07,.25,.3,.09,.69,.35,.65,1.05-.05,.97-1.14,.89-1.45,.84-.05,0-.1,.01-.14,.05-.27,.29-1.46,1.54-2.75,1.69-.11,.01-.2-.1-.16-.2l.56-1.63c.03-.08-.01-.16-.08-.19l-.28-.12Z"/>
          <path class="cls-7" d="M231.41,110.58s1.41-.96,1.51-.15c.1,.81-1.27,1.18-1.94,.87l.44-.72Z"/>
        </g>
        <path class="cls-19" d="M235.78,139.72c-.51,0-.93-.41-.93-.92l-.81-54.04c0-.52,.4-.94,.92-.95,.53,0,.94,.4,.95,.92l.81,54.04c0,.52-.4,.94-.92,.95,0,0,0,0-.01,0Z"/>
        <path class="cls-16" d="M238.12,132.03s.45-1.85,.27-2.51c-.18-.66-.53-1.5-1.71-1.31-1.17,.19-2.56,.68-2.56,.68,0,0,.07,.86,.96,.58l-.55,.43s.08,.69,.83,.32l-.51,.57s.32,.56,.88,.2c.55-.36,.82,1.27,2.39,1.05Z"/>
      </g>
      <g>
        <circle class="cls-40" cx="232.75" cy="44.59" r="44.59"/>
        <circle class="cls-4" cx="233.41" cy="44.33" r="36.52" transform="translate(164.86 271.8) rotate(-83.99)"/>
        <rect class="cls-40" x="191.96" y="38.6" width="84.95" height="12.45" transform="translate(31.47 170.43) rotate(-42.58)"/>
        <g>
          <g>
            <polygon class="cls-19" points="247.14 21.42 243.36 15.76 235.56 21.42 247.14 21.42"/>
            <rect class="cls-36" x="216.6" y="21.42" width="22.93" height="45.18"/>
            <rect class="cls-15" x="239.31" y="21.42" width="7.83" height="45.18"/>
            <polygon class="cls-15" points="239.31 21.42 216.6 21.42 220.66 15.76 243.36 15.76 239.31 21.42"/>
            <path class="cls-19" d="M243.36,15.76h-22.47v-4.06c0-.16,.13-.29,.29-.29h21.88c.16,0,.29,.13,.29,.29v4.06Z"/>
          </g>
          <g>
            <path class="cls-23" d="M213.45,62.58l41.88-22.77c1.95-1.06,4.39-.34,5.46,1.6,3.26,5.95,8.78,19.07,4.89,34.72-.55,2.2-2.79,3.52-4.97,2.92l-46.82-12.68c-1.79-.49-2.08-2.91-.44-3.8Z"/>
            <circle class="cls-29" cx="254.53" cy="66.6" r="3.43" transform="translate(-1.7 126.32) rotate(-27.78)"/>
            <path class="cls-29" d="M257.31,54.68c-.72,2.33-3.18,3.63-5.51,2.92-2.33-.72-3.63-3.18-2.92-5.51,.72-2.33,3.18-3.63,5.51-2.92,2.33,.72,3.63,3.18,2.92,5.51Z"/>
            <path class="cls-29" d="M251.42,61.32c-.28,.9-1.24,1.41-2.14,1.13-.9-.28-1.41-1.24-1.13-2.14,.28-.9,1.24-1.41,2.14-1.13,.9,.28,1.41,1.24,1.13,2.14Z"/>
            <path class="cls-29" d="M239.94,54.48c1.83-.47,3.7,.63,4.17,2.46,.47,1.83-.63,3.7-2.46,4.17-1.83,.47-3.7-.63-4.17-2.46-.47-1.83,.63-3.7,2.46-4.17Z"/>
            <path class="cls-5" d="M228.03,58.11c2.36-.61,4.76,.81,5.37,3.16,.61,2.36-.81,4.76-3.16,5.37-2.36,.61-4.76-.81-5.37-3.16-.61-2.36,.81-4.76,3.16-5.37Z"/>
            <path class="cls-8" d="M237.93,63.21c.92-.24,1.85,.31,2.09,1.23,.24,.92-.31,1.85-1.23,2.09-.92,.24-1.85-.31-2.09-1.23-.24-.92,.31-1.85,1.23-2.09Z"/>
          </g>
          <g>
            <path class="cls-2" d="M241.48,51.75c2.84,11.05-2.27,20.33-10.95,22.56s-17.63-3.43-20.47-14.48c-2.84-11.05,1.51-23.3,10.19-25.53,8.68-2.23,18.4,6.4,21.24,17.45Z"/>
            <path class="cls-18" d="M235.61,55.69c1.52,5.91-1.6,10.97-6.71,12.28-5.11,1.31-10.28-1.62-11.8-7.52-1.52-5.91,1.19-12.56,6.3-13.87,5.11-1.31,10.69,3.2,12.21,9.11Z"/>
          </g>
        </g>
      </g>
      <g>
        <circle class="cls-40" cx="44.59" cy="62.37" r="44.59" transform="translate(-23.83 96.97) rotate(-81.26)"/>
        <circle class="cls-4" cx="45.24" cy="62.11" r="36.52" transform="translate(-29.45 80.14) rotate(-67.5)"/>
        <rect class="cls-40" x="3.8" y="56.39" width="84.95" height="12.45" transform="translate(-30.16 47.81) rotate(-42.58)"/>
        <g>
          <path class="cls-23" d="M37.47,36.77c1.1,4.91,.13,9.3-2.15,9.81-2.29,.51-5.03-3.05-6.13-7.96-1.1-4.91-.13-9.3,2.15-9.81,2.29-.51,5.03,3.05,6.13,7.96Z"/>
          <path class="cls-23" d="M33.31,50.05c1.1,4.91,.13,9.3-2.15,9.81-2.29,.51-5.03-3.05-6.13-7.96-1.1-4.91-.13-9.3,2.15-9.81,2.29-.51,5.03,3.05,6.13,7.96Z"/>
          <path class="cls-23" d="M29.15,63.32c1.1,4.91,.13,9.3-2.15,9.81-2.29,.51-5.03-3.05-6.13-7.96-1.1-4.91-.13-9.3,2.15-9.81,2.29-.51,5.03,3.05,6.13,7.96Z"/>
          <path class="cls-23" d="M42.12,38.23c-3.7,3.4-5.42,7.56-3.83,9.29,1.59,1.72,5.87,.36,9.57-3.04,3.7-3.4,5.42-7.56,3.83-9.29-1.59-1.72-5.87-.36-9.57,3.04Z"/>
          <path class="cls-23" d="M37.96,51.5c-3.7,3.4-5.42,7.56-3.83,9.29,1.59,1.72,5.87,.36,9.57-3.04,3.7-3.4,5.42-7.56,3.83-9.29-1.59-1.72-5.87-.36-9.57,3.04Z"/>
          <path class="cls-23" d="M33.8,64.78c-3.7,3.4-5.42,7.56-3.83,9.29,1.59,1.72,5.87,.36,9.57-3.04,3.7-3.4,5.42-7.56,3.83-9.29-1.59-1.72-5.87-.36-9.57,3.04Z"/>
          <ellipse class="cls-23" cx="42.48" cy="28.76" rx="9.28" ry="3.62" transform="translate(2.32 60.69) rotate(-72.59)"/>
          <path class="cls-29" d="M50.06,16.68s.14,19.96-10.36,20.94l-.78,2.5s13.37-2.94,11.14-23.44Z"/>
          <path class="cls-29" d="M56.13,32.1c.09-.46-4.41,17.47-19.94,17.1l-.91,2.91s17.14-2.1,20.86-20.02Z"/>
          <path class="cls-29" d="M53.17,50.61c.28-.38-13.45,14.16-20.94,11.22l-.81,2.59s9.81,2.36,21.75-13.81Z"/>
          <path class="cls-29" d="M43.26,14.55s-11.51,16.31-3.45,23.1l-.78,2.5s-9.3-10.05,4.23-25.6Z"/>
          <path class="cls-29" d="M29.47,23.74c.18-.43-6.35,16.86,6.61,25.43l-.91,2.91s-12.87-11.5-5.7-28.34Z"/>
          <path class="cls-29" d="M21.33,40.63c-.01-.47,2.96,19.3,10.79,21.17l-.81,2.59s-9.4-3.66-9.98-23.76Z"/>
          <path class="cls-29" d="M40.04,35.43c-3.82,10.44-11.53,32.36-14.24,46.25-.13,.67,.75,.89,.97,.24,3.52-10.52,11.17-33.78,14.23-46.2,.17-.67-.72-.94-.96-.29Z"/>
        </g>
        <g>
          <path class="cls-38" d="M34.65,73.7s-2.68,1.6-4.69-.68c-1.96-2.23-10.04-11.16-20.54,1.15-.31,.36-.08,.93,.4,.96,1.16,.08,2.96,.44,4.46,1.75,2.42,2.12,14.87,4.21,18.02,1.66,3.15-2.55,2.36-4.84,2.36-4.84Z"/>
          <path class="cls-19" d="M12.07,73.28c-.09,0-.18-.05-.23-.13-.07-.12-.03-.27,.09-.34,.02-.02,.06-.05,.11-.1,2.28-2.05,8.52-6.15,17.06,.11,.11,.08,.14,.24,.06,.36-.08,.11-.24,.14-.36,.06-8.24-6.04-14.23-2.11-16.41-.14-.11,.1-.15,.13-.19,.16-.04,.02-.08,.03-.12,.03Zm-.12-.48s0,0-.01,0c0,0,0,0,.01,0Z"/>
          <path class="cls-19" d="M13.9,74.06c-.07,0-.15-.03-.2-.1-.09-.11-.07-.27,.04-.36,.06-.05,1.41-1.12,3.93-1.67,2.32-.5,6.1-.63,11,1.6,.13,.06,.19,.21,.13,.34-.06,.13-.21,.19-.34,.13-9.1-4.16-14.34-.04-14.39,0-.05,.04-.1,.06-.16,.06Z"/>
          <path class="cls-11" d="M11.96,83.34c-.26-.07-.28-.44-.03-.54,.96-.41,2.66-1.36,4.6-3.53,3-3.36,8.94-5.97,16.01-2.49l2.04,.03s2.09,13.36-22.61,6.53Z"/>
          <path class="cls-19" d="M24.43,84.4c-1.07,.1-2.22,.13-3.44,.07-3.56-.17-6.51-.97-6.54-.98-.14-.04-.22-.18-.18-.32,.04-.14,.18-.22,.32-.18,.11,.03,11.54,3.13,16.73-1.84,.1-.1,.27-.09,.36,0,.1,.1,.09,.27,0,.36-1.67,1.6-4.14,2.57-7.25,2.87Z"/>
          <path class="cls-19" d="M23.99,82.89c-3.73,.36-6.49-.33-7.23-.54h-.02c-.1-.03-.19-.12-.2-.23-.01-.14,.09-.27,.23-.28,.05,0,.08,0,.13,.02,1.13,.33,7.14,1.81,14.03-1.38,.13-.06,.28,0,.34,.13,.06,.13,0,.28-.13,.34-2.57,1.19-5.02,1.74-7.16,1.95Z"/>
          <g>
            <path class="cls-20" d="M78.36,72.44c-1.44-1.35-3.2-2.64-5.32-3.81-14.12-7.81-27.95-3.36-35.63,2.62-7.69,5.98-7.71,6.09-5.85,7.74,1.96,1.74,1.1-.95,4.33-2.81,2.48-1.43,11.91-2.93,19.67,6.35,2.09,2.5,4.43,4.64,6.86,6.41,.4-12.53,12-15.83,15.96-16.5Z"/>
            <path class="cls-30" d="M78.36,72.44c-3.96,.67-15.56,3.97-15.96,16.5,6.59,4.8,13.78,6.78,18.01,5.29,.24-.08,2.67,.69,3.6-2.17,.79-2.43,2.51-12.01-5.65-19.62Z"/>
          </g>
          <ellipse class="cls-37" cx="71.87" cy="84.67" rx="2.03" ry="1.9"/>
          <circle class="cls-15" cx="72.09" cy="84.6" r="1.02"/>
          <path class="cls-3" d="M71.72,83.26c.19,.05,.29,.25,.24,.43-.05,.19-.25,.29-.43,.24-.19-.05-.29-.25-.24-.43,.05-.19,.25-.29,.43-.24Z"/>
          <circle class="cls-3" cx="72.1" cy="84.45" r=".15"/>
          <path class="cls-15" d="M73.95,91.83s.65,1.36,4.07,2.86c.87-.06,1.67-.21,2.38-.46,0,0-2.53,.05-6.45-2.4Z"/>
          <path class="cls-19" d="M60.6,75.91c-1.17,1.14-2.93,3.49-1.09,6.15,.08,.12,.27,.05,.26-.1-.13-1.1-.26-3.67,1.05-5.88,.08-.14-.1-.29-.22-.17Z"/>
          <path class="cls-19" d="M62.41,76.92c-.79,.82-1.77,2.41-.75,4.72,.07,.15,.29,.09,.27-.07-.13-1.06-.17-2.9,.7-4.48,.08-.14-.11-.28-.22-.16Z"/>
          <path class="cls-27" d="M39.13,64.71c-.54,.14-.63,.86-.14,1.13,.4,.22,.99,.41,1.84,.45,2.31,.1,2.69,1.52,3.75,1.47,1.06-.05,15.15-7.64,33.02,4,0,0-2.28-6.29-9.35-8.74-8.99-3.12-25,.63-29.11,1.69Z"/>
          <path class="cls-22" d="M40.52,84.19c-.42,0-.58-.54-.24-.78,1.85-1.28,5.59-3.91,7.05-5.43,1.98-2.06,4.42-4.68,7.12-3.91,2.7,.76-.51,.98-1.35,2.16-.84,1.18-1.5,5.82-5.04,7.05-2.45,.85-5.75,.94-7.55,.91Z"/>
          <path class="cls-19" d="M52.23,74.91c-.73,.87-1.51,1.7-2.32,2.5-.81,.8-1.64,1.57-2.51,2.31-.87,.73-1.76,1.44-2.72,2.07-.95,.63-1.95,1.2-3.02,1.62-.07,.03-.14,0-.17-.07-.02-.06,0-.13,.06-.16h0c.25-.14,.49-.27,.74-.4,.13-.06,.24-.14,.36-.21l.36-.22c.24-.14,.47-.3,.7-.46,.23-.16,.47-.31,.69-.48l.68-.5,.66-.52c.22-.17,.44-.35,.66-.53,.22-.18,.43-.36,.65-.54,.86-.72,1.7-1.48,2.53-2.24,.21-.19,.41-.38,.62-.58,.21-.19,.41-.39,.61-.58,.41-.39,.81-.78,1.22-1.18h0c.05-.05,.13-.05,.18,0,.05,.05,.05,.12,0,.17Z"/>
          <path class="cls-19" d="M51.6,76.72c-.13,.39-.3,.77-.49,1.14-.18,.37-.39,.73-.61,1.08-.22,.35-.46,.69-.71,1.02-.13,.16-.26,.32-.39,.48-.14,.16-.28,.31-.42,.46-.29,.3-.6,.59-.93,.84-.33,.26-.68,.5-1.05,.69-.37,.2-.76,.36-1.16,.48-.41,.11-.82,.18-1.24,.18-.04,0-.06-.03-.07-.06,0-.03,.02-.06,.05-.06h0c.4-.08,.78-.18,1.15-.33,.37-.15,.72-.34,1.06-.54,.67-.43,1.28-.95,1.83-1.53,.55-.58,1.05-1.21,1.52-1.87,.47-.65,.91-1.34,1.33-2.03h0s.06-.04,.09-.02c.03,.02,.04,.05,.03,.08Z"/>
        </g>
        <path class="cls-23" d="M38.13,83.31c.78-.94,1.9-1.48,3.1-1.61,.7-.08,1.41-.25,2.08-.52,2.79-1.1,3.86-3.41,3.06-5.43-.8-2.01-3.16-2.97-5.95-1.87-.67,.26-1.3,.62-1.87,1.04-.97,.72-2.15,1.09-3.36,.94-1.64-.2-3.51,.02-5.19,.69-3.75,1.48-5.18,4.59-4.11,7.29,1.07,2.71,4.24,3.99,7.99,2.51,1.69-.67,3.2-1.78,4.26-3.05Z"/>
        <path class="cls-29" d="M43.22,89.27c1.15-.42,2.38-.34,3.49,.14,.65,.28,1.34,.48,2.06,.59,2.97,.43,5.05-1.04,5.36-3.18,.31-2.14-1.26-4.15-4.23-4.58-.71-.1-1.44-.11-2.14-.02-1.2,.14-2.41-.13-3.39-.86-1.32-.99-3.05-1.73-4.85-1.99-3.99-.58-6.78,1.39-7.2,4.27-.42,2.88,1.69,5.57,5.68,6.15,1.79,.26,3.66,.05,5.21-.52Z"/>
      </g>
      <g>
        <path class="cls-44" d="M36.95,106.08s7.17,9.17-1.01,18.5l-3.07-.29s5.92-9.5,3.28-17.07l-3.03-.2c-.56-.04-1.08-.28-1.47-.67l-.87-.87c-.31-.31-.02-.83,.41-.73l5.76,1.33Z"/>
        <path class="cls-33" d="M33.03,150.99s-5.81,12.65-8.85,17.89c0,0-.6,3.3,0,4.33l.52,.23-2.41-.07s-.21-4.44-.05-4.68c.17-.25,.5-.23,.5-.23,0,0,1.03-8.17,4.02-9.92l2.9-9.97,3.37,2.42Z"/>
        <path class="cls-40" d="M25.72,174.07c0,.06-1.88,.03-2.9,.01-.38,0-.7-.27-.78-.64l-.77-4.06c-.07-.39,.17-.76,.55-.85l.43-.1s.61,.84,.42,1.64c-.19,.79-.37,2.85,.12,3.09,.49,.24,1.9,.28,1.9,.28,0,0,1,.1,1.03,.62Z"/>
        <path class="cls-40" d="M38.53,174.14c.19,.11,.11,.4-.11,.4-1.71-.02-5.55-.07-5.89-.21-.44-.18,.16-1.76,.79-2.3l3.49,1.14,1.71,.98Z"/>
        <path class="cls-9" d="M39.61,150.18s-3.75,18.15-4.81,21.69l2.51,1.58s-1.26-.21-2.19-.28c-.93-.07-1.79-1.14-1.79-1.14l.3-.48s.94-18.05,.71-20.1l5.27-1.27Z"/>
        <path class="cls-34" d="M48.92,107.85s.52,9.44-8.08,14.27l2.07,4.72s7.77-4.7,7.49-17.52c0-.38,.12-.74,.36-1.03l1.65-1.92c.63-.73,.87-1.72,.63-2.66l-.22-.87c-.07-.29-.4-.43-.66-.28l-.17,.1c-.55,.32-.99,.8-1.25,1.39l-.81,1.82c-.27,.59-.36,.7-.88,.68-.17,0-.34,0-.5,.05l-.86,.25,1.22,1.01Z"/>
        <path class="cls-6" d="M41.14,121.41c-1.44,.4-6.31,1.68-9.35,1.63l1.87,10.54-.15,1.72,6.09-.03s1.71-3.98,3.07-5.96c.39-.57,.1-1.26-.12-1.91l.3-.2c.31-.21,.44-.59,.33-.95l-1.48-4.54c-.08-.23-.32-.36-.55-.29Z"/>
        <path class="cls-40" d="M40.09,134.37l-.12,1.04s1.72,5.15-.86,17.19c0,0-5.59,1.58-10.18-2.21,0,0,1.3-11.36,1.65-11.89,1.76-2.64,2.94-3.21,2.94-3.21l.05-1.14s4.91,.89,6.52,.21Z"/>
        <path class="cls-35" d="M37.71,122.26s-1.27-3.9-1.27-3.9l-1.85,.17-.72,4.39s2.9,.59,3.85-.66Z"/>
        <path class="cls-17" d="M35.03,112.25c.12,.08,3.96,1.66,3.13,5.64-.05,.24-.21,.43-.42,.53-.56,.25-1.77,.68-3.22,.53-2.01-.2-3.32-3.71-3.27-4.73s2.56-2.74,3.78-1.98Z"/>
        <path class="cls-25" d="M36.29,120.58c0-.87-.18-1.7-.51-2.45-.37-.85-.29-1.83,.3-2.54,.97-1.16,1.32-2.63,.79-3.91-.83-2.01-3.51-2.81-5.97-1.79-1.75,.72-2.92,2.17-3.15,3.67-.14,.86-.6,1.63-1.29,2.15-.98,.75-1.73,1.79-2.12,2.99-.26,.81-.79,1.51-1.53,1.93-1.67,.95-3.07,2.43-3.91,4.32-2.12,4.74,.02,10.31,4.78,12.43,4.76,2.12,10.33,0,12.45-4.74,1.18-2.63,1.04-5.52-.13-7.93-.29-.61-.36-1.3-.11-1.93,.26-.68,.41-1.42,.41-2.2Z"/>
      </g>
    </g>
  </g>
</svg>