<svg xmlns="http://www.w3.org/2000/svg" xmlns:xlink="http://www.w3.org/1999/xlink" viewBox="0 0 303.17 138.01"><defs><style>.cls-1{isolation:isolate;}.cls-2{fill:#8c2c4b;}.cls-10,.cls-11,.cls-12,.cls-13,.cls-14,.cls-15,.cls-16,.cls-18,.cls-19,.cls-2,.cls-20,.cls-24,.cls-25,.cls-26,.cls-27,.cls-28,.cls-29,.cls-3,.cls-30,.cls-31,.cls-32,.cls-33,.cls-34,.cls-35,.cls-36,.cls-37,.cls-38,.cls-39,.cls-4,.cls-40,.cls-41,.cls-42,.cls-43,.cls-44,.cls-46,.cls-47,.cls-48,.cls-49,.cls-5,.cls-50,.cls-51,.cls-52,.cls-53,.cls-54,.cls-55,.cls-56,.cls-57,.cls-58,.cls-59,.cls-6,.cls-60,.cls-61,.cls-62,.cls-63,.cls-64,.cls-65,.cls-66,.cls-67,.cls-68,.cls-7,.cls-70,.cls-71,.cls-72,.cls-73,.cls-74,.cls-8,.cls-9{fill-rule:evenodd;}.cls-3{fill:url(#Áåçûìÿííûé_ãðàäèåíò_83);}.cls-4{fill:url(#Áåçûìÿííûé_ãðàäèåíò_18);}.cls-10,.cls-12,.cls-13,.cls-14,.cls-17,.cls-20,.cls-22,.cls-37,.cls-38,.cls-39,.cls-43,.cls-44,.cls-5,.cls-55,.cls-6,.cls-7,.cls-71,.cls-72,.cls-8,.cls-9{mix-blend-mode:multiply;}.cls-5{opacity:0.83;fill:url(#Áåçûìÿííûé_ãðàäèåíò_28);}.cls-6{opacity:0.96;fill:url(#Áåçûìÿííûé_ãðàäèåíò_28-2);}.cls-12,.cls-13,.cls-14,.cls-16,.cls-17,.cls-22,.cls-37,.cls-38,.cls-39,.cls-43,.cls-52,.cls-55,.cls-62,.cls-7,.cls-71,.cls-74{opacity:0.5;}.cls-7{fill:url(#Áåçûìÿííûé_ãðàäèåíò_28-3);}.cls-8,.cls-9{opacity:0.91;}.cls-8{fill:url(#Áåçûìÿííûé_ãðàäèåíò_99);}.cls-9{fill:url(#Áåçûìÿííûé_ãðàäèåíò_99-2);}.cls-10{opacity:0.72;fill:url(#Áåçûìÿííûé_ãðàäèåíò_99-3);}.cls-11{fill:url(#Áåçûìÿííûé_ãðàäèåíò_56);}.cls-12{fill:url(#Áåçûìÿííûé_ãðàäèåíò_99-4);}.cls-13{fill:url(#Áåçûìÿííûé_ãðàäèåíò_99-5);}.cls-14{fill:url(#Áåçûìÿííûé_ãðàäèåíò_99-6);}.cls-15,.cls-16{mix-blend-mode:screen;}.cls-15{fill:url(#Áåçûìÿííûé_ãðàäèåíò_43);}.cls-16{fill:url(#Áåçûìÿííûé_ãðàäèåíò_43-2);}.cls-18{fill:#e3d9d2;}.cls-19{fill:#df7668;}.cls-20{opacity:0.53;fill:url(#Áåçûìÿííûé_ãðàäèåíò_99-7);}.cls-21{fill:url(#Áåçûìÿííûé_ãðàäèåíò_49);}.cls-22,.cls-71{fill:#ff7968;}.cls-23,.cls-43,.cls-44{fill:#c1748d;}.cls-24{fill:#a23b58;}.cls-25{fill:url(#Áåçûìÿííûé_ãðàäèåíò_83-2);}.cls-26{fill:url(#Áåçûìÿííûé_ãðàäèåíò_50);}.cls-27{fill:url(#Áåçûìÿííûé_ãðàäèåíò_56-2);}.cls-28{fill:url(#Áåçûìÿííûé_ãðàäèåíò_87);}.cls-29{fill:url(#Áåçûìÿííûé_ãðàäèåíò_18-2);}.cls-30{fill:url(#Áåçûìÿííûé_ãðàäèåíò_56-3);}.cls-31{fill:url(#Áåçûìÿííûé_ãðàäèåíò_18-3);}.cls-32{fill:url(#Áåçûìÿííûé_ãðàäèåíò_18-4);}.cls-33{fill:url(#Áåçûìÿííûé_ãðàäèåíò_56-4);}.cls-34{fill:url(#Áåçûìÿííûé_ãðàäèåíò_56-5);}.cls-35{fill:#c34c58;}.cls-36{fill:#e2705b;}.cls-37{fill:url(#Áåçûìÿííûé_ãðàäèåíò_99-8);}.cls-38{fill:url(#Áåçûìÿííûé_ãðàäèåíò_99-9);}.cls-39{fill:url(#Áåçûìÿííûé_ãðàäèåíò_99-10);}.cls-40,.cls-52{fill:#791b40;}.cls-40,.cls-73{opacity:0.29;}.cls-41{fill:#ffc88b;}.cls-42{fill:url(#Áåçûìÿííûé_ãðàäèåíò_49-2);}.cls-44,.cls-72{opacity:0.3;}.cls-45{fill:url(#Áåçûìÿííûé_ãðàäèåíò_49-3);}.cls-46{fill:url(#Áåçûìÿííûé_ãðàäèåíò_83-3);}.cls-47{fill:url(#Áåçûìÿííûé_ãðàäèåíò_83-4);}.cls-48{fill:url(#Áåçûìÿííûé_ãðàäèåíò_18-5);}.cls-49{fill:#9c3b58;}.cls-50{fill:url(#Áåçûìÿííûé_ãðàäèåíò_83-5);}.cls-51{fill:#a74561;}.cls-53{fill:url(#Áåçûìÿííûé_ãðàäèåíò_56-6);}.cls-54{fill:url(#Áåçûìÿííûé_ãðàäèåíò_56-7);}.cls-55{fill:url(#Áåçûìÿííûé_ãðàäèåíò_99-11);}.cls-56{fill:url(#Áåçûìÿííûé_ãðàäèåíò_83-6);}.cls-57{fill:#7c2f4e;}.cls-58{fill:url(#Áåçûìÿííûé_ãðàäèåíò_93);}.cls-59,.cls-60{fill:#833960;}.cls-59{opacity:0.42;}.cls-61{fill:#a9a4ff;}.cls-62{fill:#9c6888;}.cls-63{fill:url(#Áåçûìÿííûé_ãðàäèåíò_168);}.cls-64{fill:url(#Áåçûìÿííûé_ãðàäèåíò_81);}.cls-65{fill:url(#Áåçûìÿííûé_ãðàäèåíò_69);}.cls-66{fill:url(#Áåçûìÿííûé_ãðàäèåíò_52);}.cls-67{fill:url(#Áåçûìÿííûé_ãðàäèåíò_69-2);}.cls-68{fill:url(#Áåçûìÿííûé_ãðàäèåíò_52-2);}.cls-69{fill:#b29abd;}.cls-70{fill:url(#Áåçûìÿííûé_ãðàäèåíò_49-4);}.cls-72{fill:url(#Áåçûìÿííûé_ãðàäèåíò_99-12);}.cls-73{fill:#a15f79;}.cls-74{fill:#fff;}</style><radialGradient id="Áåçûìÿííûé_ãðàäèåíò_83" cx="196.27" cy="8.53" r="56.87" gradientUnits="userSpaceOnUse"><stop offset="0.02" stop-color="#ffa874"/><stop offset="1" stop-color="#f49372"/></radialGradient><radialGradient id="Áåçûìÿííûé_ãðàäèåíò_18" cx="146.78" cy="5.83" r="54.8" gradientUnits="userSpaceOnUse"><stop offset="0.02" stop-color="#d4634d"/><stop offset="1" stop-color="#a94d61"/></radialGradient><linearGradient id="Áåçûìÿííûé_ãðàäèåíò_28" x1="146.41" y1="53.64" x2="146.41" y2="0.66" gradientUnits="userSpaceOnUse"><stop offset="0" stop-color="#fff"/><stop offset="1" stop-color="#d3b8d6"/></linearGradient><linearGradient id="Áåçûìÿííûé_ãðàäèåíò_28-2" x1="147.68" y1="53.64" x2="147.68" y2="2.86" xlink:href="#Áåçûìÿííûé_ãðàäèåíò_28"/><linearGradient id="Áåçûìÿííûé_ãðàäèåíò_28-3" x1="172.84" y1="90.69" x2="238.98" y2="90.69" xlink:href="#Áåçûìÿííûé_ãðàäèåíò_28"/><linearGradient id="Áåçûìÿííûé_ãðàäèåíò_99" x1="151.02" y1="102.48" x2="151.02" y2="80.75" gradientUnits="userSpaceOnUse"><stop offset="0" stop-color="#d3b8d6"/><stop offset="1" stop-color="#fff"/></linearGradient><linearGradient id="Áåçûìÿííûé_ãðàäèåíò_99-2" x1="159.74" y1="102.48" x2="159.74" y2="80.75" xlink:href="#Áåçûìÿííûé_ãðàäèåíò_99"/><linearGradient id="Áåçûìÿííûé_ãðàäèåíò_99-3" x1="163.48" y1="8.17" x2="201.35" y2="8.17" xlink:href="#Áåçûìÿííûé_ãðàäèåíò_99"/><radialGradient id="Áåçûìÿííûé_ãðàäèåíò_56" cx="176.86" cy="0.26" r="16.84" gradientUnits="userSpaceOnUse"><stop offset="0" stop-color="#ffcf84"/><stop offset="0.98" stop-color="#ffb88b"/></radialGradient><linearGradient id="Áåçûìÿííûé_ãðàäèåíò_99-4" x1="165.03" y1="3.9" x2="200.97" y2="3.9" xlink:href="#Áåçûìÿííûé_ãðàäèåíò_99"/><linearGradient id="Áåçûìÿííûé_ãðàäèåíò_99-5" x1="165.03" y1="8.1" x2="192.98" y2="8.1" xlink:href="#Áåçûìÿííûé_ãðàäèåíò_99"/><linearGradient id="Áåçûìÿííûé_ãðàäèåíò_99-6" x1="215.98" y1="97.65" x2="215.98" y2="78.99" xlink:href="#Áåçûìÿííûé_ãðàäèåíò_99"/><linearGradient id="Áåçûìÿííûé_ãðàäèåíò_43" x1="168.46" y1="38.2" x2="217.9" y2="38.2" gradientUnits="userSpaceOnUse"><stop offset="0"/><stop offset="1" stop-color="#9c4033"/></linearGradient><linearGradient id="Áåçûìÿííûé_ãðàäèåíò_43-2" x1="192.98" y1="84.22" x2="238.98" y2="84.22" xlink:href="#Áåçûìÿííûé_ãðàäèåíò_43"/><linearGradient id="Áåçûìÿííûé_ãðàäèåíò_99-7" x1="140.47" y1="20.93" x2="155.98" y2="20.93" xlink:href="#Áåçûìÿííûé_ãðàäèåíò_99"/><linearGradient id="Áåçûìÿííûé_ãðàäèåíò_49" x1="202.33" y1="79.47" x2="202.33" y2="46.06" gradientUnits="userSpaceOnUse"><stop offset="0.03" stop-color="#f7e8e8"/><stop offset="1" stop-color="#fff2e3"/></linearGradient><radialGradient id="Áåçûìÿííûé_ãðàäèåíò_83-2" cx="80.36" cy="67.08" r="42.72" xlink:href="#Áåçûìÿííûé_ãðàäèåíò_83"/><linearGradient id="Áåçûìÿííûé_ãðàäèåíò_50" x1="26.33" y1="138.01" x2="26.33" y2="65.74" xlink:href="#Áåçûìÿííûé_ãðàäèåíò_18"/><radialGradient id="Áåçûìÿííûé_ãðàäèåíò_56-2" cx="57.6" cy="61.03" r="30.26" xlink:href="#Áåçûìÿííûé_ãðàäèåíò_56"/><radialGradient id="Áåçûìÿííûé_ãðàäèåíò_87" cx="56.95" cy="61.53" r="28.46" gradientUnits="userSpaceOnUse"><stop offset="0.02" stop-color="#bd4d4d"/><stop offset="1" stop-color="#9f3e54"/></radialGradient><radialGradient id="Áåçûìÿííûé_ãðàäèåíò_18-2" cx="38.47" cy="54.1" r="10.69" xlink:href="#Áåçûìÿííûé_ãðàäèåíò_18"/><radialGradient id="Áåçûìÿííûé_ãðàäèåíò_56-3" cx="70.15" cy="38.77" r="28.83" xlink:href="#Áåçûìÿííûé_ãðàäèåíò_56"/><radialGradient id="Áåçûìÿííûé_ãðàäèåíò_18-3" cx="39.37" cy="41.17" r="3.12" xlink:href="#Áåçûìÿííûé_ãðàäèåíò_18"/><radialGradient id="Áåçûìÿííûé_ãðàäèåíò_18-4" cx="8.18" cy="38" r="16.08" xlink:href="#Áåçûìÿííûé_ãðàäèåíò_18"/><radialGradient id="Áåçûìÿííûé_ãðàäèåíò_56-4" cx="47.62" cy="25.98" r="18.96" xlink:href="#Áåçûìÿííûé_ãðàäèåíò_56"/><radialGradient id="Áåçûìÿííûé_ãðàäèåíò_56-5" cx="47.43" cy="34.44" r="12.09" xlink:href="#Áåçûìÿííûé_ãðàäèåíò_56"/><linearGradient id="Áåçûìÿííûé_ãðàäèåíò_99-8" x1="52.66" y1="128.38" x2="104.86" y2="128.38" xlink:href="#Áåçûìÿííûé_ãðàäèåíò_99"/><linearGradient id="Áåçûìÿííûé_ãðàäèåíò_99-9" x1="10.33" y1="133.12" x2="52.66" y2="133.12" xlink:href="#Áåçûìÿííûé_ãðàäèåíò_99"/><linearGradient id="Áåçûìÿííûé_ãðàäèåíò_99-10" x1="2.89" y1="72.3" x2="47.3" y2="72.3" xlink:href="#Áåçûìÿííûé_ãðàäèåíò_99"/><linearGradient id="Áåçûìÿííûé_ãðàäèåíò_49-2" x1="85.03" y1="125.39" x2="85.03" y2="108.97" xlink:href="#Áåçûìÿííûé_ãðàäèåíò_49"/><linearGradient id="Áåçûìÿííûé_ãðàäèåíò_49-3" x1="81.65" y1="105.23" x2="81.65" y2="73.15" xlink:href="#Áåçûìÿííûé_ãðàäèåíò_49"/><radialGradient id="Áåçûìÿííûé_ãðàäèåíò_83-3" cx="246.83" cy="111.06" r="29.41" xlink:href="#Áåçûìÿííûé_ãðàäèåíò_83"/><radialGradient id="Áåçûìÿííûé_ãðàäèåíò_83-4" cx="246.24" cy="86.54" r="28.99" xlink:href="#Áåçûìÿííûé_ãðàäèåíò_83"/><radialGradient id="Áåçûìÿííûé_ãðàäèåíò_18-5" cx="169.75" cy="86.68" r="25.43" xlink:href="#Áåçûìÿííûé_ãðàäèåíò_18"/><radialGradient id="Áåçûìÿííûé_ãðàäèåíò_83-5" cx="249.1" cy="108.8" r="30.2" xlink:href="#Áåçûìÿííûé_ãðàäèåíò_83"/><radialGradient id="Áåçûìÿííûé_ãðàäèåíò_56-6" cx="215.71" cy="86.18" r="48.61" xlink:href="#Áåçûìÿííûé_ãðàäèåíò_56"/><radialGradient id="Áåçûìÿííûé_ãðàäèåíò_56-7" cx="249.1" cy="108.56" r="29.92" xlink:href="#Áåçûìÿííûé_ãðàäèåíò_56"/><linearGradient id="Áåçûìÿííûé_ãðàäèåíò_99-11" x1="203.56" y1="134.58" x2="286.05" y2="134.58" xlink:href="#Áåçûìÿííûé_ãðàäèåíò_99"/><radialGradient id="Áåçûìÿííûé_ãðàäèåíò_83-6" cx="248.79" cy="116.41" r="38.55" xlink:href="#Áåçûìÿííûé_ãðàäèåíò_83"/><linearGradient id="Áåçûìÿííûé_ãðàäèåíò_93" x1="234.79" y1="136.42" x2="234.79" y2="84.21" gradientUnits="userSpaceOnUse"><stop offset="0.03" stop-color="#dcc3cc"/><stop offset="1" stop-color="#f1e8f0"/></linearGradient><linearGradient id="Áåçûìÿííûé_ãðàäèåíò_168" x1="103.01" y1="135.16" x2="145.75" y2="135.16" gradientUnits="userSpaceOnUse"><stop offset="0.03" stop-color="#ecc5c4"/><stop offset="1" stop-color="#fff2e3"/></linearGradient><radialGradient id="Áåçûìÿííûé_ãðàäèåíò_81" cx="138.75" cy="97.67" r="40.47" gradientUnits="userSpaceOnUse"><stop offset="0.02" stop-color="#ffa874"/><stop offset="0.82" stop-color="#ec8672"/><stop offset="1" stop-color="#f38272"/></radialGradient><linearGradient id="Áåçûìÿííûé_ãðàäèåíò_69" x1="96.09" y1="68.44" x2="152.72" y2="68.44" gradientUnits="userSpaceOnUse"><stop offset="0.03" stop-color="#cfacb8"/><stop offset="1" stop-color="#e5d4e3"/></linearGradient><linearGradient id="Áåçûìÿííûé_ãðàäèåíò_52" x1="96.09" y1="65.42" x2="152.72" y2="65.42" gradientUnits="userSpaceOnUse"><stop offset="0.03" stop-color="#f6e3e3"/><stop offset="1" stop-color="#fff2e3"/></linearGradient><linearGradient id="Áåçûìÿííûé_ãðàäèåíò_69-2" x1="97.41" y1="60.95" x2="150.74" y2="60.95" xlink:href="#Áåçûìÿííûé_ãðàäèåíò_69"/><linearGradient id="Áåçûìÿííûé_ãðàäèåíò_52-2" x1="97.41" y1="56.68" x2="150.74" y2="56.68" xlink:href="#Áåçûìÿííûé_ãðàäèåíò_52"/><linearGradient id="Áåçûìÿííûé_ãðàäèåíò_49-4" x1="131" y1="116.18" x2="131" y2="88.1" gradientTransform="translate(2.34 -2.29) rotate(0.85)" xlink:href="#Áåçûìÿííûé_ãðàäèåíò_49"/><linearGradient id="Áåçûìÿííûé_ãðàäèåíò_99-12" x1="117.32" y1="135.61" x2="117.32" y2="80.05" xlink:href="#Áåçûìÿííûé_ãðàäèåíò_99"/></defs><g class="cls-1"><g id="Layer_1" data-name="Layer 1"><path class="cls-2" d="M130.31,40.85l45.17,1,8.09-39s-35.38-4.62-36.93-1.81S126.9,17.67,125.38,22.24,130.31,40.85,130.31,40.85Z"/><path class="cls-3" d="M169.43,102.48s.56-43.12,0-48.58c-.26-2.58-4-14.17-7.76-25.65-4.23-12.76-8.61-25.39-8.61-25.39h54.06s21.67,42.45,23.65,48.56S239,92.17,239,92.17Z"/><path class="cls-4" d="M169.43,102.48l-36.83-.76s1.5-41.19,2.37-49S147.81,4.31,147.81,4.31l-2.72-.46s-18.33,16.9-18.66,19.35,2.31,13.68,3.3,14S140.91,14,140.91,14l2.94,1.27S132.13,40,130.31,40.85s-7-14.54-7.24-17.62S146.25,0,146.25,0l6.81,2.86s14.62,38.78,16.37,51S169.43,102.48,169.43,102.48Z"/><path class="cls-5" d="M137.73,53.64l.51-5.28s6.11-29.4,11.67-45.5l-3.27-1.81s-20.38,18.82-21.26,21.19,4.41,16.9,4.41,16.9-5.95-13.76-5.4-16.85S146.64.66,146.64.66s5.44,2.42,5.83,3,16,50,16,50Z"/><polygon class="cls-6" points="152.47 3.66 157.63 41.03 137.73 53.65 149.91 2.86 152.47 3.66"/><path class="cls-7" d="M239,92.17S201,80.75,193,79c-6.6-.62-20.14,23.41-20.14,23.41Z"/><path class="cls-8" d="M169.43,102.48s-17.18-22.12-19.38-21.73-17.45,21-17.45,21Z"/><path class="cls-9" d="M155.5,102.19l-5.45-21.44s6.56,3.76,19.38,21.73Z"/><path class="cls-10" d="M163.48,2.86s31.15,11.58,34.45,10.55,3.42-10.55,3.42-10.55Z"/><path class="cls-11" d="M146.25,0l52.67.66s6,1,8.2,2.2L183.07,4.51l-30-1.65Z"/><polygon class="cls-12" points="165.03 3.52 200.97 3.29 183.57 4.51 165.03 3.52"/><path class="cls-13" d="M165,3.52l8,.5s12.72,5.93,20,8.66C193,12.68,178.36,8.14,165,3.52Z"/><path class="cls-14" d="M201.2,97.65S199.37,89.43,193,79a405.88,405.88,0,0,1,46,13.18Z"/><polygon class="cls-15" points="172.84 40.69 189.5 45.96 217.9 44.39 168.46 30.43 172.84 40.69"/><polygon class="cls-16" points="192.98 76.28 213.53 77.69 238.98 92.17 192.98 76.28"/><g class="cls-17"><path class="cls-18" d="M182,36a.8.8,0,0,0,1.07.75.76.76,0,0,0,.61-.92,1,1,0,0,0-1-.78A.87.87,0,0,0,182,36Z"/><path class="cls-18" d="M198.32,42.46a1.34,1.34,0,0,1,1.29-1.06,2.05,2.05,0,0,1,1.33.34,1,1,0,0,1,.52,1.2,2.16,2.16,0,0,1-.41.62c-.21.17-.63,0-.86,0a1.45,1.45,0,0,1-.9-.5C199,42.82,198.3,43,198.32,42.46Z"/><path class="cls-18" d="M182.46,33.48c-.37.15-.91.73-.36,1a2.24,2.24,0,0,0,1.46-.23c1-.77-.59-1.44-1.25-.62Z"/><path class="cls-18" d="M183,38.45c.37-.65,1.05.09.61.46a.42.42,0,0,1-.68-.32Z"/><path class="cls-18" d="M184,36c.25-.44.7.06.41.3a.28.28,0,0,1-.46-.21Z"/><path class="cls-18" d="M173.34,31.25c-.84,1.14.71,2.47,1.32,1.09.33-.73-.31-1.63-1-1.09Z"/><path class="cls-18" d="M175.9,34.54c-.11-.22-.22-.16-.34,0s-.06.28.08.46c.31.4.59.38,1,.11s.93-.84.3-1.14a1.06,1.06,0,0,0-1,.26Z"/><path class="cls-18" d="M174.51,35c-.06-.56.78.16.41.47s-.51-.29-.41-.51Z"/><path class="cls-18" d="M176.2,33c.23.37.71-.15.54-.4s-.5.19-.58.33Z"/><path class="cls-18" d="M167.27,39.7c.14-.47.71,0,.78.26a.88.88,0,0,1-.7,1c-.68.06-.86-1-.26-1.23Z"/><path class="cls-18" d="M173.6,40.54c-.4.58,1,.71,1,0,0-.52-.8-.52-1-.08Z"/><path class="cls-18" d="M167.93,29.05a.54.54,0,0,1,.52-.83c.55.08.56.84.38,1.22a.61.61,0,1,1-1.08-.53Z"/><path class="cls-18" d="M176.05,27.26c-.49,1.15,1.4.75,1.5-.18C177.68,26,176.19,26.25,176.05,27.26Z"/><path class="cls-18" d="M201.35,40.91c-.53.73.87,1.08,1,.16A.74.74,0,0,0,201.2,41Z"/><path class="cls-18" d="M194.05,49.73a3.86,3.86,0,0,1,5.06-1c.43.29,1,.81.53,1.29s-2.55,0-3.13,0A5.88,5.88,0,0,1,194.05,49.73Z"/><path class="cls-18" d="M190,49c.09.67,1.28.44,1.1-.12-.11-.37-.76-.46-.88-.11Z"/><path class="cls-18" d="M159.82,16.41c-.22,1,1.11.83,1.1,0s-.91-.94-1.1-.22Z"/><path class="cls-18" d="M174.66,44.82a.8.8,0,0,1,.43-.34c.69.91-.84,1.52-.43.45Z"/><path class="cls-18" d="M195.79,16c-1,2.7,3.39.82,4-.43s-1-1.5-2-1.33A2.36,2.36,0,0,0,195.79,16Z"/><path class="cls-18" d="M200,16.6c.11-.6,1.23-1.12,1.09-.21-.08.51-.8.85-1,.3Z"/><path class="cls-18" d="M165.38,8.59c-1.11,1.55,3.55,1.57,3.77,0s-3.35-1-3.86-.12Z"/><path class="cls-18" d="M168.66,6.76c.09-1,1.43-.54,1.14,0s-.9.13-1.14-.14Z"/><path class="cls-18" d="M172.22,7.91a2.93,2.93,0,0,0,1.24-.29c-.11-.87-1.19-.67-1.44,0,0,.14.12.12.2.2Z"/><path class="cls-18" d="M160,9.74c0-.36.1-.54.46-.56.46.37.34,1.1-.27,1Z"/><path class="cls-18" d="M192,41.24c-1.66,1.4,1.93,1,.31.2Z"/><path class="cls-18" d="M184.93,45c-.41.42-.26,1.29.47,1,.56-.24.44-1.22-.25-.9Z"/><path class="cls-18" d="M188.27,47.3c.14-.47.72-.47.69,0s-.41.35-.54.08Z"/><path class="cls-18" d="M222.36,71.88c.11.58.4.89,1.08.75a.76.76,0,0,0,.6-.92,1,1,0,0,0-1-.78A.87.87,0,0,0,222.36,71.88Z"/><path class="cls-18" d="M193.52,88.78c.06-.64.73-1,1.29-1.06a2,2,0,0,1,1.33.35,1,1,0,0,1,.52,1.19,2.36,2.36,0,0,1-.4.62c-.21.17-.63.06-.87,0a1.53,1.53,0,0,1-.9-.5C194.22,89.15,193.5,89.35,193.52,88.78Z"/><path class="cls-18" d="M222.79,69.4c-.38.16-.91.74-.36,1a2.32,2.32,0,0,0,1.46-.23c1-.78-.59-1.45-1.26-.63Z"/><path class="cls-18" d="M223.28,74.38c.37-.65,1,.09.6.46-.29.25-.63,0-.68-.32Z"/><path class="cls-18" d="M224.28,71.91c.25-.43.7.06.4.31a.28.28,0,0,1-.45-.22Z"/><path class="cls-18" d="M211.76,73.77c-.85,1.14.7,2.47,1.31,1.09.33-.73-.3-1.63-1-1.09Z"/><path class="cls-18" d="M214.32,77.06c-.12-.22-.22-.16-.34,0s-.07.28.07.46c.32.4.6.38,1,.11s.92-.84.3-1.14a1.07,1.07,0,0,0-1,.26Z"/><path class="cls-18" d="M212.93,77.5c-.07-.56.77.16.4.47s-.5-.29-.4-.51Z"/><path class="cls-18" d="M214.61,75.56c.23.37.71-.15.54-.4s-.5.19-.58.33Z"/><path class="cls-18" d="M166.27,91.13c-.4.59,1,.71.95.05s-.79-.53-.95-.09Z"/><path class="cls-18" d="M214.46,69.78c-.48,1.15,1.4.75,1.5-.18C216.09,68.48,214.6,68.77,214.46,69.78Z"/><path class="cls-18" d="M196.56,87.23c-.54.73.86,1.09,1,.17a.73.73,0,0,0-1.13-.09Z"/><path class="cls-18" d="M189.25,96.05a3.84,3.84,0,0,1,5.06-1c.43.29,1,.81.53,1.28s-2.54,0-3.13,0A5.88,5.88,0,0,1,189.25,96.05Z"/><path class="cls-18" d="M182.62,99.56c.09.68,1.28.44,1.1-.11-.11-.37-.76-.47-.87-.11Z"/><path class="cls-18" d="M167.33,95.41a.74.74,0,0,1,.43-.33c.69.9-.83,1.51-.43.44Z"/><path class="cls-18" d="M232.73,67c-1.67,1.41,1.93,1,.31.2Z"/><path class="cls-18" d="M177.6,95.61c-.41.42-.26,1.29.48,1,.56-.24.43-1.22-.25-.91Z"/><path class="cls-18" d="M180.94,97.89c.14-.46.72-.47.69,0s-.41.35-.53.08Z"/><path class="cls-18" d="M155.68,27.7a1.64,1.64,0,0,0,.59-.58c-.39-.34-.41-.08-.59.25Z"/></g><path class="cls-19" d="M169.43,102.48h.78s1.83-41,.56-47.67S154.36,2.86,154.36,2.86L146.25,0l6.81,2.86s14.48,40.64,16.37,51S169.43,102.48,169.43,102.48Z"/><polygon class="cls-20" points="140.47 38.2 155.97 35.51 152.47 3.66 147.83 11.56 140.47 38.2"/><ellipse class="cls-21" cx="202.33" cy="62.77" rx="13.42" ry="16.71"/><ellipse class="cls-22" cx="203.26" cy="62.77" rx="11.09" ry="13.81"/><g class="cls-17"><path class="cls-23" d="M203.26,49.45c5.84,0,10.6,6,10.6,13.32s-4.76,13.31-10.6,13.31-10.6-6-10.6-13.31,4.75-13.32,10.6-13.32Zm0-.49c-6.13,0-11.1,6.18-11.1,13.81s5,13.8,11.1,13.8,11.09-6.18,11.09-13.8S209.38,49,203.26,49Z"/></g><path class="cls-24" d="M14.7,36.31,2.89,66,62.37,61l17.8-31C47.44,18.22,14.7,36.31,14.7,36.31Zm15.77.32.83-1.89,33.09-2.48-.56,1.67Z"/><path class="cls-25" d="M48.68,70.61l63-7.81s.32,26-6.81,63.87L52.66,138Z"/><path class="cls-26" d="M48.68,70.61,0,65.74a318.83,318.83,0,0,0,10.33,62.87L52.66,138Z"/><polygon class="cls-27" points="2.89 66.03 63.17 60.45 111.67 62.8 48.68 70.61 2.89 66.03"/><polygon class="cls-28" points="5.34 65.75 47.43 69.55 107.98 61.86 63.69 61.05 5.34 65.75"/><polygon class="cls-29" points="48.68 70.61 28.14 53.11 28.14 54.57 47.3 70.61 48.68 70.61"/><path class="cls-30" d="M28.14,53.11,41.6,46l-4.5-5.12A82.42,82.42,0,0,1,69.9,37.2L74,41l16.25,1.87,21.41,20-63,7.81Z"/><polygon class="cls-31" points="37.1 40.86 37.1 42.52 40.84 46.38 41.6 45.98 37.1 40.86"/><polygon class="cls-32" points="0 65.75 2.89 66.03 16.27 37.15 14.7 36.31 0 65.75"/><path class="cls-33" d="M16.27,37.15S48.89,18.62,80.17,30l-1.36-1.35S52.23,17.35,14.7,36.31Z"/><polygon class="cls-34" points="30.84 35.8 62.13 33.45 62.6 32.39 64.39 32.26 63.83 33.93 30.48 36.63 30.84 35.8"/><polygon class="cls-35" points="62.13 33.45 63.83 33.93 64.39 32.26 62.6 32.39 62.13 33.45"/><polygon class="cls-36" points="2.89 66.03 31.31 57.22 47.3 70.61 2.89 66.03"/><path class="cls-37" d="M104.86,126.67S89.09,117.59,78,118.89,52.66,138,52.66,138Z"/><path class="cls-38" d="M52.66,138s-22.79-9.2-27.56-9.63-14.77.23-14.77.23Z"/><path class="cls-39" d="M2.89,66S18.06,76.76,24.21,78.38,47.3,70.61,47.3,70.61Z"/><polygon class="cls-40" points="2.89 66.03 35.17 60.45 31.31 57.22 2.89 66.03"/><path class="cls-19" d="M48.68,70.61l4,67.4S48.36,112.58,48.68,70.61Z"/><path class="cls-41" d="M53.59,70s40.23-2.26,58.08-7.2Z"/><g class="cls-17"><path class="cls-18" d="M62.23,80.24a.75.75,0,0,0,1,.7.72.72,0,0,0,.57-.86.91.91,0,0,0-1-.74A.82.82,0,0,0,62.23,80.24Z"/><path class="cls-18" d="M77.46,86.31a1.24,1.24,0,0,1,1.21-1,1.9,1.9,0,0,1,1.24.31.94.94,0,0,1,.48,1.12,1.85,1.85,0,0,1-.37.58c-.2.16-.59,0-.81,0a1.39,1.39,0,0,1-.84-.47C78.11,86.65,77.44,86.84,77.46,86.31Z"/><path class="cls-18" d="M62.63,77.91c-.35.15-.86.69-.34.92a2.15,2.15,0,0,0,1.36-.22c.95-.73-.55-1.35-1.17-.59Z"/><path class="cls-18" d="M63.08,82.57c.35-.61,1,.08.57.43a.4.4,0,0,1-.64-.3Z"/><path class="cls-18" d="M64,80.26c.23-.41.65.06.38.29a.27.27,0,0,1-.43-.2Z"/><path class="cls-18" d="M63.12,114c-.79,1.06.66,2.31,1.23,1,.31-.69-.29-1.53-1-1Z"/><path class="cls-18" d="M56.49,78.91c-.11-.21-.2-.16-.32,0s-.06.26.07.43c.3.37.56.36,1,.1s.87-.78.28-1.07a1,1,0,0,0-.92.25Z"/><path class="cls-18" d="M55.19,79.32c-.06-.53.72.15.38.43s-.47-.26-.38-.47Z"/><path class="cls-18" d="M56.76,77.5c.22.35.67-.14.51-.37s-.47.17-.54.3Z"/><path class="cls-18" d="M57.44,121.86c.13-.43.66,0,.73.25a.83.83,0,0,1-.66.93c-.64.06-.8-.92-.24-1.15Z"/><path class="cls-18" d="M63.36,122.65c-.38.54.9.66.89,0s-.75-.49-.89-.08Z"/><path class="cls-18" d="M58.05,111.9a.52.52,0,0,1,.49-.78c.52.08.53.79.35,1.15a.57.57,0,1,1-1-.5Z"/><path class="cls-18" d="M56.63,72.1c-.46,1.08,1.3.7,1.4-.17C58.15,70.88,56.76,71.16,56.63,72.1Z"/><path class="cls-18" d="M80.3,84.86c-.5.69.81,1,.91.16a.68.68,0,0,0-1-.09Z"/><path class="cls-18" d="M73.47,93.12a3.59,3.59,0,0,1,4.73-.93c.4.27,1,.76.49,1.2s-2.38,0-2.93,0A5.58,5.58,0,0,1,73.47,93.12Z"/><path class="cls-18" d="M69.63,92.4c.09.63,1.19.41,1-.1-.11-.35-.71-.44-.82-.11Z"/><path class="cls-18" d="M46.8,61.5c-.21,1,1,.78,1,0s-.85-.88-1-.2Z"/><path class="cls-18" d="M55.33,88.52a.68.68,0,0,1,.4-.31c.64.85-.78,1.42-.4.41Z"/><path class="cls-18" d="M48.66,41.67c-1,2.53,3.17.77,3.77-.4s-1-1.4-1.86-1.24C49.51,40.22,48.69,41,48.66,41.67Z"/><path class="cls-18" d="M52.55,42.28c.1-.56,1.15-1.05,1-.19-.07.47-.74.79-.93.28Z"/><path class="cls-18" d="M86.75,63.37c-1,1.46,3.32,1.48,3.52,0s-3.13-1-3.61-.12Z"/><path class="cls-18" d="M89.81,61.66c.09-.9,1.34-.5,1.07,0s-.85.13-1.07-.13Z"/><path class="cls-18" d="M93.14,62.74a2.71,2.71,0,0,0,1.16-.27c-.1-.81-1.11-.63-1.35,0,0,.13.12.11.19.18Z"/><path class="cls-18" d="M72.6,49.35c0-.34.09-.51.44-.53.42.35.31,1-.26.89Z"/><path class="cls-18" d="M71.57,85.17c-1.56,1.32,1.8.92.28.19Z"/><path class="cls-18" d="M64.93,88.71c-.38.39-.24,1.2.45.91.52-.23.4-1.14-.24-.84Z"/><path class="cls-18" d="M68.06,90.84c.13-.43.67-.44.65,0s-.39.33-.51.07Z"/><path class="cls-18" d="M100,113.84c.1.54.38.83,1,.7a.72.72,0,0,0,.57-.86.91.91,0,0,0-1-.73A.82.82,0,0,0,100,113.84Z"/><path class="cls-18" d="M75.29,49.44a1.25,1.25,0,0,1,1.21-1,1.85,1.85,0,0,1,1.24.32.92.92,0,0,1,.49,1.11,2.08,2.08,0,0,1-.38.58c-.2.16-.59.06-.81,0A1.39,1.39,0,0,1,76.2,50C76,49.78,75.27,50,75.29,49.44Z"/><path class="cls-18" d="M100.35,111.52c-.35.14-.85.69-.34.91a2.1,2.1,0,0,0,1.37-.21c1-.73-.56-1.36-1.17-.59Z"/><path class="cls-18" d="M100.81,116.17c.34-.6,1,.09.56.43a.39.39,0,0,1-.63-.29Z"/><path class="cls-18" d="M101.75,113.87c.23-.41.65,0,.37.28s-.39,0-.42-.2Z"/><path class="cls-18" d="M90,115.6c-.79,1.07.66,2.32,1.23,1,.31-.69-.28-1.53-1-1Z"/><path class="cls-18" d="M92.42,118.68c-.1-.2-.2-.15-.31,0s-.06.27.07.44c.29.37.55.35,1,.1s.86-.78.28-1.07a1,1,0,0,0-.93.24Z"/><path class="cls-18" d="M91.12,119.09c-.05-.52.73.16.38.44s-.47-.26-.38-.47Z"/><path class="cls-18" d="M92.7,117.28c.22.35.66-.14.5-.37s-.46.17-.54.3Z"/><path class="cls-18" d="M49.8,51.63c-.38.55.9.67.89,0s-.75-.5-.89-.08Z"/><path class="cls-18" d="M92.56,111.87c-.45,1.08,1.31.7,1.41-.17C94.08,110.66,92.69,110.93,92.56,111.87Z"/><path class="cls-18" d="M78.13,48c-.5.68.81,1,.92.15A.69.69,0,0,0,78,48.06Z"/><path class="cls-18" d="M71.3,56.24A3.58,3.58,0,0,1,76,55.32c.4.27,1,.76.49,1.2s-2.37,0-2.93,0A5.58,5.58,0,0,1,71.3,56.24Z"/><path class="cls-18" d="M65.09,59.52c.09.63,1.2.41,1-.11-.11-.34-.72-.43-.83-.1Z"/><path class="cls-18" d="M50.79,55.64a.66.66,0,0,1,.41-.31c.64.84-.79,1.41-.41.41Z"/><path class="cls-18" d="M104.37,106.92c-1.56,1.32,1.8.92.28.19Z"/><path class="cls-18" d="M60.4,55.82c-.39.4-.24,1.21.44.92.53-.23.41-1.14-.23-.85Z"/><path class="cls-18" d="M63.53,58c.12-.44.67-.44.64,0s-.39.33-.5.08Z"/><path class="cls-18" d="M37.57,72.51a1.7,1.7,0,0,0,.56-.54c-.38-.32-.39-.07-.56.23Z"/></g><polygon class="cls-42" points="76 125.39 74.66 111.19 95.4 108.97 94.41 121.83 76 125.39"/><polygon class="cls-43" points="77.66 113.38 93.26 111.37 93.1 113.63 77.99 115.71 77.66 113.38"/><polygon class="cls-43" points="79.62 120.6 91.34 119.21 91.34 119.74 79.72 121.34 79.62 120.6"/><polygon class="cls-44" points="82.29 115.9 82.64 119.46 89.18 118.75 89.51 115 82.29 115.9"/><ellipse class="cls-45" cx="81.65" cy="89.19" rx="12.88" ry="16.04"/><ellipse class="cls-22" cx="82.54" cy="89.19" rx="10.65" ry="13.25"/><g class="cls-17"><path class="cls-23" d="M82.54,76.39c5.62,0,10.19,5.74,10.19,12.8S88.16,102,82.54,102s-10.2-5.74-10.2-12.8,4.57-12.8,10.2-12.8Zm0-.45c-5.89,0-10.65,5.93-10.65,13.25s4.76,13.25,10.65,13.25,10.64-5.93,10.64-13.25S88.42,75.94,82.54,75.94Z"/></g><polygon class="cls-46" points="203.56 138.01 200.22 114.15 292.9 109.44 286.05 132.2 203.56 138.01"/><polygon class="cls-47" points="291.73 108.26 284.45 85.32 205.88 84.94 200.22 112.99 291.73 108.26"/><polygon class="cls-48" points="205.88 84.94 146.97 87.41 133.21 115.39 200.22 112.99 205.88 84.94"/><polygon class="cls-49" points="203.56 138.01 138.98 134.69 132.56 115.71 200.22 114.15 203.56 138.01"/><polygon class="cls-50" points="291.73 108.26 303.17 109.26 303.17 110.92 194.4 117.73 194.4 113.58 200.22 112.99 291.73 108.26"/><polygon class="cls-51" points="194.4 113.58 124.06 114.9 124.79 117.38 194.4 117.73 194.4 113.58"/><polygon class="cls-36" points="200.57 111.53 135.02 112.26 124.06 114.9 194.4 113.58 200.57 111.53"/><polygon class="cls-52" points="291.98 112.5 200.67 117.4 201.48 123.17 290.8 116.41 291.98 112.5"/><polygon class="cls-53" points="284.45 85.32 205.25 86.54 146.97 87.41 205.88 84.94 284.45 85.32"/><polygon class="cls-19" points="204.09 86.54 203.79 95.28 206.66 86.54 204.09 86.54"/><polygon class="cls-19" points="192.37 113.67 194.4 115.22 195.85 112.99 192.37 113.67"/><path class="cls-54" d="M194.4,113.58s62.56-3.52,108.77-4.32l-11.44-1-91.16,3.27-6.17,2Z"/><path class="cls-55" d="M286.05,132.2s-41.2-4.68-82.49,5.81Z"/><polygon class="cls-56" points="303.17 112.5 302.67 113.58 195.06 120.32 194.4 117.73 303.17 112.5"/><polygon class="cls-24" points="303.17 112.5 299.52 111.15 194.4 117.73 303.17 112.5"/><polygon class="cls-51" points="195.06 120.32 124.92 118.95 124.79 117.38 194.4 117.73 195.06 120.32"/><polygon class="cls-57" points="194.4 117.73 124.79 117.38 194.4 117.06 204.24 117.16 194.4 117.73"/><g class="cls-17"><path class="cls-18" d="M240.51,95.69c.1.54.37.82,1,.7a.7.7,0,0,0,.56-.85.89.89,0,0,0-.95-.73A.81.81,0,0,0,240.51,95.69Z"/><path class="cls-18" d="M255.6,101.71a1.23,1.23,0,0,1,1.2-1,1.84,1.84,0,0,1,1.22.31.92.92,0,0,1,.49,1.11,2.24,2.24,0,0,1-.37.57c-.2.16-.59.06-.81,0a1.43,1.43,0,0,1-.83-.46C256.25,102.05,255.58,102.24,255.6,101.71Z"/><path class="cls-18" d="M240.91,93.39c-.35.15-.85.68-.34.91a2.11,2.11,0,0,0,1.35-.22c.94-.72-.55-1.34-1.16-.58Z"/><path class="cls-18" d="M241.36,98c.34-.6,1,.09.56.43a.39.39,0,0,1-.63-.3Z"/><path class="cls-18" d="M242.29,95.72c.23-.4.64,0,.37.28s-.39,0-.42-.19Z"/><path class="cls-18" d="M232.45,91.33c-.78,1,.66,2.29,1.23,1,.3-.68-.29-1.51-1-1Z"/><path class="cls-18" d="M234.83,94.38c-.11-.21-.2-.15-.32,0s-.06.26.07.42c.29.37.55.36.95.11s.86-.78.28-1.06a1,1,0,0,0-.92.24Z"/><path class="cls-18" d="M233.54,94.78c-.06-.52.72.15.38.44s-.47-.26-.38-.47Z"/><path class="cls-18" d="M235.1,93c.21.34.66-.14.5-.37s-.46.17-.54.3Z"/><path class="cls-18" d="M226.83,99.16c.13-.43.66,0,.72.24a.81.81,0,0,1-.65.92c-.63.06-.8-.91-.24-1.13Z"/><path class="cls-18" d="M232.69,99.93c-.37.55.89.66.88,0s-.73-.49-.88-.08Z"/><path class="cls-18" d="M227.44,89.29a.5.5,0,0,1,.48-.77c.51.07.52.78.35,1.13a.56.56,0,1,1-1-.49Z"/><path class="cls-18" d="M235,87.63c-.45,1.07,1.3.69,1.39-.17C236.47,86.43,235.09,86.7,235,87.63Z"/><path class="cls-18" d="M258.41,100.28c-.49.67.8,1,.91.15a.68.68,0,0,0-1.05-.08Z"/><path class="cls-18" d="M251.65,108.45a3.56,3.56,0,0,1,4.69-.91c.39.27,1,.75.48,1.19s-2.35,0-2.9,0A5.47,5.47,0,0,1,251.65,108.45Z"/><path class="cls-18" d="M247.84,107.75c.09.62,1.19.4,1-.11-.11-.34-.71-.43-.82-.1Z"/><path class="cls-18" d="M207.85,88.55c-.21,1,1,.77,1,0s-.84-.87-1-.2Z"/><path class="cls-18" d="M233.67,103.9a.7.7,0,0,1,.41-.31c.63.84-.78,1.41-.41.41Z"/><path class="cls-18" d="M206.81,104.77c-1,2.5,3.14.76,3.74-.4s-1-1.39-1.84-1.23C207.66,103.33,206.84,104.08,206.81,104.77Z"/><path class="cls-18" d="M210.67,105.37c.1-.56,1.14-1,1-.19-.07.47-.74.78-.93.27Z"/><path class="cls-18" d="M270.71,94.14c-1,1.44,3.3,1.46,3.5,0s-3.11-1-3.58-.11Z"/><path class="cls-18" d="M273.75,92.44c.09-.89,1.32-.5,1.06,0s-.84.12-1.06-.13Z"/><path class="cls-18" d="M277.05,93.51a2.66,2.66,0,0,0,1.15-.27c-.1-.8-1.1-.62-1.34,0,0,.12.12.1.19.18Z"/><path class="cls-18" d="M265.72,95.21c0-.34.09-.51.43-.52.42.34.31,1-.25.88Z"/><path class="cls-18" d="M249.77,100.58c-1.55,1.3,1.78.92.28.19Z"/><path class="cls-18" d="M243.19,104.08c-.38.39-.24,1.2.44.91.52-.22.4-1.13-.23-.84Z"/><path class="cls-18" d="M246.29,106.2c.12-.43.67-.44.64,0s-.38.32-.5.07Z"/><path class="cls-18" d="M274.73,123.55c.1.53.37.82,1,.69a.7.7,0,0,0,.56-.85.9.9,0,0,0-1-.72A.81.81,0,0,0,274.73,123.55Z"/><path class="cls-18" d="M243.42,121.92a1.26,1.26,0,0,1,1.2-1,1.81,1.81,0,0,1,1.23.32.91.91,0,0,1,.48,1.1,2,2,0,0,1-.37.58c-.19.15-.58,0-.81,0a1.36,1.36,0,0,1-.82-.46C244.07,122.26,243.4,122.44,243.42,121.92Z"/><path class="cls-18" d="M275.13,121.25c-.35.14-.85.68-.34.91a2.11,2.11,0,0,0,1.35-.22c.94-.72-.54-1.34-1.16-.58Z"/><path class="cls-18" d="M275.58,125.86c.34-.6,1,.09.56.43a.39.39,0,0,1-.63-.3Z"/><path class="cls-18" d="M276.51,123.57c.23-.4.64.06.37.29a.26.26,0,0,1-.42-.2Z"/><path class="cls-18" d="M264.9,125.3c-.78,1,.66,2.29,1.22,1,.31-.68-.28-1.51-.95-1Z"/><path class="cls-18" d="M267.27,128.35c-.1-.21-.2-.15-.31,0s-.06.26.07.43c.29.36.55.35,1,.1s.86-.78.28-1.06a1,1,0,0,0-.92.24Z"/><path class="cls-18" d="M266,128.75c-.06-.52.71.15.37.44s-.46-.26-.37-.47Z"/><path class="cls-18" d="M267.55,127c.21.34.65-.14.5-.37s-.46.17-.54.3Z"/><path class="cls-18" d="M218.17,124.1c-.37.54.89.65.88,0s-.73-.49-.88-.08Z"/><path class="cls-18" d="M267.41,121.6c-.45,1.07,1.3.69,1.39-.17C268.92,120.4,267.54,120.67,267.41,121.6Z"/><path class="cls-18" d="M246.24,120.48c-.5.68.8,1,.9.16a.67.67,0,0,0-1-.09Z"/><path class="cls-18" d="M239.47,128.66a3.56,3.56,0,0,1,4.69-.92c.39.27,1,.76.49,1.19s-2.36,0-2.91,0A5.51,5.51,0,0,1,239.47,128.66Z"/><path class="cls-18" d="M233.32,131.91c.09.62,1.19.41,1-.11-.11-.34-.71-.43-.82-.1Z"/><path class="cls-18" d="M219.15,128.06a.7.7,0,0,1,.41-.31c.63.84-.78,1.41-.41.41Z"/><path class="cls-18" d="M284.34,119.06c-1.55,1.31,1.78.92.28.19Z"/><path class="cls-18" d="M228.67,128.24c-.38.39-.24,1.2.44.91.52-.22.4-1.13-.23-.84Z"/><path class="cls-18" d="M231.77,130.36c.12-.43.67-.44.64,0s-.38.32-.5.07Z"/><path class="cls-18" d="M216.08,88a1.53,1.53,0,0,0,.56-.54c-.37-.32-.39-.07-.56.23Z"/><path class="cls-18" d="M178.67,103.19a.75.75,0,0,0,1,.7.7.7,0,0,0,.56-.85.89.89,0,0,0-.95-.73A.81.81,0,0,0,178.67,103.19Z"/><path class="cls-18" d="M193.76,109.21a1.25,1.25,0,0,1,1.2-1,1.85,1.85,0,0,1,1.23.31.93.93,0,0,1,.48,1.11,1.81,1.81,0,0,1-.37.57c-.2.16-.59.06-.81,0a1.38,1.38,0,0,1-.82-.46C194.41,109.55,193.74,109.74,193.76,109.21Z"/><path class="cls-18" d="M179.07,100.89c-.35.15-.84.68-.34.91a2.14,2.14,0,0,0,1.36-.22c.94-.72-.55-1.34-1.16-.58Z"/><path class="cls-18" d="M179.52,105.5c.35-.6,1,.09.56.43a.39.39,0,0,1-.63-.3Z"/><path class="cls-18" d="M180.45,103.22c.23-.4.65,0,.37.28a.25.25,0,0,1-.41-.19Z"/><path class="cls-18" d="M170.62,98.83c-.79,1,.65,2.29,1.22,1,.3-.68-.28-1.51-1-1Z"/><path class="cls-18" d="M173,101.88c-.1-.21-.2-.15-.31,0s-.06.26.07.42c.29.37.55.36.94.11s.87-.78.28-1.06a1,1,0,0,0-.91.24Z"/><path class="cls-18" d="M171.7,102.28c-.06-.52.72.15.38.44s-.47-.26-.38-.47Z"/><path class="cls-18" d="M173.26,100.49c.22.34.66-.14.5-.37s-.46.17-.53.3Z"/><path class="cls-18" d="M165,106.65c.13-.42.66,0,.72.25a.81.81,0,0,1-.65.92c-.63.06-.79-.91-.24-1.13Z"/><path class="cls-18" d="M170.86,107.43c-.38.55.89.66.88,0s-.74-.49-.88-.08Z"/><path class="cls-18" d="M165.6,96.79a.51.51,0,0,1,.48-.77c.52.07.53.78.35,1.13a.56.56,0,1,1-1-.49Z"/><path class="cls-18" d="M173.13,95.13c-.45,1.07,1.29.69,1.39-.17C174.63,93.93,173.26,94.2,173.13,95.13Z"/><path class="cls-18" d="M196.58,107.78c-.5.67.8,1,.9.15a.68.68,0,0,0-1-.08Z"/><path class="cls-18" d="M146,96.05c-.2,1,1,.77,1,0s-.84-.87-1-.2Z"/><path class="cls-18" d="M208.88,101.64c-1,1.44,3.29,1.46,3.49,0s-3.1-1-3.58-.11Z"/><path class="cls-18" d="M203.88,102.71c0-.34.09-.51.43-.52.42.34.31,1-.25.88Z"/><path class="cls-18" d="M187.93,108.08c-1.55,1.3,1.78.92.28.19Z"/><path class="cls-18" d="M154.25,95.54a1.67,1.67,0,0,0,.55-.54c-.37-.32-.39-.07-.55.23Z"/><path class="cls-18" d="M180.73,128.7c.09.44.31.68.83.57a.58.58,0,0,0,.47-.7.75.75,0,0,0-.79-.61A.67.67,0,0,0,180.73,128.7Z"/><path class="cls-18" d="M181.06,126.78c-.29.12-.7.57-.28.75a1.77,1.77,0,0,0,1.13-.17c.78-.6-.46-1.12-1-.49Z"/><path class="cls-18" d="M181.44,130.62c.28-.5.8.07.47.36a.33.33,0,0,1-.53-.25Z"/><path class="cls-18" d="M182.21,128.72c.19-.34.54,0,.31.23s-.32,0-.35-.16Z"/><path class="cls-18" d="M174,125.06c-.65.88.55,1.91,1,.85.25-.57-.23-1.26-.79-.85Z"/><path class="cls-18" d="M176,127.6c-.09-.17-.17-.12-.26,0s-.05.22.06.36c.24.31.45.3.79.08s.71-.64.23-.88a.81.81,0,0,0-.76.21Z"/><path class="cls-18" d="M174.93,127.94c-.05-.44.59.12.31.36s-.39-.22-.31-.39Z"/><path class="cls-18" d="M176.23,126.44c.18.29.54-.11.41-.3s-.38.14-.44.25Z"/><path class="cls-18" d="M169.34,131.58c.11-.36.55,0,.6.2a.67.67,0,0,1-.54.77c-.52,0-.66-.76-.2-.94Z"/><path class="cls-18" d="M174.22,132.23c-.31.45.75.55.74,0s-.62-.4-.74-.06Z"/><path class="cls-18" d="M169.85,123.37a.43.43,0,0,1,.4-.65c.43.06.44.65.29,1a.47.47,0,1,1-.83-.42Z"/><path class="cls-18" d="M176.11,122c-.37.89,1.08.58,1.16-.14S176.22,121.21,176.11,122Z"/><path class="cls-18" d="M153.54,122.75c-.17.8.85.64.85,0s-.7-.72-.85-.16Z"/><path class="cls-18" d="M160.4,122.32a1.27,1.27,0,0,0,.45-.44c-.3-.27-.32-.06-.45.19Z"/></g><polygon class="cls-52" points="237.24 85.99 236.36 110.24 244.91 111.13 244.47 117.22 236.36 117.73 235.59 135.65 236.07 135.79 246.61 117.09 248.36 114.15 239.47 86.01 237.24 85.99"/><path class="cls-58" d="M236.07,135.79s10.09-17.72,10.54-18.7a26.21,26.21,0,0,0,.63-6.17c-.08-.61-7.77-24.91-7.77-24.91l-50-.38V85l21-.74,58.26.78s11.08,24.05,11.24,24.84-.65,5.12-1.13,5.56-17,19.19-17,19.19l-27.12,1.84-1.22-.53Z"/><path class="cls-59" d="M278.92,115.39l-31.78,1.4s.39-5.18.28-6.11-7.5-25.59-7.5-25.59L189.51,85v.68l50,.38s7.77,24.07,7.77,24.91-.22,5.4-.63,6.17-10.54,18.7-10.54,18.7l-2.5.1,1.22.53,27.12-1.84Z"/><polygon class="cls-60" points="249.35 104.06 274.21 102.82 268.42 90.03 244.81 90.03 249.35 104.06"/><polygon class="cls-61" points="251.31 92.37 252.43 94.07 265.82 93.95 265.39 92.37 251.31 92.37"/><polygon class="cls-59" points="248.39 123.62 267.41 122.88 262.86 128.5 244.96 129.08 248.39 123.62"/><polygon class="cls-62" points="253.48 97.77 254.44 100.94 268.38 100.72 267.34 97.05 253.48 97.77"/><path class="cls-63" d="M143.67,132.32s2.13.27,2.08,1.86c0,1.27-5.65,3.83-20.28,3.83-11,0-22.12-2.64-22.41-3.76s1.14-1.93,1.14-1.93Z"/><path class="cls-64" d="M104.33,133.37,98.08,69.44s22.78-11.82,52.66-3.63L143.48,134S126.21,138,104.33,133.37Z"/><path class="cls-65" d="M97.41,69.49s22.13,3.43,53-.26l1.79-.7.56-2.58s-20.92,3.4-56.63.42v2.56Z"/><path class="cls-66" d="M96.09,66.37s25.1-7.58,56.63-.42C152.72,66,136.84,70.2,96.09,66.37Z"/><path class="cls-67" d="M98.22,65.81l-.81-8.16s31.77-6.38,53.33,0l-1.49,7.77A226.52,226.52,0,0,1,98.22,65.81Z"/><path class="cls-68" d="M97.41,57.65a308,308,0,0,0,53.33,0S128.14,50.7,97.41,57.65Z"/><polygon class="cls-69" points="102.69 66.3 101.73 58.04 101.95 58.01 102.91 66.27 102.69 66.3"/><polygon class="cls-69" points="108.92 66.75 108.03 58.42 108.26 58.4 109.14 66.72 108.92 66.75"/><polygon class="cls-69" points="116.21 67.09 115.41 58.69 115.63 58.67 116.43 67.07 116.21 67.09"/><polygon class="cls-69" points="124.8 67.06 124.58 67.05 125.19 58.78 125.42 58.79 124.8 67.06"/><rect class="cls-69" x="130.86" y="58.71" width="0.22" height="8.18"/><polygon class="cls-69" points="136.24 66.64 136.02 66.62 136.63 58.52 136.86 58.54 136.24 66.64"/><rect class="cls-69" x="138.38" y="62.1" width="8.07" height="0.22" transform="translate(60.74 194.44) rotate(-81.89)"/><polygon class="cls-69" points="147.3 65.69 147.07 65.66 148.08 57.85 148.3 57.88 147.3 65.69"/><path class="cls-40" d="M150.15,71.22A212,212,0,0,1,98.73,76.1l-.65-6.66s20.94,3.82,52.29-.21Z"/><path class="cls-40" d="M103.06,134.25s7.59,3.3,22.62,3.3,19.75-2.8,19.75-2.8-3.63,3.26-20,3.26S103.06,134.25,103.06,134.25Z"/><g class="cls-17"><path class="cls-18" d="M114.55,98.73c.07.37.26.57.69.48a.49.49,0,0,0,.39-.59.63.63,0,0,0-.66-.5A.56.56,0,0,0,114.55,98.73Z"/><path class="cls-18" d="M137.31,78.12a.88.88,0,0,1,.83-.68,1.33,1.33,0,0,1,.84.22.64.64,0,0,1,.34.76,1.38,1.38,0,0,1-.26.4c-.13.11-.4,0-.55,0a.94.94,0,0,1-.58-.32C137.76,78.35,137.3,78.48,137.31,78.12Z"/><path class="cls-18" d="M114.83,97.15c-.25.09-.59.46-.24.62a1.53,1.53,0,0,0,.94-.15c.64-.5-.38-.92-.81-.4Z"/><path class="cls-18" d="M115.14,100.32c.23-.41.66.06.38.3s-.4,0-.43-.2Z"/><path class="cls-18" d="M115.78,98.75c.15-.28.44,0,.25.19a.17.17,0,0,1-.28-.13Z"/><path class="cls-18" d="M115.16,121.77c-.54.73.45,1.59.84.71.21-.47-.19-1-.65-.71Z"/><path class="cls-18" d="M110.63,97.82c-.07-.14-.14-.1-.22,0s0,.18,0,.29c.2.26.38.25.66.07s.59-.53.19-.72a.65.65,0,0,0-.63.16Z"/><path class="cls-18" d="M109.74,98.1c0-.36.5.11.26.3s-.32-.18-.26-.32Z"/><path class="cls-18" d="M110.82,96.86c.15.24.45-.09.34-.25s-.31.12-.37.21Z"/><path class="cls-18" d="M111.28,127.18c.09-.3.45,0,.5.16a.57.57,0,0,1-.45.64c-.44,0-.55-.63-.17-.78Z"/><path class="cls-18" d="M115.32,127.71c-.25.38.62.46.61,0s-.51-.33-.61,0Z"/><path class="cls-18" d="M111.7,120.37a.35.35,0,0,1,.33-.53c.36,0,.36.54.24.78a.39.39,0,1,1-.69-.34Z"/><path class="cls-18" d="M110.72,93.17c-.31.74.9.48,1-.12S110.81,92.53,110.72,93.17Z"/><path class="cls-18" d="M139.25,77.13c-.34.46.55.69.63.1a.48.48,0,0,0-.73,0Z"/><path class="cls-18" d="M134.58,82.77a2.46,2.46,0,0,1,3.24-.63c.27.18.66.52.33.82s-1.62,0-2,0A3.88,3.88,0,0,1,134.58,82.77Z"/><path class="cls-18" d="M119.61,107.05c.06.43.82.28.7-.08s-.48-.29-.56-.07Z"/><path class="cls-18" d="M104,85.93c-.14.67.7.53.7,0s-.58-.6-.7-.14Z"/><path class="cls-18" d="M109.84,104.39a.43.43,0,0,1,.27-.21c.44.58-.53,1-.27.28Z"/><path class="cls-18" d="M105.28,72.38c-.68,1.72,2.16.52,2.58-.27s-.66-1-1.27-.86S105.3,71.91,105.28,72.38Z"/><path class="cls-18" d="M107.94,72.79c.07-.38.79-.71.7-.13,0,.33-.51.54-.64.19Z"/><path class="cls-18" d="M131.31,87.21c-.72,1,2.27,1,2.4,0s-2.14-.67-2.47-.07Z"/><path class="cls-18" d="M133.4,86c.06-.62.91-.35.73,0s-.58.08-.73-.09Z"/><path class="cls-18" d="M135.68,86.78a2,2,0,0,0,.79-.19c-.07-.55-.76-.43-.92,0,0,.09.08.08.13.13Z"/><path class="cls-18" d="M121.64,77.63c0-.24.06-.35.3-.36.29.23.21.7-.17.6Z"/><path class="cls-18" d="M133.29,77.34c-1.07.9,1.23.63.19.13Z"/><path class="cls-18" d="M116.4,104.52c-.26.27-.16.82.3.62s.28-.78-.16-.57Z"/><path class="cls-18" d="M118.54,106c.08-.3.46-.3.44,0s-.27.22-.35,0Z"/><path class="cls-18" d="M135.65,128.15c.07.37.25.57.68.48a.48.48,0,0,0,.39-.58.63.63,0,0,0-.65-.51A.57.57,0,0,0,135.65,128.15Z"/><path class="cls-18" d="M123.48,77.68a.86.86,0,0,1,.83-.67,1.27,1.27,0,0,1,.84.22.63.63,0,0,1,.33.76,1.28,1.28,0,0,1-.25.4c-.14.11-.4,0-.56,0a.93.93,0,0,1-.57-.32C123.93,77.92,123.47,78.05,123.48,77.68Z"/><path class="cls-18" d="M135.92,126.57c-.24.1-.58.47-.23.62a1.37,1.37,0,0,0,.93-.15c.65-.49-.38-.92-.8-.4Z"/><path class="cls-18" d="M136.23,129.75c.24-.42.67.06.39.29a.27.27,0,0,1-.44-.2Z"/><path class="cls-18" d="M136.87,128.17c.16-.28.45,0,.26.2a.18.18,0,0,1-.29-.14Z"/><path class="cls-18" d="M128.87,129.36c-.54.73.45,1.58.84.7.21-.47-.2-1.05-.66-.7Z"/><path class="cls-18" d="M130.5,131.46c-.07-.14-.14-.1-.21,0s0,.18,0,.29.38.25.66.07.59-.53.19-.72a.65.65,0,0,0-.63.16Z"/><path class="cls-18" d="M129.61,131.74c0-.36.5.11.26.3s-.32-.18-.26-.32Z"/><path class="cls-18" d="M130.69,130.5c.15.24.45-.09.35-.25s-.32.12-.37.21Z"/><path class="cls-18" d="M106.06,79.19c-.26.37.62.45.61,0s-.51-.34-.61-.06Z"/><path class="cls-18" d="M130.6,126.81c-.31.74.89.48,1-.12S130.69,126.17,130.6,126.81Z"/><path class="cls-18" d="M125.42,76.69c-.34.47.55.7.62.11a.47.47,0,0,0-.72-.06Z"/><path class="cls-18" d="M120.75,82.33A2.47,2.47,0,0,1,124,81.7c.27.19.65.52.33.82s-1.62,0-2,0A3.72,3.72,0,0,1,120.75,82.33Z"/><path class="cls-18" d="M116.51,84.58c.06.43.82.28.71-.08s-.49-.29-.57-.07Z"/><path class="cls-18" d="M106.74,81.92a.46.46,0,0,1,.27-.21c.44.58-.53,1-.27.28Z"/><path class="cls-18" d="M138.66,123.43c-1.06.89,1.23.63.2.13Z"/><path class="cls-18" d="M113.3,82.05c-.26.27-.16.82.31.62s.27-.78-.16-.57Z"/><path class="cls-18" d="M115.44,83.51c.08-.3.46-.3.44,0s-.26.22-.34,0Z"/><path class="cls-18" d="M97.7,93.45a1,1,0,0,0,.38-.37c-.25-.22-.27,0-.38.16Z"/></g><path class="cls-70" d="M143.09,102c-.11,7.75-5.26,14-11.49,13.87s-11.18-6.46-11.06-14.21,5.25-14,11.48-13.87S143.21,94.21,143.09,102Z"/><path class="cls-71" d="M141.91,101.94c-.09,6.41-4.34,11.54-9.49,11.46s-9.25-5.33-9.15-11.74,4.35-11.54,9.49-11.46S142,95.53,141.91,101.94Z"/><g class="cls-17"><path class="cls-23" d="M132.65,90.65h.11A8,8,0,0,1,139,94a12.65,12.65,0,0,1,2.51,8c-.09,6.08-4.09,11-8.93,11h-.11c-4.89-.07-8.79-5.13-8.7-11.28s4.1-11,8.93-11Zm0-.45c-5.1,0-9.29,5.1-9.38,11.46s4,11.67,9.15,11.74h.11c5.1,0,9.29-5.1,9.38-11.46s-4-11.66-9.15-11.74Z"/></g><path class="cls-72" d="M104.33,133.37,98.68,80.05l15.15.54s-.65,46,1.45,51.73c1.48,4,20.67,2.84,20.67,2.84A107.52,107.52,0,0,1,104.33,133.37Z"/><polygon class="cls-73" points="104.35 70.41 103.02 66.89 110.67 67.48 110.67 70.67 104.35 70.41"/><path class="cls-73" d="M106.91,66.6l-.9-8.19,13.34.27-.48,8.4S112.39,66.9,106.91,66.6Z"/><polygon class="cls-74" points="142.13 70.07 142.42 67.39 147.27 66.89 146.96 69.61 142.13 70.07"/><polygon class="cls-74" points="139.15 58.53 138.77 66.45 143.32 66.08 145.44 58.06 139.15 58.53"/></g></g></svg>