<?xml version="1.0" encoding="UTF-8"?>
<svg id="Layer_2" data-name="Layer 2" xmlns="http://www.w3.org/2000/svg" viewBox="0 0 104.54 197.29">
  <defs>
    <style>
      .cls-1 {
        fill: #fff;
      }

      .cls-2 {
        fill: #95c38b;
      }

      .cls-3 {
        fill: #76c0bf;
      }

      .cls-4 {
        opacity: .6;
      }

      .cls-5 {
        fill: #f5f5f5;
      }

      .cls-6 {
        fill: #455a64;
      }

      .cls-7 {
        fill: #e0e0e0;
      }

      .cls-8 {
        fill: #e8505b;
      }

      .cls-9 {
        opacity: .3;
      }

      .cls-10 {
        fill: #ffa412;
      }

      .cls-11 {
        fill: #ffc19d;
      }

      .cls-12 {
        fill: #2c3a64;
      }

      .cls-13 {
        fill: #ebebeb;
      }

      .cls-14 {
        fill: #ff9c6a;
      }

      .cls-15 {
        fill: #bf5a16;
      }

      .cls-16 {
        fill: #ed7d2b;
      }

      .cls-17 {
        fill: #2b478b;
      }

      .cls-18 {
        fill: #263238;
      }
    </style>
  </defs>
  <g id="Layer_1-2" data-name="Layer 1">
    <g>
      <g>
        <path class="cls-18" d="M81.62,197.29l-67.03-.04C6.53,197.25,0,190.71,0,182.65L.03,14.6C.03,6.53,6.58,0,14.64,0L81.67,.04c8.06,0,14.59,6.54,14.59,14.6l-.03,168.05c0,8.07-6.54,14.6-14.61,14.6Z"/>
        <path class="cls-1" d="M81.6,5.98h-13c-1.74,0-3.16,1.47-3.16,3.29v2.36c0,1.82-1.41,3.3-3.16,3.3h-25.33c-1.74-.02-3.16-1.49-3.16-3.32v-2.36c0-1.82-1.41-3.3-3.15-3.3h-4.57s-11.37,0-11.37,0c-5.65,0-10.23,4.57-10.23,10.22l-.03,164.03c0,5.65,4.57,10.23,10.22,10.23l66.9,.04c5.65,0,10.23-4.57,10.23-10.22l.03-164.03c0-5.65-4.57-10.22-10.22-10.23Z"/>
      </g>
      <g>
        <path class="cls-18" d="M83.58,22.55s-1.69,.09-3.77,.11c-2.09,.02-3.78,0-3.78-.05,0-.04,1.69-.09,3.77-.11,2.08-.02,3.78,0,3.78,.05Z"/>
        <path class="cls-18" d="M83.6,24.48s-1.69,.09-3.77,.11c-2.09,.02-3.78,0-3.78-.05,0-.04,1.69-.09,3.77-.11,2.08-.02,3.78,0,3.78,.05Z"/>
        <path class="cls-18" d="M83.61,26.41s-1.69,.09-3.77,.11c-2.09,.02-3.78,0-3.78-.05,0-.04,1.69-.09,3.77-.11,2.08-.02,3.78,0,3.78,.05Z"/>
      </g>
      <path class="cls-18" d="M14.91,28.61s.06,0,.16-.01c.12,0,.27,0,.44-.01,.41,0,.95-.02,1.61-.04l-.04,.05c0-.36-.01-.75-.02-1.17,0-.22-.02-.42,0-.67,.04-.25,.27-.47,.54-.5,.26,0,.49-.02,.77,0,.29,.04,.54,.31,.53,.62,0,.55,.01,1.11,.02,1.7l-.07-.07c.65,0,1.33-.01,2.03-.02l-.08,.08c0-.82-.01-1.67-.02-2.53,0-.22,0-.43,0-.65,0-.2-.12-.33-.29-.48-.3-.3-.6-.59-.89-.88-.29-.29-.58-.57-.86-.85-.14-.14-.28-.28-.42-.41-.14-.14-.26-.28-.42-.31-.16-.04-.34,0-.47,.09-.12,.1-.25,.25-.38,.37-.25,.25-.49,.5-.73,.74-.46,.48-.94,.91-1.28,1.32-.15,.23-.09,.51-.1,.76,0,.25,0,.49,0,.72,0,.44,0,.82,0,1.15,0,.29,0,.54,0,.74,0,.17,0,.26,0,.27,0,0,0-.08-.01-.24,0-.2-.01-.44-.02-.73,0-.33-.02-.72-.03-1.16,0-.23,0-.47-.01-.73,0-.13,0-.26,0-.4,0-.14,.04-.29,.11-.43,.38-.46,.83-.87,1.29-1.36,.23-.24,.48-.49,.72-.74,.13-.13,.24-.26,.39-.39,.16-.12,.39-.17,.59-.12,.22,.05,.36,.23,.49,.35,.14,.13,.28,.27,.42,.41,.28,.28,.57,.56,.86,.84,.29,.29,.59,.58,.89,.87,.07,.08,.16,.14,.23,.25,.07,.1,.1,.22,.11,.34,0,.21,0,.43,0,.65,0,.87,.01,1.71,.02,2.53v.08s-.08,0-.08,0c-.7,0-1.38,0-2.03,.01h-.07s0-.07,0-.07c0-.59,0-1.16,0-1.71,0-.25-.18-.46-.41-.49-.23-.01-.51,0-.74,0-.22,.02-.4,.19-.44,.4-.02,.2,0,.44,0,.65,0,.42,0,.81,0,1.17v.05s-.04,0-.04,0c-.67,0-1.22,0-1.64-.01-.17,0-.31,0-.43,0-.1,0-.14,0-.14,0Z"/>
      <g>
        <g>
          <rect class="cls-5" x="11.87" y="38.82" width="71.31" height="12.97" rx="5.47" ry="5.47"/>
          <path class="cls-18" d="M77.71,51.8s.14-.02,.41-.03c.27-.02,.67-.08,1.18-.23,.5-.16,1.11-.43,1.72-.9,.61-.46,1.22-1.15,1.63-2.06,.2-.46,.37-.96,.43-1.51,.07-.55,.05-1.13,.05-1.75,0-.61,.03-1.26-.08-1.9-.11-.65-.34-1.3-.71-1.9-.72-1.2-2.02-2.21-3.6-2.5-.78-.15-1.62-.08-2.48-.09-.86,0-1.73,0-2.64,0-14.41,.01-34.3,.02-56.27,.04-1.34,0-2.66,.52-3.63,1.43-.97,.9-1.58,2.16-1.69,3.46-.05,.65-.01,1.33-.02,1.99-.02,.67,.02,1.31,.2,1.93,.35,1.24,1.15,2.33,2.21,3.02,.53,.35,1.12,.6,1.73,.74,.61,.14,1.24,.15,1.88,.14,1.27,0,2.53,0,3.78,0,2.49,0,4.93,0,7.31,0,9.52,.01,18.09,.02,25.3,.03,7.2,.02,13.02,.03,17.05,.04,2.01,.01,3.57,.02,4.64,.02,.52,0,.93,.01,1.21,.01,.27,0,.41,.01,.41,.01,0,0-.14,0-.41,.01-.28,0-.68,0-1.21,.01-1.07,0-2.63,.01-4.64,.02-4.03,0-9.86,.02-17.05,.04-7.2,0-15.78,.02-25.3,.03-2.38,0-4.82,0-7.31,0-1.25,0-2.51,0-3.78,0-.63,0-1.29,0-1.93-.15-.64-.14-1.26-.4-1.81-.77-1.11-.73-1.96-1.87-2.32-3.17-.19-.64-.23-1.35-.21-2,.01-.67-.02-1.32,.02-2.01,.11-1.37,.75-2.69,1.77-3.64,1.01-.95,2.4-1.5,3.81-1.5,21.97,.02,41.86,.03,56.27,.04,.9,0,1.78,0,2.64,0,.85,.02,1.69-.05,2.51,.11,1.63,.31,2.96,1.35,3.69,2.59,.37,.62,.61,1.29,.72,1.96,.11,.67,.07,1.31,.07,1.92,0,.61,.02,1.2-.06,1.76-.07,.56-.24,1.08-.45,1.54-.43,.93-1.05,1.62-1.67,2.08-.62,.47-1.24,.73-1.75,.89-.51,.14-.92,.19-1.19,.2-.27,0-.41,0-.41,0Z"/>
        </g>
        <g>
          <path class="cls-18" d="M78.81,45s-.02-.21-.12-.56c-.1-.35-.34-.85-.86-1.23-.5-.39-1.33-.6-2.12-.3-.79,.27-1.47,1.11-1.46,2.09,0,.98,.67,1.82,1.46,2.09,.79,.3,1.62,.09,2.12-.3,.52-.38,.76-.89,.86-1.23,.1-.35,.1-.56,.12-.56,0,0,.02,.05,.02,.15,0,.1,0,.25-.04,.43-.07,.37-.3,.92-.85,1.36-.53,.44-1.43,.7-2.32,.38-.88-.29-1.65-1.22-1.64-2.32-.01-1.1,.76-2.03,1.64-2.32,.89-.32,1.79-.06,2.32,.38,.55,.44,.78,.99,.85,1.36,.04,.19,.05,.34,.04,.43,0,.1,0,.15-.02,.15Z"/>
          <path class="cls-18" d="M80.11,49.05c-.05,.05-.57-.42-1.15-1.05-.58-.63-1.01-1.18-.95-1.23,.05-.05,.57,.42,1.15,1.05,.58,.63,1.01,1.18,.95,1.23Z"/>
        </g>
      </g>
      <rect class="cls-2" x="14.88" y="62.47" width="15.61" height="15.61"/>
      <g>
        <path class="cls-8" d="M60.52,64.15c0,.07-5.22,.13-11.66,.13s-11.66-.06-11.66-.13,5.22-.13,11.66-.13,11.66,.06,11.66,.13Z"/>
        <path class="cls-18" d="M79.11,68.93c0,.07-9.38,.13-20.95,.13s-20.95-.06-20.95-.13,9.38-.13,20.95-.13,20.95,.06,20.95,.13Z"/>
        <path class="cls-18" d="M78.61,72.35c0,.07-9.27,.13-20.7,.13s-20.71-.06-20.71-.13,9.27-.13,20.71-.13,20.7,.06,20.7,.13Z"/>
        <path class="cls-18" d="M61.65,75.61c0,.07-5.47,.13-12.22,.13s-12.23-.06-12.23-.13,5.47-.13,12.23-.13,12.22,.06,12.22,.13Z"/>
      </g>
      <rect class="cls-8" x="14.88" y="88.47" width="15.61" height="15.61"/>
      <g>
        <path class="cls-8" d="M60.52,90.15c0,.07-5.22,.13-11.66,.13s-11.66-.06-11.66-.13,5.22-.13,11.66-.13,11.66,.06,11.66,.13Z"/>
        <path class="cls-18" d="M79.11,94.94c0,.07-9.38,.13-20.95,.13s-20.95-.06-20.95-.13,9.38-.13,20.95-.13,20.95,.06,20.95,.13Z"/>
        <path class="cls-18" d="M78.61,98.35c0,.07-9.27,.13-20.7,.13s-20.71-.06-20.71-.13,9.27-.13,20.71-.13,20.7,.06,20.7,.13Z"/>
        <path class="cls-18" d="M61.65,101.61c0,.07-5.47,.13-12.22,.13s-12.23-.06-12.23-.13,5.47-.13,12.23-.13,12.22,.06,12.22,.13Z"/>
      </g>
      <rect class="cls-3" x="14.88" y="114.48" width="15.61" height="15.61"/>
      <g>
        <path class="cls-8" d="M60.52,116.16c0,.07-5.22,.13-11.66,.13s-11.66-.06-11.66-.13,5.22-.13,11.66-.13,11.66,.06,11.66,.13Z"/>
        <path class="cls-18" d="M79.11,120.94c0,.07-9.38,.13-20.95,.13s-20.95-.06-20.95-.13,9.38-.13,20.95-.13,20.95,.06,20.95,.13Z"/>
        <path class="cls-18" d="M78.61,124.36c0,.07-9.27,.13-20.7,.13s-20.71-.06-20.71-.13,9.27-.13,20.71-.13,20.7,.06,20.7,.13Z"/>
        <path class="cls-18" d="M61.65,127.62c0,.07-5.47,.13-12.22,.13s-12.23-.06-12.23-.13,5.47-.13,12.23-.13,12.22,.06,12.22,.13Z"/>
      </g>
      <rect class="cls-8" x="14.88" y="140.48" width="15.61" height="15.61"/>
      <g>
        <path class="cls-6" d="M60.52,142.16c0,.07-5.22,.13-11.66,.13s-11.66-.06-11.66-.13,5.22-.13,11.66-.13,11.66,.06,11.66,.13Z"/>
        <path class="cls-18" d="M79.11,146.95c0,.07-9.38,.13-20.95,.13s-20.95-.06-20.95-.13,9.38-.13,20.95-.13,20.95,.06,20.95,.13Z"/>
        <path class="cls-18" d="M78.61,150.36c0,.07-9.27,.13-20.7,.13s-20.71-.06-20.71-.13,9.27-.13,20.71-.13,20.7,.06,20.7,.13Z"/>
        <path class="cls-18" d="M61.65,153.62c0,.07-5.47,.13-12.22,.13s-12.23-.06-12.23-.13,5.47-.13,12.23-.13,12.22,.06,12.22,.13Z"/>
      </g>
      <rect class="cls-17" x="14.88" y="166.49" width="15.61" height="15.61"/>
      <g>
        <path class="cls-7" d="M60.52,168.17c0,.07-5.22,.13-11.66,.13s-11.66-.06-11.66-.13,5.22-.13,11.66-.13,11.66,.06,11.66,.13Z"/>
        <path class="cls-13" d="M79.11,172.95c0,.07-9.38,.13-20.95,.13s-20.95-.06-20.95-.13,9.38-.13,20.95-.13,20.95,.06,20.95,.13Z"/>
        <path class="cls-13" d="M78.61,176.37c0,.07-9.27,.13-20.7,.13s-20.71-.06-20.71-.13,9.27-.13,20.71-.13,20.7,.06,20.7,.13Z"/>
        <path class="cls-13" d="M61.65,179.63c0,.07-5.47,.13-12.22,.13s-12.23-.06-12.23-.13,5.47-.13,12.23-.13,12.22,.06,12.22,.13Z"/>
      </g>
      <g class="cls-9">
        <rect x="14.88" y="140.48" width="15.61" height="15.61"/>
      </g>
      <rect class="cls-10" x="14.88" y="88.47" width="15.61" height="15.61"/>
      <g>
        <g>
          <g>
            <polygon class="cls-16" points="101.56 185.48 104.49 196.3 94.97 197.17 92.97 186.87 101.56 185.48"/>
            <path class="cls-18" d="M94.7,196.29s.54,.02,1.39-.05c.86-.07,2.04-.2,3.34-.37,1.25-.17,2.39-.32,3.33-.45,.85-.12,1.38-.2,1.37-.24,0-.04-.54-.02-1.39,.05-.86,.07-2.04,.2-3.34,.37-1.25,.17-2.38,.32-3.32,.44-.85,.12-1.38,.2-1.37,.23Z"/>
            <g class="cls-4">
              <polyline class="cls-1" points="104.49 196.3 94.97 197.17 94.82 196.38 104.21 195.18 104.48 196.19"/>
            </g>
          </g>
          <path class="cls-18" d="M99.76,195.82c.06-.01-.35-1.87-.9-4.15-.56-2.28-1.06-4.11-1.12-4.09-.06,.01,.35,1.87,.9,4.15,.56,2.28,1.06,4.11,1.12,4.09Z"/>
          <path class="cls-18" d="M95.22,196.22c.06,0-.3-.78-.02-2.01,.15-.6,.46-1.3,1.04-1.88,.57-.58,1.43-.99,2.37-1.09,.94-.09,1.86,.14,2.55,.58,.7,.44,1.18,1.03,1.48,1.57,.61,1.11,.55,1.94,.6,1.93,0,0,.01-.05,.01-.14,0-.09,0-.23-.02-.41-.04-.36-.16-.87-.45-1.45-.3-.57-.78-1.2-1.51-1.67-.72-.48-1.69-.72-2.68-.63-.99,.1-1.89,.54-2.49,1.17-.6,.62-.92,1.36-1.05,1.99-.13,.64-.08,1.17,0,1.52,.04,.18,.08,.31,.12,.4,.03,.09,.06,.13,.06,.13Z"/>
        </g>
        <g>
          <g>
            <path class="cls-16" d="M62.28,182.57l.64,9.62s-9.57,3.18-9.63,4.96l18.7,.14-.38-15.02-9.33,.31Z"/>
            <g class="cls-4">
              <path class="cls-1" d="M68.67,191.21c.36,.09,.63,.49,.55,.86-.07,.37-.48,.64-.84,.56-.37-.08-.7-.55-.58-.91,.11-.36,.6-.65,.94-.48"/>
            </g>
            <g class="cls-4">
              <path class="cls-1" d="M71.99,197.29l-.04-1.51-18.06,.5s-.6,.26-.7,1.02h18.79Z"/>
            </g>
            <path class="cls-18" d="M62.61,192.1c0,.09,.46,.12,.92,.4,.47,.27,.71,.66,.79,.62,.08-.02-.07-.56-.63-.89-.56-.33-1.11-.21-1.08-.13Z"/>
            <path class="cls-18" d="M60.67,192.97c-.02,.09,.38,.23,.7,.61,.33,.37,.42,.78,.51,.78,.09,.01,.13-.52-.28-.99-.4-.46-.94-.49-.94-.4Z"/>
            <path class="cls-18" d="M59.63,195.35c.08,.02,.2-.44-.05-.94-.25-.49-.68-.68-.72-.6-.05,.08,.24,.34,.43,.74,.21,.4,.25,.79,.34,.79Z"/>
            <path class="cls-18" d="M62.71,189.9c.04,.08,.46-.06,.97-.04,.52,0,.92,.17,.97,.09,.05-.07-.35-.39-.96-.41-.61-.02-1.03,.28-.98,.35Z"/>
          </g>
          <path class="cls-18" d="M62.62,187.95s.36,.08,.94-.03c.29-.06,.62-.16,.97-.33,.17-.08,.35-.18,.53-.3,.08-.06,.18-.12,.28-.23,.1-.1,.15-.34,.03-.49-.1-.14-.27-.2-.41-.2-.14,0-.25,.03-.35,.06-.21,.06-.4,.13-.58,.22-.35,.17-.64,.39-.85,.59-.42,.41-.56,.76-.53,.78,.04,.03,.24-.26,.68-.61,.21-.17,.49-.35,.82-.5,.17-.07,.34-.13,.53-.18,.2-.06,.36-.06,.42,.02,.02,.03,.02,.05-.02,.11-.04,.05-.12,.11-.2,.17-.16,.11-.33,.21-.49,.3-.32,.17-.63,.29-.89,.37-.53,.17-.88,.2-.88,.25Z"/>
          <path class="cls-18" d="M62.74,188.08s.2-.32,.22-.91c0-.29-.03-.65-.16-1.02-.06-.19-.15-.38-.26-.56-.12-.18-.26-.42-.61-.45-.19,0-.33,.15-.38,.27-.06,.13-.07,.24-.09,.35-.03,.22-.02,.43,.02,.63,.07,.4,.24,.72,.43,.95,.38,.47,.76,.57,.77,.54,.03-.05-.29-.21-.59-.67-.14-.23-.28-.52-.32-.87-.02-.17-.03-.36,0-.54,.02-.2,.09-.36,.17-.34,.09,0,.26,.14,.34,.3,.1,.16,.18,.33,.25,.5,.13,.33,.19,.66,.21,.93,.04,.55-.04,.89,0,.9Z"/>
        </g>
        <polygon class="cls-12" points="62.28 99.04 90.77 98.82 104.54 189.25 92.71 190.75 77.56 116.4 73.02 191.01 73.01 191.24 60.22 191.01 62.28 99.04"/>
        <g>
          <g>
            <path class="cls-11" d="M40.64,57.49s-3.33-5-3.42-5.04h0s-3.01-5.07-4.01-5.07c-1.01,0-.64,1.03,.39,2.84,.91,1.59,1,2.59,1,2.59l-2.47,1.49s-1.65-.64-1.72,.9c-.02,.51,.11,1.15,.28,2.09,.1,.55,.35,1.13,.87,.93,.24-.09,.43-.28,.44-.62,.03-.91-.14-1.24-.02-1.24,.15,0,1.78,4.78,1.78,4.78l6.88-3.64Z"/>
            <path class="cls-11" d="M33.9,53.56c-.25-.17-.51-.35-.79-.47-.28-.12-.6-.19-.9-.14-.19,.03-.38,.12-.5,.27-.17,.21-.18,.51-.09,.76,.08,.25,.25,.47,.41,.68"/>
            <path class="cls-11" d="M35.03,52.56c-.24-.16-.48-.33-.75-.45-.27-.12-.57-.18-.85-.13-.18,.03-.36,.11-.47,.25-.16,.19-.17,.48-.09,.71,.08,.24,.62,.79,.77,.99"/>
          </g>
          <path class="cls-11" d="M39.47,54.67l4.82,10.3-5.31,5.43-2.77-7.68s-1.48,.3-2.09-.69c-.68-1.1-1.56-4.27-1.56-4.27l6.91-3.09Z"/>
          <path class="cls-14" d="M36.03,54.38c-.09,.04-.34-.61-.79-1.26-.47-.65-1.08-.96-1.03-1.05,.02-.06,.74,.14,1.27,.87,.5,.72,.62,1.42,.56,1.44Z"/>
          <path class="cls-14" d="M30.69,54.43s.11-.19,.42-.3c.3-.11,.79-.14,1.24,.11,.45,.25,.68,.65,.82,.92,.13,.28,.19,.46,.15,.48-.04,.02-.15-.13-.33-.37-.18-.23-.42-.57-.78-.77-.36-.2-.77-.21-1.04-.16-.28,.04-.45,.13-.47,.09Z"/>
          <path class="cls-14" d="M32.48,52.97c-.01-.08,.7-.09,1.32,.46,.6,.54,.76,1.19,.69,1.21-.08,.04-.35-.51-.89-.98-.53-.48-1.13-.59-1.12-.68Z"/>
          <path class="cls-14" d="M31.3,55.2c.08,.01,.1,.32,.3,.62,.19,.31,.46,.46,.43,.54,0,.08-.43,.03-.69-.38-.26-.41-.12-.81-.04-.78Z"/>
          <path class="cls-11" d="M40.62,57.29s.17-3.07-.57-3.77c-.74-.7-2.87,.03-2.87,.03"/>
          <path class="cls-14" d="M36.88,52.08c.06-.05,.66,.66,1.33,1.59,.67,.93,1.16,1.72,1.09,1.76-.07,.04-.66-.67-1.33-1.59-.66-.92-1.15-1.71-1.09-1.76Z"/>
        </g>
        <path class="cls-11" d="M88.78,54.88c-.07-.41-.17-.89-.32-1.45-.12-.48-.33-.94-.61-1.35-.34-.5-.81-1.15-1.18-1.42-.46-.34-.26-1.06,.25-1.05,.52,0,1.8,.9,2.68,2.51,.88,1.6,1.4-1.23,1.61-2.26,.21-1.03,1-4.18,1.36-4.37,.54-.27,.93,.25,.7,1.27-.23,1.03-.71,4.14-.16,4.22,.54,.08,1.52-5.17,1.52-5.17,0,0,.03-1.16,.67-1.08,1.15,.14-.31,5.64-.46,6.16-.11,.36,.49,.47,.58,.08,.1-.41,.86-5.26,2.03-5.13,.9,.1-1.16,4.54-.75,5.63,.4,1.1,1.22-3.53,2.07-3.4,.32,.05,.55,.13-.3,2.71-.41,1.26-2.01,7.14-2.01,7.14l.92,4.82-7.32,1.85-1.27-9.72Z"/>
        <g>
          <g>
            <path class="cls-11" d="M79.52,28.77l.07,23.99-10.29,.49-.3-5.84s-3.66,.73-4.6-2.67c-.6-2.17-.45-18.93-.45-18.93l15.57,2.95Z"/>
            <path class="cls-12" d="M62.6,27.51c1.62,.46,1.97,3.11,1.97,3.11l2.54,5.62c1.3-1.01,3.03-.96,3.36,1.32,.24,1.65-1.81,1.98-1.81,1.98,1.19,2.03,2,3.67,3.73,5.59,1.88,2.09,2.93,2.3,4.96,2.33h2.24s1.1-3.57,3.13-12.48c2.26-9.89-9.44-8.62-11.61-11.14-3.53-4.11-13.65,2.21-8.53,3.67Z"/>
          </g>
          <path class="cls-12" d="M82.53,35.91c1.9-1.27,2.07-4.84,.96-6.97-1.11-2.14-3.43-3.58-5.84-3.63-.32,0-.65,0-.95-.11-.45-.17-.73-.59-1.02-.97-1.69-2.2-3.36-4.37-6.52-4.37-.51,0-1.08,0-1.99,.49-.45,.25-1.09,1.08-1.19,1.58-.59-.28-1.2-.57-1.85-.66-.65-.1-1.36,.02-1.85,.45-.49,.44-.67,1.24-.29,1.78-1.06-.07-2.07,.81-2.24,1.87-.17,1.05,1.34,1.79,1.5,1.88,0,0-.83,1.73,1.15,2.77,.8,.42,1.83-.09,1.95-.15"/>
        </g>
        <g>
          <path class="cls-16" d="M89.99,53.93l12.58,22.49c.73,1.91,.31,4.39-.97,5.98l.26-.37c-1.02,1.26-2.55,1.99-4.18,1.99h-.24c-2.14,0-4.07-1.27-4.92-3.23l-2.95-4.48,.42-22.38Z"/>
          <path class="cls-16" d="M62.74,52.32c2.47-1.26,4.9-1.55,7.56-1.62,3.1-.09,7.46-.52,10.8-.17,0,0,10.17-.31,10.21,7.57l-1.34,30.24,2.18,12.96-30.46,.92,.22-15.29c-.38-7.96,.43-19.22,.43-19.22-.47-4.28-2.81-6.2-3.14-8.98-.29-2.46,1.35-5.28,3.56-6.4Z"/>
          <path class="cls-16" d="M97.7,60.71s1.15,3.38,1.36,3.84c0,0,2.84,8.22,3.77,13.78l-9.09-16.42c-.08,0,3.84-1.16,3.97-1.19Z"/>
          <g>
            <path class="cls-16" d="M37.19,68.12l7.05-4.61,4.45,7.71s6.17-8.57,8.97-13.6c2.58-4.62,5.91-5.87,7.52-6.2,.48-.1,.91,.3,.85,.78l-2.43,16.67c-.31,.87-5.39,8.24-8.24,11.95-4.75,6.19-11.74,2.23-13.66-2.11-1.52-3.44-3.9-8.67-4.52-10.6Z"/>
            <path class="cls-15" d="M46.66,78.17s-.07-.42-.06-1.11c0-.68,.05-1.64,.26-2.67,.22-1.04,.61-1.93,1-2.5,.39-.58,.73-.85,.75-.83,.04,.03-.24,.35-.57,.94-.33,.58-.68,1.45-.89,2.46-.21,1.01-.28,1.94-.35,2.62-.06,.68-.11,1.1-.15,1.1Z"/>
            <path class="cls-15" d="M44.6,74.73s-.07-.37,.06-.96c.13-.58,.47-1.37,1.12-2.03,.62-.67,1.44-1.07,2.07-1.03,.63,.02,.93,.34,.9,.35-.02,.04-.34-.18-.89-.14-.55,.01-1.27,.4-1.86,1.03-.6,.62-.95,1.34-1.13,1.88-.18,.54-.22,.9-.26,.9Z"/>
          </g>
        </g>
      </g>
      <path class="cls-12" d="M16.96,64.56s0,.08,.01,.22c0,.16,0,.37,.01,.62,0,.57,.02,1.35,.03,2.33,.02,2.02,.04,4.85,.07,8.23l-.13-.13c3.32,0,7.23-.01,11.41-.02,.03-.03-.28,.28-.15,.15h0v-.78c0-.26,0-.52,0-.77,0-.51,0-1.02,0-1.53,0-1.01,0-1.99,0-2.95,0-1.91,.01-3.72,.01-5.38l.13,.13c-3.38-.03-6.21-.05-8.23-.07-.98-.01-1.76-.03-2.33-.03-.25,0-.46-.01-.62-.01-.14,0-.22,0-.22-.01s.06,0,.2-.01c.16,0,.35,0,.6-.01,.56,0,1.33-.02,2.3-.03,2.04-.02,4.89-.04,8.31-.07h.13s0,.13,0,.13c0,1.66,0,3.47,.01,5.38,0,.96,0,1.94,0,2.95,0,.5,0,1.01,0,1.53,0,.26,0,.51,0,.77v.39s0,.2,0,.2v.17h0v.02h0c.13-.13-.18,.19-.15,.15-4.17,0-8.08-.01-11.41-.02h-.13s0-.13,0-.13c.03-3.42,.05-6.27,.07-8.31,.01-.97,.03-1.74,.03-2.3,0-.24,.01-.44,.01-.6,0-.13,0-.2,.01-.2Z"/>
      <path class="cls-1" d="M30.91,61.81c.19,.16-2.26,3.46-5.47,7.37-.68,.81-1.33,1.59-1.93,2.31l-.28,.34-.32-.29c-2.68-2.4-4.52-4.2-4.39-4.35,.13-.15,2.18,1.41,4.94,3.71l-.6,.05c.59-.73,1.22-1.52,1.89-2.34,3.21-3.91,5.97-6.96,6.16-6.8Z"/>
      <g>
        <path class="cls-12" d="M16.77,90.88s0,.08,.01,.22c0,.16,0,.37,.01,.62,0,.57,.02,1.35,.03,2.33,.02,2.02,.04,4.85,.07,8.23l-.13-.13c3.32,0,7.23-.01,11.41-.02,.03-.03-.28,.28-.15,.15h0v-.78c0-.26,0-.52,0-.77,0-.51,0-1.02,0-1.53,0-1.01,0-1.99,0-2.95,0-1.91,.01-3.72,.01-5.38l.13,.13c-3.38-.03-6.21-.05-8.23-.07-.98-.01-1.76-.03-2.33-.03-.25,0-.46-.01-.62-.01-.14,0-.22,0-.22-.01s.06,0,.2-.01c.16,0,.35,0,.6-.01,.56,0,1.33-.02,2.3-.03,2.04-.02,4.89-.04,8.31-.07h.13s0,.13,0,.13c0,1.66,0,3.47,.01,5.38,0,.96,0,1.94,0,2.95,0,.5,0,1.01,0,1.53,0,.26,0,.51,0,.77v.39s0,.2,0,.2v.17h0v.02h0c.13-.13-.18,.19-.15,.15-4.17,0-8.08-.01-11.41-.02h-.13s0-.13,0-.13c.03-3.42,.05-6.27,.07-8.31,.01-.97,.03-1.74,.03-2.3,0-.24,.01-.44,.01-.6,0-.13,0-.2,.01-.2Z"/>
        <path class="cls-1" d="M30.72,88.13c.19,.16-2.26,3.46-5.47,7.37-.68,.81-1.33,1.59-1.93,2.31l-.28,.34-.32-.29c-2.68-2.4-4.52-4.2-4.39-4.35,.13-.15,2.18,1.41,4.94,3.71l-.6,.05c.59-.73,1.22-1.52,1.89-2.34,3.21-3.91,5.97-6.96,6.16-6.8Z"/>
      </g>
      <g>
        <path class="cls-12" d="M17.25,116.01s0,.08,.01,.22c0,.16,0,.37,.01,.62,0,.57,.02,1.35,.03,2.33,.02,2.02,.04,4.85,.07,8.23l-.13-.13c3.32,0,7.23-.01,11.41-.02,.03-.03-.28,.28-.15,.15h0v-.78c0-.26,0-.52,0-.77,0-.51,0-1.02,0-1.53,0-1.01,0-1.99,0-2.95,0-1.91,.01-3.72,.01-5.38l.13,.13c-3.38-.03-6.21-.05-8.23-.07-.98-.01-1.76-.03-2.33-.03-.25,0-.46-.01-.62-.01-.14,0-.22,0-.22-.01s.06,0,.2-.01c.16,0,.35,0,.6-.01,.56,0,1.33-.02,2.3-.03,2.04-.02,4.89-.04,8.31-.07h.13s0,.13,0,.13c0,1.66,0,3.47,.01,5.38,0,.96,0,1.94,0,2.95,0,.5,0,1.01,0,1.53,0,.26,0,.51,0,.77v.39s0,.2,0,.2v.17h0v.02h0c.13-.13-.18,.19-.15,.15-4.17,0-8.08-.01-11.41-.02h-.13s0-.13,0-.13c.03-3.42,.05-6.27,.07-8.31,.01-.97,.03-1.74,.03-2.3,0-.24,.01-.44,.01-.6,0-.13,0-.2,.01-.2Z"/>
        <path class="cls-1" d="M31.21,113.26c.19,.16-2.26,3.46-5.47,7.37-.68,.81-1.33,1.59-1.93,2.31l-.28,.34-.32-.29c-2.68-2.4-4.52-4.2-4.39-4.35,.13-.15,2.18,1.41,4.94,3.71l-.6,.05c.59-.73,1.22-1.52,1.89-2.34,3.21-3.91,5.97-6.96,6.16-6.8Z"/>
      </g>
      <g>
        <path class="cls-12" d="M17.25,142.24s0,.08,.01,.22c0,.16,0,.37,.01,.62,0,.57,.02,1.35,.03,2.33,.02,2.02,.04,4.85,.07,8.23l-.13-.13c3.32,0,7.23-.01,11.41-.02,.03-.03-.28,.28-.15,.15h0v-.78c0-.26,0-.52,0-.77,0-.51,0-1.02,0-1.53,0-1.01,0-1.99,0-2.95,0-1.91,.01-3.72,.01-5.38l.13,.13c-3.38-.03-6.21-.05-8.23-.07-.98-.01-1.76-.03-2.33-.03-.25,0-.46-.01-.62-.01-.14,0-.22,0-.22-.01s.06,0,.2-.01c.16,0,.35,0,.6-.01,.56,0,1.33-.02,2.3-.03,2.04-.02,4.89-.04,8.31-.07h.13s0,.13,0,.13c0,1.66,0,3.47,.01,5.38,0,.96,0,1.94,0,2.95,0,.5,0,1.01,0,1.53,0,.26,0,.51,0,.77v.39s0,.2,0,.2v.17h0v.02h0c.13-.13-.18,.19-.15,.15-4.17,0-8.08-.01-11.41-.02h-.13s0-.13,0-.13c.03-3.42,.05-6.27,.07-8.31,.01-.97,.03-1.74,.03-2.3,0-.24,.01-.44,.01-.6,0-.13,0-.2,.01-.2Z"/>
        <path class="cls-1" d="M31.21,139.49c.19,.16-2.26,3.46-5.47,7.37-.68,.81-1.33,1.59-1.93,2.31l-.28,.34-.32-.29c-2.68-2.4-4.52-4.2-4.39-4.35,.13-.15,2.18,1.41,4.94,3.71l-.6,.05c.59-.73,1.22-1.52,1.89-2.34,3.21-3.91,5.97-6.96,6.16-6.8Z"/>
      </g>
      <g>
        <path class="cls-12" d="M17.25,169.09s0,.08,.01,.22c0,.16,0,.37,.01,.62,0,.57,.02,1.35,.03,2.33,.02,2.02,.04,4.85,.07,8.23l-.13-.13c3.32,0,7.23-.01,11.41-.02,.03-.03-.28,.28-.15,.15h0v-.78c0-.26,0-.52,0-.77,0-.51,0-1.02,0-1.53,0-1.01,0-1.99,0-2.95,0-1.91,.01-3.72,.01-5.38l.13,.13c-3.38-.03-6.21-.05-8.23-.07-.98-.01-1.76-.03-2.33-.03-.25,0-.46-.01-.62-.01-.14,0-.22,0-.22-.01s.06,0,.2-.01c.16,0,.35,0,.6-.01,.56,0,1.33-.02,2.3-.03,2.04-.02,4.89-.04,8.31-.07h.13s0,.13,0,.13c0,1.66,0,3.47,.01,5.38,0,.96,0,1.94,0,2.95,0,.5,0,1.01,0,1.53,0,.26,0,.51,0,.77v.39s0,.2,0,.2v.17h0v.02h0c.13-.13-.18,.19-.15,.15-4.17,0-8.08-.01-11.41-.02h-.13s0-.13,0-.13c.03-3.42,.05-6.27,.07-8.31,.01-.97,.03-1.74,.03-2.3,0-.24,.01-.44,.01-.6,0-.13,0-.2,.01-.2Z"/>
        <path class="cls-1" d="M31.21,166.35c.19,.16-2.26,3.46-5.47,7.37-.68,.81-1.33,1.59-1.93,2.31l-.28,.34-.32-.29c-2.68-2.4-4.52-4.2-4.39-4.35,.13-.15,2.18,1.41,4.94,3.71l-.6,.05c.59-.73,1.22-1.52,1.89-2.34,3.21-3.91,5.97-6.96,6.16-6.8Z"/>
      </g>
    </g>
  </g>
</svg>