<?xml version="1.0" encoding="UTF-8"?>
<svg id="Layer_2" data-name="Layer 2" xmlns="http://www.w3.org/2000/svg" viewBox="0 0 175.44 167.67">
  <defs>
    <style>
      .cls-1, .cls-2, .cls-3, .cls-4 {
        fill: #fff;
      }

      .cls-2, .cls-5 {
        opacity: .4;
      }

      .cls-6 {
        fill: #86d1cd;
      }

      .cls-7 {
        stroke-miterlimit: 10;
      }

      .cls-7, .cls-8 {
        fill: none;
        stroke: #fff;
        stroke-width: .75px;
      }

      .cls-9 {
        fill: #a8d29f;
      }

      .cls-10 {
        opacity: .2;
      }

      .cls-3 {
        opacity: .7;
      }

      .cls-11 {
        fill: #fd897b;
      }

      .cls-12 {
        fill: #007cff;
      }

      .cls-13 {
        fill: #ff9843;
      }

      .cls-14 {
        fill: #2c3a64;
      }

      .cls-15 {
        opacity: .1;
      }

      .cls-16 {
        fill: #ff8b7b;
      }

      .cls-17 {
        fill: #80a876;
      }

      .cls-18 {
        fill: #ed7d2b;
      }

      .cls-8 {
        stroke-linecap: round;
        stroke-linejoin: round;
      }

      .cls-4 {
        opacity: .6;
      }

      .cls-19 {
        fill: #f2f2f2;
      }

      .cls-20 {
        fill: #2b478b;
      }

      .cls-21 {
        fill: #263238;
      }
    </style>
  </defs>
  <g id="Layer_1-2" data-name="Layer 1">
    <g>
      <g>
        <rect class="cls-21" x="19.57" y="4.52" width="98.24" height="142.42" rx="4.52" ry="4.52"/>
        <rect class="cls-2" x="19.57" y="4.52" width="98.24" height="142.42" rx="4.52" ry="4.52"/>
        <rect class="cls-10" x="28" y="14.94" width="85.13" height="126.45"/>
        <path class="cls-14" d="M71.3,2.66c0-1.44-1.17-2.61-2.61-2.61s-2.61,1.17-2.61,2.61h-18.69c-.73,0-1.31,.59-1.31,1.31v13.62h45.25V3.97c0-.73-.59-1.31-1.31-1.31h-18.7Zm-2.61-1.37c.75,0,1.37,.61,1.37,1.37s-.61,1.37-1.37,1.37-1.37-.61-1.37-1.37,.61-1.37,1.37-1.37Z"/>
        <g>
          <g>
            <rect class="cls-12" x="26.13" y="13.07" width="85.13" height="126.45"/>
            <rect class="cls-3" x="26.13" y="13.07" width="85.13" height="126.45"/>
          </g>
          <g>
            <g class="cls-5">
              <rect x="39.57" y="27.07" width="58.25" height="3.12"/>
            </g>
            <g class="cls-5">
              <rect x="45.81" y="38.15" width="52.01" height="1.25"/>
            </g>
            <g class="cls-5">
              <rect x="39.57" y="42.99" width="58.25" height="1.25"/>
            </g>
            <g class="cls-5">
              <rect x="39.57" y="47.82" width="58.25" height="1.25"/>
            </g>
            <g class="cls-5">
              <rect x="39.57" y="52.66" width="58.25" height="1.25"/>
            </g>
            <g class="cls-5">
              <rect x="39.57" y="57.5" width="58.25" height="1.25"/>
            </g>
            <g class="cls-5">
              <rect x="39.57" y="62.33" width="58.25" height="1.25"/>
            </g>
            <g class="cls-5">
              <rect x="39.57" y="67.17" width="27.04" height="1.25"/>
            </g>
            <g class="cls-5">
              <path d="M49.76,86.84h-10.2v-10.2h10.2v10.2Zm-8.95-1.25h7.7v-7.7h-7.7v7.7Z"/>
            </g>
            <g class="cls-5">
              <rect x="53.08" y="79.23" width="44.73" height="1.25"/>
              <rect x="53.08" y="83.01" width="30.48" height="1.25"/>
            </g>
            <g class="cls-5">
              <path d="M49.76,105.57h-10.2v-10.2h10.2v10.2Zm-8.95-1.25h7.7v-7.7h-7.7v7.7Z"/>
            </g>
            <g class="cls-5">
              <rect x="53.08" y="97.96" width="44.73" height="1.25"/>
              <rect x="53.08" y="101.74" width="30.48" height="1.25"/>
            </g>
            <g class="cls-5">
              <path d="M49.76,124.3h-10.2v-10.2h10.2v10.2Zm-8.95-1.25h7.7v-7.7h-7.7v7.7Z"/>
            </g>
            <g class="cls-5">
              <rect x="53.08" y="116.69" width="44.73" height="1.25"/>
              <rect x="53.08" y="120.47" width="30.48" height="1.25"/>
            </g>
            <polygon class="cls-12" points="43.57 84.62 41.75 82.11 42.76 81.38 43.68 82.65 46.61 79.43 47.53 80.27 43.57 84.62"/>
            <polygon class="cls-12" points="43.57 103.35 41.75 100.84 42.76 100.11 43.68 101.38 46.61 98.16 47.53 99 43.57 103.35"/>
            <polygon class="cls-12" points="43.57 122.08 41.75 119.57 42.76 118.84 43.68 120.11 46.61 116.89 47.53 117.73 43.57 122.08"/>
          </g>
        </g>
        <g class="cls-10">
          <path d="M84.45,21.33h-30.28c-1.14,0-1.97-.93-1.85-2.06l.83-8.13c.12-1.14,1.14-2.06,2.27-2.06h30.28c1.14,0,1.97,.93,1.85,2.06l-.83,8.13c-.12,1.14-1.14,2.06-2.27,2.06Zm-29.15-11.01c-.45,0-.85,.37-.9,.82l-.83,8.13c-.05,.45,.28,.82,.73,.82h30.28c.45,0,.85-.37,.9-.82l.83-8.13c.05-.45-.28-.82-.73-.82h-30.28Z"/>
        </g>
        <path class="cls-1" d="M83.83,20.71h-30.28c-1.14,0-2.06-.93-2.06-2.06V10.51c0-1.14,.93-2.06,2.06-2.06h30.28c1.14,0,2.06,.93,2.06,2.06v8.13c0,1.14-.93,2.06-2.06,2.06Zm-30.28-11.01c-.45,0-.82,.37-.82,.82v8.13c0,.45,.37,.82,.82,.82h30.28c.45,0,.82-.37,.82-.82V10.51c0-.45-.37-.82-.82-.82h-30.28Z"/>
        <g>
          <rect class="cls-21" x="55.86" y="6.52" width="25.67" height="5.1" rx=".93" ry=".93"/>
          <rect class="cls-20" x="55.86" y="6.52" width="25.67" height="5.1" rx=".93" ry=".93"/>
        </g>
      </g>
      <g>
        <path class="cls-12" d="M10.97,152.59s2.96-6.47-.42-12.84c-3.39-6.37-4.37-7.88-2.21-9.18,2.16-1.31,3.15,5.1,3.15,5.1,0,0,1.82-4.41,.32-9.02-1.5-4.61-2.44-12.12-.39-12.93,2.05-.81,.39,9.37,2.17,12.84,0,0,1.5-3.86,1.74-7.57,.25-3.7-.14-9.62,1.48-11.14,1.62-1.52,2.66-.47,1.07,7.71-1.59,8.17-1.58,14.82-1.58,14.82,0,0,3.52-10.72,5.88-11.04,2.36-.31,2.36,3.16,.34,6.17-2.02,3.01-5.92,8.41-6.56,11.18,0,0,3.86-8.07,7.33-5.6,3.47,2.47-3.02,7.35-5.92,9.11-2.89,1.76-4.91,12.8-4.91,12.8l-1.49-.43Z"/>
        <path class="cls-17" d="M10.97,152.59s2.96-6.47-.42-12.84c-3.39-6.37-4.37-7.88-2.21-9.18,2.16-1.31,3.15,5.1,3.15,5.1,0,0,1.82-4.41,.32-9.02-1.5-4.61-2.44-12.12-.39-12.93,2.05-.81,.39,9.37,2.17,12.84,0,0,1.5-3.86,1.74-7.57,.25-3.7-.14-9.62,1.48-11.14,1.62-1.52,2.66-.47,1.07,7.71-1.59,8.17-1.58,14.82-1.58,14.82,0,0,3.52-10.72,5.88-11.04,2.36-.31,2.36,3.16,.34,6.17-2.02,3.01-5.92,8.41-6.56,11.18,0,0,3.86-8.07,7.33-5.6,3.47,2.47-3.02,7.35-5.92,9.11-2.89,1.76-4.91,12.8-4.91,12.8l-1.49-.43Z"/>
        <path class="cls-9" d="M13.31,155.25s-2.89-6.51,.58-12.83c3.46-6.32,4.46-7.81,2.32-9.15-2.14-1.34-3.21,5.05-3.21,5.05,0,0-1.77-4.43-.21-9.02,1.56-4.59,2.59-12.09,.55-12.92-2.04-.84-.5,9.36-2.33,12.81,0,0-1.45-3.88-1.65-7.59s.25-9.62-1.35-11.16c-1.6-1.54-2.65-.51-1.16,7.69s1.4,14.84,1.4,14.84c0,0-3.39-10.77-5.74-11.12-2.36-.35-2.4,3.12-.41,6.17,1.98,3.04,5.82,8.5,6.42,11.28,0,0-3.76-8.13-7.27-5.71-3.5,2.42,2.93,7.39,5.81,9.2,2.87,1.8,4.75,12.87,4.75,12.87l1.5-.4Z"/>
        <polygon class="cls-18" points="0 150.6 23.84 150.6 21.91 167.66 1.93 167.66 0 150.6"/>
      </g>
      <g>
        <g>
          <g>
            <polygon class="cls-14" points="114.58 64.9 114.49 65.14 101.94 96.93 97.22 108.88 88.37 92.86 70.97 98.52 88.34 54.54 99.36 58.89 113.92 64.64 114.58 64.9"/>
            <g class="cls-10">
              <path class="cls-1" d="M97.34,103.03l-7.57-13.7-14.89,4.84,15.03-38.07,22.46,8.87-15.03,38.07Zm-7.29-14.41l7.2,13.04,14.36-36.38-21.37-8.44-14.36,36.38,14.17-4.6Z"/>
            </g>
          </g>
          <path class="cls-10" d="M114.49,65.14l-12.55,31.78c-7.61-17.35-8.2-34.94-8.2-34.94l5.62-3.1,14.55,5.75,.57,.5Z"/>
          <g>
            <polygon class="cls-14" points="111.63 108.88 120.48 92.86 137.88 98.52 120.52 54.53 94.27 64.9 111.63 108.88"/>
            <g class="cls-10">
              <path class="cls-1" d="M96.49,64.96l22.46-8.87,15.03,38.07-14.89-4.84-7.57,13.7-15.03-38.07Zm36.49,28.27l-14.36-36.38-21.37,8.44,14.36,36.38,7.2-13.04,14.17,4.6Z"/>
            </g>
          </g>
        </g>
        <g>
          <polygon class="cls-14" points="104.43 2.64 107.53 .21 110.15 3.16 113.64 1.32 115.7 4.69 119.46 3.51 120.88 7.18 124.79 6.69 125.53 10.56 129.47 10.78 129.5 14.72 133.34 15.63 132.67 19.52 136.28 21.1 134.93 24.81 138.2 27.01 136.21 30.41 139.03 33.16 136.47 36.16 138.76 39.37 135.7 41.86 137.37 45.42 133.92 47.33 134.93 51.13 131.2 52.39 131.51 56.32 127.61 56.89 127.22 60.81 123.28 60.67 122.19 64.46 118.34 63.62 116.6 67.15 112.96 65.64 110.61 68.81 107.3 66.67 104.43 69.36 101.55 66.67 98.24 68.81 95.89 65.64 92.25 67.15 90.51 63.62 86.66 64.46 85.57 60.67 81.63 60.81 81.24 56.89 77.34 56.32 77.65 52.39 73.92 51.13 74.93 47.33 71.48 45.42 73.15 41.86 70.1 39.37 72.38 36.16 69.82 33.16 72.64 30.41 70.65 27.01 73.92 24.81 72.57 21.1 76.18 19.52 75.51 15.63 79.35 14.72 79.39 10.78 83.32 10.56 84.06 6.69 87.97 7.18 89.39 3.51 93.15 4.69 95.21 1.32 98.7 3.16 101.32 .21 104.43 2.64"/>
          <circle class="cls-20" cx="104.43" cy="34.79" r="29.8" transform="translate(5.99 84.03) rotate(-45)"/>
          <g>
            <path class="cls-12" d="M90.55,35.91l7.03-.62s1.29-5.06,.49-15.96c0,0,2.43-.45,3.63-.19,1.21,.26,2.47,12.38,2.47,12.38,0,0,12.61-1.74,13.33-1.24,.46,.31,.69,2.19,.8,3.51,.07,.77-.43,1.48-1.18,1.68l-.43,.12,.24,12.13c.02,.94-.7,1.72-1.63,1.8l-11.81,.94c-1.17,.09-2.34-.17-3.35-.76l-1.35-.78-7.25,1.04-.99-14.05Z"/>
            <path class="cls-19" d="M90.55,35.91l7.03-.62s1.29-5.06,.49-15.96c0,0,2.43-.45,3.63-.19,1.21,.26,2.47,12.38,2.47,12.38,0,0,12.61-1.74,13.33-1.24,.46,.31,.69,2.19,.8,3.51,.07,.77-.43,1.48-1.18,1.68l-.43,.12,.24,12.13c.02,.94-.7,1.72-1.63,1.8l-11.81,.94c-1.17,.09-2.34-.17-3.35-.76l-1.35-.78-7.25,1.04-.99-14.05Z"/>
          </g>
        </g>
      </g>
      <g>
        <g>
          <path class="cls-11" d="M119.41,33.19l-5.36-2.82,3.18-4.23s4.03,1.45,4.12,4.97l-1.94,2.08Z"/>
          <polygon class="cls-11" points="111.62 26.8 114.75 24.21 117.23 26.13 114.05 30.36 111.62 26.8"/>
        </g>
        <path class="cls-12" d="M143.19,25.04c-.93,.2-2.01,.59-2.9,1.15-.9,.54-1.62,1.16-2.2,1.73-1.2,1.15-2.08,2.26-2.98,3.35-1.73,2.16-3.35,4.28-4.99,6.42-.29-.18-.58-.37-.88-.58-.51-.35-1.02-.73-1.54-1.13-2.06-1.6-4.14-3.38-6.21-5.1l-2.54,2.21c1.56,2.38,3.24,4.6,5.2,6.74,1,1.07,2,2.1,3.41,3.12,.36,.26,.75,.51,1.27,.77,.26,.13,.56,.25,.94,.36,.4,.1,.88,.21,1.6,.14,.17-.02,.36-.05,.57-.1,.2-.05,.41-.12,.63-.22,.42-.19,.84-.49,1.14-.82l.46-.5,.7-.77c1.85-2.04,3.66-4.15,5.42-6.17,.87-1,1.76-2,2.53-2.75,.39-.39,.73-.66,1.01-.82,.28-.16,.5-.27,.9-.39l-1.54-6.62Z"/>
        <path class="cls-13" d="M144.73,31.65c-.4,.11-.62,.22-.9,.39-.28,.16-.62,.44-1.01,.82-.32,.32-.67,.68-1.03,1.07-.49,.52-1,1.1-1.5,1.68-1.1,1.27-2.23,2.57-3.38,3.87-.67,.77-1.35,1.53-2.04,2.29l-.7,.77-.46,.5c-.31,.33-.72,.64-1.14,.82-.22,.1-.42,.17-.62,.22-.21,.06-.4,.09-.57,.11-.72,.06-1.2-.04-1.6-.14-.38-.11-.68-.23-.94-.36-.52-.26-.91-.51-1.27-.77-1.4-1.01-2.4-2.05-3.41-3.11-1.96-2.14-3.64-4.36-5.2-6.74l2.55-2.21c2.07,1.73,4.16,3.51,6.21,5.1,.51,.4,1.03,.78,1.54,1.13,.29,.21,.59,.41,.88,.59,1.63-2.14,3.25-4.26,4.99-6.41,.9-1.09,1.78-2.2,2.98-3.36,.59-.57,1.3-1.19,2.2-1.73,.89-.55,1.97-.94,2.89-1.14l1.55,6.61Z"/>
        <path class="cls-15" d="M141.79,33.93c-.49,.52-1,1.1-1.5,1.68-1.1,1.27-2.23,2.57-3.38,3.87,.54-5.12,4.21-7.26,4.21-7.26,.34,.49,.56,1.06,.67,1.7Z"/>
        <path class="cls-12" d="M168,26.46s0,.01,0,.02c-1.3,3.72-2.16,8.05-2.71,12.38-.44,3.44-.69,6.87-.84,10.01-.14,3.21-.16,6.1-.14,8.35,.03,2.93,.13,4.76,.13,4.76h-25.15c-3.56-25.49,3.63-36.99,3.63-36.99,0,0,2.64-.53,5.72-.72,.4-.03,.81-.04,1.23-.05,2.71-.06,7.13,.34,10.18,.69,.64,.07,1.29,.17,1.92,.27,3.21,.52,6.04,1.29,6.04,1.29Z"/>
        <path class="cls-13" d="M168,26.46s0,.01,0,.02c-.58,1.64-1.07,3.41-1.48,5.23-.42,1.88-.77,3.83-1.05,5.8-.06,.46-.12,.9-.18,1.36-.28,2.22-.49,4.44-.64,6.58-.08,1.17-.15,2.32-.2,3.43-.08,1.98-.12,3.85-.14,5.51,0,1.03,0,1.98,0,2.84,.03,2.93,.12,4.76,.12,4.76h-25.14c-3.56-25.49,3.63-36.99,3.63-36.99,0,0,2.65-.54,5.72-.72,.41-.03,.82-.04,1.24-.05,2.71-.06,7.13,.34,10.18,.69,.64,.07,1.29,.16,1.92,.26,3.21,.52,6.04,1.29,6.04,1.29Z"/>
        <path class="cls-14" d="M120.53,166.13s8.37-2.47,8.99-5.76c.06-.32,.33-.54,.68-.48l6.08,1.02c.28,.05,.53,.27,.62,.54l1.86,5.92-1.72,.05-.64-.85-.72,.89c-9.33,.29-13.37,.32-15.24-.21-.29-.82,.1-1.12,.1-1.12Z"/>
        <path class="cls-14" d="M154.24,166.13s8.37-2.47,8.99-5.76c.06-.32,.33-.54,.68-.48l6.08,1.02c.28,.05,.53,.27,.62,.54l1.86,5.92-1.72,.05-.64-.85-.72,.89c-9.33,.29-13.37,.32-15.24-.21-.29-.82,.1-1.12,.1-1.12Z"/>
        <path class="cls-6" d="M156.4,63.04h0c-.05,.16-1.55,4.87-3.58,11.64-.11,.39-.23,.79-.35,1.19-.95,3.22-2.01,6.84-3.07,10.62-1.3,4.6-2.6,9.43-3.76,14.06-1.67,6.69-3.01,12.96-3.55,17.48-1.75,14.83-5.17,44.11-5.17,44.11l-7.89-2.02s-1.44-31.71,.06-46.86c.95-9.63,5.23-29.22,8.04-41.4,1.43-6.25,2.47-10.55,2.47-10.55l9.06,.94,7.74,.8Z"/>
        <path class="cls-10" d="M145.64,100.54c2.1-8.44,4.7-17.55,6.82-24.68l-1.66-3.82c-4.29,4.82-5.78,20.13-5.17,28.5Z"/>
        <path class="cls-6" d="M171.02,161.67l-8.75,.85s-10.09-29.36-11.38-44.72c-.56-6.68-1.1-19.61-1.5-31.31-.3-8.57-.52-16.48-.65-20.81-.06-2.16-.09-3.43-.09-3.43l7.74,.8,8.28,.25s.39,1.91,.27,9.96c-.18,12.5-.6,34.5-.36,46.32,.31,15.32,6.43,42.1,6.43,42.1Z"/>
        <g>
          <path class="cls-11" d="M157.89,14.24l-6.17,5.39c.68,2.54-.33,4.93-1.56,5.4l.92,2.54,7.62-2.93c-1.95-1.99-1.4-7.11-.81-10.39Z"/>
          <path class="cls-10" d="M155.37,16.44l-3.65,3.19c.16,.6,.29,1.21,.35,1.81,1.39-.21,3.29-1.76,3.41-3.22,.06-.73,.02-1.43-.11-1.77Z"/>
          <path class="cls-12" d="M158.07,23.11s-4.72,1.48-5.39,1.88c-.67,.39-1.44,2.27-1.44,2.27,0,0,.52-1.93,.25-3.04-.26-1.11-.73-1.11-.73-1.11l-1.21,2.47s-.25,2.14,1.69,2.45c1.94,.31,7.85-3.23,7.85-3.23l-1.03-1.7Z"/>
          <path class="cls-4" d="M158.07,23.11s-4.72,1.48-5.39,1.88c-.67,.39-1.44,2.27-1.44,2.27,0,0,.52-1.93,.25-3.04-.26-1.11-.73-1.11-.73-1.11l-1.21,2.47s-.25,2.14,1.69,2.45c1.94,.31,7.85-3.23,7.85-3.23l-1.03-1.7Z"/>
        </g>
        <g>
          <path class="cls-21" d="M146.8,5.17c-1.11,1.31,.18,3,.12,4.28-.05,1.29-.27,2.96,1.38,1.19,1.65-1.77,.23-7.3-1.5-5.47Z"/>
          <path class="cls-16" d="M158.31,10.79c-.56,4.29,.01,5.02-2.31,7.07-3.5,3.08-8.91,3.37-9.39-1.05-.44-3.98-.37-11.13,3.97-12.53,4.28-1.37,8.29,2.21,7.74,6.5Z"/>
          <path class="cls-21" d="M157.68,13.68c-1.94,1.17-2.57-1.56-2.43-1.77,.59-.92,.56-1.71-.14-3.48-.7-1.76,2.84-3.81,5.41-3.04,2.37,.7-.03,2.55,.28,4.09,.55,2.75-1.55,3.25-3.11,4.2Z"/>
          <path class="cls-1" d="M148,15.42s1.22-.32,4.66-.5c-.38,.97-1.11,1.78-2.87,1.86-1.76,.08-1.79-1.36-1.79-1.36Z"/>
          <path class="cls-16" d="M160.09,13.8c-.49,1.01-1.34,1.69-2.12,1.97-1.19,.42-1.75-.75-1.4-2.02,.32-1.15,1.32-2.75,2.5-2.62,1.16,.13,1.59,1.52,1.02,2.67Z"/>
          <path class="cls-21" d="M151.53,5.92s-3.25,1.44-4.69-1.4c-1.44-2.84,2.42-4.53,2.42-4.53,0,0-.5,.99,0,1.97,0,0,.65-2.06,3.38-1.4,2.72,.66,7.05,1.51,7.95,2.96,.78,1.27,.21,2.34,.21,2.34l-4.44,1.07s-1.73-2.76-4.82-1.03Z"/>
        </g>
        <path class="cls-6" d="M139.01,59.83l-.19,4.77,26.15,4.22c0-4.13-.65-9.5-.65-9.5l-25.31,.51Z"/>
        <g>
          <g>
            <polygon class="cls-21" points="164.18 61.8 164.71 61.79 164.53 60.06 164.05 60.07 164.18 61.8"/>
            <polygon class="cls-21" points="144.28 62.14 155.08 61.96 154.96 60.23 144.21 60.42 144.28 62.14"/>
            <polygon class="cls-21" points="143.38 60.43 138.81 60.51 138.81 62.24 143.43 62.16 143.38 60.43"/>
            <polygon class="cls-21" points="163.22 60.08 155.79 60.21 155.93 61.94 163.33 61.82 163.22 60.08"/>
          </g>
          <g class="cls-10">
            <polygon class="cls-1" points="164.18 61.8 164.71 61.79 164.53 60.06 164.05 60.07 164.18 61.8"/>
            <polygon class="cls-1" points="144.28 62.14 155.08 61.96 154.96 60.23 144.21 60.42 144.28 62.14"/>
            <polygon class="cls-1" points="143.38 60.43 138.81 60.51 138.81 62.24 143.43 62.16 143.38 60.43"/>
            <polygon class="cls-1" points="163.22 60.08 155.79 60.21 155.93 61.94 163.33 61.82 163.22 60.08"/>
          </g>
          <g>
            <path class="cls-7" d="M147.53,60.69l.06,1.05c0,.17,.15,.3,.31,.3h2.7c.18,0,.33-.16,.31-.34l-.08-1.09c-.01-.17-.15-.3-.32-.29l-2.68,.05c-.18,0-.32,.15-.31,.33Z"/>
            <line class="cls-8" x1="149.68" y1="61.15" x2="150.5" y2="61.15"/>
          </g>
        </g>
        <path class="cls-15" d="M166.51,31.71c-.42,1.88-.77,3.83-1.05,5.8-.88-2.45-.49-5.27-.49-5.27,.56-.39,1.07-.56,1.55-.52Z"/>
        <path class="cls-15" d="M164.64,45.44c-.08,1.17-.15,2.32-.2,3.43-.08,1.98-.12,3.85-.14,5.51-2.63-1.09-7.4-3.25-7.96-4.94-.78-2.34,.51-3.41,.51-3.41,0,0,4.95-.07,7.79-.59Z"/>
        <g>
          <path class="cls-11" d="M153.13,44.98l-1.33,.4c-.68,.21-1.11,.87-1.03,1.57l.2,1.73c.08,.64,.56,1.16,1.2,1.27l.8,.14s2.66,1.74,5.17-.74l.04-2.85-4.12-1.5c-.3-.11-.62-.12-.93-.03Z"/>
          <path class="cls-11" d="M156.86,46.42s-1.24-2.28-1.28-3.66c-.04-1.38-1.24,.23-.65,1.24,.59,1.01-.46,1.7-.46,1.7l2.4,.72Z"/>
        </g>
        <g>
          <path class="cls-12" d="M175.42,45.79l-.05-.32-.04-.23-.05-.26-.09-.52c-.51-2.8-1.07-5.59-1.8-8.43-.37-1.42-.77-2.84-1.34-4.34-.3-.76-.61-1.52-1.13-2.42-.27-.45-.58-.94-1.11-1.49-.28-.28-.6-.57-1.05-.85-.44-.27-.99-.51-1.56-.64,0,0-1.5,.69-1.97,2.96-.41,1.97-.29,3.32-.2,3.48,.19,.32,.43,.86,.64,1.41,.43,1.13,.84,2.41,1.23,3.7,.77,2.55,1.48,5.2,2.21,7.85-.31,.09-.67,.18-1.04,.25-.58,.12-1.22,.2-1.86,.26-2.58,.26-5.39,.3-8.12,.31l-.51,3.33c2.85,.8,5.67,1.35,8.71,1.55,.76,.04,1.54,.06,2.36,.02,.82-.03,1.66-.12,2.63-.37,.48-.13,1-.3,1.59-.6,.58-.32,1.28-.77,1.86-1.66,.29-.43,.51-.96,.62-1.49,.12-.54,.12-1.04,.08-1.5Z"/>
          <path class="cls-13" d="M175.42,45.79l-.05-.32-.04-.23-.05-.26-.09-.52c-.51-2.8-1.07-5.59-1.8-8.43-.37-1.42-.77-2.84-1.34-4.34-.3-.76-.61-1.52-1.13-2.42-.27-.45-.58-.94-1.11-1.49-.28-.28-.6-.57-1.05-.85-.44-.27-.99-.51-1.56-.64,0,0-1.5,.69-1.97,2.96-.41,1.97-.29,3.32-.2,3.48,.19,.32,.43,.86,.64,1.41,.43,1.13,.84,2.41,1.23,3.7,.77,2.55,1.48,5.2,2.21,7.85-.31,.09-.67,.18-1.04,.25-.58,.12-1.22,.2-1.86,.26-2.58,.26-5.39,.3-8.12,.31l-.51,3.33c2.85,.8,5.67,1.35,8.71,1.55,.76,.04,1.54,.06,2.36,.02,.82-.03,1.66-.12,2.63-.37,.48-.13,1-.3,1.59-.6,.58-.32,1.28-.77,1.86-1.66,.29-.43,.51-.96,.62-1.49,.12-.54,.12-1.04,.08-1.5Z"/>
        </g>
      </g>
    </g>
  </g>
</svg>