<?xml version="1.0" encoding="UTF-8"?>
<svg id="Layer_2" data-name="Layer 2" xmlns="http://www.w3.org/2000/svg" viewBox="0 0 177.86 201">
  <defs>
    <style>
      .cls-1 {
        fill: #fff;
      }

      .cls-2 {
        fill: #e6365f;
      }

      .cls-3 {
        fill: #eba935;
      }

      .cls-4 {
        fill: #302c58;
      }

      .cls-5 {
        fill: #facf44;
      }

      .cls-6 {
        fill: #de6d4b;
      }

      .cls-7 {
        fill: #ff9843;
      }

      .cls-8 {
        fill: #2c3a64;
      }

      .cls-9 {
        fill: #ed7d2b;
      }

      .cls-10 {
        fill: #89a0eb;
      }

      .cls-11 {
        fill: #2b478b;
      }

      .cls-12 {
        fill: #f3855f;
      }
    </style>
  </defs>
  <g id="Layer_1-2" data-name="Layer 1">
    <g>
      <g id="c">
        <g>
          <polygon id="v-2" class="cls-12" points="142.02 66.61 142.01 66.61 137.96 66.63 137.05 75.4 137.05 76.19 141.77 78.68 146.81 76.22 145.99 66.63 142.02 66.61"/>
          <g>
            <path class="cls-12" d="M153.13,62.4c-2.49,6.22-8.47,9.68-13.36,7.73-4.89-1.96-6.83-8.59-4.34-14.81,2.49-6.22,8.47-9.68,13.36-7.73,4.89,1.96,6.83,8.59,4.34,14.81Z"/>
            <path class="cls-8" d="M156.53,57.75c2.11-6-3.02-9.44-3.02-9.44,0,0,1.38-.12,1.54-2.06-1.03,.32-2.19,.3-3.2-.07-6.84-2.48-11.55-2.44-11.55,.48,0,1.04-4.68,.39-4.3,7.39,.63-.66,1.75-3.44,3.27-3.72,1.53-.29,.15,1.75,3.34,2.19,3.22,.44,5.58-.34,7.55,1.47,1.54,1.58,1.92,9.63,1.68,10.12,.54-1.11,3.77-3.73,4.69-6.36Z"/>
            <path class="cls-8" d="M134.49,58.82s-.29,3.65,.24,4.78c.55-1.46,1.72,.09,2.83,.23,2.67,.35,7.49-.54,7.97,3.47,3.26,1.03,6.32-5.95,6.32-5.95,.19,7.8-5.52,12.23-13.74,10.94-5.41-.86-5.92-8.39-3.61-13.47Z"/>
            <path class="cls-6" d="M140.12,66.3c.53-.13,1.08-.34,1.65-.65,.15-.08,.2-.26,.13-.41-.08-.15-.26-.2-.41-.13-1.26,.68-2.4,.87-3.37,.57-1.2-.37-1.75-1.38-1.75-1.39-.08-.15-.26-.21-.41-.13-.15,.08-.21,.26-.13,.41,.03,.05,.66,1.24,2.1,1.68,.68,.21,1.41,.22,2.2,.03Z"/>
            <path class="cls-12" d="M151.92,61.4c-1.37,.77-1.98,2.31-1.34,3.43,.63,1.12,2.26,1.41,3.63,.64,1.37-.77,1.98-2.31,1.34-3.43-.63-1.12-2.26-1.41-3.63-.64Z"/>
          </g>
        </g>
        <path d="M134.63,191.65c-3.58,4.94-12.36,1.91-12.07,8.58,13.36-.09,18.91,0,18.91,0-.02-1.53-.28-5.17-.59-6.6l-6.25-1.99Z"/>
        <path d="M155.7,191.65c-3.58,4.94-12.36,1.91-12.07,8.58,13.36-.09,18.91,0,18.91,0-.02-1.53-.28-5.17-.59-6.6l-6.25-1.99Z"/>
        <path class="cls-8" d="M128.55,116.18s-3.87,32.78-2.99,39.81c.88,7.03,5.71,14.91,5.35,38.18,4.36,1.09,10.67,0,10.67,0,0,0,.94-26.31-3.67-38.06,1.87-11.41,7.88-37.56,7.88-37.56l-17.24-2.38Z"/>
        <path class="cls-8" d="M136.69,117.15s4.38,35.52,6.52,42.26c2.14,6.74,5.07,11.84,8.95,34.76,4.48,.22,9.9,.59,9.9,.59,0,0-.6-29.07-7.58-35.69-.24-11.57,1.13-41.7,1.13-41.7l-18.93-.23Z"/>
        <g id="v">
          <path id="h-5" class="cls-7" d="M156.88,76.84s-7.61-2.66-10.15-1.44c-7.88,3.8-9.69,0-9.69,0-2.77-.61-9.3-.61-9.3-.61-.83,11.03-2.2,46.32-2.2,46.32,0,0,8.39,2.2,16.32,2.26,7.94-.05,16.01-2.17,16.01-2.17,0,0-.42-15.42-.78-21.16,.11-6.43-.23-14.73-.23-23.2Z"/>
        </g>
        <g id="c-2" data-name="c">
          <path class="cls-12" d="M161.2,110.53l-1.45,1.79s-.53-2.44-2.2-2.11v2.61s-.94,1.5-4.92,.39c-3.61,.06-1.54,2.2-2.63,2.66-1.61,.67,2.08,3.26,5.62,2.93,4.58-.42,4.88-1.45,4.88-1.45l2.71-1.96-2.02-4.86Z"/>
        </g>
        <path class="cls-9" d="M156.88,76.84c6.95,2.99,15.48,9.88,20.73,20.8,1.8,3.74-6.76,4.5-8.46,3.02-1.71-1.48-12.27-12.5-12.27-12.5v-11.33Z"/>
        <path class="cls-9" d="M160.16,111.56c6.08-8.18,8.8-14.65,10.76-15.64,2.62-1.33,6.94-1.27,6.94,3.3,0,4.57-16.68,18.41-16.68,18.41l-1.02-6.07Z"/>
        <polygon class="cls-9" points="127.75 74.78 97.78 64.11 93.11 71.17 126.98 87.92 127.75 74.78"/>
      </g>
      <g>
        <g>
          <path class="cls-12" d="M48.35,73.21c.6,1.71,5.99,2.65,6.4,2.17,2.86-7.35-.15-21.77-.15-21.77l-2.68-1.22s-.94,11.16-3.56,20.82Z"/>
          <path class="cls-12" d="M34.92,87.54c5.03-1.61,19.27-10.62,19.91-12.42l-5.96-3.19s-16.23,7.21-18.86,8.54c-4.57,2.29-3.29,9.71,4.91,7.07Z"/>
        </g>
        <path class="cls-4" d="M38.71,60.33c.38-5.16-1.11-9.71-5.22-12.03-4.17-2.35-9.39-.05-9.39-.05h0s-4.42-1.57-8.42,2.84c-4,4.41-.98,8.29-2.61,11.51-.97,1.91-5.9,2.3-4.63,8.5,.37,1.79,2.52,2.99,4.34,3.11,3.2,.21,6.19-1.03,7.48,.21,4.28,4.08,13.76,2.6,15.09-1.13,.41-1.16,8.94,1.08,8.09-6.8-.43-3.99-5.07-1.56-4.73-6.17Z"/>
        <path class="cls-11" d="M39.19,103.15c0-4.31,3.74-10.77,1.95-15.12-1.3-3.5-3.48-9.38-6.15-10.36-1.26-.46-2.55-.78-4.12-1.22,0,0,.49,2.87-1.36,3.02-3.55,.28-5.42-4.27-5.42-4.27-1.91-.18-10.63,2.66-11.04,4.06,.02,5.65,4.96,13.25,6.46,19.35,.59,6.59-.82,10.11-.83,10.86,0,0,12.47,4.17,20.84-.44,0,0-.33-2.98-.33-5.89Z"/>
        <path class="cls-12" d="M29.18,71.47l-5.5-.82,.28,4.54s1.5,5.02,4.63,5.09c3.13,.07,2.26-3.83,2.26-3.83l-1.68-4.98Z"/>
        <g>
          <path class="cls-12" d="M18.6,64.09c1.42,5.93,6.35,9.83,11,8.72,4.66-1.11,7.28-6.82,5.86-12.75-1.42-5.93-6.35-9.83-11-8.72-4.66,1.11-7.28,6.82-5.86,12.75Z"/>
          <path class="cls-12" d="M20.84,64.13c1.13,.88,1.46,2.34,.74,3.27-.72,.93-2.22,.96-3.35,.08-1.13-.88-1.46-2.34-.74-3.27,.72-.93,2.22-.96,3.35-.08Z"/>
          <path class="cls-6" d="M20.19,67.13s.08-.05,.11-.09c.43-.58,.48-1.23,.11-1.74-.37-.52-1.07-.76-1.65-.57-.16,.05-.25,.23-.2,.4,.05,.16,.23,.25,.4,.2,.32-.11,.74,.04,.95,.34,.2,.28,.17,.64-.1,1-.1,.14-.08,.33,.06,.44,.1,.07,.23,.08,.33,.03Z"/>
          <path class="cls-1" d="M27.59,68.15c-.13-.18,.01-.42,.23-.4,.56,.07,1.48,.16,2.35,.16s1.8-.09,2.35-.16c.22-.03,.36,.22,.23,.4-.4,.54-1.24,1.37-2.58,1.37s-2.18-.83-2.58-1.37Z"/>
        </g>
        <path class="cls-4" d="M18.48,63.57c5.56-.74,13.33-6.41,13.97-9.31-1.08-3.49-6.8-5.25-10.04-3.63-3.23,1.62-6.29,8.55-3.94,12.94Z"/>
        <g>
          <path class="cls-12" d="M34.33,187.05c-.37-3.67,1.53-31.62,1.53-31.62,5.36-24.57,3.25-42.16,3.25-42.16l-9.21,.65-3.63,13.88,1.72,23.19s-.65,1.78-.99,3.21c-1.85,7.74,0,16.99,1.13,23.16,.53,2.86,1.35,8.86,1.37,10.23l-2.31,2.99s8.37,9.27,9.66,9.33c2.5,.11,1.77-2.37,1.77-2.37-3.44-3.53-4.19-9.43-4.29-10.48Z"/>
          <path class="cls-2" d="M27.05,193.86l.46,5.95,1.07,.05,.54-5.53c2.85,.73,4.89,5.9,4.89,5.9,1.96,.7,6.95,1.19,8.73,.27,.43-1.74-4.12-2.96-4.12-2.96-.41,.49-2.84,.86-3.7,.34-3.18-2.71-4.73-6.64-5.4-10.3,0,0-5.02,.35-2.46,6.28Z"/>
        </g>
        <g>
          <path class="cls-12" d="M31.22,115.05l-12.97-1.79c-4.96,11.23-6.58,30.78-7.93,37.75-5.41,9.07-7.13,36.57-7.13,36.57l-2.31,2.99s8.37,9.27,9.66,9.33c2.5,.11,1.77-2.37,1.77-2.37-3.44-3.53-4.11-8.23-4.34-9.26-.33-1.55,10.5-32.06,10.5-32.06l1.16-2.89c13.24-21.86,15.41-38.39,15.41-38.39l-3.82,.13Z"/>
          <path class="cls-2" d="M.73,193.86l.46,5.95,1.07,.05,.54-5.53c2.85,.73,4.89,5.9,4.89,5.9,1.96,.7,6.95,1.19,8.73,.27,.43-1.74-4.12-2.96-4.12-2.96-.41,.49-2.84,.86-3.7,.34-3.18-2.71-4.73-6.64-5.4-10.3,0,0-5.02,.35-2.46,6.28Z"/>
        </g>
        <path class="cls-11" d="M7.09,149.74c1.3-4.34,.76-34.89,12.2-43.33l19.66,1.6c4.55,7.36,2.88,26.52,1.35,42.29-9.26,3.3-16.61,4.63-33.2-.56Z"/>
      </g>
      <g>
        <g>
          <path class="cls-5" d="M123.35,24c-.33-1.07-.9-1.99-1.61-2.77-5.71-8.31-18.9-3.5-38.11,1.95-3.21,.91-2.55-3.4-3.97-11.97-.93-5.58-6.93-12.72-12.76-10.92-9.61,2.97,1.97,7.66-.76,28.93-1.46,11.37-13.33,8.92-10.23,18.93l7.04,22.79c1.2,3.9,2.75,7.52,8.44,6.44,5.52-1.05,5.49,3.11,13.19,.73l38.53-11.91c3.92-1.21,6.13-5.38,4.93-9.29-.5-1.62-1.53-2.92-2.82-3.83,1.8-1.89,2.59-4.64,1.77-7.3-.5-1.62-1.52-2.92-2.81-3.82,1.81-1.89,2.6-4.64,1.78-7.31-.6-1.93-1.92-3.44-3.59-4.33,1.22-1.8,1.66-4.09,.98-6.31h0Z"/>
          <path class="cls-3" d="M100.05,38.97l18.37-5.68c2.5-.77,4.43-2.83,5.05-5.36,.25-1.04-.39-2.1-1.44-2.35-1.05-.25-2.1,.4-2.36,1.44-.29,1.21-1.21,2.18-2.4,2.55l-18.81,5.81c-1.86,.58-3.85-.46-4.42-2.32-.57-1.86,.48-3.83,2.34-4.41l12.57-3.89c1.03-.32,1.61-1.41,1.29-2.44-.32-1.03-1.41-1.6-2.44-1.28l-12.57,3.89c-3.92,1.21-6.14,5.38-4.93,9.29,.67,2.18,2.28,3.79,4.24,4.61-.92,1.69-1.18,3.73-.57,5.7,.68,2.19,2.29,3.8,4.26,4.62-.91,1.69-1.17,3.72-.56,5.69,.74,2.38,2.58,4.11,4.79,4.84-.73,1.6-.93,3.45-.37,5.25,1.21,3.91,5.38,6.1,9.31,4.89l11.71-3.62c2.5-.77,4.43-2.83,5.05-5.36,.25-1.05-.39-2.1-1.44-2.35-1.05-.25-2.11,.4-2.36,1.44-.29,1.21-1.22,2.18-2.4,2.55l-11.71,3.62c-1.86,.58-3.85-.46-4.42-2.32-.57-1.86,.48-3.83,2.34-4.41l13.89-4.29c2.5-.77,4.44-2.83,5.05-5.36,.25-1.05-.39-2.1-1.44-2.35-1.06-.26-2.11,.4-2.36,1.44-.3,1.23-1.2,2.18-2.4,2.55l-15.08,4.66c-1.86,.58-3.85-.47-4.42-2.32-.57-1.86,.48-3.83,2.34-4.41l17.28-5.34c2.5-.77,4.43-2.83,5.05-5.36,.25-1.05-.39-2.1-1.44-2.35-1.05-.25-2.11,.4-2.36,1.44-.3,1.22-1.2,2.18-2.4,2.55l-17.75,5.49c-1.86,.58-3.85-.46-4.42-2.32-.57-1.86,.47-3.84,2.34-4.41h0Z"/>
        </g>
        <rect class="cls-10" x="44.75" y="39.95" width="18.86" height="43.61" rx="3.15" ry="3.15" transform="translate(-15.82 18.75) rotate(-17.17)"/>
      </g>
      <g>
        <path class="cls-12" d="M64.77,80.1c-1.25,.08-2.71-.33-3.54,.58l-2.18-2.5c2.12-3.4,7.11-4.55,7.62-4.6,1.33-.12,1.95-.25,2.05-.08,.1,.18,.43,1.36-1.5,1.59-2.42,.29-.81,2.23,4.1,.38,1.23-.46,3.55,.14,2.71,1.04-.92,.99-3.57,3.24-9.27,3.58Z"/>
        <g>
          <path class="cls-12" d="M39.48,87.51c-1.17,1.67,1.5,7.22,2.21,7.28,8.6-2.2,19.81-14.4,19.81-14.4l-.64-3.25s-10.82,6.45-21.38,10.38Z"/>
          <path class="cls-12" d="M16.36,87.74c5.17,2.93,23.49,7.81,25.47,6.96l-1.92-7.36s-18.35-7.9-21.46-9.06c-5.38-2.03-10.53,4.7-2.09,9.46Z"/>
        </g>
      </g>
    </g>
  </g>
</svg>