<?xml version="1.0" encoding="UTF-8"?>
<svg id="Layer_2" data-name="Layer 2" xmlns="http://www.w3.org/2000/svg" viewBox="0 0 134.57 165.05">
  <defs>
    <style>
      .cls-1 {
        fill: #ff9843;
      }

      .cls-1, .cls-2, .cls-3, .cls-4, .cls-5, .cls-6, .cls-7, .cls-8 {
        fill-rule: evenodd;
      }

      .cls-2 {
        fill: #f9c457;
      }

      .cls-3 {
        fill: #ffa412;
      }

      .cls-4 {
        fill: #f1a600;
      }

      .cls-5 {
        fill: #5b2446;
      }

      .cls-6 {
        fill: #2b478b;
      }

      .cls-7 {
        fill: #f8bd00;
      }

      .cls-8 {
        fill: #2c3a64;
      }
    </style>
  </defs>
  <g id="Layer_1-2" data-name="Layer 1">
    <g>
      <path class="cls-1" d="M67.28,165.05C22.61,151.55,0,98.82,0,26.24c20.23,0,51.31-2.45,67.28-26.24,15.98,23.78,47.06,26.24,67.29,26.24,0,72.58-22.62,125.31-67.29,138.81Z"/>
      <path class="cls-4" d="M123.76,34.89c-20.68-1.3-43.98-6.45-59.15-20.54-15.17,14.1-35.8,19.24-56.48,20.54,1.6,43.76,14.24,103.58,57.81,119.75,43.57-16.17,56.22-75.99,57.82-119.75Z"/>
      <path class="cls-6" d="M123.66,36.73c-20.68-1.28-41.3-6.33-56.48-20.19-15.17,13.85-35.8,18.91-56.48,20.19,1.6,43,12.91,101.53,56.48,117.42,43.57-15.89,54.88-74.42,56.48-117.42Z"/>
      <path class="cls-8" d="M29.56,34.34c-6.18,1.25-12.51,2-18.86,2.39,1.41,37.96,10.4,88.03,42.47,110.17-15.33-20.79-23.25-61.07-23.62-112.56Z"/>
      <path class="cls-8" d="M123.66,36.73c-6.34-.39-12.68-1.14-18.86-2.39-.36,51.49-8.29,91.77-23.62,112.56,32.07-22.14,41.06-72.21,42.47-110.17Z"/>
      <polygon class="cls-7" points="104.82 70.08 104.82 92.68 78.48 92.68 78.48 119.02 55.88 119.02 55.88 92.68 29.54 92.68 29.54 70.08 55.88 70.08 55.88 43.74 78.48 43.74 78.48 70.08 104.82 70.08"/>
      <path class="cls-3" d="M3.06,29.55c-.39-.02-.7-.35-.68-.74,.02-.39,.35-.7,.74-.68,5.5,.25,12.21-.12,18.46-.99,5.82-.81,11.22-2.06,14.84-3.64,.36-.16,.78,0,.94,.37,.16,.36,0,.78-.37,.94-3.74,1.64-9.28,2.92-15.22,3.75-6.33,.88-13.13,1.25-18.72,1Z"/>
      <path class="cls-5" d="M77.76,43.74c0-.4,.32-.72,.72-.72s.72,.32,.72,.72v25.62h25.62c.4,0,.72,.32,.72,.72v22.6c0,.39-.32,.72-.72,.72h-25.62v25.62c0,.4-.32,.72-.72,.72h-22.6c-.39,0-.72-.32-.72-.72s.32-.72,.72-.72h21.88v-25.62c0-.4,.32-.72,.72-.72h25.62v-21.16h-25.62c-.4,0-.72-.32-.72-.72v-26.34Z"/>
      <path class="cls-2" d="M71.94,155.76c-.36,.17-.78,.01-.95-.35-.17-.36-.01-.78,.34-.95,3.91-1.84,8.8-4.37,13.49-7.67,4.66-3.28,9.13-7.31,12.23-12.16,.21-.33,.65-.43,.99-.22,.33,.21,.43,.65,.22,.99-3.21,5.04-7.81,9.2-12.61,12.57-4.76,3.35-9.73,5.92-13.71,7.79Z"/>
    </g>
  </g>
</svg>