<?xml version="1.0" encoding="UTF-8"?>
<svg id="Layer_2" data-name="Layer 2" xmlns="http://www.w3.org/2000/svg" viewBox="0 0 165.43 201.49">
  <defs>
    <style>
      .cls-1 {
        fill: #c4c6d1;
      }

      .cls-2 {
        fill: #fff;
      }

      .cls-3 {
        fill: #eea886;
      }

      .cls-4 {
        fill: #807066;
      }

      .cls-5 {
        fill: #706865;
      }

      .cls-6 {
        fill: #d9d9d9;
        opacity: .72;
      }

      .cls-7 {
        fill: #6e6760;
      }

      .cls-8 {
        fill: #eb4646;
      }

      .cls-9 {
        fill: #c98462;
      }

      .cls-10 {
        fill: #2c3a64;
      }

      .cls-11 {
        fill: #ffc655;
      }

      .cls-12 {
        fill: #a77860;
      }

      .cls-13 {
        fill: #434343;
      }

      .cls-14 {
        fill: #ed7d2b;
      }

      .cls-15 {
        fill: #73b6f0;
      }

      .cls-16 {
        fill: #bdafaa;
      }
    </style>
  </defs>
  <g id="Layer_1-2" data-name="Layer 1">
    <g>
      <g>
        <rect class="cls-5" x="149.28" y="58.39" width="3.01" height="136.66"/>
        <rect class="cls-5" x="79.65" y="58.39" width="3.01" height="136.66"/>
      </g>
      <rect class="cls-16" x="66.5" y="1.3" width="98.93" height="171.2" rx="9.02" ry="9.02"/>
      <rect class="cls-2" x="69.22" y="4.05" width="93.5" height="161.75" rx="8.92" ry="8.92"/>
      <rect class="cls-5" x="101.23" width="29.48" height="6.66"/>
      <rect class="cls-15" x="76.5" y="40.89" width="14.85" height="14.85" rx="2.95" ry="2.95"/>
      <g>
        <rect class="cls-6" x="96.9" y="21.23" width="51.38" height="4.61" rx="1.53" ry="1.53"/>
        <rect class="cls-6" x="96.9" y="28.68" width="58.54" height="4.61" rx="1.53" ry="1.53"/>
      </g>
      <rect class="cls-8" x="76.5" y="19.83" width="14.85" height="14.85" rx="2.95" ry="2.95"/>
      <g>
        <rect class="cls-6" x="96.9" y="42.28" width="38.61" height="4.61" rx="1.33" ry="1.33"/>
        <rect class="cls-6" x="96.9" y="49.74" width="47.5" height="4.61" rx="1.38" ry="1.38"/>
      </g>
      <g>
        <rect class="cls-6" x="96.9" y="63.34" width="56.02" height="4.61" rx="1.6" ry="1.6"/>
        <rect class="cls-6" x="96.9" y="70.79" width="51.38" height="4.61" rx="1.44" ry="1.44"/>
      </g>
      <rect class="cls-15" x="76.5" y="61.95" width="14.85" height="14.85" rx="2.95" ry="2.95"/>
      <rect class="cls-15" x="76.5" y="105.12" width="14.85" height="14.85" rx="2.95" ry="2.95"/>
      <g>
        <rect class="cls-6" x="96.9" y="85.46" width="51.38" height="4.61" rx="1.53" ry="1.53"/>
        <rect class="cls-6" x="96.9" y="92.91" width="58.54" height="4.61" rx="1.53" ry="1.53"/>
      </g>
      <rect class="cls-15" x="76.5" y="84.07" width="14.85" height="14.85" rx="2.95" ry="2.95"/>
      <g>
        <rect class="cls-6" x="96.9" y="106.51" width="38.61" height="4.61" rx="1.33" ry="1.33"/>
        <rect class="cls-6" x="96.9" y="113.97" width="47.5" height="4.61" rx="1.38" ry="1.38"/>
      </g>
      <g>
        <rect class="cls-6" x="96.9" y="127.57" width="56.02" height="4.61" rx="1.6" ry="1.6"/>
        <rect class="cls-6" x="96.9" y="135.03" width="51.38" height="4.61" rx="1.44" ry="1.44"/>
      </g>
      <rect class="cls-15" x="76.5" y="126.18" width="14.85" height="14.85" rx="2.95" ry="2.95"/>
      <path class="cls-3" d="M84.36,92.22s1.22,2.77,2.38,2.43c1.16-.35,2.89-.25,3.44-.19,.73,.08,3.09-.47,2.95,.41-.14,.88-3.85,1.09-4.63,1.28-.78,.19,2.02,2.17,2.21,2.93,.19,.76-3.7,5.16-5.45,3.58-1.74-1.58-2.46-4.41-2.83-4.63-.37-.22-1.97-2.47-1.97-2.47l3.9-3.34Z"/>
      <path class="cls-3" d="M90.39,98.61s4.98,5.18,5,5.8c.02,.62-.3,.88-.79,.42-.49-.46-4.97-4.86-4.97-4.86,0,0,4.78,7.13,4.91,7.63,.08,.3-.52,.82-.8,.6-.29-.22-5.45-7.01-5.45-7.01,0,0,4.45,6.66,4.42,7.12-.02,.4-.69,.76-1.05,.29s-4.87-6.41-4.87-6.41c0,0,2.91,5.06,2.65,5.45-.16,.24-.65,.72-1.36-.61-.71-1.33-2.73-4.28-2.73-4.28l5.05-4.12Z"/>
      <polygon class="cls-11" points="0 6.66 24.86 6.66 24.86 24.68 24.86 28.47 21.07 24.68 0 24.68 0 6.66"/>
      <path class="cls-1" d="M21.88,190.34s-1.91,1.36-2.97,2.32c-1.06,.96-2.5,1.99-3.38,4.43-.89,2.47,.51,4.24,2.9,4.39,2.39,.15,6.05-1.66,6.41-3.84,.35-2.17,3.16-1.91,3.52-3.45,.37-1.54-.12-3.44-.12-3.44l-6.36-.4Z"/>
      <path class="cls-3" d="M22.2,188.55l-.32,1.79s.98,1.82,6.36,.4l-.28-1.76-5.77-.43Z"/>
      <path class="cls-1" d="M28.24,190.75s-1.21,.16-2.07,.29c-.86,.14-2.57-.97-4.29-.7l.53,2.18s5.71-1.07,5.83-1.77Z"/>
      <path class="cls-1" d="M56.2,190.34s1.91,1.36,2.97,2.32c1.06,.96,2.5,1.99,3.38,4.43,.89,2.47-.51,4.24-2.9,4.39-2.39,.15-6.05-1.66-6.41-3.84-.35-2.17-3.16-1.91-3.52-3.45-.37-1.54,.12-3.44,.12-3.44l6.36-.4Z"/>
      <path class="cls-3" d="M55.88,188.55l.32,1.79s-.98,1.82-6.36,.4l.28-1.76,5.77-.43Z"/>
      <path class="cls-10" d="M58.17,146.81c0,3.94-1.56,41.37-1.56,41.37-.39,1.31-5.72,1.24-7.04,.59-1.31-.66-1.08-37.48-1.32-41.45-.24-3.97-3.43-33.17-4.58-33.03-1.15,.13-7.65,27.63-8.57,30.65-.92,3.02-6.21,43.81-6.21,43.81-4.49,1.56-7.4,0-7.4,0,0,0,1.72-41.12,1.72-46,0-1.81,.54-3.18,1.05-12.82,.39-7.34,2.43-22.39,3.8-32.75,.05-.37,.1-.72,.14-1.06,.27-2.02,.47-3.5,.57-4.21,.04-.31,.06-.47,.06-.47,.37-.17,.75-.33,1.16-.47,9.61-3.45,28.14,.2,28.14,.2,0,0,.01,.09,.03,.26,.02,.21,.06,.53,.11,.96,.11,.91,.27,2.27,.45,3.85,0,.01,0,.02,0,.03,0,.05,.01,.1,.02,.14,.65,5.62,.97,8.7,1.47,14.69,.11,1.31-2.04,31.76-2.04,35.7Z"/>
      <path class="cls-14" d="M49.48,38.25s15.74,3.34,17.05,7.71,3.86,14.64,7.4,25.81c2.12,6.68,12.89,21.9,12.89,21.9,0,0-6.16,4.54-6.16,3.93s-14.51-19.98-14.69-22.34c-.17-2.36-4.57-14.44-4.57-14.44,0,0-2.08,23.22-2.08,26.8s.24,10.85,.24,10.85c0,0-5.83,2.23-17.15,1.64,0,0-18.02-.62-14.95-6.11,2.33-4.15,.9-32.09,.55-32.27-.35-.17-6.63,7.69-6.02,9.21,.61,1.51,16.87,6.95,16.87,6.95,0,0,.48,1.75-2.05,5.72,0,0-24.29-7.1-24.37-8.58-.09-1.49,10.1-30.36,13.43-31.87,4.79-2.18,17.32-5.6,17.32-5.6l6.3,.68Z"/>
      <path class="cls-1" d="M49.84,190.75s1.21,.16,2.07,.29c.86,.14,2.57-.97,4.29-.7l-.53,2.18s-5.71-1.07-5.83-1.77Z"/>
      <path class="cls-3" d="M49.23,32.78s-.65,3.55,.47,5.98c0,0,1.14,5.66-4.65,5.91-5.79,.25-5.92-4.93-5.92-4.93,0,0,1.39-1.86,.46-6.92-.92-5.06,9.65-.03,9.65-.03Z"/>
      <path class="cls-3" d="M45.71,12.23s7.41,1.2,6.28,13.07c-1.13,11.87-7.67,10.9-8.1,10.89-.44-.01-6.56,.22-7.04-14.28,0,0-.21-10.72,8.87-9.67Z"/>
      <path class="cls-3" d="M52.1,21.94s.81-.89,1.11,.01c.3,.9-1.06,4.77-1.16,5.09,0,0-.15,.35-.34,.16-.19-.19,.39-5.26,.39-5.26Z"/>
      <path class="cls-3" d="M37.02,21.79s-.79-.9-1.11-.01c-.31,.89,1,4.96,1.06,5.11,0,0,.14,.35,.34,.16,.2-.19-.29-5.27-.29-5.27Z"/>
      <path class="cls-13" d="M52.1,23.76l-1.06,1.45s.03-3.18-.14-3.68c-.17-.5,.2-2.24,.06-2.6-.14-.36-5.07,.98-13.15,.16,0,0,.9,2.87,.37,3.07-.53,.2-.27,3.73-.27,3.73l-.87-1.01s-.98-6.02-.89-7.03c.13-1.34-.33-7.59,11.04-6.51,1.3,.12,2.55,.6,3.59,1.41,1.17,.91,2.37,2.33,2.26,4.29-.15,2.58-.94,6.72-.94,6.72Z"/>
      <path class="cls-12" d="M40.51,34.61s3.06,3.57,7.91,0c0,0-1.36,2.71-4.21,2.77-2.85,.06-3.7-2.77-3.7-2.77Z"/>
      <rect class="cls-7" x="21.05" y="54.78" width="23.84" height="35.9" transform="translate(21.58 -6.31) rotate(16.19)"/>
      <path class="cls-9" d="M43.12,77.66s1.49-.04,1.95-.11c.46-.07,.16,.91-.38,1.09-.53,.18-1.58-.98-1.58-.98Z"/>
      <path class="cls-3" d="M43.99,84.8s-.65,.16-.97,.09c0,0-.57-.17-.98-.27-.13-.03-.25-.05-.32-.06-.32-.03-1.02,0-1.76-.3-.74-.29-3.25-1.58-3.25-1.58l.72-2.33,.54-1.85s4.24-1.13,4.96-.94c.07,.02,.14,.04,.2,.07,.59,.22,.94,.63,1.24,.78,.11,.06,1.16,.69,1.21,1.05,.08,.5-.07,.88-.33,1.11,0,0,.11,.99-.26,1.55,0,0,.13,.91-.53,1.48,0,0,.03,.94-.47,1.19Z"/>
      <path class="cls-14" d="M38.86,77.91s.21,2.98-2.05,5.72c0,0-17.83-5.56-19.96-6.4-2.12-.84,7.72-26.99,7.72-26.99l7.24,2.47-3.89,7.36s-1.93,4.12-5.93,10.9c0,0,2.47,2.34,16.87,6.95Z"/>
      <path class="cls-4" d="M35.16,71.34c0,1.96-1.35,3.54-3,3.54s-3-1.59-3-3.54,1.35-3.54,3-3.54,3,1.59,3,3.54Z"/>
      <path class="cls-14" d="M51.41,42.38l-1.65-5.19s-2.65,1.23-10.32,.38l-1.74,4.96s6.59,5.74,13.71-.15Z"/>
    </g>
  </g>
</svg>