<?xml version="1.0" encoding="UTF-8"?>
<svg id="Layer_2" data-name="Layer 2" xmlns="http://www.w3.org/2000/svg" viewBox="0 0 520.57 150.91">
  <defs>
    <style>
      .cls-1 {
        fill: #fff;
      }

      .cls-2 {
        fill: none;
        stroke: #000;
        stroke-miterlimit: 10;
      }

      .cls-3 {
        fill: #003b7e;
      }

      .cls-4 {
        fill: #ffe500;
      }
    </style>
  </defs>
  <g id="Layer_1-2" data-name="Layer 1">
    <g>
      <g>
        <line class="cls-2" y1="77.4" x2="520.57" y2="77.4"/>
        <circle class="cls-4" cx="260.28" cy="75.46" r="75.46"/>
      </g>
      <g>
        <circle class="cls-1" cx="260.28" cy="75.46" r="57.9"/>
        <g>
          <path class="cls-3" d="M286.23,46.83h-5.37c-.49,0-.89,.4-.89,.89v13.42h-39.36v-13.42c0-.24-.09-.46-.26-.63s-.4-.26-.63-.26h-5.37c-.49,0-.89,.4-.89,.89v46.52c0,.49,.4,.89,.89,.89s.89-.4,.89-.89V48.62h3.58v53.68h-3.58v-4.47c0-.49-.4-.89-.89-.89s-.89,.4-.89,.89v5.37c0,.24,.09,.46,.26,.63s.4,.26,.63,.26h5.37c.24,0,.46-.09,.63-.26s.26-.4,.26-.63v-4.47h39.36v4.47c0,.24,.09,.46,.26,.63s.4,.26,.63,.26h5.37c.24,0,.46-.09,.63-.26s.26-.4,.26-.63V47.72c0-.24-.09-.46-.26-.63s-.4-.26-.63-.26Zm-45.63,36.68h2.68c.49,0,.89-.4,.89-.89s-.4-.89-.89-.89h-2.68v-1.79h39.36v1.79h-33.1c-.49,0-.89,.4-.89,.89s.4,.89,.89,.89h33.1v9.84h-39.36v-9.84Zm39.36-20.58v1.79h-8.05c-.49,0-.89,.4-.89,.89s.4,.89,.89,.89h8.05v11.63h-39.36v-11.63h27.73c.49,0,.89-.4,.89-.89s-.4-.89-.89-.89h-27.73v-1.79h39.36Zm-39.36,34v-1.79h39.36v1.79h-39.36Zm44.73,5.37h-3.58V48.62h3.58v53.68Z"/>
          <path class="cls-3" d="M243.28,59.35c.24,0,.46-.09,.63-.26s.26-.4,.26-.63v-2.47c0-.43,.12-.86,.35-1.23,.23-.37,.56-.67,.95-.86,.3-.15,.5-.46,.49-.81v-.89h3.58v.89c0,.34,.19,.65,.49,.8,.39,.19,.72,.49,.95,.86s.35,.8,.35,1.23v2.47c0,.49,.4,.89,.89,.89s.89-.4,.89-.89v-2.47c0-1.36-.67-2.64-1.79-3.4v-1.28c0-.24-.09-.46-.26-.63s-.4-.26-.63-.26h-5.37c-.49,0-.89,.4-.89,.89v1.28c-1.12,.77-1.79,2.04-1.79,3.4v2.47c0,.24,.09,.46,.26,.63s.4,.26,.63,.26h0Z"/>
          <path class="cls-3" d="M255.81,59.35c.24,0,.46-.09,.63-.26s.26-.4,.26-.63v-2.47c0-.43,.12-.86,.35-1.23,.23-.37,.56-.67,.95-.86,.3-.15,.5-.46,.49-.81v-.89h3.58v.89c0,.34,.19,.65,.49,.8,.39,.19,.72,.49,.95,.86,.23,.37,.35,.8,.35,1.23v2.47c0,.49,.4,.89,.89,.89s.89-.4,.89-.89v-2.47c0-1.36-.67-2.64-1.79-3.4v-1.28c0-.24-.09-.46-.26-.63s-.4-.26-.63-.26h-5.37c-.49,0-.89,.4-.89,.89v1.28c-1.12,.77-1.79,2.04-1.79,3.4v2.47c0,.24,.09,.46,.26,.63s.4,.26,.63,.26h0Z"/>
          <path class="cls-3" d="M268.33,59.35c.24,0,.46-.09,.63-.26s.26-.4,.26-.63v-2.47c0-.43,.12-.86,.35-1.23,.23-.37,.56-.67,.95-.86,.3-.15,.5-.46,.49-.81v-.89h3.58v.89c0,.34,.19,.65,.49,.8,.39,.19,.72,.49,.95,.86,.23,.37,.35,.8,.35,1.23v2.47c0,.49,.4,.89,.89,.89s.89-.4,.89-.89v-2.47c0-1.36-.67-2.64-1.79-3.4v-1.28c0-.24-.09-.46-.26-.63s-.4-.26-.63-.26h-5.37c-.49,0-.89,.4-.89,.89v1.28c-1.12,.77-1.79,2.04-1.79,3.4v2.47c0,.24,.09,.46,.26,.63s.4,.26,.63,.26h0Z"/>
          <path class="cls-3" d="M249.55,70.09c0-.24-.09-.46-.26-.63s-.4-.26-.63-.26h-3.58c-.49,0-.89,.4-.89,.89v2.32c-.57,.65-.89,1.49-.89,2.35v.7c0,.49,.4,.89,.89,.89s.89-.4,.89-.89v-.7c0-.51,.22-.99,.6-1.32,.19-.17,.3-.41,.3-.66v-1.79h1.79v1.79c0,.25,.11,.5,.3,.66,.38,.33,.6,.82,.6,1.32v.7c0,.49,.4,.89,.89,.89s.89-.4,.89-.89v-.7c0-.87-.32-1.7-.89-2.35v-2.32Z"/>
          <path class="cls-3" d="M258.49,70.09c0-.24-.09-.46-.26-.63s-.4-.26-.63-.26h-3.58c-.49,0-.89,.4-.89,.89v2.32c-.57,.65-.89,1.49-.89,2.35v.7c0,.49,.4,.89,.89,.89s.89-.4,.89-.89v-.7c0-.51,.22-.99,.6-1.32,.19-.17,.3-.41,.3-.66v-1.79h1.79v1.79c0,.25,.11,.5,.3,.66,.38,.33,.6,.82,.6,1.32v.7c0,.49,.4,.89,.89,.89s.89-.4,.89-.89v-.7c0-.87-.32-1.7-.89-2.35v-2.32Z"/>
          <path class="cls-3" d="M267.44,70.09c0-.24-.09-.46-.26-.63s-.4-.26-.63-.26h-3.58c-.49,0-.89,.4-.89,.89v2.32c-.57,.65-.89,1.49-.89,2.35v.7c0,.49,.4,.89,.89,.89s.89-.4,.89-.89v-.7c0-.51,.22-.99,.6-1.32,.19-.17,.3-.41,.3-.66v-1.79h1.79v1.79c0,.25,.11,.5,.3,.66,.38,.33,.6,.82,.6,1.32v.7c0,.49,.4,.89,.89,.89s.89-.4,.89-.89v-.7c0-.87-.32-1.7-.89-2.35v-2.32Z"/>
          <path class="cls-3" d="M271.02,76.35c.24,0,.46-.09,.63-.26s.26-.4,.26-.63v-.7c0-.51,.22-.99,.6-1.32,.19-.17,.3-.41,.3-.66v-1.79h1.79v1.79c0,.25,.11,.5,.3,.66,.38,.33,.6,.82,.6,1.32v.7c0,.49,.4,.89,.89,.89s.89-.4,.89-.89v-.7c0-.87-.32-1.7-.89-2.35v-2.32c0-.24-.09-.46-.26-.63s-.4-.26-.63-.26h-3.58c-.49,0-.89,.4-.89,.89v2.32c-.57,.65-.89,1.49-.89,2.35v.7c0,.24,.09,.46,.26,.63s.4,.26,.63,.26Z"/>
          <path class="cls-3" d="M250.44,86.19h-7.16c-.49,0-.89,.4-.89,.89v3.58c0,.49,.4,.89,.89,.89s.89-.4,.89-.89v-2.68h5.37v2.68c0,.49,.4,.89,.89,.89s.89-.4,.89-.89v-3.58c0-.24-.09-.46-.26-.63s-.4-.26-.63-.26Z"/>
          <path class="cls-3" d="M261.18,86.19h-7.16c-.49,0-.89,.4-.89,.89v3.58c0,.49,.4,.89,.89,.89s.89-.4,.89-.89v-2.68h5.37v2.68c0,.49,.4,.89,.89,.89s.89-.4,.89-.89v-3.58c0-.24-.09-.46-.26-.63s-.4-.26-.63-.26Z"/>
          <path class="cls-3" d="M277.28,86.19h-12.52c-.49,0-.89,.4-.89,.89v3.58c0,.49,.4,.89,.89,.89s.89-.4,.89-.89v-2.68h10.74v2.68c0,.49,.4,.89,.89,.89s.89-.4,.89-.89v-3.58c0-.24-.09-.46-.26-.63s-.4-.26-.63-.26Z"/>
        </g>
      </g>
    </g>
  </g>
</svg>