<?xml version="1.0" encoding="UTF-8"?>
<svg id="Layer_2" data-name="Layer 2" xmlns="http://www.w3.org/2000/svg" viewBox="0 0 866.21 581.11">
  <defs>
    <style>
      .cls-1 {
        fill: #b24747;
      }

      .cls-2 {
        fill: #9fa2a3;
      }

      .cls-3 {
        fill: #b8bbbc;
      }

      .cls-4 {
        fill: #e0e0e1;
      }

      .cls-5 {
        fill: #fff;
      }

      .cls-6 {
        fill: #6ba084;
      }

      .cls-7 {
        fill: #0cc19e;
      }

      .cls-8 {
        fill: #099177;
      }

      .cls-9 {
        fill: #e7e3d2;
      }

      .cls-10 {
        fill: #d39c42;
      }

      .cls-11 {
        fill: #808384;
      }

      .cls-12 {
        fill: #f4d77d;
      }

      .cls-13 {
        fill: #003b7e;
      }

      .cls-14 {
        fill: #474ebb;
      }

      .cls-15 {
        fill: #dbc105;
      }

      .cls-16 {
        fill: #d34e4e;
      }

      .cls-17 {
        fill: #ebb044;
      }

      .cls-18 {
        fill: #e6bc3b;
      }

      .cls-19 {
        fill: #b77858;
      }

      .cls-20 {
        fill: #2c3a64;
      }

      .cls-21 {
        fill: #f1cc40;
      }

      .cls-22 {
        fill: #3b455a;
      }

      .cls-23 {
        fill: #1e232d;
      }

      .cls-24 {
        fill: #ed7d2b;
      }

      .cls-25 {
        fill: #eac5b0;
      }

      .cls-26 {
        fill: #cacccd;
      }

      .cls-27 {
        fill: #edc964;
      }

      .cls-28 {
        fill: #c7c9c5;
      }

      .cls-29 {
        fill: #8ec3cb;
      }

      .cls-30 {
        fill: #ccd2d9;
      }

      .cls-31 {
        fill: #b5b5b0;
      }

      .cls-32 {
        fill: #7fc5a3;
      }

      .cls-33 {
        fill: #909191;
      }

      .cls-34 {
        fill: #ececec;
      }

      .cls-35 {
        fill: #212630;
      }

      .cls-36 {
        fill: #58677f;
      }

      .cls-37 {
        fill: #2b478b;
      }

      .cls-38 {
        fill: #d4d4d0;
      }

      .cls-39 {
        fill: #6a737f;
      }
    </style>
  </defs>
  <g id="Layer_1-2" data-name="Layer 1">
    <g>
      <path class="cls-15" d="M397.39,516.65c-25.37,.05-50.73,.46-76.06,2.37-9.55,.72-18.9,2.3-28.46,2.94-19.11,1.27-37.89,3.65-57.07,4.75-15.45,.88-30.96,1.4-46.36,2.52-14.44,1.05-30.43,.81-44.76-.93-10.61-1.28-21.26-2.01-31.69-4.07-11.67-2.31-24.34-3.96-36.5-3.9-17.33,.08-34.22,.09-50.81,4.17-5.82,1.43-12.95,3.78-17.37,6.79-10.12,6.87-11.49,24.03-1.39,31.16,17.02,12,53.36,16.71,77.22,16.93,26.15,.24,51.55-1.07,77.74-1.84,24.33-.72,48.61-1.74,72.98-1.7,49.78,.07,99.57,0,149.26-2.25,46.69-2.12,93.49-1.39,140.28-1.39s95.64,.26,143.27,4.57c20.76,1.88,41.9,2.54,62.76,3.86,18.68,1.18,36.63-.02,55.24-1.11,15.62-.92,31.15-3.63,45.34-8.23,11.24-3.64,31.27-14.93,34.71-23.61,9.66-24.33-136.14-23.75-158.52-23.69-25.04,.06-50.28,.62-75.3-.03-10.53-.27-20.9-1.67-31.17-3.19-10.23-1.52-20.54-1.13-30.92-1.77-43.27-2.67-86.64-2.28-130.05-2.28-14.13,0-28.26-.08-42.39-.06Z"/>
      <g>
        <path class="cls-22" d="M596.83,375.32l8.55,163.36c.16,4.43,3.79,7.94,8.23,7.94h100.91c4.43,0,8.07-3.51,8.23-7.94l8.55-163.36h-134.46Z"/>
        <rect class="cls-35" x="590.28" y="357.22" width="147.56" height="18.1"/>
        <polygon class="cls-22" points="731.29 357.22 596.83 357.22 607.26 308.99 720.86 308.99 731.29 357.22"/>
        <path class="cls-30" d="M700.72,348.22h-73.32c-3.73,0-6.75-3.02-6.75-6.75v-10.23c0-3.73,3.02-6.75,6.75-6.75h73.32c3.73,0,6.75,3.02,6.75,6.75v10.23c0,3.73-3.02,6.75-6.75,6.75"/>
        <path class="cls-5" d="M684,462.86c-.04-.21-.12-.45-.25-.69-.13-.24-.5-.93-.99-1.84l1.24,2.53Z"/>
        <path class="cls-5" d="M665.31,438.36l4.68,1.39c1.66,.5,4.39,1.31,6.05,1.8l4.68,1.39c1.66,.49,3.34-.51,3.72-2.24l1.08-4.86c.38-1.73,1.01-4.56,1.39-6.29l1.08-4.86c.38-1.73-.71-2.3-2.42-1.27l-2.94,1.77c-1.08-1.88-2.15-3.75-2.57-4.43-.95-1.55-2.76-2.74-6.34-2.72-2.65,.01-9.69,.06-14.15,.08l5.91,10.62c.13,.14,.26,.31,.37,.53,.28,.58,1.35,2.59,2.42,4.57l-2.87,1.73c-1.71,1.03-1.75,2.28-.09,2.78"/>
        <path class="cls-5" d="M648.93,421.66c-1.52,2.36-5.36,8.63-5.36,8.63-.86,1.41-.42,3.25,.98,4.09l9.44,5.67c1.4,.84,3.24,.37,4.08-1.05,0,0,5.32-8.95,5.82-9.78,.51-.86,1.12-.99,1.61-.48l-5.91-10.62c-1.54,0-2.78,.02-3.41,.02-2.46,.01-5.27,.45-7.24,3.52"/>
        <path class="cls-5" d="M632.24,461.33c1.06,2.11,4.01,7.54,6.16,11.52l6.69-11.19c.79-1.38,2.25-3.93,3.47-6.04l3.42,1.95c1.74,.99,2.81,.39,2.39-1.33l-1.2-4.84c-.42-1.72-1.12-4.53-1.54-6.25l-1.19-4.84c-.43-1.72-2.12-2.68-3.78-2.15l-4.65,1.51c-1.65,.54-4.35,1.42-6,1.96l-4.65,1.51c-1.65,.54-1.58,1.79,.16,2.77l2.52,1.44c-1.29,2.55-2.81,5.56-3.19,6.43-.69,1.56-.26,4.25,1.39,7.53"/>
        <path class="cls-5" d="M645.09,461.67l-6.69,11.19c1.2,2.22,2.16,3.98,2.41,4.48,.71,1.37,1.72,4.06,8.1,4.02,6.38-.04,9.28-.05,9.28-.05,1.62-.01,2.94-1.38,2.93-3.04l-.06-11.2c-.01-1.66-1.34-3.01-2.97-3,0,0-10.86,.06-12.67,.07-1.14,0-1.29-.77-.89-1.49,.05-.1,.26-.45,.55-.97"/>
        <path class="cls-5" d="M684,462.86l5.53,11.3c1.94-3.65,5.22-9.98,6.56-12.72,1.8-3.66,2.3-6.84,1.48-8.51-.83-1.67-4.92-9.79-4.92-9.79-.75-1.48-2.49-1.97-3.87-1.1l-9.37,5.9c-1.38,.87-1.87,2.77-1.08,4.22,0,0,2.85,5.24,4.43,8.17,.49,.91,.87,1.6,.99,1.84,.13,.25,.21,.48,.25,.69"/>
        <path class="cls-5" d="M688.16,476.7c.22-.38,.72-1.3,1.37-2.53l-5.53-11.3c.12,.66-.21,1.1-1,1.11-.54,0-3.24,.02-5.72,.03l-.03-3.5c-.02-2.03-1.06-2.69-2.31-1.47l-3.52,3.45c-1.25,1.23-3.3,3.23-4.55,4.46l-3.52,3.45c-1.25,1.23-1.23,3.21,.04,4.42l3.58,3.39c1.27,1.2,3.35,3.17,4.63,4.37l3.58,3.39c1.27,1.2,2.3,.52,2.28-1.51l-.03-3.33c1.4,0,2.95-.02,4.38-.03,3.98-.02,5.48-2.91,6.35-4.41"/>
        <path class="cls-7" d="M340.95,57.83l13.33,3.96c4.74,1.41,12.48,3.72,17.22,5.13l13.33,3.97c4.74,1.41,9.5-1.46,10.59-6.39l3.07-13.85c1.08-4.92,2.86-12.97,3.95-17.9l3.07-13.85c1.09-4.92-2.01-6.54-6.89-3.6l-8.36,5.04c-3.06-5.34-6.13-10.66-7.31-12.6C380.26,3.32,375.08-.06,364.92,0c-7.54,.04-27.59,.16-40.27,.24l16.82,30.22c.38,.38,.73,.87,1.04,1.51,.8,1.66,3.85,7.37,6.89,13.02l-8.18,4.93c-4.88,2.94-4.99,6.49-.25,7.91"/>
        <path class="cls-8" d="M294.34,10.3c-4.32,6.71-15.27,24.58-15.27,24.58-2.45,4-1.2,9.24,2.79,11.64l26.86,16.13c3.99,2.39,9.22,1.05,11.61-2.99,0,0,15.15-25.47,16.55-27.83,1.44-2.45,3.18-2.81,4.58-1.36L324.65,.24c-4.39,.02-7.9,.05-9.7,.06-6.99,.04-14.99,1.29-20.6,10.01"/>
        <path class="cls-7" d="M246.84,123.23c3.03,6.01,11.4,21.47,17.54,32.8l19.03-31.84c2.24-3.92,6.4-11.18,9.87-17.2l9.74,5.54c4.95,2.81,8,1.11,6.8-3.78l-3.41-13.77c-1.21-4.89-3.19-12.89-4.4-17.79l-3.4-13.77c-1.21-4.89-6.05-7.64-10.75-6.11l-13.22,4.31c-4.7,1.53-12.39,4.04-17.09,5.57l-13.22,4.31c-4.7,1.53-4.5,5.09,.45,7.9l7.18,4.09c-3.67,7.26-7.99,15.84-9.08,18.3-1.97,4.44-.75,12.11,3.96,21.45"/>
        <path class="cls-8" d="M283.41,124.18l-19.03,31.84c3.42,6.31,6.15,11.34,6.87,12.74,2.01,3.91,4.89,11.56,23.05,11.45,18.15-.11,26.41-.15,26.41-.15,4.62-.03,8.38-3.92,8.35-8.64l-.18-31.89c-.03-4.73-3.83-8.58-8.45-8.55,0,0-30.91,.18-36.07,.21-3.25,.02-3.67-2.19-2.53-4.24,.16-.28,.74-1.29,1.58-2.76"/>
        <path class="cls-7" d="M394.16,127.58l15.74,32.16c5.51-10.38,14.86-28.41,18.68-36.21,5.11-10.43,6.56-19.47,4.2-24.22-2.36-4.76-14.01-27.88-14.01-27.88-2.12-4.2-7.07-5.61-11.01-3.14l-26.68,16.79c-3.94,2.48-5.32,7.88-3.07,12.01,0,0,8.11,14.91,12.62,23.26,1.4,2.59,2.46,4.55,2.82,5.24,.37,.71,.61,1.37,.71,1.98"/>
        <path class="cls-8" d="M406,166.95c.62-1.08,2.04-3.71,3.9-7.21l-15.74-32.16c.33,1.87-.59,3.14-2.85,3.15-1.55,0-9.21,.05-16.27,.1l-.09-9.97c-.05-5.79-3.01-7.67-6.57-4.18l-10.02,9.82c-3.56,3.49-9.39,9.2-12.95,12.69l-10.02,9.82c-3.56,3.49-3.51,9.15,.1,12.58l10.19,9.64c3.62,3.42,9.54,9.03,13.17,12.45l10.19,9.64c3.62,3.43,6.55,1.49,6.49-4.3l-.09-9.48c3.99-.03,8.39-.05,12.46-.08,11.33-.07,15.61-8.27,18.09-12.54"/>
        <path class="cls-29" d="M588.74,101.5l8.36-23.86c.75-2.15-.32-4.51-2.43-5.35l-6.03-2.42c-2.11-.85-4.51,.12-5.45,2.19l-10.43,23.03c-.76,1.67-2.49,2.6-4.32,2.47-5.69-.41-11.26,2.86-13.49,8.41l-24.86,62.03c-.87,2.18,.18,4.65,2.36,5.53l31.26,12.53c2.18,.87,4.65-.19,5.53-2.36l24.86-62.03c2.23-5.56,.45-11.77-3.94-15.4-1.41-1.17-2.02-3.04-1.42-4.77"/>
        <rect class="cls-14" x="589.51" y="62.08" width="4.3" height="18" transform="translate(305.56 593.82) rotate(-68.16)"/>
        <path class="cls-5" d="M581.01,146.79l-2.49-1,9.03-22.52c3.19-9.44-1.83-11.86-2.05-11.96l1.07-2.46c.31,.13,7.55,3.38,3.5,15.35l-9.05,22.59Z"/>
        <polygon class="cls-20" points="519.68 248.82 471.83 283.73 440.98 269.6 434.85 280.86 455.59 298.49 473.3 305.11 519.68 282.78 519.68 248.82"/>
        <polygon class="cls-25" points="584.21 176.43 585.24 161.79 573.4 152.62 568.43 159.11 573.78 168.67 571.87 173.63 577.12 181.52 584.21 176.43"/>
        <polygon class="cls-22" points="490.36 342.75 489.4 425.61 498.23 532.27 510.24 532.27 524.6 433.86 541.03 335.29 490.36 342.75"/>
        <polygon class="cls-22" points="510.17 537.33 497.18 543.83 490.69 537.33 497.18 530.84 510.17 530.84 510.17 537.33"/>
        <polygon class="cls-22" points="572.67 342.75 572.91 390.69 564.81 532.27 552.81 532.27 532.72 438.32 522 335.29 572.67 342.75"/>
        <polygon class="cls-22" points="552.87 537.33 565.86 543.83 572.35 537.33 565.86 530.84 552.87 530.84 552.87 537.33"/>
        <path class="cls-20" d="M585.16,371.61c.26,7.61,.09,17.78-3.11,18.16-.6,.07-1.18-.19-1.7-.45-5.57-2.7-9.54-6.53-15.03-9.14-5.75-2.74-12.29-4.17-18.68-5.16-9.53-1.52-19.22-2.44-28.81-2.52-8.24-.07-16.82,3.69-24.61,5.75-3,.8-5.44,2.98-7.93,4.7-3.68,2.53-5.29,3.54-4.79-1.64,.82-8.44,1.67-16.88,2.71-25.3,2.07-16.79,4.89-33.55,9.66-49.8,1.82-6.21,3.93-12.33,6.03-18.46,2.56-7.45,5.12-14.91,7.68-22.36,3.18-9.26,8.55-15.79,17.95-19.03,8.13-2.8,18.22-3.57,26.12,.35,8.78,4.36,12.96,19.2,17.23,27.14,3.74,6.95,8.45,25.92,9.85,33.41,1.69,9.02,3.24,18,4.47,26.96,1.36,9.92,2.31,19.81,2.59,29.64,.03,1.09,.25,4.13,.37,7.76"/>
        <path class="cls-5" d="M541.76,248.02l-16.23,.15s-17.41,60.84-18.05,71.33c-.63,10.29-5.03,52.04-5.03,52.04,0,0,17.97,.42,38.67,2.95,20.24,4.33,21.94,1.77,21.94,1.77,0,0-10.92-43.87-11.29-56.48-.37-12.89-2.02-55.47-2.02-55.47l-8-16.29Z"/>
        <path class="cls-25" d="M531.92,248.33c.19,.17,.41,.3,.66,.38,.5,.17,1.05,.11,1.58,.04,2.15-.25,4.29-.51,6.44-.76-.71-6.57,3.13-8.06,6.88-12.29,3.79-4.29,2.63-10.06,2.41-15.31-.06-1.46-.13-2.96-.75-4.29-1.08-2.32-3.61-3.61-6.06-4.37-6.25-1.94-13.4-1.46-18.91,2.08-1.47,.94-2.83,2.13-3.63,3.68-1.22,2.39-.91,5.24-.57,7.91,.52,4.09,1.74,8.12,4.05,11.57,2.16,3.22,6.27,4.76,6.74,8.62,.12,1,.42,2.12,1.14,2.74"/>
        <path class="cls-20" d="M520.17,220.65c.37,1.65,1.14,3.32,.73,4.97-2.62-.89-4.34-3.57-5.27-6.3-.42-1.24-.73-2.55-.62-3.85,.11-1.31,.67-2.62,1.71-3.36,1.44-1.03,4.03-.63,4.44,1.24,.42,1.88-1.54,4.82-.99,7.31"/>
        <path class="cls-20" d="M506.24,206.14c.06-1.98,.82-3.75,2.58-4.94,1.52-1.03,3.28-1.88,4.21-3.52,.72-1.27,.82-2.84,1.54-4.12,1.29-2.31,4.09-2.99,6.52-3.77,6.09-1.96,9.37-4.22,15.83-1.71,4.59,1.78,10.52,2.02,14.77,4.62,1.78,1.09,3.29,2.83,4.53,4.77,4.3,6.73,5.33,16.18,2.53,23.2-.63,1.57-1.42,3.01-2.28,4.4-1.7,2.77-3.53,6.17-6.54,7.52-.19-1.3-1.16-2.02-1.46-3.3-.22-.92-.15-1.89-.1-2.84,.18-3.69,1.32-9.52-2.37-11.35-4.66-2.31-13.39-.23-17.88,1.73-3.97,1.73-10.67,3.99-14.9,2.13-3.93-1.72-7.12-8.59-6.99-12.82"/>
        <polygon class="cls-20" points="546.97 245.86 588.15 233.73 572.91 182.23 585.47 173.22 615.8 232.83 607.41 253.47 568.06 273.79 546.97 245.86"/>
        <polygon class="cls-23" points="783.39 535.14 783.56 536.92 784.13 542.84 796.11 547.97 801.25 541.66 794.97 536.14 794.4 535.89 794.33 536.63 783.39 535.14"/>
        <path class="cls-22" d="M782.78,535.06l.61,.08-.4-4.14,11.4,4.88,9.49-99.9,1.17-4.72c-8.96,.13-19.62,.26-30.35,.35l8.08,103.44Z"/>
        <polygon class="cls-22" points="783.39 535.14 794.33 536.63 794.4 535.89 782.99 531 783.39 535.14"/>
        <path class="cls-22" d="M734.87,431.56l2.21,26.15,22.12,67.8,10.81-1.44,.18,1.32h.06s-7.96-69.88-7.96-69.88l6.82-23.87c-12.54,.08-24.81,.07-34.22-.09"/>
        <polygon class="cls-23" points="759.2 525.51 758.52 525.6 753.57 532.39 760.12 537.65 770.8 530.1 770.18 525.4 759.62 526.81 759.2 525.51"/>
        <polygon class="cls-22" points="759.2 525.51 759.62 526.81 770.18 525.4 770 524.08 759.2 525.51"/>
        <path class="cls-37" d="M762.13,268.34c1.31-3.27,2.66-6.6,4.91-9.32,3.37-4.07,8.77-6.42,14.03-5.97,.03,0,.05,0,.08,0-.18-.69-.3-1.39-.31-2.1-.07-3.85,2.79-7.01,4.64-10.39,.17-.31,.34-.65,.49-1,.37-.85,.69-1.8,.94-2.82l-.81,.38c-1.83,1.56-3.97,2.64-6.33,3.02l-22.19,10.57-8.9,36.23,2.29,1c7.01-2.76,8.63-13.35,11.15-19.62"/>
        <path class="cls-37" d="M809.82,279.51c1.39,6.54,13.91,22.29,11.62,15.89-3.64-10.18-7.55-18.31-11.32-25.28-1.52-2.81-.97,6.25-.3,9.4"/>
        <path class="cls-37" d="M825.07,327.52c-4.15,2.22-8.95,2.91-13.65,2.91-3.76,0-7.58-.43-11.26,.37-3.68,.81-7.32,3.2-8.25,6.85-.51,2.01-.35,4.54-2.08,5.68-.82,.53-1.85,.58-2.82,.6-2.98,.09-6.36,0-8.36-2.2-3.09-3.42-1.29-10.27-5.47-12.22-1.23-.57-2.64-.48-3.97-.71-5.66-.96-8.42-7.36-7.88-13.23-1.93,1.68-4.08,3.17-6.58,3.22-2.88,.06-5.4-1.81-7.67-3.58-1.47-1.15-2.98-2.28-4.5-3.4l-.09,.37-22.94,118.7c2.73,.35,8.21,.57,15.32,.69l-1.63-19.32,39.99,4.93-4.14,14.48c1.87-.01,3.73-.02,5.6-.04l-1.14-14.64,38.22-12.92-6.73,27.21c13.74-.2,23.51-.4,23.51-.4,0,0,8.35-61.34,.94-106.68-1.29,1.33-2.8,2.47-4.43,3.34"/>
        <path class="cls-25" d="M700.35,262.86c-.34-1.48-8.1-9.37-8.55-8.28-.49,1.19-.7,2.44-.96,3.72-3.16-1.69-10.8-8.31-10.34-.66,.2,3.31,6.01,9.04,8.92,10.05,.07,.02,.13,.05,.2,.07l10.68-1.86c.27-.84,.33-1.79,.05-3.03"/>
        <path class="cls-37" d="M700.44,265.86l-.14,.02c-.51,1.55-1.76,2.71-2.97,4.55-2.54-.95-5.13-1.81-7.71-2.69l-2.77,.48c14.18,18.29,36.7,29.63,55.74,43.58l6.1-24.85-48.25-21.1Z"/>
        <path class="cls-37" d="M700.3,265.89l-10.68,1.86c2.57,.89,5.17,1.74,7.71,2.69,1.21-1.84,2.47-3,2.97-4.55"/>
        <path class="cls-25" d="M787.02,236.29c2.08-9.01-.17-23.24-6.2-28.56-2.37-2.09-5.07-2.47-8.09-2.49-1.43-.01-1.9,.36-2.64,.23-2.25,2.89-3.75,6.41-3.47,9.75,.23,2.8,1.85,4.94,1.98,7.96,.26,5.48,8.1,10.99,5.09,16.44,2.15,.7,4.2,.85,6.09,.54l6.33-3.02c.31-.27,.62-.55,.92-.85"/>
        <path class="cls-25" d="M779.77,240.16c2.36-.38,4.5-1.46,6.33-3.02l-6.33,3.02Z"/>
        <path class="cls-25" d="M768.6,223.18c-.13-3.01-1.75-5.15-1.98-7.96-.28-3.33,1.23-6.86,3.47-9.75-.33-.06-.71-.22-1.26-.55-1.08-.67-2.04-2.43-2.55-3.87-2.8,1.77-4.84,4.97-5.4,9.84-.61,5.29-.6,10.88,1.21,16.17,1.81,5.3,5.69,10.28,10.71,12.24,.29,.11,.58,.22,.87,.31,3.01-5.45-4.83-10.95-5.09-16.44"/>
        <polygon class="cls-25" points="159.39 214.94 163.43 210.33 163.04 204.92 164.13 204.25 164.99 205.57 165.94 200.98 168.86 198.6 173.65 199.96 176.68 204.16 174.82 208.86 170.16 212.58 164.91 219.13 159.39 214.94"/>
        <polygon class="cls-20" points="158.65 211.08 115.96 244.9 88.55 239.94 84.55 278.08 118.64 271.33 132.63 265.7 172.22 218.55 158.65 211.08"/>
        <polygon class="cls-23" points="94.58 531.32 94.58 536.47 107.79 543.08 114.4 536.47 107.79 529.87 106.94 529.87 106.73 531.32 94.58 531.32"/>
        <polygon class="cls-23" points="62.05 529.87 61.14 529.87 54.53 536.47 61.14 543.08 74.35 536.47 74.35 531.32 62.2 531.32 62.05 529.87"/>
        <path class="cls-20" d="M62.24,335.81c1.74-8.8,3.1-16.92,3.22-21.32,.37-13.25,2.04-56.99,2.04-56.99l8.09-16.73h1.49c-.11,0-.22-.01-.32-.02,.35,.04-.17-3.23-.29-3.52-7.03-.24-16.09,3.73-20.52,9.25-3.28,4.09-5.23,9.09-7.13,13.99-5.35,13.82-7.78,26.63-10.45,41.17-1.7,9.27-3.28,18.49-4.51,27.7-1.37,10.19-2.34,20.35-2.62,30.45-.03,1.12-.25,4.24-.38,7.97-.26,7.82-.09,18.27,3.14,18.66,.61,.07,1.19-.2,1.72-.46,4.16-2.06,7.44-4.74,11.11-7.09l.2-40.76,15.21-2.28Z"/>
        <path class="cls-20" d="M136.6,377.71c-.83-8.67-1.69-17.35-2.74-26-2.09-17.25-4.94-34.46-9.76-51.17-1.84-6.38-3.97-12.67-6.09-18.96-2.59-7.66-5.17-15.32-7.76-22.98-3.21-9.52-8.64-16.22-18.14-19.55-1.7-.6-3.48-1.05-5.32-1.39-.04,.2-.09,.4-.11,.61-.11,.91-.37,1.93-.94,2.59l6.23,.06s17.59,62.51,18.24,73.29c.25,4.1,1.06,13.04,1.97,22.45l9.55,1.43,.41,36.02c.53,.16,1.07,.31,1.6,.45,3.03,.82,5.5,3.06,8.01,4.83,3.72,2.6,5.35,3.63,4.84-1.68"/>
        <path class="cls-39" d="M112.18,336.66c1.44,14.9,3.11,31.01,3.11,31.01,0,0-7.72,.18-18.89,1.03,.83-.02,1.65-.04,2.48-.05,7.77-.07,15.83,3.29,23.27,5.46l-.41-36.03-9.55-1.43Z"/>
        <path class="cls-20" d="M60.05,373.23c-5.33,.28-5.99-.72-5.99-.72,0,0,4.81-19.63,8.18-36.7l-15.21,2.28-.2,40.76c1.29-.83,2.63-1.61,4.07-2.31,2.89-1.4,5.98-2.47,9.15-3.31"/>
        <path class="cls-22" d="M122.15,374.12c-7.44-2.18-15.5-5.53-23.27-5.46-.83,0-1.65,.03-2.48,.05-.69,.05-1.4,.11-2.11,.16-5.21,.42-11.06,.98-17.16,1.72-.3,.04-.6,.07-.9,.11-7.81,1.7-12.88,2.37-16.18,2.54-3.17,.85-6.26,1.91-9.15,3.31-1.44,.7-2.78,1.48-4.07,2.31l-.04,8.49,14.89,144.18h12.21v1.47h.07l13.43-96.71,.06-.54,7.36,97.25h.07v-1.47h12.27l15.56-108.3-.56-49.11Z"/>
        <path class="cls-5" d="M112.18,336.66c-.91-9.42-1.73-18.36-1.97-22.45-.65-10.77-18.24-73.29-18.24-73.29l-6.23-.06c-.07,.08-.14,.16-.22,.23-.19,.17-.41,.3-.67,.39-.51,.17-1.06,.11-1.59,.04-2.06-.25-4.12-.5-6.18-.74h-1.49s-8.09,16.72-8.09,16.72c0,0-1.67,43.75-2.04,56.99-.12,4.4-1.48,12.53-3.22,21.32-3.37,17.07-8.18,36.7-8.18,36.7,0,0,.66,1,5.99,.72,3.29-.17,8.37-.84,16.18-2.54,.3-.04,.6-.07,.9-.11,6.11-.74,11.96-1.3,17.16-1.72,.72-.06,1.42-.11,2.11-.16,11.17-.85,18.89-1.03,18.89-1.03,0,0-1.67-16.1-3.11-31.01"/>
        <polygon class="cls-25" points="91.5 326.07 96.38 329.7 101.64 328.79 102.4 329.82 101.18 330.82 105.76 331.33 108.36 334.06 107.47 339.04 103.63 342.52 98.87 341.09 94.8 336.74 87.9 332.06 91.5 326.07"/>
        <polygon class="cls-20" points="95.8 325.86 69.94 305 67.82 251.13 47.23 272.04 43.47 306.71 48.53 319.79 92.29 338 95.8 325.86"/>
        <path class="cls-20" d="M97.04,200.91c1.56,3.16,2.21,6.73,2.19,10.26,0,.94,0,2.03,.72,2.62,.77,.63,0,1.9,.65,1.14,.65-.76,2.85-3.41,2.99-4.4,.34-2.33,.45-4.7,.35-7.05-.09-2.05-.39-4.2-1.63-5.82-.73-.96-1.74-1.66-2.72-2.34-1.43-.99-2.92-1.99-4.6-2.4-2.9-.71-4.76,.27-2.27,2.48,1.78,1.59,3.26,3.35,4.33,5.51"/>
        <path class="cls-25" d="M76.79,239.97c4.02,.6,8.03,1.19,12.05,1.78,.79-3.51,1.34-7.09,1.62-10.7,3.54-.43,7.74-1.37,9.13-5.05,.44-1.16,.52-2.44,.59-3.69,.3-5.18,.6-10.37,.9-15.55,.1-1.79,.2-3.64-.32-5.34-.91-2.98-3.52-4.86-6.1-6.09-6.6-3.15-14.46-3.45-20.88,.2-1.71,.97-3.34,2.25-4.39,4.05-1.61,2.77-1.61,6.3-1.55,9.6,.06,3.04,.11,6.09,.17,9.14,.07,3.5,.38,7.55,2.95,9.53,1.37,1.05,3.18,1.33,4.34,2.66,2.04,2.35,.85,6.27,1.49,9.47"/>
        <path class="cls-20" d="M101.52,220.31c0-.96-.28-3.8-1.79-2.11-.4,.44-.52,1.09-.58,1.71-.05,.62-.06,1.25-.28,1.82-.51,1.31-1.99,1.84-3.28,1.75-.51-.04-1.03-.15-1.47-.44-.43-.28-.76-.7-1.08-1.12-.78-1.01-1.56-2.02-2.34-3.03-1.34-1.74-4.2-1.17-6.14-1.01-2.23,.18-4.48,.74-6.36,2.13-.19,.14-.38,.29-.56,.44-.46,.36-.91,.72-1.43,.94-1.75,.76-3.82-.24-4.94-1.88-.51-.75-.98-1.71-1.82-1.88-.66-.13-1.34,.32-1.71,.94-.37,.62-.51,1.37-.59,2.1-.3,2.67-.08,5.45,.94,7.89,2.21,5.28,6.97,6.17,11.79,6.3,1.9,.05,3.81,.11,5.71,.16,3.48,.1,7.16,.14,10.19-1.76,2.67-1.68,4.37-4.68,5.16-7.87,.41-1.65,.59-3.37,.58-5.07m-13.09,6.64c-1.89,1.16-3.92,1.12-5.92,.39-.85-.31-.41-1.77,.45-1.46,1.66,.61,3.26,.68,4.84-.29,.79-.48,1.43,.88,.64,1.36"/>
        <path class="cls-20" d="M103.67,192.25c.4-1.24,.71-2.51,.94-3.79-1.2,.36-2.48,.4-3.7,.13,.03-.75,.07-1.49,.11-2.24,.03-.62-8.2-1.49-8.87-1.58-6.25-.85-11.96-1.65-17.81,1.48-5,2.67-8.33,6.88-9.36,12.53-.99,5.4,.4,12.58,3.27,17.26,.06-1.45-.59-4.9-.18-6.26,.28-1.37,.81-2.67,1.52-3.86,1.41-2.38,3.52-4.34,5.9-5.69,3.8-2.15,8.14-3.17,12.44-3.55,3.94-.35,8.74-.61,12.55,.65,1.83,.6,2.12,1.09,3.34-.75,.22-.33,1.99-4.17,1.83-4.18-.65-.04-1.3-.09-1.95-.13"/>
        <path class="cls-19" d="M382.63,182.98c-.91-3.1-1.83-6.2-2.72-9.3-1.35,.38-2.7,.76-4.05,1.15,.13,2.27,.27,4.55,.4,6.82-.7-.11-1.4-.23-2.1-.34,1.15,2.56,2.36,5.09,3.55,7.64,1.44-.19,2.87-.41,4.32-.55,.19-1.8,.33-3.62,.6-5.41"/>
        <path class="cls-24" d="M344.91,265.17c-.25-.48-.46-.97-.64-1.45-2.02-5.52-2.83-11.73-.85-17.27,.29-.8,.66-1.62,1.37-2.09,.57-.38,1.29-.47,1.97-.54,5.91-.68,11.83-1.36,17.74-2.04,.55-.06,1.14-.14,1.57-.49,.38-.31,.58-.8,.75-1.27,1.84-4.97,11.89-52.94,8.76-53.26,2.9-.23,5.79-.5,8.69-.71,2.91,15.38,6.17,59.04,1.98,64.28-9.5,11.86-13.36,12.65-27.42,19.42-1.73,.83-3.58,1.59-5.5,1.56-3.68-.05-6.78-2.93-8.43-6.14"/>
        <path class="cls-19" d="M257.31,231.03c-2.91-1.4-5.82-2.8-8.72-4.22-.62,1.26-1.24,2.52-1.87,3.77,1.78,1.42,3.55,2.85,5.33,4.28-.55,.44-1.11,.88-1.66,1.32,2.67,.87,5.36,1.67,8.04,2.49,.83-1.19,1.62-2.41,2.49-3.57-1.21-1.35-2.47-2.67-3.61-4.08"/>
        <polygon class="cls-25" points="311.56 525 311.53 537.43 318.74 537.45 318.77 523.67 311.56 525"/>
        <polygon class="cls-25" points="345.83 521 343.96 534.38 351.73 535.46 353.8 520.63 345.83 521"/>
        <path class="cls-22" d="M351.83,535.46l-7.1-1.08-2.81,1.06-2.05,4.88,15.76,9.78c2.42-1.35,2.92-4.62,1.01-6.63l-.63-.66-4.18-7.35Z"/>
        <path class="cls-22" d="M318.74,537.45l-7.21-.02-2.53,3.32,.5,5.27,18.52,1.15,.53-1.2c1.04-2.36-.47-5.07-3.03-5.41l-.41-.05-6.37-3.06Z"/>
        <polygon class="cls-36" points="289.56 405.38 302.42 464.14 310.25 530.66 322.18 530.69 331.63 364.07 291.67 364.71 289.56 405.38"/>
        <polygon class="cls-36" points="366.08 401.97 367.62 458.98 357.19 526.3 341.92 526.21 338.79 454.81 327.82 403.05 324.17 369.17 357.45 365.26 366.08 401.97"/>
        <polygon class="cls-24" points="342.14 239.72 304.77 243.97 298.55 264.62 289.72 325.4 285.42 377.05 345.5 377.98 365.28 374.81 360.19 320.58 352.68 259.01 342.14 239.72"/>
        <path class="cls-19" d="M337.89,199.74c-2.98-3.01-7.21-4.75-11.45-4.7-14.7,.15-15.82,14.46-13.08,25.59,1.21,4.9,3.62,9.71,7.72,12.67,1.11,.8,2.36,1.43,3.68,1.87h0c-.23,.77-.18,9.99-.83,9.9,3.41,.46,6.95,.01,10.14-1.28-.1-2.75,.25-6.14-.02-9.11,.41-.21,.81-.45,1.19-.73,3.93-2.86,5.21-8.08,5.95-12.89,.96-6.25,1.53-16.45-3.29-21.31"/>
        <path class="cls-20" d="M338.9,213.44c.47,.56,1.27,.7,1.85,1.15,1.92,1.5,.06,4.81,1.22,6.96,1.49,2.75,1.22,7.56-1.63,9.84-.97,.77-2.27,1.32-2.68,2.49-.47,1.37,.48,3.13-.49,4.2,1.55,1.6,4.21,1.26,6.26,.4,2.05-.85,4.06-2.13,6.29-2.05,.71,.03,1.55,.14,1.99-.42,.26-.33,.27-.79,.31-1.21,.51-5.1,6.53-3.8,7.33-7.93,.22-1.11-1.14-3.86-1.12-5.32,.04-2.32,1.36-4.39,.57-6.77-.33-.98-.98-1.83-1.32-2.81-.68-1.99,.03-4.15,.44-6.21,.41-2.06,.34-4.57-1.35-5.82-1.32-.98-3.23-.86-4.54-1.87-2.88-2.23-.77-8.06-4.01-9.73-1.66-.85-3.69,.08-5.54-.19-1.95-.29-3.43-1.84-5.06-2.95-1.63-1.11-4.08-1.7-5.42-.25-1.12,1.23-.82,3.27-1.85,4.58-.88,1.12-2.44,1.36-3.73,1.97-6.05,2.86,5.34,4.72,6.98,6.72,1.38,1.69,2.85,4.86,3.85,6.8,1.16,2.26,.42,6.96,1.66,8.42"/>
        <path class="cls-20" d="M321.26,199.08c-7.4,1.57-2.91,7.1-5.28,11.61-.93,1.78-3.48,2.44-3.98,4.38-.41,1.56,.73,3.05,1.65,4.38,.91,1.33,1.61,3.26,.51,4.44-.33,.36-.8,.59-1.03,1.02-.61,1.12,.77,2.25,1.93,2.76,1.17,.5,2.59,1.5,2.13,2.68-1.36,3.46-2.23,2-.02,4.93,.53,.71,1.45,.58,1.97,1.31-.96,1.04-2.4,1.41-3.79,.87-3.44-1.34-2.49,.34-5.18,.76-2.83,.44-2.92-.42-5.4-2-2.31-1.48-7.16-2.51-7.98-5.5-.46-1.67,.84-3.39,.46-5.08-.36-1.58-2.1-2.78-2.91-4.26-1.63-3.01,.84-6.3,1.35-9.52,.71-4.46-1.93-10.02,2.78-12.83,1.01-.61,2.25-.97,3.28-1.55,3.05-1.73,3.65-4.87,4.84-7.58,1.19-2.71,4.27-5.61,8.01-4.98,3.4,.57,5.2,3.79,8.65,4.13,1.21,.12,2.53-.14,3.6,.3,.83,.34,1.29,1.02,1.64,1.68,.82,1.52,3.22,6.63,1.41,8.04-2.35,1.83-5.51-.65-8.65,.02"/>
        <path class="cls-14" d="M349.34,216.52c.36-.54,.72-1.14,.79-1.8,.12-1.03-.41-1.81-1.27-2.32-.51-.3-1.07-.46-1.61-.69-1.14-.48-2.06-1.01-1.54-2.67,.08-.26,.31-.52,.42-.78,.42-.95,.51-2.11,.19-3.11-.25-.77-.78-1.45-1.57-1.7-.65-.21-1.27,.01-1.92-.03-2.43-.17-1.52-2.41-1.36-3.78,.29-2.43-1.38-4.51-3.8-4.82-.38-.05-.37,.54,0,.59,1.22,.16,2.26,.87,2.85,1.95,.6,1.09,.36,2.15,.16,3.31-.17,.98-.22,2.17,.61,2.89,1.29,1.13,3.18-.42,4.24,1.25,1.02,1.6-.11,2.95-.58,4.42-1.18,3.74,6.44,2.55,4.12,6.59-.6,1.04-1.74,2.06-1.55,3.39,.14,.96,.87,1.71,1.86,1.61,.38-.04,.38-.63,0-.59-1.62,.17-1.26-1.84-.85-2.56,.23-.41,.54-.76,.79-1.15"/>
        <path class="cls-14" d="M315.92,197.5c-2.07-.26-5.28-.2-5.57,2.52-.15,1.41,.69,2.67,.91,4.02,.44,2.7-2.27,3.27-4.16,4.08-2.03,.87-3.79,3.2-1.64,4.97,.26,.18,.52,.37,.77,.56-.15,.6-.31,1.2-.46,1.8-.18,.24-.71,.42-.95,.63-.32,.28-.62,.6-.68,1.04-.1,.76,.37,1.35,1.11,1.39,.38,.02,.38-.58,0-.59,.06-.52,.11-1.03,.17-1.55,.16-.1,.32-.2,.48-.3,.15-.13,.35-.21,.5-.35,.24-.2,.48-.43,.62-.72,.33-.67,.13-1.27-.37-1.77-.5-.5-1.02-.67-1.35-1.36-.57-1.18,.24-2.24,1.31-2.86,1.11-.65,2.44-.85,3.54-1.52,1.77-1.08,2.01-2.71,1.43-4.58-.44-1.42-1.26-3.31,.3-4.35,1.15-.77,2.74-.62,4.05-.46,.38,.05,.38-.55,0-.59"/>
        <polygon class="cls-37" points="733.8 287.96 752.74 270.44 767.8 249.92 782.78 244.99 797 250.24 809.15 273.57 819 291.24 824 322.24 793 341.24 753 324.24 742.58 311.81 740 304.24 733.8 287.96"/>
        <path class="cls-14" d="M302.11,208.15c.36-.11,.21-.68-.16-.57-1.62,.48-3.7,1.29-3.65,3.31,.01,.58,.24,1.09,.68,1.46,.67,.57,1.47,.53,2.04,1.26,1.1,1.42-.31,3.15-1.98,2.64-.37-.11-.52,.46-.16,.57,1.63,.49,3.45-.64,3.19-2.48-.14-1-.74-1.48-1.56-1.94-1.17-.66-2.19-1.65-1.09-2.94,.65-.77,1.76-1.05,2.68-1.32"/>
        <path class="cls-24" d="M304.77,243.97s-10.63,1.44-15.63,9.78l-10.49,18.81-16.45-38.88-8.61,4.59,8.61,48.26s13.04,8.59,14.58,9.01c1.53,.43,25.8-12.02,30.06-17.46l-2.06-34.1Z"/>
        <path class="cls-24" d="M823.53,297.27c-.68-.62-1.38-1.25-2.08-1.87,.46,1.18,.92,2.38,1.37,3.59,.46,1.21,.91,2.45,1.36,3.69,.29,.8,.57,1.62,.84,2.45-.27-.83-.55-1.65-.84-2.45-.45-1.25-.9-2.48-1.36-3.69-.46-1.21-.91-2.41-1.37-3.59-5.06-4.54-10.23-9.34-11.62-15.89-.67-3.14-.37-6.27,.3-9.4,1.07-5.03,3.1-10.07,3.64-15.2,.91-8.8,.19-21.44-1.96-30.05-2.3-9.2-7.3-17.53-13.31-24.78-7.29-8.8-20.83-18.64-30.42-7.12-.11,.13-.22,.27-.32,.41-1.04-.52-2.13-.94-3.26-1.25-6.63,5.58-8.33,14.57-7.64,22.82,.7,8.27,4.87,17.64,2.52,25.85-.23,.78-.52,1.57-.51,2.38,0,.82,.4,1.7,1.16,1.99,.46,.18,.98,.12,1.47,.05,4.05-.52,8.47-1.23,11.22-4.25,.41-.45,.73-.9,.98-1.35-.29-.09-.58-.2-.87-.31-5.02-1.96-8.89-6.94-10.71-12.24-1.81-5.3-1.82-10.88-1.21-16.17,.56-4.87,2.6-8.07,5.4-9.84,.51,1.43,1.47,3.19,2.55,3.87,.54,.34,.93,.5,1.26,.55,.74,.13,1.21-.24,2.64-.23,3.02,.02,5.73,.4,8.09,2.49,6.02,5.31,8.28,19.55,6.2,28.56,5.68-5.67,7.96-16.19,4.22-24.05-.21-.45-.44-.88-.68-1.31,.24,.43,.46,.86,.68,1.31,3.74,7.86,1.46,18.39-4.22,24.05-.04,.16-.07,.31-.11,.46-.26,1.02-.57,1.97-.94,2.82-.15,.35-.31,.68-.49,.99-1.85,3.37-4.71,6.54-4.64,10.39,.01,.71,.13,1.41,.31,2.1,.32,1.25,.84,2.47,1.31,3.68,4.92,12.9-.49,27.46-8.5,38.36-4.1,5.58-9.52,10.42-11.86,16.94-.4,1.12-.65,2.31-.77,3.53-.54,5.88,2.22,12.28,7.88,13.23,1.33,.23,2.75,.14,3.97,.71,4.18,1.94,2.37,8.8,5.47,12.22,2,2.21,5.38,2.29,8.36,2.2,.97-.03,2-.07,2.82-.61,1.74-1.13,1.57-3.66,2.09-5.68,.93-3.65,4.57-6.04,8.25-6.85,3.68-.81,7.49-.38,11.26-.37,4.7,0,9.51-.69,13.65-2.91,1.63-.87,3.14-2.01,4.43-3.34-.16-.97-.33-1.93-.5-2.89,.17,.96,.34,1.92,.5,2.89,1.99-2.06,3.44-4.61,3.92-7.42,1.28-7.51-4.26-14.37-9.89-19.49m-42.84-95.85c.78,.39,1.54,.84,2.29,1.33-.75-.5-1.51-.94-2.29-1.33"/>
        <path class="cls-32" d="M271.09,377.4l8.55,163.36c.16,4.43,3.79,7.94,8.23,7.94h100.91c4.43,0,8.07-3.51,8.23-7.94l8.55-163.36h-134.46Z"/>
        <rect class="cls-6" x="264.54" y="359.31" width="147.56" height="18.1"/>
        <polygon class="cls-32" points="405.55 359.31 271.09 359.31 281.52 311.08 395.12 311.08 405.55 359.31"/>
        <path class="cls-22" d="M374.98,350.31h-73.32c-3.73,0-6.75-3.02-6.75-6.75v-10.23c0-3.73,3.02-6.75,6.75-6.75h73.32c3.73,0,6.75,3.02,6.75,6.75v10.23c0,3.73-3.02,6.75-6.75,6.75"/>
        <path class="cls-5" d="M358.26,464.95c-.04-.21-.12-.45-.25-.69-.13-.24-.5-.93-.99-1.84l1.24,2.53Z"/>
        <path class="cls-5" d="M339.57,440.44l4.68,1.39c1.66,.5,4.39,1.31,6.05,1.8l4.68,1.39c1.66,.49,3.34-.51,3.72-2.24l1.08-4.86c.38-1.73,1.01-4.56,1.39-6.29l1.08-4.86c.38-1.73-.71-2.3-2.42-1.27l-2.94,1.77c-1.08-1.88-2.15-3.75-2.57-4.43-.95-1.55-2.76-2.74-6.34-2.72-2.65,.01-9.69,.06-14.15,.08l5.91,10.62c.13,.14,.26,.31,.37,.53,.28,.58,1.35,2.59,2.42,4.57l-2.87,1.73c-1.71,1.03-1.75,2.28-.09,2.78"/>
        <path class="cls-5" d="M323.19,423.75c-1.52,2.36-5.36,8.63-5.36,8.63-.86,1.41-.42,3.25,.98,4.09l9.44,5.67c1.4,.84,3.24,.37,4.08-1.05,0,0,5.32-8.95,5.82-9.78,.51-.86,1.12-.99,1.61-.48l-5.91-10.62c-1.54,0-2.78,.02-3.41,.02-2.46,.01-5.27,.45-7.24,3.52"/>
        <path class="cls-5" d="M306.5,463.42c1.06,2.11,4.01,7.54,6.16,11.52l6.69-11.19c.79-1.38,2.25-3.93,3.47-6.04l3.42,1.95c1.74,.99,2.81,.39,2.39-1.33l-1.2-4.84c-.42-1.72-1.12-4.53-1.54-6.25l-1.19-4.84c-.43-1.72-2.12-2.68-3.78-2.15l-4.65,1.51c-1.65,.54-4.35,1.42-6,1.96l-4.65,1.51c-1.65,.54-1.58,1.79,.16,2.77l2.52,1.44c-1.29,2.55-2.81,5.56-3.19,6.43-.69,1.56-.26,4.25,1.39,7.53"/>
        <path class="cls-5" d="M319.35,463.76l-6.69,11.19c1.2,2.22,2.16,3.98,2.41,4.48,.71,1.37,1.72,4.06,8.1,4.02,6.38-.04,9.28-.05,9.28-.05,1.62-.01,2.94-1.38,2.93-3.04l-.06-11.2c-.01-1.66-1.34-3.01-2.97-3,0,0-10.86,.06-12.67,.07-1.14,0-1.29-.77-.89-1.49,.05-.1,.26-.45,.55-.97"/>
        <path class="cls-5" d="M358.26,464.95l5.53,11.3c1.93-3.65,5.22-9.98,6.56-12.72,1.8-3.66,2.3-6.84,1.48-8.51-.83-1.67-4.92-9.79-4.92-9.79-.75-1.48-2.49-1.97-3.87-1.1l-9.37,5.9c-1.38,.87-1.87,2.77-1.08,4.22,0,0,2.85,5.24,4.43,8.17,.49,.91,.87,1.6,.99,1.84,.13,.25,.21,.48,.25,.69"/>
        <path class="cls-5" d="M362.42,478.78c.22-.38,.72-1.3,1.37-2.53l-5.53-11.3c.12,.66-.21,1.1-1,1.11-.54,0-3.24,.02-5.72,.03l-.03-3.5c-.02-2.03-1.06-2.69-2.31-1.47l-3.52,3.45c-1.25,1.23-3.3,3.23-4.55,4.46l-3.52,3.45c-1.25,1.23-1.23,3.21,.04,4.42l3.58,3.39c1.27,1.2,3.35,3.17,4.63,4.37l3.58,3.39c1.27,1.2,2.3,.52,2.28-1.51l-.03-3.33c1.4,0,2.95-.02,4.38-.03,3.98-.02,5.48-2.91,6.35-4.41"/>
        <path class="cls-16" d="M104.47,377.4l8.55,163.36c.16,4.43,3.79,7.94,8.23,7.94h100.91c4.43,0,8.07-3.51,8.23-7.94l8.55-163.36H104.47Z"/>
        <rect class="cls-1" x="97.92" y="359.31" width="147.56" height="18.1"/>
        <polygon class="cls-16" points="238.93 359.31 104.47 359.31 114.9 311.08 228.5 311.08 238.93 359.31"/>
        <path class="cls-22" d="M208.36,350.31h-73.32c-3.73,0-6.75-3.02-6.75-6.75v-10.23c0-3.73,3.02-6.75,6.75-6.75h73.32c3.73,0,6.75,3.02,6.75,6.75v10.23c0,3.73-3.02,6.75-6.75,6.75"/>
        <path class="cls-5" d="M191.64,464.95c-.04-.21-.12-.45-.25-.69-.13-.24-.5-.93-.99-1.84l1.24,2.53Z"/>
        <path class="cls-5" d="M172.95,440.44l4.68,1.39c1.66,.5,4.39,1.31,6.05,1.8l4.68,1.39c1.66,.49,3.34-.51,3.72-2.24l1.08-4.86c.38-1.73,1.01-4.56,1.39-6.29l1.08-4.86c.38-1.73-.71-2.3-2.42-1.27l-2.94,1.77c-1.08-1.88-2.15-3.75-2.57-4.43-.95-1.55-2.76-2.74-6.34-2.72-2.65,.01-9.69,.06-14.15,.08l5.91,10.62c.13,.14,.26,.31,.37,.53,.28,.58,1.35,2.59,2.42,4.57l-2.87,1.73c-1.71,1.03-1.75,2.28-.09,2.78"/>
        <path class="cls-5" d="M156.57,423.75c-1.52,2.36-5.36,8.63-5.36,8.63-.86,1.41-.42,3.25,.98,4.09l9.44,5.67c1.4,.84,3.24,.37,4.08-1.05,0,0,5.32-8.95,5.82-9.78,.51-.86,1.12-.99,1.61-.48l-5.91-10.62c-1.54,0-2.78,.02-3.41,.02-2.46,.01-5.27,.45-7.24,3.52"/>
        <path class="cls-5" d="M139.88,463.42c1.06,2.11,4.01,7.54,6.16,11.52l6.69-11.19c.79-1.38,2.25-3.93,3.47-6.04l3.42,1.95c1.74,.99,2.81,.39,2.39-1.33l-1.2-4.84c-.42-1.72-1.12-4.53-1.54-6.25l-1.19-4.84c-.43-1.72-2.12-2.68-3.78-2.15l-4.65,1.51c-1.65,.54-4.35,1.42-6,1.96l-4.65,1.51c-1.65,.54-1.58,1.79,.16,2.77l2.52,1.44c-1.29,2.55-2.81,5.56-3.19,6.43-.69,1.56-.26,4.25,1.39,7.53"/>
        <path class="cls-5" d="M152.73,463.76l-6.69,11.19c1.2,2.22,2.16,3.98,2.41,4.48,.71,1.37,1.72,4.06,8.1,4.02,6.38-.04,9.28-.05,9.28-.05,1.62-.01,2.94-1.38,2.93-3.04l-.06-11.2c-.01-1.66-1.34-3.01-2.97-3,0,0-10.86,.06-12.67,.07-1.14,0-1.29-.77-.89-1.49,.05-.1,.26-.45,.55-.97"/>
        <path class="cls-5" d="M191.64,464.95l5.53,11.3c1.93-3.65,5.22-9.98,6.56-12.72,1.8-3.66,2.3-6.84,1.48-8.51-.83-1.67-4.92-9.79-4.92-9.79-.75-1.48-2.48-1.97-3.87-1.1l-9.37,5.9c-1.38,.87-1.87,2.77-1.08,4.22,0,0,2.85,5.24,4.43,8.17,.49,.91,.87,1.6,.99,1.84,.13,.25,.21,.48,.25,.69"/>
        <path class="cls-5" d="M195.8,478.78c.22-.38,.72-1.3,1.37-2.53l-5.53-11.3c.12,.66-.21,1.1-1,1.11-.54,0-3.24,.02-5.72,.03l-.03-3.5c-.02-2.03-1.06-2.69-2.31-1.47l-3.52,3.45c-1.25,1.23-3.3,3.23-4.55,4.46l-3.52,3.45c-1.25,1.23-1.23,3.21,.04,4.42l3.58,3.39c1.27,1.2,3.35,3.17,4.63,4.37l3.58,3.39c1.27,1.2,2.3,.52,2.28-1.51l-.03-3.33c1.4,0,2.95-.02,4.38-.03,3.98-.02,5.48-2.91,6.35-4.41"/>
        <path class="cls-17" d="M430.75,375.32l8.55,163.36c.16,4.43,3.79,7.94,8.23,7.94h100.91c4.43,0,8.07-3.51,8.23-7.94l8.55-163.36h-134.46Z"/>
        <rect class="cls-10" x="424.2" y="357.22" width="147.56" height="18.1"/>
        <polygon class="cls-17" points="565.21 357.22 430.75 357.22 441.18 308.99 554.78 308.99 565.21 357.22"/>
        <path class="cls-22" d="M534.64,348.22h-73.32c-3.73,0-6.75-3.02-6.75-6.75v-10.23c0-3.73,3.02-6.75,6.75-6.75h73.32c3.73,0,6.75,3.02,6.75,6.75v10.23c0,3.73-3.02,6.75-6.75,6.75"/>
        <path class="cls-5" d="M517.92,462.86c-.04-.21-.12-.45-.25-.69-.13-.24-.5-.93-.99-1.84l1.24,2.53Z"/>
        <path class="cls-5" d="M499.23,438.36l4.68,1.39c1.66,.5,4.39,1.31,6.05,1.8l4.68,1.39c1.66,.49,3.34-.51,3.72-2.24l1.08-4.86c.38-1.73,1.01-4.56,1.39-6.29l1.08-4.86c.38-1.73-.71-2.3-2.42-1.27l-2.94,1.77c-1.08-1.88-2.15-3.75-2.57-4.43-.95-1.55-2.76-2.74-6.34-2.72-2.65,.01-9.69,.06-14.15,.08l5.91,10.62c.13,.14,.26,.31,.37,.53,.28,.58,1.35,2.59,2.42,4.57l-2.87,1.73c-1.71,1.03-1.75,2.28-.09,2.78"/>
        <path class="cls-5" d="M482.85,421.66c-1.52,2.36-5.36,8.63-5.36,8.63-.86,1.41-.42,3.25,.98,4.09l9.44,5.67c1.4,.84,3.24,.37,4.08-1.05,0,0,5.32-8.95,5.81-9.78,.51-.86,1.12-.99,1.61-.48l-5.91-10.62c-1.54,0-2.78,.02-3.41,.02-2.46,.01-5.26,.45-7.24,3.52"/>
        <path class="cls-5" d="M466.16,461.33c1.06,2.11,4.01,7.54,6.16,11.52l6.69-11.19c.79-1.38,2.25-3.93,3.47-6.04l3.42,1.95c1.74,.99,2.81,.39,2.39-1.33l-1.2-4.84c-.42-1.72-1.12-4.53-1.54-6.25l-1.19-4.84c-.43-1.72-2.12-2.68-3.78-2.15l-4.65,1.51c-1.65,.54-4.35,1.42-6,1.96l-4.65,1.51c-1.65,.54-1.58,1.79,.16,2.77l2.52,1.44c-1.29,2.55-2.81,5.56-3.19,6.43-.69,1.56-.26,4.25,1.39,7.53"/>
        <path class="cls-5" d="M479.01,461.67l-6.69,11.19c1.2,2.22,2.16,3.98,2.41,4.48,.71,1.37,1.72,4.06,8.1,4.02,6.38-.04,9.28-.05,9.28-.05,1.62-.01,2.94-1.38,2.93-3.04l-.06-11.2c-.01-1.66-1.34-3.01-2.97-3,0,0-10.86,.06-12.67,.07-1.14,0-1.29-.77-.89-1.49,.05-.1,.26-.45,.55-.97"/>
        <path class="cls-5" d="M517.92,462.86l5.53,11.3c1.93-3.65,5.22-9.98,6.56-12.72,1.8-3.66,2.3-6.84,1.48-8.51-.83-1.67-4.92-9.79-4.92-9.79-.75-1.48-2.48-1.97-3.87-1.1l-9.37,5.9c-1.38,.87-1.87,2.77-1.08,4.22,0,0,2.85,5.24,4.43,8.17,.49,.91,.87,1.6,.99,1.84,.13,.25,.21,.48,.25,.69"/>
        <path class="cls-5" d="M522.08,476.7c.22-.38,.72-1.3,1.37-2.53l-5.53-11.3c.12,.66-.21,1.1-1,1.11-.54,0-3.24,.02-5.72,.03l-.03-3.5c-.02-2.03-1.06-2.69-2.31-1.47l-3.52,3.45c-1.25,1.23-3.3,3.23-4.55,4.46l-3.52,3.45c-1.25,1.23-1.23,3.21,.04,4.42l3.58,3.39c1.27,1.2,3.35,3.17,4.63,4.37l3.58,3.39c1.27,1.2,2.3,.52,2.28-1.51l-.03-3.33c1.4,0,2.95-.02,4.38-.03,3.98-.02,5.48-2.91,6.35-4.41"/>
        <path class="cls-25" d="M710.66,244.02c-1.14-1.51-2.28-3.02-3.42-4.52,.26-1.65,.51-3.29,.77-4.94-.32-.23-.64-.46-.96-.69-.3,.38-.6,.77-.9,1.15-.18-1.43-.36-2.85-.54-4.28-.85-.8-1.7-1.6-2.55-2.4-1.52,.3-3.05,.6-4.57,.91-1.05,1.22-2.1,2.43-3.15,3.64,.46,1.47,.92,2.98,1.38,4.43,1.39,1.5,2.67,2.18,4.08,3.87,1.41,1.69,2.96,4.39,4.39,6.27,1.83-1.11,3.65-2.3,5.47-3.44"/>
        <path class="cls-37" d="M710.4,237.79c5.69,6.12,11.46,12.17,16.7,18.7,3.25,4.04,7.68,15.41,13.38,11.2,6.42-4.75,12.84-9.51,19.26-14.26,1.11-.82,2.25-1.66,3.56-2.11,7.6-2.6,11.29,7.92,12.99,13.67,.98,3.3,.83,2.15,1.55,5.51,.4,1.87,.76,3.86,.13,5.6-.74,2.09-2.71,3.35-4.59,4.42-7.84,4.46-16.24,7.94-24.96,10.36-4.6,1.28-9.3,2.28-14.05,2.95-5.08,.72-5.41-.24-7.71-4.95-8.1-16.61-17.44-27.61-25.11-44.44,2.95-2.21,5.9-4.43,8.85-6.64"/>
        <path class="cls-14" d="M444.96,204.87l-2.03-19.51c-.27-2.5-2.46-4.34-4.97-4.2l-4.33,.25c-2.51,.14-4.47,2.23-4.45,4.74l.24,19.61c.01,1.89-1.1,3.64-2.85,4.36-4.72,1.93-7.94,6.7-7.63,12.05l4.29,74.14c.15,2.6,2.38,4.59,4.99,4.44l28.88-1.67c2.6-.15,4.59-2.38,4.44-4.99l-4.29-74.14c-.31-5.35-4.06-9.72-8.97-11.09-1.82-.51-3.13-2.12-3.33-4"/>
        <rect class="cls-22" x="427.7" y="180.73" width="16.37" height="3.92" transform="translate(-9.82 25.46) rotate(-3.31)"/>
        <path class="cls-5" d="M456.19,245.7l-2.44,.14-1.27-22.03c-1.02-9.01-6.1-9.05-6.31-9.05l-.07-2.44c.31-.01,7.52-.13,8.81,11.28l1.28,22.1Z"/>
        <path class="cls-5" d="M206.89,523.48c-3.9,0-7.07,3.17-7.07,7.07v25.03c0,3.9,3.16,7.07,7.07,7.07h21.73c4.43,0,8.51-1.5,11.8-4,3.09,2.5,7,4,11.26,4h34.36c3.01,0,5.45-2.44,5.45-5.45v-28.27c0-3.01-2.44-5.45-5.45-5.45h-34.36c-4.26,0-8.17,1.51-11.26,4.01-3.29-2.5-7.37-4.01-11.8-4.01h-21.73Z"/>
        <rect class="cls-5" x="192.67" y="535.18" width="7.67" height="15.77"/>
        <rect class="cls-13" x="183.99" y="533.95" width="10.16" height="18.22"/>
        <rect class="cls-29" x="252.87" y="527.25" width="2.09" height="31.63"/>
        <rect class="cls-29" x="264.17" y="527.25" width="2.09" height="31.63"/>
        <rect class="cls-29" x="274.77" y="527.25" width="2.09" height="31.63"/>
        <path class="cls-29" d="M166.54,127.03c-2.52-3.54-7.43-4.38-10.98-1.86l-22.73,16.14c-3.54,2.52-4.38,7.43-1.86,10.98l14.02,19.73c2.85,4.02,6.85,6.75,11.25,8.13-.28,4.41,.88,8.94,3.63,12.81l22.16,31.2c1.94,2.73,5.73,3.37,8.46,1.43l25.67-18.24c2.73-1.94,3.37-5.73,1.43-8.46l-22.16-31.2c-2.75-3.86-6.64-6.45-10.9-7.64,.15-4.6-1.12-9.28-3.97-13.29l-14.01-19.73Z"/>
        <rect class="cls-29" x="133.28" y="125.96" width="17.56" height="8.55" transform="translate(-49.17 106.34) rotate(-35.39)"/>
        <rect class="cls-37" x="127.12" y="117.82" width="20.29" height="11.32" transform="translate(-46.15 102.31) rotate(-35.39)"/>
        <rect class="cls-14" x="161.48" y="181.19" width="35.23" height="2.32" transform="translate(-72.52 137.42) rotate(-35.39)"/>
        <rect class="cls-14" x="168.77" y="191.45" width="35.23" height="2.32" transform="translate(-77.11 143.54) rotate(-35.39)"/>
        <rect class="cls-14" x="175.6" y="201.08" width="35.23" height="2.32" transform="translate(-81.42 149.28) rotate(-35.39)"/>
        <polygon class="cls-25" points="419.9 265.97 422.78 263.15 425.76 266.96 428.94 267.5 432.63 273.91 428.31 280.16 419.61 281.96 416.75 271.23 419.9 265.97"/>
        <path class="cls-33" d="M620.97,190.3l106.04-15.66,16.68-25.26-105.09,15.52s-17.02,26.28-17.63,25.4"/>
        <polygon class="cls-9" points="644.57 171.06 710.06 161.38 712.41 177.29 645.9 187.11 644.57 171.06"/>
        <path class="cls-4" d="M633.21,141.51s1.13,5.71,5.85,16.29l26.22,63.05-7.15,2.97-32.85-79.01,7.94-3.3Z"/>
        <path class="cls-4" d="M633.21,141.51c1.15,2.76-3.14,7.16-9.56,9.84-6.43,2.67-12.57,2.6-13.72-.15-1.15-2.76,3.14-7.16,9.56-9.84,6.43-2.67,12.57-2.6,13.72,.15"/>
        <path class="cls-26" d="M616.23,146.38l2.71,6.53c1.28-.29,2.62-.7,3.98-1.26,4.38-1.82,8.13-4.13,8.28-7.1-1.69-3.42-11.06,.16-14.97,1.84"/>
        <path class="cls-34" d="M623.42,151.43c-2.24,.91-4.44,1.49-6.4,1.73-3.59,.45-6.36-.21-7.1-1.97l17.6,42.32,15.25,36.69,20.49-8.52-31.5-75.77-.57-1.36c-.14,2.86-3.61,5.1-7.78,6.89"/>
        <path class="cls-4" d="M753.88,122.56s-3.25,5.77-7.95,18.25l-28.95,73.04-5.64-2.24,36.27-91.53,6.26,2.48Z"/>
        <path class="cls-4" d="M753.88,122.56c-1.27,3.2-6.41,4.16-11.48,2.15-5.07-2.01-8.16-6.23-6.89-9.43,1.27-3.2,6.41-4.16,11.48-2.15,5.07,2.01,8.16,6.23,6.89,9.43"/>
        <path class="cls-26" d="M741.95,115.34l-3,7.56c.85,.61,1.81,1.16,2.88,1.58,3.46,1.37,6.92,1.89,8.99-.62,1.43-4.14-5.75-7.35-8.87-8.53"/>
        <path class="cls-34" d="M742.23,124.63c-1.76-.72-3.26-1.7-4.43-2.82-2.13-2.04-3.1-4.49-2.3-6.54l-19.43,49.03-16.84,42.5,16.17,6.41,34.79-87.78,.63-1.58c-1.99,2.41-5.26,2.02-8.59,.77"/>
        <path class="cls-4" d="M729.61,116.73s-1.74,6.39-3.22,19.64l-10.11,77.92-6.02-.78,12.67-97.64,6.68,.87Z"/>
        <path class="cls-4" d="M729.61,116.73c-.44,3.41-5.19,5.6-10.6,4.9-5.41-.7-9.44-4.04-9-7.44,.44-3.41,5.19-5.6,10.6-4.9,5.41,.7,9.44,4.04,9,7.44"/>
        <path class="cls-26" d="M716.27,112.65l-1.05,8.07c.97,.39,2.04,.68,3.18,.83,3.69,.48,7.17,.13,8.56-2.81,.37-4.37-7.38-5.71-10.69-6.09"/>
        <path class="cls-34" d="M718.83,121.6c-1.88-.27-3.58-.85-4.98-1.64-2.56-1.45-4.11-3.59-3.83-5.77l-6.79,52.3-5.88,45.34,17.25,2.24,12.15-93.64,.22-1.68c-1.34,2.83-4.61,3.25-8.14,2.86"/>
        <path class="cls-28" d="M678.27,132.37s-1.6,6.39-1.87,19.49l-3.6,77.16-8.75-.41,4.51-96.7,9.71,.45Z"/>
        <path class="cls-28" d="M678.27,132.37c-.16,3.38-6.66,5.82-14.53,5.45-7.87-.37-14.12-3.4-13.96-6.78,.16-3.38,6.66-5.82,14.53-5.45,7.87,.37,14.12,3.4,13.96,6.78"/>
        <path class="cls-31" d="M658.55,129.17l-.37,7.99c1.45,.32,3.02,.55,4.68,.62,5.36,.25,10.31-.3,11.89-3.27-.08-4.32-11.39-5.17-16.2-5.34"/>
        <path class="cls-38" d="M663.47,137.8c-2.74-.15-5.26-.62-7.39-1.31-3.89-1.27-6.41-3.29-6.31-5.44l-2.41,51.79-2.09,44.9,25.08,1.17,4.32-92.73,.08-1.67c-1.52,2.86-6.16,3.47-11.28,3.29"/>
        <rect class="cls-3" x="625.91" y="182.06" width="107.19" height="75.47" transform="translate(-24.82 101.64) rotate(-8.4)"/>
        <polygon class="cls-33" points="620.97 190.3 619.24 223.18 723.86 207.73 726.96 174.14 620.97 190.3"/>
        <polygon class="cls-2" points="743.6 148.71 753.96 218.85 737.94 248.63 726.92 173.97 743.6 148.71"/>
        <polygon class="cls-11" points="727.01 174.64 740.44 196.43 757.2 170.15 743.7 149.38 727.01 174.64"/>
        <path class="cls-17" d="M665.07,183.81s19.19-3.31,27.71,11.97c0,0,21.6-20.7,26.87-20.66l-16.42-8.64-11.8,5.28-26.36,12.05Z"/>
        <path class="cls-18" d="M249.6,244.22c-.18,.22-.37,.44-.56,.66,.02,.06,.05,.13,.08,.19,.18-.25,.35-.51,.48-.84"/>
        <path class="cls-27" d="M240.25,234.61c-4.4-1.58-9.27,.03-13.48,2.06-5.99,2.89-11.57,6.65-16.5,11.12-4.08,3.7-8.25,8.14-13.74,8.57-2.44,.19-4.87-.47-7.31-.52-2.45-.06-5.18,.69-6.39,2.82-1.38,2.44-.18,5.51,1.32,7.88,2.27,3.6,5.4,6.89,9.46,8.16,2.66,.83,5.52,.73,8.29,.39,12.76-1.58,24.21-8.17,33.8-16.47,6.44-5.57,17.89-19.2,4.55-24.01"/>
        <path class="cls-21" d="M249.35,238.86c-.06,.28-.13,.56-.19,.84,.05,.04,.1,.09,.16,.13,.05-.3,.07-.62,.04-.97"/>
        <path class="cls-12" d="M236.62,234.63c-4.63,.62-8.22,4.3-11.02,8.04-3.99,5.33-7.2,11.23-9.52,17.47-1.92,5.16-3.57,11.03-8.25,13.93-2.08,1.29-4.53,1.83-6.73,2.9-2.2,1.07-4.28,3-4.37,5.45-.1,2.8,2.38,4.97,4.8,6.39,3.67,2.15,7.97,3.63,12.16,2.88,2.75-.49,5.24-1.89,7.54-3.47,10.6-7.28,17.73-18.4,22.42-30.18,3.15-7.91,7.03-25.28-7.02-23.41"/>
        <path class="cls-21" d="M237.49,238.22c-.08,.27-.16,.55-.24,.83-.07,.01-.13,.02-.2,.04,.11-.29,.24-.58,.44-.87"/>
        <path class="cls-12" d="M250.67,240.7c3.75,2.79,5.1,7.74,5.74,12.38,.9,6.59,.86,13.31-.14,19.89-.83,5.45-2.22,11.38,.46,16.19,1.19,2.14,3.08,3.8,4.48,5.8,1.4,2.01,2.29,4.7,1.18,6.88-1.27,2.5-4.49,3.2-7.29,3.26-4.25,.1-8.73-.69-12.03-3.37-2.17-1.76-3.67-4.2-4.91-6.69-5.74-11.5-6.58-24.68-4.97-37.27,1.08-8.45,6.1-25.52,17.49-17.07"/>
        <path class="cls-12" d="M244.89,244.29l-6.12-3.82c-1.08-.67-1.41-2.1-.74-3.18l4.85-7.78c.67-1.08,2.1-1.41,3.18-.74l6.12,3.82c1.08,.67,1.41,2.1,.74,3.18l-4.85,7.78c-.67,1.08-2.1,1.41-3.18,.74"/>
      </g>
    </g>
  </g>
</svg>