<?xml version="1.0" encoding="UTF-8"?>
<svg id="Layer_2" data-name="Layer 2" xmlns="http://www.w3.org/2000/svg" viewBox="0 0 379.55 145.1">
  <defs>
    <style>
      .cls-1 {
        fill: #ffcb5b;
      }

      .cls-2 {
        fill: #fff;
      }

      .cls-3 {
        fill: #727272;
      }

      .cls-4 {
        fill: #048e99;
      }

      .cls-5 {
        fill: #bc5006;
      }

      .cls-6 {
        fill: #05bdc6;
      }

      .cls-7 {
        fill: #ff7415;
      }

      .cls-8 {
        fill: #383232;
      }

      .cls-9 {
        fill: #b1b2b1;
      }

      .cls-10 {
        fill: #4f4646;
      }

      .cls-11 {
        fill: #ea6206;
      }

      .cls-12 {
        fill: #4f4f4f;
      }

      .cls-13 {
        fill: #353535;
      }

      .cls-14 {
        fill: #999;
      }

      .cls-15 {
        fill: #ccc;
      }

      .cls-16 {
        fill: #f2b53d;
      }

      .cls-17 {
        fill: #d68e0d;
      }
    </style>
  </defs>
  <g id="Layer_1-2" data-name="Layer 1">
    <g>
      <g>
        <polygon class="cls-13" points="238.05 90.41 30.21 90.41 30.21 111.62 197.39 111.62 240.18 96.95 238.05 90.41"/>
        <polygon class="cls-12" points="222.42 83.46 80.89 83.46 80.89 13.6 204.9 13.6 222.42 83.46"/>
        <g>
          <polygon class="cls-12" points="223.72 90.41 78.11 90.41 78.11 83.46 222.42 83.46 223.72 90.41"/>
          <rect class="cls-12" x="78.11" y="11.58" width="5.56" height="75.35"/>
          <rect class="cls-12" x="114.81" y="11.58" width="5.56" height="75.35"/>
          <rect class="cls-12" x="176.53" y="11.58" width="5.56" height="75.35"/>
          <rect class="cls-12" x="214.12" y="9.82" width="5.56" height="86.38" transform="translate(-6.38 54.14) rotate(-14.02)"/>
        </g>
        <rect class="cls-5" x="219.53" y="8.76" width="2.93" height="86.38" transform="translate(-6 55.1) rotate(-14.02)"/>
        <g>
          <circle cx="199.78" cy="114.12" r="20.47"/>
          <circle class="cls-3" cx="199.78" cy="114.12" r="11.89"/>
          <circle cx="199.78" cy="114.12" r="6.03"/>
        </g>
        <g>
          <circle cx="156.72" cy="114.12" r="20.47"/>
          <circle class="cls-3" cx="156.72" cy="114.12" r="11.89"/>
          <circle cx="156.72" cy="114.12" r="6.03"/>
        </g>
        <g>
          <circle cx="53.34" cy="114.12" r="20.47"/>
          <circle class="cls-3" cx="53.34" cy="114.12" r="11.89"/>
          <circle cx="53.34" cy="114.12" r="6.03"/>
        </g>
        <path class="cls-7" d="M235.59,9.69h-23.65l20.93,83.81,12.89,10.65h31.31V46.27l-18.02-21.38-23.46-15.2Zm36.52,89.49h-24.56l-10.25-8.47L218.31,14.66h15.82l21.61,14,16.38,19.43v51.1Z"/>
        <polygon class="cls-11" points="234.13 14.66 218.31 14.66 237.3 90.72 247.56 99.19 272.11 99.19 272.11 48.08 255.74 28.66 234.13 14.66"/>
        <path class="cls-12" d="M55.72,84.73h10.18V31.31c0-2.08-1.69-3.77-3.77-3.77h-30.08c-3.82,0-7.27,2.31-8.72,5.85l-12.26,29.93-4.44,.69c-1.71,.27-3.08,1.57-3.43,3.27-1.92,9.53-1.93,19.19,.01,28.99,.33,1.65,1.77,2.84,3.45,2.84H31.41c4.59-9.02,12.01-14.04,24.3-14.37Z"/>
        <rect class="cls-6" x="32.1" y="42.2" width="21.73" height="18.45" rx=".93" ry=".93"/>
        <path class="cls-6" d="M29.28,60.65h-9.97c-.65,0-1.1-.65-.87-1.26l6.2-16.59c.14-.36,.48-.6,.87-.6h3.77c.51,0,.93,.42,.93,.93v16.59c0,.51-.42,.93-.93,.93Z"/>
        <path d="M18.98,42.2h1.49v21.12h-1.49c-1.5,0-2.71-1.22-2.71-2.71v-15.7c0-1.5,1.22-2.71,2.71-2.71Z"/>
        <path d="M18.9,43.35h-1.05v-1.47c0-1.28,1.04-2.33,2.33-2.33h7.16v1.05h-7.16c-.7,0-1.27,.57-1.27,1.27v1.47Z"/>
        <g>
          <polygon class="cls-13" points="65.9 38.22 21.35 38.22 21.69 37.39 65.9 37.39 65.9 38.22"/>
          <rect class="cls-13" x="55.3" y="37.8" width=".83" height="46.94"/>
          <polygon class="cls-13" points="11.54 99.1 10.44 63.42 11.06 63.32 12.37 99.1 11.54 99.1"/>
        </g>
        <rect class="cls-7" x="4.04" y="84.36" width="5.26" height="2.45" rx=".74" ry=".74"/>
        <path class="cls-9" d="M9.29,94.28v-3.44c0-1.45-1.17-2.62-2.62-2.62H2.05c.24,2.67,.62,5.35,1.15,8.04,.04,.22,.11,.43,.19,.63h3.28c1.45,0,2.62-1.17,2.62-2.62Z"/>
        <path class="cls-3" d="M53.16,76.52h-1.37c-.89,0-1.61-.72-1.61-1.61h0c0-.89,.72-1.61,1.61-1.61h1.37c.89,0,1.61,.72,1.61,1.61h0c0,.89-.72,1.61-1.61,1.61Z"/>
        <g>
          <path class="cls-4" d="M52.9,42.2h-19.87c-.51,0-.93,.42-.93,.93v6.77h21.73v-6.77c0-.51-.42-.93-.93-.93Z"/>
          <path class="cls-4" d="M29.28,42.2h-3.77c-.39,0-.74,.24-.87,.6l-.26,.7,3.54,4.06-5.73,13.09h5.22l2.81-7.97v-9.55c0-.51-.42-.93-.93-.93Z"/>
        </g>
        <rect class="cls-13" x="11.95" y="99.1" width="18.68" height="5.01"/>
        <rect class="cls-12" x="11.95" y="104.11" width="18.68" height="5.01"/>
        <rect class="cls-3" x="11.95" y="109.11" width="18.68" height="5.01"/>
        <rect class="cls-14" x="11.95" y="112.76" width="18.68" height="1.36"/>
        <path d="M2.56,114.12H11.95v-15.02H6.26l-5.05,2.28c-.75,.47-1.2,1.29-1.2,2.17v8.01c0,1.41,1.14,2.56,2.56,2.56Z"/>
        <rect class="cls-7" x="232.87" y="83.46" width="42.41" height="6.95"/>
        <rect class="cls-7" x="227.72" y="62.7" width="53.74" height="6.95" transform="translate(27.78 199.41) rotate(-45)"/>
        <rect class="cls-7" x="214.15" y="52.06" width="61.08" height="5.52" transform="translate(113.06 268.25) rotate(-70.96)"/>
        <rect class="cls-7" x="202.05" y="42.99" width="64.3" height="5.52" transform="translate(188.45 279.95) rotate(-90)"/>
        <rect x="65.93" y="45.75" width="12.15" height="38.89" rx="2.26" ry="2.26"/>
        <path d="M28.1,114.12h3.02c1.75-17.01,13.51-25.92,32.76-22.2,2.29-1.25,4.39-4.06,4.93-5.94l-2.9-1.24c-20.94-1.94-36.64,2.97-37.8,29.38Z"/>
        <g>
          <polygon class="cls-13" points="84.97 82.77 84.97 13.6 83.67 13.6 83.67 83.46 114.81 83.46 114.81 82.77 84.97 82.77"/>
          <polygon class="cls-13" points="121.67 82.77 121.67 13.6 120.37 13.6 120.37 83.46 176.53 83.46 176.53 82.77 121.67 82.77"/>
          <polygon class="cls-13" points="183.39 82.77 183.39 13.6 182.09 13.6 182.09 83.46 221.64 83.46 221.46 82.77 183.39 82.77"/>
        </g>
        <path class="cls-14" d="M52.31,75.63h-5.12c-.4,0-.72-.32-.72-.72h0c0-.4,.32-.72,.72-.72h5.12c.4,0,.72,.32,.72,.72h0c0,.4-.32,.72-.72,.72Z"/>
        <rect class="cls-13" x="50.16" y="26.5" width="9.21" height="1.04"/>
        <path class="cls-7" d="M58.12,26.5h-6.7l1.08-7.13c.08-.56,.57-.98,1.14-.98h2.28c.57,0,1.05,.42,1.14,.98l1.08,7.13Z"/>
        <polygon class="cls-15" points="51.64 23.91 51.23 26.5 58.3 26.5 57.89 23.91 51.64 23.91"/>
        <g>
          <rect class="cls-12" x="86.41" y="84.61" width="12.15" height="35.24" rx="2.26" ry="2.26" transform="translate(-9.75 194.71) rotate(-90)"/>
          <rect class="cls-12" x="115.84" y="88.94" width="15.78" height="22.93" rx="2.26" ry="2.26" transform="translate(23.33 224.14) rotate(-90)"/>
          <rect class="cls-13" x="74.86" y="102.23" width="35.24" height=".52"/>
          <rect class="cls-13" x="112.27" y="105.12" width="22.92" height=".59"/>
        </g>
        <g>
          <path class="cls-2" d="M143.08,30.76h-.14c-2.76,0-6.19,6.2-6.8,7.35l7.45,4.22c.46-.91,2.36-4.52,4.64-7.54-1.53-2.13-3.39-4.03-5.15-4.03Z"/>
          <path class="cls-2" d="M151.99,40.43l.07,.16-2.02,1.39h8.18l3.37-6.69-2.02,.83-.09-.18c-.02-.05-2.44-5.18-5.46-5.18h-9.34c3.71,1.87,7.13,9.32,7.3,9.68Z"/>
          <path class="cls-2" d="M154.15,55.42l-.18-.02-.18-2.45-4.13,7.07,4.08,6.28,.3-2.16,.2,.02c.06,0,5.7,.51,7.23-2.1l4.71-8.06c-3.49,2.26-11.64,1.46-12.04,1.42Z"/>
          <path class="cls-2" d="M164.16,42.91l-7.4,4.31c.55,.86,2.71,4.31,4.17,7.81,2.61-.25,5.18-.89,6.07-2.42l.07-.12c1.39-2.38-2.24-8.47-2.92-9.57Z"/>
          <path class="cls-2" d="M139.31,49.66l.1-.15,2.22,1.04-4.15-7.05-7.02,.84,1.28,.97-.12,.17s-3.22,4.73-1.69,7.33l4.74,8.04c-.27-4.15,4.41-10.87,4.63-11.2Z"/>
          <path class="cls-2" d="M136.35,55.77c-1.06,2.4-1.75,4.96-.86,6.48h0s0,0,0,0l.07,.12c1.4,2.38,8.48,2.18,9.78,2.13l-.15-8.56c-1.02,.06-5.09,.26-8.85-.17Z"/>
        </g>
      </g>
      <g>
        <g>
          <g>
            <g>
              <polygon class="cls-1" points="350.87 46.15 253.46 46.15 249.49 0 355.23 0 350.87 46.15"/>
              <polygon class="cls-16" points="345.49 49.43 258.87 49.43 255.35 3.28 349.37 3.28 345.49 49.43"/>
            </g>
            <path class="cls-17" d="M258.44,43.75l-3.09-40.46h94.02s-3.46,41.2-3.4,40.46c.06-.74-.56-31.25-.56-31.25l-86.11-.31-.87,31.56Z"/>
          </g>
          <g>
            <g>
              <path class="cls-8" d="M350.12,89.32c-.81-2.78-1.54-5.58-2.27-8.38-1.51-5.77-2.94-11.56-4.36-17.36-.78-3.2,.72-6.23,3.26-7.93-1.04-2.08-1.87-4.23-2.22-6.53-.74-4.78,.66-9.63,.54-14.46-.08-3.5-1.4-8-4.56-9.98-3.78-2.37-7.44,.94-10.45,3.33-.07,.06-.14,.11-.21,.17-9.66,7.72-18.39,16.59-25.96,26.36-3.69,4.77-7.23,10.08-7.63,16.1-.38,5.63,2.14,11.19,5.9,15.41,3.76,4.21,8.68,7.22,13.75,9.71,6.83,3.35,14.55,5.91,21.97,4.24,5.13-1.15,9.68-4.37,12.77-8.64-.16-.68-.34-1.35-.54-2.02Z"/>
              <path class="cls-8" d="M337.69,27c1.02-4.27,.53-8.88-1.37-12.84,4.12-.83,8.84-.94,12.71,.71-3,4.77-6.82,8.76-11.34,12.12Z"/>
            </g>
            <path d="M307.48,50.58c-3.39,3.95-6.61,8.12-8.66,12.9-2.19,5.11-2.94,11.06-.95,16.25,1.39,3.61,3.99,6.64,6.89,9.2,3.97,3.51,8.84,6.36,14.14,6.55,5.54,.21,10.76-2.49,15.41-5.52,3.61-2.36,7.23-5.17,8.84-9.17,1.43-3.55,1.06-7.71-.69-11.12-1.75-3.41-4.78-6.07-8.25-7.69-2.79-1.31-7.4-2.67-7.29-6.57,.04-1.59,1.1-3.01,1.21-4.61,.12-1.84-1.04-3.58-.93-5.42,.12-2.17,1.9-3.8,3.32-5.45,1.45-1.69,2.63-3.61,3.46-5.68,.38-.93,.69-1.97,.42-2.94-1.32-4.77-9.72,1.94-11.35,3.36-5.31,4.65-10.22,9.74-14.85,15.07-.24,.28-.48,.55-.72,.83Z"/>
            <path class="cls-10" d="M343.49,63.58c-.59-2.41,.12-4.73,1.6-6.45-1.29-2.44-2.37-4.96-2.88-7.67-.26-1.34-.36-2.71-.32-4.07,.03-1.22,.18-2.43,.44-3.62,.21-.95,.83-2.11,.39-3.07-.98-2.17-4.51,1.46-5.23,2.39-1.42,1.81-2.28,4-3.01,6.18-1.16,3.51-1.87,7.8,.6,10.55,1.03,1.14,2.45,1.81,3.73,2.66,2.33,1.54,4.21,3.72,5.44,6.22-.26-1.04-.51-2.08-.76-3.12Z"/>
            <path class="cls-10" d="M347.85,80.94c-.67-2.57-1.33-5.15-1.98-7.73,.1,2.3-.12,4.62,.17,6.9,.18,1.42,.72,3.01,2.05,3.56,.17,.07,.34,.11,.51,.14-.25-.96-.5-1.91-.75-2.87Z"/>
            <path class="cls-2" d="M343.6,94.15c.8-.44,1.47-1.11,1.92-1.9,.13-.23-.22-.44-.35-.21-.42,.74-1.03,1.34-1.78,1.75-.23,.13-.02,.48,.21,.35h0Z"/>
            <path class="cls-2" d="M347.1,89.69c.25-.35,.5-.69,.75-1.04,.06-.09,.02-.23-.07-.28-.11-.06-.21-.02-.28,.07-.25,.35-.5,.69-.75,1.04-.06,.09-.02,.23,.07,.28,.11,.06,.21,.02,.28-.07h0Z"/>
            <path class="cls-2" d="M344.61,91.32c.13-.17,.25-.35,.38-.52,.03-.04,.03-.11,.02-.16-.01-.05-.05-.1-.09-.12-.05-.03-.11-.04-.16-.02-.05,.02-.09,.05-.12,.09-.13,.17-.25,.35-.38,.52-.03,.04-.03,.11-.02,.16,.01,.05,.05,.1,.09,.12,.05,.03,.11,.04,.16,.02,.05-.02,.09-.05,.12-.09h0Z"/>
            <path class="cls-2" d="M340.28,46.92c-.5,1.84-.5,3.78-.01,5.63,.07,.25,.46,.15,.4-.11-.47-1.77-.46-3.64,.01-5.41,.07-.26-.33-.36-.4-.11h0Z"/>
            <path class="cls-2" d="M337.79,48.65c.08,.5,.16,1,.24,1.49,.02,.11,.15,.17,.25,.14,.12-.03,.16-.14,.14-.25-.08-.5-.16-1-.24-1.49-.02-.11-.15-.17-.25-.14-.12,.03-.16,.14-.14,.25h0Z"/>
          </g>
          <g>
            <g>
              <path class="cls-8" d="M297.22,60.12c-2.87-5.82-5.74-11.63-8.62-17.45-1.22-2.48-2.47-4.99-4.24-7.11-1.77-2.12-4.15-3.86-6.88-4.31-2.67-.44-5.43,.38-7.76,1.76-7.03,4.13-10.96,10.15-14.78,16.51,.49,.5,.89,1.08,1.15,1.75,1.46,3.68,2.12,7.22,2.59,11.13,.41,3.39,1.29,6.67,1.8,10.04,.32,2.16,.58,4.34,.29,6.51-.18,1.37-.46,2.72-.73,4.07-.07,.34-.14,.68-.21,1.02-.01,.11-.04,.32-.09,.64-.03,.72-.03,1.43-.06,2.15,.02,.49,.03,.72,.02,.71,.03,.27,.07,.55,.11,.82,.23,1.69,.47,3.38,.61,5.09,.71,.16,1.43,.3,2.16,.41,6.22,.93,12.6,0,18.63-1.79,4.84-1.43,9.61-3.45,13.4-6.77,3.79-3.33,6.51-8.12,6.47-13.17-.04-4.24-1.95-8.2-3.83-12Z"/>
              <path class="cls-8" d="M278.5,35.63c1.28-5.52,4.64-10.46,9.38-13.56-1.24-.41-2.48-.82-3.72-1.23-1.06-.35-2.13-.7-3.24-.83-.81-.09-1.36-.21-2.17-.06-1.97,3.68-3.12,7.8-3.33,11.97,.78,1.46,2.03,2.42,3.06,3.72Z"/>
            </g>
            <path d="M291.57,60.47c-1.43-1.12-3.27-1.68-4.58-2.95-3.12-3.01-1.88-8.16-2.74-12.4-.86-4.25-4.35-7.68-8.43-8.96-1.72-.54-3.96-.95-5.74-.49-1.81,.47-3.39,2.05-4.77,3.22-2.33,1.99-4.46,4.21-6.35,6.62-1.31,1.67-2.53,3.67-2.91,5.71,0,.02,.02,.04,.02,.05,.71,1.79,1.23,3.55,1.63,5.33,1.5,1.52,3.69,2.5,5.62,3.56,5.39,2.97,9.74,7.78,12.15,13.44,.53,1.25,.99,2.56,1.78,3.67,2.09,2.9,6.32,3.74,9.65,2.45,3.33-1.29,5.75-4.36,6.94-7.73,1.4-3.94,1.01-8.94-2.29-11.52Z"/>
            <path class="cls-10" d="M268.9,69.33c-2.05-3.74-5.22-6.69-9.45-7.67-.29-.07-.59-.13-.89-.18,.04,.3,.08,.6,.12,.91,.41,3.39,1.29,6.67,1.8,10.04,.32,2.16,.58,4.34,.29,6.51-.12,.87-.27,1.73-.44,2.59,1.3,.9,2.73,1.57,4.29,1.56,2.9-.03,5.34-2.58,5.96-5.41,.61-2.83-.27-5.8-1.66-8.34Z"/>
            <path class="cls-2" d="M265.41,79.6c.36-.57,.71-1.14,1.07-1.71,.14-.22-.21-.43-.35-.21-.36,.57-.71,1.14-1.07,1.71-.14,.22,.21,.43,.35,.21h0Z"/>
          </g>
          <g>
            <g>
              <path class="cls-8" d="M283.75,50.33c-.37,2.9-.75,5.85-1.34,8.82-.67,3.35-1.78,6.65-1.77,10.06,.03,6.29,4.13,12.17,9.67,15.15,5.54,2.98,12.27,3.26,18.34,1.64,6.07-1.62,11.55-5.03,16.37-9.06,3.87-3.24,7.44-6.99,9.59-11.55,2.15-4.56,2.74-10.04,.69-14.65-1.72-3.87-5.06-6.74-8.3-9.48-4.95-4.19-9.9-8.38-14.85-12.57-2.11-1.79-4.25-3.59-6.72-4.83-2.47-1.24-5.35-1.88-8.03-1.21-2.63,.66-4.83,2.52-6.42,4.7-5.22,7.17-6.2,14.93-7.23,22.98Z"/>
              <path class="cls-8" d="M300.08,26.24c-1.03-5.57,.09-11.44,3.2-16.17l-3.9,.35c-1.11,.1-2.23,.2-3.3,.52-.78,.24-1.33,.35-2.01,.81-.34,4.16,.25,8.4,1.72,12.3,1.3,1.03,2.83,1.41,4.29,2.19Z"/>
            </g>
            <path d="M286.1,43.08c-.82,3.15-1.15,6.92,1.11,9.26,2.15,2.22,5.65,2.15,8.73,2.44,6.13,.58,12.03,3.26,16.5,7.49,.99,.94,1.93,1.96,3.1,2.65,3.07,1.82,7.29,.91,9.83-1.6,2.54-2.51,3.53-6.29,3.29-9.85-.29-4.17-2.64-8.6-6.69-9.66-1.76-.46-3.67-.24-5.37-.88-4.06-1.51-4.97-6.73-7.45-10.29-2.48-3.56-7.05-5.31-11.3-4.86-1.79,.19-4.01,.7-5.46,1.84-1.47,1.15-2.29,3.23-3.09,4.86-1.35,2.75-2.42,5.64-3.19,8.6Z"/>
            <path class="cls-10" d="M285.16,69.89c.38,1.84,1.71,3.56,3.54,4.02,1.6,.41,3.28-.17,4.93-.21,2.16-.05,4.22,.79,6.28,1.43,2.06,.64,4.36,1.05,6.33,.18,2.65-1.18,3.87-4.49,3.31-7.34-.56-2.84-2.56-5.21-4.85-6.99-3.37-2.62-7.45-4.05-11.72-3.27-1.4,.26-2.82,.65-3.85,1.68-1.1,1.09-1.79,2.61-2.54,3.95-1.1,1.97-1.89,4.27-1.42,6.55Z"/>
            <path class="cls-2" d="M291.17,69.69c-.71-.87-1.17-1.93-1.34-3.04-.02-.11-.15-.17-.25-.14-.12,.03-.16,.14-.14,.25,.18,1.18,.69,2.29,1.45,3.22,.17,.2,.46-.09,.29-.29h0Z"/>
            <path class="cls-2" d="M291.89,67.57c-.31-.72-.62-1.44-.94-2.16-.04-.1-.19-.12-.28-.07-.1,.06-.12,.18-.07,.28,.31,.72,.62,1.44,.94,2.16,.04,.1,.19,.12,.28,.07,.1-.06,.12-.18,.07-.28h0Z"/>
            <path class="cls-2" d="M294.23,69.23c-.07-.51-.14-1.03-.2-1.54-.01-.11-.08-.2-.2-.2-.1,0-.22,.09-.2,.2,.07,.51,.14,1.03,.2,1.54,.01,.11,.08,.2,.2,.2,.1,0,.22-.09,.2-.2h0Z"/>
            <path class="cls-2" d="M305.58,71.82c.1-.67,.2-1.33,.3-2,.02-.11-.03-.22-.14-.25-.1-.03-.24,.03-.25,.14l-.3,2c-.02,.11,.03,.22,.14,.25,.1,.03,.24-.03,.25-.14h0Z"/>
          </g>
          <g>
            <rect class="cls-8" x="259.2" y="120.61" width="86.32" height="4.78"/>
            <g>
              <path class="cls-8" d="M267.81,134.59h0c-2.14,0-3.88-1.74-3.88-3.88v-4.9c0-2.14,1.74-3.88,3.88-3.88h0c2.14,0,3.88,1.74,3.88,3.88v4.9c0,2.14-1.74,3.88-3.88,3.88Z"/>
              <path class="cls-8" d="M336.91,134.59h0c-2.14,0-3.88-1.74-3.88-3.88v-4.9c0-2.14,1.74-3.88,3.88-3.88h0c2.14,0,3.88,1.74,3.88,3.88v4.9c0,2.14-1.74,3.88-3.88,3.88Z"/>
            </g>
          </g>
          <g>
            <rect class="cls-8" x="250.17" y="41.37" width="9.02" height="5.52"/>
            <rect class="cls-8" x="345.52" y="41.37" width="9.02" height="5.52"/>
          </g>
          <g>
            <rect class="cls-1" x="253.44" y="46.15" width="97.84" height="75.78"/>
            <rect class="cls-1" x="251.39" y="43.75" width="101.94" height="6.3"/>
            <polygon class="cls-16" points="253.44 121.93 253.44 50.05 351.28 50.05 351.28 121.93 348.62 54.72 257.6 54.81 253.44 121.93"/>
          </g>
          <g>
            <g>
              <path class="cls-2" d="M319.42,106.02h-11.2v-5.8h11.2c.06,0,.23,0,.35-.2,.11-.19,.04-.33,0-.39l-7.96-12.87,4.93-3.05,8,12.94c1.16,1.94,1.18,4.27,.06,6.24s-3.13,3.14-5.39,3.14Z"/>
              <polygon class="cls-2" points="309.6 90.84 311.86 81.35 321.34 83.6 309.6 90.84"/>
            </g>
            <g>
              <path class="cls-2" d="M295.09,84.55l-5.04-2.87,7.53-13.22c1.13-1.91,3.12-3.05,5.33-3.05,.04,0,.07,0,.11,0,2.26,.04,4.25,1.25,5.34,3.23l5.36,9.83-5.09,2.78-5.36-9.83c-.03-.05-.11-.2-.34-.21-.2-.01-.31,.12-.34,.18l-7.49,13.15Z"/>
              <polygon class="cls-2" points="299.73 84.54 290.32 87.11 287.75 77.7 299.73 84.54"/>
            </g>
            <g>
              <path class="cls-2" d="M285.28,106.28h-.02c-2.26-.01-4.27-1.2-5.37-3.17s-1.07-4.3,.1-6.24l5.79-9.58,4.96,3-5.79,9.58s-.12,.2,0,.4c.1,.19,.26,.2,.33,.2l15.13-.16,.06,5.8-15.19,.16Z"/>
              <polygon class="cls-2" points="298.06 96.32 305.02 103.16 298.19 110.11 298.06 96.32"/>
            </g>
          </g>
        </g>
        <path class="cls-2" d="M339.48,114.71c1.88-2.65,3.58-5.42,5.09-8.31,.18-.34-.34-.64-.51-.3-1.51,2.88-3.21,5.66-5.09,8.31-.22,.31,.29,.61,.51,.3h0Z"/>
        <path class="cls-2" d="M340.17,109.08c.21-.52,.41-1.03,.62-1.55,.06-.14-.06-.33-.21-.37-.17-.04-.3,.05-.37,.21-.21,.52-.41,1.03-.62,1.55-.06,.14,.06,.33,.21,.37,.17,.04,.3-.05,.37-.21h0Z"/>
      </g>
      <g>
        <g>
          <path class="cls-8" d="M337.71,90c-2.58,9.26-4.05,18.82-4.38,28.42-.16,4.68,.02,9.64,2.51,13.62,2.32,3.72,6.44,6.09,10.73,7.03s8.76,.6,13.09-.13c5.83-.99,11.86-2.89,15.78-7.32,3.55-4.01,4.87-9.8,3.72-15.03-1.16-5.23-4.67-9.83-9.26-12.6-4.4-2.66-9.8-3.79-13.41-7.45-2.64-2.68-3.96-6.37-6.23-9.36-1.65-2.17-4.52-4.41-7.41-4.22-3.46,.23-4.27,3.98-5.07,6.85-.02,.07-.04,.13-.06,.2Z"/>
          <path class="cls-8" d="M342.11,85.7c-1.3-3.15-3.7-5.84-6.7-7.47,2.22-2.4,5.15-4.61,8.34-5.33,.27,4.37-.31,8.63-1.64,12.8Z"/>
        </g>
        <path d="M333.79,114.31c-.34,4.03-.47,8.12,.41,12.07,.94,4.22,3.17,8.31,6.79,10.68,2.52,1.65,5.53,2.37,8.53,2.66,4.1,.4,8.47-.01,11.89-2.3,3.59-2.39,5.65-6.46,7.2-10.48,1.21-3.13,2.21-6.54,1.41-9.8-.71-2.89-2.84-5.34-5.49-6.69s-5.77-1.65-8.7-1.1c-2.35,.44-5.88,1.68-7.59-.83-.7-1.03-.68-2.4-1.33-3.45-.76-1.22-2.28-1.79-3.05-3-.91-1.42-.53-3.26-.38-4.94,.15-1.73,.01-3.47-.4-5.16-.19-.76-.46-1.55-1.07-2.04-3-2.41-5.25,5.64-5.63,7.28-1.24,5.35-2.01,10.79-2.51,16.25-.03,.28-.05,.57-.08,.85Z"/>
        <path class="cls-10" d="M355.17,97.81c3.09,2.93,7.26,4.37,11.12,6.16s7.78,4.27,9.39,8.22c.33,.82,.56,1.73,.4,2.6-.16,.88-.77,1.71-1.64,1.91-1.09,.26-2.15-.5-2.91-1.31-1.49-1.6-2.53-3.58-4.01-5.19-2.39-2.59-5.95-4.06-9.48-3.91-1.19,.05-2.4,.27-3.56,.02-2.81-.61-4.31-3.63-5.18-6.38-.54-1.71-.98-3.48-.91-5.27,.04-.92,.61-4.8,2.21-3.89,.71,.41,.85,1.42,1.15,2.11,.38,.87,.83,1.7,1.36,2.48,.6,.88,1.29,1.69,2.06,2.42Z"/>
      </g>
      <g>
        <g>
          <path class="cls-8" d="M309.53,111.67c-1.17,1.96-2.35,3.94-3.69,5.87-1.51,2.18-3.33,4.19-4.37,6.63-1.93,4.49-.82,9.96,2.2,13.79,3.03,3.84,7.74,6.13,12.57,6.85,4.83,.72,9.79,0,14.48-1.39,3.76-1.11,7.47-2.68,10.41-5.27s5.06-6.31,5.03-10.23c-.03-3.29-1.52-6.38-2.98-9.33-2.23-4.52-4.47-9.04-6.7-13.56-.95-1.93-1.92-3.88-3.29-5.53s-3.23-3-5.35-3.35c-2.08-.34-4.22,.3-6.04,1.37-5.94,3.49-9.04,8.72-12.27,14.15Z"/>
          <path class="cls-8" d="M328.64,99.56c.99-4.29,3.61-8.13,7.29-10.54-.96-.32-1.93-.64-2.89-.96-.82-.27-1.65-.55-2.51-.65-.63-.07-1.06-.16-1.68-.05-1.53,2.86-2.42,6.06-2.59,9.31,.61,1.13,1.58,1.88,2.38,2.89Z"/>
        </g>
        <path d="M313.45,107.24c-1.56,1.99-2.97,4.58-2.07,6.95,.85,2.25,3.36,3.28,5.47,4.44,4.19,2.31,7.57,6.05,9.45,10.45,.42,.97,.77,1.99,1.39,2.85,1.62,2.25,4.91,2.91,7.5,1.9,2.59-1.01,4.47-3.39,5.39-6.01,1.09-3.07,.78-6.95-1.78-8.96-1.11-.87-2.54-1.31-3.56-2.29-2.43-2.34-1.46-6.34-2.13-9.64-.67-3.31-3.38-5.97-6.55-6.97-1.34-.42-3.08-.74-4.46-.38-1.4,.37-2.64,1.59-3.71,2.51-1.81,1.54-3.47,3.27-4.94,5.14Z"/>
        <path class="cls-10" d="M304.49,126.06c-.3,1.43,.12,3.07,1.28,3.96,1.02,.79,2.39,.9,3.58,1.38,1.56,.63,2.76,1.87,4.03,2.96,1.27,1.09,2.78,2.1,4.46,2.09,2.25-.02,4.15-2.01,4.63-4.21,.48-2.2-.21-4.51-1.29-6.49-1.59-2.91-4.06-5.2-7.34-5.96-1.08-.25-2.21-.41-3.27,0-1.12,.44-2.08,1.31-3.03,2.03-1.4,1.07-2.67,2.46-3.04,4.23Z"/>
      </g>
    </g>
  </g>
</svg>