<?xml version="1.0" encoding="UTF-8"?>
<svg id="Layer_2" data-name="Layer 2" xmlns="http://www.w3.org/2000/svg" viewBox="0 0 146 146">
  <defs>
    <style>
      .cls-1 {
        fill: #003b7e;
      }

      .cls-2 {
        fill: #ffe500;
      }
    </style>
  </defs>
  <g id="Layer_1-2" data-name="Layer 1">
    <g>
      <circle class="cls-2" cx="73" cy="73" r="73"/>
      <path class="cls-1" d="M34.37,74.36c-1.65,0-2.99-1.34-2.99-2.99s1.34-2.99,2.99-2.99,2.99,1.34,2.99,2.99-1.34,2.99-2.99,2.99Zm74.88-1.02c1.82,0,3.29-1.47,3.29-3.29s-1.47-3.29-3.29-3.29-3.29,1.47-3.29,3.29,1.47,3.29,3.29,3.29ZM41.06,55.25c1.82,0,3.29-1.47,3.29-3.29s-1.47-3.29-3.29-3.29-3.29,1.47-3.29,3.29,1.47,3.29,3.29,3.29Zm53.12,9.28c1.4,0,2.54-1.14,2.54-2.54s-1.14-2.54-2.54-2.54-2.54,1.14-2.54,2.54,1.14,2.54,2.54,2.54Zm1.5-21.33c1.4,0,2.54-1.14,2.54-2.54s-1.14-2.54-2.54-2.54-2.54,1.14-2.54,2.54,1.14,2.54,2.54,2.54Zm-46.13,13.82c0-10.78,8.77-19.55,19.55-19.55,.03,0,.06,0,.09,0v-1.52c0-.59,.48-1.07,1.07-1.07s1.07,.48,1.07,1.07v1.66c3.88,.45,7.57,2.05,10.56,4.65,.23,.2,.36,.49,.37,.79,0,.3-.12,.6-.34,.8-1.75,1.65-2.06,3.34-.97,5.29,.19,.34,.18,.76-.03,1.09-.02,.04-2.3,3.73-1.36,6.39,.38,1.09,1.27,1.86,2.71,2.35,.32,.11,.57,.37,.67,.69,.1,.32,.04,.68-.15,.95-.33,.46-1.17,1.99-.73,2.97,.42,.95,1.98,1.31,3.21,1.44,.36,.04,.68,.26,.84,.58,.17,.32,.16,.71-.02,1.02-3.47,6.12-9.99,9.93-17.01,9.93-10.78,0-19.55-8.77-19.55-19.55h0Zm2.15,0c0,9.59,7.81,17.4,17.4,17.4,5.73,0,11.09-2.85,14.32-7.53-1.68-.44-2.79-1.25-3.31-2.42-.63-1.43-.18-2.95,.29-3.96-1.42-.74-2.38-1.8-2.86-3.17-1.04-2.94,.55-6.38,1.26-7.7-1.06-2.28-.78-4.49,.82-6.46-2.43-1.85-5.29-3.01-8.29-3.41v3.28c.83-.16,1.32-.46,1.44-.64,0-.01,.03-.03,.03-.04,0-.59,.48-1.05,1.07-1.05s1.07,.5,1.07,1.1c0,1.67-1.97,2.88-4.69,2.88s-4.69-1.21-4.69-2.88c0-.59,.48-1.07,1.07-1.07s1.07,.48,1.07,1.07c.06,.13,.57,.47,1.47,.64v-3.44s-.06,0-.09,0c-9.6,0-17.4,7.8-17.4,17.4h0Zm-9.76,39.26c.21,.21,.48,.31,.76,.31s.55-.1,.76-.31l1.22-1.21,1.22,1.21c.21,.21,.48,.31,.76,.31s.55-.1,.76-.31c.42-.42,.42-1.1,0-1.52l-1.21-1.21,1.21-1.21c.42-.42,.42-1.1,0-1.52s-1.1-.42-1.52,0l-1.22,1.21-1.22-1.21c-.42-.42-1.1-.42-1.52,0s-.42,1.1,0,1.52l1.21,1.21-1.21,1.21c-.42,.42-.42,1.1,0,1.52h0Zm71.59,8.12c.26,.91-.07,1.83-.84,2.37-.37,.26-.79,.38-1.21,.38-.44,0-.88-.14-1.26-.42l-12.73-9.44c-.24-.18-.43-.41-.57-.66h-3.67l5.33,4.95c.43,.4,.46,1.08,.05,1.52-.21,.23-.5,.34-.79,.34-.26,0-.52-.1-.73-.29l-7.02-6.53h-5.4l6.44,5.99c.44,.4,.46,1.08,.06,1.52-.21,.23-.5,.34-.79,.34-.26,0-.52-.1-.73-.29l-8.13-7.56h-5.61l7.96,7.4c.44,.4,.46,1.08,.06,1.52-.21,.23-.5,.34-.79,.34-.26,0-.52-.1-.73-.29l-9.65-8.98h-4.09l6.44,5.99c.43,.4,.46,1.08,.05,1.52-.21,.23-.5,.34-.79,.34-.26,0-.52-.1-.73-.29l-8.13-7.56h-4.29l5.33,4.95c.43,.4,.46,1.08,.05,1.52-.21,.23-.5,.34-.79,.34-.26,0-.52-.1-.73-.29l-7.02-6.53h-1.09v13.21c0,.59-.48,1.07-1.07,1.07-9.66,0-17.82-8.94-20.88-12.78,0,0,0,0,0,0-1.21-1.52-1.21-3.64,0-5.15,3.06-3.84,11.22-12.78,20.88-12.78,.59,0,1.07,.48,1.07,1.07v13.21h1.09l7.02-6.53c.44-.4,1.11-.38,1.52,.06,.4,.43,.38,1.11-.05,1.52l-5.33,4.95h4.29l8.13-7.56c.43-.4,1.12-.38,1.52,.06,.4,.43,.38,1.11-.05,1.52l-6.44,5.99h4.09l9.65-8.98c.43-.4,1.11-.38,1.52,.06,.4,.43,.38,1.11-.06,1.52l-7.96,7.4h5.61l8.13-7.56c.43-.4,1.11-.38,1.52,.06,.4,.43,.38,1.11-.06,1.52l-6.44,5.99h5.4l7.02-6.53c.43-.4,1.11-.38,1.52,.06,.4,.43,.38,1.11-.06,1.52l-5.32,4.95h3.67c.14-.25,.33-.48,.57-.66l12.73-9.44c.74-.55,1.71-.57,2.47-.04,.77,.53,1.1,1.46,.84,2.37l-2.53,8.84,2.53,8.85Zm-58.68-22.01c-8.27,.64-15.37,8.48-18.12,11.93-.58,.73-.58,1.75,0,2.48,2.75,3.45,9.85,11.29,18.12,11.93v-26.34Zm56.65,22.61l-2.57-8.85c-.11-.39-.11-.8,0-1.19l2.53-8.82-12.69,9.41,12.73,9.45Z"/>
    </g>
  </g>
</svg>