<?xml version="1.0" encoding="UTF-8"?>
<svg id="Layer_2" data-name="Layer 2" xmlns="http://www.w3.org/2000/svg" viewBox="0 0 146 146">
  <defs>
    <style>
      .cls-1 {
        fill: #003b7e;
      }

      .cls-2 {
        fill: #ffe500;
      }
    </style>
  </defs>
  <g id="Layer_1-2" data-name="Layer 1">
    <g>
      <g>
        <circle class="cls-2" cx="73" cy="73" r="73"/>
        <path class="cls-1" d="M124.53,89.45h-24.33c-2.19,0-4.02,1.52-4.53,3.55h-11.75s0-2.42,0-2.42c0-.62-.51-1.13-1.13-1.13H17.93c-.62,0-1.13,.51-1.13,1.13v8.79c0,3.6,2.93,6.53,6.53,6.53h54.06c3.61,0,6.54-2.93,6.54-6.53v-4.11h11.75c.51,2.03,2.34,3.55,4.53,3.55h24.33c2.58,0,4.68-2.1,4.68-4.68s-2.1-4.68-4.68-4.68h0Zm-42.86,9.92c0,2.36-1.92,4.28-4.28,4.28H23.33c-2.36,0-4.28-1.92-4.28-4.28v-7.66h62.62v7.66Zm42.86-2.82h-24.33c-1.34,0-2.42-1.08-2.42-2.42s1.09-2.42,2.42-2.42h24.33c1.33,0,2.42,1.08,2.42,2.42s-1.08,2.42-2.42,2.42Z"/>
        <path class="cls-1" d="M77.7,70.72c-1.92,1.6-4.1,3.42-4.1,7.03,0,.62,.51,1.13,1.13,1.13s1.13-.51,1.13-1.13c0-2.55,1.52-3.82,3.29-5.29,1.92-1.6,4.1-3.42,4.1-7.03s-2.18-5.43-4.1-7.03c-1.77-1.47-3.29-2.74-3.29-5.3s1.53-3.82,3.29-5.3c1.92-1.6,4.1-3.42,4.1-7.03,0-.62-.51-1.13-1.13-1.13s-1.13,.51-1.13,1.13c0,2.55-1.52,3.82-3.29,5.29-1.92,1.6-4.1,3.42-4.1,7.03s2.18,5.43,4.1,7.03c1.77,1.47,3.29,2.74,3.29,5.29s-1.52,3.83-3.29,5.3h0Z"/>
      </g>
      <g>
        <path class="cls-1" d="M54.53,45.28c-.37-.37-.97-.37-1.34,0-.44,.44-10.74,10.73-10.74,16.84s5.12,11.41,11.41,11.41,11.41-5.12,11.41-11.41-10.3-16.4-10.74-16.84h0Zm-.67,26.34c-5.24,0-9.51-4.27-9.51-9.51,0-4.1,6.34-11.52,9.51-14.81,3.17,3.29,9.51,10.71,9.51,14.81,0,5.24-4.26,9.51-9.51,9.51Z"/>
        <path class="cls-1" d="M51.96,66.87c-2.1,0-3.8-1.71-3.8-3.8,0-.53-.43-.95-.95-.95s-.95,.43-.95,.95c0,3.15,2.56,5.7,5.7,5.7,.52,0,.95-.43,.95-.95s-.43-.95-.95-.95Z"/>
      </g>
    </g>
  </g>
</svg>